<svg xmlns="http://www.w3.org/2000/svg" xmlns:svg="http://www.w3.org/2000/svg" width="24" height="24" viewBox="0 0 24 24" fill="currentColor" tags="letter,font size,text,formatting,larger,bigger" categories="text,design">
  <path d="M 6.5 5.0019531 C 5.9484101 5.0019531 5.3555339 5.3493872 5.1152344 5.9257812 L 1.0761719 15.615234 A 1 1 0 0 0 1.6152344 16.923828 A 1 1 0 0 0 2.9238281 16.384766 L 3.9179688 14 L 9.0820312 14 L 10.076172 16.384766 A 1 1 0 0 0 11.384766 16.923828 A 1 1 0 0 0 11.923828 15.615234 L 7.8847656 5.9257812 C 7.6444661 5.3493872 7.0515899 5.0019531 6.5 5.0019531 z M 18 6 A 1.0001 1.0001 0 0 0 17.794922 6.0234375 A 1 1 0 0 0 17.611328 6.078125 A 1.0001 1.0001 0 0 0 17.5 6.1347656 A 1 1 0 0 0 17.439453 6.1757812 A 1.0001 1.0001 0 0 0 17.384766 6.2128906 A 1 1 0 0 0 17.341797 6.25 A 1.0001 1.0001 0 0 0 17.292969 6.2929688 A 1 1 0 0 0 17.283203 6.3027344 L 13.292969 10.292969 A 1 1 0 0 0 13.292969 11.707031 A 1 1 0 0 0 14.707031 11.707031 L 17 9.4140625 L 17 16 A 1 1 0 0 0 18 17 A 1 1 0 0 0 19 16 L 19 9.4140625 L 21.292969 11.707031 A 1 1 0 0 0 22.707031 11.707031 A 1 1 0 0 0 22.707031 10.292969 L 18.716797 6.3027344 A 1 1 0 0 0 18.658203 6.25 A 1.0001 1.0001 0 0 0 18.615234 6.2128906 A 1 1 0 0 0 18.560547 6.1757812 A 1.0001 1.0001 0 0 0 18.382812 6.0761719 A 1 1 0 0 0 18.257812 6.0351562 A 1.0001 1.0001 0 0 0 18 6 z M 6.5 7.8027344 L 8.2480469 12 L 4.7519531 12 L 6.5 7.8027344 z "/>
</svg>
