<?xml version="1.0" encoding="UTF-8" standalone="no"?>
<svg xmlns="http://www.w3.org/2000/svg" xmlns:svg="http://www.w3.org/2000/svg" width="24" height="24" viewBox="0 0 24 24" fill="currentColor" tags="letter,font size,text,formatting,smaller" categories="text,design">
  <path d="M 6.5 6 A 1.0001 1.0001 0 0 0 5.6054688 6.5527344 L 1.1054688 15.552734 A 1 1 0 0 0 1.5527344 16.894531 A 1 1 0 0 0 2.8945312 16.447266 L 4.1171875 14 L 8.8828125 14 L 10.105469 16.447266 A 1 1 0 0 0 11.447266 16.894531 A 1 1 0 0 0 11.894531 15.552734 L 7.3945312 6.5527344 A 1.0001 1.0001 0 0 0 6.5 6 z M 18 6 A 1 1 0 0 0 17 7 L 17 13.585938 L 14.707031 11.292969 A 1 1 0 0 0 14 11 A 1 1 0 0 0 13.292969 11.292969 A 1 1 0 0 0 13.292969 12.707031 L 17.283203 16.697266 L 17.292969 16.707031 A 1.0001 1.0001 0 0 0 17.341797 16.75 A 1 1 0 0 0 17.384766 16.787109 A 1.0001 1.0001 0 0 0 17.439453 16.824219 A 1 1 0 0 0 17.492188 16.861328 A 1.0001 1.0001 0 0 0 17.5 16.865234 A 1 1 0 0 0 17.611328 16.921875 A 1.0001 1.0001 0 0 0 17.617188 16.923828 A 1 1 0 0 0 17.742188 16.964844 A 1 1 0 0 0 17.794922 16.976562 A 1.0001 1.0001 0 0 0 18 17 A 1.0001 1.0001 0 0 0 18.205078 16.976562 A 1.0001 1.0001 0 0 0 18.257812 16.964844 A 1 1 0 0 0 18.382812 16.923828 A 1.0001 1.0001 0 0 0 18.560547 16.824219 A 1 1 0 0 0 18.615234 16.787109 A 1.0001 1.0001 0 0 0 18.658203 16.75 A 1 1 0 0 0 18.716797 16.697266 L 22.707031 12.707031 A 1 1 0 0 0 22.707031 11.292969 A 1 1 0 0 0 21.292969 11.292969 L 19 13.585938 L 19 7 A 1 1 0 0 0 18 6 z M 6.5 9.2363281 L 7.8828125 12 L 5.1171875 12 L 6.5 9.2363281 z "/>
</svg>
