<?xml version="1.0" encoding="UTF-8" standalone="no"?>
<svg xmlns="http://www.w3.org/2000/svg" xmlns:svg="http://www.w3.org/2000/svg" width="24" height="24" viewBox="0 0 24 24" fill="currentColor" tags="letter,font size,text,formatting,smaller" categories="text,design">
  <path d="M 6.5 5.0019531 C 5.9484101 5.0019531 5.3555339 5.3493872 5.1152344 5.9257812 L 1.0761719 15.615234 A 1 1 0 0 0 1.6152344 16.923828 A 1 1 0 0 0 2.9238281 16.384766 L 3.9179688 14 L 9.0820312 14 L 10.076172 16.384766 A 1 1 0 0 0 11.384766 16.923828 A 1 1 0 0 0 11.923828 15.615234 L 7.8847656 5.9257812 C 7.6444661 5.3493872 7.0515899 5.0019531 6.5 5.0019531 z M 18 6 A 1 1 0 0 0 17 7 L 17 13.585938 L 14.707031 11.292969 A 1 1 0 0 0 14 11 A 1 1 0 0 0 13.292969 11.292969 A 1 1 0 0 0 13.292969 12.707031 L 17.292969 16.707031 A 1.0001 1.0001 0 0 0 17.341797 16.75 A 1 1 0 0 0 17.384766 16.787109 A 1.0001 1.0001 0 0 0 17.439453 16.824219 A 1 1 0 0 0 17.492188 16.861328 A 1.0001 1.0001 0 0 0 17.5 16.865234 A 1 1 0 0 0 17.611328 16.921875 A 1.0001 1.0001 0 0 0 17.617188 16.923828 A 1 1 0 0 0 17.794922 16.976562 A 1.0001 1.0001 0 0 0 18.257812 16.964844 A 1 1 0 0 0 18.382812 16.923828 A 1.0001 1.0001 0 0 0 18.560547 16.824219 A 1 1 0 0 0 18.615234 16.787109 A 1.0001 1.0001 0 0 0 18.658203 16.75 A 1 1 0 0 0 18.716797 16.697266 L 22.707031 12.707031 A 1 1 0 0 0 22.707031 11.292969 A 1 1 0 0 0 21.292969 11.292969 L 19 13.585938 L 19 7 A 1 1 0 0 0 18 6 z M 6.5 7.8027344 L 8.2480469 12 L 4.7519531 12 L 6.5 7.8027344 z "/>
</svg>
