<?xml version="1.0" encoding="UTF-8" standalone="no"?>
<svg xmlns="http://www.w3.org/2000/svg" xmlns:svg="http://www.w3.org/2000/svg" width="24" height="24" viewBox="0 0 24 24" fill="currentColor" tags="letter,font size,text,formatting,larger,bigger" categories="text,design">
  <path d="M 6.5 6 A 1.0001 1.0001 0 0 0 5.6054688 6.5527344 L 1.1054688 15.552734 A 1 1 0 0 0 1.5527344 16.894531 A 1 1 0 0 0 2.8945312 16.447266 L 4.1171875 14 L 8.8828125 14 L 10.105469 16.447266 A 1 1 0 0 0 11.447266 16.894531 A 1 1 0 0 0 11.894531 15.552734 L 7.3945312 6.5527344 A 1.0001 1.0001 0 0 0 6.5 6 z M 18 6 A 1.0001 1.0001 0 0 0 17.794922 6.0234375 A 1 1 0 0 0 17.742188 6.0351562 A 1 1 0 0 0 17.617188 6.0761719 A 1 1 0 0 0 17.611328 6.078125 A 1.0001 1.0001 0 0 0 17.5 6.1347656 A 1 1 0 0 0 17.439453 6.1757812 A 1.0001 1.0001 0 0 0 17.384766 6.2128906 A 1 1 0 0 0 17.341797 6.25 A 1.0001 1.0001 0 0 0 17.292969 6.2929688 A 1 1 0 0 0 17.283203 6.3027344 L 13.292969 10.292969 A 1 1 0 0 0 13.292969 11.707031 A 1 1 0 0 0 14.707031 11.707031 L 17 9.4140625 L 17 16 A 1 1 0 0 0 18 17 A 1 1 0 0 0 19 16 L 19 9.4140625 L 21.292969 11.707031 A 1 1 0 0 0 22.707031 11.707031 A 1 1 0 0 0 22.707031 10.292969 L 18.716797 6.3027344 A 1 1 0 0 0 18.658203 6.25 A 1.0001 1.0001 0 0 0 18.615234 6.2128906 A 1 1 0 0 0 18.560547 6.1757812 A 1.0001 1.0001 0 0 0 18.382812 6.0761719 A 1 1 0 0 0 18.257812 6.0351562 A 1.0001 1.0001 0 0 0 18.205078 6.0234375 A 1.0001 1.0001 0 0 0 18 6 z M 6.5 9.2363281 L 7.8828125 12 L 5.1171875 12 L 6.5 9.2363281 z "/>
</svg>
