<svg xmlns="http://www.w3.org/2000/svg" xmlns:svg="http://www.w3.org/2000/svg" width="24" height="24" viewBox="0 0 24 24" fill="currentColor" tags="letter,font size,text,formatting" categories="text,design">
  <path d="M 6.5 5.0019531 C 5.9484101 5.0019531 5.3555339 5.3493872 5.1152344 5.9257812 L 1.0761719 15.615234 A 1 1 0 0 0 1.6152344 16.923828 A 1 1 0 0 0 2.9238281 16.384766 L 3.9179688 14 L 9.0820312 14 L 10.076172 16.384766 A 1 1 0 0 0 11.384766 16.923828 A 1 1 0 0 0 11.923828 15.615234 L 7.8847656 5.9257812 C 7.6444661 5.3493872 7.0515899 5.0019531 6.5 5.0019531 z M 18.5 6.984375 C 17.718361 6.984375 16.887687 7.4899613 16.591797 8.3457031 L 14.054688 15.673828 A 1 1 0 0 0 14.673828 16.945312 A 1 1 0 0 0 15.945312 16.326172 L 16.404297 15 L 20.595703 15 L 21.054688 16.326172 A 1 1 0 0 0 22.326172 16.945312 A 1 1 0 0 0 22.945312 15.673828 L 20.408203 8.3457031 C 20.112313 7.4899613 19.281639 6.984375 18.5 6.984375 z M 6.5 7.8027344 L 8.2480469 12 L 4.7519531 12 L 6.5 7.8027344 z M 18.511719 8.9746094 C 18.512859 8.9791655 18.515033 8.9850653 18.519531 8.9980469 A 1.0001 1.0001 0 0 0 18.519531 9 L 19.904297 13 L 17.095703 13 L 18.480469 9 A 1.0001 1.0001 0 0 0 18.480469 8.9980469 C 18.48441 8.9866497 18.487012 8.9813192 18.488281 8.9765625 L 18.490234 8.9785156 L 18.490234 8.9804688 L 18.492188 8.9824219 L 18.494141 8.9824219 L 18.496094 8.984375 L 18.498047 8.984375 L 18.5 8.984375 L 18.501953 8.984375 L 18.503906 8.984375 L 18.505859 8.9824219 L 18.507812 8.9824219 L 18.507812 8.9804688 L 18.509766 8.9804688 L 18.509766 8.9785156 L 18.509766 8.9765625 L 18.511719 8.9746094 z "/>
</svg>
