<?xml version="1.0" encoding="UTF-8" standalone="no"?>
<svg xmlns="http://www.w3.org/2000/svg" xmlns:svg="http://www.w3.org/2000/svg" width="24" height="24" viewBox="0 0 24 24" fill="currentColor" tags="disability,disabled,dda,wheelchair" categories="accessibility,medical">
  <path d="M 16 2 C 14.907277 2 14 2.9072773 14 4 C 14 5.0927227 14.907277 6 16 6 C 17.092723 6 18 5.0927227 18 4 C 18 2.9072773 17.092723 2 16 2 z M 7.8574219 4.0117188 A 1.0001 1.0001 0 0 0 7.2929688 4.2929688 L 4.2929688 7.2929688 A 1 1 0 0 0 4.2929688 8.7070312 A 1 1 0 0 0 5.7070312 8.7070312 L 8.1777344 6.2363281 L 12.056641 8.3515625 L 10.742188 10.300781 C 9.9451124 10.053392 9.0859825 9.9681055 8.2148438 10.082031 C 7.6297829 10.158541 7.0407413 10.323711 6.4609375 10.591797 A 1 1 0 0 0 5.9726562 11.919922 A 1 1 0 0 0 7.2988281 12.408203 C 8.9022065 11.666845 10.488985 12.048055 11.607422 13.023438 C 12.725859 13.998819 13.319127 15.51772 12.802734 17.207031 A 1 1 0 0 0 13.466797 18.457031 A 1 1 0 0 0 14.716797 17.792969 C 15.151387 16.371261 15.034122 14.967379 14.533203 13.757812 L 17.816406 13.210938 L 17.009766 18.859375 A 1 1 0 0 0 17.859375 19.990234 A 1 1 0 0 0 18.990234 19.140625 L 19.990234 12.140625 A 1.0001 1.0001 0 0 0 18.835938 11.013672 L 13.349609 11.927734 C 13.213629 11.783052 13.070983 11.645661 12.921875 11.515625 C 12.799461 11.408868 12.672087 11.307617 12.541016 11.210938 L 14.330078 8.5585938 A 1.0001 1.0001 0 0 0 13.978516 7.1230469 L 8.4785156 4.1230469 A 1.0001 1.0001 0 0 0 7.8574219 4.0117188 z M 4.2226562 13.5 A 1 1 0 0 0 3.2832031 14.207031 C 2.5362657 16.650546 3.4213851 19.039543 5.078125 20.484375 C 6.7348649 21.929207 9.2198465 22.480545 11.539062 21.408203 A 1 1 0 0 0 12.027344 20.080078 A 1 1 0 0 0 10.701172 19.591797 C 9.0977934 20.333155 7.5110152 19.951945 6.3925781 18.976562 C 5.2741411 18.001181 4.680874 16.48228 5.1972656 14.792969 A 1 1 0 0 0 4.5332031 13.542969 A 1 1 0 0 0 4.2226562 13.5 z "/>
</svg>
