<svg xmlns="http://www.w3.org/2000/svg" xmlns:svg="http://www.w3.org/2000/svg" width="24" height="24" viewBox="0 0 24 24" fill="currentColor" tags="disability,disabled,dda,wheelchair" categories="accessibility,medical">
  <path d="M 16 2 C 14.907275 2 14 2.9072751 14 4 C 14 5.0927249 14.907275 6 16 6 C 17.092725 6 18 5.0927249 18 4 C 18 2.9072751 17.092725 2 16 2 z M 7.9863281 4 A 1.0001 1.0001 0 0 0 7.2929688 4.2929688 L 4.2929688 7.2929688 A 1 1 0 0 0 4.2929688 8.7070312 A 1 1 0 0 0 5.7070312 8.7070312 L 8.1777344 6.2363281 L 12.056641 8.3515625 L 10.742188 10.300781 C 9.9452259 10.053489 9.0858365 9.9681246 8.2148438 10.082031 C 7.6297818 10.158541 7.0407425 10.323711 6.4609375 10.591797 A 1 1 0 0 0 5.9726562 11.919922 A 1 1 0 0 0 7.2988281 12.408203 C 8.9022097 11.666844 10.488983 12.048053 11.607422 13.023438 C 12.725861 13.998821 13.319127 15.517716 12.802734 17.207031 A 1 1 0 0 0 13.466797 18.457031 A 1 1 0 0 0 14.716797 17.792969 C 15.15141 16.371187 15.034187 14.967422 14.533203 13.757812 L 17.816406 13.210938 L 17.009766 18.859375 A 1 1 0 0 0 17.859375 19.990234 A 1 1 0 0 0 18.990234 19.140625 L 19.990234 12.140625 A 1.0001 1.0001 0 0 0 18.835938 11.013672 L 13.349609 11.927734 C 13.21363 11.783052 13.070982 11.64566 12.921875 11.515625 C 12.799378 11.408796 12.672181 11.307675 12.541016 11.210938 L 14.330078 8.5585938 A 1.0001 1.0001 0 0 0 13.978516 7.1230469 L 8.4785156 4.1230469 A 1.0001 1.0001 0 0 0 7.9863281 4 z M 4.2753906 13.5 A 1 1 0 0 0 3.2832031 14.207031 C 2.5362641 16.65055 3.4213818 19.039541 5.078125 20.484375 C 6.7348682 21.929209 9.2198419 22.480547 11.539062 21.408203 A 1 1 0 0 0 12.027344 20.080078 A 1 1 0 0 0 10.701172 19.591797 C 9.0977902 20.333156 7.5110174 19.951946 6.3925781 18.976562 C 5.2741389 18.001179 4.680873 16.482284 5.1972656 14.792969 A 1 1 0 0 0 4.5332031 13.542969 A 1 1 0 0 0 4.2753906 13.5 z "/>
</svg>
