<?xml version="1.0" encoding="UTF-8" standalone="no"?>
<svg xmlns="http://www.w3.org/2000/svg" xmlns:svg="http://www.w3.org/2000/svg" width="24" height="24" viewBox="0 0 24 24" fill="currentColor" tags="pulse,action,motion,movement,exercise,fitness,healthcare,heart rate monitor,vital signs,vitals,emergency room,er,intensive care,hospital,defibrillator,earthquake,siesmic,magnitude,richter scale,aftershock,tremor,shockwave,audio,waveform,synthesizer,synthesiser,music" categories="medical,account,social,science,multimedia">
  
  <path d="M 9 2 A 1.0001 1.0001 0 0 0 8.0507812 2.6835938 L 5.2792969 11 L 2 11 A 1 1 0 0 0 1 12 A 1 1 0 0 0 2 13 L 6 13 A 1.0001 1.0001 0 0 0 6.9492188 12.316406 L 9 6.1640625 L 14.050781 21.316406 A 1.0001 1.0001 0 0 0 15.949219 21.316406 L 18.720703 13 L 22 13 A 1 1 0 0 0 23 12 A 1 1 0 0 0 22 11 L 18 11 A 1.0001 1.0001 0 0 0 17.050781 11.683594 L 15 17.835938 L 9.9492188 2.6835938 A 1.0001 1.0001 0 0 0 9 2 z "/>
</svg>
