<?xml version="1.0" encoding="UTF-8" standalone="no"?>
<svg xmlns="http://www.w3.org/2000/svg" xmlns:svg="http://www.w3.org/2000/svg" width="24" height="24" viewBox="0 0 24 24" fill="currentColor" tags="pulse,action,motion,movement,exercise,fitness,healthcare,heart rate monitor,vital signs,vitals,emergency room,er,intensive care,hospital,defibrillator,earthquake,siesmic,magnitude,richter scale,aftershock,tremor,shockwave,audio,waveform,synthesizer,synthesiser,music" categories="medical,account,social,science,multimedia">
  <path d="M 9 1 C 8.5072571 1 7.957637 1.3625997 7.8007812 1.9003906 A 1.0001 1.0001 0 0 0 7.796875 1.9101562 L 5.4472656 10.269531 C 5.3252777 10.704566 4.9381401 10.998707 4.4863281 11 L 2 11 A 1 1 0 0 0 1 12 A 1 1 0 0 0 2 13 L 4.4902344 13 A 1.0001 1.0001 0 0 0 4.4921875 13 C 5.8293256 12.9962 7.0120235 12.098031 7.3730469 10.810547 L 9 5.0214844 L 13.796875 22.089844 A 1.0001 1.0001 0 0 0 13.800781 22.099609 C 13.957643 22.637366 14.507257 23 15 23 C 15.492743 23 16.042363 22.637401 16.199219 22.099609 A 1.0001 1.0001 0 0 0 16.203125 22.089844 L 18.552734 13.730469 C 18.675254 13.293599 19.063824 12.999029 19.517578 13 A 1.0001 1.0001 0 0 0 19.519531 13 L 22 13 A 1 1 0 0 0 23 12 A 1 1 0 0 0 22 11 L 19.521484 11 L 19.519531 11 C 18.177713 10.998 16.989282 11.897323 16.626953 13.189453 L 15 18.978516 L 10.203125 1.9101562 A 1.0001 1.0001 0 0 0 10.199219 1.9003906 C 10.042357 1.3626041 9.4927429 1 9 1 z "/>
</svg>
