<?xml version="1.0" encoding="UTF-8" standalone="no"?>
<svg xmlns="http://www.w3.org/2000/svg" xmlns:svg="http://www.w3.org/2000/svg" width="24" height="24" viewBox="0 0 24 24" fill="currentColor" tags="air conditioner,ac,central air,cooling,climate-control" categories="home">
  <path d="M 4 2 C 2.3549936 2 1 3.3549936 1 5 L 1 10 C 1 11.645006 2.3549936 13 4 13 L 6 13 A 1 1 0 0 0 7 12 A 1 1 0 0 0 6 11 L 4 11 C 3.4358718 11 3 10.564128 3 10 L 3 5 C 3 4.4358718 3.4358718 4 4 4 L 20 4 C 20.564128 4 21 4.4358718 21 5 L 21 10 C 21 10.564128 20.564128 11 20 11 L 18 11 A 1 1 0 0 0 17 12 A 1 1 0 0 0 18 13 L 20 13 C 21.645006 13 23 11.645006 23 10 L 23 5 C 23 3.3549936 21.645006 2 20 2 L 4 2 z M 6 7 A 1 1 0 0 0 5 8 A 1 1 0 0 0 6 9 L 18 9 A 1 1 0 0 0 19 8 A 1 1 0 0 0 18 7 L 6 7 z M 10 11 A 1 1 0 0 0 9 12 L 9 17 A 1.0001 1.0001 0 0 0 9 17.013672 C 9.010592 17.767671 8.3164025 18.240233 7.6191406 17.953125 C 6.9218788 17.666019 6.762338 16.84238 7.3007812 16.314453 A 1 1 0 0 0 7.3144531 14.900391 A 1 1 0 0 0 5.9003906 14.886719 C 4.3886141 16.368965 4.8997146 18.99662 6.8574219 19.802734 C 8.8151289 20.608848 11.029738 19.103317 11 16.986328 L 11 12 A 1 1 0 0 0 10 11 z M 14 11 A 1 1 0 0 0 13 12 L 13 19.529297 A 1.0001 1.0001 0 0 0 13.001953 19.576172 C 13.053703 20.706698 13.645414 21.746602 14.591797 22.367188 A 1.0001 1.0001 0 0 0 14.599609 22.371094 C 16.245992 23.431043 18.188466 22.874207 19.193359 21.65625 C 20.198253 20.438293 20.37683 18.424825 19.023438 17.009766 A 1 1 0 0 0 17.609375 16.976562 A 1 1 0 0 0 17.578125 18.390625 C 18.272023 19.116141 18.114687 19.820068 17.650391 20.382812 C 17.186853 20.944632 16.527674 21.229281 15.685547 20.689453 C 15.277715 20.420305 15.023803 19.976312 15 19.488281 L 15 12 A 1 1 0 0 0 14 11 z "/>
</svg>
