<?xml version="1.0" encoding="UTF-8" standalone="no"?>
<svg xmlns="http://www.w3.org/2000/svg" xmlns:svg="http://www.w3.org/2000/svg" width="24" height="24" viewBox="0 0 24 24" fill="currentColor" tags="air conditioner,ac,central air,cooling,climate-control" categories="home">
  <path d="M 4 2 C 2.3549904 2 1 3.3549904 1 5 L 1 10 C 1 11.64501 2.3549904 13 4 13 L 6 13 A 1 1 0 0 0 7 12 A 1 1 0 0 0 6 11 L 4 11 C 3.4358706 11 3 10.564129 3 10 L 3 5 C 3 4.4358706 3.4358706 4 4 4 L 20 4 C 20.564129 4 21 4.4358706 21 5 L 21 10 C 21 10.564129 20.564129 11 20 11 L 18 11 A 1 1 0 0 0 17 12 A 1 1 0 0 0 18 13 L 20 13 C 21.64501 13 23 11.64501 23 10 L 23 5 C 23 3.3549904 21.64501 2 20 2 L 4 2 z M 6 7 A 1 1 0 0 0 5 8 A 1 1 0 0 0 6 9 L 18 9 A 1 1 0 0 0 19 8 A 1 1 0 0 0 18 7 L 6 7 z M 10 11 A 1 1 0 0 0 9 12 L 9 17 A 1.0001 1.0001 0 0 0 9 17.013672 C 9.0105918 17.767675 8.3164039 18.240233 7.6191406 17.953125 C 6.9218774 17.666017 6.7623369 16.84238 7.3007812 16.314453 A 1 1 0 0 0 7.3144531 14.900391 A 1 1 0 0 0 5.9003906 14.886719 C 4.388611 16.368967 4.8997108 18.996618 6.8574219 19.802734 C 8.815133 20.608851 11.029738 19.103321 11 16.986328 L 11 12 A 1 1 0 0 0 10 11 z M 14 11 A 1 1 0 0 0 13 12 L 13 19.529297 A 1.0001 1.0001 0 0 0 13.001953 19.576172 C 13.053703 20.7067 13.645412 21.746601 14.591797 22.367188 A 1.0001 1.0001 0 0 0 14.599609 22.371094 C 16.245995 23.431045 18.188464 22.874209 19.193359 21.65625 C 20.198255 20.438291 20.376832 18.424829 19.023438 17.009766 A 1 1 0 0 0 17.609375 16.976562 A 1 1 0 0 0 17.578125 18.390625 C 18.272025 19.116143 18.114688 19.820068 17.650391 20.382812 C 17.186852 20.944633 16.527675 21.229282 15.685547 20.689453 C 15.277714 20.420305 15.023803 19.976312 15 19.488281 L 15 12 A 1 1 0 0 0 14 11 z "/>
</svg>
