<svg xmlns="http://www.w3.org/2000/svg" xmlns:svg="http://www.w3.org/2000/svg" width="24" height="24" viewBox="0 0 24 24" fill="currentColor" tags="air conditioner,ac,central air,cooling,climate-control" categories="home">
  <path d="M 4 2 C 2.3549904 2 1 3.3549904 1 5 L 1 10 C 1 11.64501 2.3549904 13 4 13 L 6 13 A 1 1 0 0 0 7 12 A 1 1 0 0 0 6 11 L 4 11 C 3.4358706 11 3 10.564129 3 10 L 3 5 C 3 4.4358706 3.4358706 4 4 4 L 20 4 C 20.564129 4 21 4.4358706 21 5 L 21 10 C 21 10.564129 20.564129 11 20 11 L 18 11 A 1 1 0 0 0 17 12 A 1 1 0 0 0 18 13 L 20 13 C 21.64501 13 23 11.64501 23 10 L 23 5 C 23 3.3549904 21.64501 2 20 2 L 4 2 z M 6 7 A 1 1 0 0 0 5 8 A 1 1 0 0 0 6 9 L 18 9 A 1 1 0 0 0 19 8 A 1 1 0 0 0 18 7 L 6 7 z M 10 11 A 1 1 0 0 0 9 12 L 9 17 C 9.0001072 17.750509 8.3052245 18.212491 7.6132812 17.921875 C 6.9213381 17.631259 6.7648107 16.812466 7.3007812 16.287109 A 1 1 0 0 0 7.3144531 14.871094 A 1 1 0 0 0 5.9003906 14.857422 C 4.3943059 16.33368 4.8935031 18.948982 6.8378906 19.765625 C 8.782278 20.582266 11.000301 19.10894 11 17 L 11 12 A 1 1 0 0 0 10 11 z M 14 11 A 1 1 0 0 0 13 12 L 13 19.529297 A 1.0001 1.0001 0 0 0 13 19.542969 C 13.03075 22.094153 15.808867 23.775716 18.083984 22.621094 C 20.359102 21.466472 20.640566 18.230226 18.599609 16.699219 A 1 1 0 0 0 17.199219 16.900391 A 1 1 0 0 0 17.400391 18.300781 C 18.322189 18.992261 18.20528 20.316411 17.177734 20.837891 C 16.150189 21.359372 15.013891 20.669821 15 19.517578 L 15 12 A 1 1 0 0 0 14 11 z "/>
</svg>
