<?xml version="1.0" encoding="UTF-8" standalone="no"?>
<svg xmlns="http://www.w3.org/2000/svg" xmlns:svg="http://www.w3.org/2000/svg" width="24" height="24" viewBox="0 0 24 24" fill="currentColor" tags="stream,cast,mirroring,screen,monitor,macos,osx" categories="multimedia,connectivity,devices,brands">
  <path d="M 4 2 C 2.3549904 2 1 3.3549904 1 5 L 1 15 C 1 16.64501 2.3549904 18 4 18 L 5 18 A 1 1 0 0 0 6 17 A 1 1 0 0 0 5 16 L 4 16 C 3.4358706 16 3 15.564129 3 15 L 3 5 C 3 4.4358706 3.4358706 4 4 4 L 20 4 C 20.564129 4 21 4.4358706 21 5 L 21 15 C 21 15.564129 20.564129 16 20 16 L 19 16 A 1 1 0 0 0 18 17 A 1 1 0 0 0 19 18 L 20 18 C 21.64501 18 23 16.64501 23 15 L 23 5 C 23 3.3549904 21.64501 2 20 2 L 4 2 z M 12 14 A 1.0001 1.0001 0 0 0 11.232422 14.359375 L 6.2324219 20.359375 A 1.0001 1.0001 0 0 0 7 22 L 17 22 A 1.0001 1.0001 0 0 0 17.767578 20.359375 L 12.767578 14.359375 A 1.0001 1.0001 0 0 0 12 14 z M 12 16.5625 L 14.865234 20 L 9.1347656 20 L 12 16.5625 z "/>
</svg>
