<?xml version="1.0" encoding="UTF-8" standalone="no"?>
<svg xmlns="http://www.w3.org/2000/svg" xmlns:svg="http://www.w3.org/2000/svg" width="24" height="24" viewBox="0 0 24 24" fill="currentColor" tags="add" categories="devices,notifications,time">
  <path d="M 5 2 A 1 1 0 0 0 4.2929688 2.2929688 L 1.2929688 5.2929688 A 1 1 0 0 0 1.2929688 6.7070312 A 1 1 0 0 0 2.7070312 6.7070312 L 5.7070312 3.7070312 A 1 1 0 0 0 5.7070312 2.2929688 A 1 1 0 0 0 5 2 z M 19 2 A 1 1 0 0 0 18.292969 2.2929688 A 1 1 0 0 0 18.292969 3.7070312 L 21.292969 6.7070312 A 1 1 0 0 0 22.707031 6.7070312 A 1 1 0 0 0 22.707031 5.2929688 L 19.707031 2.2929688 A 1 1 0 0 0 19 2 z M 12 4 C 7.0412819 4 3 8.0412819 3 13 C 3 15.134815 3.7492467 17.099067 4.9980469 18.644531 L 3.3046875 20.28125 A 1 1 0 0 0 3.28125 21.695312 A 1 1 0 0 0 4.6953125 21.71875 L 6.4179688 20.052734 C 7.9535312 21.270829 9.8944747 22 12 22 C 14.114959 22 16.062766 21.265062 17.601562 20.037109 L 19.296875 21.710938 A 1 1 0 0 0 20.710938 21.703125 A 1 1 0 0 0 20.703125 20.289062 L 19.017578 18.625 C 20.257095 17.082477 21 15.125988 21 13 C 21 8.0412819 16.958718 4 12 4 z M 12 6 C 15.877838 6 19 9.1221621 19 13 C 19 14.89876 18.250526 16.616397 17.03125 17.875 A 1 1 0 0 0 16.927734 17.966797 A 1 1 0 0 0 16.847656 18.058594 C 15.591549 19.262457 13.885186 20 12 20 C 10.087879 20 8.3605503 19.240373 7.0996094 18.005859 A 1 1 0 0 0 7.0449219 17.953125 C 5.7801245 16.687917 5 14.938509 5 13 C 5 9.1221621 8.1221621 6 12 6 z M 12 9 A 1 1 0 0 0 11 10 L 11 12 L 9 12 A 1 1 0 0 0 8 13 A 1 1 0 0 0 9 14 L 11 14 L 11 16 A 1 1 0 0 0 12 17 A 1 1 0 0 0 13 16 L 13 14 L 15 14 A 1 1 0 0 0 16 13 A 1 1 0 0 0 15 12 L 13 12 L 13 10 A 1 1 0 0 0 12 9 z "/>
</svg>
