<?xml version="1.0" encoding="UTF-8" standalone="no"?>
<svg xmlns="http://www.w3.org/2000/svg" xmlns:svg="http://www.w3.org/2000/svg" width="24" height="24" viewBox="0 0 24 24" fill="currentColor" tags="morning" categories="devices,notifications,time">
  <path d="M 5 2 A 1 1 0 0 0 4.2929688 2.2929688 L 1.2929688 5.2929688 A 1 1 0 0 0 1.2929688 6.7070312 A 1 1 0 0 0 2.7070312 6.7070312 L 5.7070312 3.7070312 A 1 1 0 0 0 5.7070312 2.2929688 A 1 1 0 0 0 5 2 z M 18.888672 2.0058594 A 1 1 0 0 0 18.292969 2.2929688 A 1 1 0 0 0 18.292969 3.7070312 L 21.292969 6.7070312 A 1 1 0 0 0 22.707031 6.7070312 A 1 1 0 0 0 22.707031 5.2929688 L 19.707031 2.2929688 A 1 1 0 0 0 18.888672 2.0058594 z M 12 4 C 7.0412819 4 3 8.0412819 3 13 C 3 15.134704 3.7493639 17.099104 4.9980469 18.644531 L 3.3046875 20.28125 A 1 1 0 0 0 3.28125 21.695312 A 1 1 0 0 0 4.6953125 21.71875 L 6.4199219 20.052734 C 7.9554451 21.27071 9.8945884 22 12 22 C 14.11477 22 16.060878 21.262912 17.599609 20.035156 L 19.296875 21.710938 A 1 1 0 0 0 20.710938 21.703125 A 1 1 0 0 0 20.703125 20.289062 L 19.015625 18.625 C 20.25537 17.082404 21 15.126205 21 13 C 21 8.0412819 16.958718 4 12 4 z M 12 6 C 15.877838 6 19 9.1221621 19 13 C 19 14.913492 18.239987 16.643123 17.003906 17.904297 A 1 1 0 0 0 16.927734 17.966797 A 1 1 0 0 0 16.878906 18.025391 C 15.619813 19.247792 13.901505 20 12 20 C 10.088017 20 8.3605268 19.240215 7.0996094 18.005859 A 1 1 0 0 0 7.0917969 17.998047 C 5.7999819 16.729453 5 14.961869 5 13 C 5 9.1221621 8.1221621 6 12 6 z M 12 8 A 1 1 0 0 0 11 9 L 11 13 A 1.0001 1.0001 0 0 0 11.292969 13.707031 L 13.292969 15.707031 A 1 1 0 0 0 14.707031 15.707031 A 1 1 0 0 0 14.707031 14.292969 L 13 12.585938 L 13 9 A 1 1 0 0 0 12 8 z "/>
</svg>
