<?xml version="1.0" encoding="UTF-8" standalone="no"?>
<svg xmlns="http://www.w3.org/2000/svg" xmlns:svg="http://www.w3.org/2000/svg" width="24" height="24" viewBox="0 0 24 24" fill="currentColor" tags="morning,turn-off" categories="devices,notifications,time">
  <path d="M 2 1 A 1 1 0 0 0 1.2929688 1.2929688 A 1 1 0 0 0 1.2929688 2.7070312 L 2.5859375 4 L 1.2929688 5.2929688 A 1 1 0 0 0 1.2929688 6.7070312 A 1 1 0 0 0 2.7070312 6.7070312 L 4 5.4140625 L 5.4316406 6.8457031 C 2.3542788 10.074363 2.1193519 15.142514 4.8964844 18.640625 L 3.28125 20.304688 A 1 1 0 0 0 3.3046875 21.71875 A 1 1 0 0 0 4.71875 21.695312 L 6.3046875 20.060547 C 9.8044748 22.883615 14.908839 22.661733 18.154297 19.568359 L 21.292969 22.707031 A 1 1 0 0 0 22.707031 22.707031 A 1 1 0 0 0 22.707031 21.292969 L 4.7070312 3.2929688 L 2.7070312 1.2929688 A 1 1 0 0 0 2 1 z M 18.888672 2.0058594 A 1 1 0 0 0 18.292969 2.2929688 A 1 1 0 0 0 18.292969 3.7070312 L 21.292969 6.7070312 A 1 1 0 0 0 22.707031 6.7070312 A 1 1 0 0 0 22.707031 5.2929688 L 19.707031 2.2929688 A 1 1 0 0 0 18.888672 2.0058594 z M 11.986328 4 C 11.528715 4.0011234 11.063099 4.0372063 10.59375 4.1113281 A 1 1 0 0 0 9.7617188 5.2558594 A 1 1 0 0 0 10.90625 6.0878906 C 15.629443 5.341981 19.658019 9.3705575 18.912109 14.09375 A 1 1 0 0 0 19.744141 15.238281 A 1 1 0 0 0 20.888672 14.40625 C 21.718837 9.1495394 17.81446 4.4836784 12.800781 4.0351562 C 12.532191 4.0111281 12.260896 3.9993259 11.986328 4 z M 6.8457031 8.2597656 L 16.740234 18.154297 C 14.026869 20.715794 9.7248445 20.71768 7.0058594 18.003906 A 1 1 0 0 0 6.9570312 17.953125 A 1 1 0 0 0 6.9511719 17.949219 C 4.2823631 15.227938 4.2984005 10.958094 6.8457031 8.2597656 z "/>
</svg>
