<?xml version="1.0" encoding="UTF-8" standalone="no"?>
<svg xmlns="http://www.w3.org/2000/svg" xmlns:svg="http://www.w3.org/2000/svg" width="24" height="24" viewBox="0 0 24 24" fill="currentColor" tags="morning,turn-off" categories="devices,notifications,time">
  <path d="M 2 1 A 1 1 0 0 0 1.2929688 1.2929688 A 1 1 0 0 0 1.2929688 2.7070312 L 2.5859375 4 L 1.2929688 5.2929688 A 1 1 0 0 0 1.2929688 6.7070312 A 1 1 0 0 0 2.7070312 6.7070312 L 4 5.4140625 L 5.4296875 6.84375 C 2.3514948 10.072278 2.1192924 15.142159 4.8964844 18.640625 L 3.28125 20.304688 A 1 1 0 0 0 3.3046875 21.71875 A 1 1 0 0 0 4.71875 21.695312 L 6.3046875 20.060547 C 9.80481 22.883089 14.911139 22.664316 18.15625 19.570312 L 21.292969 22.707031 A 1 1 0 0 0 22.707031 22.707031 A 1 1 0 0 0 22.707031 21.292969 L 18.861328 17.447266 A 1 1 0 0 0 18.8125 17.398438 L 7.6015625 6.1875 A 1 1 0 0 0 7.5527344 6.1386719 L 4.7070312 3.2929688 L 2.7070312 1.2929688 A 1 1 0 0 0 2 1 z M 19 2 A 1 1 0 0 0 18.292969 2.2929688 A 1 1 0 0 0 18.292969 3.7070312 L 21.292969 6.7070312 A 1 1 0 0 0 22.707031 6.7070312 A 1 1 0 0 0 22.707031 5.2929688 L 19.707031 2.2929688 A 1 1 0 0 0 19 2 z M 11.710938 4.0039062 C 11.34258 4.0161343 10.969229 4.0520306 10.59375 4.1113281 A 1 1 0 0 0 9.7617188 5.2558594 A 1 1 0 0 0 10.90625 6.0878906 C 15.629443 5.341981 19.658019 9.3705575 18.912109 14.09375 A 1 1 0 0 0 19.744141 15.238281 A 1 1 0 0 0 20.888672 14.40625 C 21.718837 9.1495394 17.81446 4.4836784 12.800781 4.0351562 C 12.442661 4.0031188 12.079295 3.9916783 11.710938 4.0039062 z M 6.8457031 8.2597656 L 16.740234 18.154297 C 14.025253 20.717794 9.7188688 20.718869 7 18 A 1 1 0 0 0 6.9570312 17.953125 A 1 1 0 0 0 6.921875 17.919922 C 4.2817253 15.197205 4.3071098 10.948372 6.8457031 8.2597656 z "/>
</svg>
