<?xml version="1.0" encoding="UTF-8" standalone="no"?>
<svg xmlns="http://www.w3.org/2000/svg" xmlns:svg="http://www.w3.org/2000/svg" width="24" height="24" viewBox="0 0 24 24" fill="currentColor" tags="fire,alert,warning,detector,carbon monoxide,safety,equipment,amenities" categories="home,devices,travel">
  <path d="M 3 2 C 1.9072751 2 1 2.9072751 1 4 L 1 6 C 1 7.6450096 2.3549904 9 4 9 L 4.2304688 9 L 4.828125 11.234375 L 4.828125 11.236328 L 4.8339844 11.257812 C 5.06487 12.253966 5.9535305 12.979626 6.9804688 13 A 1.0001 1.0001 0 0 0 7 13 L 17 13 A 1.0001 1.0001 0 0 0 17.019531 13 C 18.046456 12.979624 18.935115 12.253948 19.166016 11.257812 L 19.171875 11.234375 L 19.769531 9 L 20 9 C 21.64501 9 23 7.6450096 23 6 L 23 4 C 23 2.9072751 22.092725 2 21 2 L 3 2 z M 3 4 L 21 4 L 21 6 C 21 6.5641294 20.564129 7 20 7 L 4 7 C 3.4358706 7 3 6.5641294 3 6 L 3 4 z M 6.3007812 9 L 17.699219 9 L 17.234375 10.742188 A 1.0001 1.0001 0 0 0 17.220703 10.800781 C 17.19621 10.920891 17.103023 10.997569 16.980469 11 L 7.0195312 11 C 6.8969772 10.9976 6.8037884 10.92089 6.7792969 10.800781 A 1.0001 1.0001 0 0 0 6.765625 10.742188 L 6.3007812 9 z M 8 15 A 1 1 0 0 0 7 16 C 7 16.983333 6.71875 17.25 6.21875 17.875 C 5.71875 18.5 5 19.483333 5 21 A 1 1 0 0 0 6 22 A 1 1 0 0 0 7 21 C 7 20.016667 7.28125 19.75 7.78125 19.125 C 8.28125 18.5 9 17.516667 9 16 A 1 1 0 0 0 8 15 z M 13 15 A 1 1 0 0 0 12 16 C 12 16.983333 11.71875 17.25 11.21875 17.875 C 10.71875 18.5 10 19.483333 10 21 A 1 1 0 0 0 11 22 A 1 1 0 0 0 12 21 C 12 20.016667 12.28125 19.75 12.78125 19.125 C 13.28125 18.5 14 17.516667 14 16 A 1 1 0 0 0 13 15 z M 18 15 A 1 1 0 0 0 17 16 C 17 16.983333 16.71875 17.25 16.21875 17.875 C 15.71875 18.5 15 19.483333 15 21 A 1 1 0 0 0 16 22 A 1 1 0 0 0 17 21 C 17 20.016667 17.28125 19.75 17.78125 19.125 C 18.28125 18.5 19 17.516667 19 16 A 1 1 0 0 0 18 15 z "/>
</svg>
