<?xml version="1.0" encoding="UTF-8" standalone="no"?>
<svg xmlns="http://www.w3.org/2000/svg" xmlns:svg="http://www.w3.org/2000/svg" width="24" height="24" viewBox="0 0 24 24" fill="currentColor" tags="top,items,flex,justify,distribute,between" categories="layout">
  <path d="M 2 1 A 1 1 0 0 0 1 2 A 1 1 0 0 0 2 3 L 22 3 A 1 1 0 0 0 23 2 A 1 1 0 0 0 22 1 L 2 1 z M 9 5 C 7.3552972 5 6 6.3552972 6 8 L 6 10 C 6 11.644703 7.3552972 13 9 13 L 15 13 C 16.644703 13 18 11.644703 18 10 L 18 8 C 18 6.3552972 16.644703 5 15 5 L 9 5 z M 9 7 L 15 7 C 15.571297 7 16 7.4287028 16 8 L 16 10 C 16 10.571297 15.571297 11 15 11 L 9 11 C 8.4287028 11 8 10.571297 8 10 L 8 8 C 8 7.4287028 8.4287028 7 9 7 z M 7 15 C 5.3552972 15 4 16.355297 4 18 L 4 20 C 4 21.644703 5.3552972 23 7 23 L 17 23 C 18.644703 23 20 21.644703 20 20 L 20 18 C 20 16.355297 18.644703 15 17 15 L 7 15 z M 7 17 L 17 17 C 17.571297 17 18 17.428703 18 18 L 18 20 C 18 20.571297 17.571297 21 17 21 L 7 21 C 6.4287028 21 6 20.571297 6 20 L 6 18 C 6 17.428703 6.4287028 17 7 17 z "/>
</svg>
