<svg xmlns="http://www.w3.org/2000/svg" xmlns:svg="http://www.w3.org/2000/svg" width="24" height="24" viewBox="0 0 24 24" fill="currentColor" tags="bottom,items,flex,justify,distribute,between" categories="layout">
  <path d="M 9 1 C 7.3552972 1 6 2.3552972 6 4 L 6 6 C 6 7.6447028 7.3552972 9 9 9 L 15 9 C 16.644703 9 18 7.6447028 18 6 L 18 4 C 18 2.3552972 16.644703 1 15 1 L 9 1 z M 9 3 L 15 3 C 15.571297 3 16 3.4287028 16 4 L 16 6 C 16 6.5712972 15.571297 7 15 7 L 9 7 C 8.4287028 7 8 6.5712972 8 6 L 8 4 C 8 3.4287028 8.4287028 3 9 3 z M 7 11 C 5.3552972 11 4 12.355297 4 14 L 4 16 C 4 17.644703 5.3552972 19 7 19 L 17 19 C 18.644703 19 20 17.644703 20 16 L 20 14 C 20 12.355297 18.644703 11 17 11 L 7 11 z M 7 13 L 17 13 C 17.571297 13 18 13.428703 18 14 L 18 16 C 18 16.571297 17.571297 17 17 17 L 7 17 C 6.4287028 17 6 16.571297 6 16 L 6 14 C 6 13.428703 6.4287028 13 7 13 z M 2 21 A 1 1 0 0 0 1 22 A 1 1 0 0 0 2 23 L 22 23 A 1 1 0 0 0 23 22 A 1 1 0 0 0 22 21 L 2 21 z "/>
</svg>
