<svg xmlns="http://www.w3.org/2000/svg" xmlns:svg="http://www.w3.org/2000/svg" width="24" height="24" viewBox="0 0 24 24" fill="currentColor" tags="top,items,flex,justify" categories="layout">
  <path d="M 2 1 A 1 1 0 0 0 1 2 A 1 1 0 0 0 2 3 L 22 3 A 1 1 0 0 0 23 2 A 1 1 0 0 0 22 1 L 2 1 z M 6 5 C 4.3552972 5 3 6.3552972 3 8 L 3 20 C 3 21.644703 4.3552972 23 6 23 L 8 23 C 9.6447028 23 11 21.644703 11 20 L 11 8 C 11 6.3552972 9.6447028 5 8 5 L 6 5 z M 16 5 C 14.355297 5 13 6.3552972 13 8 L 13 13 C 13 14.644703 14.355297 16 16 16 L 18 16 C 19.644703 16 21 14.644703 21 13 L 21 8 C 21 6.3552972 19.644703 5 18 5 L 16 5 z M 6 7 L 8 7 C 8.5712972 7 9 7.4287028 9 8 L 9 20 C 9 20.571297 8.5712972 21 8 21 L 6 21 C 5.4287028 21 5 20.571297 5 20 L 5 8 C 5 7.4287028 5.4287028 7 6 7 z M 16 7 L 18 7 C 18.571297 7 19 7.4287028 19 8 L 19 13 C 19 13.571297 18.571297 14 18 14 L 16 14 C 15.428703 14 15 13.571297 15 13 L 15 8 C 15 7.4287028 15.428703 7 16 7 z "/>
</svg>
