<?xml version="1.0" encoding="UTF-8" standalone="no"?>
<svg xmlns="http://www.w3.org/2000/svg" xmlns:svg="http://www.w3.org/2000/svg" width="24" height="24" viewBox="0 0 24 24" fill="currentColor" tags="items,flex,justify,space,evenly,around" categories="layout">
  <path d="M 9 3 C 7.3552972 3 6 4.3552972 6 6 L 2 6 A 1 1 0 0 0 1 7 A 1 1 0 0 0 2 8 L 6 8 C 6 9.6447028 7.3552972 11 9 11 L 15 11 C 16.644703 11 18 9.6447028 18 8 L 22 8 A 1 1 0 0 0 23 7 A 1 1 0 0 0 22 6 L 18 6 C 18 4.3552972 16.644703 3 15 3 L 9 3 z M 9 5 L 15 5 C 15.571297 5 16 5.4287028 16 6 L 16 7 L 16 8 C 16 8.5712972 15.571297 9 15 9 L 9 9 C 8.4287028 9 8 8.5712972 8 8 L 8 7 L 8 6 C 8 5.4287028 8.4287028 5 9 5 z M 7 13 C 5.3552972 13 4 14.355297 4 16 L 2 16 A 1 1 0 0 0 1 17 A 1 1 0 0 0 2 18 L 4 18 C 4 19.644703 5.3552972 21 7 21 L 17 21 C 18.644703 21 20 19.644703 20 18 L 22 18 A 1 1 0 0 0 23 17 A 1 1 0 0 0 22 16 L 20 16 C 20 14.355297 18.644703 13 17 13 L 7 13 z M 7 15 L 17 15 C 17.571297 15 18 15.428703 18 16 L 18 18 C 18 18.571297 17.571297 19 17 19 L 7 19 C 6.4287028 19 6 18.571297 6 18 L 6 16 C 6 15.428703 6.4287028 15 7 15 z "/>
</svg>
