<svg xmlns="http://www.w3.org/2000/svg" xmlns:svg="http://www.w3.org/2000/svg" width="24" height="24" viewBox="0 0 24 24" fill="currentColor" tags="items,right,flex,justify" categories="layout">
  <path d="M 22 1 A 1 1 0 0 0 21 2 L 21 22 A 1 1 0 0 0 22 23 A 1 1 0 0 0 23 22 L 23 2 A 1 1 0 0 0 22 1 z M 4 3 C 2.3552972 3 1 4.3552972 1 6 L 1 8 C 1 9.6447028 2.3552972 11 4 11 L 16 11 C 17.644703 11 19 9.6447028 19 8 L 19 6 C 19 4.3552972 17.644703 3 16 3 L 4 3 z M 4 5 L 16 5 C 16.571297 5 17 5.4287028 17 6 L 17 8 C 17 8.5712972 16.571297 9 16 9 L 4 9 C 3.4287028 9 3 8.5712972 3 8 L 3 6 C 3 5.4287028 3.4287028 5 4 5 z M 11 13 C 9.3552972 13 8 14.355297 8 16 L 8 18 C 8 19.644703 9.3552972 21 11 21 L 16 21 C 17.644703 21 19 19.644703 19 18 L 19 16 C 19 14.355297 17.644703 13 16 13 L 11 13 z M 11 15 L 16 15 C 16.571297 15 17 15.428703 17 16 L 17 18 C 17 18.571297 16.571297 19 16 19 L 11 19 C 10.428703 19 10 18.571297 10 18 L 10 16 C 10 15.428703 10.428703 15 11 15 z "/>
</svg>
