<?xml version="1.0" encoding="UTF-8" standalone="no"?>
<svg xmlns="http://www.w3.org/2000/svg" xmlns:svg="http://www.w3.org/2000/svg" width="24" height="24" viewBox="0 0 24 24" fill="currentColor" tags="items,flex,justify,space,evenly,around" categories="layout">
  <path d="M 7 1 A 1 1 0 0 0 6 2 L 6 4 C 4.3553005 4 3 5.3553005 3 7 L 3 17 C 3 18.644699 4.3553005 20 6 20 L 6 22 A 1 1 0 0 0 7 23 A 1 1 0 0 0 8 22 L 8 20 C 9.6446995 20 11 18.644699 11 17 L 11 7 C 11 5.3553005 9.6446995 4 8 4 L 8 2 A 1 1 0 0 0 7 1 z M 17 1 A 1 1 0 0 0 16 2 L 16 6 C 14.355301 6 13 7.3553005 13 9 L 13 15 C 13 16.644699 14.355301 18 16 18 L 16 22 A 1 1 0 0 0 17 23 A 1 1 0 0 0 18 22 L 18 18 C 19.644699 18 21 16.644699 21 15 L 21 9 C 21 7.3553005 19.644699 6 18 6 L 18 2 A 1 1 0 0 0 17 1 z M 6 6 L 7 6 L 8 6 C 8.5712961 6 9 6.4287039 9 7 L 9 17 C 9 17.571296 8.5712961 18 8 18 L 6 18 C 5.4287039 18 5 17.571296 5 17 L 5 7 C 5 6.4287039 5.4287039 6 6 6 z M 16 8 L 18 8 C 18.571296 8 19 8.4287039 19 9 L 19 15 C 19 15.571296 18.571296 16 18 16 L 16 16 C 15.428704 16 15 15.571296 15 15 L 15 9 C 15 8.4287039 15.428704 8 16 8 z "/>
</svg>
