<svg xmlns="http://www.w3.org/2000/svg" xmlns:svg="http://www.w3.org/2000/svg" width="24" height="24" viewBox="0 0 24 24" fill="currentColor" tags="left,items,flex,justify" categories="layout">
  <path d="M 4 1 A 1 1 0 0 0 3 2 L 3 7 L 3 17 L 3 22 A 1 1 0 0 0 4 23 A 1 1 0 0 0 5 22 L 5 19.826172 C 5.3133998 19.938557 5.6501526 20 6 20 L 8 20 C 9.6447028 20 11 18.644703 11 17 L 11 7 C 11 5.3552972 9.6447028 4 8 4 L 6 4 C 5.6501526 4 5.3133998 4.0614425 5 4.1738281 L 5 2 A 1 1 0 0 0 4 1 z M 14 1 A 1 1 0 0 0 13 2 L 13 9 L 13 15 L 13 22 A 1 1 0 0 0 14 23 A 1 1 0 0 0 15 22 L 15 17.826172 C 15.3134 17.938557 15.650153 18 16 18 L 18 18 C 19.644703 18 21 16.644703 21 15 L 21 9 C 21 7.3552972 19.644703 6 18 6 L 16 6 C 15.650153 6 15.3134 6.0614425 15 6.1738281 L 15 2 A 1 1 0 0 0 14 1 z M 6 6 L 8 6 C 8.5712972 6 9 6.4287028 9 7 L 9 17 C 9 17.571297 8.5712972 18 8 18 L 6 18 C 5.4287028 18 5 17.571297 5 17 L 5 7 C 5 6.4287028 5.4287028 6 6 6 z M 16 8 L 18 8 C 18.571297 8 19 8.4287028 19 9 L 19 15 C 19 15.571297 18.571297 16 18 16 L 16 16 C 15.428703 16 15 15.571297 15 15 L 15 9 C 15 8.4287028 15.428703 8 16 8 z "/>
</svg>
