<?xml version="1.0" encoding="UTF-8" standalone="no"?>
<svg xmlns="http://www.w3.org/2000/svg" xmlns:svg="http://www.w3.org/2000/svg" width="24" height="24" viewBox="0 0 24 24" fill="currentColor" tags="text,alignment,justified,menu,list" categories="text">
  <path d="M 3 5 A 1 1 0 0 0 2 6 A 1 1 0 0 0 3 7 L 21 7 A 1 1 0 0 0 22 6 A 1 1 0 0 0 21 5 L 3 5 z M 3 11 A 1 1 0 0 0 2 12 A 1 1 0 0 0 3 13 L 21 13 A 1 1 0 0 0 22 12 A 1 1 0 0 0 21 11 L 3 11 z M 3 17 A 1 1 0 0 0 2 18 A 1 1 0 0 0 3 19 L 21 19 A 1 1 0 0 0 22 18 A 1 1 0 0 0 21 17 L 3 17 z "/>
</svg>
