<?xml version="1.0" encoding="UTF-8" standalone="no"?>
<svg xmlns="http://www.w3.org/2000/svg" xmlns:svg="http://www.w3.org/2000/svg" width="24" height="24" viewBox="0 0 24 24" fill="currentColor" tags="top,items,flex,justify" categories="layout">
  <path d="M 2 1 A 1 1 0 0 0 1 2 A 1 1 0 0 0 2 3 L 22 3 A 1 1 0 0 0 23 2 A 1 1 0 0 0 22 1 L 2 1 z M 6 5 C 4.3553005 5 3 6.3553005 3 8 L 3 20 C 3 21.644699 4.3553005 23 6 23 L 8 23 C 9.6446995 23 11 21.644699 11 20 L 11 8 C 11 6.3553005 9.6446995 5 8 5 L 6 5 z M 16 5 C 14.355301 5 13 6.3553005 13 8 L 13 13 C 13 14.644699 14.355301 16 16 16 L 18 16 C 19.644699 16 21 14.644699 21 13 L 21 8 C 21 6.3553005 19.644699 5 18 5 L 16 5 z M 6 7 L 8 7 C 8.5712961 7 9 7.4287039 9 8 L 9 20 C 9 20.571296 8.5712961 21 8 21 L 6 21 C 5.4287039 21 5 20.571296 5 20 L 5 8 C 5 7.4287039 5.4287039 7 6 7 z M 16 7 L 18 7 C 18.571296 7 19 7.4287039 19 8 L 19 13 C 19 13.571296 18.571296 14 18 14 L 16 14 C 15.428704 14 15 13.571296 15 13 L 15 8 C 15 7.4287039 15.428704 7 16 7 z "/>
</svg>
