<svg xmlns="http://www.w3.org/2000/svg" xmlns:svg="http://www.w3.org/2000/svg" width="24" height="24" viewBox="0 0 24 24" fill="currentColor" tags="top,items,flex,justify" categories="layout">
  <path d="M 2 3 A 1 1 0 0 0 1 4 A 1 1 0 0 0 2 5 L 6.1738281 5 C 6.0614425 5.3133998 6 5.6501526 6 6 L 6 8 C 6 9.6447028 7.3552972 11 9 11 L 15 11 C 16.644703 11 18 9.6447028 18 8 L 18 6 C 18 5.6501526 17.938557 5.3133998 17.826172 5 L 22 5 A 1 1 0 0 0 23 4 A 1 1 0 0 0 22 3 L 15 3 L 9 3 L 2 3 z M 9 5 L 15 5 C 15.571297 5 16 5.4287028 16 6 L 16 8 C 16 8.5712972 15.571297 9 15 9 L 9 9 C 8.4287028 9 8 8.5712972 8 8 L 8 6 C 8 5.4287028 8.4287028 5 9 5 z M 2 13 A 1 1 0 0 0 1 14 A 1 1 0 0 0 2 15 L 4.1738281 15 C 4.0614425 15.3134 4 15.650153 4 16 L 4 18 C 4 19.644703 5.3552972 21 7 21 L 17 21 C 18.644703 21 20 19.644703 20 18 L 20 16 C 20 15.650153 19.938557 15.3134 19.826172 15 L 22 15 A 1 1 0 0 0 23 14 A 1 1 0 0 0 22 13 L 2 13 z M 7 15 L 17 15 C 17.571297 15 18 15.428703 18 16 L 18 18 C 18 18.571297 17.571297 19 17 19 L 7 19 C 6.4287028 19 6 18.571297 6 18 L 6 16 C 6 15.428703 6.4287028 15 7 15 z "/>
</svg>
