<svg xmlns="http://www.w3.org/2000/svg" xmlns:svg="http://www.w3.org/2000/svg" width="24" height="24" viewBox="0 0 24 24" fill="currentColor" tags="center,items,flex,justify" categories="layout">
  <path d="M 12 1 A 1 1 0 0 0 11 2 L 11 22 A 1 1 0 0 0 12 23 A 1 1 0 0 0 13 22 L 13 2 A 1 1 0 0 0 12 1 z M 4 4 C 2.3552972 4 1 5.3552972 1 7 L 1 17 C 1 18.644703 2.3552972 20 4 20 L 6 20 C 7.6447028 20 9 18.644703 9 17 L 9 7 C 9 5.3552972 7.6447028 4 6 4 L 4 4 z M 4 6 L 6 6 C 6.5712972 6 7 6.4287028 7 7 L 7 17 C 7 17.571297 6.5712972 18 6 18 L 4 18 C 3.4287028 18 3 17.571297 3 17 L 3 7 C 3 6.4287028 3.4287028 6 4 6 z M 18 6 C 16.355297 6 15 7.3552972 15 9 L 15 15 C 15 16.644703 16.355297 18 18 18 L 20 18 C 21.644703 18 23 16.644703 23 15 L 23 9 C 23 7.3552972 21.644703 6 20 6 L 18 6 z M 18 8 L 20 8 C 20.571297 8 21 8.4287028 21 9 L 21 15 C 21 15.571297 20.571297 16 20 16 L 18 16 C 17.428703 16 17 15.571297 17 15 L 17 9 C 17 8.4287028 17.428703 8 18 8 z "/>
</svg>
