<?xml version="1.0" encoding="UTF-8" standalone="no"?>
<svg xmlns="http://www.w3.org/2000/svg" xmlns:svg="http://www.w3.org/2000/svg" width="24" height="24" viewBox="0 0 24 24" fill="currentColor" tags="left,items,flex,justify" categories="layout">
  <path d="M 2 1 A 1 1 0 0 0 1 2 L 1 22 A 1 1 0 0 0 2 23 A 1 1 0 0 0 3 22 L 3 2 A 1 1 0 0 0 2 1 z M 8 4 C 6.3552972 4 5 5.3552972 5 7 L 5 17 C 5 18.644703 6.3552972 20 8 20 L 10 20 C 11.644703 20 13 18.644703 13 17 L 13 7 C 13 5.3552972 11.644703 4 10 4 L 8 4 z M 8 6 L 10 6 C 10.571297 6 11 6.4287028 11 7 L 11 17 C 11 17.571297 10.571297 18 10 18 L 8 18 C 7.4287028 18 7 17.571297 7 17 L 7 7 C 7 6.4287028 7.4287028 6 8 6 z M 18 6 C 16.355297 6 15 7.3552972 15 9 L 15 15 C 15 16.644703 16.355297 18 18 18 L 20 18 C 21.644703 18 23 16.644703 23 15 L 23 9 C 23 7.3552972 21.644703 6 20 6 L 18 6 z M 18 8 L 20 8 C 20.571297 8 21 8.4287028 21 9 L 21 15 C 21 15.571297 20.571297 16 20 16 L 18 16 C 17.428703 16 17 15.571297 17 15 L 17 9 C 17 8.4287028 17.428703 8 18 8 z "/>
</svg>
