<?xml version="1.0" encoding="UTF-8" standalone="no"?>
<svg xmlns="http://www.w3.org/2000/svg" xmlns:svg="http://www.w3.org/2000/svg" width="24" height="24" viewBox="0 0 24 24" fill="currentColor" tags="center,items,flex,justify,distribute,between" categories="layout">
  <path d="M 2 2 A 1 1 0 0 0 1 3 A 1 1 0 0 0 2 4 L 6.1738281 4 C 6.0614425 4.3133998 6 4.6501526 6 5 L 6 7 C 6 8.6447028 7.3552972 10 9 10 L 15 10 C 16.644703 10 18 8.6447028 18 7 L 18 5 C 18 4.6501526 17.938557 4.3133998 17.826172 4 L 22 4 A 1 1 0 0 0 23 3 A 1 1 0 0 0 22 2 L 15 2 L 9 2 L 2 2 z M 9 4 L 15 4 C 15.571297 4 16 4.4287028 16 5 L 16 7 C 16 7.5712972 15.571297 8 15 8 L 9 8 C 8.4287028 8 8 7.5712972 8 7 L 8 5 C 8 4.4287028 8.4287028 4 9 4 z M 7 14 C 5.3552972 14 4 15.355297 4 17 L 4 19 C 4 19.349847 4.0614425 19.6866 4.1738281 20 L 2 20 A 1 1 0 0 0 1 21 A 1 1 0 0 0 2 22 L 22 22 A 1 1 0 0 0 23 21 A 1 1 0 0 0 22 20 L 19.826172 20 C 19.938557 19.6866 20 19.349847 20 19 L 20 17 C 20 15.355297 18.644703 14 17 14 L 7 14 z M 7 16 L 17 16 C 17.571297 16 18 16.428703 18 17 L 18 19 C 18 19.571297 17.571297 20 17 20 L 7 20 C 6.4287028 20 6 19.571297 6 19 L 6 17 C 6 16.428703 6.4287028 16 7 16 z "/>
</svg>
