<?xml version="1.0" encoding="UTF-8" standalone="no"?>
<svg xmlns="http://www.w3.org/2000/svg" xmlns:svg="http://www.w3.org/2000/svg" width="24" height="24" viewBox="0 0 24 24" fill="currentColor" tags="items,flex,justify" categories="layout">
  <path d="M 12 1 A 1 1 0 0 0 11 2 L 11 22 A 1 1 0 0 0 12 23 A 1 1 0 0 0 13 22 L 13 2 A 1 1 0 0 0 12 1 z M 4 3 C 2.3545455 3 1 4.3545455 1 6 L 1 8 C 1 9.6450096 2.3549904 11 4 11 L 8 11 A 1 1 0 0 0 9 10 A 1 1 0 0 0 8 9 L 4 9 C 3.4358706 9 3 8.5641294 3 8 L 3 6 C 3 5.4454545 3.4454545 5 4 5 L 8 5 A 1 1 0 0 0 9 4 A 1 1 0 0 0 8 3 L 4 3 z M 16 3 A 1 1 0 0 0 15 4 A 1 1 0 0 0 16 5 L 20 5 C 20.564129 5 21 5.4358706 21 6 L 21 8 C 21 8.5641294 20.564129 9 20 9 L 16 9 A 1 1 0 0 0 15 10 A 1 1 0 0 0 16 11 L 20 11 C 21.64501 11 23 9.6450096 23 8 L 23 6 C 23 4.3549904 21.64501 3 20 3 L 16 3 z M 7 13 C 5.3545455 13 4 14.354545 4 16 L 4 18 C 4 19.64501 5.3549904 21 7 21 L 8 21 A 1 1 0 0 0 9 20 A 1 1 0 0 0 8 19 L 7 19 C 6.4358706 19 6 18.564129 6 18 L 6 16 C 6 15.445455 6.4454545 15 7 15 L 8 15 A 1 1 0 0 0 9 14 A 1 1 0 0 0 8 13 L 7 13 z M 16 13 A 1 1 0 0 0 15 14 A 1 1 0 0 0 16 15 L 17 15 C 17.564129 15 18 15.435871 18 16 L 18 18 C 18 18.564129 17.564129 19 17 19 L 16 19 A 1 1 0 0 0 15 20 A 1 1 0 0 0 16 21 L 17 21 C 18.64501 21 20 19.64501 20 18 L 20 16 C 20 14.35499 18.64501 13 17 13 L 16 13 z "/>
</svg>
