<svg xmlns="http://www.w3.org/2000/svg" xmlns:svg="http://www.w3.org/2000/svg" width="24" height="24" viewBox="0 0 24 24" fill="currentColor" tags="center,items,flex,justify,distribute,between" categories="layout">
  <path d="M 2 3 A 1 1 0 0 0 1 4 A 1 1 0 0 0 2 5 L 22 5 A 1 1 0 0 0 23 4 A 1 1 0 0 0 22 3 L 2 3 z M 9 8 C 7.3552972 8 6 9.3552972 6 11 L 6 13 C 6 14.644703 7.3552972 16 9 16 L 15 16 C 16.644703 16 18 14.644703 18 13 L 18 11 C 18 9.3552972 16.644703 8 15 8 L 9 8 z M 9 10 L 15 10 C 15.571297 10 16 10.428703 16 11 L 16 13 C 16 13.571297 15.571297 14 15 14 L 9 14 C 8.4287028 14 8 13.571297 8 13 L 8 11 C 8 10.428703 8.4287028 10 9 10 z M 2 19 A 1 1 0 0 0 1 20 A 1 1 0 0 0 2 21 L 22 21 A 1 1 0 0 0 23 20 A 1 1 0 0 0 22 19 L 2 19 z "/>
</svg>
