<?xml version="1.0" encoding="UTF-8" standalone="no"?>
<svg xmlns="http://www.w3.org/2000/svg" xmlns:svg="http://www.w3.org/2000/svg" width="24" height="24" viewBox="0 0 24 24" fill="currentColor" tags="left,items,flex,justify" categories="layout">
  <path d="M 2 1 A 1 1 0 0 0 1 2 L 1 22 A 1 1 0 0 0 2 23 A 1 1 0 0 0 3 22 L 3 2 A 1 1 0 0 0 2 1 z M 8 3 C 6.3552972 3 5 4.3552972 5 6 L 5 8 C 5 9.6447028 6.3552972 11 8 11 L 20 11 C 21.644703 11 23 9.6447028 23 8 L 23 6 C 23 4.3552972 21.644703 3 20 3 L 8 3 z M 8 5 L 20 5 C 20.571297 5 21 5.4287028 21 6 L 21 8 C 21 8.5712972 20.571297 9 20 9 L 8 9 C 7.4287028 9 7 8.5712972 7 8 L 7 6 C 7 5.4287028 7.4287028 5 8 5 z M 8 13 C 6.3552972 13 5 14.355297 5 16 L 5 18 C 5 19.644703 6.3552972 21 8 21 L 13 21 C 14.644703 21 16 19.644703 16 18 L 16 16 C 16 14.355297 14.644703 13 13 13 L 8 13 z M 8 15 L 13 15 C 13.571297 15 14 15.428703 14 16 L 14 18 C 14 18.571297 13.571297 19 13 19 L 8 19 C 7.4287028 19 7 18.571297 7 18 L 7 16 C 7 15.428703 7.4287028 15 8 15 z "/>
</svg>
