<svg xmlns="http://www.w3.org/2000/svg" xmlns:svg="http://www.w3.org/2000/svg" width="24" height="24" viewBox="0 0 24 24" fill="currentColor" tags="around,items,bottom,flex,justify" categories="layout">
  <path d="M 3 1 A 1 1 0 0 0 2 2 L 2 7 L 2 17 L 2 22 A 1 1 0 0 0 3 23 A 1 1 0 0 0 4 22 L 4 19.826172 C 4.3133998 19.938557 4.6501526 20 5 20 L 7 20 C 8.6447028 20 10 18.644703 10 17 L 10 7 C 10 5.3552972 8.6447028 4 7 4 L 5 4 C 4.6501526 4 4.3133998 4.0614425 4 4.1738281 L 4 2 A 1 1 0 0 0 3 1 z M 21 1 A 1 1 0 0 0 20 2 L 20 6.1738281 C 19.6866 6.0614425 19.349847 6 19 6 L 17 6 C 15.355297 6 14 7.3552972 14 9 L 14 15 C 14 16.644703 15.355297 18 17 18 L 19 18 C 19.349847 18 19.6866 17.938557 20 17.826172 L 20 22 A 1 1 0 0 0 21 23 A 1 1 0 0 0 22 22 L 22 15 L 22 9 L 22 2 A 1 1 0 0 0 21 1 z M 5 6 L 7 6 C 7.5712972 6 8 6.4287028 8 7 L 8 17 C 8 17.571297 7.5712972 18 7 18 L 5 18 C 4.4287028 18 4 17.571297 4 17 L 4 7 C 4 6.4287028 4.4287028 6 5 6 z M 17 8 L 19 8 C 19.571297 8 20 8.4287028 20 9 L 20 15 C 20 15.571297 19.571297 16 19 16 L 17 16 C 16.428703 16 16 15.571297 16 15 L 16 9 C 16 8.4287028 16.428703 8 17 8 z "/>
</svg>
