<svg xmlns="http://www.w3.org/2000/svg" xmlns:svg="http://www.w3.org/2000/svg" width="24" height="24" viewBox="0 0 24 24" fill="currentColor" tags="center,items,flex,justify,distribute,between" categories="layout">
  <path d="M 9 1 C 7.3552972 1 6 2.3552972 6 4 L 6 6 C 6 7.6447028 7.3552972 9 9 9 L 15 9 C 16.644703 9 18 7.6447028 18 6 L 18 4 C 18 2.3552972 16.644703 1 15 1 L 9 1 z M 9 3 L 15 3 C 15.571297 3 16 3.4287028 16 4 L 16 6 C 16 6.5712972 15.571297 7 15 7 L 9 7 C 8.4287028 7 8 6.5712972 8 6 L 8 4 C 8 3.4287028 8.4287028 3 9 3 z M 2 11 A 1 1 0 0 0 1 12 A 1 1 0 0 0 2 13 L 22 13 A 1 1 0 0 0 23 12 A 1 1 0 0 0 22 11 L 2 11 z M 7 15 C 5.3552972 15 4 16.355297 4 18 L 4 20 C 4 21.644703 5.3552972 23 7 23 L 17 23 C 18.644703 23 20 21.644703 20 20 L 20 18 C 20 16.355297 18.644703 15 17 15 L 7 15 z M 7 17 L 17 17 C 17.571297 17 18 17.428703 18 18 L 18 20 C 18 20.571297 17.571297 21 17 21 L 7 21 C 6.4287028 21 6 20.571297 6 20 L 6 18 C 6 17.428703 6.4287028 17 7 17 z "/>
</svg>
