<svg xmlns="http://www.w3.org/2000/svg" xmlns:svg="http://www.w3.org/2000/svg" width="24" height="24" viewBox="0 0 24 24" fill="currentColor" tags="items,bottom,flex,justify" categories="layout">
  <path d="M 6 1 C 4.3552972 1 3 2.3552972 3 4 L 3 16 C 3 17.644703 4.3552972 19 6 19 L 8 19 C 9.6447028 19 11 17.644703 11 16 L 11 4 C 11 2.3552972 9.6447028 1 8 1 L 6 1 z M 6 3 L 8 3 C 8.5712972 3 9 3.4287028 9 4 L 9 16 C 9 16.571297 8.5712972 17 8 17 L 6 17 C 5.4287028 17 5 16.571297 5 16 L 5 4 C 5 3.4287028 5.4287028 3 6 3 z M 16 8 C 14.355297 8 13 9.3552972 13 11 L 13 16 C 13 17.644703 14.355297 19 16 19 L 18 19 C 19.644703 19 21 17.644703 21 16 L 21 11 C 21 9.3552972 19.644703 8 18 8 L 16 8 z M 16 10 L 18 10 C 18.571297 10 19 10.428703 19 11 L 19 16 C 19 16.571297 18.571297 17 18 17 L 16 17 C 15.428703 17 15 16.571297 15 16 L 15 11 C 15 10.428703 15.428703 10 16 10 z M 2 21 A 1 1 0 0 0 1 22 A 1 1 0 0 0 2 23 L 22 23 A 1 1 0 0 0 23 22 A 1 1 0 0 0 22 21 L 2 21 z "/>
</svg>
