<?xml version="1.0" encoding="UTF-8" standalone="no"?>
<svg xmlns="http://www.w3.org/2000/svg" xmlns:svg="http://www.w3.org/2000/svg" width="24" height="24" viewBox="0 0 24 24" fill="currentColor" tags="ambulance,emergency,medical,vehicle,siren,healthcare,transportation,rescue,urgent,first aid" categories="medical,transportation">
  <path d="M 4 3 C 2.3549936 3 1 4.3549936 1 6 L 1 17 C 1 18.092723 1.9072773 19 3 19 L 4.1738281 19 C 4.5895208 20.160387 5.7046435 21 7 21 C 8.2953565 21 9.4104792 20.160387 9.8261719 19 L 14.173828 19 C 14.589521 20.160387 15.704644 21 17 21 C 18.295356 21 19.410479 20.160387 19.826172 19 L 21 19 C 22.092723 19 23 18.092723 23 17 L 23 13.720703 A 1.0001 1.0001 0 0 0 23 13.71875 C 22.99935 12.862099 22.445569 12.092966 21.632812 11.822266 L 21.632812 11.824219 L 19.708984 11.181641 L 18.169922 8.1054688 C 17.832338 7.4298981 17.138034 7.0004033 16.382812 7 L 15 7 L 15 6 C 15 4.3549936 13.645006 3 12 3 L 4 3 z M 4 5 L 12 5 C 12.564128 5 13 5.4358718 13 6 L 13 17 L 9.8261719 17 C 9.4104792 15.839613 8.2953565 15 7 15 C 5.7046435 15 4.5895208 15.839613 4.1738281 17 L 3 17 L 3 6 C 3 5.4358718 3.4358718 5 4 5 z M 8 7 A 1 1 0 0 0 7 8 L 7 9 L 6 9 A 1 1 0 0 0 5 10 A 1 1 0 0 0 6 11 L 7 11 L 7 12 A 1 1 0 0 0 8 13 A 1 1 0 0 0 9 12 L 9 11 L 10 11 A 1 1 0 0 0 11 10 A 1 1 0 0 0 10 9 L 9 9 L 9 8 A 1 1 0 0 0 8 7 z M 15 9 L 16.380859 9 L 17.919922 12.076172 C 18.156653 12.550582 18.573283 12.91212 19.076172 13.080078 L 21 13.720703 L 21 17 L 19.826172 17 C 19.410479 15.839613 18.295356 15 17 15 C 16.234402 15 15.532602 15.293804 15 15.773438 L 15 9 z M 7 17 C 7.5641282 17 8 17.435872 8 18 C 8 18.564128 7.5641282 19 7 19 C 6.4358718 19 6 18.564128 6 18 C 6 17.435872 6.4358718 17 7 17 z M 17 17 C 17.564128 17 18 17.435872 18 18 C 18 18.564128 17.564128 19 17 19 C 16.435872 19 16 18.564128 16 18 C 16 17.435872 16.435872 17 17 17 z "/>
</svg>
