<svg xmlns="http://www.w3.org/2000/svg" xmlns:svg="http://www.w3.org/2000/svg" width="24" height="24" viewBox="0 0 24 24" fill="currentColor" tags="ambulance,emergency,medical,vehicle,siren,healthcare,transportation,rescue,urgent,first aid" categories="medical,transportation">
  <path d="M 4 3 C 2.3549904 3 1 4.3549904 1 6 L 1 17 C 1 18.092725 1.9072751 19 3 19 L 4.1738281 19 C 4.5896855 20.160087 5.7048578 21 7 21 C 8.2951422 21 9.4103145 20.160087 9.8261719 19 L 14.173828 19 C 14.589685 20.160087 15.704857 21 17 21 C 18.295143 21 19.410315 20.160087 19.826172 19 L 21 19 C 22.092725 19 23 18.092725 23 17 L 23 13.720703 A 1.0001 1.0001 0 0 0 23 13.71875 C 22.99935 12.862098 22.44557 12.092968 21.632812 11.822266 L 21.632812 11.824219 L 19.708984 11.181641 L 18.169922 8.1054688 C 17.832338 7.4298967 17.138035 7.0004033 16.382812 7 L 15 7 L 15 6 C 15 4.3549904 13.64501 3 12 3 L 4 3 z M 4 5 L 12 5 C 12.564129 5 13 5.4358706 13 6 L 13 17 L 9.8261719 17 C 9.4103145 15.839913 8.2951422 15 7 15 C 5.7048578 15 4.5896855 15.839913 4.1738281 17 L 3 17 L 3 6 C 3 5.4358706 3.4358706 5 4 5 z M 8 7 A 1 1 0 0 0 7 8 L 7 9 L 6 9 A 1 1 0 0 0 5 10 A 1 1 0 0 0 6 11 L 7 11 L 7 12 A 1 1 0 0 0 8 13 A 1 1 0 0 0 9 12 L 9 11 L 10 11 A 1 1 0 0 0 11 10 A 1 1 0 0 0 10 9 L 9 9 L 9 8 A 1 1 0 0 0 8 7 z M 15 9 L 16.380859 9 L 17.919922 12.076172 C 18.156653 12.550583 18.573282 12.91212 19.076172 13.080078 L 21 13.720703 L 21 17 L 19.826172 17 C 19.410315 15.839913 18.295143 15 17 15 C 16.234871 15 15.532484 15.292374 15 15.771484 L 15 9 z M 7 17 C 7.5641272 17 7.9999967 17.435874 8 18 C 8 18.564129 7.5641294 19 7 19 C 6.4358706 19 6 18.564129 6 18 C 6 17.435871 6.4358706 17 7 17 z M 17 17 C 17.564127 17 17.999997 17.435874 18 18 C 18 18.564129 17.564129 19 17 19 C 16.435871 19 16 18.564129 16 18 C 16 17.435871 16.435871 17 17 17 z "/>
</svg>
