<?xml version="1.0" encoding="UTF-8" standalone="no"?>
<svg xmlns="http://www.w3.org/2000/svg" xmlns:svg="http://www.w3.org/2000/svg" width="24" height="24" viewBox="0 0 24 24" fill="currentColor" tags="and,operator,then,code,&amp;&amp;" categories="text,development">
  <path d="M 5 5 C 4.2777779 5 3.5421194 5.2353472 2.9609375 5.7519531 C 2.3797556 6.268559 2 7.0833335 2 8 C 2 8.8101896 2.2950468 9.7462355 2.7382812 10.730469 C 2.5010044 10.922722 2.2457135 11.032332 2.03125 11.275391 C 1.4380705 11.947661 1 12.886905 1 14 C 1 16.209804 2.7901961 18 5 18 C 6.2223328 18 7.2920075 17.548749 8.2382812 16.925781 C 8.671508 17.233116 9.0015291 17.566542 9.4863281 17.857422 A 1 1 0 0 0 10.857422 17.513672 A 1 1 0 0 0 10.513672 16.142578 C 10.200903 15.954917 10.004448 15.741461 9.7167969 15.546875 C 10.471 14.543773 11 13.357105 11 12 A 1 1 0 0 0 10 11 A 1 1 0 0 0 9 12 C 9 12.929438 8.6571899 13.723189 8.1621094 14.388672 C 7.0397362 13.440285 6.0846664 12.477331 5.4472656 11.556641 C 5.380731 11.460535 5.3661012 11.384066 5.3046875 11.289062 C 5.82725 10.98254 6.3754037 10.68715 6.8730469 10.255859 C 7.4632697 9.7443333 8 8.9583333 8 8 C 8 7.0833335 7.6202444 6.268559 7.0390625 5.7519531 C 6.4578806 5.2353472 5.7222221 5 5 5 z M 17 5 C 16.277778 5 15.542119 5.2353472 14.960938 5.7519531 C 14.379755 6.268559 14 7.0833335 14 8 C 14 8.8101896 14.295047 9.7462355 14.738281 10.730469 C 14.501005 10.922722 14.245713 11.032332 14.03125 11.275391 C 13.438071 11.947661 13 12.886905 13 14 C 13 16.209804 14.790196 18 17 18 C 18.222333 18 19.292008 17.548749 20.238281 16.925781 C 20.671508 17.233116 21.001529 17.566542 21.486328 17.857422 A 1 1 0 0 0 22.857422 17.513672 A 1 1 0 0 0 22.513672 16.142578 C 22.200903 15.954917 22.004448 15.741461 21.716797 15.546875 C 22.471 14.543773 23 13.357105 23 12 A 1 1 0 0 0 22 11 A 1 1 0 0 0 21 12 C 21 12.929438 20.65719 13.723189 20.162109 14.388672 C 19.039736 13.440285 18.084666 12.477331 17.447266 11.556641 C 17.380736 11.460531 17.366107 11.384066 17.304688 11.289062 C 17.827251 10.982541 18.375404 10.68715 18.873047 10.255859 C 19.46327 9.7443333 20 8.9583333 20 8 C 20 7.0833335 19.620244 6.268559 19.039062 5.7519531 C 18.457881 5.2353472 17.722222 5 17 5 z M 5 7 C 5.2777779 7 5.5421194 7.0979864 5.7109375 7.2480469 C 5.8797556 7.3981073 6 7.5833337 6 8 C 6 8.2916667 5.9117303 8.4431671 5.5644531 8.7441406 C 5.3005938 8.9728187 4.8260619 9.2454764 4.3652344 9.5214844 C 4.1197963 8.8809831 4 8.3424322 4 8 C 4 7.5833337 4.1202444 7.3981073 4.2890625 7.2480469 C 4.4578806 7.0979864 4.7222221 7 5 7 z M 17 7 C 17.277778 7 17.542119 7.097986 17.710938 7.2480469 C 17.879756 7.3981073 18 7.5833337 18 8 C 18 8.2916667 17.91173 8.4431671 17.564453 8.7441406 C 17.300594 8.9728187 16.826062 9.2454764 16.365234 9.5214844 C 16.119796 8.8809831 16 8.3424322 16 8 C 16 7.5833337 16.120244 7.3981073 16.289062 7.2480469 C 16.457881 7.0979864 16.722222 7 17 7 z M 3.6875 12.482422 C 3.736404 12.555752 3.75163 12.619543 3.8027344 12.693359 C 4.4922691 13.689354 5.4576577 14.703023 6.5878906 15.693359 C 6.1055255 15.891202 5.5700602 16 5 16 C 3.8098039 16 3 15.190196 3 14 C 3 13.363095 3.1869295 12.989839 3.53125 12.599609 C 3.5674788 12.55855 3.6471889 12.522929 3.6875 12.482422 z M 15.6875 12.482422 C 15.7364 12.555752 15.75163 12.619543 15.802734 12.693359 C 16.492269 13.689354 17.457658 14.703023 18.587891 15.693359 C 18.105525 15.891202 17.57006 16 17 16 C 15.809804 16 15 15.190196 15 14 C 15 13.363095 15.186929 12.989839 15.53125 12.599609 C 15.56748 12.558549 15.647189 12.522929 15.6875 12.482422 z "/>
</svg>
