<?xml version="1.0" encoding="UTF-8" standalone="no"?>
<svg xmlns="http://www.w3.org/2000/svg" xmlns:svg="http://www.w3.org/2000/svg" width="24" height="24" viewBox="0 0 24 24" fill="currentColor" tags="and,typography,operator,join,concatenate,code,&amp;" categories="text,development">
  
  <path d="M 10 3 C 9.0277798 3 8.0421178 3.318682 7.2734375 4.0019531 C 6.5047572 4.6852243 6 5.7500028 6 7 C 6 8.061777 6.3788875 9.3495973 6.9941406 10.712891 C 6.5037949 10.987457 5.9862871 11.136575 5.5546875 11.554688 C 4.6348686 12.445762 4 13.777781 4 15.5 C 4 18.525715 6.4742845 21 9.5 21 C 11.657137 21 13.569414 20.129888 15.125 18.849609 C 16.24043 19.540309 17.190849 20.249942 18.572266 20.904297 A 1 1 0 0 0 19.904297 20.427734 A 1 1 0 0 0 19.427734 19.095703 C 18.246586 18.536212 17.485785 17.943185 16.525391 17.363281 C 17.494281 16.099119 18.218961 14.636226 18.433594 13 L 19 13 A 1 1 0 0 0 20 12 A 1 1 0 0 0 19 11 L 17.5 11 L 16 11 A 1 1 0 0 0 15 12 A 1 1 0 0 0 16 13 L 16.417969 13 C 16.211367 14.265714 15.626565 15.399211 14.841797 16.359375 C 12.388385 14.654985 10.749226 12.995922 9.7285156 11.445312 C 10.602987 11.099407 11.522378 10.778655 12.333984 10.195312 C 13.255019 9.5333186 14 8.4212935 14 7 C 14 5.7500028 13.495243 4.6852243 12.726562 4.0019531 C 11.957881 3.318682 10.97222 3 10 3 z M 10 5 C 10.527776 5 11.04212 5.1813204 11.398438 5.4980469 C 11.754754 5.8147733 12 6.250002 12 7 C 12 7.8287021 11.744978 8.1541831 11.166016 8.5703125 C 10.609384 8.970391 9.6992565 9.318736 8.7207031 9.7148438 C 8.2590045 8.6501251 8 7.6946882 8 7 C 8 6.250002 8.2452452 5.8147733 8.6015625 5.4980469 C 8.9578798 5.1813204 9.4722232 5 10 5 z M 7.9746094 12.408203 C 9.0954971 14.150619 10.75968 15.949002 13.265625 17.742188 C 12.161613 18.470745 10.916391 19 9.5 19 C 7.5551626 19 6 17.444837 6 15.5 C 6 14.222225 6.3651344 13.554235 6.9453125 12.992188 C 7.190929 12.754246 7.6380342 12.604094 7.9746094 12.408203 z "/>
</svg>
