<?xml version="1.0" encoding="UTF-8" standalone="no"?>
<svg xmlns="http://www.w3.org/2000/svg" xmlns:svg="http://www.w3.org/2000/svg" width="24" height="24" viewBox="0 0 24 24" fill="currentColor" tags="and,typography,operator,join,concatenate,code,&amp;" categories="text,development">
  <path d="M 10 3 C 9.0277779 3 8.0421194 3.3186806 7.2734375 4.0019531 C 6.5047556 4.6852256 6 5.7500003 6 7 C 6 8.0617791 6.3788863 9.3495945 6.9941406 10.712891 C 6.5037939 10.987458 5.9862879 11.136575 5.5546875 11.554688 C 4.6348668 12.445763 4 13.777778 4 15.5 C 4 18.525721 6.4742785 21 9.5 21 C 11.657141 21 13.56941 20.12989 15.125 18.849609 C 16.240432 19.54031 17.190847 20.249941 18.572266 20.904297 A 1 1 0 0 0 19.904297 20.427734 A 1 1 0 0 0 19.427734 19.095703 C 18.246583 18.53621 17.485787 17.943186 16.525391 17.363281 C 17.494283 16.099117 18.218961 14.636228 18.433594 13 L 19 13 A 1 1 0 0 0 20 12 A 1 1 0 0 0 19 11 L 17.5 11 L 16 11 A 1 1 0 0 0 15 12 A 1 1 0 0 0 16 13 L 16.417969 13 C 16.211367 14.265715 15.626567 15.399209 14.841797 16.359375 C 12.38838 14.654981 10.749228 12.995925 9.7285156 11.445312 C 10.602989 11.099407 11.522376 10.778655 12.333984 10.195312 C 13.255021 9.5333172 14 8.4212963 14 7 C 14 5.7500003 13.495244 4.6852256 12.726562 4.0019531 C 11.95788 3.3186806 10.972222 3 10 3 z M 10 5 C 10.527778 5 11.042119 5.1813198 11.398438 5.4980469 C 11.754755 5.8147739 12 6.2500005 12 7 C 12 7.8287037 11.744979 8.1541823 11.166016 8.5703125 C 10.609384 8.9703918 9.6992585 9.3187352 8.7207031 9.7148438 C 8.2590035 8.650123 8 7.6946896 8 7 C 8 6.2500005 8.2452444 5.8147739 8.6015625 5.4980469 C 8.9578806 5.1813198 9.4722221 5 10 5 z M 7.9746094 12.408203 C 9.0954993 14.150622 10.759675 15.948999 13.265625 17.742188 C 12.16161 18.470746 10.916393 19 9.5 19 C 7.5551587 19 6 17.444841 6 15.5 C 6 14.222222 6.3651332 13.554235 6.9453125 12.992188 C 7.1909294 12.754245 7.6380335 12.604095 7.9746094 12.408203 z "/>
</svg>
