<?xml version="1.0" encoding="UTF-8" standalone="no"?>
<svg xmlns="http://www.w3.org/2000/svg" xmlns:svg="http://www.w3.org/2000/svg" width="24" height="24" viewBox="0 0 24 24" fill="currentColor" tags="pottery,artifact,artefact,vase,ceramics,clay,archaeology,museum,wine,oil" categories="food-beverage,gaming">
  <path d="M 9 1 A 1 1 0 0 0 8 2 A 1 1 0 0 0 9 3 L 9 4 L 8 4 C 7.0833335 4 6.268559 4.3797556 5.7519531 4.9609375 C 5.2353472 5.5421194 5 6.2777779 5 7 C 5 7.7222221 5.2353472 8.4578806 5.7519531 9.0390625 C 5.9638354 9.2774302 6.2267358 9.4803744 6.5253906 9.6386719 C 5.5564824 10.85709 4.9988161 12.386202 5 14 A 1.0001 1.0001 0 0 0 5 14.001953 C 5.00337 16.251077 5.846786 18.20397 6.9433594 19.712891 C 7.2875028 20.186443 7.6564256 20.612419 8.0351562 21 L 6 21 A 1 1 0 0 0 5 22 A 1 1 0 0 0 6 23 L 18 23 A 1 1 0 0 0 19 22 A 1 1 0 0 0 18 21 L 15.966797 21 C 16.345668 20.612527 16.714308 20.186284 17.058594 19.712891 C 18.156092 18.20383 19 16.25 19 14 C 19.001051 12.386991 18.442954 10.858666 17.474609 9.640625 C 17.773611 9.4822661 18.035967 9.2776527 18.248047 9.0390625 C 18.764653 8.4578806 19 7.7222221 19 7 C 19 6.2777779 18.764653 5.5421194 18.248047 4.9609375 C 17.731441 4.3797556 16.916666 4 16 4 L 15 4 L 15 3 A 1 1 0 0 0 16 2 A 1 1 0 0 0 15 1 L 14 1 L 10 1 L 9 1 z M 11 3 L 13 3 L 13 7.6328125 C 13 8.4844855 13.530417 9.1768313 14.210938 9.5117188 C 15.922171 10.354921 17.001243 12.092303 17 14 C 17 15.75 16.343908 17.29617 15.441406 18.537109 C 14.605895 19.685938 13.548483 20.551262 12.744141 21 L 11.255859 21 C 10.451934 20.551361 9.3955263 19.686068 8.5605469 18.537109 C 7.6586203 17.29603 7.0026263 15.748923 7 13.998047 C 6.9993396 12.091809 8.077569 10.355116 9.7871094 9.5117188 C 10.468745 9.1771624 11 8.4844855 11 7.6328125 L 11 3 z M 8 6 L 9 6 L 9 7.6328125 C 9 7.6291425 8.986614 7.6773539 8.90625 7.7167969 A 1.0001 1.0001 0 0 0 8.9042969 7.7167969 C 8.7281992 7.8036087 8.5589238 7.8999181 8.3925781 8 L 8 8 C 7.5833337 8 7.3981073 7.8797556 7.2480469 7.7109375 C 7.0979864 7.5421194 7 7.2777779 7 7 C 7 6.7222221 7.0979864 6.4578806 7.2480469 6.2890625 C 7.3981073 6.1202444 7.5833337 6 8 6 z M 15 6 L 16 6 C 16.416666 6 16.601893 6.1202444 16.751953 6.2890625 C 16.902014 6.4578806 17 6.7222221 17 7 C 17 7.2777779 16.902014 7.5421194 16.751953 7.7109375 C 16.601893 7.8797556 16.416666 8 16 8 L 15.605469 8 C 15.439082 7.8999382 15.269881 7.8035845 15.09375 7.7167969 C 15.01427 7.6776843 15 7.6291395 15 7.6328125 L 15 6 z "/>
</svg>
