<svg xmlns="http://www.w3.org/2000/svg" xmlns:svg="http://www.w3.org/2000/svg" width="24" height="24" viewBox="0 0 24 24" fill="currentColor" tags="pottery,artifact,artefact,vase,ceramics,clay,archaeology,museum,wine,oil" categories="food-beverage,gaming">
  <path d="M 9 1 A 1 1 0 0 0 8 2 A 1 1 0 0 0 9 3 L 9 4 L 8 4 C 7.0833335 4 6.268559 4.3797556 5.7519531 4.9609375 C 5.2353472 5.5421194 5 6.2777779 5 7 C 5 7.7222221 5.2353472 8.4578806 5.7519531 9.0390625 C 5.963116 9.2766209 6.2240916 9.4805995 6.5214844 9.6386719 C 5.5534585 10.856798 4.9988167 12.386995 5 14 A 1.0001 1.0001 0 0 0 5 14.001953 C 5.00337 16.251077 5.846786 18.20397 6.9433594 19.712891 C 7.2858217 20.18413 7.6505728 20.613885 8.0273438 21 L 6 21 A 1 1 0 0 0 5 22 A 1 1 0 0 0 6 23 L 18 23 A 1 1 0 0 0 19 22 A 1 1 0 0 0 18 21 L 15.972656 21 C 16.349721 20.613877 16.715857 20.184153 17.058594 19.712891 C 18.156092 18.20383 19 16.25 19 14 C 19.001051 12.387093 18.446748 10.856675 17.478516 9.6386719 C 17.776192 9.4805487 18.036722 9.2768029 18.248047 9.0390625 C 18.764653 8.4578806 19 7.7222221 19 7 C 19 6.2777779 18.764653 5.5421194 18.248047 4.9609375 C 17.731441 4.3797556 16.916666 4 16 4 L 15 4 L 15 3 A 1 1 0 0 0 16 2 A 1 1 0 0 0 15 1 L 14 1 L 10 1 L 9 1 z M 11 3 L 13 3 L 13 7.6328125 C 13 8.4844855 13.530417 9.1768313 14.210938 9.5117188 C 15.922171 10.354921 17.001243 12.092303 17 14 C 17 15.75 16.343908 17.29617 15.441406 18.537109 C 14.60945 19.68105 13.555035 20.549595 12.751953 21 L 11.248047 21 C 10.445401 20.549671 9.3919271 19.681115 8.5605469 18.537109 C 7.6586203 17.29603 7.0026263 15.748923 7 13.998047 C 6.9993396 12.091809 8.077569 10.355116 9.7871094 9.5117188 C 10.468745 9.1771624 11 8.4844855 11 7.6328125 L 11 3 z M 8 6 L 9 6 L 9 7.6328125 C 8.9963391 7.640121 8.9765685 7.6822842 8.90625 7.7167969 A 1.0001 1.0001 0 0 0 8.9042969 7.7167969 C 8.7266422 7.8043763 8.5544458 7.8989186 8.3867188 8 L 8 8 C 7.5833337 8 7.3981073 7.8797556 7.2480469 7.7109375 C 7.0979864 7.5421194 7 7.2777779 7 7 C 7 6.7222221 7.0979864 6.4578806 7.2480469 6.2890625 C 7.3981073 6.1202444 7.5833337 6 8 6 z M 15 6 L 16 6 C 16.416666 6 16.601893 6.1202444 16.751953 6.2890625 C 16.902014 6.4578806 17 6.7222221 17 7 C 17 7.2777779 16.902014 7.5421194 16.751953 7.7109375 C 16.601893 7.8797556 16.416666 8 16 8 L 15.611328 8 C 15.443525 7.8989138 15.271477 7.804371 15.09375 7.7167969 C 15.024205 7.6825734 15.003818 7.6401784 15 7.6328125 L 15 6 z "/>
</svg>
