<?xml version="1.0" encoding="UTF-8" standalone="no"?>
<svg xmlns="http://www.w3.org/2000/svg" xmlns:svg="http://www.w3.org/2000/svg" width="24" height="24" viewBox="0 0 24 24" fill="currentColor" tags="pottery,artifact,artefact,vase,ceramics,clay,archaeology,museum,wine,oil" categories="food-beverage,gaming">
  <path d="M 9 1 A 1 1 0 0 0 8 2 A 1 1 0 0 0 9 3 L 9 4 L 8 4 C 7.0833353 4 6.268558 4.3797568 5.7519531 4.9609375 C 5.2353482 5.5421182 5 6.2777793 5 7 C 5 7.7222207 5.2353482 8.4578818 5.7519531 9.0390625 C 5.963835 9.2774297 6.226736 9.4803746 6.5253906 9.6386719 C 5.5564832 10.857089 4.9988161 12.386205 5 14 A 1.0001 1.0001 0 0 0 5 14.001953 C 5.00337 16.251073 5.8467882 18.203973 6.9433594 19.712891 C 7.2875021 20.186442 7.6564259 20.61242 8.0351562 21 L 6 21 A 1 1 0 0 0 5 22 A 1 1 0 0 0 6 23 L 18 23 A 1 1 0 0 0 19 22 A 1 1 0 0 0 18 21 L 15.966797 21 C 16.345668 20.612528 16.714308 20.186283 17.058594 19.712891 C 18.15609 18.203832 19 16.249996 19 14 C 19.001051 12.386995 18.442953 10.858665 17.474609 9.640625 C 17.773611 9.4822663 18.035967 9.2776522 18.248047 9.0390625 C 18.764651 8.4578818 19 7.7222207 19 7 C 19 6.2777793 18.764651 5.5421182 18.248047 4.9609375 C 17.731441 4.3797568 16.916665 4 16 4 L 15 4 L 15 3 A 1 1 0 0 0 16 2 A 1 1 0 0 0 15 1 L 14 1 L 10 1 L 9 1 z M 11 3 L 13 3 L 13 7.6328125 C 13 8.4844837 13.530418 9.176832 14.210938 9.5117188 C 15.922167 10.354919 17.001243 12.092307 17 14 C 17 15.749996 16.343906 17.296173 15.441406 18.537109 C 14.605897 19.685935 13.548481 20.551263 12.744141 21 L 11.255859 21 C 10.451936 20.551362 9.3955246 19.686066 8.5605469 18.537109 C 7.6586221 17.296033 7.0026263 15.748919 7 13.998047 C 6.9993396 12.091812 8.0775724 10.355114 9.7871094 9.5117188 C 10.468744 9.1771632 11 8.4844837 11 7.6328125 L 11 3 z M 8 6 L 9 6 L 9 7.6328125 C 9 7.6291425 8.9866139 7.6773539 8.90625 7.7167969 A 1.0001 1.0001 0 0 0 8.9042969 7.7167969 C 8.7281995 7.8036086 8.5589235 7.8999183 8.3925781 8 L 8 8 C 7.5833345 8 7.398107 7.8797552 7.2480469 7.7109375 C 7.0979867 7.5421198 7 7.2777773 7 7 C 7 6.7222227 7.0979867 6.4578802 7.2480469 6.2890625 C 7.398107 6.1202448 7.5833345 6 8 6 z M 15 6 L 16 6 C 16.416666 6 16.601893 6.1202448 16.751953 6.2890625 C 16.902013 6.4578802 17 6.7222227 17 7 C 17 7.2777773 16.902013 7.5421198 16.751953 7.7109375 C 16.601893 7.8797552 16.416666 8 16 8 L 15.605469 8 C 15.439082 7.8999383 15.26988 7.8035843 15.09375 7.7167969 C 15.01427 7.6776843 15 7.6291395 15 7.6328125 L 15 6 z "/>
</svg>
