<?xml version="1.0" encoding="UTF-8" standalone="no"?>
<svg xmlns="http://www.w3.org/2000/svg" xmlns:svg="http://www.w3.org/2000/svg" width="24" height="24" viewBox="0 0 24 24" fill="currentColor" tags="ship" categories="transportation,text">
  <path d="M 12 1 C 9.8027056 1 8 2.8027056 8 5 C 8 6.8524261 9.2812389 8.4252305 11 8.8730469 L 11 20.945312 C 6.854377 20.480902 3.6807447 17.156748 3.2011719 13 L 5 13 A 1 1 0 0 0 6 12 A 1 1 0 0 0 5 11 L 2 11 A 1.0001 1.0001 0 0 0 1 12 C 1 18.063291 5.9367135 23 12 23 C 18.063287 23 23 18.063291 23 12 A 1.0001 1.0001 0 0 0 22 11 L 19 11 A 1 1 0 0 0 18 12 A 1 1 0 0 0 19 13 L 20.798828 13 C 20.319255 17.156748 17.145623 20.480902 13 20.945312 L 13 8.8730469 C 14.718761 8.4252304 16 6.8524261 16 5 C 16 2.8027056 14.197294 1 12 1 z M 12 3 C 13.116414 3 14 3.8835859 14 5 C 14 6.1164141 13.116414 7 12 7 C 10.883586 7 10 6.1164141 10 5 C 10 3.8835859 10.883586 3 12 3 z "/>
</svg>
