<svg xmlns="http://www.w3.org/2000/svg" xmlns:svg="http://www.w3.org/2000/svg" width="24" height="24" viewBox="0 0 24 24" fill="currentColor" tags="ship" categories="transportation,text">
  <path d="M 12 1 C 10.35499 1 9 2.3549904 9 4 C 9 5.2951422 9.8399126 6.4103145 11 6.8261719 L 11 10 L 9 10 A 1 1 0 0 0 8 11 A 1 1 0 0 0 9 12 L 11 12 L 11 19.9375 C 7.6855932 19.514872 5.11942 17.013198 4.3613281 13.798828 L 4.5527344 13.894531 A 1 1 0 0 0 5.8945312 13.447266 A 1 1 0 0 0 5.4472656 12.105469 L 3.4472656 11.105469 A 1.0001 1.0001 0 0 0 2 12 C 2 17.173576 5.9561184 21.447323 11 21.951172 L 11 22 A 1 1 0 0 0 12 23 A 1 1 0 0 0 13 22 L 13 21.951172 C 18.043882 21.447323 22 17.173576 22 12 A 1.0001 1.0001 0 0 0 20.552734 11.105469 L 18.552734 12.105469 A 1 1 0 0 0 18.105469 13.447266 A 1 1 0 0 0 19.447266 13.894531 L 19.638672 13.798828 C 18.88058 17.013196 16.314407 19.514872 13 19.9375 L 13 12 L 15 12 A 1 1 0 0 0 16 11 A 1 1 0 0 0 15 10 L 13 10 L 13 6.8261719 C 14.160087 6.4103145 15 5.2951422 15 4 C 15 2.3549904 13.64501 1 12 1 z M 12 3 C 12.564129 3 13 3.4358706 13 4 C 13 4.5641294 12.564129 5 12 5 C 11.435871 5 11 4.5641294 11 4 C 11 3.4358706 11.435871 3 12 3 z "/>
</svg>
