<svg xmlns="http://www.w3.org/2000/svg" xmlns:svg="http://www.w3.org/2000/svg" width="24" height="24" viewBox="0 0 24 24" fill="currentColor" tags="emoji,anger,face,emotion" categories="emoji">
  <path d="M 12 1 C 5.9367124 1 1 5.9367124 1 12 C 1 18.063288 5.9367124 23 12 23 C 18.063288 23 23 18.063288 23 12 C 23 5.9367124 18.063288 1 12 1 z M 12 3 C 16.982407 3 21 7.0175926 21 12 C 21 16.982407 16.982407 21 12 21 C 7.0175926 21 3 16.982407 3 12 C 3 7.0175926 7.0175926 3 12 3 z M 7.4882812 7.0019531 A 1 1 0 0 0 6.5722656 7.6289062 A 1 1 0 0 0 7.1289062 8.9277344 L 8.2265625 9.3671875 A 1 1 0 0 0 8 10 A 1 1 0 0 0 9 11 L 9.0097656 11 A 1 1 0 0 0 10.009766 10 A 1 1 0 0 0 10.009766 9.9980469 A 1 1 0 0 0 10.927734 9.3710938 A 1 1 0 0 0 10.371094 8.0722656 L 7.8710938 7.0722656 A 1 1 0 0 0 7.4882812 7.0019531 z M 16.511719 7.0019531 A 1 1 0 0 0 16.128906 7.0722656 L 13.628906 8.0722656 A 1 1 0 0 0 13.072266 9.3710938 A 1 1 0 0 0 14 9.9980469 A 1 1 0 0 0 14 10 A 1 1 0 0 0 15 11 L 15.009766 11 A 1 1 0 0 0 16.009766 10 A 1 1 0 0 0 15.78125 9.3632812 L 16.871094 8.9277344 A 1 1 0 0 0 17.427734 7.6289062 A 1 1 0 0 0 16.511719 7.0019531 z M 12 13 C 8.9666667 13 7.1992189 15.400391 7.1992188 15.400391 A 1 1 0 0 0 7.4003906 16.800781 A 1 1 0 0 0 8.8007812 16.599609 C 8.8007812 16.599609 10.033333 15 12 15 C 13.966667 15 15.199219 16.599609 15.199219 16.599609 A 1 1 0 0 0 16.599609 16.800781 A 1 1 0 0 0 16.800781 15.400391 C 16.800781 15.400391 15.033333 13 12 13 z "/>
</svg>
