<?xml version="1.0" encoding="UTF-8" standalone="no"?>
<svg xmlns="http://www.w3.org/2000/svg" xmlns:svg="http://www.w3.org/2000/svg" width="24" height="24" viewBox="0 0 24 24" fill="currentColor" tags="emoji,nuisance,face,emotion" categories="emoji">
  <path d="M 12 1 C 5.9367246 1 1 5.9367246 1 12 C 1 18.063276 5.9367246 23 12 23 C 18.063276 23 23 18.063276 23 12 C 23 5.9367246 18.063276 1 12 1 z M 12 3 C 16.982397 3 21 7.0176026 21 12 C 21 16.982397 16.982397 21 12 21 C 7.0176026 21 3 16.982397 3 12 C 3 7.0176026 7.0176026 3 12 3 z M 8 8 A 1 1 0 0 0 7 9 A 1 1 0 0 0 8 10 L 10 10 A 1 1 0 0 0 11 9 A 1 1 0 0 0 10 8 L 8 8 z M 14 8 A 1 1 0 0 0 13 9 A 1 1 0 0 0 14 10 L 16 10 A 1 1 0 0 0 17 9 A 1 1 0 0 0 16 8 L 14 8 z M 8 14 A 1 1 0 0 0 7 15 A 1 1 0 0 0 8 16 L 16 16 A 1 1 0 0 0 17 15 A 1 1 0 0 0 16 14 L 8 14 z "/>
</svg>
