<?xml version="1.0" encoding="UTF-8" standalone="no"?>
<svg xmlns="http://www.w3.org/2000/svg" xmlns:svg="http://www.w3.org/2000/svg" width="24" height="24" viewBox="0 0 24 24" fill="currentColor" tags="signal,connection,connectivity,tv,television,broadcast,live,frequency,tune,scan,channels,aerial,receiver,transmission,transducer,terrestrial,satellite,cable" categories="devices,multimedia,communication">
  
  <path d="M 6.9394531 1.0019531 A 1 1 0 0 0 6.6835938 1.0507812 A 1 1 0 0 0 6.1054688 1.5527344 L 1.1054688 11.552734 A 1 1 0 0 0 1.5527344 12.894531 A 1 1 0 0 0 2.8945312 12.447266 L 5.1171875 8 L 7.8828125 8 L 6.1054688 11.552734 A 1 1 0 0 0 6.5527344 12.894531 A 1 1 0 0 0 7.8945312 12.447266 L 10.117188 8 L 12.882812 8 L 11.105469 11.552734 A 1 1 0 0 0 11.552734 12.894531 A 1 1 0 0 0 12.894531 12.447266 L 15.117188 8 L 17.882812 8 L 16.105469 11.552734 A 1 1 0 0 0 16.552734 12.894531 A 1 1 0 0 0 17.894531 12.447266 L 22.894531 2.4472656 A 1 1 0 0 0 22.447266 1.1054688 A 1 1 0 0 0 21.105469 1.5527344 L 18.882812 6 L 16.117188 6 L 17.894531 2.4472656 A 1 1 0 0 0 17.447266 1.1054688 A 1 1 0 0 0 16.105469 1.5527344 L 13.882812 6 L 11.117188 6 L 12.894531 2.4472656 A 1 1 0 0 0 12.447266 1.1054688 A 1 1 0 0 0 11.683594 1.0507812 A 1 1 0 0 0 11.105469 1.5527344 L 8.8828125 6 L 6.1171875 6 L 7.8945312 2.4472656 A 1 1 0 0 0 7.4472656 1.1054688 A 1 1 0 0 0 6.9394531 1.0019531 z M 12 15 A 1 1 0 0 0 11 16 L 11 22 A 1 1 0 0 0 12 23 A 1 1 0 0 0 13 22 L 13 16 A 1 1 0 0 0 12 15 z "/>
</svg>
