<svg xmlns="http://www.w3.org/2000/svg" xmlns:svg="http://www.w3.org/2000/svg" width="24" height="24" viewBox="0 0 24 24" fill="currentColor" tags="metal,iron,alloy,materials,heavy,weight,blacksmith,forge,acme" categories="buildings,tools,gaming">
  <path d="M 8 3 C 7.2698076 3 6.6226282 3.4051277 6.2734375 4 L 3 4 C 1.9072751 4 1 4.9072751 1 6 C 1 8.7495791 3.2504209 11 6 11 C 6 12.092725 6.9072751 13 8 13 L 8 16 C 5.8027056 16 4 17.802706 4 20 C 4 21.092725 4.9072751 22 6 22 L 18 22 C 19.092725 22 20 21.092725 20 20 C 20 17.802706 18.197294 16 16 16 L 16 12.9375 C 19.937417 12.442882 23 9.0678813 23 5 C 23 3.9072751 22.092725 3 21 3 L 8 3 z M 8 5 L 21 5 C 21 8.3255531 18.325553 11 15 11 L 8 11 L 8 5 z M 3 6 L 6 6 L 6 9 C 4.3313011 9 3 7.6686989 3 6 z M 10 13 L 14 13 L 14 16 L 10 16 L 10 13 z M 8 18 L 9 18 L 15 18 L 16 18 C 17.116414 18 18 18.883586 18 20 L 6 20 C 6 18.883586 6.8835859 18 8 18 z "/>
</svg>
