<?xml version="1.0" encoding="UTF-8" standalone="no"?>
<svg xmlns="http://www.w3.org/2000/svg" xmlns:svg="http://www.w3.org/2000/svg" width="24" height="24" viewBox="0 0 24 24" fill="currentColor" tags="metal,iron,alloy,materials,heavy,weight,blacksmith,forge,acme" categories="buildings,tools,gaming">
  <path d="M 8 3 C 7.270376 3 6.6247726 3.4058847 6.2753906 4 L 3 4 C 1.9072773 4 1 4.9072773 1 6 C 1 8.7495737 3.2504263 11 6 11 C 6 12.092723 6.9072773 13 8 13 L 8 16 C 5.80271 16 4 17.80271 4 20 A 1 1 0 0 0 4.296875 20.708984 C 4.6042346 21.423005 5.1820155 22 6 22 L 18 22 C 19.092723 22 20 21.092723 20 20 C 20 17.80271 18.19729 16 16 16 L 16 12.935547 C 19.936988 12.440538 23 9.067571 23 5 C 23 3.9072773 22.092723 3 21 3 L 8 3 z M 8 5 L 21 5 C 21 8.3255465 18.325547 11 15 11 L 8 11 L 8 5 z M 3 6 L 6 6 L 6 9 C 4.3313045 9 3 7.6686955 3 6 z M 10 13 L 14 13 L 14 16 L 10 16 L 10 13 z M 8 18 L 9 18 L 15 18 L 16 18 C 17.116412 18 18 18.883588 18 20 L 6 20 C 6 18.883588 6.8835881 18 8 18 z "/>
</svg>
