<?xml version="1.0" encoding="UTF-8" standalone="no"?>
<svg xmlns="http://www.w3.org/2000/svg" xmlns:svg="http://www.w3.org/2000/svg" width="24" height="24" viewBox="0 0 24 24" fill="currentColor" tags="metal,iron,alloy,materials,heavy,weight,blacksmith,forge,acme" categories="buildings,tools,gaming">
  <path d="M 7 3 A 1.0001 1.0001 0 0 0 6 4 L 2 4 A 1.0001 1.0001 0 0 0 1 5 C 1 7.9827698 3.1556535 10.442355 6 10.916016 L 6 12 A 1.0001 1.0001 0 0 0 7 13 L 8 13 L 8 16 C 5.80271 16 4 17.80271 4 20 L 4 21 A 1.0001 1.0001 0 0 0 5 22 L 19 22 A 1.0001 1.0001 0 0 0 20 21 L 20 20 C 20 17.80271 18.19729 16 16 16 L 16 12.773438 C 20.000764 11.860216 23 8.2714935 23 4 A 1.0001 1.0001 0 0 0 22 3 L 7 3 z M 8 5 L 20.798828 5 C 20.297458 8.3790315 17.522766 11 14 11 L 8 11 L 8 5 z M 3.1914062 6 L 6 6 L 6 8.8789062 C 4.5852755 8.5253827 3.5455295 7.4273623 3.1914062 6 z M 10 13 L 14 13 L 14 16 L 10 16 L 10 13 z M 8 18 L 9 18 L 15 18 L 16 18 C 17.116412 18 18 18.883588 18 20 L 6 20 C 6 18.883588 6.8835881 18 8 18 z "/>
</svg>
