<svg xmlns="http://www.w3.org/2000/svg" xmlns:svg="http://www.w3.org/2000/svg" width="24" height="24" viewBox="0 0 24 24" fill="currentColor" tags="camera,photo,pictures,shutter,exposure" categories="photography">
  <path d="M 12 1 C 8.4328274 1 5.2555743 2.7080477 3.2441406 5.3496094 A 1 1 0 0 0 3.0644531 5.5917969 C 1.7652682 7.397719 1 9.6115561 1 12 C 1 13.525229 1.3128297 14.978776 1.8769531 16.300781 A 1 1 0 0 0 1.9628906 16.498047 C 3.5159411 19.949068 6.7973375 22.461387 10.697266 22.923828 A 1 1 0 0 0 10.839844 22.939453 C 11.221235 22.979658 11.608171 23 12 23 C 15.567173 23 18.744426 21.291952 20.755859 18.650391 A 1 1 0 0 0 20.935547 18.408203 C 22.234731 16.602281 23 14.388443 23 12 C 23 10.474771 22.68717 9.0212237 22.123047 7.6992188 A 1 1 0 0 0 22.037109 7.5019531 C 20.484058 4.0509311 17.202664 1.5386119 13.302734 1.0761719 A 1 1 0 0 0 13.160156 1.0605469 C 12.778764 1.0203419 12.39183 1 12 1 z M 11.412109 3.0195312 L 8.8359375 7.4804688 A 1 1 0 0 0 8.8125 7.5214844 L 7.3808594 10 L 5.1542969 6.1464844 C 6.6843221 4.3575212 8.9068763 3.180023 11.412109 3.0195312 z M 13.646484 3.1484375 C 16.081719 3.5958968 18.16827 5.0195516 19.490234 7 L 11.421875 7 L 13.646484 3.1484375 z M 3.9238281 8.0136719 L 7.9589844 15 L 3.5097656 15 C 3.1798845 14.062261 3 13.052664 3 12 C 3 10.567574 3.3322272 9.2140631 3.9238281 8.0136719 z M 10.267578 9 L 13.732422 9 L 15.464844 12 L 13.732422 15 L 10.267578 15 L 8.5351562 12 L 10.267578 9 z M 16.041016 9 L 20.490234 9 C 20.820116 9.9377394 21 10.947336 21 12 C 21 13.432426 20.667773 14.785937 20.076172 15.986328 L 17.484375 11.5 L 16.041016 9 z M 16.619141 14 L 18.845703 17.853516 C 17.315678 19.642479 15.093124 20.819977 12.587891 20.980469 L 15.162109 16.523438 L 15.164062 16.521484 A 1 1 0 0 0 15.1875 16.478516 L 16.619141 14 z M 4.5097656 17 L 12.578125 17 L 10.353516 20.851562 C 7.9182808 20.404103 5.8317296 18.980448 4.5097656 17 z "/>
</svg>
