<?xml version="1.0" encoding="UTF-8" standalone="no"?>
<svg xmlns="http://www.w3.org/2000/svg" xmlns:svg="http://www.w3.org/2000/svg" width="24" height="24" viewBox="0 0 24 24" fill="currentColor" tags="camera,photo" categories="photography">
  
  <path d="M 12 1 C 8.4258412 1 5.2451682 2.7167874 3.234375 5.3671875 A 1 1 0 0 0 3.125 5.5136719 C 1.7906919 7.3339947 1 9.576279 1 12 C 1 13.527288 1.3133385 14.983207 1.8789062 16.306641 A 1 1 0 0 0 1.8789062 16.308594 A 1 1 0 0 0 1.8828125 16.318359 C 3.3982265 19.853417 6.7165808 22.439069 10.671875 22.917969 C 10.675089 22.918358 10.678426 22.917582 10.681641 22.917969 C 11.114308 22.969967 11.5536 23 12 23 C 15.565195 23 18.738391 21.291413 20.75 18.652344 A 1 1 0 0 0 20.943359 18.388672 C 22.235338 16.585782 23 14.381156 23 12 C 23 10.472712 22.686661 9.01484 22.121094 7.6914062 A 1 1 0 0 0 22.03125 7.4921875 C 20.479651 4.0550419 17.209949 1.5522719 13.326172 1.0820312 A 1 1 0 0 0 13.318359 1.0820312 C 12.885692 1.0300335 12.4464 1 12 1 z M 11.410156 3.0214844 L 7.3808594 10 L 5.15625 6.1484375 C 6.6859141 4.3596353 8.9054478 3.1824493 11.410156 3.0214844 z M 13.644531 3.1523438 C 16.079515 3.5997232 18.168223 5.0199002 19.490234 7 L 11.421875 7 L 13.644531 3.1523438 z M 3.9238281 8.015625 L 7.9570312 15 L 3.5117188 15 C 3.1817378 14.062136 3 13.052828 3 12 C 3 10.567564 3.3322176 9.2160227 3.9238281 8.015625 z M 10.267578 9 L 13.732422 9 L 15.464844 12 L 13.732422 15 L 10.267578 15 L 8.5351562 12 L 10.267578 9 z M 16.042969 9 L 20.488281 9 C 20.818262 9.9378639 21 10.947172 21 12 C 21 13.432436 20.667782 14.783977 20.076172 15.984375 L 16.042969 9 z M 16.619141 14 L 18.84375 17.851562 C 17.314086 19.640365 15.094552 20.817551 12.589844 20.978516 L 16.619141 14 z M 4.5097656 17 L 12.578125 17 L 10.355469 20.847656 C 7.9204844 20.400277 5.8317768 18.9801 4.5097656 17 z "/>
</svg>
