<?xml version="1.0" encoding="UTF-8" standalone="no"?>
<svg xmlns="http://www.w3.org/2000/svg" xmlns:svg="http://www.w3.org/2000/svg" width="24" height="24" viewBox="0 0 24 24" fill="currentColor" tags="application,menu bar,pane,preferences,macos,osx,executable" categories="layout,design,development,files">
  <path d="M 4 3 C 2.3553005 3 1 4.3553005 1 6 L 1 18 C 1 19.644699 2.3553005 21 4 21 L 20 21 C 21.644699 21 23 19.644699 23 18 L 23 6 C 23 4.3553005 21.644699 3 20 3 L 4 3 z M 4 5 L 20 5 C 20.571296 5 21 5.4287039 21 6 L 21 18 C 21 18.571296 20.571296 19 20 19 L 4 19 C 3.4287039 19 3 18.571296 3 18 L 3 6 C 3 5.4287039 3.4287039 5 4 5 z M 6 7 A 1 1 0 0 0 5 8 A 1 1 0 0 0 6 9 L 6.0097656 9 A 1 1 0 0 0 7.0097656 8 A 1 1 0 0 0 6.0097656 7 L 6 7 z M 10 7 A 1 1 0 0 0 9 8 A 1 1 0 0 0 10 9 L 10.009766 9 A 1 1 0 0 0 11.009766 8 A 1 1 0 0 0 10.009766 7 L 10 7 z M 14 7 A 1 1 0 0 0 13 8 A 1 1 0 0 0 14 9 L 14.009766 9 A 1 1 0 0 0 15.009766 8 A 1 1 0 0 0 14.009766 7 L 14 7 z "/>
</svg>
