<svg xmlns="http://www.w3.org/2000/svg" xmlns:svg="http://www.w3.org/2000/svg" width="24" height="24" viewBox="0 0 24 24" fill="currentColor" tags="fruit,food,healthy,snack,nutrition,fresh,produce,grocery,organic,harvest,vitamin,red,green,juicy,sweet,tart,bite,orchard,plant,core,raw,diet" categories="food-beverage">
  <path d="M 13 1 C 11.907275 1 11 1.9072751 11 3 L 11 4.7304688 C 10.338514 4.3859847 9.6503727 4.150675 8.9472656 4.0566406 C 7.6373539 3.8814514 6.3139949 4.0855174 5.1425781 4.609375 C 2.8002743 5.6568533 1.0008812 8.0117954 1 10.998047 C 0.993273 14.922079 2.4197452 18.714015 5.0117188 21.660156 A 1.0001 1.0001 0 0 0 5.0175781 21.666016 C 6.2426174 23.036511 8.2587688 23.396006 9.8808594 22.53125 C 11.20574 21.824379 12.79426 21.824379 14.119141 22.53125 C 15.741231 23.396006 17.757383 23.036511 18.982422 21.666016 A 1 1 0 0 0 18.982422 21.664062 A 1 1 0 0 0 18.986328 21.662109 C 21.587574 18.720488 23.016158 14.924786 23 10.998047 C 22.999119 8.0117954 21.199726 5.6568533 18.857422 4.609375 C 17.055658 3.8036264 14.910445 3.806198 13 4.7480469 L 13 3 A 1 1 0 0 0 14 2 A 1 1 0 0 0 13 1 z M 7.9707031 5.9824219 C 8.2019132 5.978798 8.4341562 5.9913089 8.6660156 6.0214844 C 9.5934534 6.1421862 10.514624 6.5405792 11.333984 7.2734375 A 1.0001 1.0001 0 0 0 11.367188 7.3007812 A 1 1 0 0 0 11.40625 7.3300781 A 1.0001 1.0001 0 0 0 11.486328 7.3847656 A 1 1 0 0 0 11.513672 7.4003906 A 1.0001 1.0001 0 0 0 11.589844 7.4375 A 1 1 0 0 0 11.650391 7.4628906 A 1.0001 1.0001 0 0 0 11.695312 7.4785156 A 1 1 0 0 0 11.785156 7.5019531 A 1.0001 1.0001 0 0 0 11.824219 7.5097656 A 1 1 0 0 0 11.90625 7.5214844 A 1.0001 1.0001 0 0 0 11.966797 7.5253906 A 1 1 0 0 0 12 7.5273438 A 1 1 0 0 0 12.033203 7.5253906 A 1.0001 1.0001 0 0 0 12.09375 7.5214844 A 1 1 0 0 0 12.175781 7.5097656 A 1.0001 1.0001 0 0 0 12.214844 7.5019531 A 1 1 0 0 0 12.304688 7.4785156 A 1.0001 1.0001 0 0 0 12.349609 7.4628906 A 1 1 0 0 0 12.410156 7.4375 A 1.0001 1.0001 0 0 0 12.486328 7.4003906 A 1.0001 1.0001 0 0 0 12.513672 7.3847656 A 1.0001 1.0001 0 0 0 12.59375 7.3300781 A 1 1 0 0 0 12.632812 7.3007812 A 1.0001 1.0001 0 0 0 12.666016 7.2734375 C 14.304737 5.8077209 16.350193 5.679411 18.041016 6.4355469 C 19.731838 7.1916827 20.99995 8.8014251 21 11 A 1.0001 1.0001 0 0 0 21 11.003906 C 21.01456 14.439091 19.76669 17.759792 17.492188 20.333984 L 17.490234 20.335938 C 16.872784 21.024802 15.877368 21.20004 15.060547 20.765625 C 13.149322 19.745918 10.850678 19.745918 8.9394531 20.765625 C 8.1232114 21.199716 7.1292573 21.023684 6.5117188 20.335938 C 4.2432649 17.755891 2.9941102 14.43753 3 11.001953 A 1.0001 1.0001 0 0 0 3 11 C 3.0000498 8.8014251 4.2681618 7.1916827 5.9589844 6.4355469 C 6.5930428 6.1519959 7.2770729 5.9932936 7.9707031 5.9824219 z "/>
</svg>
