<?xml version="1.0" encoding="UTF-8" standalone="no"?>
<svg xmlns="http://www.w3.org/2000/svg" xmlns:svg="http://www.w3.org/2000/svg" width="24" height="24" viewBox="0 0 24 24" fill="currentColor" tags="fruit,food" categories="food-beverage">
  <path d="M 9.9394531 1.0019531 A 1 1 0 0 0 9.6835938 1.0507812 A 1 1 0 0 0 9.1054688 1.5527344 A 1 1 0 0 0 9.5527344 2.8945312 C 9.9338146 3.0850711 10.527898 3.703624 10.822266 5.0996094 C 9.8596484 4.5535271 8.5779329 4.0050756 7.0117188 4.0019531 C 3.7784695 3.9406258 1.0785331 6.5217302 1 9.7558594 A 1.0001 1.0001 0 0 0 1 9.7792969 C 1 12.126264 1.7813477 15.228761 2.9609375 17.878906 C 3.5507324 19.203979 4.2382584 20.40665 5.0390625 21.335938 C 5.8398666 22.265227 6.8055556 23 8 23 C 8.9076667 23 9.6352203 22.657357 10.28125 22.396484 C 10.92728 22.135611 11.485556 21.939453 12 21.939453 C 12.514444 21.939453 13.07272 22.135611 13.71875 22.396484 C 14.36478 22.657357 15.092333 23 16 23 C 17.194444 23 18.160134 22.265226 18.960938 21.335938 C 19.761743 20.40665 20.449268 19.203979 21.039062 17.878906 C 22.218652 15.228761 23 12.126264 23 9.7792969 A 1.0001 1.0001 0 0 0 23 9.7539062 C 22.91499 6.5229676 20.218851 3.9461384 16.988281 4.0019531 C 15.25684 4.005405 13.872104 4.674897 12.882812 5.2714844 C 12.567081 3.0735685 11.63803 1.7008513 10.447266 1.1054688 A 1 1 0 0 0 9.9394531 1.0019531 z M 6.9785156 6 A 1.0001 1.0001 0 0 0 7 6 C 8.7822308 6 10.305346 7.1941742 11.5 7.8652344 C 11.503577 7.8672438 11.508147 7.8710469 11.511719 7.8730469 A 1.0001 1.0001 0 0 0 11.587891 7.9101562 A 1 1 0 0 0 11.623047 7.9257812 A 1.0001 1.0001 0 0 0 11.673828 7.9433594 A 1 1 0 0 0 11.740234 7.9667969 A 1.0001 1.0001 0 0 0 11.791016 7.9765625 A 1 1 0 0 0 11.869141 7.9921875 A 1.0001 1.0001 0 0 0 12.208984 7.9765625 A 1 1 0 0 0 12.259766 7.9667969 A 1.0001 1.0001 0 0 0 12.326172 7.9433594 A 1 1 0 0 0 12.376953 7.9257812 A 1.0001 1.0001 0 0 0 12.412109 7.9101562 A 1.0001 1.0001 0 0 0 12.488281 7.8730469 C 12.491853 7.8710469 12.496423 7.8672438 12.5 7.8652344 C 13.694654 7.1941742 15.217769 6 17 6 A 1.0001 1.0001 0 0 0 17.019531 6 C 19.175047 5.959737 20.935865 7.6432405 20.998047 9.796875 C 20.994447 11.670891 20.278628 14.667662 19.210938 17.066406 C 18.675732 18.268834 18.050759 19.328664 17.445312 20.03125 C 16.839869 20.733836 16.305556 21 16 21 C 15.657667 21 15.13522 20.812096 14.46875 20.542969 C 13.80228 20.273842 12.985556 19.939453 12 19.939453 C 11.014444 19.939453 10.19772 20.273842 9.53125 20.542969 C 8.8647797 20.812096 8.3423333 21 8 21 C 7.6944444 21 7.1601334 20.733836 6.5546875 20.03125 C 5.9492416 19.328664 5.3242676 18.268834 4.7890625 17.066406 C 3.7210748 14.666994 3.0051946 11.668833 3.0019531 9.7949219 C 3.0598061 7.6403551 4.822265 5.9553499 6.9785156 6 z "/>
</svg>
