<svg xmlns="http://www.w3.org/2000/svg" xmlns:svg="http://www.w3.org/2000/svg" width="24" height="24" viewBox="0 0 24 24" fill="currentColor" tags="unarchive,index,backup,box,storage,records" categories="files,mail">
  <path d="M 3 2 C 1.9092972 2 1 2.9092972 1 4 L 1 7 C 1 8.0907028 1.9092972 9 3 9 L 3 19 C 3 20.64501 4.3549904 22 6 22 L 8 22 A 1 1 0 0 0 9 21 A 1 1 0 0 0 8 20 L 6 20 C 5.4358706 20 5 19.564129 5 19 L 5 9 L 19 9 L 19 19 C 19 19.564129 18.564129 20 18 20 L 16 20 A 1 1 0 0 0 15 21 A 1 1 0 0 0 16 22 L 18 22 C 19.64501 22 21 20.64501 21 19 L 21 9 C 22.090703 9 23 8.0907028 23 7 L 23 4 C 23 2.9092972 22.090703 2 21 2 L 3 2 z M 3 4 L 21 4 L 21 7 L 3 7 L 3 4 z M 12 11 A 1.0001 1.0001 0 0 0 11.794922 11.023438 A 1 1 0 0 0 11.742188 11.035156 A 1 1 0 0 0 11.617188 11.076172 A 1 1 0 0 0 11.611328 11.078125 A 1.0001 1.0001 0 0 0 11.5 11.134766 A 1 1 0 0 0 11.439453 11.175781 A 1.0001 1.0001 0 0 0 11.384766 11.212891 A 1 1 0 0 0 11.341797 11.25 A 1.0001 1.0001 0 0 0 11.292969 11.292969 A 1 1 0 0 0 11.283203 11.302734 L 8.2929688 14.292969 A 1 1 0 0 0 8.2929688 15.707031 A 1 1 0 0 0 9.7070312 15.707031 L 11 14.414062 L 11 21 A 1 1 0 0 0 12 22 A 1 1 0 0 0 13 21 L 13 14.414062 L 14.292969 15.707031 A 1 1 0 0 0 15.707031 15.707031 A 1 1 0 0 0 15.707031 14.292969 L 12.716797 11.302734 A 1 1 0 0 0 12.658203 11.25 A 1.0001 1.0001 0 0 0 12.615234 11.212891 A 1 1 0 0 0 12.560547 11.175781 A 1.0001 1.0001 0 0 0 12.382812 11.076172 A 1 1 0 0 0 12.257812 11.035156 A 1.0001 1.0001 0 0 0 12.205078 11.023438 A 1.0001 1.0001 0 0 0 12 11 z "/>
</svg>
