<?xml version="1.0" encoding="UTF-8" standalone="no"?>
<svg xmlns="http://www.w3.org/2000/svg" xmlns:svg="http://www.w3.org/2000/svg" width="24" height="24" viewBox="0 0 24 24" fill="currentColor" tags="index,backup,box,storage,records" categories="files,mail">
  <path d="M 3 2 C 1.9092994 2 1 2.9092994 1 4 L 1 7 C 1 8.0907006 1.9092994 9 3 9 L 3 19 C 3 20.645006 4.3549936 22 6 22 L 18 22 C 19.645006 22 21 20.645006 21 19 L 21 9 C 22.090701 9 23 8.0907006 23 7 L 23 4 C 23 2.9092994 22.090701 2 21 2 L 3 2 z M 3 4 L 21 4 L 21 7 L 3 7 L 3 4 z M 5 9 L 19 9 L 19 19 C 19 19.564128 18.564128 20 18 20 L 6 20 C 5.4358718 20 5 19.564128 5 19 L 5 9 z M 10 11 A 1 1 0 0 0 9 12 A 1 1 0 0 0 10 13 L 14 13 A 1 1 0 0 0 15 12 A 1 1 0 0 0 14 11 L 10 11 z "/>
</svg>
