<svg xmlns="http://www.w3.org/2000/svg" xmlns:svg="http://www.w3.org/2000/svg" width="24" height="24" viewBox="0 0 24 24" fill="currentColor" tags="index,backup,box,storage,records,junk" categories="files,mail">
  <path d="M 3 2 C 1.9092972 2 1 2.9092972 1 4 L 1 7 C 1 8.0907028 1.9092972 9 3 9 L 3 19 C 3 20.64501 4.3549904 22 6 22 L 18 22 C 19.64501 22 21 20.64501 21 19 L 21 9 C 22.090703 9 23 8.0907028 23 7 L 23 4 C 23 2.9092972 22.090703 2 21 2 L 3 2 z M 3 4 L 21 4 L 21 7 L 3 7 L 3 4 z M 5 9 L 19 9 L 19 19 C 19 19.564129 18.564129 20 18 20 L 6 20 C 5.4358706 20 5 19.564129 5 19 L 5 9 z M 9.5 11 A 1 1 0 0 0 8.7929688 11.292969 A 1 1 0 0 0 8.7929688 12.707031 L 10.585938 14.5 L 8.7929688 16.292969 A 1 1 0 0 0 8.7929688 17.707031 A 1 1 0 0 0 10.207031 17.707031 L 12 15.914062 L 13.792969 17.707031 A 1 1 0 0 0 15.207031 17.707031 A 1 1 0 0 0 15.207031 16.292969 L 13.414062 14.5 L 15.207031 12.707031 A 1 1 0 0 0 15.207031 11.292969 A 1 1 0 0 0 14.5 11 A 1 1 0 0 0 13.792969 11.292969 L 12 13.085938 L 10.207031 11.292969 A 1 1 0 0 0 9.5 11 z "/>
</svg>
