<?xml version="1.0" encoding="UTF-8" standalone="no"?>
<svg xmlns="http://www.w3.org/2000/svg" xmlns:svg="http://www.w3.org/2000/svg" width="24" height="24" viewBox="0 0 24 24" fill="currentColor" tags="sofa,furniture,leisure,lounge,loveseat,couch" categories="home">
  <path d="M 7 3 C 5.3549904 3 4 4.3549904 4 6 L 4 8.1601562 C 3.6269655 8.2826008 3.2714038 8.4759832 2.9609375 8.7519531 C 2.3797556 9.268559 2 10.083334 2 11 L 2 16 C 2 17.294752 2.8404555 18.406112 4 18.822266 L 4 20 A 1 1 0 0 0 5 21 A 1 1 0 0 0 6 20 L 6 19 L 18 19 L 18 20 A 1 1 0 0 0 19 21 A 1 1 0 0 0 20 20 L 20 18.822266 C 21.159545 18.406112 22 17.294752 22 16 L 22 11 C 22 10.083334 21.620244 9.268559 21.039062 8.7519531 C 20.728597 8.4759832 20.373034 8.2826008 20 8.1601562 L 20 6 C 20 4.3549904 18.64501 3 17 3 L 7 3 z M 7 5 L 17 5 C 17.564129 5 18 5.4358706 18 6 L 18 8.1601562 C 17.626965 8.2826008 17.271404 8.4759832 16.960938 8.7519531 C 16.379756 9.268559 16 10.083334 16 11 L 16 12 L 8 12 L 8 11 C 8 10.083334 7.6202444 9.268559 7.0390625 8.7519531 C 6.7285962 8.4759832 6.3730345 8.2826008 6 8.1601562 L 6 6 C 6 5.4358706 6.4358706 5 7 5 z M 5 10 C 5.2777779 10 5.5421194 10.09799 5.7109375 10.248047 C 5.8797556 10.398107 6 10.583334 6 11 L 6 12.5 C 6 13.316582 6.6834175 14 7.5 14 L 16.5 14 C 17.316582 14 18 13.316582 18 12.5 L 18 11 C 18 10.583334 18.120244 10.398107 18.289062 10.248047 C 18.457881 10.097986 18.722222 10 19 10 C 19.277778 10 19.542119 10.09799 19.710938 10.248047 C 19.879756 10.398107 20 10.583334 20 11 L 20 16 C 20 16.564129 19.564129 17 19 17 L 5 17 C 4.4358706 17 4 16.564129 4 16 L 4 11 C 4 10.583334 4.1202444 10.398107 4.2890625 10.248047 C 4.4578806 10.097986 4.7222221 10 5 10 z "/>
</svg>
