<?xml version="1.0" encoding="UTF-8" standalone="no"?>
<svg xmlns="http://www.w3.org/2000/svg" xmlns:svg="http://www.w3.org/2000/svg" width="24" height="24" viewBox="0 0 24 24" fill="currentColor" tags="outwards,direction,north-east,diagonal,share,open,external" categories="arrows,navigation,social">
  <path d="M 5 2 C 3.3549936 2 2 3.3549936 2 5 L 2 19 C 2 20.645006 3.3549936 22 5 22 L 19 22 C 20.645006 22 22 20.645006 22 19 L 22 13 A 1 1 0 0 0 21 12 A 1 1 0 0 0 20 13 L 20 19 C 20 19.564128 19.564128 20 19 20 L 5 20 C 4.4358718 20 4 19.564128 4 19 L 4 5 C 4 4.4358718 4.4358718 4 5 4 L 11 4 A 1 1 0 0 0 12 3 A 1 1 0 0 0 11 2 L 5 2 z M 15 2 A 1 1 0 0 0 14 3 A 1 1 0 0 0 15 4 L 18.585938 4 L 11.292969 11.292969 A 1 1 0 0 0 11.292969 12.707031 A 1 1 0 0 0 12.707031 12.707031 L 20 5.4140625 L 20 9 A 1 1 0 0 0 21 10 A 1 1 0 0 0 22 9 L 22 3 A 1 1 0 0 0 21.96875 2.7578125 A 1.0001 1.0001 0 0 0 21.957031 2.7167969 A 1 1 0 0 0 21.871094 2.515625 A 1.0001 1.0001 0 0 0 21.857422 2.4902344 A 1 1 0 0 0 21.707031 2.2929688 A 1.0001 1.0001 0 0 0 21.472656 2.1230469 A 1 1 0 0 0 21.394531 2.0898438 A 1.0001 1.0001 0 0 0 21.197266 2.0253906 A 1 1 0 0 0 21.091797 2.0117188 A 1.0001 1.0001 0 0 0 21 2 L 15 2 z "/>
</svg>
