<svg xmlns="http://www.w3.org/2000/svg" xmlns:svg="http://www.w3.org/2000/svg" width="24" height="24" viewBox="0 0 24 24" fill="currentColor" tags="bidirectional,two-way,2-way,swap,switch,network,traffic,flow,mobile data,internet,sort,reorder,move" categories="arrows">
  <path d="M 7 3 A 1 1 0 0 0 6 4 L 6 17.585938 L 3.7070312 15.292969 A 1 1 0 0 0 2.2929688 15.292969 A 1 1 0 0 0 2.2929688 16.707031 L 6.2929688 20.707031 A 1.0001 1.0001 0 0 0 6.3417969 20.75 A 1 1 0 0 0 6.3847656 20.787109 A 1.0001 1.0001 0 0 0 6.4394531 20.824219 A 1 1 0 0 0 6.4921875 20.861328 A 1.0001 1.0001 0 0 0 6.5 20.865234 A 1 1 0 0 0 6.6113281 20.921875 A 1.0001 1.0001 0 0 0 6.6171875 20.923828 A 1 1 0 0 0 6.7949219 20.976562 A 1.0001 1.0001 0 0 0 7.2578125 20.964844 A 1 1 0 0 0 7.3828125 20.923828 A 1.0001 1.0001 0 0 0 7.5605469 20.824219 A 1 1 0 0 0 7.6152344 20.787109 A 1.0001 1.0001 0 0 0 7.6582031 20.75 A 1 1 0 0 0 7.7167969 20.697266 L 11.707031 16.707031 A 1 1 0 0 0 11.707031 15.292969 A 1 1 0 0 0 11 15 A 1 1 0 0 0 10.292969 15.292969 L 8 17.585938 L 8 4 A 1 1 0 0 0 7 3 z M 17 3 A 1.0001 1.0001 0 0 0 16.794922 3.0234375 A 1 1 0 0 0 16.742188 3.0351562 A 1 1 0 0 0 16.617188 3.0761719 A 1 1 0 0 0 16.439453 3.1757812 A 1.0001 1.0001 0 0 0 16.384766 3.2128906 A 1 1 0 0 0 16.341797 3.25 A 1.0001 1.0001 0 0 0 16.292969 3.2929688 A 1 1 0 0 0 16.283203 3.3027344 L 12.292969 7.2929688 A 1 1 0 0 0 12.292969 8.7070312 A 1 1 0 0 0 13.707031 8.7070312 L 16 6.4140625 L 16 20 A 1 1 0 0 0 17 21 A 1 1 0 0 0 18 20 L 18 6.4140625 L 20.292969 8.7070312 A 1 1 0 0 0 21.707031 8.7070312 A 1 1 0 0 0 21.707031 7.2929688 L 17.716797 3.3027344 A 1 1 0 0 0 17.658203 3.25 A 1.0001 1.0001 0 0 0 17.615234 3.2128906 A 1 1 0 0 0 17.560547 3.1757812 A 1.0001 1.0001 0 0 0 17.5 3.1347656 A 1 1 0 0 0 17.388672 3.078125 A 1.0001 1.0001 0 0 0 17.382812 3.0761719 A 1 1 0 0 0 17.257812 3.0351562 A 1.0001 1.0001 0 0 0 17.205078 3.0234375 A 1.0001 1.0001 0 0 0 17 3 z "/>
</svg>
