<?xml version="1.0" encoding="UTF-8" standalone="no"?>
<svg xmlns="http://www.w3.org/2000/svg" xmlns:svg="http://www.w3.org/2000/svg" width="24" height="24" viewBox="0 0 24 24" fill="currentColor" tags="filter,sort,ascending" categories="text,layout,arrows">
  <path d="M 7 3 A 1.0001 1.0001 0 0 0 6.7207031 3.0449219 A 1 1 0 0 0 6.6191406 3.0859375 A 1.0001 1.0001 0 0 0 6.453125 3.1699219 A 1 1 0 0 0 6.3671875 3.2363281 A 1.0001 1.0001 0 0 0 6.2929688 3.2929688 L 2.2929688 7.2929688 A 1 1 0 0 0 2.2929688 8.7070312 A 1 1 0 0 0 3.7070312 8.7070312 L 6 6.4140625 L 6 20 A 1 1 0 0 0 7 21 A 1 1 0 0 0 8 20 L 8 6.4140625 L 10.292969 8.7070312 A 1 1 0 0 0 11.707031 8.7070312 A 1 1 0 0 0 11.707031 7.2929688 L 7.7480469 3.3359375 A 1 1 0 0 0 7.7070312 3.2929688 A 1.0001 1.0001 0 0 0 7.6992188 3.2871094 A 1 1 0 0 0 7.5097656 3.1425781 A 1.0001 1.0001 0 0 0 7.4902344 3.1308594 A 1 1 0 0 0 7 3 z M 11 11 A 1 1 0 0 0 10 12 A 1 1 0 0 0 11 13 L 15 13 A 1 1 0 0 0 16 12 A 1 1 0 0 0 15 11 L 11 11 z M 11 15 A 1 1 0 0 0 10 16 A 1 1 0 0 0 11 17 L 18 17 A 1 1 0 0 0 19 16 A 1 1 0 0 0 18 15 L 11 15 z M 11 19 A 1 1 0 0 0 10 20 A 1 1 0 0 0 11 21 L 21 21 A 1 1 0 0 0 22 20 A 1 1 0 0 0 21 19 L 11 19 z "/>
</svg>
