<svg xmlns="http://www.w3.org/2000/svg" xmlns:svg="http://www.w3.org/2000/svg" width="24" height="24" viewBox="0 0 24 24" fill="currentColor" tags="bidirectional,two-way,2-way,swap,switch,transaction,reorder,move,&lt;-,-&gt;" categories="arrows">
  <path d="M 8 2 A 1 1 0 0 0 7.2929688 2.2929688 L 3.2929688 6.2929688 A 1.0001 1.0001 0 0 0 3.25 6.3417969 A 1 1 0 0 0 3.2128906 6.3847656 A 1.0001 1.0001 0 0 0 3.1757812 6.4394531 A 1 1 0 0 0 3.1386719 6.4921875 A 1.0001 1.0001 0 0 0 3.1347656 6.5 A 1 1 0 0 0 3.078125 6.6113281 A 1.0001 1.0001 0 0 0 3.0761719 6.6171875 A 1 1 0 0 0 3.0234375 6.7949219 A 1.0001 1.0001 0 0 0 3.0351562 7.2578125 A 1 1 0 0 0 3.078125 7.3886719 A 1.0001 1.0001 0 0 0 3.1347656 7.5 A 1 1 0 0 0 3.1757812 7.5605469 A 1.0001 1.0001 0 0 0 3.2128906 7.6152344 A 1 1 0 0 0 3.25 7.6582031 A 1.0001 1.0001 0 0 0 3.2929688 7.7070312 A 1 1 0 0 0 3.3027344 7.7167969 L 7.2929688 11.707031 A 1 1 0 0 0 8.7070312 11.707031 A 1 1 0 0 0 8.7070312 10.292969 L 6.4140625 8 L 20 8 A 1 1 0 0 0 21 7 A 1 1 0 0 0 20 6 L 6.4140625 6 L 8.7070312 3.7070312 A 1 1 0 0 0 8.7070312 2.2929688 A 1 1 0 0 0 8 2 z M 16 12 A 1 1 0 0 0 15.292969 12.292969 A 1 1 0 0 0 15.292969 13.707031 L 17.585938 16 L 4 16 A 1 1 0 0 0 3 17 A 1 1 0 0 0 4 18 L 17.585938 18 L 15.292969 20.292969 A 1 1 0 0 0 15.292969 21.707031 A 1 1 0 0 0 16.707031 21.707031 L 20.697266 17.716797 A 1 1 0 0 0 20.707031 17.707031 A 1.0001 1.0001 0 0 0 20.785156 17.619141 A 1 1 0 0 0 20.792969 17.609375 A 1.0001 1.0001 0 0 0 20.861328 17.507812 A 1 1 0 0 0 20.865234 17.5 A 1.0001 1.0001 0 0 0 20.921875 17.388672 A 1 1 0 0 0 20.923828 17.382812 A 1 1 0 0 0 20.964844 17.257812 A 1.0001 1.0001 0 0 0 20.976562 17.205078 A 1.0001 1.0001 0 0 0 21 17 A 1.0001 1.0001 0 0 0 20.976562 16.794922 A 1.0001 1.0001 0 0 0 20.964844 16.742188 A 1 1 0 0 0 20.923828 16.617188 A 1.0001 1.0001 0 0 0 20.921875 16.611328 A 1 1 0 0 0 20.865234 16.5 A 1.0001 1.0001 0 0 0 20.861328 16.492188 A 1 1 0 0 0 20.792969 16.390625 A 1.0001 1.0001 0 0 0 20.785156 16.380859 A 1 1 0 0 0 20.707031 16.292969 L 20.697266 16.283203 L 16.707031 12.292969 A 1 1 0 0 0 16 12 z "/>
</svg>
