<svg xmlns="http://www.w3.org/2000/svg" xmlns:svg="http://www.w3.org/2000/svg" width="24" height="24" viewBox="0 0 24 24" fill="currentColor" tags="forward,next,direction,east,-&gt;" categories="arrows">
  <path d="M 12 4 A 1 1 0 0 0 11.292969 4.2929688 A 1 1 0 0 0 11.292969 5.7070312 L 16.585938 11 L 5 11 A 1 1 0 0 0 4 12 A 1 1 0 0 0 5 13 L 16.585938 13 L 11.292969 18.292969 A 1 1 0 0 0 11.292969 19.707031 A 1 1 0 0 0 12.707031 19.707031 L 19.697266 12.716797 A 1 1 0 0 0 19.707031 12.707031 A 1.0001 1.0001 0 0 0 19.785156 12.619141 A 1 1 0 0 0 19.792969 12.609375 A 1.0001 1.0001 0 0 0 19.861328 12.507812 A 1 1 0 0 0 19.865234 12.5 A 1.0001 1.0001 0 0 0 19.921875 12.388672 A 1 1 0 0 0 19.923828 12.382812 A 1 1 0 0 0 19.964844 12.257812 A 1.0001 1.0001 0 0 0 19.976562 12.205078 A 1.0001 1.0001 0 0 0 20 12 A 1.0001 1.0001 0 0 0 19.976562 11.794922 A 1.0001 1.0001 0 0 0 19.964844 11.742188 A 1 1 0 0 0 19.923828 11.617188 A 1.0001 1.0001 0 0 0 19.921875 11.611328 A 1 1 0 0 0 19.865234 11.5 A 1.0001 1.0001 0 0 0 19.861328 11.492188 A 1 1 0 0 0 19.792969 11.390625 A 1.0001 1.0001 0 0 0 19.785156 11.380859 A 1 1 0 0 0 19.707031 11.292969 L 19.697266 11.283203 L 12.707031 4.2929688 A 1 1 0 0 0 12 4 z "/>
</svg>
