<?xml version="1.0" encoding="UTF-8" standalone="no"?>
<svg xmlns="http://www.w3.org/2000/svg" xmlns:svg="http://www.w3.org/2000/svg" width="24" height="24" viewBox="0 0 24 24" fill="currentColor" tags="previous,back,direction,west,collapse,fold,horizontal,|&lt;-" categories="arrows,navigation">
  
  <path d="M 3 4 A 1 1 0 0 0 2 5 L 2 19 A 1 1 0 0 0 3 20 A 1 1 0 0 0 4 19 L 4 5 A 1 1 0 0 0 3 4 z M 13 5 A 1 1 0 0 0 12.292969 5.2929688 L 6.2929688 11.292969 A 1.0001 1.0001 0 0 0 6.2460938 11.355469 A 1 1 0 0 0 6.1542969 11.484375 A 1.0001 1.0001 0 0 0 6.0859375 11.619141 A 1 1 0 0 0 6.0371094 11.767578 A 1.0001 1.0001 0 0 0 6.0117188 11.925781 A 1 1 0 0 0 6 12 A 1 1 0 0 0 6.0117188 12.074219 A 1.0001 1.0001 0 0 0 6.0371094 12.232422 A 1 1 0 0 0 6.0859375 12.380859 A 1.0001 1.0001 0 0 0 6.1542969 12.515625 A 1 1 0 0 0 6.2460938 12.644531 A 1.0001 1.0001 0 0 0 6.2929688 12.707031 L 12.292969 18.707031 A 1 1 0 0 0 13.707031 18.707031 A 1 1 0 0 0 13.707031 17.292969 L 9.4140625 13 L 21 13 A 1 1 0 0 0 22 12 A 1 1 0 0 0 21 11 L 9.4140625 11 L 13.707031 6.7070312 A 1 1 0 0 0 13.707031 5.2929688 A 1 1 0 0 0 13 5 z "/>
</svg>
