<?xml version="1.0" encoding="UTF-8" standalone="no"?>
<svg xmlns="http://www.w3.org/2000/svg" xmlns:svg="http://www.w3.org/2000/svg" width="24" height="24" viewBox="0 0 24 24" fill="currentColor" tags="bidirectional,two-way,2-way,swap,switch,transaction,reorder,move,&lt;-,-&gt;" categories="arrows,navigation">
  <path d="M 16 2 A 1 1 0 0 0 15.292969 2.2929688 A 1 1 0 0 0 15.292969 3.7070312 L 17.585938 6 L 4 6 A 1 1 0 0 0 3 7 A 1 1 0 0 0 4 8 L 17.585938 8 L 15.292969 10.292969 A 1 1 0 0 0 15.292969 11.707031 A 1 1 0 0 0 16.707031 11.707031 L 20.707031 7.7070312 A 1.0001 1.0001 0 0 0 20.808594 7.5878906 A 1 1 0 0 0 20.810547 7.5839844 A 1.0001 1.0001 0 0 0 20.951172 7.3085938 A 1 1 0 0 0 20.951172 7.3066406 A 1.0001 1.0001 0 0 0 21 7 A 1 1 0 0 0 20.994141 6.9023438 A 1.0001 1.0001 0 0 0 20.994141 6.8964844 A 1 1 0 0 0 20.986328 6.8457031 A 1.0001 1.0001 0 0 0 20.974609 6.7792969 A 1 1 0 0 0 20.964844 6.7382812 A 1.0001 1.0001 0 0 0 20.945312 6.6777344 A 1 1 0 0 0 20.923828 6.6171875 A 1.0001 1.0001 0 0 0 20.884766 6.5351562 A 1 1 0 0 0 20.880859 6.5292969 A 1.0001 1.0001 0 0 0 20.871094 6.5136719 A 1 1 0 0 0 20.832031 6.4453125 A 1.0001 1.0001 0 0 0 20.822266 6.4316406 A 1 1 0 0 0 20.818359 6.4257812 A 1.0001 1.0001 0 0 0 20.748047 6.3359375 A 1 1 0 0 0 20.707031 6.2929688 L 16.707031 2.2929688 A 1 1 0 0 0 16 2 z M 8 12 A 1 1 0 0 0 7.2929688 12.292969 L 3.2929688 16.292969 A 1.0001 1.0001 0 0 0 3.2363281 16.367188 A 1 1 0 0 0 3.1699219 16.453125 A 1.0001 1.0001 0 0 0 3.0859375 16.619141 A 1 1 0 0 0 3.0449219 16.720703 A 1.0001 1.0001 0 0 0 3 17 A 1.0001 1.0001 0 0 0 3.0449219 17.279297 A 1 1 0 0 0 3.0859375 17.380859 A 1.0001 1.0001 0 0 0 3.1699219 17.546875 A 1 1 0 0 0 3.2363281 17.632812 A 1.0001 1.0001 0 0 0 3.2929688 17.707031 L 7.2929688 21.707031 A 1 1 0 0 0 8.7070312 21.707031 A 1 1 0 0 0 8.7070312 20.292969 L 6.4140625 18 L 20 18 A 1 1 0 0 0 21 17 A 1 1 0 0 0 20 16 L 6.4140625 16 L 8.7070312 13.707031 A 1 1 0 0 0 8.7070312 12.292969 A 1 1 0 0 0 8 12 z "/>
</svg>
