<?xml version="1.0" encoding="UTF-8" standalone="no"?>
<svg xmlns="http://www.w3.org/2000/svg" xmlns:svg="http://www.w3.org/2000/svg" width="24" height="24" viewBox="0 0 24 24" fill="currentColor" tags="forward,direction,north" categories="arrows,navigation">
  <path d="M 12 4 A 1.0001 1.0001 0 0 0 11.794922 4.0234375 A 1 1 0 0 0 11.742188 4.0351562 A 1 1 0 0 0 11.617188 4.0761719 A 1 1 0 0 0 11.611328 4.078125 A 1.0001 1.0001 0 0 0 11.5 4.1347656 A 1 1 0 0 0 11.439453 4.1757812 A 1.0001 1.0001 0 0 0 11.384766 4.2128906 A 1 1 0 0 0 11.341797 4.25 A 1.0001 1.0001 0 0 0 11.292969 4.2929688 A 1 1 0 0 0 11.283203 4.3027344 L 4.2929688 11.292969 A 1 1 0 0 0 4.2929688 12.707031 A 1 1 0 0 0 5.7070312 12.707031 L 11 7.4140625 L 11 19 A 1 1 0 0 0 12 20 A 1 1 0 0 0 13 19 L 13 7.4140625 L 18.292969 12.707031 A 1 1 0 0 0 19.707031 12.707031 A 1 1 0 0 0 19.707031 11.292969 L 12.716797 4.3027344 A 1 1 0 0 0 12.658203 4.25 A 1.0001 1.0001 0 0 0 12.615234 4.2128906 A 1 1 0 0 0 12.560547 4.1757812 A 1.0001 1.0001 0 0 0 12.382812 4.0761719 A 1 1 0 0 0 12.257812 4.0351562 A 1.0001 1.0001 0 0 0 12.205078 4.0234375 A 1.0001 1.0001 0 0 0 12 4 z "/>
</svg>
