<?xml version="1.0" encoding="UTF-8" standalone="no"?>
<svg xmlns="http://www.w3.org/2000/svg" xmlns:svg="http://www.w3.org/2000/svg" width="24" height="24" viewBox="0 0 24 24" fill="currentColor" tags="bidirectional,two-way,2-way,swap,switch,transaction,reorder,move,&lt;-,-&gt;" categories="arrows,navigation">
  <path d="M 8 2 A 1 1 0 0 0 7.2929688 2.2929688 L 3.2929688 6.2929688 A 1.0001 1.0001 0 0 0 3.2363281 6.3671875 A 1 1 0 0 0 3.1699219 6.453125 A 1.0001 1.0001 0 0 0 3.0859375 6.6191406 A 1 1 0 0 0 3.0449219 6.7207031 A 1.0001 1.0001 0 0 0 3.0449219 7.2792969 A 1 1 0 0 0 3.0859375 7.3808594 A 1.0001 1.0001 0 0 0 3.1699219 7.546875 A 1 1 0 0 0 3.2363281 7.6328125 A 1.0001 1.0001 0 0 0 3.2929688 7.7070312 L 7.2929688 11.707031 A 1 1 0 0 0 8.7070312 11.707031 A 1 1 0 0 0 8.7070312 10.292969 L 6.4140625 8 L 20 8 A 1 1 0 0 0 21 7 A 1 1 0 0 0 20 6 L 6.4140625 6 L 8.7070312 3.7070312 A 1 1 0 0 0 8.7070312 2.2929688 A 1 1 0 0 0 8 2 z M 16 12 A 1 1 0 0 0 15.292969 12.292969 A 1 1 0 0 0 15.292969 13.707031 L 17.585938 16 L 4 16 A 1 1 0 0 0 3 17 A 1 1 0 0 0 4 18 L 17.585938 18 L 15.292969 20.292969 A 1 1 0 0 0 15.292969 21.707031 A 1 1 0 0 0 16.707031 21.707031 L 20.707031 17.707031 A 1.0001 1.0001 0 0 0 20.804688 17.591797 A 1.0001 1.0001 0 0 0 20.808594 17.587891 A 1 1 0 0 0 20.810547 17.583984 A 1.0001 1.0001 0 0 0 20.949219 17.3125 A 1.0001 1.0001 0 0 0 20.951172 17.308594 A 1 1 0 0 0 20.951172 17.306641 A 1.0001 1.0001 0 0 0 21 17 A 1 1 0 0 0 20.994141 16.902344 A 1.0001 1.0001 0 0 0 20.994141 16.896484 A 1 1 0 0 0 20.986328 16.845703 A 1.0001 1.0001 0 0 0 20.974609 16.779297 A 1 1 0 0 0 20.964844 16.738281 A 1.0001 1.0001 0 0 0 20.945312 16.677734 A 1 1 0 0 0 20.927734 16.626953 A 1 1 0 0 0 20.923828 16.617188 A 1.0001 1.0001 0 0 0 20.884766 16.535156 A 1 1 0 0 0 20.880859 16.529297 A 1.0001 1.0001 0 0 0 20.871094 16.513672 A 1 1 0 0 0 20.832031 16.445312 A 1.0001 1.0001 0 0 0 20.822266 16.431641 A 1 1 0 0 0 20.818359 16.425781 A 1.0001 1.0001 0 0 0 20.755859 16.345703 A 1.0001 1.0001 0 0 0 20.748047 16.335938 A 1 1 0 0 0 20.707031 16.292969 L 20.664062 16.251953 L 16.707031 12.292969 A 1 1 0 0 0 16 12 z "/>
</svg>
