<?xml version="1.0" encoding="UTF-8" standalone="no"?>
<svg xmlns="http://www.w3.org/2000/svg" xmlns:svg="http://www.w3.org/2000/svg" width="24" height="24" viewBox="0 0 24 24" fill="currentColor" tags="behind,direction,south,download,save,git,version control,pull,collapse,fold,vertical" categories="arrows,navigation,files,development">
  <path d="M 12 2 A 1 1 0 0 0 11 3 L 11 14.585938 L 6.7070312 10.292969 A 1 1 0 0 0 6 10 A 1 1 0 0 0 5.2929688 10.292969 A 1 1 0 0 0 5.2929688 11.707031 L 11.292969 17.707031 A 1.0001 1.0001 0 0 0 11.341797 17.75 A 1 1 0 0 0 11.384766 17.787109 A 1.0001 1.0001 0 0 0 11.439453 17.824219 A 1 1 0 0 0 11.492188 17.861328 A 1.0001 1.0001 0 0 0 11.5 17.865234 A 1 1 0 0 0 11.611328 17.921875 A 1.0001 1.0001 0 0 0 11.617188 17.923828 A 1 1 0 0 0 11.794922 17.976562 A 1.0001 1.0001 0 0 0 12.257812 17.964844 A 1 1 0 0 0 12.382812 17.923828 A 1.0001 1.0001 0 0 0 12.560547 17.824219 A 1 1 0 0 0 12.615234 17.787109 A 1.0001 1.0001 0 0 0 12.658203 17.75 A 1 1 0 0 0 12.716797 17.697266 L 18.707031 11.707031 A 1 1 0 0 0 18.707031 10.292969 A 1 1 0 0 0 17.292969 10.292969 L 13 14.585938 L 13 3 A 1 1 0 0 0 12 2 z M 5 20 A 1 1 0 0 0 4 21 A 1 1 0 0 0 5 22 L 19 22 A 1 1 0 0 0 20 21 A 1 1 0 0 0 19 20 L 5 20 z "/>
</svg>
