<svg xmlns="http://www.w3.org/2000/svg" xmlns:svg="http://www.w3.org/2000/svg" width="24" height="24" viewBox="0 0 24 24" fill="currentColor" tags="previous,back,direction,west,turn,corner" categories="arrows,gaming">
  <path d="M 11.154297 2.8828125 C 10.934146 2.8710264 10.707551 2.8935634 10.488281 2.953125 C 10.081919 3.0635078 9.7005053 3.2973813 9.4238281 3.6621094 L 2.6464844 10.439453 C 1.7929203 11.292973 1.7929203 12.707027 2.6464844 13.560547 L 9.4238281 20.337891 C 9.9992417 21.096063 11.031652 21.289759 11.783203 20.978516 C 12.53544 20.666987 13.130441 19.797532 13 18.853516 L 13 16 L 15 16 C 16.092725 16 17 15.092725 17 14 L 17 10 C 17 8.9072751 16.092725 8 15 8 L 13 8 L 13 5.1464844 C 13.130436 4.202473 12.535437 3.3330111 11.783203 3.0214844 C 11.588155 2.9407079 11.374448 2.8945986 11.154297 2.8828125 z M 11.017578 4.8691406 A 1.0001 1.0001 0 0 0 11 5.0605469 L 11 8 C 11 9.0927249 11.907275 10 13 10 L 15 10 L 15 14 L 13 14 C 11.907275 14 11 14.907275 11 16 L 11 18.939453 A 1.0001 1.0001 0 0 0 11.017578 19.130859 A 1.0001 1.0001 0 0 0 10.896484 18.982422 L 4.0605469 12.146484 C 3.9713259 12.057264 3.9713259 11.942732 4.0605469 11.853516 L 10.896484 5.0175781 A 1.0001 1.0001 0 0 0 11.017578 4.8691406 z M 20 8 A 1 1 0 0 0 19 9 L 19 15 A 1 1 0 0 0 20 16 A 1 1 0 0 0 21 15 L 21 9 A 1 1 0 0 0 20 8 z "/>
</svg>
