<?xml version="1.0" encoding="UTF-8" standalone="no"?>
<svg xmlns="http://www.w3.org/2000/svg" xmlns:svg="http://www.w3.org/2000/svg" width="24" height="24" viewBox="0 0 24 24" fill="currentColor" tags="forward,next,direction,east,-&gt;" categories="arrows,navigation">
  <path d="M 12 4 A 1 1 0 0 0 11.292969 4.2929688 A 1 1 0 0 0 11.292969 5.7070312 L 16.585938 11 L 5 11 A 1 1 0 0 0 4 12 A 1 1 0 0 0 5 13 L 16.585938 13 L 11.292969 18.292969 A 1 1 0 0 0 11.292969 19.707031 A 1 1 0 0 0 12.707031 19.707031 L 19.707031 12.707031 A 1.0001 1.0001 0 0 0 19.804688 12.591797 A 1.0001 1.0001 0 0 0 19.808594 12.587891 A 1 1 0 0 0 19.8125 12.580078 A 1.0001 1.0001 0 0 0 19.949219 12.3125 A 1.0001 1.0001 0 0 0 19.951172 12.308594 A 1 1 0 0 0 19.951172 12.306641 A 1.0001 1.0001 0 0 0 19.998047 12.011719 A 1 1 0 0 0 20 12 A 1 1 0 0 0 19.998047 11.962891 A 1.0001 1.0001 0 0 0 19.996094 11.919922 A 1 1 0 0 0 19.988281 11.857422 A 1.0001 1.0001 0 0 0 19.976562 11.791016 A 1.0001 1.0001 0 0 0 19.974609 11.777344 A 1 1 0 0 0 19.966797 11.753906 A 1.0001 1.0001 0 0 0 19.945312 11.679688 A 1.0001 1.0001 0 0 0 19.943359 11.669922 A 1 1 0 0 0 19.933594 11.644531 A 1.0001 1.0001 0 0 0 19.902344 11.572266 A 1.0001 1.0001 0 0 0 19.900391 11.566406 A 1 1 0 0 0 19.855469 11.482422 A 1.0001 1.0001 0 0 0 19.847656 11.46875 A 1 1 0 0 0 19.787109 11.382812 A 1.0001 1.0001 0 0 0 19.78125 11.376953 A 1 1 0 0 0 19.707031 11.292969 L 12.707031 4.2929688 A 1 1 0 0 0 12 4 z "/>
</svg>
