<?xml version="1.0" encoding="UTF-8" standalone="no"?>
<svg xmlns="http://www.w3.org/2000/svg" xmlns:svg="http://www.w3.org/2000/svg" width="24" height="24" viewBox="0 0 24 24" fill="currentColor" tags="previous,back,direction,west,expand,fold,horizontal,&lt;-|" categories="arrows,navigation">
  <path d="M 21 4 A 1 1 0 0 0 20 5 L 20 19 A 1 1 0 0 0 21 20 A 1 1 0 0 0 22 19 L 22 5 A 1 1 0 0 0 21 4 z M 9 5 A 1 1 0 0 0 8.2929688 5.2929688 L 2.2929688 11.292969 A 1.0001 1.0001 0 0 0 2.25 11.341797 A 1 1 0 0 0 2.2128906 11.384766 A 1.0001 1.0001 0 0 0 2.1757812 11.439453 A 1 1 0 0 0 2.1386719 11.492188 A 1.0001 1.0001 0 0 0 2.1347656 11.5 A 1 1 0 0 0 2.078125 11.611328 A 1.0001 1.0001 0 0 0 2.0761719 11.617188 A 1 1 0 0 0 2.0234375 11.794922 A 1.0001 1.0001 0 0 0 2.0351562 12.257812 A 1 1 0 0 0 2.078125 12.388672 A 1.0001 1.0001 0 0 0 2.1347656 12.5 A 1 1 0 0 0 2.1757812 12.560547 A 1.0001 1.0001 0 0 0 2.2128906 12.615234 A 1 1 0 0 0 2.25 12.658203 A 1.0001 1.0001 0 0 0 2.2929688 12.707031 A 1 1 0 0 0 2.3027344 12.716797 L 8.2929688 18.707031 A 1 1 0 0 0 9.7070312 18.707031 A 1 1 0 0 0 9.7070312 17.292969 L 5.4140625 13 L 17 13 A 1 1 0 0 0 18 12 A 1 1 0 0 0 17 11 L 5.4140625 11 L 9.7070312 6.7070312 A 1 1 0 0 0 9.7070312 5.2929688 A 1 1 0 0 0 9 5 z "/>
</svg>
