<?xml version="1.0" encoding="UTF-8" standalone="no"?>
<svg xmlns="http://www.w3.org/2000/svg" xmlns:svg="http://www.w3.org/2000/svg" width="24" height="24" viewBox="0 0 24 24" fill="currentColor" tags="backwards,reverse,direction,south" categories="arrows,navigation,gaming">
  <path d="M 9 5 A 1.0001 1.0001 0 0 0 8 6 L 8 11 L 5 11 A 1.0001 1.0001 0 0 0 4.2929688 12.707031 L 11.292969 19.707031 A 1.0001 1.0001 0 0 0 12.707031 19.707031 L 19.707031 12.707031 A 1.0001 1.0001 0 0 0 19 11 L 16 11 L 16 6 A 1.0001 1.0001 0 0 0 15 5 L 9 5 z M 10 7 L 14 7 L 14 12 A 1.0001 1.0001 0 0 0 15 13 L 16.585938 13 L 12 17.585938 L 7.4140625 13 L 9 13 A 1.0001 1.0001 0 0 0 10 12 L 10 7 z "/>
</svg>
