<?xml version="1.0" encoding="UTF-8" standalone="no"?>
<svg xmlns="http://www.w3.org/2000/svg" xmlns:svg="http://www.w3.org/2000/svg" width="24" height="24" viewBox="0 0 24 24" fill="currentColor" tags="backwards,reverse,direction,south,download,expand,fold,vertical" categories="arrows,navigation,files">
  <path d="M 5 2 A 1 1 0 0 0 4 3 A 1 1 0 0 0 5 4 L 19 4 A 1 1 0 0 0 20 3 A 1 1 0 0 0 19 2 L 5 2 z M 12 6 A 1 1 0 0 0 11 7 L 11 18.585938 L 6.7070312 14.292969 A 1 1 0 0 0 6 14 A 1 1 0 0 0 5.2929688 14.292969 A 1 1 0 0 0 5.2929688 15.707031 L 11.283203 21.697266 L 11.292969 21.707031 A 1.0001 1.0001 0 0 0 11.341797 21.75 A 1 1 0 0 0 11.384766 21.787109 A 1.0001 1.0001 0 0 0 11.439453 21.824219 A 1 1 0 0 0 11.492188 21.861328 A 1.0001 1.0001 0 0 0 11.5 21.865234 A 1 1 0 0 0 11.611328 21.921875 A 1.0001 1.0001 0 0 0 11.617188 21.923828 A 1 1 0 0 0 11.742188 21.964844 A 1 1 0 0 0 11.794922 21.976562 A 1.0001 1.0001 0 0 0 12 22 A 1.0001 1.0001 0 0 0 12.205078 21.976562 A 1.0001 1.0001 0 0 0 12.257812 21.964844 A 1 1 0 0 0 12.382812 21.923828 A 1.0001 1.0001 0 0 0 12.560547 21.824219 A 1 1 0 0 0 12.615234 21.787109 A 1.0001 1.0001 0 0 0 12.658203 21.75 A 1 1 0 0 0 12.716797 21.697266 L 18.707031 15.707031 A 1 1 0 0 0 18.707031 14.292969 A 1 1 0 0 0 17.292969 14.292969 L 13 18.585938 L 13 7 A 1 1 0 0 0 12 6 z "/>
</svg>
