<?xml version="1.0" encoding="UTF-8" standalone="no"?>
<svg xmlns="http://www.w3.org/2000/svg" xmlns:svg="http://www.w3.org/2000/svg" width="24" height="24" viewBox="0 0 24 24" fill="currentColor" tags="filter,sort,ascending,descending,increasing,decreasing,rising,falling,numerical" categories="text,layout,arrows">
  <path d="M 7 3 A 1.0001 1.0001 0 0 0 6.7949219 3.0234375 A 1 1 0 0 0 6.6113281 3.078125 A 1.0001 1.0001 0 0 0 6.5 3.1347656 A 1 1 0 0 0 6.4394531 3.1757812 A 1.0001 1.0001 0 0 0 6.3847656 3.2128906 A 1 1 0 0 0 6.3417969 3.25 A 1.0001 1.0001 0 0 0 6.2929688 3.2929688 A 1 1 0 0 0 6.2832031 3.3027344 L 2.2929688 7.2929688 A 1 1 0 0 0 2.2929688 8.7070312 A 1 1 0 0 0 3.7070312 8.7070312 L 6 6.4140625 L 6 20 A 1 1 0 0 0 7 21 A 1 1 0 0 0 8 20 L 8 6.4140625 L 10.292969 8.7070312 A 1 1 0 0 0 11.707031 8.7070312 A 1 1 0 0 0 11.707031 7.2929688 L 7.7167969 3.3027344 A 1 1 0 0 0 7.6582031 3.25 A 1.0001 1.0001 0 0 0 7.6152344 3.2128906 A 1 1 0 0 0 7.5605469 3.1757812 A 1.0001 1.0001 0 0 0 7.3828125 3.0761719 A 1 1 0 0 0 7.2578125 3.0351562 A 1.0001 1.0001 0 0 0 7 3 z M 17 3 C 15.355297 3 14 4.3552972 14 6 L 14 8 C 14 9.6447028 15.355297 11 17 11 C 18.644703 11 20 9.6447028 20 8 L 20 6 C 20 4.3552972 18.644703 3 17 3 z M 17 5 C 17.571297 5 18 5.4287028 18 6 L 18 8 C 18 8.5712972 17.571297 9 17 9 C 16.428703 9 16 8.5712972 16 8 L 16 6 C 16 5.4287028 16.428703 5 17 5 z M 15 13 A 1 1 0 0 0 14 14 A 1 1 0 0 0 15 15 L 16 15 L 16 19 L 15 19 A 1 1 0 0 0 14 20 A 1 1 0 0 0 15 21 L 17 21 L 19 21 A 1 1 0 0 0 20 20 A 1 1 0 0 0 19 19 L 18 19 L 18 14 A 1.0001 1.0001 0 0 0 17 13 L 15 13 z "/>
</svg>
