<?xml version="1.0" encoding="UTF-8" standalone="no"?>
<svg xmlns="http://www.w3.org/2000/svg" xmlns:svg="http://www.w3.org/2000/svg" width="24" height="24" viewBox="0 0 24 24" fill="currentColor" tags="direction,north-west,diagonal" categories="arrows,navigation">
  <path d="M 7 6 A 1 1 0 0 0 6.7109375 6.0449219 A 1.0001 1.0001 0 0 0 6.6347656 6.078125 A 1 1 0 0 0 6.453125 6.1699219 A 1.0001 1.0001 0 0 0 6.3671875 6.2363281 A 1 1 0 0 0 6.2929688 6.2929688 A 1 1 0 0 0 6.2460938 6.3554688 A 1.0001 1.0001 0 0 0 6.1542969 6.484375 A 1 1 0 0 0 6.0859375 6.6191406 A 1.0001 1.0001 0 0 0 6.0371094 6.7675781 A 1 1 0 0 0 6.0117188 6.9257812 A 1.0001 1.0001 0 0 0 6 7 L 6 17 A 1 1 0 0 0 7 18 A 1 1 0 0 0 8 17 L 8 9.4140625 L 16.292969 17.707031 A 1 1 0 0 0 17.707031 17.707031 A 1 1 0 0 0 17.707031 16.292969 L 9.4140625 8 L 17 8 A 1 1 0 0 0 18 7 A 1 1 0 0 0 17 6 L 7 6 z "/>
</svg>
