<?xml version="1.0" encoding="UTF-8" standalone="no"?>
<svg xmlns="http://www.w3.org/2000/svg" xmlns:svg="http://www.w3.org/2000/svg" width="24" height="24" viewBox="0 0 24 24" fill="currentColor" tags="filter,sort,ascending,descending,increasing,decreasing,rising,falling,alphabetical" categories="text,layout,arrows">
  <path d="M 7 3 A 1 1 0 0 0 6 4 L 6 17.585938 L 3.7070312 15.292969 A 1 1 0 0 0 3 15 A 1 1 0 0 0 2.2929688 15.292969 A 1 1 0 0 0 2.2929688 16.707031 L 6.2929688 20.707031 A 1.0001 1.0001 0 0 0 6.3671875 20.763672 A 1 1 0 0 0 6.453125 20.830078 A 1.0001 1.0001 0 0 0 6.6191406 20.914062 A 1 1 0 0 0 6.7207031 20.955078 A 1.0001 1.0001 0 0 0 7.2792969 20.955078 A 1 1 0 0 0 7.3808594 20.914062 A 1.0001 1.0001 0 0 0 7.546875 20.830078 A 1 1 0 0 0 7.6328125 20.763672 A 1.0001 1.0001 0 0 0 7.7070312 20.707031 L 11.707031 16.707031 A 1 1 0 0 0 11.707031 15.292969 A 1 1 0 0 0 10.292969 15.292969 L 8 17.585938 L 8 4 A 1 1 0 0 0 7 3 z M 17.5 3 C 16.65278 3 15.792118 3.2770151 15.117188 3.8769531 C 14.442256 4.4768911 14 5.4166691 14 6.5 L 14 10 A 1 1 0 0 0 15 11 A 1 1 0 0 0 16 10 L 16 9 L 19 9 L 19 10 A 1 1 0 0 0 20 11 A 1 1 0 0 0 21 10 L 21 6.5 C 21 5.4166691 20.557744 4.4768911 19.882812 3.8769531 C 19.207882 3.2770151 18.34722 3 17.5 3 z M 17.5 5 C 17.902777 5 18.292121 5.1396536 18.554688 5.3730469 C 18.817255 5.6064401 19 5.9166683 19 6.5 L 19 7 L 16 7 L 16 6.5 C 16 5.9166683 16.182746 5.6064401 16.445312 5.3730469 C 16.70788 5.1396536 17.097223 5 17.5 5 z M 15 13 A 1 1 0 0 0 14 14 A 1 1 0 0 0 15 15 L 17.865234 15 L 14.232422 19.359375 A 1.0001 1.0001 0 0 0 15 21 L 20 21 A 1 1 0 0 0 21 20 A 1 1 0 0 0 20 19 L 17.134766 19 L 20.767578 14.640625 A 1.0001 1.0001 0 0 0 20 13 L 15 13 z "/>
</svg>
