<svg xmlns="http://www.w3.org/2000/svg" xmlns:svg="http://www.w3.org/2000/svg" width="24" height="24" viewBox="0 0 24 24" fill="currentColor" tags="direction,south,waypoint,location,step,into" categories="arrows">
  <path d="M 12 1 A 1 1 0 0 0 11 2 L 11 13.585938 L 5.7070312 8.2929688 A 1 1 0 0 0 5 8 A 1 1 0 0 0 4.2929688 8.2929688 A 1 1 0 0 0 4.2929688 9.7070312 L 11.292969 16.707031 A 1.0001 1.0001 0 0 0 11.341797 16.75 A 1 1 0 0 0 11.384766 16.787109 A 1.0001 1.0001 0 0 0 11.439453 16.824219 A 1 1 0 0 0 11.492188 16.861328 A 1.0001 1.0001 0 0 0 11.5 16.865234 A 1 1 0 0 0 11.611328 16.921875 A 1.0001 1.0001 0 0 0 11.617188 16.923828 A 1 1 0 0 0 11.794922 16.976562 A 1.0001 1.0001 0 0 0 12.257812 16.964844 A 1 1 0 0 0 12.382812 16.923828 A 1.0001 1.0001 0 0 0 12.560547 16.824219 A 1 1 0 0 0 12.615234 16.787109 A 1.0001 1.0001 0 0 0 12.658203 16.75 A 1 1 0 0 0 12.716797 16.697266 L 19.707031 9.7070312 A 1 1 0 0 0 19.707031 8.2929688 A 1 1 0 0 0 18.292969 8.2929688 L 13 13.585938 L 13 2 A 1 1 0 0 0 12 1 z M 12 19 C 10.907275 19 10 19.907275 10 21 C 10 22.092725 10.907275 23 12 23 C 13.092725 23 14 22.092725 14 21 C 14 19.907275 13.092725 19 12 19 z "/>
</svg>
