<?xml version="1.0" encoding="UTF-8" standalone="no"?>
<svg xmlns="http://www.w3.org/2000/svg" xmlns:svg="http://www.w3.org/2000/svg" width="24" height="24" viewBox="0 0 24 24" fill="currentColor" tags="direction,south-west,diagonal" categories="arrows,navigation">
  
  <path d="M 7 6 A 1 1 0 0 0 6 7 L 6 17 A 1.0001 1.0001 0 0 0 6.0117188 17.074219 A 1 1 0 0 0 6.0371094 17.232422 A 1.0001 1.0001 0 0 0 6.0859375 17.380859 A 1 1 0 0 0 6.1542969 17.515625 A 1.0001 1.0001 0 0 0 6.2460938 17.644531 A 1 1 0 0 0 6.2929688 17.707031 A 1 1 0 0 0 6.3554688 17.753906 A 1.0001 1.0001 0 0 0 6.484375 17.845703 A 1 1 0 0 0 6.6191406 17.914062 A 1.0001 1.0001 0 0 0 6.7675781 17.962891 A 1 1 0 0 0 6.9257812 17.988281 A 1.0001 1.0001 0 0 0 7 18 L 17 18 A 1 1 0 0 0 18 17 A 1 1 0 0 0 17 16 L 9.4140625 16 L 17.707031 7.7070312 A 1 1 0 0 0 17.707031 6.2929688 A 1 1 0 0 0 16.292969 6.2929688 L 8 14.585938 L 8 7 A 1 1 0 0 0 7 6 z "/>
</svg>
