<?xml version="1.0" encoding="UTF-8" standalone="no"?>
<svg xmlns="http://www.w3.org/2000/svg" xmlns:svg="http://www.w3.org/2000/svg" width="24" height="24" viewBox="0 0 24 24" fill="currentColor" tags="forward,direction,north,upload,git,version control,push,expand,fold,vertical" categories="arrows,navigation,files,development">
  <path d="M 12 2 A 1.0001 1.0001 0 0 0 11.794922 2.0234375 A 1 1 0 0 0 11.611328 2.078125 A 1.0001 1.0001 0 0 0 11.5 2.1347656 A 1 1 0 0 0 11.439453 2.1757812 A 1.0001 1.0001 0 0 0 11.384766 2.2128906 A 1 1 0 0 0 11.341797 2.25 A 1.0001 1.0001 0 0 0 11.292969 2.2929688 A 1 1 0 0 0 11.283203 2.3027344 L 5.2929688 8.2929688 A 1 1 0 0 0 5.2929688 9.7070312 A 1 1 0 0 0 6.7070312 9.7070312 L 11 5.4140625 L 11 17 A 1 1 0 0 0 12 18 A 1 1 0 0 0 13 17 L 13 5.4140625 L 17.292969 9.7070312 A 1 1 0 0 0 18.707031 9.7070312 A 1 1 0 0 0 18.707031 8.2929688 L 12.716797 2.3027344 A 1 1 0 0 0 12.658203 2.25 A 1.0001 1.0001 0 0 0 12.615234 2.2128906 A 1 1 0 0 0 12.560547 2.1757812 A 1.0001 1.0001 0 0 0 12.382812 2.0761719 A 1 1 0 0 0 12.257812 2.0351562 A 1.0001 1.0001 0 0 0 12 2 z M 5 20 A 1 1 0 0 0 4 21 A 1 1 0 0 0 5 22 L 19 22 A 1 1 0 0 0 20 21 A 1 1 0 0 0 19 20 L 5 20 z "/>
</svg>
