<?xml version="1.0" encoding="UTF-8" standalone="no"?>
<svg xmlns="http://www.w3.org/2000/svg" xmlns:svg="http://www.w3.org/2000/svg" width="24" height="24" viewBox="0 0 24 24" fill="currentColor" tags="filter,sort,ascending,descending,increasing,decreasing,rising,falling" categories="text,layout,arrows">
  <path d="M 7 3 A 1 1 0 0 0 6 4 L 6 17.585938 L 3.7070312 15.292969 A 1 1 0 0 0 2.2929688 15.292969 A 1 1 0 0 0 2.2929688 16.707031 L 6.2929688 20.707031 A 1.0001 1.0001 0 0 0 6.3417969 20.75 A 1 1 0 0 0 6.3847656 20.787109 A 1.0001 1.0001 0 0 0 6.4394531 20.824219 A 1 1 0 0 0 6.4921875 20.861328 A 1.0001 1.0001 0 0 0 6.5 20.865234 A 1 1 0 0 0 6.6113281 20.921875 A 1.0001 1.0001 0 0 0 6.6171875 20.923828 A 1 1 0 0 0 6.7949219 20.976562 A 1.0001 1.0001 0 0 0 7.2578125 20.964844 A 1 1 0 0 0 7.3828125 20.923828 A 1.0001 1.0001 0 0 0 7.5605469 20.824219 A 1 1 0 0 0 7.6152344 20.787109 A 1.0001 1.0001 0 0 0 7.6582031 20.75 A 1 1 0 0 0 7.7167969 20.697266 L 11.707031 16.707031 A 1 1 0 0 0 11.707031 15.292969 A 1 1 0 0 0 11 15 A 1 1 0 0 0 10.292969 15.292969 L 8 17.585938 L 8 4 A 1 1 0 0 0 7 3 z M 11 3 A 1 1 0 0 0 10 4 A 1 1 0 0 0 11 5 L 15 5 A 1 1 0 0 0 16 4 A 1 1 0 0 0 15 3 L 11 3 z M 11 7 A 1 1 0 0 0 10 8 A 1 1 0 0 0 11 9 L 18 9 A 1 1 0 0 0 19 8 A 1 1 0 0 0 18 7 L 11 7 z M 11 11 A 1 1 0 0 0 10 12 A 1 1 0 0 0 11 13 L 21 13 A 1 1 0 0 0 22 12 A 1 1 0 0 0 21 11 L 11 11 z "/>
</svg>
