<?xml version="1.0" encoding="UTF-8" standalone="no"?>
<svg xmlns="http://www.w3.org/2000/svg" xmlns:svg="http://www.w3.org/2000/svg" width="24" height="24" viewBox="0 0 24 24" fill="currentColor" tags="filter,sort,ascending,numerical" categories="text,layout,arrows">
  <path d="M 7 3 A 1 1 0 0 0 6 4 L 6 17.585938 L 3.7070312 15.292969 A 1 1 0 0 0 3 15 A 1 1 0 0 0 2.2929688 15.292969 A 1 1 0 0 0 2.2929688 16.707031 L 6.2929688 20.707031 A 1.0001 1.0001 0 0 0 6.3671875 20.763672 A 1 1 0 0 0 6.453125 20.830078 A 1.0001 1.0001 0 0 0 6.6191406 20.914062 A 1 1 0 0 0 6.7207031 20.955078 A 1.0001 1.0001 0 0 0 7.2792969 20.955078 A 1 1 0 0 0 7.3808594 20.914062 A 1.0001 1.0001 0 0 0 7.546875 20.830078 A 1 1 0 0 0 7.6328125 20.763672 A 1.0001 1.0001 0 0 0 7.7070312 20.707031 L 11.707031 16.707031 A 1 1 0 0 0 11.707031 15.292969 A 1 1 0 0 0 10.292969 15.292969 L 8 17.585938 L 8 4 A 1 1 0 0 0 7 3 z M 17 3 C 15.355301 3 14 4.3553005 14 6 L 14 8 C 14 9.6446995 15.355301 11 17 11 C 18.644699 11 20 9.6446995 20 8 L 20 6 C 20 4.3553005 18.644699 3 17 3 z M 17 5 C 17.571296 5 18 5.4287039 18 6 L 18 8 C 18 8.5712961 17.571296 9 17 9 C 16.428704 9 16 8.5712961 16 8 L 16 6 C 16 5.4287039 16.428704 5 17 5 z M 15 13 A 1 1 0 0 0 14 14 A 1 1 0 0 0 15 15 L 16 15 L 16 19 L 15 19 A 1 1 0 0 0 14 20 A 1 1 0 0 0 15 21 L 17 21 L 19 21 A 1 1 0 0 0 20 20 A 1 1 0 0 0 19 19 L 18 19 L 18 14 A 1.0001 1.0001 0 0 0 17 13 L 15 13 z "/>
</svg>
