<?xml version="1.0" encoding="UTF-8" standalone="no"?>
<svg xmlns="http://www.w3.org/2000/svg" xmlns:svg="http://www.w3.org/2000/svg" width="24" height="24" viewBox="0 0 24 24" fill="currentColor" tags="direction,north,step,out" categories="arrows,navigation">
  <path d="M 12 1 A 1.0001 1.0001 0 0 0 11.794922 1.0234375 A 1 1 0 0 0 11.611328 1.078125 A 1.0001 1.0001 0 0 0 11.5 1.1347656 A 1 1 0 0 0 11.439453 1.1757812 A 1.0001 1.0001 0 0 0 11.384766 1.2128906 A 1 1 0 0 0 11.341797 1.25 A 1.0001 1.0001 0 0 0 11.292969 1.2929688 A 1 1 0 0 0 11.283203 1.3027344 L 4.2929688 8.2929688 A 1 1 0 0 0 4.2929688 9.7070312 A 1 1 0 0 0 5.7070312 9.7070312 L 11 4.4140625 L 11 16 A 1 1 0 0 0 12 17 A 1 1 0 0 0 13 16 L 13 4.4140625 L 18.292969 9.7070312 A 1 1 0 0 0 19.707031 9.7070312 A 1 1 0 0 0 19.707031 8.2929688 L 12.716797 1.3027344 A 1 1 0 0 0 12.658203 1.25 A 1.0001 1.0001 0 0 0 12.615234 1.2128906 A 1 1 0 0 0 12.560547 1.1757812 A 1.0001 1.0001 0 0 0 12.382812 1.0761719 A 1 1 0 0 0 12.257812 1.0351562 A 1.0001 1.0001 0 0 0 12 1 z M 12 19 C 10.907275 19 10 19.907275 10 21 C 10 22.092725 10.907275 23 12 23 C 13.092725 23 14 22.092725 14 21 C 14 19.907275 13.092725 19 12 19 z "/>
</svg>
