<?xml version="1.0" encoding="UTF-8" standalone="no"?>
<svg xmlns="http://www.w3.org/2000/svg" xmlns:svg="http://www.w3.org/2000/svg" width="24" height="24" viewBox="0 0 24 24" fill="currentColor" tags="filter,sort,descending,numerical" categories="text,layout,arrows">
  <path d="M 7 3 A 1.0001 1.0001 0 0 0 6.7207031 3.0449219 A 1 1 0 0 0 6.6191406 3.0859375 A 1.0001 1.0001 0 0 0 6.453125 3.1699219 A 1 1 0 0 0 6.3671875 3.2363281 A 1.0001 1.0001 0 0 0 6.2929688 3.2929688 L 2.2929688 7.2929688 A 1 1 0 0 0 2.2929688 8.7070312 A 1 1 0 0 0 3.7070312 8.7070312 L 6 6.4140625 L 6 20 A 1 1 0 0 0 7 21 A 1 1 0 0 0 8 20 L 8 6.4140625 L 10.292969 8.7070312 A 1 1 0 0 0 11.707031 8.7070312 A 1 1 0 0 0 11.707031 7.2929688 L 7.7480469 3.3359375 A 1 1 0 0 0 7.7070312 3.2929688 A 1.0001 1.0001 0 0 0 7.6992188 3.2871094 A 1 1 0 0 0 7.5097656 3.1425781 A 1.0001 1.0001 0 0 0 7.4902344 3.1308594 A 1 1 0 0 0 7 3 z M 15 3 A 1 1 0 0 0 14 4 A 1 1 0 0 0 15 5 L 16 5 L 16 9 L 15 9 A 1 1 0 0 0 14 10 A 1 1 0 0 0 15 11 L 19 11 A 1 1 0 0 0 20 10 A 1 1 0 0 0 19 9 L 18 9 L 18 4 A 1.0001 1.0001 0 0 0 17 3 L 15 3 z M 17 13 C 15.355301 13 14 14.355301 14 16 L 14 18 C 14 19.644699 15.355301 21 17 21 C 18.644699 21 20 19.644699 20 18 L 20 16 C 20 14.355301 18.644699 13 17 13 z M 17 15 C 17.571296 15 18 15.428704 18 16 L 18 18 C 18 18.571296 17.571296 19 17 19 C 16.428704 19 16 18.571296 16 18 L 16 16 C 16 15.428704 16.428704 15 17 15 z "/>
</svg>
