<svg xmlns="http://www.w3.org/2000/svg" xmlns:svg="http://www.w3.org/2000/svg" width="24" height="24" viewBox="0 0 24 24" fill="currentColor" tags="previous,back,direction,west,&lt;-" categories="arrows">
  <path d="M 12 4 A 1 1 0 0 0 11.292969 4.2929688 L 4.3027344 11.283203 L 4.2929688 11.292969 A 1.0001 1.0001 0 0 0 4.25 11.341797 A 1 1 0 0 0 4.2128906 11.384766 A 1.0001 1.0001 0 0 0 4.1757812 11.439453 A 1 1 0 0 0 4.1386719 11.492188 A 1.0001 1.0001 0 0 0 4.1347656 11.5 A 1 1 0 0 0 4.078125 11.611328 A 1.0001 1.0001 0 0 0 4.0761719 11.617188 A 1 1 0 0 0 4.0351562 11.742188 A 1 1 0 0 0 4.0234375 11.794922 A 1.0001 1.0001 0 0 0 4 12 A 1.0001 1.0001 0 0 0 4.0234375 12.205078 A 1.0001 1.0001 0 0 0 4.0351562 12.257812 A 1 1 0 0 0 4.0761719 12.382812 A 1 1 0 0 0 4.078125 12.388672 A 1.0001 1.0001 0 0 0 4.1347656 12.5 A 1 1 0 0 0 4.1757812 12.560547 A 1.0001 1.0001 0 0 0 4.2128906 12.615234 A 1 1 0 0 0 4.25 12.658203 A 1.0001 1.0001 0 0 0 4.2929688 12.707031 A 1 1 0 0 0 4.3027344 12.716797 L 11.292969 19.707031 A 1 1 0 0 0 12.707031 19.707031 A 1 1 0 0 0 12.707031 18.292969 L 7.4140625 13 L 19 13 A 1 1 0 0 0 20 12 A 1 1 0 0 0 19 11 L 7.4140625 11 L 12.707031 5.7070312 A 1 1 0 0 0 12.707031 4.2929688 A 1 1 0 0 0 12 4 z "/>
</svg>
