<?xml version="1.0" encoding="UTF-8" standalone="no"?>
<svg xmlns="http://www.w3.org/2000/svg" xmlns:svg="http://www.w3.org/2000/svg" width="24" height="24" viewBox="0 0 24 24" fill="currentColor" tags="forward,direction,north,upload,git,version control,push,expand,fold,vertical" categories="arrows,navigation,files,development">
  
  <path d="M 12 2 A 1 1 0 0 0 11.925781 2.0117188 A 1.0001 1.0001 0 0 0 11.767578 2.0371094 A 1 1 0 0 0 11.619141 2.0859375 A 1.0001 1.0001 0 0 0 11.484375 2.1542969 A 1 1 0 0 0 11.355469 2.2460938 A 1.0001 1.0001 0 0 0 11.292969 2.2929688 L 5.2929688 8.2929688 A 1 1 0 0 0 5.2929688 9.7070312 A 1 1 0 0 0 6.7070312 9.7070312 L 11 5.4140625 L 11 17 A 1 1 0 0 0 12 18 A 1 1 0 0 0 13 17 L 13 5.4140625 L 17.292969 9.7070312 A 1 1 0 0 0 18.707031 9.7070312 A 1 1 0 0 0 18.707031 8.2929688 L 12.707031 2.2929688 A 1 1 0 0 0 12.453125 2.109375 A 1.0001 1.0001 0 0 0 12.449219 2.1074219 A 1 1 0 0 0 12.169922 2.015625 A 1.0001 1.0001 0 0 0 12.144531 2.0117188 A 1 1 0 0 0 12 2 z M 5 20 A 1 1 0 0 0 4 21 A 1 1 0 0 0 5 22 L 19 22 A 1 1 0 0 0 20 21 A 1 1 0 0 0 19 20 L 5 20 z "/>
</svg>
