<svg xmlns="http://www.w3.org/2000/svg" xmlns:svg="http://www.w3.org/2000/svg" width="24" height="24" viewBox="0 0 24 24" fill="currentColor" tags="forward,direction,north,upload,collapse,fold,vertical" categories="arrows,files">
  <path d="M 5 2 A 1 1 0 0 0 4 3 A 1 1 0 0 0 5 4 L 19 4 A 1 1 0 0 0 20 3 A 1 1 0 0 0 19 2 L 5 2 z M 12 6 A 1.0001 1.0001 0 0 0 11.794922 6.0234375 A 1 1 0 0 0 11.742188 6.0351562 A 1 1 0 0 0 11.617188 6.0761719 A 1 1 0 0 0 11.611328 6.078125 A 1.0001 1.0001 0 0 0 11.5 6.1347656 A 1 1 0 0 0 11.439453 6.1757812 A 1.0001 1.0001 0 0 0 11.384766 6.2128906 A 1 1 0 0 0 11.341797 6.25 A 1.0001 1.0001 0 0 0 11.292969 6.2929688 A 1 1 0 0 0 11.283203 6.3027344 L 5.2929688 12.292969 A 1 1 0 0 0 5.2929688 13.707031 A 1 1 0 0 0 6.7070312 13.707031 L 11 9.4140625 L 11 21 A 1 1 0 0 0 12 22 A 1 1 0 0 0 13 21 L 13 9.4140625 L 17.292969 13.707031 A 1 1 0 0 0 18.707031 13.707031 A 1 1 0 0 0 18.707031 12.292969 L 12.716797 6.3027344 A 1 1 0 0 0 12.658203 6.25 A 1.0001 1.0001 0 0 0 12.615234 6.2128906 A 1 1 0 0 0 12.560547 6.1757812 A 1.0001 1.0001 0 0 0 12.382812 6.0761719 A 1 1 0 0 0 12.257812 6.0351562 A 1.0001 1.0001 0 0 0 12.205078 6.0234375 A 1.0001 1.0001 0 0 0 12 6 z "/>
</svg>
