<svg xmlns="http://www.w3.org/2000/svg" xmlns:svg="http://www.w3.org/2000/svg" width="24" height="24" viewBox="0 0 24 24" fill="currentColor" tags="filter,sort,ascending,descending,increasing,decreasing,rising,falling" categories="text,layout,arrows">
  <path d="M 7 3 A 1.0001 1.0001 0 0 0 6.7949219 3.0234375 A 1 1 0 0 0 6.6113281 3.078125 A 1.0001 1.0001 0 0 0 6.5 3.1347656 A 1 1 0 0 0 6.4394531 3.1757812 A 1.0001 1.0001 0 0 0 6.3847656 3.2128906 A 1 1 0 0 0 6.3417969 3.25 A 1.0001 1.0001 0 0 0 6.2929688 3.2929688 A 1 1 0 0 0 6.2832031 3.3027344 L 2.2929688 7.2929688 A 1 1 0 0 0 2.2929688 8.7070312 A 1 1 0 0 0 3.7070312 8.7070312 L 6 6.4140625 L 6 20 A 1 1 0 0 0 7 21 A 1 1 0 0 0 8 20 L 8 6.4140625 L 10.292969 8.7070312 A 1 1 0 0 0 11.707031 8.7070312 A 1 1 0 0 0 11.707031 7.2929688 L 7.7167969 3.3027344 A 1 1 0 0 0 7.6582031 3.25 A 1.0001 1.0001 0 0 0 7.6152344 3.2128906 A 1 1 0 0 0 7.5605469 3.1757812 A 1.0001 1.0001 0 0 0 7.3828125 3.0761719 A 1 1 0 0 0 7.2578125 3.0351562 A 1.0001 1.0001 0 0 0 7 3 z M 11 11 A 1 1 0 0 0 10 12 A 1 1 0 0 0 11 13 L 21 13 A 1 1 0 0 0 22 12 A 1 1 0 0 0 21 11 L 11 11 z M 11 15 A 1 1 0 0 0 10 16 A 1 1 0 0 0 11 17 L 18 17 A 1 1 0 0 0 19 16 A 1 1 0 0 0 18 15 L 11 15 z M 11 19 A 1 1 0 0 0 10 20 A 1 1 0 0 0 11 21 L 15 21 A 1 1 0 0 0 16 20 A 1 1 0 0 0 15 19 L 11 19 z "/>
</svg>
