<?xml version="1.0" encoding="UTF-8" standalone="no"?>
<svg xmlns="http://www.w3.org/2000/svg" xmlns:svg="http://www.w3.org/2000/svg" width="24" height="24" viewBox="0 0 24 24" fill="currentColor" tags="next,forward,direction,east,sign,turn,button,-&gt;" categories="arrows,navigation,shapes,gaming">
  <path d="M 12 1 C 5.9367246 1 1 5.9367246 1 12 C 1 18.063276 5.9367246 23 12 23 C 18.063276 23 23 18.063276 23 12 C 23 5.9367246 18.063276 1 12 1 z M 12 3 C 16.982397 3 21 7.0176026 21 12 C 21 16.982397 16.982397 21 12 21 C 7.0176026 21 3 16.982397 3 12 C 3 7.0176026 7.0176026 3 12 3 z M 12 7 A 1 1 0 0 0 11.292969 7.2929688 A 1 1 0 0 0 11.292969 8.7070312 L 13.585938 11 L 8 11 A 1 1 0 0 0 7 12 A 1 1 0 0 0 8 13 L 13.585938 13 L 11.292969 15.292969 A 1 1 0 0 0 11.292969 16.707031 A 1 1 0 0 0 12.707031 16.707031 L 16.707031 12.707031 A 1.0001 1.0001 0 0 0 16.859375 12.507812 A 1.0001 1.0001 0 0 0 16.865234 12.5 A 1 1 0 0 0 16.869141 12.490234 A 1.0001 1.0001 0 0 0 16.960938 12.271484 A 1 1 0 0 0 16.96875 12.242188 A 1.0001 1.0001 0 0 0 17 12 A 1 1 0 0 0 16.994141 11.902344 A 1.0001 1.0001 0 0 0 16.982422 11.816406 A 1 1 0 0 0 16.980469 11.804688 A 1.0001 1.0001 0 0 0 16.960938 11.726562 A 1.0001 1.0001 0 0 0 16.931641 11.640625 A 1.0001 1.0001 0 0 0 16.931641 11.638672 A 1.0001 1.0001 0 0 0 16.90625 11.582031 A 1.0001 1.0001 0 0 0 16.894531 11.554688 A 1 1 0 0 0 16.880859 11.529297 A 1.0001 1.0001 0 0 0 16.876953 11.521484 A 1 1 0 0 0 16.835938 11.453125 A 1 1 0 0 0 16.832031 11.445312 A 1.0001 1.0001 0 0 0 16.824219 11.435547 A 1 1 0 0 0 16.78125 11.376953 A 1 1 0 0 0 16.773438 11.365234 A 1.0001 1.0001 0 0 0 16.738281 11.326172 A 1 1 0 0 0 16.707031 11.292969 L 16.673828 11.261719 L 12.707031 7.2929688 A 1 1 0 0 0 12 7 z "/>
</svg>
