<?xml version="1.0" encoding="UTF-8" standalone="no"?>
<svg xmlns="http://www.w3.org/2000/svg" xmlns:svg="http://www.w3.org/2000/svg" width="24" height="24" viewBox="0 0 24 24" fill="currentColor" tags="direction,north-east,diagonal" categories="arrows,navigation">
  
  <path d="M 7 6 A 1 1 0 0 0 6 7 A 1 1 0 0 0 7 8 L 14.585938 8 L 6.2929688 16.292969 A 1 1 0 0 0 6.2929688 17.707031 A 1 1 0 0 0 7.7070312 17.707031 L 16 9.4140625 L 16 17 A 1 1 0 0 0 17 18 A 1 1 0 0 0 18 17 L 18 7 A 1.0001 1.0001 0 0 0 17.998047 6.9882812 A 1 1 0 0 0 17.951172 6.6933594 A 1 1 0 0 0 17.951172 6.6914062 A 1.0001 1.0001 0 0 0 17.949219 6.6875 A 1 1 0 0 0 17.8125 6.4199219 A 1 1 0 0 0 17.808594 6.4121094 A 1.0001 1.0001 0 0 0 17.804688 6.4082031 A 1 1 0 0 0 17.707031 6.2929688 A 1 1 0 0 0 17.644531 6.2460938 A 1.0001 1.0001 0 0 0 17.515625 6.1542969 A 1 1 0 0 0 17.380859 6.0859375 A 1.0001 1.0001 0 0 0 17.232422 6.0371094 A 1 1 0 0 0 17.074219 6.0117188 A 1.0001 1.0001 0 0 0 17 6 L 7 6 z "/>
</svg>
