<?xml version="1.0" encoding="UTF-8" standalone="no"?>
<svg xmlns="http://www.w3.org/2000/svg" xmlns:svg="http://www.w3.org/2000/svg" width="24" height="24" viewBox="0 0 24 24" fill="currentColor" tags="filter,sort,ascending,descending,increasing,decreasing,rising,falling,alphabetical,reverse" categories="text,layout,arrows">
  <path d="M 7 3 A 1.0001 1.0001 0 0 0 6.7949219 3.0234375 A 1 1 0 0 0 6.6113281 3.078125 A 1.0001 1.0001 0 0 0 6.5 3.1347656 A 1 1 0 0 0 6.4394531 3.1757812 A 1.0001 1.0001 0 0 0 6.3847656 3.2128906 A 1 1 0 0 0 6.3417969 3.25 A 1.0001 1.0001 0 0 0 6.2929688 3.2929688 A 1 1 0 0 0 6.2832031 3.3027344 L 2.2929688 7.2929688 A 1 1 0 0 0 2.2929688 8.7070312 A 1 1 0 0 0 3.7070312 8.7070312 L 6 6.4140625 L 6 20 A 1 1 0 0 0 7 21 A 1 1 0 0 0 8 20 L 8 6.4140625 L 10.292969 8.7070312 A 1 1 0 0 0 11.707031 8.7070312 A 1 1 0 0 0 11.707031 7.2929688 L 7.7167969 3.3027344 A 1 1 0 0 0 7.6582031 3.25 A 1.0001 1.0001 0 0 0 7.6152344 3.2128906 A 1 1 0 0 0 7.5605469 3.1757812 A 1.0001 1.0001 0 0 0 7.3828125 3.0761719 A 1 1 0 0 0 7.2578125 3.0351562 A 1.0001 1.0001 0 0 0 7 3 z M 15 3 A 1 1 0 0 0 14 4 A 1 1 0 0 0 15 5 L 17.865234 5 L 14.232422 9.359375 A 1.0001 1.0001 0 0 0 15 11 L 20 11 A 1 1 0 0 0 21 10 A 1 1 0 0 0 20 9 L 17.134766 9 L 20.767578 4.640625 A 1.0001 1.0001 0 0 0 20 3 L 15 3 z M 17.5 13 C 16.652778 13 15.792119 13.277014 15.117188 13.876953 C 14.442255 14.476892 14 15.416667 14 16.5 L 14 18 L 14 20 A 1 1 0 0 0 15 21 A 1 1 0 0 0 16 20 L 16 19 L 19 19 L 19 20 A 1 1 0 0 0 20 21 A 1 1 0 0 0 21 20 L 21 18 L 21 16.5 C 21 15.416667 20.557744 14.476892 19.882812 13.876953 C 19.207881 13.277014 18.347222 13 17.5 13 z M 17.5 15 C 17.902778 15 18.292119 15.139653 18.554688 15.373047 C 18.817256 15.606441 19 15.916667 19 16.5 L 19 17 L 16 17 L 16 16.5 C 16 15.916667 16.182744 15.606441 16.445312 15.373047 C 16.707881 15.139653 17.097222 15 17.5 15 z "/>
</svg>
