<?xml version="1.0" encoding="UTF-8" standalone="no"?>
<svg xmlns="http://www.w3.org/2000/svg" xmlns:svg="http://www.w3.org/2000/svg" width="24" height="24" viewBox="0 0 24 24" fill="currentColor" tags="forward,direction,north,sign,button" categories="arrows,navigation,shapes,gaming">
  <path d="M 12 1 C 5.9367246 1 1 5.9367246 1 12 C 1 18.063276 5.9367246 23 12 23 C 18.063276 23 23 18.063276 23 12 C 23 5.9367246 18.063276 1 12 1 z M 12 3 C 16.982397 3 21 7.0176026 21 12 C 21 16.982397 16.982397 21 12 21 C 7.0176026 21 3 16.982397 3 12 C 3 7.0176026 7.0176026 3 12 3 z M 12 7 A 1 1 0 0 0 11.5 7.1347656 A 1.0001 1.0001 0 0 0 11.292969 7.2929688 L 7.2929688 11.292969 A 1 1 0 0 0 7.2929688 12.707031 A 1 1 0 0 0 8.7070312 12.707031 L 11 10.414062 L 11 16 A 1 1 0 0 0 12 17 A 1 1 0 0 0 13 16 L 13 10.414062 L 15.292969 12.707031 A 1 1 0 0 0 16.707031 12.707031 A 1 1 0 0 0 16.707031 11.292969 L 12.738281 7.3261719 A 1 1 0 0 0 12.699219 7.2871094 A 1 1 0 0 0 12.503906 7.1367188 A 1 1 0 0 0 12.496094 7.1328125 A 1 1 0 0 0 12.259766 7.0351562 A 1 1 0 0 0 12.257812 7.0351562 A 1.0001 1.0001 0 0 0 12.255859 7.0351562 A 1 1 0 0 0 12 7 z "/>
</svg>
