<?xml version="1.0" encoding="UTF-8" standalone="no"?>
<svg xmlns="http://www.w3.org/2000/svg" xmlns:svg="http://www.w3.org/2000/svg" width="24" height="24" viewBox="0 0 24 24" fill="currentColor" tags="filter,sort,ascending,descending,increasing,decreasing,rising,falling,alphabetical,reverse" categories="text,layout,arrows">
  <path d="M 7 3 A 1 1 0 0 0 6 4 L 6 17.585938 L 3.7070312 15.292969 A 1 1 0 0 0 3 15 A 1 1 0 0 0 2.2929688 15.292969 A 1 1 0 0 0 2.2929688 16.707031 L 6.2929688 20.707031 A 1.0001 1.0001 0 0 0 6.3671875 20.763672 A 1 1 0 0 0 6.453125 20.830078 A 1.0001 1.0001 0 0 0 6.6191406 20.914062 A 1 1 0 0 0 6.7207031 20.955078 A 1.0001 1.0001 0 0 0 7.2792969 20.955078 A 1 1 0 0 0 7.3808594 20.914062 A 1.0001 1.0001 0 0 0 7.546875 20.830078 A 1 1 0 0 0 7.6328125 20.763672 A 1.0001 1.0001 0 0 0 7.7070312 20.707031 L 11.707031 16.707031 A 1 1 0 0 0 11.707031 15.292969 A 1 1 0 0 0 10.292969 15.292969 L 8 17.585938 L 8 4 A 1 1 0 0 0 7 3 z M 15 3 A 1 1 0 0 0 14 4 A 1 1 0 0 0 15 5 L 17.865234 5 L 14.232422 9.359375 A 1.0001 1.0001 0 0 0 15 11 L 20 11 A 1 1 0 0 0 21 10 A 1 1 0 0 0 20 9 L 17.134766 9 L 20.767578 4.640625 A 1.0001 1.0001 0 0 0 20 3 L 15 3 z M 17.5 13 C 16.65278 13 15.792118 13.277016 15.117188 13.876953 C 14.442256 14.476892 14 15.416669 14 16.5 L 14 18 L 14 20 A 1 1 0 0 0 15 21 A 1 1 0 0 0 16 20 L 16 19 L 19 19 L 19 20 A 1 1 0 0 0 20 21 A 1 1 0 0 0 21 20 L 21 18 L 21 16.5 C 21 15.416669 20.557744 14.476892 19.882812 13.876953 C 19.207882 13.277016 18.34722 13 17.5 13 z M 17.5 15 C 17.902777 15 18.292121 15.139653 18.554688 15.373047 C 18.817255 15.60644 19 15.916669 19 16.5 L 19 17 L 16 17 L 16 16.5 C 16 15.916669 16.182746 15.60644 16.445312 15.373047 C 16.70788 15.139653 17.097223 15 17.5 15 z "/>
</svg>
