<svg xmlns="http://www.w3.org/2000/svg" xmlns:svg="http://www.w3.org/2000/svg" width="24" height="24" viewBox="0 0 24 24" fill="currentColor" tags="shift,keyboard,button,mac,capitalize,capitalise,forward,direction,north" categories="arrows,text,development,gaming">
  <path d="M 12 2.0058594 C 11.433067 2.0058594 10.866213 2.2197024 10.439453 2.6464844 L 3.6621094 9.4238281 C 2.9039384 9.999242 2.7102405 11.031653 3.0214844 11.783203 C 3.3330126 12.53544 4.2024679 13.130441 5.1464844 13 L 8 13 L 8 19 C 8 20.092725 8.9072751 21 10 21 L 14 21 C 15.092725 21 16 20.092725 16 19 L 16 13 L 18.853516 13 C 19.797526 13.130433 20.666989 12.535436 20.978516 11.783203 C 21.28976 11.031649 21.09607 9.9992405 20.337891 9.4238281 L 13.560547 2.6464844 C 13.133787 2.2197024 12.566933 2.0058594 12 2.0058594 z M 11.980469 3.9941406 C 12.037662 3.9878673 12.0963 4.0103601 12.146484 4.0605469 L 18.982422 10.896484 A 1.0001 1.0001 0 0 0 19.130859 11.017578 A 1.0001 1.0001 0 0 0 18.939453 11 L 16 11 C 14.907275 11 14 11.907275 14 13 L 14 19 L 10 19 L 10 13 C 10 11.907275 9.0927249 11 8 11 L 5.0605469 11 A 1.0001 1.0001 0 0 0 4.8691406 11.017578 A 1.0001 1.0001 0 0 0 5.0175781 10.896484 L 11.853516 4.0605469 C 11.892549 4.0215127 11.935985 3.9990199 11.980469 3.9941406 z "/>
</svg>
