<?xml version="1.0" encoding="UTF-8" standalone="no"?>
<svg xmlns="http://www.w3.org/2000/svg" xmlns:svg="http://www.w3.org/2000/svg" width="24" height="24" viewBox="0 0 24 24" fill="currentColor" tags="bidirectional,two-way,2-way,swap,switch,network,mobile data,internet,sort,reorder,move" categories="arrows,navigation">
  <path d="M 7 3 A 1.0001 1.0001 0 0 0 6.7207031 3.0449219 A 1 1 0 0 0 6.6191406 3.0859375 A 1.0001 1.0001 0 0 0 6.453125 3.1699219 A 1 1 0 0 0 6.3671875 3.2363281 A 1.0001 1.0001 0 0 0 6.2929688 3.2929688 L 2.2929688 7.2929688 A 1 1 0 0 0 2.2929688 8.7070312 A 1 1 0 0 0 3.7070312 8.7070312 L 6 6.4140625 L 6 20 A 1 1 0 0 0 7 21 A 1 1 0 0 0 8 20 L 8 6.4140625 L 10.292969 8.7070312 A 1 1 0 0 0 11.707031 8.7070312 A 1 1 0 0 0 11.707031 7.2929688 L 7.7480469 3.3359375 A 1 1 0 0 0 7.7070312 3.2929688 A 1.0001 1.0001 0 0 0 7.6992188 3.2871094 A 1 1 0 0 0 7.5097656 3.1425781 A 1.0001 1.0001 0 0 0 7.4902344 3.1308594 A 1 1 0 0 0 7.2578125 3.0351562 A 1 1 0 0 0 7 3 z M 17 3 A 1 1 0 0 0 16 4 L 16 17.585938 L 13.707031 15.292969 A 1 1 0 0 0 13 15 A 1 1 0 0 0 12.292969 15.292969 A 1 1 0 0 0 12.292969 16.707031 L 16.292969 20.707031 A 1.0001 1.0001 0 0 0 16.367188 20.763672 A 1 1 0 0 0 16.453125 20.830078 A 1.0001 1.0001 0 0 0 16.619141 20.914062 A 1 1 0 0 0 16.720703 20.955078 A 1.0001 1.0001 0 0 0 17.279297 20.955078 A 1 1 0 0 0 17.380859 20.914062 A 1.0001 1.0001 0 0 0 17.546875 20.830078 A 1 1 0 0 0 17.632812 20.763672 A 1.0001 1.0001 0 0 0 17.707031 20.707031 L 21.707031 16.707031 A 1 1 0 0 0 21.707031 15.292969 A 1 1 0 0 0 20.292969 15.292969 L 18 17.585938 L 18 4 A 1 1 0 0 0 17 3 z "/>
</svg>
