<?xml version="1.0" encoding="UTF-8" standalone="no"?>
<svg xmlns="http://www.w3.org/2000/svg" xmlns:svg="http://www.w3.org/2000/svg" width="24" height="24" viewBox="0 0 24 24" fill="currentColor" tags="backwards,reverse,slow,direction,south,download" categories="arrows,navigation,gaming,files">
  <path d="M 9 3 A 1 1 0 0 0 8 4 A 1 1 0 0 0 9 5 L 15 5 A 1 1 0 0 0 16 4 A 1 1 0 0 0 15 3 L 9 3 z M 10 7 C 8.9072751 7 8 7.9072751 8 9 L 8 10.998047 L 5.1328125 10.998047 C 4.1943902 10.875485 3.331421 11.46645 3.0214844 12.214844 C 2.7113722 12.963661 2.9029664 13.991731 3.6542969 14.568359 L 10.439453 21.353516 C 11.292973 22.20708 12.707027 22.20708 13.560547 21.353516 L 20.337891 14.576172 C 21.096063 14.000758 21.289759 12.968348 20.978516 12.216797 C 20.666986 11.464558 19.797535 10.869555 18.853516 11 L 16 11 L 16 9 C 16 7.9072751 15.092725 7 14 7 L 10 7 z M 10 9 L 14 9 L 14 11 C 14 12.092725 14.907275 13 16 13 L 18.939453 13 A 1.0001 1.0001 0 0 0 19.130859 12.982422 A 1.0001 1.0001 0 0 0 18.982422 13.103516 L 12.146484 19.939453 C 12.057264 20.028673 11.942732 20.028673 11.853516 19.939453 L 5.0175781 13.103516 A 1.0001 1.0001 0 0 0 4.8691406 12.980469 A 1.0001 1.0001 0 0 0 5.0605469 12.998047 L 8 12.998047 C 9.0927249 12.998047 10 12.090772 10 10.998047 L 10 9 z "/>
</svg>
