<svg xmlns="http://www.w3.org/2000/svg" xmlns:svg="http://www.w3.org/2000/svg" width="24" height="24" viewBox="0 0 24 24" fill="currentColor" tags="filter,sort,ascending,descending,increasing,decreasing,rising,falling,numerical" categories="text,layout,arrows">
  <path d="M 7 3 A 1 1 0 0 0 6 4 L 6 17.585938 L 3.7070312 15.292969 A 1 1 0 0 0 2.2929688 15.292969 A 1 1 0 0 0 2.2929688 16.707031 L 6.2929688 20.707031 A 1.0001 1.0001 0 0 0 6.3417969 20.75 A 1 1 0 0 0 6.3847656 20.787109 A 1.0001 1.0001 0 0 0 6.4394531 20.824219 A 1 1 0 0 0 6.4921875 20.861328 A 1.0001 1.0001 0 0 0 6.5 20.865234 A 1 1 0 0 0 6.6113281 20.921875 A 1.0001 1.0001 0 0 0 6.6171875 20.923828 A 1 1 0 0 0 6.7949219 20.976562 A 1.0001 1.0001 0 0 0 7.2578125 20.964844 A 1 1 0 0 0 7.3828125 20.923828 A 1.0001 1.0001 0 0 0 7.5605469 20.824219 A 1 1 0 0 0 7.6152344 20.787109 A 1.0001 1.0001 0 0 0 7.6582031 20.75 A 1 1 0 0 0 7.7167969 20.697266 L 11.707031 16.707031 A 1 1 0 0 0 11.707031 15.292969 A 1 1 0 0 0 11 15 A 1 1 0 0 0 10.292969 15.292969 L 8 17.585938 L 8 4 A 1 1 0 0 0 7 3 z M 15 3 A 1 1 0 0 0 14 4 A 1 1 0 0 0 15 5 L 16 5 L 16 9 L 15 9 A 1 1 0 0 0 14 10 A 1 1 0 0 0 15 11 L 19 11 A 1 1 0 0 0 20 10 A 1 1 0 0 0 19 9 L 18 9 L 18 4 A 1.0001 1.0001 0 0 0 17 3 L 15 3 z M 17 13 C 15.355297 13 14 14.355297 14 16 L 14 18 C 14 19.644703 15.355297 21 17 21 C 18.644703 21 20 19.644703 20 18 L 20 16 C 20 14.355297 18.644703 13 17 13 z M 17 15 C 17.571297 15 18 15.428703 18 16 L 18 18 C 18 18.571297 17.571297 19 17 19 C 16.428703 19 16 18.571297 16 18 L 16 16 C 16 15.428703 16.428703 15 17 15 z "/>
</svg>
