<?xml version="1.0" encoding="UTF-8" standalone="no"?>
<svg xmlns="http://www.w3.org/2000/svg" xmlns:svg="http://www.w3.org/2000/svg" width="24" height="24" viewBox="0 0 24 24" fill="currentColor" tags="outwards,direction,south-east,diagonal" categories="arrows,navigation">
  
  <path d="M 5 2 C 3.3549936 2 2 3.3549936 2 5 L 2 19 C 2 20.645006 3.3549936 22 5 22 L 11 22 A 1 1 0 0 0 12 21 A 1 1 0 0 0 11 20 L 5 20 C 4.4358718 20 4 19.564128 4 19 L 4 5 C 4 4.4358718 4.4358718 4 5 4 L 19 4 C 19.564128 4 20 4.4358718 20 5 L 20 11 A 1 1 0 0 0 21 12 A 1 1 0 0 0 22 11 L 22 5 C 22 3.3549936 20.645006 2 19 2 L 5 2 z M 12 11 A 1 1 0 0 0 11.292969 11.292969 A 1 1 0 0 0 11.292969 12.707031 L 18.585938 20 L 15 20 A 1 1 0 0 0 14 21 A 1 1 0 0 0 15 22 L 21 22 A 1.0001 1.0001 0 0 0 21.091797 21.988281 A 1 1 0 0 0 21.197266 21.974609 A 1.0001 1.0001 0 0 0 21.394531 21.910156 A 1 1 0 0 0 21.472656 21.876953 A 1.0001 1.0001 0 0 0 21.707031 21.707031 A 1 1 0 0 0 21.857422 21.509766 A 1.0001 1.0001 0 0 0 21.871094 21.484375 A 1 1 0 0 0 21.957031 21.283203 A 1.0001 1.0001 0 0 0 21.96875 21.242188 A 1 1 0 0 0 22 21 L 22 15 A 1 1 0 0 0 21 14 A 1 1 0 0 0 20 15 L 20 18.585938 L 12.707031 11.292969 A 1 1 0 0 0 12 11 z "/>
</svg>
