<?xml version="1.0" encoding="UTF-8" standalone="no"?>
<svg xmlns="http://www.w3.org/2000/svg" xmlns:svg="http://www.w3.org/2000/svg" width="24" height="24" viewBox="0 0 24 24" fill="currentColor" tags="direction,south,waypoint,location,step,into" categories="arrows,navigation,maps">
  
  <path d="M 12 1 A 1 1 0 0 0 11 2 L 11 13.585938 L 5.7070312 8.2929688 A 1 1 0 0 0 5 8 A 1 1 0 0 0 4.2929688 8.2929688 A 1 1 0 0 0 4.2929688 9.7070312 L 11.292969 16.707031 A 1.0001 1.0001 0 0 0 11.355469 16.753906 A 1 1 0 0 0 11.484375 16.845703 A 1.0001 1.0001 0 0 0 11.619141 16.914062 A 1 1 0 0 0 11.767578 16.962891 A 1.0001 1.0001 0 0 0 11.925781 16.988281 A 1 1 0 0 0 12 17 A 1 1 0 0 0 12.074219 16.988281 A 1.0001 1.0001 0 0 0 12.232422 16.962891 A 1 1 0 0 0 12.380859 16.914062 A 1.0001 1.0001 0 0 0 12.515625 16.845703 A 1 1 0 0 0 12.644531 16.753906 A 1.0001 1.0001 0 0 0 12.707031 16.707031 L 19.707031 9.7070312 A 1 1 0 0 0 19.707031 8.2929688 A 1 1 0 0 0 18.292969 8.2929688 L 13 13.585938 L 13 2 A 1 1 0 0 0 12 1 z M 12 19 C 10.907277 19 10 19.907277 10 21 C 10 22.092723 10.907277 23 12 23 C 13.092723 23 14 22.092723 14 21 C 14 19.907277 13.092723 19 12 19 z "/>
</svg>
