<?xml version="1.0" encoding="UTF-8" standalone="no"?>
<svg xmlns="http://www.w3.org/2000/svg" xmlns:svg="http://www.w3.org/2000/svg" width="24" height="24" viewBox="0 0 24 24" fill="currentColor" tags="next,forward,direction,east,export,expand,fold,horizontal,|-&gt;" categories="arrows,navigation">
  <path d="M 3 4 A 1 1 0 0 0 2 5 L 2 19 A 1 1 0 0 0 3 20 A 1 1 0 0 0 4 19 L 4 5 A 1 1 0 0 0 3 4 z M 15 5 A 1 1 0 0 0 14.292969 5.2929688 A 1 1 0 0 0 14.292969 6.7070312 L 18.585938 11 L 7 11 A 1 1 0 0 0 6 12 A 1 1 0 0 0 7 13 L 18.585938 13 L 14.292969 17.292969 A 1 1 0 0 0 14.292969 18.707031 A 1 1 0 0 0 15.707031 18.707031 L 21.697266 12.716797 A 1 1 0 0 0 21.707031 12.707031 A 1.0001 1.0001 0 0 0 21.785156 12.619141 A 1 1 0 0 0 21.792969 12.609375 A 1.0001 1.0001 0 0 0 21.861328 12.507812 A 1 1 0 0 0 21.865234 12.5 A 1.0001 1.0001 0 0 0 21.921875 12.388672 A 1 1 0 0 0 21.923828 12.382812 A 1 1 0 0 0 21.964844 12.257812 A 1.0001 1.0001 0 0 0 21.976562 12.205078 A 1.0001 1.0001 0 0 0 22 12 A 1.0001 1.0001 0 0 0 21.976562 11.794922 A 1.0001 1.0001 0 0 0 21.964844 11.742188 A 1 1 0 0 0 21.923828 11.617188 A 1.0001 1.0001 0 0 0 21.921875 11.611328 A 1 1 0 0 0 21.865234 11.5 A 1.0001 1.0001 0 0 0 21.861328 11.492188 A 1 1 0 0 0 21.792969 11.390625 A 1.0001 1.0001 0 0 0 21.785156 11.380859 A 1 1 0 0 0 21.707031 11.292969 L 21.697266 11.283203 L 15.707031 5.2929688 A 1 1 0 0 0 15 5 z "/>
</svg>
