<?xml version="1.0" encoding="UTF-8" standalone="no"?>
<svg xmlns="http://www.w3.org/2000/svg" xmlns:svg="http://www.w3.org/2000/svg" width="24" height="24" viewBox="0 0 24 24" fill="currentColor" tags="backwards,reverse,direction,south" categories="arrows,navigation">
  <path d="M 12 4 A 1 1 0 0 0 11 5 L 11 16.585938 L 5.7070312 11.292969 A 1 1 0 0 0 5 11 A 1 1 0 0 0 4.2929688 11.292969 A 1 1 0 0 0 4.2929688 12.707031 L 11.292969 19.707031 A 1.0001 1.0001 0 0 0 11.355469 19.753906 A 1 1 0 0 0 11.484375 19.845703 A 1.0001 1.0001 0 0 0 11.619141 19.914062 A 1 1 0 0 0 11.767578 19.962891 A 1.0001 1.0001 0 0 0 11.925781 19.988281 A 1 1 0 0 0 12 20 A 1 1 0 0 0 12.074219 19.988281 A 1.0001 1.0001 0 0 0 12.232422 19.962891 A 1 1 0 0 0 12.380859 19.914062 A 1.0001 1.0001 0 0 0 12.515625 19.845703 A 1 1 0 0 0 12.644531 19.753906 A 1.0001 1.0001 0 0 0 12.707031 19.707031 L 19.707031 12.707031 A 1 1 0 0 0 19.707031 11.292969 A 1 1 0 0 0 18.292969 11.292969 L 13 16.585938 L 13 5 A 1 1 0 0 0 12 4 z "/>
</svg>
