<?xml version="1.0" encoding="UTF-8" standalone="no"?>
<svg xmlns="http://www.w3.org/2000/svg" xmlns:svg="http://www.w3.org/2000/svg" width="24" height="24" viewBox="0 0 24 24" fill="currentColor" tags="direction,north,step,out" categories="arrows,navigation">
  <path d="M 12 1 A 1 1 0 0 0 11.925781 1.0117188 A 1.0001 1.0001 0 0 0 11.767578 1.0371094 A 1 1 0 0 0 11.619141 1.0859375 A 1.0001 1.0001 0 0 0 11.484375 1.1542969 A 1 1 0 0 0 11.355469 1.2460938 A 1.0001 1.0001 0 0 0 11.292969 1.2929688 L 4.2929688 8.2929688 A 1 1 0 0 0 4.2929688 9.7070312 A 1 1 0 0 0 5.7070312 9.7070312 L 11 4.4140625 L 11 16 A 1 1 0 0 0 12 17 A 1 1 0 0 0 13 16 L 13 4.4140625 L 18.292969 9.7070312 A 1 1 0 0 0 19.707031 9.7070312 A 1 1 0 0 0 19.707031 8.2929688 L 12.707031 1.2929688 A 1 1 0 0 0 12.453125 1.109375 A 1.0001 1.0001 0 0 0 12.449219 1.1074219 A 1 1 0 0 0 12.169922 1.015625 A 1.0001 1.0001 0 0 0 12.144531 1.0117188 A 1 1 0 0 0 12 1 z M 12 19 C 10.907275 19 10 19.907275 10 21 C 10 22.092725 10.907275 23 12 23 C 13.092725 23 14 22.092725 14 21 C 14 19.907275 13.092725 19 12 19 z "/>
</svg>
