<?xml version="1.0" encoding="UTF-8" standalone="no"?>
<svg xmlns="http://www.w3.org/2000/svg" xmlns:svg="http://www.w3.org/2000/svg" width="24" height="24" viewBox="0 0 24 24" fill="currentColor" tags="filter,sort,ascending,descending,increasing,decreasing,rising,falling,alphabetical" categories="text,layout,arrows">
  <path d="M 7 3 A 1.0001 1.0001 0 0 0 6.7207031 3.0449219 A 1 1 0 0 0 6.6191406 3.0859375 A 1.0001 1.0001 0 0 0 6.453125 3.1699219 A 1 1 0 0 0 6.3671875 3.2363281 A 1.0001 1.0001 0 0 0 6.2929688 3.2929688 L 2.2929688 7.2929688 A 1 1 0 0 0 2.2929688 8.7070312 A 1 1 0 0 0 3.7070312 8.7070312 L 6 6.4140625 L 6 20 A 1 1 0 0 0 7 21 A 1 1 0 0 0 8 20 L 8 6.4140625 L 10.292969 8.7070312 A 1 1 0 0 0 11.707031 8.7070312 A 1 1 0 0 0 11.707031 7.2929688 L 7.7480469 3.3359375 A 1 1 0 0 0 7.7070312 3.2929688 A 1.0001 1.0001 0 0 0 7.6992188 3.2871094 A 1 1 0 0 0 7.5097656 3.1425781 A 1.0001 1.0001 0 0 0 7.4902344 3.1308594 A 1 1 0 0 0 7 3 z M 17.5 3 C 16.652778 3 15.792119 3.2770139 15.117188 3.8769531 C 14.442255 4.4768923 14 5.4166669 14 6.5 L 14 10 A 1 1 0 0 0 15 11 A 1 1 0 0 0 16 10 L 16 9 L 19 9 L 19 10 A 1 1 0 0 0 20 11 A 1 1 0 0 0 21 10 L 21 6.5 C 21 5.4166669 20.557744 4.4768923 19.882812 3.8769531 C 19.207881 3.2770139 18.347222 3 17.5 3 z M 17.5 5 C 17.902778 5 18.292119 5.1396531 18.554688 5.3730469 C 18.817256 5.6064406 19 5.9166671 19 6.5 L 19 7 L 16 7 L 16 6.5 C 16 5.9166671 16.182744 5.6064406 16.445312 5.3730469 C 16.707881 5.1396531 17.097222 5 17.5 5 z M 15 13 A 1 1 0 0 0 14 14 A 1 1 0 0 0 15 15 L 17.865234 15 L 14.232422 19.359375 A 1.0001 1.0001 0 0 0 15 21 L 20 21 A 1 1 0 0 0 21 20 A 1 1 0 0 0 20 19 L 17.134766 19 L 20.767578 14.640625 A 1.0001 1.0001 0 0 0 20 13 L 15 13 z "/>
</svg>
