<?xml version="1.0" encoding="UTF-8" standalone="no"?>
<svg xmlns="http://www.w3.org/2000/svg" xmlns:svg="http://www.w3.org/2000/svg" width="24" height="24" viewBox="0 0 24 24" fill="currentColor" tags="bidirectional,two-way,2-way,swap,switch,network,traffic,flow,mobile data,internet,sort,reorder,move" categories="arrows,navigation">
  <path d="M 7 3 A 1 1 0 0 0 6 4 L 6 17.585938 L 3.7070312 15.292969 A 1 1 0 0 0 3 15 A 1 1 0 0 0 2.2929688 15.292969 A 1 1 0 0 0 2.2929688 16.707031 L 6.2929688 20.707031 A 1.0001 1.0001 0 0 0 6.3671875 20.763672 A 1 1 0 0 0 6.453125 20.830078 A 1.0001 1.0001 0 0 0 6.6191406 20.914062 A 1 1 0 0 0 6.7207031 20.955078 A 1.0001 1.0001 0 0 0 7.2792969 20.955078 A 1 1 0 0 0 7.3808594 20.914062 A 1.0001 1.0001 0 0 0 7.546875 20.830078 A 1 1 0 0 0 7.6328125 20.763672 A 1.0001 1.0001 0 0 0 7.7070312 20.707031 L 11.707031 16.707031 A 1 1 0 0 0 11.707031 15.292969 A 1 1 0 0 0 10.292969 15.292969 L 8 17.585938 L 8 4 A 1 1 0 0 0 7 3 z M 17 3 A 1.0001 1.0001 0 0 0 16.720703 3.0449219 A 1 1 0 0 0 16.619141 3.0859375 A 1.0001 1.0001 0 0 0 16.453125 3.1699219 A 1 1 0 0 0 16.367188 3.2363281 A 1.0001 1.0001 0 0 0 16.292969 3.2929688 L 12.292969 7.2929688 A 1 1 0 0 0 12.292969 8.7070312 A 1 1 0 0 0 13.707031 8.7070312 L 16 6.4140625 L 16 20 A 1 1 0 0 0 17 21 A 1 1 0 0 0 18 20 L 18 6.4140625 L 20.292969 8.7070312 A 1 1 0 0 0 21.707031 8.7070312 A 1 1 0 0 0 21.707031 7.2929688 L 17.748047 3.3359375 A 1 1 0 0 0 17.707031 3.2929688 A 1.0001 1.0001 0 0 0 17.699219 3.2871094 A 1 1 0 0 0 17.509766 3.1425781 A 1.0001 1.0001 0 0 0 17.490234 3.1308594 A 1 1 0 0 0 17.257812 3.0351562 A 1 1 0 0 0 17 3 z "/>
</svg>
