<svg xmlns="http://www.w3.org/2000/svg" xmlns:svg="http://www.w3.org/2000/svg" width="24" height="24" viewBox="0 0 24 24" fill="currentColor" tags="bidirectional,two-way,2-way,swap,switch,network,mobile data,internet,sort,reorder,move" categories="arrows">
  <path d="M 7 3 A 1.0001 1.0001 0 0 0 6.7949219 3.0234375 A 1 1 0 0 0 6.7421875 3.0351562 A 1 1 0 0 0 6.6171875 3.0761719 A 1 1 0 0 0 6.6113281 3.078125 A 1.0001 1.0001 0 0 0 6.5 3.1347656 A 1 1 0 0 0 6.4394531 3.1757812 A 1.0001 1.0001 0 0 0 6.3847656 3.2128906 A 1 1 0 0 0 6.3417969 3.25 A 1.0001 1.0001 0 0 0 6.2929688 3.2929688 A 1 1 0 0 0 6.2832031 3.3027344 L 2.2929688 7.2929688 A 1 1 0 0 0 2.2929688 8.7070312 A 1 1 0 0 0 3.7070312 8.7070312 L 6 6.4140625 L 6 20 A 1 1 0 0 0 7 21 A 1 1 0 0 0 8 20 L 8 6.4140625 L 10.292969 8.7070312 A 1 1 0 0 0 11.707031 8.7070312 A 1 1 0 0 0 11.707031 7.2929688 L 7.7167969 3.3027344 A 1 1 0 0 0 7.6582031 3.25 A 1.0001 1.0001 0 0 0 7.6152344 3.2128906 A 1 1 0 0 0 7.5605469 3.1757812 A 1.0001 1.0001 0 0 0 7.3828125 3.0761719 A 1 1 0 0 0 7.2578125 3.0351562 A 1.0001 1.0001 0 0 0 7.2050781 3.0234375 A 1.0001 1.0001 0 0 0 7 3 z M 17 3 A 1 1 0 0 0 16 4 L 16 17.585938 L 13.707031 15.292969 A 1 1 0 0 0 13 15 A 1 1 0 0 0 12.292969 15.292969 A 1 1 0 0 0 12.292969 16.707031 L 16.292969 20.707031 A 1.0001 1.0001 0 0 0 16.341797 20.75 A 1 1 0 0 0 16.384766 20.787109 A 1.0001 1.0001 0 0 0 16.439453 20.824219 A 1 1 0 0 0 16.492188 20.861328 A 1.0001 1.0001 0 0 0 16.5 20.865234 A 1 1 0 0 0 16.611328 20.921875 A 1.0001 1.0001 0 0 0 16.617188 20.923828 A 1 1 0 0 0 16.794922 20.976562 A 1.0001 1.0001 0 0 0 17.257812 20.964844 A 1 1 0 0 0 17.382812 20.923828 A 1.0001 1.0001 0 0 0 17.560547 20.824219 A 1 1 0 0 0 17.615234 20.787109 A 1.0001 1.0001 0 0 0 17.658203 20.75 A 1 1 0 0 0 17.716797 20.697266 L 21.707031 16.707031 A 1 1 0 0 0 21.707031 15.292969 A 1 1 0 0 0 20.292969 15.292969 L 18 17.585938 L 18 4 A 1 1 0 0 0 17 3 z "/>
</svg>
