<?xml version="1.0" encoding="UTF-8" standalone="no"?>
<svg xmlns="http://www.w3.org/2000/svg" xmlns:svg="http://www.w3.org/2000/svg" width="24" height="24" viewBox="0 0 24 24" fill="currentColor" tags="direction,orientation,this way up,vertical,package,box,fragile,postage,shipping" categories="arrows,transportation,mail">
  <path d="M 7 2 A 1.0001 1.0001 0 0 0 6.7949219 2.0234375 A 1 1 0 0 0 6.6113281 2.078125 A 1.0001 1.0001 0 0 0 6.5 2.1347656 A 1 1 0 0 0 6.4394531 2.1757812 A 1.0001 1.0001 0 0 0 6.3847656 2.2128906 A 1 1 0 0 0 6.3417969 2.25 A 1.0001 1.0001 0 0 0 6.2929688 2.2929688 A 1 1 0 0 0 6.2832031 2.3027344 L 3.2929688 5.2929688 A 1 1 0 0 0 3.2929688 6.7070312 A 1 1 0 0 0 4.7070312 6.7070312 L 6 5.4140625 L 6 17 A 1 1 0 0 0 7 18 A 1 1 0 0 0 8 17 L 8 5.4140625 L 9.2929688 6.7070312 A 1 1 0 0 0 10.707031 6.7070312 A 1 1 0 0 0 10.707031 5.2929688 L 7.7167969 2.3027344 A 1 1 0 0 0 7.6582031 2.25 A 1.0001 1.0001 0 0 0 7.6152344 2.2128906 A 1 1 0 0 0 7.5605469 2.1757812 A 1.0001 1.0001 0 0 0 7.3828125 2.0761719 A 1 1 0 0 0 7.2578125 2.0351562 A 1.0001 1.0001 0 0 0 7 2 z M 17 2 A 1.0001 1.0001 0 0 0 16.794922 2.0234375 A 1 1 0 0 0 16.439453 2.1757812 A 1.0001 1.0001 0 0 0 16.384766 2.2128906 A 1 1 0 0 0 16.341797 2.25 A 1.0001 1.0001 0 0 0 16.292969 2.2929688 L 13.292969 5.2929688 A 1 1 0 0 0 13.292969 6.7070312 A 1 1 0 0 0 14.707031 6.7070312 L 16 5.4140625 L 16 17 A 1 1 0 0 0 17 18 A 1 1 0 0 0 18 17 L 18 5.4140625 L 19.292969 6.7070312 A 1 1 0 0 0 20.707031 6.7070312 A 1 1 0 0 0 20.707031 5.2929688 L 17.707031 2.2929688 A 1 1 0 0 0 17.619141 2.2148438 A 1.0001 1.0001 0 0 0 17.615234 2.2128906 A 1 1 0 0 0 17.560547 2.1757812 A 1.0001 1.0001 0 0 0 17.5 2.1347656 A 1 1 0 0 0 17.388672 2.078125 A 1.0001 1.0001 0 0 0 17.382812 2.0761719 A 1 1 0 0 0 17.257812 2.0351562 A 1.0001 1.0001 0 0 0 17 2 z M 4 20 A 1 1 0 0 0 3 21 A 1 1 0 0 0 4 22 L 20 22 A 1 1 0 0 0 21 21 A 1 1 0 0 0 20 20 L 4 20 z "/>
</svg>
