<?xml version="1.0" encoding="UTF-8" standalone="no"?>
<svg xmlns="http://www.w3.org/2000/svg" xmlns:svg="http://www.w3.org/2000/svg" width="24" height="24" viewBox="0 0 24 24" fill="currentColor" tags="outwards,direction,south-east,diagonal" categories="arrows,navigation,maps">
  
  <path d="M 12.037109 0.98828125 C 9.2899929 0.96507465 6.4766247 1.9686879 4.2226562 4.2226562 C 0.78803786 7.6572747 0.25716125 12.392269 1.8378906 16.208984 C 3.41862 20.0257 7.1421908 23 12 23 A 1 1 0 0 0 13 22 A 1 1 0 0 0 12 21 C 7.948159 21 4.9875798 18.587154 3.6855469 15.443359 C 2.383514 12.299566 2.7720267 8.5014109 5.6367188 5.6367188 C 8.5014109 2.7720267 12.299566 2.383514 15.443359 3.6855469 C 18.587154 4.9875798 21 7.948159 21 12 A 1 1 0 0 0 22 13 A 1 1 0 0 0 23 12 C 23 7.1421908 20.0257 3.41862 16.208984 1.8378906 C 15.254806 1.4427083 14.243375 1.1793979 13.208984 1.0605469 C 12.821088 1.0159778 12.429555 0.99159648 12.037109 0.98828125 z M 12 11 A 1 1 0 0 0 11.292969 11.292969 A 1 1 0 0 0 11.292969 12.707031 L 19.585938 21 L 16 21 A 1 1 0 0 0 15 22 A 1 1 0 0 0 16 23 L 22 23 A 1.0001 1.0001 0 0 0 22.091797 22.988281 A 1 1 0 0 0 22.197266 22.974609 A 1.0001 1.0001 0 0 0 22.394531 22.910156 A 1 1 0 0 0 22.472656 22.876953 A 1.0001 1.0001 0 0 0 22.707031 22.707031 A 1 1 0 0 0 22.863281 22.501953 A 1 1 0 0 0 22.865234 22.5 A 1.0001 1.0001 0 0 0 22.867188 22.496094 A 1 1 0 0 0 22.960938 22.273438 A 1.0001 1.0001 0 0 0 22.96875 22.240234 A 1 1 0 0 0 22.998047 22.015625 A 1.0001 1.0001 0 0 0 23 22 L 23 16 A 1 1 0 0 0 22 15 A 1 1 0 0 0 21 16 L 21 19.585938 L 12.707031 11.292969 A 1 1 0 0 0 12 11 z "/>
</svg>
