<?xml version="1.0" encoding="UTF-8" standalone="no"?>
<svg xmlns="http://www.w3.org/2000/svg" xmlns:svg="http://www.w3.org/2000/svg" width="24" height="24" viewBox="0 0 24 24" fill="currentColor" tags="previous,back,direction,west,&lt;-" categories="arrows,navigation">
  
  <path d="M 12 4 A 1 1 0 0 0 11.292969 4.2929688 L 4.2929688 11.292969 A 1.0001 1.0001 0 0 0 4.2460938 11.355469 A 1 1 0 0 0 4.1542969 11.484375 A 1.0001 1.0001 0 0 0 4.0859375 11.619141 A 1 1 0 0 0 4.0371094 11.767578 A 1.0001 1.0001 0 0 0 4.0117188 11.925781 A 1 1 0 0 0 4 12 A 1 1 0 0 0 4.0117188 12.074219 A 1.0001 1.0001 0 0 0 4.0371094 12.232422 A 1 1 0 0 0 4.0859375 12.380859 A 1.0001 1.0001 0 0 0 4.1542969 12.515625 A 1 1 0 0 0 4.2460938 12.644531 A 1.0001 1.0001 0 0 0 4.2929688 12.707031 L 11.292969 19.707031 A 1 1 0 0 0 12.707031 19.707031 A 1 1 0 0 0 12.707031 18.292969 L 7.4140625 13 L 19 13 A 1 1 0 0 0 20 12 A 1 1 0 0 0 19 11 L 7.4140625 11 L 12.707031 5.7070312 A 1 1 0 0 0 12.707031 4.2929688 A 1 1 0 0 0 12 4 z "/>
</svg>
