<?xml version="1.0" encoding="UTF-8" standalone="no"?>
<svg xmlns="http://www.w3.org/2000/svg" xmlns:svg="http://www.w3.org/2000/svg" width="24" height="24" viewBox="0 0 24 24" fill="currentColor" tags="direction,north-east,diagonal" categories="arrows,navigation">
  <path d="M 7 6 A 1 1 0 0 0 6 7 A 1 1 0 0 0 7 8 L 14.585938 8 L 6.2929688 16.292969 A 1 1 0 0 0 6.2929688 17.707031 A 1 1 0 0 0 7.7070312 17.707031 L 16 9.4140625 L 16 17 A 1 1 0 0 0 17 18 A 1 1 0 0 0 18 17 L 18 7 A 1.0001 1.0001 0 0 0 17.992188 6.8691406 A 1.0001 1.0001 0 0 0 17.923828 6.6171875 A 1.0001 1.0001 0 0 0 17.707031 6.2929688 A 1 1 0 0 0 17.382812 6.0761719 A 1.0001 1.0001 0 0 0 17.130859 6.0078125 A 1.0001 1.0001 0 0 0 17 6 L 7 6 z "/>
</svg>
