<svg xmlns="http://www.w3.org/2000/svg" xmlns:svg="http://www.w3.org/2000/svg" width="24" height="24" viewBox="0 0 24 24" fill="currentColor" tags="next,forward,direction,east,indicate turn" categories="arrows,gaming">
  <path d="M 12.845703 2.8828125 C 12.625552 2.8945986 12.411845 2.9407084 12.216797 3.0214844 C 11.46456 3.3330126 10.869559 4.2024679 11 5.1464844 L 11 8 L 5 8 C 3.9072751 8 3 8.9072751 3 10 L 3 14 C 3 15.092725 3.9072751 16 5 16 L 11 16 L 11 18.853516 C 10.869567 19.797526 11.464564 20.666989 12.216797 20.978516 C 12.968348 21.289759 14.000758 21.096063 14.576172 20.337891 L 21.353516 13.560547 C 22.20708 12.707027 22.20708 11.292973 21.353516 10.439453 L 14.576172 3.6621094 C 14.299495 3.297381 13.918081 3.0635079 13.511719 2.953125 C 13.292449 2.8935635 13.065854 2.8710264 12.845703 2.8828125 z M 12.982422 4.8691406 A 1.0001 1.0001 0 0 0 13.103516 5.0175781 L 19.939453 11.853516 C 20.028673 11.942736 20.028673 12.057268 19.939453 12.146484 L 13.103516 18.982422 A 1.0001 1.0001 0 0 0 12.982422 19.130859 A 1.0001 1.0001 0 0 0 13 18.939453 L 13 16 C 13 14.907275 12.092725 14 11 14 L 5 14 L 5 10 L 11 10 C 12.092725 10 13 9.0927249 13 8 L 13 5.0605469 A 1.0001 1.0001 0 0 0 12.982422 4.8691406 z "/>
</svg>
