<?xml version="1.0" encoding="UTF-8" standalone="no"?>
<svg xmlns="http://www.w3.org/2000/svg" xmlns:svg="http://www.w3.org/2000/svg" width="24" height="24" viewBox="0 0 24 24" fill="currentColor" tags="reference,times,multiply,multiplication,operator,code,glob pattern,wildcard,*" categories="text,maths,development">
  <path d="M 12 5 A 1 1 0 0 0 11 6 L 11 10.269531 L 7.3046875 8.1347656 A 1 1 0 0 0 6.5449219 8.0332031 A 1 1 0 0 0 5.9375 8.5 A 1 1 0 0 0 6.3046875 9.8652344 L 10.001953 12 L 6.3046875 14.134766 A 1 1 0 0 0 5.9375 15.5 A 1 1 0 0 0 7.3046875 15.865234 L 11 13.730469 L 11 18 A 1 1 0 0 0 12 19 A 1 1 0 0 0 13 18 L 13 13.730469 L 16.695312 15.865234 A 1 1 0 0 0 18.0625 15.5 A 1 1 0 0 0 17.695312 14.134766 L 13.998047 12 L 17.695312 9.8652344 A 1 1 0 0 0 18.0625 8.5 A 1 1 0 0 0 17.455078 8.0332031 A 1 1 0 0 0 16.695312 8.1347656 L 13 10.269531 L 13 6 A 1 1 0 0 0 12 5 z "/>
</svg>
