<?xml version="1.0" encoding="UTF-8" standalone="no"?>
<svg xmlns="http://www.w3.org/2000/svg" xmlns:svg="http://www.w3.org/2000/svg" width="24" height="24" viewBox="0 0 24 24" fill="currentColor" tags="mention,at,email,message,@" categories="text,account">
  <path d="M 11.919922 0.9921875 C 11.626763 0.99233017 11.333973 1.0042278 11.041016 1.0273438 C 7.5255287 1.3047358 4.0837893 3.2425778 2.1640625 7.0820312 C -0.39557315 12.201303 1.373153 17.457563 4.9511719 20.445312 C 8.5291908 23.433063 14.017662 24.237242 18.599609 20.800781 A 1 1 0 0 0 18.800781 19.400391 A 1 1 0 0 0 17.400391 19.199219 C 13.537107 22.096681 9.1955006 21.382783 6.234375 18.910156 C 3.2732494 16.437531 1.7954391 12.291935 3.953125 7.9765625 C 6.1108109 3.6611905 10.313584 2.3549095 14.068359 3.2402344 C 17.823136 4.1255593 21 7.170896 21 12 L 21 13 C 21 13.749998 20.754755 14.185226 20.398438 14.501953 C 20.042121 14.81868 19.527776 15 19 15 C 18.472224 15 17.95788 14.81868 17.601562 14.501953 C 17.245246 14.185226 17 13.749998 17 13 L 17 12 L 17 8 A 1 1 0 0 0 16 7 A 1 1 0 0 0 15 8 L 15 8.0078125 C 14.162689 7.3759169 13.123406 7 12 7 C 9.2504263 7 7 9.2504263 7 12 C 7 14.749573 9.2504263 17 12 17 C 13.465193 17 14.788362 16.360724 15.705078 15.347656 C 15.871908 15.590101 16.061379 15.809551 16.273438 15.998047 C 17.042119 16.681318 18.02778 17 19 17 C 19.97222 17 20.957882 16.681318 21.726562 15.998047 C 22.495244 15.314776 23 14.249997 23 13 L 23 12 C 23 6.2725658 19.064355 2.3646871 14.527344 1.2949219 C 13.676654 1.0943409 12.799399 0.99175949 11.919922 0.9921875 z M 12 9 C 13.668695 9 15 10.331305 15 12 C 15 13.668695 13.668695 15 12 15 C 10.331305 15 9 13.668695 9 12 C 9 10.331305 10.331305 9 12 9 z "/>
</svg>
