<?xml version="1.0" encoding="UTF-8" standalone="no"?>
<svg xmlns="http://www.w3.org/2000/svg" xmlns:svg="http://www.w3.org/2000/svg" width="24" height="24" viewBox="0 0 24 24" fill="currentColor" tags="mention,at,email,message,@" categories="text,account">
  <path d="M 12.798828 1.0253906 C 12.215507 0.9803683 11.626931 0.98111168 11.041016 1.0273438 C 7.5255217 1.3047363 4.0837931 3.2425701 2.1640625 7.0820312 C -0.39557827 12.201313 1.3731458 17.457558 4.9511719 20.445312 C 8.529198 23.433068 14.017653 24.237249 18.599609 20.800781 A 1 1 0 0 0 18.800781 19.400391 A 1 1 0 0 0 17.400391 19.199219 C 13.5371 22.096687 9.1955065 21.382787 6.234375 18.910156 C 3.2732435 16.437525 1.7954347 12.291943 3.953125 7.9765625 C 6.1108153 3.6611819 10.313576 2.3549077 14.068359 3.2402344 C 17.823143 4.125561 21 7.1708864 21 12 L 21 13 C 21 13.749999 20.754756 14.185226 20.398438 14.501953 C 20.042119 14.81868 19.527778 15 19 15 C 18.472222 15 17.957881 14.81868 17.601562 14.501953 C 17.245244 14.185226 17 13.749999 17 13 L 17 12 L 17 8 A 1 1 0 0 0 16 7 A 1 1 0 0 0 15 8 L 15 8.0078125 C 14.162826 7.3762821 13.12305 7 12 7 C 9.2504209 7 7 9.2504209 7 12 C 7 14.749579 9.2504209 17 12 17 C 13.464003 17 14.786493 16.361244 15.703125 15.349609 C 15.869826 15.591733 16.061612 15.809757 16.273438 15.998047 C 17.042119 16.681319 18.027778 17 19 17 C 19.972222 17 20.957881 16.681319 21.726562 15.998047 C 22.495244 15.314774 23 14.25 23 13 L 23 12 C 23 6.2725544 19.064364 2.3646893 14.527344 1.2949219 C 13.960216 1.1612009 13.382149 1.070413 12.798828 1.0253906 z M 12 9 C 13.668699 9 15 10.331301 15 12 C 15 13.668699 13.668699 15 12 15 C 10.331301 15 9 13.668699 9 12 C 9 10.331301 10.331301 9 12 9 z "/>
</svg>
