<?xml version="1.0" encoding="UTF-8" standalone="no"?>
<svg xmlns="http://www.w3.org/2000/svg" xmlns:svg="http://www.w3.org/2000/svg" width="24" height="24" viewBox="0 0 24 24" fill="currentColor" tags="atomic,nuclear,physics,particle,element,molecule,electricity,energy,chemistry" categories="science">
  <path d="M 5.8457031 2.0078125 C 4.8087151 2.0403662 3.813636 2.3695755 3.09375 3.0917969 C 2.370166 3.8118339 2.0403957 4.807777 2.0078125 5.8457031 C 1.9752295 6.8836292 2.2131958 7.9964388 2.6542969 9.1621094 C 3.0022134 10.081527 3.4806406 11.036581 4.0742188 12 C 3.4806406 12.963419 3.0022134 13.918473 2.6542969 14.837891 C 2.2131958 16.003561 1.9752293 17.116371 2.0078125 18.154297 C 2.0403665 19.191285 2.3695755 20.186364 3.0917969 20.90625 L 3.09375 20.90625 L 3.09375 20.908203 C 3.813636 21.630424 4.8087151 21.959634 5.8457031 21.992188 C 6.8836292 22.024767 7.9964388 21.786804 9.1621094 21.345703 C 10.081527 20.997787 11.036581 20.519359 12 19.925781 C 12.963419 20.519359 13.918473 20.997787 14.837891 21.345703 C 16.003561 21.786804 17.116371 22.024771 18.154297 21.992188 C 19.191285 21.959637 20.186364 21.630424 20.90625 20.908203 L 20.90625 20.90625 L 20.908203 20.90625 C 21.630424 20.186364 21.959634 19.191285 21.992188 18.154297 C 22.024767 17.116371 21.786804 16.003561 21.345703 14.837891 C 20.997787 13.918473 20.519359 12.963419 19.925781 12 C 20.519359 11.036581 20.997787 10.081527 21.345703 9.1621094 C 21.786757 7.9964419 22.024772 6.8836292 21.992188 5.8457031 C 21.959634 4.8087151 21.630424 3.813636 20.908203 3.09375 C 20.188166 2.370166 19.192223 2.0403957 18.154297 2.0078125 C 17.116371 1.9752295 16.003561 2.2131958 14.837891 2.6542969 C 13.918473 3.0022134 12.963419 3.4806406 12 4.0742188 C 11.036581 3.4806404 10.081527 3.0022134 9.1621094 2.6542969 C 7.9964388 2.2131958 6.8836292 1.9752293 5.8457031 2.0078125 z M 5.9082031 4.0058594 C 6.5824645 3.9846924 7.4669987 4.1514917 8.4550781 4.5253906 C 9.0013377 4.7321006 9.580608 5.0073146 10.175781 5.3339844 C 9.3026022 6.0007206 8.4350799 6.7541732 7.59375 7.5917969 A 1.0001 1.0001 0 0 0 7.5917969 7.59375 C 6.7541732 8.4350799 6.0007206 9.3026022 5.3339844 10.175781 C 5.0069941 9.5801561 4.7322445 9.0017182 4.5253906 8.4550781 C 4.1514917 7.4669987 3.9846926 6.5824645 4.0058594 5.9082031 C 4.0270264 5.2339417 4.2094434 4.8047286 4.5058594 4.5097656 A 1.0001 1.0001 0 0 0 4.5097656 4.5058594 C 4.8047286 4.2094434 5.2339417 4.0270262 5.9082031 4.0058594 z M 17.830078 4.0058594 C 17.920723 4.0025939 18.007514 4.0032135 18.091797 4.0058594 C 18.766058 4.0270264 19.195271 4.2094434 19.490234 4.5058594 A 1.0001 1.0001 0 0 0 19.494141 4.5097656 C 19.790557 4.8047286 19.972974 5.2339417 19.994141 5.9082031 C 20.015311 6.5824645 19.848508 7.4669987 19.474609 8.4550781 C 19.267756 9.0017182 18.993006 9.580155 18.666016 10.175781 C 17.999279 9.3026022 17.245827 8.4350799 16.408203 7.59375 A 1.0001 1.0001 0 0 0 16.40625 7.5917969 C 15.564921 6.7541721 14.697397 6.000721 13.824219 5.3339844 C 14.419845 5.0069943 14.998282 4.7322445 15.544922 4.5253906 C 16.409491 4.1982291 17.195561 4.0287176 17.830078 4.0058594 z M 12 6.484375 C 13.001648 7.1935778 14.016932 8.0349092 14.994141 9.0078125 C 15.966087 9.9842889 16.806942 10.99913 17.515625 12 C 16.806942 13.00087 15.966087 14.015711 14.994141 14.992188 L 14.992188 14.992188 L 14.992188 14.994141 C 14.015711 15.966087 13.00087 16.806942 12 17.515625 C 10.99913 16.806942 9.9842889 15.966087 9.0078125 14.994141 L 9.0058594 14.992188 C 8.0339085 14.015735 7.1930599 13.000863 6.484375 12 C 7.1935778 10.998352 8.0349092 9.9830676 9.0078125 9.0058594 C 9.9842889 8.033913 10.99913 7.1930585 12 6.484375 z M 12 10 C 10.907275 10 10 10.907275 10 12 C 10 13.092725 10.907275 14 12 14 C 13.092725 14 14 13.092725 14 12 C 14 10.907275 13.092725 10 12 10 z M 5.3339844 13.824219 C 6.0007206 14.697398 6.7541732 15.56492 7.5917969 16.40625 A 1.0001 1.0001 0 0 0 7.59375 16.408203 C 8.4350799 17.245827 9.3026022 17.999279 10.175781 18.666016 C 9.580155 18.993006 9.0017182 19.267756 8.4550781 19.474609 C 7.4669987 19.848508 6.5824645 20.015307 5.9082031 19.994141 C 5.2339417 19.972971 4.8047286 19.790557 4.5097656 19.494141 A 1.0001 1.0001 0 0 0 4.5058594 19.490234 C 4.2094434 19.195271 4.0270262 18.766058 4.0058594 18.091797 C 3.9846924 17.417535 4.1514917 16.533001 4.5253906 15.544922 C 4.7321006 14.998662 5.0073146 14.419392 5.3339844 13.824219 z M 18.666016 13.824219 C 18.993006 14.419845 19.267756 14.998282 19.474609 15.544922 C 19.848508 16.533001 20.015307 17.417535 19.994141 18.091797 C 19.972971 18.766058 19.790557 19.195271 19.494141 19.490234 A 1.0001 1.0001 0 0 0 19.490234 19.494141 C 19.195271 19.790557 18.766058 19.972974 18.091797 19.994141 C 17.417535 20.015311 16.533001 19.848508 15.544922 19.474609 C 14.998282 19.267756 14.419845 18.993006 13.824219 18.666016 C 14.697398 17.999279 15.56492 17.245827 16.40625 16.408203 A 1.0001 1.0001 0 0 0 16.408203 16.40625 C 17.245827 15.56492 17.999279 14.697398 18.666016 13.824219 z "/>
</svg>
