<svg xmlns="http://www.w3.org/2000/svg" xmlns:svg="http://www.w3.org/2000/svg" width="24" height="24" viewBox="0 0 24 24" fill="currentColor" tags="atomic,nuclear,physics,particle,element,molecule,electricity,energy,chemistry" categories="science">
  <path d="M 5.8457031 2.0078125 C 4.8087151 2.0403662 3.813636 2.3695755 3.09375 3.0917969 C 2.370166 3.8118339 2.0403957 4.807777 2.0078125 5.8457031 C 1.9752295 6.8836292 2.2131958 7.9964388 2.6542969 9.1621094 C 3.0022799 10.081703 3.4785293 11.036394 4.0722656 12 C 3.4785306 12.963605 3.0022794 13.918298 2.6542969 14.837891 C 2.2131958 16.003561 1.9752293 17.116371 2.0078125 18.154297 C 2.0403665 19.191285 2.3695755 20.186364 3.0917969 20.90625 L 3.09375 20.90625 L 3.09375 20.908203 C 3.813636 21.630424 4.8087151 21.959634 5.8457031 21.992188 C 6.8836292 22.024767 7.9964388 21.786804 9.1621094 21.345703 C 10.081701 20.997721 11.036395 20.521469 12 19.927734 C 12.963606 20.521471 13.918297 20.99772 14.837891 21.345703 C 16.003561 21.786804 17.116371 22.024771 18.154297 21.992188 C 19.191285 21.959637 20.186364 21.630424 20.90625 20.908203 L 20.90625 20.90625 L 20.908203 20.90625 C 21.630424 20.186364 21.959634 19.191285 21.992188 18.154297 C 22.024767 17.116371 21.786804 16.003561 21.345703 14.837891 C 20.99772 13.918297 20.52147 12.963606 19.927734 12 C 20.521472 11.036393 20.99772 10.081704 21.345703 9.1621094 C 21.786757 7.9964419 22.024772 6.8836292 21.992188 5.8457031 C 21.959634 4.8087151 21.630424 3.813636 20.908203 3.09375 C 20.188166 2.370166 19.192223 2.0403957 18.154297 2.0078125 C 17.116371 1.9752295 16.003561 2.2131958 14.837891 2.6542969 C 13.918297 3.0022799 12.963606 3.4785293 12 4.0722656 C 11.036394 3.4785294 10.081702 3.0022798 9.1621094 2.6542969 C 7.9964388 2.2131958 6.8836292 1.9752293 5.8457031 2.0078125 z M 5.9082031 4.0058594 C 6.5824645 3.9846924 7.4669987 4.1514917 8.4550781 4.5253906 C 9.0024167 4.7325089 9.5813136 5.0025339 10.177734 5.3300781 C 9.3039354 5.9971552 8.4356689 6.7535869 7.59375 7.5917969 A 1.0001 1.0001 0 0 0 7.5917969 7.59375 C 6.7535879 8.4356678 5.9971546 9.3039365 5.3300781 10.177734 C 5.0025284 9.5813113 4.7325057 9.0024083 4.5253906 8.4550781 C 4.1514917 7.4669987 3.9846926 6.5824645 4.0058594 5.9082031 C 4.0270264 5.2339417 4.2094434 4.8047286 4.5058594 4.5097656 A 1.0001 1.0001 0 0 0 4.5097656 4.5058594 C 4.8047286 4.2094434 5.2339417 4.0270262 5.9082031 4.0058594 z M 18.091797 4.0058594 C 18.766058 4.0270264 19.195271 4.2094434 19.490234 4.5058594 A 1.0001 1.0001 0 0 0 19.494141 4.5097656 C 19.790557 4.8047286 19.972974 5.2339417 19.994141 5.9082031 C 20.015311 6.5824645 19.848508 7.4669987 19.474609 8.4550781 C 19.267499 9.0023954 18.997461 9.5813251 18.669922 10.177734 C 18.002853 9.3039501 17.246399 8.4356549 16.408203 7.59375 A 1.0001 1.0001 0 0 0 16.40625 7.5917969 C 15.564341 6.753594 14.696055 5.9971509 13.822266 5.3300781 C 14.418662 5.0025479 14.997615 4.7324967 15.544922 4.5253906 C 16.533001 4.1514917 17.417535 3.9846926 18.091797 4.0058594 z M 12 6.4765625 C 13.001352 7.1856353 14.017229 8.0352047 14.994141 9.0078125 C 15.965916 9.9841172 16.814829 10.999301 17.523438 12 C 16.814828 13.000702 15.965919 14.01588 14.994141 14.992188 L 14.992188 14.992188 L 14.992188 14.994141 C 14.015905 15.965894 13.000677 16.814839 12 17.523438 C 10.999297 16.814827 9.9841215 15.96592 9.0078125 14.994141 L 9.0058594 14.992188 C 8.0340726 14.0159 7.1851752 13.000699 6.4765625 12 C 7.1856263 10.998668 8.0352251 9.9827503 9.0078125 9.0058594 C 9.9841442 8.0340571 10.999274 7.1851826 12 6.4765625 z M 12 10 C 10.907275 10 10 10.907275 10 12 C 10 13.092725 10.907275 14 12 14 C 13.092725 14 14 13.092725 14 12 C 14 10.907275 13.092725 10 12 10 z M 5.3300781 13.822266 C 5.997159 14.696071 6.7535804 15.564325 7.5917969 16.40625 A 1.0001 1.0001 0 0 0 7.59375 16.408203 C 8.435661 17.246405 9.3039437 18.002849 10.177734 18.669922 C 9.5812991 18.997479 9.0024179 19.267491 8.4550781 19.474609 C 7.4669987 19.848508 6.5824645 20.015307 5.9082031 19.994141 C 5.2339417 19.972971 4.8047286 19.790557 4.5097656 19.494141 A 1.0001 1.0001 0 0 0 4.5058594 19.490234 C 4.2094434 19.195271 4.0270262 18.766058 4.0058594 18.091797 C 3.9846924 17.417535 4.1514917 16.533001 4.5253906 15.544922 C 4.7325179 14.99756 5.0025147 14.418714 5.3300781 13.822266 z M 18.669922 13.822266 C 18.997463 14.418677 19.267498 14.997602 19.474609 15.544922 C 19.848508 16.533001 20.015307 17.417535 19.994141 18.091797 C 19.972971 18.766058 19.790557 19.195271 19.494141 19.490234 A 1.0001 1.0001 0 0 0 19.490234 19.494141 C 19.195271 19.790557 18.766058 19.972974 18.091797 19.994141 C 17.417535 20.015311 16.533001 19.848508 15.544922 19.474609 C 14.997603 19.267499 14.418677 18.997462 13.822266 18.669922 C 14.696048 18.002854 15.564347 17.246398 16.40625 16.408203 A 1.0001 1.0001 0 0 0 16.408203 16.40625 C 17.246399 15.564345 18.002853 14.69605 18.669922 13.822266 z "/>
</svg>
