<?xml version="1.0" encoding="UTF-8" standalone="no"?>
<svg xmlns="http://www.w3.org/2000/svg" xmlns:svg="http://www.w3.org/2000/svg" width="24" height="24" viewBox="0 0 24 24" fill="currentColor" tags="sound,noise,listen,hearing,hertz,frequency,wavelength,vibrate,sine,synthesizer,synthesiser,levels,track,music,playback,radio,broadcast,airwaves,voice,vocals,singer,song" categories="multimedia,communication">
  <path d="M 14 1 C 13.277778 1 12.542119 1.2353472 11.960938 1.7519531 C 11.379755 2.268559 11 3.0833335 11 4 L 11 20 C 11 20.416666 10.879756 20.601893 10.710938 20.751953 C 10.542118 20.902014 10.277778 21 10 21 C 9.7222221 21 9.4578806 20.902014 9.2890625 20.751953 C 9.1202444 20.601893 9 20.416666 9 20 L 9 7 C 9 6.0833335 8.6202444 5.268559 8.0390625 4.7519531 C 7.4578806 4.2353472 6.7222221 4 6 4 C 5.2777779 4 4.5421194 4.2353472 3.9609375 4.7519531 C 3.3797556 5.268559 3 6.0833335 3 7 L 3 11 C 3 11.564129 2.5641294 12 2 12 A 1 1 0 0 0 1 13 A 1 1 0 0 0 2 14 C 3.6450096 14 5 12.64501 5 11 L 5 7 C 5 6.5833337 5.1202444 6.3981073 5.2890625 6.2480469 C 5.4578806 6.0979864 5.7222221 6 6 6 C 6.2777779 6 6.5421194 6.0979864 6.7109375 6.2480469 C 6.8797556 6.3981073 7 6.5833337 7 7 L 7 20 C 7 20.916666 7.3797556 21.731441 7.9609375 22.248047 C 8.5421194 22.764653 9.2777779 23 10 23 C 10.722222 23 11.457881 22.764653 12.039062 22.248047 C 12.620243 21.731441 13 20.916666 13 20 L 13 4 C 13 3.5833337 13.120244 3.3981073 13.289062 3.2480469 C 13.45788 3.0979864 13.722222 3 14 3 C 14.277778 3 14.542119 3.0979864 14.710938 3.2480469 C 14.879755 3.3981073 15 3.5833337 15 4 L 15 17 C 15 17.916666 15.379756 18.731441 15.960938 19.248047 C 16.542119 19.764653 17.277778 20 18 20 C 18.722222 20 19.457881 19.764653 20.039062 19.248047 C 20.620244 18.731441 21 17.916666 21 17 L 21 13 C 21 12.435871 21.435871 12 22 12 A 1 1 0 0 0 23 11 A 1 1 0 0 0 22 10 C 20.35499 10 19 11.35499 19 13 L 19 17 C 19 17.416666 18.879756 17.601893 18.710938 17.751953 C 18.542119 17.902014 18.277778 18 18 18 C 17.722222 18 17.457881 17.902014 17.289062 17.751953 C 17.120244 17.601893 17 17.416666 17 17 L 17 4 C 17 3.0833335 16.620244 2.268559 16.039062 1.7519531 C 15.457881 1.2353472 14.722222 1 14 1 z "/>
</svg>
