<svg xmlns="http://www.w3.org/2000/svg" xmlns:svg="http://www.w3.org/2000/svg" width="24" height="24" viewBox="0 0 24 24" fill="currentColor" tags="graphic equaliser,sound,noise,listen,hearing,hertz,frequency,wavelength,vibrate,sine,synthesizer,synthesiser,levels,track,music,playback,radio,broadcast,airwaves,voice,vocals,singer,song" categories="multimedia,communication">
  <path d="M 10 2 A 1 1 0 0 0 9 3 L 9 21 A 1 1 0 0 0 10 22 A 1 1 0 0 0 11 21 L 11 3 A 1 1 0 0 0 10 2 z M 18 4 A 1 1 0 0 0 17 5 L 17 18 A 1 1 0 0 0 18 19 A 1 1 0 0 0 19 18 L 19 5 A 1 1 0 0 0 18 4 z M 6 5 A 1 1 0 0 0 5 6 L 5 17 A 1 1 0 0 0 6 18 A 1 1 0 0 0 7 17 L 7 6 A 1 1 0 0 0 6 5 z M 14 7 A 1 1 0 0 0 13 8 L 13 15 A 1 1 0 0 0 14 16 A 1 1 0 0 0 15 15 L 15 8 A 1 1 0 0 0 14 7 z M 2 9 A 1 1 0 0 0 1 10 L 1 13 A 1 1 0 0 0 2 14 A 1 1 0 0 0 3 13 L 3 10 A 1 1 0 0 0 2 9 z M 22 9 A 1 1 0 0 0 21 10 L 21 13 A 1 1 0 0 0 22 14 A 1 1 0 0 0 23 13 L 23 10 A 1 1 0 0 0 22 9 z "/>
</svg>
