<?xml version="1.0" encoding="UTF-8" standalone="no"?>
<svg xmlns="http://www.w3.org/2000/svg" xmlns:svg="http://www.w3.org/2000/svg" width="24" height="24" viewBox="0 0 24 24" fill="currentColor" tags="achievement,badge,rosette,prize,winner" categories="account,sports,gaming">
  <path d="M 12 1 C 8.1458514 1 5 4.1458514 5 8 C 5 10.112441 5.9468158 12.011341 7.4355469 13.296875 L 6.0234375 21.240234 A 1.0001 1.0001 0 0 0 6.0234375 21.251953 C 5.9176337 21.887027 6.2604607 22.513426 6.75 22.796875 C 7.2395393 23.080324 7.955018 23.06613 8.453125 22.658203 L 12.003906 20 L 15.548828 22.660156 C 16.047334 23.068829 16.762187 23.081061 17.251953 22.796875 C 17.74172 22.512689 18.085943 21.885595 17.978516 21.25 A 1.0001 1.0001 0 0 0 17.976562 21.240234 L 16.564453 13.296875 C 18.053184 12.011341 19 10.112441 19 8 C 19 4.1458514 15.854149 1 12 1 z M 12 3 C 14.773268 3 17 5.2267316 17 8 C 17 10.773268 14.773268 13 12 13 C 10.932177 13 9.9465721 12.667858 9.1367188 12.103516 A 1 1 0 0 0 9.0664062 12.054688 C 7.8126795 11.148553 7 9.6744751 7 8 C 7 5.2267316 9.2267316 3 12 3 z M 9.2636719 14.439453 C 10.105327 14.799364 11.029651 15 12 15 C 12.970349 15 13.894673 14.799364 14.736328 14.439453 L 15.785156 20.335938 L 13.203125 18.398438 A 1.0001 1.0001 0 0 0 13.201172 18.398438 C 12.494795 17.870721 11.513017 17.870721 10.806641 18.398438 A 1.0001 1.0001 0 0 0 10.804688 18.398438 L 8.2167969 20.335938 L 9.2636719 14.439453 z "/>
</svg>
