<?xml version="1.0" encoding="UTF-8" standalone="no"?>
<svg xmlns="http://www.w3.org/2000/svg" xmlns:svg="http://www.w3.org/2000/svg" width="24" height="24" viewBox="0 0 24 24" fill="currentColor" tags="achievement,badge,rosette,prize,winner" categories="account,sports,gaming">
  <path d="M 12 1 C 8.1458591 1 5 4.1458591 5 8 C 5 10.114937 5.9496257 12.015182 7.4414062 13.300781 L 6.0136719 21.835938 A 1.0001 1.0001 0 0 0 7.5136719 22.857422 L 12 20.166016 L 16.486328 22.857422 A 1.0001 1.0001 0 0 0 17.986328 21.835938 L 16.558594 13.300781 C 18.050374 12.015182 19 10.114937 19 8 C 19 4.1458591 15.854141 1 12 1 z M 12 3 C 14.773263 3 17 5.2267372 17 8 C 17 10.773263 14.773263 13 12 13 C 10.942775 13 9.9654401 12.675224 9.1601562 12.121094 A 1 1 0 0 0 9.0429688 12.039062 C 7.8022286 11.131572 7 9.6642852 7 8 C 7 5.2267372 9.2267372 3 12 3 z M 9.2773438 14.445312 C 10.115333 14.801536 11.03492 15 12 15 C 12.96508 15 13.884667 14.801536 14.722656 14.445312 L 15.65625 20.027344 L 12.513672 18.142578 A 1.0001 1.0001 0 0 0 11.486328 18.142578 L 8.34375 20.027344 L 9.2773438 14.445312 z "/>
</svg>
