<?xml version="1.0" encoding="UTF-8" standalone="no"?>
<svg xmlns="http://www.w3.org/2000/svg" xmlns:svg="http://www.w3.org/2000/svg" width="24" height="24" viewBox="0 0 24 24" fill="currentColor" tags="achievement,badge,rosette,prize,winner" categories="account,sports,gaming">
  <path d="M 12 1 C 8.1458591 1 5 4.1458591 5 8 C 5 10.112436 5.9468168 12.011341 7.4355469 13.296875 L 6.0234375 21.240234 A 1.0001 1.0001 0 0 0 6.0234375 21.251953 C 5.9176339 21.887025 6.2604617 22.513426 6.75 22.796875 C 7.2395383 23.080324 7.955019 23.066129 8.453125 22.658203 L 12.003906 20 L 15.548828 22.660156 C 16.047334 23.068829 16.762188 23.08106 17.251953 22.796875 C 17.741719 22.51269 18.085943 21.885594 17.978516 21.25 A 1.0001 1.0001 0 0 0 17.976562 21.240234 L 16.564453 13.296875 C 18.053183 12.011341 19 10.112436 19 8 C 19 4.1458591 15.854141 1 12 1 z M 12 3 C 14.773263 3 17 5.2267372 17 8 C 17 10.773263 14.773263 13 12 13 C 10.939243 13 9.9591603 12.672761 9.1523438 12.115234 A 1 1 0 0 0 9.0351562 12.03125 A 1 1 0 0 0 9.03125 12.029297 C 7.797508 11.12112 7 9.6587826 7 8 C 7 5.2267372 9.2267372 3 12 3 z M 9.2636719 14.439453 C 10.105326 14.799364 11.029653 15 12 15 C 12.970347 15 13.894674 14.799364 14.736328 14.439453 L 15.785156 20.335938 L 13.203125 18.398438 A 1.0001 1.0001 0 0 0 13.201172 18.398438 C 12.494797 17.870722 11.513015 17.870722 10.806641 18.398438 A 1.0001 1.0001 0 0 0 10.804688 18.398438 L 8.2167969 20.335938 L 9.2636719 14.439453 z "/>
</svg>
