<?xml version="1.0" encoding="UTF-8" standalone="no"?>
<svg xmlns="http://www.w3.org/2000/svg" xmlns:svg="http://www.w3.org/2000/svg" width="24" height="24" viewBox="0 0 24 24" fill="currentColor" tags="hatchet,weapon,chop,sharp,equipment,fireman,firefighter,brigade,lumberjack,woodcutter,logger,forestry" categories="tools,gaming">
  <path d="M 13 2 A 1.0001 1.0001 0 0 0 12.292969 2.2929688 L 8.2929688 6.2929688 A 1.0001 1.0001 0 0 0 8.2929688 7.7070312 L 9.5859375 9 L 1.7929688 16.792969 C 1.1161922 17.469745 0.79825378 18.345708 0.84570312 19.152344 C 0.89315243 19.95898 1.2608341 20.674896 1.7929688 21.207031 C 2.3251035 21.739166 3.0410203 22.106848 3.8476562 22.154297 C 4.6542921 22.201747 5.5302547 21.883808 6.2070312 21.207031 L 14 13.414062 L 14 16 A 1.0001 1.0001 0 0 0 15.117188 16.992188 C 19.240884 16.502118 22.502117 13.240884 22.992188 9.1171875 A 1.0001 1.0001 0 0 0 22 8 L 19.414062 8 L 13.707031 2.2929688 A 1.0001 1.0001 0 0 0 13 2 z M 13 4.4140625 L 18.292969 9.7070312 A 1.0001 1.0001 0 0 0 19 10 L 20.677734 10 C 20.007707 12.276141 18.276141 14.007707 16 14.677734 L 16 13 A 1.0001 1.0001 0 0 0 15.707031 12.292969 L 14.707031 11.292969 L 11.707031 8.2929688 L 10.414062 7 L 13 4.4140625 z M 11 10.414062 L 12.585938 12 L 4.7929688 19.792969 C 4.4697458 20.116192 4.2207076 20.173254 3.9648438 20.158203 C 3.7089798 20.143152 3.4248965 20.010834 3.2070312 19.792969 C 2.9891659 19.575104 2.8568477 19.29102 2.8417969 19.035156 C 2.826746 18.779292 2.8838082 18.530254 3.2070312 18.207031 L 11 10.414062 z "/>
</svg>
