<svg xmlns="http://www.w3.org/2000/svg" xmlns:svg="http://www.w3.org/2000/svg" width="24" height="24" viewBox="0 0 24 24" fill="currentColor" tags="hatchet,weapon,chop,sharp,equipment,fireman,firefighter,brigade,lumberjack,woodcutter,logger,forestry" categories="tools,gaming">
  <path d="M 12.5 2.0058594 C 11.93365 2.0058594 11.36776 2.2182412 10.941406 2.6445312 L 8.6445312 4.9414062 C 7.7919513 5.7941135 7.7919514 7.2058865 8.6445312 8.0585938 L 9.5859375 9 L 1.9101562 16.671875 A 1.0001 1.0001 0 0 0 1.9101562 16.673828 C 1.2334092 17.350801 0.91530163 18.226487 0.96289062 19.033203 C 1.0104796 19.83992 1.3798234 20.555782 1.9121094 21.087891 C 2.4443953 21.619999 3.1600645 21.987836 3.9667969 22.035156 C 4.7735292 22.082476 5.6494248 21.764863 6.3261719 21.087891 L 13.9375 13.476562 C 13.97905 13.587548 13.999974 13.707084 14 13.828125 L 14 15.5 C 14 16.316582 14.683418 17 15.5 17 C 19.630291 17 23 13.630291 23 9.5 C 23 8.6834175 22.316582 8 21.5 8 L 19.828125 8 C 19.562546 7.9999433 19.308858 7.8948522 19.121094 7.7070312 L 14.058594 2.6445312 C 13.63224 2.2182412 13.06635 2.0058594 12.5 2.0058594 z M 12.5 3.9921875 C 12.550158 3.9921875 12.600318 4.0143867 12.644531 4.0585938 L 17.707031 9.1210938 C 18.269238 9.6834702 19.032925 9.9998302 19.828125 10 L 20.900391 10 C 20.653801 12.627155 18.627155 14.653801 16 14.900391 L 16 13.828125 C 15.99983 13.032925 15.68347 12.269238 15.121094 11.707031 L 14.707031 11.292969 L 11.707031 8.2929688 L 10.058594 6.6445312 C 9.9701797 6.5561042 9.9701797 6.4438959 10.058594 6.3554688 L 12.355469 4.0585938 C 12.399684 4.0143867 12.449842 3.9921875 12.5 3.9921875 z M 11 10.414062 L 12.585938 12 L 4.9121094 19.671875 A 1.0001 1.0001 0 0 0 4.9121094 19.673828 C 4.5888569 19.997094 4.3399393 20.054076 4.0839844 20.039062 C 3.8280294 20.02405 3.5441359 19.89172 3.3261719 19.673828 C 3.1082078 19.455937 2.9760362 19.171966 2.9609375 18.916016 C 2.9458388 18.660066 3.0029194 18.411251 3.3261719 18.087891 L 11 10.414062 z "/>
</svg>
