<?xml version="1.0" encoding="UTF-8" standalone="no"?>
<svg xmlns="http://www.w3.org/2000/svg" xmlns:svg="http://www.w3.org/2000/svg" width="24" height="24" viewBox="0 0 24 24" fill="currentColor" tags="gizmo,coordinates" categories="design">
  <path d="M 4 3 A 1 1 0 0 0 3 4 L 3 20 A 1.0001 1.0001 0 0 0 3.0078125 20.130859 A 1.0001 1.0001 0 0 0 3.0761719 20.382812 A 1.0001 1.0001 0 0 0 3.6171875 20.923828 A 1.0001 1.0001 0 0 0 3.8691406 20.992188 A 1.0001 1.0001 0 0 0 4 21 L 20 21 A 1 1 0 0 0 21 20 A 1 1 0 0 0 20 19 L 6.4140625 19 L 11.707031 13.707031 A 1 1 0 0 0 11.707031 12.292969 A 1 1 0 0 0 11 12 A 1 1 0 0 0 10.292969 12.292969 L 5 17.585938 L 5 4 A 1 1 0 0 0 4 3 z "/>
</svg>
