<svg xmlns="http://www.w3.org/2000/svg" xmlns:svg="http://www.w3.org/2000/svg" width="24" height="24" viewBox="0 0 24 24" fill="currentColor" tags="gizmo,coordinates" categories="design">
  <path d="M 4 3 A 1 1 0 0 0 3 4 L 3 19 C 3 19.492131 3.1842151 19.945914 3.4863281 20.296875 A 1 1 0 0 0 3.5859375 20.414062 A 1 1 0 0 0 3.703125 20.513672 C 4.0540864 20.815785 4.5078685 21 5 21 L 20 21 A 1 1 0 0 0 21 20 A 1 1 0 0 0 20 19 L 6.4140625 19 L 6.7070312 18.707031 A 1 1 0 0 0 6.7070312 17.292969 A 1 1 0 0 0 5.2929688 17.292969 L 5 17.585938 L 5 4 A 1 1 0 0 0 4 3 z M 15 8 A 1 1 0 0 0 14.292969 8.2929688 L 12.792969 9.7929688 A 1 1 0 0 0 12.792969 11.207031 A 1 1 0 0 0 14.207031 11.207031 L 15.707031 9.7070312 A 1 1 0 0 0 15.707031 8.2929688 A 1 1 0 0 0 15 8 z M 10.5 12.5 A 1 1 0 0 0 9.7929688 12.792969 L 8.2929688 14.292969 A 1 1 0 0 0 8.2929688 15.707031 A 1 1 0 0 0 9.7070312 15.707031 L 11.207031 14.207031 A 1 1 0 0 0 11.207031 12.792969 A 1 1 0 0 0 10.5 12.5 z "/>
</svg>
