<?xml version="1.0" encoding="UTF-8" standalone="no"?>
<svg xmlns="http://www.w3.org/2000/svg" xmlns:svg="http://www.w3.org/2000/svg" width="24" height="24" viewBox="0 0 24 24" fill="currentColor" tags="child,childproof,children" categories="accessibility,people">
  <path d="M 11.998047 2 C 7.3736492 2.0093345 3.4128401 5.2223592 2.3417969 9.6914062 C 0.83038273 10.860791 0.83129763 13.145612 2.3457031 14.3125 C 3.5723628 19.277723 7.7971878 21.914063 12 21.914062 C 16.202812 21.914062 20.427637 19.277723 21.654297 14.3125 C 23.157833 13.153986 23.166509 10.897584 21.6875 9.71875 C 21.354949 8.2470509 20.723819 6.857327 19.78125 5.6757812 A 1 1 0 0 0 18.376953 5.5175781 A 1 1 0 0 0 18.21875 6.9238281 C 19.02408 7.9333388 19.572629 9.1228379 19.818359 10.390625 A 1.0001 1.0001 0 0 0 20.363281 11.099609 C 21.175265 11.492871 21.175265 12.507129 20.363281 12.900391 A 1.0001 1.0001 0 0 0 19.822266 13.589844 C 18.900841 17.887359 15.485439 19.914063 12 19.914062 C 8.5145607 19.914062 5.099159 17.887359 4.1777344 13.589844 A 1.0001 1.0001 0 0 0 3.6367188 12.900391 C 2.8247349 12.507129 2.8247349 11.492871 3.6367188 11.099609 A 1.0001 1.0001 0 0 0 4.1796875 10.400391 C 4.939841 6.6763742 8.19939 4.0085986 12 4 C 12.816667 4 13.4934 4.2328264 13.916016 4.5371094 C 14.338631 4.8413924 14.5 5.1571429 14.5 5.5 C 14.5 6.4714286 13.933333 7 13.5 7 C 13.273776 7 13.072912 6.9313649 12.994141 6.8847656 A 1 1 0 0 0 12 6 A 1 1 0 0 0 11 7 C 11 7.6888889 11.437244 8.2649303 11.914062 8.5683594 C 12.390879 8.8717884 12.933333 9 13.5 9 C 15.266667 9 16.5 7.3285714 16.5 5.5 C 16.5 4.4428571 15.911369 3.5097795 15.083984 2.9140625 C 14.2566 2.3183455 13.183333 2 12 2 A 1.0001 1.0001 0 0 0 11.998047 2 z M 9 11 A 1 1 0 0 0 8 12 A 1 1 0 0 0 9 13 L 9.0097656 13 A 1 1 0 0 0 10.009766 12 A 1 1 0 0 0 9.0097656 11 L 9 11 z M 15 11 A 1 1 0 0 0 14 12 A 1 1 0 0 0 15 13 L 15.009766 13 A 1 1 0 0 0 16.009766 12 A 1 1 0 0 0 15.009766 11 L 15 11 z M 10.017578 15 A 1 1 0 0 0 9.7578125 15.029297 A 1 1 0 0 0 9.1425781 15.486328 A 1 1 0 0 0 9.4863281 16.857422 C 10.171278 17.268392 11.033333 17.5 12 17.5 C 12.966667 17.5 13.828722 17.268392 14.513672 16.857422 A 1 1 0 0 0 14.857422 15.486328 A 1 1 0 0 0 13.486328 15.142578 C 13.171278 15.331608 12.633333 15.5 12 15.5 C 11.366667 15.5 10.828722 15.331608 10.513672 15.142578 A 1 1 0 0 0 10.017578 15 z "/>
</svg>
