<?xml version="1.0" encoding="UTF-8" standalone="no"?>
<svg xmlns="http://www.w3.org/2000/svg" xmlns:svg="http://www.w3.org/2000/svg" width="24" height="24" viewBox="0 0 24 24" fill="currentColor" tags="bag,hiking,travel,camping,school,childhood" categories="gaming,photography,travel">
  <path d="M 11 1 C 9.3549936 1 8 2.3549936 8 4 L 8 5 C 5.2504263 5 3 7.2504263 3 10 L 3 20 C 3 21.645006 4.3549936 23 6 23 L 18 23 C 19.645006 23 21 21.645006 21 20 L 21 10 C 21 7.2504263 18.749573 5 16 5 L 16 4 C 16 2.3549936 14.645006 1 13 1 L 11 1 z M 11 3 L 13 3 C 13.564128 3 14 3.4358718 14 4 L 14 5 L 10 5 L 10 4 C 10 3.4358718 10.435872 3 11 3 z M 8 7 L 16 7 C 17.668695 7 19 8.3313045 19 10 L 19 20 C 19 20.564128 18.564128 21 18 21 L 17 21 L 17 18 L 17 16 C 17 14.354994 15.645006 13 14 13 L 10 13 C 8.3549936 13 7 14.354994 7 16 L 7 18 L 7 21 L 6 21 C 5.4358718 21 5 20.564128 5 20 L 5 10 C 5 8.3313045 6.3313045 7 8 7 z M 8 9 A 1 1 0 0 0 7 10 A 1 1 0 0 0 8 11 L 16 11 A 1 1 0 0 0 17 10 A 1 1 0 0 0 16 9 L 8 9 z M 10 15 L 14 15 C 14.564128 15 15 15.435872 15 16 L 15 17 L 9 17 L 9 16 C 9 15.435872 9.4358718 15 10 15 z M 9 19 L 15 19 L 15 21 L 9 21 L 9 19 z "/>
</svg>
