<?xml version="1.0" encoding="UTF-8" standalone="no"?>
<svg xmlns="http://www.w3.org/2000/svg" xmlns:svg="http://www.w3.org/2000/svg" width="24" height="24" viewBox="0 0 24 24" fill="currentColor" tags="baggage,luggage,travel,cart,trolley,suitcase" categories="transportation,travel">
  
  <path d="M 14 1 C 12.354994 1 11 2.3549936 11 4 L 11 5 L 9 5 C 7.9092994 5 7 5.9092994 7 7 L 7 13 C 7 14.090701 7.9092994 15 9 15 L 20 15 C 21.090701 15 22 14.090701 22 13 L 22 7 C 22 5.9092994 21.090701 5 20 5 L 18 5 L 18 4 C 18 2.3549936 16.645006 1 15 1 L 14 1 z M 14 3 L 15 3 C 15.564128 3 16 3.4358718 16 4 L 16 5 L 13 5 L 13 4 C 13 3.4358718 13.435872 3 14 3 z M 2 4 A 1 1 0 0 0 1 5 A 1 1 0 0 0 2 6 C 2.5641282 6 3 6.4358718 3 7 L 3 16 C 3 17.645006 4.3549936 19 6 19 L 6.1738281 19 C 6.061622 19.313218 6 19.65035 6 20 C 6 21.645006 7.3549936 23 9 23 C 10.645006 23 12 21.645006 12 20 C 12 19.65035 11.938378 19.313218 11.826172 19 L 15.173828 19 C 15.061622 19.313218 15 19.65035 15 20 C 15 21.645006 16.354994 23 18 23 C 19.645006 23 21 21.645006 21 20 C 21 19.65035 20.938378 19.313218 20.826172 19 L 22 19 A 1 1 0 0 0 23 18 A 1 1 0 0 0 22 17 L 9 17 L 6 17 C 5.4358718 17 5 16.564128 5 16 L 5 7 C 5 5.3549936 3.6450064 4 2 4 z M 9 7 L 11 7 L 11 13 L 9 13 L 9 7 z M 13 7 L 16 7 L 16 13 L 13 13 L 13 7 z M 18 7 L 20 7 L 20 13 L 18 13 L 18 7 z M 9 19 C 9.5641282 19 10 19.435872 10 20 C 10 20.564128 9.5641282 21 9 21 C 8.4358718 21 8 20.564128 8 20 C 8 19.435872 8.4358718 19 9 19 z M 18 19 C 18.564128 19 19 19.435872 19 20 C 19 20.564128 18.564128 21 18 21 C 17.435872 21 17 20.564128 17 20 C 17 19.435872 17.435872 19 18 19 z "/>
</svg>
