<svg xmlns="http://www.w3.org/2000/svg" xmlns:svg="http://www.w3.org/2000/svg" width="24" height="24" viewBox="0 0 24 24" fill="currentColor" tags="party,festival,congratulations,celebration,decoration,colorful,floating,fun,birthday,event,entertainment" categories="emoji">
  <path d="M 12 1 C 8.1458524 1 5 4.1458495 5 8 C 5 10.291667 5.9716751 12.469361 7.2792969 14.121094 C 8.3381435 15.458584 9.608207 16.518466 11 16.873047 L 11 17 C 11 18.64501 12.35499 20 14 20 L 15 20 C 15.564129 20 16 20.435871 16 21 L 16 22 A 1 1 0 0 0 17 23 A 1 1 0 0 0 18 22 L 18 21 C 18 19.35499 16.64501 18 15 18 L 14 18 C 13.435871 18 13 17.564129 13 17 L 13 16.873047 C 14.391793 16.518466 15.661856 15.458584 16.720703 14.121094 C 18.028325 12.469361 19 10.291667 19 8 C 19 4.1458495 15.854148 1 12 1 z M 12 3 C 14.773269 3 17 5.226729 17 8 C 17 9.7083333 16.221675 11.530639 15.154297 12.878906 C 14.086919 14.227173 12.716667 15 12 15 C 11.283333 15 9.9130813 14.227173 8.8457031 12.878906 C 7.7783249 11.530639 7 9.7083333 7 8 C 7 5.226729 9.2267307 3 12 3 z M 12 5 A 1 1 0 0 0 11 6 A 1 1 0 0 0 12 7 C 12.564129 7 13 7.4358706 13 8 A 1 1 0 0 0 14 9 A 1 1 0 0 0 15 8 C 15 6.3549904 13.64501 5 12 5 z "/>
</svg>
