<svg xmlns="http://www.w3.org/2000/svg" xmlns:svg="http://www.w3.org/2000/svg" width="24" height="24" viewBox="0 0 24 24" fill="currentColor" tags="cancel,no,stop,forbidden,prohibited,error,incorrect,mistake,wrong,failure,circle,slash,null,void" categories="account">
  <path d="M 12 1 C 9.0062578 1 6.2866056 2.2039471 4.3007812 4.1523438 A 1 1 0 0 0 4.2226562 4.2226562 A 1 1 0 0 0 4.1523438 4.3007812 C 2.2039471 6.2866056 1 9.0062578 1 12 C 1 18.063288 5.9367124 23 12 23 C 14.993742 23 17.713395 21.796052 19.699219 19.847656 A 1 1 0 0 0 19.777344 19.777344 A 1 1 0 0 0 19.847656 19.699219 C 21.796052 17.713395 23 14.993742 23 12 C 23 5.9367124 18.063288 1 12 1 z M 12 3 C 16.982407 3 21 7.0175926 21 12 C 21 14.129793 20.264934 16.082337 19.035156 17.621094 L 6.3789062 4.9648438 C 7.9176632 3.7350659 9.870207 3 12 3 z M 4.9648438 6.3789062 L 17.621094 19.035156 C 16.082337 20.264934 14.129793 21 12 21 C 7.0175926 21 3 16.982407 3 12 C 3 9.870207 3.7350659 7.9176632 4.9648438 6.3789062 z "/>
</svg>
