<?xml version="1.0" encoding="UTF-8" standalone="no"?>
<svg xmlns="http://www.w3.org/2000/svg" xmlns:svg="http://www.w3.org/2000/svg" width="24" height="24" viewBox="0 0 24 24" fill="currentColor" tags="cancel,no,stop,forbidden,prohibited,error,incorrect,mistake,wrong,failure,circle,slash,null,void" categories="account">
  <path d="M 12 1 C 9.0643254 1 6.3949532 2.1589155 4.4199219 4.0410156 A 1 1 0 0 0 4.1933594 4.1933594 A 1 1 0 0 0 4.0410156 4.4199219 C 2.1589155 6.3949532 1 9.0643254 1 12 C 1 18.063288 5.9367124 23 12 23 C 14.935675 23 17.605047 21.841084 19.580078 19.958984 A 1 1 0 0 0 19.806641 19.806641 A 1 1 0 0 0 19.992188 19.542969 C 21.854097 17.571538 23 14.917851 23 12 C 23 5.9367124 18.063288 1 12 1 z M 12 3 C 16.982407 3 21 7.0175926 21 12 C 21 14.129593 20.264726 16.082403 19.035156 17.621094 L 6.3789062 4.9648438 C 7.9175966 3.7352745 9.870407 3 12 3 z M 4.9648438 6.3789062 L 17.621094 19.035156 C 16.082403 20.264726 14.129593 21 12 21 C 7.0175926 21 3 16.982407 3 12 C 3 9.870407 3.7352745 7.9175966 4.9648438 6.3789062 z "/>
</svg>
