<?xml version="1.0" encoding="UTF-8" standalone="no"?>
<svg xmlns="http://www.w3.org/2000/svg" xmlns:svg="http://www.w3.org/2000/svg" width="24" height="24" viewBox="0 0 24 24" fill="currentColor" tags="cancel,no,stop,forbidden,prohibited,error,incorrect,mistake,wrong,failure,circle,slash,null,void" categories="account">
  <path d="M 12 1 C 9.0815173 1 6.4246858 2.1432358 4.453125 4.0058594 A 1 1 0 0 0 4.1933594 4.1933594 A 1 1 0 0 0 4.0058594 4.453125 C 2.1431409 6.424703 1 9.0814335 1 12 C 1 18.063288 5.9367124 23 12 23 C 14.918566 23 17.575297 21.856858 19.546875 19.994141 A 1 1 0 0 0 19.806641 19.806641 A 1 1 0 0 0 19.994141 19.546875 C 21.856858 17.575297 23 14.918566 23 12 C 23 5.9367124 18.063288 1 12 1 z M 12 3 C 16.982407 3 21 7.0175926 21 12 C 21 14.129793 20.264934 16.082337 19.035156 17.621094 L 6.3789062 4.9648438 C 7.9176632 3.7350659 9.870207 3 12 3 z M 4.9648438 6.3789062 L 17.621094 19.035156 C 16.082337 20.264934 14.129793 21 12 21 C 7.0175926 21 3 16.982407 3 12 C 3 9.870207 3.7350659 7.9176632 4.9648438 6.3789062 z "/>
</svg>
