<?xml version="1.0" encoding="UTF-8" standalone="no"?>
<svg xmlns="http://www.w3.org/2000/svg" xmlns:svg="http://www.w3.org/2000/svg" width="24" height="24" viewBox="0 0 24 24" fill="currentColor" tags="fruit,food" categories="food-beverage">
  <path d="M 13 1 C 12.402778 1 11.793541 1.2472861 11.410156 1.6699219 C 11.026772 2.0925577 10.8645 2.6036716 10.796875 3.1015625 C 10.661624 4.0973443 10.868905 5.1590365 11.197266 6.1933594 A 1.0001 1.0001 0 0 0 11.199219 6.1972656 C 11.74493 7.8873689 11.710711 9.6077603 11.195312 11.173828 C 10.715646 10.970817 10.214584 10.83085 9.6992188 10.759766 C 7.6092985 10.471501 5.4141973 11.039264 3.5039062 12.130859 A 1 1 0 0 0 3.1308594 13.496094 A 1 1 0 0 0 4.4960938 13.869141 C 6.0858028 12.960736 7.8907013 12.528499 9.4257812 12.740234 C 9.7496201 12.784902 10.061773 12.853475 10.361328 12.951172 C 9.2127922 14.796061 7.3142029 16.256806 4.8847656 16.925781 A 1.0001 1.0001 0 0 0 4.8808594 16.925781 C 3.9155356 17.194728 3.1234893 17.32039 2.3710938 17.699219 C 1.9948958 17.888633 1.6132092 18.176757 1.3574219 18.591797 C 1.1016346 19.006837 1 19.498333 1 20 C 1 20.759167 1.3581018 21.475892 1.8730469 21.916016 C 2.387992 22.35614 2.998762 22.578404 3.6289062 22.724609 C 4.8891944 23.01702 6.3097656 23 7.5097656 23 C 10.946234 23 13.873882 21.468636 15.878906 19.080078 C 16.735377 18.059776 17.429002 16.886749 17.943359 15.607422 C 19.697799 16.192951 21.039308 17.852783 21 19.982422 A 1 1 0 0 0 21.982422 21 A 1 1 0 0 0 23 20.017578 C 23.05578 16.995476 21.066846 14.67283 18.513672 13.871094 C 18.832991 12.639508 19 11.337214 19 10 C 19 8.5126667 18.528275 6.4585052 17.601562 4.6132812 C 17.138206 3.6906693 16.558168 2.8269958 15.806641 2.1542969 C 15.055113 1.481598 14.089679 1 13 1 z M 13 3 C 13.520321 3 13.984809 3.205902 14.472656 3.6425781 C 14.960503 4.0792542 15.430309 4.7468308 15.814453 5.5117188 C 16.582741 7.0414949 17 8.9873333 17 10 C 17 11.245097 16.834154 12.445479 16.523438 13.566406 C 15.810597 13.568403 15.084529 13.687832 14.371094 13.9375 C 13.944108 13.281118 13.450728 12.712588 12.90625 12.244141 C 13.708863 10.173205 13.835032 7.8535645 13.101562 5.5820312 C 12.831488 4.7285252 12.714723 3.8465181 12.779297 3.3710938 C 12.811672 3.1327346 12.88026 3.0250986 12.890625 3.0136719 L 12.890625 3.0117188 L 12.892578 3.0117188 L 12.892578 3.0097656 L 12.890625 3.0078125 L 12.890625 3.0058594 L 12.890625 3.0039062 L 12.892578 3.0019531 C 12.899529 2.9999635 12.923611 3 13 3 z M 12.048828 13.964844 C 12.447234 14.351946 12.801859 14.840045 13.105469 15.447266 A 1.0001 1.0001 0 0 0 14.455078 15.890625 C 14.910036 15.658346 15.37531 15.509707 15.837891 15.435547 C 15.433889 16.303958 14.932896 17.097733 14.347656 17.794922 C 12.68018 19.781364 10.363298 21 7.5097656 21 C 6.3097656 21 4.9747898 20.98298 4.0800781 20.775391 C 3.6327223 20.671596 3.317008 20.51886 3.1738281 20.396484 C 3.0306482 20.274108 3 20.240833 3 20 C 3 19.751667 3.0397719 19.674335 3.0605469 19.640625 C 3.0813219 19.606915 3.1114319 19.566915 3.2714844 19.486328 C 3.5913207 19.325292 4.3726563 19.144139 5.4160156 18.853516 C 8.3167456 18.054764 10.633585 16.252339 12.048828 13.964844 z "/>
</svg>
