<?xml version="1.0" encoding="UTF-8" standalone="no"?>
<svg xmlns="http://www.w3.org/2000/svg" xmlns:svg="http://www.w3.org/2000/svg" width="24" height="24" viewBox="0 0 24 24" fill="currentColor" tags="fruit,food" categories="food-beverage">
  <path d="M 13 1 C 12.402778 1 11.793541 1.2472861 11.410156 1.6699219 C 11.026772 2.0925577 10.8645 2.6036716 10.796875 3.1015625 C 10.661624 4.0973443 10.868905 5.1590365 11.197266 6.1933594 A 1.0001 1.0001 0 0 0 11.199219 6.1972656 C 11.744981 7.8875271 11.708896 9.6076425 11.193359 11.173828 C 10.714111 10.971133 10.214091 10.830782 9.6992188 10.759766 C 7.6092985 10.471501 5.4141973 11.039264 3.5039062 12.130859 A 1 1 0 0 0 3.1308594 13.496094 A 1 1 0 0 0 4.4960938 13.869141 C 6.0858028 12.960736 7.8907013 12.528499 9.4257812 12.740234 C 9.7489006 12.784803 10.060428 12.855771 10.359375 12.953125 C 9.2107175 14.79711 7.3133631 16.257037 4.8847656 16.925781 A 1.0001 1.0001 0 0 0 4.8808594 16.925781 C 3.9155356 17.194728 3.1234893 17.32039 2.3710938 17.699219 C 1.9948958 17.888633 1.6132092 18.176757 1.3574219 18.591797 C 1.1016346 19.006837 1 19.498333 1 20 C 1 20.759167 1.3581018 21.475892 1.8730469 21.916016 C 2.387992 22.35614 2.998762 22.578404 3.6289062 22.724609 C 4.8891944 23.01702 6.3097656 23 7.5097656 23 C 10.946234 23 13.873882 21.468636 15.878906 19.080078 C 16.735005 18.060219 17.427116 16.886102 17.941406 15.607422 C 19.69715 16.192161 21.039328 17.851707 21 19.982422 A 1 1 0 0 0 21.982422 21 A 1 1 0 0 0 23 20.017578 C 23.05579 16.994948 21.065536 14.674391 18.511719 13.873047 C 18.831678 12.640344 19 11.338582 19 10 C 19 8.5126667 18.528275 6.4585052 17.601562 4.6132812 C 17.138206 3.6906693 16.558168 2.8269958 15.806641 2.1542969 C 15.055113 1.481598 14.089679 1 13 1 z M 13 3 C 13.520321 3 13.984809 3.205902 14.472656 3.6425781 C 14.960503 4.0792542 15.430309 4.7468308 15.814453 5.5117188 C 16.582741 7.0414949 17 8.9873333 17 10 C 17 11.246813 16.831076 12.448062 16.519531 13.570312 C 15.807724 13.572657 15.083456 13.688207 14.371094 13.9375 C 13.943767 13.280594 13.449291 12.712804 12.904297 12.244141 C 13.706615 10.173421 13.834932 7.8532532 13.101562 5.5820312 C 12.831488 4.7285252 12.714723 3.8465181 12.779297 3.3710938 C 12.811672 3.1327346 12.88026 3.0250986 12.890625 3.0136719 C 12.90099 3.0022452 12.847222 3 13 3 z M 12.046875 13.964844 C 12.445888 14.352177 12.801479 14.839287 13.105469 15.447266 A 1.0001 1.0001 0 0 0 14.455078 15.890625 C 14.908652 15.659052 15.372794 15.511889 15.833984 15.4375 C 15.430284 16.304452 14.932056 17.098734 14.347656 17.794922 C 12.68018 19.781364 10.363298 21 7.5097656 21 C 6.3097656 21 4.9747898 20.98298 4.0800781 20.775391 C 3.6327223 20.671596 3.317008 20.51886 3.1738281 20.396484 C 3.0306482 20.274108 3 20.240833 3 20 C 3 19.751667 3.0397719 19.674335 3.0605469 19.640625 C 3.0813219 19.606915 3.1114319 19.566915 3.2714844 19.486328 C 3.5913207 19.325292 4.3726563 19.144139 5.4160156 18.853516 C 8.3163578 18.054871 10.63158 16.251903 12.046875 13.964844 z "/>
</svg>
