<?xml version="1.0" encoding="UTF-8" standalone="no"?>
<svg xmlns="http://www.w3.org/2000/svg" xmlns:svg="http://www.w3.org/2000/svg" width="24" height="24" viewBox="0 0 24 24" fill="currentColor" tags="plaster,band-aid,first aid,medical,health,wound,injury,care,treatment,healing,protection,emergency,aid,safety" categories="medical">
  <path d="M 4 5 C 2.3553005 5 1 6.3553005 1 8 L 1 16 C 1 17.644699 2.3553005 19 4 19 L 6 19 L 20 19 C 21.644699 19 23 17.644699 23 16 L 23 8 C 23 6.3553005 21.644699 5 20 5 L 18 5 L 6 5 L 4 5 z M 4 7 L 5 7 L 5 17 L 4 17 C 3.4287039 17 3 16.571296 3 16 L 3 8 C 3 7.4287039 3.4287039 7 4 7 z M 7 7 L 17 7 L 17 17 L 7 17 L 7 7 z M 19 7 L 20 7 C 20.571296 7 21 7.4287039 21 8 L 21 16 C 21 16.571296 20.571296 17 20 17 L 19 17 L 19 7 z M 10 9.0097656 A 1 1 0 0 0 9 10.009766 A 1 1 0 0 0 10 11.009766 L 10.009766 11.009766 A 1 1 0 0 0 11.009766 10.009766 A 1 1 0 0 0 10.009766 9.0097656 L 10 9.0097656 z M 14 9.0097656 A 1 1 0 0 0 13 10.009766 A 1 1 0 0 0 14 11.009766 L 14.009766 11.009766 A 1 1 0 0 0 15.009766 10.009766 A 1 1 0 0 0 14.009766 9.0097656 L 14 9.0097656 z M 10 13.009766 A 1 1 0 0 0 9 14.009766 A 1 1 0 0 0 10 15.009766 L 10.009766 15.009766 A 1 1 0 0 0 11.009766 14.009766 A 1 1 0 0 0 10.009766 13.009766 L 10 13.009766 z M 14 13.009766 A 1 1 0 0 0 13 14.009766 A 1 1 0 0 0 14 15.009766 L 14.009766 15.009766 A 1 1 0 0 0 15.009766 14.009766 A 1 1 0 0 0 14.009766 13.009766 L 14 13.009766 z "/>
</svg>
