<svg xmlns="http://www.w3.org/2000/svg" xmlns:svg="http://www.w3.org/2000/svg" width="24" height="24" viewBox="0 0 24 24" fill="currentColor" tags="bill,currency,money,payment,funds,transaction,cash,finance,deposit,earnings,income,in,credit,prepaid,growth,increase" categories="finance">
  <path d="M 4 5 C 2.3549904 5 1 6.3549904 1 8 L 1 16 C 1 17.64501 2.3549904 19 4 19 L 12 19 A 1 1 0 0 0 13 18 A 1 1 0 0 0 12 17 L 4 17 C 3.4358706 17 3 16.564129 3 16 L 3 8 C 3 7.4358706 3.4358706 7 4 7 L 20 7 C 20.564129 7 21 7.4358706 21 8 L 21 13 A 1 1 0 0 0 22 14 A 1 1 0 0 0 23 13 L 23 8 C 23 6.3549904 21.64501 5 20 5 L 4 5 z M 12 9 C 10.35499 9 9 10.35499 9 12 C 9 13.64501 10.35499 15 12 15 C 13.64501 15 15 13.64501 15 12 C 15 10.35499 13.64501 9 12 9 z M 6 11 A 1 1 0 0 0 5 12 A 1 1 0 0 0 6 13 L 6.0097656 13 A 1 1 0 0 0 7.0097656 12 A 1 1 0 0 0 6.0097656 11 L 6 11 z M 12 11 C 12.564129 11 13 11.435871 13 12 C 13 12.564129 12.564129 13 12 13 C 11.435871 13 11 12.564129 11 12 C 11 11.435871 11.435871 11 12 11 z M 18 11 A 1 1 0 0 0 17 12 A 1 1 0 0 0 18 13 L 18.009766 13 A 1 1 0 0 0 19.009766 12 A 1 1 0 0 0 18.009766 11 L 18 11 z M 19 15 A 1.0001 1.0001 0 0 0 18.794922 15.023438 A 1 1 0 0 0 18.611328 15.078125 A 1.0001 1.0001 0 0 0 18.5 15.134766 A 1 1 0 0 0 18.439453 15.175781 A 1.0001 1.0001 0 0 0 18.384766 15.212891 A 1 1 0 0 0 18.341797 15.25 A 1.0001 1.0001 0 0 0 18.292969 15.292969 A 1 1 0 0 0 18.283203 15.302734 L 15.292969 18.292969 A 1 1 0 0 0 15.292969 19.707031 A 1 1 0 0 0 16.707031 19.707031 L 18 18.414062 L 18 22 A 1 1 0 0 0 19 23 A 1 1 0 0 0 20 22 L 20 18.414062 L 21.292969 19.707031 A 1 1 0 0 0 22.707031 19.707031 A 1 1 0 0 0 22.707031 18.292969 L 19.716797 15.302734 A 1 1 0 0 0 19.658203 15.25 A 1.0001 1.0001 0 0 0 19.615234 15.212891 A 1 1 0 0 0 19.560547 15.175781 A 1.0001 1.0001 0 0 0 19.382812 15.076172 A 1 1 0 0 0 19.257812 15.035156 A 1.0001 1.0001 0 0 0 19 15 z "/>
</svg>
