<svg xmlns="http://www.w3.org/2000/svg" xmlns:svg="http://www.w3.org/2000/svg" width="24" height="24" viewBox="0 0 24 24" fill="currentColor" tags="currency,money,payment" categories="finance">
  <path d="M 4 5 C 2.3552972 5 1 6.3552972 1 8 L 1 16 C 1 17.644703 2.3552972 19 4 19 L 20 19 C 21.644703 19 23 17.644703 23 16 L 23 8 C 23 6.3552972 21.644703 5 20 5 L 4 5 z M 4 7 L 20 7 C 20.571297 7 21 7.4287028 21 8 L 21 16 C 21 16.571297 20.571297 17 20 17 L 4 17 C 3.4287028 17 3 16.571297 3 16 L 3 8 C 3 7.4287028 3.4287028 7 4 7 z M 12 9 C 10.35499 9 9 10.35499 9 12 C 9 13.64501 10.35499 15 12 15 C 13.64501 15 15 13.64501 15 12 C 15 10.35499 13.64501 9 12 9 z M 6 11 A 1 1 0 0 0 5 12 A 1 1 0 0 0 6 13 L 6.0097656 13 A 1 1 0 0 0 7.0097656 12 A 1 1 0 0 0 6.0097656 11 L 6 11 z M 12 11 C 12.564129 11 13 11.435871 13 12 C 13 12.564129 12.564129 13 12 13 C 11.435871 13 11 12.564129 11 12 C 11 11.435871 11.435871 11 12 11 z M 18 11 A 1 1 0 0 0 17 12 A 1 1 0 0 0 18 13 L 18.009766 13 A 1 1 0 0 0 19.009766 12 A 1 1 0 0 0 18.009766 11 L 18 11 z "/>
</svg>
