<svg xmlns="http://www.w3.org/2000/svg" xmlns:svg="http://www.w3.org/2000/svg" width="24" height="24" viewBox="0 0 24 24" fill="currentColor" tags="bill,currency,money,payment,funds,transaction,cash,finance,error,failed,rejected,canceled,declined,lost,delete,remove" categories="finance">
  <path d="M 4 5 C 2.3549904 5 1 6.3549904 1 8 L 1 16 C 1 17.64501 2.3549904 19 4 19 L 13 19 A 1 1 0 0 0 14 18 A 1 1 0 0 0 13 17 L 4 17 C 3.4358706 17 3 16.564129 3 16 L 3 8 C 3 7.4358706 3.4358706 7 4 7 L 20 7 C 20.564129 7 21 7.4358706 21 8 L 21 13 A 1 1 0 0 0 22 14 A 1 1 0 0 0 23 13 L 23 8 C 23 6.3549904 21.64501 5 20 5 L 4 5 z M 12 9 C 10.35499 9 9 10.35499 9 12 C 9 13.64501 10.35499 15 12 15 C 13.64501 15 15 13.64501 15 12 C 15 10.35499 13.64501 9 12 9 z M 6 11 A 1 1 0 0 0 5 12 A 1 1 0 0 0 6 13 L 6.0097656 13 A 1 1 0 0 0 7.0097656 12 A 1 1 0 0 0 6.0097656 11 L 6 11 z M 12 11 C 12.564129 11 13 11.435871 13 12 C 13 12.564129 12.564129 13 12 13 C 11.435871 13 11 12.564129 11 12 C 11 11.435871 11.435871 11 12 11 z M 18 11 A 1 1 0 0 0 17 12 A 1 1 0 0 0 18 13 L 18.009766 13 A 1 1 0 0 0 19.009766 12 A 1 1 0 0 0 18.009766 11 L 18 11 z M 17 16 A 1 1 0 0 0 16.292969 16.292969 A 1 1 0 0 0 16.292969 17.707031 L 18.085938 19.5 L 16.292969 21.292969 A 1 1 0 0 0 16.292969 22.707031 A 1 1 0 0 0 17.707031 22.707031 L 19.5 20.914062 L 21.292969 22.707031 A 1 1 0 0 0 22.707031 22.707031 A 1 1 0 0 0 22.707031 21.292969 L 20.914062 19.5 L 22.707031 17.707031 A 1 1 0 0 0 22.707031 16.292969 A 1 1 0 0 0 21.292969 16.292969 L 19.5 18.085938 L 17.707031 16.292969 A 1 1 0 0 0 17 16 z "/>
</svg>
