<?xml version="1.0" encoding="UTF-8" standalone="no"?>
<svg xmlns="http://www.w3.org/2000/svg" xmlns:svg="http://www.w3.org/2000/svg" width="24" height="24" viewBox="0 0 24 24" fill="currentColor" tags="statistics,diagram,graph" categories="charts">
  <path d="M 18 3 A 1 1 0 0 0 17 4 L 17 20 A 1 1 0 0 0 18 21 A 1 1 0 0 0 19 20 L 19 4 A 1 1 0 0 0 18 3 z M 12 9 A 1 1 0 0 0 11 10 L 11 20 A 1 1 0 0 0 12 21 A 1 1 0 0 0 13 20 L 13 10 A 1 1 0 0 0 12 9 z M 6 15 A 1 1 0 0 0 5 16 L 5 20 A 1 1 0 0 0 6 21 A 1 1 0 0 0 7 20 L 7 16 A 1 1 0 0 0 6 15 z "/>
</svg>
