<?xml version="1.0" encoding="UTF-8" standalone="no"?>
<svg xmlns="http://www.w3.org/2000/svg" xmlns:svg="http://www.w3.org/2000/svg" width="24" height="24" viewBox="0 0 24 24" fill="currentColor" tags="keg,drum,tank,wine,beer,oak,wood,firkin,hogshead,kilderkin,barrique,solera,aging,whiskey,brewery,distillery,winery,vineyard" categories="food-beverage,navigation">
  <path d="M 6.9980469 2 C 5.9793379 2.0017 5.0286178 2.5234456 4.4785156 3.3808594 A 1.0001 1.0001 0 0 0 4.4726562 3.390625 C 3.8410811 4.4015772 3.3304965 5.4650258 2.9414062 6.5605469 A 1 1 0 0 0 2.8632812 6.7890625 C 1.7203932 10.16605 1.7203898 13.833951 2.8632812 17.210938 A 1 1 0 0 0 2.9414062 17.439453 C 3.330498 18.534985 3.841075 19.598413 4.4726562 20.609375 A 1.0001 1.0001 0 0 0 4.4785156 20.619141 C 5.0286178 21.476515 5.9793379 21.998303 6.9980469 22 A 1.0001 1.0001 0 0 0 7 22 L 17 22 A 1.0001 1.0001 0 0 0 17.001953 22 C 18.020662 21.9983 18.971382 21.476554 19.521484 20.619141 A 1.0001 1.0001 0 0 0 19.527344 20.609375 C 20.159022 19.598257 20.66948 18.535164 21.058594 17.439453 A 1 1 0 0 0 21.136719 17.210938 C 22.279914 13.833517 22.279941 10.166476 21.136719 6.7890625 A 1 1 0 0 0 21.058594 6.5605469 C 20.669468 5.464748 20.15907 4.4018193 19.527344 3.390625 A 1.0001 1.0001 0 0 0 19.521484 3.3808594 C 18.971335 2.523484 18.020662 2.0016971 17.001953 2 A 1.0001 1.0001 0 0 0 17 2 L 7 2 A 1.0001 1.0001 0 0 0 6.9980469 2 z M 7 4 L 8.7675781 4 C 8.6386217 4.6645348 8.5262097 5.3313966 8.4296875 6 L 5.328125 6 C 5.5721919 5.4746486 5.8506075 4.9605879 6.1621094 4.4609375 C 6.3460599 4.1742241 6.6594465 4.0011797 7 4 z M 10.808594 4 L 13.191406 4 C 13.326987 4.6642799 13.445419 5.3311651 13.546875 6 L 10.453125 6 C 10.554581 5.3311651 10.673013 4.6642799 10.808594 4 z M 15.232422 4 L 17 4 C 17.340554 4.00118 17.65394 4.1742241 17.837891 4.4609375 C 18.149392 4.9605879 18.427808 5.4746486 18.671875 6 L 15.570312 6 C 15.47379 5.3313966 15.361378 4.6645348 15.232422 4 z M 4.5761719 8 L 8.1894531 8 C 7.9348553 10.660599 7.9348553 13.339401 8.1894531 16 L 4.5761719 16 C 3.8124967 13.389377 3.8124968 10.610623 4.5761719 8 z M 10.201172 8 L 13.798828 8 C 14.066095 10.659891 14.066095 13.340109 13.798828 16 L 10.201172 16 C 9.9339044 13.340109 9.9339044 10.659891 10.201172 8 z M 15.810547 8 L 19.423828 8 C 20.187503 10.610623 20.187503 13.389377 19.423828 16 L 15.810547 16 C 16.065145 13.339401 16.065145 10.660599 15.810547 8 z M 5.328125 18 L 8.4296875 18 C 8.5262097 18.668603 8.6386217 19.335465 8.7675781 20 L 7.0019531 20 L 7 20 C 6.6594465 19.99882 6.3460599 19.825776 6.1621094 19.539062 C 5.8506075 19.039412 5.5721919 18.525351 5.328125 18 z M 10.453125 18 L 13.546875 18 C 13.445419 18.668835 13.326987 19.33572 13.191406 20 L 10.808594 20 C 10.673013 19.33572 10.554581 18.668835 10.453125 18 z M 15.570312 18 L 18.671875 18 C 18.427808 18.525351 18.149392 19.039412 17.837891 19.539062 C 17.65394 19.825776 17.340554 19.99882 17 20 L 15.232422 20 C 15.361378 19.335465 15.47379 18.668603 15.570312 18 z "/>
</svg>
