<svg xmlns="http://www.w3.org/2000/svg" xmlns:svg="http://www.w3.org/2000/svg" width="24" height="24" viewBox="0 0 24 24" fill="currentColor" tags="amenities,services,bathroom,shower" categories="travel">
  <path d="M 6.2832031 2.0039062 C 5.8444035 1.9811314 5.4070836 2.0491158 5.0078125 2.2011719 C 3.9430895 2.6066546 3.0745453 3.6346448 3.0019531 4.9453125 A 1.0001 1.0001 0 0 0 3 5 L 3 11 L 2 11 A 1 1 0 0 0 1 12 A 1 1 0 0 0 2 13 L 3 13 L 3 17 C 3 18.64501 4.3549904 20 6 20 L 6 21 A 1 1 0 0 0 7 22 A 1 1 0 0 0 8 21 L 8 20 L 16 20 L 16 21 A 1 1 0 0 0 17 22 A 1 1 0 0 0 18 21 L 18 20 C 19.64501 20 21 18.64501 21 17 L 21 13 L 22 13 A 1 1 0 0 0 23 12 A 1 1 0 0 0 22 11 L 20 11 L 5 11 L 5 5.0527344 C 5.0300545 4.5324486 5.3230276 4.221017 5.71875 4.0703125 C 6.1153598 3.91927 6.5430142 3.9553617 6.9121094 4.3261719 A 1.0001 1.0001 0 0 0 6.9140625 4.328125 L 7.5859375 5 L 7.2929688 5.2929688 A 1 1 0 0 0 7.2929688 6.7070312 A 1 1 0 0 0 8.7070312 6.7070312 L 9.7070312 5.7070312 L 10.707031 4.7070312 A 1 1 0 0 0 10.707031 3.2929688 A 1 1 0 0 0 10 3 A 1 1 0 0 0 9.2929688 3.2929688 L 9 3.5859375 L 8.3300781 2.9160156 L 8.328125 2.9140625 C 7.8654781 2.4500961 7.3017012 2.1695912 6.7207031 2.0566406 C 6.5752429 2.028362 6.4294697 2.0114979 6.2832031 2.0039062 z M 5 13 L 19 13 L 19 17 C 19 17.564129 18.564129 18 18 18 L 17 18 L 7 18 L 6 18 C 5.4358706 18 5 17.564129 5 17 L 5 13 z "/>
</svg>
