<?xml version="1.0" encoding="UTF-8" standalone="no"?>
<svg xmlns="http://www.w3.org/2000/svg" xmlns:svg="http://www.w3.org/2000/svg" width="24" height="24" viewBox="0 0 24 24" fill="currentColor" tags="amenities,services,bathroom,shower" categories="travel">
  
  <path d="M 5.5 2 C 4.1256792 2 3 3.1256792 3 4.5 L 3 11 L 2 11 A 1 1 0 0 0 1 12 A 1 1 0 0 0 2 13 L 3 13 L 3 17 C 3 18.645006 4.3549936 20 6 20 L 6 21 A 1 1 0 0 0 7 22 A 1 1 0 0 0 8 21 L 8 20 L 16 20 L 16 21 A 1 1 0 0 0 17 22 A 1 1 0 0 0 18 21 L 18 20 C 19.645006 20 21 18.645006 21 17 L 21 13 L 22 13 A 1 1 0 0 0 23 12 A 1 1 0 0 0 22 11 L 5 11 L 5 4.5 C 5 4.2535107 5.2305267 4.0480181 5.4746094 4.0253906 C 5.5780508 4.0476916 5.6808681 4.0838681 5.7519531 4.1640625 A 1.0001 1.0001 0 0 0 5.7929688 4.2070312 L 7.5859375 6 L 7.2929688 6.2929688 A 1 1 0 0 0 7.2929688 7.7070312 A 1 1 0 0 0 8.7070312 7.7070312 L 10.707031 5.7070312 A 1 1 0 0 0 10.707031 4.2929688 A 1 1 0 0 0 10 4 A 1 1 0 0 0 9.2929688 4.2929688 L 9 4.5859375 L 7.2480469 2.8359375 C 6.8208624 2.3540106 6.2238835 2.0564976 5.5820312 2.0039062 A 1.0001 1.0001 0 0 0 5.5 2 z M 5 13 L 19 13 L 19 17 C 19 17.564128 18.564128 18 18 18 L 17 18 L 6 18 C 5.4358718 18 5 17.564128 5 17 L 5 13 z "/>
</svg>
