<?xml version="1.0" encoding="UTF-8" standalone="no"?>
<svg xmlns="http://www.w3.org/2000/svg" xmlns:svg="http://www.w3.org/2000/svg" width="24" height="24" viewBox="0 0 24 24" fill="currentColor" tags="power,electricity,energy,accumulator,charge" categories="connectivity,devices">
  <path d="M 4 5 C 2.3552972 5 1 6.3552972 1 8 L 1 16 C 1 17.644703 2.3552972 19 4 19 L 16 19 C 17.644703 19 19 17.644703 19 16 L 19 8 C 19 6.3552972 17.644703 5 16 5 L 4 5 z M 4 7 L 16 7 C 16.571297 7 17 7.4287028 17 8 L 17 16 C 17 16.571297 16.571297 17 16 17 L 4 17 C 3.4287028 17 3 16.571297 3 16 L 3 8 C 3 7.4287028 3.4287028 7 4 7 z M 22 9 A 1 1 0 0 0 21 10 L 21 14 A 1 1 0 0 0 22 15 A 1 1 0 0 0 23 14 L 23 10 A 1 1 0 0 0 22 9 z "/>
</svg>
