<?xml version="1.0" encoding="UTF-8" standalone="no"?>
<svg xmlns="http://www.w3.org/2000/svg" xmlns:svg="http://www.w3.org/2000/svg" width="24" height="24" viewBox="0 0 24 24" fill="currentColor" tags="power,electricity,energy,accumulator,charge,plus,economy,health,add,new,maximum,upgrade,extra,+" categories="devices">
  <path d="M 4 5 C 2.3549904 5 1 6.3549904 1 8 L 1 16 C 1 17.64501 2.3549904 19 4 19 L 7.6054688 19 A 1 1 0 0 0 8.6054688 18 A 1 1 0 0 0 7.6054688 17 L 4 17 C 3.4358706 17 3 16.564129 3 16 L 3 8 C 3 7.4358706 3.4358706 7 4 7 L 7.6054688 7 A 1 1 0 0 0 8.6054688 6 A 1 1 0 0 0 7.6054688 5 L 4 5 z M 12.542969 5 A 1 1 0 0 0 11.542969 6 A 1 1 0 0 0 12.542969 7 L 16 7 C 16.564129 7 17 7.4358706 17 8 L 17 16 C 17 16.564129 16.564129 17 16 17 L 12.394531 17 A 1 1 0 0 0 11.394531 18 A 1 1 0 0 0 12.394531 19 L 16 19 C 17.64501 19 19 17.64501 19 16 L 19 8 C 19 6.3549904 17.64501 5 16 5 L 12.542969 5 z M 10 8 A 1 1 0 0 0 9 9 L 9 11 L 7 11 A 1 1 0 0 0 6 12 A 1 1 0 0 0 7 13 L 9 13 L 9 15 A 1 1 0 0 0 10 16 A 1 1 0 0 0 11 15 L 11 13 L 13 13 A 1 1 0 0 0 14 12 A 1 1 0 0 0 13 11 L 11 11 L 11 9 A 1 1 0 0 0 10 8 z M 22 9 A 1 1 0 0 0 21 10 L 21 14 A 1 1 0 0 0 22 15 A 1 1 0 0 0 23 14 L 23 10 A 1 1 0 0 0 22 9 z "/>
</svg>
