<?xml version="1.0" encoding="UTF-8" standalone="no"?>
<svg xmlns="http://www.w3.org/2000/svg" xmlns:svg="http://www.w3.org/2000/svg" width="24" height="24" viewBox="0 0 24 24" fill="currentColor" tags="power,electricity,energy,accumulator,charge,exclamation mark" categories="connectivity,devices">
  <path d="M 4 6 C 2.3549904 6 1 7.3549904 1 9 L 1 15 C 1 16.64501 2.3549904 18 4 18 L 6 18 A 1 1 0 0 0 7 17 A 1 1 0 0 0 6 16 L 4 16 C 3.4358706 16 3 15.564129 3 15 L 3 9 C 3 8.4358706 3.4358706 8 4 8 L 6 8 A 1 1 0 0 0 7 7 A 1 1 0 0 0 6 6 L 4 6 z M 10 6 A 1 1 0 0 0 9 7 L 9 13 A 1 1 0 0 0 10 14 A 1 1 0 0 0 11 13 L 11 7 A 1 1 0 0 0 10 6 z M 14 6 A 1 1 0 0 0 13 7 A 1 1 0 0 0 14 8 L 16 8 C 16.564129 8 17 8.4358706 17 9 L 17 15 C 17 15.564129 16.564129 16 16 16 L 14 16 A 1 1 0 0 0 13 17 A 1 1 0 0 0 14 18 L 16 18 C 17.64501 18 19 16.64501 19 15 L 19 9 C 19 7.3549904 17.64501 6 16 6 L 14 6 z M 22 10 A 1 1 0 0 0 21 11 L 21 13 A 1 1 0 0 0 22 14 A 1 1 0 0 0 23 13 L 23 11 A 1 1 0 0 0 22 10 z M 10 16 A 1 1 0 0 0 9 17 A 1 1 0 0 0 10 18 L 10.009766 18 A 1 1 0 0 0 11.009766 17 A 1 1 0 0 0 10.009766 16 L 10 16 z "/>
</svg>
