<svg xmlns="http://www.w3.org/2000/svg" xmlns:svg="http://www.w3.org/2000/svg" width="24" height="24" viewBox="0 0 24 24" fill="currentColor" tags="power,electricity,energy,accumulator,charge" categories="connectivity,devices">
  <path d="M 4 5 C 2.3549904 5 1 6.3549904 1 8 L 1 16 C 1 17.64501 2.3549904 19 4 19 L 5.140625 19 A 1 1 0 0 0 6.140625 18 A 1 1 0 0 0 5.140625 17 L 4 17 C 3.4358706 17 3 16.564129 3 16 L 3 8 C 3 7.4358706 3.4358706 7 4 7 L 6.9355469 7 A 1 1 0 0 0 7.9355469 6 A 1 1 0 0 0 6.9355469 5 L 4 5 z M 14.855469 5 A 1 1 0 0 0 13.855469 6 A 1 1 0 0 0 14.855469 7 L 16 7 C 16.564129 7 17 7.4358706 17 8 L 17 16 C 17 16.564129 16.564129 17 16 17 L 13.064453 17 A 1 1 0 0 0 12.064453 18 A 1 1 0 0 0 13.064453 19 L 16 19 C 17.64501 19 19 17.64501 19 16 L 19 8 C 19 6.3549904 17.64501 5 16 5 L 14.855469 5 z M 11.015625 6 A 1 1 0 0 0 10.142578 6.4863281 L 7.1425781 11.486328 A 1.0001 1.0001 0 0 0 8 13 L 10.234375 13 L 8.1425781 16.486328 A 1 1 0 0 0 8.4863281 17.857422 A 1 1 0 0 0 9.8574219 17.513672 L 12.857422 12.513672 A 1.0001 1.0001 0 0 0 12 11 L 9.765625 11 L 11.857422 7.5136719 A 1 1 0 0 0 11.513672 6.1425781 A 1 1 0 0 0 11.015625 6 z M 22 9 A 1 1 0 0 0 21 10 L 21 14 A 1 1 0 0 0 22 15 A 1 1 0 0 0 23 14 L 23 10 A 1 1 0 0 0 22 9 z "/>
</svg>
