<?xml version="1.0" encoding="UTF-8" standalone="no"?>
<svg xmlns="http://www.w3.org/2000/svg" xmlns:svg="http://www.w3.org/2000/svg" width="24" height="24" viewBox="0 0 24 24" fill="currentColor" tags="power,electricity,energy,accumulator,charge,plus,economy,health,add,new,maximum,upgrade,extra,+" categories="devices">
  <path d="M 4 6 C 2.3549904 6 1 7.3549904 1 9 L 1 15 C 1 16.64501 2.3549904 18 4 18 L 6.5 18 A 1 1 0 0 0 7.5 17 A 1 1 0 0 0 6.5 16 L 4 16 C 3.4358706 16 3 15.564129 3 15 L 3 9 C 3 8.4358706 3.4358706 8 4 8 L 6.5 8 A 1 1 0 0 0 7.5 7 A 1 1 0 0 0 6.5 6 L 4 6 z M 13.5 6 A 1 1 0 0 0 12.5 7 A 1 1 0 0 0 13.5 8 L 16 8 C 16.564129 8 17 8.4358706 17 9 L 17 15 C 17 15.564129 16.564129 16 16 16 L 13.5 16 A 1 1 0 0 0 12.5 17 A 1 1 0 0 0 13.5 18 L 16 18 C 17.64501 18 19 16.64501 19 15 L 19 9 C 19 7.3549904 17.64501 6 16 6 L 13.5 6 z M 10 8 A 1 1 0 0 0 9 9 L 9 11 L 7 11 A 1 1 0 0 0 6 12 A 1 1 0 0 0 7 13 L 9 13 L 9 15 A 1 1 0 0 0 10 16 A 1 1 0 0 0 11 15 L 11 13 L 13 13 A 1 1 0 0 0 14 12 A 1 1 0 0 0 13 11 L 11 11 L 11 9 A 1 1 0 0 0 10 8 z M 22 10 A 1 1 0 0 0 21 11 L 21 13 A 1 1 0 0 0 22 14 A 1 1 0 0 0 23 13 L 23 11 A 1 1 0 0 0 22 10 z "/>
</svg>
