<?xml version="1.0" encoding="UTF-8" standalone="no"?>
<svg xmlns="http://www.w3.org/2000/svg" xmlns:svg="http://www.w3.org/2000/svg" width="24" height="24" viewBox="0 0 24 24" fill="currentColor" tags="power,electricity,energy,accumulator,charge" categories="connectivity,devices">
  <path d="M 4 6 C 2.3552972 6 1 7.3552972 1 9 L 1 15 C 1 16.644703 2.3552972 18 4 18 L 16 18 C 17.644703 18 19 16.644703 19 15 L 19 9 C 19 7.3552972 17.644703 6 16 6 L 4 6 z M 4 8 L 16 8 C 16.571297 8 17 8.4287028 17 9 L 17 15 C 17 15.571297 16.571297 16 16 16 L 4 16 C 3.4287028 16 3 15.571297 3 15 L 3 9 C 3 8.4287028 3.4287028 8 4 8 z M 22 10 A 1 1 0 0 0 21 11 L 21 13 A 1 1 0 0 0 22 14 A 1 1 0 0 0 23 13 L 23 11 A 1 1 0 0 0 22 10 z "/>
</svg>
