<svg xmlns="http://www.w3.org/2000/svg" xmlns:svg="http://www.w3.org/2000/svg" width="24" height="24" viewBox="0 0 24 24" fill="currentColor" tags="soy free,legume,soy,food,seed,allergy,intolerance,diet" categories="food-beverage">
  <path d="M 2 1 A 1 1 0 0 0 1.2929688 1.2929688 A 1 1 0 0 0 1.2929688 2.7070312 L 7.4335938 8.8476562 C 7.1154911 8.9870697 6.7548838 9.1000381 6.3652344 9.1933594 C 2.4420856 10.132904 0.66889599 13.649992 1.0449219 16.824219 C 1.4209477 19.998446 3.9659163 23.003086 8 23 C 11.643898 23.004121 15.153301 21.677908 17.876953 19.291016 L 21.292969 22.707031 A 1 1 0 0 0 22.707031 22.707031 A 1 1 0 0 0 22.707031 21.292969 L 18.605469 17.191406 L 12.535156 11.121094 L 9.7070312 8.2929688 L 2.7070312 1.2929688 A 1 1 0 0 0 2 1 z M 15.570312 1.0058594 C 13.360205 1.1297712 11.16137 2.2843987 9.875 4.609375 A 1 1 0 0 0 9.8066406 4.765625 A 1 1 0 0 0 9.7070312 4.9355469 A 1 1 0 0 0 10.212891 6.2539062 C 10.895655 6.5573736 11.441008 7.1041961 11.744141 7.7871094 A 1 1 0 0 0 13.064453 8.2949219 A 1 1 0 0 0 13.572266 6.9746094 C 13.221474 6.1843277 12.674862 5.5044566 11.992188 4.9941406 C 13.316674 3.150051 15.380155 2.6730819 17.25 3.15625 C 19.303082 3.6867665 21.001002 5.3448404 21 8 C 21 10.242329 20.433665 12.345378 19.4375 14.183594 A 1 1 0 0 0 19.839844 15.539062 A 1 1 0 0 0 21.195312 15.136719 C 22.345149 13.014935 23 10.579671 23 8 C 23.001336 4.4571795 20.574309 1.95 17.751953 1.2207031 C 17.046364 1.0383789 16.307015 0.9645554 15.570312 1.0058594 z M 8.9179688 10.332031 L 10.298828 11.712891 C 9.1461192 12.282284 7.7624211 12.042411 6.8691406 11.126953 C 7.5338136 10.965886 8.2566802 10.74332 8.9179688 10.332031 z M 4.9570312 11.947266 C 6.5112899 14.072968 9.5550355 14.625822 11.757812 13.171875 L 16.458984 17.873047 C 14.113432 19.887241 11.115924 21.003922 8.0019531 21 A 1.0001 1.0001 0 0 0 8 21 C 4.9203693 21.002356 3.3053653 18.918325 3.0292969 16.587891 C 2.8212025 14.831259 3.3842485 13.033437 4.9570312 11.947266 z "/>
</svg>
