<?xml version="1.0" encoding="UTF-8" standalone="no"?>
<svg xmlns="http://www.w3.org/2000/svg" xmlns:svg="http://www.w3.org/2000/svg" width="24" height="24" viewBox="0 0 24 24" fill="currentColor" tags="soy free,legume,soy,food,seed,allergy,intolerance,diet" categories="food-beverage">
  <path d="M 15.845703 0.99609375 C 15.753604 0.99767196 15.6624 1.0006964 15.570312 1.0058594 C 13.360205 1.1297712 11.16137 2.2843987 9.875 4.609375 A 1 1 0 0 0 9.8320312 4.7421875 A 1 1 0 0 0 9.7070312 4.9355469 A 1 1 0 0 0 10.212891 6.2539062 C 10.895655 6.5573736 11.441008 7.1041961 11.744141 7.7871094 A 1 1 0 0 0 13.064453 8.2949219 A 1 1 0 0 0 13.572266 6.9746094 C 13.221424 6.1842158 12.674997 5.5044808 11.992188 4.9941406 C 13.316681 3.1502786 15.380248 2.6731059 17.25 3.15625 C 19.303082 3.6867665 21.001002 5.3448404 21 8 C 21 10.242329 20.433665 12.345378 19.4375 14.183594 A 1 1 0 0 0 19.839844 15.539062 A 1 1 0 0 0 21.195312 15.136719 C 22.345149 13.014935 23 10.579671 23 8 C 23.001336 4.4571795 20.574309 1.95 17.751953 1.2207031 C 17.134563 1.0611695 16.490399 0.9850463 15.845703 0.99609375 z M 2 1 A 1 1 0 0 0 1.2929688 1.2929688 A 1 1 0 0 0 1.2929688 2.7070312 L 7.4335938 8.8476562 C 7.1153769 8.9871654 6.755076 9.0999921 6.3652344 9.1933594 C 2.4420856 10.132904 0.66889599 13.649992 1.0449219 16.824219 C 1.4209477 19.998446 3.9659163 23.003086 8 23 C 11.6438 23.004121 15.149426 21.67388 17.873047 19.287109 L 21.292969 22.707031 A 1 1 0 0 0 22.707031 22.707031 A 1 1 0 0 0 22.707031 21.292969 L 18.605469 17.191406 L 12.535156 11.121094 L 9.7070312 8.2929688 L 2.7070312 1.2929688 A 1 1 0 0 0 2 1 z M 8.9140625 10.328125 L 10.298828 11.712891 C 9.1466246 12.282067 7.7644292 12.041411 6.8710938 11.126953 C 7.534864 10.966059 8.2536064 10.738457 8.9140625 10.328125 z M 4.9589844 11.945312 C 6.5130804 14.070515 9.5532402 14.623049 11.755859 13.169922 L 16.457031 17.871094 C 14.111487 19.885258 11.1159 21.003922 8.0019531 21 A 1.0001 1.0001 0 0 0 8 21 C 4.9203693 21.002356 3.3053653 18.918325 3.0292969 16.587891 C 2.8211282 14.830632 3.3849188 13.031363 4.9589844 11.945312 z "/>
</svg>
