<?xml version="1.0" encoding="UTF-8" standalone="no"?>
<svg xmlns="http://www.w3.org/2000/svg" xmlns:svg="http://www.w3.org/2000/svg" width="24" height="24" viewBox="0 0 24 24" fill="currentColor" tags="legume,soy,food,seed" categories="food-beverage">
  <path d="M 16.226562 1 C 13.221241 0.89933964 10.074182 2.6872824 9.1933594 6.3652344 C 8.999484 7.1738141 8.7237829 7.8621545 8.2929688 8.2929688 C 7.8617861 8.7241513 7.1745482 8.9995283 6.3652344 9.1933594 C 2.4420856 10.132904 0.66889599 13.649992 1.0449219 16.824219 C 1.4209477 19.998446 3.9659163 23.003086 8 23 C 16.272438 23 23 16.272438 23 8 C 23.003086 3.9659163 19.998446 1.4209477 16.824219 1.0449219 C 16.62583 1.0214203 16.426917 1.0067107 16.226562 1 z M 15.714844 2.9902344 C 16.004995 2.9812221 16.296586 2.9947883 16.587891 3.0292969 C 18.918325 3.3053653 21.002356 4.9203693 21 8 C 21 15.191562 15.191562 21 8 21 C 4.9203693 21.002356 3.3053653 18.918325 3.0292969 16.587891 C 2.8210855 14.830271 3.3861345 13.031293 4.9609375 11.945312 C 6.7095065 14.330771 10.331586 14.731331 12.53125 12.53125 C 14.730624 10.331459 14.330005 6.7096952 11.945312 4.9609375 C 12.851305 3.6471381 14.254334 3.0355988 15.714844 2.9902344 z M 11.126953 6.8691406 C 12.271133 7.9895616 12.35532 9.87882 11.117188 11.117188 C 9.8784192 12.35619 7.9895224 12.270867 6.8691406 11.125 C 7.8122307 10.896529 8.8696045 10.544458 9.7070312 9.7070312 C 10.545466 8.8685968 10.898551 7.8115346 11.126953 6.8691406 z "/>
</svg>
