<?xml version="1.0" encoding="UTF-8" standalone="no"?>
<svg xmlns="http://www.w3.org/2000/svg" xmlns:svg="http://www.w3.org/2000/svg" width="24" height="24" viewBox="0 0 24 24" fill="currentColor" tags="sleep,hotel,furniture" categories="furniture">
  <path d="M 7 3 C 5.3549936 3 4 4.3549936 4 6 L 4 9.1777344 C 2.840457 9.5938879 2 10.705251 2 12 L 2 18 L 2 20 A 1 1 0 0 0 3 21 A 1 1 0 0 0 4 20 L 4 19 L 20 19 L 20 20 A 1 1 0 0 0 21 21 A 1 1 0 0 0 22 20 L 22 18 L 22 12 C 22 10.705251 21.159543 9.5938879 20 9.1777344 L 20 6 C 20 4.3549936 18.645006 3 17 3 L 7 3 z M 7 5 L 17 5 C 17.564128 5 18 5.4358718 18 6 L 18 9 L 6 9 L 6 6 C 6 5.4358718 6.4358718 5 7 5 z M 5 11 L 19 11 C 19.564128 11 20 11.435872 20 12 L 20 17 L 4 17 L 4 12 C 4 11.435872 4.4358718 11 5 11 z "/>
</svg>
