<?xml version="1.0" encoding="UTF-8" standalone="no"?>
<svg xmlns="http://www.w3.org/2000/svg" xmlns:svg="http://www.w3.org/2000/svg" width="24" height="24" viewBox="0 0 24 24" fill="currentColor" tags="sleep,hotel,furniture" categories="furniture">
  
  <path d="M 6 3 C 4.3549936 3 3 4.3549936 3 6 L 3 9.1777344 C 1.840457 9.5938879 1 10.705251 1 12 L 1 18 L 1 20 A 1 1 0 0 0 2 21 A 1 1 0 0 0 3 20 L 3 19 L 21 19 L 21 20 A 1 1 0 0 0 22 21 A 1 1 0 0 0 23 20 L 23 18 L 23 12 C 23 10.705251 22.159543 9.5938879 21 9.1777344 L 21 6 C 21 4.3549936 19.645006 3 18 3 L 6 3 z M 6 5 L 11 5 L 11 9 L 5 9 L 5 6 C 5 5.4358718 5.4358718 5 6 5 z M 13 5 L 18 5 C 18.564128 5 19 5.4358718 19 6 L 19 9 L 13 9 L 13 5 z M 4 11 L 20 11 C 20.564128 11 21 11.435872 21 12 L 21 17 L 3 17 L 3 12 C 3 11.435872 3.4358718 11 4 11 z "/>
</svg>
