<?xml version="1.0" encoding="UTF-8" standalone="no"?>
<svg xmlns="http://www.w3.org/2000/svg" xmlns:svg="http://www.w3.org/2000/svg" width="24" height="24" viewBox="0 0 24 24" fill="currentColor" tags="sleep,hotel,furniture" categories="home">
  <path d="M 2 3 A 1 1 0 0 0 1 4 L 1 20 A 1 1 0 0 0 2 21 A 1 1 0 0 0 3 20 L 3 18 L 6 18 L 21 18 L 21 20 A 1 1 0 0 0 22 21 A 1 1 0 0 0 23 20 L 23 10 C 23 8.3549904 21.64501 7 20 7 L 6 7 L 3 7 L 3 4 A 1 1 0 0 0 2 3 z M 3 9 L 5 9 L 5 16 L 3 16 L 3 9 z M 7 9 L 20 9 C 20.564129 9 21 9.4358706 21 10 L 21 16 L 7 16 L 7 9 z "/>
</svg>
