<svg xmlns="http://www.w3.org/2000/svg" xmlns:svg="http://www.w3.org/2000/svg" width="24" height="24" viewBox="0 0 24 24" fill="currentColor" tags="food,dish,restaurant,course,meal,meat,bbq,steak" categories="food-beverage">
  <path d="M 12.816406 1.0175781 C 9.5664873 0.89560782 6.367831 2.8997609 5.3242188 6.3066406 C 4.7704168 7.8915243 4.5537117 8.8932627 4.2539062 9.6113281 C 3.9517569 10.335008 3.5714028 10.899636 2.4414062 11.927734 L 2.4394531 11.929688 C 2.435837 11.932977 2.4313659 11.936155 2.4277344 11.939453 C 1.0489754 13.098725 0.71762187 14.898795 1.234375 16.345703 C 1.3040397 16.540764 1.3897827 16.730774 1.4902344 16.914062 A 1 1 0 0 0 1.5058594 16.947266 L 3.4257812 20.787109 C 4.1010929 22.139803 5.4861531 22.997932 6.9980469 23 A 1.0001 1.0001 0 0 0 7 23 C 11.286335 23 15.821252 21.135504 19.007812 18.492188 C 21.56871 16.57611 22.63018 13.233917 21.640625 10.191406 A 1.0001 1.0001 0 0 0 21.589844 10.0625 L 19.398438 5.5625 A 1 1 0 0 0 19.341797 5.4609375 C 18.819826 4.2645297 17.97269 3.1840999 16.802734 2.3632812 C 15.765632 1.63567 14.621412 1.2156283 13.466797 1.0703125 C 13.250307 1.0430658 13.033068 1.0257095 12.816406 1.0175781 z M 12.242188 2.9941406 C 12.557871 2.9801386 12.87555 2.9932857 13.193359 3.0351562 C 14.040852 3.1468111 14.883506 3.4611809 15.654297 4.0019531 C 16.520786 4.6098657 17.149801 5.401015 17.539062 6.2734375 A 1 1 0 0 0 17.601562 6.4375 L 17.642578 6.5234375 C 18.489201 8.7085553 17.883051 11.334056 15.798828 12.900391 A 1 1 0 0 0 15.785156 12.923828 A 1 1 0 0 0 15.759766 12.931641 C 12.947831 15.274928 8.7 17 5 17 C 4.1849211 16.999457 3.6193071 16.609842 3.2949219 16.052734 A 1 1 0 0 0 3.2929688 16.048828 C 3.2240935 15.929982 3.1662362 15.803743 3.1191406 15.671875 C 2.850481 14.919628 2.9683424 14.081139 3.734375 13.453125 A 1.0001 1.0001 0 0 0 3.7714844 13.419922 C 5.0312333 12.275647 5.6879338 11.366866 6.0996094 10.380859 C 6.5112849 9.3948536 6.6912179 8.4438243 7.2226562 6.9316406 A 1.0001 1.0001 0 0 0 7.2363281 6.8925781 C 7.9602492 4.5293325 10.032406 3.0921551 12.242188 2.9941406 z M 12.5 5 C 10.578848 5 9 6.578848 9 8.5 C 9 10.421152 10.578848 12 12.5 12 C 14.421152 12 16 10.421152 16 8.5 C 16 6.578848 14.421152 5 12.5 5 z M 12.5 7 C 13.340272 7 14 7.6597282 14 8.5 C 14 9.3402718 13.340272 10 12.5 10 C 11.659728 10 11 9.3402718 11 8.5 C 11 7.6597282 11.659728 7 12.5 7 z M 19.654297 10.660156 L 19.742188 10.839844 C 20.453222 13.069955 19.681517 15.498232 17.802734 16.898438 A 1.0001 1.0001 0 0 0 17.759766 16.931641 C 14.948312 19.274525 10.701512 20.999415 7.0019531 21 C 6.2428487 20.998962 5.55391 20.57175 5.2148438 19.892578 L 4.765625 18.994141 C 4.8431109 18.998582 4.9209427 18.999947 5 19 C 9.2806867 19 13.808227 17.139731 16.994141 14.501953 A 1 1 0 0 0 17 14.5 L 17.001953 14.498047 L 17.001953 14.496094 L 17.003906 14.496094 L 17.005859 14.494141 C 17.016699 14.485141 17.030206 14.47776 17.041016 14.46875 A 1 1 0 0 0 17.042969 14.447266 C 18.355177 13.441695 19.224594 12.104975 19.654297 10.660156 z "/>
</svg>
