<?xml version="1.0" encoding="UTF-8" standalone="no"?>
<svg xmlns="http://www.w3.org/2000/svg" xmlns:svg="http://www.w3.org/2000/svg" width="24" height="24" viewBox="0 0 24 24" fill="currentColor" tags="food,dish,restaurant,course,meal,meat,bbq,steak" categories="food-beverage">
  <path d="M 12.492188 1.0117188 C 9.3561405 1.030068 6.3330439 3.0133236 5.3242188 6.3066406 C 4.7704168 7.8915243 4.5537117 8.8932627 4.2539062 9.6113281 C 3.9505818 10.337822 3.5679858 10.903725 2.4277344 11.939453 C 1.0488885 13.098721 0.71760894 14.898759 1.234375 16.345703 C 1.3063855 16.547333 1.397089 16.742669 1.5019531 16.931641 A 1 1 0 0 0 1.5058594 16.947266 L 3.4257812 20.787109 C 4.1010929 22.139803 5.4861531 22.997932 6.9980469 23 A 1.0001 1.0001 0 0 0 7 23 C 11.286335 23 15.821252 21.135504 19.007812 18.492188 C 21.56871 16.57611 22.63018 13.233917 21.640625 10.191406 A 1.0001 1.0001 0 0 0 21.589844 10.0625 L 19.398438 5.5625 A 1 1 0 0 0 19.333984 5.4785156 C 18.821941 4.2772613 17.981132 3.1900224 16.802734 2.3632812 C 15.765632 1.63567 14.621412 1.2156283 13.466797 1.0703125 C 13.142062 1.0294424 12.816606 1.0098205 12.492188 1.0117188 z M 12.242188 2.9941406 C 12.557871 2.9801386 12.87555 2.9932857 13.193359 3.0351562 C 14.040852 3.1468111 14.883506 3.4611809 15.654297 4.0019531 C 16.56509 4.6409487 17.210325 5.4826244 17.59375 6.4082031 A 1 1 0 0 0 17.601562 6.4375 L 17.630859 6.5 C 18.491581 8.689971 17.890857 11.328189 15.798828 12.900391 A 1 1 0 0 0 15.785156 12.923828 A 1 1 0 0 0 15.759766 12.931641 C 12.947831 15.274928 8.7 17 5 17 C 4.0094411 16.99934 3.3878002 16.424122 3.1191406 15.671875 C 2.850481 14.919628 2.9683424 14.081139 3.734375 13.453125 A 1.0001 1.0001 0 0 0 3.7714844 13.419922 C 5.0312333 12.275647 5.6879338 11.366866 6.0996094 10.380859 C 6.5112849 9.3948536 6.6912179 8.4438243 7.2226562 6.9316406 A 1.0001 1.0001 0 0 0 7.2363281 6.8925781 C 7.9602492 4.5293325 10.032406 3.0921551 12.242188 2.9941406 z M 12.5 5 C 10.578848 5 9 6.578848 9 8.5 C 9 10.421152 10.578848 12 12.5 12 C 14.421152 12 16 10.421152 16 8.5 C 16 6.578848 14.421152 5 12.5 5 z M 12.5 7 C 13.340272 7 14 7.6597282 14 8.5 C 14 9.3402718 13.340272 10 12.5 10 C 11.659728 10 11 9.3402718 11 8.5 C 11 7.6597282 11.659728 7 12.5 7 z M 19.613281 10.574219 L 19.742188 10.839844 C 20.453222 13.069955 19.681517 15.498232 17.802734 16.898438 A 1.0001 1.0001 0 0 0 17.759766 16.931641 C 14.948312 19.274525 10.701512 20.999415 7.0019531 21 C 6.2428487 20.998962 5.55391 20.57175 5.2148438 19.892578 L 4.7636719 18.990234 C 4.8419074 18.994763 4.9201615 18.999947 5 19 C 9.2806867 19 13.808227 17.139731 16.994141 14.501953 A 1 1 0 0 0 17 14.5 C 17.0023 14.4982 17.003459 14.495941 17.005859 14.494141 C 17.016699 14.485141 17.030206 14.47776 17.041016 14.46875 A 1 1 0 0 0 17.291016 14.142578 C 18.439245 13.159391 19.214306 11.910918 19.613281 10.574219 z "/>
</svg>
