<?xml version="1.0" encoding="UTF-8" standalone="no"?>
<svg xmlns="http://www.w3.org/2000/svg" xmlns:svg="http://www.w3.org/2000/svg" width="24" height="24" viewBox="0 0 24 24" fill="currentColor" tags="food,dish,restaurant,course,meal,meat,bbq,steak" categories="food-beverage">
  <path d="M 12.5 1 C 9.2048891 0.99802722 6.2874046 3.1573983 5.3242188 6.3085938 L 5.3359375 6.2675781 C 4.7673756 7.8853949 4.5572307 8.8848343 4.2539062 9.6113281 C 3.9505818 10.337822 3.5679858 10.903725 2.4277344 11.939453 C 1.0488885 13.098721 0.71760894 14.898759 1.234375 16.345703 C 1.3063855 16.547333 1.397089 16.742669 1.5019531 16.931641 A 1 1 0 0 0 1.5058594 16.947266 L 3.4257812 20.787109 C 4.1010929 22.139803 5.4861531 22.997932 6.9980469 23 A 1.0001 1.0001 0 0 0 7 23 C 11.285421 23 15.819401 21.136561 19.005859 18.494141 C 20.890355 17.079708 22.000589 14.860338 22 12.503906 L 22 12.501953 C 22.0022 11.719072 21.88184 10.940748 21.642578 10.195312 A 1.0001 1.0001 0 0 0 21.589844 10.0625 L 19.419922 5.6074219 C 19.417683 5.6020602 19.414361 5.5971538 19.412109 5.5917969 L 19.398438 5.5625 C 18.312015 3.0081723 15.806165 1 12.5 1 z M 12.5 3 C 15.198948 3 17.01858 4.6670691 17.716797 6.7617188 C 18.415013 8.8563684 17.95994 11.281022 15.800781 12.900391 A 1.0001 1.0001 0 0 0 15.759766 12.931641 C 12.947828 15.274918 8.7 17 5 17 C 4.0094411 16.99934 3.3878002 16.424122 3.1191406 15.671875 C 2.850481 14.919628 2.9683424 14.081139 3.734375 13.453125 A 1.0001 1.0001 0 0 0 3.7714844 13.419922 C 5.0312333 12.275647 5.6879338 11.366866 6.0996094 10.380859 C 6.5112849 9.3948536 6.6912179 8.4438243 7.2226562 6.9316406 A 1.0001 1.0001 0 0 0 7.2363281 6.8925781 C 7.9448124 4.5746742 10.076237 2.9985489 12.5 3 z M 12.5 5 C 10.578848 5 9 6.578848 9 8.5 C 9 10.421152 10.578848 12 12.5 12 C 14.421152 12 16 10.421152 16 8.5 C 16 6.578848 14.421152 5 12.5 5 z M 12.5 7 C 13.340272 7 14 7.6597282 14 8.5 C 14 9.3402718 13.340272 10 12.5 10 C 11.659728 10 11 9.3402718 11 8.5 C 11 7.6597282 11.659728 7 12.5 7 z M 19.679688 10.707031 L 19.744141 10.839844 C 19.912375 11.376018 20.001703 11.934006 20 12.496094 A 1.0001 1.0001 0 0 0 20 12.5 C 20.0013 14.231879 19.187085 15.862331 17.800781 16.900391 A 1.0001 1.0001 0 0 0 17.759766 16.931641 C 14.948315 19.274521 10.701512 20.999415 7.0019531 21 C 6.2428487 20.998962 5.55391 20.57175 5.2148438 19.892578 L 4.7636719 18.990234 C 4.8419074 18.994763 4.9201615 18.999947 5 19 C 9.2863354 19 13.821252 17.135503 17.007812 14.492188 C 18.378131 13.461377 19.248516 12.127648 19.679688 10.707031 z "/>
</svg>
