<?xml version="1.0" encoding="UTF-8" standalone="no"?>
<svg xmlns="http://www.w3.org/2000/svg" xmlns:svg="http://www.w3.org/2000/svg" width="24" height="24" viewBox="0 0 24 24" fill="currentColor" tags="alcohol,bar,beverage,brewery,drink" categories="food-beverage">
  <path d="M 2 1 A 1 1 0 0 0 1.2929688 1.2929688 A 1 1 0 0 0 1.2929688 2.7070312 L 2.421875 3.8359375 C 1.9048666 4.7920596 1.881589 5.9127706 2.265625 6.8398438 C 2.5858929 7.6129791 3.2004759 8.2829899 4 8.6640625 L 4 20 C 4 21.64501 5.3549904 23 7 23 L 15 23 C 16.64501 23 18 21.64501 18 20 L 18 19.414062 L 21.292969 22.707031 A 1 1 0 0 0 22.707031 22.707031 A 1 1 0 0 0 22.707031 21.292969 L 2.7070312 1.2929688 A 1 1 0 0 0 2 1 z M 11 1 C 9.4264051 1 8.5107849 2.115079 8.125 2.40625 A 1 1 0 0 0 7.9296875 3.8066406 A 1 1 0 0 0 9.3300781 4.0019531 C 10.102293 3.4191241 10.343595 3 11 3 C 11.459487 3 11.663251 3.1642401 12.052734 3.5039062 C 12.442218 3.8435722 13 4.5 14 4.5 C 15.333333 4.5 16.14735 4 16.5 4 C 17.083333 4 17.393559 4.1827444 17.626953 4.4453125 C 17.860347 4.7078806 18 5.0972221 18 5.5 C 18 5.9027779 17.860347 6.2921194 17.626953 6.5546875 C 17.393559 6.8172556 17.083333 7 16.5 7 C 16.14735 7 15.333333 6.5 14 6.5 A 1.0001 1.0001 0 0 0 13.994141 6.5 C 13.618899 6.50229 13.245708 6.555575 12.884766 6.6582031 A 1 1 0 0 0 12.195312 7.8925781 A 1 1 0 0 0 13.431641 8.5820312 C 13.616767 8.5294052 13.807603 8.5016969 14 8.5 C 14.567497 8.5 15.107765 8.8609595 16 8.96875 L 16 11.470703 A 1 1 0 0 0 17 12.470703 A 1 1 0 0 0 17.845703 12 L 18 12 C 19.482296 11.999861 20.428432 13.450479 19.830078 14.806641 A 1 1 0 0 0 20.341797 16.125 A 1 1 0 0 0 21.660156 15.615234 C 22.811777 13.005098 20.852901 9.9997322 18 10 L 18 8.6914062 C 18.441955 8.4966403 18.824879 8.2182512 19.123047 7.8828125 C 19.722986 7.2078806 20 6.3472221 20 5.5 C 20 4.6527779 19.722986 3.7921194 19.123047 3.1171875 C 18.523108 2.4422556 17.583333 2 16.5 2 C 15.29265 2 14.666667 2.5 14 2.5 C 14 2.5 13.837703 2.4064277 13.367188 1.9960938 C 12.89667 1.5857598 12.100513 1 11 1 z M 3.9882812 5.4023438 L 5.578125 6.9921875 C 5.5500413 6.9959908 5.523999 7 5.5 7 C 4.7892405 7.0001325 4.3343668 6.6079254 4.1132812 6.0742188 C 4.0234724 5.8574175 3.977511 5.6297597 3.9882812 5.4023438 z M 7.2265625 8.640625 L 12 13.414062 L 12 18 A 1 1 0 0 0 13 19 A 1 1 0 0 0 14 18 L 14 15.414062 L 16 17.414062 L 16 20 C 16 20.564129 15.564129 21 15 21 L 7 21 C 6.4358706 21 6 20.564129 6 20 L 6 8.9667969 C 6.4956593 8.9009076 6.8846906 8.7513307 7.2265625 8.640625 z M 9 13.599609 A 1 1 0 0 0 8 14.599609 L 8 18 A 1 1 0 0 0 9 19 A 1 1 0 0 0 10 18 L 10 14.599609 A 1 1 0 0 0 9 13.599609 z "/>
</svg>
