<?xml version="1.0" encoding="UTF-8" standalone="no"?>
<svg xmlns="http://www.w3.org/2000/svg" xmlns:svg="http://www.w3.org/2000/svg" width="24" height="24" viewBox="0 0 24 24" fill="currentColor" tags="alcohol,bar,beverage,brewery,drink" categories="food-beverage">
  <path d="M 11 1 C 9.8994894 1 9.0969559 1.5768372 8.6132812 1.9902344 C 8.3714439 2.1969329 8.1855772 2.3648525 8.0722656 2.4433594 C 8.0178695 2.4810472 7.9939293 2.4950517 7.984375 2.5 C 7.4152231 2.4912548 6.6965989 2 5.5 2 C 4.4166691 2 3.4768911 2.442257 2.8769531 3.1171875 C 2.2770151 3.792118 2 4.6527795 2 5.5 C 2 6.3472205 2.2770151 7.207882 2.8769531 7.8828125 C 3.1751063 8.218235 3.5580714 8.4966417 4 8.6914062 L 4 20 C 4 21.645006 5.3549936 23 7 23 L 15 23 C 16.645006 23 18 21.645006 18 20 L 18 18 C 19.249997 18 20.314776 17.495244 20.998047 16.726562 C 21.681318 15.957882 22 14.97222 22 14 C 22 13.02778 21.681318 12.042118 20.998047 11.273438 C 20.314776 10.504756 19.249997 10 18 10 L 18 8.6914062 C 18.441929 8.4966417 18.824893 8.218235 19.123047 7.8828125 C 19.722984 7.207882 20 6.3472205 20 5.5 C 20 4.6527795 19.722984 3.792118 19.123047 3.1171875 C 18.523108 2.442257 17.583331 2 16.5 2 C 15.292652 2 14.666665 2.5 14 2.5 C 14 2.5 13.837702 2.4064269 13.367188 1.9960938 C 12.896672 1.5857607 12.100511 1 11 1 z M 11 3 C 11.459487 3 11.663252 3.1642409 12.052734 3.5039062 C 12.442218 3.8435715 13.000002 4.5 14 4.5 C 15.333331 4.5 16.147351 4 16.5 4 C 17.083331 4 17.39356 4.182745 17.626953 4.4453125 C 17.860347 4.70788 18 5.0972229 18 5.5 C 18 5.9027771 17.860347 6.29212 17.626953 6.5546875 C 17.39356 6.817255 17.083331 7 16.5 7 C 16.147351 7 15.333331 6.5 14 6.5 C 13.333335 6.5 12.833705 6.6721831 12.431641 6.7890625 C 12.029575 6.9059419 11.673161 7 11 7 C 10.326839 7 9.9704246 6.9059419 9.5683594 6.7890625 C 9.1662941 6.6721831 8.6666653 6.5 8 6.5 C 6.6666693 6.5 5.8526488 7 5.5 7 C 4.9166683 7 4.6064401 6.817255 4.3730469 6.5546875 C 4.1396536 6.29212 4 5.9027771 4 5.5 C 4 5.0972229 4.1396536 4.70788 4.3730469 4.4453125 C 4.6064401 4.182745 4.9166683 4 5.5 4 C 5.8526488 4 6.7115796 4.5 8 4.5 C 8.5013162 4.5 8.9183124 4.2906332 9.2109375 4.0878906 C 9.5035626 3.8851481 9.7171507 3.6780664 9.9140625 3.5097656 C 10.307887 3.1731643 10.540513 3 11 3 z M 8 8.5 C 8.3333327 8.5 8.5537857 8.5778174 9.0117188 8.7109375 C 9.4696517 8.8440576 10.113164 9 11 9 C 11.886836 9 12.530349 8.8440576 12.988281 8.7109375 C 13.446215 8.5778174 13.666667 8.5 14 8.5 C 14.567071 8.5 15.108963 8.858707 16 8.9667969 L 16 11 L 16 17 L 16 20 C 16 20.564128 15.564128 21 15 21 L 7 21 C 6.4358718 21 6 20.564128 6 20 L 6 8.9667969 C 6.8910371 8.858707 7.4329288 8.5 8 8.5 z M 9 11 A 1 1 0 0 0 8 12 L 8 18 A 1 1 0 0 0 9 19 A 1 1 0 0 0 10 18 L 10 12 A 1 1 0 0 0 9 11 z M 13 11 A 1 1 0 0 0 12 12 L 12 18 A 1 1 0 0 0 13 19 A 1 1 0 0 0 14 18 L 14 12 A 1 1 0 0 0 13 11 z M 18 12 C 18.749998 12 19.185226 12.245245 19.501953 12.601562 C 19.81868 12.957879 20 13.472224 20 14 C 20 14.527776 19.81868 15.04212 19.501953 15.398438 C 19.185226 15.754754 18.749998 16 18 16 L 18 12 z "/>
</svg>
