<?xml version="1.0" encoding="UTF-8" standalone="no"?>
<svg xmlns="http://www.w3.org/2000/svg" xmlns:svg="http://www.w3.org/2000/svg" width="24" height="24" viewBox="0 0 24 24" fill="currentColor" tags="alcohol,bar,beverage,brewery,drink" categories="food-beverage">
  <path d="M 11 1 C 9.8994872 1 9.0969568 1.5768364 8.6132812 1.9902344 C 8.3714434 2.1969333 8.1855775 2.3648523 8.0722656 2.4433594 C 8.0202519 2.4793966 7.9930527 2.4944388 7.9824219 2.5 C 7.4136189 2.4900165 6.6950473 2 5.5 2 C 4.4166669 2 3.4768923 2.4422556 2.8769531 3.1171875 C 2.2770139 3.7921194 2 4.6527779 2 5.5 C 2 6.3472221 2.2770139 7.2078806 2.8769531 7.8828125 C 3.1753041 8.2184575 3.5576996 8.4966229 4 8.6914062 L 4 20 C 4 21.64501 5.3549904 23 7 23 L 15 23 C 16.64501 23 18 21.64501 18 20 L 18 18 C 19.25 18 20.314774 17.495244 20.998047 16.726562 C 21.681319 15.957881 22 14.972222 22 14 C 22 13.027778 21.681319 12.042119 20.998047 11.273438 C 20.314774 10.504755 19.25 10 18 10 L 18 8.6914062 C 18.4423 8.4966229 18.824696 8.2184576 19.123047 7.8828125 C 19.722986 7.2078806 20 6.3472221 20 5.5 C 20 4.6527779 19.722986 3.7921194 19.123047 3.1171875 C 18.523108 2.4422556 17.583333 2 16.5 2 C 15.29265 2 14.666667 2.5 14 2.5 C 14 2.5 13.837703 2.4064277 13.367188 1.9960938 C 12.89667 1.5857598 12.100513 1 11 1 z M 11 3 C 11.459487 3 11.663251 3.1642401 12.052734 3.5039062 C 12.442218 3.8435722 13 4.5 14 4.5 C 15.333333 4.5 16.14735 4 16.5 4 C 17.083333 4 17.393559 4.1827444 17.626953 4.4453125 C 17.860347 4.7078806 18 5.0972221 18 5.5 C 18 5.9027779 17.860347 6.2921194 17.626953 6.5546875 C 17.393559 6.8172556 17.083333 7 16.5 7 C 16.14735 7 15.333333 6.5 14 6.5 C 13.333333 6.5 12.833707 6.6721828 12.431641 6.7890625 C 12.029575 6.9059422 11.673162 7 11 7 C 10.326838 7 9.9704254 6.9059422 9.5683594 6.7890625 C 9.1662933 6.6721828 8.6666667 6.5 8 6.5 C 6.6666667 6.5 5.8526496 7 5.5 7 C 4.9166671 7 4.6064406 6.8172556 4.3730469 6.5546875 C 4.1396531 6.2921194 4 5.9027779 4 5.5 C 4 5.0972221 4.1396531 4.7078806 4.3730469 4.4453125 C 4.6064406 4.1827444 4.9166671 4 5.5 4 C 5.8526496 4 6.7115771 4.5 8 4.5 C 8.5013172 4.5 8.9183118 4.2906336 9.2109375 4.0878906 C 9.5035632 3.8851477 9.7171503 3.6780667 9.9140625 3.5097656 C 10.307887 3.1731636 10.540513 3 11 3 z M 8 8.5 C 8.3333333 8.5 8.5537848 8.5778172 9.0117188 8.7109375 C 9.4696526 8.8440578 10.113162 9 11 9 C 11.886838 9 12.530347 8.8440578 12.988281 8.7109375 C 13.446215 8.5778172 13.666667 8.5 14 8.5 C 14.567974 8.5 15.106419 8.8632508 16 8.9707031 L 16 11 L 16 17 L 16 20 C 16 20.564129 15.564129 21 15 21 L 7 21 C 6.4358706 21 6 20.564129 6 20 L 6 8.9707031 C 6.8935818 8.8632509 7.432026 8.5 8 8.5 z M 9 11 A 1 1 0 0 0 8 12 L 8 18 A 1 1 0 0 0 9 19 A 1 1 0 0 0 10 18 L 10 12 A 1 1 0 0 0 9 11 z M 13 11 A 1 1 0 0 0 12 12 L 12 18 A 1 1 0 0 0 13 19 A 1 1 0 0 0 14 18 L 14 12 A 1 1 0 0 0 13 11 z M 18 12 C 18.749999 12 19.185226 12.245244 19.501953 12.601562 C 19.81868 12.95788 20 13.472222 20 14 C 20 14.527778 19.81868 15.042119 19.501953 15.398438 C 19.185226 15.754755 18.749999 16 18 16 L 18 12 z "/>
</svg>
