<?xml version="1.0" encoding="UTF-8" standalone="no"?>
<svg xmlns="http://www.w3.org/2000/svg" xmlns:svg="http://www.w3.org/2000/svg" width="24" height="24" viewBox="0 0 24 24" fill="currentColor" tags="alcohol,bar,beverage,brewery,drink" categories="food-beverage">
  <path d="M 2 1 A 1 1 0 0 0 1.2929688 1.2929688 A 1 1 0 0 0 1.2929688 2.7070312 L 2.421875 3.8359375 C 1.9048675 4.7920587 1.8815898 5.9127724 2.265625 6.8398438 C 2.5858923 7.6129776 3.2004766 8.28299 4 8.6640625 L 4 20 C 4 21.645006 5.3549936 23 7 23 L 15 23 C 16.645006 23 18 21.645006 18 20 L 18 19.414062 L 21.292969 22.707031 A 1 1 0 0 0 22.707031 22.707031 A 1 1 0 0 0 22.707031 21.292969 L 2.7070312 1.2929688 A 1 1 0 0 0 2 1 z M 11 1 C 9.4264083 1 8.5107841 2.1150796 8.125 2.40625 A 1 1 0 0 0 7.9296875 3.8066406 A 1 1 0 0 0 9.3300781 4.0019531 C 10.102291 3.4191253 10.343597 3 11 3 C 11.459487 3 11.663252 3.1642409 12.052734 3.5039062 C 12.442218 3.8435715 13.000002 4.5 14 4.5 C 15.333331 4.5 16.147351 4 16.5 4 C 17.083331 4 17.39356 4.182745 17.626953 4.4453125 C 17.860347 4.70788 18 5.0972229 18 5.5 C 18 5.9027771 17.860347 6.29212 17.626953 6.5546875 C 17.39356 6.817255 17.083331 7 16.5 7 C 16.147351 7 15.333331 6.5 14 6.5 A 1.0001 1.0001 0 0 0 13.994141 6.5 C 13.618899 6.50229 13.245706 6.5555751 12.884766 6.6582031 A 1 1 0 0 0 12.195312 7.8925781 A 1 1 0 0 0 13.431641 8.5820312 C 13.616766 8.5294053 13.807604 8.5016969 14 8.5 C 14.567496 8.5 15.107766 8.8609596 16 8.96875 L 16 11.470703 A 1 1 0 0 0 17 12.470703 A 1 1 0 0 0 17.845703 12 L 18 12 C 19.482293 11.999861 20.428431 13.450482 19.830078 14.806641 A 1 1 0 0 0 20.341797 16.125 A 1 1 0 0 0 21.660156 15.615234 C 22.811775 13.005104 20.852895 9.9997322 18 10 L 18 8.6914062 C 18.441955 8.4966404 18.82488 8.2182505 19.123047 7.8828125 C 19.722984 7.207882 20 6.3472205 20 5.5 C 20 4.6527795 19.722984 3.792118 19.123047 3.1171875 C 18.523108 2.442257 17.583331 2 16.5 2 C 15.292652 2 14.666665 2.5 14 2.5 C 14 2.5 13.837702 2.4064269 13.367188 1.9960938 C 12.896672 1.5857607 12.100511 1 11 1 z M 3.9882812 5.4023438 L 5.578125 6.9921875 C 5.5500414 6.9959908 5.5239989 7 5.5 7 C 4.7892419 7.0001325 4.3343664 6.6079243 4.1132812 6.0742188 C 4.0234725 5.857418 3.977511 5.6297596 3.9882812 5.4023438 z M 7.2265625 8.640625 L 12 13.414062 L 12 18 A 1 1 0 0 0 13 19 A 1 1 0 0 0 14 18 L 14 15.414062 L 16 17.414062 L 16 20 C 16 20.564128 15.564128 21 15 21 L 7 21 C 6.4358718 21 6 20.564128 6 20 L 6 8.9667969 C 6.4956587 8.9009077 6.8846908 8.7513306 7.2265625 8.640625 z M 9 13.599609 A 1 1 0 0 0 8 14.599609 L 8 18 A 1 1 0 0 0 9 19 A 1 1 0 0 0 10 18 L 10 14.599609 A 1 1 0 0 0 9 13.599609 z "/>
</svg>
