<?xml version="1.0" encoding="UTF-8" standalone="no"?>
<svg xmlns="http://www.w3.org/2000/svg" xmlns:svg="http://www.w3.org/2000/svg" width="24" height="24" viewBox="0 0 24 24" fill="currentColor" tags="alarm,notification,silent,reminder,delete,remove,erase" categories="notifications">
  <path d="M 11.976562 0.99414062 C 11.726467 0.99588309 11.477583 1.0110368 11.230469 1.0390625 C 10.571497 1.1137976 9.9265139 1.2801407 9.3203125 1.53125 C 6.8955068 2.5356872 4.9996315 4.9239439 5 8 C 5 12.289916 3.8699217 13.260908 2.5429688 14.630859 A 1.0001 1.0001 0 0 0 2.5234375 14.652344 C 1.9639586 15.26555 1.8762862 16.140589 2.1699219 16.806641 C 2.4635575 17.472692 3.1699137 17.999393 4 18 L 20 18 C 20.829982 18.000297 21.535659 17.474219 21.830078 16.808594 C 22.124497 16.142969 22.039047 15.268187 21.480469 14.654297 A 1.0001 1.0001 0 0 0 21.458984 14.632812 C 20.639411 13.782974 20.009122 12.770364 19.607422 11.660156 A 1 1 0 0 0 18.326172 11.060547 A 1 1 0 0 0 17.726562 12.339844 C 18.220511 13.705007 18.993421 14.952265 19.998047 16 L 4.0019531 16 C 5.3258156 14.631093 7 12.683533 7 8 C 6.9997281 5.7300356 8.3340544 4.1065489 10.085938 3.3808594 C 11.83782 2.6551698 13.930185 2.8596005 15.535156 4.4648438 A 1 1 0 0 0 16.949219 4.4648438 A 1 1 0 0 0 16.949219 3.0507812 C 15.52193 1.6232509 13.727234 0.98194337 11.976562 0.99414062 z M 15 7 A 1 1 0 0 0 14 8 A 1 1 0 0 0 15 9 L 21 9 A 1 1 0 0 0 22 8 A 1 1 0 0 0 21 7 L 15 7 z M 10.267578 20 A 1 1 0 0 0 9.7675781 20.134766 A 1 1 0 0 0 9.4023438 21.5 C 10.533025 23.458168 13.466975 23.458168 14.597656 21.5 A 1 1 0 0 0 14.232422 20.134766 A 1 1 0 0 0 12.865234 20.5 C 12.45627 21.208264 11.54373 21.208264 11.134766 20.5 A 1 1 0 0 0 10.267578 20 z "/>
</svg>
