<svg xmlns="http://www.w3.org/2000/svg" xmlns:svg="http://www.w3.org/2000/svg" width="24" height="24" viewBox="0 0 24 24" fill="currentColor" tags="alarm,notification,silent,reminder" categories="notifications">
  <path d="M 2 1 A 1 1 0 0 0 1.2929688 1.2929688 A 1 1 0 0 0 1.2929688 2.7070312 L 5.1484375 6.5625 C 5.0494689 7.0345618 4.9998813 7.516257 5 8 C 5 12.290065 3.8723707 13.260476 2.5429688 14.630859 A 1.0001 1.0001 0 0 0 2.5195312 14.654297 C 1.9609525 15.268185 1.8755032 16.142969 2.1699219 16.808594 C 2.4643406 17.474219 3.1700178 18.000297 4 18 L 16.585938 18 L 21.292969 22.707031 A 1 1 0 0 0 22.707031 22.707031 A 1 1 0 0 0 22.707031 21.292969 L 17.716797 16.302734 A 1 1 0 0 0 17.697266 16.283203 L 6.9882812 5.5742188 A 1 1 0 0 0 6.9414062 5.5273438 L 2.7070312 1.2929688 A 1 1 0 0 0 2 1 z M 11.755859 1.0117188 C 10.519285 1.0427141 9.2645886 1.4089297 8.1132812 2.1777344 A 1 1 0 0 0 7.8359375 3.5644531 A 1 1 0 0 0 9.2226562 3.8417969 C 12.591651 1.5920947 17.000157 3.9489157 17 8 C 17 10.878043 17.839364 13.060451 18.876953 14.607422 A 1 1 0 0 0 20.263672 14.880859 A 1 1 0 0 0 20.537109 13.492188 C 19.700698 12.245159 19 10.495957 19 8 C 19.000161 3.8467935 15.465583 0.91873288 11.755859 1.0117188 z M 6.9960938 8.4101562 L 14.585938 16 L 4.0019531 16 C 5.2896035 14.670315 6.901518 12.796806 6.9960938 8.4101562 z M 10.267578 20 A 1 1 0 0 0 9.7675781 20.134766 A 1 1 0 0 0 9.4023438 21.5 C 10.533025 23.458168 13.466975 23.458168 14.597656 21.5 A 1 1 0 0 0 14.232422 20.134766 A 1 1 0 0 0 12.865234 20.5 C 12.45627 21.208264 11.54373 21.208264 11.134766 20.5 A 1 1 0 0 0 10.267578 20 z "/>
</svg>
