<?xml version="1.0" encoding="UTF-8" standalone="no"?>
<svg xmlns="http://www.w3.org/2000/svg" xmlns:svg="http://www.w3.org/2000/svg" width="24" height="24" viewBox="0 0 24 24" fill="currentColor" tags="notification,silent,reminder,add,create,new" categories="notifications">
  <path d="M 12.105469 1.0058594 C 11.957642 1.0045705 11.810758 1.0074539 11.664062 1.015625 C 8.1433748 1.2117323 5.0004433 4.1011321 5 8 C 5 12.290065 3.8723707 13.260476 2.5429688 14.630859 A 1.0001 1.0001 0 0 0 2.5195312 14.654297 C 1.9609525 15.268185 1.8755032 16.142969 2.1699219 16.808594 C 2.4643406 17.474219 3.1700178 18.000297 4 18 L 20 18 C 20.829982 18.000297 21.535659 17.474219 21.830078 16.808594 C 22.124497 16.142969 22.039047 15.268187 21.480469 14.654297 A 1.0001 1.0001 0 0 0 21.457031 14.630859 C 21.222435 14.389219 21.003083 14.132538 20.800781 13.863281 A 1 1 0 0 0 19.400391 13.664062 A 1 1 0 0 0 19.203125 15.064453 C 19.456002 15.401024 19.730193 15.721387 20.023438 16.023438 L 20 16 L 4 16 C 5.3272766 14.629559 7 12.682906 7 8 C 7.0004306 4.2129979 10.925202 1.8209313 14.291016 3.5566406 A 1 1 0 0 0 15.638672 3.1269531 A 1 1 0 0 0 15.208984 1.7792969 C 14.19829 1.258094 13.140259 1.0148815 12.105469 1.0058594 z M 18 4 A 1 1 0 0 0 17 5 L 17 7 L 15 7 A 1 1 0 0 0 14 8 A 1 1 0 0 0 15 9 L 17 9 L 17 11 A 1 1 0 0 0 18 12 A 1 1 0 0 0 19 11 L 19 9 L 21 9 A 1 1 0 0 0 22 8 A 1 1 0 0 0 21 7 L 19 7 L 19 5 A 1 1 0 0 0 18 4 z M 10.333984 20.001953 A 1 1 0 0 0 9.7675781 20.134766 A 1 1 0 0 0 9.4023438 21.5 C 10.533025 23.458168 13.466975 23.458168 14.597656 21.5 A 1 1 0 0 0 14.232422 20.134766 A 1 1 0 0 0 12.865234 20.5 C 12.45627 21.208264 11.54373 21.208264 11.134766 20.5 A 1 1 0 0 0 10.333984 20.001953 z "/>
</svg>
