<?xml version="1.0" encoding="UTF-8" standalone="no"?>
<svg xmlns="http://www.w3.org/2000/svg" xmlns:svg="http://www.w3.org/2000/svg" width="24" height="24" viewBox="0 0 24 24" fill="currentColor" tags="alarm,notification,silent,reminder,delete,remove,erase" categories="notifications">
  
  <path d="M 12 1 C 8.1545531 1 5 4.1545531 5 8 C 5 11.357136 4.2876451 13.428055 3.6230469 14.646484 C 2.9584485 15.864915 2.4453125 16.167969 2.4453125 16.167969 A 1.0001 1.0001 0 0 0 3 18 L 21 18 A 1.0001 1.0001 0 0 0 21.554688 16.167969 C 21.554688 16.167969 21.287904 16.010086 20.816406 15.345703 C 20.344909 14.68132 19.75213 13.567733 19.378906 11.794922 A 1 1 0 0 0 18.193359 11.021484 A 1 1 0 0 0 17.421875 12.205078 C 17.786211 13.935673 18.354532 15.116615 18.904297 16 L 5.0527344 16 C 5.2045923 15.779589 5.2283218 15.876006 5.3769531 15.603516 C 6.2123519 14.071951 7 11.64285 7 8 C 7 5.2454601 9.2454601 3 12 3 C 13.5037 3 14.840467 3.6686488 15.763672 4.6757812 A 1 1 0 0 0 17.175781 4.7363281 A 1 1 0 0 0 17.236328 3.3242188 C 15.959534 1.9313559 14.096292 1 12 1 z M 15 7 A 1 1 0 0 0 14 8 A 1 1 0 0 0 15 9 L 21 9 A 1 1 0 0 0 22 8 A 1 1 0 0 0 21 7 L 15 7 z M 13.753906 20.001953 A 1 1 0 0 0 12.824219 20.517578 C 12.441621 21.213459 11.558379 21.213459 11.175781 20.517578 A 1 1 0 0 0 10.578125 20.039062 A 1 1 0 0 0 9.8183594 20.123047 A 1 1 0 0 0 9.4238281 21.482422 C 10.515191 23.467427 13.484809 23.467427 14.576172 21.482422 A 1 1 0 0 0 14.181641 20.123047 A 1 1 0 0 0 13.753906 20.001953 z "/>
</svg>
