<?xml version="1.0" encoding="UTF-8" standalone="no"?>
<svg xmlns="http://www.w3.org/2000/svg" xmlns:svg="http://www.w3.org/2000/svg" width="24" height="24" viewBox="0 0 24 24" fill="currentColor" tags="alarm,notification,sound,reminder,unread" categories="account,notifications">
  
  <path d="M 12 1 C 8.1545531 1 5 4.1545531 5 8 C 5 11.357136 4.2876451 13.428055 3.6230469 14.646484 C 2.9584485 15.864915 2.4453125 16.167969 2.4453125 16.167969 A 1.0001 1.0001 0 0 0 3 18 L 21 18 A 1.0001 1.0001 0 0 0 21.599609 16.199219 C 21.599609 16.199219 21.005041 15.783134 20.283203 14.429688 A 1 1 0 0 0 18.929688 14.017578 A 1 1 0 0 0 18.517578 15.371094 C 18.745046 15.797594 18.781123 15.687992 19.005859 16 L 5.0527344 16 C 5.2045923 15.779589 5.2283218 15.876006 5.3769531 15.603516 C 6.2123519 14.071951 7 11.64285 7 8 C 7 5.2454601 9.2454601 3 12 3 C 12.60476 3 13.078854 3.0796701 13.583984 3.2480469 A 1 1 0 0 0 14.849609 2.6171875 A 1 1 0 0 0 14.216797 1.3515625 C 13.52193 1.1199402 12.795236 1 12 1 z M 18 4 C 15.80271 4 14 5.80271 14 8 C 14 10.19729 15.80271 12 18 12 C 20.19729 12 22 10.19729 22 8 C 22 5.80271 20.19729 4 18 4 z M 18 6 C 19.116412 6 20 6.8835881 20 8 C 20 9.1164119 19.116412 10 18 10 C 16.883588 10 16 9.1164119 16 8 C 16 6.8835881 16.883588 6 18 6 z M 13.753906 20.001953 A 1 1 0 0 0 12.824219 20.517578 C 12.441621 21.213459 11.558379 21.213459 11.175781 20.517578 A 1 1 0 0 0 10.578125 20.039062 A 1 1 0 0 0 9.8183594 20.123047 A 1 1 0 0 0 9.4238281 21.482422 C 10.515191 23.467427 13.484809 23.467427 14.576172 21.482422 A 1 1 0 0 0 14.181641 20.123047 A 1 1 0 0 0 13.753906 20.001953 z "/>
</svg>
