<?xml version="1.0" encoding="UTF-8" standalone="no"?>
<svg xmlns="http://www.w3.org/2000/svg" xmlns:svg="http://www.w3.org/2000/svg" width="24" height="24" viewBox="0 0 24 24" fill="currentColor" tags="fire alarm,flames,smoke,firefighter,fireman,department,brigade,station,emergency,alert,safety,school bell,period break,recess,doorbell,entrance,entry,ring,reception" categories="devices,notifications,home">
  <path d="M 9 1 C 4.5935666 1 1 4.5935666 1 9 C 1 11.673723 2.3227235 14.048005 4.3476562 15.501953 C 3.5379124 16.041791 3 16.963506 3 18 L 3 20 C 3 21.644703 4.3552972 23 6 23 L 12 23 C 13.644703 23 15 21.644703 15 20 L 15 19.9375 C 16.260853 19.778792 17.467234 19.32186 18.517578 18.603516 C 18.955939 18.855594 19.46261 19 20 19 C 21.64501 19 23 17.64501 23 16 C 23 14.35499 21.64501 13 20 13 C 18.35499 13 17 14.35499 17 16 C 17 16.378134 17.070915 16.741622 17.201172 17.076172 C 16.529342 17.499803 15.780224 17.784225 14.998047 17.916016 C 14.970018 16.913656 14.440275 16.02725 13.652344 15.501953 C 15.677276 14.048005 17 11.673722 17 9 C 17 4.5935666 13.406433 1 9 1 z M 9 3 C 12.325553 3 15 5.6744469 15 9 C 15 12.325553 12.325553 15 9 15 C 5.6744469 15 3 12.325553 3 9 C 3 5.6744469 5.6744469 3 9 3 z M 18.851562 3.0019531 A 1 1 0 0 0 18.345703 3.109375 A 1 1 0 0 0 17.908203 4.4550781 C 18.625851 5.8627938 19.000575 7.4199109 19 9 A 1 1 0 0 0 20 10 A 1 1 0 0 0 21 9 C 21.000689 7.1039597 20.552553 5.2341214 19.691406 3.5449219 A 1 1 0 0 0 19.109375 3.0488281 A 1 1 0 0 0 18.851562 3.0019531 z M 9 8 A 1 1 0 0 0 8 9 A 1 1 0 0 0 9 10 L 9.0097656 10 A 1 1 0 0 0 10.009766 9 A 1 1 0 0 0 9.0097656 8 L 9 8 z M 20 15 C 20.564129 15 21 15.435871 21 16 C 21 16.564129 20.564129 17 20 17 C 19.721918 17 19.47578 16.893729 19.296875 16.71875 A 1 1 0 0 0 19.28125 16.701172 A 1 1 0 0 0 19.21875 16.632812 C 19.081732 16.462038 19 16.242858 19 16 C 19 15.435871 19.435871 15 20 15 z M 6 17 L 9 17 L 12 17 C 12.571297 17 13 17.428703 13 18 L 13 19 L 13 20 C 13 20.571297 12.571297 21 12 21 L 6 21 C 5.4287028 21 5 20.571297 5 20 L 5 18 C 5 17.428703 5.4287028 17 6 17 z "/>
</svg>
