<?xml version="1.0" encoding="UTF-8" standalone="no"?>
<svg xmlns="http://www.w3.org/2000/svg" xmlns:svg="http://www.w3.org/2000/svg" width="24" height="24" viewBox="0 0 24 24" fill="currentColor" tags="alarm,notification,silent,reminder" categories="notifications">
  
  <path d="M 2 1 A 1 1 0 0 0 1.2929688 1.2929688 A 1 1 0 0 0 1.2929688 2.7070312 L 5.1699219 6.5839844 C 5.0539964 7.0503847 4.9945891 7.529561 5 8.0117188 C 4.9983073 11.361801 4.286854 13.429505 3.6230469 14.646484 C 2.9584485 15.864915 2.4453125 16.167969 2.4453125 16.167969 A 1.0001 1.0001 0 0 0 3 18 L 16.585938 18 L 21.292969 22.707031 A 1 1 0 0 0 22.707031 22.707031 A 1 1 0 0 0 22.707031 21.292969 L 17.707031 16.292969 L 6.984375 5.5703125 L 2.7070312 1.2929688 A 1 1 0 0 0 2 1 z M 11.785156 1.0214844 C 10.552956 1.0473868 9.3013374 1.4061 8.1503906 2.1640625 A 1 1 0 0 0 7.8652344 3.5507812 A 1 1 0 0 0 9.25 3.8359375 C 12.616837 1.6186883 16.992622 3.9706101 17 8.0019531 C 17.0018 9.7649101 17.213411 11.523028 17.628906 13.236328 A 1 1 0 0 0 18.835938 13.972656 A 1 1 0 0 0 19.572266 12.763672 C 19.193894 11.203454 19.001507 9.6054407 19 8 A 1.0001 1.0001 0 0 0 19 7.9980469 C 18.992433 3.8637224 15.481756 0.94377673 11.785156 1.0214844 z M 6.9941406 8.4082031 L 14.585938 16 L 5.0527344 16 C 5.2045923 15.779589 5.2283218 15.876006 5.3769531 15.603516 C 6.1804444 14.130448 6.9373096 11.823185 6.9941406 8.4082031 z M 13.753906 20.001953 A 1 1 0 0 0 12.824219 20.517578 C 12.441621 21.213459 11.558379 21.213459 11.175781 20.517578 A 1 1 0 0 0 10.578125 20.039062 A 1 1 0 0 0 9.8183594 20.123047 A 1 1 0 0 0 9.4238281 21.482422 C 10.515191 23.467427 13.484809 23.467427 14.576172 21.482422 A 1 1 0 0 0 14.181641 20.123047 A 1 1 0 0 0 13.753906 20.001953 z "/>
</svg>
