<?xml version="1.0" encoding="UTF-8" standalone="no"?>
<svg xmlns="http://www.w3.org/2000/svg" xmlns:svg="http://www.w3.org/2000/svg" width="24" height="24" viewBox="0 0 24 24" fill="currentColor" tags="alarm,notification,sound,reminder" categories="account,notifications">
  <path d="M 12 1 C 8.1458524 1 5 4.1458495 5 8 C 5 12.289916 3.8699217 13.260908 2.5429688 14.630859 A 1 1 0 0 0 2.5429688 14.642578 A 1 1 0 0 0 2.5234375 14.652344 C 1.9639586 15.26552 1.8762862 16.140589 2.1699219 16.806641 C 2.4635575 17.472692 3.1699137 17.999393 4 18 L 20 18 C 20.829982 18.000297 21.535659 17.474219 21.830078 16.808594 C 22.124497 16.142969 22.039047 15.268187 21.480469 14.654297 A 1.0001 1.0001 0 0 0 21.457031 14.630859 C 20.127631 13.260478 19 12.290065 19 8 C 19 4.1458495 15.854148 1 12 1 z M 12 3 C 14.773269 3 17 5.226729 17 8 C 17 12.682906 18.672723 14.629562 20 16 L 4 16 A 1 1 0 0 0 4.0195312 15.966797 C 5.340444 14.598841 7 12.66173 7 8 C 7 5.226729 9.2267307 3 12 3 z M 10.333984 20.001953 A 1 1 0 0 0 9.7675781 20.134766 A 1 1 0 0 0 9.4023438 21.5 C 10.533025 23.458168 13.466975 23.458168 14.597656 21.5 A 1 1 0 0 0 14.232422 20.134766 A 1 1 0 0 0 12.865234 20.5 C 12.45627 21.208264 11.54373 21.208264 11.134766 20.5 A 1 1 0 0 0 10.333984 20.001953 z "/>
</svg>
