<?xml version="1.0" encoding="UTF-8" standalone="no"?>
<svg xmlns="http://www.w3.org/2000/svg" xmlns:svg="http://www.w3.org/2000/svg" width="24" height="24" viewBox="0 0 24 24" fill="currentColor" tags="fire alarm,flames,smoke,firefighter,fireman,department,brigade,station,emergency,alert,safety,school bell,period break,recess,doorbell,entrance,entry,ring,reception" categories="devices,notifications,home">
  <path d="M 9 1 C 4.5935666 1 1 4.5935666 1 9 C 1 11.673723 2.3227235 14.048005 4.3476562 15.501953 C 3.5379124 16.041791 3 16.963506 3 18 L 3 20 C 3 21.644703 4.3552972 23 6 23 L 12 23 C 13.644703 23 15 21.644703 15 20 L 15 19.943359 C 16.659843 19.752027 17.888374 19.117864 18.599609 18.648438 C 19.018525 18.872182 19.496013 19 20 19 C 21.64501 19 23 17.64501 23 16 C 23 14.35499 21.64501 13 20 13 C 18.35499 13 17 14.35499 17 16 C 17 16.416969 17.087369 16.815376 17.244141 17.177734 C 16.767399 17.463748 16.024169 17.795276 15 17.933594 C 14.977838 16.923888 14.444968 16.030378 13.652344 15.501953 C 15.677276 14.048005 17 11.673722 17 9 C 17 4.5935666 13.406433 1 9 1 z M 9 3 C 12.325553 3 15 5.6744469 15 9 C 15 12.325553 12.325553 15 9 15 C 5.6744469 15 3 12.325553 3 9 C 3 5.6744469 5.6744469 3 9 3 z M 18.839844 3 A 1 1 0 0 0 18.333984 3.1152344 A 1 1 0 0 0 17.914062 4.4648438 C 18.595387 5.7618409 18.985101 7.3614804 19 9.0097656 A 1 1 0 0 0 20.009766 10 A 1 1 0 0 0 21 8.9902344 C 20.982397 7.0427931 20.533279 5.1489324 19.685547 3.5351562 A 1 1 0 0 0 19.097656 3.0449219 A 1 1 0 0 0 18.839844 3 z M 9 8 A 1 1 0 0 0 8 9 A 1 1 0 0 0 9 10 L 9.0097656 10 A 1 1 0 0 0 10.009766 9 A 1 1 0 0 0 9.0097656 8 L 9 8 z M 20 15 C 20.564129 15 21 15.435871 21 16 C 21 16.564129 20.564129 17 20 17 C 19.776856 17 19.574127 16.931811 19.410156 16.814453 A 1 1 0 0 0 19.306641 16.693359 A 1 1 0 0 0 19.185547 16.589844 C 19.068189 16.425873 19 16.223144 19 16 C 19 15.435871 19.435871 15 20 15 z M 6 17 L 12 17 C 12.571297 17 13 17.428703 13 18 L 13 20 C 13 20.571297 12.571297 21 12 21 L 6 21 C 5.4287028 21 5 20.571297 5 20 L 5 18 C 5 17.428703 5.4287028 17 6 17 z "/>
</svg>
