<?xml version="1.0" encoding="UTF-8" standalone="no"?>
<svg xmlns="http://www.w3.org/2000/svg" xmlns:svg="http://www.w3.org/2000/svg" width="24" height="24" viewBox="0 0 24 24" fill="currentColor" tags="alarm,notification,sound,reminder,unread" categories="account,notifications">
  <path d="M 12.125 1.0019531 C 11.707489 0.99538309 11.294565 1.0266358 10.890625 1.09375 C 7.6591062 1.6306639 4.9999136 4.4315413 5 8 C 5 12.289916 3.8697774 13.260105 2.5410156 14.630859 A 1.0001 1.0001 0 0 0 2.5195312 14.654297 C 1.9609527 15.268185 1.8755032 16.142969 2.1699219 16.808594 C 2.4643406 17.474219 3.1700178 18.000297 4 18 L 20 18 C 20.829982 18.000297 21.535659 17.474219 21.830078 16.808594 C 22.124497 16.142969 22.039047 15.268187 21.480469 14.654297 A 1.0001 1.0001 0 0 0 21.457031 14.630859 C 21.274104 14.442478 21.101027 14.244514 20.9375 14.039062 A 1 1 0 0 0 19.533203 13.878906 A 1 1 0 0 0 19.373047 15.285156 C 19.570576 15.533328 19.779774 15.771762 20 16 L 4 16 C 5.3259527 14.629922 7 12.683055 7 8 C 6.9999165 4.5505883 10.326894 2.1602065 13.595703 3.2617188 A 1 1 0 0 0 14.863281 2.6328125 A 1 1 0 0 0 14.234375 1.3671875 C 13.52987 1.1297859 12.820852 1.0129032 12.125 1.0019531 z M 18 4 C 15.802706 4 14 5.8027056 14 8 C 14 10.197294 15.802706 12 18 12 C 20.197294 12 22 10.197294 22 8 C 22 5.8027056 20.197294 4 18 4 z M 18 6 C 19.116414 6 20 6.8835859 20 8 C 20 9.1164141 19.116414 10 18 10 C 16.883586 10 16 9.1164141 16 8 C 16 6.8835859 16.883586 6 18 6 z M 10.333984 20.001953 A 1 1 0 0 0 9.7675781 20.134766 A 1 1 0 0 0 9.4023438 21.5 C 10.533025 23.458168 13.466975 23.458168 14.597656 21.5 A 1 1 0 0 0 14.232422 20.134766 A 1 1 0 0 0 12.865234 20.5 C 12.45627 21.208264 11.54373 21.208264 11.134766 20.5 A 1 1 0 0 0 10.333984 20.001953 z "/>
</svg>
