<svg xmlns="http://www.w3.org/2000/svg" xmlns:svg="http://www.w3.org/2000/svg" width="24" height="24" viewBox="0 0 24 24" fill="currentColor" tags="insert,add,right,slot,squeeze,space,vertical,grid,table,rows,cells,excel,spreadsheet,accountancy,data,enter,entry,entries,blocks,rectangles,chevron" categories="layout,design,tools">
  <path d="M 9 2 C 7.9092972 2 7 2.9092972 7 4 L 7 9 C 7 10.090703 7.9092972 11 9 11 L 20 11 C 21.090703 11 22 10.090703 22 9 L 22 4 C 22 2.9092972 21.090703 2 20 2 L 9 2 z M 9 4 L 20 4 L 20 9 L 9 9 L 9 4 z M 2 8 A 1 1 0 0 0 1.2929688 8.2929688 A 1 1 0 0 0 1.2929688 9.7070312 L 3.5859375 12 L 1.2929688 14.292969 A 1 1 0 0 0 1.2929688 15.707031 A 1 1 0 0 0 2.7070312 15.707031 L 5.7070312 12.707031 A 1.0001 1.0001 0 0 0 5.7070312 11.292969 L 2.7070312 8.2929688 A 1 1 0 0 0 2 8 z M 9 13 C 7.9092972 13 7 13.909297 7 15 L 7 20 C 7 21.090703 7.9092972 22 9 22 L 20 22 C 21.090703 22 22 21.090703 22 20 L 22 15 C 22 13.909297 21.090703 13 20 13 L 9 13 z M 9 15 L 20 15 L 20 20 L 9 20 L 9 15 z "/>
</svg>
