<svg xmlns="http://www.w3.org/2000/svg" xmlns:svg="http://www.w3.org/2000/svg" width="24" height="24" viewBox="0 0 24 24" fill="currentColor" tags="insert,add,bottom,slot,squeeze,space,vertical,grid,table,columns,cells,data,enter,entry,entries,blocks,rectangles,chevron" categories="layout,design,tools">
  <path d="M 9 1 A 1 1 0 0 0 8.2929688 1.2929688 A 1 1 0 0 0 8.2929688 2.7070312 L 11.292969 5.7070312 A 1.0001 1.0001 0 0 0 12.707031 5.7070312 L 15.707031 2.7070312 A 1 1 0 0 0 15.707031 1.2929688 A 1 1 0 0 0 14.292969 1.2929688 L 12 3.5859375 L 9.7070312 1.2929688 A 1 1 0 0 0 9 1 z M 4 7 C 2.9092972 7 2 7.9092972 2 9 L 2 20 C 2 21.090703 2.9092972 22 4 22 L 9 22 C 10.090703 22 11 21.090703 11 20 L 11 9 C 11 7.9092972 10.090703 7 9 7 L 4 7 z M 15 7 C 13.909297 7 13 7.9092972 13 9 L 13 20 C 13 21.090703 13.909297 22 15 22 L 20 22 C 21.090703 22 22 21.090703 22 20 L 22 9 C 22 7.9092972 21.090703 7 20 7 L 15 7 z M 4 9 L 9 9 L 9 20 L 4 20 L 4 9 z M 15 9 L 20 9 L 20 20 L 15 20 L 15 9 z "/>
</svg>
