<?xml version="1.0" encoding="UTF-8" standalone="no"?>
<svg xmlns="http://www.w3.org/2000/svg" xmlns:svg="http://www.w3.org/2000/svg" width="24" height="24" viewBox="0 0 24 24" fill="currentColor" tags="insert,add,left,slot,squeeze,space,vertical,grid,table,rows,cells,excel,spreadsheet,accountancy,data,enter,entry,entries,blocks,rectangles,chevron" categories="layout,design,tools">
  <path d="M 4 2 C 2.9092972 2 2 2.9092972 2 4 L 2 9 C 2 10.090703 2.9092972 11 4 11 L 15 11 C 16.090703 11 17 10.090703 17 9 L 17 4 C 17 2.9092972 16.090703 2 15 2 L 4 2 z M 4 4 L 15 4 L 15 9 L 4 9 L 4 4 z M 22 8 A 1 1 0 0 0 21.292969 8.2929688 L 18.292969 11.292969 A 1.0001 1.0001 0 0 0 18.292969 12.707031 L 21.292969 15.707031 A 1 1 0 0 0 22.707031 15.707031 A 1 1 0 0 0 22.707031 14.292969 L 20.414062 12 L 22.707031 9.7070312 A 1 1 0 0 0 22.707031 8.2929688 A 1 1 0 0 0 22 8 z M 4 13 C 2.9092972 13 2 13.909297 2 15 L 2 20 C 2 21.090703 2.9092972 22 4 22 L 15 22 C 16.090703 22 17 21.090703 17 20 L 17 15 C 17 13.909297 16.090703 13 15 13 L 4 13 z M 4 15 L 15 15 L 15 20 L 4 20 L 4 15 z "/>
</svg>
