<svg xmlns="http://www.w3.org/2000/svg" xmlns:svg="http://www.w3.org/2000/svg" width="24" height="24" viewBox="0 0 24 24" fill="currentColor" tags="insert,add,top,slot,squeeze,space,vertical,grid,table,columns,cells,data,enter,entry,entries,blocks,rectangles,chevron" categories="layout,design,tools">
  <path d="M 4 2 C 2.9092972 2 2 2.9092972 2 4 L 2 15 C 2 16.090703 2.9092972 17 4 17 L 9 17 C 10.090703 17 11 16.090703 11 15 L 11 4 C 11 2.9092972 10.090703 2 9 2 L 4 2 z M 15 2 C 13.909297 2 13 2.9092972 13 4 L 13 15 C 13 16.090703 13.909297 17 15 17 L 20 17 C 21.090703 17 22 16.090703 22 15 L 22 4 C 22 2.9092972 21.090703 2 20 2 L 15 2 z M 4 4 L 9 4 L 9 15 L 4 15 L 4 4 z M 15 4 L 20 4 L 20 15 L 15 15 L 15 4 z M 12 18 A 1.0001 1.0001 0 0 0 11.292969 18.292969 L 8.2929688 21.292969 A 1 1 0 0 0 8.2929688 22.707031 A 1 1 0 0 0 9.7070312 22.707031 L 12 20.414062 L 14.292969 22.707031 A 1 1 0 0 0 15.707031 22.707031 A 1 1 0 0 0 15.707031 21.292969 L 12.707031 18.292969 A 1.0001 1.0001 0 0 0 12 18 z "/>
</svg>
