<?xml version="1.0" encoding="UTF-8" standalone="no"?>
<svg xmlns="http://www.w3.org/2000/svg" xmlns:svg="http://www.w3.org/2000/svg" width="24" height="24" viewBox="0 0 24 24" fill="currentColor" tags="arm,muscle,strong,working out,athletic,toned,muscular,forelimb,curled" categories="emoji">
  <path d="M 10 1 C 7.9143608 1 6.1952131 1.8018754 4.9472656 3.0546875 C 3.6993182 4.3074996 2.8879308 5.9644516 2.3261719 7.7421875 C 1.2026539 11.297659 1.0646254 15.411755 1.0097656 18.15625 C 0.99368043 18.956851 1.3127046 19.807342 2.0332031 20.341797 C 4.5941197 22.23766 8.7889229 23 13 23 C 15.708928 23 18.169924 22.157284 19.990234 20.738281 C 21.810546 19.31928 23 17.277883 23 15 C 23.001533 11.8273 20.74333 9.6438742 18.214844 9.1210938 C 15.871867 8.6366685 13.177817 9.5566559 11.794922 12.011719 C 11.095584 12.038609 10.405894 12.187544 9.7578125 12.447266 C 9.7947283 11.82914 9.7931555 11.212819 9.8144531 10.630859 C 9.8442015 9.8179852 9.8935348 9.0683262 10.019531 8.5390625 C 10.087231 8.2546833 10.166509 8.0604383 10.25 7.9238281 C 10.48552 7.9726316 10.735243 8 11 8 C 12.645006 8 14 6.6450064 14 5 C 14 2.80271 12.19729 1 10 1 z M 10 3 C 11.116412 3 12 3.8835881 12 5 C 12 5.5641282 11.564128 6 11 6 C 10.769164 6 10.599538 5.9868129 10.464844 5.9609375 A 1 1 0 0 0 10.212891 5.8554688 A 1 1 0 0 0 10.169922 5.8496094 C 10.035335 5.761377 9.9543433 5.6338693 9.8398438 5.4570312 A 1 1 0 0 0 8.4570312 5.1601562 A 1 1 0 0 0 8.1601562 6.5429688 C 8.2517814 6.6844787 8.3685441 6.8250872 8.4980469 6.9609375 C 8.297388 7.3131009 8.1641859 7.6982544 8.0742188 8.0761719 C 7.8839973 8.8752181 7.8470328 9.7217214 7.8164062 10.558594 C 7.7551532 12.232338 7.6133299 13.848242 7.1992188 14.400391 A 1 1 0 0 0 7.1972656 14.402344 C 6.9257817 14.764213 6.6899767 15.164109 6.5 15.599609 A 1 1 0 0 0 7.015625 16.916016 A 1 1 0 0 0 8.3320312 16.400391 C 8.4547838 16.118994 8.6043232 15.860421 8.7753906 15.625 A 1 1 0 0 0 8.8007812 15.599609 C 8.8259566 15.566042 8.8491629 15.532086 8.8730469 15.498047 C 9.7147882 14.431989 11.021062 13.891397 12.324219 14.001953 A 1 1 0 0 0 12.423828 14.011719 C 13.110175 14.087448 13.791935 14.344185 14.400391 14.800781 A 1 1 0 0 0 15.800781 14.599609 A 1 1 0 0 0 15.599609 13.199219 C 15.091102 12.817625 14.543911 12.532109 13.978516 12.335938 C 14.967579 11.1331 16.429496 10.794537 17.810547 11.080078 C 19.540284 11.437713 21.001092 12.740738 21 15 C 21 16.588109 20.189448 18.045663 18.759766 19.160156 C 17.330082 20.274649 15.291062 21 13 21 C 9.0570934 21 5.0996839 20.122505 3.2246094 18.734375 C 3.0936777 18.637252 3.0024403 18.456107 3.0078125 18.197266 A 1.0001 1.0001 0 0 0 3.0097656 18.195312 C 3.0639088 15.486865 3.2328972 11.513015 4.234375 8.34375 C 4.7351139 6.7591176 5.4406862 5.394949 6.3652344 4.4667969 C 7.2897826 3.5386446 8.3991466 3 10 3 z "/>
</svg>
