<?xml version="1.0" encoding="UTF-8" standalone="no"?>
<svg xmlns="http://www.w3.org/2000/svg" xmlns:svg="http://www.w3.org/2000/svg" width="24" height="24" viewBox="0 0 24 24" fill="currentColor" tags="arm,muscle,strong,working out,athletic,toned,muscular,forelimb,curled" categories="emoji">
  <path d="M 10 1 C 7.9143566 1 6.1952156 1.8018728 4.9472656 3.0546875 C 3.6993157 4.3075022 2.887932 5.964448 2.3261719 7.7421875 C 1.2026516 11.297666 1.0646255 15.411749 1.0097656 18.15625 C 0.9936804 18.956853 1.3127032 19.807342 2.0332031 20.341797 C 4.5941248 22.237664 8.7889145 23 13 23 C 15.708933 23 18.16992 22.157286 19.990234 20.738281 C 21.810549 19.319276 23 17.277887 23 15 C 23.001533 11.827294 20.743335 9.6438754 18.214844 9.1210938 C 15.871862 8.6366674 13.177819 9.5566514 11.794922 12.011719 C 11.095584 12.038609 10.405895 12.187544 9.7578125 12.447266 C 9.7947282 11.829139 9.7931554 11.21282 9.8144531 10.630859 C 9.8442011 9.8179835 9.8935344 9.0683272 10.019531 8.5390625 C 10.087231 8.2546827 10.166509 8.0604384 10.25 7.9238281 C 10.48552 7.9726316 10.735243 8 11 8 C 12.64501 8 14 6.6450096 14 5 C 14 2.8027056 12.197294 1 10 1 z M 10 3 C 11.116414 3 12 3.8835859 12 5 C 12 5.5641294 11.564129 6 11 6 C 10.769163 6 10.599538 5.9868129 10.464844 5.9609375 A 1 1 0 0 0 10.212891 5.8554688 A 1 1 0 0 0 10.169922 5.8496094 C 10.035335 5.761377 9.9543434 5.6338696 9.8398438 5.4570312 A 1 1 0 0 0 8.4570312 5.1601562 A 1 1 0 0 0 8.1601562 6.5429688 C 8.2517815 6.6844789 8.3685441 6.825087 8.4980469 6.9609375 C 8.2973879 7.3131011 8.1641861 7.6982537 8.0742188 8.0761719 C 7.8839969 8.8752197 7.8470329 9.7217198 7.8164062 10.558594 C 7.755153 12.232341 7.6133308 13.848241 7.1992188 14.400391 A 1 1 0 0 0 7.1972656 14.402344 C 6.9257815 14.764214 6.6899771 15.164109 6.5 15.599609 A 1 1 0 0 0 7.015625 16.916016 A 1 1 0 0 0 8.3320312 16.400391 C 8.4547841 16.118994 8.604323 15.860421 8.7753906 15.625 A 1 1 0 0 0 8.8007812 15.599609 C 8.8259566 15.566042 8.8491629 15.532086 8.8730469 15.498047 C 9.7147891 14.431987 11.021061 13.891397 12.324219 14.001953 A 1 1 0 0 0 12.423828 14.011719 C 13.110176 14.087449 13.791934 14.344184 14.400391 14.800781 A 1 1 0 0 0 15.800781 14.599609 A 1 1 0 0 0 15.599609 13.199219 C 15.0911 12.817623 14.543912 12.532109 13.978516 12.335938 C 14.967579 11.133098 16.429493 10.794536 17.810547 11.080078 C 19.540288 11.437713 21.001092 12.740734 21 15 C 21 16.588113 20.189451 18.045661 18.759766 19.160156 C 17.33008 20.274651 15.291067 21 13 21 C 9.0570855 21 5.0996877 20.122508 3.2246094 18.734375 C 3.0936774 18.637252 3.0024403 18.456108 3.0078125 18.197266 A 1.0001 1.0001 0 0 0 3.0097656 18.195312 C 3.0639089 15.486861 3.2328952 11.513021 4.234375 8.34375 C 4.7351149 6.7591145 5.4406843 5.394951 6.3652344 4.4667969 C 7.2897844 3.5386428 8.3991434 3 10 3 z "/>
</svg>
