<svg xmlns="http://www.w3.org/2000/svg" xmlns:svg="http://www.w3.org/2000/svg" width="24" height="24" viewBox="0 0 24 24" fill="currentColor" tags="arm,muscle,strong,working out,athletic,toned,muscular,forelimb,curled" categories="emoji">
  <path d="M 10 1 C 7.9143566 1 6.1952156 1.8018728 4.9472656 3.0546875 C 3.6993157 4.3075022 2.887932 5.964448 2.3261719 7.7421875 C 1.2026516 11.297666 1.0646255 15.411749 1.0097656 18.15625 C 0.9936804 18.956853 1.3127032 19.807342 2.0332031 20.341797 C 4.5941248 22.237664 8.7889145 23 13 23 C 15.708933 23 18.16992 22.157286 19.990234 20.738281 C 21.810549 19.319276 23 17.277887 23 15 C 23.001533 11.827294 20.743335 9.6438754 18.214844 9.1210938 C 15.870745 8.6364364 13.173319 9.5540134 11.791016 12.011719 C 11.093937 12.038971 10.405896 12.186715 9.7597656 12.445312 C 9.796572 11.827767 9.7931753 11.212277 9.8144531 10.630859 C 9.8442011 9.8179835 9.8935344 9.0683272 10.019531 8.5390625 C 10.086755 8.256681 10.165215 8.060324 10.248047 7.9238281 C 10.484079 7.9728623 10.734583 8 11 8 C 12.64501 8 14 6.6450096 14 5 C 14 2.8027056 12.197294 1 10 1 z M 10 3 C 11.116414 3 12 3.8835859 12 5 C 12 5.5641294 11.564129 6 11 6 C 10.776547 6 10.607388 5.9890555 10.474609 5.9648438 A 1 1 0 0 0 10.212891 5.8554688 A 1 1 0 0 0 10.152344 5.8417969 C 10.026559 5.7538585 9.9501548 5.6274005 9.8398438 5.4570312 A 1 1 0 0 0 8.4570312 5.1601562 A 1 1 0 0 0 8.1601562 6.5429688 C 8.2524866 6.6855679 8.3653086 6.8280324 8.4960938 6.9648438 C 8.2967973 7.315847 8.1638207 7.6997888 8.0742188 8.0761719 C 7.8839969 8.8752197 7.8470329 9.7217198 7.8164062 10.558594 C 7.7563246 12.200329 7.6187005 13.786047 7.2226562 14.367188 C 7.2149339 14.378519 7.207139 14.38983 7.1992188 14.400391 A 1 1 0 0 0 7.1269531 14.509766 C 6.8869357 14.844386 6.6723271 15.204569 6.5 15.599609 A 1 1 0 0 0 7.015625 16.916016 A 1 1 0 0 0 8.3320312 16.400391 C 8.4465552 16.137857 8.5833923 15.89446 8.7402344 15.671875 A 1 1 0 0 0 8.8007812 15.599609 C 8.8345488 15.554586 8.8669825 15.508757 8.8984375 15.462891 C 9.7111931 14.455944 10.943899 13.929926 12.1875 13.992188 A 1 1 0 0 0 12.464844 14.015625 C 13.137488 14.096868 13.803903 14.353166 14.400391 14.800781 A 1 1 0 0 0 15.800781 14.599609 A 1 1 0 0 0 15.599609 13.199219 C 15.09042 12.817113 14.542766 12.530177 13.976562 12.333984 C 14.965639 11.130204 16.429051 10.794445 17.810547 11.080078 C 19.540288 11.437713 21.001092 12.740734 21 15 C 21 16.588113 20.189451 18.045661 18.759766 19.160156 C 17.33008 20.274651 15.291067 21 13 21 C 9.0570855 21 5.0996877 20.122508 3.2246094 18.734375 C 3.0936774 18.637252 3.0024403 18.456108 3.0078125 18.197266 A 1.0001 1.0001 0 0 0 3.0097656 18.195312 C 3.0639089 15.486861 3.2328952 11.513021 4.234375 8.34375 C 4.7351149 6.7591145 5.4406843 5.394951 6.3652344 4.4667969 C 7.2897844 3.5386428 8.3991434 3 10 3 z "/>
</svg>
