<?xml version="1.0" encoding="UTF-8" standalone="no"?>
<svg xmlns="http://www.w3.org/2000/svg" xmlns:svg="http://www.w3.org/2000/svg" width="24" height="24" viewBox="0 0 24 24" fill="currentColor" tags="bicycle,transport,trip" categories="transportation">
  <path d="M 15 3 C 13.907275 3 13 3.9072751 13 5 C 13 6.0927249 13.907275 7 15 7 C 16.092725 7 17 6.0927249 17 5 C 17 3.9072751 16.092725 3 15 3 z M 12.898438 7.0039062 A 1.0001 1.0001 0 0 0 12.400391 7.1992188 L 8.4003906 10.199219 A 1.0001 1.0001 0 0 0 8.2929688 11.707031 L 11 14.414062 L 11 17.5 A 1 1 0 0 0 12 18.5 A 1 1 0 0 0 13 17.5 L 13 14 A 1.0001 1.0001 0 0 0 12.707031 13.292969 L 10.523438 11.109375 L 12.753906 9.4335938 L 14.167969 11.554688 A 1.0001 1.0001 0 0 0 15 12 L 17 12 A 1 1 0 0 0 18 11 A 1 1 0 0 0 17 10 L 15.535156 10 L 13.832031 7.4453125 A 1.0001 1.0001 0 0 0 13.167969 7.0136719 A 1.0001 1.0001 0 0 0 12.898438 7.0039062 z M 5.5 13 C 3.0265633 13 1 15.026563 1 17.5 C 1 19.973437 3.0265633 22 5.5 22 C 7.9734367 22 10 19.973437 10 17.5 C 10 15.026563 7.9734367 13 5.5 13 z M 18.5 13 C 16.026563 13 14 15.026563 14 17.5 C 14 19.973437 16.026563 22 18.5 22 C 20.973437 22 23 19.973437 23 17.5 C 23 15.026563 20.973437 13 18.5 13 z M 5.5 15 C 6.8925565 15 8 16.107443 8 17.5 C 8 18.892557 6.8925565 20 5.5 20 C 4.1074435 20 3 18.892557 3 17.5 C 3 16.107443 4.1074435 15 5.5 15 z M 18.5 15 C 19.892557 15 21 16.107443 21 17.5 C 21 18.892557 19.892557 20 18.5 20 C 17.107443 20 16 18.892557 16 17.5 C 16 16.107443 17.107443 15 18.5 15 z "/>
</svg>
