<?xml version="1.0" encoding="UTF-8" standalone="no"?>
<svg xmlns="http://www.w3.org/2000/svg" xmlns:svg="http://www.w3.org/2000/svg" width="24" height="24" viewBox="0 0 24 24" fill="currentColor" tags="code,digits,computer,zero,one,boolean" categories="text,development">
  <path d="M 8 3 C 6.3552972 3 5 4.3552972 5 6 L 5 8 C 5 9.6447028 6.3552972 11 8 11 C 9.6447028 11 11 9.6447028 11 8 L 11 6 C 11 4.3552972 9.6447028 3 8 3 z M 14 3 A 1 1 0 0 0 13 4 A 1 1 0 0 0 14 5 L 15 5 L 15 9 L 14 9 A 1 1 0 0 0 13 10 A 1 1 0 0 0 14 11 L 16 11 L 18 11 A 1 1 0 0 0 19 10 A 1 1 0 0 0 18 9 L 17 9 L 17 4 A 1.0001 1.0001 0 0 0 16 3 L 14 3 z M 8 5 C 8.5712972 5 9 5.4287028 9 6 L 9 8 C 9 8.5712972 8.5712972 9 8 9 C 7.4287028 9 7 8.5712972 7 8 L 7 6 C 7 5.4287028 7.4287028 5 8 5 z M 6 13 A 1 1 0 0 0 5 14 A 1 1 0 0 0 6 15 L 7 15 L 7 19 L 6 19 A 1 1 0 0 0 5 20 A 1 1 0 0 0 6 21 L 10 21 A 1 1 0 0 0 11 20 A 1 1 0 0 0 10 19 L 9 19 L 9 14 A 1.0001 1.0001 0 0 0 8 13 L 6 13 z M 16 13 C 14.355297 13 13 14.355297 13 16 L 13 18 C 13 19.644703 14.355297 21 16 21 C 17.644703 21 19 19.644703 19 18 L 19 16 C 19 14.355297 17.644703 13 16 13 z M 16 15 C 16.571297 15 17 15.428703 17 16 L 17 18 C 17 18.571297 16.571297 19 16 19 C 15.428703 19 15 18.571297 15 18 L 15 16 C 15 15.428703 15.428703 15 16 15 z "/>
</svg>
