<?xml version="1.0" encoding="UTF-8" standalone="no"?>
<svg xmlns="http://www.w3.org/2000/svg" xmlns:svg="http://www.w3.org/2000/svg" width="24" height="24" viewBox="0 0 24 24" fill="currentColor" tags="field glasses,lorgnette,pince-nez,observation,sightseeing,nature,wildlife,birdwatching,scouting,surveillance,search,discovery,monitoring,lookout,viewpoint,travel,tourism,research" categories="maps,nature,photography,science,travel,development">
  <path d="M 6 2 C 4.9072773 2 4 2.9072773 4 4 L 4 6.2753906 C 3.4058847 6.6247726 3 7.270376 3 8 L 3 10.320312 C 3 10.896732 2.6405111 11.601622 2.1523438 12.382812 C 1.6641763 13.164002 1 13.973823 1 15.148438 L 1 19 C 1 20.645006 2.3549936 22 4 22 L 8 22 C 9.6450064 22 11 20.645006 11 19 L 11 17 L 13 17 L 13 19 C 13 20.645006 14.354994 22 16 22 L 20 22 C 21.645006 22 23 20.645006 23 19 L 23 15.148438 C 23 13.973823 22.335824 13.164002 21.847656 12.382812 C 21.359489 11.601622 21 10.896732 21 10.320312 L 21 8 C 21 7.270376 20.594115 6.6247726 20 6.2753906 L 20 4 C 20 2.9072773 19.092723 2 18 2 L 16 2 C 14.907277 2 14 2.9072773 14 4 L 14 6.2753906 C 13.405885 6.6247726 13 7.270376 13 8 L 13 9 L 11 9 L 11 8 C 11 7.270376 10.594115 6.6247726 10 6.2753906 L 10 4 C 10 2.9072773 9.0927227 2 8 2 L 6 2 z M 6 4 L 8 4 L 8 6 L 6 6 L 6 4 z M 16 4 L 18 4 L 18 6 L 16 6 L 16 4 z M 5 8 L 9 8 L 9 15 L 3.03125 15 C 3.1209035 14.701104 3.4212165 14.12577 3.8476562 13.443359 C 4.3594868 12.624303 5 11.610888 5 10.320312 L 5 8 z M 15 8 L 19 8 L 19 10.320312 C 19 11.610888 19.640513 12.624303 20.152344 13.443359 C 20.578783 14.12577 20.879096 14.701104 20.96875 15 L 15 15 L 15 8 z M 11 11 L 13 11 L 13 15 L 11 15 L 11 11 z M 3 17 L 9 17 L 9 19 C 9 19.564128 8.5641282 20 8 20 L 4 20 C 3.4358718 20 3 19.564128 3 19 L 3 17 z M 15 17 L 21 17 L 21 19 C 21 19.564128 20.564128 20 20 20 L 16 20 C 15.435872 20 15 19.564128 15 19 L 15 17 z "/>
</svg>
