<svg xmlns="http://www.w3.org/2000/svg" xmlns:svg="http://www.w3.org/2000/svg" width="24" height="24" viewBox="0 0 24 24" fill="currentColor" tags="field glasses,lorgnette,pince-nez,observation,sightseeing,nature,wildlife,birdwatching,scouting,surveillance,search,discovery,monitoring,lookout,viewpoint,travel,tourism,research" categories="navigation,nature,photography,science,travel,development">
  <path d="M 6 2 C 4.9072751 2 4 2.9072751 4 4 L 4 6.2734375 C 3.4051277 6.6226282 3 7.2698076 3 8 L 3 10.320312 C 3 10.896733 2.6405121 11.601621 2.1523438 12.382812 C 1.6641753 13.164003 1 13.97382 1 15.148438 L 1 19 C 1 20.64501 2.3549904 22 4 22 L 8 22 C 9.6450096 22 11 20.64501 11 19 L 11 17 L 13 17 L 13 19 C 13 20.64501 14.35499 22 16 22 L 20 22 C 21.64501 22 23 20.64501 23 19 L 23 15.148438 C 23 13.97382 22.335825 13.164003 21.847656 12.382812 C 21.359488 11.60162 21 10.896732 21 10.320312 L 21 8 C 21 7.2698076 20.594872 6.6226282 20 6.2734375 L 20 4 C 20 2.9072751 19.092725 2 18 2 L 16 2 C 14.907275 2 14 2.9072751 14 4 L 14 6.2734375 C 13.405128 6.6226282 13 7.2698076 13 8 L 13 9 L 11 9 L 11 8 C 11 7.2698076 10.594872 6.6226282 10 6.2734375 L 10 4 C 10 2.9072751 9.0927249 2 8 2 L 6 2 z M 6 4 L 8 4 L 8 6 L 6 6 L 6 4 z M 16 4 L 18 4 L 18 6 L 16 6 L 16 4 z M 5 8 L 9 8 L 9 15 L 3.0292969 15 C 3.1204665 14.699941 3.4231329 14.122703 3.8476562 13.443359 C 4.3594879 12.624301 5 11.610891 5 10.320312 L 5 8 z M 15 8 L 19 8 L 19 10.320312 C 19 11.610891 19.640512 12.624301 20.152344 13.443359 C 20.576867 14.122703 20.879533 14.699941 20.970703 15 L 15 15 L 15 8 z M 11 11 L 13 11 L 13 15 L 11 15 L 11 11 z M 3 17 L 9 17 L 9 19 C 9 19.564129 8.5641294 20 8 20 L 4 20 C 3.4358706 20 3 19.564129 3 19 L 3 17 z M 15 17 L 21 17 L 21 19 C 21 19.564129 20.564129 20 20 20 L 16 20 C 15.435871 20 15 19.564129 15 19 L 15 17 z "/>
</svg>
