<?xml version="1.0" encoding="UTF-8" standalone="no"?>
<svg xmlns="http://www.w3.org/2000/svg" xmlns:svg="http://www.w3.org/2000/svg" width="24" height="24" viewBox="0 0 24 24" fill="currentColor" tags="fallout,waste,biology,chemistry,chemical,element" categories="science">
  <path d="M 6.7324219 2.4003906 A 1 1 0 0 0 5.7597656 3.0605469 C 5.0711964 4.973239 5.3690372 6.9749706 6.3261719 8.6425781 C 4.4103053 8.6737587 2.5395275 9.4222472 1.2382812 10.953125 A 1 1 0 0 0 1.3515625 12.361328 A 1 1 0 0 0 2.7617188 12.248047 C 4.168731 10.592738 6.4560849 10.093998 8.4570312 10.998047 L 9.0527344 11.339844 C 9.0177994 11.521527 9 11.7092 9 11.900391 C 9 13.195749 9.8396112 14.31087 11 14.726562 L 11 15.464844 C 10.817264 17.606598 9.262598 19.385683 7.1484375 19.710938 A 1 1 0 0 0 6.3125 20.851562 A 1 1 0 0 0 7.4511719 21.6875 C 9.4249367 21.383844 10.983833 20.154971 11.958984 18.542969 C 12.934035 20.222158 14.554774 21.482285 16.548828 21.789062 A 1 1 0 0 0 17.6875 20.951172 A 1 1 0 0 0 16.851562 19.8125 C 14.720039 19.484573 13.082491 17.690155 13 15.462891 L 13 14.726562 C 14.160389 14.31087 15 13.195749 15 11.900391 C 15 11.7092 14.982201 11.521527 14.947266 11.339844 L 15.574219 10.980469 C 17.56976 9.9973789 19.808445 10.481548 21.222656 12.228516 A 1 1 0 0 0 22.628906 12.376953 A 1 1 0 0 0 22.777344 10.970703 C 21.490816 9.3814636 19.619081 8.6091237 17.703125 8.5859375 C 18.63347 6.9287967 18.921147 4.9519721 18.240234 3.0605469 A 1 1 0 0 0 16.960938 2.4589844 A 1 1 0 0 0 16.359375 3.7382812 C 17.106701 5.8141863 16.385829 7.9985343 14.558594 9.2578125 L 13.933594 9.6152344 C 13.40978 9.1706615 12.73367 8.9003906 12 8.9003906 C 11.26633 8.9003906 10.59022 9.1706615 10.066406 9.6152344 L 9.4414062 9.2578125 C 7.6141712 7.9985343 6.8932992 5.8141863 7.640625 3.7382812 A 1 1 0 0 0 7.0390625 2.4589844 A 1 1 0 0 0 6.7324219 2.4003906 z M 12 4.2519531 C 11.433773 4.2519531 10.867545 4.3073503 10.304688 4.4199219 A 1 1 0 0 0 9.5195312 5.5957031 A 1 1 0 0 0 10.695312 6.3808594 C 11.569596 6.2060025 12.430402 6.2060025 13.304688 6.3808594 A 1 1 0 0 0 14.480469 5.5957031 A 1 1 0 0 0 13.695312 4.4199219 C 13.132454 4.3073503 12.566227 4.2519531 12 4.2519531 z M 12 10.900391 C 12.311202 10.900391 12.582174 11.034401 12.763672 11.248047 A 1 1 0 0 0 12.832031 11.396484 A 1 1 0 0 0 12.9375 11.544922 C 12.977612 11.654758 13 11.774305 13 11.900391 C 13 12.46452 12.564129 12.900391 12 12.900391 C 11.435871 12.900391 11 12.46452 11 11.900391 C 11 11.774305 11.022388 11.654758 11.0625 11.544922 A 1 1 0 0 0 11.167969 11.396484 A 1 1 0 0 0 11.240234 11.244141 C 11.421722 11.032952 11.690838 10.900391 12 10.900391 z M 5.5703125 12.902344 A 1 1 0 0 0 5.1835938 12.951172 A 1 1 0 0 0 4.5507812 14.216797 C 4.892945 15.243288 5.4582818 16.272735 6.2929688 17.107422 A 1 1 0 0 0 7.7070312 17.107422 A 1 1 0 0 0 7.7070312 15.693359 C 7.1417183 15.128046 6.7070551 14.357493 6.4492188 13.583984 A 1 1 0 0 0 5.5703125 12.902344 z M 18.429688 12.902344 A 1 1 0 0 0 17.550781 13.583984 C 17.292945 14.357493 16.858282 15.128046 16.292969 15.693359 A 1 1 0 0 0 16.292969 17.107422 A 1 1 0 0 0 17.707031 17.107422 C 18.541718 16.272735 19.107055 15.243288 19.449219 14.216797 A 1 1 0 0 0 18.816406 12.951172 A 1 1 0 0 0 18.429688 12.902344 z "/>
</svg>
