<?xml version="1.0" encoding="UTF-8" standalone="no"?>
<svg xmlns="http://www.w3.org/2000/svg" xmlns:svg="http://www.w3.org/2000/svg" width="24" height="24" viewBox="0 0 24 24" fill="currentColor" tags="fallout,waste,biology,chemistry,chemical,element" categories="science">
  
  <path d="M 6.7324219 2.4003906 A 1 1 0 0 0 5.7597656 3.0605469 C 5.0711978 4.9732352 5.3690391 6.9749739 6.3261719 8.6425781 C 4.4103091 8.6737586 2.5395248 9.4222502 1.2382812 10.953125 A 1 1 0 0 0 1.3515625 12.361328 A 1 1 0 0 0 2.7617188 12.248047 C 4.1687282 10.592741 6.4560889 10.093999 8.4570312 10.998047 L 9.0527344 11.339844 C 9.0177994 11.521527 9 11.7092 9 11.900391 C 9 13.195747 9.8396128 14.31087 11 14.726562 L 11 15.464844 C 10.817264 17.606594 9.2625938 19.385683 7.1484375 19.710938 A 1 1 0 0 0 6.3125 20.851562 A 1 1 0 0 0 7.4511719 21.6875 C 9.4249327 21.383844 10.983835 20.154967 11.958984 18.542969 C 12.934033 20.222155 14.554778 21.482286 16.548828 21.789062 A 1 1 0 0 0 17.6875 20.951172 A 1 1 0 0 0 16.851562 19.8125 C 14.720044 19.484574 13.082491 17.69015 13 15.462891 L 13 14.726562 C 14.160387 14.31087 15 13.195747 15 11.900391 C 15 11.7092 14.982201 11.521527 14.947266 11.339844 L 15.574219 10.980469 C 17.569757 9.9973808 19.808447 10.48155 21.222656 12.228516 A 1 1 0 0 0 22.628906 12.376953 A 1 1 0 0 0 22.777344 10.970703 C 21.490819 9.3814668 19.619077 8.6091237 17.703125 8.5859375 C 18.633468 6.9288 18.921147 4.9519683 18.240234 3.0605469 A 1 1 0 0 0 16.960938 2.4589844 A 1 1 0 0 0 16.359375 3.7382812 C 17.106699 5.8141822 16.385828 7.9985368 14.558594 9.2578125 L 13.933594 9.6152344 C 13.409781 9.1706616 12.733668 8.9003906 12 8.9003906 C 11.266332 8.9003906 10.590219 9.1706616 10.066406 9.6152344 L 9.4414062 9.2578125 C 7.6141748 7.9985368 6.8933006 5.8141822 7.640625 3.7382812 A 1 1 0 0 0 7.0390625 2.4589844 A 1 1 0 0 0 6.7324219 2.4003906 z M 12 4.2519531 C 11.433773 4.2519531 10.867544 4.3073505 10.304688 4.4199219 A 1 1 0 0 0 9.5195312 5.5957031 A 1 1 0 0 0 10.695312 6.3808594 C 11.569595 6.2060027 12.430404 6.2060027 13.304688 6.3808594 A 1 1 0 0 0 14.480469 5.5957031 A 1 1 0 0 0 13.695312 4.4199219 C 13.132456 4.3073505 12.566227 4.2519531 12 4.2519531 z M 12 10.900391 C 12.311202 10.900391 12.582174 11.034401 12.763672 11.248047 A 1 1 0 0 0 12.832031 11.396484 A 1 1 0 0 0 12.9375 11.544922 C 12.977612 11.654758 13 11.774306 13 11.900391 C 13 12.464518 12.564128 12.900391 12 12.900391 C 11.435872 12.900391 11 12.464518 11 11.900391 C 11 11.774306 11.022388 11.654758 11.0625 11.544922 A 1 1 0 0 0 11.167969 11.396484 A 1 1 0 0 0 11.240234 11.244141 C 11.421721 11.032953 11.690838 10.900391 12 10.900391 z M 5.5703125 12.902344 A 1 1 0 0 0 5.1835938 12.951172 A 1 1 0 0 0 4.5507812 14.216797 C 4.8929443 15.243286 5.4582835 16.272737 6.2929688 17.107422 A 1 1 0 0 0 7.7070312 17.107422 A 1 1 0 0 0 7.7070312 15.693359 C 7.1417194 15.128048 6.7070546 14.357492 6.4492188 13.583984 A 1 1 0 0 0 5.5703125 12.902344 z M 18.429688 12.902344 A 1 1 0 0 0 17.550781 13.583984 C 17.292946 14.357492 16.85828 15.128048 16.292969 15.693359 A 1 1 0 0 0 16.292969 17.107422 A 1 1 0 0 0 17.707031 17.107422 C 18.541716 16.272737 19.107055 15.243286 19.449219 14.216797 A 1 1 0 0 0 18.816406 12.951172 A 1 1 0 0 0 18.429688 12.902344 z "/>
</svg>
