<svg xmlns="http://www.w3.org/2000/svg" xmlns:svg="http://www.w3.org/2000/svg" width="24" height="24" viewBox="0 0 24 24" fill="currentColor" tags="birdhouse,bird,garden,home,house,woodwork" categories="nature,animals,navigation,home">
  <path d="M 12 1.0019531 C 11.37775 1.0019531 10.755969 1.1941222 10.230469 1.578125 L 2.4160156 7.1875 A 1 1 0 0 0 2.1875 8.5839844 A 1 1 0 0 0 3.5839844 8.8125 L 4.328125 8.2773438 L 5.8144531 17 L 4 17 A 1 1 0 0 0 3 18 A 1 1 0 0 0 4 19 L 11 19 L 11 22 A 1 1 0 0 0 12 23 A 1 1 0 0 0 13 22 L 13 19 L 20 19 A 1 1 0 0 0 21 18 A 1 1 0 0 0 20 17 L 18.185547 17 L 19.671875 8.2773438 L 20.416016 8.8125 A 1 1 0 0 0 21.8125 8.5839844 A 1 1 0 0 0 21.583984 7.1875 L 13.769531 1.578125 C 13.244031 1.1941222 12.62225 1.0019531 12 1.0019531 z M 12 2.9980469 C 12.206252 2.9980469 12.412504 3.0637708 12.589844 3.1933594 A 1.0001 1.0001 0 0 0 12.597656 3.1972656 L 17.865234 6.9804688 L 16.15625 17 L 7.84375 17 L 6.1347656 6.9804688 L 11.402344 3.1972656 A 1.0001 1.0001 0 0 0 11.410156 3.1933594 C 11.587496 3.0637708 11.793748 2.9980469 12 2.9980469 z M 12 7 C 10.35499 7 9 8.3549904 9 10 C 9 11.64501 10.35499 13 12 13 C 13.64501 13 15 11.64501 15 10 C 15 8.3549904 13.64501 7 12 7 z M 12 9 C 12.564129 9 13 9.4358706 13 10 C 13 10.564129 12.564129 11 12 11 C 11.435871 11 11 10.564129 11 10 C 11 9.4358706 11.435871 9 12 9 z "/>
</svg>
