<?xml version="1.0" encoding="UTF-8" standalone="no"?>
<svg xmlns="http://www.w3.org/2000/svg" xmlns:svg="http://www.w3.org/2000/svg" width="24" height="24" viewBox="0 0 24 24" fill="currentColor" tags="peace,freedom,wing,avian,tweet" categories="animals">
  <path d="M 16.017578 1.9902344 C 15.509415 1.9875996 14.996026 2.0613592 14.5 2.2148438 C 13.507948 2.5218126 12.584121 3.1473905 11.900391 4.1269531 L 1.1816406 19.425781 A 1 1 0 0 0 1.4257812 20.818359 A 1 1 0 0 0 2.8183594 20.574219 L 3.921875 19 L 7 19 L 9 19 L 9 21 A 1 1 0 0 0 10 22 A 1 1 0 0 0 11 21 L 11 19 L 12 19 C 12.338192 19 12.671334 18.979964 13 18.943359 L 13 21 A 1 1 0 0 0 14 22 A 1 1 0 0 0 15 21 L 15 18.482422 C 18.489938 17.242613 21 13.907203 21 10 L 21 8.78125 L 22.242188 8.4707031 A 1.0001 1.0001 0 0 0 22.242188 6.5292969 L 20.9375 6.203125 C 20.632391 4.2186931 19.19473 2.7562281 17.505859 2.2226562 C 17.028678 2.0718984 16.525741 1.9928692 16.017578 1.9902344 z M 16.005859 3.9746094 C 16.308165 3.9826485 16.611024 4.0362515 16.904297 4.1289062 C 18.077387 4.4995254 19.004041 5.4681891 19 6.9980469 A 1.0001 1.0001 0 0 0 19 7 L 19 10 C 19 13.877838 15.877838 17 12 17 L 11.908203 17 C 12.6583 16.25672 13.229721 15.356251 13.582031 14.382812 C 14.417031 12.075691 14.050137 9.2913121 12.150391 7.2539062 L 13.539062 5.2734375 A 1.0001 1.0001 0 0 0 13.539062 5.2714844 C 13.976877 4.6442347 14.52452 4.267201 15.109375 4.0917969 C 15.401802 4.0040948 15.703554 3.9665702 16.005859 3.9746094 z M 16 6 A 1 1 0 0 0 15 7 A 1 1 0 0 0 16 8 L 16.009766 8 A 1 1 0 0 0 17.009766 7 A 1 1 0 0 0 16.009766 6 L 16 6 z M 10.96875 8.9414062 C 12.115427 10.375344 12.263257 12.14812 11.701172 13.701172 C 11.031421 15.551708 9.3892712 16.999881 7 17 L 5.3222656 17 L 10.96875 8.9414062 z "/>
</svg>
