<?xml version="1.0" encoding="UTF-8" standalone="no"?>
<svg xmlns="http://www.w3.org/2000/svg" xmlns:svg="http://www.w3.org/2000/svg" width="24" height="24" viewBox="0 0 24 24" fill="currentColor" tags="currency,money,payment" categories="brands,development,finance">
  <path d="M 10.648438 1.6386719 A 1 1 0 0 0 9.6210938 2.4628906 L 9.4472656 3.4492188 L 8.4628906 3.2753906 A 1 1 0 0 0 7.3046875 4.0859375 A 1 1 0 0 0 8.1171875 5.2441406 L 9.0996094 5.4179688 L 8.0585938 11.328125 L 7.0175781 17.236328 L 6.0332031 17.0625 A 1 1 0 0 0 4.875 17.873047 A 1 1 0 0 0 5.6855469 19.03125 L 6.6699219 19.205078 L 6.4960938 20.189453 A 1 1 0 0 0 7.3066406 21.349609 A 1 1 0 0 0 8.4648438 20.537109 L 8.6386719 19.552734 L 10.609375 19.900391 L 10.435547 20.884766 A 1 1 0 0 0 11.248047 22.042969 A 1 1 0 0 0 12.40625 21.232422 L 12.611328 20.0625 C 13.645161 20.0488 14.603663 19.832949 15.320312 19.304688 C 16.27312 18.602348 16.859373 17.562962 17.052734 16.466797 C 17.246096 15.370631 17.051534 14.192974 16.396484 13.207031 C 16.26731 13.012597 16.041535 12.879416 15.876953 12.705078 C 16.091179 12.59761 16.349263 12.550563 16.537109 12.412109 C 17.489955 11.709807 18.076244 10.670413 18.269531 9.5742188 C 18.462818 8.4780244 18.266531 7.3003401 17.611328 6.3144531 C 17.118233 5.5725149 16.291955 5.0420991 15.324219 4.6757812 L 15.53125 3.5058594 A 1 1 0 0 0 14.720703 2.3476562 A 1 1 0 0 0 13.560547 3.1582031 L 13.386719 4.1425781 L 11.416016 3.7949219 L 11.589844 2.8105469 A 1 1 0 0 0 10.779297 1.6523438 A 1 1 0 0 0 10.648438 1.6386719 z M 11.068359 5.7636719 L 14.021484 6.2851562 A 1 1 0 0 0 14.025391 6.2871094 C 15.026877 6.4636149 15.599208 6.8981682 15.947266 7.421875 C 16.295323 7.9455818 16.411369 8.5993818 16.300781 9.2265625 C 16.190193 9.8537432 15.855732 10.42774 15.349609 10.800781 C 14.843487 11.173823 14.159411 11.387633 13.158203 11.210938 L 13.15625 11.210938 L 10.201172 10.689453 L 11.068359 5.7636719 z M 9.8535156 12.660156 L 12.808594 13.179688 L 12.810547 13.179688 C 13.810455 13.35663 14.382741 13.791052 14.730469 14.314453 C 15.078446 14.838229 15.194623 15.491931 15.083984 16.119141 C 14.973346 16.74635 14.639004 17.322186 14.132812 17.695312 C 13.62662 18.068441 12.942631 18.280011 11.941406 18.103516 L 8.9863281 17.582031 L 9.8535156 12.660156 z "/>
</svg>
