<?xml version="1.0" encoding="UTF-8" standalone="no"?>
<svg xmlns="http://www.w3.org/2000/svg" xmlns:svg="http://www.w3.org/2000/svg" width="24" height="24" viewBox="0 0 24 24" fill="currentColor" tags="currency,money,payment" categories="brands,currency,development,money">
  
  <path d="M 10.779297 1.6523438 A 1 1 0 0 0 9.6210938 2.4628906 L 9.4472656 3.4492188 L 8.4628906 3.2753906 A 1 1 0 0 0 7.3046875 4.0859375 A 1 1 0 0 0 8.1171875 5.2441406 L 9.0996094 5.4179688 L 8.0585938 11.328125 L 7.0175781 17.236328 L 6.0332031 17.0625 A 1 1 0 0 0 4.875 17.873047 A 1 1 0 0 0 5.6855469 19.03125 L 6.6699219 19.205078 L 6.4960938 20.189453 A 1 1 0 0 0 7.3066406 21.349609 A 1 1 0 0 0 8.4648438 20.537109 L 8.6386719 19.552734 L 10.609375 19.900391 L 10.435547 20.884766 A 1 1 0 0 0 11.248047 22.042969 A 1 1 0 0 0 12.40625 21.232422 L 12.611328 20.0625 C 13.645159 20.0488 14.603665 19.832948 15.320312 19.304688 C 16.273119 18.602348 16.859374 17.56296 17.052734 16.466797 C 17.246096 15.370634 17.051534 14.192972 16.396484 13.207031 C 16.267311 13.012597 16.041535 12.879415 15.876953 12.705078 C 16.091179 12.59761 16.349265 12.550562 16.537109 12.412109 C 17.489953 11.709809 18.076244 10.670411 18.269531 9.5742188 C 18.462818 8.4780265 18.26653 7.3003381 17.611328 6.3144531 C 17.118235 5.5725164 16.291953 5.0420985 15.324219 4.6757812 L 15.53125 3.5058594 A 1 1 0 0 0 14.720703 2.3476562 A 1 1 0 0 0 13.560547 3.1582031 L 13.386719 4.1425781 L 11.416016 3.7949219 L 11.589844 2.8105469 A 1 1 0 0 0 10.779297 1.6523438 z M 11.068359 5.7636719 L 14.017578 6.2832031 L 14.021484 6.2851562 A 1 1 0 0 0 14.025391 6.2871094 C 15.026875 6.4636146 15.599209 6.8981693 15.947266 7.421875 C 16.295322 7.9455807 16.411369 8.599383 16.300781 9.2265625 C 16.190193 9.853742 15.855732 10.427741 15.349609 10.800781 C 14.843488 11.173822 14.159409 11.387632 13.158203 11.210938 L 13.15625 11.210938 L 10.201172 10.689453 L 11.068359 5.7636719 z M 9.8535156 12.660156 L 12.808594 13.179688 L 12.810547 13.179688 C 13.810453 13.356629 14.382741 13.791053 14.730469 14.314453 C 15.078445 14.838229 15.194623 15.491932 15.083984 16.119141 C 14.973346 16.746349 14.639003 17.322186 14.132812 17.695312 C 13.626621 18.06844 12.942629 18.28001 11.941406 18.103516 L 8.9863281 17.582031 L 9.8535156 12.660156 z "/>
</svg>
