<?xml version="1.0" encoding="UTF-8" standalone="no"?>
<svg xmlns="http://www.w3.org/2000/svg" xmlns:svg="http://www.w3.org/2000/svg" width="24" height="24" viewBox="0 0 24 24" fill="currentColor" tags="mode,overlay,multiply,screen,opacity,transparency,alpha,filters,lenses,mixed,shades,tints,hues,saturation,brightness,overlap,colors,colours" categories="design,photography,tools,development">
  <path d="M 9 1 C 4.5935754 1 1 4.5935754 1 9 C 1 12.789564 3.6581063 15.976502 7.2050781 16.794922 C 8.0234975 20.341894 11.210436 23 15 23 C 19.406425 23 23 19.406425 23 15 C 23 11.210436 20.341894 8.0234975 16.794922 7.2050781 C 15.976502 3.6581063 12.789564 1 9 1 z M 9 3 C 11.626406 3 13.844632 4.6682445 14.662109 7.0078125 C 10.524004 7.1815611 7.1815611 10.524004 7.0078125 14.662109 C 4.6682445 13.844632 3 11.626406 3 9 C 3 5.6744535 5.6744535 3 9 3 z M 15 9 C 15 12.325547 12.325547 15 9 15 C 9 11.674453 11.674453 9 15 9 z M 16.992188 9.3378906 C 19.331756 10.155368 21 12.373594 21 15 C 21 18.325547 18.325547 21 15 21 C 12.373594 21 10.155368 19.331756 9.3378906 16.992188 C 13.475996 16.818439 16.818439 13.475996 16.992188 9.3378906 z "/>
</svg>
