<?xml version="1.0" encoding="UTF-8" standalone="no"?>
<svg xmlns="http://www.w3.org/2000/svg" xmlns:svg="http://www.w3.org/2000/svg" width="24" height="24" viewBox="0 0 24 24" fill="currentColor" tags="mode,overlay,multiply,screen,opacity,transparency,alpha,filters,lenses,mixed,shades,tints,hues,saturation,brightness,overlap,colors,colours" categories="design,photography,tools,development">
  <path d="M 9 1 C 4.5935666 1 1 4.5935666 1 9 C 1 12.789227 3.6566307 15.9781 7.203125 16.796875 C 8.0218998 20.343369 11.210772 23 15 23 C 19.406433 23 23 19.406433 23 15 C 23 11.210772 20.343369 8.0218998 16.796875 7.203125 C 15.9781 3.6566307 12.789227 1 9 1 z M 9 3 C 11.626142 3 13.846381 4.6686184 14.664062 7.0078125 C 10.523897 7.1803143 7.180314 10.523897 7.0078125 14.664062 C 4.6686184 13.846381 3 11.626142 3 9 C 3 5.6744469 5.6744469 3 9 3 z M 15 9 C 15 12.325553 12.325553 15 9 15 C 9 11.674447 11.674447 9 15 9 z M 16.992188 9.3359375 C 19.331382 10.153619 21 12.373858 21 15 C 21 18.325553 18.325553 21 15 21 C 12.373858 21 10.153619 19.331382 9.3359375 16.992188 C 13.476103 16.819686 16.819686 13.476103 16.992188 9.3359375 z "/>
</svg>
