<svg xmlns="http://www.w3.org/2000/svg" xmlns:svg="http://www.w3.org/2000/svg" width="24" height="24" viewBox="0 0 24 24" fill="currentColor" tags="shades,screen,curtain,shutter,roller blind,window,lighting,household,home" categories="home">
  <path d="M 3 2 A 1 1 0 0 0 2 3 A 1 1 0 0 0 3 4 L 3 16.173828 C 1.8399128 16.589685 1 17.704858 1 19 C 1 20.64501 2.3549904 22 4 22 C 5.6450096 22 7 20.64501 7 19 C 7 17.704858 6.1600872 16.589685 5 16.173828 L 5 4 L 21 4 A 1 1 0 0 0 22 3 A 1 1 0 0 0 21 2 L 3 2 z M 8 6 A 1 1 0 0 0 7 7 A 1 1 0 0 0 8 8 L 20 8 A 1 1 0 0 0 21 7 A 1 1 0 0 0 20 6 L 8 6 z M 8 10 A 1 1 0 0 0 7 11 A 1 1 0 0 0 8 12 L 20 12 A 1 1 0 0 0 21 11 A 1 1 0 0 0 20 10 L 8 10 z M 8 14 A 1 1 0 0 0 7 15 A 1 1 0 0 0 8 16 L 20 16 A 1 1 0 0 0 21 15 A 1 1 0 0 0 20 14 L 8 14 z M 4 18 C 4.5641294 18 5 18.435871 5 19 C 5 19.564129 4.5641294 20 4 20 C 3.4358706 20 3 19.564129 3 19 C 3 18.435871 3.4358706 18 4 18 z M 10 18 A 1 1 0 0 0 9 19 A 1 1 0 0 0 10 20 L 20 20 A 1 1 0 0 0 21 19 A 1 1 0 0 0 20 18 L 10 18 z "/>
</svg>
