<?xml version="1.0" encoding="UTF-8" standalone="no"?>
<svg xmlns="http://www.w3.org/2000/svg" xmlns:svg="http://www.w3.org/2000/svg" width="24" height="24" viewBox="0 0 24 24" fill="currentColor" tags="addon,plugin,integration,extension,package,build,stack,toys,kids,children,learning,squares,corner" categories="development,layout,shapes">
  <path d="M 15 1 C 13.909297 1 13 1.9092972 13 3 L 13 9 C 13 10.090703 13.909297 11 15 11 L 21 11 C 22.090703 11 23 10.090703 23 9 L 23 3 C 23 1.9092972 22.090703 1 21 1 L 15 1 z M 15 3 L 21 3 L 21 9 L 15 9 L 15 3 z M 4 5 C 2.3549904 5 1 6.3549904 1 8 L 1 14 L 1 20 C 1 21.64501 2.3549904 23 4 23 L 10 23 L 16 23 C 17.64501 23 19 21.64501 19 20 L 19 15 C 19 13.907275 18.092725 13 17 13 L 11 13 L 11 7 C 11 5.9072751 10.092725 5 9 5 L 4 5 z M 4 7 L 9 7 L 9 13 L 3 13 L 3 8 C 3 7.4358706 3.4358706 7 4 7 z M 3 15 L 9 15 L 9 21 L 4 21 C 3.4358706 21 3 20.564129 3 20 L 3 15 z M 11 15 L 17 15 L 17 20 C 17 20.564129 16.564129 21 16 21 L 11 21 L 11 15 z "/>
</svg>
