<?xml version="1.0" encoding="UTF-8" standalone="no"?>
<svg xmlns="http://www.w3.org/2000/svg" xmlns:svg="http://www.w3.org/2000/svg" width="24" height="24" viewBox="0 0 24 24" fill="currentColor" tags="addon,plugin,integration,extension,package,build,stack,toys,kids,children,learning" categories="development,shapes">
  <path d="M 15 2 C 13.909297 2 13 2.9092972 13 4 L 13 9 C 13 10.090703 13.909297 11 15 11 L 20 11 C 21.090703 11 22 10.090703 22 9 L 22 4 C 22 2.9092972 21.090703 2 20 2 L 15 2 z M 15 4 L 20 4 L 20 9 L 15 9 L 15 4 z M 4 6 C 2.9072751 6 2 6.9072751 2 8 L 2 14 L 2 20 C 2 21.092725 2.9072751 22 4 22 L 10 22 L 16 22 C 17.092725 22 18 21.092725 18 20 L 18 15 C 18 13.907275 17.092725 13 16 13 L 11 13 L 11 8 C 11 6.9072751 10.092725 6 9 6 L 4 6 z M 4 8 L 9 8 L 9 13 L 4 13 L 4 8 z M 4 15 L 9 15 L 9 20 L 4 20 L 4 15 z M 11 15 L 16 15 L 16 20 L 11 20 L 11 15 z "/>
</svg>
