<?xml version="1.0" encoding="UTF-8" standalone="no"?>
<svg xmlns="http://www.w3.org/2000/svg" xmlns:svg="http://www.w3.org/2000/svg" width="24" height="24" viewBox="0 0 24 24" fill="currentColor" tags="lost" categories="connectivity,devices">
  
  <path d="M 2 1 A 1 1 0 0 0 1.2929688 1.2929688 A 1 1 0 0 0 1.2929688 2.7070312 L 10.585938 12 L 6.2929688 16.292969 A 1 1 0 0 0 6.2929688 17.707031 A 1 1 0 0 0 7.7070312 17.707031 L 11 14.414062 L 11 22 A 1.0001 1.0001 0 0 0 12.707031 22.707031 L 17 18.414062 L 21.292969 22.707031 A 1 1 0 0 0 22.707031 22.707031 A 1 1 0 0 0 22.707031 21.292969 L 2.7070312 1.2929688 A 1 1 0 0 0 2 1 z M 11.902344 1.0039062 A 1.0001 1.0001 0 0 0 11.617188 1.0761719 A 1.0001 1.0001 0 0 0 11 2 L 11 6.5 A 1 1 0 0 0 12 7.5 A 1 1 0 0 0 13 6.5 L 13 4.4140625 L 15.585938 7 L 13.792969 8.7929688 A 1 1 0 0 0 13.792969 10.207031 A 1 1 0 0 0 15.207031 10.207031 L 17.707031 7.7070312 A 1.0001 1.0001 0 0 0 17.707031 6.2929688 L 12.707031 1.2929688 A 1.0001 1.0001 0 0 0 11.902344 1.0039062 z M 13 14.414062 L 15.585938 17 L 13 19.585938 L 13 14.414062 z "/>
</svg>
