<?xml version="1.0" encoding="UTF-8" standalone="no"?>
<svg xmlns="http://www.w3.org/2000/svg" xmlns:svg="http://www.w3.org/2000/svg" width="24" height="24" viewBox="0 0 24 24" fill="currentColor" tags="text,strong,format" categories="text">
  <path d="M 7 3 C 5.9072751 3 5 3.9072751 5 5 L 5 12 L 5 19 C 5 20.092725 5.9072751 21 7 21 L 15 21 C 16.583333 21 17.898108 20.370244 18.748047 19.414062 C 19.597986 18.457881 20 17.222222 20 16 C 20 14.777778 19.597986 13.542119 18.748047 12.585938 C 18.399379 12.193686 17.926988 11.90201 17.435547 11.640625 C 17.527467 11.553565 17.664843 11.507666 17.748047 11.414062 C 18.597986 10.45788 19 9.2222221 19 8 C 19 6.7777779 18.597986 5.5421194 17.748047 4.5859375 C 16.898108 3.6297556 15.583333 3 14 3 L 7 3 z M 7 5 L 14 5 C 15.083333 5 15.768559 5.3702444 16.251953 5.9140625 C 16.735347 6.4578806 17 7.2222221 17 8 C 17 8.7777779 16.735347 9.5421189 16.251953 10.085938 C 15.768559 10.629755 15.083333 11 14 11 L 7 11 L 7 5 z M 7 13 L 14 13 L 15 13 C 16.083333 13 16.768559 13.370244 17.251953 13.914062 C 17.735347 14.45788 18 15.222222 18 16 C 18 16.777778 17.735347 17.542119 17.251953 18.085938 C 16.768559 18.629756 16.083333 19 15 19 L 7 19 L 7 13 z "/>
</svg>
