<?xml version="1.0" encoding="UTF-8" standalone="no"?>
<svg xmlns="http://www.w3.org/2000/svg" xmlns:svg="http://www.w3.org/2000/svg" width="24" height="24" viewBox="0 0 24 24" fill="currentColor" tags="nut,screw,settings,preferences,configuration,controls,edit,diy,fixed,build,contruction,parts" categories="tools,home">
  <path d="M 12 1.0019531 C 11.483132 1.0019531 10.966338 1.1362676 10.503906 1.4023438 L 3.5039062 5.4023438 A 1.0001 1.0001 0 0 0 3.5 5.4042969 C 2.5741295 5.9388477 2.0010966 6.9289447 2 7.9980469 A 1.0001 1.0001 0 0 0 2 8 L 2 16 A 1.0001 1.0001 0 0 0 2 16.001953 C 2.0011 17.071055 2.5741295 18.061152 3.5 18.595703 A 1.0001 1.0001 0 0 0 3.5039062 18.597656 L 10.503906 22.597656 C 11.430048 23.130544 12.574462 23.13011 13.5 22.595703 L 20.496094 18.597656 A 1.0001 1.0001 0 0 0 20.5 18.595703 C 21.42587 18.061152 21.998903 17.071055 22 16.001953 A 1.0001 1.0001 0 0 0 22 16 L 22 8 A 1.0001 1.0001 0 0 0 22 7.9980469 C 21.9989 6.9289447 21.42587 5.9388477 20.5 5.4042969 A 1.0001 1.0001 0 0 0 20.496094 5.4023438 L 13.5 1.4042969 C 13.036593 1.1367485 12.518296 1.0019531 12 1.0019531 z M 12 3.0019531 C 12.172303 3.0019531 12.344606 3.0470016 12.5 3.1367188 A 1.0001 1.0001 0 0 0 12.503906 3.1386719 L 19.5 7.1367188 C 19.80994 7.3156626 19.998995 7.6422179 20 8 L 20 15.998047 C 19.999632 16.356541 19.810466 16.684034 19.5 16.863281 L 12.503906 20.861328 A 1.0001 1.0001 0 0 0 12.5 20.863281 C 12.189211 21.042716 11.810789 21.042716 11.5 20.863281 A 1.0001 1.0001 0 0 0 11.496094 20.861328 L 4.5 16.863281 C 4.1900597 16.684337 4.0010048 16.357782 4 16 L 4 8.0019531 L 4 8 C 4.001 7.6422179 4.1900597 7.3156627 4.5 7.1367188 L 11.496094 3.1386719 A 1.0001 1.0001 0 0 0 11.5 3.1367188 C 11.655394 3.0470016 11.827697 3.0019531 12 3.0019531 z M 12 7 C 9.2504209 7 7 9.2504209 7 12 C 7 14.749579 9.2504209 17 12 17 C 14.749579 17 17 14.749579 17 12 C 17 9.2504209 14.749579 7 12 7 z M 12 9 C 13.668699 9 15 10.331301 15 12 C 15 13.668699 13.668699 15 12 15 C 10.331301 15 9 13.668699 9 12 C 9 10.331301 10.331301 9 12 9 z "/>
</svg>
