<?xml version="1.0" encoding="UTF-8" standalone="no"?>
<svg xmlns="http://www.w3.org/2000/svg" xmlns:svg="http://www.w3.org/2000/svg" width="24" height="24" viewBox="0 0 24 24" fill="currentColor" tags="fatal,error,crash,blockbuster,mine,explosion,explode,explosive" categories="">
  <path d="M 22 1 A 1 1 0 0 0 21.292969 1.2929688 L 20.5 2.0859375 L 20.40625 1.9921875 A 1.0001 1.0001 0 0 0 20.40625 1.9902344 C 19.745167 1.3323799 18.872179 1.0039063 18 1.0039062 C 17.127821 1.0039062 16.254786 1.3323892 15.59375 1.9902344 A 1.0001 1.0001 0 0 0 15.59375 1.9921875 L 14.09375 3.4921875 C 13.118725 3.1737585 12.079512 3 11 3 C 5.4889971 3 1 7.4889971 1 13 C 1 18.511003 5.4889971 23 11 23 C 16.511003 23 21 18.511003 21 13 C 21 11.920488 20.826241 10.881275 20.507812 9.90625 L 22.005859 8.4082031 L 22.007812 8.40625 C 23.330026 7.0864386 23.330026 4.9135614 22.007812 3.59375 L 22.005859 3.5917969 L 21.914062 3.5 L 22.707031 2.7070312 A 1 1 0 0 0 22.707031 1.2929688 A 1 1 0 0 0 22 1 z M 18 2.9921875 C 18.356651 2.9921875 18.713302 3.1297377 18.992188 3.40625 L 19.792969 4.2070312 L 20.59375 5.0078125 C 21.151259 5.5633889 21.151259 6.4366111 20.59375 6.9921875 L 19.628906 7.9570312 C 18.760258 6.4772752 17.522725 5.2397418 16.042969 4.3710938 L 17.005859 3.4082031 L 17.007812 3.40625 C 17.286698 3.1297377 17.643349 2.9921875 18 2.9921875 z M 11 5 C 12.021071 5 12.996081 5.1910025 13.892578 5.5371094 A 1 1 0 0 0 13.919922 5.5488281 C 15.994253 6.3586031 17.641397 8.0057469 18.451172 10.080078 A 1 1 0 0 0 18.462891 10.107422 C 18.808997 11.003919 19 11.978929 19 13 C 19 17.430123 15.430123 21 11 21 C 6.5698774 21 3 17.430123 3 13 C 3 8.5698774 6.5698774 5 11 5 z "/>
</svg>
