<?xml version="1.0" encoding="UTF-8" standalone="no"?>
<svg xmlns="http://www.w3.org/2000/svg" xmlns:svg="http://www.w3.org/2000/svg" width="24" height="24" viewBox="0 0 24 24" fill="currentColor" tags="health,skeleton,skull,death,pets,dog" categories="animals,medical,gaming">
  <path d="M 16.5 1 C 15.652778 1 14.792119 1.2770139 14.117188 1.8769531 C 13.442255 2.4768923 13 3.4166669 13 4.5 C 13 5.1930658 13.218232 5.6740929 13.28125 5.9882812 C 13.318668 6.1748307 13.337454 6.2269827 13.333984 6.25 C 13.33367 6.2510817 13.33248 6.2548751 13.332031 6.2558594 C 13.331447 6.2567785 13.328847 6.2608324 13.328125 6.2617188 C 13.321231 6.2688063 13.309336 6.2766003 13.292969 6.2929688 L 6.2929688 13.292969 C 6.2766002 13.309336 6.2668533 13.323185 6.2597656 13.330078 C 6.2588792 13.3308 6.2548254 13.3334 6.2539062 13.333984 C 6.252922 13.334433 6.2491286 13.335623 6.2480469 13.335938 C 6.2250294 13.339407 6.1748301 13.318668 5.9882812 13.28125 C 5.6740929 13.218233 5.1930658 13 4.5 13 C 3.4166669 13 2.4768923 13.442256 1.8769531 14.117188 C 1.2770139 14.792118 1 15.652778 1 16.5 C 1 17.347222 1.2770139 18.207881 1.8769531 18.882812 C 2.3932999 19.463704 3.1894399 19.813509 4.0839844 19.916016 C 4.1864914 20.81056 4.5362971 21.6067 5.1171875 22.123047 C 5.7921194 22.722986 6.6527779 23 7.5 23 C 8.3472221 23 9.2078806 22.722986 9.8828125 22.123047 C 10.557744 21.523108 11 20.583333 11 19.5 C 11 18.806934 10.781768 18.325907 10.71875 18.011719 C 10.681332 17.825169 10.662546 17.773017 10.666016 17.75 C 10.66633 17.748918 10.66752 17.745125 10.667969 17.744141 C 10.668553 17.743221 10.671153 17.739168 10.671875 17.738281 C 10.678769 17.731194 10.690664 17.7234 10.707031 17.707031 L 17.707031 10.707031 C 17.723399 10.690664 17.733147 10.676815 17.740234 10.669922 C 17.741121 10.6692 17.745175 10.6666 17.746094 10.666016 C 17.747078 10.665567 17.750871 10.664377 17.751953 10.664062 C 17.774971 10.660593 17.82517 10.681332 18.011719 10.71875 C 18.325908 10.781767 18.806934 11 19.5 11 C 20.583333 11 21.523108 10.557744 22.123047 9.8828125 C 22.722986 9.2078806 23 8.3472221 23 7.5 C 23 6.6527779 22.722986 5.7921194 22.123047 5.1171875 C 21.6067 4.5362971 20.81056 4.1864914 19.916016 4.0839844 C 19.813509 3.1894399 19.463703 2.3932999 18.882812 1.8769531 C 18.207881 1.2770139 17.347222 1 16.5 1 z M 16.5 3 C 16.902778 3 17.292119 3.1396531 17.554688 3.3730469 C 17.817256 3.6064406 18 3.9166671 18 4.5 C 18 5.3165825 18.683418 6 19.5 6 C 20.083333 6 20.393559 6.1827444 20.626953 6.4453125 C 20.860347 6.7078806 21 7.0972221 21 7.5 C 21 7.9027779 20.860347 8.2921194 20.626953 8.5546875 C 20.393559 8.8172556 20.083333 9 19.5 9 C 19.383066 9 18.964562 8.8697948 18.40625 8.7578125 C 17.847938 8.6458302 16.927495 8.6584423 16.292969 9.2929688 L 9.2929688 16.292969 C 8.6584423 16.927495 8.6458302 17.847938 8.7578125 18.40625 C 8.8697948 18.964562 9 19.383066 9 19.5 C 9 20.083333 8.8172556 20.393559 8.5546875 20.626953 C 8.2921194 20.860347 7.9027779 21 7.5 21 C 7.0972221 21 6.7078806 20.860347 6.4453125 20.626953 C 6.1827444 20.393559 6 20.083333 6 19.5 C 6 18.69619 5.3038095 18 4.5 18 C 3.9166671 18 3.6064406 17.817256 3.3730469 17.554688 C 3.1396531 17.292119 3 16.902778 3 16.5 C 3 16.097222 3.1396531 15.707881 3.3730469 15.445312 C 3.6064406 15.182743 3.9166671 15 4.5 15 C 4.6169342 15 5.0354385 15.130204 5.59375 15.242188 C 6.1520615 15.354169 7.0725049 15.341558 7.7070312 14.707031 L 14.707031 7.7070312 C 15.341558 7.0725049 15.354169 6.1520615 15.242188 5.59375 C 15.130204 5.0354385 15 4.6169342 15 4.5 C 15 3.9166671 15.182744 3.6064406 15.445312 3.3730469 C 15.70788 3.1396531 16.097222 3 16.5 3 z "/>
</svg>
