<?xml version="1.0" encoding="UTF-8" standalone="no"?>
<svg xmlns="http://www.w3.org/2000/svg" xmlns:svg="http://www.w3.org/2000/svg" width="24" height="24" viewBox="0 0 24 24" fill="currentColor" tags="thesaurus,synonym,reading,booklet,magazine,leaflet,pamphlet,tome,library,writing,written,writer,author,story,script,fiction,novel,information,knowledge,education,high school,university,college,academy,student,study,learning,homework,research,language,translate,typography,fonts,collection" categories="text,design,gaming">
  <path d="M 6.5 1 C 4.5788518 1 3 2.5788518 3 4.5 L 3 19.5 C 3 20.34722 3.2770151 21.207882 3.8769531 21.882812 C 4.4768911 22.557744 5.4166691 23 6.5 23 L 20 23 A 1.0001 1.0001 0 0 0 21 22 L 21 17 L 21 2 A 1.0001 1.0001 0 0 0 20 1 L 6.5 1 z M 6.5 3 L 19 3 L 19 16 L 6.5 16 C 5.9545365 16 5.4474593 16.113136 5 16.310547 L 5 4.5 C 5 3.6597299 5.6597299 3 6.5 3 z M 8 5 A 1.0001 1.0001 0 0 0 7 6 L 7 8 A 1 1 0 0 0 8 9 A 1 1 0 0 0 9 8 L 9 7 L 11 7 L 11 12 L 10 12 A 1 1 0 0 0 9 13 A 1 1 0 0 0 10 14 L 12 14 L 14 14 A 1 1 0 0 0 15 13 A 1 1 0 0 0 14 12 L 13 12 L 13 7 L 15 7 L 15 8 A 1 1 0 0 0 16 9 A 1 1 0 0 0 17 8 L 17 6 A 1.0001 1.0001 0 0 0 16 5 L 8 5 z M 6.5 18 L 19 18 L 19 21 L 6.5 21 C 5.9166683 21 5.6064401 20.817255 5.3730469 20.554688 C 5.1396536 20.292121 5 19.902777 5 19.5 C 5 19.097223 5.1396536 18.70788 5.3730469 18.445312 C 5.6064401 18.182746 5.9166683 18 6.5 18 z "/>
</svg>
