<?xml version="1.0" encoding="UTF-8" standalone="no"?>
<svg xmlns="http://www.w3.org/2000/svg" xmlns:svg="http://www.w3.org/2000/svg" width="24" height="24" viewBox="0 0 24 24" fill="currentColor" tags="diary,romance,novel,journal,entry,entries,personal,private,secret,crush,like,love,emotion,feminine,girls,teens,teenager,therapy,theraputic,therapist,planner,organizer,organiser,notes,notepad,stationery,sketchbook,writing,written,reading,favorite,favourite,high school" categories="social,text,gaming">
  <path d="M 6.5 1 C 4.578848 1 3 2.578848 3 4.5 L 3 19.5 C 3 20.347222 3.2770139 21.207881 3.8769531 21.882812 C 4.4768923 22.557744 5.4166669 23 6.5 23 L 19 23 C 20.092725 23 21 22.092725 21 21 L 21 17 L 21 3 C 21 1.9072751 20.092725 1 19 1 L 6.5 1 z M 6.5 3 L 19 3 L 19 16 L 6.5 16 C 5.9545355 16 5.4474602 16.113135 5 16.310547 L 5 4.5 C 5 3.6597282 5.6597282 3 6.5 3 z M 10.191406 5 C 8.4468306 5.0156474 7.0156474 6.4468303 7 8.1914062 A 1.0001 1.0001 0 0 0 7 8.1992188 C 7 9.132552 7.4154108 9.9310353 7.9921875 10.507812 A 1.0001 1.0001 0 0 0 7.9960938 10.511719 C 9.090054 11.594268 10.194857 12.664468 11.310547 13.724609 A 1.0001 1.0001 0 0 0 12.679688 13.732422 C 13.788206 12.702718 14.891372 11.667062 15.988281 10.625 A 1.0001 1.0001 0 0 0 16.009766 10.603516 C 16.643902 9.9643487 17.000198 9.0995988 17 8.1992188 A 1 1 0 0 0 16.998047 8.1953125 A 1 1 0 0 0 17 8.1914062 C 16.998544 8.0290335 16.849304 7.9294855 16.824219 7.7734375 A 1 1 0 0 0 16.705078 7.4902344 C 16.341619 6.1234069 15.280773 5.0132042 13.808594 5 A 1.0001 1.0001 0 0 0 13.800781 5 C 13.13524 5 12.532108 5.2552564 12 5.6171875 C 11.467892 5.2552564 10.864747 5 10.199219 5 A 1.0001 1.0001 0 0 0 10.191406 5 z M 10.203125 7.0019531 C 10.747952 7.0028547 10.939581 7.1124968 11.167969 7.4550781 A 1.0001 1.0001 0 0 0 12.832031 7.4550781 C 13.060419 7.1124968 13.252048 7.0028547 13.796875 7.0019531 C 14.468462 7.0114231 14.989581 7.5331988 14.998047 8.2050781 C 14.996947 8.5767276 14.851688 8.9313837 14.589844 9.1953125 C 13.734759 10.007524 12.873898 10.812515 12.011719 11.617188 C 11.137656 10.779649 10.264775 9.9413462 9.4042969 9.0898438 C 9.183406 8.8670267 9.0035695 8.4686168 9.0019531 8.203125 C 9.0114167 7.532197 9.532197 7.0114167 10.203125 7.0019531 z M 6.5 18 L 19 18 L 19 21 L 6.5 21 C 5.9166671 21 5.6064406 20.817256 5.3730469 20.554688 C 5.1396531 20.292119 5 19.902778 5 19.5 C 5 19.097222 5.1396531 18.707881 5.3730469 18.445312 C 5.6064406 18.182744 5.9166671 18 6.5 18 z "/>
</svg>
