<svg xmlns="http://www.w3.org/2000/svg" xmlns:svg="http://www.w3.org/2000/svg" width="24" height="24" viewBox="0 0 24 24" fill="currentColor" tags="read,clip,marker,tag,cancel,close,delete,remove,clear" categories="account">
  <path d="M 7 2 C 5.3549904 2 4 3.3549904 4 5 L 4 20 C 4.0004798 21.48765 5.7004271 22.474203 6.9921875 21.736328 L 11.503906 19.158203 C 11.8126 18.981872 12.1874 18.981872 12.496094 19.158203 L 17.007812 21.736328 C 18.299573 22.474203 19.99952 21.48765 20 20 L 20 5 C 20 3.3549904 18.64501 2 17 2 L 7 2 z M 7 4 L 17 4 C 17.564129 4 18 4.4358706 18 5 L 18 20 L 13.488281 17.421875 C 12.567529 16.895926 11.432471 16.895926 10.511719 17.421875 L 6 20 L 6 5 C 6 4.4358706 6.4358706 4 7 4 z M 9.5 6.5 A 1 1 0 0 0 8.7929688 6.7929688 A 1 1 0 0 0 8.7929688 8.2070312 L 10.585938 10 L 8.7929688 11.792969 A 1 1 0 0 0 8.7929688 13.207031 A 1 1 0 0 0 10.207031 13.207031 L 12 11.414062 L 13.792969 13.207031 A 1 1 0 0 0 15.207031 13.207031 A 1 1 0 0 0 15.207031 11.792969 L 13.414062 10 L 15.207031 8.2070312 A 1 1 0 0 0 15.207031 6.7929688 A 1 1 0 0 0 14.5 6.5 A 1 1 0 0 0 13.792969 6.7929688 L 12 8.5859375 L 10.207031 6.7929688 A 1 1 0 0 0 9.5 6.5 z "/>
</svg>
