<?xml version="1.0" encoding="UTF-8" standalone="no"?>
<svg xmlns="http://www.w3.org/2000/svg" xmlns:svg="http://www.w3.org/2000/svg" width="24" height="24" viewBox="0 0 24 24" fill="currentColor" tags="code,coding,version control,git,repository,clone,fork,duplicate,multiple,books,library,copies,copied,plagiarism,plagiarised,plagiarized,reading list,information,informed,knowledge,knowledgeable,knowledgable,education,high school,university,college,academy,student,study,learning,research,smart,intelligent,intellectual" categories="development,text,gaming">
  <path d="M 11 1 C 9.3549904 1 8 2.3549904 8 4 L 8 15 C 8 15.722222 8.2353472 16.457881 8.7519531 17.039062 C 9.268559 17.620244 10.083334 18 11 18 L 20.5 18 C 21.316582 18 22 17.316582 22 16.5 L 22 13 L 22 2.5 C 22 1.6834175 21.316582 1 20.5 1 L 11 1 z M 11 3 L 20 3 L 20 12 L 11 12 C 10.640113 12 10.316479 12.09886 10 12.205078 L 10 4 C 10 3.4358706 10.435871 3 11 3 z M 5 6 C 3.3549904 6 2 7.3549904 2 9 L 2 20 C 2 20.722222 2.2353472 21.457881 2.7519531 22.039062 C 3.268559 22.620244 4.0833335 23 5 23 L 14.5 23 C 15.316582 23 16 22.316582 16 21.5 L 16 21 A 1 1 0 0 0 15 20 A 1 1 0 0 0 14 21 L 5 21 C 4.5833337 21 4.3981073 20.879756 4.2480469 20.710938 C 4.0979875 20.542121 4.0000015 20.277776 4 20 C 4 19.722222 4.0979864 19.457881 4.2480469 19.289062 C 4.3981073 19.120244 4.5833337 19 5 19 L 5.8027344 19 A 1 1 0 0 0 6.8027344 18 A 1 1 0 0 0 5.8027344 17 L 5 17 C 4.6479292 17 4.310889 17.056267 4 17.158203 L 4 9 C 4 8.4358706 4.4358706 8 5 8 A 1 1 0 0 0 6 7 A 1 1 0 0 0 5 6 z M 11 14 L 20 14 L 20 16 L 11 16 C 10.583334 16 10.398107 15.879756 10.248047 15.710938 C 10.097986 15.542118 10 15.277778 10 15 C 10 14.722222 10.097986 14.45788 10.248047 14.289062 C 10.398107 14.120243 10.583334 14 11 14 z "/>
</svg>
