<svg xmlns="http://www.w3.org/2000/svg" xmlns:svg="http://www.w3.org/2000/svg" width="24" height="24" viewBox="0 0 24 24" fill="currentColor" tags="images,pictures,photos,album,collection,event,magazine,catalog,catalogue,brochure,browse,gallery" categories="photography,text,multimedia,files,social,shopping,travel">
  <path d="M 6.5 1 C 4.578848 1 3 2.578848 3 4.5 L 3 19.5 C 3 20.347222 3.2770139 21.207881 3.8769531 21.882812 C 4.4768923 22.557744 5.4166669 23 6.5 23 L 19 23 C 20.092725 23 21 22.092725 21 21 L 21 17 L 21 3 C 21 1.9072751 20.092725 1 19 1 L 6.5 1 z M 6.5 3 L 19 3 L 19 11.285156 L 18.607422 10.892578 A 1.0001 1.0001 0 0 0 18.599609 10.886719 C 18.02029 10.318898 17.260353 10.033203 16.5 10.033203 C 15.739647 10.033203 14.979684 10.318898 14.400391 10.886719 A 1.0001 1.0001 0 0 0 14.392578 10.892578 L 9.2851562 16 L 6.5 16 C 5.9545355 16 5.4474602 16.113135 5 16.310547 L 5 4.5 C 5 3.6597282 5.6597282 3 6.5 3 z M 10 5 C 8.3549904 5 7 6.3549904 7 8 C 7 9.6450096 8.3549904 11 10 11 C 11.64501 11 13 9.6450096 13 8 C 13 6.3549904 11.64501 5 10 5 z M 10 7 C 10.564129 7 11 7.4358706 11 8 C 11 8.5641294 10.564129 9 10 9 C 9.4358706 9 9 8.5641294 9 8 C 9 7.4358706 9.4358706 7 10 7 z M 16.5 12.023438 C 16.750413 12.023438 17.000825 12.119989 17.199219 12.314453 L 19 14.113281 L 19 16 L 12.113281 16 L 15.800781 12.314453 C 15.999175 12.119989 16.249587 12.023438 16.5 12.023438 z M 6.5 18 L 19 18 L 19 21 L 6.5 21 C 5.9166671 21 5.6064406 20.817256 5.3730469 20.554688 C 5.1396531 20.292119 5 19.902778 5 19.5 C 5 19.097222 5.1396531 18.707881 5.3730469 18.445312 C 5.6064406 18.182744 5.9166671 18 6.5 18 z "/>
</svg>
