<?xml version="1.0" encoding="UTF-8" standalone="no"?>
<svg xmlns="http://www.w3.org/2000/svg" xmlns:svg="http://www.w3.org/2000/svg" width="24" height="24" viewBox="0 0 24 24" fill="currentColor" tags="dictionary,define,definition,thesaurus,encyclopedia,encyclopaedia,reading,booklet,magazine,leaflet,pamphlet,tome,library,writing,written,writer,author,story,script,fiction,novel,information,knowledge,education,high school,university,college,academy,student,study,learning,homework,research,language,translate,alphabetical,a-z,ordered" categories="text,gaming">
  <path d="M 6.5 1 C 4.578848 1 3 2.578848 3 4.5 L 3 19.5 C 3 20.347222 3.2770139 21.207881 3.8769531 21.882812 C 4.4768923 22.557744 5.4166669 23 6.5 23 L 19 23 C 20.092725 23 21 22.092725 21 21 L 21 17 L 21 3 C 21 1.9072751 20.092725 1 19 1 L 6.5 1 z M 6.5 3 L 19 3 L 19 16 L 6.5 16 C 5.9545355 16 5.4474602 16.113135 5 16.310547 L 5 4.5 C 5 3.6597282 5.6597282 3 6.5 3 z M 12 5 A 1.0001 1.0001 0 0 0 11.130859 5.5039062 L 8.3964844 10.289062 A 1 1 0 0 0 8.1328125 10.751953 A 1 1 0 0 0 8.1308594 10.755859 L 7.1308594 12.503906 A 1 1 0 0 0 7.5039062 13.869141 A 1 1 0 0 0 8.8691406 13.496094 L 9.7246094 12 L 14.275391 12 L 15.130859 13.496094 A 1 1 0 0 0 16.496094 13.869141 A 1 1 0 0 0 16.869141 12.503906 L 12.869141 5.5039062 A 1.0001 1.0001 0 0 0 12 5 z M 12 8.0175781 L 13.132812 10 L 10.867188 10 L 12 8.0175781 z M 6.5 18 L 19 18 L 19 21 L 6.5 21 C 5.9166671 21 5.6064406 20.817256 5.3730469 20.554688 C 5.1396531 20.292119 5 19.902778 5 19.5 C 5 19.097222 5.1396531 18.707881 5.3730469 18.445312 C 5.6064406 18.182744 5.9166671 18 6.5 18 z "/>
</svg>
