<?xml version="1.0" encoding="UTF-8" standalone="no"?>
<svg xmlns="http://www.w3.org/2000/svg" xmlns:svg="http://www.w3.org/2000/svg" width="24" height="24" viewBox="0 0 24 24" fill="currentColor" tags="read,pages,booklet,magazine,leaflet,pamphlet,library,written,authored,published,informed,knowledgeable,educated,schooled,homework,examined,tested,marked,passed,graduated,studied,learned,lesson,researched,documented,revealed,blank,plain language,true,truth,verified,corrected,task,todo,done,completed,finished,ticked" categories="text,development,gaming">
  <path d="M 2 2 A 1.0001 1.0001 0 0 0 1 3 L 1 18 A 1.0001 1.0001 0 0 0 2 19 L 9 19 C 10.190194 19 11 19.809806 11 21 A 1.0001 1.0001 0 0 0 13 21 C 13 19.809806 13.809806 19 15 19 L 22 19 A 1.0001 1.0001 0 0 0 23 18 L 23 15.699219 A 1 1 0 0 0 22 14.699219 A 1 1 0 0 0 21 15.699219 L 21 17 L 15 17 C 14.254944 17 13.597125 17.258806 13 17.613281 L 13 7 C 13 5.3454579 14.345458 4 16 4 L 21 4 L 21 6 A 1 1 0 0 0 22 7 A 1 1 0 0 0 23 6 L 23 3 A 1.0001 1.0001 0 0 0 22 2 L 16 2 C 14.368636 2 12.914688 2.7994259 12 4.0214844 C 11.085312 2.7994259 9.6313639 2 8 2 L 2 2 z M 3 4 L 8 4 C 9.6545421 4 11 5.3454579 11 7 L 11 17.613281 C 10.402875 17.258806 9.7450558 17 9 17 L 3 17 L 3 4 z M 22 9 A 1 1 0 0 0 21.292969 9.2929688 L 18 12.585938 L 16.707031 11.292969 A 1 1 0 0 0 15.292969 11.292969 A 1 1 0 0 0 15.292969 12.707031 L 17.292969 14.707031 A 1.0001 1.0001 0 0 0 18.707031 14.707031 L 22.707031 10.707031 A 1 1 0 0 0 22.707031 9.2929688 A 1 1 0 0 0 22 9 z "/>
</svg>
