<?xml version="1.0" encoding="UTF-8" standalone="no"?>
<svg xmlns="http://www.w3.org/2000/svg" xmlns:svg="http://www.w3.org/2000/svg" width="24" height="24" viewBox="0 0 24 24" fill="currentColor" tags="images,pictures,photos,album,collection,event,magazine,catalog,catalogue,brochure,browse,gallery" categories="photography,text,multimedia,files,social,shopping,travel">
  <path d="M 6.5 1 C 4.5788518 1 3 2.5788518 3 4.5 L 3 19.5 C 3 20.34722 3.2770151 21.207882 3.8769531 21.882812 C 4.4768911 22.557744 5.4166691 23 6.5 23 L 19 23 C 20.092723 23 21 22.092723 21 21 L 21 17 L 21 3 C 21 1.9072773 20.092723 1 19 1 L 6.5 1 z M 6.5 3 L 19 3 L 19 11.285156 L 18.607422 10.892578 A 1.0001 1.0001 0 0 0 18.599609 10.886719 C 18.020291 10.318898 17.260351 10.033203 16.5 10.033203 C 15.739649 10.033203 14.979683 10.318898 14.400391 10.886719 A 1.0001 1.0001 0 0 0 14.392578 10.892578 L 9.2851562 16 L 6.5 16 C 5.9545365 16 5.4474593 16.113136 5 16.310547 L 5 4.5 C 5 3.6597299 5.6597299 3 6.5 3 z M 10 5 C 8.3549936 5 7 6.3549936 7 8 C 7 9.6450064 8.3549936 11 10 11 C 11.645006 11 13 9.6450064 13 8 C 13 6.3549936 11.645006 5 10 5 z M 10 7 C 10.564128 7 11 7.4358718 11 8 C 11 8.5641282 10.564128 9 10 9 C 9.4358718 9 9 8.5641282 9 8 C 9 7.4358718 9.4358718 7 10 7 z M 16.5 12.023438 C 16.750412 12.023438 17.000825 12.119989 17.199219 12.314453 L 19 14.113281 L 19 16 L 12.113281 16 L 15.800781 12.314453 C 15.999175 12.119989 16.249588 12.023438 16.5 12.023438 z M 6.5 18 L 19 18 L 19 21 L 6.5 21 C 5.9166683 21 5.6064401 20.817255 5.3730469 20.554688 C 5.1396536 20.292121 5 19.902777 5 19.5 C 5 19.097223 5.1396536 18.70788 5.3730469 18.445312 C 5.6064401 18.182746 5.9166683 18 6.5 18 z "/>
</svg>
