<svg xmlns="http://www.w3.org/2000/svg" xmlns:svg="http://www.w3.org/2000/svg" width="24" height="24" viewBox="0 0 24 24" fill="currentColor" tags="code,coding,version control,git,repository,private,secret,hidden,knowledge" categories="development,security,gaming">
  <path d="M 6.5 1 C 4.578848 1 3 2.578848 3 4.5 L 3 19.5 C 3 20.347222 3.2770139 21.207881 3.8769531 21.882812 C 4.4768923 22.557744 5.4166669 23 6.5 23 L 19 23 C 20.092725 23 21 22.092725 21 21 L 21 17 L 21 15 A 1 1 0 0 0 20 14 A 1 1 0 0 0 19 15 L 19 16 L 6.5 16 C 5.9554107 16 5.4470994 16.111697 5 16.308594 L 5 4.5 C 5 3.6597282 5.6597282 3 6.5 3 L 10 3 A 1 1 0 0 0 11 2 A 1 1 0 0 0 10 1 L 6.5 1 z M 16 1 C 15.277778 1 14.542119 1.2353472 13.960938 1.7519531 C 13.379755 2.268559 13 3.0833335 13 4 L 13 5 C 11.909297 5 11 5.9092972 11 7 L 11 10 C 11 11.090703 11.909297 12 13 12 L 19 12 C 20.090703 12 21 11.090703 21 10 L 21 7 C 21 5.9092972 20.090703 5 19 5 L 19 4 C 19 3.0833335 18.620244 2.268559 18.039062 1.7519531 C 17.457881 1.2353472 16.722222 1 16 1 z M 16 3 C 16.277778 3 16.542119 3.0979864 16.710938 3.2480469 C 16.879756 3.3981073 17 3.5833337 17 4 L 17 5 L 15 5 L 15 4 C 15 3.5833337 15.120244 3.3981073 15.289062 3.2480469 C 15.45788 3.0979864 15.722222 3 16 3 z M 13 7 L 14 7 L 18 7 L 19 7 L 19 10 L 13 10 L 13 7 z M 6.5 18 L 19 18 L 19 21 L 6.5 21 C 5.9166671 21 5.6064406 20.817256 5.3730469 20.554688 C 5.1396531 20.292119 5 19.902778 5 19.5 C 5 19.097222 5.1396531 18.707881 5.3730469 18.445312 C 5.6064406 18.182744 5.9166671 18 6.5 18 z "/>
</svg>
