<svg xmlns="http://www.w3.org/2000/svg" xmlns:svg="http://www.w3.org/2000/svg" width="24" height="24" viewBox="0 0 24 24" fill="currentColor" tags="read,pages,booklet,magazine,leaflet,pamphlet,library,written,authored,published,informed,knowledgeable,educated,schooled,homework,examined,tested,marked,passed,graduated,studied,learned,lesson,researched,documented,revealed,blank,plain language,true,truth,verified,corrected,task,todo,done,completed,finished,ticked" categories="text,development,gaming">
  <path d="M 3 2 C 1.9072751 2 1 2.9072751 1 4 L 1 17 C 1 18.092725 1.9072751 19 3 19 L 9 19 C 10.116414 19 11 19.883586 11 21 A 1 1 0 0 0 12 22 A 1 1 0 0 0 13 21 C 13 19.883586 13.883586 19 15 19 L 21 19 C 22.092725 19 23 18.092725 23 17 L 23 15.699219 A 1 1 0 0 0 22 14.699219 A 1 1 0 0 0 21 15.699219 L 21 17 L 15 17 C 14.262953 17 13.584217 17.21336 13 17.574219 L 13 7 C 13 5.3313011 14.331301 4 16 4 L 21 4 L 21 6 A 1 1 0 0 0 22 7 A 1 1 0 0 0 23 6 L 23 4 C 23 2.9072751 22.092725 2 21 2 L 16 2 C 14.325372 2 12.908665 2.8882121 12 4.1621094 C 11.091335 2.8882121 9.6746277 2 8 2 L 3 2 z M 3 4 L 8 4 C 9.6686989 4 11 5.3313011 11 7 L 11 17.574219 C 10.415783 17.21336 9.7370474 17 9 17 L 3 17 L 3 4 z M 22 9 A 1 1 0 0 0 21.292969 9.2929688 L 18 12.585938 L 16.707031 11.292969 A 1 1 0 0 0 15.292969 11.292969 A 1 1 0 0 0 15.292969 12.707031 L 17.292969 14.707031 A 1.0001 1.0001 0 0 0 18.707031 14.707031 L 22.707031 10.707031 A 1 1 0 0 0 22.707031 9.2929688 A 1 1 0 0 0 22 9 z "/>
</svg>
