<?xml version="1.0" encoding="UTF-8" standalone="no"?>
<svg xmlns="http://www.w3.org/2000/svg" xmlns:svg="http://www.w3.org/2000/svg" width="24" height="24" viewBox="0 0 24 24" fill="currentColor" tags="person,people,family,friends,acquaintances,contacts,details,addresses,phone numbers,directory,listing,networking" categories="account,connectivity,communication,social">
  <path d="M 6.5 1 C 4.5788518 1 3 2.5788518 3 4.5 L 3 19.5 C 3 20.34722 3.2770151 21.207882 3.8769531 21.882812 C 4.4768911 22.557744 5.4166691 23 6.5 23 L 20 23 A 1.0001 1.0001 0 0 0 21 22 L 21 17 L 21 2 A 1.0001 1.0001 0 0 0 20 1 L 6.5 1 z M 6.5 3 L 19 3 L 19 16 L 6.5 16 C 5.9545365 16 5.4474593 16.113136 5 16.310547 L 5 4.5 C 5 3.6597299 5.6597299 3 6.5 3 z M 12 5 C 10.354994 5 9 6.3549936 9 8 C 9 8.6553308 9.2153735 9.2638192 9.578125 9.7597656 C 9.4736797 9.8350444 9.3713217 9.914945 9.2734375 10.001953 C 8.5047572 10.685224 8 11.750003 8 13 A 1 1 0 0 0 9 14 A 1 1 0 0 0 10 13 C 10 12.250002 10.245245 11.814774 10.601562 11.498047 C 10.957879 11.18132 11.472224 11 12 11 C 12.527776 11 13.04212 11.18132 13.398438 11.498047 C 13.754754 11.814774 14 12.250002 14 13 A 1 1 0 0 0 15 14 A 1 1 0 0 0 16 13 C 16 11.750003 15.495243 10.685224 14.726562 10.001953 C 14.628678 9.914945 14.52632 9.8350444 14.421875 9.7597656 C 14.784627 9.2638192 15 8.6553308 15 8 C 15 6.3549936 13.645006 5 12 5 z M 12 7 C 12.564128 7 13 7.4358718 13 8 C 13 8.5641282 12.564128 9 12 9 C 11.435872 9 11 8.5641282 11 8 C 11 7.4358718 11.435872 7 12 7 z M 6.5 18 L 19 18 L 19 21 L 6.5 21 C 5.9166683 21 5.6064401 20.817255 5.3730469 20.554688 C 5.1396536 20.292121 5 19.902777 5 19.5 C 5 19.097223 5.1396536 18.70788 5.3730469 18.445312 C 5.6064401 18.182746 5.9166683 18 6.5 18 z "/>
</svg>
