<?xml version="1.0" encoding="UTF-8" standalone="no"?>
<svg xmlns="http://www.w3.org/2000/svg" xmlns:svg="http://www.w3.org/2000/svg" width="24" height="24" viewBox="0 0 24 24" fill="currentColor" tags="code,coding,version control,git,repository,private,public,secret,unlocked,hidden,revealed,knowledge,learning" categories="development,security,gaming">
  <path d="M 6.5 1 C 4.578848 1 3 2.578848 3 4.5 L 3 19.5 C 3 20.347222 3.2770139 21.207881 3.8769531 21.882812 C 4.4768923 22.557744 5.4166669 23 6.5 23 L 19 23 C 20.092725 23 21 22.092725 21 21 L 21 17 L 21 8 A 1 1 0 0 0 20 7 A 1 1 0 0 0 19 8 L 19 16 L 6.5 16 C 5.9550546 16 5.4473117 16.111457 5 16.308594 L 5 4.5 C 5 3.6597282 5.6597282 3 6.5 3 L 14 3 A 1 1 0 0 0 15 2 A 1 1 0 0 0 14 1 L 6.5 1 z M 20 1 A 1 1 0 0 0 19.292969 1.2929688 L 15.289062 5.296875 C 14.897382 5.107873 14.460496 5 14 5 C 12.35499 5 11 6.3549904 11 8 C 11 9.6450096 12.35499 11 14 11 C 15.64501 11 17 9.6450096 17 8 C 17 7.5395041 16.892127 7.1026175 16.703125 6.7109375 L 19 4.4140625 L 19.292969 4.7070312 A 1 1 0 0 0 20.707031 4.7070312 A 1 1 0 0 0 20.707031 3.2929688 L 20.414062 3 L 20.707031 2.7070312 A 1 1 0 0 0 20.707031 1.2929688 A 1 1 0 0 0 20 1 z M 14 7 C 14.564129 7 15 7.4358706 15 8 C 15 8.5641294 14.564129 9 14 9 C 13.435871 9 13 8.5641294 13 8 C 13 7.4358706 13.435871 7 14 7 z M 6.5 18 L 19 18 L 19 21 L 6.5 21 C 5.9166671 21 5.6064406 20.817256 5.3730469 20.554688 C 5.1396531 20.292119 5 19.902778 5 19.5 C 5 19.097222 5.1396531 18.707881 5.3730469 18.445312 C 5.6064406 18.182744 5.9166671 18 6.5 18 z "/>
</svg>
