<?xml version="1.0" encoding="UTF-8" standalone="no"?>
<svg xmlns="http://www.w3.org/2000/svg" xmlns:svg="http://www.w3.org/2000/svg" width="24" height="24" viewBox="0 0 24 24" fill="currentColor" tags="delete,remove" categories="account">
  <path d="M 7 2 C 5.3549904 2 4 3.3549904 4 5 L 4 21 A 1.0001 1.0001 0 0 0 5.4960938 21.869141 L 12 18.152344 L 18.503906 21.869141 A 1.0001 1.0001 0 0 0 20 21 L 20 5 C 20 3.3549904 18.64501 2 17 2 L 7 2 z M 7 4 L 17 4 C 17.564129 4 18 4.4358706 18 5 L 18 19.275391 L 12.496094 16.130859 A 1.0001 1.0001 0 0 0 11.503906 16.130859 L 6 19.275391 L 6 5 C 6 4.4358706 6.4358706 4 7 4 z M 9 9 A 1 1 0 0 0 8 10 A 1 1 0 0 0 9 11 L 15 11 A 1 1 0 0 0 16 10 A 1 1 0 0 0 15 9 L 9 9 z "/>
</svg>
