<?xml version="1.0" encoding="UTF-8" standalone="no"?>
<svg xmlns="http://www.w3.org/2000/svg" xmlns:svg="http://www.w3.org/2000/svg" width="24" height="24" viewBox="0 0 24 24" fill="currentColor" tags="diary,romance,novel,journal,entry,entries,personal,private,secret,crush,like,love,emotion,feminine,girls,teens,teenager,therapy,theraputic,therapist,planner,organizer,organiser,notes,notepad,stationery,sketchbook,writing,written,reading,favorite,favourite,high school" categories="social,text,communication,gaming">
  <path d="M 6.5 1 C 4.5788518 1 3 2.5788518 3 4.5 L 3 19.5 C 3 20.34722 3.2770151 21.207882 3.8769531 21.882812 C 4.4768911 22.557744 5.4166691 23 6.5 23 L 19 23 C 20.092723 23 21 22.092723 21 21 L 21 17 L 21 3 C 21 1.9072773 20.092723 1 19 1 L 6.5 1 z M 6.5 3 L 19 3 L 19 16 L 6.5 16 C 5.9545365 16 5.4474593 16.113136 5 16.310547 L 5 4.5 C 5 3.6597299 5.6597299 3 6.5 3 z M 10.191406 5 C 8.4468341 5.0156473 7.0156473 6.4468338 7 8.1914062 A 1.0001 1.0001 0 0 0 7 8.1992188 C 7 9.1325502 7.415412 9.9310365 7.9921875 10.507812 A 1.0001 1.0001 0 0 0 7.9960938 10.511719 C 9.090052 11.594266 10.19486 12.66447 11.310547 13.724609 A 1.0001 1.0001 0 0 0 12.679688 13.732422 C 13.788203 12.70272 14.891374 11.66706 15.988281 10.625 A 1.0001 1.0001 0 0 0 16.009766 10.603516 C 16.643901 9.96435 17.000198 9.0995969 17 8.1992188 A 1 1 0 0 0 16.998047 8.1953125 A 1 1 0 0 0 17 8.1914062 C 16.998544 8.0290338 16.849304 7.9294852 16.824219 7.7734375 A 1 1 0 0 0 16.705078 7.4902344 C 16.34162 6.1234096 15.280769 5.0132042 13.808594 5 A 1.0001 1.0001 0 0 0 13.800781 5 C 13.135242 5 12.532106 5.2552571 12 5.6171875 C 11.467894 5.2552571 10.864745 5 10.199219 5 A 1.0001 1.0001 0 0 0 10.191406 5 z M 10.203125 7.0019531 C 10.74795 7.0028547 10.939581 7.1124975 11.167969 7.4550781 A 1.0001 1.0001 0 0 0 12.832031 7.4550781 C 13.060419 7.1124975 13.25205 7.0028547 13.796875 7.0019531 C 14.46846 7.0114231 14.989581 7.5332002 14.998047 8.2050781 C 14.996947 8.5767269 14.851687 8.9313843 14.589844 9.1953125 C 13.73476 10.007522 12.873896 10.812517 12.011719 11.617188 C 11.137658 10.779651 10.264773 9.9413445 9.4042969 9.0898438 C 9.1834064 8.8670272 9.0035695 8.4686163 9.0019531 8.203125 C 9.0114167 7.5321984 9.5321984 7.0114167 10.203125 7.0019531 z M 6.5 18 L 19 18 L 19 21 L 6.5 21 C 5.9166683 21 5.6064401 20.817255 5.3730469 20.554688 C 5.1396536 20.292121 5 19.902777 5 19.5 C 5 19.097223 5.1396536 18.70788 5.3730469 18.445312 C 5.6064401 18.182746 5.9166683 18 6.5 18 z "/>
</svg>
