<?xml version="1.0" encoding="UTF-8" standalone="no"?>
<svg xmlns="http://www.w3.org/2000/svg" xmlns:svg="http://www.w3.org/2000/svg" width="24" height="24" viewBox="0 0 24 24" fill="currentColor" tags="diary,romance,novel,journal,entry,entries,personal,private,secret,crush,like,love,emotion,feminine,girls,teens,teenager,therapy,theraputic,therapist,planner,organizer,organiser,notes,notepad,stationery,sketchbook,writing,written,reading,favorite,favourite,high school" categories="social,text,communication,gaming">
  <path d="M 6.5 1 C 4.5788518 1 3 2.5788518 3 4.5 L 3 19.5 C 3 20.34722 3.2770151 21.207882 3.8769531 21.882812 C 4.4768911 22.557744 5.4166691 23 6.5 23 L 20 23 A 1.0001 1.0001 0 0 0 21 22 L 21 17 L 21 2 A 1.0001 1.0001 0 0 0 20 1 L 6.5 1 z M 6.5 3 L 19 3 L 19 16 L 6.5 16 C 5.9545365 16 5.4474593 16.113136 5 16.310547 L 5 4.5 C 5 3.6597299 5.6597299 3 6.5 3 z M 10.199219 5 C 8.4436665 5 7 6.4436667 7 8.1992188 C 7 9.1325502 7.415412 9.9310365 7.9921875 10.507812 C 9.3103158 11.82594 11.310547 13.724609 11.310547 13.724609 A 1.0001 1.0001 0 0 0 12.689453 13.724609 C 12.689453 13.724609 14.689473 11.82465 15.978516 10.634766 A 1.0001 1.0001 0 0 0 16.007812 10.607422 C 16.584585 10.030642 17 9.1849311 17 8.1992188 C 17 6.4436667 15.556333 5 13.800781 5 C 13.135255 5 12.532106 5.2552571 12 5.6171875 C 11.467894 5.2552571 10.864745 5 10.199219 5 z M 10.199219 7 C 10.749217 7 10.938646 7.1110943 11.167969 7.4550781 A 1.0001 1.0001 0 0 0 12.832031 7.4550781 C 13.061354 7.1110943 13.250783 7 13.800781 7 C 14.445225 7 15 7.5547756 15 8.1992188 C 15 8.6125211 14.81821 8.9680878 14.595703 9.1914062 L 14.59375 9.1933594 C 13.562602 10.145945 12.578008 11.080405 12.011719 11.617188 C 11.448095 11.079455 10.423228 10.110728 9.40625 9.09375 C 9.1830271 8.8705271 9 8.4658848 9 8.1992188 C 9 7.5547756 9.5547754 7 10.199219 7 z M 6.5 18 L 19 18 L 19 21 L 6.5 21 C 5.9166683 21 5.6064401 20.817255 5.3730469 20.554688 C 5.1396536 20.292121 5 19.902777 5 19.5 C 5 19.097223 5.1396536 18.70788 5.3730469 18.445312 C 5.6064401 18.182746 5.9166683 18 6.5 18 z "/>
</svg>
