<?xml version="1.0" encoding="UTF-8" standalone="no"?>
<svg xmlns="http://www.w3.org/2000/svg" xmlns:svg="http://www.w3.org/2000/svg" width="24" height="24" viewBox="0 0 24 24" fill="currentColor" tags="audiobook,reading,listening,sound,story,fiction,novel,information,knowledge,education,student,study,learning,research" categories="multimedia,text">
  <path d="M 6.5 1 C 4.5788518 1 3 2.5788518 3 4.5 L 3 19.5 C 3 20.34722 3.2770151 21.207882 3.8769531 21.882812 C 4.4768911 22.557744 5.4166691 23 6.5 23 L 20 23 A 1.0001 1.0001 0 0 0 21 22 L 21 17 L 21 2 A 1.0001 1.0001 0 0 0 20 1 L 6.5 1 z M 6.5 3 L 19 3 L 19 16 L 6.5 16 C 5.9545365 16 5.4474593 16.113136 5 16.310547 L 5 4.5 C 5 3.6597299 5.6597299 3 6.5 3 z M 12 5 C 10.77778 5 9.5421175 5.4020158 8.5859375 6.2519531 C 7.6297575 7.1018906 7 8.4166703 7 10 L 7 12 C 7 13.092723 7.9072773 14 9 14 C 10.092723 14 11 13.092723 11 12 C 11 10.907277 10.092723 10 9 10 C 9 8.9166695 9.3702455 8.2314395 9.9140625 7.7480469 C 10.457879 7.2646542 11.222224 7 12 7 C 12.777776 7 13.54212 7.2646542 14.085938 7.7480469 C 14.629754 8.2314395 15 8.9166695 15 10 C 13.907277 10 13 10.907277 13 12 C 13 13.092723 13.907277 14 15 14 C 16.092723 14 17 13.092723 17 12 L 17 10 C 17 8.4166703 16.370242 7.1018906 15.414062 6.2519531 C 14.457882 5.4020158 13.22222 5 12 5 z M 6.5 18 L 19 18 L 19 21 L 6.5 21 C 5.9166683 21 5.6064401 20.817255 5.3730469 20.554688 C 5.1396536 20.292121 5 19.902777 5 19.5 C 5 19.097223 5.1396536 18.70788 5.3730469 18.445312 C 5.6064401 18.182746 5.9166683 18 6.5 18 z "/>
</svg>
