<?xml version="1.0" encoding="UTF-8" standalone="no"?>
<svg xmlns="http://www.w3.org/2000/svg" xmlns:svg="http://www.w3.org/2000/svg" width="24" height="24" viewBox="0 0 24 24" fill="currentColor" tags="read,clip,marker,tag,cancel,close,delete,remove,clear" categories="account">
  
  <path d="M 7 2 C 5.3549936 2 4 3.3549936 4 5 L 4 21 A 1.0001 1.0001 0 0 0 5.4960938 21.869141 L 12 18.152344 L 18.503906 21.869141 A 1.0001 1.0001 0 0 0 20 21 L 20 5 C 20 3.3549936 18.645006 2 17 2 L 7 2 z M 7 4 L 17 4 C 17.564128 4 18 4.4358718 18 5 L 18 19.275391 L 12.496094 16.130859 A 1.0001 1.0001 0 0 0 11.503906 16.130859 L 6 19.275391 L 6 5 C 6 4.4358718 6.4358718 4 7 4 z M 9.5 6.5 A 1 1 0 0 0 8.7929688 6.7929688 A 1 1 0 0 0 8.7929688 8.2070312 L 10.585938 10 L 8.7929688 11.792969 A 1 1 0 0 0 8.7929688 13.207031 A 1 1 0 0 0 10.207031 13.207031 L 12 11.414062 L 13.792969 13.207031 A 1 1 0 0 0 15.207031 13.207031 A 1 1 0 0 0 15.207031 11.792969 L 13.414062 10 L 15.207031 8.2070312 A 1 1 0 0 0 15.207031 6.7929688 A 1 1 0 0 0 14.5 6.5 A 1 1 0 0 0 13.792969 6.7929688 L 12 8.5859375 L 10.207031 6.7929688 A 1 1 0 0 0 9.5 6.5 z "/>
</svg>
