<svg xmlns="http://www.w3.org/2000/svg" xmlns:svg="http://www.w3.org/2000/svg" width="24" height="24" viewBox="0 0 24 24" fill="currentColor" tags="reading,library,study,education,research,knowledge,discover,browsing,lookup,finding,scanning" categories="text,development,gaming">
  <path d="M 5.5 1 C 3.578848 1 2 2.578848 2 4.5 L 2 19.5 C 2 20.347222 2.2770139 21.207881 2.8769531 21.882812 C 3.4768923 22.557744 4.4166669 23 5.5 23 L 11 23 A 1 1 0 0 0 12 22 A 1 1 0 0 0 11 21 L 5.5 21 C 4.9166671 21 4.6064406 20.817256 4.3730469 20.554688 C 4.1396531 20.292119 4 19.902778 4 19.5 C 4 19.097222 4.1396531 18.707881 4.3730469 18.445312 C 4.6064406 18.182744 4.9166671 18 5.5 18 L 10.001953 18 A 1 1 0 0 0 11.001953 17 A 1 1 0 0 0 10.001953 16 L 5.5 16 C 4.9554107 16 4.4470994 16.111697 4 16.308594 L 4 4.5 C 4 3.6597282 4.6597282 3 5.5 3 L 18 3 L 18 11 A 1 1 0 0 0 19 12 A 1 1 0 0 0 20 11 L 20 3 C 20 1.9072751 19.092725 1 18 1 L 5.5 1 z M 17 14 C 14.802706 14 13 15.802706 13 18 C 13 20.197294 14.802706 22 17 22 C 17.738192 22 18.431615 21.796894 19.027344 21.443359 L 20.292969 22.707031 A 1 1 0 0 0 21.707031 22.707031 A 1 1 0 0 0 21.707031 21.292969 L 20.443359 20.029297 C 20.79721 19.433375 21 18.738549 21 18 C 21 15.802706 19.197294 14 17 14 z M 17 16 C 18.116414 16 19 16.883586 19 18 C 19 18.52826 18.801328 19.004316 18.474609 19.359375 A 1 1 0 0 0 18.414062 19.416016 A 1 1 0 0 0 18.359375 19.476562 C 18.004388 19.802906 17.52792 20 17 20 C 15.883586 20 15 19.116414 15 18 C 15 16.883586 15.883586 16 17 16 z "/>
</svg>
