<?xml version="1.0" encoding="UTF-8" standalone="no"?>
<svg xmlns="http://www.w3.org/2000/svg" xmlns:svg="http://www.w3.org/2000/svg" width="24" height="24" viewBox="0 0 24 24" fill="currentColor" tags="code,coding,version control,git,repository,template,draft,script,screenplay,writing,writer,author,unwritten,unpublished,untold" categories="development">
  <path d="M 6.5 1 C 4.5788518 1 3 2.5788518 3 4.5 L 3 5 A 1 1 0 0 0 4 6 A 1 1 0 0 0 5 5 L 5 4.5 C 5 3.6597299 5.6597299 3 6.5 3 L 8 3 A 1 1 0 0 0 9 2 A 1 1 0 0 0 8 1 L 6.5 1 z M 12 1 A 1 1 0 0 0 11 2 A 1 1 0 0 0 12 3 L 14 3 A 1 1 0 0 0 15 2 A 1 1 0 0 0 14 1 L 12 1 z M 18 1 A 1 1 0 0 0 17 2 A 1 1 0 0 0 18 3 L 19 3 L 19 4 A 1 1 0 0 0 20 5 A 1 1 0 0 0 21 4 L 21 3 C 21 1.9072773 20.092723 1 19 1 L 18 1 z M 20 7 A 1 1 0 0 0 19 8 L 19 11 A 1 1 0 0 0 20 12 A 1 1 0 0 0 21 11 L 21 8 A 1 1 0 0 0 20 7 z M 4 8 A 1 1 0 0 0 3 9 L 3 11 A 1 1 0 0 0 4 12 A 1 1 0 0 0 5 11 L 5 9 A 1 1 0 0 0 4 8 z M 4 14 A 1 1 0 0 0 3 15 L 3 19.5 C 3 20.34722 3.2770151 21.207882 3.8769531 21.882812 C 4.4768911 22.557744 5.4166691 23 6.5 23 L 8 23 A 1 1 0 0 0 9 22 A 1 1 0 0 0 8 21 L 6.5 21 C 5.9166683 21 5.6064401 20.817255 5.3730469 20.554688 C 5.1396536 20.292121 5 19.902777 5 19.5 C 5 19.097223 5.1396536 18.70788 5.3730469 18.445312 C 5.6064401 18.182746 5.9166683 18 6.5 18 L 8 18 A 1 1 0 0 0 9 17 A 1 1 0 0 0 8 16 L 6.5 16 C 5.9550805 16 5.4472966 16.111474 5 16.308594 L 5 15 A 1 1 0 0 0 4 14 z M 20 14 A 1 1 0 0 0 19 15 L 19 16 L 18 16 A 1 1 0 0 0 17 17 A 1 1 0 0 0 18 18 L 20 18 A 1.0001 1.0001 0 0 0 21 17 L 21 15 A 1 1 0 0 0 20 14 z M 12 16 A 1 1 0 0 0 11 17 A 1 1 0 0 0 12 18 L 14 18 A 1 1 0 0 0 15 17 A 1 1 0 0 0 14 16 L 12 16 z M 20 20 A 1 1 0 0 0 19 21 L 18 21 A 1 1 0 0 0 17 22 A 1 1 0 0 0 18 23 L 19 23 C 20.092723 23 21 22.092723 21 21 A 1 1 0 0 0 20 20 z M 12 21 A 1 1 0 0 0 11 22 A 1 1 0 0 0 12 23 L 14 23 A 1 1 0 0 0 15 22 A 1 1 0 0 0 14 21 L 12 21 z "/>
</svg>
