<?xml version="1.0" encoding="UTF-8" standalone="no"?>
<svg xmlns="http://www.w3.org/2000/svg" xmlns:svg="http://www.w3.org/2000/svg" width="24" height="24" viewBox="0 0 24 24" fill="currentColor" tags="code,coding,version control,git,repository,private,secret,hidden,knowledge" categories="development,security,gaming">
  <path d="M 6.5 1 C 4.5788518 1 3 2.5788518 3 4.5 L 3 19.5 C 3 20.34722 3.2770151 21.207882 3.8769531 21.882812 C 4.4768911 22.557744 5.4166691 23 6.5 23 L 20 23 A 1.0001 1.0001 0 0 0 21 22 L 21 17 L 21 15 A 1 1 0 0 0 20 14 A 1 1 0 0 0 19 15 L 19 16 L 6.5 16 C 5.9550557 16 5.4473114 16.111457 5 16.308594 L 5 4.5 C 5 3.6597299 5.6597299 3 6.5 3 L 10 3 A 1 1 0 0 0 11 2 A 1 1 0 0 0 10 1 L 6.5 1 z M 16 1 C 15.27778 1 14.542118 1.2353482 13.960938 1.7519531 C 13.379756 2.268558 13 3.0833353 13 4 L 13 5 C 11.909299 5 11 5.9092994 11 7 L 11 10 C 11 11.090701 11.909299 12 13 12 L 19 12 C 20.090701 12 21 11.090701 21 10 L 21 7 C 21 5.9092994 20.090701 5 19 5 L 19 4 C 19 3.0833353 18.620244 2.268558 18.039062 1.7519531 C 17.457882 1.2353482 16.72222 1 16 1 z M 16 3 C 16.277778 3 16.542121 3.0979867 16.710938 3.2480469 C 16.879755 3.398107 17 3.5833345 17 4 L 17 5 L 15 5 L 15 4 C 15 3.5833345 15.120245 3.398107 15.289062 3.2480469 C 15.457879 3.0979867 15.722222 3 16 3 z M 13 7 L 14 7 L 18 7 L 19 7 L 19 10 L 13 10 L 13 7 z M 6.5 18 L 19 18 L 19 21 L 6.5 21 C 5.9166683 21 5.6064401 20.817255 5.3730469 20.554688 C 5.1396536 20.292121 5 19.902777 5 19.5 C 5 19.097223 5.1396536 18.70788 5.3730469 18.445312 C 5.6064401 18.182746 5.9166683 18 6.5 18 z "/>
</svg>
