<svg xmlns="http://www.w3.org/2000/svg" xmlns:svg="http://www.w3.org/2000/svg" width="24" height="24" viewBox="0 0 24 24" fill="currentColor" tags="add" categories="account">
  <path d="M 7 2 C 5.3549904 2 4 3.3549904 4 5 L 4 20 C 4.0004798 21.48765 5.7004271 22.474203 6.9921875 21.736328 L 11.503906 19.158203 C 11.8126 18.981872 12.1874 18.981872 12.496094 19.158203 L 17.007812 21.736328 C 18.299573 22.474203 19.99952 21.48765 20 20 L 20 5 C 20 3.3549904 18.64501 2 17 2 L 7 2 z M 7 4 L 17 4 C 17.564129 4 18 4.4358706 18 5 L 18 20 L 13.488281 17.421875 C 12.567529 16.895926 11.432471 16.895926 10.511719 17.421875 L 6 20 L 6 5 C 6 4.4358706 6.4358706 4 7 4 z M 12 6 A 1 1 0 0 0 11 7 L 11 9 L 9 9 A 1 1 0 0 0 8 10 A 1 1 0 0 0 9 11 L 11 11 L 11 13 A 1 1 0 0 0 12 14 A 1 1 0 0 0 13 13 L 13 11 L 15 11 A 1 1 0 0 0 16 10 A 1 1 0 0 0 15 9 L 13 9 L 13 7 A 1 1 0 0 0 12 6 z "/>
</svg>
