<svg xmlns="http://www.w3.org/2000/svg" xmlns:svg="http://www.w3.org/2000/svg" width="24" height="24" viewBox="0 0 24 24" fill="currentColor" tags="diary,romance,novel,journal,entry,entries,personal,private,secret,crush,like,love,emotion,feminine,girls,teens,teenager,therapy,theraputic,therapist,planner,organizer,organiser,notes,notepad,stationery,sketchbook,writing,written,reading,favorite,favourite,high school" categories="social,text,gaming">
  <path d="M 6.5 1 C 4.578848 1 3 2.578848 3 4.5 L 3 19.5 C 3 20.347222 3.2770139 21.207881 3.8769531 21.882812 C 4.4768923 22.557744 5.4166669 23 6.5 23 L 19 23 C 20.092725 23 21 22.092725 21 21 L 21 17 L 21 3 C 21 1.9072751 20.092725 1 19 1 L 6.5 1 z M 6.5 3 L 19 3 L 19 16 L 6.5 16 C 5.9545355 16 5.4474602 16.113135 5 16.310547 L 5 4.5 C 5 3.6597282 5.6597282 3 6.5 3 z M 10.363281 4.9472656 C 9.4990122 4.9266954 8.7066484 5.2682143 8.1015625 5.7988281 C 7.4964766 6.3294419 7.0553581 7.0701329 6.9628906 7.9296875 C 6.8704232 8.7892421 7.1801281 9.7432784 7.8984375 10.492188 L 10.492188 13.314453 L 10.494141 13.316406 C 11.278689 14.217163 12.723265 14.217165 13.507812 13.316406 L 16.105469 10.490234 L 16.107422 10.486328 C 16.814057 9.7374531 17.119334 8.7897391 17.025391 7.9355469 C 16.931307 7.0800747 16.491164 6.3411962 15.888672 5.8125 C 15.286179 5.2838038 14.497164 4.9450317 13.636719 4.9628906 C 13.073913 4.9745716 12.520353 5.2211713 12.003906 5.5722656 C 11.48603 5.2143115 10.930019 4.9607544 10.363281 4.9472656 z M 10.316406 6.9472656 C 10.609016 6.9542256 10.88695 7.0466546 11.21875 7.4609375 A 1.0001 1.0001 0 0 0 12.775391 7.4667969 C 13.107083 7.0589347 13.387678 6.9669983 13.679688 6.9609375 C 13.971697 6.9548775 14.30587 7.0843541 14.570312 7.3164062 C 14.834755 7.5484585 15.00518 7.8639752 15.037109 8.1542969 C 15.069039 8.4446186 15.015609 8.7333632 14.654297 9.1152344 A 1.0001 1.0001 0 0 0 14.644531 9.125 L 12.017578 11.980469 A 1.0001 1.0001 0 0 0 12 12 A 1.0001 1.0001 0 0 0 11.982422 11.980469 L 9.3554688 9.1230469 A 1.0001 1.0001 0 0 0 9.3417969 9.1074219 C 8.9743895 8.7243634 8.9198658 8.435545 8.9511719 8.1445312 C 8.982478 7.8535173 9.1537022 7.5361885 9.4199219 7.3027344 C 9.6861415 7.0692802 10.023796 6.9403013 10.316406 6.9472656 z M 6.5 18 L 19 18 L 19 21 L 6.5 21 C 5.9166671 21 5.6064406 20.817256 5.3730469 20.554688 C 5.1396531 20.292119 5 19.902778 5 19.5 C 5 19.097222 5.1396531 18.707881 5.3730469 18.445312 C 5.6064406 18.182744 5.9166671 18 6.5 18 z "/>
</svg>
