<svg xmlns="http://www.w3.org/2000/svg" xmlns:svg="http://www.w3.org/2000/svg" width="24" height="24" viewBox="0 0 24 24" fill="currentColor" tags="code,coding,version control,git,repository,pull" categories="development">
  <path d="M 6.5 1 C 4.578848 1 3 2.578848 3 4.5 L 3 19.5 C 3 20.347222 3.2770139 21.207881 3.8769531 21.882812 C 4.4768923 22.557744 5.4166669 23 6.5 23 L 19 23 C 20.092725 23 21 22.092725 21 21 L 21 17 L 21 3 C 21 1.9072751 20.092725 1 19 1 L 6.5 1 z M 6.5 3 L 19 3 L 19 16 L 6.5 16 C 5.9545355 16 5.4474602 16.113135 5 16.310547 L 5 4.5 C 5 3.6597282 5.6597282 3 6.5 3 z M 12 6 A 1 1 0 0 0 11 7 L 11 10.585938 L 9.7070312 9.2929688 A 1 1 0 0 0 9 9 A 1 1 0 0 0 8.2929688 9.2929688 A 1 1 0 0 0 8.2929688 10.707031 L 11.283203 13.697266 L 11.292969 13.707031 A 1.0001 1.0001 0 0 0 11.341797 13.75 A 1 1 0 0 0 11.384766 13.787109 A 1.0001 1.0001 0 0 0 11.439453 13.824219 A 1 1 0 0 0 11.492188 13.861328 A 1.0001 1.0001 0 0 0 11.5 13.865234 A 1 1 0 0 0 11.611328 13.921875 A 1.0001 1.0001 0 0 0 11.617188 13.923828 A 1 1 0 0 0 11.742188 13.964844 A 1 1 0 0 0 11.794922 13.976562 A 1.0001 1.0001 0 0 0 12 14 A 1.0001 1.0001 0 0 0 12.205078 13.976562 A 1.0001 1.0001 0 0 0 12.257812 13.964844 A 1 1 0 0 0 12.382812 13.923828 A 1.0001 1.0001 0 0 0 12.560547 13.824219 A 1 1 0 0 0 12.615234 13.787109 A 1.0001 1.0001 0 0 0 12.658203 13.75 A 1 1 0 0 0 12.716797 13.697266 L 15.707031 10.707031 A 1 1 0 0 0 15.707031 9.2929688 A 1 1 0 0 0 14.292969 9.2929688 L 13 10.585938 L 13 7 A 1 1 0 0 0 12 6 z M 6.5 18 L 19 18 L 19 21 L 6.5 21 C 5.9166671 21 5.6064406 20.817256 5.3730469 20.554688 C 5.1396531 20.292119 5 19.902778 5 19.5 C 5 19.097222 5.1396531 18.707881 5.3730469 18.445312 C 5.6064406 18.182744 5.9166671 18 6.5 18 z "/>
</svg>
