<svg xmlns="http://www.w3.org/2000/svg" xmlns:svg="http://www.w3.org/2000/svg" width="24" height="24" viewBox="0 0 24 24" fill="currentColor" tags="code,coding,version control,git,repository,push,force" categories="development">
  <path d="M 6.5 1 C 4.578848 1 3 2.578848 3 4.5 L 3 19.5 C 3 20.347222 3.2770139 21.207881 3.8769531 21.882812 C 4.4768923 22.557744 5.4166669 23 6.5 23 L 19 23 C 20.092725 23 21 22.092725 21 21 L 21 17 L 21 3 C 21 1.9072751 20.092725 1 19 1 L 18 1 A 1 1 0 0 0 17 2 A 1 1 0 0 0 18 3 L 19 3 L 19 16 L 6.5 16 C 5.9554107 16 5.4470994 16.111697 5 16.308594 L 5 4.5 C 5 3.6597282 5.6597282 3 6.5 3 A 1 1 0 0 0 7.5 2 A 1 1 0 0 0 6.5 1 z M 12 1 A 1.0001 1.0001 0 0 0 11.292969 1.2929688 L 8.2929688 4.2929688 A 1 1 0 0 0 8.2929688 5.7070312 A 1 1 0 0 0 9.7070312 5.7070312 L 12 3.4140625 L 14.292969 5.7070312 A 1 1 0 0 0 15.707031 5.7070312 A 1 1 0 0 0 15.707031 4.2929688 L 12.707031 1.2929688 A 1.0001 1.0001 0 0 0 12 1 z M 12 6 A 1.0001 1.0001 0 0 0 11.794922 6.0234375 A 1 1 0 0 0 11.611328 6.078125 A 1.0001 1.0001 0 0 0 11.5 6.1347656 A 1 1 0 0 0 11.439453 6.1757812 A 1.0001 1.0001 0 0 0 11.384766 6.2128906 A 1 1 0 0 0 11.341797 6.25 A 1.0001 1.0001 0 0 0 11.292969 6.2929688 A 1 1 0 0 0 11.283203 6.3027344 L 8.2929688 9.2929688 A 1 1 0 0 0 8.2929688 10.707031 A 1 1 0 0 0 9.7070312 10.707031 L 11 9.4140625 L 11 13 A 1 1 0 0 0 12 14 A 1 1 0 0 0 13 13 L 13 9.4140625 L 14.292969 10.707031 A 1 1 0 0 0 15.707031 10.707031 A 1 1 0 0 0 15.707031 9.2929688 L 12.716797 6.3027344 A 1 1 0 0 0 12.658203 6.25 A 1.0001 1.0001 0 0 0 12.615234 6.2128906 A 1 1 0 0 0 12.560547 6.1757812 A 1.0001 1.0001 0 0 0 12.382812 6.0761719 A 1 1 0 0 0 12.257812 6.0351562 A 1.0001 1.0001 0 0 0 12 6 z M 6.5 18 L 19 18 L 19 21 L 6.5 21 C 5.9166671 21 5.6064406 20.817256 5.3730469 20.554688 C 5.1396531 20.292119 5 19.902778 5 19.5 C 5 19.097222 5.1396531 18.707881 5.3730469 18.445312 C 5.6064406 18.182744 5.9166671 18 6.5 18 z "/>
</svg>
