<?xml version="1.0" encoding="UTF-8" standalone="no"?>
<svg xmlns="http://www.w3.org/2000/svg" xmlns:svg="http://www.w3.org/2000/svg" width="24" height="24" viewBox="0 0 24 24" fill="currentColor" tags="code,coding,version control,git,repository,template,draft,script,screenplay,writing,writer,author,unwritten,unpublished,untold" categories="development">
  <path d="M 6.5 1 C 4.578848 1 3 2.578848 3 4.5 A 1 1 0 0 0 4 5.5 A 1 1 0 0 0 5 4.5 C 5 3.6597282 5.6597282 3 6.5 3 L 8 3 A 1 1 0 0 0 9 2 A 1 1 0 0 0 8 1 L 6.5 1 z M 12 1 A 1 1 0 0 0 11 2 A 1 1 0 0 0 12 3 L 13.5 3 A 1 1 0 0 0 14.5 2 A 1 1 0 0 0 13.5 1 L 12 1 z M 17.5 1 A 1 1 0 0 0 16.5 2 A 1 1 0 0 0 17.5 3 L 19 3 L 19 4.5 A 1 1 0 0 0 20 5.5 A 1 1 0 0 0 21 4.5 L 21 3 C 21 1.9072751 20.092725 1 19 1 L 17.5 1 z M 4 7.5 A 1 1 0 0 0 3 8.5 L 3 10 A 1 1 0 0 0 4 11 A 1 1 0 0 0 5 10 L 5 8.5 A 1 1 0 0 0 4 7.5 z M 20 7.5 A 1 1 0 0 0 19 8.5 L 19 10 A 1 1 0 0 0 20 11 A 1 1 0 0 0 21 10 L 21 8.5 A 1 1 0 0 0 20 7.5 z M 4 13 A 1 1 0 0 0 3 14 L 3 19.5 C 3 20.347222 3.2770139 21.207881 3.8769531 21.882812 C 4.4768923 22.557744 5.4166669 23 6.5 23 L 8 23 A 1 1 0 0 0 9 22 A 1 1 0 0 0 8 21 L 6.5 21 C 5.9166671 21 5.6064406 20.817256 5.3730469 20.554688 C 5.1396531 20.292119 5 19.902778 5 19.5 C 5 19.097222 5.1396531 18.707881 5.3730469 18.445312 C 5.6064406 18.182744 5.9166671 18 6.5 18 L 8 18 A 1 1 0 0 0 9 17 A 1 1 0 0 0 8 16 L 6.5 16 C 5.9550794 16 5.4472969 16.111474 5 16.308594 L 5 14 A 1 1 0 0 0 4 13 z M 20 13 A 1 1 0 0 0 19 14 L 19 16 L 17.5 16 A 1 1 0 0 0 16.5 17 A 1 1 0 0 0 17.5 18 L 20 18 A 1.0001 1.0001 0 0 0 21 17 L 21 14 A 1 1 0 0 0 20 13 z M 12 16 A 1 1 0 0 0 11 17 A 1 1 0 0 0 12 18 L 13.5 18 A 1 1 0 0 0 14.5 17 A 1 1 0 0 0 13.5 16 L 12 16 z M 20 20 A 1 1 0 0 0 19 21 L 17.5 21 A 1 1 0 0 0 16.5 22 A 1 1 0 0 0 17.5 23 L 19 23 C 20.092725 23 21 22.092725 21 21 A 1 1 0 0 0 20 20 z M 12 21 A 1 1 0 0 0 11 22 A 1 1 0 0 0 12 23 L 13.5 23 A 1 1 0 0 0 14.5 22 A 1 1 0 0 0 13.5 21 L 12 21 z "/>
</svg>
