<?xml version="1.0" encoding="UTF-8" standalone="no"?>
<svg xmlns="http://www.w3.org/2000/svg" xmlns:svg="http://www.w3.org/2000/svg" width="24" height="24" viewBox="0 0 24 24" fill="currentColor" tags="code,coding,version control,git,repository,clone,fork,duplicate,multiple,books,library,copies,copied,plagiarism,plagiarised,plagiarized,reading list,information,informed,knowledge,knowledgeable,knowledgable,education,high school,university,college,academy,student,study,learning,research,smart,intelligent,intellectual" categories="development,text,gaming">
  <path d="M 4 1 C 2.3549904 1 1 2.3549904 1 4 L 1 16 C 1 16.722222 1.2353472 17.457881 1.7519531 18.039062 C 2.268559 18.620244 3.0833335 19 4 19 L 5 19 A 1 1 0 0 0 6 18 A 1 1 0 0 0 5 17 L 4 17 C 3.5833337 17 3.3981073 16.879756 3.2480469 16.710938 C 3.0979864 16.542119 3 16.277778 3 16 C 3 15.722222 3.0979864 15.45788 3.2480469 15.289062 C 3.3981073 15.120243 3.5833337 15 4 15 L 5 15 A 1 1 0 0 0 6 14 A 1 1 0 0 0 5 13 L 4 13 C 3.6480323 13 3.3108133 13.056324 3 13.158203 L 3 4 C 3 3.4358706 3.4358706 3 4 3 L 15 3 A 1 1 0 0 0 16 2 A 1 1 0 0 0 15 1 L 4 1 z M 11 5 C 9.3549904 5 8 6.3549904 8 8 L 8 20 C 8 20.722222 8.2353472 21.457881 8.7519531 22.039062 C 9.268559 22.620244 10.083334 23 11 23 L 21.5 23 C 22.316582 23 23 22.316582 23 21.5 L 23 18 L 23 6.5 C 23 5.6834175 22.316582 5 21.5 5 L 11 5 z M 11 7 L 21 7 L 21 17 L 11 17 C 10.640113 17 10.316479 17.09886 10 17.205078 L 10 8 C 10 7.4358706 10.435871 7 11 7 z M 11 19 L 21 19 L 21 21 L 11 21 C 10.583334 21 10.398107 20.879756 10.248047 20.710938 C 10.097986 20.542119 10 20.277778 10 20 C 10 19.722222 10.097986 19.457881 10.248047 19.289062 C 10.398107 19.120244 10.583334 19 11 19 z "/>
</svg>
