<?xml version="1.0" encoding="UTF-8" standalone="no"?>
<svg xmlns="http://www.w3.org/2000/svg" xmlns:svg="http://www.w3.org/2000/svg" width="24" height="24" viewBox="0 0 24 24" fill="currentColor" tags="radio,speakers,audio,music,sound,broadcast,live,frequency" categories="devices,multimedia,social">
  <path d="M 6 2 C 4.3549904 2 3 3.3549904 3 5 L 3 8.1777344 C 1.8410536 8.5942467 1 9.7058707 1 11 L 1 19 C 1 20.644703 2.3552972 22 4 22 L 20 22 C 21.644703 22 23 20.644703 23 19 L 23 11 C 23 9.7058707 22.158946 8.5942467 21 8.1777344 L 21 5 C 21 3.3549904 19.64501 2 18 2 L 6 2 z M 6 4 L 18 4 C 18.564129 4 19 4.4358706 19 5 L 19 8 L 17 8 A 1 1 0 0 0 16 7 A 1 1 0 0 0 15 8 L 13 8 A 1 1 0 0 0 12 7 A 1 1 0 0 0 11 8 L 9 8 A 1 1 0 0 0 8 7 A 1 1 0 0 0 7 8 L 5 8 L 5 5 C 5 4.4358706 5.4358706 4 6 4 z M 4 10 L 20 10 C 20.571297 10 21 10.428703 21 11 L 21 19 C 21 19.571297 20.571297 20 20 20 L 4 20 C 3.4287028 20 3 19.571297 3 19 L 3 11 C 3 10.428703 3.4287028 10 4 10 z M 8 12 C 6.3549904 12 5 13.35499 5 15 C 5 16.64501 6.3549904 18 8 18 C 9.6450096 18 11 16.64501 11 15 C 11 13.35499 9.6450096 12 8 12 z M 16 12 C 14.35499 12 13 13.35499 13 15 C 13 16.64501 14.35499 18 16 18 C 17.64501 18 19 16.64501 19 15 C 19 13.35499 17.64501 12 16 12 z M 8 14 C 8.5641294 14 9 14.435871 9 15 C 9 15.564129 8.5641294 16 8 16 C 7.4358706 16 7 15.564129 7 15 C 7 14.435871 7.4358706 14 8 14 z M 16 14 C 16.564129 14 17 14.435871 17 15 C 17 15.564129 16.564129 16 16 16 C 15.435871 16 15 15.564129 15 15 C 15 14.435871 15.435871 14 16 14 z "/>
</svg>
