<svg xmlns="http://www.w3.org/2000/svg" xmlns:svg="http://www.w3.org/2000/svg" width="24" height="24" viewBox="0 0 24 24" fill="currentColor" tags="robot,ai,chat,assistant" categories="development,social">
  <path d="M 8 1 A 1 1 0 0 0 7 2 A 1 1 0 0 0 8 3 L 11 3 L 11 5 L 6 5 C 4.3549904 5 3 6.3549904 3 8 L 3 11 L 2 11 A 1 1 0 0 0 1 12 A 1 1 0 0 0 2 13 L 3 13 L 3 20.285156 C 3.0000928 21.00437 3.471188 21.623554 4.0546875 21.865234 C 4.638187 22.106915 5.4113146 22.004608 5.9199219 21.496094 A 1.0001 1.0001 0 0 0 5.9199219 21.494141 L 8.1210938 19.292969 C 8.308858 19.105148 8.5625462 19.000057 8.828125 19 L 18 19 C 19.64501 19 21 17.64501 21 16 L 21 13 L 22 13 A 1 1 0 0 0 23 12 A 1 1 0 0 0 22 11 L 21 11 L 21 8 C 21 6.3549904 19.64501 5 18 5 L 13 5 L 13 2 A 1.0001 1.0001 0 0 0 12 1 L 8 1 z M 6 7 L 18 7 C 18.564129 7 19 7.4358706 19 8 L 19 16 C 19 16.564129 18.564129 17 18 17 L 8.828125 17 C 8.0329246 17.00017 7.269238 17.31653 6.7070312 17.878906 L 5 19.585938 L 5 8 C 5 7.4358706 5.4358706 7 6 7 z M 9 10 A 1 1 0 0 0 8 11 L 8 13 A 1 1 0 0 0 9 14 A 1 1 0 0 0 10 13 L 10 11 A 1 1 0 0 0 9 10 z M 15 10 A 1 1 0 0 0 14 11 L 14 13 A 1 1 0 0 0 15 14 A 1 1 0 0 0 16 13 L 16 11 A 1 1 0 0 0 15 10 z "/>
</svg>
