<?xml version="1.0" encoding="UTF-8" standalone="no"?>
<svg xmlns="http://www.w3.org/2000/svg" xmlns:svg="http://www.w3.org/2000/svg" width="24" height="24" viewBox="0 0 24 24" fill="currentColor" tags="robot,ai,chat,assistant" categories="development,social">
  <path d="M 2 1 A 1 1 0 0 0 1.2929688 1.2929688 A 1 1 0 0 0 1.2929688 2.7070312 L 5.6113281 7.0253906 C 4.1468398 7.2185366 3 8.4865617 3 10 L 3 13 L 2 13 A 1 1 0 0 0 1 14 A 1 1 0 0 0 2 15 L 3 15 L 3 18 C 3 19.64501 4.3549904 21 6 21 L 18 21 C 18.451445 20.999903 18.892936 20.898102 19.292969 20.707031 L 21.292969 22.707031 A 1 1 0 0 0 22.707031 22.707031 A 1 1 0 0 0 22.707031 21.292969 L 8.7167969 7.3027344 A 1 1 0 0 0 8.6972656 7.2832031 L 2.7070312 1.2929688 A 1 1 0 0 0 2 1 z M 9.6699219 3 A 1 1 0 0 0 8.6699219 4 A 1 1 0 0 0 9.6699219 5 L 11 5 L 11 6.3300781 A 1 1 0 0 0 12 7.3300781 A 1 1 0 0 0 13 6.3300781 L 13 4 A 1.0001 1.0001 0 0 0 12 3 L 9.6699219 3 z M 13.669922 7 A 1 1 0 0 0 12.669922 8 A 1 1 0 0 0 13.669922 9 L 18 9 C 18.564129 9 19 9.4358706 19 10 L 19 14.330078 A 1 1 0 0 0 20 15.330078 A 1 1 0 0 0 20.742188 15 L 22 15 A 1 1 0 0 0 23 14 A 1 1 0 0 0 22 13 L 21 13 L 21 10 C 21 8.3549904 19.64501 7 18 7 L 13.669922 7 z M 6 9 L 7.5859375 9 L 17.585938 19 L 6 19 C 5.4358706 19 5 18.564129 5 18 L 5 10 C 5 9.4358706 5.4358706 9 6 9 z M 9 12 A 1 1 0 0 0 8 13 L 8 15 A 1 1 0 0 0 9 16 A 1 1 0 0 0 10 15 L 10 13 A 1 1 0 0 0 9 12 z "/>
</svg>
