<svg xmlns="http://www.w3.org/2000/svg" xmlns:svg="http://www.w3.org/2000/svg" width="24" height="24" viewBox="0 0 24 24" fill="currentColor" tags="alcohol,drink,glass,goblet,chalice,vineyard,winery,red,white,rose,dry,sparkling,bar,party,nightclub,nightlife,sommelier,restaurant,dinner,meal" categories="food-beverage">
  <path d="M 11 1 C 9.9072751 1 9 1.9072751 9 3 L 9 5 C 9 6.0819935 8.6491961 7.1344052 8 8 L 7.4003906 8.8007812 C 6.4917212 10.01234 6 11.485551 6 13 L 6 21 C 6 22.092725 6.9072751 23 8 23 L 16 23 C 17.092725 23 18 22.092725 18 21 L 18 18 L 18 13 C 18 11.485551 17.508279 10.01234 16.599609 8.8007812 L 16 8 C 15.350804 7.1344052 15 6.0819935 15 5 L 15 3 C 15 1.9072751 14.092725 1 13 1 L 11 1 z M 11 3 L 13 3 L 13 5 C 13 6.514449 13.491721 7.9876594 14.400391 9.1992188 L 15 10 C 15.446509 10.595345 15.751291 11.279064 15.898438 12 L 13 12 C 11.907275 12 11 12.907275 11 14 L 11 17 C 11 18.092725 11.907275 19 13 19 L 16 19 L 16 21 L 8 21 L 8 13 C 8 11.918006 8.3508039 10.865595 9 10 L 9.5996094 9.1992188 C 10.508279 7.9876594 11 6.514449 11 5 L 11 3 z M 13 14 L 16 14 L 16 17 L 13 17 L 13 14 z "/>
</svg>
