<?xml version="1.0" encoding="UTF-8" standalone="no"?>
<svg xmlns="http://www.w3.org/2000/svg" xmlns:svg="http://www.w3.org/2000/svg" width="24" height="24" viewBox="0 0 24 24" fill="currentColor" tags="archer,archery,game,war,weapon" categories="gaming,tools">
  <path d="M 17 2 A 1 1 0 0 0 16 3 A 1 1 0 0 0 17 4 L 18.585938 4 L 9.5175781 13.068359 C 9.3523705 13.023231 9.1782026 13 9 13 L 7.0019531 13 L 7 13 C 6.2817997 12.9993 5.5909836 13.286163 5.0839844 13.794922 L 2.4394531 16.439453 C 1.997903 16.881617 1.9024507 17.562211 2.1132812 18.072266 C 2.3244229 18.583073 2.8739703 18.999867 3.5 19 L 5 19 L 5 20.5 C 4.9997484 21.125767 5.4153455 21.675133 5.9257812 21.886719 C 6.4362525 22.098319 7.1180121 22.003056 7.5605469 21.560547 L 10.205078 18.916016 L 10.207031 18.914062 C 10.715012 18.406842 11.001199 17.716037 11 16.998047 L 11 15 C 11 14.821798 10.976768 14.647629 10.931641 14.482422 L 20 5.4140625 L 20 7 A 1 1 0 0 0 21 8 A 1 1 0 0 0 22 7 L 22 3 A 1.0001 1.0001 0 0 0 21.992188 2.8691406 A 1.0001 1.0001 0 0 0 21.923828 2.6171875 A 1.0001 1.0001 0 0 0 21.707031 2.2929688 A 1 1 0 0 0 21.382812 2.0761719 A 1.0001 1.0001 0 0 0 21.130859 2.0078125 A 1.0001 1.0001 0 0 0 21 2 L 17 2 z M 7.375 3.0078125 C 6.1304043 2.9738084 4.8772991 3.1060903 3.6503906 3.4082031 C 2.1097567 3.7862529 1.4900917 5.7606325 2.5390625 6.9511719 A 1.0001 1.0001 0 0 0 2.5820312 6.9980469 L 6.2929688 10.707031 A 1 1 0 0 0 7.7070312 10.707031 A 1 1 0 0 0 7.7070312 9.2929688 L 4.0410156 5.625 C 3.9328385 5.4985124 3.9625106 5.3917658 4.1269531 5.3515625 A 1.0001 1.0001 0 0 0 4.1289062 5.3515625 C 6.933701 4.6609124 9.893357 5.0045134 12.464844 6.3203125 A 1 1 0 0 0 13.810547 5.8847656 A 1 1 0 0 0 13.375 4.5390625 C 11.875197 3.7716313 10.262468 3.2891951 8.6152344 3.0976562 C 8.2034259 3.0497715 7.7898652 3.0191472 7.375 3.0078125 z M 18.625 10.083984 A 1 1 0 0 0 18.119141 10.191406 A 1 1 0 0 0 17.685547 11.537109 C 19.000047 14.108037 19.34287 17.065437 18.652344 19.869141 A 1.0001 1.0001 0 0 0 18.652344 19.871094 C 18.611994 20.036399 18.503603 20.068315 18.376953 19.958984 L 14.707031 16.292969 A 1 1 0 0 0 13.292969 16.292969 A 1 1 0 0 0 13.292969 17.707031 L 17.001953 21.414062 A 1.0001 1.0001 0 0 0 17.044922 21.453125 C 18.233861 22.510103 20.215323 21.892425 20.59375 20.347656 L 20.59375 20.345703 C 21.398609 17.075789 20.997891 13.625319 19.464844 10.626953 A 1 1 0 0 0 18.625 10.083984 z M 6.9980469 15 A 1.0001 1.0001 0 0 0 7 15 L 9 15 L 9 17 A 1.0001 1.0001 0 0 0 9 17.001953 C 9.000312 17.188822 8.927287 17.366139 8.7949219 17.498047 A 1.0001 1.0001 0 0 0 8.7929688 17.5 L 7 19.292969 L 7 19 C 7 17.907275 6.0927249 17 5 17 L 4.7070312 17 L 6.5 15.207031 A 1.0001 1.0001 0 0 0 6.5019531 15.205078 C 6.6338637 15.07276 6.8111778 14.999688 6.9980469 15 z "/>
</svg>
