<svg xmlns="http://www.w3.org/2000/svg" xmlns:svg="http://www.w3.org/2000/svg" width="24" height="24" viewBox="0 0 24 24" fill="currentColor" tags="cubes,packages,parts,group,units,collection,cluster,geometry" categories="shapes,gaming,development">
  <path d="M 12 1.3359375 C 11.464795 1.3359375 10.929669 1.4785377 10.455078 1.7636719 L 10.455078 1.7617188 L 7.4550781 3.5625 C 7.0215747 3.8229472 6.6696751 4.1854992 6.4199219 4.6074219 A 1 1 0 0 0 6.4023438 4.6347656 A 1 1 0 0 0 6.3984375 4.6425781 C 6.386361 4.66363 6.3767986 4.6856928 6.3652344 4.7070312 A 1 1 0 0 0 6.3378906 4.7617188 C 6.1230269 5.178252 6.0010594 5.6435835 6 6.1269531 A 1.0001 1.0001 0 0 0 6 6.1308594 L 6 9.9335938 L 2.4550781 12.0625 C 2.0215747 12.322947 1.6696751 12.685499 1.4199219 13.107422 A 1 1 0 0 0 1.4023438 13.134766 A 1 1 0 0 0 1.3984375 13.142578 C 1.386361 13.16363 1.3767986 13.185693 1.3652344 13.207031 A 1 1 0 0 0 1.3378906 13.261719 C 1.1230269 13.678252 1.0010594 14.143584 1 14.626953 A 1.0001 1.0001 0 0 0 1 14.630859 L 1 17.869141 A 1.0001 1.0001 0 0 0 1 17.873047 C 1.0023 18.922404 1.5555759 19.897082 2.4550781 20.4375 L 5.4550781 22.238281 L 5.4550781 22.236328 C 5.8903305 22.497828 6.376763 22.638481 6.8671875 22.660156 A 1 1 0 0 0 7 22.669922 A 1 1 0 0 0 7.1328125 22.660156 C 7.623237 22.638481 8.1096695 22.497828 8.5449219 22.236328 L 8.5449219 22.238281 L 12 20.166016 L 15.455078 22.238281 L 15.455078 22.236328 C 15.89037 22.497852 16.376718 22.638501 16.867188 22.660156 A 1 1 0 0 0 17 22.669922 A 1 1 0 0 0 17.132812 22.660156 C 17.623282 22.638501 18.10963 22.497852 18.544922 22.236328 L 18.544922 22.238281 L 21.544922 20.4375 C 22.444424 19.897082 22.9977 18.922404 23 17.873047 A 1.0001 1.0001 0 0 0 23 17.869141 L 23 14.630859 A 1.0001 1.0001 0 0 0 23 14.626953 C 22.998933 14.139956 22.876138 13.670837 22.658203 13.251953 A 1 1 0 0 0 22.634766 13.207031 C 22.621827 13.183156 22.611236 13.158281 22.597656 13.134766 A 1 1 0 0 0 22.580078 13.107422 C 22.330325 12.685498 21.978425 12.322947 21.544922 12.0625 L 18 9.9335938 L 18 6.1308594 A 1.0001 1.0001 0 0 0 18 6.1269531 C 17.998933 5.6399638 17.876138 5.1708348 17.658203 4.7519531 A 1 1 0 0 0 17.634766 4.7070312 C 17.621827 4.6831561 17.611236 4.6582812 17.597656 4.6347656 A 1 1 0 0 0 17.580078 4.6074219 C 17.330325 4.1854996 16.978425 3.8229472 16.544922 3.5625 L 13.544922 1.7617188 L 13.544922 1.7636719 C 13.070331 1.4785409 12.535205 1.3359375 12 1.3359375 z M 12 3.3339844 C 12.178176 3.3339844 12.356351 3.3808706 12.515625 3.4765625 L 15.050781 4.9980469 L 12 6.8320312 L 8.9492188 4.9980469 L 11.484375 3.4765625 C 11.643649 3.3808706 11.821824 3.3339844 12 3.3339844 z M 8 6.7636719 L 11 8.5664062 L 11 11.734375 L 8 9.9335938 L 8 6.7636719 z M 16 6.7636719 L 16 9.9335938 L 13 11.734375 L 13 8.5664062 L 16 6.7636719 z M 7 11.666016 L 10.056641 13.5 L 7.0019531 15.333984 L 3.9492188 13.498047 L 7 11.666016 z M 17 11.666016 L 20.050781 13.498047 L 16.998047 15.333984 L 13.943359 13.5 L 17 11.666016 z M 3 15.263672 L 6 17.066406 L 6 20.232422 L 3.484375 18.722656 C 3.1833937 18.541781 3.0013974 18.220162 3 17.869141 L 3 15.263672 z M 21 15.263672 L 21 17.869141 C 20.9986 18.220162 20.816606 18.541828 20.515625 18.722656 L 18 20.232422 L 18 17.066406 L 21 15.263672 z M 11 15.265625 L 11 18.433594 L 8 20.230469 L 8 17.064453 L 11 15.265625 z M 13 15.265625 L 16 17.064453 L 16 20.230469 L 13 18.433594 L 13 15.265625 z "/>
</svg>
