<?xml version="1.0" encoding="UTF-8" standalone="no"?>
<svg xmlns="http://www.w3.org/2000/svg" xmlns:svg="http://www.w3.org/2000/svg" width="24" height="24" viewBox="0 0 24 24" fill="currentColor" tags="json,code,token,curly brackets,data,{,}" categories="development,files">
  <path d="M 7 2 C 5.3549936 2 4 3.3549936 4 5 L 4 10 C 4 10.564128 3.5641282 11 3 11 A 1.0001 1.0001 0 0 0 3 13 C 3.5641282 13 4 13.435872 4 14 L 4 19 C 4 20.645451 5.3545487 22 7 22 L 8 22 A 1 1 0 0 0 9 21 A 1 1 0 0 0 8 20 L 7 20 C 6.4454557 20 6 19.554544 6 19 L 6 14 C 6 13.223018 5.6583743 12.53536 5.1660156 12 C 5.6583743 11.46464 6 10.776982 6 10 L 6 5 C 6 4.4358718 6.4358718 4 7 4 L 8 4 A 1 1 0 0 0 9 3 A 1 1 0 0 0 8 2 L 7 2 z M 16 2 A 1 1 0 0 0 15 3 A 1 1 0 0 0 16 4 L 17 4 C 17.564128 4 18 4.4358718 18 5 L 18 10 C 18 10.776982 18.341626 11.46464 18.833984 12 C 18.341684 12.535314 18 13.222808 18 14 L 18 19 C 18 19.564128 17.564128 20 17 20 L 16 20 A 1 1 0 0 0 15 21 A 1 1 0 0 0 16 22 L 17 22 C 18.645006 22 20 20.645006 20 19 L 20 14 C 20 13.445456 20.445456 13 21 13 A 1.0001 1.0001 0 0 0 21 11 C 20.435872 11 20 10.564128 20 10 L 20 5 C 20 3.3549936 18.645006 2 17 2 L 16 2 z "/>
</svg>
