<?xml version="1.0" encoding="UTF-8" standalone="no"?>
<svg xmlns="http://www.w3.org/2000/svg" xmlns:svg="http://www.w3.org/2000/svg" width="24" height="24" viewBox="0 0 24 24" fill="currentColor" tags="code,token,array,list,square,[,]" categories="development,files">
  <path d="M 5 2 C 3.9072751 2 3 2.9072751 3 4 L 3 20 C 3 21.092725 3.9072751 22 5 22 L 8 22 A 1 1 0 0 0 9 21 A 1 1 0 0 0 8 20 L 5 20 L 5 4 L 8 4 A 1 1 0 0 0 9 3 A 1 1 0 0 0 8 2 L 5 2 z M 16 2 A 1 1 0 0 0 15 3 A 1 1 0 0 0 16 4 L 19 4 L 19 20 L 16 20 A 1 1 0 0 0 15 21 A 1 1 0 0 0 16 22 L 19 22 C 20.092725 22 21 21.092725 21 20 L 21 4 C 21 2.9072751 20.092725 2 19 2 L 16 2 z "/>
</svg>
