<?xml version="1.0" encoding="UTF-8" standalone="no"?>
<svg xmlns="http://www.w3.org/2000/svg" xmlns:svg="http://www.w3.org/2000/svg" width="24" height="24" viewBox="0 0 24 24" fill="currentColor" tags="code,token,array,list,square,[,]" categories="development,files">
  <path d="M 6 2 C 4.9072751 2 4 2.9072751 4 4 L 4 20 C 4 21.092725 4.9072751 22 6 22 L 8 22 A 1 1 0 0 0 9 21 A 1 1 0 0 0 8 20 L 6 20 L 6 4 L 8 4 A 1 1 0 0 0 9 3 A 1 1 0 0 0 8 2 L 6 2 z M 16 2 A 1 1 0 0 0 15 3 A 1 1 0 0 0 16 4 L 18 4 L 18 20 L 16 20 A 1 1 0 0 0 15 21 A 1 1 0 0 0 16 22 L 18 22 C 19.092725 22 20 21.092725 20 20 L 20 4 C 20 2.9072751 19.092725 2 18 2 L 16 2 z "/>
</svg>
