<svg xmlns="http://www.w3.org/2000/svg" xmlns:svg="http://www.w3.org/2000/svg" width="24" height="24" viewBox="0 0 24 24" fill="currentColor" tags="json,code,token,curly brackets,data,{,}" categories="development,files">
  <path d="M 7 2 C 5.3549904 2 4 3.3549904 4 5 L 4 10 C 4 10.564129 3.5641294 11 3 11 A 1.0001 1.0001 0 0 0 3 13 C 3.5641294 13 4 13.435871 4 14 L 4 19 C 4 20.645455 5.3545455 22 7 22 L 8 22 A 1 1 0 0 0 9 21 A 1 1 0 0 0 8 20 L 7 20 C 6.4454545 20 6 19.554545 6 19 L 6 14 C 6 13.223016 5.6583752 12.535361 5.1660156 12 C 5.6583752 11.464639 6 10.776984 6 10 L 6 5 C 6 4.4358706 6.4358706 4 7 4 L 8 4 A 1 1 0 0 0 9 3 A 1 1 0 0 0 8 2 L 7 2 z M 16 2 A 1 1 0 0 0 15 3 A 1 1 0 0 0 16 4 L 17 4 C 17.564129 4 18 4.4358706 18 5 L 18 10 C 18 10.776984 18.341625 11.464639 18.833984 12 C 18.341683 12.535315 18 13.222806 18 14 L 18 19 C 18 19.564129 17.564129 20 17 20 L 16 20 A 1 1 0 0 0 15 21 A 1 1 0 0 0 16 22 L 17 22 C 18.64501 22 20 20.64501 20 19 L 20 14 C 20 13.445455 20.445455 13 21 13 A 1.0001 1.0001 0 0 0 21 11 C 20.435871 11 20 10.564129 20 10 L 20 5 C 20 3.3549904 18.64501 2 17 2 L 16 2 z "/>
</svg>
