<?xml version="1.0" encoding="UTF-8" standalone="no"?>
<svg xmlns="http://www.w3.org/2000/svg" xmlns:svg="http://www.w3.org/2000/svg" width="24" height="24" viewBox="0 0 24 24" fill="currentColor" tags="mind,intellect,artificial intelligence,ai,deep learning,machine learning,computing" categories="science,development">
  <path d="M 8.9160156 0.9921875 C 7.9303285 1.0127329 6.936788 1.3595907 6.1777344 2.0761719 C 5.5647222 2.6548833 5.2225045 3.5245997 5.1113281 4.4941406 C 2.6906793 5.524757 1.5135753 8.2242894 2.4160156 10.699219 C 0.46717252 12.843574 0.76230411 16.164796 3.0859375 17.916016 C 3.0535546 20.528882 5.0049741 22.811059 7.6757812 22.984375 C 10.200928 23.148238 12.407042 21.385839 12.898438 19 L 18 19 C 18.528871 19 18.944189 19.38377 18.994141 19.896484 C 18.692067 20.172545 18.5 20.567171 18.5 21 C 18.5 21.816582 19.183418 22.5 20 22.5 C 20.816582 22.5 21.5 21.816582 21.5 21 C 21.5 20.563311 21.304788 20.16504 20.998047 19.888672 C 20.938862 18.294055 19.607926 17 18 17 L 13 17 L 13 14 L 14.890625 14 C 15.166921 14.305578 15.564271 14.5 16 14.5 C 16.816582 14.5 17.5 13.816582 17.5 13 C 17.5 12.183418 16.816582 11.5 16 11.5 C 15.564271 11.5 15.166921 11.694422 14.890625 12 L 13 12 L 13 9 L 18.890625 9 C 19.166921 9.3055778 19.564271 9.5 20 9.5 C 20.816582 9.5 21.5 8.8165825 21.5 8 C 21.5 7.1834175 20.816582 6.5 20 6.5 C 19.564271 6.5 19.166921 6.6944222 18.890625 7 L 17 7 L 17 5 C 17 4.7266279 17.103733 4.4847701 17.273438 4.3066406 C 17.489893 4.4292438 17.737919 4.5 18 4.5 C 18.816582 4.5 19.5 3.8165825 19.5 3 C 19.5 2.1834175 18.816582 1.5 18 1.5 C 17.428452 1.5 16.922318 1.8354739 16.669922 2.3164062 C 15.684359 2.8105797 15 3.8315828 15 5 L 15 7 L 13 7 L 13 5.0039062 C 13.00376 3.7279268 12.48552 2.645267 11.697266 1.9609375 C 10.909012 1.276608 9.9017028 0.97164208 8.9160156 0.9921875 z M 8.9589844 2.9921875 C 9.4968993 2.9809753 10.023112 3.1550349 10.386719 3.4707031 C 10.750325 3.7863713 11.002275 4.2239339 11 4.9960938 A 1.0001 1.0001 0 0 0 11 5 L 11 8.9726562 C 10.912528 10.377407 9.9974254 11.588958 8.6679688 12.056641 A 1 1 0 0 0 8.0566406 13.332031 A 1 1 0 0 0 9.3320312 13.943359 C 9.9503656 13.725839 10.511718 13.404295 11 13.001953 L 11 18 C 10.997 19.745453 9.5487273 21.103283 7.8066406 20.990234 C 6.5270277 20.907197 5.5099633 20.05676 5.1464844 18.925781 C 5.4274476 18.974258 5.7128241 19.000134 6 19 A 1 1 0 0 0 7 18 A 1 1 0 0 0 6 17 C 5.4977894 17.000234 5.0031565 16.874794 4.5625 16.634766 A 1.0001 1.0001 0 0 0 4.5253906 16.611328 C 2.6543082 15.555202 2.4398098 13.026653 4.1074219 11.671875 A 1.0001 1.0001 0 0 0 4.109375 11.671875 C 4.2465798 11.560129 4.3921519 11.460867 4.546875 11.375 A 1 1 0 0 0 4.9355469 10.015625 A 1 1 0 0 0 4.3378906 9.5390625 A 1 1 0 0 0 4.0390625 9.5 C 3.8332236 8.3409959 4.3273149 7.1739149 5.3007812 6.5195312 C 5.3683262 6.68433 5.4457815 6.8448591 5.5351562 7 A 1 1 0 0 0 6.9003906 7.3671875 A 1 1 0 0 0 7.2675781 6 C 7.1064471 5.7203011 7.0151378 5.406507 7.0019531 5.0839844 A 1 1 0 0 0 7.0019531 5.0800781 C 6.9675045 4.3086837 7.2006442 3.8598422 7.5507812 3.5292969 C 7.9009183 3.1987516 8.4210691 3.0033997 8.9589844 2.9921875 z "/>
</svg>
