<?xml version="1.0" encoding="UTF-8" standalone="no"?>
<svg xmlns="http://www.w3.org/2000/svg" xmlns:svg="http://www.w3.org/2000/svg" width="24" height="24" viewBox="0 0 24 24" fill="currentColor" tags="mind,intellect,artificial intelligence,ai,deep learning,machine learning,computing" categories="science,development">
  <path d="M 8.90625 1.0097656 C 7.9222477 1.0330653 6.9302971 1.3809997 6.1738281 2.0976562 C 5.5630867 2.6762546 5.2221753 3.5446815 5.1113281 4.5117188 C 2.6910905 5.54216 1.5144502 8.2402214 2.4160156 10.714844 C 0.47046209 12.854585 0.76176949 16.166918 3.0722656 17.921875 C 3.0202126 20.398653 4.6653653 22.279177 6.6699219 22.832031 C 8.5377525 23.347177 10.712893 22.690756 12 20.867188 C 13.287107 22.690756 15.462247 23.347177 17.330078 22.832031 C 19.334635 22.279177 20.979788 20.398653 20.927734 17.921875 C 23.238231 16.166918 23.529538 12.854585 21.583984 10.714844 C 22.48555 8.2402214 21.308909 5.54216 18.888672 4.5117188 C 18.777825 3.5446815 18.436913 2.6762546 17.826172 2.0976562 C 17.069703 1.3809997 16.077752 1.0330653 15.09375 1.0097656 C 14.109748 0.98646595 13.103994 1.2867475 12.314453 1.9667969 C 12.183887 2.0792561 12.114785 2.2612718 12 2.3945312 C 11.885215 2.2612718 11.816113 2.0792561 11.685547 1.9667969 C 10.896006 1.2867475 9.8902523 0.98646594 8.90625 1.0097656 z M 8.953125 3.0078125 C 9.4897786 2.9951053 10.016443 3.168542 10.380859 3.4824219 C 10.745276 3.7963018 10.997919 4.2324565 11 5.0019531 A 1 1 0 0 0 11.121094 5.2929688 A 1 1 0 0 0 11.292969 5.7070312 A 1 1 0 0 0 11.707031 5.8789062 A 1 1 0 0 0 11.998047 6 A 1 1 0 0 0 12 5.9980469 A 1 1 0 0 0 12.001953 6 A 1 1 0 0 0 13 5.0019531 C 13.0021 4.2324565 13.254724 3.7963018 13.619141 3.4824219 C 13.983557 3.168542 14.510221 2.9951053 15.046875 3.0078125 C 15.583529 3.0205195 16.10202 3.218052 16.451172 3.5488281 C 16.800324 3.8796043 17.032388 4.3289235 16.998047 5.0976562 C 16.982701 5.4154532 16.891518 5.7242912 16.732422 6 A 1 1 0 0 0 17.099609 7.3652344 A 1 1 0 0 0 18.464844 7 C 18.551809 6.8492927 18.62693 6.6930777 18.693359 6.5332031 C 19.666208 7.183508 20.16379 8.3442463 19.964844 9.5 A 1 1 0 0 0 19.662109 9.5390625 A 1 1 0 0 0 19.064453 10.015625 A 1 1 0 0 0 19.453125 11.375 C 19.598112 11.455467 19.735673 11.547152 19.865234 11.650391 A 1.0001 1.0001 0 0 0 19.892578 11.6875 C 21.53449 13.021399 21.34856 15.492198 19.556641 16.576172 A 1 1 0 0 0 19.476562 16.613281 C 19.026322 16.867234 18.516924 17.000241 18 17 A 1 1 0 0 0 17 18 A 1 1 0 0 0 18 19 C 18.305048 19.000142 18.608428 18.972622 18.90625 18.917969 C 18.626475 19.974094 17.788754 20.630738 16.796875 20.904297 C 15.451224 21.275426 13.987318 20.896997 13.251953 19.210938 C 13.208183 19.097138 13.172783 18.98083 13.148438 18.861328 A 1.0001 1.0001 0 0 0 13.144531 18.841797 C 13.063353 18.477926 12.790682 18.217512 12.576172 18.103516 C 12.361662 17.989519 12.179694 17.962891 12 17.962891 C 11.820306 17.962891 11.637271 17.990531 11.421875 18.105469 C 11.206479 18.220405 10.934186 18.484136 10.855469 18.849609 A 1.0001 1.0001 0 0 0 10.853516 18.859375 C 10.828676 18.980319 10.790826 19.09784 10.746094 19.212891 C 10.01033 20.896246 8.5479458 21.275197 7.203125 20.904297 C 6.2112462 20.630738 5.3735249 19.974094 5.09375 18.917969 C 5.3915722 18.972622 5.6949523 19.000142 6 19 A 1 1 0 0 0 7 18 A 1 1 0 0 0 6 17 C 5.483076 17.000241 4.9736783 16.867237 4.5234375 16.613281 A 1 1 0 0 0 4.4433594 16.576172 C 2.6514403 15.492198 2.4655103 13.021399 4.1074219 11.6875 A 1.0001 1.0001 0 0 0 4.2109375 11.591797 A 1.0001 1.0001 0 0 0 4.2128906 11.589844 C 4.3189687 11.510758 4.4308327 11.4394 4.546875 11.375 A 1 1 0 0 0 4.9355469 10.015625 A 1 1 0 0 0 4.3378906 9.5390625 A 1 1 0 0 0 4.0351562 9.5 C 3.8362099 8.3442463 4.3337916 7.183508 5.3066406 6.5332031 C 5.372902 6.693171 5.4482761 6.8491894 5.5351562 7 A 1 1 0 0 0 6.9003906 7.3671875 A 1 1 0 0 0 7.2675781 6 C 7.1087117 5.7242321 7.017116 5.4153991 7.0019531 5.0976562 C 6.9676116 4.3289235 7.1996764 3.8796043 7.5488281 3.5488281 C 7.8979799 3.218052 8.4164714 3.0205197 8.953125 3.0078125 z M 10.453125 7.3027344 A 1 1 0 0 0 9.9941406 7.3867188 A 1 1 0 0 0 9.4863281 8.7070312 L 9.5488281 8.8476562 C 9.2625038 9.0711616 9.0079546 9.3314929 8.7910156 9.6230469 L 8.7070312 9.5859375 A 1 1 0 0 0 7.9414062 9.5664062 A 1 1 0 0 0 7.3867188 10.09375 A 1 1 0 0 0 7.8945312 11.414062 L 8.0371094 11.476562 C 8.0142605 11.648405 8 11.822248 8 12 C 8 12.210067 8.0171055 12.415564 8.0488281 12.617188 L 7.8945312 12.685547 A 1 1 0 0 0 7.3867188 14.005859 A 1 1 0 0 0 8.7070312 14.513672 L 8.8476562 14.451172 C 9.0711616 14.737496 9.3314929 14.992045 9.6230469 15.208984 L 9.5859375 15.292969 A 1 1 0 0 0 10.09375 16.613281 A 1 1 0 0 0 11.414062 16.105469 L 11.476562 15.962891 C 11.648405 15.98574 11.822248 16 12 16 C 12.210067 16 12.415564 15.982895 12.617188 15.951172 L 12.685547 16.105469 A 1 1 0 0 0 14.005859 16.613281 A 1 1 0 0 0 14.513672 15.292969 L 14.451172 15.152344 C 14.737496 14.928838 14.992045 14.668507 15.208984 14.376953 L 15.292969 14.414062 A 1 1 0 0 0 16.613281 13.90625 A 1 1 0 0 0 16.105469 12.585938 L 15.962891 12.523438 C 15.98574 12.351595 16 12.177752 16 12 C 16 11.789933 15.982895 11.584436 15.951172 11.382812 L 16.105469 11.314453 A 1 1 0 0 0 16.613281 9.9941406 A 1 1 0 0 0 15.292969 9.4863281 L 15.152344 9.5488281 C 14.928838 9.2625038 14.668507 9.0079546 14.376953 8.7910156 L 14.414062 8.7070312 A 1 1 0 0 0 13.90625 7.3867188 A 1 1 0 0 0 13.140625 7.3671875 A 1 1 0 0 0 12.585938 7.8945312 L 12.523438 8.0371094 C 12.351595 8.0142605 12.177752 8 12 8 C 11.789933 8 11.584436 8.0171055 11.382812 8.0488281 L 11.314453 7.8945312 A 1 1 0 0 0 10.759766 7.3671875 A 1 1 0 0 0 10.453125 7.3027344 z M 12 10 C 13.116414 10 14 10.883586 14 12 C 14 13.116414 13.116414 14 12 14 C 10.883586 14 10 13.116414 10 12 C 10 10.883586 10.883586 10 12 10 z "/>
</svg>
