<?xml version="1.0" encoding="UTF-8" standalone="no"?>
<svg xmlns="http://www.w3.org/2000/svg" xmlns:svg="http://www.w3.org/2000/svg" width="24" height="24" viewBox="0 0 24 24" fill="currentColor" tags="medical,mind,intellect,cerebral,consciousness,genius,artificial intelligence,ai" categories="medical,science">
  <path d="M 8.9160156 0.9921875 C 7.9303285 1.0127329 6.936788 1.3595907 6.1777344 2.0761719 C 5.5647222 2.6548833 5.2225045 3.5245997 5.1113281 4.4941406 C 2.6906793 5.524757 1.5135753 8.2242894 2.4160156 10.699219 C 0.46717252 12.843574 0.76230411 16.164796 3.0859375 17.916016 C 3.0535546 20.528882 5.0049741 22.811059 7.6757812 22.984375 C 9.4268058 23.098004 11.021251 22.283019 12 20.978516 C 12.978747 22.283019 14.573194 23.098004 16.324219 22.984375 C 18.995026 22.811059 20.946445 20.528882 20.914062 17.916016 C 23.237696 16.164796 23.532827 12.843574 21.583984 10.699219 C 22.486425 8.2242424 21.309321 5.524757 18.888672 4.4941406 C 18.777496 3.5245997 18.435278 2.6548833 17.822266 2.0761719 C 17.063212 1.3595907 16.069672 1.0127329 15.083984 0.9921875 C 14.098297 0.97164208 13.090988 1.276608 12.302734 1.9609375 C 12.19668 2.0530091 12.095665 2.1537723 12 2.2597656 C 11.904335 2.1537723 11.80332 2.0530091 11.697266 1.9609375 C 10.909012 1.276608 9.9017028 0.97164208 8.9160156 0.9921875 z M 8.9589844 2.9921875 C 9.4968993 2.9809753 10.023112 3.1550349 10.386719 3.4707031 C 10.750325 3.7863713 11.002275 4.2239339 11 4.9960938 A 1.0001 1.0001 0 0 0 11 5 C 11.000003 5.0013254 10.999996 5.0025804 11 5.0039062 L 11 8.9667969 C 10.914646 10.373962 9.9992175 11.588327 8.6679688 12.056641 A 1 1 0 0 0 8.0566406 13.332031 A 1 1 0 0 0 9.3320312 13.943359 C 9.9661705 13.720279 10.520978 13.377274 11 12.951172 L 11 18 A 1.0001 1.0001 0 0 0 11 18.001953 C 10.99591 19.746454 9.5480694 21.103241 7.8066406 20.990234 C 6.5270277 20.907197 5.5099633 20.05676 5.1464844 18.925781 C 5.4274476 18.974258 5.7128241 19.000134 6 19 A 1 1 0 0 0 7 18 A 1 1 0 0 0 6 17 C 5.4977894 17.000234 5.0031565 16.874794 4.5625 16.634766 A 1.0001 1.0001 0 0 0 4.5253906 16.611328 C 2.6543082 15.555202 2.4398098 13.026653 4.1074219 11.671875 A 1.0001 1.0001 0 0 0 4.109375 11.671875 C 4.2465798 11.560129 4.3921519 11.460867 4.546875 11.375 A 1 1 0 0 0 4.9355469 10.015625 A 1 1 0 0 0 4.3378906 9.5390625 A 1 1 0 0 0 4.0390625 9.5 C 3.8332236 8.3409959 4.3273149 7.1739149 5.3007812 6.5195312 C 5.3683262 6.68433 5.4457815 6.8448591 5.5351562 7 A 1 1 0 0 0 6.9003906 7.3671875 A 1 1 0 0 0 7.2675781 6 C 7.1064471 5.7203011 7.0151378 5.406507 7.0019531 5.0839844 A 1 1 0 0 0 7.0019531 5.0800781 C 6.9675045 4.3086837 7.2006442 3.8598422 7.5507812 3.5292969 C 7.9009183 3.1987516 8.4210691 3.0033997 8.9589844 2.9921875 z M 15.041016 2.9921875 C 15.578931 3.0033995 16.099082 3.1987516 16.449219 3.5292969 C 16.799356 3.8598422 17.032495 4.3086837 16.998047 5.0800781 A 1.0001 1.0001 0 0 0 16.998047 5.0820312 A 1 1 0 0 0 16.998047 5.0839844 C 16.984659 5.4065633 16.893786 5.720361 16.732422 6 A 1 1 0 0 0 17.099609 7.3652344 A 1 1 0 0 0 18.464844 7 C 18.554292 6.8449891 18.631506 6.6842078 18.699219 6.5195312 C 19.672685 7.1739149 20.166776 8.3409959 19.960938 9.5 A 1 1 0 0 0 19.662109 9.5390625 A 1 1 0 0 0 19.064453 10.015625 A 1 1 0 0 0 19.453125 11.375 C 19.607848 11.46087 19.75342 11.560129 19.890625 11.671875 A 1 1 0 0 0 19.892578 11.671875 A 1 1 0 0 0 19.898438 11.677734 C 21.558947 13.033803 21.343243 15.556584 19.474609 16.611328 A 1.0001 1.0001 0 0 0 19.464844 16.619141 C 19.01739 16.868964 18.512603 17.000239 18 17 A 1 1 0 0 0 17 18 A 1 1 0 0 0 18 19 C 18.287176 19.000134 18.572552 18.974258 18.853516 18.925781 C 18.490037 20.05676 17.472972 20.907197 16.193359 20.990234 C 14.451933 21.103241 13.004063 19.746454 13 18.001953 A 1.0001 1.0001 0 0 0 13 18 L 13 12.951172 C 13.479022 13.377274 14.033829 13.720279 14.667969 13.943359 A 1 1 0 0 0 15.943359 13.332031 A 1 1 0 0 0 15.332031 12.056641 C 14.000783 11.588327 13.085349 10.373962 13 8.9667969 L 13 5.0039062 C 13.000004 5.0025804 12.999997 4.9993723 13 4.9980469 A 1.0001 1.0001 0 0 0 13 4.9960938 C 12.9977 4.223934 13.249675 3.7863713 13.613281 3.4707031 C 13.976888 3.1550349 14.503101 2.9809753 15.041016 2.9921875 z "/>
</svg>
