<?xml version="1.0" encoding="UTF-8" standalone="no"?>
<svg xmlns="http://www.w3.org/2000/svg" xmlns:svg="http://www.w3.org/2000/svg" width="24" height="24" viewBox="0 0 24 24" fill="currentColor" tags="medical,mind,intellect,cerebral,consciousness,genius,artificial intelligence,ai" categories="medical,science">
  <path d="M 8.9160156 0.9921875 C 7.9303305 1.0127329 6.9367865 1.3595921 6.1777344 2.0761719 C 5.5647234 2.6548821 5.2225043 3.5246017 5.1113281 4.4941406 C 2.6906841 5.524755 1.5135771 8.2242943 2.4160156 10.699219 C 0.46717642 12.84357 0.76230875 16.164799 3.0859375 17.916016 C 3.0535546 20.528876 5.0049795 22.811059 7.6757812 22.984375 C 9.4268022 23.098004 11.021251 22.283018 12 20.978516 C 12.978747 22.283018 14.573198 23.098004 16.324219 22.984375 C 18.99502 22.811059 20.946445 20.528876 20.914062 17.916016 C 23.237692 16.164799 23.532824 12.84357 21.583984 10.699219 C 22.486423 8.2242473 21.309315 5.524755 18.888672 4.4941406 C 18.777496 3.5246017 18.435276 2.6548821 17.822266 2.0761719 C 17.063213 1.3595921 16.06967 1.0127329 15.083984 0.9921875 C 14.098299 0.97164212 13.090987 1.2766094 12.302734 1.9609375 C 12.196681 2.0530089 12.095665 2.1537725 12 2.2597656 C 11.904335 2.1537725 11.803319 2.0530089 11.697266 1.9609375 C 10.909013 1.2766094 9.9017008 0.97164212 8.9160156 0.9921875 z M 8.9589844 2.9921875 C 9.4968981 2.9809753 10.023113 3.1550356 10.386719 3.4707031 C 10.750324 3.7863707 11.002275 4.2239355 11 4.9960938 A 1.0001 1.0001 0 0 0 11 5 C 11.000003 5.0013254 10.999996 5.0025804 11 5.0039062 L 11 8.9667969 C 10.914652 10.37396 9.9992152 11.588328 8.6679688 12.056641 A 1 1 0 0 0 8.0566406 13.332031 A 1 1 0 0 0 9.3320312 13.943359 C 9.9661693 13.720279 10.520978 13.377274 11 12.951172 L 11 18 A 1.0001 1.0001 0 0 0 11 18.001953 C 10.99591 19.74645 9.548066 21.103241 7.8066406 20.990234 C 6.5270303 20.907197 5.5099634 20.056759 5.1464844 18.925781 C 5.4274474 18.974258 5.7128247 19.000134 6 19 A 1 1 0 0 0 7 18 A 1 1 0 0 0 6 17 C 5.4977904 17.000234 5.0031558 16.874794 4.5625 16.634766 A 1.0001 1.0001 0 0 0 4.5253906 16.611328 C 2.654312 15.555204 2.4398131 13.02665 4.1074219 11.671875 A 1.0001 1.0001 0 0 0 4.109375 11.671875 C 4.2465796 11.560129 4.3921522 11.460867 4.546875 11.375 A 1 1 0 0 0 4.9355469 10.015625 A 1 1 0 0 0 4.3378906 9.5390625 A 1 1 0 0 0 4.0390625 9.5 C 3.8332243 8.3409974 4.3273165 7.1739144 5.3007812 6.5195312 C 5.3683261 6.6843299 5.4457817 6.8448594 5.5351562 7 A 1 1 0 0 0 6.9003906 7.3671875 A 1 1 0 0 0 7.2675781 6 C 7.1064474 5.7203017 7.0151378 5.4065064 7.0019531 5.0839844 A 1 1 0 0 0 7.0019531 5.0800781 C 6.9675047 4.3086853 7.200645 3.8598414 7.5507812 3.5292969 C 7.9009176 3.1987522 8.4210701 3.0033997 8.9589844 2.9921875 z M 15.041016 2.9921875 C 15.578929 3.0033995 16.099082 3.1987522 16.449219 3.5292969 C 16.799354 3.8598414 17.032495 4.3086853 16.998047 5.0800781 A 1.0001 1.0001 0 0 0 16.998047 5.0820312 A 1 1 0 0 0 16.998047 5.0839844 C 16.984659 5.4065627 16.893786 5.7203616 16.732422 6 A 1 1 0 0 0 17.099609 7.3652344 A 1 1 0 0 0 18.464844 7 C 18.554292 6.8449894 18.631506 6.6842076 18.699219 6.5195312 C 19.672683 7.1739144 20.166776 8.3409974 19.960938 9.5 A 1 1 0 0 0 19.662109 9.5390625 A 1 1 0 0 0 19.064453 10.015625 A 1 1 0 0 0 19.453125 11.375 C 19.607848 11.46087 19.75342 11.560129 19.890625 11.671875 A 1 1 0 0 0 19.892578 11.671875 A 1 1 0 0 0 19.898438 11.677734 C 21.558944 13.0338 21.343239 15.556587 19.474609 16.611328 A 1.0001 1.0001 0 0 0 19.464844 16.619141 C 19.017391 16.868964 18.512601 17.000239 18 17 A 1 1 0 0 0 17 18 A 1 1 0 0 0 18 19 C 18.287175 19.000134 18.572553 18.974258 18.853516 18.925781 C 18.490037 20.056759 17.47297 20.907197 16.193359 20.990234 C 14.451936 21.103241 13.004063 19.74645 13 18.001953 A 1.0001 1.0001 0 0 0 13 18 L 13 12.951172 C 13.479022 13.377274 14.033831 13.720279 14.667969 13.943359 A 1 1 0 0 0 15.943359 13.332031 A 1 1 0 0 0 15.332031 12.056641 C 14.000785 11.588328 13.085348 10.37396 13 8.9667969 L 13 5.0039062 C 13.000004 5.0025804 12.999997 4.9993723 13 4.9980469 A 1.0001 1.0001 0 0 0 13 4.9960938 C 12.9977 4.2239355 13.249676 3.7863707 13.613281 3.4707031 C 13.976887 3.1550356 14.503101 2.9809753 15.041016 2.9921875 z "/>
</svg>
