<?xml version="1.0" encoding="UTF-8" standalone="no"?>
<svg xmlns="http://www.w3.org/2000/svg" xmlns:svg="http://www.w3.org/2000/svg" width="24" height="24" viewBox="0 0 24 24" fill="currentColor" tags="medical,mind,intellect,cerebral,consciousness,genius,artificial intelligence,ai" categories="medical,science">
  
  <path d="M 9.5 1 C 8.0760561 0.99926244 6.9628284 1.9638093 6.4238281 3.234375 C 5.0134057 3.7068519 4.0950276 4.9940713 4.0722656 6.4609375 C 2.3307508 7.3086115 1.655152 9.3804031 2.5390625 11.089844 C 1.5578888 11.93272 0.93358278 13.059907 1.0058594 14.246094 C 1.0830083 15.51224 1.904995 16.648593 3.1191406 17.345703 C 3.0549237 19.229376 4.4876997 20.771138 6.3535156 20.873047 C 6.986737 22.321536 8.4415215 23.101741 9.8085938 22.980469 C 10.607403 22.909607 11.402827 22.541514 12 21.941406 C 12.597176 22.541514 13.392597 22.909607 14.191406 22.980469 C 15.558479 23.101741 17.013263 22.321536 17.646484 20.873047 C 19.512301 20.771138 20.945077 19.229376 20.880859 17.345703 C 22.095005 16.648593 22.916992 15.51224 22.994141 14.246094 C 23.066421 13.059907 22.442112 11.93272 21.460938 11.089844 C 22.344849 9.3803561 21.66925 7.3086115 19.927734 6.4609375 C 19.904972 4.9940713 18.986594 3.7068519 17.576172 3.234375 C 17.037171 1.9638093 15.923944 0.99926244 14.5 1 L 14.498047 1 C 13.522173 1.0005538 12.636842 1.4093259 12 2.0625 C 11.363158 1.4093259 10.477827 1.0005538 9.5019531 1 L 9.5 1 z M 9.4980469 3 A 1.0001 1.0001 0 0 0 9.5 3 C 10.34027 3 11 3.6597299 11 4.5 L 11 19.5 A 1.0001 1.0001 0 0 0 11 19.501953 C 10.996 20.537747 10.375163 20.922428 9.6328125 20.988281 C 8.889402 21.054231 8.2085656 20.784232 8.0234375 19.761719 A 1.0001 1.0001 0 0 0 6.8222656 18.964844 C 5.6825583 19.218558 4.7480915 18.243965 5.046875 17.115234 A 1.0001 1.0001 0 0 0 4.3867188 15.908203 C 3.475064 15.615364 3.0493907 14.903534 3.0019531 14.125 C 2.9545156 13.346466 3.2888471 12.588859 4.1582031 12.1875 A 1.0001 1.0001 0 0 0 4.4433594 10.568359 C 3.5354509 9.6714296 3.9777851 8.2484676 5.234375 8.0253906 A 1.0001 1.0001 0 0 0 6.0371094 6.8222656 C 5.850111 5.9814691 6.3779993 5.1820524 7.2246094 5.0234375 A 1.0001 1.0001 0 0 0 8.0234375 4.2246094 C 8.1575762 3.5080397 8.7690307 2.9992173 9.4980469 3 z M 14.5 3 A 1.0001 1.0001 0 0 0 14.501953 3 C 15.230969 2.9992173 15.842424 3.5080397 15.976562 4.2246094 A 1.0001 1.0001 0 0 0 16.775391 5.0234375 C 17.622001 5.1820524 18.149888 5.9814691 17.962891 6.8222656 A 1.0001 1.0001 0 0 0 18.765625 8.0253906 C 20.022215 8.2484676 20.464549 9.6714296 19.556641 10.568359 A 1.0001 1.0001 0 0 0 19.841797 12.1875 C 20.711153 12.588859 21.045484 13.346466 20.998047 14.125 C 20.950607 14.903534 20.524936 15.615364 19.613281 15.908203 A 1.0001 1.0001 0 0 0 18.953125 17.115234 C 19.251909 18.243965 18.317442 19.218558 17.177734 18.964844 A 1.0001 1.0001 0 0 0 15.976562 19.761719 C 15.791434 20.784232 15.110598 21.054229 14.367188 20.988281 C 13.624789 20.922428 13.003999 20.537747 13 19.501953 A 1.0001 1.0001 0 0 0 13 19.5 L 13 4.5 C 13 3.6597299 13.65973 3 14.5 3 z "/>
</svg>
