<svg xmlns="http://www.w3.org/2000/svg" xmlns:svg="http://www.w3.org/2000/svg" width="24" height="24" viewBox="0 0 24 24" fill="currentColor" tags="mind,intellect,artificial intelligence,ai,deep learning,machine learning,computing" categories="science,development">
  <path d="M 8.9160156 0.9921875 C 7.9303285 1.0127329 6.936788 1.3595907 6.1777344 2.0761719 C 5.5647222 2.6548833 5.2225045 3.5245997 5.1113281 4.4941406 C 2.6906793 5.524757 1.5135753 8.2242894 2.4160156 10.699219 C 0.46717252 12.843574 0.76230411 16.164796 3.0859375 17.916016 C 3.0535546 20.528882 5.0049741 22.811059 7.6757812 22.984375 C 10.200868 23.148235 12.406972 21.385753 12.898438 19 L 18 19 C 18.528581 19 18.943815 19.38224 18.994141 19.894531 C 18.691605 20.170624 18.5 20.566787 18.5 21 C 18.5 21.816582 19.183418 22.5 20 22.5 C 20.816582 22.5 21.5 21.816582 21.5 21 C 21.5 20.563362 21.304726 20.165036 20.998047 19.888672 C 20.938461 18.294409 19.607667 17 18 17 L 13 17 L 13 14 L 14.890625 14 C 15.166915 14.305482 15.564351 14.5 16 14.5 C 16.816582 14.5 17.5 13.816582 17.5 13 C 17.5 12.183418 16.816582 11.5 16 11.5 C 15.564351 11.5 15.166915 11.694518 14.890625 12 L 13 12 L 13 9 L 18.890625 9 C 19.166915 9.3054816 19.564351 9.5 20 9.5 C 20.816582 9.5 21.5 8.8165825 21.5 8 C 21.5 7.1834175 20.816582 6.5 20 6.5 C 19.564351 6.5 19.166915 6.6945184 18.890625 7 L 17 7 L 17 5 C 17 4.7270144 17.10221 4.4847021 17.271484 4.3066406 C 17.488353 4.42986 17.737209 4.5 18 4.5 C 18.816582 4.5 19.5 3.8165825 19.5 3 C 19.5 2.1834175 18.816582 1.5 18 1.5 C 17.428844 1.5 16.922493 1.8340507 16.669922 2.3144531 C 15.683761 2.8084151 15 3.8311434 15 5 L 15 7 L 13 7 L 13 5.0039062 C 13.00376 3.7279268 12.48552 2.645267 11.697266 1.9609375 C 10.909012 1.276608 9.9017028 0.97164208 8.9160156 0.9921875 z M 8.9589844 2.9921875 C 9.4968993 2.9809753 10.023112 3.1550349 10.386719 3.4707031 C 10.750325 3.7863713 11.002275 4.2239339 11 4.9960938 A 1.0001 1.0001 0 0 0 11 5 L 11 8.9785156 C 10.910417 10.380852 9.9956334 11.589588 8.6679688 12.056641 A 1 1 0 0 0 8.0566406 13.332031 A 1 1 0 0 0 9.3320312 13.943359 C 9.9500637 13.725945 10.511884 13.40402 11 13.001953 L 11 18 C 10.997 19.745453 9.5487273 21.103283 7.8066406 20.990234 C 6.5267393 20.907178 5.5058427 20.057142 5.1425781 18.925781 C 5.4246934 18.974667 5.7116062 19.000135 6 19 A 1 1 0 0 0 7 18 A 1 1 0 0 0 6 17 C 5.5041977 17.000231 5.0145229 16.87861 4.578125 16.644531 A 1.0001 1.0001 0 0 0 4.5253906 16.611328 C 2.6543082 15.555202 2.4398098 13.026653 4.1074219 11.671875 A 1.0001 1.0001 0 0 0 4.109375 11.671875 C 4.2465798 11.560129 4.3921519 11.460867 4.546875 11.375 A 1 1 0 0 0 4.9355469 10.015625 A 1 1 0 0 0 4.3378906 9.5390625 A 1 1 0 0 0 4.0351562 9.5 C 3.8293467 8.3414719 4.3261874 7.1741082 5.2988281 6.5195312 C 5.3664286 6.6845423 5.445672 6.844669 5.5351562 7 A 1 1 0 0 0 6.9003906 7.3671875 A 1 1 0 0 0 7.2675781 6 C 7.108978 5.7246944 7.0173444 5.41679 7.0019531 5.0996094 A 1.0001 1.0001 0 0 0 7.0019531 5.0839844 A 1 1 0 0 0 7.0019531 5.0800781 C 6.9675045 4.3086837 7.2006442 3.8598422 7.5507812 3.5292969 C 7.9009183 3.1987516 8.4210691 3.0033997 8.9589844 2.9921875 z "/>
</svg>
