<svg xmlns="http://www.w3.org/2000/svg" xmlns:svg="http://www.w3.org/2000/svg" width="24" height="24" viewBox="0 0 24 24" fill="currentColor" tags="medical,mind,mental,intellect,cerebral,consciousness,genius,artificial intelligence,ai,think,thought,insight,intelligent,smart" categories="medical,science">
  <path d="M 8.9023438 1.0019531 C 8.5928145 1.0084914 8.2793751 1.0524392 7.9648438 1.1367188 C 6.3710001 1.5637937 5.2994405 2.8971072 5.0585938 4.390625 C 2.6477164 5.406761 1.4167997 8.1835172 2.2773438 10.648438 C 1.091464 11.952784 0.75449491 13.744548 1.1699219 15.294922 C 1.4523247 16.348849 2.0920064 17.324393 3 18.009766 C 3.0075822 20.590217 5.0309112 22.812742 7.6757812 22.984375 C 9.4727594 23.100986 11.02935 22.18184 12 20.816406 C 12.97065 22.18184 14.527241 23.100986 16.324219 22.984375 C 18.969088 22.812742 20.992417 20.590216 21 18.009766 C 21.907994 17.324393 22.547675 16.34885 22.830078 15.294922 C 23.245505 13.744548 22.908536 11.952784 21.722656 10.648438 C 22.5832 8.1835174 21.352283 5.4067612 18.941406 4.390625 C 18.700559 2.8971072 17.629 1.5637937 16.035156 1.1367188 C 14.460289 0.71472872 12.958776 1.3791827 12 2.5253906 C 11.424196 1.8370223 10.699598 1.2809631 9.8125 1.0898438 C 9.5174918 1.0262863 9.211873 0.99541489 8.9023438 1.0019531 z M 8.9628906 2.9960938 C 10.064248 2.9616148 11.000019 3.8272938 11 5 L 11 9 C 10.999154 10.411905 10.073942 11.64487 8.71875 12.041016 A 1 1 0 0 0 8.0410156 13.28125 A 1 1 0 0 0 9.28125 13.958984 C 9.9204484 13.772136 10.499021 13.466886 11 13.072266 L 11 18 A 1 1 0 0 0 11 18.001953 C 10.9959 19.746438 9.5480592 21.10324 7.8066406 20.990234 C 6.5280402 20.907263 5.5087615 20.059325 5.1445312 18.929688 C 5.4197065 18.975585 5.7047025 18.999987 6 19 A 1 1 0 0 0 7 18 A 1 1 0 0 0 6 17 C 5.5072493 16.999978 5.0752792 16.905695 4.703125 16.740234 A 1 1 0 0 0 4.3027344 16.521484 C 3.6915575 16.114535 3.2909928 15.484298 3.1015625 14.777344 C 2.8148872 13.707471 3.0342685 12.549405 4.0136719 11.738281 A 1 1 0 0 0 4.1640625 11.621094 C 4.2683482 11.544412 4.3803714 11.471419 4.5 11.402344 A 1 1 0 0 0 4.8652344 10.035156 A 1 1 0 0 0 4.0410156 9.5371094 C 3.8179779 8.3667367 4.3161456 7.181086 5.2988281 6.5195312 C 5.3655842 6.6824431 5.444316 6.8426785 5.5351562 7 A 1 1 0 0 0 6.9023438 7.3652344 A 1 1 0 0 0 7.2675781 6 C 7.1168041 5.7388824 7.0295036 5.4639226 7 5.1914062 A 1 1 0 0 0 6.9882812 4.9609375 C 6.9963933 4.1067016 7.5616308 3.3150879 8.4824219 3.0683594 C 8.6442433 3.0249989 8.8055539 3.0010193 8.9628906 2.9960938 z M 15.037109 2.9960938 C 15.194446 3.0010193 15.355757 3.0249989 15.517578 3.0683594 C 16.438369 3.315088 17.003607 4.1067015 17.011719 4.9609375 A 1 1 0 0 0 17 5.1914062 C 16.970496 5.4639227 16.883196 5.7388824 16.732422 6 A 1 1 0 0 0 17.097656 7.3652344 A 1 1 0 0 0 18.464844 7 C 18.555684 6.8426786 18.634416 6.682443 18.701172 6.5195312 C 19.683926 7.1811346 20.182144 8.3666531 19.958984 9.5371094 A 1 1 0 0 0 19.742188 9.5703125 A 1 1 0 0 0 19.134766 10.035156 A 1 1 0 0 0 19.5 11.402344 C 19.619629 11.471419 19.731652 11.544412 19.835938 11.621094 A 1 1 0 0 0 19.986328 11.738281 C 20.965731 12.549405 21.185113 13.707471 20.898438 14.777344 C 20.709007 15.484298 20.308443 16.114535 19.697266 16.521484 A 1 1 0 0 0 19.296875 16.740234 C 18.924721 16.905695 18.492751 16.999978 18 17 A 1 1 0 0 0 17 18 A 1 1 0 0 0 18 19 C 18.295297 18.999987 18.580294 18.975585 18.855469 18.929688 C 18.491239 20.059325 17.47196 20.907263 16.193359 20.990234 C 14.451941 21.10324 13.004081 19.746438 13 18.001953 L 13 18 L 13 17.998047 L 13 13.072266 C 13.500979 13.466886 14.079552 13.772136 14.71875 13.958984 A 1 1 0 0 0 15.958984 13.28125 A 1 1 0 0 0 15.28125 12.041016 C 13.926058 11.64487 13.000846 10.411905 13 9 L 13 5 C 12.999981 3.8272938 13.935753 2.9616148 15.037109 2.9960938 z "/>
</svg>
