<?xml version="1.0" encoding="UTF-8" standalone="no"?>
<svg xmlns="http://www.w3.org/2000/svg" xmlns:svg="http://www.w3.org/2000/svg" width="24" height="24" viewBox="0 0 24 24" fill="currentColor" tags="medical,mind,intellect,cerebral,consciousness,genius,artificial intelligence,ai" categories="medical,science">
  <path d="M 8.9160156 0.9921875 C 7.9303285 1.0127329 6.936788 1.3595907 6.1777344 2.0761719 C 5.5647222 2.6548833 5.2225045 3.5245997 5.1113281 4.4941406 C 2.6906793 5.524757 1.5135753 8.2242894 2.4160156 10.699219 C 0.46717252 12.843574 0.76230411 16.164796 3.0859375 17.916016 C 3.0535546 20.528882 5.0049741 22.811059 7.6757812 22.984375 C 9.4249908 23.097886 11.020984 22.286507 12 20.984375 C 12.97901 22.286534 14.574988 23.097887 16.324219 22.984375 C 18.995026 22.811059 20.946445 20.528882 20.914062 17.916016 C 23.237696 16.164796 23.532827 12.843574 21.583984 10.699219 C 22.486425 8.2242424 21.309321 5.524757 18.888672 4.4941406 C 18.777496 3.5245997 18.435278 2.6548833 17.822266 2.0761719 C 17.063212 1.3595907 16.069672 1.0127329 15.083984 0.9921875 C 14.098297 0.97164208 13.090988 1.276608 12.302734 1.9609375 C 12.196736 2.0529607 12.09562 2.151882 12 2.2578125 C 11.90438 2.151882 11.803264 2.0529607 11.697266 1.9609375 C 10.909012 1.276608 9.9017028 0.97164208 8.9160156 0.9921875 z M 8.9589844 2.9921875 C 9.4968993 2.9809753 10.023112 3.1550349 10.386719 3.4707031 C 10.750325 3.7863713 11.002275 4.2239339 11 4.9960938 A 1.0001 1.0001 0 0 0 11 5 C 11.000003 5.0013357 10.999996 5.0025701 11 5.0039062 L 11 8.9785156 C 10.910417 10.380852 9.9956334 11.589588 8.6679688 12.056641 A 1 1 0 0 0 8.0566406 13.332031 A 1 1 0 0 0 9.3320312 13.943359 C 9.9661946 13.72027 10.520966 13.377297 11 12.951172 L 11 18 A 1.0001 1.0001 0 0 0 11 18.001953 C 10.99591 19.746454 9.5480694 21.103241 7.8066406 20.990234 C 6.5267393 20.907178 5.5058427 20.057142 5.1425781 18.925781 C 5.4246934 18.974667 5.7116062 19.000135 6 19 A 1 1 0 0 0 7 18 A 1 1 0 0 0 6 17 C 5.5041977 17.000231 5.0145229 16.87861 4.578125 16.644531 A 1.0001 1.0001 0 0 0 4.5253906 16.611328 C 2.6543082 15.555202 2.4398098 13.026653 4.1074219 11.671875 A 1.0001 1.0001 0 0 0 4.109375 11.671875 C 4.2465798 11.560129 4.3921519 11.460867 4.546875 11.375 A 1 1 0 0 0 4.9355469 10.015625 A 1 1 0 0 0 4.3378906 9.5390625 A 1 1 0 0 0 4.0351562 9.5 C 3.8293467 8.3414719 4.3261874 7.1741082 5.2988281 6.5195312 C 5.3664286 6.6845423 5.445672 6.844669 5.5351562 7 A 1 1 0 0 0 6.9003906 7.3671875 A 1 1 0 0 0 7.2675781 6 C 7.108978 5.7246944 7.0173444 5.41679 7.0019531 5.0996094 A 1.0001 1.0001 0 0 0 7.0019531 5.0839844 A 1 1 0 0 0 7.0019531 5.0800781 C 6.9675045 4.3086837 7.2006442 3.8598422 7.5507812 3.5292969 C 7.9009183 3.1987516 8.4210691 3.0033997 8.9589844 2.9921875 z M 15.041016 2.9921875 C 15.578931 3.0033995 16.099082 3.1987516 16.449219 3.5292969 C 16.799356 3.8598422 17.032495 4.3086837 16.998047 5.0800781 A 1 1 0 0 0 16.998047 5.0839844 A 1.0001 1.0001 0 0 0 16.998047 5.0996094 C 16.982518 5.4169522 16.891303 5.7246642 16.732422 6 A 1 1 0 0 0 17.099609 7.3652344 A 1 1 0 0 0 18.464844 7 C 18.554419 6.8447684 18.633394 6.6844543 18.701172 6.5195312 C 19.673535 7.1741601 20.17062 8.3416406 19.964844 9.5 A 1 1 0 0 0 19.064453 10.015625 A 1 1 0 0 0 19.453125 11.375 C 19.607848 11.46087 19.75342 11.560129 19.890625 11.671875 A 1.0001 1.0001 0 0 0 19.892578 11.671875 C 21.56019 13.026653 21.345692 15.555202 19.474609 16.611328 A 1.0001 1.0001 0 0 0 19.421875 16.644531 C 18.985487 16.878596 18.495789 17.000231 18 17 A 1 1 0 0 0 17 18 A 1 1 0 0 0 18 19 C 18.288393 19.000135 18.575307 18.974667 18.857422 18.925781 C 18.494157 20.057142 17.473261 20.907178 16.193359 20.990234 C 14.451933 21.103241 13.004063 19.746454 13 18.001953 A 1.0001 1.0001 0 0 0 13 18 L 13 12.951172 C 13.479034 13.377297 14.033805 13.72027 14.667969 13.943359 A 1 1 0 0 0 15.943359 13.332031 A 1 1 0 0 0 15.332031 12.056641 C 14.004367 11.589588 13.089578 10.380852 13 8.9785156 L 13 5 A 1.0001 1.0001 0 0 0 13 4.9960938 C 12.9977 4.223934 13.249675 3.7863713 13.613281 3.4707031 C 13.976888 3.1550349 14.503101 2.9809753 15.041016 2.9921875 z "/>
</svg>
