<?xml version="1.0" encoding="UTF-8" standalone="no"?>
<svg xmlns="http://www.w3.org/2000/svg" xmlns:svg="http://www.w3.org/2000/svg" width="24" height="24" viewBox="0 0 24 24" fill="currentColor" tags="mind,intellect,artificial intelligence,ai,deep learning,machine learning,computing" categories="science,development">
  <path d="M 15.097656 1.0019531 C 14.788127 0.99541489 14.482508 1.0262863 14.1875 1.0898438 C 13.333991 1.2737264 12.63449 1.7994745 12.064453 2.4472656 C 11.516381 1.7964571 10.784055 1.3259273 9.9941406 1.1230469 C 8.3878308 0.71048486 6.4549165 1.3215175 5.4941406 3.0722656 C 5.2604408 3.4976515 5.2355426 3.9882045 5.1679688 4.4648438 C 2.731696 5.4639429 1.427519 8.1774765 2.2753906 10.640625 C 1.1888947 11.839982 0.8030267 13.48103 1.0898438 14.955078 C 1.3195771 16.135754 1.9899422 17.253482 2.9960938 18.013672 C 2.9829497 20.321656 4.5255615 22.105316 6.3945312 22.738281 C 8.2972116 23.382663 10.616918 22.815071 12 20.890625 C 13.38297 22.814631 15.702974 23.382344 17.605469 22.738281 C 19.474825 22.105437 21.017401 20.320527 21.003906 18.011719 C 22.009009 17.251559 22.678606 16.134594 22.908203 14.955078 C 23.194891 13.482269 22.809618 11.843644 21.724609 10.644531 C 22.581272 8.1805999 21.351352 5.4055081 18.941406 4.390625 C 18.700313 2.8974214 17.628724 1.5637197 16.035156 1.1367188 C 15.720625 1.0524392 15.407186 1.0084914 15.097656 1.0019531 z M 8.8691406 2.9863281 C 9.0777871 2.98093 9.2890731 3.0068744 9.4980469 3.0605469 C 10.333942 3.2752368 11.001 3.8916875 11 5 A 1.0001 1.0001 0 0 0 13 5 C 12.999941 3.6597321 14.222987 2.72147 15.517578 3.0683594 C 16.438369 3.315088 17.003607 4.1067015 17.011719 4.9609375 A 1 1 0 0 0 17 5.1914062 C 16.970496 5.4639227 16.883196 5.7388824 16.732422 6 A 1 1 0 0 0 17.097656 7.3652344 A 1 1 0 0 0 18.464844 7 C 18.555682 6.8426817 18.634417 6.6824396 18.701172 6.5195312 C 19.648226 7.1569849 20.145133 8.2801672 19.980469 9.4082031 C 19.947553 9.3940731 19.914322 9.380778 19.880859 9.3671875 A 1 1 0 0 0 18.578125 9.9179688 A 1 1 0 0 0 19.128906 11.220703 C 19.36853 11.318025 19.583192 11.431544 19.773438 11.558594 A 1 1 0 0 0 20.048828 11.777344 A 1 1 0 0 0 20.082031 11.794922 C 20.916174 12.522798 21.141165 13.566106 20.945312 14.572266 C 20.792886 15.355336 20.394471 16.064789 19.732422 16.511719 A 1 1 0 0 0 19.28125 16.755859 C 18.915881 16.910979 18.491103 16.99937 18.003906 17 A 1 1 0 0 0 17.005859 18.001953 A 1 1 0 0 0 18.005859 19 C 18.314937 18.999604 18.612518 18.973501 18.898438 18.923828 C 18.624739 19.89349 17.870348 20.536543 16.962891 20.84375 C 15.694751 21.273061 14.266081 20.998991 13.402344 19.5 C 13.025994 18.849752 12.455436 18.767578 12 18.767578 C 11.544564 18.767578 10.974006 18.849748 10.597656 19.5 C 9.7338429 20.999417 8.3034469 21.273283 7.0351562 20.84375 C 6.1277458 20.536437 5.374728 19.893187 5.1015625 18.923828 C 5.38945 18.973652 5.6886307 19.000174 6 19 A 1 1 0 0 0 7 18 A 1 1 0 0 0 6 17 C 5.5122691 17.000272 5.08656 16.912329 4.7207031 16.757812 A 1 1 0 0 0 4.2617188 16.509766 C 3.600961 16.062792 3.2049962 15.35479 3.0527344 14.572266 C 2.8571042 13.566856 3.0820342 12.524311 3.9140625 11.796875 A 1 1 0 0 0 3.9511719 11.777344 A 1 1 0 0 0 4.2304688 11.554688 C 4.4211349 11.427919 4.6349078 11.315704 4.875 11.21875 A 1 1 0 0 0 5.4277344 9.9160156 A 1 1 0 0 0 4.125 9.3632812 C 4.0894758 9.3776266 4.0544402 9.3932501 4.0195312 9.4082031 C 3.8554882 8.2803038 4.3535357 7.1546285 5.3007812 6.5175781 C 5.3688571 6.6826544 5.4472048 6.8444566 5.5371094 7 A 1 1 0 0 0 6.9023438 7.3652344 A 1 1 0 0 0 7.2675781 6 C 7.1062177 5.7208313 7.0157504 5.4061259 7.0019531 5.0839844 A 1.0001 1.0001 0 0 0 7.0019531 5.0820312 C 6.9865896 4.7170757 7.0702093 4.3553053 7.2460938 4.0351562 C 7.6459988 3.3064402 8.2432013 3.0025224 8.8691406 2.9863281 z M 10.46875 7.3046875 A 1 1 0 0 0 10.085938 7.3808594 A 1 1 0 0 0 9.5449219 8.6875 L 9.5957031 8.8105469 C 9.2992594 9.03502 9.03502 9.2992594 8.8105469 9.5957031 L 8.6875 9.5449219 A 1 1 0 0 0 7.3808594 10.085938 A 1 1 0 0 0 7.921875 11.392578 L 8.0390625 11.441406 C 8.0131528 11.624122 8 11.810512 8 12 C 8 12.189488 8.0131528 12.375878 8.0390625 12.558594 L 7.921875 12.607422 A 1 1 0 0 0 7.3808594 13.914062 A 1 1 0 0 0 8.6875 14.455078 L 8.8105469 14.404297 C 9.03502 14.700741 9.2992594 14.96498 9.5957031 15.189453 L 9.5449219 15.3125 A 1 1 0 0 0 10.085938 16.619141 A 1 1 0 0 0 11.392578 16.078125 L 11.441406 15.960938 C 11.624122 15.986847 11.810512 16 12 16 C 12.188931 16 12.374439 15.986698 12.556641 15.960938 L 12.605469 16.078125 A 1 1 0 0 0 13.912109 16.621094 A 1 1 0 0 0 14.455078 15.314453 L 14.404297 15.189453 C 14.70099 14.96488 14.964825 14.700946 15.189453 14.404297 L 15.3125 14.455078 A 1 1 0 0 0 16.619141 13.914062 A 1 1 0 0 0 16.078125 12.607422 L 15.960938 12.558594 C 15.986847 12.375878 16 12.189488 16 12 C 16 11.810512 15.986847 11.624122 15.960938 11.441406 L 16.078125 11.392578 A 1 1 0 0 0 16.619141 10.085938 A 1 1 0 0 0 15.3125 9.5449219 L 15.189453 9.5957031 C 14.96498 9.2992594 14.700741 9.03502 14.404297 8.8105469 L 14.455078 8.6875 A 1 1 0 0 0 13.914062 7.3808594 A 1 1 0 0 0 13.148438 7.3808594 A 1 1 0 0 0 12.607422 7.921875 L 12.558594 8.0390625 C 12.375878 8.0131528 12.189488 8 12 8 C 11.810512 8 11.624122 8.0131528 11.441406 8.0390625 L 11.392578 7.921875 A 1 1 0 0 0 10.46875 7.3046875 z M 12 10 C 12.248407 10 12.484941 10.044679 12.703125 10.125 A 1 1 0 0 0 12.765625 10.152344 A 1 1 0 0 0 12.835938 10.179688 C 13.27285 10.37762 13.62238 10.72715 13.820312 11.164062 A 1 1 0 0 0 13.847656 11.234375 A 1 1 0 0 0 13.875 11.296875 C 13.955321 11.515059 14 11.751593 14 12 C 14 12.248407 13.955321 12.484941 13.875 12.703125 A 1 1 0 0 0 13.847656 12.765625 A 1 1 0 0 0 13.820312 12.835938 C 13.622309 13.273008 13.273071 13.624372 12.835938 13.822266 A 1 1 0 0 0 12.765625 13.847656 A 1 1 0 0 0 12.703125 13.875 C 12.484941 13.955321 12.248407 14 12 14 C 11.751593 14 11.515059 13.955321 11.296875 13.875 A 1 1 0 0 0 11.234375 13.847656 A 1 1 0 0 0 11.164062 13.820312 C 10.72715 13.62238 10.37762 13.27285 10.179688 12.835938 A 1 1 0 0 0 10.152344 12.765625 A 1 1 0 0 0 10.125 12.703125 C 10.044679 12.484941 10 12.248407 10 12 C 10 11.751593 10.044679 11.515059 10.125 11.296875 A 1 1 0 0 0 10.152344 11.234375 A 1 1 0 0 0 10.179688 11.164062 C 10.37762 10.72715 10.72715 10.37762 11.164062 10.179688 A 1 1 0 0 0 11.234375 10.152344 A 1 1 0 0 0 11.296875 10.125 C 11.515059 10.044679 11.751593 10 12 10 z "/>
</svg>
