<?xml version="1.0" encoding="UTF-8" standalone="no"?>
<svg xmlns="http://www.w3.org/2000/svg" xmlns:svg="http://www.w3.org/2000/svg" width="24" height="24" viewBox="0 0 24 24" fill="currentColor" tags="mind,intellect,artificial intelligence,ai,deep learning,machine learning,computing" categories="science,development">
  <path d="M 8.90625 1.0097656 C 7.9222497 1.0330653 6.9302957 1.3810011 6.1738281 2.0976562 C 5.5630879 2.6762536 5.2221751 3.5446835 5.1113281 4.5117188 C 2.6910953 5.542158 1.514452 8.2402262 2.4160156 10.714844 C 0.47046598 12.854581 0.76177412 16.166921 3.0722656 17.921875 C 3.0202127 20.398648 4.6653693 22.279178 6.6699219 22.832031 C 8.5377487 23.347176 10.712895 22.690752 12 20.867188 C 13.287105 22.690752 15.462251 23.347176 17.330078 22.832031 C 19.334631 22.279178 20.979788 20.398648 20.927734 17.921875 C 23.238226 16.166921 23.529534 12.854581 21.583984 10.714844 C 22.485548 8.2402262 21.308904 5.542158 18.888672 4.5117188 C 18.777825 3.5446835 18.436912 2.6762536 17.826172 2.0976562 C 17.069705 1.3810011 16.07775 1.0330653 15.09375 1.0097656 C 14.10975 0.986466 13.103992 1.2867489 12.314453 1.9667969 C 12.183888 2.0792559 12.114785 2.2612721 12 2.3945312 C 11.885215 2.2612721 11.816112 2.0792559 11.685547 1.9667969 C 10.896008 1.2867489 9.8902503 0.986466 8.90625 1.0097656 z M 8.953125 3.0078125 C 9.4897776 2.9951054 10.016444 3.1685426 10.380859 3.4824219 C 10.745275 3.7963012 10.997919 4.232458 11 5.0019531 A 1 1 0 0 0 11.121094 5.2929688 A 1 1 0 0 0 11.292969 5.7070312 A 1 1 0 0 0 11.707031 5.8789062 A 1 1 0 0 0 11.998047 6 A 1 1 0 0 0 12 5.9980469 A 1 1 0 0 0 12.001953 6 A 1 1 0 0 0 13 5.0019531 C 13.0021 4.232458 13.254725 3.7963012 13.619141 3.4824219 C 13.983556 3.1685426 14.510223 2.9951054 15.046875 3.0078125 C 15.583527 3.0205195 16.10202 3.2180527 16.451172 3.5488281 C 16.800323 3.8796036 17.032388 4.328925 16.998047 5.0976562 C 16.982701 5.4154526 16.891518 5.7242917 16.732422 6 A 1 1 0 0 0 17.099609 7.3652344 A 1 1 0 0 0 18.464844 7 C 18.551809 6.849293 18.62693 6.6930776 18.693359 6.5332031 C 19.666207 7.1835075 20.163789 8.3442478 19.964844 9.5 A 1 1 0 0 0 19.662109 9.5390625 A 1 1 0 0 0 19.064453 10.015625 A 1 1 0 0 0 19.453125 11.375 C 19.598112 11.455467 19.735673 11.547152 19.865234 11.650391 A 1.0001 1.0001 0 0 0 19.892578 11.6875 C 21.534487 13.021395 21.348557 15.4922 19.556641 16.576172 A 1 1 0 0 0 19.476562 16.613281 C 19.026323 16.867234 18.516922 17.000241 18 17 A 1 1 0 0 0 17 18 A 1 1 0 0 0 18 19 C 18.305047 19.000142 18.608428 18.972622 18.90625 18.917969 C 18.626475 19.974093 17.788752 20.630738 16.796875 20.904297 C 15.451226 21.275425 13.987316 20.896996 13.251953 19.210938 C 13.208183 19.097139 13.172782 18.98083 13.148438 18.861328 A 1.0001 1.0001 0 0 0 13.144531 18.841797 C 13.063353 18.477926 12.790682 18.217512 12.576172 18.103516 C 12.361662 17.989519 12.179694 17.962891 12 17.962891 C 11.820306 17.962891 11.63727 17.990531 11.421875 18.105469 C 11.20648 18.220405 10.934186 18.484137 10.855469 18.849609 A 1.0001 1.0001 0 0 0 10.853516 18.859375 C 10.828676 18.980319 10.790826 19.09784 10.746094 19.212891 C 10.010283 20.896276 8.5479432 21.275197 7.203125 20.904297 C 6.2112828 20.630713 5.3735225 19.974095 5.09375 18.917969 C 5.391572 18.972622 5.6949529 19.000142 6 19 A 1 1 0 0 0 7 18 A 1 1 0 0 0 6 17 C 5.483077 17.000241 4.9736774 16.867237 4.5234375 16.613281 A 1 1 0 0 0 4.4433594 16.576172 C 2.6514439 15.4922 2.4655136 13.021395 4.1074219 11.6875 A 1.0001 1.0001 0 0 0 4.2109375 11.591797 A 1.0001 1.0001 0 0 0 4.2128906 11.589844 C 4.3189686 11.510759 4.4308329 11.4394 4.546875 11.375 A 1 1 0 0 0 4.9355469 10.015625 A 1 1 0 0 0 4.3378906 9.5390625 A 1 1 0 0 0 4.0351562 9.5 C 3.8362106 8.3442478 4.3337932 7.1835075 5.3066406 6.5332031 C 5.3729019 6.6931709 5.4482763 6.8491897 5.5351562 7 A 1 1 0 0 0 6.9003906 7.3671875 A 1 1 0 0 0 7.2675781 6 C 7.108712 5.7242327 7.017116 5.4153986 7.0019531 5.0976562 C 6.9676118 4.328925 7.1996771 3.8796036 7.5488281 3.5488281 C 7.8979792 3.2180527 8.4164724 3.0205196 8.953125 3.0078125 z M 10.453125 7.3027344 A 1 1 0 0 0 9.9941406 7.3867188 A 1 1 0 0 0 9.4863281 8.7070312 L 9.5488281 8.8476562 C 9.262504 9.0711615 9.0079545 9.3314932 8.7910156 9.6230469 L 8.7070312 9.5859375 A 1 1 0 0 0 7.9414062 9.5664062 A 1 1 0 0 0 7.3867188 10.09375 A 1 1 0 0 0 7.8945312 11.414062 L 8.0371094 11.476562 C 8.0142605 11.648404 8 11.822248 8 12 C 8 12.210067 8.0171055 12.415564 8.0488281 12.617188 L 7.8945312 12.685547 A 1 1 0 0 0 7.3867188 14.005859 A 1 1 0 0 0 8.7070312 14.513672 L 8.8476562 14.451172 C 9.0711615 14.737496 9.3314932 14.992045 9.6230469 15.208984 L 9.5859375 15.292969 A 1 1 0 0 0 10.09375 16.613281 A 1 1 0 0 0 11.414062 16.105469 L 11.476562 15.962891 C 11.648404 15.98574 11.822248 16 12 16 C 12.210067 16 12.415564 15.982895 12.617188 15.951172 L 12.685547 16.105469 A 1 1 0 0 0 14.005859 16.613281 A 1 1 0 0 0 14.513672 15.292969 L 14.451172 15.152344 C 14.737496 14.928838 14.992045 14.668507 15.208984 14.376953 L 15.292969 14.414062 A 1 1 0 0 0 16.613281 13.90625 A 1 1 0 0 0 16.105469 12.585938 L 15.962891 12.523438 C 15.98574 12.351596 16 12.177752 16 12 C 16 11.789933 15.982895 11.584436 15.951172 11.382812 L 16.105469 11.314453 A 1 1 0 0 0 16.613281 9.9941406 A 1 1 0 0 0 15.292969 9.4863281 L 15.152344 9.5488281 C 14.928838 9.262504 14.668507 9.0079545 14.376953 8.7910156 L 14.414062 8.7070312 A 1 1 0 0 0 13.90625 7.3867188 A 1 1 0 0 0 13.140625 7.3671875 A 1 1 0 0 0 12.585938 7.8945312 L 12.523438 8.0371094 C 12.351596 8.0142605 12.177752 8 12 8 C 11.789933 8 11.584436 8.0171055 11.382812 8.0488281 L 11.314453 7.8945312 A 1 1 0 0 0 10.759766 7.3671875 A 1 1 0 0 0 10.453125 7.3027344 z M 12 10 C 13.116412 10 14 10.883588 14 12 C 14 13.116412 13.116412 14 12 14 C 10.883588 14 10 13.116412 10 12 C 10 10.883588 10.883588 10 12 10 z "/>
</svg>
