<?xml version="1.0" encoding="UTF-8" standalone="no"?>
<svg xmlns="http://www.w3.org/2000/svg" xmlns:svg="http://www.w3.org/2000/svg" width="24" height="24" viewBox="0 0 24 24" fill="currentColor" tags="mind,intellect,artificial intelligence,ai,deep learning,machine learning,computing" categories="science,development">
  <path d="M 8.9160156 0.9921875 C 7.9303305 1.0127329 6.9367865 1.3595921 6.1777344 2.0761719 C 5.5647234 2.6548821 5.2225043 3.5246017 5.1113281 4.4941406 C 2.6906841 5.524755 1.5135771 8.2242943 2.4160156 10.699219 C 0.46717642 12.84357 0.76230875 16.164799 3.0859375 17.916016 C 3.0535546 20.528876 5.0049795 22.811059 7.6757812 22.984375 C 10.200923 23.148238 12.407042 21.385835 12.898438 19 L 18 19 C 18.52887 19 18.944189 19.383771 18.994141 19.896484 C 18.692068 20.172544 18.5 20.567171 18.5 21 C 18.5 21.816581 19.183419 22.5 20 22.5 C 20.816581 22.5 21.5 21.816581 21.5 21 C 21.5 20.563312 21.304787 20.165039 20.998047 19.888672 C 20.938862 18.294059 19.607923 17 18 17 L 13 17 L 13 14 L 14.890625 14 C 15.166921 14.305578 15.564271 14.5 16 14.5 C 16.816581 14.5 17.5 13.816581 17.5 13 C 17.5 12.183419 16.816581 11.5 16 11.5 C 15.564271 11.5 15.166921 11.694422 14.890625 12 L 13 12 L 13 9 L 18.890625 9 C 19.166921 9.3055776 19.564271 9.5 20 9.5 C 20.816581 9.5 21.5 8.8165809 21.5 8 C 21.5 7.1834191 20.816581 6.5 20 6.5 C 19.564271 6.5 19.166921 6.6944224 18.890625 7 L 17 7 L 17 5 C 17 4.7266284 17.103733 4.48477 17.273438 4.3066406 C 17.489893 4.4292438 17.73792 4.5 18 4.5 C 18.816581 4.5 19.5 3.8165809 19.5 3 C 19.5 2.1834191 18.816581 1.5 18 1.5 C 17.428452 1.5 16.922318 1.8354744 16.669922 2.3164062 C 15.68436 2.8105796 15 3.8315851 15 5 L 15 7 L 13 7 L 13 5.0039062 C 13.00376 3.7279293 12.485518 2.6452656 11.697266 1.9609375 C 10.909013 1.2766094 9.9017008 0.97164212 8.9160156 0.9921875 z M 8.9589844 2.9921875 C 9.4968981 2.9809753 10.023113 3.1550356 10.386719 3.4707031 C 10.750324 3.7863707 11.002275 4.2239355 11 4.9960938 A 1.0001 1.0001 0 0 0 11 5 L 11 8.9726562 C 10.912534 10.377405 9.9974231 11.588958 8.6679688 12.056641 A 1 1 0 0 0 8.0566406 13.332031 A 1 1 0 0 0 9.3320312 13.943359 C 9.9503644 13.725839 10.511719 13.404295 11 13.001953 L 11 18 C 10.997 19.745449 9.5487239 21.103283 7.8066406 20.990234 C 6.5270303 20.907197 5.5099634 20.056759 5.1464844 18.925781 C 5.4274474 18.974258 5.7128247 19.000134 6 19 A 1 1 0 0 0 7 18 A 1 1 0 0 0 6 17 C 5.4977904 17.000234 5.0031558 16.874794 4.5625 16.634766 A 1.0001 1.0001 0 0 0 4.5253906 16.611328 C 2.654312 15.555204 2.4398131 13.02665 4.1074219 11.671875 A 1.0001 1.0001 0 0 0 4.109375 11.671875 C 4.2465796 11.560129 4.3921522 11.460867 4.546875 11.375 A 1 1 0 0 0 4.9355469 10.015625 A 1 1 0 0 0 4.3378906 9.5390625 A 1 1 0 0 0 4.0390625 9.5 C 3.8332243 8.3409974 4.3273165 7.1739144 5.3007812 6.5195312 C 5.3683261 6.6843299 5.4457817 6.8448594 5.5351562 7 A 1 1 0 0 0 6.9003906 7.3671875 A 1 1 0 0 0 7.2675781 6 C 7.1064474 5.7203017 7.0151378 5.4065064 7.0019531 5.0839844 A 1 1 0 0 0 7.0019531 5.0800781 C 6.9675047 4.3086853 7.200645 3.8598414 7.5507812 3.5292969 C 7.9009176 3.1987522 8.4210701 3.0033997 8.9589844 2.9921875 z "/>
</svg>
