<?xml version="1.0" encoding="UTF-8" standalone="no"?>
<svg xmlns="http://www.w3.org/2000/svg" xmlns:svg="http://www.w3.org/2000/svg" width="24" height="24" viewBox="0 0 24 24" fill="currentColor" tags="mind,intellect,artificial intelligence,ai,deep learning,machine learning,computing" categories="science,development">
  <path d="M 8.90625 1.0097656 C 7.9222477 1.0330653 6.9302971 1.3809997 6.1738281 2.0976562 C 5.5630867 2.6762546 5.2221753 3.5446815 5.1113281 4.5117188 C 2.6910905 5.54216 1.5144502 8.2402214 2.4160156 10.714844 C 0.47046209 12.854585 0.76176949 16.166918 3.0722656 17.921875 C 3.0202126 20.398653 4.6653653 22.279177 6.6699219 22.832031 C 8.5377525 23.347177 10.712893 22.690756 12 20.867188 C 13.287107 22.690756 15.462247 23.347177 17.330078 22.832031 C 19.334635 22.279177 20.979788 20.398653 20.927734 17.921875 C 23.238231 16.166918 23.529538 12.854585 21.583984 10.714844 C 22.48555 8.2402214 21.308909 5.54216 18.888672 4.5117188 C 18.777825 3.5446815 18.436913 2.6762546 17.826172 2.0976562 C 17.069703 1.3809997 16.077752 1.0330653 15.09375 1.0097656 C 14.109748 0.98646595 13.103994 1.2867475 12.314453 1.9667969 C 12.183887 2.0792561 12.114785 2.2612718 12 2.3945312 C 11.885215 2.2612718 11.816113 2.0792561 11.685547 1.9667969 C 10.896006 1.2867475 9.8902523 0.98646594 8.90625 1.0097656 z M 8.953125 3.0078125 C 9.4897786 2.9951053 10.016443 3.168542 10.380859 3.4824219 C 10.745276 3.7963018 10.997919 4.2324565 11 5.0019531 A 1 1 0 0 0 11.996094 5.9980469 A 1 1 0 0 0 11.998047 6 A 1 1 0 0 0 12 5.9980469 A 1 1 0 0 0 12.001953 6 A 1 1 0 0 0 12.5 5.5 A 1 1 0 0 0 13 5.0019531 C 13.0021 4.2324565 13.254724 3.7963018 13.619141 3.4824219 C 13.983557 3.168542 14.510221 2.9951053 15.046875 3.0078125 C 15.583529 3.0205195 16.10202 3.218052 16.451172 3.5488281 C 16.793582 3.8732175 17.023643 4.3108679 17 5.0527344 A 1 1 0 0 0 16.998047 5.0839844 C 16.984659 5.4065633 16.893786 5.720361 16.732422 6 A 1 1 0 0 0 17.099609 7.3652344 A 1 1 0 0 0 18.464844 7 C 18.551951 6.8490458 18.628808 6.6933529 18.695312 6.5332031 C 19.66698 7.183783 20.167654 8.3449292 19.96875 9.5 A 1 1 0 0 0 19.064453 10.015625 A 1 1 0 0 0 19.453125 11.375 C 19.572736 11.441383 19.68784 11.515686 19.796875 11.597656 A 1.0001 1.0001 0 0 0 19.892578 11.6875 C 21.522293 13.011491 21.354477 15.458412 19.599609 16.554688 A 1 1 0 0 0 19.476562 16.613281 C 19.026322 16.867234 18.516924 17.000241 18 17 A 1 1 0 0 0 17 18 A 1 1 0 0 0 18 19 C 18.306038 19.000143 18.609449 18.972975 18.908203 18.917969 C 18.629103 19.975585 17.789549 20.630518 16.796875 20.904297 C 15.451224 21.275426 13.987318 20.896997 13.251953 19.210938 C 13.208183 19.097138 13.172783 18.98083 13.148438 18.861328 A 1.0001 1.0001 0 0 0 13.144531 18.841797 C 13.063353 18.477926 12.790682 18.217512 12.576172 18.103516 C 12.361662 17.989519 12.179694 17.962891 12 17.962891 C 11.820306 17.962891 11.637271 17.990531 11.421875 18.105469 C 11.206479 18.220405 10.934186 18.484136 10.855469 18.849609 A 1.0001 1.0001 0 0 0 10.853516 18.859375 C 10.828676 18.980319 10.790826 19.09784 10.746094 19.212891 C 10.01033 20.896246 8.5479458 21.275197 7.203125 20.904297 C 6.2104509 20.630518 5.370897 19.975585 5.0917969 18.917969 C 5.3905509 18.972975 5.6939614 19.000143 6 19 A 1 1 0 0 0 7 18 A 1 1 0 0 0 6 17 C 5.483076 17.000241 4.9736783 16.867237 4.5234375 16.613281 A 1 1 0 0 0 4.4003906 16.554688 C 2.6456714 15.458364 2.4777553 13.011451 4.1074219 11.6875 A 1.0001 1.0001 0 0 0 4.203125 11.597656 C 4.31216 11.515686 4.4272643 11.441381 4.546875 11.375 A 1 1 0 0 0 4.9355469 10.015625 A 1 1 0 0 0 4.3378906 9.5390625 A 1 1 0 0 0 4.03125 9.5 C 3.8323148 8.3447667 4.332753 7.183733 5.3046875 6.5332031 C 5.3710206 6.6934373 5.4481385 6.8489504 5.5351562 7 A 1 1 0 0 0 6.9003906 7.3671875 A 1 1 0 0 0 7.2675781 6 C 7.1064471 5.7203011 7.0151378 5.406507 7.0019531 5.0839844 A 1 1 0 0 0 7 5.0527344 C 6.9763414 4.3108304 7.2064085 3.8732265 7.5488281 3.5488281 C 7.8979799 3.218052 8.4164714 3.0205197 8.953125 3.0078125 z M 10.375 7.3007812 A 1 1 0 0 0 9.9941406 7.3867188 A 1 1 0 0 0 9.4863281 8.7070312 L 9.5488281 8.8457031 C 9.2625762 9.0691631 9.005962 9.3315697 8.7890625 9.6230469 L 8.7070312 9.5859375 A 1 1 0 0 0 7.9414062 9.5664062 A 1 1 0 0 0 7.3867188 10.09375 A 1 1 0 0 0 7.8945312 11.414062 L 8.0351562 11.476562 C 8.0124118 11.648021 8 11.822661 8 12 C 8 12.209822 8.017178 12.415787 8.0488281 12.617188 L 7.8945312 12.685547 A 1 1 0 0 0 7.3867188 14.005859 A 1 1 0 0 0 8.7070312 14.513672 L 8.8457031 14.451172 C 9.0691632 14.737424 9.3315695 14.994038 9.6230469 15.210938 L 9.5859375 15.292969 A 1 1 0 0 0 10.09375 16.613281 A 1 1 0 0 0 11.414062 16.105469 L 11.476562 15.964844 C 11.648021 15.987588 11.822661 16 12 16 C 12.209823 16 12.415787 15.982822 12.617188 15.951172 L 12.685547 16.105469 A 1 1 0 0 0 14.005859 16.613281 A 1 1 0 0 0 14.513672 15.292969 L 14.451172 15.154297 C 14.737424 14.930837 14.994038 14.66843 15.210938 14.376953 L 15.292969 14.414062 A 1 1 0 0 0 16.613281 13.90625 A 1 1 0 0 0 16.105469 12.585938 L 15.964844 12.523438 C 15.987588 12.351979 16 12.177339 16 12 C 16 11.790177 15.982822 11.584213 15.951172 11.382812 L 16.105469 11.314453 A 1 1 0 0 0 16.613281 9.9941406 A 1 1 0 0 0 15.292969 9.4863281 L 15.154297 9.5488281 C 14.930837 9.2625763 14.66843 9.0059619 14.376953 8.7890625 L 14.414062 8.7070312 A 1 1 0 0 0 13.90625 7.3867188 A 1 1 0 0 0 13.140625 7.3671875 A 1 1 0 0 0 12.585938 7.8945312 L 12.523438 8.0351562 C 12.351979 8.0124117 12.177339 8 12 8 C 11.790177 8 11.584213 8.0171779 11.382812 8.0488281 L 11.314453 7.8945312 A 1 1 0 0 0 10.759766 7.3671875 A 1 1 0 0 0 10.375 7.3007812 z M 12 10 C 13.116414 10 14 10.883586 14 12 C 14 13.116414 13.116414 14 12 14 C 10.883586 14 10 13.116414 10 12 C 10 10.883586 10.883586 10 12 10 z "/>
</svg>
