<svg xmlns="http://www.w3.org/2000/svg" xmlns:svg="http://www.w3.org/2000/svg" width="24" height="24" viewBox="0 0 24 24" fill="currentColor" tags="firewall,security,bricks,mortar,cement,materials,construction,builder,labourer,quantity surveyor,blocks,stone,campfire,camping,wilderness,outdoors,lit,warmth,wood,twigs,sticks" categories="security,home,connectivity">
  <path d="M 5 2 C 3.3549904 2 2 3.3549904 2 5 L 2 19 C 2 20.64501 3.3549904 22 5 22 L 8.9375 22 A 1 1 0 0 0 9.9375 21 A 1 1 0 0 0 9 20.001953 L 9 15.666016 A 1 1 0 0 0 9.2539062 15 A 1 1 0 0 0 8.2539062 14 L 4 14 L 4 10 L 8 10 L 11.228516 10 A 1 1 0 0 0 12.228516 9 A 1 1 0 0 0 11.228516 8 L 9 8 L 9 4 L 15 4 L 15 5.1074219 A 1 1 0 0 0 16 6.1074219 A 1 1 0 0 0 17 5.1074219 L 17 4 L 19 4 C 19.564129 4 20 4.4358706 20 5 L 20 8.2734375 A 1 1 0 0 0 21 9.2734375 A 1 1 0 0 0 22 8.2734375 L 22 5 C 22 3.3549904 20.64501 2 19 2 L 8 2 L 5 2 z M 5 4 L 7 4 L 7 8 L 4 8 L 4 5 C 4 4.4358706 4.4358706 4 5 4 z M 16.982422 8 C 16.895292 8.0088939 16.847806 8.0812809 16.763672 8.0917969 A 1 1 0 0 0 16.683594 8.0507812 A 1 1 0 0 0 16.638672 8.140625 C 16.193174 8.227332 15.78608 8.3468365 15.408203 8.6171875 C 14.919292 8.9669778 14.440481 9.4450551 14.070312 10.056641 C 13.329973 11.279811 13.216807 13.207368 14.666016 14.777344 A 1.0001 1.0001 0 0 0 14.710938 14.826172 C 14.810475 14.920664 14.845927 14.950511 14.849609 14.974609 L 14.851562 14.976562 C 14.851324 14.998919 14.823316 15.021972 14.794922 15.095703 C 14.734352 15.252998 14.482292 15.558613 14.150391 15.759766 C 13.818489 15.960918 13.429188 16.04448 13.261719 16.025391 C 13.183218 16.016442 13.149091 16.029677 13.128906 16.019531 L 13.126953 16.017578 C 13.107021 16.003151 13.098255 15.958136 13.060547 15.826172 A 1.0001 1.0001 0 0 0 11.150391 15.783203 C 10.987151 16.272939 11 16.7 11 17 C 11 20.301865 13.698137 23 17 23 C 20.301863 23 23 20.301865 23 17 A 1.0001 1.0001 0 0 0 23 16.986328 C 22.977476 15.405007 22.330169 13.894454 21.201172 12.787109 C 19.968153 11.557598 18.863245 11.425673 17.949219 8.6835938 A 1 1 0 0 0 17.417969 8.4179688 A 1 1 0 0 0 17 8 C 16.993813 8 16.988231 7.9994071 16.982422 8 z M 16.509766 10.310547 C 17.609596 12.683363 19.122301 13.536364 19.792969 14.207031 A 1.0001 1.0001 0 0 0 19.800781 14.214844 C 20.553214 14.952166 20.981401 15.954647 20.998047 17.007812 C 20.993576 19.224893 19.218182 21 17 21 C 15.12471 21 13.635567 19.704427 13.195312 17.972656 C 13.920191 18.011156 14.602822 17.825053 15.1875 17.470703 C 15.818552 17.088247 16.375663 16.558327 16.662109 15.814453 C 16.941915 15.087825 16.784637 14.078202 16.134766 13.421875 L 16.123047 13.410156 C 15.18536 12.387645 15.373259 11.767822 15.78125 11.09375 C 15.969989 10.78192 16.248671 10.510413 16.509766 10.310547 z M 4 16 L 7 16 L 7 20 L 5 20 C 4.4358706 20 4 19.564129 4 19 L 4 16 z "/>
</svg>
