<?xml version="1.0" encoding="UTF-8" standalone="no"?>
<svg xmlns="http://www.w3.org/2000/svg" xmlns:svg="http://www.w3.org/2000/svg" width="24" height="24" viewBox="0 0 24 24" fill="currentColor" tags="bricks,mortar,cement,materials,construction,builder,labourer,quantity surveyor,blocks,stone" categories="buildings,home">
  <path d="M 5 2 C 3.3552972 2 2 3.3552972 2 5 L 2 19 C 2 20.644703 3.3552972 22 5 22 L 19 22 C 20.644703 22 22 20.644703 22 19 L 22 5 C 22 3.3552972 20.644703 2 19 2 L 8 2 L 5 2 z M 5 4 L 7 4 L 7 8 L 4 8 L 4 5 C 4 4.4287028 4.4287028 4 5 4 z M 9 4 L 15 4 L 15 8 L 9 8 L 9 4 z M 17 4 L 19 4 C 19.571297 4 20 4.4287028 20 5 L 20 8 L 17 8 L 17 4 z M 4 10 L 8 10 L 11 10 L 11 14 L 4 14 L 4 10 z M 13 10 L 20 10 L 20 14 L 13 14 L 13 10 z M 4 16 L 7 16 L 7 20 L 5 20 C 4.4287028 20 4 19.571297 4 19 L 4 16 z M 9 16 L 15 16 L 15 20 L 9 20 L 9 16 z M 17 16 L 20 16 L 20 19 C 20 19.571297 19.571297 20 19 20 L 17 20 L 17 16 z "/>
</svg>
