<svg xmlns="http://www.w3.org/2000/svg" xmlns:svg="http://www.w3.org/2000/svg" width="24" height="24" viewBox="0 0 24 24" fill="currentColor" tags="firewall,security,bricks,mortar,cement,materials,construction,builder,labourer,quantity surveyor,blocks,stone,cybersecurity,secure,safety,protection,guardian,armored,armoured,defense,defence,defender,block,threat,prevention,antivirus,vigilance,vigilant,detection,scan,find,strength,strong,tough,invincible,invincibility,invulnerable,undamaged,audit,admin,verification,crest,bravery,knight,foot soldier,infantry,trooper,pawn,battle,war,military,army,cadet,scout" categories="security,home,connectivity">
  <path d="M 5 2 C 3.3549904 2 2 3.3549904 2 5 L 2 19 C 2 20.64501 3.3549904 22 5 22 L 10.75 22 A 1 1 0 0 0 11.75 21 A 1 1 0 0 0 10.75 20 L 9 20 L 9 16 L 10 16 A 1 1 0 0 0 11 15 A 1 1 0 0 0 10 14 L 4 14 L 4 10 L 8 10 L 11 10 L 11 10.257812 A 1 1 0 0 0 12 11.257812 A 1 1 0 0 0 13 10.257812 L 13 10 L 15.142578 10 A 1 1 0 0 0 16.029297 9.4609375 A 1 1 0 0 0 17 8.4609375 L 17 4 L 19 4 C 19.564129 4 20 4.4358706 20 5 L 20 9.1171875 A 1 1 0 0 0 21 10.117188 A 1 1 0 0 0 22 9.1171875 L 22 5 C 22 3.3549904 20.64501 2 19 2 L 8 2 L 5 2 z M 5 4 L 7 4 L 7 8 L 4 8 L 4 5 C 4 4.4358706 4.4358706 4 5 4 z M 9 4 L 15 4 L 15 8 L 9 8 L 9 4 z M 17.998047 11.007812 C 17.637563 11.008287 17.278379 11.127533 16.986328 11.367188 A 1.0001 1.0001 0 0 0 16.962891 11.388672 C 16.253919 12.00801 15.1 12.501953 14.5 12.501953 C 13.684514 12.501951 13.001631 13.182562 13 13.998047 A 1.0001 1.0001 0 0 0 13 14 L 13 17.498047 C 13 18.98138 13.56244 20.2214 14.419922 21.099609 C 15.273634 21.973958 16.369682 22.516494 17.494141 22.90625 C 17.815246 23.023899 18.166201 23.031674 18.490234 22.921875 A 1.0001 1.0001 0 0 0 18.5 22.917969 C 19.626361 22.525367 20.725736 21.978003 21.582031 21.099609 C 22.438293 20.221205 23 18.982927 23 17.5 L 23 14 C 23 13.183418 22.316582 12.5 21.5 12.5 C 20.896667 12.5 19.753631 12.011456 19.039062 11.386719 A 1.0001 1.0001 0 0 0 19.011719 11.365234 C 18.719035 11.126355 18.358531 11.007337 17.998047 11.007812 z M 17.724609 12.894531 C 17.733075 12.901443 17.743056 12.907653 17.751953 12.914062 L 17.75 12.914062 L 17.748047 12.914062 L 17.724609 12.894531 z M 18.001953 13.074219 C 18.865206 13.767239 19.900109 14.252711 21 14.384766 L 21 17.5 C 21 18.516073 20.687143 19.152472 20.148438 19.705078 C 19.648006 20.218425 18.872893 20.612475 18.005859 20.935547 C 17.132959 20.614126 16.354036 20.217745 15.851562 19.703125 C 15.312794 19.151334 15 18.514714 15 17.498047 L 15 14.386719 C 16.103515 14.253937 17.140849 13.76597 18.001953 13.074219 z M 4 16 L 7 16 L 7 20 L 5 20 C 4.4358706 20 4 19.564129 4 19 L 4 16 z "/>
</svg>
