<svg xmlns="http://www.w3.org/2000/svg" xmlns:svg="http://www.w3.org/2000/svg" width="24" height="24" viewBox="0 0 24 24" fill="currentColor" tags="work,bag,baggage,folder" categories="transportation">
  <path d="M 10 1 C 8.3549904 1 7 2.3549904 7 4 L 7 5 L 4 5 C 2.3552972 5 1 6.3552972 1 8 L 1 18 C 1 19.644703 2.3552972 21 4 21 L 8 21 L 16 21 L 20 21 C 21.644703 21 23 19.644703 23 18 L 23 8 C 23 6.3552972 21.644703 5 20 5 L 17 5 L 17 4 C 17 2.3549904 15.64501 1 14 1 L 10 1 z M 10 3 L 14 3 C 14.564129 3 15 3.4358706 15 4 L 15 5 L 9 5 L 9 4 C 9 3.4358706 9.4358706 3 10 3 z M 4 7 L 7 7 L 7 19 L 4 19 C 3.4287028 19 3 18.571297 3 18 L 3 8 C 3 7.4287028 3.4287028 7 4 7 z M 9 7 L 15 7 L 15 19 L 9 19 L 9 7 z M 17 7 L 20 7 C 20.571297 7 21 7.4287028 21 8 L 21 18 C 21 18.571297 20.571297 19 20 19 L 17 19 L 17 7 z "/>
</svg>
