<?xml version="1.0" encoding="UTF-8" standalone="no"?>
<svg xmlns="http://www.w3.org/2000/svg" xmlns:svg="http://www.w3.org/2000/svg" width="24" height="24" viewBox="0 0 24 24" fill="currentColor" tags="baggage,luggage,travel,suitcase,conveyor,carousel" categories="travel,transportation">
  <path d="M 10 1 C 8.3549904 1 7 2.3549904 7 4 L 7 5 L 6 5 C 4.3552972 5 3 6.3552972 3 8 L 3 14 C 3 15.644703 4.3552972 17 6 17 L 8 17 L 16 17 L 18 17 C 19.644703 17 21 15.644703 21 14 L 21 8 C 21 6.3552972 19.644703 5 18 5 L 17 5 L 17 4 C 17 2.3549904 15.64501 1 14 1 L 10 1 z M 10 3 L 14 3 C 14.564129 3 15 3.4358706 15 4 L 15 5 L 9 5 L 9 4 C 9 3.4358706 9.4358706 3 10 3 z M 6 7 L 7 7 L 7 15 L 6 15 C 5.4287028 15 5 14.571297 5 14 L 5 8 C 5 7.4287028 5.4287028 7 6 7 z M 9 7 L 15 7 L 15 15 L 9 15 L 9 7 z M 17 7 L 18 7 C 18.571297 7 19 7.4287028 19 8 L 19 14 C 19 14.571297 18.571297 15 18 15 L 17 15 L 17 7 z M 3 19 A 1 1 0 0 0 2 20 A 1 1 0 0 0 3 21 L 5 21 L 5 22 A 1 1 0 0 0 6 23 A 1 1 0 0 0 7 22 L 7 21 L 9 21 L 9 22 A 1 1 0 0 0 10 23 A 1 1 0 0 0 11 22 L 11 21 L 13 21 L 13 22 A 1 1 0 0 0 14 23 A 1 1 0 0 0 15 22 L 15 21 L 17 21 L 17 22 A 1 1 0 0 0 18 23 A 1 1 0 0 0 19 22 L 19 21 L 21 21 A 1 1 0 0 0 22 20 A 1 1 0 0 0 21 19 L 3 19 z "/>
</svg>
