<?xml version="1.0" encoding="UTF-8" standalone="no"?>
<svg xmlns="http://www.w3.org/2000/svg" xmlns:svg="http://www.w3.org/2000/svg" width="24" height="24" viewBox="0 0 24 24" fill="currentColor" tags="bring,send,move,over,forward,front,overlap,layer,order" categories="design,layout">
  <path d="M 4 1 C 2.3549936 1 1 2.3549936 1 4 L 1 8 C 1 9.6450064 2.3549936 11 4 11 A 1 1 0 0 0 5 10 A 1 1 0 0 0 4 9 C 3.4358718 9 3 8.5641282 3 8 L 3 4 C 3 3.4358718 3.4358718 3 4 3 L 8 3 C 8.5641282 3 9 3.4358718 9 4 A 1 1 0 0 0 10 5 A 1 1 0 0 0 11 4 C 11 2.3549936 9.6450064 1 8 1 L 4 1 z M 10 7 C 8.3553005 7 7 8.3553005 7 10 L 7 14 C 7 15.644699 8.3553005 17 10 17 L 14 17 C 15.644699 17 17 15.644699 17 14 L 17 10 C 17 8.3553005 15.644699 7 14 7 L 10 7 z M 10 9 L 14 9 C 14.571296 9 15 9.4287039 15 10 L 15 14 C 15 14.571296 14.571296 15 14 15 L 10 15 C 9.4287039 15 9 14.571296 9 14 L 9 10 C 9 9.4287039 9.4287039 9 10 9 z M 20 13 A 1 1 0 0 0 19 14 A 1 1 0 0 0 20 15 C 20.564128 15 21 15.435872 21 16 L 21 20 C 21 20.564128 20.564128 21 20 21 L 16 21 C 15.435872 21 15 20.564128 15 20 A 1 1 0 0 0 14 19 A 1 1 0 0 0 13 20 C 13 21.645006 14.354994 23 16 23 L 20 23 C 21.645006 23 23 21.645006 23 20 L 23 16 C 23 14.354994 21.645006 13 20 13 z "/>
</svg>
