<?xml version="1.0" encoding="UTF-8" standalone="no"?>
<svg xmlns="http://www.w3.org/2000/svg" xmlns:svg="http://www.w3.org/2000/svg" width="24" height="24" viewBox="0 0 24 24" fill="currentColor" tags="draw,paint,color,artist" categories="text,design,tools">
  <path d="M 19.335938 1.9238281 C 18.336546 1.8711708 17.258535 2.2707744 16.412109 3.1445312 L 8.3535156 11.193359 A 1 1 0 0 0 8.3515625 12.607422 A 1 1 0 0 0 9.7675781 12.607422 L 17.835938 4.546875 A 1.0001 1.0001 0 0 0 17.847656 4.5351562 C 18.344391 4.0223815 18.789102 3.8966665 19.230469 3.9199219 C 19.671836 3.9431769 20.133155 4.164405 20.484375 4.515625 C 20.835595 4.866845 21.056823 5.3281644 21.080078 5.7695312 C 21.103328 6.2108982 20.977619 6.6556087 20.464844 7.1523438 A 1.0001 1.0001 0 0 0 20.451172 7.1640625 L 12.392578 15.244141 A 1 1 0 0 0 12.394531 16.658203 A 1 1 0 0 0 13.808594 16.65625 L 21.855469 8.5878906 C 22.729225 7.7414653 23.128829 6.6634543 23.076172 5.6640625 C 23.023512 4.6646707 22.565561 3.7686853 21.898438 3.1015625 C 21.231316 2.4344397 20.33533 1.9764855 19.335938 1.9238281 z M 7.0703125 13.939453 C 4.8681438 13.939453 3.0703125 15.756007 3.0703125 17.960938 L 3.0703125 17.962891 L 3.0703125 17.964844 L 3.0722656 17.966797 L 3.0722656 17.96875 L 3.0742188 17.96875 L 3.0742188 17.970703 L 3.0722656 17.972656 C 3.0671584 17.97805 3.0498831 17.992124 3.0019531 18.037109 C 2.9060931 18.127089 2.6913485 18.260064 2.4414062 18.382812 C 2.191464 18.505562 1.9339238 18.597685 1.6191406 18.806641 C 1.461749 18.911119 1.2292309 19.038385 1.0742188 19.458984 C 0.91944012 19.878951 1.1425998 20.46377 1.3632812 20.685547 C 2.5521763 21.894501 4.1576776 23 6.0703125 23 C 8.8151088 23 11.069232 20.737694 11.070312 17.962891 L 11.070312 17.960938 C 11.076512 15.759016 9.2763766 13.946757 7.0742188 13.939453 A 1.0001 1.0001 0 0 0 7.0703125 13.939453 z M 7.0683594 15.939453 C 8.1893651 15.944253 9.0740439 16.835748 9.0703125 17.957031 A 1.0001 1.0001 0 0 0 9.0703125 17.960938 C 9.0703125 19.665223 7.724858 21 6.0703125 21 C 5.271043 21 4.4420923 20.546073 3.6621094 19.958984 C 3.8964316 19.830071 4.1291505 19.723187 4.3710938 19.496094 C 4.7283586 19.160758 5.0703125 18.606722 5.0703125 17.960938 C 5.0703125 16.826535 5.9514629 15.940493 7.0683594 15.939453 z "/>
</svg>
