<svg xmlns="http://www.w3.org/2000/svg" xmlns:svg="http://www.w3.org/2000/svg" width="24" height="24" viewBox="0 0 24 24" fill="currentColor" tags="cleaning,utensil,housekeeping,tool,sweeping,scrubbing,hygiene,maintenance,household,cleaner,chores,equipment,sanitation,bristles,handle,home care,sanitize,purify,wash,disinfect,sterilize,scrub,polish,decontaminate,wipe,spotless,remove,empty,erase,purge,eliminate" categories="home,tools,design">
  <path d="M 12 1 C 11.277778 1 10.542119 1.2353472 9.9609375 1.7519531 C 9.3797556 2.268559 9 3.0833335 9 4 L 9 9 L 6 9 C 4.3549904 9 3 10.35499 3 12 L 3 13 C 3 13.63951 3.3102998 14.216202 3.7871094 14.583984 L 2.0664062 20.486328 A 1.0001 1.0001 0 0 0 2.0546875 20.533203 C 1.7587733 21.768271 2.7299821 23.000665 4 23 L 7.9667969 23 L 8.0332031 23 L 20 23 C 21.270018 23.000665 22.241227 21.768266 21.945312 20.533203 A 1.0001 1.0001 0 0 0 21.933594 20.486328 L 20.212891 14.583984 C 20.689701 14.216202 21 13.63951 21 13 L 21 12 C 21 10.35499 19.64501 9 18 9 L 15 9 L 15 4 C 15 3.0833335 14.620244 2.268559 14.039062 1.7519531 C 13.45788 1.2353472 12.722222 1 12 1 z M 12 3 C 12.277778 3 12.542119 3.0979864 12.710938 3.2480469 C 12.879755 3.3981073 13 3.5833337 13 4 L 13 9 C 13 10.092725 13.907275 11 15 11 L 18 11 C 18.564129 11 19 11.435871 19 12 L 19 13 L 5 13 L 5 12 C 5 11.435871 5.4358706 11 6 11 L 9 11 C 10.092725 11 11 10.092725 11 9 L 11 4 C 11 3.5833337 11.120244 3.3981073 11.289062 3.2480469 C 11.45788 3.0979864 11.722222 3 12 3 z M 5.75 15 L 18.25 15 L 20 21 L 16.78125 21 L 15.970703 17.757812 A 1 1 0 0 0 14.757812 17.029297 A 1 1 0 0 0 14.029297 18.242188 L 14.71875 21 L 9.28125 21 L 9.9707031 18.242188 A 1 1 0 0 0 9.2421875 17.029297 A 1 1 0 0 0 8.0292969 17.757812 L 7.21875 21 L 4 21 L 5.75 15 z "/>
</svg>
