<?xml version="1.0" encoding="UTF-8" standalone="no"?>
<svg xmlns="http://www.w3.org/2000/svg" xmlns:svg="http://www.w3.org/2000/svg" width="24" height="24" viewBox="0 0 24 24" fill="currentColor" tags="clean,sweep,refactor,remove,draw,paint,color,artist" categories="text,design,tools">
  <path d="M 19.724609 0.96679688 C 19.006825 1.0050485 18.26044 1.3215913 17.667969 1.9140625 L 6.5839844 13 C 5.9596205 12.989642 5.3410962 13.108313 4.7773438 13.341797 C 3.2227912 13.98563 2 15.537823 2 17.5 C 2.0001144 17.911853 1.8440804 18.306864 1.5625 18.607422 C 0.98124375 19.207192 0.87008012 20.089395 1.1503906 20.765625 C 1.4341901 21.450271 2.1511946 22.000659 3 22 L 6.5 22 C 8.4621768 22 10.01437 20.777209 10.658203 19.222656 C 10.892012 18.658118 11.010762 18.0391 11 17.414062 L 14.707031 13.707031 L 22.085938 6.3320312 C 22.763047 5.6549214 23.080673 4.7776932 23.033203 3.9707031 C 22.985733 3.1637131 22.618323 2.4464473 22.085938 1.9140625 C 21.553553 1.3816777 20.836287 1.0142671 20.029297 0.96679688 C 19.928423 0.9608631 19.82715 0.96133236 19.724609 0.96679688 z M 19.816406 2.9609375 C 19.84835 2.9601428 19.880082 2.9610067 19.912109 2.9628906 C 20.168327 2.9779626 20.451807 3.1119629 20.669922 3.3300781 C 20.888037 3.5481934 21.022038 3.8316726 21.037109 4.0878906 C 21.052179 4.3441087 20.993479 4.5924593 20.669922 4.9160156 L 14 11.585938 L 12.414062 10 L 19.083984 3.3300781 C 19.367097 3.0469664 19.592801 2.9665004 19.816406 2.9609375 z M 11 11.414062 L 12.585938 13 L 10.376953 15.208984 C 10.189854 14.894227 9.958425 14.595144 9.6816406 14.318359 C 9.404502 14.041221 9.104125 13.810309 8.7890625 13.623047 L 11 11.414062 z M 6.390625 14.990234 C 6.4870944 14.984298 6.5848262 14.984472 6.6816406 14.990234 A 1 1 0 0 0 7 15.03125 C 7.4443821 15.120435 7.8793178 15.344161 8.2675781 15.732422 C 8.6556652 16.120509 8.8792936 16.555757 8.96875 17 A 1 1 0 0 0 9.0097656 17.318359 C 9.0332594 17.706257 8.9611482 18.0934 8.8105469 18.457031 C 8.445411 19.338662 7.656207 20 6.5 20 L 3 20 A 1.0001 1.0001 0 0 0 3.0214844 19.976562 C 3.6500059 19.305682 4.0002553 18.419305 4 17.5 C 4 16.343793 4.6613381 15.554589 5.5429688 15.189453 C 5.8151962 15.076707 6.1012167 15.008043 6.390625 14.990234 z "/>
</svg>
