<svg xmlns="http://www.w3.org/2000/svg" xmlns:svg="http://www.w3.org/2000/svg" width="24" height="24" viewBox="0 0 24 24" fill="currentColor" tags="water,cleaning,soap,bath,hygiene,freshness,wash,foam,cleanliness,shampoo,purity,splash,lightness,airy,relaxation,spa,bubbly,fluid,floating,drop" categories="weather">
  <path d="M 7.5 1 C 5.578848 1 4 2.578848 4 4.5 C 4 6.421152 5.578848 8 7.5 8 C 9.421152 8 11 6.421152 11 4.5 C 11 2.578848 9.421152 1 7.5 1 z M 7.5 3 C 8.3402718 3 9 3.6597282 9 4.5 C 9 5.3402718 8.3402718 6 7.5 6 C 6.6597282 6 6 5.3402718 6 4.5 C 6 3.6597282 6.6597282 3 7.5 3 z M 18.5 4 C 16.026563 4 14 6.0265633 14 8.5 C 14 10.973437 16.026563 13 18.5 13 C 20.973437 13 23 10.973437 23 8.5 C 23 6.0265633 20.973437 4 18.5 4 z M 18.5 6 C 19.892557 6 21 7.1074435 21 8.5 C 21 9.8925565 19.892557 11 18.5 11 C 17.107443 11 16 9.8925565 16 8.5 C 16 7.1074435 17.107443 6 18.5 6 z M 7.5 10 C 3.9219938 10 1 12.921994 1 16.5 C 1 20.078006 3.9219938 23 7.5 23 C 11.078006 23 14 20.078006 14 16.5 C 14 12.921994 11.078006 10 7.5 10 z M 7.5 12 C 9.997126 12 12 14.002874 12 16.5 C 12 18.997126 9.997126 21 7.5 21 C 5.002874 21 3 18.997126 3 16.5 C 3 14.002874 5.002874 12 7.5 12 z M 7.5683594 14.005859 C 7.2713343 13.994286 6.9675438 14.036902 6.6679688 14.142578 A 1 1 0 0 0 6.0585938 15.417969 A 1 1 0 0 0 7.3339844 16.027344 C 7.6883742 15.90233 8.0001086 16.124207 8 16.5 A 1 1 0 0 0 9 17.5 A 1 1 0 0 0 10 16.5 C 10.000367 15.229328 9.0251085 14.222094 7.8632812 14.035156 C 7.7664623 14.019579 7.6673677 14.009717 7.5683594 14.005859 z "/>
</svg>
