<?xml version="1.0" encoding="UTF-8" standalone="no"?>
<svg xmlns="http://www.w3.org/2000/svg" xmlns:svg="http://www.w3.org/2000/svg" width="24" height="24" viewBox="0 0 24 24" fill="currentColor" tags="water,cleaning,soap,bath,hygiene,freshness,wash,foam,cleanliness,shampoo,purity,splash,lightness,airy,relaxation,spa,bubbly,fluid,floating,drop" categories="weather">
  <path d="M 7.5 1 C 5.578848 1 4 2.578848 4 4.5 C 4 6.421152 5.578848 8 7.5 8 C 9.421152 8 11 6.421152 11 4.5 C 11 2.578848 9.421152 1 7.5 1 z M 7.5 3 C 8.3402718 3 9 3.6597282 9 4.5 C 9 5.3402718 8.3402718 6 7.5 6 C 6.6597282 6 6 5.3402718 6 4.5 C 6 3.6597282 6.6597282 3 7.5 3 z M 18.5 4 C 16.026563 4 14 6.0265633 14 8.5 C 14 10.973437 16.026563 13 18.5 13 C 20.973437 13 23 10.973437 23 8.5 C 23 6.0265633 20.973437 4 18.5 4 z M 18.5 6 C 19.892557 6 21 7.1074435 21 8.5 C 21 9.8925565 19.892557 11 18.5 11 C 17.107443 11 16 9.8925565 16 8.5 C 16 7.1074435 17.107443 6 18.5 6 z M 7.5 10 C 3.9219938 10 1 12.921994 1 16.5 C 1 20.078006 3.9219938 23 7.5 23 C 11.078006 23 14 20.078006 14 16.5 C 14 12.921994 11.078006 10 7.5 10 z M 7.5 12 C 9.997126 12 12 14.002874 12 16.5 C 12 18.997126 9.997126 21 7.5 21 C 5.002874 21 3 18.997126 3 16.5 C 3 14.002874 5.002874 12 7.5 12 z M 7.1992188 13.800781 A 1 1 0 0 0 6.1992188 14.800781 A 1 1 0 0 0 7.1992188 15.800781 C 7.7633481 15.800781 8.1992188 16.236652 8.1992188 16.800781 A 1 1 0 0 0 9.1992188 17.800781 A 1 1 0 0 0 10.199219 16.800781 C 10.199219 15.155772 8.8442284 13.800781 7.1992188 13.800781 z "/>
</svg>
