<svg xmlns="http://www.w3.org/2000/svg" xmlns:svg="http://www.w3.org/2000/svg" width="24" height="24" viewBox="0 0 24 24" fill="currentColor" tags="issue,fixed,resolved,testing,debug,code,insect,kill,exterminate,pest control" categories="development,animals">
  <path d="M 2 1 A 1 1 0 0 0 1.2929688 1.2929688 A 1 1 0 0 0 1.2929688 2.7070312 L 6.25 7.6640625 C 5.44572 8.5763731 4.9915153 9.7636504 5 11.005859 L 5 12 L 2 12 A 1 1 0 0 0 1 13 A 1 1 0 0 0 2 14 L 5 14 C 4.9979514 14.814874 5.1255965 15.577165 5.3574219 16.275391 C 3.3986855 16.96062 1.9975503 18.831674 2 21.001953 A 1 1 0 0 0 3.0019531 22 A 1 1 0 0 0 4 20.998047 C 3.9984055 19.584948 4.9566101 18.40452 6.2773438 18.082031 C 7.2221863 19.402998 8.6012939 20.334806 10.105469 20.757812 C 12.530933 21.439907 15.368897 20.824263 17.248047 18.662109 L 21.292969 22.707031 A 1 1 0 0 0 22.707031 22.707031 A 1 1 0 0 0 22.707031 21.292969 L 17.851562 16.439453 L 12.716797 11.302734 A 1 1 0 0 0 12.697266 11.283203 L 8.4355469 7.0234375 L 2.7070312 1.2929688 A 1 1 0 0 0 2 1 z M 8.0097656 1 A 1 1 0 0 0 7.3007812 1.2851562 A 1 1 0 0 0 7.2851562 2.6992188 L 9.1445312 4.5996094 A 1.0001 1.0001 0 0 0 10.574219 4.6015625 C 11.231532 3.9325203 12.04433 3.8596879 12.755859 4.1503906 C 12.96498 4.2358289 13.158968 4.3500284 13.328125 4.4921875 A 1 1 0 0 0 13.412109 4.5878906 A 1 1 0 0 0 13.529297 4.6875 C 13.819677 5.0159117 13.999551 5.4547425 14 6 L 12.699219 6 A 1 1 0 0 0 11.699219 7 A 1 1 0 0 0 12.699219 8 L 14 8 C 14.227524 8 14.44965 8.025285 14.662109 8.0722656 A 1 1 0 0 0 14.847656 8.1191406 C 16.097997 8.4808048 17 9.626007 17 11 L 17 12.339844 A 1 1 0 0 0 17.705078 13.294922 A 1 1 0 0 0 18.660156 14 L 22 14 A 1 1 0 0 0 23 13 A 1 1 0 0 0 22 12 L 19 12 L 19 11 C 19 10.533931 18.935243 10.083153 18.814453 9.6542969 C 20.688701 8.9217604 21.997589 7.0947387 22 5.0019531 A 1 1 0 0 0 21.001953 4 A 1 1 0 0 0 20 4.9980469 C 19.998423 6.340835 19.126826 7.4842432 17.886719 7.8632812 C 17.384968 7.243654 16.738053 6.7447999 16 6.4199219 L 16 6 C 15.999376 5.2427948 15.792292 4.5534528 15.445312 3.96875 L 16.707031 2.7070312 A 1 1 0 0 0 16.707031 1.2929688 A 1 1 0 0 0 15.292969 1.2929688 L 14.029297 2.5566406 C 13.862987 2.4582257 13.691169 2.3713463 13.513672 2.2988281 C 12.432595 1.857143 11.18609 2.0744026 10.083984 2.7011719 L 8.7148438 1.3007812 A 1 1 0 0 0 8.0097656 1 z M 7.6699219 9.0839844 L 11 12.414062 L 11 18.919922 C 10.881451 18.894746 10.763536 18.864949 10.646484 18.832031 C 9.4922653 18.50744 8.4601463 17.822636 7.7910156 16.806641 A 1 1 0 0 0 7.4824219 16.261719 C 7.1731722 15.614803 6.997392 14.86001 7 14.003906 A 1.0001 1.0001 0 0 0 7 14 L 7 13 L 7 11 A 1.0001 1.0001 0 0 0 7 10.994141 C 6.9951913 10.290148 7.2374629 9.617597 7.6699219 9.0839844 z M 13 14.414062 L 15.832031 17.246094 C 15.046419 18.218305 14.048476 18.764159 13 18.957031 L 13 14.414062 z "/>
</svg>
