<?xml version="1.0" encoding="UTF-8" standalone="no"?>
<svg xmlns="http://www.w3.org/2000/svg" xmlns:svg="http://www.w3.org/2000/svg" width="24" height="24" viewBox="0 0 24 24" fill="currentColor" tags="debug,code,insect" categories="development,animals">
  <path d="M 8 1 A 1 1 0 0 0 7.2929688 1.2929688 A 1 1 0 0 0 7.2929688 2.7070312 L 8.5585938 3.9726562 C 8.1790566 4.601911 7.9689604 5.3465772 8.0019531 6.1542969 L 8 6.1308594 L 8 6.4199219 C 7.2503532 6.7499034 6.5948547 7.2593659 6.0898438 7.8925781 C 4.9236083 7.5220023 4 6.3832573 4 5 A 1 1 0 0 0 3 4 A 1 1 0 0 0 2 5 C 2 7.1449865 3.3371371 8.9684271 5.1757812 9.6894531 C 5.0613862 10.107623 5 10.54688 5 11 L 5 12 L 2 12 A 1 1 0 0 0 1 13 A 1 1 0 0 0 2 14 L 5 14 C 5.000243 14.786253 5.1327384 15.550754 5.3789062 16.267578 C 3.4145061 16.949586 2 18.838026 2 21 A 1 1 0 0 0 3 22 A 1 1 0 0 0 4 21 C 4 19.622904 5.0064462 18.396272 6.3125 18.076172 C 7.1284491 19.214525 8.2843962 20.10918 9.6660156 20.597656 A 1 1 0 0 0 10.943359 19.988281 A 1 1 0 0 0 10.333984 18.712891 C 8.3334278 18.005587 7.0006558 16.121911 7 14 L 7 11 C 7 9.626007 7.9020033 8.4808048 9.1523438 8.1191406 A 1 1 0 0 0 9.3378906 8.0722656 C 9.5503505 8.025285 9.7724758 8 10 8 L 14 8 C 14.229297 7.9999935 14.45198 8.0245643 14.666016 8.0722656 A 1 1 0 0 0 14.845703 8.1191406 C 16.0894 8.4778001 16.989756 9.6108188 17 10.976562 A 1 1 0 0 0 18.007812 11.970703 A 1 1 0 0 0 19 10.962891 C 18.996689 10.52143 18.936099 10.093337 18.824219 9.6855469 C 20.643996 8.9618588 21.970703 7.14185 21.970703 5 A 1 1 0 0 0 20.970703 4 A 1 1 0 0 0 19.970703 5 C 19.970703 6.3785136 19.044719 7.5148395 17.90625 7.8886719 C 17.401937 7.2574359 16.749389 6.7492873 16.001953 6.4199219 L 16.001953 6.1308594 L 16 6.1679688 C 16.034454 5.3784864 15.833905 4.6171496 15.449219 3.9648438 L 16.707031 2.7070312 A 1 1 0 0 0 16.707031 1.2929688 A 1 1 0 0 0 15.292969 1.2929688 L 14.035156 2.5507812 C 13.887754 2.4637829 13.734468 2.3848192 13.574219 2.3164062 C 12.905299 2.0293165 12.21504 1.94458 11.556641 2.0253906 C 10.996251 2.0941716 10.459422 2.2822129 9.9804688 2.5664062 L 8.7070312 1.2929688 A 1 1 0 0 0 8 1 z M 11.947266 3.9804688 C 12.220557 3.9792973 12.504396 4.033799 12.785156 4.1542969 A 1.0001 1.0001 0 0 0 12.787109 4.1542969 C 12.991079 4.2412013 13.174755 4.3586294 13.333984 4.5 A 1 1 0 0 0 13.412109 4.5878906 A 1 1 0 0 0 13.5 4.6660156 C 13.820444 5.0264689 14.005469 5.4981496 14.003906 6 C 14.002544 5.9999989 14.001362 6 14 6 L 10 6 C 9.9985774 6 9.997516 5.9999988 9.9960938 6 C 9.9916325 5.5023031 10.152612 5.0618271 10.421875 4.7207031 A 1 1 0 0 0 10.587891 4.5878906 A 1 1 0 0 0 10.726562 4.4121094 C 11.064289 4.1393005 11.49178 3.9824212 11.947266 3.9804688 z M 15.013672 13.015625 C 13.977625 13.035368 12.996585 13.873957 13 15.005859 L 13 20.996094 C 12.9971 22.503133 14.740046 23.490944 16.03125 22.712891 L 21.025391 19.71875 C 22.288045 18.966191 22.288045 17.033809 21.025391 16.28125 L 16.033203 13.287109 L 16.03125 13.287109 C 15.708809 13.092786 15.358403 13.009056 15.013672 13.015625 z M 15 15 A 1.0001 1.0001 0 0 0 15.001953 15.001953 L 20 17.998047 A 1.0001 1.0001 0 0 0 20.001953 18 A 1.0001 1.0001 0 0 0 20 18.001953 L 15.001953 20.998047 A 1.0001 1.0001 0 0 0 15 21 A 1.0001 1.0001 0 0 0 15 20.996094 L 15 15.003906 A 1.0001 1.0001 0 0 0 15 15 z "/>
</svg>
