<?xml version="1.0" encoding="UTF-8" standalone="no"?>
<svg xmlns="http://www.w3.org/2000/svg" xmlns:svg="http://www.w3.org/2000/svg" width="24" height="24" viewBox="0 0 24 24" fill="currentColor" tags="debug,code,insect" categories="development,animals">
  <path d="M 8 1 A 1 1 0 0 0 7.2929688 1.2929688 A 1 1 0 0 0 7.2929688 2.7070312 L 8.5117188 3.9257812 C 8.1571416 4.5575297 7.964069 5.3269249 8.0019531 6.1738281 L 8 6.1308594 L 8 6.4199219 C 7.2503532 6.7499034 6.5948547 7.2593659 6.0898438 7.8925781 C 4.9236083 7.5220023 4 6.3832573 4 5 A 1 1 0 0 0 3 4 A 1 1 0 0 0 2 5 C 2 7.1449865 3.3371371 8.9684271 5.1757812 9.6894531 C 5.0613862 10.107623 5 10.54688 5 11 L 5 12 L 2 12 A 1 1 0 0 0 1 13 A 1 1 0 0 0 2 14 L 5 14 A 1.0001 1.0001 0 0 0 5 14.001953 C 5.0021269 14.780481 5.1313343 15.545099 5.3769531 16.267578 C 3.4129148 16.94979 2 18.838282 2 21 A 1 1 0 0 0 3 22 A 1 1 0 0 0 4 21 C 4 19.626939 5.0003141 18.402579 6.3007812 18.078125 C 6.5974005 18.498262 6.9409821 18.888807 7.328125 19.240234 A 1 1 0 0 0 8.7402344 19.171875 A 1 1 0 0 0 8.671875 17.759766 C 7.6106706 16.796462 7.0044605 15.433148 7 14 L 7 11 C 7 9.626007 7.9020033 8.4808048 9.1523438 8.1191406 A 1 1 0 0 0 9.3378906 8.0722656 C 9.5503505 8.025285 9.7724758 8 10 8 L 14 8 C 14.227524 8 14.44965 8.025285 14.662109 8.0722656 A 1 1 0 0 0 14.847656 8.1191406 C 16.097997 8.4808048 17 9.626007 17 11 A 1 1 0 0 0 18 12 A 1 1 0 0 0 19 11 C 19 10.54554 18.939268 10.104826 18.824219 9.6855469 C 20.644047 8.9618851 21.970703 7.1418883 21.970703 5 A 1 1 0 0 0 20.970703 4 A 1 1 0 0 0 19.970703 5 C 19.970703 6.3785749 19.044789 7.5148907 17.90625 7.8886719 C 17.401598 7.2569945 16.748341 6.7493286 16 6.4199219 L 16 6.1308594 L 15.998047 6.1738281 C 16.035961 5.3269252 15.842854 4.5575295 15.488281 3.9257812 L 16.707031 2.7070312 A 1 1 0 0 0 16.707031 1.2929688 A 1 1 0 0 0 15.292969 1.2929688 L 14.068359 2.5175781 C 13.431404 2.1613531 12.711664 1.9921875 12 1.9921875 C 11.288336 1.9921875 10.568596 2.1613531 9.9316406 2.5175781 L 8.7070312 1.2929688 A 1 1 0 0 0 8 1 z M 12 3.9921875 C 12.454676 3.9921875 12.89799 4.1243072 13.240234 4.3574219 A 1 1 0 0 0 13.412109 4.5878906 A 1 1 0 0 0 13.673828 4.7753906 C 13.885123 5.0646534 14.014949 5.4456421 14.003906 6 C 14.002325 5.9999985 14.001582 6 14 6 L 10 6 C 9.9984193 6 9.9976741 5.9999985 9.9960938 6 C 9.9850483 5.4456421 10.114877 5.0646535 10.326172 4.7753906 A 1 1 0 0 0 10.587891 4.5878906 A 1 1 0 0 0 10.759766 4.3574219 C 11.10201 4.1243072 11.545324 3.9921875 12 3.9921875 z M 12.533203 11.417969 C 12.273217 11.420858 12.016258 11.493219 11.789062 11.619141 C 11.33467 11.870986 10.999999 12.339329 11 12.902344 L 11 21.097656 C 10.999997 22.223685 12.340052 22.965936 13.294922 22.369141 L 19.173828 18.695312 C 20.392563 17.933609 20.392563 16.06639 19.173828 15.304688 L 13.294922 11.630859 C 13.056204 11.481661 12.79319 11.41508 12.533203 11.417969 z M 13 13.804688 L 18.113281 17 L 13 20.195312 L 13 13.804688 z "/>
</svg>
