<?xml version="1.0" encoding="UTF-8" standalone="no"?>
<svg xmlns="http://www.w3.org/2000/svg" xmlns:svg="http://www.w3.org/2000/svg" width="24" height="24" viewBox="0 0 24 24" fill="currentColor" tags="debug,code,insect" categories="development,animals">
  <path d="M 8 1 A 1 1 0 0 0 7.2929688 1.2929688 A 1 1 0 0 0 7.2929688 2.7070312 L 8.5117188 3.9257812 C 8.157136 4.5575325 7.9640688 5.3269191 8.0019531 6.1738281 L 8 6.1308594 L 8 6.421875 C 7.2508372 6.7518153 6.596579 7.2597515 6.0917969 7.8925781 C 4.9249672 7.5224236 4 6.3837542 4 5 A 1 1 0 0 0 3 4 A 1 1 0 0 0 2 5 C 2 7.1454977 3.3384098 8.9668308 5.1777344 9.6875 C 5.063009 10.10623 5 10.546204 5 11 L 5 12 L 2 12 A 1 1 0 0 0 1 13 A 1 1 0 0 0 2 14 L 5 14 A 1.0001 1.0001 0 0 0 5 14.001953 C 5.0021286 14.781126 5.1348441 15.544569 5.3808594 16.267578 C 3.4157432 16.949179 2 18.837524 2 21 A 1 1 0 0 0 3 22 A 1 1 0 0 0 4 21 C 4 19.62644 5.0015749 18.402041 6.3027344 18.078125 C 6.5992427 18.498 6.9411943 18.889 7.328125 19.240234 A 1 1 0 0 0 8.7402344 19.171875 A 1 1 0 0 0 8.671875 17.759766 C 8.2778945 17.402131 7.9465918 16.990071 7.6855469 16.539062 A 1 1 0 0 0 7.6660156 16.505859 C 7.2361167 15.750028 7.0027638 14.887994 7 14 L 7 11 C 7 9.5963442 7.9439174 8.4362043 9.2363281 8.1015625 A 1 1 0 0 0 9.2773438 8.0898438 C 9.5089716 8.0333625 9.7498618 8 10 8 L 14 8 C 14.250138 8 14.491028 8.0333625 14.722656 8.0898438 A 1 1 0 0 0 14.763672 8.1015625 C 16.056083 8.4362043 17 9.5963442 17 11 A 1 1 0 0 0 18 12 A 1 1 0 0 0 19 11 C 19 10.545549 18.937311 10.10482 18.822266 9.6855469 C 20.64239 8.9620418 21.970703 7.1421121 21.970703 5 A 1 1 0 0 0 20.970703 4 A 1 1 0 0 0 19.970703 5 C 19.970703 6.3795487 19.043943 7.5157079 17.904297 7.8886719 C 17.399978 7.2578237 16.747479 6.7510738 16 6.421875 L 16 6.1308594 L 15.998047 6.1738281 C 16.035962 5.3269189 15.84286 4.5575325 15.488281 3.9257812 L 16.707031 2.7070312 A 1 1 0 0 0 16.707031 1.2929688 A 1 1 0 0 0 15.292969 1.2929688 L 14.068359 2.5175781 C 13.431484 2.1614774 12.711542 1.9921875 12 1.9921875 C 11.288458 1.9921875 10.568516 2.1614774 9.9316406 2.5175781 L 8.7070312 1.2929688 A 1 1 0 0 0 8 1 z M 12 3.9921875 C 12.459926 3.9921875 12.906178 4.1290297 13.25 4.3671875 A 1 1 0 0 0 13.412109 4.5878906 A 1 1 0 0 0 13.666016 4.7675781 C 13.881276 5.0578309 14.014891 5.4401198 14.003906 6 C 14.002595 5.999999 14.001311 6 14 6 L 10 6 C 9.9986889 6 9.9974047 5.999999 9.9960938 6 C 9.9851068 5.4401199 10.118724 5.0578309 10.333984 4.7675781 A 1 1 0 0 0 10.587891 4.5878906 A 1 1 0 0 0 10.755859 4.3632812 C 11.098917 4.1276012 11.542648 3.9921875 12 3.9921875 z M 12.533203 11.417969 C 12.273217 11.420858 12.016258 11.493219 11.789062 11.619141 C 11.334671 11.870985 10.999999 12.33933 11 12.902344 L 11 21.097656 C 10.999997 22.223683 12.340054 22.965935 13.294922 22.369141 L 19.173828 18.695312 C 20.392561 17.93361 20.392561 16.06639 19.173828 15.304688 L 13.294922 11.630859 C 13.056205 11.481661 12.793189 11.41508 12.533203 11.417969 z M 13 13.804688 L 18.113281 17 L 13 20.195312 L 13 13.804688 z "/>
</svg>
