<?xml version="1.0" encoding="UTF-8" standalone="no"?>
<svg xmlns="http://www.w3.org/2000/svg" xmlns:svg="http://www.w3.org/2000/svg" width="24" height="24" viewBox="0 0 24 24" fill="currentColor" tags="debug,code,insect,kill,exterminate,pest control" categories="development,animals">
  <path d="M 2 1 A 1 1 0 0 0 1.2929688 1.2929688 A 1 1 0 0 0 1.2929688 2.7070312 L 6.25 7.6640625 C 5.4452927 8.5764761 4.9915129 9.7632974 5 11.005859 L 5 12 L 2 12 A 1 1 0 0 0 1 13 A 1 1 0 0 0 2 14 L 5 14 C 4.9979495 14.815599 5.1271571 15.576656 5.359375 16.275391 C 3.4054611 16.963285 2 18.845425 2 21 A 1 1 0 0 0 3 22 A 1 1 0 0 0 4 21 C 4 19.634723 4.9896092 18.416713 6.2792969 18.083984 C 6.2795161 18.084291 6.2810307 18.083678 6.28125 18.083984 C 7.2260316 19.403275 8.6024955 20.335144 10.105469 20.757812 C 12.53077 21.439861 15.368895 20.823909 17.248047 18.662109 L 21.292969 22.707031 A 1 1 0 0 0 22.707031 22.707031 A 1 1 0 0 0 22.707031 21.292969 L 12.738281 11.326172 A 1 1 0 0 0 12.673828 11.261719 L 2.7070312 1.2929688 A 1 1 0 0 0 2 1 z M 8.0097656 1 A 1 1 0 0 0 7.3007812 1.2851562 A 1 1 0 0 0 7.2851562 2.6992188 L 9.1445312 4.5996094 A 1.0001 1.0001 0 0 0 10.574219 4.6015625 C 11.231532 3.9325203 12.04433 3.8596879 12.755859 4.1503906 C 12.974284 4.2396301 13.175217 4.3606158 13.349609 4.5117188 A 1 1 0 0 0 13.412109 4.5878906 A 1 1 0 0 0 13.509766 4.6679688 C 13.811117 4.9986027 13.999541 5.443114 14 6 L 12.699219 6 A 1 1 0 0 0 11.699219 7 A 1 1 0 0 0 12.699219 8 L 14 8 C 14.243302 8 14.479202 8.0285087 14.705078 8.0820312 A 1 1 0 0 0 14.789062 8.1035156 C 16.069383 8.4461211 17 9.6048596 17 11 L 17 13 A 1.0001 1.0001 0 0 0 18 14 L 22 14 A 1 1 0 0 0 23 13 A 1 1 0 0 0 22 12 L 19 12 L 19 11 C 19 10.545548 18.937311 10.10482 18.822266 9.6855469 C 20.642392 8.9620415 21.970703 7.1421164 21.970703 5 A 1 1 0 0 0 20.970703 4 A 1 1 0 0 0 19.970703 5 C 19.970703 6.3795515 19.043944 7.5157078 17.904297 7.8886719 C 17.399978 7.2578232 16.74748 6.7510738 16 6.421875 L 16 6 C 15.999376 5.2427591 15.792322 4.5534704 15.445312 3.96875 L 16.707031 2.7070312 A 1 1 0 0 0 16.707031 1.2929688 A 1 1 0 0 0 15.292969 1.2929688 L 14.029297 2.5566406 C 13.863188 2.4583874 13.690936 2.3712512 13.513672 2.2988281 C 12.432595 1.857143 11.18609 2.0744026 10.083984 2.7011719 L 8.7148438 1.3007812 A 1 1 0 0 0 8.0097656 1 z M 7.6699219 9.0839844 L 11 12.414062 L 11 18.917969 C 10.881718 18.892832 10.763275 18.864875 10.646484 18.832031 C 9.4784724 18.503561 8.4378358 17.803717 7.7695312 16.767578 A 1 1 0 0 0 7.5058594 16.298828 C 7.1844609 15.642957 6.9973374 14.87794 7 14.003906 A 1.0001 1.0001 0 0 0 7 14.001953 A 1.0001 1.0001 0 0 0 7 14 L 7 11 A 1.0001 1.0001 0 0 0 7 10.998047 A 1.0001 1.0001 0 0 0 7 10.996094 A 1.0001 1.0001 0 0 0 7 10.994141 C 6.9951906 10.290049 7.2373482 9.6176329 7.6699219 9.0839844 z M 13 14.414062 L 15.828125 17.242188 C 15.042471 18.214149 14.048424 18.762327 13 18.955078 L 13 14.414062 z "/>
</svg>
