<?xml version="1.0" encoding="UTF-8" standalone="no"?>
<svg xmlns="http://www.w3.org/2000/svg" xmlns:svg="http://www.w3.org/2000/svg" width="24" height="24" viewBox="0 0 24 24" fill="currentColor" tags="issue,testing,debug,reproduce,code,insect" categories="development,animals">
  <path d="M 8 1 A 1 1 0 0 0 7.2929688 1.2929688 A 1 1 0 0 0 7.2929688 2.7070312 L 8.5234375 3.9375 C 8.1935177 4.5228912 8 5.2259501 8 6 L 8 6.4199219 C 7.2619471 6.7448 6.6150323 7.2436538 6.1132812 7.8632812 C 4.8731674 7.4842435 4.0015467 6.3408354 4 4.9980469 A 1 1 0 0 0 2.9980469 4 A 1 1 0 0 0 2 5.0019531 C 2.0024122 7.0947386 3.3112997 8.9217604 5.1855469 9.6542969 C 5.0647569 10.083153 5 10.533931 5 11 L 5 12 L 2 12 A 1 1 0 0 0 1 13 A 1 1 0 0 0 2 14 L 5 14 C 5.000243 14.786202 5.1327692 15.550795 5.3789062 16.267578 C 3.4090071 16.946637 1.9975415 18.823797 2 21.001953 A 1 1 0 0 0 3.0019531 22 A 1 1 0 0 0 4 20.998047 C 3.9983921 19.572991 4.9724864 18.384743 6.3105469 18.074219 C 7.1265856 19.213653 8.2834767 20.108855 9.6660156 20.597656 A 1 1 0 0 0 10.943359 19.988281 A 1 1 0 0 0 10.333984 18.712891 C 9.214039 18.31693 8.3035818 17.552693 7.71875 16.583984 A 1 1 0 0 0 7.625 16.421875 C 7.2240707 15.697604 7.0002684 14.868365 7 14 L 7 11 C 7 9.626007 7.9020033 8.4808048 9.1523438 8.1191406 A 1 1 0 0 0 9.3378906 8.0722656 C 9.5503505 8.025285 9.7724758 8 10 8 L 14 8 C 14.227421 7.9999936 14.447726 8.0253208 14.660156 8.0722656 A 1 1 0 0 0 14.847656 8.1191406 C 16.090127 8.4785564 16.989763 9.6116867 17 10.976562 A 1 1 0 0 0 18.007812 11.970703 A 1 1 0 0 0 19 10.962891 C 18.996602 10.509835 18.931997 10.069737 18.814453 9.6523438 C 20.688648 8.9197817 21.99759 7.0947018 22 5.0019531 A 1 1 0 0 0 21.001953 4 A 1 1 0 0 0 20 4.9980469 C 19.998424 6.3407796 19.126744 7.4841958 17.886719 7.8632812 C 17.384858 7.2435358 16.737986 6.7447365 16 6.4199219 L 16 6 C 16 5.2259501 15.806482 4.5228912 15.476562 3.9375 L 16.707031 2.7070312 A 1 1 0 0 0 16.707031 1.2929688 A 1 1 0 0 0 15.292969 1.2929688 L 14.058594 2.5273438 C 13.424566 2.1704272 12.709147 2 12 2 C 11.290853 2 10.575434 2.1704272 9.9414062 2.5273438 L 8.7070312 1.2929688 A 1 1 0 0 0 8 1 z M 12 4 C 12.460573 4 12.911839 4.1371591 13.255859 4.3828125 A 1 1 0 0 0 13.412109 4.5878906 A 1 1 0 0 0 13.640625 4.7597656 C 13.860613 5.051134 14 5.4364826 14 6 L 10 6 C 10 5.4364823 10.139386 5.051134 10.359375 4.7597656 A 1 1 0 0 0 10.587891 4.5878906 A 1 1 0 0 0 10.744141 4.3828125 C 11.08816 4.1371586 11.539427 4 12 4 z M 15.013672 13.015625 C 13.977625 13.035368 12.996585 13.873957 13 15.005859 L 13 20.996094 C 12.9971 22.503133 14.740046 23.490944 16.03125 22.712891 L 21.025391 19.71875 C 22.288045 18.966191 22.288045 17.033809 21.025391 16.28125 L 16.033203 13.287109 L 16.03125 13.287109 C 15.708809 13.092786 15.358403 13.009056 15.013672 13.015625 z M 15 15 A 1.0001 1.0001 0 0 0 15.001953 15.001953 L 20 17.998047 A 1.0001 1.0001 0 0 0 20.001953 18 A 1.0001 1.0001 0 0 0 20 18.001953 L 15.001953 20.998047 A 1.0001 1.0001 0 0 0 15 21 A 1.0001 1.0001 0 0 0 15 20.996094 L 15 15.003906 A 1.0001 1.0001 0 0 0 15 15 z "/>
</svg>
