<svg xmlns="http://www.w3.org/2000/svg" xmlns:svg="http://www.w3.org/2000/svg" width="24" height="24" viewBox="0 0 24 24" fill="currentColor" tags="issue,error,defect,testing,troubleshoot,problem,report,debug,code,insect,beetle" categories="development,animals">
  <path d="M 8 1 A 1 1 0 0 0 7.2929688 1.2929688 A 1 1 0 0 0 7.2929688 2.7070312 L 8.5234375 3.9375 C 8.1935177 4.5228912 8 5.2259501 8 6 L 8 6.4199219 C 7.2619471 6.7448 6.6150323 7.2436538 6.1132812 7.8632812 C 4.8731674 7.4842435 4.0015467 6.3408354 4 4.9980469 A 1 1 0 0 0 2.9980469 4 A 1 1 0 0 0 2 5.0019531 C 2.0024122 7.0947386 3.3112997 8.9217604 5.1855469 9.6542969 C 5.0647569 10.083153 5 10.533931 5 11 L 5 12 L 2 12 A 1 1 0 0 0 1 13 A 1 1 0 0 0 2 14 L 5 14 C 5 14.792772 5.1339199 15.555955 5.3789062 16.267578 C 3.4092035 16.946747 1.9975416 18.823936 2 21.001953 A 1 1 0 0 0 3.0019531 22 A 1 1 0 0 0 4 20.998047 C 3.9983909 19.571984 4.972979 18.381767 6.3125 18.072266 C 7.5607192 19.808399 9.5868545 20.948751 11.869141 20.992188 A 1 1 0 0 0 12 21 A 1 1 0 0 0 12.132812 20.992188 C 14.415098 20.948751 16.439281 19.808398 17.6875 18.072266 C 19.027021 18.381768 20.00161 19.571984 20 20.998047 A 1 1 0 0 0 20.998047 22 A 1 1 0 0 0 22 21.001953 C 22.002455 18.823936 20.590796 16.946747 18.621094 16.267578 C 18.86608 15.555955 19 14.792772 19 14 L 22 14 A 1 1 0 0 0 23 13 A 1 1 0 0 0 22 12 L 19 12 L 19 11 C 19 10.533931 18.935243 10.083153 18.814453 9.6542969 C 20.688701 8.9217604 21.997589 7.0947387 22 5.0019531 A 1 1 0 0 0 21.001953 4 A 1 1 0 0 0 20 4.9980469 C 19.998423 6.340835 19.126826 7.4842432 17.886719 7.8632812 C 17.384968 7.243654 16.738053 6.7447999 16 6.4199219 L 16 6 C 16 5.2259501 15.806482 4.5228912 15.476562 3.9375 L 16.707031 2.7070312 A 1 1 0 0 0 16.707031 1.2929688 A 1 1 0 0 0 15.292969 1.2929688 L 14.058594 2.5273438 C 13.424566 2.1704272 12.709147 2 12 2 C 11.290853 2 10.575434 2.1704272 9.9414062 2.5273438 L 8.7070312 1.2929688 A 1 1 0 0 0 8 1 z M 12 4 C 12.460573 4 12.911839 4.1371591 13.255859 4.3828125 A 1 1 0 0 0 13.412109 4.5878906 A 1 1 0 0 0 13.640625 4.7597656 C 13.860613 5.051134 14 5.4364826 14 6 L 10 6 C 10 5.4364823 10.139386 5.051134 10.359375 4.7597656 A 1 1 0 0 0 10.587891 4.5878906 A 1 1 0 0 0 10.744141 4.3828125 C 11.08816 4.1371586 11.539427 4 12 4 z M 10 8 L 14 8 C 14.227524 8 14.44965 8.025285 14.662109 8.0722656 A 1 1 0 0 0 14.847656 8.1191406 C 15.573654 8.3291374 16.181554 8.8038525 16.564453 9.4335938 A 1 1 0 0 0 16.613281 9.515625 C 16.859857 9.9522068 17 10.458313 17 11 L 17 14 C 17 14.867881 16.781137 15.681289 16.396484 16.390625 A 1 1 0 0 0 16.265625 16.619141 C 15.554611 17.779523 14.38317 18.622581 13 18.900391 L 13 11 A 1 1 0 0 0 12 10 A 1 1 0 0 0 11 11 L 11 18.900391 C 9.6168298 18.622581 8.4453889 17.779524 7.734375 16.619141 A 1 1 0 0 0 7.6035156 16.390625 C 7.2188626 15.681289 7 14.867881 7 14 L 7 11 C 7 9.626007 7.9020033 8.4808048 9.1523438 8.1191406 A 1 1 0 0 0 9.3378906 8.0722656 C 9.5503505 8.025285 9.7724758 8 10 8 z "/>
</svg>
