<?xml version="1.0" encoding="UTF-8" standalone="no"?>
<svg xmlns="http://www.w3.org/2000/svg" xmlns:svg="http://www.w3.org/2000/svg" width="24" height="24" viewBox="0 0 24 24" fill="currentColor" tags="issue,report,debug,code,insect" categories="development,animals">
  <path d="M 8 1 A 1 1 0 0 0 7.2929688 1.2929688 A 1 1 0 0 0 7.2929688 2.7070312 L 8.5117188 3.9257812 C 8.1571416 4.5575297 7.964069 5.3269249 8.0019531 6.1738281 L 8 6.1308594 L 8 6.4199219 C 7.2503532 6.7499034 6.5948547 7.2593659 6.0898438 7.8925781 C 4.9236083 7.5220023 4 6.3832573 4 5 A 1 1 0 0 0 3 4 A 1 1 0 0 0 2 5 C 2 7.1449865 3.3371371 8.9684271 5.1757812 9.6894531 C 5.0613862 10.107623 5 10.54688 5 11 L 5 12 L 2 12 A 1 1 0 0 0 1 13 A 1 1 0 0 0 2 14 L 5 14 C 5 14.792056 5.1347273 15.555673 5.3808594 16.267578 C 3.4157042 16.949159 2 18.837494 2 21 A 1 1 0 0 0 3 22 A 1 1 0 0 0 4 21 C 4 19.620367 5.008794 18.391558 6.3183594 18.074219 C 7.5684924 19.808109 9.5940209 20.948617 11.869141 20.992188 C 11.913195 20.993019 11.955759 21 12 21 C 12.044241 21 12.086805 20.993019 12.130859 20.992188 A 1 1 0 0 0 12.132812 20.992188 C 14.407932 20.948617 16.431508 19.808109 17.681641 18.074219 C 18.991206 18.391558 20 19.620367 20 21 A 1 1 0 0 0 21 22 A 1 1 0 0 0 22 21 C 22 18.837494 20.584296 16.949159 18.619141 16.267578 C 18.865273 15.555673 19 14.792056 19 14 L 22 14 A 1 1 0 0 0 23 13 A 1 1 0 0 0 22 12 L 19 12 L 19 11 C 19 10.54554 18.939268 10.104826 18.824219 9.6855469 C 20.644047 8.9618855 21.970703 7.1418888 21.970703 5 A 1 1 0 0 0 20.970703 4 A 1 1 0 0 0 19.970703 5 C 19.970703 6.3785749 19.044789 7.5148907 17.90625 7.8886719 C 17.401598 7.2569944 16.748341 6.7493286 16 6.4199219 L 16 6.1308594 L 15.998047 6.1738281 C 16.035961 5.3269252 15.842854 4.5575295 15.488281 3.9257812 L 16.707031 2.7070312 A 1 1 0 0 0 16.707031 1.2929688 A 1 1 0 0 0 15.292969 1.2929688 L 14.068359 2.5175781 C 13.431404 2.1613531 12.711664 1.9921875 12 1.9921875 C 11.288336 1.9921875 10.568596 2.1613531 9.9316406 2.5175781 L 8.7070312 1.2929688 A 1 1 0 0 0 8 1 z M 12 3.9921875 C 12.454676 3.9921875 12.89799 4.1243072 13.240234 4.3574219 A 1 1 0 0 0 13.412109 4.5878906 A 1 1 0 0 0 13.673828 4.7753906 C 13.885123 5.0646534 14.014949 5.4456421 14.003906 6 C 14.002325 5.9999985 14.001582 6 14 6 L 10 6 C 9.9984193 6 9.9976741 5.9999985 9.9960938 6 C 9.9850483 5.4456421 10.114877 5.0646535 10.326172 4.7753906 A 1 1 0 0 0 10.587891 4.5878906 A 1 1 0 0 0 10.759766 4.3574219 C 11.10201 4.1243072 11.545324 3.9921875 12 3.9921875 z M 10 8 L 14 8 C 14.227524 8 14.44965 8.025285 14.662109 8.0722656 A 1 1 0 0 0 14.847656 8.1191406 C 16.097997 8.4808048 17 9.626007 17 11 L 17 14 C 17 16.412239 15.277952 18.433189 13 18.898438 L 13 11 A 1 1 0 0 0 12 10 A 1 1 0 0 0 11 11 L 11 18.898438 C 8.7220479 18.433189 7 16.412239 7 14 L 7 11 C 7 9.626007 7.9020033 8.4808048 9.1523438 8.1191406 A 1 1 0 0 0 9.3378906 8.0722656 C 9.5503505 8.025285 9.7724758 8 10 8 z "/>
</svg>
