<?xml version="1.0" encoding="UTF-8" standalone="no"?>
<svg xmlns="http://www.w3.org/2000/svg" xmlns:svg="http://www.w3.org/2000/svg" width="24" height="24" viewBox="0 0 24 24" fill="currentColor" tags="business,company,enterprise,skyscraper,organisation,organization,city" categories="account,buildings">
  <path d="M 8 1 C 6.3549904 1 5 2.3549904 5 4 L 5 11 L 4 11 C 2.3549904 11 1 12.35499 1 14 L 1 20 C 1 21.64501 2.3549904 23 4 23 L 6 23 L 18 23 L 20 23 C 21.64501 23 23 21.64501 23 20 L 23 11 C 23 9.3549904 21.64501 8 20 8 L 19 8 L 19 4 C 19 2.3549904 17.64501 1 16 1 L 8 1 z M 8 3 L 16 3 C 16.564129 3 17 3.4358706 17 4 L 17 21 L 7 21 L 7 4 C 7 3.4358706 7.4358706 3 8 3 z M 10 5 A 1 1 0 0 0 9 6 A 1 1 0 0 0 10 7 L 14 7 A 1 1 0 0 0 15 6 A 1 1 0 0 0 14 5 L 10 5 z M 10 9 A 1 1 0 0 0 9 10 A 1 1 0 0 0 10 11 L 14 11 A 1 1 0 0 0 15 10 A 1 1 0 0 0 14 9 L 10 9 z M 19 10 L 20 10 C 20.564129 10 21 10.435871 21 11 L 21 20 C 21 20.564129 20.564129 21 20 21 L 19 21 L 19 10 z M 4 13 L 5 13 L 5 21 L 4 21 C 3.4358706 21 3 20.564129 3 20 L 3 14 C 3 13.435871 3.4358706 13 4 13 z M 10 13 A 1 1 0 0 0 9 14 A 1 1 0 0 0 10 15 L 14 15 A 1 1 0 0 0 15 14 A 1 1 0 0 0 14 13 L 10 13 z M 10 17 A 1 1 0 0 0 9 18 A 1 1 0 0 0 10 19 L 14 19 A 1 1 0 0 0 15 18 A 1 1 0 0 0 14 17 L 10 17 z "/>
</svg>
