<svg xmlns="http://www.w3.org/2000/svg" xmlns:svg="http://www.w3.org/2000/svg" width="24" height="24" viewBox="0 0 24 24" fill="currentColor" tags="business,company,enterprise,skyscraper,organisation,organization,city" categories="account,buildings">
  <path d="M 8 2 C 6.3549904 2 5 3.3549904 5 5 L 5 9 L 4 9 C 2.3549904 9 1 10.35499 1 12 L 1 19 C 1 20.64501 2.3549904 22 4 22 L 6 22 L 18 22 L 20 22 C 21.64501 22 23 20.64501 23 19 L 23 9 C 23 7.3549904 21.64501 6 20 6 L 19 6 L 19 5 C 19 3.3549904 17.64501 2 16 2 L 8 2 z M 8 4 L 16 4 C 16.564129 4 17 4.4358706 17 5 L 17 7 L 17 20 L 15 20 L 15 18 C 15 17.083334 14.620244 16.268559 14.039062 15.751953 C 13.45788 15.235347 12.722222 15 12 15 C 11.277778 15 10.542119 15.235347 9.9609375 15.751953 C 9.3797556 16.268559 9 17.083334 9 18 L 9 20 L 7 20 L 7 10 L 7 5 C 7 4.4358706 7.4358706 4 8 4 z M 10 7 A 1 1 0 0 0 9 8 A 1 1 0 0 0 10 9 L 14 9 A 1 1 0 0 0 15 8 A 1 1 0 0 0 14 7 L 10 7 z M 19 8 L 20 8 C 20.564129 8 21 8.4358706 21 9 L 21 19 C 21 19.564129 20.564129 20 20 20 L 19 20 L 19 8 z M 4 11 L 5 11 L 5 20 L 4 20 C 3.4358706 20 3 19.564129 3 19 L 3 12 C 3 11.435871 3.4358706 11 4 11 z M 10 11 A 1 1 0 0 0 9 12 A 1 1 0 0 0 10 13 L 14 13 A 1 1 0 0 0 15 12 A 1 1 0 0 0 14 11 L 10 11 z M 12 17 C 12.277778 17 12.542119 17.09799 12.710938 17.248047 C 12.879755 17.398107 13 17.583334 13 18 L 13 20 L 11 20 L 11 18 C 11 17.583334 11.120244 17.398107 11.289062 17.248047 C 11.45788 17.097986 11.722222 17 12 17 z "/>
</svg>
