<?xml version="1.0" encoding="UTF-8" standalone="no"?>
<svg xmlns="http://www.w3.org/2000/svg" xmlns:svg="http://www.w3.org/2000/svg" width="24" height="24" viewBox="0 0 24 24" fill="currentColor" tags="coach,vehicle,trip,road" categories="transportation">
  <path d="M 6 2 C 4.3552972 2 3 3.3552972 3 5 L 3 5.3828125 L 1.5527344 6.1054688 A 1 1 0 0 0 1.1054688 7.4472656 A 1 1 0 0 0 2.4472656 7.8945312 L 3 7.6171875 L 3 17 C 3 18.294856 3.8400444 19.41021 5 19.826172 L 5 21 A 1 1 0 0 0 6 22 A 1 1 0 0 0 7 21 L 7 20 L 17 20 L 17 21 A 1 1 0 0 0 18 22 A 1 1 0 0 0 19 21 L 19 19.826172 C 20.159956 19.41021 21 18.294856 21 17 L 21 7.6171875 L 21.552734 7.8945312 A 1 1 0 0 0 22.894531 7.4472656 A 1 1 0 0 0 22.447266 6.1054688 L 21 5.3828125 L 21 5 C 21 3.3552972 19.644703 2 18 2 L 6 2 z M 6 4 L 18 4 C 18.571297 4 19 4.4287028 19 5 L 19 5.9824219 A 1 1 0 0 0 19 6.0175781 L 19 10 L 5 10 L 5 6.0175781 A 1 1 0 0 0 5 5.9824219 L 5 5 C 5 4.4287028 5.4287028 4 6 4 z M 10 5 A 1 1 0 0 0 9 6 A 1 1 0 0 0 10 7 L 14 7 A 1 1 0 0 0 15 6 A 1 1 0 0 0 14 5 L 10 5 z M 5 12 L 19 12 L 19 17 C 19 17.571295 18.571294 17.999997 18 18 L 6 18 C 5.4287028 18 5 17.571297 5 17 L 5 12 z M 8 14 A 1 1 0 0 0 7 15 A 1 1 0 0 0 8 16 L 8.0097656 16 A 1 1 0 0 0 9.0097656 15 A 1 1 0 0 0 8.0097656 14 L 8 14 z M 16 14 A 1 1 0 0 0 15 15 A 1 1 0 0 0 16 16 L 16.009766 16 A 1 1 0 0 0 17.009766 15 A 1 1 0 0 0 16.009766 14 L 16 14 z "/>
</svg>
