<svg xmlns="http://www.w3.org/2000/svg" xmlns:svg="http://www.w3.org/2000/svg" width="24" height="24" viewBox="0 0 24 24" fill="currentColor" tags="bus,vehicle,transport,trip" categories="transportation">
  <path d="M 4 5 C 2.3549904 5 1 6.3549904 1 8 L 1 18 A 1.0001 1.0001 0 0 0 2 19 L 4.1738281 19 C 4.5896855 20.160087 5.7048578 21 7 21 C 8.2951422 21 9.4103145 20.160087 9.8261719 19 L 13.173828 19 C 13.589685 20.160087 14.704857 21 16 21 C 17.295143 21 18.410315 20.160087 18.826172 19 L 21 19 A 1.0001 1.0001 0 0 0 21.958984 18.28125 C 21.958984 18.28125 22.460228 16.582681 22.765625 15.462891 A 1.0001 1.0001 0 0 0 22.769531 15.443359 C 22.869537 15.043357 23 14.566667 23 14 C 23 13.433333 22.869531 12.956641 22.769531 12.556641 A 1.0001 1.0001 0 0 0 22.763672 12.53125 L 22.597656 11.939453 A 1 1 0 0 0 22.597656 11.9375 A 1 1 0 0 0 22.484375 11.533203 L 21.363281 7.53125 A 1.0001 1.0001 0 0 0 21.357422 7.5117188 C 20.923935 6.0664893 19.584848 5 18 5 L 4 5 z M 4 7 L 7 7 L 7 11 L 3 11 L 3 8 C 3 7.4358706 3.4358706 7 4 7 z M 9 7 L 14 7 L 14 11 L 9 11 L 9 7 z M 16 7 L 18 7 C 18.615152 7 19.274975 7.5331187 19.441406 8.0878906 L 20.257812 11 L 16 11 L 16 7 z M 3 13 L 20.818359 13 L 20.830078 13.042969 C 20.930078 13.442969 21 13.766667 21 14 C 21 14.233333 20.93008 14.557031 20.830078 14.957031 C 20.611574 15.756849 20.401303 16.468227 20.246094 17 L 18.826172 17 C 18.410315 15.839913 17.295143 15 16 15 C 14.704857 15 13.589685 15.839913 13.173828 17 L 9.8261719 17 C 9.4103145 15.839913 8.2951422 15 7 15 C 5.7048578 15 4.5896855 15.839913 4.1738281 17 L 3 17 L 3 13 z M 7 17 C 7.5641272 17 7.9999967 17.435874 8 18 C 8 18.564129 7.5641294 19 7 19 C 6.4358706 19 6 18.564129 6 18 C 6 17.435871 6.4358706 17 7 17 z M 16 17 C 16.564127 17 16.999997 17.435874 17 18 C 17 18.564129 16.564129 19 16 19 C 15.435871 19 15 18.564129 15 18 C 15 17.435871 15.435871 17 16 17 z "/>
</svg>
