<?xml version="1.0" encoding="UTF-8" standalone="no"?>
<svg xmlns="http://www.w3.org/2000/svg" xmlns:svg="http://www.w3.org/2000/svg" width="24" height="24" viewBox="0 0 24 24" fill="currentColor" tags="cord,wire,connector,connection,link,signal,console,computer,equipment,electricity,energy,electronics,recharging,charger,power,supply,disconnected,unplugged,plugs,interface,input,output,audio video,av,rca,scart,tv,television,optical" categories="connectivity,devices,multimedia">
  <path d="M 3 2 A 1 1 0 0 0 2 3 L 2 4.4179688 C 1.4381194 4.7746455 1 5.2946814 1 6 L 1 7 C 1 8.6450064 2.3549936 10 4 10 L 4 17.5 C 4 18.916664 4.5672574 20.106443 5.4296875 20.873047 C 6.2921176 21.639651 7.4027801 22 8.5 22 C 9.5972199 22 10.707881 21.639651 11.570312 20.873047 C 12.432743 20.106443 13 18.916664 13 17.5 L 13 6.5 C 13 5.5833358 13.307745 5.0231064 13.757812 4.6230469 C 14.207879 4.2229873 14.847224 4 15.5 4 C 16.152776 4 16.792121 4.2229873 17.242188 4.6230469 C 17.692255 5.0231064 18 5.5833358 18 6.5 L 18 14 C 16.354994 14 15 15.354994 15 17 L 15 18 C 15 18.705318 15.43812 19.225355 16 19.582031 L 16 21 A 1 1 0 0 0 17 22 A 1 1 0 0 0 18 21 L 18 20 L 20 20 L 20 21 A 1 1 0 0 0 21 22 A 1 1 0 0 0 22 21 L 22 19.724609 C 22.594115 19.375227 23 18.729624 23 18 L 23 17 C 23 15.354994 21.645006 14 20 14 L 20 6.5 C 20 5.0833365 19.432744 3.8935575 18.570312 3.1269531 C 17.707882 2.3603489 16.59722 2 15.5 2 C 14.40278 2 13.292118 2.3603489 12.429688 3.1269531 C 11.567256 3.8935575 11 5.0833365 11 6.5 L 11 17.5 C 11 18.416664 10.692254 18.976894 10.242188 19.376953 C 9.7921199 19.777013 9.1527765 20 8.5 20 C 7.8472235 20 7.2078796 19.777013 6.7578125 19.376953 C 6.3077454 18.976894 6 18.416664 6 17.5 L 6 10 C 7.6450064 10 9 8.6450064 9 7 L 9 6 C 9 5.270376 8.5941153 4.6247726 8 4.2753906 L 8 3 A 1 1 0 0 0 7 2 A 1 1 0 0 0 6 3 L 6 4 L 4 4 L 4 3 A 1 1 0 0 0 3 2 z M 3 6 L 7 6 L 7 7 C 7 7.5641282 6.5641282 8 6 8 L 5 8 L 4 8 C 3.4358718 8 3 7.5641282 3 7 L 3 6 z M 18 16 L 20 16 C 20.564128 16 21 16.435872 21 17 L 21 18 L 17 18 L 17 17 C 17 16.435872 17.435872 16 18 16 z "/>
</svg>
