<svg xmlns="http://www.w3.org/2000/svg" xmlns:svg="http://www.w3.org/2000/svg" width="24" height="24" viewBox="0 0 24 24" fill="currentColor" tags="cord,wire,connector,connection,link,signal,console,computer,equipment,electricity,energy,electronics,recharging,charger,power,supply,disconnected,unplugged,plugs,interface,input,output,audio video,av,rca,scart,tv,television,optical" categories="connectivity,devices,multimedia">
  <path d="M 3 2 A 1 1 0 0 0 2 3 L 2 4.2734375 C 1.4051277 4.6226282 1 5.2698076 1 6 L 1 8 C 1 9.6450096 2.3549904 11 4 11 L 4 17.5 C 4 18.916666 4.5672556 20.106441 5.4296875 20.873047 C 6.2921194 21.639653 7.4027779 22 8.5 22 C 9.5972221 22 10.707881 21.639653 11.570312 20.873047 C 12.432743 20.106441 13 18.916666 13 17.5 L 13 6.5 C 13 5.5833339 13.307744 5.0231072 13.757812 4.6230469 C 14.20788 4.2229865 14.847222 4 15.5 4 C 16.152778 4 16.792119 4.2229865 17.242188 4.6230469 C 17.692256 5.0231072 18 5.5833339 18 6.5 L 18 13 C 16.35499 13 15 14.35499 15 16 L 15 18 C 15 18.730192 15.405128 19.377372 16 19.726562 L 16 21 A 1 1 0 0 0 17 22 A 1 1 0 0 0 18 21 L 18 20 L 20 20 L 20 21 A 1 1 0 0 0 21 22 A 1 1 0 0 0 22 21 L 22 19.726562 C 22.594872 19.377372 23 18.730192 23 18 L 23 16 C 23 14.35499 21.64501 13 20 13 L 20 6.5 C 20 5.0833337 19.432744 3.8935589 18.570312 3.1269531 C 17.707881 2.3603473 16.597222 2 15.5 2 C 14.402778 2 13.292119 2.3603473 12.429688 3.1269531 C 11.567255 3.8935589 11 5.0833337 11 6.5 L 11 17.5 C 11 18.416666 10.692256 18.976893 10.242188 19.376953 C 9.7921189 19.777013 9.1527779 20 8.5 20 C 7.8472221 20 7.2078806 19.777013 6.7578125 19.376953 C 6.3077444 18.976893 6 18.416666 6 17.5 L 6 11 C 7.6450096 11 9 9.6450096 9 8 L 9 6 C 9 5.2698076 8.5948723 4.6226282 8 4.2734375 L 8 3 A 1 1 0 0 0 7 2 A 1 1 0 0 0 6 3 L 6 4 L 4 4 L 4 3 A 1 1 0 0 0 3 2 z M 3 6 L 7 6 L 7 8 C 7 8.5641294 6.5641294 9 6 9 L 4 9 C 3.4358706 9 3 8.5641294 3 8 L 3 6 z M 18 15 L 20 15 C 20.564129 15 21 15.435871 21 16 L 21 18 L 17 18 L 17 16 C 17 15.435871 17.435871 15 18 15 z "/>
</svg>
