<?xml version="1.0" encoding="UTF-8" standalone="no"?>
<svg xmlns="http://www.w3.org/2000/svg" xmlns:svg="http://www.w3.org/2000/svg" width="24" height="24" viewBox="0 0 24 24" fill="currentColor" tags="birthday,birthdate,celebration,party,surprise,gateaux,dessert,fondant,icing sugar,sweet,baking" categories="food-beverage,social,account">
  <path d="M 7 3 A 1 1 0 0 0 6 4 A 1 1 0 0 0 7 5 L 7.0097656 5 A 1 1 0 0 0 8.0097656 4 A 1 1 0 0 0 7.0097656 3 L 7 3 z M 12 3 A 1 1 0 0 0 11 4 A 1 1 0 0 0 12 5 L 12.009766 5 A 1 1 0 0 0 13.009766 4 A 1 1 0 0 0 12.009766 3 L 12 3 z M 17 3 A 1 1 0 0 0 16 4 A 1 1 0 0 0 17 5 L 17.009766 5 A 1 1 0 0 0 18.009766 4 A 1 1 0 0 0 17.009766 3 L 17 3 z M 7 7 A 1 1 0 0 0 6 8 L 6 10 C 4.3549936 10 3 11.354994 3 13 L 3 20 L 2 20 A 1 1 0 0 0 1 21 A 1 1 0 0 0 2 22 L 22 22 A 1 1 0 0 0 23 21 A 1 1 0 0 0 22 20 L 21 20 L 21 13 C 21 11.354994 19.645006 10 18 10 L 18 8 A 1 1 0 0 0 17 7 A 1 1 0 0 0 16 8 L 16 10 L 13 10 L 13 8 A 1 1 0 0 0 12 7 A 1 1 0 0 0 11 8 L 11 10 L 8 10 L 8 8 A 1 1 0 0 0 7 7 z M 6 12 L 18 12 C 18.564128 12 19 12.435872 19 13 L 19 15.666016 C 18.981162 15.682536 18.964057 15.697509 18.9375 15.71875 C 18.777365 15.846858 18.527776 16 18 16 C 17.694445 16 17.249998 15.718749 16.625 15.21875 C 16.000002 14.718751 15.194442 14 14 14 C 12.805558 14 11.999998 14.718751 11.375 15.21875 C 10.750002 15.718749 10.305555 16 10 16 C 9.6944451 16 9.2499988 15.718749 8.625 15.21875 C 8.0000012 14.718751 7.194442 14 6 14 C 5.6336775 14 5.2999328 14.049588 5 14.130859 L 5 13 C 5 12.435872 5.4358718 12 6 12 z M 6 16 C 6.3055549 16 6.7500012 16.281251 7.375 16.78125 C 7.9999988 17.28125 8.805558 18 10 18 C 11.194442 18 12.000002 17.28125 12.625 16.78125 C 13.249998 16.28125 13.694445 16 14 16 C 14.305555 16 14.750002 16.281251 15.375 16.78125 C 15.999998 17.28125 16.805558 18 18 18 C 18.366322 18 18.700067 17.950412 19 17.869141 L 19 20 L 5 20 L 5 16.333984 C 5.0188363 16.317464 5.0359475 16.302491 5.0625 16.28125 C 5.222635 16.153142 5.4722232 16 6 16 z "/>
</svg>
