<?xml version="1.0" encoding="UTF-8" standalone="no"?>
<svg xmlns="http://www.w3.org/2000/svg" xmlns:svg="http://www.w3.org/2000/svg" width="24" height="24" viewBox="0 0 24 24" fill="currentColor" tags="birthday,birthdate,celebration,party,surprise,gateaux,dessert,fondant,icing sugar,sweet,baking" categories="food-beverage,social,account">
  <path d="M 7 3 A 1 1 0 0 0 6 4 A 1 1 0 0 0 7 5 L 7.0097656 5 A 1 1 0 0 0 8.0097656 4 A 1 1 0 0 0 7.0097656 3 L 7 3 z M 12 3 A 1 1 0 0 0 11 4 A 1 1 0 0 0 12 5 L 12.009766 5 A 1 1 0 0 0 13.009766 4 A 1 1 0 0 0 12.009766 3 L 12 3 z M 17 3 A 1 1 0 0 0 16 4 A 1 1 0 0 0 17 5 L 17.009766 5 A 1 1 0 0 0 18.009766 4 A 1 1 0 0 0 17.009766 3 L 17 3 z M 7 7 A 1 1 0 0 0 6 8 L 6 10 C 4.3549904 10 3 11.35499 3 13 L 3 20 L 2 20 A 1 1 0 0 0 1 21 A 1 1 0 0 0 2 22 L 22 22 A 1 1 0 0 0 23 21 A 1 1 0 0 0 22 20 L 21 20 L 21 13 C 21 11.35499 19.64501 10 18 10 L 18 8 A 1 1 0 0 0 17 7 A 1 1 0 0 0 16 8 L 16 10 L 13 10 L 13 8 A 1 1 0 0 0 12 7 A 1 1 0 0 0 11 8 L 11 10 L 8 10 L 8 8 A 1 1 0 0 0 7 7 z M 6 12 L 18 12 C 18.564129 12 19 12.435871 19 13 L 19 15.666016 C 18.981162 15.682536 18.964058 15.697509 18.9375 15.71875 C 18.777365 15.846858 18.527778 16 18 16 C 17.694444 16 17.25 15.71875 16.625 15.21875 C 16 14.71875 15.194444 14 14 14 C 12.805556 14 12 14.71875 11.375 15.21875 C 10.75 15.71875 10.305556 16 10 16 C 9.6944444 16 9.25 15.71875 8.625 15.21875 C 8 14.71875 7.1944444 14 6 14 C 5.6336768 14 5.299933 14.049588 5 14.130859 L 5 13 C 5 12.435871 5.4358706 12 6 12 z M 6 16 C 6.3055556 16 6.75 16.28125 7.375 16.78125 C 8 17.28125 8.8055556 18 10 18 C 11.194444 18 12 17.28125 12.625 16.78125 C 13.25 16.28125 13.694444 16 14 16 C 14.305556 16 14.75 16.28125 15.375 16.78125 C 16 17.28125 16.805556 18 18 18 C 18.366323 18 18.700067 17.950412 19 17.869141 L 19 20 L 5 20 L 5 16.333984 C 5.0188363 16.317464 5.0359475 16.302491 5.0625 16.28125 C 5.2226354 16.153142 5.4722222 16 6 16 z "/>
</svg>
