<?xml version="1.0" encoding="UTF-8" standalone="no"?>
<svg xmlns="http://www.w3.org/2000/svg" xmlns:svg="http://www.w3.org/2000/svg" width="24" height="24" viewBox="0 0 24 24" fill="currentColor" tags="birthday,birthdate,celebration,party,surprise,gateaux,dessert,candles,wish,fondant,icing sugar,sweet,baking" categories="food-beverage,social">
  <path d="M 14.054688 2.0019531 A 1.0001 1.0001 0 0 0 13.414062 2.1894531 L 10.412109 4.3574219 C 9.9902349 4.1295742 9.5089281 4 9 4 C 7.3549904 4 6 5.3549904 6 7 C 6 7.1736842 6.0159654 7.343801 6.0449219 7.5097656 L 2.40625 10.195312 A 1.0001 1.0001 0 0 0 2 11 L 2 17 L 2 20 C 2 20.522222 2.1913289 21.05461 2.5683594 21.431641 C 2.9453899 21.808671 3.4777778 22 4 22 L 20 22 C 20.522222 22 21.05461 21.808671 21.431641 21.431641 C 21.808671 21.05461 22 20.522222 22 20 L 22 11 C 22 9.5 21.101537 7.9601253 19.767578 6.359375 C 18.43362 4.7586247 16.596337 3.1800043 14.447266 2.1054688 A 1.0001 1.0001 0 0 0 14.054688 2.0019531 z M 14.035156 4.2089844 C 15.679954 5.1279529 17.174673 6.371326 18.232422 7.640625 C 19.398463 9.0398747 20 10.5 20 11 L 20 20 L 4 20 L 4 18 L 16 18 A 1 1 0 0 0 17 17 A 1 1 0 0 0 16 16 L 4 16 L 4 14 L 16 14 A 1 1 0 0 0 17 13 A 1 1 0 0 0 16 12 L 4 12 L 4 11.503906 L 7.0390625 9.2617188 C 7.5666845 9.7206298 8.2531683 10 9 10 C 10.64501 10 12 8.6450096 12 7 C 12 6.592394 11.91776 6.2014953 11.767578 5.8457031 L 14.035156 4.2089844 z M 9 6 C 9.2228245 6 9.4259964 6.068498 9.5898438 6.1855469 A 1 1 0 0 0 9.8144531 6.4101562 C 9.9314568 6.5739855 10 6.7772224 10 7 C 10 7.5641294 9.5641294 8 9 8 C 8.4358706 8 8 7.5641294 8 7 C 8 6.4358706 8.4358706 6 9 6 z "/>
</svg>
