<svg xmlns="http://www.w3.org/2000/svg" xmlns:svg="http://www.w3.org/2000/svg" width="24" height="24" viewBox="0 0 24 24" fill="currentColor" tags="birthday,birthdate,celebration,party,surprise,gateaux,dessert,candles,wish,fondant,icing sugar,sweet,baking" categories="food-beverage,social">
  <path d="M 13.958984 2.1914062 C 13.58217 2.2112573 13.209801 2.3374628 12.892578 2.5664062 L 10.412109 4.3574219 C 9.9902223 4.1295566 9.5089492 4 9 4 C 7.3549904 4 6 5.3549904 6 7 C 6 7.1736908 6.0159632 7.343795 6.0449219 7.5097656 L 3.21875 9.5957031 C 2.4530429 10.161085 1.9994909 11.057944 2 12.009766 L 2 20 C 2 21.092725 2.9072751 22 4 22 L 20 22 C 21.092725 22 22 21.092725 22 20 L 22 11.345703 C 22 9.9390366 21.281005 8.3621885 20.085938 6.7402344 C 18.897346 5.1270684 17.189765 3.530696 15.039062 2.4472656 C 14.703625 2.2594259 14.329783 2.1718725 13.958984 2.1914062 z M 14.0625 4.1875 A 1.0001 1.0001 0 0 0 14.113281 4.2148438 C 15.945965 5.1311848 17.449677 6.5347353 18.474609 7.9257812 C 19.499542 9.3168272 20 10.75237 20 11.345703 L 20 20 L 4 20 L 4 18 L 16 18 A 1 1 0 0 0 17 17 A 1 1 0 0 0 16 16 L 4 16 L 4 14 L 16 14 A 1 1 0 0 0 17 13 A 1 1 0 0 0 16 12 L 4 12 C 4.0028715 11.685207 4.1526531 11.392329 4.40625 11.205078 L 7.0390625 9.2617188 C 7.5666672 9.7205622 8.25323 10 9 10 C 10.64501 10 12 8.6450096 12 7 C 12 6.5929044 11.915451 6.2030879 11.765625 5.8476562 C 11.76539 5.8470976 11.765861 5.8462616 11.765625 5.8457031 L 14.0625 4.1875 z M 9 6 C 9.2228245 6 9.4259964 6.068498 9.5898438 6.1855469 A 1 1 0 0 0 9.8144531 6.4101562 C 9.9314568 6.5739855 10 6.7772224 10 7 C 10 7.5641294 9.5641294 8 9 8 C 8.4358706 8 8 7.5641294 8 7 C 8 6.4358706 8.4358706 6 9 6 z "/>
</svg>
