<?xml version="1.0" encoding="UTF-8" standalone="no"?>
<svg xmlns="http://www.w3.org/2000/svg" xmlns:svg="http://www.w3.org/2000/svg" width="24" height="24" viewBox="0 0 24 24" fill="currentColor" tags="birthday,birthdate,celebration,party,surprise,gateaux,dessert,candles,wish,fondant,icing sugar,sweet,baking" categories="food-beverage,social">
  <path d="M 14.099609 2.0058594 A 1.0001 1.0001 0 0 0 13.414062 2.1894531 L 10.410156 4.359375 C 9.9883552 4.1316295 9.5088045 4 9 4 C 7.3549936 4 6 5.3549936 6 7 C 6 7.173428 6.0160488 7.3440325 6.0449219 7.5097656 L 2.40625 10.195312 A 1.0001 1.0001 0 0 0 2 11 L 2 17 L 2 20 C 2 20.522221 2.1913296 21.05461 2.5683594 21.431641 C 2.9453891 21.80867 3.4777788 22 4 22 L 20 22 C 20.522221 22 21.05461 21.80867 21.431641 21.431641 C 21.80867 21.05461 22 20.522221 22 20 L 22 11 C 22 9.500003 21.101534 7.9601221 19.767578 6.359375 C 18.433622 4.7586279 16.596332 3.1800022 14.447266 2.1054688 A 1.0001 1.0001 0 0 0 14.099609 2.0058594 z M 14.035156 4.2089844 C 15.679952 5.1279511 17.174675 6.3713286 18.232422 7.640625 C 19.398461 9.0398719 20 10.500001 20 11 L 20 20 L 4 20 L 4 18 L 16 18 A 1 1 0 0 0 17 17 A 1 1 0 0 0 16 16 L 4 16 L 4 14 L 16 14 A 1 1 0 0 0 17 13 A 1 1 0 0 0 16 12 L 4 12 L 4 11.503906 L 7.0390625 9.2617188 C 7.5666343 9.7204347 8.2533476 10 9 10 C 10.645006 10 12 8.6450064 12 7 C 12 6.592466 11.915757 6.2033977 11.765625 5.8476562 L 14.035156 4.2089844 z M 9 6 C 9.2266395 6 9.4323665 6.0706503 9.5976562 6.1914062 A 1 1 0 0 0 9.7695312 6.3535156 C 9.9138217 6.5263285 10 6.7501338 10 7 C 10 7.5641282 9.5641282 8 9 8 C 8.4358718 8 8 7.5641282 8 7 C 8 6.4358718 8.4358718 6 9 6 z "/>
</svg>
