<?xml version="1.0" encoding="UTF-8" standalone="no"?>
<svg xmlns="http://www.w3.org/2000/svg" xmlns:svg="http://www.w3.org/2000/svg" width="24" height="24" viewBox="0 0 24 24" fill="currentColor" tags="count,calculating machine" categories="math,devices">
  <path d="M 6 1 C 4.3552972 1 3 2.3552972 3 4 L 3 20 C 3 21.644703 4.3552972 23 6 23 L 18 23 C 19.644703 23 21 21.644703 21 20 L 21 4 C 21 2.3552972 19.644703 1 18 1 L 6 1 z M 6 3 L 18 3 C 18.571297 3 19 3.4287028 19 4 L 19 20 C 19 20.571297 18.571297 21 18 21 L 6 21 C 5.4287028 21 5 20.571297 5 20 L 5 4 C 5 3.4287028 5.4287028 3 6 3 z M 8 5 A 1 1 0 0 0 7 6 A 1 1 0 0 0 8 7 L 16 7 A 1 1 0 0 0 17 6 A 1 1 0 0 0 16 5 L 8 5 z M 8 9 A 1 1 0 0 0 7 10 A 1 1 0 0 0 8 11 L 8.0097656 11 A 1 1 0 0 0 9.0097656 10 A 1 1 0 0 0 8.0097656 9 L 8 9 z M 12 9 A 1 1 0 0 0 11 10 A 1 1 0 0 0 12 11 L 12.009766 11 A 1 1 0 0 0 13.009766 10 A 1 1 0 0 0 12.009766 9 L 12 9 z M 16 9 A 1 1 0 0 0 15 10 A 1 1 0 0 0 16 11 L 16.009766 11 A 1 1 0 0 0 17.009766 10 A 1 1 0 0 0 16.009766 9 L 16 9 z M 8 13 A 1 1 0 0 0 7 14 A 1 1 0 0 0 8 15 L 8.0097656 15 A 1 1 0 0 0 9.0097656 14 A 1 1 0 0 0 8.0097656 13 L 8 13 z M 12 13 A 1 1 0 0 0 11 14 A 1 1 0 0 0 12 15 L 12.009766 15 A 1 1 0 0 0 13.009766 14 A 1 1 0 0 0 12.009766 13 L 12 13 z M 16 13 A 1 1 0 0 0 15 14 L 15 18 A 1 1 0 0 0 16 19 A 1 1 0 0 0 17 18 L 17 14 A 1 1 0 0 0 16 13 z M 8 17 A 1 1 0 0 0 7 18 A 1 1 0 0 0 8 19 L 8.0097656 19 A 1 1 0 0 0 9.0097656 18 A 1 1 0 0 0 8.0097656 17 L 8 17 z M 12 17 A 1 1 0 0 0 11 18 A 1 1 0 0 0 12 19 L 12.009766 19 A 1 1 0 0 0 13.009766 18 A 1 1 0 0 0 12.009766 17 L 12 17 z "/>
</svg>
