<?xml version="1.0" encoding="UTF-8" standalone="no"?>
<svg xmlns="http://www.w3.org/2000/svg" xmlns:svg="http://www.w3.org/2000/svg" width="24" height="24" viewBox="0 0 24 24" fill="currentColor" tags="date,time,event,clock" categories="time">
  
  <path d="M 8 1 A 1 1 0 0 0 7 2 L 7 3 L 5 3 C 3.3549936 3 2 4.3549936 2 6 L 2 20 C 2 21.645006 3.3549936 23 5 23 L 8.5 23 A 1 1 0 0 0 9.5 22 A 1 1 0 0 0 8.5 21 L 5 21 C 4.4358718 21 4 20.564128 4 20 L 4 11 L 8 11 A 1 1 0 0 0 9 10 A 1 1 0 0 0 8 9 L 4 9 L 4 6 C 4 5.4358718 4.4358718 5 5 5 L 7 5 L 7 6 A 1 1 0 0 0 8 7 A 1 1 0 0 0 9 6 L 9 5 L 15 5 L 15 6 A 1 1 0 0 0 16 7 A 1 1 0 0 0 17 6 L 17 5 L 19 5 C 19.564128 5 20 5.4358718 20 6 L 20 7.5 A 1 1 0 0 0 21 8.5 A 1 1 0 0 0 22 7.5 L 22 6 C 22 4.3549936 20.645006 3 19 3 L 17 3 L 17 2 A 1 1 0 0 0 16 1 A 1 1 0 0 0 15 2 L 15 3 L 9 3 L 9 2 A 1 1 0 0 0 8 1 z M 16 9 C 12.14586 9 9 12.145857 9 16 C 9 19.854143 12.14586 23 16 23 C 19.85414 23 23 19.854143 23 16 C 23 12.145857 19.85414 9 16 9 z M 16 11 C 18.773263 11 21 13.226735 21 16 C 21 18.773265 18.773263 21 16 21 C 13.226737 21 11 18.773265 11 16 C 11 13.226735 13.226737 11 16 11 z M 16 13 A 1 1 0 0 0 15 14 L 15 16.25 A 1.0001 1.0001 0 0 0 15.359375 17.017578 L 16.859375 18.267578 A 1 1 0 0 0 18.267578 18.140625 A 1 1 0 0 0 18.140625 16.732422 L 17 15.78125 L 17 14 A 1 1 0 0 0 16 13 z "/>
</svg>
