<svg xmlns="http://www.w3.org/2000/svg" xmlns:svg="http://www.w3.org/2000/svg" width="24" height="24" viewBox="0 0 24 24" fill="currentColor" tags="repeat,refresh,reconnect,transfer,backup,date,month,year,event,subscribe,recurring,schedule,reminder,automatic,auto" categories="arrows,time">
  <path d="M 8 1 A 1 1 0 0 0 7 2 L 7 3 L 5 3 C 3.3549904 3 2 4.3549904 2 6 L 2 20 C 2 21.64501 3.3549904 23 5 23 L 9.3007812 23 A 1 1 0 0 0 10.300781 22 A 1 1 0 0 0 9.3007812 21 L 5 21 C 4.4358706 21 4 20.564129 4 20 L 4 11 L 7 11 A 1 1 0 0 0 8 10 A 1 1 0 0 0 7 9 L 4 9 L 4 6 C 4 5.4358706 4.4358706 5 5 5 L 7 5 L 7 6 A 1 1 0 0 0 8 7 A 1 1 0 0 0 9 6 L 9 5 L 15 5 L 15 6 A 1 1 0 0 0 16 7 A 1 1 0 0 0 17 6 L 17 5 L 19 5 C 19.564129 5 20 5.4358706 20 6 L 20 8.5 A 1 1 0 0 0 21 9.5 A 1 1 0 0 0 22 8.5 L 22 6 C 22 4.3549904 20.64501 3 19 3 L 17 3 L 17 2 A 1 1 0 0 0 16 1 A 1 1 0 0 0 15 2 L 15 3 L 9 3 L 9 2 A 1 1 0 0 0 8 1 z M 11 9 A 1 1 0 0 0 10 10 L 10 14 A 1.0001 1.0001 0 0 0 10.003906 14.048828 A 1 1 0 0 0 10.007812 14.125 A 1.0001 1.0001 0 0 0 10.007812 14.130859 A 1 1 0 0 0 10.033203 14.253906 A 1.0001 1.0001 0 0 0 10.076172 14.382812 A 1 1 0 0 0 10.076172 14.384766 A 1.0001 1.0001 0 0 0 10.134766 14.5 A 1 1 0 0 0 10.138672 14.507812 A 1.0001 1.0001 0 0 0 10.207031 14.609375 A 1 1 0 0 0 10.267578 14.679688 A 1.0001 1.0001 0 0 0 10.298828 14.712891 A 1 1 0 0 0 10.308594 14.722656 A 1 1 0 0 0 10.359375 14.765625 A 1.0001 1.0001 0 0 0 10.396484 14.796875 A 1 1 0 0 0 10.589844 14.910156 A 1.0001 1.0001 0 0 0 10.626953 14.927734 A 1 1 0 0 0 10.664062 14.939453 A 1.0001 1.0001 0 0 0 10.882812 14.992188 A 1 1 0 0 0 10.941406 14.996094 A 1.0001 1.0001 0 0 0 11 15 A 1 1 0 0 0 11.019531 15 L 15 15 A 1 1 0 0 0 16 14 A 1 1 0 0 0 15 13 L 13.353516 13 C 15.361953 11.217347 18.484211 11.850096 19.628906 14.316406 A 1 1 0 0 0 20.955078 14.802734 A 1 1 0 0 0 21.441406 13.474609 C 20.580759 11.620296 18.917917 10.46166 17.101562 10.121094 C 15.349443 9.792571 13.454841 10.224837 12 11.527344 L 12 10 A 1 1 0 0 0 11 9 z M 17 17 A 1 1 0 0 0 16 18 A 1 1 0 0 0 17 19 L 18.646484 19 C 16.638045 20.782595 13.515779 20.149882 12.371094 17.683594 A 1 1 0 0 0 11.808594 17.166016 A 1 1 0 0 0 11.044922 17.197266 A 1 1 0 0 0 10.558594 18.525391 C 12.249453 22.168441 17.036969 23.125453 20 20.472656 L 20 22 A 1 1 0 0 0 21 23 A 1 1 0 0 0 22 22 L 22 18.019531 A 1 1 0 0 0 22 18 A 1.0001 1.0001 0 0 0 21.996094 17.951172 A 1 1 0 0 0 21.992188 17.869141 A 1.0001 1.0001 0 0 0 21.923828 17.615234 A 1 1 0 0 0 21.865234 17.5 A 1.0001 1.0001 0 0 0 21.861328 17.492188 A 1 1 0 0 0 21.707031 17.292969 A 1.0001 1.0001 0 0 0 21.701172 17.287109 A 1 1 0 0 0 21.691406 17.277344 A 1 1 0 0 0 21.609375 17.207031 A 1.0001 1.0001 0 0 0 21.603516 17.203125 A 1 1 0 0 0 21.382812 17.076172 A 1.0001 1.0001 0 0 0 21.363281 17.068359 A 1 1 0 0 0 21.335938 17.060547 A 1.0001 1.0001 0 0 0 21.111328 17.005859 A 1 1 0 0 0 21 17 L 17 17 z "/>
</svg>
