<svg xmlns="http://www.w3.org/2000/svg" xmlns:svg="http://www.w3.org/2000/svg" width="24" height="24" viewBox="0 0 24 24" fill="currentColor" tags="date,month,year,event,heart,favourite,subscribe,valentines day" categories="time">
  <path d="M 8 1 A 1 1 0 0 0 7 2 L 7 3 L 5 3 C 3.3549904 3 2 4.3549904 2 6 L 2 20 C 2 21.64501 3.3549904 23 5 23 L 12.126953 23 A 1 1 0 0 0 13.126953 22 A 1 1 0 0 0 12.126953 21 L 5 21 C 4.4358706 21 4 20.564129 4 20 L 4 11 L 20 11 L 20 11.125 A 1 1 0 0 0 21 12.125 A 1 1 0 0 0 22 11.125 L 22 6 C 22 4.3549904 20.64501 3 19 3 L 17 3 L 17 2 A 1 1 0 0 0 16 1 A 1 1 0 0 0 15 2 L 15 3 L 9 3 L 9 2 A 1 1 0 0 0 8 1 z M 5 5 L 7 5 L 7 6 A 1 1 0 0 0 8 7 A 1 1 0 0 0 9 6 L 9 5 L 15 5 L 15 6 A 1 1 0 0 0 16 7 A 1 1 0 0 0 17 6 L 17 5 L 19 5 C 19.564129 5 20 5.4358706 20 6 L 20 9 L 4 9 L 4 6 C 4 5.4358706 4.4358706 5 5 5 z M 16.363281 13.947266 C 15.499012 13.926696 14.706648 14.268214 14.101562 14.798828 C 13.496476 15.329442 13.055358 16.070133 12.962891 16.929688 C 12.870421 17.789243 13.180128 18.743279 13.898438 19.492188 L 16.492188 22.314453 L 16.494141 22.316406 C 17.278689 23.217163 18.723266 23.217165 19.507812 22.316406 L 22.105469 19.490234 L 22.107422 19.486328 C 22.814151 18.737506 23.119334 17.789739 23.025391 16.935547 C 22.931311 16.080075 22.491164 15.341196 21.888672 14.8125 C 21.286179 14.283804 20.497164 13.945032 19.636719 13.962891 C 19.073913 13.974571 18.520353 14.221171 18.003906 14.572266 C 17.48603 14.214311 16.930019 13.960754 16.363281 13.947266 z M 16.316406 15.947266 C 16.609016 15.954266 16.88695 16.046657 17.21875 16.460938 A 1.0001 1.0001 0 0 0 18.775391 16.466797 C 19.107083 16.058935 19.387679 15.966997 19.679688 15.960938 C 19.971698 15.954838 20.30587 16.084354 20.570312 16.316406 C 20.834755 16.548458 21.00518 16.863975 21.037109 17.154297 C 21.069039 17.444619 21.015609 17.733363 20.654297 18.115234 A 1.0001 1.0001 0 0 0 20.644531 18.125 L 18.017578 20.980469 A 1.0001 1.0001 0 0 0 18 21 A 1.0001 1.0001 0 0 0 17.982422 20.980469 L 15.355469 18.123047 A 1.0001 1.0001 0 0 0 15.341797 18.107422 C 14.97439 17.724363 14.919866 17.435545 14.951172 17.144531 C 14.982482 16.853517 15.153702 16.536189 15.419922 16.302734 C 15.686142 16.06928 16.023796 15.940301 16.316406 15.947266 z "/>
</svg>
