<?xml version="1.0" encoding="UTF-8" standalone="no"?>
<svg xmlns="http://www.w3.org/2000/svg" xmlns:svg="http://www.w3.org/2000/svg" width="24" height="24" viewBox="0 0 24 24" fill="currentColor" tags="repeat,refresh,reconnect,transfer,backup,date,month,year,event,subscribe,recurring,schedule,reminder,automatic,auto" categories="arrows,time">
  <path d="M 8 1 A 1 1 0 0 0 7 2 L 7 3 L 5 3 C 3.3549904 3 2 4.3549904 2 6 L 2 20 C 2 21.64501 3.3549904 23 5 23 L 9.3007812 23 A 1 1 0 0 0 10.300781 22 A 1 1 0 0 0 9.3007812 21 L 5 21 C 4.4358706 21 4 20.564129 4 20 L 4 11 L 7 11 A 1 1 0 0 0 8 10 A 1 1 0 0 0 7 9 L 4 9 L 4 6 C 4 5.4358706 4.4358706 5 5 5 L 7 5 L 7 6 A 1 1 0 0 0 8 7 A 1 1 0 0 0 9 6 L 9 5 L 15 5 L 15 6 A 1 1 0 0 0 16 7 A 1 1 0 0 0 17 6 L 17 5 L 19 5 C 19.564129 5 20 5.4358706 20 6 L 20 8.5 A 1 1 0 0 0 21 9.5 A 1 1 0 0 0 22 8.5 L 22 6 C 22 4.3549904 20.64501 3 19 3 L 17 3 L 17 2 A 1 1 0 0 0 16 1 A 1 1 0 0 0 15 2 L 15 3 L 9 3 L 9 2 A 1 1 0 0 0 8 1 z M 11 9 A 1 1 0 0 0 10 10 L 10 14 A 1.0001 1.0001 0 0 0 10.015625 14.128906 A 1 1 0 0 0 10.023438 14.197266 A 1.0001 1.0001 0 0 0 10.111328 14.453125 A 1 1 0 0 0 10.154297 14.521484 A 1.0001 1.0001 0 0 0 10.277344 14.681641 A 1 1 0 0 0 10.308594 14.722656 A 1 1 0 0 0 10.339844 14.744141 A 1.0001 1.0001 0 0 0 10.835938 14.980469 A 1 1 0 0 0 10.908203 14.990234 A 1.0001 1.0001 0 0 0 11 15 L 15 15 A 1 1 0 0 0 16 14 A 1 1 0 0 0 15 13 L 13.357422 13 C 15.365967 11.220629 18.484779 11.851321 19.628906 14.316406 A 1 1 0 0 0 20.955078 14.802734 A 1 1 0 0 0 21.441406 13.474609 C 20.580759 11.620296 18.917917 10.46166 17.101562 10.121094 C 15.349017 9.7924911 13.454981 10.228003 12 11.53125 L 12 10 A 1 1 0 0 0 11 9 z M 17 17 A 1 1 0 0 0 16 18 A 1 1 0 0 0 17 19 L 18.642578 19 C 16.634033 20.779371 13.515221 20.148679 12.371094 17.683594 A 1 1 0 0 0 11.044922 17.197266 A 1 1 0 0 0 10.558594 18.525391 C 12.249655 22.168876 17.037051 23.122725 20 20.46875 L 20 22 A 1 1 0 0 0 21 23 A 1 1 0 0 0 22 22 L 22 18.029297 A 1 1 0 0 0 22 18 A 1.0001 1.0001 0 0 0 22 17.994141 A 1 1 0 0 0 21.974609 17.777344 A 1.0001 1.0001 0 0 0 21.972656 17.771484 A 1 1 0 0 0 21.900391 17.566406 A 1.0001 1.0001 0 0 0 21.898438 17.564453 A 1 1 0 0 0 21.78125 17.376953 A 1 1 0 0 0 21.691406 17.277344 A 1 1 0 0 0 21.654297 17.25 A 1.0001 1.0001 0 0 0 21.539062 17.166016 A 1 1 0 0 0 21.455078 17.113281 A 1.0001 1.0001 0 0 0 21.283203 17.046875 A 1 1 0 0 0 21.232422 17.029297 A 1.0001 1.0001 0 0 0 21 17 L 17 17 z "/>
</svg>
