<svg xmlns="http://www.w3.org/2000/svg" xmlns:svg="http://www.w3.org/2000/svg" width="24" height="24" viewBox="0 0 24 24" fill="currentColor" tags="date,month,year,event,birthday,birthdate" categories="time">
  <path d="M 8 1 A 1 1 0 0 0 7 2 L 7 3 L 5 3 C 3.3552972 3 2 4.3552972 2 6 L 2 10 L 2 20 C 2 21.644703 3.3552972 23 5 23 L 19 23 C 20.644703 23 22 21.644703 22 20 L 22 10 L 22 6 C 22 4.3552972 20.644703 3 19 3 L 17 3 L 17 2 A 1 1 0 0 0 16 1 A 1 1 0 0 0 15 2 L 15 3 L 9 3 L 9 2 A 1 1 0 0 0 8 1 z M 5 5 L 7 5 L 7 6 A 1 1 0 0 0 8 7 A 1 1 0 0 0 9 6 L 9 5 L 15 5 L 15 6 A 1 1 0 0 0 16 7 A 1 1 0 0 0 17 6 L 17 5 L 19 5 C 19.571297 5 20 5.4287028 20 6 L 20 9 L 4 9 L 4 6 C 4 5.4287028 4.4287028 5 5 5 z M 4 11 L 20 11 L 20 20 C 20 20.571297 19.571297 21 19 21 L 5 21 C 4.4287028 21 4 20.571297 4 20 L 4 11 z "/>
</svg>
