<?xml version="1.0" encoding="UTF-8" standalone="no"?>
<svg xmlns="http://www.w3.org/2000/svg" xmlns:svg="http://www.w3.org/2000/svg" width="24" height="24" viewBox="0 0 24 24" fill="currentColor" tags="date,day,month,year,event,confirm,subscribe,schedule,done,todo,tick,complete,task" categories="time">
  <path d="M 8 1 A 1 1 0 0 0 7 2 L 7 3 L 5 3 C 3.3549904 3 2 4.3549904 2 6 L 2 20 C 2 21.64501 3.3549904 23 5 23 L 13 23 A 1 1 0 0 0 14 22 A 1 1 0 0 0 13 21 L 5 21 C 4.4358706 21 4 20.564129 4 20 L 4 11 L 20 11 L 20 14 A 1 1 0 0 0 21 15 A 1 1 0 0 0 22 14 L 22 6 C 22 4.3549904 20.64501 3 19 3 L 17 3 L 17 2 A 1 1 0 0 0 16 1 A 1 1 0 0 0 15 2 L 15 3 L 9 3 L 9 2 A 1 1 0 0 0 8 1 z M 5 5 L 7 5 L 7 6 A 1 1 0 0 0 8 7 A 1 1 0 0 0 9 6 L 9 5 L 15 5 L 15 6 A 1 1 0 0 0 16 7 A 1 1 0 0 0 17 6 L 17 5 L 19 5 C 19.564129 5 20 5.4358706 20 6 L 20 9 L 4 9 L 4 6 C 4 5.4358706 4.4358706 5 5 5 z M 22 17 A 1 1 0 0 0 21.292969 17.292969 L 18 20.585938 L 16.707031 19.292969 A 1 1 0 0 0 15.292969 19.292969 A 1 1 0 0 0 15.292969 20.707031 L 17.292969 22.707031 A 1.0001 1.0001 0 0 0 18.707031 22.707031 L 22.707031 18.707031 A 1 1 0 0 0 22.707031 17.292969 A 1 1 0 0 0 22 17 z "/>
</svg>
