<?xml version="1.0" encoding="UTF-8" standalone="no"?>
<svg xmlns="http://www.w3.org/2000/svg" xmlns:svg="http://www.w3.org/2000/svg" width="24" height="24" viewBox="0 0 24 24" fill="currentColor" tags="date,month,year,event,sort,order,ascending,descending,increasing,decreasing,rising,falling" categories="time">
  <path d="M 8 1 A 1 1 0 0 0 7 2 L 7 3 L 5 3 C 3.3549904 3 2 4.3549904 2 6 L 2 20 C 2 21.64501 3.3549904 23 5 23 L 14 23 A 1 1 0 0 0 15 22 A 1 1 0 0 0 14 21 L 5 21 C 4.4358706 21 4 20.564129 4 20 L 4 11 L 20 11 L 20 11.34375 A 1 1 0 0 0 21 12.34375 A 1 1 0 0 0 22 11.34375 L 22 6 C 22 4.3549904 20.64501 3 19 3 L 17 3 L 17 2 A 1 1 0 0 0 16 1 A 1 1 0 0 0 15 2 L 15 3 L 9 3 L 9 2 A 1 1 0 0 0 8 1 z M 5 5 L 7 5 L 7 6 A 1 1 0 0 0 8 7 A 1 1 0 0 0 9 6 L 9 5 L 15 5 L 15 6 A 1 1 0 0 0 16 7 A 1 1 0 0 0 17 6 L 17 5 L 19 5 C 19.564129 5 20 5.4358706 20 6 L 20 9 L 4 9 L 4 6 C 4 5.4358706 4.4358706 5 5 5 z M 18 13 A 1 1 0 0 0 17.5 13.134766 A 1.0001 1.0001 0 0 0 17.292969 13.292969 L 13.292969 17.292969 A 1 1 0 0 0 13.292969 18.707031 A 1 1 0 0 0 14.707031 18.707031 L 17 16.414062 L 17 22 A 1 1 0 0 0 18 23 A 1 1 0 0 0 19 22 L 19 16.414062 L 21.292969 18.707031 A 1 1 0 0 0 22.707031 18.707031 A 1 1 0 0 0 22.707031 17.292969 L 18.738281 13.326172 A 1 1 0 0 0 18.257812 13.035156 A 1.0001 1.0001 0 0 0 18.255859 13.035156 A 1 1 0 0 0 18 13 z "/>
</svg>
