<?xml version="1.0" encoding="UTF-8" standalone="no"?>
<svg xmlns="http://www.w3.org/2000/svg" xmlns:svg="http://www.w3.org/2000/svg" width="24" height="24" viewBox="0 0 24 24" fill="currentColor" tags="date,month,year,event,heart,favourite,subscribe,valentines day" categories="time">
  <path d="M 8 1 A 1 1 0 0 0 7 2 L 7 3 L 5 3 C 3.3549936 3 2 4.3549936 2 6 L 2 10 L 2 20 C 2 21.645006 3.3549936 23 5 23 L 12 23 A 1 1 0 0 0 13 22 A 1 1 0 0 0 12 21 L 5 21 C 4.4358718 21 4 20.564128 4 20 L 4 11 L 21 11 A 1.0001 1.0001 0 0 0 22 10 L 22 6 C 22 4.3549936 20.645006 3 19 3 L 17 3 L 17 2 A 1 1 0 0 0 16 1 A 1 1 0 0 0 15 2 L 15 3 L 9 3 L 9 2 A 1 1 0 0 0 8 1 z M 5 5 L 7 5 L 7 6 A 1 1 0 0 0 8 7 A 1 1 0 0 0 9 6 L 9 5 L 15 5 L 15 6 A 1 1 0 0 0 16 7 A 1 1 0 0 0 17 6 L 17 5 L 19 5 C 19.564128 5 20 5.4358718 20 6 L 20 9 L 4 9 L 4 6 C 4 5.4358718 4.4358718 5 5 5 z M 19.494141 12.996094 C 19.07799 13.006539 18.659743 13.092788 18.261719 13.257812 C 17.999702 13.363528 17.789581 13.551211 17.564453 13.716797 L 17.847656 13.992188 L 17.857422 14.003906 C 17.745429 13.891545 17.5792 13.883253 17.455078 13.789062 C 17.353993 13.869592 17.224201 13.910565 17.132812 14.001953 L 17.384766 13.75 C 16.434074 13.064042 15.231383 12.801224 14.125 13.255859 C 13.693404 13.429402 13.316018 13.690561 13.005859 14 C 11.667564 15.324209 11.681015 17.623442 13.199219 19.154297 A 1.0001 1.0001 0 0 0 13.207031 19.160156 L 16.796875 22.710938 A 1.0001 1.0001 0 0 0 18.201172 22.712891 L 21.802734 19.162109 A 1.0001 1.0001 0 0 0 21.810547 19.154297 C 23.322431 17.629812 23.323841 15.350481 22.009766 14.025391 A 1.0001 1.0001 0 0 0 21.996094 13.990234 C 21.505315 13.501875 20.889031 13.186671 20.236328 13.058594 C 19.992519 13.010752 19.743831 12.989826 19.494141 12.996094 z M 19.644531 14.994141 C 19.989365 15.010704 20.322535 15.153397 20.580078 15.408203 A 1.0001 1.0001 0 0 0 20.585938 15.419922 C 21.150132 15.978176 21.270461 16.858925 20.390625 17.746094 L 17.501953 20.59375 L 14.617188 17.742188 C 13.739745 16.854424 13.853214 15.974865 14.414062 15.419922 A 1.0001 1.0001 0 0 0 14.417969 15.417969 C 14.565985 15.269952 14.706274 15.175303 14.871094 15.109375 A 1.0001 1.0001 0 0 0 14.882812 15.103516 C 15.420506 14.881079 16.030627 15.003886 16.441406 15.416016 A 1.0001 1.0001 0 0 0 16.453125 15.427734 L 16.802734 15.767578 A 1.0001 1.0001 0 0 0 18.207031 15.757812 L 18.546875 15.417969 C 18.684644 15.2802 18.839785 15.178149 19.011719 15.109375 A 1.0001 1.0001 0 0 0 19.025391 15.103516 C 19.226099 15.019744 19.437631 14.984203 19.644531 14.994141 z "/>
</svg>
