<svg xmlns="http://www.w3.org/2000/svg" xmlns:svg="http://www.w3.org/2000/svg" width="24" height="24" viewBox="0 0 24 24" fill="currentColor" tags="date,month,year,event,dates,months,years,events" categories="time">
  <path d="M 12 1 A 1 1 0 0 0 11 2 L 10 2 C 8.3552972 2 7 3.3552972 7 5 L 7 8 L 7 15 C 7 16.644703 8.3552972 18 10 18 L 20 18 C 21.644703 18 23 16.644703 23 15 L 23 8 L 23 5 C 23 3.3552972 21.644703 2 20 2 L 19 2 A 1 1 0 0 0 18 1 A 1 1 0 0 0 17 2 L 13 2 A 1 1 0 0 0 12 1 z M 10 4 L 11 4 A 1 1 0 0 0 12 5 A 1 1 0 0 0 13 4 L 17 4 A 1 1 0 0 0 18 5 A 1 1 0 0 0 19 4 L 20 4 C 20.571297 4 21 4.4287028 21 5 L 21 7 L 9 7 L 9 5 C 9 4.4287028 9.4287028 4 10 4 z M 4 7 C 2.3549904 7 1 8.3549904 1 10 L 1 20 C 1 21.64501 2.3549904 23 4 23 L 14 23 C 15.063914 22.999873 16.052567 22.43391 16.589844 21.515625 A 1 1 0 0 0 16.230469 20.146484 A 1 1 0 0 0 14.863281 20.505859 C 14.683139 20.813748 14.356717 20.999957 14 21 L 4 21 C 3.4358706 21 3 20.564129 3 20 L 3 14 L 4 14 A 1 1 0 0 0 5 13 A 1 1 0 0 0 4 12 L 3 12 L 3 10 C 3 9.4358706 3.4358706 9 4 9 A 1 1 0 0 0 5 8 A 1 1 0 0 0 4 7 z M 9 9 L 21 9 L 21 15 C 21 15.571297 20.571297 16 20 16 L 10 16 C 9.4287028 16 9 15.571297 9 15 L 9 9 z "/>
</svg>
