<?xml version="1.0" encoding="UTF-8" standalone="no"?>
<svg xmlns="http://www.w3.org/2000/svg" xmlns:svg="http://www.w3.org/2000/svg" width="24" height="24" viewBox="0 0 24 24" fill="currentColor" tags="date,day,month,year,events,settings,gear,cog" categories="time">
  <path d="M 8 1 A 1 1 0 0 0 7 2 L 7 3 L 5 3 C 3.3549904 3 2 4.3549904 2 6 L 2 20 C 2 21.64501 3.3549904 23 5 23 L 11 23 A 1 1 0 0 0 12 22 A 1 1 0 0 0 11 21 L 5 21 C 4.4358706 21 4 20.564129 4 20 L 4 11 L 20.087891 11 A 1 1 0 0 0 21 11.591797 A 1 1 0 0 0 22 10.591797 L 22 6 C 22 4.3549904 20.64501 3 19 3 L 17 3 L 17 2 A 1 1 0 0 0 16 1 A 1 1 0 0 0 15 2 L 15 3 L 9 3 L 9 2 A 1 1 0 0 0 8 1 z M 5 5 L 7 5 L 7 6 A 1 1 0 0 0 8 7 A 1 1 0 0 0 9 6 L 9 5 L 15 5 L 15 6 A 1 1 0 0 0 16 7 A 1 1 0 0 0 17 6 L 17 5 L 19 5 C 19.564129 5 20 5.4358706 20 6 L 20 9 L 4 9 L 4 6 C 4 5.4358706 4.4358706 5 5 5 z M 16.470703 13.304688 A 1 1 0 0 0 16.087891 13.380859 A 1 1 0 0 0 15.546875 14.6875 L 15.597656 14.808594 C 15.30069 15.033276 15.035346 15.298829 14.810547 15.595703 L 14.6875 15.544922 A 1 1 0 0 0 13.380859 16.085938 A 1 1 0 0 0 13.921875 17.392578 L 14.039062 17.441406 C 14.013153 17.624122 14 17.810512 14 18 C 14 18.189488 14.013153 18.375878 14.039062 18.558594 L 13.921875 18.607422 A 1 1 0 0 0 13.380859 19.914062 A 1 1 0 0 0 14.6875 20.455078 L 14.810547 20.404297 C 15.03502 20.700741 15.299259 20.96498 15.595703 21.189453 L 15.544922 21.3125 A 1 1 0 0 0 16.085938 22.619141 A 1 1 0 0 0 17.392578 22.078125 L 17.441406 21.960938 C 17.624122 21.986847 17.810512 22 18 22 C 18.188931 22 18.374439 21.986698 18.556641 21.960938 L 18.605469 22.078125 A 1 1 0 0 0 19.912109 22.621094 A 1 1 0 0 0 20.455078 21.314453 L 20.404297 21.189453 C 20.70099 20.96488 20.964825 20.700946 21.189453 20.404297 L 21.3125 20.455078 A 1 1 0 0 0 22.619141 19.914062 A 1 1 0 0 0 22.078125 18.607422 L 21.960938 18.558594 C 21.986847 18.375878 22 18.189488 22 18 C 22 17.810512 21.986847 17.624122 21.960938 17.441406 L 22.078125 17.392578 A 1 1 0 0 0 22.619141 16.085938 A 1 1 0 0 0 21.3125 15.544922 L 21.189453 15.595703 C 20.96498 15.299259 20.700741 15.03502 20.404297 14.810547 L 20.455078 14.6875 A 1 1 0 0 0 19.914062 13.380859 A 1 1 0 0 0 19.148438 13.380859 A 1 1 0 0 0 18.607422 13.921875 L 18.558594 14.039062 C 18.375878 14.013153 18.189488 14 18 14 C 17.811069 14 17.625561 14.013302 17.443359 14.039062 L 17.394531 13.921875 A 1 1 0 0 0 16.470703 13.304688 z M 18 16 C 18.248407 16 18.484941 16.044679 18.703125 16.125 A 1 1 0 0 0 18.765625 16.152344 A 1 1 0 0 0 18.835938 16.179688 C 19.272849 16.37762 19.62238 16.727151 19.820312 17.164062 A 1 1 0 0 0 19.847656 17.234375 A 1 1 0 0 0 19.875 17.296875 C 19.955321 17.515059 20 17.751593 20 18 C 20 18.248407 19.955321 18.48494 19.875 18.703125 A 1 1 0 0 0 19.847656 18.765625 A 1 1 0 0 0 19.820312 18.835938 C 19.622309 19.273008 19.273071 19.624372 18.835938 19.822266 A 1 1 0 0 0 18.765625 19.847656 A 1 1 0 0 0 18.703125 19.875 C 18.484941 19.955321 18.248407 20 18 20 C 17.751593 20 17.515059 19.955321 17.296875 19.875 A 1 1 0 0 0 17.234375 19.847656 A 1 1 0 0 0 17.164062 19.820312 C 16.72715 19.62238 16.37762 19.27285 16.179688 18.835938 A 1 1 0 0 0 16.152344 18.765625 A 1 1 0 0 0 16.125 18.703125 C 16.044679 18.484941 16 18.248407 16 18 C 16 17.751593 16.044679 17.515059 16.125 17.296875 A 1 1 0 0 0 16.152344 17.234375 A 1 1 0 0 0 16.179688 17.164062 C 16.37762 16.727151 16.727151 16.37762 17.164062 16.179688 A 1 1 0 0 0 17.234375 16.152344 A 1 1 0 0 0 17.296875 16.125 C 17.515059 16.044679 17.751593 16 18 16 z "/>
</svg>
