<?xml version="1.0" encoding="UTF-8" standalone="no"?>
<svg xmlns="http://www.w3.org/2000/svg" xmlns:svg="http://www.w3.org/2000/svg" width="24" height="24" viewBox="0 0 24 24" fill="currentColor" tags="date,day,month,year,events,settings,gear,cog" categories="time">
  <path d="M 8 1 A 1 1 0 0 0 7 2 L 7 3 L 5 3 C 3.3549936 3 2 4.3549936 2 6 L 2 20 C 2 21.645006 3.3549936 23 5 23 L 11 23 A 1 1 0 0 0 12 22 A 1 1 0 0 0 11 21 L 5 21 C 4.4358718 21 4 20.564128 4 20 L 4 11 L 20.154297 11 A 1 1 0 0 0 21 11.5 A 1 1 0 0 0 22 10.5 L 22 6 C 22 4.3549936 20.645006 3 19 3 L 17 3 L 17 2 A 1 1 0 0 0 16 1 A 1 1 0 0 0 15 2 L 15 3 L 9 3 L 9 2 A 1 1 0 0 0 8 1 z M 5 5 L 7 5 L 7 6 A 1 1 0 0 0 8 7 A 1 1 0 0 0 9 6 L 9 5 L 15 5 L 15 6 A 1 1 0 0 0 16 7 A 1 1 0 0 0 17 6 L 17 5 L 19 5 C 19.564128 5 20 5.4358718 20 6 L 20 9 L 4 9 L 4 6 C 4 5.4358718 4.4358718 5 5 5 z M 16.552734 13.302734 A 1 1 0 0 0 16.09375 13.386719 A 1 1 0 0 0 15.585938 14.707031 L 15.623047 14.791016 C 15.306469 15.026574 15.026574 15.306469 14.791016 15.623047 L 14.707031 15.585938 A 1 1 0 0 0 13.941406 15.566406 A 1 1 0 0 0 13.386719 16.09375 A 1 1 0 0 0 13.894531 17.414062 L 14.037109 17.476562 C 14.01426 17.648404 14 17.822248 14 18 C 14 18.177752 14.01426 18.351596 14.037109 18.523438 L 13.894531 18.585938 A 1 1 0 0 0 13.386719 19.90625 A 1 1 0 0 0 14.707031 20.414062 L 14.791016 20.376953 C 15.026574 20.693531 15.306469 20.973426 15.623047 21.208984 L 15.585938 21.292969 A 1 1 0 0 0 16.09375 22.613281 A 1 1 0 0 0 17.414062 22.105469 L 17.476562 21.962891 C 17.648404 21.98574 17.822248 22 18 22 C 18.177752 22 18.351596 21.98574 18.523438 21.962891 L 18.585938 22.105469 A 1 1 0 0 0 19.90625 22.613281 A 1 1 0 0 0 20.414062 21.292969 L 20.376953 21.208984 C 20.693531 20.973426 20.973426 20.693531 21.208984 20.376953 L 21.292969 20.414062 A 1 1 0 0 0 22.613281 19.90625 A 1 1 0 0 0 22.105469 18.585938 L 21.962891 18.523438 C 21.98574 18.351596 22 18.177752 22 18 C 22 17.822248 21.98574 17.648404 21.962891 17.476562 L 22.105469 17.414062 A 1 1 0 0 0 22.613281 16.09375 A 1 1 0 0 0 21.292969 15.585938 L 21.208984 15.623047 C 20.973426 15.306469 20.693531 15.026574 20.376953 14.791016 L 20.414062 14.707031 A 1 1 0 0 0 19.90625 13.386719 A 1 1 0 0 0 19.140625 13.367188 A 1 1 0 0 0 18.585938 13.894531 L 18.523438 14.037109 C 18.351596 14.01426 18.177752 14 18 14 C 17.822248 14 17.648404 14.01426 17.476562 14.037109 L 17.414062 13.894531 A 1 1 0 0 0 16.859375 13.367188 A 1 1 0 0 0 16.552734 13.302734 z M 18 16 C 19.116412 16 20 16.883588 20 18 C 20 19.116412 19.116412 20 18 20 C 16.883588 20 16 19.116412 16 18 C 16 16.883588 16.883588 16 18 16 z "/>
</svg>
