<svg xmlns="http://www.w3.org/2000/svg" xmlns:svg="http://www.w3.org/2000/svg" width="24" height="24" viewBox="0 0 24 24" fill="currentColor" tags="date,day,month,year,event,clock,hour" categories="time">
  <path d="M 8 1 A 1 1 0 0 0 7 2 L 7 3 L 5 3 C 3.3549904 3 2 4.3549904 2 6 L 2 20 C 2 21.64501 3.3549904 23 5 23 L 8.5 23 A 1 1 0 0 0 9.5 22 A 1 1 0 0 0 8.5 21 L 5 21 C 4.4358706 21 4 20.564129 4 20 L 4 11 L 8 11 A 1 1 0 0 0 9 10 A 1 1 0 0 0 8 9 L 4 9 L 4 6 C 4 5.4358706 4.4358706 5 5 5 L 7 5 L 7 6 A 1 1 0 0 0 8 7 A 1 1 0 0 0 9 6 L 9 5 L 15 5 L 15 6 A 1 1 0 0 0 16 7 A 1 1 0 0 0 17 6 L 17 5 L 19 5 C 19.564129 5 20 5.4358706 20 6 L 20 7.5 A 1 1 0 0 0 21 8.5 A 1 1 0 0 0 22 7.5 L 22 6 C 22 4.3549904 20.64501 3 19 3 L 17 3 L 17 2 A 1 1 0 0 0 16 1 A 1 1 0 0 0 15 2 L 15 3 L 9 3 L 9 2 A 1 1 0 0 0 8 1 z M 16 9 C 12.145851 9 9 12.145851 9 16 C 9 19.854149 12.145851 23 16 23 C 19.854149 23 23 19.854149 23 16 C 23 12.145851 19.854149 9 16 9 z M 16 11 C 18.773268 11 21 13.226732 21 16 C 21 18.773268 18.773268 21 16 21 C 13.226732 21 11 18.773268 11 16 C 11 13.226732 13.226732 11 16 11 z M 16 13 A 1 1 0 0 0 15 14 L 15 16.199219 A 1.0001 1.0001 0 0 0 15.470703 17.048828 L 17.070312 18.048828 A 1 1 0 0 0 18.447266 17.730469 A 1 1 0 0 0 18.130859 16.351562 L 17 15.646484 L 17 14 A 1 1 0 0 0 16 13 z "/>
</svg>
