<?xml version="1.0" encoding="UTF-8" standalone="no"?>
<svg xmlns="http://www.w3.org/2000/svg" xmlns:svg="http://www.w3.org/2000/svg" width="24" height="24" viewBox="0 0 24 24" fill="currentColor" tags="date,day,month,year,events,settings,gear,cog" categories="time">
  <path d="M 8 1 A 1 1 0 0 0 7 2 L 7 3 L 5 3 C 3.3549904 3 2 4.3549904 2 6 L 2 20 C 2 21.64501 3.3549904 23 5 23 L 11 23 A 1 1 0 0 0 12 22 A 1 1 0 0 0 11 21 L 5 21 C 4.4358706 21 4 20.564129 4 20 L 4 11 L 20.134766 11 A 1 1 0 0 0 21 11.5 A 1 1 0 0 0 22 10.5 L 22 6 C 22 4.3549904 20.64501 3 19 3 L 17 3 L 17 2 A 1 1 0 0 0 16 1 A 1 1 0 0 0 15 2 L 15 3 L 9 3 L 9 2 A 1 1 0 0 0 8 1 z M 5 5 L 7 5 L 7 6 A 1 1 0 0 0 8 7 A 1 1 0 0 0 9 6 L 9 5 L 15 5 L 15 6 A 1 1 0 0 0 16 7 A 1 1 0 0 0 17 6 L 17 5 L 19 5 C 19.564129 5 20 5.4358706 20 6 L 20 9 L 4 9 L 4 6 C 4 5.4358706 4.4358706 5 5 5 z M 16.474609 13.300781 A 1 1 0 0 0 16.09375 13.386719 A 1 1 0 0 0 15.585938 14.707031 L 15.623047 14.789062 C 15.306562 15.024571 15.024571 15.306562 14.789062 15.623047 L 14.707031 15.585938 A 1 1 0 0 0 13.941406 15.566406 A 1 1 0 0 0 13.386719 16.09375 A 1 1 0 0 0 13.894531 17.414062 L 14.035156 17.476562 C 14.012412 17.648021 14 17.822661 14 18 C 14 18.177339 14.012412 18.35198 14.035156 18.523438 L 13.894531 18.585938 A 1 1 0 0 0 13.386719 19.90625 A 1 1 0 0 0 14.707031 20.414062 L 14.789062 20.376953 C 15.024571 20.693438 15.306562 20.975429 15.623047 21.210938 L 15.585938 21.292969 A 1 1 0 0 0 16.09375 22.613281 A 1 1 0 0 0 17.414062 22.105469 L 17.476562 21.964844 C 17.648021 21.987588 17.822661 22 18 22 C 18.177339 22 18.351979 21.987588 18.523438 21.964844 L 18.585938 22.105469 A 1 1 0 0 0 19.90625 22.613281 A 1 1 0 0 0 20.414062 21.292969 L 20.376953 21.210938 C 20.693438 20.975429 20.975429 20.693438 21.210938 20.376953 L 21.292969 20.414062 A 1 1 0 0 0 22.613281 19.90625 A 1 1 0 0 0 22.105469 18.585938 L 21.964844 18.523438 C 21.987588 18.351979 22 18.177339 22 18 C 22 17.822661 21.987588 17.648021 21.964844 17.476562 L 22.105469 17.414062 A 1 1 0 0 0 22.613281 16.09375 A 1 1 0 0 0 21.292969 15.585938 L 21.210938 15.623047 C 20.975429 15.306562 20.693438 15.024571 20.376953 14.789062 L 20.414062 14.707031 A 1 1 0 0 0 19.90625 13.386719 A 1 1 0 0 0 19.140625 13.367188 A 1 1 0 0 0 18.585938 13.894531 L 18.523438 14.035156 C 18.351979 14.012412 18.177339 14 18 14 C 17.822661 14 17.648021 14.012412 17.476562 14.035156 L 17.414062 13.894531 A 1 1 0 0 0 16.474609 13.300781 z M 18 16 C 19.116414 16 20 16.883586 20 18 C 20 19.116414 19.116414 20 18 20 C 16.883586 20 16 19.116414 16 18 C 16 16.883586 16.883586 16 18 16 z "/>
</svg>
