<?xml version="1.0" encoding="UTF-8" standalone="no"?>
<svg xmlns="http://www.w3.org/2000/svg" xmlns:svg="http://www.w3.org/2000/svg" width="24" height="24" viewBox="0 0 24 24" fill="currentColor" tags="date,day,month,year,events,search" categories="time">
  <path d="M 8 1 A 1 1 0 0 0 7 2 L 7 3 L 5 3 C 3.3549936 3 2 4.3549936 2 6 L 2 20 C 2 21.645006 3.3549936 23 5 23 L 12.25 23 A 1 1 0 0 0 13.25 22 A 1 1 0 0 0 12.25 21 L 5 21 C 4.4358718 21 4 20.564128 4 20 L 4 11 L 20 11 L 20 11.75 A 1 1 0 0 0 21 12.75 A 1 1 0 0 0 22 11.75 L 22 6 C 22 4.3549936 20.645006 3 19 3 L 17 3 L 17 2 A 1 1 0 0 0 16 1 A 1 1 0 0 0 15 2 L 15 3 L 9 3 L 9 2 A 1 1 0 0 0 8 1 z M 5 5 L 7 5 L 7 6 A 1 1 0 0 0 8 7 A 1 1 0 0 0 9 6 L 9 5 L 15 5 L 15 6 A 1 1 0 0 0 16 7 A 1 1 0 0 0 17 6 L 17 5 L 19 5 C 19.564128 5 20 5.4358718 20 6 L 20 9 L 4 9 L 4 6 C 4 5.4358718 4.4358718 5 5 5 z M 18 14 C 15.80271 14 14 15.80271 14 18 C 14 20.19729 15.80271 22 18 22 C 18.738479 22 19.43146 21.795196 20.027344 21.441406 L 21.292969 22.707031 A 1 1 0 0 0 22.707031 22.707031 A 1 1 0 0 0 22.707031 21.292969 L 21.441406 20.027344 C 21.795196 19.43146 22 18.738479 22 18 C 22 15.80271 20.19729 14 18 14 z M 18 16 C 19.116412 16 20 16.883588 20 18 C 20 18.558206 19.778417 19.057521 19.417969 19.417969 C 19.057521 19.778417 18.558206 20 18 20 C 16.883588 20 16 19.116412 16 18 C 16 16.883588 16.883588 16 18 16 z "/>
</svg>
