<svg xmlns="http://www.w3.org/2000/svg" xmlns:svg="http://www.w3.org/2000/svg" width="24" height="24" viewBox="0 0 24 24" fill="currentColor" tags="date,day,month,year,events,search,lens" categories="time">
  <path d="M 8 1 A 1 1 0 0 0 7 2 L 7 3 L 5 3 C 3.3549904 3 2 4.3549904 2 6 L 2 20 C 2 21.64501 3.3549904 23 5 23 L 12.25 23 A 1 1 0 0 0 13.25 22 A 1 1 0 0 0 12.25 21 L 5 21 C 4.4358706 21 4 20.564129 4 20 L 4 11 L 20 11 L 20 11.75 A 1 1 0 0 0 21 12.75 A 1 1 0 0 0 22 11.75 L 22 6 C 22 4.3549904 20.64501 3 19 3 L 17 3 L 17 2 A 1 1 0 0 0 16 1 A 1 1 0 0 0 15 2 L 15 3 L 9 3 L 9 2 A 1 1 0 0 0 8 1 z M 5 5 L 7 5 L 7 6 A 1 1 0 0 0 8 7 A 1 1 0 0 0 9 6 L 9 5 L 15 5 L 15 6 A 1 1 0 0 0 16 7 A 1 1 0 0 0 17 6 L 17 5 L 19 5 C 19.564129 5 20 5.4358706 20 6 L 20 9 L 4 9 L 4 6 C 4 5.4358706 4.4358706 5 5 5 z M 18 14 C 15.802706 14 14 15.802706 14 18 C 14 20.197294 15.802706 22 18 22 C 18.738545 22 19.433377 21.797207 20.029297 21.443359 L 21.292969 22.707031 A 1 1 0 0 0 22.707031 22.707031 A 1 1 0 0 0 22.707031 21.292969 L 21.443359 20.029297 C 21.797207 19.433377 22 18.738545 22 18 C 22 15.802706 20.197294 14 18 14 z M 18 16 C 19.116414 16 20 16.883586 20 18 C 20 18.545131 19.788936 19.034232 19.443359 19.392578 C 19.43507 19.401174 19.426412 19.409525 19.417969 19.417969 A 1 1 0 0 0 19.392578 19.443359 C 19.034232 19.788936 18.545131 20 18 20 C 16.883586 20 16 19.116414 16 18 C 16 16.883586 16.883586 16 18 16 z "/>
</svg>
