<?xml version="1.0" encoding="UTF-8" standalone="no"?>
<svg xmlns="http://www.w3.org/2000/svg" xmlns:svg="http://www.w3.org/2000/svg" width="24" height="24" viewBox="0 0 24 24" fill="currentColor" tags="date,time,search,events" categories="time">
  
  <path d="M 8 1 A 1 1 0 0 0 7 2 L 7 3 L 5 3 C 3.3549936 3 2 4.3549936 2 6 L 2 20 C 2 21.645451 3.3545487 23 5 23 L 12.5 23 A 1 1 0 0 0 13.5 22 A 1 1 0 0 0 12.5 21 L 5 21 C 4.4454557 21 4 20.554544 4 20 L 4 11 L 20 11 L 20 12 A 1 1 0 0 0 21 13 A 1 1 0 0 0 22 12 L 22 6 C 22 4.3549936 20.645006 3 19 3 L 17 3 L 17 2 A 1 1 0 0 0 16 1 A 1 1 0 0 0 15 2 L 15 3 L 9 3 L 9 2 A 1 1 0 0 0 8 1 z M 5 5 L 7 5 L 7 6 A 1 1 0 0 0 8 7 A 1 1 0 0 0 9 6 L 9 5 L 15 5 L 15 6 A 1 1 0 0 0 16 7 A 1 1 0 0 0 17 6 L 17 5 L 19 5 C 19.564128 5 20 5.4358718 20 6 L 20 9 L 4 9 L 4 6 C 4 5.4358718 4.4358718 5 5 5 z M 18 14 C 16.750003 14 15.685224 14.504756 15.001953 15.273438 C 14.318682 16.042118 14 17.02778 14 18 C 14 18.97222 14.318682 19.957882 15.001953 20.726562 C 15.685224 21.495244 16.750003 22 18 22 C 18.774222 22 19.47703 21.806618 20.0625 21.476562 L 21.292969 22.707031 A 1 1 0 0 0 22.707031 22.707031 A 1 1 0 0 0 22.707031 21.292969 L 21.472656 20.058594 C 21.829435 19.424655 22 18.709012 22 18 C 22 17.02778 21.681318 16.042118 20.998047 15.273438 C 20.314776 14.504756 19.249997 14 18 14 z M 18 16 C 18.749998 16 19.185226 16.245246 19.501953 16.601562 C 19.81868 16.95788 20 17.472224 20 18 C 20 18.527776 19.81868 19.042121 19.501953 19.398438 C 19.185226 19.754755 18.749998 20 18 20 C 17.250002 20 16.814774 19.754755 16.498047 19.398438 C 16.18132 19.042121 16 18.527776 16 18 C 16 17.472224 16.18132 16.95788 16.498047 16.601562 C 16.814774 16.245246 17.250002 16 18 16 z "/>
</svg>
