<svg xmlns="http://www.w3.org/2000/svg" xmlns:svg="http://www.w3.org/2000/svg" width="24" height="24" viewBox="0 0 24 24" fill="currentColor" tags="photography,lens,focus,capture,shot,visual,image,device,equipment,photo,webcam,video" categories="photography,devices,communication">
  <path d="M 10.003906 3 C 8.9043471 2.9999398 7.8886247 3.6052632 7.3652344 4.5722656 L 6.8769531 5.4765625 C 6.7013325 5.8010346 6.3650446 6.0000202 5.9960938 6 L 4 6 C 2.3549904 6 1 7.3549904 1 9 L 1 18 C 1 19.64501 2.3549904 21 4 21 L 20 21 C 21.64501 21 23 19.64501 23 18 L 23 9 C 23 7.3549904 21.64501 6 20 6 L 18.003906 6 C 17.634553 6.0000052 17.29849 5.799635 17.123047 5.4746094 L 16.636719 4.5742188 C 16.113872 3.6055923 15.096823 2.9999844 13.996094 3 L 10.003906 3 z M 10.003906 5 L 13.996094 5 C 14.365447 4.9999948 14.70151 5.200365 14.876953 5.5253906 L 15.363281 6.4257812 C 15.886128 7.3944078 16.903177 8.0000156 18.003906 8 L 20 8 C 20.564129 8 21 8.4358706 21 9 L 21 18 C 21 18.564129 20.564129 19 20 19 L 4 19 C 3.4358706 19 3 18.564129 3 18 L 3 9 C 3 8.4358706 3.4358706 8 4 8 L 5.9960938 8 C 7.0956532 8.0000602 8.1113753 7.3947368 8.6347656 6.4277344 L 9.125 5.5234375 C 9.3006206 5.1989654 9.6349557 4.9999798 10.003906 5 z M 12 9 C 9.8027056 9 8 10.802706 8 13 C 8 15.197294 9.8027056 17 12 17 C 14.197294 17 16 15.197294 16 13 C 16 10.802706 14.197294 9 12 9 z M 12 11 C 13.116414 11 14 11.883586 14 13 C 14 14.116414 13.116414 15 12 15 C 10.883586 15 10 14.116414 10 13 C 10 11.883586 10.883586 11 12 11 z "/>
</svg>
