<?xml version="1.0" encoding="UTF-8" standalone="no"?>
<svg xmlns="http://www.w3.org/2000/svg" xmlns:svg="http://www.w3.org/2000/svg" width="24" height="24" viewBox="0 0 24 24" fill="currentColor" tags="photo,webcam,video" categories="photography,devices,communication">
  <path d="M 9.5 3 A 1.0001 1.0001 0 0 0 8.7324219 3.359375 L 6.53125 6 L 4 6 C 2.3549904 6 1 7.3549904 1 9 L 1 18 C 1 19.64501 2.3549904 21 4 21 L 20 21 C 21.64501 21 23 19.64501 23 18 L 23 9 C 23 7.3549904 21.64501 6 20 6 L 17.46875 6 L 15.267578 3.359375 A 1.0001 1.0001 0 0 0 14.5 3 L 9.5 3 z M 9.96875 5 L 14.03125 5 L 16.232422 7.640625 A 1.0001 1.0001 0 0 0 17 8 L 20 8 C 20.564129 8 21 8.4358706 21 9 L 21 18 C 21 18.564129 20.564129 19 20 19 L 4 19 C 3.4358706 19 3 18.564129 3 18 L 3 9 C 3 8.4358706 3.4358706 8 4 8 L 7 8 A 1.0001 1.0001 0 0 0 7.7675781 7.640625 L 9.96875 5 z M 12 9 C 9.8027056 9 8 10.802706 8 13 C 8 15.197294 9.8027056 17 12 17 C 14.197294 17 16 15.197294 16 13 C 16 10.802706 14.197294 9 12 9 z M 12 11 C 13.116414 11 14 11.883586 14 13 C 14 14.116414 13.116414 15 12 15 C 10.883586 15 10 14.116414 10 13 C 10 11.883586 10.883586 11 12 11 z "/>
</svg>
