<svg xmlns="http://www.w3.org/2000/svg" xmlns:svg="http://www.w3.org/2000/svg" width="24" height="24" viewBox="0 0 24 24" fill="currentColor" tags="photo,webcam,video" categories="photography,devices,communication">
  <path d="M 2 1 A 1 1 0 0 0 1.2929688 1.2929688 A 1 1 0 0 0 1.2929688 2.7070312 L 4.5859375 6 L 4 6 C 2.3549904 6 1 7.3549904 1 9 L 1 18 C 1 19.64501 2.3549904 21 4 21 L 19.585938 21 L 21.292969 22.707031 A 1 1 0 0 0 22.707031 22.707031 A 1 1 0 0 0 22.707031 21.292969 L 20.716797 19.302734 A 1 1 0 0 0 20.697266 19.283203 L 15.335938 13.921875 A 1 1 0 0 0 15.199219 13.785156 L 11.208984 9.7949219 A 1 1 0 0 0 11.083984 9.6699219 L 2.7070312 1.2929688 A 1 1 0 0 0 2 1 z M 10.003906 3 C 9.8487081 2.9999928 9.6943517 3.0111853 9.5410156 3.0351562 A 1 1 0 0 0 8.7070312 4.1777344 A 1 1 0 0 0 9.8496094 5.0117188 C 9.9007216 5.0037284 9.9521736 4.9999976 10.003906 5 L 13.996094 5 C 14.365447 4.9999948 14.70151 5.200365 14.876953 5.5253906 L 15.363281 6.4257812 C 15.886128 7.3944078 16.903177 8.0000156 18.003906 8 L 20 8 C 20.564129 8 21 8.4358706 21 9 L 21 16.34375 A 1 1 0 0 0 22 17.34375 A 1 1 0 0 0 23 16.34375 L 23 9 C 23 7.3549904 21.64501 6 20 6 L 18.003906 6 C 17.634553 6.0000052 17.29849 5.799635 17.123047 5.4746094 L 16.636719 4.5742188 C 16.113872 3.6055923 15.096823 2.9999844 13.996094 3 L 10.003906 3 z M 6.5371094 7.9511719 L 8.9726562 10.386719 C 7.662411 11.918063 7.6592586 14.317828 9.171875 15.830078 C 10.684147 17.341983 13.080667 17.335669 14.611328 16.025391 L 17.585938 19 L 4 19 C 3.4358706 19 3 18.564129 3 18 L 3 9 C 3 8.4358706 3.4358706 8 4 8 L 5.9960938 8 C 6.1780827 8.000077 6.3590507 7.9835834 6.5371094 7.9511719 z M 10.388672 11.802734 L 13.197266 14.611328 C 12.43195 15.195249 11.32864 15.158539 10.585938 14.416016 C 9.8432179 13.673477 9.8052069 12.568676 10.388672 11.802734 z "/>
</svg>
