<?xml version="1.0" encoding="UTF-8" standalone="no"?>
<svg xmlns="http://www.w3.org/2000/svg" xmlns:svg="http://www.w3.org/2000/svg" width="24" height="24" viewBox="0 0 24 24" fill="currentColor" tags="photo,webcam,video" categories="photography,devices,communication">
  
  <path d="M 2 1 A 1 1 0 0 0 1.2929688 1.2929688 A 1 1 0 0 0 1.2929688 2.7070312 L 4.5859375 6 L 4 6 C 2.3549936 6 1 7.3549936 1 9 L 1 18 C 1 19.645006 2.3549936 21 4 21 L 19.585938 21 L 21.292969 22.707031 A 1 1 0 0 0 22.707031 22.707031 A 1 1 0 0 0 22.707031 21.292969 L 2.7070312 1.2929688 A 1 1 0 0 0 2 1 z M 9.5 3 A 1 1 0 0 0 8.5 4 A 1 1 0 0 0 9.5 5 L 14.03125 5 L 16.232422 7.640625 A 1.0001 1.0001 0 0 0 17 8 L 20 8 C 20.564128 8 21 8.4358718 21 9 L 21 16.5 A 1 1 0 0 0 22 17.5 A 1 1 0 0 0 23 16.5 L 23 9 C 23 7.3549936 21.645006 6 20 6 L 17.46875 6 L 15.267578 3.359375 A 1.0001 1.0001 0 0 0 14.5 3 L 9.5 3 z M 4 8 L 6.5859375 8 L 8.96875 10.382812 C 8.1951821 11.223855 7.8406848 12.246379 7.8867188 13.203125 C 7.9370117 14.248386 8.4145051 15.189896 9.1132812 15.888672 C 9.8120573 16.587448 10.751614 17.064941 11.796875 17.115234 C 12.753765 17.161273 13.77775 16.807012 14.619141 16.033203 L 17.585938 19 L 4 19 C 3.4358718 19 3 18.564128 3 18 L 3 9 C 3 8.4358718 3.4358718 8 4 8 z M 10.382812 11.796875 L 13.205078 14.619141 C 12.7457 15.02912 12.318265 15.137575 11.894531 15.117188 C 11.412784 15.094008 10.909033 14.856299 10.527344 14.474609 C 10.145654 14.09292 9.9059919 13.589169 9.8828125 13.107422 C 9.8624104 12.683388 9.9721153 12.256625 10.382812 11.796875 z "/>
</svg>
