<?xml version="1.0" encoding="UTF-8" standalone="no"?>
<svg xmlns="http://www.w3.org/2000/svg" xmlns:svg="http://www.w3.org/2000/svg" width="24" height="24" viewBox="0 0 24 24" fill="currentColor" tags="sugar free,food,sweet,allergy,intolerance,diet" categories="food-beverage">
  <path d="M 2 1 A 1 1 0 0 0 1.2929688 1.2929688 A 1 1 0 0 0 1.2929688 2.7070312 L 7.0507812 8.4648438 L 6.7578125 8.7578125 C 5.0765965 10.439536 4.6067835 12.888602 5.3476562 15 L 3 15 C 2.1516776 15.000181 1.4358011 15.549988 1.1523438 16.234375 C 0.86888658 16.918762 0.98617353 17.814117 1.5859375 18.414062 A 1.0001 1.0001 0 0 0 1.5917969 18.419922 C 1.9341106 18.757421 2.0929681 19.235569 2.0214844 19.710938 A 1.0001 1.0001 0 0 0 2.0195312 19.71875 C 1.8353961 21.011677 2.9882957 22.1646 4.28125 21.980469 A 1.0001 1.0001 0 0 0 4.2890625 21.978516 C 4.7644305 21.907036 5.2425785 22.065886 5.5800781 22.408203 A 1.0001 1.0001 0 0 0 5.5859375 22.414062 C 6.1858845 23.013832 7.0812382 23.131113 7.765625 22.847656 C 8.4500118 22.564199 8.9998189 21.848322 9 21 L 9 18.652344 C 9.229527 18.732911 9.463114 18.797676 9.6992188 18.849609 A 1 1 0 0 0 9.8398438 18.880859 C 11.736499 19.250876 13.77949 18.704857 15.242188 17.242188 L 15.535156 16.949219 L 21.292969 22.707031 A 1 1 0 0 0 22.707031 22.707031 A 1 1 0 0 0 22.707031 21.292969 L 10.738281 9.3261719 A 1 1 0 0 0 10.673828 9.2617188 L 2.7070312 1.2929688 A 1 1 0 0 0 2 1 z M 16.921875 1.0058594 C 16.68237 1.0139134 16.448246 1.0637634 16.234375 1.1523438 C 15.549988 1.4358011 15.000181 2.1516776 15 3 L 15 5.3535156 C 14.774757 5.2713438 14.544588 5.2030008 14.308594 5.1484375 A 1 1 0 0 0 14.125 5.1074219 C 13.311431 4.9465808 12.444099 4.9560954 11.5625 5.1738281 A 1 1 0 0 0 10.832031 6.3847656 A 1 1 0 0 0 12.041016 7.1152344 C 12.366272 7.0349043 12.687194 6.9959673 13 6.9921875 L 13 8.34375 A 1 1 0 0 0 14 9.34375 A 1 1 0 0 0 15 8.34375 L 15 7.5058594 C 15.089194 7.5564748 15.17701 7.6088483 15.261719 7.6660156 A 1 1 0 0 0 15.556641 7.8886719 C 15.75967 8.0550973 15.944903 8.2403298 16.111328 8.4433594 A 1 1 0 0 0 16.333984 8.7382812 C 16.93112 9.6231022 17.18025 10.762568 16.884766 11.958984 A 1 1 0 0 0 17.615234 13.167969 A 1 1 0 0 0 18.826172 12.4375 C 19.124133 11.231058 19.030172 10.051731 18.646484 9 L 21 9 C 21.848322 8.9998189 22.564199 8.4500118 22.847656 7.765625 C 23.131113 7.0812382 23.013826 6.1858826 22.414062 5.5859375 A 1.0001 1.0001 0 0 0 22.408203 5.5800781 C 22.06593 5.2425791 21.907032 4.7644305 21.978516 4.2890625 A 1.0001 1.0001 0 0 0 21.980469 4.28125 C 22.164553 2.9882932 21.011704 1.8353998 19.71875 2.0195312 A 1.0001 1.0001 0 0 0 19.710938 2.0214844 C 19.23557 2.0929684 18.757421 1.9341104 18.419922 1.5917969 A 1.0001 1.0001 0 0 0 18.414062 1.5859375 C 18.114118 1.2860592 17.739755 1.10591 17.355469 1.0371094 C 17.211361 1.0113091 17.065578 1.001027 16.921875 1.0058594 z M 17 3 C 17.783126 3.7905233 18.899233 4.1610041 20 3.9980469 L 20.001953 3.9921875 C 20.001656 3.9941675 20.002247 3.9960669 20.001953 3.9980469 C 20.003953 3.997753 20.005812 3.9983442 20.007812 3.9980469 L 20.001953 4 C 19.838996 5.1007663 20.209477 6.2168737 21 7 L 17.435547 7 C 17.297614 6.847644 17.152356 6.7023863 17 6.5644531 L 17 3 z M 8.4648438 9.8789062 L 9 10.414062 L 9 16.464844 C 8.8762187 16.392793 8.7540359 16.314993 8.6367188 16.228516 C 8.6359888 16.227978 8.6354953 16.227101 8.6347656 16.226562 A 1 1 0 0 0 8.625 16.220703 C 8.4667614 16.103215 8.3157134 15.971961 8.171875 15.828125 C 8.028089 15.684296 7.8967443 15.533234 7.7792969 15.375 C 7.7770673 15.371996 7.7756576 15.368243 7.7734375 15.365234 A 1 1 0 0 0 7.7714844 15.363281 C 6.6155273 13.794591 6.7491586 11.595021 8.171875 10.171875 L 8.4648438 9.8789062 z M 11 12.414062 L 14.121094 15.535156 L 13.828125 15.828125 C 13.042892 16.613343 12.021446 17.005859 11 17.005859 L 11 12.414062 z M 3 17 L 6.5292969 17 C 6.6028769 17.082211 6.6788957 17.163247 6.7578125 17.242188 C 6.8367576 17.321131 6.917785 17.397098 7 17.470703 L 7 21 C 6.2168731 20.209436 5.1007663 19.838996 4 20.001953 L 3.9980469 20.007812 C 3.9983442 20.005813 3.997753 20.003953 3.9980469 20.001953 C 3.9960669 20.002247 3.9941675 20.001656 3.9921875 20.001953 L 3.9980469 20 C 4.1610041 18.899233 3.7905233 17.783126 3 17 z "/>
</svg>
