<?xml version="1.0" encoding="UTF-8" standalone="no"?>
<svg xmlns="http://www.w3.org/2000/svg" xmlns:svg="http://www.w3.org/2000/svg" width="24" height="24" viewBox="0 0 24 24" fill="currentColor" tags="sugar,food,sweet" categories="food-beverage">
  <path d="M 16.921875 1.0058594 C 16.68237 1.0139134 16.448246 1.0637634 16.234375 1.1523438 C 15.549988 1.4358011 15.000181 2.1516776 15 3 L 15 5.3457031 C 14.777446 5.267682 14.551023 5.2054226 14.322266 5.1542969 A 1 1 0 0 0 14.080078 5.1035156 C 13.723405 5.0389991 13.361401 5.0058594 13 5.0058594 C 11.462123 5.0058594 9.9233056 5.5900584 8.7558594 6.7578125 L 6.7578125 8.7578125 A 1.0001 1.0001 0 0 0 6.7558594 8.7578125 C 5.0746434 10.439536 4.6048303 12.888602 5.3457031 15 L 3 15 C 2.1516776 15.000181 1.4358011 15.549988 1.1523438 16.234375 C 0.86888658 16.918762 0.98617353 17.814117 1.5859375 18.414062 A 1.0001 1.0001 0 0 0 1.5917969 18.419922 C 1.9341106 18.757421 2.0929681 19.235569 2.0214844 19.710938 A 1.0001 1.0001 0 0 0 2.0195312 19.71875 C 1.8353961 21.011677 2.9882957 22.1646 4.28125 21.980469 A 1.0001 1.0001 0 0 0 4.2890625 21.978516 C 4.7644305 21.907036 5.2425785 22.065886 5.5800781 22.408203 A 1.0001 1.0001 0 0 0 5.5859375 22.414062 C 6.1858845 23.013832 7.0812382 23.131113 7.765625 22.847656 C 8.4500118 22.564199 8.9998189 21.848322 9 21 L 9 18.654297 C 9.2244065 18.732936 9.4528712 18.796373 9.6835938 18.847656 A 1 1 0 0 0 9.7265625 18.857422 C 11.654822 19.271295 13.750619 18.733316 15.242188 17.242188 L 17.242188 15.242188 A 1.0001 1.0001 0 0 0 17.244141 15.242188 C 18.932021 13.553796 19.363926 11.108508 18.59375 9 L 21 9 C 21.848322 8.9998189 22.564199 8.4500118 22.847656 7.765625 C 23.131113 7.0812382 23.013826 6.1858826 22.414062 5.5859375 A 1.0001 1.0001 0 0 0 22.408203 5.5800781 C 22.06593 5.2425791 21.907032 4.7644305 21.978516 4.2890625 A 1.0001 1.0001 0 0 0 21.980469 4.28125 C 22.164553 2.9882932 21.011704 1.8353998 19.71875 2.0195312 A 1.0001 1.0001 0 0 0 19.710938 2.0214844 C 19.23557 2.0929684 18.757421 1.9341104 18.419922 1.5917969 A 1.0001 1.0001 0 0 0 18.414062 1.5859375 C 18.114118 1.2860592 17.739755 1.10591 17.355469 1.0371094 C 17.211361 1.0113091 17.065578 1.001027 16.921875 1.0058594 z M 17 3 C 17.783126 3.7905233 18.899233 4.1610041 20 3.9980469 L 20.001953 3.9921875 C 20.001656 3.9941675 20.002247 3.9960669 20.001953 3.9980469 C 20.003953 3.997753 20.005812 3.9983442 20.007812 3.9980469 L 20.001953 4 C 19.838996 5.1007663 20.209477 6.2168737 21 7 L 17.404297 7 A 1 1 0 0 0 17.244141 6.7578125 C 17.164532 6.6781831 17.082944 6.601546 17 6.5273438 L 17 3 z M 13 6.9941406 L 13 16.466797 C 12.381977 16.826491 11.691197 17.005859 11 17.005859 L 11 7.5332031 C 11.617947 7.1736565 12.308575 6.9941406 13 6.9941406 z M 15 7.5332031 C 15.295229 7.7049793 15.574244 7.9179272 15.828125 8.171875 C 17.398019 9.7422432 17.398019 12.257757 15.828125 13.828125 L 15 14.65625 L 15 7.5332031 z M 9 9.34375 L 9 16.466797 C 8.8759765 16.394614 8.7542572 16.315184 8.6367188 16.228516 C 8.6359888 16.227977 8.6354953 16.227101 8.6347656 16.226562 A 1 1 0 0 0 8.625 16.220703 C 8.4667569 16.103175 8.3157224 15.97201 8.171875 15.828125 C 8.028089 15.684296 7.8967443 15.533234 7.7792969 15.375 C 7.7770673 15.371996 7.7756576 15.368243 7.7734375 15.365234 A 1 1 0 0 0 7.7714844 15.363281 C 6.6155273 13.794591 6.7491586 11.595021 8.171875 10.171875 L 9 9.34375 z M 3 17 L 6.5273438 17 C 6.6009237 17.082211 6.6769426 17.163247 6.7558594 17.242188 C 6.8354542 17.321803 6.9170763 17.398471 7 17.472656 L 7 21 C 6.2168731 20.209436 5.1007663 19.838996 4 20.001953 L 3.9980469 20.007812 C 3.9983442 20.005813 3.997753 20.003953 3.9980469 20.001953 C 3.9960669 20.002247 3.9941675 20.001656 3.9921875 20.001953 L 3.9980469 20 C 4.1610041 18.899233 3.7905233 17.783126 3 17 z "/>
</svg>
