<?xml version="1.0" encoding="UTF-8" standalone="no"?>
<svg xmlns="http://www.w3.org/2000/svg" xmlns:svg="http://www.w3.org/2000/svg" width="24" height="24" viewBox="0 0 24 24" fill="currentColor" tags="sugar,food,sweet" categories="food-beverage">
  <path d="M 17.001953 0.99804688 A 1.0001 1.0001 0 0 0 16.558594 1.1015625 A 1.0001 1.0001 0 0 0 16.019531 1.8046875 L 15.296875 5.4199219 C 14.669738 5.1431172 13.993104 4.9684595 13.287109 4.9296875 C 11.762428 4.8459547 10.127325 5.4312204 8.7851562 6.8007812 L 6.8007812 8.7851562 C 5.4312203 10.127325 4.8459547 11.762428 4.9296875 13.287109 C 4.9684596 13.993104 5.1431172 14.669738 5.4199219 15.296875 L 1.8046875 16.019531 A 1.0001 1.0001 0 0 0 1.1035156 17.445312 L 1.7851562 18.814453 A 1.0001 1.0001 0 0 0 1.7871094 18.820312 C 1.9255704 19.095478 1.9981213 19.398964 2 19.707031 L 2 21 A 1.0001 1.0001 0 0 0 3 22 L 4.2929688 22 C 4.6010362 22.0019 4.9044812 22.07443 5.1796875 22.212891 A 1.0001 1.0001 0 0 0 5.1855469 22.214844 L 6.5546875 22.896484 A 1.0001 1.0001 0 0 0 7.9804688 22.195312 L 8.703125 18.580078 C 9.330262 18.856883 10.006896 19.031541 10.712891 19.070312 C 12.237572 19.154042 13.872675 18.56878 15.214844 17.199219 L 17.199219 15.214844 C 18.56878 13.872675 19.154045 12.237572 19.070312 10.712891 C 19.031541 10.006896 18.856883 9.330262 18.580078 8.703125 L 22.195312 7.9804688 A 1.0001 1.0001 0 0 0 22.896484 6.5546875 L 22.214844 5.1855469 A 1.0001 1.0001 0 0 0 22.201172 5.15625 C 22.06882 4.9095936 22 4.6158537 22 4.3007812 L 22 3 A 1.0001 1.0001 0 0 0 21 2 L 19.707031 2 C 19.398964 1.99812 19.095519 1.925567 18.820312 1.7871094 A 1.0001 1.0001 0 0 0 18.814453 1.7851562 L 17.445312 1.1035156 A 1.0001 1.0001 0 0 0 17.001953 0.99804688 z M 17.724609 3.4765625 L 17.919922 3.5742188 C 17.921022 3.5747954 17.922728 3.5736433 17.923828 3.5742188 L 17.925781 3.5761719 C 18.474605 3.8512406 19.079383 3.9962557 19.693359 4 A 1.0001 1.0001 0 0 0 19.699219 4 L 20 4 L 20 4.3007812 C 20 4.9057088 20.131805 5.530172 20.439453 6.1035156 L 20.523438 6.2753906 L 17.382812 6.9042969 C 17.336534 6.8551161 17.289899 6.805524 17.242188 6.7578125 C 17.194476 6.710101 17.144884 6.6634663 17.095703 6.6171875 L 17.724609 3.4765625 z M 12.8125 6.9257812 C 12.875191 6.9229826 12.937548 6.9272595 13 6.9277344 L 13 16.460938 C 12.328683 16.91083 11.65726 17.077263 11 17.072266 L 11 7.5390625 C 11.607529 7.1319183 12.215411 6.9524365 12.8125 6.9257812 z M 15 7.5214844 C 15.297719 7.7041296 15.577454 7.9212042 15.828125 8.171875 C 16.55142 8.8951698 17.019033 9.8529595 17.072266 10.822266 C 17.125496 11.791571 16.812051 12.794113 15.800781 13.785156 A 1.0001 1.0001 0 0 0 15.792969 13.792969 L 15 14.585938 L 15 7.5214844 z M 9 9.4140625 L 9 16.478516 C 8.8785238 16.403993 8.7610424 16.322827 8.6464844 16.236328 C 8.6424233 16.233262 8.6388172 16.229643 8.6347656 16.226562 A 1 1 0 0 0 8.609375 16.208984 C 8.456542 16.091104 8.3093057 15.965556 8.171875 15.828125 C 8.0192058 15.675456 7.8803474 15.511311 7.7519531 15.339844 C 7.2720589 14.698958 6.9697309 13.942444 6.9277344 13.177734 C 6.8745018 12.208429 7.1879487 11.205887 8.1992188 10.214844 A 1.0001 1.0001 0 0 0 8.2070312 10.207031 L 9 9.4140625 z M 6.6171875 17.095703 C 6.6634663 17.144884 6.710101 17.194476 6.7578125 17.242188 C 6.805524 17.289899 6.8551161 17.336534 6.9042969 17.382812 L 6.2753906 20.523438 L 6.0800781 20.425781 C 5.5297371 20.148906 4.9226954 20.003757 4.3066406 20 A 1.0001 1.0001 0 0 0 4.3007812 20 L 4 20 L 4 19.699219 A 1.0001 1.0001 0 0 0 4 19.697266 A 1.0001 1.0001 0 0 0 4 19.695312 A 1.0001 1.0001 0 0 0 4 19.693359 C 3.9962557 19.079423 3.8512372 18.474646 3.5761719 17.925781 L 3.5742188 17.923828 L 3.4765625 17.724609 L 6.6171875 17.095703 z "/>
</svg>
