<?xml version="1.0" encoding="UTF-8" standalone="no"?>
<svg xmlns="http://www.w3.org/2000/svg" xmlns:svg="http://www.w3.org/2000/svg" width="24" height="24" viewBox="0 0 24 24" fill="currentColor" tags="sugar free,food,sweet,allergy,intolerance,diet" categories="food-beverage">
  <path d="M 2 1 A 1 1 0 0 0 1.2929688 1.2929688 A 1 1 0 0 0 1.2929688 2.7070312 L 7.0507812 8.4648438 L 6.7578125 8.7578125 C 5.0768255 10.439307 4.6072142 12.888797 5.3476562 15 L 3 15 C 2.1516776 15.000181 1.4358011 15.549988 1.1523438 16.234375 C 0.86888658 16.918762 0.98617353 17.814117 1.5859375 18.414062 A 1.0001 1.0001 0 0 0 1.5917969 18.419922 C 1.9341106 18.757421 2.0929681 19.235569 2.0214844 19.710938 A 1.0001 1.0001 0 0 0 2.0195312 19.71875 C 1.8353961 21.011677 2.9882957 22.1646 4.28125 21.980469 A 1.0001 1.0001 0 0 0 4.2890625 21.978516 C 4.7644305 21.907036 5.2425785 22.065886 5.5800781 22.408203 A 1.0001 1.0001 0 0 0 5.5859375 22.414062 C 6.1858845 23.013832 7.0812382 23.131113 7.765625 22.847656 C 8.4500118 22.564199 8.9998189 21.848322 9 21 L 9 18.654297 C 9.2234933 18.732709 9.449926 18.796389 9.6796875 18.847656 A 1 1 0 0 0 9.9277344 18.898438 C 11.799172 19.234579 13.80228 18.682067 15.242188 17.242188 L 15.535156 16.949219 L 21.292969 22.707031 A 1 1 0 0 0 22.707031 22.707031 A 1 1 0 0 0 22.707031 21.292969 L 10.716797 9.3027344 A 1 1 0 0 0 10.697266 9.2832031 L 2.7070312 1.2929688 A 1 1 0 0 0 2 1 z M 17.066406 1.0058594 C 16.77726 0.99537629 16.49102 1.0460473 16.234375 1.1523438 C 15.549988 1.4358011 15.000181 2.1516776 15 3 L 15 5.3535156 C 14.77229 5.2704654 14.539467 5.2013072 14.300781 5.1464844 A 1 1 0 0 0 14.113281 5.1054688 C 13.302834 4.9468306 12.440204 4.9570575 11.5625 5.1738281 A 1 1 0 0 0 10.832031 6.3847656 A 1 1 0 0 0 12.041016 7.1152344 C 12.366242 7.0349115 12.68722 6.9940204 13 6.9902344 L 13 8.34375 A 1 1 0 0 0 14 9.34375 A 1 1 0 0 0 15 8.34375 L 15 7.5039062 C 15.083197 7.5511111 15.164836 7.6013818 15.244141 7.6542969 A 1 1 0 0 0 15.585938 7.9101562 C 15.768543 8.0626855 15.937314 8.2314566 16.089844 8.4140625 A 1 1 0 0 0 16.345703 8.7558594 C 16.934428 9.6381943 17.178323 10.77037 16.884766 11.958984 A 1 1 0 0 0 17.615234 13.167969 A 1 1 0 0 0 18.826172 12.4375 C 19.124088 11.23124 19.030026 10.051611 18.646484 9 L 21 9 C 21.848322 8.9998189 22.564199 8.4500118 22.847656 7.765625 C 23.131113 7.0812382 23.013826 6.1858826 22.414062 5.5859375 A 1.0001 1.0001 0 0 0 22.408203 5.5800781 C 22.06593 5.2425791 21.907032 4.7644305 21.978516 4.2890625 A 1.0001 1.0001 0 0 0 21.980469 4.28125 C 22.164553 2.9882932 21.011704 1.8353998 19.71875 2.0195312 A 1.0001 1.0001 0 0 0 19.710938 2.0214844 C 19.23557 2.0929684 18.757421 1.9341104 18.419922 1.5917969 A 1.0001 1.0001 0 0 0 18.414062 1.5859375 C 18.114118 1.2860592 17.739755 1.10591 17.355469 1.0371094 C 17.259397 1.0199092 17.162788 1.0093537 17.066406 1.0058594 z M 17 3 C 17.783125 3.7905106 18.899242 4.1610029 20 3.9980469 L 20.001953 3.9980469 L 20.001953 4 C 19.838997 5.1007575 20.20949 6.2168746 21 7 L 17.4375 7 C 17.299234 6.8472369 17.152763 6.7007664 17 6.5625 L 17 3 z M 8.4648438 9.8789062 L 9 10.414062 L 9 16.466797 C 8.8727772 16.392799 8.749289 16.31189 8.6289062 16.222656 C 8.6111411 16.209488 8.5937722 16.195141 8.5761719 16.181641 C 8.4360892 16.07419 8.3003463 15.956594 8.171875 15.828125 C 8.0429089 15.69912 7.9241834 15.564542 7.8164062 15.423828 C 7.8038474 15.407431 7.791568 15.389587 7.7792969 15.373047 C 6.6149702 13.803682 6.7459751 11.598205 8.171875 10.171875 L 8.4648438 9.8789062 z M 11 12.414062 L 14.121094 15.535156 L 13.828125 15.828125 C 13.042892 16.613343 12.021446 17.005859 11 17.005859 L 11 12.414062 z M 3 17 L 6.5292969 17 C 6.602988 17.08235 6.6787672 17.163118 6.7578125 17.242188 C 6.8368824 17.321256 6.9176499 17.39699 7 17.470703 L 7 21 C 6.2168741 20.20945 5.1007572 19.838997 4 20.001953 L 3.9980469 20.001953 L 3.9980469 20 C 4.1610029 18.899242 3.7905106 17.783125 3 17 z "/>
</svg>
