<svg xmlns="http://www.w3.org/2000/svg" xmlns:svg="http://www.w3.org/2000/svg" width="24" height="24" viewBox="0 0 24 24" fill="currentColor" tags="sugar,food,sweet,christmas,xmas" categories="food-beverage">
  <path d="M 15.904297 1.0019531 C 13.661506 1.0377371 11.483123 2.1471049 10.171875 4.1152344 A 1 1 0 0 0 9.9648438 4.4453125 C 9.9540944 4.4635637 9.9441998 4.4816161 9.9335938 4.5 L 7.1328125 9.0585938 A 1 1 0 0 0 6.9804688 9.3085938 L 1.3476562 18.476562 A 1.0001 1.0001 0 0 0 1.3320312 18.503906 C 0.87466332 19.3043 0.79928245 20.202773 1.0488281 20.943359 C 1.2983738 21.683946 1.8226822 22.258888 2.453125 22.619141 C 3.0835678 22.979394 3.8446386 23.139513 4.609375 22.978516 C 5.3741114 22.817519 6.1109914 22.296488 6.5683594 21.496094 L 7.7578125 19.552734 A 1 1 0 0 0 7.7597656 19.550781 A 1 1 0 0 0 7.9257812 19.279297 L 15.125 7.5214844 A 1.0001 1.0001 0 0 0 15.140625 7.4941406 C 15.348487 7.1285443 15.546064 7.0266624 15.767578 6.9804688 C 15.989092 6.9342748 16.267709 6.9832887 16.509766 7.1230469 C 16.626119 7.1902256 16.729745 7.2768897 16.8125 7.3710938 L 16.878906 7.4902344 A 1 1 0 0 0 16.984375 7.6425781 C 16.99164 7.6602022 16.998102 7.6776796 17.003906 7.6953125 C 17.074656 7.9102481 17.085736 8.1313341 16.873047 8.4941406 C 16.406927 9.2892333 16.324194 10.18789 16.568359 10.929688 C 16.812525 11.671484 17.33314 12.246905 17.960938 12.609375 C 18.588736 12.971845 19.346827 13.135987 20.111328 12.976562 C 20.875829 12.817137 21.612828 12.295347 22.068359 11.494141 C 23.990784 8.1549292 22.838144 3.8594459 19.5 1.9335938 C 18.665 1.4518628 17.770013 1.163391 16.867188 1.0527344 C 16.546458 1.0134234 16.224696 0.99684113 15.904297 1.0019531 z M 16.671875 3.0371094 C 17.297234 3.1230675 17.917124 3.3297413 18.5 3.6660156 C 20.90376 5.0528002 21.72077 8.0962385 20.333984 10.5 A 1.0001 1.0001 0 0 0 20.330078 10.505859 C 20.122216 10.871456 19.924639 10.973338 19.703125 11.019531 C 19.481611 11.065721 19.202994 11.016731 18.960938 10.876953 C 18.718881 10.737197 18.539497 10.519623 18.46875 10.304688 C 18.398 10.089752 18.38692 9.8686659 18.599609 9.5058594 C 19.065729 8.7107667 19.148462 7.8121089 18.904297 7.0703125 C 18.802244 6.7602572 18.649565 6.4770318 18.462891 6.2285156 L 16.671875 3.0371094 z M 14.484375 3.2246094 L 15.482422 5 C 15.441645 5.006688 15.400207 5.0149226 15.359375 5.0234375 C 14.596108 5.1826055 13.859999 5.7029419 13.404297 6.5019531 L 13.404297 6.5039062 L 13.402344 6.5058594 L 13.109375 6.984375 L 12.068359 4.9023438 C 12.703652 4.0915267 13.551941 3.5206309 14.484375 3.2246094 z M 10.820312 6.8769531 L 11.878906 8.9941406 L 10.041016 11.994141 L 9.0351562 9.78125 L 10.820312 6.8769531 z M 7.7734375 11.835938 L 8.78125 14.054688 L 7.0820312 16.828125 L 6.0175781 14.695312 L 7.7734375 11.835938 z M 4.7832031 16.703125 L 5.8515625 18.839844 L 4.8476562 20.478516 A 1.0001 1.0001 0 0 0 4.8320312 20.503906 C 4.6227329 20.870178 4.4221125 20.974148 4.1972656 21.021484 C 3.9724188 21.068824 3.6898697 21.020606 3.4453125 20.880859 C 3.2007553 20.741112 3.0186836 20.524387 2.9453125 20.306641 C 2.8721145 20.089407 2.8605945 19.862796 3.0683594 19.498047 L 3.0683594 19.496094 L 4.7832031 16.703125 z "/>
</svg>
