<?xml version="1.0" encoding="UTF-8" standalone="no"?>
<svg xmlns="http://www.w3.org/2000/svg" xmlns:svg="http://www.w3.org/2000/svg" width="24" height="24" viewBox="0 0 24 24" fill="currentColor" tags="sugar,food,sweet" categories="food-beverage">
  <path d="M 17.066406 1.0058594 C 16.77726 0.99537629 16.49102 1.0460473 16.234375 1.1523438 C 15.549988 1.4358011 15.000181 2.1516776 15 3 L 15 5.3457031 C 14.773743 5.2663606 14.543194 5.199981 14.310547 5.1484375 A 1 1 0 0 0 14.080078 5.1035156 C 13.722957 5.0388329 13.361867 5.0058594 13 5.0058594 C 11.770599 5.0058594 10.544304 5.3864608 9.5039062 6.1328125 A 1 1 0 0 0 9.3300781 6.2597656 C 9.131566 6.413371 8.9377501 6.5758738 8.7558594 6.7578125 L 6.7578125 8.7578125 A 1.0001 1.0001 0 0 0 6.7558594 8.7578125 C 5.0748723 10.439307 4.6052611 12.888797 5.3457031 15 L 3 15 C 2.1516776 15.000181 1.4358011 15.549988 1.1523438 16.234375 C 0.86888658 16.918762 0.98617353 17.814117 1.5859375 18.414062 A 1.0001 1.0001 0 0 0 1.5917969 18.419922 C 1.9341106 18.757421 2.0929681 19.235569 2.0214844 19.710938 A 1.0001 1.0001 0 0 0 2.0195312 19.71875 C 1.8353961 21.011677 2.9882957 22.1646 4.28125 21.980469 A 1.0001 1.0001 0 0 0 4.2890625 21.978516 C 4.7644305 21.907036 5.2425785 22.065886 5.5800781 22.408203 A 1.0001 1.0001 0 0 0 5.5859375 22.414062 C 6.1858845 23.013832 7.0812382 23.131113 7.765625 22.847656 C 8.4500118 22.564199 8.9998189 21.848322 9 21 L 9 18.654297 C 9.224709 18.733034 9.4525544 18.798302 9.6835938 18.849609 A 1 1 0 0 0 9.9257812 18.898438 C 11.521551 19.185341 13.211651 18.82586 14.568359 17.822266 A 1 1 0 0 0 14.628906 17.777344 C 14.842169 17.615334 15.047761 17.436556 15.242188 17.242188 L 17.242188 15.242188 A 1.0001 1.0001 0 0 0 17.244141 15.242188 C 18.925127 13.560692 19.394739 11.111203 18.654297 9 L 21 9 C 21.848322 8.9998189 22.564199 8.4500118 22.847656 7.765625 C 23.131113 7.0812382 23.013826 6.1858826 22.414062 5.5859375 A 1.0001 1.0001 0 0 0 22.408203 5.5800781 C 22.06593 5.2425791 21.907032 4.7644305 21.978516 4.2890625 A 1.0001 1.0001 0 0 0 21.980469 4.28125 C 22.164553 2.9882932 21.011704 1.8353998 19.71875 2.0195312 A 1.0001 1.0001 0 0 0 19.710938 2.0214844 C 19.23557 2.0929684 18.757421 1.9341104 18.419922 1.5917969 A 1.0001 1.0001 0 0 0 18.414062 1.5859375 C 18.114118 1.2860592 17.739755 1.10591 17.355469 1.0371094 C 17.259397 1.0199092 17.162788 1.0093537 17.066406 1.0058594 z M 17 3 C 17.783125 3.7905106 18.899242 4.1610029 20 3.9980469 L 20.001953 3.9980469 L 20.001953 4 C 19.838997 5.1007575 20.20949 6.2168746 21 7 L 17.472656 7 C 17.398965 6.9176493 17.323186 6.8368818 17.244141 6.7578125 C 17.164435 6.6780894 17.083048 6.6016269 17 6.5273438 L 17 3 z M 13 6.9941406 L 13 16.466797 C 12.382083 16.82633 11.691042 17.005859 11 17.005859 L 11 7.5332031 C 11.617822 7.1738458 12.308757 6.9941406 13 6.9941406 z M 15 7.5332031 C 15.126718 7.6069087 15.251156 7.6885053 15.371094 7.7773438 A 1 1 0 0 0 15.425781 7.8183594 C 15.565366 7.9255438 15.700062 8.0437785 15.828125 8.171875 C 15.957091 8.3008803 16.075817 8.4354578 16.183594 8.5761719 A 1 1 0 0 0 16.220703 8.6269531 C 17.38503 10.196318 17.254025 12.401794 15.828125 13.828125 L 15 14.65625 L 15 7.5332031 z M 9 9.34375 L 9 16.466797 C 8.8734024 16.393136 8.7506893 16.311408 8.6308594 16.222656 C 8.611947 16.208649 8.5929444 16.196024 8.5742188 16.181641 C 8.4347251 16.074494 8.2998481 15.956132 8.171875 15.828125 C 8.0429089 15.69912 7.9241834 15.564542 7.8164062 15.423828 C 7.8038474 15.407431 7.791568 15.389587 7.7792969 15.373047 C 6.6149702 13.803682 6.7459751 11.598205 8.171875 10.171875 L 9 9.34375 z M 3 17 L 6.5273438 17 C 6.6010348 17.08235 6.6768141 17.163118 6.7558594 17.242188 C 6.8355505 17.3219 6.9169721 17.398388 7 17.472656 L 7 21 C 6.2168741 20.20945 5.1007572 19.838997 4 20.001953 L 3.9980469 20.001953 L 3.9980469 20 C 4.1610029 18.899242 3.7905106 17.783125 3 17 z "/>
</svg>
