<?xml version="1.0" encoding="UTF-8" standalone="no"?>
<svg xmlns="http://www.w3.org/2000/svg" xmlns:svg="http://www.w3.org/2000/svg" width="24" height="24" viewBox="0 0 24 24" fill="currentColor" tags="cannabis,weed,leaf" categories="nature">
  <path d="M 12 1 A 1.0001 1.0001 0 0 0 11.199219 1.4003906 C 9.8875263 3.1493137 9.4065834 5.2107395 9.2050781 7.2832031 C 7.449602 6.0422763 5.2624841 5 3 5 A 1.0001 1.0001 0 0 0 2 6 C 2 7.4166638 2.7511158 8.7482397 3.6269531 9.9609375 C 4.1173375 10.639931 4.6665032 11.040744 5.2050781 11.568359 C 4.6757836 11.753597 4.1545342 11.774037 3.6347656 12.066406 C 2.5209716 12.692916 1.4588943 13.459254 1.0507812 14.683594 A 1.0001 1.0001 0 0 0 1.6054688 15.919922 C 3.4263544 16.700301 5.0249782 16.961668 6.1992188 17.035156 C 5.4512909 18.392627 5 19.802301 5 21 A 1.0001 1.0001 0 0 0 6 22 C 8.0178539 22 9.6487035 21.145271 11 20.099609 L 11 22 A 1 1 0 0 0 12 23 A 1 1 0 0 0 13 22 L 13 20.099609 C 14.351296 21.145271 15.982146 22 18 22 A 1.0001 1.0001 0 0 0 19 21 C 19 19.802301 18.54871 18.392627 17.800781 17.035156 C 18.975022 16.961666 20.573646 16.700301 22.394531 15.919922 A 1.0001 1.0001 0 0 0 22.949219 14.683594 C 22.541105 13.459254 21.479028 12.692916 20.365234 12.066406 C 19.845466 11.774037 19.324216 11.753597 18.794922 11.568359 C 19.333496 11.040744 19.882662 10.639931 20.373047 9.9609375 C 21.248884 8.7482397 22 7.4166638 22 6 A 1.0001 1.0001 0 0 0 21 5 C 18.737516 5 16.550398 6.0422763 14.794922 7.2832031 C 14.593416 5.2107395 14.112474 3.1493137 12.800781 1.4003906 A 1.0001 1.0001 0 0 0 12 1 z M 12 4.3046875 C 12.619526 5.7459141 13 7.3116822 13 9 A 1.0001 1.0001 0 0 0 14.707031 9.7070312 C 15.672957 8.7411051 17.570063 7.8653563 19.367188 7.4140625 C 19.149268 7.9034746 19.121282 8.2776845 18.751953 8.7890625 C 18.002794 9.8263602 17.024635 10.781754 16.445312 11.167969 A 1.0001 1.0001 0 0 0 17 13 C 17.416666 13 18.498564 13.310105 19.384766 13.808594 C 19.768148 14.024247 19.828388 14.21352 20.105469 14.460938 C 17.839131 15.087331 16.195312 15.019531 16.195312 15.019531 A 1.0001 1.0001 0 0 0 15.292969 16.707031 C 16.160846 17.574909 16.545546 18.634387 16.761719 19.650391 C 15.221029 19.259909 13.825071 18.411008 12.707031 17.292969 A 1.0001 1.0001 0 0 0 12.701172 17.289062 A 1 1 0 0 0 12.384766 17.076172 A 1 1 0 0 0 12.382812 17.076172 A 1 1 0 0 0 12 17 A 1 1 0 0 0 11.654297 17.068359 A 1.0001 1.0001 0 0 0 11.599609 17.087891 A 1 1 0 0 0 11.322266 17.273438 A 1.0001 1.0001 0 0 0 11.292969 17.292969 C 10.174929 18.411008 8.7789706 19.259909 7.2382812 19.650391 C 7.4544534 18.634387 7.8391536 17.574909 8.7070312 16.707031 A 1.0001 1.0001 0 0 0 7.8046875 15.019531 C 7.8046875 15.019531 6.1608687 15.08733 3.8945312 14.460938 C 4.1716118 14.21352 4.2318509 14.024247 4.6152344 13.808594 C 5.5014364 13.310105 6.5833341 13 7 13 A 1 1 0 0 0 7.0957031 12.960938 A 1 1 0 0 0 7.4375 12.818359 A 1 1 0 0 0 7.7460938 12.611328 A 1 1 0 0 0 7.8320312 12.554688 A 1 1 0 0 0 7.9804688 12.046875 A 1 1 0 0 0 8 12 A 1 1 0 0 0 7.9804688 11.902344 A 1 1 0 0 0 7.9433594 11.714844 A 1 1 0 0 0 7.8671875 11.533203 A 1 1 0 0 0 7.7617188 11.375 A 1 1 0 0 0 7.625 11.238281 A 1 1 0 0 0 7.5546875 11.167969 C 6.9753657 10.781754 5.9972063 9.8263602 5.2480469 8.7890625 C 4.8787182 8.2776845 4.8507328 7.9034746 4.6328125 7.4140625 C 6.4299373 7.8653563 8.3270426 8.7411051 9.2929688 9.7070312 A 1.0001 1.0001 0 0 0 11 9 C 11 7.3116822 11.380474 5.7459141 12 4.3046875 z "/>
</svg>
