<svg xmlns="http://www.w3.org/2000/svg" xmlns:svg="http://www.w3.org/2000/svg" width="24" height="24" viewBox="0 0 24 24" fill="currentColor" tags="cannabis,weed,leaf" categories="nature">
  <path d="M 2 1 A 1 1 0 0 0 1.2929688 1.2929688 A 1 1 0 0 0 1.2929688 2.7070312 L 3.609375 5.0234375 C 3.4057006 5.0077183 3.2027187 5 3 5 A 1.0001 1.0001 0 0 0 2 6 C 2 7.4166667 2.7511141 8.7482372 3.6269531 9.9609375 C 4.1173385 10.639933 4.6665021 11.040743 5.2050781 11.568359 C 4.6757825 11.753597 4.1545353 11.774036 3.6347656 12.066406 C 2.5209694 12.692917 1.4588952 13.459252 1.0507812 14.683594 A 1.0001 1.0001 0 0 0 1.6054688 15.919922 C 3.4263581 16.700303 5.0249759 16.961668 6.1992188 17.035156 C 5.4512894 18.39263 5 19.802299 5 21 A 1.0001 1.0001 0 0 0 6 22 C 7.9762385 22 9.6406225 21.204034 11 20.197266 L 11 22 A 1 1 0 0 0 12 23 A 1 1 0 0 0 13 22 L 13 20.044922 C 14.380637 21.092954 15.966415 22 18 22 A 1.0001 1.0001 0 0 0 19 21 C 19 20.803469 18.991999 20.599333 18.976562 20.390625 L 21.292969 22.707031 A 1 1 0 0 0 22.707031 22.707031 A 1 1 0 0 0 22.707031 21.292969 L 7.7480469 6.3339844 A 1 1 0 0 0 7.6523438 6.2382812 L 2.7070312 1.2929688 A 1 1 0 0 0 2 1 z M 11.996094 1 A 1.0001 1.0001 0 0 0 11.197266 1.4042969 C 10.479987 2.3730105 9.9371168 3.4611893 9.5957031 4.6171875 A 1 1 0 0 0 10.271484 5.859375 A 1 1 0 0 0 11.513672 5.1835938 C 11.61624 4.836305 11.847744 4.5485357 11.994141 4.21875 C 12.557176 5.4952367 12.931742 6.8709006 12.988281 8.3652344 A 1 1 0 0 0 13.470703 9.1835938 A 1 1 0 0 0 13.585938 9.34375 A 1 1 0 0 0 14.998047 9.4355469 C 16.039421 8.5218793 17.771575 7.7726485 19.417969 7.375 C 19.23497 7.7932652 19.227891 8.0983979 18.925781 8.5410156 C 18.267263 9.505803 17.39999 10.429084 16.753906 10.941406 A 1 1 0 0 0 16.591797 12.345703 A 1 1 0 0 0 16.886719 12.595703 A 1 1 0 0 0 17.533203 13.068359 C 18.169877 13.209395 19.05586 13.58166 19.765625 14.039062 C 20.183803 14.308554 20.295049 14.530627 20.523438 14.791016 A 1 1 0 0 0 20.080078 15.707031 A 1 1 0 0 0 21.351562 16.322266 C 21.70317 16.200017 22.050352 16.066392 22.392578 15.919922 A 1.0001 1.0001 0 0 0 22.949219 14.683594 C 22.60142 13.639381 21.763344 12.94627 20.849609 12.357422 C 20.299399 12.002844 19.70813 11.702047 19.119141 11.472656 C 19.628784 10.938395 20.131224 10.322718 20.578125 9.6679688 C 21.355357 8.5292562 22 7.3039872 22 6 A 1.0001 1.0001 0 0 0 21 5 C 18.853869 5 16.614337 5.8671097 14.890625 7.0097656 C 14.663965 5.0293568 14.055793 3.0737399 12.800781 1.4003906 A 1.0001 1.0001 0 0 0 11.996094 1 z M 4.6308594 7.4101562 C 5.2386187 7.5545849 5.8283547 7.5963665 6.4179688 7.8320312 L 15.292969 16.707031 C 16.160302 17.574767 16.54561 18.634687 16.761719 19.650391 C 15.221026 19.259909 13.825073 18.41101 12.707031 17.292969 A 1.0001 1.0001 0 0 0 12.609375 17.207031 A 1.0001 1.0001 0 0 0 12.53125 17.154297 A 1.0001 1.0001 0 0 0 12.5 17.134766 A 1 1 0 0 0 12.486328 17.126953 A 1.0001 1.0001 0 0 0 12.455078 17.113281 A 1 1 0 0 0 12.367188 17.070312 A 1 1 0 0 0 12.361328 17.068359 A 1.0001 1.0001 0 0 0 12.257812 17.035156 A 1 1 0 0 0 12.244141 17.033203 A 1.0001 1.0001 0 0 0 12.195312 17.021484 A 1 1 0 0 0 12.105469 17.005859 A 1.0001 1.0001 0 0 0 12.056641 17.003906 A 1 1 0 0 0 11.964844 17.001953 A 1 1 0 0 0 11.9375 17.003906 A 1 1 0 0 0 11.832031 17.015625 A 1.0001 1.0001 0 0 0 11.78125 17.027344 A 1 1 0 0 0 11.714844 17.042969 A 1.0001 1.0001 0 0 0 11.65625 17.064453 A 1 1 0 0 0 11.578125 17.095703 A 1.0001 1.0001 0 0 0 11.533203 17.119141 A 1 1 0 0 0 11.457031 17.162109 A 1.0001 1.0001 0 0 0 11.423828 17.185547 A 1 1 0 0 0 11.347656 17.244141 A 1.0001 1.0001 0 0 0 11.314453 17.275391 A 1 1 0 0 0 11.292969 17.292969 C 10.174927 18.41101 8.7789737 19.259909 7.2382812 19.650391 C 7.4544539 18.634385 7.8391518 17.574911 8.7070312 16.707031 A 1.0001 1.0001 0 0 0 7.8046875 15.019531 C 7.8046875 15.019531 6.1608732 15.08733 3.8945312 14.460938 C 4.1716123 14.21352 4.2318501 14.024247 4.6152344 13.808594 C 5.5014382 13.310104 6.5833333 13 7 13 A 1.0001 1.0001 0 0 0 7.5546875 11.167969 C 6.9753645 10.781753 5.9972078 9.8263622 5.2480469 8.7890625 C 4.8776478 8.2762022 4.8488846 7.9006728 4.6308594 7.4101562 z "/>
</svg>
