<?xml version="1.0" encoding="UTF-8" standalone="no"?>
<svg xmlns="http://www.w3.org/2000/svg" xmlns:svg="http://www.w3.org/2000/svg" width="24" height="24" viewBox="0 0 24 24" fill="currentColor" tags="cannabis,weed,leaf" categories="nature">
  <path d="M 12 1 A 1.0001 1.0001 0 0 0 11.199219 1.4003906 C 9.8875237 3.1493171 9.4065838 5.2107353 9.2050781 7.2832031 C 7.4495985 6.0422737 5.2624886 5 3 5 A 1.0001 1.0001 0 0 0 2 6 C 2 7.4166667 2.7511141 8.7482372 3.6269531 9.9609375 C 4.1173385 10.639933 4.6665021 11.040743 5.2050781 11.568359 C 4.6757825 11.753597 4.1545353 11.774036 3.6347656 12.066406 C 2.5209694 12.692917 1.4588952 13.459252 1.0507812 14.683594 A 1.0001 1.0001 0 0 0 1.6054688 15.919922 C 3.4263581 16.700303 5.0249759 16.961668 6.1992188 17.035156 C 5.4512894 18.39263 5 19.802299 5 21 A 1.0001 1.0001 0 0 0 6 22 C 8.0178579 22 9.6487025 21.145272 11 20.099609 L 11 22 A 1 1 0 0 0 12 23 A 1 1 0 0 0 13 22 L 13 20.099609 C 14.351298 21.145272 15.982142 22 18 22 A 1.0001 1.0001 0 0 0 19 21 C 19 19.802299 18.548711 18.39263 17.800781 17.035156 C 18.975024 16.961666 20.573642 16.700303 22.394531 15.919922 A 1.0001 1.0001 0 0 0 22.949219 14.683594 C 22.541105 13.459252 21.479031 12.692917 20.365234 12.066406 C 19.845465 11.774036 19.324217 11.753597 18.794922 11.568359 C 19.333498 11.040743 19.882662 10.639933 20.373047 9.9609375 C 21.248886 8.7482372 22 7.4166667 22 6 A 1.0001 1.0001 0 0 0 21 5 C 18.737511 5 16.550402 6.0422737 14.794922 7.2832031 C 14.593416 5.2107353 14.112476 3.1493171 12.800781 1.4003906 A 1.0001 1.0001 0 0 0 12 1 z M 12 4.3046875 C 12.619527 5.7459169 13 7.3116789 13 9 A 1.0001 1.0001 0 0 0 14.707031 9.7070312 C 15.672959 8.7411032 17.57006 7.8653573 19.367188 7.4140625 C 19.149268 7.9034756 19.121282 8.2776835 18.751953 8.7890625 C 18.002792 9.8263622 17.024636 10.781753 16.445312 11.167969 A 1.0001 1.0001 0 0 0 17 13 C 17.416667 13 18.498562 13.310104 19.384766 13.808594 C 19.76815 14.024247 19.828388 14.21352 20.105469 14.460938 C 17.839127 15.087333 16.195312 15.019531 16.195312 15.019531 A 1.0001 1.0001 0 0 0 15.292969 16.707031 C 16.160848 17.574911 16.545546 18.634385 16.761719 19.650391 C 15.221026 19.259909 13.825073 18.41101 12.707031 17.292969 A 1.0001 1.0001 0 0 0 12.701172 17.289062 A 1 1 0 0 0 12.384766 17.076172 A 1 1 0 0 0 12.382812 17.076172 A 1 1 0 0 0 12 17 A 1 1 0 0 0 11.654297 17.068359 A 1.0001 1.0001 0 0 0 11.599609 17.087891 A 1 1 0 0 0 11.322266 17.273438 A 1.0001 1.0001 0 0 0 11.292969 17.292969 C 10.174927 18.41101 8.7789737 19.259909 7.2382812 19.650391 C 7.4544539 18.634385 7.8391518 17.574911 8.7070312 16.707031 A 1.0001 1.0001 0 0 0 7.8046875 15.019531 C 7.8046875 15.019531 6.1608732 15.08733 3.8945312 14.460938 C 4.1716123 14.21352 4.2318501 14.024247 4.6152344 13.808594 C 5.5014382 13.310104 6.5833333 13 7 13 A 1 1 0 0 0 7.0957031 12.960938 A 1 1 0 0 0 7.4375 12.818359 A 1 1 0 0 0 7.7460938 12.611328 A 1 1 0 0 0 7.8320312 12.554688 A 1 1 0 0 0 7.9804688 12.046875 A 1 1 0 0 0 8 12 A 1 1 0 0 0 7.9804688 11.902344 A 1 1 0 0 0 7.9433594 11.714844 A 1 1 0 0 0 7.8671875 11.533203 A 1 1 0 0 0 7.7617188 11.375 A 1 1 0 0 0 7.625 11.238281 A 1 1 0 0 0 7.5546875 11.167969 C 6.9753645 10.781753 5.9972078 9.8263622 5.2480469 8.7890625 C 4.8787176 8.2776835 4.8507332 7.9034756 4.6328125 7.4140625 C 6.4299409 7.8653573 8.3270406 8.7411031 9.2929688 9.7070312 A 1.0001 1.0001 0 0 0 11 9 C 11 7.3116789 11.380473 5.7459169 12 4.3046875 z "/>
</svg>
