<?xml version="1.0" encoding="UTF-8" standalone="no"?>
<svg xmlns="http://www.w3.org/2000/svg" xmlns:svg="http://www.w3.org/2000/svg" width="24" height="24" viewBox="0 0 24 24" fill="currentColor" tags="closed captions,subtitles,subhead,transcription,transcribe,dialogue,accessibility" categories="multimedia">
  <path d="M 5 4 C 3.3553005 4 2 5.3553005 2 7 L 2 17 C 2 18.644699 3.3553005 20 5 20 L 19 20 C 20.644699 20 22 18.644699 22 17 L 22 7 C 22 5.3553005 20.644699 4 19 4 L 5 4 z M 5 6 L 19 6 C 19.571296 6 20 6.4287039 20 7 L 20 17 C 20 17.571296 19.571296 18 19 18 L 5 18 C 4.4287039 18 4 17.571296 4 17 L 4 7 C 4 6.4287039 4.4287039 6 5 6 z M 7 10 A 1 1 0 0 0 6 11 A 1 1 0 0 0 7 12 L 9 12 A 1 1 0 0 0 10 11 A 1 1 0 0 0 9 10 L 7 10 z M 13 10 A 1 1 0 0 0 12 11 A 1 1 0 0 0 13 12 L 17 12 A 1 1 0 0 0 18 11 A 1 1 0 0 0 17 10 L 13 10 z M 7 14 A 1 1 0 0 0 6 15 A 1 1 0 0 0 7 16 L 11 16 A 1 1 0 0 0 12 15 A 1 1 0 0 0 11 14 L 7 14 z M 15 14 A 1 1 0 0 0 14 15 A 1 1 0 0 0 15 16 L 17 16 A 1 1 0 0 0 18 15 A 1 1 0 0 0 17 14 L 15 14 z "/>
</svg>
