<?xml version="1.0" encoding="UTF-8" standalone="no"?>
<svg xmlns="http://www.w3.org/2000/svg" xmlns:svg="http://www.w3.org/2000/svg" width="24" height="24" viewBox="0 0 24 24" fill="currentColor" tags="closed captions,subtitles,subhead,transcription,transcribe,dialogue,accessibility" categories="multimedia">
  <path d="M 2 1 A 1 1 0 0 0 1.2929688 1.2929688 A 1 1 0 0 0 1.2929688 2.7070312 L 3.1992188 4.6132812 C 2.4742322 5.1631759 2 6.029158 2 7 L 2 17 C 2 18.645006 3.3549936 20 5 20 L 18.585938 20 L 21.292969 22.707031 A 1 1 0 0 0 22.707031 22.707031 A 1 1 0 0 0 22.707031 21.292969 L 11.732422 10.320312 A 1 1 0 0 0 11.679688 10.267578 L 2.7070312 1.2929688 A 1 1 0 0 0 2 1 z M 10.5 4 A 1 1 0 0 0 9.5 5 A 1 1 0 0 0 10.5 6 L 19 6 C 19.564128 6 20 6.4358718 20 7 L 20 15.5 A 1 1 0 0 0 21 16.5 A 1 1 0 0 0 22 15.5 L 22 7 C 22 5.3549936 20.645006 4 19 4 L 10.5 4 z M 4.6484375 6.0625 L 8.5859375 10 L 7 10 A 1 1 0 0 0 6 11 A 1 1 0 0 0 7 12 L 10.585938 12 L 16.585938 18 L 5 18 C 4.4358718 18 4 17.564128 4 17 L 4 7 C 4 6.5608262 4.2652458 6.2010719 4.6484375 6.0625 z M 16.5 10 A 1 1 0 0 0 15.5 11 A 1 1 0 0 0 16.5 12 L 17 12 A 1 1 0 0 0 18 11 A 1 1 0 0 0 17 10 L 16.5 10 z M 7 14 A 1 1 0 0 0 6 15 A 1 1 0 0 0 7 16 L 9.5 16 A 1 1 0 0 0 10.5 15 A 1 1 0 0 0 9.5 14 L 7 14 z "/>
</svg>
