<svg xmlns="http://www.w3.org/2000/svg" xmlns:svg="http://www.w3.org/2000/svg" width="24" height="24" viewBox="0 0 24 24" fill="currentColor" tags="vehicle,drive,trip,journey" categories="transportation">
  <path d="M 8.4238281 4 C 7.1754165 3.9713269 6.0319374 4.727215 5.5683594 5.8867188 L 4.6347656 8.2207031 L 3.7070312 7.2929688 A 1 1 0 0 0 2.2929688 7.2929688 A 1 1 0 0 0 2.2929688 8.7070312 L 3.1953125 9.609375 C 2.4708187 10.159365 2 11.029745 2 12 L 2 16 C 2 17.294856 2.8400444 18.41021 4 18.826172 L 4 20 A 1 1 0 0 0 5 21 A 1 1 0 0 0 6 20 L 6 19 L 18 19 L 18 20 A 1 1 0 0 0 19 21 A 1 1 0 0 0 20 20 L 20 18.826172 C 21.159956 18.41021 22 17.294856 22 16 L 22 12 C 22 11.029746 21.529181 10.159365 20.804688 9.609375 L 21.707031 8.7070312 A 1 1 0 0 0 21.707031 7.2929688 A 1 1 0 0 0 20.292969 7.2929688 L 19.359375 8.2265625 L 18.433594 5.9453125 C 17.998939 4.7885584 16.892281 4.0120735 15.65625 4 A 1.0001 1.0001 0 0 0 15.646484 4 L 8.4238281 4 z M 8.3769531 6 A 1.0001 1.0001 0 0 0 8.4003906 6 L 15.636719 6 C 16.05362 6.00407 16.416597 6.2598321 16.5625 6.6503906 A 1.0001 1.0001 0 0 0 16.574219 6.6757812 L 17.517578 9 L 6.4765625 9 L 7.4257812 6.6289062 C 7.5819523 6.2382905 7.9563859 5.9903406 8.3769531 6 z M 5 11 L 19 11 C 19.571297 11 20 11.428703 20 12 L 20 16 C 20 16.571297 19.571297 17 19 17 L 5 17 C 4.4287028 17 4 16.571297 4 16 L 4 12 C 4 11.428703 4.4287028 11 5 11 z M 7 13 A 1 1 0 0 0 6 14 A 1 1 0 0 0 7 15 L 7.0097656 15 A 1 1 0 0 0 8.0097656 14 A 1 1 0 0 0 7.0097656 13 L 7 13 z M 17 13 A 1 1 0 0 0 16 14 A 1 1 0 0 0 17 15 L 17.009766 15 A 1 1 0 0 0 18.009766 14 A 1 1 0 0 0 17.009766 13 L 17 13 z "/>
</svg>
