<svg xmlns="http://www.w3.org/2000/svg" xmlns:svg="http://www.w3.org/2000/svg" width="24" height="24" viewBox="0 0 24 24" fill="currentColor" tags="vehicle,drive,trip,journey" categories="transportation">
  <path d="M 5 6 C 3.9555556 6 3.1733335 6.666189 2.7421875 7.3847656 A 1.0001 1.0001 0 0 0 2.6992188 7.4648438 L 1.2988281 10.365234 A 1.0001 1.0001 0 0 0 1.2539062 10.476562 C 1.0856988 10.967168 1 11.48136 1 12 L 1 16 C 1 16.522222 1.1913289 17.05461 1.5683594 17.431641 C 1.9453899 17.808671 2.4777778 18 3 18 L 4.1738281 18 C 4.5896855 19.160087 5.7048578 20 7 20 C 8.2951422 20 9.4103145 19.160087 9.8261719 18 L 14.173828 18 C 14.589685 19.160087 15.704857 20 17 20 C 18.295143 20 19.410315 19.160087 19.826172 18 L 21 18 C 21.522222 18 22.05461 17.808671 22.431641 17.431641 C 22.808671 17.05461 23 16.522222 23 16 L 23 13 C 23 11.583098 22.01953 10.451238 20.746094 10.130859 C 19.020813 9.6529451 16.838715 9.1688512 16.519531 9.0976562 C 16.308526 8.8708516 15.345396 7.8297715 14.507812 6.9921875 A 1.0001 1.0001 0 0 0 14.423828 6.9199219 C 13.80956 6.4285035 12.985714 6 12 6 L 5 6 z M 5 8 L 12 8 C 12.408014 8 12.778616 8.1728182 13.158203 8.4726562 C 14.029223 9.3491656 15.267578 10.679687 15.267578 10.679688 A 1.0001 1.0001 0 0 0 15.783203 10.976562 C 15.783203 10.976562 18.482116 11.578257 20.232422 12.064453 A 1.0001 1.0001 0 0 0 20.257812 12.070312 C 20.582252 12.151381 21 12.618519 21 13 L 21 16 L 19.826172 16 C 19.410315 14.839913 18.295143 14 17 14 C 15.704857 14 14.589685 14.839913 14.173828 16 L 9.8261719 16 C 9.4103145 14.839913 8.2951422 14 7 14 C 5.7048578 14 4.5896855 14.839913 4.1738281 16 L 3 16 L 3 12 C 3 11.708736 3.050191 11.420661 3.1425781 11.144531 L 4.4628906 8.4082031 C 4.6308681 8.1336876 4.8463153 8 5 8 z M 7 16 C 7.5641272 16 7.9999967 16.435874 8 17 C 8 17.564129 7.5641294 18 7 18 C 6.4358706 18 6 17.564129 6 17 C 6 16.435871 6.4358706 16 7 16 z M 17 16 C 17.564129 16 18 16.435871 18 17 C 18 17.564129 17.564129 18 17 18 C 16.435871 18 16 17.564129 16 17 C 16 16.435871 16.435871 16 17 16 z "/>
</svg>
