<?xml version="1.0" encoding="UTF-8" standalone="no"?>
<svg xmlns="http://www.w3.org/2000/svg" xmlns:svg="http://www.w3.org/2000/svg" width="24" height="24" viewBox="0 0 24 24" fill="currentColor" tags="trailer,tow,camping,campsite,mobile home,holiday,nomadic,wilderness,outdoors" categories="transportation,travel,nature">
  <path d="M 6 4 C 3.2504263 4 1 6.2504263 1 9 L 1 17 C 1 18.645006 2.3549936 20 4 20 L 5.1738281 20 C 5.5895208 21.160387 6.7046435 22 8 22 C 9.2953565 22 10.410479 21.160387 10.826172 20 L 14 20 L 21 20 C 22.092723 20 23 19.092723 23 18 L 23 17 A 1 1 0 0 0 22 16 A 1 1 0 0 0 21 17 L 21 18 L 19 18 L 19 9 C 19 6.2504263 16.749573 4 14 4 L 6 4 z M 6 6 L 14 6 C 15.668695 6 17 7.3313045 17 9 L 17 18 L 15 18 L 15 10 C 15 8.9072773 14.092723 8 13 8 L 11 8 C 9.9072773 8 9 8.9072773 9 10 L 9 16.173828 C 8.6867818 16.061622 8.3496499 16 8 16 C 6.7046435 16 5.5895208 16.839613 5.1738281 18 L 4 18 C 3.4358718 18 3 17.564128 3 17 L 3 14 L 5 14 C 6.0927227 14 7 13.092723 7 12 L 7 10 C 7 8.9072773 6.0927227 8 5 8 L 3.171875 8 C 3.5801903 6.8305771 4.6833471 6 6 6 z M 3 10 L 5 10 L 5 12 L 3 12 L 3 10 z M 11 10 L 13 10 L 13 18 L 11 18 L 11 10 z M 8 18 C 8.5641282 18 9 18.435872 9 19 C 9 19.564128 8.5641282 20 8 20 C 7.4358718 20 7 19.564128 7 19 C 7 18.435872 7.4358718 18 8 18 z "/>
</svg>
