<svg xmlns="http://www.w3.org/2000/svg" xmlns:svg="http://www.w3.org/2000/svg" width="24" height="24" viewBox="0 0 24 24" fill="currentColor" tags="trailer,tow,camping,campsite,mobile home,holiday,nomadic,wilderness,outdoors" categories="transportation,travel,nature">
  <path d="M 6 4 C 3.2504209 4 1 6.2504209 1 9 L 1 17 C 1 18.64501 2.3549904 20 4 20 L 5.1738281 20 C 5.5896855 21.160087 6.7048578 22 8 22 C 9.2951422 22 10.410314 21.160087 10.826172 20 L 14 20 L 21 20 C 22.092725 20 23 19.092725 23 18 L 23 17 A 1 1 0 0 0 22 16 A 1 1 0 0 0 21 17 L 21 18 L 19 18 L 19 9 C 19 6.2504209 16.749579 4 14 4 L 6 4 z M 6 6 L 14 6 C 15.668699 6 17 7.3313011 17 9 L 17 18 L 15 18 L 15 10 C 15 8.9072751 14.092725 8 13 8 L 11 8 C 9.9072751 8 9 8.9072751 9 10 L 9 16.173828 C 8.686616 16.061489 8.3498675 16 8 16 C 6.7048578 16 5.5896855 16.839913 5.1738281 18 L 4 18 C 3.4358706 18 3 17.564129 3 17 L 3 14 L 5 14 C 6.0927249 14 7 13.092725 7 12 L 7 10 C 7 8.9072751 6.0927249 8 5 8 L 3.1679688 8 C 3.5757916 6.8296541 4.6826889 6 6 6 z M 3 10 L 5 10 L 5 12 L 3 12 L 3 10 z M 11 10 L 13 10 L 13 18 L 11 18 L 11 10 z M 8 18 C 8.5641294 18 9 18.435871 9 19 C 9 19.564129 8.5641294 20 8 20 C 7.4358728 20 7.0000033 19.564126 7 19 C 7 18.435871 7.4358706 18 8 18 z "/>
</svg>
