<svg xmlns="http://www.w3.org/2000/svg" xmlns:svg="http://www.w3.org/2000/svg" width="24" height="24" viewBox="0 0 24 24" fill="currentColor" tags="cellphone,smartphone,mobile,network,cellular,service,provider,signal,coverage,disk,data,format,storage,flash,digital,contacts,phone book,contractual,circuit board,chip" categories="connectivity,communication,multimedia,devices">
  <path d="M 6 1 C 4.3549904 1 3 2.3549904 3 4 L 3 20 C 3 21.64501 4.3549904 23 6 23 L 18 23 C 19.64501 23 21 21.64501 21 20 L 21 7.828125 C 20.99983 7.0329246 20.68347 6.2692379 20.121094 5.7070312 L 16.292969 1.8789062 C 15.730762 1.3165297 14.967075 1.0001698 14.171875 1 L 6 1 z M 6 3 L 14.171875 3 C 14.437454 3.0000567 14.691142 3.1051478 14.878906 3.2929688 L 18.707031 7.1210938 C 18.894852 7.308858 18.999943 7.5625462 19 7.828125 L 19 20 C 19 20.564129 18.564129 21 18 21 L 6 21 C 5.4358706 21 5 20.564129 5 20 L 5 4 C 5 3.4358706 5.4358706 3 6 3 z M 9 9 C 7.9092972 9 7 9.9092972 7 11 L 7 14 L 7 17 C 7 18.090703 7.9092972 19 9 19 L 12 19 L 15 19 C 16.090703 19 17 18.090703 17 17 L 17 14 L 17 11 C 17 9.9092972 16.090703 9 15 9 L 9 9 z M 9 11 L 15 11 L 15 13 L 9 13 L 9 11 z M 9 15 L 11 15 L 11 17 L 9 17 L 9 15 z M 13 15 L 15 15 L 15 17 L 13 17 L 13 15 z "/>
</svg>
