<svg xmlns="http://www.w3.org/2000/svg" xmlns:svg="http://www.w3.org/2000/svg" width="24" height="24" viewBox="0 0 24 24" fill="currentColor" tags="vegetable,food,eat" categories="food-beverage">
  <path d="M 14.935547 1.0019531 A 1.0001 1.0001 0 0 0 14.445312 1.1679688 C 14.445312 1.1679688 12 2.7155607 12 5.5 C 12 5.8856547 12.046129 6.2466088 12.126953 6.5839844 C 12.111734 6.5829421 12.09728 6.5829403 12.082031 6.5820312 C 10.679575 6.498428 9.1721756 7.0250813 7.9335938 8.2617188 A 1.0001 1.0001 0 0 0 7.9335938 8.2636719 C 6.2374325 9.9598364 4.7126743 13.151272 3.4628906 16.011719 C 2.2131069 18.872166 1.328125 21.365234 1.328125 21.365234 A 1.0001 1.0001 0 0 0 2.6035156 22.642578 C 2.6035156 22.642578 5.1012706 21.758242 7.9628906 20.509766 C 10.824511 19.261289 14.014545 17.739362 15.707031 16.046875 C 15.811798 15.942273 15.838913 15.815271 15.933594 15.707031 A 1 1 0 0 0 16.046875 15.707031 A 1 1 0 0 0 16.234375 15.255859 C 17.007943 14.18894 17.457952 13.028787 17.392578 11.902344 C 17.39188 11.890314 17.391406 11.879199 17.390625 11.867188 C 17.735013 11.951675 18.104924 12 18.5 12 C 21.284439 12 22.832031 9.5546875 22.832031 9.5546875 A 1.0001 1.0001 0 0 0 22.832031 8.4453125 C 22.832032 8.4453125 21.284439 6 18.5 6 C 18.314095 6 18.133928 6.0140919 17.958984 6.0410156 C 17.985675 5.8659075 18 5.6859776 18 5.5 C 18 2.7155607 15.554687 1.1679689 15.554688 1.1679688 A 1.0001 1.0001 0 0 0 14.935547 1.0019531 z M 15 3.3691406 C 15.458674 3.8247919 16 4.4997083 16 5.5 C 16 5.9283936 15.639602 6.6855259 15.199219 7.2734375 C 15.067454 7.4493431 15.056958 7.433334 14.9375 7.5703125 C 14.488994 7.1014612 14 6.4377125 14 5.5 C 14 4.4997083 14.541326 3.8247919 15 3.3691406 z M 18.5 8 C 19.500292 8 20.175208 8.5413262 20.630859 9 C 20.175208 9.4586738 19.500292 10 18.5 10 C 17.565283 10 16.900952 9.5142119 16.431641 9.0664062 C 16.570515 8.9459498 16.554268 8.9337319 16.732422 8.8007812 C 17.324064 8.3592575 18.086504 8 18.5 8 z M 11.642578 8.5742188 C 11.749828 8.5700223 11.856481 8.5717817 11.962891 8.578125 C 12.531405 8.6120152 13.096857 8.8066682 13.599609 9.1230469 C 13.878119 9.4031797 14.126588 9.6043869 14.28125 9.71875 C 14.392019 9.8685518 14.583198 10.107062 14.849609 10.375 C 15.167204 10.879721 15.363365 11.446897 15.396484 12.017578 C 15.422634 12.468145 15.338344 12.926111 15.142578 13.388672 L 13.587891 11.832031 A 1 1 0 0 0 12.173828 11.832031 A 1 1 0 0 0 12.173828 13.248047 L 13.855469 14.929688 C 12.511434 16.073424 9.7441296 17.549289 7.1621094 18.675781 C 5.506374 19.398151 5.0302868 19.545125 4.0585938 19.912109 C 4.4257228 18.941229 4.5721632 18.466717 5.2949219 16.8125 C 5.7590052 15.750327 6.3103131 14.673232 6.8515625 13.630859 L 7.9355469 14.708984 A 1 1 0 0 0 9.3496094 14.705078 A 1 1 0 0 0 9.3457031 13.291016 L 7.8828125 11.835938 C 8.3948845 10.992438 8.9198608 10.10553 9.3476562 9.6777344 C 10.121418 8.9057272 10.891826 8.6035939 11.642578 8.5742188 z "/>
</svg>
