<?xml version="1.0" encoding="UTF-8" standalone="no"?>
<svg xmlns="http://www.w3.org/2000/svg" xmlns:svg="http://www.w3.org/2000/svg" width="24" height="24" viewBox="0 0 24 24" fill="currentColor" tags="vegetable,food,eat" categories="food-beverage">
  <path d="M 15 1 A 1.0001 1.0001 0 0 0 14.445312 1.1679688 C 14.445312 1.1679688 12 2.7155607 12 5.5 C 12 5.8862578 12.04785 6.2481112 12.128906 6.5859375 C 12.113237 6.5848603 12.097732 6.5829672 12.082031 6.5820312 C 10.679575 6.498428 9.1721756 7.0250813 7.9335938 8.2617188 A 1.0001 1.0001 0 0 0 7.9335938 8.2636719 C 6.2374325 9.9598364 4.7126743 13.151272 3.4628906 16.011719 C 2.2131069 18.872166 1.328125 21.365234 1.328125 21.365234 A 1.0001 1.0001 0 0 0 2.6035156 22.642578 C 2.6035156 22.642578 5.1012706 21.758242 7.9628906 20.509766 C 10.824511 19.261289 14.014545 17.739362 15.707031 16.046875 C 15.811798 15.942273 15.838913 15.815271 15.933594 15.707031 A 1 1 0 0 0 16.046875 15.707031 A 1 1 0 0 0 16.306641 15.146484 C 17.025056 14.10757 17.455742 12.990709 17.392578 11.902344 C 17.391855 11.889891 17.389483 11.877668 17.388672 11.865234 C 17.733734 11.95008 18.104014 12 18.5 12 C 21.284439 12 22.832031 9.5546875 22.832031 9.5546875 A 1.0001 1.0001 0 0 0 22.832031 8.4453125 C 22.832032 8.4453125 21.284439 6 18.5 6 C 18.313281 6 18.132692 6.0158199 17.957031 6.0429688 C 17.983872 5.8673788 18 5.6865234 18 5.5 C 18 2.7155607 15.554687 1.1679689 15.554688 1.1679688 A 1.0001 1.0001 0 0 0 15 1 z M 15 3.3691406 C 15.458674 3.8247919 16 4.4997083 16 5.5 C 16 5.9283936 15.639602 6.6855259 15.199219 7.2734375 C 15.067454 7.4493431 15.056958 7.433334 14.9375 7.5703125 C 14.488994 7.1014612 14 6.4377125 14 5.5 C 14 4.4997083 14.541326 3.8247919 15 3.3691406 z M 18.5 8 C 19.500292 8 20.175208 8.5413262 20.630859 9 C 20.175208 9.4586738 19.500292 10 18.5 10 C 17.565283 10 16.900952 9.5142119 16.431641 9.0664062 C 16.570515 8.9459498 16.554268 8.9337319 16.732422 8.8007812 C 17.324064 8.3592575 18.086504 8 18.5 8 z M 11.642578 8.5742188 C 11.749828 8.5700223 11.856481 8.5717817 11.962891 8.578125 C 12.538795 8.6124557 13.109555 8.8150071 13.617188 9.1386719 C 13.892015 9.4128787 14.1324 9.6056714 14.283203 9.7167969 C 14.390859 9.8628913 14.573152 10.093041 14.833984 10.357422 C 15.158703 10.866903 15.362946 11.43968 15.396484 12.017578 C 15.422634 12.468145 15.338344 12.926111 15.142578 13.388672 L 13.587891 11.832031 A 1 1 0 0 0 12.173828 11.832031 A 1 1 0 0 0 12.173828 13.248047 L 13.855469 14.929688 C 12.511434 16.073424 9.7441296 17.549289 7.1621094 18.675781 C 5.506374 19.398151 5.0302868 19.545125 4.0585938 19.912109 C 4.4257228 18.941229 4.5721632 18.466717 5.2949219 16.8125 C 5.7590052 15.750327 6.3103131 14.673232 6.8515625 13.630859 L 7.9355469 14.708984 A 1 1 0 0 0 9.3496094 14.705078 A 1 1 0 0 0 9.3457031 13.291016 L 7.8828125 11.835938 C 8.3948845 10.992438 8.9198608 10.10553 9.3476562 9.6777344 C 10.121418 8.9057272 10.891826 8.6035939 11.642578 8.5742188 z "/>
</svg>
