<?xml version="1.0" encoding="UTF-8" standalone="no"?>
<svg xmlns="http://www.w3.org/2000/svg" xmlns:svg="http://www.w3.org/2000/svg" width="24" height="24" viewBox="0 0 24 24" fill="currentColor" tags="vegetable,food,eat" categories="food-beverage">
  <path d="M 15 1 A 1.0001 1.0001 0 0 0 14.445312 1.1679688 C 14.445312 1.1679688 12 2.7155663 12 5.5 C 12 5.8862571 12.04785 6.2481117 12.128906 6.5859375 C 12.113237 6.5848603 12.097732 6.5829672 12.082031 6.5820312 C 10.679578 6.4984281 9.1721731 7.0250838 7.9335938 8.2617188 A 1.0001 1.0001 0 0 0 7.9335938 8.2636719 C 6.2374358 9.959833 4.7126719 13.151277 3.4628906 16.011719 C 2.2131095 18.87216 1.328125 21.365234 1.328125 21.365234 A 1.0001 1.0001 0 0 0 2.6035156 22.642578 C 2.6035156 22.642578 5.1012763 21.758239 7.9628906 20.509766 C 10.824505 19.261291 14.014548 17.739358 15.707031 16.046875 C 15.811798 15.942273 15.838913 15.815271 15.933594 15.707031 A 1 1 0 0 0 16.046875 15.707031 A 1 1 0 0 0 16.306641 15.146484 C 17.025055 14.107572 17.455742 12.990707 17.392578 11.902344 C 17.391855 11.889891 17.389483 11.877668 17.388672 11.865234 C 17.733733 11.950079 18.104015 12 18.5 12 C 21.284434 12 22.832031 9.5546875 22.832031 9.5546875 A 1.0001 1.0001 0 0 0 22.832031 8.4453125 C 22.832032 8.4453125 21.284434 6 18.5 6 C 18.313281 6 18.132692 6.0158199 17.957031 6.0429688 C 17.983872 5.867379 18 5.6865231 18 5.5 C 18 2.7155663 15.554687 1.1679688 15.554688 1.1679688 A 1.0001 1.0001 0 0 0 15 1 z M 15 3.3691406 C 15.458673 3.8247911 16 4.4997103 16 5.5 C 16 5.9283927 15.639601 6.6855271 15.199219 7.2734375 C 15.067454 7.4493427 15.056958 7.4333342 14.9375 7.5703125 C 14.488994 7.1014622 14 6.4377106 14 5.5 C 14 4.4997103 14.541327 3.8247911 15 3.3691406 z M 18.5 8 C 19.50029 8 20.17521 8.5413271 20.630859 9 C 20.17521 9.4586729 19.50029 10 18.5 10 C 17.565285 10 16.90095 9.5142111 16.431641 9.0664062 C 16.570514 8.9459502 16.554268 8.9337317 16.732422 8.8007812 C 17.324062 8.3592584 18.086504 8 18.5 8 z M 11.642578 8.5742188 C 11.749828 8.5700223 11.856481 8.5717817 11.962891 8.578125 C 12.538794 8.6124557 13.109555 8.8150074 13.617188 9.1386719 C 13.892015 9.4128786 14.1324 9.6056714 14.283203 9.7167969 C 14.390859 9.8628912 14.573152 10.093041 14.833984 10.357422 C 15.158703 10.866902 15.362946 11.439681 15.396484 12.017578 C 15.422634 12.468144 15.338344 12.926112 15.142578 13.388672 L 13.587891 11.832031 A 1 1 0 0 0 12.173828 11.832031 A 1 1 0 0 0 12.173828 13.248047 L 13.855469 14.929688 C 12.511436 16.07342 9.7441244 17.549291 7.1621094 18.675781 C 5.5063772 19.39815 5.0302849 19.545127 4.0585938 19.912109 C 4.4257222 18.941231 4.5721646 18.466713 5.2949219 16.8125 C 5.7590043 15.75033 6.3103141 14.67323 6.8515625 13.630859 L 7.9355469 14.708984 A 1 1 0 0 0 9.3496094 14.705078 A 1 1 0 0 0 9.3457031 13.291016 L 7.8828125 11.835938 C 8.3948835 10.99244 8.9198617 10.105529 9.3476562 9.6777344 C 10.121417 8.9057288 10.891826 8.603594 11.642578 8.5742188 z "/>
</svg>
