<?xml version="1.0" encoding="UTF-8" standalone="no"?>
<svg xmlns="http://www.w3.org/2000/svg" xmlns:svg="http://www.w3.org/2000/svg" width="24" height="24" viewBox="0 0 24 24" fill="currentColor" tags="text,letters,characters,font,typography" categories="text">
  <path d="M 14 6 A 1 1 0 0 0 13 7 L 13 12 L 13 15 A 1 1 0 0 0 14 16 A 1 1 0 0 0 14.914062 15.408203 C 15.52281 15.783745 16.237261 16 17 16 C 19.197294 16 21 14.197294 21 12 C 21 9.8027056 19.197294 8 17 8 C 16.27317 8 15.589515 8.1974832 15 8.5410156 L 15 7 A 1 1 0 0 0 14 6 z M 7 8 C 4.8027056 8 3 9.8027056 3 12 C 3 14.197294 4.8027056 16 7 16 C 7.7627386 16 8.4771902 15.783745 9.0859375 15.408203 A 1 1 0 0 0 10 16 A 1 1 0 0 0 11 15 L 11 9 A 1 1 0 0 0 10 8 A 1 1 0 0 0 9.0859375 8.5917969 C 8.4771902 8.216255 7.7627386 8 7 8 z M 7 10 C 8.1164141 10 9 10.883586 9 12 C 9 13.116414 8.1164141 14 7 14 C 5.8835859 14 5 13.116414 5 12 C 5 10.883586 5.8835859 10 7 10 z M 17 10 C 18.116414 10 19 10.883586 19 12 C 19 13.116414 18.116414 14 17 14 C 15.883586 14 15 13.116414 15 12 C 15 10.883586 15.883586 10 17 10 z "/>
</svg>
