<svg xmlns="http://www.w3.org/2000/svg" xmlns:svg="http://www.w3.org/2000/svg" width="24" height="24" viewBox="0 0 24 24" fill="currentColor" tags="text,letters,characters,font,typography" categories="text,development">
  <path d="M 15.5 5 C 14.683418 5 14 5.6834175 14 6.5 L 14 11 L 14 15.5 C 14 16.316582 14.683418 17 15.5 17 L 19.5 17 C 20.583333 17 21.523108 16.557744 22.123047 15.882812 C 22.722986 15.20788 23 14.347222 23 13.5 C 23 12.652778 22.722986 11.792119 22.123047 11.117188 C 21.895123 10.860772 21.578818 10.677703 21.263672 10.5 C 21.681313 9.8876406 22 9.2111413 22 8.5 C 22 7.6527779 21.722986 6.7921194 21.123047 6.1171875 C 20.523108 5.4422556 19.583333 5 18.5 5 L 15.5 5 z M 6.5 5.0019531 C 5.9484101 5.0019531 5.3555339 5.3493872 5.1152344 5.9257812 L 1.0761719 15.615234 A 1 1 0 0 0 1.6152344 16.923828 A 1 1 0 0 0 2.9238281 16.384766 L 3.9179688 14 L 9.0820312 14 L 10.076172 16.384766 A 1 1 0 0 0 11.384766 16.923828 A 1 1 0 0 0 11.923828 15.615234 L 7.8847656 5.9257812 C 7.6444661 5.3493872 7.0515899 5.0019531 6.5 5.0019531 z M 16 7 L 18.5 7 C 19.083333 7 19.393559 7.1827444 19.626953 7.4453125 C 19.860347 7.7078806 20 8.0972221 20 8.5 C 20 8.9027779 19.860347 9.2921194 19.626953 9.5546875 C 19.393559 9.8172556 19.083333 10 18.5 10 L 16 10 L 16 7 z M 6.5 7.8027344 L 8.2480469 12 L 4.7519531 12 L 6.5 7.8027344 z M 16 12 L 18.5 12 L 19.5 12 C 20.083333 12 20.393559 12.182744 20.626953 12.445312 C 20.860347 12.70788 21 13.097222 21 13.5 C 21 13.902778 20.860347 14.292119 20.626953 14.554688 C 20.393559 14.817255 20.083333 15 19.5 15 L 16 15 L 16 12 z "/>
</svg>
