<?xml version="1.0" encoding="UTF-8" standalone="no"?>
<svg xmlns="http://www.w3.org/2000/svg" xmlns:svg="http://www.w3.org/2000/svg" width="24" height="24" viewBox="0 0 24 24" fill="currentColor" tags="text,letters,characters,font,typography" categories="text">
  <path d="M 7 6 A 1.0001 1.0001 0 0 0 6.1054688 6.5527344 L 2.1054688 14.552734 A 1 1 0 0 0 2.5527344 15.894531 A 1 1 0 0 0 3.8945312 15.447266 L 4.6171875 14 L 9.3828125 14 L 10.105469 15.447266 A 1 1 0 0 0 11.447266 15.894531 A 1 1 0 0 0 11.894531 14.552734 L 10.916016 12.597656 A 1 1 0 0 0 10.878906 12.523438 L 7.8945312 6.5527344 A 1.0001 1.0001 0 0 0 7 6 z M 18 8 C 15.802706 8 14 9.8027056 14 12 C 14 14.197294 15.802706 16 18 16 C 18.764411 16 19.48023 15.781358 20.089844 15.404297 A 1 1 0 0 0 21 16 A 1 1 0 0 0 22 15 L 22 12 L 22 9 A 1 1 0 0 0 21 8 A 1 1 0 0 0 20.089844 8.5957031 C 19.48023 8.2186422 18.764411 8 18 8 z M 7 9.2363281 L 8.3828125 12 L 5.6171875 12 L 7 9.2363281 z M 18 10 C 19.116414 10 20 10.883586 20 12 C 20 13.116414 19.116414 14 18 14 C 16.883586 14 16 13.116414 16 12 C 16 10.883586 16.883586 10 18 10 z "/>
</svg>
