<svg xmlns="http://www.w3.org/2000/svg" xmlns:svg="http://www.w3.org/2000/svg" width="24" height="24" viewBox="0 0 24 24" fill="currentColor" tags="text,letters,characters,font,typography" categories="text">
  <path d="M 6.5 5.0019531 C 5.9484101 5.0019531 5.3555339 5.3493872 5.1152344 5.9257812 L 1.0761719 15.615234 A 1 1 0 0 0 1.6152344 16.923828 A 1 1 0 0 0 2.9238281 16.384766 L 3.9179688 14 L 9.0820312 14 L 10.076172 16.384766 A 1 1 0 0 0 11.384766 16.923828 A 1 1 0 0 0 11.923828 15.615234 L 7.8847656 5.9257812 C 7.6444661 5.3493872 7.0515899 5.0019531 6.5 5.0019531 z M 6.5 7.8027344 L 8.2480469 12 L 4.7519531 12 L 6.5 7.8027344 z M 18.5 8 C 16.026563 8 14 10.026563 14 12.5 C 14 14.973437 16.026563 17 18.5 17 C 19.433365 17 20.302223 16.71102 21.023438 16.21875 A 1 1 0 0 0 22 17 A 1 1 0 0 0 23 16 L 23 12.5 L 23 9 A 1 1 0 0 0 22 8 A 1 1 0 0 0 21.023438 8.78125 C 20.302223 8.2889804 19.433365 8 18.5 8 z M 18.5 10 C 19.892557 10 21 11.107443 21 12.5 C 21 13.892557 19.892557 15 18.5 15 C 17.107443 15 16 13.892557 16 12.5 C 16 11.107443 17.107443 10 18.5 10 z "/>
</svg>
