<?xml version="1.0" encoding="UTF-8" standalone="no"?>
<svg xmlns="http://www.w3.org/2000/svg" xmlns:svg="http://www.w3.org/2000/svg" width="24" height="24" viewBox="0 0 24 24" fill="currentColor" tags="text,letters,characters,font,typography" categories="text,development">
  <path d="M 14 5 A 1 1 0 0 0 13 6 L 13 16 A 1 1 0 0 0 14 17 A 1 1 0 0 0 14.976562 16.21875 C 15.697777 16.71102 16.566635 17 17.5 17 C 19.973437 17 22 14.973437 22 12.5 C 22 10.026563 19.973437 8 17.5 8 C 16.577098 8 15.716411 8.2814465 15 8.7636719 L 15 6 A 1 1 0 0 0 14 5 z M 6.5 8 C 4.0265633 8 2 10.026563 2 12.5 C 2 14.973437 4.0265633 17 6.5 17 C 7.4333645 17 8.3022234 16.71102 9.0234375 16.21875 A 1 1 0 0 0 10 17 A 1 1 0 0 0 11 16 L 11 12.5 L 11 9 A 1 1 0 0 0 10 8 A 1 1 0 0 0 9.0234375 8.78125 C 8.3022234 8.2889803 7.4333645 8 6.5 8 z M 6.5 10 C 7.8925565 10 9 11.107443 9 12.5 C 9 13.892557 7.8925565 15 6.5 15 C 5.1074435 15 4 13.892557 4 12.5 C 4 11.107443 5.1074435 10 6.5 10 z M 17.5 10 C 18.892557 10 20 11.107443 20 12.5 C 20 13.892557 18.892557 15 17.5 15 C 16.107443 15 15 13.892557 15 12.5 C 15 11.107443 16.107443 10 17.5 10 z "/>
</svg>
