<?xml version="1.0" encoding="UTF-8" standalone="no"?>
<svg xmlns="http://www.w3.org/2000/svg" xmlns:svg="http://www.w3.org/2000/svg" width="24" height="24" viewBox="0 0 24 24" fill="currentColor" tags="audio,music,recording,play" categories="connectivity,devices,multimedia,communication,files">
  <path d="M 4 3 C 2.3552972 3 1 4.3552972 1 6 L 1 18 C 1 19.644703 2.3552972 21 4 21 L 5.9648438 21 L 6.0351562 21 L 17.960938 21 L 18.037109 21 L 20 21 C 21.644703 21 23 19.644703 23 18 L 23 6 C 23 4.3552972 21.644703 3 20 3 L 4 3 z M 4 5 L 20 5 C 20.571297 5 21 5.4287028 21 6 L 21 18 C 21 18.571297 20.571297 19 20 19 L 18.792969 19 L 18.273438 16.773438 A 1.0001 1.0001 0 0 0 18.257812 16.714844 C 17.94619 15.666161 16.95244 14.954676 15.859375 15 L 8.1230469 15 C 6.9820916 14.97356 5.9701363 15.770478 5.7246094 16.884766 L 5.7226562 16.884766 L 5.7226562 16.886719 L 5.2128906 19 L 4 19 C 3.4287028 19 3 18.571297 3 18 L 3 6 C 3 5.4287028 3.4287028 5 4 5 z M 8 7 C 6.3549904 7 5 8.3549904 5 10 C 5 11.64501 6.3549904 13 8 13 L 16 13 C 17.64501 13 19 11.64501 19 10 C 19 8.3549904 17.64501 7 16 7 C 14.35499 7 13 8.3549904 13 10 C 13 10.349867 13.061489 10.686616 13.173828 11 L 10.826172 11 C 10.938511 10.686616 11 10.349867 11 10 C 11 8.3549904 9.6450096 7 8 7 z M 8 9 C 8.5641294 9 9 9.4358706 9 10 C 9 10.564129 8.5641294 11 8 11 C 7.4358706 11 7 10.564129 7 10 C 7 9.4358706 7.4358706 9 8 9 z M 16 9 C 16.564129 9 17 9.4358706 17 10 C 17 10.564129 16.564129 11 16 11 C 15.435871 11 15 10.564129 15 10 C 15 9.4358706 15.435871 9 16 9 z M 8.0390625 17 C 8.0510877 16.999282 8.0638229 16.999714 8.0761719 17 A 1.0001 1.0001 0 0 0 8.0996094 17 L 15.900391 17 A 1.0001 1.0001 0 0 0 15.941406 17 C 16.128485 16.9922 16.285357 17.104465 16.339844 17.283203 L 16.740234 19 L 7.2695312 19 L 7.671875 17.333984 A 1.0001 1.0001 0 0 0 7.6777344 17.314453 C 7.7173879 17.13346 7.8586839 17.010774 8.0390625 17 z "/>
</svg>
