<?xml version="1.0" encoding="UTF-8" standalone="no"?>
<svg xmlns="http://www.w3.org/2000/svg" xmlns:svg="http://www.w3.org/2000/svg" width="24" height="24" viewBox="0 0 24 24" fill="currentColor" tags="audio,music,recording,play" categories="connectivity,devices,multimedia,communication,files">
  
  <path d="M 4 3 C 2.3553005 3 1 4.3553005 1 6 L 1 18 C 1 19.644699 2.3553005 21 4 21 L 20 21 C 21.644699 21 23 19.644699 23 18 L 23 6 C 23 4.3553005 21.644699 3 20 3 L 4 3 z M 4 5 L 20 5 C 20.571296 5 21 5.4287039 21 6 L 21 18 C 21 18.571296 20.571296 19 20 19 L 18.792969 19 L 18.273438 16.773438 A 1.0001 1.0001 0 0 0 18.257812 16.714844 C 17.946191 15.666163 16.952438 14.954676 15.859375 15 L 8.1230469 15 C 6.9820938 14.97356 5.9701357 15.77048 5.7246094 16.884766 L 5.7226562 16.886719 L 5.2128906 19 L 4 19 C 3.4287039 19 3 18.571296 3 18 L 3 6 C 3 5.4287039 3.4287039 5 4 5 z M 8 7 C 6.3549936 7 5 8.3549936 5 10 C 5 11.645006 6.3549936 13 8 13 L 16 13 C 17.645006 13 19 11.645006 19 10 C 19 8.3549936 17.645006 7 16 7 C 14.354994 7 13 8.3549936 13 10 C 13 10.34965 13.061622 10.686782 13.173828 11 L 10.826172 11 C 10.938378 10.686782 11 10.34965 11 10 C 11 8.3549936 9.6450064 7 8 7 z M 8 9 C 8.5641282 9 9 9.4358718 9 10 C 9 10.564128 8.5641282 11 8 11 C 7.4358718 11 7 10.564128 7 10 C 7 9.4358718 7.4358718 9 8 9 z M 16 9 C 16.564128 9 17 9.4358718 17 10 C 17 10.564128 16.564128 11 16 11 C 15.435872 11 15 10.564128 15 10 C 15 9.4358718 15.435872 9 16 9 z M 8.0761719 17 A 1.0001 1.0001 0 0 0 8.0996094 17 L 15.900391 17 A 1.0001 1.0001 0 0 0 15.941406 17 C 16.128485 16.9922 16.285357 17.104466 16.339844 17.283203 L 16.740234 19 L 7.2695312 19 L 7.671875 17.333984 A 1.0001 1.0001 0 0 0 7.6777344 17.314453 C 7.7200314 17.121395 7.8785883 16.995421 8.0761719 17 z "/>
</svg>
