<?xml version="1.0" encoding="UTF-8" standalone="no"?>
<svg xmlns="http://www.w3.org/2000/svg" xmlns:svg="http://www.w3.org/2000/svg" width="24" height="24" viewBox="0 0 24 24" fill="currentColor" tags="fortress,stronghold,palace,chateau,building" categories="buildings,gaming">
  <path d="M 6 2 A 1 1 0 0 0 5 3 L 5 5 L 5 10 L 3 10 L 3 9 A 1 1 0 0 0 2 8 A 1 1 0 0 0 1 9 L 1 19 C 1 20.64501 2.3549904 22 4 22 L 20 22 C 21.64501 22 23 20.64501 23 19 L 23 9 A 1 1 0 0 0 22 8 A 1 1 0 0 0 21 9 L 21 10 L 19 10 L 19 3 A 1 1 0 0 0 18 2 A 1 1 0 0 0 17 3 L 17 4 L 15 4 L 15 3 A 1 1 0 0 0 14 2 A 1 1 0 0 0 13 3 L 13 4 L 11 4 L 11 3 A 1 1 0 0 0 10 2 A 1 1 0 0 0 9 3 L 9 4 L 7 4 L 7 3 A 1 1 0 0 0 6 2 z M 7 6 L 17 6 L 17 10 L 7 10 L 7 6 z M 3 12 L 6 12 L 21 12 L 21 19 C 21 19.564129 20.564129 20 20 20 L 16 20 L 16 18 C 16 16.75 15.495244 15.685226 14.726562 15.001953 C 13.95788 14.318681 12.972222 14 12 14 C 11.027778 14 10.042119 14.318681 9.2734375 15.001953 C 8.5047556 15.685226 8 16.75 8 18 L 8 20 L 4 20 C 3.4358706 20 3 19.564129 3 19 L 3 12 z M 12 16 C 12.527778 16 13.042119 16.18132 13.398438 16.498047 C 13.754755 16.814774 14 17.250001 14 18 L 14 20 L 10 20 L 10 18 C 10 17.250001 10.245244 16.814774 10.601562 16.498047 C 10.95788 16.18132 11.472222 16 12 16 z "/>
</svg>
