<?xml version="1.0" encoding="UTF-8" standalone="no"?>
<svg xmlns="http://www.w3.org/2000/svg" xmlns:svg="http://www.w3.org/2000/svg" width="24" height="24" viewBox="0 0 24 24" fill="currentColor" tags="fortress,stronghold,palace,chateau,building" categories="buildings,gaming">
  <path d="M 6 1 A 1 1 0 0 0 5 2 L 5 4 L 5 10 L 3 10 L 3 9 A 1 1 0 0 0 2 8 A 1 1 0 0 0 1 9 L 1 11 L 1 20 C 1 21.64501 2.3549904 23 4 23 L 20 23 C 21.64501 23 23 21.64501 23 20 L 23 11 L 23 9 A 1 1 0 0 0 22 8 A 1 1 0 0 0 21 9 L 21 10 L 19 10 L 19 4 L 19 2 A 1 1 0 0 0 18 1 A 1 1 0 0 0 17 2 L 17 3 L 15 3 L 15 2 A 1 1 0 0 0 14 1 A 1 1 0 0 0 13 2 L 13 3 L 11 3 L 11 2 A 1 1 0 0 0 10 1 A 1 1 0 0 0 9 2 L 9 3 L 7 3 L 7 2 A 1 1 0 0 0 6 1 z M 7 5 L 14 5 L 17 5 L 17 10 L 7 10 L 7 5 z M 3 12 L 21 12 L 21 20 C 21 20.564129 20.564129 21 20 21 L 16 21 L 16 18 C 16 15.802706 14.197294 14 12 14 C 9.8027056 14 8 15.802706 8 18 L 8 21 L 4 21 C 3.4358706 21 3 20.564129 3 20 L 3 12 z M 12 16 C 13.116414 16 14 16.883586 14 18 L 14 21 L 10 21 L 10 18 C 10 16.883586 10.883586 16 12 16 z "/>
</svg>
