<?xml version="1.0" encoding="UTF-8" standalone="no"?>
<svg xmlns="http://www.w3.org/2000/svg" xmlns:svg="http://www.w3.org/2000/svg" width="24" height="24" viewBox="0 0 24 24" fill="currentColor" tags="chromecast,airplay,screen" categories="devices,connectivity">
  <path d="M 4 3 C 2.3549904 3 1 4.3549904 1 6 L 1 8 A 1 1 0 0 0 2 9 A 1 1 0 0 0 3 8 L 3 6 C 3 5.4358706 3.4358706 5 4 5 L 20 5 C 20.564129 5 21 5.4358706 21 6 L 21 18 C 21 18.564129 20.564129 19 20 19 L 14 19 A 1 1 0 0 0 13 20 A 1 1 0 0 0 14 21 L 20 21 C 21.64501 21 23 19.64501 23 18 L 23 6 C 23 4.3549904 21.64501 3 20 3 L 4 3 z M 1.9746094 11 A 1 1 0 0 0 1.0058594 11.894531 A 1 1 0 0 0 1.8945312 12.994141 C 5.6504977 13.392724 8.6072761 16.349502 9.0058594 20.105469 A 1 1 0 0 0 10.105469 20.994141 A 1 1 0 0 0 10.994141 19.894531 C 10.497293 15.212595 6.7874051 11.502707 2.1054688 11.005859 A 1 1 0 0 0 1.9746094 11 z M 2.0546875 15.001953 A 1 1 0 0 0 1.0175781 15.816406 A 1 1 0 0 0 1.8164062 16.982422 C 3.4450671 17.28575 4.7142505 18.554933 5.0175781 20.183594 A 1 1 0 0 0 6.1835938 20.982422 A 1 1 0 0 0 6.9824219 19.816406 C 6.5288853 17.381227 4.6187728 15.471115 2.1835938 15.017578 A 1 1 0 0 0 2.0546875 15.001953 z M 2 19 A 1 1 0 0 0 1 20 A 1 1 0 0 0 2 21 L 2.0097656 21 A 1 1 0 0 0 3.0097656 20 A 1 1 0 0 0 2.0097656 19 L 2 19 z "/>
</svg>
