<?xml version="1.0" encoding="UTF-8" standalone="no"?>
<svg xmlns="http://www.w3.org/2000/svg" xmlns:svg="http://www.w3.org/2000/svg" width="24" height="24" viewBox="0 0 24 24" fill="currentColor" tags="animal,pet,kitten,feline" categories="animals">
  <path d="M 4.4375 1.796875 C 3.973877 1.8153592 3.5313323 1.9025483 3.1152344 2.0761719 C 2.6017863 2.2904164 2.3163193 2.7466854 2.1796875 3.1347656 C 2.0430557 3.5228458 2.0030074 3.9080006 1.9921875 4.3125 C 1.9705476 5.1214987 2.0884622 6.018434 2.2441406 6.8925781 C 2.5215765 8.4503982 2.8659081 9.6116288 2.953125 9.9140625 C 2.484054 10.914364 2 12.072017 2 13.439453 C 2 16.014044 3.1710742 18.220053 5.0058594 19.707031 C 6.8406446 21.19401 9.3137928 22 12 22 C 14.692914 22 17.165086 21.163985 18.996094 19.666016 C 20.827102 18.168046 22 15.970649 22 13.439453 C 22 12.148145 21.571937 10.972829 21.044922 9.9082031 C 21.128123 9.608439 21.460245 8.4432384 21.720703 6.8828125 C 21.866658 6.0083852 21.974438 5.1099325 21.943359 4.3007812 C 21.92782 3.8962056 21.885054 3.511598 21.744141 3.125 C 21.603227 2.738402 21.314451 2.2881689 20.802734 2.0761719 C 19.694177 1.6143564 18.404957 1.7768169 17.050781 2.2109375 C 15.868013 2.5901084 14.69187 3.2852519 13.707031 4.2226562 C 13.14324 4.1113513 12.575292 4 12 4 A 1.0001 1.0001 0 0 0 11.998047 4 C 11.425258 4.001671 10.858492 4.0963167 10.294922 4.1953125 C 9.2997988 3.2520025 8.1003764 2.5631146 6.8984375 2.1914062 C 6.211343 1.9789171 5.5438023 1.8342892 4.9082031 1.8007812 C 4.7493033 1.7924043 4.592041 1.7907136 4.4375 1.796875 z M 4.6542969 3.8632812 C 5.0918008 3.8532134 5.6773443 3.9082971 6.3085938 4.1035156 C 7.3919048 4.4385376 8.5252254 5.0757888 9.2539062 5.8945312 A 1.0001 1.0001 0 0 0 10.224609 6.2050781 C 10.807432 6.0710236 11.401966 6.0018894 12 6 L 12.001953 6 C 12.581801 6.0001732 13.178305 6.078064 13.746094 6.2265625 A 1.0001 1.0001 0 0 0 14.746094 5.9257812 C 15.481372 5.0996263 16.59951 4.4558815 17.662109 4.1152344 C 18.656513 3.7964494 19.532632 3.8372104 19.882812 3.9355469 C 19.907812 4.0388809 19.936962 4.1596267 19.945312 4.3769531 C 19.966732 4.9346769 19.882092 5.7496617 19.748047 6.5527344 C 19.479957 8.1588798 19.037109 9.7265625 19.037109 9.7265625 A 1.0001 1.0001 0 0 0 19.117188 10.470703 C 19.643038 11.457917 20 12.478342 20 13.439453 C 20 15.368257 19.156961 16.95211 17.730469 18.119141 C 16.303977 19.286171 14.277086 20 12 20 C 9.7162072 20 7.6883398 19.305365 6.265625 18.152344 C 4.8429102 16.999322 4 15.424862 4 13.439453 C 4 12.45612 4.4123217 11.448777 4.9003906 10.433594 A 1.0001 1.0001 0 0 0 4.9589844 9.7167969 C 4.9589844 9.7167969 4.4990338 8.1496807 4.2128906 6.5429688 C 4.0698188 5.7396129 3.9772649 4.9231107 3.9921875 4.3652344 C 3.9978484 4.1536048 4.0257918 4.0393192 4.0488281 3.9355469 C 4.1825218 3.8988471 4.3917945 3.869322 4.6542969 3.8632812 z M 8 13 A 1 1 0 0 0 7 14 L 7 14.5 A 1 1 0 0 0 8 15.5 A 1 1 0 0 0 9 14.5 L 9 14 A 1 1 0 0 0 8 13 z M 16 13 A 1 1 0 0 0 15 14 L 15 14.5 A 1 1 0 0 0 16 15.5 A 1 1 0 0 0 17 14.5 L 17 14 A 1 1 0 0 0 16 13 z M 11.25 15.25 A 1.0001 1.0001 0 0 0 10.542969 16.957031 L 11.292969 17.707031 A 1.0001 1.0001 0 0 0 12.707031 17.707031 L 13.457031 16.957031 A 1.0001 1.0001 0 0 0 12.75 15.25 L 11.25 15.25 z "/>
</svg>
