<?xml version="1.0" encoding="UTF-8" standalone="no"?>
<svg xmlns="http://www.w3.org/2000/svg" xmlns:svg="http://www.w3.org/2000/svg" width="24" height="24" viewBox="0 0 24 24" fill="currentColor" tags="animal,pet,kitten,feline" categories="animals">
  <path d="M 4.4375 1.796875 C 3.9738774 1.8153593 3.5313314 1.9025486 3.1152344 2.0761719 C 2.6017873 2.290416 2.3163191 2.7466862 2.1796875 3.1347656 C 2.0430559 3.522845 2.0030074 3.9080015 1.9921875 4.3125 C 1.9705476 5.1214971 2.0884626 6.0184358 2.2441406 6.8925781 C 2.521576 8.4503952 2.8659082 9.6116294 2.953125 9.9140625 C 2.484055 10.914362 2 12.072019 2 13.439453 C 2 16.014039 3.1710778 18.220056 5.0058594 19.707031 C 6.8406408 21.194007 9.3137981 22 12 22 C 14.692908 22 17.165089 21.163982 18.996094 19.666016 C 20.827098 18.168048 22 15.970644 22 13.439453 C 22 12.148147 21.571935 10.972827 21.044922 9.9082031 C 21.128123 9.6084396 21.460245 8.4432352 21.720703 6.8828125 C 21.866658 6.008387 21.974438 5.1099309 21.943359 4.3007812 C 21.92782 3.8962065 21.885053 3.5115973 21.744141 3.125 C 21.603227 2.7384027 21.314451 2.2881685 20.802734 2.0761719 C 19.694179 1.6143572 18.404955 1.7768178 17.050781 2.2109375 C 15.868015 2.5901076 14.691868 3.2852538 13.707031 4.2226562 C 13.143242 4.1113516 12.57529 4 12 4 A 1.0001 1.0001 0 0 0 11.998047 4 C 11.425259 4.001671 10.858491 4.0963169 10.294922 4.1953125 C 9.2998008 3.2520043 8.100374 2.563114 6.8984375 2.1914062 C 6.2113444 1.9789176 5.543801 1.8342891 4.9082031 1.8007812 C 4.7493037 1.7924043 4.5920409 1.7907136 4.4375 1.796875 z M 4.6542969 3.8632812 C 5.0918006 3.8532134 5.6773455 3.9082974 6.3085938 4.1035156 C 7.3919027 4.4385369 8.5252269 5.0757905 9.2539062 5.8945312 A 1.0001 1.0001 0 0 0 10.224609 6.2050781 C 10.807432 6.0710239 11.401968 6.0018894 12 6 L 12.001953 6 C 12.581801 6.0001732 13.178306 6.0780641 13.746094 6.2265625 A 1.0001 1.0001 0 0 0 14.746094 5.9257812 C 15.48137 5.0996279 16.599512 4.4558807 17.662109 4.1152344 C 18.656511 3.79645 19.532634 3.8372106 19.882812 3.9355469 C 19.907812 4.0388807 19.936963 4.1596272 19.945312 4.3769531 C 19.966732 4.9346758 19.882092 5.7496633 19.748047 6.5527344 C 19.479957 8.1588766 19.037109 9.7265625 19.037109 9.7265625 A 1.0001 1.0001 0 0 0 19.117188 10.470703 C 19.643037 11.457915 20 12.478344 20 13.439453 C 20 15.368253 19.156957 16.952113 17.730469 18.119141 C 16.303979 19.286168 14.277082 20 12 20 C 9.7162118 20 7.688337 19.305363 6.265625 18.152344 C 4.842913 16.999325 4 15.424858 4 13.439453 C 4 12.456122 4.4123227 11.448775 4.9003906 10.433594 A 1.0001 1.0001 0 0 0 4.9589844 9.7167969 C 4.9589844 9.7167969 4.4990332 8.1496774 4.2128906 6.5429688 C 4.0698192 5.7396145 3.9772649 4.9231095 3.9921875 4.3652344 C 3.9978484 4.1536052 4.0257918 4.039319 4.0488281 3.9355469 C 4.1825216 3.8988472 4.3917946 3.8693219 4.6542969 3.8632812 z M 8 13 A 1 1 0 0 0 7 14 L 7 14.5 A 1 1 0 0 0 8 15.5 A 1 1 0 0 0 9 14.5 L 9 14 A 1 1 0 0 0 8 13 z M 16 13 A 1 1 0 0 0 15 14 L 15 14.5 A 1 1 0 0 0 16 15.5 A 1 1 0 0 0 17 14.5 L 17 14 A 1 1 0 0 0 16 13 z M 11.25 15.25 A 1.0001 1.0001 0 0 0 10.542969 16.957031 L 11.292969 17.707031 A 1.0001 1.0001 0 0 0 12.707031 17.707031 L 13.457031 16.957031 A 1.0001 1.0001 0 0 0 12.75 15.25 L 11.25 15.25 z "/>
</svg>
