<?xml version="1.0" encoding="UTF-8" standalone="no"?>
<svg xmlns="http://www.w3.org/2000/svg" xmlns:svg="http://www.w3.org/2000/svg" width="24" height="24" viewBox="0 0 24 24" fill="currentColor" tags="camera,surveillance,recording,film,videotape,crime,watching" categories="security,devices,communication,connectivity,photography">
  <path d="M 6.2753906 2.9921875 C 4.850277 3.0066951 3.4759427 3.7990358 2.796875 5.1523438 A 1.0001 1.0001 0 0 0 2.7929688 5.15625 L 1.4140625 7.9472656 C 0.45952634 9.8679417 1.2442252 12.2283 3.1601562 13.193359 A 1.0001 1.0001 0 0 0 3.1621094 13.193359 L 7.6621094 15.445312 L 6.6660156 17.449219 C 6.4939835 17.79064 6.1498831 18.002661 5.7675781 18 A 1.0001 1.0001 0 0 0 5.7597656 18 L 3 18 L 3 17 A 1 1 0 0 0 2 16 A 1 1 0 0 0 1 17 L 1 21 A 1 1 0 0 0 2 22 A 1 1 0 0 0 3 21 L 3 20 L 5.7539062 20 C 6.8922257 20.0079 7.9408964 19.3662 8.453125 18.349609 A 1.0001 1.0001 0 0 0 8.4550781 18.345703 L 9.4511719 16.339844 L 12.658203 17.945312 C 13.635617 18.434529 14.852958 18.030341 15.341797 17.052734 L 15.5625 16.611328 L 16.720703 18.230469 C 17.571079 19.420618 19.482348 19.271093 20.136719 17.962891 L 22.169922 13.894531 C 22.815551 12.602502 21.827173 11.000771 20.382812 11 L 18.367188 11 L 18.447266 10.841797 A 1.0001 1.0001 0 0 0 18.447266 10.839844 C 18.935164 9.8629321 18.529226 8.6470321 17.552734 8.1582031 L 8.0585938 3.40625 L 8.0566406 3.40625 C 7.5760287 3.1652612 7.068044 3.0320062 6.5605469 3 C 6.4652755 2.9939915 6.3703982 2.9912203 6.2753906 2.9921875 z M 6.2363281 4.9863281 C 6.5456739 4.9771272 6.8626115 5.0429971 7.1621094 5.1933594 L 16.658203 9.9472656 L 13.552734 16.158203 L 4.0566406 11.40625 L 4.0605469 11.40625 C 3.1060106 10.925449 2.7284635 9.792567 3.2050781 8.8359375 A 1.0001 1.0001 0 0 0 3.2070312 8.8339844 L 4.5839844 6.0488281 C 4.8244628 5.5695808 5.2288958 5.2360626 5.6933594 5.0820312 C 5.8675332 5.0242695 6.0507206 4.9918487 6.2363281 4.9863281 z M 7 8 A 1 1 0 0 0 6 9 A 1 1 0 0 0 7 10 L 7.0097656 10 A 1 1 0 0 0 8.0097656 9 A 1 1 0 0 0 7.0097656 8 L 7 8 z M 17.367188 13 L 20.380859 13 L 18.347656 17.068359 L 16.574219 14.587891 L 17.367188 13 z "/>
</svg>
