<svg xmlns="http://www.w3.org/2000/svg" xmlns:svg="http://www.w3.org/2000/svg" width="24" height="24" viewBox="0 0 24 24" fill="currentColor" tags="statistics,analytics,diagram,graph,trending up" categories="charts">
  <path d="M 22 2 A 1 1 0 0 0 21.292969 2.2929688 L 13 10.585938 L 10.060547 7.6464844 C 9.4831658 7.0692777 8.5168341 7.0692777 7.9394531 7.6464844 L 1.2929688 14.292969 A 1 1 0 0 0 1.2929688 15.707031 A 1 1 0 0 0 2.7070312 15.707031 L 9 9.4140625 L 11.939453 12.353516 C 12.517339 12.930712 13.48548 12.93009 14.0625 12.351562 L 22.707031 3.7070312 A 1 1 0 0 0 22.707031 2.2929688 A 1 1 0 0 0 22 2 z M 20 9 A 1 1 0 0 0 19 10 L 19 21 A 1 1 0 0 0 20 22 A 1 1 0 0 0 21 21 L 21 10 A 1 1 0 0 0 20 9 z M 8 13 A 1 1 0 0 0 7 14 L 7 21 A 1 1 0 0 0 8 22 A 1 1 0 0 0 9 21 L 9 14 A 1 1 0 0 0 8 13 z M 16 13 A 1 1 0 0 0 15 14 L 15 21 A 1 1 0 0 0 16 22 A 1 1 0 0 0 17 21 L 17 14 A 1 1 0 0 0 16 13 z M 12 15 A 1 1 0 0 0 11 16 L 11 21 A 1 1 0 0 0 12 22 A 1 1 0 0 0 13 21 L 13 16 A 1 1 0 0 0 12 15 z M 4 17 A 1 1 0 0 0 3 18 L 3 21 A 1 1 0 0 0 4 22 A 1 1 0 0 0 5 21 L 5 18 A 1 1 0 0 0 4 17 z "/>
</svg>
