<?xml version="1.0" encoding="UTF-8" standalone="no"?>
<svg xmlns="http://www.w3.org/2000/svg" xmlns:svg="http://www.w3.org/2000/svg" width="24" height="24" viewBox="0 0 24 24" fill="currentColor" tags="statistics,analytics,diagram,graph,curve,continuous,smooth,polynomial,quadratic,function,interpolation" categories="charts">
  <path d="M 3 2 A 1 1 0 0 0 2 3 L 2 19 C 2 20.645006 3.3549936 22 5 22 L 21 22 A 1 1 0 0 0 22 21 A 1 1 0 0 0 21 20 L 5 20 C 4.4358718 20 4 19.564128 4 19 L 4 3 A 1 1 0 0 0 3 2 z M 19.851562 4.0097656 A 1 1 0 0 0 19.029297 4.7578125 C 18.807831 5.6436763 18.195578 7.3594767 17.386719 8.7460938 C 16.982288 9.4394022 16.525784 10.05243 16.091797 10.449219 C 15.657809 10.846007 15.291666 11 15 11 C 14.75 11 14.663511 10.950089 14.482422 10.787109 C 14.301333 10.624131 14.082031 10.320312 13.832031 9.9453125 C 13.582031 9.5703133 13.301332 9.1241286 12.857422 8.7246094 C 12.413511 8.3250902 11.749998 8 11 8 C 10.041669 8 9.2254561 8.5060699 8.6503906 9.140625 C 8.0753251 9.7751801 7.6644639 10.553334 7.3261719 11.365234 C 6.6495878 12.989037 6.2697851 14.795858 6.0292969 15.757812 A 1 1 0 0 0 6.7578125 16.970703 A 1 1 0 0 0 7.9707031 16.242188 C 8.2302139 15.204146 8.6004148 13.510957 9.1738281 12.134766 C 9.4605348 11.446669 9.7996771 10.849818 10.130859 10.484375 C 10.462042 10.118932 10.708334 10 11 10 C 11.25 10 11.336489 10.04991 11.517578 10.212891 C 11.698667 10.375869 11.917969 10.679688 12.167969 11.054688 C 12.417969 11.429686 12.698668 11.875871 13.142578 12.275391 C 13.586489 12.674909 14.250002 13 15 13 C 15.958331 13 16.779693 12.528991 17.439453 11.925781 C 18.099213 11.322572 18.642713 10.560595 19.113281 9.7539062 C 20.054418 8.1405292 20.69217 6.3563197 20.970703 5.2421875 A 1 1 0 0 0 20.242188 4.0292969 A 1 1 0 0 0 19.851562 4.0097656 z "/>
</svg>
