<?xml version="1.0" encoding="UTF-8" standalone="no"?>
<svg xmlns="http://www.w3.org/2000/svg" xmlns:svg="http://www.w3.org/2000/svg" width="24" height="24" viewBox="0 0 24 24" fill="currentColor" tags="statistics,analytics,diagram,graph,curve,continuous,smooth,polynomial,quadratic,function,interpolation" categories="charts">
  <path d="M 3 2 A 1 1 0 0 0 2 3 L 2 19 C 2 20.64501 3.3549904 22 5 22 L 21 22 A 1 1 0 0 0 22 21 A 1 1 0 0 0 21 20 L 5 20 C 4.4358706 20 4 19.564129 4 19 L 4 3 A 1 1 0 0 0 3 2 z M 19.851562 4.0097656 A 1 1 0 0 0 19.029297 4.7578125 C 18.80783 5.6436781 18.19558 7.3594741 17.386719 8.7460938 C 16.982288 9.4394035 16.525785 10.052429 16.091797 10.449219 C 15.657808 10.846008 15.291667 11 15 11 C 14.75 11 14.663511 10.95009 14.482422 10.787109 C 14.301333 10.624129 14.082031 10.320313 13.832031 9.9453125 C 13.582031 9.5703125 13.301333 9.1241294 12.857422 8.7246094 C 12.413511 8.3250894 11.75 8 11 8 C 10.041667 8 9.2254573 8.5060687 8.6503906 9.140625 C 8.0753239 9.7751813 7.6644646 10.553332 7.3261719 11.365234 C 6.6495864 12.98904 6.2697857 14.795856 6.0292969 15.757812 A 1 1 0 0 0 6.7578125 16.970703 A 1 1 0 0 0 7.9707031 16.242188 C 8.2302143 15.204143 8.6004136 13.51096 9.1738281 12.134766 C 9.4605354 11.446668 9.7996765 10.849819 10.130859 10.484375 C 10.462043 10.118931 10.708333 10 11 10 C 11.25 10 11.336489 10.04991 11.517578 10.212891 C 11.698667 10.375871 11.917969 10.679688 12.167969 11.054688 C 12.417969 11.429688 12.698667 11.875871 13.142578 12.275391 C 13.586489 12.674911 14.25 13 15 13 C 15.958333 13 16.779692 12.528992 17.439453 11.925781 C 18.099215 11.322571 18.642712 10.560596 19.113281 9.7539062 C 20.05442 8.1405258 20.69217 6.3563219 20.970703 5.2421875 A 1 1 0 0 0 20.242188 4.0292969 A 1 1 0 0 0 19.851562 4.0097656 z "/>
</svg>
