<?xml version="1.0" encoding="UTF-8" standalone="no"?>
<svg xmlns="http://www.w3.org/2000/svg" xmlns:svg="http://www.w3.org/2000/svg" width="24" height="24" viewBox="0 0 24 24" fill="currentColor" tags="statistics,analytics,diagram,graph,topology,cluster,web,nodes,connections,edges" categories="charts">
  <path d="M 3 2 A 1 1 0 0 0 2 3 L 2 19 C 2 20.645006 3.3549936 22 5 22 L 21 22 A 1 1 0 0 0 22 21 A 1 1 0 0 0 21 20 L 5 20 C 4.4358718 20 4 19.564128 4 19 L 4 3 A 1 1 0 0 0 3 2 z M 12 3 C 10.354994 3 9 4.3549936 9 6 C 9 7.6450064 10.354994 9 12 9 C 12.253593 9 12.500421 8.9667514 12.736328 8.90625 L 13.603516 10.207031 C 13.225701 10.708939 13 11.329787 13 12 C 13 12.065445 13.00359 12.130852 13.007812 12.195312 L 11.199219 12.96875 C 10.649476 12.374754 9.8646011 12 9 12 C 7.3549936 12 6 13.354994 6 15 C 6 16.645006 7.3549936 18 9 18 C 10.645006 18 12 16.645006 12 15 C 12 14.934555 11.99641 14.869148 11.992188 14.804688 L 13.800781 14.03125 C 14.350524 14.625246 15.135399 15 16 15 C 17.645006 15 19 13.645006 19 12 C 19 10.354994 17.645006 9 16 9 C 15.746407 9 15.499579 9.0332486 15.263672 9.09375 L 14.396484 7.7929688 C 14.720485 7.3625501 14.932635 6.8449404 14.986328 6.2832031 L 20.242188 4.9707031 A 1 1 0 0 0 20.970703 3.7578125 A 1 1 0 0 0 19.757812 3.0292969 L 14.496094 4.3457031 C 13.9561 3.5373052 13.035664 3 12 3 z M 12 5 C 12.478144 5 12.864141 5.3130056 12.970703 5.7519531 A 1 1 0 0 0 12.970703 5.7578125 A 1 1 0 0 0 12.972656 5.7636719 C 12.990057 5.8391608 13 5.9181758 13 6 C 13 6.3416982 12.83936 6.635226 12.587891 6.8144531 A 1 1 0 0 0 12.554688 6.8320312 A 1 1 0 0 0 12.529297 6.8535156 C 12.377002 6.9461365 12.196332 7 12 7 C 11.435872 7 11 6.5641282 11 6 C 11 5.4358718 11.435872 5 12 5 z M 16 11 C 16.564128 11 17 11.435872 17 12 C 17 12.564128 16.564128 13 16 13 C 15.604925 13 15.27298 12.786738 15.109375 12.464844 A 1 1 0 0 0 15.082031 12.394531 A 1 1 0 0 0 15.066406 12.367188 C 15.023536 12.254191 15 12.130545 15 12 C 15 11.658302 15.16064 11.364774 15.412109 11.185547 A 1 1 0 0 0 15.445312 11.167969 A 1 1 0 0 0 15.503906 11.126953 C 15.648934 11.046461 15.817895 11 16 11 z M 9 14 C 9.410505 14 9.7520572 14.231145 9.9082031 14.574219 A 1 1 0 0 0 9.9179688 14.605469 A 1 1 0 0 0 9.9335938 14.632812 C 9.9764641 14.745809 10 14.869455 10 15 C 10 15.564128 9.5641282 16 9 16 C 8.4358718 16 8 15.564128 8 15 C 8 14.435872 8.4358718 14 9 14 z "/>
</svg>
