<?xml version="1.0" encoding="UTF-8" standalone="no"?>
<svg xmlns="http://www.w3.org/2000/svg" xmlns:svg="http://www.w3.org/2000/svg" width="24" height="24" viewBox="0 0 24 24" fill="currentColor" tags="statistics,analytics,diagram,graph,topology,cluster,web,nodes,connections,edges" categories="charts">
  <path d="M 3 2 A 1 1 0 0 0 2 3 L 2 19 C 2 20.64501 3.3549904 22 5 22 L 21 22 A 1 1 0 0 0 22 21 A 1 1 0 0 0 21 20 L 5 20 C 4.4358706 20 4 19.564129 4 19 L 4 3 A 1 1 0 0 0 3 2 z M 12 3 C 10.35499 3 9 4.3549904 9 6 C 9 7.6450096 10.35499 9 12 9 C 12.253647 9 12.500376 8.9687289 12.736328 8.9082031 L 13.601562 10.207031 C 13.223967 10.708855 13 11.330001 13 12 C 13 12.065541 13.001625 12.13076 13.005859 12.195312 L 11.199219 12.96875 C 10.649441 12.374306 9.8649776 12 9 12 C 7.3549904 12 6 13.35499 6 15 C 6 16.64501 7.3549904 18 9 18 C 10.64501 18 12 16.64501 12 15 C 12 14.934459 11.998375 14.86924 11.994141 14.804688 L 13.800781 14.03125 C 14.350559 14.625694 15.135022 15 16 15 C 17.64501 15 19 13.64501 19 12 C 19 10.35499 17.64501 9 16 9 C 15.746353 9 15.499624 9.0312711 15.263672 9.0917969 L 14.398438 7.7929688 C 14.722213 7.3626716 14.932639 6.8446907 14.986328 6.2832031 L 20.242188 4.9707031 A 1 1 0 0 0 20.970703 3.7578125 A 1 1 0 0 0 19.757812 3.0292969 L 14.496094 4.3457031 C 13.956069 3.5374942 13.035521 3 12 3 z M 12 5 C 12.464609 5 12.842165 5.2953888 12.960938 5.7148438 A 1 1 0 0 0 12.970703 5.7578125 A 1 1 0 0 0 12.978516 5.7871094 C 12.992548 5.8553793 13 5.9267286 13 6 C 13 6.3267892 12.853825 6.6101007 12.621094 6.7910156 A 1 1 0 0 0 12.554688 6.8320312 A 1 1 0 0 0 12.498047 6.8730469 C 12.3527 6.9540336 12.182702 7 12 7 C 11.435871 7 11 6.5641294 11 6 C 11 5.4358706 11.435871 5 12 5 z M 16 11 C 16.564129 11 17 11.435871 17 12 C 17 12.564129 16.564129 13 16 13 C 15.604191 13 15.270703 12.785785 15.107422 12.462891 A 1 1 0 0 0 15.082031 12.394531 A 1 1 0 0 0 15.054688 12.337891 C 15.018688 12.23307 15 12.119166 15 12 C 15 11.673213 15.146177 11.389899 15.378906 11.208984 A 1 1 0 0 0 15.445312 11.167969 A 1 1 0 0 0 15.501953 11.126953 C 15.647299 11.045968 15.817299 11 16 11 z M 9 14 C 9.395809 14 9.7292969 14.214216 9.8925781 14.537109 A 1 1 0 0 0 9.9179688 14.605469 A 1 1 0 0 0 9.9453125 14.662109 C 9.9813115 14.766929 10 14.880834 10 15 C 10 15.564129 9.5641294 16 9 16 C 8.4358706 16 8 15.564129 8 15 C 8 14.435871 8.4358706 14 9 14 z "/>
</svg>
