<?xml version="1.0" encoding="UTF-8" standalone="no"?>
<svg xmlns="http://www.w3.org/2000/svg" xmlns:svg="http://www.w3.org/2000/svg" width="24" height="24" viewBox="0 0 24 24" fill="currentColor" tags="statistics,analytics,diagram,graph,trending down" categories="charts">
  <path d="M 3 2 A 1 1 0 0 0 2 3 L 2 19 C 2 20.64501 3.3549904 22 5 22 L 21 22 A 1 1 0 0 0 22 21 A 1 1 0 0 0 21 20 L 5 20 C 4.4358706 20 4 19.564129 4 19 L 4 3 A 1 1 0 0 0 3 2 z M 7 5 A 1 1 0 0 0 6 6 A 1 1 0 0 0 7 7 L 19 7 A 1 1 0 0 0 20 6 A 1 1 0 0 0 19 5 L 7 5 z M 7 10 A 1 1 0 0 0 6 11 A 1 1 0 0 0 7 12 L 15 12 A 1 1 0 0 0 16 11 A 1 1 0 0 0 15 10 L 7 10 z M 7 15 A 1 1 0 0 0 6 16 A 1 1 0 0 0 7 17 L 10 17 A 1 1 0 0 0 11 16 A 1 1 0 0 0 10 15 L 7 15 z "/>
</svg>
