<svg xmlns="http://www.w3.org/2000/svg" xmlns:svg="http://www.w3.org/2000/svg" width="24" height="24" viewBox="0 0 24 24" fill="currentColor" tags="statistics,analytics,diagram,graph" categories="charts">
  <path d="M 12 2 A 1 1 0 0 0 11 3 L 11 21 A 1 1 0 0 0 12 22 A 1 1 0 0 0 13 21 L 13 3 A 1 1 0 0 0 12 2 z M 19 8 A 1 1 0 0 0 18 9 L 18 21 A 1 1 0 0 0 19 22 A 1 1 0 0 0 20 21 L 20 9 A 1 1 0 0 0 19 8 z M 5 14 A 1 1 0 0 0 4 15 L 4 21 A 1 1 0 0 0 5 22 A 1 1 0 0 0 6 21 L 6 15 A 1 1 0 0 0 5 14 z "/>
</svg>
