<?xml version="1.0" encoding="UTF-8" standalone="no"?>
<svg xmlns="http://www.w3.org/2000/svg" xmlns:svg="http://www.w3.org/2000/svg" width="24" height="24" viewBox="0 0 24 24" fill="currentColor" tags="projects,manage,overview,roadmap,plan,intentions,timeline,deadline,date,event,range,period,productivity,work,agile,code,coding" categories="charts,time,development,design">
  <path d="M 6 4 A 1 1 0 0 0 5 5 A 1 1 0 0 0 6 6 L 18 6 A 1 1 0 0 0 19 5 A 1 1 0 0 0 18 4 L 6 4 z M 4 11 A 1 1 0 0 0 3 12 A 1 1 0 0 0 4 13 L 14 13 A 1 1 0 0 0 15 12 A 1 1 0 0 0 14 11 L 4 11 z M 12 18 A 1 1 0 0 0 11 19 A 1 1 0 0 0 12 20 L 20 20 A 1 1 0 0 0 21 19 A 1 1 0 0 0 20 18 L 12 18 z "/>
</svg>
