<?xml version="1.0" encoding="UTF-8" standalone="no"?>
<svg xmlns="http://www.w3.org/2000/svg" xmlns:svg="http://www.w3.org/2000/svg" width="24" height="24" viewBox="0 0 24 24" fill="currentColor" tags="diagram,graph,timeline,planning" categories="charts">
  <path d="M 3 2 A 1 1 0 0 0 2 3 L 2 19 C 2 20.645006 3.3549936 22 5 22 L 21 22 A 1 1 0 0 0 22 21 A 1 1 0 0 0 21 20 L 5 20 C 4.4358718 20 4 19.564128 4 19 L 4 3 A 1 1 0 0 0 3 2 z M 10 5 A 1 1 0 0 0 9 6 A 1 1 0 0 0 10 7 L 18 7 A 1 1 0 0 0 19 6 A 1 1 0 0 0 18 5 L 10 5 z M 8 10 A 1 1 0 0 0 7 11 A 1 1 0 0 0 8 12 L 15 12 A 1 1 0 0 0 16 11 A 1 1 0 0 0 15 10 L 8 10 z M 12 15 A 1 1 0 0 0 11 16 A 1 1 0 0 0 12 17 L 18 17 A 1 1 0 0 0 19 16 A 1 1 0 0 0 18 15 L 12 15 z "/>
</svg>
