<?xml version="1.0" encoding="UTF-8" standalone="no"?>
<svg xmlns="http://www.w3.org/2000/svg" xmlns:svg="http://www.w3.org/2000/svg" width="24" height="24" viewBox="0 0 24 24" fill="currentColor" tags="statistics,analytics,diagram,graph,trending up" categories="charts">
  <path d="M 3 2 A 1 1 0 0 0 2 3 L 2 19 C 2 20.645006 3.3549936 22 5 22 L 21 22 A 1 1 0 0 0 22 21 A 1 1 0 0 0 21 20 L 5 20 C 4.4358718 20 4 19.564128 4 19 L 4 3 A 1 1 0 0 0 3 2 z M 18 4 A 1 1 0 0 0 17 5 L 17 17 A 1 1 0 0 0 18 18 A 1 1 0 0 0 19 17 L 19 5 A 1 1 0 0 0 18 4 z M 13 8 A 1 1 0 0 0 12 9 L 12 17 A 1 1 0 0 0 13 18 A 1 1 0 0 0 14 17 L 14 9 A 1 1 0 0 0 13 8 z M 8 13 A 1 1 0 0 0 7 14 L 7 17 A 1 1 0 0 0 8 18 A 1 1 0 0 0 9 17 L 9 14 A 1 1 0 0 0 8 13 z "/>
</svg>
