<?xml version="1.0" encoding="UTF-8" standalone="no"?>
<svg xmlns="http://www.w3.org/2000/svg" xmlns:svg="http://www.w3.org/2000/svg" width="24" height="24" viewBox="0 0 24 24" fill="currentColor" tags="statistics,analytics,diagram,graph,multivariate,categorical,comparison" categories="charts">
  <path d="M 3 2 A 1 1 0 0 0 2 3 L 2 19 C 2 20.645006 3.3549936 22 5 22 L 21 22 A 1 1 0 0 0 22 21 A 1 1 0 0 0 21 20 L 5 20 C 4.4358718 20 4 19.564128 4 19 L 4 3 A 1 1 0 0 0 3 2 z M 16 4 C 14.909299 4 14 4.9092994 14 6 L 14 16 C 14 17.090701 14.909299 18 16 18 L 18 18 C 19.090701 18 20 17.090701 20 16 L 20 6 C 20 4.9092994 19.090701 4 18 4 L 16 4 z M 16 6 L 18 6 L 18 8 L 16 8 L 16 6 z M 8 7 C 6.9092994 7 6 7.9092994 6 9 L 6 13 L 6 16 C 6 17.090701 6.9092994 18 8 18 L 10 18 C 11.090701 18 12 17.090701 12 16 L 12 13 L 12 9 C 12 7.9092994 11.090701 7 10 7 L 8 7 z M 8 9 L 10 9 L 10 12 L 8 12 L 8 9 z M 16 10 L 18 10 L 18 16 L 16 16 L 16 10 z M 8 14 L 10 14 L 10 16 L 8 16 L 8 14 z "/>
</svg>
