<svg xmlns="http://www.w3.org/2000/svg" xmlns:svg="http://www.w3.org/2000/svg" width="24" height="24" viewBox="0 0 24 24" fill="currentColor" tags="statistics,analytics,diagram,presentation" categories="charts,files">
  <path d="M 12.882812 1.046875 C 11.835089 1.0627821 10.998047 1.9772067 10.998047 3.0019531 L 10.998047 11.001953 C 10.998047 12.094678 11.905322 13.001953 12.998047 13.001953 A 1.0001 1.0001 0 0 0 13 13.001953 L 21 13 C 22.094271 13 23.059993 12.047067 22.945312 10.902344 C 22.423053 5.7016225 18.298494 1.5777378 13.097656 1.0566406 A 1.0001 1.0001 0 0 0 13.095703 1.0566406 C 13.024175 1.0494878 12.952661 1.0458145 12.882812 1.046875 z M 7.9804688 1.8300781 A 1 1 0 0 0 7.5996094 1.9140625 C 0.50198494 5.0113482 -1.2413291 14.373937 4.265625 19.818359 C 9.7725791 25.262782 19.114827 23.411828 22.130859 16.279297 A 1 1 0 0 0 21.599609 14.96875 A 1 1 0 0 0 20.289062 15.5 C 17.797268 21.392778 10.221623 22.892617 5.671875 18.394531 C 1.1221271 13.896446 2.5364522 6.3050192 8.4003906 3.7460938 A 1 1 0 0 0 8.9160156 2.4296875 A 1 1 0 0 0 8.3652344 1.8984375 A 1 1 0 0 0 7.9804688 1.8300781 z M 12.998047 3.0761719 C 17.176648 3.5451776 20.45582 6.821515 20.925781 11 L 12.998047 11.001953 L 12.998047 3.0761719 z "/>
</svg>
