<?xml version="1.0" encoding="UTF-8" standalone="no"?>
<svg xmlns="http://www.w3.org/2000/svg" xmlns:svg="http://www.w3.org/2000/svg" width="24" height="24" viewBox="0 0 24 24" fill="currentColor" tags="statistics,analytics,diagram,graph" categories="charts">
  <g>
    <path style="color:#000000;fill:currentColor;-inkscape-stroke:none" d="M 8,7.5 A 0.5,0.5 0 0 1 7.5,8 0.5,0.5 0 0 1 7,7.5 0.5,0.5 0 0 1 7.5,7 0.5,0.5 0 0 1 8,7.5 Z" id="path6"/>
    <path style="color:#000000;fill:#000000;-inkscape-stroke:none" d="M 7.5,6 C 6.6834183,6 6,6.6834183 6,7.5 6,8.3165817 6.6834183,9 7.5,9 8.3165817,9 9,8.3165817 9,7.5 9,6.6834183 8.3165817,6 7.5,6 Z m 0,1 C 7.7642975,7 8,7.2357025 8,7.5 8,7.7642975 7.7642975,8 7.5,8 7.2357025,8 7,7.7642975 7,7.5 7,7.2357025 7.2357025,7 7.5,7 Z" id="path7"/>
  </g>
  <g id="circle2" stroke-width="0">
    <path style="color:#000000;fill:currentColor;-inkscape-stroke:none" d="M 19,5.5 A 0.5,0.5 0 0 1 18.5,6 0.5,0.5 0 0 1 18,5.5 0.5,0.5 0 0 1 18.5,5 0.5,0.5 0 0 1 19,5.5 Z" id="path8"/>
    <path style="color:#000000;fill:#000000;-inkscape-stroke:none" d="M 18.5,4 C 17.683418,4 17,4.6834183 17,5.5 17,6.3165817 17.683418,7 18.5,7 19.316582,7 20,6.3165817 20,5.5 20,4.6834183 19.316582,4 18.5,4 Z m 0,1 C 18.764297,5 19,5.2357025 19,5.5 19,5.7642975 18.764297,6 18.5,6 18.235703,6 18,5.7642975 18,5.5 18,5.2357025 18.235703,5 18.5,5 Z" id="path9"/>
  </g>
  <g id="circle3" stroke-width="0">
    <path style="color:#000000;fill:currentColor;-inkscape-stroke:none" d="M 12,11.5 A 0.5,0.5 0 0 1 11.5,12 0.5,0.5 0 0 1 11,11.5 0.5,0.5 0 0 1 11.5,11 0.5,0.5 0 0 1 12,11.5 Z" id="path10"/>
    <path style="color:#000000;fill:#000000;-inkscape-stroke:none" d="M 11.5,10 C 10.683418,10 10,10.683418 10,11.5 10,12.316582 10.683418,13 11.5,13 12.316582,13 13,12.316582 13,11.5 13,10.683418 12.316582,10 11.5,10 Z m 0,1 C 11.764297,11 12,11.235703 12,11.5 12,11.764297 11.764297,12 11.5,12 11.235703,12 11,11.764297 11,11.5 11,11.235703 11.235703,11 11.5,11 Z" id="path11"/>
  </g>
  <g id="circle4" stroke-width="0">
    <path style="color:#000000;fill:currentColor;-inkscape-stroke:none" d="M 8,16.5 A 0.5,0.5 0 0 1 7.5,17 0.5,0.5 0 0 1 7,16.5 0.5,0.5 0 0 1 7.5,16 0.5,0.5 0 0 1 8,16.5 Z" id="path12"/>
    <path style="color:#000000;fill:#000000;-inkscape-stroke:none" d="M 7.5,15 C 6.6834183,15 6,15.683418 6,16.5 6,17.316582 6.6834183,18 7.5,18 8.3165817,18 9,17.316582 9,16.5 9,15.683418 8.3165817,15 7.5,15 Z m 0,1 C 7.7642975,16 8,16.235703 8,16.5 8,16.764297 7.7642975,17 7.5,17 7.2357025,17 7,16.764297 7,16.5 7,16.235703 7.2357025,16 7.5,16 Z" id="path13"/>
  </g>
  <g id="circle5" stroke-width="0">
    <path style="color:#000000;fill:currentColor;-inkscape-stroke:none" d="M 18,14.5 A 0.5,0.5 0 0 1 17.5,15 0.5,0.5 0 0 1 17,14.5 0.5,0.5 0 0 1 17.5,14 0.5,0.5 0 0 1 18,14.5 Z" id="path14"/>
    <path style="color:#000000;fill:#000000;-inkscape-stroke:none" d="M 17.5,13 C 16.683418,13 16,13.683418 16,14.5 16,15.316582 16.683418,16 17.5,16 18.316582,16 19,15.316582 19,14.5 19,13.683418 18.316582,13 17.5,13 Z m 0,1 C 17.764297,14 18,14.235703 18,14.5 18,14.764297 17.764297,15 17.5,15 17.235703,15 17,14.764297 17,14.5 17,14.235703 17.235703,14 17.5,14 Z" id="path15"/>
  </g>
  <path style="color:#000000;fill:#000000;-inkscape-stroke:none" d="M 3,2 A 1,1 0 0 0 2,3 v 16 c 0,1.645008 1.354992,3 3,3 h 16 a 1,1 0 0 0 1,-1 1,1 0 0 0 -1,-1 H 5 C 4.4358712,20 4,19.564129 4,19 V 3 A 1,1 0 0 0 3,2 Z" id="path5" stroke-width="0"/>
</svg>
