<?xml version="1.0" encoding="UTF-8" standalone="no"?>
<svg xmlns="http://www.w3.org/2000/svg" xmlns:svg="http://www.w3.org/2000/svg" width="24" height="24" viewBox="0 0 24 24" fill="currentColor" tags="statistics,analytics,diagram,graph,area" categories="charts">
  <path d="M 3 2 A 1 1 0 0 0 2 3 L 2 19 C 2 20.645006 3.3549936 22 5 22 L 21 22 A 1 1 0 0 0 22 21 A 1 1 0 0 0 21 20 L 5 20 C 4.4358718 20 4 19.564128 4 19 L 4 3 A 1 1 0 0 0 3 2 z M 18.449219 6.7148438 C 18.376677 6.7178723 18.302877 6.7251013 18.230469 6.7382812 C 17.940833 6.7910012 17.658555 6.9268234 17.4375 7.1484375 L 13.5 11.085938 L 10.5625 8.1484375 C 9.9848406 7.5693159 9.0151594 7.5693159 8.4375 8.1484375 L 6.4394531 10.146484 A 1.0001 1.0001 0 0 0 6.4375 10.148438 C 6.1573594 10.429237 6.0000843 10.810356 6 11.207031 L 6 16 C 6 17.092723 6.9072773 18 8 18 L 18 18 C 19.092723 18 20 17.092723 20 16 L 20 8.2070312 C 19.999867 7.5810027 19.583072 7.0314538 19.072266 6.8203125 C 18.880713 6.7411345 18.666844 6.7057582 18.449219 6.7148438 z M 18 9.4140625 L 18 16 L 8 16 L 8 11.414062 L 9.5 9.9140625 L 12.439453 12.853516 C 13.017338 13.430711 13.985482 13.430088 14.5625 12.851562 L 18 9.4140625 z "/>
</svg>
