<?xml version="1.0" encoding="UTF-8" standalone="no"?>
<svg xmlns="http://www.w3.org/2000/svg" xmlns:svg="http://www.w3.org/2000/svg" width="24" height="24" viewBox="0 0 24 24" fill="currentColor" tags="statistics,analytics,diagram,graph,multivariate,categorical,comparison" categories="charts">
  <path d="M 3 2 A 1 1 0 0 0 2 3 L 2 19 C 2 20.645006 3.3549936 22 5 22 L 21 22 A 1 1 0 0 0 22 21 A 1 1 0 0 0 21 20 L 5 20 C 4.4358718 20 4 19.564128 4 19 L 4 3 A 1 1 0 0 0 3 2 z M 8 4 C 6.9092994 4 6 4.9092994 6 6 L 6 8 C 6 9.0907006 6.9092994 10 8 10 L 15 10 L 18 10 C 19.090701 10 20 9.0907006 20 8 L 20 6 C 20 4.9092994 19.090701 4 18 4 L 15 4 L 8 4 z M 8 6 L 14 6 L 14 8 L 8 8 L 8 6 z M 16 6 L 18 6 L 18 8 L 16 8 L 16 6 z M 8 12 C 6.9092994 12 6 12.909299 6 14 L 6 16 C 6 17.090701 6.9092994 18 8 18 L 15 18 C 16.090701 18 17 17.090701 17 16 L 17 14 C 17 12.909299 16.090701 12 15 12 L 8 12 z M 8 14 L 10 14 L 10 16 L 8 16 L 8 14 z M 12 14 L 15 14 L 15 16 L 12 16 L 12 14 z "/>
</svg>
