<?xml version="1.0" encoding="UTF-8" standalone="no"?>
<svg xmlns="http://www.w3.org/2000/svg" xmlns:svg="http://www.w3.org/2000/svg" width="24" height="24" viewBox="0 0 24 24" fill="currentColor" tags="trading,trader,financial,markets,portfolio,assets,prices,value,valuation,commodities,currencies,currency,stocks,exchange,hedge fund,statistics,analytics,diagram,graph" categories="charts,finance">
  <path d="M 3 2 A 1 1 0 0 0 2 3 L 2 19 C 2 20.64501 3.3549904 22 5 22 L 21 22 A 1 1 0 0 0 22 21 A 1 1 0 0 0 21 20 L 5 20 C 4.4358706 20 4 19.564129 4 19 L 4 3 A 1 1 0 0 0 3 2 z M 17 2 A 1 1 0 0 0 16 3 L 16 4 C 14.909297 4 14 4.9092972 14 6 L 14 12 C 14 13.090703 14.909297 14 16 14 L 16 16 A 1 1 0 0 0 17 17 A 1 1 0 0 0 18 16 L 18 14 C 19.090703 14 20 13.090703 20 12 L 20 6 C 20 4.9092972 19.090703 4 18 4 L 18 3 A 1 1 0 0 0 17 2 z M 9 4 A 1 1 0 0 0 8 5 L 8 8 C 6.9092972 8 6 8.9092972 6 10 L 6 14 C 6 15.090703 6.9092972 16 8 16 L 8 17 A 1 1 0 0 0 9 18 A 1 1 0 0 0 10 17 L 10 16 C 11.090703 16 12 15.090703 12 14 L 12 10 C 12 8.9092972 11.090703 8 10 8 L 10 5 A 1 1 0 0 0 9 4 z M 16 6 L 18 6 L 18 12 L 16 12 L 16 6 z M 8 10 L 10 10 L 10 14 L 8 14 L 8 10 z "/>
</svg>
