<svg xmlns="http://www.w3.org/2000/svg" xmlns:svg="http://www.w3.org/2000/svg" width="24" height="24" viewBox="0 0 24 24" fill="currentColor" tags="done,received,double,todo,tick,complete,task" categories="notifications">
  <path d="M 18 5 A 1 1 0 0 0 17.292969 5.2929688 L 7 15.585938 L 2.7070312 11.292969 A 1 1 0 0 0 1.2929688 11.292969 A 1 1 0 0 0 1.2929688 12.707031 L 6.2929688 17.707031 A 1.0001 1.0001 0 0 0 7.7070312 17.707031 L 18.707031 6.7070312 A 1 1 0 0 0 18.707031 5.2929688 A 1 1 0 0 0 18 5 z M 22 9 A 1 1 0 0 0 21.292969 9.2929688 L 14.5 16.085938 L 13.707031 15.292969 A 1 1 0 0 0 12.292969 15.292969 A 1 1 0 0 0 12.292969 16.707031 L 13.792969 18.207031 A 1.0001 1.0001 0 0 0 15.207031 18.207031 L 22.707031 10.707031 A 1 1 0 0 0 22.707031 9.2929688 A 1 1 0 0 0 22 9 z "/>
</svg>
