<?xml version="1.0" encoding="UTF-8" standalone="no"?>
<svg xmlns="http://www.w3.org/2000/svg" xmlns:svg="http://www.w3.org/2000/svg" width="24" height="24" viewBox="0 0 24 24" fill="currentColor" tags="done,todo,tick,complete,task" categories="notifications">
  <path d="M 20 3 A 1 1 0 0 0 19.292969 3.2929688 L 9 13.585938 L 4.7070312 9.2929688 A 1 1 0 0 0 4 9 A 1 1 0 0 0 3.2929688 9.2929688 A 1 1 0 0 0 3.2929688 10.707031 L 8.2929688 15.707031 A 1 1 0 0 0 9.1308594 15.992188 A 1 1 0 0 0 9.7070312 15.707031 L 20.707031 4.7070312 A 1 1 0 0 0 20.707031 3.2929688 A 1 1 0 0 0 20 3 z M 3 18 A 1 1 0 0 0 2 19 A 1 1 0 0 0 3 20 L 21 20 A 1 1 0 0 0 22 19 A 1 1 0 0 0 21 18 L 3 18 z "/>
</svg>
