<?xml version="1.0" encoding="UTF-8" standalone="no"?>
<svg xmlns="http://www.w3.org/2000/svg" xmlns:svg="http://www.w3.org/2000/svg" width="24" height="24" viewBox="0 0 24 24" fill="currentColor" tags="cooking,food,kitchen,restaurant" categories="food-beverage">
  <path d="M 12 1.9960938 C 9.9690852 1.9960938 7.9514488 3.084683 6.828125 5.0800781 C 4.4913571 5.1544704 2.7256299 6.7241233 2.1855469 8.6445312 C 1.5919054 10.75538 2.3971948 13.341385 4.8398438 14.509766 C 4.9723969 14.573623 5 14.654425 5 14.648438 L 5 17 L 5 20 C 5 21.092723 5.9072773 22 7 22 L 17 22 C 18.092723 22 19 21.092723 19 20 L 19 17 L 19 14.650391 C 19 14.654291 19.02969 14.574241 19.158203 14.511719 C 21.604516 13.344729 22.412331 10.756829 21.818359 8.6445312 C 21.278039 6.723026 19.510408 5.1528091 17.171875 5.0800781 C 16.048551 3.084683 14.030915 1.9960938 12 1.9960938 z M 12 3.9960938 C 13.502093 3.9960938 14.964115 4.7663157 15.673828 6.4160156 A 1.0001 1.0001 0 0 0 16.695312 7.015625 C 18.466739 6.8322983 19.522991 7.8731619 19.892578 9.1875 C 20.262166 10.501838 19.904236 11.940255 18.296875 12.707031 A 1.0001 1.0001 0 0 0 18.294922 12.707031 C 17.603815 13.038315 17 13.732415 17 14.650391 L 17 16 L 7 16 L 7 14.648438 C 7 13.73045 6.3964766 13.039173 5.7070312 12.707031 A 1.0001 1.0001 0 0 0 5.7050781 12.705078 C 4.0995775 11.937779 3.7399437 10.501111 4.109375 9.1875 C 4.4788063 7.8738895 5.5345684 6.8336346 7.3046875 7.015625 A 1.0001 1.0001 0 0 0 8.3261719 6.4160156 C 9.0358852 4.7663157 10.497907 3.9960937 12 3.9960938 z M 7 18 L 17 18 L 17 20 L 7 20 L 7 18 z "/>
</svg>
