<svg xmlns="http://www.w3.org/2000/svg" xmlns:svg="http://www.w3.org/2000/svg" width="24" height="24" viewBox="0 0 24 24" fill="currentColor" tags="cooking,food,kitchen,restaurant" categories="food-beverage">
  <path d="M 12 1.9960938 C 9.9690811 1.9960938 7.951451 3.084679 6.828125 5.0800781 C 4.4913525 5.1544705 2.7256311 6.7241193 2.1855469 8.6445312 C 1.5919042 10.755384 2.3971899 13.341382 4.8398438 14.509766 C 4.955828 14.56564 4.9929044 14.63611 5 14.648438 L 5 17 L 5 20 C 5 21.092725 5.9072751 22 7 22 L 17 22 C 18.092725 22 19 21.092725 19 20 L 19 17 L 19 14.650391 L 19.001953 14.648438 C 19.009393 14.634873 19.045754 14.566426 19.158203 14.511719 C 21.604521 13.344727 22.412331 10.756833 21.818359 8.6445312 C 21.278038 6.7230221 19.510412 5.1528092 17.171875 5.0800781 C 16.048549 3.084679 14.030919 1.9960938 12 1.9960938 z M 12 3.9960938 C 13.502097 3.9960938 14.964113 4.7663123 15.673828 6.4160156 A 1.0001 1.0001 0 0 0 16.695312 7.015625 C 18.466742 6.8322979 19.52299 7.8731593 19.892578 9.1875 C 20.262166 10.501841 19.904238 11.940253 18.296875 12.707031 A 1.0001 1.0001 0 0 0 18.294922 12.707031 C 17.603813 13.038315 17 13.732413 17 14.650391 L 17 16 L 7 16 L 7 14.648438 C 7 13.730448 6.3964779 13.039173 5.7070312 12.707031 A 1.0001 1.0001 0 0 0 5.7050781 12.705078 C 4.0995743 11.937778 3.739943 10.501113 4.109375 9.1875 C 4.478807 7.8738869 5.5345649 6.8336342 7.3046875 7.015625 A 1.0001 1.0001 0 0 0 8.3261719 6.4160156 C 9.0358866 4.7663123 10.497903 3.9960937 12 3.9960938 z M 7 18 L 17 18 L 17 20 L 7 20 L 7 18 z "/>
</svg>
