<svg xmlns="http://www.w3.org/2000/svg" xmlns:svg="http://www.w3.org/2000/svg" width="24" height="24" viewBox="0 0 24 24" fill="currentColor" tags="fruit,food" categories="food-beverage">
  <path d="M 12 1 A 1.0001 1.0001 0 0 0 11.972656 1.0019531 A 1.0001 1.0001 0 0 0 11.888672 1.0078125 A 1.0001 1.0001 0 0 0 11.835938 1.015625 A 1.0001 1.0001 0 0 0 11.804688 1.0195312 A 1.0001 1.0001 0 0 0 11.757812 1.03125 A 1.0001 1.0001 0 0 0 11.705078 1.0449219 A 1.0001 1.0001 0 0 0 11.632812 1.0722656 A 1.0001 1.0001 0 0 0 11.576172 1.0957031 A 1.0001 1.0001 0 0 0 11.529297 1.1210938 A 1.0001 1.0001 0 0 0 11.451172 1.1660156 A 1.0001 1.0001 0 0 0 11.449219 1.1660156 A 1.0001 1.0001 0 0 0 11.443359 1.171875 A 1.0001 1.0001 0 0 0 11.347656 1.2441406 A 1.0001 1.0001 0 0 0 11.136719 1.5019531 A 1.0001 1.0001 0 0 0 11.103516 1.5585938 A 1.0001 1.0001 0 0 0 11.103516 1.5605469 A 1.0001 1.0001 0 0 0 11.054688 1.6777344 A 1.0001 1.0001 0 0 0 11.039062 1.7324219 A 1.0001 1.0001 0 0 0 11.023438 1.7871094 C 11.020886 1.7987901 11.018188 1.8105258 11.015625 1.8222656 C 10.333987 4.9443352 9.2491931 10.147897 6.7558594 12.835938 C 6.245085 12.5512 5.7279846 12.296258 5.2089844 12.271484 C 4.3971629 12.232734 3.6182832 12.455734 2.9902344 12.894531 C 1.7341368 13.772125 1 15.318068 1 17 C 1 20.301865 3.6981372 23 7 23 C 9.0814856 23 10.923049 21.928384 12 20.308594 C 13.076951 21.928384 14.918515 23 17 23 C 20.301863 23 23 20.301865 23 17 C 23 15.318068 22.265863 13.772125 21.009766 12.894531 C 20.133962 12.282637 18.979095 12.197417 17.841797 12.591797 C 17.597886 11.330771 17.097436 9.9171609 16.496094 8.4765625 C 18.11195 9.4828657 19.941271 10 22 10 A 1.0001 1.0001 0 0 0 23 9 C 23 7.2212661 21.711278 5.4341096 19.773438 3.8515625 C 17.85161 2.2820918 15.171048 1.0246397 12.076172 1.0039062 A 1.0001 1.0001 0 0 0 12.039062 1.0019531 C 12.025826 1.0019076 12.013252 1 12 1 z M 14.234375 3.4335938 C 15.868902 3.8364782 17.379151 4.4786632 18.507812 5.4003906 C 19.481061 6.1951989 20.083218 7.0433961 20.488281 7.78125 C 19.235097 7.5735473 18.089475 7.1955709 17.050781 6.4414062 C 16.083433 5.7390437 15.157369 4.6727385 14.234375 3.4335938 z M 12.345703 4.7441406 C 12.972207 5.8538653 13.565835 6.7802258 14.185547 8.1738281 C 14.835249 9.6348716 15.38962 11.153922 15.708984 12.359375 C 15.542841 12.31045 15.375691 12.279442 15.208984 12.271484 C 14.397163 12.232734 13.618283 12.455734 12.990234 12.894531 C 12.610498 13.15984 12.278466 13.486609 12 13.859375 C 11.721534 13.486608 11.389502 13.159841 11.009766 12.894531 C 10.598853 12.607441 10.126403 12.437 9.6230469 12.376953 C 11.104795 10.000236 11.813916 7.1563314 12.345703 4.7441406 z M 4.9863281 14.201172 C 5.0300005 14.198725 5.074134 14.198984 5.1191406 14.201172 C 5.4791941 14.218672 5.8845888 14.388921 6.375 14.78125 A 1.0001 1.0001 0 0 0 6.4140625 14.806641 A 1 1 0 0 0 6.4765625 14.849609 A 1.0001 1.0001 0 0 0 6.5390625 14.884766 A 1 1 0 0 0 6.578125 14.904297 A 1.0001 1.0001 0 0 0 6.6738281 14.943359 A 1 1 0 0 0 6.6992188 14.953125 A 1.0001 1.0001 0 0 0 7.0800781 14.996094 A 1 1 0 0 0 7.0898438 14.994141 A 1.0001 1.0001 0 0 0 7.1855469 14.982422 A 1 1 0 0 0 7.2265625 14.972656 A 1.0001 1.0001 0 0 0 7.3339844 14.941406 A 1.0001 1.0001 0 0 0 7.4316406 14.900391 A 1 1 0 0 0 7.4902344 14.871094 A 1.0001 1.0001 0 0 0 7.5332031 14.84375 A 1 1 0 0 0 7.59375 14.802734 A 1.0001 1.0001 0 0 0 7.625 14.78125 C 8.6058227 13.996592 9.246332 14.10275 9.8652344 14.535156 C 10.484137 14.967563 11 15.921932 11 17 C 11 19.220986 9.2209845 21 7 21 C 4.7790155 21 3 19.220986 3 17 C 3 15.921932 3.5158632 14.967563 4.1347656 14.535156 C 4.4055354 14.345979 4.6806216 14.218298 4.9863281 14.201172 z M 14.986328 14.201172 C 15.030001 14.198725 15.074134 14.198984 15.119141 14.201172 C 15.479194 14.218672 15.884589 14.388921 16.375 14.78125 A 1.0001 1.0001 0 0 0 16.392578 14.792969 A 1 1 0 0 0 16.445312 14.830078 A 1.0001 1.0001 0 0 0 16.505859 14.867188 A 1 1 0 0 0 16.546875 14.888672 A 1.0001 1.0001 0 0 0 16.625 14.925781 A 1 1 0 0 0 16.667969 14.941406 A 1.0001 1.0001 0 0 0 16.759766 14.970703 A 1 1 0 0 0 16.769531 14.972656 A 1.0001 1.0001 0 0 0 16.888672 14.994141 A 1 1 0 0 0 17.019531 15 A 1 1 0 0 0 17.054688 14.996094 A 1.0001 1.0001 0 0 0 17.400391 14.916016 A 1 1 0 0 0 17.505859 14.861328 A 1.0001 1.0001 0 0 0 17.517578 14.855469 A 1 1 0 0 0 17.625 14.78125 C 18.605822 13.996592 19.246332 14.10275 19.865234 14.535156 C 20.484134 14.967563 21 15.921932 21 17 C 21 19.220986 19.220985 21 17 21 C 14.779015 21 13 19.220986 13 17 C 13 15.921932 13.515863 14.967563 14.134766 14.535156 C 14.405535 14.345979 14.680621 14.218298 14.986328 14.201172 z "/>
</svg>
