<?xml version="1.0" encoding="UTF-8" standalone="no"?>
<svg xmlns="http://www.w3.org/2000/svg" xmlns:svg="http://www.w3.org/2000/svg" width="24" height="24" viewBox="0 0 24 24" fill="currentColor" tags="fruit,food" categories="food-beverage">
  <path d="M 12 1 A 1.0001 1.0001 0 0 0 11.90625 1.0136719 A 1.0001 1.0001 0 0 0 11.804688 1.0195312 A 1.0001 1.0001 0 0 0 11.757812 1.0371094 A 1.0001 1.0001 0 0 0 11.611328 1.0878906 A 1.0001 1.0001 0 0 0 11.488281 1.1503906 A 1.0001 1.0001 0 0 0 11.371094 1.234375 A 1.0001 1.0001 0 0 0 11.259766 1.3398438 A 1.0001 1.0001 0 0 0 11.171875 1.4570312 A 1.0001 1.0001 0 0 0 11.099609 1.5859375 A 1.0001 1.0001 0 0 0 11.050781 1.7167969 A 1.0001 1.0001 0 0 0 11.023438 1.7871094 C 10.342097 4.9059191 9.2560128 10.138396 6.7519531 12.835938 C 6.2423887 12.552033 5.7267245 12.296198 5.2089844 12.271484 C 4.3971645 12.232734 3.6182818 12.455736 2.9902344 12.894531 C 1.7341392 13.772123 1 15.318071 1 17 C 1 20.301859 3.6981438 23 7 23 C 9.0817907 23 10.923117 21.926833 12 20.306641 C 13.076883 21.926833 14.918209 23 17 23 C 20.301857 23 23 20.301859 23 17 C 23 15.318071 22.26586 13.772123 21.009766 12.894531 C 20.133682 12.282441 18.977495 12.198935 17.839844 12.59375 C 17.59609 11.331625 17.094223 9.9167604 16.492188 8.4746094 C 18.10891 9.4823622 19.939771 10 22 10 A 1.0001 1.0001 0 0 0 23 9 C 23 7.2212697 21.711275 5.4341065 19.773438 3.8515625 C 17.835601 2.2690185 15.127615 1 12 1 z M 14.234375 3.4335938 C 15.868899 3.8364773 17.379154 4.478665 18.507812 5.4003906 C 19.48106 6.1951973 20.083219 7.0433975 20.488281 7.78125 C 19.235101 7.5735477 18.089473 7.1955695 17.050781 6.4414062 C 16.083435 5.7390452 15.157367 4.672736 14.234375 3.4335938 z M 12.345703 4.7441406 C 12.972206 5.8538631 13.565836 6.7802286 14.185547 8.1738281 C 14.836393 9.6374443 15.387932 11.154863 15.707031 12.361328 C 15.541357 12.312639 15.375218 12.279419 15.208984 12.271484 C 14.397165 12.232734 13.618283 12.455736 12.990234 12.894531 C 12.609898 13.16026 12.278736 13.487825 12 13.861328 C 11.721264 13.487825 11.390102 13.16026 11.009766 12.894531 C 10.598574 12.607245 10.124835 12.436889 9.6210938 12.376953 C 11.103385 9.9999789 11.813822 7.15676 12.345703 4.7441406 z M 4.9863281 14.201172 C 5.0300004 14.198725 5.0741341 14.198984 5.1191406 14.201172 C 5.4791935 14.218672 5.8845898 14.388921 6.375 14.78125 A 1.0001 1.0001 0 0 0 6.4394531 14.818359 A 1 1 0 0 0 6.59375 14.902344 A 1.0001 1.0001 0 0 0 6.7285156 14.953125 A 1 1 0 0 0 6.9082031 14.984375 A 1.0001 1.0001 0 0 0 7.0507812 14.992188 A 1 1 0 0 0 7.2265625 14.960938 A 1.0001 1.0001 0 0 0 7.3691406 14.921875 A 1 1 0 0 0 7.5214844 14.837891 A 1.0001 1.0001 0 0 0 7.625 14.78125 C 8.6058207 13.996594 9.2463332 14.102751 9.8652344 14.535156 C 10.484135 14.967562 11 15.921934 11 17 C 11 19.220982 9.2209801 21 7 21 C 4.7790199 21 3 19.220982 3 17 C 3 15.921934 3.5158644 14.967562 4.1347656 14.535156 C 4.4055349 14.345979 4.6806221 14.218298 4.9863281 14.201172 z M 14.986328 14.201172 C 15.03 14.198725 15.074134 14.198984 15.119141 14.201172 C 15.479193 14.218672 15.884589 14.388921 16.375 14.78125 A 1.0001 1.0001 0 0 0 16.404297 14.796875 A 1 1 0 0 0 16.574219 14.892578 A 1.0001 1.0001 0 0 0 16.6875 14.947266 A 1 1 0 0 0 16.916016 14.986328 A 1.0001 1.0001 0 0 0 17.007812 14.998047 A 1 1 0 0 0 17.019531 15 A 1 1 0 0 0 17.322266 14.945312 A 1.0001 1.0001 0 0 0 17.339844 14.939453 A 1 1 0 0 0 17.617188 14.785156 A 1.0001 1.0001 0 0 0 17.625 14.78125 C 18.60582 13.996594 19.246334 14.102751 19.865234 14.535156 C 20.484133 14.967562 21 15.921934 21 17 C 21 19.220982 19.22098 21 17 21 C 14.77902 21 13 19.220982 13 17 C 13 15.921934 13.515864 14.967562 14.134766 14.535156 C 14.405535 14.345979 14.680622 14.218298 14.986328 14.201172 z "/>
</svg>
