<?xml version="1.0" encoding="UTF-8" standalone="no"?>
<svg xmlns="http://www.w3.org/2000/svg" xmlns:svg="http://www.w3.org/2000/svg" width="24" height="24" viewBox="0 0 24 24" fill="currentColor" tags="fruit,food" categories="food-beverage">
  <path d="M 12 1 A 1.0001 1.0001 0 0 0 11.90625 1.0136719 A 1.0001 1.0001 0 0 0 11.804688 1.0195312 A 1.0001 1.0001 0 0 0 11.757812 1.0371094 A 1.0001 1.0001 0 0 0 11.611328 1.0878906 A 1.0001 1.0001 0 0 0 11.488281 1.1503906 A 1.0001 1.0001 0 0 0 11.371094 1.234375 A 1.0001 1.0001 0 0 0 11.259766 1.3398438 A 1.0001 1.0001 0 0 0 11.171875 1.4570312 A 1.0001 1.0001 0 0 0 11.099609 1.5859375 A 1.0001 1.0001 0 0 0 11.050781 1.7167969 A 1.0001 1.0001 0 0 0 11.023438 1.7871094 C 10.342095 4.9059252 9.2560173 10.138391 6.7519531 12.835938 C 6.2423881 12.552032 5.7267255 12.296198 5.2089844 12.271484 C 4.3971629 12.232734 3.6182832 12.455734 2.9902344 12.894531 C 1.7341368 13.772125 1 15.318068 1 17 C 1 20.301865 3.6981372 23 7 23 C 9.0817946 23 10.923117 21.926834 12 20.306641 C 13.076883 21.926834 14.918205 23 17 23 C 20.301863 23 23 20.301865 23 17 C 23 15.318068 22.265863 13.772125 21.009766 12.894531 C 20.13368 12.28244 18.977496 12.198935 17.839844 12.59375 C 17.59609 11.331624 17.094224 9.9167622 16.492188 8.4746094 C 18.108912 9.4823639 19.939767 10 22 10 A 1.0001 1.0001 0 0 0 23 9 C 23 7.2212661 21.711278 5.4341096 19.773438 3.8515625 C 17.835597 2.2690154 15.127621 1 12 1 z M 14.234375 3.4335938 C 15.868902 3.8364782 17.379151 4.4786632 18.507812 5.4003906 C 19.481061 6.1951989 20.083218 7.0433961 20.488281 7.78125 C 19.235097 7.5735473 18.089475 7.1955709 17.050781 6.4414062 C 16.083433 5.7390437 15.157369 4.6727385 14.234375 3.4335938 z M 12.345703 4.7441406 C 12.972207 5.8538653 13.565835 6.7802258 14.185547 8.1738281 C 14.836394 9.637447 15.387932 11.154862 15.707031 12.361328 C 15.541357 12.312639 15.375218 12.279419 15.208984 12.271484 C 14.397163 12.232734 13.618283 12.455734 12.990234 12.894531 C 12.609897 13.16026 12.278737 13.487825 12 13.861328 C 11.721263 13.487825 11.390103 13.16026 11.009766 12.894531 C 10.598573 12.607245 10.124835 12.436889 9.6210938 12.376953 C 11.103386 9.999977 11.813821 7.1567648 12.345703 4.7441406 z M 4.9863281 14.201172 C 5.0300005 14.198725 5.074134 14.198984 5.1191406 14.201172 C 5.4791941 14.218672 5.8845888 14.388921 6.375 14.78125 A 1.0001 1.0001 0 0 0 6.4394531 14.818359 A 1 1 0 0 0 6.59375 14.902344 A 1.0001 1.0001 0 0 0 6.7285156 14.953125 A 1 1 0 0 0 6.9082031 14.984375 A 1.0001 1.0001 0 0 0 7.0507812 14.992188 A 1 1 0 0 0 7.2265625 14.960938 A 1.0001 1.0001 0 0 0 7.3691406 14.921875 A 1 1 0 0 0 7.5214844 14.837891 A 1.0001 1.0001 0 0 0 7.625 14.78125 C 8.6058227 13.996592 9.246332 14.10275 9.8652344 14.535156 C 10.484137 14.967563 11 15.921932 11 17 C 11 19.220986 9.2209845 21 7 21 C 4.7790155 21 3 19.220986 3 17 C 3 15.921932 3.5158632 14.967563 4.1347656 14.535156 C 4.4055354 14.345979 4.6806216 14.218298 4.9863281 14.201172 z M 14.986328 14.201172 C 15.030001 14.198725 15.074134 14.198984 15.119141 14.201172 C 15.479194 14.218672 15.884589 14.388921 16.375 14.78125 A 1.0001 1.0001 0 0 0 16.404297 14.796875 A 1 1 0 0 0 16.574219 14.892578 A 1.0001 1.0001 0 0 0 16.6875 14.947266 A 1 1 0 0 0 16.916016 14.986328 A 1.0001 1.0001 0 0 0 17.007812 14.998047 A 1 1 0 0 0 17.019531 15 A 1 1 0 0 0 17.322266 14.945312 A 1.0001 1.0001 0 0 0 17.339844 14.939453 A 1 1 0 0 0 17.617188 14.785156 A 1.0001 1.0001 0 0 0 17.625 14.78125 C 18.605822 13.996592 19.246332 14.10275 19.865234 14.535156 C 20.484134 14.967563 21 15.921932 21 17 C 21 19.220986 19.220985 21 17 21 C 14.779015 21 13 19.220986 13 17 C 13 15.921932 13.515863 14.967563 14.134766 14.535156 C 14.405535 14.345979 14.680621 14.218298 14.986328 14.201172 z "/>
</svg>
