<svg xmlns="http://www.w3.org/2000/svg" xmlns:svg="http://www.w3.org/2000/svg" width="24" height="24" viewBox="0 0 24 24" fill="currentColor" tags="ruler,crown,piece,board game,stalemate" categories="gaming,emoji">
  <path d="M 12 1 C 10.35499 1 9 2.3549904 9 4 C 9 5.0271257 9.5288956 5.9406716 10.326172 6.4824219 L 9 11 L 6.7832031 8.1152344 C 6.9233201 7.7698985 7 7.3929489 7 7 C 7 5.3549904 5.6450096 4 4 4 C 2.3549904 4 1 5.3549904 1 7 C 1 8.3851114 1.9605284 9.5642171 3.2460938 9.9023438 L 5.6191406 17.023438 C 4.1505014 17.212703 3 18.483569 3 20 L 3 21 C 3 22.092725 3.9072751 23 5 23 L 19 23 C 20.092725 23 21 22.092725 21 21 L 21 20 C 21 18.483569 19.849499 17.212703 18.380859 17.023438 L 20.753906 9.9023438 C 22.039472 9.564217 23 8.3851114 23 7 C 23 5.3549904 21.64501 4 20 4 C 18.35499 4 17 5.3549904 17 7 C 17 7.3934838 17.078271 7.7695132 17.21875 8.1152344 L 15 11 L 13.673828 6.4824219 C 14.471104 5.9406716 15 5.0271257 15 4 C 15 2.3549904 13.64501 1 12 1 z M 12 3 C 12.564129 3 13 3.4358706 13 4 C 13 4.5641294 12.564129 5 12 5 C 11.924773 5 11.851186 4.9913346 11.78125 4.9765625 A 1 1 0 0 0 11.732422 4.9648438 C 11.304027 4.8515335 11 4.4708267 11 4 C 11 3.4358706 11.435871 3 12 3 z M 4 6 C 4.5641294 6 5 6.4358706 5 7 C 5 7.2048178 4.9419868 7.3925463 4.8417969 7.5488281 A 1 1 0 0 0 4.7539062 7.6679688 C 4.5779986 7.8673165 4.3203743 7.9926056 4.0273438 8 A 1 1 0 0 0 3.9726562 8 C 3.4217335 7.9862874 3 7.5550591 3 7 C 3 6.4358706 3.4358706 6 4 6 z M 20 6 C 20.564129 6 21 6.4358706 21 7 C 21 7.5550589 20.578266 7.9862871 20.027344 8 A 1 1 0 0 0 19.972656 8 C 19.679626 7.9926054 19.422001 7.8673165 19.246094 7.6679688 A 1 1 0 0 0 19.158203 7.5488281 C 19.058013 7.3925462 19 7.204818 19 7 C 19 6.4358706 19.435871 6 20 6 z M 12 7.8808594 L 13.082031 11.564453 A 1.0001 1.0001 0 0 0 13.082031 11.566406 C 13.52761 13.07246 15.6213 13.465127 16.582031 12.222656 A 1.0001 1.0001 0 0 0 16.583984 12.220703 L 18.570312 9.6347656 L 18.572266 9.6347656 C 18.617074 9.6593105 18.662858 9.6827928 18.708984 9.7050781 L 16.279297 17 L 7.7207031 17 L 5.2910156 9.7050781 C 5.3371452 9.6827914 5.3829229 9.6593121 5.4277344 9.6347656 L 5.4296875 9.6347656 L 7.4160156 12.220703 A 1.0001 1.0001 0 0 0 7.4179688 12.224609 C 8.3793283 13.466995 10.473436 13.0731 10.917969 11.566406 A 1.0001 1.0001 0 0 0 10.917969 11.564453 L 12 7.8808594 z M 6 19 L 18 19 C 18.564129 19 19 19.435871 19 20 L 19 21 L 5 21 L 5 20 C 5 19.435871 5.4358706 19 6 19 z "/>
</svg>
