<svg xmlns="http://www.w3.org/2000/svg" xmlns:svg="http://www.w3.org/2000/svg" width="24" height="24" viewBox="0 0 24 24" fill="currentColor" tags="mitre,miter,piece,board game,religion" categories="gaming,emoji">
  <path d="M 9 1 A 1 1 0 0 0 8 2 A 1 1 0 0 0 9 3 L 9.6738281 3 C 7.3935496 5.5848714 5 9.1848835 5 13.076172 C 5 14.659125 5.5131019 16.035404 6.2988281 17.083984 C 4.9864676 17.40305 4 18.595712 4 20 L 4 21 C 4 22.092725 4.9072751 23 6 23 L 18 23 C 19.092725 23 20 22.092725 20 21 L 20 20 C 20 18.595712 19.013533 17.40305 17.701172 17.083984 C 18.486898 16.035404 19 14.659125 19 13.076172 C 19 9.1842414 16.606394 5.584643 14.326172 3 L 15 3 A 1 1 0 0 0 16 2 A 1 1 0 0 0 15 1 L 9 1 z M 12 3.5839844 C 12.897385 4.5380741 13.854048 5.6699653 14.6875 6.8984375 L 12.792969 8.7929688 A 1 1 0 0 0 12.792969 10.207031 A 1 1 0 0 0 14.207031 10.207031 L 15.75 8.6640625 C 16.501377 10.100501 17 11.607771 17 13.076172 C 17 15.02835 15.81582 16.483755 14.783203 17 L 9.2167969 17 C 8.1841799 16.483755 7 15.02835 7 13.076172 C 7 9.662568 9.6946709 6.0351519 12 3.5839844 z M 7 19 L 17 19 C 17.564129 19 18 19.435871 18 20 L 18 21 L 6 21 L 6 20 C 6 19.435871 6.4358706 19 7 19 z "/>
</svg>
