<svg xmlns="http://www.w3.org/2000/svg" xmlns:svg="http://www.w3.org/2000/svg" width="24" height="24" viewBox="0 0 24 24" fill="currentColor" tags="castle,piece,board game" categories="gaming,emoji">
  <path d="M 6 1 A 1 1 0 0 0 5 2 L 5 7 C 5 8.2597531 5.7952581 9.3497157 6.90625 9.7910156 L 6.0878906 17.142578 C 4.8821793 17.532322 4 18.672087 4 20 L 4 21 C 4 22.092725 4.9072751 23 6 23 L 18 23 C 19.092725 23 20 22.092725 20 21 L 20 20 C 20 18.672087 19.117821 17.532322 17.912109 17.142578 L 17.09375 9.7910156 C 18.204742 9.3497156 19 8.259753 19 7 L 19 2 A 1 1 0 0 0 18 1 A 1 1 0 0 0 17 2 L 17 3 L 15 3 L 15 2 A 1 1 0 0 0 14 1 A 1 1 0 0 0 13 2 L 13 3 L 11 3 L 11 2 A 1 1 0 0 0 10 1 A 1 1 0 0 0 9 2 L 9 3 L 7 3 L 7 2 A 1 1 0 0 0 6 1 z M 7 5 L 17 5 L 17 7 C 17 7.5573124 16.573736 7.9896374 16.019531 8 A 1 1 0 0 0 16 8 L 8.0273438 8 A 1 1 0 0 0 8 8 C 7.9931833 8 7.9872474 8.0001267 7.9804688 8 C 7.4262626 7.9896379 7 7.5573127 7 7 L 7 5 z M 8.8945312 10 L 15.105469 10 L 15.882812 17 L 8.1171875 17 L 8.8945312 10 z M 6.9804688 19 C 6.9871425 18.999877 6.9932894 19 7 19 A 1 1 0 0 0 7.0292969 19 L 17 19 A 1 1 0 0 0 17.019531 19 C 17.573891 19.010204 18 19.442582 18 20 L 18 21 L 6 21 L 6 20 C 6 19.442582 6.4261081 19.010203 6.9804688 19 z "/>
</svg>
