<svg xmlns="http://www.w3.org/2000/svg" xmlns:svg="http://www.w3.org/2000/svg" width="24" height="24" viewBox="0 0 24 24" fill="currentColor" tags="ruler,crown,piece,board game,stalemate" categories="gaming,emoji">
  <path d="M 12 1 A 1 1 0 0 0 11 2 L 11 3 L 10 3 A 1 1 0 0 0 9 4 A 1 1 0 0 0 10 5 L 11 5 L 11 6.8945312 C 10.049786 6.3162266 9.0530444 6 7.9492188 6 A 1.0001 1.0001 0 0 0 7.9394531 6 C 4.6606806 6.0327894 1.999836 8.7210635 2 12 C 2 14.295965 3.3303019 16.016683 4.625 17.337891 C 3.6636771 17.840314 3 18.84944 3 20 L 3 21 C 3 22.092725 3.9072751 23 5 23 L 19 23 C 20.092725 23 21 22.092725 21 21 L 21 20 C 21 18.848845 20.337129 17.84005 19.375 17.337891 C 20.661237 16.013743 22 14.295317 22 12 C 22.000164 8.7210635 19.339319 6.0327894 16.060547 6 A 1.0001 1.0001 0 0 0 16.050781 6 C 14.946981 6 13.950212 6.3162268 13 6.8945312 L 13 5 L 14 5 A 1 1 0 0 0 15 4 A 1 1 0 0 0 14 3 L 13 3 L 13 2 A 1 1 0 0 0 12 1 z M 7.9550781 8.0019531 C 9.3395091 8.0029091 10.054368 8.2751394 11.28125 9.5117188 C 11.284168 9.5146601 11.286138 9.5185322 11.289062 9.5214844 A 1.0001 1.0001 0 0 0 11.378906 9.6015625 A 1.0001 1.0001 0 0 0 11.490234 9.6777344 A 1.0001 1.0001 0 0 0 11.552734 9.7089844 A 1 1 0 0 0 11.609375 9.7382812 A 1.0001 1.0001 0 0 0 11.615234 9.7402344 A 1 1 0 0 0 11.740234 9.7832031 A 1 1 0 0 0 11.867188 9.8085938 A 1.0001 1.0001 0 0 0 12.259766 9.7832031 A 1 1 0 0 0 12.384766 9.7402344 A 1.0001 1.0001 0 0 0 12.447266 9.7089844 A 1 1 0 0 0 12.509766 9.6777344 A 1.0001 1.0001 0 0 0 12.621094 9.6015625 A 1.0001 1.0001 0 0 0 12.710938 9.5214844 C 12.71385 9.5185443 12.715844 9.514648 12.71875 9.5117188 C 13.945653 8.2751085 14.660477 8.0029091 16.044922 8.0019531 C 18.246899 8.0273681 20.00011 9.7970417 20 12 C 20 13.646841 18.892749 15.005559 17.595703 16.289062 A 1.0001 1.0001 0 0 0 17.59375 16.292969 L 16.886719 17 L 7.1132812 17 L 6.40625 16.292969 A 1.0001 1.0001 0 0 0 6.3984375 16.285156 C 5.0980052 15.015538 4 13.659378 4 12 C 3.9998898 9.7970417 5.7531013 8.0273681 7.9550781 8.0019531 z M 6 19 L 18 19 C 18.564129 19 19 19.435871 19 20 L 19 21 L 5 21 L 5 20 C 5 19.435871 5.4358706 19 6 19 z "/>
</svg>
