<svg xmlns="http://www.w3.org/2000/svg" xmlns:svg="http://www.w3.org/2000/svg" width="24" height="24" viewBox="0 0 24 24" fill="currentColor" tags="piece,board game" categories="gaming,emoji">
  <path d="M 12 1 C 9.2504209 1 7 3.2504209 7 6 C 7 7.1230495 7.3762822 8.1628262 8.0078125 9 L 7 9 A 1 1 0 0 0 6 10 A 1 1 0 0 0 7 11 L 8.2949219 11 L 7.1699219 17 L 7 17 C 5.3549904 17 4 18.35499 4 20 L 4 21 C 4 22.092725 4.9072751 23 6 23 L 18 23 C 19.092725 23 20 22.092725 20 21 L 20 20 C 20 18.35499 18.64501 17 17 17 L 16.830078 17 L 15.705078 11 L 17 11 A 1 1 0 0 0 18 10 A 1 1 0 0 0 17 9 L 15.992188 9 C 16.623718 8.1628262 17 7.1230495 17 6 C 17 3.2504209 14.749579 1 12 1 z M 12 3 C 13.668699 3 15 4.3313011 15 6 C 15 7.6686989 13.668699 9 12 9 C 10.331301 9 9 7.6686989 9 6 C 9 4.3313011 10.331301 3 12 3 z M 10.330078 11 L 12 11 L 13.669922 11 L 14.794922 17 L 9.2050781 17 L 10.330078 11 z M 7 19 L 17 19 C 17.564129 19 18 19.435871 18 20 L 18 21 L 6 21 L 6 20 C 6 19.435871 6.4358706 19 7 19 z "/>
</svg>
