<svg xmlns="http://www.w3.org/2000/svg" xmlns:svg="http://www.w3.org/2000/svg" width="24" height="24" viewBox="0 0 24 24" fill="currentColor" tags="piece,horse,board game" categories="gaming,emoji">
  <path d="M 6.6347656 1 C 5.0098593 1.0006091 4.057716 3.0307596 5.0976562 4.2792969 A 1.0001 1.0001 0 0 0 5.0996094 4.2792969 L 5.8496094 5.1816406 L 3.7519531 10.431641 C 3.1794925 11.864415 3.8003602 13.519157 5.1757812 14.21875 A 1.0001 1.0001 0 0 0 5.1777344 14.220703 L 7.1855469 15.238281 L 6.328125 17.076172 C 5.0020235 17.385113 4 18.585878 4 20 L 4 21 C 4 22.092725 4.9072751 23 6 23 L 18 23 C 19.092725 23 20 22.092725 20 21 L 20 20 C 20 18.710358 19.168068 17.599686 18.015625 17.179688 C 18.947382 15.195367 20 12.442716 20 9 C 20 8.0099923 19.819538 7.0619546 19.488281 6.1855469 A 1 1 0 0 0 19.427734 6.0332031 C 18.935584 4.80765 18.148015 3.7306808 17.154297 2.890625 A 1 1 0 0 0 17.132812 2.8671875 A 1 1 0 0 0 16.951172 2.7246094 C 15.587538 1.6458957 13.866983 1 12 1 L 6.6347656 1 z M 6.6347656 3 L 12 3 C 13.038958 3 14.015076 3.2603269 14.865234 3.7207031 L 14.292969 4.2929688 A 1 1 0 0 0 14.292969 5.7070312 A 1 1 0 0 0 15.707031 5.7070312 L 16.449219 4.9648438 C 16.798391 5.3498907 17.09774 5.7810615 17.337891 6.2480469 L 16.292969 7.2929688 A 1 1 0 0 0 16.292969 8.7070312 A 1 1 0 0 0 17.707031 8.7070312 L 17.974609 8.4394531 C 17.991519 8.6238978 18 8.8109766 18 9 C 18 12.416508 16.842969 15.046742 15.880859 17 L 8.5703125 17 L 9.3925781 15.236328 A 1 1 0 0 0 9.4199219 15.177734 L 10.619141 12.607422 A 1 1 0 0 0 10.136719 11.279297 A 1 1 0 0 0 9.3710938 11.246094 A 1 1 0 0 0 8.8066406 11.761719 L 8.03125 13.425781 L 6.0839844 12.4375 L 6.0820312 12.435547 C 5.6147053 12.196256 5.4121299 11.661626 5.6074219 11.173828 A 1.0001 1.0001 0 0 0 5.609375 11.173828 L 7.9277344 5.3710938 A 1.0001 1.0001 0 0 0 7.7675781 4.359375 L 6.6347656 3 z M 7 19 L 17 19 C 17.564129 19 18 19.435871 18 20 L 18 21 L 6 21 L 6 20 C 6 19.435871 6.4358706 19 7 19 z "/>
</svg>
