<svg xmlns="http://www.w3.org/2000/svg" xmlns:svg="http://www.w3.org/2000/svg" width="24" height="24" viewBox="0 0 24 24" fill="currentColor" tags="forward,ahead,faster,speed,boost" categories="arrows,gaming">
  <path d="M 12 5 A 1.0001 1.0001 0 0 0 11.292969 5.2929688 L 6.2929688 10.292969 A 1 1 0 0 0 6.2929688 11.707031 A 1 1 0 0 0 7.7070312 11.707031 L 12 7.4140625 L 16.292969 11.707031 A 1 1 0 0 0 17.707031 11.707031 A 1 1 0 0 0 17.707031 10.292969 L 12.707031 5.2929688 A 1.0001 1.0001 0 0 0 12 5 z M 12 12 A 1.0001 1.0001 0 0 0 11.292969 12.292969 L 6.2929688 17.292969 A 1 1 0 0 0 6.2929688 18.707031 A 1 1 0 0 0 7.7070312 18.707031 L 12 14.414062 L 16.292969 18.707031 A 1 1 0 0 0 17.707031 18.707031 A 1 1 0 0 0 17.707031 17.292969 L 12.707031 12.292969 A 1.0001 1.0001 0 0 0 12 12 z "/>
</svg>
