<?xml version="1.0" encoding="UTF-8" standalone="no"?>
<svg xmlns="http://www.w3.org/2000/svg" xmlns:svg="http://www.w3.org/2000/svg" width="24" height="24" viewBox="0 0 24 24" fill="currentColor" tags="turn,corner" categories="arrows,navigation,gaming">
  <path d="M 11 6 A 1 1 0 0 0 10.292969 6.2929688 L 5.2929688 11.292969 A 1.0001 1.0001 0 0 0 5.2929688 12.707031 L 10.292969 17.707031 A 1 1 0 0 0 11.707031 17.707031 A 1 1 0 0 0 11.707031 16.292969 L 7.4140625 12 L 11.707031 7.7070312 A 1 1 0 0 0 11.707031 6.2929688 A 1 1 0 0 0 11 6 z M 17.84375 6.0117188 A 1 1 0 0 0 17.292969 6.2929688 L 12.292969 11.292969 A 1.0001 1.0001 0 0 0 12.292969 12.707031 L 17.292969 17.707031 A 1 1 0 0 0 18.707031 17.707031 A 1 1 0 0 0 18.707031 16.292969 L 14.414062 12 L 18.707031 7.7070312 A 1 1 0 0 0 18.707031 6.2929688 A 1 1 0 0 0 17.84375 6.0117188 z "/>
</svg>
