<svg xmlns="http://www.w3.org/2000/svg" xmlns:svg="http://www.w3.org/2000/svg" width="24" height="24" viewBox="0 0 24 24" fill="currentColor" tags="skip,next,music" categories="arrows,multimedia">
  <path d="M 7 5 A 1 1 0 0 0 6.2929688 5.2929688 A 1 1 0 0 0 6.2929688 6.7070312 L 11.585938 12 L 6.2929688 17.292969 A 1 1 0 0 0 6.2929688 18.707031 A 1 1 0 0 0 7.7070312 18.707031 L 13.707031 12.707031 A 1.0001 1.0001 0 0 0 13.707031 11.292969 L 7.7070312 5.2929688 A 1 1 0 0 0 7 5 z M 17 5 A 1 1 0 0 0 16 6 L 16 18 A 1 1 0 0 0 17 19 A 1 1 0 0 0 18 18 L 18 6 A 1 1 0 0 0 17 5 z "/>
</svg>
