<?xml version="1.0" encoding="UTF-8" standalone="no"?>
<svg xmlns="http://www.w3.org/2000/svg" xmlns:svg="http://www.w3.org/2000/svg" width="24" height="24" viewBox="0 0 24 24" fill="currentColor" tags="internet,network,connection,cable,lan,port,router,switch,hub,modem,web,online,networking,communication,socket,plug,slot,controller,connector,interface,console,signal,data,input,output" categories="communication,devices,multimedia,gaming">
  <path d="M 6 7 A 1 1 0 0 0 5.2929688 7.2929688 L 1.2929688 11.292969 A 1.0001 1.0001 0 0 0 1.2929688 12.707031 L 5.2929688 16.707031 A 1 1 0 0 0 6.7070312 16.707031 A 1 1 0 0 0 6.7070312 15.292969 L 3.4140625 12 L 6.7070312 8.7070312 A 1 1 0 0 0 6.7070312 7.2929688 A 1 1 0 0 0 6 7 z M 18 7 A 1 1 0 0 0 17.292969 7.2929688 A 1 1 0 0 0 17.292969 8.7070312 L 20.585938 12 L 17.292969 15.292969 A 1 1 0 0 0 17.292969 16.707031 A 1 1 0 0 0 18.707031 16.707031 L 22.707031 12.707031 A 1.0001 1.0001 0 0 0 22.707031 11.292969 L 18.707031 7.2929688 A 1 1 0 0 0 18 7 z M 8 11 A 1 1 0 0 0 7 12 A 1 1 0 0 0 8 13 L 8.0097656 13 A 1 1 0 0 0 9.0097656 12 A 1 1 0 0 0 8.0097656 11 L 8 11 z M 12 11 A 1 1 0 0 0 11 12 A 1 1 0 0 0 12 13 L 12.009766 13 A 1 1 0 0 0 13.009766 12 A 1 1 0 0 0 12.009766 11 L 12 11 z M 16 11 A 1 1 0 0 0 15 12 A 1 1 0 0 0 16 13 L 16.009766 13 A 1 1 0 0 0 17.009766 12 A 1 1 0 0 0 16.009766 11 L 16 11 z "/>
</svg>
