<?xml version="1.0" encoding="UTF-8" standalone="no"?>
<svg xmlns="http://www.w3.org/2000/svg" xmlns:svg="http://www.w3.org/2000/svg" width="24" height="24" viewBox="0 0 24 24" fill="currentColor" tags="caret,ahead,menu,^" categories="arrows,navigation,shapes">
  <path d="M 12 1 C 5.9367246 1 1 5.9367246 1 12 C 1 18.063276 5.9367246 23 12 23 C 18.063276 23 23 18.063276 23 12 C 23 5.9367246 18.063276 1 12 1 z M 12 3 C 16.982397 3 21 7.0176026 21 12 C 21 16.982397 16.982397 21 12 21 C 7.0176026 21 3 16.982397 3 12 C 3 7.0176026 7.0176026 3 12 3 z M 12 9 A 1.0001 1.0001 0 0 0 11.292969 9.2929688 L 7.2929688 13.292969 A 1 1 0 0 0 7.2929688 14.707031 A 1 1 0 0 0 8.7070312 14.707031 L 12 11.414062 L 15.292969 14.707031 A 1 1 0 0 0 16.707031 14.707031 A 1 1 0 0 0 16.707031 13.292969 L 12.707031 9.2929688 A 1.0001 1.0001 0 0 0 12 9 z "/>
</svg>
