<?xml version="1.0" encoding="UTF-8" standalone="no"?>
<svg xmlns="http://www.w3.org/2000/svg" xmlns:svg="http://www.w3.org/2000/svg" width="24" height="24" viewBox="0 0 24 24" fill="currentColor" tags="expand,unfold,vertical" categories="arrows">
  <path d="M 12 3 A 1.0001 1.0001 0 0 0 11.292969 3.2929688 L 6.2929688 8.2929688 A 1 1 0 0 0 6.2929688 9.7070312 A 1 1 0 0 0 7.7070312 9.7070312 L 12 5.4140625 L 16.292969 9.7070312 A 1 1 0 0 0 17.707031 9.7070312 A 1 1 0 0 0 17.707031 8.2929688 L 12.707031 3.2929688 A 1.0001 1.0001 0 0 0 12 3 z M 7 14 A 1 1 0 0 0 6.2929688 14.292969 A 1 1 0 0 0 6.2929688 15.707031 L 11.292969 20.707031 A 1.0001 1.0001 0 0 0 12.707031 20.707031 L 17.707031 15.707031 A 1 1 0 0 0 17.707031 14.292969 A 1 1 0 0 0 16.292969 14.292969 L 12 18.585938 L 7.7070312 14.292969 A 1 1 0 0 0 7 14 z "/>
</svg>
