<?xml version="1.0" encoding="UTF-8" standalone="no"?>
<svg xmlns="http://www.w3.org/2000/svg" xmlns:svg="http://www.w3.org/2000/svg" width="24" height="24" viewBox="0 0 24 24" fill="currentColor" tags="browser,logo" categories="brands">
  <path d="M 12 1 C 8.4328274 1 5.2555743 2.7080477 3.2441406 5.3496094 A 1 1 0 0 0 3.0644531 5.5917969 C 1.7652682 7.397719 1 9.6115561 1 12 C 1 17.622804 5.2449041 22.277304 10.697266 22.923828 A 1 1 0 0 0 10.839844 22.939453 C 11.221235 22.979658 11.608171 23 12 23 C 18.063288 23 23 18.063288 23 12 C 23 10.474771 22.68717 9.0212237 22.123047 7.6992188 A 1 1 0 0 0 22.037109 7.5019531 C 20.313964 3.6729668 16.462324 1 12 1 z M 12 3 C 15.130105 3 17.878633 4.5856425 19.490234 7 L 12 7 A 1 1 0 0 0 11.853516 7.0117188 C 9.8633656 7.0706643 8.1528535 8.2993427 7.4042969 10.037109 L 5.15625 6.1464844 C 6.8050178 4.2192349 9.2559728 3 12 3 z M 3.9238281 8.0136719 L 7.6738281 14.5 A 1 1 0 0 0 7.6972656 14.537109 C 8.5703422 16.007998 10.174898 17 12 17 C 12.201291 17 12.400449 16.988279 12.595703 16.964844 L 10.353516 20.851562 C 6.1616127 20.081158 3 16.419743 3 12 C 3 10.567257 3.331982 9.2142608 3.9238281 8.0136719 z M 12 9 C 13.668699 9 15 10.331301 15 12 C 15 12.508329 14.877188 12.98473 14.658203 13.402344 A 1 1 0 0 0 14.59375 13.5 L 14.492188 13.675781 C 14.485887 13.685189 14.481014 13.695748 14.474609 13.705078 C 13.935998 14.489741 13.03307 15 12 15 C 10.923821 15 9.9878982 14.446304 9.4589844 13.605469 A 1 1 0 0 0 9.40625 13.5 L 9.2929688 13.304688 C 9.2926052 13.303927 9.2913786 13.303496 9.2910156 13.302734 C 9.1037659 12.909952 9 12.46766 9 12 C 9 10.331301 10.331301 9 12 9 z M 15.992188 9 L 20.490234 9 C 20.820116 9.9377394 21 10.947336 21 12 C 21 16.785071 17.294964 20.679427 12.587891 20.980469 L 16.326172 14.5 A 1 1 0 0 0 16.34375 14.46875 C 16.761045 13.739394 17 12.895943 17 12 C 17 10.87695 16.623718 9.8371738 15.992188 9 z "/>
</svg>
