<?xml version="1.0" encoding="UTF-8" standalone="no"?>
<svg xmlns="http://www.w3.org/2000/svg" xmlns:svg="http://www.w3.org/2000/svg" width="24" height="24" viewBox="0 0 24 24" fill="currentColor" tags="browser,logo" categories="brands">
  <path d="M 12 1 C 8.4363395 1 5.2636975 2.7066181 3.2519531 5.34375 A 1 1 0 0 0 3.0722656 5.5878906 C 1.7703368 7.3949586 1 9.6087909 1 12 C 1 18.063276 5.9367246 23 12 23 C 18.063276 23 23 18.063276 23 12 C 23 10.472081 22.687104 9.0152773 22.121094 7.6914062 A 1 1 0 0 0 22.029297 7.4921875 C 20.303443 3.669781 16.457536 1 12 1 z M 12 3 C 15.129784 3 17.878567 4.5860544 19.490234 7 L 12 7 C 9.9461942 7 8.1712557 8.2557582 7.4042969 10.037109 L 5.15625 6.1484375 C 6.8050279 4.2203426 9.2552836 3 12 3 z M 3.9257812 8.015625 L 7.6738281 14.5 A 1 1 0 0 0 7.6816406 14.509766 C 8.550958 15.995804 10.163533 17 12 17 C 12.201627 17 12.400135 16.986403 12.595703 16.962891 L 10.355469 20.847656 C 6.1633416 20.077437 3 16.419897 3 12 C 3 10.567246 3.3339244 9.2162213 3.9257812 8.015625 z M 12 9 C 13.668695 9 15 10.331305 15 12 C 15 12.52813 14.866057 13.022143 14.630859 13.451172 A 1 1 0 0 0 14.59375 13.5 L 14.490234 13.681641 L 14.484375 13.689453 C 13.946977 14.482315 13.039411 15 12 15 C 10.917089 15 9.97826 14.437592 9.4511719 13.587891 A 1 1 0 0 0 9.40625 13.5 L 9.2929688 13.306641 C 9.1044644 12.912809 9 12.469321 9 12 C 9 10.331305 10.331305 9 12 9 z M 15.992188 9 L 20.488281 9 C 20.818262 9.9378639 21 10.947172 21 12 C 21 16.78477 17.294546 20.677054 12.587891 20.978516 L 16.326172 14.5 A 1 1 0 0 0 16.339844 14.472656 C 16.758791 13.742231 17 12.897852 17 12 C 17 10.876594 16.624083 9.8373112 15.992188 9 z "/>
</svg>
