<?xml version="1.0" encoding="UTF-8" standalone="no"?>
<svg xmlns="http://www.w3.org/2000/svg" xmlns:svg="http://www.w3.org/2000/svg" width="24" height="24" viewBox="0 0 24 24" fill="currentColor" tags="browser,logo" categories="brands">
  <path d="M 12 1 C 8.4363324 1 5.2636984 2.7066159 3.2519531 5.34375 A 1 1 0 0 0 3.0722656 5.5878906 C 1.7703362 7.3949601 1 9.6087861 1 12 C 1 18.063288 5.9367124 23 12 23 C 18.063288 23 23 18.063288 23 12 C 23 10.472078 22.687104 9.015279 22.121094 7.6914062 A 1 1 0 0 0 22.029297 7.4921875 C 20.303443 3.6697765 16.457545 1 12 1 z M 12 3 C 15.12979 3 17.878566 4.5860522 19.490234 7 L 12 7 C 9.9461901 7 8.1712558 8.2557561 7.4042969 10.037109 L 5.15625 6.1484375 C 6.8050287 4.2203412 9.2552781 3 12 3 z M 3.9257812 8.015625 L 7.6738281 14.5 A 1 1 0 0 0 7.6816406 14.509766 C 8.5509583 15.995806 10.163529 17 12 17 C 12.201628 17 12.400134 16.986403 12.595703 16.962891 L 10.355469 20.847656 C 6.1633348 20.077437 3 16.419906 3 12 C 3 10.567243 3.3339243 9.2162226 3.9257812 8.015625 z M 12 9 C 13.668699 9 15 10.331301 15 12 C 15 12.528131 14.866057 13.022143 14.630859 13.451172 A 1 1 0 0 0 14.59375 13.5 L 14.490234 13.681641 L 14.484375 13.689453 C 13.946977 14.482315 13.039414 15 12 15 C 10.917087 15 9.9782601 14.437593 9.4511719 13.587891 A 1 1 0 0 0 9.40625 13.5 L 9.2929688 13.306641 C 9.1044644 12.912808 9 12.469322 9 12 C 9 10.331301 10.331301 9 12 9 z M 15.992188 9 L 20.488281 9 C 20.818262 9.9378651 21 10.94717 21 12 C 21 16.78478 17.294555 20.677054 12.587891 20.978516 L 16.326172 14.5 A 1 1 0 0 0 16.339844 14.472656 C 16.758791 13.74223 17 12.897854 17 12 C 17 10.876592 16.624083 9.8373118 15.992188 9 z "/>
</svg>
