<?xml version="1.0" encoding="UTF-8" standalone="no"?>
<svg xmlns="http://www.w3.org/2000/svg" xmlns:svg="http://www.w3.org/2000/svg" width="24" height="24" viewBox="0 0 24 24" fill="currentColor" tags="temple,building" categories="buildings,navigation">
  <path d="M 12 1.2363281 C 11.540362 1.2363281 11.079928 1.3419978 10.658203 1.5527344 L 6.1054688 3.8300781 C 5.4298968 4.1676623 5.0004033 4.8619654 5 5.6171875 L 5 6.3828125 L 2.1054688 7.8300781 C 1.4298967 8.1676623 1.0004033 8.8619654 1 9.6171875 L 1 20 C 1 21.64501 2.3549904 23 4 23 L 6 23 L 10 23 L 14 23 L 18 23 L 20 23 C 21.64501 23 23 21.64501 23 20 L 23 9.6171875 C 22.999597 8.8619654 22.570103 8.1676623 21.894531 7.8300781 L 19 6.3828125 L 19 5.6171875 C 18.999597 4.8619654 18.570103 4.1676623 17.894531 3.8300781 L 13.341797 1.5527344 C 12.920072 1.3419978 12.459638 1.2363281 12 1.2363281 z M 12 3.2363281 C 12.153085 3.2363281 12.306169 3.2712906 12.447266 3.3417969 L 17 5.6191406 L 17 6.9824219 A 1 1 0 0 0 17 7.0175781 L 17 21 L 15 21 L 15 18 C 15 17.083334 14.620244 16.268559 14.039062 15.751953 C 13.45788 15.235347 12.722222 15 12 15 C 11.277778 15 10.542119 15.235347 9.9609375 15.751953 C 9.3797556 16.268559 9 17.083334 9 18 L 9 21 L 7 21 L 7 7.0175781 A 1 1 0 0 0 7 6.9824219 L 7 5.6191406 L 11.552734 3.3417969 C 11.693831 3.2712906 11.846915 3.2363281 12 3.2363281 z M 12 6 A 1 1 0 0 0 11 7 L 11 8 L 10 8 A 1 1 0 0 0 9 9 A 1 1 0 0 0 10 10 L 11 10 L 11 12 A 1 1 0 0 0 12 13 A 1 1 0 0 0 13 12 L 13 10 L 14 10 A 1 1 0 0 0 15 9 A 1 1 0 0 0 14 8 L 13 8 L 13 7 A 1 1 0 0 0 12 6 z M 5 8.6191406 L 5 21 L 4 21 C 3.4358706 21 3 20.564129 3 20 L 3 9.6191406 L 5 8.6191406 z M 19 8.6191406 L 21 9.6191406 L 21 20 C 21 20.564129 20.564129 21 20 21 L 19 21 L 19 8.6191406 z M 12 17 C 12.277778 17 12.542119 17.09799 12.710938 17.248047 C 12.879755 17.398107 13 17.583334 13 18 L 13 21 L 11 21 L 11 18 C 11 17.583334 11.120244 17.398107 11.289062 17.248047 C 11.45788 17.097986 11.722222 17 12 17 z "/>
</svg>
