<?xml version="1.0" encoding="UTF-8" standalone="no"?>
<svg xmlns="http://www.w3.org/2000/svg" xmlns:svg="http://www.w3.org/2000/svg" width="24" height="24" viewBox="0 0 24 24" fill="currentColor" tags="temple,building" categories="buildings,maps">
  <path d="M 11.845703 1.0117188 A 1.0001 1.0001 0 0 0 11.552734 1.1054688 L 5.5527344 4.1054688 A 1.0001 1.0001 0 0 0 5 5 L 5 6.3828125 L 1.5527344 8.1054688 A 1.0001 1.0001 0 0 0 1 9 L 1 20 C 1 21.645006 2.3549936 23 4 23 L 20 23 C 21.645006 23 23 21.645006 23 20 L 23 9 A 1.0001 1.0001 0 0 0 22.447266 8.1054688 L 19 6.3828125 L 19 5 A 1.0001 1.0001 0 0 0 18.447266 4.1054688 L 12.447266 1.1054688 A 1.0001 1.0001 0 0 0 11.845703 1.0117188 z M 12 3.1171875 L 17 5.6171875 L 17 21 L 15 21 L 15 18 C 15 16.354994 13.645006 15 12 15 C 10.354994 15 9 16.354994 9 18 L 9 21 L 7 21 L 7 5.6171875 L 12 3.1171875 z M 12 6 A 1 1 0 0 0 11 7 L 11 8 L 10 8 A 1 1 0 0 0 9 9 A 1 1 0 0 0 10 10 L 11 10 L 11 12 A 1 1 0 0 0 12 13 A 1 1 0 0 0 13 12 L 13 10 L 14 10 A 1 1 0 0 0 15 9 A 1 1 0 0 0 14 8 L 13 8 L 13 7 A 1 1 0 0 0 12 6 z M 5 8.6171875 L 5 21 L 4 21 C 3.4358718 21 3 20.564128 3 20 L 3 9.6171875 L 5 8.6171875 z M 19 8.6171875 L 21 9.6171875 L 21 20 C 21 20.564128 20.564128 21 20 21 L 19 21 L 19 8.6171875 z M 12 17 C 12.564128 17 13 17.435872 13 18 L 13 21 L 11 21 L 11 18 C 11 17.435872 11.435872 17 12 17 z "/>
</svg>
