<?xml version="1.0" encoding="UTF-8" standalone="no"?>
<svg xmlns="http://www.w3.org/2000/svg" xmlns:svg="http://www.w3.org/2000/svg" width="24" height="24" viewBox="0 0 24 24" fill="currentColor" tags="temple,building" categories="buildings,maps">
  <path d="M 12 1.2363281 C 11.540363 1.2363281 11.079928 1.3419982 10.658203 1.5527344 L 6.1054688 3.8300781 C 5.4298982 4.1676617 5.0004033 4.861967 5 5.6171875 L 5 6.3828125 L 2.1054688 7.8300781 C 1.4298981 8.1676617 1.0004033 8.861967 1 9.6171875 L 1 20 C 1 21.645006 2.3549936 23 4 23 L 6 23 L 10 23 L 14 23 L 18 23 L 20 23 C 21.645006 23 23 21.645006 23 20 L 23 9.6171875 C 22.999597 8.861967 22.570103 8.1676617 21.894531 7.8300781 L 19 6.3828125 L 19 5.6171875 C 18.999597 4.861967 18.570103 4.1676617 17.894531 3.8300781 L 13.341797 1.5527344 C 12.920072 1.3419982 12.459637 1.2363281 12 1.2363281 z M 12 3.2363281 C 12.153085 3.2363281 12.306169 3.2712908 12.447266 3.3417969 L 17 5.6191406 L 17 21 L 15 21 L 15 18 C 15 17.083335 14.620243 16.268559 14.039062 15.751953 C 13.457881 15.235349 12.72222 15 12 15 C 11.27778 15 10.542118 15.235349 9.9609375 15.751953 C 9.3797568 16.268559 9 17.083335 9 18 L 9 21 L 7 21 L 7 7.0078125 L 7 5.6191406 L 11.552734 3.3417969 C 11.693831 3.2712908 11.846915 3.2363281 12 3.2363281 z M 12 6 A 1 1 0 0 0 11 7 L 11 8 L 10 8 A 1 1 0 0 0 9 9 A 1 1 0 0 0 10 10 L 11 10 L 11 12 A 1 1 0 0 0 12 13 A 1 1 0 0 0 13 12 L 13 10 L 14 10 A 1 1 0 0 0 15 9 A 1 1 0 0 0 14 8 L 13 8 L 13 7 A 1 1 0 0 0 12 6 z M 5 8.6191406 L 5 21 L 4 21 C 3.4358718 21 3 20.564128 3 20 L 3 9.6191406 L 5 8.6191406 z M 19 8.6191406 L 21 9.6191406 L 21 20 C 21 20.564128 20.564128 21 20 21 L 19 21 L 19 8.6191406 z M 12 17 C 12.277778 17 12.54212 17.09799 12.710938 17.248047 C 12.879754 17.398107 13 17.583334 13 18 L 13 21 L 11 21 L 11 18 C 11 17.583334 11.120245 17.398107 11.289062 17.248047 C 11.457879 17.097987 11.722222 17 12 17 z "/>
</svg>
