<?xml version="1.0" encoding="UTF-8" standalone="no"?>
<svg xmlns="http://www.w3.org/2000/svg" xmlns:svg="http://www.w3.org/2000/svg" width="24" height="24" viewBox="0 0 24 24" fill="currentColor" tags="temple,building" categories="buildings,navigation">
  <path d="M 12.001953 1.0039062 C 11.558932 1.0035516 11.115142 1.1475735 10.751953 1.4375 L 5.7519531 5.4375 C 5.2769647 5.8167979 4.9996502 6.3921507 5 7 L 5 8.4394531 L 1.9609375 10.292969 C 1.3661039 10.655092 1.0001158 11.303609 1 12 A 1.0001 1.0001 0 0 0 1 12.001953 L 1 19 C 1 20.64501 2.3549904 22 4 22 L 6 22 L 18 22 L 20 22 C 21.64501 22 23 20.64501 23 19 L 23 12.001953 A 1.0001 1.0001 0 0 0 23 12 C 22.999884 11.303609 22.633896 10.655092 22.039062 10.292969 L 19 8.4394531 L 19 7 C 18.999621 6.3938802 18.723152 5.8182779 18.25 5.4394531 L 13.25 1.4394531 C 12.887275 1.1489455 12.444975 1.0042611 12.001953 1.0039062 z M 12 3 L 17 7 L 17 8.9765625 A 1 1 0 0 0 17 9.0253906 L 17 20 L 15 20 L 15 18 C 15 17.083334 14.620244 16.268559 14.039062 15.751953 C 13.45788 15.235347 12.722222 15 12 15 C 11.277778 15 10.542119 15.235347 9.9609375 15.751953 C 9.3797556 16.268559 9 17.083334 9 18 L 9 20 L 7 20 L 7 9.0253906 A 1 1 0 0 0 7 8.9765625 L 7 7 A 1.0001 1.0001 0 0 0 7 6.9980469 L 12 3 z M 12 6 A 1 1 0 0 0 11 7 L 11 8 L 10 8 A 1 1 0 0 0 9 9 A 1 1 0 0 0 10 10 L 11 10 L 11 12 A 1 1 0 0 0 12 13 A 1 1 0 0 0 13 12 L 13 10 L 14 10 A 1 1 0 0 0 15 9 A 1 1 0 0 0 14 8 L 13 8 L 13 7 A 1 1 0 0 0 12 6 z M 5 10.78125 L 5 20 L 4 20 C 3.4358706 20 3 19.564129 3 19 L 3 12.001953 A 1.0001 1.0001 0 0 0 3 12 L 5 10.78125 z M 19 10.78125 L 21 12 A 1.0001 1.0001 0 0 0 21 12.001953 L 21 19 C 21 19.564129 20.564129 20 20 20 L 19 20 L 19 10.78125 z M 12 17 C 12.277778 17 12.542119 17.09799 12.710938 17.248047 C 12.879755 17.398107 13 17.583334 13 18 L 13 20 L 11 20 L 11 18 C 11 17.583334 11.120244 17.398107 11.289062 17.248047 C 11.45788 17.097986 11.722222 17 12 17 z "/>
</svg>
