<?xml version="1.0" encoding="UTF-8" standalone="no"?>
<svg xmlns="http://www.w3.org/2000/svg" xmlns:svg="http://www.w3.org/2000/svg" width="24" height="24" viewBox="0 0 24 24" fill="currentColor" tags="smoking" categories="travel,transportation,medical">
  <path d="M 16 2 A 1 1 0 0 0 15 3 C 15 4.5166636 15.718751 5.5000012 16.21875 6.125 C 16.71875 6.7499988 17 7.0166686 17 8 A 1 1 0 0 0 18 9 A 1 1 0 0 0 19 8 C 19 6.4833364 18.28125 5.4999988 17.78125 4.875 C 17.28125 4.2500012 17 3.9833314 17 3 A 1 1 0 0 0 16 2 z M 20 2 A 1 1 0 0 0 19 3 C 19 4.5166636 19.71875 5.5000012 20.21875 6.125 C 20.71875 6.7499988 21 7.0166686 21 8 A 1 1 0 0 0 22 9 A 1 1 0 0 0 23 8 C 23 6.4833364 22.28125 5.4999988 21.78125 4.875 C 21.28125 4.2500012 21 3.9833314 21 3 A 1 1 0 0 0 20 2 z M 2 11 A 1.0001 1.0001 0 0 0 1 12 L 1 16 A 1.0001 1.0001 0 0 0 2 17 L 18 17 A 1 1 0 0 0 19 16 A 1 1 0 0 0 18 15 L 8 15 L 8 13 L 18 13 A 1 1 0 0 0 19 12 A 1 1 0 0 0 18 11 L 2 11 z M 22 11 A 1 1 0 0 0 21 12 L 21 16 A 1 1 0 0 0 22 17 A 1 1 0 0 0 23 16 L 23 12 A 1 1 0 0 0 22 11 z M 3 13 L 6 13 L 6 15 L 3 15 L 3 13 z "/>
</svg>
