<?xml version="1.0" encoding="UTF-8" standalone="no"?>
<svg xmlns="http://www.w3.org/2000/svg" xmlns:svg="http://www.w3.org/2000/svg" width="24" height="24" viewBox="0 0 24 24" fill="currentColor" tags="smoking,no-smoking" categories="travel,transportation,medical">
  <path d="M 2 1 A 1 1 0 0 0 1.2929688 1.2929688 A 1 1 0 0 0 1.2929688 2.7070312 L 9.5859375 11 L 7 11 L 3 11 C 1.9072751 11 1 11.907275 1 13 L 1 15 C 1 16.092725 1.9072751 17 3 17 L 7 17 L 15.585938 17 L 21.292969 22.707031 A 1 1 0 0 0 22.707031 22.707031 A 1 1 0 0 0 22.707031 21.292969 L 16.716797 15.302734 A 1 1 0 0 0 16.697266 15.283203 L 12.716797 11.302734 A 1 1 0 0 0 12.697266 11.283203 L 2.7070312 1.2929688 A 1 1 0 0 0 2 1 z M 16 2 A 1 1 0 0 0 15 3 C 15 4.5166667 15.71875 5.5 16.21875 6.125 C 16.71875 6.75 17 7.0166667 17 8 A 1 1 0 0 0 18 9 A 1 1 0 0 0 19 8 C 19 6.4833333 18.28125 5.5 17.78125 4.875 C 17.28125 4.25 17 3.9833333 17 3 A 1 1 0 0 0 16 2 z M 20 2 A 1 1 0 0 0 19 3 C 19 4.5166667 19.71875 5.5 20.21875 6.125 C 20.71875 6.75 21 7.0166667 21 8 A 1 1 0 0 0 22 9 A 1 1 0 0 0 23 8 C 23 6.4833333 22.28125 5.5 21.78125 4.875 C 21.28125 4.25 21 3.9833333 21 3 A 1 1 0 0 0 20 2 z M 21 11 A 1 1 0 0 0 20 12 A 1 1 0 0 0 21 13 L 21 15 A 1 1 0 0 0 20.634766 16.365234 A 1 1 0 0 0 22 16.732422 C 22.617398 16.375967 22.999982 15.71291 23 15 L 23 13 C 23 11.907275 22.092725 11 21 11 z M 3 13 L 6 13 L 6 15 L 3 15 L 3 13 z M 8 13 L 11.585938 13 L 13.585938 15 L 8 15 L 8 13 z "/>
</svg>
