<svg xmlns="http://www.w3.org/2000/svg" xmlns:svg="http://www.w3.org/2000/svg" width="24" height="24" viewBox="0 0 24 24" fill="currentColor" tags="next,forward,direction,east,sign,turn,button,-&gt;" categories="arrows,gaming">
  <path d="M 12 1 C 5.9367124 1 1 5.9367124 1 12 C 1 18.063288 5.9367124 23 12 23 C 18.063288 23 23 18.063288 23 12 C 23 5.9367124 18.063288 1 12 1 z M 12 3 C 16.982407 3 21 7.0175926 21 12 C 21 16.982407 16.982407 21 12 21 C 7.0175926 21 3 16.982407 3 12 C 3 7.0175926 7.0175926 3 12 3 z M 12 7 A 1 1 0 0 0 11.292969 7.2929688 A 1 1 0 0 0 11.292969 8.7070312 L 13.585938 11 L 8 11 A 1 1 0 0 0 7 12 A 1 1 0 0 0 8 13 L 13.585938 13 L 11.292969 15.292969 A 1 1 0 0 0 11.292969 16.707031 A 1 1 0 0 0 12.707031 16.707031 L 16.697266 12.716797 A 1 1 0 0 0 16.707031 12.707031 A 1.0001 1.0001 0 0 0 16.785156 12.619141 A 1 1 0 0 0 16.792969 12.609375 A 1.0001 1.0001 0 0 0 16.861328 12.507812 A 1 1 0 0 0 16.865234 12.5 A 1.0001 1.0001 0 0 0 16.921875 12.388672 A 1 1 0 0 0 16.923828 12.382812 A 1 1 0 0 0 16.964844 12.257812 A 1.0001 1.0001 0 0 0 16.976562 12.205078 A 1.0001 1.0001 0 0 0 17 12 A 1.0001 1.0001 0 0 0 16.976562 11.794922 A 1.0001 1.0001 0 0 0 16.964844 11.742188 A 1 1 0 0 0 16.923828 11.617188 A 1.0001 1.0001 0 0 0 16.921875 11.611328 A 1 1 0 0 0 16.865234 11.5 A 1.0001 1.0001 0 0 0 16.861328 11.492188 A 1 1 0 0 0 16.792969 11.390625 A 1.0001 1.0001 0 0 0 16.785156 11.380859 A 1 1 0 0 0 16.707031 11.292969 L 16.697266 11.283203 L 12.707031 7.2929688 A 1 1 0 0 0 12 7 z "/>
</svg>
