<?xml version="1.0" encoding="UTF-8" standalone="no"?>
<svg xmlns="http://www.w3.org/2000/svg" xmlns:svg="http://www.w3.org/2000/svg" width="24" height="24" viewBox="0 0 24 24" fill="currentColor" tags="pending,dot,progress,issue,draft,code,coding,version control" categories="development,shapes">
  <path d="M 12 1 C 11.300207 1 10.600413 1.0675898 9.9101562 1.2011719 A 1 1 0 0 0 9.1191406 2.3710938 A 1 1 0 0 0 10.289062 3.1640625 C 11.418591 2.94547 12.581408 2.94547 13.710938 3.1640625 A 1 1 0 0 0 14.880859 2.3710938 A 1 1 0 0 0 14.089844 1.2011719 C 13.399587 1.0675898 12.699793 1 12 1 z M 6.5019531 2.7050781 A 1 1 0 0 0 5.8632812 2.8710938 C 4.6927482 3.6578938 3.6837161 4.6624726 2.8925781 5.8300781 A 1 1 0 0 0 3.1601562 7.21875 A 1 1 0 0 0 4.5488281 6.9511719 C 5.1961339 5.995842 6.0207905 5.1750065 6.9785156 4.53125 A 1 1 0 0 0 7.25 3.1425781 A 1 1 0 0 0 6.5019531 2.7050781 z M 17.615234 2.7207031 A 1 1 0 0 0 17.419922 2.7382812 A 1 1 0 0 0 16.78125 3.1601562 A 1 1 0 0 0 17.048828 4.5488281 C 18.004158 5.1961339 18.824994 6.0207905 19.46875 6.9785156 A 1 1 0 0 0 20.857422 7.25 A 1 1 0 0 0 21.128906 5.8632812 C 20.342106 4.6927482 19.337528 3.6837161 18.169922 2.8925781 A 1 1 0 0 0 17.615234 2.7207031 z M 2.1757812 9.1015625 A 1 1 0 0 0 1.2011719 9.9101562 C 0.93400772 11.29067 0.93400772 12.70933 1.2011719 14.089844 A 1 1 0 0 0 2.3710938 14.880859 A 1 1 0 0 0 3.1640625 13.710938 C 2.94547 12.581408 2.94547 11.418591 3.1640625 10.289062 A 1 1 0 0 0 2.3710938 9.1191406 A 1 1 0 0 0 2.1757812 9.1015625 z M 21.824219 9.1015625 A 1 1 0 0 0 21.628906 9.1191406 A 1 1 0 0 0 20.835938 10.289062 C 21.05453 11.418591 21.05453 12.581408 20.835938 13.710938 A 1 1 0 0 0 21.628906 14.880859 A 1 1 0 0 0 22.798828 14.089844 C 23.065993 12.70933 23.065993 11.29067 22.798828 9.9101562 A 1 1 0 0 0 21.824219 9.1015625 z M 3.78125 16.582031 A 1 1 0 0 0 3.1425781 16.75 A 1 1 0 0 0 2.8710938 18.136719 C 3.6578938 19.307252 4.6624726 20.316284 5.8300781 21.107422 A 1 1 0 0 0 7.21875 20.839844 A 1 1 0 0 0 6.9511719 19.451172 C 5.995842 18.803867 5.1750065 17.979209 4.53125 17.021484 A 1 1 0 0 0 3.78125 16.582031 z M 20.201172 16.613281 A 1 1 0 0 0 19.451172 17.048828 C 18.803867 18.004158 17.979209 18.824994 17.021484 19.46875 A 1 1 0 0 0 16.75 20.857422 A 1 1 0 0 0 18.136719 21.128906 C 19.307252 20.342106 20.316284 19.337528 21.107422 18.169922 A 1 1 0 0 0 20.839844 16.78125 A 1 1 0 0 0 20.201172 16.613281 z M 10.09375 20.818359 A 1 1 0 0 0 9.1191406 21.628906 A 1 1 0 0 0 9.9101562 22.798828 C 11.29067 23.065993 12.70933 23.065993 14.089844 22.798828 A 1 1 0 0 0 14.880859 21.628906 A 1 1 0 0 0 13.710938 20.835938 C 12.581408 21.05453 11.418591 21.05453 10.289062 20.835938 A 1 1 0 0 0 10.09375 20.818359 z "/>
</svg>
