<?xml version="1.0" encoding="UTF-8" standalone="no"?>
<svg xmlns="http://www.w3.org/2000/svg" xmlns:svg="http://www.w3.org/2000/svg" width="24" height="24" viewBox="0 0 24 24" fill="currentColor" tags="outwards,direction,north-west,diagonal,keyboard,button,escape" categories="arrows,navigation,development">
  <path d="M 2 1 A 1.0001 1.0001 0 0 0 1.1230469 1.5273438 A 1 1 0 0 0 1.0898438 1.6054688 A 1.0001 1.0001 0 0 0 1.0253906 1.8027344 A 1 1 0 0 0 1.0117188 1.9082031 A 1.0001 1.0001 0 0 0 1 2 L 1 8 A 1 1 0 0 0 2 9 A 1 1 0 0 0 3 8 L 3 4.4140625 L 11.292969 12.707031 A 1 1 0 0 0 12.707031 12.707031 A 1 1 0 0 0 12.707031 11.292969 L 4.4140625 3 L 8 3 A 1 1 0 0 0 9 2 A 1 1 0 0 0 8 1 L 2 1 z M 12 1 A 1 1 0 0 0 11 2 A 1 1 0 0 0 12 3 C 16.051849 3 19.012418 5.4128398 20.314453 8.5566406 C 21.616489 11.700441 21.227979 15.498583 18.363281 18.363281 C 15.498583 21.227979 11.700441 21.616489 8.5566406 20.314453 C 5.4128398 19.012418 3 16.051849 3 12 A 1 1 0 0 0 2 11 A 1 1 0 0 0 1 12 C 1 16.857819 3.9742929 20.581377 7.7910156 22.162109 C 11.607738 23.742842 16.342718 23.211969 19.777344 19.777344 C 23.211969 16.342718 23.742842 11.607738 22.162109 7.7910156 C 20.581377 3.9742929 16.857819 1 12 1 z "/>
</svg>
