<?xml version="1.0" encoding="UTF-8" standalone="no"?>
<svg xmlns="http://www.w3.org/2000/svg" xmlns:svg="http://www.w3.org/2000/svg" width="24" height="24" viewBox="0 0 24 24" fill="currentColor" tags="person,account,contact" categories="account">
  <path d="M 12 1 C 5.9367124 1 1 5.9367124 1 12 C 1 16.022347 3.173427 19.546472 6.40625 21.464844 A 1 1 0 0 0 6.4472656 21.488281 C 8.0785332 22.44686 9.9758837 23 12 23 C 14.024116 23 15.921467 22.44686 17.552734 21.488281 A 1 1 0 0 0 17.59375 21.464844 C 20.826573 19.546472 23 16.022347 23 12 C 23 5.9367124 18.063288 1 12 1 z M 12 3 C 16.982407 3 21 7.0175926 21 12 C 21 14.680349 19.836459 17.079938 17.986328 18.726562 C 17.846188 17.207521 16.552866 16 15 16 L 9 16 C 7.4471344 16 6.1538123 17.207521 6.0136719 18.726562 C 4.1635407 17.079938 3 14.680349 3 12 C 3 7.0175926 7.0175926 3 12 3 z M 12 6 C 9.8027056 6 8 7.8027056 8 10 C 8 12.197294 9.8027056 14 12 14 C 14.197294 14 16 12.197294 16 10 C 16 7.8027056 14.197294 6 12 6 z M 12 8 C 13.116414 8 14 8.8835859 14 10 C 14 11.116414 13.116414 12 12 12 C 10.883586 12 10 11.116414 10 10 C 10 8.8835859 10.883586 8 12 8 z M 9 18 L 15 18 C 15.564129 18 16 18.435871 16 19 L 16 20.066406 C 14.795516 20.663101 13.438984 21 12 21 C 10.561016 21 9.2044842 20.663101 8 20.066406 L 8 19 C 8 18.435871 8.4358706 18 9 18 z "/>
</svg>
