<svg xmlns="http://www.w3.org/2000/svg" xmlns:svg="http://www.w3.org/2000/svg" width="24" height="24" viewBox="0 0 24 24" fill="currentColor" tags="diameter,zero,ø,nothing,null,void,ban,math,divide,division,half,split,/,average,avg,mean,median,normal" categories="shapes,math,development">
  <path d="M 12 1 C 5.9367124 1 1 5.9367124 1 12 C 1 14.672579 1.9587914 17.126629 3.5507812 19.035156 L 1.2929688 21.292969 A 1 1 0 0 0 1.2929688 22.707031 A 1 1 0 0 0 2.7070312 22.707031 L 4.9648438 20.449219 C 6.873371 22.041209 9.3274207 23 12 23 C 18.063288 23 23 18.063288 23 12 C 23 9.3274207 22.041209 6.873371 20.449219 4.9648438 L 22.707031 2.7070312 A 1 1 0 0 0 22.707031 1.2929688 A 1 1 0 0 0 21.292969 1.2929688 L 19.035156 3.5507812 C 17.126629 1.9587914 14.672579 1 12 1 z M 12 3 C 14.129793 3 16.082337 3.7350658 17.621094 4.9648438 L 4.9648438 17.621094 C 3.7350658 16.082337 3 14.129793 3 12 C 3 7.0175926 7.0175926 3 12 3 z M 19.035156 6.3789062 C 20.264934 7.9176632 21 9.870207 21 12 C 21 16.982407 16.982407 21 12 21 C 9.870207 21 7.9176632 20.264934 6.3789062 19.035156 L 19.035156 6.3789062 z "/>
</svg>
