<?xml version="1.0" encoding="UTF-8" standalone="no"?>
<svg xmlns="http://www.w3.org/2000/svg" xmlns:svg="http://www.w3.org/2000/svg" width="24" height="24" viewBox="0 0 24 24" fill="currentColor" tags="ellipsis,et cetera,etc,loader,loading,progress,pending,throbber,menu,options,operator,code,spread,rest,more,further,extra,overflow,dots,…,..." categories="layout,development">
  <path d="M 12 1 C 5.9367124 1 1 5.9367124 1 12 C 1 18.063288 5.9367124 23 12 23 C 18.063288 23 23 18.063288 23 12 C 23 5.9367124 18.063288 1 12 1 z M 12 3 C 16.982407 3 21 7.0175926 21 12 C 21 16.982407 16.982407 21 12 21 C 7.0175926 21 3 16.982407 3 12 C 3 7.0175926 7.0175926 3 12 3 z M 7 11 A 1 1 0 0 0 6 12 A 1 1 0 0 0 7 13 L 7.0097656 13 A 1 1 0 0 0 8.0097656 12 A 1 1 0 0 0 7.0097656 11 L 7 11 z M 12 11 A 1 1 0 0 0 11 12 A 1 1 0 0 0 12 13 L 12.009766 13 A 1 1 0 0 0 13.009766 12 A 1 1 0 0 0 12.009766 11 L 12 11 z M 17 11 A 1 1 0 0 0 16 12 A 1 1 0 0 0 17 13 L 17.009766 13 A 1 1 0 0 0 18.009766 12 A 1 1 0 0 0 17.009766 11 L 17 11 z "/>
</svg>
