<?xml version="1.0" encoding="UTF-8" standalone="no"?>
<svg xmlns="http://www.w3.org/2000/svg" xmlns:svg="http://www.w3.org/2000/svg" width="24" height="24" viewBox="0 0 24 24" fill="currentColor" tags="diameter,zero,Ø,nothing,null,void,ban,maths,divide,division,half,split,/" categories="shapes,maths,development">
  
  <path d="M 12 1 C 5.9367246 1 1 5.9367246 1 12 C 1 14.672547 1.9607747 17.124686 3.5527344 19.033203 L 1.2929688 21.292969 A 1 1 0 0 0 1.2929688 22.707031 A 1 1 0 0 0 2.7070312 22.707031 L 4.9667969 20.447266 C 6.8753142 22.039225 9.3274536 23 12 23 C 18.063276 23 23 18.063276 23 12 C 23 9.3274536 22.039225 6.8753142 20.447266 4.9667969 L 22.707031 2.7070312 A 1 1 0 0 0 22.707031 1.2929688 A 1 1 0 0 0 21.292969 1.2929688 L 19.033203 3.5527344 C 17.124686 1.9607747 14.672547 1 12 1 z M 12 3 C 14.129589 3 16.082405 3.735275 17.621094 4.9648438 L 4.9648438 17.621094 C 3.735275 16.082405 3 14.129589 3 12 C 3 7.0176026 7.0176026 3 12 3 z M 19.035156 6.3789062 C 20.264725 7.9175954 21 9.8704113 21 12 C 21 16.982397 16.982397 21 12 21 C 9.8704113 21 7.9175954 20.264725 6.3789062 19.035156 L 19.035156 6.3789062 z "/>
</svg>
