<svg xmlns="http://www.w3.org/2000/svg" xmlns:svg="http://www.w3.org/2000/svg" width="24" height="24" viewBox="0 0 24 24" fill="currentColor" tags="off,zero,record,shape,circle-pile,circle,pile,stack,layer,structure,form,group,collection,stock,inventory,materials,warehouse" categories="shapes">
  <path d="M 12 2 C 10.35499 2 9 3.3549904 9 5 C 9 6.6450096 10.35499 8 12 8 C 13.64501 8 15 6.6450096 15 5 C 15 3.3549904 13.64501 2 12 2 z M 12 4 C 12.564129 4 13 4.4358706 13 5 C 13 5.5641294 12.564129 6 12 6 C 11.435871 6 11 5.5641294 11 5 C 11 4.4358706 11.435871 4 12 4 z M 8 9 C 6.3549904 9 5 10.35499 5 12 C 5 13.64501 6.3549904 15 8 15 C 9.6450096 15 11 13.64501 11 12 C 11 10.35499 9.6450096 9 8 9 z M 16 9 C 14.35499 9 13 10.35499 13 12 C 13 13.64501 14.35499 15 16 15 C 17.64501 15 19 13.64501 19 12 C 19 10.35499 17.64501 9 16 9 z M 8 11 C 8.5641294 11 9 11.435871 9 12 C 9 12.564129 8.5641294 13 8 13 C 7.4358706 13 7 12.564129 7 12 C 7 11.435871 7.4358706 11 8 11 z M 16 11 C 16.564129 11 17 11.435871 17 12 C 17 12.564129 16.564129 13 16 13 C 15.435871 13 15 12.564129 15 12 C 15 11.435871 15.435871 11 16 11 z M 4 16 C 2.3549904 16 1 17.35499 1 19 C 1 20.64501 2.3549904 22 4 22 C 5.6450096 22 7 20.64501 7 19 C 7 17.35499 5.6450096 16 4 16 z M 12 16 C 10.35499 16 9 17.35499 9 19 C 9 20.64501 10.35499 22 12 22 C 13.64501 22 15 20.64501 15 19 C 15 17.35499 13.64501 16 12 16 z M 20 16 C 18.35499 16 17 17.35499 17 19 C 17 20.64501 18.35499 22 20 22 C 21.64501 22 23 20.64501 23 19 C 23 17.35499 21.64501 16 20 16 z M 4 18 C 4.5641294 18 5 18.435871 5 19 C 5 19.564129 4.5641294 20 4 20 C 3.4358706 20 3 19.564129 3 19 C 3 18.435871 3.4358706 18 4 18 z M 12 18 C 12.564129 18 13 18.435871 13 19 C 13 19.564129 12.564129 20 12 20 C 11.435871 20 11 19.564129 11 19 C 11 18.435871 11.435871 18 12 18 z M 20 18 C 20.564129 18 21 18.435871 21 19 C 21 19.564129 20.564129 20 20 20 C 19.435871 20 19 19.564129 19 19 C 19 18.435871 19.435871 18 20 18 z "/>
</svg>
