<svg xmlns="http://www.w3.org/2000/svg" xmlns:svg="http://www.w3.org/2000/svg" width="24" height="24" viewBox="0 0 24 24" fill="currentColor" tags="computing,electricity,electronics" categories="science,development">
  <path d="M 5 2 C 3.3552972 2 2 3.3552972 2 5 L 2 19 C 2 20.644703 3.3552972 22 5 22 L 19 22 C 20.644703 22 22 20.644703 22 19 L 22 5 C 22 3.3552972 20.644703 2 19 2 L 5 2 z M 5 4 L 16 4 L 16 7 C 16 7.5641294 15.564129 8 15 8 L 11.826172 8 C 11.410315 6.8399128 10.295142 6 9 6 C 7.3549904 6 6 7.3549904 6 9 C 6 10.64501 7.3549904 12 9 12 C 10.295143 12 11.410315 11.160087 11.826172 10 L 15 10 C 16.64501 10 18 8.6450096 18 7 L 18 4 L 19 4 C 19.571297 4 20 4.4287028 20 5 L 20 19 C 20 19.571297 19.571297 20 19 20 L 8 20 L 8 17 C 8 16.435871 8.4358706 16 9 16 L 12.173828 16 C 12.589685 17.160087 13.704857 18 15 18 C 16.64501 18 18 16.64501 18 15 C 18 13.35499 16.64501 12 15 12 C 13.704857 12 12.589685 12.839913 12.173828 14 L 9 14 C 7.3549904 14 6 15.35499 6 17 L 6 20 L 5 20 C 4.4287028 20 4 19.571297 4 19 L 4 5 C 4 4.4287028 4.4287028 4 5 4 z M 9 8 C 9.5641294 8 10 8.4358706 10 9 C 10 9.5641294 9.5641294 10 9 10 C 8.4358706 10 8 9.5641294 8 9 C 8 8.4358706 8.4358706 8 9 8 z M 15 14 C 15.564129 14 16 14.435871 16 15 C 16 15.564129 15.564129 16 15 16 C 14.435873 16 14.000003 15.564126 14 15 C 14 14.435871 14.435871 14 15 14 z "/>
</svg>
