<?xml version="1.0" encoding="UTF-8" standalone="no"?>
<svg xmlns="http://www.w3.org/2000/svg" xmlns:svg="http://www.w3.org/2000/svg" width="24" height="24" viewBox="0 0 24 24" fill="currentColor" tags="on,off,device,switch,toggle,binary,boolean,reboot,restart,button,keyboard,troubleshoot" categories="connectivity">
  <path d="M 12 1 C 5.9367246 1 1 5.9367246 1 12 C 1 18.063276 5.9367246 23 12 23 C 18.063276 23 23 18.063276 23 12 C 23 5.9367246 18.063276 1 12 1 z M 12 3 C 16.982397 3 21 7.0176026 21 12 C 21 16.982397 16.982397 21 12 21 C 7.0176026 21 3 16.982397 3 12 C 3 7.0176026 7.0176026 3 12 3 z M 12 6 A 1 1 0 0 0 11 7 L 11 11 A 1 1 0 0 0 12 12 A 1 1 0 0 0 13 11 L 13 7 A 1 1 0 0 0 12 6 z M 8.0117188 8.0039062 A 1 1 0 0 0 7.1972656 8.4042969 C 4.2708577 12.311261 7.1227036 18.003051 12.003906 18 C 16.885109 17.9969 19.728164 12.301741 16.796875 8.3984375 A 1 1 0 0 0 16.138672 8.0078125 A 1 1 0 0 0 15.398438 8.1992188 A 1 1 0 0 0 15.199219 9.5976562 C 17.216468 12.283823 15.361015 15.997901 12.001953 16 C 8.6428917 16.002099 6.7849386 12.290249 8.7988281 9.6015625 A 1 1 0 0 0 8.5976562 8.203125 A 1 1 0 0 0 8.0117188 8.0039062 z "/>
</svg>
