<svg xmlns="http://www.w3.org/2000/svg" xmlns:svg="http://www.w3.org/2000/svg" width="24" height="24" viewBox="0 0 24 24" fill="currentColor" tags="person,account,contact" categories="account">
  <path d="M 12 1 C 5.9367124 1 1 5.9367124 1 12 C 1 16.025684 3.1767973 19.555365 6.4140625 21.472656 A 1 1 0 0 0 6.5878906 21.574219 C 8.1868632 22.481995 10.034452 23 12 23 C 13.965549 23 15.813137 22.481995 17.412109 21.574219 A 1 1 0 0 0 17.585938 21.472656 C 20.823203 19.555365 23 16.025684 23 12 C 23 5.9367124 18.063288 1 12 1 z M 12 3 C 16.982407 3 21 7.0175926 21 12 C 21 14.680162 19.838187 17.0819 17.988281 18.728516 C 17.848746 17.208877 16.553299 16 15 16 L 9 16 C 7.4467011 16 6.1512539 17.208877 6.0117188 18.728516 C 4.1618129 17.0819 3 14.680162 3 12 C 3 7.0175926 7.0175926 3 12 3 z M 12 6 C 9.8027056 6 8 7.8027056 8 10 C 8 12.197294 9.8027056 14 12 14 C 14.197294 14 16 12.197294 16 10 C 16 7.8027056 14.197294 6 12 6 z M 12 8 C 13.116414 8 14 8.8835859 14 10 C 14 11.116414 13.116414 12 12 12 C 10.883586 12 10 11.116414 10 10 C 10 8.8835859 10.883586 8 12 8 z M 9 18 L 15 18 C 15.564129 18 16 18.435871 16 19 L 16 20.068359 C 14.796006 20.664443 13.438198 21 12 21 C 10.561802 21 9.2039944 20.664443 8 20.068359 L 8 19 C 8 18.435871 8.4358706 18 9 18 z "/>
</svg>
