<svg xmlns="http://www.w3.org/2000/svg" xmlns:svg="http://www.w3.org/2000/svg" width="24" height="24" viewBox="0 0 24 24" fill="currentColor" tags="parking lot,car park,no parking" categories="transportation,navigation">
  <path d="M 12.511719 0.9921875 C 12.111466 0.97434577 11.706809 0.9778552 11.298828 1.0058594 C 10.21088 1.0805374 9.0996078 1.3226159 7.9921875 1.7558594 A 1 1 0 0 0 7.4257812 3.0507812 A 1 1 0 0 0 8.7207031 3.6191406 C 12.41123 2.1753378 15.998136 3.2676675 18.365234 5.6347656 C 20.732333 8.0018638 21.824662 11.58877 20.380859 15.279297 A 1 1 0 0 0 20.949219 16.574219 A 1 1 0 0 0 22.244141 16.007812 C 23.977115 11.578132 22.654341 7.0957472 19.779297 4.2207031 C 17.892549 2.3339555 15.313488 1.1170796 12.511719 0.9921875 z M 2 1 A 1 1 0 0 0 1.2929688 1.2929688 A 1 1 0 0 0 1.2929688 2.7070312 L 3.546875 4.9609375 C -0.051816496 9.2767889 0.17387181 15.728559 4.2226562 19.777344 C 8.2714409 23.826128 14.723211 24.051816 19.039062 20.453125 L 21.292969 22.707031 A 1 1 0 0 0 22.707031 22.707031 A 1 1 0 0 0 22.707031 21.292969 L 13.716797 12.302734 A 1 1 0 0 0 13.697266 12.283203 L 9.7167969 8.3027344 A 1 1 0 0 0 9.6972656 8.2832031 L 2.7070312 1.2929688 A 1 1 0 0 0 2 1 z M 12.65625 6 A 1 1 0 0 0 11.65625 7 A 1 1 0 0 0 12.65625 8 L 13 8 C 14.201586 8.0001003 15.111244 9.0098003 14.988281 10.205078 A 1 1 0 0 0 15.880859 11.300781 A 1 1 0 0 0 16.978516 10.410156 C 17.219486 8.0677627 15.354756 6.0001966 13 6 L 12.65625 6 z M 4.96875 6.3828125 L 8 9.4140625 L 8 13 L 8 17 A 1 1 0 0 0 9 18 A 1 1 0 0 0 10 17 L 10 14 L 12.585938 14 L 17.617188 19.03125 C 14.078952 21.869345 8.9204566 21.647019 5.6367188 18.363281 C 2.352981 15.079544 2.130656 9.9210485 4.96875 6.3828125 z M 10 11.414062 L 10.585938 12 L 10 12 L 10 11.414062 z "/>
</svg>
