<?xml version="1.0" encoding="UTF-8" standalone="no"?>
<svg xmlns="http://www.w3.org/2000/svg" xmlns:svg="http://www.w3.org/2000/svg" width="24" height="24" viewBox="0 0 24 24" fill="currentColor" tags="person,account,contact" categories="account">
  <path d="M 12 1 C 5.9367124 1 1 5.9367124 1 12 C 1 15.579631 2.7215894 18.765113 5.3789062 20.775391 A 1 1 0 0 0 5.4433594 20.824219 C 7.2759458 22.189656 9.5453025 23 12 23 C 14.454698 23 16.724054 22.189656 18.556641 20.824219 A 1 1 0 0 0 18.621094 20.775391 C 21.278411 18.765113 23 15.579631 23 12 C 23 5.9367124 18.063288 1 12 1 z M 12 3 C 16.982407 3 21 7.0175926 21 12 C 21 14.312059 20.134208 16.416327 18.708984 18.007812 C 18.16516 16.184344 16.89612 14.669587 15.238281 13.798828 C 16.314034 12.879824 17 11.516857 17 10 C 17 7.2504209 14.749579 5 12 5 C 9.2504209 5 7 7.2504209 7 10 C 7 11.516857 7.6859663 12.879824 8.7617188 13.798828 C 7.1038803 14.669587 5.8348401 16.184344 5.2910156 18.007812 C 3.8657917 16.416327 3 14.312059 3 12 C 3 7.0175926 7.0175926 3 12 3 z M 12 7 C 13.668699 7 15 8.3313011 15 10 C 15 11.668699 13.668699 13 12 13 C 10.331301 13 9 11.668699 9 10 C 9 8.3313011 10.331301 7 12 7 z M 12 15 C 14.606567 15 16.730661 16.966752 16.976562 19.505859 C 15.552333 20.4503 13.842489 21 12 21 C 10.157511 21 8.4476666 20.4503 7.0234375 19.505859 C 7.2693386 16.966752 9.3934325 15 12 15 z "/>
</svg>
