<svg xmlns="http://www.w3.org/2000/svg" xmlns:svg="http://www.w3.org/2000/svg" width="24" height="24" viewBox="0 0 24 24" fill="currentColor" tags="badge,medal,honour,decoration,order,pin,laurel,trophy,medallion,insignia,bronze,silver,gold" categories="sports,gaming">
  <path d="M 12 1 C 5.9367124 1 1 5.9367124 1 12 C 1 18.063288 5.9367124 23 12 23 C 18.063288 23 23 18.063288 23 12 C 23 5.9367124 18.063288 1 12 1 z M 12 3 C 16.982407 3 21 7.0175926 21 12 C 21 16.982407 16.982407 21 12 21 C 7.0175926 21 3 16.982407 3 12 C 3 7.0175926 7.0175926 3 12 3 z M 12.027344 5.9257812 C 11.262211 5.916162 10.439208 6.3995322 10.128906 7.2246094 L 9.4101562 8.6386719 A 1.0001 1.0001 0 0 0 9.4082031 8.6386719 L 7.8359375 8.8847656 C 6.9594139 8.926393 6.2479495 9.5556193 6.0195312 10.283203 C 5.7920819 11.007701 6.0126958 11.926682 6.7011719 12.462891 L 7.8085938 13.564453 A 1.0001 1.0001 0 0 0 7.8085938 13.566406 L 7.5625 15.105469 C 7.3176467 15.94794 7.6827966 16.825264 8.296875 17.277344 C 8.9117489 17.730009 9.8617053 17.814354 10.59375 17.328125 L 11.998047 16.609375 A 1.0001 1.0001 0 0 0 12 16.609375 L 13.408203 17.330078 C 14.140151 17.81743 15.08777 17.73214 15.703125 17.279297 C 16.316764 16.827728 16.680975 15.950988 16.4375 15.109375 L 16.189453 13.566406 L 16.189453 13.564453 L 17.314453 12.443359 C 17.992881 11.898703 18.201218 10.983681 17.966797 10.263672 C 17.732657 9.5447099 17.027567 8.9272015 16.160156 8.8847656 L 14.587891 8.6386719 L 13.884766 7.2539062 C 13.59044 6.4313497 12.787339 5.935336 12.027344 5.9257812 z M 12.001953 7.9257812 A 1.0001 1.0001 0 0 0 12.068359 8.0917969 L 12.804688 9.5449219 C 13.095237 10.116745 13.645595 10.516127 14.279297 10.615234 L 15.914062 10.871094 A 1.0001 1.0001 0 0 0 16.064453 10.882812 A 1.0001 1.0001 0 0 0 15.949219 10.980469 L 14.779297 12.148438 C 14.324729 12.601004 14.113922 13.247406 14.214844 13.880859 L 14.474609 15.494141 A 1.0001 1.0001 0 0 0 14.517578 15.667969 A 1.0001 1.0001 0 0 0 14.375 15.580078 L 12.910156 14.830078 C 12.338416 14.537135 11.659631 14.537135 11.087891 14.830078 L 9.6230469 15.580078 A 1.0001 1.0001 0 0 0 9.4824219 15.666016 A 1.0001 1.0001 0 0 0 9.5273438 15.494141 L 9.7851562 13.882812 C 9.8867494 13.248708 9.6758891 12.601442 9.2207031 12.148438 L 8.0644531 10.996094 A 1.0001 1.0001 0 0 0 7.9277344 10.882812 A 1.0001 1.0001 0 0 0 8.0859375 10.871094 L 9.71875 10.615234 C 10.352452 10.516124 10.902809 10.116745 11.193359 9.5449219 L 11.943359 8.0683594 A 1.0001 1.0001 0 0 0 12.001953 7.9257812 z "/>
</svg>
