<?xml version="1.0" encoding="UTF-8" standalone="no"?>
<svg xmlns="http://www.w3.org/2000/svg" xmlns:svg="http://www.w3.org/2000/svg" width="24" height="24" viewBox="0 0 24 24" fill="currentColor" tags="diameter,zero,ø,nothing,null,void,ban,math,divide,division,half,split,/,average,avg,mean,median,normal" categories="shapes,math,development">
  <path d="M 12 1 C 5.9367124 1 1 5.9367124 1 12 C 1 14.672552 1.9607739 17.124684 3.5527344 19.033203 L 1.2929688 21.292969 A 1 1 0 0 0 1.2929688 22.707031 A 1 1 0 0 0 2.7070312 22.707031 L 4.9667969 20.447266 C 6.8753157 22.039226 9.3274483 23 12 23 C 18.063288 23 23 18.063288 23 12 C 23 9.3274483 22.039226 6.8753157 20.447266 4.9667969 L 22.707031 2.7070312 A 1 1 0 0 0 22.707031 1.2929688 A 1 1 0 0 0 21.292969 1.2929688 L 19.033203 3.5527344 C 17.124684 1.9607739 14.672552 1 12 1 z M 12 3 C 14.129593 3 16.082403 3.7352745 17.621094 4.9648438 L 4.9648438 17.621094 C 3.7352745 16.082403 3 14.129593 3 12 C 3 7.0175926 7.0175926 3 12 3 z M 19.035156 6.3789062 C 20.264726 7.9175966 21 9.870407 21 12 C 21 16.982407 16.982407 21 12 21 C 9.870407 21 7.9175966 20.264726 6.3789062 19.035156 L 19.035156 6.3789062 z "/>
</svg>
