<svg xmlns="http://www.w3.org/2000/svg" xmlns:svg="http://www.w3.org/2000/svg" width="24" height="24" viewBox="0 0 24 24" fill="currentColor" tags="previous,back,direction,west,sign,turn,button,&lt;-" categories="arrows,gaming">
  <path d="M 12 1 C 5.9367124 1 1 5.9367124 1 12 C 1 18.063288 5.9367124 23 12 23 C 18.063288 23 23 18.063288 23 12 C 23 5.9367124 18.063288 1 12 1 z M 12 3 C 16.982407 3 21 7.0175926 21 12 C 21 16.982407 16.982407 21 12 21 C 7.0175926 21 3 16.982407 3 12 C 3 7.0175926 7.0175926 3 12 3 z M 12 7 A 1 1 0 0 0 11.292969 7.2929688 L 7.3027344 11.283203 L 7.2929688 11.292969 A 1.0001 1.0001 0 0 0 7.25 11.341797 A 1 1 0 0 0 7.2128906 11.384766 A 1.0001 1.0001 0 0 0 7.1757812 11.439453 A 1 1 0 0 0 7.1386719 11.492188 A 1.0001 1.0001 0 0 0 7.1347656 11.5 A 1 1 0 0 0 7.078125 11.611328 A 1.0001 1.0001 0 0 0 7.0761719 11.617188 A 1 1 0 0 0 7.0351562 11.742188 A 1 1 0 0 0 7.0234375 11.794922 A 1.0001 1.0001 0 0 0 7 12 A 1.0001 1.0001 0 0 0 7.0234375 12.205078 A 1.0001 1.0001 0 0 0 7.0351562 12.257812 A 1 1 0 0 0 7.0761719 12.382812 A 1 1 0 0 0 7.078125 12.388672 A 1.0001 1.0001 0 0 0 7.1347656 12.5 A 1 1 0 0 0 7.1757812 12.560547 A 1.0001 1.0001 0 0 0 7.2128906 12.615234 A 1 1 0 0 0 7.25 12.658203 A 1.0001 1.0001 0 0 0 7.2929688 12.707031 A 1 1 0 0 0 7.3027344 12.716797 L 11.292969 16.707031 A 1 1 0 0 0 12.707031 16.707031 A 1 1 0 0 0 12.707031 15.292969 L 10.414062 13 L 16 13 A 1 1 0 0 0 17 12 A 1 1 0 0 0 16 11 L 10.414062 11 L 12.707031 8.7070312 A 1 1 0 0 0 12.707031 7.2929688 A 1 1 0 0 0 12 7 z "/>
</svg>
