<?xml version="1.0" encoding="UTF-8" standalone="no"?>
<svg xmlns="http://www.w3.org/2000/svg" xmlns:svg="http://www.w3.org/2000/svg" width="24" height="24" viewBox="0 0 24 24" fill="currentColor" tags="person,account,contact" categories="account">
  <path d="M 12 1 C 5.9367124 1 1 5.9367124 1 12 C 1 15.552137 2.6938237 18.717741 5.3164062 20.730469 A 1 1 0 0 0 5.4882812 20.859375 C 7.3129703 22.204629 9.5653526 23 12 23 C 14.434648 23 16.68703 22.20463 18.511719 20.859375 A 1 1 0 0 0 18.683594 20.730469 C 21.306177 18.717741 23 15.552137 23 12 C 23 5.9367124 18.063288 1 12 1 z M 12 3 C 16.982407 3 21 7.0175926 21 12 C 21 14.311816 20.135893 16.416387 18.710938 18.007812 C 18.167269 16.185725 16.898434 14.66968 15.242188 13.798828 C 16.316783 12.879841 17 11.515911 17 10 C 17 7.2504209 14.749579 5 12 5 C 9.2504209 5 7 7.2504209 7 10 C 7 11.515912 7.6832173 12.879841 8.7578125 13.798828 C 7.1015663 14.66968 5.8327314 16.185725 5.2890625 18.007812 C 3.8641068 16.416387 3 14.311816 3 12 C 3 7.0175926 7.0175926 3 12 3 z M 12 7 C 13.668699 7 15 8.3313011 15 10 C 15 11.668699 13.668699 13 12 13 C 10.331301 13 9 11.668699 9 10 C 9 8.3313011 10.331301 7 12 7 z M 12 15 C 14.606777 15 16.730944 16.966455 16.976562 19.505859 C 15.552529 20.449903 13.842066 21 12 21 C 10.157934 21 8.4474714 20.449903 7.0234375 19.505859 C 7.2690555 16.966455 9.3932223 15 12 15 z "/>
</svg>
