<?xml version="1.0" encoding="UTF-8" standalone="no"?>
<svg xmlns="http://www.w3.org/2000/svg" xmlns:svg="http://www.w3.org/2000/svg" width="24" height="24" viewBox="0 0 24 24" fill="currentColor" tags="backwards,reverse,direction,south,sign,button" categories="arrows,navigation,gaming">
  <path d="M 12 1 C 5.9367124 1 1 5.9367124 1 12 C 1 18.063288 5.9367124 23 12 23 C 18.063288 23 23 18.063288 23 12 C 23 5.9367124 18.063288 1 12 1 z M 12 3 C 16.982407 3 21 7.0175926 21 12 C 21 16.982407 16.982407 21 12 21 C 7.0175926 21 3 16.982407 3 12 C 3 7.0175926 7.0175926 3 12 3 z M 12 7 A 1 1 0 0 0 11 8 L 11 13.585938 L 8.7070312 11.292969 A 1 1 0 0 0 8 11 A 1 1 0 0 0 7.2929688 11.292969 A 1 1 0 0 0 7.2929688 12.707031 L 11.292969 16.707031 A 1 1 0 0 0 11.5 16.865234 A 1 1 0 0 0 12 17 A 1 1 0 0 0 12.5 16.865234 A 1 1 0 0 0 12.707031 16.707031 L 16.707031 12.707031 A 1 1 0 0 0 16.707031 11.292969 A 1 1 0 0 0 15.292969 11.292969 L 13 13.585938 L 13 8 A 1 1 0 0 0 12 7 z "/>
</svg>
