<?xml version="1.0" encoding="UTF-8" standalone="no"?>
<svg xmlns="http://www.w3.org/2000/svg" xmlns:svg="http://www.w3.org/2000/svg" width="24" height="24" viewBox="0 0 24 24" fill="currentColor" tags="monetization,coin,penny,marketing,currency,money,payment,british,gbp,£" categories="finance">
  <path d="M 12 1 C 5.9367124 1 1 5.9367124 1 12 C 1 18.063288 5.9367124 23 12 23 C 18.063288 23 23 18.063288 23 12 C 23 5.9367124 18.063288 1 12 1 z M 12 3 C 16.982407 3 21 7.0175926 21 12 C 21 16.982407 16.982407 21 12 21 C 7.0175926 21 3 16.982407 3 12 C 3 7.0175926 7.0175926 3 12 3 z M 12.5 6 C 11.652778 6 10.792119 6.2770139 10.117188 6.8769531 C 9.4422551 7.4768923 9 8.4166669 9 9.5 L 9 11 L 8 11 A 1 1 0 0 0 7 12 A 1 1 0 0 0 8 13 L 9 13 L 9 15 L 8 15 A 1 1 0 0 0 7 16 A 1 1 0 0 0 8 17 L 15 17 A 1 1 0 0 0 16 16 A 1 1 0 0 0 15 15 L 11 15 L 11 13 L 12 13 A 1 1 0 0 0 13 12 A 1 1 0 0 0 12 11 L 11 11 L 11 9.5 C 11 8.9166671 11.182744 8.6064406 11.445312 8.3730469 C 11.70788 8.1396531 12.097222 8 12.5 8 C 12.902778 8 13.292119 8.1396531 13.554688 8.3730469 C 13.817255 8.6064406 14 8.9166671 14 9.5 A 1 1 0 0 0 15 10.5 A 1 1 0 0 0 16 9.5 C 16 8.4166669 15.557744 7.4768923 14.882812 6.8769531 C 14.20788 6.2770139 13.347222 6 12.5 6 z "/>
</svg>
