<svg xmlns="http://www.w3.org/2000/svg" xmlns:svg="http://www.w3.org/2000/svg" width="24" height="24" viewBox="0 0 24 24" fill="currentColor" tags="pending,dot,progress,issue,draft,code,coding,version control" categories="development,shapes">
  <path d="M 12 0.99804688 C 11.299406 0.99804688 10.598811 1.0645909 9.9082031 1.1992188 A 1 1 0 0 0 9.1191406 2.3710938 A 1 1 0 0 0 10.291016 3.1621094 C 11.419512 2.942119 12.580488 2.942119 13.708984 3.1621094 A 1 1 0 0 0 14.880859 2.3710938 A 1 1 0 0 0 14.091797 1.1992188 C 13.401189 1.0645909 12.700594 0.99804688 12 0.99804688 z M 6.4746094 2.7109375 A 1 1 0 0 0 5.8535156 2.8789062 C 4.6815681 3.6649981 3.6712945 4.6708211 2.8808594 5.8398438 A 1 1 0 0 0 3.1503906 7.2285156 A 1 1 0 0 0 4.5390625 6.9609375 C 5.1851372 6.0054184 6.008887 5.1835403 6.9667969 4.5410156 A 1 1 0 0 0 7.2402344 3.1523438 A 1 1 0 0 0 6.4746094 2.7109375 z M 17.539062 2.7109375 A 1 1 0 0 0 16.771484 3.1503906 A 1 1 0 0 0 17.039062 4.5390625 C 17.994582 5.1851372 18.81646 6.008887 19.458984 6.9667969 A 1 1 0 0 0 20.847656 7.2402344 A 1 1 0 0 0 21.121094 5.8535156 C 20.335002 4.6815681 19.329179 3.6712945 18.160156 2.8808594 A 1 1 0 0 0 17.539062 2.7109375 z M 2.1113281 9.1035156 A 1 1 0 0 0 1.1992188 9.9082031 C 0.92996311 11.289419 0.92996311 12.710581 1.1992188 14.091797 A 1 1 0 0 0 2.3710938 14.880859 A 1 1 0 0 0 3.1621094 13.708984 C 2.942119 12.580488 2.942119 11.419512 3.1621094 10.291016 A 1 1 0 0 0 2.3710938 9.1191406 A 1 1 0 0 0 2.1113281 9.1035156 z M 21.757812 9.1035156 A 1 1 0 0 0 21.628906 9.1191406 A 1 1 0 0 0 20.837891 10.291016 C 21.057881 11.419512 21.057881 12.580488 20.837891 13.708984 A 1 1 0 0 0 21.628906 14.880859 A 1 1 0 0 0 22.800781 14.091797 C 23.070037 12.710581 23.070037 11.289419 22.800781 9.9082031 A 1 1 0 0 0 21.757812 9.1035156 z M 12 10 C 10.907275 10 10 10.907275 10 12 C 10 13.092725 10.907275 14 12 14 C 13.092725 14 14 13.092725 14 12 C 14 10.907275 13.092725 10 12 10 z M 3.6425781 16.591797 A 1 1 0 0 0 3.1523438 16.759766 A 1 1 0 0 0 2.8789062 18.146484 C 3.6649982 19.318432 4.6708212 20.328705 5.8398438 21.119141 A 1 1 0 0 0 7.2285156 20.849609 A 1 1 0 0 0 6.9609375 19.460938 C 6.0054184 18.814863 5.1835403 17.991113 4.5410156 17.033203 A 1 1 0 0 0 3.6425781 16.591797 z M 20.230469 16.601562 A 1 1 0 0 0 19.460938 17.039062 C 18.814864 17.994582 17.991113 18.81646 17.033203 19.458984 A 1 1 0 0 0 16.759766 20.847656 A 1 1 0 0 0 18.146484 21.121094 C 19.318432 20.335002 20.328705 19.329179 21.119141 18.160156 A 1 1 0 0 0 20.849609 16.771484 A 1 1 0 0 0 20.230469 16.601562 z M 10.03125 20.822266 A 1 1 0 0 0 9.1191406 21.628906 A 1 1 0 0 0 9.9082031 22.800781 C 11.289318 23.069736 12.710682 23.069736 14.091797 22.800781 A 1 1 0 0 0 14.880859 21.628906 A 1 1 0 0 0 13.708984 20.837891 C 12.580339 21.05768 11.419661 21.05768 10.291016 20.837891 A 1 1 0 0 0 10.03125 20.822266 z "/>
</svg>
