<?xml version="1.0" encoding="UTF-8" standalone="no"?>
<svg xmlns="http://www.w3.org/2000/svg" xmlns:svg="http://www.w3.org/2000/svg" width="24" height="24" viewBox="0 0 24 24" fill="currentColor" tags="done,todo,tick,complete,task" categories="notifications,shapes">
  <path d="M 12.255859 0.94335938 C 8.9727966 0.85294954 5.9216687 2.3184218 3.8417969 4.6210938 C 0.67246834 8.1299273 -0.33444514 13.68632 3.078125 18.423828 C 6.4906952 23.161337 12.081991 23.966917 16.414062 22.072266 C 20.746135 20.177614 23.948014 15.526843 22.78125 9.8007812 A 1 1 0 0 0 21.601562 9.0195312 A 1 1 0 0 0 20.820312 10.199219 C 21.805635 15.034826 19.199138 18.671091 15.611328 20.240234 C 12.02352 21.809379 7.5822294 21.255495 4.7011719 17.255859 C 1.8201144 13.256224 2.7013439 8.8669424 5.3261719 5.9609375 C 7.9509998 3.0549326 12.225519 1.7348449 16.5 4.2011719 A 1 1 0 0 0 17.865234 3.8339844 A 1 1 0 0 0 17.5 2.46875 C 16.234598 1.7386276 14.945857 1.2893722 13.675781 1.0800781 C 13.199503 1.0015929 12.724868 0.95627507 12.255859 0.94335938 z M 21.84375 3.0117188 A 1 1 0 0 0 21.292969 3.2929688 L 12 12.585938 L 9.7070312 10.292969 A 1 1 0 0 0 8.2929688 10.292969 A 1 1 0 0 0 8.2929688 11.707031 L 11.292969 14.707031 A 1.0001 1.0001 0 0 0 12.707031 14.707031 L 22.707031 4.7070312 A 1 1 0 0 0 22.707031 3.2929688 A 1 1 0 0 0 21.84375 3.0117188 z "/>
</svg>
