<?xml version="1.0" encoding="UTF-8" standalone="no"?>
<svg xmlns="http://www.w3.org/2000/svg" xmlns:svg="http://www.w3.org/2000/svg" width="24" height="24" viewBox="0 0 24 24" fill="currentColor" tags="media,music" categories="multimedia,shapes">
  <path d="M 12 1 C 5.9367246 1 1 5.9367246 1 12 C 1 18.063276 5.9367246 23 12 23 C 18.063276 23 23 18.063276 23 12 C 23 5.9367246 18.063276 1 12 1 z M 12 3 C 16.982397 3 21 7.0176026 21 12 C 21 16.982397 16.982397 21 12 21 C 7.0176026 21 3 16.982397 3 12 C 3 7.0176026 7.0176026 3 12 3 z M 10 8 C 8.9092994 8 8 8.9092994 8 10 L 8 14 C 8 15.090701 8.9092994 16 10 16 L 14 16 C 15.090701 16 16 15.090701 16 14 L 16 10 C 16 8.9092994 15.090701 8 14 8 L 10 8 z M 10 10 L 14 10 L 14 14 L 10 14 L 10 10 z "/>
</svg>
