<?xml version="1.0" encoding="UTF-8" standalone="no"?>
<svg xmlns="http://www.w3.org/2000/svg" xmlns:svg="http://www.w3.org/2000/svg" width="24" height="24" viewBox="0 0 24 24" fill="currentColor" tags="diameter,zero,Ø,nothing,null,void,cancel,ban,no,stop,forbidden,prohibited,error,incorrect,mistake,wrong,failure" categories="shapes">
  <path d="M 12.505859 0.99609375 C 12.105712 0.9779882 11.700899 0.9819752 11.292969 1.0097656 C 10.205154 1.0838734 9.0937837 1.3252729 7.9863281 1.7578125 A 1 1 0 0 0 7.4179688 3.0546875 A 1 1 0 0 0 8.7128906 3.6210938 C 12.403499 2.1796507 15.987679 3.2749147 18.353516 5.6425781 C 20.719352 8.0102415 21.813432 11.595662 20.369141 15.285156 A 1 1 0 0 0 20.935547 16.582031 A 1 1 0 0 0 22.230469 16.013672 C 23.964046 11.585186 22.643054 7.1062109 19.769531 4.2304688 C 17.883782 2.3432631 15.306892 1.1228326 12.505859 0.99609375 z M 2 1 A 1 1 0 0 0 1.2929688 1.2929688 A 1 1 0 0 0 1.2929688 2.7070312 L 3.5371094 4.9511719 C -0.066808298 9.2723574 0.15885518 15.733074 4.2128906 19.787109 C 8.2669262 23.841146 14.727643 24.066809 19.048828 20.462891 L 21.292969 22.707031 A 1 1 0 0 0 22.707031 22.707031 A 1 1 0 0 0 22.707031 21.292969 L 19.787109 18.373047 L 5.6269531 4.2128906 L 2.7070312 1.2929688 A 1 1 0 0 0 2 1 z M 4.9589844 6.3730469 L 17.626953 19.041016 C 14.083347 21.884327 8.9159445 21.662038 5.6269531 18.373047 C 2.3379618 15.084055 2.1156733 9.9166533 4.9589844 6.3730469 z "/>
</svg>
