<svg xmlns="http://www.w3.org/2000/svg" xmlns:svg="http://www.w3.org/2000/svg" width="24" height="24" viewBox="0 0 24 24" fill="currentColor" tags="music,start,run" categories="multimedia">
  <path d="M 12 1 C 5.9367124 1 1 5.9367124 1 12 C 1 18.063288 5.9367124 23 12 23 C 18.063288 23 23 18.063288 23 12 C 23 5.9367124 18.063288 1 12 1 z M 12 3 C 16.982407 3 21 7.0175926 21 12 C 21 16.982407 16.982407 21 12 21 C 7.0175926 21 3 16.982407 3 12 C 3 7.0175926 7.0175926 3 12 3 z M 10.013672 7.015625 C 8.9776245 7.0353678 7.9965846 7.8739571 8 9.0058594 L 8 14.996094 C 7.99705 16.503133 9.7400464 17.490944 11.03125 16.712891 L 16.025391 13.71875 C 17.288045 12.966191 17.288045 11.033809 16.025391 10.28125 L 11.033203 7.2871094 L 11.03125 7.2871094 C 10.708809 7.0927861 10.358403 7.0090558 10.013672 7.015625 z M 10 9 A 1.0001 1.0001 0 0 0 10.001953 9.0019531 L 15 11.998047 A 1.0001 1.0001 0 0 0 15.001953 12 A 1.0001 1.0001 0 0 0 15 12.001953 L 10.001953 14.998047 A 1.0001 1.0001 0 0 0 10 15 A 1.0001 1.0001 0 0 0 10 14.996094 L 10 9.0039062 A 1.0001 1.0001 0 0 0 10 9 z "/>
</svg>
