<?xml version="1.0" encoding="UTF-8" standalone="no"?>
<svg xmlns="http://www.w3.org/2000/svg" xmlns:svg="http://www.w3.org/2000/svg" width="24" height="24" viewBox="0 0 24 24" fill="currentColor" tags="pending,dot,progress,issue,draft,code,coding,version control" categories="development,shapes">
  <path d="M 12 0.99804688 C 11.299406 0.99804687 10.598809 1.0645912 9.9082031 1.1992188 A 1 1 0 0 0 9.1191406 2.3710938 A 1 1 0 0 0 10.291016 3.1621094 C 11.419509 2.9421194 12.580491 2.9421194 13.708984 3.1621094 A 1 1 0 0 0 14.880859 2.3710938 A 1 1 0 0 0 14.091797 1.1992188 C 13.401191 1.0645912 12.700594 0.99804688 12 0.99804688 z M 6.4082031 2.7089844 A 1 1 0 0 0 5.8535156 2.8789062 C 4.6815705 3.6649967 3.6712929 4.6708235 2.8808594 5.8398438 A 1 1 0 0 0 3.1503906 7.2285156 A 1 1 0 0 0 4.5390625 6.9609375 C 5.1851359 6.0054203 6.0088889 5.1835391 6.9667969 4.5410156 A 1 1 0 0 0 7.2402344 3.1523438 A 1 1 0 0 0 6.6035156 2.7285156 A 1 1 0 0 0 6.4082031 2.7089844 z M 17.521484 2.7128906 A 1 1 0 0 0 16.771484 3.1503906 A 1 1 0 0 0 17.039062 4.5390625 C 17.994581 5.1851359 18.816461 6.0088889 19.458984 6.9667969 A 1 1 0 0 0 20.847656 7.2402344 A 1 1 0 0 0 21.121094 5.8535156 C 20.335004 4.6815705 19.329177 3.6712929 18.160156 2.8808594 A 1 1 0 0 0 17.521484 2.7128906 z M 2.1757812 9.1015625 A 1 1 0 0 0 1.1992188 9.9082031 C 0.92996365 11.289416 0.92996365 12.710584 1.1992188 14.091797 A 1 1 0 0 0 2.3710938 14.880859 A 1 1 0 0 0 3.1621094 13.708984 C 2.9421194 12.580491 2.9421194 11.419509 3.1621094 10.291016 A 1 1 0 0 0 2.3710938 9.1191406 A 1 1 0 0 0 2.1757812 9.1015625 z M 21.824219 9.1015625 A 1 1 0 0 0 21.628906 9.1191406 A 1 1 0 0 0 20.837891 10.291016 C 21.05788 11.419509 21.05788 12.580491 20.837891 13.708984 A 1 1 0 0 0 21.628906 14.880859 A 1 1 0 0 0 22.800781 14.091797 C 23.070037 12.710584 23.070037 11.289416 22.800781 9.9082031 A 1 1 0 0 0 21.824219 9.1015625 z M 3.7089844 16.589844 A 1 1 0 0 0 3.1523438 16.759766 A 1 1 0 0 0 2.8789062 18.146484 C 3.6649967 19.31843 4.6708235 20.328706 5.8398438 21.119141 A 1 1 0 0 0 7.2285156 20.849609 A 1 1 0 0 0 6.9609375 19.460938 C 6.0054203 18.814864 5.1835391 17.991111 4.5410156 17.033203 A 1 1 0 0 0 3.9042969 16.609375 A 1 1 0 0 0 3.7089844 16.589844 z M 20.210938 16.603516 A 1 1 0 0 0 19.460938 17.039062 C 18.814864 17.994581 17.991111 18.816461 17.033203 19.458984 A 1 1 0 0 0 16.759766 20.847656 A 1 1 0 0 0 18.146484 21.121094 C 19.31843 20.335004 20.328706 19.329177 21.119141 18.160156 A 1 1 0 0 0 20.849609 16.771484 A 1 1 0 0 0 20.210938 16.603516 z M 10.095703 20.820312 A 1 1 0 0 0 9.1191406 21.628906 A 1 1 0 0 0 9.9082031 22.800781 C 11.289316 23.069736 12.710684 23.069736 14.091797 22.800781 A 1 1 0 0 0 14.880859 21.628906 A 1 1 0 0 0 13.708984 20.837891 C 12.580342 21.057679 11.419658 21.057679 10.291016 20.837891 A 1 1 0 0 0 10.095703 20.820312 z "/>
</svg>
