<?xml version="1.0" encoding="UTF-8" standalone="no"?>
<svg xmlns="http://www.w3.org/2000/svg" xmlns:svg="http://www.w3.org/2000/svg" width="24" height="24" viewBox="0 0 24 24" fill="currentColor" tags="person,account,contact" categories="account,shapes">
  
  <path d="M 12 1 C 5.9367246 1 1 5.9367246 1 12 C 1 15.579624 2.7215916 18.765114 5.3789062 20.775391 A 1 1 0 0 0 5.4433594 20.824219 C 7.2759442 22.189656 9.5453074 23 12 23 C 14.454693 23 16.724056 22.189656 18.556641 20.824219 A 1 1 0 0 0 18.621094 20.775391 C 21.278408 18.765114 23 15.579624 23 12 C 23 5.9367246 18.063276 1 12 1 z M 12 3 C 16.982397 3 21 7.0176026 21 12 C 21 14.312055 20.134208 16.416328 18.708984 18.007812 C 18.16516 16.184347 16.896118 14.669587 15.238281 13.798828 C 16.314033 12.879824 17 11.516854 17 10 C 17 7.2504263 14.749573 5 12 5 C 9.2504263 5 7 7.2504263 7 10 C 7 11.516854 7.6859671 12.879824 8.7617188 13.798828 C 7.1038821 14.669587 5.8348401 16.184347 5.2910156 18.007812 C 3.8657925 16.416328 3 14.312055 3 12 C 3 7.0176026 7.0176026 3 12 3 z M 12 7 C 13.668695 7 15 8.3313045 15 10 C 15 11.668695 13.668695 13 12 13 C 10.331305 13 9 11.668695 9 10 C 9 8.3313045 10.331305 7 12 7 z M 12 15 C 14.606562 15 16.730661 16.966757 16.976562 19.505859 C 15.552335 20.4503 13.842485 21 12 21 C 10.157515 21 8.4476654 20.4503 7.0234375 19.505859 C 7.2693387 16.966757 9.3934378 15 12 15 z "/>
</svg>
