<?xml version="1.0" encoding="UTF-8" standalone="no"?>
<svg xmlns="http://www.w3.org/2000/svg" xmlns:svg="http://www.w3.org/2000/svg" width="24" height="24" viewBox="0 0 24 24" fill="currentColor" tags="computing,electricity,electronics" categories="science,development">
  
  <path d="M 5 2 C 3.3553005 2 2 3.3553005 2 5 L 2 19 C 2 20.644699 3.3553005 22 5 22 L 19 22 C 20.644699 22 22 20.644699 22 19 L 22 5 C 22 3.3553005 20.644699 2 19 2 L 5 2 z M 5 4 L 16 4 L 16 7 C 16 7.5641282 15.564128 8 15 8 L 11.826172 8 C 11.410479 6.8396128 10.295356 6 9 6 C 7.3549936 6 6 7.3549936 6 9 C 6 10.645006 7.3549936 12 9 12 C 10.295356 12 11.410479 11.160387 11.826172 10 L 15 10 C 16.645006 10 18 8.6450064 18 7 L 18 4 L 19 4 C 19.571296 4 20 4.4287039 20 5 L 20 19 C 20 19.571296 19.571296 20 19 20 L 8 20 L 8 17 C 8 16.435872 8.4358718 16 9 16 L 12.173828 16 C 12.589521 17.160387 13.704644 18 15 18 C 16.645006 18 18 16.645006 18 15 C 18 13.354994 16.645006 12 15 12 C 13.704644 12 12.589521 12.839613 12.173828 14 L 9 14 C 7.3549936 14 6 15.354994 6 17 L 6 20 L 5 20 C 4.4287039 20 4 19.571296 4 19 L 4 5 C 4 4.4287039 4.4287039 4 5 4 z M 9 8 C 9.5641282 8 10 8.4358718 10 9 C 10 9.5641282 9.5641282 10 9 10 C 8.4358718 10 8 9.5641282 8 9 C 8 8.4358718 8.4358718 8 9 8 z M 15 14 C 15.564128 14 16 14.435872 16 15 C 16 15.564128 15.564128 16 15 16 C 14.435872 16 14 15.564128 14 15 C 14 14.435872 14.435872 14 15 14 z "/>
</svg>
