<?xml version="1.0" encoding="UTF-8" standalone="no"?>
<svg xmlns="http://www.w3.org/2000/svg" xmlns:svg="http://www.w3.org/2000/svg" width="24" height="24" viewBox="0 0 24 24" fill="currentColor" tags="on,off,device,switch,toggle,binary,boolean,reboot,restart,button,keyboard,troubleshoot" categories="connectivity">
  <path d="M 12 1 C 5.9367124 1 1 5.9367124 1 12 C 1 18.063288 5.9367124 23 12 23 C 18.063288 23 23 18.063288 23 12 C 23 5.9367124 18.063288 1 12 1 z M 12 3 C 16.982407 3 21 7.0175926 21 12 C 21 16.982407 16.982407 21 12 21 C 7.0175926 21 3 16.982407 3 12 C 3 7.0175926 7.0175926 3 12 3 z M 12 6 A 1 1 0 0 0 11 7 L 11 11 A 1 1 0 0 0 12 12 A 1 1 0 0 0 13 11 L 13 7 A 1 1 0 0 0 12 6 z M 8.0117188 8.0039062 A 1 1 0 0 0 7.1972656 8.4042969 C 4.2708517 12.311269 7.1226938 18.003051 12.003906 18 C 16.885119 17.9969 19.72817 12.301749 16.796875 8.3984375 A 1 1 0 0 0 16.138672 8.0078125 A 1 1 0 0 0 15.398438 8.1992188 A 1 1 0 0 0 15.199219 9.5976562 C 17.216472 12.283829 15.361021 15.997901 12.001953 16 C 8.6428849 16.002099 6.7849346 12.290255 8.7988281 9.6015625 A 1 1 0 0 0 8.5976562 8.203125 A 1 1 0 0 0 8.0117188 8.0039062 z "/>
</svg>
