<?xml version="1.0" encoding="UTF-8" standalone="no"?>
<svg xmlns="http://www.w3.org/2000/svg" xmlns:svg="http://www.w3.org/2000/svg" width="24" height="24" viewBox="0 0 24 24" fill="currentColor" tags="diameter,zero,Ø,nothing,null,void,cancel,ban,no,stop,forbidden,prohibited,error,incorrect,mistake,wrong,failure" categories="shapes">
  <path d="M 11.902344 0.98632812 C 11.700154 0.98859359 11.496934 0.99587041 11.292969 1.0097656 C 10.205154 1.0838734 9.0937837 1.3252729 7.9863281 1.7578125 A 1 1 0 0 0 7.4179688 3.0546875 A 1 1 0 0 0 8.7128906 3.6210938 C 12.403499 2.1796507 15.987679 3.2749147 18.353516 5.6425781 C 20.719352 8.0102415 21.813432 11.595662 20.369141 15.285156 A 1 1 0 0 0 20.935547 16.582031 A 1 1 0 0 0 22.230469 16.013672 C 23.964046 11.585186 22.643054 7.1062109 19.769531 4.2304688 C 17.749086 2.2084627 14.93519 0.95234611 11.902344 0.98632812 z M 2 1 A 1 1 0 0 0 1.2929688 1.2929688 A 1 1 0 0 0 1.2929688 2.7070312 L 3.5390625 4.953125 C -0.064640749 9.2743097 0.15893237 15.733151 4.2128906 19.787109 C 8.2668489 23.841068 14.725691 24.064641 19.046875 20.460938 L 21.292969 22.707031 A 1 1 0 0 0 22.707031 22.707031 A 1 1 0 0 0 22.707031 21.292969 L 19.787109 18.373047 L 5.6269531 4.2128906 L 2.7070312 1.2929688 A 1 1 0 0 0 2 1 z M 4.9589844 6.3730469 L 17.626953 19.041016 C 14.083352 21.884157 8.9158823 21.661976 5.6269531 18.373047 C 2.338024 15.084118 2.115843 9.9166477 4.9589844 6.3730469 z "/>
</svg>
