<?xml version="1.0" encoding="UTF-8" standalone="no"?>
<svg xmlns="http://www.w3.org/2000/svg" xmlns:svg="http://www.w3.org/2000/svg" width="24" height="24" viewBox="0 0 24 24" fill="currentColor" tags="parking lot,car park,no parking" categories="transportation,navigation">
  <path d="M 12 1 C 5.9367124 1 1 5.9367124 1 12 C 1 18.063288 5.9367124 23 12 23 C 18.063288 23 23 18.063288 23 12 C 23 5.9367124 18.063288 1 12 1 z M 12 3 C 16.982407 3 21 7.0175926 21 12 C 21 14.129793 20.264934 16.082337 19.035156 17.621094 L 14.951172 13.537109 C 15.35768 13.325303 15.711362 13.049082 15.998047 12.726562 C 16.681319 11.95788 17 10.972222 17 10 C 17 9.0277779 16.681319 8.0421194 15.998047 7.2734375 C 15.314774 6.5047556 14.25 6 13 6 L 9 6 A 1.0001 1.0001 0 0 0 8.0644531 6.6503906 L 6.3789062 4.9648438 C 7.9176632 3.7350659 9.870207 3 12 3 z M 4.9648438 6.3789062 L 8.2832031 9.6972656 A 1 1 0 0 0 8.3027344 9.7167969 L 12.283203 13.697266 A 1 1 0 0 0 12.302734 13.716797 L 17.621094 19.035156 C 16.082337 20.264934 14.129793 21 12 21 C 7.0175926 21 3 16.982407 3 12 C 3 9.870207 3.7350659 7.9176632 4.9648438 6.3789062 z M 10 8 L 13 8 C 13.749999 8 14.185226 8.2452444 14.501953 8.6015625 C 14.81868 8.9578806 15 9.4722221 15 10 C 15 10.527778 14.81868 11.042119 14.501953 11.398438 C 14.244483 11.688091 13.90819 11.903829 13.388672 11.974609 L 10 8.5859375 L 10 8 z M 9 13.660156 A 1 1 0 0 0 8 14.660156 L 8 17 A 1 1 0 0 0 9 18 A 1 1 0 0 0 10 17 L 10 14.660156 A 1 1 0 0 0 9 13.660156 z "/>
</svg>
