<?xml version="1.0" encoding="UTF-8" standalone="no"?>
<svg xmlns="http://www.w3.org/2000/svg" xmlns:svg="http://www.w3.org/2000/svg" width="24" height="24" viewBox="0 0 24 24" fill="currentColor" tags="on,off,device,switch,toggle,binary,boolean,reboot,restart,button,keyboard,troubleshoot" categories="connectivity">
  <path d="M 12 1 C 5.9367246 1 1 5.9367246 1 12 C 1 18.063276 5.9367246 23 12 23 C 18.063276 23 23 18.063276 23 12 C 23 5.9367246 18.063276 1 12 1 z M 12 3 C 16.982397 3 21 7.0176026 21 12 C 21 16.982397 16.982397 21 12 21 C 7.0176026 21 3 16.982397 3 12 C 3 7.0176026 7.0176026 3 12 3 z M 12 6 A 1 1 0 0 0 11 7 L 11 12 A 1 1 0 0 0 12 13 A 1 1 0 0 0 13 12 L 13 7 A 1 1 0 0 0 12 6 z M 8.0136719 8 A 1 1 0 0 0 7.1992188 8.4003906 C 4.2703681 12.305525 7.1187955 18 12 18 C 16.881204 18 19.729632 12.305525 16.800781 8.4003906 A 1 1 0 0 0 16.140625 8.0097656 A 1 1 0 0 0 15.400391 8.1992188 A 1 1 0 0 0 15.199219 9.5996094 C 17.214789 12.287036 15.359063 16 12 16 C 8.6409373 16 6.7852107 12.287036 8.8007812 9.5996094 A 1 1 0 0 0 8.5996094 8.1992188 A 1 1 0 0 0 8.0136719 8 z "/>
</svg>
