<?xml version="1.0" encoding="UTF-8" standalone="no"?>
<svg xmlns="http://www.w3.org/2000/svg" xmlns:svg="http://www.w3.org/2000/svg" width="24" height="24" viewBox="0 0 24 24" fill="currentColor" tags="north,up,upgrade,improve,circle,button" categories="arrows,development">
  <path d="M 12 1 A 1 1 0 0 0 11 2 A 1 1 0 0 0 12 3 C 15.952504 2.9992795 18.891184 5.3136573 20.238281 8.3710938 C 21.585379 11.42853 21.310519 15.157991 18.642578 18.074219 A 1 1 0 0 0 18.705078 19.488281 A 1 1 0 0 0 20.117188 19.425781 C 23.319889 15.925026 23.704611 11.278167 22.068359 7.5644531 C 20.432108 3.8507388 16.744742 0.9991351 12 1 z M 5.4765625 3.3789062 A 1 1 0 0 0 4.8789062 3.6152344 C 4.5330767 3.9089534 4.2073357 4.2244476 3.9003906 4.5585938 A 1 1 0 0 0 3.9589844 5.9707031 A 1 1 0 0 0 5.3730469 5.9121094 C 5.6241836 5.6387173 5.8908766 5.3809406 6.1738281 5.140625 A 1 1 0 0 0 6.2890625 3.7304688 A 1 1 0 0 0 5.4765625 3.3789062 z M 12 7 A 1.0001 1.0001 0 0 0 11.794922 7.0234375 A 1 1 0 0 0 11.611328 7.078125 A 1.0001 1.0001 0 0 0 11.5 7.1347656 A 1 1 0 0 0 11.439453 7.1757812 A 1.0001 1.0001 0 0 0 11.384766 7.2128906 A 1 1 0 0 0 11.341797 7.25 A 1.0001 1.0001 0 0 0 11.292969 7.2929688 A 1 1 0 0 0 11.283203 7.3027344 L 7.2929688 11.292969 A 1 1 0 0 0 7.2929688 12.707031 A 1 1 0 0 0 8.7070312 12.707031 L 11 10.414062 L 11 16 A 1 1 0 0 0 12 17 A 1 1 0 0 0 13 16 L 13 10.414062 L 15.292969 12.707031 A 1 1 0 0 0 16.707031 12.707031 A 1 1 0 0 0 16.707031 11.292969 L 12.716797 7.3027344 A 1 1 0 0 0 12.658203 7.25 A 1.0001 1.0001 0 0 0 12.615234 7.2128906 A 1 1 0 0 0 12.560547 7.1757812 A 1.0001 1.0001 0 0 0 12.382812 7.0761719 A 1 1 0 0 0 12.257812 7.0351562 A 1.0001 1.0001 0 0 0 12 7 z M 2.5566406 7.8769531 A 1 1 0 0 0 1.5507812 8.5625 C 1.2002669 9.6280203 1.0140066 10.741676 1 11.863281 A 1 1 0 0 0 1.9882812 12.875 A 1 1 0 0 0 3 11.886719 C 3.01146 10.969036 3.1624324 10.059295 3.4492188 9.1875 A 1 1 0 0 0 2.8125 7.9257812 A 1 1 0 0 0 2.5566406 7.8769531 z M 2.8125 15 A 1 1 0 0 0 2.4316406 15.082031 A 1 1 0 0 0 1.9121094 16.398438 C 2.5297538 17.819433 3.4414895 19.094187 4.5859375 20.138672 A 1 1 0 0 0 5.9980469 20.074219 A 1 1 0 0 0 5.9335938 18.662109 C 4.997204 17.807507 4.2534047 16.764223 3.7480469 15.601562 A 1 1 0 0 0 2.8125 15 z M 16.226562 20.041016 A 1 1 0 0 0 15.847656 20.136719 C 13.69352 21.155427 11.225154 21.278176 8.9804688 20.478516 A 1 1 0 0 0 7.7011719 21.083984 A 1 1 0 0 0 8.3085938 22.361328 C 11.051301 23.338407 14.071057 23.188085 16.703125 21.943359 A 1 1 0 0 0 17.179688 20.613281 A 1 1 0 0 0 16.226562 20.041016 z "/>
</svg>
