<?xml version="1.0" encoding="UTF-8" standalone="no"?>
<svg xmlns="http://www.w3.org/2000/svg" xmlns:svg="http://www.w3.org/2000/svg" width="24" height="24" viewBox="0 0 24 24" fill="currentColor" tags="music,start,run" categories="shapes,multimedia">
  <path d="M 12 1 C 5.9367246 1 1 5.9367246 1 12 C 1 18.063276 5.9367246 23 12 23 C 18.063276 23 23 18.063276 23 12 C 23 5.9367246 18.063276 1 12 1 z M 12 3 C 16.982397 3 21 7.0176026 21 12 C 21 16.982397 16.982397 21 12 21 C 7.0176026 21 3 16.982397 3 12 C 3 7.0176026 7.0176026 3 12 3 z M 10.046875 7.0019531 A 1.0001 1.0001 0 0 0 9.5273438 7.1191406 A 1.0001 1.0001 0 0 0 9 8 L 9 16 A 1.0001 1.0001 0 0 0 10.554688 16.832031 L 16.554688 12.832031 A 1.0001 1.0001 0 0 0 16.554688 11.167969 L 10.554688 7.1679688 A 1.0001 1.0001 0 0 0 10.046875 7.0019531 z M 11 9.8691406 L 14.197266 12 L 11 14.130859 L 11 9.8691406 z "/>
</svg>
