<?xml version="1.0" encoding="UTF-8" standalone="no"?>
<svg xmlns="http://www.w3.org/2000/svg" xmlns:svg="http://www.w3.org/2000/svg" width="24" height="24" viewBox="0 0 24 24" fill="currentColor" tags="outwards,direction,north-east,diagonal" categories="arrows,navigation">
  <path d="M 12 1 C 7.142181 1 3.4186232 3.9742929 1.8378906 7.7910156 C 0.25715809 11.607738 0.78803099 16.342718 4.2226562 19.777344 C 7.6572816 23.211969 12.392262 23.742842 16.208984 22.162109 C 20.025707 20.581377 23 16.857819 23 12 A 1 1 0 0 0 22 11 A 1 1 0 0 0 21 12 C 21 16.051849 18.58716 19.012418 15.443359 20.314453 C 12.299559 21.616489 8.5014166 21.227979 5.6367188 18.363281 C 2.772021 15.498583 2.3835114 11.700441 3.6855469 8.5566406 C 4.9875824 5.4128398 7.9481509 3 12 3 A 1 1 0 0 0 13 2 A 1 1 0 0 0 12 1 z M 16 1 A 1 1 0 0 0 15 2 A 1 1 0 0 0 16 3 L 19.585938 3 L 11.292969 11.292969 A 1 1 0 0 0 11.292969 12.707031 A 1 1 0 0 0 12.707031 12.707031 L 21 4.4140625 L 21 8 A 1 1 0 0 0 22 9 A 1 1 0 0 0 23 8 L 23 2 A 1 1 0 0 0 22.992188 1.8691406 A 1.0001 1.0001 0 0 0 22.923828 1.6171875 A 1 1 0 0 0 22.707031 1.2929688 A 1 1 0 0 0 22.382812 1.0761719 A 1.0001 1.0001 0 0 0 22.130859 1.0078125 A 1.0001 1.0001 0 0 0 22 1 L 16 1 z "/>
</svg>
