<svg xmlns="http://www.w3.org/2000/svg" xmlns:svg="http://www.w3.org/2000/svg" width="24" height="24" viewBox="0 0 24 24" fill="currentColor" tags="monetization,marketing,currency,money,payment" categories="finance">
  <path d="M 12 1 C 5.9367124 1 1 5.9367124 1 12 C 1 18.063288 5.9367124 23 12 23 C 18.063288 23 23 18.063288 23 12 C 23 5.9367124 18.063288 1 12 1 z M 12 3 C 16.982407 3 21 7.0175926 21 12 C 21 16.982407 16.982407 21 12 21 C 7.0175926 21 3 16.982407 3 12 C 3 7.0175926 7.0175926 3 12 3 z M 12 5 A 1 1 0 0 0 11 6 L 11 7 L 10 7 C 9.0833335 7 8.268559 7.3797556 7.7519531 7.9609375 C 7.2353472 8.5421194 7 9.2777779 7 10 C 7 10.722222 7.2353472 11.457881 7.7519531 12.039062 C 8.268559 12.620243 9.0833335 13 10 13 L 11 13 L 11 15 L 8 15 A 1 1 0 0 0 7 16 A 1 1 0 0 0 8 17 L 11 17 L 11 18 A 1 1 0 0 0 12 19 A 1 1 0 0 0 13 18 L 13 17 L 14 17 C 14.916666 17 15.731441 16.620244 16.248047 16.039062 C 16.764653 15.457881 17 14.722222 17 14 C 17 13.277778 16.764653 12.542119 16.248047 11.960938 C 15.731441 11.379755 14.916666 11 14 11 L 13 11 L 13 9 L 16 9 A 1 1 0 0 0 17 8 A 1 1 0 0 0 16 7 L 13 7 L 13 6 A 1 1 0 0 0 12 5 z M 10 9 L 11 9 L 11 11 L 10 11 C 9.5833337 11 9.3981073 10.879756 9.2480469 10.710938 C 9.0979864 10.542118 9 10.277778 9 10 C 9 9.7222221 9.0979864 9.4578806 9.2480469 9.2890625 C 9.3981073 9.1202444 9.5833337 9 10 9 z M 13 13 L 14 13 C 14.416666 13 14.601893 13.120244 14.751953 13.289062 C 14.902014 13.45788 15 13.722222 15 14 C 15 14.277778 14.90201 14.542119 14.751953 14.710938 C 14.601893 14.879755 14.416666 15 14 15 L 13 15 L 13 13 z "/>
</svg>
