<svg xmlns="http://www.w3.org/2000/svg" xmlns:svg="http://www.w3.org/2000/svg" width="24" height="24" viewBox="0 0 24 24" fill="currentColor" tags="outwards,direction,south-east,diagonal" categories="arrows">
  <path d="M 12.037109 0.98828125 C 9.2899891 0.96507401 6.4766291 1.9686835 4.2226562 4.2226562 C 0.78803099 7.6572816 0.25715808 12.392262 1.8378906 16.208984 C 3.4186232 20.025707 7.142181 23 12 23 A 1 1 0 0 0 13 22 A 1 1 0 0 0 12 21 C 7.9481509 21 4.9875824 18.58716 3.6855469 15.443359 C 2.3835114 12.299559 2.772021 8.5014165 5.6367188 5.6367188 C 8.5014166 2.772021 12.299559 2.3835114 15.443359 3.6855469 C 18.58716 4.9875824 21 7.9481509 21 12 A 1 1 0 0 0 22 13 A 1 1 0 0 0 23 12 C 23 7.142181 20.025707 3.4186232 16.208984 1.8378906 C 15.254804 1.4427075 14.243377 1.1793981 13.208984 1.0605469 C 12.821087 1.0159777 12.429555 0.99159657 12.037109 0.98828125 z M 12 11 A 1 1 0 0 0 11.292969 11.292969 A 1 1 0 0 0 11.292969 12.707031 L 19.585938 21 L 16 21 A 1 1 0 0 0 15 22 A 1 1 0 0 0 16 23 L 22 23 A 1 1 0 0 0 22.130859 22.992188 A 1.0001 1.0001 0 0 0 22.382812 22.923828 A 1 1 0 0 0 22.707031 22.707031 A 1 1 0 0 0 22.923828 22.382812 A 1.0001 1.0001 0 0 0 22.992188 22.130859 A 1 1 0 0 0 23 22 L 23 16 A 1 1 0 0 0 22 15 A 1 1 0 0 0 21 16 L 21 19.585938 L 12.707031 11.292969 A 1 1 0 0 0 12 11 z "/>
</svg>
