<?xml version="1.0" encoding="UTF-8" standalone="no"?>
<svg xmlns="http://www.w3.org/2000/svg" xmlns:svg="http://www.w3.org/2000/svg" width="24" height="24" viewBox="0 0 24 24" fill="currentColor" tags="pending,dot,progress,issue,draft,code,coding,version control" categories="development,shapes">
  <path d="M 12 1 C 11.300207 1 10.600414 1.0675895 9.9101562 1.2011719 A 1 1 0 0 0 9.1191406 2.3710938 A 1 1 0 0 0 10.289062 3.1640625 C 11.418594 2.9454696 12.581406 2.9454696 13.710938 3.1640625 A 1 1 0 0 0 14.880859 2.3710938 A 1 1 0 0 0 14.089844 1.2011719 C 13.399586 1.0675895 12.699793 1 12 1 z M 6.5019531 2.7050781 A 1 1 0 0 0 5.8632812 2.8710938 C 4.6927458 3.6578953 3.6837177 4.6624702 2.8925781 5.8300781 A 1 1 0 0 0 3.1601562 7.21875 A 1 1 0 0 0 4.5488281 6.9511719 C 5.1961351 5.9958401 6.0207886 5.1750077 6.9785156 4.53125 A 1 1 0 0 0 7.25 3.1425781 A 1 1 0 0 0 6.5019531 2.7050781 z M 17.615234 2.7207031 A 1 1 0 0 0 17.419922 2.7382812 A 1 1 0 0 0 16.78125 3.1601562 A 1 1 0 0 0 17.048828 4.5488281 C 18.00416 5.1961351 18.824992 6.0207886 19.46875 6.9785156 A 1 1 0 0 0 20.857422 7.25 A 1 1 0 0 0 21.128906 5.8632812 C 20.342105 4.6927458 19.33753 3.6837177 18.169922 2.8925781 A 1 1 0 0 0 17.615234 2.7207031 z M 2.1757812 9.1015625 A 1 1 0 0 0 1.2011719 9.9101562 C 0.93400719 11.290672 0.93400719 12.709328 1.2011719 14.089844 A 1 1 0 0 0 2.3710938 14.880859 A 1 1 0 0 0 3.1640625 13.710938 C 2.9454696 12.581406 2.9454696 11.418593 3.1640625 10.289062 A 1 1 0 0 0 2.3710938 9.1191406 A 1 1 0 0 0 2.1757812 9.1015625 z M 21.824219 9.1015625 A 1 1 0 0 0 21.628906 9.1191406 A 1 1 0 0 0 20.835938 10.289062 C 21.05453 11.418594 21.05453 12.581406 20.835938 13.710938 A 1 1 0 0 0 21.628906 14.880859 A 1 1 0 0 0 22.798828 14.089844 C 23.065993 12.709328 23.065993 11.290672 22.798828 9.9101562 A 1 1 0 0 0 21.824219 9.1015625 z M 3.78125 16.582031 A 1 1 0 0 0 3.1425781 16.75 A 1 1 0 0 0 2.8710938 18.136719 C 3.6578953 19.307254 4.6624702 20.316282 5.8300781 21.107422 A 1 1 0 0 0 7.21875 20.839844 A 1 1 0 0 0 6.9511719 19.451172 C 5.9958401 18.803865 5.1750077 17.979211 4.53125 17.021484 A 1 1 0 0 0 3.78125 16.582031 z M 20.201172 16.613281 A 1 1 0 0 0 19.451172 17.048828 C 18.803865 18.00416 17.979211 18.824992 17.021484 19.46875 A 1 1 0 0 0 16.75 20.857422 A 1 1 0 0 0 18.136719 21.128906 C 19.307254 20.342105 20.316282 19.33753 21.107422 18.169922 A 1 1 0 0 0 20.839844 16.78125 A 1 1 0 0 0 20.201172 16.613281 z M 10.09375 20.818359 A 1 1 0 0 0 9.1191406 21.628906 A 1 1 0 0 0 9.9101562 22.798828 C 11.290672 23.065993 12.709328 23.065993 14.089844 22.798828 A 1 1 0 0 0 14.880859 21.628906 A 1 1 0 0 0 13.710938 20.835938 C 12.581406 21.05453 11.418593 21.05453 10.289062 20.835938 A 1 1 0 0 0 10.09375 20.818359 z "/>
</svg>
