<?xml version="1.0" encoding="UTF-8" standalone="no"?>
<svg xmlns="http://www.w3.org/2000/svg" xmlns:svg="http://www.w3.org/2000/svg" width="24" height="24" viewBox="0 0 24 24" fill="currentColor" tags="stories,social media,instagram,facebook,meta,snapchat,sharing,content" categories="communication,social,shapes">
  <path d="M 12 1 A 1 1 0 0 0 11 2 A 1 1 0 0 0 12 3 C 15.952496 2.9992795 18.891187 5.3136634 20.238281 8.3710938 C 21.585376 11.428524 21.310513 15.157997 18.642578 18.074219 A 1 1 0 0 0 18.705078 19.488281 A 1 1 0 0 0 20.117188 19.425781 C 23.319882 15.925034 23.704608 11.27816 22.068359 7.5644531 C 20.432112 3.8507462 16.744732 0.9991351 12 1 z M 5.4511719 3.3808594 A 1 1 0 0 0 4.8789062 3.6152344 C 4.5330774 3.9089528 4.2073351 4.2244483 3.9003906 4.5585938 A 1 1 0 0 0 3.9589844 5.9707031 A 1 1 0 0 0 5.3730469 5.9121094 C 5.624183 5.6387178 5.8908772 5.3809402 6.1738281 5.140625 A 1 1 0 0 0 6.2890625 3.7304688 A 1 1 0 0 0 5.6074219 3.3808594 A 1 1 0 0 0 5.4511719 3.3808594 z M 12 7 A 1 1 0 0 0 11 8 L 11 11 L 8 11 A 1 1 0 0 0 7 12 A 1 1 0 0 0 8 13 L 11 13 L 11 16 A 1 1 0 0 0 12 17 A 1 1 0 0 0 13 16 L 13 13 L 16 13 A 1 1 0 0 0 17 12 A 1 1 0 0 0 16 11 L 13 11 L 13 8 A 1 1 0 0 0 12 7 z M 2.4257812 7.8789062 A 1 1 0 0 0 1.5507812 8.5625 C 1.2002677 9.6280182 1.0140066 10.741678 1 11.863281 A 1 1 0 0 0 1.9882812 12.875 A 1 1 0 0 0 3 11.886719 C 3.01146 10.969038 3.1624328 10.059293 3.4492188 9.1875 A 1 1 0 0 0 2.8125 7.9257812 A 1 1 0 0 0 2.4257812 7.8789062 z M 2.8125 15 A 1 1 0 0 0 2.4316406 15.082031 A 1 1 0 0 0 1.9121094 16.398438 C 2.5297525 17.819429 3.4414918 19.094189 4.5859375 20.138672 A 1 1 0 0 0 5.9980469 20.074219 A 1 1 0 0 0 5.9335938 18.662109 C 4.9972059 17.807507 4.2534037 16.76422 3.7480469 15.601562 A 1 1 0 0 0 3.1972656 15.070312 A 1 1 0 0 0 2.8125 15 z M 16.357422 20.042969 A 1 1 0 0 0 15.847656 20.136719 C 13.693524 21.155425 11.22515 21.278174 8.9804688 20.478516 A 1 1 0 0 0 7.7011719 21.083984 A 1 1 0 0 0 8.3085938 22.361328 C 11.051295 23.338405 14.071062 23.188083 16.703125 21.943359 A 1 1 0 0 0 17.179688 20.613281 A 1 1 0 0 0 16.357422 20.042969 z "/>
</svg>
