<svg xmlns="http://www.w3.org/2000/svg" xmlns:svg="http://www.w3.org/2000/svg" width="24" height="24" viewBox="0 0 24 24" fill="currentColor" tags="outwards,direction,south-west,diagonal" categories="arrows">
  <path d="M 11.962891 0.98828125 C 11.570445 0.99159657 11.178913 1.0159777 10.791016 1.0605469 C 9.7566226 1.1793981 8.7451963 1.4427075 7.7910156 1.8378906 C 3.9742929 3.4186232 1 7.142181 1 12 A 1 1 0 0 0 2 13 A 1 1 0 0 0 3 12 C 3 7.9481509 5.4128398 4.9875824 8.5566406 3.6855469 C 11.700441 2.3835114 15.498583 2.772021 18.363281 5.6367188 C 21.227979 8.5014166 21.616489 12.299559 20.314453 15.443359 C 19.012418 18.58716 16.051849 21 12 21 A 1 1 0 0 0 11 22 A 1 1 0 0 0 12 23 C 16.857819 23 20.581377 20.025707 22.162109 16.208984 C 23.742842 12.392262 23.211969 7.6572817 19.777344 4.2226562 C 17.523371 1.9686835 14.710011 0.96507401 11.962891 0.98828125 z M 12 11 A 1 1 0 0 0 11.292969 11.292969 L 3 19.585938 L 3 16 A 1 1 0 0 0 2 15 A 1 1 0 0 0 1 16 L 1 22 A 1 1 0 0 0 1.0078125 22.130859 A 1.0001 1.0001 0 0 0 1.0761719 22.382812 A 1 1 0 0 0 1.2929688 22.707031 A 1 1 0 0 0 1.6171875 22.923828 A 1.0001 1.0001 0 0 0 1.8691406 22.992188 A 1 1 0 0 0 2 23 L 8 23 A 1 1 0 0 0 9 22 A 1 1 0 0 0 8 21 L 4.4140625 21 L 12.707031 12.707031 A 1 1 0 0 0 12.707031 11.292969 A 1 1 0 0 0 12 11 z "/>
</svg>
