<svg xmlns="http://www.w3.org/2000/svg" xmlns:svg="http://www.w3.org/2000/svg" width="24" height="24" viewBox="0 0 24 24" fill="currentColor" tags="question mark" categories="accessibility,text,notifications">
  <path d="M 12 1 C 5.9367124 1 1 5.9367124 1 12 C 1 18.063288 5.9367124 23 12 23 C 18.063288 23 23 18.063288 23 12 C 23 5.9367124 18.063288 1 12 1 z M 12 3 C 16.982407 3 21 7.0175926 21 12 C 21 16.982407 16.982407 21 12 21 C 7.0175926 21 3 16.982407 3 12 C 3 7.0175926 7.0175926 3 12 3 z M 11.9375 5.9960938 C 10.386527 5.9937517 8.7719547 6.889939 8.1464844 8.6679688 A 1 1 0 0 0 8.7578125 9.9433594 A 1 1 0 0 0 10.033203 9.3320312 C 10.439152 8.178038 11.348784 7.8675149 12.257812 8.0234375 C 13.16684 8.1793601 13.921744 8.7747353 13.919922 9.9980469 A 1.0001 1.0001 0 0 0 13.919922 10 C 13.919922 10.5 13.487227 11.003307 12.865234 11.417969 C 12.243242 11.83263 11.603516 12.050781 11.603516 12.050781 A 1 1 0 0 0 10.970703 13.316406 A 1 1 0 0 0 12.236328 13.949219 C 12.236328 13.949219 13.096602 13.66737 13.974609 13.082031 C 14.85221 12.496964 15.918932 11.50079 15.919922 10.001953 L 15.919922 10 C 15.922111 7.8470075 14.32219 6.3488728 12.595703 6.0527344 C 12.379824 6.0157053 12.159068 5.9964283 11.9375 5.9960938 z M 12 16 A 1 1 0 0 0 11 17 A 1 1 0 0 0 12 18 L 12.009766 18 A 1 1 0 0 0 13.009766 17 A 1 1 0 0 0 12.009766 16 L 12 16 z "/>
</svg>
