<?xml version="1.0" encoding="UTF-8" standalone="no"?>
<svg xmlns="http://www.w3.org/2000/svg" xmlns:svg="http://www.w3.org/2000/svg" width="24" height="24" viewBox="0 0 24 24" fill="currentColor" tags="parking lot,car park" categories="transportation,navigation">
  <path d="M 12 1 C 5.9367124 1 1 5.9367124 1 12 C 1 18.063288 5.9367124 23 12 23 C 18.063288 23 23 18.063288 23 12 C 23 5.9367124 18.063288 1 12 1 z M 12 3 C 16.982407 3 21 7.0175926 21 12 C 21 16.982407 16.982407 21 12 21 C 7.0175926 21 3 16.982407 3 12 C 3 7.0175926 7.0175926 3 12 3 z M 9 6 A 1.0001 1.0001 0 0 0 8 7 L 8 13 L 8 17 A 1 1 0 0 0 9 18 A 1 1 0 0 0 10 17 L 10 14 L 13 14 C 14.25 14 15.314774 13.495244 15.998047 12.726562 C 16.681319 11.95788 17 10.972222 17 10 C 17 9.0277779 16.681319 8.0421194 15.998047 7.2734375 C 15.314774 6.5047556 14.25 6 13 6 L 9 6 z M 10 8 L 13 8 C 13.749999 8 14.185226 8.2452444 14.501953 8.6015625 C 14.81868 8.9578806 15 9.4722221 15 10 C 15 10.527778 14.81868 11.042119 14.501953 11.398438 C 14.185226 11.754755 13.749999 12 13 12 L 10 12 L 10 8 z "/>
</svg>
