<svg xmlns="http://www.w3.org/2000/svg" xmlns:svg="http://www.w3.org/2000/svg" width="24" height="24" viewBox="0 0 24 24" fill="currentColor" tags="dashboard,dial,meter,speed,pressure,measure,level" categories="transportation,sports,science">
  <path d="M 11.957031 0.9765625 C 8.0832048 0.94017329 4.7076474 3.0321088 2.765625 6.0117188 C 0.17626177 9.9845321 0.05757317 15.651323 4.203125 19.796875 C 8.3486768 23.942427 14.015468 23.823738 17.988281 21.234375 C 21.961095 18.645012 24.357419 13.506911 22.232422 8.0371094 A 1 1 0 0 0 20.9375 7.46875 A 1 1 0 0 0 20.367188 8.7617188 C 22.162331 13.382468 20.187272 17.413755 16.896484 19.558594 C 13.605697 21.703433 9.1181832 21.883808 5.6171875 18.382812 C 2.1161918 14.881817 2.2965674 10.394303 4.4414062 7.1035156 C 6.5862452 3.8127279 10.617532 1.8376693 15.238281 3.6328125 A 1 1 0 0 0 16.53125 3.0625 A 1 1 0 0 0 15.962891 1.7675781 C 14.59544 1.2363289 13.248307 0.98869224 11.957031 0.9765625 z M 19 4 A 1 1 0 0 0 18.292969 4.2929688 L 13.291016 9.2949219 C 12.899197 9.1057553 12.46071 9 12 9 C 10.35499 9 9 10.35499 9 12 C 9 13.64501 10.35499 15 12 15 C 13.64501 15 15 13.64501 15 12 C 15 11.53929 14.894245 11.100803 14.705078 10.708984 L 19.707031 5.7070312 A 1 1 0 0 0 19.707031 4.2929688 A 1 1 0 0 0 19 4 z M 12 11 C 12.223144 11 12.425873 11.068189 12.589844 11.185547 A 1 1 0 0 0 12.693359 11.306641 A 1 1 0 0 0 12.814453 11.410156 C 12.931811 11.574127 13 11.776856 13 12 C 13 12.564129 12.564129 13 12 13 C 11.435871 13 11 12.564129 11 12 C 11 11.435871 11.435871 11 12 11 z "/>
</svg>
