<svg xmlns="http://www.w3.org/2000/svg" xmlns:svg="http://www.w3.org/2000/svg" width="24" height="24" viewBox="0 0 24 24" fill="currentColor" tags="lemon,orange,grapefruit,fruit" categories="food-beverage">
  <path d="M 5.5019531 1.0175781 C 4.9386099 1.0315742 4.3796513 1.2659008 3.9804688 1.7167969 A 1.0001 1.0001 0 0 0 3.9570312 1.7441406 C -0.28496634 6.9056892 0.08439571 14.467208 4.8085938 19.191406 C 9.5327918 23.915604 17.09431 24.284966 22.255859 20.042969 A 1.0001 1.0001 0 0 0 22.273438 20.027344 C 23.19265 19.235198 23.228094 17.7824 22.349609 16.945312 L 14.767578 9.359375 L 14.763672 9.3554688 A 1.0001 1.0001 0 0 0 14.763672 9.3535156 A 1 1 0 0 0 14.707031 9.2929688 A 1 1 0 0 0 14.642578 9.2324219 L 9.140625 3.7285156 A 1 1 0 0 0 9.0390625 3.6152344 A 1 1 0 0 0 8.9609375 3.5488281 L 7.0546875 1.640625 C 6.6336064 1.2101081 6.0652963 1.003582 5.5019531 1.0175781 z M 5.546875 3.0058594 C 5.5726056 3.001012 5.5978923 3.0113473 5.625 3.0390625 A 1.0001 1.0001 0 0 0 5.6328125 3.046875 L 6.984375 4.4003906 C 5.7359237 6.0372674 5.1262033 8.0047 5.1503906 9.9648438 A 1 1 0 0 0 5.1503906 10 C 5.150773 10.023563 5.151778 10.046753 5.1523438 10.070312 C 5.2059373 12.302327 6.082721 14.517225 7.7753906 16.212891 C 9.4683582 17.908855 11.681676 18.788622 13.914062 18.845703 A 1 1 0 0 0 14 18.849609 A 1 1 0 0 0 14.050781 18.847656 C 16.003519 18.868271 17.961938 18.260353 19.59375 17.017578 L 20.953125 18.376953 A 1.0001 1.0001 0 0 0 20.970703 18.394531 C 21.014953 18.436691 21.010067 18.468381 20.966797 18.507812 C 16.587482 22.093322 10.226423 21.781111 6.2226562 17.777344 C 2.2216745 13.776362 1.9087362 7.4219854 5.4863281 3.0429688 C 5.5062745 3.0227466 5.5268623 3.0096296 5.546875 3.0058594 z M 8.4160156 5.8320312 L 11.582031 9 L 7.1914062 9 C 7.3286745 7.8837665 7.7371677 6.7940347 8.4160156 5.8320312 z M 7.234375 11 L 11.585938 11 L 8.5390625 14.046875 C 7.8492519 13.128543 7.4137664 12.081767 7.234375 11 z M 13 12.414062 L 13 16.767578 C 11.918076 16.588315 10.869439 16.152911 9.9511719 15.462891 L 13 12.414062 z M 15 12.417969 L 18.164062 15.585938 C 17.202938 16.263406 16.114388 16.671236 15 16.808594 L 15 12.417969 z "/>
</svg>
