<?xml version="1.0" encoding="UTF-8" standalone="no"?>
<svg xmlns="http://www.w3.org/2000/svg" xmlns:svg="http://www.w3.org/2000/svg" width="24" height="24" viewBox="0 0 24 24" fill="currentColor" tags="lemon,orange,grapefruit,fruit" categories="food-beverage">
  <path d="M 5.5019531 1.0175781 C 4.9386099 1.0315742 4.3796513 1.2659008 3.9804688 1.7167969 A 1.0001 1.0001 0 0 0 3.9570312 1.7441406 C -0.28496634 6.9056892 0.08439571 14.467208 4.8085938 19.191406 C 9.5327918 23.915604 17.09431 24.284966 22.255859 20.042969 A 1.0001 1.0001 0 0 0 22.273438 20.027344 C 23.19265 19.235198 23.228094 17.7824 22.349609 16.945312 L 14.769531 9.3613281 A 1 1 0 0 0 14.707031 9.2929688 A 1 1 0 0 0 14.685547 9.2753906 L 9.1347656 3.7226562 A 1 1 0 0 0 9.0390625 3.6152344 A 1 1 0 0 0 9.0078125 3.5957031 L 7.0546875 1.640625 C 6.6336064 1.2101081 6.0652963 1.003582 5.5019531 1.0175781 z M 5.5546875 3.0058594 C 5.5776326 3.0045016 5.6009042 3.0144268 5.625 3.0390625 A 1.0001 1.0001 0 0 0 5.6328125 3.046875 L 6.9863281 4.4003906 C 5.7324011 6.0445477 5.12235 8.0234361 5.1523438 9.9921875 A 1 1 0 0 0 5.1503906 10 A 1 1 0 0 0 5.1523438 10.011719 C 5.1915119 12.264061 6.0675214 14.501999 7.7753906 16.212891 C 9.4843016 17.924826 11.72283 18.80373 13.976562 18.845703 A 1 1 0 0 0 14 18.849609 A 1 1 0 0 0 14.013672 18.847656 C 15.978393 18.876224 17.951846 18.266102 19.59375 17.015625 L 20.953125 18.376953 A 1.0001 1.0001 0 0 0 20.970703 18.394531 C 21.014953 18.436691 21.010067 18.468381 20.966797 18.507812 C 16.587482 22.093322 10.226423 21.781111 6.2226562 17.777344 C 2.2216745 13.776362 1.9087362 7.4219854 5.4863281 3.0429688 C 5.5091239 3.0198577 5.5317424 3.0072171 5.5546875 3.0058594 z M 8.4160156 5.8320312 L 11.582031 9 L 7.1914062 9 C 7.3286294 7.8836118 7.7370687 6.7941588 8.4160156 5.8320312 z M 7.2363281 11 L 11.585938 11 L 8.5390625 14.046875 C 7.8492458 13.128636 7.4157983 12.081678 7.2363281 11 z M 13 12.414062 L 13 16.765625 C 11.918488 16.586329 10.871099 16.150614 9.953125 15.460938 L 13 12.414062 z M 15 12.417969 L 18.164062 15.585938 C 17.203298 16.262966 16.113885 16.669244 15 16.806641 L 15 12.417969 z "/>
</svg>
