<?xml version="1.0" encoding="UTF-8" standalone="no"?>
<svg xmlns="http://www.w3.org/2000/svg" xmlns:svg="http://www.w3.org/2000/svg" width="24" height="24" viewBox="0 0 24 24" fill="currentColor" tags="movie,film,video,camera,cinema,cut,action,television,tv,show,entertainment" categories="multimedia">
  <path d="M 17.53125 1.0253906 C 17.236062 1.0190332 16.934806 1.053469 16.636719 1.1347656 A 1.0001 1.0001 0 0 0 16.615234 1.140625 L 12.339844 2.4082031 A 1 1 0 0 0 11.908203 2.5351562 L 3.1152344 5.140625 A 1.0001 1.0001 0 0 0 3.1132812 5.1425781 C 1.5743158 5.6042679 0.70118384 7.2734812 1.1347656 8.8632812 A 1.0001 1.0001 0 0 0 1.1640625 8.9511719 L 2 11.179688 L 2 19 C 2 20.645006 3.3549936 22 5 22 L 19 22 C 20.645006 22 22 20.645006 22 19 L 22 11 A 1.0001 1.0001 0 0 0 21 10 L 10.023438 10 L 15.548828 8.3945312 A 1 1 0 0 0 15.988281 8.265625 L 20.478516 6.9609375 A 1.0001 1.0001 0 0 0 21.15625 5.7050781 L 20.357422 3.1132812 C 19.982301 1.8628784 18.810397 1.0529397 17.53125 1.0253906 z M 17.388672 3.0253906 C 17.900569 2.98307 18.320383 3.2840911 18.441406 3.6875 A 1.0001 1.0001 0 0 0 18.443359 3.6933594 L 18.945312 5.3222656 L 15.853516 6.2226562 L 14.107422 3.9707031 L 17.164062 3.0644531 C 17.240337 3.043651 17.315544 3.0314364 17.388672 3.0253906 z M 12.050781 4.5800781 L 13.787109 6.8222656 L 9.6445312 8.0273438 L 7.8847656 5.8144531 L 12.050781 4.5800781 z M 5.8183594 6.4277344 L 7.5703125 8.6308594 L 3.6113281 9.78125 L 3.0664062 8.3242188 C 2.9082658 7.7195912 3.2297927 7.195906 3.6875 7.0585938 L 5.8183594 6.4277344 z M 4 12 L 20 12 L 20 19 C 20 19.564128 19.564128 20 19 20 L 5 20 C 4.4358718 20 4 19.564128 4 19 L 4 12 z "/>
</svg>
