<?xml version="1.0" encoding="UTF-8" standalone="no"?>
<svg xmlns="http://www.w3.org/2000/svg" xmlns:svg="http://www.w3.org/2000/svg" width="24" height="24" viewBox="0 0 24 24" fill="currentColor" tags="movie,film,video,camera,cinema,cut,action,television,tv,show,entertainment" categories="multimedia">
  <path d="M 17.53125 1.0253906 C 17.236062 1.0190333 16.934807 1.0534689 16.636719 1.1347656 A 1.0001 1.0001 0 0 0 16.615234 1.140625 L 12.363281 2.4003906 A 1 1 0 0 0 11.884766 2.5429688 L 3.1152344 5.140625 A 1.0001 1.0001 0 0 0 3.1132812 5.1425781 C 1.5743209 5.6042662 0.70118296 7.273478 1.1347656 8.8632812 A 1.0001 1.0001 0 0 0 1.1640625 8.9511719 L 2 11.179688 L 2 19 C 2 20.64501 3.3549904 22 5 22 L 19 22 C 20.64501 22 22 20.64501 22 19 L 22 11 A 1.0001 1.0001 0 0 0 21 10 L 10.023438 10 L 15.533203 8.3984375 A 1 1 0 0 0 16.009766 8.2597656 L 20.478516 6.9609375 A 1.0001 1.0001 0 0 0 21.15625 5.7050781 L 20.357422 3.1132812 C 19.9823 1.8628759 18.810399 1.0529392 17.53125 1.0253906 z M 17.496094 3.0214844 C 17.958258 3.0266956 18.329028 3.3129053 18.441406 3.6875 A 1.0001 1.0001 0 0 0 18.443359 3.6933594 L 18.945312 5.3222656 L 15.853516 6.2226562 L 14.107422 3.9707031 L 17.164062 3.0644531 C 17.278474 3.0332499 17.389441 3.0202818 17.496094 3.0214844 z M 12.050781 4.5800781 L 13.787109 6.8222656 L 9.6445312 8.0273438 L 7.8847656 5.8144531 L 12.050781 4.5800781 z M 5.8183594 6.4277344 L 7.5703125 8.6308594 L 3.6113281 9.78125 L 3.0664062 8.3242188 C 2.9082655 7.7195899 3.2297917 7.1959063 3.6875 7.0585938 L 5.8183594 6.4277344 z M 4 12 L 20 12 L 20 19 C 20 19.564129 19.564129 20 19 20 L 5 20 C 4.4358706 20 4 19.564129 4 19 L 4 12 z "/>
</svg>
