<svg xmlns="http://www.w3.org/2000/svg" xmlns:svg="http://www.w3.org/2000/svg" width="24" height="24" viewBox="0 0 24 24" fill="currentColor" tags="copy,paste" categories="text,arrows">
  <path d="M 9 1 C 7.9092972 1 7 1.9092972 7 3 L 6 3 C 4.3549904 3 3 4.3549904 3 6 L 3 20 C 3 21.64501 4.3549904 23 6 23 L 18 23 C 19.13889 23.000257 20.184355 22.350836 20.689453 21.330078 A 1 1 0 0 0 20.236328 19.990234 A 1 1 0 0 0 18.896484 20.443359 C 18.726845 20.786186 18.382502 21.000086 18 21 L 6 21 C 5.4358706 21 5 20.564129 5 20 L 5 6 C 5 5.4358706 5.4358706 5 6 5 L 7 5 C 7 6.0907028 7.9092972 7 9 7 L 15 7 C 16.090703 7 17 6.0907028 17 5 L 18 5 C 18.564129 5 19 5.4358706 19 6 L 19 7.34375 A 1 1 0 0 0 20 8.34375 A 1 1 0 0 0 21 7.34375 L 21 6 C 21 4.3549904 19.64501 3 18 3 L 17 3 C 17 1.9092972 16.090703 1 15 1 L 9 1 z M 9 3 L 15 3 L 15 4 L 15 5 L 9 5 L 9 4 L 9 3 z M 17 9 A 1 1 0 0 0 16.292969 9.2929688 A 1 1 0 0 0 16.292969 10.707031 L 18.585938 13 L 11 13 A 1 1 0 0 0 10 14 A 1 1 0 0 0 11 15 L 18.585938 15 L 16.292969 17.292969 A 1 1 0 0 0 16.292969 18.707031 A 1 1 0 0 0 17.707031 18.707031 L 21.697266 14.716797 A 1 1 0 0 0 21.707031 14.707031 A 1.0001 1.0001 0 0 0 21.785156 14.619141 A 1 1 0 0 0 21.792969 14.609375 A 1.0001 1.0001 0 0 0 21.861328 14.507812 A 1 1 0 0 0 21.865234 14.5 A 1.0001 1.0001 0 0 0 21.921875 14.388672 A 1 1 0 0 0 21.964844 14.257812 A 1.0001 1.0001 0 0 0 21.964844 13.742188 A 1 1 0 0 0 21.923828 13.617188 A 1.0001 1.0001 0 0 0 21.921875 13.611328 A 1 1 0 0 0 21.865234 13.5 A 1.0001 1.0001 0 0 0 21.861328 13.492188 A 1 1 0 0 0 21.792969 13.390625 A 1.0001 1.0001 0 0 0 21.785156 13.380859 A 1 1 0 0 0 21.707031 13.292969 L 17.707031 9.2929688 A 1 1 0 0 0 17 9 z "/>
</svg>
