<?xml version="1.0" encoding="UTF-8" standalone="no"?>
<svg xmlns="http://www.w3.org/2000/svg" xmlns:svg="http://www.w3.org/2000/svg" width="24" height="24" viewBox="0 0 24 24" fill="currentColor" tags="paste" categories="text">
  <path d="M 9 1 C 7.9092972 1 7 1.9092972 7 3 L 6 3 C 4.3549904 3 3 4.3549904 3 6 L 3 20 C 3 21.64501 4.3549904 23 6 23 L 18 23 C 19.64501 23 21 21.64501 21 20 L 21 19.5 A 1 1 0 0 0 20 18.5 A 1 1 0 0 0 19 19.5 L 19 20 C 19 20.564129 18.564129 21 18 21 L 6 21 C 5.4358706 21 5 20.564129 5 20 L 5 6 C 5 5.4358706 5.4358706 5 6 5 L 7 5 C 7 6.0907028 7.9092972 7 9 7 L 15 7 C 16.090703 7 17 6.0907028 17 5 L 18 5 C 18.357782 5.001 18.684337 5.1900597 18.863281 5.5 A 1 1 0 0 0 20.230469 5.8652344 A 1 1 0 0 0 20.595703 4.5 C 20.061152 3.5741295 19.071055 3.0010966 18.001953 3 A 1.0001 1.0001 0 0 0 18 3 L 17 3 C 17 1.9092972 16.090703 1 15 1 L 9 1 z M 9 3 L 15 3 L 15 5 L 9 5 L 9 3 z M 19.724609 7.9667969 C 19.006341 8.0049793 18.258778 8.3212997 17.666016 8.9140625 A 1.0001 1.0001 0 0 0 17.666016 8.9160156 L 13.65625 12.927734 C 13.300268 13.283925 13.039597 13.723619 12.898438 14.207031 A 1.0001 1.0001 0 0 0 12.898438 14.208984 L 12.060547 17.078125 C 11.743862 18.163902 12.836098 19.254185 13.921875 18.9375 L 16.791016 18.101562 C 17.274974 17.960244 17.715862 17.698397 18.072266 17.341797 L 22.083984 13.333984 A 1.0001 1.0001 0 0 0 22.085938 13.333984 C 22.763382 12.656541 23.080694 11.778047 23.033203 10.970703 C 22.985665 10.163312 22.618573 9.4466973 22.085938 8.9140625 C 21.553303 8.3814277 20.836641 8.0142879 20.029297 7.9667969 C 19.928379 7.9608605 19.827219 7.9613422 19.724609 7.9667969 z M 19.816406 9.9609375 C 19.848419 9.9601527 19.880038 9.9610041 19.912109 9.9628906 C 20.168682 9.9779836 20.451557 10.111713 20.669922 10.330078 C 20.888287 10.548443 21.022017 10.831318 21.037109 11.087891 C 21.052199 11.344463 20.993809 11.594079 20.669922 11.917969 L 16.658203 15.927734 C 16.539363 16.04664 16.391841 16.134519 16.230469 16.181641 L 14.236328 16.763672 L 14.818359 14.767578 C 14.865479 14.606206 14.951406 14.460637 15.070312 14.341797 L 19.082031 10.330078 C 19.365435 10.046674 19.592317 9.9664311 19.816406 9.9609375 z M 8 17 A 1 1 0 0 0 7 18 A 1 1 0 0 0 8 19 L 9 19 A 1 1 0 0 0 10 18 A 1 1 0 0 0 9 17 L 8 17 z "/>
</svg>
