<?xml version="1.0" encoding="UTF-8" standalone="no"?>
<svg xmlns="http://www.w3.org/2000/svg" xmlns:svg="http://www.w3.org/2000/svg" width="24" height="24" viewBox="0 0 24 24" fill="currentColor" tags="copy,paste" categories="text,arrows">
  <path d="M 9 1 C 7.9072773 1 7 1.9072773 7 3 L 6 3 C 4.3549936 3 3 4.3549936 3 6 L 3 20 C 3 21.645006 4.3549936 23 6 23 L 18 23 C 19.645006 23 21 21.645006 21 20 A 1 1 0 0 0 20 19 A 1 1 0 0 0 19 20 C 19 20.564128 18.564128 21 18 21 L 6 21 C 5.4358718 21 5 20.564128 5 20 L 5 6 C 5 5.4358718 5.4358718 5 6 5 L 7 5 C 7 5.5222212 7.1913296 6.0546109 7.5683594 6.4316406 C 7.9453891 6.8086704 8.4777788 7 9 7 L 15 7 C 15.522221 7 16.05461 6.8086704 16.431641 6.4316406 C 16.80867 6.0546109 17 5.5222212 17 5 L 18 5 C 18.564128 5 19 5.4358718 19 6 L 19 8 A 1 1 0 0 0 20 9 A 1 1 0 0 0 21 8 L 21 6 C 21 4.3549936 19.645006 3 18 3 L 17 3 C 17 2.4777788 16.80867 1.9453891 16.431641 1.5683594 C 16.05461 1.1913296 15.522221 1 15 1 L 9 1 z M 9 3 L 15 3 L 15 5 L 9 5 L 9 3 z M 17 9 A 1 1 0 0 0 16.292969 9.2929688 A 1 1 0 0 0 16.292969 10.707031 L 18.585938 13 L 11 13 A 1 1 0 0 0 10 14 A 1 1 0 0 0 11 15 L 18.585938 15 L 16.292969 17.292969 A 1 1 0 0 0 16.292969 18.707031 A 1 1 0 0 0 17.707031 18.707031 L 21.707031 14.707031 A 1.0001 1.0001 0 0 0 21.923828 14.382812 A 1.0001 1.0001 0 0 0 22 14 A 1 1 0 0 0 21.994141 13.902344 A 1.0001 1.0001 0 0 0 21.992188 13.890625 A 1 1 0 0 0 21.984375 13.830078 A 1.0001 1.0001 0 0 0 21.958984 13.71875 A 1.0001 1.0001 0 0 0 21.917969 13.603516 A 1 1 0 0 0 21.886719 13.539062 A 1 1 0 0 0 21.880859 13.529297 A 1.0001 1.0001 0 0 0 21.871094 13.511719 A 1 1 0 0 0 21.833984 13.449219 A 1 1 0 0 0 21.832031 13.445312 A 1.0001 1.0001 0 0 0 21.757812 13.347656 A 1.0001 1.0001 0 0 0 21.755859 13.345703 A 1 1 0 0 0 21.751953 13.341797 A 1.0001 1.0001 0 0 0 21.707031 13.292969 L 17.707031 9.2929688 A 1 1 0 0 0 17 9 z "/>
</svg>
