<svg xmlns="http://www.w3.org/2000/svg" xmlns:svg="http://www.w3.org/2000/svg" width="24" height="24" viewBox="0 0 24 24" fill="currentColor" tags="copy,paste,history,log,clock,time,watch,alarm,hour,minute,reminder,scheduled,deadline,pending,time tracking,timesheets,appointment,logbook" categories="time,text">
  <path d="M 9 1 C 7.9092972 1 7 1.9092972 7 3 L 6 3 C 4.3549904 3 3 4.3549904 3 6 L 3 20 C 3 21.64501 4.3549904 23 6 23 L 8 23 A 1 1 0 0 0 9 22 A 1 1 0 0 0 8 21 L 6 21 C 5.4358706 21 5 20.564129 5 20 L 5 6 C 5 5.4358706 5.4358706 5 6 5 L 7 5 C 7 6.0907028 7.9092972 7 9 7 L 15 7 C 16.090703 7 17 6.0907028 17 5 L 18 5 C 18.564129 5 19 5.4358706 19 6 L 19 6.8320312 A 1 1 0 0 0 20 7.8320312 A 1 1 0 0 0 21 6.8320312 L 21 6 C 21 4.3549904 19.64501 3 18 3 L 17 3 C 17 1.9092972 16.090703 1 15 1 L 9 1 z M 9 3 L 15 3 L 15 4 L 15 5 L 9 5 L 9 4 L 9 3 z M 16 9 C 12.145851 9 9 12.145851 9 16 C 9 19.854149 12.145851 23 16 23 C 19.854149 23 23 19.854149 23 16 C 23 12.145851 19.854149 9 16 9 z M 16 11 C 18.773268 11 21 13.226732 21 16 C 21 18.773268 18.773268 21 16 21 C 13.226732 21 11 18.773268 11 16 C 11 13.226732 13.226732 11 16 11 z M 16 13 A 1 1 0 0 0 15 14 L 15 16.199219 A 1.0001 1.0001 0 0 0 15.470703 17.048828 L 17.070312 18.048828 A 1 1 0 0 0 18.447266 17.730469 A 1 1 0 0 0 18.130859 16.351562 L 17 15.646484 L 17 14 A 1 1 0 0 0 16 13 z "/>
</svg>
