<svg xmlns="http://www.w3.org/2000/svg" xmlns:svg="http://www.w3.org/2000/svg" width="24" height="24" viewBox="0 0 24 24" fill="currentColor" tags="copy,delete,remove,erase,document,medical,report,doctor" categories="text,medical">
  <path d="M 9 1 C 7.9092972 1 7 1.9092972 7 3 L 6 3 C 4.3549904 3 3 4.3549904 3 6 L 3 20 C 3 21.64501 4.3549904 23 6 23 L 18 23 C 19.64501 23 21 21.64501 21 20 L 21 6 C 21 4.3549904 19.64501 3 18 3 L 17 3 C 17 1.9092972 16.090703 1 15 1 L 9 1 z M 9 3 L 15 3 L 15 5 L 9 5 L 9 3 z M 6 5 L 7 5 C 7 6.0907028 7.9092972 7 9 7 L 15 7 C 16.090703 7 17 6.0907028 17 5 L 18 5 C 18.564129 5 19 5.4358706 19 6 L 19 20 C 19 20.564129 18.564129 21 18 21 L 6 21 C 5.4358706 21 5 20.564129 5 20 L 5 6 C 5 5.4358706 5.4358706 5 6 5 z M 9 13 A 1 1 0 0 0 8 14 A 1 1 0 0 0 9 15 L 15 15 A 1 1 0 0 0 16 14 A 1 1 0 0 0 15 13 L 9 13 z "/>
</svg>
