<?xml version="1.0" encoding="UTF-8" standalone="no"?>
<svg xmlns="http://www.w3.org/2000/svg" xmlns:svg="http://www.w3.org/2000/svg" width="24" height="24" viewBox="0 0 24 24" fill="currentColor" tags="copy,paste,discard,remove" categories="text">
  
  <path d="M 9 1 C 7.9092994 1 7 1.9092994 7 3 L 6 3 C 4.3549936 3 3 4.3549936 3 6 L 3 20 C 3 21.645006 4.3549936 23 6 23 L 18 23 C 19.645006 23 21 21.645006 21 20 L 21 6 C 21 4.3549936 19.645006 3 18 3 L 17 3 C 17 1.9092994 16.090701 1 15 1 L 9 1 z M 9 3 L 15 3 L 15 5 L 9 5 L 9 3 z M 6 5 L 7 5 C 7 6.0907006 7.9092994 7 9 7 L 15 7 C 16.090701 7 17 6.0907006 17 5 L 18 5 C 18.564128 5 19 5.4358718 19 6 L 19 20 C 19 20.564128 18.564128 21 18 21 L 6 21 C 5.4358718 21 5 20.564128 5 20 L 5 6 C 5 5.4358718 5.4358718 5 6 5 z M 9 10 A 1 1 0 0 0 8.2929688 10.292969 A 1 1 0 0 0 8.2929688 11.707031 L 10.585938 14 L 8.2929688 16.292969 A 1 1 0 0 0 8.2929688 17.707031 A 1 1 0 0 0 9.7070312 17.707031 L 12 15.414062 L 14.292969 17.707031 A 1 1 0 0 0 15.707031 17.707031 A 1 1 0 0 0 15.707031 16.292969 L 13.414062 14 L 15.707031 11.707031 A 1 1 0 0 0 15.707031 10.292969 A 1 1 0 0 0 15 10 A 1 1 0 0 0 14.292969 10.292969 L 12 12.585938 L 9.7070312 10.292969 A 1 1 0 0 0 9 10 z "/>
</svg>
