<?xml version="1.0" encoding="UTF-8" standalone="no"?>
<svg xmlns="http://www.w3.org/2000/svg" xmlns:svg="http://www.w3.org/2000/svg" width="24" height="24" viewBox="0 0 24 24" fill="currentColor" tags="time,watch,alarm,warning,wrong" categories="time">
  <path d="M 12.238281 1 C 11.981757 0.99461679 11.724669 0.99746547 11.46875 1.0097656 C 7.3740463 1.2065681 3.3478981 3.6701806 1.6796875 8.1796875 C 0.0114769 12.689194 1.464498 17.179878 4.4453125 19.994141 C 7.426127 22.808403 11.99387 24.001176 16.400391 22.076172 A 1 1 0 0 0 16.916016 20.759766 A 1 1 0 0 0 15.599609 20.244141 C 11.926203 21.848881 8.273079 20.858579 5.8183594 18.541016 C 3.3636397 16.223453 2.1660059 12.632211 3.5566406 8.8730469 C 4.9472753 5.1138832 8.1924388 3.1679275 11.564453 3.0058594 C 14.936468 2.8437913 18.354953 4.4710231 20.099609 8.0800781 A 1 1 0 0 0 21.435547 8.5449219 A 1 1 0 0 0 21.900391 7.2089844 C 19.938349 3.1502409 16.086148 1.0807481 12.238281 1 z M 12 5 A 1 1 0 0 0 11 6 L 11 12 A 1.0001 1.0001 0 0 0 11.552734 12.894531 L 15.552734 14.894531 A 1 1 0 0 0 16.894531 14.447266 A 1 1 0 0 0 16.447266 13.105469 L 13 11.382812 L 13 6 A 1 1 0 0 0 12 5 z M 20 10.5 A 1 1 0 0 0 19 11.5 L 19 17.5 A 1 1 0 0 0 20 18.5 A 1 1 0 0 0 21 17.5 L 21 11.5 A 1 1 0 0 0 20 10.5 z M 20 20.5 A 1 1 0 0 0 19 21.5 A 1 1 0 0 0 20 22.5 L 20.009766 22.5 A 1 1 0 0 0 21.009766 21.5 A 1 1 0 0 0 20.009766 20.5 L 20 20.5 z "/>
</svg>
