<?xml version="1.0" encoding="UTF-8" standalone="no"?>
<svg xmlns="http://www.w3.org/2000/svg" xmlns:svg="http://www.w3.org/2000/svg" width="24" height="24" viewBox="0 0 24 24" fill="currentColor" tags="time,watch,alarm,sort,order,ascending,descending,increasing,decreasing,rising,falling" categories="time">
  <path d="M 12.421875 0.99023438 C 11.881401 0.96646033 11.337246 0.98309214 10.792969 1.0410156 C 8.615858 1.2727096 6.4453875 2.1752617 4.578125 3.8828125 C 0.84360009 7.2979142 0.20586107 12.209356 1.8144531 16.154297 C 3.4230452 20.099238 7.3125289 23.164914 12.371094 22.994141 A 1 1 0 0 0 13.337891 21.960938 A 1 1 0 0 0 12.304688 20.994141 C 8.0754641 21.136916 4.9942486 18.65103 3.6679688 15.398438 C 2.3416888 12.145843 2.8056271 8.2144407 5.9277344 5.359375 C 9.0498417 2.5043093 13.007544 2.3909046 16.128906 4.0019531 C 19.250269 5.6130016 21.450992 8.903874 20.931641 13.103516 A 1 1 0 0 0 21.802734 14.21875 A 1 1 0 0 0 22.917969 13.349609 C 23.539163 8.3264279 20.832652 4.178586 17.046875 2.2246094 C 15.627209 1.4918681 14.043297 1.0615565 12.421875 0.99023438 z M 12 5 A 1 1 0 0 0 11 6 L 11 12 A 1.0001 1.0001 0 0 0 11.552734 12.894531 L 13.552734 13.894531 A 1 1 0 0 0 14.894531 13.447266 A 1 1 0 0 0 14.447266 12.105469 L 13 11.382812 L 13 6 A 1 1 0 0 0 12 5 z M 18 13 A 1 1 0 0 0 17 14 L 17 19.585938 L 14.707031 17.292969 A 1 1 0 0 0 14 17 A 1 1 0 0 0 13.292969 17.292969 A 1 1 0 0 0 13.292969 18.707031 L 17.283203 22.697266 L 17.292969 22.707031 A 1.0001 1.0001 0 0 0 17.341797 22.75 A 1 1 0 0 0 17.384766 22.787109 A 1.0001 1.0001 0 0 0 17.439453 22.824219 A 1 1 0 0 0 17.492188 22.861328 A 1.0001 1.0001 0 0 0 17.5 22.865234 A 1 1 0 0 0 17.611328 22.921875 A 1.0001 1.0001 0 0 0 17.617188 22.923828 A 1 1 0 0 0 17.742188 22.964844 A 1 1 0 0 0 17.794922 22.976562 A 1.0001 1.0001 0 0 0 18 23 A 1.0001 1.0001 0 0 0 18.205078 22.976562 A 1.0001 1.0001 0 0 0 18.257812 22.964844 A 1 1 0 0 0 18.382812 22.923828 A 1.0001 1.0001 0 0 0 18.560547 22.824219 A 1 1 0 0 0 18.615234 22.787109 A 1.0001 1.0001 0 0 0 18.658203 22.75 A 1 1 0 0 0 18.716797 22.697266 L 22.707031 18.707031 A 1 1 0 0 0 22.707031 17.292969 A 1 1 0 0 0 21.292969 17.292969 L 19 19.585938 L 19 14 A 1 1 0 0 0 18 13 z "/>
</svg>
