<?xml version="1.0" encoding="UTF-8" standalone="no"?>
<svg xmlns="http://www.w3.org/2000/svg" xmlns:svg="http://www.w3.org/2000/svg" width="24" height="24" viewBox="0 0 24 24" fill="currentColor" tags="time,watch,alarm,add,create,new" categories="time">
  <path d="M 12.107422 0.98242188 C 11.556365 0.97360197 11.00175 1.0058591 10.449219 1.0820312 C 8.2390943 1.3867198 6.0572496 2.3880629 4.2226562 4.2226562 C 0.55346962 7.8918429 0.2132907 12.949059 2.125 16.845703 C 4.0367093 20.742347 8.2461572 23.569432 13.394531 22.912109 A 1 1 0 0 0 14.259766 21.792969 A 1 1 0 0 0 13.140625 20.927734 C 8.8296543 21.478141 5.499113 19.179734 3.921875 15.964844 C 2.344637 12.749954 2.5645406 8.7088969 5.6367188 5.6367188 C 8.7088969 2.5645406 12.749954 2.344637 15.964844 3.921875 C 19.179734 5.499113 21.478141 8.8296543 20.927734 13.140625 A 1 1 0 0 0 21.792969 14.259766 A 1 1 0 0 0 22.912109 13.394531 C 23.569432 8.2461573 20.742347 4.0367093 16.845703 2.125 C 15.384462 1.408109 13.760594 1.0088816 12.107422 0.98242188 z M 12 5 A 1 1 0 0 0 11 6 L 11 12 A 1.0001 1.0001 0 0 0 11.552734 12.894531 L 15.197266 14.716797 A 1 1 0 0 0 16.539062 14.269531 A 1 1 0 0 0 16.091797 12.927734 L 13 11.382812 L 13 6 A 1 1 0 0 0 12 5 z M 19 15 A 1 1 0 0 0 18 16 L 18 18 L 16 18 A 1 1 0 0 0 15 19 A 1 1 0 0 0 16 20 L 18 20 L 18 22 A 1 1 0 0 0 19 23 A 1 1 0 0 0 20 22 L 20 20 L 22 20 A 1 1 0 0 0 23 19 A 1 1 0 0 0 22 18 L 20 18 L 20 16 A 1 1 0 0 0 19 15 z "/>
</svg>
