<?xml version="1.0" encoding="UTF-8" standalone="no"?>
<svg xmlns="http://www.w3.org/2000/svg" xmlns:svg="http://www.w3.org/2000/svg" width="24" height="24" viewBox="0 0 24 24" fill="currentColor" tags="time,watch,alarm,warning,wrong" categories="time">
  <path d="M 12.238281 1 C 11.981757 0.99461676 11.724668 0.9974655 11.46875 1.0097656 C 7.3740545 1.2065677 3.3478947 3.6701896 1.6796875 8.1796875 C 0.011480238 12.689185 1.464504 17.179883 4.4453125 19.994141 C 7.426121 22.808397 11.993879 24.001172 16.400391 22.076172 A 1 1 0 0 0 16.916016 20.759766 A 1 1 0 0 0 15.599609 20.244141 C 11.926211 21.848878 8.2730741 20.858573 5.8183594 18.541016 C 3.3636446 16.223457 2.1660087 12.632203 3.5566406 8.8730469 C 4.9472725 5.1138907 8.1924456 3.1679271 11.564453 3.0058594 C 14.936461 2.8437915 18.354957 4.4710303 20.099609 8.0800781 A 1 1 0 0 0 21.435547 8.5449219 A 1 1 0 0 0 21.900391 7.2089844 C 19.938353 3.150249 16.086141 1.0807486 12.238281 1 z M 12 5 A 1 1 0 0 0 11 6 L 11 12 A 1.0001 1.0001 0 0 0 11.552734 12.894531 L 15.552734 14.894531 A 1 1 0 0 0 16.894531 14.447266 A 1 1 0 0 0 16.447266 13.105469 L 13 11.382812 L 13 6 A 1 1 0 0 0 12 5 z M 20 10.5 A 1 1 0 0 0 19 11.5 L 19 17.5 A 1 1 0 0 0 20 18.5 A 1 1 0 0 0 21 17.5 L 21 11.5 A 1 1 0 0 0 20 10.5 z M 20 20.5 A 1 1 0 0 0 19 21.5 A 1 1 0 0 0 20 22.5 L 20.009766 22.5 A 1 1 0 0 0 21.009766 21.5 A 1 1 0 0 0 20.009766 20.5 L 20 20.5 z "/>
</svg>
