<?xml version="1.0" encoding="UTF-8" standalone="no"?>
<svg xmlns="http://www.w3.org/2000/svg" xmlns:svg="http://www.w3.org/2000/svg" width="24" height="24" viewBox="0 0 24 24" fill="currentColor" tags="time,watch,alarm,sort,order,ascending,descending,increasing,decreasing,rising,falling" categories="time">
  <path d="M 11.609375 0.984375 C 11.337606 0.99265586 11.065107 1.0120539 10.792969 1.0410156 C 8.6158623 1.2727092 6.4453837 2.1752651 4.578125 3.8828125 C 0.84360756 7.2979074 0.20586428 12.209364 1.8144531 16.154297 C 3.423042 20.09923 7.3125391 23.164913 12.371094 22.994141 A 1 1 0 0 0 13.337891 21.960938 A 1 1 0 0 0 12.304688 20.994141 C 8.0754725 21.136915 4.9942459 18.651024 3.6679688 15.398438 C 2.3416915 12.14585 2.8056333 8.2144349 5.9277344 5.359375 C 9.0498354 2.5043151 13.00755 2.3909078 16.128906 4.0019531 C 19.250263 5.6129984 21.45099 8.9038824 20.931641 13.103516 A 1 1 0 0 0 21.802734 14.21875 A 1 1 0 0 0 22.917969 13.349609 C 23.539162 8.3264379 20.832644 4.1785821 17.046875 2.2246094 C 15.390601 1.3697463 13.511759 0.92640901 11.609375 0.984375 z M 12 5 A 1 1 0 0 0 11 6 L 11 12 A 1.0001 1.0001 0 0 0 11.552734 12.894531 L 13.552734 13.894531 A 1 1 0 0 0 14.894531 13.447266 A 1 1 0 0 0 14.447266 12.105469 L 13 11.382812 L 13 6 A 1 1 0 0 0 12 5 z M 18 13 A 1 1 0 0 0 17 14 L 17 19.585938 L 14.707031 17.292969 A 1 1 0 0 0 14 17 A 1 1 0 0 0 13.292969 17.292969 A 1 1 0 0 0 13.292969 18.707031 L 17.292969 22.707031 A 1.0001 1.0001 0 0 0 17.5 22.865234 A 1 1 0 0 0 18 23 A 1 1 0 0 0 18.5 22.865234 A 1 1 0 0 0 18.707031 22.707031 L 22.707031 18.707031 A 1 1 0 0 0 22.707031 17.292969 A 1 1 0 0 0 21.292969 17.292969 L 19 19.585938 L 19 14 A 1 1 0 0 0 18 13 z "/>
</svg>
