<?xml version="1.0" encoding="UTF-8" standalone="no"?>
<svg xmlns="http://www.w3.org/2000/svg" xmlns:svg="http://www.w3.org/2000/svg" width="24" height="24" viewBox="0 0 24 24" fill="currentColor" tags="time,watch,alarm,warning,wrong" categories="time">
  <path d="M 11.974609 0.99609375 C 7.825058 1.0054874 3.6372243 3.336665 1.8027344 7.8652344 C -0.031755545 12.393804 1.3511067 16.982221 4.3242188 19.876953 C 7.2973308 22.771685 11.922112 24.03163 16.400391 22.076172 A 1 1 0 0 0 16.916016 20.759766 A 1 1 0 0 0 15.599609 20.244141 C 11.863116 21.875695 8.1699561 20.829997 5.7207031 18.445312 C 3.2714501 16.060629 2.1276269 12.395524 3.6582031 8.6171875 C 5.1887794 4.8388507 8.5601098 3.0038321 11.978516 2.9960938 C 15.396921 2.9883537 18.776694 4.8080071 20.324219 8.5800781 A 1 1 0 0 0 21.628906 9.125 A 1 1 0 0 0 22.175781 7.8203125 C 20.321035 3.2993931 16.124161 0.98670011 11.974609 0.99609375 z M 12 5 A 1 1 0 0 0 11 6 L 11 12 A 1.0001 1.0001 0 0 0 11.552734 12.894531 L 15.552734 14.894531 A 1 1 0 0 0 16.894531 14.447266 A 1 1 0 0 0 16.447266 13.105469 L 13 11.382812 L 13 6 A 1 1 0 0 0 12 5 z M 20 11 A 1 1 0 0 0 19 12 L 19 17 A 1 1 0 0 0 20 18 A 1 1 0 0 0 21 17 L 21 12 A 1 1 0 0 0 20 11 z M 20 20 A 1 1 0 0 0 19 21 A 1 1 0 0 0 20 22 L 20.009766 22 A 1 1 0 0 0 21.009766 21 A 1 1 0 0 0 20.009766 20 L 20 20 z "/>
</svg>
