<svg xmlns="http://www.w3.org/2000/svg" xmlns:svg="http://www.w3.org/2000/svg" width="24" height="24" viewBox="0 0 24 24" fill="currentColor" tags="time,watch,alarm" categories="time">
  <path d="M 12.013672 0.98632812 C 11.499737 0.98335436 10.983584 1.0171831 10.46875 1.0878906 C 8.4094149 1.3707207 6.3749367 2.2553662 4.6210938 3.8417969 C 1.1134079 7.0146582 0.28671817 11.589471 1.5507812 15.435547 C 2.8148444 19.281623 6.1939266 22.472295 10.900391 22.945312 A 1 1 0 0 0 11.994141 22.050781 A 1 1 0 0 0 11.099609 20.955078 C 7.1795431 20.561097 4.4898198 17.97671 3.4492188 14.810547 C 2.4086177 11.644383 3.0413596 7.9688295 5.9628906 5.3261719 C 8.8844217 2.6835143 12.604141 2.4214744 15.650391 3.7734375 C 18.69664 5.1254006 20.999951 8.0601848 21 12 A 1 1 0 0 0 22 13 A 1 1 0 0 0 23 12 C 22.999941 7.2698261 20.163302 3.5876005 16.462891 1.9453125 C 15.075236 1.3294545 13.555476 0.99524943 12.013672 0.98632812 z M 12 5 A 1 1 0 0 0 11 6 L 11 12 A 1.0001 1.0001 0 0 0 11.552734 12.894531 L 15.552734 14.894531 A 1 1 0 0 0 16.894531 14.447266 A 1 1 0 0 0 16.447266 13.105469 L 13 11.382812 L 13 6 A 1 1 0 0 0 12 5 z M 22 15 A 1 1 0 0 0 21.292969 15.292969 L 16.5 20.085938 L 14.707031 18.292969 A 1 1 0 0 0 13.292969 18.292969 A 1 1 0 0 0 13.292969 19.707031 L 15.792969 22.207031 A 1.0001 1.0001 0 0 0 17.207031 22.207031 L 22.707031 16.707031 A 1 1 0 0 0 22.707031 15.292969 A 1 1 0 0 0 22 15 z "/>
</svg>
