<?xml version="1.0" encoding="UTF-8" standalone="no"?>
<svg xmlns="http://www.w3.org/2000/svg" xmlns:svg="http://www.w3.org/2000/svg" width="24" height="24" viewBox="0 0 24 24" fill="currentColor" tags="time,watch,alarm,sort,order,ascending,descending,increasing,decreasing,rising,falling" categories="time">
  <path d="M 11.841797 0.98632812 C 9.0082791 1.0099882 6.1237893 2.1272883 3.8828125 4.578125 C 0.46799072 8.3127333 0.27056452 13.261224 2.2246094 17.046875 C 4.1786542 20.832526 8.3265566 23.539165 13.349609 22.917969 A 1 1 0 0 0 14.21875 21.802734 A 1 1 0 0 0 13.103516 20.931641 C 8.903988 21.450992 5.6130568 19.250164 4.0019531 16.128906 C 2.3908494 13.007649 2.5025945 9.0499067 5.3574219 5.9277344 C 8.2122493 2.805562 12.145806 2.3400093 15.398438 3.6660156 C 18.651069 4.9920219 21.136487 8.0736105 20.994141 12.302734 A 1 1 0 0 0 21.960938 13.335938 A 1 1 0 0 0 22.994141 12.371094 C 23.164401 7.3126394 20.097333 3.4227145 16.152344 1.8144531 C 15.166096 1.4123878 14.119301 1.1510564 13.050781 1.0429688 C 12.650086 1.0024359 12.246585 0.98294811 11.841797 0.98632812 z M 12 5 A 1 1 0 0 0 11 6 L 11 12 A 1.0001 1.0001 0 0 0 11.552734 12.894531 L 13.113281 13.673828 A 1 1 0 0 0 14.455078 13.226562 A 1 1 0 0 0 14.007812 11.884766 L 13 11.382812 L 13 6 A 1 1 0 0 0 12 5 z M 18 13 A 1.0001 1.0001 0 0 0 17.794922 13.023438 A 1 1 0 0 0 17.742188 13.035156 A 1 1 0 0 0 17.617188 13.076172 A 1 1 0 0 0 17.611328 13.078125 A 1.0001 1.0001 0 0 0 17.5 13.134766 A 1 1 0 0 0 17.439453 13.175781 A 1.0001 1.0001 0 0 0 17.384766 13.212891 A 1 1 0 0 0 17.341797 13.25 A 1.0001 1.0001 0 0 0 17.292969 13.292969 A 1 1 0 0 0 17.283203 13.302734 L 13.292969 17.292969 A 1 1 0 0 0 13.292969 18.707031 A 1 1 0 0 0 14.707031 18.707031 L 17 16.414062 L 17 22 A 1 1 0 0 0 18 23 A 1 1 0 0 0 19 22 L 19 16.414062 L 21.292969 18.707031 A 1 1 0 0 0 22.707031 18.707031 A 1 1 0 0 0 22.707031 17.292969 L 18.716797 13.302734 A 1 1 0 0 0 18.658203 13.25 A 1.0001 1.0001 0 0 0 18.615234 13.212891 A 1 1 0 0 0 18.560547 13.175781 A 1.0001 1.0001 0 0 0 18.382812 13.076172 A 1 1 0 0 0 18.257812 13.035156 A 1.0001 1.0001 0 0 0 18.205078 13.023438 A 1.0001 1.0001 0 0 0 18 13 z "/>
</svg>
