<?xml version="1.0" encoding="UTF-8" standalone="no"?>
<svg xmlns="http://www.w3.org/2000/svg" xmlns:svg="http://www.w3.org/2000/svg" width="24" height="24" viewBox="0 0 24 24" fill="currentColor" tags="time,watch,alarm,sort,order,ascending,descending,increasing,decreasing,rising,falling" categories="time">
  <path d="M 11.84375 0.98632812 C 9.0098314 1.0099078 6.1238808 2.1271643 3.8828125 4.578125 C 0.46785123 8.3129224 0.27225723 13.261196 2.2265625 17.046875 C 4.1808677 20.832554 8.3283373 23.539684 13.351562 22.917969 A 1 1 0 0 0 14.220703 21.802734 A 1 1 0 0 0 13.105469 20.931641 C 8.9057856 21.451428 5.6132735 19.252144 4.0019531 16.130859 C 2.3906327 13.009575 2.5024696 9.0500737 5.3574219 5.9277344 C 8.212374 2.805395 12.145747 2.3417806 15.398438 3.6679688 C 18.651127 4.9941568 21.136866 8.0753674 20.994141 12.304688 A 1 1 0 0 0 21.960938 13.337891 A 1 1 0 0 0 22.994141 12.371094 C 23.164854 7.3124203 20.099353 3.422933 16.154297 1.8144531 C 15.168033 1.4123332 14.121287 1.1510943 13.052734 1.0429688 C 12.652027 1.0024217 12.248596 0.9829596 11.84375 0.98632812 z M 12 5 A 1 1 0 0 0 11 6 L 11 12 A 1.0001 1.0001 0 0 0 11.552734 12.894531 L 13.115234 13.675781 A 1 1 0 0 0 14.457031 13.228516 A 1 1 0 0 0 14.009766 11.886719 L 13 11.382812 L 13 6 A 1 1 0 0 0 12 5 z M 18 13 A 1 1 0 0 0 17.5 13.134766 A 1.0001 1.0001 0 0 0 17.292969 13.292969 L 13.292969 17.292969 A 1 1 0 0 0 13.292969 18.707031 A 1 1 0 0 0 14.707031 18.707031 L 17 16.414062 L 17 22 A 1 1 0 0 0 18 23 A 1 1 0 0 0 19 22 L 19 16.414062 L 21.292969 18.707031 A 1 1 0 0 0 22.707031 18.707031 A 1 1 0 0 0 22.707031 17.292969 L 18.738281 13.326172 A 1 1 0 0 0 18.699219 13.287109 A 1 1 0 0 0 18.503906 13.136719 A 1 1 0 0 0 18.496094 13.132812 A 1 1 0 0 0 18.259766 13.035156 A 1 1 0 0 0 18.257812 13.035156 A 1.0001 1.0001 0 0 0 18.255859 13.035156 A 1 1 0 0 0 18 13 z "/>
</svg>
