<svg xmlns="http://www.w3.org/2000/svg" xmlns:svg="http://www.w3.org/2000/svg" width="24" height="24" viewBox="0 0 24 24" fill="currentColor" tags="tv,movie,video,closed captions,subtitles,subhead,transcription,transcribe,dialogue,accessibility" categories="accessibility,multimedia">
  <path d="M 4 4 C 2.3552972 4 1 5.3552972 1 7 L 1 17 C 1 18.644703 2.3552972 20 4 20 L 20 20 C 21.644703 20 23 18.644703 23 17 L 23 7 C 23 5.3552972 21.644703 4 20 4 L 4 4 z M 4 6 L 20 6 C 20.571297 6 21 6.4287028 21 7 L 21 17 C 21 17.571297 20.571297 18 20 18 L 4 18 C 3.4287028 18 3 17.571297 3 17 L 3 7 C 3 6.4287028 3.4287028 6 4 6 z M 8.8847656 8.0058594 C 8.7261421 8.0116625 8.5690732 8.0262188 8.4140625 8.0507812 C 6.5539345 8.3455299 5.0039062 9.9544783 5.0039062 12 C 5.0039064 14.727362 7.7592021 16.678509 10.332031 15.773438 A 1 1 0 0 0 10.943359 14.498047 A 1 1 0 0 0 9.6679688 13.886719 C 8.3381039 14.35454 7.0039064 13.409737 7.0039062 12 C 7.0039062 10.590263 8.338104 9.6454604 9.6679688 10.113281 A 1 1 0 0 0 10.943359 9.5019531 A 1 1 0 0 0 10.332031 8.2265625 C 9.8496259 8.0568614 9.3606361 7.9884499 8.8847656 8.0058594 z M 15.884766 8.0058594 C 15.726142 8.0116625 15.569073 8.0262188 15.414062 8.0507812 C 13.553933 8.3455299 12.003906 9.9544783 12.003906 12 C 12.003906 14.727362 14.759202 16.678509 17.332031 15.773438 A 1 1 0 0 0 17.943359 14.498047 A 1 1 0 0 0 16.667969 13.886719 C 15.338104 14.35454 14.003906 13.409737 14.003906 12 C 14.003906 10.590263 15.338104 9.6454604 16.667969 10.113281 A 1 1 0 0 0 17.943359 9.5019531 A 1 1 0 0 0 17.332031 8.2265625 C 16.849626 8.0568614 16.360636 7.9884499 15.884766 8.0058594 z "/>
</svg>
