<svg xmlns="http://www.w3.org/2000/svg" xmlns:svg="http://www.w3.org/2000/svg" width="24" height="24" viewBox="0 0 24 24" fill="currentColor" tags="weather,bolt" categories="weather">
  <path d="M 8.7773438 2.0214844 C 8.3243327 2.03008 7.8689197 2.0776307 7.4179688 2.1660156 C 6.1349894 2.4174754 4.8867937 2.9934439 3.7949219 3.9296875 C -0.57256559 7.6746618 0.37316283 14.760679 5.5703125 17.228516 A 1 1 0 0 0 6.9042969 16.755859 A 1 1 0 0 0 6.4296875 15.421875 C 2.4725106 13.542832 1.7722033 8.2987302 5.0976562 5.4472656 C 8.4231093 2.595801 13.498666 4.0876186 14.751953 8.2851562 A 1.0001 1.0001 0 0 0 15.710938 9 L 17.5 9 A 1.0001 1.0001 0 0 0 17.501953 9 C 18.678023 8.99795 19.474277 9.399063 20.046875 10 C 20.619473 10.600937 20.953712 11.438946 21.001953 12.304688 C 21.050193 13.170428 20.810882 14.042292 20.308594 14.703125 C 19.806305 15.363958 19.059642 15.849893 17.890625 15.978516 A 1 1 0 0 0 17.005859 17.082031 A 1 1 0 0 0 18.109375 17.966797 C 19.765755 17.784552 21.080357 16.993552 21.902344 15.912109 C 22.724284 14.830667 23.072497 13.494391 23 12.193359 C 22.927503 10.892327 22.431188 9.604518 21.494141 8.6210938 C 20.557093 7.6376693 19.16442 6.9970924 17.498047 7 L 16.349609 7 C 15.046022 3.8143968 11.948421 1.961315 8.7773438 2.0214844 z M 13.015625 11 A 1 1 0 0 0 12.142578 11.486328 L 9.1425781 16.486328 A 1.0001 1.0001 0 0 0 10 18 L 12.234375 18 L 10.142578 21.486328 A 1 1 0 0 0 10.486328 22.857422 A 1 1 0 0 0 11.857422 22.513672 L 14.857422 17.513672 A 1.0001 1.0001 0 0 0 14 16 L 11.765625 16 L 13.857422 12.513672 A 1 1 0 0 0 13.513672 11.142578 A 1 1 0 0 0 13.015625 11 z "/>
</svg>
