<?xml version="1.0" encoding="UTF-8" standalone="no"?>
<svg xmlns="http://www.w3.org/2000/svg" xmlns:svg="http://www.w3.org/2000/svg" width="24" height="24" viewBox="0 0 24 24" fill="currentColor" tags="weather,rainfall" categories="weather">
  <path d="M 9.0644531 2.0097656 C 8.8592441 2.0065391 8.6521663 2.0117597 8.4453125 2.0253906 C 7.2526812 2.1039809 6.0553745 2.4530755 4.9414062 3.109375 C 0.48553314 5.734573 -0.33233814 11.901656 3.2851562 15.597656 A 1 1 0 0 0 4.6992188 15.613281 A 1 1 0 0 0 4.7148438 14.199219 C 1.9724857 11.397342 2.5791142 6.8240997 5.9570312 4.8339844 C 9.3349485 2.8438691 13.630291 4.5284437 14.751953 8.2851562 A 1.0001 1.0001 0 0 0 15.710938 9 L 17.5 9 C 19.293053 8.9997956 20.430887 10.103931 20.849609 11.484375 C 21.268332 12.864819 20.936339 14.41422 19.445312 15.410156 A 1 1 0 0 0 19.167969 16.796875 A 1 1 0 0 0 20.554688 17.074219 C 22.764526 15.598147 23.407533 13.026978 22.763672 10.904297 C 22.119811 8.7816161 20.157475 6.9996971 17.5 7 L 16.255859 7 C 14.989776 3.977573 12.142589 2.0581641 9.0644531 2.0097656 z M 8.8808594 12.005859 A 1 1 0 0 0 8.0800781 12.605469 L 5.0800781 19.605469 A 1 1 0 0 0 5.6054688 20.919922 A 1 1 0 0 0 6.9199219 20.394531 L 9.9199219 13.394531 A 1 1 0 0 0 9.3945312 12.080078 A 1 1 0 0 0 8.8808594 12.005859 z M 16.880859 12.005859 A 1 1 0 0 0 16.080078 12.605469 L 13.080078 19.605469 A 1 1 0 0 0 13.605469 20.919922 A 1 1 0 0 0 14.919922 20.394531 L 17.919922 13.394531 A 1 1 0 0 0 17.394531 12.080078 A 1 1 0 0 0 16.880859 12.005859 z M 12.082031 14.005859 A 1 1 0 0 0 11.28125 14.605469 L 8.28125 21.605469 A 1 1 0 0 0 8.8066406 22.919922 A 1 1 0 0 0 10.119141 22.394531 L 13.119141 15.394531 A 1 1 0 0 0 12.59375 14.080078 A 1 1 0 0 0 12.082031 14.005859 z "/>
</svg>
