<?xml version="1.0" encoding="UTF-8" standalone="no"?>
<svg xmlns="http://www.w3.org/2000/svg" xmlns:svg="http://www.w3.org/2000/svg" width="24" height="24" viewBox="0 0 24 24" fill="currentColor" tags="computing,ai,cluster,network" categories="development">
  <path d="M 9.1640625 2.015625 C 7.0733884 1.973391 4.9651937 2.7397666 3.3652344 4.328125 C 0.16531567 7.5048419 0.2327284 12.735156 3.5136719 15.828125 A 1 1 0 0 0 4.9277344 15.785156 A 1 1 0 0 0 4.8867188 14.373047 C 2.4093035 12.03757 2.359156 8.146762 4.7753906 5.7480469 C 7.1916253 3.3493317 11.079097 3.4275297 13.396484 5.921875 A 1.0001 1.0001 0 0 0 13.398438 5.9238281 C 14.025184 6.5975755 14.487761 7.4056625 14.751953 8.2871094 A 1.0001 1.0001 0 0 0 15.710938 9 L 17.486328 9 C 19.248789 9.02376 20.371448 10.115146 20.787109 11.478516 C 21.202771 12.841885 20.881069 14.373959 19.431641 15.376953 A 1 1 0 0 0 19.177734 16.769531 A 1 1 0 0 0 20.568359 17.021484 C 22.721551 15.531489 23.340995 12.995104 22.701172 10.896484 C 22.061349 8.7978652 20.131892 7.0352962 17.513672 7 A 1.0001 1.0001 0 0 0 17.5 7 L 16.259766 7 C 15.896106 6.1276486 15.508017 5.2557327 14.861328 4.5605469 C 13.326934 2.9096637 11.254223 2.0578491 9.1640625 2.015625 z M 10.46875 12.304688 A 1 1 0 0 0 10.085938 12.380859 A 1 1 0 0 0 9.5449219 13.6875 L 9.5878906 13.791016 C 9.2671366 14.020596 8.9909677 14.286159 8.7636719 14.576172 L 8.6875 14.544922 A 1 1 0 0 0 7.3808594 15.085938 A 1 1 0 0 0 7.921875 16.392578 L 8.0039062 16.425781 C 7.957931 16.807194 7.9688113 17.189797 8.0292969 17.5625 L 7.921875 17.607422 A 1 1 0 0 0 7.3808594 18.914062 A 1 1 0 0 0 8.6875 19.455078 L 8.7929688 19.410156 C 9.0133593 19.715999 9.2763134 19.995604 9.578125 20.232422 L 9.5449219 20.3125 A 1 1 0 0 0 10.085938 21.619141 A 1 1 0 0 0 11.392578 21.078125 L 11.445312 20.951172 C 11.794784 20.971478 12.158956 20.94744 12.527344 20.890625 L 12.605469 21.078125 A 1 1 0 0 0 13.912109 21.621094 A 1 1 0 0 0 14.455078 20.314453 L 14.412109 20.208984 C 14.733128 19.979303 15.008886 19.714028 15.236328 19.423828 L 15.3125 19.455078 A 1 1 0 0 0 16.619141 18.914062 A 1 1 0 0 0 16.078125 17.607422 L 15.996094 17.574219 C 16.042069 17.192807 16.031189 16.810202 15.970703 16.4375 L 16.078125 16.392578 A 1 1 0 0 0 16.619141 15.085938 A 1 1 0 0 0 15.3125 14.544922 L 15.207031 14.589844 C 14.986641 14.284001 14.723686 14.004396 14.421875 13.767578 L 14.455078 13.6875 A 1 1 0 0 0 13.914062 12.380859 A 1 1 0 0 0 12.607422 12.921875 L 12.554688 13.048828 C 12.204568 13.028396 11.839783 13.052281 11.470703 13.109375 L 11.392578 12.921875 A 1 1 0 0 0 10.46875 12.304688 z M 12.097656 14.957031 C 12.24941 14.955899 12.390481 14.974885 12.523438 15.009766 A 1 1 0 0 0 12.765625 15.152344 A 1 1 0 0 0 13.009766 15.21875 C 13.370217 15.44238 13.670649 15.806967 13.847656 16.234375 C 14.024733 16.66195 14.069529 17.133663 13.972656 17.546875 A 1 1 0 0 0 13.847656 17.765625 A 1 1 0 0 0 13.777344 18.037109 C 13.592354 18.353564 13.288467 18.631126 12.765625 18.847656 A 1 1 0 0 0 12.763672 18.847656 C 12.241151 19.063786 11.831116 19.083252 11.476562 18.990234 A 1 1 0 0 0 11.234375 18.847656 A 1 1 0 0 0 10.990234 18.78125 C 10.629782 18.55762 10.329352 18.193034 10.152344 17.765625 C 9.9752656 17.338047 9.9304683 16.866339 10.027344 16.453125 A 1 1 0 0 0 10.152344 16.234375 A 1 1 0 0 0 10.222656 15.962891 C 10.407645 15.646432 10.711527 15.368877 11.234375 15.152344 L 11.236328 15.152344 C 11.562901 15.017264 11.844733 14.958918 12.097656 14.957031 z "/>
</svg>
