<svg xmlns="http://www.w3.org/2000/svg" xmlns:svg="http://www.w3.org/2000/svg" width="24" height="24" viewBox="0 0 24 24" fill="currentColor" tags="synchronize,synchronise,refresh,reconnect,transfer,backup,storage,upload,download,connection,network,data" categories="arrows,files">
  <path d="M 9.1289062 2.0078125 C 8.0092656 1.9862833 6.8666471 2.2015176 5.7695312 2.6855469 C 1.3810683 4.6216639 -0.3291589 10.008059 2.1386719 14.121094 A 1 1 0 0 0 3.5097656 14.464844 A 1 1 0 0 0 3.8535156 13.091797 C 1.9871296 9.9811663 3.2572384 5.9798834 6.5761719 4.515625 C 9.8951054 3.0513666 13.706779 4.8115887 14.746094 8.2871094 A 1.0001 1.0001 0 0 0 15.705078 9 L 17.482422 9 C 20.431108 9.039235 22.008129 12.305156 20.205078 14.638672 A 1 1 0 0 0 20.384766 16.042969 A 1 1 0 0 0 21.787109 15.863281 C 24.521274 12.324713 21.979231 7.0594967 17.507812 7 A 1.0001 1.0001 0 0 0 17.494141 7 L 16.265625 7 C 15.019003 4.0149478 12.221335 2.0672757 9.1289062 2.0078125 z M 7 9 A 1 1 0 0 0 6 10 L 6 13.980469 L 6 14 A 1.0001 1.0001 0 0 0 6.0039062 14.048828 A 1 1 0 0 0 6.0078125 14.125 A 1.0001 1.0001 0 0 0 6.0078125 14.130859 A 1 1 0 0 0 6.0332031 14.253906 A 1.0001 1.0001 0 0 0 6.0664062 14.351562 A 1.0001 1.0001 0 0 0 6.0761719 14.382812 A 1 1 0 0 0 6.0761719 14.384766 A 1.0001 1.0001 0 0 0 6.1347656 14.5 A 1 1 0 0 0 6.1679688 14.550781 A 1.0001 1.0001 0 0 0 6.2148438 14.619141 A 1 1 0 0 0 6.2382812 14.644531 A 1.0001 1.0001 0 0 0 6.3007812 14.712891 A 1 1 0 0 0 6.3085938 14.722656 A 1 1 0 0 0 6.359375 14.765625 A 1.0001 1.0001 0 0 0 6.3964844 14.796875 A 1 1 0 0 0 6.5 14.865234 A 1 1 0 0 0 6.5898438 14.910156 A 1.0001 1.0001 0 0 0 6.6269531 14.927734 A 1 1 0 0 0 6.6640625 14.939453 A 1.0001 1.0001 0 0 0 6.7617188 14.970703 A 1.0001 1.0001 0 0 0 6.8828125 14.992188 A 1 1 0 0 0 6.9414062 14.996094 A 1.0001 1.0001 0 0 0 7 15 A 1 1 0 0 0 7.0195312 15 L 11 15 A 1 1 0 0 0 12 14 A 1 1 0 0 0 11 13 L 9.3535156 13 C 11.361953 11.217347 14.484211 11.850096 15.628906 14.316406 A 1 1 0 0 0 16.955078 14.802734 A 1 1 0 0 0 17.441406 13.474609 C 16.580759 11.620296 14.917916 10.46166 13.101562 10.121094 C 11.349442 9.792571 9.4548413 10.224837 8 11.527344 L 8 10 A 1 1 0 0 0 7 9 z M 13 17 A 1 1 0 0 0 12 18 A 1 1 0 0 0 13 19 L 14.646484 19 C 12.638042 20.782598 9.5157791 20.149882 8.3710938 17.683594 A 1 1 0 0 0 7.0449219 17.197266 A 1 1 0 0 0 6.5585938 18.525391 C 8.2494529 22.168441 13.036969 23.125453 16 20.472656 L 16 22 A 1 1 0 0 0 17 23 A 1 1 0 0 0 18 22 L 18 18.019531 A 1 1 0 0 0 18 18 A 1.0001 1.0001 0 0 0 17.996094 17.951172 A 1 1 0 0 0 17.992188 17.869141 A 1.0001 1.0001 0 0 0 17.923828 17.615234 A 1 1 0 0 0 17.865234 17.5 A 1.0001 1.0001 0 0 0 17.861328 17.492188 A 1 1 0 0 0 17.707031 17.292969 A 1.0001 1.0001 0 0 0 17.701172 17.287109 A 1 1 0 0 0 17.691406 17.277344 A 1 1 0 0 0 17.609375 17.207031 A 1.0001 1.0001 0 0 0 17.603516 17.203125 A 1 1 0 0 0 17.382812 17.076172 A 1.0001 1.0001 0 0 0 17.363281 17.068359 A 1 1 0 0 0 17.335938 17.060547 A 1.0001 1.0001 0 0 0 17.111328 17.005859 A 1 1 0 0 0 17 17 L 13 17 z "/>
</svg>
