<?xml version="1.0" encoding="UTF-8" standalone="no"?>
<svg xmlns="http://www.w3.org/2000/svg" xmlns:svg="http://www.w3.org/2000/svg" width="24" height="24" viewBox="0 0 24 24" fill="currentColor" tags="weather,danger,warning,alert,error,sync,network,exclamation" categories="development">
  <path d="M 8.9765625 3.0214844 C 6.9707649 3.0134277 4.9405093 3.74931 3.3457031 5.34375 C -0.90711343 9.59559 0.95220209 16.946146 6.7148438 18.666016 A 1 1 0 0 0 7.9589844 17.994141 A 1 1 0 0 0 7.2851562 16.75 C 2.8875675 15.437533 1.5143712 10.002462 4.7597656 6.7578125 C 8.0051601 3.5131633 13.440496 4.8872662 14.751953 9.2851562 A 1.0001 1.0001 0 0 0 15.710938 10 L 17.5 10 C 18.749999 10 19.560226 10.432744 20.126953 11.070312 C 20.69368 11.70788 21 12.597222 21 13.5 C 21 14.402778 20.69368 15.292119 20.126953 15.929688 C 19.560226 16.567256 18.749999 17 17.5 17 L 17 17 A 1 1 0 0 0 16 18 A 1 1 0 0 0 17 19 L 17.5 19 C 19.249999 19 20.689774 18.307744 21.623047 17.257812 C 22.556319 16.207881 23 14.847222 23 13.5 C 23 12.152778 22.556319 10.792119 21.623047 9.7421875 C 20.689774 8.6922556 19.249999 8 17.5 8 L 16.345703 8 C 15.064216 4.8662626 12.077534 3.03394 8.9765625 3.0214844 z M 12 11 A 1 1 0 0 0 11 12 L 11 16 A 1 1 0 0 0 12 17 A 1 1 0 0 0 13 16 L 13 12 A 1 1 0 0 0 12 11 z M 12 19 A 1 1 0 0 0 11 20 A 1 1 0 0 0 12 21 L 12.009766 21 A 1 1 0 0 0 13.009766 20 A 1 1 0 0 0 12.009766 19 L 12 19 z "/>
</svg>
