<svg xmlns="http://www.w3.org/2000/svg" xmlns:svg="http://www.w3.org/2000/svg" width="24" height="24" viewBox="0 0 24 24" fill="currentColor" tags="weather,partly,night,rainfall" categories="weather">
  <path d="M 14.666016 2.1542969 C 14.572562 2.1565196 14.478363 2.1674741 14.384766 2.1894531 A 1.0001 1.0001 0 0 0 14.382812 2.1894531 C 11.43316 2.8902811 9.2647116 5.4212094 9.0234375 8.4433594 A 1 1 0 0 0 9.9394531 9.5195312 A 1 1 0 0 0 11.017578 8.6035156 C 11.17509 6.6305595 12.496924 5.0124676 14.324219 4.3515625 C 13.642822 6.2851683 14.199535 8.269607 15.464844 9.5351562 C 16.718738 10.789289 18.678573 11.341453 20.595703 10.689453 C 20.124526 11.963189 19.243867 13.048433 17.980469 13.59375 A 1 1 0 0 0 17.457031 14.908203 A 1 1 0 0 0 18.771484 15.429688 C 20.801834 14.553334 22.301276 12.7672 22.810547 10.615234 C 22.987964 9.8660075 22.491428 9.089016 21.947266 8.8085938 C 21.403707 8.5284828 20.789013 8.4948334 20.191406 8.7539062 L 20.189453 8.7539062 C 18.90135 9.3101723 17.69713 8.939473 16.878906 8.1210938 C 16.060251 7.302283 15.690264 6.0974054 16.248047 4.8085938 C 16.506948 4.2105821 16.472326 3.5965693 16.191406 3.0527344 C 15.945602 2.5768788 15.320192 2.1387378 14.666016 2.1542969 z M 7.2070312 11.009766 C 6.321801 10.975283 5.4122716 11.137721 4.5410156 11.529297 C 1.0559917 13.0956 -0.09185356 17.541868 2.1992188 20.599609 A 1 1 0 0 0 3.5996094 20.800781 A 1 1 0 0 0 3.8007812 19.400391 C 2.2508853 17.331847 3.003732 14.413109 5.3613281 13.353516 C 7.7189243 12.293922 10.402 13.66882 10.919922 16.201172 A 1.0001 1.0001 0 0 0 11.900391 17 L 13 17 A 1.0001 1.0001 0 0 0 13.001953 17 C 13.969438 16.9986 14.592881 17.553074 14.873047 18.287109 C 15.153213 19.021145 15.056375 19.850572 14.333984 20.494141 A 1 1 0 0 0 14.253906 21.904297 A 1 1 0 0 0 15.666016 21.986328 C 17.003736 20.794569 17.287282 19.002365 16.742188 17.574219 C 16.19705 16.146074 14.789632 14.997367 12.998047 15 L 12.511719 15 C 11.656901 12.68303 9.5760954 11.102049 7.2070312 11.009766 z M 7 18 A 1 1 0 0 0 6 19 L 6 21 A 1 1 0 0 0 7 22 A 1 1 0 0 0 8 21 L 8 19 A 1 1 0 0 0 7 18 z M 11 19 A 1 1 0 0 0 10 20 L 10 22 A 1 1 0 0 0 11 23 A 1 1 0 0 0 12 22 L 12 20 A 1 1 0 0 0 11 19 z "/>
</svg>
