<svg xmlns="http://www.w3.org/2000/svg" xmlns:svg="http://www.w3.org/2000/svg" width="24" height="24" viewBox="0 0 24 24" fill="currentColor" tags="weather,partly" categories="weather">
  <path d="M 12 1 A 1 1 0 0 0 11 2 L 11 4 A 1 1 0 0 0 12 5 A 1 1 0 0 0 13 4 L 13 2 A 1 1 0 0 0 12 1 z M 4.9296875 3.9296875 A 1 1 0 0 0 4.2226562 4.2226562 A 1 1 0 0 0 4.2226562 5.6367188 L 5.6328125 7.046875 A 1 1 0 0 0 7.046875 7.046875 A 1 1 0 0 0 7.046875 5.6328125 L 5.6367188 4.2226562 A 1 1 0 0 0 4.9296875 3.9296875 z M 19.070312 3.9296875 A 1 1 0 0 0 18.363281 4.2226562 L 16.953125 5.6328125 A 1 1 0 0 0 16.953125 7.046875 A 1 1 0 0 0 18.367188 7.046875 L 19.777344 5.6367188 A 1 1 0 0 0 19.777344 4.2226562 A 1 1 0 0 0 19.070312 3.9296875 z M 11.603516 7.0195312 C 10.906595 7.0673441 10.201805 7.2685161 9.5273438 7.6523438 A 1 1 0 0 0 9.1523438 9.0175781 A 1 1 0 0 0 10.517578 9.390625 C 12.77077 8.1083614 15.383209 9.9284462 14.960938 12.486328 A 1 1 0 0 0 15.783203 13.636719 A 1 1 0 0 0 16.933594 12.8125 C 17.439198 9.7498349 15.04373 7.2277807 12.296875 7.0214844 C 12.06797 7.004293 11.835822 7.0035936 11.603516 7.0195312 z M 20 11 A 1 1 0 0 0 19 12 A 1 1 0 0 0 20 13 L 22 13 A 1 1 0 0 0 23 12 A 1 1 0 0 0 22 11 L 20 11 z M 6.8085938 11.039062 C 5.1736059 11.071048 3.5370796 11.755816 2.3535156 13.205078 C -0.80265494 17.069777 2.0100045 22.998982 7 23 L 13 23 C 14.25 23 15.314774 22.495244 15.998047 21.726562 C 16.681319 20.957881 17 19.972222 17 19 C 17 18.027778 16.681319 17.042119 15.998047 16.273438 C 15.314774 15.504756 14.25 15 13 15 L 12.587891 15 C 11.879208 13.02575 10.2854 11.679154 8.4257812 11.220703 C 7.8977334 11.090524 7.3535897 11.028401 6.8085938 11.039062 z M 6.8984375 12.957031 C 7.2602677 12.94599 7.6216571 12.984267 7.9707031 13.070312 C 9.3668872 13.414494 10.57578 14.513275 10.919922 16.199219 A 1.0001 1.0001 0 0 0 11.900391 17 L 13 17 C 13.749999 17 14.185226 17.245244 14.501953 17.601562 C 14.81868 17.957881 15 18.472222 15 19 C 15 19.527778 14.81868 20.042119 14.501953 20.398438 C 14.185226 20.754756 13.749999 21 13 21 L 7 21 C 3.5585817 20.999298 1.7257125 17.135966 3.9023438 14.470703 C 4.7185804 13.47123 5.812947 12.990155 6.8984375 12.957031 z "/>
</svg>
