<svg xmlns="http://www.w3.org/2000/svg" xmlns:svg="http://www.w3.org/2000/svg" width="24" height="24" viewBox="0 0 24 24" fill="currentColor" tags="import" categories="arrows,files">
  <path d="M 8.8496094 2.0078125 C 8.6398462 2.0099942 8.4297574 2.0211868 8.21875 2.0410156 C 7.0040377 2.1551647 5.792148 2.5537345 4.6777344 3.2695312 C 0.22007999 6.1327183 -0.25317914 12.533186 3.734375 16.021484 A 1 1 0 0 0 5.1464844 15.927734 A 1 1 0 0 0 5.0507812 14.515625 C 2.0252294 11.868883 2.3775278 7.1236104 5.7597656 4.9511719 C 9.1420035 2.7787333 13.603176 4.4329468 14.751953 8.2851562 A 1.0001 1.0001 0 0 0 15.710938 9 L 17.5 9 C 19.310514 8.9997727 20.447688 10.118356 20.857422 11.511719 C 21.267155 12.905082 20.916972 14.463495 19.394531 15.443359 A 1 1 0 0 0 19.095703 16.826172 A 1 1 0 0 0 20.476562 17.125 C 22.729931 15.674701 23.406998 13.090456 22.777344 10.949219 C 22.14769 8.8079817 20.179746 6.9996636 17.5 7 L 16.251953 7 C 14.954026 3.9017317 11.996057 1.9750874 8.8496094 2.0078125 z M 12 12 A 1 1 0 0 0 11 13 L 11 18.585938 L 8.7070312 16.292969 A 1 1 0 0 0 7.2929688 16.292969 A 1 1 0 0 0 7.2929688 17.707031 L 11.292969 21.707031 A 1 1 0 0 0 11.390625 21.792969 A 1.0001 1.0001 0 0 0 11.46875 21.845703 A 1 1 0 0 0 11.505859 21.869141 A 1.0001 1.0001 0 0 0 11.544922 21.886719 A 1 1 0 0 0 11.632812 21.929688 A 1.0001 1.0001 0 0 0 11.677734 21.943359 A 1 1 0 0 0 11.755859 21.966797 A 1.0001 1.0001 0 0 0 11.804688 21.978516 A 1 1 0 0 0 11.894531 21.994141 A 1.0001 1.0001 0 0 0 11.943359 21.996094 A 1 1 0 0 0 12.035156 21.998047 A 1.0001 1.0001 0 0 0 12.046875 21.998047 A 1 1 0 0 0 12.167969 21.984375 A 1.0001 1.0001 0 0 0 12.21875 21.972656 A 1 1 0 0 0 12.285156 21.957031 A 1.0001 1.0001 0 0 0 12.34375 21.935547 A 1 1 0 0 0 12.421875 21.904297 A 1.0001 1.0001 0 0 0 12.466797 21.880859 A 1 1 0 0 0 12.564453 21.824219 A 1.0001 1.0001 0 0 0 12.576172 21.814453 A 1 1 0 0 0 12.652344 21.755859 A 1.0001 1.0001 0 0 0 12.685547 21.724609 A 1 1 0 0 0 12.707031 21.707031 L 16.707031 17.707031 A 1 1 0 0 0 16.707031 16.292969 A 1 1 0 0 0 15.292969 16.292969 L 13 18.585938 L 13 13 A 1 1 0 0 0 12 12 z "/>
</svg>
