<?xml version="1.0" encoding="UTF-8" standalone="no"?>
<svg xmlns="http://www.w3.org/2000/svg" xmlns:svg="http://www.w3.org/2000/svg" width="24" height="24" viewBox="0 0 24 24" fill="currentColor" tags="weather,partly,night,rainfall" categories="weather">
  
  <path d="M 16 3 C 12.591125 3.0004372 9.6667486 5.4729485 9.0976562 8.8339844 A 1 1 0 0 0 9.9160156 9.9863281 A 1 1 0 0 0 11.068359 9.1660156 C 11.35793 7.4558258 12.506245 6.1133458 14.009766 5.4550781 C 13.817798 6.0486928 13.695111 6.6522757 13.732422 7.2363281 C 13.817182 8.5631946 14.432014 9.7679508 15.332031 10.667969 C 16.232049 11.567986 17.436805 12.182815 18.763672 12.267578 C 19.318281 12.303008 19.890475 12.174878 20.455078 12.003906 C 20.023172 12.963025 19.404551 13.809167 18.5 14.332031 A 1 1 0 0 0 18.134766 15.697266 A 1 1 0 0 0 19.5 16.0625 C 21.59372 14.85225 23 12.582157 23 10 A 1.0001 1.0001 0 0 0 21.302734 9.2832031 C 20.481091 10.083734 19.672612 10.32144 18.890625 10.271484 C 18.108638 10.221529 17.333226 9.8410389 16.746094 9.2539062 C 16.15896 8.6667735 15.778471 7.891362 15.728516 7.109375 C 15.67856 6.327388 15.916266 5.5189095 16.716797 4.6972656 A 1.0001 1.0001 0 0 0 16 3 z M 6.875 11.005859 C 6.0959646 11.019205 5.3033631 11.186669 4.5410156 11.529297 C 1.0559986 13.095596 -0.091848979 17.541874 2.1992188 20.599609 A 1 1 0 0 0 3.5996094 20.800781 A 1 1 0 0 0 3.8007812 19.400391 C 2.2508883 17.331852 3.0037367 14.413107 5.3613281 13.353516 C 7.7189196 12.293924 10.402 13.668825 10.919922 16.201172 A 1.0001 1.0001 0 0 0 11.900391 17 L 13 17 A 1.0001 1.0001 0 0 0 13.001953 17 C 13.969436 16.9986 14.592881 17.553075 14.873047 18.287109 C 15.153213 19.021144 15.056374 19.850572 14.333984 20.494141 A 1 1 0 0 0 14.253906 21.904297 A 1 1 0 0 0 15.666016 21.986328 C 17.003688 20.794572 17.287281 19.002361 16.742188 17.574219 C 16.197095 16.146075 14.789629 14.997367 12.998047 15 L 12.511719 15 C 11.656903 12.683034 9.5760906 11.102049 7.2070312 11.009766 C 7.0963777 11.005456 6.9862908 11.003953 6.875 11.005859 z M 7 18 A 1 1 0 0 0 6 19 L 6 21 A 1 1 0 0 0 7 22 A 1 1 0 0 0 8 21 L 8 19 A 1 1 0 0 0 7 18 z M 11 19 A 1 1 0 0 0 10 20 L 10 22 A 1 1 0 0 0 11 23 A 1 1 0 0 0 12 22 L 12 20 A 1 1 0 0 0 11 19 z "/>
</svg>
