<svg xmlns="http://www.w3.org/2000/svg" xmlns:svg="http://www.w3.org/2000/svg" width="24" height="24" viewBox="0 0 24 24" fill="currentColor" tags="weather,clouds" categories="weather">
  <path d="M 11.130859 2.0078125 C 8.5009403 2.1574627 5.9007649 3.9159707 5.1816406 6.96875 C 4.2071918 7.491265 3.317095 8.2381746 2.5839844 9.2226562 C -1.3099059 14.451694 2.4865279 22.004211 9.0058594 22 L 17.5 22 C 19.249999 22 20.689774 21.307744 21.623047 20.257812 C 22.556319 19.207881 23 17.847222 23 16.5 C 23 15.152778 22.556319 13.792119 21.623047 12.742188 C 20.689774 11.692255 19.249999 11 17.5 11 L 16.335938 11 C 14.943676 7.5949348 11.573518 5.7884478 8.2597656 6.0644531 C 8.0457483 6.0822788 7.8315922 6.1076862 7.6191406 6.1425781 C 8.3962216 4.7773403 9.7851051 4.088994 11.246094 4.0058594 C 13.203362 3.894485 15.152618 4.8778362 15.830078 7.2714844 A 1.0001 1.0001 0 0 0 16.792969 8 L 19 8 A 1.0001 1.0001 0 0 0 19.001953 8 C 19.853978 7.99899 20.604664 8.530687 20.888672 9.3339844 A 1 1 0 0 0 22.166016 9.9433594 A 1 1 0 0 0 22.775391 8.6660156 C 22.210913 7.0695599 20.691342 5.9979838 18.998047 6 L 17.402344 6 C 16.258174 3.2715679 13.660401 1.863874 11.130859 2.0078125 z M 9.1777344 7.9609375 C 9.471555 7.9695183 9.7637629 7.9996473 10.052734 8.0507812 C 12.141401 8.4203737 14.035702 9.8893321 14.75 12.285156 A 1.0001 1.0001 0 0 0 15.707031 13 L 17.5 13 C 18.749999 13 19.560226 13.432744 20.126953 14.070312 C 20.69368 14.70788 21 15.597222 21 16.5 C 21 17.402778 20.69368 18.292119 20.126953 18.929688 C 19.560226 19.567256 18.749999 20 17.5 20 L 9.0058594 20 C 4.005783 20.004431 1.2013402 14.426078 4.1875 10.416016 C 4.8156154 9.5725301 5.5834389 8.954035 6.4179688 8.5488281 A 1 1 0 0 0 6.5722656 8.4765625 C 7.4034415 8.1025614 8.2962724 7.9351952 9.1777344 7.9609375 z "/>
</svg>
