<?xml version="1.0" encoding="UTF-8" standalone="no"?>
<svg xmlns="http://www.w3.org/2000/svg" xmlns:svg="http://www.w3.org/2000/svg" width="24" height="24" viewBox="0 0 24 24" fill="currentColor" tags="weather,clouds" categories="weather">
  <path d="M 11.667969 2.0058594 C 11.511057 2.001321 11.354147 2.0024361 11.197266 2.0097656 C 8.5502969 2.1334327 5.918676 3.8855413 5.1835938 6.96875 C 4.2101171 7.4905026 3.3207283 8.2358083 2.5878906 9.21875 C -1.3081736 14.44447 2.481465 21.998327 9 22 L 17.5 22 C 19.249996 22 20.689776 21.307742 21.623047 20.257812 C 22.556317 19.207884 23 17.84722 23 16.5 C 23 15.15278 22.556317 13.792116 21.623047 12.742188 C 20.689776 11.692258 19.249996 11 17.5 11 L 16.335938 11 C 14.943822 7.5967671 11.57627 5.7896826 8.2636719 6.0644531 C 8.0501402 6.082165 7.8369794 6.1098406 7.625 6.1445312 C 8.4145065 4.7647509 9.8192633 4.0765731 11.291016 4.0078125 C 13.233423 3.9170626 15.160082 4.9091448 15.832031 7.2734375 A 1.0001 1.0001 0 0 0 16.792969 8 L 19 8 C 20.116412 8 21 8.8835881 21 10 A 1 1 0 0 0 22 11 A 1 1 0 0 0 23 10 C 23 7.80271 21.19729 6 19 6 L 17.402344 6 C 16.338357 3.4703817 14.021638 2.0739353 11.667969 2.0058594 z M 8.8671875 7.9589844 C 9.2659421 7.9498917 9.6651318 7.9813877 10.056641 8.0507812 C 12.144687 8.4208801 14.037894 9.8901301 14.751953 12.285156 A 1.0001 1.0001 0 0 0 15.710938 13 L 17.5 13 C 18.749997 13 19.560228 13.432745 20.126953 14.070312 C 20.69368 14.707879 21 15.597224 21 16.5 C 21 17.402776 20.69368 18.292121 20.126953 18.929688 C 19.560228 19.567255 18.749997 20 17.5 20 L 9 20 C 4.0015878 19.998717 1.20395 14.421082 4.1914062 10.414062 C 5.4050604 8.7862101 7.1392511 7.998386 8.8671875 7.9589844 z "/>
</svg>
