<?xml version="1.0" encoding="UTF-8" standalone="no"?>
<svg xmlns="http://www.w3.org/2000/svg" xmlns:svg="http://www.w3.org/2000/svg" width="24" height="24" viewBox="0 0 24 24" fill="currentColor" tags="weather,partly" categories="weather">
  <path d="M 12 1 A 1 1 0 0 0 11 2 L 11 4 A 1 1 0 0 0 12 5 A 1 1 0 0 0 13 4 L 13 2 A 1 1 0 0 0 12 1 z M 4.9296875 3.9296875 A 1 1 0 0 0 4.2226562 4.2226562 A 1 1 0 0 0 4.2226562 5.6367188 L 5.6328125 7.046875 A 1 1 0 0 0 7.046875 7.046875 A 1 1 0 0 0 7.046875 5.6328125 L 5.6367188 4.2226562 A 1 1 0 0 0 4.9296875 3.9296875 z M 19.070312 3.9296875 A 1 1 0 0 0 18.363281 4.2226562 L 16.953125 5.6328125 A 1 1 0 0 0 16.953125 7.046875 A 1 1 0 0 0 18.367188 7.046875 L 19.777344 5.6367188 A 1 1 0 0 0 19.777344 4.2226562 A 1 1 0 0 0 19.070312 3.9296875 z M 11.951172 7.0078125 C 11.142763 7.0046985 10.314214 7.2045457 9.5273438 7.6523438 A 1 1 0 0 0 9.1523438 9.0175781 A 1 1 0 0 0 10.517578 9.390625 C 12.770766 8.108364 15.383208 9.9284514 14.960938 12.486328 A 1 1 0 0 0 15.783203 13.636719 A 1 1 0 0 0 16.933594 12.8125 C 17.439197 9.7498411 15.043725 7.2277803 12.296875 7.0214844 C 12.182423 7.0128887 12.066659 7.0082574 11.951172 7.0078125 z M 20 11 A 1 1 0 0 0 19 12 A 1 1 0 0 0 20 13 L 22 13 A 1 1 0 0 0 23 12 A 1 1 0 0 0 22 11 L 20 11 z M 6.8085938 11.039062 C 5.1736074 11.071048 3.5370772 11.755819 2.3535156 13.205078 C -0.80264862 17.069769 2.0100145 22.998982 7 23 L 13 23 C 14.249997 23 15.314776 22.495244 15.998047 21.726562 C 16.681318 20.957882 17 19.97222 17 19 C 17 18.02778 16.681318 17.042119 15.998047 16.273438 C 15.314776 15.504757 14.249997 15 13 15 L 12.587891 15 C 11.879209 13.025754 10.285396 11.679154 8.4257812 11.220703 C 7.8977345 11.090524 7.3535892 11.028401 6.8085938 11.039062 z M 6.8984375 12.957031 C 7.2602673 12.94599 7.6216578 12.984267 7.9707031 13.070312 C 9.3668844 13.414493 10.57578 14.513278 10.919922 16.199219 A 1.0001 1.0001 0 0 0 11.900391 17 L 13 17 C 13.749998 17 14.185226 17.245246 14.501953 17.601562 C 14.81868 17.95788 15 18.472224 15 19 C 15 19.527776 14.81868 20.042121 14.501953 20.398438 C 14.185226 20.754755 13.749998 21 13 21 L 7 21 C 3.5585886 20.999298 1.7257168 17.13596 3.9023438 14.470703 C 4.7185788 13.471232 5.8129481 12.990155 6.8984375 12.957031 z "/>
</svg>
