<?xml version="1.0" encoding="UTF-8" standalone="no"?>
<svg xmlns="http://www.w3.org/2000/svg" xmlns:svg="http://www.w3.org/2000/svg" width="24" height="24" viewBox="0 0 24 24" fill="currentColor" tags="weather,night" categories="weather">
  <path d="M 14.666016 2.1542969 C 14.572562 2.1565196 14.478363 2.1674741 14.384766 2.1894531 A 1.0001 1.0001 0 0 0 14.382812 2.1894531 C 11.43316 2.8902811 9.2647116 5.4212094 9.0234375 8.4433594 A 1 1 0 0 0 9.9394531 9.5195312 A 1 1 0 0 0 11.017578 8.6035156 C 11.17509 6.6305595 12.496924 5.0124676 14.324219 4.3515625 C 13.642822 6.2851683 14.199535 8.269607 15.464844 9.5351562 C 16.718738 10.789289 18.678573 11.341453 20.595703 10.689453 C 20.124526 11.963189 19.243867 13.048433 17.980469 13.59375 A 1 1 0 0 0 17.457031 14.908203 A 1 1 0 0 0 18.771484 15.429688 C 20.801834 14.553334 22.301276 12.7672 22.810547 10.615234 C 22.987964 9.8660075 22.491428 9.089016 21.947266 8.8085938 C 21.403707 8.5284828 20.789013 8.4948334 20.191406 8.7539062 L 20.189453 8.7539062 C 18.90135 9.3101723 17.69713 8.939473 16.878906 8.1210938 C 16.060251 7.302283 15.690264 6.0974054 16.248047 4.8085938 C 16.506948 4.2105821 16.472326 3.5965693 16.191406 3.0527344 C 15.945602 2.5768788 15.320192 2.1387378 14.666016 2.1542969 z M 6.8085938 11.039062 C 5.1736059 11.071048 3.5370796 11.755816 2.3535156 13.205078 C -0.80265494 17.069777 2.0100045 22.998982 7 23 L 13 23 C 14.25 23 15.314774 22.495244 15.998047 21.726562 C 16.681319 20.957881 17 19.972222 17 19 C 17 18.027778 16.681319 17.042119 15.998047 16.273438 C 15.314774 15.504756 14.25 15 13 15 L 12.587891 15 C 11.879208 13.02575 10.2854 11.679154 8.4257812 11.220703 C 7.8977334 11.090524 7.3535897 11.028401 6.8085938 11.039062 z M 6.8984375 12.957031 C 7.2602677 12.94599 7.6216571 12.984267 7.9707031 13.070312 C 9.3668872 13.414494 10.57578 14.513275 10.919922 16.199219 A 1.0001 1.0001 0 0 0 11.900391 17 L 13 17 C 13.749999 17 14.185226 17.245244 14.501953 17.601562 C 14.81868 17.957881 15 18.472222 15 19 C 15 19.527778 14.81868 20.042119 14.501953 20.398438 C 14.185226 20.754756 13.749999 21 13 21 L 7 21 C 3.5585817 20.999298 1.7257125 17.135966 3.9023438 14.470703 C 4.7185804 13.47123 5.812947 12.990155 6.8984375 12.957031 z "/>
</svg>
