<?xml version="1.0" encoding="UTF-8" standalone="no"?>
<svg xmlns="http://www.w3.org/2000/svg" xmlns:svg="http://www.w3.org/2000/svg" width="24" height="24" viewBox="0 0 24 24" fill="currentColor" tags="weather,clouds" categories="weather">
  <path d="M 11.197266 2.0097656 C 8.5497756 2.133457 5.9161268 3.8844147 5.1816406 6.96875 C 4.2090462 7.4904459 3.3201631 8.2365664 2.5878906 9.21875 C -1.3081814 14.44448 2.481452 21.998327 9 22 L 17.5 22 C 19.249999 22 20.689774 21.307744 21.623047 20.257812 C 22.556319 19.207881 23 17.847222 23 16.5 C 23 15.152778 22.556319 13.792119 21.623047 12.742188 C 20.689774 11.692255 19.249999 11 17.5 11 L 16.335938 11 C 14.943819 7.5967603 11.576276 5.789682 8.2636719 6.0644531 C 8.050004 6.0821763 7.8371131 6.1078545 7.625 6.1425781 C 8.4144635 4.7625234 9.8191154 4.07658 11.291016 4.0078125 C 13.233427 3.9170626 15.16008 4.90914 15.832031 7.2734375 A 1.0001 1.0001 0 0 0 16.792969 8 L 19 8 C 20.116414 8 21 8.8835859 21 10 A 1 1 0 0 0 22 11 A 1 1 0 0 0 23 10 C 23 7.8027056 21.197294 6 19 6 L 17.402344 6 C 16.267423 3.3017351 13.707369 1.892493 11.197266 2.0097656 z M 9.265625 7.9648438 C 9.5308136 7.976393 9.7956342 8.0045188 10.056641 8.0507812 C 12.144692 8.4208808 14.037893 9.8901253 14.751953 12.285156 A 1.0001 1.0001 0 0 0 15.710938 13 L 17.5 13 C 18.749999 13 19.560226 13.432744 20.126953 14.070312 C 20.69368 14.70788 21 15.597222 21 16.5 C 21 17.402778 20.69368 18.292119 20.126953 18.929688 C 19.560226 19.567256 18.749999 20 17.5 20 L 9 20 C 4.0015778 19.998717 1.203944 14.42109 4.1914062 10.414062 C 5.4984211 8.6609871 7.4093046 7.8839987 9.265625 7.9648438 z "/>
</svg>
