<?xml version="1.0" encoding="UTF-8" standalone="no"?>
<svg xmlns="http://www.w3.org/2000/svg" xmlns:svg="http://www.w3.org/2000/svg" width="24" height="24" viewBox="0 0 24 24" fill="currentColor" tags="weather,partly,night,rainfall" categories="weather">
  <path d="M 16 3 C 12.81193 2.9986584 10.01772 5.1631639 9.2207031 8.25 A 1 1 0 0 0 9.9375 9.46875 A 1 1 0 0 0 11.15625 8.75 C 11.546207 7.2397051 12.621428 6.0893133 13.974609 5.4824219 C 13.782673 6.0698925 13.655387 6.666975 13.689453 7.2460938 C 13.768153 8.5839769 14.385836 9.7998986 15.292969 10.707031 C 16.200102 11.614164 17.416024 12.231847 18.753906 12.310547 C 19.312521 12.343407 19.887725 12.212347 20.455078 12.035156 C 20.03061 12.967735 19.418311 13.799891 18.5 14.330078 A 1 1 0 0 0 18.134766 15.697266 A 1 1 0 0 0 19.5 16.0625 C 21.66472 14.812698 23.000353 12.499604 23 10 A 1.0001 1.0001 0 0 0 21.292969 9.2929688 C 20.469748 10.11619 19.658206 10.360754 18.871094 10.314453 C 18.083982 10.268152 17.299896 9.8858328 16.707031 9.2929688 C 16.114168 8.7001046 15.731848 7.9160185 15.685547 7.1289062 C 15.639247 6.3417941 15.88381 5.5302524 16.707031 4.7070312 A 1.0001 1.0001 0 0 0 16 3 z M 6.875 11.005859 C 6.0959646 11.019205 5.3033631 11.186669 4.5410156 11.529297 C 1.0559986 13.095596 -0.091848979 17.541874 2.1992188 20.599609 A 1 1 0 0 0 3.5996094 20.800781 A 1 1 0 0 0 3.8007812 19.400391 C 2.2508883 17.331852 3.0037367 14.413107 5.3613281 13.353516 C 7.7189196 12.293924 10.402 13.668825 10.919922 16.201172 A 1.0001 1.0001 0 0 0 11.900391 17 L 13 17 A 1.0001 1.0001 0 0 0 13.001953 17 C 13.969436 16.9986 14.592881 17.553075 14.873047 18.287109 C 15.153213 19.021144 15.056374 19.850572 14.333984 20.494141 A 1 1 0 0 0 14.253906 21.904297 A 1 1 0 0 0 15.666016 21.986328 C 17.003688 20.794572 17.287281 19.002361 16.742188 17.574219 C 16.197095 16.146075 14.789629 14.997367 12.998047 15 L 12.511719 15 C 11.656903 12.683034 9.5760906 11.102049 7.2070312 11.009766 C 7.0963777 11.005456 6.9862908 11.003953 6.875 11.005859 z M 7 18 A 1 1 0 0 0 6 19 L 6 21 A 1 1 0 0 0 7 22 A 1 1 0 0 0 8 21 L 8 19 A 1 1 0 0 0 7 18 z M 11 19 A 1 1 0 0 0 10 20 L 10 22 A 1 1 0 0 0 11 23 A 1 1 0 0 0 12 22 L 12 20 A 1 1 0 0 0 11 19 z "/>
</svg>
