<svg xmlns="http://www.w3.org/2000/svg" xmlns:svg="http://www.w3.org/2000/svg" width="24" height="24" viewBox="0 0 24 24" fill="currentColor" tags="disconnect" categories="connectivity,weather">
  <path d="M 2 1 A 1 1 0 0 0 1.2929688 1.2929688 A 1 1 0 0 0 1.2929688 2.7070312 L 4.1855469 5.5996094 C 1.419569 7.6361084 0.52142492 10.982694 1.2265625 13.886719 C 2.0213379 17.159906 4.8838737 19.999313 9 20 L 17.5 20 C 17.834295 20.000164 18.168114 19.970406 18.496094 19.910156 L 21.292969 22.707031 A 1 1 0 0 0 22.707031 22.707031 A 1 1 0 0 0 22.707031 21.292969 L 6.5742188 5.1601562 A 1 1 0 0 0 6.4121094 4.9980469 L 2.7070312 1.2929688 A 1 1 0 0 0 2 1 z M 10.958984 4.2734375 A 1 1 0 0 0 9.9785156 4.9980469 A 1 1 0 0 0 10.664062 6.234375 C 12.629103 6.8005729 14.16757 8.3254473 14.751953 10.285156 A 1.0001 1.0001 0 0 0 15.710938 11 L 17.5 11 C 19.967475 11.00003 21.636949 13.395866 20.783203 15.710938 A 1 1 0 0 0 21.376953 16.996094 A 1 1 0 0 0 22.660156 16.402344 C 23.973383 12.841319 21.295453 9.0000466 17.5 9 L 16.351562 9 C 15.430812 6.7501452 13.579672 4.9933283 11.216797 4.3125 A 1 1 0 0 0 10.958984 4.2734375 z M 5.6191406 7.0332031 L 16.585938 18 L 9 18 C 5.7791167 17.999463 3.7757584 15.911081 3.1699219 13.416016 C 2.6109908 11.114124 3.2667821 8.5730356 5.6191406 7.0332031 z "/>
</svg>
