<?xml version="1.0" encoding="UTF-8" standalone="no"?>
<svg xmlns="http://www.w3.org/2000/svg" xmlns:svg="http://www.w3.org/2000/svg" width="24" height="24" viewBox="0 0 24 24" fill="currentColor" tags="computing,ai,cluster,network" categories="development">
  <path d="M 8.9511719 2.015625 C 8.7436447 2.0153027 8.5351299 2.02409 8.3261719 2.0410156 C 7.122526 2.1385111 5.9184353 2.5141511 4.8046875 3.2011719 C 0.34969613 5.9492552 -0.29310754 12.235412 3.5136719 15.828125 A 1 1 0 0 0 4.9277344 15.787109 A 1 1 0 0 0 4.8867188 14.373047 C 1.9996224 11.648304 2.4767635 6.9865147 5.8554688 4.9023438 C 9.234174 2.8181728 13.612505 4.4843169 14.751953 8.2871094 A 1.0001 1.0001 0 0 0 15.710938 9 L 17.486328 9 C 19.248789 9.02376 20.371448 10.115146 20.787109 11.478516 C 21.202771 12.841885 20.881069 14.373959 19.431641 15.376953 A 1 1 0 0 0 19.177734 16.769531 A 1 1 0 0 0 20.568359 17.021484 C 22.721551 15.531489 23.340995 12.995104 22.701172 10.896484 C 22.061349 8.7978652 20.131892 7.0352962 17.513672 7 A 1.0001 1.0001 0 0 0 17.5 7 L 16.253906 7 C 14.968893 3.9404739 12.06408 2.0204598 8.9511719 2.015625 z M 10.412109 12.300781 A 1 1 0 0 0 10.029297 12.371094 A 1 1 0 0 0 9.4707031 13.671875 L 9.5429688 13.851562 C 9.2368897 14.091426 8.966025 14.3743 8.7402344 14.691406 L 8.6171875 14.650391 A 1 1 0 0 0 7.3515625 15.283203 A 1 1 0 0 0 7.984375 16.548828 L 8.0234375 16.5625 C 8.0075339 16.706387 8 16.852108 8 17 C 8 17.211861 8.0165722 17.419785 8.0488281 17.623047 L 7.9277344 17.671875 A 1 1 0 0 0 7.3710938 18.970703 A 1 1 0 0 0 8.671875 19.529297 L 8.8515625 19.457031 C 9.0914259 19.76311 9.3742999 20.033975 9.6914062 20.259766 L 9.6503906 20.382812 A 1 1 0 0 0 10.283203 21.648438 A 1 1 0 0 0 11.548828 21.015625 L 11.5625 20.976562 C 11.706387 20.992466 11.852108 21 12 21 C 12.211861 21 12.419785 20.983428 12.623047 20.951172 L 12.671875 21.072266 A 1 1 0 0 0 13.970703 21.628906 A 1 1 0 0 0 14.529297 20.328125 L 14.457031 20.148438 C 14.76311 19.908574 15.033975 19.6257 15.259766 19.308594 L 15.382812 19.349609 A 1 1 0 0 0 16.648438 18.716797 A 1 1 0 0 0 16.015625 17.451172 L 15.976562 17.4375 C 15.992466 17.293613 16 17.147892 16 17 C 16 16.788139 15.983428 16.580215 15.951172 16.376953 L 16.072266 16.328125 A 1 1 0 0 0 16.628906 15.029297 A 1 1 0 0 0 15.328125 14.470703 L 15.148438 14.542969 C 14.908574 14.23689 14.6257 13.966025 14.308594 13.740234 L 14.349609 13.617188 A 1 1 0 0 0 13.716797 12.351562 A 1 1 0 0 0 12.451172 12.984375 L 12.4375 13.023438 C 12.293613 13.007534 12.147892 13 12 13 C 11.788139 13 11.580215 13.016572 11.376953 13.048828 L 11.328125 12.927734 A 1 1 0 0 0 10.412109 12.300781 z M 12 15 C 12.731654 15 13.362454 15.379255 13.710938 15.955078 A 1 1 0 0 0 13.771484 16.171875 A 1 1 0 0 0 13.917969 16.423828 C 13.971399 16.605852 14 16.799106 14 17 C 14 17.731654 13.620745 18.362454 13.044922 18.710938 A 1 1 0 0 0 12.828125 18.771484 A 1 1 0 0 0 12.576172 18.917969 C 12.394148 18.971399 12.200894 19 12 19 C 11.268346 19 10.637546 18.620745 10.289062 18.044922 A 1 1 0 0 0 10.228516 17.828125 A 1 1 0 0 0 10.082031 17.576172 C 10.028601 17.394148 10 17.200894 10 17 C 10 16.268346 10.379255 15.637546 10.955078 15.289062 A 1 1 0 0 0 11.171875 15.228516 A 1 1 0 0 0 11.423828 15.082031 C 11.605852 15.028601 11.799106 15 12 15 z "/>
</svg>
