<?xml version="1.0" encoding="UTF-8" standalone="no"?>
<svg xmlns="http://www.w3.org/2000/svg" xmlns:svg="http://www.w3.org/2000/svg" width="24" height="24" viewBox="0 0 24 24" fill="currentColor" tags="computing,ai,cluster,network" categories="development">
  <path d="M 8.9511719 2.015625 C 8.743645 2.0153026 8.5351295 2.02409 8.3261719 2.0410156 C 7.1225284 2.1385109 5.9184331 2.5141524 4.8046875 3.2011719 C 0.34970503 5.9492496 -0.29309993 12.235419 3.5136719 15.828125 A 1 1 0 0 0 4.9277344 15.787109 A 1 1 0 0 0 4.8867188 14.373047 C 1.9996282 11.64831 2.4767703 6.9865106 5.8554688 4.9023438 C 9.2341673 2.818177 13.612507 4.4843245 14.751953 8.2871094 A 1.0001 1.0001 0 0 0 15.710938 9 L 17.486328 9 C 19.248785 9.02376 20.371449 10.115149 20.787109 11.478516 C 21.20277 12.841882 20.881067 14.373961 19.431641 15.376953 A 1 1 0 0 0 19.177734 16.769531 A 1 1 0 0 0 20.568359 17.021484 C 22.721547 15.531493 23.340993 12.9951 22.701172 10.896484 C 22.06135 8.7978694 20.131886 7.0352962 17.513672 7 A 1.0001 1.0001 0 0 0 17.5 7 L 16.253906 7 C 14.968895 3.94048 12.064075 2.0204603 8.9511719 2.015625 z M 10.369141 12.300781 A 1 1 0 0 0 10.029297 12.371094 A 1 1 0 0 0 9.4707031 13.671875 L 9.5429688 13.853516 C 9.2371752 14.093224 8.9658701 14.374584 8.7402344 14.691406 L 8.6171875 14.650391 A 1 1 0 0 0 7.3515625 15.283203 A 1 1 0 0 0 7.984375 16.548828 L 8.0253906 16.5625 C 8.009443 16.706582 8 16.851902 8 17 C 8 17.212161 8.0184355 17.419511 8.0507812 17.623047 L 7.9277344 17.671875 A 1 1 0 0 0 7.3710938 18.970703 A 1 1 0 0 0 8.671875 19.529297 L 8.8535156 19.457031 C 9.0932236 19.762825 9.3745835 20.03413 9.6914062 20.259766 L 9.6503906 20.382812 A 1 1 0 0 0 10.283203 21.648438 A 1 1 0 0 0 11.548828 21.015625 L 11.5625 20.974609 C 11.706582 20.990557 11.851902 21 12 21 C 12.212161 21 12.419511 20.981565 12.623047 20.949219 L 12.671875 21.072266 A 1 1 0 0 0 13.970703 21.628906 A 1 1 0 0 0 14.529297 20.328125 L 14.457031 20.146484 C 14.762825 19.906776 15.03413 19.625416 15.259766 19.308594 L 15.382812 19.349609 A 1 1 0 0 0 16.648438 18.716797 A 1 1 0 0 0 16.015625 17.451172 L 15.974609 17.4375 C 15.990557 17.293418 16 17.148098 16 17 C 16 16.787839 15.981565 16.580489 15.949219 16.376953 L 16.072266 16.328125 A 1 1 0 0 0 16.628906 15.029297 A 1 1 0 0 0 15.328125 14.470703 L 15.146484 14.542969 C 14.906776 14.237175 14.625416 13.96587 14.308594 13.740234 L 14.349609 13.617188 A 1 1 0 0 0 13.716797 12.351562 A 1 1 0 0 0 12.451172 12.984375 L 12.4375 13.025391 C 12.293418 13.009443 12.148098 13 12 13 C 11.787839 13 11.580489 13.018435 11.376953 13.050781 L 11.328125 12.927734 A 1 1 0 0 0 10.369141 12.300781 z M 12 15 C 12.735019 15 13.367379 15.38456 13.714844 15.964844 A 1 1 0 0 0 13.771484 16.171875 A 1 1 0 0 0 13.912109 16.412109 C 13.967762 16.597525 14 16.794815 14 17 C 14 17.735019 13.61544 18.367379 13.035156 18.714844 A 1 1 0 0 0 12.828125 18.771484 A 1 1 0 0 0 12.587891 18.912109 C 12.402475 18.967762 12.205185 19 12 19 C 11.266564 19 10.635057 18.617248 10.287109 18.039062 A 1 1 0 0 0 10.228516 17.828125 A 1 1 0 0 0 10.087891 17.587891 C 10.032238 17.402475 10 17.205185 10 17 C 10 16.264981 10.38456 15.632621 10.964844 15.285156 A 1 1 0 0 0 11.171875 15.228516 A 1 1 0 0 0 11.417969 15.085938 C 11.601684 15.031406 11.79697 15 12 15 z "/>
</svg>
