<?xml version="1.0" encoding="UTF-8" standalone="no"?>
<svg xmlns="http://www.w3.org/2000/svg" xmlns:svg="http://www.w3.org/2000/svg" width="24" height="24" viewBox="0 0 24 24" fill="currentColor" tags="weather" categories="weather">
  <path d="M 9.5039062 4.0585938 C 9.0920795 4.028831 8.6777474 4.0301067 8.2636719 4.0644531 C 6.1319755 4.2412713 4.0489176 5.2591013 2.5878906 7.21875 C -1.3081814 12.44448 2.481452 19.998327 9 20 L 17.5 20 C 19.249999 20 20.689774 19.307744 21.623047 18.257812 C 22.556319 17.207881 23 15.847222 23 14.5 C 23 13.152778 22.556319 11.792119 21.623047 10.742188 C 20.689774 9.6922551 19.249999 9 17.5 9 L 16.335938 9 C 15.117834 6.0221653 12.386694 4.2669333 9.5039062 4.0585938 z M 9.265625 5.9648438 C 9.5308136 5.976393 9.7956342 6.0045188 10.056641 6.0507812 C 12.144692 6.4208809 14.037893 7.8901253 14.751953 10.285156 A 1.0001 1.0001 0 0 0 15.710938 11 L 17.5 11 C 18.749999 11 19.560226 11.432744 20.126953 12.070312 C 20.69368 12.70788 21 13.597222 21 14.5 C 21 15.402778 20.69368 16.29212 20.126953 16.929688 C 19.560226 17.567256 18.749999 18 17.5 18 L 9 18 C 4.0015778 17.998717 1.203944 12.421091 4.1914062 8.4140625 C 5.4984211 6.6609876 7.4093046 5.8839988 9.265625 5.9648438 z "/>
</svg>
