<?xml version="1.0" encoding="UTF-8" standalone="no"?>
<svg xmlns="http://www.w3.org/2000/svg" xmlns:svg="http://www.w3.org/2000/svg" width="24" height="24" viewBox="0 0 24 24" fill="currentColor" tags="weather,partly,rainfall" categories="weather">
  <path d="M 12 1 A 1 1 0 0 0 11 2 L 11 4 A 1 1 0 0 0 12 5 A 1 1 0 0 0 13 4 L 13 2 A 1 1 0 0 0 12 1 z M 4.9296875 3.9296875 A 1 1 0 0 0 4.2226562 4.2226562 A 1 1 0 0 0 4.2226562 5.6367188 L 5.6328125 7.046875 A 1 1 0 0 0 7.046875 7.046875 A 1 1 0 0 0 7.046875 5.6328125 L 5.6367188 4.2226562 A 1 1 0 0 0 4.9296875 3.9296875 z M 19.070312 3.9296875 A 1 1 0 0 0 18.363281 4.2226562 L 16.953125 5.6328125 A 1 1 0 0 0 16.953125 7.046875 A 1 1 0 0 0 18.367188 7.046875 L 19.777344 5.6367188 A 1 1 0 0 0 19.777344 4.2226562 A 1 1 0 0 0 19.070312 3.9296875 z M 11.603516 7.0195312 C 10.906595 7.0673441 10.201805 7.2685161 9.5273438 7.6523438 A 1 1 0 0 0 9.1523438 9.0175781 A 1 1 0 0 0 10.517578 9.390625 C 12.77077 8.1083614 15.383209 9.9284462 14.960938 12.486328 A 1 1 0 0 0 15.783203 13.636719 A 1 1 0 0 0 16.933594 12.8125 C 17.439198 9.7498349 15.04373 7.2277807 12.296875 7.0214844 C 12.06797 7.004293 11.835822 7.0035936 11.603516 7.0195312 z M 20 11 A 1 1 0 0 0 19 12 A 1 1 0 0 0 20 13 L 22 13 A 1 1 0 0 0 23 12 A 1 1 0 0 0 22 11 L 20 11 z M 7.2070312 11.009766 C 6.321801 10.975283 5.4122716 11.137721 4.5410156 11.529297 C 1.0559917 13.0956 -0.09185356 17.541868 2.1992188 20.599609 A 1 1 0 0 0 3.5996094 20.800781 A 1 1 0 0 0 3.8007812 19.400391 C 2.2508853 17.331847 3.003732 14.413109 5.3613281 13.353516 C 7.7189243 12.293922 10.402 13.66882 10.919922 16.201172 A 1.0001 1.0001 0 0 0 11.900391 17 L 13 17 A 1.0001 1.0001 0 0 0 13.001953 17 C 13.969438 16.9986 14.592881 17.553074 14.873047 18.287109 C 15.153213 19.021145 15.056375 19.850572 14.333984 20.494141 A 1 1 0 0 0 14.253906 21.904297 A 1 1 0 0 0 15.666016 21.986328 C 17.003736 20.794569 17.287282 19.002365 16.742188 17.574219 C 16.19705 16.146074 14.789632 14.997367 12.998047 15 L 12.511719 15 C 11.656901 12.68303 9.5760954 11.102049 7.2070312 11.009766 z M 7 18 A 1 1 0 0 0 6 19 L 6 21 A 1 1 0 0 0 7 22 A 1 1 0 0 0 8 21 L 8 19 A 1 1 0 0 0 7 18 z M 11 19 A 1 1 0 0 0 10 20 L 10 22 A 1 1 0 0 0 11 23 A 1 1 0 0 0 12 22 L 12 20 A 1 1 0 0 0 11 19 z "/>
</svg>
