<svg xmlns="http://www.w3.org/2000/svg" xmlns:svg="http://www.w3.org/2000/svg" width="24" height="24" viewBox="0 0 24 24" fill="currentColor" tags="file" categories="arrows,files">
  <path d="M 9.0644531 2.0097656 C 8.8592441 2.0065391 8.6521663 2.0117597 8.4453125 2.0253906 C 7.2526812 2.1039809 6.0553745 2.4530755 4.9414062 3.109375 C 0.48553314 5.734573 -0.33233814 11.901656 3.2851562 15.597656 A 1 1 0 0 0 4.6992188 15.613281 A 1 1 0 0 0 4.7148438 14.199219 C 1.9724857 11.397342 2.5791142 6.8240997 5.9570312 4.8339844 C 9.3349485 2.8438691 13.630291 4.5284437 14.751953 8.2851562 A 1.0001 1.0001 0 0 0 15.710938 9 L 17.5 9 C 19.293053 8.9997956 20.430887 10.103931 20.849609 11.484375 C 21.268332 12.864819 20.936339 14.41422 19.445312 15.410156 A 1 1 0 0 0 19.167969 16.796875 A 1 1 0 0 0 20.554688 17.074219 C 22.764526 15.598147 23.407533 13.026978 22.763672 10.904297 C 22.119811 8.7816161 20.157475 6.9996971 17.5 7 L 16.255859 7 C 14.989776 3.977573 12.142589 2.0581641 9.0644531 2.0097656 z M 12 12 A 1.0001 1.0001 0 0 0 11.794922 12.023438 A 1 1 0 0 0 11.742188 12.035156 A 1 1 0 0 0 11.617188 12.076172 A 1 1 0 0 0 11.611328 12.078125 A 1.0001 1.0001 0 0 0 11.5 12.134766 A 1 1 0 0 0 11.439453 12.175781 A 1.0001 1.0001 0 0 0 11.384766 12.212891 A 1 1 0 0 0 11.341797 12.25 A 1.0001 1.0001 0 0 0 11.292969 12.292969 A 1 1 0 0 0 11.283203 12.302734 L 7.2929688 16.292969 A 1 1 0 0 0 7.2929688 17.707031 A 1 1 0 0 0 8.7070312 17.707031 L 11 15.414062 L 11 21 A 1 1 0 0 0 12 22 A 1 1 0 0 0 13 21 L 13 15.414062 L 15.292969 17.707031 A 1 1 0 0 0 16.707031 17.707031 A 1 1 0 0 0 16.707031 16.292969 L 12.716797 12.302734 A 1 1 0 0 0 12.658203 12.25 A 1.0001 1.0001 0 0 0 12.615234 12.212891 A 1 1 0 0 0 12.560547 12.175781 A 1.0001 1.0001 0 0 0 12.382812 12.076172 A 1 1 0 0 0 12.257812 12.035156 A 1.0001 1.0001 0 0 0 12.205078 12.023438 A 1.0001 1.0001 0 0 0 12 12 z "/>
</svg>
