<?xml version="1.0" encoding="UTF-8" standalone="no"?>
<svg xmlns="http://www.w3.org/2000/svg" xmlns:svg="http://www.w3.org/2000/svg" width="24" height="24" viewBox="0 0 24 24" fill="currentColor" tags="weather,partly,night,rainfall" categories="weather">
  <path d="M 16 3 C 12.811923 2.9986584 10.017722 5.1631577 9.2207031 8.25 A 1 1 0 0 0 9.9375 9.46875 A 1 1 0 0 0 11.15625 8.75 C 11.546207 7.239702 12.621424 6.0893146 13.974609 5.4824219 C 13.782672 6.0698937 13.655387 6.6669739 13.689453 7.2460938 C 13.768153 8.5839795 14.385834 9.7998968 15.292969 10.707031 C 16.200104 11.614166 17.41602 12.231847 18.753906 12.310547 C 19.312521 12.343407 19.887723 12.212347 20.455078 12.035156 C 20.030609 12.967737 19.418313 13.79989 18.5 14.330078 A 1 1 0 0 0 18.134766 15.697266 A 1 1 0 0 0 19.5 16.0625 C 21.664724 14.812696 23.000353 12.499608 23 10 A 1.0001 1.0001 0 0 0 21.292969 9.2929688 C 20.469746 10.116192 19.658208 10.360754 18.871094 10.314453 C 18.08398 10.268152 17.299896 9.8858339 16.707031 9.2929688 C 16.114166 8.7001035 15.731848 7.9160201 15.685547 7.1289062 C 15.639246 6.3417926 15.883808 5.5302541 16.707031 4.7070312 A 1.0001 1.0001 0 0 0 16 3 z M 7.2070312 11.009766 C 6.321801 10.975283 5.4122716 11.137721 4.5410156 11.529297 C 1.0559917 13.0956 -0.09185356 17.541868 2.1992188 20.599609 A 1 1 0 0 0 3.5996094 20.800781 A 1 1 0 0 0 3.8007812 19.400391 C 2.2508853 17.331847 3.003732 14.413109 5.3613281 13.353516 C 7.7189243 12.293922 10.402 13.66882 10.919922 16.201172 A 1.0001 1.0001 0 0 0 11.900391 17 L 13 17 A 1.0001 1.0001 0 0 0 13.001953 17 C 13.969438 16.9986 14.592881 17.553074 14.873047 18.287109 C 15.153213 19.021145 15.056375 19.850572 14.333984 20.494141 A 1 1 0 0 0 14.253906 21.904297 A 1 1 0 0 0 15.666016 21.986328 C 17.003736 20.794569 17.287282 19.002365 16.742188 17.574219 C 16.19705 16.146074 14.789632 14.997367 12.998047 15 L 12.511719 15 C 11.656901 12.68303 9.5760954 11.102049 7.2070312 11.009766 z M 7 18 A 1 1 0 0 0 6 19 L 6 21 A 1 1 0 0 0 7 22 A 1 1 0 0 0 8 21 L 8 19 A 1 1 0 0 0 7 18 z M 11 19 A 1 1 0 0 0 10 20 L 10 22 A 1 1 0 0 0 11 23 A 1 1 0 0 0 12 22 L 12 20 A 1 1 0 0 0 11 19 z "/>
</svg>
