<svg xmlns="http://www.w3.org/2000/svg" xmlns:svg="http://www.w3.org/2000/svg" width="24" height="24" viewBox="0 0 24 24" fill="currentColor" tags="sync,network,success,done,completed,saved,persisted" categories="development">
  <path d="M 9.1933594 4.0175781 C 8.7646886 4.0016906 8.3315033 4.0218977 7.8984375 4.0800781 C 6.6544203 4.2472063 5.424467 4.7131191 4.3144531 5.515625 C -0.12560249 8.7256484 -0.067652335 15.432316 4.4277344 18.564453 A 1 1 0 0 0 5.8203125 18.314453 A 1 1 0 0 0 5.5722656 16.921875 C 2.1568571 14.542207 2.1129615 9.575559 5.4863281 7.1367188 C 8.8596948 4.6978786 13.562852 6.2959368 14.751953 10.285156 A 1.0001 1.0001 0 0 0 15.710938 11 L 17.5 11 C 19.563132 11.00083 20.678613 12.342498 20.947266 13.908203 C 21.215918 15.473908 20.610862 17.110288 18.666016 17.798828 A 1 1 0 0 0 18.056641 19.076172 A 1 1 0 0 0 19.333984 19.685547 C 22.155362 18.686685 23.328799 15.953248 22.919922 13.570312 C 22.511045 11.187377 20.492975 9.0012038 17.5 9 L 16.246094 9 C 14.991062 6.0079054 12.194055 4.1287906 9.1933594 4.0175781 z M 17 14 A 1 1 0 0 0 16.292969 14.292969 L 11.5 19.085938 L 9.7070312 17.292969 A 1 1 0 0 0 8.2929688 17.292969 A 1 1 0 0 0 8.2929688 18.707031 L 10.792969 21.207031 A 1.0001 1.0001 0 0 0 12.207031 21.207031 L 17.707031 15.707031 A 1 1 0 0 0 17.707031 14.292969 A 1 1 0 0 0 17 14 z "/>
</svg>
