<svg xmlns="http://www.w3.org/2000/svg" xmlns:svg="http://www.w3.org/2000/svg" width="24" height="24" viewBox="0 0 24 24" fill="currentColor" tags="storage,memory,bytes,servers,backup,timemachine,rotate,synchronize,synchronise,refresh,reconnect,transfer,data,security,upload,save,remote,safety" categories="arrows,files">
  <path d="M 9.1347656 2.0117188 C 8.0154614 1.9903224 6.8721405 2.2056233 5.7753906 2.6894531 C 1.388391 4.6247723 -0.32211719 10.008116 2.1425781 14.121094 A 1 1 0 0 0 3.5136719 14.464844 A 1 1 0 0 0 3.8574219 13.09375 C 1.9934253 9.9831925 3.2642366 5.9831721 6.5820312 4.5195312 C 9.8998259 3.0558905 13.711283 4.8133422 14.751953 8.2871094 A 1.0001 1.0001 0 0 0 15.710938 9 L 17.486328 9 C 20.434627 9.039879 22.011812 12.305462 20.208984 14.638672 A 1 1 0 0 0 20.388672 16.042969 A 1 1 0 0 0 21.791016 15.863281 C 24.524877 12.325134 21.984559 7.0604732 17.513672 7 A 1.0001 1.0001 0 0 0 17.5 7 L 16.271484 7 C 15.023855 4.0166072 12.226207 2.0708137 9.1347656 2.0117188 z M 7 10 A 1 1 0 0 0 6 11 L 6 15 A 1.0001 1.0001 0 0 0 6.0078125 15.130859 A 1.0001 1.0001 0 0 0 6.0761719 15.382812 A 1.0001 1.0001 0 0 0 6.6171875 15.923828 A 1.0001 1.0001 0 0 0 6.8691406 15.992188 A 1.0001 1.0001 0 0 0 7 16 L 11 16 A 1 1 0 0 0 12 15 A 1 1 0 0 0 11 14 L 9.4140625 14 L 9.796875 13.617188 C 10.514102 12.900695 11.486208 12.499266 12.5 12.5 C 14.444841 12.5 16 14.055159 16 16 C 16 17.978189 14.793388 19.285667 13.265625 19.794922 C 11.737862 20.304176 9.9876945 19.982942 8.8007812 18.400391 A 1 1 0 0 0 7.4003906 18.199219 A 1 1 0 0 0 7.1992188 19.599609 C 8.8953422 21.861107 11.645007 22.441899 13.896484 21.691406 C 16.147962 20.940914 18 18.826872 18 16 C 18 12.974279 15.525721 10.5 12.5 10.5 C 10.956397 10.4989 9.4748634 11.112191 8.3828125 12.203125 L 8 12.585938 L 8 11 A 1 1 0 0 0 7 10 z "/>
</svg>
