<?xml version="1.0" encoding="UTF-8" standalone="no"?>
<svg xmlns="http://www.w3.org/2000/svg" xmlns:svg="http://www.w3.org/2000/svg" width="24" height="24" viewBox="0 0 24 24" fill="currentColor" tags="weather,clouds" categories="weather">
  <path d="M 11.667969 2.0058594 C 11.511057 2.001321 11.354147 2.0024361 11.197266 2.0097656 C 8.5502916 2.1334329 5.9186771 3.8855355 5.1835938 6.96875 C 4.2101165 7.4905028 3.3207297 8.2358064 2.5878906 9.21875 C -1.3081814 14.44448 2.481452 21.998327 9 22 L 17.5 22 C 19.249999 22 20.689774 21.307744 21.623047 20.257812 C 22.556319 19.207881 23 17.847222 23 16.5 C 23 15.152778 22.556319 13.792119 21.623047 12.742188 C 20.689774 11.692255 19.249999 11 17.5 11 L 16.335938 11 C 14.943819 7.5967603 11.576276 5.789682 8.2636719 6.0644531 C 8.0501398 6.082165 7.8369797 6.1098406 7.625 6.1445312 C 8.4145069 4.7647491 9.8192604 4.0765732 11.291016 4.0078125 C 13.233427 3.9170626 15.16008 4.90914 15.832031 7.2734375 A 1.0001 1.0001 0 0 0 16.792969 8 L 19 8 C 20.116414 8 21 8.8835859 21 10 A 1 1 0 0 0 22 11 A 1 1 0 0 0 23 10 C 23 7.8027056 21.197294 6 19 6 L 17.402344 6 C 16.338355 3.4703767 14.021642 2.073935 11.667969 2.0058594 z M 8.8671875 7.9589844 C 9.2659425 7.9498918 9.665131 7.9813876 10.056641 8.0507812 C 12.144692 8.4208808 14.037893 9.8901253 14.751953 12.285156 A 1.0001 1.0001 0 0 0 15.710938 13 L 17.5 13 C 18.749999 13 19.560226 13.432744 20.126953 14.070312 C 20.69368 14.70788 21 15.597222 21 16.5 C 21 17.402778 20.69368 18.292119 20.126953 18.929688 C 19.560226 19.567256 18.749999 20 17.5 20 L 9 20 C 4.0015778 19.998717 1.203944 14.42109 4.1914062 10.414062 C 5.4050629 8.7862068 7.1392491 7.9983855 8.8671875 7.9589844 z "/>
</svg>
