<?xml version="1.0" encoding="UTF-8" standalone="no"?>
<svg xmlns="http://www.w3.org/2000/svg" xmlns:svg="http://www.w3.org/2000/svg" width="24" height="24" viewBox="0 0 24 24" fill="currentColor" tags="weather,night" categories="weather">
  <path d="M 16 3 C 12.811923 2.9986584 10.017722 5.1631577 9.2207031 8.25 A 1 1 0 0 0 9.9375 9.46875 A 1 1 0 0 0 11.15625 8.75 C 11.546207 7.239702 12.621424 6.0893146 13.974609 5.4824219 C 13.782672 6.0698937 13.655387 6.6669739 13.689453 7.2460938 C 13.768153 8.5839795 14.385834 9.7998968 15.292969 10.707031 C 16.200104 11.614166 17.41602 12.231847 18.753906 12.310547 C 19.312521 12.343407 19.887723 12.212347 20.455078 12.035156 C 20.030609 12.967737 19.418313 13.79989 18.5 14.330078 A 1 1 0 0 0 18.134766 15.697266 A 1 1 0 0 0 19.5 16.0625 C 21.664724 14.812696 23.000353 12.499608 23 10 A 1.0001 1.0001 0 0 0 21.292969 9.2929688 C 20.469746 10.116192 19.658208 10.360754 18.871094 10.314453 C 18.08398 10.268152 17.299896 9.8858339 16.707031 9.2929688 C 16.114166 8.7001035 15.731848 7.9160201 15.685547 7.1289062 C 15.639246 6.3417926 15.883808 5.5302541 16.707031 4.7070312 A 1.0001 1.0001 0 0 0 16 3 z M 6.8085938 11.039062 C 5.1736059 11.071048 3.5370796 11.755816 2.3535156 13.205078 C -0.80265494 17.069777 2.0100045 22.998982 7 23 L 13 23 C 14.25 23 15.314774 22.495244 15.998047 21.726562 C 16.681319 20.957881 17 19.972222 17 19 C 17 18.027778 16.681319 17.042119 15.998047 16.273438 C 15.314774 15.504756 14.25 15 13 15 L 12.587891 15 C 11.879208 13.02575 10.2854 11.679154 8.4257812 11.220703 C 7.8977334 11.090524 7.3535897 11.028401 6.8085938 11.039062 z M 6.8984375 12.957031 C 7.2602677 12.94599 7.6216571 12.984267 7.9707031 13.070312 C 9.3668872 13.414494 10.57578 14.513275 10.919922 16.199219 A 1.0001 1.0001 0 0 0 11.900391 17 L 13 17 C 13.749999 17 14.185226 17.245244 14.501953 17.601562 C 14.81868 17.957881 15 18.472222 15 19 C 15 19.527778 14.81868 20.042119 14.501953 20.398438 C 14.185226 20.754756 13.749999 21 13 21 L 7 21 C 3.5585817 20.999298 1.7257125 17.135966 3.9023438 14.470703 C 4.7185804 13.47123 5.812947 12.990155 6.8984375 12.957031 z "/>
</svg>
