<?xml version="1.0" encoding="UTF-8" standalone="no"?>
<svg xmlns="http://www.w3.org/2000/svg" xmlns:svg="http://www.w3.org/2000/svg" width="24" height="24" viewBox="0 0 24 24" fill="currentColor" tags="weather,night" categories="weather">
  <path d="M 16 3 C 12.81193 2.9986584 10.01772 5.1631639 9.2207031 8.25 A 1 1 0 0 0 9.9375 9.46875 A 1 1 0 0 0 11.15625 8.75 C 11.546207 7.2397051 12.621428 6.0893133 13.974609 5.4824219 C 13.782673 6.0698925 13.655387 6.666975 13.689453 7.2460938 C 13.768153 8.5839769 14.385836 9.7998986 15.292969 10.707031 C 16.200102 11.614164 17.416024 12.231847 18.753906 12.310547 C 19.312521 12.343407 19.887725 12.212347 20.455078 12.035156 C 20.03061 12.967735 19.418311 13.799891 18.5 14.330078 A 1 1 0 0 0 18.134766 15.697266 A 1 1 0 0 0 19.5 16.0625 C 21.66472 14.812698 23.000353 12.499604 23 10 A 1.0001 1.0001 0 0 0 21.292969 9.2929688 C 20.469748 10.11619 19.658206 10.360754 18.871094 10.314453 C 18.083982 10.268152 17.299896 9.8858328 16.707031 9.2929688 C 16.114168 8.7001046 15.731848 7.9160185 15.685547 7.1289062 C 15.639247 6.3417941 15.88381 5.5302524 16.707031 4.7070312 A 1.0001 1.0001 0 0 0 16 3 z M 6.8085938 11.039062 C 5.1736074 11.071048 3.5370772 11.755819 2.3535156 13.205078 C -0.80264862 17.069769 2.0100145 22.998982 7 23 L 13 23 C 14.249997 23 15.314776 22.495244 15.998047 21.726562 C 16.681318 20.957882 17 19.97222 17 19 C 17 18.02778 16.681318 17.042119 15.998047 16.273438 C 15.314776 15.504757 14.249997 15 13 15 L 12.587891 15 C 11.879209 13.025754 10.285396 11.679154 8.4257812 11.220703 C 7.8977345 11.090524 7.3535892 11.028401 6.8085938 11.039062 z M 6.8984375 12.957031 C 7.2602673 12.94599 7.6216578 12.984267 7.9707031 13.070312 C 9.3668844 13.414493 10.57578 14.513278 10.919922 16.199219 A 1.0001 1.0001 0 0 0 11.900391 17 L 13 17 C 13.749998 17 14.185226 17.245246 14.501953 17.601562 C 14.81868 17.95788 15 18.472224 15 19 C 15 19.527776 14.81868 20.042121 14.501953 20.398438 C 14.185226 20.754755 13.749998 21 13 21 L 7 21 C 3.5585886 20.999298 1.7257168 17.13596 3.9023438 14.470703 C 4.7185788 13.471232 5.8129481 12.990155 6.8984375 12.957031 z "/>
</svg>
