<?xml version="1.0" encoding="UTF-8" standalone="no"?>
<svg xmlns="http://www.w3.org/2000/svg" xmlns:svg="http://www.w3.org/2000/svg" width="24" height="24" viewBox="0 0 24 24" fill="currentColor" tags="disconnect" categories="connectivity,weather">
  <path d="M 2 1 A 1 1 0 0 0 1.2929688 1.2929688 A 1 1 0 0 0 1.2929688 2.7070312 L 4.1855469 5.5996094 C 1.415745 7.6372173 0.51711941 10.986549 1.2246094 13.892578 C 2.0213595 17.165245 4.8839393 20.001742 9 20 L 17.5 20 C 17.833634 20.000241 18.164775 19.966251 18.492188 19.90625 L 21.292969 22.707031 A 1 1 0 0 0 22.707031 22.707031 A 1 1 0 0 0 22.707031 21.292969 L 2.7070312 1.2929688 A 1 1 0 0 0 2 1 z M 10.142578 4.0800781 A 1 1 0 0 0 9.0097656 4.9257812 A 1 1 0 0 0 9.8574219 6.0605469 C 12.175308 6.3963825 14.081684 8.0429796 14.751953 10.287109 A 1.0001 1.0001 0 0 0 15.710938 11 L 17.5 11 C 20.138918 10.999489 21.809571 13.690728 20.636719 16.054688 A 1 1 0 0 0 21.087891 17.396484 A 1 1 0 0 0 22.427734 16.945312 C 24.223343 13.326147 21.54012 8.9992179 17.5 9 L 16.337891 9 C 15.270103 6.4002545 12.961761 4.488546 10.142578 4.0800781 z M 5.6210938 7.0351562 L 16.585938 18 L 9 18 C 5.7791736 18.001363 3.77531 15.914589 3.1679688 13.419922 C 2.6072679 11.116832 3.2657818 8.5761296 5.6210938 7.0351562 z "/>
</svg>
