<?xml version="1.0" encoding="UTF-8" standalone="no"?>
<svg xmlns="http://www.w3.org/2000/svg" xmlns:svg="http://www.w3.org/2000/svg" width="24" height="24" viewBox="0 0 24 24" fill="currentColor" tags="import" categories="arrows,files">
  <path d="M 8.8496094 2.0078125 C 8.6398465 2.0099941 8.429757 2.0211869 8.21875 2.0410156 C 7.0040401 2.1551645 5.7921458 2.5537359 4.6777344 3.2695312 C 0.2200889 6.1327127 -0.25317116 12.533194 3.734375 16.021484 A 1 1 0 0 0 5.1464844 15.927734 A 1 1 0 0 0 5.0507812 14.515625 C 2.0252354 11.868889 2.3775345 7.1236061 5.7597656 4.9511719 C 9.1419967 2.7787376 13.603178 4.4329545 14.751953 8.2851562 A 1.0001 1.0001 0 0 0 15.710938 9 L 17.5 9 C 19.31051 8.9997727 20.447689 10.118358 20.857422 11.511719 C 21.267154 12.905079 20.916971 14.463497 19.394531 15.443359 A 1 1 0 0 0 19.095703 16.826172 A 1 1 0 0 0 20.476562 17.125 C 22.729927 15.674703 23.406996 13.090452 22.777344 10.949219 C 22.14769 8.8079859 20.17974 6.9996636 17.5 7 L 16.251953 7 C 14.954028 3.9017379 11.996052 1.975088 8.8496094 2.0078125 z M 12 12 A 1 1 0 0 0 11 13 L 11 18.585938 L 8.7070312 16.292969 A 1 1 0 0 0 7.2929688 16.292969 A 1 1 0 0 0 7.2929688 17.707031 L 11.292969 21.707031 A 1 1 0 0 0 11.505859 21.863281 A 1.0001 1.0001 0 0 0 11.576172 21.898438 A 1 1 0 0 0 11.759766 21.964844 A 1.0001 1.0001 0 0 0 11.835938 21.982422 A 1 1 0 0 0 12.357422 21.929688 A 1.0001 1.0001 0 0 0 12.4375 21.890625 A 1 1 0 0 0 12.585938 21.802734 A 1.0001 1.0001 0 0 0 12.664062 21.740234 A 1 1 0 0 0 12.707031 21.707031 L 16.707031 17.707031 A 1 1 0 0 0 16.707031 16.292969 A 1 1 0 0 0 15.292969 16.292969 L 13 18.585938 L 13 13 A 1 1 0 0 0 12 12 z "/>
</svg>
