<?xml version="1.0" encoding="UTF-8" standalone="no"?>
<svg xmlns="http://www.w3.org/2000/svg" xmlns:svg="http://www.w3.org/2000/svg" width="24" height="24" viewBox="0 0 24 24" fill="currentColor" tags="weather,rainfall" categories="weather">
  <path d="M 9.0644531 2.0097656 C 8.8592444 2.006539 8.6521659 2.0117597 8.4453125 2.0253906 C 7.2526835 2.1039807 6.0553723 2.4530768 4.9414062 3.109375 C 0.48554206 5.7345678 -0.3323309 11.901664 3.2851562 15.597656 A 1 1 0 0 0 4.6992188 15.613281 A 1 1 0 0 0 4.7148438 14.199219 C 1.9724912 11.397347 2.5791209 6.8240957 5.9570312 4.8339844 C 9.3349417 2.8438731 13.630293 4.5284512 14.751953 8.2851562 A 1.0001 1.0001 0 0 0 15.710938 9 L 17.5 9 C 19.293049 8.9997956 20.430888 10.103933 20.849609 11.484375 C 21.268331 12.864817 20.936328 14.414222 19.445312 15.410156 A 1 1 0 0 0 19.167969 16.796875 A 1 1 0 0 0 20.554688 17.074219 C 22.764521 15.598149 23.407531 13.026973 22.763672 10.904297 C 22.119813 8.7816204 20.157469 6.9996971 17.5 7 L 16.255859 7 C 14.989779 3.9775791 12.142584 2.0581645 9.0644531 2.0097656 z M 8 13 A 1 1 0 0 0 7 14 L 7 20 A 1 1 0 0 0 8 21 A 1 1 0 0 0 9 20 L 9 14 A 1 1 0 0 0 8 13 z M 16 13 A 1 1 0 0 0 15 14 L 15 20 A 1 1 0 0 0 16 21 A 1 1 0 0 0 17 20 L 17 14 A 1 1 0 0 0 16 13 z M 12 15 A 1 1 0 0 0 11 16 L 11 22 A 1 1 0 0 0 12 23 A 1 1 0 0 0 13 22 L 13 16 A 1 1 0 0 0 12 15 z "/>
</svg>
