<?xml version="1.0" encoding="UTF-8" standalone="no"?>
<svg xmlns="http://www.w3.org/2000/svg" xmlns:svg="http://www.w3.org/2000/svg" width="24" height="24" viewBox="0 0 24 24" fill="currentColor" tags="leaf,luck,plant" categories="gaming">
  <path d="M 9.8945312 1.9472656 C 8.8818454 1.9439471 7.9537054 2.3648586 7.25 3.0078125 C 6.5462946 3.6507664 6.0429576 4.5380039 5.9550781 5.546875 C 5.9415253 5.7024634 6.0146521 5.8644729 6.0234375 6.0234375 C 5.8644729 6.0146521 5.7024634 5.9415253 5.546875 5.9550781 C 4.5380039 6.0429576 3.6507664 6.5462946 3.0078125 7.25 C 2.3648586 7.9537054 1.9439471 8.8818454 1.9472656 9.8945312 C 1.9496584 10.624714 2.2862815 11.347966 2.78125 12.011719 C 2.3260165 12.675163 2.0235417 13.390223 2.0351562 14.103516 C 2.0512102 15.089443 2.4646804 15.990868 3.09375 16.675781 C 3.5527649 17.175545 4.1378238 17.569197 4.8007812 17.785156 L 1.2929688 21.292969 A 1 1 0 0 0 1.2929688 22.707031 A 1 1 0 0 0 2.7070312 22.707031 L 6.1308594 19.283203 C 6.3505919 19.94744 6.7471012 20.532705 7.25 20.992188 C 7.9537054 21.635142 8.8818454 22.056053 9.8945312 22.052734 C 10.620598 22.050354 11.338937 21.715983 12 21.226562 C 12.661063 21.715983 13.379401 22.050355 14.105469 22.052734 C 15.118155 22.056034 16.046295 21.635142 16.75 20.992188 C 17.453705 20.349234 17.957042 19.461996 18.044922 18.453125 C 18.058472 18.297536 17.985352 18.135527 17.976562 17.976562 C 18.135527 17.985362 18.297536 18.058472 18.453125 18.044922 C 19.461996 17.957042 20.349234 17.453705 20.992188 16.75 C 21.635142 16.046295 22.056053 15.118155 22.052734 14.105469 C 22.050355 13.379401 21.715983 12.661063 21.226562 12 C 21.715983 11.338937 22.050355 10.620598 22.052734 9.8945312 C 22.056053 8.8818454 21.635142 7.9537054 20.992188 7.25 C 20.349234 6.5462946 19.461996 6.0429576 18.453125 5.9550781 C 18.297536 5.9415251 18.135527 6.0146525 17.976562 6.0234375 C 17.985362 5.8644729 18.058472 5.7024634 18.044922 5.546875 C 17.957042 4.5380043 17.453705 3.6507664 16.75 3.0078125 C 16.046295 2.3648586 15.118155 1.9439471 14.105469 1.9472656 C 13.379401 1.9496449 12.661063 2.2840171 12 2.7734375 C 11.338937 2.2840171 10.620598 1.9496449 9.8945312 1.9472656 z M 9.8886719 3.9472656 C 10.329688 3.9487156 10.763352 4.1006784 11.232422 4.6621094 A 1.0001 1.0001 0 0 0 12.767578 4.6621094 C 13.236648 4.1006784 13.670313 3.9487108 14.111328 3.9472656 C 14.552344 3.9458156 15.031341 4.1454014 15.402344 4.484375 C 15.773346 4.8233486 16.014464 5.2813487 16.052734 5.7207031 C 16.091004 6.1600577 15.979803 6.6053308 15.462891 7.1230469 L 12 10.585938 L 8.5371094 7.1230469 C 8.020195 6.6053308 7.9089949 6.1600577 7.9472656 5.7207031 C 7.9855364 5.2813487 8.2266536 4.8233486 8.5976562 4.484375 C 8.9686588 4.1454014 9.4476566 3.9458204 9.8886719 3.9472656 z M 5.8867188 7.9394531 C 6.2733579 7.9421662 6.6700453 8.0848093 7.1230469 8.5371094 L 10.585938 12 L 7.1425781 15.443359 C 6.636736 15.903253 6.1982845 16.002536 5.7695312 15.958984 C 5.3374196 15.915094 4.8948348 15.681802 4.5664062 15.324219 C 4.2379778 14.966634 4.0422276 14.506543 4.0351562 14.072266 C 4.0280863 13.637988 4.1649062 13.20555 4.6757812 12.736328 A 1 1 0 0 0 4.7109375 12.679688 A 1 1 0 0 0 4.7871094 12.640625 A 1 1 0 0 0 4.7382812 11.326172 A 1 1 0 0 0 4.7363281 11.324219 A 1 1 0 0 0 4.734375 11.324219 A 1 1 0 0 0 4.6621094 11.232422 C 4.1006726 10.763399 3.9487108 10.329688 3.9472656 9.8886719 C 3.9458204 9.447656 4.1454014 8.9686588 4.484375 8.5976562 C 4.8233486 8.2266536 5.2813487 7.9855364 5.7207031 7.9472656 C 5.7756224 7.9424818 5.8314846 7.9390655 5.8867188 7.9394531 z M 18.113281 7.9394531 C 18.168515 7.9390655 18.224378 7.9424818 18.279297 7.9472656 C 18.718651 7.9855366 19.176651 8.2266536 19.515625 8.5976562 C 19.854599 8.9686588 20.05418 9.447656 20.052734 9.8886719 C 20.051334 10.329688 19.899321 10.763352 19.337891 11.232422 A 1.0001 1.0001 0 0 0 19.337891 12.767578 C 19.899321 13.236648 20.051289 13.670313 20.052734 14.111328 C 20.054134 14.552344 19.854599 15.031341 19.515625 15.402344 C 19.176651 15.773346 18.718651 16.014464 18.279297 16.052734 C 17.839942 16.091004 17.39467 15.979803 16.876953 15.462891 L 13.414062 12 L 16.876953 8.5371094 C 17.329955 8.0848093 17.726642 7.9421662 18.113281 7.9394531 z M 12 13.414062 L 15.462891 16.876953 C 15.979804 17.39467 16.091005 17.839942 16.052734 18.279297 C 16.014464 18.718651 15.773346 19.176651 15.402344 19.515625 C 15.031341 19.854599 14.552344 20.05418 14.111328 20.052734 C 13.670313 20.051334 13.236648 19.899321 12.767578 19.337891 A 1.0001 1.0001 0 0 0 11.232422 19.337891 C 10.763352 19.899321 10.329688 20.051289 9.8886719 20.052734 C 9.4476566 20.05418 8.9686588 19.854599 8.5976562 19.515625 C 8.2266536 19.176651 7.9855364 18.718651 7.9472656 18.279297 C 7.9089949 17.839942 8.020195 17.39467 8.5371094 16.876953 L 12 13.414062 z "/>
</svg>
