<?xml version="1.0" encoding="UTF-8" standalone="no"?>
<svg xmlns="http://www.w3.org/2000/svg" xmlns:svg="http://www.w3.org/2000/svg" width="24" height="24" viewBox="0 0 24 24" fill="currentColor" tags="leaf,luck,plant" categories="gaming">
  <path d="M 9.8945312 1.9472656 C 8.8818433 1.9439471 7.9537068 2.3648573 7.25 3.0078125 C 6.5462932 3.6507677 6.0429578 4.5380019 5.9550781 5.546875 C 5.9415253 5.7024638 6.0146521 5.8644725 6.0234375 6.0234375 C 5.8644725 6.0146521 5.7024638 5.9415253 5.546875 5.9550781 C 4.5380019 6.0429578 3.6507677 6.5462932 3.0078125 7.25 C 2.3648573 7.9537068 1.9439471 8.8818434 1.9472656 9.8945312 C 1.9496556 10.624716 2.2862805 11.347965 2.78125 12.011719 C 2.3260155 12.675164 2.0235417 13.390222 2.0351562 14.103516 C 2.0512103 15.089445 2.4646792 15.990866 3.09375 16.675781 C 3.5527658 17.175546 4.1378231 17.569197 4.8007812 17.785156 L 1.2929688 21.292969 A 1 1 0 0 0 1.2929688 22.707031 A 1 1 0 0 0 2.7070312 22.707031 L 6.1308594 19.283203 C 6.350592 19.94744 6.7471002 20.532704 7.25 20.992188 C 7.9537068 21.635144 8.8818433 22.056053 9.8945312 22.052734 C 10.6206 22.050354 11.338935 21.715984 12 21.226562 C 12.661065 21.715985 13.3794 22.050355 14.105469 22.052734 C 15.118157 22.056034 16.046293 21.635144 16.75 20.992188 C 17.453707 20.349232 17.957042 19.461998 18.044922 18.453125 C 18.058472 18.297536 17.985352 18.135527 17.976562 17.976562 C 18.135527 17.985363 18.297536 18.058472 18.453125 18.044922 C 19.461998 17.957042 20.349232 17.453707 20.992188 16.75 C 21.635144 16.046293 22.056053 15.118157 22.052734 14.105469 C 22.050355 13.3794 21.715984 12.661065 21.226562 12 C 21.715984 11.338935 22.050355 10.6206 22.052734 9.8945312 C 22.056053 8.8818433 21.635143 7.9537068 20.992188 7.25 C 20.349232 6.5462932 19.461998 6.0429578 18.453125 5.9550781 C 18.297536 5.9415251 18.135527 6.0146525 17.976562 6.0234375 C 17.985363 5.8644725 18.058472 5.7024638 18.044922 5.546875 C 17.957042 4.5380023 17.453707 3.6507677 16.75 3.0078125 C 16.046293 2.3648573 15.118157 1.9439471 14.105469 1.9472656 C 13.3794 1.9496449 12.661065 2.2840161 12 2.7734375 C 11.338935 2.2840161 10.6206 1.9496449 9.8945312 1.9472656 z M 9.8886719 3.9472656 C 10.329689 3.9487156 10.763352 4.1006773 11.232422 4.6621094 A 1.0001 1.0001 0 0 0 12.767578 4.6621094 C 13.236648 4.1006773 13.670311 3.9487108 14.111328 3.9472656 C 14.552345 3.9458156 15.03134 4.1454007 15.402344 4.484375 C 15.773347 4.8233493 16.014464 5.2813477 16.052734 5.7207031 C 16.091004 6.1600585 15.979804 6.6053298 15.462891 7.1230469 L 12 10.585938 L 8.5371094 7.1230469 C 8.020194 6.6053298 7.9089948 6.1600585 7.9472656 5.7207031 C 7.9855365 5.2813477 8.2266528 4.8233493 8.5976562 4.484375 C 8.9686595 4.1454007 9.4476558 3.9458204 9.8886719 3.9472656 z M 5.8867188 7.9394531 C 6.2733584 7.9421661 6.6700444 8.0848084 7.1230469 8.5371094 L 10.585938 12 L 7.1425781 15.443359 C 6.6367349 15.903254 6.1982853 16.002536 5.7695312 15.958984 C 5.3374188 15.915094 4.8948354 15.681803 4.5664062 15.324219 C 4.2379771 14.966634 4.0422277 14.506544 4.0351562 14.072266 C 4.0280863 13.637987 4.1649051 13.20555 4.6757812 12.736328 A 1 1 0 0 0 4.7109375 12.679688 A 1 1 0 0 0 4.7871094 12.640625 A 1 1 0 0 0 4.7382812 11.326172 A 1 1 0 0 0 4.7363281 11.324219 A 1 1 0 0 0 4.734375 11.324219 A 1 1 0 0 0 4.6621094 11.232422 C 4.1006715 10.763399 3.9487108 10.329689 3.9472656 9.8886719 C 3.9458204 9.4476552 4.1454007 8.9686596 4.484375 8.5976562 C 4.8233493 8.2266528 5.2813477 7.9855365 5.7207031 7.9472656 C 5.7756225 7.9424818 5.8314845 7.9390656 5.8867188 7.9394531 z M 18.113281 7.9394531 C 18.168516 7.9390656 18.224377 7.9424818 18.279297 7.9472656 C 18.718652 7.9855366 19.176651 8.2266529 19.515625 8.5976562 C 19.854599 8.9686595 20.05418 9.4476552 20.052734 9.8886719 C 20.051334 10.329689 19.899323 10.763352 19.337891 11.232422 A 1.0001 1.0001 0 0 0 19.337891 12.767578 C 19.899323 13.236648 20.051289 13.670311 20.052734 14.111328 C 20.054134 14.552345 19.854599 15.03134 19.515625 15.402344 C 19.176651 15.773347 18.718652 16.014464 18.279297 16.052734 C 17.839941 16.091004 17.39467 15.979804 16.876953 15.462891 L 13.414062 12 L 16.876953 8.5371094 C 17.329956 8.0848084 17.726641 7.9421661 18.113281 7.9394531 z M 12 13.414062 L 15.462891 16.876953 C 15.979806 17.39467 16.091005 17.839941 16.052734 18.279297 C 16.014464 18.718652 15.773347 19.176651 15.402344 19.515625 C 15.03134 19.854599 14.552345 20.05418 14.111328 20.052734 C 13.670311 20.051334 13.236648 19.899323 12.767578 19.337891 A 1.0001 1.0001 0 0 0 11.232422 19.337891 C 10.763352 19.899323 10.329689 20.051289 9.8886719 20.052734 C 9.4476558 20.05418 8.9686596 19.854599 8.5976562 19.515625 C 8.2266528 19.176651 7.9855365 18.718652 7.9472656 18.279297 C 7.9089948 17.839941 8.020194 17.39467 8.5371094 16.876953 L 12 13.414062 z "/>
</svg>
