<?xml version="1.0" encoding="UTF-8" standalone="no"?>
<svg xmlns="http://www.w3.org/2000/svg" xmlns:svg="http://www.w3.org/2000/svg" width="24" height="24" viewBox="0 0 24 24" fill="currentColor" tags="leaf,luck,plant" categories="gaming">
  <path d="M 9.6796875 1.9941406 C 8.7301856 1.9941406 7.7808985 2.3532559 7.0625 3.0722656 A 1.0001 1.0001 0 0 0 7.0527344 3.0839844 C 6.2909358 3.8677603 5.940447 4.9469678 6.0351562 6.0390625 C 5.9560532 6.0325279 5.8776595 6.0271985 5.7988281 6.0253906 C 4.7869702 6.0021858 3.8069912 6.3686928 3.0898438 7.0976562 C 1.7753841 8.4210994 1.7290128 10.491988 2.8398438 11.935547 L 3.0722656 11.703125 C 2.9864797 11.788835 2.954457 11.90224 2.8789062 11.994141 C 2.9608192 12.096389 2.9974181 12.221613 3.0917969 12.316406 L 3.0742188 12.298828 L 2.8398438 12.052734 C 1.6962758 13.50075 1.7373224 15.603691 3.0722656 16.9375 A 1.0001 1.0001 0 0 0 3.0839844 16.947266 C 3.5477378 17.398016 4.1145077 17.703327 4.7265625 17.859375 L 1.2929688 21.292969 A 1 1 0 0 0 1.2929688 22.707031 A 1 1 0 0 0 2.7070312 22.707031 L 6.1699219 19.244141 C 6.3265264 19.8554 6.6350557 20.421548 7.0917969 20.882812 A 1.0001 1.0001 0 0 0 7.09375 20.908203 C 7.10106 20.915503 7.1117796 20.916598 7.1191406 20.923828 C 7.1908626 20.994058 7.2853653 21.020808 7.3613281 21.083984 L 7.3535156 21.09375 L 7.3730469 21.103516 A 1.0001 1.0001 0 0 0 7.390625 21.103516 C 8.716616 22.184597 10.586048 22.198607 11.935547 21.160156 L 11.703125 20.927734 C 11.788835 21.013524 11.90224 21.045543 11.994141 21.121094 C 12.096389 21.039184 12.221613 21.002582 12.316406 20.908203 L 12.298828 20.925781 L 12.052734 21.160156 C 13.500748 22.303724 15.603691 22.262678 16.9375 20.927734 C 17.718348 20.146886 18.075858 19.061732 17.980469 17.962891 C 19.068862 18.047661 20.14118 17.68399 20.910156 16.902344 C 22.224616 15.5789 22.270987 13.508012 21.160156 12.064453 L 20.927734 12.296875 C 21.013524 12.211165 21.045543 12.09776 21.121094 12.005859 C 21.039184 11.903611 21.002582 11.778387 20.908203 11.683594 L 20.925781 11.701172 L 21.160156 11.947266 C 22.303757 10.499202 22.262678 8.3963085 20.927734 7.0625 A 1.0001 1.0001 0 0 0 20.916016 7.0527344 C 20.188056 6.3451877 19.206818 5.9924591 18.195312 6.0214844 C 18.117279 6.0237235 18.039216 6.0283558 17.960938 6.0351562 C 18.050453 4.9413626 17.687759 3.862528 16.902344 3.0898438 C 15.5789 1.7753841 13.508012 1.7290128 12.064453 2.8398438 L 12.296875 3.0722656 C 12.211178 2.9864796 12.09776 2.954457 12.005859 2.8789062 C 11.903611 2.9608189 11.778387 2.9974181 11.683594 3.0917969 L 11.701172 3.0742188 L 11.947266 2.8398438 C 11.27916 2.3122094 10.49307 1.9941406 9.6796875 1.9941406 z M 9.6796875 3.9824219 C 10.112883 3.9824219 10.546612 4.1498417 10.882812 4.4863281 L 11.283203 4.8867188 A 1.0001 1.0001 0 0 0 12.679688 4.9042969 L 13.078125 4.5253906 A 1.0001 1.0001 0 0 0 13.095703 4.5078125 C 13.767265 3.8391876 14.822578 3.8391876 15.494141 4.5078125 A 1.0001 1.0001 0 0 0 15.5 4.5136719 C 16.17782 5.1788229 16.297972 6.2651198 15.285156 7.3007812 L 12 10.585938 L 8.7148438 7.3007812 C 7.7042896 6.2674327 7.8233971 5.1668369 8.484375 4.4824219 C 8.8196123 4.1504167 9.2493869 3.9824219 9.6796875 3.9824219 z M 5.7675781 7.9726562 C 6.2466945 7.984369 6.7724804 8.2039507 7.2851562 8.6992188 A 1.0001 1.0001 0 0 0 7.2929688 8.7070312 C 7.2956746 8.7096613 7.2980761 8.7121983 7.3007812 8.7148438 L 10.601562 12.015625 L 7.4023438 15.212891 A 1 1 0 0 0 7.3007812 15.285156 C 6.2674327 16.29571 5.1668369 16.176603 4.4824219 15.515625 C 3.8161784 14.842896 3.8155996 13.787342 4.4863281 13.117188 L 4.8867188 12.716797 A 1.0001 1.0001 0 0 0 4.9042969 11.320312 L 4.5253906 10.921875 A 1.0001 1.0001 0 0 0 4.5078125 10.904297 C 3.8391876 10.232735 3.8391876 9.1774211 4.5078125 8.5058594 A 1.0001 1.0001 0 0 0 4.5136719 8.5 C 4.8462474 8.1610897 5.2834031 7.9608198 5.7675781 7.9726562 z M 18.238281 7.9726562 C 18.72815 7.9587361 19.17537 8.153886 19.517578 8.484375 C 20.183821 9.1571044 20.18439 10.212657 19.513672 10.882812 L 19.113281 11.283203 A 1.0001 1.0001 0 0 0 19.095703 12.679688 L 19.474609 13.078125 A 1.0001 1.0001 0 0 0 19.492188 13.095703 C 20.160813 13.767265 20.160813 14.822578 19.492188 15.494141 A 1.0001 1.0001 0 0 0 19.486328 15.5 C 18.837723 16.160959 17.789414 16.288473 16.777344 15.355469 C 16.763037 15.340452 16.748939 15.325439 16.734375 15.310547 A 1.0001 1.0001 0 0 0 16.726562 15.302734 L 13.417969 11.996094 L 16.699219 8.7148438 C 16.701931 8.7121917 16.704319 8.7096677 16.707031 8.7070312 A 1.0001 1.0001 0 0 0 16.714844 8.6992188 C 17.226437 8.2051046 17.753555 7.9864302 18.238281 7.9726562 z M 12.019531 13.423828 L 15.271484 16.675781 A 1 1 0 0 0 15.300781 16.714844 C 15.321952 16.735548 15.343811 16.755207 15.365234 16.775391 C 16.309654 17.791231 16.184389 18.85272 15.523438 19.513672 C 14.851036 20.186644 13.789588 20.186644 13.117188 19.513672 L 12.716797 19.113281 A 1.0001 1.0001 0 0 0 11.320312 19.095703 L 10.921875 19.474609 A 1.0001 1.0001 0 0 0 10.904297 19.492188 C 10.236579 20.156986 9.191597 20.155194 8.5195312 19.498047 A 1.0001 1.0001 0 0 0 8.5195312 19.496094 C 7.8417126 18.830949 7.721559 17.744646 8.734375 16.708984 L 12.019531 13.423828 z "/>
</svg>
