<?xml version="1.0" encoding="UTF-8" standalone="no"?>
<svg xmlns="http://www.w3.org/2000/svg" xmlns:svg="http://www.w3.org/2000/svg" width="24" height="24" viewBox="0 0 24 24" fill="currentColor" tags="shape,suit,playing,cards" categories="shapes,gaming">
  <path d="M 12 1.0097656 C 8.0144721 1.0097656 5.186117 4.6104879 5.71875 8.421875 C 1.7558835 9.6134011 -0.28925837 14.223225 1.9609375 17.892578 C 3.9448714 21.127743 8.0864316 21.704154 11 19.748047 L 11 22 A 1 1 0 0 0 12 23 A 1 1 0 0 0 13 22 L 13 19.753906 C 15.912149 21.715847 20.05758 21.143208 22.044922 17.90625 C 24.299638 14.233796 22.249975 9.6172567 18.28125 8.4296875 C 18.819123 4.6153518 15.988285 1.0097656 12 1.0097656 z M 12 3.0097656 C 15.026667 3.0097656 17.167784 5.863914 16.320312 8.7695312 A 1.0001 1.0001 0 0 0 16.279297 9.0507812 L 16.279297 9.0605469 A 1.0001 1.0001 0 0 0 17.138672 10.050781 C 20.381811 10.512245 22.053762 14.067766 20.339844 16.859375 C 18.628401 19.646952 14.70839 19.769009 12.826172 17.097656 A 1 1 0 0 0 12.818359 17.085938 A 1.0001 1.0001 0 0 0 12.816406 17.083984 A 1 1 0 0 0 12.462891 16.775391 A 1 1 0 0 0 12.460938 16.773438 A 1.0001 1.0001 0 0 0 12.458984 16.773438 A 1 1 0 0 0 12 16.660156 A 1 1 0 0 0 11.552734 16.767578 A 1.0001 1.0001 0 0 0 11.517578 16.791016 A 1 1 0 0 0 11.199219 17.068359 A 1.0001 1.0001 0 0 0 11.181641 17.083984 C 9.298272 19.759454 5.37642 19.634828 3.6660156 16.845703 C 1.9556113 14.056578 3.6227687 10.504611 6.8613281 10.039062 A 1.0001 1.0001 0 0 0 7.6796875 8.7695312 C 6.8322158 5.863914 8.9733333 3.0097656 12 3.0097656 z M 18.253906 9.03125 L 18.277344 9.0585938 L 18.251953 9.2460938 C 18.25285 9.1742648 18.236247 9.1046663 18.253906 9.03125 z "/>
</svg>
