<svg xmlns="http://www.w3.org/2000/svg" xmlns:svg="http://www.w3.org/2000/svg" width="24" height="24" viewBox="0 0 24 24" fill="currentColor" tags="shape,suit,playing,cards" categories="shapes,gaming">
  <path d="M 12 1.0097656 C 8.0144721 1.0097656 5.186117 4.6104879 5.71875 8.421875 C 1.7558835 9.6134011 -0.28925837 14.223225 1.9609375 17.892578 C 3.9446479 21.127379 8.086483 21.705316 11 19.75 L 11 22 A 1 1 0 0 0 12 23 A 1 1 0 0 0 13 22 L 13 19.757812 C 15.912066 21.718429 20.057954 21.142599 22.044922 17.90625 C 24.299638 14.233796 22.249975 9.6172567 18.28125 8.4296875 C 18.819123 4.6153518 15.988285 1.0097656 12 1.0097656 z M 12 3.0097656 C 15.026667 3.0097656 17.167784 5.863914 16.320312 8.7695312 A 1.0001 1.0001 0 0 0 16.279297 9.0507812 L 16.279297 9.0605469 A 1.0001 1.0001 0 0 0 17.138672 10.050781 C 20.381811 10.512245 22.053762 14.067766 20.339844 16.859375 C 18.629876 19.644549 14.716133 19.767756 12.832031 17.103516 C 12.827678 17.09736 12.822691 17.092123 12.818359 17.085938 A 1.0001 1.0001 0 0 0 12.814453 17.082031 A 1 1 0 0 0 12.734375 16.982422 A 1 1 0 0 0 12.732422 16.980469 A 1.0001 1.0001 0 0 0 12.644531 16.896484 A 1 1 0 0 0 12.632812 16.886719 A 1.0001 1.0001 0 0 0 12.53125 16.8125 A 1 1 0 0 0 12.521484 16.806641 A 1.0001 1.0001 0 0 0 12.408203 16.748047 A 1 1 0 0 0 12.400391 16.744141 A 1.0001 1.0001 0 0 0 12.277344 16.699219 A 1 1 0 0 0 12.210938 16.685547 A 1.0001 1.0001 0 0 0 12.140625 16.669922 A 1 1 0 0 0 12.136719 16.669922 A 1.0001 1.0001 0 0 0 11.814453 16.679688 A 1 1 0 0 0 11.730469 16.697266 A 1 1 0 0 0 11.615234 16.738281 A 1.0001 1.0001 0 0 0 11.5 16.794922 A 1.0001 1.0001 0 0 0 11.412109 16.853516 A 1 1 0 0 0 11.384766 16.873047 A 1.0001 1.0001 0 0 0 11.316406 16.931641 A 1 1 0 0 0 11.285156 16.960938 A 1.0001 1.0001 0 0 0 11.230469 17.025391 A 1 1 0 0 0 11.199219 17.0625 A 1.0001 1.0001 0 0 0 11.181641 17.083984 C 9.298272 19.759454 5.37642 19.634828 3.6660156 16.845703 C 1.9556113 14.056578 3.6227687 10.504611 6.8613281 10.039062 A 1.0001 1.0001 0 0 0 7.6796875 8.7695312 C 6.8322158 5.863914 8.9733333 3.0097656 12 3.0097656 z M 18.253906 9.03125 L 18.277344 9.0585938 L 18.251953 9.2441406 C 18.252527 9.1730104 18.236413 9.1039763 18.253906 9.03125 z "/>
</svg>
