<svg xmlns="http://www.w3.org/2000/svg" xmlns:svg="http://www.w3.org/2000/svg" width="24" height="24" viewBox="0 0 24 24" fill="currentColor" tags="logo" categories="brands,development">
  <path d="M 12 1.0019531 C 11.483132 1.0019531 10.966338 1.1362676 10.503906 1.4023438 L 7.3085938 3.2285156 A 1 1 0 0 0 6.7519531 3.546875 L 3.5039062 5.4023438 A 1.0001 1.0001 0 0 0 3.5 5.4042969 C 3.1263646 5.620015 2.8107213 5.9106538 2.5664062 6.25 A 1 1 0 0 0 2.4042969 6.4589844 A 1 1 0 0 0 2.3125 6.6679688 C 2.1104154 7.0747454 2.000481 7.5290863 2 7.9980469 A 1.0001 1.0001 0 0 0 2 8 L 2 16 A 1.0001 1.0001 0 0 0 2 16.001953 C 2.0011 17.071055 2.5741295 18.061152 3.5 18.595703 A 1.0001 1.0001 0 0 0 3.5039062 18.597656 L 6.7539062 20.455078 A 1 1 0 0 0 7.3046875 20.769531 L 10.503906 22.597656 C 10.823526 22.781561 11.169793 22.902152 11.523438 22.958984 A 1 1 0 0 0 12 23.080078 A 1 1 0 0 0 12.476562 22.958984 C 12.831755 22.902021 13.179195 22.780936 13.5 22.595703 L 16.695312 20.769531 A 1 1 0 0 0 17.246094 20.455078 L 20.496094 18.597656 A 1.0001 1.0001 0 0 0 20.5 18.595703 C 21.42587 18.061152 21.998903 17.071055 22 16.001953 A 1.0001 1.0001 0 0 0 22 16 L 22 8 A 1.0001 1.0001 0 0 0 22 7.9980469 C 21.999517 7.5290912 21.88958 7.0747421 21.6875 6.6679688 A 1 1 0 0 0 21.595703 6.4589844 A 1 1 0 0 0 21.433594 6.25 C 21.18928 5.91066 20.87363 5.620012 20.5 5.4042969 A 1.0001 1.0001 0 0 0 20.496094 5.4023438 L 17.248047 3.5449219 A 1 1 0 0 0 16.691406 3.2285156 L 13.5 1.4042969 C 13.036593 1.1367485 12.518296 1.0019531 12 1.0019531 z M 12 3.0019531 C 12.172303 3.0019531 12.344606 3.0470016 12.5 3.1367188 A 1.0001 1.0001 0 0 0 12.503906 3.1386719 L 14.439453 4.2441406 L 12 5.6542969 L 9.5605469 4.2441406 L 11.496094 3.1386719 A 1.0001 1.0001 0 0 0 11.5 3.1367188 C 11.655394 3.0470016 11.827697 3.0019531 12 3.0019531 z M 7.5507812 5.3945312 L 11.5 7.6757812 A 1.0001 1.0001 0 0 0 12.5 7.6757812 L 16.449219 5.3945312 L 18.958984 6.828125 L 12 10.855469 L 5.0410156 6.828125 L 7.5507812 5.3945312 z M 4 8.5371094 L 11 12.585938 L 11 20.578125 L 8.5 19.148438 L 8.5 14.599609 A 1.0001 1.0001 0 0 0 8 13.734375 L 4 11.423828 L 4 8.5371094 z M 20 8.5371094 L 20 11.423828 L 16 13.734375 A 1.0001 1.0001 0 0 0 15.5 14.599609 L 15.5 19.148438 L 13 20.578125 L 13 12.585938 L 20 8.5371094 z M 4 13.732422 L 6.5 15.177734 L 6.5 18.005859 L 4.5 16.863281 C 4.1900597 16.684337 4.0010048 16.357782 4 16 L 4 13.732422 z M 20 13.732422 L 20 15.998047 C 19.999632 16.356541 19.810466 16.684034 19.5 16.863281 L 17.5 18.005859 L 17.5 15.177734 L 20 13.732422 z "/>
</svg>
