<svg xmlns="http://www.w3.org/2000/svg" xmlns:svg="http://www.w3.org/2000/svg" width="24" height="24" viewBox="0 0 24 24" fill="currentColor" tags="logo" categories="brands,development">
  <path d="M 12 1 A 1 1 0 0 0 11.96875 1.0019531 A 1.0001 1.0001 0 0 0 11.90625 1.0058594 A 1 1 0 0 0 11.832031 1.015625 A 1.0001 1.0001 0 0 0 11.794922 1.0234375 A 1 1 0 0 0 11.716797 1.0429688 A 1.0001 1.0001 0 0 0 11.664062 1.0605469 A 1 1 0 0 0 11.587891 1.0898438 A 1.0001 1.0001 0 0 0 11.558594 1.1035156 A 1 1 0 0 0 11.484375 1.1464844 A 1.0001 1.0001 0 0 0 11.455078 1.1621094 L 11.429688 1.1796875 L 1.4765625 7.6484375 A 1 1 0 0 0 1.4570312 7.6601562 L 1.4550781 7.6621094 A 1.0001 1.0001 0 0 0 1.4453125 7.6699219 A 1 1 0 0 0 1.3613281 7.7304688 A 1.0001 1.0001 0 0 0 1.1855469 7.9199219 A 1 1 0 0 0 1.1816406 7.9257812 A 1 1 0 0 0 1.1445312 7.9863281 A 1.0001 1.0001 0 0 0 1.1191406 8.0273438 A 1 1 0 0 0 1.0859375 8.0996094 A 1.0001 1.0001 0 0 0 1.0664062 8.1425781 A 1 1 0 0 0 1.0410156 8.2226562 A 1.0001 1.0001 0 0 0 1.0292969 8.2617188 A 1 1 0 0 0 1.015625 8.3398438 A 1.0001 1.0001 0 0 0 1.0058594 8.3925781 A 1 1 0 0 0 1.0039062 8.4472656 A 1.0001 1.0001 0 0 0 1 8.5 L 1 15.5 A 1.0001 1.0001 0 0 0 1.0039062 15.552734 A 1 1 0 0 0 1.0058594 15.607422 A 1.0001 1.0001 0 0 0 1.015625 15.660156 A 1 1 0 0 0 1.0292969 15.738281 A 1.0001 1.0001 0 0 0 1.0410156 15.777344 A 1 1 0 0 0 1.0664062 15.857422 A 1.0001 1.0001 0 0 0 1.0859375 15.900391 A 1 1 0 0 0 1.1191406 15.972656 A 1.0001 1.0001 0 0 0 1.1445312 16.013672 A 1 1 0 0 0 1.1816406 16.074219 A 1 1 0 0 0 1.1855469 16.080078 A 1.0001 1.0001 0 0 0 1.1875 16.082031 A 1.0001 1.0001 0 0 0 1.3554688 16.263672 A 1 1 0 0 0 1.4453125 16.330078 A 1.0001 1.0001 0 0 0 1.4550781 16.337891 L 1.4570312 16.339844 A 1 1 0 0 0 1.4765625 16.351562 L 11.455078 22.837891 A 1.0001 1.0001 0 0 0 11.484375 22.853516 A 1 1 0 0 0 11.558594 22.896484 A 1.0001 1.0001 0 0 0 11.587891 22.910156 A 1 1 0 0 0 11.664062 22.939453 A 1.0001 1.0001 0 0 0 11.716797 22.957031 A 1 1 0 0 0 11.794922 22.976562 A 1.0001 1.0001 0 0 0 11.832031 22.984375 A 1 1 0 0 0 11.90625 22.994141 A 1.0001 1.0001 0 0 0 11.96875 22.998047 A 1 1 0 0 0 12 23 A 1 1 0 0 0 12.03125 22.998047 A 1.0001 1.0001 0 0 0 12.09375 22.994141 A 1 1 0 0 0 12.283203 22.957031 A 1.0001 1.0001 0 0 0 12.335938 22.939453 A 1 1 0 0 0 12.515625 22.853516 A 1.0001 1.0001 0 0 0 12.544922 22.837891 L 22.53125 16.347656 A 1 1 0 0 0 22.544922 16.337891 A 1.0001 1.0001 0 0 0 22.638672 16.269531 A 1 1 0 0 0 22.644531 16.263672 A 1.0001 1.0001 0 0 0 22.814453 16.080078 A 1.0001 1.0001 0 0 0 22.818359 16.074219 A 1 1 0 0 0 22.878906 15.976562 A 1.0001 1.0001 0 0 0 22.880859 15.972656 A 1 1 0 0 0 22.931641 15.863281 A 1.0001 1.0001 0 0 0 22.933594 15.857422 A 1 1 0 0 0 22.96875 15.746094 A 1.0001 1.0001 0 0 0 22.970703 15.738281 A 1 1 0 0 0 22.984375 15.660156 A 1.0001 1.0001 0 0 0 22.994141 15.607422 A 1 1 0 0 0 22.996094 15.552734 A 1.0001 1.0001 0 0 0 23 15.5 L 23 8.5 A 1.0001 1.0001 0 0 0 22.996094 8.4472656 A 1 1 0 0 0 22.994141 8.3925781 A 1.0001 1.0001 0 0 0 22.984375 8.3398438 A 1 1 0 0 0 22.96875 8.2539062 A 1.0001 1.0001 0 0 0 22.958984 8.2226562 A 1 1 0 0 0 22.931641 8.1367188 A 1.0001 1.0001 0 0 0 22.914062 8.0996094 A 1 1 0 0 0 22.878906 8.0234375 A 1.0001 1.0001 0 0 0 22.818359 7.9257812 A 1 1 0 0 0 22.8125 7.9179688 A 1.0001 1.0001 0 0 0 22.638672 7.7304688 A 1 1 0 0 0 22.544922 7.6621094 L 22.542969 7.6601562 L 22.53125 7.6523438 A 1 1 0 0 0 22.523438 7.6484375 L 12.570312 1.1796875 L 12.544922 1.1621094 A 1.0001 1.0001 0 0 0 12.515625 1.1464844 A 1 1 0 0 0 12.441406 1.1035156 A 1 1 0 0 0 12.412109 1.0898438 A 1 1 0 0 0 12.335938 1.0605469 A 1.0001 1.0001 0 0 0 12.283203 1.0429688 A 1 1 0 0 0 12.205078 1.0234375 A 1 1 0 0 0 12.167969 1.015625 A 1 1 0 0 0 12.09375 1.0058594 A 1.0001 1.0001 0 0 0 12.03125 1.0019531 A 1 1 0 0 0 12 1 z M 11 3.8417969 L 11 7.9804688 L 7 10.779297 L 3.7871094 8.53125 L 11 3.8417969 z M 13 3.8417969 L 20.212891 8.53125 L 17 10.779297 L 13 7.9804688 L 13 3.8417969 z M 12 9.7207031 L 15.255859 12 L 12 14.279297 L 8.7441406 12 L 12 9.7207031 z M 3 10.419922 L 5.2578125 12 L 3 13.580078 L 3 10.419922 z M 21 10.419922 L 21 13.580078 L 18.742188 12 L 21 10.419922 z M 7 13.220703 L 11 16.019531 L 11 20.15625 L 3.7871094 15.46875 L 7 13.220703 z M 17 13.220703 L 20.212891 15.46875 L 13 20.15625 L 13 16.019531 L 17 13.220703 z "/>
</svg>
