<?xml version="1.0" encoding="UTF-8" standalone="no"?>
<svg xmlns="http://www.w3.org/2000/svg" xmlns:svg="http://www.w3.org/2000/svg" width="24" height="24" viewBox="0 0 24 24" fill="currentColor" tags="logo" categories="brands,development">
  <path d="M 12 1 A 1 1 0 0 0 11.847656 1.0195312 A 1.0001 1.0001 0 0 0 11.791016 1.0273438 A 1 1 0 0 0 11.474609 1.1542969 A 1.0001 1.0001 0 0 0 11.455078 1.1621094 L 1.4667969 7.6542969 A 1 1 0 0 0 1.4609375 7.6582031 L 1.4550781 7.6621094 A 1.0001 1.0001 0 0 0 1.4414062 7.6757812 A 1 1 0 0 0 1.1816406 7.9257812 A 1 1 0 0 0 1.1542969 7.9882812 A 1.0001 1.0001 0 0 0 1.0976562 8.1152344 A 1 1 0 0 0 1.0214844 8.4179688 A 1.0001 1.0001 0 0 0 1 8.5 L 1 15.5 A 1.0001 1.0001 0 0 0 1.0214844 15.582031 A 1 1 0 0 0 1.0976562 15.884766 A 1.0001 1.0001 0 0 0 1.1542969 16.011719 A 1 1 0 0 0 1.1816406 16.074219 A 1 1 0 0 0 1.4414062 16.324219 A 1.0001 1.0001 0 0 0 1.4550781 16.337891 L 1.4609375 16.341797 A 1 1 0 0 0 1.4628906 16.34375 A 1 1 0 0 0 1.4667969 16.345703 L 11.455078 22.837891 A 1.0001 1.0001 0 0 0 11.474609 22.845703 A 1 1 0 0 0 11.791016 22.972656 A 1.0001 1.0001 0 0 0 11.847656 22.980469 A 1 1 0 0 0 12 23 A 1 1 0 0 0 12.152344 22.980469 A 1.0001 1.0001 0 0 0 12.208984 22.972656 A 1 1 0 0 0 12.525391 22.845703 A 1.0001 1.0001 0 0 0 12.544922 22.837891 L 22.537109 16.34375 A 1 1 0 0 0 22.539062 16.341797 A 1 1 0 0 0 22.544922 16.337891 A 1.0001 1.0001 0 0 0 22.558594 16.324219 A 1 1 0 0 0 22.818359 16.074219 A 1 1 0 0 0 22.875 15.982422 A 1.0001 1.0001 0 0 0 22.880859 15.972656 A 1 1 0 0 0 22.998047 15.511719 A 1.0001 1.0001 0 0 0 23 15.5 L 23 8.5 A 1.0001 1.0001 0 0 0 22.998047 8.4882812 A 1 1 0 0 0 22.880859 8.0273438 A 1.0001 1.0001 0 0 0 22.875 8.0175781 A 1 1 0 0 0 22.818359 7.9257812 A 1 1 0 0 0 22.544922 7.6621094 L 22.537109 7.65625 A 1 1 0 0 0 22.533203 7.6542969 L 12.574219 1.1816406 A 1 1 0 0 0 12.544922 1.1621094 A 1.0001 1.0001 0 0 0 12.541016 1.1601562 A 1 1 0 0 0 12.191406 1.0195312 A 1 1 0 0 0 12 1 z M 11 3.8417969 L 11 7.9804688 L 7 10.779297 L 3.7871094 8.53125 L 11 3.8417969 z M 13 3.8417969 L 20.212891 8.53125 L 17 10.779297 L 13 7.9804688 L 13 3.8417969 z M 12 9.7207031 L 15.255859 12 L 12 14.279297 L 8.7441406 12 L 12 9.7207031 z M 3 10.419922 L 5.2578125 12 L 3 13.580078 L 3 10.419922 z M 21 10.419922 L 21 13.580078 L 18.742188 12 L 21 10.419922 z M 7 13.220703 L 11 16.019531 L 11 20.15625 L 3.7871094 15.46875 L 7 13.220703 z M 17 13.220703 L 20.212891 15.46875 L 13 20.15625 L 13 16.019531 L 17 13.220703 z "/>
</svg>
