<?xml version="1.0" encoding="UTF-8" standalone="no"?>
<svg xmlns="http://www.w3.org/2000/svg" xmlns:svg="http://www.w3.org/2000/svg" width="24" height="24" viewBox="0 0 24 24" fill="currentColor" tags="source,programming,html,xml" categories="text,development">
  
  <path d="M 14.410156 3.0039062 A 1 1 0 0 0 13.544922 3.7011719 L 8.5449219 19.701172 A 1 1 0 0 0 9.2011719 20.955078 A 1 1 0 0 0 10.455078 20.298828 L 15.455078 4.2988281 A 1 1 0 0 0 14.798828 3.0449219 A 1 1 0 0 0 14.410156 3.0039062 z M 6 7 A 1 1 0 0 0 5.2929688 7.2929688 L 1.2929688 11.292969 A 1.0001 1.0001 0 0 0 1.2929688 12.707031 L 5.2929688 16.707031 A 1 1 0 0 0 6.7070312 16.707031 A 1 1 0 0 0 6.7070312 15.292969 L 3.4140625 12 L 6.7070312 8.7070312 A 1 1 0 0 0 6.7070312 7.2929688 A 1 1 0 0 0 6 7 z M 18 7 A 1 1 0 0 0 17.292969 7.2929688 A 1 1 0 0 0 17.292969 8.7070312 L 20.585938 12 L 17.292969 15.292969 A 1 1 0 0 0 17.292969 16.707031 A 1 1 0 0 0 18.707031 16.707031 L 22.707031 12.707031 A 1.0001 1.0001 0 0 0 22.707031 11.292969 L 18.707031 7.2929688 A 1 1 0 0 0 18 7 z "/>
</svg>
