<svg xmlns="http://www.w3.org/2000/svg" xmlns:svg="http://www.w3.org/2000/svg" width="24" height="24" viewBox="0 0 24 24" fill="currentColor" tags="drink,cup,mug,tea,cafe,hot,beverage" categories="food-beverage">
  <path d="M 6 1 A 1 1 0 0 0 5 2 L 5 4 A 1 1 0 0 0 6 5 A 1 1 0 0 0 7 4 L 7 2 A 1 1 0 0 0 6 1 z M 10 1 A 1 1 0 0 0 9 2 L 9 4 A 1 1 0 0 0 10 5 A 1 1 0 0 0 11 4 L 11 2 A 1 1 0 0 0 10 1 z M 14 1 A 1 1 0 0 0 13 2 L 13 4 A 1 1 0 0 0 14 5 A 1 1 0 0 0 15 4 L 15 2 A 1 1 0 0 0 14 1 z M 4 7 C 2.9072751 7 2 7.9072751 2 9 L 2 17 C 2 19.749579 4.2504209 22 7 22 L 13 22 C 15.749579 22 18 19.749579 18 17 C 19.583333 17 20.898108 16.370244 21.748047 15.414062 C 22.597986 14.45788 23 13.222222 23 12 C 23 10.777778 22.597986 9.5421194 21.748047 8.5859375 C 20.898108 7.6297556 19.583333 7 18 7 L 16 7 L 4 7 z M 4 9 L 16 9 L 16 16 L 16 17 C 16 18.668699 14.668699 20 13 20 L 7 20 C 5.3313011 20 4 18.668699 4 17 L 4 9 z M 18 9 C 19.083333 9 19.768559 9.3702444 20.251953 9.9140625 C 20.735347 10.457881 21 11.222222 21 12 C 21 12.777778 20.735347 13.542119 20.251953 14.085938 C 19.768559 14.629755 19.083333 15 18 15 L 18 9 z "/>
</svg>
