<?xml version="1.0" encoding="UTF-8" standalone="no"?>
<svg xmlns="http://www.w3.org/2000/svg" xmlns:svg="http://www.w3.org/2000/svg" width="24" height="24" viewBox="0 0 24 24" fill="currentColor" tags="computing,settings,cog,edit,gear,preferences,controls,configuration,fixed,build,construction,parts" categories="account">
  <path d="M 12 1 A 1 1 0 0 0 11 2 L 11 3.0546875 C 10.083192 3.1567139 9.2080141 3.3982264 8.3945312 3.7558594 L 7.8652344 2.8398438 A 1 1 0 0 0 6.5 2.4746094 A 1 1 0 0 0 6.1347656 3.8398438 L 6.6640625 4.7578125 C 5.9374755 5.2947795 5.2947386 5.9393966 4.7578125 6.6660156 L 3.8398438 6.1347656 A 1 1 0 0 0 2.4746094 6.5 A 1 1 0 0 0 2.8398438 7.8652344 L 3.7558594 8.3945312 C 3.3983418 9.2078798 3.156694 10.083371 3.0546875 11 L 2 11 A 1 1 0 0 0 1 12 A 1 1 0 0 0 2 13 L 3.0546875 13 C 3.156694 13.91663 3.3983417 14.79212 3.7558594 15.605469 L 2.8398438 16.134766 A 1 1 0 0 0 2.4746094 17.5 A 1 1 0 0 0 3.8398438 17.865234 L 4.7578125 17.333984 C 5.2947386 18.060603 5.9374754 18.70522 6.6640625 19.242188 L 6.1347656 20.160156 A 1 1 0 0 0 6.5 21.525391 A 1 1 0 0 0 7.8652344 21.160156 L 8.3945312 20.244141 C 9.2080141 20.601774 10.083192 20.843286 11 20.945312 L 11 22 A 1 1 0 0 0 12 23 A 1 1 0 0 0 13 22 L 13 20.945312 C 13.91663 20.843306 14.79212 20.601658 15.605469 20.244141 L 16.134766 21.160156 A 1 1 0 0 0 17.5 21.525391 A 1 1 0 0 0 17.865234 20.160156 L 17.333984 19.242188 C 18.060743 18.705158 18.705158 18.060743 19.242188 17.333984 L 20.160156 17.865234 A 1 1 0 0 0 21.525391 17.5 A 1 1 0 0 0 21.160156 16.134766 L 20.244141 15.605469 C 20.601658 14.79212 20.843306 13.91663 20.945312 13 L 22 13 A 1 1 0 0 0 23 12 A 1 1 0 0 0 22 11 L 20.945312 11 C 20.843306 10.08337 20.601658 9.2078799 20.244141 8.3945312 L 21.160156 7.8652344 A 1 1 0 0 0 21.525391 6.5 A 1 1 0 0 0 20.917969 6.0332031 A 1 1 0 0 0 20.160156 6.1347656 L 19.242188 6.6660156 C 18.705158 5.9392568 18.060743 5.2948418 17.333984 4.7578125 L 17.865234 3.8398438 A 1 1 0 0 0 17.5 2.4746094 A 1 1 0 0 0 16.742188 2.3730469 A 1 1 0 0 0 16.134766 2.8398438 L 15.605469 3.7558594 C 14.79212 3.3983417 13.91663 3.156694 13 3.0546875 L 13 2 A 1 1 0 0 0 12 1 z M 12 5 C 13.247894 5 14.417165 5.3228485 15.429688 5.890625 A 1 1 0 0 0 15.5 5.9355469 A 1 1 0 0 0 15.574219 5.9746094 C 16.582695 6.5723961 17.427604 7.4173049 18.025391 8.4257812 A 1 1 0 0 0 18.064453 8.5 A 1 1 0 0 0 18.109375 8.5703125 C 18.52261 9.3072387 18.80584 10.127024 18.929688 11 L 14.826172 11 C 14.410315 9.8399126 13.295143 9 12 9 C 11.812574 9 11.629493 9.0171769 11.451172 9.0507812 L 9.3984375 5.4960938 C 10.20199 5.1760254 11.079691 5 12 5 z M 7.6660156 6.4941406 L 9.7226562 10.056641 C 9.2727993 10.581893 9 11.261462 9 12 C 9 12.738538 9.2727993 13.418107 9.7226562 13.943359 L 7.6660156 17.505859 C 6.989797 16.973732 6.4156423 16.318249 5.9746094 15.574219 A 1 1 0 0 0 5.9355469 15.5 A 1 1 0 0 0 5.890625 15.429688 C 5.3228485 14.417165 5 13.247894 5 12 C 5 10.752106 5.3228485 9.5828347 5.890625 8.5703125 A 1 1 0 0 0 5.9355469 8.5 A 1 1 0 0 0 5.9746094 8.4257812 C 6.4156423 7.6817512 6.989797 7.0262682 7.6660156 6.4941406 z M 12 11 C 12.564129 11 13 11.435871 13 12 C 13 12.564129 12.564129 13 12 13 C 11.844477 13 11.697941 12.96606 11.568359 12.90625 A 1 1 0 0 0 11.5 12.863281 A 1 1 0 0 0 11.421875 12.822266 C 11.164787 12.643753 11 12.346102 11 12 C 11 11.653898 11.164787 11.356247 11.421875 11.177734 A 1 1 0 0 0 11.5 11.136719 A 1 1 0 0 0 11.568359 11.09375 C 11.697941 11.03394 11.844477 11 12 11 z M 14.826172 13 L 18.929688 13 C 18.805933 13.87232 18.522105 14.691237 18.109375 15.427734 A 1 1 0 0 0 18.064453 15.5 A 1 1 0 0 0 18.025391 15.574219 C 17.427533 16.582815 16.582854 17.427591 15.574219 18.025391 A 1 1 0 0 0 15.5 18.064453 A 1 1 0 0 0 15.429688 18.109375 C 14.417165 18.677151 13.247894 19 12 19 C 11.079691 19 10.20199 18.823975 9.3984375 18.503906 L 11.451172 14.949219 C 11.629493 14.982823 11.812574 15 12 15 C 13.295143 15 14.410315 14.160087 14.826172 13 z "/>
</svg>
