<?xml version="1.0" encoding="UTF-8" standalone="no"?>
<svg xmlns="http://www.w3.org/2000/svg" xmlns:svg="http://www.w3.org/2000/svg" width="24" height="24" viewBox="0 0 24 24" fill="currentColor" tags="computing,settings,cog,edit,gear,preferences,controls,configuration,fixed,build,construction,parts" categories="account">
  <path d="M 12 1 A 1 1 0 0 0 11 2 L 11 3.0546875 C 10.083192 3.1567138 9.208014 3.3982266 8.3945312 3.7558594 L 7.8652344 2.8398438 A 1 1 0 0 0 6.5 2.4746094 A 1 1 0 0 0 6.1347656 3.8398438 L 6.6640625 4.7578125 C 5.9374754 5.2947796 5.2947385 5.9393965 4.7578125 6.6660156 L 3.8398438 6.1347656 A 1 1 0 0 0 2.4746094 6.5 A 1 1 0 0 0 2.8398438 7.8652344 L 3.7558594 8.3945312 C 3.3983419 9.2078799 3.156694 10.083371 3.0546875 11 L 2 11 A 1 1 0 0 0 1 12 A 1 1 0 0 0 2 13 L 3.0546875 13 C 3.156694 13.91663 3.3983418 14.79212 3.7558594 15.605469 L 2.8398438 16.134766 A 1 1 0 0 0 2.4746094 17.5 A 1 1 0 0 0 3.8398438 17.865234 L 4.7578125 17.333984 C 5.2947385 18.060604 5.9374753 18.70522 6.6640625 19.242188 L 6.1347656 20.160156 A 1 1 0 0 0 6.5 21.525391 A 1 1 0 0 0 7.8652344 21.160156 L 8.3945312 20.244141 C 9.2080141 20.601773 10.083192 20.843286 11 20.945312 L 11 22 A 1 1 0 0 0 12 23 A 1 1 0 0 0 13 22 L 13 20.945312 C 13.91663 20.843306 14.79212 20.601658 15.605469 20.244141 L 16.134766 21.160156 A 1 1 0 0 0 17.5 21.525391 A 1 1 0 0 0 17.865234 20.160156 L 17.333984 19.242188 C 18.060743 18.705158 18.705158 18.060743 19.242188 17.333984 L 20.160156 17.865234 A 1 1 0 0 0 21.525391 17.5 A 1 1 0 0 0 21.160156 16.134766 L 20.244141 15.605469 C 20.601658 14.79212 20.843306 13.91663 20.945312 13 L 22 13 A 1 1 0 0 0 23 12 A 1 1 0 0 0 22 11 L 20.945312 11 C 20.843306 10.08337 20.601658 9.2078799 20.244141 8.3945312 L 21.160156 7.8652344 A 1 1 0 0 0 21.525391 6.5 A 1 1 0 0 0 20.917969 6.0332031 A 1 1 0 0 0 20.160156 6.1347656 L 19.242188 6.6660156 C 18.705158 5.9392567 18.060743 5.2948419 17.333984 4.7578125 L 17.865234 3.8398438 A 1 1 0 0 0 17.5 2.4746094 A 1 1 0 0 0 16.742188 2.3730469 A 1 1 0 0 0 16.134766 2.8398438 L 15.605469 3.7558594 C 14.79212 3.3983418 13.91663 3.156694 13 3.0546875 L 13 2 A 1 1 0 0 0 12 1 z M 12 5 C 13.247892 5 14.417167 5.3228514 15.429688 5.890625 A 1 1 0 0 0 15.5 5.9355469 A 1 1 0 0 0 15.574219 5.9746094 C 16.58269 6.5723944 17.427606 7.4173101 18.025391 8.4257812 A 1 1 0 0 0 18.064453 8.5 A 1 1 0 0 0 18.109375 8.5703125 C 18.522607 9.3072371 18.80584 10.127027 18.929688 11 L 14.841797 11 C 14.719374 10.626594 14.524267 10.271685 14.248047 9.9609375 C 13.731441 9.3797556 12.916666 9 12 9 C 11.811122 9 11.625775 9.016189 11.447266 9.046875 L 9.3984375 5.4960938 C 10.20199 5.1760257 11.07969 5 12 5 z M 7.6660156 6.4941406 L 9.7011719 10.019531 C 9.2195996 10.591192 9 11.301669 9 12 C 9 12.698331 9.2195997 13.408808 9.7011719 13.980469 L 7.6660156 17.505859 C 6.9897991 16.973734 6.4156416 16.318246 5.9746094 15.574219 A 1 1 0 0 0 5.9355469 15.5 A 1 1 0 0 0 5.890625 15.429688 C 5.3228514 14.417167 5 13.247891 5 12 C 5 10.752108 5.3228513 9.5828331 5.890625 8.5703125 A 1 1 0 0 0 5.9355469 8.5 A 1 1 0 0 0 5.9746094 8.4257812 C 6.4156416 7.6817539 6.989799 7.0262665 7.6660156 6.4941406 z M 12 11 C 12.416666 11 12.601893 11.120244 12.751953 11.289062 C 12.902013 11.457879 12.999999 11.722224 13 12 C 13 12.277778 12.90201 12.542119 12.751953 12.710938 C 12.601893 12.879755 12.416666 13 12 13 C 11.852952 13 11.734743 12.985787 11.636719 12.958984 A 1 1 0 0 0 11.5 12.863281 A 1 1 0 0 0 11.316406 12.78125 C 11.292712 12.759138 11.269689 12.735285 11.248047 12.710938 C 11.097986 12.542118 11 12.277778 11 12 C 11 11.722222 11.097986 11.45788 11.248047 11.289062 C 11.269689 11.264715 11.292712 11.240862 11.316406 11.21875 A 1 1 0 0 0 11.5 11.136719 A 1 1 0 0 0 11.636719 11.041016 C 11.734743 11.014213 11.852952 11 12 11 z M 14.841797 13 L 18.929688 13 C 18.805933 13.872317 18.522102 14.691239 18.109375 15.427734 A 1 1 0 0 0 18.064453 15.5 A 1 1 0 0 0 18.025391 15.574219 C 17.427535 16.582809 16.582849 17.427593 15.574219 18.025391 A 1 1 0 0 0 15.5 18.064453 A 1 1 0 0 0 15.429688 18.109375 C 14.417167 18.677148 13.247891 19 12 19 C 11.07969 19 10.20199 18.823974 9.3984375 18.503906 L 11.447266 14.953125 C 11.625775 14.983811 11.811122 15 12 15 C 12.916666 15 13.731441 14.620244 14.248047 14.039062 C 14.524267 13.728315 14.719374 13.373406 14.841797 13 z "/>
</svg>
