<?xml version="1.0" encoding="UTF-8" standalone="no"?>
<svg xmlns="http://www.w3.org/2000/svg" xmlns:svg="http://www.w3.org/2000/svg" width="24" height="24" viewBox="0 0 24 24" fill="currentColor" tags="money,cash,finance,gamble" categories="money,gaming">
  
  <path d="M 8 1 C 4.1458591 1 1 4.1458591 1 8 C 1 11.854141 4.1458591 15 8 15 C 11.854141 15 15 11.854141 15 8 C 15 4.1458591 11.854141 1 8 1 z M 8 3 C 10.773263 3 13 5.2267372 13 8 C 13 10.773263 10.773263 13 8 13 C 5.2267372 13 3 10.773263 3 8 C 3 5.2267372 5.2267372 3 8 3 z M 7 5 A 1 1 0 0 0 6 6 A 1 1 0 0 0 7 7 L 7 10 A 1 1 0 0 0 8 11 A 1 1 0 0 0 9 10 L 9 6 A 1.0001 1.0001 0 0 0 8 5 L 7 5 z M 18.054688 9.3710938 A 1 1 0 0 0 17.152344 10.021484 A 1 1 0 0 0 17.740234 11.306641 C 21.204024 12.598002 22.136172 16.961257 19.501953 19.554688 C 16.867735 22.148119 12.520361 21.149533 11.283203 17.666016 A 1 1 0 0 0 10.005859 17.058594 A 1 1 0 0 0 9.3984375 18.333984 C 11.098998 23.122329 17.283362 24.545337 20.904297 20.980469 C 24.525231 17.4156 23.200679 11.208663 18.439453 9.4335938 A 1 1 0 0 0 18.054688 9.3710938 z M 16.716797 12.880859 A 1 1 0 0 0 16.007812 13.167969 A 1 1 0 0 0 15.998047 14.582031 L 16 14.585938 L 13.882812 16.703125 A 1 1 0 0 0 13.882812 18.117188 A 1 1 0 0 0 15.296875 18.117188 L 18.117188 15.296875 A 1.0001 1.0001 0 0 0 18.123047 13.888672 L 17.421875 13.177734 A 1 1 0 0 0 16.716797 12.880859 z "/>
</svg>
