<?xml version="1.0" encoding="UTF-8" standalone="no"?>
<svg xmlns="http://www.w3.org/2000/svg" xmlns:svg="http://www.w3.org/2000/svg" width="24" height="24" viewBox="0 0 24 24" fill="currentColor" tags="lines,list,queue,preview,parallel,series,split,vertical,horizontal,thirds,triple,center,middle,alignment,even,sidebars,drawers,gutters,fold,reflow,typography,pagination,pages,prison,jail,bars,sentence,police,cops,cell,crime,criminal,justice,law,enforcement,grill" categories="layout,design,text,security">
  
  <path d="M 5 2 C 3.3553005 2 2 3.3553005 2 5 L 2 19 C 2 20.644699 3.3553005 22 5 22 L 16.5 22 L 19 22 C 20.644699 22 22 20.644699 22 19 L 22 5 C 22 3.3553005 20.644699 2 19 2 L 16.5 2 L 5 2 z M 5 4 L 6.5 4 L 6.5 20 L 5 20 C 4.4287039 20 4 19.571296 4 19 L 4 5 C 4 4.4287039 4.4287039 4 5 4 z M 8.5 4 L 11 4 L 11 20 L 8.5 20 L 8.5 4 z M 13 4 L 15.5 4 L 15.5 20 L 13 20 L 13 4 z M 17.5 4 L 19 4 C 19.571296 4 20 4.4287039 20 5 L 20 19 C 20 19.571296 19.571296 20 19 20 L 17.5 20 L 17.5 4 z "/>
</svg>
