<?xml version="1.0" encoding="UTF-8" standalone="no"?>
<svg xmlns="http://www.w3.org/2000/svg" xmlns:svg="http://www.w3.org/2000/svg" width="24" height="24" viewBox="0 0 24 24" fill="currentColor" tags="columns,settings,customize,table,grid,adjust,configuration,panel,layout" categories="layout,design">
  <path d="M 5 2 C 3.3549904 2 2 3.3549904 2 5 L 2 19 C 2 20.64501 3.3549904 22 5 22 L 10.5 22 A 1 1 0 0 0 11.5 21 A 1 1 0 0 0 10.5 20 L 10 20 L 10 4 L 14 4 L 14 10.5 A 1 1 0 0 0 15 11.5 A 1 1 0 0 0 16 10.5 L 16 4 L 19 4 C 19.564129 4 20 4.4358706 20 5 L 20 10.5 A 1 1 0 0 0 21 11.5 A 1 1 0 0 0 22 10.5 L 22 5 C 22 3.3549904 20.64501 2 19 2 L 5 2 z M 5 4 L 8 4 L 8 20 L 5 20 C 4.4358706 20 4 19.564129 4 19 L 4 5 C 4 4.4358706 4.4358706 4 5 4 z M 16.412109 13.300781 A 1 1 0 0 0 16.029297 13.371094 A 1 1 0 0 0 15.470703 14.671875 L 15.542969 14.851562 C 15.23689 15.091426 14.966025 15.3743 14.740234 15.691406 L 14.617188 15.650391 A 1 1 0 0 0 13.351562 16.283203 A 1 1 0 0 0 13.984375 17.548828 L 14.023438 17.5625 C 14.007534 17.706387 14 17.852108 14 18 C 14 18.211861 14.016572 18.419785 14.048828 18.623047 L 13.927734 18.671875 A 1 1 0 0 0 13.371094 19.970703 A 1 1 0 0 0 14.671875 20.529297 L 14.851562 20.457031 C 15.091426 20.76311 15.3743 21.033975 15.691406 21.259766 L 15.650391 21.382812 A 1 1 0 0 0 16.283203 22.648438 A 1 1 0 0 0 17.548828 22.015625 L 17.5625 21.976562 C 17.706387 21.992466 17.852108 22 18 22 C 18.211861 22 18.419785 21.983428 18.623047 21.951172 L 18.671875 22.072266 A 1 1 0 0 0 19.970703 22.628906 A 1 1 0 0 0 20.529297 21.328125 L 20.457031 21.148438 C 20.76311 20.908574 21.033975 20.6257 21.259766 20.308594 L 21.382812 20.349609 A 1 1 0 0 0 22.648438 19.716797 A 1 1 0 0 0 22.015625 18.451172 L 21.976562 18.4375 C 21.992466 18.293613 22 18.147892 22 18 C 22 17.788139 21.983428 17.580215 21.951172 17.376953 L 22.072266 17.328125 A 1 1 0 0 0 22.628906 16.029297 A 1 1 0 0 0 21.328125 15.470703 L 21.148438 15.542969 C 20.908574 15.23689 20.6257 14.966025 20.308594 14.740234 L 20.349609 14.617188 A 1 1 0 0 0 19.716797 13.351562 A 1 1 0 0 0 18.451172 13.984375 L 18.4375 14.023438 C 18.293613 14.007534 18.147892 14 18 14 C 17.788139 14 17.580215 14.016572 17.376953 14.048828 L 17.328125 13.927734 A 1 1 0 0 0 16.412109 13.300781 z M 18 16 C 18.731654 16 19.362454 16.379255 19.710938 16.955078 A 1 1 0 0 0 19.771484 17.171875 A 1 1 0 0 0 19.917969 17.423828 C 19.971399 17.605852 20 17.799106 20 18 C 20 18.731654 19.620745 19.362454 19.044922 19.710938 A 1 1 0 0 0 18.828125 19.771484 A 1 1 0 0 0 18.576172 19.917969 C 18.394148 19.971399 18.200894 20 18 20 C 17.268346 20 16.637546 19.620745 16.289062 19.044922 A 1 1 0 0 0 16.228516 18.828125 A 1 1 0 0 0 16.082031 18.576172 C 16.028601 18.394148 16 18.200894 16 18 C 16 17.268346 16.379255 16.637546 16.955078 16.289062 A 1 1 0 0 0 17.171875 16.228516 A 1 1 0 0 0 17.423828 16.082031 C 17.605852 16.028601 17.799106 16 18 16 z "/>
</svg>
