<svg xmlns="http://www.w3.org/2000/svg" xmlns:svg="http://www.w3.org/2000/svg" width="24" height="24" viewBox="0 0 24 24" fill="currentColor" tags="cubes,packages,parts,units,collection,cluster,combine,gather,merge" categories="development,files">
  <path d="M 4 2 C 2.9092972 2 2 2.9092972 2 4 L 2 9 C 2 10.090703 2.9092972 11 4 11 L 9 11 C 10.090703 11 11 10.090703 11 9 L 11 4 C 11 2.9092972 10.090703 2 9 2 L 4 2 z M 14 2 A 1 1 0 0 0 13 3 A 1 1 0 0 0 14 4 L 14 9 A 1 1 0 0 0 13 10 A 1 1 0 0 0 14 11 C 15.092725 11 16 10.092725 16 9 L 16 4 C 16 2.9072751 15.092725 2 14 2 z M 19 2 A 1 1 0 0 0 18 3 A 1 1 0 0 0 19 4 L 19 9 A 1 1 0 0 0 18 10 A 1 1 0 0 0 19 11 C 20.092725 11 21 10.092725 21 9 L 21 4 C 21 2.9072751 20.092725 2 19 2 z M 4 4 L 9 4 L 9 9 L 4 9 L 4 4 z M 3 13 A 1 1 0 0 0 2 14 L 2 16 C 2 17.64501 3.3549904 19 5 19 L 7.5859375 19 L 6.2929688 20.292969 A 1 1 0 0 0 6.2929688 21.707031 A 1 1 0 0 0 7.7070312 21.707031 L 10.707031 18.707031 A 1 1 0 0 0 10.792969 18.609375 A 1.0001 1.0001 0 0 0 10.865234 18.5 A 1 1 0 0 0 10.873047 18.486328 A 1.0001 1.0001 0 0 0 10.886719 18.455078 A 1 1 0 0 0 10.931641 18.361328 A 1.0001 1.0001 0 0 0 10.964844 18.257812 A 1 1 0 0 0 10.966797 18.244141 A 1.0001 1.0001 0 0 0 10.978516 18.195312 A 1 1 0 0 0 10.994141 18.105469 A 1.0001 1.0001 0 0 0 10.996094 18.056641 A 1 1 0 0 0 10.998047 17.953125 A 1.0001 1.0001 0 0 0 10.996094 17.9375 A 1 1 0 0 0 10.984375 17.832031 A 1.0001 1.0001 0 0 0 10.972656 17.78125 A 1 1 0 0 0 10.957031 17.714844 A 1.0001 1.0001 0 0 0 10.935547 17.65625 A 1 1 0 0 0 10.904297 17.578125 A 1.0001 1.0001 0 0 0 10.880859 17.533203 A 1 1 0 0 0 10.824219 17.435547 A 1.0001 1.0001 0 0 0 10.814453 17.423828 A 1 1 0 0 0 10.755859 17.347656 A 1.0001 1.0001 0 0 0 10.724609 17.314453 A 1 1 0 0 0 10.707031 17.292969 L 7.7070312 14.292969 A 1 1 0 0 0 7 14 A 1 1 0 0 0 6.2929688 14.292969 A 1 1 0 0 0 6.2929688 15.707031 L 7.5859375 17 L 5 17 C 4.4358706 17 4 16.564129 4 16 L 4 14 A 1 1 0 0 0 3 13 z M 15 13 C 13.909297 13 13 13.909297 13 15 L 13 20 C 13 21.090703 13.909297 22 15 22 L 20 22 C 21.090703 22 22 21.090703 22 20 L 22 15 C 22 13.909297 21.090703 13 20 13 L 15 13 z M 15 15 L 20 15 L 20 20 L 15 20 L 15 15 z "/>
</svg>
