<?xml version="1.0" encoding="UTF-8" standalone="no"?>
<svg xmlns="http://www.w3.org/2000/svg" xmlns:svg="http://www.w3.org/2000/svg" width="24" height="24" viewBox="0 0 24 24" fill="currentColor" tags="cubes,packages,parts,units,collection,cluster,combine,gather,merge" categories="development,files">
  <path d="M 4 1 C 2.3552972 1 1 2.3552972 1 4 L 1 8 C 1 9.6447028 2.3552972 11 4 11 L 8 11 C 9.6447028 11 11 9.6447028 11 8 L 11 4 C 11 2.3552972 9.6447028 1 8 1 L 4 1 z M 14 1 A 1 1 0 0 0 13 2 A 1 1 0 0 0 14 3 C 14.564129 3 15 3.4358706 15 4 L 15 8 C 15 8.5641294 14.564129 9 14 9 A 1 1 0 0 0 13 10 A 1 1 0 0 0 14 11 C 15.64501 11 17 9.6450096 17 8 L 17 4 C 17 2.3549904 15.64501 1 14 1 z M 20 1 A 1 1 0 0 0 19 2 A 1 1 0 0 0 20 3 C 20.564129 3 21 3.4358706 21 4 L 21 8 C 21 8.5641294 20.564129 9 20 9 A 1 1 0 0 0 19 10 A 1 1 0 0 0 20 11 C 21.64501 11 23 9.6450096 23 8 L 23 4 C 23 2.3549904 21.64501 1 20 1 z M 4 3 L 8 3 C 8.5712972 3 9 3.4287028 9 4 L 9 8 C 9 8.5712972 8.5712972 9 8 9 L 4 9 C 3.4287028 9 3 8.5712972 3 8 L 3 4 C 3 3.4287028 3.4287028 3 4 3 z M 2 13 A 1 1 0 0 0 1 14 L 1 15 C 1 17.197294 2.8027056 19 5 19 L 7.5859375 19 L 6.2929688 20.292969 A 1 1 0 0 0 6.2929688 21.707031 A 1 1 0 0 0 7.7070312 21.707031 L 10.697266 18.716797 A 1 1 0 0 0 10.707031 18.707031 A 1.0001 1.0001 0 0 0 10.785156 18.619141 A 1 1 0 0 0 10.792969 18.609375 A 1.0001 1.0001 0 0 0 10.861328 18.507812 A 1 1 0 0 0 10.865234 18.5 A 1.0001 1.0001 0 0 0 10.921875 18.388672 A 1 1 0 0 0 10.964844 18.257812 A 1.0001 1.0001 0 0 0 10.964844 17.742188 A 1 1 0 0 0 10.923828 17.617188 A 1.0001 1.0001 0 0 0 10.921875 17.611328 A 1 1 0 0 0 10.865234 17.5 A 1.0001 1.0001 0 0 0 10.861328 17.492188 A 1 1 0 0 0 10.792969 17.390625 A 1.0001 1.0001 0 0 0 10.785156 17.380859 A 1 1 0 0 0 10.707031 17.292969 L 7.7070312 14.292969 A 1 1 0 0 0 7 14 A 1 1 0 0 0 6.2929688 14.292969 A 1 1 0 0 0 6.2929688 15.707031 L 7.5859375 17 L 5 17 C 3.8835859 17 3 16.116414 3 15 L 3 14 A 1 1 0 0 0 2 13 z M 16 13 C 14.355297 13 13 14.355297 13 16 L 13 20 C 13 21.644703 14.355297 23 16 23 L 20 23 C 21.644703 23 23 21.644703 23 20 L 23 16 C 23 14.355297 21.644703 13 20 13 L 16 13 z M 16 15 L 20 15 C 20.571297 15 21 15.428703 21 16 L 21 20 C 21 20.571297 20.571297 21 20 21 L 16 21 C 15.428703 21 15 20.571297 15 20 L 15 16 C 15 15.428703 15.428703 15 16 15 z "/>
</svg>
