<?xml version="1.0" encoding="UTF-8" standalone="no"?>
<svg xmlns="http://www.w3.org/2000/svg" xmlns:svg="http://www.w3.org/2000/svg" width="24" height="24" viewBox="0 0 24 24" fill="currentColor" tags="cubes,packages,parts,units,collection,cluster,combine,gather,merge" categories="shapes,development,files">
  
  <path d="M 4 1 C 2.3553005 1 1 2.3553005 1 4 L 1 8 C 1 9.6446995 2.3553005 11 4 11 L 8 11 C 9.6446995 11 11 9.6446995 11 8 L 11 4 C 11 2.3553005 9.6446995 1 8 1 L 4 1 z M 14 1 A 1 1 0 0 0 13 2 A 1 1 0 0 0 14 3 C 14.554544 3 15 3.4454557 15 4 L 15 8 C 15 8.5545443 14.554544 9 14 9 A 1 1 0 0 0 13 10 A 1 1 0 0 0 14 11 C 15.645451 11 17 9.6454513 17 8 L 17 4 C 17 2.3545487 15.645451 1 14 1 z M 20 1 A 1 1 0 0 0 19 2 A 1 1 0 0 0 20 3 C 20.554544 3 21 3.4454557 21 4 L 21 8 C 21 8.5545443 20.554544 9 20 9 A 1 1 0 0 0 19 10 A 1 1 0 0 0 20 11 C 21.645451 11 23 9.6454513 23 8 L 23 4 C 23 2.3545487 21.645451 1 20 1 z M 4 3 L 8 3 C 8.5712961 3 9 3.4287039 9 4 L 9 8 C 9 8.5712961 8.5712961 9 8 9 L 4 9 C 3.4287039 9 3 8.5712961 3 8 L 3 4 C 3 3.4287039 3.4287039 3 4 3 z M 2 13 A 1 1 0 0 0 1 14 L 1 15 C 1 17.2098 2.7902005 19 5 19 L 7.5859375 19 L 6.2929688 20.292969 A 1 1 0 0 0 6.2929688 21.707031 A 1 1 0 0 0 7.7070312 21.707031 L 10.707031 18.707031 A 1.0001 1.0001 0 0 0 10.957031 18.28125 A 1 1 0 0 0 10.970703 18.236328 A 1.0001 1.0001 0 0 0 10.996094 17.912109 A 1 1 0 0 0 10.984375 17.826172 A 1.0001 1.0001 0 0 0 10.980469 17.804688 A 1 1 0 0 0 10.939453 17.658203 A 1.0001 1.0001 0 0 0 10.923828 17.617188 A 1 1 0 0 0 10.90625 17.578125 A 1.0001 1.0001 0 0 0 10.900391 17.566406 A 1 1 0 0 0 10.865234 17.5 A 1.0001 1.0001 0 0 0 10.832031 17.445312 A 1 1 0 0 0 10.818359 17.425781 A 1.0001 1.0001 0 0 0 10.806641 17.410156 A 1 1 0 0 0 10.765625 17.357422 A 1.0001 1.0001 0 0 0 10.707031 17.292969 L 7.7070312 14.292969 A 1 1 0 0 0 7 14 A 1 1 0 0 0 6.2929688 14.292969 A 1 1 0 0 0 6.2929688 15.707031 L 7.5859375 17 L 5 17 C 3.8098063 17 3 16.190194 3 15 L 3 14 A 1 1 0 0 0 2 13 z M 16 13 C 14.355301 13 13 14.355301 13 16 L 13 20 C 13 21.644699 14.355301 23 16 23 L 20 23 C 21.644699 23 23 21.644699 23 20 L 23 16 C 23 14.355301 21.644699 13 20 13 L 16 13 z M 16 15 L 20 15 C 20.571296 15 21 15.428704 21 16 L 21 20 C 21 20.571296 20.571296 21 20 21 L 16 21 C 15.428704 21 15 20.571296 15 20 L 15 16 C 15 15.428704 15.428704 15 16 15 z "/>
</svg>
