<?xml version="1.0" encoding="UTF-8" standalone="no"?>
<svg xmlns="http://www.w3.org/2000/svg" xmlns:svg="http://www.w3.org/2000/svg" width="24" height="24" viewBox="0 0 24 24" fill="currentColor" tags="keyboard,key,mac,cmd,button" categories="development">
  <path d="M 5.8691406 2.0039062 C 5.6776253 2.0098421 5.4857857 2.0288659 5.2949219 2.0625 C 4.5314666 2.1970363 3.7868049 2.5569451 3.171875 3.171875 C 1.9420152 4.4017348 1.7329249 6.1507133 2.3046875 7.53125 C 2.8764501 8.9117867 4.2605683 10 6 10 L 8 10 L 8 14 L 6 14 C 4.2605683 14 2.8764501 15.088213 2.3046875 16.46875 C 1.7329249 17.849287 1.9420152 19.598265 3.171875 20.828125 C 4.4017348 22.057985 6.1507133 22.267076 7.53125 21.695312 C 8.9117867 21.12355 10 19.739431 10 18 L 10 16 L 14 16 L 14 18 C 14 19.739431 15.088213 21.12355 16.46875 21.695312 C 17.849287 22.267076 19.598265 22.057985 20.828125 20.828125 C 22.057985 19.598265 22.267076 17.849287 21.695312 16.46875 C 21.12355 15.088213 19.739431 14 18 14 L 16 14 L 16 10 L 18 10 C 19.739431 10 21.12355 8.9117867 21.695312 7.53125 C 22.267076 6.1507133 22.057985 4.4017348 20.828125 3.171875 C 19.598265 1.9420152 17.849287 1.7329249 16.46875 2.3046875 C 15.088213 2.8764501 14 4.2605683 14 6 L 14 8 L 10 8 L 10 6 C 10 4.2605683 8.9117867 2.8764501 7.53125 2.3046875 C 7.0135488 2.0902765 6.4436865 1.9860988 5.8691406 2.0039062 z M 5.9394531 3.9863281 C 6.2205765 3.9827398 6.500269 4.042444 6.765625 4.1523438 C 7.4732412 4.4454099 8 5.0665365 8 6 L 8 8 L 6 8 C 5.0665365 8 4.4454099 7.4732412 4.1523438 6.765625 C 3.8592777 6.0580088 3.9260042 5.2458708 4.5859375 4.5859375 C 4.9159042 4.2559708 5.2842648 4.0742639 5.6582031 4.0117188 C 5.7516877 3.9960825 5.8457453 3.9875242 5.9394531 3.9863281 z M 18.060547 3.9863281 C 18.154255 3.9875242 18.248312 3.9960825 18.341797 4.0117188 C 18.715736 4.0742637 19.084096 4.2559708 19.414062 4.5859375 C 20.073997 5.2458708 20.140723 6.0580088 19.847656 6.765625 C 19.554591 7.4732412 18.933463 8 18 8 L 16 8 L 16 6 C 16 5.0665365 16.526759 4.4454099 17.234375 4.1523438 C 17.499731 4.042444 17.779423 3.9827398 18.060547 3.9863281 z M 10 10 L 14 10 L 14 14 L 10 14 L 10 10 z M 6 16 L 8 16 L 8 18 C 8 18.933463 7.4732412 19.554591 6.765625 19.847656 C 6.0580088 20.140723 5.2458708 20.073997 4.5859375 19.414062 C 3.9260042 18.754129 3.8592777 17.941991 4.1523438 17.234375 C 4.4454099 16.526759 5.0665365 16 6 16 z M 16 16 L 18 16 C 18.933463 16 19.554591 16.526759 19.847656 17.234375 C 20.140723 17.941991 20.073997 18.754129 19.414062 19.414062 C 18.754129 20.073997 17.941991 20.140723 17.234375 19.847656 C 16.526759 19.554591 16 18.933463 16 18 L 16 16 z "/>
</svg>
