<?xml version="1.0" encoding="UTF-8" standalone="no"?>
<svg xmlns="http://www.w3.org/2000/svg" xmlns:svg="http://www.w3.org/2000/svg" width="24" height="24" viewBox="0 0 24 24" fill="currentColor" tags="keyboard,key,mac,cmd,button" categories="development">
  <path d="M 5.8691406 2.0039062 C 5.6776252 2.0098421 5.4857861 2.0288658 5.2949219 2.0625 C 4.5314651 2.1970366 3.7868061 2.5569439 3.171875 3.171875 C 1.9420128 4.4017372 1.7329238 6.1507105 2.3046875 7.53125 C 2.8764512 8.9117895 4.2605649 10 6 10 L 8 10 L 8 14 L 6 14 C 4.2605649 14 2.8764512 15.088211 2.3046875 16.46875 C 1.7329238 17.849289 1.9420128 19.598263 3.171875 20.828125 C 4.4017372 22.057987 6.1507105 22.267076 7.53125 21.695312 C 8.9117895 21.123549 10 19.739435 10 18 L 10 16 L 14 16 L 14 18 C 14 19.739435 15.088211 21.123549 16.46875 21.695312 C 17.849289 22.267077 19.598263 22.057987 20.828125 20.828125 C 22.057987 19.598263 22.267076 17.849289 21.695312 16.46875 C 21.123549 15.088211 19.739435 14 18 14 L 16 14 L 16 10 L 18 10 C 19.739435 10 21.123549 8.9117895 21.695312 7.53125 C 22.267076 6.1507105 22.057987 4.4017372 20.828125 3.171875 C 19.598263 1.9420128 17.849289 1.7329238 16.46875 2.3046875 C 15.088211 2.8764512 14 4.2605649 14 6 L 14 8 L 10 8 L 10 6 C 10 4.2605649 8.9117895 2.8764512 7.53125 2.3046875 C 7.0135477 2.0902761 6.443687 1.9860987 5.8691406 2.0039062 z M 5.9394531 3.9863281 C 6.2205768 3.9827397 6.5002684 4.0424438 6.765625 4.1523438 C 7.4732426 4.4454104 8 5.0665347 8 6 L 8 8 L 6 8 C 5.0665347 8 4.4454105 7.4732426 4.1523438 6.765625 C 3.8592771 6.0580074 3.9260028 5.2458722 4.5859375 4.5859375 C 4.9159048 4.2559702 5.2842641 4.074264 5.6582031 4.0117188 C 5.7516879 3.9960824 5.8457452 3.9875243 5.9394531 3.9863281 z M 18.060547 3.9863281 C 18.154255 3.9875243 18.248312 3.9960824 18.341797 4.0117188 C 18.715736 4.0742638 19.084096 4.2559702 19.414062 4.5859375 C 20.073998 5.2458722 20.140723 6.0580074 19.847656 6.765625 C 19.55459 7.4732426 18.933465 8 18 8 L 16 8 L 16 6 C 16 5.0665347 16.526757 4.4454105 17.234375 4.1523438 C 17.499732 4.0424438 17.779423 3.9827397 18.060547 3.9863281 z M 10 10 L 14 10 L 14 14 L 10 14 L 10 10 z M 6 16 L 8 16 L 8 18 C 8 18.933465 7.4732426 19.55459 6.765625 19.847656 C 6.0580074 20.140723 5.2458722 20.073997 4.5859375 19.414062 C 3.9260028 18.754129 3.8592771 17.941993 4.1523438 17.234375 C 4.4454104 16.526757 5.0665347 16 6 16 z M 16 16 L 18 16 C 18.933465 16 19.55459 16.526757 19.847656 17.234375 C 20.140723 17.941993 20.073998 18.754129 19.414062 19.414062 C 18.754129 20.073998 17.941993 20.140723 17.234375 19.847656 C 16.526757 19.55459 16 18.933465 16 18 L 16 16 z "/>
</svg>
