<?xml version="1.0" encoding="UTF-8" standalone="no"?>
<svg xmlns="http://www.w3.org/2000/svg" xmlns:svg="http://www.w3.org/2000/svg" width="24" height="24" viewBox="0 0 24 24" fill="currentColor" tags="design,element,group,module,part,symbol" categories="design,development">
  <path d="M 12 1.0097656 C 11.486158 1.0097656 10.972253 1.2036449 10.585938 1.5898438 L 8.2089844 3.9667969 C 7.4365868 4.7394278 7.4365868 6.022291 8.2089844 6.7949219 L 10.585938 9.171875 C 11.358567 9.9442726 12.641432 9.9442726 13.414062 9.171875 L 15.791016 6.7949219 C 16.563413 6.022291 16.563413 4.7394278 15.791016 3.9667969 L 13.414062 1.5898438 C 13.027746 1.2036449 12.513842 1.0097656 12 1.0097656 z M 12 3.0039062 L 14.376953 5.3808594 L 12 7.7558594 L 9.6230469 5.3808594 L 12 3.0039062 z M 5.3808594 7.6289062 C 4.8670171 7.6289062 4.3531123 7.8227856 3.9667969 8.2089844 L 1.5898438 10.585938 C 0.81744619 11.358567 0.81744619 12.641432 1.5898438 13.414062 L 3.9667969 15.791016 C 4.7394278 16.563413 6.022291 16.563413 6.7949219 15.791016 L 9.171875 13.414062 C 9.9442726 12.641431 9.9442726 11.358567 9.171875 10.585938 L 6.7949219 8.2089844 C 6.4086064 7.8227856 5.8947016 7.6289064 5.3808594 7.6289062 z M 18.619141 7.6289062 C 18.105298 7.6289062 17.591394 7.8227856 17.205078 8.2089844 L 14.828125 10.585938 C 14.055727 11.358567 14.055727 12.641432 14.828125 13.414062 L 17.205078 15.791016 C 17.977709 16.563413 19.260572 16.563413 20.033203 15.791016 L 22.410156 13.414062 C 23.182554 12.641431 23.182554 11.358567 22.410156 10.585938 L 20.033203 8.2089844 C 19.646888 7.8227856 19.132983 7.6289064 18.619141 7.6289062 z M 5.3808594 9.6230469 L 7.7578125 12 L 5.3808594 14.376953 L 3.0039062 12 L 5.3808594 9.6230469 z M 18.619141 9.6230469 L 20.996094 12 L 18.619141 14.376953 L 16.244141 12 L 18.619141 9.6230469 z M 12 14.25 C 11.486158 14.25 10.972253 14.441926 10.585938 14.828125 L 8.2089844 17.205078 C 7.4352958 17.977906 7.4352958 19.262328 8.2089844 20.035156 L 10.585938 22.410156 C 11.358567 23.182554 12.641432 23.182554 13.414062 22.410156 L 15.791016 20.035156 C 16.564704 19.262328 16.564704 17.977906 15.791016 17.205078 L 13.414062 14.828125 C 13.027746 14.441926 12.513842 14.25 12 14.25 z M 12 16.244141 L 14.376953 18.619141 L 12 20.996094 L 9.6230469 18.619141 L 12 16.244141 z "/>
</svg>
