<svg xmlns="http://www.w3.org/2000/svg" xmlns:svg="http://www.w3.org/2000/svg" width="24" height="24" viewBox="0 0 24 24" fill="currentColor" tags="pc,chassis,codespaces,github" categories="devices,development,gaming">
  <path d="M 7 1 C 5.3552972 1 4 2.3552972 4 4 L 4 8 C 4 9.6447028 5.3552972 11 7 11 L 17 11 C 18.644703 11 20 9.6447028 20 8 L 20 4 C 20 2.3552972 18.644703 1 17 1 L 7 1 z M 7 3 L 17 3 C 17.571297 3 18 3.4287028 18 4 L 18 8 C 18 8.5712972 17.571297 9 17 9 L 7 9 C 6.4287028 9 6 8.5712972 6 8 L 6 4 C 6 3.4287028 6.4287028 3 7 3 z M 4 13 C 2.3552972 13 1 14.355297 1 16 L 1 20 C 1 21.644703 2.3552972 23 4 23 L 20 23 C 21.644703 23 23 21.644703 23 20 L 23 16 C 23 14.355297 21.644703 13 20 13 L 4 13 z M 4 15 L 20 15 C 20.571297 15 21 15.428703 21 16 L 21 20 C 21 20.571297 20.571297 21 20 21 L 4 21 C 3.4287028 21 3 20.571297 3 20 L 3 16 C 3 15.428703 3.4287028 15 4 15 z M 6 17 A 1 1 0 0 0 5 18 A 1 1 0 0 0 6 19 L 8 19 A 1 1 0 0 0 9 18 A 1 1 0 0 0 8 17 L 6 17 z M 12 17 A 1 1 0 0 0 11 18 A 1 1 0 0 0 12 19 L 18 19 A 1 1 0 0 0 19 18 A 1 1 0 0 0 18 17 L 12 17 z "/>
</svg>
