<?xml version="1.0" encoding="UTF-8" standalone="no"?>
<svg xmlns="http://www.w3.org/2000/svg" xmlns:svg="http://www.w3.org/2000/svg" width="24" height="24" viewBox="0 0 24 24" fill="currentColor" tags="direction,north,east,south,west,safari,browser" categories="navigation,maps,travel">
  <path d="M 12 1 C 5.9367246 1 1 5.9367246 1 12 C 1 18.063276 5.9367246 23 12 23 C 18.063276 23 23 18.063276 23 12 C 23 5.9367246 18.063276 1 12 1 z M 12 3 C 16.982397 3 21 7.0176026 21 12 C 21 16.982397 16.982397 21 12 21 C 7.0176026 21 3 16.982397 3 12 C 3 7.0176026 7.0176026 3 12 3 z M 16.287109 6.7597656 A 1.0001 1.0001 0 0 0 15.923828 6.8105469 L 10.513672 8.6152344 C 9.61861 8.9135533 8.9135533 9.61861 8.6152344 10.513672 L 6.8105469 15.923828 A 1.0001 1.0001 0 0 0 8.0761719 17.189453 L 13.486328 15.384766 C 14.38139 15.086446 15.086446 14.38139 15.384766 13.486328 L 17.189453 8.0761719 A 1.0001 1.0001 0 0 0 16.287109 6.7597656 z M 14.658203 9.3417969 L 13.488281 12.855469 C 13.388471 13.154932 13.154932 13.388472 12.855469 13.488281 L 9.3417969 14.658203 L 10.511719 11.144531 C 10.611529 10.845068 10.845068 10.611528 11.144531 10.511719 L 14.658203 9.3417969 z "/>
</svg>
