<?xml version="1.0" encoding="UTF-8" standalone="no"?>
<svg xmlns="http://www.w3.org/2000/svg" xmlns:svg="http://www.w3.org/2000/svg" width="24" height="24" viewBox="0 0 24 24" fill="currentColor" tags="design,element,group,module,part,symbol" categories="design,development">
  <path d="M 12 1.0097656 C 11.486159 1.0097656 10.972252 1.2036457 10.585938 1.5898438 L 8.2089844 3.9667969 C 7.4365882 4.7394262 7.4365882 6.0222924 8.2089844 6.7949219 L 10.585938 9.171875 C 11.358567 9.944271 12.641432 9.944271 13.414062 9.171875 L 15.791016 6.7949219 C 16.563411 6.0222924 16.563411 4.7394262 15.791016 3.9667969 L 13.414062 1.5898438 C 13.027747 1.2036457 12.513841 1.0097656 12 1.0097656 z M 12 3.0039062 L 14.376953 5.3808594 L 12 7.7558594 L 9.6230469 5.3808594 L 12 3.0039062 z M 5.3808594 7.6289062 C 4.8670181 7.6289062 4.3531115 7.8227864 3.9667969 8.2089844 L 1.5898438 10.585938 C 0.81744773 11.358567 0.81744773 12.641432 1.5898438 13.414062 L 3.9667969 15.791016 C 4.7394262 16.563411 6.0222924 16.563411 6.7949219 15.791016 L 9.171875 13.414062 C 9.944271 12.641432 9.944271 11.358567 9.171875 10.585938 L 6.7949219 8.2089844 C 6.4086072 7.8227864 5.8947006 7.6289063 5.3808594 7.6289062 z M 18.619141 7.6289062 C 18.105299 7.6289062 17.591393 7.8227864 17.205078 8.2089844 L 14.828125 10.585938 C 14.055729 11.358567 14.055729 12.641432 14.828125 13.414062 L 17.205078 15.791016 C 17.977707 16.563411 19.260574 16.563411 20.033203 15.791016 L 22.410156 13.414062 C 23.182552 12.641432 23.182552 11.358567 22.410156 10.585938 L 20.033203 8.2089844 C 19.646889 7.8227864 19.132981 7.6289063 18.619141 7.6289062 z M 5.3808594 9.6230469 L 7.7578125 12 L 5.3808594 14.376953 L 3.0039062 12 L 5.3808594 9.6230469 z M 18.619141 9.6230469 L 20.996094 12 L 18.619141 14.376953 L 16.244141 12 L 18.619141 9.6230469 z M 12 14.25 C 11.486159 14.25 10.972252 14.441927 10.585938 14.828125 L 8.2089844 17.205078 C 7.4352973 17.977905 7.4352973 19.26233 8.2089844 20.035156 L 10.585938 22.410156 C 11.358567 23.182552 12.641432 23.182552 13.414062 22.410156 L 15.791016 20.035156 C 16.564702 19.26233 16.564702 17.977905 15.791016 17.205078 L 13.414062 14.828125 C 13.027747 14.441927 12.513841 14.25 12 14.25 z M 12 16.244141 L 14.376953 18.619141 L 12 20.996094 L 9.6230469 18.619141 L 12 16.244141 z "/>
</svg>
