<?xml version="1.0" encoding="UTF-8" standalone="no"?>
<svg xmlns="http://www.w3.org/2000/svg" xmlns:svg="http://www.w3.org/2000/svg" width="24" height="24" viewBox="0 0 24 24" fill="currentColor" tags="reception,bell,porter" categories="travel">
  
  <path d="M 10 3 A 1 1 0 0 0 9 4 A 1 1 0 0 0 10 5 L 11 5 L 11 7.0566406 C 6.784327 7.5261545 3.4351798 10.924627 3.0410156 15.162109 C 1.8599517 15.566259 1 16.689781 1 18 L 1 20 A 1.0001 1.0001 0 0 0 2 21 L 22 21 A 1.0001 1.0001 0 0 0 23 20 L 23 18 C 23 16.689781 22.140048 15.566259 20.958984 15.162109 C 20.56482 10.924627 17.215673 7.5261545 13 7.0566406 L 13 5 L 14 5 A 1 1 0 0 0 15 4 A 1 1 0 0 0 14 3 L 12 3 L 10 3 z M 12 9 C 15.537808 9 18.444816 11.599691 18.927734 15 L 5.0722656 15 C 5.5551838 11.599691 8.4621924 9 12 9 z M 4 17 L 20 17 C 20.564128 17 21 17.435872 21 18 L 21 19 L 3 19 L 3 18 C 3 17.435872 3.4358718 17 4 17 z "/>
</svg>
