<?xml version="1.0" encoding="UTF-8" standalone="no"?>
<svg xmlns="http://www.w3.org/2000/svg" xmlns:svg="http://www.w3.org/2000/svg" width="24" height="24" viewBox="0 0 24 24" fill="currentColor" tags="reception,bell,porter" categories="travel">
  <path d="M 10 3 A 1 1 0 0 0 9 4 A 1 1 0 0 0 10 5 L 11 5 L 11 7.0546875 C 6.7844724 7.5238095 3.4339329 10.923135 3.0390625 15.160156 C 1.8588665 15.564801 1 16.690403 1 18 L 1 19 C 1 20.092725 1.9072751 21 3 21 L 21 21 C 22.092725 21 23 20.092725 23 19 L 23 18 C 23 16.690403 22.141134 15.564801 20.960938 15.160156 C 20.566067 10.923135 17.215528 7.5238095 13 7.0546875 L 13 5 L 14 5 A 1 1 0 0 0 15 4 A 1 1 0 0 0 14 3 L 12 3 L 10 3 z M 12 9 C 15.538178 9 18.447218 11.599171 18.929688 15 L 5.0703125 15 C 5.552782 11.599171 8.4618222 9 12 9 z M 4 17 L 20 17 C 20.564129 17 21 17.435871 21 18 L 21 19 L 3 19 L 3 18 C 3 17.435871 3.4358706 17 4 17 z "/>
</svg>
