<?xml version="1.0" encoding="UTF-8" standalone="no"?>
<svg xmlns="http://www.w3.org/2000/svg" xmlns:svg="http://www.w3.org/2000/svg" width="24" height="24" viewBox="0 0 24 24" fill="currentColor" tags="conical,triangle,triangular,geometry,filter,funnel,hopper,spotlight,searchlight" categories="shapes,math">
  <path d="M 12 1.0507812 C 11.274896 1.0507812 10.54901 1.4125374 10.199219 2.1347656 L 2.2050781 18.101562 A 1 1 0 0 0 2.1542969 18.224609 C 2.0570974 18.464262 2 18.723585 2 19 C 2 19.819544 2.4933622 20.484584 3.0878906 20.953125 C 3.682419 21.421666 4.4335906 21.774739 5.3203125 22.070312 C 7.0937563 22.661461 9.4246453 23 12 23 C 14.575355 23 16.906244 22.661461 18.679688 22.070312 C 19.566409 21.774739 20.317581 21.421666 20.912109 20.953125 C 21.506638 20.484584 22 19.819544 22 19 C 22 18.723832 21.944695 18.466034 21.847656 18.226562 A 1 1 0 0 0 21.794922 18.101562 L 13.800781 2.1347656 C 13.45099 1.4125374 12.725104 1.0507813 12 1.0507812 z M 12 3.0058594 A 1.0001 1.0001 0 0 0 12.005859 3.0175781 L 18.429688 15.849609 C 16.689807 15.308372 14.45598 15 12 15 C 9.5440433 15 7.3101867 15.308381 5.5703125 15.849609 L 11.994141 3.0175781 A 1.0001 1.0001 0 0 0 12 3.0058594 z M 12 17 C 14.395208 17 16.56296 17.333487 18.046875 17.828125 C 18.788833 18.075444 19.357507 18.367898 19.673828 18.617188 C 19.832178 18.741981 19.91312 18.835002 19.955078 18.898438 L 19.958984 18.902344 L 19.996094 18.976562 L 19.998047 18.980469 C 20.000077 18.987849 19.999725 18.997016 20 19 C 20 19.0089 19.9901 19.133523 19.673828 19.382812 C 19.357507 19.632102 18.788833 19.924556 18.046875 20.171875 C 16.56296 20.666513 14.395208 21 12 21 C 9.604792 21 7.4370405 20.666513 5.953125 20.171875 C 5.2111673 19.924556 4.642493 19.632102 4.3261719 19.382812 C 4.0098507 19.133523 4 19.008883 4 19 L 4 18.998047 C 4.0002717 18.995088 3.9999525 18.987776 4.0019531 18.980469 C 4.0023818 18.978903 4.0033562 18.978329 4.0039062 18.976562 L 4.0410156 18.902344 C 4.0418733 18.901023 4.0440288 18.899786 4.0449219 18.898438 C 4.0869338 18.835007 4.16805 18.741802 4.3261719 18.617188 C 4.642493 18.367898 5.2111673 18.075444 5.953125 17.828125 C 7.4370405 17.333487 9.604792 17 12 17 z "/>
</svg>
