<?xml version="1.0" encoding="UTF-8" standalone="no"?>
<svg xmlns="http://www.w3.org/2000/svg" xmlns:svg="http://www.w3.org/2000/svg" width="24" height="24" viewBox="0 0 24 24" fill="currentColor" tags="roadwork,maintenance,blockade,barricade" categories="development">
  
  <path d="M 7 2 A 1 1 0 0 0 6 3 L 6 5 L 3 5 C 1.9092994 5 1 5.9092994 1 7 L 1 13 C 1 14.090701 1.9092994 15 3 15 L 6 15 L 6 21 A 1 1 0 0 0 7 22 A 1 1 0 0 0 8 21 L 8 15 L 16 15 L 16 21 A 1 1 0 0 0 17 22 A 1 1 0 0 0 18 21 L 18 15 L 21 15 C 22.090701 15 23 14.090701 23 13 L 23 7 C 23 5.9092994 22.090701 5 21 5 L 18 5 L 18 3 A 1 1 0 0 0 17 2 A 1 1 0 0 0 16 3 L 16 5 L 8 5 L 8 3 A 1 1 0 0 0 7 2 z M 4.4140625 7 L 7.5859375 7 L 13.585938 13 L 10.414062 13 L 4.4140625 7 z M 10.414062 7 L 13.585938 7 L 19.585938 13 L 16.414062 13 L 10.414062 7 z M 16.414062 7 L 21 7 L 21 11.585938 L 16.414062 7 z M 3 8.4140625 L 7.5859375 13 L 3 13 L 3 8.4140625 z "/>
</svg>
