<?xml version="1.0" encoding="UTF-8" standalone="no"?>
<svg xmlns="http://www.w3.org/2000/svg" xmlns:svg="http://www.w3.org/2000/svg" width="24" height="24" viewBox="0 0 24 24" fill="currentColor" tags="display,accessibility" categories="photography,accessibility,design">
  <path d="M 12 1 C 5.9367124 1 1 5.9367124 1 12 C 1 18.063288 5.9367124 23 12 23 C 18.063288 23 23 18.063288 23 12 C 23 5.9367124 18.063288 1 12 1 z M 12 3 C 16.982407 3 21 7.0175926 21 12 C 21 16.982407 16.982407 21 12 21 C 7.0175926 21 3 16.982407 3 12 C 3 7.0175926 7.0175926 3 12 3 z M 12 5 A 1.0001 1.0001 0 0 0 11 6 L 11 18 A 1.0001 1.0001 0 0 0 12 19 C 15.854151 19 19 15.854148 19 12 C 19 8.1458524 15.854151 5 12 5 z M 13 7.2011719 C 15.271683 7.6746957 17 9.582131 17 12 C 17 14.417869 15.271683 16.325304 13 16.798828 L 13 7.2011719 z "/>
</svg>
