<?xml version="1.0" encoding="UTF-8" standalone="no"?>
<svg xmlns="http://www.w3.org/2000/svg" xmlns:svg="http://www.w3.org/2000/svg" width="24" height="24" viewBox="0 0 24 24" fill="currentColor" tags="user,person,family,friend,acquaintance,listing,networking" categories="account,connectivity,communication,social">
  <path d="M 8 1 A 1 1 0 0 0 7 2 L 7 3 L 5 3 C 3.3553005 3 2 4.3553005 2 6 L 2 20 C 2 21.644699 3.3553005 23 5 23 L 19 23 C 20.644699 23 22 21.644699 22 20 L 22 6 C 22 4.3553005 20.644699 3 19 3 L 17 3 L 17 2 A 1 1 0 0 0 16 1 A 1 1 0 0 0 15 2 L 15 3 L 9 3 L 9 2 A 1 1 0 0 0 8 1 z M 5 5 L 16 5 L 19 5 C 19.571296 5 20 5.4287039 20 6 L 20 20 C 20 20.571296 19.571296 21 19 21 L 5 21 C 4.4287039 21 4 20.571296 4 20 L 4 6 C 4 5.4287039 4.4287039 5 5 5 z M 12 7 C 10.354994 7 9 8.3549936 9 10 C 9 11.645006 10.354994 13 12 13 C 13.645006 13 15 11.645006 15 10 C 15 8.3549936 13.645006 7 12 7 z M 12 9 C 12.564128 9 13 9.4358718 13 10 C 13 10.564128 12.564128 11 12 11 C 11.435872 11 11 10.564128 11 10 C 11 9.4358718 11.435872 9 12 9 z M 9 15 C 7.3549936 15 6 16.354994 6 18 A 1 1 0 0 0 7 19 A 1 1 0 0 0 8 18 C 8 17.435872 8.4358718 17 9 17 L 15 17 C 15.564128 17 16 17.435872 16 18 A 1 1 0 0 0 17 19 A 1 1 0 0 0 18 18 C 18 16.354994 16.645006 15 15 15 L 9 15 z "/>
</svg>
