<?xml version="1.0" encoding="UTF-8" standalone="no"?>
<svg xmlns="http://www.w3.org/2000/svg" xmlns:svg="http://www.w3.org/2000/svg" width="24" height="24" viewBox="0 0 24 24" fill="currentColor" tags="user,person,family,friend,acquaintance,listing,networking" categories="account,connectivity,communication,social">
  <path d="M 8 1 A 1 1 0 0 0 7 2 L 7 3 L 5 3 C 3.3553005 3 2 4.3553005 2 6 L 2 20 C 2 21.644699 3.3553005 23 5 23 L 7 23 L 17 23 L 19 23 C 20.644699 23 22 21.644699 22 20 L 22 6 C 22 4.3553005 20.644699 3 19 3 L 17 3 L 17 2 A 1 1 0 0 0 16 1 A 1 1 0 0 0 15 2 L 15 3 L 9 3 L 9 2 A 1 1 0 0 0 8 1 z M 5 5 L 8 5 L 16 5 L 19 5 C 19.571296 5 20 5.4287039 20 6 L 20 20 C 20 20.571296 19.571296 21 19 21 L 18 21 L 18 20 C 18 18.354994 16.645006 17 15 17 L 9 17 C 7.3549936 17 6 18.354994 6 20 L 6 21 L 5 21 C 4.4287039 21 4 20.571296 4 20 L 4 6 C 4 5.4287039 4.4287039 5 5 5 z M 12 7 C 9.80271 7 8 8.80271 8 11 C 8 13.19729 9.80271 15 12 15 C 14.19729 15 16 13.19729 16 11 C 16 8.80271 14.19729 7 12 7 z M 12 9 C 13.116412 9 14 9.8835881 14 11 C 14 12.116412 13.116412 13 12 13 C 10.883588 13 10 12.116412 10 11 C 10 9.8835881 10.883588 9 12 9 z M 9 19 L 15 19 C 15.564128 19 16 19.435872 16 20 L 16 21 L 8 21 L 8 20 C 8 19.435872 8.4358718 19 9 19 z "/>
</svg>
