<svg xmlns="http://www.w3.org/2000/svg" xmlns:svg="http://www.w3.org/2000/svg" width="24" height="24" viewBox="0 0 24 24" fill="currentColor" tags="storage,shipping,freight,supply chain,docker,environment,devops,code,coding" categories="development,transportation,mail">
  <path d="M 14.050781 1.0761719 C 13.586735 1.0761719 13.121173 1.1931583 12.705078 1.4296875 A 1.0001 1.0001 0 0 0 12.697266 1.4355469 L 2.4453125 7.4082031 C 1.8767748 7.6595196 1.4567142 8.0900106 1.2207031 8.6230469 A 1 1 0 0 0 1.125 8.8730469 C 1.0423271 9.131867 1 9.4099717 1 9.6992188 L 1 16.300781 C 1 16.817448 1.1661133 17.224137 1.3730469 17.603516 C 1.5799805 17.982894 1.8285521 18.321609 2.1992188 18.599609 A 1.0001 1.0001 0 0 0 2.2734375 18.650391 L 8.5742188 22.550781 A 1.0001 1.0001 0 0 0 8.6054688 22.570312 C 9.4376577 23.043371 10.462733 23.043372 11.294922 22.570312 A 1.0001 1.0001 0 0 0 11.302734 22.564453 L 21.603516 16.564453 A 1.0001 1.0001 0 0 0 21.615234 16.556641 C 22.058601 16.290659 22.364521 15.92774 22.597656 15.533203 C 22.830791 15.138667 23 14.715885 23 14.199219 L 23 7.6992188 C 23 7.3872152 22.950711 7.0998645 22.865234 6.8378906 A 1 1 0 0 0 22.810547 6.6855469 C 22.596219 6.1440145 22.221766 5.7161291 21.800781 5.4003906 A 1.0001 1.0001 0 0 0 21.726562 5.3496094 L 15.425781 1.4492188 A 1.0001 1.0001 0 0 0 15.394531 1.4296875 C 14.978437 1.1931581 14.514827 1.0761719 14.050781 1.0761719 z M 14.048828 3.0761719 C 14.171199 3.076258 14.293506 3.1073587 14.404297 3.1699219 L 20.34375 6.8457031 L 10.017578 12.833984 L 3.7636719 8.9550781 L 13.693359 3.1699219 C 13.804025 3.107014 13.926458 3.0760857 14.048828 3.0761719 z M 21 8.7773438 L 21 14.199219 C 21 14.182549 20.96882 14.360162 20.876953 14.515625 C 20.785083 14.671088 20.642581 14.807811 20.585938 14.841797 L 19 15.765625 L 19 9.9375 L 21 8.7773438 z M 3 10.833984 L 9 14.556641 L 9 20.462891 L 3.3925781 16.990234 C 3.3576529 16.961376 3.2174156 16.812332 3.1269531 16.646484 C 3.0338867 16.475863 3 16.284115 3 16.300781 L 3 10.833984 z M 17 11.095703 L 17 16.931641 L 15 18.095703 L 15 12.255859 L 17 11.095703 z M 13 13.416016 L 13 19.261719 L 11 20.425781 L 11 14.576172 L 13 13.416016 z "/>
</svg>
