<?xml version="1.0" encoding="UTF-8" standalone="no"?>
<svg xmlns="http://www.w3.org/2000/svg" xmlns:svg="http://www.w3.org/2000/svg" width="24" height="24" viewBox="0 0 24 24" fill="currentColor" tags="user,person,family,friend,acquaintance,listing,networking" categories="account,connectivity,communication,social">
  <path d="M 8 1 A 1 1 0 0 0 7 2 L 7 3 L 5 3 C 3.3553005 3 2 4.3553005 2 6 L 2 20 C 2 21.644699 3.3553005 23 5 23 L 19 23 C 20.644699 23 22 21.644699 22 20 L 22 6 C 22 4.3553005 20.644699 3 19 3 L 17 3 L 17 2 A 1 1 0 0 0 16 1 A 1 1 0 0 0 15 2 L 15 3 L 9 3 L 9 2 A 1 1 0 0 0 8 1 z M 5 5 L 16 5 L 19 5 C 19.571296 5 20 5.4287039 20 6 L 20 20 C 20 20.571296 19.571296 21 19 21 L 5 21 C 4.4287039 21 4 20.571296 4 20 L 4 6 C 4 5.4287039 4.4287039 5 5 5 z M 12 7 C 9.80271 7 8 8.80271 8 11 C 8 12.09272 8.4455883 13.088133 9.1640625 13.8125 C 8.9623176 13.94282 8.76921 14.089044 8.5859375 14.251953 C 7.6297575 15.10189 7 16.416671 7 18 A 1 1 0 0 0 8 19 A 1 1 0 0 0 9 18 C 9 16.916669 9.3702455 16.231439 9.9140625 15.748047 C 10.457879 15.264654 11.222224 15 12 15 C 12.777776 15 13.54212 15.264654 14.085938 15.748047 C 14.629754 16.231439 15 16.916669 15 18 A 1 1 0 0 0 16 19 A 1 1 0 0 0 17 18 C 17 16.416671 16.370242 15.10189 15.414062 14.251953 C 15.23079 14.089044 15.037682 13.94282 14.835938 13.8125 C 15.554412 13.088133 16 12.09272 16 11 C 16 8.80271 14.19729 7 12 7 z M 12 9 C 13.116412 9 14 9.8835881 14 11 C 14 12.116412 13.116412 13 12 13 C 10.883588 13 10 12.116412 10 11 C 10 9.8835881 10.883588 9 12 9 z "/>
</svg>
