<?xml version="1.0" encoding="UTF-8" standalone="no"?>
<svg xmlns="http://www.w3.org/2000/svg" xmlns:svg="http://www.w3.org/2000/svg" width="24" height="24" viewBox="0 0 24 24" fill="currentColor" tags="storage,shipping,freight,supply chain,docker,environment,devops,code,coding" categories="development,transportation,mail">
  <path d="M 14.050781 1.0761719 C 13.586737 1.0761719 13.121172 1.1931588 12.705078 1.4296875 A 1.0001 1.0001 0 0 0 12.697266 1.4355469 L 2.3964844 7.4355469 C 1.8139269 7.7087468 1.3958906 8.1720938 1.1777344 8.7421875 A 1 1 0 0 0 1.1269531 8.8847656 C 1.0463182 9.1407872 1 9.413629 1 9.6992188 L 1 16.300781 C 1 16.817447 1.1661137 17.224138 1.3730469 17.603516 C 1.5799801 17.982892 1.8285528 18.321611 2.1992188 18.599609 A 1.0001 1.0001 0 0 0 2.2734375 18.650391 L 8.5742188 22.550781 A 1.0001 1.0001 0 0 0 8.6054688 22.570312 C 9.437656 23.04337 10.462735 23.04337 11.294922 22.570312 A 1.0001 1.0001 0 0 0 11.302734 22.564453 L 21.603516 16.564453 A 1.0001 1.0001 0 0 0 21.615234 16.556641 C 22.0586 16.290659 22.364521 15.927739 22.597656 15.533203 C 22.830791 15.138668 23 14.715884 23 14.199219 L 23 7.6992188 C 23 7.4037147 22.95222 7.1334238 22.875 6.8828125 A 1 1 0 0 0 22.802734 6.6699219 C 22.58742 6.1358294 22.217688 5.7130706 21.800781 5.4003906 A 1.0001 1.0001 0 0 0 21.726562 5.3496094 L 15.425781 1.4492188 A 1.0001 1.0001 0 0 0 15.394531 1.4296875 C 14.978438 1.1931586 14.514827 1.0761719 14.050781 1.0761719 z M 14.048828 3.0761719 C 14.171199 3.076258 14.293507 3.1073588 14.404297 3.1699219 L 20.34375 6.8457031 L 10.017578 12.833984 L 3.7636719 8.9550781 L 13.693359 3.1699219 C 13.804025 3.1070141 13.926458 3.0760857 14.048828 3.0761719 z M 21 8.7773438 L 21 14.199219 C 21 14.182549 20.96882 14.360162 20.876953 14.515625 C 20.785083 14.671088 20.642581 14.807811 20.585938 14.841797 L 19 15.765625 L 19 9.9375 L 21 8.7773438 z M 3 10.833984 L 9 14.556641 L 9 20.462891 L 3.3925781 16.990234 C 3.3576531 16.961376 3.2174155 16.812332 3.1269531 16.646484 C 3.0338869 16.475864 3 16.284115 3 16.300781 L 3 10.833984 z M 17 11.095703 L 17 16.931641 L 15 18.095703 L 15 12.255859 L 17 11.095703 z M 13 13.416016 L 13 19.261719 L 11 20.425781 L 11 14.576172 L 13 13.416016 z "/>
</svg>
