<?xml version="1.0" encoding="UTF-8" standalone="no"?>
<svg xmlns="http://www.w3.org/2000/svg" xmlns:svg="http://www.w3.org/2000/svg" width="24" height="24" viewBox="0 0 24 24" fill="currentColor" tags="user,person,family,friend,acquaintance,listing,networking" categories="account,connectivity,communication,social">
  <path d="M 8 1 A 1 1 0 0 0 7 2 L 7 3 L 5 3 C 3.3553005 3 2 4.3553005 2 6 L 2 20 C 2 21.644699 3.3553005 23 5 23 L 5.9140625 23 L 17.914062 23 L 19 23 C 20.644699 23 22 21.644699 22 20 L 22 6 C 22 4.3553005 20.644699 3 19 3 L 17 3 L 17 2 A 1 1 0 0 0 16 1 A 1 1 0 0 0 15 2 L 15 3 L 9 3 L 9 2 A 1 1 0 0 0 8 1 z M 5 5 L 8 5 L 16 5 L 19 5 C 19.571296 5 20 5.4287039 20 6 L 20 20 C 20 20.571296 19.571296 21 19 21 L 18.841797 21 C 18.51856 18.761409 17.128774 16.859224 15.207031 15.828125 C 16.301626 14.908968 17 13.532201 17 12 C 17 9.2504263 14.749573 7 12 7 C 9.2504263 7 7 9.2504263 7 12 C 7 13.501432 7.671598 14.852879 8.7285156 15.771484 C 6.7520412 16.788378 5.3160603 18.718959 4.9863281 20.998047 C 4.422134 20.991016 4 20.566559 4 20 L 4 6 C 4 5.4287039 4.4287039 5 5 5 z M 12 9 C 13.668695 9 15 10.331305 15 12 C 15 13.668695 13.668695 15 12 15 C 10.331305 15 9 13.668695 9 12 C 9 10.331305 10.331305 9 12 9 z M 11.914062 17 C 14.344752 17 16.354755 18.710125 16.814453 21 L 7.0136719 21 C 7.4733698 18.710125 9.4833723 17 11.914062 17 z "/>
</svg>
