<?xml version="1.0" encoding="UTF-8" standalone="no"?>
<svg xmlns="http://www.w3.org/2000/svg" xmlns:svg="http://www.w3.org/2000/svg" width="24" height="24" viewBox="0 0 24 24" fill="currentColor" tags="user,person,family,friend,acquaintance,listing,networking" categories="account,connectivity,communication,social">
  <path d="M 8 1 A 1 1 0 0 0 7 2 L 7 3 L 5 3 C 3.3552972 3 2 4.3552972 2 6 L 2 20 C 2 21.644703 3.3552972 23 5 23 L 5.9140625 23 L 17.914062 23 L 19 23 C 20.644703 23 22 21.644703 22 20 L 22 6 C 22 4.3552972 20.644703 3 19 3 L 17 3 L 17 2 A 1 1 0 0 0 16 1 A 1 1 0 0 0 15 2 L 15 3 L 9 3 L 9 2 A 1 1 0 0 0 8 1 z M 5 5 L 8 5 L 16 5 L 19 5 C 19.571297 5 20 5.4287028 20 6 L 20 20 C 20 20.571297 19.571297 21 19 21 L 18.841797 21 C 18.51856 18.761405 17.128776 16.859224 15.207031 15.828125 C 16.301627 14.908968 17 13.532204 17 12 C 17 9.2504209 14.749579 7 12 7 C 9.2504209 7 7 9.2504209 7 12 C 7 13.501435 7.6715973 14.852878 8.7285156 15.771484 C 6.7520391 16.788378 5.3160603 18.718956 4.9863281 20.998047 C 4.4221329 20.991016 4 20.56656 4 20 L 4 6 C 4 5.4287028 4.4287028 5 5 5 z M 12 9 C 13.668699 9 15 10.331301 15 12 C 15 13.668699 13.668699 15 12 15 C 10.331301 15 9 13.668699 9 12 C 9 10.331301 10.331301 9 12 9 z M 11.914062 17 C 14.344757 17 16.354755 18.710121 16.814453 21 L 7.0136719 21 C 7.4733697 18.710121 9.4833674 17 11.914062 17 z "/>
</svg>
