<?xml version="1.0" encoding="UTF-8" standalone="no"?>
<svg xmlns="http://www.w3.org/2000/svg" xmlns:svg="http://www.w3.org/2000/svg" width="24" height="24" viewBox="0 0 24 24" fill="currentColor" tags="pod,cooking,recipe,food,kitchen,chef,restaurant,dinner,lunch,breakfast,meal,eat" categories="food-beverage,home">
  <path d="M 12.308594 1.0019531 C 12.061586 0.9996245 11.810239 1.0273442 11.560547 1.0898438 L 11.556641 1.0898438 L 9.6191406 1.5683594 A 1.0001 1.0001 0 0 0 9.6152344 1.5703125 C 8.0191125 1.9726755 7.0375702 3.6190909 7.4414062 5.2148438 L 7.6503906 6.0566406 L 3.7578125 7.0292969 A 1 1 0 0 0 3.0292969 8.2421875 A 1 1 0 0 0 4.2421875 8.9707031 L 20.242188 4.9707031 A 1 1 0 0 0 20.970703 3.7578125 A 1 1 0 0 0 19.757812 3.0292969 L 15.410156 4.1171875 L 15.199219 3.2773438 C 14.864649 1.9281515 13.642434 1.0145277 12.308594 1.0019531 z M 12.25 2.9980469 C 12.721089 2.9740468 13.141019 3.2788886 13.259766 3.7597656 A 1.0001 1.0001 0 0 0 13.259766 3.7617188 L 13.46875 4.6015625 L 9.5898438 5.5703125 L 9.3808594 4.7285156 A 1.0001 1.0001 0 0 0 9.3789062 4.7246094 C 9.2404053 4.1773411 9.5561153 3.6477571 10.103516 3.5097656 L 12.041016 3.03125 A 1.0001 1.0001 0 0 0 12.044922 3.0292969 C 12.11354 3.01202 12.182702 3.0014755 12.25 2.9980469 z M 2 11 A 1 1 0 0 0 1 12 A 1 1 0 0 0 2 13 L 3 13 L 3 20 C 3 21.64501 4.3549904 23 6 23 L 18 23 C 19.64501 23 21 21.64501 21 20 L 21 13 L 22 13 A 1 1 0 0 0 23 12 A 1 1 0 0 0 22 11 L 2 11 z M 5 13 L 19 13 L 19 20 C 19 20.564129 18.564129 21 18 21 L 6 21 C 5.4358706 21 5 20.564129 5 20 L 5 13 z "/>
</svg>
