<?xml version="1.0" encoding="UTF-8" standalone="no"?>
<svg xmlns="http://www.w3.org/2000/svg" xmlns:svg="http://www.w3.org/2000/svg" width="24" height="24" viewBox="0 0 24 24" fill="currentColor" tags="biscuit,privacy,legal,food" categories="account,food-beverage">
  <path d="M 12 1 C 7.142181 1 3.4186232 3.9742929 1.8378906 7.7910156 C 0.25715809 11.607738 0.78803099 16.342718 4.2226562 19.777344 C 7.6572816 23.211969 12.392262 23.742842 16.208984 22.162109 C 20.025707 20.581377 23 16.857819 23 12 A 1.0001 1.0001 0 0 0 21.705078 11.044922 C 19.348505 11.770548 17.229452 9.6514945 17.955078 7.2949219 A 1.0001 1.0001 0 0 0 16.705078 6.0449219 C 14.348505 6.7705482 12.229452 4.6514945 12.955078 2.2949219 A 1 1 0 0 0 12.912109 2.2128906 A 1 1 0 0 0 13 2 A 1 1 0 0 0 12.574219 1.5742188 A 1 1 0 0 0 12.294922 1.0449219 A 1 1 0 0 0 12.130859 1.1308594 A 1 1 0 0 0 12 1 z M 11.019531 3.1484375 C 11.034261 5.9022372 13.252472 8.0615209 16.023438 7.9765625 C 15.938477 10.747528 18.097764 12.965743 20.851562 12.980469 C 20.480974 16.504119 18.314465 19.125357 15.443359 20.314453 C 12.299559 21.616489 8.5014166 21.227979 5.6367188 18.363281 C 2.772021 15.498583 2.3835114 11.700441 3.6855469 8.5566406 C 4.874643 5.6855349 7.4958807 3.519026 11.019531 3.1484375 z M 8.5 7.5 A 1 1 0 0 0 7.5 8.5 L 7.5 8.5097656 A 1 1 0 0 0 8.5 9.5097656 A 1 1 0 0 0 9.5 8.5097656 L 9.5 8.5 A 1 1 0 0 0 8.5 7.5 z M 12 11 A 1 1 0 0 0 11 12 L 11 12.009766 A 1 1 0 0 0 12 13.009766 A 1 1 0 0 0 13 12.009766 L 13 12 A 1 1 0 0 0 12 11 z M 7 13 A 1 1 0 0 0 6 14 L 6 14.009766 A 1 1 0 0 0 7 15.009766 A 1 1 0 0 0 8 14.009766 L 8 14 A 1 1 0 0 0 7 13 z M 16 14.5 A 1 1 0 0 0 15 15.5 L 15 15.509766 A 1 1 0 0 0 16 16.509766 A 1 1 0 0 0 17 15.509766 L 17 15.5 A 1 1 0 0 0 16 14.5 z M 11 16 A 1 1 0 0 0 10 17 L 10 17.009766 A 1 1 0 0 0 11 18.009766 A 1 1 0 0 0 12 17.009766 L 12 17 A 1 1 0 0 0 11 16 z "/>
</svg>
