<?xml version="1.0" encoding="UTF-8" standalone="no"?>
<svg xmlns="http://www.w3.org/2000/svg" xmlns:svg="http://www.w3.org/2000/svg" width="24" height="24" viewBox="0 0 24 24" fill="currentColor" tags="cancel,close,delete,remove,clear,multiple,multiply,multiplication,times" categories="notifications,math">
  <path d="M 4 1 C 2.3545455 1 1 2.3545455 1 4 L 1 14 C 1 15.645455 2.3545455 17 4 17 A 1 1 0 0 0 5 16 A 1 1 0 0 0 4 15 C 3.4454545 15 3 14.554545 3 14 L 3 4 C 3 3.4454545 3.4454545 3 4 3 L 14 3 C 14.554545 3 15 3.4454545 15 4 A 1 1 0 0 0 16 5 A 1 1 0 0 0 17 4 C 17 2.3545455 15.645455 1 14 1 L 4 1 z M 10 7 C 8.3552972 7 7 8.3552972 7 10 L 7 20 C 7 21.644703 8.3552972 23 10 23 L 20 23 C 21.644703 23 23 21.644703 23 20 L 23 10 C 23 8.3552972 21.644703 7 20 7 L 10 7 z M 10 9 L 20 9 C 20.571297 9 21 9.4287028 21 10 L 21 20 C 21 20.571297 20.571297 21 20 21 L 10 21 C 9.4287028 21 9 20.571297 9 20 L 9 10 C 9 9.4287028 9.4287028 9 10 9 z M 12 11 A 1 1 0 0 0 11.292969 11.292969 A 1 1 0 0 0 11.292969 12.707031 L 13.585938 15 L 11.292969 17.292969 A 1 1 0 0 0 11.292969 18.707031 A 1 1 0 0 0 12.707031 18.707031 L 15 16.414062 L 17.292969 18.707031 A 1 1 0 0 0 18.707031 18.707031 A 1 1 0 0 0 18.707031 17.292969 L 16.414062 15 L 18.707031 12.707031 A 1 1 0 0 0 18.707031 11.292969 A 1 1 0 0 0 17.292969 11.292969 L 15 13.585938 L 12.707031 11.292969 A 1 1 0 0 0 12 11 z "/>
</svg>
