<?xml version="1.0" encoding="UTF-8" standalone="no"?>
<svg xmlns="http://www.w3.org/2000/svg" xmlns:svg="http://www.w3.org/2000/svg" width="24" height="24" viewBox="0 0 24 24" fill="currentColor" tags="licence,license" categories="">
  <path d="M 12 1 C 5.9367124 1 1 5.9367124 1 12 C 1 18.063288 5.9367124 23 12 23 C 18.063288 23 23 18.063288 23 12 C 23 5.9367124 18.063288 1 12 1 z M 12 3 C 16.982407 3 21 7.0175926 21 12 C 21 16.982407 16.982407 21 12 21 C 7.0175926 21 3 16.982407 3 12 C 3 7.0175926 7.0175926 3 12 3 z M 12.164062 7.0019531 C 11.447029 6.9807706 10.735861 7.1122149 10.087891 7.3808594 C 8.3599671 8.0972445 7.0039064 9.8159047 7.0039062 12 C 7.0039062 14.184095 8.3599671 15.902755 10.087891 16.619141 C 11.815814 17.335526 13.99172 17.08078 15.537109 15.537109 A 1 1 0 0 0 15.537109 14.123047 A 1 1 0 0 0 14.123047 14.123047 C 13.14776 15.09725 11.908749 15.208977 10.853516 14.771484 C 9.7982821 14.333992 9.0039063 13.378268 9.0039062 12 C 9.0039062 10.621732 9.7982821 9.6660081 10.853516 9.2285156 C 11.908749 8.7910231 13.14776 8.9027503 14.123047 9.8769531 A 1 1 0 0 0 15.537109 9.8769531 A 1 1 0 0 0 15.537109 8.4628906 C 14.764415 7.6910551 13.833764 7.2411441 12.880859 7.0742188 C 12.642633 7.0324874 12.403074 7.009014 12.164062 7.0019531 z "/>
</svg>
