<?xml version="1.0" encoding="UTF-8" standalone="no"?>
<svg xmlns="http://www.w3.org/2000/svg" xmlns:svg="http://www.w3.org/2000/svg" width="24" height="24" viewBox="0 0 24 24" fill="currentColor" tags="licence,license" categories="">
  <path d="M 12 1 C 5.9367246 1 1 5.9367246 1 12 C 1 18.063276 5.9367246 23 12 23 C 18.063276 23 23 18.063276 23 12 C 23 5.9367246 18.063276 1 12 1 z M 12 3 C 16.982397 3 21 7.0176026 21 12 C 21 16.982397 16.982397 21 12 21 C 7.0176026 21 3 16.982397 3 12 C 3 7.0176026 7.0176026 3 12 3 z M 12.164062 7.0019531 C 11.44703 6.9807707 10.73586 7.1122154 10.087891 7.3808594 C 8.3599706 8.0972431 7.0039063 9.8159091 7.0039062 12 C 7.0039062 14.184091 8.3599706 15.902756 10.087891 16.619141 C 11.81581 17.335524 13.991724 17.080778 15.537109 15.537109 A 1 1 0 0 0 15.537109 14.123047 A 1 1 0 0 0 14.123047 14.123047 C 13.147762 15.097248 11.908747 15.208976 10.853516 14.771484 C 9.7982843 14.333993 9.0039062 13.378266 9.0039062 12 C 9.0039062 10.621734 9.7982843 9.6660073 10.853516 9.2285156 C 11.908747 8.7910241 13.147762 8.9027523 14.123047 9.8769531 A 1 1 0 0 0 15.537109 9.8769531 A 1 1 0 0 0 15.537109 8.4628906 C 14.764416 7.6910567 13.833762 7.2411439 12.880859 7.0742188 C 12.642634 7.0324875 12.403073 7.0090139 12.164062 7.0019531 z "/>
</svg>
