<?xml version="1.0" encoding="UTF-8" standalone="no"?>
<svg xmlns="http://www.w3.org/2000/svg" xmlns:svg="http://www.w3.org/2000/svg" width="24" height="24" viewBox="0 0 24 24" fill="currentColor" tags="licence" categories="">
  <path d="M 12 1 C 5.9367124 1 1 5.9367124 1 12 C 1 18.063288 5.9367124 23 12 23 C 18.063288 23 23 18.063288 23 12 C 23 5.9367124 18.063288 1 12 1 z M 12 3 C 16.982407 3 21 7.0175926 21 12 C 21 16.982407 16.982407 21 12 21 C 7.0175926 21 3 16.982407 3 12 C 3 7.0175926 7.0175926 3 12 3 z M 11.835938 7.0019531 C 11.596926 7.009014 11.357367 7.0324874 11.119141 7.0742188 C 10.166236 7.2411441 9.2355853 7.6910551 8.4628906 8.4628906 A 1 1 0 0 0 8.4628906 9.8769531 A 1 1 0 0 0 9.8769531 9.8769531 C 10.85224 8.9027503 12.091251 8.7910231 13.146484 9.2285156 C 14.201717 9.6660081 14.996094 10.621732 14.996094 12 C 14.996094 13.378268 14.201717 14.333992 13.146484 14.771484 C 12.091251 15.208977 10.85224 15.09725 9.8769531 14.123047 A 1 1 0 0 0 8.4628906 14.123047 A 1 1 0 0 0 8.4628906 15.537109 C 10.00828 17.08078 12.184186 17.335526 13.912109 16.619141 C 15.640032 15.902755 16.996094 14.184095 16.996094 12 C 16.996094 9.8159047 15.640032 8.0972445 13.912109 7.3808594 C 13.264139 7.1122149 12.552971 6.9807706 11.835938 7.0019531 z "/>
</svg>
