<?xml version="1.0" encoding="UTF-8" standalone="no"?>
<svg xmlns="http://www.w3.org/2000/svg" xmlns:svg="http://www.w3.org/2000/svg" width="24" height="24" viewBox="0 0 24 24" fill="currentColor" tags="arrow" categories="arrows">
  <path d="M 13 3 C 10.250421 3 8 5.2504209 8 8 L 8 17.585938 L 4.7070312 14.292969 A 1 1 0 0 0 4 14 A 1 1 0 0 0 3.2929688 14.292969 A 1 1 0 0 0 3.2929688 15.707031 L 8.2832031 20.697266 L 8.2929688 20.707031 A 1.0001 1.0001 0 0 0 8.3417969 20.75 A 1 1 0 0 0 8.3847656 20.787109 A 1.0001 1.0001 0 0 0 8.4394531 20.824219 A 1 1 0 0 0 8.4921875 20.861328 A 1.0001 1.0001 0 0 0 8.5 20.865234 A 1 1 0 0 0 8.6113281 20.921875 A 1.0001 1.0001 0 0 0 8.6171875 20.923828 A 1 1 0 0 0 8.7421875 20.964844 A 1 1 0 0 0 8.7949219 20.976562 A 1.0001 1.0001 0 0 0 9 21 A 1.0001 1.0001 0 0 0 9.2050781 20.976562 A 1.0001 1.0001 0 0 0 9.2578125 20.964844 A 1 1 0 0 0 9.3828125 20.923828 A 1.0001 1.0001 0 0 0 9.5605469 20.824219 A 1 1 0 0 0 9.6152344 20.787109 A 1.0001 1.0001 0 0 0 9.6582031 20.75 A 1 1 0 0 0 9.7167969 20.697266 L 14.707031 15.707031 A 1 1 0 0 0 14.707031 14.292969 A 1 1 0 0 0 13.292969 14.292969 L 10 17.585938 L 10 8 C 10 6.3313011 11.331301 5 13 5 L 20 5 A 1 1 0 0 0 21 4 A 1 1 0 0 0 20 3 L 13 3 z "/>
</svg>
