<?xml version="1.0" encoding="UTF-8" standalone="no"?>
<svg xmlns="http://www.w3.org/2000/svg" xmlns:svg="http://www.w3.org/2000/svg" width="24" height="24" viewBox="0 0 24 24" fill="currentColor" tags="arrow" categories="arrows">
  <path d="M 15 3 A 1 1 0 0 0 14.941406 3.0117188 A 1.0001 1.0001 0 0 0 14.695312 3.0605469 A 1 1 0 0 0 14.587891 3.0957031 A 1.0001 1.0001 0 0 0 14.292969 3.2929688 L 9.2929688 8.2929688 A 1 1 0 0 0 9.2929688 9.7070312 A 1 1 0 0 0 10.707031 9.7070312 L 14 6.4140625 L 14 16 C 14 17.668695 12.668695 19 11 19 L 4 19 A 1 1 0 0 0 3 20 A 1 1 0 0 0 4 21 L 11 21 C 13.749573 21 16 18.749573 16 16 L 16 6.4140625 L 19.292969 9.7070312 A 1 1 0 0 0 20.707031 9.7070312 A 1 1 0 0 0 20.707031 8.2929688 L 15.707031 3.2929688 A 1 1 0 0 0 15.460938 3.1152344 A 1.0001 1.0001 0 0 0 15.441406 3.1054688 A 1 1 0 0 0 15.164062 3.0136719 A 1 1 0 0 0 15.150391 3.0117188 A 1 1 0 0 0 15 3 z "/>
</svg>
