<svg xmlns="http://www.w3.org/2000/svg" xmlns:svg="http://www.w3.org/2000/svg" width="24" height="24" viewBox="0 0 24 24" fill="currentColor" tags="arrow,indent,tab" categories="arrows,text,development">
  <path d="M 4 3 A 1 1 0 0 0 3 4 L 3 11 C 3 13.749579 5.2504209 16 8 16 L 17.585938 16 L 14.292969 19.292969 A 1 1 0 0 0 14.292969 20.707031 A 1 1 0 0 0 15.707031 20.707031 L 20.697266 15.716797 A 1 1 0 0 0 20.707031 15.707031 A 1.0001 1.0001 0 0 0 20.785156 15.619141 A 1 1 0 0 0 20.792969 15.609375 A 1.0001 1.0001 0 0 0 20.861328 15.507812 A 1 1 0 0 0 20.865234 15.5 A 1.0001 1.0001 0 0 0 20.921875 15.388672 A 1 1 0 0 0 20.923828 15.382812 A 1 1 0 0 0 20.964844 15.257812 A 1.0001 1.0001 0 0 0 20.976562 15.205078 A 1.0001 1.0001 0 0 0 21 15 A 1.0001 1.0001 0 0 0 20.976562 14.794922 A 1.0001 1.0001 0 0 0 20.964844 14.742188 A 1 1 0 0 0 20.923828 14.617188 A 1.0001 1.0001 0 0 0 20.921875 14.611328 A 1 1 0 0 0 20.865234 14.5 A 1.0001 1.0001 0 0 0 20.861328 14.492188 A 1 1 0 0 0 20.792969 14.390625 A 1.0001 1.0001 0 0 0 20.785156 14.380859 A 1 1 0 0 0 20.707031 14.292969 L 20.697266 14.283203 L 15.707031 9.2929688 A 1 1 0 0 0 15 9 A 1 1 0 0 0 14.292969 9.2929688 A 1 1 0 0 0 14.292969 10.707031 L 17.585938 14 L 8 14 C 6.3313011 14 5 12.668699 5 11 L 5 4 A 1 1 0 0 0 4 3 z "/>
</svg>
