<?xml version="1.0" encoding="UTF-8" standalone="no"?>
<svg xmlns="http://www.w3.org/2000/svg" xmlns:svg="http://www.w3.org/2000/svg" width="24" height="24" viewBox="0 0 24 24" fill="currentColor" tags="arrow" categories="arrows">
  <path d="M 15 3 A 1.0001 1.0001 0 0 0 14.794922 3.0234375 A 1 1 0 0 0 14.742188 3.0351562 A 1 1 0 0 0 14.617188 3.0761719 A 1 1 0 0 0 14.611328 3.078125 A 1.0001 1.0001 0 0 0 14.5 3.1347656 A 1 1 0 0 0 14.439453 3.1757812 A 1.0001 1.0001 0 0 0 14.384766 3.2128906 A 1 1 0 0 0 14.341797 3.25 A 1.0001 1.0001 0 0 0 14.292969 3.2929688 A 1 1 0 0 0 14.283203 3.3027344 L 9.2929688 8.2929688 A 1 1 0 0 0 9.2929688 9.7070312 A 1 1 0 0 0 10.707031 9.7070312 L 14 6.4140625 L 14 16 C 14 17.668699 12.668699 19 11 19 L 4 19 A 1 1 0 0 0 3 20 A 1 1 0 0 0 4 21 L 11 21 C 13.749579 21 16 18.749579 16 16 L 16 6.4140625 L 19.292969 9.7070312 A 1 1 0 0 0 20.707031 9.7070312 A 1 1 0 0 0 20.707031 8.2929688 L 15.716797 3.3027344 A 1 1 0 0 0 15.658203 3.25 A 1.0001 1.0001 0 0 0 15.615234 3.2128906 A 1 1 0 0 0 15.560547 3.1757812 A 1.0001 1.0001 0 0 0 15.382812 3.0761719 A 1 1 0 0 0 15.257812 3.0351562 A 1.0001 1.0001 0 0 0 15.205078 3.0234375 A 1.0001 1.0001 0 0 0 15 3 z "/>
</svg>
