<?xml version="1.0" encoding="UTF-8" standalone="no"?>
<svg xmlns="http://www.w3.org/2000/svg" xmlns:svg="http://www.w3.org/2000/svg" width="24" height="24" viewBox="0 0 24 24" fill="currentColor" tags="arrow" categories="arrows">
  <path d="M 4 3 A 1 1 0 0 0 3 4 A 1 1 0 0 0 4 5 L 11 5 C 12.668695 5 14 6.3313045 14 8 L 14 17.585938 L 10.707031 14.292969 A 1 1 0 0 0 10 14 A 1 1 0 0 0 9.2929688 14.292969 A 1 1 0 0 0 9.2929688 15.707031 L 14.292969 20.707031 A 1.0001 1.0001 0 0 0 14.587891 20.904297 A 1 1 0 0 0 14.695312 20.939453 A 1.0001 1.0001 0 0 0 14.941406 20.988281 A 1 1 0 0 0 15 21 A 1 1 0 0 0 15.058594 20.988281 A 1.0001 1.0001 0 0 0 15.304688 20.939453 A 1 1 0 0 0 15.412109 20.904297 A 1.0001 1.0001 0 0 0 15.707031 20.707031 L 20.707031 15.707031 A 1 1 0 0 0 20.707031 14.292969 A 1 1 0 0 0 19.292969 14.292969 L 16 17.585938 L 16 8 C 16 5.2504263 13.749573 3 11 3 L 4 3 z "/>
</svg>
