<?xml version="1.0" encoding="UTF-8" standalone="no"?>
<svg xmlns="http://www.w3.org/2000/svg" xmlns:svg="http://www.w3.org/2000/svg" width="24" height="24" viewBox="0 0 24 24" fill="currentColor" tags="arrow" categories="arrows">
  <path d="M 9 3 A 1 1 0 0 0 8.9414062 3.0117188 A 1.0001 1.0001 0 0 0 8.6953125 3.0605469 A 1 1 0 0 0 8.5878906 3.0957031 A 1.0001 1.0001 0 0 0 8.2929688 3.2929688 L 3.2929688 8.2929688 A 1 1 0 0 0 3.2929688 9.7070312 A 1 1 0 0 0 4.7070312 9.7070312 L 8 6.4140625 L 8 16 C 8 18.749579 10.250421 21 13 21 L 20 21 A 1 1 0 0 0 21 20 A 1 1 0 0 0 20 19 L 13 19 C 11.331301 19 10 17.668699 10 16 L 10 6.4140625 L 13.292969 9.7070312 A 1 1 0 0 0 14.707031 9.7070312 A 1 1 0 0 0 14.707031 8.2929688 L 9.7070312 3.2929688 A 1 1 0 0 0 9.4609375 3.1152344 A 1.0001 1.0001 0 0 0 9.4414062 3.1054688 A 1 1 0 0 0 9.1640625 3.0136719 A 1 1 0 0 0 9.1503906 3.0117188 A 1 1 0 0 0 9 3 z "/>
</svg>
