<svg xmlns="http://www.w3.org/2000/svg" xmlns:svg="http://www.w3.org/2000/svg" width="24" height="24" viewBox="0 0 24 24" fill="currentColor" tags="arrow" categories="arrows">
  <path d="M 4 3 A 1 1 0 0 0 3 4 A 1 1 0 0 0 4 5 L 11 5 C 12.668699 5 14 6.3313011 14 8 L 14 17.585938 L 10.707031 14.292969 A 1 1 0 0 0 10 14 A 1 1 0 0 0 9.2929688 14.292969 A 1 1 0 0 0 9.2929688 15.707031 L 14.283203 20.697266 L 14.292969 20.707031 A 1.0001 1.0001 0 0 0 14.341797 20.75 A 1 1 0 0 0 14.384766 20.787109 A 1.0001 1.0001 0 0 0 14.439453 20.824219 A 1 1 0 0 0 14.492188 20.861328 A 1.0001 1.0001 0 0 0 14.5 20.865234 A 1 1 0 0 0 14.611328 20.921875 A 1.0001 1.0001 0 0 0 14.617188 20.923828 A 1 1 0 0 0 14.742188 20.964844 A 1 1 0 0 0 14.794922 20.976562 A 1.0001 1.0001 0 0 0 15 21 A 1.0001 1.0001 0 0 0 15.205078 20.976562 A 1.0001 1.0001 0 0 0 15.257812 20.964844 A 1 1 0 0 0 15.382812 20.923828 A 1.0001 1.0001 0 0 0 15.560547 20.824219 A 1 1 0 0 0 15.615234 20.787109 A 1.0001 1.0001 0 0 0 15.658203 20.75 A 1 1 0 0 0 15.716797 20.697266 L 20.707031 15.707031 A 1 1 0 0 0 20.707031 14.292969 A 1 1 0 0 0 19.292969 14.292969 L 16 17.585938 L 16 8 C 16 5.2504209 13.749579 3 11 3 L 4 3 z "/>
</svg>
