<?xml version="1.0" encoding="UTF-8" standalone="no"?>
<svg xmlns="http://www.w3.org/2000/svg" xmlns:svg="http://www.w3.org/2000/svg" width="24" height="24" viewBox="0 0 24 24" fill="currentColor" tags="arrow,return" categories="arrows">
  <path d="M 20 3 A 1 1 0 0 0 19 4 L 19 11 C 19 12.668699 17.668699 14 16 14 L 6.4140625 14 L 9.7070312 10.707031 A 1 1 0 0 0 9.7070312 9.2929688 A 1 1 0 0 0 9 9 A 1 1 0 0 0 8.2929688 9.2929688 L 3.2929688 14.292969 A 1.0001 1.0001 0 0 0 3.0957031 14.587891 A 1 1 0 0 0 3.0605469 14.695312 A 1.0001 1.0001 0 0 0 3.0117188 14.941406 A 1 1 0 0 0 3 15 A 1 1 0 0 0 3.0117188 15.058594 A 1.0001 1.0001 0 0 0 3.0605469 15.304688 A 1 1 0 0 0 3.0957031 15.412109 A 1.0001 1.0001 0 0 0 3.2929688 15.707031 L 8.2929688 20.707031 A 1 1 0 0 0 9.7070312 20.707031 A 1 1 0 0 0 9.7070312 19.292969 L 6.4140625 16 L 16 16 C 18.749579 16 21 13.749579 21 11 L 21 4 A 1 1 0 0 0 20 3 z "/>
</svg>
