<?xml version="1.0" encoding="UTF-8" standalone="no"?>
<svg xmlns="http://www.w3.org/2000/svg" xmlns:svg="http://www.w3.org/2000/svg" width="24" height="24" viewBox="0 0 24 24" fill="currentColor" tags="arrow,indent,tab" categories="arrows,text,development">
  
  <path d="M 4 3 A 1 1 0 0 0 3 4 L 3 11 C 3 13.749573 5.2504263 16 8 16 L 17.585938 16 L 14.292969 19.292969 A 1 1 0 0 0 14.292969 20.707031 A 1 1 0 0 0 15.707031 20.707031 L 20.707031 15.707031 A 1.0001 1.0001 0 0 0 20.917969 15.390625 A 1 1 0 0 0 20.925781 15.376953 A 1.0001 1.0001 0 0 0 20.998047 15.009766 A 1 1 0 0 0 21 15 A 1 1 0 0 0 20.998047 14.966797 A 1.0001 1.0001 0 0 0 20.994141 14.912109 A 1 1 0 0 0 20.990234 14.853516 A 1 1 0 0 0 20.988281 14.84375 A 1.0001 1.0001 0 0 0 20.980469 14.810547 A 1 1 0 0 0 20.941406 14.667969 A 1 1 0 0 0 20.933594 14.642578 A 1.0001 1.0001 0 0 0 20.929688 14.632812 A 1 1 0 0 0 20.908203 14.585938 A 1.0001 1.0001 0 0 0 20.875 14.521484 A 1.0001 1.0001 0 0 0 20.865234 14.5 A 1 1 0 0 0 20.853516 14.482422 A 1.0001 1.0001 0 0 0 20.810547 14.416016 A 1.0001 1.0001 0 0 0 20.792969 14.390625 A 1 1 0 0 0 20.777344 14.371094 A 1.0001 1.0001 0 0 0 20.707031 14.292969 L 15.707031 9.2929688 A 1 1 0 0 0 15 9 A 1 1 0 0 0 14.292969 9.2929688 A 1 1 0 0 0 14.292969 10.707031 L 17.585938 14 L 8 14 C 6.3313045 14 5 12.668695 5 11 L 5 4 A 1 1 0 0 0 4 3 z "/>
</svg>
