<svg xmlns="http://www.w3.org/2000/svg" xmlns:svg="http://www.w3.org/2000/svg" width="24" height="24" viewBox="0 0 24 24" fill="currentColor" tags="arrow" categories="arrows">
  <path d="M 9 3 A 1.0001 1.0001 0 0 0 8.7949219 3.0234375 A 1 1 0 0 0 8.7421875 3.0351562 A 1 1 0 0 0 8.6171875 3.0761719 A 1 1 0 0 0 8.6113281 3.078125 A 1.0001 1.0001 0 0 0 8.5 3.1347656 A 1 1 0 0 0 8.4394531 3.1757812 A 1.0001 1.0001 0 0 0 8.3847656 3.2128906 A 1 1 0 0 0 8.3417969 3.25 A 1.0001 1.0001 0 0 0 8.2929688 3.2929688 A 1 1 0 0 0 8.2832031 3.3027344 L 3.2929688 8.2929688 A 1 1 0 0 0 3.2929688 9.7070312 A 1 1 0 0 0 4.7070312 9.7070312 L 8 6.4140625 L 8 16 C 8 18.749579 10.250421 21 13 21 L 20 21 A 1 1 0 0 0 21 20 A 1 1 0 0 0 20 19 L 13 19 C 11.331301 19 10 17.668699 10 16 L 10 6.4140625 L 13.292969 9.7070312 A 1 1 0 0 0 14.707031 9.7070312 A 1 1 0 0 0 14.707031 8.2929688 L 9.7167969 3.3027344 A 1 1 0 0 0 9.6582031 3.25 A 1.0001 1.0001 0 0 0 9.6152344 3.2128906 A 1 1 0 0 0 9.5605469 3.1757812 A 1.0001 1.0001 0 0 0 9.3828125 3.0761719 A 1 1 0 0 0 9.2578125 3.0351562 A 1.0001 1.0001 0 0 0 9.2050781 3.0234375 A 1.0001 1.0001 0 0 0 9 3 z "/>
</svg>
