<?xml version="1.0" encoding="UTF-8" standalone="no"?>
<svg xmlns="http://www.w3.org/2000/svg" xmlns:svg="http://www.w3.org/2000/svg" width="24" height="24" viewBox="0 0 24 24" fill="currentColor" tags="arrow" categories="arrows">
  <path d="M 13 3 C 10.250427 3 8 5.2504263 8 8 L 8 17.585938 L 4.7070312 14.292969 A 1 1 0 0 0 4 14 A 1 1 0 0 0 3.2929688 14.292969 A 1 1 0 0 0 3.2929688 15.707031 L 8.2929688 20.707031 A 1.0001 1.0001 0 0 0 8.5878906 20.904297 A 1 1 0 0 0 8.6953125 20.939453 A 1.0001 1.0001 0 0 0 8.9414062 20.988281 A 1 1 0 0 0 9 21 A 1 1 0 0 0 9.0585938 20.988281 A 1.0001 1.0001 0 0 0 9.3046875 20.939453 A 1 1 0 0 0 9.4121094 20.904297 A 1.0001 1.0001 0 0 0 9.7070312 20.707031 L 14.707031 15.707031 A 1 1 0 0 0 14.707031 14.292969 A 1 1 0 0 0 13.292969 14.292969 L 10 17.585938 L 10 8 C 10 6.3313045 11.331305 5 13 5 L 20 5 A 1 1 0 0 0 21 4 A 1 1 0 0 0 20 3 L 13 3 z "/>
</svg>
