<svg xmlns="http://www.w3.org/2000/svg" xmlns:svg="http://www.w3.org/2000/svg" width="24" height="24" viewBox="0 0 24 24" fill="currentColor" tags="licence,license" categories="text">
  <path d="M 12 1 C 5.9367124 1 1 5.9367124 1 12 C 1 18.063288 5.9367124 23 12 23 C 18.063288 23 23 18.063288 23 12 C 23 5.9367124 18.063288 1 12 1 z M 12 3 C 16.982407 3 21 7.0175926 21 12 C 21 16.982407 16.982407 21 12 21 C 7.0175926 21 3 16.982407 3 12 C 3 7.0175926 7.0175926 3 12 3 z M 8.7695312 8.0488281 C 8.4372047 8.0551455 8.1086253 8.1045669 7.7910156 8.1953125 C 6.9440565 8.4373008 6.1806489 8.9708822 5.6660156 9.7480469 A 1.0001 1.0001 0 0 0 5.6640625 9.7519531 C 4.7721107 11.112073 4.7739252 12.876445 5.6621094 14.238281 C 6.6658259 15.845784 8.7465362 16.440376 10.445312 15.595703 A 1 1 0 0 0 10.894531 14.253906 A 1 1 0 0 0 9.5546875 13.804688 C 8.7598921 14.199879 7.8176083 13.931213 7.3515625 13.175781 A 1.0001 1.0001 0 0 0 7.3359375 13.152344 C 6.8767248 12.452099 6.8764109 11.552515 7.3339844 10.851562 L 7.3359375 10.851562 C 7.8295087 10.107649 8.7720646 9.8373112 9.5839844 10.208984 A 1 1 0 0 0 10.910156 9.7167969 A 1 1 0 0 0 10.416016 8.390625 C 9.8863089 8.1481406 9.3234089 8.0382992 8.7695312 8.0488281 z M 15.769531 8.0488281 C 15.437205 8.0551455 15.108625 8.1045669 14.791016 8.1953125 C 13.944057 8.4373008 13.180649 8.9708822 12.666016 9.7480469 A 1.0001 1.0001 0 0 0 12.664062 9.7519531 C 11.772111 11.112073 11.773974 12.876445 12.662109 14.238281 C 13.665826 15.845784 15.746537 16.440376 17.445312 15.595703 A 1 1 0 0 0 17.894531 14.253906 A 1 1 0 0 0 16.554688 13.804688 C 15.759892 14.199879 14.817608 13.931213 14.351562 13.175781 A 1.0001 1.0001 0 0 0 14.335938 13.152344 C 13.876724 12.452099 13.87646 11.552515 14.333984 10.851562 L 14.335938 10.851562 C 14.829515 10.10765 15.772065 9.8373112 16.583984 10.208984 A 1 1 0 0 0 17.910156 9.7167969 A 1 1 0 0 0 17.416016 8.390625 C 16.886309 8.1481406 16.323409 8.0382992 15.769531 8.0488281 z "/>
</svg>
