<?xml version="1.0" encoding="UTF-8" standalone="no"?>
<svg xmlns="http://www.w3.org/2000/svg" xmlns:svg="http://www.w3.org/2000/svg" width="24" height="24" viewBox="0 0 24 24" fill="currentColor" tags="bank,purchase,payment,cc" categories="account,finance">
  <path d="M 4 4 C 2.3552972 4 1 5.3552972 1 7 L 1 10 L 1 17 C 1 18.644703 2.3552972 20 4 20 L 20 20 C 21.644703 20 23 18.644703 23 17 L 23 10 L 23 7 C 23 5.3552972 21.644703 4 20 4 L 4 4 z M 4 6 L 20 6 C 20.571297 6 21 6.4287028 21 7 L 21 9 L 3 9 L 3 7 C 3 6.4287028 3.4287028 6 4 6 z M 3 11 L 21 11 L 21 17 C 21 17.571297 20.571297 18 20 18 L 4 18 C 3.4287028 18 3 17.571297 3 17 L 3 11 z "/>
</svg>
