<?xml version="1.0" encoding="UTF-8" standalone="no"?>
<svg xmlns="http://www.w3.org/2000/svg" xmlns:svg="http://www.w3.org/2000/svg" width="24" height="24" viewBox="0 0 24 24" fill="currentColor" tags="bakery,cooking,food,pastry" categories="food-beverage">
  <path d="M 6 1 C 4.6383333 1 3.5869908 1.878589 3.1015625 2.8769531 C 2.716565 3.6687647 2.5642847 4.5363262 2.5175781 5.3632812 C 2.3118014 5.4661875 2.1165678 5.5966541 1.9355469 5.7617188 C 1.2333114 6.4020551 1 7.3683333 1 8.5 A 1.0001 1.0001 0 0 0 1.0019531 8.546875 C 1.0870444 10.367326 1.739424 12.110007 2.8613281 13.533203 C 2.8163919 13.626104 2.7772906 13.721769 2.7441406 13.818359 C 2.5230478 14.46257 2.5529403 15.132562 2.7109375 15.759766 C 3.0269318 17.014173 3.8358043 18.18302 4.8261719 19.169922 C 5.8165394 20.156824 6.9877036 20.960744 8.2382812 21.279297 C 8.86357 21.438573 9.5309829 21.472201 10.173828 21.257812 C 10.273337 21.224626 10.371095 21.184442 10.466797 21.138672 C 11.889845 22.260186 13.633019 22.912972 15.453125 22.998047 A 1.0001 1.0001 0 0 0 15.5 23 C 16.631667 23 17.597945 22.766689 18.238281 22.064453 C 18.403346 21.883432 18.533812 21.688199 18.636719 21.482422 C 19.463674 21.435715 20.331235 21.283436 21.123047 20.898438 C 22.121411 20.413009 23 19.361667 23 18 C 23 17.257708 22.770641 16.575169 22.347656 16.087891 C 21.924672 15.600612 21.370441 15.33903 20.84375 15.195312 C 20.127397 14.999842 19.405656 14.979076 18.789062 14.986328 C 18.693209 14.767124 18.566485 14.567604 18.416016 14.398438 C 18.053541 13.99092 17.612017 13.757882 17.175781 13.578125 L 15.330078 12.771484 C 15.338861 12.434519 15.292049 12.10239 15.203125 11.792969 C 14.99603 11.072409 14.582838 10.440609 14.0625 9.9257812 C 13.542162 9.4109539 12.908241 9.0061923 12.191406 8.8027344 C 11.887208 8.7163943 11.56265 8.6712424 11.232422 8.6777344 L 10.425781 6.8300781 L 10.421875 6.8242188 C 10.242108 6.3879845 10.009079 5.9464595 9.6015625 5.5839844 C 9.4323954 5.4335147 9.2328759 5.3067915 9.0136719 5.2109375 C 9.0209241 4.5943436 9.0001576 3.8726033 8.8046875 3.15625 C 8.6609704 2.6295594 8.3993876 2.0753283 7.9121094 1.6523438 C 7.4248312 1.2293592 6.7422917 1 6 1 z M 6 3 C 6.3777083 3 6.5038407 3.0772814 6.6015625 3.1621094 C 6.6992843 3.2469373 6.7987171 3.4020813 6.875 3.6816406 C 6.9672783 4.0198196 6.9935607 4.4946412 7 5 L 4.5644531 5 C 4.6286069 4.5199887 4.7407303 4.0763043 4.8984375 3.7519531 C 5.1630092 3.2078173 5.3616667 3 6 3 z M 4.5 7 L 8 7 C 8.2 7 8.2078838 7.019817 8.2734375 7.078125 C 8.3389915 7.136433 8.4543233 7.2980985 8.5742188 7.5898438 A 1.0001 1.0001 0 0 0 8.5839844 7.609375 L 9.3398438 9.3398438 L 4.3085938 12.128906 C 3.5271081 11.071468 3.0713536 9.8035871 3.0039062 8.4804688 C 3.0087792 7.6431576 3.1647906 7.3462562 3.2832031 7.2382812 C 3.4034676 7.1286176 3.7424659 7 4.5 7 z M 11.314453 10.669922 C 11.414602 10.673399 11.524711 10.691998 11.646484 10.726562 C 11.971212 10.818732 12.350338 11.044984 12.65625 11.347656 C 12.962162 11.650329 13.189279 12.023727 13.28125 12.34375 C 13.37322 12.663773 13.352583 12.895904 13.226562 13.121094 A 1.0001 1.0001 0 0 0 13.224609 13.125 L 10.005859 18.933594 C 9.8486417 19.216378 9.7194594 19.301816 9.5410156 19.361328 C 9.3625719 19.42084 9.0910394 19.433146 8.7324219 19.341797 C 8.0151869 19.1591 7.0322106 18.547004 6.2363281 17.753906 C 5.4404457 16.960809 4.8297089 15.983327 4.6503906 15.271484 C 4.5607315 14.915563 4.5747256 14.649383 4.6367188 14.46875 C 4.6987119 14.288117 4.7904652 14.148785 5.0859375 13.984375 L 10.875 10.775391 A 1.0001 1.0001 0 0 0 10.875 10.773438 C 11.006809 10.70021 11.147538 10.664126 11.314453 10.669922 z M 14.660156 14.660156 L 16.390625 15.416016 A 1.0001 1.0001 0 0 0 16.410156 15.425781 C 16.701901 15.545677 16.863567 15.661008 16.921875 15.726562 C 16.980184 15.792081 17 15.8 17 16 L 17 19.5 C 17 20.257534 16.871382 20.596532 16.761719 20.716797 C 16.653744 20.835209 16.356842 20.991221 15.519531 20.996094 C 14.196702 20.928663 12.928391 20.474534 11.871094 19.693359 L 14.660156 14.660156 z M 19 17 C 19.505359 17.006438 19.980181 17.032719 20.318359 17.125 C 20.597919 17.20128 20.753063 17.300717 20.837891 17.398438 C 20.922719 17.496159 21 17.622292 21 18 C 21 18.638333 20.792183 18.836991 20.248047 19.101562 C 19.923696 19.25927 19.480011 19.371393 19 19.435547 L 19 17 z "/>
</svg>
