<?xml version="1.0" encoding="UTF-8" standalone="no"?>
<svg xmlns="http://www.w3.org/2000/svg" xmlns:svg="http://www.w3.org/2000/svg" width="24" height="24" viewBox="0 0 24 24" fill="currentColor" tags="bakery,cooking,food,pastry" categories="food-beverage">
  <path d="M 9.1699219 1.5175781 C 8.9414162 1.506984 8.7083763 1.5274073 8.4785156 1.5820312 A 1 1 0 0 0 8.4433594 1.6386719 A 1 1 0 0 0 8.3808594 1.609375 C 5.2093707 2.7138311 2.7138313 5.2093709 1.609375 8.3808594 A 1.0001 1.0001 0 0 0 1.5820312 8.4785156 C 1.3635794 9.3977734 1.6860197 10.35584 2.3886719 10.957031 C 1.8433364 13.036557 1.8662541 15.229044 2.4609375 17.304688 A 1.0001 1.0001 0 0 0 2.4863281 17.382812 C 2.7585065 18.104819 3.3473901 18.650202 4.0605469 18.880859 C 4.1944061 19.843652 4.5468714 20.719396 5.078125 21.427734 C 5.7675093 22.346913 6.8112795 23 8 23 C 9.6450096 23 11 21.64501 11 20 C 10.999542 18.694476 11.28311 17.407458 11.826172 16.228516 L 12.552734 16.630859 C 13.812738 17.327481 15.269132 16.984774 16.126953 16.126953 C 16.984774 15.269132 17.327481 13.812738 16.630859 12.552734 L 16.228516 11.826172 C 17.407316 11.282794 18.694237 10.999673 20 11 C 21.64501 11 23 9.6450096 23 8 C 23 6.8112795 22.346913 5.7675093 21.427734 5.078125 C 20.719397 4.5468717 19.843651 4.1944063 18.880859 4.0605469 C 18.650203 3.34739 18.104823 2.7585068 17.382812 2.4863281 A 1.0001 1.0001 0 0 0 17.304688 2.4609375 C 16.145045 2.1287557 14.948563 1.9757267 13.755859 2 C 12.813616 2.0191758 11.87448 2.1498933 10.957031 2.390625 C 10.506155 1.8634154 9.855439 1.5493605 9.1699219 1.5175781 z M 9.0449219 3.5332031 C 9.2190782 3.5264193 9.3854431 3.5966703 9.4804688 3.75 L 14.878906 13.521484 C 15.153454 14.018069 15.015762 14.406113 14.710938 14.710938 C 14.406113 15.015761 14.018069 15.153454 13.521484 14.878906 L 11.933594 14.001953 A 1 1 0 0 0 11.880859 13.972656 L 3.75 9.4804688 C 3.5747661 9.371868 3.508332 9.1710854 3.5410156 8.9707031 C 4.449168 6.4364444 6.4364444 4.449168 8.9707031 3.5410156 C 8.9957509 3.5369302 9.0200424 3.5341722 9.0449219 3.5332031 z M 14.357422 4.0097656 C 15.142256 4.039609 15.924979 4.1614325 16.689453 4.375 C 16.868719 4.4518018 16.99323 4.6118277 17 4.8085938 L 17 9.4160156 C 16.403764 9.5849854 15.821182 9.8042898 15.259766 10.072266 L 12.013672 4.1972656 C 12.786188 4.041773 13.572588 3.9799222 14.357422 4.0097656 z M 19 6.1191406 C 19.484555 6.2376302 19.906546 6.4362577 20.228516 6.6777344 C 20.757052 7.0741365 21 7.5318663 21 8 C 21 8.5641294 20.564129 9 20 9 C 19.665276 8.9999162 19.331614 9.0147056 19 9.0449219 L 19 6.1191406 z M 4.1972656 12.013672 L 10.072266 15.259766 C 9.8043822 15.821283 9.5848942 16.403621 9.4160156 17 L 4.8085938 17 C 4.6118277 16.99323 4.4518018 16.868719 4.375 16.689453 C 3.9477098 15.160241 3.8861671 13.558746 4.1972656 12.013672 z M 6.1191406 19 L 9.0449219 19 C 9.014743 19.331634 8.9998828 19.665299 9 20 C 9 20.564129 8.5641294 21 8 21 C 7.5318663 21 7.0741365 20.757052 6.6777344 20.228516 C 6.4362577 19.906546 6.2376302 19.484555 6.1191406 19 z "/>
</svg>
