<svg xmlns="http://www.w3.org/2000/svg" xmlns:svg="http://www.w3.org/2000/svg" width="24" height="24" viewBox="0 0 24 24" fill="currentColor" tags="photo,image" categories="photography,design">
  <path d="M 6 1 A 1 1 0 0 0 5 2 L 5 5 L 2 5 A 1 1 0 0 0 1 6 A 1 1 0 0 0 2 7 L 5 7 L 5 16 C 5 17.64501 6.3549904 19 8 19 L 17 19 L 17 22 A 1 1 0 0 0 18 23 A 1 1 0 0 0 19 22 L 19 19 L 22 19 A 1 1 0 0 0 23 18 A 1 1 0 0 0 22 17 L 19 17 L 19 8 C 19 6.3549904 17.64501 5 16 5 L 7 5 L 7 2 A 1 1 0 0 0 6 1 z M 7 7 L 16 7 C 16.564129 7 17 7.4358706 17 8 L 17 17 L 8 17 C 7.4358706 17 7 16.564129 7 16 L 7 7 z "/>
</svg>
