<?xml version="1.0" encoding="UTF-8" standalone="no"?>
<svg xmlns="http://www.w3.org/2000/svg" xmlns:svg="http://www.w3.org/2000/svg" width="24" height="24" viewBox="0 0 24 24" fill="currentColor" tags="aim,target" categories="photography">
  <path d="M 12 1 C 5.9367124 1 1 5.9367124 1 12 C 1 18.063288 5.9367124 23 12 23 C 18.063288 23 23 18.063288 23 12 A 1 1 0 0 0 22.998047 11.925781 C 22.957872 5.9215706 18.07843 1.0421278 12.074219 1.0019531 A 1 1 0 0 0 12 1 z M 11 3.0566406 L 11 6 A 1 1 0 0 0 12 7 A 1 1 0 0 0 13 6 L 13 3.0566406 C 17.180276 3.5160356 20.483964 6.8197233 20.943359 11 L 18 11 A 1 1 0 0 0 17 12 A 1 1 0 0 0 18 13 L 20.943359 13 C 20.483964 17.180276 17.180276 20.483964 13 20.943359 L 13 18 A 1 1 0 0 0 12 17 A 1 1 0 0 0 11 18 L 11 20.943359 C 6.8197233 20.483964 3.5160356 17.180276 3.0566406 13 L 6 13 A 1 1 0 0 0 7 12 A 1 1 0 0 0 6 11 L 3.0566406 11 C 3.5160356 6.8197233 6.8197233 3.5160356 11 3.0566406 z "/>
</svg>
