<svg xmlns="http://www.w3.org/2000/svg" xmlns:svg="http://www.w3.org/2000/svg" width="24" height="24" viewBox="0 0 24 24" fill="currentColor" tags="aim,target" categories="photography">
  <path d="M 12 1 C 5.9367124 1 1 5.9367124 1 12 C 1 18.063288 5.9367124 23 12 23 C 18.063288 23 23 18.063288 23 12 C 23 5.9367124 18.063288 1 12 1 z M 11 3.0546875 L 11 6 A 1 1 0 0 0 12 7 A 1 1 0 0 0 13 6 L 13 3.0546875 C 17.180901 3.5137879 20.486212 6.8190991 20.945312 11 L 18 11 A 1 1 0 0 0 17 12 A 1 1 0 0 0 18 13 L 20.945312 13 C 20.486212 17.180901 17.180901 20.486212 13 20.945312 L 13 18 A 1 1 0 0 0 12 17 A 1 1 0 0 0 11 18 L 11 20.945312 C 6.8190991 20.486212 3.5137879 17.180901 3.0546875 13 L 6 13 A 1 1 0 0 0 7 12 A 1 1 0 0 0 6 11 L 3.0546875 11 C 3.5137878 6.8190991 6.8190991 3.5137878 11 3.0546875 z "/>
</svg>
