<svg xmlns="http://www.w3.org/2000/svg" xmlns:svg="http://www.w3.org/2000/svg" width="24" height="24" viewBox="0 0 24 24" fill="currentColor" tags="healthcare,first aid" categories="shapes">
  <path d="M 11 1 C 9.3549904 1 8 2.3549904 8 4 L 8 8 L 4 8 C 2.3549904 8 1 9.3549904 1 11 L 1 13 C 1 14.64501 2.3549904 16 4 16 L 8 16 L 8 20 C 8 21.64501 9.3549904 23 11 23 L 13 23 C 14.64501 23 16 21.64501 16 20 L 16 16 L 20 16 C 21.64501 16 23 14.64501 23 13 L 23 11 C 23 9.3549904 21.64501 8 20 8 L 16 8 L 16 4 C 16 2.3549904 14.64501 1 13 1 L 11 1 z M 11 3 L 13 3 C 13.564129 3 14 3.4358706 14 4 L 14 8 C 14 9.0927249 14.907275 10 16 10 L 20 10 C 20.564129 10 21 10.435871 21 11 L 21 13 C 21 13.564129 20.564129 14 20 14 L 16 14 C 14.907275 14 14 14.907275 14 16 L 14 20 C 14 20.564129 13.564129 21 13 21 L 11 21 C 10.435871 21 10 20.564129 10 20 L 10 16 C 10 14.907275 9.0927249 14 8 14 L 4 14 C 3.4358706 14 3 13.564129 3 13 L 3 11 C 3 10.435871 3.4358706 10 4 10 L 8 10 C 9.0927249 10 10 9.0927249 10 8 L 10 4 C 10 3.4358706 10.435871 3 11 3 z "/>
</svg>
