<svg xmlns="http://www.w3.org/2000/svg" xmlns:svg="http://www.w3.org/2000/svg" width="24" height="24" viewBox="0 0 24 24" fill="currentColor" tags="diadem,tiara,circlet,corona,king,ruler,winner,favourite" categories="gaming">
  <path d="M 12 2.0410156 C 11.47915 2.0410156 10.957846 2.2886378 10.685547 2.7832031 A 1.0001 1.0001 0 0 0 10.677734 2.8007812 L 7.7304688 8.3945312 L 3.46875 4.7421875 A 1.0001 1.0001 0 0 0 3.4492188 4.7246094 C 2.9292318 4.3016794 2.1756666 4.3120973 1.6855469 4.6308594 C 1.1954271 4.9496215 0.87893854 5.6344359 1.0546875 6.28125 A 1.0001 1.0001 0 0 0 1.0566406 6.2871094 L 3.8886719 16.53125 C 4.1253757 17.389139 4.9128105 17.991835 5.8027344 17.998047 A 1.0001 1.0001 0 0 0 5.8105469 17.998047 L 18.191406 17.998047 A 1.0001 1.0001 0 0 0 18.199219 17.998047 C 19.088416 17.990947 19.874822 17.388447 20.111328 16.53125 L 22.945312 6.2851562 A 1.0001 1.0001 0 0 0 22.945312 6.28125 C 23.121061 5.6344359 22.806526 4.9496215 22.316406 4.6308594 C 21.826286 4.3120973 21.072721 4.3016794 20.552734 4.7246094 A 1.0001 1.0001 0 0 0 20.533203 4.7402344 L 16.269531 8.3925781 L 13.322266 2.8007812 A 1.0001 1.0001 0 0 0 13.314453 2.7832031 C 13.042141 2.2886376 12.52085 2.0410156 12 2.0410156 z M 12 4.5820312 L 14.505859 9.3359375 A 1.0001 1.0001 0 0 0 14.511719 9.3476562 C 15.102082 10.43588 16.588619 10.724202 17.542969 9.9355469 A 1.0001 1.0001 0 0 0 17.556641 9.9238281 L 20.580078 7.3339844 L 18.183594 15.998047 L 5.8164062 15.998047 L 3.421875 7.3339844 L 6.4433594 9.9238281 A 1.0001 1.0001 0 0 0 6.4570312 9.9355469 C 7.4113805 10.724202 8.8979175 10.43588 9.4882812 9.3476562 A 1.0001 1.0001 0 0 0 9.4941406 9.3378906 L 12 4.5820312 z M 5 20 A 1 1 0 0 0 4 21 A 1 1 0 0 0 5 22 L 19 22 A 1 1 0 0 0 20 21 A 1 1 0 0 0 19 20 L 5 20 z "/>
</svg>
