<?xml version="1.0" encoding="UTF-8" standalone="no"?>
<svg xmlns="http://www.w3.org/2000/svg" xmlns:svg="http://www.w3.org/2000/svg" width="24" height="24" viewBox="0 0 24 24" fill="currentColor" tags="brick,block,container,storage,geometry,rectangular,hexahedron" categories="shapes,maths,buildings">
  <path d="M 14.015625 0.99609375 C 13.449005 0.98303798 12.878567 1.1295825 12.376953 1.4375 L 2.4257812 7.5585938 C 1.5422642 8.1035879 1.0011446 9.0712905 1 10.109375 L 1 15.929688 C 0.99914756 16.925691 1.4950624 17.860162 2.3203125 18.417969 A 1.0001 1.0001 0 0 0 2.3222656 18.419922 L 8.3671875 22.486328 C 9.3409849 23.147716 10.61982 23.178337 11.623047 22.5625 L 21.574219 16.441406 C 22.457739 15.896368 22.998855 14.92871 23 13.890625 L 23 8.0605469 C 23.000702 7.5946046 22.889059 7.1446753 22.689453 6.7382812 C 22.688549 6.7364412 22.688408 6.73426 22.6875 6.7324219 A 1 1 0 0 0 22.681641 6.7207031 C 22.665607 6.6885803 22.649987 6.6565265 22.632812 6.625 C 22.406335 6.2092586 22.083361 5.8451181 21.679688 5.5722656 A 1.0001 1.0001 0 0 0 21.677734 5.5703125 L 15.632812 1.5136719 C 15.145913 1.1829776 14.582245 1.0091495 14.015625 0.99609375 z M 13.96875 2.9941406 C 14.156665 2.998574 14.344124 3.0567941 14.507812 3.1679688 A 1.0001 1.0001 0 0 0 14.513672 3.1699219 L 20.121094 6.9335938 L 10.019531 12.832031 L 3.8984375 9.0019531 L 13.423828 3.1425781 C 13.592463 3.0390608 13.780835 2.9897072 13.96875 2.9941406 z M 21 8.7382812 L 21 13.890625 C 20.999 14.237793 20.82095 14.555966 20.525391 14.738281 L 11 20.597656 L 11 14.574219 L 21 8.7382812 z M 3 10.800781 L 9 14.554688 L 9 20.501953 L 3.4394531 16.761719 L 3.4375 16.759766 C 3.1623844 16.572696 2.9994986 16.264469 3 15.931641 A 1.0001 1.0001 0 0 0 3 15.929688 L 3 10.800781 z "/>
</svg>
