<svg xmlns="http://www.w3.org/2000/svg" xmlns:svg="http://www.w3.org/2000/svg" width="24" height="24" viewBox="0 0 24 24" fill="currentColor" tags="brick,block,container,storage,geometry,rectangular,hexahedron" categories="shapes,math,buildings">
  <path d="M 14.015625 0.99609375 C 13.449004 0.98303796 12.878567 1.1295819 12.376953 1.4375 L 2.4257812 7.5585938 C 1.9651878 7.8427091 1.6019607 8.2430739 1.3554688 8.7070312 A 1 1 0 0 0 1.3339844 8.7519531 C 1.1221986 9.1669404 1.0005291 9.6295034 1 10.109375 L 1 15.929688 C 0.99914756 16.925693 1.4950608 17.860161 2.3203125 18.417969 A 1.0001 1.0001 0 0 0 2.3222656 18.419922 L 8.3671875 22.486328 C 9.3409869 23.147718 10.619818 23.178338 11.623047 22.5625 L 21.574219 16.441406 C 22.45774 15.896366 22.998855 14.928712 23 13.890625 L 23 8.0605469 C 23.000699 7.5961028 22.889783 7.1475671 22.691406 6.7421875 A 1 1 0 0 0 22.691406 6.7402344 C 22.6724 6.7014539 22.653471 6.6629224 22.632812 6.625 C 22.406336 6.2092584 22.083362 5.8451186 21.679688 5.5722656 A 1.0001 1.0001 0 0 0 21.677734 5.5703125 L 15.632812 1.5136719 C 15.145912 1.182977 14.582246 1.0091495 14.015625 0.99609375 z M 13.96875 2.9941406 C 14.156665 2.998574 14.344124 3.0567939 14.507812 3.1679688 A 1.0001 1.0001 0 0 0 14.513672 3.1699219 L 20.121094 6.9335938 L 10.019531 12.832031 L 3.8984375 9.0019531 L 13.423828 3.1425781 C 13.592464 3.0390606 13.780835 2.9897072 13.96875 2.9941406 z M 21 8.7382812 L 21 13.890625 C 20.999 14.237793 20.820952 14.555966 20.525391 14.738281 L 11 20.597656 L 11 14.574219 L 21 8.7382812 z M 3 10.800781 L 9 14.554688 L 9 20.501953 L 3.4394531 16.761719 L 3.4375 16.759766 C 3.1623838 16.572696 2.9994985 16.26447 3 15.931641 A 1.0001 1.0001 0 0 0 3 15.929688 L 3 10.800781 z "/>
</svg>
