<?xml version="1.0" encoding="UTF-8" standalone="no"?>
<svg xmlns="http://www.w3.org/2000/svg" xmlns:svg="http://www.w3.org/2000/svg" width="24" height="24" viewBox="0 0 24 24" fill="currentColor" tags="beverage,cup,drink,soda,straw,water" categories="food-beverage">
  <path d="M 13 1 A 1.0001 1.0001 0 0 0 12.013672 1.8359375 L 11.152344 7 L 5 7 A 1 1 0 0 0 4 8 A 1 1 0 0 0 5 9 L 5.1328125 9 L 6.7597656 20.421875 C 6.9702231 21.90436 8.2623138 23.014738 9.7597656 23 L 14.279297 23 C 15.777355 23.01474 17.069631 21.903308 17.279297 20.419922 A 1.0001 1.0001 0 0 0 17.28125 20.417969 L 18.871094 9 L 19 9 A 1 1 0 0 0 20 8 A 1 1 0 0 0 19 7 L 13.179688 7 L 13.847656 3 L 15 3 A 1 1 0 0 0 16 2 A 1 1 0 0 0 15 1 L 13 1 z M 7.1523438 9 L 16.851562 9 L 16.119141 14.257812 C 14.897881 14.636318 13.576502 14.576569 12.386719 14.078125 C 11.463647 13.691416 10.481661 13.498047 9.5 13.498047 C 8.9362045 13.498047 8.3730993 13.563845 7.8203125 13.691406 L 7.1523438 9 z M 9.5 15.496094 C 10.218513 15.496094 10.937028 15.638568 11.613281 15.921875 C 12.952558 16.482947 14.415078 16.635795 15.822266 16.382812 L 15.298828 20.142578 C 15.22633 20.645766 14.809492 21.005007 14.300781 21 A 1.0001 1.0001 0 0 0 14.289062 21 L 9.75 21 A 1.0001 1.0001 0 0 0 9.7402344 21 C 9.2305689 21.005 8.8115663 20.645298 8.7402344 20.140625 A 1.0001 1.0001 0 0 0 8.7402344 20.138672 L 8.1035156 15.679688 C 8.5614491 15.558598 9.030258 15.496094 9.5 15.496094 z "/>
</svg>
