<?xml version="1.0" encoding="UTF-8" standalone="no"?>
<svg xmlns="http://www.w3.org/2000/svg" xmlns:svg="http://www.w3.org/2000/svg" width="24" height="24" viewBox="0 0 24 24" fill="currentColor" tags="finance,money" categories="finance">
  <path d="M 3 2 A 1 1 0 0 0 2.2929688 2.2929688 A 1 1 0 0 0 2.2929688 3.7070312 L 4.9726562 6.3867188 C 3.7390983 7.9273303 3 9.8796904 3 12 C 3 14.12031 3.7390982 16.07267 4.9726562 17.613281 L 2.2929688 20.292969 A 1 1 0 0 0 2.2929688 21.707031 A 1 1 0 0 0 3.7070312 21.707031 L 6.3867188 19.027344 C 7.9273303 20.260902 9.8796904 21 12 21 C 14.12031 21 16.07267 20.260902 17.613281 19.027344 L 20.292969 21.707031 A 1 1 0 0 0 21.707031 21.707031 A 1 1 0 0 0 21.707031 20.292969 L 19.027344 17.613281 C 20.260902 16.07267 21 14.12031 21 12 C 21 9.8796904 20.260902 7.9273303 19.027344 6.3867188 L 21.707031 3.7070312 A 1 1 0 0 0 21.707031 2.2929688 A 1 1 0 0 0 20.292969 2.2929688 L 17.613281 4.9726562 C 16.07267 3.7390982 14.12031 3 12 3 C 9.8796904 3 7.9273303 3.7390983 6.3867188 4.9726562 L 3.7070312 2.2929688 A 1 1 0 0 0 3 2 z M 12 5 C 15.877838 5 19 8.1221621 19 12 C 19 15.877838 15.877838 19 12 19 C 8.1221621 19 5 15.877838 5 12 C 5 8.1221621 8.1221621 5 12 5 z "/>
</svg>
