<svg xmlns="http://www.w3.org/2000/svg" xmlns:svg="http://www.w3.org/2000/svg" width="24" height="24" viewBox="0 0 24 24" fill="currentColor" tags="shape,elliptical,geometry,container,storage,tin,pot" categories="shapes,design,math">
  <path d="M 12 1 C 9.4246453 1 7.0937563 1.3385396 5.3203125 1.9296875 C 4.4335906 2.2252615 3.682419 2.578334 3.0878906 3.046875 C 2.5285826 3.4876592 2.0634623 4.1037888 2.0097656 4.8574219 A 1 1 0 0 0 2 5 L 2 19 C 2 19.875 2.5236183 20.616488 3.1679688 21.107422 C 3.8123191 21.598355 4.6130023 21.93749 5.5292969 22.208984 C 7.3618861 22.751974 9.675926 23 12 23 C 14.324074 23 16.638114 22.751974 18.470703 22.208984 C 19.386998 21.93749 20.187681 21.598355 20.832031 21.107422 C 21.476382 20.616488 22 19.875 22 19 L 22 5 A 1 1 0 0 0 21.990234 4.8574219 C 21.936538 4.1037888 21.471418 3.4876592 20.912109 3.046875 C 20.317581 2.578334 19.566409 2.2252615 18.679688 1.9296875 C 16.906244 1.3385396 14.575355 1 12 1 z M 12 3 C 14.395208 3 16.56296 3.3334865 18.046875 3.828125 C 18.788833 4.0754442 19.357507 4.3678984 19.673828 4.6171875 C 19.970379 4.850896 19.997759 4.9741677 20 4.9960938 C 20.000149 4.9975555 20 4.9994448 20 5 L 20 5.0039062 C 19.997754 5.0258298 19.970333 5.149104 19.673828 5.3828125 C 19.357507 5.6321016 18.788833 5.9245558 18.046875 6.171875 C 16.56296 6.6665135 14.395208 7 12 7 C 9.604792 7 7.4370405 6.6665135 5.953125 6.171875 C 5.2111673 5.9245558 4.642493 5.6321016 4.3261719 5.3828125 C 4.0296208 5.149104 4.0022406 5.0258323 4 5.0039062 C 3.9998506 5.0024445 4 5.0005552 4 5 A 1 1 0 0 0 4 4.9960938 C 4.0022406 4.9741677 4.0296208 4.850896 4.3261719 4.6171875 C 4.642493 4.3678984 5.2111673 4.0754442 5.953125 3.828125 C 7.4370405 3.3334865 9.604792 3 12 3 z M 4 7.5292969 C 4.3979498 7.7327929 4.8391771 7.909934 5.3203125 8.0703125 C 7.0937563 8.6614604 9.4246453 9 12 9 C 14.575355 9 16.906244 8.6614604 18.679688 8.0703125 C 19.160823 7.909934 19.60205 7.7327929 20 7.5292969 L 20 19 C 20 19.125 19.96112 19.258512 19.621094 19.517578 C 19.281069 19.776644 18.675502 20.06251 17.904297 20.291016 C 16.361886 20.748026 14.175926 21 12 21 C 9.824074 21 7.6381139 20.748026 6.0957031 20.291016 C 5.3244977 20.06251 4.7189308 19.776644 4.3789062 19.517578 C 4.0388817 19.258512 4 19.125 4 19 L 4 7.5292969 z "/>
</svg>
