<?xml version="1.0" encoding="UTF-8" standalone="no"?>
<svg xmlns="http://www.w3.org/2000/svg" xmlns:svg="http://www.w3.org/2000/svg" width="24" height="24" viewBox="0 0 24 24" fill="currentColor" tags="electricity,energy,water" categories="buildings,sustainability">
  <path d="M 7 2 C 5.9072773 2 5 2.9072773 5 4 L 5 5 L 2 5 A 1 1 0 0 0 1 6 A 1 1 0 0 0 2 7 L 5 7 L 5 9 L 2 9 A 1 1 0 0 0 1 10 A 1 1 0 0 0 2 11 L 5 11 L 5 13 L 2 13 A 1 1 0 0 0 1 14 A 1 1 0 0 0 2 15 L 5 15 L 5 17 L 2 17 A 1 1 0 0 0 1 18 A 1 1 0 0 0 2 19 L 5 19 L 5 20 C 5 21.092723 5.9072773 22 7 22 L 11 22 C 12.092723 22 13 21.092723 13 20 A 1.0001 1.0001 0 0 0 12.992188 19.875 L 12.984375 19.804688 C 13.448319 19.927314 13.957321 20 14.5 20 C 16.016663 20 17.000002 19.28125 17.625 18.78125 C 18.249998 18.28125 18.516669 18 19.5 18 C 20.543588 18 20.759377 18.26758 21.359375 18.767578 A 1 1 0 0 0 22.767578 18.640625 A 1 1 0 0 0 22.640625 17.232422 C 22.040627 16.732422 21.056407 16 19.5 16 C 17.983337 16 16.999998 16.71875 16.375 17.21875 C 15.750002 17.71875 15.483331 18 14.5 18 C 13.978207 18 13.490219 17.89587 13.130859 17.755859 C 12.94204 17.682293 12.79506 17.590771 12.697266 17.521484 L 12.179688 13.378906 C 12.749812 13.720366 13.519641 14 14.5 14 C 16.016663 14 17.000002 13.281249 17.625 12.78125 C 18.249998 12.281251 18.516669 12 19.5 12 C 20.543588 12 20.759377 12.26758 21.359375 12.767578 A 1 1 0 0 0 22.767578 12.640625 A 1 1 0 0 0 22.640625 11.232422 C 22.040627 10.732422 21.056407 10 19.5 10 C 17.983337 10 16.999998 10.718751 16.375 11.21875 C 15.750002 11.718749 15.483331 12 14.5 12 C 13.712179 12 13.423443 11.833885 13.042969 11.556641 C 12.734103 11.331576 12.379161 10.962635 11.837891 10.630859 L 10.996094 3.8984375 C 10.941868 2.8517521 10.058591 2 9 2 L 7 2 z M 7 4 L 9 4 A 1.0001 1.0001 0 0 0 9.0078125 4.125 L 10.992188 20 L 7 20 L 7 18 L 7 14 L 7 10 L 7 6 L 7 4 z "/>
</svg>
