<?xml version="1.0" encoding="UTF-8" standalone="no"?>
<svg xmlns="http://www.w3.org/2000/svg" xmlns:svg="http://www.w3.org/2000/svg" width="24" height="24" viewBox="0 0 24 24" fill="currentColor" tags="electricity,energy,water" categories="buildings,sustainability">
  <path d="M 7 2 C 5.9072751 2 5 2.9072751 5 4 L 5 5 L 2 5 A 1 1 0 0 0 1 6 A 1 1 0 0 0 2 7 L 5 7 L 5 9 L 2 9 A 1 1 0 0 0 1 10 A 1 1 0 0 0 2 11 L 5 11 L 5 13 L 2 13 A 1 1 0 0 0 1 14 A 1 1 0 0 0 2 15 L 5 15 L 5 17 L 2 17 A 1 1 0 0 0 1 18 A 1 1 0 0 0 2 19 L 5 19 L 5 20 C 5 21.092725 5.9072751 22 7 22 L 11 22 C 12.092725 22 13 21.092725 13 20 A 1.0001 1.0001 0 0 0 12.992188 19.875 L 12.984375 19.806641 C 13.448061 19.92911 13.957697 20 14.5 20 C 16.016667 20 17 19.28125 17.625 18.78125 C 18.25 18.28125 18.516667 18 19.5 18 C 20.54359 18 20.759375 18.267578 21.359375 18.767578 A 1 1 0 0 0 22.767578 18.640625 A 1 1 0 0 0 22.640625 17.232422 C 22.040625 16.732422 21.05641 16 19.5 16 C 17.983333 16 17 16.71875 16.375 17.21875 C 15.75 17.71875 15.483333 18 14.5 18 C 13.978205 18 13.490219 17.89587 13.130859 17.755859 C 12.944791 17.683365 12.795146 17.590469 12.697266 17.521484 L 12.179688 13.382812 C 12.749428 13.723189 13.521913 14 14.5 14 C 16.016667 14 17 13.28125 17.625 12.78125 C 18.25 12.28125 18.516667 12 19.5 12 C 20.54359 12 20.759375 12.267578 21.359375 12.767578 A 1 1 0 0 0 22.767578 12.640625 A 1 1 0 0 0 22.640625 11.232422 C 22.040625 10.732422 21.05641 10 19.5 10 C 17.983333 10 17 10.71875 16.375 11.21875 C 15.75 11.71875 15.483333 12 14.5 12 C 13.712177 12 13.423444 11.833886 13.042969 11.556641 C 12.733338 11.331018 12.379489 10.961318 11.835938 10.628906 L 10.998047 3.9257812 C 10.958429 2.8662148 10.068096 2 9 2 L 7 2 z M 7 4 L 9 4 A 1.0001 1.0001 0 0 0 9.0078125 4.125 L 10.753906 18.087891 L 10.992188 20 L 7 20 L 7 18 L 7 14 L 7 10 L 7 6 L 7 4 z "/>
</svg>
