<?xml version="1.0" encoding="UTF-8" standalone="no"?>
<svg xmlns="http://www.w3.org/2000/svg" xmlns:svg="http://www.w3.org/2000/svg" width="24" height="24" viewBox="0 0 24 24" fill="currentColor" tags="storage,memory,container,tin,pot,bytes,servers" categories="devices,development">
  <path d="M 12 1 C 9.4246453 1 7.0937563 1.3385396 5.3203125 1.9296875 C 4.4335906 2.2252615 3.682419 2.578334 3.0878906 3.046875 C 2.4933622 3.515416 2 4.1804564 2 5 L 2 12 L 2 19 C 2 19.875 2.5236183 20.616488 3.1679688 21.107422 C 3.8123191 21.598355 4.6130023 21.93749 5.5292969 22.208984 C 7.3618861 22.751974 9.675926 23 12 23 C 14.324074 23 16.638114 22.751974 18.470703 22.208984 C 19.386998 21.93749 20.187681 21.598355 20.832031 21.107422 C 21.476382 20.616488 22 19.875 22 19 L 22 12 L 22 5 C 22 4.1804564 21.506638 3.515416 20.912109 3.046875 C 20.317581 2.578334 19.566409 2.2252615 18.679688 1.9296875 C 16.906244 1.3385396 14.575355 1 12 1 z M 12 3 C 14.395208 3 16.56296 3.3334865 18.046875 3.828125 C 18.788833 4.0754442 19.357507 4.3678984 19.673828 4.6171875 C 19.990149 4.8664766 20 4.9911165 20 5 C 20 5.00888 19.9901 5.1335234 19.673828 5.3828125 C 19.357507 5.6321016 18.788833 5.9245558 18.046875 6.171875 C 16.56296 6.6665135 14.395208 7 12 7 C 9.604792 7 7.4370405 6.6665135 5.953125 6.171875 C 5.2111673 5.9245558 4.642493 5.6321016 4.3261719 5.3828125 C 4.0098507 5.1335234 4 5.0088835 4 5 C 4 4.9911165 4.0098507 4.8664766 4.3261719 4.6171875 C 4.642493 4.3678984 5.2111673 4.0754442 5.953125 3.828125 C 7.4370405 3.3334865 9.604792 3 12 3 z M 4 7.5273438 C 4.3983029 7.7311301 4.8386313 7.9097521 5.3203125 8.0703125 C 7.0937563 8.6614604 9.4246453 9 12 9 C 14.575355 9 16.906244 8.6614604 18.679688 8.0703125 C 19.161369 7.9097521 19.601697 7.7311301 20 7.5273438 L 20 12 C 20 12.125 19.96112 12.258512 19.621094 12.517578 C 19.281069 12.776644 18.675502 13.06251 17.904297 13.291016 C 16.361886 13.748026 14.175926 14 12 14 C 9.824074 14 7.6381139 13.748026 6.0957031 13.291016 C 5.3244977 13.06251 4.7189308 12.776644 4.3789062 12.517578 C 4.0388817 12.258512 4 12.125 4 12 L 4 7.5273438 z M 4 14.621094 C 4.4614881 14.854197 4.973729 15.044372 5.5292969 15.208984 C 7.3618861 15.751974 9.675926 16 12 16 C 14.324074 16 16.638114 15.751974 18.470703 15.208984 C 19.026271 15.044372 19.538512 14.854197 20 14.621094 L 20 19 C 20 19.125 19.96112 19.258512 19.621094 19.517578 C 19.281069 19.776644 18.675502 20.06251 17.904297 20.291016 C 16.361886 20.748026 14.175926 21 12 21 C 9.824074 21 7.6381139 20.748026 6.0957031 20.291016 C 5.3244977 20.06251 4.7189308 19.776644 4.3789062 19.517578 C 4.0388817 19.258512 4 19.125 4 19 L 4 14.621094 z "/>
</svg>
