<?xml version="1.0" encoding="UTF-8" standalone="no"?>
<svg xmlns="http://www.w3.org/2000/svg" xmlns:svg="http://www.w3.org/2000/svg" width="24" height="24" viewBox="0 0 24 24" fill="currentColor" tags="cache busting,storage,memory,bytes,servers,power,crash" categories="devices,development">
  <path d="M 12 1 C 9.4246453 1 7.0937563 1.3385396 5.3203125 1.9296875 C 4.4335906 2.2252615 3.682419 2.578334 3.0878906 3.046875 C 2.4933622 3.515416 2 4.1804564 2 5 L 2 12.003906 L 2 18.988281 C 1.988254 20.00257 2.6954671 20.753759 3.5078125 21.263672 C 4.3201579 21.773585 5.3535565 22.146448 6.5585938 22.431641 C 8.9686684 23.002025 12.060709 23.194203 15.117188 22.833984 A 1 1 0 0 0 15.992188 21.722656 A 1 1 0 0 0 14.882812 20.847656 C 12.069022 21.179273 9.1478981 20.988088 7.0195312 20.484375 C 5.9553478 20.232518 5.0884842 19.895571 4.5703125 19.570312 C 4.0521408 19.245054 3.9997286 19.035152 4 19.011719 A 1.0001 1.0001 0 0 0 4 19.009766 A 1.0001 1.0001 0 0 0 4 19.007812 A 1.0001 1.0001 0 0 0 4 19.005859 A 1.0001 1.0001 0 0 0 4 19.003906 A 1.0001 1.0001 0 0 0 4 19.001953 A 1.0001 1.0001 0 0 0 4 19 L 4 14.525391 C 4.6819381 14.874837 5.4855767 15.150402 6.3925781 15.375 C 8.7085114 15.948488 11.688625 16.165807 14.689453 15.865234 A 1 1 0 0 0 15.585938 14.769531 A 1 1 0 0 0 14.490234 13.875 C 11.719424 14.152533 8.9076517 13.937417 6.8730469 13.433594 C 5.8557444 13.181682 5.0336552 12.850266 4.5429688 12.535156 C 4.0522824 12.220046 4.000063 12.016474 4 11.996094 L 4 7.5273438 C 4.3983029 7.7311301 4.8386313 7.9097521 5.3203125 8.0703125 C 7.0937563 8.6614604 9.4246453 9 12 9 C 14.575355 9 16.906244 8.6614604 18.679688 8.0703125 C 19.161369 7.9097521 19.601697 7.7311301 20 7.5273438 L 20 8 A 1 1 0 0 0 21 9 A 1 1 0 0 0 22 8 L 22 5 C 22 4.9770247 21.998814 4.9543721 21.998047 4.9316406 A 1 1 0 0 0 21.996094 4.921875 C 21.965859 4.138243 21.487575 3.500392 20.912109 3.046875 C 20.317581 2.578334 19.566409 2.2252615 18.679688 1.9296875 C 16.906244 1.3385396 14.575355 1 12 1 z M 12 3 C 14.395208 3 16.56296 3.3334865 18.046875 3.828125 C 18.788833 4.0754442 19.357507 4.3678984 19.673828 4.6171875 C 19.990149 4.8664766 20 4.9911165 20 5 C 20 5.00888 19.9901 5.1335234 19.673828 5.3828125 C 19.357507 5.6321016 18.788833 5.9245558 18.046875 6.171875 C 16.56296 6.6665135 14.395208 7 12 7 C 9.604792 7 7.4370405 6.6665135 5.953125 6.171875 C 5.2111673 5.9245558 4.642493 5.6321016 4.3261719 5.3828125 C 4.0098507 5.1335234 4 5.0088835 4 5 C 4 4.9911165 4.0098507 4.8664766 4.3261719 4.6171875 C 4.642493 4.3678984 5.2111673 4.0754442 5.953125 3.828125 C 7.4370405 3.3334865 9.604792 3 12 3 z M 20.912109 11.003906 A 1 1 0 0 0 20.142578 11.486328 L 17.142578 16.486328 A 1.0001 1.0001 0 0 0 18 18 L 20.234375 18 L 18.142578 21.486328 A 1 1 0 0 0 18.486328 22.857422 A 1 1 0 0 0 19.857422 22.513672 L 22.857422 17.513672 A 1.0001 1.0001 0 0 0 22 16 L 19.765625 16 L 21.857422 12.513672 A 1 1 0 0 0 21.513672 11.142578 A 1 1 0 0 0 20.912109 11.003906 z "/>
</svg>
