<?xml version="1.0" encoding="UTF-8" standalone="no"?>
<svg xmlns="http://www.w3.org/2000/svg" xmlns:svg="http://www.w3.org/2000/svg" width="24" height="24" viewBox="0 0 24 24" fill="currentColor" tags="storage,memory,bytes,servers,backup,timemachine,rotate,arrow,left" categories="devices,arrows,design,development,photography">
  <path d="M 12 1 C 9.4246453 1 7.0937563 1.3385396 5.3203125 1.9296875 C 4.4335906 2.2252615 3.682419 2.578334 3.0878906 3.046875 C 2.4933622 3.515416 2 4.1804564 2 5 L 2 19 C 1.9993542 19.662881 2.3351725 20.242614 2.7675781 20.669922 C 3.1999837 21.09723 3.7451748 21.42645 4.3886719 21.712891 C 5.675666 22.285772 7.3765805 22.680063 9.3730469 22.875 A 1 1 0 0 0 10.464844 21.976562 A 1 1 0 0 0 9.5664062 20.884766 C 7.7268355 20.705148 6.1924461 20.325143 5.203125 19.884766 C 4.7084644 19.664577 4.355045 19.427128 4.1738281 19.248047 C 3.9926112 19.068966 3.9999968 19.003323 4 19 L 4 14.527344 C 5.0008766 15.041424 6.2921175 15.420466 7.8359375 15.675781 A 1 1 0 0 0 8.9863281 14.853516 A 1 1 0 0 0 8.1640625 13.703125 C 6.7068426 13.462131 5.5395605 13.087077 4.8222656 12.701172 C 4.1049708 12.315267 3.9999917 12.005183 4 12.001953 L 4 7.5273438 C 4.3983029 7.7311301 4.8386313 7.9097521 5.3203125 8.0703125 C 7.0937563 8.6614604 9.4246453 9 12 9 C 14.575355 9 16.906244 8.6614604 18.679688 8.0703125 C 19.161369 7.9097521 19.601697 7.7311301 20 7.5273438 L 20 9.3007812 A 1 1 0 0 0 21 10.300781 A 1 1 0 0 0 22 9.3007812 L 22 5 C 22 4.9750576 21.99895 4.9504363 21.998047 4.9257812 A 1 1 0 0 0 21.996094 4.9160156 C 21.963707 4.1350495 21.486147 3.4992674 20.912109 3.046875 C 20.317581 2.578334 19.566409 2.2252615 18.679688 1.9296875 C 16.906244 1.3385396 14.575355 1 12 1 z M 12 3 C 14.395208 3 16.56296 3.3334865 18.046875 3.828125 C 18.788833 4.0754442 19.357507 4.3678984 19.673828 4.6171875 C 19.990149 4.8664766 20 4.9911165 20 5 C 20 5.00888 19.9901 5.1335234 19.673828 5.3828125 C 19.357507 5.6321016 18.788833 5.9245558 18.046875 6.171875 C 16.56296 6.6665135 14.395208 7 12 7 C 9.604792 7 7.4370405 6.6665135 5.953125 6.171875 C 5.2111673 5.9245558 4.642493 5.6321016 4.3261719 5.3828125 C 4.0098507 5.1335234 4 5.0088835 4 5 C 4 4.9911165 4.0098507 4.8664766 4.3261719 4.6171875 C 4.642493 4.3678984 5.2111673 4.0754442 5.953125 3.828125 C 7.4370405 3.3334865 9.604792 3 12 3 z M 12 11 A 1 1 0 0 0 11 12 L 11 16 A 1.0001 1.0001 0 0 0 11.011719 16.103516 A 1 1 0 0 0 11.021484 16.185547 A 1.0001 1.0001 0 0 0 11.107422 16.445312 A 1 1 0 0 0 11.128906 16.480469 A 1.0001 1.0001 0 0 0 11.267578 16.671875 A 1 1 0 0 0 11.292969 16.707031 A 1 1 0 0 0 11.328125 16.732422 A 1.0001 1.0001 0 0 0 11.519531 16.871094 A 1 1 0 0 0 11.554688 16.892578 A 1.0001 1.0001 0 0 0 11.814453 16.978516 A 1 1 0 0 0 11.896484 16.988281 A 1.0001 1.0001 0 0 0 12 17 L 16 17 A 1 1 0 0 0 17 16 A 1 1 0 0 0 16 15 L 14.414062 15 L 14.796875 14.617188 C 15.485357 13.928705 16.440677 13.5 17.5 13.5 C 19.444841 13.5 21 15.055159 21 17 C 21 18.978189 19.793388 20.285667 18.265625 20.794922 C 16.737862 21.304176 14.987695 20.982942 13.800781 19.400391 A 1 1 0 0 0 12.400391 19.199219 A 1 1 0 0 0 12.199219 20.599609 C 13.895342 22.861107 16.645007 23.441899 18.896484 22.691406 C 21.147962 21.940914 23 19.826872 23 17 C 23 13.974279 20.525721 11.5 17.5 11.5 C 15.899323 11.5 14.43433 12.151607 13.382812 13.203125 L 13 13.585938 L 13 12 A 1 1 0 0 0 12 11 z "/>
</svg>
