<?xml version="1.0" encoding="UTF-8" standalone="no"?>
<svg xmlns="http://www.w3.org/2000/svg" xmlns:svg="http://www.w3.org/2000/svg" width="24" height="24" viewBox="0 0 24 24" fill="currentColor" tags="cache busting,storage,memory,bytes,servers,power,crash" categories="devices,development">
  
  <path d="M 12 1 C 9.4246504 1 7.0937528 1.3385407 5.3203125 1.9296875 C 4.4335924 2.2252609 3.6824178 2.578335 3.0878906 3.046875 C 2.4933634 3.515415 2 4.180458 2 5 L 2 12.003906 L 2 18.988281 C 1.988254 20.002568 2.6954687 20.753759 3.5078125 21.263672 C 4.3201563 21.773584 5.3535589 22.146449 6.5585938 22.431641 C 8.9686636 23.002023 12.060715 23.194203 15.117188 22.833984 A 1 1 0 0 0 15.992188 21.722656 A 1 1 0 0 0 14.882812 20.847656 C 12.069026 21.179273 9.1478938 20.988087 7.0195312 20.484375 C 5.95535 20.232519 5.0884832 19.895571 4.5703125 19.570312 C 4.0521418 19.245055 3.9997286 19.035152 4 19.011719 A 1.0001 1.0001 0 0 0 4 19.009766 A 1.0001 1.0001 0 0 0 4 19.007812 A 1.0001 1.0001 0 0 0 4 19.005859 A 1.0001 1.0001 0 0 0 4 19.003906 A 1.0001 1.0001 0 0 0 4 19.001953 A 1.0001 1.0001 0 0 0 4 19 L 4 14.525391 C 4.6819375 14.874836 5.4855785 15.150402 6.3925781 15.375 C 8.7085068 15.948487 11.688631 16.165807 14.689453 15.865234 A 1 1 0 0 0 15.585938 14.769531 A 1 1 0 0 0 14.490234 13.875 C 11.71943 14.152533 8.9076476 13.937416 6.8730469 13.433594 C 5.8557465 13.181682 5.0336542 12.850266 4.5429688 12.535156 C 4.0522834 12.220047 4.000063 12.016474 4 11.996094 L 4 7.5273438 C 4.3983027 7.73113 4.8386322 7.9097524 5.3203125 8.0703125 C 7.0937528 8.6614593 9.4246504 9 12 9 C 14.575349 9 16.906247 8.6614593 18.679688 8.0703125 C 19.161368 7.9097524 19.601697 7.73113 20 7.5273438 L 20 8 A 1 1 0 0 0 21 9 A 1 1 0 0 0 22 8 L 22 5 C 22 4.9770248 21.998814 4.9543721 21.998047 4.9316406 A 1 1 0 0 0 21.996094 4.921875 C 21.965859 4.1382444 21.487573 3.5003911 20.912109 3.046875 C 20.317583 2.578335 19.566409 2.2252609 18.679688 1.9296875 C 16.906247 1.3385407 14.575349 1 12 1 z M 12 3 C 14.395204 3 16.562962 3.3334875 18.046875 3.828125 C 18.788831 4.0754438 19.357507 4.3678989 19.673828 4.6171875 C 19.990149 4.8664761 20 4.9911165 20 5 C 20 5.00888 19.9901 5.1335239 19.673828 5.3828125 C 19.357507 5.6321011 18.788831 5.9245562 18.046875 6.171875 C 16.562962 6.6665125 14.395204 7 12 7 C 9.6047968 7 7.4370375 6.6665125 5.953125 6.171875 C 5.2111687 5.9245562 4.6424924 5.6321011 4.3261719 5.3828125 C 4.0098513 5.1335239 4 5.0088835 4 5 C 4 4.9911165 4.0098513 4.8664761 4.3261719 4.6171875 C 4.6424924 4.3678989 5.2111687 4.0754438 5.953125 3.828125 C 7.4370375 3.3334875 9.6047968 3 12 3 z M 20.912109 11.003906 A 1 1 0 0 0 20.142578 11.486328 L 17.142578 16.486328 A 1.0001 1.0001 0 0 0 18 18 L 20.234375 18 L 18.142578 21.486328 A 1 1 0 0 0 18.486328 22.857422 A 1 1 0 0 0 19.857422 22.513672 L 22.857422 17.513672 A 1.0001 1.0001 0 0 0 22 16 L 19.765625 16 L 21.857422 12.513672 A 1 1 0 0 0 21.513672 11.142578 A 1 1 0 0 0 20.912109 11.003906 z "/>
</svg>
