<svg xmlns="http://www.w3.org/2000/svg" xmlns:svg="http://www.w3.org/2000/svg" width="24" height="24" viewBox="0 0 24 24" fill="currentColor" tags="numerical,decimal,decrease,less,fewer,precision,rounding,digits,fraction,float,number" categories="design,text,arrows,math">
  <path d="M 8.5 2 C 6.5782972 2 5 3.5782972 5 5.5 L 5 8.5 C 5 10.421703 6.5782972 12 8.5 12 C 10.421703 12 12 10.421703 12 8.5 L 12 5.5 C 12 3.5782972 10.421703 2 8.5 2 z M 8.5 4 C 9.3482972 4 10 4.6517028 10 5.5 L 10 8.5 C 10 9.3482972 9.3482972 10 8.5 10 C 7.6517028 10 7 9.3482972 7 8.5 L 7 5.5 C 7 4.6517028 7.6517028 4 8.5 4 z M 3 10 A 1 1 0 0 0 2 11 A 1 1 0 0 0 3 12 L 3.0097656 12 A 1 1 0 0 0 4.0097656 11 A 1 1 0 0 0 3.0097656 10 L 3 10 z M 13 14 A 1 1 0 0 0 12.292969 14.292969 L 9.2929688 17.292969 A 1.0001 1.0001 0 0 0 9.25 17.341797 A 1 1 0 0 0 9.2128906 17.384766 A 1.0001 1.0001 0 0 0 9.1757812 17.439453 A 1 1 0 0 0 9.1386719 17.492188 A 1.0001 1.0001 0 0 0 9.1347656 17.5 A 1 1 0 0 0 9.078125 17.611328 A 1.0001 1.0001 0 0 0 9.0761719 17.617188 A 1 1 0 0 0 9.0234375 17.794922 A 1.0001 1.0001 0 0 0 9.0351562 18.257812 A 1 1 0 0 0 9.078125 18.388672 A 1.0001 1.0001 0 0 0 9.1347656 18.5 A 1 1 0 0 0 9.1757812 18.560547 A 1.0001 1.0001 0 0 0 9.2128906 18.615234 A 1 1 0 0 0 9.25 18.658203 A 1.0001 1.0001 0 0 0 9.2929688 18.707031 A 1 1 0 0 0 9.3027344 18.716797 L 12.292969 21.707031 A 1 1 0 0 0 13.707031 21.707031 A 1 1 0 0 0 13.707031 20.292969 L 12.414062 19 L 20 19 A 1 1 0 0 0 21 18 A 1 1 0 0 0 20 17 L 12.414062 17 L 13.707031 15.707031 A 1 1 0 0 0 13.707031 14.292969 A 1 1 0 0 0 13 14 z "/>
</svg>
