<svg xmlns="http://www.w3.org/2000/svg" xmlns:svg="http://www.w3.org/2000/svg" width="24" height="24" viewBox="0 0 24 24" fill="currentColor" tags="numerical,decimal,increase,more,precision,rounding,digits,fraction,float,number" categories="design,text,arrows,math">
  <path d="M 8.5 2 C 6.5782972 2 5 3.5782972 5 5.5 L 5 8.5 C 5 10.421703 6.5782972 12 8.5 12 C 10.421703 12 12 10.421703 12 8.5 L 12 5.5 C 12 3.5782972 10.421703 2 8.5 2 z M 17.5 2 C 15.578297 2 14 3.5782972 14 5.5 L 14 8.5 C 14 10.421703 15.578297 12 17.5 12 C 19.421703 12 21 10.421703 21 8.5 L 21 5.5 C 21 3.5782972 19.421703 2 17.5 2 z M 8.5 4 C 9.3482972 4 10 4.6517028 10 5.5 L 10 8.5 C 10 9.3482972 9.3482972 10 8.5 10 C 7.6517028 10 7 9.3482972 7 8.5 L 7 5.5 C 7 4.6517028 7.6517028 4 8.5 4 z M 17.5 4 C 18.348297 4 19 4.6517028 19 5.5 L 19 8.5 C 19 9.3482972 18.348297 10 17.5 10 C 16.651703 10 16 9.3482972 16 8.5 L 16 5.5 C 16 4.6517028 16.651703 4 17.5 4 z M 3 10 A 1 1 0 0 0 2 11 A 1 1 0 0 0 3 12 L 3.0097656 12 A 1 1 0 0 0 4.0097656 11 A 1 1 0 0 0 3.0097656 10 L 3 10 z M 17 14 A 1 1 0 0 0 16.292969 14.292969 A 1 1 0 0 0 16.292969 15.707031 L 17.585938 17 L 10 17 A 1 1 0 0 0 9 18 A 1 1 0 0 0 10 19 L 17.585938 19 L 16.292969 20.292969 A 1 1 0 0 0 16.292969 21.707031 A 1 1 0 0 0 17.707031 21.707031 L 20.697266 18.716797 A 1 1 0 0 0 20.707031 18.707031 A 1.0001 1.0001 0 0 0 20.785156 18.619141 A 1 1 0 0 0 20.792969 18.609375 A 1.0001 1.0001 0 0 0 20.861328 18.507812 A 1 1 0 0 0 20.865234 18.5 A 1.0001 1.0001 0 0 0 20.921875 18.388672 A 1 1 0 0 0 20.964844 18.257812 A 1.0001 1.0001 0 0 0 20.964844 17.742188 A 1 1 0 0 0 20.923828 17.617188 A 1.0001 1.0001 0 0 0 20.921875 17.611328 A 1 1 0 0 0 20.865234 17.5 A 1.0001 1.0001 0 0 0 20.861328 17.492188 A 1 1 0 0 0 20.792969 17.390625 A 1.0001 1.0001 0 0 0 20.785156 17.380859 A 1 1 0 0 0 20.707031 17.292969 L 17.707031 14.292969 A 1 1 0 0 0 17 14 z "/>
</svg>
