<?xml version="1.0" encoding="UTF-8" standalone="no"?>
<svg xmlns="http://www.w3.org/2000/svg" xmlns:svg="http://www.w3.org/2000/svg" width="24" height="24" viewBox="0 0 24 24" fill="currentColor" tags="backspace,remove" categories="text,arrows">
  <path d="M 10 4 C 9.2549017 4.000042 8.5361203 4.2785488 7.984375 4.7792969 L 7.984375 4.7773438 L 1.65625 10.517578 C 0.79349008 11.300594 0.79349008 12.697453 1.65625 13.480469 L 7.984375 19.220703 C 8.5361203 19.721451 9.2549017 19.999958 10 20 L 20 20 C 21.64501 20 23 18.64501 23 17 L 23 7 C 23 5.3549904 21.64501 4 20 4 L 10 4 z M 10 6 L 20 6 C 20.564129 6 21 6.4358706 21 7 L 21 17 C 21 17.564129 20.564129 18 20 18 L 10 18 C 9.7512608 17.999986 9.5123164 17.9074 9.328125 17.740234 L 3 12 L 9.328125 6.2597656 C 9.5123164 6.0925989 9.7512608 6.000014 10 6 z M 12 8 A 1 1 0 0 0 11.292969 8.2929688 A 1 1 0 0 0 11.292969 9.7070312 L 13.585938 12 L 11.292969 14.292969 A 1 1 0 0 0 11.292969 15.707031 A 1 1 0 0 0 12.707031 15.707031 L 15 13.414062 L 17.292969 15.707031 A 1 1 0 0 0 18.707031 15.707031 A 1 1 0 0 0 18.707031 14.292969 L 16.414062 12 L 18.707031 9.7070312 A 1 1 0 0 0 18.707031 8.2929688 A 1 1 0 0 0 17.292969 8.2929688 L 15 10.585938 L 12.707031 8.2929688 A 1 1 0 0 0 12 8 z "/>
</svg>
