<?xml version="1.0" encoding="UTF-8" standalone="no"?>
<svg xmlns="http://www.w3.org/2000/svg" xmlns:svg="http://www.w3.org/2000/svg" width="24" height="24" viewBox="0 0 24 24" fill="currentColor" tags="pudding,christmas,xmas,custard,iced bun,icing,fondant,cake,ice cream,gelato,sundae,scoop,dollop,sugar,food,sweet" categories="food-beverage">
  <path d="M 12 1 C 10.978089 1 10.068145 1.5219955 9.5253906 2.3125 C 4.6058906 3.3934801 1 7.8004724 1 13 C 1 13.916666 1.3797556 14.731441 1.9609375 15.248047 C 2.0840779 15.357505 2.2141963 15.454421 2.3496094 15.539062 C 3.6367593 20.3813 7.8508153 22.914063 12 22.914062 C 16.149185 22.914063 20.363241 20.381301 21.650391 15.539062 C 21.785803 15.454421 21.915922 15.357505 22.039062 15.248047 C 22.620244 14.731441 23 13.916666 23 13 C 23 7.8004732 19.394108 3.3934809 14.474609 2.3125 C 13.931855 1.5219955 13.021912 1 12 1 z M 12 3 C 12.348609 3 12.648111 3.1654767 12.826172 3.4257812 A 1 1 0 0 0 12.972656 3.7617188 C 12.99036 3.8378147 13 3.9174468 13 4 C 13 4.5641294 12.564129 5 12 5 C 11.435871 5 11 4.5641294 11 4 C 11 3.9174469 11.00964 3.8378147 11.027344 3.7617188 A 1 1 0 0 0 11.173828 3.4257812 C 11.351889 3.1654768 11.651391 3 12 3 z M 9.0449219 4.5175781 C 9.2930492 5.9201724 10.531069 7 12 7 C 13.468931 7 14.706951 5.9201725 14.955078 4.5175781 C 18.49634 5.7030655 21 9.0516635 21 13 C 21 13.416666 20.879756 13.601893 20.710938 13.751953 C 20.686209 13.773934 20.659429 13.794851 20.630859 13.814453 A 1 1 0 0 0 20.230469 13.976562 C 20.155685 13.991293 20.078823 14 20 14 C 19.722222 14 19.457881 13.902014 19.289062 13.751953 C 19.120244 13.601893 19 13.416666 19 13 L 19 12 C 19 11.083334 18.620244 10.268559 18.039062 9.7519531 C 17.457881 9.2353472 16.722222 9 16 9 C 15.277778 9 14.542119 9.2353472 13.960938 9.7519531 C 13.379755 10.268559 13 11.083334 13 12 L 13 16 C 13 16.416666 12.879756 16.601893 12.710938 16.751953 C 12.542118 16.902014 12.277778 17 12 17 C 11.722222 17 11.45788 16.902014 11.289062 16.751953 C 11.120243 16.601893 11 16.416666 11 16 L 11 12 C 11 11.083334 10.620244 10.268559 10.039062 9.7519531 C 9.4578801 9.2353472 8.7222221 9 8 9 C 7.2777779 9 6.5421194 9.2353472 5.9609375 9.7519531 C 5.3797556 10.268559 5 11.083334 5 12 L 5 13 C 5 13.416666 4.8797556 13.601893 4.7109375 13.751953 C 4.5421194 13.902014 4.2777779 14 4 14 C 3.9211772 14 3.8443146 13.991293 3.7695312 13.976562 A 1 1 0 0 0 3.3691406 13.814453 C 3.340571 13.794851 3.313791 13.773934 3.2890625 13.751953 C 3.1202444 13.601893 3 13.416666 3 13 C 3 9.0516637 5.5036593 5.7030657 9.0449219 4.5175781 z M 8 11 C 8.2777779 11 8.5421194 11.097986 8.7109375 11.248047 C 8.8797556 11.398107 9 11.583334 9 12 L 9 16 C 9 16.916666 9.3797556 17.731441 9.9609375 18.248047 C 10.542119 18.764653 11.277778 19 12 19 C 12.722222 19 13.45788 18.764653 14.039062 18.248047 C 14.620243 17.731441 15 16.916666 15 16 L 15 12 C 15 11.583334 15.120244 11.398107 15.289062 11.248047 C 15.45788 11.097986 15.722222 11 16 11 C 16.277778 11 16.542119 11.09799 16.710938 11.248047 C 16.879756 11.398107 17 11.583334 17 12 L 17 13 C 17 13.916666 17.379756 14.731441 17.960938 15.248047 C 18.387035 15.6268 18.895882 15.854736 19.421875 15.949219 C 18.134534 19.316332 15.095022 20.914063 12 20.914062 C 8.904978 20.914062 5.865466 19.316332 4.578125 15.949219 C 5.1041182 15.854736 5.6129653 15.6268 6.0390625 15.248047 C 6.6202444 14.731441 7 13.916666 7 13 L 7 12 C 7 11.583334 7.1202444 11.398107 7.2890625 11.248047 C 7.4578806 11.097986 7.7222221 11 8 11 z "/>
</svg>
