<?xml version="1.0" encoding="UTF-8" standalone="no"?>
<svg xmlns="http://www.w3.org/2000/svg" xmlns:svg="http://www.w3.org/2000/svg" width="24" height="24" viewBox="0 0 24 24" fill="currentColor" tags="pudding,christmas,xmas,custard,iced bun,icing,fondant,cake,ice cream,gelato,sundae,scoop,dollop,sugar,food,sweet" categories="food-beverage">
  <path d="M 12 1 C 10.977859 1 10.068102 1.5236514 9.5253906 2.3144531 C 4.6063478 3.3957706 1 7.8007874 1 13 C 1 13.916666 1.3797556 14.731441 1.9609375 15.248047 C 2.0835826 15.357065 2.2147838 15.450757 2.3496094 15.535156 C 3.6359337 20.379104 7.8500654 22.914063 12 22.914062 C 16.149935 22.914063 20.364066 20.379104 21.650391 15.535156 C 21.785216 15.450757 21.916418 15.357065 22.039062 15.248047 C 22.620244 14.731441 23 13.916666 23 13 C 23 7.8007874 19.393652 3.3957706 14.474609 2.3144531 C 13.931898 1.5236514 13.022141 1 12 1 z M 12 3 C 12.349968 3 12.650323 3.1676344 12.828125 3.4296875 A 1 1 0 0 0 12.966797 3.7382812 C 12.988177 3.8212927 13 3.9090277 13 4 C 13 4.5641294 12.564129 5 12 5 C 11.435871 5 11 4.5641294 11 4 C 11 3.9146818 11.010422 3.8322929 11.029297 3.7539062 A 1 1 0 0 0 11.167969 3.4355469 L 11.167969 3.4335938 C 11.345367 3.1689226 11.648002 3 12 3 z M 9.046875 4.5195312 C 9.2959346 5.9210222 10.531861 7 12 7 C 13.468139 7 14.704065 5.9210222 14.953125 4.5195312 C 18.494693 5.7048474 21 9.0514483 21 13 C 21 13.416666 20.879756 13.601893 20.710938 13.751953 C 20.684279 13.775649 20.652193 13.795488 20.621094 13.816406 C 20.620646 13.816707 20.619589 13.816106 20.619141 13.816406 A 1 1 0 0 0 20.248047 13.970703 C 20.167861 13.987762 20.085063 14 20 14 C 19.722222 14 19.457881 13.902014 19.289062 13.751953 C 19.120244 13.601893 19 13.416666 19 13 L 19 12 C 19 11.083334 18.620244 10.268559 18.039062 9.7519531 C 17.457881 9.2353472 16.722222 9 16 9 C 15.277778 9 14.542119 9.2353472 13.960938 9.7519531 C 13.379755 10.268559 13 11.083334 13 12 L 13 16 C 13 16.416666 12.879756 16.601893 12.710938 16.751953 C 12.542118 16.902014 12.277778 17 12 17 C 11.722222 17 11.45788 16.902014 11.289062 16.751953 C 11.120243 16.601893 11 16.416666 11 16 L 11 12 C 11 11.083334 10.620244 10.268559 10.039062 9.7519531 C 9.4578801 9.2353472 8.7222221 9 8 9 C 7.2777779 9 6.5421194 9.2353472 5.9609375 9.7519531 C 5.3797556 10.268559 5 11.083334 5 12 L 5 13 C 5 13.416666 4.8797556 13.601893 4.7109375 13.751953 C 4.5421194 13.902014 4.2777779 14 4 14 C 3.9149373 14 3.8321387 13.987762 3.7519531 13.970703 A 1 1 0 0 0 3.3808594 13.816406 A 1 1 0 0 0 3.3789062 13.816406 C 3.3478073 13.795488 3.3157208 13.775649 3.2890625 13.751953 C 3.1202444 13.601893 3 13.416666 3 13 C 3 9.0514483 5.505306 5.7048474 9.046875 4.5195312 z M 8 11 C 8.2777779 11 8.5421194 11.097986 8.7109375 11.248047 C 8.8797556 11.398107 9 11.583334 9 12 L 9 16 C 9 16.916666 9.3797556 17.731441 9.9609375 18.248047 C 10.542119 18.764653 11.277778 19 12 19 C 12.722222 19 13.45788 18.764653 14.039062 18.248047 C 14.620243 17.731441 15 16.916666 15 16 L 15 12 C 15 11.583334 15.120244 11.398107 15.289062 11.248047 C 15.45788 11.097986 15.722222 11 16 11 C 16.277778 11 16.542119 11.09799 16.710938 11.248047 C 16.879756 11.398107 17 11.583334 17 12 L 17 13 C 17 13.916666 17.379756 14.731441 17.960938 15.248047 C 18.386751 15.626548 18.896254 15.852669 19.421875 15.947266 C 18.134562 19.314467 15.095061 20.914063 12 20.914062 C 8.9049384 20.914062 5.8654377 19.314467 4.578125 15.947266 C 5.1037456 15.852669 5.613249 15.626548 6.0390625 15.248047 C 6.6202444 14.731441 7 13.916666 7 13 L 7 12 C 7 11.583334 7.1202444 11.398107 7.2890625 11.248047 C 7.4578806 11.097986 7.7222221 11 8 11 z "/>
</svg>
