<svg xmlns="http://www.w3.org/2000/svg" xmlns:svg="http://www.w3.org/2000/svg" width="24" height="24" viewBox="0 0 24 24" fill="currentColor" tags="pudding,christmas,xmas,custard,iced bun,icing,fondant,cake,ice cream,gelato,sundae,scoop,dollop,sugar,food,sweet" categories="food-beverage">
  <path d="M 12 1 C 10.996284 1 10.100543 1.5044945 9.5546875 2.2714844 C 4.5741161 3.4058744 0.9982694 7.8544151 1 13 C 1 13.916666 1.3797556 14.731441 1.9609375 15.248047 C 2.0759578 15.350287 2.196446 15.440921 2.3222656 15.521484 C 3.5749849 20.43118 7.8205443 23 12 23 C 16.180369 23 20.426049 20.431323 21.677734 15.519531 C 21.804718 15.438319 21.927073 15.345518 22.042969 15.242188 C 22.623376 14.724663 23.001375 13.908853 23 12.992188 C 22.997307 7.8504562 19.424261 3.4072526 14.447266 2.2734375 C 13.901535 1.5054067 13.004524 1 12 1 z M 12 3 C 12.564129 3 13 3.4358706 13 4 C 13 4.5641294 12.564129 5 12 5 C 11.435871 5 11 4.5641294 11 4 C 11 3.4358706 11.435871 3 12 3 z M 9.0410156 4.4960938 C 9.2804471 5.9088877 10.523747 7 12 7 C 13.476203 7 14.719493 5.9088181 14.958984 4.4960938 C 18.532539 5.7352625 20.998661 9.1129319 21 12.994141 A 1.0001 1.0001 0 0 0 21 12.996094 C 21.000625 13.41276 20.879531 13.597733 20.710938 13.748047 C 20.542344 13.898361 20.279731 13.995677 20.001953 13.996094 C 19.724175 13.996463 19.460059 13.899807 19.291016 13.75 C 19.122354 13.600531 19.001165 13.414685 19 13 L 19 12 C 19 11.083334 18.620244 10.268559 18.039062 9.7519531 C 17.457881 9.2353472 16.722222 9 16 9 C 15.277778 9 14.542119 9.2353472 13.960938 9.7519531 C 13.379755 10.268559 13 11.083334 13 12 L 13 16 C 13 16.416666 12.879756 16.601893 12.710938 16.751953 C 12.542118 16.902014 12.277778 17 12 17 C 11.722222 17 11.45788 16.902014 11.289062 16.751953 C 11.120243 16.601893 11 16.416666 11 16 L 11 12 C 11 11.083334 10.620244 10.268559 10.039062 9.7519531 C 9.4578801 9.2353472 8.7222221 9 8 9 C 7.2777779 9 6.5421194 9.2353472 5.9609375 9.7519531 C 5.3797556 10.268559 5 11.083334 5 12 L 5 13 C 5 13.416666 4.8797556 13.601893 4.7109375 13.751953 C 4.5421194 13.902014 4.2777779 14 4 14 C 3.7222221 14 3.4578806 13.902014 3.2890625 13.751953 C 3.1202444 13.601893 3 13.416666 3 13 C 2.9986938 9.116129 5.4651042 5.7356451 9.0410156 4.4960938 z M 8 11 C 8.2777779 11 8.5421194 11.097986 8.7109375 11.248047 C 8.8797556 11.398107 9 11.583334 9 12 L 9 16 C 9 16.916666 9.3797556 17.731441 9.9609375 18.248047 C 10.542119 18.764653 11.277778 19 12 19 C 12.722222 19 13.45788 18.764653 14.039062 18.248047 C 14.620243 17.731441 15 16.916666 15 16 L 15 12 C 15 11.583334 15.120244 11.398107 15.289062 11.248047 C 15.45788 11.097986 15.722222 11 16 11 C 16.277778 11 16.542119 11.09799 16.710938 11.248047 C 16.879756 11.398107 17 11.583334 17 12 L 17 13 A 1.0001 1.0001 0 0 0 17 13.001953 C 17.0014 13.918619 17.382887 14.732313 17.964844 15.248047 C 18.399458 15.633205 18.91885 15.861018 19.455078 15.951172 C 18.188153 19.377227 15.122361 21 12 21 C 8.8786634 21 5.8126113 19.378827 4.5449219 15.955078 C 5.0823107 15.864198 5.6042795 15.634521 6.0390625 15.248047 C 6.6202444 14.731441 7 13.916666 7 13 L 7 12 C 7 11.583334 7.1202444 11.398107 7.2890625 11.248047 C 7.4578806 11.097986 7.7222221 11 8 11 z "/>
</svg>
