<?xml version="1.0" encoding="UTF-8" standalone="no"?>
<svg xmlns="http://www.w3.org/2000/svg" xmlns:svg="http://www.w3.org/2000/svg" width="24" height="24" viewBox="0 0 24 24" fill="currentColor" tags="shape,circle,geometry,trigonometry,width,height,size,calculate,measure" categories="shapes,maths,design,tools">
  <path d="M 12.054688 0.93554688 C 10.244009 0.92651375 8.3648842 1.3896015 6.5546875 2.4394531 C 6.1001972 2.1610889 5.5670195 2 5 2 C 3.3549936 2 2 3.3549936 2 5 C 2 5.5670195 2.1610889 6.1001972 2.4394531 6.5546875 C -0.32279197 11.317755 0.98833585 16.554742 4.2167969 19.783203 C 7.4452579 23.011664 12.682244 24.322792 17.445312 21.560547 C 17.899803 21.838911 18.43298 22 19 22 C 20.645006 22 22 20.645006 22 19 C 22 18.43298 21.838911 17.899803 21.560547 17.445312 C 24.322792 12.682244 23.011664 7.4452579 19.783203 4.2167969 C 18.097773 2.5313661 15.864387 1.3675205 13.4375 1.0332031 C 12.982459 0.97051862 12.52103 0.93787337 12.054688 0.93554688 z M 12.091797 2.8984375 C 14.491539 2.9103987 16.710715 3.9724341 18.369141 5.6308594 C 20.984587 8.2463063 22.117505 12.25368 19.986328 16.169922 C 19.676924 16.060752 19.344662 16 19 16 C 18.539505 16 18.102617 16.107873 17.710938 16.296875 L 7.703125 6.2890625 C 7.892127 5.897383 8 5.460495 8 5 C 8 4.6553379 7.9392475 4.323076 7.8300781 4.0136719 C 9.2630753 3.2338501 10.706986 2.8915351 12.091797 2.8984375 z M 5 4 C 5.5641282 4 6 4.4358718 6 5 C 6 5.2585588 5.9074149 5.4890072 5.7539062 5.6640625 A 1 1 0 0 0 5.703125 5.703125 A 1 1 0 0 0 5.671875 5.7480469 C 5.4959869 5.9054278 5.2621511 6 5 6 C 4.7650909 6 4.5529844 5.923869 4.3847656 5.7949219 A 1 1 0 0 0 4.2714844 5.6933594 C 4.1023225 5.515316 4 5.2728837 4 5 C 4 4.4358718 4.4358718 4 5 4 z M 6.2890625 7.703125 L 16.296875 17.710938 C 16.107873 18.102617 16 18.539505 16 19 C 16 19.344662 16.060752 19.676924 16.169922 19.986328 C 12.25368 22.117505 8.2463063 20.984587 5.6308594 18.369141 C 3.0154125 15.753694 1.8824948 11.74632 4.0136719 7.8300781 C 4.323076 7.9392475 4.6553379 8 5 8 C 5.460495 8 5.897383 7.892127 6.2890625 7.703125 z M 19 18 C 19.564128 18 20 18.435872 20 19 C 20 19.564128 19.564128 20 19 20 C 18.435872 20 18 19.564128 18 19 C 18 18.737849 18.094572 18.504013 18.251953 18.328125 A 1 1 0 0 0 18.296875 18.296875 A 1 1 0 0 0 18.365234 18.220703 C 18.536413 18.08231 18.755806 18 19 18 z "/>
</svg>
