<svg xmlns="http://www.w3.org/2000/svg" xmlns:svg="http://www.w3.org/2000/svg" width="24" height="24" viewBox="0 0 24 24" fill="currentColor" tags="shape,circle,geometry,trigonometry,width,height,size,calculate,measure" categories="shapes,math,design,tools">
  <path d="M 11.744141 0.9375 C 10.028832 0.97988393 8.260665 1.4463639 6.5527344 2.4375 C 6.0986347 2.1598073 5.5662781 2 5 2 C 3.3549904 2 2 3.3549904 2 5 C 2 5.566282 2.1598038 6.0986327 2.4375 6.5527344 C -0.32683391 11.316539 0.98771331 16.55412 4.2167969 19.783203 C 7.4458794 23.012285 12.683462 24.32683 17.447266 21.5625 C 17.901367 21.840196 18.433718 22 19 22 C 20.64501 22 22 20.64501 22 19 C 22 18.433718 21.840196 17.901367 21.5625 17.447266 C 24.32683 12.683462 23.012285 7.4458794 19.783203 4.2167969 C 18.097769 2.5313627 15.864391 1.3675212 13.4375 1.0332031 C 12.881817 0.95665464 12.31591 0.92337202 11.744141 0.9375 z M 12.197266 2.9003906 C 14.557079 2.9420035 16.73468 3.996399 18.369141 5.6308594 C 20.984277 8.2459961 22.116466 12.252171 19.986328 16.167969 C 19.676709 16.05863 19.344942 16 19 16 C 18.53929 16 18.100803 16.105755 17.708984 16.294922 L 7.7050781 6.2910156 C 7.8942448 5.8991966 8 5.4607097 8 5 C 8 4.6550576 7.9413699 4.3232908 7.8320312 4.0136719 C 9.3004554 3.2148705 10.781378 2.8754229 12.197266 2.9003906 z M 5 4 C 5.2634393 4 5.499608 4.0951285 5.6757812 4.2539062 A 1 1 0 0 0 5.8085938 4.4023438 C 5.9295917 4.5677253 6 4.7731126 6 5 C 6 5.2419352 5.919274 5.4603683 5.7832031 5.6308594 A 1 1 0 0 0 5.703125 5.703125 A 1 1 0 0 0 5.6308594 5.7832031 C 5.4603562 5.9193141 5.2419743 6 5 6 C 4.7731126 6 4.5677253 5.9295917 4.4023438 5.8085938 A 1 1 0 0 0 4.2539062 5.6757812 C 4.0951285 5.499608 4 5.2634393 4 5 C 4 4.4358706 4.4358706 4 5 4 z M 6.2910156 7.7050781 L 16.294922 17.708984 C 16.105755 18.100803 16 18.53929 16 19 C 16 19.344942 16.05863 19.676709 16.167969 19.986328 C 12.252171 22.116466 8.2459961 20.984277 5.6308594 18.369141 C 3.0157227 15.754004 1.8835349 11.747829 4.0136719 7.8320312 C 4.3232908 7.9413699 4.6550576 8 5 8 C 5.4607097 8 5.8991966 7.8942448 6.2910156 7.7050781 z M 19 18 C 19.226886 18 19.432275 18.070409 19.597656 18.191406 A 1 1 0 0 0 19.746094 18.324219 C 19.904871 18.500392 20 18.736562 20 19 C 20 19.564129 19.564129 20 19 20 C 18.736562 20 18.500392 19.904871 18.324219 19.746094 A 1 1 0 0 0 18.191406 19.597656 C 18.070409 19.432275 18 19.226886 18 19 C 18 18.758026 18.080686 18.539644 18.216797 18.369141 A 1 1 0 0 0 18.296875 18.296875 A 1 1 0 0 0 18.369141 18.216797 C 18.539644 18.080686 18.758026 18 19 18 z "/>
</svg>
