<?xml version="1.0" encoding="UTF-8" standalone="no"?>
<svg xmlns="http://www.w3.org/2000/svg" xmlns:svg="http://www.w3.org/2000/svg" width="24" height="24" viewBox="0 0 24 24" fill="currentColor" tags="shape,circle,geometry,trigonometry,width,height,size,calculate,measure" categories="shapes,math,design,tools">
  <path d="M 12.054688 0.93554688 C 10.244007 0.92651332 8.364887 1.3895996 6.5546875 2.4394531 C 6.1001968 2.1610888 5.5670207 2 5 2 C 3.3549904 2 2 3.3549904 2 5 C 2 5.5670207 2.1610888 6.1001968 2.4394531 6.5546875 C -0.3227976 11.317764 0.98832939 16.554736 4.2167969 19.783203 C 7.4452643 23.01167 12.682236 24.322798 17.445312 21.560547 C 17.899803 21.838911 18.432979 22 19 22 C 20.64501 22 22 20.64501 22 19 C 22 18.432979 21.838911 17.899803 21.560547 17.445312 C 24.322798 12.682236 23.01167 7.4452643 19.783203 4.2167969 C 18.097769 2.5313627 15.864391 1.3675212 13.4375 1.0332031 C 12.982458 0.9705185 12.52103 0.93787348 12.054688 0.93554688 z M 12.091797 2.8984375 C 14.49154 2.9103984 16.710712 3.9724308 18.369141 5.6308594 C 20.984592 8.2463114 22.11751 12.253674 19.986328 16.169922 C 19.676924 16.060752 19.344663 16 19 16 C 18.539504 16 18.102618 16.107873 17.710938 16.296875 L 7.703125 6.2890625 C 7.892127 5.8973825 8 5.4604959 8 5 C 8 4.6553372 7.9392476 4.3230764 7.8300781 4.0136719 C 9.2630777 3.2338485 10.706985 2.8915353 12.091797 2.8984375 z M 5 4 C 5.5641294 4 6 4.4358706 6 5 C 6 5.2585593 5.907415 5.4890071 5.7539062 5.6640625 A 1 1 0 0 0 5.703125 5.703125 A 1 1 0 0 0 5.671875 5.7480469 C 5.4959868 5.9054279 5.2621516 6 5 6 C 4.7650904 6 4.5529845 5.923869 4.3847656 5.7949219 A 1 1 0 0 0 4.2714844 5.6933594 C 4.1023225 5.5153158 4 5.2728843 4 5 C 4 4.4358706 4.4358706 4 5 4 z M 6.2890625 7.703125 L 16.296875 17.710938 C 16.107873 18.102618 16 18.539504 16 19 C 16 19.344663 16.060752 19.676924 16.169922 19.986328 C 12.253674 22.11751 8.2463114 20.984592 5.6308594 18.369141 C 3.0154072 15.753688 1.8824905 11.746326 4.0136719 7.8300781 C 4.3230764 7.9392476 4.6553372 8 5 8 C 5.4604959 8 5.8973825 7.892127 6.2890625 7.703125 z M 19 18 C 19.564129 18 20 18.435871 20 19 C 20 19.564129 19.564129 20 19 20 C 18.435871 20 18 19.564129 18 19 C 18 18.737849 18.094572 18.504013 18.251953 18.328125 A 1 1 0 0 0 18.296875 18.296875 A 1 1 0 0 0 18.365234 18.220703 C 18.536413 18.08231 18.755806 18 19 18 z "/>
</svg>
