<svg xmlns="http://www.w3.org/2000/svg" xmlns:svg="http://www.w3.org/2000/svg" width="24" height="24" viewBox="0 0 24 24" fill="currentColor" tags="square,rectangle,oblique,rhombus,shape,suit,playing,cards" categories="shapes,gaming">
  <path d="M 11.994141 1.0097656 C 11.118799 1.0097656 10.243817 1.341442 9.5820312 2.0039062 L 1.9921875 9.59375 C 0.66924843 10.917514 0.66987862 13.09506 1.9941406 14.417969 L 9.5820312 22.005859 C 10.90494 23.330124 13.082486 23.330706 14.40625 22.007812 L 14.408203 22.005859 L 21.996094 14.417969 C 23.320359 13.09506 23.320939 10.917514 21.998047 9.59375 L 21.996094 9.5917969 L 14.408203 2.0039062 C 13.746373 1.3414389 12.869482 1.0097656 11.994141 1.0097656 z M 11.994141 2.9960938 C 12.353118 2.9960938 12.712611 3.1361522 12.992188 3.4160156 A 1.0001 1.0001 0 0 0 12.992188 3.4179688 L 20.582031 11.007812 A 1.0001 1.0001 0 0 0 20.583984 11.007812 C 21.143711 11.566966 21.143711 12.442799 20.583984 13.001953 A 1.0001 1.0001 0 0 0 20.582031 13.001953 L 12.992188 20.59375 C 12.433034 21.153477 11.557201 21.153477 10.998047 20.59375 L 3.40625 13.001953 C 2.8465231 12.442799 2.8465231 11.566966 3.40625 11.007812 L 10.998047 3.4179688 A 1.0001 1.0001 0 0 0 10.998047 3.4160156 C 11.277624 3.1361522 11.635164 2.9960938 11.994141 2.9960938 z "/>
</svg>
