<?xml version="1.0" encoding="UTF-8" standalone="no"?>
<svg xmlns="http://www.w3.org/2000/svg" xmlns:svg="http://www.w3.org/2000/svg" width="24" height="24" viewBox="0 0 24 24" fill="currentColor" tags="dice,random,tabletop,board,game" categories="gaming">
  <path d="M 14.919922 1.0078125 C 14.141741 1.0078125 13.363277 1.2849272 12.75 1.8378906 A 1.0001 1.0001 0 0 0 12.712891 1.8730469 L 9.2929688 5.2929688 A 1 1 0 0 0 9.2929688 6.7070312 A 1 1 0 0 0 10.707031 6.7070312 L 14.09375 3.3203125 C 14.571324 2.8927952 15.271111 2.893532 15.748047 3.3222656 L 15.75 3.3222656 L 20.679688 8.1738281 C 21.106596 8.6507215 21.106596 9.3492785 20.679688 9.8261719 C 20.678688 9.8273419 20.678834 9.8289081 20.677734 9.8300781 L 17.212891 13.292969 A 1 1 0 0 0 17.212891 14.707031 A 1 1 0 0 0 18.626953 14.707031 L 22.126953 11.207031 A 1.0001 1.0001 0 0 0 22.162109 11.169922 C 23.268036 9.9433673 23.268036 8.0566326 22.162109 6.8300781 A 1.0001 1.0001 0 0 0 22.121094 6.7871094 L 17.121094 1.8671875 A 1.0001 1.0001 0 0 0 17.089844 1.8378906 C 16.476567 1.2849279 15.698102 1.0078125 14.919922 1.0078125 z M 15 5 A 1 1 0 0 0 14 6 A 1 1 0 0 0 15 7 L 15.009766 7 A 1 1 0 0 0 16.009766 6 A 1 1 0 0 0 15.009766 5 L 15 5 z M 18 8 A 1 1 0 0 0 17 9 A 1 1 0 0 0 18 10 L 18.009766 10 A 1 1 0 0 0 19.009766 9 A 1 1 0 0 0 18.009766 8 L 18 8 z M 4 9 C 2.3553005 9 1 10.355301 1 12 L 1 20 C 1 21.644699 2.3553005 23 4 23 L 12 23 C 13.644699 23 15 21.644699 15 20 L 15 12 C 15 10.355301 13.644699 9 12 9 L 4 9 z M 4 11 L 12 11 C 12.571296 11 13 11.428704 13 12 L 13 20 C 13 20.571296 12.571296 21 12 21 L 4 21 C 3.4287039 21 3 20.571296 3 20 L 3 12 C 3 11.428704 3.4287039 11 4 11 z M 10 13 A 1 1 0 0 0 9 14 A 1 1 0 0 0 10 15 L 10.009766 15 A 1 1 0 0 0 11.009766 14 A 1 1 0 0 0 10.009766 13 L 10 13 z M 6 17 A 1 1 0 0 0 5 18 A 1 1 0 0 0 6 19 L 6.0097656 19 A 1 1 0 0 0 7.0097656 18 A 1 1 0 0 0 6.0097656 17 L 6 17 z "/>
</svg>
