<?xml version="1.0" encoding="UTF-8" standalone="no"?>
<svg xmlns="http://www.w3.org/2000/svg" xmlns:svg="http://www.w3.org/2000/svg" width="24" height="24" viewBox="0 0 24 24" fill="currentColor" tags="dice,random,tabletop,3,board,game" categories="gaming">
  <path d="M 5 2 C 3.3552972 2 2 3.3552972 2 5 L 2 19 C 2 20.644703 3.3552972 22 5 22 L 19 22 C 20.644703 22 22 20.644703 22 19 L 22 5 C 22 3.3552972 20.644703 2 19 2 L 5 2 z M 5 4 L 19 4 C 19.571297 4 20 4.4287028 20 5 L 20 19 C 20 19.571297 19.571297 20 19 20 L 5 20 C 4.4287028 20 4 19.571297 4 19 L 4 5 C 4 4.4287028 4.4287028 4 5 4 z M 16 7 A 1 1 0 0 0 15 8 A 1 1 0 0 0 16 9 L 16.009766 9 A 1 1 0 0 0 17.009766 8 A 1 1 0 0 0 16.009766 7 L 16 7 z M 12 11 A 1 1 0 0 0 11 12 A 1 1 0 0 0 12 13 L 12.009766 13 A 1 1 0 0 0 13.009766 12 A 1 1 0 0 0 12.009766 11 L 12 11 z M 8 15 A 1 1 0 0 0 7 16 A 1 1 0 0 0 8 17 L 8.0097656 17 A 1 1 0 0 0 9.0097656 16 A 1 1 0 0 0 8.0097656 15 L 8 15 z "/>
</svg>
