<?xml version="1.0" encoding="UTF-8" standalone="no"?>
<svg xmlns="http://www.w3.org/2000/svg" xmlns:svg="http://www.w3.org/2000/svg" width="24" height="24" viewBox="0 0 24 24" fill="currentColor" tags="patch,difference,compare,plus,minus,plus-minus,maths" categories="development,files">
  <path d="M 12 2 A 1 1 0 0 0 11 3 L 11 9 L 5 9 A 1 1 0 0 0 4 10 A 1 1 0 0 0 5 11 L 11 11 L 11 17 A 1 1 0 0 0 12 18 A 1 1 0 0 0 13 17 L 13 11 L 19 11 A 1 1 0 0 0 20 10 A 1 1 0 0 0 19 9 L 13 9 L 13 3 A 1 1 0 0 0 12 2 z M 5 20 A 1 1 0 0 0 4 21 A 1 1 0 0 0 5 22 L 19 22 A 1 1 0 0 0 20 21 A 1 1 0 0 0 19 20 L 5 20 z "/>
</svg>
