<?xml version="1.0" encoding="UTF-8" standalone="no"?>
<svg xmlns="http://www.w3.org/2000/svg" xmlns:svg="http://www.w3.org/2000/svg" width="24" height="24" viewBox="0 0 24 24" fill="currentColor" tags="album,music,vinyl,record,cd,dvd,format,dj,spin,rotate,rpm" categories="devices,multimedia">
  <path d="M 12 1 C 5.9367124 1 1 5.9367124 1 12 C 1 18.063288 5.9367124 23 12 23 C 18.063288 23 23 18.063288 23 12 C 23 5.9367124 18.063288 1 12 1 z M 12 3 C 16.982407 3 21 7.0175926 21 12 C 21 16.982407 16.982407 21 12 21 C 7.0175926 21 3 16.982407 3 12 C 3 7.0175926 7.0175926 3 12 3 z M 12 7 C 9.2504209 7 7 9.2504209 7 12 C 7 14.749579 9.2504209 17 12 17 C 14.749579 17 17 14.749579 17 12 C 17 9.2504209 14.749579 7 12 7 z M 12 9 C 13.668699 9 15 10.331301 15 12 C 15 13.668699 13.668699 15 12 15 C 10.331301 15 9 13.668699 9 12 C 9 10.331301 10.331301 9 12 9 z M 12 11 A 1 1 0 0 0 11 12 A 1 1 0 0 0 12 13 L 12.009766 13 A 1 1 0 0 0 13.009766 12 A 1 1 0 0 0 12.009766 11 L 12 11 z "/>
</svg>
