<svg xmlns="http://www.w3.org/2000/svg" xmlns:svg="http://www.w3.org/2000/svg" width="24" height="24" viewBox="0 0 24 24" fill="currentColor" tags="album,music,vinyl,record,cd,dvd,format,dj,spin,rotate,rpm" categories="devices,multimedia">
  <path d="M 12 1 C 5.9367124 1 1 5.9367124 1 12 C 1 18.063288 5.9367124 23 12 23 C 18.063288 23 23 18.063288 23 12 C 23 5.9367124 18.063288 1 12 1 z M 12 3 C 16.982407 3 21 7.0175926 21 12 C 21 16.982407 16.982407 21 12 21 C 7.0175926 21 3 16.982407 3 12 C 3 7.0175926 7.0175926 3 12 3 z M 7.8476562 6.8007812 A 1 1 0 0 0 7.1269531 7.0605469 C 5.8149039 8.2533189 5 10.02549 5 12 A 1 1 0 0 0 6 13 A 1 1 0 0 0 7 12 C 7 10.57451 7.5847053 9.3462905 8.4726562 8.5390625 A 1 1 0 0 0 8.5390625 7.1269531 A 1 1 0 0 0 7.8476562 6.8007812 z M 12 9 C 10.35499 9 9 10.35499 9 12 C 9 13.64501 10.35499 15 12 15 C 13.64501 15 15 13.64501 15 12 C 15 10.35499 13.64501 9 12 9 z M 12 11 C 12.564129 11 13 11.435871 13 12 C 13 12.564129 12.564129 13 12 13 C 11.435871 13 11 12.564129 11 12 C 11 11.435871 11.435871 11 12 11 z M 18 11 A 1 1 0 0 0 17 12 C 17 13.42549 16.415295 14.653709 15.527344 15.460938 A 1 1 0 0 0 15.460938 16.873047 A 1 1 0 0 0 16.873047 16.939453 C 18.1851 15.746677 19 13.97451 19 12 A 1 1 0 0 0 18 11 z "/>
</svg>
