<?xml version="1.0" encoding="UTF-8" standalone="no"?>
<svg xmlns="http://www.w3.org/2000/svg" xmlns:svg="http://www.w3.org/2000/svg" width="24" height="24" viewBox="0 0 24 24" fill="currentColor" tags="gene,gmo free,helix,heredity,chromosome,nucleic acid" categories="medical,food-beverage">
  <path d="M 2 1 A 1 1 0 0 0 1.2929688 1.2929688 A 1 1 0 0 0 1.2929688 2.7070312 L 9.6308594 11.044922 C 8.5776335 11.100319 7.498687 11.224024 6.4101562 11.503906 A 1 1 0 0 0 6.0742188 11.595703 C 4.4923241 12.049299 2.8942651 12.84795 1.3300781 14.255859 A 1 1 0 0 0 1.2558594 15.669922 A 1 1 0 0 0 2.6699219 15.744141 C 2.7880014 15.637858 2.9058396 15.53571 3.0234375 15.4375 L 3.2929688 15.707031 A 1 1 0 0 0 4.7070312 15.707031 A 1 1 0 0 0 4.7070312 14.292969 L 4.6972656 14.283203 C 5.1999866 14.006193 5.7020393 13.78949 6.2050781 13.619141 L 6.7929688 14.207031 A 1 1 0 0 0 8.2070312 14.207031 A 1 1 0 0 0 8.4296875 13.132812 C 9.4528665 13.011573 10.49772 13.000692 11.585938 13 L 21.292969 22.707031 A 1 1 0 0 0 22.707031 22.707031 A 1 1 0 0 0 22.707031 21.292969 L 12.716797 11.302734 A 1 1 0 0 0 12.697266 11.283203 L 2.7070312 1.2929688 A 1 1 0 0 0 2 1 z M 14.947266 1 A 1 1 0 0 0 14.255859 1.3300781 C 13.916298 1.7073682 13.618029 2.088682 13.34375 2.4707031 A 1 1 0 0 0 13.304688 2.5175781 C 12.427662 3.7512573 11.871038 5.0034246 11.535156 6.2382812 A 1.0001 1.0001 0 0 0 11.792969 7.2070312 L 13.292969 8.7070312 A 1 1 0 0 0 14.707031 8.7070312 A 1 1 0 0 0 14.707031 7.2929688 L 13.667969 6.2539062 C 13.836364 5.7419542 14.040628 5.231732 14.306641 4.7207031 L 16.292969 6.7070312 A 1 1 0 0 0 17.707031 6.7070312 A 1 1 0 0 0 17.707031 5.2929688 L 15.4375 3.0234375 C 15.534835 2.9056509 15.637517 2.788392 15.744141 2.6699219 A 1 1 0 0 0 15.669922 1.2558594 A 1 1 0 0 0 14.947266 1 z M 20 8 A 1 1 0 0 0 19.292969 8.2929688 A 1 1 0 0 0 19.279297 9.6933594 C 18.768202 9.9594216 18.258111 10.163615 17.746094 10.332031 L 17.207031 9.7929688 A 1 1 0 0 0 15.792969 9.7929688 A 1 1 0 0 0 15.792969 11.207031 L 16.792969 12.207031 A 1.0001 1.0001 0 0 0 17.761719 12.464844 C 18.996576 12.128962 20.248743 11.572338 21.482422 10.695312 A 1 1 0 0 0 21.529297 10.65625 C 21.911318 10.381971 22.292632 10.083702 22.669922 9.7441406 A 1 1 0 0 0 22.744141 8.3300781 A 1 1 0 0 0 21.330078 8.2558594 C 21.211608 8.3624824 21.094349 8.465165 20.976562 8.5625 L 20.707031 8.2929688 A 1 1 0 0 0 20 8 z M 10 15 A 1 1 0 0 0 9.2929688 15.292969 A 1 1 0 0 0 9.2929688 16.707031 L 10.332031 17.746094 C 10.163636 18.258046 9.9593721 18.768268 9.6933594 19.279297 L 7.7070312 17.292969 A 1 1 0 0 0 6.2929688 17.292969 A 1 1 0 0 0 6.2929688 18.707031 L 8.5625 20.976562 C 8.465165 21.094349 8.3624824 21.211608 8.2558594 21.330078 A 1 1 0 0 0 8.3300781 22.744141 A 1 1 0 0 0 9.7441406 22.669922 C 10.083702 22.292632 10.381971 21.911318 10.65625 21.529297 A 1 1 0 0 0 10.695312 21.482422 C 11.572338 20.248743 12.128962 18.996576 12.464844 17.761719 A 1.0001 1.0001 0 0 0 12.207031 16.792969 L 10.707031 15.292969 A 1 1 0 0 0 10 15 z "/>
</svg>
