<?xml version="1.0" encoding="UTF-8" standalone="no"?>
<svg xmlns="http://www.w3.org/2000/svg" xmlns:svg="http://www.w3.org/2000/svg" width="24" height="24" viewBox="0 0 24 24" fill="currentColor" tags="gene,gmo free,helix,heredity,chromosome,nucleic acid" categories="medical,food-beverage">
  <path d="M 2 1 A 1 1 0 0 0 1.2929688 1.2929688 A 1 1 0 0 0 1.2929688 2.7070312 L 9.6308594 11.044922 C 8.5732654 11.100474 7.4915814 11.225632 6.3984375 11.507812 A 1 1 0 0 0 6.0917969 11.589844 C 4.9139332 11.925724 3.7281013 12.456492 2.5527344 13.283203 A 1 1 0 0 0 2.5 13.320312 C 2.1088212 13.598525 1.7178447 13.906834 1.3300781 14.255859 A 1 1 0 0 0 1.2558594 15.669922 A 1 1 0 0 0 2.6699219 15.744141 C 2.7882984 15.637591 2.905545 15.535937 3.0234375 15.4375 L 3.2929688 15.707031 A 1 1 0 0 0 4.7070312 15.707031 A 1 1 0 0 0 4.7070312 14.292969 L 4.6972656 14.283203 C 5.1999224 14.006278 5.7021014 13.789441 6.2050781 13.619141 L 6.7929688 14.207031 A 1 1 0 0 0 8.2070312 14.207031 A 1 1 0 0 0 8.4296875 13.130859 C 9.45194 13.00977 10.500731 13.002658 11.587891 13.001953 L 21.292969 22.707031 A 1 1 0 0 0 22.707031 22.707031 A 1 1 0 0 0 22.707031 21.292969 L 12.742188 11.330078 A 1 1 0 0 0 12.669922 11.257812 L 2.7070312 1.2929688 A 1 1 0 0 0 2 1 z M 14.947266 1 A 1 1 0 0 0 14.255859 1.3300781 C 12.80599 2.9410443 11.979433 4.6049118 11.535156 6.2382812 A 1.0001 1.0001 0 0 0 11.792969 7.2070312 L 13.292969 8.7070312 A 1 1 0 0 0 14.707031 8.7070312 A 1 1 0 0 0 14.707031 7.2929688 L 13.667969 6.2539062 C 13.836211 5.7424196 14.042933 5.2332184 14.308594 4.7226562 L 16.292969 6.7070312 A 1 1 0 0 0 17.707031 6.7070312 A 1 1 0 0 0 17.707031 5.2929688 L 15.439453 3.0253906 C 15.537035 2.9072771 15.63722 2.7887225 15.744141 2.6699219 A 1 1 0 0 0 15.669922 1.2558594 A 1 1 0 0 0 14.947266 1 z M 20 8 A 1 1 0 0 0 19.292969 8.2929688 A 1 1 0 0 0 19.279297 9.6914062 C 18.768216 9.957458 18.258096 10.163619 17.746094 10.332031 L 17.207031 9.7929688 A 1 1 0 0 0 15.792969 9.7929688 A 1 1 0 0 0 15.792969 11.207031 L 16.792969 12.207031 A 1.0001 1.0001 0 0 0 17.761719 12.464844 C 19.395088 12.020567 21.058955 11.194011 22.669922 9.7441406 A 1 1 0 0 0 22.744141 8.3300781 A 1 1 0 0 0 21.330078 8.2558594 C 21.211278 8.36278 21.092723 8.4629654 20.974609 8.5605469 L 20.707031 8.2929688 A 1 1 0 0 0 20 8 z M 10 15 A 1 1 0 0 0 9.2929688 15.292969 A 1 1 0 0 0 9.2929688 16.707031 L 10.332031 17.746094 C 10.163789 18.25758 9.9570672 18.766782 9.6914062 19.277344 L 7.7070312 17.292969 A 1 1 0 0 0 7 17 A 1 1 0 0 0 6.2929688 17.292969 A 1 1 0 0 0 6.2929688 18.707031 L 8.5605469 20.974609 C 8.4629654 21.092723 8.36278 21.211278 8.2558594 21.330078 A 1 1 0 0 0 8.3300781 22.744141 A 1 1 0 0 0 9.7441406 22.669922 C 10.097229 22.277602 10.412677 21.881765 10.695312 21.484375 C 11.573249 20.249981 12.128762 18.997312 12.464844 17.761719 A 1.0001 1.0001 0 0 0 12.207031 16.792969 L 10.707031 15.292969 A 1 1 0 0 0 10 15 z "/>
</svg>
