<?xml version="1.0" encoding="UTF-8" standalone="no"?>
<svg xmlns="http://www.w3.org/2000/svg" xmlns:svg="http://www.w3.org/2000/svg" width="24" height="24" viewBox="0 0 24 24" fill="currentColor" tags="gene,gmo free,helix,heredity,chromosome,nucleic acid" categories="medical,food-beverage">
  <path d="M 2 1 A 1 1 0 0 0 1.2929688 1.2929688 A 1 1 0 0 0 1.2929688 2.7070312 L 9.6308594 11.044922 C 8.5817313 11.100029 7.5080704 11.228424 6.4238281 11.505859 A 1 1 0 0 0 6.0898438 11.591797 C 4.5029913 12.044627 2.8992691 12.843444 1.3300781 14.255859 A 1 1 0 0 0 1.2558594 15.669922 A 1 1 0 0 0 2.6699219 15.744141 C 2.7895631 15.636453 2.9081965 15.540809 3.0273438 15.441406 L 3.2929688 15.707031 A 1 1 0 0 0 4.7070312 15.707031 A 1 1 0 0 0 4.7070312 14.292969 L 4.7011719 14.287109 C 5.2031557 14.010839 5.7047189 13.791067 6.2070312 13.621094 L 6.7929688 14.207031 A 1 1 0 0 0 8.2070312 14.207031 A 1 1 0 0 0 8.4296875 13.130859 C 9.45194 13.00977 10.500731 13.002658 11.587891 13.001953 L 21.292969 22.707031 A 1 1 0 0 0 22.707031 22.707031 A 1 1 0 0 0 22.707031 21.292969 L 2.7070312 1.2929688 A 1 1 0 0 0 2 1 z M 14.947266 1 A 1 1 0 0 0 14.255859 1.3300781 C 12.80599 2.9410443 11.979433 4.6049118 11.535156 6.2382812 A 1 1 0 0 0 11.533203 6.2578125 A 1 1 0 0 0 11.509766 6.5976562 A 1 1 0 0 0 11.515625 6.6484375 A 1 1 0 0 0 11.625 6.9726562 A 1 1 0 0 0 11.644531 7.0117188 A 1 1 0 0 0 11.792969 7.2070312 L 13.292969 8.7070312 A 1 1 0 0 0 14.707031 8.7070312 A 1 1 0 0 0 14.707031 7.2929688 L 13.630859 6.2167969 C 13.799585 5.7105166 14.013982 5.2083335 14.289062 4.703125 L 16.292969 6.7070312 A 1 1 0 0 0 17.707031 6.7070312 A 1 1 0 0 0 17.707031 5.2929688 L 15.441406 3.0273438 C 15.540224 2.908775 15.636774 2.7892181 15.744141 2.6699219 A 1 1 0 0 0 15.669922 1.2558594 A 1 1 0 0 0 14.947266 1 z M 20 8 A 1 1 0 0 0 19.292969 8.2929688 A 1 1 0 0 0 19.292969 9.7070312 L 19.296875 9.7109375 C 18.791666 9.9860184 18.289483 10.200415 17.783203 10.369141 L 17.207031 9.7929688 A 1 1 0 0 0 15.792969 9.7929688 A 1 1 0 0 0 15.792969 11.207031 L 16.792969 12.207031 A 1 1 0 0 0 16.986328 12.353516 A 1 1 0 0 0 17.021484 12.375 A 1 1 0 0 0 17.351562 12.484375 A 1 1 0 0 0 17.386719 12.492188 A 1 1 0 0 0 17.757812 12.464844 A 1 1 0 0 0 17.761719 12.464844 C 19.395088 12.020567 21.058955 11.194011 22.669922 9.7441406 A 1 1 0 0 0 22.744141 8.3300781 A 1 1 0 0 0 21.330078 8.2558594 C 21.210782 8.3632259 21.091225 8.4597761 20.972656 8.5585938 L 20.707031 8.2929688 A 1 1 0 0 0 20 8 z M 10 15 A 1 1 0 0 0 9.2929688 15.292969 A 1 1 0 0 0 9.2929688 16.707031 L 10.369141 17.783203 C 10.200415 18.289483 9.9860184 18.791666 9.7109375 19.296875 L 7.7070312 17.292969 A 1 1 0 0 0 7 17 A 1 1 0 0 0 6.2929688 17.292969 A 1 1 0 0 0 6.2929688 18.707031 L 8.5585938 20.972656 C 8.4597761 21.091225 8.3632259 21.210782 8.2558594 21.330078 A 1 1 0 0 0 8.3300781 22.744141 A 1 1 0 0 0 9.7441406 22.669922 C 11.176178 21.07877 11.99913 19.436275 12.447266 17.822266 A 1 1 0 0 0 12.464844 17.761719 A 1 1 0 0 0 12.464844 17.757812 A 1 1 0 0 0 12.5 17.478516 A 1 1 0 0 0 12.5 17.46875 A 1 1 0 0 0 12.400391 17.066406 A 1 1 0 0 0 12.398438 17.064453 A 1 1 0 0 0 12.396484 17.058594 A 1 1 0 0 0 12.330078 16.941406 A 1 1 0 0 0 12.320312 16.929688 A 1 1 0 0 0 12.207031 16.792969 L 10.707031 15.292969 A 1 1 0 0 0 10 15 z "/>
</svg>
