<?xml version="1.0" encoding="UTF-8" standalone="no"?>
<svg xmlns="http://www.w3.org/2000/svg" xmlns:svg="http://www.w3.org/2000/svg" width="24" height="24" viewBox="0 0 24 24" fill="currentColor" tags="gene,gmo,helix,heredity,chromosome,nucleic acid" categories="medical">
  <path d="M 14.945312 1.0019531 A 1 1 0 0 0 14.255859 1.3320312 C 12.788072 2.9630878 11.966981 4.6447591 11.521484 6.296875 A 1 1 0 0 0 11.519531 6.3066406 C 11.38031 6.8245974 11.276814 7.3401612 11.203125 7.8496094 A 1 1 0 0 0 12.050781 8.9824219 A 1 1 0 0 0 13.060547 8.4746094 L 13.292969 8.7070312 A 1 1 0 0 0 14.707031 8.7070312 A 1 1 0 0 0 14.707031 7.2929688 L 13.626953 6.2128906 C 13.795001 5.7076163 14.009713 5.2035523 14.285156 4.6992188 L 16.292969 6.7070312 A 1 1 0 0 0 17.707031 6.7070312 A 1 1 0 0 0 17.707031 5.2929688 L 15.435547 3.0214844 C 15.53387 2.9036451 15.637473 2.7865016 15.744141 2.6679688 A 1 1 0 0 0 15.667969 1.2558594 A 1 1 0 0 0 14.945312 1.0019531 z M 20 8 A 1 1 0 0 0 19.292969 8.2929688 A 1 1 0 0 0 19.292969 9.7070312 L 19.298828 9.7128906 C 18.796603 9.9893449 18.295486 10.208858 17.792969 10.378906 L 17.207031 9.7929688 A 1 1 0 0 0 15.792969 9.7929688 A 1 1 0 0 0 15.574219 10.867188 C 14.420905 11.004137 13.239552 11 12 11 C 10.230691 11 8.3420043 11.015003 6.4238281 11.505859 A 1 1 0 0 0 6.0898438 11.591797 C 4.9127636 11.927713 3.7274222 12.457036 2.5527344 13.283203 A 1 1 0 0 0 2.5 13.320312 C 2.1087982 13.598519 1.717891 13.906845 1.3300781 14.255859 A 1 1 0 0 0 1.2558594 15.669922 A 1 1 0 0 0 2.6699219 15.744141 C 2.7895858 15.636448 2.908178 15.540813 3.0273438 15.441406 L 3.2929688 15.707031 A 1 1 0 0 0 4.7070312 15.707031 A 1 1 0 0 0 4.7070312 14.292969 L 4.7011719 14.287109 C 5.2033973 14.010655 5.7045142 13.791143 6.2070312 13.621094 L 6.7929688 14.207031 A 1 1 0 0 0 8.2070312 14.207031 A 1 1 0 0 0 8.4296875 13.130859 C 9.5817179 12.994401 10.761896 13 12 13 C 13.767474 13 15.654186 12.985445 17.570312 12.496094 A 1 1 0 0 0 17.919922 12.40625 L 17.921875 12.40625 L 17.923828 12.404297 C 19.094166 12.068845 20.273474 11.542914 21.441406 10.722656 A 1 1 0 0 0 21.490234 10.6875 C 21.884858 10.407462 22.27874 10.096187 22.669922 9.7441406 A 1 1 0 0 0 22.744141 8.3300781 A 1 1 0 0 0 22.052734 8.0019531 A 1 1 0 0 0 21.330078 8.2558594 C 21.210414 8.3635515 21.091822 8.4591872 20.972656 8.5585938 L 20.707031 8.2929688 A 1 1 0 0 0 20 8 z M 10 15 A 1 1 0 0 0 9.2929688 15.292969 A 1 1 0 0 0 9.2929688 16.707031 L 10.373047 17.787109 C 10.204999 18.292384 9.9902869 18.796448 9.7148438 19.300781 L 7.7070312 17.292969 A 1 1 0 0 0 7 17 A 1 1 0 0 0 6.2929688 17.292969 A 1 1 0 0 0 6.2929688 18.707031 L 8.5644531 20.978516 C 8.4661303 21.096355 8.362527 21.213498 8.2558594 21.332031 A 1 1 0 0 0 8.3320312 22.744141 A 1 1 0 0 0 9.7441406 22.667969 C 10.092989 22.280316 10.406069 21.890407 10.685547 21.498047 C 10.68879 21.493494 10.692078 21.488928 10.695312 21.484375 A 1 1 0 0 0 10.716797 21.453125 C 11.561806 20.255783 12.100851 19.042787 12.439453 17.84375 A 1 1 0 0 0 12.460938 17.769531 C 12.462032 17.765559 12.463753 17.761784 12.464844 17.757812 A 1 1 0 0 0 12.480469 17.691406 C 12.619439 17.174066 12.723273 16.65924 12.796875 16.150391 A 1 1 0 0 0 11.949219 15.017578 A 1 1 0 0 0 10.939453 15.525391 L 10.707031 15.292969 A 1 1 0 0 0 10 15 z "/>
</svg>
