<?xml version="1.0" encoding="UTF-8" standalone="no"?>
<svg xmlns="http://www.w3.org/2000/svg" xmlns:svg="http://www.w3.org/2000/svg" width="24" height="24" viewBox="0 0 24 24" fill="currentColor" tags="gene,gmo,helix,heredity,chromosome,nucleic acid" categories="medical">
  <path d="M 14.945312 1.0019531 A 1 1 0 0 0 14.255859 1.3320312 C 12.825412 2.9215946 12.007673 4.5603365 11.554688 6.171875 A 1 1 0 0 0 11.521484 6.2988281 C 11.381106 6.8196257 11.277213 7.3373991 11.203125 7.8496094 A 1 1 0 0 0 12.050781 8.9824219 A 1 1 0 0 0 13.066406 8.4804688 L 13.292969 8.7070312 A 1 1 0 0 0 14.707031 8.7070312 A 1 1 0 0 0 14.707031 7.2929688 L 13.626953 6.2128906 C 13.795109 5.7072486 14.009442 5.2039204 14.285156 4.6992188 L 16.292969 6.7070312 A 1 1 0 0 0 17.707031 6.7070312 A 1 1 0 0 0 17.707031 5.2929688 L 15.4375 3.0234375 C 15.535848 2.9055657 15.637443 2.7865345 15.744141 2.6679688 A 1 1 0 0 0 15.667969 1.2558594 A 1 1 0 0 0 14.945312 1.0019531 z M 20 8 A 1 1 0 0 0 19.292969 8.2929688 A 1 1 0 0 0 19.292969 9.7070312 L 19.302734 9.7167969 C 18.800004 9.9938223 18.297933 10.210502 17.794922 10.380859 L 17.207031 9.7929688 A 1 1 0 0 0 15.792969 9.7929688 A 1 1 0 0 0 15.570312 10.869141 C 14.418094 11.005671 13.238316 11 12 11 C 10.226348 11 8.333186 11.009474 6.4101562 11.503906 A 1 1 0 0 0 6.0742188 11.595703 C 4.4925465 12.049331 2.8942899 12.848139 1.3300781 14.255859 A 1 1 0 0 0 1.2558594 15.669922 A 1 1 0 0 0 2.6699219 15.744141 C 2.7880105 15.637866 2.9058344 15.535704 3.0234375 15.4375 L 3.2929688 15.707031 A 1 1 0 0 0 4.7070312 15.707031 A 1 1 0 0 0 4.7070312 14.292969 L 4.6972656 14.283203 C 5.1999956 14.006178 5.7020667 13.789498 6.2050781 13.619141 L 6.7929688 14.207031 A 1 1 0 0 0 8.2070312 14.207031 A 1 1 0 0 0 8.4296875 13.130859 C 9.5819064 12.994329 10.761684 13 12 13 C 13.773905 13 15.668485 12.990735 17.591797 12.496094 A 1 1 0 0 0 17.925781 12.404297 C 19.507594 11.95069 21.105568 11.151987 22.669922 9.7441406 A 1 1 0 0 0 22.744141 8.3300781 A 1 1 0 0 0 22.052734 8.0019531 A 1 1 0 0 0 21.330078 8.2558594 C 21.21199 8.3621336 21.094165 8.4642967 20.976562 8.5625 L 20.707031 8.2929688 A 1 1 0 0 0 20 8 z M 10 15 A 1 1 0 0 0 9.2929688 15.292969 A 1 1 0 0 0 9.2929688 16.707031 L 10.373047 17.787109 C 10.204891 18.292752 9.9905577 18.796079 9.7148438 19.300781 L 7.7070312 17.292969 A 1 1 0 0 0 6.2929688 17.292969 A 1 1 0 0 0 6.2929688 18.707031 L 8.5625 20.976562 C 8.4641522 21.094434 8.3625566 21.213466 8.2558594 21.332031 A 1 1 0 0 0 8.3320312 22.744141 A 1 1 0 0 0 9.7441406 22.667969 C 10.090359 22.283239 10.399872 21.895233 10.677734 21.505859 A 1 1 0 0 0 10.732422 21.429688 C 11.571232 20.235254 12.10919 19.023918 12.445312 17.828125 A 1 1 0 0 0 12.478516 17.701172 C 12.618896 17.18037 12.722786 16.662605 12.796875 16.150391 A 1 1 0 0 0 11.949219 15.017578 A 1 1 0 0 0 10.933594 15.519531 L 10.707031 15.292969 A 1 1 0 0 0 10 15 z "/>
</svg>
