<?xml version="1.0" encoding="UTF-8" standalone="no"?>
<svg xmlns="http://www.w3.org/2000/svg" xmlns:svg="http://www.w3.org/2000/svg" width="24" height="24" viewBox="0 0 24 24" fill="currentColor" tags="desktop,applications,launch,home,menu bar,bottom,line,macos,osx" categories="layout,design,development,files">
  <path d="M 4 3 C 2.3553005 3 1 4.3553005 1 6 L 1 18 C 1 19.644699 2.3553005 21 4 21 L 20 21 C 21.644699 21 23 19.644699 23 18 L 23 6 C 23 4.3553005 21.644699 3 20 3 L 4 3 z M 4 5 L 20 5 C 20.571296 5 21 5.4287039 21 6 L 21 7 L 3 7 L 3 6 C 3 5.4287039 3.4287039 5 4 5 z M 3 9 L 21 9 L 21 18 C 21 18.571296 20.571296 19 20 19 L 4 19 C 3.4287039 19 3 18.571296 3 18 L 3 9 z M 6 15 A 1 1 0 0 0 5 16 A 1 1 0 0 0 6 17 L 18 17 A 1 1 0 0 0 19 16 A 1 1 0 0 0 18 15 L 6 15 z "/>
</svg>
