<?xml version="1.0" encoding="UTF-8" standalone="no"?>
<svg xmlns="http://www.w3.org/2000/svg" xmlns:svg="http://www.w3.org/2000/svg" width="24" height="24" viewBox="0 0 24 24" fill="currentColor" tags="animal,pet,puppy,hound,canine" categories="animals">
  <path d="M 7.2246094 1.9453125 C 6.9337021 1.9409004 6.6367956 1.9634506 6.3359375 2.0136719 C 4.3213666 2.3490769 3.1951746 4.2157568 2.4785156 5.9140625 C 2.1201861 6.7632154 1.866681 7.6122733 1.7050781 8.3339844 C 1.5434752 9.0556954 1.441722 9.5490993 1.5058594 10.113281 C 1.5663234 10.644605 1.8417151 10.996252 2.1503906 11.285156 C 2.4500984 11.565667 2.8159714 11.786847 3.2402344 11.953125 C 3.0805874 12.811307 2.9992144 13.682281 3 14.556641 C 3 16.928834 4.0743098 18.885469 5.7421875 20.140625 C 7.4100652 21.395781 9.6195801 22 12 22 C 14.38042 22 16.589935 21.395781 18.257812 20.140625 C 19.92569 18.885469 21 16.928834 21 14.556641 A 1.0001 1.0001 0 0 0 21 14.554688 A 1.0001 1.0001 0 0 0 21 14.552734 A 1.0001 1.0001 0 0 0 21 14.550781 C 20.996268 13.709958 20.907173 12.872604 20.738281 12.050781 C 20.823058 12.024585 20.90779 11.999407 20.988281 11.96875 C 21.428903 11.80093 21.808512 11.57406 22.117188 11.285156 C 22.425863 10.996252 22.699302 10.644605 22.759766 10.113281 C 22.823856 9.5490992 22.724103 9.0556954 22.5625 8.3339844 C 22.400897 7.6122733 22.147392 6.7632154 21.789062 5.9140625 C 21.072404 4.2157568 19.946211 2.3490769 17.931641 2.0136719 C 16.718001 1.811083 15.54775 2.0794282 14.634766 2.6464844 C 14.048829 3.0104103 13.628019 3.5612747 13.339844 4.1816406 C 12.504063 4.0470542 11.666572 4.0372727 10.828125 4.1542969 C 10.554387 3.5403227 10.151804 2.9923469 9.5800781 2.6308594 C 8.9115165 2.2081454 8.0973311 1.9585489 7.2246094 1.9453125 z M 7.1933594 3.9472656 C 7.7079516 3.9571283 8.1717179 4.105339 8.5117188 4.3203125 C 8.9650531 4.6069439 9.1503906 4.9537635 9.1503906 5.234375 A 1.0001 1.0001 0 0 0 10.396484 6.2050781 C 11.492616 5.9266917 12.642626 5.9379956 13.732422 6.2402344 A 1.0001 1.0001 0 0 0 15 5.2773438 C 15 5.02455 15.199688 4.649897 15.689453 4.3457031 C 16.179218 4.0415093 16.892202 3.867917 17.601562 3.9863281 A 1.0001 1.0001 0 0 0 17.603516 3.9863281 C 18.411945 4.1209231 19.341425 5.255712 19.947266 6.6914062 C 20.250186 7.4092535 20.474619 8.1609454 20.611328 8.7714844 C 20.729981 9.3013806 20.755028 9.727519 20.765625 9.8066406 C 20.759963 9.8129898 20.757614 9.8170929 20.75 9.8242188 C 20.66739 9.9015338 20.499347 10.015054 20.277344 10.099609 C 19.833336 10.268719 19.194633 10.336829 18.460938 10.0625 C 17.528068 9.7133385 17.149089 9.0819513 16.810547 8.15625 A 1 1 0 0 0 15.529297 7.5605469 A 1 1 0 0 0 14.933594 8.84375 C 15.363052 10.018049 16.170592 11.342663 17.759766 11.9375 A 1.0001 1.0001 0 0 0 17.761719 11.9375 C 18.08691 12.059089 18.407142 12.138395 18.720703 12.1875 C 18.901381 12.96489 18.996432 13.760848 19 14.560547 C 18.9989 16.358051 18.281325 17.619866 17.054688 18.542969 C 15.827065 19.466812 14.03758 20 12 20 C 9.9624199 20 8.1729348 19.466812 6.9453125 18.542969 C 5.7176902 17.619125 5 16.356447 5 14.556641 A 1.0001 1.0001 0 0 0 5 14.554688 C 4.9992978 13.773168 5.0737731 12.99436 5.2226562 12.228516 C 5.6372418 12.192814 6.0677516 12.101308 6.5058594 11.9375 C 8.0779649 11.349051 8.9897988 10.073274 9.4394531 8.84375 A 1 1 0 0 0 8.84375 7.5605469 A 1 1 0 0 0 7.5605469 8.15625 C 7.2422012 9.0267264 6.754582 9.7069487 5.8046875 10.0625 C 5.0719858 10.335797 4.4337646 10.268537 3.9902344 10.099609 C 3.7682306 10.015054 3.6001839 9.9015333 3.5175781 9.8242188 C 3.5099646 9.8170929 3.5076149 9.8129898 3.5019531 9.8066406 C 3.5125509 9.727519 3.5375976 9.3013806 3.65625 8.7714844 C 3.7929596 8.1609454 4.017392 7.4092535 4.3203125 6.6914062 C 4.9261535 5.255712 5.8556334 4.1209231 6.6640625 3.9863281 C 6.8439544 3.9562994 7.0218286 3.9439781 7.1933594 3.9472656 z M 8 13 A 1 1 0 0 0 7 14 L 7 14.5 A 1 1 0 0 0 8 15.5 A 1 1 0 0 0 9 14.5 L 9 14 A 1 1 0 0 0 8 13 z M 16 13 A 1 1 0 0 0 15 14 L 15 14.5 A 1 1 0 0 0 16 15.5 A 1 1 0 0 0 17 14.5 L 17 14 A 1 1 0 0 0 16 13 z M 11.25 15.25 A 1.0001 1.0001 0 0 0 10.542969 16.957031 L 11.292969 17.707031 A 1.0001 1.0001 0 0 0 12.707031 17.707031 L 13.457031 16.957031 A 1.0001 1.0001 0 0 0 12.75 15.25 L 11.25 15.25 z "/>
</svg>
