<?xml version="1.0" encoding="UTF-8" standalone="no"?>
<svg xmlns="http://www.w3.org/2000/svg" xmlns:svg="http://www.w3.org/2000/svg" width="24" height="24" viewBox="0 0 24 24" fill="currentColor" tags="animal,pet,puppy,hound,canine" categories="animals">
  <path d="M 7.2246094 1.9453125 C 6.9337024 1.9409003 6.636795 1.9634507 6.3359375 2.0136719 C 4.3213707 2.3490761 3.1951732 4.2157602 2.4785156 5.9140625 C 2.1201869 6.7632137 1.8666807 7.6122747 1.7050781 8.3339844 C 1.5434756 9.055694 1.441722 9.5491004 1.5058594 10.113281 C 1.5663233 10.644605 1.8417158 10.996253 2.1503906 11.285156 C 2.4500978 11.565667 2.8159721 11.786847 3.2402344 11.953125 C 3.0805876 12.811307 2.9992144 13.682283 3 14.556641 C 3 16.928829 4.0743132 18.885471 5.7421875 20.140625 C 7.4100618 21.395779 9.6195848 22 12 22 C 14.380416 22 16.589938 21.395779 18.257812 20.140625 C 19.925688 18.885471 21 16.928829 21 14.556641 A 1.0001 1.0001 0 0 0 21 14.554688 A 1.0001 1.0001 0 0 0 21 14.552734 A 1.0001 1.0001 0 0 0 21 14.550781 C 20.996268 13.709959 20.907173 12.872604 20.738281 12.050781 C 20.823058 12.024585 20.90779 11.999407 20.988281 11.96875 C 21.428902 11.80093 21.808513 11.57406 22.117188 11.285156 C 22.425863 10.996253 22.699302 10.644605 22.759766 10.113281 C 22.823856 9.5491004 22.724103 9.055694 22.5625 8.3339844 C 22.400897 7.6122747 22.147392 6.7632137 21.789062 5.9140625 C 21.072405 4.2157602 19.946207 2.3490761 17.931641 2.0136719 C 16.718003 1.8110834 15.547749 2.0794293 14.634766 2.6464844 C 14.04883 3.0104096 13.628018 3.5612759 13.339844 4.1816406 C 12.504065 4.0470545 11.66657 4.0372729 10.828125 4.1542969 C 10.554388 3.5403239 10.151803 2.9923461 9.5800781 2.6308594 C 8.9115178 2.2081463 8.0973303 1.9585491 7.2246094 1.9453125 z M 7.1933594 3.9472656 C 7.7079511 3.9571284 8.1717185 4.1053393 8.5117188 4.3203125 C 8.9650523 4.6069434 9.1503906 4.9537641 9.1503906 5.234375 A 1.0001 1.0001 0 0 0 10.396484 6.2050781 C 11.492613 5.9266923 12.642629 5.9379962 13.732422 6.2402344 A 1.0001 1.0001 0 0 0 15 5.2773438 C 15 5.0245505 15.199689 4.6498964 15.689453 4.3457031 C 16.179218 4.0415099 16.892204 3.8679172 17.601562 3.9863281 A 1.0001 1.0001 0 0 0 17.603516 3.9863281 C 18.411943 4.1209229 19.341425 5.2557149 19.947266 6.6914062 C 20.250185 7.409252 20.474619 8.1609467 20.611328 8.7714844 C 20.729981 9.3013796 20.755028 9.727519 20.765625 9.8066406 C 20.759963 9.8129898 20.757614 9.8170929 20.75 9.8242188 C 20.66739 9.9015327 20.499347 10.015055 20.277344 10.099609 C 19.833337 10.268719 19.194632 10.336829 18.460938 10.0625 C 17.52807 9.7133391 17.149089 9.0819494 16.810547 8.15625 A 1 1 0 0 0 15.529297 7.5605469 A 1 1 0 0 0 14.933594 8.84375 C 15.36305 10.018047 16.170594 11.342664 17.759766 11.9375 A 1.0001 1.0001 0 0 0 17.761719 11.9375 C 18.086909 12.059088 18.407142 12.138396 18.720703 12.1875 C 18.90138 12.96489 18.996432 13.760849 19 14.560547 C 18.9989 16.358047 18.281323 17.619868 17.054688 18.542969 C 15.827068 19.46681 14.037576 20 12 20 C 9.962424 20 8.1729324 19.46681 6.9453125 18.542969 C 5.7176926 17.619127 5 16.356443 5 14.556641 A 1.0001 1.0001 0 0 0 5 14.554688 C 4.9992978 13.773169 5.0737732 12.994359 5.2226562 12.228516 C 5.6372415 12.192814 6.0677525 12.101308 6.5058594 11.9375 C 8.0779617 11.349053 8.9897997 10.073271 9.4394531 8.84375 A 1 1 0 0 0 8.84375 7.5605469 A 1 1 0 0 0 7.5605469 8.15625 C 7.2422018 9.0267246 6.7545801 9.7069494 5.8046875 10.0625 C 5.0719873 10.335797 4.4337637 10.268537 3.9902344 10.099609 C 3.7682311 10.015055 3.6001837 9.9015332 3.5175781 9.8242188 C 3.5099646 9.8170929 3.5076149 9.8129898 3.5019531 9.8066406 C 3.5125509 9.727519 3.5375978 9.3013796 3.65625 8.7714844 C 3.7929594 8.1609467 4.0173926 7.409252 4.3203125 6.6914062 C 4.9261523 5.2557149 5.855635 4.1209229 6.6640625 3.9863281 C 6.843954 3.9562994 7.0218288 3.943978 7.1933594 3.9472656 z M 8 13 A 1 1 0 0 0 7 14 L 7 14.5 A 1 1 0 0 0 8 15.5 A 1 1 0 0 0 9 14.5 L 9 14 A 1 1 0 0 0 8 13 z M 16 13 A 1 1 0 0 0 15 14 L 15 14.5 A 1 1 0 0 0 16 15.5 A 1 1 0 0 0 17 14.5 L 17 14 A 1 1 0 0 0 16 13 z M 11.25 15.25 A 1.0001 1.0001 0 0 0 10.542969 16.957031 L 11.292969 17.707031 A 1.0001 1.0001 0 0 0 12.707031 17.707031 L 13.457031 16.957031 A 1.0001 1.0001 0 0 0 12.75 15.25 L 11.25 15.25 z "/>
</svg>
