<?xml version="1.0" encoding="UTF-8" standalone="no"?>
<svg xmlns="http://www.w3.org/2000/svg" xmlns:svg="http://www.w3.org/2000/svg" width="24" height="24" viewBox="0 0 24 24" fill="currentColor" tags="currency,money,payment" categories="finance">
  <path d="M 12 1 A 1 1 0 0 0 11 2 L 11 4 L 9.5 4 C 8.0833337 4 6.8935589 4.5672556 6.1269531 5.4296875 C 5.3603473 6.2921194 5 7.4027779 5 8.5 C 5 9.5972221 5.3603473 10.707881 6.1269531 11.570312 C 6.8935589 12.432743 8.0833337 13 9.5 13 L 11 13 L 11 18 L 6 18 A 1 1 0 0 0 5 19 A 1 1 0 0 0 6 20 L 11 20 L 11 22 A 1 1 0 0 0 12 23 A 1 1 0 0 0 13 22 L 13 20 L 14.5 20 C 15.916666 20 17.106441 19.432744 17.873047 18.570312 C 18.639653 17.707881 19 16.597222 19 15.5 C 19 14.402778 18.639653 13.292119 17.873047 12.429688 C 17.106441 11.567255 15.916666 11 14.5 11 L 13 11 L 13 6 L 17 6 A 1 1 0 0 0 18 5 A 1 1 0 0 0 17 4 L 13 4 L 13 2 A 1 1 0 0 0 12 1 z M 9.5 6 L 11 6 L 11 11 L 9.5 11 C 8.5833339 11 8.0231072 10.692256 7.6230469 10.242188 C 7.2229865 9.7921189 7 9.1527779 7 8.5 C 7 7.8472221 7.2229865 7.2078806 7.6230469 6.7578125 C 8.0231072 6.3077444 8.5833339 6 9.5 6 z M 13 13 L 14.5 13 C 15.416666 13 15.976893 13.307744 16.376953 13.757812 C 16.777013 14.20788 17 14.847222 17 15.5 C 17 16.152778 16.777013 16.792119 16.376953 17.242188 C 15.976893 17.692256 15.416666 18 14.5 18 L 13 18 L 13 13 z "/>
</svg>
