<svg xmlns="http://www.w3.org/2000/svg" xmlns:svg="http://www.w3.org/2000/svg" width="24" height="24" viewBox="0 0 24 24" fill="currentColor" tags="doughnut,sprinkles,topping,fast food,junk food,snack,treat,sweet,sugar,dessert,hollow,ring" categories="food-beverage">
  <path d="M 11.863281 0.95507812 C 8.1067961 0.95388037 4.818484 2.9421252 2.8730469 5.8007812 C 0.27913063 9.6123227 -0.00083829654 15.074886 3.7402344 19.291016 C 7.481307 23.507145 12.938161 23.877857 17.03125 21.755859 C 21.124339 19.633861 23.966456 14.960395 22.673828 9.4707031 A 1.0001 1.0001 0 0 0 21.144531 8.8671875 C 21.143244 8.868046 20.749139 8.9927789 20.513672 8.9980469 C 19.560227 8.9752399 18.888894 8.1348729 19.080078 7.1992188 A 1.0001 1.0001 0 0 0 18.099609 6 L 18 6 A 1.0001 1.0001 0 0 0 17.990234 6 C 16.44032 6.0163125 15.509517 4.4416164 16.271484 3.0917969 A 1.0001 1.0001 0 0 0 15.744141 1.6601562 C 14.419915 1.1760054 13.115443 0.95547737 11.863281 0.95507812 z M 11.832031 2.9375 C 12.592765 2.94135 13.405933 3.1637072 14.216797 3.3828125 C 13.884752 5.3899566 15.127016 7.2964024 17.144531 7.7675781 C 17.291392 9.4954691 18.65353 10.9639 20.480469 11 A 1 1 0 0 0 20.490234 10.990234 A 1 1 0 0 0 20.5 11 C 20.59405 11 20.695775 10.926865 20.791016 10.921875 C 21.332292 15.056575 19.240363 18.358269 16.111328 19.980469 C 12.725761 21.735668 8.3863479 21.514866 5.2363281 17.964844 C 2.0863084 14.414822 2.3818056 10.078469 4.5273438 6.9257812 C 6.1364974 4.5612655 8.7462063 2.9218793 11.832031 2.9375 z M 12 8 C 9.8027056 8 8 9.8027056 8 12 C 8 14.197294 9.8027056 16 12 16 C 14.197294 16 16 14.197294 16 12 C 16 9.8027056 14.197294 8 12 8 z M 12 10 C 13.116414 10 14 10.883586 14 12 C 14 13.116414 13.116414 14 12 14 C 10.883586 14 10 13.116414 10 12 C 10 10.883586 10.883586 10 12 10 z "/>
</svg>
