<?xml version="1.0" encoding="UTF-8" standalone="no"?>
<svg xmlns="http://www.w3.org/2000/svg" xmlns:svg="http://www.w3.org/2000/svg" width="24" height="24" viewBox="0 0 24 24" fill="currentColor" tags="doughnut,sprinkles,topping,fast food,junk food,snack,treat,sweet,sugar,dessert,hollow,ring" categories="food-beverage">
  
  <path d="M 11.863281 0.95507812 C 8.1068037 0.95388038 4.8184801 2.9421309 2.8730469 5.8007812 C 0.27913581 9.6123151 -0.00083081439 15.074894 3.7402344 19.291016 C 7.4812995 23.507136 12.93817 23.877853 17.03125 21.755859 C 21.12433 19.633865 23.966453 14.960384 22.673828 9.4707031 A 1.0001 1.0001 0 0 0 21.144531 8.8671875 C 21.143244 8.868046 20.749138 8.9927789 20.513672 8.9980469 C 19.560229 8.9752399 18.888895 8.1348709 19.080078 7.1992188 A 1.0001 1.0001 0 0 0 18.099609 6 L 18 6 A 1.0001 1.0001 0 0 0 17.990234 6 C 16.440323 6.0163125 15.509519 4.4416136 16.271484 3.0917969 A 1.0001 1.0001 0 0 0 15.744141 1.6601562 C 14.419918 1.1760064 13.115441 0.95547736 11.863281 0.95507812 z M 11.832031 2.9375 C 12.592763 2.94135 13.405935 3.1637076 14.216797 3.3828125 C 13.884752 5.3899526 15.12702 7.2964034 17.144531 7.7675781 C 17.291392 9.4954656 18.653534 10.9639 20.480469 11 A 1 1 0 0 0 20.486328 10.994141 A 1 1 0 0 0 20.5 11 C 20.59405 11 20.695775 10.926865 20.791016 10.921875 C 21.33229 15.056567 19.240357 18.358272 16.111328 19.980469 C 12.725768 21.735665 8.3863416 21.514858 5.2363281 17.964844 C 2.0863147 14.414828 2.3818099 10.078463 4.5273438 6.9257812 C 6.1364942 4.5612702 8.7462125 2.9218793 11.832031 2.9375 z M 12 8 C 9.80271 8 8 9.80271 8 12 C 8 14.19729 9.80271 16 12 16 C 14.19729 16 16 14.19729 16 12 C 16 9.80271 14.19729 8 12 8 z M 12 10 C 13.116412 10 14 10.883588 14 12 C 14 13.116412 13.116412 14 12 14 C 10.883588 14 10 13.116412 10 12 C 10 10.883588 10.883588 10 12 10 z "/>
</svg>
