<?xml version="1.0" encoding="UTF-8" standalone="no"?>
<svg xmlns="http://www.w3.org/2000/svg" xmlns:svg="http://www.w3.org/2000/svg" width="24" height="24" viewBox="0 0 24 24" fill="currentColor" tags="entrance,entry,exit,ingress,egress,gate,gateway,emergency exit" categories="home,travel,security">
  <path d="M 10.96875 1.5644531 C 10.739504 1.5657984 10.507105 1.5939361 10.273438 1.6523438 L 6.2734375 2.6523438 C 4.9430388 2.9848914 4.0002076 4.191169 4 5.5625 L 4 19 L 2 19 A 1 1 0 0 0 1 20 A 1 1 0 0 0 2 21 L 4.875 21 L 11.515625 22.658203 A 1.0001 1.0001 0 0 0 11.515625 22.660156 C 12.661397 22.945884 13.814122 22.133862 13.980469 21 L 22 21 A 1 1 0 0 0 23 20 A 1 1 0 0 0 22 19 L 19 19 L 19 6 C 19 4.3549904 17.64501 3 16 3 L 13.550781 3 C 13.123896 2.3173808 12.431321 1.8195923 11.642578 1.6386719 C 11.424088 1.5885549 11.197996 1.5631078 10.96875 1.5644531 z M 10.998047 3.5585938 C 11.548763 3.5463005 11.999616 3.9724885 12 4.5625 L 12 20 L 12 20.71875 L 6 19.21875 L 6 5.5625 C 6.0000702 5.0985315 6.3076928 4.7043092 6.7578125 4.5917969 L 10.757812 3.5917969 C 10.839584 3.5713572 10.919373 3.5603499 10.998047 3.5585938 z M 14 5 L 16 5 C 16.564129 5 17 5.4358706 17 6 L 17 19 L 14 19 L 14 5 z M 10 11 A 1 1 0 0 0 9 12 L 9 12.009766 A 1 1 0 0 0 10 13.009766 A 1 1 0 0 0 11 12.009766 L 11 12 A 1 1 0 0 0 10 11 z "/>
</svg>
