<?xml version="1.0" encoding="UTF-8" standalone="no"?>
<svg xmlns="http://www.w3.org/2000/svg" xmlns:svg="http://www.w3.org/2000/svg" width="24" height="24" viewBox="0 0 24 24" fill="currentColor" tags="entrance,entry,exit,ingress,egress,gate,gateway,emergency exit,lock" categories="home,travel,security">
  <path d="M 8 3 C 6.3549904 3 5 4.3549904 5 6 L 5 19 L 2 19 A 1 1 0 0 0 1 20 A 1 1 0 0 0 2 21 L 10 21 A 1 1 0 0 0 11 20 A 1 1 0 0 0 10 19 L 7 19 L 7 6 C 7 5.4358706 7.4358706 5 8 5 L 16 5 C 16.564129 5 17 5.4358706 17 6 L 17 9 A 1 1 0 0 0 18 10 A 1 1 0 0 0 19 9 L 19 6 C 19 4.3549904 17.64501 3 16 3 L 8 3 z M 10 11 A 1 1 0 0 0 9 12 A 1 1 0 0 0 10 13 L 10.009766 13 A 1 1 0 0 0 11.009766 12 A 1 1 0 0 0 10.009766 11 L 10 11 z M 18 12 C 17.277778 12 16.542119 12.235347 15.960938 12.751953 C 15.379755 13.268559 15 14.083334 15 15 L 15 16 C 13.909297 16 13 16.909297 13 18 L 13 21 C 13 22.090703 13.909297 23 15 23 L 21 23 C 22.090703 23 23 22.090703 23 21 L 23 18 C 23 16.909297 22.090703 16 21 16 L 21 15 C 21 14.083334 20.620244 13.268559 20.039062 12.751953 C 19.457881 12.235347 18.722222 12 18 12 z M 18 14 C 18.277778 14 18.542119 14.09799 18.710938 14.248047 C 18.879756 14.398107 19 14.583334 19 15 L 19 16 L 17 16 L 17 15 C 17 14.583334 17.120244 14.398107 17.289062 14.248047 C 17.457881 14.097986 17.722222 14 18 14 z M 15 18 L 16 18 L 20 18 L 21 18 L 21 21 L 15 21 L 15 18 z "/>
</svg>
