<?xml version="1.0" encoding="UTF-8" standalone="no"?>
<svg xmlns="http://www.w3.org/2000/svg" xmlns:svg="http://www.w3.org/2000/svg" width="24" height="24" viewBox="0 0 24 24" fill="currentColor" tags="import,export,save" categories="arrows,files">
  <path d="M 12 2 A 1 1 0 0 0 11 3 L 11 12.585938 L 7.7070312 9.2929688 A 1 1 0 0 0 7 9 A 1 1 0 0 0 6.2929688 9.2929688 A 1 1 0 0 0 6.2929688 10.707031 L 11.283203 15.697266 L 11.292969 15.707031 A 1.0001 1.0001 0 0 0 11.341797 15.75 A 1 1 0 0 0 11.384766 15.787109 A 1.0001 1.0001 0 0 0 11.439453 15.824219 A 1 1 0 0 0 11.492188 15.861328 A 1.0001 1.0001 0 0 0 11.5 15.865234 A 1 1 0 0 0 11.611328 15.921875 A 1.0001 1.0001 0 0 0 11.617188 15.923828 A 1 1 0 0 0 11.742188 15.964844 A 1 1 0 0 0 11.794922 15.976562 A 1.0001 1.0001 0 0 0 12 16 A 1.0001 1.0001 0 0 0 12.205078 15.976562 A 1.0001 1.0001 0 0 0 12.257812 15.964844 A 1 1 0 0 0 12.382812 15.923828 A 1.0001 1.0001 0 0 0 12.560547 15.824219 A 1 1 0 0 0 12.615234 15.787109 A 1.0001 1.0001 0 0 0 12.658203 15.75 A 1 1 0 0 0 12.716797 15.697266 L 17.707031 10.707031 A 1 1 0 0 0 17.707031 9.2929688 A 1 1 0 0 0 16.292969 9.2929688 L 13 12.585938 L 13 3 A 1 1 0 0 0 12 2 z M 3 14 A 1 1 0 0 0 2 15 L 2 19 C 2 20.64501 3.3549904 22 5 22 L 19 22 C 20.64501 22 22 20.64501 22 19 L 22 15 A 1 1 0 0 0 21 14 A 1 1 0 0 0 20 15 L 20 19 C 20 19.564129 19.564129 20 19 20 L 5 20 C 4.4358706 20 4 19.564129 4 19 L 4 15 A 1 1 0 0 0 3 14 z "/>
</svg>
