<?xml version="1.0" encoding="UTF-8" standalone="no"?>
<svg xmlns="http://www.w3.org/2000/svg" xmlns:svg="http://www.w3.org/2000/svg" width="24" height="24" viewBox="0 0 24 24" fill="currentColor" tags="geometry,trigonometry,radius,diameter,circumference,calculate,measure,arc,curve,draw,sketch" categories="math,design,tools">
  <path d="M 12 2 C 10.35499 2 9 3.3549904 9 5 C 9 5.7501573 9.2815813 6.4402068 9.7441406 6.96875 L 6.7441406 12.302734 C 6.3346437 12.006849 5.944598 11.672073 5.578125 11.298828 A 1 1 0 0 0 4.1640625 11.287109 A 1 1 0 0 0 4.1523438 12.701172 C 4.6532884 13.211373 5.1920091 13.661335 5.7597656 14.052734 L 2.1289062 20.509766 A 1 1 0 0 0 2.5097656 21.871094 A 1 1 0 0 0 3.8710938 21.490234 L 7.5039062 15.033203 C 11.576265 16.850965 16.538597 16.073365 19.849609 12.701172 A 1 1 0 0 0 19.835938 11.287109 A 1 1 0 0 0 19.126953 11 A 1 1 0 0 0 18.421875 11.298828 C 15.744439 14.025738 11.786024 14.687435 8.4863281 13.285156 L 11.484375 7.9550781 C 11.651894 7.9845985 11.824595 8 12 8 C 12.17857 8 12.353065 7.9836963 12.523438 7.953125 L 14.048828 10.669922 A 1 1 0 0 0 15.410156 11.052734 A 1 1 0 0 0 15.792969 9.6914062 L 14.261719 6.9628906 C 14.721032 6.4351662 15 5.7471985 15 5 C 15 3.3549904 13.64501 2 12 2 z M 12 4 C 12.564129 4 13 4.4358706 13 5 C 13 5.3568357 12.825627 5.6615425 12.554688 5.8378906 A 1 1 0 0 0 12.5 5.8671875 A 1 1 0 0 0 12.445312 5.9003906 C 12.312226 5.9644051 12.161215 6 12 6 C 11.848022 6 11.705471 5.9674109 11.578125 5.9101562 A 1 1 0 0 0 11.509766 5.8691406 A 1 1 0 0 0 11.431641 5.8300781 C 11.168553 5.6524332 11 5.3507713 11 5 C 11 4.4358706 11.435871 4 12 4 z M 18.851562 16.160156 A 1 1 0 0 0 18.349609 16.289062 A 1 1 0 0 0 17.96875 17.650391 L 20.128906 21.490234 A 1 1 0 0 0 21.490234 21.871094 A 1 1 0 0 0 21.871094 20.509766 L 19.710938 16.669922 A 1 1 0 0 0 18.851562 16.160156 z "/>
</svg>
