<?xml version="1.0" encoding="UTF-8" standalone="no"?>
<svg xmlns="http://www.w3.org/2000/svg" xmlns:svg="http://www.w3.org/2000/svg" width="24" height="24" viewBox="0 0 24 24" fill="currentColor" tags="geometry,trigonometry,radius,diameter,circumference,calculate,measure,arc,curve,draw,sketch" categories="shapes,maths,design,tools">
  <path d="M 12 2 C 10.354994 2 9 3.3549936 9 5 C 9 5.7496332 9.2821555 6.4383977 9.7441406 6.9667969 L 6.7460938 12.300781 C 6.3365251 12.004861 5.9446564 11.672132 5.578125 11.298828 A 1 1 0 0 0 4.1640625 11.287109 A 1 1 0 0 0 4.1523438 12.701172 C 4.6535388 13.211628 5.1936489 13.659246 5.7617188 14.050781 L 2.1289062 20.509766 A 1 1 0 0 0 2.5097656 21.871094 A 1 1 0 0 0 3.8710938 21.490234 L 7.5058594 15.029297 C 11.578011 16.846434 16.538897 16.07306 19.849609 12.701172 A 1 1 0 0 0 19.835938 11.287109 A 1 1 0 0 0 19.126953 11 A 1 1 0 0 0 18.421875 11.298828 C 15.744605 14.025569 11.787855 14.685146 8.4882812 13.283203 L 11.484375 7.9550781 C 11.651912 7.984605 11.824576 8 12 8 C 12.178201 8 12.353397 7.9835731 12.523438 7.953125 L 14.048828 10.669922 A 1 1 0 0 0 15.410156 11.052734 A 1 1 0 0 0 15.792969 9.6914062 L 14.259766 6.9609375 C 14.718989 6.4332363 15 5.7471154 15 5 C 15 3.3549936 13.645006 2 12 2 z M 12 4 C 12.564128 4 13 4.4358718 13 5 C 13 5.3720023 12.810397 5.6871253 12.519531 5.859375 A 1 1 0 0 0 12.5 5.8671875 A 1 1 0 0 0 12.482422 5.8808594 A 1 1 0 0 0 12.478516 5.8828125 C 12.337543 5.9572918 12.174716 6 12 6 C 11.842597 6 11.695204 5.965482 11.564453 5.9042969 A 1 1 0 0 0 11.509766 5.8691406 A 1 1 0 0 0 11.478516 5.8574219 C 11.188961 5.6848673 11 5.3710135 11 5 C 11 4.4358718 11.435872 4 12 4 z M 18.916016 16.164062 A 1 1 0 0 0 18.349609 16.289062 A 1 1 0 0 0 17.96875 17.650391 L 20.128906 21.490234 A 1 1 0 0 0 21.490234 21.871094 A 1 1 0 0 0 21.871094 20.509766 L 19.710938 16.669922 A 1 1 0 0 0 19.109375 16.197266 A 1 1 0 0 0 18.916016 16.164062 z "/>
</svg>
