<?xml version="1.0" encoding="UTF-8" standalone="no"?>
<svg xmlns="http://www.w3.org/2000/svg" xmlns:svg="http://www.w3.org/2000/svg" width="24" height="24" viewBox="0 0 24 24" fill="currentColor" tags="geometry,trigonometry,radius,diameter,circumference,calculate,measure,arc,curve,draw,sketch" categories="math,design,tools">
  <path d="M 12 2 C 10.35499 2 9 3.3549904 9 5 C 9 5.7496346 9.2821553 6.4383973 9.7441406 6.9667969 L 6.7460938 12.300781 C 6.3365246 12.00486 5.9446571 11.672133 5.578125 11.298828 A 1 1 0 0 0 4.1640625 11.287109 A 1 1 0 0 0 4.1523438 12.701172 C 4.6535398 13.211629 5.1936481 13.659245 5.7617188 14.050781 L 2.1289062 20.509766 A 1 1 0 0 0 2.5097656 21.871094 A 1 1 0 0 0 3.8710938 21.490234 L 7.5058594 15.029297 C 11.578015 16.846438 16.53889 16.073066 19.849609 12.701172 A 1 1 0 0 0 19.835938 11.287109 A 1 1 0 0 0 19.126953 11 A 1 1 0 0 0 18.421875 11.298828 C 15.7446 14.025574 11.787857 14.685149 8.4882812 13.283203 L 11.484375 7.9550781 C 11.651912 7.984605 11.824575 8 12 8 C 12.178202 8 12.353396 7.983573 12.523438 7.953125 L 14.048828 10.669922 A 1 1 0 0 0 15.410156 11.052734 A 1 1 0 0 0 15.792969 9.6914062 L 14.259766 6.9609375 C 14.718989 6.4332359 15 5.7471169 15 5 C 15 3.3549904 13.64501 2 12 2 z M 12 4 C 12.564129 4 13 4.4358706 13 5 C 13 5.3720031 12.810397 5.6871253 12.519531 5.859375 A 1 1 0 0 0 12.5 5.8671875 A 1 1 0 0 0 12.482422 5.8808594 A 1 1 0 0 0 12.478516 5.8828125 C 12.337543 5.9572918 12.174716 6 12 6 C 11.842596 6 11.695204 5.965482 11.564453 5.9042969 A 1 1 0 0 0 11.509766 5.8691406 A 1 1 0 0 0 11.478516 5.8574219 C 11.188961 5.6848672 11 5.3710143 11 5 C 11 4.4358706 11.435871 4 12 4 z M 18.916016 16.164062 A 1 1 0 0 0 18.349609 16.289062 A 1 1 0 0 0 17.96875 17.650391 L 20.128906 21.490234 A 1 1 0 0 0 21.490234 21.871094 A 1 1 0 0 0 21.871094 20.509766 L 19.710938 16.669922 A 1 1 0 0 0 19.109375 16.197266 A 1 1 0 0 0 18.916016 16.164062 z "/>
</svg>
