<?xml version="1.0" encoding="UTF-8" standalone="no"?>
<svg xmlns="http://www.w3.org/2000/svg" xmlns:svg="http://www.w3.org/2000/svg" width="24" height="24" viewBox="0 0 24 24" fill="currentColor" tags="geometry,trigonometry,radius,diameter,circumference,calculate,measure,arc,curve,draw,sketch" categories="shapes,maths,design,tools">
  <path d="M 12 2 C 10.354994 2 9 3.3549936 9 5 C 9 5.7496332 9.2821555 6.4383977 9.7441406 6.9667969 L 6.7773438 12.242188 C 6.408126 11.962455 6.0535177 11.650701 5.71875 11.304688 A 1 1 0 0 0 5.015625 11 A 1 1 0 0 0 4.3046875 11.28125 A 1 1 0 0 0 4.28125 12.695312 C 4.7538081 13.183745 5.2608591 13.614462 5.7929688 13.994141 L 2.1289062 20.509766 A 1 1 0 0 0 2.5097656 21.871094 A 1 1 0 0 0 3.8710938 21.490234 L 7.5214844 15 C 11.537128 16.85523 16.435959 16.088378 19.71875 12.695312 A 1 1 0 0 0 19.695312 11.28125 A 1 1 0 0 0 18.28125 11.304688 C 15.614605 14.060909 11.739757 14.711089 8.5 13.261719 L 11.484375 7.9550781 C 11.651912 7.984605 11.824576 8 12 8 C 12.178201 8 12.353397 7.9835731 12.523438 7.953125 L 14.048828 10.669922 A 1 1 0 0 0 15.410156 11.052734 A 1 1 0 0 0 15.792969 9.6914062 L 14.259766 6.9609375 C 14.718989 6.4332363 15 5.7471154 15 5 C 15 3.3549936 13.645006 2 12 2 z M 12 4 C 12.564128 4 13 4.4358718 13 5 C 13 5.3720023 12.810397 5.6871253 12.519531 5.859375 A 1 1 0 0 0 12.5 5.8671875 A 1 1 0 0 0 12.478516 5.8828125 C 12.337543 5.9572918 12.174716 6 12 6 C 11.842597 6 11.695204 5.965482 11.564453 5.9042969 A 1 1 0 0 0 11.509766 5.8691406 A 1 1 0 0 0 11.478516 5.8574219 C 11.188961 5.6848673 11 5.3710135 11 5 C 11 4.4358718 11.435872 4 12 4 z M 18.916016 16.164062 A 1 1 0 0 0 18.349609 16.289062 A 1 1 0 0 0 17.96875 17.650391 L 20.128906 21.490234 A 1 1 0 0 0 21.490234 21.871094 A 1 1 0 0 0 21.871094 20.509766 L 19.710938 16.669922 A 1 1 0 0 0 19.109375 16.197266 A 1 1 0 0 0 18.916016 16.164062 z "/>
</svg>
