<?xml version="1.0" encoding="UTF-8" standalone="no"?>
<svg xmlns="http://www.w3.org/2000/svg" xmlns:svg="http://www.w3.org/2000/svg" width="24" height="24" viewBox="0 0 24 24" fill="currentColor" tags="drama,masks,theater,theatre,entertainment,show" categories="multimedia">
  <path d="M 16 1 C 13.916667 1 12.291248 1.2362119 11.052734 1.8554688 C 9.8142209 2.4747258 9 3.6666667 9 5 C 9 5.4364543 9.0116687 5.8563612 9.0292969 6.2675781 C 7.9837242 6.5185466 6.8587512 7.0140021 5.53125 7.7167969 A 1.0001 1.0001 0 0 0 5.5039062 7.7324219 C 3.6782135 8.775675 2.3841525 9.8028754 1.625 10.964844 C 0.86660092 12.125659 0.76851492 13.562664 1.4375 14.703125 C 3.7611678 18.728914 6.2638108 20.987554 8.5078125 22.095703 C 10.74634 23.201149 12.699419 23.221634 13.994141 22.466797 C 15.219676 21.781003 16.130338 20.239024 16.349609 17.980469 C 17.759201 17.839225 19.302181 16.849463 20.582031 14.929688 C 21.968573 12.849875 23 9.6481481 23 5 A 1 1 0 0 0 22.847656 4.5039062 C 22.663775 3.390204 22.01874 2.3912063 20.947266 1.8554688 C 19.708752 1.2362118 18.083333 1 16 1 z M 16 3 C 17.916667 3 19.291248 3.2637882 20.052734 3.6445312 C 20.81422 4.0252743 21 4.3333333 21 5 C 21 9.3518519 20.031427 12.150124 18.917969 13.820312 C 17.80451 15.4905 16.5 16 16 16 C 15.93362 16 15.852176 15.988234 15.759766 15.96875 A 1 1 0 0 0 15.542969 15.910156 C 14.913793 15.70546 13.942805 15.111471 13.082031 13.820312 C 12.170236 12.452619 11.356973 10.327164 11.091797 7.2128906 A 1 1 0 0 0 11.095703 7.0097656 A 1 1 0 0 0 11.070312 6.921875 C 11.026252 6.3167035 11 5.6792498 11 5 C 11 4.3333333 11.18578 4.0252743 11.947266 3.6445312 C 12.708752 3.2637881 14.083333 3 16 3 z M 14 5 A 1 1 0 0 0 13 6 A 1 1 0 0 0 14 7 L 14.009766 7 A 1 1 0 0 0 15.009766 6 A 1 1 0 0 0 14.009766 5 L 14 5 z M 18 5 A 1 1 0 0 0 17 6 A 1 1 0 0 0 18 7 L 18.009766 7 A 1 1 0 0 0 19.009766 6 A 1 1 0 0 0 18.009766 5 L 18 5 z M 9.1953125 8.3027344 C 9.2754697 8.9506888 9.3781159 9.5596106 9.5019531 10.134766 A 1 1 0 0 0 9 11 A 1 1 0 0 0 10 12 L 10.009766 12 C 10.26432 12.753376 10.559063 13.426714 10.880859 14.027344 C 9.6392973 14.073708 8.4882846 14.940092 8.1347656 16.236328 A 1 1 0 0 0 8.8359375 17.464844 A 1 1 0 0 0 10.064453 16.763672 C 10.225473 16.173265 10.757709 15.922039 11.212891 16.058594 A 1 1 0 0 0 12.132812 15.873047 C 12.843734 16.702115 13.60621 17.283151 14.365234 17.625 C 14.187701 19.505352 13.355164 20.536844 13.013672 20.726562 A 1.0001 1.0001 0 0 0 12.992188 20.738281 C 12.586815 20.976733 11.19755 21.194078 9.3925781 20.302734 C 7.5876065 19.41139 5.3414486 17.471922 3.1660156 13.701172 A 1.0001 1.0001 0 0 0 3.1621094 13.693359 C 2.8332922 13.134351 2.8329807 12.771626 3.2988281 12.058594 C 3.7629487 11.348205 4.8208392 10.431453 6.484375 9.4785156 C 7.5721445 8.9037526 8.4626948 8.5205756 9.1953125 8.3027344 z M 14.599609 8.9003906 A 1 1 0 0 0 13.892578 9.1933594 A 1 1 0 0 0 13.892578 10.607422 C 15.046132 11.760975 16.953868 11.760975 18.107422 10.607422 A 1 1 0 0 0 18.107422 9.1933594 A 1 1 0 0 0 16.693359 9.1933594 C 16.246913 9.639806 15.753087 9.639806 15.306641 9.1933594 A 1 1 0 0 0 14.599609 8.9003906 z M 6.5 12.099609 A 1 1 0 0 0 5.5 13.099609 A 1 1 0 0 0 6.5 14.099609 L 6.5097656 14.099609 A 1 1 0 0 0 7.5097656 13.099609 A 1 1 0 0 0 6.5097656 12.099609 L 6.5 12.099609 z "/>
</svg>
