<?xml version="1.0" encoding="UTF-8" standalone="no"?>
<svg xmlns="http://www.w3.org/2000/svg" xmlns:svg="http://www.w3.org/2000/svg" width="24" height="24" viewBox="0 0 24 24" fill="currentColor" tags="drama,masks,theater,theatre,entertainment,show" categories="multimedia">
  
  <path d="M 16 1 C 13.916671 1 12.291246 1.2362131 11.052734 1.8554688 C 9.8142233 2.4747245 9 3.6666693 9 5 C 9 5.4364534 9.0116687 5.8563618 9.0292969 6.2675781 C 7.9837251 6.5185466 6.8587486 7.0140035 5.53125 7.7167969 A 1.0001 1.0001 0 0 0 5.5039062 7.7324219 C 3.6782172 8.7756729 2.384151 9.8028776 1.625 10.964844 C 0.86660244 12.125657 0.76851625 13.562666 1.4375 14.703125 C 3.7611631 18.728906 6.2638153 20.987556 8.5078125 22.095703 C 10.746335 23.201147 12.699421 23.221632 13.994141 22.466797 C 15.219674 21.781003 16.130338 20.23902 16.349609 17.980469 C 17.759199 17.839225 19.302183 16.84946 20.582031 14.929688 C 21.96857 12.849879 23 9.6481389 23 5 A 1 1 0 0 0 22.847656 4.5039062 C 22.663775 3.3902063 22.018738 2.3912051 20.947266 1.8554688 C 19.708754 1.2362131 18.083329 1 16 1 z M 16 3 C 17.916663 3 19.29125 3.2637889 20.052734 3.6445312 C 20.81422 4.0252735 21 4.3333347 21 5 C 21 9.3518431 20.031425 12.150128 18.917969 13.820312 C 17.804512 15.490496 16.5 16 16 16 C 15.93362 16 15.852176 15.988234 15.759766 15.96875 A 1 1 0 0 0 15.542969 15.910156 C 14.913793 15.70546 13.942803 15.111469 13.082031 13.820312 C 12.169308 12.451227 11.356121 10.322593 11.091797 7.203125 A 1 1 0 0 0 11.095703 7.0097656 A 1 1 0 0 0 11.070312 6.921875 C 11.026252 6.3167043 11 5.6792485 11 5 C 11 4.3333347 11.18578 4.0252735 11.947266 3.6445312 C 12.70875 3.2637889 14.083337 3 16 3 z M 14 5 A 1 1 0 0 0 13 6 A 1 1 0 0 0 14 7 L 14.009766 7 A 1 1 0 0 0 15.009766 6 A 1 1 0 0 0 14.009766 5 L 14 5 z M 18 5 A 1 1 0 0 0 17 6 A 1 1 0 0 0 18 7 L 18.009766 7 A 1 1 0 0 0 19.009766 6 A 1 1 0 0 0 18.009766 5 L 18 5 z M 9.1953125 8.3027344 C 9.2754697 8.9506881 9.3781159 9.559611 9.5019531 10.134766 A 1 1 0 0 0 9 11 A 1 1 0 0 0 10 12 L 10.009766 12 C 10.26432 12.753375 10.559063 13.426715 10.880859 14.027344 C 9.6392987 14.073709 8.4882838 14.940095 8.1347656 16.236328 A 1 1 0 0 0 8.8359375 17.464844 A 1 1 0 0 0 10.064453 16.763672 C 10.225473 16.173266 10.75771 15.922039 11.212891 16.058594 A 1 1 0 0 0 12.132812 15.873047 C 12.843733 16.702113 13.606211 17.283151 14.365234 17.625 C 14.187701 19.505349 13.355164 20.536845 13.013672 20.726562 A 1.0001 1.0001 0 0 0 12.992188 20.738281 C 12.586815 20.976732 11.197546 21.194077 9.3925781 20.302734 C 7.5876101 19.411392 5.3414442 17.471915 3.1660156 13.701172 A 1.0001 1.0001 0 0 0 3.1621094 13.693359 C 2.8332928 13.134352 2.8329816 12.771624 3.2988281 12.058594 C 3.7629478 11.348206 4.8208425 10.431451 6.484375 9.4785156 C 7.5721423 8.9037537 8.4626951 8.5205756 9.1953125 8.3027344 z M 14.599609 8.9003906 A 1 1 0 0 0 13.892578 9.1933594 A 1 1 0 0 0 13.892578 10.607422 C 15.046129 11.760973 16.953871 11.760973 18.107422 10.607422 A 1 1 0 0 0 18.107422 9.1933594 A 1 1 0 0 0 16.693359 9.1933594 C 16.246914 9.639805 15.753086 9.639805 15.306641 9.1933594 A 1 1 0 0 0 14.599609 8.9003906 z M 6.5 12.099609 A 1 1 0 0 0 5.5 13.099609 A 1 1 0 0 0 6.5 14.099609 L 6.5097656 14.099609 A 1 1 0 0 0 7.5097656 13.099609 A 1 1 0 0 0 6.5097656 12.099609 L 6.5 12.099609 z "/>
</svg>
