<svg xmlns="http://www.w3.org/2000/svg" xmlns:svg="http://www.w3.org/2000/svg" width="24" height="24" viewBox="0 0 24 24" fill="currentColor" tags="drama,masks,theater,theatre,entertainment,show" categories="multimedia">
  <path d="M 16 1 C 13.916667 1 12.291248 1.2362119 11.052734 1.8554688 C 9.8142209 2.4747258 9 3.6666667 9 5 C 9 5.4355092 9.0097907 5.8591508 9.0273438 6.2695312 C 7.9825926 6.5207191 6.8575209 7.0146535 5.53125 7.7167969 A 1.0001 1.0001 0 0 0 5.5039062 7.7324219 C 3.6782135 8.775675 2.3841525 9.8028754 1.625 10.964844 C 0.86660092 12.125659 0.76851492 13.562664 1.4375 14.703125 C 3.7611678 18.728914 6.2638108 20.987554 8.5078125 22.095703 C 10.74634 23.201149 12.699419 23.221634 13.994141 22.466797 C 15.219503 21.781099 16.130174 20.240457 16.349609 17.982422 C 17.759187 17.841159 19.302197 16.84944 20.582031 14.929688 C 21.968573 12.849875 23 9.6481481 23 5 C 23 3.6666667 22.18578 2.4747258 20.947266 1.8554688 C 19.708752 1.2362118 18.083333 1 16 1 z M 16 3 C 17.916667 3 19.291248 3.2637882 20.052734 3.6445312 C 20.81422 4.0252743 21 4.3333333 21 5 C 21 9.3518519 20.031427 12.150124 18.917969 13.820312 C 17.80451 15.4905 16.5 16 16 16 C 15.938586 16 15.865094 15.993143 15.78125 15.976562 A 1 1 0 0 0 15.533203 15.910156 C 14.903646 15.701415 13.936775 15.102426 13.082031 13.820312 C 12.171555 12.454598 11.358176 10.33542 11.091797 7.2285156 A 1 1 0 0 0 11.095703 7.0097656 A 1 1 0 0 0 11.060547 6.8222656 C 11.021236 6.2478823 11 5.64029 11 5 C 11 4.3333333 11.18578 4.0252743 11.947266 3.6445312 C 12.708752 3.2637881 14.083333 3 16 3 z M 14 5 A 1 1 0 0 0 13 6 A 1 1 0 0 0 14 7 L 14.009766 7 A 1 1 0 0 0 15.009766 6 A 1 1 0 0 0 14.009766 5 L 14 5 z M 18 5 A 1 1 0 0 0 17 6 A 1 1 0 0 0 18 7 L 18.009766 7 A 1 1 0 0 0 19.009766 6 A 1 1 0 0 0 18.009766 5 L 18 5 z M 9.1933594 8.3007812 C 9.2733846 8.9481774 9.3763714 9.5600294 9.5 10.134766 A 1 1 0 0 0 9 11 A 1 1 0 0 0 10 12 L 10.009766 12 C 10.264009 12.752719 10.557532 13.427073 10.878906 14.027344 C 9.6382558 14.074729 8.4880581 14.940923 8.1347656 16.236328 A 1 1 0 0 0 8.8359375 17.464844 A 1 1 0 0 0 10.064453 16.763672 C 10.225473 16.173265 10.757709 15.922039 11.212891 16.058594 A 1 1 0 0 0 12.130859 15.875 C 12.84252 16.705344 13.607304 17.286892 14.367188 17.628906 C 14.189525 19.508849 13.355125 20.536866 13.013672 20.726562 A 1.0001 1.0001 0 0 0 12.992188 20.738281 C 12.586815 20.976733 11.19755 21.194078 9.3925781 20.302734 C 7.5876065 19.41139 5.3414486 17.471922 3.1660156 13.701172 A 1.0001 1.0001 0 0 0 3.1621094 13.693359 C 2.8332922 13.134351 2.8329807 12.771626 3.2988281 12.058594 C 3.7629487 11.348205 4.8208392 10.431453 6.484375 9.4785156 C 7.5687286 8.9055575 8.4620258 8.5189935 9.1933594 8.3007812 z M 14.599609 8.9003906 A 1 1 0 0 0 13.892578 9.1933594 A 1 1 0 0 0 13.892578 10.607422 C 15.046132 11.760975 16.953868 11.760975 18.107422 10.607422 A 1 1 0 0 0 18.107422 9.1933594 A 1 1 0 0 0 16.693359 9.1933594 C 16.246913 9.639806 15.753087 9.639806 15.306641 9.1933594 A 1 1 0 0 0 14.599609 8.9003906 z M 6.5 12.099609 A 1 1 0 0 0 5.5 13.099609 A 1 1 0 0 0 6.5 14.099609 L 6.5097656 14.099609 A 1 1 0 0 0 7.5097656 13.099609 A 1 1 0 0 0 6.5097656 12.099609 L 6.5 12.099609 z "/>
</svg>
