<?xml version="1.0" encoding="UTF-8" standalone="no"?>
<svg xmlns="http://www.w3.org/2000/svg" xmlns:svg="http://www.w3.org/2000/svg" width="24" height="24" viewBox="0 0 24 24" fill="currentColor" tags="design,social" categories="brands,social,design">
  <path d="M 12 1 C 5.9367246 1 1 5.9367246 1 12 C 1 18.063276 5.9367246 23 12 23 C 18.063276 23 23 18.063276 23 12 C 23 5.9367246 18.063276 1 12 1 z M 12 3 C 14.181323 3 16.179085 3.7687752 17.734375 5.0527344 C 16.384545 6.289477 14.872014 7.2201029 13.128906 7.9257812 C 12.28521 6.401344 11.305889 4.8809988 10.113281 3.1972656 C 10.721725 3.068156 11.352232 3 12 3 z M 8.1328125 3.8671875 C 9.3746446 5.593048 10.378691 7.1008805 11.224609 8.5839844 C 8.9648381 9.2437957 6.3435114 9.6255647 3.2558594 9.8632812 C 3.8995072 7.2057914 5.716915 5.0145059 8.1328125 3.8671875 z M 19.125 6.4941406 C 20.240071 7.9370202 20.925126 9.7295112 20.992188 11.683594 C 19.595586 11.459851 18.239298 11.401232 16.929688 11.501953 C 16.26161 11.553334 15.606277 11.647331 14.962891 11.779297 C 14.674756 11.063926 14.370662 10.374716 14.046875 9.7011719 C 15.941488 8.9161507 17.622522 7.8760415 19.125 6.4941406 z M 12.173828 10.373047 C 12.480805 10.999509 12.769286 11.638358 13.041016 12.302734 C 10.076762 13.317517 7.4221873 15.215643 5.15625 17.851562 C 3.8120532 16.279647 3 14.237681 3 12 C 3 11.962064 3.0014886 11.924542 3.0019531 11.886719 C 6.4931796 11.63374 9.5273833 11.195863 12.173828 10.373047 z M 18.136719 13.433594 C 19.0113 13.438696 19.912535 13.524211 20.841797 13.685547 C 20.409186 15.980633 19.110226 17.963373 17.294922 19.283203 C 16.757864 17.131908 16.231553 15.289016 15.660156 13.638672 C 16.461067 13.49972 17.285771 13.428629 18.136719 13.433594 z M 13.728516 14.126953 C 14.337204 15.878077 14.894446 17.870579 15.488281 20.302734 C 14.416156 20.752082 13.23813 21 12 21 C 9.9794026 21 8.1168048 20.338618 6.6171875 19.220703 C 8.7225334 16.737592 11.080421 15.013119 13.728516 14.126953 z "/>
</svg>
