<svg xmlns="http://www.w3.org/2000/svg" xmlns:svg="http://www.w3.org/2000/svg" width="24" height="24" viewBox="0 0 24 24" fill="currentColor" tags="design,social" categories="brands,social,design">
  <path d="M 12 1 C 5.9367124 1 1 5.9367124 1 12 C 1 18.063288 5.9367124 23 12 23 C 18.063288 23 23 18.063288 23 12 C 23 5.9367124 18.063288 1 12 1 z M 12 3 C 14.181462 3 16.17709 3.7705856 17.732422 5.0546875 C 16.38391 6.2900749 14.873754 7.220435 13.132812 7.9257812 C 12.288561 6.4003153 11.306957 4.8823434 10.113281 3.1972656 C 10.721543 3.0682378 11.352441 3 12 3 z M 8.1347656 3.8652344 C 9.3794553 5.5946826 10.381189 7.0984695 11.228516 8.5839844 C 8.9659477 9.245003 6.3447674 9.6274431 3.2519531 9.8652344 C 3.8951197 7.2052756 5.7165464 5.0126918 8.1347656 3.8652344 z M 19.125 6.4921875 C 20.2403 7.9347693 20.926617 9.7277688 20.994141 11.681641 C 19.596588 11.457538 18.240142 11.401167 16.929688 11.501953 C 16.262938 11.553232 15.608954 11.645798 14.966797 11.777344 C 14.678406 11.061203 14.374889 10.373434 14.050781 9.6992188 C 15.944698 8.9140412 17.623004 7.8740775 19.125 6.4921875 z M 12.177734 10.373047 C 12.484513 10.999216 12.769439 11.636712 13.041016 12.300781 C 10.075596 13.315603 7.4209067 15.214449 5.1542969 17.851562 C 3.8101921 16.27967 3 14.237599 3 12 C 3 11.963476 2.9995694 11.927044 3 11.890625 C 6.4956427 11.637675 9.5287024 11.196934 12.177734 10.373047 z M 18.173828 13.435547 C 19.037481 13.442712 19.926853 13.524307 20.84375 13.683594 C 20.41196 15.979276 19.112006 17.962706 17.296875 19.283203 C 16.758631 17.126069 16.232779 15.290516 15.660156 13.636719 C 16.472342 13.495864 17.310175 13.428381 18.173828 13.435547 z M 13.728516 14.123047 C 14.338104 15.876726 14.895418 17.86572 15.490234 20.302734 C 14.417752 20.752435 13.238646 21 12 21 C 9.978354 21 8.1152533 20.337717 6.6152344 19.21875 C 8.7208235 16.735237 11.080042 15.009204 13.728516 14.123047 z "/>
</svg>
