<?xml version="1.0" encoding="UTF-8" standalone="no"?>
<svg xmlns="http://www.w3.org/2000/svg" xmlns:svg="http://www.w3.org/2000/svg" width="24" height="24" viewBox="0 0 24 24" fill="currentColor" tags="design,social" categories="brands,social,design">
  <path d="M 12 1 C 5.9367124 1 1 5.9367124 1 12 C 1 18.063288 5.9367124 23 12 23 C 18.063288 23 23 18.063288 23 12 C 23 5.9367124 18.063288 1 12 1 z M 12 3 C 14.181328 3 16.179084 3.7687745 17.734375 5.0527344 C 16.384543 6.2894793 14.872015 7.2201025 13.128906 7.9257812 C 12.285209 6.4013433 11.305891 4.8810016 10.113281 3.1972656 C 10.721726 3.068156 11.352231 3 12 3 z M 8.1328125 3.8671875 C 9.3746468 5.5930511 10.37869 7.1008798 11.224609 8.5839844 C 8.964837 9.2437958 6.3435169 9.6255644 3.2558594 9.8632812 C 3.8995072 7.2057874 5.7169123 5.0145062 8.1328125 3.8671875 z M 19.125 6.4941406 C 20.240071 7.9370213 20.925126 9.7295074 20.992188 11.683594 C 19.595584 11.45985 18.239301 11.401232 16.929688 11.501953 C 16.261609 11.553335 15.606277 11.647331 14.962891 11.779297 C 14.674756 11.063926 14.370662 10.374716 14.046875 9.7011719 C 15.941489 8.9161501 17.622519 7.876044 19.125 6.4941406 z M 12.173828 10.373047 C 12.480805 10.999509 12.769286 11.638358 13.041016 12.302734 C 10.07676 13.317517 7.422191 15.215639 5.15625 17.851562 C 3.8120525 16.279646 3 14.237685 3 12 C 3 11.962064 3.0014886 11.924542 3.0019531 11.886719 C 6.4931862 11.63374 9.527382 11.195863 12.173828 10.373047 z M 18.136719 13.433594 C 19.011301 13.438696 19.912533 13.524211 20.841797 13.685547 C 20.409186 15.980637 19.110228 17.963373 17.294922 19.283203 C 16.757863 17.131904 16.231553 15.289018 15.660156 13.638672 C 16.461067 13.49972 17.28577 13.428629 18.136719 13.433594 z M 13.728516 14.126953 C 14.337204 15.878078 14.894445 17.870574 15.488281 20.302734 C 14.416155 20.752082 13.238133 21 12 21 C 9.9793985 21 8.116806 20.338619 6.6171875 19.220703 C 8.722537 16.737587 11.08042 15.01312 13.728516 14.126953 z "/>
</svg>
