<?xml version="1.0" encoding="UTF-8" standalone="no"?>
<svg xmlns="http://www.w3.org/2000/svg" xmlns:svg="http://www.w3.org/2000/svg" width="24" height="24" viewBox="0 0 24 24" fill="currentColor" tags="power,bit,head,hole,diy,toolbox,build,construction" categories="tools,home,devices">
  
  <path d="M 4 1 C 2.3549936 1 1 2.3549936 1 4 L 1 8 C 1 9.5514298 2.2055949 10.84419 3.7226562 10.986328 L 2.1777344 17.166016 C 1.9526209 17.260424 1.7431736 17.393545 1.5683594 17.568359 C 1.1913296 17.94539 1 18.477779 1 19 C 1 21.2098 2.7902005 23 5 23 L 10 23 C 10.522221 23 11.05461 22.80867 11.431641 22.431641 C 11.80867 22.05461 12 21.522221 12 21 L 12 19 C 12 18.477779 11.80867 17.94539 11.431641 17.568359 C 11.05461 17.19133 10.522221 17 10 17 L 8.28125 17 L 8.78125 15 L 11 15 C 11.522221 15 12.05461 14.80867 12.431641 14.431641 C 12.80867 14.05461 13 13.522221 13 13 L 13 11 C 13.522221 11 14.05461 10.80867 14.431641 10.431641 C 14.80867 10.05461 15 9.5222212 15 9 L 17 9 C 18.092723 9 19 8.0927227 19 7 L 22 7 A 1 1 0 0 0 23 6 A 1 1 0 0 0 22 5 L 19 5 C 19 3.9072773 18.092723 3 17 3 L 15 3 C 15 2.4777788 14.80867 1.9453891 14.431641 1.5683594 C 14.05461 1.1913296 13.522221 1 13 1 L 4 1 z M 4 3 L 13 3 L 13 9 L 4 9 C 3.4358718 9 3 8.5641282 3 8 L 3 4 C 3 3.4358718 3.4358718 3 4 3 z M 15 5 L 17 5 L 17 7 L 15 7 L 15 5 z M 5.78125 11 L 7.71875 11 L 6.21875 17 L 4.28125 17 L 5.78125 11 z M 9.78125 11 L 11 11 L 11 13 L 9.28125 13 L 9.78125 11 z M 3 19 L 3.0175781 19 L 7.0175781 19 L 10 19 L 10 21 L 5 21 C 3.8098063 21 3 20.190194 3 19 z "/>
</svg>
