<svg xmlns="http://www.w3.org/2000/svg" xmlns:svg="http://www.w3.org/2000/svg" width="24" height="24" viewBox="0 0 24 24" fill="currentColor" tags="power,bit,head,hole,diy,toolbox,build,construction" categories="tools,home,devices">
  <path d="M 4 1 C 2.3549904 1 1 2.3549904 1 4 L 1 8 C 1 9.5513357 2.2057263 10.844054 3.7226562 10.986328 L 2.171875 17.183594 C 1.4847072 17.502426 1 18.201583 1 19 C 1 21.197294 2.8027056 23 5 23 L 10 23 C 11.092725 23 12 22.092725 12 21 L 12 19 C 12 17.907275 11.092725 17 10 17 L 8.28125 17 L 8.78125 15 L 11.220703 15 C 12.133493 14.999748 12.939261 14.370033 13.160156 13.484375 L 13.873047 10.634766 C 14.500471 10.294694 15 9.754457 15 9 L 17 9 C 18.092725 9 19 8.0927249 19 7 L 22 7 A 1 1 0 0 0 23 6 A 1 1 0 0 0 22 5 L 19 5 C 19 3.9072751 18.092725 3 17 3 L 15 3 C 15 1.9072751 14.092725 1 13 1 L 4 1 z M 4 3 L 13 3 L 13 9 L 9.0332031 9 L 8.9667969 9 L 4 9 C 3.4358706 9 3 8.5641294 3 8 L 3 4 C 3 3.4358706 3.4358706 3 4 3 z M 15 5 L 17 5 L 17 7 L 15 7 L 15 5 z M 5.78125 11 L 7.71875 11 L 7.0351562 13.734375 A 1 1 0 0 0 7.03125 13.75 L 6.21875 17 L 4.28125 17 L 5.78125 11 z M 9.78125 11 L 11.71875 11 L 11.220703 13 L 9.28125 13 L 9.78125 11 z M 3 19 L 6.9667969 19 L 7.0332031 19 L 10 19 L 10 21 L 5 21 C 3.8837716 21 3.0002939 20.116151 3 19 z "/>
</svg>
