<?xml version="1.0" encoding="UTF-8" standalone="no"?>
<svg xmlns="http://www.w3.org/2000/svg" xmlns:svg="http://www.w3.org/2000/svg" width="24" height="24" viewBox="0 0 24 24" fill="currentColor" tags="quadcopter,uav,aerial,flight,flying,technology,airborne,robotics" categories="transportation,devices">
  <path d="M 7.1269531 1.9023438 C 6.9616015 1.8975758 6.7972523 1.9023308 6.6347656 1.9160156 C 5.3348719 2.0254943 4.1735312 2.6686034 3.3261719 3.5820312 C 2.4788125 4.495459 1.9258209 5.7014166 1.9140625 7.0058594 C 1.9023041 8.3103022 2.4818819 9.6846265 3.7109375 10.753906 A 1 1 0 0 0 5.1210938 10.65625 A 1 1 0 0 0 5.0234375 9.2460938 C 4.17542 8.5083173 3.907406 7.7618847 3.9140625 7.0234375 C 3.920719 6.2849903 4.250967 5.5256678 4.7929688 4.9414062 C 5.3349705 4.3571447 6.0668624 3.9701792 6.8027344 3.9082031 C 7.5386063 3.8462271 8.3023113 4.0592645 9.1015625 4.8496094 A 1 1 0 0 0 10.515625 4.8417969 A 1 1 0 0 0 10.507812 3.4277344 C 9.4942214 2.4254466 8.2844147 1.9357197 7.1269531 1.9023438 z M 16.880859 1.921875 C 15.727435 1.9515072 14.519998 2.4331916 13.505859 3.4238281 A 1 1 0 0 0 13.490234 4.8378906 A 1 1 0 0 0 14.904297 4.8535156 C 15.702686 4.0736289 16.463594 3.8661745 17.197266 3.9296875 C 17.930937 3.9932005 18.659746 4.3794097 19.199219 4.9609375 C 19.738692 5.5424653 20.069761 6.2968348 20.078125 7.0332031 C 20.086525 7.7695714 19.819936 8.5142416 18.982422 9.2519531 A 1 1 0 0 0 18.894531 10.662109 A 1 1 0 0 0 20.304688 10.751953 C 21.520505 9.6810267 22.090933 8.3112968 22.076172 7.0117188 C 22.061411 5.7121408 21.510273 4.5096817 20.666016 3.5996094 C 19.821758 2.689537 18.665913 2.0495908 17.371094 1.9375 C 17.209241 1.9234886 17.045634 1.9176418 16.880859 1.921875 z M 7 6 A 1 1 0 0 0 6.2929688 6.2929688 A 1 1 0 0 0 6.2929688 7.7070312 L 9 10.414062 L 9 13.585938 L 6.2929688 16.292969 A 1 1 0 0 0 6.2929688 17.707031 A 1 1 0 0 0 7.7070312 17.707031 L 9.328125 16.085938 C 9.688029 16.632994 10.307305 17 11 17 L 13 17 C 13.692695 17 14.311971 16.632994 14.671875 16.085938 L 16.292969 17.707031 A 1 1 0 0 0 17.707031 17.707031 A 1 1 0 0 0 17.707031 16.292969 L 15 13.585938 L 15 10.414062 L 17.707031 7.7070312 A 1 1 0 0 0 17.707031 6.2929688 A 1 1 0 0 0 16.292969 6.2929688 L 14.671875 7.9140625 C 14.311971 7.3670058 13.692695 7 13 7 L 11 7 C 10.307305 7 9.688029 7.3670059 9.328125 7.9140625 L 7.7070312 6.2929688 A 1 1 0 0 0 7 6 z M 11 9 L 13 9 L 13 10 L 13 14 L 13 15 L 11 15 L 11 14 L 11 10 L 11 9 z M 4.296875 12.990234 A 1 1 0 0 0 3.7050781 13.240234 C 2.4933638 14.30974 1.923677 15.677216 1.9375 16.974609 C 1.951323 18.272002 2.5005554 19.472772 3.3417969 20.382812 C 4.1830384 21.292853 5.3365959 21.933268 6.6289062 22.048828 C 7.9212166 22.164388 9.3289669 21.704156 10.490234 20.580078 A 1 1 0 0 0 10.513672 19.166016 A 1 1 0 0 0 9.0996094 19.142578 C 8.3002565 19.916332 7.5391931 20.122146 6.8066406 20.056641 C 6.0740882 19.991135 5.3478481 19.604681 4.8105469 19.023438 C 4.2732457 18.442194 3.9453356 17.688559 3.9375 16.953125 C 3.9296644 16.217691 4.1932684 15.474469 5.0273438 14.738281 A 1 1 0 0 0 5.1152344 13.328125 A 1 1 0 0 0 4.4277344 12.990234 A 1 1 0 0 0 4.296875 12.990234 z M 19.568359 13.001953 A 1 1 0 0 0 18.882812 13.34375 A 1 1 0 0 0 18.980469 14.753906 C 19.82705 15.490775 20.096077 16.236592 20.089844 16.974609 C 20.083644 17.712627 19.753738 18.470429 19.212891 19.054688 C 18.672043 19.638948 17.940421 20.026763 17.205078 20.089844 C 16.469735 20.152924 15.70616 19.943536 14.90625 19.15625 A 1 1 0 0 0 13.492188 19.166016 A 1 1 0 0 0 13.503906 20.580078 C 14.663638 21.721507 16.076292 22.19344 17.375 22.082031 C 18.673708 21.970622 19.833952 21.327682 20.679688 20.414062 C 21.525423 19.500443 22.078836 18.293665 22.089844 16.990234 C 22.100854 15.686803 21.520365 14.314427 20.292969 13.246094 A 1 1 0 0 0 19.568359 13.001953 z "/>
</svg>
