<svg xmlns="http://www.w3.org/2000/svg" xmlns:svg="http://www.w3.org/2000/svg" width="24" height="24" viewBox="0 0 24 24" fill="currentColor" tags="water,weather,liquid,fluid,wet,moisture,damp,bead,globule" categories="weather,gaming">
  <path d="M 12 2 A 1.0001 1.0001 0 0 0 11.019531 2.8046875 C 10.570823 5.0482279 9.1845442 7.2711146 7.375 8.71875 C 5.2004155 10.458418 4 12.666667 4 15 C 4 19.406433 7.5935666 23 12 23 C 16.406433 23 20 19.406433 20 15 C 20 12.666667 18.799584 10.458418 16.625 8.71875 C 14.815456 7.2711146 13.429177 5.0482279 12.980469 2.8046875 A 1.0001 1.0001 0 0 0 12 2 z M 12 5.6542969 C 12.803135 7.4249993 13.871615 9.0785419 15.375 10.28125 C 17.200416 11.741582 18 13.333333 18 15 C 18 18.325553 15.325553 21 12 21 C 8.6744469 21 6 18.325553 6 15 C 6 13.333333 6.7995845 11.741582 8.625 10.28125 C 10.128385 9.0785419 11.196865 7.4249993 12 5.6542969 z "/>
</svg>
