<?xml version="1.0" encoding="UTF-8" standalone="no"?>
<svg xmlns="http://www.w3.org/2000/svg" xmlns:svg="http://www.w3.org/2000/svg" width="24" height="24" viewBox="0 0 24 24" fill="currentColor" tags="water,humidity,weather" categories="weather">
  <path d="M 14.003906 2.0195312 A 1.0001 1.0001 0 0 0 13.021484 2.8164062 C 12.780913 3.9697717 12.337957 5.0716043 11.712891 6.0703125 A 1 1 0 0 0 12.029297 7.4472656 A 1 1 0 0 0 13.408203 7.1308594 C 13.689557 6.681324 13.777456 6.1470457 13.996094 5.6660156 C 14.799136 7.4401668 15.869183 9.0961275 17.375 10.300781 C 19.200412 11.761111 20 13.352868 20 15.019531 A 1.0001 1.0001 0 0 0 20 15.023438 C 20.01121 17.734256 18.415401 19.694902 16.322266 20.568359 C 14.22913 21.441818 11.715881 21.195951 9.796875 19.28125 A 1 1 0 0 0 8.3828125 19.283203 A 1 1 0 0 0 8.3828125 20.697266 C 10.873065 23.18189 14.327775 23.568294 17.09375 22.414062 C 19.859192 21.260054 22.013704 18.534365 22 15.017578 C 21.999347 12.684952 20.798989 10.477472 18.625 8.7382812 C 16.81546 7.2906487 15.429175 5.0677546 14.980469 2.8242188 A 1.0001 1.0001 0 0 0 14.003906 2.0195312 z M 7 4.3007812 A 1.0001 1.0001 0 0 0 6.0195312 5.1035156 C 5.7791244 6.3055503 5.0399593 7.5160794 4.0859375 8.2792969 C 2.7504527 9.3476846 2 10.775365 2 12.25 C 2 15.010535 4.2454601 17.300781 7 17.300781 C 9.7545399 17.300781 12 15.010535 12 12.25 C 12 10.762416 11.234638 9.356094 9.921875 8.2851562 C 8.9664556 7.505735 8.2198353 6.3003483 7.9804688 5.1035156 A 1.0001 1.0001 0 0 0 7 4.3007812 z M 7.0039062 7.9375 C 7.4510475 8.6560148 8.009461 9.3047473 8.6582031 9.8339844 C 9.6254363 10.623043 10 11.417588 10 12.25 C 10 13.929456 8.6454513 15.300781 7 15.300781 C 5.3545487 15.300781 4 13.929456 4 12.25 C 4 11.42464 4.3694736 10.613405 5.3339844 9.8417969 C 5.9947009 9.3132236 6.5568567 8.660569 7.0039062 7.9375 z "/>
</svg>
