<svg xmlns="http://www.w3.org/2000/svg" xmlns:svg="http://www.w3.org/2000/svg" width="24" height="24" viewBox="0 0 24 24" fill="currentColor" tags="water,weather,liquid,fluid,wet,moisture,damp,bead,globule" categories="weather">
  <path d="M 14.003906 2.0195312 A 1.0001 1.0001 0 0 0 13.021484 2.8164062 C 12.780912 3.9697739 12.337959 5.0716023 11.712891 6.0703125 A 1 1 0 0 0 12.029297 7.4472656 A 1 1 0 0 0 13.408203 7.1308594 C 13.689557 6.6813232 13.777455 6.1470466 13.996094 5.6660156 C 14.799138 7.4401703 15.869179 9.096125 17.375 10.300781 C 19.200416 11.761114 20 13.352865 20 15.019531 A 1.0001 1.0001 0 0 0 20 15.023438 C 20.01121 17.734262 18.415405 19.6949 16.322266 20.568359 C 14.229126 21.441819 11.715885 21.195955 9.796875 19.28125 A 1 1 0 0 0 8.3828125 19.283203 A 1 1 0 0 0 8.3828125 20.697266 C 10.873069 23.181936 14.327769 23.568297 17.09375 22.414062 C 19.859198 21.260012 22.013704 18.534371 22 15.017578 C 21.999347 12.684948 20.798993 10.477476 18.625 8.7382812 C 16.815456 7.2906458 15.429177 5.0677591 14.980469 2.8242188 A 1.0001 1.0001 0 0 0 14.003906 2.0195312 z M 7 4.3007812 A 1.0001 1.0001 0 0 0 6.0195312 5.1035156 C 5.7791238 6.3055527 5.0399612 7.5160779 4.0859375 8.2792969 C 2.7504501 9.3476868 2 10.775362 2 12.25 C 2 15.010541 4.2454545 17.300781 7 17.300781 C 9.7545455 17.300781 12 15.010541 12 12.25 C 12 10.762414 11.23464 9.3560961 9.921875 8.2851562 C 8.9664536 7.5057334 8.2198358 6.3003507 7.9804688 5.1035156 A 1.0001 1.0001 0 0 0 7 4.3007812 z M 7.0039062 7.9375 C 7.4510485 8.6560162 8.0094596 9.3047463 8.6582031 9.8339844 C 9.6254381 10.623045 10 11.417586 10 12.25 C 10 13.929459 8.6454545 15.300781 7 15.300781 C 5.3545455 15.300781 4 13.929459 4 12.25 C 4 11.424638 4.3694718 10.613407 5.3339844 9.8417969 C 5.9947023 9.3132226 6.5568558 8.6605704 7.0039062 7.9375 z "/>
</svg>
