<?xml version="1.0" encoding="UTF-8" standalone="no"?>
<svg xmlns="http://www.w3.org/2000/svg" xmlns:svg="http://www.w3.org/2000/svg" width="24" height="24" viewBox="0 0 24 24" fill="currentColor" tags="water,weather" categories="weather,gaming">
  <path d="M 12 2 A 1.0001 1.0001 0 0 0 11.019531 2.8046875 C 10.570825 5.0482235 9.1845406 7.2711175 7.375 8.71875 C 5.2004199 10.458414 4 12.666671 4 15 C 4 19.406425 7.5935754 23 12 23 C 16.406425 23 20 19.406425 20 15 C 20 12.666671 18.79958 10.458414 16.625 8.71875 C 14.81546 7.2711175 13.429175 5.0482235 12.980469 2.8046875 A 1.0001 1.0001 0 0 0 12 2 z M 12 5.6542969 C 12.803134 7.4249957 13.871618 9.0785443 15.375 10.28125 C 17.200412 11.74158 18 13.333337 18 15 C 18 18.325547 15.325547 21 12 21 C 8.6744535 21 6 18.325547 6 15 C 6 13.333337 6.7995881 11.74158 8.625 10.28125 C 10.128382 9.0785443 11.196866 7.4249957 12 5.6542969 z "/>
</svg>
