<svg xmlns="http://www.w3.org/2000/svg" xmlns:svg="http://www.w3.org/2000/svg" width="24" height="24" viewBox="0 0 24 24" fill="currentColor" tags="water,weather,liquid,fluid,wet,moisture,damp,bead,globule" categories="weather,gaming">
  <path d="M 2 1 A 1 1 0 0 0 1.2929688 1.2929688 A 1 1 0 0 0 1.2929688 2.7070312 L 7.3378906 8.7519531 C 5.1880448 10.486733 4 12.680711 4 15 C 3.9995829 19.117928 6.8389225 21.980946 10.113281 22.775391 C 13.017661 23.480068 16.364359 22.580982 18.400391 19.814453 L 21.292969 22.707031 A 1 1 0 0 0 22.707031 22.707031 A 1 1 0 0 0 22.707031 21.292969 L 19.025391 17.611328 A 1 1 0 0 0 18.820312 17.40625 L 9.5117188 8.0996094 L 2.7070312 1.2929688 A 1 1 0 0 0 2 1 z M 12.001953 2 A 1.0001 1.0001 0 0 0 11.019531 2.8007812 C 10.853707 3.6132636 10.584985 4.4005573 10.21875 5.1445312 A 1 1 0 0 0 10.673828 6.4824219 A 1 1 0 0 0 12.013672 6.0273438 C 12.042062 5.9696698 12.048752 5.9038086 12.076172 5.8457031 C 12.879966 7.5408265 13.925082 9.1213156 15.375 10.28125 C 16.638258 11.291674 17.406901 12.381532 17.761719 13.490234 A 1 1 0 0 0 19.019531 14.138672 A 1 1 0 0 0 19.667969 12.880859 C 19.172787 11.333562 18.129742 9.922326 16.625 8.71875 C 14.815456 7.2711146 13.429177 5.0482279 12.980469 2.8046875 A 1.0001 1.0001 0 0 0 12.001953 2 z M 8.7578125 10.171875 L 16.966797 18.380859 C 15.427639 20.733435 12.887992 21.390569 10.585938 20.832031 C 8.0899216 20.226433 5.9996736 18.222448 6 15 C 6 13.333333 6.7995845 11.741582 8.625 10.28125 A 1.0001 1.0001 0 0 0 8.625 10.279297 C 8.6694245 10.243687 8.713909 10.208063 8.7578125 10.171875 z "/>
</svg>
