<?xml version="1.0" encoding="UTF-8" standalone="no"?>
<svg xmlns="http://www.w3.org/2000/svg" xmlns:svg="http://www.w3.org/2000/svg" width="24" height="24" viewBox="0 0 24 24" fill="currentColor" tags="food,chicken,meat" categories="food-beverage">
  
  <path d="M 16.484375 1.2871094 C 16.241192 1.2939215 15.997774 1.3131995 15.753906 1.34375 C 13.803777 1.588052 11.827891 2.5596659 10.214844 4.171875 C 8.6001875 5.7810202 7.6278108 7.7594285 7.3847656 9.7109375 C 7.2772465 10.574253 7.318353 11.440789 7.5175781 12.257812 L 5.9023438 13.873047 C 4.6841923 13.491317 3.351041 13.607246 2.4140625 14.542969 C 0.58555575 16.353582 1.4820314 19.354955 3.7578125 20.189453 C 4.3657672 22.027316 6.366054 23.125371 8.2460938 22.412109 C 10.033739 21.733902 10.805083 19.758562 10.228516 18.035156 L 11.744141 16.519531 C 13.01287 16.834684 14.407243 16.764799 15.742188 16.357422 A 1.0001 1.0001 0 0 0 16.388672 15.058594 C 16.046157 14.118357 16.369863 12.624273 17.517578 11.476562 C 18.663582 10.330559 20.168624 10.007619 21.107422 10.349609 A 1.0001 1.0001 0 0 0 22.408203 9.6972656 C 23.128166 7.2898889 22.772548 4.7080955 21.056641 2.9921875 C 19.84431 1.7798571 18.186653 1.2394246 16.484375 1.2871094 z M 16.806641 3.2832031 C 17.933662 3.3013359 18.915817 3.6794891 19.642578 4.40625 C 20.604891 5.3685629 20.838413 6.8481875 20.542969 8.4433594 C 18.99349 8.3432242 17.374104 8.7919108 16.103516 10.0625 C 14.833887 11.332128 14.382294 12.948772 14.482422 14.496094 C 12.895326 14.796371 11.414565 14.562923 10.462891 13.597656 A 1.0001 1.0001 0 0 0 10.453125 13.589844 C 9.5561153 12.700623 9.1871866 11.418015 9.3691406 9.9570312 C 9.5510947 8.4960471 10.309662 6.8987396 11.625 5.5878906 A 1.0001 1.0001 0 0 0 11.626953 5.5878906 C 12.943484 4.2713133 14.542357 3.5112203 16.003906 3.328125 C 16.277947 3.2937946 16.546559 3.2790186 16.806641 3.2832031 z M 8.3867188 14.216797 C 8.5796647 14.49661 8.7987895 14.761739 9.046875 15.007812 L 9.046875 15.009766 C 9.2804969 15.24563 9.5310952 15.455284 9.7949219 15.640625 L 8.3828125 17.052734 A 1.0001 1.0001 0 0 0 8.2558594 18.3125 C 8.7992283 19.133324 8.4574747 20.193795 7.5371094 20.542969 C 6.616744 20.892142 5.6573527 20.324293 5.5195312 19.349609 A 1.0001 1.0001 0 0 0 4.6660156 18.5 C 3.3768066 18.323244 2.8956581 16.87651 3.8222656 15.962891 A 1.0001 1.0001 0 0 0 3.8261719 15.957031 C 4.333512 15.450372 5.1118205 15.371724 5.7109375 15.765625 A 1.0001 1.0001 0 0 0 6.9667969 15.636719 L 8.3867188 14.216797 z "/>
</svg>
