<?xml version="1.0" encoding="UTF-8" standalone="no"?>
<svg xmlns="http://www.w3.org/2000/svg" xmlns:svg="http://www.w3.org/2000/svg" width="24" height="24" viewBox="0 0 24 24" fill="currentColor" tags="food,chicken,meat" categories="food-beverage">
  <path d="M 16.820312 0.98046875 C 14.594487 0.97162449 12.143168 1.9544876 10.048828 4.0488281 C 7.4378831 6.6597733 6.5558843 9.8233598 7.1679688 12.416016 L 5.3359375 14.25 C 4.637477 14.132236 3.936134 14.193991 3.4101562 14.544922 C 2.6714703 15.037771 2.192831 15.783805 1.9082031 16.585938 C 1.6235752 17.388071 1.5242874 18.268966 1.7871094 19.117188 C 1.9972743 19.795466 2.5920617 20.351889 3.3300781 20.677734 C 3.6644405 21.406405 4.2245575 21.990961 4.9003906 22.197266 C 5.7447412 22.455012 6.6207215 22.356264 7.4179688 22.072266 C 8.2152161 21.788268 8.9560253 21.309687 9.4472656 20.576172 C 9.797788 20.052776 9.86597 19.354356 9.7558594 18.658203 L 11.591797 16.824219 C 12.813814 17.107776 14.212701 17.060845 15.705078 16.582031 A 1 1 0 0 0 15.845703 16.503906 A 1 1 0 0 0 15.894531 16.498047 A 1 1 0 0 0 15.960938 16.439453 A 1 1 0 0 0 16.115234 16.306641 A 1 1 0 0 0 16.230469 16.162109 A 1 1 0 0 0 16.316406 15.990234 A 1 1 0 0 0 16.371094 15.798828 A 1 1 0 0 0 16.384766 15.613281 A 1 1 0 0 0 16.361328 15.410156 A 1 1 0 0 0 16.351562 15.324219 A 1 1 0 0 0 16.320312 15.287109 A 1 1 0 0 0 16.269531 15.134766 C 15.946027 14.567654 15.902535 13.955046 16.087891 13.273438 C 16.273246 12.591829 16.710048 11.871983 17.291016 11.291016 C 17.871983 10.710048 18.59183 10.273246 19.273438 10.087891 C 19.955047 9.9025345 20.567654 9.9460274 21.134766 10.269531 A 1.0001 1.0001 0 0 0 22.582031 9.7050781 C 23.80387 5.8968243 22.223346 2.6871185 19.474609 1.5136719 C 18.787425 1.2203102 18.041542 1.0460291 17.261719 0.99609375 C 17.115502 0.98673088 16.968701 0.98105837 16.820312 0.98046875 z M 16.800781 2.9824219 C 16.910123 2.9827941 17.018373 2.9854652 17.125 2.9921875 C 17.693675 3.0280395 18.222397 3.1521742 18.689453 3.3515625 C 20.342719 4.0573482 21.312176 5.6490123 20.847656 8.1328125 C 20.138042 7.9964658 19.422069 7.9749102 18.748047 8.1582031 C 17.662079 8.4535196 16.677484 9.0764224 15.876953 9.8769531 C 15.076422 10.677484 14.45352 11.662079 14.158203 12.748047 C 13.974911 13.422069 13.996465 14.138042 14.132812 14.847656 C 11.649012 15.312176 10.057348 14.342719 9.3515625 12.689453 C 9.309782 12.591585 9.2733821 12.489759 9.2382812 12.386719 C 9.2374122 12.384168 9.237193 12.38146 9.2363281 12.378906 A 1 1 0 0 0 9.2304688 12.365234 C 8.6067009 10.502286 9.0902175 7.8355635 11.462891 5.4628906 C 13.230312 3.6954693 15.160648 2.9768386 16.800781 2.9824219 z M 8.015625 14.398438 C 8.432686 15.022885 8.9696186 15.560177 9.6054688 15.980469 L 7.9921875 17.59375 A 1.0001 1.0001 0 0 0 7.8164062 18.769531 C 7.9956888 19.107144 7.9546823 19.209756 7.7851562 19.462891 C 7.6156303 19.716025 7.2118473 20.021588 6.7460938 20.1875 C 6.2803403 20.353412 5.7757585 20.372151 5.484375 20.283203 C 5.1929915 20.194255 5.0960239 20.140549 5.0214844 19.765625 A 1.0001 1.0001 0 0 0 4.2167969 18.976562 C 3.8348567 18.907692 3.7869782 18.814926 3.6972656 18.525391 C 3.607553 18.235855 3.6260025 17.724447 3.7929688 17.253906 C 3.959935 16.783365 4.2673856 16.377215 4.5195312 16.208984 C 4.7716771 16.040754 4.8671061 15.998274 5.2070312 16.185547 A 1.0001 1.0001 0 0 0 6.3964844 16.017578 L 8.015625 14.398438 z "/>
</svg>
