<?xml version="1.0" encoding="UTF-8" standalone="no"?>
<svg xmlns="http://www.w3.org/2000/svg" xmlns:svg="http://www.w3.org/2000/svg" width="24" height="24" viewBox="0 0 24 24" fill="currentColor" tags="drummer,kit,sticks,instrument,beat,bang,bass,backing track,band,play,performance,concert,march,music,audio,sound,noise,loud" categories="multimedia,devices">
  <path d="M 2 1 A 1 1 0 0 0 1.2929688 1.2929688 A 1 1 0 0 0 1.2929688 2.7070312 L 3.6347656 5.0488281 C 2.0839528 6.0254688 1 7.3640137 1 9 L 1 17 C 1 18.921153 2.4907977 20.433877 4.4824219 21.429688 C 6.474046 22.425499 9.1034665 23 12 23 C 14.896533 23 17.525954 22.425499 19.517578 21.429688 C 21.509202 20.433877 23 18.921153 23 17 L 23 9 C 23 7.3640137 21.916047 6.0254688 20.365234 5.0488281 L 22.707031 2.7070312 A 1 1 0 0 0 22.707031 1.2929688 A 1 1 0 0 0 21.292969 1.2929688 L 18.474609 4.1113281 C 16.645219 3.4006123 14.416408 3 12 3 C 9.5835921 3 7.3547813 3.4006123 5.5253906 4.1113281 L 2.7070312 1.2929688 A 1 1 0 0 0 2 1 z M 12 5 C 13.809269 5 15.489676 5.262287 16.896484 5.6894531 L 13.292969 9.2929688 A 1 1 0 0 0 13.292969 10.707031 A 1 1 0 0 0 14.707031 10.707031 L 18.90625 6.5078125 C 20.337483 7.2911927 21 8.2101783 21 9 C 21 9.8402718 20.250711 10.826793 18.623047 11.640625 C 16.995383 12.454457 14.626314 13 12 13 C 9.3736863 13 7.0046172 12.454457 5.3769531 11.640625 C 3.749289 10.826793 3 9.8402718 3 9 C 3 8.2101783 3.6625166 7.2911927 5.09375 6.5078125 L 9.2929688 10.707031 A 1 1 0 0 0 10.707031 10.707031 A 1 1 0 0 0 10.707031 9.2929688 L 7.1035156 5.6894531 C 8.5103243 5.262287 10.190731 5 12 5 z M 3 12.511719 C 3.4451703 12.853741 3.9447837 13.160868 4.4824219 13.429688 C 4.9538916 13.665422 5.4619644 13.877971 6 14.064453 L 6 19.923828 C 5.7825281 19.833814 5.5736292 19.738963 5.3769531 19.640625 C 3.7492891 18.826794 3 17.840273 3 17 L 3 12.511719 z M 21 12.511719 L 21 17 C 21 17.840273 20.250711 18.826794 18.623047 19.640625 C 18.426371 19.738963 18.217472 19.833814 18 19.923828 L 18 14.064453 C 18.538036 13.877971 19.046108 13.665422 19.517578 13.429688 C 20.055216 13.160868 20.55483 12.853741 21 12.511719 z M 8 14.607422 C 8.9447682 14.801525 9.9510267 14.925737 11 14.974609 L 11 20.972656 C 9.9296011 20.915717 8.9222647 20.764696 8 20.548828 L 8 14.607422 z M 16 14.607422 L 16 20.548828 C 15.077735 20.764696 14.070399 20.915717 13 20.972656 L 13 14.974609 C 14.048973 14.925737 15.055232 14.801525 16 14.607422 z "/>
</svg>
