<?xml version="1.0" encoding="UTF-8" standalone="no"?>
<svg xmlns="http://www.w3.org/2000/svg" xmlns:svg="http://www.w3.org/2000/svg" width="24" height="24" viewBox="0 0 24 24" fill="currentColor" tags="food,chicken,meat" categories="food-beverage">
  <path d="M 16.820312 0.98046875 C 14.594492 0.97162485 12.143164 1.9544919 10.048828 4.0488281 C 7.4378883 6.659768 6.555886 9.8233633 7.1679688 12.416016 L 5.3359375 14.25 C 4.6374784 14.132236 3.9361329 14.19399 3.4101562 14.544922 C 2.6714718 15.037769 2.1928304 15.783806 1.9082031 16.585938 C 1.6235758 17.38807 1.5242879 18.268967 1.7871094 19.117188 C 1.9972739 19.795466 2.5920632 20.35189 3.3300781 20.677734 C 3.6644399 21.406405 4.2245589 21.990961 4.9003906 22.197266 C 5.7447396 22.455011 6.620723 22.356262 7.4179688 22.072266 C 8.2152146 21.788268 8.9560263 21.309685 9.4472656 20.576172 C 9.7977873 20.052776 9.8659698 19.354354 9.7558594 18.658203 L 11.591797 16.824219 C 12.813813 17.107776 14.212704 17.060844 15.705078 16.582031 A 1 1 0 0 0 15.845703 16.503906 A 1 1 0 0 0 15.894531 16.498047 A 1 1 0 0 0 15.960938 16.439453 A 1 1 0 0 0 16.115234 16.306641 A 1 1 0 0 0 16.230469 16.162109 A 1 1 0 0 0 16.316406 15.990234 A 1 1 0 0 0 16.371094 15.798828 A 1 1 0 0 0 16.384766 15.613281 A 1 1 0 0 0 16.361328 15.410156 A 1 1 0 0 0 16.351562 15.324219 A 1 1 0 0 0 16.320312 15.287109 A 1 1 0 0 0 16.269531 15.134766 C 15.946028 14.567654 15.902535 13.955045 16.087891 13.273438 C 16.273245 12.591829 16.710049 11.871981 17.291016 11.291016 C 17.871981 10.710049 18.59183 10.273245 19.273438 10.087891 C 19.955046 9.9025349 20.567654 9.946028 21.134766 10.269531 A 1.0001 1.0001 0 0 0 22.582031 9.7050781 C 23.803868 5.8968319 22.223341 2.6871161 19.474609 1.5136719 C 18.787427 1.2203108 18.04154 1.046029 17.261719 0.99609375 C 17.115502 0.98673089 16.968701 0.98105834 16.820312 0.98046875 z M 16.800781 2.9824219 C 16.910123 2.9827941 17.018374 2.9854652 17.125 2.9921875 C 17.693673 3.0280395 18.222398 3.1521746 18.689453 3.3515625 C 20.342715 4.0573468 21.312175 5.6490173 20.847656 8.1328125 C 20.138044 7.996466 19.422067 7.9749106 18.748047 8.1582031 C 17.662081 8.453519 16.677482 9.076424 15.876953 9.8769531 C 15.076424 10.677482 14.453519 11.662081 14.158203 12.748047 C 13.974911 13.422067 13.996466 14.138044 14.132812 14.847656 C 11.649017 15.312174 10.057346 14.342715 9.3515625 12.689453 C 9.3097821 12.591585 9.273382 12.489758 9.2382812 12.386719 C 9.2374122 12.384168 9.237193 12.38146 9.2363281 12.378906 A 1 1 0 0 0 9.2304688 12.365234 C 8.6067023 10.50229 9.0902222 7.8355587 11.462891 5.4628906 C 13.230308 3.6954729 15.160651 2.9768388 16.800781 2.9824219 z M 8.015625 14.398438 C 8.4326856 15.022884 8.9696189 15.560178 9.6054688 15.980469 L 7.9921875 17.59375 A 1.0001 1.0001 0 0 0 7.8164062 18.769531 C 7.9956885 19.107143 7.9546819 19.209757 7.7851562 19.462891 C 7.6156307 19.716024 7.2118464 20.021588 6.7460938 20.1875 C 6.2803412 20.353412 5.7757579 20.372151 5.484375 20.283203 C 5.1929921 20.194255 5.0960237 20.140549 5.0214844 19.765625 A 1.0001 1.0001 0 0 0 4.2167969 18.976562 C 3.8348575 18.907693 3.786978 18.814925 3.6972656 18.525391 C 3.6075527 18.235856 3.6260029 17.724447 3.7929688 17.253906 C 3.9599346 16.783367 4.2673861 16.377215 4.5195312 16.208984 C 4.7716765 16.040755 4.8671067 15.998274 5.2070312 16.185547 A 1.0001 1.0001 0 0 0 6.3964844 16.017578 L 8.015625 14.398438 z "/>
</svg>
