<svg xmlns="http://www.w3.org/2000/svg" xmlns:svg="http://www.w3.org/2000/svg" width="24" height="24" viewBox="0 0 24 24" fill="currentColor" tags="drummer,kit,sticks,instrument,beat,bang,bass,backing track,band,play,performance,concert,march,music,audio,sound,noise,loud" categories="multimedia,devices">
  <path d="M 2 1 A 1 1 0 0 0 1.2929688 1.2929688 A 1 1 0 0 0 1.2929688 2.7070312 L 3.6328125 5.046875 C 2.0814686 6.023569 1 7.3636649 1 9 L 1 17 C 1 18.921153 2.4907977 20.433877 4.4824219 21.429688 C 6.474046 22.425499 9.1034665 23 12 23 C 14.896533 23 17.525954 22.425499 19.517578 21.429688 C 21.509202 20.433877 23 18.921153 23 17 L 23 9 C 23 7.3636648 21.918531 6.023569 20.367188 5.046875 L 22.707031 2.7070312 A 1 1 0 0 0 22.707031 1.2929688 A 1 1 0 0 0 21.292969 1.2929688 L 18.476562 4.109375 C 16.647295 3.3988188 14.416119 3 12 3 C 9.5838817 3 7.3527051 3.3988189 5.5234375 4.109375 L 2.7070312 1.2929688 A 1 1 0 0 0 2 1 z M 12 5 C 13.808152 5 15.494105 5.2588521 16.900391 5.6855469 L 13.292969 9.2929688 A 1 1 0 0 0 13.292969 10.707031 A 1 1 0 0 0 14.707031 10.707031 L 18.90625 6.5078125 C 20.337685 7.2912275 21 8.2101247 21 9 C 21 9.8402718 20.250711 10.826793 18.623047 11.640625 C 16.995383 12.454457 14.626314 13 12 13 C 9.3736863 13 7.0046172 12.454457 5.3769531 11.640625 C 3.749289 10.826793 3 9.8402718 3 9 C 3 8.2101247 3.6623153 7.2912275 5.09375 6.5078125 L 9.2929688 10.707031 A 1 1 0 0 0 10.707031 10.707031 A 1 1 0 0 0 10.707031 9.2929688 L 7.0996094 5.6855469 C 8.5058954 5.2588521 10.191848 5 12 5 z M 3 12.513672 C 3.4447888 12.855222 3.9453988 13.161176 4.4824219 13.429688 C 4.9541432 13.665548 5.4616444 13.877898 6 14.064453 L 6 19.923828 C 5.7820194 19.83364 5.5740505 19.739174 5.3769531 19.640625 C 3.7492891 18.826794 3 17.840273 3 17 L 3 12.513672 z M 21 12.513672 L 21 17 C 21 17.840273 20.250711 18.826794 18.623047 19.640625 C 18.425949 19.739174 18.217981 19.83364 18 19.923828 L 18 14.064453 C 18.538356 13.877898 19.045857 13.665548 19.517578 13.429688 C 20.054601 13.161176 20.555211 12.855222 21 12.513672 z M 8 14.609375 C 8.9447633 14.803407 9.9510595 14.927749 11 14.976562 L 11 20.972656 C 9.9322466 20.915838 8.9204273 20.769699 8 20.554688 L 8 14.609375 z M 16 14.609375 L 16 20.554688 C 15.079573 20.769699 14.067753 20.915838 13 20.972656 L 13 14.976562 C 14.048941 14.927749 15.055237 14.803407 16 14.609375 z "/>
</svg>
