<?xml version="1.0" encoding="UTF-8" standalone="no"?>
<svg xmlns="http://www.w3.org/2000/svg" xmlns:svg="http://www.w3.org/2000/svg" width="24" height="24" viewBox="0 0 24 24" fill="currentColor" tags="drummer,kit,sticks,instrument,beat,bang,bass,backing track,band,play,performance,concert,march,music,audio,sound,noise,loud" categories="multimedia,devices">
  
  <path d="M 2 1 A 1 1 0 0 0 1.2929688 1.2929688 A 1 1 0 0 0 1.2929688 2.7070312 L 3.6347656 5.0488281 C 2.0839551 6.0254678 1 7.364017 1 9 L 1 17 C 1 18.921149 2.4908017 20.433878 4.4824219 21.429688 C 6.474042 22.425498 9.1034723 23 12 23 C 14.896528 23 17.525958 22.425498 19.517578 21.429688 C 21.509198 20.433878 23 18.921149 23 17 L 23 9 C 23 7.364017 21.916045 6.0254678 20.365234 5.0488281 L 22.707031 2.7070312 A 1 1 0 0 0 22.707031 1.2929688 A 1 1 0 0 0 21.292969 1.2929688 L 18.474609 4.1113281 C 16.645221 3.4006134 14.416403 3 12 3 C 9.583597 3 7.3547794 3.4006134 5.5253906 4.1113281 L 2.7070312 1.2929688 A 1 1 0 0 0 2 1 z M 12 5 C 13.809265 5 15.489677 5.2622874 16.896484 5.6894531 L 13.292969 9.2929688 A 1 1 0 0 0 13.292969 10.707031 A 1 1 0 0 0 14.707031 10.707031 L 18.90625 6.5078125 C 20.33748 7.2911915 21 8.2101799 21 9 C 21 9.8402701 20.250707 10.826795 18.623047 11.640625 C 16.995386 12.454455 14.626308 13 12 13 C 9.3736915 13 7.004614 12.454455 5.3769531 11.640625 C 3.7492924 10.826795 3 9.8402701 3 9 C 3 8.2101799 3.6625193 7.2911915 5.09375 6.5078125 L 9.2929688 10.707031 A 1 1 0 0 0 10.707031 10.707031 A 1 1 0 0 0 10.707031 9.2929688 L 7.1035156 5.6894531 C 8.5103234 5.2622874 10.190735 5 12 5 z M 3 12.511719 C 3.4451697 12.853741 3.9447847 13.160869 4.4824219 13.429688 C 4.9538906 13.665422 5.4619649 13.877971 6 14.064453 L 6 19.923828 C 5.7825283 19.833814 5.5736288 19.738963 5.3769531 19.640625 C 3.7492924 18.826796 3 17.840271 3 17 L 3 12.511719 z M 21 12.511719 L 21 17 C 21 17.840271 20.250707 18.826796 18.623047 19.640625 C 18.426371 19.738963 18.217472 19.833814 18 19.923828 L 18 14.064453 C 18.538035 13.877971 19.046109 13.665422 19.517578 13.429688 C 20.055215 13.160869 20.55483 12.853741 21 12.511719 z M 8 14.607422 C 8.9447677 14.801525 9.9510282 14.925737 11 14.974609 L 11 20.972656 C 9.9296027 20.915717 8.9222642 20.764696 8 20.548828 L 8 14.607422 z M 16 14.607422 L 16 20.548828 C 15.077736 20.764696 14.070397 20.915717 13 20.972656 L 13 14.974609 C 14.048972 14.925737 15.055232 14.801525 16 14.607422 z "/>
</svg>
