<?xml version="1.0" encoding="UTF-8" standalone="no"?>
<svg xmlns="http://www.w3.org/2000/svg" xmlns:svg="http://www.w3.org/2000/svg" width="24" height="24" viewBox="0 0 24 24" fill="currentColor" tags="barbell,weight,workout,gym" categories="maps,sports">
  
  <path d="M 6 1 A 1 1 0 0 0 5.2929688 1.2929688 L 4 2.5859375 L 3.7070312 2.2929688 A 1 1 0 0 0 3 2 A 1 1 0 0 0 2.2929688 2.2929688 A 1 1 0 0 0 2.2929688 3.7070312 L 2.5859375 4 L 1.2929688 5.2929688 A 1 1 0 0 0 1.2929688 6.7070312 A 1 1 0 0 0 2.7070312 6.7070312 L 6.7070312 2.7070312 A 1 1 0 0 0 6.7070312 1.2929688 A 1 1 0 0 0 6 1 z M 10 2 A 1 1 0 0 0 9.2929688 2.2929688 L 2.2929688 9.2929688 A 1 1 0 0 0 2.2929688 10.707031 A 1 1 0 0 0 3.7070312 10.707031 L 6.5 7.9140625 L 16.085938 17.5 L 13.292969 20.292969 A 1 1 0 0 0 13.292969 21.707031 A 1 1 0 0 0 14.707031 21.707031 L 18.207031 18.207031 L 21.707031 14.707031 A 1 1 0 0 0 21.707031 13.292969 A 1 1 0 0 0 20.292969 13.292969 L 17.5 16.085938 L 7.9140625 6.5 L 10.707031 3.7070312 A 1 1 0 0 0 10.707031 2.2929688 A 1 1 0 0 0 10 2 z M 21.888672 17.005859 A 1 1 0 0 0 21.292969 17.292969 L 17.292969 21.292969 A 1 1 0 0 0 17.292969 22.707031 A 1 1 0 0 0 18.707031 22.707031 L 20 21.414062 L 20.292969 21.707031 A 1 1 0 0 0 21.707031 21.707031 A 1 1 0 0 0 21.707031 20.292969 L 21.414062 20 L 22.707031 18.707031 A 1 1 0 0 0 22.707031 17.292969 A 1 1 0 0 0 21.888672 17.005859 z "/>
</svg>
