<?xml version="1.0" encoding="UTF-8" standalone="no"?>
<svg xmlns="http://www.w3.org/2000/svg" xmlns:svg="http://www.w3.org/2000/svg" width="24" height="24" viewBox="0 0 24 24" fill="currentColor" tags="barbell,weight,workout,gym" categories="navigation,sports">
  <path d="M 6.6113281 0.8984375 C 5.921026 0.93563577 5.2037876 1.2413244 4.6367188 1.8085938 L 3.9296875 2.515625 L 3.2070312 1.7929688 A 1 1 0 0 0 1.7929688 1.7929688 A 1 1 0 0 0 1.7929688 3.2070312 L 2.515625 3.9296875 L 1.8085938 4.6367188 C 1.1602859 5.2847975 0.85291184 6.1280227 0.8984375 6.9042969 C 0.94396316 7.6805711 1.2960336 8.3681187 1.8066406 8.8789062 C 2.0631775 9.1355337 2.4642363 9.1777497 2.7988281 9.3359375 C 2.212479 9.9705084 1.913542 10.760684 1.9570312 11.5 C 2.0026993 12.276355 2.3564277 12.96385 2.8671875 13.474609 C 3.3779473 13.985369 4.0654422 14.339098 4.8417969 14.384766 C 5.6181515 14.430436 6.4630516 14.122886 7.1113281 13.474609 L 9.5859375 11 L 13 14.414062 L 10.525391 16.888672 C 9.8771137 17.536948 9.5695663 18.381848 9.6152344 19.158203 C 9.6609024 19.934558 10.014631 20.622053 10.525391 21.132812 C 11.03615 21.643573 11.723645 21.997301 12.5 22.042969 C 13.239316 22.086459 14.029491 21.787521 14.664062 21.201172 C 14.822249 21.535764 14.864466 21.936822 15.121094 22.193359 C 15.631881 22.703966 16.319429 23.056038 17.095703 23.101562 C 17.871977 23.147092 18.715203 22.839714 19.363281 22.191406 L 20.070312 21.484375 L 20.792969 22.207031 A 1 1 0 0 0 22.207031 22.207031 A 1 1 0 0 0 22.207031 20.792969 L 21.484375 20.070312 L 22.191406 19.363281 C 22.839714 18.715203 23.147088 17.871977 23.101562 17.095703 C 23.056033 16.319429 22.703966 15.631881 22.193359 15.121094 C 21.936822 14.864466 21.535764 14.822249 21.201172 14.664062 C 21.787521 14.029491 22.086458 13.239316 22.042969 12.5 C 21.997301 11.723645 21.643573 11.03615 21.132812 10.525391 C 20.622053 10.014631 19.934558 9.6609025 19.158203 9.6152344 C 18.381848 9.5695663 17.536948 9.8771136 16.888672 10.525391 L 14.414062 13 L 11 9.5859375 L 13.474609 7.1113281 C 14.122886 6.4630516 14.430434 5.6181515 14.384766 4.8417969 C 14.339098 4.0654422 13.985369 3.3779473 13.474609 2.8671875 C 12.96385 2.3564277 12.276355 2.0026994 11.5 1.9570312 C 10.760684 1.9135419 9.9705084 2.212479 9.3359375 2.7988281 C 9.1777497 2.4642363 9.1355337 2.0631775 8.8789062 1.8066406 C 8.3681186 1.2960336 7.6805711 0.94396315 6.9042969 0.8984375 C 6.8072626 0.89274679 6.7099427 0.89312346 6.6113281 0.8984375 z M 6.703125 2.8925781 C 6.731194 2.8919924 6.7589223 2.8928782 6.7871094 2.8945312 C 7.0126058 2.9077553 7.2683813 3.0262632 7.4648438 3.2226562 C 7.6613062 3.4190493 7.7796646 3.6729457 7.7929688 3.8984375 C 7.8062727 4.1239293 7.7594318 4.342027 7.4648438 4.6367188 A 1.0001 1.0001 0 0 0 8.8789062 6.0507812 L 10.646484 4.28125 C 10.941207 3.986527 11.157229 3.9418085 11.382812 3.9550781 C 11.608394 3.9683481 11.864057 4.0847598 12.060547 4.28125 C 12.257037 4.4777402 12.375402 4.7334017 12.388672 4.9589844 C 12.401942 5.184567 12.355272 5.4025426 12.060547 5.6972656 L 5.6972656 12.060547 C 5.4025426 12.35527 5.184567 12.401941 4.9589844 12.388672 C 4.7334017 12.375402 4.4777402 12.257037 4.28125 12.060547 C 4.0847598 11.864057 3.9683477 11.608394 3.9550781 11.382812 C 3.9418085 11.157229 3.986527 10.941207 4.28125 10.646484 L 6.0507812 8.8789062 A 1.0001 1.0001 0 0 0 4.6367188 7.4648438 C 4.342027 7.7594315 4.1239292 7.806273 3.8984375 7.7929688 C 3.6729458 7.7796645 3.4190493 7.6613062 3.2226562 7.4648438 C 3.0262631 7.2683813 2.9077558 7.0126058 2.8945312 6.7871094 C 2.8813066 6.5616129 2.9279644 6.345369 3.2226562 6.0507812 L 6.0507812 3.2226562 C 6.3085455 2.9648009 6.5066419 2.8966783 6.703125 2.8925781 z M 18.957031 11.609375 C 18.985156 11.608793 19.012818 11.609669 19.041016 11.611328 C 19.266598 11.624598 19.52226 11.742963 19.71875 11.939453 C 19.91524 12.135943 20.031652 12.391604 20.044922 12.617188 C 20.058192 12.842769 20.013472 13.058793 19.71875 13.353516 L 17.949219 15.121094 A 1.0001 1.0001 0 0 0 19.363281 16.535156 C 19.657973 16.240569 19.876071 16.193727 20.101562 16.207031 C 20.327054 16.220331 20.580951 16.338694 20.777344 16.535156 C 20.973737 16.731619 21.092244 16.987394 21.105469 17.212891 C 21.118689 17.438387 21.072039 17.654631 20.777344 17.949219 L 17.949219 20.777344 C 17.654631 21.072036 17.438387 21.118693 17.212891 21.105469 C 16.987394 21.092249 16.731619 20.973737 16.535156 20.777344 C 16.338694 20.580951 16.220336 20.327055 16.207031 20.101562 C 16.193731 19.876071 16.240571 19.657973 16.535156 19.363281 A 1.0001 1.0001 0 0 0 15.121094 17.949219 L 13.353516 19.71875 C 13.058793 20.013473 12.84277 20.058191 12.617188 20.044922 C 12.391604 20.031652 12.135943 19.91524 11.939453 19.71875 C 11.742963 19.52226 11.624598 19.266598 11.611328 19.041016 C 11.598058 18.815433 11.644728 18.597457 11.939453 18.302734 L 18.302734 11.939453 C 18.560617 11.681571 18.760157 11.613448 18.957031 11.609375 z "/>
</svg>
