<?xml version="1.0" encoding="UTF-8" standalone="no"?>
<svg xmlns="http://www.w3.org/2000/svg" xmlns:svg="http://www.w3.org/2000/svg" width="24" height="24" viewBox="0 0 24 24" fill="currentColor" tags="barbell,weight,workout,gym" categories="maps,sports">
  <path d="M 6.6113281 0.8984375 C 5.921027 0.93563588 5.2037864 1.2413256 4.6367188 1.8085938 L 3.9296875 2.515625 L 3.2070312 1.7929688 A 1 1 0 0 0 2.5 1.5 A 1 1 0 0 0 1.7929688 1.7929688 A 1 1 0 0 0 1.7929688 3.2070312 L 2.515625 3.9296875 L 1.8085938 4.6367188 C 1.1602873 5.2847962 0.85291194 6.1280243 0.8984375 6.9042969 C 0.94396306 7.6805695 1.2960346 8.3681197 1.8066406 8.8789062 C 2.063177 9.1355333 2.464237 9.17775 2.7988281 9.3359375 C 2.2124802 9.9705072 1.913542 10.760685 1.9570312 11.5 C 2.0026992 12.276353 2.3564287 12.963851 2.8671875 13.474609 C 3.3779463 13.985369 4.0654438 14.339098 4.8417969 14.384766 C 5.61815 14.430436 6.4630529 14.122885 7.1113281 13.474609 L 9.5859375 11 L 13 14.414062 L 10.525391 16.888672 C 9.877115 17.536947 9.5695663 18.38185 9.6152344 19.158203 C 9.6609023 19.934556 10.014631 20.622054 10.525391 21.132812 C 11.036149 21.643572 11.723647 21.997301 12.5 22.042969 C 13.239315 22.086459 14.029492 21.787519 14.664062 21.201172 C 14.822249 21.535763 14.864466 21.936824 15.121094 22.193359 C 15.63188 22.703966 16.319431 23.056038 17.095703 23.101562 C 17.871976 23.147092 18.715204 22.839713 19.363281 22.191406 L 20.070312 21.484375 L 20.792969 22.207031 A 1 1 0 0 0 22.207031 22.207031 A 1 1 0 0 0 22.207031 20.792969 L 21.484375 20.070312 L 22.191406 19.363281 C 22.839713 18.715204 23.147088 17.871976 23.101562 17.095703 C 23.056038 16.319431 22.703966 15.63188 22.193359 15.121094 C 21.936824 14.864466 21.535763 14.822249 21.201172 14.664062 C 21.787519 14.029492 22.086458 13.239315 22.042969 12.5 C 21.997301 11.723647 21.643572 11.036149 21.132812 10.525391 C 20.622054 10.014631 19.934556 9.6609023 19.158203 9.6152344 C 18.38185 9.5695664 17.536947 9.877115 16.888672 10.525391 L 14.414062 13 L 11 9.5859375 L 13.474609 7.1113281 C 14.122885 6.4630529 14.430434 5.61815 14.384766 4.8417969 C 14.339098 4.0654438 13.985369 3.3779463 13.474609 2.8671875 C 12.963851 2.3564287 12.276353 2.0026993 11.5 1.9570312 C 10.760685 1.913542 9.9705072 2.2124802 9.3359375 2.7988281 C 9.17775 2.464237 9.1355333 2.063177 8.8789062 1.8066406 C 8.3681197 1.2960346 7.6805695 0.94396306 6.9042969 0.8984375 C 6.8072628 0.8927468 6.7099426 0.89312345 6.6113281 0.8984375 z M 6.7871094 2.8945312 C 7.0126053 2.9077557 7.2683817 3.0262635 7.4648438 3.2226562 C 7.6613059 3.4190489 7.7796646 3.6729462 7.7929688 3.8984375 C 7.806273 4.1239288 7.7594309 4.3420276 7.4648438 4.6367188 A 1.0001 1.0001 0 0 0 8.8789062 6.0507812 L 10.646484 4.28125 C 10.941207 3.9865276 11.15723 3.9418085 11.382812 3.9550781 C 11.608394 3.9683481 11.864057 4.0847602 12.060547 4.28125 C 12.257037 4.4777398 12.375402 4.7334022 12.388672 4.9589844 C 12.401942 5.1845665 12.355272 5.4025432 12.060547 5.6972656 L 5.6972656 12.060547 C 5.4025432 12.35527 5.1845665 12.401941 4.9589844 12.388672 C 4.7334022 12.375402 4.4777398 12.257037 4.28125 12.060547 C 4.0847602 11.864057 3.9683477 11.608394 3.9550781 11.382812 C 3.9418085 11.15723 3.9865276 10.941207 4.28125 10.646484 L 6.0507812 8.8789062 A 1.0001 1.0001 0 0 0 4.6367188 7.4648438 C 4.3420276 7.7594309 4.1239288 7.806273 3.8984375 7.7929688 C 3.6729462 7.7796646 3.4190489 7.6613059 3.2226562 7.4648438 C 3.0262635 7.2683817 2.9077557 7.0126053 2.8945312 6.7871094 C 2.8813067 6.5616134 2.927965 6.3453684 3.2226562 6.0507812 L 6.0507812 3.2226562 C 6.3453684 2.927965 6.5616134 2.8813067 6.7871094 2.8945312 z M 19.041016 11.611328 C 19.266597 11.624598 19.52226 11.742963 19.71875 11.939453 C 19.91524 12.135943 20.031652 12.391605 20.044922 12.617188 C 20.058192 12.842769 20.013472 13.058793 19.71875 13.353516 L 17.949219 15.121094 A 1.0001 1.0001 0 0 0 19.363281 16.535156 C 19.657973 16.24057 19.876072 16.193727 20.101562 16.207031 C 20.327054 16.220331 20.580951 16.338694 20.777344 16.535156 C 20.973737 16.731619 21.092244 16.987394 21.105469 17.212891 C 21.118689 17.438386 21.072038 17.654631 20.777344 17.949219 L 17.949219 20.777344 C 17.654631 21.072034 17.438386 21.118693 17.212891 21.105469 C 16.987394 21.092249 16.731619 20.973737 16.535156 20.777344 C 16.338694 20.580951 16.220336 20.327054 16.207031 20.101562 C 16.193731 19.876072 16.240572 19.657973 16.535156 19.363281 A 1.0001 1.0001 0 0 0 15.121094 17.949219 L 13.353516 19.71875 C 13.058793 20.013473 12.842769 20.058191 12.617188 20.044922 C 12.391605 20.031652 12.135943 19.91524 11.939453 19.71875 C 11.742963 19.52226 11.624598 19.266597 11.611328 19.041016 C 11.598058 18.815433 11.644728 18.597457 11.939453 18.302734 L 18.302734 11.939453 C 18.597457 11.64473 18.815433 11.598059 19.041016 11.611328 z "/>
</svg>
