<svg xmlns="http://www.w3.org/2000/svg" xmlns:svg="http://www.w3.org/2000/svg" width="24" height="24" viewBox="0 0 24 24" fill="currentColor" tags="barbell,weight,workout,gym" categories="navigation,sports">
  <path d="M 17.095703 0.8984375 C 16.319429 0.94396316 15.631881 1.2960336 15.121094 1.8066406 C 14.864466 2.0631775 14.822249 2.4642363 14.664062 2.7988281 C 14.029491 2.212479 13.239316 1.913542 12.5 1.9570312 C 11.723645 2.0026994 11.03615 2.3564277 10.525391 2.8671875 C 10.014631 3.3779473 9.6609025 4.0654422 9.6152344 4.8417969 C 9.5695663 5.6181515 9.8771137 6.4630516 10.525391 7.1113281 L 13 9.5859375 L 9.5859375 13 L 7.1113281 10.525391 C 6.4630516 9.8771137 5.6181515 9.5695663 4.8417969 9.6152344 C 4.0654422 9.6609025 3.3779473 10.014631 2.8671875 10.525391 C 2.3564277 11.03615 2.0026994 11.723645 1.9570312 12.5 C 1.9135423 13.239316 2.212479 14.029491 2.7988281 14.664062 C 2.4642363 14.822249 2.0631775 14.864466 1.8066406 15.121094 C 1.2960336 15.631881 0.94396316 16.319429 0.8984375 17.095703 C 0.8529118 17.871977 1.160286 18.715203 1.8085938 19.363281 L 2.515625 20.070312 L 1.7929688 20.792969 A 1 1 0 0 0 1.7929688 22.207031 A 1 1 0 0 0 3.2070312 22.207031 L 3.9296875 21.484375 L 4.6367188 22.191406 C 5.2847975 22.839714 6.1280227 23.147088 6.9042969 23.101562 C 7.6805711 23.056033 8.3681187 22.703966 8.8789062 22.193359 C 9.1355338 21.936822 9.1777497 21.535764 9.3359375 21.201172 C 9.9705084 21.787521 10.760684 22.086458 11.5 22.042969 C 12.276355 21.997299 12.96385 21.643573 13.474609 21.132812 C 13.985369 20.622053 14.339098 19.934558 14.384766 19.158203 C 14.430436 18.381848 14.122886 17.536948 13.474609 16.888672 L 11 14.414062 L 14.414062 11 L 16.888672 13.474609 C 17.536948 14.122886 18.381848 14.430434 19.158203 14.384766 C 19.934558 14.339096 20.622053 13.985369 21.132812 13.474609 C 21.643572 12.96385 21.997301 12.276355 22.042969 11.5 C 22.086458 10.760684 21.787521 9.9705084 21.201172 9.3359375 C 21.535764 9.1777497 21.936822 9.1355337 22.193359 8.8789062 C 22.703966 8.3681186 23.056037 7.6805711 23.101562 6.9042969 C 23.147088 6.1280227 22.839714 5.2847975 22.191406 4.6367188 L 21.484375 3.9296875 L 22.207031 3.2070312 A 1 1 0 0 0 22.207031 1.7929688 A 1 1 0 0 0 20.792969 1.7929688 L 20.070312 2.515625 L 19.363281 1.8085938 C 18.715203 1.160286 17.871977 0.85291184 17.095703 0.8984375 z M 17.296875 2.8925781 C 17.493358 2.896678 17.691454 2.9648008 17.949219 3.2226562 L 20.777344 6.0507812 C 21.072036 6.3453688 21.118693 6.5616129 21.105469 6.7871094 C 21.092249 7.0126058 20.973737 7.2683814 20.777344 7.4648438 C 20.580951 7.6613062 20.327055 7.7796645 20.101562 7.7929688 C 19.876071 7.8062727 19.657973 7.7594318 19.363281 7.4648438 A 1.0001 1.0001 0 0 0 17.949219 8.8789062 L 19.71875 10.646484 C 20.013473 10.941207 20.058191 11.157229 20.044922 11.382812 C 20.031652 11.608394 19.91524 11.864057 19.71875 12.060547 C 19.52226 12.257037 19.266598 12.375402 19.041016 12.388672 C 18.815433 12.401942 18.597457 12.355272 18.302734 12.060547 L 11.939453 5.6972656 C 11.64473 5.4025426 11.598059 5.184567 11.611328 4.9589844 C 11.624598 4.7334017 11.742963 4.4777402 11.939453 4.28125 C 12.135943 4.0847598 12.391604 3.9683477 12.617188 3.9550781 C 12.842769 3.9418081 13.058793 3.9865271 13.353516 4.28125 L 15.121094 6.0507812 A 1.0001 1.0001 0 0 0 16.535156 4.6367188 C 16.240569 4.342027 16.193727 4.1239292 16.207031 3.8984375 C 16.220331 3.6729458 16.338694 3.4190493 16.535156 3.2226562 C 16.731619 3.0262632 16.987394 2.9077558 17.212891 2.8945312 C 17.241078 2.8928781 17.268806 2.8919924 17.296875 2.8925781 z M 5.0429688 11.609375 C 5.2398428 11.613448 5.439383 11.681569 5.6972656 11.939453 L 12.060547 18.302734 C 12.35527 18.597457 12.401941 18.815433 12.388672 19.041016 C 12.375402 19.266598 12.257037 19.52226 12.060547 19.71875 C 11.864057 19.91524 11.608394 20.031652 11.382812 20.044922 C 11.157229 20.058192 10.941207 20.013472 10.646484 19.71875 L 8.8789062 17.949219 A 1.0001 1.0001 0 0 0 7.4648438 19.363281 C 7.7594315 19.657973 7.806273 19.876071 7.7929688 20.101562 C 7.7796648 20.327054 7.6613062 20.580951 7.4648438 20.777344 C 7.2683814 20.973737 7.0126058 21.092244 6.7871094 21.105469 C 6.5616129 21.118689 6.345369 21.072039 6.0507812 20.777344 L 3.2226562 17.949219 C 2.9279645 17.654631 2.8813067 17.438387 2.8945312 17.212891 C 2.9077553 16.987394 3.0262632 16.731619 3.2226562 16.535156 C 3.4190493 16.338694 3.6729457 16.220336 3.8984375 16.207031 C 4.1239293 16.193731 4.342027 16.240571 4.6367188 16.535156 A 1.0001 1.0001 0 0 0 6.0507812 15.121094 L 4.28125 13.353516 C 3.986527 13.058793 3.9418085 12.842769 3.9550781 12.617188 C 3.9683477 12.391604 4.0847598 12.135943 4.28125 11.939453 C 4.4777402 11.742963 4.7334017 11.624598 4.9589844 11.611328 C 4.9871822 11.609669 5.0148439 11.608793 5.0429688 11.609375 z "/>
</svg>
