<?xml version="1.0" encoding="UTF-8" standalone="no"?>
<svg xmlns="http://www.w3.org/2000/svg" xmlns:svg="http://www.w3.org/2000/svg" width="24" height="24" viewBox="0 0 24 24" fill="currentColor" tags="hearing,hard of hearing,hearing loss,deafness,noise,silence,audio,accessibility" categories="medical,accessibility">
  <path d="M 2 1 A 1 1 0 0 0 1.2929688 1.2929688 A 1 1 0 0 0 1.2929688 2.7070312 L 5.2324219 6.6464844 C 5.0826317 7.2379643 5 7.8592704 5 8.5 A 1 1 0 0 0 6 9.5 A 1 1 0 0 0 7 8.5 C 7 8.4720449 7.0015262 8.4438696 7.0019531 8.4160156 L 10.466797 11.880859 C 10.325616 11.955996 10.165975 11.99965 9.9980469 12 A 1 1 0 0 0 9 13.001953 A 1 1 0 0 0 10.001953 14 C 10.707752 13.9985 11.374536 13.746452 11.900391 13.314453 L 13.59375 15.007812 C 12.727155 15.885194 12 16.992407 12 18.5 C 12 19.416666 11.692256 19.976893 11.242188 20.376953 C 10.792118 20.777013 10.152778 21 9.5 21 C 8.8472221 21 8.2078806 20.777013 7.7578125 20.376953 C 7.3077444 19.976893 7 19.416666 7 18.5 A 1 1 0 0 0 6 17.5 A 1 1 0 0 0 5 18.5 C 5 19.916666 5.5672556 21.106441 6.4296875 21.873047 C 7.2921194 22.639653 8.4027779 23 9.5 23 C 10.597222 23 11.707881 22.639653 12.570312 21.873047 C 13.432743 21.106441 14 19.916666 14 18.5 C 14 17.602037 14.35753 17.032336 15 16.414062 L 21.292969 22.707031 A 1 1 0 0 0 22.707031 22.707031 A 1 1 0 0 0 22.707031 21.292969 L 12.548828 11.134766 A 1 1 0 0 0 12.478516 11.066406 L 7.1015625 5.6875 A 1 1 0 0 0 7.0117188 5.5996094 L 2.7070312 1.2929688 A 1 1 0 0 0 2 1 z M 12.525391 1.0058594 C 12.400666 1.0041402 12.275531 1.0051151 12.150391 1.0097656 C 10.815556 1.0593712 9.4627259 1.4749769 8.2304688 2.328125 A 1 1 0 0 0 7.9785156 3.71875 A 1 1 0 0 0 9.3691406 3.9726562 C 13.066466 1.4128285 18.004045 4.0030106 18 8.5 C 18 9.9500409 17.634827 10.890234 17.083984 11.695312 A 1 1 0 0 0 17.345703 13.085938 A 1 1 0 0 0 18.734375 12.824219 C 19.483532 11.729297 20 10.309959 20 8.5 C 20.003918 4.1441937 16.391849 1.0591529 12.525391 1.0058594 z M 12.5 5 A 1 1 0 0 0 11.5 6 A 1 1 0 0 0 12.5 7 C 13.340272 7 14 7.6597282 14 8.5 A 1 1 0 0 0 15 9.5 A 1 1 0 0 0 16 8.5 C 16 6.578848 14.421152 5 12.5 5 z "/>
</svg>
