<svg xmlns="http://www.w3.org/2000/svg" xmlns:svg="http://www.w3.org/2000/svg" width="24" height="24" viewBox="0 0 24 24" fill="currentColor" tags="hearing,hard of hearing,hearing loss,deafness,noise,silence,audio,accessibility" categories="medical,accessibility">
  <path d="M 2 1 A 1 1 0 0 0 1.2929688 1.2929688 A 1 1 0 0 0 1.2929688 2.7070312 L 5.2324219 6.6464844 C 5.0826277 7.2379717 5 7.8592614 5 8.5 A 1 1 0 0 0 6 9.5 A 1 1 0 0 0 7 8.5 C 7 8.4715237 6.999557 8.4424338 7 8.4140625 L 10.46875 11.882812 C 10.327301 11.958321 10.166412 11.999649 9.9980469 12 A 1 1 0 0 0 9 13.001953 A 1 1 0 0 0 10.001953 14 C 10.707739 13.9985 11.376494 13.748391 11.902344 13.316406 L 13.591797 15.005859 C 12.7254 15.88317 12 16.992668 12 18.5 C 12 19.416666 11.692256 19.976893 11.242188 20.376953 C 10.792118 20.777013 10.152778 21 9.5 21 C 8.8472221 21 8.2078806 20.777013 7.7578125 20.376953 C 7.3077444 19.976893 7 19.416666 7 18.5 A 1 1 0 0 0 6 17.5 A 1 1 0 0 0 5 18.5 C 5 19.916666 5.5672556 21.106441 6.4296875 21.873047 C 7.2921194 22.639653 8.4027779 23 9.5 23 C 10.597222 23 11.707881 22.639653 12.570312 21.873047 C 13.432743 21.106441 14 19.916666 14 18.5 C 14 17.601389 14.354698 17.030898 14.998047 16.412109 L 21.292969 22.707031 A 1 1 0 0 0 22.707031 22.707031 A 1 1 0 0 0 22.707031 21.292969 L 15.779297 14.365234 A 1 1 0 0 0 15.714844 14.300781 L 12.542969 11.128906 A 1 1 0 0 0 12.511719 11.097656 L 7.0976562 5.6835938 A 1 1 0 0 0 7.0371094 5.6230469 L 2.7070312 1.2929688 A 1 1 0 0 0 2 1 z M 12.150391 1.0097656 C 10.815556 1.0593712 9.4627259 1.4749769 8.2304688 2.328125 A 1 1 0 0 0 7.9785156 3.71875 A 1 1 0 0 0 9.3691406 3.9726562 C 13.066466 1.4128285 18.004045 4.0030106 18 8.5 C 18 9.9500409 17.634827 10.890234 17.083984 11.695312 A 1 1 0 0 0 17.345703 13.085938 A 1 1 0 0 0 18.734375 12.824219 C 19.483532 11.729297 20 10.309959 20 8.5 C 20.004044 4.0036838 16.154895 0.86094889 12.150391 1.0097656 z M 12.5 5 A 1 1 0 0 0 11.5 6 A 1 1 0 0 0 12.5 7 C 13.340272 7 14 7.6597282 14 8.5 A 1 1 0 0 0 15 9.5 A 1 1 0 0 0 16 8.5 C 16 6.578848 14.421152 5 12.5 5 z "/>
</svg>
