<?xml version="1.0" encoding="UTF-8" standalone="no"?>
<svg xmlns="http://www.w3.org/2000/svg" xmlns:svg="http://www.w3.org/2000/svg" width="24" height="24" viewBox="0 0 24 24" fill="currentColor" tags="hearing,hard of hearing,hearing loss,deafness,noise,silence,audio,accessibility" categories="medical,accessibility">
  <path d="M 2 1 A 1 1 0 0 0 1.2929688 1.2929688 A 1 1 0 0 0 1.2929688 2.7070312 L 5.2324219 6.6464844 C 5.0826319 7.2379638 5 7.8592717 5 8.5 A 1 1 0 0 0 6 9.5 A 1 1 0 0 0 7 8.5 C 7 8.472045 7.0015262 8.4438695 7.0019531 8.4160156 L 10.466797 11.880859 C 10.325616 11.955996 10.165975 11.99965 9.9980469 12 A 1 1 0 0 0 9 13.001953 A 1 1 0 0 0 10.001953 14 C 10.70775 13.9985 11.374537 13.746452 11.900391 13.314453 L 13.59375 15.007812 C 12.727156 15.885194 12 16.99241 12 18.5 C 12 19.416664 11.692254 19.976894 11.242188 20.376953 C 10.79212 20.777013 10.152776 21 9.5 21 C 8.8472235 21 8.2078796 20.777013 7.7578125 20.376953 C 7.3077454 19.976894 7 19.416664 7 18.5 A 1 1 0 0 0 6 17.5 A 1 1 0 0 0 5 18.5 C 5 19.916664 5.5672574 21.106443 6.4296875 21.873047 C 7.2921176 22.639651 8.4027801 23 9.5 23 C 10.59722 23 11.707881 22.639651 12.570312 21.873047 C 13.432743 21.106443 14 19.916664 14 18.5 C 14 17.602038 14.357531 17.032335 15 16.414062 L 21.292969 22.707031 A 1 1 0 0 0 22.707031 22.707031 A 1 1 0 0 0 22.707031 21.292969 L 12.548828 11.134766 A 1 1 0 0 0 12.478516 11.066406 L 7.1015625 5.6875 A 1 1 0 0 0 7.0117188 5.5996094 L 2.7070312 1.2929688 A 1 1 0 0 0 2 1 z M 12.525391 1.0058594 C 12.400666 1.0041402 12.275531 1.0051151 12.150391 1.0097656 C 10.815558 1.0593712 9.4627234 1.4749786 8.2304688 2.328125 A 1 1 0 0 0 7.9785156 3.71875 A 1 1 0 0 0 9.3691406 3.9726562 C 13.066458 1.4128337 18.004045 4.0030196 18 8.5 C 18 9.9500379 17.634827 10.890235 17.083984 11.695312 A 1 1 0 0 0 17.345703 13.085938 A 1 1 0 0 0 18.734375 12.824219 C 19.48353 11.729299 20 10.309955 20 8.5 C 20.003918 4.1442024 16.391842 1.0591533 12.525391 1.0058594 z M 12.5 5 A 1 1 0 0 0 11.5 6 A 1 1 0 0 0 12.5 7 C 13.34027 7 14 7.6597299 14 8.5 A 1 1 0 0 0 15 9.5 A 1 1 0 0 0 16 8.5 C 16 6.5788518 14.421148 5 12.5 5 z "/>
</svg>
