<?xml version="1.0" encoding="UTF-8" standalone="no"?>
<svg xmlns="http://www.w3.org/2000/svg" xmlns:svg="http://www.w3.org/2000/svg" width="24" height="24" viewBox="0 0 24 24" fill="currentColor" tags="hearing,noise,audio,accessibility" categories="medical,accessibility">
  <path d="M 12.5 1 C 8.3697101 1 5 4.3697069 5 8.5 A 1 1 0 0 0 6 9.5 A 1 1 0 0 0 7 8.5 C 7 5.4505865 9.4505884 3 12.5 3 C 15.549412 3 18 5.4505865 18 8.5 C 18 11.166667 16.809 12.274401 15.359375 13.482422 C 14.634563 14.086432 13.842319 14.66801 13.177734 15.443359 C 12.513149 16.218708 12 17.25 12 18.5 C 12 19.416666 11.692256 19.976893 11.242188 20.376953 C 10.792118 20.777013 10.152778 21 9.5 21 C 8.8472221 21 8.2078806 20.777013 7.7578125 20.376953 C 7.3077444 19.976893 7 19.416666 7 18.5 A 1 1 0 0 0 6 17.5 A 1 1 0 0 0 5 18.5 C 5 19.916666 5.5672556 21.106441 6.4296875 21.873047 C 7.2921194 22.639653 8.4027779 23 9.5 23 C 10.597222 23 11.707881 22.639653 12.570312 21.873047 C 13.432743 21.106441 14 19.916666 14 18.5 C 14 17.75 14.236851 17.281292 14.697266 16.744141 C 15.157681 16.20699 15.865437 15.663568 16.640625 15.017578 C 18.191 13.725599 20 11.833333 20 8.5 C 20 4.3697069 16.63029 1 12.5 1 z M 12.5 5 C 11.652778 5 10.792119 5.2770139 10.117188 5.8769531 C 9.4422551 6.4768923 9 7.4166669 9 8.5 L 9 9.5 A 1.0001 1.0001 0 0 0 10 10.5 C 10.416666 10.5 10.601893 10.620244 10.751953 10.789062 C 10.902014 10.95788 11 11.222222 11 11.5 C 11 11.777778 10.90201 12.042119 10.751953 12.210938 C 10.601893 12.379755 10.416666 12.5 10 12.5 A 1 1 0 0 0 9 13.5 A 1 1 0 0 0 10 14.5 C 10.916666 14.5 11.731441 14.120244 12.248047 13.539062 C 12.764653 12.95788 13 12.222222 13 11.5 C 13 10.777778 12.764653 10.042119 12.248047 9.4609375 C 11.934262 9.1079298 11.489623 8.8694128 11 8.7050781 L 11 8.5 C 11 7.9166671 11.182744 7.6064406 11.445312 7.3730469 C 11.70788 7.1396531 12.097222 7 12.5 7 C 12.902778 7 13.292119 7.1396531 13.554688 7.3730469 C 13.817255 7.6064406 14 7.9166671 14 8.5 A 1 1 0 0 0 15 9.5 A 1 1 0 0 0 16 8.5 C 16 7.4166669 15.557744 6.4768923 14.882812 5.8769531 C 14.20788 5.2770139 13.347222 5 12.5 5 z "/>
</svg>
