<?xml version="1.0" encoding="UTF-8" standalone="no"?>
<svg xmlns="http://www.w3.org/2000/svg" xmlns:svg="http://www.w3.org/2000/svg" width="24" height="24" viewBox="0 0 24 24" fill="currentColor" tags="hearing,noise,audio,accessibility" categories="medical,accessibility">
  <path d="M 12.5 1 C 8.3697183 1 5 4.3697152 5 8.5 A 1 1 0 0 0 6 9.5 A 1 1 0 0 0 7 8.5 C 7 5.4505925 9.4505944 3 12.5 3 C 15.549406 3 18 5.4505925 18 8.5 C 18 11.166661 16.808997 12.274403 15.359375 13.482422 C 14.634564 14.086431 13.842319 14.668012 13.177734 15.443359 C 12.513151 16.218708 12 17.250002 12 18.5 C 12 19.416664 11.692254 19.976894 11.242188 20.376953 C 10.79212 20.777013 10.152776 21 9.5 21 C 8.8472235 21 8.2078796 20.777013 7.7578125 20.376953 C 7.3077454 19.976894 7 19.416664 7 18.5 A 1 1 0 0 0 6 17.5 A 1 1 0 0 0 5 18.5 C 5 19.916664 5.5672574 21.106443 6.4296875 21.873047 C 7.2921176 22.639651 8.4027801 23 9.5 23 C 10.59722 23 11.707881 22.639651 12.570312 21.873047 C 13.432743 21.106443 14 19.916664 14 18.5 C 14 17.750002 14.236851 17.28129 14.697266 16.744141 C 15.157679 16.20699 15.865439 15.663566 16.640625 15.017578 C 18.190997 13.725601 20 11.833327 20 8.5 C 20 4.3697152 16.630282 1 12.5 1 z M 12.5 5 C 11.65278 5 10.792118 5.2770151 10.117188 5.8769531 C 9.4422565 6.4768911 9 7.4166691 9 8.5 L 9 9.5 A 1.0001 1.0001 0 0 0 10 10.5 C 10.416666 10.5 10.601893 10.620245 10.751953 10.789062 C 10.902013 10.957879 11 11.222222 11 11.5 C 11 11.777778 10.90201 12.04212 10.751953 12.210938 C 10.601893 12.379754 10.416666 12.5 10 12.5 A 1 1 0 0 0 9 13.5 A 1 1 0 0 0 10 14.5 C 10.916665 14.5 11.731441 14.120243 12.248047 13.539062 C 12.764651 12.957881 13 12.22222 13 11.5 C 13 10.77778 12.764651 10.042118 12.248047 9.4609375 C 11.934263 9.1079305 11.489623 8.8694126 11 8.7050781 L 11 8.5 C 11 7.9166683 11.182745 7.6064401 11.445312 7.3730469 C 11.707879 7.1396536 12.097223 7 12.5 7 C 12.902777 7 13.29212 7.1396536 13.554688 7.3730469 C 13.817254 7.6064401 14 7.9166683 14 8.5 A 1 1 0 0 0 15 9.5 A 1 1 0 0 0 16 8.5 C 16 7.4166691 15.557743 6.4768911 14.882812 5.8769531 C 14.207881 5.2770151 13.34722 5 12.5 5 z "/>
</svg>
