<?xml version="1.0" encoding="UTF-8" standalone="no"?>
<svg xmlns="http://www.w3.org/2000/svg" xmlns:svg="http://www.w3.org/2000/svg" width="24" height="24" viewBox="0 0 24 24" fill="currentColor" tags="vpn,private,privacy,network,world,browser,security,encryption,protection,connection" categories="security,development,devices">
  <path d="M 12 1 C 6.0629162 1.000361 1.7749887 5.5301535 1.1035156 10.685547 A 1 1 0 0 0 1.0507812 11 A 1 1 0 0 0 1.0605469 11.066406 C 0.82277473 13.569833 1.4365616 16.19636 3.1328125 18.507812 C 5.0712577 21.1493 7.8253621 22.566335 10.669922 22.888672 A 1 1 0 0 0 11 22.949219 A 1 1 0 0 0 11.117188 22.931641 C 12.423131 23.026611 13.739768 22.891019 14.998047 22.539062 A 1 1 0 0 0 15 22.539062 A 1 1 0 0 0 15.546875 22.369141 C 18.671061 21.321724 21.359716 18.908021 22.494141 15.300781 A 1 1 0 0 0 22.5 15.273438 A 1 1 0 0 0 22.509766 15.228516 A 1 1 0 0 0 22.535156 15.023438 A 1 1 0 0 0 22.539062 15 A 1 1 0 0 0 22.539062 14.976562 A 1 1 0 0 0 22.537109 14.939453 A 1 1 0 0 0 22.517578 14.794922 A 1 1 0 0 0 22.509766 14.763672 A 1 1 0 0 0 22.382812 14.462891 A 1 1 0 0 0 22.371094 14.445312 A 1 1 0 0 0 22.289062 14.339844 A 1 1 0 0 0 22.261719 14.310547 A 1 1 0 0 0 22.148438 14.207031 A 1 1 0 0 0 22.138672 14.201172 A 1 1 0 0 0 22.001953 14.113281 A 1 1 0 0 0 21.998047 14.111328 A 1 1 0 0 0 21.539062 14 L 17 14 C 15.354994 14 14 15.354994 14 17 L 14 20.814453 C 13.344785 20.962717 12.67288 21.036371 12 21.037109 L 12 18 C 12 16.354994 10.645006 15 9 15 C 8.4358718 15 8 14.564128 8 14 L 8 13 C 8 11.354994 6.6450064 10 5 10 L 3.1855469 10 C 3.6035299 8.1664801 4.589696 6.4871567 6.0078125 5.2324219 C 6.1295348 7.3229891 7.880704 9 10 9 A 1 1 0 0 0 11 8 A 1 1 0 0 0 10 7 C 8.8835881 7 8 6.1164119 8 5 L 8 3.9042969 C 9.1796919 3.3318236 10.52503 3.0000897 12 3 A 1 1 0 0 0 13 2 A 1 1 0 0 0 12 1 z M 18 1 C 17.27778 1 16.542118 1.2353482 15.960938 1.7519531 C 15.379756 2.268558 15 3.0833353 15 4 L 15 5 C 13.909299 5 13 5.9092994 13 7 L 13 10 C 13 11.090701 13.909299 12 15 12 L 21 12 C 22.090701 12 23 11.090701 23 10 L 23 7 C 23 5.9092994 22.090701 5 21 5 L 21 4 C 21 3.0833353 20.620244 2.268558 20.039062 1.7519531 C 19.457882 1.2353482 18.72222 1 18 1 z M 18 3 C 18.277778 3 18.542121 3.0979867 18.710938 3.2480469 C 18.879755 3.398107 19 3.5833345 19 4 L 19 5 L 17 5 L 17 4 C 17 3.5833345 17.120246 3.398107 17.289062 3.2480469 C 17.45788 3.0979867 17.722222 3 18 3 z M 15 7 L 16 7 L 20 7 L 21 7 L 21 10 L 15 10 L 15 7 z M 2.9589844 12 L 5 12 C 5.5641282 12 6 12.435872 6 13 L 6 14 C 6 15.645006 7.3549936 17 9 17 C 9.5641282 17 10 17.435872 10 18 L 10 20.814453 C 8.0150226 20.363084 6.1377252 19.223233 4.7441406 17.324219 C 3.5185737 15.654159 2.9632611 13.802111 2.9589844 12 z M 17 16 L 20.068359 16 C 19.155723 17.885115 17.697385 19.267315 16 20.103516 L 16 17 C 16 16.435872 16.435872 16 17 16 z "/>
</svg>
