<svg xmlns="http://www.w3.org/2000/svg" xmlns:svg="http://www.w3.org/2000/svg" width="24" height="24" viewBox="0 0 24 24" fill="currentColor" tags="vpn,private,privacy,network,world,browser,security,encryption,protection,connection" categories="security,development,devices">
  <path d="M 12 1 C 9.9863899 1.0001224 8.1694341 1.5302145 6.6113281 2.4199219 A 1 1 0 0 0 6.390625 2.546875 C 3.4729381 4.3063561 1.5272311 7.3681358 1.0976562 10.697266 A 1 1 0 0 0 1.0507812 11 A 1 1 0 0 0 1.0546875 11.085938 C 0.8221084 13.58334 1.4410858 16.202525 3.1328125 18.507812 C 5.0715966 21.149761 7.8267901 22.572518 10.671875 22.894531 A 1 1 0 0 0 11 22.949219 A 1 1 0 0 0 11.152344 22.9375 C 12.453309 23.028125 13.764831 22.891683 15.017578 22.539062 A 1 1 0 0 0 15.548828 22.375 C 18.647823 21.336035 21.312842 18.941951 22.462891 15.382812 A 1 1 0 0 0 22.464844 15.378906 C 22.473539 15.351946 22.48562 15.327876 22.494141 15.300781 A 1 1 0 0 0 22.5 15.275391 A 1 1 0 0 0 22.511719 15.226562 A 1 1 0 0 0 22.529297 15.146484 A 1 1 0 0 0 22.533203 15.099609 A 1 1 0 0 0 22.539062 15 A 1 1 0 0 0 22.539062 14.986328 A 1 1 0 0 0 22.53125 14.880859 A 1 1 0 0 0 22.523438 14.826172 A 1 1 0 0 0 22.511719 14.767578 A 1 1 0 0 0 22.494141 14.707031 A 1 1 0 0 0 22.462891 14.617188 A 1 1 0 0 0 22.447266 14.585938 A 1 1 0 0 0 22.404297 14.5 A 1 1 0 0 0 22.392578 14.480469 A 1 1 0 0 0 22.332031 14.390625 A 1 1 0 0 0 22.318359 14.376953 A 1 1 0 0 0 22.255859 14.304688 A 1 1 0 0 0 22.212891 14.263672 A 1 1 0 0 0 22.167969 14.224609 A 1 1 0 0 0 22.113281 14.183594 A 1 1 0 0 0 22.039062 14.134766 A 1 1 0 0 0 22.007812 14.119141 A 1 1 0 0 0 21.943359 14.087891 A 1 1 0 0 0 21.839844 14.046875 A 1 1 0 0 0 21.833984 14.044922 A 1 1 0 0 0 21.712891 14.015625 A 1 1 0 0 0 21.705078 14.015625 A 1 1 0 0 0 21.582031 14.001953 A 1 1 0 0 0 21.574219 14.001953 A 1 1 0 0 0 21.539062 14 L 17 14 C 15.35499 14 14 15.35499 14 17 L 14 20.816406 C 13.344503 20.964751 12.673175 21.040325 12 21.041016 L 12 18 C 12 16.35499 10.64501 15 9 15 C 8.4358706 15 8 14.564129 8 14 L 8 13 C 8 11.35499 6.6450096 10 5 10 L 3.1816406 10 C 3.5996135 8.1653148 4.5865767 6.4836851 6.0058594 5.2285156 C 6.1254476 7.321068 7.8792605 9 10 9 A 1 1 0 0 0 11 8 A 1 1 0 0 0 10 7 C 8.8835859 7 8 6.1164141 8 5 L 8 3.8984375 C 9.1789579 3.3268909 10.526315 3.0000896 12 3 A 1 1 0 0 0 13 2 A 1 1 0 0 0 12 1 z M 18 1 C 17.277778 1 16.542119 1.2353472 15.960938 1.7519531 C 15.379755 2.268559 15 3.0833335 15 4 L 15 5 C 13.909297 5 13 5.9092972 13 7 L 13 10 C 13 11.090703 13.909297 12 15 12 L 21 12 C 22.090703 12 23 11.090703 23 10 L 23 7 C 23 5.9092972 22.090703 5 21 5 L 21 4 C 21 3.0833335 20.620244 2.268559 20.039062 1.7519531 C 19.457881 1.2353472 18.722222 1 18 1 z M 18 3 C 18.277778 3 18.542119 3.0979864 18.710938 3.2480469 C 18.879756 3.3981073 19 3.5833337 19 4 L 19 5 L 17 5 L 17 4 C 17 3.5833337 17.120244 3.3981073 17.289062 3.2480469 C 17.457881 3.0979864 17.722222 3 18 3 z M 15 7 L 16 7 L 20 7 L 21 7 L 21 10 L 15 10 L 15 7 z M 2.9570312 12 L 5 12 C 5.5641294 12 6 12.435871 6 13 L 6 14 C 6 15.64501 7.3549904 17 9 17 C 9.5641294 17 10 17.435871 10 18 L 10 20.818359 C 8.014871 20.367053 6.1378228 19.223366 4.7441406 17.324219 C 3.5184385 15.653975 2.9611895 13.802298 2.9570312 12 z M 17 16 L 20.070312 16 C 19.157329 17.886728 17.698796 19.273058 16 20.109375 L 16 17 C 16 16.435871 16.435871 16 17 16 z "/>
</svg>
