<?xml version="1.0" encoding="UTF-8" standalone="no"?>
<svg xmlns="http://www.w3.org/2000/svg" xmlns:svg="http://www.w3.org/2000/svg" width="24" height="24" viewBox="0 0 24 24" fill="currentColor" tags="world,browser,language,translate,globe" categories="navigation">
  <path d="M 12 1 C 10.026816 1 8.1735587 1.5231659 6.5703125 2.4375 A 1 1 0 0 0 6.4296875 2.5175781 C 3.5277377 4.2294265 1.4869348 7.2394174 1.0839844 10.738281 A 1 1 0 0 0 1.0839844 10.740234 A 1 1 0 0 0 1.0507812 11 A 1 1 0 0 0 1.0585938 11.128906 A 1 1 0 0 0 1.0585938 11.130859 C 1.0356966 11.419862 1 11.705234 1 12 C 1 17.681577 5.3346303 22.373111 10.869141 22.941406 C 10.912265 22.945834 10.956732 22.945293 11 22.949219 C 11.329806 22.979143 11.662559 23 12 23 C 13.134064 23 14.229454 22.826333 15.259766 22.505859 A 1 1 0 0 0 15.267578 22.503906 C 15.309512 22.490829 15.348906 22.472549 15.390625 22.458984 C 18.731321 21.372739 21.372739 18.731321 22.458984 15.390625 C 22.459883 15.387861 22.461994 15.385578 22.462891 15.382812 A 1 1 0 0 0 22.503906 15.267578 C 22.5047 15.265033 22.505068 15.262311 22.505859 15.259766 C 22.826333 14.229454 23 13.134064 23 12 C 23 10.474771 22.68717 9.0212237 22.123047 7.6992188 A 1 1 0 0 0 22.037109 7.5019531 C 20.313964 3.6729668 16.462324 1 12 1 z M 12 3 C 15.130105 3 17.878633 4.5856425 19.490234 7 L 18 7 C 16.354545 7 15 8.3545455 15 10 C 15 10.564129 14.564129 11 14 11 C 13.445455 11 13 10.554545 13 10 C 13 8.3549904 11.64501 7 10 7 C 8.8835859 7 8 6.1164141 8 5 L 8 3.9316406 C 9.2039944 3.3355575 10.561802 3 12 3 z M 6.0097656 5.2753906 C 6.1525744 7.3461508 7.8950753 9 10 9 C 10.564129 9 11 9.4358706 11 10 C 11 11.645455 12.354545 13 14 13 C 15.64501 13 17 11.64501 17 10 C 17 9.4454545 17.445455 9 18 9 L 20.490234 9 C 20.820116 9.9377394 21 10.947336 21 12 C 21 12.687725 20.924359 13.357068 20.779297 14 L 17 14 C 15.35499 14 14 15.35499 14 17 L 14 20.779297 C 13.357068 20.924359 12.687725 21 12 21 L 12 18 C 12 16.35499 10.64501 15 9 15 C 8.4358706 15 8 14.564129 8 14 L 8 13 C 8 11.35499 6.6450096 10 5 10 L 3.2207031 10 C 3.6406623 8.1386866 4.6360936 6.499203 6.0097656 5.2753906 z M 3 12 L 5 12 C 5.5641294 12 6 12.435871 6 13 L 6 14 C 6 15.64501 7.3549904 17 9 17 C 9.5641294 17 10 17.435871 10 18 L 10 20.779297 C 5.9850359 19.87342 3 16.294682 3 12 z M 17 16 L 20.068359 16 C 19.195491 17.763058 17.763058 19.195491 16 20.068359 L 16 17 C 16 16.435871 16.435871 16 17 16 z "/>
</svg>
