<?xml version="1.0" encoding="UTF-8" standalone="no"?>
<svg xmlns="http://www.w3.org/2000/svg" xmlns:svg="http://www.w3.org/2000/svg" width="24" height="24" viewBox="0 0 24 24" fill="currentColor" tags="world,browser,language,translate,globe" categories="navigation">
  <path d="M 12 1 C 5.9367124 1 1 5.9367124 1 12 C 1 18.063288 5.9367124 23 12 23 C 13.134054 23 14.229462 22.826327 15.259766 22.505859 A 1 1 0 0 0 15.267578 22.503906 C 18.709373 21.430583 21.430583 18.709373 22.503906 15.267578 C 22.504703 15.265024 22.505065 15.262321 22.505859 15.259766 C 22.826327 14.229462 23 13.134054 23 12 C 23 10.468981 22.68537 9.0096111 22.117188 7.6835938 A 1 1 0 0 0 22.03125 7.4921875 C 20.305558 3.6693826 16.457831 1 12 1 z M 12 3 C 15.12979 3 17.878566 4.5860522 19.490234 7 L 18 7 C 16.354545 7 15 8.3545455 15 10 C 15 10.564129 14.564129 11 14 11 C 13.445455 11 13 10.554545 13 10 C 13 8.3549904 11.64501 7 10 7 C 8.8835859 7 8 6.1164141 8 5 L 8 3.9335938 C 9.2044842 3.336899 10.561016 3 12 3 z M 6.0117188 5.2753906 C 6.1549716 7.3457289 7.8953811 9 10 9 C 10.564129 9 11 9.4358706 11 10 C 11 11.645455 12.354545 13 14 13 C 15.64501 13 17 11.64501 17 10 C 17 9.4454545 17.445455 9 18 9 L 20.488281 9 C 20.818262 9.9378651 21 10.94717 21 12 C 21 12.688167 20.920634 13.356688 20.775391 14 L 17 14 C 15.35499 14 14 15.35499 14 17 L 14 20.775391 C 13.356688 20.920634 12.688167 21 12 21 L 12 18 C 12 16.35499 10.64501 15 9 15 C 8.4358706 15 8 14.564129 8 14 L 8 13 C 8 11.35499 6.6450096 10 5 10 L 3.2246094 10 C 3.6448657 8.1385978 4.6376639 6.4990576 6.0117188 5.2753906 z M 3 12 L 5 12 C 5.5641294 12 6 12.435871 6 13 L 6 14 C 6 15.64501 7.3549904 17 9 17 C 9.5641294 17 10 17.435871 10 18 L 10 20.775391 C 5.985661 19.869057 3 16.29424 3 12 z M 17 16 L 20.066406 16 C 19.193771 17.761496 17.761496 19.193771 16 20.066406 L 16 17 C 16 16.435871 16.435871 16 17 16 z "/>
</svg>
