<?xml version="1.0" encoding="UTF-8" standalone="no"?>
<svg xmlns="http://www.w3.org/2000/svg" xmlns:svg="http://www.w3.org/2000/svg" width="24" height="24" viewBox="0 0 24 24" fill="currentColor" tags="vpn,private,privacy,network,world,browser,security,encryption,protection,connection" categories="security,development,devices">
  <path d="M 12 1 C 6.0629043 1.000361 1.7749874 5.5301484 1.1035156 10.685547 A 1 1 0 0 0 1.0507812 11 A 1 1 0 0 0 1.0605469 11.066406 C 0.82277548 13.569835 1.4365582 16.196355 3.1328125 18.507812 C 5.0712616 21.149305 7.8253598 22.566334 10.669922 22.888672 A 1 1 0 0 0 11 22.949219 A 1 1 0 0 0 11.117188 22.931641 C 12.423133 23.026612 13.739767 22.891019 14.998047 22.539062 A 1 1 0 0 0 15 22.539062 A 1 1 0 0 0 15.546875 22.369141 C 18.671063 21.321723 21.359714 18.908029 22.494141 15.300781 A 1 1 0 0 0 22.5 15.271484 A 1 1 0 0 0 22.507812 15.238281 A 1 1 0 0 0 22.537109 14.953125 A 1 1 0 0 0 22.527344 14.853516 A 1 1 0 0 0 22.521484 14.820312 A 1 1 0 0 0 22.492188 14.695312 A 1 1 0 0 0 22.480469 14.664062 A 1 1 0 0 0 22.34375 14.40625 A 1 1 0 0 0 22.335938 14.396484 A 1 1 0 0 0 22.240234 14.287109 A 1 1 0 0 0 22.234375 14.28125 A 1 1 0 0 0 22.119141 14.185547 A 1 1 0 0 0 22.111328 14.181641 A 1 1 0 0 0 21.986328 14.105469 A 1 1 0 0 0 21.974609 14.101562 A 1 1 0 0 0 21.539062 14 L 17 14 C 15.35499 14 14 15.35499 14 17 L 14 20.814453 C 13.344785 20.962717 12.672881 21.036371 12 21.037109 L 12 18 C 12 16.35499 10.64501 15 9 15 C 8.4358706 15 8 14.564129 8 14 L 8 13 C 8 11.35499 6.6450096 10 5 10 L 3.1855469 10 C 3.6035298 8.1664784 4.5896941 6.4871574 6.0078125 5.2324219 C 6.1295347 7.322993 7.8806997 9 10 9 A 1 1 0 0 0 11 8 A 1 1 0 0 0 10 7 C 8.8835859 7 8 6.1164141 8 5 L 8 3.9042969 C 9.1796938 3.3318233 10.525027 3.0000897 12 3 A 1 1 0 0 0 13 2 A 1 1 0 0 0 12 1 z M 18 1 C 17.277778 1 16.542119 1.2353472 15.960938 1.7519531 C 15.379755 2.268559 15 3.0833335 15 4 L 15 5 C 13.909297 5 13 5.9092972 13 7 L 13 10 C 13 11.090703 13.909297 12 15 12 L 21 12 C 22.090703 12 23 11.090703 23 10 L 23 7 C 23 5.9092972 22.090703 5 21 5 L 21 4 C 21 3.0833335 20.620244 2.268559 20.039062 1.7519531 C 19.457881 1.2353472 18.722222 1 18 1 z M 18 3 C 18.277778 3 18.542119 3.0979864 18.710938 3.2480469 C 18.879756 3.3981073 19 3.5833337 19 4 L 19 5 L 17 5 L 17 4 C 17 3.5833337 17.120244 3.3981073 17.289062 3.2480469 C 17.457881 3.0979864 17.722222 3 18 3 z M 15 7 L 16 7 L 20 7 L 21 7 L 21 10 L 15 10 L 15 7 z M 2.9589844 12 L 5 12 C 5.5641294 12 6 12.435871 6 13 L 6 14 C 6 15.64501 7.3549904 17 9 17 C 9.5641294 17 10 17.435871 10 18 L 10 20.816406 C 8.0150006 20.365045 6.1377407 19.223254 4.7441406 17.324219 C 3.5185712 15.654156 2.9632619 13.802113 2.9589844 12 z M 17 16 L 20.068359 16 C 19.155722 17.885119 17.697387 19.267313 16 20.103516 L 16 17 C 16 16.435871 16.435871 16 17 16 z "/>
</svg>
