<?xml version="1.0" encoding="UTF-8" standalone="no"?>
<svg xmlns="http://www.w3.org/2000/svg" xmlns:svg="http://www.w3.org/2000/svg" width="24" height="24" viewBox="0 0 24 24" fill="currentColor" tags="lunar,solar,crescent moon,sun,earth,day,night,planet,space,mode,dark,light,toggle,switch,color,css,styles,display,accessibility,contrast,brightness,blend,shade" categories="science,design,development,accessibility,photography">
  
  <path d="M 12 1 C 5.9367246 1 1 5.9367246 1 12 C 1 18.063276 5.9367246 23 12 23 C 18.063276 23 23 18.063276 23 12 C 23 5.9367246 18.063276 1 12 1 z M 12.423828 3.0097656 C 17.068137 3.223315 20.776685 6.9318631 20.990234 11.576172 C 18.599281 13.667929 14.987742 13.573679 12.707031 11.292969 C 10.426321 9.0122579 10.332071 5.4007185 12.423828 3.0097656 z M 9.8476562 3.2597656 C 8.2610594 6.3025074 8.7431583 10.157221 11.292969 12.707031 C 13.842779 15.256842 17.697493 15.73894 20.740234 14.152344 C 19.779068 18.090031 16.240031 21 12 21 C 7.0176026 21 3 16.982397 3 12 C 3 7.7599685 5.9099689 4.2209316 9.8476562 3.2597656 z "/>
</svg>
