<?xml version="1.0" encoding="UTF-8" standalone="no"?>
<svg xmlns="http://www.w3.org/2000/svg" xmlns:svg="http://www.w3.org/2000/svg" width="24" height="24" viewBox="0 0 24 24" fill="currentColor" tags="lunar,solar,crescent moon,sun,earth,day,night,planet,space,mode,dark,light,toggle,switch,color,css,styles,display,accessibility,contrast,brightness,blend,shade" categories="science,design,development,accessibility,photography">
  <path d="M 12 1 C 5.9367124 1 1 5.9367124 1 12 C 1 18.063288 5.9367124 23 12 23 C 18.063288 23 23 18.063288 23 12 C 23 5.9367124 18.063288 1 12 1 z M 12.423828 3.0097656 C 17.068145 3.223315 20.776685 6.9318543 20.990234 11.576172 C 18.599277 13.667933 14.987747 13.573683 12.707031 11.292969 C 10.426317 9.0122533 10.332067 5.4007226 12.423828 3.0097656 z M 9.8476562 3.2597656 C 8.2610562 6.3025106 8.7431532 10.157216 11.292969 12.707031 C 13.842784 15.256847 17.69749 15.738944 20.740234 14.152344 C 19.779068 18.090037 16.24004 21 12 21 C 7.0175926 21 3 16.982407 3 12 C 3 7.75996 5.909963 4.2209316 9.8476562 3.2597656 z "/>
</svg>
