<?xml version="1.0" encoding="UTF-8" standalone="no"?>
<svg xmlns="http://www.w3.org/2000/svg" xmlns:svg="http://www.w3.org/2000/svg" width="24" height="24" viewBox="0 0 24 24" fill="currentColor" tags="lunar,solar,crescent moon,sun,earth,day,night,planet,space,mode,dark,light,toggle,switch,color,css,styles,display,accessibility,contrast,brightness,blend,shade" categories="science,design,development,accessibility,photography">
  <path d="M 12 1 C 5.9367124 1 1 5.9367124 1 12 C 1 18.063288 5.9367124 23 12 23 C 18.063288 23 23 18.063288 23 12 C 23 5.9367124 18.063288 1 12 1 z M 12.423828 3.0097656 C 17.067858 3.2234837 20.776516 6.9321412 20.990234 11.576172 C 18.599279 13.668143 14.987821 13.573757 12.707031 11.292969 C 10.426243 9.0121796 10.331858 5.400721 12.423828 3.0097656 z M 9.8496094 3.2578125 C 8.2611981 6.3010061 8.7423465 10.156409 11.292969 12.707031 C 13.843591 15.257653 17.698994 15.738802 20.742188 14.150391 C 19.781874 18.0893 16.2409 21 12 21 C 7.0175926 21 3 16.982407 3 12 C 3 7.7590997 5.9106999 4.2181261 9.8496094 3.2578125 z "/>
</svg>
