<?xml version="1.0" encoding="UTF-8" standalone="no"?>
<svg xmlns="http://www.w3.org/2000/svg" xmlns:svg="http://www.w3.org/2000/svg" width="24" height="24" viewBox="0 0 24 24" fill="currentColor" tags="egg free,vegan,hatched,bad egg" categories="food-beverage">
  
  <path d="M 2 1 A 1 1 0 0 0 1.2929688 1.2929688 A 1 1 0 0 0 1.2929688 2.7070312 L 5.1582031 6.5722656 C 4.2594517 8.275083 3.6507663 10.146703 3.5039062 11.916016 C 3.3058395 14.287462 3.6229981 16.958123 4.9140625 19.150391 C 6.2051269 21.342657 8.5825814 22.972636 11.992188 23 A 1.0001 1.0001 0 0 0 12.007812 23 C 14.984425 22.976231 17.166379 21.724482 18.537109 19.951172 L 21.292969 22.707031 A 1 1 0 0 0 22.707031 22.707031 A 1 1 0 0 0 22.707031 21.292969 L 19.076172 17.662109 L 7.1289062 5.7148438 L 2.7070312 1.2929688 A 1 1 0 0 0 2 1 z M 11.988281 1 C 10.64195 1.0155346 9.3996399 1.6336707 8.3183594 2.5253906 A 1 1 0 0 0 8.1816406 3.9335938 A 1 1 0 0 0 9.5898438 4.0683594 C 10.432625 3.3733268 11.268755 3.0156 12 3.0039062 C 13.249682 3.0242452 14.850747 4.1637883 16.130859 5.9667969 C 17.414551 7.7748458 18.343604 10.149505 18.503906 12.082031 A 1.0001 1.0001 0 0 0 18.503906 12.083984 C 18.552536 12.663256 18.562033 13.245578 18.533203 13.826172 A 1 1 0 0 0 19.482422 14.873047 A 1 1 0 0 0 20.53125 13.923828 C 20.56447 13.255043 20.552034 12.585237 20.496094 11.917969 L 20.496094 11.916016 C 20.296022 9.5090564 19.250147 6.9050099 17.761719 4.8085938 C 16.272915 2.7116504 14.310515 1.025902 12.011719 1 A 1.0001 1.0001 0 0 0 11.988281 1 z M 6.6523438 8.0664062 L 17.115234 18.529297 C 16.120521 19.999619 14.589578 20.974645 12.001953 20.998047 C 9.1863092 20.973424 7.6297677 19.820993 6.6367188 18.134766 C 5.6427878 16.44704 5.3241612 14.142529 5.4960938 12.083984 A 1.0001 1.0001 0 0 0 5.4960938 12.082031 C 5.5992257 10.836922 6.021786 9.4082824 6.6523438 8.0664062 z "/>
</svg>
