<?xml version="1.0" encoding="UTF-8" standalone="no"?>
<svg xmlns="http://www.w3.org/2000/svg" xmlns:svg="http://www.w3.org/2000/svg" width="24" height="24" viewBox="0 0 24 24" fill="currentColor" tags="food,breakfast" categories="food-beverage">
  <path d="M 9.5 1 C 7.2916667 1 5.3946533 1.7027927 4.0625 2.9609375 C 2.7303467 4.2190823 2 6.0119048 2 8 C 2 9.3333333 2.5 10.222222 2.5 11.5 C 2.5 12.25 2.2978426 12.435887 1.8925781 13.111328 C 1.4873137 13.786769 1 14.833333 1 16.5 C 1 18.583333 2.0877026 20.292834 3.6054688 21.376953 C 5.1232349 22.461072 7.0595238 23 9 23 C 10.988095 23 12.223646 22.177561 13.015625 21.517578 C 13.807604 20.857595 14.083333 20.5 15 20.5 C 17.398148 20.5 19.418366 19.967675 20.853516 18.683594 C 22.288665 17.399513 23 15.435185 23 13 C 23 10.805833 22.227404 9.3709458 21.134766 8.4765625 C 20.042127 7.5821792 18.822898 7.1155398 17.599609 6.1992188 C 16.464779 5.3491585 15.904967 4.2132519 14.861328 3.0742188 C 13.817689 1.9351855 12.2 1 9.5 1 z M 9.5 3 C 11.8 3 12.597858 3.5648144 13.386719 4.4257812 C 14.17558 5.2867482 14.865221 6.6508415 16.400391 7.8007812 C 17.847102 8.8844603 19.127327 9.4178203 19.867188 10.023438 C 20.60705 10.629053 21 11.194167 21 13 C 21 15.064815 20.461335 16.350487 19.521484 17.191406 C 18.581634 18.032325 17.101852 18.5 15 18.5 C 13.416667 18.5 12.442396 19.392405 11.734375 19.982422 C 11.026354 20.572439 10.511905 21 9 21 C 7.4404762 21 5.8767652 20.538928 4.7695312 19.748047 C 3.6622974 18.957166 3 17.916667 3 16.5 C 3 15.166667 3.2626863 14.713231 3.6074219 14.138672 C 3.9521574 13.564113 4.5 12.75 4.5 11.5 C 4.5 9.7777778 4 8.6666667 4 8 C 4 6.4880952 4.5196533 5.2809177 5.4375 4.4140625 C 6.3553467 3.5472073 7.7083333 3 9.5 3 z M 11.5 8 C 9.0265633 8 7 10.026563 7 12.5 C 7 14.973437 9.0265633 17 11.5 17 C 13.973437 17 16 14.973437 16 12.5 C 16 10.026563 13.973437 8 11.5 8 z M 11.5 10 C 12.892557 10 14 11.107443 14 12.5 C 14 13.892557 12.892557 15 11.5 15 C 10.107443 15 9 13.892557 9 12.5 C 9 11.107443 10.107443 10 11.5 10 z "/>
</svg>
