<?xml version="1.0" encoding="UTF-8" standalone="no"?>
<svg xmlns="http://www.w3.org/2000/svg" xmlns:svg="http://www.w3.org/2000/svg" width="24" height="24" viewBox="0 0 24 24" fill="currentColor" tags="egg free,vegan,hatched,bad egg" categories="food-beverage">
  <path d="M 2 1 A 1 1 0 0 0 1.2929688 1.2929688 A 1 1 0 0 0 1.2929688 2.7070312 L 5.15625 6.5703125 C 4.2574147 8.273208 3.6507748 10.146601 3.5039062 11.916016 C 3.3058391 14.287467 3.6229955 16.958119 4.9140625 19.150391 C 6.2051295 21.342662 8.5825746 22.972636 11.992188 23 A 1.0001 1.0001 0 0 0 12.007812 23 C 14.984417 22.976231 17.16833 21.726425 18.539062 19.953125 L 21.292969 22.707031 A 1 1 0 0 0 22.707031 22.707031 A 1 1 0 0 0 22.707031 21.292969 L 19.058594 17.646484 L 7.1113281 5.6972656 L 2.7070312 1.2929688 A 1 1 0 0 0 2 1 z M 11.988281 1 C 10.641947 1.0155346 9.3996421 1.6336689 8.3183594 2.5253906 A 1 1 0 0 0 8.1816406 3.9335938 A 1 1 0 0 0 9.5898438 4.0683594 C 10.432627 3.3733254 11.268753 3.0156001 12 3.0039062 C 13.249685 3.0242452 14.850744 4.1637847 16.130859 5.9667969 C 17.414554 7.7748494 18.343604 10.149501 18.503906 12.082031 A 1.0001 1.0001 0 0 0 18.503906 12.083984 C 18.552536 12.663257 18.562033 13.245578 18.533203 13.826172 A 1 1 0 0 0 19.482422 14.873047 A 1 1 0 0 0 20.53125 13.923828 C 20.56447 13.255041 20.552034 12.585239 20.496094 11.917969 L 20.496094 11.916016 C 20.296021 9.5090516 19.25015 6.905014 17.761719 4.8085938 C 16.272913 2.7116463 14.31052 1.025902 12.011719 1 A 1.0001 1.0001 0 0 0 11.988281 1 z M 6.6484375 8.0625 L 17.115234 18.529297 C 16.120534 20.00005 14.590033 20.97464 12.001953 20.998047 C 9.1863036 20.973424 7.6297697 19.820996 6.6367188 18.134766 C 5.6427859 16.447037 5.3241608 14.142533 5.4960938 12.083984 A 1.0001 1.0001 0 0 0 5.4960938 12.082031 C 5.5992761 10.836313 6.0173648 9.4049457 6.6484375 8.0625 z "/>
</svg>
