<svg xmlns="http://www.w3.org/2000/svg" xmlns:svg="http://www.w3.org/2000/svg" width="24" height="24" viewBox="0 0 24 24" fill="currentColor" tags="egg free,vegan,hatched,bad egg" categories="food-beverage">
  <path d="M 2 1 A 1 1 0 0 0 1.2929688 1.2929688 A 1 1 0 0 0 1.2929688 2.7070312 L 4.9589844 6.3730469 C 3.7541369 8.598456 3 11.277564 3 14 C 2.9996878 18.346867 5.8557237 21.505807 9.3066406 22.587891 C 12.436275 23.569231 16.140596 22.869189 18.654297 20.068359 L 21.292969 22.707031 A 1 1 0 0 0 22.707031 22.707031 A 1 1 0 0 0 22.707031 21.292969 L 19.298828 17.884766 A 1 1 0 0 0 19.25 17.835938 L 2.7070312 1.2929688 A 1 1 0 0 0 2 1 z M 12 1 C 10.652365 1 9.3683695 1.5400111 8.2402344 2.390625 A 1 1 0 0 0 8.0449219 3.7929688 A 1 1 0 0 0 9.4453125 3.9882812 C 10.317177 3.3308951 11.191635 3 12 3 C 13.5 3 15.281753 4.2253645 16.667969 6.3046875 C 18.054184 8.3840105 19 11.222222 19 14 L 19 14.347656 A 1 1 0 0 0 20 15.347656 A 1 1 0 0 0 21 14.347656 L 21 14 C 21 10.777778 19.945816 7.6159895 18.332031 5.1953125 C 16.718247 2.7746355 14.5 1 12 1 z M 6.4453125 7.859375 L 17.238281 18.652344 C 15.247715 20.959664 12.400613 21.46183 9.90625 20.679688 C 7.1912843 19.828373 4.9997495 17.4878 5 14 C 5 11.865005 5.5569118 9.693691 6.4453125 7.859375 z "/>
</svg>
