<?xml version="1.0" encoding="UTF-8" standalone="no"?>
<svg xmlns="http://www.w3.org/2000/svg" xmlns:svg="http://www.w3.org/2000/svg" width="24" height="24" viewBox="0 0 24 24" fill="currentColor" tags="bird,chicken,nest,hatch,shell,incubate,soft boiled,hard,breakfast,brunch,morning,easter" categories="food-beverage,animals">
  
  <path d="M 11.988281 1 C 9.6894845 1.025902 7.7270842 2.7116504 6.2382812 4.8085938 C 4.7498527 6.9050099 3.7039792 9.5090564 3.5039062 11.916016 C 3.3058395 14.287462 3.6229981 16.958123 4.9140625 19.150391 C 6.2051269 21.342657 8.5825814 22.972636 11.992188 23 A 1.0001 1.0001 0 0 0 12.007812 23 C 15.417417 22.97264 17.794874 21.342657 19.085938 19.150391 C 20.37666 16.958704 20.693836 14.288945 20.496094 11.917969 C 20.296391 9.5105034 19.250521 6.9055372 17.761719 4.8085938 C 16.272915 2.7116504 14.310515 1.025902 12.011719 1 A 1.0001 1.0001 0 0 0 11.988281 1 z M 12 3.0039062 C 13.249682 3.0242452 14.850747 4.1637883 16.130859 5.9667969 C 17.414551 7.7748458 18.343604 10.149505 18.503906 12.082031 A 1.0001 1.0001 0 0 0 18.503906 12.083984 C 18.675839 14.142529 18.357212 16.44704 17.363281 18.134766 C 16.370505 19.820483 14.814176 20.972812 12 20.998047 C 9.1858239 20.972812 7.6294955 19.82053 6.6367188 18.134766 C 5.6427878 16.44704 5.3241612 14.142529 5.4960938 12.083984 A 1.0001 1.0001 0 0 0 5.4960938 12.082031 C 5.6563955 10.149552 6.5854491 7.7748458 7.8691406 5.9667969 C 9.1492536 4.1637883 10.750318 3.0242451 12 3.0039062 z "/>
</svg>
