<?xml version="1.0" encoding="UTF-8" standalone="no"?>
<svg xmlns="http://www.w3.org/2000/svg" xmlns:svg="http://www.w3.org/2000/svg" width="24" height="24" viewBox="0 0 24 24" fill="currentColor" tags="bird,chicken,nest,hatch,shell,incubate,soft boiled,hard,breakfast,brunch,morning,easter" categories="food-beverage,animals">
  <path d="M 11.988281 1 C 9.6894799 1.025902 7.7270871 2.7116463 6.2382812 4.8085938 C 4.7498498 6.9050141 3.7039797 9.5090516 3.5039062 11.916016 C 3.3058391 14.287467 3.6229955 16.958119 4.9140625 19.150391 C 6.2051295 21.342662 8.5825746 22.972636 11.992188 23 A 1.0001 1.0001 0 0 0 12.007812 23 C 15.417424 22.97264 17.794871 21.342662 19.085938 19.150391 C 20.376659 16.9587 20.693836 14.28895 20.496094 11.917969 C 20.296396 9.5104986 19.250525 6.9055412 17.761719 4.8085938 C 16.272913 2.7116463 14.31052 1.025902 12.011719 1 A 1.0001 1.0001 0 0 0 11.988281 1 z M 12 3.0039062 C 13.249685 3.0242452 14.850744 4.1637847 16.130859 5.9667969 C 17.414554 7.7748494 18.343604 10.149501 18.503906 12.082031 A 1.0001 1.0001 0 0 0 18.503906 12.083984 C 18.675839 14.142533 18.357214 16.447037 17.363281 18.134766 C 16.370503 19.820487 14.814182 20.972812 12 20.998047 C 9.1858183 20.972812 7.6294974 19.820534 6.6367188 18.134766 C 5.6427859 16.447037 5.3241608 14.142533 5.4960938 12.083984 A 1.0001 1.0001 0 0 0 5.4960938 12.082031 C 5.6563959 10.149548 6.5854465 7.7748494 7.8691406 5.9667969 C 9.1492562 4.1637847 10.750315 3.0242452 12 3.0039062 z "/>
</svg>
