<?xml version="1.0" encoding="UTF-8" standalone="no"?>
<svg xmlns="http://www.w3.org/2000/svg" xmlns:svg="http://www.w3.org/2000/svg" width="24" height="24" viewBox="0 0 24 24" fill="currentColor" tags="bird,chicken,nest,hatch,shell,incubate,soft boiled,hard,breakfast,brunch,morning,easter" categories="food-beverage,animals">
  <path d="M 12 1 C 9.5 1 7.2817535 2.7746355 5.6679688 5.1953125 C 4.0541841 7.6159895 3 10.777778 3 14 C 3 18.958721 7.0412829 23 12 23 C 16.958717 23 21 18.958721 21 14 C 21 10.777778 19.945816 7.6159895 18.332031 5.1953125 C 16.718247 2.7746355 14.5 1 12 1 z M 12 3 C 13.5 3 15.281753 4.2253645 16.667969 6.3046875 C 18.054184 8.3840105 19 11.222222 19 14 C 19 17.877841 15.877839 21 12 21 C 8.1221613 21 5 17.877841 5 14 C 5 11.222222 5.9458159 8.3840105 7.3320312 6.3046875 C 8.7182467 4.2253645 10.5 3 12 3 z "/>
</svg>
