<?xml version="1.0" encoding="UTF-8" standalone="no"?>
<svg xmlns="http://www.w3.org/2000/svg" xmlns:svg="http://www.w3.org/2000/svg" width="24" height="24" viewBox="0 0 24 24" fill="currentColor" tags="et cetera,etc,loader,loading,progress,pending,throbber,menu,options,operator,code,coding,spread,rest,more,further,extra,overflow,dots,…,..." categories="layout,development">
  <path d="M 5 10 C 3.9072773 10 3 10.907277 3 12 C 3 13.092723 3.9072773 14 5 14 C 6.0927227 14 7 13.092723 7 12 C 7 10.907277 6.0927227 10 5 10 z M 12 10 C 10.907277 10 10 10.907277 10 12 C 10 13.092723 10.907277 14 12 14 C 13.092723 14 14 13.092723 14 12 C 14 10.907277 13.092723 10 12 10 z M 19 10 C 17.907277 10 17 10.907277 17 12 C 17 13.092723 17.907277 14 19 14 C 20.092723 14 21 13.092723 21 12 C 21 10.907277 20.092723 10 19 10 z "/>
</svg>
