<?xml version="1.0" encoding="UTF-8" standalone="no"?>
<svg xmlns="http://www.w3.org/2000/svg" xmlns:svg="http://www.w3.org/2000/svg" width="24" height="24" viewBox="0 0 24 24" fill="currentColor" tags="menu,options,..." categories="layout">
  <path d="M 12 3 C 10.907277 3 10 3.9072773 10 5 C 10 6.0927227 10.907277 7 12 7 C 13.092723 7 14 6.0927227 14 5 C 14 3.9072773 13.092723 3 12 3 z M 12 10 C 10.907277 10 10 10.907277 10 12 C 10 13.092723 10.907277 14 12 14 C 13.092723 14 14 13.092723 14 12 C 14 10.907277 13.092723 10 12 10 z M 12 17 C 10.907277 17 10 17.907277 10 19 C 10 20.092723 10.907277 21 12 21 C 13.092723 21 14 20.092723 14 19 C 14 17.907277 13.092723 17 12 17 z "/>
</svg>
