<svg xmlns="http://www.w3.org/2000/svg" xmlns:svg="http://www.w3.org/2000/svg" width="24" height="24" viewBox="0 0 24 24" fill="currentColor" tags="menu,options,spread,more,further,extra,overflow,dots,…,..." categories="layout">
  <path d="M 12 3 C 10.907275 3 10 3.9072751 10 5 C 10 6.0927249 10.907275 7 12 7 C 13.092725 7 14 6.0927249 14 5 C 14 3.9072751 13.092725 3 12 3 z M 12 10 C 10.907275 10 10 10.907275 10 12 C 10 13.092725 10.907275 14 12 14 C 13.092725 14 14 13.092725 14 12 C 14 10.907275 13.092725 10 12 10 z M 12 17 C 10.907275 17 10 17.907275 10 19 C 10 20.092725 10.907275 21 12 21 C 13.092725 21 14 20.092725 14 19 C 14 17.907275 13.092725 17 12 17 z "/>
</svg>
