<?xml version="1.0" encoding="UTF-8" standalone="no"?>
<svg xmlns="http://www.w3.org/2000/svg" xmlns:svg="http://www.w3.org/2000/svg" width="24" height="24" viewBox="0 0 24 24" fill="currentColor" tags="calculate,off,math,operator,code,≠" categories="math,development">
  <path d="M 19 4 A 1 1 0 0 0 18.292969 4.2929688 L 14.585938 8 L 5 8 A 1 1 0 0 0 4 9 A 1 1 0 0 0 5 10 L 12.585938 10 L 8.5859375 14 L 5 14 A 1 1 0 0 0 4 15 A 1 1 0 0 0 5 16 L 6.5859375 16 L 4.2929688 18.292969 A 1 1 0 0 0 4.2929688 19.707031 A 1 1 0 0 0 5.7070312 19.707031 L 9.4140625 16 L 19 16 A 1 1 0 0 0 20 15 A 1 1 0 0 0 19 14 L 11.414062 14 L 15.414062 10 L 19 10 A 1 1 0 0 0 20 9 A 1 1 0 0 0 19 8 L 17.414062 8 L 19.707031 5.7070312 A 1 1 0 0 0 19.707031 4.2929688 A 1 1 0 0 0 19 4 z "/>
</svg>
