<svg xmlns="http://www.w3.org/2000/svg" xmlns:svg="http://www.w3.org/2000/svg" width="24" height="24" viewBox="0 0 24 24" fill="currentColor" tags="about,calculate,math,operater" categories="math">
  <path d="M 8.5 6.9785156 C 7.0958619 6.9785156 5.6911228 7.3721029 4.4609375 8.1582031 A 1 1 0 0 0 4.1582031 9.5390625 A 1 1 0 0 0 5.5390625 9.8417969 C 7.3468567 8.6865989 9.6531428 8.6865989 11.460938 9.8417969 C 13.921308 11.413997 17.078692 11.413997 19.539062 9.8417969 A 1 1 0 0 0 19.841797 8.4609375 A 1 1 0 0 0 18.460938 8.1582031 C 16.653143 9.3134011 14.346856 9.3134011 12.539062 8.1582031 C 11.308876 7.3721029 9.9041381 6.9785156 8.5 6.9785156 z M 8.5 12.978516 C 7.0958619 12.978516 5.6911228 13.372103 4.4609375 14.158203 A 1 1 0 0 0 4.1582031 15.539062 A 1 1 0 0 0 5.5390625 15.841797 C 7.3468567 14.686599 9.6531428 14.686599 11.460938 15.841797 C 13.921308 17.413997 17.078692 17.413997 19.539062 15.841797 A 1 1 0 0 0 19.841797 14.460938 A 1 1 0 0 0 18.460938 14.158203 C 16.653143 15.313401 14.346856 15.313401 12.539062 14.158203 C 11.308876 13.372103 9.9041381 12.978516 8.5 12.978516 z "/>
</svg>
