<?xml version="1.0" encoding="UTF-8" standalone="no"?>
<svg xmlns="http://www.w3.org/2000/svg" xmlns:svg="http://www.w3.org/2000/svg" width="24" height="24" viewBox="0 0 24 24" fill="currentColor" tags="pencil,drawing,undo,delete,clear" categories="text">
  <path d="M 14.048828 1.9746094 C 13.164121 1.9722094 12.270527 2.3154108 11.59375 2.9921875 L 4.3261719 10.261719 L 4.3183594 10.269531 A 1 1 0 0 0 4.2929688 10.292969 A 1 1 0 0 0 4.2617188 10.326172 L 2.03125 12.556641 C 0.62059025 13.826234 0.63863461 16.052697 1.9921875 17.40625 L 6.2929688 21.707031 A 1 1 0 0 0 6.3417969 21.75 A 1 1 0 0 0 6.3847656 21.787109 A 1 1 0 0 0 6.4394531 21.824219 A 1 1 0 0 0 6.4921875 21.861328 A 1 1 0 0 0 6.5 21.865234 A 1 1 0 0 0 6.6113281 21.921875 A 1 1 0 0 0 6.6171875 21.923828 A 1 1 0 0 0 6.7949219 21.976562 A 1 1 0 0 0 7 22 L 22 22 A 1 1 0 0 0 23 21 A 1 1 0 0 0 22 20 L 15.414062 20 L 21.96875 13.443359 C 23.37941 12.173766 23.361369 9.9473034 22.007812 8.59375 L 16.443359 3.03125 C 15.808562 2.3259201 14.933535 1.9770066 14.048828 1.9746094 z M 14.025391 3.9238281 C 14.365589 3.9216891 14.691828 4.0744703 14.957031 4.3691406 A 1.0001 1.0001 0 0 0 14.992188 4.40625 L 20.59375 10.007812 C 21.240197 10.654258 21.220199 11.426625 20.630859 11.957031 A 1.0001 1.0001 0 0 0 20.59375 11.992188 L 14 18.585938 L 6.4140625 11 L 13.007812 4.40625 C 13.331035 4.0830267 13.685193 3.9259671 14.025391 3.9238281 z M 5 12.414062 L 12.585938 20 L 7.4140625 20 L 3.40625 15.992188 C 2.7598034 15.34574 2.7798004 14.573375 3.3691406 14.042969 A 1.0001 1.0001 0 0 0 3.40625 14.007812 L 5 12.414062 z "/>
</svg>
