<?xml version="1.0" encoding="UTF-8" standalone="no"?>
<svg xmlns="http://www.w3.org/2000/svg" xmlns:svg="http://www.w3.org/2000/svg" width="24" height="24" viewBox="0 0 24 24" fill="currentColor" tags="pencil,drawing,undo,delete,clear,trash,remove" categories="text">
  <path d="M 14 2.0058594 C 13.229947 2.0058594 12.46055 2.2970272 11.878906 2.8789062 L 4.375 10.382812 L 1.8789062 12.878906 C 0.71612675 14.042037 0.71612675 15.957963 1.8789062 17.121094 L 5.8730469 21.119141 C 6.4367631 21.683829 7.2021482 22.001323 8 22 L 21 22 A 1 1 0 0 0 22 21 A 1 1 0 0 0 21 20 L 15.246094 20 L 22.121094 13.121094 C 23.283873 11.957963 23.283873 10.042037 22.121094 8.8789062 L 16.123047 2.8789062 C 15.541403 2.2970271 14.770053 2.0058594 14 2.0058594 z M 14 3.9941406 C 14.25389 3.9941406 14.507561 4.0934176 14.707031 4.2929688 L 20.707031 10.292969 C 21.105779 10.691837 21.105779 11.308163 20.707031 11.707031 L 13.912109 18.505859 L 6.4960938 11.089844 L 13.292969 4.2929688 C 13.492439 4.0934172 13.74611 3.9941406 14 3.9941406 z M 5.0820312 12.503906 L 12.498047 19.919922 L 12.419922 20 L 8 20 A 1.0001 1.0001 0 0 0 7.9980469 20 C 7.7313489 20.000609 7.4755313 19.895778 7.2871094 19.707031 L 3.2929688 15.707031 C 2.8942205 15.308163 2.8942205 14.691837 3.2929688 14.292969 L 5.0820312 12.503906 z "/>
</svg>
