<?xml version="1.0" encoding="UTF-8" standalone="no"?>
<svg xmlns="http://www.w3.org/2000/svg" xmlns:svg="http://www.w3.org/2000/svg" width="24" height="24" viewBox="0 0 24 24" fill="currentColor" tags="internet,network,connection,cable,lan,port,router,switch,hub,modem,web,online,networking,communication,socket,plug,slot,controller,connector,interface,console,signal,data,input,output" categories="communication,devices,multimedia,gaming">
  <path d="M 4 3 C 2.3549904 3 1 4.3549904 1 6 L 1 15 C 1 16.64501 2.3549904 18 4 18 L 5.5859375 18 L 8.2929688 20.707031 A 1.0001 1.0001 0 0 0 9 21 L 15 21 A 1.0001 1.0001 0 0 0 15.707031 20.707031 L 18.414062 18 L 20 18 C 21.64501 18 23 16.64501 23 15 L 23 6 C 23 4.3549904 21.64501 3 20 3 L 4 3 z M 4 5 L 20 5 C 20.564129 5 21 5.4358706 21 6 L 21 15 C 21 15.564129 20.564129 16 20 16 L 18 16 A 1.0001 1.0001 0 0 0 17.292969 16.292969 L 14.585938 19 L 9.4140625 19 L 6.7070312 16.292969 A 1.0001 1.0001 0 0 0 6 16 L 4 16 C 3.4358706 16 3 15.564129 3 15 L 3 6 C 3 5.4358706 3.4358706 5 4 5 z M 6 7 A 1 1 0 0 0 5 8 L 5 9 A 1 1 0 0 0 6 10 A 1 1 0 0 0 7 9 L 7 8 A 1 1 0 0 0 6 7 z M 10 7 A 1 1 0 0 0 9 8 L 9 9 A 1 1 0 0 0 10 10 A 1 1 0 0 0 11 9 L 11 8 A 1 1 0 0 0 10 7 z M 14 7 A 1 1 0 0 0 13 8 L 13 9 A 1 1 0 0 0 14 10 A 1 1 0 0 0 15 9 L 15 8 A 1 1 0 0 0 14 7 z M 18 7 A 1 1 0 0 0 17 8 L 17 9 A 1 1 0 0 0 18 10 A 1 1 0 0 0 19 9 L 19 8 A 1 1 0 0 0 18 7 z "/>
</svg>
