<?xml version="1.0" encoding="UTF-8" standalone="no"?>
<svg xmlns="http://www.w3.org/2000/svg" xmlns:svg="http://www.w3.org/2000/svg" width="24" height="24" viewBox="0 0 24 24" fill="currentColor" tags="currency,money,payment" categories="finance">
  <path d="M 13.787109 3 C 9.9381318 3.0484128 6.6813323 5.5533626 5.4882812 9 L 4 9 A 1 1 0 0 0 3 10 A 1 1 0 0 0 4 11 L 5.046875 11 C 5.0134391 11.330478 4.9979407 11.666112 5.0019531 12.005859 C 5.0021845 12.341573 5.0208232 12.673291 5.0566406 13 L 4 13 A 1 1 0 0 0 3 14 A 1 1 0 0 0 4 15 L 5.5078125 15 C 6.7205178 18.478136 9.976743 21 13.800781 21 C 16.067448 21 18.095562 20.092476 19.650391 18.759766 A 1 1 0 0 0 19.759766 17.349609 A 1 1 0 0 0 18.349609 17.240234 C 17.104438 18.307524 15.534115 19 13.800781 19 C 11.097433 19 8.7507226 17.366139 7.65625 15 L 13 15 A 1 1 0 0 0 14 14 A 1 1 0 0 0 13 13 L 7.0683594 13 C 7.0228572 12.673437 7 12.339565 7 12 A 1.0001 1.0001 0 0 0 7 11.986328 C 6.9957361 11.651601 7.0151103 11.322298 7.0566406 11 L 16 11 A 1 1 0 0 0 17 10 A 1 1 0 0 0 16 9 L 7.6308594 9 C 8.7086706 6.6635738 11.055336 5.0361737 13.808594 5 C 15.47936 4.99645 17.091223 5.6168364 18.328125 6.7402344 A 1 1 0 0 0 19.740234 6.671875 A 1 1 0 0 0 19.671875 5.2597656 C 18.064358 3.7997616 15.968437 2.993488 13.796875 3 A 1.0001 1.0001 0 0 0 13.787109 3 z "/>
</svg>
