<?xml version="1.0" encoding="UTF-8" standalone="no"?>
<svg xmlns="http://www.w3.org/2000/svg" xmlns:svg="http://www.w3.org/2000/svg" width="24" height="24" viewBox="0 0 24 24" fill="currentColor" tags="currency,money,payment" categories="finance">
  <path d="M 13.787109 3 C 9.9381942 3.048412 6.6813799 5.5534491 5.4882812 9 L 4 9 A 1 1 0 0 0 3 10 A 1 1 0 0 0 4 11 L 5.0488281 11 C 5.0153722 11.330569 4.9979395 11.666015 5.0019531 12.005859 C 5.0021847 12.341934 5.0227006 12.672951 5.0585938 13 L 4 13 A 1 1 0 0 0 3 14 A 1 1 0 0 0 4 15 L 5.5097656 15 C 6.7227188 18.477671 9.9770729 21 13.800781 21 C 16.067448 21 18.095562 20.092476 19.650391 18.759766 A 1 1 0 0 0 19.759766 17.349609 A 1 1 0 0 0 18.349609 17.240234 C 17.104438 18.307524 15.534115 19 13.800781 19 C 11.097445 19 8.752682 17.366122 7.6582031 15 L 13 15 A 1 1 0 0 0 14 14 A 1 1 0 0 0 13 13 L 7.0703125 13 C 7.0247408 12.673195 7 12.339829 7 12 A 1.0001 1.0001 0 0 0 7 11.998047 A 1.0001 1.0001 0 0 0 7 11.996094 A 1.0001 1.0001 0 0 0 7 11.994141 A 1.0001 1.0001 0 0 0 7 11.992188 A 1.0001 1.0001 0 0 0 7 11.990234 A 1.0001 1.0001 0 0 0 7 11.988281 A 1.0001 1.0001 0 0 0 7 11.986328 C 6.9957356 11.651557 7.0170522 11.322339 7.0585938 11 L 16 11 A 1 1 0 0 0 17 10 A 1 1 0 0 0 16 9 L 7.6328125 9 C 8.7107037 6.6637797 11.055487 5.0361717 13.808594 5 C 15.47936 4.99645 17.091223 5.6168364 18.328125 6.7402344 A 1 1 0 0 0 19.740234 6.671875 A 1 1 0 0 0 19.671875 5.2597656 C 18.064358 3.7997616 15.968437 2.993488 13.796875 3 A 1.0001 1.0001 0 0 0 13.787109 3 z "/>
</svg>
