<?xml version="1.0" encoding="UTF-8" standalone="no"?>
<svg xmlns="http://www.w3.org/2000/svg" xmlns:svg="http://www.w3.org/2000/svg" width="24" height="24" viewBox="0 0 24 24" fill="currentColor" tags="currency,money,payment" categories="currency,money">
  
  <path d="M 13.787109 3 C 9.9382019 3.048412 6.6813799 5.5534536 5.4882812 9 L 4 9 A 1 1 0 0 0 3 10 A 1 1 0 0 0 4 11 L 5.0488281 11 C 5.0153722 11.330569 4.9979395 11.666016 5.0019531 12.005859 C 5.0021847 12.341933 5.0227006 12.672952 5.0585938 13 L 4 13 A 1 1 0 0 0 3 14 A 1 1 0 0 0 4 15 L 5.5097656 15 C 6.7227187 18.477667 9.9770806 21 13.800781 21 C 16.067444 21 18.095564 20.092473 19.650391 18.759766 A 1 1 0 0 0 19.759766 17.349609 A 1 1 0 0 0 18.349609 17.240234 C 17.104441 18.307522 15.534112 19 13.800781 19 C 11.097451 19 8.7526818 17.366119 7.6582031 15 L 13 15 A 1 1 0 0 0 14 14 A 1 1 0 0 0 13 13 L 7.0703125 13 C 7.0247408 12.673195 7 12.339828 7 12 A 1.0001 1.0001 0 0 0 7 11.998047 A 1.0001 1.0001 0 0 0 7 11.996094 A 1.0001 1.0001 0 0 0 7 11.994141 A 1.0001 1.0001 0 0 0 7 11.992188 A 1.0001 1.0001 0 0 0 7 11.990234 A 1.0001 1.0001 0 0 0 7 11.988281 A 1.0001 1.0001 0 0 0 7 11.986328 C 6.9957356 11.651558 7.0170522 11.322338 7.0585938 11 L 16 11 A 1 1 0 0 0 17 10 A 1 1 0 0 0 16 9 L 7.6328125 9 C 8.7107035 6.6637823 11.055493 5.0361717 13.808594 5 C 15.479356 4.99645 17.091225 5.6168386 18.328125 6.7402344 A 1 1 0 0 0 19.740234 6.671875 A 1 1 0 0 0 19.671875 5.2597656 C 18.064361 3.7997645 15.968433 2.993488 13.796875 3 A 1.0001 1.0001 0 0 0 13.787109 3 z "/>
</svg>
