<?xml version="1.0" encoding="UTF-8" standalone="no"?>
<svg xmlns="http://www.w3.org/2000/svg" xmlns:svg="http://www.w3.org/2000/svg" width="24" height="24" viewBox="0 0 24 24" fill="currentColor" tags="scale,fullscreen,maximize,minimize,contract" categories="text,arrows">
  <path d="M 3 2 A 1.0001 1.0001 0 0 0 2.8691406 2.0078125 A 1.0001 1.0001 0 0 0 2.6171875 2.0761719 A 1.0001 1.0001 0 0 0 2.0761719 2.6171875 A 1.0001 1.0001 0 0 0 2.0078125 2.8691406 A 1.0001 1.0001 0 0 0 2 3 L 2 8 A 1 1 0 0 0 3 9 A 1 1 0 0 0 4 8 L 4 5.4140625 L 8.2929688 9.7070312 A 1 1 0 0 0 9.7070312 9.7070312 A 1 1 0 0 0 9.7070312 8.2929688 L 5.4140625 4 L 8 4 A 1 1 0 0 0 9 3 A 1 1 0 0 0 8 2 L 3 2 z M 16 2 A 1 1 0 0 0 15 3 A 1 1 0 0 0 16 4 L 18.585938 4 L 14.292969 8.2929688 A 1 1 0 0 0 14.292969 9.7070312 A 1 1 0 0 0 15.707031 9.7070312 L 20 5.4140625 L 20 8 A 1 1 0 0 0 21 9 A 1 1 0 0 0 22 8 L 22 3 A 1 1 0 0 0 21.992188 2.8691406 A 1.0001 1.0001 0 0 0 21.923828 2.6171875 A 1 1 0 0 0 21.707031 2.2929688 A 1 1 0 0 0 21.382812 2.0761719 A 1.0001 1.0001 0 0 0 21 2 L 16 2 z M 9 14 A 1 1 0 0 0 8.2929688 14.292969 L 4 18.585938 L 4 16 A 1 1 0 0 0 3 15 A 1 1 0 0 0 2 16 L 2 21 A 1.0001 1.0001 0 0 0 3 22 L 8 22 A 1 1 0 0 0 9 21 A 1 1 0 0 0 8 20 L 5.4140625 20 L 9.7070312 15.707031 A 1 1 0 0 0 9.7070312 14.292969 A 1 1 0 0 0 9 14 z M 15 14 A 1 1 0 0 0 14.292969 14.292969 A 1 1 0 0 0 14.292969 15.707031 L 18.585938 20 L 16 20 A 1 1 0 0 0 15 21 A 1 1 0 0 0 16 22 L 21 22 A 1 1 0 0 0 21.130859 21.992188 A 1.0001 1.0001 0 0 0 21.382812 21.923828 A 1 1 0 0 0 21.707031 21.707031 A 1 1 0 0 0 21.923828 21.382812 A 1.0001 1.0001 0 0 0 21.992188 21.130859 A 1 1 0 0 0 22 21 L 22 16 A 1 1 0 0 0 21 15 A 1 1 0 0 0 20 16 L 20 18.585938 L 15.707031 14.292969 A 1 1 0 0 0 15 14 z "/>
</svg>
