<svg xmlns="http://www.w3.org/2000/svg" xmlns:svg="http://www.w3.org/2000/svg" width="24" height="24" viewBox="0 0 24 24" fill="currentColor" tags="outbound,open,share" categories="arrows,text,social">
  <path d="M 15 2 A 1 1 0 0 0 14 3 A 1 1 0 0 0 15 4 L 18.585938 4 L 9.2929688 13.292969 A 1 1 0 0 0 9.2929688 14.707031 A 1 1 0 0 0 10.707031 14.707031 L 20 5.4140625 L 20 9 A 1 1 0 0 0 21 10 A 1 1 0 0 0 22 9 L 22 3 A 1.0001 1.0001 0 0 0 21.707031 2.2929688 A 1 1 0 0 0 21.382812 2.0761719 A 1.0001 1.0001 0 0 0 21 2 L 15 2 z M 5 5 C 3.3549904 5 2 6.3549904 2 8 L 2 19 C 2 20.64501 3.3549904 22 5 22 L 16 22 C 17.64501 22 19 20.64501 19 19 L 19 13 A 1 1 0 0 0 18 12 A 1 1 0 0 0 17 13 L 17 19 C 17 19.564129 16.564129 20 16 20 L 5 20 C 4.4358706 20 4 19.564129 4 19 L 4 8 C 4 7.4358706 4.4358706 7 5 7 L 11 7 A 1 1 0 0 0 12 6 A 1 1 0 0 0 11 5 L 5 5 z "/>
</svg>
