<?xml version="1.0" encoding="UTF-8" standalone="no"?>
<svg xmlns="http://www.w3.org/2000/svg" xmlns:svg="http://www.w3.org/2000/svg" width="24" height="24" viewBox="0 0 24 24" fill="currentColor" tags="view,watch,see,hide,conceal,mask,hidden,visibility,vision" categories="accessibility,photography,design,security">
  <path d="M 2 1 A 1 1 0 0 0 1.2929688 1.2929688 A 1 1 0 0 0 1.2929688 2.7070312 L 4.9414062 6.3554688 C 3.2613785 7.6181003 1.9435468 9.3148703 1.1367188 11.271484 A 1.0001 1.0001 0 0 0 1.125 11.304688 C 0.95840016 11.753498 0.95840016 12.246501 1.125 12.695312 A 1.0001 1.0001 0 0 0 1.1367188 12.728516 C 3.7604812 19.09138 11.273417 21.799778 17.314453 18.728516 L 21.292969 22.707031 A 1 1 0 0 0 22.707031 22.707031 A 1 1 0 0 0 22.707031 21.292969 L 7.2050781 5.7929688 L 2.7070312 1.2929688 A 1 1 0 0 0 2 1 z M 11.591797 4.0078125 C 11.267396 4.0193109 10.94199 4.0450443 10.615234 4.0839844 A 1 1 0 0 0 9.7402344 5.1933594 A 1 1 0 0 0 10.851562 6.0683594 C 15.185194 5.5519129 19.317053 7.9741899 20.994141 12 C 20.662718 12.794176 20.230713 13.544601 19.703125 14.224609 A 1 1 0 0 0 19.880859 15.626953 A 1 1 0 0 0 21.283203 15.449219 C 21.928986 14.616869 22.461584 13.702416 22.863281 12.728516 A 1.0001 1.0001 0 0 0 22.875 12.695312 C 23.0416 12.2465 23.0416 11.751546 22.875 11.302734 A 1.0001 1.0001 0 0 0 22.863281 11.269531 C 20.982637 6.705816 16.457806 3.835337 11.591797 4.0078125 z M 6.375 7.7890625 L 8.5449219 9.9589844 C 8.098781 10.678952 7.9080011 11.473131 7.9570312 12.220703 C 8.0236043 13.235747 8.491457 14.147707 9.171875 14.828125 C 9.852293 15.508543 10.764253 15.976396 11.779297 16.042969 C 12.526868 16.091997 13.321048 15.901218 14.041016 15.455078 L 15.8125 17.226562 C 10.906784 19.327099 5.124348 17.074008 3.0078125 11.998047 C 3.7156118 10.302193 4.8831541 8.8444164 6.375 7.7890625 z M 10.029297 11.443359 L 12.556641 13.970703 C 12.337097 14.042023 12.123188 14.060847 11.910156 14.046875 C 11.438026 14.015905 10.953942 13.782068 10.585938 13.414062 C 10.217932 13.046057 9.98409 12.561974 9.953125 12.089844 C 9.9391532 11.876812 9.9579772 11.662903 10.029297 11.443359 z "/>
</svg>
