<?xml version="1.0" encoding="UTF-8" standalone="no"?>
<svg xmlns="http://www.w3.org/2000/svg" xmlns:svg="http://www.w3.org/2000/svg" width="24" height="24" viewBox="0 0 24 24" fill="currentColor" tags="view,watch,see,hide,conceal,mask,hidden,visibility,vision" categories="accessibility,photography,design,security">
  <path d="M 2 1 A 1 1 0 0 0 1.2929688 1.2929688 A 1 1 0 0 0 1.2929688 2.7070312 L 4.9433594 6.3574219 C 3.2632743 7.6200628 1.9435661 9.3148237 1.1367188 11.271484 A 1.0001 1.0001 0 0 0 1.125 11.304688 C 0.95840016 11.753498 0.95840016 12.246501 1.125 12.695312 A 1.0001 1.0001 0 0 0 1.1367188 12.728516 C 3.7603147 19.090977 11.27166 21.796896 17.3125 18.726562 L 21.292969 22.707031 A 1 1 0 0 0 22.707031 22.707031 A 1 1 0 0 0 22.707031 21.292969 L 2.7070312 1.2929688 A 1 1 0 0 0 2 1 z M 12.078125 4.0019531 C 11.594058 3.9990688 11.105368 4.0255743 10.615234 4.0839844 A 1 1 0 0 0 9.7402344 5.1933594 A 1 1 0 0 0 10.851562 6.0683594 C 15.185194 5.5519129 19.317053 7.9741899 20.994141 12 C 20.662718 12.794176 20.230713 13.544601 19.703125 14.224609 A 1 1 0 0 0 19.880859 15.626953 A 1 1 0 0 0 21.283203 15.449219 C 21.928986 14.616869 22.461584 13.702416 22.863281 12.728516 A 1.0001 1.0001 0 0 0 22.875 12.695312 C 23.0416 12.2465 23.0416 11.751546 22.875 11.302734 A 1.0001 1.0001 0 0 0 22.863281 11.269531 C 21.045326 6.8579399 16.757441 4.0298345 12.078125 4.0019531 z M 6.375 7.7890625 L 8.546875 9.9609375 C 8.1009916 10.68075 7.9080144 11.473333 7.9570312 12.220703 C 8.0236043 13.235747 8.491457 14.147707 9.171875 14.828125 C 9.852293 15.508543 10.764253 15.976396 11.779297 16.042969 C 12.526667 16.091984 13.31925 15.899008 14.039062 15.453125 L 15.810547 17.224609 C 10.905061 19.324359 5.1241938 17.073638 3.0078125 11.998047 C 3.7156643 10.302067 4.8829952 8.8444349 6.375 7.7890625 z M 10.029297 11.443359 L 12.556641 13.970703 C 12.337393 14.041795 12.122914 14.060829 11.910156 14.046875 C 11.438026 14.015905 10.953942 13.782068 10.585938 13.414062 C 10.217932 13.046057 9.98409 12.561974 9.953125 12.089844 C 9.9391711 11.877086 9.9582046 11.662607 10.029297 11.443359 z "/>
</svg>
