<?xml version="1.0" encoding="UTF-8" standalone="no"?>
<svg xmlns="http://www.w3.org/2000/svg" xmlns:svg="http://www.w3.org/2000/svg" width="24" height="24" viewBox="0 0 24 24" fill="currentColor" tags="view,watch,hide,hidden" categories="accessibility,photography">
  <path d="M 2 1 A 1 1 0 0 0 1.2929688 1.2929688 A 1 1 0 0 0 1.2929688 2.7070312 L 4.9433594 6.3574219 C 3.2632765 7.6200616 1.9435645 9.3148276 1.1367188 11.271484 A 1.0001 1.0001 0 0 0 1.125 11.304688 C 0.95840049 11.753498 0.95840049 12.246501 1.125 12.695312 A 1.0001 1.0001 0 0 0 1.1367188 12.728516 C 3.7603094 19.090964 11.271671 21.796889 17.3125 18.726562 L 21.292969 22.707031 A 1 1 0 0 0 22.707031 22.707031 A 1 1 0 0 0 22.707031 21.292969 L 2.7070312 1.2929688 A 1 1 0 0 0 2 1 z M 12.078125 4.0019531 C 11.594059 3.9990687 11.105367 4.0255744 10.615234 4.0839844 A 1 1 0 0 0 9.7402344 5.1933594 A 1 1 0 0 0 10.851562 6.0683594 C 15.185185 5.551914 19.317056 7.9741979 20.994141 12 C 20.662718 12.794175 20.230712 13.544602 19.703125 14.224609 A 1 1 0 0 0 19.880859 15.626953 A 1 1 0 0 0 21.283203 15.449219 C 21.928984 14.616871 22.461586 13.702414 22.863281 12.728516 A 1.0001 1.0001 0 0 0 22.875 12.695312 C 23.0416 12.246501 23.0416 11.751546 22.875 11.302734 A 1.0001 1.0001 0 0 0 22.863281 11.269531 C 21.045329 6.8579487 16.757434 4.0298356 12.078125 4.0019531 z M 6.375 7.7890625 L 8.546875 9.9609375 C 8.1009922 10.68075 7.9080145 11.473335 7.9570312 12.220703 C 8.0236042 13.235745 8.4914584 14.147709 9.171875 14.828125 C 9.8522916 15.508541 10.764255 15.976396 11.779297 16.042969 C 12.526665 16.091984 13.31925 15.899007 14.039062 15.453125 L 15.810547 17.224609 C 10.905069 19.324354 5.1241896 17.073627 3.0078125 11.998047 C 3.7156629 10.30207 4.8829974 8.8444337 6.375 7.7890625 z M 10.029297 11.443359 L 12.556641 13.970703 C 12.337393 14.041795 12.122914 14.060829 11.910156 14.046875 C 11.438028 14.015905 10.953942 13.782067 10.585938 13.414062 C 10.217932 13.046057 9.98409 12.561972 9.953125 12.089844 C 9.9391711 11.877086 9.9582047 11.662607 10.029297 11.443359 z "/>
</svg>
