<?xml version="1.0" encoding="UTF-8" standalone="no"?>
<svg xmlns="http://www.w3.org/2000/svg" xmlns:svg="http://www.w3.org/2000/svg" width="24" height="24" viewBox="0 0 24 24" fill="currentColor" tags="view,watch,see,hide,conceal,mask,hidden,visibility,vision" categories="accessibility,photography,design,security">
  <path d="M 2.0410156 7 A 1 1 0 0 0 1.65625 7.0605469 A 1 1 0 0 0 1.0605469 8.34375 C 1.777001 10.307115 2.906572 11.897615 4.2832031 13.111328 L 3.234375 14.355469 A 1 1 0 0 0 3.3554688 15.765625 A 1 1 0 0 0 4.765625 15.644531 L 5.8964844 14.300781 C 6.7288721 14.805915 7.6178739 15.198476 8.5351562 15.478516 L 8.0234375 17.783203 A 1 1 0 0 0 8.7832031 18.976562 A 1 1 0 0 0 9.9765625 18.216797 L 10.490234 15.898438 C 10.991503 15.962711 11.496074 15.996094 12 15.996094 C 12.503926 15.996094 13.008497 15.962711 13.509766 15.898438 L 14.023438 18.216797 A 1 1 0 0 0 15.216797 18.976562 A 1 1 0 0 0 15.976562 17.783203 L 15.464844 15.478516 C 16.382126 15.198476 17.271128 14.805915 18.103516 14.300781 L 19.234375 15.644531 A 1 1 0 0 0 20.644531 15.765625 A 1 1 0 0 0 20.765625 14.355469 L 19.716797 13.111328 C 21.093428 11.897615 22.222999 10.307115 22.939453 8.34375 A 1 1 0 0 0 22.34375 7.0605469 A 1 1 0 0 0 21.060547 7.65625 C 20.379666 9.5221318 19.286035 10.967772 17.955078 12.003906 A 1 1 0 0 0 17.630859 12.185547 A 1 1 0 0 0 17.482422 12.345703 C 16.475168 13.031103 15.352037 13.50015 14.183594 13.757812 A 1 1 0 0 0 14.060547 13.773438 A 1 1 0 0 0 13.970703 13.802734 C 13.322702 13.930796 12.662382 13.996094 12 13.996094 C 11.347628 13.996094 10.697184 13.932803 10.058594 13.808594 A 1 1 0 0 0 9.9394531 13.773438 A 1 1 0 0 0 9.8164062 13.757812 C 8.6502111 13.500646 7.5291936 13.032861 6.5234375 12.349609 A 1 1 0 0 0 6.3691406 12.185547 A 1 1 0 0 0 6.0449219 12.003906 C 4.7139647 10.967772 3.6203345 9.5221318 2.9394531 7.65625 A 1 1 0 0 0 2.0410156 7 z "/>
</svg>
