<svg xmlns="http://www.w3.org/2000/svg" xmlns:svg="http://www.w3.org/2000/svg" width="24" height="24" viewBox="0 0 24 24" fill="currentColor" tags="view,watch,see,hide,conceal,mask,hidden,visibility,vision" categories="accessibility,photography,design,security">
  <path d="M 2.0410156 7 A 1 1 0 0 0 1.65625 7.0605469 A 1 1 0 0 0 1.0605469 8.34375 C 1.7769566 10.306994 2.9047382 11.899596 4.28125 13.113281 L 3.234375 14.355469 A 1 1 0 0 0 3.3554688 15.765625 A 1 1 0 0 0 4.765625 15.644531 L 5.8964844 14.300781 C 6.7295198 14.806371 7.6170984 15.198384 8.5351562 15.478516 L 8.0234375 17.783203 A 1 1 0 0 0 8.7832031 18.976562 A 1 1 0 0 0 9.9765625 18.216797 L 10.490234 15.900391 C 10.991463 15.964653 11.496115 15.996094 12 15.996094 C 12.503885 15.996094 13.008537 15.964654 13.509766 15.900391 L 14.023438 18.216797 A 1 1 0 0 0 15.216797 18.976562 A 1 1 0 0 0 15.976562 17.783203 L 15.464844 15.478516 C 16.382902 15.198384 17.27048 14.806371 18.103516 14.300781 L 19.234375 15.644531 A 1 1 0 0 0 20.644531 15.765625 A 1 1 0 0 0 20.765625 14.355469 L 19.71875 13.113281 C 21.095262 11.899596 22.223043 10.306994 22.939453 8.34375 A 1 1 0 0 0 22.34375 7.0605469 A 1 1 0 0 0 21.060547 7.65625 C 20.379958 9.5213306 19.287211 10.965913 17.957031 12.001953 A 1 1 0 0 0 17.630859 12.185547 A 1 1 0 0 0 17.472656 12.353516 C 16.479266 13.027577 15.375074 13.493349 14.224609 13.751953 A 1 1 0 0 0 14.060547 13.773438 A 1 1 0 0 0 13.927734 13.8125 C 13.29353 13.934936 12.647713 13.996094 12 13.996094 C 11.352287 13.996094 10.70647 13.934936 10.072266 13.8125 A 1 1 0 0 0 9.9394531 13.773438 A 1 1 0 0 0 9.7753906 13.751953 C 8.6249263 13.493349 7.5207344 13.027577 6.5273438 12.353516 A 1 1 0 0 0 6.3691406 12.185547 A 1 1 0 0 0 6.0429688 12.001953 C 4.7127891 10.965913 3.6200422 9.5213308 2.9394531 7.65625 A 1 1 0 0 0 2.0410156 7 z "/>
</svg>
