<?xml version="1.0" encoding="UTF-8" standalone="no"?>
<svg xmlns="http://www.w3.org/2000/svg" xmlns:svg="http://www.w3.org/2000/svg" width="24" height="24" viewBox="0 0 24 24" fill="currentColor" tags="view,watch,see,hide,conceal,mask,hidden,visibility,vision" categories="accessibility,photography,design,security">
  <path d="M 2.0410156 7 A 1 1 0 0 0 1.65625 7.0605469 A 1 1 0 0 0 1.0605469 8.34375 C 1.7770025 10.307119 2.9065713 11.897614 4.2832031 13.111328 L 3.234375 14.355469 A 1 1 0 0 0 3.3554688 15.765625 A 1 1 0 0 0 4.765625 15.644531 L 5.8964844 14.300781 C 6.7288727 14.805915 7.6178729 15.198477 8.5351562 15.478516 L 8.0234375 17.783203 A 1 1 0 0 0 8.7832031 18.976562 A 1 1 0 0 0 9.9765625 18.216797 L 10.490234 15.898438 C 10.991504 15.962711 11.496073 15.996094 12 15.996094 C 12.503927 15.996094 13.008496 15.962711 13.509766 15.898438 L 14.023438 18.216797 A 1 1 0 0 0 15.216797 18.976562 A 1 1 0 0 0 15.976562 17.783203 L 15.464844 15.478516 C 16.382127 15.198477 17.271127 14.805915 18.103516 14.300781 L 19.234375 15.644531 A 1 1 0 0 0 20.644531 15.765625 A 1 1 0 0 0 20.765625 14.355469 L 19.716797 13.111328 C 21.093429 11.897614 22.222998 10.307119 22.939453 8.34375 A 1 1 0 0 0 22.34375 7.0605469 A 1 1 0 0 0 21.060547 7.65625 C 20.379664 9.5221354 19.286036 10.967772 17.955078 12.003906 A 1 1 0 0 0 17.630859 12.185547 A 1 1 0 0 0 17.482422 12.345703 C 16.475167 13.031104 15.352039 13.50015 14.183594 13.757812 A 1 1 0 0 0 14.060547 13.773438 A 1 1 0 0 0 13.970703 13.802734 C 13.322702 13.930796 12.662383 13.996094 12 13.996094 C 11.347627 13.996094 10.697184 13.932803 10.058594 13.808594 A 1 1 0 0 0 9.9394531 13.773438 A 1 1 0 0 0 9.8164062 13.757812 C 8.6502096 13.500646 7.5291941 13.032861 6.5234375 12.349609 A 1 1 0 0 0 6.3691406 12.185547 A 1 1 0 0 0 6.0449219 12.003906 C 4.713964 10.967772 3.6203359 9.5221354 2.9394531 7.65625 A 1 1 0 0 0 2.0410156 7 z "/>
</svg>
