<?xml version="1.0" encoding="UTF-8" standalone="no"?>
<svg xmlns="http://www.w3.org/2000/svg" xmlns:svg="http://www.w3.org/2000/svg" width="24" height="24" viewBox="0 0 24 24" fill="currentColor" tags="view,watch" categories="accessibility,photography">
  
  <path d="M 12 4 C 4.3333487 4 1.0800781 11.605469 1.0800781 11.605469 A 1.0001 1.0001 0 0 0 1.0800781 12.394531 C 1.0800781 12.394531 4.3333487 20 12 20 C 19.666651 20 22.919922 12.394531 22.919922 12.394531 A 1.0001 1.0001 0 0 0 22.919922 11.605469 C 22.919922 11.605469 19.666651 4 12 4 z M 12 6 C 17.942317 6 20.491197 11.304986 20.8125 12 C 20.491197 12.695014 17.942317 18 12 18 C 6.0576824 18 3.5088029 12.695014 3.1875 12 C 3.5088029 11.304986 6.0576824 6 12 6 z M 12 8 C 9.80271 8 8 9.80271 8 12 C 8 14.19729 9.80271 16 12 16 C 14.19729 16 16 14.19729 16 12 C 16 9.80271 14.19729 8 12 8 z M 12 10 C 13.116412 10 14 10.883588 14 12 C 14 13.116412 13.116412 14 12 14 C 10.883588 14 10 13.116412 10 12 C 10 10.883588 10.883588 10 12 10 z "/>
</svg>
