<svg xmlns="http://www.w3.org/2000/svg" xmlns:svg="http://www.w3.org/2000/svg" width="24" height="24" viewBox="0 0 24 24" fill="currentColor" tags="view,watch,see,show,expose,reveal,display,visible,visibility,vision,preview,read" categories="accessibility,photography,design,security">
  <path d="M 12 4 C 7.5808409 4 3.119325 6.4642186 1.1367188 11.271484 A 1.0001 1.0001 0 0 0 1.125 11.304688 C 0.95840016 11.753498 0.95840016 12.246501 1.125 12.695312 A 1 1 0 0 0 1.1464844 12.705078 A 1 1 0 0 0 1.1367188 12.728516 C 3.1193297 17.535745 7.5808409 20 12 20 C 16.419159 20 20.880675 17.535782 22.863281 12.728516 A 1.0001 1.0001 0 0 0 22.875 12.695312 C 23.0416 12.2465 23.0416 11.753498 22.875 11.304688 A 1.0001 1.0001 0 0 0 22.863281 11.271484 C 20.880675 6.4642116 16.419159 4 12 4 z M 12 6 C 15.678603 6 19.312203 7.9643242 20.994141 12 C 19.312203 16.035676 15.678603 18 12 18 C 8.3213966 18 4.6877974 16.035676 3.0058594 12 C 4.6877974 7.9643242 8.3213966 6 12 6 z M 12 8 C 9.8027056 8 8 9.8027056 8 12 C 8 14.197294 9.8027056 16 12 16 C 14.197294 16 16 14.197294 16 12 C 16 9.8027056 14.197294 8 12 8 z M 12 10 C 13.116414 10 14 10.883586 14 12 C 14 13.116414 13.116414 14 12 14 C 10.883586 14 10 13.116414 10 12 C 10 10.883586 10.883586 10 12 10 z "/>
</svg>
