<?xml version="1.0" encoding="UTF-8" standalone="no"?>
<svg xmlns="http://www.w3.org/2000/svg" xmlns:svg="http://www.w3.org/2000/svg" width="24" height="24" viewBox="0 0 24 24" fill="currentColor" tags="view,watch" categories="accessibility,photography">
  <path d="M 12 4 C 7.5808497 4 3.119321 6.4642282 1.1367188 11.271484 A 1.0001 1.0001 0 0 0 1.125 11.304688 C 0.95840049 11.753498 0.95840049 12.246501 1.125 12.695312 A 1 1 0 0 0 1.1367188 12.708984 A 1 1 0 0 0 1.1367188 12.728516 C 3.1193207 17.535775 7.5808497 20 12 20 C 16.419151 20 20.880679 17.535772 22.863281 12.728516 A 1.0001 1.0001 0 0 0 22.875 12.695312 C 23.0416 12.246501 23.0416 11.753498 22.875 11.304688 A 1.0001 1.0001 0 0 0 22.863281 11.271484 C 20.880679 6.4642212 16.419151 4 12 4 z M 12 6 C 15.678596 6 19.312205 7.9643322 20.994141 12 C 19.312205 16.035668 15.678596 18 12 18 C 8.3214039 18 4.6877941 16.035668 3.0058594 12 C 4.6877941 7.9643322 8.3214039 6 12 6 z M 12 8 C 9.80271 8 8 9.80271 8 12 C 8 14.19729 9.80271 16 12 16 C 14.19729 16 16 14.19729 16 12 C 16 9.80271 14.19729 8 12 8 z M 12 10 C 13.116412 10 14 10.883588 14 12 C 14 13.116412 13.116412 14 12 14 C 10.883588 14 10 13.116412 10 12 C 10 10.883588 10.883588 10 12 10 z "/>
</svg>
