<?xml version="1.0" encoding="UTF-8" standalone="no"?>
<svg xmlns="http://www.w3.org/2000/svg" xmlns:svg="http://www.w3.org/2000/svg" width="24" height="24" viewBox="0 0 24 24" fill="currentColor" tags="logo,social" categories="social,brands">
  <path d="M 15 1 C 11.698136 1 9 3.6981361 9 7 L 9 9 L 7 9 A 1.0001 1.0001 0 0 0 6 10 L 6 14 A 1.0001 1.0001 0 0 0 7 15 L 9 15 L 9 22 A 1.0001 1.0001 0 0 0 10 23 L 14 23 A 1.0001 1.0001 0 0 0 15 22 L 15 15 L 17 15 A 1.0001 1.0001 0 0 0 17.970703 14.242188 L 18.970703 10.242188 A 1.0001 1.0001 0 0 0 18 9 L 15 9 L 15 7 L 18 7 A 1.0001 1.0001 0 0 0 19 6 L 19 2 A 1.0001 1.0001 0 0 0 18 1 L 15 1 z M 15 3 L 17 3 L 17 5 L 15 5 C 13.907275 5 13 5.9072751 13 7 L 13 10 A 1.0001 1.0001 0 0 0 14 11 L 16.71875 11 L 16.21875 13 L 14 13 A 1.0001 1.0001 0 0 0 13 14 L 13 21 L 11 21 L 11 14 A 1.0001 1.0001 0 0 0 10 13 L 8 13 L 8 11 L 10 11 A 1.0001 1.0001 0 0 0 11 10 L 11 7 C 11 4.7790164 12.779016 3 15 3 z "/>
</svg>
