<?xml version="1.0" encoding="UTF-8" standalone="no"?>
<svg xmlns="http://www.w3.org/2000/svg" xmlns:svg="http://www.w3.org/2000/svg" width="24" height="24" viewBox="0 0 24 24" fill="currentColor" tags="building,business,energy,industry,manufacture,sector" categories="buildings">
  <path d="M 5 2 C 3.3549904 2 2 3.3549904 2 5 L 2 19 C 2 20.64501 3.3549904 22 5 22 L 19 22 C 20.64501 22 22 20.64501 22 19 L 22 8.5019531 L 22 8.5 C 21.999707 7.3691822 20.646937 6.6257643 19.693359 7.234375 L 16 9.5878906 L 16 8.5019531 L 16 8.5 C 15.999707 7.3691822 14.646937 6.6257643 13.693359 7.234375 L 10 9.5878906 L 10 5 C 10 3.3549904 8.6450096 2 7 2 L 5 2 z M 5 4 L 7 4 C 7.5641294 4 8 4.4358706 8 5 L 8 10.5 C 7.99884 11.632845 9.3567101 12.375644 10.310547 11.763672 L 14 9.4121094 L 14 10.5 C 14.000293 11.630818 15.353063 12.374236 16.306641 11.765625 L 20 9.4121094 L 20 19 C 20 19.564129 19.564129 20 19 20 L 5 20 C 4.4358706 20 4 19.564129 4 19 L 4 5 C 4 4.4358706 4.4358706 4 5 4 z M 8 15 A 1 1 0 0 0 7 16 A 1 1 0 0 0 8 17 L 8.0097656 17 A 1 1 0 0 0 9.0097656 16 A 1 1 0 0 0 8.0097656 15 L 8 15 z M 12 15 A 1 1 0 0 0 11 16 A 1 1 0 0 0 12 17 L 12.009766 17 A 1 1 0 0 0 13.009766 16 A 1 1 0 0 0 12.009766 15 L 12 15 z M 16 15 A 1 1 0 0 0 15 16 A 1 1 0 0 0 16 17 L 16.009766 17 A 1 1 0 0 0 17.009766 16 A 1 1 0 0 0 16.009766 15 L 16 15 z "/>
</svg>
