<?xml version="1.0" encoding="UTF-8" standalone="no"?>
<svg xmlns="http://www.w3.org/2000/svg" xmlns:svg="http://www.w3.org/2000/svg" width="24" height="24" viewBox="0 0 24 24" fill="currentColor" tags="building,business,energy,industry,manufacture,sector" categories="buildings">
  <path d="M 4 1 C 2.3549904 1 1 2.3549904 1 4 L 1 20 C 1 21.64501 2.3549904 23 4 23 L 20 23 C 21.64501 23 23 21.64501 23 20 L 23 8 A 1.0001 1.0001 0 0 0 21.417969 7.1855469 L 16 11.054688 L 16 8 A 1.0001 1.0001 0 0 0 14.417969 7.1855469 L 9 11.054688 L 9 4 C 9 2.3549904 7.6450096 1 6 1 L 4 1 z M 4 3 L 6 3 C 6.5641294 3 7 3.4358706 7 4 L 7 13 A 1.0001 1.0001 0 0 0 8.5820312 13.814453 L 14 9.9453125 L 14 13 A 1.0001 1.0001 0 0 0 15.582031 13.814453 L 21 9.9453125 L 21 20 C 21 20.564129 20.564129 21 20 21 L 4 21 C 3.4358706 21 3 20.564129 3 20 L 3 4 C 3 3.4358706 3.4358706 3 4 3 z M 7 17 A 1 1 0 0 0 6 18 A 1 1 0 0 0 7 19 L 8 19 A 1 1 0 0 0 9 18 A 1 1 0 0 0 8 17 L 7 17 z M 12 17 A 1 1 0 0 0 11 18 A 1 1 0 0 0 12 19 L 13 19 A 1 1 0 0 0 14 18 A 1 1 0 0 0 13 17 L 12 17 z M 17 17 A 1 1 0 0 0 16 18 A 1 1 0 0 0 17 19 L 18 19 A 1 1 0 0 0 19 18 A 1 1 0 0 0 18 17 L 17 17 z "/>
</svg>
