<svg xmlns="http://www.w3.org/2000/svg" xmlns:svg="http://www.w3.org/2000/svg" width="24" height="24" viewBox="0 0 24 24" fill="currentColor" tags="air,cooler,ventilation,ventilator,blower" categories="home">
  <path d="M 12.734375 1 C 10.646284 1.0856629 8.7807521 2.1057541 7.5527344 3.6171875 C 6.2931033 5.1675303 5.7020483 7.2692708 6.1054688 9.3847656 L 2.46875 8.4101562 A 1.0001 1.0001 0 0 0 1.2421875 9.1191406 C 0.46008701 12.038757 1.601943 14.809909 3.6171875 16.447266 C 5.1675303 17.706897 7.2692708 18.297952 9.3847656 17.894531 L 8.4101562 21.53125 A 1.0001 1.0001 0 0 0 9.1191406 22.757812 C 12.038757 23.539914 14.809909 22.398057 16.447266 20.382812 C 17.706897 18.83247 18.297952 16.730729 17.894531 14.615234 L 21.53125 15.589844 A 1.0001 1.0001 0 0 0 22.757812 14.880859 C 23.539913 11.961243 22.398057 9.1900913 20.382812 7.5527344 C 18.83247 6.2931033 16.730729 5.7020483 14.615234 6.1054688 L 15.589844 2.46875 A 1.0001 1.0001 0 0 0 14.880859 1.2421875 C 14.150955 1.0466624 13.430405 0.97144571 12.734375 1 z M 12.691406 3.2011719 C 12.897952 3.1924295 13.107865 3.1933802 13.320312 3.2050781 L 12.207031 7.3613281 A 1.0001 1.0001 0 0 0 13.625 8.5136719 C 15.618813 7.5061108 17.660172 7.9184911 19.121094 9.1054688 C 20.327408 10.085581 20.888505 11.620733 20.794922 13.320312 L 16.638672 12.207031 A 1.0001 1.0001 0 0 0 15.486328 13.625 C 16.493889 15.618813 16.081509 17.660172 14.894531 19.121094 C 13.914419 20.327408 12.379267 20.888505 10.679688 20.794922 L 11.792969 16.638672 A 1.0001 1.0001 0 0 0 10.375 15.486328 C 8.381187 16.493889 6.3398278 16.081509 4.8789062 14.894531 C 3.6725924 13.914419 3.111495 12.379267 3.2050781 10.679688 L 7.3613281 11.792969 A 1.0001 1.0001 0 0 0 8.5136719 10.375 C 7.5061108 8.381187 7.9184911 6.3398278 9.1054688 4.8789062 C 9.9630669 3.8233817 11.245583 3.2623686 12.691406 3.2011719 z M 12 11 A 1 1 0 0 0 11 12 L 11 12.009766 A 1 1 0 0 0 12 13.009766 A 1 1 0 0 0 13 12.009766 L 13 12 A 1 1 0 0 0 12 11 z "/>
</svg>
