<?xml version="1.0" encoding="UTF-8" standalone="no"?>
<svg xmlns="http://www.w3.org/2000/svg" xmlns:svg="http://www.w3.org/2000/svg" width="24" height="24" viewBox="0 0 24 24" fill="currentColor" tags="music" categories="multimedia,arrows">
  <path d="M 1.9628906 4 A 1.0001 1.0001 0 0 0 1.5605469 4.1015625 A 1.0001 1.0001 0 0 0 1 5 L 1 19 A 1.0001 1.0001 0 0 0 2.6132812 19.789062 L 11.613281 12.789062 A 1.0001 1.0001 0 0 0 11.613281 11.210938 L 2.6132812 4.2109375 A 1.0001 1.0001 0 0 0 1.9628906 4 z M 12.962891 4 A 1.0001 1.0001 0 0 0 12.560547 4.1015625 A 1.0001 1.0001 0 0 0 12 5 L 12 19 A 1.0001 1.0001 0 0 0 13.613281 19.789062 L 22.613281 12.789062 A 1.0001 1.0001 0 0 0 22.613281 11.210938 L 13.613281 4.2109375 A 1.0001 1.0001 0 0 0 12.962891 4 z M 3 7.0429688 L 9.3730469 12 L 3 16.957031 L 3 7.0429688 z M 14 7.0429688 L 20.373047 12 L 14 16.957031 L 14 7.0429688 z "/>
</svg>
