<?xml version="1.0" encoding="UTF-8" standalone="no"?>
<svg xmlns="http://www.w3.org/2000/svg" xmlns:svg="http://www.w3.org/2000/svg" width="24" height="24" viewBox="0 0 24 24" fill="currentColor" tags="music" categories="multimedia,arrows">
  <path d="M 4.0996094 3.0058594 C 3.6674833 2.9914483 3.2387016 3.0681716 2.8515625 3.2285156 C 1.8191914 3.6560999 1.0002762 4.7063131 1 6 L 1 18 C 1.0002762 19.293687 1.8191914 20.3439 2.8515625 20.771484 C 3.8839336 21.199069 5.2061809 21.03573 6.1210938 20.121094 L 11 15.242188 L 11 18 C 11.000276 19.293687 11.81919 20.3439 12.851562 20.771484 C 13.883933 21.199069 15.206181 21.03573 16.121094 20.121094 L 22.121094 14.121094 C 23.283873 12.957963 23.283873 11.042037 22.121094 9.8789062 L 16.121094 3.8789062 C 15.663637 3.4215878 15.10508 3.1524081 14.53125 3.0507812 C 13.95742 2.9491542 13.367748 3.0147235 12.851562 3.2285156 C 11.81919 3.6560999 11.000276 4.7063131 11 6 L 11 8.7578125 L 6.1210938 3.8789062 C 5.6636374 3.4215878 5.1050804 3.1524081 4.53125 3.0507812 C 4.3877924 3.0253745 4.2436514 3.0106631 4.0996094 3.0058594 z M 4.0292969 4.9882812 C 4.2602867 4.9883456 4.4914323 5.0774349 4.7070312 5.2929688 L 10.707031 11.292969 C 10.87795 11.463939 10.975606 11.673999 11 11.890625 L 11 12.109375 C 10.975606 12.326001 10.87795 12.536061 10.707031 12.707031 L 4.7070312 18.707031 C 4.3620728 19.051886 3.9767535 19.072752 3.6171875 18.923828 C 3.2576215 18.774904 3.0001042 18.487771 3 18 L 3 6 C 3.0001042 5.5122288 3.2576215 5.2250958 3.6171875 5.0761719 C 3.7520247 5.0203254 3.890703 4.9882427 4.0292969 4.9882812 z M 14.029297 4.9882812 C 14.260287 4.9883456 14.491433 5.0774349 14.707031 5.2929688 L 20.707031 11.292969 C 21.105779 11.691837 21.105779 12.308163 20.707031 12.707031 L 14.707031 18.707031 C 14.362073 19.051886 13.976752 19.072752 13.617188 18.923828 C 13.257621 18.774904 13.000104 18.487771 13 18 L 13 6 C 13.000104 5.5122288 13.257621 5.2250958 13.617188 5.0761719 C 13.752024 5.0203254 13.890703 4.9882427 14.029297 4.9882812 z "/>
</svg>
