<?xml version="1.0" encoding="UTF-8" standalone="no"?>
<svg xmlns="http://www.w3.org/2000/svg" xmlns:svg="http://www.w3.org/2000/svg" width="24" height="24" viewBox="0 0 24 24" fill="currentColor" tags="logo" categories="gaming">
  <path d="M 15.984375 0.88476562 C 14.303577 0.87702928 12.535255 1.5506816 11.042969 3.0429688 L 4.8789062 9.2070312 C 4.3165309 9.7692368 4.0001698 10.532926 4 11.328125 L 4 18 C 4 18.177507 4.0274772 18.349047 4.0722656 18.513672 L 1.2929688 21.292969 A 1 1 0 0 0 1.2929688 22.707031 A 1 1 0 0 0 2.7070312 22.707031 L 5.4863281 19.927734 C 5.6509532 19.972523 5.8224935 20 6 20 L 12.669922 20 C 13.466588 19.999831 14.232475 19.681396 14.794922 19.117188 L 18.158203 15.744141 A 1 1 0 0 0 18.246094 15.65625 L 20.947266 12.947266 L 20.947266 12.945312 C 22.538129 11.35384 23.200313 9.4502262 23.095703 7.671875 C 22.991066 5.8930554 22.165647 4.261351 20.947266 3.0429688 C 19.728883 1.8245864 18.09718 0.99916809 16.318359 0.89453125 C 16.207183 0.88799145 16.096428 0.88528138 15.984375 0.88476562 z M 15.738281 2.8867188 C 15.893169 2.8802647 16.047666 2.8815952 16.201172 2.890625 C 17.429221 2.9628639 18.62909 3.5529179 19.533203 4.4570312 C 20.437316 5.3611447 21.027371 6.5610138 21.099609 7.7890625 C 21.171849 9.0171112 20.771424 10.294983 19.533203 11.533203 A 1.0001 1.0001 0 0 0 19.53125 11.533203 L 17.072266 14 L 11.414062 14 L 16.707031 8.7070312 A 1 1 0 0 0 16.707031 7.2929688 A 1 1 0 0 0 15.292969 7.2929688 L 8.2929688 14.292969 L 6 16.585938 L 6 11.328125 C 6.0000567 11.062546 6.1051482 10.808858 6.2929688 10.621094 L 12.457031 4.4570312 C 13.540474 3.3735887 14.654064 2.9318969 15.738281 2.8867188 z M 9.4140625 16 L 15.078125 16 L 13.376953 17.705078 C 13.189153 17.893514 12.935994 17.999944 12.669922 18 L 7.4140625 18 L 9.4140625 16 z "/>
</svg>
