<?xml version="1.0" encoding="UTF-8" standalone="no"?>
<svg xmlns="http://www.w3.org/2000/svg" xmlns:svg="http://www.w3.org/2000/svg" width="24" height="24" viewBox="0 0 24 24" fill="currentColor" tags="logo" categories="gaming">
  <path d="M 15.984375 0.88476562 C 14.303577 0.87702928 12.535255 1.5506816 11.042969 3.0429688 L 4.2929688 9.7929688 A 1.0001 1.0001 0 0 0 4 10.5 L 4 18.585938 L 1.2929688 21.292969 A 1 1 0 0 0 1.2929688 22.707031 A 1 1 0 0 0 2.7070312 22.707031 L 5.4140625 20 L 13.5 20 A 1.0001 1.0001 0 0 0 14.208984 19.707031 L 18.162109 15.742188 A 1 1 0 0 0 18.242188 15.660156 L 20.947266 12.947266 C 22.539038 11.355492 23.20034 9.4506946 23.095703 7.671875 C 22.991066 5.8930554 22.165647 4.261351 20.947266 3.0429688 C 19.728883 1.8245864 18.09718 0.99916809 16.318359 0.89453125 C 16.207183 0.88799145 16.096428 0.88528138 15.984375 0.88476562 z M 15.738281 2.8867188 C 15.893169 2.8802647 16.047666 2.8815952 16.201172 2.890625 C 17.429221 2.9628639 18.62909 3.5529179 19.533203 4.4570312 C 20.437316 5.3611447 21.027371 6.5610138 21.099609 7.7890625 C 21.171849 9.0171112 20.771424 10.294983 19.533203 11.533203 A 1.0001 1.0001 0 0 0 19.53125 11.533203 L 17.072266 14 L 11.414062 14 L 16.707031 8.7070312 A 1 1 0 0 0 16.707031 7.2929688 A 1 1 0 0 0 15.292969 7.2929688 L 8.2929688 14.292969 L 6 16.585938 L 6 10.914062 L 12.457031 4.4570312 C 13.540474 3.3735887 14.654064 2.9318969 15.738281 2.8867188 z M 9.4140625 16 L 15.078125 16 L 13.083984 18 L 7.4140625 18 L 9.4140625 16 z "/>
</svg>
