<?xml version="1.0" encoding="UTF-8" standalone="no"?>
<svg xmlns="http://www.w3.org/2000/svg" xmlns:svg="http://www.w3.org/2000/svg" width="24" height="24" viewBox="0 0 24 24" fill="currentColor" tags="picket,panels,woodwork,diy,materials,suburban,garden,property,territory" categories="home,buildings">
  
  <path d="M 4 2 A 1.0001 1.0001 0 0 0 3.2929688 2.2929688 L 1.2929688 4.2929688 A 1.0001 1.0001 0 0 0 1 5 L 1 20 C 1 20.522221 1.1913296 21.05461 1.5683594 21.431641 C 1.9453891 21.80867 2.4777788 22 3 22 L 5 22 C 5.5222212 22 6.0546109 21.80867 6.4316406 21.431641 C 6.8086704 21.05461 7 20.522221 7 20 L 7 19 L 9 19 L 9 20 C 9 20.522221 9.1913296 21.05461 9.5683594 21.431641 C 9.9453891 21.80867 10.477779 22 11 22 L 13 22 C 13.522221 22 14.05461 21.80867 14.431641 21.431641 C 14.80867 21.05461 15 20.522221 15 20 L 15 19 L 17 19 L 17 20 C 17 20.522221 17.19133 21.05461 17.568359 21.431641 C 17.94539 21.80867 18.477779 22 19 22 L 21 22 C 21.522221 22 22.05461 21.80867 22.431641 21.431641 C 22.80867 21.05461 23 20.522221 23 20 L 23 5 A 1.0001 1.0001 0 0 0 22.707031 4.2929688 L 20.707031 2.2929688 A 1.0001 1.0001 0 0 0 19.292969 2.2929688 L 17.292969 4.2929688 A 1.0001 1.0001 0 0 0 17 5 L 17 7 L 15 7 L 15 5 A 1.0001 1.0001 0 0 0 14.707031 4.2929688 L 12.707031 2.2929688 A 1.0001 1.0001 0 0 0 11.292969 2.2929688 L 9.2929688 4.2929688 A 1.0001 1.0001 0 0 0 9 5 L 9 7 L 7 7 L 7 5 A 1.0001 1.0001 0 0 0 6.7070312 4.2929688 L 4.7070312 2.2929688 A 1.0001 1.0001 0 0 0 4 2 z M 4 4.4140625 L 5 5.4140625 L 5 20 L 3 20 L 3 5.4140625 L 4 4.4140625 z M 12 4.4140625 L 13 5.4140625 L 13 20 L 11 20 L 11 5.4140625 L 12 4.4140625 z M 20 4.4140625 L 21 5.4140625 L 21 20 L 19 20 L 19 18 L 19 8 L 19 5.4140625 L 20 4.4140625 z M 7 9 L 9 9 L 9 17 L 7 17 L 7 9 z M 15 9 L 17 9 L 17 17 L 15 17 L 15 9 z "/>
</svg>
