<svg xmlns="http://www.w3.org/2000/svg" xmlns:svg="http://www.w3.org/2000/svg" width="24" height="24" viewBox="0 0 24 24" fill="currentColor" tags="big wheel,daisy wheel,observation,attraction,entertainment,amusement park,theme park,funfair" categories="navigation">
  <path d="M 12 1 A 1 1 0 0 0 11 2 L 11 2.0390625 C 7.9261918 2.330214 5.4368225 3.952099 3.8632812 6.1699219 L 3.796875 6.1308594 A 1 1 0 0 0 2.4316406 6.5039062 A 1 1 0 0 0 2.8046875 7.8691406 L 2.8710938 7.9082031 C 2.7950687 8.0783893 2.7246399 8.2499267 2.6582031 8.4238281 C 1.7375478 10.833687 1.7344674 13.614968 2.859375 16.099609 L 2.8046875 16.130859 A 1 1 0 0 0 2.4316406 17.496094 A 1 1 0 0 0 3.796875 17.869141 L 3.8671875 17.828125 C 4.2828324 18.398298 4.7705631 18.941373 5.3339844 19.445312 A 1 1 0 0 0 6.7460938 19.367188 A 1 1 0 0 0 6.6660156 17.955078 C 6.2680075 17.59909 5.9166193 17.223362 5.6113281 16.832031 L 7.296875 15.869141 A 1 1 0 0 0 7.6679688 14.503906 A 1 1 0 0 0 7.0625 14.035156 A 1 1 0 0 0 6.3046875 14.130859 L 4.5898438 15.111328 C 3.7553406 13.167392 3.8031489 11.032333 4.5273438 9.1367188 C 4.5568952 9.0593664 4.5873886 8.9826572 4.6191406 8.90625 L 6.3046875 9.8691406 A 1 1 0 0 0 7.6679688 9.4960938 A 1 1 0 0 0 7.296875 8.1308594 L 5.6015625 7.1621094 C 6.8164675 5.5107305 8.6622567 4.3154841 11 4.0488281 L 11 6 A 1 1 0 0 0 12 7 A 1 1 0 0 0 13 6 L 13 4.0488281 C 15.337743 4.3154841 17.183533 5.5107305 18.398438 7.1621094 L 16.703125 8.1308594 A 1 1 0 0 0 16.332031 9.4960938 A 1 1 0 0 0 17.695312 9.8691406 L 19.380859 8.90625 C 19.412611 8.9826572 19.443105 9.0593663 19.472656 9.1367188 C 20.196852 11.032334 20.24466 13.167391 19.410156 15.111328 L 17.695312 14.130859 A 1 1 0 0 0 16.332031 14.503906 A 1 1 0 0 0 16.703125 15.869141 L 18.388672 16.832031 C 18.083381 17.223363 17.731993 17.599089 17.333984 17.955078 A 1 1 0 0 0 17.253906 19.367188 A 1 1 0 0 0 18.666016 19.445312 C 19.229437 18.941372 19.717167 18.398299 20.132812 17.828125 L 20.203125 17.869141 A 1 1 0 0 0 21.568359 17.496094 A 1 1 0 0 0 21.195312 16.130859 L 21.140625 16.099609 C 22.265534 13.614966 22.262452 10.833688 21.341797 8.4238281 C 21.27536 8.2499266 21.204931 8.0783894 21.128906 7.9082031 L 21.195312 7.8691406 A 1 1 0 0 0 21.568359 6.5039062 A 1 1 0 0 0 20.203125 6.1308594 L 20.136719 6.1699219 C 18.563178 3.952099 16.073808 2.330214 13 2.0390625 L 13 2 A 1 1 0 0 0 12 1 z M 12 9 C 10.35499 9 9 10.35499 9 12 C 9 13.170647 9.6852309 14.194404 10.673828 14.6875 L 8.3066406 21 L 8 21 A 1 1 0 0 0 7 22 A 1 1 0 0 0 8 23 L 16 23 A 1 1 0 0 0 17 22 A 1 1 0 0 0 16 21 L 15.693359 21 L 13.326172 14.6875 C 14.314769 14.194404 15 13.170647 15 12 C 15 10.35499 13.64501 9 12 9 z M 12 11 C 12.564129 11 13 11.435871 13 12 C 13 12.564129 12.564129 13 12 13 C 11.435871 13 11 12.564129 11 12 C 11 11.435871 11.435871 11 12 11 z M 12 16.845703 L 13.558594 21 L 10.441406 21 L 12 16.845703 z "/>
</svg>
