<?xml version="1.0" encoding="UTF-8" standalone="no"?>
<svg xmlns="http://www.w3.org/2000/svg" xmlns:svg="http://www.w3.org/2000/svg" width="24" height="24" viewBox="0 0 24 24" fill="currentColor" tags="big wheel,daisy wheel,observation,attraction,entertainment,amusement park,theme park,funfair" categories="maps">
  
  <path d="M 12 1 A 1 1 0 0 0 11 2 L 11 2.0410156 C 7.9268098 2.3323557 5.4425606 3.9545133 3.8691406 6.171875 L 3.796875 6.1308594 A 1 1 0 0 0 2.4316406 6.5039062 A 1 1 0 0 0 2.8046875 7.8691406 L 2.8769531 7.9101562 C 2.8009307 8.0803373 2.7246378 8.2499321 2.6582031 8.4238281 C 1.7375196 10.833761 1.7363118 13.614908 2.8613281 16.099609 L 2.8046875 16.130859 A 1 1 0 0 0 2.4316406 17.496094 A 1 1 0 0 0 3.796875 17.869141 L 3.8671875 17.828125 C 4.2830227 18.398739 4.7701672 18.941019 5.3339844 19.445312 A 1 1 0 0 0 6.7460938 19.367188 A 1 1 0 0 0 6.6660156 17.955078 C 6.2680471 17.599125 5.9224572 17.221367 5.6171875 16.830078 L 7.296875 15.869141 A 1 1 0 0 0 7.6679688 14.503906 A 1 1 0 0 0 7.0625 14.035156 A 1 1 0 0 0 6.3046875 14.130859 L 4.5957031 15.107422 C 3.7619527 13.16394 3.8033599 11.031781 4.5273438 9.1367188 C 4.5568173 9.0595703 4.5913843 8.9844114 4.6230469 8.9082031 L 6.3046875 9.8691406 A 1 1 0 0 0 7.6679688 9.4960938 A 1 1 0 0 0 7.296875 8.1308594 L 5.6035156 7.1640625 C 6.8179275 5.513093 8.6633611 4.3220091 11 4.0546875 L 11 6 A 1 1 0 0 0 12 7 A 1 1 0 0 0 13 6 L 13 4.0546875 C 15.336639 4.3220091 17.182073 5.513093 18.396484 7.1640625 L 16.703125 8.1308594 A 1 1 0 0 0 16.332031 9.4960938 A 1 1 0 0 0 17.695312 9.8691406 L 19.376953 8.9082031 C 19.408616 8.9844114 19.443183 9.0595703 19.472656 9.1367188 C 20.196641 11.031781 20.238047 13.163939 19.404297 15.107422 L 17.695312 14.130859 A 1 1 0 0 0 16.332031 14.503906 A 1 1 0 0 0 16.703125 15.869141 L 18.382812 16.830078 C 18.077543 17.221368 17.731953 17.599124 17.333984 17.955078 A 1 1 0 0 0 17.253906 19.367188 A 1 1 0 0 0 18.666016 19.445312 C 19.229833 18.941018 19.716977 18.398739 20.132812 17.828125 L 20.203125 17.869141 A 1 1 0 0 0 21.568359 17.496094 A 1 1 0 0 0 21.195312 16.130859 L 21.138672 16.099609 C 22.263689 13.614906 22.262481 10.833761 21.341797 8.4238281 C 21.275362 8.2499321 21.199069 8.0803373 21.123047 7.9101562 L 21.195312 7.8691406 A 1 1 0 0 0 21.568359 6.5039062 A 1 1 0 0 0 20.203125 6.1308594 L 20.130859 6.171875 C 18.557439 3.9545133 16.07319 2.3323557 13 2.0410156 L 13 2 A 1 1 0 0 0 12 1 z M 12 9 C 10.354994 9 9 10.354994 9 12 C 9 13.170579 9.6872755 14.192419 10.675781 14.685547 L 8.3085938 21 L 8 21 A 1 1 0 0 0 7 22 A 1 1 0 0 0 8 23 L 16 23 A 1 1 0 0 0 17 22 A 1 1 0 0 0 16 21 L 15.691406 21 L 13.324219 14.685547 C 14.312725 14.192419 15 13.170579 15 12 C 15 10.354994 13.645006 9 12 9 z M 12 11 C 12.564128 11 13 11.435872 13 12 C 13 12.564128 12.564128 13 12 13 C 11.435872 13 11 12.564128 11 12 C 11 11.435872 11.435872 11 12 11 z M 12 16.845703 L 13.558594 21 L 10.441406 21 L 12 16.845703 z "/>
</svg>
