<svg xmlns="http://www.w3.org/2000/svg" xmlns:svg="http://www.w3.org/2000/svg" width="24" height="24" viewBox="0 0 24 24" fill="currentColor" tags="logo,design,tool" categories="brands,design">
  <path d="M 8.5 1 C 6.0265633 1 4 3.0265633 4 5.5 C 4 6.9090284 4.6583616 8.1730387 5.6816406 9 C 4.6583616 9.8269612 4 11.090971 4 12.5 C 4 13.909029 4.6583616 15.173039 5.6816406 16 C 4.6583616 16.826961 4 18.090971 4 19.5 C 4 20.916666 4.5672556 22.106441 5.4296875 22.873047 C 6.2921194 23.639653 7.4027779 24 8.5 24 C 9.5972221 24 10.707881 23.639653 11.570312 22.873047 C 12.432743 22.106441 13 20.916666 13 19.5 L 13 16.300781 C 13.755345 16.774673 14.631878 17 15.5 17 C 16.597222 17 17.707881 16.639653 18.570312 15.873047 C 19.432744 15.106441 20 13.916666 20 12.5 C 20 11.083334 19.432744 9.8935589 18.570312 9.1269531 C 18.522107 9.0841035 18.473539 9.0422722 18.423828 9.0019531 C 18.586434 8.8684161 18.736269 8.7241881 18.873047 8.5703125 C 19.639653 7.7078806 20 6.5972221 20 5.5 C 20 4.4027779 19.639653 3.2921194 18.873047 2.4296875 C 18.106441 1.5672556 16.916666 1 15.5 1 L 12 1 L 8.5 1 z M 8.5 3 L 11 3 L 11 8 L 8.5 8 C 7.1074435 8 6 6.8925565 6 5.5 C 6 4.1074435 7.1074435 3 8.5 3 z M 13 3 L 15.5 3 C 16.416666 3 16.976893 3.3077444 17.376953 3.7578125 C 17.777013 4.2078806 18 4.8472221 18 5.5 C 18 6.1527779 17.777013 6.7921194 17.376953 7.2421875 C 16.976893 7.6922556 16.416666 8 15.5 8 L 13 8 L 13 3 z M 8.5 10 L 11 10 L 11 12.5 L 11 15 L 8.5 15 C 7.1074435 15 6 13.892557 6 12.5 C 6 11.107443 7.1074435 10 8.5 10 z M 15.5 10 C 16.152778 10 16.792119 10.222987 17.242188 10.623047 C 17.692256 11.023107 18 11.583334 18 12.5 C 18 13.416666 17.692256 13.976893 17.242188 14.376953 C 16.792119 14.777013 16.152778 15 15.5 15 C 14.847222 15 14.20788 14.777013 13.757812 14.376953 C 13.307743 13.976893 13 13.416666 13 12.5 C 13 11.583334 13.307744 11.023107 13.757812 10.623047 C 14.20788 10.222987 14.847222 10 15.5 10 z M 8.5 17 L 11 17 L 11 19.5 C 11 20.416666 10.692256 20.976893 10.242188 21.376953 C 9.7921189 21.777013 9.1527779 22 8.5 22 C 7.8472221 22 7.2078806 21.777013 6.7578125 21.376953 C 6.3077444 20.976893 6 20.416666 6 19.5 C 6 18.107443 7.1074435 17 8.5 17 z "/>
</svg>
