<?xml version="1.0" encoding="UTF-8" standalone="no"?>
<svg xmlns="http://www.w3.org/2000/svg" xmlns:svg="http://www.w3.org/2000/svg" width="24" height="24" viewBox="0 0 24 24" fill="currentColor" tags="logo,design,tool" categories="brands,design">
  <path d="M 8.5 1 C 6.0265682 1 4 3.0265682 4 5.5 C 4 6.9092329 4.6581044 8.1730461 5.6816406 9 C 4.6581044 9.8269539 4 11.090767 4 12.5 C 4 13.909233 4.6581044 15.173046 5.6816406 16 C 4.6581044 16.826954 4 18.090767 4 19.5 C 4 20.916664 4.5672574 22.106443 5.4296875 22.873047 C 6.2921176 23.639651 7.4027801 24 8.5 24 C 9.5972199 24 10.707881 23.639651 11.570312 22.873047 C 12.432743 22.106443 13 20.916664 13 19.5 L 13 16.298828 C 13.755541 16.773092 14.631547 17 15.5 17 C 16.59722 17 17.707882 16.639651 18.570312 15.873047 C 19.432744 15.106443 20 13.916664 20 12.5 C 20 11.083336 19.432744 9.8935575 18.570312 9.1269531 C 18.521994 9.0840031 18.473659 9.0423608 18.423828 9.0019531 C 18.586117 8.868605 18.7365 8.7239278 18.873047 8.5703125 C 19.639651 7.7078824 20 6.5972199 20 5.5 C 20 4.4027801 19.639651 3.2921176 18.873047 2.4296875 C 18.106443 1.5672574 16.916664 1 15.5 1 L 12 1 L 8.5 1 z M 8.5 3 L 11 3 L 11 8 L 8.5 8 C 7.1074463 8 6 6.8925537 6 5.5 C 6 4.1074463 7.1074463 3 8.5 3 z M 13 3 L 15.5 3 C 16.416664 3 16.976894 3.3077454 17.376953 3.7578125 C 17.777013 4.2078796 18 4.8472235 18 5.5 C 18 6.1527765 17.777013 6.7921204 17.376953 7.2421875 C 16.976894 7.6922546 16.416664 8 15.5 8 L 13 8 L 13 3 z M 8.5 10 L 11 10 L 11 12.5 L 11 15 L 8.5 15 C 7.1074463 15 6 13.892554 6 12.5 C 6 11.107446 7.1074463 10 8.5 10 z M 15.5 10 C 16.152776 10 16.792121 10.222987 17.242188 10.623047 C 17.692255 11.023106 18 11.583336 18 12.5 C 18 13.416664 17.692255 13.976894 17.242188 14.376953 C 16.792121 14.777013 16.152776 15 15.5 15 C 14.847224 15 14.207879 14.777013 13.757812 14.376953 C 13.307745 13.976894 13 13.416664 13 12.5 C 13 11.583336 13.307745 11.023106 13.757812 10.623047 C 14.207879 10.222987 14.847224 10 15.5 10 z M 8.5 17 L 11 17 L 11 19.5 C 11 20.416664 10.692254 20.976894 10.242188 21.376953 C 9.7921199 21.777013 9.1527765 22 8.5 22 C 7.8472235 22 7.2078796 21.777013 6.7578125 21.376953 C 6.3077454 20.976894 6 20.416664 6 19.5 C 6 18.107446 7.1074463 17 8.5 17 z "/>
</svg>
