<?xml version="1.0" encoding="UTF-8" standalone="no"?>
<svg xmlns="http://www.w3.org/2000/svg" xmlns:svg="http://www.w3.org/2000/svg" width="24" height="24" viewBox="0 0 24 24" fill="currentColor" tags="movie,video,film" categories="files">
  <path d="M 6 1 C 4.3549904 1 3 2.3549904 3 4 L 3 8 A 1 1 0 0 0 4 9 A 1 1 0 0 0 5 8 L 5 4 C 5 3.4358706 5.4358706 3 6 3 L 13 3 L 13 6 C 13 7.6450096 14.35499 9 16 9 L 19 9 L 19 20 C 19 20.564129 18.564129 21 18 21 L 4 21 A 1 1 0 0 0 3 22 A 1 1 0 0 0 4 23 L 18 23 C 19.64501 23 21 21.64501 21 20 L 21 7 A 1.0001 1.0001 0 0 0 20.707031 6.2929688 L 15.707031 1.2929688 A 1.0001 1.0001 0 0 0 15 1 L 6 1 z M 15 3.4140625 L 18.585938 7 L 16 7 C 15.435871 7 15 6.5641294 15 6 L 15 3.4140625 z M 3 11 C 1.9092972 11 1 11.909297 1 13 L 1 17 C 1 18.090703 1.9092972 19 3 19 L 9 19 C 9.9924016 19 10.834764 18.246332 10.978516 17.289062 L 13.470703 18.847656 A 1.0001 1.0001 0 0 0 15 18 L 15 12 A 1.0001 1.0001 0 0 0 14.484375 11.125 A 1.0001 1.0001 0 0 0 13.470703 11.152344 L 10.978516 12.710938 C 10.834762 11.753669 9.9924003 11 9 11 L 3 11 z M 3 13 L 9 13 L 9 17 L 3 17 L 3 13 z M 13 13.802734 L 13 16.197266 L 11.085938 15 L 13 13.802734 z "/>
</svg>
