<?xml version="1.0" encoding="UTF-8" standalone="no"?>
<svg xmlns="http://www.w3.org/2000/svg" xmlns:svg="http://www.w3.org/2000/svg" width="24" height="24" viewBox="0 0 24 24" fill="currentColor" tags="versions,multiple,copy,documents,revisions,version control,history" categories="files,development">
  <path d="M 12.5 1 C 11.116669 1 10 2.1166695 10 3.5 L 10 12.5 C 10 13.883331 11.116669 15 12.5 15 L 19.5 15 C 20.883331 15 22 13.883331 22 12.5 L 22 6 A 1.0001 1.0001 0 0 0 21.707031 5.2929688 L 17.707031 1.2929688 A 1.0001 1.0001 0 0 0 17 1 L 12.5 1 z M 12.5 3 L 15 3 L 15 5 C 15 6.6450064 16.354994 8 18 8 L 20 8 L 20 12.5 C 20 12.716666 19.716666 13 19.5 13 L 12.5 13 C 12.283334 13 12 12.716666 12 12.5 L 12 3.5 C 12 3.2833337 12.283334 3 12.5 3 z M 17 3.4140625 L 19.585938 6 L 18 6 C 17.435872 6 17 5.5641282 17 5 L 17 3.4140625 z M 7 7 A 1 1 0 0 0 6 8 L 6 16.800781 C 6 17.545225 6.3755089 17.98879 6.6933594 18.306641 C 7.0112099 18.62449 7.4547757 19 8.1992188 19 L 15 19 A 1 1 0 0 0 16 18 A 1 1 0 0 0 15 17 L 8.1992188 17 C 8.3436629 17 8.1895688 16.97473 8.1074219 16.892578 C 8.0252733 16.810429 8 16.656337 8 16.800781 L 8 8 A 1 1 0 0 0 7 7 z M 3 11 A 1 1 0 0 0 2 12 L 2 20.800781 C 2 21.545225 2.3755089 21.98879 2.6933594 22.306641 C 3.0112099 22.62449 3.4547758 23 4.1992188 23 L 11 23 A 1 1 0 0 0 12 22 A 1 1 0 0 0 11 21 L 4.1992188 21 C 4.343663 21 4.1895688 20.97473 4.1074219 20.892578 C 4.0252734 20.810429 4 20.656337 4 20.800781 L 4 12 A 1 1 0 0 0 3 11 z "/>
</svg>
