<svg xmlns="http://www.w3.org/2000/svg" xmlns:svg="http://www.w3.org/2000/svg" width="24" height="24" viewBox="0 0 24 24" fill="currentColor" tags="lost,delete,remove,document" categories="files">
  <path d="M 6 1 C 4.3549904 1 3 2.3549904 3 4 L 3 20 C 3 21.64501 4.3549904 23 6 23 L 11 23 A 1 1 0 0 0 12 22 A 1 1 0 0 0 11 21 L 6 21 C 5.4358706 21 5 20.564129 5 20 L 5 4 C 5 3.4358706 5.4358706 3 6 3 L 13 3 L 13 7 C 13 8.0927249 13.907275 9 15 9 L 19 9 L 19 13 A 1 1 0 0 0 20 14 A 1 1 0 0 0 21 13 L 21 8.0019531 L 21 8 C 21.001701 7.0943483 20.641585 6.225212 20 5.5859375 L 16.414062 2 C 15.774788 1.3584154 14.905652 0.99829936 14 1 L 6 1 z M 15 3.4160156 L 18.583984 7 L 15 7 L 15 3.4160156 z M 15 16 A 1 1 0 0 0 14.292969 16.292969 A 1 1 0 0 0 14.292969 17.707031 L 16.085938 19.5 L 14.292969 21.292969 A 1 1 0 0 0 14.292969 22.707031 A 1 1 0 0 0 15.707031 22.707031 L 17.5 20.914062 L 19.292969 22.707031 A 1 1 0 0 0 20.707031 22.707031 A 1 1 0 0 0 20.707031 21.292969 L 18.914062 19.5 L 20.707031 17.707031 A 1 1 0 0 0 20.707031 16.292969 A 1 1 0 0 0 19.292969 16.292969 L 17.5 18.085938 L 15.707031 16.292969 A 1 1 0 0 0 15 16 z "/>
</svg>
