<?xml version="1.0" encoding="UTF-8" standalone="no"?>
<svg xmlns="http://www.w3.org/2000/svg" xmlns:svg="http://www.w3.org/2000/svg" width="24" height="24" viewBox="0 0 24 24" fill="currentColor" tags="versions,multiple,copy,documents,revisions,version control,history" categories="files,development">
  <path d="M 14 1 C 12.907275 1 12 1.9072751 12 3 L 12 11 C 12 12.092725 12.907275 13 14 13 L 20 13 C 21.092725 13 22 12.092725 22 11 L 22 6 C 21.99983 5.2047996 21.68347 4.4411128 21.121094 3.8789062 L 19.121094 1.8789062 C 18.558887 1.3165297 17.7952 1.0001698 17 1 L 14 1 z M 14 3 L 17 3 C 17.265579 3.0000567 17.519267 3.1051478 17.707031 3.2929688 L 19.707031 5.2929688 C 19.894852 5.480733 19.999943 5.7344212 20 6 L 20 11 L 14 11 L 14 3 z M 9 6 C 7.9072751 6 7 6.9072751 7 8 L 7 16 C 7 17.092725 7.9072751 18 9 18 L 15 18 C 16.092725 18 17 17.092725 17 16 A 1 1 0 0 0 16 15 A 1 1 0 0 0 15 16 L 9 16 L 9 8 A 1 1 0 0 0 10 7 A 1 1 0 0 0 9 6 z M 4 11 C 2.9072751 11 2 11.907275 2 13 L 2 21 C 2 22.092725 2.9072751 23 4 23 L 10 23 C 11.092725 23 12 22.092725 12 21 A 1 1 0 0 0 11 20 A 1 1 0 0 0 10 21 L 4 21 L 4 13 A 1 1 0 0 0 5 12 A 1 1 0 0 0 4 11 z "/>
</svg>
