<?xml version="1.0" encoding="UTF-8" standalone="no"?>
<svg xmlns="http://www.w3.org/2000/svg" xmlns:svg="http://www.w3.org/2000/svg" width="24" height="24" viewBox="0 0 24 24" fill="currentColor" tags="symlink,symbolic,link" categories="files">
  <path d="M 6 1 C 4.3549904 1 3 2.3549904 3 4 L 3 11 A 1 1 0 0 0 4 12 A 1 1 0 0 0 5 11 L 5 4 C 5 3.4358706 5.4358706 3 6 3 L 13 3 L 13 6 C 13 7.6450096 14.35499 9 16 9 L 19 9 L 19 20 C 19 20.564129 18.564129 21 18 21 L 6 21 C 5.4358706 21 5 20.564129 5 20 L 5 17 C 5 16.435871 5.4358706 16 6 16 L 10.585938 16 L 9.2929688 17.292969 A 1 1 0 0 0 9.2929688 18.707031 A 1 1 0 0 0 10.707031 18.707031 L 13.707031 15.707031 A 1.0001 1.0001 0 0 0 13.919922 15.388672 A 1.0001 1.0001 0 0 0 13.923828 15.382812 A 1 1 0 0 0 13.925781 15.376953 A 1.0001 1.0001 0 0 0 14 15 A 1.0001 1.0001 0 0 0 13.990234 14.869141 A 1 1 0 0 0 13.984375 14.830078 A 1 1 0 0 0 13.984375 14.826172 A 1.0001 1.0001 0 0 0 13.958984 14.720703 A 1 1 0 0 0 13.945312 14.677734 A 1.0001 1.0001 0 0 0 13.894531 14.554688 A 1.0001 1.0001 0 0 0 13.890625 14.546875 A 1 1 0 0 0 13.884766 14.537109 A 1.0001 1.0001 0 0 0 13.818359 14.425781 A 1.0001 1.0001 0 0 0 13.808594 14.412109 A 1 1 0 0 0 13.800781 14.402344 A 1.0001 1.0001 0 0 0 13.707031 14.292969 L 10.707031 11.292969 A 1 1 0 0 0 10 11 A 1 1 0 0 0 9.2929688 11.292969 A 1 1 0 0 0 9.2929688 12.707031 L 10.585938 14 L 6 14 C 4.3549904 14 3 15.35499 3 17 L 3 20 C 3 21.64501 4.3549904 23 6 23 L 18 23 C 19.64501 23 21 21.64501 21 20 L 21 8 L 21 7 A 1.0001 1.0001 0 0 0 20.707031 6.2929688 L 15.707031 1.2929688 A 1.0001 1.0001 0 0 0 15 1 L 14 1 L 6 1 z M 15 3.4140625 L 18.585938 7 L 16 7 C 15.435871 7 15 6.5641294 15 6 L 15 3.4140625 z "/>
</svg>
