<?xml version="1.0" encoding="UTF-8" standalone="no"?>
<svg
   width="24"
   height="24"
   viewBox="0 0 24 24"
   fill="none"
   stroke="currentColor"
   stroke-width="2"
   stroke-linecap="round"
   stroke-linejoin="round"
   version="1.1"
   id="svg3"
   xmlns="http://www.w3.org/2000/svg"
   xmlns:svg="http://www.w3.org/2000/svg">
  <defs
     id="defs3" />
  <path
     id="path1"
     style="color:#000000;fill:#000000;-inkscape-stroke:none"
     d="M 6 1 C 4.3549936 1 3 2.3549936 3 4 L 3 20 C 3 21.645006 4.3549936 23 6 23 L 18 23 C 19.645006 23 21 21.645006 21 20 L 21 19.5 A 1 1 0 0 0 20 18.5 A 1 1 0 0 0 19 19.5 L 19 20 C 19 20.564128 18.564128 21 18 21 L 6 21 C 5.4358718 21 5 20.564128 5 20 L 5 4 C 5 3.4358718 5.4358718 3 6 3 L 14.085938 3 L 17.292969 6.2070312 A 1 1 0 0 0 18.707031 6.2070312 A 1 1 0 0 0 18.707031 4.7929688 L 15.207031 1.2929688 A 1.0001 1.0001 0 0 0 14.5 1 L 6 1 z M 19.90625 7.9589844 C 19.147868 7.9571913 18.34268 8.2725545 17.712891 8.9023438 A 1.0001 1.0001 0 0 0 17.712891 8.9042969 L 13.28125 13.34375 A 1.0001 1.0001 0 0 0 13.019531 13.806641 L 12.029297 17.757812 A 1.0001 1.0001 0 0 0 13.246094 18.96875 L 17.195312 17.96875 A 1.0001 1.0001 0 0 0 17.65625 17.708984 L 22.095703 13.289062 A 1.0001 1.0001 0 0 0 22.097656 13.287109 C 22.769432 12.615334 23.084246 11.744682 23.037109 10.943359 C 22.989926 10.142084 22.62604 9.4307274 22.097656 8.9023438 C 21.569273 8.37396 20.857962 8.0100274 20.056641 7.9628906 C 20.006558 7.9599446 19.956809 7.9591039 19.90625 7.9589844 z M 19.845703 9.9570312 C 19.876968 9.9563454 19.908134 9.9571421 19.939453 9.9589844 C 20.190004 9.9737224 20.469479 10.102291 20.683594 10.316406 C 20.897709 10.530521 21.026277 10.809996 21.041016 11.060547 C 21.055726 11.310593 21.000115 11.553813 20.683594 11.871094 L 16.439453 16.097656 L 14.376953 16.621094 L 14.892578 14.560547 L 19.126953 10.316406 C 19.405398 10.037962 19.626852 9.9618323 19.845703 9.9570312 z M 8 17 A 1 1 0 0 0 7 18 A 1 1 0 0 0 8 19 L 9 19 A 1 1 0 0 0 10 18 A 1 1 0 0 0 9 17 L 8 17 z "
     stroke-width="0" />
</svg>
