<?xml version="1.0" encoding="UTF-8" standalone="no"?>
<svg xmlns="http://www.w3.org/2000/svg" xmlns:svg="http://www.w3.org/2000/svg" width="24" height="24" viewBox="0 0 24 24" fill="currentColor" tags="executable,settings,cog,edit,gear" categories="files">
  <path d="M 6 1 C 4.3549904 1 3 2.3549904 3 4 L 3 6.5 A 1 1 0 0 0 4 7.5 A 1 1 0 0 0 5 6.5 L 5 4 C 5 3.4358706 5.4358706 3 6 3 L 13 3 L 13 6 C 13 7.6450096 14.35499 9 16 9 L 19 9 L 19 20 C 19 20.564129 18.564129 21 18 21 L 5.9941406 21 C 5.7520293 20.9988 5.5194734 20.91015 5.3378906 20.75 A 1 1 0 0 0 3.9277344 20.837891 A 1 1 0 0 0 4.015625 22.25 C 4.5596369 22.729791 5.2590228 22.996408 5.984375 23 A 1.0001 1.0001 0 0 0 5.9902344 23 L 18 23 C 19.64501 23 21 21.64501 21 20 L 21 7 A 1.0001 1.0001 0 0 0 20.707031 6.2929688 L 15.707031 1.2929688 A 1.0001 1.0001 0 0 0 15 1 L 6 1 z M 15 3.4140625 L 18.585938 7 L 16 7 C 15.435871 7 15 6.5641294 15 6 L 15 3.4140625 z M 4.46875 9.3046875 A 1 1 0 0 0 4.0859375 9.3808594 A 1 1 0 0 0 3.5449219 10.6875 L 3.5957031 10.810547 C 3.2992594 11.03502 3.03502 11.299259 2.8105469 11.595703 L 2.6875 11.544922 A 1 1 0 0 0 1.3808594 12.085938 A 1 1 0 0 0 1.921875 13.392578 L 2.0390625 13.441406 C 2.0131528 13.624122 2 13.810512 2 14 C 2 14.188931 2.0133022 14.374439 2.0390625 14.556641 L 1.921875 14.605469 A 1 1 0 0 0 1.3808594 15.912109 A 1 1 0 0 0 2.6875 16.453125 L 2.8085938 16.402344 C 3.0332758 16.69931 3.2988292 16.964654 3.5957031 17.189453 L 3.5449219 17.3125 A 1 1 0 0 0 4.0859375 18.619141 A 1 1 0 0 0 5.3925781 18.078125 L 5.4414062 17.960938 C 5.6241221 17.986847 5.8105121 18 6 18 C 6.188931 18 6.3744392 17.986698 6.5566406 17.960938 L 6.6054688 18.078125 A 1 1 0 0 0 7.9121094 18.621094 A 1 1 0 0 0 8.4550781 17.314453 L 8.4042969 17.189453 C 8.70099 16.96488 8.9648246 16.700946 9.1894531 16.404297 L 9.3125 16.455078 A 1 1 0 0 0 10.619141 15.914062 A 1 1 0 0 0 10.078125 14.607422 L 9.9609375 14.558594 C 9.9868472 14.375878 10 14.189488 10 14 C 10 13.810512 9.9868472 13.624122 9.9609375 13.441406 L 10.078125 13.392578 A 1 1 0 0 0 10.619141 12.085938 A 1 1 0 0 0 9.3125 11.544922 L 9.1894531 11.595703 C 8.96498 11.299259 8.7007406 11.03502 8.4042969 10.810547 L 8.4550781 10.6875 A 1 1 0 0 0 7.9140625 9.3808594 A 1 1 0 0 0 6.6074219 9.921875 L 6.5585938 10.039062 C 6.3758779 10.013153 6.1894879 10 6 10 C 5.8105121 10 5.6241221 10.013153 5.4414062 10.039062 L 5.3925781 9.921875 A 1 1 0 0 0 4.46875 9.3046875 z M 6 12 C 6.2484067 12 6.4849406 12.044679 6.703125 12.125 A 1 1 0 0 0 6.765625 12.152344 A 1 1 0 0 0 6.8359375 12.179688 C 7.27285 12.37762 7.6223804 12.72715 7.8203125 13.164062 A 1 1 0 0 0 7.8476562 13.234375 A 1 1 0 0 0 7.875 13.296875 C 7.955321 13.51506 8 13.751593 8 14 C 8 14.248407 7.955321 14.48494 7.875 14.703125 A 1 1 0 0 0 7.8476562 14.765625 A 1 1 0 0 0 7.8203125 14.835938 C 7.6223088 15.273008 7.2730714 15.624372 6.8359375 15.822266 A 1 1 0 0 0 6.765625 15.847656 A 1 1 0 0 0 6.703125 15.875 C 6.4849406 15.955321 6.2484067 16 6 16 C 5.7515933 16 5.5150594 15.955321 5.296875 15.875 A 1 1 0 0 0 5.234375 15.847656 A 1 1 0 0 0 5.1640625 15.820312 C 4.7271495 15.62238 4.3776196 15.272851 4.1796875 14.835938 A 1 1 0 0 0 4.1523438 14.765625 A 1 1 0 0 0 4.125 14.703125 C 4.0446788 14.48494 4 14.248408 4 14 C 4 13.751592 4.0446788 13.51506 4.125 13.296875 A 1 1 0 0 0 4.1523438 13.234375 A 1 1 0 0 0 4.1796875 13.164062 C 4.3776195 12.727149 4.7271498 12.37762 5.1640625 12.179688 A 1 1 0 0 0 5.234375 12.152344 A 1 1 0 0 0 5.296875 12.125 C 5.5150594 12.044679 5.7515933 12 6 12 z "/>
</svg>
