<svg xmlns="http://www.w3.org/2000/svg" xmlns:svg="http://www.w3.org/2000/svg" width="24" height="24" viewBox="0 0 24 24" fill="currentColor" tags="movie,video,film" categories="files">
  <path d="M 6 1 C 4.3549904 1 3 2.3549904 3 4 L 3 12 A 1 1 0 0 0 4 13 A 1 1 0 0 0 5 12 L 5 4 C 5 3.4358706 5.4358706 3 6 3 L 13 3 L 13 7 C 13 8.0927249 13.907275 9 15 9 L 19 9 L 19 20 C 19 20.564129 18.564129 21 18 21 A 1 1 0 0 0 17 22 A 1 1 0 0 0 18 23 C 19.64501 23 21 21.64501 21 20 L 21 8.0019531 L 21 8 C 21.001701 7.0943483 20.641585 6.225212 20 5.5859375 L 16.414062 2 C 15.774788 1.3584154 14.905652 0.99829936 14 1 L 6 1 z M 15 3.4160156 L 18.583984 7 L 15 7 L 15 3.4160156 z M 4 15 C 2.9092972 15 2 15.909297 2 17 L 2 21 C 2 22.090703 2.9092972 23 4 23 L 9 23 C 9.8098991 23 10.520194 22.497684 10.832031 21.792969 L 12.53125 22.777344 A 1.0001 1.0001 0 0 0 12.544922 22.785156 C 13.597896 23.373493 14.986201 22.569385 15 21.363281 A 1.0001 1.0001 0 0 0 15 21.351562 L 15 16.664062 C 15.01904 15.432382 13.580298 14.598982 12.521484 15.228516 L 10.832031 16.207031 C 10.520211 15.502278 9.8099271 15 9 15 L 4 15 z M 4 17 L 9 17 L 9 17.84375 L 9 20.15625 L 9 21 L 4 21 L 4 17 z M 13 17.261719 L 13 20.738281 L 11 19.580078 L 11 18.419922 L 13 17.261719 z "/>
</svg>
