<svg xmlns="http://www.w3.org/2000/svg" xmlns:svg="http://www.w3.org/2000/svg" width="24" height="24" viewBox="0 0 24 24" fill="currentColor" tags="hidden,warning,alert,danger,protected,exclamation mark" categories="files,notifications">
  <path d="M 6 1 C 4.3549904 1 3 2.3549904 3 4 L 3 20 C 3 21.64501 4.3549904 23 6 23 L 18 23 C 19.64501 23 21 21.64501 21 20 L 21 8.0019531 L 21 8 C 21.000952 7.0939406 20.638716 6.2227923 19.996094 5.5839844 L 16.412109 2 L 16.410156 1.9980469 C 15.771801 1.3583784 14.903751 0.99905439 14 1 L 6 1 z M 6 3 L 14 3 A 1.0001 1.0001 0 0 0 14.001953 3 C 14.375309 2.9993949 14.732567 3.1476317 14.996094 3.4121094 A 1.0001 1.0001 0 0 0 14.996094 3.4140625 L 18.583984 7.0019531 A 1.0001 1.0001 0 0 0 18.587891 7.0039062 C 18.853046 7.2675338 19.000608 7.6241159 19 7.9980469 A 1.0001 1.0001 0 0 0 19 8 L 19 20 C 19 20.564129 18.564129 21 18 21 L 6 21 C 5.4358706 21 5 20.564129 5 20 L 5 4 C 5 3.4358706 5.4358706 3 6 3 z M 12 8 A 1 1 0 0 0 11 9 L 11 13 A 1 1 0 0 0 12 14 A 1 1 0 0 0 13 13 L 13 9 A 1 1 0 0 0 12 8 z M 12 16 A 1 1 0 0 0 11 17 A 1 1 0 0 0 12 18 L 12.009766 18 A 1 1 0 0 0 13.009766 17 A 1 1 0 0 0 12.009766 16 L 12 16 z "/>
</svg>
