<?xml version="1.0" encoding="UTF-8" standalone="no"?>
<svg xmlns="http://www.w3.org/2000/svg" xmlns:svg="http://www.w3.org/2000/svg" width="24" height="24" viewBox="0 0 24 24" fill="currentColor" tags="multiple,copy,documents" categories="files">
  
  <path d="M 9 1 C 7.3549936 1 6 2.3549936 6 4 L 6 16 C 6 17.645006 7.3549936 19 9 19 L 18 19 C 19.645006 19 21 17.645006 21 16 L 21 6 A 1.0001 1.0001 0 0 0 20.707031 5.2929688 L 16.707031 1.2929688 A 1.0001 1.0001 0 0 0 16 1 L 9 1 z M 9 3 L 14 3 L 14 5 C 14 6.6450064 15.354994 8 17 8 L 19 8 L 19 16 C 19 16.564128 18.564128 17 18 17 L 9 17 C 8.4358718 17 8 16.564128 8 16 L 8 4 C 8 3.4358718 8.4358718 3 9 3 z M 16 3.4140625 L 18.585938 6 L 17 6 C 16.435872 6 16 5.5641282 16 5 L 16 3.4140625 z M 3 6.5996094 A 1 1 0 0 0 2 7.5996094 L 2 20.400391 C 2 21.824483 3.1755165 23 4.5996094 23 L 14.400391 23 A 1 1 0 0 0 15.400391 22 A 1 1 0 0 0 14.400391 21 L 4.5996094 21 C 4.2563945 21 4 20.743605 4 20.400391 L 4 7.5996094 A 1 1 0 0 0 3 6.5996094 z "/>
</svg>
