<svg xmlns="http://www.w3.org/2000/svg" xmlns:svg="http://www.w3.org/2000/svg" width="24" height="24" viewBox="0 0 24 24" fill="currentColor" tags="executable,settings,cog,edit,gear" categories="files">
  <path d="M 6 1 C 4.3549904 1 3 2.3549904 3 4 L 3 10.599609 A 1 1 0 0 0 4 11.599609 A 1 1 0 0 0 5 10.599609 L 5 4 C 5 3.4358706 5.4358706 3 6 3 L 13 3 L 13 7 C 13 8.0927249 13.907275 9 15 9 L 19 9 L 19 20 C 19 20.564129 18.564129 21 18 21 L 13.849609 21 A 1 1 0 0 0 12.849609 22 A 1 1 0 0 0 13.849609 23 L 18 23 C 19.64501 23 21 21.64501 21 20 L 21 8 A 1 1 0 0 0 20.992188 7.8691406 C 20.959152 7.1217621 20.652329 6.4099818 20.121094 5.8789062 L 16.121094 1.8789062 C 15.590018 1.3476701 14.878238 1.0408474 14.130859 1.0078125 A 1 1 0 0 0 14 1 L 6 1 z M 15 3.5859375 L 18.414062 7 L 15 7 L 15 3.5859375 z M 5.46875 13.304688 A 1 1 0 0 0 5.0859375 13.380859 A 1 1 0 0 0 4.5449219 14.6875 L 4.5957031 14.810547 C 4.2992594 15.03502 4.03502 15.299259 3.8105469 15.595703 L 3.6875 15.544922 A 1 1 0 0 0 2.3808594 16.085938 A 1 1 0 0 0 2.921875 17.392578 L 3.0390625 17.441406 C 3.0131528 17.624122 3 17.810512 3 18 C 3 18.188931 3.0133022 18.374439 3.0390625 18.556641 L 2.921875 18.605469 A 1 1 0 0 0 2.3808594 19.912109 A 1 1 0 0 0 3.6875 20.453125 L 3.8085938 20.402344 C 4.0332758 20.69931 4.2988292 20.964654 4.5957031 21.189453 L 4.5449219 21.3125 A 1 1 0 0 0 5.0859375 22.619141 A 1 1 0 0 0 6.3925781 22.078125 L 6.4414062 21.960938 C 6.6241221 21.986847 6.8105121 22 7 22 C 7.188931 22 7.3744392 21.986698 7.5566406 21.960938 L 7.6054688 22.078125 A 1 1 0 0 0 8.9121094 22.621094 A 1 1 0 0 0 9.4550781 21.314453 L 9.4042969 21.189453 C 9.7008116 20.965015 9.9649113 20.700729 10.189453 20.404297 L 10.310547 20.455078 A 1 1 0 0 0 11.619141 19.914062 A 1 1 0 0 0 11.078125 18.607422 L 10.960938 18.558594 C 10.986838 18.375909 11 18.189454 11 18 C 11 17.810546 10.986838 17.624091 10.960938 17.441406 L 11.078125 17.392578 A 1 1 0 0 0 11.619141 16.085938 A 1 1 0 0 0 10.310547 15.544922 L 10.189453 15.595703 C 9.9650668 15.299476 9.7005622 15.034885 9.4042969 14.810547 L 9.4550781 14.6875 A 1 1 0 0 0 8.9140625 13.380859 A 1 1 0 0 0 7.6074219 13.921875 L 7.5585938 14.039062 C 7.3758779 14.013153 7.1894879 14 7 14 C 6.8105121 14 6.6241221 14.013153 6.4414062 14.039062 L 6.3925781 13.921875 A 1 1 0 0 0 5.46875 13.304688 z M 7 16 C 7.2484067 16 7.4849406 16.044679 7.703125 16.125 A 1 1 0 0 0 7.765625 16.152344 A 1 1 0 0 0 7.8359375 16.179688 C 8.2760277 16.379059 8.6290266 16.730509 8.8261719 17.171875 A 1 1 0 0 0 8.8496094 17.236328 A 1 1 0 0 0 8.8730469 17.287109 C 8.9555891 17.507885 9 17.74802 9 18 C 9 18.25198 8.9555891 18.492115 8.8730469 18.712891 A 1 1 0 0 0 8.8496094 18.763672 A 1 1 0 0 0 8.8261719 18.828125 C 8.6289557 19.269649 8.2762496 19.622933 7.8359375 19.822266 A 1 1 0 0 0 7.765625 19.847656 A 1 1 0 0 0 7.703125 19.875 C 7.4849406 19.955321 7.2484067 20 7 20 C 6.7515933 20 6.5150594 19.955321 6.296875 19.875 A 1 1 0 0 0 6.234375 19.847656 A 1 1 0 0 0 6.1640625 19.820312 C 5.7271498 19.62238 5.3776195 19.272851 5.1796875 18.835938 A 1 1 0 0 0 5.1523438 18.765625 A 1 1 0 0 0 5.125 18.703125 C 5.0446788 18.48494 5 18.248408 5 18 C 5 17.751592 5.0446788 17.51506 5.125 17.296875 A 1 1 0 0 0 5.1523438 17.234375 A 1 1 0 0 0 5.1796875 17.164062 C 5.3776195 16.727149 5.7271498 16.37762 6.1640625 16.179688 A 1 1 0 0 0 6.234375 16.152344 A 1 1 0 0 0 6.296875 16.125 C 6.5150594 16.044679 6.7515933 16 7 16 z "/>
</svg>
