<svg xmlns="http://www.w3.org/2000/svg" xmlns:svg="http://www.w3.org/2000/svg" width="24" height="24" viewBox="0 0 24 24" fill="currentColor" tags="add,create,new,document" categories="files">
  <path d="M 6 1 C 4.3549904 1 3 2.3549904 3 4 L 3 20 C 3 21.64501 4.3549904 23 6 23 L 11.349609 23 A 1 1 0 0 0 12.349609 22 A 1 1 0 0 0 11.349609 21 L 6 21 C 5.4358706 21 5 20.564129 5 20 L 5 4 C 5 3.4358706 5.4358706 3 6 3 L 13 3 L 13 7 C 13 8.0927249 13.907275 9 15 9 L 19 9 L 19 13.349609 A 1 1 0 0 0 20 14.349609 A 1 1 0 0 0 21 13.349609 L 21 8.0019531 L 21 8 C 21.001701 7.0943483 20.641585 6.225212 20 5.5859375 L 16.414062 2 C 15.774788 1.3584154 14.905652 0.99829936 14 1 L 6 1 z M 15 3.4160156 L 18.583984 7 L 15 7 L 15 3.4160156 z M 17 15 A 1 1 0 0 0 16 16 L 16 18 L 14 18 A 1 1 0 0 0 13 19 A 1 1 0 0 0 14 20 L 16 20 L 16 22 A 1 1 0 0 0 17 23 A 1 1 0 0 0 18 22 L 18 20 L 20 20 A 1 1 0 0 0 21 19 A 1 1 0 0 0 20 18 L 18 18 L 18 16 A 1 1 0 0 0 17 15 z "/>
</svg>
