<svg xmlns="http://www.w3.org/2000/svg" xmlns:svg="http://www.w3.org/2000/svg" width="24" height="24" viewBox="0 0 24 24" fill="currentColor" tags="document" categories="files,arrows">
  <path d="M 6 1 C 4.3549904 1 3 2.3549904 3 4 L 3 7.1269531 A 1 1 0 0 0 4 8.1269531 A 1 1 0 0 0 5 7.1269531 L 5 4 C 5 3.4358706 5.4358706 3 6 3 L 13 3 L 13 7 C 13 8.0927249 13.907275 9 15 9 L 19 9 L 19 20 C 19 20.564129 18.564129 21 18 21 L 6 21 C 5.6253088 21.000143 5.286576 20.795099 5.1132812 20.462891 A 1 1 0 0 0 3.7636719 20.039062 A 1 1 0 0 0 3.3398438 21.386719 C 3.8561048 22.376399 4.8837597 23.000425 6 23 L 18 23 C 19.64501 23 21 21.64501 21 20 L 21 8.0019531 L 21 8 C 21.001701 7.0943483 20.641585 6.225212 20 5.5859375 L 16.414062 2 C 15.774788 1.3584154 14.905652 0.99829936 14 1 L 6 1 z M 15 3.4160156 L 18.583984 7 L 15 7 L 15 3.4160156 z M 5 10 A 1 1 0 0 0 4.2929688 10.292969 L 1.2929688 13.292969 A 1 1 0 0 0 1.2753906 13.314453 A 1.0001 1.0001 0 0 0 1.2441406 13.347656 A 1 1 0 0 0 1.1855469 13.423828 A 1.0001 1.0001 0 0 0 1.1621094 13.457031 A 1 1 0 0 0 1.1191406 13.533203 A 1.0001 1.0001 0 0 0 1.0957031 13.578125 A 1 1 0 0 0 1.0644531 13.65625 A 1.0001 1.0001 0 0 0 1.0429688 13.714844 A 1 1 0 0 0 1.0273438 13.78125 A 1.0001 1.0001 0 0 0 1.015625 13.832031 A 1 1 0 0 0 1.0039062 13.9375 A 1.0001 1.0001 0 0 0 1.0019531 13.964844 A 1 1 0 0 0 1.0039062 14.056641 A 1.0001 1.0001 0 0 0 1.0058594 14.105469 A 1 1 0 0 0 1.0214844 14.195312 A 1.0001 1.0001 0 0 0 1.0332031 14.244141 A 1 1 0 0 0 1.0566406 14.322266 A 1.0001 1.0001 0 0 0 1.0703125 14.367188 A 1 1 0 0 0 1.1132812 14.455078 A 1.0001 1.0001 0 0 0 1.1308594 14.494141 A 1 1 0 0 0 1.1542969 14.53125 A 1.0001 1.0001 0 0 0 1.2070312 14.609375 A 1 1 0 0 0 1.2929688 14.707031 L 4.2929688 17.707031 A 1 1 0 0 0 5.7070312 17.707031 A 1 1 0 0 0 5.7070312 16.292969 L 4.4140625 15 L 12 15 A 1 1 0 0 0 13 14 A 1 1 0 0 0 12 13 L 4.4140625 13 L 5.7070312 11.707031 A 1 1 0 0 0 5.7070312 10.292969 A 1 1 0 0 0 5 10 z "/>
</svg>
