<svg xmlns="http://www.w3.org/2000/svg" xmlns:svg="http://www.w3.org/2000/svg" width="24" height="24" viewBox="0 0 24 24" fill="currentColor" tags="lost,delete,remove,document" categories="files">
  <path d="M 6 1 C 4.3549904 1 3 2.3549904 3 4 L 3 20 C 3 21.64501 4.3549904 23 6 23 L 18 23 C 19.64501 23 21 21.64501 21 20 L 21 8.0019531 L 21 8 C 21.000952 7.0939406 20.638716 6.2227923 19.996094 5.5839844 L 16.412109 2 L 16.410156 1.9980469 C 15.771801 1.3583784 14.903751 0.99905439 14 1 L 6 1 z M 6 3 L 13 3 L 13 7 C 13 8.0927249 13.907275 9 15 9 L 19 9 L 19 20 C 19 20.564129 18.564129 21 18 21 L 6 21 C 5.4358706 21 5 20.564129 5 20 L 5 4 C 5 3.4358706 5.4358706 3 6 3 z M 15 3.4179688 L 18.582031 7 L 15 7 L 15 3.4179688 z M 9.5 11.5 A 1 1 0 0 0 8.7929688 11.792969 A 1 1 0 0 0 8.7929688 13.207031 L 10.585938 15 L 8.7929688 16.792969 A 1 1 0 0 0 8.7929688 18.207031 A 1 1 0 0 0 10.207031 18.207031 L 12 16.414062 L 13.792969 18.207031 A 1 1 0 0 0 15.207031 18.207031 A 1 1 0 0 0 15.207031 16.792969 L 13.414062 15 L 15.207031 13.207031 A 1 1 0 0 0 15.207031 11.792969 A 1 1 0 0 0 14.5 11.5 A 1 1 0 0 0 13.792969 11.792969 L 12 13.585938 L 10.207031 11.792969 A 1 1 0 0 0 9.5 11.5 z "/>
</svg>
