<?xml version="1.0" encoding="UTF-8" standalone="no"?>
<svg xmlns="http://www.w3.org/2000/svg" xmlns:svg="http://www.w3.org/2000/svg" width="24" height="24" viewBox="0 0 24 24" fill="currentColor" tags="key,private,public,security" categories="files,security">
  <path d="M 6 1 C 4.3549904 1 3 2.3549904 3 4 L 3 20 C 3 21.64501 4.3549904 23 6 23 L 18 23 C 19.64501 23 21 21.64501 21 20 L 21 7 A 1.0001 1.0001 0 0 0 20.707031 6.2929688 L 15.707031 1.2929688 A 1.0001 1.0001 0 0 0 15 1 L 6 1 z M 6 3 L 14.585938 3 L 19 7.4140625 L 19 20 C 19 20.564129 18.564129 21 18 21 L 6 21 C 5.4358706 21 5 20.564129 5 20 L 5 4 C 5 3.4358706 5.4358706 3 6 3 z M 16 9 A 1 1 0 0 0 15.292969 9.2929688 L 14.292969 10.292969 L 11.291016 13.294922 C 10.899197 13.105755 10.46071 13 10 13 C 8.3549904 13 7 14.35499 7 16 C 7 17.64501 8.3549904 19 10 19 C 11.64501 19 13 17.64501 13 16 C 13 15.53929 12.894245 15.100803 12.705078 14.708984 L 15 12.414062 L 15.292969 12.707031 A 1 1 0 0 0 16.707031 12.707031 A 1 1 0 0 0 16.707031 11.292969 L 16.414062 11 L 16.707031 10.707031 A 1 1 0 0 0 16.707031 9.2929688 A 1 1 0 0 0 16 9 z M 10 15 C 10.564129 15 11 15.435871 11 16 C 11 16.564129 10.564129 17 10 17 C 9.4358706 17 9 16.564129 9 16 C 9 15.435871 9.4358706 15 10 15 z "/>
</svg>
