<svg xmlns="http://www.w3.org/2000/svg" xmlns:svg="http://www.w3.org/2000/svg" width="24" height="24" viewBox="0 0 24 24" fill="currentColor" tags="lock,password,security" categories="files,security">
  <path d="M 6 1 C 4.3549904 1 3 2.3549904 3 4 L 3 9.8007812 A 1 1 0 0 0 4 10.800781 A 1 1 0 0 0 5 9.8007812 L 5 4 C 5 3.4358706 5.4358706 3 6 3 L 13 3 L 13 7 C 13 8.0927249 13.907275 9 15 9 L 19 9 L 19 20 C 19 20.564129 18.564129 21 18 21 L 15 21 A 1 1 0 0 0 14 22 A 1 1 0 0 0 15 23 L 18 23 C 19.64501 23 21 21.64501 21 20 L 21 8.0019531 L 21 8 C 21.001701 7.0943483 20.641585 6.225212 20 5.5859375 L 16.414062 2 C 15.774788 1.3584154 14.905652 0.99829936 14 1 L 6 1 z M 15 3.4160156 L 18.583984 7 L 15 7 L 15 3.4160156 z M 7 12 C 6.2777779 12 5.5421194 12.235347 4.9609375 12.751953 C 4.3797556 13.268559 4 14.083334 4 15 L 4 16 C 2.9092972 16 2 16.909297 2 18 L 2 21 C 2 22.090703 2.9092972 23 4 23 L 10 23 C 11.090703 23 12 22.090703 12 21 L 12 18 C 12 16.909297 11.090703 16 10 16 L 10 15 C 10 14.083334 9.6202444 13.268559 9.0390625 12.751953 C 8.4578806 12.235347 7.7222221 12 7 12 z M 7 14 C 7.2777779 14 7.5421194 14.097986 7.7109375 14.248047 C 7.8797556 14.398107 8 14.583334 8 15 L 8 16 L 6 16 L 6 15 C 6 14.583334 6.1202444 14.398107 6.2890625 14.248047 C 6.4578806 14.097986 6.7222221 14 7 14 z M 4 18 L 5 18 L 9 18 L 10 18 L 10 21 L 4 21 L 4 18 z "/>
</svg>
