<?xml version="1.0" encoding="UTF-8" standalone="no"?>
<svg xmlns="http://www.w3.org/2000/svg" xmlns:svg="http://www.w3.org/2000/svg" width="24" height="24" viewBox="0 0 24 24" fill="currentColor" tags="person,personal information,people,listing,networking,document,contact,cover letter,resume,cv,curriculum vitae,application form" categories="account,communication,files">
  <path d="M 6 1 C 4.3549936 1 3 2.3549936 3 4 L 3 20 C 3 21.645006 4.3549936 23 6 23 L 18 23 C 19.645006 23 21 21.645006 21 20 L 21 7 A 1.0001 1.0001 0 0 0 20.707031 6.2929688 L 15.707031 1.2929688 A 1.0001 1.0001 0 0 0 15 1 L 6 1 z M 6 3 L 13 3 L 13 6 C 13 7.6450064 14.354994 9 16 9 L 19 9 L 19 20 C 19 20.564128 18.564128 21 18 21 L 6 21 C 5.4358718 21 5 20.564128 5 20 L 5 4 C 5 3.4358718 5.4358718 3 6 3 z M 15 3.4140625 L 18.585938 7 L 16 7 C 15.435872 7 15 6.5641282 15 6 L 15 3.4140625 z M 12 10 C 10.354994 10 9 11.354994 9 13 C 9 13.655331 9.2153735 14.263819 9.578125 14.759766 C 9.4736797 14.835044 9.3713217 14.914945 9.2734375 15.001953 C 8.5047572 15.685224 8 16.750003 8 18 A 1 1 0 0 0 9 19 A 1 1 0 0 0 10 18 C 10 17.250002 10.245245 16.814774 10.601562 16.498047 C 10.957879 16.18132 11.472224 16 12 16 C 12.527776 16 13.04212 16.18132 13.398438 16.498047 C 13.754754 16.814774 14 17.250002 14 18 A 1 1 0 0 0 15 19 A 1 1 0 0 0 16 18 C 16 16.750003 15.495243 15.685224 14.726562 15.001953 C 14.628678 14.914945 14.52632 14.835044 14.421875 14.759766 C 14.784627 14.263819 15 13.655331 15 13 C 15 11.354994 13.645006 10 12 10 z M 12 12 C 12.564128 12 13 12.435872 13 13 C 13 13.564128 12.564128 14 12 14 C 11.435872 14 11 13.564128 11 13 C 11 12.435872 11.435872 12 12 12 z "/>
</svg>
