<svg xmlns="http://www.w3.org/2000/svg" xmlns:svg="http://www.w3.org/2000/svg" width="24" height="24" viewBox="0 0 24 24" fill="currentColor" tags="audio,sound,noise,track,digital,recording,playback,piano,keyboard,keys,notes,chord,midi,octave" categories="files,multimedia">
  <path d="M 6 1 C 4.3549904 1 3 2.3549904 3 4 L 3 14.349609 A 1 1 0 0 0 4 15.349609 A 1 1 0 0 0 5 14.349609 L 5 4 C 5 3.4358706 5.4358706 3 6 3 L 13 3 L 13 7 C 13 8.0927249 13.907275 9 15 9 L 19 9 L 19 20 C 19 20.564129 18.564129 21 18 21 L 11.650391 21 A 1 1 0 0 0 10.650391 22 A 1 1 0 0 0 11.650391 23 L 18 23 C 19.64501 23 21 21.64501 21 20 L 21 8.0019531 L 21 8 C 21.001701 7.0943483 20.641585 6.225212 20 5.5859375 L 16.414062 2 C 15.774788 1.3584154 14.905652 0.99829936 14 1 L 6 1 z M 15 3.4160156 L 18.583984 7 L 15 7 L 15 3.4160156 z M 8.0507812 12 A 1.0001 1.0001 0 0 0 7 13 L 7 17.173828 C 6.686616 17.061489 6.3498675 17 6 17 C 4.3549904 17 3 18.35499 3 20 C 3 21.64501 4.3549904 23 6 23 C 7.6450096 23 9 21.64501 9 20 L 9 14.605469 L 10.558594 15.371094 A 1 1 0 0 0 11.898438 14.914062 A 1 1 0 0 0 11.441406 13.576172 L 8.4414062 12.101562 A 1.0001 1.0001 0 0 0 8.0507812 12 z M 6 19 C 6.5641294 19 7 19.435871 7 20 C 7 20.564129 6.5641294 21 6 21 C 5.4358706 21 5 20.564129 5 20 C 5 19.435871 5.4358706 19 6 19 z "/>
</svg>
