<?xml version="1.0" encoding="UTF-8" standalone="no"?>
<svg xmlns="http://www.w3.org/2000/svg" xmlns:svg="http://www.w3.org/2000/svg" width="24" height="24" viewBox="0 0 24 24" fill="currentColor" tags="lock,password,security" categories="files,security">
  <path d="M 6 1 C 4.3549936 1 3 2.3549936 3 4 L 3 20 C 3 21.645006 4.3549936 23 6 23 L 18 23 C 19.645006 23 21 21.645006 21 20 L 21 7 A 1.0001 1.0001 0 0 0 20.707031 6.2929688 L 15.707031 1.2929688 A 1.0001 1.0001 0 0 0 15 1 L 6 1 z M 6 3 L 14.585938 3 L 19 7.4140625 L 19 20 C 19 20.564128 18.564128 21 18 21 L 6 21 C 5.4358718 21 5 20.564128 5 20 L 5 4 C 5 3.4358718 5.4358718 3 6 3 z M 12 7 C 11.27778 7 10.542118 7.2353482 9.9609375 7.7519531 C 9.3797568 8.268558 9 9.0833353 9 10 L 9 11 C 7.9092994 11 7 11.909299 7 13 L 7 17 C 7 18.090701 7.9092994 19 9 19 L 15 19 C 16.090701 19 17 18.090701 17 17 L 17 13 C 17 11.909299 16.090701 11 15 11 L 15 10 C 15 9.0833353 14.620243 8.268558 14.039062 7.7519531 C 13.457881 7.2353482 12.72222 7 12 7 z M 12 9 C 12.277778 9 12.54212 9.0979867 12.710938 9.2480469 C 12.879754 9.398107 13 9.5833345 13 10 L 13 11 L 11 11 L 11 10 C 11 9.5833345 11.120245 9.398107 11.289062 9.2480469 C 11.457879 9.0979867 11.722222 9 12 9 z M 9 13 L 10 13 L 14 13 L 15 13 L 15 17 L 9 17 L 9 13 z "/>
</svg>
