<svg xmlns="http://www.w3.org/2000/svg" xmlns:svg="http://www.w3.org/2000/svg" width="24" height="24" viewBox="0 0 24 24" fill="currentColor" tags="heart,favourite,bookmark,quick link" categories="files">
  <path d="M 6 1 C 4.3549904 1 3 2.3549904 3 4 L 3 11 A 1 1 0 0 0 4 12 A 1 1 0 0 0 5 11 L 5 4 C 5 3.4358706 5.4358706 3 6 3 L 13 3 L 13 7 C 13 8.0927249 13.907275 9 15 9 L 19 9 L 19 20 C 19 20.564129 18.564129 21 18 21 L 13 21 A 1 1 0 0 0 12 22 A 1 1 0 0 0 13 23 L 18 23 C 19.64501 23 21 21.64501 21 20 L 21 8.0019531 L 21 8 C 21.001701 7.0943483 20.641585 6.225212 20 5.5859375 L 16.414062 2 C 15.774788 1.3584154 14.905652 0.99829936 14 1 L 6 1 z M 15 3.4160156 L 18.583984 7 L 15 7 L 15 3.4160156 z M 5.3632812 13.947266 C 4.4990121 13.926696 3.7066484 14.268214 3.1015625 14.798828 C 2.4964766 15.329442 2.0553581 16.070133 1.9628906 16.929688 C 1.8704236 17.789243 2.1801281 18.743279 2.8984375 19.492188 L 5.4941406 22.316406 L 5.4960938 22.318359 C 6.2812301 23.21562 7.7207243 23.215622 8.5058594 22.318359 L 11.105469 19.490234 L 11.107422 19.486328 C 11.814151 18.737506 12.119334 17.789739 12.025391 16.935547 C 11.931311 16.080075 11.491164 15.341196 10.888672 14.8125 C 10.286179 14.283804 9.4971636 13.945032 8.6367188 13.962891 C 8.0739124 13.974571 7.5203529 14.221171 7.0039062 14.572266 C 6.4860305 14.214311 5.9300187 13.960754 5.3632812 13.947266 z M 5.3164062 15.947266 C 5.6090164 15.954266 5.8869499 16.046657 6.21875 16.460938 A 1.0001 1.0001 0 0 0 7.7753906 16.466797 C 8.1070825 16.058935 8.3876782 15.966997 8.6796875 15.960938 C 8.9716968 15.954838 9.3058701 16.084354 9.5703125 16.316406 C 9.8347549 16.548458 10.00518 16.863975 10.037109 17.154297 C 10.069039 17.444619 10.015609 17.733363 9.6542969 18.115234 A 1.0001 1.0001 0 0 0 9.6445312 18.125 L 7.0175781 20.980469 A 1.0001 1.0001 0 0 0 7 21 A 1.0001 1.0001 0 0 0 6.9824219 20.980469 L 4.3554688 18.123047 A 1.0001 1.0001 0 0 0 4.3417969 18.107422 C 3.9743897 17.724368 3.9198658 17.435545 3.9511719 17.144531 C 3.982478 16.853517 4.1537022 16.536189 4.4199219 16.302734 C 4.6861415 16.06928 5.0237963 15.940301 5.3164062 15.947266 z "/>
</svg>
