<?xml version="1.0" encoding="UTF-8" standalone="no"?>
<svg xmlns="http://www.w3.org/2000/svg" xmlns:svg="http://www.w3.org/2000/svg" width="24" height="24" viewBox="0 0 24 24" fill="currentColor" tags="image,graphics,photo,picture" categories="files">
  <path d="M 6 1 C 4.3549936 1 3 2.3549936 3 4 L 3 20 C 3 21.645006 4.3549936 23 6 23 L 18 23 C 19.645006 23 21 21.645006 21 20 L 21 17 L 21 7 A 1.0001 1.0001 0 0 0 20.707031 6.2929688 L 15.707031 1.2929688 A 1.0001 1.0001 0 0 0 15 1 L 6 1 z M 6 3 L 13 3 L 13 6 C 13 7.6450064 14.354994 9 16 9 L 19 9 L 19 14.646484 C 18.407359 14.218101 17.703909 14.003906 17 14.003906 C 16.125294 14.003906 15.251479 14.334556 14.589844 14.996094 L 8.5859375 21 L 6 21 C 5.4358718 21 5 20.564128 5 20 L 5 4 C 5 3.4358718 5.4358718 3 6 3 z M 15 3.4140625 L 18.585938 7 L 16 7 C 15.435872 7 15 6.5641282 15 6 L 15 3.4140625 z M 10 9 C 8.3549936 9 7 10.354994 7 12 C 7 13.645006 8.3549936 15 10 15 C 11.645006 15 13 13.645006 13 12 C 13 10.354994 11.645006 9 10 9 z M 10 11 C 10.564128 11 11 11.435872 11 12 C 11 12.564128 10.564128 13 10 13 C 9.4358718 13 9 12.564128 9 12 C 9 11.435872 9.4358718 11 10 11 z M 17 15.992188 C 17.358298 15.992188 17.716597 16.132655 17.996094 16.412109 L 19 17.414062 L 19 20 C 19 20.564128 18.564128 21 18 21 L 11.414062 21 L 16.003906 16.412109 C 16.283403 16.132655 16.641702 15.992188 17 15.992188 z "/>
</svg>
