<svg xmlns="http://www.w3.org/2000/svg" xmlns:svg="http://www.w3.org/2000/svg" width="24" height="24" viewBox="0 0 24 24" fill="currentColor" tags="audio,music,volume" categories="files">
  <path d="M 6 1 C 4.3549904 1 3 2.3549904 3 4 L 3 11.550781 A 1 1 0 0 0 4 12.550781 A 1 1 0 0 0 5 11.550781 L 5 4 C 5 3.4358706 5.4358706 3 6 3 L 13 3 L 13 7 C 13 8.0927249 13.907275 9 15 9 L 19 9 L 19 20 C 19 20.564129 18.564129 21 18 21 L 16.050781 21 A 1 1 0 0 0 15.050781 22 A 1 1 0 0 0 16.050781 23 L 18 23 C 19.64501 23 21 21.64501 21 20 L 21 8.0019531 L 21 8 C 21.001701 7.0943483 20.641585 6.225212 20 5.5859375 L 16.414062 2 C 15.774788 1.3584154 14.905652 0.99829936 14 1 L 6 1 z M 15 3.4160156 L 18.583984 7 L 15 7 L 15 3.4160156 z M 7.453125 13.03125 C 7.4012431 13.03044 7.3485784 13.0325 7.296875 13.037109 C 7.0211235 13.061699 6.7512464 13.165703 6.5214844 13.363281 L 4.6289062 14.994141 L 3.5 14.994141 C 2.6823187 14.994139 1.9983646 15.680367 2 16.498047 L 2 19.501953 C 1.9994409 20.318783 2.6829605 21.003908 3.5 21.003906 L 4.6289062 21.003906 L 6.5214844 22.636719 C 7.4396955 23.426301 9.0021585 22.709058 9 21.498047 L 9 14.505859 C 9.003225 13.653591 8.231353 13.043394 7.453125 13.03125 z M 12.009766 14 A 1 1 0 0 0 11.400391 14.199219 A 1 1 0 0 0 11.199219 15.599609 C 12.268552 17.025387 12.268552 18.974613 11.199219 20.400391 A 1 1 0 0 0 11.400391 21.800781 A 1 1 0 0 0 12.800781 21.599609 C 14.398115 19.469832 14.398115 16.530168 12.800781 14.400391 A 1 1 0 0 0 12.140625 14.009766 A 1 1 0 0 0 12.009766 14 z M 7 15.591797 L 7 20.408203 L 5.9335938 19.488281 C 5.5712964 19.175558 5.1094557 19.004584 4.6308594 19.003906 A 1.0001 1.0001 0 0 0 4.6289062 19.003906 L 4 19.003906 L 4 16.994141 L 4.6308594 16.994141 A 1.0001 1.0001 0 0 0 4.6328125 16.994141 C 5.1107219 16.992941 5.5718168 16.822041 5.9335938 16.509766 L 7 15.591797 z "/>
</svg>
