<?xml version="1.0" encoding="UTF-8" standalone="no"?>
<svg xmlns="http://www.w3.org/2000/svg" xmlns:svg="http://www.w3.org/2000/svg" width="24" height="24" viewBox="0 0 24 24" fill="currentColor" tags="audio,sound,noise,track,digital,recording,playback,piano,keyboard,keys,notes,chord,midi,octave" categories="files,multimedia">
  <path d="M 6 1 C 4.3549936 1 3 2.3549936 3 4 L 3 12.400391 A 1 1 0 0 0 4 13.400391 A 1 1 0 0 0 5 12.400391 L 5 4 C 5 3.4358718 5.4358718 3 6 3 L 14.085938 3 L 19 7.9140625 L 19 20 C 19 20.564128 18.564128 21 18 21 L 10.5 21 A 1 1 0 0 0 9.5 22 A 1 1 0 0 0 10.5 23 L 18 23 C 19.645006 23 21 21.645006 21 20 L 21 7.5 A 1.0001 1.0001 0 0 0 20.707031 6.7929688 L 15.207031 1.2929688 A 1.0001 1.0001 0 0 0 14.5 1 L 6 1 z M 16.126953 8.0097656 A 1.0001 1.0001 0 0 0 15.839844 8.0136719 L 7.8398438 9.3125 A 1.0001 1.0001 0 0 0 7 10.300781 L 7 15.173828 C 6.6867818 15.061622 6.3496499 15 6 15 C 4.3549936 15 3 16.354994 3 18 C 3 19.645006 4.3549936 21 6 21 C 7.6450064 21 9 19.645006 9 18 L 9 11.150391 L 15 10.175781 L 15 13.173828 C 14.686782 13.061622 14.34965 13 14 13 C 12.354994 13 11 14.354994 11 16 C 11 17.645006 12.354994 19 14 19 C 15.645006 19 17 17.645006 17 16 L 17 9 A 1.0001 1.0001 0 0 0 16.126953 8.0097656 z M 14 15 C 14.564128 15 15 15.435872 15 16 C 15 16.564128 14.564128 17 14 17 C 13.435872 17 13 16.564128 13 16 C 13 15.435872 13.435872 15 14 15 z M 6 17 C 6.5641282 17 7 17.435872 7 18 C 7 18.564128 6.5641282 19 6 19 C 5.4358718 19 5 18.564128 5 18 C 5 17.435872 5.4358718 17 6 17 z "/>
</svg>
