<?xml version="1.0" encoding="UTF-8" standalone="no"?>
<svg xmlns="http://www.w3.org/2000/svg" xmlns:svg="http://www.w3.org/2000/svg" width="24" height="24" viewBox="0 0 24 24" fill="currentColor" tags="executable,settings,cog,edit,gear" categories="files">
  <path d="M 6 1 C 4.3549904 1 3 2.3549904 3 4 L 3 6.5 A 1 1 0 0 0 4 7.5 A 1 1 0 0 0 5 6.5 L 5 4 C 5 3.4358706 5.4358706 3 6 3 L 13 3 L 13 6 C 13 7.6450096 14.35499 9 16 9 L 19 9 L 19 20 C 19 20.564129 18.564129 21 18 21 L 5.9941406 21 C 5.7520293 20.9988 5.5194734 20.91015 5.3378906 20.75 A 1 1 0 0 0 3.9277344 20.837891 A 1 1 0 0 0 4.015625 22.25 C 4.5596369 22.729791 5.2590228 22.996408 5.984375 23 A 1.0001 1.0001 0 0 0 5.9902344 23 L 18 23 C 19.64501 23 21 21.64501 21 20 L 21 7 A 1.0001 1.0001 0 0 0 20.707031 6.2929688 L 15.707031 1.2929688 A 1.0001 1.0001 0 0 0 15 1 L 6 1 z M 15 3.4140625 L 18.585938 7 L 16 7 C 15.435871 7 15 6.5641294 15 6 L 15 3.4140625 z M 4.5527344 9.3027344 A 1 1 0 0 0 4.09375 9.3867188 A 1 1 0 0 0 3.5859375 10.707031 L 3.6230469 10.791016 C 3.3064688 11.026575 3.0265745 11.306469 2.7910156 11.623047 L 2.7070312 11.585938 A 1 1 0 0 0 1.9414062 11.566406 A 1 1 0 0 0 1.3867188 12.09375 A 1 1 0 0 0 1.8945312 13.414062 L 2.0371094 13.476562 C 2.0142605 13.648405 2 13.822248 2 14 C 2 14.177752 2.0142605 14.351595 2.0371094 14.523438 L 1.8945312 14.585938 A 1 1 0 0 0 1.3867188 15.90625 A 1 1 0 0 0 2.7070312 16.414062 L 2.7910156 16.376953 C 3.0265745 16.693531 3.3064688 16.973425 3.6230469 17.208984 L 3.5859375 17.292969 A 1 1 0 0 0 4.09375 18.613281 A 1 1 0 0 0 5.4140625 18.105469 L 5.4765625 17.962891 C 5.6484047 17.98574 5.8222479 18 6 18 C 6.1777521 18 6.3515953 17.98574 6.5234375 17.962891 L 6.5859375 18.105469 A 1 1 0 0 0 7.90625 18.613281 A 1 1 0 0 0 8.4140625 17.292969 L 8.3769531 17.208984 C 8.6935312 16.973425 8.9734255 16.693531 9.2089844 16.376953 L 9.2929688 16.414062 A 1 1 0 0 0 10.613281 15.90625 A 1 1 0 0 0 10.105469 14.585938 L 9.9628906 14.523438 C 9.9857395 14.351595 10 14.177752 10 14 C 10 13.822248 9.9857395 13.648405 9.9628906 13.476562 L 10.105469 13.414062 A 1 1 0 0 0 10.613281 12.09375 A 1 1 0 0 0 10.058594 11.566406 A 1 1 0 0 0 9.2929688 11.585938 L 9.2089844 11.623047 C 8.9734255 11.306469 8.6935312 11.026575 8.3769531 10.791016 L 8.4140625 10.707031 A 1 1 0 0 0 7.90625 9.3867188 A 1 1 0 0 0 6.5859375 9.8945312 L 6.5234375 10.037109 C 6.3515953 10.01426 6.1777521 10 6 10 C 5.8222479 10 5.6484047 10.01426 5.4765625 10.037109 L 5.4140625 9.8945312 A 1 1 0 0 0 4.5527344 9.3027344 z M 6 12 C 7.1164141 12 8 12.883586 8 14 C 8 15.116414 7.1164141 16 6 16 C 4.8835859 16 4 15.116414 4 14 C 4 12.883586 4.8835859 12 6 12 z "/>
</svg>
