<?xml version="1.0" encoding="UTF-8" standalone="no"?>
<svg xmlns="http://www.w3.org/2000/svg" xmlns:svg="http://www.w3.org/2000/svg" width="24" height="24" viewBox="0 0 24 24" fill="currentColor" tags="key,private,public,security" categories="files,security">
  <path d="M 6 1 C 4.3549936 1 3 2.3549936 3 4 L 3 10 A 1 1 0 0 0 4 11 A 1 1 0 0 0 5 10 L 5 4 C 5 3.4358718 5.4358718 3 6 3 L 13 3 L 13 6 C 13 7.6450064 14.354994 9 16 9 L 19 9 L 19 20 C 19 20.564128 18.564128 21 18 21 L 4 21 A 1 1 0 0 0 3 22 A 1 1 0 0 0 4 23 L 18 23 C 19.645006 23 21 21.645006 21 20 L 21 7 A 1.0001 1.0001 0 0 0 20.707031 6.2929688 L 15.707031 1.2929688 A 1.0001 1.0001 0 0 0 15 1 L 6 1 z M 15 3.4140625 L 18.585938 7 L 16 7 C 15.435872 7 15 6.5641282 15 6 L 15 3.4140625 z M 10 9 A 1 1 0 0 0 9.2929688 9.2929688 L 8.2929688 10.292969 L 5.2890625 13.296875 C 4.897383 13.107873 4.460495 13 4 13 C 2.3549936 13 1 14.354994 1 16 C 1 17.645006 2.3549936 19 4 19 C 5.6450064 19 7 17.645006 7 16 C 7 15.539505 6.892127 15.102617 6.703125 14.710938 L 9 12.414062 L 9.2929688 12.707031 A 1 1 0 0 0 10.707031 12.707031 A 1 1 0 0 0 10.707031 11.292969 L 10.414062 11 L 10.707031 10.707031 A 1 1 0 0 0 10.707031 9.2929688 A 1 1 0 0 0 10 9 z M 4 15 C 4.5641282 15 5 15.435872 5 16 C 5 16.564128 4.5641282 17 4 17 C 3.4358718 17 3 16.564128 3 16 C 3 15.435872 3.4358718 15 4 15 z "/>
</svg>
