<?xml version="1.0" encoding="UTF-8" standalone="no"?>
<svg xmlns="http://www.w3.org/2000/svg" xmlns:svg="http://www.w3.org/2000/svg" width="24" height="24" viewBox="0 0 24 24" fill="currentColor" tags="upload,import,export" categories="files,arrows">
  <path d="M 6 1 C 4.3549904 1 3 2.3549904 3 4 L 3 20 C 3 21.64501 4.3549904 23 6 23 L 18 23 C 19.64501 23 21 21.64501 21 20 L 21 7 A 1.0001 1.0001 0 0 0 20.707031 6.2929688 L 15.707031 1.2929688 A 1.0001 1.0001 0 0 0 15 1 L 6 1 z M 6 3 L 13 3 L 13 6 C 13 7.6450096 14.35499 9 16 9 L 19 9 L 19 20 C 19 20.564129 18.564129 21 18 21 L 6 21 C 5.4358706 21 5 20.564129 5 20 L 5 4 C 5 3.4358706 5.4358706 3 6 3 z M 15 3.4140625 L 18.585938 7 L 16 7 C 15.435871 7 15 6.5641294 15 6 L 15 3.4140625 z M 12 11 A 1 1 0 0 0 11.753906 11.033203 A 1.0001 1.0001 0 0 0 11.699219 11.052734 A 1 1 0 0 0 11.53125 11.123047 A 1.0001 1.0001 0 0 0 11.451172 11.171875 A 1 1 0 0 0 11.333984 11.261719 A 1.0001 1.0001 0 0 0 11.292969 11.292969 L 8.2929688 14.292969 A 1 1 0 0 0 8.2929688 15.707031 A 1 1 0 0 0 9.7070312 15.707031 L 11 14.414062 L 11 18 A 1 1 0 0 0 12 19 A 1 1 0 0 0 13 18 L 13 14.414062 L 14.292969 15.707031 A 1 1 0 0 0 15.707031 15.707031 A 1 1 0 0 0 15.707031 14.292969 L 12.736328 11.322266 A 1 1 0 0 0 12.707031 11.292969 A 1 1 0 0 0 12.5 11.134766 A 1 1 0 0 0 12.257812 11.035156 A 1 1 0 0 0 12 11 z "/>
</svg>
