<?xml version="1.0" encoding="UTF-8" standalone="no"?>
<svg xmlns="http://www.w3.org/2000/svg" xmlns:svg="http://www.w3.org/2000/svg" width="24" height="24" viewBox="0 0 24 24" fill="currentColor" tags="audio,music,volume" categories="files">
  <path d="M 6 1 C 4.3549904 1 3 2.3549904 3 4 L 3 20 C 3 21.64501 4.3549904 23 6 23 L 18 23 C 19.64501 23 21 21.64501 21 20 L 21 7 A 1.0001 1.0001 0 0 0 20.707031 6.2929688 L 15.707031 1.2929688 A 1.0001 1.0001 0 0 0 15 1 L 6 1 z M 6 3 L 13 3 L 13 6 C 13 7.6450096 14.35499 9 16 9 L 19 9 L 19 20 C 19 20.564129 18.564129 21 18 21 L 6 21 C 5.4358706 21 5 20.564129 5 20 L 5 4 C 5 3.4358706 5.4358706 3 6 3 z M 15 3.4140625 L 18.585938 7 L 16 7 C 15.435871 7 15 6.5641294 15 6 L 15 3.4140625 z M 15.009766 11 A 1 1 0 0 0 14.400391 11.199219 A 1 1 0 0 0 14.199219 12.599609 C 15.268552 14.025387 15.268552 15.974613 14.199219 17.400391 A 1 1 0 0 0 14.400391 18.800781 A 1 1 0 0 0 15.800781 18.599609 C 17.398115 16.469832 17.398115 13.530168 15.800781 11.400391 A 1 1 0 0 0 15.140625 11.009766 A 1 1 0 0 0 15.009766 11 z M 11.509766 12.5 A 1 1 0 0 0 10.900391 12.699219 A 1 1 0 0 0 10.699219 14.099609 C 11.101885 14.636498 11.101885 15.363502 10.699219 15.900391 A 1 1 0 0 0 10.900391 17.300781 A 1 1 0 0 0 12.300781 17.099609 C 13.231448 15.85872 13.231448 14.14128 12.300781 12.900391 A 1 1 0 0 0 11.640625 12.509766 A 1 1 0 0 0 11.509766 12.5 z M 8 14 A 1 1 0 0 0 7 15 A 1 1 0 0 0 8 16 L 8.0097656 16 A 1 1 0 0 0 9.0097656 15 A 1 1 0 0 0 8.0097656 14 L 8 14 z "/>
</svg>
