<?xml version="1.0" encoding="UTF-8" standalone="no"?>
<svg xmlns="http://www.w3.org/2000/svg" xmlns:svg="http://www.w3.org/2000/svg" width="24" height="24" viewBox="0 0 24 24" fill="currentColor" tags="download,import,export" categories="files,arrows">
  <path d="M 6 1 C 4.3549904 1 3 2.3549904 3 4 L 3 20 C 3 21.64501 4.3549904 23 6 23 L 18 23 C 19.64501 23 21 21.64501 21 20 L 21 7 A 1.0001 1.0001 0 0 0 20.707031 6.2929688 L 15.707031 1.2929688 A 1.0001 1.0001 0 0 0 15 1 L 6 1 z M 6 3 L 13 3 L 13 6 C 13 7.6450096 14.35499 9 16 9 L 19 9 L 19 20 C 19 20.564129 18.564129 21 18 21 L 6 21 C 5.4358706 21 5 20.564129 5 20 L 5 4 C 5 3.4358706 5.4358706 3 6 3 z M 15 3.4140625 L 18.585938 7 L 16 7 C 15.435871 7 15 6.5641294 15 6 L 15 3.4140625 z M 12 11 A 1 1 0 0 0 11 12 L 11 15.585938 L 9.7070312 14.292969 A 1 1 0 0 0 9 14 A 1 1 0 0 0 8.2929688 14.292969 A 1 1 0 0 0 8.2929688 15.707031 L 11.292969 18.707031 A 1.0001 1.0001 0 0 0 11.333984 18.738281 A 1 1 0 0 0 11.451172 18.828125 A 1.0001 1.0001 0 0 0 11.53125 18.876953 A 1 1 0 0 0 11.699219 18.947266 A 1.0001 1.0001 0 0 0 11.753906 18.966797 A 1 1 0 0 0 12 19 A 1 1 0 0 0 12.246094 18.966797 A 1.0001 1.0001 0 0 0 12.300781 18.947266 A 1 1 0 0 0 12.46875 18.876953 A 1.0001 1.0001 0 0 0 12.548828 18.828125 A 1 1 0 0 0 12.666016 18.738281 A 1.0001 1.0001 0 0 0 12.707031 18.707031 L 15.707031 15.707031 A 1 1 0 0 0 15.707031 14.292969 A 1 1 0 0 0 14.292969 14.292969 L 13 15.585938 L 13 12 A 1 1 0 0 0 12 11 z "/>
</svg>
