<?xml version="1.0" encoding="UTF-8" standalone="no"?>
<svg xmlns="http://www.w3.org/2000/svg" xmlns:svg="http://www.w3.org/2000/svg" width="24" height="24" viewBox="0 0 24 24" fill="currentColor" tags="multiple,copy,documents" categories="files">
  <path d="M 11 1 C 9.3549904 1 8 2.3549904 8 4 L 8 15 C 8 16.64501 9.3549904 18 11 18 L 19 18 C 20.64501 18 22 16.64501 22 15 L 22 8 A 1 1 0 0 0 21.992188 7.8691406 C 21.959152 7.1217621 21.652329 6.4099818 21.121094 5.8789062 L 17.121094 1.8789062 C 16.590018 1.3476701 15.878238 1.0408474 15.130859 1.0078125 A 1 1 0 0 0 15 1 L 11 1 z M 11 3 L 14 3 L 14 6 C 14 7.6450096 15.35499 9 17 9 L 20 9 L 20 15 C 20 15.564129 19.564129 16 19 16 L 11 16 C 10.435871 16 10 15.564129 10 15 L 10 4 C 10 3.4358706 10.435871 3 11 3 z M 16 3.5859375 L 19.414062 7 L 17 7 C 16.435871 7 16 6.5641294 16 6 L 16 3.5859375 z M 5 6 C 3.3549904 6 2 7.3549904 2 9 L 2 20 C 2 21.64501 3.3549904 23 5 23 L 13 23 C 14.070167 22.999973 15.062573 22.426791 15.597656 21.5 A 1 1 0 0 0 15.232422 20.134766 A 1 1 0 0 0 13.865234 20.5 C 13.685805 20.810781 13.358859 20.999991 13 21 L 5 21 C 4.4358706 21 4 20.564129 4 20 L 4 9 C 4 8.4358706 4.4358706 8 5 8 A 1 1 0 0 0 6 7 A 1 1 0 0 0 5 6 z "/>
</svg>
