<svg xmlns="http://www.w3.org/2000/svg" xmlns:svg="http://www.w3.org/2000/svg" width="24" height="24" viewBox="0 0 24 24" fill="currentColor" tags="scan,code,qr-code" categories="files">
  <path d="M 6 1 C 4.3549904 1 3 2.3549904 3 4 L 3 20 C 3 21.64501 4.3549904 23 6 23 L 10.349609 23 A 1 1 0 0 0 11.349609 22 A 1 1 0 0 0 10.349609 21 L 6 21 C 5.4358706 21 5 20.564129 5 20 L 5 4 C 5 3.4358706 5.4358706 3 6 3 L 13 3 L 13 7 C 13 8.0927249 13.907275 9 15 9 L 19 9 L 19 10 A 1 1 0 0 0 20 11 A 1 1 0 0 0 21 10 L 21 8.0019531 L 21 8 C 21.000946 7.0962485 20.641618 6.2282456 20.001953 5.5898438 L 20 5.5878906 L 16.416016 2.0039062 C 15.777208 1.3612835 14.906059 0.99904846 14 1 L 6 1 z M 15 3.4179688 L 18.582031 7 L 15 7 L 15 3.4179688 z M 16 13 C 14.35499 13 13 14.35499 13 16 A 1 1 0 0 0 14 17 A 1 1 0 0 0 15 16 C 15 15.435871 15.435871 15 16 15 A 1 1 0 0 0 17 14 A 1 1 0 0 0 16 13 z M 20 13 A 1 1 0 0 0 19 14 A 1 1 0 0 0 20 15 C 20.564129 15 21 15.435871 21 16 A 1 1 0 0 0 22 17 A 1 1 0 0 0 23 16 C 23 14.35499 21.64501 13 20 13 z M 14 19 A 1 1 0 0 0 13 20 C 13 21.64501 14.35499 23 16 23 A 1 1 0 0 0 17 22 A 1 1 0 0 0 16 21 C 15.435871 21 15 20.564129 15 20 A 1 1 0 0 0 14 19 z M 22 19 A 1 1 0 0 0 21 20 C 21 20.564129 20.564129 21 20 21 A 1 1 0 0 0 19 22 A 1 1 0 0 0 20 23 C 21.64501 23 23 21.64501 23 20 A 1 1 0 0 0 22 19 z "/>
</svg>
