<?xml version="1.0" encoding="UTF-8" standalone="no"?>
<svg xmlns="http://www.w3.org/2000/svg" xmlns:svg="http://www.w3.org/2000/svg" width="24" height="24" viewBox="0 0 24 24" fill="currentColor" tags="statistics,diagram,graph,presentation" categories="files">
  
  <path d="M 6 1 C 4.3549936 1 3 2.3549936 3 4 L 3 7 A 1 1 0 0 0 4 8 A 1 1 0 0 0 5 7 L 5 4 C 5 3.4358718 5.4358718 3 6 3 L 13 3 L 13 6 C 13 7.6450064 14.354994 9 16 9 L 19 9 L 19 20 C 19 20.564128 18.564128 21 18 21 L 16 21 A 1 1 0 0 0 15 22 A 1 1 0 0 0 16 23 L 18 23 C 19.645006 23 21 21.645006 21 20 L 21 7 A 1.0001 1.0001 0 0 0 20.707031 6.2929688 L 15.707031 1.2929688 A 1.0001 1.0001 0 0 0 15 1 L 6 1 z M 15 3.4140625 L 18.585938 7 L 16 7 C 15.435872 7 15 6.5641282 15 6 L 15 3.4140625 z M 8 9 A 1.0001 1.0001 0 0 0 7 10 L 7 16 A 1.0001 1.0001 0 0 0 8 17 L 14 17 A 1.0001 1.0001 0 0 0 15 16 C 15 12.154553 11.845447 9 8 9 z M 3.9003906 10.503906 A 1 1 0 0 0 3.3339844 10.753906 C 0.33654272 13.430646 0.20525991 18.11151 3.046875 20.953125 C 5.8884901 23.79474 10.569354 23.663457 13.246094 20.666016 A 1 1 0 0 0 13.166016 19.253906 A 1 1 0 0 0 11.753906 19.333984 C 9.8236847 21.495468 6.5100553 21.58818 4.4609375 19.539062 C 2.4118197 17.489946 2.5045301 14.176317 4.6660156 12.246094 A 1 1 0 0 0 4.7460938 10.833984 A 1 1 0 0 0 3.9003906 10.503906 z M 9 11.203125 C 10.927193 11.610872 12.389128 13.072807 12.796875 15 L 9 15 L 9 11.203125 z "/>
</svg>
