<?xml version="1.0" encoding="UTF-8" standalone="no"?>
<svg xmlns="http://www.w3.org/2000/svg" xmlns:svg="http://www.w3.org/2000/svg" width="24" height="24" viewBox="0 0 24 24" fill="currentColor" tags="lost,document,find,browser,lens" categories="files">
  <path d="M 6 1 C 4.3549904 1 3 2.3549904 3 4 L 3 7 A 1 1 0 0 0 4 8 A 1 1 0 0 0 5 7 L 5 4 C 5 3.4358706 5.4358706 3 6 3 L 13 3 L 13 6 C 13 7.6450096 14.35499 9 16 9 L 19 9 L 19 20 C 19 20.564129 18.564129 21 18 21 L 5.9980469 21 C 5.6400998 20.999095 5.3137386 20.809993 5.1347656 20.5 A 1 1 0 0 0 3.7675781 20.134766 A 1 1 0 0 0 3.4023438 21.5 C 3.9360945 22.424491 4.9246825 22.997302 5.9921875 23 A 1.0001 1.0001 0 0 0 5.9941406 23 L 18 23 C 19.64501 23 21 21.64501 21 20 L 21 7 A 1.0001 1.0001 0 0 0 20.707031 6.2929688 L 15.707031 1.2929688 A 1.0001 1.0001 0 0 0 15 1 L 6 1 z M 15 3.4140625 L 18.585938 7 L 16 7 C 15.435871 7 15 6.5641294 15 6 L 15 3.4140625 z M 5 10 C 2.8027056 10 1 11.802706 1 14 C 1 16.197294 2.8027056 18 5 18 C 5.7385452 18 6.4333774 17.797207 7.0292969 17.443359 L 8.2929688 18.707031 A 1 1 0 0 0 9.7070312 18.707031 A 1 1 0 0 0 9.7070312 17.292969 L 8.4433594 16.029297 C 8.797207 15.433377 9 14.738545 9 14 C 9 11.802706 7.1972944 10 5 10 z M 5 12 C 6.1164141 12 7 12.883586 7 14 C 7 15.116414 6.1164141 16 5 16 C 3.8835859 16 3 15.116414 3 14 C 3 12.883586 3.8835859 12 5 12 z "/>
</svg>
