<?xml version="1.0" encoding="UTF-8" standalone="no"?>
<svg xmlns="http://www.w3.org/2000/svg" xmlns:svg="http://www.w3.org/2000/svg" width="24" height="24" viewBox="0 0 24 24" fill="currentColor" tags="readme,help,question" categories="files">
  <path d="M 6 1 C 4.3549936 1 3 2.3549936 3 4 L 3 20 C 3 21.645006 4.3549936 23 6 23 L 18 23 C 19.645006 23 21 21.645006 21 20 L 21 7 A 1.0001 1.0001 0 0 0 20.707031 6.2929688 L 15.707031 1.2929688 A 1.0001 1.0001 0 0 0 15 1 L 6 1 z M 6 3 L 14.585938 3 L 19 7.4140625 L 19 20 C 19 20.564128 18.564128 21 18 21 L 6 21 C 5.4358718 21 5 20.564128 5 20 L 5 4 C 5 3.4358718 5.4358718 3 6 3 z M 11.943359 6.0234375 C 10.402213 6.0190071 8.7975102 6.9016895 8.1601562 8.6582031 A 1 1 0 0 0 8.7597656 9.9394531 A 1 1 0 0 0 10.039062 9.3417969 C 10.451564 8.2049618 11.355766 7.8977436 12.257812 8.0527344 C 13.157951 8.2073973 13.905484 8.7977942 13.917969 10.001953 C 13.916669 10.501189 13.486264 11.003949 12.865234 11.417969 C 12.243244 11.832629 11.603516 12.050781 11.603516 12.050781 A 1 1 0 0 0 10.970703 13.316406 A 1 1 0 0 0 12.236328 13.949219 C 12.236328 13.949219 13.096604 13.667369 13.974609 13.082031 C 14.852615 12.496694 15.919922 11.499997 15.919922 10 A 1.0001 1.0001 0 0 0 15.919922 9.9980469 A 1.0001 1.0001 0 0 0 15.919922 9.9960938 A 1.0001 1.0001 0 0 0 15.919922 9.9941406 A 1.0001 1.0001 0 0 0 15.919922 9.9921875 C 15.903354 7.8567388 14.313891 6.3749637 12.597656 6.0800781 C 12.383127 6.0432174 12.163523 6.0240704 11.943359 6.0234375 z M 12 16 A 1 1 0 0 0 11 17 A 1 1 0 0 0 12 18 L 12.009766 18 A 1 1 0 0 0 13.009766 17 A 1 1 0 0 0 12.009766 16 L 12 16 z "/>
</svg>
