<?xml version="1.0" encoding="UTF-8" standalone="no"?>
<svg xmlns="http://www.w3.org/2000/svg" xmlns:svg="http://www.w3.org/2000/svg" width="24" height="24" viewBox="0 0 24 24" fill="currentColor" tags="zip,package,archive" categories="files">
  <path d="M 6 1 C 4.3549936 1 3 2.3549936 3 4 L 3 20 C 3.0001086 20.532472 3.1411489 21.056101 3.4101562 21.515625 A 1 1 0 0 0 4.7792969 21.873047 A 1 1 0 0 0 5.1367188 20.503906 C 5.0470134 20.35067 5.0000362 20.177563 5 20 L 5 4 C 5 3.4358718 5.4358718 3 6 3 L 13 3 L 13 6 C 13 7.6450064 14.354994 9 16 9 L 19 9 L 19 20 C 19 20.564128 18.564128 21 18 21 L 15.5 21 A 1 1 0 0 0 14.5 22 A 1 1 0 0 0 15.5 23 L 18 23 C 19.645006 23 21 21.645006 21 20 L 21 7 A 1.0001 1.0001 0 0 0 20.707031 6.2929688 L 15.707031 1.2929688 A 1.0001 1.0001 0 0 0 15 1 L 6 1 z M 15 3.4140625 L 18.585938 7 L 16 7 C 15.435872 7 15 6.5641282 15 6 L 15 3.4140625 z M 10 5 A 1 1 0 0 0 9 6 L 9 7 A 1 1 0 0 0 10 8 A 1 1 0 0 0 11 7 L 11 6 A 1 1 0 0 0 10 5 z M 10 10 A 1 1 0 0 0 9 11 L 9 12 A 1 1 0 0 0 10 13 A 1 1 0 0 0 11 12 L 11 11 A 1 1 0 0 0 10 10 z M 10 15 A 1 1 0 0 0 9 16 L 9 17.173828 C 7.8396128 17.589521 7 18.704644 7 20 C 7 21.645006 8.3549936 23 10 23 C 11.645006 23 13 21.645006 13 20 C 13 18.704644 12.160387 17.589521 11 17.173828 L 11 16 A 1 1 0 0 0 10 15 z M 10 19 C 10.564128 19 11 19.435872 11 20 C 11 20.564128 10.564128 21 10 21 C 9.4358718 21 9 20.564128 9 20 C 9 19.435872 9.4358718 19 10 19 z "/>
</svg>
