<?xml version="1.0" encoding="UTF-8" standalone="no"?>
<svg xmlns="http://www.w3.org/2000/svg" xmlns:svg="http://www.w3.org/2000/svg" width="24" height="24" viewBox="0 0 24 24" fill="currentColor" tags="person,personal information,people,listing,networking,document,contact,cover letter,resume,cv,curriculum vitae,application form" categories="account,files">
  <path d="M 6 1 C 4.3549904 1 3 2.3549904 3 4 L 3 20 C 3 21.64501 4.3549904 23 6 23 L 18 23 C 19.64501 23 21 21.64501 21 20 L 21 7 A 1.0001 1.0001 0 0 0 20.707031 6.2929688 L 15.707031 1.2929688 A 1.0001 1.0001 0 0 0 15 1 L 6 1 z M 6 3 L 13 3 L 13 6 C 13 7.6450096 14.35499 9 16 9 L 19 9 L 19 20 C 19 20.564129 18.564129 21 18 21 L 6 21 C 5.4358706 21 5 20.564129 5 20 L 5 4 C 5 3.4358706 5.4358706 3 6 3 z M 15 3.4140625 L 18.585938 7 L 16 7 C 15.435871 7 15 6.5641294 15 6 L 15 3.4140625 z M 12 10 C 10.35499 10 9 11.35499 9 13 C 9 13.654622 9.2141336 14.264111 9.5761719 14.759766 C 9.4719227 14.834931 9.371148 14.915099 9.2734375 15.001953 C 8.5047556 15.685226 8 16.75 8 18 A 1 1 0 0 0 9 19 A 1 1 0 0 0 10 18 C 10 17.250001 10.245244 16.814774 10.601562 16.498047 C 10.95788 16.18132 11.472222 16 12 16 C 12.527778 16 13.042119 16.18132 13.398438 16.498047 C 13.754755 16.814774 14 17.250001 14 18 A 1 1 0 0 0 15 19 A 1 1 0 0 0 16 18 C 16 16.75 15.495244 15.685226 14.726562 15.001953 C 14.628852 14.915099 14.528077 14.834932 14.423828 14.759766 C 14.785866 14.264111 15 13.654622 15 13 C 15 11.35499 13.64501 10 12 10 z M 12 12 C 12.564129 12 13 12.435871 13 13 C 13 13.564129 12.564129 14 12 14 C 11.435871 14 11 13.564129 11 13 C 11 12.435871 11.435871 12 12 12 z "/>
</svg>
