<svg xmlns="http://www.w3.org/2000/svg" xmlns:svg="http://www.w3.org/2000/svg" width="24" height="24" viewBox="0 0 24 24" fill="currentColor" tags="signature" categories="files">
  <path d="M 6 1 C 4.3549904 1 3 2.3549904 3 4 L 3 13.339844 A 1 1 0 0 0 4 14.339844 A 1 1 0 0 0 5 13.339844 L 5 4 C 5 3.4358706 5.4358706 3 6 3 L 13 3 L 13 7 C 13 8.0927249 13.907275 9 15 9 L 19 9 L 19 20 C 19 20.564129 18.564129 21 18 21 L 12.658203 21 A 1 1 0 0 0 11.658203 22 A 1 1 0 0 0 12.658203 23 L 18 23 C 19.64501 23 21 21.64501 21 20 L 21 8.0019531 L 21 8 C 21.001701 7.0943483 20.641585 6.225212 20 5.5859375 L 16.414062 2 C 15.774788 1.3584154 14.905652 0.99829936 14 1 L 6 1 z M 15 3.4160156 L 18.583984 7 L 15 7 L 15 3.4160156 z M 11.726562 10.96875 C 11.009251 11.006511 10.264569 11.32196 9.671875 11.914062 L 4.6542969 16.931641 C 4.2985286 17.287409 4.0359205 17.728062 3.8945312 18.210938 L 3.0585938 21.080078 C 2.7419087 22.165855 3.834145 23.256138 4.9199219 22.939453 L 7.7871094 22.103516 C 8.2710678 21.962196 8.7100027 21.70035 9.0664062 21.34375 L 14.083984 16.332031 C 14.761349 15.655343 15.080265 14.779581 15.033203 13.972656 C 14.986143 13.165731 14.619947 12.448604 14.087891 11.916016 C 13.555834 11.383427 12.838128 11.016618 12.03125 10.96875 C 11.93039 10.962766 11.829036 10.963356 11.726562 10.96875 z M 11.818359 12.962891 C 11.850348 12.962152 11.882047 12.962944 11.914062 12.964844 C 12.170184 12.980034 12.453931 13.111916 12.671875 13.330078 C 12.889819 13.54824 13.022171 13.833707 13.037109 14.089844 C 13.052049 14.345981 12.995509 14.594657 12.671875 14.917969 L 7.6523438 19.929688 C 7.5335038 20.048593 7.3879346 20.136472 7.2265625 20.183594 L 5.234375 20.763672 L 5.8144531 18.771484 C 5.8616511 18.610291 5.9495258 18.464402 6.0683594 18.345703 L 11.083984 13.330078 C 11.367165 13.047181 11.594439 12.968064 11.818359 12.962891 z "/>
</svg>
