<?xml version="1.0" encoding="UTF-8" standalone="no"?>
<svg xmlns="http://www.w3.org/2000/svg" xmlns:svg="http://www.w3.org/2000/svg" width="24" height="24" viewBox="0 0 24 24" fill="currentColor" tags="versions,multiple,copy,documents,revisions,version control,history" categories="files,development">
  <path d="M 12.5 1 C 11.116667 1 10 2.1166667 10 3.5 L 10 12.5 C 10 13.883333 11.116667 15 12.5 15 L 19.5 15 C 20.883333 15 22 13.883333 22 12.5 L 22 6 A 1.0001 1.0001 0 0 0 21.707031 5.2929688 L 17.707031 1.2929688 A 1.0001 1.0001 0 0 0 17 1 L 12.5 1 z M 12.5 3 L 15 3 L 15 5 C 15 6.6450096 16.35499 8 18 8 L 20 8 L 20 12.5 C 20 12.716667 19.716667 13 19.5 13 L 12.5 13 C 12.283333 13 12 12.716667 12 12.5 L 12 3.5 C 12 3.2833333 12.283333 3 12.5 3 z M 17 3.4140625 L 19.585938 6 L 18 6 C 17.435871 6 17 5.5641294 17 5 L 17 3.4140625 z M 7 7 A 1 1 0 0 0 6 8 L 6 16.800781 C 6 17.545226 6.3755082 17.988789 6.6933594 18.306641 C 7.0112105 18.624492 7.4547742 19 8.1992188 19 L 15 19 A 1 1 0 0 0 16 18 A 1 1 0 0 0 15 17 L 8.1992188 17 C 8.230816 17 8.2489552 16.998843 8.2558594 16.996094 L 8.2578125 16.994141 L 8.2578125 16.992188 L 8.2578125 16.990234 L 8.2558594 16.988281 C 8.2387593 16.973658 8.1587637 16.943923 8.1074219 16.892578 C 8.0560789 16.841235 8.0263431 16.76124 8.0117188 16.744141 L 8.0097656 16.742188 L 8.0078125 16.742188 L 8.0058594 16.742188 L 8.0039062 16.744141 C 8.0011567 16.751045 8 16.769184 8 16.800781 L 8 8 A 1 1 0 0 0 7 7 z M 3 11 A 1 1 0 0 0 2 12 L 2 20.800781 C 2 21.545226 2.3755082 21.988789 2.6933594 22.306641 C 3.0112105 22.624492 3.4547743 23 4.1992188 23 L 11 23 A 1 1 0 0 0 12 22 A 1 1 0 0 0 11 21 L 4.1992188 21 C 4.230816 21 4.2489552 20.998843 4.2558594 20.996094 L 4.2578125 20.994141 L 4.2578125 20.992188 L 4.2578125 20.990234 L 4.2558594 20.988281 C 4.2387593 20.973658 4.1587637 20.943923 4.1074219 20.892578 C 4.0560789 20.841235 4.026343 20.76124 4.0117188 20.744141 L 4.0097656 20.742188 L 4.0078125 20.742188 L 4.0058594 20.742188 L 4.0039062 20.744141 C 4.0011567 20.751045 4 20.769184 4 20.800781 L 4 12 A 1 1 0 0 0 3 11 z "/>
</svg>
