<?xml version="1.0" encoding="UTF-8" standalone="no"?>
<svg xmlns="http://www.w3.org/2000/svg" xmlns:svg="http://www.w3.org/2000/svg" width="24" height="24" viewBox="0 0 24 24" fill="currentColor" tags="signature" categories="files">
  <path d="M 6 1 C 4.3549936 1 3 2.3549936 3 4 L 3 14 A 1 1 0 0 0 4 15 A 1 1 0 0 0 5 14 L 5 4 C 5 3.4358718 5.4358718 3 6 3 L 13 3 L 13 6 C 13 7.6450064 14.354994 9 16 9 L 19 9 L 19 20 C 19 20.564128 18.564128 21 18 21 L 12 21 A 1 1 0 0 0 11 22 A 1 1 0 0 0 12 23 L 18 23 C 19.645006 23 21 21.645006 21 20 L 21 7 A 1.0001 1.0001 0 0 0 20.707031 6.2929688 L 15.707031 1.2929688 A 1.0001 1.0001 0 0 0 15 1 L 6 1 z M 15 3.4140625 L 18.585938 7 L 16 7 C 15.435872 7 15 6.5641282 15 6 L 15 3.4140625 z M 11.900391 10.941406 C 11.13703 10.939717 10.327836 11.258101 9.6933594 11.892578 L 4.2929688 17.292969 A 1.0001 1.0001 0 0 0 4.0292969 17.757812 L 3.0292969 21.757812 A 1.0001 1.0001 0 0 0 4.2421875 22.970703 L 8.2421875 21.970703 A 1.0001 1.0001 0 0 0 8.7070312 21.707031 L 14.107422 16.306641 C 14.784197 15.629865 15.102136 14.7539 15.054688 13.947266 C 15.007238 13.140631 14.639555 12.424712 14.107422 11.892578 C 13.575288 11.360445 12.859369 10.992761 12.052734 10.945312 C 12.00232 10.942347 11.951281 10.941519 11.900391 10.941406 z M 11.839844 12.939453 C 11.871772 12.938702 11.903564 12.939525 11.935547 12.941406 C 12.19141 12.956456 12.475495 13.088776 12.693359 13.306641 C 12.911224 13.524505 13.043543 13.80859 13.058594 14.064453 C 13.073644 14.320317 13.016584 14.569355 12.693359 14.892578 L 7.4882812 20.097656 L 5.375 20.625 L 5.9023438 18.511719 L 11.107422 13.306641 C 11.390242 13.023821 11.616349 12.944711 11.839844 12.939453 z "/>
</svg>
