<?xml version="1.0" encoding="UTF-8" standalone="no"?>
<svg xmlns="http://www.w3.org/2000/svg" xmlns:svg="http://www.w3.org/2000/svg" width="24" height="24" viewBox="0 0 24 24" fill="currentColor" tags="heart,favourite,bookmark,quick link" categories="files">
  
  <path d="M 6 1 C 4.3549936 1 3 2.3549936 3 4 L 3 6 A 1 1 0 0 0 4 7 A 1 1 0 0 0 5 6 L 5 4 C 5 3.4358718 5.4358718 3 6 3 L 13 3 L 13 8 A 1.0001 1.0001 0 0 0 14 9 L 19 9 L 19 20 C 19 20.564128 18.564128 21 18 21 L 4 21 A 1 1 0 0 0 3 22 A 1 1 0 0 0 4 23 L 18 23 C 19.645006 23 21 21.645006 21 20 L 21 7.5 A 1.0001 1.0001 0 0 0 20.707031 6.7929688 L 15.207031 1.2929688 A 1.0001 1.0001 0 0 0 14.5 1 L 6 1 z M 15 3.9140625 L 18.085938 7 L 15 7 L 15 3.9140625 z M 8.484375 8.9921875 C 8.0661703 9.0028729 7.6459825 9.0899863 7.2460938 9.2578125 C 6.995292 9.3618245 6.7881793 9.5556473 6.5664062 9.7207031 L 6.8476562 9.9921875 L 6.8574219 10.003906 C 6.7469196 9.8930446 6.5832568 9.8841917 6.4609375 9.7910156 C 6.3546285 9.876854 6.2231201 9.9189934 6.1269531 10.019531 L 6.1523438 9.9921875 L 6.3964844 9.7558594 C 5.444507 9.063279 4.2355946 8.7994927 3.125 9.2558594 C 2.6934048 9.4294016 2.3160182 9.6905614 2.0058594 10 C 0.66756289 11.324209 0.68101596 13.623442 2.1992188 15.154297 A 1.0001 1.0001 0 0 0 2.2070312 15.160156 L 5.796875 18.710938 A 1.0001 1.0001 0 0 0 7.2011719 18.712891 L 10.802734 15.162109 A 1.0001 1.0001 0 0 0 10.810547 15.154297 C 12.323636 13.628598 12.325042 11.346102 11.007812 10.021484 A 1.0001 1.0001 0 0 0 10.996094 9.9921875 C 10.504045 9.5007598 9.8858962 9.1828162 9.2304688 9.0546875 C 8.9851613 9.0067327 8.7352978 8.9857763 8.484375 8.9921875 z M 8.5351562 10.990234 C 8.9182725 10.980498 9.2960013 11.126175 9.5800781 11.408203 A 1.0001 1.0001 0 0 0 9.5859375 11.419922 C 10.150131 11.978176 10.270461 12.858925 9.390625 13.746094 L 6.5019531 16.59375 L 3.6171875 13.742188 C 2.7397463 12.854423 2.8532149 11.974865 3.4140625 11.419922 A 1.0001 1.0001 0 0 0 3.4179688 11.417969 C 3.565985 11.269952 3.7062745 11.175303 3.8710938 11.109375 A 1.0001 1.0001 0 0 0 3.8828125 11.103516 C 4.4205061 10.881079 5.0306264 11.003886 5.4414062 11.416016 A 1.0001 1.0001 0 0 0 5.453125 11.427734 L 5.8027344 11.767578 A 1.0001 1.0001 0 0 0 7.1972656 11.767578 L 7.546875 11.427734 A 1.0001 1.0001 0 0 0 7.5722656 11.400391 C 7.6899126 11.277396 7.8455467 11.172277 8.0117188 11.103516 A 1.0001 1.0001 0 0 0 8.0175781 11.101562 C 8.1853613 11.030913 8.3610125 10.99466 8.5351562 10.990234 z "/>
</svg>
