<?xml version="1.0" encoding="UTF-8" standalone="no"?>
<svg xmlns="http://www.w3.org/2000/svg" xmlns:svg="http://www.w3.org/2000/svg" width="24" height="24" viewBox="0 0 24 24" fill="currentColor" tags="number,document" categories="files,development">
  <path d="M 6 1 C 4.3549904 1 3 2.3549904 3 4 L 3 8 A 1 1 0 0 0 4 9 A 1 1 0 0 0 5 8 L 5 4 C 5 3.4358706 5.4358706 3 6 3 L 13 3 L 13 6 C 13 7.6450096 14.35499 9 16 9 L 19 9 L 19 20 C 19 20.564129 18.564129 21 18 21 L 4 21 A 1 1 0 0 0 3 22 A 1 1 0 0 0 4 23 L 18 23 C 19.64501 23 21 21.64501 21 20 L 21 7 A 1.0001 1.0001 0 0 0 20.707031 6.2929688 L 15.707031 1.2929688 A 1.0001 1.0001 0 0 0 15 1 L 6 1 z M 15 3.4140625 L 18.585938 7 L 16 7 C 15.435871 7 15 6.5641294 15 6 L 15 3.4140625 z M 4 11 C 2.3552972 11 1 12.355297 1 14 L 1 16 C 1 17.644703 2.3552972 19 4 19 C 5.6447028 19 7 17.644703 7 16 L 7 14 C 7 12.355297 5.6447028 11 4 11 z M 10 11 A 1 1 0 0 0 9 12 A 1 1 0 0 0 10 13 L 11 13 L 11 17 L 10 17 A 1 1 0 0 0 9 18 A 1 1 0 0 0 10 19 L 12 19 L 14 19 A 1 1 0 0 0 15 18 A 1 1 0 0 0 14 17 L 13 17 L 13 12 A 1.0001 1.0001 0 0 0 12 11 L 10 11 z M 4 13 C 4.5712972 13 5 13.428703 5 14 L 5 16 C 5 16.571297 4.5712972 17 4 17 C 3.4287028 17 3 16.571297 3 16 L 3 14 C 3 13.428703 3.4287028 13 4 13 z "/>
</svg>
