<?xml version="1.0" encoding="UTF-8" standalone="no"?>
<svg xmlns="http://www.w3.org/2000/svg" xmlns:svg="http://www.w3.org/2000/svg" width="24" height="24" viewBox="0 0 24 24" fill="currentColor" tags="box,package,model" categories="files">
  <path d="M 6 1 C 4.3549936 1 3 2.3549936 3 4 L 3 8 A 1 1 0 0 0 4 9 A 1 1 0 0 0 5 8 L 5 4 C 5 3.4358718 5.4358718 3 6 3 L 13 3 L 13 6 C 13 7.6450064 14.354994 9 16 9 L 19 9 L 19 20 C 19 20.564128 18.564128 21 18 21 L 14.5 21 A 1 1 0 0 0 13.5 22 A 1 1 0 0 0 14.5 23 L 18 23 C 19.645006 23 21 21.645006 21 20 L 21 7 A 1.0001 1.0001 0 0 0 20.707031 6.2929688 L 15.707031 1.2929688 A 1.0001 1.0001 0 0 0 15 1 L 6 1 z M 15 3.4140625 L 18.585938 7 L 16 7 C 15.435872 7 15 6.5641282 15 6 L 15 3.4140625 z M 6.9921875 10.019531 C 6.4654559 10.016931 5.9371916 10.151834 5.4667969 10.425781 A 1.0001 1.0001 0 0 0 5.4492188 10.435547 L 2.5 12.234375 C 1.560185 12.776837 0.98489637 13.788017 1 14.873047 L 1 18.068359 C 0.96469874 19.154219 1.5237884 20.176973 2.4550781 20.736328 L 5.484375 22.556641 A 1.0001 1.0001 0 0 0 5.4882812 22.558594 C 5.881115 22.792585 6.3148573 22.927361 6.7558594 22.966797 A 1 1 0 0 0 7 23 A 1 1 0 0 0 7.2285156 22.972656 C 7.6813527 22.942006 8.1280761 22.810154 8.5332031 22.574219 A 1.0001 1.0001 0 0 0 8.5507812 22.564453 L 11.5 20.765625 C 12.439815 20.223163 13.015104 19.211983 13 18.126953 L 13 14.931641 C 13.0353 13.845781 12.476212 12.823027 11.544922 12.263672 L 8.515625 10.443359 A 1.0001 1.0001 0 0 0 8.5117188 10.441406 C 8.0440495 10.162885 7.5189191 10.022126 6.9921875 10.019531 z M 6.9804688 12.019531 C 7.1545901 12.02021 7.3281192 12.066003 7.484375 12.158203 L 10.320312 13.859375 L 7 15.835938 L 3.6777344 13.857422 L 6.4726562 12.154297 L 6.4746094 12.154297 C 6.6316329 12.063282 6.8063474 12.018853 6.9804688 12.019531 z M 3 15.78125 L 6 17.568359 L 6 20.533203 L 3.484375 19.023438 C 3.1717203 18.835865 2.9881529 18.497228 3 18.132812 A 1.0001 1.0001 0 0 0 3 18.130859 A 1.0001 1.0001 0 0 0 3 18.128906 A 1.0001 1.0001 0 0 0 3 18.126953 A 1.0001 1.0001 0 0 0 3 18.125 A 1.0001 1.0001 0 0 0 3 18.123047 A 1.0001 1.0001 0 0 0 3 18.121094 A 1.0001 1.0001 0 0 0 3 18.119141 A 1.0001 1.0001 0 0 0 3 18.117188 A 1.0001 1.0001 0 0 0 3 18.115234 A 1.0001 1.0001 0 0 0 3 18.113281 A 1.0001 1.0001 0 0 0 3 18.111328 A 1.0001 1.0001 0 0 0 3 18.109375 A 1.0001 1.0001 0 0 0 3 18.107422 A 1.0001 1.0001 0 0 0 3 18.105469 A 1.0001 1.0001 0 0 0 3 18.103516 A 1.0001 1.0001 0 0 0 3 18.101562 A 1.0001 1.0001 0 0 0 3 18.099609 L 3 15.78125 z M 11 15.78125 L 11 18.140625 A 1.0001 1.0001 0 0 0 11 18.154297 C 11.0051 18.518257 10.815249 18.851241 10.5 19.033203 A 1.0001 1.0001 0 0 0 10.480469 19.046875 L 8 20.558594 L 8 17.568359 L 11 15.78125 z "/>
</svg>
