<?xml version="1.0" encoding="UTF-8" standalone="no"?>
<svg xmlns="http://www.w3.org/2000/svg" xmlns:svg="http://www.w3.org/2000/svg" width="24" height="24" viewBox="0 0 24 24" fill="currentColor" tags="executable,settings,cog,edit,gear" categories="files">
  <path d="M 6 1 C 4.3549936 1 3 2.3549936 3 4 L 3 6 A 1 1 0 0 0 4 7 A 1 1 0 0 0 5 6 L 5 4 C 5 3.4358718 5.4358718 3 6 3 L 13 3 L 13 6 C 13 7.6450064 14.354994 9 16 9 L 19 9 L 19 20 C 19 20.564128 18.564128 21 18 21 L 4 21 A 1 1 0 0 0 3 22 A 1 1 0 0 0 4 23 L 18 23 C 19.645006 23 21 21.645006 21 20 L 21 7 A 1.0001 1.0001 0 0 0 20.707031 6.2929688 L 15.707031 1.2929688 A 1.0001 1.0001 0 0 0 15 1 L 6 1 z M 15 3.4140625 L 18.585938 7 L 16 7 C 15.435872 7 15 6.5641282 15 6 L 15 3.4140625 z M 6 9 A 1 1 0 0 0 5 10 L 5 10.128906 C 4.6347436 10.22406 4.2903005 10.370001 3.9726562 10.558594 L 3.7070312 10.292969 A 1 1 0 0 0 3 10 A 1 1 0 0 0 2.2929688 10.292969 A 1 1 0 0 0 2.2929688 11.707031 L 2.5585938 11.972656 C 2.370001 12.290301 2.2240596 12.634744 2.1289062 13 L 2 13 A 1 1 0 0 0 1 14 A 1 1 0 0 0 2 15 L 2.1289062 15 C 2.2240596 15.365256 2.370001 15.709699 2.5585938 16.027344 L 2.2929688 16.292969 A 1 1 0 0 0 2.2929688 17.707031 A 1 1 0 0 0 3.7070312 17.707031 L 3.9726562 17.441406 C 4.2903005 17.629999 4.6347436 17.77594 5 17.871094 L 5 18 A 1 1 0 0 0 6 19 A 1 1 0 0 0 7 18 L 7 17.871094 C 7.3652564 17.77594 7.7096995 17.629999 8.0273438 17.441406 L 8.2929688 17.707031 A 1 1 0 0 0 9.7070312 17.707031 A 1 1 0 0 0 9.7070312 16.292969 L 9.4414062 16.027344 C 9.629999 15.709699 9.7759404 15.365256 9.8710938 15 L 10 15 A 1 1 0 0 0 11 14 A 1 1 0 0 0 10 13 L 9.8710938 13 C 9.7759404 12.634744 9.629999 12.290301 9.4414062 11.972656 L 9.7070312 11.707031 A 1 1 0 0 0 9.7070312 10.292969 A 1 1 0 0 0 9 10 A 1 1 0 0 0 8.2929688 10.292969 L 8.0273438 10.558594 C 7.7096995 10.370001 7.3652564 10.22406 7 10.128906 L 7 10 A 1 1 0 0 0 6 9 z M 6 12 C 6.5349474 12 7.014655 12.204913 7.3710938 12.539062 A 1 1 0 0 0 7.4121094 12.587891 A 1 1 0 0 0 7.4609375 12.628906 C 7.7950868 12.985345 8 13.465053 8 14 C 8 14.534947 7.7950868 15.014655 7.4609375 15.371094 A 1 1 0 0 0 7.4121094 15.412109 A 1 1 0 0 0 7.3710938 15.460938 C 7.014655 15.795087 6.5349474 16 6 16 C 5.475146 16 5.0027559 15.803428 4.6484375 15.480469 A 1 1 0 0 0 4.5878906 15.412109 A 1 1 0 0 0 4.5371094 15.369141 C 4.2040853 15.012904 4 14.533938 4 14 C 4 13.465053 4.2049132 12.985345 4.5390625 12.628906 A 1 1 0 0 0 4.5878906 12.587891 A 1 1 0 0 0 4.6484375 12.519531 C 5.0027559 12.196572 5.475146 12 6 12 z "/>
</svg>
