<svg xmlns="http://www.w3.org/2000/svg" xmlns:svg="http://www.w3.org/2000/svg" width="24" height="24" viewBox="0 0 24 24" fill="currentColor" tags="number,document" categories="files,development">
  <path d="M 6 1 C 4.3549904 1 3 2.3549904 3 4 L 3 12 A 1 1 0 0 0 4 13 A 1 1 0 0 0 5 12 L 5 4 C 5 3.4358706 5.4358706 3 6 3 L 13 3 L 13 7 C 13 8.0927249 13.907275 9 15 9 L 19 9 L 19 20 C 19 20.564129 18.564129 21 18 21 A 1 1 0 0 0 17 22 A 1 1 0 0 0 18 23 C 19.64501 23 21 21.64501 21 20 L 21 8.0019531 L 21 8 C 21.001701 7.0943483 20.641585 6.225212 20 5.5859375 L 16.414062 2 C 15.774788 1.3584154 14.905652 0.99829936 14 1 L 6 1 z M 15 3.4160156 L 18.583984 7 L 15 7 L 15 3.4160156 z M 4 15 C 2.3552972 15 1 16.355297 1 18 L 1 20 C 1 21.644703 2.3552972 23 4 23 C 5.6447028 23 7 21.644703 7 20 L 7 18 C 7 16.355297 5.6447028 15 4 15 z M 10 15 A 1 1 0 0 0 9 16 A 1 1 0 0 0 10 17 L 11 17 L 11 21 L 10 21 A 1 1 0 0 0 9 22 A 1 1 0 0 0 10 23 L 14 23 A 1 1 0 0 0 15 22 A 1 1 0 0 0 14 21 L 13 21 L 13 16 A 1.0001 1.0001 0 0 0 12 15 L 10 15 z M 4 17 C 4.5712972 17 5 17.428703 5 18 L 5 20 C 5 20.571297 4.5712972 21 4 21 C 3.4287028 21 3 20.571297 3 20 L 3 18 C 3 17.428703 3.4287028 17 4 17 z "/>
</svg>
