<?xml version="1.0" encoding="UTF-8" standalone="no"?>
<svg xmlns="http://www.w3.org/2000/svg" xmlns:svg="http://www.w3.org/2000/svg" width="24" height="24" viewBox="0 0 24 24" fill="currentColor" tags="music,audio,sound,headphones" categories="files">
  
  <path d="M 6 1 C 4.3549936 1 3 2.3549936 3 4 L 3 7 A 1 1 0 0 0 4 8 A 1 1 0 0 0 5 7 L 5 4 C 5 3.4358718 5.4358718 3 6 3 L 13 3 L 13 6 C 13 7.6450064 14.354994 9 16 9 L 19 9 L 19 20 C 19 20.564128 18.564128 21 18 21 L 17.5 21 A 1 1 0 0 0 16.5 22 A 1 1 0 0 0 17.5 23 L 18 23 C 19.645006 23 21 21.645006 21 20 L 21 7 A 1.0001 1.0001 0 0 0 20.707031 6.2929688 L 15.707031 1.2929688 A 1.0001 1.0001 0 0 0 15 1 L 6 1 z M 15 3.4140625 L 18.585938 7 L 16 7 C 15.435872 7 15 6.5641282 15 6 L 15 3.4140625 z M 8 9 C 4.1458602 9 1 12.145857 1 16 L 1 19 L 1 20 C 1 20.916665 1.3797568 21.731441 1.9609375 22.248047 C 2.5421182 22.764651 3.2777793 23 4 23 C 4.7222207 23 5.4578818 22.764651 6.0390625 22.248047 C 6.6202432 21.731441 7 20.916665 7 20 L 7 19 C 7 18.083335 6.6202432 17.268559 6.0390625 16.751953 C 5.4578818 16.235349 4.7222207 16 4 16 C 3.6457654 16 3.3409605 16.250332 3 16.369141 L 3 16 C 3 13.226735 5.2267363 11 8 11 C 10.773263 11 13 13.226735 13 16 L 13 16.369141 C 12.659039 16.250332 12.354235 16 12 16 C 11.27778 16 10.542118 16.235349 9.9609375 16.751953 C 9.3797568 17.268559 9 18.083335 9 19 L 9 20 C 9 20.916665 9.3797568 21.731441 9.9609375 22.248047 C 10.542118 22.764651 11.27778 23 12 23 C 12.72222 23 13.457881 22.764651 14.039062 22.248047 C 14.620243 21.731441 15 20.916665 15 20 L 15 19 L 15 16 C 15 12.145857 11.85414 9 8 9 z M 4 18 C 4.2777773 18 4.5421198 18.09799 4.7109375 18.248047 C 4.8797552 18.398107 5 18.583334 5 19 L 5 20 C 5 20.416666 4.8797552 20.601893 4.7109375 20.751953 C 4.5421198 20.902013 4.2777773 21 4 21 C 3.7222227 21 3.4578802 20.902013 3.2890625 20.751953 C 3.1202448 20.601893 3 20.416666 3 20 L 3 19 C 3 18.583334 3.1202448 18.398107 3.2890625 18.248047 C 3.4578802 18.097987 3.7222227 18 4 18 z M 12 18 C 12.277778 18 12.54212 18.09799 12.710938 18.248047 C 12.879754 18.398107 13 18.583334 13 19 L 13 20 C 13 20.416666 12.879754 20.601893 12.710938 20.751953 C 12.54212 20.902013 12.277778 21 12 21 C 11.722222 21 11.457879 20.902013 11.289062 20.751953 C 11.120245 20.601893 11 20.416666 11 20 L 11 19 C 11 18.583334 11.120245 18.398107 11.289062 18.248047 C 11.457879 18.097987 11.722222 18 12 18 z "/>
</svg>
