<?xml version="1.0" encoding="UTF-8" standalone="no"?>
<svg xmlns="http://www.w3.org/2000/svg" xmlns:svg="http://www.w3.org/2000/svg" width="24" height="24" viewBox="0 0 24 24" fill="currentColor" tags="music,audio,sound,headphones" categories="files">
  <path d="M 6 1 C 4.3549904 1 3 2.3549904 3 4 L 3 7 A 1 1 0 0 0 4 8 A 1 1 0 0 0 5 7 L 5 4 C 5 3.4358706 5.4358706 3 6 3 L 13 3 L 13 6 C 13 7.6450096 14.35499 9 16 9 L 19 9 L 19 20 C 19 20.564129 18.564129 21 18 21 L 17.5 21 A 1 1 0 0 0 16.5 22 A 1 1 0 0 0 17.5 23 L 18 23 C 19.64501 23 21 21.64501 21 20 L 21 7 A 1.0001 1.0001 0 0 0 20.707031 6.2929688 L 15.707031 1.2929688 A 1.0001 1.0001 0 0 0 15 1 L 6 1 z M 15 3.4140625 L 18.585938 7 L 16 7 C 15.435871 7 15 6.5641294 15 6 L 15 3.4140625 z M 8 9 C 4.1458524 9 1 12.145849 1 16 L 1 19 L 1 20 C 1 20.916666 1.3797556 21.731441 1.9609375 22.248047 C 2.5421194 22.764653 3.2777779 23 4 23 C 4.7222221 23 5.4578806 22.764653 6.0390625 22.248047 C 6.6202444 21.731441 7 20.916666 7 20 L 7 19 C 7 18.083334 6.6202444 17.268559 6.0390625 16.751953 C 5.4578806 16.235347 4.7222221 16 4 16 C 3.6457646 16 3.3409611 16.250332 3 16.369141 L 3 16 C 3 13.226729 5.2267307 11 8 11 C 10.773269 11 13 13.226729 13 16 L 13 16.369141 C 12.659039 16.250332 12.354235 16 12 16 C 11.277778 16 10.542119 16.235347 9.9609375 16.751953 C 9.3797556 17.268559 9 18.083334 9 19 L 9 20 C 9 20.916666 9.3797556 21.731441 9.9609375 22.248047 C 10.542119 22.764653 11.277778 23 12 23 C 12.722222 23 13.45788 22.764653 14.039062 22.248047 C 14.620243 21.731441 15 20.916666 15 20 L 15 19 L 15 16 C 15 12.145849 11.854148 9 8 9 z M 4 18 C 4.2777779 18 4.5421194 18.09799 4.7109375 18.248047 C 4.8797556 18.398107 5 18.583334 5 19 L 5 20 C 5 20.416666 4.8797556 20.601893 4.7109375 20.751953 C 4.5421194 20.902014 4.2777779 21 4 21 C 3.7222221 21 3.4578806 20.902014 3.2890625 20.751953 C 3.1202444 20.601893 3 20.416666 3 20 L 3 19 C 3 18.583334 3.1202444 18.398107 3.2890625 18.248047 C 3.4578806 18.097986 3.7222221 18 4 18 z M 12 18 C 12.277778 18 12.542119 18.09799 12.710938 18.248047 C 12.879755 18.398107 13 18.583334 13 19 L 13 20 C 13 20.416666 12.879756 20.601893 12.710938 20.751953 C 12.542118 20.902014 12.277778 21 12 21 C 11.722222 21 11.45788 20.902014 11.289062 20.751953 C 11.120243 20.601893 11 20.416666 11 20 L 11 19 C 11 18.583334 11.120244 18.398107 11.289062 18.248047 C 11.45788 18.097986 11.722222 18 12 18 z "/>
</svg>
