<?xml version="1.0" encoding="UTF-8" standalone="no"?>
<svg xmlns="http://www.w3.org/2000/svg" xmlns:svg="http://www.w3.org/2000/svg" width="24" height="24" viewBox="0 0 24 24" fill="currentColor" tags="lost,delete,remove,document" categories="files">
  <path d="M 6 1 C 4.3549936 1 3 2.3549936 3 4 L 3 20 C 3 21.645006 4.3549936 23 6 23 L 18 23 C 19.645006 23 21 21.645006 21 20 L 21 7 A 1.0001 1.0001 0 0 0 20.707031 6.2929688 L 15.707031 1.2929688 A 1.0001 1.0001 0 0 0 15 1 L 6 1 z M 6 3 L 13 3 L 13 6 C 13 7.6450064 14.354994 9 16 9 L 19 9 L 19 20 C 19 20.564128 18.564128 21 18 21 L 6 21 C 5.4358718 21 5 20.564128 5 20 L 5 4 C 5 3.4358718 5.4358718 3 6 3 z M 15 3.4140625 L 18.585938 7 L 16 7 C 15.435872 7 15 6.5641282 15 6 L 15 3.4140625 z M 9.5 11.5 A 1 1 0 0 0 8.7929688 11.792969 A 1 1 0 0 0 8.7929688 13.207031 L 10.585938 15 L 8.7929688 16.792969 A 1 1 0 0 0 8.7929688 18.207031 A 1 1 0 0 0 10.207031 18.207031 L 12 16.414062 L 13.792969 18.207031 A 1 1 0 0 0 15.207031 18.207031 A 1 1 0 0 0 15.207031 16.792969 L 13.414062 15 L 15.207031 13.207031 A 1 1 0 0 0 15.207031 11.792969 A 1 1 0 0 0 14.5 11.5 A 1 1 0 0 0 13.792969 11.792969 L 12 13.585938 L 10.207031 11.792969 A 1 1 0 0 0 9.5 11.5 z "/>
</svg>
