<?xml version="1.0" encoding="UTF-8" standalone="no"?>
<svg xmlns="http://www.w3.org/2000/svg" xmlns:svg="http://www.w3.org/2000/svg" width="24" height="24" viewBox="0 0 24 24" fill="currentColor" tags="lock,password,security" categories="files,security">
  <path d="M 6 1 C 4.3549904 1 3 2.3549904 3 4 L 3 20 C 3 21.64501 4.3549904 23 6 23 L 18 23 C 19.64501 23 21 21.64501 21 20 L 21 7 A 1.0001 1.0001 0 0 0 20.707031 6.2929688 L 15.707031 1.2929688 A 1.0001 1.0001 0 0 0 15 1 L 6 1 z M 6 3 L 14.585938 3 L 19 7.4140625 L 19 20 C 19 20.564129 18.564129 21 18 21 L 6 21 C 5.4358706 21 5 20.564129 5 20 L 5 4 C 5 3.4358706 5.4358706 3 6 3 z M 12 7 C 11.277778 7 10.542119 7.2353472 9.9609375 7.7519531 C 9.3797556 8.268559 9 9.0833335 9 10 L 9 11 C 7.9092972 11 7 11.909297 7 13 L 7 17 C 7 18.090703 7.9092972 19 9 19 L 15 19 C 16.090703 19 17 18.090703 17 17 L 17 13 C 17 11.909297 16.090703 11 15 11 L 15 10 C 15 9.0833335 14.620244 8.268559 14.039062 7.7519531 C 13.45788 7.2353472 12.722222 7 12 7 z M 12 9 C 12.277778 9 12.542119 9.0979864 12.710938 9.2480469 C 12.879755 9.3981073 13 9.5833337 13 10 L 13 11 L 11 11 L 11 10 C 11 9.5833337 11.120244 9.3981073 11.289062 9.2480469 C 11.45788 9.0979864 11.722222 9 12 9 z M 9 13 L 10 13 L 14 13 L 15 13 L 15 17 L 9 17 L 9 13 z "/>
</svg>
