<?xml version="1.0" encoding="UTF-8" standalone="no"?>
<svg xmlns="http://www.w3.org/2000/svg" xmlns:svg="http://www.w3.org/2000/svg" width="24" height="24" viewBox="0 0 24 24" fill="currentColor" tags="audio,music,volume" categories="files">
  <path d="M 6 1 C 4.3549936 1 3 2.3549936 3 4 L 3 7 A 1 1 0 0 0 4 8 A 1 1 0 0 0 5 7 L 5 4 C 5 3.4358718 5.4358718 3 6 3 L 13 3 L 13 6 C 13 7.6450064 14.354994 9 16 9 L 19 9 L 19 20 C 19 20.564128 18.564128 21 18 21 L 4 21 A 1 1 0 0 0 3 22 A 1 1 0 0 0 4 23 L 18 23 C 19.645006 23 21 21.645006 21 20 L 21 7 A 1.0001 1.0001 0 0 0 20.707031 6.2929688 L 15.707031 1.2929688 A 1.0001 1.0001 0 0 0 15 1 L 6 1 z M 15 3.4140625 L 18.585938 7 L 16 7 C 15.435872 7 15 6.5641282 15 6 L 15 3.4140625 z M 6.953125 9.0019531 A 1.0001 1.0001 0 0 0 6.4453125 9.1679688 L 3.6972656 11 L 2 11 A 1.0001 1.0001 0 0 0 1 12 L 1 16 A 1.0001 1.0001 0 0 0 2 17 L 3.6972656 17 L 6.4453125 18.832031 A 1.0001 1.0001 0 0 0 8 18 L 8 10 A 1.0001 1.0001 0 0 0 7.4726562 9.1191406 A 1.0001 1.0001 0 0 0 6.953125 9.0019531 z M 10.880859 10.007812 A 1 1 0 0 0 10.400391 10.199219 A 1 1 0 0 0 10.199219 11.599609 C 11.26855 13.025385 11.26855 14.974615 10.199219 16.400391 A 1 1 0 0 0 10.400391 17.800781 A 1 1 0 0 0 11.800781 17.599609 C 13.398112 15.469837 13.398112 12.530163 11.800781 10.400391 A 1 1 0 0 0 11.140625 10.009766 A 1 1 0 0 0 10.880859 10.007812 z M 6 11.869141 L 6 16.130859 L 4.5546875 15.167969 A 1.0001 1.0001 0 0 0 4 15 L 3 15 L 3 13 L 4 13 A 1.0001 1.0001 0 0 0 4.5546875 12.832031 L 6 11.869141 z "/>
</svg>
