<?xml version="1.0" encoding="UTF-8" standalone="no"?>
<svg xmlns="http://www.w3.org/2000/svg" xmlns:svg="http://www.w3.org/2000/svg" width="24" height="24" viewBox="0 0 24 24" fill="currentColor" tags="statistics,analytics,diagram,graph,presentation" categories="files">
  <path d="M 6 1 C 4.3549936 1 3 2.3549936 3 4 L 3 7.5 A 1 1 0 0 0 4 8.5 A 1 1 0 0 0 5 7.5 L 5 4 C 5 3.4358718 5.4358718 3 6 3 L 13 3 L 13 6 C 13 7.6450064 14.354994 9 16 9 L 19 9 L 19 20 C 19 20.564128 18.564128 21 18 21 L 16 21 A 1 1 0 0 0 15 22 A 1 1 0 0 0 16 23 L 18 23 C 19.645006 23 21 21.645006 21 20 L 21 7 A 1.0001 1.0001 0 0 0 20.707031 6.2929688 L 15.707031 1.2929688 A 1.0001 1.0001 0 0 0 15 1 L 6 1 z M 15 3.4140625 L 18.585938 7 L 16 7 C 15.435872 7 15 6.5641282 15 6 L 15 3.4140625 z M 8 9 A 1.0001 1.0001 0 0 0 7 10 L 7 16 A 1.0001 1.0001 0 0 0 8 17 L 14 17 A 1.0001 1.0001 0 0 0 15 16 C 15 12.145859 11.854141 9 8 9 z M 4.0761719 10.513672 A 1 1 0 0 0 3.3535156 10.763672 C 0.35113305 13.428122 0.20993679 18.107311 3.046875 20.947266 C 5.8838132 23.78722 10.56283 23.651894 13.230469 20.652344 A 1 1 0 0 0 13.148438 19.240234 A 1 1 0 0 0 11.736328 19.322266 C 9.8147036 21.482981 6.50647 21.578955 4.4628906 19.533203 C 2.4193114 17.487451 2.5188843 14.179093 4.6816406 12.259766 A 1 1 0 0 0 4.765625 10.847656 A 1 1 0 0 0 4.0761719 10.513672 z M 9 11.201172 C 10.937766 11.605092 12.394908 13.062234 12.798828 15 L 9 15 L 9 11.201172 z "/>
</svg>
