<?xml version="1.0" encoding="UTF-8" standalone="no"?>
<svg xmlns="http://www.w3.org/2000/svg" xmlns:svg="http://www.w3.org/2000/svg" width="24" height="24" viewBox="0 0 24 24" fill="currentColor" tags="lost,document,find,browser" categories="files">
  <path d="M 6 1 C 4.3549936 1 3 2.3549936 3 4 L 3 7 A 1 1 0 0 0 4 8 A 1 1 0 0 0 5 7 L 5 4 C 5 3.4358718 5.4358718 3 6 3 L 13 3 L 13 6 C 13 7.6450064 14.354994 9 16 9 L 19 9 L 19 20 C 19 20.564128 18.564128 21 18 21 L 4 21 A 1 1 0 0 0 3 22 A 1 1 0 0 0 4 23 L 18 23 C 19.645006 23 21 21.645006 21 20 L 21 7 A 1.0001 1.0001 0 0 0 20.707031 6.2929688 L 15.707031 1.2929688 A 1.0001 1.0001 0 0 0 15 1 L 6 1 z M 15 3.4140625 L 18.585938 7 L 16 7 C 15.435872 7 15 6.5641282 15 6 L 15 3.4140625 z M 5 10 C 2.80271 10 1 11.80271 1 14 C 1 16.19729 2.80271 18 5 18 C 5.7384787 18 6.4314601 17.795196 7.0273438 17.441406 L 8.2929688 18.707031 A 1 1 0 0 0 9.7070312 18.707031 A 1 1 0 0 0 9.7070312 17.292969 L 8.4414062 16.027344 C 8.7951961 15.43146 9 14.738479 9 14 C 9 11.80271 7.19729 10 5 10 z M 5 12 C 6.1164119 12 7 12.883588 7 14 C 7 15.116412 6.1164119 16 5 16 C 3.8835881 16 3 15.116412 3 14 C 3 12.883588 3.8835881 12 5 12 z "/>
</svg>
