<?xml version="1.0" encoding="UTF-8" standalone="no"?>
<svg xmlns="http://www.w3.org/2000/svg" xmlns:svg="http://www.w3.org/2000/svg" width="24" height="24" viewBox="0 0 24 24" fill="currentColor" tags="model,3d,axis,coordinates" categories="design,files">
  
  <path d="M 6 1 C 4.3549936 1 3 2.3549936 3 4 L 3 20 C 3 21.645006 4.3549936 23 6 23 L 18 23 C 19.645006 23 21 21.645006 21 20 L 21 7 A 1.0001 1.0001 0 0 0 20.707031 6.2929688 L 15.707031 1.2929688 A 1.0001 1.0001 0 0 0 15 1 L 6 1 z M 6 3 L 13 3 L 13 6 C 13 7.6450064 14.354994 9 16 9 L 19 9 L 19 20 C 19 20.564128 18.564128 21 18 21 L 6 21 C 5.4358718 21 5 20.564128 5 20 L 5 4 C 5 3.4358718 5.4358718 3 6 3 z M 15 3.4140625 L 18.585938 7 L 16 7 C 15.435872 7 15 6.5641282 15 6 L 15 3.4140625 z M 8 9 A 1 1 0 0 0 7 10 L 7 18 A 1.0001 1.0001 0 0 0 7.0058594 18.037109 A 1 1 0 0 0 7.0429688 18.269531 A 1.0001 1.0001 0 0 0 7.0546875 18.318359 A 1 1 0 0 0 7.1777344 18.560547 A 1.0001 1.0001 0 0 0 7.2265625 18.623047 A 1 1 0 0 0 7.2929688 18.707031 A 1 1 0 0 0 7.3769531 18.773438 A 1.0001 1.0001 0 0 0 7.4394531 18.822266 A 1 1 0 0 0 7.6816406 18.945312 A 1.0001 1.0001 0 0 0 7.7304688 18.957031 A 1 1 0 0 0 7.9628906 18.994141 A 1.0001 1.0001 0 0 0 8 19 L 16 19 A 1 1 0 0 0 17 18 A 1 1 0 0 0 16 17 L 10.414062 17 L 12.707031 14.707031 A 1 1 0 0 0 12.707031 13.292969 A 1 1 0 0 0 12 13 A 1 1 0 0 0 11.292969 13.292969 L 9 15.585938 L 9 10 A 1 1 0 0 0 8 9 z "/>
</svg>
