<?xml version="1.0" encoding="UTF-8" standalone="no"?>
<svg xmlns="http://www.w3.org/2000/svg" xmlns:svg="http://www.w3.org/2000/svg" width="24" height="24" viewBox="0 0 24 24" fill="currentColor" tags="image,graphics,photo,picture" categories="files">
  
  <path d="M 6 1 C 4.3549936 1 3 2.3549936 3 4 L 3 20 C 3 21.645006 4.3549936 23 6 23 L 18 23 C 19.645006 23 21 21.645006 21 20 L 21 17 L 21 7 A 1.0001 1.0001 0 0 0 20.707031 6.2929688 L 15.707031 1.2929688 A 1.0001 1.0001 0 0 0 15 1 L 6 1 z M 6 3 L 13 3 L 13 6 C 13 7.6450064 14.354994 9 16 9 L 19 9 L 19 14.734375 C 18.535049 14.466961 18.013691 14.332122 17.490234 14.333984 C 16.726547 14.336684 15.962848 14.626465 15.384766 15.201172 A 1.0001 1.0001 0 0 0 15.382812 15.203125 L 9.5859375 21 L 6 21 C 5.4358718 21 5 20.564128 5 20 L 5 4 C 5 3.4358718 5.4358718 3 6 3 z M 15 3.4140625 L 18.585938 7 L 16 7 C 15.435872 7 15 6.5641282 15 6 L 15 3.4140625 z M 10 10 C 8.3549936 10 7 11.354994 7 13 C 7 14.645006 8.3549936 16 10 16 C 11.645006 16 13 14.645006 13 13 C 13 11.354994 11.645006 10 10 10 z M 10 12 C 10.564128 12 11 12.435872 11 13 C 11 13.564128 10.564128 14 10 14 C 9.4358718 14 9 13.564128 9 13 C 9 12.435872 9.4358718 12 10 12 z M 17.498047 16.322266 C 17.749325 16.321479 18.000086 16.418107 18.199219 16.613281 L 19 17.414062 L 19 20 C 19 20.564128 18.564128 21 18 21 L 12.414062 21 L 16.794922 16.619141 L 16.796875 16.617188 C 16.994971 16.421262 17.246768 16.323053 17.498047 16.322266 z "/>
</svg>
