<?xml version="1.0" encoding="UTF-8" standalone="no"?>
<svg xmlns="http://www.w3.org/2000/svg" xmlns:svg="http://www.w3.org/2000/svg" width="24" height="24" viewBox="0 0 24 24" fill="currentColor" tags="lock,password,security" categories="files,security">
  <path d="M 6 1 C 4.3549904 1 3 2.3549904 3 4 L 3 5 A 1 1 0 0 0 4 6 A 1 1 0 0 0 5 5 L 5 4 C 5 3.4358706 5.4358706 3 6 3 L 13 3 L 13 6 C 13 7.6450096 14.35499 9 16 9 L 19 9 L 19 20 C 19 20.564129 18.564129 21 18 21 L 4 21 A 1 1 0 0 0 3 22 A 1 1 0 0 0 4 23 L 18 23 C 19.64501 23 21 21.64501 21 20 L 21 7 A 1.0001 1.0001 0 0 0 20.707031 6.2929688 L 15.707031 1.2929688 A 1.0001 1.0001 0 0 0 15 1 L 6 1 z M 15 3.4140625 L 18.585938 7 L 16 7 C 15.435871 7 15 6.5641294 15 6 L 15 3.4140625 z M 6 8 C 5.2777779 8 4.5421194 8.2353472 3.9609375 8.7519531 C 3.3797556 9.268559 3 10.083334 3 11 L 3 12 C 1.9092972 12 1 12.909297 1 14 L 1 17 C 1 18.090703 1.9092972 19 3 19 L 9 19 C 10.090703 19 11 18.090703 11 17 L 11 14 C 11 12.909297 10.090703 12 9 12 L 9 11 C 9 10.083334 8.6202444 9.268559 8.0390625 8.7519531 C 7.4578806 8.2353472 6.7222221 8 6 8 z M 6 10 C 6.2777779 10 6.5421194 10.097986 6.7109375 10.248047 C 6.8797556 10.398107 7 10.583334 7 11 L 7 12 L 5 12 L 5 11 C 5 10.583334 5.1202444 10.398107 5.2890625 10.248047 C 5.4578806 10.097986 5.7222221 10 6 10 z M 3 14 L 4 14 L 8 14 L 9 14 L 9 17 L 3 17 L 3 14 z "/>
</svg>
