<svg xmlns="http://www.w3.org/2000/svg" xmlns:svg="http://www.w3.org/2000/svg" width="24" height="24" viewBox="0 0 24 24" fill="currentColor" tags="lost,document,find,browser,lens" categories="files">
  <path d="M 6 1 C 4.3549904 1 3 2.3549904 3 4 L 3 20 C 3 21.64501 4.3549904 23 6 23 L 11.099609 23 A 1 1 0 0 0 12.099609 22 A 1 1 0 0 0 11.099609 21 L 6 21 C 5.4358706 21 5 20.564129 5 20 L 5 4 C 5 3.4358706 5.4358706 3 6 3 L 13 3 L 13 7 C 13 8.0927249 13.907275 9 15 9 L 19 9 L 19 11.25 A 1 1 0 0 0 20 12.25 A 1 1 0 0 0 21 11.25 L 21 8.0019531 L 21 8 C 21.002075 7.0945528 20.643018 6.2254445 20.001953 5.5859375 L 16.414062 2 L 16.412109 1.9980469 C 15.773064 1.3576834 14.904731 0.99830109 14 1 L 6 1 z M 15 3.4160156 L 18.585938 7 L 15 7 L 15 3.4160156 z M 16 13 C 13.802706 13 12 14.802706 12 17 C 12 19.197294 13.802706 21 16 21 C 16.738545 21 17.433377 20.797207 18.029297 20.443359 L 20.292969 22.707031 A 1 1 0 0 0 21.707031 22.707031 A 1 1 0 0 0 21.707031 21.292969 L 19.443359 19.029297 C 19.797207 18.433377 20 17.738545 20 17 C 20 14.802706 18.197294 13 16 13 z M 16 15 C 17.116414 15 18 15.883586 18 17 C 18 17.517795 17.809355 17.98519 17.494141 18.337891 A 1 1 0 0 0 17.412109 18.412109 A 1 1 0 0 0 17.337891 18.494141 C 16.98519 18.809355 16.517795 19 16 19 C 14.883586 19 14 18.116414 14 17 C 14 15.883586 14.883586 15 16 15 z "/>
</svg>
