<?xml version="1.0" encoding="UTF-8" standalone="no"?>
<svg xmlns="http://www.w3.org/2000/svg" xmlns:svg="http://www.w3.org/2000/svg" width="24" height="24" viewBox="0 0 24 24" fill="currentColor" tags="readme,help,question" categories="files">
  <path d="M 6 1 C 4.3549936 1 3 2.3549936 3 4 L 3 20 C 3 21.645006 4.3549936 23 6 23 L 18 23 C 19.645006 23 21 21.645006 21 20 L 21 7 A 1.0001 1.0001 0 0 0 20.707031 6.2929688 L 15.707031 1.2929688 A 1.0001 1.0001 0 0 0 15 1 L 6 1 z M 6 3 L 14.585938 3 L 19 7.4140625 L 19 20 C 19 20.564128 18.564128 21 18 21 L 6 21 C 5.4358718 21 5 20.564128 5 20 L 5 4 C 5 3.4358718 5.4358718 3 6 3 z M 11.916016 8.0214844 C 11.407955 8.0296128 10.898412 8.1660935 10.433594 8.4277344 C 9.7545952 8.7782674 9.361285 9.3418831 9.1054688 9.8535156 A 1 1 0 0 0 9.5527344 11.195312 A 1 1 0 0 0 10.894531 10.748047 C 11.034903 10.467304 11.245799 10.24624 11.347656 10.195312 A 1.0001 1.0001 0 0 0 11.400391 10.166016 C 11.841162 9.911189 12.375103 10.007924 12.728516 10.369141 C 12.912053 10.626483 13 10.789466 13 11 C 13 11.137179 12.818034 11.40398 12.441406 11.658203 C 12.06478 11.912427 11.669922 12.056641 11.669922 12.056641 A 1 1 0 0 0 11.056641 13.330078 A 1 1 0 0 0 12.330078 13.943359 C 12.330078 13.943359 12.935222 13.737182 13.558594 13.316406 C 14.181964 12.895631 15 12.162818 15 11 C 15 10.233335 14.664781 9.5849417 14.300781 9.0996094 A 1.0001 1.0001 0 0 0 14.238281 9.0253906 C 13.74904 8.4909887 13.102274 8.1613173 12.421875 8.0566406 C 12.254564 8.0309005 12.085369 8.0187749 11.916016 8.0214844 z M 12 16 A 1 1 0 0 0 11 17 A 1 1 0 0 0 12 18 L 12.009766 18 A 1 1 0 0 0 13.009766 17 A 1 1 0 0 0 12.009766 16 L 12 16 z "/>
</svg>
