<svg xmlns="http://www.w3.org/2000/svg" xmlns:svg="http://www.w3.org/2000/svg" width="24" height="24" viewBox="0 0 24 24" fill="currentColor" tags="image,graphics,photo,picture" categories="files">
  <path d="M 6 1 C 4.3549904 1 3 2.3549904 3 4 L 3 20 C 3 21.64501 4.3549904 23 6 23 L 9 23 L 18 23 C 19.64501 23 21 21.64501 21 20 L 21 17 L 21 8.0019531 L 21 8 C 21.000952 7.0939406 20.638716 6.2227923 19.996094 5.5839844 L 16.412109 2 L 16.410156 1.9980469 C 15.771801 1.3583784 14.903751 0.99905439 14 1 L 6 1 z M 6 3 L 13 3 L 13 7 C 13 8.0927249 13.907275 9 15 9 L 19 9 L 19 14.646484 C 18.407334 14.218043 17.703957 14.003906 17 14.003906 C 16.125292 14.003906 15.251481 14.334555 14.589844 14.996094 L 8.5859375 21 L 6 21 C 5.4358706 21 5 20.564129 5 20 L 5 4 C 5 3.4358706 5.4358706 3 6 3 z M 15 3.4179688 L 18.582031 7 L 15 7 L 15 3.4179688 z M 10 9 C 8.3549904 9 7 10.35499 7 12 C 7 13.64501 8.3549904 15 10 15 C 11.64501 15 13 13.64501 13 12 C 13 10.35499 11.64501 9 10 9 z M 10 11 C 10.564129 11 11 11.435871 11 12 C 11 12.564129 10.564129 13 10 13 C 9.4358706 13 9 12.564129 9 12 C 9 11.435871 9.4358706 11 10 11 z M 17 15.992188 C 17.358298 15.992188 17.716596 16.132654 17.996094 16.412109 L 19 17.414062 L 19 20 C 19 20.564129 18.564129 21 18 21 L 11.414062 21 L 16.003906 16.412109 C 16.283404 16.132654 16.641702 15.992188 17 15.992188 z "/>
</svg>
