<?xml version="1.0" encoding="UTF-8" standalone="no"?>
<svg xmlns="http://www.w3.org/2000/svg" xmlns:svg="http://www.w3.org/2000/svg" width="24" height="24" viewBox="0 0 24 24" fill="currentColor" tags="box,package,model" categories="files">
  <path d="M 6 1 C 4.3549904 1 3 2.3549904 3 4 L 3 8 A 1 1 0 0 0 4 9 A 1 1 0 0 0 5 8 L 5 4 C 5 3.4358706 5.4358706 3 6 3 L 13 3 L 13 6 C 13 7.6450096 14.35499 9 16 9 L 19 9 L 19 20 C 19 20.564129 18.564129 21 18 21 L 14.5 21 A 1 1 0 0 0 13.5 22 A 1 1 0 0 0 14.5 23 L 18 23 C 19.64501 23 21 21.64501 21 20 L 21 7 A 1.0001 1.0001 0 0 0 20.707031 6.2929688 L 15.707031 1.2929688 A 1.0001 1.0001 0 0 0 15 1 L 6 1 z M 15 3.4140625 L 18.585938 7 L 16 7 C 15.435871 7 15 6.5641294 15 6 L 15 3.4140625 z M 6.9921875 10.019531 C 6.4654549 10.016931 5.9371926 10.151833 5.4667969 10.425781 A 1.0001 1.0001 0 0 0 5.4492188 10.435547 L 2.5 12.234375 C 1.5601832 12.776838 0.98489633 13.788015 1 14.873047 L 1 18.068359 C 0.9646987 19.154221 1.5237865 20.176971 2.4550781 20.736328 L 5.484375 22.556641 A 1.0001 1.0001 0 0 0 5.4882812 22.558594 C 5.8794937 22.791619 6.3108768 22.928676 6.75 22.96875 A 1 1 0 0 0 7 23 A 1 1 0 0 0 7.2265625 22.974609 C 7.6800378 22.9442 8.1275179 22.810479 8.5332031 22.574219 A 1.0001 1.0001 0 0 0 8.5507812 22.564453 L 11.5 20.765625 C 12.439817 20.223162 13.015104 19.211985 13 18.126953 L 13 14.931641 C 13.0353 13.845779 12.476214 12.823029 11.544922 12.263672 L 8.515625 10.443359 A 1.0001 1.0001 0 0 0 8.5117188 10.441406 C 8.0440485 10.162884 7.5189201 10.022126 6.9921875 10.019531 z M 6.9804688 12.019531 C 7.1545902 12.02021 7.3281188 12.066003 7.484375 12.158203 L 10.320312 13.859375 L 7 15.835938 L 3.6777344 13.857422 L 6.4726562 12.154297 L 6.4746094 12.154297 C 6.6316332 12.063282 6.8063473 12.018853 6.9804688 12.019531 z M 3 15.78125 L 6 17.568359 L 6 20.533203 L 3.484375 19.023438 C 3.1717197 18.835864 2.9881528 18.497228 3 18.132812 A 1.0001 1.0001 0 0 0 3 18.099609 L 3 15.78125 z M 11 15.78125 L 11 18.140625 A 1.0001 1.0001 0 0 0 11 18.154297 C 11.0051 18.518257 10.81525 18.851241 10.5 19.033203 A 1.0001 1.0001 0 0 0 10.480469 19.046875 L 8 20.558594 L 8 17.568359 L 11 15.78125 z "/>
</svg>
