<svg xmlns="http://www.w3.org/2000/svg" xmlns:svg="http://www.w3.org/2000/svg" width="24" height="24" viewBox="0 0 24 24" fill="currentColor" tags="font,text,typography,type" categories="files,text">
  <path d="M 6 1 C 4.3549904 1 3 2.3549904 3 4 L 3 10 A 1 1 0 0 0 4 11 A 1 1 0 0 0 5 10 L 5 4 C 5 3.4358706 5.4358706 3 6 3 L 13 3 L 13 7 C 13 8.0927249 13.907275 9 15 9 L 19 9 L 19 20 C 19 20.564129 18.564129 21 18 21 L 12 21 A 1 1 0 0 0 11 22 A 1 1 0 0 0 12 23 L 18 23 C 19.64501 23 21 21.64501 21 20 L 21 8.0019531 L 21 8 C 21.001701 7.0943483 20.641585 6.225212 20 5.5859375 L 16.414062 2 C 15.774788 1.3584154 14.905652 0.99829936 14 1 L 6 1 z M 15 3.4160156 L 18.583984 7 L 15 7 L 15 3.4160156 z M 3.5 13 C 2.6834175 13 2 13.683418 2 14.5 L 2 16 A 1 1 0 0 0 3 17 A 1 1 0 0 0 4 16 L 4 15 L 6 15 L 6 21 A 1 1 0 0 0 5 22 A 1 1 0 0 0 6 23 L 7 23 L 8 23 A 1 1 0 0 0 9 22 A 1 1 0 0 0 8 21 L 8 15 L 10 15 L 10 16 A 1 1 0 0 0 11 17 A 1 1 0 0 0 12 16 L 12 14.5 C 12 13.683418 11.316582 13 10.5 13 L 7 13 L 3.5 13 z "/>
</svg>
