<svg xmlns="http://www.w3.org/2000/svg" xmlns:svg="http://www.w3.org/2000/svg" width="24" height="24" viewBox="0 0 24 24" fill="currentColor" tags="readme,help,question" categories="files">
  <path d="M 6 1 C 4.3549904 1 3 2.3549904 3 4 L 3 20 C 3 21.64501 4.3549904 23 6 23 L 18 23 C 19.64501 23 21 21.64501 21 20 L 21 8.0019531 L 21 8 C 21.000952 7.0939406 20.638716 6.2227923 19.996094 5.5839844 L 16.412109 2 L 16.410156 1.9980469 C 15.771801 1.3583784 14.903751 0.99905439 14 1 L 6 1 z M 6 3 L 14 3 A 1.0001 1.0001 0 0 0 14.001953 3 C 14.375309 2.9993949 14.732567 3.1476317 14.996094 3.4121094 A 1.0001 1.0001 0 0 0 14.996094 3.4140625 L 18.583984 7.0019531 A 1.0001 1.0001 0 0 0 18.587891 7.0039062 C 18.853046 7.2675338 19.000608 7.6241159 19 7.9980469 A 1.0001 1.0001 0 0 0 19 8 L 19 20 C 19 20.564129 18.564129 21 18 21 L 6 21 C 5.4358706 21 5 20.564129 5 20 L 5 4 C 5 3.4358706 5.4358706 3 6 3 z M 11.943359 6.0234375 C 10.402211 6.0190066 8.7975114 6.901686 8.1601562 8.6582031 A 1 1 0 0 0 8.7597656 9.9394531 A 1 1 0 0 0 10.039062 9.3417969 C 10.451565 8.2049596 11.355764 7.8977434 12.257812 8.0527344 C 13.157953 8.2073976 13.905484 8.7977918 13.917969 10.001953 C 13.916669 10.50119 13.486265 11.003948 12.865234 11.417969 C 12.243242 11.83263 11.603516 12.050781 11.603516 12.050781 A 1 1 0 0 0 10.970703 13.316406 A 1 1 0 0 0 12.236328 13.949219 C 12.236328 13.949219 13.096602 13.66737 13.974609 13.082031 C 14.852617 12.496693 15.919922 11.5 15.919922 10 A 1.0001 1.0001 0 0 0 15.919922 9.9921875 C 15.903354 7.8567345 14.313894 6.3749643 12.597656 6.0800781 C 12.383127 6.0432173 12.163523 6.0240705 11.943359 6.0234375 z M 12 16 A 1 1 0 0 0 11 17 A 1 1 0 0 0 12 18 L 12.009766 18 A 1 1 0 0 0 13.009766 17 A 1 1 0 0 0 12.009766 16 L 12 16 z "/>
</svg>
