<?xml version="1.0" encoding="UTF-8" standalone="no"?>
<svg xmlns="http://www.w3.org/2000/svg" xmlns:svg="http://www.w3.org/2000/svg" width="24" height="24" viewBox="0 0 24 24" fill="currentColor" tags="code,json,curly braces,curly brackets" categories="files,development">
  <path d="M 6 1 C 4.3549904 1 3 2.3549904 3 4 L 3 20 C 3 21.64501 4.3549904 23 6 23 L 18 23 C 19.64501 23 21 21.64501 21 20 L 21 7 A 1.0001 1.0001 0 0 0 20.707031 6.2929688 L 15.707031 1.2929688 A 1.0001 1.0001 0 0 0 15 1 L 6 1 z M 6 3 L 13 3 L 13 6 C 13 7.6450096 14.35499 9 16 9 L 19 9 L 19 20 C 19 20.564129 18.564129 21 18 21 L 6 21 C 5.4358706 21 5 20.564129 5 20 L 5 4 C 5 3.4358706 5.4358706 3 6 3 z M 15 3.4140625 L 18.585938 7 L 16 7 C 15.435871 7 15 6.5641294 15 6 L 15 3.4140625 z M 10 11 C 8.9072751 11 8 11.907275 8 13 L 8 14 A 1.0001 1.0001 0 0 0 8 16 L 8 17 C 8 18.092725 8.9072751 19 10 19 A 1 1 0 0 0 11 18 A 1 1 0 0 0 10 17 L 10 16 C 10 15.612595 9.7779402 15.30862 9.5820312 15 C 9.7779402 14.69138 10 14.387405 10 14 L 10 13 A 1 1 0 0 0 11 12 A 1 1 0 0 0 10 11 z M 14 11 A 1 1 0 0 0 13 12 A 1 1 0 0 0 14 13 L 14 14 C 14 14.387405 14.22206 14.69138 14.417969 15 C 14.22206 15.30862 14 15.612595 14 16 L 14 17 A 1 1 0 0 0 13 18 A 1 1 0 0 0 14 19 C 15.092725 19 16 18.092725 16 17 L 16 16 A 1.0001 1.0001 0 0 0 16 14 L 16 13 C 16 11.907275 15.092725 11 14 11 z "/>
</svg>
