<?xml version="1.0" encoding="UTF-8" standalone="no"?>
<svg xmlns="http://www.w3.org/2000/svg" xmlns:svg="http://www.w3.org/2000/svg" width="24" height="24" viewBox="0 0 24 24" fill="currentColor" tags="script,document,gist,html,xml,property list,plist" categories="files,development">
  
  <path d="M 6 1 C 4.3549936 1 3 2.3549936 3 4 L 3 20 C 3 21.645006 4.3549936 23 6 23 L 18 23 C 19.645006 23 21 21.645006 21 20 L 21 7.5 A 1.0001 1.0001 0 0 0 20.707031 6.7929688 L 15.207031 1.2929688 A 1.0001 1.0001 0 0 0 14.5 1 L 6 1 z M 6 3 L 13 3 L 13 8 A 1.0001 1.0001 0 0 0 14 9 L 19 9 L 19 20 C 19 20.564128 18.564128 21 18 21 L 6 21 C 5.4358718 21 5 20.564128 5 20 L 5 4 C 5 3.4358718 5.4358718 3 6 3 z M 15 3.9140625 L 18.085938 7 L 15 7 L 15 3.9140625 z M 10 12 A 1 1 0 0 0 9.2929688 12.292969 L 7.2929688 14.292969 A 1.0001 1.0001 0 0 0 7.2929688 15.707031 L 9.2929688 17.707031 A 1 1 0 0 0 10.707031 17.707031 A 1 1 0 0 0 10.707031 16.292969 L 9.4140625 15 L 10.707031 13.707031 A 1 1 0 0 0 10.707031 12.292969 A 1 1 0 0 0 10 12 z M 14 12 A 1 1 0 0 0 13.292969 12.292969 A 1 1 0 0 0 13.292969 13.707031 L 14.585938 15 L 13.292969 16.292969 A 1 1 0 0 0 13.292969 17.707031 A 1 1 0 0 0 14.707031 17.707031 L 16.707031 15.707031 A 1.0001 1.0001 0 0 0 16.707031 14.292969 L 14.707031 12.292969 A 1 1 0 0 0 14 12 z "/>
</svg>
