<?xml version="1.0" encoding="UTF-8" standalone="no"?>
<svg xmlns="http://www.w3.org/2000/svg" xmlns:svg="http://www.w3.org/2000/svg" width="24" height="24" viewBox="0 0 24 24" fill="currentColor" tags="history,log,clock" categories="files,time">
  
  <path d="M 6 1 C 4.3549936 1 3 2.3549936 3 4 L 3 7 A 1 1 0 0 0 4 8 A 1 1 0 0 0 5 7 L 5 4 C 5 3.4358718 5.4358718 3 6 3 L 13 3 L 13 6 C 13 7.6450064 14.354994 9 16 9 L 19 9 L 19 20 C 19 20.564128 18.564128 21 18 21 L 16 21 A 1 1 0 0 0 15 22 A 1 1 0 0 0 16 23 L 18 23 C 19.645006 23 21 21.645006 21 20 L 21 7 A 1.0001 1.0001 0 0 0 20.707031 6.2929688 L 15.707031 1.2929688 A 1.0001 1.0001 0 0 0 15 1 L 6 1 z M 15 3.4140625 L 18.585938 7 L 16 7 C 15.435872 7 15 6.5641282 15 6 L 15 3.4140625 z M 8 9 C 4.1458591 9 1 12.145859 1 16 C 1 19.854141 4.1458591 23 8 23 C 11.854141 23 15 19.854141 15 16 C 15 12.145859 11.854141 9 8 9 z M 8 11 C 10.773263 11 13 13.226737 13 16 C 13 18.773263 10.773263 21 8 21 C 5.2267372 21 3 18.773263 3 16 C 3 13.226737 5.2267372 11 8 11 z M 8 13 A 1 1 0 0 0 7 14 L 7 16.25 A 1.0001 1.0001 0 0 0 7.359375 17.017578 L 8.859375 18.267578 A 1 1 0 0 0 10.267578 18.140625 A 1 1 0 0 0 10.140625 16.732422 L 9 15.78125 L 9 14 A 1 1 0 0 0 8 13 z "/>
</svg>
