<?xml version="1.0" encoding="UTF-8" standalone="no"?>
<svg xmlns="http://www.w3.org/2000/svg" xmlns:svg="http://www.w3.org/2000/svg" width="24" height="24" viewBox="0 0 24 24" fill="currentColor" tags="script,document,html,xml,property list,plist" categories="files,development">
  <path d="M 6 1 C 4.3549904 1 3 2.3549904 3 4 L 3 8 A 1 1 0 0 0 4 9 A 1 1 0 0 0 5 8 L 5 4 C 5 3.4358706 5.4358706 3 6 3 L 13 3 L 13 6 C 13 7.6450096 14.35499 9 16 9 L 19 9 L 19 20 C 19 20.564129 18.564129 21 18 21 L 4 21 A 1 1 0 0 0 3 22 A 1 1 0 0 0 4 23 L 18 23 C 19.64501 23 21 21.64501 21 20 L 21 7 A 1.0001 1.0001 0 0 0 20.707031 6.2929688 L 15.707031 1.2929688 A 1.0001 1.0001 0 0 0 15 1 L 6 1 z M 15 3.4140625 L 18.585938 7 L 16 7 C 15.435871 7 15 6.5641294 15 6 L 15 3.4140625 z M 5 11 A 1 1 0 0 0 4.2929688 11.292969 L 1.2929688 14.292969 A 1.0001 1.0001 0 0 0 1.2929688 15.707031 L 4.2929688 18.707031 A 1 1 0 0 0 5.7070312 18.707031 A 1 1 0 0 0 5.7070312 17.292969 L 3.4140625 15 L 5.7070312 12.707031 A 1 1 0 0 0 5.7070312 11.292969 A 1 1 0 0 0 5 11 z M 9 11 A 1 1 0 0 0 8.2929688 11.292969 A 1 1 0 0 0 8.2929688 12.707031 L 10.585938 15 L 8.2929688 17.292969 A 1 1 0 0 0 8.2929688 18.707031 A 1 1 0 0 0 9.7070312 18.707031 L 12.707031 15.707031 A 1.0001 1.0001 0 0 0 12.707031 14.292969 L 9.7070312 11.292969 A 1 1 0 0 0 9 11 z "/>
</svg>
