<?xml version="1.0" encoding="UTF-8" standalone="no"?>
<svg xmlns="http://www.w3.org/2000/svg" xmlns:svg="http://www.w3.org/2000/svg" width="24" height="24" viewBox="0 0 24 24" fill="currentColor" tags="heart,favourite,bookmark,quick link" categories="files">
  <path d="M 6 1 C 4.3549904 1 3 2.3549904 3 4 L 3 6.0058594 A 1 1 0 0 0 4 7.0058594 A 1 1 0 0 0 5 6.0058594 L 5 4 C 5 3.4358706 5.4358706 3 6 3 L 13 3 L 13 6 C 13 7.6450096 14.35499 9 16 9 L 19 9 L 19 20 C 19 20.564129 18.564129 21 18 21 L 6 21 C 5.5640595 20.999964 5.1867948 20.726679 5.0507812 20.3125 A 1 1 0 0 0 3.7871094 19.673828 A 1 1 0 0 0 3.1503906 20.935547 C 3.5535629 22.163261 4.7077812 22.999894 6 23 L 18 23 C 19.64501 23 21 21.64501 21 20 L 21 8 L 21 7 A 1.0001 1.0001 0 0 0 20.707031 6.2929688 L 15.707031 1.2929688 A 1.0001 1.0001 0 0 0 15 1 L 14 1 L 6 1 z M 15 3.4140625 L 18.585938 7 L 16 7 C 15.435871 7 15 6.5641294 15 6 L 15 3.4140625 z M 4.3632812 8.9472656 C 3.499012 8.9266954 2.7066484 9.2682143 2.1015625 9.7988281 C 1.4964766 10.329442 1.0553581 11.070132 0.96289062 11.929688 C 0.87042312 12.789241 1.1801281 13.743279 1.8984375 14.492188 L 4.4921875 17.314453 L 4.4941406 17.316406 C 5.2786894 18.217163 6.723265 18.217165 7.5078125 17.316406 L 10.105469 14.490234 L 10.107422 14.486328 C 10.814151 13.737506 11.119334 12.789739 11.025391 11.935547 C 10.931263 11.080022 10.491164 10.341196 9.8886719 9.8125 C 9.2861793 9.2838038 8.4971637 8.9450317 7.6367188 8.9628906 C 7.0739125 8.9745719 6.5203529 9.2211713 6.0039062 9.5722656 C 5.4860304 9.2143115 4.9300187 8.9607544 4.3632812 8.9472656 z M 4.3164062 10.947266 C 4.6090164 10.954266 4.8869499 11.046656 5.21875 11.460938 A 1.0001 1.0001 0 0 0 6.7753906 11.466797 C 7.1070825 11.058935 7.3876782 10.966998 7.6796875 10.960938 C 7.9716968 10.954838 8.3058701 11.084354 8.5703125 11.316406 C 8.8347549 11.548458 9.0051801 11.863975 9.0371094 12.154297 C 9.0690384 12.444619 9.0156074 12.733363 8.6542969 13.115234 A 1.0001 1.0001 0 0 0 8.6445312 13.125 L 6.0175781 15.980469 A 1.0001 1.0001 0 0 0 6 16 A 1.0001 1.0001 0 0 0 5.9824219 15.980469 L 3.3554688 13.123047 A 1.0001 1.0001 0 0 0 3.3417969 13.107422 C 2.9743896 12.724368 2.9198658 12.435545 2.9511719 12.144531 C 2.982478 11.853517 3.1537022 11.536189 3.4199219 11.302734 C 3.6861415 11.06928 4.0237962 10.940301 4.3164062 10.947266 z "/>
</svg>
