<?xml version="1.0" encoding="UTF-8" standalone="no"?>
<svg xmlns="http://www.w3.org/2000/svg" xmlns:svg="http://www.w3.org/2000/svg" width="24" height="24" viewBox="0 0 24 24" fill="currentColor" tags="document" categories="files,arrows">
  
  <path d="M 6 1 C 4.3549936 1 3 2.3549936 3 4 L 3 8 A 1 1 0 0 0 4 9 A 1 1 0 0 0 5 8 L 5 4 C 5 3.4358718 5.4358718 3 6 3 L 13 3 L 13 6 C 13 7.6450064 14.354994 9 16 9 L 19 9 L 19 20 C 19 20.564128 18.564128 21 18 21 L 4 21 A 1 1 0 0 0 3 22 A 1 1 0 0 0 4 23 L 18 23 C 19.645006 23 21 21.645006 21 20 L 21 7 A 1.0001 1.0001 0 0 0 20.707031 6.2929688 L 15.707031 1.2929688 A 1.0001 1.0001 0 0 0 15 1 L 6 1 z M 15 3.4140625 L 18.585938 7 L 16 7 C 15.435872 7 15 6.5641282 15 6 L 15 3.4140625 z M 9 11 A 1 1 0 0 0 8.2929688 11.292969 A 1 1 0 0 0 8.2929688 12.707031 L 9.5859375 14 L 2 14 A 1 1 0 0 0 1 15 A 1 1 0 0 0 2 16 L 9.5859375 16 L 8.2929688 17.292969 A 1 1 0 0 0 8.2929688 18.707031 A 1 1 0 0 0 9.7070312 18.707031 L 12.707031 15.707031 A 1.0001 1.0001 0 0 0 12.865234 15.5 A 1.0001 1.0001 0 0 0 12.957031 15.28125 A 1 1 0 0 0 12.970703 15.236328 A 1.0001 1.0001 0 0 0 13 15 A 1.0001 1.0001 0 0 0 12.996094 14.912109 A 1 1 0 0 0 12.986328 14.845703 A 1 1 0 0 0 12.984375 14.826172 A 1.0001 1.0001 0 0 0 12.980469 14.804688 A 1 1 0 0 0 12.964844 14.742188 A 1 1 0 0 0 12.943359 14.671875 A 1 1 0 0 0 12.939453 14.658203 A 1.0001 1.0001 0 0 0 12.923828 14.617188 A 1 1 0 0 0 12.90625 14.578125 A 1.0001 1.0001 0 0 0 12.900391 14.566406 A 1 1 0 0 0 12.865234 14.501953 A 1 1 0 0 0 12.865234 14.5 A 1.0001 1.0001 0 0 0 12.832031 14.445312 A 1 1 0 0 0 12.818359 14.425781 A 1.0001 1.0001 0 0 0 12.806641 14.410156 A 1 1 0 0 0 12.765625 14.357422 A 1.0001 1.0001 0 0 0 12.707031 14.292969 L 9.7070312 11.292969 A 1 1 0 0 0 9 11 z "/>
</svg>
