<svg xmlns="http://www.w3.org/2000/svg" xmlns:svg="http://www.w3.org/2000/svg" width="24" height="24" viewBox="0 0 24 24" fill="currentColor" tags="statistics,analytics,diagram,graph,presentation" categories="files">
  <path d="M 6 1 C 4.3549904 1 3 2.3549904 3 4 L 3 7.5117188 A 1 1 0 0 0 4 8.5117188 A 1 1 0 0 0 5 7.5117188 L 5 4 C 5 3.4358706 5.4358706 3 6 3 L 13 3 L 13 7 C 13 8.0927249 13.907275 9 15 9 L 19 9 L 19 20 C 19 20.564129 18.564129 21 18 21 L 15.941406 21 A 1 1 0 0 0 14.941406 22 A 1 1 0 0 0 15.941406 23 L 18 23 C 19.64501 23 21 21.64501 21 20 L 21 8.0019531 L 21 8 C 21.000946 7.0962485 20.641618 6.2282456 20.001953 5.5898438 L 20 5.5878906 L 16.416016 2.0039062 C 15.777208 1.3612835 14.906059 0.99904846 14 1 L 6 1 z M 15 3.4179688 L 18.582031 7 L 15 7 L 15 3.4179688 z M 8.9433594 9.0722656 C 7.8716298 9.0258137 7 9.9729891 7 11 L 7 15 C 7 16.092725 7.9072751 17 9 17 L 13 17 C 14.096686 17 15.097871 16.008711 14.902344 14.839844 C 14.408207 11.90118 12.09882 9.5917932 9.1601562 9.0976562 A 1.0001 1.0001 0 0 0 9.1601562 9.0957031 C 9.0871278 9.0835094 9.014808 9.0753624 8.9433594 9.0722656 z M 3.9453125 10.513672 A 1 1 0 0 0 3.3535156 10.763672 C 0.35112705 13.428127 0.20993111 18.107306 3.046875 20.947266 C 5.8838189 23.787225 10.562825 23.6519 13.230469 20.652344 A 1 1 0 0 0 13.148438 19.240234 A 1 1 0 0 0 11.736328 19.322266 C 9.8146998 21.482986 6.506474 21.578959 4.4628906 19.533203 C 2.4193072 17.487447 2.5188799 14.179097 4.6816406 12.259766 A 1 1 0 0 0 4.765625 10.847656 A 1 1 0 0 0 4.0761719 10.513672 A 1 1 0 0 0 3.9453125 10.513672 z M 9 11.15625 C 10.944968 11.563103 12.436897 13.055032 12.84375 15 L 9 15 L 9 11.15625 z "/>
</svg>
