<?xml version="1.0" encoding="UTF-8" standalone="no"?>
<svg xmlns="http://www.w3.org/2000/svg" xmlns:svg="http://www.w3.org/2000/svg" width="24" height="24" viewBox="0 0 24 24" fill="currentColor" tags="cogged,gear,mechanical,machinery,configuration,controls,preferences,settings,system,admin,edit,executable" categories="files,development">
  <path d="M 6 1 C 4.3549904 1 3 2.3549904 3 4 L 3 20 C 3 21.64501 4.3549904 23 6 23 L 18 23 C 19.64501 23 21 21.64501 21 20 L 21 7 A 1.0001 1.0001 0 0 0 20.707031 6.2929688 L 15.707031 1.2929688 A 1.0001 1.0001 0 0 0 15 1 L 6 1 z M 6 3 L 13 3 L 13 6 C 13 7.6450096 14.35499 9 16 9 L 19 9 L 19 20 C 19 20.564129 18.564129 21 18 21 L 6 21 C 5.4358706 21 5 20.564129 5 20 L 5 4 C 5 3.4358706 5.4358706 3 6 3 z M 15 3.4140625 L 18.585938 7 L 16 7 C 15.435871 7 15 6.5641294 15 6 L 15 3.4140625 z M 10 10 A 1 1 0 0 0 9 11 L 8 11 A 1 1 0 0 0 7 12 A 1 1 0 0 0 8 13 L 9 13 A 1 1 0 0 0 10 14 A 1 1 0 0 0 11 13 L 16 13 A 1 1 0 0 0 17 12 A 1 1 0 0 0 16 11 L 11 11 A 1 1 0 0 0 10 10 z M 14 15 A 1 1 0 0 0 13 16 L 8 16 A 1 1 0 0 0 7 17 A 1 1 0 0 0 8 18 L 13 18 A 1 1 0 0 0 14 19 A 1 1 0 0 0 15 18 L 16 18 A 1 1 0 0 0 17 17 A 1 1 0 0 0 16 16 L 15 16 A 1 1 0 0 0 14 15 z "/>
</svg>
