<svg xmlns="http://www.w3.org/2000/svg" xmlns:svg="http://www.w3.org/2000/svg" width="24" height="24" viewBox="0 0 24 24" fill="currentColor" tags="history,log,clock" categories="files,time">
  <path d="M 6 1 C 4.3549904 1 3 2.3549904 3 4 L 3 6.8496094 A 1 1 0 0 0 4 7.8496094 A 1 1 0 0 0 5 6.8496094 L 5 4 C 5 3.4358706 5.4358706 3 6 3 L 13 3 L 13 7 C 13 8.0927249 13.907275 9 15 9 L 19 9 L 19 20 C 19 20.564129 18.564129 21 18 21 L 16 21 A 1 1 0 0 0 15 22 A 1 1 0 0 0 16 23 L 18 23 C 19.64501 23 21 21.64501 21 20 L 21 8.0019531 L 21 8 C 21.001701 7.0943483 20.641585 6.225212 20 5.5859375 L 16.414062 2 C 15.774788 1.3584154 14.905652 0.99829936 14 1 L 6 1 z M 15 3.4160156 L 18.583984 7 L 15 7 L 15 3.4160156 z M 8 9 C 4.1458514 9 1 12.145851 1 16 C 1 19.854149 4.1458514 23 8 23 C 11.854149 23 15 19.854149 15 16 C 15 12.145851 11.854149 9 8 9 z M 8 11 C 10.773268 11 13 13.226732 13 16 C 13 18.773268 10.773268 21 8 21 C 5.2267316 21 3 18.773268 3 16 C 3 13.226732 5.2267316 11 8 11 z M 8 13 A 1 1 0 0 0 7 14 L 7 16.199219 A 1.0001 1.0001 0 0 0 7.4707031 17.048828 L 9.0703125 18.048828 A 1 1 0 0 0 10.447266 17.730469 A 1 1 0 0 0 10.130859 16.351562 L 9 15.646484 L 9 14 A 1 1 0 0 0 8 13 z "/>
</svg>
