<svg xmlns="http://www.w3.org/2000/svg" xmlns:svg="http://www.w3.org/2000/svg" width="24" height="24" viewBox="0 0 24 24" fill="currentColor" tags="person,personal information,people,listing,networking,document,contact,cover letter,resume,cv,curriculum vitae,application form" categories="account,files">
  <path d="M 6 1 C 4.3549904 1 3 2.3549904 3 4 L 3 20 C 3 21.64501 4.3549904 23 6 23 L 18 23 C 19.64501 23 21 21.64501 21 20 L 21 8.0019531 L 21 8 C 21.000952 7.0939406 20.638716 6.2227923 19.996094 5.5839844 L 16.412109 2 L 16.410156 1.9980469 C 15.771801 1.3583784 14.903751 0.99905439 14 1 L 6 1 z M 6 3 L 13 3 L 13 7 C 13 8.0927249 13.907275 9 15 9 L 19 9 L 19 20 C 19 20.564129 18.564129 21 18 21 L 16.912109 21 C 16.707982 19.862838 16.160741 18.915667 15.414062 18.251953 C 15.230817 18.089068 15.03765 17.942806 14.835938 17.8125 C 15.554472 17.088123 16 16.092774 16 15 C 16 12.802706 14.197294 11 12 11 C 9.8027056 11 8 12.802706 8 15 C 8 16.092774 8.4455279 17.088123 9.1640625 17.8125 C 8.9623501 17.942806 8.7691829 18.089068 8.5859375 18.251953 C 7.8392585 18.915667 7.2920183 19.862838 7.0878906 21 L 6 21 C 5.4358706 21 5 20.564129 5 20 L 5 4 C 5 3.4358706 5.4358706 3 6 3 z M 15 3.4179688 L 18.582031 7 L 15 7 L 15 3.4179688 z M 12 13 C 13.116414 13 14 13.883586 14 15 C 14 16.116414 13.116414 17 12 17 C 10.883586 17 10 16.116414 10 15 C 10 13.883586 10.883586 13 12 13 z M 12 19 C 12.777778 19 13.542119 19.264653 14.085938 19.748047 C 14.439334 20.062177 14.720221 20.461541 14.873047 21 L 9.1269531 21 C 9.279779 20.461541 9.5606659 20.062177 9.9140625 19.748047 C 10.457881 19.264653 11.222222 19 12 19 z "/>
</svg>
