<?xml version="1.0" encoding="UTF-8" standalone="no"?>
<svg xmlns="http://www.w3.org/2000/svg" xmlns:svg="http://www.w3.org/2000/svg" width="24" height="24" viewBox="0 0 24 24" fill="currentColor" tags="movie,video,film" categories="files">
  <path d="M 6 1 C 4.3549904 1 3 2.3549904 3 4 L 3 20 C 3 21.64501 4.3549904 23 6 23 L 18 23 C 19.64501 23 21 21.64501 21 20 L 21 7 A 1.0001 1.0001 0 0 0 20.707031 6.2929688 L 15.707031 1.2929688 A 1.0001 1.0001 0 0 0 15 1 L 6 1 z M 6 3 L 13 3 L 13 6 C 13 7.6450096 14.35499 9 16 9 L 19 9 L 19 20 C 19 20.564129 18.564129 21 18 21 L 6 21 C 5.4358706 21 5 20.564129 5 20 L 5 4 C 5 3.4358706 5.4358706 3 6 3 z M 15 3.4140625 L 18.585938 7 L 16 7 C 15.435871 7 15 6.5641294 15 6 L 15 3.4140625 z M 10.634766 10.015625 C 9.7919801 10.046524 8.9984046 10.736339 9 11.650391 L 9 16.351562 C 8.99823 17.570925 10.41294 18.388183 11.46875 17.777344 L 15.533203 15.425781 C 16.587879 14.81548 16.587879 13.18452 15.533203 12.574219 L 11.466797 10.222656 A 1.0001 1.0001 0 0 0 11.466797 10.220703 C 11.202796 10.068597 10.915694 10.005325 10.634766 10.015625 z M 11 12.261719 L 14.005859 14 L 11 15.738281 L 11 12.261719 z "/>
</svg>
