<?xml version="1.0" encoding="UTF-8" standalone="no"?>
<svg xmlns="http://www.w3.org/2000/svg" xmlns:svg="http://www.w3.org/2000/svg" width="24" height="24" viewBox="0 0 24 24" fill="currentColor" tags="lost,document,find,browser" categories="files">
  <path d="M 6 1 C 4.3549904 1 3 2.3549904 3 4 L 3 20 C 3 21.64501 4.3549904 23 6 23 L 18 23 C 19.64501 23 21 21.64501 21 20 L 21 7 A 1.0001 1.0001 0 0 0 20.707031 6.2929688 L 15.707031 1.2929688 A 1.0001 1.0001 0 0 0 15 1 L 6 1 z M 6 3 L 13 3 L 13 6 C 13 7.6450096 14.35499 9 16 9 L 19 9 L 19 20 C 19 20.564129 18.564129 21 18 21 L 6 21 C 5.4358706 21 5 20.564129 5 20 L 5 4 C 5 3.4358706 5.4358706 3 6 3 z M 15 3.4140625 L 18.585938 7 L 16 7 C 15.435871 7 15 6.5641294 15 6 L 15 3.4140625 z M 11.5 11 C 9.578848 11 8 12.578848 8 14.5 C 8 16.421152 9.578848 18 11.5 18 C 12.099746 18 12.66475 17.844336 13.160156 17.574219 L 13.162109 17.574219 L 14.292969 18.707031 A 1 1 0 0 0 15.707031 18.707031 A 1 1 0 0 0 15.707031 17.292969 L 14.574219 16.162109 C 14.574496 16.161602 14.573942 16.160663 14.574219 16.160156 C 14.844336 15.66475 15 15.099746 15 14.5 C 15 12.578848 13.421152 11 11.5 11 z M 11.5 13 C 12.340272 13 13 13.659728 13 14.5 C 13 15.340272 12.340272 16 11.5 16 C 10.659728 16 10 15.340272 10 14.5 C 10 13.659728 10.659728 13 11.5 13 z "/>
</svg>
