<svg xmlns="http://www.w3.org/2000/svg" xmlns:svg="http://www.w3.org/2000/svg" width="24" height="24" viewBox="0 0 24 24" fill="currentColor" tags="document" categories="files,arrows">
  <path d="M 6 1 C 4.3549904 1 3 2.3549904 3 4 L 3 11 A 1 1 0 0 0 4 12 A 1 1 0 0 0 5 11 L 5 4 C 5 3.4358706 5.4358706 3 6 3 L 13 3 L 13 7 C 13 8.0927249 13.907275 9 15 9 L 19 9 L 19 20 C 19 20.564129 18.564129 21 18 21 L 6 21 C 5.4358706 21 5 20.564129 5 20 L 5 19 A 1 1 0 0 0 4 18 A 1 1 0 0 0 3 19 L 3 20 C 3 21.64501 4.3549904 23 6 23 L 18 23 C 19.64501 23 21 21.64501 21 20 L 21 8.0019531 L 21 8 C 21.001701 7.0943483 20.641585 6.225212 20 5.5859375 L 16.414062 2 C 15.774788 1.3584154 14.905652 0.99829936 14 1 L 6 1 z M 15 3.4160156 L 18.583984 7 L 15 7 L 15 3.4160156 z M 9 11 A 1 1 0 0 0 8.2929688 11.292969 A 1 1 0 0 0 8.2929688 12.707031 L 9.5859375 14 L 2 14 A 1 1 0 0 0 1 15 A 1 1 0 0 0 2 16 L 9.5859375 16 L 8.2929688 17.292969 A 1 1 0 0 0 8.2929688 18.707031 A 1 1 0 0 0 9.7070312 18.707031 L 12.697266 15.716797 A 1 1 0 0 0 12.707031 15.707031 A 1.0001 1.0001 0 0 0 12.785156 15.619141 A 1 1 0 0 0 12.792969 15.609375 A 1.0001 1.0001 0 0 0 12.861328 15.507812 A 1 1 0 0 0 12.865234 15.5 A 1.0001 1.0001 0 0 0 12.921875 15.388672 A 1 1 0 0 0 12.923828 15.382812 A 1 1 0 0 0 12.964844 15.257812 A 1.0001 1.0001 0 0 0 12.976562 15.205078 A 1.0001 1.0001 0 0 0 13 15 A 1.0001 1.0001 0 0 0 12.976562 14.794922 A 1.0001 1.0001 0 0 0 12.964844 14.742188 A 1 1 0 0 0 12.923828 14.617188 A 1.0001 1.0001 0 0 0 12.921875 14.611328 A 1 1 0 0 0 12.865234 14.5 A 1.0001 1.0001 0 0 0 12.861328 14.492188 A 1 1 0 0 0 12.792969 14.390625 A 1.0001 1.0001 0 0 0 12.785156 14.380859 A 1 1 0 0 0 12.707031 14.292969 L 12.697266 14.283203 L 9.7070312 11.292969 A 1 1 0 0 0 9 11 z "/>
</svg>
