<?xml version="1.0" encoding="UTF-8" standalone="no"?>
<svg xmlns="http://www.w3.org/2000/svg" xmlns:svg="http://www.w3.org/2000/svg" width="24" height="24" viewBox="0 0 24 24" fill="currentColor" tags="audio,sound,noise,track,digital,recording,playback,piano,keyboard,keys,notes,chord,midi,octave" categories="files,multimedia">
  <path d="M 6 1 C 4.3549904 1 3 2.3549904 3 4 L 3 12.400391 A 1 1 0 0 0 4 13.400391 A 1 1 0 0 0 5 12.400391 L 5 4 C 5 3.4358706 5.4358706 3 6 3 L 14.585938 3 L 19 7.4140625 L 19 20 C 19 20.564129 18.564129 21 18 21 L 10.5 21 A 1 1 0 0 0 9.5 22 A 1 1 0 0 0 10.5 23 L 18 23 C 19.64501 23 21 21.64501 21 20 L 21 7 A 1.0001 1.0001 0 0 0 20.707031 6.2929688 L 15.707031 1.2929688 A 1.0001 1.0001 0 0 0 15 1 L 6 1 z M 15.972656 8.0019531 A 1.0001 1.0001 0 0 0 15.839844 8.0136719 L 7.8398438 9.3125 A 1.0001 1.0001 0 0 0 7 10.300781 L 7 15.173828 C 6.686616 15.061489 6.3498675 15 6 15 C 4.3549904 15 3 16.35499 3 18 C 3 19.64501 4.3549904 21 6 21 C 7.6450065 21 8.9999948 19.645006 9 18 L 9 11.150391 L 15 10.175781 L 15 13.173828 C 14.686616 13.061489 14.349867 13 14 13 C 12.35499 13 11 14.35499 11 16 C 11 17.64501 12.35499 19 14 19 C 15.645007 19 16.999995 17.645006 17 16 L 17 9 A 1.0001 1.0001 0 0 0 15.972656 8.0019531 z M 14 15 C 14.564129 15 15 15.435871 15 16 C 15 16.564129 14.564129 17 14 17 C 13.435871 17 13 16.564129 13 16 C 13 15.435871 13.435871 15 14 15 z M 6 17 C 6.5641294 17 7 17.435871 7 18 C 7 18.564129 6.5641294 19 6 19 C 5.4358706 19 5 18.564129 5 18 C 5 17.435871 5.4358706 17 6 17 z "/>
</svg>
