<?xml version="1.0" encoding="UTF-8" standalone="no"?>
<svg xmlns="http://www.w3.org/2000/svg" xmlns:svg="http://www.w3.org/2000/svg" width="24" height="24" viewBox="0 0 24 24" fill="currentColor" tags="lost,document,find,browser" categories="files">
  
  <path d="M 6 1 C 4.3549936 1 3 2.3549936 3 4 L 3 7 A 1 1 0 0 0 4 8 A 1 1 0 0 0 5 7 L 5 4 C 5 3.4358718 5.4358718 3 6 3 L 13 3 L 13 8 A 1.0001 1.0001 0 0 0 14 9 L 19 9 L 19 20 C 19 20.564128 18.564128 21 18 21 L 4 21 A 1 1 0 0 0 3 22 A 1 1 0 0 0 4 23 L 18 23 C 19.645006 23 21 21.645006 21 20 L 21 7.5 A 1.0001 1.0001 0 0 0 20.707031 6.7929688 L 15.207031 1.2929688 A 1.0001 1.0001 0 0 0 14.5 1 L 6 1 z M 15 3.9140625 L 18.085938 7 L 15 7 L 15 3.9140625 z M 5 10 C 3.7500028 10 2.6852243 10.504756 2.0019531 11.273438 C 1.318682 12.042118 1 13.02778 1 14 C 1 14.97222 1.318682 15.957882 2.0019531 16.726562 C 2.6852243 17.495244 3.7500028 18 5 18 C 5.7742224 18 6.4770303 17.806618 7.0625 17.476562 L 8.2929688 18.707031 A 1 1 0 0 0 9.7070312 18.707031 A 1 1 0 0 0 9.7070312 17.292969 L 8.4726562 16.058594 C 8.8294346 15.424655 9 14.709012 9 14 C 9 13.02778 8.681318 12.042118 7.9980469 11.273438 C 7.3147757 10.504756 6.2499972 10 5 10 z M 5 12 C 5.749998 12 6.1852267 12.245245 6.5019531 12.601562 C 6.8186796 12.957879 7 13.472224 7 14 C 7 14.527776 6.8186796 15.04212 6.5019531 15.398438 C 6.1852267 15.754754 5.749998 16 5 16 C 4.250002 16 3.8147733 15.754754 3.4980469 15.398438 C 3.1813204 15.04212 3 14.527776 3 14 C 3 13.472224 3.1813204 12.957879 3.4980469 12.601562 C 3.8147733 12.245245 4.250002 12 5 12 z "/>
</svg>
