<?xml version="1.0" encoding="UTF-8" standalone="no"?>
<svg xmlns="http://www.w3.org/2000/svg" xmlns:svg="http://www.w3.org/2000/svg" width="24" height="24" viewBox="0 0 24 24" fill="currentColor" tags="edit" categories="files">
  <path d="M 6 1 C 4.3549936 1 3 2.3549936 3 4 L 3 20 C 3 21.645006 4.3549936 23 6 23 L 18 23 C 19.645006 23 21 21.645006 21 20 A 1 1 0 0 0 20 19 A 1 1 0 0 0 19 20 C 19 20.564128 18.564128 21 18 21 L 6 21 C 5.4358718 21 5 20.564128 5 20 L 5 4 C 5 3.4358718 5.4358718 3 6 3 L 14.171875 3 C 14.437454 3.0000567 14.691142 3.1051481 14.878906 3.2929688 L 17.292969 5.7070312 A 1 1 0 0 0 18.707031 5.7070312 A 1 1 0 0 0 18.707031 4.2929688 L 16.292969 1.8789062 C 15.730763 1.3165309 14.967074 1.0001698 14.171875 1 L 6 1 z M 19.876953 7.9628906 C 19.112728 7.9611013 18.301117 8.2789608 17.666016 8.9140625 A 1.0001 1.0001 0 0 0 17.666016 8.9160156 L 13.65625 12.927734 C 13.300269 13.283925 13.039596 13.723621 12.898438 14.207031 A 1.0001 1.0001 0 0 0 12.898438 14.208984 L 12.060547 17.078125 C 11.743862 18.1639 12.8361 19.254185 13.921875 18.9375 L 16.791016 18.101562 C 17.274973 17.960244 17.715862 17.698396 18.072266 17.341797 L 22.083984 13.333984 A 1.0001 1.0001 0 0 0 22.085938 13.333984 C 22.763333 12.656496 23.080694 11.778046 23.033203 10.970703 C 22.985712 10.163361 22.618572 9.4466962 22.085938 8.9140625 C 21.553304 8.3814288 20.836639 8.0142877 20.029297 7.9667969 C 19.978838 7.9638287 19.927901 7.9630099 19.876953 7.9628906 z M 19.816406 9.9609375 C 19.848419 9.9601527 19.880038 9.9610041 19.912109 9.9628906 C 20.168681 9.9779826 20.451557 10.111713 20.669922 10.330078 C 20.888287 10.548443 21.022017 10.831319 21.037109 11.087891 C 21.052199 11.344462 20.993809 11.594079 20.669922 11.917969 L 16.658203 15.927734 C 16.539363 16.04664 16.391841 16.134519 16.230469 16.181641 L 14.236328 16.763672 L 14.818359 14.767578 C 14.865479 14.606206 14.951407 14.460637 15.070312 14.341797 L 19.082031 10.330078 C 19.365435 10.046676 19.592317 9.9664313 19.816406 9.9609375 z M 8 17 A 1 1 0 0 0 7 18 A 1 1 0 0 0 8 19 L 9 19 A 1 1 0 0 0 10 18 A 1 1 0 0 0 9 17 L 8 17 z "/>
</svg>
