<?xml version="1.0" encoding="UTF-8" standalone="no"?>
<svg xmlns="http://www.w3.org/2000/svg" xmlns:svg="http://www.w3.org/2000/svg" width="24" height="24" viewBox="0 0 24 24" fill="currentColor" tags="document" categories="files,arrows">
  <path d="M 6 1 C 5.1774968 1 4.4271853 1.3384397 3.8828125 1.8828125 C 3.3384397 2.4271853 3 3.1774968 3 4 L 3 7 A 1 1 0 0 0 4 8 A 1 1 0 0 0 5 7 L 5 4 C 5 3.7179359 5.1095791 3.4685459 5.2890625 3.2890625 C 5.4685459 3.1095791 5.7179359 3 6 3 L 13 3 L 13 6 C 13 7.6450064 14.354994 9 16 9 L 19 9 L 19 20 C 19 20.564128 18.564128 21 18 21 L 6.0625 20.998047 A 1.0001 1.0001 0 0 0 5.9335938 21.007812 C 5.5265747 21.060842 5.1353835 20.865244 4.9335938 20.507812 A 1 1 0 0 0 3.5722656 20.128906 A 1 1 0 0 0 3.1914062 21.490234 C 3.777361 22.52814 4.9285631 23.118854 6.109375 22.998047 L 18 23 C 19.645006 23 21 21.645006 21 20 L 21 7 A 1.0001 1.0001 0 0 0 20.707031 6.2929688 L 15.707031 1.2929688 A 1.0001 1.0001 0 0 0 15 1 L 6 1 z M 15 3.4140625 L 18.585938 7 L 16 7 C 15.435872 7 15 6.5641282 15 6 L 15 3.4140625 z M 5 10 A 1 1 0 0 0 4.2929688 10.292969 L 1.2929688 13.292969 A 1 1 0 0 0 1.2597656 13.335938 A 1.0001 1.0001 0 0 0 1.1972656 13.414062 A 1 1 0 0 0 1.109375 13.5625 A 1.0001 1.0001 0 0 0 1.0703125 13.642578 A 1 1 0 0 0 1.0058594 13.902344 A 1 1 0 0 0 1.0175781 14.164062 A 1.0001 1.0001 0 0 0 1.0351562 14.240234 A 1 1 0 0 0 1.1015625 14.423828 A 1.0001 1.0001 0 0 0 1.1367188 14.494141 A 1 1 0 0 0 1.2929688 14.707031 L 4.2929688 17.707031 A 1 1 0 0 0 5.7070312 17.707031 A 1 1 0 0 0 5.7070312 16.292969 L 4.4140625 15 L 12 15 A 1 1 0 0 0 13 14 A 1 1 0 0 0 12 13 L 4.4140625 13 L 5.7070312 11.707031 A 1 1 0 0 0 5.7070312 10.292969 A 1 1 0 0 0 5 10 z "/>
</svg>
