<?xml version="1.0" encoding="UTF-8" standalone="no"?>
<svg xmlns="http://www.w3.org/2000/svg" xmlns:svg="http://www.w3.org/2000/svg" width="24" height="24" viewBox="0 0 24 24" fill="currentColor" tags="multiple,copy,documents" categories="files">
  <path d="M 9 1 C 7.3549904 1 6 2.3549904 6 4 L 6 16 C 6 17.64501 7.3549904 19 9 19 L 18 19 C 19.64501 19 21 17.64501 21 16 L 21 6 A 1.0001 1.0001 0 0 0 20.707031 5.2929688 L 16.707031 1.2929688 A 1.0001 1.0001 0 0 0 16 1 L 9 1 z M 9 3 L 14 3 L 14 5 C 14 6.6450096 15.35499 8 17 8 L 19 8 L 19 16 C 19 16.564129 18.564129 17 18 17 L 9 17 C 8.4358706 17 8 16.564129 8 16 L 8 4 C 8 3.4358706 8.4358706 3 9 3 z M 16 3.4140625 L 18.585938 6 L 17 6 C 16.435871 6 16 5.5641294 16 5 L 16 3.4140625 z M 3 6.5996094 A 1 1 0 0 0 2 7.5996094 L 2 20.400391 C 2 21.824486 3.1755137 23 4.5996094 23 L 14.400391 23 A 1 1 0 0 0 15.400391 22 A 1 1 0 0 0 14.400391 21 L 4.5996094 21 C 4.2563939 21 4 20.743606 4 20.400391 L 4 7.5996094 A 1 1 0 0 0 3 6.5996094 z "/>
</svg>
