<?xml version="1.0" encoding="UTF-8" standalone="no"?>
<svg xmlns="http://www.w3.org/2000/svg" xmlns:svg="http://www.w3.org/2000/svg" width="24" height="24" viewBox="0 0 24 24" fill="currentColor" tags="music,audio,sound,headphones" categories="files">
  <path d="M 6 1 C 4.3549904 1 3 2.3549904 3 4 L 3 6 A 1 1 0 0 0 4 7 A 1 1 0 0 0 5 6 L 5 4 C 5 3.4358706 5.4358706 3 6 3 L 13 3 L 13 6 C 13 7.6450096 14.35499 9 16 9 L 19 9 L 19 20 C 19 20.564129 18.564129 21 18 21 L 4 21 A 1 1 0 0 0 3 22 A 1 1 0 0 0 4 23 L 18 23 C 19.64501 23 21 21.64501 21 20 L 21 7 A 1.0001 1.0001 0 0 0 20.707031 6.2929688 L 15.707031 1.2929688 A 1.0001 1.0001 0 0 0 15 1 L 6 1 z M 15 3.4140625 L 18.585938 7 L 16 7 C 15.435871 7 15 6.5641294 15 6 L 15 3.4140625 z M 6 9 C 4.7777779 9 3.5421194 9.4020141 2.5859375 10.251953 C 1.6297556 11.101892 1 12.416667 1 14 L 1 17 C 1 18.092725 1.9072751 19 3 19 C 4.0927249 19 5 18.092725 5 17 C 5 15.907275 4.0927249 15 3 15 L 3 14 C 3 12.916667 3.3702444 12.231441 3.9140625 11.748047 C 4.4578806 11.264653 5.2222221 11 6 11 C 6.7777779 11 7.5421194 11.264653 8.0859375 11.748047 C 8.6297556 12.231441 9 12.916667 9 14 L 9 15 C 7.9072751 15 7 15.907275 7 17 C 7 18.092725 7.9072751 19 9 19 C 10.092725 19 11 18.092725 11 17 L 11 14 C 11 12.416667 10.370244 11.101892 9.4140625 10.251953 C 8.4578806 9.4020141 7.2222221 9 6 9 z "/>
</svg>
