<?xml version="1.0" encoding="UTF-8" standalone="no"?>
<svg xmlns="http://www.w3.org/2000/svg" xmlns:svg="http://www.w3.org/2000/svg" width="24" height="24" viewBox="0 0 24 24" fill="currentColor" tags="code,json,curly braces,curly brackets" categories="files,development">
  <path d="M 6 1 C 4.3549936 1 3 2.3549936 3 4 L 3 8 A 1 1 0 0 0 4 9 A 1 1 0 0 0 5 8 L 5 4 C 5 3.4358718 5.4358718 3 6 3 L 13 3 L 13 6 C 13 7.6450064 14.354994 9 16 9 L 19 9 L 19 20 C 19 20.564128 18.564128 21 18 21 L 4 21 A 1 1 0 0 0 3 22 A 1 1 0 0 0 4 23 L 18 23 C 19.645006 23 21 21.645006 21 20 L 21 7 A 1.0001 1.0001 0 0 0 20.707031 6.2929688 L 15.707031 1.2929688 A 1.0001 1.0001 0 0 0 15 1 L 6 1 z M 15 3.4140625 L 18.585938 7 L 16 7 C 15.435872 7 15 6.5641282 15 6 L 15 3.4140625 z M 4 11 C 2.9072773 11 2 11.907277 2 13 L 2 14 A 1.0001 1.0001 0 0 0 2 16 L 2 17 C 2 18.092723 2.9072773 19 4 19 A 1 1 0 0 0 5 18 A 1 1 0 0 0 4 17 L 4 16 C 4 15.612596 3.7779399 15.30862 3.5820312 15 C 3.7779399 14.69138 4 14.387404 4 14 L 4 13 A 1 1 0 0 0 5 12 A 1 1 0 0 0 4 11 z M 8 11 A 1 1 0 0 0 7 12 A 1 1 0 0 0 8 13 L 8 14 C 8 14.387404 8.22206 14.69138 8.4179688 15 C 8.22206 15.30862 8 15.612596 8 16 L 8 17 A 1 1 0 0 0 7 18 A 1 1 0 0 0 8 19 C 9.0927227 19 10 18.092723 10 17 L 10 16 A 1.0001 1.0001 0 0 0 10 14 L 10 13 C 10 11.907277 9.0927227 11 8 11 z "/>
</svg>
