<?xml version="1.0" encoding="UTF-8" standalone="no"?>
<svg xmlns="http://www.w3.org/2000/svg" xmlns:svg="http://www.w3.org/2000/svg" width="24" height="24" viewBox="0 0 24 24" fill="currentColor" tags="signature" categories="files">
  <path d="M 6 1 C 4.3549936 1 3 2.3549936 3 4 L 3 13.5 A 1 1 0 0 0 4 14.5 A 1 1 0 0 0 5 13.5 L 5 4 C 5 3.4358718 5.4358718 3 6 3 L 13 3 L 13 6 C 13 7.6450064 14.354994 9 16 9 L 19 9 L 19 20 C 19 20.564128 18.564128 21 18 21 L 12.5 21 A 1 1 0 0 0 11.5 22 A 1 1 0 0 0 12.5 23 L 18 23 C 19.645006 23 21 21.645006 21 20 L 21 7 A 1.0001 1.0001 0 0 0 20.707031 6.2929688 L 15.707031 1.2929688 A 1.0001 1.0001 0 0 0 15 1 L 6 1 z M 15 3.4140625 L 18.585938 7 L 16 7 C 15.435872 7 15 6.5641282 15 6 L 15 3.4140625 z M 11.724609 10.966797 C 11.006341 11.00498 10.258777 11.3213 9.6660156 11.914062 L 4.65625 16.927734 C 4.3002691 17.283925 4.0395972 17.723621 3.8984375 18.207031 A 1.0001 1.0001 0 0 0 3.8984375 18.208984 L 3.0605469 21.078125 C 2.7438626 22.1639 3.8361003 23.254185 4.921875 22.9375 L 7.7910156 22.101562 C 8.2749731 21.960244 8.7158628 21.698396 9.0722656 21.341797 L 14.083984 16.333984 A 1.0001 1.0001 0 0 0 14.085938 16.333984 C 14.763379 15.656543 15.080694 14.778046 15.033203 13.970703 C 14.985713 13.163361 14.618571 12.446696 14.085938 11.914062 C 13.553303 11.381428 12.836639 11.014288 12.029297 10.966797 C 11.928379 10.960861 11.827219 10.961342 11.724609 10.966797 z M 11.816406 12.960938 C 11.848419 12.960153 11.880038 12.961004 11.912109 12.962891 C 12.168681 12.977981 12.451557 13.111713 12.669922 13.330078 C 12.888287 13.548443 13.022017 13.831319 13.037109 14.087891 C 13.052199 14.344462 12.993809 14.594079 12.669922 14.917969 L 7.6582031 19.927734 C 7.5393634 20.04664 7.3918406 20.134519 7.2304688 20.181641 L 5.2363281 20.763672 L 5.8183594 18.767578 C 5.8654813 18.606206 5.9514073 18.460637 6.0703125 18.341797 L 11.082031 13.330078 C 11.365435 13.046676 11.592317 12.966431 11.816406 12.960938 z "/>
</svg>
