<svg xmlns="http://www.w3.org/2000/svg" xmlns:svg="http://www.w3.org/2000/svg" width="24" height="24" viewBox="0 0 24 24" fill="currentColor" tags="code,json,curly braces,curly brackets" categories="files,development">
  <path d="M 6 1 C 4.3549904 1 3 2.3549904 3 4 L 3 10 A 1 1 0 0 0 4 11 A 1 1 0 0 0 5 10 L 5 4 C 5 3.4358706 5.4358706 3 6 3 L 13 3 L 13 7 C 13 8.0927249 13.907275 9 15 9 L 19 9 L 19 20 C 19 20.564129 18.564129 21 18 21 L 14 21 A 1 1 0 0 0 13 22 A 1 1 0 0 0 14 23 L 18 23 C 19.64501 23 21 21.64501 21 20 L 21 8.0019531 L 21 8 C 21.001701 7.0943483 20.641585 6.225212 20 5.5859375 L 16.414062 2 C 15.774788 1.3584154 14.905652 0.99829936 14 1 L 6 1 z M 15 3.4160156 L 18.583984 7 L 15 7 L 15 3.4160156 z M 5 13 C 3.9072751 13 3 13.907275 3 15 L 3 17 A 1.0001 1.0001 0 0 0 3 19 L 3 21 C 3 22.092725 3.9072751 23 5 23 A 1 1 0 0 0 6 22 A 1 1 0 0 0 5 21 L 5 19 C 5 18.612595 4.7779403 18.30862 4.5820312 18 C 4.7779403 17.69138 5 17.387405 5 17 L 5 15 A 1 1 0 0 0 6 14 A 1 1 0 0 0 5 13 z M 9 13 A 1 1 0 0 0 8 14 A 1 1 0 0 0 9 15 L 9 17 C 9 17.387405 9.2220597 17.69138 9.4179688 18 C 9.2220597 18.30862 9 18.612595 9 19 L 9 21 A 1 1 0 0 0 8 22 A 1 1 0 0 0 9 23 C 10.092725 23 11 22.092725 11 21 L 11 19 A 1.0001 1.0001 0 0 0 11 17 L 11 15 C 11 13.907275 10.092725 13 9 13 z "/>
</svg>
