<?xml version="1.0" encoding="UTF-8" standalone="no"?>
<svg xmlns="http://www.w3.org/2000/svg" xmlns:svg="http://www.w3.org/2000/svg" width="24" height="24" viewBox="0 0 24 24" fill="currentColor" tags="key,private,public,security" categories="files,security">
  
  <path d="M 6 1 C 4.3549936 1 3 2.3549936 3 4 L 3 20 C 3 21.645006 4.3549936 23 6 23 L 18 23 C 19.645006 23 21 21.645006 21 20 L 21 7.5 A 1.0001 1.0001 0 0 0 20.707031 6.7929688 L 15.207031 1.2929688 A 1.0001 1.0001 0 0 0 14.5 1 L 6 1 z M 6 3 L 14.085938 3 L 19 7.9140625 L 19 20 C 19 20.564128 18.564128 21 18 21 L 6 21 C 5.4358718 21 5 20.564128 5 20 L 5 4 C 5 3.4358718 5.4358718 3 6 3 z M 16 9 A 1 1 0 0 0 15.292969 9.2929688 L 14.292969 10.292969 L 11.289062 13.296875 C 10.897383 13.107873 10.460495 13 10 13 C 8.3549936 13 7 14.354994 7 16 C 7 17.645006 8.3549936 19 10 19 C 11.645006 19 13 17.645006 13 16 C 13 15.539505 12.892127 15.102617 12.703125 14.710938 L 15 12.414062 L 15.292969 12.707031 A 1 1 0 0 0 16.707031 12.707031 A 1 1 0 0 0 16.707031 11.292969 L 16.414062 11 L 16.707031 10.707031 A 1 1 0 0 0 16.707031 9.2929688 A 1 1 0 0 0 16 9 z M 10 15 C 10.564128 15 11 15.435872 11 16 C 11 16.564128 10.564128 17 10 17 C 9.4358718 17 9 16.564128 9 16 C 9 15.435872 9.4358718 15 10 15 z "/>
</svg>
