<?xml version="1.0" encoding="UTF-8" standalone="no"?>
<svg xmlns="http://www.w3.org/2000/svg" xmlns:svg="http://www.w3.org/2000/svg" width="24" height="24" viewBox="0 0 24 24" fill="currentColor" tags="lock,password,security" categories="files,security">
  
  <path d="M 6 1 C 4.3549936 1 3 2.3549936 3 4 L 3 20 C 3 21.645006 4.3549936 23 6 23 L 18 23 C 19.645006 23 21 21.645006 21 20 L 21 7.5 A 1.0001 1.0001 0 0 0 20.707031 6.7929688 L 15.207031 1.2929688 A 1.0001 1.0001 0 0 0 14.5 1 L 6 1 z M 6 3 L 14.085938 3 L 19 7.9140625 L 19 20 C 19 20.564128 18.564128 21 18 21 L 6 21 C 5.4358718 21 5 20.564128 5 20 L 5 4 C 5 3.4358718 5.4358718 3 6 3 z M 12 6 C 11.02778 6 10.042118 6.318682 9.2734375 7.0019531 C 8.5047572 7.6852243 8 8.7500028 8 10 L 8 11.277344 C 7.4064642 11.627321 7 12.272158 7 13 L 7 17 C 7 18.090701 7.9092994 19 9 19 L 15 19 C 16.090701 19 17 18.090701 17 17 L 17 13 C 17 12.272158 16.593536 11.627321 16 11.277344 L 16 10 C 16 8.7500028 15.495243 7.6852243 14.726562 7.0019531 C 13.957881 6.318682 12.97222 6 12 6 z M 12 8 C 12.527776 8 13.04212 8.1813204 13.398438 8.4980469 C 13.754754 8.8147733 14 9.250002 14 10 L 14 11 L 10 11 L 10 10 C 10 9.250002 10.245245 8.8147733 10.601562 8.4980469 C 10.957879 8.1813204 11.472224 8 12 8 z M 9 13 L 15 13 L 15 17 L 9 17 L 9 13 z "/>
</svg>
