<?xml version="1.0" encoding="UTF-8" standalone="no"?>
<svg xmlns="http://www.w3.org/2000/svg" xmlns:svg="http://www.w3.org/2000/svg" width="24" height="24" viewBox="0 0 24 24" fill="currentColor" tags="audio,music,volume" categories="files">
  <path d="M 6 1 C 4.3549936 1 3 2.3549936 3 4 L 3 6.765625 A 1 1 0 0 0 4 7.765625 A 1 1 0 0 0 5 6.765625 L 5 4 C 5 3.4358718 5.4358718 3 6 3 L 13 3 L 13 6 C 13 7.6450064 14.354994 9 16 9 L 19 9 L 19 20 C 19 20.564128 18.564128 21 18 21 L 6 21 C 5.8379384 20.999904 5.6785809 20.96022 5.5351562 20.884766 A 1 1 0 0 0 4.1855469 21.304688 A 1 1 0 0 0 4.6035156 22.654297 C 5.0336679 22.880597 5.5139523 22.999713 6 23 L 18 23 C 19.645006 23 21 21.645006 21 20 L 21 7 A 1.0001 1.0001 0 0 0 20.707031 6.2929688 L 15.707031 1.2929688 A 1.0001 1.0001 0 0 0 15 1 L 6 1 z M 15 3.4140625 L 18.585938 7 L 16 7 C 15.435872 7 15 6.5641282 15 6 L 15 3.4140625 z M 6.453125 9.0410156 C 6.4012889 9.0402517 6.3485353 9.042235 6.296875 9.046875 C 6.0213533 9.0716218 5.7510366 9.1736985 5.5214844 9.3710938 L 3.6289062 11 L 2.5 11 C 1.6834191 11 1 11.683419 1 12.5 L 1 15.5 C 1 16.316581 1.6834191 17 2.5 17 L 3.6289062 17 L 5.5214844 18.628906 A 1.0001 1.0001 0 0 0 5.5214844 18.630859 C 6.4391863 19.419957 8.0004306 18.701983 8 17.492188 L 8 17.490234 L 8 10.511719 C 8.0015177 9.6602724 7.2306672 9.052474 6.453125 9.0410156 z M 10.880859 10.007812 A 1 1 0 0 0 10.400391 10.199219 A 1 1 0 0 0 10.199219 11.599609 C 11.26855 13.025385 11.26855 14.974615 10.199219 16.400391 A 1 1 0 0 0 10.400391 17.800781 A 1 1 0 0 0 11.800781 17.599609 C 13.398112 15.469837 13.398112 12.530163 11.800781 10.400391 A 1 1 0 0 0 11.140625 10.009766 A 1 1 0 0 0 10.880859 10.007812 z M 6 11.599609 L 6 16.402344 L 4.9335938 15.484375 C 4.5710116 15.172375 4.1072468 15.000122 3.6289062 15 L 3 15 L 3 13 L 3.6308594 13 C 4.1085133 12.9994 4.5715322 12.827178 4.9335938 12.515625 L 6 11.599609 z "/>
</svg>
