<?xml version="1.0" encoding="UTF-8" standalone="no"?>
<svg xmlns="http://www.w3.org/2000/svg" xmlns:svg="http://www.w3.org/2000/svg" width="24" height="24" viewBox="0 0 24 24" fill="currentColor" tags="heart,favourite,bookmark,quick link" categories="files">
  <path d="M 6 1 C 4.3549904 1 3 2.3549904 3 4 L 3 6 A 1 1 0 0 0 4 7 A 1 1 0 0 0 5 6 L 5 4 C 5 3.4358706 5.4358706 3 6 3 L 13 3 L 13 6 C 13 7.6450096 14.35499 9 16 9 L 19 9 L 19 20 C 19 20.564129 18.564129 21 18 21 L 4 21 A 1 1 0 0 0 3 22 A 1 1 0 0 0 4 23 L 18 23 C 19.64501 23 21 21.64501 21 20 L 21 7 A 1.0001 1.0001 0 0 0 20.707031 6.2929688 L 15.707031 1.2929688 A 1.0001 1.0001 0 0 0 15 1 L 6 1 z M 15 3.4140625 L 18.585938 7 L 16 7 C 15.435871 7 15 6.5641294 15 6 L 15 3.4140625 z M 8.484375 8.9921875 C 8.06617 9.0028728 7.6459834 9.089986 7.2460938 9.2578125 C 6.9952914 9.3618247 6.7881797 9.5556469 6.5664062 9.7207031 L 6.8476562 9.9921875 L 6.8574219 10.003906 C 6.7469194 9.8930443 6.583257 9.8841919 6.4609375 9.7910156 C 6.3546283 9.8768542 6.2231203 9.9189931 6.1269531 10.019531 L 6.1523438 9.9921875 L 6.3964844 9.7558594 C 5.4445051 9.0632776 4.2355968 8.7994919 3.125 9.2558594 C 2.6934039 9.429402 2.3160188 9.6905608 2.0058594 10 C 0.66756023 11.324212 0.68101293 13.623439 2.1992188 15.154297 A 1.0001 1.0001 0 0 0 2.2070312 15.160156 L 5.796875 18.710938 A 1.0001 1.0001 0 0 0 7.2011719 18.712891 L 10.802734 15.162109 A 1.0001 1.0001 0 0 0 10.810547 15.154297 C 12.323639 13.628595 12.325044 11.346104 11.007812 10.021484 A 1.0001 1.0001 0 0 0 10.996094 9.9921875 C 10.504043 9.5007588 9.8858974 9.1828164 9.2304688 9.0546875 C 8.9851608 9.0067326 8.735298 8.9857763 8.484375 8.9921875 z M 8.5351562 10.990234 C 8.9182728 10.980498 9.2960007 11.126175 9.5800781 11.408203 A 1.0001 1.0001 0 0 0 9.5859375 11.419922 C 10.150132 11.978178 10.270463 12.858923 9.390625 13.746094 L 6.5019531 16.59375 L 3.6171875 13.742188 C 2.7397446 12.854421 2.8532137 11.974867 3.4140625 11.419922 A 1.0001 1.0001 0 0 0 3.4179688 11.417969 C 3.5659854 11.269952 3.7062742 11.175303 3.8710938 11.109375 A 1.0001 1.0001 0 0 0 3.8828125 11.103516 C 4.4205071 10.881078 5.0306255 11.003886 5.4414062 11.416016 A 1.0001 1.0001 0 0 0 5.453125 11.427734 L 5.8027344 11.767578 A 1.0001 1.0001 0 0 0 7.1972656 11.767578 L 7.546875 11.427734 A 1.0001 1.0001 0 0 0 7.5722656 11.400391 C 7.6899128 11.277396 7.8455464 11.172277 8.0117188 11.103516 A 1.0001 1.0001 0 0 0 8.0175781 11.101562 C 8.1853617 11.030913 8.3610124 10.99466 8.5351562 10.990234 z "/>
</svg>
