<svg xmlns="http://www.w3.org/2000/svg" xmlns:svg="http://www.w3.org/2000/svg" width="24" height="24" viewBox="0 0 24 24" fill="currentColor" tags="zip,package,archive" categories="files">
  <path d="M 6 1 C 4.3549904 1 3 2.3549904 3 4 L 3 15.5 A 1 1 0 0 0 4 16.5 A 1 1 0 0 0 5 15.5 L 5 4 C 5 3.4358706 5.4358706 3 6 3 L 13 3 L 13 7 C 13 8.0927249 13.907275 9 15 9 L 19 9 L 19 20 C 19 20.564129 18.564129 21 18 21 L 13.658203 21 A 1 1 0 0 0 12.658203 22 A 1 1 0 0 0 13.658203 23 L 18 23 C 19.64501 23 21 21.64501 21 20 L 21 8.0019531 L 21 8 C 21.001701 7.0943483 20.641585 6.225212 20 5.5859375 L 16.414062 2 C 15.774788 1.3584154 14.905652 0.99829936 14 1 L 6 1 z M 15 3.4160156 L 18.583984 7 L 15 7 L 15 3.4160156 z M 8 5 A 1 1 0 0 0 7 6 L 7 7 A 1 1 0 0 0 8 8 A 1 1 0 0 0 9 7 L 9 6 A 1 1 0 0 0 8 5 z M 8 10 A 1 1 0 0 0 7 11 L 7 12 A 1 1 0 0 0 8 13 A 1 1 0 0 0 9 12 L 9 11 A 1 1 0 0 0 8 10 z M 8 15 A 1 1 0 0 0 7 16 L 7 17.173828 C 5.8399128 17.589685 5 18.704858 5 20 C 5 21.64501 6.3549904 23 8 23 C 9.6450096 23 11 21.64501 11 20 C 11 18.704858 10.160087 17.589685 9 17.173828 L 9 16 A 1 1 0 0 0 8 15 z M 8 19 C 8.5641294 19 9 19.435871 9 20 C 9 20.564129 8.5641294 21 8 21 C 7.4358706 21 7 20.564129 7 20 C 7 19.435871 7.4358706 19 8 19 z "/>
</svg>
