<svg xmlns="http://www.w3.org/2000/svg" xmlns:svg="http://www.w3.org/2000/svg" width="24" height="24" viewBox="0 0 24 24" fill="currentColor" tags="script,document,html,xml,property list,plist" categories="files,development">
  <path d="M 6 1 C 4.3549904 1 3 2.3549904 3 4 L 3 12.150391 A 1 1 0 0 0 4 13.150391 A 1 1 0 0 0 5 12.150391 L 5 4 C 5 3.4358706 5.4358706 3 6 3 L 13 3 L 13 7 C 13 8.0927249 13.907275 9 15 9 L 19 9 L 19 20 C 19 20.564129 18.564129 21 18 21 L 14.650391 21 A 1 1 0 0 0 13.650391 22 A 1 1 0 0 0 14.650391 23 L 18 23 C 19.64501 23 21 21.64501 21 20 L 21 8.0019531 L 21 8 C 21.001701 7.0943483 20.641585 6.225212 20 5.5859375 L 16.414062 2 C 15.774788 1.3584154 14.905652 0.99829936 14 1 L 6 1 z M 15 3.4160156 L 18.583984 7 L 15 7 L 15 3.4160156 z M 5 15 A 1 1 0 0 0 4.2929688 15.292969 L 1.2929688 18.292969 A 1.0001 1.0001 0 0 0 1.2929688 19.707031 L 4.2929688 22.707031 A 1 1 0 0 0 5.7070312 22.707031 A 1 1 0 0 0 5.7070312 21.292969 L 3.4140625 19 L 5.7070312 16.707031 A 1 1 0 0 0 5.7070312 15.292969 A 1 1 0 0 0 5 15 z M 9 15 A 1 1 0 0 0 8.2929688 15.292969 A 1 1 0 0 0 8.2929688 16.707031 L 10.585938 19 L 8.2929688 21.292969 A 1 1 0 0 0 8.2929688 22.707031 A 1 1 0 0 0 9.7070312 22.707031 L 12.707031 19.707031 A 1.0001 1.0001 0 0 0 12.707031 18.292969 L 9.7070312 15.292969 A 1 1 0 0 0 9 15 z "/>
</svg>
