<?xml version="1.0" encoding="UTF-8" standalone="no"?>
<svg xmlns="http://www.w3.org/2000/svg" xmlns:svg="http://www.w3.org/2000/svg" width="24" height="24" viewBox="0 0 24 24" fill="currentColor" tags="scan,code,qr-code" categories="files">
  
  <path d="M 6 1 C 4.3549936 1 3 2.3549936 3 4 L 3 20 C 3 21.645006 4.3549936 23 6 23 L 10 23 A 1 1 0 0 0 11 22 A 1 1 0 0 0 10 21 L 6 21 C 5.4358718 21 5 20.564128 5 20 L 5 4 C 5 3.4358718 5.4358718 3 6 3 L 13 3 L 13 6 C 13 7.6450064 14.354994 9 16 9 L 19 9 L 19 10 A 1 1 0 0 0 20 11 A 1 1 0 0 0 21 10 L 21 7 A 1.0001 1.0001 0 0 0 20.707031 6.2929688 L 15.707031 1.2929688 A 1.0001 1.0001 0 0 0 15 1 L 6 1 z M 15 3.4140625 L 18.585938 7 L 16 7 C 15.435872 7 15 6.5641282 15 6 L 15 3.4140625 z M 16 13 C 14.354994 13 13 14.354994 13 16 A 1 1 0 0 0 14 17 A 1 1 0 0 0 15 16 C 15 15.435872 15.435872 15 16 15 A 1 1 0 0 0 17 14 A 1 1 0 0 0 16 13 z M 20 13 A 1 1 0 0 0 19 14 A 1 1 0 0 0 20 15 C 20.564128 15 21 15.435872 21 16 A 1 1 0 0 0 22 17 A 1 1 0 0 0 23 16 C 23 14.354994 21.645006 13 20 13 z M 14 19 A 1 1 0 0 0 13 20 C 13 21.645006 14.354994 23 16 23 A 1 1 0 0 0 17 22 A 1 1 0 0 0 16 21 C 15.435872 21 15 20.564128 15 20 A 1 1 0 0 0 14 19 z M 22 19 A 1 1 0 0 0 21 20 C 21 20.564128 20.564128 21 20 21 A 1 1 0 0 0 19 22 A 1 1 0 0 0 20 23 C 21.645006 23 23 21.645006 23 20 A 1 1 0 0 0 22 19 z "/>
</svg>
