<svg xmlns="http://www.w3.org/2000/svg" xmlns:svg="http://www.w3.org/2000/svg" width="24" height="24" viewBox="0 0 24 24" fill="currentColor" tags="key,private,public,security" categories="files,security">
  <path d="M 6 1 C 4.3549904 1 3 2.3549904 3 4 L 3 14.099609 A 1 1 0 0 0 4 15.099609 A 1 1 0 0 0 5 14.099609 L 5 4 C 5 3.4358706 5.4358706 3 6 3 L 13 3 L 13 7 C 13 8.0927249 13.907275 9 15 9 L 19 9 L 19 20 C 19 20.564129 18.564129 21 18 21 L 10.650391 21 A 1 1 0 0 0 9.6503906 22 A 1 1 0 0 0 10.650391 23 L 18 23 C 19.64501 23 21 21.64501 21 20 L 21 8.0019531 L 21 8 C 21.001701 7.0943483 20.641585 6.225212 20 5.5859375 L 16.414062 2 C 15.774788 1.3584154 14.905652 0.99829936 14 1 L 6 1 z M 15 3.4160156 L 18.583984 7 L 15 7 L 15 3.4160156 z M 11 13 A 1 1 0 0 0 10.292969 13.292969 L 6.2910156 17.294922 C 5.8991967 17.105755 5.4607096 17 5 17 C 3.3549904 17 2 18.35499 2 20 C 2 21.64501 3.3549904 23 5 23 C 6.6450096 23 8 21.64501 8 20 C 8 19.53929 7.8942447 19.100803 7.7050781 18.708984 L 10 16.414062 L 10.292969 16.707031 A 1 1 0 0 0 11.707031 16.707031 A 1 1 0 0 0 11.707031 15.292969 L 11.414062 15 L 11.707031 14.707031 A 1 1 0 0 0 11.707031 13.292969 A 1 1 0 0 0 11 13 z M 5 19 C 5.2527111 19 5.4787619 19.087092 5.6523438 19.234375 A 1 1 0 0 0 5.7070312 19.292969 A 1 1 0 0 0 5.765625 19.347656 C 5.912908 19.521238 6 19.747289 6 20 C 6 20.564129 5.5641294 21 5 21 C 4.4358706 21 4 20.564129 4 20 C 4 19.435871 4.4358706 19 5 19 z "/>
</svg>
