<?xml version="1.0" encoding="UTF-8" standalone="no"?>
<svg xmlns="http://www.w3.org/2000/svg" xmlns:svg="http://www.w3.org/2000/svg" width="24" height="24" viewBox="0 0 24 24" fill="currentColor" tags="font,text,typography,type" categories="files,text">
  <path d="M 6 1 C 4.3549936 1 3 2.3549936 3 4 L 3 20 C 3 21.645006 4.3549936 23 6 23 L 18 23 C 19.645006 23 21 21.645006 21 20 L 21 7 A 1.0001 1.0001 0 0 0 20.707031 6.2929688 L 15.707031 1.2929688 A 1.0001 1.0001 0 0 0 15 1 L 6 1 z M 6 3 L 13 3 L 13 6 C 13 7.6450064 14.354994 9 16 9 L 19 9 L 19 20 C 19 20.564128 18.564128 21 18 21 L 6 21 C 5.4358718 21 5 20.564128 5 20 L 5 4 C 5 3.4358718 5.4358718 3 6 3 z M 15 3.4140625 L 18.585938 7 L 16 7 C 15.435872 7 15 6.5641282 15 6 L 15 3.4140625 z M 9 11 A 1.0001 1.0001 0 0 0 8 12 L 8 13 A 1 1 0 0 0 9 14 A 1 1 0 0 0 10 13 L 11 13 L 11 17 A 1 1 0 0 0 10 18 A 1 1 0 0 0 11 19 L 12 19 L 13 19 A 1 1 0 0 0 14 18 A 1 1 0 0 0 13 17 L 13 13 L 14 13 A 1 1 0 0 0 15 14 A 1 1 0 0 0 16 13 L 16 12 A 1.0001 1.0001 0 0 0 15 11 L 9 11 z "/>
</svg>
