<?xml version="1.0" encoding="UTF-8" standalone="no"?>
<svg xmlns="http://www.w3.org/2000/svg" xmlns:svg="http://www.w3.org/2000/svg" width="24" height="24" viewBox="0 0 24 24" fill="currentColor" tags="movie,video,reel,camera,cinema,entertainment" categories="photography,multimedia">
  <path d="M 5 2 C 3.3552972 2 2 3.3552972 2 5 L 2 19 C 2 20.644703 3.3552972 22 5 22 L 19 22 C 20.644703 22 22 20.644703 22 19 L 22 16.5 L 22 5 C 22 3.3552972 20.644703 2 19 2 L 5 2 z M 5 4 L 6 4 L 6 6.5 L 4 6.5 L 4 5 C 4 4.4287028 4.4287028 4 5 4 z M 8 4 L 16 4 L 16 11 L 8 11 L 8 4 z M 18 4 L 19 4 C 19.571297 4 20 4.4287028 20 5 L 20 6.5 L 18 6.5 L 18 4 z M 4 8.5 L 6 8.5 L 6 11 L 4 11 L 4 8.5 z M 18 8.5 L 20 8.5 L 20 11 L 18 11 L 18 8.5 z M 4 13 L 6 13 L 6 15.5 L 4 15.5 L 4 13 z M 8 13 L 16 13 L 16 16.5 L 16 20 L 8 20 L 8 13 z M 18 13 L 20 13 L 20 15.5 L 18 15.5 L 18 13 z M 4 17.5 L 6 17.5 L 6 20 L 5 20 C 4.4287028 20 4 19.571297 4 19 L 4 17.5 z M 18 17.5 L 20 17.5 L 20 19 C 20 19.571297 19.571297 20 19 20 L 18 20 L 18 17.5 z "/>
</svg>
