<?xml version="1.0" encoding="UTF-8" standalone="no"?>
<svg xmlns="http://www.w3.org/2000/svg" xmlns:svg="http://www.w3.org/2000/svg" width="24" height="24" viewBox="0 0 24 24" fill="currentColor" tags="2fa,authentication,biometric,identity,security" categories="account,security,medical,devices">
  <path d="M 11.746094 0.9921875 C 10.646 1.0241502 9.5567567 1.2193624 8.5214844 1.5644531 C 4.3803949 2.9448163 1 6.7706075 1 12 A 1 1 0 0 0 2 13 A 1 1 0 0 0 3 12 C 3 7.6192892 5.7369198 4.6000632 9.1542969 3.4609375 C 12.571674 2.3218118 16.570792 3.0950407 19.199219 6.5996094 A 1 1 0 0 0 20.599609 6.8007812 A 1 1 0 0 0 20.800781 5.4003906 C 18.447555 2.2627552 15.046373 0.89629957 11.746094 0.9921875 z M 11.867188 5.0019531 C 10.737191 5.0144885 9.5843728 5.3075306 8.5 5.9335938 A 1 1 0 0 0 8.1347656 7.3007812 A 1 1 0 0 0 9.5 7.6660156 C 12.87629 5.716713 17.0025 8.101397 17 12 L 17 14 A 1 1 0 0 0 18 15 A 1 1 0 0 0 19 14 L 19 12 C 19.00257 7.9931976 15.698295 5.0823892 12.09375 5.0039062 C 12.018655 5.0022712 11.942521 5.0011174 11.867188 5.0019531 z M 12 9 C 10.354994 9 9 10.354994 9 12 C 9 12.954639 8.9032598 14.428969 8.7460938 15.892578 A 1 1 0 0 0 9.6328125 16.994141 A 1 1 0 0 0 10.734375 16.107422 C 10.897208 14.591036 11 13.085357 11 12 C 11 11.435872 11.435872 11 12 11 A 1 1 0 0 0 13 10 A 1 1 0 0 0 12 9 z M 21.824219 9 A 1 1 0 0 0 21.601562 9.0195312 A 1 1 0 0 0 20.820312 10.199219 C 20.823012 10.212289 20.863946 10.560827 20.884766 10.978516 C 20.905596 11.396204 20.919608 11.927527 20.923828 12.5 C 20.932228 13.644947 20.898048 14.966794 20.804688 15.900391 A 1 1 0 0 0 21.701172 16.994141 A 1 1 0 0 0 22.794922 16.099609 C 22.901562 15.03321 22.932632 13.677923 22.923828 12.484375 C 22.919428 11.887601 22.905522 11.334279 22.882812 10.878906 C 22.860103 10.423535 22.842142 10.110706 22.779297 9.8007812 A 1 1 0 0 0 21.824219 9 z M 6.4160156 9.0019531 A 1 1 0 0 0 5.3964844 9.6679688 C 5.1327804 10.417586 4.9988211 11.207306 5 12.001953 C 4.9997624 14.89021 4.4874335 17.873637 4.0507812 19.183594 A 1 1 0 0 0 4.6835938 20.449219 A 1 1 0 0 0 5.9492188 19.816406 C 6.5124632 18.126673 7 15.111105 7 12 A 1.0001 1.0001 0 0 0 7 11.998047 C 6.9991579 11.430431 7.0948402 10.867482 7.2832031 10.332031 A 1 1 0 0 0 6.671875 9.0566406 A 1 1 0 0 0 6.4160156 9.0019531 z M 14 12.119141 A 1 1 0 0 0 13 13.119141 C 13 15.499135 12.935659 19.470419 12.072266 21.628906 A 1 1 0 0 0 12.628906 22.927734 A 1 1 0 0 0 13.927734 22.371094 C 15.064336 19.529591 15 15.499135 15 13.119141 A 1 1 0 0 0 14 12.119141 z M 2 15 A 1 1 0 0 0 1 16 A 1 1 0 0 0 2 17 L 2.0097656 17 A 1 1 0 0 0 3.0097656 16 A 1 1 0 0 0 2.0097656 15 L 2 15 z M 17.691406 17.003906 A 1 1 0 0 0 16.794922 17.902344 C 16.737772 18.490218 16.422308 20.255648 16.308594 20.824219 A 1 1 0 0 0 17.09375 22 A 1 1 0 0 0 18.271484 21.216797 C 18.39777 20.58537 18.702311 18.949779 18.785156 18.097656 A 1 1 0 0 0 17.886719 17.003906 A 1 1 0 0 0 17.691406 17.003906 z M 9.2207031 19 A 1 1 0 0 0 8.234375 19.826172 C 8.1347861 20.390508 7.9156085 21.011044 7.6972656 21.697266 A 1 1 0 0 0 8.3476562 22.953125 A 1 1 0 0 0 9.6035156 22.302734 C 9.8051719 21.668958 10.064667 20.969489 10.205078 20.173828 A 1 1 0 0 0 9.3945312 19.015625 A 1 1 0 0 0 9.2207031 19 z "/>
</svg>
