<svg xmlns="http://www.w3.org/2000/svg" xmlns:svg="http://www.w3.org/2000/svg" width="24" height="24" viewBox="0 0 24 24" fill="currentColor" tags="2fa,authentication,biometric,identity,security" categories="account,security,medical,devices">
  <path d="M 11.746094 0.9921875 C 10.645998 1.0241502 9.5567588 1.2193616 8.5214844 1.5644531 C 4.3803867 2.944819 1 6.7705971 1 12 A 1 1 0 0 0 2 13 A 1 1 0 0 0 3 12 C 3 7.6192804 5.736913 4.6000655 9.1542969 3.4609375 C 12.571681 2.3218095 16.570787 3.0950337 19.199219 6.5996094 A 1 1 0 0 0 20.599609 6.8007812 A 1 1 0 0 0 20.800781 5.4003906 C 18.44755 2.2627489 15.04638 0.89629937 11.746094 0.9921875 z M 12.09375 5.0039062 C 10.892232 4.9777452 9.6566666 5.2657917 8.5 5.9335938 A 1 1 0 0 0 8.1347656 7.3007812 A 1 1 0 0 0 9.5 7.6660156 C 12.876296 5.716709 17.0025 8.1013892 17 12 L 17 14 A 1 1 0 0 0 18 15 A 1 1 0 0 0 19 14 L 19 12 C 19.00257 7.9931896 15.698303 5.0823893 12.09375 5.0039062 z M 12 9 C 10.35499 9 9 10.35499 9 12 C 9 12.954641 8.9032599 14.428966 8.7460938 15.892578 A 1 1 0 0 0 9.6328125 16.994141 A 1 1 0 0 0 10.734375 16.107422 C 10.897209 14.591034 11 13.085359 11 12 C 11 11.435871 11.435871 11 12 11 A 1 1 0 0 0 13 10 A 1 1 0 0 0 12 9 z M 6.2851562 9.0019531 A 1 1 0 0 0 5.3964844 9.6679688 C 5.13278 10.417588 4.9988211 11.207304 5 12.001953 C 4.9997624 14.890216 4.4874344 17.873635 4.0507812 19.183594 A 1 1 0 0 0 4.6835938 20.449219 A 1 1 0 0 0 5.9492188 19.816406 C 6.5124644 18.12667 7 15.111111 7 12 A 1.0001 1.0001 0 0 0 7 11.998047 C 6.9991579 11.430477 7.0948395 10.867483 7.2832031 10.332031 A 1 1 0 0 0 6.671875 9.0566406 A 1 1 0 0 0 6.2851562 9.0019531 z M 21.730469 9.0019531 A 1 1 0 0 0 21.601562 9.0195312 A 1 1 0 0 0 20.820312 10.199219 C 20.823013 10.212289 20.863946 10.560826 20.884766 10.978516 C 20.905596 11.396205 20.919608 11.927525 20.923828 12.5 C 20.932228 13.64495 20.898048 14.966792 20.804688 15.900391 A 1 1 0 0 0 21.701172 16.994141 A 1 1 0 0 0 22.794922 16.099609 C 22.901562 15.033208 22.932632 13.677925 22.923828 12.484375 C 22.919428 11.8876 22.905523 11.334279 22.882812 10.878906 C 22.860102 10.423533 22.842142 10.110707 22.779297 9.8007812 A 1 1 0 0 0 21.730469 9.0019531 z M 14 12.119141 A 1 1 0 0 0 13 13.119141 C 13 15.499141 12.93566 19.470415 12.072266 21.628906 A 1 1 0 0 0 12.628906 22.927734 A 1 1 0 0 0 13.927734 22.371094 C 15.064338 19.529585 15 15.499141 15 13.119141 A 1 1 0 0 0 14 12.119141 z M 2 15 A 1 1 0 0 0 1 16 A 1 1 0 0 0 2 17 L 2.0097656 17 A 1 1 0 0 0 3.0097656 16 A 1 1 0 0 0 2.0097656 15 L 2 15 z M 17.755859 17 A 1 1 0 0 0 16.794922 17.902344 C 16.737772 18.490219 16.422308 20.255648 16.308594 20.824219 A 1 1 0 0 0 17.09375 22 A 1 1 0 0 0 18.271484 21.216797 C 18.39777 20.585368 18.702311 18.949781 18.785156 18.097656 A 1 1 0 0 0 17.886719 17.003906 A 1 1 0 0 0 17.755859 17 z M 9.2636719 19.001953 A 1 1 0 0 0 8.234375 19.826172 C 8.134786 20.390509 7.9156089 21.011044 7.6972656 21.697266 A 1 1 0 0 0 8.3476562 22.953125 A 1 1 0 0 0 9.6035156 22.302734 C 9.8051723 21.668956 10.064667 20.969491 10.205078 20.173828 A 1 1 0 0 0 9.3945312 19.015625 A 1 1 0 0 0 9.2636719 19.001953 z "/>
</svg>
