<?xml version="1.0" encoding="UTF-8" standalone="no"?>
<svg xmlns="http://www.w3.org/2000/svg" xmlns:svg="http://www.w3.org/2000/svg" width="24" height="24" viewBox="0 0 24 24" fill="currentColor" tags="flames,smoke,foam,water,spray,hose,firefighter,fireman,department,brigade,station,emergency,suppress,compressed,tank,cylinder,safety,equipment,amenities" categories="home,tools,travel">
  <path d="M 12 1 C 11.253543 1 10.593279 1.4224078 10.25 2.0390625 C 6.7457904 2.4153767 4 5.3990227 4 9 L 4 20 A 1 1 0 0 0 5 21 A 1 1 0 0 0 6 20 L 6 14 L 8 14 L 8 18 L 8 20 C 8 21.64501 9.3549904 23 11 23 L 15 23 C 16.64501 23 18 21.64501 18 20 L 18 18 L 18 10 C 18 8.4166671 17.370244 7.1018922 16.414062 6.2519531 C 16.281178 6.1338331 16.142894 6.0247689 16 5.9238281 L 16 4 L 18 4 A 1 1 0 0 0 19 3 A 1 1 0 0 0 18 2 L 15.726562 2 C 15.377372 1.4051277 14.730192 1 14 1 L 12 1 z M 12 3 L 14 3 L 14 5.0917969 C 13.669658 5.0306966 13.334326 5 13 5 C 12.665674 5 12.330342 5.0306966 12 5.0917969 L 12 3 z M 10 4.0996094 L 10 5.9238281 C 9.8571055 6.024769 9.7188226 6.133833 9.5859375 6.2519531 C 8.6297556 7.1018922 8 8.4166671 8 10 L 8 12 L 6 12 L 6 9 C 6 6.5694697 7.7103546 4.5594852 10 4.0996094 z M 13 7 C 13.49278 7 13.980831 7.1058452 14.410156 7.3066406 A 1 1 0 0 0 14.666016 7.4433594 C 14.816363 7.5325321 14.957472 7.633856 15.085938 7.7480469 C 15.629755 8.2314405 16 8.9166674 16 10 L 16 17 L 10 17 L 10 13 L 10 10 C 10 8.9166674 10.370244 8.2314405 10.914062 7.7480469 C 11.042527 7.6338558 11.183637 7.5325322 11.333984 7.4433594 A 1 1 0 0 0 11.589844 7.3066406 C 12.019169 7.1058449 12.50722 7 13 7 z M 10 19 L 16 19 L 16 20 C 16 20.564129 15.564129 21 15 21 L 11 21 C 10.435871 21 10 20.564129 10 20 L 10 19 z "/>
</svg>
