<svg xmlns="http://www.w3.org/2000/svg" xmlns:svg="http://www.w3.org/2000/svg" width="24" height="24" viewBox="0 0 24 24" fill="currentColor" tags="fishing,rod,hobby,equipment,reel" categories="sports,travel">
  <path d="M 5 1 C 3.9072751 1 3 1.9072751 3 3 L 3 15 C 3 15.916666 3.3797556 16.731441 3.9609375 17.248047 C 4.5421194 17.764653 5.2777779 18 6 18 C 6.7222221 18 7.4578806 17.764653 8.0390625 17.248047 C 8.6202444 16.731441 9 15.916666 9 15 A 1 1 0 0 0 8 14 A 1 1 0 0 0 7 15 C 7 15.416666 6.8797556 15.601893 6.7109375 15.751953 C 6.5421194 15.902014 6.2777779 16 6 16 C 5.7222221 16 5.4578806 15.902014 5.2890625 15.751953 C 5.1202444 15.601893 5 15.416666 5 15 L 5 12 A 1 1 0 0 0 6 11 A 1 1 0 0 0 5 10 L 5 3 L 5.5 3 C 12.525171 3 17.675215 8.0304651 18.779297 15.103516 C 18.530408 15.035674 18.269067 15 18 15 C 16.35499 15 15 16.35499 15 18 C 15 19.64501 16.35499 21 18 21 C 18.349867 21 18.686616 20.938511 19 20.826172 L 19 22 A 1 1 0 0 0 20 23 A 1 1 0 0 0 21 22 L 21 18 C 21 17.914004 20.995535 17.8284 20.988281 17.744141 C 20.871636 8.4208246 14.466227 1 5.5 1 L 5 1 z M 18 17 C 18.516704 17 18.925101 17.366367 18.990234 17.861328 C 18.990578 17.90887 19 17.952327 19 18 C 19 18.564129 18.564129 19 18 19 C 17.435871 19 17 18.564129 17 18 C 17 17.435871 17.435871 17 18 17 z "/>
</svg>
