<?xml version="1.0" encoding="UTF-8" standalone="no"?>
<svg xmlns="http://www.w3.org/2000/svg" xmlns:svg="http://www.w3.org/2000/svg" width="24" height="24" viewBox="0 0 24 24" fill="currentColor" tags="dish,restaurant,course,meal,seafood,pet,sea,marine" categories="food-beverage,animals">
  <path d="M 8 2 A 1.0001 1.0001 0 0 0 7.2734375 3.6855469 C 8.1347303 4.59837 8.9091028 5.8000037 9.28125 6.78125 C 8.6637706 7.1920513 8.0917128 7.6663272 7.5839844 8.1972656 C 7.3766224 7.6337032 7.0893215 7.109538 6.71875 6.640625 C 5.8453406 5.5354321 4.5193301 4.7819433 2.8925781 4.5136719 A 1.0001 1.0001 0 0 0 1.8984375 4.9453125 C 1.1993144 5.9939972 0.97759903 7.3748887 1.0097656 8.7734375 C 1.0362386 9.9244152 1.3214871 11.03962 1.8691406 11.998047 C 1.3162138 12.95711 1.0284677 14.073755 1.0019531 15.226562 C 0.96975592 16.626444 1.194135 18.009699 1.9003906 19.058594 A 1.0001 1.0001 0 0 0 2.8925781 19.486328 C 4.5193301 19.218057 5.8453406 18.464568 6.71875 17.359375 C 7.088803 16.891118 7.3747375 16.367351 7.5820312 15.804688 C 8.2706909 16.52509 9.0773525 17.14113 9.9550781 17.634766 C 9.8379348 18.632691 9.42103 19.57706 8.75 20.337891 A 1.0001 1.0001 0 0 0 9.5 22 L 13.796875 22 C 15.259965 22.0054 16.524223 20.937189 16.765625 19.494141 A 1.0001 1.0001 0 0 0 16.767578 19.492188 L 16.884766 18.769531 C 19.932973 18.008384 22.107628 15.426122 22.964844 12.261719 A 1.0001 1.0001 0 0 0 22.964844 11.738281 C 22.107262 8.5816491 19.934616 5.9930849 16.884766 5.2304688 L 16.767578 4.5078125 A 1.0001 1.0001 0 0 0 16.765625 4.5058594 C 16.52427 3.0628081 15.259965 1.9945788 13.796875 2 L 8 2 z M 10.013672 4 L 13.800781 4 A 1.0001 1.0001 0 0 0 13.802734 4 C 14.299682 3.99816 14.710975 4.3457974 14.792969 4.8359375 L 14.820312 5.0039062 C 13.551406 5.0289716 12.258774 5.3168861 11.050781 5.828125 C 10.780856 5.2020295 10.416957 4.5914469 10.013672 4 z M 3.4140625 6.7675781 C 4.1453112 7.0261559 4.750008 7.3766955 5.1484375 7.8808594 C 5.6693764 8.5400439 5.9648548 9.4192969 5.9941406 10.496094 C 5.8078954 10.89438 5.6520241 11.308108 5.5351562 11.738281 A 1.0001 1.0001 0 0 0 5.5351562 12.261719 C 5.6518976 12.692668 5.8080356 13.107158 5.9941406 13.505859 C 5.9645456 14.581761 5.6690604 15.460356 5.1484375 16.119141 C 4.7492789 16.624227 4.1434609 16.975842 3.4101562 17.234375 C 3.2107005 16.678584 2.9833576 16.081941 3.0019531 15.273438 C 3.0272559 14.173318 3.3538258 13.092335 3.7304688 12.636719 A 1.0001 1.0001 0 0 0 3.7324219 11.365234 C 3.3592343 10.910124 3.0331459 9.8280137 3.0078125 8.7265625 C 2.9892392 7.9190287 3.2170598 7.3240941 3.4140625 6.7675781 z M 14.199219 7.0527344 C 12.597599 10.15007 12.597063 13.852085 14.199219 16.949219 C 11.418068 16.60246 8.4536181 14.525598 7.6015625 12 C 8.4533995 9.4832254 11.419773 7.4013783 14.199219 7.0527344 z M 16.447266 7.171875 C 18.652682 7.7164557 20.181851 9.5214564 20.929688 12 C 20.181781 14.486154 18.653831 16.285651 16.447266 16.828125 C 14.51126 13.89877 14.51126 10.101229 16.447266 7.171875 z M 18 11 A 1 1 0 0 0 17 12 L 17 12.5 A 1 1 0 0 0 18 13.5 A 1 1 0 0 0 19 12.5 L 19 12 A 1 1 0 0 0 18 11 z M 11.810547 18.460938 C 12.792885 18.791471 13.814275 18.976281 14.820312 18.996094 L 14.792969 19.164062 C 14.710928 19.654249 14.299682 20.001841 13.802734 20 A 1.0001 1.0001 0 0 0 13.800781 20 L 11.248047 20 C 11.483321 19.503178 11.679046 18.990417 11.810547 18.460938 z "/>
</svg>
