<?xml version="1.0" encoding="UTF-8" standalone="no"?>
<svg xmlns="http://www.w3.org/2000/svg" xmlns:svg="http://www.w3.org/2000/svg" width="24" height="24" viewBox="0 0 24 24" fill="currentColor" tags="dish,restaurant,course,meal,seafood,pet,sea,marine" categories="food-beverage,animals">
  <path d="M 13.796875 6.96875 C 11.337518 6.9479014 9.1402126 7.8505531 7.3261719 9.0390625 C 6.6250932 9.4983899 6.0378298 10.024761 5.4433594 10.542969 C 3.9471123 8.928631 2.8574219 7.4863281 2.8574219 7.4863281 A 1 1 0 0 0 1.4863281 7.1425781 A 1 1 0 0 0 1.1425781 8.5136719 C 1.1425781 8.5136719 2.1882853 10.165794 3.9082031 12 C 2.1882853 13.834206 1.1425781 15.486328 1.1425781 15.486328 A 1 1 0 0 0 1.4863281 16.857422 A 1 1 0 0 0 2.8574219 16.513672 C 2.8574219 16.513672 3.9471123 15.071369 5.4433594 13.457031 C 6.0378298 13.975239 6.6250932 14.50161 7.3261719 14.960938 C 9.2611487 16.228681 11.633077 17.170136 14.292969 17.013672 C 16.95286 16.857208 19.828466 15.585596 22.707031 12.707031 A 1.0001 1.0001 0 0 0 22.707031 11.292969 C 19.828466 8.4144036 16.95286 7.1427923 14.292969 6.9863281 C 14.126726 6.9765491 13.960832 6.9701399 13.796875 6.96875 z M 13.779297 8.96875 C 13.910452 8.9698702 14.043196 8.9746228 14.175781 8.9824219 C 16.029024 9.0914361 18.110216 10.061731 20.345703 12 C 18.110216 13.938269 16.029024 14.908564 14.175781 15.017578 C 12.054423 15.142364 10.113851 14.396318 8.4238281 13.289062 C 7.8402767 12.906735 7.5326311 12.438699 7.0253906 12 C 7.5326311 11.561301 7.8402767 11.093263 8.4238281 10.710938 C 10.008225 9.672884 11.811965 8.9519475 13.779297 8.96875 z "/>
</svg>
