<?xml version="1.0" encoding="UTF-8" standalone="no"?>
<svg xmlns="http://www.w3.org/2000/svg" xmlns:svg="http://www.w3.org/2000/svg" width="24" height="24" viewBox="0 0 24 24" fill="currentColor" tags="food,dish,restaurant,course,meal,seafood,animal,pet,sea,marine,allergy,intolerance,diet" categories="food-beverage,animals">
  <path d="M 2 1 A 1 1 0 0 0 1.2929688 1.2929688 A 1 1 0 0 0 1.2929688 2.7070312 L 3.1464844 4.5605469 C 3.0629343 4.5438484 2.9778008 4.5277261 2.8925781 4.5136719 A 1.0001 1.0001 0 0 0 1.8984375 4.9453125 C 1.1993144 5.9939972 0.97759903 7.3748887 1.0097656 8.7734375 C 1.0362386 9.9244152 1.3214871 11.03962 1.8691406 11.998047 C 1.3162138 12.95711 1.0284677 14.073755 1.0019531 15.226562 C 0.96975592 16.626444 1.194135 18.009699 1.9003906 19.058594 A 1.0001 1.0001 0 0 0 2.8925781 19.486328 C 4.5193301 19.218057 5.8453406 18.464568 6.71875 17.359375 C 7.0882254 16.891849 7.3748142 16.370256 7.5820312 15.808594 C 8.2708349 16.528853 9.0792297 17.145198 9.9570312 17.638672 C 9.8394932 18.635635 9.4204461 19.577722 8.75 20.337891 A 1.0001 1.0001 0 0 0 9.5 22 L 13.796875 22 C 15.259965 22.0054 16.524223 20.937189 16.765625 19.494141 A 1.0001 1.0001 0 0 0 16.767578 19.492188 L 16.884766 18.777344 C 17.011011 18.746348 17.135102 18.711177 17.259766 18.673828 L 21.292969 22.707031 A 1 1 0 0 0 22.707031 22.707031 A 1 1 0 0 0 22.707031 21.292969 L 18.244141 16.830078 L 9.3496094 7.9355469 A 1 1 0 0 0 9.3046875 7.890625 L 2.7070312 1.2929688 A 1 1 0 0 0 2 1 z M 8.5292969 2 A 1 1 0 0 0 7.5292969 3 A 1 1 0 0 0 8.5292969 4 L 13.800781 4 A 1.0001 1.0001 0 0 0 13.802734 4 C 14.299682 3.99816 14.710975 4.3457974 14.792969 4.8359375 L 14.820312 5.0039062 C 13.762792 5.0317355 12.717335 5.2291892 11.722656 5.5917969 A 1 1 0 0 0 11.125 6.875 A 1 1 0 0 0 12.408203 7.4707031 C 12.987405 7.2595566 13.58857 7.1179894 14.199219 7.0488281 C 13.933816 7.5614553 13.709682 8.0960246 13.529297 8.6464844 A 1 1 0 0 0 14.167969 9.9082031 A 1 1 0 0 0 15.429688 9.2695312 C 15.673109 8.5267106 16.015515 7.8206688 16.445312 7.1699219 C 18.64602 7.7127105 20.171573 9.5128503 20.921875 11.982422 C 20.641799 12.908976 20.273318 13.773387 19.771484 14.478516 A 1 1 0 0 0 20.007812 15.873047 A 1 1 0 0 0 21.402344 15.638672 C 22.105367 14.650851 22.627922 13.504732 22.964844 12.261719 A 1.0001 1.0001 0 0 0 22.964844 11.738281 C 22.107281 8.5817224 19.934504 5.9911989 16.884766 5.2285156 L 16.767578 4.5078125 A 1.0001 1.0001 0 0 0 16.765625 4.5058594 C 16.52427 3.0628081 15.259965 1.9945788 13.796875 2 L 8.5292969 2 z M 3.4140625 6.7675781 C 4.1453112 7.0261559 4.750008 7.3766955 5.1484375 7.8808594 C 5.6698982 8.5407042 5.9692725 9.4178173 5.9980469 10.496094 C 5.8083922 10.893315 5.652029 11.308404 5.5351562 11.738281 A 1.0001 1.0001 0 0 0 5.5351562 12.261719 C 5.6530853 12.697052 5.8093802 13.117122 5.9980469 13.519531 C 5.9667514 14.590489 5.6673145 15.462565 5.1484375 16.119141 C 4.7492789 16.624227 4.1434609 16.975842 3.4101562 17.234375 C 3.2107005 16.678584 2.9833576 16.081941 3.0019531 15.273438 C 3.0272559 14.173318 3.3538258 13.092335 3.7304688 12.636719 A 1.0001 1.0001 0 0 0 3.7324219 11.365234 C 3.3592343 10.910124 3.0331459 9.8280137 3.0078125 8.7265625 C 2.9892392 7.9190287 3.2170598 7.3240941 3.4140625 6.7675781 z M 8.6523438 10.066406 L 13.357422 14.771484 C 13.558632 15.527153 13.841519 16.257534 14.199219 16.949219 C 11.428476 16.602872 8.4785892 14.537188 7.6152344 12.023438 C 7.8417798 11.337591 8.1818965 10.671407 8.6523438 10.066406 z M 18 11 A 1 1 0 0 0 17 12 L 17 12.470703 L 17 12.5 A 1 1 0 0 0 18 13.5 A 1 1 0 0 0 19 12.5 L 19 12.470703 L 19 12 A 1 1 0 0 0 18 11 z M 11.810547 18.462891 C 12.792849 18.793414 13.814311 18.97822 14.820312 18.998047 L 14.792969 19.164062 C 14.710975 19.654203 14.299682 20.001841 13.802734 20 A 1.0001 1.0001 0 0 0 13.800781 20 L 11.248047 20 C 11.483055 19.50374 11.679049 18.991734 11.810547 18.462891 z "/>
</svg>
