<?xml version="1.0" encoding="UTF-8" standalone="no"?>
<svg xmlns="http://www.w3.org/2000/svg" xmlns:svg="http://www.w3.org/2000/svg" width="24" height="24" viewBox="0 0 24 24" fill="currentColor" tags="food,dish,restaurant,course,meal,seafood,animal,pet,sea,marine,allergy,intolerance,diet" categories="food-beverage,animals">
  
  <path d="M 2 1 A 1 1 0 0 0 1.2929688 1.2929688 A 1 1 0 0 0 1.2929688 2.7070312 L 3.1484375 4.5625 C 3.0636352 4.5455052 2.9791049 4.5279412 2.8925781 4.5136719 A 1.0001 1.0001 0 0 0 1.8984375 4.9453125 C 1.1993158 5.9939952 0.9775991 7.3748915 1.0097656 8.7734375 C 1.0362386 9.9244129 1.3214883 11.039622 1.8691406 11.998047 C 1.3162149 12.957108 1.0284677 14.073758 1.0019531 15.226562 C 0.96975596 16.62644 1.1941364 18.009701 1.9003906 19.058594 A 1.0001 1.0001 0 0 0 2.8925781 19.486328 C 4.5193269 19.218057 5.8453424 18.464566 6.71875 17.359375 C 7.0888023 16.891119 7.3747376 16.367351 7.5820312 15.804688 C 8.2703026 16.524684 9.0759732 17.14127 9.953125 17.634766 C 9.8360236 18.632724 9.4210492 19.577038 8.75 20.337891 A 1.0001 1.0001 0 0 0 9.5 22 L 13.796875 22 C 15.259963 22.0054 16.524224 20.937185 16.765625 19.494141 A 1.0001 1.0001 0 0 0 16.767578 19.492188 L 16.884766 18.775391 C 17.010557 18.744491 17.135544 18.711035 17.259766 18.673828 L 21.292969 22.707031 A 1 1 0 0 0 22.707031 22.707031 A 1 1 0 0 0 22.707031 21.292969 L 18.244141 16.830078 L 9.3496094 7.9355469 L 2.7070312 1.2929688 A 1 1 0 0 0 2 1 z M 8.5292969 2 A 1 1 0 0 0 7.5292969 3 A 1 1 0 0 0 8.5292969 4 L 13.800781 4 A 1.0001 1.0001 0 0 0 13.802734 4 C 14.299681 3.99816 14.710975 4.3457984 14.792969 4.8359375 L 14.820312 5.0039062 C 13.762883 5.0317614 12.717251 5.22922 11.722656 5.5917969 A 1 1 0 0 0 11.125 6.875 A 1 1 0 0 0 12.408203 7.4707031 C 12.987266 7.2596075 13.588721 7.1199603 14.199219 7.0507812 C 13.93396 7.5632134 13.709607 8.0962539 13.529297 8.6464844 A 1 1 0 0 0 14.167969 9.9082031 A 1 1 0 0 0 15.429688 9.2695312 C 15.672973 8.5271266 16.015853 7.8223193 16.445312 7.171875 C 18.64532 7.7150509 20.171722 9.5133406 20.921875 11.982422 C 20.641799 12.908974 20.273318 13.773387 19.771484 14.478516 A 1 1 0 0 0 20.007812 15.873047 A 1 1 0 0 0 21.402344 15.638672 C 22.105366 14.650853 22.627922 13.50473 22.964844 12.261719 A 1.0001 1.0001 0 0 0 22.964844 11.738281 C 22.107263 8.5816555 19.934612 5.9930849 16.884766 5.2304688 L 16.767578 4.5078125 A 1.0001 1.0001 0 0 0 16.765625 4.5058594 C 16.524271 3.062811 15.259963 1.9945788 13.796875 2 L 8.5292969 2 z M 3.4140625 6.7675781 C 4.1453098 7.0261554 4.7500088 7.3766965 5.1484375 7.8808594 C 5.6719031 8.5432412 5.9673436 9.4277486 5.9941406 10.511719 C 5.8072439 10.905029 5.650771 11.313032 5.5351562 11.738281 A 1.0001 1.0001 0 0 0 5.5351562 12.261719 C 5.6518974 12.692667 5.8080357 13.107158 5.9941406 13.505859 C 5.9645456 14.581759 5.6690594 15.460357 5.1484375 16.119141 C 4.7492797 16.624226 4.1434594 16.975843 3.4101562 17.234375 C 3.2107009 16.678586 2.9833576 16.081939 3.0019531 15.273438 C 3.0272558 14.173321 3.3538265 13.092334 3.7304688 12.636719 A 1.0001 1.0001 0 0 0 3.7324219 11.365234 C 3.3592349 10.910125 3.0331459 9.8280115 3.0078125 8.7265625 C 2.9892392 7.9190303 3.2170602 7.3240931 3.4140625 6.7675781 z M 8.6542969 10.068359 L 13.363281 14.777344 C 13.564515 15.5312 13.84611 16.259109 14.203125 16.949219 C 11.431209 16.604383 8.4790091 14.53841 7.6152344 12.023438 C 7.8416651 11.337938 8.1842188 10.673116 8.6542969 10.068359 z M 18 11 A 1 1 0 0 0 17 12 L 17 12.470703 L 17 12.5 A 1 1 0 0 0 18 13.5 A 1 1 0 0 0 19 12.5 L 19 12.470703 L 19 12 A 1 1 0 0 0 18 11 z M 11.808594 18.460938 C 12.79147 18.79184 13.813678 18.976269 14.820312 18.996094 L 14.792969 19.164062 C 14.710975 19.654202 14.299681 20.001841 13.802734 20 A 1.0001 1.0001 0 0 0 13.800781 20 L 11.248047 20 C 11.483235 19.503359 11.677094 18.990213 11.808594 18.460938 z "/>
</svg>
