<?xml version="1.0" encoding="UTF-8" standalone="no"?>
<svg xmlns="http://www.w3.org/2000/svg" xmlns:svg="http://www.w3.org/2000/svg" width="24" height="24" viewBox="0 0 24 24" fill="currentColor" tags="dish,restaurant,course,meal,seafood,pet,sea,marine" categories="food-beverage,animals">
  <path d="M 8 2 A 1.0001 1.0001 0 0 0 7.2734375 3.6855469 C 8.1339989 4.5975948 8.908735 5.7985109 9.28125 6.7792969 C 8.6634866 7.1901401 8.0899918 7.6642397 7.5820312 8.1953125 C 7.374729 7.632537 7.0888675 7.1089635 6.71875 6.640625 C 5.8453406 5.5354321 4.5193301 4.7819433 2.8925781 4.5136719 A 1.0001 1.0001 0 0 0 1.8984375 4.9453125 C 1.1993144 5.9939972 0.97759903 7.3748887 1.0097656 8.7734375 C 1.0362386 9.9244152 1.3214871 11.03962 1.8691406 11.998047 C 1.3162138 12.95711 1.0284677 14.073755 1.0019531 15.226562 C 0.96975592 16.626444 1.194135 18.009699 1.9003906 19.058594 A 1.0001 1.0001 0 0 0 2.8925781 19.486328 C 4.5193301 19.218057 5.8453406 18.464568 6.71875 17.359375 C 7.0882254 16.891849 7.3748142 16.370256 7.5820312 15.808594 C 8.2708416 16.52886 9.0792199 17.145195 9.9570312 17.638672 C 9.8394639 18.63563 9.4204429 19.577726 8.75 20.337891 A 1.0001 1.0001 0 0 0 9.5 22 L 13.796875 22 C 15.259965 22.0054 16.524223 20.937189 16.765625 19.494141 A 1.0001 1.0001 0 0 0 16.767578 19.492188 L 16.884766 18.771484 C 19.933591 18.01071 22.107518 15.42653 22.964844 12.261719 A 1.0001 1.0001 0 0 0 22.964844 11.738281 C 22.107281 8.5817224 19.934504 5.9911989 16.884766 5.2285156 L 16.767578 4.5078125 A 1.0001 1.0001 0 0 0 16.765625 4.5058594 C 16.52427 3.0628081 15.259965 1.9945788 13.796875 2 L 8 2 z M 10.013672 4 L 13.800781 4 A 1.0001 1.0001 0 0 0 13.802734 4 C 14.299682 3.99816 14.710975 4.3457974 14.792969 4.8359375 L 14.820312 5.0019531 C 13.551816 5.0270112 12.258438 5.315241 11.050781 5.8261719 C 10.780874 5.2002291 10.416864 4.5913097 10.013672 4 z M 3.4140625 6.7675781 C 4.1453112 7.0261559 4.750008 7.3766955 5.1484375 7.8808594 C 5.6677159 8.5379428 5.9671412 9.4103286 5.9980469 10.482422 C 5.8093876 10.8842 5.653144 11.303986 5.5351562 11.738281 A 1.0001 1.0001 0 0 0 5.5351562 12.261719 C 5.6530853 12.697052 5.8093802 13.117122 5.9980469 13.519531 C 5.9667514 14.590489 5.6673145 15.462565 5.1484375 16.119141 C 4.7492789 16.624227 4.1434609 16.975842 3.4101562 17.234375 C 3.2107005 16.678584 2.9833576 16.081941 3.0019531 15.273438 C 3.0272559 14.173318 3.3538258 13.092335 3.7304688 12.636719 A 1.0001 1.0001 0 0 0 3.7324219 11.365234 C 3.3592343 10.910124 3.0331459 9.8280137 3.0078125 8.7265625 C 2.9892392 7.9190287 3.2170598 7.3240941 3.4140625 6.7675781 z M 14.197266 7.0507812 C 12.595009 10.148356 12.59687 13.851679 14.199219 16.949219 C 11.418554 16.601833 8.4534466 14.52509 7.6015625 12 C 8.4533342 9.4834181 11.418004 7.3996641 14.197266 7.0507812 z M 16.445312 7.1699219 C 18.652346 7.7136032 20.181511 9.5203304 20.929688 12 C 20.181508 14.487059 18.653176 16.288324 16.445312 16.830078 C 14.508546 13.90047 14.508854 10.099668 16.445312 7.1699219 z M 18 11 A 1 1 0 0 0 17 12 L 17 12.5 A 1 1 0 0 0 18 13.5 A 1 1 0 0 0 19 12.5 L 19 12 A 1 1 0 0 0 18 11 z M 11.810547 18.462891 C 12.792861 18.793418 13.814298 18.978224 14.820312 18.998047 L 14.792969 19.164062 C 14.710928 19.654249 14.299682 20.001841 13.802734 20 A 1.0001 1.0001 0 0 0 13.800781 20 L 11.248047 20 C 11.483055 19.50374 11.679049 18.991734 11.810547 18.462891 z "/>
</svg>
