<svg xmlns="http://www.w3.org/2000/svg" xmlns:svg="http://www.w3.org/2000/svg" width="24" height="24" viewBox="0 0 24 24" fill="currentColor" tags="sea,boating,angler,bait,reel,tackle,marine,outdoors,fish,fishing,hook,sports,travel" categories="sports,travel">
  <path d="M 7.2363281 5.0058594 C 7.1537653 5.0090908 7.0704927 5.0183941 6.9882812 5.0332031 C 6.6594358 5.0924392 6.3397744 5.2460864 6.0859375 5.5 L 2.9492188 8.6367188 C 1.4391091 10.146828 0.80867026 11.960291 0.90820312 13.652344 C 1.007736 15.344396 1.792084 16.893646 2.9492188 18.050781 C 4.1063535 19.207916 5.6556039 19.992264 7.3476562 20.091797 C 9.0397086 20.191327 10.853172 19.560891 12.363281 18.050781 L 17.708984 12.705078 C 18.100803 12.894245 18.53929 13 19 13 C 20.64501 13 22 11.64501 22 10 C 22 9.5392903 21.894245 9.1008034 21.705078 8.7089844 L 22.707031 7.7070312 A 1 1 0 0 0 22.707031 6.2929688 A 1 1 0 0 0 21.292969 6.2929688 L 20.291016 7.2949219 C 19.899197 7.1057553 19.46071 7 19 7 C 17.35499 7 16 8.3549904 16 10 C 16 10.46071 16.105755 10.899197 16.294922 11.291016 L 10.949219 16.636719 C 9.7926626 17.793275 8.6061241 18.162838 7.4648438 18.095703 C 6.3235634 18.028569 5.2061465 17.479584 4.3632812 16.636719 C 3.520416 15.793854 2.9714313 14.676437 2.9042969 13.535156 C 2.8371625 12.393876 3.2067253 11.207337 4.3632812 10.050781 L 7 7.4140625 L 7 10 A 1 1 0 0 0 8 11 A 1 1 0 0 0 9 10 L 9 6.7070312 C 9.0001534 5.9889636 8.5298349 5.3702357 7.9472656 5.1289062 C 7.7288022 5.0384077 7.4840166 4.996165 7.2363281 5.0058594 z M 19 9 C 19.252711 9 19.478762 9.087092 19.652344 9.234375 A 1 1 0 0 0 19.707031 9.2929688 A 1 1 0 0 0 19.765625 9.3476562 C 19.912908 9.5212381 20 9.7472889 20 10 C 20 10.564129 19.564129 11 19 11 C 18.747289 11 18.521238 10.912908 18.347656 10.765625 A 1 1 0 0 0 18.292969 10.707031 A 1 1 0 0 0 18.234375 10.652344 C 18.087092 10.478762 18 10.252711 18 10 C 18 9.4358706 18.435871 9 19 9 z "/>
</svg>
