<?xml version="1.0" encoding="UTF-8" standalone="no"?>
<svg xmlns="http://www.w3.org/2000/svg" xmlns:svg="http://www.w3.org/2000/svg" width="24" height="24" viewBox="0 0 24 24" fill="currentColor" tags="dish,restaurant,course,meal,seafood,pet,sea,marine" categories="food-beverage,animals">
  <path d="M 8 2 A 1.0001 1.0001 0 0 0 7.2734375 3.6855469 C 8.1347286 4.5983682 8.909103 5.8000047 9.28125 6.78125 C 8.663771 7.1920511 8.0917125 7.6663278 7.5839844 8.1972656 C 7.3766225 7.6337035 7.0893208 7.109537 6.71875 6.640625 C 5.8453424 5.5354343 4.5193269 4.7819427 2.8925781 4.5136719 A 1.0001 1.0001 0 0 0 1.8984375 4.9453125 C 1.1993158 5.9939952 0.9775991 7.3748915 1.0097656 8.7734375 C 1.0362386 9.9244129 1.3214883 11.039622 1.8691406 11.998047 C 1.3162149 12.957108 1.0284677 14.073758 1.0019531 15.226562 C 0.96975596 16.62644 1.1941364 18.009701 1.9003906 19.058594 A 1.0001 1.0001 0 0 0 2.8925781 19.486328 C 4.5193269 19.218057 5.8453424 18.464566 6.71875 17.359375 C 7.0888023 16.891119 7.3747376 16.367351 7.5820312 15.804688 C 8.2706905 16.52509 9.0773531 17.14113 9.9550781 17.634766 C 9.8379348 18.63269 9.4210286 19.577061 8.75 20.337891 A 1.0001 1.0001 0 0 0 9.5 22 L 13.796875 22 C 15.259963 22.0054 16.524224 20.937185 16.765625 19.494141 A 1.0001 1.0001 0 0 0 16.767578 19.492188 L 16.884766 18.769531 C 19.932968 18.008384 22.10763 15.426115 22.964844 12.261719 A 1.0001 1.0001 0 0 0 22.964844 11.738281 C 22.107263 8.5816555 19.934612 5.9930849 16.884766 5.2304688 L 16.767578 4.5078125 A 1.0001 1.0001 0 0 0 16.765625 4.5058594 C 16.524271 3.062811 15.259963 1.9945788 13.796875 2 L 8 2 z M 10.013672 4 L 13.800781 4 A 1.0001 1.0001 0 0 0 13.802734 4 C 14.299681 3.99816 14.710975 4.3457984 14.792969 4.8359375 L 14.820312 5.0039062 C 13.551408 5.0289716 12.258773 5.3168862 11.050781 5.828125 C 10.780856 5.2020298 10.416957 4.5914457 10.013672 4 z M 3.4140625 6.7675781 C 4.1453098 7.0261554 4.7500088 7.3766965 5.1484375 7.8808594 C 5.6693754 8.5400426 5.9648548 9.4192988 5.9941406 10.496094 C 5.8078956 10.89438 5.6520239 11.308109 5.5351562 11.738281 A 1.0001 1.0001 0 0 0 5.5351562 12.261719 C 5.6518974 12.692667 5.8080357 13.107158 5.9941406 13.505859 C 5.9645456 14.581759 5.6690594 15.460357 5.1484375 16.119141 C 4.7492797 16.624226 4.1434594 16.975843 3.4101562 17.234375 C 3.2107009 16.678586 2.9833576 16.081939 3.0019531 15.273438 C 3.0272558 14.173321 3.3538265 13.092334 3.7304688 12.636719 A 1.0001 1.0001 0 0 0 3.7324219 11.365234 C 3.3592349 10.910125 3.0331459 9.8280115 3.0078125 8.7265625 C 2.9892392 7.9190303 3.2170602 7.3240931 3.4140625 6.7675781 z M 14.199219 7.0527344 C 12.597602 10.150066 12.597066 13.852089 14.199219 16.949219 C 11.418073 16.60246 8.4536164 14.525594 7.6015625 12 C 8.4533978 9.4832305 11.419778 7.4013784 14.199219 7.0527344 z M 16.447266 7.171875 C 18.652679 7.7164558 20.181852 9.5214614 20.929688 12 C 20.181782 14.486149 18.653828 16.285651 16.447266 16.828125 C 14.511265 13.898775 14.511265 10.101224 16.447266 7.171875 z M 18 11 A 1 1 0 0 0 17 12 L 17 12.5 A 1 1 0 0 0 18 13.5 A 1 1 0 0 0 19 12.5 L 19 12 A 1 1 0 0 0 18 11 z M 11.810547 18.460938 C 12.792884 18.791471 13.814277 18.976281 14.820312 18.996094 L 14.792969 19.164062 C 14.710928 19.654248 14.299681 20.001841 13.802734 20 A 1.0001 1.0001 0 0 0 13.800781 20 L 11.248047 20 C 11.483321 19.503179 11.679047 18.990417 11.810547 18.460938 z "/>
</svg>
