<?xml version="1.0" encoding="UTF-8" standalone="no"?>
<svg xmlns="http://www.w3.org/2000/svg" xmlns:svg="http://www.w3.org/2000/svg" width="24" height="24" viewBox="0 0 24 24" fill="currentColor" tags="unflag" categories="account,social">
  <path d="M 2 1 A 1 1 0 0 0 1.2929688 1.2929688 A 1 1 0 0 0 1.2929688 2.7070312 L 3 4.4140625 L 3 22 A 1 1 0 0 0 4 23 A 1 1 0 0 0 5 22 L 5 15.533203 C 5.0661582 15.502693 5.147102 15.467332 5.2460938 15.427734 C 5.7430281 15.228961 6.6111111 15 8 15 C 9.2777778 15 10.378906 15.427734 11.628906 15.927734 C 12.774293 16.385889 14.044604 16.904648 15.574219 16.988281 L 21.292969 22.707031 A 1 1 0 0 0 22.707031 22.707031 A 1 1 0 0 0 22.707031 21.292969 L 16.716797 15.302734 A 1 1 0 0 0 16.697266 15.283203 L 4.7167969 3.3027344 A 1 1 0 0 0 4.6972656 3.2832031 L 2.7070312 1.2929688 A 1 1 0 0 0 2 1 z M 8 1 A 1 1 0 0 0 7 2 A 1 1 0 0 0 8 3 C 9.2777778 3 10.378906 3.4277344 11.628906 3.9277344 C 12.878906 4.4277344 14.277778 5 16 5 C 17.382435 5 18.259744 4.756565 19 4.5097656 L 19 14 A 1 1 0 0 0 20 15 A 1 1 0 0 0 21 14 L 21 3 A 1.0001 1.0001 0 0 0 19.292969 2.2929688 C 19.28652 2.3025432 19.219781 2.3859152 18.753906 2.5722656 C 18.256972 2.7710393 17.388889 3 16 3 C 14.722222 3 13.621094 2.5722656 12.371094 2.0722656 C 11.121094 1.5722656 9.7222222 1 8 1 z M 5 6.4140625 L 12.847656 14.261719 C 12.691078 14.200543 12.531907 14.136591 12.371094 14.072266 C 11.121094 13.572266 9.7222222 13 8 13 C 6.7099224 13 5.7270951 13.174525 5 13.398438 L 5 6.4140625 z "/>
</svg>
