<svg xmlns="http://www.w3.org/2000/svg" xmlns:svg="http://www.w3.org/2000/svg" width="24" height="24" viewBox="0 0 24 24" fill="currentColor" tags="unflag,unmark,report,marker,notification,warning,milestone,goal,notice,signal,attention,banner" categories="account,social">
  <path d="M 2 1 A 1 1 0 0 0 1.2929688 1.2929688 A 1 1 0 0 0 1.2929688 2.7070312 L 3 4.4140625 L 3 15.511719 A 1 1 0 0 0 3 15.546875 L 3 22 A 1 1 0 0 0 4 23 A 1 1 0 0 0 5 22 L 5 16 C 5.8623985 15.353342 6.9143615 15.000027 8 15 C 9.2777778 15 10.378906 15.427734 11.628906 15.927734 C 12.774293 16.385889 14.044604 16.904648 15.574219 16.988281 L 21.292969 22.707031 A 1 1 0 0 0 22.707031 22.707031 A 1 1 0 0 0 22.707031 21.292969 L 16.716797 15.302734 A 1 1 0 0 0 16.697266 15.283203 L 4.7167969 3.3027344 A 1 1 0 0 0 4.6972656 3.2832031 L 2.7070312 1.2929688 A 1 1 0 0 0 2 1 z M 7.65625 1 A 1 1 0 0 0 6.65625 2 A 1 1 0 0 0 7.65625 3 L 8 3 C 9.2777778 3 10.372668 3.4267176 11.523438 3.9199219 C 12.674205 4.4131262 13.879776 5 15.332031 5 C 16.798698 5 18.048736 4.7132254 19 4 L 19 14.347656 A 1 1 0 0 0 20 15.347656 A 1 1 0 0 0 21 14.347656 L 21 4 C 21 2.4148608 19.068893 1.4493071 17.800781 2.4003906 C 17.329379 2.7538319 16.532031 3 15.332031 3 C 14.451286 3 13.493028 2.5868738 12.310547 2.0800781 C 11.128066 1.5732824 9.7222222 1 8 1 L 7.65625 1 z M 5 6.4140625 L 12.847656 14.261719 C 12.691078 14.200543 12.531907 14.136591 12.371094 14.072266 C 11.121094 13.572266 9.7222222 13 8 13 C 6.9539658 13.000027 5.9302078 13.234233 5 13.675781 L 5 6.4140625 z "/>
</svg>
