<?xml version="1.0" encoding="UTF-8" standalone="no"?>
<svg xmlns="http://www.w3.org/2000/svg" xmlns:svg="http://www.w3.org/2000/svg" width="24" height="24" viewBox="0 0 24 24" fill="currentColor" tags="unflag" categories="account,social">
  
  <path d="M 2 1 A 1 1 0 0 0 1.2929688 1.2929688 A 1 1 0 0 0 1.2929688 2.7070312 L 3 4.4140625 L 3 22 A 1 1 0 0 0 4 23 A 1 1 0 0 0 5 22 L 5 15.535156 C 5.0681052 15.503469 5.141617 15.469526 5.2460938 15.427734 C 5.7430271 15.228962 6.6111139 15 8 15 C 9.2777752 15 10.378909 15.427736 11.628906 15.927734 C 12.773937 16.385747 14.045239 16.904405 15.574219 16.988281 L 21.292969 22.707031 A 1 1 0 0 0 22.707031 22.707031 A 1 1 0 0 0 22.707031 21.292969 L 16.707031 15.292969 L 4.7070312 3.2929688 L 2.7070312 1.2929688 A 1 1 0 0 0 2 1 z M 8 1 A 1 1 0 0 0 7 2 A 1 1 0 0 0 8 3 C 9.2777752 3 10.378909 3.4277354 11.628906 3.9277344 C 12.878904 4.4277334 14.277781 5 16 5 C 17.382432 5 18.259746 4.7565646 19 4.5097656 L 19 14 A 1 1 0 0 0 20 15 A 1 1 0 0 0 21 14 L 21 3 A 1.0001 1.0001 0 0 0 19.292969 2.2929688 C 19.292969 2.2929688 19.250839 2.373492 18.753906 2.5722656 C 18.256973 2.7710389 17.388886 3 16 3 C 14.722225 3 13.621092 2.5722646 12.371094 2.0722656 C 11.121096 1.5722666 9.7222188 1 8 1 z M 5 6.4140625 L 12.845703 14.259766 C 12.689666 14.198792 12.531338 14.136363 12.371094 14.072266 C 11.121096 13.572266 9.7222188 13 8 13 C 6.7072346 13 5.7275421 13.175802 5 13.400391 L 5 6.4140625 z "/>
</svg>
