<?xml version="1.0" encoding="UTF-8" standalone="no"?>
<svg xmlns="http://www.w3.org/2000/svg" xmlns:svg="http://www.w3.org/2000/svg" width="24" height="24" viewBox="0 0 24 24" fill="currentColor" tags="report,marker,notification,warning,milestone,goal,notice,signal,attention,banner" categories="account,social">
  <path d="M 8 1 C 6.485551 1 5.0123405 1.4917212 3.8007812 2.4003906 C 3.2978711 2.7775732 3 3.3713624 3 4 L 3 22 A 1 1 0 0 0 4 23 A 1 1 0 0 0 5 22 L 5 16.070312 C 5.8675934 15.409892 6.9022918 15.000028 8 15 C 9.2777778 15 10.378906 15.427734 11.628906 15.927734 C 12.878906 16.427734 14.277778 17 16 17 C 17.514449 17 18.98766 16.508279 20.199219 15.599609 C 20.702129 15.222427 21 14.628638 21 14 L 21 4 C 21 2.4148608 19.068893 1.4493071 17.800781 2.4003906 C 17.329379 2.7538319 16.532031 3 15.332031 3 C 14.451286 3 13.493028 2.5868738 12.310547 2.0800781 C 11.128066 1.5732824 9.7222222 1 8 1 z M 8 3 C 9.2777778 3 10.372668 3.4267176 11.523438 3.9199219 C 12.674205 4.4131262 13.879776 5 15.332031 5 C 16.798698 5 18.048736 4.7132254 19 4 L 19 14 C 18.134405 14.649196 17.081994 15 16 15 C 14.722222 15 13.621094 14.572266 12.371094 14.072266 C 11.121094 13.572266 9.7222222 13 8 13 C 6.9398125 13.000027 5.9404047 13.31454 5 13.767578 L 5 4 C 5.8655948 3.3508039 6.9180065 3 8 3 z "/>
</svg>
