<?xml version="1.0" encoding="UTF-8" standalone="no"?>
<svg xmlns="http://www.w3.org/2000/svg" xmlns:svg="http://www.w3.org/2000/svg" width="24" height="24" viewBox="0 0 24 24" fill="currentColor" tags="fire,lit,burning,spark,embers,smoke,firefighter,fireman,department,brigade,station,emergency" categories="weather,social,gaming">
  <path d="M 11.978516 2 A 1.0001 1.0001 0 0 0 11.341797 2.2480469 C 10.155116 3.2863928 9.2633461 4.3626844 8.8222656 5.5878906 C 8.3811852 6.8130969 8.4690612 8.1750443 9.1054688 9.4472656 C 9.6507863 10.537901 10 10.861546 10 12 C 10 12.840272 9.3402718 13.5 8.5 13.5 C 7.6597282 13.5 7 12.840272 7 12 A 1.0001 1.0001 0 0 0 5.2207031 11.373047 C 4.4799623 12.29538 4 13.596639 4 15 C 4 19.406436 7.5935677 23 12 23 C 16.406432 23 20 19.406436 20 15 C 20 12.666667 18.799584 10.458418 16.625 8.71875 C 14.815456 7.2711146 13.429177 5.0482279 12.980469 2.8046875 A 1.0001 1.0001 0 0 0 12.322266 2.0527344 A 1.0001 1.0001 0 0 0 11.978516 2 z M 11.722656 4.9570312 C 12.501369 7.0058762 13.676855 8.9227342 15.375 10.28125 C 17.200416 11.741582 18 13.333333 18 15 C 18 18.325556 15.325554 21 12 21 C 8.674446 21 6 18.325556 6 15 C 6 14.829027 6.1232889 14.723536 6.1484375 14.550781 C 6.7732469 15.127012 7.5907444 15.5 8.5 15.5 C 10.421152 15.5 12 13.921152 12 12 C 12 10.378454 11.349214 9.4620991 10.894531 8.5527344 C 10.458939 7.6819557 10.434159 7.0181687 10.705078 6.265625 C 10.846158 5.8737419 11.376019 5.3966883 11.722656 4.9570312 z "/>
</svg>
