<svg xmlns="http://www.w3.org/2000/svg" xmlns:svg="http://www.w3.org/2000/svg" width="24" height="24" viewBox="0 0 24 24" fill="currentColor" tags="heat,burn,light,glow,ignite,passion,ember,fire,lit,burning,spark,embers,smoke,firefighter,fireman,department,brigade,station,emergency" categories="weather,social,gaming">
  <path d="M 11.757812 2.0292969 A 1 1 0 0 0 11.486328 2.2304688 A 1 1 0 0 0 11.375 2.21875 C 9.5813628 3.6536598 8.5 5.25 8.5 7 C 8.5 8.25 8.9804688 9.1972656 9.3554688 9.9472656 C 9.7304688 10.697266 10 11.25 10 12 C 10 12.583333 9.8172556 12.893559 9.5546875 13.126953 C 9.2921194 13.360347 8.9027779 13.5 8.5 13.5 C 8.0972221 13.5 7.7078806 13.360347 7.4453125 13.126953 C 7.1827444 12.893559 7 12.583333 7 12 A 1.0001 1.0001 0 0 0 5.1992188 11.400391 C 4.4203714 12.438854 4 13.701921 4 15 C 4 19.406436 7.5935677 23 12 23 C 16.406432 23 20 19.406436 20 15 C 20 12.666667 18.79175 10.525026 16.640625 8.7324219 C 14.800146 7.1986897 13.592192 5.2437663 12.970703 2.7578125 A 1 1 0 0 0 12.875 2.7011719 A 1 1 0 0 0 12.78125 2.375 A 1 1 0 0 0 12.232422 2.3144531 A 1 1 0 0 0 11.757812 2.0292969 z M 11.669922 4.7851562 C 12.476449 6.9182324 13.626312 8.8233593 15.359375 10.267578 C 17.208249 11.808307 18 13.333333 18 15 C 18 18.325556 15.325554 21 12 21 C 8.674446 21 6 18.325556 6 15 C 6 14.864779 6.1114639 14.758583 6.125 14.625 C 6.7989712 15.221022 7.6554494 15.5 8.5 15.5 C 9.3472221 15.5 10.207881 15.222986 10.882812 14.623047 C 11.557743 14.023108 12 13.083333 12 12 C 12 10.75 11.519531 9.8027344 11.144531 9.0527344 C 10.769531 8.3027344 10.5 7.75 10.5 7 C 10.5 6.3499814 10.949779 5.5925893 11.669922 4.7851562 z "/>
</svg>
