<?xml version="1.0" encoding="UTF-8" standalone="no"?>
<svg xmlns="http://www.w3.org/2000/svg" xmlns:svg="http://www.w3.org/2000/svg" width="24" height="24" viewBox="0 0 24 24" fill="currentColor" tags="campfire,camping,wilderness,outdoors,lit,warmth,wood,twigs,sticks" categories="nature,social,gaming">
  <path d="M 12 1 C 11.333333 1 10.897115 1.2673972 10.408203 1.6171875 C 9.9192918 1.9669778 9.4404825 2.4450555 9.0703125 3.0566406 C 8.3299726 4.2798109 8.2168073 6.207368 9.6660156 7.7773438 A 1.0001 1.0001 0 0 0 9.7109375 7.8261719 C 9.8104757 7.9206639 9.8459266 7.9505113 9.8496094 7.9746094 L 9.8515625 7.9765625 C 9.851325 7.998919 9.8233141 8.0219713 9.7949219 8.0957031 C 9.7343519 8.2529977 9.4822923 8.5586131 9.1503906 8.7597656 C 8.818489 8.9609181 8.4291879 9.0444796 8.2617188 9.0253906 C 8.1832176 9.0164427 8.1490906 9.0296767 8.1289062 9.0195312 L 8.1269531 9.0175781 C 8.1070208 9.0031507 8.0982551 8.9581365 8.0605469 8.8261719 A 1.0001 1.0001 0 0 0 6.1503906 8.7832031 C 5.9871451 9.2729398 6 9.7 6 10 C 6 13.301865 8.6981372 16 12 16 C 15.301863 16 18 13.301865 18 10 A 1.0001 1.0001 0 0 0 18 9.9863281 C 17.977476 8.405009 17.330169 6.8944537 16.201172 5.7871094 C 14.968153 4.5575976 13.863245 4.4256734 12.949219 1.6835938 A 1.0001 1.0001 0 0 0 12 1 z M 11.509766 3.3105469 C 12.609596 5.6833635 14.122301 6.5363637 14.792969 7.2070312 A 1.0001 1.0001 0 0 0 14.800781 7.2148438 C 15.553214 7.9521663 15.981401 8.9546453 15.998047 10.007812 C 15.993576 12.224881 14.218182 14 12 14 C 10.12471 14 8.6355672 12.704427 8.1953125 10.972656 C 8.9201915 11.011152 9.6028224 10.825053 10.1875 10.470703 C 10.818552 10.088247 11.375663 9.5583271 11.662109 8.8144531 C 11.941923 8.0878061 11.784679 7.0782008 11.134766 6.421875 L 11.123047 6.4101562 C 10.185418 5.3876732 10.373267 4.7678092 10.78125 4.09375 C 10.969989 3.7819198 11.248671 3.5104127 11.509766 3.3105469 z M 5.0175781 17 A 1 1 0 0 0 4.0390625 17.724609 A 1 1 0 0 0 4.7246094 18.960938 L 8.3613281 20 L 4.7246094 21.039062 A 1 1 0 0 0 4.0390625 22.275391 A 1 1 0 0 0 5.2753906 22.960938 L 12 21.039062 L 18.724609 22.960938 A 1 1 0 0 0 19.960938 22.275391 A 1 1 0 0 0 19.275391 21.039062 L 15.638672 20 L 19.275391 18.960938 A 1 1 0 0 0 19.960938 17.724609 A 1 1 0 0 0 18.724609 17.039062 L 12 18.960938 L 5.2753906 17.039062 A 1 1 0 0 0 5.0175781 17 z "/>
</svg>
