<svg xmlns="http://www.w3.org/2000/svg" xmlns:svg="http://www.w3.org/2000/svg" width="24" height="24" viewBox="0 0 24 24" fill="currentColor" tags="beaker,erlenmeyer,non toxic,lab,chemistry,experiment,test" categories="science,gaming">
  <path d="M 2 1 A 1 1 0 0 0 1.2929688 1.2929688 A 1 1 0 0 0 1.2929688 2.7070312 L 8.2363281 9.6503906 L 3.3671875 18.560547 C 2.2950708 20.519993 3.7664238 23.000517 6 23 L 18 23 C 18.970446 23 19.840693 22.52917 20.390625 21.804688 L 21.292969 22.707031 A 1 1 0 0 0 22.707031 22.707031 A 1 1 0 0 0 22.707031 21.292969 L 20.716797 19.302734 A 1 1 0 0 0 20.697266 19.283203 L 15.716797 14.302734 A 1 1 0 0 0 15.697266 14.283203 L 2.7070312 1.2929688 A 1 1 0 0 0 2 1 z M 8.5 1 A 1 1 0 0 0 7.5 2 A 1 1 0 0 0 8.5 3 L 9 3 L 9 4.34375 A 1 1 0 0 0 10 5.34375 A 1 1 0 0 0 11 4.34375 L 11 3 L 13 3 L 13 8.34375 A 1 1 0 0 0 14 9.34375 A 1 1 0 0 0 15 8.34375 L 15 3 L 15.5 3 A 1 1 0 0 0 16.5 2 A 1 1 0 0 0 15.5 1 L 14 1 L 10 1 L 8.5 1 z M 9.7109375 11.125 L 12.585938 14 L 8.140625 14 L 9.7109375 11.125 z M 7.046875 16 L 14.585938 16 L 18.939453 20.353516 C 18.800762 20.736467 18.439004 21 18 21 L 6 21 C 5.1946211 21.000186 4.736465 20.226065 5.1230469 19.519531 L 7.046875 16 z "/>
</svg>
