<?xml version="1.0" encoding="UTF-8" standalone="no"?>
<svg xmlns="http://www.w3.org/2000/svg" xmlns:svg="http://www.w3.org/2000/svg" width="24" height="24" viewBox="0 0 24 24" fill="currentColor" tags="torch" categories="photography,devices">
  
  <path d="M 6 1 A 1.0001 1.0001 0 0 0 5 2 L 5 6 C 5 7.3333307 5.7929698 8.2070321 6.2929688 8.7070312 C 6.7929679 9.2070303 7 9.3333347 7 10 L 7 20 C 7 21.645006 8.3549936 23 10 23 L 14 23 C 15.645006 23 17 21.645006 17 20 L 17 10 C 17 9.3333347 17.207033 9.2070303 17.707031 8.7070312 C 18.207031 8.2070322 19 7.3333307 19 6 L 19 2 A 1.0001 1.0001 0 0 0 18 1 L 6 1 z M 7 3 L 17 3 L 17 5 L 7 5 L 7 3 z M 7.4101562 7 L 16.589844 7 C 16.50475 7.0866394 16.40806 7.1778772 16.292969 7.2929688 C 15.792969 7.7929679 15 8.6666693 15 10 L 15 20 C 15 20.564128 14.564128 21 14 21 L 10 21 C 9.4358718 21 9 20.564128 9 20 L 9 10 C 9 8.6666693 8.2070304 7.7929679 7.7070312 7.2929688 C 7.5919396 7.1778771 7.4952505 7.0866394 7.4101562 7 z M 12 11 A 1 1 0 0 0 11 12 A 1 1 0 0 0 12 13 A 1 1 0 0 0 13 12 A 1 1 0 0 0 12 11 z "/>
</svg>
