<svg xmlns="http://www.w3.org/2000/svg" xmlns:svg="http://www.w3.org/2000/svg" width="24" height="24" viewBox="0 0 24 24" fill="currentColor" tags="torch,light,beam,emergency,safety,tool,bright" categories="photography,devices">
  <path d="M 2 1 A 1 1 0 0 0 1.2929688 1.2929688 A 1 1 0 0 0 1.2929688 2.7070312 L 5 6.4140625 L 5 7 C 5 7.8653384 5.2815782 8.7081199 5.8007812 9.4003906 L 6.4003906 10.199219 C 6.7899425 10.718621 7 11.350747 7 12 L 7 20 C 7 21.64501 8.3549904 23 10 23 L 14 23 C 15.64501 23 17 21.64501 17 20 L 17 18.414062 L 21.292969 22.707031 A 1 1 0 0 0 22.707031 22.707031 A 1 1 0 0 0 22.707031 21.292969 L 16.716797 15.302734 A 1 1 0 0 0 16.697266 15.283203 L 6.7167969 5.3027344 A 1 1 0 0 0 6.6972656 5.2832031 L 2.7070312 1.2929688 A 1 1 0 0 0 2 1 z M 7.6484375 1 A 1 1 0 0 0 6.6484375 2 A 1 1 0 0 0 7.6484375 3 L 17 3 L 17 5 L 11.652344 5 A 1 1 0 0 0 10.652344 6 A 1 1 0 0 0 11.652344 7 L 17 7 C 17 7.4328829 16.859339 7.8529125 16.599609 8.1992188 L 16 9 C 15.711534 9.3843617 15.479983 9.8073721 15.3125 10.257812 A 1 1 0 0 0 15.902344 11.544922 A 1 1 0 0 0 17.1875 10.955078 C 17.287991 10.68481 17.426527 10.431792 17.599609 10.201172 A 1.0001 1.0001 0 0 0 17.599609 10.199219 L 18.199219 9.4003906 C 18.718422 8.7081669 19 7.8653384 19 7 L 19 6 L 19 3 C 19 1.9072751 18.092725 1 17 1 L 7.6484375 1 z M 8.5800781 9.9941406 L 11.117188 12.53125 A 1 1 0 0 0 11 13 L 11 14 A 1 1 0 0 0 12 15 A 1 1 0 0 0 12.9375 14.351562 L 15 16.414062 L 15 20 C 15 20.564129 14.564129 21 14 21 L 10 21 C 9.4358706 21 9 20.564129 9 20 L 9 12 C 9 11.305448 8.8554652 10.622928 8.5800781 9.9941406 z "/>
</svg>
