<?xml version="1.0" encoding="UTF-8" standalone="no"?>
<svg xmlns="http://www.w3.org/2000/svg" xmlns:svg="http://www.w3.org/2000/svg" width="24" height="24" viewBox="0 0 24 24" fill="currentColor" tags="torch" categories="photography,devices">
  <path d="M 6 1 A 1.0001 1.0001 0 0 0 5 2 L 5 6 A 1 1 0 0 0 5.0097656 6.1445312 C 5.0658701 7.3942809 5.8118383 8.2259006 6.2929688 8.7070312 C 6.7929688 9.2070312 7 9.3333333 7 10 L 7 20 C 7 21.64501 8.3549904 23 10 23 L 14 23 C 15.64501 23 17 21.64501 17 20 L 17 10 C 17 9.3333333 17.207031 9.2070311 17.707031 8.7070312 C 18.188162 8.2259007 18.93413 7.394281 18.990234 6.1445312 A 1 1 0 0 0 19 6 L 19 2 A 1.0001 1.0001 0 0 0 18 1 L 6 1 z M 7 3 L 17 3 L 17 5 L 7 5 L 7 3 z M 7.4121094 7 L 16.587891 7 C 16.503677 7.0855581 16.406268 7.1796693 16.292969 7.2929688 C 15.792969 7.7929688 15 8.6666667 15 10 L 15 20 C 15 20.564129 14.564129 21 14 21 L 10 21 C 9.4358706 21 9 20.564129 9 20 L 9 10 C 9 8.6666667 8.2070312 7.7929689 7.7070312 7.2929688 C 7.5937318 7.1796693 7.4963225 7.0855581 7.4121094 7 z M 12 11 A 1 1 0 0 0 11 12 A 1 1 0 0 0 12 13 A 1 1 0 0 0 13 12 A 1 1 0 0 0 12 11 z "/>
</svg>
