<?xml version="1.0" encoding="UTF-8" standalone="no"?>
<svg xmlns="http://www.w3.org/2000/svg" xmlns:svg="http://www.w3.org/2000/svg" width="24" height="24" viewBox="0 0 24 24" fill="currentColor" tags="beaker,erlenmeyer,lab,chemistry,experiment,test" categories="science,gaming">
  <path d="M 8.5 1 A 1 1 0 0 0 7.5 2 A 1 1 0 0 0 8.5 3 L 9 3 L 9 9.5273438 C 9.0001448 9.6828764 8.964065 9.8374385 8.8945312 9.9765625 L 3.8261719 20.101562 C 3.1742326 21.398628 4.1748652 23.010141 5.6269531 23 L 18.373047 23 C 19.825134 23.01014 20.825767 21.398628 20.173828 20.101562 L 20.173828 20.099609 L 15.105469 9.9765625 L 15.105469 9.9746094 C 15.036496 9.8359391 14.999856 9.6822354 15 9.5273438 L 15 3 L 15.5 3 A 1 1 0 0 0 16.5 2 A 1 1 0 0 0 15.5 1 L 8.5 1 z M 11 3 L 13 3 L 13 9.5253906 C 12.999566 9.9918766 13.107855 10.451869 13.316406 10.869141 A 1.0001 1.0001 0 0 0 13.316406 10.871094 L 15.382812 15 L 8.6171875 15 L 10.683594 10.871094 A 1.0001 1.0001 0 0 0 10.683594 10.869141 C 10.892145 10.451916 11.000434 9.9918766 11 9.5253906 L 11 3 z M 7.6152344 17 L 16.384766 17 L 18.386719 20.998047 A 1.0001 1.0001 0 0 0 18.386719 21 A 1.0001 1.0001 0 0 0 18.380859 21 L 5.6191406 21 A 1.0001 1.0001 0 0 0 5.6132812 21 A 1.0001 1.0001 0 0 0 5.6132812 20.998047 L 7.6152344 17 z "/>
</svg>
