<svg xmlns="http://www.w3.org/2000/svg" xmlns:svg="http://www.w3.org/2000/svg" width="24" height="24" viewBox="0 0 24 24" fill="currentColor" tags="torch,light,beam,emergency,safety,tool,bright" categories="photography,devices">
  <path d="M 7 1 C 5.9072751 1 5 1.9072751 5 3 L 5 6 L 5 7 C 5 7.8653384 5.2815782 8.7081199 5.8007812 9.4003906 L 6.4003906 10.199219 C 6.7899425 10.718621 7 11.350747 7 12 L 7 20 C 7 21.64501 8.3549904 23 10 23 L 14 23 C 15.64501 23 17 21.64501 17 20 L 17 12 C 17 11.350747 17.210058 10.718621 17.599609 10.199219 L 18.199219 9.4003906 C 18.718422 8.7081199 19 7.8653384 19 7 L 19 6 L 19 3 C 19 1.9072751 18.092725 1 17 1 L 7 1 z M 7 3 L 17 3 L 17 5 L 7 5 L 7 3 z M 7 7 L 17 7 C 17 7.4328829 16.859339 7.8529125 16.599609 8.1992188 L 16 9 C 15.350975 9.8653669 15 10.918291 15 12 L 15 20 C 15 20.564129 14.564129 21 14 21 L 10 21 C 9.4358706 21 9 20.564129 9 20 L 9 12 C 9 10.918291 8.6490252 9.8653669 8 9 L 7.4003906 8.1992188 C 7.1406609 7.8529124 7 7.4328829 7 7 z M 12 12 A 1 1 0 0 0 11 13 L 11 14 A 1 1 0 0 0 12 15 A 1 1 0 0 0 13 14 L 13 13 A 1 1 0 0 0 12 12 z "/>
</svg>
