<?xml version="1.0" encoding="UTF-8" standalone="no"?>
<svg xmlns="http://www.w3.org/2000/svg" xmlns:svg="http://www.w3.org/2000/svg" width="24" height="24" viewBox="0 0 24 24" fill="currentColor" tags="beaker,lab,chemistry,experiment,test" categories="science,gaming">
  <path d="M 8.5 1 A 1 1 0 0 0 7.5 2 A 1 1 0 0 0 8.5 3 L 9 3 L 9 7.6992188 C 5.6948952 9.0386827 4.0176785 12.011378 4.0039062 14.976562 A 1 1 0 0 0 4 15 A 1 1 0 0 0 4.0058594 15.033203 C 4.0068084 15.408797 4.0294597 15.784582 4.0839844 16.15625 C 4.6052082 19.709181 7.4982795 22.996094 12 22.996094 C 16.50172 22.996094 19.394792 19.709181 19.916016 16.15625 C 19.97054 15.784582 19.993192 15.408797 19.994141 15.033203 A 1 1 0 0 0 20 15 A 1 1 0 0 0 19.996094 14.943359 C 19.969967 11.989218 18.292755 9.0336779 15 7.6992188 L 15 3 L 15.5 3 A 1 1 0 0 0 16.5 2 A 1 1 0 0 0 15.5 1 L 14 1 L 10 1 L 8.5 1 z M 11 3 L 13 3 L 13 8.2929688 A 1.0001 1.0001 0 0 0 13.714844 9.25 C 16.353999 10.036844 17.668043 11.927377 17.949219 14 L 6.0507812 14 C 6.3319565 11.927377 7.6460004 10.036844 10.285156 9.25 A 1.0001 1.0001 0 0 0 11 8.2929688 L 11 3 z M 6.0878906 16 L 17.912109 16 C 17.467626 18.666192 15.499906 20.996094 12 20.996094 C 8.5000943 20.996094 6.5323732 18.666192 6.0878906 16 z "/>
</svg>
