<svg xmlns="http://www.w3.org/2000/svg" xmlns:svg="http://www.w3.org/2000/svg" width="24" height="24" viewBox="0 0 24 24" fill="currentColor" tags="beaker,erlenmeyer,lab,chemistry,experiment,test" categories="science,gaming">
  <path d="M 8.5 1 A 1 1 0 0 0 7.5 2 A 1 1 0 0 0 8.5 3 L 9 3 L 9 8 C 9.000071 8.1677825 8.957418 8.3332395 8.8769531 8.4804688 L 3.3671875 18.560547 C 2.2950708 20.519993 3.7664238 23.000517 6 23 L 18 23 C 20.233576 23.000517 21.704929 20.519993 20.632812 18.560547 L 15.123047 8.4804688 C 15.042582 8.3332396 14.999929 8.1677825 15 8 L 15 3 L 15.5 3 A 1 1 0 0 0 16.5 2 A 1 1 0 0 0 15.5 1 L 14 1 L 10 1 L 8.5 1 z M 11 3 L 13 3 L 13 8 C 12.999787 8.5031848 13.125871 8.9979085 13.367188 9.4394531 L 15.859375 14 L 8.140625 14 L 10.632812 9.4394531 C 10.874128 8.9979085 11.000213 8.5031848 11 8 L 11 3 z M 7.046875 16 L 16.953125 16 L 18.876953 19.519531 C 19.263535 20.226065 18.805379 21.000186 18 21 L 6 21 C 5.1946211 21.000186 4.736465 20.226065 5.1230469 19.519531 L 7.046875 16 z "/>
</svg>
