<svg xmlns="http://www.w3.org/2000/svg" xmlns:svg="http://www.w3.org/2000/svg" width="24" height="24" viewBox="0 0 24 24" fill="currentColor" tags="beaker,lab,chemistry,experiment,test" categories="science,gaming">
  <path d="M 8.5 1 A 1 1 0 0 0 7.5 2 A 1 1 0 0 0 8.5 3 L 9 3 L 9 7.6992188 C 5.7030047 9.0353962 4.023849 11.99714 4.0019531 14.955078 A 1 1 0 0 0 4 15 C 3.9993301 15.386841 4.0278293 15.773468 4.0839844 16.15625 C 4.6052082 19.709181 7.4982795 22.996094 12 22.996094 C 16.50172 22.996094 19.394792 19.709181 19.916016 16.15625 C 19.972171 15.773468 20.00067 15.386841 20 15 A 1 1 0 0 0 19.998047 14.955078 C 19.976154 11.997137 18.296999 9.0353976 15 7.6992188 L 15 3 L 15.5 3 A 1 1 0 0 0 16.5 2 A 1 1 0 0 0 15.5 1 L 14 1 L 10 1 L 8.5 1 z M 11 3 L 13 3 L 13 8.2929688 A 1.0001 1.0001 0 0 0 13.714844 9.25 C 16.354353 10.036949 17.67219 11.927051 17.953125 14 L 6.046875 14 C 6.3278103 11.927051 7.6456471 10.036949 10.285156 9.25 A 1.0001 1.0001 0 0 0 11 8.2929688 L 11 3 z M 6.0839844 16 L 17.916016 16 C 17.471868 18.666621 15.500355 20.996094 12 20.996094 C 8.4996451 20.996094 6.5281319 18.666621 6.0839844 16 z "/>
</svg>
