<?xml version="1.0" encoding="UTF-8" standalone="no"?>
<svg xmlns="http://www.w3.org/2000/svg" xmlns:svg="http://www.w3.org/2000/svg" width="24" height="24" viewBox="0 0 24 24" fill="currentColor" tags="beaker,erlenmeyer,non toxic,lab,chemistry,experiment,test" categories="science,gaming">
  
  <path d="M 2 1 A 1 1 0 0 0 1.2929688 1.2929688 A 1 1 0 0 0 1.2929688 2.7070312 L 8.7832031 10.197266 L 3.8261719 20.101562 C 3.1742326 21.398628 4.1748652 23.010141 5.6269531 23 L 18.373047 23 C 19.253667 23.006149 19.965449 22.415006 20.246094 21.660156 L 21.292969 22.707031 A 1 1 0 0 0 22.707031 22.707031 A 1 1 0 0 0 22.707031 21.292969 L 18.664062 17.251953 L 16.707031 15.292969 L 10.755859 9.34375 A 1 1 0 0 0 10.664062 9.2519531 L 2.7070312 1.2929688 A 1 1 0 0 0 2 1 z M 8.5 1 A 1 1 0 0 0 7.5 2 A 1 1 0 0 0 8.5 3 L 9 3 L 9 4.34375 A 1 1 0 0 0 10 5.34375 A 1 1 0 0 0 11 4.34375 L 11 3 L 13 3 L 13 8.34375 A 1 1 0 0 0 14 9.34375 A 1 1 0 0 0 15 8.34375 L 15 3 L 15.5 3 A 1 1 0 0 0 16.5 2 A 1 1 0 0 0 15.5 1 L 8.5 1 z M 10.273438 11.6875 L 13.585938 15 L 8.6152344 15 L 10.273438 11.6875 z M 7.6152344 17 L 15.585938 17 L 17.185547 18.599609 L 18.384766 20.998047 A 1.0001 1.0001 0 0 0 18.386719 21 A 1.0001 1.0001 0 0 0 18.380859 21 L 5.6191406 21 A 1.0001 1.0001 0 0 0 5.6132812 21 A 1.0001 1.0001 0 0 0 5.6132812 20.998047 L 7.6152344 17 z "/>
</svg>
