<?xml version="1.0" encoding="UTF-8" standalone="no"?>
<svg xmlns="http://www.w3.org/2000/svg" xmlns:svg="http://www.w3.org/2000/svg" width="24" height="24" viewBox="0 0 24 24" fill="currentColor" tags="reflect,mirror,alignment,dashed" categories="design,photography">
  <path d="M 12 1 A 1 1 0 0 0 11 2 L 11 4 A 1 1 0 0 0 12 5 A 1 1 0 0 0 13 4 L 13 2 A 1 1 0 0 0 12 1 z M 5 2 C 3.3549904 2 2 3.3549904 2 5 L 2 19 C 2 20.645455 3.3545455 22 5 22 L 8 22 A 1 1 0 0 0 9 21 A 1 1 0 0 0 8 20 L 5 20 C 4.4454545 20 4 19.554545 4 19 L 4 5 C 4 4.4358706 4.4358706 4 5 4 L 8 4 A 1 1 0 0 0 9 3 A 1 1 0 0 0 8 2 L 5 2 z M 16 2 A 1 1 0 0 0 15 3 A 1 1 0 0 0 16 4 L 19 4 C 19.564129 4 20 4.4358706 20 5 L 20 19 C 20 19.564129 19.564129 20 19 20 L 16 20 A 1 1 0 0 0 15 21 A 1 1 0 0 0 16 22 L 19 22 C 20.64501 22 22 20.64501 22 19 L 22 5 C 22 3.3549904 20.64501 2 19 2 L 16 2 z M 12 7 A 1 1 0 0 0 11 8 L 11 10 A 1 1 0 0 0 12 11 A 1 1 0 0 0 13 10 L 13 8 A 1 1 0 0 0 12 7 z M 12 13 A 1 1 0 0 0 11 14 L 11 16 A 1 1 0 0 0 12 17 A 1 1 0 0 0 13 16 L 13 14 A 1 1 0 0 0 12 13 z M 12 19 A 1 1 0 0 0 11 20 L 11 22 A 1 1 0 0 0 12 23 A 1 1 0 0 0 13 22 L 13 20 A 1 1 0 0 0 12 19 z "/>
</svg>
