<?xml version="1.0" encoding="UTF-8" standalone="no"?>
<svg xmlns="http://www.w3.org/2000/svg" xmlns:svg="http://www.w3.org/2000/svg" width="24" height="24" viewBox="0 0 24 24" fill="currentColor" tags="reflect,mirror,alignment,dashed" categories="design,photography">
  <path d="M 7 2 A 1.0001 1.0001 0 0 0 6.2929688 3.7070312 L 11.292969 8.7070312 A 1.0001 1.0001 0 0 0 12.707031 8.7070312 L 17.707031 3.7070312 A 1 1 0 0 0 17.707031 3.2929688 A 1 1 0 0 0 18 3 A 1 1 0 0 0 17.707031 2.7070312 A 1 1 0 0 0 17.707031 2.2929688 A 1 1 0 0 0 17.292969 2.2929688 A 1 1 0 0 0 17 2 L 7 2 z M 9.4140625 4 L 14.585938 4 L 12 6.5859375 L 9.4140625 4 z M 2 11 A 1 1 0 0 0 1 12 A 1 1 0 0 0 2 13 L 4 13 A 1 1 0 0 0 5 12 A 1 1 0 0 0 4 11 L 2 11 z M 8 11 A 1 1 0 0 0 7 12 A 1 1 0 0 0 8 13 L 10 13 A 1 1 0 0 0 11 12 A 1 1 0 0 0 10 11 L 8 11 z M 14 11 A 1 1 0 0 0 13 12 A 1 1 0 0 0 14 13 L 16 13 A 1 1 0 0 0 17 12 A 1 1 0 0 0 16 11 L 14 11 z M 20 11 A 1 1 0 0 0 19 12 A 1 1 0 0 0 20 13 L 22 13 A 1 1 0 0 0 23 12 A 1 1 0 0 0 22 11 L 20 11 z M 12 15 A 1.0001 1.0001 0 0 0 11.292969 15.292969 L 6.2929688 20.292969 A 1.0001 1.0001 0 0 0 7 22 L 17 22 A 1 1 0 0 0 17.292969 21.707031 A 1 1 0 0 0 17.707031 21.707031 A 1 1 0 0 0 17.707031 21.292969 A 1 1 0 0 0 18 21 A 1 1 0 0 0 17.707031 20.707031 A 1 1 0 0 0 17.707031 20.292969 L 12.707031 15.292969 A 1.0001 1.0001 0 0 0 12 15 z M 12 17.414062 L 14.585938 20 L 9.4140625 20 L 12 17.414062 z "/>
</svg>
