<svg xmlns="http://www.w3.org/2000/svg" xmlns:svg="http://www.w3.org/2000/svg" width="24" height="24" viewBox="0 0 24 24" fill="currentColor" tags="reflect,mirror,alignment,dashed" categories="design,photography">
  <path d="M 12 1 A 1 1 0 0 0 11 2 L 11 4 A 1 1 0 0 0 12 5 A 1 1 0 0 0 13 4 L 13 2 A 1 1 0 0 0 12 1 z M 3 6 A 1 1 0 0 0 2.7070312 6.2929688 A 1 1 0 0 0 2.2929688 6.2929688 A 1 1 0 0 0 2 7 L 2 17 A 1.0001 1.0001 0 0 0 3.7070312 17.707031 L 8.7070312 12.707031 A 1.0001 1.0001 0 0 0 8.7070312 11.292969 L 3.7070312 6.2929688 A 1 1 0 0 0 3.2929688 6.2929688 A 1 1 0 0 0 3 6 z M 21 6 A 1 1 0 0 0 20.707031 6.2929688 A 1 1 0 0 0 20.292969 6.2929688 L 15.292969 11.292969 A 1.0001 1.0001 0 0 0 15.292969 12.707031 L 20.292969 17.707031 A 1.0001 1.0001 0 0 0 22 17 L 22 7 A 1 1 0 0 0 21.707031 6.2929688 A 1 1 0 0 0 21.292969 6.2929688 A 1 1 0 0 0 21 6 z M 12 7 A 1 1 0 0 0 11 8 L 11 10 A 1 1 0 0 0 12 11 A 1 1 0 0 0 13 10 L 13 8 A 1 1 0 0 0 12 7 z M 4 9.4140625 L 6.5859375 12 L 4 14.585938 L 4 9.4140625 z M 20 9.4140625 L 20 14.585938 L 17.414062 12 L 20 9.4140625 z M 12 13 A 1 1 0 0 0 11 14 L 11 16 A 1 1 0 0 0 12 17 A 1 1 0 0 0 13 16 L 13 14 A 1 1 0 0 0 12 13 z M 12 19 A 1 1 0 0 0 11 20 L 11 22 A 1 1 0 0 0 12 23 A 1 1 0 0 0 13 22 L 13 20 A 1 1 0 0 0 12 19 z "/>
</svg>
