<?xml version="1.0" encoding="UTF-8" standalone="no"?>
<svg xmlns="http://www.w3.org/2000/svg" xmlns:svg="http://www.w3.org/2000/svg" width="24" height="24" viewBox="0 0 24 24" fill="currentColor" tags="sustainability,nature,plant" categories="nature,sustainability,seasons">
  <path d="M 8.8691406 1.0039062 C 8.6776252 1.0098421 8.485786 1.0288659 8.2949219 1.0625 C 7.5314651 1.1970366 6.7868061 1.5569439 6.171875 2.171875 C 4.9420128 3.4017372 4.7329238 5.1507105 5.3046875 6.53125 C 5.5443116 7.1098291 5.9949397 7.5825862 6.4863281 8 C 5.9949397 8.4174138 5.5443116 8.8901709 5.3046875 9.46875 C 4.7329238 10.849289 4.9420128 12.598263 6.171875 13.828125 C 7.4017372 15.057987 9.1507105 15.267075 10.53125 14.695312 C 10.695659 14.627221 10.851523 14.54162 11 14.443359 L 11 17.693359 C 10.883175 17.598954 10.76201 17.509065 10.636719 17.423828 C 9.1737012 16.428528 7.2323016 16 5 16 A 1.0001 1.0001 0 0 0 4 17 C 4 18.946528 4.900264 20.580872 6.3632812 21.576172 C 7.8262987 22.571472 9.7676984 23 12 23 C 14.232302 23 16.173701 22.571472 17.636719 21.576172 C 19.099736 20.580872 20 18.946528 20 17 A 1.0001 1.0001 0 0 0 19 16 C 16.767698 16 14.826299 16.428528 13.363281 17.423828 C 13.23799 17.509065 13.116825 17.598954 13 17.693359 L 13 14.443359 C 13.148477 14.54162 13.304341 14.627221 13.46875 14.695312 C 14.849289 15.267076 16.598263 15.057987 17.828125 13.828125 C 19.057987 12.598263 19.267076 10.849289 18.695312 9.46875 C 18.455688 8.8901709 18.00506 8.4174138 17.513672 8 C 18.00506 7.5825862 18.455688 7.1098291 18.695312 6.53125 C 19.267076 5.1507105 19.057987 3.4017372 17.828125 2.171875 C 16.598263 0.94201277 14.849289 0.73292375 13.46875 1.3046875 C 12.890171 1.5443116 12.417414 1.9949397 12 2.4863281 C 11.582586 1.9949397 11.109829 1.5443116 10.53125 1.3046875 C 10.013548 1.0902761 9.443687 0.98609871 8.8691406 1.0039062 z M 8.9394531 2.9863281 C 9.2205768 2.9827397 9.5002684 3.0424437 9.765625 3.1523438 C 10.473243 3.4454103 11 4.0665347 11 5 L 11 5.1738281 C 10.153297 5.4773465 9.4773465 6.1532967 9.1738281 7 L 9 7 C 8.0665347 7 7.4454105 6.4732426 7.1523438 5.765625 C 6.8592771 5.0580074 6.9260028 4.2458722 7.5859375 3.5859375 C 7.9159048 3.2559702 8.2842641 3.074264 8.6582031 3.0117188 C 8.7516879 2.9960824 8.8457452 2.9875243 8.9394531 2.9863281 z M 15.060547 2.9863281 C 15.529237 2.9923293 16.001604 3.1734783 16.414062 3.5859375 C 17.073998 4.2458722 17.140723 5.0580074 16.847656 5.765625 C 16.55459 6.4732426 15.933465 7 15 7 L 14.826172 7 C 14.522653 6.1532967 13.846703 5.4773465 13 5.1738281 L 13 5 C 13 4.0665347 13.526757 3.4454104 14.234375 3.1523438 C 14.499732 3.0424437 14.779333 2.9827274 15.060547 2.9863281 z M 12 7 C 12.564129 7 13 7.4358706 13 8 C 13 8.5641294 12.564129 9 12 9 C 11.435873 9 11.000003 8.5641263 11 8 C 11 7.4358706 11.435871 7 12 7 z M 9 9 L 9.1738281 9 C 9.4773465 9.8467033 10.153297 10.522653 11 10.826172 L 11 11 C 11 11.933465 10.473243 12.55459 9.765625 12.847656 C 9.0580074 13.140723 8.2458722 13.073996 7.5859375 12.414062 C 6.9260028 11.754127 6.8592772 10.941993 7.1523438 10.234375 C 7.4454104 9.5267574 8.0665347 9 9 9 z M 14.826172 9 L 15 9 C 15.933465 9 16.55459 9.5267574 16.847656 10.234375 C 17.140723 10.941993 17.073998 11.754128 16.414062 12.414062 C 15.754129 13.073996 14.941993 13.140723 14.234375 12.847656 C 13.526757 12.55459 13 11.933465 13 11 L 13 10.826172 C 13.846703 10.522653 14.522653 9.8467033 14.826172 9 z M 6.2441406 18.136719 C 7.5903819 18.277385 8.7586433 18.56385 9.5117188 19.076172 C 10.174588 19.527126 10.536104 20.138339 10.755859 20.863281 C 9.4096185 20.722615 8.2413566 20.43615 7.4882812 19.923828 C 6.8254122 19.472874 6.4638955 18.861661 6.2441406 18.136719 z M 17.755859 18.136719 C 17.536104 18.861661 17.174588 19.472874 16.511719 19.923828 C 15.758643 20.43615 14.590382 20.722615 13.244141 20.863281 C 13.463896 20.138339 13.825412 19.527126 14.488281 19.076172 C 15.241357 18.56385 16.409618 18.277385 17.755859 18.136719 z "/>
</svg>
