<?xml version="1.0" encoding="UTF-8" standalone="no"?>
<svg xmlns="http://www.w3.org/2000/svg" xmlns:svg="http://www.w3.org/2000/svg" width="24" height="24" viewBox="0 0 24 24" fill="currentColor" tags="sustainability,nature,plant,spring" categories="nature,gaming,sustainability">
  
  <path d="M 7.3222656 2 C 7.0594445 2.0077188 6.795154 2.0341265 6.5332031 2.0800781 C 5.4853996 2.2638848 4.4624822 2.7601741 3.6113281 3.6113281 C 1.9090201 5.3136362 1.6299989 7.7028938 2.4179688 9.6054688 C 2.8094646 10.550746 3.4770152 11.389889 4.3398438 12 C 3.4770152 12.610111 2.8094646 13.449254 2.4179688 14.394531 C 1.6299989 16.297106 1.9090201 18.686364 3.6113281 20.388672 C 5.3136362 22.09098 7.7028938 22.370001 9.6054688 21.582031 C 10.550746 21.190536 11.389889 20.522985 12 19.660156 C 12.610111 20.522985 13.449254 21.190536 14.394531 21.582031 C 16.297106 22.370001 18.686364 22.09098 20.388672 20.388672 C 22.09098 18.686364 22.370001 16.297106 21.582031 14.394531 C 21.190536 13.449254 20.522985 12.610111 19.660156 12 C 20.522985 11.389889 21.190536 10.550746 21.582031 9.6054688 C 22.370001 7.7028938 22.09098 5.3136362 20.388672 3.6113281 C 18.686364 1.9090201 16.297106 1.6299989 14.394531 2.4179688 C 13.449254 2.8094646 12.610111 3.4770152 12 4.3398438 C 11.389889 3.4770152 10.550746 2.8094646 9.6054688 2.4179688 C 8.8920031 2.1224801 8.1107289 1.9768436 7.3222656 2 z M 7.390625 3.9824219 C 7.8856657 3.9734846 8.3787233 4.0746475 8.8398438 4.265625 C 10.069498 4.7748983 11 5.8983128 11 7.5 L 11 8.1289062 C 10.634744 8.2240596 10.290301 8.370001 9.9726562 8.5585938 L 8.7070312 7.2929688 A 1 1 0 0 0 8 7 A 1 1 0 0 0 7.2929688 7.2929688 A 1 1 0 0 0 7.2929688 8.7070312 L 8.5585938 9.9726562 C 8.370001 10.290301 8.2240596 10.634744 8.1289062 11 L 7.5 11 C 5.8983128 11 4.7748983 10.069498 4.265625 8.8398438 C 3.7563517 7.6101893 3.893009 6.1577723 5.0253906 5.0253906 C 5.5915815 4.4591998 6.2381976 4.1411123 6.8964844 4.0292969 C 7.061056 4.001343 7.2256114 3.985401 7.390625 3.9824219 z M 16.609375 3.984375 C 17.434621 3.9996025 18.266871 4.3176521 18.974609 5.0253906 C 20.106991 6.1577723 20.243648 7.6101893 19.734375 8.8398438 C 19.225102 10.069498 18.101687 11 16.5 11 L 15.871094 11 C 15.77594 10.634744 15.629999 10.290301 15.441406 9.9726562 L 16.707031 8.7070312 A 1 1 0 0 0 16.707031 7.2929688 A 1 1 0 0 0 15.292969 7.2929688 L 14.027344 8.5585938 C 13.709699 8.370001 13.365256 8.2240596 13 8.1289062 L 13 7.5 C 13 5.8983128 13.930502 4.7748983 15.160156 4.265625 C 15.621277 4.0746475 16.114227 3.9752385 16.609375 3.984375 z M 12 10 C 13.116412 10 14 10.883588 14 12 C 14 13.116412 13.116412 14 12 14 C 10.883588 14 10 13.116412 10 12 C 10 10.883588 10.883588 10 12 10 z M 7.5 13 L 8.1289062 13 C 8.2240596 13.365256 8.370001 13.709699 8.5585938 14.027344 L 7.2929688 15.292969 A 1 1 0 0 0 7.2929688 16.707031 A 1 1 0 0 0 8.7070312 16.707031 L 9.9726562 15.441406 C 10.290301 15.629999 10.634744 15.77594 11 15.871094 L 11 16.5 C 11 18.101687 10.069498 19.225102 8.8398438 19.734375 C 7.6101893 20.243648 6.1577723 20.106991 5.0253906 18.974609 C 3.893009 17.842229 3.7563517 16.389811 4.265625 15.160156 C 4.7748983 13.930502 5.8983128 13 7.5 13 z M 15.871094 13 L 16.5 13 C 18.101687 13 19.225102 13.930502 19.734375 15.160156 C 20.243648 16.389811 20.106991 17.842229 18.974609 18.974609 C 17.842229 20.106991 16.389811 20.243648 15.160156 19.734375 C 13.930502 19.225102 13 18.101687 13 16.5 L 13 15.871094 C 13.365256 15.77594 13.709699 15.629999 14.027344 15.441406 L 15.292969 16.707031 A 1 1 0 0 0 16.707031 16.707031 A 1 1 0 0 0 16.707031 15.292969 L 15.441406 14.027344 C 15.629999 13.709699 15.77594 13.365256 15.871094 13 z "/>
</svg>
