<svg xmlns="http://www.w3.org/2000/svg" xmlns:svg="http://www.w3.org/2000/svg" width="24" height="24" viewBox="0 0 24 24" fill="currentColor" tags="sustainability,nature,plant,spring" categories="nature,gaming,sustainability">
  <path d="M 7.3222656 2 C 7.0594443 2.0077188 6.7951546 2.0341264 6.5332031 2.0800781 C 5.4853974 2.2638852 4.4624839 2.7601724 3.6113281 3.6113281 C 1.9090167 5.3136396 1.6299973 7.7028899 2.4179688 9.6054688 C 2.8094653 10.550748 3.4770134 11.389887 4.3398438 12 C 3.4770134 12.610113 2.8094654 13.449252 2.4179688 14.394531 C 1.6299973 16.29711 1.9090167 18.68636 3.6113281 20.388672 C 5.3136396 22.090983 7.7028899 22.370003 9.6054688 21.582031 C 10.550748 21.190535 11.389887 20.522987 12 19.660156 C 12.610113 20.522987 13.449252 21.190535 14.394531 21.582031 C 16.29711 22.370003 18.68636 22.090983 20.388672 20.388672 C 22.090983 18.68636 22.370003 16.29711 21.582031 14.394531 C 21.190535 13.449252 20.522987 12.610113 19.660156 12 C 20.522987 11.389887 21.190535 10.550748 21.582031 9.6054688 C 22.370003 7.7028899 22.090983 5.3136396 20.388672 3.6113281 C 18.68636 1.9090167 16.29711 1.6299973 14.394531 2.4179688 C 13.449252 2.8094653 12.610113 3.4770134 12 4.3398438 C 11.389887 3.4770134 10.550748 2.8094654 9.6054688 2.4179688 C 8.8920017 2.1224795 8.1107296 1.9768435 7.3222656 2 z M 7.390625 3.9824219 C 7.8856662 3.9734845 8.3787224 4.0746472 8.8398438 4.265625 C 10.069501 4.7748993 11 5.8983096 11 7.5 L 11 8.1269531 C 10.63473 8.2221229 10.288354 8.3680245 9.9707031 8.5566406 L 8.7070312 7.2929688 A 1 1 0 0 0 8 7 A 1 1 0 0 0 7.2929688 7.2929688 A 1 1 0 0 0 7.2929688 8.7070312 L 8.5566406 9.9707031 C 8.3680245 10.288354 8.2221229 10.63473 8.1269531 11 L 7.5 11 C 5.8983096 11 4.7748993 10.069501 4.265625 8.8398438 C 3.7563507 7.6101868 3.8930067 6.1577745 5.0253906 5.0253906 C 5.5915826 4.4591987 6.2381963 4.1411125 6.8964844 4.0292969 C 7.0610564 4.0013429 7.2256113 3.985401 7.390625 3.9824219 z M 16.609375 3.984375 C 17.434621 3.9996023 18.266869 4.3176507 18.974609 5.0253906 C 20.106993 6.1577745 20.243649 7.6101868 19.734375 8.8398438 C 19.225101 10.069501 18.10169 11 16.5 11 L 15.873047 11 C 15.777877 10.63473 15.631976 10.288354 15.443359 9.9707031 L 16.707031 8.7070312 A 1 1 0 0 0 16.707031 7.2929688 A 1 1 0 0 0 15.292969 7.2929688 L 14.029297 8.5566406 C 13.711646 8.3680244 13.36527 8.2221229 13 8.1269531 L 13 7.5 C 13 5.8983096 13.930499 4.7748993 15.160156 4.265625 C 15.621278 4.0746471 16.114227 3.9752386 16.609375 3.984375 z M 12 10 C 12.517795 10 12.98519 10.190645 13.337891 10.505859 A 1 1 0 0 0 13.412109 10.587891 A 1 1 0 0 0 13.494141 10.662109 C 13.809355 11.01481 14 11.482205 14 12 C 14 12.517743 13.809298 12.985202 13.494141 13.337891 A 1 1 0 0 0 13.412109 13.412109 A 1 1 0 0 0 13.337891 13.494141 C 12.98519 13.809355 12.517795 14 12 14 C 11.482205 14 11.01481 13.809355 10.662109 13.494141 A 1 1 0 0 0 10.587891 13.412109 A 1 1 0 0 0 10.505859 13.337891 C 10.190702 12.985202 10 12.517743 10 12 C 10 11.482205 10.190645 11.01481 10.505859 10.662109 A 1 1 0 0 0 10.587891 10.587891 A 1 1 0 0 0 10.662109 10.505859 C 11.01481 10.190645 11.482205 10 12 10 z M 7.5 13 L 8.1269531 13 C 8.2221229 13.36527 8.3680244 13.711646 8.5566406 14.029297 L 7.2929688 15.292969 A 1 1 0 0 0 7.2929688 16.707031 A 1 1 0 0 0 8.7070312 16.707031 L 9.9707031 15.443359 C 10.288354 15.631976 10.63473 15.777877 11 15.873047 L 11 16.5 C 11 18.10169 10.069501 19.225101 8.8398438 19.734375 C 7.6101868 20.243649 6.1577745 20.106993 5.0253906 18.974609 C 3.8930067 17.842225 3.7563507 16.389813 4.265625 15.160156 C 4.7748993 13.930499 5.8983096 13 7.5 13 z M 15.873047 13 L 16.5 13 C 18.10169 13 19.225101 13.930499 19.734375 15.160156 C 20.243649 16.389813 20.106993 17.842225 18.974609 18.974609 C 17.842225 20.106993 16.389813 20.243649 15.160156 19.734375 C 13.930499 19.225101 13 18.10169 13 16.5 L 13 15.873047 C 13.36527 15.777877 13.711646 15.631976 14.029297 15.443359 L 15.292969 16.707031 A 1 1 0 0 0 16.707031 16.707031 A 1 1 0 0 0 16.707031 15.292969 L 15.443359 14.029297 C 15.631976 13.711646 15.777877 13.36527 15.873047 13 z "/>
</svg>
