<?xml version="1.0" encoding="UTF-8" standalone="no"?>
<svg xmlns="http://www.w3.org/2000/svg" xmlns:svg="http://www.w3.org/2000/svg" width="24" height="24" viewBox="0 0 24 24" fill="currentColor" tags="sustainability,nature,plant" categories="nature,sustainability,seasons">
  
  <path d="M 8.8691406 1.0039062 C 8.6776253 1.0098421 8.4857857 1.0288659 8.2949219 1.0625 C 7.5314666 1.1970363 6.7868049 1.5569451 6.171875 2.171875 C 4.9420152 3.4017348 4.7329249 5.1507133 5.3046875 6.53125 C 5.5443112 7.109828 5.9949407 7.5825871 6.4863281 8 C 5.9949407 8.4174129 5.5443112 8.890172 5.3046875 9.46875 C 4.7329249 10.849287 4.9420152 12.598265 6.171875 13.828125 C 7.4017348 15.057985 9.1507133 15.267075 10.53125 14.695312 C 10.696131 14.627025 10.851138 14.540026 11 14.441406 L 11 17.695312 C 10.882745 17.600497 10.762508 17.509404 10.636719 17.423828 C 9.1737041 16.42853 7.2322972 16 5 16 A 1.0001 1.0001 0 0 0 4 17 C 4 18.946524 4.9002669 20.580874 6.3632812 21.576172 C 7.8262957 22.57147 9.7677028 23 12 23 C 14.232297 23 16.173704 22.57147 17.636719 21.576172 C 19.099733 20.580874 20 18.946524 20 17 A 1.0001 1.0001 0 0 0 19 16 C 16.767703 16 14.826296 16.42853 13.363281 17.423828 C 13.237492 17.509404 13.117255 17.600497 13 17.695312 L 13 14.441406 C 13.148862 14.540026 13.303869 14.627025 13.46875 14.695312 C 14.849287 15.267075 16.598265 15.057985 17.828125 13.828125 C 19.057985 12.598265 19.267076 10.849287 18.695312 9.46875 C 18.45569 8.890172 18.005059 8.4174129 17.513672 8 C 18.005059 7.5825871 18.45569 7.109828 18.695312 6.53125 C 19.267076 5.1507133 19.057985 3.4017348 17.828125 2.171875 C 16.598265 0.94201523 14.849287 0.73292489 13.46875 1.3046875 C 12.890172 1.5443112 12.417413 1.9949407 12 2.4863281 C 11.582587 1.9949407 11.109828 1.5443112 10.53125 1.3046875 C 10.013549 1.0902765 9.4436865 0.98609881 8.8691406 1.0039062 z M 8.9394531 2.9863281 C 9.2205765 2.9827398 9.500269 3.042444 9.765625 3.1523438 C 10.473241 3.4454098 11 4.0665365 11 5 L 11 5.1738281 C 10.152831 5.4773147 9.4773147 6.152831 9.1738281 7 L 9 7 C 8.0665365 7 7.4454099 6.4732412 7.1523438 5.765625 C 6.8592777 5.0580088 6.9260042 4.2458708 7.5859375 3.5859375 C 7.9159042 3.2559708 8.2842648 3.0742638 8.6582031 3.0117188 C 8.7516877 2.9960825 8.8457453 2.9875242 8.9394531 2.9863281 z M 15.060547 2.9863281 C 15.529237 2.9923294 16.001604 3.1734792 16.414062 3.5859375 C 17.073997 4.2458708 17.140723 5.0580088 16.847656 5.765625 C 16.554591 6.4732412 15.933463 7 15 7 L 14.826172 7 C 14.522685 6.152831 13.847169 5.4773147 13 5.1738281 L 13 5 C 13 4.0665365 13.526759 3.4454098 14.234375 3.1523438 C 14.499731 3.042444 14.779333 2.9827274 15.060547 2.9863281 z M 12 7 C 12.564128 7 13 7.4358718 13 8 C 13 8.5641282 12.564128 9 12 9 C 11.435872 9 11 8.5641282 11 8 C 11 7.4358718 11.435872 7 12 7 z M 9 9 L 9.1738281 9 C 9.4773147 9.847169 10.152831 10.522685 11 10.826172 L 11 11 C 11 11.933463 10.473241 12.554591 9.765625 12.847656 C 9.0580088 13.140723 8.2458708 13.073996 7.5859375 12.414062 C 6.9260042 11.754128 6.8592777 10.941991 7.1523438 10.234375 C 7.4454099 9.5267588 8.0665365 9 9 9 z M 14.826172 9 L 15 9 C 15.933463 9 16.554591 9.5267588 16.847656 10.234375 C 17.140723 10.941991 17.073997 11.754128 16.414062 12.414062 C 15.754129 13.073996 14.941991 13.140723 14.234375 12.847656 C 13.526759 12.554591 13 11.933463 13 11 L 13 10.826172 C 13.847169 10.522685 14.522685 9.847169 14.826172 9 z M 6.2441406 18.136719 C 7.5903793 18.277384 8.7586449 18.563851 9.5117188 19.076172 C 10.174586 19.527124 10.536106 20.13834 10.755859 20.863281 C 9.4096211 20.722616 8.2413551 20.436149 7.4882812 19.923828 C 6.8254136 19.472876 6.4638951 18.86166 6.2441406 18.136719 z M 17.755859 18.136719 C 17.536106 18.86166 17.174586 19.472876 16.511719 19.923828 C 15.758645 20.436149 14.590379 20.722616 13.244141 20.863281 C 13.463894 20.13834 13.825414 19.527124 14.488281 19.076172 C 15.241355 18.563851 16.409621 18.277384 17.755859 18.136719 z "/>
</svg>
