<svg xmlns="http://www.w3.org/2000/svg" xmlns:svg="http://www.w3.org/2000/svg" width="24" height="24" viewBox="0 0 24 24" fill="currentColor" tags="camera,lens,photo,dashed" categories="photography">
  <path d="M 5 2 C 3.3549904 2 2 3.3549904 2 5 L 2 7 A 1 1 0 0 0 3 8 A 1 1 0 0 0 4 7 L 4 5 C 4 4.4358706 4.4358706 4 5 4 L 7 4 A 1 1 0 0 0 8 3 A 1 1 0 0 0 7 2 L 5 2 z M 17 2 A 1 1 0 0 0 16 3 A 1 1 0 0 0 17 4 L 19 4 C 19.564129 4 20 4.4358706 20 5 L 20 7 A 1 1 0 0 0 21 8 A 1 1 0 0 0 22 7 L 22 5 C 22 3.3549904 20.64501 2 19 2 L 17 2 z M 12 8 C 9.8027056 8 8 9.8027056 8 12 C 8 14.197294 9.8027056 16 12 16 C 14.197294 16 16 14.197294 16 12 C 16 9.8027056 14.197294 8 12 8 z M 12 10 C 13.116414 10 14 10.883586 14 12 C 14 13.116414 13.116414 14 12 14 C 10.883586 14 10 13.116414 10 12 C 10 10.883586 10.883586 10 12 10 z M 3 16 A 1 1 0 0 0 2 17 L 2 19 C 2 20.64501 3.3549904 22 5 22 L 7 22 A 1 1 0 0 0 8 21 A 1 1 0 0 0 7 20 L 5 20 C 4.4358706 20 4 19.564129 4 19 L 4 17 A 1 1 0 0 0 3 16 z M 21 16 A 1 1 0 0 0 20 17 L 20 19 C 20 19.564129 19.564129 20 19 20 L 17 20 A 1 1 0 0 0 16 21 A 1 1 0 0 0 17 22 L 19 22 C 20.64501 22 22 20.64501 22 19 L 22 17 A 1 1 0 0 0 21 16 z "/>
</svg>
