<?xml version="1.0" encoding="UTF-8" standalone="no"?>
<svg xmlns="http://www.w3.org/2000/svg" xmlns:svg="http://www.w3.org/2000/svg" width="24" height="24" viewBox="0 0 24 24" fill="currentColor" tags="directory,root,project,git,repo" categories="files">
  <path d="M 4 2 C 2.3549904 2 1 3.3549904 1 5 L 1 18 C 1 19.64501 2.3549904 21 4 21 L 9 21 A 1 1 0 0 0 10 20 A 1 1 0 0 0 9 19 L 4 19 C 3.4358706 19 3 18.564129 3 18 L 3 5 C 3 4.4358706 3.4358706 4 4 4 L 7.9003906 4 A 1.0001 1.0001 0 0 0 7.9101562 4 C 8.2512547 3.99666 8.5663095 4.1643209 8.7539062 4.4492188 A 1.0001 1.0001 0 0 0 8.7617188 4.4589844 L 9.5644531 5.6503906 C 10.118675 6.4919664 11.062635 6.9998341 12.070312 7 L 20 7 C 20.564129 7 21 7.4358706 21 8 L 21 13 A 1 1 0 0 0 22 14 A 1 1 0 0 0 23 13 L 23 8 C 23 6.3549904 21.64501 5 20 5 L 12.070312 5 C 11.732815 4.9999444 11.419998 4.8326461 11.234375 4.5507812 A 1.0001 1.0001 0 0 0 11.228516 4.5410156 L 10.425781 3.3496094 L 10.423828 3.3496094 L 10.423828 3.3476562 L 10.421875 3.3476562 C 9.8615322 2.4993568 8.9074176 1.9900312 7.890625 2 L 4 2 z M 13 9 C 11.35499 9 10 10.35499 10 12 C 10 13.295143 10.839913 14.410315 12 14.826172 L 12 22 A 1 1 0 0 0 13 23 A 1 1 0 0 0 14 22 L 14 18.412109 C 14.865948 19.196311 15.943172 19.756484 17.152344 19.9375 C 17.549889 21.130015 18.681557 22 20 22 C 21.64501 22 23 20.64501 23 19 C 23 17.35499 21.64501 16 20 16 C 18.732356 16 17.637044 16.803862 17.201172 17.925781 C 15.589331 17.622819 14.377181 16.410669 14.074219 14.798828 C 15.196138 14.362956 16 13.267644 16 12 C 16 10.35499 14.64501 9 13 9 z M 13 11 C 13.564129 11 14 11.435871 14 12 C 14 12.564129 13.564129 13 13 13 C 12.435871 13 12 12.564129 12 12 C 12 11.435871 12.435871 11 13 11 z M 20 18 C 20.564129 18 21 18.435871 21 19 C 21 19.564129 20.564129 20 20 20 C 19.435873 20 19.000003 19.564126 19 19 C 19 18.435871 19.435871 18 20 18 z "/>
</svg>
