<?xml version="1.0" encoding="UTF-8" standalone="no"?>
<svg xmlns="http://www.w3.org/2000/svg" xmlns:svg="http://www.w3.org/2000/svg" width="24" height="24" viewBox="0 0 24 24" fill="currentColor" tags="directory,import,export" categories="files,arrows">
  <path d="M 4 2 C 2.3549904 2 1 3.3549904 1 5 L 1 7.5 A 1 1 0 0 0 2 8.5 A 1 1 0 0 0 3 7.5 L 3 5 C 3 4.4358706 3.4358706 4 4 4 L 7.9003906 4 A 1.0001 1.0001 0 0 0 7.9101562 4 C 8.2512547 3.99666 8.5663095 4.1643209 8.7539062 4.4492188 A 1.0001 1.0001 0 0 0 8.7617188 4.4589844 L 9.5644531 5.6503906 C 10.118675 6.4919664 11.062635 6.9998341 12.070312 7 L 20 7 C 20.564129 7 21 7.4358706 21 8 L 21 18 C 21 18.564129 20.564129 19 20 19 L 4 19 A 1.0001 1.0001 0 0 0 3.96875 19 C 3.4953557 19.01498 3.0869209 18.708653 2.96875 18.25 A 1 1 0 0 0 1.75 17.53125 A 1 1 0 0 0 1.03125 18.75 C 1.3801433 20.104147 2.6335786 21.044224 4.03125 21 L 20 21 C 21.64501 21 23 19.64501 23 18 L 23 8 C 23 6.3549904 21.64501 5 20 5 L 12.070312 5 C 11.732815 4.9999444 11.419998 4.8326461 11.234375 4.5507812 A 1.0001 1.0001 0 0 0 11.228516 4.5410156 L 10.425781 3.3496094 C 10.424987 3.3483994 10.422675 3.3488576 10.421875 3.3476562 C 9.8615322 2.4993568 8.9074176 1.9900312 7.890625 2 L 4 2 z M 5 9 A 1 1 0 0 0 4.2929688 9.2929688 L 1.2929688 12.292969 A 1 1 0 0 0 1.1347656 12.5 A 1 1 0 0 0 1 13 A 1 1 0 0 0 1.1347656 13.5 A 1 1 0 0 0 1.2929688 13.707031 L 4.2929688 16.707031 A 1 1 0 0 0 5.7070312 16.707031 A 1 1 0 0 0 5.7070312 15.292969 L 4.4140625 14 L 12 14 A 1 1 0 0 0 13 13 A 1 1 0 0 0 12 12 L 4.4140625 12 L 5.7070312 10.707031 A 1 1 0 0 0 5.7070312 9.2929688 A 1 1 0 0 0 5 9 z "/>
</svg>
