<svg xmlns="http://www.w3.org/2000/svg" xmlns:svg="http://www.w3.org/2000/svg" width="24" height="24" viewBox="0 0 24 24" fill="currentColor" tags="directory,lock,private,security,protected" categories="files,security">
  <path d="M 4 2 C 2.3549904 2 1 3.3549904 1 5 L 1 18 C 1 19.64501 2.3549904 21 4 21 L 10 21 A 1 1 0 0 0 11 20 A 1 1 0 0 0 10 19 L 4 19 C 3.4358706 19 3 18.564129 3 18 L 3 5 C 3 4.4358706 3.4358706 4 4 4 L 7.9003906 4 A 1.0001 1.0001 0 0 0 7.9101562 4 C 8.2512547 3.99666 8.5663095 4.1643209 8.7539062 4.4492188 A 1.0001 1.0001 0 0 0 8.7617188 4.4589844 L 9.5644531 5.6503906 C 10.118675 6.4919664 11.062635 6.9998341 12.070312 7 L 20 7 C 20.564129 7 21 7.4358706 21 8 L 21 10.5 A 1 1 0 0 0 22 11.5 A 1 1 0 0 0 23 10.5 L 23 8 C 23 6.3549904 21.64501 5 20 5 L 12.070312 5 C 11.732815 4.9999444 11.419998 4.8326461 11.234375 4.5507812 A 1.0001 1.0001 0 0 0 11.228516 4.5410156 L 10.425781 3.3496094 L 10.423828 3.3496094 L 10.423828 3.3476562 L 10.421875 3.3476562 C 9.8615322 2.4993568 8.9074176 1.9900312 7.890625 2 L 4 2 z M 18 12 C 17.277778 12 16.542119 12.235347 15.960938 12.751953 C 15.379755 13.268559 15 14.083334 15 15 L 15 16 C 13.909297 16 13 16.909297 13 18 L 13 21 C 13 22.090703 13.909297 23 15 23 L 21 23 C 22.090703 23 23 22.090703 23 21 L 23 18 C 23 16.909297 22.090703 16 21 16 L 21 15 C 21 14.083334 20.620244 13.268559 20.039062 12.751953 C 19.457881 12.235347 18.722222 12 18 12 z M 18 14 C 18.277778 14 18.542119 14.09799 18.710938 14.248047 C 18.879756 14.398107 19 14.583334 19 15 L 19 16 L 17 16 L 17 15 C 17 14.583334 17.120244 14.398107 17.289062 14.248047 C 17.457881 14.097986 17.722222 14 18 14 z M 15 18 L 16 18 L 20 18 L 21 18 L 21 21 L 15 21 L 15 18 z "/>
</svg>
