<?xml version="1.0" encoding="UTF-8" standalone="no"?>
<svg xmlns="http://www.w3.org/2000/svg" xmlns:svg="http://www.w3.org/2000/svg" width="24" height="24" viewBox="0 0 24 24" fill="currentColor" tags="directory,rename" categories="files">
  <path d="M 4 2 C 2.3549936 2 1 3.3549936 1 5 L 1 11.5 A 1 1 0 0 0 2 12.5 A 1 1 0 0 0 3 11.5 L 3 5 C 3 4.4358718 3.4358718 4 4 4 L 7.9003906 4 C 8.3146755 4 8.5382556 4.1110943 8.7675781 4.4550781 L 9.5683594 5.6542969 C 10.139035 6.5103106 11.113897 7 12.099609 7 L 20 7 C 20.564128 7 21 7.4358718 21 8 L 21 18 C 21 18.564128 20.564128 19 20 19 L 10.5 19 A 1 1 0 0 0 9.5 20 A 1 1 0 0 0 10.5 21 L 20 21 C 21.645006 21 23 19.645006 23 18 L 23 8 C 23 6.3549936 21.645006 5 20 5 L 12.099609 5 C 11.685325 5 11.461745 4.8889057 11.232422 4.5449219 L 10.431641 3.3457031 C 9.8609644 2.4896894 8.8861029 2 7.9003906 2 L 4 2 z M 9.7246094 8.9667969 C 9.0063416 9.0049794 8.2587773 9.3213009 7.6660156 9.9140625 L 2.65625 14.927734 C 2.3002691 15.283925 2.0395972 15.723621 1.8984375 16.207031 A 1.0001 1.0001 0 0 0 1.8984375 16.208984 L 1.0605469 19.078125 C 0.74386257 20.1639 1.8361003 21.254185 2.921875 20.9375 L 5.7910156 20.101562 C 6.2749731 19.960244 6.7158628 19.698396 7.0722656 19.341797 L 12.083984 14.333984 A 1.0001 1.0001 0 0 0 12.085938 14.333984 C 12.763333 13.656496 13.080694 12.778046 13.033203 11.970703 C 12.985712 11.163361 12.618571 10.446696 12.085938 9.9140625 C 11.553303 9.3814288 10.836639 9.0142877 10.029297 8.9667969 C 9.928379 8.9608605 9.8272191 8.9613422 9.7246094 8.9667969 z M 9.8164062 10.960938 C 9.848419 10.960153 9.8800379 10.961004 9.9121094 10.962891 C 10.168681 10.977981 10.451557 11.111713 10.669922 11.330078 C 10.888287 11.548443 11.022017 11.831319 11.037109 12.087891 C 11.052199 12.344462 10.993809 12.594079 10.669922 12.917969 L 5.6582031 17.927734 C 5.5393634 18.04664 5.3918406 18.134519 5.2304688 18.181641 L 3.2363281 18.763672 L 3.8183594 16.767578 C 3.8654813 16.606206 3.9514073 16.460637 4.0703125 16.341797 L 9.0820312 11.330078 C 9.3654341 11.046676 9.5923169 10.966431 9.8164062 10.960938 z "/>
</svg>
