<?xml version="1.0" encoding="UTF-8" standalone="no"?>
<svg xmlns="http://www.w3.org/2000/svg" xmlns:svg="http://www.w3.org/2000/svg" width="24" height="24" viewBox="0 0 24 24" fill="currentColor" tags="directory,remove,delete" categories="files">
  <path d="M 4 2 C 2.3549904 2 1 3.3549904 1 5 L 1 18 C 1 19.64501 2.3549904 21 4 21 L 20 21 C 21.64501 21 23 19.64501 23 18 L 23 8 C 23 6.3549904 21.64501 5 20 5 L 12.099609 5 A 1.0001 1.0001 0 0 0 12.089844 5 C 11.748745 5.00334 11.43369 4.8356792 11.246094 4.5507812 A 1.0001 1.0001 0 0 0 11.238281 4.5410156 L 10.435547 3.3496094 C 9.8813247 2.5080336 8.937364 2.0001659 7.9296875 2 L 4 2 z M 4 4 L 7.9296875 4 C 8.2671837 4.0000556 8.5800021 4.1673539 8.765625 4.4492188 A 1.0001 1.0001 0 0 0 8.7714844 4.4589844 L 9.5742188 5.6503906 L 9.5761719 5.6503906 L 9.5761719 5.6523438 L 9.578125 5.6523438 C 10.138458 6.5006389 11.092582 7.0099688 12.109375 7 L 20 7 C 20.564129 7 21 7.4358706 21 8 L 21 18 C 21 18.564129 20.564129 19 20 19 L 4 19 C 3.4358706 19 3 18.564129 3 18 L 3 5 C 3 4.4358706 3.4358706 4 4 4 z M 9.5 9.5 A 1 1 0 0 0 8.7929688 9.7929688 A 1 1 0 0 0 8.7929688 11.207031 L 10.585938 13 L 8.7929688 14.792969 A 1 1 0 0 0 8.7929688 16.207031 A 1 1 0 0 0 10.207031 16.207031 L 12 14.414062 L 13.792969 16.207031 A 1 1 0 0 0 15.207031 16.207031 A 1 1 0 0 0 15.207031 14.792969 L 13.414062 13 L 15.207031 11.207031 A 1 1 0 0 0 15.207031 9.7929688 A 1 1 0 0 0 14.5 9.5 A 1 1 0 0 0 13.792969 9.7929688 L 12 11.585938 L 10.207031 9.7929688 A 1 1 0 0 0 9.5 9.5 z "/>
</svg>
