<?xml version="1.0" encoding="UTF-8" standalone="no"?>
<svg xmlns="http://www.w3.org/2000/svg" xmlns:svg="http://www.w3.org/2000/svg" width="24" height="24" viewBox="0 0 24 24" fill="currentColor" tags="archive,zip,package" categories="files">
  
  <path d="M 4 2 C 2.3549936 2 1 3.3549936 1 5 L 1 18 C 1 19.645006 2.3549936 21 4 21 L 9.0996094 21 A 1 1 0 0 0 10.099609 20 A 1 1 0 0 0 9.0996094 19 L 4 19 C 3.4358718 19 3 18.564128 3 18 L 3 5 C 3 4.4358718 3.4358718 4 4 4 L 7.9296875 4 C 8.267183 4.0000556 8.5800025 4.1673545 8.765625 4.4492188 A 1.0001 1.0001 0 0 0 8.7714844 4.4589844 L 9.5742188 5.6503906 C 9.5750127 5.6516006 9.577325 5.6511424 9.578125 5.6523438 C 10.138456 6.5006373 11.092584 7.0099688 12.109375 7 L 20 7 C 20.564128 7 21 7.4358718 21 8 L 21 18 A 1.0001 1.0001 0 0 0 21 18.007812 C 21.0027 18.390118 20.79064 18.734218 20.449219 18.90625 A 1 1 0 0 0 20.007812 20.25 A 1 1 0 0 0 21.349609 20.693359 C 22.3662 20.181131 23.007922 19.130507 23 17.992188 L 23 8 C 23 6.3549936 21.645006 5 20 5 L 12.099609 5 A 1.0001 1.0001 0 0 0 12.089844 5 C 11.748746 5.00334 11.43369 4.8356786 11.246094 4.5507812 A 1.0001 1.0001 0 0 0 11.238281 4.5410156 L 10.435547 3.3496094 C 9.8813258 2.5080352 8.937362 2.0001659 7.9296875 2 L 4 2 z M 15 9 A 1 1 0 0 0 14 10 L 14 11 A 1 1 0 0 0 15 12 A 1 1 0 0 0 16 11 L 16 10 A 1 1 0 0 0 15 9 z M 15 14 A 1 1 0 0 0 14 15 L 14 16.173828 C 12.839613 16.589521 12 17.704644 12 19 C 12 20.645006 13.354994 22 15 22 C 16.645006 22 18 20.645006 18 19 C 18 17.704644 17.160387 16.589521 16 16.173828 L 16 15 A 1 1 0 0 0 15 14 z M 15 18 C 15.564128 18 16 18.435872 16 19 C 16 19.564128 15.564128 20 15 20 C 14.435872 20 14 19.564128 14 19 C 14 18.435872 14.435872 18 15 18 z "/>
</svg>
