<?xml version="1.0" encoding="UTF-8" standalone="no"?>
<svg xmlns="http://www.w3.org/2000/svg" xmlns:svg="http://www.w3.org/2000/svg" width="24" height="24" viewBox="0 0 24 24" fill="currentColor" tags="directory,rename" categories="files">
  <path d="M 4 2 C 2.3549936 2 1 3.3549936 1 5 L 1 11.5 A 1 1 0 0 0 2 12.5 A 1 1 0 0 0 3 11.5 L 3 5 C 3 4.4358718 3.4358718 4 4 4 L 7.9003906 4 C 8.3146755 4 8.5382556 4.1110943 8.7675781 4.4550781 L 9.5683594 5.6542969 C 10.139035 6.5103106 11.113897 7 12.099609 7 L 20 7 C 20.564128 7 21 7.4358718 21 8 L 21 18 C 21 18.564128 20.564128 19 20 19 L 10.5 19 A 1 1 0 0 0 9.5 20 A 1 1 0 0 0 10.5 21 L 20 21 C 21.645006 21 23 19.645006 23 18 L 23 8 C 23 6.3549936 21.645006 5 20 5 L 12.099609 5 C 11.685325 5 11.461745 4.8889057 11.232422 4.5449219 L 10.431641 3.3457031 C 9.8609644 2.4896894 8.8861029 2 7.9003906 2 L 4 2 z M 9.9003906 8.9414062 C 9.1370302 8.9397175 8.3278361 9.2581014 7.6933594 9.8925781 L 2.2929688 15.292969 A 1.0001 1.0001 0 0 0 2.0292969 15.757812 L 1.0292969 19.757812 A 1.0001 1.0001 0 0 0 2.2421875 20.970703 L 6.2421875 19.970703 A 1.0001 1.0001 0 0 0 6.7070312 19.707031 L 12.107422 14.306641 C 12.784197 13.629865 13.102136 12.7539 13.054688 11.947266 C 13.007238 11.140631 12.639555 10.424711 12.107422 9.8925781 C 11.575288 9.3604445 10.859369 8.9927618 10.052734 8.9453125 C 10.00232 8.9423469 9.9512813 8.9415188 9.9003906 8.9414062 z M 9.8398438 10.939453 C 9.8717716 10.938702 9.903564 10.939525 9.9355469 10.941406 C 10.19141 10.956456 10.475495 11.088776 10.693359 11.306641 C 10.911224 11.524505 11.043543 11.80859 11.058594 12.064453 C 11.073644 12.320317 11.016584 12.569355 10.693359 12.892578 L 5.4882812 18.097656 L 3.375 18.625 L 3.9023438 16.511719 L 9.1074219 11.306641 C 9.3902415 11.023821 9.6163487 10.944711 9.8398438 10.939453 z "/>
</svg>
