<?xml version="1.0" encoding="UTF-8" standalone="no"?>
<svg xmlns="http://www.w3.org/2000/svg" xmlns:svg="http://www.w3.org/2000/svg" width="24" height="24" viewBox="0 0 24 24" fill="currentColor" tags="directory,heart,favourite,bookmark,quick link" categories="files">
  <path d="M 4 2 C 2.3549904 2 1 3.3549904 1 5 L 1 18 C 1 19.64501 2.3549904 21 4 21 L 10.638672 21 A 1 1 0 0 0 11.638672 20 A 1 1 0 0 0 10.638672 19 L 4 19 C 3.4358706 19 3 18.564129 3 18 L 3 5 C 3 4.4358706 3.4358706 4 4 4 L 7.9003906 4 A 1.0001 1.0001 0 0 0 7.9101562 4 C 8.2512547 3.99666 8.5663095 4.1643209 8.7539062 4.4492188 A 1.0001 1.0001 0 0 0 8.7617188 4.4589844 L 9.5644531 5.6503906 C 10.118675 6.4919664 11.062635 6.9998341 12.070312 7 L 20 7 C 20.564129 7 21 7.4358706 21 8 L 21 11.417969 A 1 1 0 0 0 22 12.417969 A 1 1 0 0 0 23 11.417969 L 23 8 C 23 6.3549904 21.64501 5 20 5 L 12.070312 5 C 11.732815 4.9999444 11.419998 4.8326461 11.234375 4.5507812 A 1.0001 1.0001 0 0 0 11.228516 4.5410156 L 10.425781 3.3496094 L 10.423828 3.3496094 L 10.423828 3.3476562 L 10.421875 3.3476562 C 9.8615322 2.4993568 8.9074176 1.9900312 7.890625 2 L 4 2 z M 16.363281 13.947266 C 15.499012 13.926696 14.706648 14.268214 14.101562 14.798828 C 13.496476 15.329442 13.055358 16.070133 12.962891 16.929688 C 12.870421 17.789243 13.180128 18.743279 13.898438 19.492188 L 16.492188 22.314453 L 16.494141 22.316406 C 17.278689 23.217163 18.723266 23.217165 19.507812 22.316406 L 22.105469 19.490234 L 22.107422 19.486328 C 22.814151 18.737506 23.119334 17.789739 23.025391 16.935547 C 22.931311 16.080075 22.491164 15.341196 21.888672 14.8125 C 21.286179 14.283804 20.497164 13.945032 19.636719 13.962891 C 19.073913 13.974571 18.520353 14.221171 18.003906 14.572266 C 17.48603 14.214311 16.930019 13.960754 16.363281 13.947266 z M 16.316406 15.947266 C 16.609016 15.954266 16.88695 16.046657 17.21875 16.460938 A 1.0001 1.0001 0 0 0 18.775391 16.466797 C 19.107083 16.058935 19.387679 15.966997 19.679688 15.960938 C 19.971698 15.954838 20.30587 16.084354 20.570312 16.316406 C 20.834755 16.548458 21.00518 16.863975 21.037109 17.154297 C 21.069039 17.444619 21.015609 17.733363 20.654297 18.115234 A 1.0001 1.0001 0 0 0 20.644531 18.125 L 18.017578 20.980469 A 1.0001 1.0001 0 0 0 18 21 A 1.0001 1.0001 0 0 0 17.982422 20.980469 L 15.355469 18.123047 A 1.0001 1.0001 0 0 0 15.341797 18.107422 C 14.97439 17.724363 14.919866 17.435545 14.951172 17.144531 C 14.982482 16.853517 15.153702 16.536189 15.419922 16.302734 C 15.686142 16.06928 16.023796 15.940301 16.316406 15.947266 z "/>
</svg>
