<?xml version="1.0" encoding="UTF-8" standalone="no"?>
<svg xmlns="http://www.w3.org/2000/svg" xmlns:svg="http://www.w3.org/2000/svg" width="24" height="24" viewBox="0 0 24 24" fill="currentColor" tags="directory,root,project,git,repo" categories="files">
  <path d="M 4 2 C 2.3549936 2 1 3.3549936 1 5 L 1 18 C 1 19.645006 2.3549936 21 4 21 L 20 21 C 21.645006 21 23 19.645006 23 18 L 23 8 C 23 6.3549936 21.645006 5 20 5 L 12.099609 5 A 1.0001 1.0001 0 0 0 12.089844 5 C 11.748746 5.00334 11.43369 4.8356786 11.246094 4.5507812 A 1.0001 1.0001 0 0 0 11.238281 4.5410156 L 10.435547 3.3496094 C 9.8813258 2.5080352 8.937362 2.0001659 7.9296875 2 L 4 2 z M 4 4 L 7.9296875 4 C 8.267183 4.0000556 8.5800025 4.1673545 8.765625 4.4492188 A 1.0001 1.0001 0 0 0 8.7714844 4.4589844 L 9.5742188 5.6503906 C 9.5750127 5.6516006 9.577325 5.6511424 9.578125 5.6523438 C 10.138456 6.5006373 11.092584 7.0099688 12.109375 7 L 20 7 C 20.564128 7 21 7.4358718 21 8 L 21 18 C 21 18.564128 20.564128 19 20 19 L 4 19 C 3.4358718 19 3 18.564128 3 18 L 3 5 C 3 4.4358718 3.4358718 4 4 4 z M 12 10 C 10.704644 10 9.5895208 10.839613 9.1738281 12 L 7 12 A 1 1 0 0 0 6 13 A 1 1 0 0 0 7 14 L 9.1738281 14 C 9.5895208 15.160387 10.704644 16 12 16 C 13.295356 16 14.410479 15.160387 14.826172 14 L 17 14 A 1 1 0 0 0 18 13 A 1 1 0 0 0 17 12 L 14.826172 12 C 14.410479 10.839613 13.295356 10 12 10 z M 12 12 C 12.564128 12 13 12.435872 13 13 C 13 13.564128 12.564128 14 12 14 C 11.435872 14 11 13.564128 11 13 C 11 12.435872 11.435872 12 12 12 z "/>
</svg>
