<?xml version="1.0" encoding="UTF-8" standalone="no"?>
<svg xmlns="http://www.w3.org/2000/svg" xmlns:svg="http://www.w3.org/2000/svg" width="24" height="24" viewBox="0 0 24 24" fill="currentColor" tags="multiple,copy,directories" categories="files">
  <path d="M 8 3 C 6.3549904 3 5 4.3549904 5 6 L 5 15 C 5 16.64501 6.3549904 18 8 18 L 20 18 C 21.64501 18 23 16.64501 23 15 L 23 9 C 23 7.3549904 21.64501 6 20 6 L 16.099609 6 A 1.0001 1.0001 0 0 0 16.089844 6 C 15.748745 6.00334 15.43369 5.8356792 15.246094 5.5507812 A 1.0001 1.0001 0 0 0 15.238281 5.5410156 L 14.435547 4.3496094 C 13.881325 3.5080336 12.937363 3.0001659 11.929688 3 L 8 3 z M 8 5 L 11.929688 5 C 12.267183 5.0000556 12.580002 5.1673539 12.765625 5.4492188 A 1.0001 1.0001 0 0 0 12.771484 5.4589844 L 13.574219 6.6503906 L 13.576172 6.6503906 L 13.576172 6.6523438 L 13.578125 6.6523438 C 14.138427 7.5006389 15.092582 8.0099688 16.109375 8 L 20 8 C 20.564129 8 21 8.4358706 21 9 L 21 15 C 21 15.564129 20.564129 16 20 16 L 8 16 C 7.4358706 16 7 15.564129 7 15 L 7 6 C 7 5.4358706 7.4358706 5 8 5 z M 2 7 A 1 1 0 0 0 1 8 L 1 19 C 1 20.64501 2.3549904 22 4 22 L 18 22 A 1 1 0 0 0 19 21 A 1 1 0 0 0 18 20 L 4 20 C 3.4358706 20 3 19.564129 3 19 L 3 8 A 1 1 0 0 0 2 7 z "/>
</svg>
