<?xml version="1.0" encoding="UTF-8" standalone="no"?>
<svg xmlns="http://www.w3.org/2000/svg" xmlns:svg="http://www.w3.org/2000/svg" width="24" height="24" viewBox="0 0 24 24" fill="currentColor" tags="multiple,copy,directories" categories="files">
  <path d="M 9 2 C 7.3549904 2 6 3.3549904 6 5 L 6 14 C 6 15.64501 7.3549904 17 9 17 L 20 17 C 21.64501 17 23 15.64501 23 14 L 23 7 C 23 5.3549904 21.64501 4 20 4 L 14.5 4 C 14.341744 4 14.194563 3.9273858 14.099609 3.8007812 L 13.5 3 C 13.02839 2.371187 12.286016 2 11.5 2 L 9 2 z M 9 4 L 11.5 4 C 11.658256 4 11.805437 4.072614 11.900391 4.1992188 L 12.5 5 C 12.97161 5.628813 13.713984 6 14.5 6 L 20 6 C 20.564129 6 21 6.4358706 21 7 L 21 14 C 21 14.564129 20.564129 15 20 15 L 9 15 C 8.4358706 15 8 14.564129 8 14 L 8 5 C 8 4.4358706 8.4358706 4 9 4 z M 3 7.2675781 A 1 1 0 0 0 2.5 7.4023438 C 1.5704381 7.9390202 0.99680992 8.9364075 1 10.009766 L 1 19 C 1 20.64501 2.3549904 22 4 22 L 15 22 C 16.070167 21.999973 17.062573 21.426791 17.597656 20.5 A 1 1 0 0 0 17.232422 19.134766 A 1 1 0 0 0 15.865234 19.5 C 15.685805 19.810781 15.358859 19.999991 15 20 L 4 20 C 3.4358706 20 3 19.564129 3 19 L 3 10.005859 A 1.0001 1.0001 0 0 0 3 10.003906 C 2.9989302 9.6439998 3.1882686 9.3147417 3.5 9.1347656 A 1 1 0 0 0 3.8652344 7.7675781 A 1 1 0 0 0 3 7.2675781 z "/>
</svg>
