<?xml version="1.0" encoding="UTF-8" standalone="no"?>
<svg xmlns="http://www.w3.org/2000/svg" xmlns:svg="http://www.w3.org/2000/svg" width="24" height="24" viewBox="0 0 24 24" fill="currentColor" tags="directory,root,project,git,repo" categories="files">
  
  <path d="M 4 2 C 2.3549936 2 1 3.3549936 1 5 L 1 18 C 1 19.645006 2.3549936 21 4 21 L 9 21 A 1 1 0 0 0 10 20 A 1 1 0 0 0 9 19 L 4 19 C 3.4358718 19 3 18.564128 3 18 L 3 5 C 3 4.4358718 3.4358718 4 4 4 L 7.9003906 4 A 1.0001 1.0001 0 0 0 7.9101562 4 C 8.251254 3.99666 8.5663098 4.1643215 8.7539062 4.4492188 A 1.0001 1.0001 0 0 0 8.7617188 4.4589844 L 9.5644531 5.6503906 C 10.118674 6.4919648 11.062638 6.9998341 12.070312 7 L 20 7 C 20.564128 7 21 7.4358718 21 8 L 21 13 A 1 1 0 0 0 22 14 A 1 1 0 0 0 23 13 L 23 8 C 23 6.3549936 21.645006 5 20 5 L 12.070312 5 C 11.732817 4.9999444 11.419998 4.8326456 11.234375 4.5507812 A 1.0001 1.0001 0 0 0 11.228516 4.5410156 L 10.425781 3.3496094 C 10.424987 3.3483994 10.422675 3.3488576 10.421875 3.3476562 C 9.8615334 2.4993584 8.9074156 1.9900312 7.890625 2 L 4 2 z M 13 9 C 11.354994 9 10 10.354994 10 12 C 10 13.295356 10.839613 14.410479 12 14.826172 L 12 22 A 1 1 0 0 0 13 23 A 1 1 0 0 0 14 22 L 14 18.412109 C 14.86612 19.196468 15.942876 19.7566 17.152344 19.9375 C 17.549787 21.130188 18.681434 22 20 22 C 21.645006 22 23 20.645006 23 19 C 23 17.354994 21.645006 16 20 16 C 18.732787 16 17.639295 16.804456 17.203125 17.925781 C 15.589303 17.623418 14.376582 16.410697 14.074219 14.796875 C 15.195544 14.360705 16 13.267213 16 12 C 16 10.354994 14.645006 9 13 9 z M 13 11 C 13.564128 11 14 11.435872 14 12 C 14 12.564128 13.564128 13 13 13 C 12.435872 13 12 12.564128 12 12 C 12 11.435872 12.435872 11 13 11 z M 20 18 C 20.564128 18 21 18.435872 21 19 C 21 19.564128 20.564128 20 20 20 C 19.435872 20 19 19.564128 19 19 C 19 18.435872 19.435872 18 20 18 z "/>
</svg>
