<svg xmlns="http://www.w3.org/2000/svg" xmlns:svg="http://www.w3.org/2000/svg" width="24" height="24" viewBox="0 0 24 24" fill="currentColor" tags="archive,zip,package" categories="files">
  <path d="M 4 2 C 2.3549904 2 1 3.3549904 1 5 L 1 18 C 1 19.64501 2.3549904 21 4 21 L 9.0996094 21 A 1 1 0 0 0 10.099609 20 A 1 1 0 0 0 9.0996094 19 L 4 19 C 3.4358706 19 3 18.564129 3 18 L 3 5 C 3 4.4358706 3.4358706 4 4 4 L 7.9296875 4 C 8.2671837 4.0000556 8.5800021 4.1673539 8.765625 4.4492188 A 1.0001 1.0001 0 0 0 8.7714844 4.4589844 L 9.5742188 5.6503906 L 9.5761719 5.6503906 L 9.5761719 5.6523438 L 9.578125 5.6523438 C 10.138458 6.5006389 11.092582 7.0099688 12.109375 7 L 20 7 C 20.564129 7 21 7.4358706 21 8 L 21 18 A 1.0001 1.0001 0 0 0 21 18.007812 C 21.0027 18.390118 20.790642 18.734218 20.449219 18.90625 A 1 1 0 0 0 20.007812 20.25 A 1 1 0 0 0 21.349609 20.693359 C 22.366202 20.18113 23.007922 19.130509 23 17.992188 L 23 8 C 23 6.3549904 21.64501 5 20 5 L 12.099609 5 A 1.0001 1.0001 0 0 0 12.089844 5 C 11.748745 5.00334 11.43369 4.8356792 11.246094 4.5507812 A 1.0001 1.0001 0 0 0 11.238281 4.5410156 L 10.435547 3.3496094 C 9.8813247 2.5080336 8.937364 2.0001659 7.9296875 2 L 4 2 z M 15 9 A 1 1 0 0 0 14 10 L 14 11 A 1 1 0 0 0 15 12 A 1 1 0 0 0 16 11 L 16 10 A 1 1 0 0 0 15 9 z M 15 14 A 1 1 0 0 0 14 15 L 14 16.173828 C 12.839913 16.589685 12 17.704857 12 19 C 12 20.64501 13.35499 22 15 22 C 16.64501 22 18 20.64501 18 19 C 18 17.704857 17.160087 16.589685 16 16.173828 L 16 15 A 1 1 0 0 0 15 14 z M 15 18 C 15.564129 18 16 18.435871 16 19 C 16 19.564129 15.564129 20 15 20 C 14.435871 20 14 19.564129 14 19 C 14 18.435871 14.435871 18 15 18 z "/>
</svg>
