<?xml version="1.0" encoding="UTF-8" standalone="no"?>
<svg xmlns="http://www.w3.org/2000/svg" xmlns:svg="http://www.w3.org/2000/svg" width="24" height="24" viewBox="0 0 24 24" fill="currentColor" tags="directory,search,find,lost,browser" categories="files">
  <path d="M 4 2 C 2.3549936 2 1 3.3549936 1 5 L 1 18 C 1 19.645006 2.3549936 21 4 21 L 10.699219 21 A 1 1 0 0 0 11.699219 20 A 1 1 0 0 0 10.699219 19 L 4 19 C 3.4358718 19 3 18.564128 3 18 L 3 5 C 3 4.4358718 3.4358718 4 4 4 L 7.9003906 4 A 1.0001 1.0001 0 0 0 7.9101562 4 C 8.251254 3.99666 8.5663098 4.1643215 8.7539062 4.4492188 A 1.0001 1.0001 0 0 0 8.7617188 4.4589844 L 9.5644531 5.6503906 C 10.118674 6.4919648 11.062638 6.9998341 12.070312 7 L 20 7 C 20.564128 7 21 7.4358718 21 8 L 21 12.099609 A 1 1 0 0 0 22 13.099609 A 1 1 0 0 0 23 12.099609 L 23 8 C 23 6.3549936 21.645006 5 20 5 L 12.070312 5 C 11.732817 4.9999444 11.419998 4.8326456 11.234375 4.5507812 A 1.0001 1.0001 0 0 0 11.228516 4.5410156 L 10.425781 3.3496094 C 10.424987 3.3483994 10.422675 3.3488576 10.421875 3.3476562 C 9.8615334 2.4993584 8.9074156 1.9900312 7.890625 2 L 4 2 z M 17 13 C 14.80271 13 13 14.80271 13 17 C 13 19.19729 14.80271 21 17 21 C 17.738479 21 18.43146 20.795196 19.027344 20.441406 L 20.292969 21.707031 A 1 1 0 0 0 21.707031 21.707031 A 1 1 0 0 0 21.707031 20.292969 L 20.441406 19.027344 C 20.795196 18.43146 21 17.738479 21 17 C 21 14.80271 19.19729 13 17 13 z M 17 15 C 18.116412 15 19 15.883588 19 17 C 19 18.116412 18.116412 19 17 19 C 15.883588 19 15 18.116412 15 17 C 15 15.883588 15.883588 15 17 15 z "/>
</svg>
