<?xml version="1.0" encoding="UTF-8" standalone="no"?>
<svg xmlns="http://www.w3.org/2000/svg" xmlns:svg="http://www.w3.org/2000/svg" width="24" height="24" viewBox="0 0 24 24" fill="currentColor" tags="directory,symlink,symbolic,link" categories="files">
  <path d="M 4 2 C 2.3549904 2 1 3.3549904 1 5 L 1 9 A 1 1 0 0 0 2 10 A 1 1 0 0 0 3 9 L 3 5 C 3 4.4358706 3.4358706 4 4 4 L 7.9003906 4 A 1.0001 1.0001 0 0 0 7.9101562 4 C 8.2512547 3.99666 8.5663095 4.1643209 8.7539062 4.4492188 A 1.0001 1.0001 0 0 0 8.7617188 4.4589844 L 9.5644531 5.6503906 C 10.118675 6.4919664 11.062635 6.9998341 12.070312 7 L 20 7 C 20.564129 7 21 7.4358706 21 8 L 21 18 C 21 18.564129 20.564129 19 20 19 L 4 19 C 3.4358706 19 3 18.564129 3 18 L 3 15 C 3 14.435871 3.4358706 14 4 14 L 8.5859375 14 L 7.2929688 15.292969 A 1 1 0 0 0 7.2929688 16.707031 A 1 1 0 0 0 8.7070312 16.707031 L 11.707031 13.707031 A 1.0001 1.0001 0 0 0 11.919922 13.388672 A 1.0001 1.0001 0 0 0 11.923828 13.382812 A 1 1 0 0 0 11.925781 13.376953 A 1.0001 1.0001 0 0 0 12 13 A 1.0001 1.0001 0 0 0 11.990234 12.869141 A 1 1 0 0 0 11.984375 12.830078 A 1 1 0 0 0 11.984375 12.826172 A 1.0001 1.0001 0 0 0 11.958984 12.720703 A 1 1 0 0 0 11.945312 12.677734 A 1.0001 1.0001 0 0 0 11.894531 12.554688 A 1.0001 1.0001 0 0 0 11.890625 12.546875 A 1 1 0 0 0 11.884766 12.537109 A 1.0001 1.0001 0 0 0 11.818359 12.425781 A 1.0001 1.0001 0 0 0 11.808594 12.412109 A 1 1 0 0 0 11.800781 12.402344 A 1.0001 1.0001 0 0 0 11.707031 12.292969 L 8.7070312 9.2929688 A 1 1 0 0 0 8 9 A 1 1 0 0 0 7.2929688 9.2929688 A 1 1 0 0 0 7.2929688 10.707031 L 8.5859375 12 L 4 12 C 2.3549904 12 1 13.35499 1 15 L 1 18 C 1 19.64501 2.3549904 21 4 21 L 20 21 C 21.64501 21 23 19.64501 23 18 L 23 8 C 23 6.3549904 21.64501 5 20 5 L 12.070312 5 C 11.732815 4.9999444 11.419998 4.8326461 11.234375 4.5507812 A 1.0001 1.0001 0 0 0 11.228516 4.5410156 L 10.425781 3.3496094 C 10.424987 3.3483994 10.422675 3.3488576 10.421875 3.3476562 C 9.8615322 2.4993568 8.9074176 1.9900312 7.890625 2 L 4 2 z "/>
</svg>
