<?xml version="1.0" encoding="UTF-8" standalone="no"?>
<svg xmlns="http://www.w3.org/2000/svg" xmlns:svg="http://www.w3.org/2000/svg" width="24" height="24" viewBox="0 0 24 24" fill="currentColor" tags="directory,root,project,git,repo" categories="files,development">
  <path d="M 4 2 C 2.3549904 2 1 3.3549904 1 5 L 1 18 C 1 19.645455 2.3545455 21 4 21 L 12 21 L 20 21 C 21.64501 21 23 19.64501 23 18 L 23 8 C 23 6.3549904 21.64501 5 20 5 L 12.074219 5 C 11.738527 4.9982633 11.430722 4.8311464 11.246094 4.5507812 A 1.0001 1.0001 0 0 0 11.236328 4.5351562 L 10.425781 3.3496094 L 10.423828 3.3476562 C 9.8723982 2.511891 8.9369836 2.005181 7.9355469 2 A 1.0001 1.0001 0 0 0 7.9296875 2 L 4 2 z M 4 4 L 7.9257812 4 C 8.2614735 4.00174 8.5692774 4.1688538 8.7539062 4.4492188 A 1.0001 1.0001 0 0 0 8.7636719 4.4648438 L 9.5742188 5.6503906 L 9.5761719 5.6523438 C 10.127682 6.4881089 11.063016 6.994819 12.064453 7 A 1.0001 1.0001 0 0 0 12.070312 7 L 20 7 C 20.564129 7 21 7.4358706 21 8 L 21 18 C 21 18.564129 20.564129 19 20 19 L 13 19 L 13 15.826172 C 14.160389 15.410479 15 14.295359 15 13 C 15 11.35499 13.64501 10 12 10 C 10.35499 10 9 11.35499 9 13 C 9 14.295359 9.8396112 15.410479 11 15.826172 L 11 19 L 4 19 C 3.4454545 19 3 18.554545 3 18 L 3 5 C 3 4.4358706 3.4358706 4 4 4 z M 12 12 C 12.564129 12 13 12.435871 13 13 C 13 13.564129 12.564129 14 12 14 C 11.435871 14 11 13.564129 11 13 C 11 12.435871 11.435871 12 12 12 z "/>
</svg>
