<?xml version="1.0" encoding="UTF-8" standalone="no"?>
<svg
   width="24"
   height="24"
   viewBox="0 0 24 24"
   fill="none"
   stroke="currentColor"
   stroke-width="2"
   stroke-linecap="round"
   stroke-linejoin="round"
   version="1.1"
   id="svg2"
   xmlns="http://www.w3.org/2000/svg"
   xmlns:svg="http://www.w3.org/2000/svg">
  <defs
     id="defs2" />
  <path
     id="path1"
     style="color:#000000;fill:#000000;-inkscape-stroke:none"
     d="M 4 2 C 2.3549936 2 1 3.3549936 1 5 L 1 11.5 A 1 1 0 0 0 2 12.5 A 1 1 0 0 0 3 11.5 L 3 5 C 3 4.4358718 3.4358718 4 4 4 L 7.9003906 4 A 1.0001 1.0001 0 0 0 7.9101562 4 C 8.251254 3.99666 8.5663098 4.1643215 8.7539062 4.4492188 A 1.0001 1.0001 0 0 0 8.7617188 4.4589844 L 9.5644531 5.6503906 C 10.118674 6.4919648 11.062638 6.9998341 12.070312 7 L 20 7 C 20.564128 7 21 7.4358718 21 8 L 21 18 C 21 18.564128 20.564128 19 20 19 L 10.5 19 A 1 1 0 0 0 9.5 20 A 1 1 0 0 0 10.5 21 L 20 21 C 21.645006 21 23 19.645006 23 18 L 23 8 C 23 6.3549936 21.645006 5 20 5 L 12.070312 5 C 11.732817 4.9999444 11.419998 4.8326456 11.234375 4.5507812 A 1.0001 1.0001 0 0 0 11.228516 4.5410156 L 10.425781 3.3496094 C 10.424987 3.3483994 10.422675 3.3488576 10.421875 3.3476562 C 9.8615334 2.4993584 8.9074156 1.9900312 7.890625 2 L 4 2 z M 9.8886719 8.9414062 C 9.1278387 8.941151 8.3224802 9.2613396 7.6914062 9.8945312 A 1.0001 1.0001 0 0 0 7.6855469 9.8984375 L 2.2871094 15.398438 A 1.0001 1.0001 0 0 0 2.03125 15.851562 L 1.03125 19.751953 A 1.0001 1.0001 0 0 0 2.2421875 20.970703 L 6.2421875 19.970703 A 1.0001 1.0001 0 0 0 6.7089844 19.705078 L 12.099609 14.285156 L 12.097656 14.285156 C 12.770802 13.609752 13.087701 12.737492 13.039062 11.933594 C 12.990423 11.129695 12.622943 10.416089 12.091797 9.8867188 C 11.560697 9.3573484 10.845072 8.9912588 10.041016 8.9453125 C 9.990762 8.9424409 9.9393941 8.9414233 9.8886719 8.9414062 z M 9.8320312 10.941406 C 9.8636428 10.940619 9.8960803 10.941551 9.9277344 10.943359 C 10.180967 10.957829 10.463335 11.087107 10.679688 11.302734 C 10.896039 11.518363 11.02765 11.799553 11.042969 12.052734 C 11.058289 12.305917 11.001828 12.55374 10.681641 12.875 L 5.4863281 18.097656 L 3.3867188 18.623047 L 3.9023438 16.609375 L 9.1074219 11.306641 C 9.3875841 11.025538 9.6107507 10.946917 9.8320312 10.941406 z "
     stroke-width="0" />
</svg>
