<?xml version="1.0" encoding="UTF-8" standalone="no"?>
<svg xmlns="http://www.w3.org/2000/svg" xmlns:svg="http://www.w3.org/2000/svg" width="24" height="24" viewBox="0 0 24 24" fill="currentColor" tags="directory,import,export" categories="files,arrows">
  
  <path d="M 4 2 C 2.3549936 2 1 3.3549936 1 5 L 1 9 A 1 1 0 0 0 2 10 A 1 1 0 0 0 3 9 L 3 5 C 3 4.4358718 3.4358718 4 4 4 L 7.9003906 4 A 1.0001 1.0001 0 0 0 7.9101562 4 C 8.251254 3.99666 8.5663098 4.1643215 8.7539062 4.4492188 A 1.0001 1.0001 0 0 0 8.7617188 4.4589844 L 9.5644531 5.6503906 C 10.118674 6.4919648 11.062638 6.9998341 12.070312 7 L 20 7 C 20.564128 7 21 7.4358718 21 8 L 21 18 C 21 18.564128 20.564128 19 20 19 L 4 19 C 3.4358718 19 3 18.564128 3 18 L 3 17 A 1 1 0 0 0 2 16 A 1 1 0 0 0 1 17 L 1 18 C 1 19.645006 2.3549936 21 4 21 L 20 21 C 21.645006 21 23 19.645006 23 18 L 23 8 C 23 6.3549936 21.645006 5 20 5 L 12.070312 5 C 11.732817 4.9999444 11.419998 4.8326456 11.234375 4.5507812 A 1.0001 1.0001 0 0 0 11.228516 4.5410156 L 10.425781 3.3496094 C 10.424987 3.3483994 10.422675 3.3488576 10.421875 3.3476562 C 9.8615334 2.4993584 8.9074156 1.9900312 7.890625 2 L 4 2 z M 9 9 A 1 1 0 0 0 8.2929688 9.2929688 A 1 1 0 0 0 8.2929688 10.707031 L 9.5859375 12 L 2 12 A 1 1 0 0 0 1 13 A 1 1 0 0 0 2 14 L 9.5859375 14 L 8.2929688 15.292969 A 1 1 0 0 0 8.2929688 16.707031 A 1 1 0 0 0 9.7070312 16.707031 L 12.707031 13.707031 A 1.0001 1.0001 0 0 0 12.865234 13.5 A 1.0001 1.0001 0 0 0 12.957031 13.28125 A 1 1 0 0 0 12.970703 13.236328 A 1.0001 1.0001 0 0 0 13 13 A 1.0001 1.0001 0 0 0 12.996094 12.912109 A 1 1 0 0 0 12.986328 12.845703 A 1 1 0 0 0 12.984375 12.826172 A 1.0001 1.0001 0 0 0 12.980469 12.804688 A 1 1 0 0 0 12.964844 12.742188 A 1 1 0 0 0 12.943359 12.671875 A 1 1 0 0 0 12.939453 12.658203 A 1.0001 1.0001 0 0 0 12.923828 12.617188 A 1 1 0 0 0 12.90625 12.578125 A 1.0001 1.0001 0 0 0 12.900391 12.566406 A 1 1 0 0 0 12.865234 12.501953 A 1 1 0 0 0 12.865234 12.5 A 1.0001 1.0001 0 0 0 12.832031 12.445312 A 1 1 0 0 0 12.818359 12.425781 A 1.0001 1.0001 0 0 0 12.806641 12.410156 A 1 1 0 0 0 12.765625 12.357422 A 1.0001 1.0001 0 0 0 12.707031 12.292969 L 9.7070312 9.2929688 A 1 1 0 0 0 9 9 z "/>
</svg>
