<?xml version="1.0" encoding="UTF-8" standalone="no"?>
<svg xmlns="http://www.w3.org/2000/svg" xmlns:svg="http://www.w3.org/2000/svg" width="24" height="24" viewBox="0 0 24 24" fill="currentColor" tags="directory,heart,favourite,bookmark,quick link" categories="files">
  
  <path d="M 4 2 C 2.3549936 2 1 3.3549936 1 5 L 1 18 C 1 19.645006 2.3549936 21 4 21 L 11 21 A 1 1 0 0 0 12 20 A 1 1 0 0 0 11 19 L 4 19 C 3.4358718 19 3 18.564128 3 18 L 3 5 C 3 4.4358718 3.4358718 4 4 4 L 7.9003906 4 A 1.0001 1.0001 0 0 0 7.9101562 4 C 8.251254 3.99666 8.5663098 4.1643215 8.7539062 4.4492188 A 1.0001 1.0001 0 0 0 8.7617188 4.4589844 L 9.5644531 5.6503906 C 10.118674 6.4919648 11.062638 6.9998341 12.070312 7 L 20 7 C 20.564128 7 21 7.4358718 21 8 L 21 9.5 A 1 1 0 0 0 22 10.5 A 1 1 0 0 0 23 9.5 L 23 8 C 23 6.3549936 21.645006 5 20 5 L 12.070312 5 C 11.732817 4.9999444 11.419998 4.8326456 11.234375 4.5507812 A 1.0001 1.0001 0 0 0 11.228516 4.5410156 L 10.425781 3.3496094 C 10.424987 3.3483994 10.422675 3.3488576 10.421875 3.3476562 C 9.8615334 2.4993584 8.9074156 1.9900312 7.890625 2 L 4 2 z M 19.560547 12.003906 C 18.841593 12.006006 18.153397 12.28843 17.552734 12.734375 L 17.826172 12.992188 L 17.847656 13.013672 C 17.741997 12.907799 17.603919 12.864462 17.488281 12.775391 C 17.373992 12.864371 17.237204 12.908192 17.132812 13.013672 L 17.417969 12.728516 C 16.08035 11.751106 14.201582 11.805801 12.996094 13.009766 L 12.994141 13.011719 L 12.992188 13.013672 C 11.663622 14.33266 11.668818 16.631708 13.193359 18.15625 A 1.0001 1.0001 0 0 0 13.197266 18.162109 L 16.798828 21.712891 A 1.0001 1.0001 0 0 0 18.203125 21.710938 L 21.792969 18.160156 A 1.0001 1.0001 0 0 0 21.800781 18.154297 C 23.316591 16.625856 23.326449 14.333687 21.998047 13.003906 C 21.329556 12.334037 20.444711 12.001343 19.560547 12.003906 z M 19.566406 13.990234 C 19.931995 13.989134 20.297257 14.130653 20.582031 14.416016 A 1.0001 1.0001 0 0 0 20.582031 14.417969 C 21.15156 14.987497 21.262192 15.852516 20.382812 16.742188 L 17.498047 19.59375 L 14.607422 16.742188 C 13.733479 15.868244 13.854869 14.97329 14.402344 14.431641 A 1.0001 1.0001 0 0 0 14.408203 14.425781 C 14.975304 13.857537 15.86454 13.857537 16.431641 14.425781 A 1.0001 1.0001 0 0 0 16.453125 14.447266 L 16.8125 14.787109 A 1.0001 1.0001 0 0 0 18.207031 14.767578 L 18.546875 14.427734 A 1.0001 1.0001 0 0 0 18.552734 14.421875 C 18.83585 14.134867 19.200819 13.991294 19.566406 13.990234 z "/>
</svg>
