<?xml version="1.0" encoding="UTF-8" standalone="no"?>
<svg xmlns="http://www.w3.org/2000/svg" xmlns:svg="http://www.w3.org/2000/svg" width="24" height="24" viewBox="0 0 24 24" fill="currentColor" tags="directory,search,find,lost,browser" categories="files">
  <path d="M 4 2 C 2.3549904 2 1 3.3549904 1 5 L 1 18 C 1 19.64501 2.3549904 21 4 21 L 10.699219 21 A 1 1 0 0 0 11.699219 20 A 1 1 0 0 0 10.699219 19 L 4 19 C 3.4358706 19 3 18.564129 3 18 L 3 5 C 3 4.4358706 3.4358706 4 4 4 L 7.9003906 4 A 1.0001 1.0001 0 0 0 7.9101562 4 C 8.2512547 3.99666 8.5663095 4.1643209 8.7539062 4.4492188 A 1.0001 1.0001 0 0 0 8.7617188 4.4589844 L 9.5644531 5.6503906 C 10.118675 6.4919664 11.062635 6.9998341 12.070312 7 L 20 7 C 20.564129 7 21 7.4358706 21 8 L 21 12.099609 A 1 1 0 0 0 22 13.099609 A 1 1 0 0 0 23 12.099609 L 23 8 C 23 6.3549904 21.64501 5 20 5 L 12.070312 5 C 11.732815 4.9999444 11.419998 4.8326461 11.234375 4.5507812 A 1.0001 1.0001 0 0 0 11.228516 4.5410156 L 10.425781 3.3496094 C 10.424987 3.3483994 10.422675 3.3488576 10.421875 3.3476562 C 9.8615322 2.4993568 8.9074176 1.9900312 7.890625 2 L 4 2 z M 17 13 C 14.802706 13 13 14.802706 13 17 C 13 19.197294 14.802706 21 17 21 C 17.73848 21 18.43146 20.795196 19.027344 20.441406 L 20.292969 21.707031 A 1 1 0 0 0 21.707031 21.707031 A 1 1 0 0 0 21.707031 20.292969 L 20.441406 19.027344 C 20.795196 18.43146 21 17.73848 21 17 C 21 14.802706 19.197294 13 17 13 z M 17 15 C 18.116414 15 19 15.883586 19 17 C 19 17.480364 18.835875 17.91745 18.560547 18.259766 A 1 1 0 0 0 18.392578 18.392578 A 1 1 0 0 0 18.259766 18.560547 C 17.91745 18.835875 17.480364 19 17 19 C 15.883586 19 15 18.116414 15 17 C 15 15.883586 15.883586 15 17 15 z "/>
</svg>
