<?xml version="1.0" encoding="UTF-8" standalone="no"?>
<svg xmlns="http://www.w3.org/2000/svg" xmlns:svg="http://www.w3.org/2000/svg" width="24" height="24" viewBox="0 0 24 24" fill="currentColor" tags="directory,heart,favourite,bookmark,quick link" categories="files">
  <path d="M 4 2 C 2.3549904 2 1 3.3549904 1 5 L 1 18 C 1 19.64501 2.3549904 21 4 21 L 11 21 A 1 1 0 0 0 12 20 A 1 1 0 0 0 11 19 L 4 19 C 3.4358706 19 3 18.564129 3 18 L 3 5 C 3 4.4358706 3.4358706 4 4 4 L 7.9003906 4 A 1.0001 1.0001 0 0 0 7.9101562 4 C 8.2512547 3.99666 8.5663095 4.1643209 8.7539062 4.4492188 A 1.0001 1.0001 0 0 0 8.7617188 4.4589844 L 9.5644531 5.6503906 C 10.118675 6.4919664 11.062635 6.9998341 12.070312 7 L 20 7 C 20.564129 7 21 7.4358706 21 8 L 21 9.5 A 1 1 0 0 0 22 10.5 A 1 1 0 0 0 23 9.5 L 23 8 C 23 6.3549904 21.64501 5 20 5 L 12.070312 5 C 11.732815 4.9999444 11.419998 4.8326461 11.234375 4.5507812 A 1.0001 1.0001 0 0 0 11.228516 4.5410156 L 10.425781 3.3496094 L 10.423828 3.3496094 L 10.423828 3.3476562 L 10.421875 3.3476562 C 9.8615322 2.4993568 8.9074176 1.9900312 7.890625 2 L 4 2 z M 19.560547 12.003906 C 18.841591 12.006006 18.153397 12.288429 17.552734 12.734375 L 17.826172 12.992188 L 17.847656 13.013672 C 17.742089 12.908316 17.60366 12.864262 17.488281 12.775391 C 17.375324 12.863334 17.240633 12.90692 17.136719 13.009766 L 17.417969 12.728516 C 16.080347 11.751104 14.201585 11.805798 12.996094 13.009766 L 12.994141 13.011719 L 12.992188 13.013672 C 11.663619 14.332662 11.668814 16.631705 13.193359 18.15625 A 1.0001 1.0001 0 0 0 13.197266 18.162109 L 16.798828 21.712891 A 1.0001 1.0001 0 0 0 18.203125 21.710938 L 21.792969 18.160156 A 1.0001 1.0001 0 0 0 21.800781 18.154297 C 23.316593 16.625853 23.326451 14.333689 21.998047 13.003906 C 21.329555 12.334035 20.444713 12.001343 19.560547 12.003906 z M 19.566406 13.990234 C 19.931995 13.989134 20.297256 14.130653 20.582031 14.416016 A 1.0001 1.0001 0 0 0 20.582031 14.417969 C 21.151561 14.987498 21.262193 15.852516 20.382812 16.742188 L 17.498047 19.59375 L 14.607422 16.742188 C 13.733477 15.868243 13.854868 14.973292 14.402344 14.431641 A 1.0001 1.0001 0 0 0 14.408203 14.425781 C 14.975305 13.857536 15.864539 13.857536 16.431641 14.425781 A 1.0001 1.0001 0 0 0 16.453125 14.447266 L 16.8125 14.787109 A 1.0001 1.0001 0 0 0 18.207031 14.767578 L 18.546875 14.427734 A 1.0001 1.0001 0 0 0 18.552734 14.421875 C 18.83585 14.134866 19.200817 13.991294 19.566406 13.990234 z "/>
</svg>
