<svg xmlns="http://www.w3.org/2000/svg" xmlns:svg="http://www.w3.org/2000/svg" width="24" height="24" viewBox="0 0 24 24" fill="currentColor" tags="directory,root,project,active,current,pinned" categories="files,development">
  <path d="M 4 2 C 2.3545455 2 1 3.3545455 1 5 L 1 18 C 1 19.64501 2.3549904 21 4 21 L 18.449219 21 C 19.814139 21.0024 21.016193 20.071581 21.357422 18.75 L 22.908203 12.75 C 23.302432 11.223167 22.389005 9.7529624 21 9.2382812 L 21 8 C 21 6.3549904 19.64501 5 18 5 L 12.074219 5 C 11.738527 4.9982633 11.430722 4.8311464 11.246094 4.5507812 A 1.0001 1.0001 0 0 0 11.236328 4.5351562 L 10.425781 3.3496094 L 10.423828 3.3476562 C 9.8723982 2.511891 8.9369836 2.005181 7.9355469 2 A 1.0001 1.0001 0 0 0 7.9296875 2 L 4 2 z M 4 4 L 7.9257812 4 C 8.2614735 4.00174 8.5692774 4.1688538 8.7539062 4.4492188 A 1.0001 1.0001 0 0 0 8.7636719 4.4648438 L 9.5742188 5.6503906 L 9.5761719 5.6503906 L 9.5761719 5.6523438 C 10.127682 6.4881089 11.063016 6.994819 12.064453 7 A 1.0001 1.0001 0 0 0 12.070312 7 L 18 7 C 18.564129 7 19 7.4358706 19 8 L 19 9 L 9.2421875 9 L 9.2402344 9 C 8.1080135 8.9985058 7.0661857 9.6391885 6.5566406 10.650391 A 1.0001 1.0001 0 0 0 6.5546875 10.652344 L 5.1054688 13.552734 A 1 1 0 0 0 5.5527344 14.894531 A 1 1 0 0 0 6.8945312 14.447266 L 8.34375 11.546875 L 8.34375 11.550781 C 8.5149567 11.211024 8.857821 10.99925 9.2382812 11 A 1.0001 1.0001 0 0 0 9.2402344 11 L 20 11 A 1.0001 1.0001 0 0 0 20.001953 11 C 20.681104 10.9988 21.142445 11.592415 20.972656 12.25 L 19.421875 18.25 C 19.306454 18.697025 18.912856 19.00081 18.451172 19 A 1.0001 1.0001 0 0 0 18.449219 19 L 4 19 C 3.4358706 19 3 18.564129 3 18 L 3 5 C 3 4.4454545 3.4454545 4 4 4 z M 14 13 C 12.907275 13 12 13.907275 12 15 C 12 16.092725 12.907275 17 14 17 C 15.092725 17 16 16.092725 16 15 C 16 13.907275 15.092725 13 14 13 z "/>
</svg>
