<svg xmlns="http://www.w3.org/2000/svg" xmlns:svg="http://www.w3.org/2000/svg" width="24" height="24" viewBox="0 0 24 24" fill="currentColor" tags="history,directory,clock" categories="files,time">
  <path d="M 4 2 C 2.3549904 2 1 3.3549904 1 5 L 1 18 C 1 19.64501 2.3549904 21 4 21 L 7 21 A 1 1 0 0 0 8 20 A 1 1 0 0 0 7 19 L 4 19 C 3.4358706 19 3 18.564129 3 18 L 3 5 C 3 4.4358706 3.4358706 4 4 4 L 7.9003906 4 A 1.0001 1.0001 0 0 0 7.9101562 4 C 8.2512547 3.99666 8.5663095 4.1643209 8.7539062 4.4492188 A 1.0001 1.0001 0 0 0 8.7617188 4.4589844 L 9.5644531 5.6503906 C 10.118675 6.4919664 11.062635 6.9998341 12.070312 7 L 20 7 C 20.564129 7 21 7.4358706 21 8 A 1 1 0 0 0 22 9 A 1 1 0 0 0 23 8 C 23 6.3549904 21.64501 5 20 5 L 12.070312 5 C 11.732815 4.9999444 11.419998 4.8326461 11.234375 4.5507812 A 1.0001 1.0001 0 0 0 11.228516 4.5410156 L 10.425781 3.3496094 L 10.423828 3.3496094 L 10.423828 3.3476562 L 10.421875 3.3476562 C 9.8615322 2.4993568 8.9074176 1.9900312 7.890625 2 L 4 2 z M 16 9 C 12.145851 9 9 12.145851 9 16 C 9 19.854149 12.145851 23 16 23 C 19.854149 23 23 19.854149 23 16 C 23 12.145851 19.854149 9 16 9 z M 16 11 C 18.773268 11 21 13.226732 21 16 C 21 18.773268 18.773268 21 16 21 C 13.226732 21 11 18.773268 11 16 C 11 13.226732 13.226732 11 16 11 z M 16 13 A 1 1 0 0 0 15 14 L 15 16.199219 A 1.0001 1.0001 0 0 0 15.470703 17.048828 L 17.070312 18.048828 A 1 1 0 0 0 18.447266 17.730469 A 1 1 0 0 0 18.130859 16.351562 L 17 15.646484 L 17 14 A 1 1 0 0 0 16 13 z "/>
</svg>
