<?xml version="1.0" encoding="UTF-8" standalone="no"?>
<svg xmlns="http://www.w3.org/2000/svg" xmlns:svg="http://www.w3.org/2000/svg" width="24" height="24" viewBox="0 0 24 24" fill="currentColor" tags="directory,symlink,symbolic,link" categories="files">
  <path d="M 4 2 C 2.3549904 2 1 3.3549904 1 5 L 1 9 A 1 1 0 0 0 2 10 A 1 1 0 0 0 3 9 L 3 5 C 3 4.4358706 3.4358706 4 4 4 L 7.9003906 4 A 1.0001 1.0001 0 0 0 7.9101562 4 C 8.2512547 3.99666 8.5663095 4.1643209 8.7539062 4.4492188 A 1.0001 1.0001 0 0 0 8.7617188 4.4589844 L 9.5644531 5.6503906 C 10.118675 6.4919664 11.062635 6.9998341 12.070312 7 L 20 7 C 20.564129 7 21 7.4358706 21 8 L 21 18 C 21 18.564129 20.564129 19 20 19 L 4 19 C 3.4358706 19 3 18.564129 3 18 L 3 15 C 3 14.435871 3.4358706 14 4 14 L 8.5859375 14 L 7.2929688 15.292969 A 1 1 0 0 0 7.2929688 16.707031 A 1 1 0 0 0 8.7070312 16.707031 L 11.697266 13.716797 A 1 1 0 0 0 11.707031 13.707031 A 1.0001 1.0001 0 0 0 11.785156 13.619141 A 1 1 0 0 0 11.792969 13.609375 A 1.0001 1.0001 0 0 0 11.861328 13.507812 A 1 1 0 0 0 11.865234 13.5 A 1.0001 1.0001 0 0 0 11.921875 13.388672 A 1 1 0 0 0 11.923828 13.382812 A 1 1 0 0 0 11.964844 13.257812 A 1.0001 1.0001 0 0 0 11.976562 13.205078 A 1.0001 1.0001 0 0 0 12 13 A 1.0001 1.0001 0 0 0 11.976562 12.794922 A 1.0001 1.0001 0 0 0 11.964844 12.742188 A 1 1 0 0 0 11.923828 12.617188 A 1.0001 1.0001 0 0 0 11.921875 12.611328 A 1 1 0 0 0 11.865234 12.5 A 1.0001 1.0001 0 0 0 11.861328 12.492188 A 1 1 0 0 0 11.792969 12.390625 A 1.0001 1.0001 0 0 0 11.785156 12.380859 A 1 1 0 0 0 11.707031 12.292969 L 11.697266 12.283203 L 8.7070312 9.2929688 A 1 1 0 0 0 8 9 A 1 1 0 0 0 7.2929688 9.2929688 A 1 1 0 0 0 7.2929688 10.707031 L 8.5859375 12 L 4 12 C 2.3549904 12 1 13.35499 1 15 L 1 18 C 1 19.64501 2.3549904 21 4 21 L 20 21 C 21.64501 21 23 19.64501 23 18 L 23 8 C 23 6.3549904 21.64501 5 20 5 L 12.070312 5 C 11.732815 4.9999444 11.419998 4.8326461 11.234375 4.5507812 A 1.0001 1.0001 0 0 0 11.228516 4.5410156 L 10.425781 3.3496094 L 10.423828 3.3496094 L 10.423828 3.3476562 L 10.421875 3.3476562 C 9.8615322 2.4993568 8.9074176 1.9900312 7.890625 2 L 4 2 z "/>
</svg>
