<?xml version="1.0" encoding="UTF-8" standalone="no"?>
<svg xmlns="http://www.w3.org/2000/svg" xmlns:svg="http://www.w3.org/2000/svg" width="24" height="24" viewBox="0 0 24 24" fill="currentColor" tags="directory,settings,control,preferences,cog,edit,gear" categories="files">
  <path d="M 4 2 C 2.3549904 2 1 3.3549904 1 5 L 1 18 C 1 19.64501 2.3549904 21 4 21 L 10.300781 21 A 1 1 0 0 0 11.300781 20 A 1 1 0 0 0 10.300781 19 L 4 19 C 3.4358706 19 3 18.564129 3 18 L 3 5 C 3 4.4358706 3.4358706 4 4 4 L 7.9003906 4 A 1.0001 1.0001 0 0 0 7.9101562 4 C 8.2512547 3.99666 8.5663095 4.1643209 8.7539062 4.4492188 A 1.0001 1.0001 0 0 0 8.7617188 4.4589844 L 9.5644531 5.6503906 C 10.118675 6.4919664 11.062635 6.9998341 12.070312 7 L 20 7 C 20.564129 7 21 7.4358706 21 8 L 21 11.300781 A 1 1 0 0 0 22 12.300781 A 1 1 0 0 0 23 11.300781 L 23 8 C 23 6.3549904 21.64501 5 20 5 L 12.070312 5 C 11.732815 4.9999444 11.419998 4.8326461 11.234375 4.5507812 A 1.0001 1.0001 0 0 0 11.228516 4.5410156 L 10.425781 3.3496094 L 10.423828 3.3496094 L 10.423828 3.3476562 L 10.421875 3.3476562 C 9.8615322 2.4993568 8.9074176 1.9900312 7.890625 2 L 4 2 z M 16.412109 13.300781 A 1 1 0 0 0 16.029297 13.371094 A 1 1 0 0 0 15.470703 14.671875 L 15.542969 14.851562 C 15.23689 15.091426 14.966025 15.3743 14.740234 15.691406 L 14.617188 15.650391 A 1 1 0 0 0 13.351562 16.283203 A 1 1 0 0 0 13.984375 17.548828 L 14.023438 17.5625 C 14.007534 17.706387 14 17.852108 14 18 C 14 18.211861 14.016572 18.419785 14.048828 18.623047 L 13.927734 18.671875 A 1 1 0 0 0 13.371094 19.970703 A 1 1 0 0 0 14.671875 20.529297 L 14.851562 20.457031 C 15.091426 20.76311 15.3743 21.033975 15.691406 21.259766 L 15.650391 21.382812 A 1 1 0 0 0 16.283203 22.648438 A 1 1 0 0 0 17.548828 22.015625 L 17.5625 21.976562 C 17.706387 21.992466 17.852108 22 18 22 C 18.211861 22 18.419785 21.983428 18.623047 21.951172 L 18.671875 22.072266 A 1 1 0 0 0 19.970703 22.628906 A 1 1 0 0 0 20.529297 21.328125 L 20.457031 21.148438 C 20.76311 20.908574 21.033975 20.6257 21.259766 20.308594 L 21.382812 20.349609 A 1 1 0 0 0 22.648438 19.716797 A 1 1 0 0 0 22.015625 18.451172 L 21.976562 18.4375 C 21.992466 18.293613 22 18.147892 22 18 C 22 17.788139 21.983428 17.580215 21.951172 17.376953 L 22.072266 17.328125 A 1 1 0 0 0 22.628906 16.029297 A 1 1 0 0 0 21.328125 15.470703 L 21.148438 15.542969 C 20.908574 15.23689 20.6257 14.966025 20.308594 14.740234 L 20.349609 14.617188 A 1 1 0 0 0 19.716797 13.351562 A 1 1 0 0 0 18.451172 13.984375 L 18.4375 14.023438 C 18.293613 14.007534 18.147892 14 18 14 C 17.788139 14 17.580215 14.016572 17.376953 14.048828 L 17.328125 13.927734 A 1 1 0 0 0 16.412109 13.300781 z M 18 16 C 18.731654 16 19.362454 16.379255 19.710938 16.955078 A 1 1 0 0 0 19.771484 17.171875 A 1 1 0 0 0 19.917969 17.423828 C 19.971399 17.605852 20 17.799106 20 18 C 20 18.731654 19.620745 19.362454 19.044922 19.710938 A 1 1 0 0 0 18.828125 19.771484 A 1 1 0 0 0 18.576172 19.917969 C 18.394148 19.971399 18.200894 20 18 20 C 17.268346 20 16.637546 19.620745 16.289062 19.044922 A 1 1 0 0 0 16.228516 18.828125 A 1 1 0 0 0 16.082031 18.576172 C 16.028601 18.394148 16 18.200894 16 18 C 16 17.268346 16.379255 16.637546 16.955078 16.289062 A 1 1 0 0 0 17.171875 16.228516 A 1 1 0 0 0 17.423828 16.082031 C 17.605852 16.028601 17.799106 16 18 16 z "/>
</svg>
