<?xml version="1.0" encoding="UTF-8" standalone="no"?>
<svg xmlns="http://www.w3.org/2000/svg" xmlns:svg="http://www.w3.org/2000/svg" width="24" height="24" viewBox="0 0 24 24" fill="currentColor" tags="directory,key,private,security,protected" categories="files,security">
  <path d="M 4 2 C 2.3549904 2 1 3.3549904 1 5 L 1 18 C 1 19.64501 2.3549904 21 4 21 L 10 21 A 1 1 0 0 0 11 20 A 1 1 0 0 0 10 19 L 4 19 C 3.4358706 19 3 18.564129 3 18 L 3 5 C 3 4.4358706 3.4358706 4 4 4 L 7.9003906 4 A 1.0001 1.0001 0 0 0 7.9101562 4 C 8.2512547 3.99666 8.5663095 4.1643209 8.7539062 4.4492188 A 1.0001 1.0001 0 0 0 8.7617188 4.4589844 L 9.5644531 5.6503906 C 10.118675 6.4919664 11.062635 6.9998341 12.070312 7 L 20 7 C 20.564129 7 21 7.4358706 21 8 L 21 10 A 1 1 0 0 0 22 11 A 1 1 0 0 0 23 10 L 23 8 C 23 6.3549904 21.64501 5 20 5 L 12.070312 5 C 11.732815 4.9999444 11.419998 4.8326461 11.234375 4.5507812 A 1.0001 1.0001 0 0 0 11.228516 4.5410156 L 10.425781 3.3496094 C 10.424987 3.3483994 10.422675 3.3488576 10.421875 3.3476562 C 9.8615322 2.4993568 8.9074176 1.9900312 7.890625 2 L 4 2 z M 22 13 A 1 1 0 0 0 21.292969 13.292969 L 20.292969 14.292969 L 17.289062 17.296875 C 16.897382 17.107873 16.460496 17 16 17 C 14.35499 17 13 18.35499 13 20 C 13 21.64501 14.35499 23 16 23 C 17.64501 23 19 21.64501 19 20 C 19 19.539504 18.892127 19.102618 18.703125 18.710938 L 21 16.414062 L 21.292969 16.707031 A 1 1 0 0 0 22.707031 16.707031 A 1 1 0 0 0 22.707031 15.292969 L 22.414062 15 L 22.707031 14.707031 A 1 1 0 0 0 22.707031 13.292969 A 1 1 0 0 0 22 13 z M 16 19 C 16.564129 19 17 19.435871 17 20 C 17 20.564129 16.564129 21 16 21 C 15.435871 21 15 20.564129 15 20 C 15 19.435871 15.435871 19 16 19 z "/>
</svg>
