<svg xmlns="http://www.w3.org/2000/svg" xmlns:svg="http://www.w3.org/2000/svg" width="24" height="24" viewBox="0 0 24 24" fill="currentColor" tags="directory,synchronize,synchronise,refresh,reconnect,transfer,backup" categories="files,arrows">
  <path d="M 4 2 C 2.3549904 2 1 3.3549904 1 5 L 1 18 C 1 19.64501 2.3549904 21 4 21 L 9 21 A 1 1 0 0 0 10 20 A 1 1 0 0 0 9 19 L 4 19 C 3.4358706 19 3 18.564129 3 18 L 3 5 C 3 4.4358706 3.4358706 4 4 4 L 7.9003906 4 A 1.0001 1.0001 0 0 0 7.9101562 4 C 8.2512547 3.99666 8.5663095 4.1643209 8.7539062 4.4492188 A 1.0001 1.0001 0 0 0 8.7617188 4.4589844 L 9.5644531 5.6503906 C 10.118675 6.4919664 11.062635 6.9998341 12.070312 7 L 20 7 C 20.564129 7 21 7.4358706 21 8 L 21 8.5 A 1 1 0 0 0 22 9.5 A 1 1 0 0 0 23 8.5 L 23 8 C 23 6.3549904 21.64501 5 20 5 L 12.070312 5 C 11.732815 4.9999444 11.419998 4.8326461 11.234375 4.5507812 A 1.0001 1.0001 0 0 0 11.228516 4.5410156 L 10.425781 3.3496094 L 10.423828 3.3496094 L 10.423828 3.3476562 L 10.421875 3.3476562 C 9.8615322 2.4993568 8.9074176 1.9900312 7.890625 2 L 4 2 z M 12 9 A 1 1 0 0 0 11 10 L 11 14 A 1.0001 1.0001 0 0 0 11.003906 14.048828 A 1 1 0 0 0 11.007812 14.125 A 1.0001 1.0001 0 0 0 11.007812 14.130859 A 1 1 0 0 0 11.033203 14.253906 A 1.0001 1.0001 0 0 0 11.076172 14.382812 A 1 1 0 0 0 11.076172 14.384766 A 1.0001 1.0001 0 0 0 11.134766 14.5 A 1 1 0 0 0 11.138672 14.507812 A 1.0001 1.0001 0 0 0 11.207031 14.609375 A 1 1 0 0 0 11.267578 14.679688 A 1.0001 1.0001 0 0 0 11.298828 14.712891 A 1 1 0 0 0 11.308594 14.722656 A 1 1 0 0 0 11.359375 14.765625 A 1.0001 1.0001 0 0 0 11.396484 14.796875 A 1 1 0 0 0 11.589844 14.910156 A 1.0001 1.0001 0 0 0 11.626953 14.927734 A 1 1 0 0 0 11.664062 14.939453 A 1.0001 1.0001 0 0 0 11.882812 14.992188 A 1 1 0 0 0 11.941406 14.996094 A 1.0001 1.0001 0 0 0 12 15 A 1 1 0 0 0 12.019531 15 L 16 15 A 1 1 0 0 0 17 14 A 1 1 0 0 0 16 13 L 14.353516 13 C 16.361953 11.217347 19.484211 11.850096 20.628906 14.316406 A 1 1 0 0 0 21.955078 14.802734 A 1 1 0 0 0 22.441406 13.474609 C 21.580759 11.620296 19.917917 10.46166 18.101562 10.121094 C 16.349443 9.792571 14.454841 10.224837 13 11.527344 L 13 10 A 1 1 0 0 0 12 9 z M 18 17 A 1 1 0 0 0 17 18 A 1 1 0 0 0 18 19 L 19.646484 19 C 17.638045 20.782595 14.515779 20.149882 13.371094 17.683594 A 1 1 0 0 0 12.808594 17.166016 A 1 1 0 0 0 12.044922 17.197266 A 1 1 0 0 0 11.558594 18.525391 C 13.249453 22.168441 18.036969 23.125453 21 20.472656 L 21 22 A 1 1 0 0 0 22 23 A 1 1 0 0 0 23 22 L 23 18.019531 A 1 1 0 0 0 23 18 A 1.0001 1.0001 0 0 0 22.996094 17.951172 A 1 1 0 0 0 22.992188 17.875 A 1 1 0 0 0 22.992188 17.869141 A 1.0001 1.0001 0 0 0 22.966797 17.746094 A 1.0001 1.0001 0 0 0 22.933594 17.648438 A 1.0001 1.0001 0 0 0 22.923828 17.615234 A 1 1 0 0 0 22.865234 17.5 A 1.0001 1.0001 0 0 0 22.861328 17.492188 A 1 1 0 0 0 22.792969 17.390625 A 1 1 0 0 0 22.732422 17.320312 A 1 1 0 0 0 22.707031 17.292969 A 1.0001 1.0001 0 0 0 22.701172 17.287109 A 1 1 0 0 0 22.691406 17.277344 A 1 1 0 0 0 22.640625 17.234375 A 1 1 0 0 0 22.609375 17.207031 A 1.0001 1.0001 0 0 0 22.603516 17.203125 A 1 1 0 0 0 22.5 17.134766 A 1 1 0 0 0 22.410156 17.089844 A 1 1 0 0 0 22.382812 17.076172 A 1.0001 1.0001 0 0 0 22.363281 17.068359 A 1 1 0 0 0 22.335938 17.060547 A 1.0001 1.0001 0 0 0 22.238281 17.029297 A 1.0001 1.0001 0 0 0 22.117188 17.007812 A 1.0001 1.0001 0 0 0 22.111328 17.005859 A 1 1 0 0 0 22 17 L 21.980469 17 L 18 17 z "/>
</svg>
