<svg xmlns="http://www.w3.org/2000/svg" xmlns:svg="http://www.w3.org/2000/svg" width="24" height="24" viewBox="0 0 24 24" fill="currentColor" tags="directory,upload,import,export" categories="files,arrows">
  <path d="M 4 2 C 2.3549904 2 1 3.3549904 1 5 L 1 18 C 1 19.64501 2.3549904 21 4 21 L 20 21 C 21.64501 21 23 19.64501 23 18 L 23 8 C 23 6.3549904 21.64501 5 20 5 L 12.099609 5 A 1.0001 1.0001 0 0 0 12.089844 5 C 11.748745 5.00334 11.43369 4.8356792 11.246094 4.5507812 A 1.0001 1.0001 0 0 0 11.238281 4.5410156 L 10.435547 3.3496094 C 9.8813247 2.5080336 8.937364 2.0001659 7.9296875 2 L 4 2 z M 4 4 L 7.9296875 4 C 8.2671837 4.0000556 8.5800021 4.1673539 8.765625 4.4492188 A 1.0001 1.0001 0 0 0 8.7714844 4.4589844 L 9.5742188 5.6503906 L 9.5761719 5.6503906 L 9.5761719 5.6523438 L 9.578125 5.6523438 C 10.138458 6.5006389 11.092582 7.0099688 12.109375 7 L 20 7 C 20.564129 7 21 7.4358706 21 8 L 21 18 C 21 18.564129 20.564129 19 20 19 L 4 19 C 3.4358706 19 3 18.564129 3 18 L 3 5 C 3 4.4358706 3.4358706 4 4 4 z M 12 9 A 1.0001 1.0001 0 0 0 11.794922 9.0234375 A 1 1 0 0 0 11.742188 9.0351562 A 1 1 0 0 0 11.617188 9.0761719 A 1 1 0 0 0 11.611328 9.078125 A 1.0001 1.0001 0 0 0 11.5 9.1347656 A 1 1 0 0 0 11.439453 9.1757812 A 1.0001 1.0001 0 0 0 11.384766 9.2128906 A 1 1 0 0 0 11.341797 9.25 A 1.0001 1.0001 0 0 0 11.292969 9.2929688 A 1 1 0 0 0 11.283203 9.3027344 L 8.2929688 12.292969 A 1 1 0 0 0 8.2929688 13.707031 A 1 1 0 0 0 9.7070312 13.707031 L 11 12.414062 L 11 16 A 1 1 0 0 0 12 17 A 1 1 0 0 0 13 16 L 13 12.414062 L 14.292969 13.707031 A 1 1 0 0 0 15.707031 13.707031 A 1 1 0 0 0 15.707031 12.292969 L 12.716797 9.3027344 A 1 1 0 0 0 12.658203 9.25 A 1.0001 1.0001 0 0 0 12.615234 9.2128906 A 1 1 0 0 0 12.560547 9.1757812 A 1.0001 1.0001 0 0 0 12.382812 9.0761719 A 1 1 0 0 0 12.257812 9.0351562 A 1.0001 1.0001 0 0 0 12.205078 9.0234375 A 1.0001 1.0001 0 0 0 12 9 z "/>
</svg>
