<?xml version="1.0" encoding="UTF-8" standalone="no"?>
<svg xmlns="http://www.w3.org/2000/svg" xmlns:svg="http://www.w3.org/2000/svg" width="24" height="24" viewBox="0 0 24 24" fill="currentColor" tags="directory,search,find,lost,browser,lens" categories="files">
  <path d="M 4 2 C 2.3549904 2 1 3.3549904 1 5 L 1 18 C 1 19.64501 2.3549904 21 4 21 L 20 21 C 21.64501 21 23 19.64501 23 18 L 23 8 C 23 6.3549904 21.64501 5 20 5 L 12.099609 5 A 1.0001 1.0001 0 0 0 12.089844 5 C 11.748745 5.00334 11.43369 4.8356792 11.246094 4.5507812 A 1.0001 1.0001 0 0 0 11.238281 4.5410156 L 10.435547 3.3496094 C 9.8813247 2.5080336 8.937364 2.0001659 7.9296875 2 L 4 2 z M 4 4 L 7.9296875 4 C 8.2671837 4.0000556 8.5800021 4.1673539 8.765625 4.4492188 A 1.0001 1.0001 0 0 0 8.7714844 4.4589844 L 9.5742188 5.6503906 L 9.5761719 5.6503906 L 9.5761719 5.6523438 L 9.578125 5.6523438 C 10.138458 6.5006389 11.092582 7.0099688 12.109375 7 L 20 7 C 20.564129 7 21 7.4358706 21 8 L 21 18 C 21 18.564129 20.564129 19 20 19 L 4 19 C 3.4358706 19 3 18.564129 3 18 L 3 5 C 3 4.4358706 3.4358706 4 4 4 z M 11.5 9 C 9.578848 9 8 10.578848 8 12.5 C 8 14.421152 9.578848 16 11.5 16 C 12.099854 16 12.66664 15.84638 13.162109 15.576172 L 14.292969 16.707031 A 1 1 0 0 0 15.707031 16.707031 A 1 1 0 0 0 15.707031 15.292969 L 14.576172 14.162109 C 14.84638 13.66664 15 13.099854 15 12.5 C 15 10.578848 13.421152 9 11.5 9 z M 11.5 11 C 12.340272 11 13 11.659728 13 12.5 C 13 13.340272 12.340272 14 11.5 14 C 10.659728 14 10 13.340272 10 12.5 C 10 11.659728 10.659728 11 11.5 11 z "/>
</svg>
