<svg xmlns="http://www.w3.org/2000/svg" xmlns:svg="http://www.w3.org/2000/svg" width="24" height="24" viewBox="0 0 24 24" fill="currentColor" tags="directory,rename" categories="files">
  <path d="M 4 2 C 2.3549904 2 1 3.3549904 1 5 L 1 11.5 A 1 1 0 0 0 2 12.5 A 1 1 0 0 0 3 11.5 L 3 5 C 3 4.4358706 3.4358706 4 4 4 L 7.9003906 4 C 8.3146763 4 8.5382551 4.1110936 8.7675781 4.4550781 L 9.5683594 5.6542969 C 10.139036 6.5103124 11.113895 7 12.099609 7 L 20 7 C 20.564129 7 21 7.4358706 21 8 L 21 18 C 21 18.564129 20.564129 19 20 19 L 10.5 19 A 1 1 0 0 0 9.5 20 A 1 1 0 0 0 10.5 21 L 20 21 C 21.64501 21 23 19.64501 23 18 L 23 8 C 23 6.3549904 21.64501 5 20 5 L 12.099609 5 C 11.685324 5 11.461745 4.8889064 11.232422 4.5449219 L 10.431641 3.3457031 C 9.8609632 2.4896876 8.8861049 2 7.9003906 2 L 4 2 z M 9.7246094 8.9667969 C 9.0063406 9.0049793 8.2587784 9.3212997 7.6660156 9.9140625 L 2.65625 14.927734 C 2.3002683 15.283925 2.0395974 15.723619 1.8984375 16.207031 A 1.0001 1.0001 0 0 0 1.8984375 16.208984 L 1.0605469 19.078125 C 0.74386193 20.163902 1.8360981 21.254185 2.921875 20.9375 L 5.7910156 20.101562 C 6.2749741 19.960244 6.7158621 19.698397 7.0722656 19.341797 L 12.083984 14.333984 A 1.0001 1.0001 0 0 0 12.085938 14.333984 C 12.763381 13.656541 13.080694 12.778047 13.033203 11.970703 C 12.985666 11.163312 12.618572 10.446697 12.085938 9.9140625 C 11.553302 9.3814277 10.836641 9.0142879 10.029297 8.9667969 C 9.9283788 8.9608605 9.8272192 8.9613422 9.7246094 8.9667969 z M 9.8164062 10.960938 C 9.8484191 10.960153 9.8800378 10.961004 9.9121094 10.962891 C 10.168682 10.977981 10.451557 11.111713 10.669922 11.330078 C 10.888287 11.548443 11.022017 11.831318 11.037109 12.087891 C 11.052199 12.344463 10.993809 12.594079 10.669922 12.917969 L 5.6582031 17.927734 C 5.5393632 18.04664 5.3918409 18.134519 5.2304688 18.181641 L 3.2363281 18.763672 L 3.8183594 16.767578 C 3.8654814 16.606206 3.9514071 16.460637 4.0703125 16.341797 L 9.0820312 11.330078 C 9.3654346 11.046674 9.5923166 10.966431 9.8164062 10.960938 z "/>
</svg>
