<?xml version="1.0" encoding="UTF-8" standalone="no"?>
<svg xmlns="http://www.w3.org/2000/svg" xmlns:svg="http://www.w3.org/2000/svg" width="24" height="24" viewBox="0 0 24 24" fill="currentColor" tags="directory" categories="files">
  <path d="M 4 2 C 2.3549936 2 1 3.3549936 1 5 L 1 18 C 1 19.645006 2.3549936 21 4 21 L 18.443359 21 C 19.813761 21.0092 21.026563 20.076924 21.369141 18.75 A 1.0001 1.0001 0 0 0 21.369141 18.748047 L 22.908203 12.75 L 22.908203 12.748047 C 23.301143 11.221929 22.388399 9.7527373 21 9.2382812 L 21 8 C 21 6.3549936 19.645006 5 18 5 L 12.070312 5 C 11.732817 4.9999444 11.419998 4.8326456 11.234375 4.5507812 A 1.0001 1.0001 0 0 0 11.228516 4.5410156 L 10.425781 3.3496094 C 10.424987 3.3483994 10.422675 3.3488576 10.421875 3.3476562 C 9.8615334 2.4993584 8.9074156 1.9900312 7.890625 2 L 4 2 z M 4 4 L 7.9003906 4 A 1.0001 1.0001 0 0 0 7.9101562 4 C 8.251254 3.99666 8.5663098 4.1643215 8.7539062 4.4492188 A 1.0001 1.0001 0 0 0 8.7617188 4.4589844 L 9.5644531 5.6503906 C 10.118674 6.4919648 11.062638 6.9998341 12.070312 7 L 18 7 C 18.564128 7 19 7.4358718 19 8 L 19 9 L 9.2402344 9 A 1.0001 1.0001 0 0 0 9.2167969 9 C 8.1106862 9.025628 7.1050084 9.6621872 6.6074219 10.650391 L 5.1113281 13.541016 A 1 1 0 0 0 5.5410156 14.888672 A 1 1 0 0 0 6.8886719 14.458984 L 8.3886719 11.558594 A 1.0001 1.0001 0 0 0 8.3925781 11.548828 C 8.5595621 11.217225 8.8924652 11.008601 9.2636719 11 L 20 11 A 1.0001 1.0001 0 0 0 20.001953 11 C 20.681102 10.9988 21.142445 11.592416 20.972656 12.25 A 1.0001 1.0001 0 0 0 20.970703 12.251953 L 19.431641 18.25 C 19.315739 18.698929 18.920669 19.003129 18.457031 19 A 1.0001 1.0001 0 0 0 18.449219 19 L 4 19 C 3.4358718 19 3 18.564128 3 18 L 3 5 C 3 4.4358718 3.4358718 4 4 4 z "/>
</svg>
