<?xml version="1.0" encoding="UTF-8" standalone="no"?>
<svg xmlns="http://www.w3.org/2000/svg" xmlns:svg="http://www.w3.org/2000/svg" width="24" height="24" viewBox="0 0 24 24" fill="currentColor" tags="steps,walking,foot,feet,trail,shoe" categories="navigation">
  <path d="M 7.5 1 C 5.6317663 1 4.1659322 2.077167 3.2910156 3.4394531 C 2.4160991 4.8017393 2.0169242 6.4538249 2 7.9882812 C 1.9833332 9.3771847 2.2754989 10.405699 2.5332031 11.246094 C 2.7909073 12.086489 3 12.72109 3 13.619141 L 3 16 C 3 16.916666 3.3797556 17.731441 3.9609375 18.248047 C 4.5421194 18.764653 5.2777779 19 6 19 C 6.7222221 19 7.4578806 18.764653 8.0390625 18.248047 C 8.6202444 17.731441 9 16.916666 9 16 L 9 14.179688 C 9 12.890437 9.4408395 11.614325 9.9414062 10.208984 C 10.441973 8.8036439 11 7.2693623 11 5.5 C 11 4.5264706 10.840044 3.4968008 10.3125 2.6035156 C 9.7849561 1.7102304 8.7558556 1 7.5 1 z M 7.5 3 C 8.1141444 3 8.3348876 3.1893788 8.5898438 3.6210938 C 8.8447998 4.0528085 9 4.7735294 9 5.5 C 9 6.8406377 8.558027 8.1369034 8.0585938 9.5390625 C 7.7806926 10.31927 7.4875603 11.134189 7.2792969 12 L 4.8183594 12 C 4.7105149 11.509519 4.5713369 11.071132 4.4453125 10.660156 C 4.1955167 9.8455514 3.9866668 9.1228153 4 8.0117188 C 4.0130758 6.826175 4.3595259 5.4772452 4.9746094 4.5195312 C 5.5896928 3.5618174 6.3582337 3 7.5 3 z M 16.5 5 C 15.244144 5 14.215044 5.7102304 13.6875 6.6035156 C 13.159956 7.4968008 13 8.5264706 13 9.5 C 13 11.269362 13.558027 12.803643 14.058594 14.208984 C 14.55916 15.614325 15 16.890438 15 18.179688 L 15 20 C 15 20.916666 15.379756 21.731441 15.960938 22.248047 C 16.542119 22.764653 17.277778 23 18 23 C 18.722222 23 19.457881 22.764653 20.039062 22.248047 C 20.620244 21.731441 21 20.916666 21 20 L 21 17.619141 C 21 16.72109 21.209093 16.086489 21.466797 15.246094 C 21.724501 14.405699 22.016667 13.377185 22 11.988281 C 21.983076 10.453825 21.583901 8.8017393 20.708984 7.4394531 C 19.834068 6.077167 18.368234 5 16.5 5 z M 16.5 7 C 17.641766 7 18.410307 7.5618173 19.025391 8.5195312 C 19.640474 9.4772451 19.986924 10.826175 20 12.011719 C 20.01333 13.122815 19.804483 13.845551 19.554688 14.660156 C 19.428664 15.071132 19.289485 15.509519 19.181641 16 L 16.720703 16 C 16.51244 15.134189 16.219308 14.31927 15.941406 13.539062 C 15.441973 12.136902 15 10.840638 15 9.5 C 15 8.7735294 15.1552 8.0528086 15.410156 7.6210938 C 15.665112 7.189379 15.885856 7 16.5 7 z M 5 14 L 7.0039062 14 C 7.0025742 14.059781 7 14.11937 7 14.179688 L 7 16 C 7 16.416666 6.8797556 16.601893 6.7109375 16.751953 C 6.5421194 16.902014 6.2777779 17 6 17 C 5.7222221 17 5.4578806 16.902014 5.2890625 16.751953 C 5.1202444 16.601893 5 16.416666 5 16 L 5 14 z M 16.996094 18 L 19 18 L 19 20 C 19 20.416666 18.879756 20.601893 18.710938 20.751953 C 18.542119 20.902014 18.277778 21 18 21 C 17.722222 21 17.457881 20.902014 17.289062 20.751953 C 17.120244 20.601893 17 20.416666 17 20 L 17 18.179688 C 17 18.11937 16.997426 18.059781 16.996094 18 z "/>
</svg>
