<?xml version="1.0" encoding="UTF-8" standalone="no"?>
<svg xmlns="http://www.w3.org/2000/svg" xmlns:svg="http://www.w3.org/2000/svg" width="24" height="24" viewBox="0 0 24 24" fill="currentColor" tags="steps,walking,foot,feet,trail,shoe" categories="maps">
  <path d="M 7.5 1 C 5.6317701 1 4.1659305 2.0771697 3.2910156 3.4394531 C 2.4161009 4.8017366 2.0169241 6.453828 2 7.9882812 C 1.9833332 9.3771819 2.2754995 10.405701 2.5332031 11.246094 C 2.7909069 12.086487 3 12.721092 3 13.619141 L 3 16 C 3 16.916665 3.3797568 17.731441 3.9609375 18.248047 C 4.5421182 18.764651 5.2777793 19 6 19 C 6.7222207 19 7.4578818 18.764651 8.0390625 18.248047 C 8.6202432 17.731441 9 16.916665 9 16 L 9 14.179688 C 9 12.89044 9.4408406 11.614323 9.9414062 10.208984 C 10.441971 8.8036467 11 7.2693587 11 5.5 C 11 4.5264726 10.840042 3.496799 10.3125 2.6035156 C 9.7849571 1.7102322 8.7558531 1 7.5 1 z M 7.5 3 C 8.1141432 3 8.3348881 3.1893798 8.5898438 3.6210938 C 8.8447993 4.0528076 9 4.7735308 9 5.5 C 9 6.8406351 8.5580261 8.1369062 8.0585938 9.5390625 C 7.7806932 10.319268 7.4875602 11.134189 7.2792969 12 L 4.8183594 12 C 4.710515 11.509519 4.5713366 11.071131 4.4453125 10.660156 C 4.1955171 9.8455531 3.9866669 9.1228131 4 8.0117188 C 4.0130758 6.8261774 4.3595271 5.4772432 4.9746094 4.5195312 C 5.5896916 3.5618194 6.3582359 3 7.5 3 z M 16.5 5 C 15.244147 5 14.215042 5.7102322 13.6875 6.6035156 C 13.159958 7.496799 13 8.5264726 13 9.5 C 13 11.269359 13.558028 12.803647 14.058594 14.208984 C 14.559159 15.614323 15 16.890441 15 18.179688 L 15 20 C 15 20.916665 15.379756 21.731441 15.960938 22.248047 C 16.542118 22.764651 17.27778 23 18 23 C 18.72222 23 19.457882 22.764651 20.039062 22.248047 C 20.620244 21.731441 21 20.916665 21 20 L 21 17.619141 C 21 16.721092 21.209093 16.086487 21.466797 15.246094 C 21.724501 14.405701 22.016667 13.377182 22 11.988281 C 21.983076 10.453828 21.5839 8.8017366 20.708984 7.4394531 C 19.83407 6.0771697 18.36823 5 16.5 5 z M 16.5 7 C 17.641764 7 18.410308 7.5618193 19.025391 8.5195312 C 19.640472 9.4772431 19.986924 10.826177 20 12.011719 C 20.01333 13.122813 19.804483 13.845553 19.554688 14.660156 C 19.428664 15.071131 19.289485 15.509519 19.181641 16 L 16.720703 16 C 16.51244 15.13419 16.219307 14.319268 15.941406 13.539062 C 15.441974 12.136906 15 10.840635 15 9.5 C 15 8.7735308 15.155201 8.0528077 15.410156 7.6210938 C 15.665112 7.1893799 15.885857 7 16.5 7 z M 5 14 L 7.0039062 14 C 7.0025742 14.059781 7 14.11937 7 14.179688 L 7 16 C 7 16.416666 6.8797552 16.601893 6.7109375 16.751953 C 6.5421198 16.902013 6.2777773 17 6 17 C 5.7222227 17 5.4578802 16.902013 5.2890625 16.751953 C 5.1202448 16.601893 5 16.416666 5 16 L 5 14 z M 16.996094 18 L 19 18 L 19 20 C 19 20.416666 18.879755 20.601893 18.710938 20.751953 C 18.542121 20.902013 18.277778 21 18 21 C 17.722222 21 17.45788 20.902013 17.289062 20.751953 C 17.120246 20.601893 17 20.416666 17 20 L 17 18.179688 C 17 18.11937 16.997426 18.059781 16.996094 18 z "/>
</svg>
