<?xml version="1.0" encoding="UTF-8" standalone="no"?>
<svg xmlns="http://www.w3.org/2000/svg" xmlns:svg="http://www.w3.org/2000/svg" width="24" height="24" viewBox="0 0 24 24" fill="currentColor" tags="vehicle,transport,logistics" categories="transportation">
  <path d="M 16 1 A 1 1 0 0 0 15 2 L 15 7.5859375 L 11.707031 4.2929688 A 1.0001 1.0001 0 0 0 11 4 L 8 4 C 6.3545455 4 5 5.3545455 5 7 L 5 11 C 3.3549904 11 2 12.35499 2 14 L 2 19 C 2 20.64501 3.3549904 22 5 22 C 6.3075037 22 7.4296392 21.144079 7.8359375 19.966797 A 1 1 0 0 0 8 20 L 10.173828 20 C 10.589521 21.160389 11.704641 22 13 22 C 14.307504 22 15.429639 21.144079 15.835938 19.966797 A 1.0001 1.0001 0 0 0 16 20 L 22 20 A 1 1 0 0 0 23 19 A 1 1 0 0 0 22 18 L 17 18 L 17 2 A 1 1 0 0 0 16 1 z M 8 6 L 10.585938 6 L 15 10.414062 L 15 16.773438 C 14.467398 16.293803 13.7656 16 13 16 C 11.704641 16 10.589521 16.839611 10.173828 18 L 8 18 A 1 1 0 0 0 7.8359375 18.033203 C 7.4296392 16.855921 6.3075037 16 5 16 C 4.6503494 16 4.3132186 16.061622 4 16.173828 L 4 14 C 4 13.435871 4.4358706 13 5 13 L 6 13 L 12 13 A 1 1 0 0 0 13 12 A 1 1 0 0 0 12 11 L 7 11 L 7 7 C 7 6.4454545 7.4454545 6 8 6 z M 5 18 C 5.5641294 18 6 18.435871 6 19 C 6 19.564129 5.5641294 20 5 20 C 4.4358706 20 4 19.564129 4 19 C 4 18.435871 4.4358706 18 5 18 z M 13 18 C 13.564129 18 14 18.435871 14 19 C 14 19.564129 13.564129 20 13 20 C 12.435871 20 12 19.564129 12 19 C 12 18.435871 12.435871 18 13 18 z "/>
</svg>
