<svg xmlns="http://www.w3.org/2000/svg" xmlns:svg="http://www.w3.org/2000/svg" width="24" height="24" viewBox="0 0 24 24" fill="currentColor" tags="document,page,file,layout,paper,stub,formality,structure,template,inputs,design,components" categories="development">
  <path d="M 4 1 A 1 1 0 0 0 3 2 A 1 1 0 0 0 4 3 L 14 3 A 1 1 0 0 0 15 2 A 1 1 0 0 0 14 1 L 4 1 z M 5 5 C 3.9092972 5 3 5.9092972 3 7 L 3 9 C 3 10.090703 3.9092972 11 5 11 L 19 11 C 20.090703 11 21 10.090703 21 9 L 21 7 C 21 5.9092972 20.090703 5 19 5 L 5 5 z M 5 7 L 19 7 L 19 9 L 5 9 L 5 7 z M 4 13 A 1 1 0 0 0 3 14 A 1 1 0 0 0 4 15 L 10 15 A 1 1 0 0 0 11 14 A 1 1 0 0 0 10 13 L 4 13 z M 5 17 C 3.9092972 17 3 17.909297 3 19 L 3 21 C 3 22.090703 3.9092972 23 5 23 L 19 23 C 20.090703 23 21 22.090703 21 21 L 21 19 C 21 17.909297 20.090703 17 19 17 L 5 17 z M 5 19 L 19 19 L 19 21 L 5 21 L 5 19 z "/>
</svg>
