<?xml version="1.0" encoding="UTF-8" standalone="no"?>
<svg xmlns="http://www.w3.org/2000/svg" xmlns:svg="http://www.w3.org/2000/svg" width="24" height="24" viewBox="0 0 24 24" fill="currentColor" tags="send,share,email" categories="mail">
  <path d="M 15 6 A 1 1 0 0 0 14.292969 6.2929688 A 1 1 0 0 0 14.292969 7.7070312 L 17.585938 11 L 8 11 C 5.2504263 11 3 13.250427 3 16 L 3 18 A 1 1 0 0 0 4 19 A 1 1 0 0 0 5 18 L 5 16 C 5 14.331305 6.3313045 13 8 13 L 17.585938 13 L 14.292969 16.292969 A 1 1 0 0 0 14.292969 17.707031 A 1 1 0 0 0 15.707031 17.707031 L 20.707031 12.707031 A 1.0001 1.0001 0 0 0 20.917969 12.390625 A 1 1 0 0 0 20.925781 12.376953 A 1.0001 1.0001 0 0 0 20.998047 12.009766 A 1 1 0 0 0 21 12 A 1 1 0 0 0 20.998047 11.966797 A 1.0001 1.0001 0 0 0 20.994141 11.912109 A 1 1 0 0 0 20.990234 11.853516 A 1 1 0 0 0 20.988281 11.84375 A 1.0001 1.0001 0 0 0 20.980469 11.810547 A 1 1 0 0 0 20.941406 11.667969 A 1 1 0 0 0 20.933594 11.642578 A 1.0001 1.0001 0 0 0 20.929688 11.632812 A 1 1 0 0 0 20.908203 11.585938 A 1.0001 1.0001 0 0 0 20.875 11.521484 A 1.0001 1.0001 0 0 0 20.865234 11.5 A 1 1 0 0 0 20.853516 11.482422 A 1.0001 1.0001 0 0 0 20.810547 11.416016 A 1.0001 1.0001 0 0 0 20.792969 11.390625 A 1 1 0 0 0 20.777344 11.371094 A 1.0001 1.0001 0 0 0 20.707031 11.292969 L 15.707031 6.2929688 A 1 1 0 0 0 15 6 z "/>
</svg>
