<?xml version="1.0" encoding="UTF-8" standalone="no"?>
<svg xmlns="http://www.w3.org/2000/svg" xmlns:svg="http://www.w3.org/2000/svg" width="24" height="24" viewBox="0 0 24 24" fill="currentColor" tags="send,share,email" categories="mail">
  <path d="M 15 6 A 1 1 0 0 0 14.292969 6.2929688 A 1 1 0 0 0 14.292969 7.7070312 L 17.585938 11 L 8 11 C 5.2504209 11 3 13.250421 3 16 L 3 18 A 1 1 0 0 0 4 19 A 1 1 0 0 0 5 18 L 5 16 C 5 14.331301 6.3313011 13 8 13 L 17.585938 13 L 14.292969 16.292969 A 1 1 0 0 0 14.292969 17.707031 A 1 1 0 0 0 15.707031 17.707031 L 20.697266 12.716797 A 1 1 0 0 0 20.707031 12.707031 A 1.0001 1.0001 0 0 0 20.785156 12.619141 A 1 1 0 0 0 20.792969 12.609375 A 1.0001 1.0001 0 0 0 20.861328 12.507812 A 1 1 0 0 0 20.865234 12.5 A 1.0001 1.0001 0 0 0 20.921875 12.388672 A 1 1 0 0 0 20.923828 12.382812 A 1 1 0 0 0 20.964844 12.257812 A 1.0001 1.0001 0 0 0 20.976562 12.205078 A 1.0001 1.0001 0 0 0 21 12 A 1.0001 1.0001 0 0 0 20.976562 11.794922 A 1.0001 1.0001 0 0 0 20.964844 11.742188 A 1 1 0 0 0 20.923828 11.617188 A 1.0001 1.0001 0 0 0 20.921875 11.611328 A 1 1 0 0 0 20.865234 11.5 A 1.0001 1.0001 0 0 0 20.861328 11.492188 A 1 1 0 0 0 20.792969 11.390625 A 1.0001 1.0001 0 0 0 20.785156 11.380859 A 1 1 0 0 0 20.707031 11.292969 L 20.697266 11.283203 L 15.707031 6.2929688 A 1 1 0 0 0 15 6 z "/>
</svg>
