<?xml version="1.0" encoding="UTF-8" standalone="no"?>
<svg xmlns="http://www.w3.org/2000/svg" xmlns:svg="http://www.w3.org/2000/svg" width="24" height="24" viewBox="0 0 24 24" fill="currentColor" tags="logo,design,tool" categories="brands,design">
  <path d="M 5 1 A 1.0001 1.0001 0 0 0 4.2929688 2.7070312 L 9.5859375 8 L 5 8 A 1.0001 1.0001 0 0 0 4 9 L 4 16 A 1 1 0 0 0 4.2929688 16.707031 L 11.292969 23.707031 A 1.0001 1.0001 0 0 0 13 23 L 13 17 L 19 17 A 1.0001 1.0001 0 0 0 19.707031 15.292969 L 14.414062 10 L 19 10 A 1.0001 1.0001 0 0 0 20 9 L 20 2 A 1.0001 1.0001 0 0 0 19 1 L 5 1 z M 7.4140625 3 L 18 3 L 18 8 L 12.414062 8 L 7.4140625 3 z M 6 10 L 11.585938 10 L 16.585938 15 L 12 15 L 6 15 L 6 10 z M 7.4140625 17 L 11 17 L 11 20.585938 L 7.4140625 17 z "/>
</svg>
