<?xml version="1.0" encoding="UTF-8" standalone="no"?>
<svg xmlns="http://www.w3.org/2000/svg" xmlns:svg="http://www.w3.org/2000/svg" width="24" height="24" viewBox="0 0 24 24" fill="currentColor" tags="logo,design,tool" categories="design,photography">
  
  <path d="M 6 1 A 1 1 0 0 0 5 2 L 5 5 L 2 5 A 1 1 0 0 0 1 6 A 1 1 0 0 0 2 7 L 5 7 L 5 17 L 2 17 A 1 1 0 0 0 1 18 A 1 1 0 0 0 2 19 L 5 19 L 5 22 A 1 1 0 0 0 6 23 A 1 1 0 0 0 7 22 L 7 19 L 17 19 L 17 22 A 1 1 0 0 0 18 23 A 1 1 0 0 0 19 22 L 19 19 L 22 19 A 1 1 0 0 0 23 18 A 1 1 0 0 0 22 17 L 19 17 L 19 7 L 22 7 A 1 1 0 0 0 23 6 A 1 1 0 0 0 22 5 L 19 5 L 19 2 A 1 1 0 0 0 18 1 A 1 1 0 0 0 17 2 L 17 5 L 7 5 L 7 2 A 1 1 0 0 0 6 1 z M 7 7 L 17 7 L 17 17 L 7 17 L 7 7 z "/>
</svg>
