<?xml version="1.0" encoding="UTF-8" standalone="no"?>
<svg xmlns="http://www.w3.org/2000/svg" xmlns:svg="http://www.w3.org/2000/svg" width="24" height="24" viewBox="0 0 24 24" fill="currentColor" tags="emoji,face,bad,sad,emotion" categories="emoji,account">
  <path d="M 12 1 C 5.9367124 1 1 5.9367124 1 12 C 1 18.063288 5.9367124 23 12 23 C 18.063288 23 23 18.063288 23 12 C 23 5.9367124 18.063288 1 12 1 z M 12 3 C 16.982407 3 21 7.0175926 21 12 C 21 16.982407 16.982407 21 12 21 C 7.0175926 21 3 16.982407 3 12 C 3 7.0175926 7.0175926 3 12 3 z M 9 8 A 1 1 0 0 0 8 9 A 1 1 0 0 0 9 10 L 9.0097656 10 A 1 1 0 0 0 10.009766 9 A 1 1 0 0 0 9.0097656 8 L 9 8 z M 15 8 A 1 1 0 0 0 14 9 A 1 1 0 0 0 15 10 L 15.009766 10 A 1 1 0 0 0 16.009766 9 A 1 1 0 0 0 15.009766 8 L 15 8 z M 12 13 C 8.9666667 13 7.1992189 15.400391 7.1992188 15.400391 A 1 1 0 0 0 7.4003906 16.800781 A 1 1 0 0 0 8.8007812 16.599609 C 8.8007812 16.599609 10.033333 15 12 15 C 13.966667 15 15.199219 16.599609 15.199219 16.599609 A 1 1 0 0 0 16.599609 16.800781 A 1 1 0 0 0 16.800781 15.400391 C 16.800781 15.400391 15.033333 13 12 13 z "/>
</svg>
