<?xml version="1.0" encoding="UTF-8" standalone="no"?>
<svg xmlns="http://www.w3.org/2000/svg" xmlns:svg="http://www.w3.org/2000/svg" width="24" height="24" viewBox="0 0 24 24" fill="currentColor" tags="filling-station,gas,petrol,tank" categories="transportation,navigation">
  <path d="M 6 1 C 4.3549904 1 3 2.3549904 3 4 L 3 21 A 1 1 0 0 0 2 22 A 1 1 0 0 0 3 23 L 15 23 A 1 1 0 0 0 16 22 A 1 1 0 0 0 15 21 L 15 14 L 16 14 C 16.564129 14 17 14.435871 17 15 L 17 17 C 17 18.64501 18.35499 20 20 20 C 21.64501 20 23 18.64501 23 17 L 23 9.8300781 C 23.000633 9.0317897 22.682792 8.2663694 22.117188 7.703125 L 22.115234 7.7011719 L 18.707031 4.2929688 A 1 1 0 0 0 17.292969 4.2929688 A 1 1 0 0 0 17.292969 5.7070312 L 20.703125 9.1171875 A 1.0001 1.0001 0 0 0 20.705078 9.1191406 C 20.89433 9.3073193 21.000211 9.5631624 21 9.8300781 L 21 17 C 21 17.564129 20.564129 18 20 18 C 19.435871 18 19 17.564129 19 17 L 19 15 C 19 13.35499 17.64501 12 16 12 L 15 12 L 15 4 C 15 2.3549904 13.64501 1 12 1 L 6 1 z M 6 3 L 12 3 C 12.564129 3 13 3.4358706 13 4 L 13 8 L 5 8 L 5 4 C 5 3.4358706 5.4358706 3 6 3 z M 5 10 L 13 10 L 13 13 L 13 21 L 5 21 L 5 10 z "/>
</svg>
