<svg xmlns="http://www.w3.org/2000/svg" xmlns:svg="http://www.w3.org/2000/svg" width="24" height="24" viewBox="0 0 24 24" fill="currentColor" tags="filling-station,gas,petrol,tank" categories="transportation,navigation">
  <path d="M 5 2 C 3.3549904 2 2 3.3549904 2 5 L 2 9 L 2 20 A 1 1 0 0 0 1 21 A 1 1 0 0 0 2 22 L 15 22 A 1 1 0 0 0 16 21 A 1 1 0 0 0 15 20 L 15 14 L 16 14 C 16.564129 14 17 14.435871 17 15 L 17 17 C 17 17.916666 17.379756 18.731441 17.960938 19.248047 C 18.542119 19.764653 19.277778 20 20 20 C 20.722222 20 21.457881 19.764653 22.039062 19.248047 C 22.620244 18.731441 23 17.916666 23 17 L 23 10.001953 C 23.000633 9.2027798 22.682014 8.4364641 22.115234 7.8730469 L 18.724609 4.3105469 A 1 1 0 0 0 18.025391 4 A 1 1 0 0 0 17.310547 4.2753906 A 1 1 0 0 0 17.275391 5.6894531 L 20.685547 9.2714844 A 1.0001 1.0001 0 0 0 20.705078 9.2910156 C 20.894382 9.4791914 21.000211 9.7350375 21 10.001953 L 21 17 C 21 17.416666 20.879756 17.601893 20.710938 17.751953 C 20.542119 17.902014 20.277778 18 20 18 C 19.722222 18 19.457881 17.902014 19.289062 17.751953 C 19.120244 17.601893 19 17.416666 19 17 L 19 15 C 19 13.35499 17.64501 12 16 12 L 15 12 L 15 9 L 15 5 C 15 3.3549904 13.64501 2 12 2 L 5 2 z M 5 4 L 12 4 C 12.564129 4 13 4.4358706 13 5 L 13 8 L 4 8 L 4 5 C 4 4.4358706 4.4358706 4 5 4 z M 4 10 L 13 10 L 13 20 L 4 20 L 4 10 z "/>
</svg>
