<?xml version="1.0" encoding="UTF-8" standalone="no"?>
<svg xmlns="http://www.w3.org/2000/svg" xmlns:svg="http://www.w3.org/2000/svg" width="24" height="24" viewBox="0 0 24 24" fill="currentColor" tags="programming,code,automation,maths" categories="development,shapes,maths">
  
  <path d="M 5 2 C 3.3553005 2 2 3.3553005 2 5 L 2 19 C 2 20.644699 3.3553005 22 5 22 L 19 22 C 20.644699 22 22 20.644699 22 19 L 22 5 C 22 3.3553005 20.644699 2 19 2 L 5 2 z M 5 4 L 19 4 C 19.571296 4 20 4.4287039 20 5 L 20 19 C 20 19.571296 19.571296 20 19 20 L 5 20 C 4.4287039 20 4 19.571296 4 19 L 4 5 C 4 4.4287039 4.4287039 4 5 4 z M 14.412109 5.9609375 C 13.391374 5.9664494 12.48623 6.297673 11.859375 6.9394531 C 11.087861 7.7293363 10.800781 8.8333357 10.800781 10 L 10.800781 10.199219 L 9 10.199219 A 1 1 0 0 0 8 11.199219 A 1 1 0 0 0 9 12.199219 L 10.800781 12.199219 L 10.800781 14.199219 C 10.800781 14.951069 10.638221 15.361587 10.423828 15.587891 C 10.209435 15.814193 9.8333317 16 9 16 A 1 1 0 0 0 8 17 A 1 1 0 0 0 9 18 C 10.166665 18 11.189395 17.686585 11.875 16.962891 C 12.560605 16.239195 12.800781 15.247365 12.800781 14.199219 L 12.800781 12.199219 L 14.699219 12.199219 A 1 1 0 0 0 15.699219 11.199219 A 1 1 0 0 0 14.699219 10.199219 L 12.800781 10.199219 L 12.800781 10 C 12.800781 9.1666683 13.012531 8.6210521 13.291016 8.3359375 C 13.569499 8.0508229 13.976935 7.8691026 14.865234 7.9902344 A 1 1 0 0 0 15.990234 7.1347656 A 1 1 0 0 0 15.134766 6.0097656 C 14.888822 5.9762279 14.647664 5.9596655 14.412109 5.9609375 z "/>
</svg>
