<svg xmlns="http://www.w3.org/2000/svg" xmlns:svg="http://www.w3.org/2000/svg" width="24" height="24" viewBox="0 0 24 24" fill="currentColor" tags="filter,hopper,add,create,new" categories="layout">
  <path d="M 3 2 C 2.1718984 2.000299 1.46686 2.5235849 1.171875 3.1875 C 0.87688997 3.8514151 0.96079682 4.7250933 1.515625 5.3398438 L 8.7421875 13.330078 C 8.9086411 13.514033 8.9998876 13.751915 9 14 L 9 20 C 8.9996477 20.755933 9.4292606 21.451161 10.105469 21.789062 L 12.105469 22.789062 C 13.398193 23.435039 15.000674 22.445138 15 21 L 15 14 C 15.000112 13.751915 15.091359 13.514033 15.257812 13.330078 A 1.0001 1.0001 0 0 0 15.259766 13.330078 L 16.476562 11.980469 A 1 1 0 0 0 16.40625 10.568359 A 1 1 0 0 0 14.992188 10.640625 L 13.775391 11.988281 C 13.276722 12.539324 13.000337 13.256849 13 14 L 13 21 L 11 20 L 11 14 C 10.999663 13.256849 10.723229 12.539328 10.224609 11.988281 L 3 4 L 13.353516 4 A 1 1 0 0 0 14.353516 3 A 1 1 0 0 0 13.353516 2 L 3 2 z M 19 2 A 1 1 0 0 0 18 3 L 18 5 L 16 5 A 1 1 0 0 0 15 6 A 1 1 0 0 0 16 7 L 18 7 L 18 9 A 1 1 0 0 0 19 10 A 1 1 0 0 0 20 9 L 20 7 L 22 7 A 1 1 0 0 0 23 6 A 1 1 0 0 0 22 5 L 20 5 L 20 3 A 1 1 0 0 0 19 2 z "/>
</svg>
