<?xml version="1.0" encoding="UTF-8" standalone="no"?>
<svg xmlns="http://www.w3.org/2000/svg" xmlns:svg="http://www.w3.org/2000/svg" width="24" height="24" viewBox="0 0 24 24" fill="currentColor" tags="filter,hopper" categories="layout">
  <path d="M 3 2 C 2.1718984 2.000299 1.46686 2.5235849 1.171875 3.1875 C 0.87688997 3.8514151 0.96079682 4.7250933 1.515625 5.3398438 L 8.7421875 13.330078 C 8.9086411 13.514033 8.9998876 13.751915 9 14 L 9 20 C 8.9996477 20.755933 9.4292606 21.451161 10.105469 21.789062 L 12.105469 22.789062 C 13.398193 23.435039 15.000674 22.445138 15 21 L 15 14 C 15.000112 13.751915 15.091359 13.514033 15.257812 13.330078 L 22.482422 5.3398438 C 23.036725 4.7256791 23.120266 3.8531528 22.826172 3.1894531 C 22.532077 2.5257535 21.829266 2.0019513 21.001953 2 A 1.0001 1.0001 0 0 0 21 2 L 3 2 z M 3 4 L 20.998047 4 L 13.775391 11.988281 C 13.276771 12.539328 13.000337 13.256849 13 14 L 13 21 L 11 20 L 11 14 C 10.999663 13.256849 10.723229 12.539328 10.224609 11.988281 L 3 4 z "/>
</svg>
