<?xml version="1.0" encoding="UTF-8" standalone="no"?>
<svg xmlns="http://www.w3.org/2000/svg" xmlns:svg="http://www.w3.org/2000/svg" width="24" height="24" viewBox="0 0 24 24" fill="currentColor" tags="filter,hopper,remove,delete" categories="layout">
  <path d="M 3 2 C 2.1718984 2.000299 1.46686 2.5235849 1.171875 3.1875 C 0.87688997 3.8514151 0.96079682 4.7250933 1.515625 5.3398438 L 8.7421875 13.330078 C 8.9086411 13.514033 8.9998876 13.751915 9 14 L 9 20 C 8.9996477 20.755933 9.4292606 21.451161 10.105469 21.789062 L 12.105469 22.789062 C 13.398193 23.435039 15.000674 22.445138 15 21 L 15 14 C 15.000112 13.751915 15.091359 13.514033 15.257812 13.330078 A 1.0001 1.0001 0 0 0 15.259766 13.328125 L 15.685547 12.855469 A 1 1 0 0 0 15.613281 11.443359 A 1 1 0 0 0 14.201172 11.515625 L 13.775391 11.988281 C 13.276728 12.539371 13.000337 13.256849 13 14 L 13 21 L 11 20 L 11 14 C 10.999663 13.256849 10.723229 12.539328 10.224609 11.988281 L 3 4 L 12.53125 4 A 1 1 0 0 0 13.53125 3 A 1 1 0 0 0 12.53125 2 L 3 2 z M 16.5 2.5 A 1 1 0 0 0 15.792969 2.7929688 A 1 1 0 0 0 15.792969 4.2070312 L 17.585938 6 L 15.792969 7.7929688 A 1 1 0 0 0 15.792969 9.2070312 A 1 1 0 0 0 17.207031 9.2070312 L 19 7.4140625 L 20.792969 9.2070312 A 1 1 0 0 0 22.207031 9.2070312 A 1 1 0 0 0 22.207031 7.7929688 L 20.414062 6 L 22.207031 4.2070312 A 1 1 0 0 0 22.207031 2.7929688 A 1 1 0 0 0 20.792969 2.7929688 L 19 4.5859375 L 17.207031 2.7929688 A 1 1 0 0 0 16.5 2.5 z "/>
</svg>
