<svg xmlns="http://www.w3.org/2000/svg" xmlns:svg="http://www.w3.org/2000/svg" width="24" height="24" viewBox="0 0 24 24" fill="currentColor" tags="carousel,pictures,images,scroll,swipe,album,portfolio" categories="layout,design,development,photography,multimedia">
  <path d="M 2 2 A 1 1 0 0 0 1 3 L 1 21 A 1 1 0 0 0 2 22 A 1 1 0 0 0 3 21 L 3 3 A 1 1 0 0 0 2 2 z M 8 2 C 6.3552972 2 5 3.3552972 5 5 L 5 19 C 5 20.644703 6.3552972 22 8 22 L 16 22 C 17.644703 22 19 20.644703 19 19 L 19 5 C 19 3.3552972 17.644703 2 16 2 L 8 2 z M 22 2 A 1 1 0 0 0 21 3 L 21 21 A 1 1 0 0 0 22 22 A 1 1 0 0 0 23 21 L 23 3 A 1 1 0 0 0 22 2 z M 8 4 L 16 4 C 16.571297 4 17 4.4287028 17 5 L 17 19 C 17 19.571297 16.571297 20 16 20 L 8 20 C 7.4287028 20 7 19.571297 7 19 L 7 5 C 7 4.4287028 7.4287028 4 8 4 z "/>
</svg>
