<svg xmlns="http://www.w3.org/2000/svg" xmlns:svg="http://www.w3.org/2000/svg" width="24" height="24" viewBox="0 0 24 24" fill="currentColor" tags="carousel,pictures,images,scroll,swipe,album,portfolio,history,versions,backup,time machine" categories="layout,design,development,photography,multimedia,files">
  <path d="M 12 2 C 10.355297 2 9 3.3552972 9 5 L 9 19 C 9 20.644703 10.355297 22 12 22 L 20 22 C 21.644703 22 23 20.644703 23 19 L 23 5 C 23 3.3552972 21.644703 2 20 2 L 12 2 z M 6 4 A 1 1 0 0 0 5 5 L 5 19 A 1 1 0 0 0 6 20 A 1 1 0 0 0 7 19 L 7 5 A 1 1 0 0 0 6 4 z M 12 4 L 20 4 C 20.571297 4 21 4.4287028 21 5 L 21 19 C 21 19.571297 20.571297 20 20 20 L 12 20 C 11.428703 20 11 19.571297 11 19 L 11 5 C 11 4.4287028 11.428703 4 12 4 z M 2 6 A 1 1 0 0 0 1 7 L 1 17 A 1 1 0 0 0 2 18 A 1 1 0 0 0 3 17 L 3 7 A 1 1 0 0 0 2 6 z "/>
</svg>
