<?xml version="1.0" encoding="UTF-8" standalone="no"?>
<svg xmlns="http://www.w3.org/2000/svg" xmlns:svg="http://www.w3.org/2000/svg" width="24" height="24" viewBox="0 0 24 24" fill="currentColor" tags="carousel,pictures,images,scroll,swipe,album,portfolio,history,versions,backup,time machine" categories="layout,design,development,photography,multimedia,files">
  <path d="M 7 1 A 1 1 0 0 0 6 2 A 1 1 0 0 0 7 3 L 17 3 A 1 1 0 0 0 18 2 A 1 1 0 0 0 17 1 L 7 1 z M 5 5 A 1 1 0 0 0 4 6 A 1 1 0 0 0 5 7 L 19 7 A 1 1 0 0 0 20 6 A 1 1 0 0 0 19 5 L 5 5 z M 5 9 C 3.3552972 9 2 10.355297 2 12 L 2 20 C 2 21.644703 3.3552972 23 5 23 L 19 23 C 20.644703 23 22 21.644703 22 20 L 22 12 C 22 10.355297 20.644703 9 19 9 L 5 9 z M 5 11 L 19 11 C 19.571297 11 20 11.428703 20 12 L 20 20 C 20 20.571297 19.571297 21 19 21 L 5 21 C 4.4287028 21 4 20.571297 4 20 L 4 12 C 4 11.428703 4.4287028 11 5 11 z "/>
</svg>
