<svg xmlns="http://www.w3.org/2000/svg" xmlns:svg="http://www.w3.org/2000/svg" width="24" height="24" viewBox="0 0 24 24" fill="currentColor" tags="direction,arrow,controller,navigation,button,move,pointer,arrowhead,console,game,gaming" categories="gaming,devices">
  <path d="M 10 1 C 8.9072751 1 8 1.9072751 8 3 L 8 5.171875 C 8.0001698 5.9670754 8.3165296 6.7307622 8.8789062 7.2929688 L 10.4375 8.8535156 C 11.291203 9.7082638 12.708797 9.7082638 13.5625 8.8535156 L 15.121094 7.2929688 C 15.68347 6.7307621 15.99983 5.9670754 16 5.171875 L 16 3 C 16 1.9072751 15.092725 1 14 1 L 10 1 z M 10 3 L 14 3 L 14 5.171875 C 13.999943 5.4374538 13.894852 5.691142 13.707031 5.8789062 L 12.146484 7.4394531 C 12.057224 7.5288241 11.942777 7.5288241 11.853516 7.4394531 L 10.292969 5.8789062 C 10.105148 5.691142 10.000057 5.4374538 10 5.171875 L 10 3 z M 3 8 C 1.9072751 8 1 8.9072751 1 10 L 1 14 C 1 15.092725 1.9072751 16 3 16 L 5.171875 16 C 5.9670754 15.99983 6.7307622 15.68347 7.2929688 15.121094 L 8.8535156 13.5625 L 8.8535156 13.560547 C 9.7064354 12.707157 9.7064354 11.292843 8.8535156 10.439453 L 8.8535156 10.4375 L 7.2929688 8.8789062 C 6.7307621 8.3165296 5.9670754 8.0001698 5.171875 8 L 3 8 z M 18.828125 8 C 18.032925 8.0001698 17.269238 8.3165296 16.707031 8.8789062 L 15.146484 10.439453 C 14.293108 11.2933 14.292194 12.709254 15.146484 13.5625 L 16.707031 15.121094 C 17.269238 15.68347 18.032925 15.99983 18.828125 16 L 21 16 C 22.092725 16 23 15.092725 23 14 L 23 10 C 23 8.9072751 22.092725 8 21 8 L 18.828125 8 z M 3 10 L 5.171875 10 C 5.4374538 10.000057 5.691142 10.105148 5.8789062 10.292969 L 7.4394531 11.853516 C 7.5288241 11.942776 7.5288241 12.057223 7.4394531 12.146484 L 5.8789062 13.707031 C 5.691142 13.894852 5.4374538 13.999943 5.171875 14 L 3 14 L 3 10 z M 18.828125 10 L 21 10 L 21 14 L 18.828125 14 C 18.562546 13.999943 18.308858 13.894852 18.121094 13.707031 L 16.560547 12.146484 C 16.471177 12.057224 16.471177 11.942777 16.560547 11.853516 L 18.121094 10.292969 C 18.308858 10.105148 18.562546 10.000057 18.828125 10 z M 12 14.505859 C 11.432656 14.505859 10.864351 14.71911 10.4375 15.146484 L 8.8789062 16.707031 C 8.3165296 17.269238 8.0001698 18.032925 8 18.828125 L 8 21 C 8 22.092725 8.9072751 23 10 23 L 14 23 C 15.092725 23 16 22.092725 16 21 L 16 18.828125 C 15.99983 18.032925 15.68347 17.269238 15.121094 16.707031 L 13.5625 15.146484 C 13.135649 14.71911 12.567344 14.505859 12 14.505859 z M 11.980469 16.494141 C 12.037651 16.487857 12.096275 16.510276 12.146484 16.560547 L 13.707031 18.121094 C 13.894852 18.308858 13.999943 18.562546 14 18.828125 L 14 21 L 10 21 L 10 18.828125 C 10.000057 18.562546 10.105148 18.308858 10.292969 18.121094 L 11.853516 16.560547 C 11.892567 16.521448 11.935994 16.499028 11.980469 16.494141 z "/>
</svg>
