<?xml version="1.0" encoding="UTF-8" standalone="no"?>
<svg xmlns="http://www.w3.org/2000/svg" xmlns:svg="http://www.w3.org/2000/svg" width="24" height="24" viewBox="0 0 24 24" fill="currentColor" tags="console" categories="gaming,devices">
  <path d="M 6.6796875 4 C 4.1262777 4.000595 1.9697134 5.9466676 1.7070312 8.4863281 L 1.7070312 8.4882812 C 1.7003712 8.5476342 1.6953694 8.5908261 1.6933594 8.6054688 A 1.0001 1.0001 0 0 0 1.6914062 8.6230469 C 1.6508045 8.9608717 1.4804468 10.394974 1.3183594 11.941406 C 1.1562719 13.487839 1 15.097603 1 16 C 1 18.197294 2.8027056 20 5 20 C 6.3333333 20 7.2070312 19.207031 7.7070312 18.707031 L 9.1210938 17.292969 C 9.308858 17.105148 9.5625462 17.000057 9.828125 17 L 14.171875 17 C 14.437454 17.000057 14.691142 17.105148 14.878906 17.292969 L 16.292969 18.707031 C 16.792969 19.207031 17.666667 20 19 20 C 21.197294 20 23 18.197294 23 16 C 23 15.097187 22.843729 13.485767 22.681641 11.939453 C 22.519552 10.393139 22.349185 8.9608103 22.308594 8.6230469 A 1.0001 1.0001 0 0 0 22.304688 8.6035156 C 22.303287 8.5935556 22.299889 8.5492736 22.292969 8.4882812 L 22.292969 8.4863281 C 22.030876 5.946176 19.874147 4.0006608 17.320312 4 L 6.6796875 4 z M 6.6796875 6 L 17.320312 6 C 18.866601 6.0004001 20.144627 7.1551764 20.302734 8.6933594 A 1.0001 1.0001 0 0 0 20.304688 8.7070312 C 20.307887 8.7339273 20.311789 8.7920073 20.324219 8.8808594 C 20.365919 9.2278877 20.534148 10.629566 20.693359 12.148438 C 20.853476 13.676372 21 15.357813 21 16 C 21 17.116414 20.116414 18 19 18 C 18.333333 18 18.207031 17.792969 17.707031 17.292969 L 16.292969 15.878906 C 15.730762 15.31653 14.967075 15.00017 14.171875 15 L 9.828125 15 C 9.0329246 15.00017 8.269238 15.31653 7.7070312 15.878906 L 6.2929688 17.292969 C 5.7929688 17.792969 5.6666667 18 5 18 C 3.8835859 18 3 17.116414 3 16 C 3 15.358397 3.1464781 13.676504 3.3066406 12.148438 C 3.4659469 10.628539 3.634215 9.2248231 3.6757812 8.8789062 L 3.6777344 8.8613281 C 3.6870144 8.7896061 3.6920755 8.7331355 3.6953125 8.7050781 A 1.0001 1.0001 0 0 0 3.6972656 8.6933594 C 3.8557392 7.1554802 5.1336654 6.0003602 6.6796875 6 z M 8 8 A 1 1 0 0 0 7 9 L 7 10 L 6 10 A 1 1 0 0 0 5 11 A 1 1 0 0 0 6 12 L 7 12 L 7 13 A 1 1 0 0 0 8 14 A 1 1 0 0 0 9 13 L 9 12 L 10 12 A 1 1 0 0 0 11 11 A 1 1 0 0 0 10 10 L 9 10 L 9 9 A 1 1 0 0 0 8 8 z M 18 9 A 1 1 0 0 0 17 10 A 1 1 0 0 0 18 11 L 18.009766 11 A 1 1 0 0 0 19.009766 10 A 1 1 0 0 0 18.009766 9 L 18 9 z M 15 11 A 1 1 0 0 0 14 12 A 1 1 0 0 0 15 13 L 15.009766 13 A 1 1 0 0 0 16.009766 12 A 1 1 0 0 0 15.009766 11 L 15 11 z "/>
</svg>
