<?xml version="1.0" encoding="UTF-8" standalone="no"?>
<svg xmlns="http://www.w3.org/2000/svg" xmlns:svg="http://www.w3.org/2000/svg" width="24" height="24" viewBox="0 0 24 24" fill="currentColor" tags="projects,manage,overview,roadmap,plan,intentions,timeline,deadline,date,event,range,period,productivity,work,agile,code,coding" categories="charts,time,development,design">
  <path d="M 8 5 A 1 1 0 0 0 7 6 A 1 1 0 0 0 8 7 L 18 7 A 1 1 0 0 0 19 6 A 1 1 0 0 0 18 5 L 8 5 z M 6 11 A 1 1 0 0 0 5 12 A 1 1 0 0 0 6 13 L 15 13 A 1 1 0 0 0 16 12 A 1 1 0 0 0 15 11 L 6 11 z M 11 17 A 1 1 0 0 0 10 18 A 1 1 0 0 0 11 19 L 18 19 A 1 1 0 0 0 19 18 A 1 1 0 0 0 18 17 L 11 17 z "/>
</svg>
