<?xml version="1.0" encoding="UTF-8" standalone="no"?>
<svg xmlns="http://www.w3.org/2000/svg" xmlns:svg="http://www.w3.org/2000/svg" width="24" height="24" viewBox="0 0 24 24" fill="currentColor" tags="dashboard,dial,meter,speed,pressure,measure,level" categories="account,transportation,sports,science">
  
  <path d="M 11.957031 0.9765625 C 8.0832125 0.94017337 4.7076436 3.0321147 2.765625 6.0117188 C 0.17626695 9.9845242 0.057581456 15.651331 4.203125 19.796875 C 8.3486686 23.942419 14.015476 23.823733 17.988281 21.234375 C 21.961087 18.645017 24.357415 13.506901 22.232422 8.0371094 A 1 1 0 0 0 20.9375 7.46875 A 1 1 0 0 0 20.367188 8.7617188 C 22.162328 13.382458 20.187266 17.413759 16.896484 19.558594 C 13.605704 21.703429 9.1181762 21.883802 5.6171875 18.382812 C 2.1161988 14.881824 2.2965717 10.394297 4.4414062 7.1035156 C 6.5862409 3.8127345 10.617542 1.8376729 15.238281 3.6328125 A 1 1 0 0 0 16.53125 3.0625 A 1 1 0 0 0 15.962891 1.7675781 C 14.595443 1.23633 13.248305 0.98869221 11.957031 0.9765625 z M 19 4 A 1 1 0 0 0 18.292969 4.2929688 L 13.289062 9.296875 C 12.897383 9.107873 12.460495 9 12 9 C 10.354994 9 9 10.354994 9 12 C 9 13.645006 10.354994 15 12 15 C 13.645006 15 15 13.645006 15 12 C 15 11.539505 14.892127 11.102617 14.703125 10.710938 L 19.707031 5.7070312 A 1 1 0 0 0 19.707031 4.2929688 A 1 1 0 0 0 19 4 z M 12 11 C 12.235924 11 12.448628 11.077064 12.617188 11.207031 A 1 1 0 0 0 12.693359 11.306641 A 1 1 0 0 0 12.792969 11.382812 C 12.922936 11.551372 13 11.764076 13 12 C 13 12.564128 12.564128 13 12 13 C 11.435872 13 11 12.564128 11 12 C 11 11.435872 11.435872 11 12 11 z "/>
</svg>
