<svg xmlns="http://www.w3.org/2000/svg" xmlns:svg="http://www.w3.org/2000/svg" width="24" height="24" viewBox="0 0 24 24" fill="currentColor" tags="dashboard,dial,meter,speed,pressure,measure,level" categories="transportation,sports,science">
  <path d="M 12 3 C 3.5801491 3 -1.7357859 12.208237 2.4746094 19.5 A 1 1 0 0 0 3.8398438 19.865234 A 1 1 0 0 0 4.2050781 18.5 C 0.71643872 12.458208 5.0235301 5 12 5 C 18.97647 5 23.283561 12.458208 19.794922 18.5 A 1 1 0 0 0 20.160156 19.865234 A 1 1 0 0 0 21.525391 19.5 C 25.735786 12.208237 20.419851 3 12 3 z M 16 9 A 1 1 0 0 0 15.292969 9.2929688 L 11.292969 13.292969 A 1 1 0 0 0 11.292969 14.707031 A 1 1 0 0 0 12.707031 14.707031 L 16.707031 10.707031 A 1 1 0 0 0 16.707031 9.2929688 A 1 1 0 0 0 16 9 z "/>
</svg>
