<?xml version="1.0" encoding="UTF-8" standalone="no"?>
<svg xmlns="http://www.w3.org/2000/svg" xmlns:svg="http://www.w3.org/2000/svg" width="24" height="24" viewBox="0 0 24 24" fill="currentColor" tags="hammer,mallet" categories="navigation,tools">
  <path d="M 14 1 A 1 1 0 0 0 13.292969 1.2929688 L 8.2929688 6.2929688 L 7.2929688 7.2929688 A 1 1 0 0 0 7.2929688 8.7070312 A 1 1 0 0 0 8.7070312 8.7070312 L 9 8.4140625 L 10.085938 9.5 L 1.9101562 17.671875 A 1.0001 1.0001 0 0 0 1.9101562 17.673828 C 1.2334092 18.350801 0.91530163 19.226487 0.96289062 20.033203 C 1.0104796 20.83992 1.3798234 21.555782 1.9121094 22.087891 C 2.4443953 22.619999 3.1600645 22.987836 3.9667969 23.035156 C 4.7735292 23.082476 5.6494248 22.764863 6.3261719 22.087891 L 14.5 13.914062 L 15.585938 15 L 15.292969 15.292969 A 1 1 0 0 0 15.292969 16.707031 A 1 1 0 0 0 16.707031 16.707031 L 17.707031 15.707031 L 22.707031 10.707031 A 1 1 0 0 0 22.707031 9.2929688 A 1 1 0 0 0 21.292969 9.2929688 L 21 9.5859375 L 14.414062 3 L 14.707031 2.7070312 A 1 1 0 0 0 14.707031 1.2929688 A 1 1 0 0 0 14 1 z M 13 4.4140625 L 19.585938 11 L 17 13.585938 L 15.207031 11.792969 L 12.207031 8.7929688 L 10.414062 7 L 13 4.4140625 z M 11.5 10.914062 L 13.085938 12.5 L 4.9121094 20.673828 C 4.5888569 20.997188 4.3399393 21.054076 4.0839844 21.039062 C 3.8280294 21.02405 3.5441359 20.89172 3.3261719 20.673828 C 3.1082078 20.455937 2.9760362 20.171966 2.9609375 19.916016 C 2.9458385 19.660066 3.0029195 19.411251 3.3261719 19.087891 L 11.5 10.914062 z "/>
</svg>
