<?xml version="1.0" encoding="UTF-8" standalone="no"?>
<svg xmlns="http://www.w3.org/2000/svg" xmlns:svg="http://www.w3.org/2000/svg" width="24" height="24" viewBox="0 0 24 24" fill="currentColor" tags="hammer,mallet" categories="navigation,tools">
  <path d="M 14 1 A 1 1 0 0 0 13.292969 1.2929688 L 12.292969 2.2929688 L 7.2929688 7.2929688 A 1 1 0 0 0 7.2929688 8.7070312 A 1 1 0 0 0 8.7070312 8.7070312 L 9 8.4140625 L 10.085938 9.5 L 2.7929688 16.792969 C 2.1161922 17.469745 1.7982538 18.345708 1.8457031 19.152344 C 1.8931521 19.95898 2.260834 20.674896 2.7929688 21.207031 C 3.3251034 21.739166 4.0410203 22.106848 4.8476562 22.154297 C 5.6542923 22.201747 6.5302548 21.883808 7.2070312 21.207031 L 14.5 13.914062 L 15.585938 15 L 15.292969 15.292969 A 1 1 0 0 0 15.292969 16.707031 A 1 1 0 0 0 16.707031 16.707031 L 21.707031 11.707031 L 22.707031 10.707031 A 1 1 0 0 0 22.707031 9.2929688 A 1 1 0 0 0 21.292969 9.2929688 L 21 9.5859375 L 14.414062 3 L 14.707031 2.7070312 A 1 1 0 0 0 14.707031 1.2929688 A 1 1 0 0 0 14 1 z M 13 4.4140625 L 19.585938 11 L 17 13.585938 L 10.414062 7 L 13 4.4140625 z M 11.5 10.914062 L 13.085938 12.5 L 5.7929688 19.792969 C 5.4697457 20.116192 5.2207076 20.173254 4.9648438 20.158203 C 4.7089799 20.143152 4.4248965 20.010834 4.2070312 19.792969 C 3.989166 19.575104 3.8568477 19.29102 3.8417969 19.035156 C 3.826746 18.779292 3.8838082 18.530254 4.2070312 18.207031 L 11.5 10.914062 z "/>
</svg>
