<?xml version="1.0" encoding="UTF-8" standalone="no"?>
<svg xmlns="http://www.w3.org/2000/svg" xmlns:svg="http://www.w3.org/2000/svg" width="24" height="24" viewBox="0 0 24 24" fill="currentColor" tags="diamond,crystal,ruby,jewellery,price,special,present,gift,ring,wedding,proposal,marriage,rubygems" categories="gaming,development,finance">
  <path d="M 6 2 A 1.0001 1.0001 0 0 0 5.1679688 2.4453125 L 1.171875 8.4394531 L 1.1679688 8.4453125 A 1.0001 1.0001 0 0 0 1.1582031 8.4628906 A 1 1 0 0 0 1.1054688 8.5546875 A 1.0001 1.0001 0 0 0 1.0898438 8.5878906 A 1 1 0 0 0 1.0507812 8.6894531 A 1.0001 1.0001 0 0 0 1.046875 8.6992188 A 1 1 0 0 0 1.0195312 8.8164062 A 1.0001 1.0001 0 0 0 1.0136719 8.8476562 A 1 1 0 0 0 1.0058594 8.9179688 A 1.0001 1.0001 0 0 0 1 8.9863281 A 1 1 0 0 0 1 9 A 1 1 0 0 0 1.0058594 9.0898438 A 1.0001 1.0001 0 0 0 1.0058594 9.1035156 A 1 1 0 0 0 1.0292969 9.2382812 A 1 1 0 0 0 1.0605469 9.3378906 A 1.0001 1.0001 0 0 0 1.0742188 9.3769531 A 1 1 0 0 0 1.1015625 9.4316406 A 1.0001 1.0001 0 0 0 1.1308594 9.4941406 A 1 1 0 0 0 1.1347656 9.5 A 1.0001 1.0001 0 0 0 1.2070312 9.609375 L 11.207031 22.609375 A 1.0001 1.0001 0 0 0 11.25 22.658203 A 1.0001 1.0001 0 0 0 11.251953 22.660156 A 1.0001 1.0001 0 0 0 11.253906 22.662109 A 1.0001 1.0001 0 0 0 11.341797 22.75 A 1.0001 1.0001 0 0 0 11.365234 22.769531 A 1.0001 1.0001 0 0 0 11.449219 22.832031 A 1.0001 1.0001 0 0 0 11.484375 22.853516 A 1.0001 1.0001 0 0 0 11.583984 22.90625 A 1.0001 1.0001 0 0 0 11.595703 22.912109 A 1.0001 1.0001 0 0 0 11.714844 22.957031 A 1.0001 1.0001 0 0 0 11.728516 22.960938 A 1.0001 1.0001 0 0 0 11.859375 22.988281 A 1.0001 1.0001 0 0 0 11.861328 22.988281 A 1.0001 1.0001 0 0 0 12.140625 22.988281 A 1.0001 1.0001 0 0 0 12.142578 22.988281 A 1.0001 1.0001 0 0 0 12.515625 22.853516 A 1.0001 1.0001 0 0 0 12.550781 22.832031 A 1.0001 1.0001 0 0 0 12.748047 22.660156 A 1.0001 1.0001 0 0 0 12.75 22.658203 A 1.0001 1.0001 0 0 0 12.792969 22.609375 L 22.792969 9.609375 A 1.0001 1.0001 0 0 0 22.865234 9.5 A 1 1 0 0 0 22.869141 9.4941406 A 1.0001 1.0001 0 0 0 22.923828 9.3828125 A 1 1 0 0 0 22.929688 9.3691406 A 1.0001 1.0001 0 0 0 22.939453 9.3378906 A 1 1 0 0 0 22.970703 9.2382812 A 1 1 0 0 0 22.994141 9.1035156 A 1 1 0 0 0 22.994141 9.1015625 A 1.0001 1.0001 0 0 0 22.994141 9.0898438 A 1 1 0 0 0 23 9 A 1 1 0 0 0 23 8.9863281 A 1.0001 1.0001 0 0 0 22.994141 8.9179688 A 1 1 0 0 0 22.986328 8.8476562 A 1 1 0 0 0 22.984375 8.828125 A 1.0001 1.0001 0 0 0 22.980469 8.8164062 A 1 1 0 0 0 22.953125 8.6992188 A 1 1 0 0 0 22.951172 8.6933594 A 1.0001 1.0001 0 0 0 22.949219 8.6894531 A 1 1 0 0 0 22.910156 8.5878906 A 1 1 0 0 0 22.900391 8.5644531 A 1.0001 1.0001 0 0 0 22.894531 8.5546875 A 1 1 0 0 0 22.841797 8.4628906 A 1 1 0 0 0 22.832031 8.4453125 L 22.828125 8.4394531 L 18.832031 2.4453125 A 1.0001 1.0001 0 0 0 18 2 L 6 2 z M 6.5351562 4 L 9.3828125 4 L 7.3828125 8 L 3.8691406 8 L 6.5351562 4 z M 11.617188 4 L 12.382812 4 L 14.382812 8 L 9.6171875 8 L 11.617188 4 z M 14.617188 4 L 17.464844 4 L 20.130859 8 L 16.617188 8 L 14.617188 4 z M 4.03125 10 L 7.2617188 10 L 9.4160156 17 L 4.03125 10 z M 9.3554688 10 L 14.644531 10 L 12 18.599609 L 9.3554688 10 z M 16.738281 10 L 19.96875 10 L 14.583984 17 L 16.738281 10 z "/>
</svg>
