<?xml version="1.0" encoding="UTF-8" standalone="no"?>
<svg xmlns="http://www.w3.org/2000/svg" xmlns:svg="http://www.w3.org/2000/svg" width="24" height="24" viewBox="0 0 24 24" fill="currentColor" tags="diamond,crystal,ruby,jewellery,price,special,present,gift,ring,wedding,proposal,marriage,rubygems" categories="gaming,money,development">
  <path d="M 6 2 A 1.0001 1.0001 0 0 0 5.1679688 2.4453125 L 1.1679688 8.4453125 A 1.0001 1.0001 0 0 0 1.1347656 8.53125 A 1 1 0 0 0 1.0527344 8.734375 A 1.0001 1.0001 0 0 0 1.0175781 8.9082031 A 1 1 0 0 0 1 9 A 1 1 0 0 0 1.0253906 9.1289062 A 1.0001 1.0001 0 0 0 1.0605469 9.3027344 A 1 1 0 0 0 1.1542969 9.5 A 1.0001 1.0001 0 0 0 1.2070312 9.609375 L 11.207031 22.609375 A 1.0001 1.0001 0 0 0 11.236328 22.634766 A 1.0001 1.0001 0 0 0 11.435547 22.796875 A 1.0001 1.0001 0 0 0 11.578125 22.900391 A 1.0001 1.0001 0 0 0 11.904297 22.976562 A 1.0001 1.0001 0 0 0 12.095703 22.976562 A 1.0001 1.0001 0 0 0 12.421875 22.900391 A 1.0001 1.0001 0 0 0 12.564453 22.796875 A 1.0001 1.0001 0 0 0 12.763672 22.634766 A 1.0001 1.0001 0 0 0 12.792969 22.609375 L 22.792969 9.609375 A 1.0001 1.0001 0 0 0 22.921875 9.3847656 A 1.0001 1.0001 0 0 0 22.923828 9.3828125 A 1 1 0 0 0 22.923828 9.3789062 A 1.0001 1.0001 0 0 0 22.998047 9.0058594 A 1.0001 1.0001 0 0 0 23 9 A 1 1 0 0 0 23 8.9921875 A 1.0001 1.0001 0 0 0 22.996094 8.9257812 A 1 1 0 0 0 22.96875 8.7539062 A 1 1 0 0 0 22.947266 8.6835938 A 1.0001 1.0001 0 0 0 22.929688 8.6328125 A 1 1 0 0 0 22.908203 8.5839844 A 1.0001 1.0001 0 0 0 22.875 8.5195312 A 1.0001 1.0001 0 0 0 22.865234 8.5 A 1 1 0 0 0 22.853516 8.4824219 A 1.0001 1.0001 0 0 0 22.832031 8.4453125 L 18.832031 2.4453125 A 1.0001 1.0001 0 0 0 18 2 L 6 2 z M 6.5351562 4 L 9.3828125 4 L 7.3828125 8 L 3.8691406 8 L 6.5351562 4 z M 11.617188 4 L 12.382812 4 L 14.382812 8 L 9.6171875 8 L 11.617188 4 z M 14.617188 4 L 17.464844 4 L 20.130859 8 L 16.617188 8 L 14.617188 4 z M 4.03125 10 L 7.2617188 10 L 9.4160156 17 L 4.03125 10 z M 9.3554688 10 L 14.644531 10 L 12 18.599609 L 9.3554688 10 z M 16.738281 10 L 19.96875 10 L 14.583984 17 L 16.738281 10 z "/>
</svg>
