<?xml version="1.0" encoding="UTF-8" standalone="no"?>
<svg xmlns="http://www.w3.org/2000/svg" xmlns:svg="http://www.w3.org/2000/svg" width="24" height="24" viewBox="0 0 24 24" fill="currentColor" tags="diamond,crystal,ruby,jewellery,price,special,present,gift,ring,wedding,proposal,marriage,rubygems" categories="gaming,development,finance">
  <path d="M 7 2 C 6.0547647 2.0001161 5.1633795 2.4478286 4.5976562 3.2050781 L 1.5996094 7.1992188 C 1.2172979 7.7086734 1.0192651 8.3134039 1.0039062 8.921875 A 1 1 0 0 0 1 9 A 1 1 0 0 0 1.0039062 9.0800781 C 1.0201496 9.6749525 1.211108 10.266698 1.578125 10.769531 L 1.5800781 10.771484 L 1.5800781 10.773438 L 9.5644531 21.751953 C 10.107621 22.506941 10.933638 22.914947 11.78125 22.974609 A 1.0001 1.0001 0 0 0 12.220703 22.974609 C 13.066063 22.914354 13.888726 22.507417 14.431641 21.755859 L 14.433594 21.753906 L 22.419922 10.773438 L 22.419922 10.771484 C 22.787543 10.269173 22.979286 9.6786614 22.996094 9.0839844 A 1 1 0 0 0 23 9 A 1 1 0 0 0 22.996094 8.9179688 C 22.980072 8.310685 22.781766 7.7078736 22.400391 7.1992188 L 19.400391 3.1992188 C 18.834309 2.4445088 17.943395 2 17 2 L 7 2 z M 7 4 L 9 4 L 7.3320312 8 L 3.5 8 L 6.1972656 4.4023438 A 1.0001 1.0001 0 0 0 6.1992188 4.4023438 C 6.3885028 4.1489816 6.6837412 4.0000388 7 4 z M 11.167969 4 L 12.832031 4 L 14.5 8 L 9.5 8 L 11.167969 4 z M 15 4 L 17 4 C 17.315634 4 17.611401 4.1478831 17.800781 4.4003906 L 20.5 8 L 16.667969 8 L 15 4 z M 3.4902344 10 L 7.2617188 10 L 10.027344 18.988281 L 3.4902344 10 z M 9.3554688 10 L 14.644531 10 L 12 18.599609 L 9.3554688 10 z M 16.738281 10 L 20.509766 10 L 13.972656 18.988281 L 16.738281 10 z "/>
</svg>
