<?xml version="1.0" encoding="UTF-8" standalone="no"?>
<svg xmlns="http://www.w3.org/2000/svg" xmlns:svg="http://www.w3.org/2000/svg" width="24" height="24" viewBox="0 0 24 24" fill="currentColor" tags="currency,money,payment" categories="finance">
  <path d="M 9 2 A 1 1 0 0 0 8 3 L 8 5.7519531 C 6.8593718 6.258746 5.8013371 7.0413714 4.9179688 8.1230469 C 1.7905948 11.952485 2.7691821 17.180063 6.0507812 20 L 4 20 A 1 1 0 0 0 3 21 A 1 1 0 0 0 4 22 L 20 22 A 1 1 0 0 0 21 21 A 1 1 0 0 0 20 20 L 11.5 20 C 5.9507283 19.998867 2.9569652 13.686425 6.4667969 9.3886719 C 6.9280734 8.8238434 7.4459129 8.3616826 8 7.9980469 L 8 12 A 1 1 0 0 0 9 13 A 1 1 0 0 0 10 12 L 10 7.1308594 C 10.659845 6.9718006 11.335073 6.9219433 12 6.9726562 L 12 12 A 1 1 0 0 0 13 13 A 1 1 0 0 0 14 12 L 14 7.4472656 C 15.86564 8.2168793 17.393588 9.859928 17.871094 12.199219 A 1 1 0 0 0 19.050781 12.980469 A 1 1 0 0 0 19.830078 11.800781 C 19.158184 8.5091848 16.787066 6.2780265 14 5.4238281 L 14 3 A 1 1 0 0 0 13 2 A 1 1 0 0 0 12 3 L 12 5.0546875 C 11.7454 5.0376248 11.489905 5.0317636 11.234375 5.0371094 C 10.821807 5.0457404 10.409146 5.0838946 10 5.1523438 L 10 3 A 1 1 0 0 0 9 2 z "/>
</svg>
