<?xml version="1.0" encoding="UTF-8" standalone="no"?>
<svg xmlns="http://www.w3.org/2000/svg" xmlns:svg="http://www.w3.org/2000/svg" width="24" height="24" viewBox="0 0 24 24" fill="currentColor" tags="present,box,birthday,party" categories="gaming,account">
  <path d="M 7.4902344 2.0019531 C 6.4113874 2.0048314 5.4749296 2.4444637 4.8769531 3.1171875 C 4.2770151 3.792118 4 4.6527795 4 5.5 C 4 6.0100172 4.1017099 6.523692 4.3125 7 L 4 7 C 2.9092994 7 2 7.9092994 2 9 L 2 11 C 2 12.090701 2.9092994 13 4 13 L 4 19 C 4 20.645006 5.3549936 22 7 22 L 17 22 C 18.645006 22 20 20.645006 20 19 L 20 13 C 21.090701 13 22 12.090701 22 11 L 22 9 C 22 7.9092994 21.090701 7 20 7 L 19.6875 7 C 19.89829 6.523692 20 6.0100172 20 5.5 C 20 4.6527795 19.722984 3.792118 19.123047 3.1171875 C 18.52507 2.4444637 17.588613 2.0048314 16.509766 2.0019531 C 15.185797 1.9817384 13.970169 2.6457753 13.044922 3.6738281 C 12.642877 4.1205447 12.308 4.6668333 12 5.2441406 C 11.692 4.6668333 11.357123 4.1205447 10.955078 3.6738281 C 10.029831 2.6457753 8.8142022 1.9817384 7.4902344 2.0019531 z M 7.5 4 A 1.0001 1.0001 0 0 0 7.5175781 4 C 8.1646313 3.988726 8.8245524 4.2959438 9.46875 5.0117188 C 9.9085154 5.5003472 10.31441 6.1775648 10.636719 7 L 7.5 7 C 6.9166683 7 6.6064401 6.817255 6.3730469 6.5546875 C 6.1396536 6.29212 6 5.9027771 6 5.5 C 6 5.0972229 6.1396536 4.70788 6.3730469 4.4453125 C 6.6064401 4.182745 6.9166683 4 7.5 4 z M 16.482422 4 A 1.0001 1.0001 0 0 0 16.5 4 C 17.083331 4 17.39356 4.182745 17.626953 4.4453125 C 17.860347 4.70788 18 5.0972229 18 5.5 C 18 5.9027771 17.860347 6.29212 17.626953 6.5546875 C 17.39356 6.817255 17.083331 7 16.5 7 L 13.363281 7 C 13.68559 6.1775648 14.091485 5.5003472 14.53125 5.0117188 C 15.175447 4.2959438 15.835369 3.9887265 16.482422 4 z M 4 9 L 7.5 9 L 11 9 L 11 11 L 4 11 L 4 9 z M 13 9 L 16.5 9 L 20 9 L 20 11 L 13 11 L 13 9 z M 6 13 L 11 13 L 11 20 L 7 20 C 6.4358718 20 6 19.564128 6 19 L 6 13 z M 13 13 L 18 13 L 18 19 C 18 19.564128 17.564128 20 17 20 L 13 20 L 13 13 z "/>
</svg>
