<svg xmlns="http://www.w3.org/2000/svg" xmlns:svg="http://www.w3.org/2000/svg" width="24" height="24" viewBox="0 0 24 24" fill="currentColor" tags="present,box,birthday,party" categories="gaming,account">
  <path d="M 7.4902344 2.0019531 C 6.4113852 2.0048314 5.4749308 2.4444623 4.8769531 3.1171875 C 4.2770139 3.7921194 4 4.6527779 4 5.5 C 4 6.009585 4.1001231 6.5240309 4.3105469 7 L 4 7 C 2.9092972 7 2 7.9092972 2 9 L 2 11 C 2 12.090703 2.9092972 13 4 13 L 4 19 C 4 20.64501 5.3549904 22 7 22 L 17 22 C 18.64501 22 20 20.64501 20 19 L 20 13 C 21.090703 13 22 12.090703 22 11 L 22 9 C 22 7.9092972 21.090703 7 20 7 L 19.689453 7 C 19.899877 6.5240309 20 6.009585 20 5.5 C 20 4.6527779 19.722986 3.7921194 19.123047 3.1171875 C 18.525069 2.4444623 17.588615 2.0048314 16.509766 2.0019531 C 15.185795 1.9817384 13.970171 2.6457731 13.044922 3.6738281 C 12.642876 4.1205456 12.308 4.6668322 12 5.2441406 C 11.692 4.6668322 11.357124 4.1205456 10.955078 3.6738281 C 10.029829 2.6457731 8.8142049 1.9817384 7.4902344 2.0019531 z M 7.5 4 A 1.0001 1.0001 0 0 0 7.5175781 4 C 8.1646325 3.988726 8.8245511 4.2959422 9.46875 5.0117188 C 9.9090228 5.5009107 10.318142 6.1762762 10.640625 7 L 7.5 7 C 6.9166671 7 6.6064406 6.8172556 6.3730469 6.5546875 C 6.1396531 6.2921194 6 5.9027779 6 5.5 C 6 5.0972221 6.1396531 4.7078806 6.3730469 4.4453125 C 6.6064406 4.1827444 6.9166671 4 7.5 4 z M 16.482422 4 A 1.0001 1.0001 0 0 0 16.5 4 C 17.083333 4 17.393559 4.1827444 17.626953 4.4453125 C 17.860347 4.7078806 18 5.0972221 18 5.5 C 18 5.9027779 17.860347 6.2921194 17.626953 6.5546875 C 17.393559 6.8172556 17.083333 7 16.5 7 L 13.359375 7 C 13.681858 6.1762762 14.090977 5.5009107 14.53125 5.0117188 C 15.175449 4.2959422 15.835367 3.9887265 16.482422 4 z M 4 9 L 7.5 9 L 11 9 L 11 11 L 4 11 L 4 9 z M 13 9 L 16.5 9 L 20 9 L 20 11 L 13 11 L 13 9 z M 6 13 L 11 13 L 11 20 L 7 20 C 6.4358706 20 6 19.564129 6 19 L 6 13 z M 13 13 L 18 13 L 18 19 C 18 19.564129 17.564129 20 17 20 L 13 20 L 13 13 z "/>
</svg>
