<?xml version="1.0" encoding="UTF-8" standalone="no"?>
<svg xmlns="http://www.w3.org/2000/svg" xmlns:svg="http://www.w3.org/2000/svg" width="24" height="24" viewBox="0 0 24 24" fill="currentColor" tags="code,version control,open" categories="development">
  <path d="M 6 2 C 3.8027056 2 2 3.8027056 2 6 C 2 7.8524716 3.2811752 9.4233216 5 9.8710938 L 5 21 A 1 1 0 0 0 6 22 A 1 1 0 0 0 7 21 L 7 9.8710938 C 8.7188248 9.4233216 10 7.8524716 10 6 C 10 3.8027056 8.1972944 2 6 2 z M 6 4 C 7.1164141 4 8 4.8835859 8 6 C 8 7.1164141 7.1164141 8 6 8 C 4.8835859 8 4 7.1164141 4 6 C 4 4.8835859 4.8835859 4 6 4 z M 13 5 A 1 1 0 0 0 12 6 A 1 1 0 0 0 13 7 L 16 7 C 16.564129 7 17 7.4358706 17 8 L 17 14.128906 C 15.281175 14.576679 14 16.147529 14 18 C 14 20.197294 15.802706 22 18 22 C 20.197294 22 22 20.197294 22 18 C 22 16.147529 20.718825 14.576679 19 14.128906 L 19 8 C 19 6.3549904 17.64501 5 16 5 L 13 5 z M 18 16 C 19.116414 16 20 16.883586 20 18 C 20 19.116414 19.116414 20 18 20 C 16.883586 20 16 19.116414 16 18 C 16 16.883586 16.883586 16 18 16 z "/>
</svg>
