<svg xmlns="http://www.w3.org/2000/svg" xmlns:svg="http://www.w3.org/2000/svg" width="24" height="24" viewBox="0 0 24 24" fill="currentColor" tags="code,version control" categories="development">
  <path d="M 6 2 C 3.8027056 2 2 3.8027056 2 6 C 2 7.8524261 3.2812389 9.4252305 5 9.8730469 L 5 21 A 1 1 0 0 0 6 22 A 1 1 0 0 0 7 21 L 7 14.683594 C 8.6537309 17.001897 11.149621 18.678937 14.117188 18.958984 C 14.550384 20.698522 16.132737 22 18 22 C 20.197294 22 22 20.197294 22 18 C 22 15.802706 20.197294 14 18 14 C 16.163899 14 14.604069 15.259172 14.140625 16.955078 C 10.400037 16.558235 7.4417648 13.599963 7.0449219 9.859375 C 8.7408278 9.395931 10 7.8361015 10 6 C 10 3.8027056 8.1972944 2 6 2 z M 6 4 C 7.1164141 4 8 4.8835859 8 6 C 8 7.1164141 7.1164141 8 6 8 C 4.8835859 8 4 7.1164141 4 6 C 4 4.8835859 4.8835859 4 6 4 z M 18 16 C 19.116414 16 20 16.883586 20 18 C 20 19.116414 19.116414 20 18 20 C 16.883586 20 16 19.116414 16 18 C 16 16.883586 16.883586 16 18 16 z "/>
</svg>
