<?xml version="1.0" encoding="UTF-8" standalone="no"?>
<svg xmlns="http://www.w3.org/2000/svg" xmlns:svg="http://www.w3.org/2000/svg" width="24" height="24" viewBox="0 0 24 24" fill="currentColor" tags="code,version control,open,plus,add,+" categories="development">
  <path d="M 6 2 C 3.8027056 2 2 3.8027056 2 6 C 2 7.8524261 3.2812389 9.4252305 5 9.8730469 L 5 21 A 1 1 0 0 0 6 22 A 1 1 0 0 0 7 21 L 7 9.8730469 C 8.7187611 9.4252305 10 7.8524261 10 6 C 10 3.8027056 8.1972944 2 6 2 z M 6 4 C 7.1164141 4 8 4.8835859 8 6 C 8 7.1164141 7.1164141 8 6 8 C 4.8835859 8 4 7.1164141 4 6 C 4 4.8835859 4.8835859 4 6 4 z M 13 5 A 1 1 0 0 0 12 6 A 1 1 0 0 0 13 7 L 16 7 C 16.564129 7 17 7.4358706 17 8 L 17 11 A 1 1 0 0 0 18 12 A 1 1 0 0 0 19 11 L 19 8 C 19 6.3549904 17.64501 5 16 5 L 13 5 z M 18 14 A 1 1 0 0 0 17 15 L 17 17 L 15 17 A 1 1 0 0 0 14 18 A 1 1 0 0 0 15 19 L 17 19 L 17 21 A 1 1 0 0 0 18 22 A 1 1 0 0 0 19 21 L 19 19 L 21 19 A 1 1 0 0 0 22 18 A 1 1 0 0 0 21 17 L 19 17 L 19 15 A 1 1 0 0 0 18 14 z "/>
</svg>
