<?xml version="1.0" encoding="UTF-8" standalone="no"?>
<svg xmlns="http://www.w3.org/2000/svg" xmlns:svg="http://www.w3.org/2000/svg" width="24" height="24" viewBox="0 0 24 24" fill="currentColor" tags="code,version control" categories="development">
  <path d="M 6 2 A 1 1 0 0 0 5 3 L 5 14.128906 C 3.2811752 14.576679 2 16.147529 2 18 C 2 20.197294 3.8027056 22 6 22 C 7.867893 22 9.4502455 20.697451 9.8828125 18.957031 C 14.690405 18.533208 18.533208 14.690405 18.957031 9.8828125 C 20.697451 9.4502455 22 7.867893 22 6 C 22 3.8027056 20.197294 2 18 2 C 15.802706 2 14 3.8027056 14 6 C 14 7.8363107 15.258879 9.3961283 16.955078 9.859375 C 16.558597 13.600719 13.600719 16.558597 9.859375 16.955078 C 9.4831168 15.577392 8.3838843 14.489423 7 14.128906 L 7 3 A 1 1 0 0 0 6 2 z M 18 4 C 19.116414 4 20 4.8835859 20 6 C 20 7.1164141 19.116414 8 18 8 C 16.883586 8 16 7.1164141 16 6 C 16 4.8835859 16.883586 4 18 4 z M 6 16 C 7.1164141 16 8 16.883586 8 18 C 8 19.116414 7.1164141 20 6 20 C 4.8835859 20 4 19.116414 4 18 C 4 16.883586 4.8835859 16 6 16 z "/>
</svg>
