<?xml version="1.0" encoding="UTF-8" standalone="no"?>
<svg xmlns="http://www.w3.org/2000/svg" xmlns:svg="http://www.w3.org/2000/svg" width="24" height="24" viewBox="0 0 24 24" fill="currentColor" tags="code,version control,open,draft,dashed" categories="development">
  
  <path d="M 6 2 C 3.80271 2 2 3.80271 2 6 C 2 7.8524679 3.2811777 9.4233216 5 9.8710938 L 5 21 A 1 1 0 0 0 6 22 A 1 1 0 0 0 7 21 L 7 9.8710938 C 8.7188223 9.4233216 10 7.8524679 10 6 C 10 3.80271 8.19729 2 6 2 z M 6 4 C 7.1164119 4 8 4.8835881 8 6 C 8 7.1164119 7.1164119 8 6 8 C 4.8835881 8 4 7.1164119 4 6 C 4 4.8835881 4.8835881 4 6 4 z M 18 4 A 1 1 0 0 0 17 5 L 17 6 A 1 1 0 0 0 18 7 A 1 1 0 0 0 19 6 L 19 5 A 1 1 0 0 0 18 4 z M 18 9 A 1 1 0 0 0 17 10 L 17 11 A 1 1 0 0 0 18 12 A 1 1 0 0 0 19 11 L 19 10 A 1 1 0 0 0 18 9 z M 18 14 C 15.80271 14 14 15.80271 14 18 C 14 20.19729 15.80271 22 18 22 C 20.19729 22 22 20.19729 22 18 C 22 15.80271 20.19729 14 18 14 z M 18 16 C 19.116412 16 20 16.883588 20 18 C 20 19.116412 19.116412 20 18 20 C 16.883588 20 16 19.116412 16 18 C 16 16.883588 16.883588 16 18 16 z "/>
</svg>
