<?xml version="1.0" encoding="UTF-8" standalone="no"?>
<svg xmlns="http://www.w3.org/2000/svg" xmlns:svg="http://www.w3.org/2000/svg" width="24" height="24" viewBox="0 0 24 24" fill="currentColor" tags="code,version control,commit graph,commits,gitlens" categories="development">
  <path d="M 5 2 C 2.8027056 2 1 3.8027056 1 6 C 1 7.8524716 2.2811752 9.4233216 4 9.8710938 L 4 14.128906 C 2.2811752 14.576679 1 16.147529 1 18 C 1 20.197294 2.8027056 22 5 22 C 7.1972944 22 9 20.197294 9 18 C 9 16.147529 7.7188248 14.576679 6 14.128906 L 6 9.8710938 C 7.7188248 9.4233216 9 7.8524716 9 6 C 9 3.8027056 7.1972944 2 5 2 z M 12 2 A 1 1 0 0 0 11 3 L 11 21 A 1 1 0 0 0 12 22 A 1 1 0 0 0 13 21 L 13 3 A 1 1 0 0 0 12 2 z M 19 2 C 16.802706 2 15 3.8027056 15 6 C 15 7.8356573 16.257841 9.3955124 17.953125 9.859375 C 17.740685 11.8136 16.814394 13.630962 15.333984 14.955078 A 1 1 0 0 0 15.253906 16.367188 A 1 1 0 0 0 16.666016 16.445312 C 18.56409 14.747623 19.734129 12.396002 19.958984 9.8808594 C 21.698268 9.4474821 23 7.8670821 23 6 C 23 3.8027056 21.197294 2 19 2 z M 5 4 C 6.1164141 4 7 4.8835859 7 6 C 7 7.1164141 6.1164141 8 5 8 C 3.8835859 8 3 7.1164141 3 6 C 3 4.8835859 3.8835859 4 5 4 z M 19 4 C 20.116414 4 21 4.8835859 21 6 C 21 7.1164141 20.116414 8 19 8 C 17.883586 8 17 7.1164141 17 6 C 17 4.8835859 17.883586 4 19 4 z M 5 16 C 6.1164141 16 7 16.883586 7 18 C 7 19.116414 6.1164141 20 5 20 C 3.8835859 20 3 19.116414 3 18 C 3 16.883586 3.8835859 16 5 16 z "/>
</svg>
