<?xml version="1.0" encoding="UTF-8" standalone="no"?>
<svg xmlns="http://www.w3.org/2000/svg" xmlns:svg="http://www.w3.org/2000/svg" width="24" height="24" viewBox="0 0 24 24" fill="currentColor" tags="code,version control,diff" categories="development,arrows">
  <path d="M 5 2 C 2.8027056 2 1 3.8027056 1 6 C 1 7.8524261 2.2812389 9.4252305 4 9.8730469 L 4 16 C 4 17.64501 5.3549904 19 7 19 L 9.5859375 19 L 8.2929688 20.292969 A 1 1 0 0 0 8.2929688 21.707031 A 1 1 0 0 0 9.7070312 21.707031 L 12.697266 18.716797 A 1 1 0 0 0 12.707031 18.707031 A 1.0001 1.0001 0 0 0 12.785156 18.619141 A 1 1 0 0 0 12.792969 18.609375 A 1.0001 1.0001 0 0 0 12.861328 18.507812 A 1 1 0 0 0 12.865234 18.5 A 1.0001 1.0001 0 0 0 12.921875 18.388672 A 1 1 0 0 0 12.923828 18.382812 A 1 1 0 0 0 12.964844 18.257812 A 1.0001 1.0001 0 0 0 12.976562 18.205078 A 1.0001 1.0001 0 0 0 13 18 A 1.0001 1.0001 0 0 0 12.976562 17.794922 A 1.0001 1.0001 0 0 0 12.964844 17.742188 A 1 1 0 0 0 12.923828 17.617188 A 1.0001 1.0001 0 0 0 12.921875 17.611328 A 1 1 0 0 0 12.865234 17.5 A 1.0001 1.0001 0 0 0 12.861328 17.492188 A 1 1 0 0 0 12.792969 17.390625 A 1.0001 1.0001 0 0 0 12.785156 17.380859 A 1 1 0 0 0 12.707031 17.292969 L 12.697266 17.283203 L 9.7070312 14.292969 A 1 1 0 0 0 9 14 A 1 1 0 0 0 8.2929688 14.292969 A 1 1 0 0 0 8.2929688 15.707031 L 9.5859375 17 L 7 17 C 6.4358706 17 6 16.564129 6 16 L 6 9.8730469 C 7.7187611 9.4252305 9 7.8524261 9 6 C 9 3.8027056 7.1972944 2 5 2 z M 15 2 A 1 1 0 0 0 14.292969 2.2929688 L 11.292969 5.2929688 A 1.0001 1.0001 0 0 0 11.25 5.3417969 A 1 1 0 0 0 11.212891 5.3847656 A 1.0001 1.0001 0 0 0 11.175781 5.4394531 A 1 1 0 0 0 11.138672 5.4921875 A 1.0001 1.0001 0 0 0 11.134766 5.5 A 1 1 0 0 0 11.078125 5.6113281 A 1.0001 1.0001 0 0 0 11.076172 5.6171875 A 1 1 0 0 0 11.023438 5.7949219 A 1.0001 1.0001 0 0 0 11.035156 6.2578125 A 1 1 0 0 0 11.078125 6.3886719 A 1.0001 1.0001 0 0 0 11.134766 6.5 A 1 1 0 0 0 11.175781 6.5605469 A 1.0001 1.0001 0 0 0 11.212891 6.6152344 A 1 1 0 0 0 11.25 6.6582031 A 1.0001 1.0001 0 0 0 11.292969 6.7070312 A 1 1 0 0 0 11.302734 6.7167969 L 14.292969 9.7070312 A 1 1 0 0 0 15.707031 9.7070312 A 1 1 0 0 0 15.707031 8.2929688 L 14.414062 7 L 17 7 C 17.564129 7 18 7.4358706 18 8 L 18 14.126953 C 16.281239 14.57477 15 16.147574 15 18 C 15 20.197294 16.802706 22 19 22 C 21.197294 22 23 20.197294 23 18 C 23 16.147574 21.718761 14.57477 20 14.126953 L 20 8 C 20 6.3549904 18.64501 5 17 5 L 14.414062 5 L 15.707031 3.7070312 A 1 1 0 0 0 15.707031 2.2929688 A 1 1 0 0 0 15 2 z M 5 4 C 6.1164141 4 7 4.8835859 7 6 C 7 7.1164141 6.1164141 8 5 8 C 3.8835859 8 3 7.1164141 3 6 C 3 4.8835859 3.8835859 4 5 4 z M 19 16 C 20.116414 16 21 16.883586 21 18 C 21 19.116414 20.116414 20 19 20 C 17.883586 20 17 19.116414 17 18 C 17 16.883586 17.883586 16 19 16 z "/>
</svg>
