<svg xmlns="http://www.w3.org/2000/svg" xmlns:svg="http://www.w3.org/2000/svg" width="24" height="24" viewBox="0 0 24 24" fill="currentColor" tags="code,version control,open" categories="development,arrows">
  <path d="M 5 2 C 2.8027056 2 1 3.8027056 1 6 C 1 7.8524261 2.2812389 9.4252305 4 9.8730469 L 4 21 A 1 1 0 0 0 5 22 A 1 1 0 0 0 6 21 L 6 9.8730469 C 7.7187611 9.4252305 9 7.8524261 9 6 C 9 3.8027056 7.1972944 2 5 2 z M 15 2 A 1 1 0 0 0 14.292969 2.2929688 L 11.302734 5.2832031 L 11.292969 5.2929688 A 1.0001 1.0001 0 0 0 11.25 5.3417969 A 1 1 0 0 0 11.212891 5.3847656 A 1.0001 1.0001 0 0 0 11.175781 5.4394531 A 1 1 0 0 0 11.138672 5.4921875 A 1.0001 1.0001 0 0 0 11.134766 5.5 A 1 1 0 0 0 11.078125 5.6113281 A 1.0001 1.0001 0 0 0 11.076172 5.6171875 A 1 1 0 0 0 11.035156 5.7421875 A 1 1 0 0 0 11.023438 5.7949219 A 1.0001 1.0001 0 0 0 11 6 A 1.0001 1.0001 0 0 0 11.023438 6.2050781 A 1.0001 1.0001 0 0 0 11.035156 6.2578125 A 1 1 0 0 0 11.076172 6.3828125 A 1 1 0 0 0 11.078125 6.3886719 A 1.0001 1.0001 0 0 0 11.134766 6.5 A 1 1 0 0 0 11.175781 6.5605469 A 1.0001 1.0001 0 0 0 11.212891 6.6152344 A 1 1 0 0 0 11.25 6.6582031 A 1.0001 1.0001 0 0 0 11.292969 6.7070312 A 1 1 0 0 0 11.302734 6.7167969 L 14.292969 9.7070312 A 1 1 0 0 0 15.707031 9.7070312 A 1 1 0 0 0 15.707031 8.2929688 L 14.414062 7 L 17 7 C 17.564129 7 18 7.4358706 18 8 L 18 14.126953 C 16.281239 14.57477 15 16.147574 15 18 C 15 20.197294 16.802706 22 19 22 C 21.197294 22 23 20.197294 23 18 C 23 16.147574 21.718761 14.57477 20 14.126953 L 20 8 C 20 6.3549904 18.64501 5 17 5 L 14.414062 5 L 15.707031 3.7070312 A 1 1 0 0 0 15.707031 2.2929688 A 1 1 0 0 0 15 2 z M 5 4 C 6.1164141 4 7 4.8835859 7 6 C 7 7.1164141 6.1164141 8 5 8 C 3.8835859 8 3 7.1164141 3 6 C 3 4.8835859 3.8835859 4 5 4 z M 19 16 C 20.116414 16 21 16.883586 21 18 C 21 19.116414 20.116414 20 19 20 C 17.883586 20 17 19.116414 17 18 C 17 16.883586 17.883586 16 19 16 z "/>
</svg>
