<?xml version="1.0" encoding="UTF-8" standalone="no"?>
<svg xmlns="http://www.w3.org/2000/svg" xmlns:svg="http://www.w3.org/2000/svg" width="24" height="24" viewBox="0 0 24 24" fill="currentColor" tags="code,version control,diff" categories="development,arrows">
  <path d="M 5 2 C 2.8027056 2 1 3.8027056 1 6 C 1 7.8524716 2.2811752 9.4233216 4 9.8710938 L 4 16 C 4 17.64501 5.3549904 19 7 19 L 9.5859375 19 L 8.2929688 20.292969 A 1 1 0 0 0 8.2929688 21.707031 A 1 1 0 0 0 9.7070312 21.707031 L 12.707031 18.707031 A 1.0001 1.0001 0 0 0 12.804688 18.591797 A 1.0001 1.0001 0 0 0 12.808594 18.587891 A 1 1 0 0 0 12.810547 18.583984 A 1.0001 1.0001 0 0 0 12.947266 18.316406 A 1 1 0 0 0 12.953125 18.296875 A 1.0001 1.0001 0 0 0 13 18 A 1 1 0 0 0 12.996094 17.912109 A 1.0001 1.0001 0 0 0 12.994141 17.904297 A 1 1 0 0 0 12.988281 17.857422 A 1.0001 1.0001 0 0 0 12.980469 17.804688 A 1 1 0 0 0 12.966797 17.75 A 1 1 0 0 0 12.964844 17.742188 A 1.0001 1.0001 0 0 0 12.943359 17.669922 A 1 1 0 0 0 12.939453 17.658203 A 1.0001 1.0001 0 0 0 12.900391 17.566406 A 1 1 0 0 0 12.865234 17.5 A 1.0001 1.0001 0 0 0 12.861328 17.492188 A 1 1 0 0 0 12.830078 17.445312 A 1.0001 1.0001 0 0 0 12.789062 17.388672 A 1.0001 1.0001 0 0 0 12.78125 17.376953 A 1 1 0 0 0 12.765625 17.357422 A 1.0001 1.0001 0 0 0 12.707031 17.292969 L 9.7070312 14.292969 A 1 1 0 0 0 9 14 A 1 1 0 0 0 8.2929688 14.292969 A 1 1 0 0 0 8.2929688 15.707031 L 9.5859375 17 L 7 17 C 6.4358706 17 6 16.564129 6 16 L 6 9.8710938 C 7.7188248 9.4233216 9 7.8524716 9 6 C 9 3.8027056 7.1972944 2 5 2 z M 15 2 A 1 1 0 0 0 14.292969 2.2929688 L 11.292969 5.2929688 A 1.0001 1.0001 0 0 0 11.236328 5.3671875 A 1 1 0 0 0 11.169922 5.453125 A 1.0001 1.0001 0 0 0 11.085938 5.6191406 A 1 1 0 0 0 11.044922 5.7207031 A 1.0001 1.0001 0 0 0 11.044922 6.2792969 A 1 1 0 0 0 11.085938 6.3808594 A 1.0001 1.0001 0 0 0 11.169922 6.546875 A 1 1 0 0 0 11.236328 6.6328125 A 1.0001 1.0001 0 0 0 11.292969 6.7070312 L 14.292969 9.7070312 A 1 1 0 0 0 15.707031 9.7070312 A 1 1 0 0 0 15.707031 8.2929688 L 14.414062 7 L 17 7 C 17.564129 7 18 7.4358706 18 8 L 18 14.128906 C 16.281175 14.576679 15 16.147529 15 18 C 15 20.197294 16.802706 22 19 22 C 21.197294 22 23 20.197294 23 18 C 23 16.147529 21.718825 14.576679 20 14.128906 L 20 8 C 20 6.3549904 18.64501 5 17 5 L 14.414062 5 L 15.707031 3.7070312 A 1 1 0 0 0 15.707031 2.2929688 A 1 1 0 0 0 15 2 z M 5 4 C 6.1164141 4 7 4.8835859 7 6 C 7 7.1164141 6.1164141 8 5 8 C 3.8835859 8 3 7.1164141 3 6 C 3 4.8835859 3.8835859 4 5 4 z M 19 16 C 20.116414 16 21 16.883586 21 18 C 21 19.116414 20.116414 20 19 20 C 17.883586 20 17 19.116414 17 18 C 17 16.883586 17.883586 16 19 16 z "/>
</svg>
