<svg xmlns="http://www.w3.org/2000/svg" xmlns:svg="http://www.w3.org/2000/svg" width="24" height="24" viewBox="0 0 24 24" fill="currentColor" tags="code,version control" categories="development">
  <path d="M 6 2 C 3.8027056 2 2 3.8027056 2 6 C 2 7.8524261 3.2812389 9.4252305 5 9.8730469 L 5 11 C 5 11.522222 5.1913289 12.05461 5.5683594 12.431641 C 5.9453899 12.808671 6.4777778 13 7 13 L 11 13 L 11 14.126953 C 9.2812389 14.57477 8 16.147574 8 18 C 8 20.197294 9.8027056 22 12 22 C 14.197294 22 16 20.197294 16 18 C 16 16.147574 14.718761 14.57477 13 14.126953 L 13 13 L 17 13 C 17.522222 13 18.05461 12.808671 18.431641 12.431641 C 18.808671 12.05461 19 11.522222 19 11 L 19 9.8730469 C 20.718761 9.4252304 22 7.8524261 22 6 C 22 3.8027056 20.197294 2 18 2 C 15.802706 2 14 3.8027056 14 6 C 14 7.8524261 15.281239 9.4252304 17 9.8730469 L 17 11 L 12 11 L 7 11 L 7 9.8730469 C 8.7187611 9.4252305 10 7.8524261 10 6 C 10 3.8027056 8.1972944 2 6 2 z M 6 4 C 7.1164141 4 8 4.8835859 8 6 C 8 7.1164141 7.1164141 8 6 8 C 4.8835859 8 4 7.1164141 4 6 C 4 4.8835859 4.8835859 4 6 4 z M 18 4 C 19.116414 4 20 4.8835859 20 6 C 20 7.1164141 19.116414 8 18 8 C 16.883586 8 16 7.1164141 16 6 C 16 4.8835859 16.883586 4 18 4 z M 12 16 C 13.116414 16 14 16.883586 14 18 C 14 19.116414 13.116414 20 12 20 C 10.883586 20 10 19.116414 10 18 C 10 16.883586 10.883586 16 12 16 z "/>
</svg>
