<?xml version="1.0" encoding="UTF-8" standalone="no"?>
<svg xmlns="http://www.w3.org/2000/svg" xmlns:svg="http://www.w3.org/2000/svg" width="24" height="24" viewBox="0 0 24 24" fill="currentColor" tags="code,version control" categories="development">
  <path d="M 6 2 A 1 1 0 0 0 5 3 L 5 14.126953 C 3.2812389 14.57477 2 16.147574 2 18 C 2 20.197294 3.8027056 22 6 22 C 7.8662731 22 9.4486281 20.699089 9.8828125 18.960938 C 14.692129 18.538011 18.538011 14.692129 18.960938 9.8828125 C 20.699089 9.4486281 22 7.8662731 22 6 C 22 3.8027056 20.197294 2 18 2 C 15.802706 2 14 3.8027056 14 6 C 14 7.8361014 15.259172 9.3959309 16.955078 9.859375 C 16.558235 13.599962 13.599962 16.558235 9.859375 16.955078 C 9.4829779 15.577708 8.3836306 14.487453 7 14.126953 L 7 3 A 1 1 0 0 0 6 2 z M 18 4 C 19.116414 4 20 4.8835859 20 6 C 20 7.1164141 19.116414 8 18 8 C 16.883586 8 16 7.1164141 16 6 C 16 4.8835859 16.883586 4 18 4 z M 6 16 C 7.116412 16 7.9999966 16.883589 8 18 C 8 19.116414 7.1164141 20 6 20 C 4.8835859 20 4 19.116414 4 18 C 4 16.883586 4.8835859 16 6 16 z "/>
</svg>
