<svg xmlns="http://www.w3.org/2000/svg" xmlns:svg="http://www.w3.org/2000/svg" width="24" height="24" viewBox="0 0 24 24" fill="currentColor" tags="code,version control,vcs,repository,add,create,+" categories="development">
  <path d="M 6 2 A 1 1 0 0 0 5 3 L 5 14.113281 C 4.1848369 14.302975 3.4943375 14.719505 3.0019531 15.273438 C 2.3186806 16.042119 2 17.027778 2 18 C 2 18.972222 2.3186806 19.957881 3.0019531 20.726562 C 3.6852256 21.495244 4.7500003 22 6 22 C 7.2499997 22 8.3147744 21.495244 8.9980469 20.726562 C 9.6813194 19.957881 10 18.972222 10 18 C 10 17.027778 9.6813194 16.042119 8.9980469 15.273438 C 8.5151579 14.730187 7.8415758 14.319596 7.046875 14.125 C 7.4498434 10.396269 10.39788 7.4487304 14.126953 7.046875 C 14.277764 7.6553451 14.565205 8.2352206 15.001953 8.7265625 C 15.685226 9.4952444 16.75 10 18 10 C 19.25 10 20.314774 9.4952444 20.998047 8.7265625 C 21.681319 7.9578806 22 6.9722221 22 6 C 22 5.0277779 21.681319 4.0421194 20.998047 3.2734375 C 20.314774 2.5047556 19.25 2 18 2 C 16.75 2 15.685226 2.5047556 15.001953 3.2734375 C 14.544574 3.7879901 14.249879 4.3991719 14.105469 5.0390625 C 11.206067 5.2974853 8.6580442 6.8001555 7 9.0078125 L 7 3 A 1 1 0 0 0 6 2 z M 18 4 C 18.749999 4 19.185226 4.2452444 19.501953 4.6015625 C 19.81868 4.9578806 20 5.4722221 20 6 C 20 6.5277779 19.81868 7.0421194 19.501953 7.3984375 C 19.185226 7.7547556 18.749999 8 18 8 C 17.250001 8 16.814774 7.7547556 16.498047 7.3984375 C 16.18132 7.0421194 16 6.5277779 16 6 C 16 5.4722221 16.18132 4.9578806 16.498047 4.6015625 C 16.814774 4.2452444 17.250001 4 18 4 z M 18 14 A 1 1 0 0 0 17 15 L 17 17 L 15 17 A 1 1 0 0 0 14 18 A 1 1 0 0 0 15 19 L 17 19 L 17 21 A 1 1 0 0 0 18 22 A 1 1 0 0 0 19 21 L 19 19 L 21 19 A 1 1 0 0 0 22 18 A 1 1 0 0 0 21 17 L 19 17 L 19 15 A 1 1 0 0 0 18 14 z M 6 16 C 6.7499995 16 7.1852261 16.245244 7.5019531 16.601562 C 7.8186802 16.957881 8 17.472222 8 18 C 8 18.527778 7.8186802 19.042119 7.5019531 19.398438 C 7.1852261 19.754756 6.7499995 20 6 20 C 5.2500005 20 4.8147739 19.754756 4.4980469 19.398438 C 4.1813198 19.042119 4 18.527778 4 18 C 4 17.472222 4.1813198 16.957881 4.4980469 16.601562 C 4.8147739 16.245244 5.2500005 16 6 16 z "/>
</svg>
