<?xml version="1.0" encoding="UTF-8" standalone="no"?>
<svg xmlns="http://www.w3.org/2000/svg" xmlns:svg="http://www.w3.org/2000/svg" width="24" height="24" viewBox="0 0 24 24" fill="currentColor" tags="code,version control,commit graph,commits,gitlens" categories="development">
  <path d="M 5 2 C 2.80271 2 1 3.80271 1 6 C 1 7.8524679 2.2811777 9.4233216 4 9.8710938 L 4 14.128906 C 2.2811777 14.576678 1 16.147532 1 18 C 1 20.19729 2.80271 22 5 22 C 7.19729 22 9 20.19729 9 18 C 9 16.147532 7.7188223 14.576678 6 14.128906 L 6 9.8710938 C 7.7188223 9.4233216 9 7.8524679 9 6 C 9 3.80271 7.19729 2 5 2 z M 12 2 A 1 1 0 0 0 11 3 L 11 21 A 1 1 0 0 0 12 22 A 1 1 0 0 0 13 21 L 13 3 A 1 1 0 0 0 12 2 z M 19 2 C 16.80271 2 15 3.80271 15 6 C 15 7.8356536 16.257843 9.3955124 17.953125 9.859375 C 17.740684 11.813597 16.814391 13.630965 15.333984 14.955078 A 1 1 0 0 0 15.253906 16.367188 A 1 1 0 0 0 16.666016 16.445312 C 18.564086 14.747626 19.734129 12.395998 19.958984 9.8808594 C 21.698266 9.4474821 23 7.8670783 23 6 C 23 3.80271 21.19729 2 19 2 z M 5 4 C 6.1164119 4 7 4.8835881 7 6 C 7 7.1164119 6.1164119 8 5 8 C 3.8835881 8 3 7.1164119 3 6 C 3 4.8835881 3.8835881 4 5 4 z M 19 4 C 20.116412 4 21 4.8835881 21 6 C 21 7.1164119 20.116412 8 19 8 C 17.883588 8 17 7.1164119 17 6 C 17 4.8835881 17.883588 4 19 4 z M 5 16 C 6.1164119 16 7 16.883588 7 18 C 7 19.116412 6.1164119 20 5 20 C 3.8835881 20 3 19.116412 3 18 C 3 16.883588 3.8835881 16 5 16 z "/>
</svg>
