<svg xmlns="http://www.w3.org/2000/svg" xmlns:svg="http://www.w3.org/2000/svg" width="24" height="24" viewBox="0 0 24 24" fill="currentColor" tags="code,version control,vcs,repository,delete,remove,-" categories="development">
  <path d="M 6 2 A 1 1 0 0 0 5 3 L 5 14.126953 C 3.2812389 14.57477 2 16.147574 2 18 C 2 20.197294 3.8027056 22 6 22 C 8.1972944 22 10 20.197294 10 18 C 10 16.163899 8.7408278 14.604069 7.0449219 14.140625 C 7.4417648 10.400037 10.400037 7.4417648 14.140625 7.0449219 C 14.604069 8.7408278 16.163899 10 18 10 C 20.197294 10 22 8.1972944 22 6 C 22 3.8027056 20.197294 2 18 2 C 16.132737 2 14.550384 3.3014781 14.117188 5.0410156 C 11.149621 5.3210626 8.6537309 6.9981031 7 9.3164062 L 7 3 A 1 1 0 0 0 6 2 z M 18 4 C 19.116414 4 20 4.8835859 20 6 C 20 7.1164141 19.116414 8 18 8 C 16.883586 8 16 7.1164141 16 6 C 16 4.8835859 16.883586 4 18 4 z M 6 16 C 7.1164141 16 8 16.883586 8 18 C 8 19.116414 7.1164141 20 6 20 C 4.8835859 20 4 19.116414 4 18 C 4 16.883586 4.8835859 16 6 16 z M 15 17 A 1 1 0 0 0 14 18 A 1 1 0 0 0 15 19 L 21 19 A 1 1 0 0 0 22 18 A 1 1 0 0 0 21 17 L 15 17 z "/>
</svg>
