<?xml version="1.0" encoding="UTF-8" standalone="no"?>
<svg xmlns="http://www.w3.org/2000/svg" xmlns:svg="http://www.w3.org/2000/svg" width="24" height="24" viewBox="0 0 24 24" fill="currentColor" tags="code,version control,waypoint,stop,station" categories="development,navigation">
  <path d="M 12 2 A 1 1 0 0 0 11 3 L 11 8.1289062 C 9.2811752 8.5766784 8 10.147528 8 12 C 8 13.852471 9.2811752 15.423321 11 15.871094 L 11 21 A 1 1 0 0 0 12 22 A 1 1 0 0 0 13 21 L 13 15.871094 C 14.718825 15.423321 16 13.852471 16 12 C 16 10.147528 14.718825 8.5766784 13 8.1289062 L 13 3 A 1 1 0 0 0 12 2 z M 12 10 C 13.116414 10 14 10.883586 14 12 C 14 13.116414 13.116414 14 12 14 C 10.883586 14 10 13.116414 10 12 C 10 10.883586 10.883586 10 12 10 z "/>
</svg>
