<?xml version="1.0" encoding="UTF-8" standalone="no"?>
<svg xmlns="http://www.w3.org/2000/svg" xmlns:svg="http://www.w3.org/2000/svg" width="24" height="24" viewBox="0 0 24 24" fill="currentColor" tags="code,version control,open" categories="development,arrows">
  <path d="M 5 2 C 2.80271 2 1 3.80271 1 6 C 1 7.8524679 2.2811777 9.4233216 4 9.8710938 L 4 21 A 1 1 0 0 0 5 22 A 1 1 0 0 0 6 21 L 6 9.8710938 C 7.7188223 9.4233216 9 7.8524679 9 6 C 9 3.80271 7.19729 2 5 2 z M 15 2 A 1 1 0 0 0 14.292969 2.2929688 L 11.292969 5.2929688 A 1.0001 1.0001 0 0 0 11.236328 5.3671875 A 1 1 0 0 0 11.169922 5.453125 A 1.0001 1.0001 0 0 0 11.085938 5.6191406 A 1 1 0 0 0 11.044922 5.7207031 A 1.0001 1.0001 0 0 0 11 6 A 1.0001 1.0001 0 0 0 11.044922 6.2792969 A 1 1 0 0 0 11.085938 6.3808594 A 1.0001 1.0001 0 0 0 11.169922 6.546875 A 1 1 0 0 0 11.236328 6.6328125 A 1.0001 1.0001 0 0 0 11.292969 6.7070312 L 14.292969 9.7070312 A 1 1 0 0 0 15.707031 9.7070312 A 1 1 0 0 0 15.707031 8.2929688 L 14.414062 7 L 17 7 C 17.564128 7 18 7.4358718 18 8 L 18 14.128906 C 16.281178 14.576678 15 16.147532 15 18 C 15 20.19729 16.80271 22 19 22 C 21.19729 22 23 20.19729 23 18 C 23 16.147532 21.718822 14.576678 20 14.128906 L 20 8 C 20 6.3549936 18.645006 5 17 5 L 14.414062 5 L 15.707031 3.7070312 A 1 1 0 0 0 15.707031 2.2929688 A 1 1 0 0 0 15 2 z M 5 4 C 6.1164119 4 7 4.8835881 7 6 C 7 7.1164119 6.1164119 8 5 8 C 3.8835881 8 3 7.1164119 3 6 C 3 4.8835881 3.8835881 4 5 4 z M 19 16 C 20.116412 16 21 16.883588 21 18 C 21 19.116412 20.116412 20 19 20 C 17.883588 20 17 19.116412 17 18 C 17 16.883588 17.883588 16 19 16 z "/>
</svg>
