<?xml version="1.0" encoding="UTF-8" standalone="no"?>
<svg xmlns="http://www.w3.org/2000/svg" xmlns:svg="http://www.w3.org/2000/svg" width="24" height="24" viewBox="0 0 24 24" fill="currentColor" tags="logo,version control" categories="brands,development">
  <path d="M 5 1 A 1.0001 1.0001 0 0 0 4.0332031 1.7480469 C 3.725109 2.9290744 3.7349033 4.1545797 3.9804688 5.3457031 C 3.3045135 6.4562243 2.9283215 7.7226876 3.0058594 9.0273438 C 3.0147694 11.049602 3.9144229 12.730118 5.234375 13.830078 C 6.1703624 14.610068 7.3204429 15.01906 8.5097656 15.251953 C 8.4175226 15.469039 8.2521581 15.648748 8.1875 15.876953 C 8.052964 16.351786 7.9811623 16.839955 7.9707031 17.330078 C 7.2945026 17.557424 6.7987786 17.589504 6.4160156 17.539062 C 5.9242142 17.474252 5.5668651 17.275776 5.1835938 16.96875 C 4.8003224 16.661724 4.4277392 16.244789 3.9570312 15.837891 C 3.4863232 15.430992 2.8333333 15 2 15 A 1 1 0 0 0 1 16 A 1 1 0 0 0 2 17 C 2.1666667 17 2.3238329 17.06901 2.6484375 17.349609 C 2.9730421 17.630211 3.3806151 18.088276 3.9335938 18.53125 C 4.4865724 18.974224 5.2232858 19.400748 6.1542969 19.523438 C 6.7153605 19.597375 7.3284941 19.561444 8 19.400391 L 8 22 A 1 1 0 0 0 9 23 A 1 1 0 0 0 10 22 L 10 18.027344 A 1 1 0 0 0 10 18 A 1.0001 1.0001 0 0 0 9.9960938 17.916016 A 1 1 0 0 0 9.9960938 17.910156 A 1.0001 1.0001 0 0 0 9.9941406 17.888672 C 9.9385696 17.396467 9.9773577 16.894713 10.111328 16.421875 C 10.244504 15.951841 10.473971 15.51157 10.783203 15.123047 A 1.0001 1.0001 0 0 0 10 13.5 C 8.7222222 13.5 7.4391243 13.064505 6.515625 12.294922 C 5.5921257 11.525339 5 10.464286 5 9 A 1.0001 1.0001 0 0 0 4.9980469 8.9355469 C 4.9315925 7.9189735 5.2190216 6.9100532 5.8125 6.0820312 A 1.0001 1.0001 0 0 0 5.9667969 5.2480469 C 5.8131004 4.6588769 5.9367389 4.057235 5.9667969 3.4570312 C 6.3611831 3.646939 6.7300462 3.798023 7.4003906 4.3007812 A 1.0001 1.0001 0 0 0 8.1855469 4.4824219 C 10.702156 4.0057913 13.297844 4.0057913 15.814453 4.4824219 A 1.0001 1.0001 0 0 0 16.599609 4.3007812 C 17.268198 3.7993398 17.635221 3.6490199 18.029297 3.4589844 C 18.057057 4.0642452 18.173664 4.6707372 18.029297 5.2636719 A 1.0001 1.0001 0 0 0 18.1875 6.0820312 C 18.784108 6.9156473 19.067409 7.9127999 19.001953 8.9355469 A 1.0001 1.0001 0 0 0 19 9 C 19 10.464286 18.407874 11.525339 17.484375 12.294922 C 16.560876 13.064505 15.277778 13.5 14 13.5 A 1.0001 1.0001 0 0 0 13.214844 15.119141 C 13.832515 15.903277 14.116037 16.896579 14.005859 17.888672 A 1.0001 1.0001 0 0 0 14 18 L 14 22 A 1 1 0 0 0 15 23 A 1 1 0 0 0 16 22 L 16 18.054688 C 16.095404 17.081982 15.862562 16.141854 15.488281 15.253906 C 16.678415 15.021213 17.829057 14.610552 18.765625 13.830078 C 20.085577 12.730118 20.985229 11.049602 20.994141 9.0273438 C 21.072141 7.6852519 20.687518 6.3773476 19.970703 5.2441406 C 20.180156 4.0896558 20.249153 2.9073046 19.970703 1.7636719 A 1.0001 1.0001 0 0 0 19 1 C 19 1 18.501049 1.025974 17.898438 1.2519531 C 17.387151 1.443686 16.622498 1.8959667 15.779297 2.4804688 C 13.277224 2.0537446 10.722776 2.0537446 8.2207031 2.4804688 C 7.3775015 1.8959667 6.6128501 1.443686 6.1015625 1.2519531 C 5.4989511 1.0259738 5 1 5 1 z "/>
</svg>
