<svg xmlns="http://www.w3.org/2000/svg" xmlns:svg="http://www.w3.org/2000/svg" width="24" height="24" viewBox="0 0 24 24" fill="currentColor" tags="logo,version control" categories="brands,development">
  <path d="M 18.328125 2 C 18.035547 1.99477 17.747868 2.08266 17.507812 2.25 A 1.0001 1.0001 0 0 0 17.486328 2.265625 C 17.275498 2.4209101 17.112282 2.6304802 17.013672 2.8730469 A 1.0001 1.0001 0 0 0 16.992188 2.9296875 L 14.962891 8.9199219 L 9.0410156 8.9199219 L 7.0546875 2.9589844 L 7.0507812 2.9472656 C 6.986914 2.7416327 6.8763122 2.5516747 6.7285156 2.3945312 A 1.0001 1.0001 0 0 0 6.6171875 2.2929688 C 6.3603432 2.0917503 6.0361471 2.0016229 5.7109375 2.0136719 C 5.4357317 2.0186428 5.163888 2.0921878 4.9375 2.25 A 1.0001 1.0001 0 0 0 4.9160156 2.265625 C 4.7051859 2.4209101 4.5419699 2.6304802 4.4433594 2.8730469 A 1.0001 1.0001 0 0 0 4.421875 2.9316406 L 1.0527344 12.972656 A 1.0001 1.0001 0 0 0 1.0488281 12.978516 C 0.81469158 13.69407 1.0732772 14.488834 1.6835938 14.929688 A 1.0001 1.0001 0 0 0 1.6933594 14.935547 L 11.421875 21.816406 A 1.0001 1.0001 0 0 0 12.578125 21.814453 L 22.25 14.949219 C 22.897581 14.531903 23.192082 13.714517 22.951172 12.978516 A 1.0001 1.0001 0 0 0 22.949219 12.974609 L 19.619141 2.9746094 A 1.0001 1.0001 0 0 0 19.595703 2.9140625 C 19.508835 2.7003753 19.355342 2.5250841 19.179688 2.3769531 C 18.972551 2.1873554 18.722714 2.0474453 18.443359 2.0097656 A 1.0001 1.0001 0 0 0 18.328125 2 z M 5.7304688 5.3183594 L 7.3710938 10.236328 A 1.0001 1.0001 0 0 0 8.3203125 10.919922 L 15.679688 10.919922 A 1.0001 1.0001 0 0 0 16.626953 10.240234 L 18.292969 5.3242188 L 20.980469 13.396484 L 11.998047 19.775391 L 3.0117188 13.417969 L 5.7304688 5.3183594 z "/>
</svg>
