<?xml version="1.0" encoding="UTF-8" standalone="no"?>
<svg xmlns="http://www.w3.org/2000/svg" xmlns:svg="http://www.w3.org/2000/svg" width="24" height="24" viewBox="0 0 24 24" fill="currentColor" tags="beverage,drink,glass,water" categories="food-beverage">
  <path d="M 6.109375 2 C 4.9391786 2.0006755 3.9993931 3.0431803 4.1210938 4.2070312 L 5.8046875 20.314453 C 5.9655962 21.83867 7.272024 23.00847 8.8046875 23 L 15.199219 23 C 16.726293 23.000806 18.023251 21.833086 18.183594 20.314453 L 19.878906 4.2109375 C 20.001865 3.0463798 19.061656 2.000553 17.890625 2 L 6.109375 2 z M 6.1113281 4 L 17.888672 4 L 17.111328 11.396484 C 15.719387 12.263357 13.931262 12.197958 12.599609 11.199219 C 11.53472 10.400552 10.267556 10.001953 9 10.001953 C 8.2466689 10.001953 7.4938781 10.143892 6.7832031 10.425781 L 6.1113281 4 z M 9 11.998047 C 9.8437509 11.998047 10.687502 12.266115 11.400391 12.800781 C 12.996005 13.997493 15.045502 14.297596 16.869141 13.701172 L 16.195312 20.105469 C 16.140683 20.622875 15.721454 21.000275 15.201172 21 A 1.0001 1.0001 0 0 0 15.199219 21 L 8.8007812 21 A 1.0001 1.0001 0 0 0 8.7949219 21 C 8.272586 21.0029 7.84976 20.624926 7.7949219 20.105469 L 7.0039062 12.537109 C 7.6219865 12.180075 8.3105106 11.998047 9 11.998047 z "/>
</svg>
