<svg xmlns="http://www.w3.org/2000/svg" xmlns:svg="http://www.w3.org/2000/svg" width="24" height="24" viewBox="0 0 24 24" fill="currentColor" tags="glasses,spectacles" categories="accessibility">
  <path d="M 8 4 C 7.0541667 4 6.2206063 4.2319646 5.5722656 4.7050781 C 4.9239249 5.1781916 4.4995874 5.8188466 4.1191406 6.5253906 A 1.0001 1.0001 0 0 0 4.0761719 6.6152344 L 1.5761719 12.615234 A 1 1 0 0 0 1.5234375 12.779297 C 1.1883946 13.449393 1 14.203594 1 15 C 1 17.749579 3.2504209 20 6 20 C 8.7495791 20 11 17.749579 11 15 C 11 14.435871 11.435871 14 12 14 C 12.564128 14 12.999999 14.435872 13 15 C 13 17.749579 15.250421 20 18 20 C 20.749579 20 23 17.749579 23 15 C 23 14.203594 22.811606 13.449394 22.476562 12.779297 A 1 1 0 0 0 22.423828 12.615234 L 19.923828 6.6152344 A 1.0001 1.0001 0 0 0 19.880859 6.5253906 C 19.49099 5.8013451 19.031473 5.1609313 18.378906 4.6972656 C 17.72634 4.2335999 16.905556 4 16 4 A 1 1 0 0 0 15 5 A 1 1 0 0 0 16 6 C 16.594444 6 16.92327 6.1167907 17.220703 6.328125 C 17.514149 6.5366262 17.801947 6.8964746 18.107422 7.4589844 L 19.230469 10.154297 C 18.836536 10.053641 18.424111 10 18 10 C 16.154343 10 14.534136 11.01341 13.667969 12.511719 C 13.189753 12.188724 12.614865 12 12 12 C 11.385135 12 10.810247 12.188724 10.332031 12.511719 C 9.4658636 11.01341 7.8456572 10 6 10 C 5.5758887 10 5.1634641 10.05364 4.7695312 10.154297 L 5.8925781 7.4589844 C 6.2066443 6.8797912 6.4790304 6.5194723 6.7519531 6.3203125 C 7.0286124 6.118426 7.3458333 6 8 6 A 1 1 0 0 0 9 5 A 1 1 0 0 0 8 4 z M 6 12 C 7.6686989 12 9 13.331301 9 15 C 9 16.668699 7.6686989 18 6 18 C 4.3313011 18 3 16.668699 3 15 C 3 13.331301 4.3313011 12 6 12 z M 18 12 C 19.668699 12 21 13.331301 21 15 C 21 16.668699 19.668699 18 18 18 C 16.331301 18 15 16.668699 15 15 C 15 13.331301 16.331301 12 18 12 z "/>
</svg>
