<?xml version="1.0" encoding="UTF-8" standalone="no"?>
<svg xmlns="http://www.w3.org/2000/svg" xmlns:svg="http://www.w3.org/2000/svg" width="24" height="24" viewBox="0 0 24 24" fill="currentColor" tags="glasses,spectacles" categories="accessibility">
  <path d="M 8 4 C 7.0541685 4 6.2206051 4.2319656 5.5722656 4.7050781 C 4.9239263 5.1781907 4.4995866 5.818848 4.1191406 6.5253906 A 1.0001 1.0001 0 0 0 4.0761719 6.6152344 L 1.5761719 12.615234 A 1 1 0 0 0 1.546875 12.734375 C 1.1976243 13.415612 1 14.185724 1 15 C 1 17.749573 3.2504263 20 6 20 C 8.7495737 20 11 17.749573 11 15 C 11 14.435872 11.435872 14 12 14 C 12.564128 14 13 14.435872 13 15 C 13 17.749573 15.250427 20 18 20 C 20.749573 20 23 17.749573 23 15 C 23 14.20266 22.81039 13.448028 22.474609 12.777344 A 1 1 0 0 0 22.423828 12.615234 L 19.923828 6.6152344 A 1.0001 1.0001 0 0 0 19.880859 6.5253906 C 19.490991 5.8013465 19.031472 5.1609305 18.378906 4.6972656 C 17.726341 4.2336009 16.905554 4 16 4 A 1 1 0 0 0 15 5 A 1 1 0 0 0 16 6 C 16.594443 6 16.92327 6.1167911 17.220703 6.328125 C 17.514149 6.5366258 17.801948 6.8964757 18.107422 7.4589844 L 19.230469 10.154297 C 18.836581 10.053665 18.424057 10 18 10 C 16.153881 10 14.533974 11.014742 13.667969 12.513672 C 13.189537 12.190231 12.615329 12 12 12 C 11.384671 12 10.810463 12.190231 10.332031 12.513672 C 9.4660264 11.014742 7.8461197 10 6 10 C 5.5759424 10 5.1634189 10.053665 4.7695312 10.154297 L 5.8925781 7.4589844 C 6.2066437 6.8797924 6.479031 6.5194719 6.7519531 6.3203125 C 7.0286119 6.1184264 7.3458347 6 8 6 A 1 1 0 0 0 9 5 A 1 1 0 0 0 8 4 z M 6 12 C 7.6686955 12 9 13.331305 9 15 C 9 16.668695 7.6686955 18 6 18 C 4.3313045 18 3 16.668695 3 15 C 3 13.331305 4.3313045 12 6 12 z M 18 12 C 19.668695 12 21 13.331305 21 15 C 21 16.668695 19.668695 18 18 18 C 16.331305 18 15 16.668695 15 15 C 15 13.331305 16.331305 12 18 12 z "/>
</svg>
