<?xml version="1.0" encoding="UTF-8" standalone="no"?>
<svg xmlns="http://www.w3.org/2000/svg" xmlns:svg="http://www.w3.org/2000/svg" width="24" height="24" viewBox="0 0 24 24" fill="currentColor" tags="beverage,drink,glass,water" categories="food-beverage">
  <path d="M 5 2 A 1.0001 1.0001 0 0 0 4.0058594 3.1035156 L 5.8046875 20.314453 C 5.9655959 21.838668 7.272027 23.00847 8.8046875 23 L 15.199219 23 C 16.72629 23.000806 18.023251 21.833084 18.183594 20.314453 L 19.994141 3.1054688 A 1.0001 1.0001 0 0 0 19 2 L 5 2 z M 6.109375 4 L 17.888672 4 L 17.111328 11.396484 C 15.719389 12.263355 13.93126 12.197956 12.599609 11.199219 C 11.534723 10.400554 10.267553 10.001953 9 10.001953 C 8.2460692 10.001953 7.4924239 10.143441 6.78125 10.425781 L 6.109375 4 z M 9 11.998047 C 9.8437504 11.998047 10.687503 12.266116 11.400391 12.800781 C 12.996001 13.99749 15.045504 14.297595 16.869141 13.701172 L 16.195312 20.105469 C 16.140684 20.622874 15.721453 21.000275 15.201172 21 A 1.0001 1.0001 0 0 0 15.199219 21 L 8.8007812 21 A 1.0001 1.0001 0 0 0 8.7949219 21 C 8.2725871 21.0029 7.8497598 20.624924 7.7949219 20.105469 L 7.0039062 12.537109 C 7.6219856 12.180076 8.310511 11.998047 9 11.998047 z "/>
</svg>
