<?xml version="1.0" encoding="UTF-8" standalone="no"?>
<svg xmlns="http://www.w3.org/2000/svg" xmlns:svg="http://www.w3.org/2000/svg" width="24" height="24" viewBox="0 0 24 24" fill="currentColor" tags="world,browser,language,translate" categories="navigation">
  <path d="M 11.974609 1 C 5.9230085 1.013844 1 5.9452306 1 12 C 1 18.063288 5.9367124 23 12 23 C 18.063288 23 23 18.063288 23 12 C 23 5.9367124 18.063288 1 12 1 C 11.992792 1 11.98572 0.99998605 11.978516 1 A 1 1 0 0 0 11.976562 1 A 1 1 0 0 0 11.974609 1 z M 9.671875 3.3046875 C 8.0911007 5.6340252 7.2145941 8.297852 7.0410156 11 L 3.0566406 11 C 3.4661874 7.2733181 6.1352262 4.2440748 9.671875 3.3046875 z M 14.328125 3.3046875 C 17.864774 4.2440748 20.533813 7.2733181 20.943359 11 L 16.958984 11 C 16.785406 8.297852 15.908899 5.6340252 14.328125 3.3046875 z M 12 3.6152344 C 13.743722 5.7968749 14.711719 8.37652 14.908203 11 L 9.0917969 11 C 9.2882806 8.37652 10.256278 5.7968749 12 3.6152344 z M 3.0566406 13 L 7.0410156 13 C 7.2145941 15.702148 8.0911007 18.365975 9.671875 20.695312 C 6.1352262 19.755925 3.4661874 16.726682 3.0566406 13 z M 9.0917969 13 L 14.908203 13 C 14.711719 15.62348 13.743722 18.203125 12 20.384766 C 10.256278 18.203125 9.2882806 15.62348 9.0917969 13 z M 16.958984 13 L 20.943359 13 C 20.533813 16.726682 17.864774 19.755925 14.328125 20.695312 C 15.908899 18.365975 16.785406 15.702148 16.958984 13 z "/>
</svg>
