<?xml version="1.0" encoding="UTF-8" standalone="no"?>
<svg xmlns="http://www.w3.org/2000/svg" xmlns:svg="http://www.w3.org/2000/svg" width="24" height="24" viewBox="0 0 24 24" fill="currentColor" tags="vpn,private,privacy,network,world,browser,security,encryption,protection,connection" categories="security,development,devices">
  <path d="M 12 1 C 5.6044163 1.0016651 1.1209318 6.2580619 1.0136719 11.890625 A 1 1 0 0 0 1 12 A 1 1 0 0 0 1.0117188 12.095703 C 1.0114593 14.280018 1.6694462 16.511465 3.1347656 18.507812 C 5.3130771 21.47554 8.5196829 22.826396 11.728516 22.884766 A 1.0001 1.0001 0 0 0 12.320312 22.863281 C 16.708787 22.712653 20.98381 20.109533 22.496094 15.300781 A 1 1 0 0 0 21.841797 14.046875 A 1 1 0 0 0 20.587891 14.699219 C 19.553617 17.987997 17.001332 20.018586 14.140625 20.71875 C 15.298898 19.03867 16.238614 17.219123 16.664062 15.207031 A 1 1 0 0 0 15.892578 14.021484 A 1 1 0 0 0 14.707031 14.792969 C 14.272008 16.850338 13.271704 18.709104 11.96875 20.345703 C 10.247507 18.175845 9.2812673 15.610476 9.0722656 13 L 10.5 13 A 1 1 0 0 0 11.5 12 A 1 1 0 0 0 10.5 11 L 9.0605469 11 C 9.2670916 7.9926464 10.482492 5.0436768 12.724609 2.6894531 A 1.0001 1.0001 0 0 0 12 1 z M 18 1 C 17.27778 1 16.542118 1.2353482 15.960938 1.7519531 C 15.379756 2.268558 15 3.0833353 15 4 L 15 5 C 13.909299 5 13 5.9092994 13 7 L 13 10 C 13 11.090701 13.909299 12 15 12 L 21 12 C 22.090701 12 23 11.090701 23 10 L 23 7 C 23 5.9092994 22.090701 5 21 5 L 21 4 C 21 3.0833353 20.620244 2.268558 20.039062 1.7519531 C 19.457882 1.2353482 18.72222 1 18 1 z M 18 3 C 18.277778 3 18.542121 3.0979867 18.710938 3.2480469 C 18.879755 3.398107 19 3.5833345 19 4 L 19 5 L 17 5 L 17 4 C 17 3.5833345 17.120246 3.398107 17.289062 3.2480469 C 17.45788 3.0979867 17.722222 3 18 3 z M 9.703125 3.3242188 C 8.1241319 5.652171 7.2504113 8.3079614 7.0761719 11 L 3.0253906 11 C 3.4317253 7.446931 5.9735154 4.2724765 9.703125 3.3242188 z M 15 7 L 16 7 L 20 7 L 21 7 L 21 10 L 15 10 L 15 7 z M 3.0253906 13 L 7.0742188 13 C 7.2471702 15.686721 8.1184991 18.337356 9.6914062 20.662109 C 7.8276749 20.1636 6.0653198 19.120821 4.7480469 17.326172 C 3.7460753 15.961088 3.1953772 14.477879 3.0253906 13 z "/>
</svg>
