<?xml version="1.0" encoding="UTF-8" standalone="no"?>
<svg xmlns="http://www.w3.org/2000/svg" xmlns:svg="http://www.w3.org/2000/svg" width="24" height="24" viewBox="0 0 24 24" fill="currentColor" tags="vpn,private,privacy,network,world,browser,security,encryption,protection,connection" categories="security,development,devices">
  <path d="M 12 1 C 5.6206233 1.0016608 1.1408436 6.2313089 1.0117188 11.847656 A 1 1 0 0 0 1 12 A 1 1 0 0 0 1.0097656 12.132812 C 1.0171622 14.304961 1.6779696 16.523077 3.1347656 18.507812 C 5.3130815 21.475545 8.5196765 22.826396 11.728516 22.884766 A 1.0001 1.0001 0 0 0 12.320312 22.863281 C 16.708796 22.712653 20.983808 20.109543 22.496094 15.300781 A 1 1 0 0 0 21.841797 14.046875 A 1 1 0 0 0 20.587891 14.699219 C 19.553615 17.988005 17.001338 20.018585 14.140625 20.71875 C 15.2989 19.038666 16.238612 17.219127 16.664062 15.207031 A 1 1 0 0 0 15.892578 14.021484 A 1 1 0 0 0 14.707031 14.792969 C 14.272006 16.850342 13.271706 18.709101 11.96875 20.345703 C 10.247506 18.175845 9.2773642 15.610473 9.0683594 13 L 10.5 13 A 1 1 0 0 0 11.5 12 A 1 1 0 0 0 10.5 11 L 9.0585938 11 C 9.2650677 7.9925225 10.4824 5.0437736 12.724609 2.6894531 A 1.0001 1.0001 0 0 0 12 1 z M 18 1 C 17.277778 1 16.542119 1.2353472 15.960938 1.7519531 C 15.379755 2.268559 15 3.0833335 15 4 L 15 5 C 13.909297 5 13 5.9092972 13 7 L 13 10 C 13 11.090703 13.909297 12 15 12 L 21 12 C 22.090703 12 23 11.090703 23 10 L 23 7 C 23 5.9092972 22.090703 5 21 5 L 21 4 C 21 3.0833335 20.620244 2.268559 20.039062 1.7519531 C 19.457881 1.2353472 18.722222 1 18 1 z M 18 3 C 18.277778 3 18.542119 3.0979864 18.710938 3.2480469 C 18.879756 3.3981073 19 3.5833337 19 4 L 19 5 L 17 5 L 17 4 C 17 3.5833337 17.120244 3.3981073 17.289062 3.2480469 C 17.457881 3.0979864 17.722222 3 18 3 z M 9.703125 3.3242188 C 8.1241558 5.6521358 7.2465265 8.3080073 7.0722656 11 L 3.0214844 11 C 3.428007 7.447138 5.9736898 4.2724322 9.703125 3.3242188 z M 15 7 L 16 7 L 20 7 L 21 7 L 21 10 L 15 10 L 15 7 z M 3.0214844 13 L 7.0722656 13 C 7.2452435 15.686664 8.1185294 18.3374 9.6914062 20.662109 C 7.8276712 20.163599 6.0653224 19.120825 4.7480469 17.326172 C 3.7462245 15.961291 3.1915619 14.477659 3.0214844 13 z "/>
</svg>
