<svg xmlns="http://www.w3.org/2000/svg" xmlns:svg="http://www.w3.org/2000/svg" width="24" height="24" viewBox="0 0 24 24" fill="currentColor" tags="world,browser,language,translate" categories="navigation">
  <path d="M 12 1 C 5.9367124 1 1 5.9367124 1 12 C 1 18.063288 5.9367124 23 12 23 A 1.0001 1.0001 0 0 0 12.023438 23 C 18.076064 22.987368 23 18.055517 23 12 C 23 5.9367124 18.063288 1 12 1 z M 9.6679688 3.3027344 C 8.0874536 5.6321177 7.2104999 8.2979108 7.0371094 11 L 3.0546875 11 C 3.4637875 7.2744384 6.1331596 4.2434696 9.6679688 3.3027344 z M 14.332031 3.3027344 C 17.866845 4.2434666 20.536212 7.274435 20.945312 11 L 16.962891 11 C 16.7895 8.2979098 15.912547 5.6321184 14.332031 3.3027344 z M 12 3.6152344 C 13.743923 5.7971271 14.713829 8.3762063 14.910156 11 L 9.0898438 11 C 9.2861713 8.3762063 10.256077 5.7971271 12 3.6152344 z M 3.0546875 13 L 7.0371094 13 C 7.2105 15.702089 8.0874534 18.367882 9.6679688 20.697266 C 6.1331594 19.756531 3.4637875 16.725561 3.0546875 13 z M 9.0898438 13 L 14.910156 13 C 14.713829 15.623794 13.743923 18.202873 12 20.384766 C 10.256076 18.202873 9.2861712 15.623794 9.0898438 13 z M 16.962891 13 L 20.945312 13 C 20.536212 16.725565 17.866845 19.756533 14.332031 20.697266 C 15.912548 18.367882 16.7895 15.70209 16.962891 13 z "/>
</svg>
