<svg xmlns="http://www.w3.org/2000/svg" xmlns:svg="http://www.w3.org/2000/svg" width="24" height="24" viewBox="0 0 24 24" fill="currentColor" tags="globe,internet,offline,disconnected,network,connection,world,no connection,network failure,signal off" categories="connectivity,devices,navigation">
  <path d="M 12 1 C 7.142181 1 3.4186232 3.9742929 1.8378906 7.7910156 C 1.3019575 9.085041 1.1113988 10.489382 1.0917969 11.908203 A 1 1 0 0 0 1 12 A 1 1 0 0 0 1.0976562 12.097656 C 1.1068563 14.803366 2.0043755 17.559063 4.2226562 19.777344 C 6.4029764 21.957664 9.1025715 22.855763 11.763672 22.898438 A 1.0001 1.0001 0 0 0 12.207031 22.912109 C 13.586341 22.878639 14.950019 22.683522 16.208984 22.162109 C 20.025708 20.581375 23 16.857819 23 12 A 1.0001 1.0001 0 0 0 22 11 L 16 11 L 9.1835938 11 C 9.4101145 7.9965834 10.490431 5.0353407 12.724609 2.6894531 A 1.0001 1.0001 0 0 0 12 1 z M 16 2 A 1 1 0 0 0 15.292969 2.2929688 A 1 1 0 0 0 15.292969 3.7070312 L 17.085938 5.5 L 15.292969 7.2929688 A 1 1 0 0 0 15.292969 8.7070312 A 1 1 0 0 0 16.707031 8.7070312 L 18.5 6.9140625 L 20.292969 8.7070312 A 1 1 0 0 0 21.707031 8.7070312 A 1 1 0 0 0 21.707031 7.2929688 L 19.914062 5.5 L 21.707031 3.7070312 A 1 1 0 0 0 21.707031 2.2929688 A 1 1 0 0 0 20.292969 2.2929688 L 18.5 4.0859375 L 16.707031 2.2929688 A 1 1 0 0 0 16 2 z M 9.6835938 3.3496094 C 8.1158549 5.6712312 7.270911 8.3100384 7.0976562 11 L 3.0410156 11 C 3.14357 10.161202 3.3616183 9.3387752 3.6855469 8.5566406 C 4.7207759 6.0570514 6.8364628 4.0794504 9.6835938 3.3496094 z M 3.0839844 13 L 7.0976562 13 C 7.2708549 15.689093 8.114858 18.327351 9.6816406 20.648438 C 8.2499817 20.264782 6.8530918 19.579654 5.6367188 18.363281 C 4.0460096 16.772572 3.2822258 14.894821 3.0839844 13 z M 9.1835938 13 L 14.806641 13 C 14.600823 15.68452 13.598448 18.18532 11.927734 20.292969 C 10.232349 18.13398 9.3793667 15.595735 9.1835938 13 z M 16.904297 13 L 20.849609 13 C 20.472636 16.513468 18.309074 19.12759 15.443359 20.314453 C 15.098185 20.45741 14.724109 20.498452 14.365234 20.599609 C 15.872882 18.343995 16.726277 15.726093 16.904297 13 z "/>
</svg>
