<?xml version="1.0" encoding="UTF-8" standalone="no"?>
<svg xmlns="http://www.w3.org/2000/svg" xmlns:svg="http://www.w3.org/2000/svg" width="24" height="24" viewBox="0 0 24 24" fill="currentColor" tags="flag,bullseye" categories="gaming">
  <path d="M 12.125 1.0078125 A 1.0001 1.0001 0 0 0 11 2 L 11 13 A 1 1 0 0 0 12 14 A 1 1 0 0 0 13 13 L 13 10.617188 L 20.447266 6.8945312 A 1.0001 1.0001 0 0 0 20.447266 5.1054688 L 12.447266 1.1054688 A 1.0001 1.0001 0 0 0 12.125 1.0078125 z M 13 3.6171875 L 17.763672 6 L 13 8.3828125 L 13 3.6171875 z M 7.9453125 3.9335938 A 1 1 0 0 0 7.5683594 4.0351562 C -0.041845485 7.7983258 0.29453311 18.917486 8.1171875 22.214844 C 15.939842 25.512202 24.131809 17.989444 21.511719 9.9140625 A 1 1 0 0 0 20.251953 9.2714844 A 1 1 0 0 0 19.609375 10.53125 C 21.746043 17.116676 15.271782 23.060017 8.8925781 20.371094 C 2.5133746 17.682171 2.2490009 8.8969675 8.4550781 5.828125 A 1 1 0 0 0 8.9082031 4.4882812 A 1 1 0 0 0 8.3320312 3.984375 A 1 1 0 0 0 7.9453125 3.9335938 z M 8.1230469 9.0039062 A 1 1 0 0 0 7.8613281 9.0078125 A 1 1 0 0 0 7.203125 9.3964844 C 4.6133548 12.843804 6.4671477 17.897231 10.671875 18.851562 C 14.876602 19.805895 18.730649 16.047852 17.882812 11.820312 A 1 1 0 0 0 16.705078 11.037109 A 1 1 0 0 0 15.921875 12.212891 C 16.499469 15.092932 13.979724 17.550533 11.115234 16.900391 C 8.2507452 16.250248 7.036482 12.946167 8.8007812 10.597656 A 1 1 0 0 0 8.6035156 9.1972656 A 1 1 0 0 0 8.1230469 9.0039062 z "/>
</svg>
