<?xml version="1.0" encoding="UTF-8" standalone="no"?>
<svg xmlns="http://www.w3.org/2000/svg" xmlns:svg="http://www.w3.org/2000/svg" width="24" height="24" viewBox="0 0 24 24" fill="currentColor" tags="flag,bullseye" categories="gaming">
  <path d="M 12.125 1.0078125 A 1.0001 1.0001 0 0 0 11 2 L 11 13 A 1 1 0 0 0 12 14 A 1 1 0 0 0 13 13 L 13 10.617188 L 20.447266 6.8945312 A 1.0001 1.0001 0 0 0 20.447266 5.1054688 L 12.447266 1.1054688 A 1.0001 1.0001 0 0 0 12.125 1.0078125 z M 13 3.6171875 L 17.763672 6 L 13 8.3828125 L 13 3.6171875 z M 7.9335938 3.9414062 A 1 1 0 0 0 7.5566406 4.0429688 C -0.053548965 7.8061307 0.28282996 18.925306 8.1054688 22.222656 C 15.928107 25.520008 24.122039 17.99724 21.501953 9.921875 A 1 1 0 0 0 20.242188 9.2792969 A 1 1 0 0 0 19.599609 10.539062 C 21.736274 17.124475 15.262004 23.067825 8.8828125 20.378906 C 2.5036218 17.689989 2.2372945 8.9047738 8.4433594 5.8359375 A 1 1 0 0 0 8.8964844 4.4960938 A 1 1 0 0 0 8.3203125 3.9921875 A 1 1 0 0 0 7.9335938 3.9414062 z M 8.1210938 9.0078125 A 1 1 0 0 0 7.859375 9.0097656 A 1 1 0 0 0 7.2011719 9.3984375 C 4.6114069 12.845751 6.4652029 17.899186 10.669922 18.853516 C 14.874641 19.807845 18.728694 16.051751 17.880859 11.824219 A 1 1 0 0 0 16.703125 11.039062 A 1 1 0 0 0 15.919922 12.216797 C 16.497514 15.096833 13.975812 17.554438 11.111328 16.904297 C 8.2468444 16.254156 7.0345325 12.950068 8.7988281 10.601562 A 1 1 0 0 0 8.6015625 9.2011719 A 1 1 0 0 0 8.1210938 9.0078125 z "/>
</svg>
