<?xml version="1.0" encoding="UTF-8" standalone="no"?>
<svg xmlns="http://www.w3.org/2000/svg" xmlns:svg="http://www.w3.org/2000/svg" width="24" height="24" viewBox="0 0 24 24" fill="currentColor" tags="flag,bullseye" categories="gaming">
  <path d="M 12.125 1.0078125 A 1.0001 1.0001 0 0 0 11 2 L 11 13 A 1 1 0 0 0 12 14 A 1 1 0 0 0 13 13 L 13 10.617188 L 20.447266 6.8945312 A 1.0001 1.0001 0 0 0 20.447266 5.1054688 L 12.447266 1.1054688 A 1.0001 1.0001 0 0 0 12.125 1.0078125 z M 13 3.6171875 L 17.763672 6 L 13 8.3828125 L 13 3.6171875 z M 7.9453125 3.9335938 A 1 1 0 0 0 7.5683594 4.0351562 C -0.041830265 7.7983182 0.29454876 18.917492 8.1171875 22.214844 C 15.939826 25.512194 24.131804 17.989428 21.511719 9.9140625 A 1 1 0 0 0 20.251953 9.2714844 A 1 1 0 0 0 19.609375 10.53125 C 21.746039 17.116663 15.271769 23.060011 8.8925781 20.371094 C 2.5133874 17.682175 2.2490133 8.8969613 8.4550781 5.828125 A 1 1 0 0 0 8.9082031 4.4882812 A 1 1 0 0 0 8.3320312 3.984375 A 1 1 0 0 0 7.9453125 3.9335938 z M 8.1230469 9.0039062 A 1 1 0 0 0 7.8613281 9.0078125 A 1 1 0 0 0 7.203125 9.3964844 C 4.61336 12.843798 6.4671561 17.897233 10.671875 18.851562 C 14.876594 19.805893 18.730647 16.047844 17.882812 11.820312 A 1 1 0 0 0 16.705078 11.037109 A 1 1 0 0 0 15.921875 12.212891 C 16.499467 15.092927 13.979719 17.550532 11.115234 16.900391 C 8.2507509 16.250249 7.0364855 12.946163 8.8007812 10.597656 A 1 1 0 0 0 8.6035156 9.1972656 A 1 1 0 0 0 8.1230469 9.0039062 z "/>
</svg>
