<?xml version="1.0" encoding="UTF-8" standalone="no"?>
<svg xmlns="http://www.w3.org/2000/svg" xmlns:svg="http://www.w3.org/2000/svg" width="24" height="24" viewBox="0 0 24 24" fill="currentColor" tags="processor,cores,technology,computer,chip,circuit,specs,graphics processing unit,video card,display adapter,gddr,rendering,digital image processing,crypto mining" categories="devices,gaming">
  <path d="M 2 2 A 1 1 0 0 0 1 3 L 1 21 A 1 1 0 0 0 2 22 A 1 1 0 0 0 3 21 L 3 18 L 6 18 L 6 20 C 6 21.092725 6.9072751 22 8 22 L 13 22 C 14.092725 22 15 21.092725 15 20 L 15 18 L 20 18 C 21.64501 18 23 16.64501 23 15 L 23 7 C 23 5.3549904 21.64501 4 20 4 L 3 4 L 3 3 A 1 1 0 0 0 2 2 z M 3 6 L 20 6 C 20.564129 6 21 6.4358706 21 7 L 21 15 C 21 15.564129 20.564129 16 20 16 L 3 16 L 3 6 z M 8 8 C 6.3549904 8 5 9.3549904 5 11 C 5 12.64501 6.3549904 14 8 14 C 9.6450096 14 11 12.64501 11 11 C 11 9.3549904 9.6450096 8 8 8 z M 16 8 C 14.35499 8 13 9.3549904 13 11 C 13 12.64501 14.35499 14 16 14 C 17.64501 14 19 12.64501 19 11 C 19 9.3549904 17.64501 8 16 8 z M 8 10 C 8.5641294 10 9 10.435871 9 11 C 9 11.564129 8.5641294 12 8 12 C 7.4358706 12 7 11.564129 7 11 C 7 10.435871 7.4358706 10 8 10 z M 16 10 C 16.564129 10 17 10.435871 17 11 C 17 11.564129 16.564129 12 16 12 C 15.435871 12 15 11.564129 15 11 C 15 10.435871 15.435871 10 16 10 z M 8 18 L 13 18 L 13 20 L 8 20 L 8 18 z "/>
</svg>
