<?xml version="1.0" encoding="UTF-8" standalone="no"?>
<svg xmlns="http://www.w3.org/2000/svg" xmlns:svg="http://www.w3.org/2000/svg" width="24" height="24" viewBox="0 0 24 24" fill="currentColor" tags="hand" categories="cursors,design,layout">
  <path d="M 12 5 C 10.944239 5 10.007965 5.557864 9.4726562 6.3925781 C 9.0363454 6.143647 8.5337588 6 8 6 C 6.3549904 6 5 7.3549904 5 9 L 5 11.160156 C 4.8215052 11.101567 4.6392333 11.060964 4.4550781 11.035156 C 4.4146628 11.028902 4.3729381 11.024128 4.3320312 11.019531 C 4.3228485 11.018602 4.3138739 11.016476 4.3046875 11.015625 C 4.3033929 11.015492 4.3020763 11.015757 4.3007812 11.015625 C 4.2785959 11.013595 4.256574 11.011341 4.234375 11.009766 C 4.1570531 11.003669 4.0787688 11 4 11 C 3.9212312 11 3.8429469 11.003669 3.765625 11.009766 C 3.743426 11.011341 3.7214041 11.013595 3.6992188 11.015625 C 3.697929 11.015743 3.6966021 11.015505 3.6953125 11.015625 C 3.6451688 11.020788 3.5943366 11.027509 3.5449219 11.035156 C 2.9759024 11.114899 2.4199601 11.343933 1.9609375 11.751953 C 1.484861 12.175132 1.1487534 12.800183 1.0410156 13.515625 C 1.0382239 13.532523 1.0357066 13.549418 1.0332031 13.566406 C 1.02753 13.608644 1.0196563 13.650526 1.015625 13.693359 C 1.0155587 13.694 1.0156909 13.694672 1.015625 13.695312 C 1.0052991 13.7956 1 13.897187 1 14 C 1 18.958718 5.0412819 23 10 23 L 14 23 C 18.958718 23 23 18.958718 23 14 L 23 11 C 23 10.083334 22.620244 9.268559 22.039062 8.7519531 C 21.457881 8.2353472 20.722222 8 20 8 C 19.625165 8 19.247271 8.0640596 18.888672 8.1972656 C 18.533933 6.9361382 17.367619 6 16 6 C 15.466241 6 14.963655 6.143647 14.527344 6.3925781 C 13.992035 5.557864 13.055761 5 12 5 z M 12 7 C 12.564129 7 13 7.4358706 13 8 L 13 10 L 13 10.400391 A 1 1 0 0 0 14 11.400391 A 1 1 0 0 0 15 10.400391 L 15 9 C 15 8.4358706 15.435871 8 16 8 C 16.564129 8 17 8.4358706 17 9 L 17 11 L 17 11.5 A 1 1 0 0 0 18 12.5 A 1 1 0 0 0 19 11.5 L 19 11 C 19 10.583334 19.120244 10.398107 19.289062 10.248047 C 19.457881 10.097986 19.722222 10 20 10 C 20.277778 10 20.542119 10.09799 20.710938 10.248047 C 20.879756 10.398107 21 10.583334 21 11 L 21 14 C 21 17.877838 17.877838 21 14 21 L 10 21 C 6.1221621 21 3 17.877838 3 14 C 3 13.943791 3.0075182 13.901783 3.0117188 13.853516 C 3.0657651 13.465739 3.3289136 13.156908 3.6914062 13.044922 C 3.6997802 13.042335 3.708321 13.039487 3.7167969 13.037109 C 3.7544858 13.026539 3.7944305 13.019943 3.8339844 13.013672 C 3.8884054 13.00603 3.9437991 13 4 13 C 4.0562009 13 4.1115946 13.00603 4.1660156 13.013672 C 4.2055695 13.019943 4.2455142 13.026539 4.2832031 13.037109 C 4.2918551 13.039229 4.3000399 13.042621 4.3085938 13.044922 C 4.6710864 13.156908 4.9342349 13.465739 4.9882812 13.853516 C 4.9924818 13.901783 5 13.943791 5 14 A 1 1 0 0 0 5.0292969 14.236328 A 1 1 0 0 0 5.0644531 14.333984 A 1 1 0 0 0 5.0683594 14.347656 A 1 1 0 0 0 5.0878906 14.400391 A 1 1 0 0 0 5.1210938 14.46875 A 1 1 0 0 0 5.171875 14.548828 A 1 1 0 0 0 5.2617188 14.666016 A 1 1 0 0 0 5.2929688 14.707031 A 1 1 0 0 0 5.3339844 14.738281 A 1 1 0 0 0 5.4511719 14.828125 A 1 1 0 0 0 5.53125 14.878906 A 1 1 0 0 0 5.5996094 14.912109 A 1 1 0 0 0 5.6523438 14.931641 A 1 1 0 0 0 5.6660156 14.935547 A 1 1 0 0 0 5.7636719 14.970703 A 1 1 0 0 0 6 15 A 1 1 0 0 0 6.2363281 14.970703 A 1 1 0 0 0 6.3339844 14.935547 A 1 1 0 0 0 6.3476562 14.931641 A 1 1 0 0 0 6.4003906 14.912109 A 1 1 0 0 0 6.46875 14.878906 A 1 1 0 0 0 6.5488281 14.828125 A 1 1 0 0 0 6.6660156 14.738281 A 1 1 0 0 0 6.7070312 14.707031 A 1 1 0 0 0 6.7382812 14.666016 A 1 1 0 0 0 6.828125 14.548828 A 1 1 0 0 0 6.8789062 14.46875 A 1 1 0 0 0 6.9121094 14.400391 A 1 1 0 0 0 6.9316406 14.347656 A 1 1 0 0 0 6.9355469 14.333984 A 1 1 0 0 0 6.9707031 14.236328 A 1 1 0 0 0 7 14 L 7 9 C 7 8.4358706 7.4358706 8 8 8 C 8.5641294 8 9 8.4358706 9 9 L 9 9.9003906 L 9 10 A 1 1 0 0 0 10 11 A 1 1 0 0 0 11 10 L 11 8 C 11 7.4358706 11.435871 7 12 7 z "/>
</svg>
