<?xml version="1.0" encoding="UTF-8" standalone="no"?>
<svg xmlns="http://www.w3.org/2000/svg" xmlns:svg="http://www.w3.org/2000/svg" width="24" height="24" viewBox="0 0 24 24" fill="currentColor" tags="school,university,learn,study,mortarboard,education,ceremony,academic,hat,diploma,bachlor's,master's,doctorate" categories="buildings,maps">
  <path d="M 12 4 C 11.575069 4 11.150995 4.0892962 10.755859 4.2695312 L 2.1992188 8.1640625 C 1.4365796 8.4980737 1.0019531 9.2664254 1.0019531 9.9960938 C 1.0019531 10.725762 1.4365796 11.494113 2.1992188 11.828125 L 5 13.105469 L 5 16 C 5 16.749998 5.3060483 17.447705 5.7636719 17.970703 C 6.2212954 18.493702 6.812044 18.872194 7.46875 19.164062 C 8.7821621 19.747802 10.388893 20 12 20 C 13.611107 20 15.217838 19.747802 16.53125 19.164062 C 17.187956 18.872194 17.778705 18.493702 18.236328 17.970703 C 18.693952 17.447705 19 16.749998 19 16 L 19 13.117188 L 21 12.208984 L 21 16 A 1 1 0 0 0 22 17 A 1 1 0 0 0 23 16 L 23 10.230469 C 23.009792 10.148913 23.016464 10.067467 23.015625 9.9863281 C 23.008025 9.2524202 22.559275 8.4827121 21.785156 8.1601562 L 13.244141 4.2695312 C 12.849005 4.0892967 12.424931 4 12 4 z M 12 6 C 12.140996 6 12.281993 6.0296026 12.414062 6.0898438 A 1.0001 1.0001 0 0 0 12.416016 6.0898438 L 20.986328 9.9941406 A 1.0001 1.0001 0 0 0 21 10 L 21 10.013672 L 12.416016 13.910156 A 1.0001 1.0001 0 0 0 12.414062 13.910156 C 12.149924 14.030639 11.850075 14.030639 11.585938 13.910156 A 1.0001 1.0001 0 0 0 11.583984 13.910156 L 3.015625 10.001953 A 1.0001 1.0001 0 0 0 3.0019531 9.9960938 A 1.0001 1.0001 0 0 0 3.0136719 9.9902344 L 11.583984 6.0898438 A 1.0001 1.0001 0 0 0 11.585938 6.0898438 C 11.718006 6.0296026 11.859004 6 12 6 z M 7 14.017578 L 10.755859 15.730469 C 11.546131 16.090937 12.453869 16.090937 13.244141 15.730469 L 17 14.025391 L 17 16 C 17 16.249999 16.93105 16.427297 16.732422 16.654297 C 16.533797 16.881297 16.187042 17.127809 15.71875 17.335938 C 14.782167 17.752197 13.388887 18 12 18 C 10.611113 18 9.2178335 17.752197 8.28125 17.335938 C 7.8129583 17.127809 7.4662033 16.881297 7.2675781 16.654297 C 7.068953 16.427297 7 16.249999 7 16 L 7 14.017578 z "/>
</svg>
