<svg xmlns="http://www.w3.org/2000/svg" xmlns:svg="http://www.w3.org/2000/svg" width="24" height="24" viewBox="0 0 24 24" fill="currentColor" tags="school,university,learn,study,mortarboard,education,ceremony,academic,hat,diploma,bachlor's,master's,doctorate" categories="buildings">
  <path d="M 12 4 C 11.575068 4 11.150996 4.089296 10.755859 4.2695312 L 2.1992188 8.1640625 C 1.4365781 8.4980744 1.0019531 9.266424 1.0019531 9.9960938 C 1.0019531 10.725763 1.4365781 11.494113 2.1992188 11.828125 L 5 13.105469 L 5 16 C 5 16.75 5.3060474 17.447704 5.7636719 17.970703 C 6.2212963 18.493702 6.8120426 18.872193 7.46875 19.164062 C 8.7821647 19.747802 10.388889 20 12 20 C 13.611111 20 15.217835 19.747802 16.53125 19.164062 C 17.187957 18.872194 17.778704 18.493702 18.236328 17.970703 C 18.693953 17.447704 19 16.75 19 16 L 19 13.117188 L 21 12.208984 L 21 16 A 1 1 0 0 0 22 17 A 1 1 0 0 0 23 16 L 23 10.248047 C 23.011255 10.16083 23.016522 10.073121 23.015625 9.9863281 C 23.008025 9.2524186 22.559276 8.4827128 21.785156 8.1601562 L 13.244141 4.2695312 C 12.849004 4.0892963 12.424932 4 12 4 z M 12 6 C 12.140997 6 12.281993 6.0296025 12.414062 6.0898438 A 1.0001 1.0001 0 0 0 12.416016 6.0898438 L 20.986328 9.9941406 A 1.0001 1.0001 0 0 0 21 10 L 21 10.013672 L 12.416016 13.910156 A 1.0001 1.0001 0 0 0 12.414062 13.910156 C 12.149923 14.030639 11.850076 14.030639 11.585938 13.910156 A 1.0001 1.0001 0 0 0 11.583984 13.910156 L 3.015625 10.001953 A 1.0001 1.0001 0 0 0 3.0019531 9.9960938 A 1.0001 1.0001 0 0 0 3.0136719 9.9902344 L 11.583984 6.0898438 A 1.0001 1.0001 0 0 0 11.585938 6.0898438 C 11.718006 6.0296025 11.859003 6 12 6 z M 7 14.017578 L 10.755859 15.730469 C 11.546132 16.090939 12.453868 16.090939 13.244141 15.730469 L 17 14.025391 L 17 16 C 17 16.25 16.93105 16.427296 16.732422 16.654297 C 16.533796 16.881297 16.187043 17.127808 15.71875 17.335938 C 14.782165 17.752197 13.388889 18 12 18 C 10.611111 18 9.2178353 17.752197 8.28125 17.335938 C 7.8129574 17.127809 7.4662037 16.881297 7.2675781 16.654297 C 7.0689526 16.427296 7 16.25 7 16 L 7 14.017578 z "/>
</svg>
