<?xml version="1.0" encoding="UTF-8" standalone="no"?>
<svg xmlns="http://www.w3.org/2000/svg" xmlns:svg="http://www.w3.org/2000/svg" width="24" height="24" viewBox="0 0 24 24" fill="currentColor" tags="fruit,wine,food" categories="food-beverage">
  <path d="M 22.097656 1.0039062 A 1.0001 1.0001 0 0 0 21.292969 1.2929688 L 17.771484 4.8144531 C 17.311507 3.1134165 15.749923 1.8496094 13.910156 1.8496094 C 12.347786 1.8496094 10.985297 2.761499 10.328125 4.078125 C 9.6917001 3.650187 8.9283332 3.4003906 8.109375 3.4003906 C 5.9120806 3.4003906 4.109375 5.2030963 4.109375 7.4003906 C 4.109375 8.219349 4.3591714 8.9827157 4.7871094 9.6191406 C 3.4717427 10.276759 2.5605469 11.637773 2.5605469 13.199219 C 2.5605469 14.016626 2.8098716 14.77836 3.2363281 15.414062 C 1.915509 16.069741 1 17.434551 1 19 C 1 21.197294 2.8027056 23 5 23 C 6.5654494 23 7.9302592 22.084491 8.5859375 20.763672 C 9.2216398 21.190128 9.9833736 21.439453 10.800781 21.439453 C 12.362227 21.439453 13.723241 20.528257 14.380859 19.212891 C 15.017284 19.640829 15.780651 19.890625 16.599609 19.890625 C 18.796904 19.890625 20.599609 18.087919 20.599609 15.890625 C 20.599609 15.071667 20.349813 14.3083 19.921875 13.671875 C 21.238501 13.014703 22.150391 11.652214 22.150391 10.089844 C 22.150391 8.250077 20.886583 6.6884928 19.185547 6.2285156 L 21 4.4140625 L 21 5 A 1 1 0 0 0 22 6 A 1 1 0 0 0 23 5 L 23 2 A 1.0001 1.0001 0 0 0 22.382812 1.0761719 A 1.0001 1.0001 0 0 0 22.097656 1.0039062 z M 13.910156 3.8496094 C 15.02657 3.8496094 15.910156 4.7331952 15.910156 5.8496094 C 15.910156 6.3496699 15.731613 6.802235 15.435547 7.1503906 L 15.402344 7.1835938 A 1 1 0 0 0 15.388672 7.2011719 C 15.377457 7.2134591 15.366988 7.2262838 15.355469 7.2382812 C 15.335703 7.2576605 15.316241 7.2770958 15.296875 7.296875 C 14.938992 7.6395311 14.452697 7.8496094 13.910156 7.8496094 C 12.793742 7.8496094 11.910156 6.9660235 11.910156 5.8496094 C 11.910156 4.7331952 12.793742 3.8496094 13.910156 3.8496094 z M 8.109375 5.4003906 C 9.2257891 5.4003906 10.109375 6.2839765 10.109375 7.4003906 C 10.109375 8.5168048 9.2257891 9.4003906 8.109375 9.4003906 C 6.9929609 9.4003906 6.109375 8.5168048 6.109375 7.4003906 C 6.109375 6.2839765 6.9929609 5.4003906 8.109375 5.4003906 z M 18.150391 8.0898438 C 19.266805 8.0898438 20.150391 8.9734293 20.150391 10.089844 C 20.150391 11.206258 19.266805 12.089844 18.150391 12.089844 C 17.033976 12.089844 16.150391 11.206258 16.150391 10.089844 C 16.150391 9.5473032 16.360469 9.0610081 16.703125 8.703125 C 16.723886 8.6827981 16.745305 8.6633456 16.765625 8.6425781 C 16.776633 8.6320539 16.787577 8.6215968 16.798828 8.6113281 A 1 1 0 0 0 16.816406 8.5976562 L 16.873047 8.5429688 C 17.217854 8.2592156 17.661959 8.0898438 18.150391 8.0898438 z M 12.349609 9.6503906 C 13.466024 9.6503906 14.349609 10.533976 14.349609 11.650391 C 14.349609 12.766805 13.466024 13.650391 12.349609 13.650391 C 12.212061 13.650391 12.078482 13.634983 11.949219 13.609375 C 11.870995 13.585709 11.79105 13.565761 11.710938 13.546875 C 11.114403 13.350248 10.649752 12.885597 10.453125 12.289062 C 10.434671 12.210784 10.413644 12.133117 10.390625 12.056641 C 10.364284 11.925636 10.349609 11.789942 10.349609 11.650391 C 10.349609 10.533976 11.233195 9.6503906 12.349609 9.6503906 z M 6.5605469 11.199219 C 7.452843 11.199219 8.1944522 11.763925 8.4570312 12.560547 C 8.4759174 12.64066 8.4958649 12.720605 8.5195312 12.798828 C 8.5451393 12.928091 8.5605469 13.06167 8.5605469 13.199219 C 8.5605469 13.741759 8.3504686 14.228054 8.0078125 14.585938 C 7.9873745 14.605948 7.9672765 14.626046 7.9472656 14.646484 C 7.5893825 14.989141 7.1030873 15.199219 6.5605469 15.199219 C 5.4441327 15.199219 4.5605469 14.315633 4.5605469 13.199219 C 4.5605469 12.082805 5.4441327 11.199219 6.5605469 11.199219 z M 16.599609 13.890625 C 17.716024 13.890625 18.599609 14.774211 18.599609 15.890625 C 18.599609 17.007039 17.716024 17.890625 16.599609 17.890625 C 15.483195 17.890625 14.599609 17.007039 14.599609 15.890625 C 14.599609 14.774211 15.483195 13.890625 16.599609 13.890625 z M 10.800781 15.439453 C 10.940333 15.439453 11.076026 15.454128 11.207031 15.480469 C 11.283507 15.503488 11.361175 15.524515 11.439453 15.542969 C 12.236075 15.805548 12.800781 16.547157 12.800781 17.439453 C 12.800781 18.555867 11.917195 19.439453 10.800781 19.439453 C 9.6843674 19.439453 8.8007812 18.555867 8.8007812 17.439453 C 8.8007812 16.896913 9.0108595 16.410617 9.3535156 16.052734 C 9.3739536 16.032723 9.3940516 16.012626 9.4140625 15.992188 C 9.7719455 15.649531 10.258241 15.439453 10.800781 15.439453 z M 5 17 C 6.1164141 17 7 17.883586 7 19 C 7 20.116414 6.1164141 21 5 21 C 3.8835859 21 3 20.116414 3 19 C 3 17.883586 3.8835859 17 5 17 z "/>
</svg>
