<?xml version="1.0" encoding="UTF-8" standalone="no"?>
<svg xmlns="http://www.w3.org/2000/svg" xmlns:svg="http://www.w3.org/2000/svg" width="24" height="24" viewBox="0 0 24 24" fill="currentColor" tags="fruit,wine,food" categories="food-beverage">
  
  <path d="M 22.097656 1.0039062 A 1.0001 1.0001 0 0 0 21.292969 1.2929688 L 17.771484 4.8144531 C 17.311507 3.113419 15.749919 1.8496094 13.910156 1.8496094 C 12.347789 1.8496094 10.985297 2.7615005 10.328125 4.078125 C 9.6917007 3.6501871 8.9283316 3.4003906 8.109375 3.4003906 C 5.912085 3.4003906 4.109375 5.2031007 4.109375 7.4003906 C 4.109375 8.2193473 4.3591715 8.9827162 4.7871094 9.6191406 C 3.4717442 10.276759 2.5605469 11.637777 2.5605469 13.199219 C 2.5605469 14.016625 2.8098717 14.778361 3.2363281 15.414062 C 1.9155105 16.069741 1 17.434554 1 19 C 1 21.19729 2.80271 23 5 23 C 6.5654462 23 7.9302594 22.08449 8.5859375 20.763672 C 9.2216393 21.190128 9.9833753 21.439453 10.800781 21.439453 C 12.362223 21.439453 13.723241 20.528256 14.380859 19.212891 C 15.017284 19.640829 15.780653 19.890625 16.599609 19.890625 C 18.7969 19.890625 20.599609 18.087915 20.599609 15.890625 C 20.599609 15.071668 20.349813 14.308299 19.921875 13.671875 C 21.2385 13.014703 22.150391 11.652211 22.150391 10.089844 C 22.150391 8.2500807 20.886581 6.6884928 19.185547 6.2285156 L 21 4.4140625 L 21 5 A 1 1 0 0 0 22 6 A 1 1 0 0 0 23 5 L 23 2 A 1.0001 1.0001 0 0 0 22.382812 1.0761719 A 1.0001 1.0001 0 0 0 22.097656 1.0039062 z M 13.910156 3.8496094 C 15.026568 3.8496094 15.910156 4.7331975 15.910156 5.8496094 C 15.910156 6.3496689 15.731613 6.8022352 15.435547 7.1503906 L 15.402344 7.1835938 A 1 1 0 0 0 15.388672 7.2011719 C 15.377457 7.2134591 15.366988 7.2262838 15.355469 7.2382812 C 15.335703 7.2576605 15.316241 7.2770958 15.296875 7.296875 C 14.938992 7.6395309 14.452696 7.8496094 13.910156 7.8496094 C 12.793744 7.8496094 11.910156 6.9660213 11.910156 5.8496094 C 11.910156 4.7331975 12.793744 3.8496094 13.910156 3.8496094 z M 8.109375 5.4003906 C 9.2257869 5.4003906 10.109375 6.2839787 10.109375 7.4003906 C 10.109375 8.5168025 9.2257869 9.4003906 8.109375 9.4003906 C 6.9929631 9.4003906 6.109375 8.5168025 6.109375 7.4003906 C 6.109375 6.2839787 6.9929631 5.4003906 8.109375 5.4003906 z M 18.150391 8.0898438 C 19.266803 8.0898438 20.150391 8.9734316 20.150391 10.089844 C 20.150391 11.206256 19.266803 12.089844 18.150391 12.089844 C 17.033979 12.089844 16.150391 11.206256 16.150391 10.089844 C 16.150391 9.5473043 16.360469 9.0610079 16.703125 8.703125 C 16.723886 8.6827981 16.745305 8.6633456 16.765625 8.6425781 C 16.776633 8.6320539 16.787577 8.6215968 16.798828 8.6113281 A 1 1 0 0 0 16.816406 8.5976562 L 16.873047 8.5429688 C 17.217854 8.2592158 17.66196 8.0898438 18.150391 8.0898438 z M 12.349609 9.6503906 C 13.466021 9.6503906 14.349609 10.533979 14.349609 11.650391 C 14.349609 12.766803 13.466021 13.650391 12.349609 13.650391 C 12.212061 13.650391 12.078482 13.634983 11.949219 13.609375 C 11.870996 13.585709 11.79105 13.565761 11.710938 13.546875 C 11.114404 13.350248 10.649752 12.885596 10.453125 12.289062 C 10.434671 12.210784 10.413644 12.133117 10.390625 12.056641 C 10.364284 11.925636 10.349609 11.789942 10.349609 11.650391 C 10.349609 10.533979 11.233197 9.6503906 12.349609 9.6503906 z M 6.5605469 11.199219 C 7.4528412 11.199219 8.1944523 11.763926 8.4570312 12.560547 C 8.4759174 12.64066 8.4958649 12.720605 8.5195312 12.798828 C 8.5451393 12.928091 8.5605469 13.06167 8.5605469 13.199219 C 8.5605469 13.741758 8.3504684 14.228055 8.0078125 14.585938 C 7.9873745 14.605948 7.9672765 14.626046 7.9472656 14.646484 C 7.5893828 14.98914 7.1030862 15.199219 6.5605469 15.199219 C 5.444135 15.199219 4.5605469 14.315631 4.5605469 13.199219 C 4.5605469 12.082807 5.444135 11.199219 6.5605469 11.199219 z M 16.599609 13.890625 C 17.716021 13.890625 18.599609 14.774213 18.599609 15.890625 C 18.599609 17.007037 17.716021 17.890625 16.599609 17.890625 C 15.483197 17.890625 14.599609 17.007037 14.599609 15.890625 C 14.599609 14.774213 15.483197 13.890625 16.599609 13.890625 z M 10.800781 15.439453 C 10.940333 15.439453 11.076027 15.454128 11.207031 15.480469 C 11.283507 15.503488 11.361175 15.524515 11.439453 15.542969 C 12.236074 15.805548 12.800781 16.547159 12.800781 17.439453 C 12.800781 18.555865 11.917193 19.439453 10.800781 19.439453 C 9.6843696 19.439453 8.8007812 18.555865 8.8007812 17.439453 C 8.8007812 16.896914 9.0108597 16.410617 9.3535156 16.052734 C 9.3739536 16.032723 9.3940516 16.012626 9.4140625 15.992188 C 9.7719453 15.649532 10.258242 15.439453 10.800781 15.439453 z M 5 17 C 6.1164119 17 7 17.883588 7 19 C 7 20.116412 6.1164119 21 5 21 C 3.8835881 21 3 20.116412 3 19 C 3 17.883588 3.8835881 17 5 17 z "/>
</svg>
