<?xml version="1.0" encoding="UTF-8" standalone="no"?>
<svg xmlns="http://www.w3.org/2000/svg" xmlns:svg="http://www.w3.org/2000/svg" width="24" height="24" viewBox="0 0 24 24" fill="currentColor" tags="fruit,wine,food" categories="food-beverage">
  <path d="M 22 1 A 1.0001 1.0001 0 0 0 21.292969 1.2929688 L 17.773438 4.8125 C 17.313047 3.112073 15.749488 1.8496094 13.910156 1.8496094 C 12.347692 1.8496094 10.985252 2.7613704 10.328125 4.078125 C 9.6919558 3.6507121 8.9277838 3.4003906 8.109375 3.4003906 C 5.9120806 3.4003906 4.109375 5.2030963 4.109375 7.4003906 C 4.109375 8.2184856 4.3599965 8.9811645 4.7871094 9.6171875 C 3.4716715 10.27478 2.5605469 11.637721 2.5605469 13.199219 C 2.5605469 14.016065 2.8104069 14.778622 3.2363281 15.414062 C 1.9156328 16.069785 1 17.434642 1 19 C 1 21.197294 2.8027056 23 5 23 C 6.5653585 23 7.9302149 22.084367 8.5859375 20.763672 C 9.2213779 21.189593 9.9839345 21.439453 10.800781 21.439453 C 12.362279 21.439453 13.72522 20.528328 14.382812 19.212891 C 15.018835 19.640004 15.781515 19.890625 16.599609 19.890625 C 18.796904 19.890625 20.599609 18.087919 20.599609 15.890625 C 20.599609 15.072216 20.349288 14.308044 19.921875 13.671875 C 21.23863 13.014748 22.150391 11.652308 22.150391 10.089844 C 22.150391 8.2505125 20.887927 6.6869528 19.1875 6.2265625 L 21 4.4140625 L 21 5 A 1 1 0 0 0 22 6 A 1 1 0 0 0 23 5 L 23 2 A 1.0001 1.0001 0 0 0 22.382812 1.0761719 A 1.0001 1.0001 0 0 0 22 1 z M 13.910156 3.8496094 C 15.02657 3.8496094 15.910156 4.7331952 15.910156 5.8496094 C 15.910156 6.345908 15.735421 6.7954741 15.443359 7.1425781 L 15.402344 7.1835938 A 1 1 0 0 0 15.337891 7.2539062 C 15.311333 7.2802414 15.285587 7.3069249 15.259766 7.3339844 C 14.905751 7.6554414 14.433647 7.8496094 13.910156 7.8496094 C 12.793742 7.8496094 11.910156 6.9660235 11.910156 5.8496094 C 11.910156 4.7331952 12.793742 3.8496094 13.910156 3.8496094 z M 8.109375 5.4003906 C 9.2257891 5.4003906 10.109375 6.2839765 10.109375 7.4003906 C 10.109375 8.5168048 9.2257891 9.4003906 8.109375 9.4003906 C 6.9929609 9.4003906 6.109375 8.5168048 6.109375 7.4003906 C 6.109375 6.2839765 6.9929609 5.4003906 8.109375 5.4003906 z M 18.150391 8.0898438 C 19.266805 8.0898438 20.150391 8.9734293 20.150391 10.089844 C 20.150391 11.206258 19.266805 12.089844 18.150391 12.089844 C 17.033976 12.089844 16.150391 11.206258 16.150391 10.089844 C 16.150391 9.5663544 16.34456 9.0942486 16.666016 8.7402344 C 16.693076 8.7144118 16.719758 8.6886682 16.746094 8.6621094 A 1 1 0 0 0 16.816406 8.5976562 L 16.861328 8.5527344 C 17.207799 8.2630184 17.656304 8.0898438 18.150391 8.0898438 z M 12.349609 9.6503906 C 13.466024 9.6503906 14.349609 10.533976 14.349609 11.650391 C 14.349609 12.766805 13.466024 13.650391 12.349609 13.650391 C 11.233195 13.650391 10.349609 12.766805 10.349609 11.650391 C 10.349609 10.533976 11.233195 9.6503906 12.349609 9.6503906 z M 6.5605469 11.199219 C 7.4393267 11.199219 8.1743882 11.745886 8.4472656 12.523438 C 8.4698671 12.62357 8.4953644 12.723105 8.5253906 12.820312 C 8.5482503 12.942781 8.5605469 13.069435 8.5605469 13.199219 C 8.5605469 14.315633 7.676961 15.199219 6.5605469 15.199219 C 5.4441327 15.199219 4.5605469 14.315633 4.5605469 13.199219 C 4.5605469 12.082805 5.4441327 11.199219 6.5605469 11.199219 z M 16.599609 13.890625 C 17.716024 13.890625 18.599609 14.774211 18.599609 15.890625 C 18.599609 17.007039 17.716024 17.890625 16.599609 17.890625 C 15.483195 17.890625 14.599609 17.007039 14.599609 15.890625 C 14.599609 14.774211 15.483195 13.890625 16.599609 13.890625 z M 10.800781 15.439453 C 10.930564 15.439453 11.05722 15.45175 11.179688 15.474609 C 11.276898 15.504636 11.376428 15.530132 11.476562 15.552734 C 12.254112 15.825613 12.800781 16.560675 12.800781 17.439453 C 12.800781 18.555867 11.917195 19.439453 10.800781 19.439453 C 9.6843674 19.439453 8.8007812 18.555867 8.8007812 17.439453 C 8.8007812 16.915965 8.9949521 16.443858 9.3164062 16.089844 C 9.3622735 16.046075 9.4074028 16.000945 9.4511719 15.955078 C 9.8051858 15.633624 10.277294 15.439453 10.800781 15.439453 z M 5 17 C 6.1164141 17 7 17.883586 7 19 C 7 20.116414 6.1164141 21 5 21 C 3.8835859 21 3 20.116414 3 19 C 3 17.883586 3.8835859 17 5 17 z "/>
</svg>
