<svg xmlns="http://www.w3.org/2000/svg" xmlns:svg="http://www.w3.org/2000/svg" width="24" height="24" viewBox="0 0 24 24" fill="currentColor" tags="table,rows,columns,blocks,plot,land,geometry,measure,size,width,height,distance,surface area,square meter,acre,window,skylight" categories="text,layout,design,math">
  <path d="M 5 2 C 3.3552972 2 2 3.3552972 2 5 L 2 12 L 2 19 C 2 20.644703 3.3552972 22 5 22 L 12 22 L 19 22 C 20.644703 22 22 20.644703 22 19 L 22 12 L 22 5 C 22 3.3552972 20.644703 2 19 2 L 12 2 L 5 2 z M 5 4 L 11 4 L 11 11 L 4 11 L 4 5 C 4 4.4287028 4.4287028 4 5 4 z M 13 4 L 19 4 C 19.571297 4 20 4.4287028 20 5 L 20 11 L 13 11 L 13 4 z M 4 13 L 11 13 L 11 20 L 5 20 C 4.4287028 20 4 19.571297 4 19 L 4 13 z M 13 13 L 20 13 L 20 19 C 20 19.571297 19.571297 20 19 20 L 13 20 L 13 13 z "/>
</svg>
