<?xml version="1.0" encoding="UTF-8" standalone="no"?>
<svg xmlns="http://www.w3.org/2000/svg" xmlns:svg="http://www.w3.org/2000/svg" width="24" height="24" viewBox="0 0 24 24" fill="currentColor" tags="table,rows,columns,data,blocks,plot,land,geometry,measure,size,width,height,distance,surface area,square meter,acre" categories="text,layout,math">
  <path d="M 5 2 C 3.3549904 2 2 3.3549904 2 5 L 2 12 L 2 19 C 2 20.64501 3.3549904 22 5 22 L 11 22 C 12.092725 22 13 21.092725 13 20 L 13 13 L 20 13 C 21.092725 13 22 12.092725 22 11 L 22 5 C 22 3.3549904 20.64501 2 19 2 L 12 2 L 5 2 z M 5 4 L 11 4 L 11 11 L 4 11 L 4 5 C 4 4.4358706 4.4358706 4 5 4 z M 13 4 L 19 4 C 19.564129 4 20 4.4358706 20 5 L 20 11 L 13 11 L 13 4 z M 4 13 L 11 13 L 11 20 L 5 20 C 4.4358706 20 4 19.564129 4 19 L 4 13 z M 16 15 A 1 1 0 0 0 15.292969 15.292969 A 1 1 0 0 0 15.292969 16.707031 L 17.085938 18.5 L 15.292969 20.292969 A 1 1 0 0 0 15.292969 21.707031 A 1 1 0 0 0 16.707031 21.707031 L 18.5 19.914062 L 20.292969 21.707031 A 1 1 0 0 0 21.707031 21.707031 A 1 1 0 0 0 21.707031 20.292969 L 19.914062 18.5 L 21.707031 16.707031 A 1 1 0 0 0 21.707031 15.292969 A 1 1 0 0 0 20.292969 15.292969 L 18.5 17.085938 L 16.707031 15.292969 A 1 1 0 0 0 16 15 z "/>
</svg>
