<svg xmlns="http://www.w3.org/2000/svg" xmlns:svg="http://www.w3.org/2000/svg" width="24" height="24" viewBox="0 0 24 24" fill="currentColor" tags="table,rows,columns,blocks,plot,land,geometry,measure,data,size,width,height,distance,surface area,square meter,acre" categories="text,layout,math">
  <path d="M 5 2 C 3.3549904 2 2 3.3549904 2 5 L 2 12 L 2 19 C 2 20.64501 3.3549904 22 5 22 L 11 22 C 12.092725 22 13 21.092725 13 20 L 13 13 L 20 13 C 21.092725 13 22 12.092725 22 11 L 22 5 C 22 3.3549904 20.64501 2 19 2 L 12 2 L 5 2 z M 5 4 L 11 4 L 11 11 L 4 11 L 4 5 C 4 4.4358706 4.4358706 4 5 4 z M 13 4 L 19 4 C 19.564129 4 20 4.4358706 20 5 L 20 11 L 13 11 L 13 4 z M 4 13 L 11 13 L 11 20 L 5 20 C 4.4358706 20 4 19.564129 4 19 L 4 13 z M 19 15 A 1 1 0 0 0 18 16 L 18 18 L 16 18 A 1 1 0 0 0 15 19 A 1 1 0 0 0 16 20 L 18 20 L 18 22 A 1 1 0 0 0 19 23 A 1 1 0 0 0 20 22 L 20 20 L 22 20 A 1 1 0 0 0 23 19 A 1 1 0 0 0 22 18 L 20 18 L 20 16 A 1 1 0 0 0 19 15 z "/>
</svg>
