<?xml version="1.0" encoding="UTF-8" standalone="no"?>
<svg xmlns="http://www.w3.org/2000/svg" xmlns:svg="http://www.w3.org/2000/svg" width="24" height="24" viewBox="0 0 24 24" fill="currentColor" tags="grab,dots,handle,move,drag" categories="layout">
  
  <path d="M 5 3 C 3.9072773 3 3 3.9072773 3 5 C 3 6.0927227 3.9072773 7 5 7 C 6.0927227 7 7 6.0927227 7 5 C 7 3.9072773 6.0927227 3 5 3 z M 12 3 C 10.907277 3 10 3.9072773 10 5 C 10 6.0927227 10.907277 7 12 7 C 13.092723 7 14 6.0927227 14 5 C 14 3.9072773 13.092723 3 12 3 z M 19 3 C 17.907277 3 17 3.9072773 17 5 C 17 6.0927227 17.907277 7 19 7 C 20.092723 7 21 6.0927227 21 5 C 21 3.9072773 20.092723 3 19 3 z M 5 10 C 3.9072773 10 3 10.907277 3 12 C 3 13.092723 3.9072773 14 5 14 C 6.0927227 14 7 13.092723 7 12 C 7 10.907277 6.0927227 10 5 10 z M 12 10 C 10.907277 10 10 10.907277 10 12 C 10 13.092723 10.907277 14 12 14 C 13.092723 14 14 13.092723 14 12 C 14 10.907277 13.092723 10 12 10 z M 19 10 C 17.907277 10 17 10.907277 17 12 C 17 13.092723 17.907277 14 19 14 C 20.092723 14 21 13.092723 21 12 C 21 10.907277 20.092723 10 19 10 z M 5 17 C 3.9072773 17 3 17.907277 3 19 C 3 20.092723 3.9072773 21 5 21 C 6.0927227 21 7 20.092723 7 19 C 7 17.907277 6.0927227 17 5 17 z M 12 17 C 10.907277 17 10 17.907277 10 19 C 10 20.092723 10.907277 21 12 21 C 13.092723 21 14 20.092723 14 19 C 14 17.907277 13.092723 17 12 17 z M 19 17 C 17.907277 17 17 17.907277 17 19 C 17 20.092723 17.907277 21 19 21 C 20.092723 21 21 20.092723 21 19 C 21 17.907277 20.092723 17 19 17 z "/>
</svg>
