<?xml version="1.0" encoding="UTF-8" standalone="no"?>
<svg xmlns="http://www.w3.org/2000/svg" xmlns:svg="http://www.w3.org/2000/svg" width="24" height="24" viewBox="0 0 24 24" fill="currentColor" tags="grab,dots,handle,move,drag" categories="layout">
  
  <path d="M 9 3 C 7.9072773 3 7 3.9072773 7 5 C 7 6.0927227 7.9072773 7 9 7 C 10.092723 7 11 6.0927227 11 5 C 11 3.9072773 10.092723 3 9 3 z M 15 3 C 13.907277 3 13 3.9072773 13 5 C 13 6.0927227 13.907277 7 15 7 C 16.092723 7 17 6.0927227 17 5 C 17 3.9072773 16.092723 3 15 3 z M 9 10 C 7.9072773 10 7 10.907277 7 12 C 7 13.092723 7.9072773 14 9 14 C 10.092723 14 11 13.092723 11 12 C 11 10.907277 10.092723 10 9 10 z M 15 10 C 13.907277 10 13 10.907277 13 12 C 13 13.092723 13.907277 14 15 14 C 16.092723 14 17 13.092723 17 12 C 17 10.907277 16.092723 10 15 10 z M 9 17 C 7.9072773 17 7 17.907277 7 19 C 7 20.092723 7.9072773 21 9 21 C 10.092723 21 11 20.092723 11 19 C 11 17.907277 10.092723 17 9 17 z M 15 17 C 13.907277 17 13 17.907277 13 19 C 13 20.092723 13.907277 21 15 21 C 16.092723 21 17 20.092723 17 19 C 17 17.907277 16.092723 17 15 17 z "/>
</svg>
