<svg xmlns="http://www.w3.org/2000/svg" xmlns:svg="http://www.w3.org/2000/svg" width="24" height="24" viewBox="0 0 24 24" fill="currentColor" tags="grab,dots,handle,move,drag" categories="layout">
  <path d="M 9 3 C 7.9072751 3 7 3.9072751 7 5 C 7 6.0927249 7.9072751 7 9 7 C 10.092725 7 11 6.0927249 11 5 C 11 3.9072751 10.092725 3 9 3 z M 15 3 C 13.907275 3 13 3.9072751 13 5 C 13 6.0927249 13.907275 7 15 7 C 16.092725 7 17 6.0927249 17 5 C 17 3.9072751 16.092725 3 15 3 z M 9 10 C 7.9072751 10 7 10.907275 7 12 C 7 13.092725 7.9072751 14 9 14 C 10.092725 14 11 13.092725 11 12 C 11 10.907275 10.092725 10 9 10 z M 15 10 C 13.907275 10 13 10.907275 13 12 C 13 13.092725 13.907275 14 15 14 C 16.092725 14 17 13.092725 17 12 C 17 10.907275 16.092725 10 15 10 z M 9 17 C 7.9072751 17 7 17.907275 7 19 C 7 20.092725 7.9072751 21 9 21 C 10.092725 21 11 20.092725 11 19 C 11 17.907275 10.092725 17 9 17 z M 15 17 C 13.907275 17 13 17.907275 13 19 C 13 20.092725 13.907275 21 15 21 C 16.092725 21 17 20.092725 17 19 C 17 17.907275 16.092725 17 15 17 z "/>
</svg>
