<svg xmlns="http://www.w3.org/2000/svg" xmlns:svg="http://www.w3.org/2000/svg" width="24" height="24" viewBox="0 0 24 24" fill="currentColor" tags="grab,dots,handle,move,drag" categories="layout">
  <path d="M 5 7 C 3.9072751 7 3 7.9072751 3 9 C 3 10.092725 3.9072751 11 5 11 C 6.0927249 11 7 10.092725 7 9 C 7 7.9072751 6.0927249 7 5 7 z M 12 7 C 10.907275 7 10 7.9072751 10 9 C 10 10.092725 10.907275 11 12 11 C 13.092725 11 14 10.092725 14 9 C 14 7.9072751 13.092725 7 12 7 z M 19 7 C 17.907275 7 17 7.9072751 17 9 C 17 10.092725 17.907275 11 19 11 C 20.092725 11 21 10.092725 21 9 C 21 7.9072751 20.092725 7 19 7 z M 5 13 C 3.9072751 13 3 13.907275 3 15 C 3 16.092725 3.9072751 17 5 17 C 6.0927249 17 7 16.092725 7 15 C 7 13.907275 6.0927249 13 5 13 z M 12 13 C 10.907275 13 10 13.907275 10 15 C 10 16.092725 10.907275 17 12 17 C 13.092725 17 14 16.092725 14 15 C 14 13.907275 13.092725 13 12 13 z M 19 13 C 17.907275 13 17 13.907275 17 15 C 17 16.092725 17.907275 17 19 17 C 20.092725 17 21 16.092725 21 15 C 21 13.907275 20.092725 13 19 13 z "/>
</svg>
