<?xml version="1.0" encoding="UTF-8" standalone="no"?>
<svg xmlns="http://www.w3.org/2000/svg" xmlns:svg="http://www.w3.org/2000/svg" width="24" height="24" viewBox="0 0 24 24" fill="currentColor" tags="cubes,packages,parts,units,collection,cluster,gather,dashed" categories="shapes,files">
  <path d="M 5 2 C 3.3545487 2 2 3.3545487 2 5 L 2 7 A 1 1 0 0 0 3 8 A 1 1 0 0 0 4 7 L 4 5 C 4 4.4454557 4.4454557 4 5 4 L 7 4 A 1 1 0 0 0 8 3 A 1 1 0 0 0 7 2 L 5 2 z M 17 2 A 1 1 0 0 0 16 3 A 1 1 0 0 0 17 4 L 19 4 C 19.554544 4 20 4.4454557 20 5 L 20 7 A 1 1 0 0 0 21 8 A 1 1 0 0 0 22 7 L 22 5 C 22 3.3545487 20.645451 2 19 2 L 17 2 z M 8 6 C 6.9092994 6 6 6.9092994 6 8 L 6 11 C 6 12.090701 6.9092994 13 8 13 L 9 13 L 9 16 C 9 17.090701 9.9092994 18 11 18 L 16 18 C 17.090701 18 18 17.090701 18 16 L 18 13 C 18 11.909299 17.090701 11 16 11 L 15 11 L 15 8 C 15 6.9092994 14.090701 6 13 6 L 8 6 z M 8 8 L 13 8 L 13 11 L 11 11 L 8 11 L 8 8 z M 11 13 L 13 13 L 16 13 L 16 16 L 11 16 L 11 13 z M 3 16 A 1 1 0 0 0 2 17 L 2 19 C 2 20.645451 3.3545487 22 5 22 L 7 22 A 1 1 0 0 0 8 21 A 1 1 0 0 0 7 20 L 5 20 C 4.4454557 20 4 19.554544 4 19 L 4 17 A 1 1 0 0 0 3 16 z M 21 16 A 1 1 0 0 0 20 17 L 20 19 C 20 19.554544 19.554544 20 19 20 L 17 20 A 1 1 0 0 0 16 21 A 1 1 0 0 0 17 22 L 19 22 C 20.645451 22 22 20.645451 22 19 L 22 17 A 1 1 0 0 0 21 16 z "/>
</svg>
