<svg xmlns="http://www.w3.org/2000/svg" xmlns:svg="http://www.w3.org/2000/svg" width="24" height="24" viewBox="0 0 24 24" fill="currentColor" tags="acoustic,instrument,strings,riff,rock,band,country,concert,performance,play,lead,loud,music,audio,sound,noise" categories="multimedia">
  <path d="M 19.400391 1.0195312 C 18.892827 1.0195312 18.384872 1.2086877 18 1.5859375 A 1.0001 1.0001 0 0 0 17.992188 1.59375 L 16.878906 2.7070312 C 16.31653 3.2692378 16.00017 4.0329246 16 4.828125 L 16 6.171875 C 15.999943 6.4374388 15.894832 6.6911452 15.707031 6.8789062 L 14.472656 8.1132812 C 13.491133 7.4128184 12.291709 7 11 7 C 9.3864384 7.0004466 7.9251725 7.9764951 7.3066406 9.4667969 A 1.0001 1.0001 0 0 0 7.3066406 9.46875 L 6.9277344 10.384766 C 6.770973 10.760554 6.409127 11.000848 6.0019531 11 A 1.0001 1.0001 0 0 0 6 11 C 3.2504209 11 1 13.250421 1 16 C 1 19.854149 4.1458514 23 8 23 C 10.749579 23 13 20.749579 13 18 A 1.0001 1.0001 0 0 0 13 17.998047 C 12.999152 17.590873 13.239446 17.229027 13.615234 17.072266 L 14.53125 16.693359 A 1.0001 1.0001 0 0 0 14.533203 16.693359 C 16.023458 16.074874 16.999553 14.613562 17 13 C 17 11.708291 16.587182 10.508867 15.886719 9.5273438 L 17.121094 8.2929688 C 17.308855 8.1051678 17.562561 8.0000567 17.828125 8 L 19.171875 8 C 19.967075 7.9998302 20.730762 7.6834704 21.292969 7.1210938 L 22.40625 6.0078125 A 1.0001 1.0001 0 0 0 22.414062 6 C 23.168563 5.2302565 23.168563 3.9689622 22.414062 3.1992188 A 1.0001 1.0001 0 0 0 22.40625 3.1933594 L 20.806641 1.59375 A 1.0001 1.0001 0 0 0 20.800781 1.5859375 C 20.415949 1.2086852 19.907955 1.0195313 19.400391 1.0195312 z M 19.398438 3.015625 L 20.986328 4.5996094 L 20.984375 4.6015625 L 19.878906 5.7070312 C 19.691235 5.8948553 19.437454 5.9999433 19.171875 6 L 18 6 L 18 4.828125 C 18.000057 4.5625462 18.105148 4.308858 18.292969 4.1210938 L 19.398438 3.015625 z M 11 9 C 11.745142 9 12.440004 9.2007792 13.035156 9.5507812 L 11.193359 11.392578 A 1 1 0 0 0 11.193359 12.806641 A 1 1 0 0 0 12.607422 12.806641 L 14.449219 10.964844 C 14.799221 11.559996 15 12.254858 15 13 C 14.999776 13.811071 14.516692 14.534793 13.767578 14.845703 L 12.847656 15.226562 A 1.0001 1.0001 0 0 0 12.845703 15.226562 C 11.728967 15.692431 10.99748 16.791899 11 18.001953 C 10.998954 19.669731 9.6680432 21 8 21 C 5.2267316 21 3 18.773268 3 16 C 3 14.331957 4.3302689 13.001046 5.9980469 13 C 7.2081013 13.0025 8.3075682 12.27108 8.7734375 11.154297 A 1.0001 1.0001 0 0 0 8.7734375 11.152344 L 9.1542969 10.232422 C 9.4652074 9.4833084 10.188929 9.0002245 11 9 z M 6 15 A 1 1 0 0 0 5.2929688 15.292969 A 1 1 0 0 0 5.2929688 16.707031 L 7.2929688 18.707031 A 1 1 0 0 0 8.7070312 18.707031 A 1 1 0 0 0 8.7070312 17.292969 L 6.7070312 15.292969 A 1 1 0 0 0 6 15 z "/>
</svg>
