<?xml version="1.0" encoding="UTF-8" standalone="no"?>
<svg xmlns="http://www.w3.org/2000/svg" xmlns:svg="http://www.w3.org/2000/svg" width="24" height="24" viewBox="0 0 24 24" fill="currentColor" tags="acoustic,instrument,strings,riff,rock,band,country,concert,performance,play,lead,loud,music,audio,sound,noise" categories="multimedia">
  <path d="m 15.707031,6.8789062 -4.513672,4.5136718 a 1,1 0 0 0 0,1.414063 1,1 0 0 0 1.414063,0 l 4.513672,-4.5136722 a 1,1 0 0 0 0,-1.4140626 1,1 0 0 0 -1.414063,0 z"/>
  <path style="fill:#000000" d="m 19.400391,1.0195312 c -0.507564,0 -1.015519,0.1891565 -1.400391,0.5664063 a 1.0001,1.0001 0 0 0 -0.0078,0.00781 L 16.878906,2.7070313 C 16.31653,3.2692379 16.00017,4.0329246 16,4.828125 v 1.34375 c -5.7e-5,0.2655788 -0.105148,0.519267 -0.292969,0.7070312 a 1.0001,1.0001 0 0 0 1.414063,1.4140626 C 17.308858,8.1051478 17.562546,8.0000567 17.828125,8 h 1.34375 c 0.7952,-1.698e-4 1.558887,-0.3165297 2.121094,-0.8789063 L 22.40625,6.0078125 A 1.0001,1.0001 0 0 0 22.414062,6 c 0.7545,-0.7697435 0.7545,-2.0310377 0,-2.8007812 a 1.0001,1.0001 0 0 0 -0.0078,-0.00586 L 20.806641,1.59375 a 1.0001,1.0001 0 0 0 -0.0059,-0.00781 C 20.415909,1.2086877 19.907955,1.0195312 19.400391,1.0195312 Z m -0.002,1.9960938 1.587891,1.5839844 -0.002,0.00195 -1.105469,1.1054687 C 19.691142,5.8948522 19.437454,5.9999433 19.171875,6 H 18 V 4.828125 c 5.7e-5,-0.2655788 0.105148,-0.519267 0.292969,-0.7070313 z" id="path2" stroke-width="0"/>
  <path style="fill:#000000" d="m 6,15 a 1,1 0 0 0 -0.7070313,0.292969 1,1 0 0 0 0,1.414062 l 2,2 a 1,1 0 0 0 1.4140626,0 1,1 0 0 0 0,-1.414062 l -2.0000001,-2 A 1,1 0 0 0 6,15 Z" id="path3" stroke-width="0"/>
  <path style="fill:#000000" d="M 11,7 C 9.3555556,7 7.9421129,8.0496172 7.2890625,9.4863281 a 1.0001,1.0001 0 0 0 -0.00195,0.00781 L 6.8867187,10.394531 a 1.0001,1.0001 0 0 0 -0.00391,0.0059 C 6.7252112,10.761648 6.3784594,10.993467 5.984375,11 H 6 c -2.7495791,0 -5,2.250421 -5,5 0,3.845455 3.1545455,7 7,7 2.749579,0 5,-2.250421 5,-5 v 0.01563 c 0.0065,-0.394084 0.238352,-0.740836 0.599609,-0.898438 a 1.0001,1.0001 0 0 0 0.0059,-0.0039 l 0.90039,-0.40039 a 1.0001,1.0001 0 0 0 0.0078,-0.002 C 15.950383,16.057887 17,14.644444 17,13 17,9.6761905 14.32381,7 11,7 Z m 0,2 c 2.27619,0 4,1.72381 4,4 0,0.755556 -0.551164,1.541722 -1.314453,1.888672 l 0.0078,-0.002 -0.892578,0.396484 c -4.75e-4,2.08e-4 -0.0015,-2.08e-4 -0.002,0 C 11.724918,15.752369 11.019426,16.812525 11,17.984375 A 1.0001,1.0001 0 0 0 11,18 c 0,1.668699 -1.3313011,3 -3,3 -2.7545455,0 -5,-2.245455 -5,-5 0,-1.668699 1.3313011,-3 3,-3 a 1.0001,1.0001 0 0 0 0.015625,0 c 1.1718501,-0.01943 2.2320065,-0.724918 2.7011719,-1.798828 l 0.3964844,-0.894531 -0.00195,0.0078 C 9.4582777,9.551164 10.244444,9 11,9 Z" id="path4" stroke-width="0"/>
  <g id="circle4" stroke-width="0">
    <path style="fill:currentColor" d="M 12,12.5 A 0.5,0.5 0 0 1 11.5,13 0.5,0.5 0 0 1 11,12.5 0.5,0.5 0 0 1 11.5,12 0.5,0.5 0 0 1 12,12.5 Z" id="path5"/>
    <path style="fill:#000000" d="M 11.5,11 C 10.683418,11 10,11.683418 10,12.5 10,13.316582 10.683418,14 11.5,14 12.316582,14 13,13.316582 13,12.5 13,11.683418 12.316582,11 11.5,11 Z m 0,1 C 11.764298,12 12,12.235702 12,12.5 12,12.764298 11.764298,13 11.5,13 11.235702,13 11,12.764298 11,12.5 11,12.235702 11.235702,12 11.5,12 Z" id="path6"/>
  </g>
</svg>
