<svg xmlns="http://www.w3.org/2000/svg" xmlns:svg="http://www.w3.org/2000/svg" width="24" height="24" viewBox="0 0 24 24" fill="currentColor" tags="food,pork,pig,meat,bone,hock,knuckle,gammon,cured" categories="food-beverage">
  <path d="M 18.431641 1.3652344 C 17.898223 1.356199 17.369373 1.4611731 16.871094 1.6386719 C 16.073846 1.9226699 15.333037 2.3992976 14.841797 3.1328125 C 14.491275 3.6562088 14.425046 4.3546289 14.535156 5.0507812 L 13.296875 6.2910156 C 12.085308 5.9481694 10.749917 5.9145331 9.4101562 6.1542969 C 7.0523529 6.5762494 4.6317498 7.8468025 2.5410156 9.8066406 C 2.4056689 9.9115043 2.2740469 10.022828 2.1484375 10.148438 C 0.82490906 11.471965 0.67421892 13.370635 1.1914062 15.070312 C 1.7085937 16.76999 2.8267374 18.412675 4.2070312 19.792969 C 5.5873251 21.173263 7.2300103 22.291406 8.9296875 22.808594 C 10.629365 23.325781 12.528034 23.175091 13.851562 21.851562 C 13.978969 21.724156 14.093098 21.5905 14.199219 21.453125 C 16.155754 19.363763 17.424162 16.945351 17.845703 14.589844 C 18.085392 13.250498 18.051532 11.916346 17.708984 10.705078 L 18.951172 9.4628906 C 19.650549 9.5823798 20.353965 9.5191866 20.880859 9.1679688 C 21.620571 8.6748886 22.099816 7.9280396 22.384766 7.125 C 22.669715 6.3219604 22.769334 5.4408477 22.505859 4.5917969 C 22.295111 3.9126559 21.698974 3.3559118 20.958984 3.03125 C 20.624497 2.3030849 20.066157 1.7198848 19.390625 1.5136719 C 19.073993 1.4170169 18.751691 1.3706556 18.431641 1.3652344 z M 18.240234 3.3789062 C 18.46151 3.364601 18.660949 3.3813073 18.806641 3.4257812 C 19.098024 3.5147292 19.194992 3.5703883 19.269531 3.9453125 A 1.0001 1.0001 0 0 0 20.074219 4.734375 C 20.457456 4.802522 20.505868 4.8940977 20.595703 5.1835938 C 20.685543 5.4730899 20.66729 5.9855708 20.5 6.4570312 C 20.332708 6.9284919 20.023701 7.3357835 19.771484 7.5039062 C 19.519268 7.6720292 19.424461 7.7140459 19.083984 7.5253906 A 1.0001 1.0001 0 0 0 17.892578 7.6933594 L 16.814453 8.7714844 C 16.604043 8.4647849 16.36348 8.1759802 16.09375 7.90625 C 15.8242 7.6366997 15.534988 7.3978087 15.228516 7.1875 L 16.296875 6.1171875 A 1.0001 1.0001 0 0 0 16.472656 4.9414062 C 16.293374 4.603794 16.33438 4.4992282 16.503906 4.2460938 C 16.673432 3.9929594 17.077215 3.6873966 17.542969 3.5214844 C 17.775845 3.4385283 18.018959 3.3932115 18.240234 3.3789062 z M 11.542969 8.0078125 C 12.103322 8.0416568 12.628526 8.1475351 13.107422 8.3242188 A 1 1 0 0 0 13.296875 8.3984375 C 13.819803 8.6177493 14.285114 8.9257391 14.679688 9.3203125 C 15.073322 9.7139474 15.380399 10.17781 15.599609 10.699219 A 1 1 0 0 0 15.679688 10.900391 C 16.03094 11.856804 16.099943 12.992249 15.876953 14.238281 C 15.709333 15.174918 15.370116 16.16043 14.867188 17.136719 C 14.848551 17.067641 14.829432 16.998169 14.808594 16.929688 C 14.291406 15.230011 13.173263 13.587325 11.792969 12.207031 C 10.412675 10.826737 8.7699897 9.7085935 7.0703125 9.1914062 C 7.001824 9.1705662 6.9323632 9.1514414 6.8632812 9.1328125 C 7.8395762 8.6298791 8.8250763 8.2906684 9.7617188 8.1230469 C 10.386173 8.0112944 10.982615 7.9739682 11.542969 8.0078125 z M 5.203125 10.888672 C 5.5903757 10.88716 6.0164323 10.961879 6.4882812 11.105469 C 7.7465452 11.48834 9.1872004 12.429388 10.378906 13.621094 C 11.570612 14.8128 12.51166 16.253455 12.894531 17.511719 C 13.229544 18.6127 13.190522 19.464568 12.683594 20.152344 C 12.595617 20.245275 12.528873 20.346127 12.4375 20.4375 C 11.703146 21.171854 10.769983 21.277403 9.5117188 20.894531 C 8.2534548 20.51166 6.8127999 19.570612 5.6210938 18.378906 C 4.4293876 17.1872 3.4883403 15.746545 3.1054688 14.488281 C 2.7225971 13.230017 2.8281465 12.296854 3.5625 11.5625 C 3.9296768 11.195323 4.3461014 10.986589 4.828125 10.916016 C 4.9486309 10.898373 5.0740414 10.889176 5.203125 10.888672 z M 7.5 14.5 A 1 1 0 0 0 6.7929688 14.792969 A 1 1 0 0 0 6.7929688 16.207031 L 7.7929688 17.207031 A 1 1 0 0 0 9.2070312 17.207031 A 1 1 0 0 0 9.2070312 15.792969 L 8.2070312 14.792969 A 1 1 0 0 0 7.5 14.5 z "/>
</svg>
