<?xml version="1.0" encoding="UTF-8" standalone="no"?>
<svg xmlns="http://www.w3.org/2000/svg" xmlns:svg="http://www.w3.org/2000/svg" width="24" height="24" viewBox="0 0 24 24" fill="currentColor" tags="food,pork,pig,meat,bone,hock,knuckle,gammon,cured" categories="food-beverage">
  <path d="M 18.431641 1.3652344 C 17.898223 1.356199 17.369372 1.4611735 16.871094 1.6386719 C 16.073848 1.9226693 15.333036 2.399299 14.841797 3.1328125 C 14.491275 3.6562078 14.425046 4.3546303 14.535156 5.0507812 L 13.292969 6.2929688 C 12.082176 5.9508932 10.748841 5.9147258 9.4101562 6.1542969 C 6.9077862 6.602121 4.321214 7.9756605 2.1484375 10.148438 C 0.8249117 11.471963 0.67421995 13.370638 1.1914062 15.070312 C 1.7085926 16.769986 2.8267402 18.412677 4.2070312 19.792969 C 5.5873224 21.173259 7.2300137 22.291407 8.9296875 22.808594 C 10.629361 23.32578 12.528036 23.175089 13.851562 21.851562 C 16.024338 19.678787 17.397879 17.092213 17.845703 14.589844 C 18.085274 13.251159 18.049107 11.917825 17.707031 10.707031 L 18.951172 9.4628906 C 19.650547 9.5823796 20.353967 9.5191862 20.880859 9.1679688 C 21.62057 8.6748896 22.099816 7.928038 22.384766 7.125 C 22.669714 6.321962 22.769334 5.440846 22.505859 4.5917969 C 22.295112 3.9126573 21.698973 3.3559111 20.958984 3.03125 C 20.624498 2.3030863 20.066155 1.7198844 19.390625 1.5136719 C 19.073994 1.4170171 18.751691 1.3706556 18.431641 1.3652344 z M 18.402344 3.3730469 C 18.558627 3.3740332 18.697372 3.3924259 18.806641 3.4257812 C 19.098023 3.5147292 19.194992 3.5703891 19.269531 3.9453125 A 1.0001 1.0001 0 0 0 20.074219 4.734375 C 20.457455 4.8025219 20.505868 4.8940983 20.595703 5.1835938 C 20.685543 5.4730893 20.66729 5.9855717 20.5 6.4570312 C 20.332708 6.9284909 20.023701 7.3357838 19.771484 7.5039062 C 19.519269 7.6720288 19.424461 7.7140455 19.083984 7.5253906 A 1.0001 1.0001 0 0 0 17.892578 7.6933594 L 16.810547 8.7753906 C 16.600024 8.4684384 16.36368 8.1761801 16.09375 7.90625 C 15.82382 7.6363199 15.531562 7.3999759 15.224609 7.1894531 L 16.296875 6.1171875 A 1.0001 1.0001 0 0 0 16.472656 4.9414062 C 16.293374 4.6037947 16.33438 4.4992277 16.503906 4.2460938 C 16.673432 3.9929599 17.077216 3.6873962 17.542969 3.5214844 C 17.834064 3.4177894 18.141871 3.3714031 18.402344 3.3730469 z M 11.226562 7.9960938 C 12.626977 8.0130496 13.82011 8.4607349 14.679688 9.3203125 C 15.109476 9.7501013 15.436562 10.262965 15.658203 10.84375 A 1 1 0 0 0 15.673828 10.888672 C 16.028893 11.847564 16.10087 12.98707 15.876953 14.238281 C 15.709272 15.175256 15.368464 16.160083 14.865234 17.136719 C 14.847053 17.067518 14.829531 16.998495 14.808594 16.929688 C 14.291407 15.230014 13.173259 13.587323 11.792969 12.207031 C 10.412677 10.826741 8.7699863 9.7085925 7.0703125 9.1914062 C 7.0022072 9.1706828 6.9339267 9.1513497 6.8652344 9.1328125 C 7.841104 8.6302476 8.8254931 8.2905938 9.7617188 8.1230469 C 10.269907 8.0321015 10.759758 7.9904418 11.226562 7.9960938 z M 5.203125 10.888672 C 5.5903754 10.88716 6.0164333 10.961879 6.4882812 11.105469 C 7.7465426 11.488339 9.1872027 12.42939 10.378906 13.621094 C 11.57061 14.812798 12.511661 16.253457 12.894531 17.511719 C 13.277402 18.769979 13.171852 19.703148 12.4375 20.4375 C 11.703148 21.171852 10.76998 21.277402 9.5117188 20.894531 C 8.2534574 20.511661 6.8127976 19.57061 5.6210938 18.378906 C 4.42939 17.187202 3.4883396 15.746543 3.1054688 14.488281 C 2.7225978 13.230021 2.8281479 12.296852 3.5625 11.5625 C 3.929676 11.195324 4.3461023 10.986589 4.828125 10.916016 C 4.9486307 10.898373 5.0740415 10.889176 5.203125 10.888672 z M 7.5 14.5 A 1 1 0 0 0 6.7929688 14.792969 A 1 1 0 0 0 6.7929688 16.207031 L 7.7929688 17.207031 A 1 1 0 0 0 9.2070312 17.207031 A 1 1 0 0 0 9.2070312 15.792969 L 8.2070312 14.792969 A 1 1 0 0 0 7.5 14.5 z "/>
</svg>
