<?xml version="1.0" encoding="UTF-8" standalone="no"?>
<svg xmlns="http://www.w3.org/2000/svg" xmlns:svg="http://www.w3.org/2000/svg" width="24" height="24" viewBox="0 0 24 24" fill="currentColor" tags="food,pork,pig,meat,bone,hock,knuckle,gammon,cured" categories="food-beverage">
  <path d="M 18.431641 1.3652344 C 17.898223 1.356199 17.369373 1.4611731 16.871094 1.6386719 C 16.073846 1.9226699 15.333037 2.3992976 14.841797 3.1328125 C 14.491275 3.6562088 14.425046 4.3546289 14.535156 5.0507812 L 13.292969 6.2929688 C 12.082175 5.950893 10.748844 5.9147253 9.4101562 6.1542969 C 6.9077811 6.602122 4.3212184 7.9756561 2.1484375 10.148438 C 0.82490906 11.471965 0.67421892 13.370635 1.1914062 15.070312 C 1.7085937 16.76999 2.8267374 18.412675 4.2070312 19.792969 C 5.5873251 21.173263 7.2300103 22.291406 8.9296875 22.808594 C 10.629365 23.325781 12.528034 23.175091 13.851562 21.851562 C 16.024343 19.678783 17.397878 17.092219 17.845703 14.589844 C 18.085275 13.251156 18.049107 11.917825 17.707031 10.707031 L 18.951172 9.4628906 C 19.650549 9.5823798 20.353965 9.5191866 20.880859 9.1679688 C 21.620571 8.6748886 22.099816 7.9280396 22.384766 7.125 C 22.669715 6.3219604 22.769334 5.4408477 22.505859 4.5917969 C 22.295111 3.9126559 21.698974 3.3559118 20.958984 3.03125 C 20.624497 2.3030849 20.066157 1.7198848 19.390625 1.5136719 C 19.073993 1.4170169 18.751691 1.3706556 18.431641 1.3652344 z M 18.402344 3.3730469 C 18.558628 3.3740332 18.697372 3.3924258 18.806641 3.4257812 C 19.098024 3.5147292 19.194992 3.5703883 19.269531 3.9453125 A 1.0001 1.0001 0 0 0 20.074219 4.734375 C 20.457456 4.802522 20.505868 4.8940977 20.595703 5.1835938 C 20.685543 5.4730899 20.66729 5.9855708 20.5 6.4570312 C 20.332708 6.9284919 20.023701 7.3357835 19.771484 7.5039062 C 19.519268 7.6720292 19.424461 7.7140459 19.083984 7.5253906 A 1.0001 1.0001 0 0 0 17.892578 7.6933594 L 16.810547 8.7753906 C 16.600024 8.4684381 16.363681 8.1761806 16.09375 7.90625 C 15.823819 7.6363194 15.531562 7.3999762 15.224609 7.1894531 L 16.296875 6.1171875 A 1.0001 1.0001 0 0 0 16.472656 4.9414062 C 16.293374 4.603794 16.33438 4.4992282 16.503906 4.2460938 C 16.673432 3.9929594 17.077215 3.6873966 17.542969 3.5214844 C 17.834064 3.4177892 18.141871 3.3714031 18.402344 3.3730469 z M 11.226562 7.9960938 C 12.626979 8.0130491 13.820107 8.4607325 14.679688 9.3203125 C 15.109477 9.7501024 15.436561 10.262965 15.658203 10.84375 A 1 1 0 0 0 15.673828 10.888672 C 16.028893 11.847565 16.10087 12.987067 15.876953 14.238281 C 15.709272 15.175257 15.368464 16.160082 14.865234 17.136719 C 14.847053 17.067518 14.829531 16.998495 14.808594 16.929688 C 14.291406 15.230011 13.173263 13.587325 11.792969 12.207031 C 10.412675 10.826737 8.7699897 9.7085935 7.0703125 9.1914062 C 7.0022071 9.1706827 6.9339269 9.1513497 6.8652344 9.1328125 C 7.8411045 8.6302473 8.8254912 8.2905942 9.7617188 8.1230469 C 10.269908 8.0321014 10.759757 7.990442 11.226562 7.9960938 z M 5.203125 10.888672 C 5.5903757 10.88716 6.0164323 10.961879 6.4882812 11.105469 C 7.7465452 11.48834 9.1872004 12.429388 10.378906 13.621094 C 11.570612 14.8128 12.51166 16.253455 12.894531 17.511719 C 13.277403 18.769983 13.171854 19.703146 12.4375 20.4375 C 11.703146 21.171854 10.769983 21.277403 9.5117188 20.894531 C 8.2534548 20.51166 6.8127999 19.570612 5.6210938 18.378906 C 4.4293876 17.1872 3.4883403 15.746545 3.1054688 14.488281 C 2.7225971 13.230017 2.8281465 12.296854 3.5625 11.5625 C 3.9296768 11.195323 4.3461014 10.986589 4.828125 10.916016 C 4.9486309 10.898373 5.0740414 10.889176 5.203125 10.888672 z M 7.5 14.5 A 1 1 0 0 0 6.7929688 14.792969 A 1 1 0 0 0 6.7929688 16.207031 L 7.7929688 17.207031 A 1 1 0 0 0 9.2070312 17.207031 A 1 1 0 0 0 9.2070312 15.792969 L 8.2070312 14.792969 A 1 1 0 0 0 7.5 14.5 z "/>
</svg>
