<?xml version="1.0" encoding="UTF-8" standalone="no"?>
<svg xmlns="http://www.w3.org/2000/svg" xmlns:svg="http://www.w3.org/2000/svg" width="24" height="24" viewBox="0 0 24 24" fill="currentColor" tags="burger,cheeseburger,meat,beef,patty,bun,fast food,junk food,takeaway,takeout,snack,dish,restaurant,lunch,meal,savory,savoury,cookery,cooking,grilled,barbecue,barbeque,bbq,lettuce,tomato,relish,pickles,onions,ketchup,mustard,mayonnaise" categories="food-beverage">
  <path d="M 12 2 C 9.3045479 2 6.844739 2.843633 5.0214844 4.2617188 C 3.1982297 5.6798046 2 7.7195765 2 10 C 2 10.522062 2.1360971 11.015712 2.375 11.445312 C 2.1378078 11.589429 1.9277951 11.763115 1.7519531 11.960938 C 1.2353472 12.542118 1 13.277778 1 14 C 1 14.722222 1.2353472 15.457881 1.7519531 16.039062 C 1.9277951 16.236885 2.1378078 16.410571 2.375 16.554688 C 2.1360971 16.984288 2 17.477938 2 18 C 2 20.197294 3.8027056 22 6 22 L 18 22 C 20.197294 22 22 20.197294 22 18 C 22 17.477938 21.863903 16.984288 21.625 16.554688 C 21.862192 16.410571 22.072205 16.236885 22.248047 16.039062 C 22.764653 15.457881 23 14.722222 23 14 C 23 13.277778 22.764653 12.542119 22.248047 11.960938 C 22.072205 11.763115 21.862192 11.589429 21.625 11.445312 C 21.863903 11.015712 22 10.522062 22 10 C 22 7.7195765 20.80177 5.6798046 18.978516 4.2617188 C 17.155261 2.8436331 14.695452 2 12 2 z M 12 4 C 14.275111 4 16.315895 4.72443 17.75 5.8398438 C 19.184105 6.9552575 20 8.4144276 20 10 C 20 10.564129 19.564129 11 19 11 L 18.783203 11 L 18.716797 11 L 6.6914062 11 L 6.6484375 11 L 5 11 C 4.4358706 11 4 10.564129 4 10 C 4 8.4144276 4.8158953 6.9552575 6.25 5.8398438 C 7.6841047 4.72443 9.7248895 4 12 4 z M 4 13 L 6.3359375 13 L 9 15 L 4 15 C 3.5833337 15 3.3981073 14.879756 3.2480469 14.710938 C 3.0979864 14.542118 3 14.277778 3 14 C 3 13.722222 3.0979864 13.45788 3.2480469 13.289062 C 3.3981073 13.120243 3.5833337 13 4 13 z M 9.6679688 13 L 16.75 13 L 14.966797 15.378906 L 14.949219 15.402344 A 1 1 0 0 0 14.931641 15.425781 L 14.800781 15.599609 C 14.462304 16.050913 13.851694 16.139259 13.400391 15.800781 L 12.611328 15.208984 L 12.607422 15.205078 A 1 1 0 0 0 12.59375 15.195312 L 9.6679688 13 z M 19.25 13 L 20 13 C 20.416666 13 20.601893 13.120244 20.751953 13.289062 C 20.902014 13.45788 21 13.722222 21 14 C 21 14.277778 20.90201 14.542119 20.751953 14.710938 C 20.601893 14.879755 20.416666 15 20 15 L 17.75 15 L 19.25 13 z M 5 17 L 11.666016 17 L 12.199219 17.400391 C 13.445909 18.335408 15.214306 18.141807 16.236328 17 L 19 17 C 19.564129 17 20 17.435871 20 18 C 20 19.116414 19.116414 20 18 20 L 6 20 C 4.8835859 20 4 19.116414 4 18 C 4 17.435871 4.4358706 17 5 17 z "/>
</svg>
