<?xml version="1.0" encoding="UTF-8" standalone="no"?>
<svg xmlns="http://www.w3.org/2000/svg" xmlns:svg="http://www.w3.org/2000/svg" width="24" height="24" viewBox="0 0 24 24" fill="currentColor" tags="mallet,nails,diy,toolbox,build,construction" categories="tools,home">
  
  <path d="M 9 1.9609375 A 1.0001 1.0001 0 0 0 8.3339844 3.7070312 L 9.2539062 4.5273438 A 1.0001 1.0001 0 0 0 9.2558594 4.5273438 C 10.364157 5.5100205 10.999014 6.9191851 11 8.4003906 L 11 8.5859375 L 2.7929688 16.792969 C 1.5811155 18.003313 1.5811155 19.996687 2.7929688 21.207031 C 4.0034976 22.41756 5.9965024 22.41756 7.2070312 21.207031 L 15.453125 12.960938 L 16.103516 12.960938 L 17.275391 13.951172 L 16.933594 14.292969 A 1 1 0 0 0 16.933594 15.707031 A 1 1 0 0 0 18.347656 15.707031 L 22.707031 11.347656 A 1 1 0 0 0 22.707031 9.9335938 A 1 1 0 0 0 21.292969 9.9335938 L 20.925781 10.300781 L 20.367188 9.7421875 C 19.951822 9.3268187 19.730469 8.790394 19.730469 8.1992188 L 19.730469 7.3398438 A 1.0001 1.0001 0 0 0 19.439453 6.6347656 L 16.71875 3.8945312 C 15.488567 2.6571324 13.815163 1.9618773 12.070312 1.9609375 L 9 1.9609375 z M 11.267578 3.9609375 L 12.070312 3.9609375 C 13.283857 3.9615911 14.445188 4.4440756 15.300781 5.3046875 L 17.730469 7.7519531 L 17.730469 8.1992188 C 17.730469 9.30804 18.168493 10.371618 18.953125 11.15625 L 19.511719 11.714844 L 18.695312 12.53125 L 17.115234 11.195312 A 1.0001 1.0001 0 0 0 16.470703 10.960938 L 14.414062 10.960938 L 13 9.5449219 L 13 9 L 13 8.4003906 A 1.0001 1.0001 0 0 0 13 8.3984375 C 12.9989 6.7398661 12.298937 5.2303937 11.267578 3.9609375 z M 11.519531 10.894531 L 13.105469 12.480469 L 5.7929688 19.792969 C 5.3435011 20.242436 4.656499 20.242436 4.2070312 19.792969 C 3.7605737 19.347067 3.7605737 18.652933 4.2070312 18.207031 L 11.519531 10.894531 z "/>
</svg>
