<?xml version="1.0" encoding="UTF-8" standalone="no"?>
<svg xmlns="http://www.w3.org/2000/svg" xmlns:svg="http://www.w3.org/2000/svg" width="24" height="24" viewBox="0 0 24 24" fill="currentColor" tags="mallet,nails,diy,toolbox,build,construction" categories="tools,home">
  <path d="M 9.0058594 1.9609375 A 1.0001 1.0001 0 0 0 8.3339844 3.7070312 L 9.2539062 4.5273438 A 1.0001 1.0001 0 0 0 9.2558594 4.5273438 C 10.364157 5.5100205 10.999014 6.9191851 11 8.4003906 L 11 8.5859375 L 2.9199219 16.666016 C 2.2431467 17.342791 1.9252071 18.218756 1.9726562 19.025391 C 2.0201052 19.832025 2.3877881 20.547945 2.9199219 21.080078 C 3.4520555 21.612212 4.1679751 21.979894 4.9746094 22.027344 C 5.7812437 22.074794 6.6572092 21.756853 7.3339844 21.080078 L 15.388672 13.025391 C 15.57251 13.066387 15.743418 13.15744 15.878906 13.292969 L 17.121094 14.535156 A 1 1 0 0 0 17.292969 15.707031 A 1 1 0 0 0 18.707031 15.707031 L 19.207031 15.207031 L 22.207031 12.207031 L 22.707031 11.707031 A 1 1 0 0 0 22.707031 10.292969 A 1 1 0 0 0 21.535156 10.121094 L 20.292969 8.8789062 C 20.105148 8.6911423 20.000057 8.4374533 20 8.171875 L 20 7 A 1.0001 1.0001 0 0 0 19.707031 6.2929688 L 17.447266 4.0332031 C 16.146156 2.7328478 14.384396 1.9964577 12.544922 1.984375 L 9.0058594 1.9609375 z M 11.279297 3.9765625 L 12.53125 3.984375 C 13.845791 3.993005 15.103393 4.5179948 16.033203 5.4472656 L 18 7.4140625 L 18 8.171875 C 18.00017 8.9670738 18.316531 9.7307629 18.878906 10.292969 L 20.085938 11.5 L 18.5 13.085938 L 17.292969 11.878906 C 16.730763 11.316531 15.967074 11.00017 15.171875 11 L 15 11 L 14.414062 11 L 13 9.5859375 L 13 9 L 13 8.4003906 A 1.0001 1.0001 0 0 0 13 8.3984375 C 12.9989 6.7465211 12.30287 5.2435232 11.279297 3.9765625 z M 11.5 10.914062 L 13.085938 12.5 L 5.9199219 19.666016 C 5.5966995 19.989237 5.3476602 20.046301 5.0917969 20.03125 C 4.8359335 20.016199 4.5518492 19.88388 4.3339844 19.666016 C 4.1161196 19.448151 3.9838009 19.164067 3.96875 18.908203 C 3.9536991 18.65234 4.010762 18.403301 4.3339844 18.080078 L 11.5 10.914062 z "/>
</svg>
