<?xml version="1.0" encoding="UTF-8" standalone="no"?>
<svg xmlns="http://www.w3.org/2000/svg" xmlns:svg="http://www.w3.org/2000/svg" width="24" height="24" viewBox="0 0 24 24" fill="currentColor" tags="mallet,nails,diy,toolbox,build,construction" categories="tools,home">
  <path d="M 9 2 A 1.0001 1.0001 0 0 0 8.2929688 3.7070312 L 9.5351562 4.9492188 C 10.472869 5.8870903 10.999938 7.1581367 11 8.484375 L 11 8.5859375 L 1.9179688 17.666016 C 1.2412217 18.342988 0.92311413 19.218674 0.97070312 20.025391 C 1.0182921 20.832107 1.3876359 21.54797 1.9199219 22.080078 C 2.4522078 22.612187 3.167877 22.980024 3.9746094 23.027344 C 4.7813417 23.074664 5.6572373 22.757051 6.3339844 22.080078 L 15.390625 13.023438 C 15.574367 13.064462 15.74348 13.157501 15.878906 13.292969 L 17.117188 14.53125 A 1 1 0 0 0 17.292969 15.707031 A 1 1 0 0 0 18.707031 15.707031 L 19.207031 15.207031 L 22.207031 12.207031 L 22.707031 11.707031 A 1 1 0 0 0 22.707031 10.292969 A 1 1 0 0 0 21.53125 10.117188 L 20.292969 8.8789062 C 20.105148 8.6911419 20.000057 8.4374538 20 8.171875 L 20 7.828125 C 19.99983 7.0329246 19.68347 6.2692379 19.121094 5.7070312 L 17.464844 4.0507812 C 16.152761 2.7389204 14.371034 2.0003963 12.515625 2 L 9 2 z M 11.259766 4 L 12.515625 4 C 13.841574 4.0002832 15.113114 4.5273356 16.050781 5.4648438 L 17.707031 7.1210938 C 17.894852 7.308858 17.999943 7.5625462 18 7.828125 L 18 8.171875 C 18.00017 8.9670754 18.31653 9.7307619 18.878906 10.292969 L 20.085938 11.5 L 18.5 13.085938 L 17.292969 11.878906 C 16.730762 11.31653 15.967075 11.00017 15.171875 11 L 15 11 L 14.414062 11 L 13 9.5859375 L 13 9 L 13 8.484375 C 12.999922 6.8184494 12.330577 5.2604442 11.259766 4 z M 11.5 10.914062 L 13.085938 12.5 L 4.9199219 20.666016 C 4.5966694 20.989376 4.3477518 21.046263 4.0917969 21.03125 C 3.8358419 21.016237 3.5519484 20.883907 3.3339844 20.666016 C 3.1160203 20.448124 2.9838487 20.164153 2.96875 19.908203 C 2.9536513 19.652253 3.0107319 19.403438 3.3339844 19.080078 L 11.5 10.914062 z "/>
</svg>
