<?xml version="1.0" encoding="UTF-8" standalone="no"?>
<svg xmlns="http://www.w3.org/2000/svg" xmlns:svg="http://www.w3.org/2000/svg" width="24" height="24" viewBox="0 0 24 24" fill="currentColor" tags="savings,banking,money,finance,offers,mortgage,payment,received,wage,payroll,allowance,pocket money,handout,pennies" categories="finance,account">
  <path d="M 6 1 C 3.8027056 1 2 2.8027056 2 5 C 2 7.1972944 3.8027056 9 6 9 C 8.1972944 9 10 7.1972944 10 5 C 10 2.8027056 8.1972944 1 6 1 z M 6 3 C 7.1164141 3 8 3.8835859 8 5 C 8 6.1164141 7.1164141 7 6 7 C 4.8835859 7 4 6.1164141 4 5 C 4 3.8835859 4.8835859 3 6 3 z M 16 5.0996094 C 13.857934 5.0996094 12.099609 6.8579341 12.099609 9 C 12.099609 9.3452185 12.144885 9.6804692 12.230469 10 L 10 10 C 9.208534 10 8.3889351 10.27978 7.8613281 10.923828 L 3.0117188 15.597656 L 2.7070312 15.292969 A 1 1 0 0 0 2 15 A 1 1 0 0 0 1.2929688 15.292969 A 1 1 0 0 0 1.2929688 16.707031 L 7.2929688 22.707031 A 1 1 0 0 0 8.7070312 22.707031 A 1 1 0 0 0 8.7070312 21.292969 L 8.4628906 21.048828 L 9.2578125 20.353516 A 1.0001 1.0001 0 0 0 9.4003906 20.199219 C 9.4763906 20.097885 9.6222222 20 10 20 L 14 20 C 15.313406 20 16.592652 19.510011 17.492188 18.523438 L 22.085938 14.126953 C 22.75264 13.496909 23.084271 12.660524 23.060547 11.882812 C 23.036826 11.105102 22.703413 10.408075 22.207031 9.8828125 C 21.710649 9.3575503 21.032943 8.985589 20.257812 8.9179688 C 20.139384 8.9076374 20.019563 8.9080263 19.898438 8.9140625 C 19.851926 6.8113177 18.113196 5.0996094 16 5.0996094 z M 16 7.0996094 C 17.061186 7.0996094 17.900391 7.9388143 17.900391 9 C 17.900391 9.4899096 17.720819 9.9310697 17.423828 10.265625 L 17.15625 10.511719 C 16.837099 10.75477 16.438515 10.900391 16 10.900391 C 14.938814 10.900391 14.099609 10.061186 14.099609 9 C 14.099609 7.9388143 14.938814 7.0996094 16 7.0996094 z M 19.914062 10.910156 C 19.971067 10.904723 20.027611 10.905239 20.083984 10.910156 C 20.309478 10.929826 20.562788 11.055575 20.753906 11.257812 C 20.945024 11.46005 21.055599 11.719066 21.0625 11.945312 C 21.0694 12.171558 21.01619 12.387206 20.712891 12.673828 A 1.0001 1.0001 0 0 0 20.708984 12.677734 L 16.109375 17.078125 A 1.0001 1.0001 0 0 0 16.046875 17.140625 C 15.548842 17.709797 14.857576 18 14 18 L 10 18 C 9.2173077 18 8.4070358 18.273424 7.8789062 18.902344 L 7.0449219 19.630859 L 4.4277344 17.013672 L 9.2949219 12.320312 A 1.0001 1.0001 0 0 0 9.4003906 12.199219 C 9.4763906 12.097885 9.6222222 12 10 12 L 13 12 C 13.416666 12 13.601893 12.120244 13.751953 12.289062 C 13.902014 12.45788 14 12.722222 14 13 C 14 13.219472 13.937582 13.429587 13.837891 13.591797 L 13.769531 13.65625 A 1 1 0 0 0 13.673828 13.789062 C 13.534282 13.915446 13.348634 14 13 14 L 11 14 A 1 1 0 0 0 10 15 A 1 1 0 0 0 11 16 L 13 16 C 13.916666 16 14.731441 15.620244 15.248047 15.039062 C 15.276123 15.007477 15.29975 14.973878 15.326172 14.941406 L 19.330078 11.222656 A 1.0001 1.0001 0 0 0 19.335938 11.216797 C 19.563412 11.00183 19.74305 10.926456 19.914062 10.910156 z "/>
</svg>
