<?xml version="1.0" encoding="UTF-8" standalone="no"?>
<svg xmlns="http://www.w3.org/2000/svg" xmlns:svg="http://www.w3.org/2000/svg" width="24" height="24" viewBox="0 0 24 24" fill="currentColor" tags="love,like,emotion" categories="social">
  <path d="M 18.388672 1.7636719 C 17.988893 1.7530422 17.583553 1.805429 17.191406 1.9238281 C 16.722012 2.0655503 16.372515 2.5031189 15.976562 2.8398438 C 14.919244 2.0362238 13.630898 1.7047517 12.496094 2.1132812 C 11.077956 2.6238106 9.9347476 4.039879 10.007812 5.8261719 C 10.019573 7.27793 10.864919 8.264194 11.519531 9 L 10 9 C 9.208534 9 8.3889351 9.2797801 7.8613281 9.9238281 L 3.0117188 14.597656 L 2.7070312 14.292969 A 1 1 0 0 0 2 14 A 1 1 0 0 0 1.2929688 14.292969 A 1 1 0 0 0 1.2929688 15.707031 L 7.2929688 21.707031 A 1 1 0 0 0 8.7070312 21.707031 A 1 1 0 0 0 8.7070312 20.292969 L 8.4628906 20.048828 L 9.2578125 19.353516 A 1.0001 1.0001 0 0 0 9.4003906 19.199219 C 9.4763906 19.097885 9.6222222 19 10 19 L 14 19 C 15.313406 19 16.592652 18.510011 17.492188 17.523438 L 22.085938 13.126953 C 22.75264 12.496909 23.084271 11.660524 23.060547 10.882812 C 23.036826 10.105102 22.703413 9.4080747 22.207031 8.8828125 C 21.912017 8.5706335 21.551983 8.3147483 21.146484 8.1425781 C 21.594 7.5311713 21.964118 6.7804561 21.982422 5.8613281 C 22.165622 4.0109919 21.007595 2.5049216 19.550781 1.9804688 C 19.182667 1.8479476 18.78845 1.7743015 18.388672 1.7636719 z M 18.193359 3.7382812 C 18.419733 3.7361435 18.649195 3.7807412 18.873047 3.8613281 C 19.589374 4.1192057 20.1185 4.7007566 20.005859 5.6855469 A 1.0001 1.0001 0 0 0 20 5.8007812 C 20 6.4159328 19.459297 7.1266406 18.792969 7.7929688 L 15.990234 10.595703 L 13.230469 7.9140625 C 12.513427 7.0955614 12 6.5471048 12 5.8007812 A 1.0001 1.0001 0 0 0 11.998047 5.7539062 C 11.953937 4.8171615 12.477204 4.2449253 13.173828 3.9941406 C 13.870452 3.743356 14.638087 3.8496943 15.201172 4.5996094 A 1.0001 1.0001 0 0 0 16.837891 4.5449219 C 17.108343 4.1296144 17.439247 3.8942476 17.791016 3.7949219 C 17.922929 3.7576746 18.057535 3.7395639 18.193359 3.7382812 z M 19.914062 9.9101562 C 19.971067 9.9047232 20.027611 9.9052384 20.083984 9.9101562 C 20.309478 9.9298273 20.562788 10.055574 20.753906 10.257812 C 20.945024 10.46005 21.055599 10.719067 21.0625 10.945312 C 21.0694 11.171558 21.01619 11.387206 20.712891 11.673828 A 1.0001 1.0001 0 0 0 20.708984 11.677734 L 16.109375 16.078125 A 1.0001 1.0001 0 0 0 16.046875 16.140625 C 15.548842 16.709797 14.857576 17 14 17 L 10 17 C 9.2173077 17 8.4070358 17.273424 7.8789062 17.902344 L 7.0449219 18.630859 L 4.4277344 16.013672 L 9.2949219 11.320312 A 1.0001 1.0001 0 0 0 9.4003906 11.199219 C 9.4763906 11.097885 9.6222222 11 10 11 L 13 11 C 13.416666 11 13.601893 11.120244 13.751953 11.289062 C 13.902014 11.45788 14 11.722222 14 12 C 14 12.219472 13.937582 12.429587 13.837891 12.591797 L 13.769531 12.65625 A 1 1 0 0 0 13.673828 12.789062 C 13.534282 12.915446 13.348634 13 13 13 L 11 13 A 1 1 0 0 0 10 14 A 1 1 0 0 0 11 15 L 13 15 C 13.916666 15 14.731441 14.620244 15.248047 14.039062 C 15.276123 14.007477 15.29975 13.973878 15.326172 13.941406 L 16.46875 12.880859 A 1.0001 1.0001 0 0 0 16.707031 12.707031 L 17.382812 12.03125 L 19.330078 10.222656 A 1.0001 1.0001 0 0 0 19.335938 10.216797 C 19.563412 10.00183 19.74305 9.9264555 19.914062 9.9101562 z "/>
</svg>
