<?xml version="1.0" encoding="UTF-8" standalone="no"?>
<svg xmlns="http://www.w3.org/2000/svg" xmlns:svg="http://www.w3.org/2000/svg" width="24" height="24" viewBox="0 0 24 24" fill="currentColor" tags="love,like,emotion" categories="social">
  <path d="M 18.388672 1.7636719 C 17.988894 1.7530422 17.583552 1.8054292 17.191406 1.9238281 C 16.722014 2.0655501 16.372514 2.5031196 15.976562 2.8398438 C 14.919247 2.0362255 13.630896 1.7047525 12.496094 2.1132812 C 11.077959 2.6238096 9.9347478 4.0398826 10.007812 5.8261719 C 10.019573 7.2779272 10.86492 8.2641949 11.519531 9 L 10 9 C 9.2085356 9 8.3889342 9.2797813 7.8613281 9.9238281 L 3.0117188 14.597656 L 2.7070312 14.292969 A 1 1 0 0 0 2 14 A 1 1 0 0 0 1.2929688 14.292969 A 1 1 0 0 0 1.2929688 15.707031 L 7.2929688 21.707031 A 1 1 0 0 0 8.7070312 21.707031 A 1 1 0 0 0 8.7070312 20.292969 L 8.4628906 20.048828 L 9.2578125 19.353516 A 1.0001 1.0001 0 0 0 9.4003906 19.199219 C 9.4763904 19.097886 9.622223 19 10 19 L 14 19 C 15.313404 19 16.592654 18.510009 17.492188 17.523438 L 22.085938 13.126953 C 22.752638 12.496911 23.084271 11.660524 23.060547 10.882812 C 23.036826 10.105103 22.703413 9.4080737 22.207031 8.8828125 C 21.912018 8.5706341 21.551983 8.3147483 21.146484 8.1425781 C 21.593999 7.5311715 21.964118 6.7804543 21.982422 5.8613281 C 22.165621 4.0109957 21.007592 2.5049206 19.550781 1.9804688 C 19.182668 1.8479479 18.78845 1.7743015 18.388672 1.7636719 z M 18.193359 3.7382812 C 18.419733 3.7361437 18.649195 3.780742 18.873047 3.8613281 C 19.589372 4.1192053 20.1185 4.7007586 20.005859 5.6855469 A 1.0001 1.0001 0 0 0 20 5.8007812 C 20 6.4159315 19.459295 7.1266419 18.792969 7.7929688 L 15.990234 10.595703 L 13.230469 7.9140625 C 12.513428 7.095563 12 6.5471034 12 5.8007812 A 1.0001 1.0001 0 0 0 11.998047 5.7539062 C 11.953937 4.8171635 12.477206 4.2449248 13.173828 3.9941406 C 13.87045 3.7433565 14.638088 3.8496958 15.201172 4.5996094 A 1.0001 1.0001 0 0 0 16.837891 4.5449219 C 17.108342 4.1296152 17.439248 3.8942474 17.791016 3.7949219 C 17.922928 3.7576747 18.057535 3.7395638 18.193359 3.7382812 z M 19.914062 9.9101562 C 19.971067 9.9047231 20.027611 9.9052384 20.083984 9.9101562 C 20.309478 9.9298272 20.562788 10.055575 20.753906 10.257812 C 20.945024 10.460049 21.055599 10.719067 21.0625 10.945312 C 21.0694 11.171557 21.016189 11.387206 20.712891 11.673828 A 1.0001 1.0001 0 0 0 20.708984 11.677734 L 16.109375 16.078125 A 1.0001 1.0001 0 0 0 16.046875 16.140625 C 15.548843 16.709795 14.857574 17 14 17 L 10 17 C 9.2173093 17 8.4070349 17.273425 7.8789062 17.902344 L 7.0449219 18.630859 L 4.4277344 16.013672 L 9.2949219 11.320312 A 1.0001 1.0001 0 0 0 9.4003906 11.199219 C 9.4763904 11.097886 9.622223 11 10 11 L 13 11 C 13.416666 11 13.601893 11.120245 13.751953 11.289062 C 13.902013 11.457879 14 11.722222 14 12 C 14 12.219472 13.937582 12.429588 13.837891 12.591797 L 13.769531 12.65625 A 1 1 0 0 0 13.673828 12.789062 C 13.534283 12.915445 13.348634 13 13 13 L 11 13 A 1 1 0 0 0 10 14 A 1 1 0 0 0 11 15 L 13 15 C 13.916665 15 14.731441 14.620243 15.248047 14.039062 C 15.276123 14.007477 15.29975 13.973878 15.326172 13.941406 L 16.46875 12.880859 A 1.0001 1.0001 0 0 0 16.707031 12.707031 L 17.382812 12.03125 L 19.330078 10.222656 A 1.0001 1.0001 0 0 0 19.335938 10.216797 C 19.563412 10.001831 19.74305 9.9264556 19.914062 9.9101562 z "/>
</svg>
