<?xml version="1.0" encoding="UTF-8" standalone="no"?>
<svg xmlns="http://www.w3.org/2000/svg" xmlns:svg="http://www.w3.org/2000/svg" width="24" height="24" viewBox="0 0 24 24" fill="currentColor" tags="wave,move,mouse,grab" categories="cursors,accessibility">
  <path d="M 12 1 C 10.626518 1 9.4547221 1.9455272 9.1054688 3.2148438 C 8.762521 3.0769545 8.3896429 3 8 3 C 6.3549904 3 5 4.3549904 5 6 L 5 11.917969 C 4.5700594 11.738602 4.1183166 11.664532 3.6894531 11.697266 C 2.9387945 11.754556 2.2747253 12.098126 1.7773438 12.59375 C 1.2799623 13.089374 0.93299873 13.753455 0.87304688 14.503906 C 0.81309497 15.254357 1.0780574 16.077133 1.6679688 16.730469 A 1.0001 1.0001 0 0 0 1.703125 16.767578 L 5.3027344 20.367188 A 1.0001 1.0001 0 0 0 5.3046875 20.369141 C 6.9270914 21.980606 8.9952381 23 12 23 L 14 23 C 18.958718 23 23 18.958718 23 14 L 23 8 C 23 7.0833335 22.620244 6.268559 22.039062 5.7519531 C 21.457881 5.2353472 20.722222 5 20 5 C 19.625514 5 19.246974 5.0623602 18.888672 5.1953125 C 18.533448 3.9349155 17.367097 3 16 3 C 15.610357 3 15.237479 3.0769545 14.894531 3.2148438 C 14.545278 1.9455272 13.373482 1 12 1 z M 12 3 C 12.564129 3 13 3.4358706 13 4 L 13 10 A 1 1 0 0 0 14 11 A 1 1 0 0 0 15 10 L 15 6 C 15 5.4358706 15.435871 5 16 5 C 16.564129 5 17 5.4358706 17 6 L 17 8 L 17 11 A 1 1 0 0 0 18 12 A 1 1 0 0 0 19 11 L 19 8 C 19 7.5833337 19.120244 7.3981073 19.289062 7.2480469 C 19.457881 7.0979864 19.722222 7 20 7 C 20.277778 7 20.542119 7.0979864 20.710938 7.2480469 C 20.879756 7.3981073 21 7.5833337 21 8 L 21 14 C 21 17.877838 17.877838 21 14 21 L 12 21 C 9.4060887 21 8.073677 20.300262 6.7167969 18.953125 L 6.7148438 18.951172 L 3.1523438 15.390625 L 3.1503906 15.386719 C 2.8935341 15.100427 2.8495668 14.884629 2.8671875 14.664062 C 2.8849065 14.442258 3.0014442 14.199063 3.1894531 14.011719 C 3.377462 13.824374 3.6199316 13.70834 3.8417969 13.691406 C 4.0636621 13.674476 4.2785775 13.718726 4.5664062 13.980469 L 5.2832031 14.697266 A 1 1 0 0 0 5.3027344 14.716797 L 6.2929688 15.707031 A 1 1 0 0 0 7.7070312 15.707031 A 1 1 0 0 0 7.7070312 14.292969 L 7 13.585938 L 7 6 C 7 5.4358706 7.4358706 5 8 5 C 8.5641294 5 9 5.4358706 9 6 L 9 10.5 A 1 1 0 0 0 10 11.5 A 1 1 0 0 0 11 10.5 L 11 6 L 11 4 C 11 3.4358706 11.435871 3 12 3 z "/>
</svg>
