<svg xmlns="http://www.w3.org/2000/svg" xmlns:svg="http://www.w3.org/2000/svg" width="24" height="24" viewBox="0 0 24 24" fill="currentColor" tags="agreement,help,proposal,charity,begging,terms" categories="emoji">
  <path d="M 19.964844 5.9082031 C 19.273165 5.9257383 18.546254 6.2123833 17.962891 6.7636719 L 15.769531 8.8007812 C 15.647299 8.500814 15.47449 8.2156861 15.248047 7.9609375 C 14.731441 7.3797556 13.916666 7 13 7 L 10 7 C 9.2060832 7 8.3828901 7.2813779 7.8554688 7.9296875 L 3.0117188 12.597656 L 2.7070312 12.292969 A 1 1 0 0 0 1.2929688 12.292969 A 1 1 0 0 0 1.2929688 13.707031 L 2.2792969 14.693359 A 1 1 0 0 0 2.3066406 14.720703 L 7.2929688 19.707031 A 1 1 0 0 0 8.7070312 19.707031 A 1 1 0 0 0 8.7070312 18.292969 L 8.4628906 18.048828 L 9.2578125 17.353516 A 1.0001 1.0001 0 0 0 9.4003906 17.199219 C 9.4763906 17.097885 9.6222222 17 10 17 L 14 17 C 15.313563 17 16.592636 16.510248 17.492188 15.523438 L 17.494141 15.521484 L 17.513672 15.501953 L 22.085938 11.126953 C 22.75264 10.496909 23.084271 9.6605254 23.060547 8.8828125 C 23.036827 8.1050996 22.703413 7.4080747 22.207031 6.8828125 C 21.710652 6.3575543 21.032943 5.9855891 20.257812 5.9179688 C 20.160921 5.9095163 20.063655 5.9056981 19.964844 5.9082031 z M 20 7.90625 C 20.028168 7.9064875 20.055798 7.9076973 20.083984 7.9101562 C 20.309478 7.9298282 20.562788 8.0555747 20.753906 8.2578125 C 20.945024 8.4600503 21.055599 8.7190672 21.0625 8.9453125 C 21.0694 9.1715578 21.01619 9.3872059 20.712891 9.6738281 A 1.0001 1.0001 0 0 0 20.708984 9.6777344 L 16.109375 14.078125 A 1.0001 1.0001 0 0 0 16.046875 14.140625 C 15.548842 14.709747 14.857576 15 14 15 L 10 15 C 9.2171565 15 8.4050756 15.275118 7.8769531 15.904297 L 7.0449219 16.630859 L 4.4277344 14.013672 L 9.2949219 9.3203125 A 1.0001 1.0001 0 0 0 9.4003906 9.1992188 C 9.4763906 9.0978853 9.6222222 9 10 9 L 13 9 C 13.416666 9 13.601893 9.1202444 13.751953 9.2890625 C 13.902014 9.4578806 14 9.7222221 14 10 C 14 10.218294 13.936635 10.429937 13.837891 10.591797 L 13.769531 10.65625 A 1 1 0 0 0 13.615234 10.837891 C 13.481779 10.936461 13.301155 11 13 11 L 11 11 A 1 1 0 0 0 10 12 A 1 1 0 0 0 11 13 L 13 13 C 13.916666 13 14.731441 12.620244 15.248047 12.039062 C 15.281506 12.001421 15.314591 11.960767 15.345703 11.921875 L 19.330078 8.2226562 A 1.0001 1.0001 0 0 0 19.335938 8.2167969 C 19.601324 7.9660024 19.802823 7.9045872 20 7.90625 z "/>
</svg>
