<svg xmlns="http://www.w3.org/2000/svg" xmlns:svg="http://www.w3.org/2000/svg" width="24" height="24" viewBox="0 0 24 24" fill="currentColor" tags="hand" categories="cursors,design,layout">
  <path d="M 12 5 C 10.944743 5 10.008092 5.5585257 9.4726562 6.3925781 C 9.0363222 6.1436116 8.5337997 6 8 6 C 6.3549904 6 5 7.3549904 5 9 L 5 11.158203 C 4.8098286 11.095855 4.6143443 11.058408 4.4179688 11.033203 C 4.2809759 11.013695 4.142 11 4 11 C 3.8992521 11 3.7980807 11.006341 3.6972656 11.015625 C 3.6966208 11.015684 3.6959573 11.015565 3.6953125 11.015625 C 3.6932799 11.015834 3.6914846 11.017365 3.6894531 11.017578 C 3.0702886 11.076128 2.458908 11.309313 1.9609375 11.751953 C 1.445682 12.209958 1.0899729 12.903408 1.015625 13.693359 C 1.0051674 13.794273 1.0000002 13.896526 1 14 C 1 18.958718 5.0412819 23 10 23 L 14 23 C 18.958718 23 23 18.958718 23 14 L 23 11 C 23 10.083334 22.620244 9.268559 22.039062 8.7519531 C 21.457881 8.2353472 20.722222 8 20 8 C 19.625514 8 19.246974 8.0623602 18.888672 8.1953125 C 18.533448 6.9349155 17.367097 6 16 6 C 15.4662 6 14.963678 6.1436116 14.527344 6.3925781 C 13.991908 5.5585255 13.055258 5 12 5 z M 12 7 C 12.564129 7 13 7.4358706 13 8 L 13 10 L 13 10.400391 A 1 1 0 0 0 14 11.400391 A 1 1 0 0 0 15 10.400391 L 15 9 C 15 8.4358706 15.435871 8 16 8 C 16.564129 8 17 8.4358706 17 9 L 17 11 L 17 11.5 A 1 1 0 0 0 18 12.5 A 1 1 0 0 0 19 11.5 L 19 11 C 19 10.583334 19.120244 10.398107 19.289062 10.248047 C 19.457881 10.097986 19.722222 10 20 10 C 20.277778 10 20.542119 10.09799 20.710938 10.248047 C 20.879756 10.398107 21 10.583334 21 11 L 21 14 C 21 17.877838 17.877838 21 14 21 L 10 21 C 6.1221621 21 3 17.877838 3 14 C 3 13.435873 3.4358739 13.000003 4 13 C 4.564127 13.000003 5 13.435873 5 14 A 1 1 0 0 0 6 15 A 1 1 0 0 0 6.1308594 14.992188 A 1 1 0 0 0 7 14 L 7 9 C 7 8.4358706 7.4358706 8 8 8 C 8.5641294 8 9 8.4358706 9 9 L 9 9.9003906 L 9 10 A 1 1 0 0 0 10 11 A 1 1 0 0 0 11 10 L 11 8 C 11 7.4358706 11.435871 7 12 7 z "/>
</svg>
