<?xml version="1.0" encoding="UTF-8" standalone="no"?>
<svg xmlns="http://www.w3.org/2000/svg" xmlns:svg="http://www.w3.org/2000/svg" width="24" height="24" viewBox="0 0 24 24" fill="currentColor" tags="love,like,emotion" categories="social">
  <path d="M 14.007812 2.0097656 C 13.457845 1.9727135 12.908869 2.0563179 12.408203 2.2480469 C 11.073094 2.7593239 9.9996227 4.0772622 10 5.75 C 10 7.1362048 10.718852 8.224482 11.412109 9 L 10 9 C 9.2060832 9 8.3828901 9.2813779 7.8554688 9.9296875 L 3.0117188 14.597656 L 2.7070312 14.292969 A 1 1 0 0 0 1.2929688 14.292969 A 1 1 0 0 0 1.2929688 15.707031 L 2.2792969 16.693359 A 1 1 0 0 0 2.3066406 16.720703 L 7.2929688 21.707031 A 1 1 0 0 0 8.7070312 21.707031 A 1 1 0 0 0 8.7070312 20.292969 L 8.4628906 20.048828 L 9.2578125 19.353516 A 1.0001 1.0001 0 0 0 9.4003906 19.199219 C 9.4763906 19.097885 9.6222222 19 10 19 L 14 19 C 15.313563 19 16.592636 18.510248 17.492188 17.523438 L 17.494141 17.521484 L 17.513672 17.501953 L 22.085938 13.126953 C 22.75264 12.496909 23.084271 11.660524 23.060547 10.882812 C 23.036826 10.105102 22.703413 9.4080747 22.207031 8.8828125 C 21.9302 8.5898745 21.597728 8.3452051 21.222656 8.1738281 C 21.664593 7.4949944 22 6.6797365 22 5.75 C 22.000377 4.0772622 20.926906 2.7593239 19.591797 2.2480469 C 18.438781 1.8065022 17.08277 2.0822043 16 2.9296875 C 15.544115 2.5728667 15.085038 2.2025956 14.556641 2.0878906 C 14.374991 2.0484581 14.191135 2.0221163 14.007812 2.0097656 z M 15.466797 3.2363281 L 15.46875 3.2363281 L 15.470703 3.2363281 L 15.472656 3.2363281 L 15.474609 3.2363281 L 15.474609 3.2382812 L 15.472656 3.2382812 L 15.472656 3.2402344 L 15.470703 3.2402344 L 15.46875 3.2402344 C 15.467957 3.2405056 15.463672 3.2418902 15.462891 3.2421875 L 15.466797 3.2363281 z M 16.525391 3.2363281 L 16.527344 3.2363281 L 16.529297 3.2363281 L 16.53125 3.2363281 L 16.533203 3.2363281 L 16.537109 3.2421875 L 16.535156 3.2421875 L 16.533203 3.2421875 C 16.532419 3.241919 16.528118 3.240525 16.527344 3.2402344 L 16.527344 3.2382812 L 16.525391 3.2382812 L 16.525391 3.2363281 z M 13.867188 3.9863281 C 13.950622 3.9899728 14.034471 4.0005605 14.117188 4.0175781 C 14.448054 4.0856481 14.768911 4.2637018 15.052734 4.5800781 A 1.0001 1.0001 0 0 0 15.060547 4.5898438 C 15.555643 5.1273162 16.444357 5.1273162 16.939453 4.5898438 A 1.0001 1.0001 0 0 0 16.947266 4.5800781 C 17.514939 3.9473254 18.232632 3.869241 18.875 4.1152344 C 19.517368 4.3612277 20.000192 4.8999415 20 5.75 C 20 6.3616755 19.372922 7.4049394 18.794922 7.984375 L 16 10.583984 L 13.207031 7.9882812 L 13.201172 7.9824219 C 12.588294 7.3678218 12 6.5021526 12 5.75 C 11.999808 4.8999415 12.482632 4.3612277 13.125 4.1152344 C 13.365888 4.0229868 13.616884 3.9753942 13.867188 3.9863281 z M 20 9.90625 C 20.028168 9.9064876 20.055798 9.9076973 20.083984 9.9101562 C 20.309478 9.9298273 20.562788 10.055574 20.753906 10.257812 C 20.945024 10.46005 21.055599 10.719066 21.0625 10.945312 C 21.0694 11.171558 21.01619 11.387206 20.712891 11.673828 A 1.0001 1.0001 0 0 0 20.708984 11.677734 L 16.109375 16.078125 A 1.0001 1.0001 0 0 0 16.046875 16.140625 C 15.548884 16.709755 14.857576 17 14 17 L 10 17 C 9.2171565 17 8.4050756 17.275118 7.8769531 17.904297 L 7.0449219 18.630859 L 4.4277344 16.013672 L 9.2949219 11.320312 A 1.0001 1.0001 0 0 0 9.4003906 11.199219 C 9.4763906 11.097885 9.6222222 11 10 11 L 13 11 C 13.416666 11 13.601893 11.120244 13.751953 11.289062 C 13.902014 11.45788 14 11.722222 14 12 C 14 12.22016 13.936183 12.433293 13.835938 12.595703 L 13.769531 12.658203 A 1 1 0 0 0 13.617188 12.835938 C 13.483405 12.935913 13.303639 13 13 13 L 11 13 A 1 1 0 0 0 10 14 A 1 1 0 0 0 11 15 L 13 15 C 13.916666 15 14.731441 14.620244 15.248047 14.039062 C 15.281693 14.00121 15.316383 13.960991 15.347656 13.921875 L 19.277344 10.267578 L 19.28125 10.265625 A 1 1 0 0 0 19.335938 10.216797 C 19.601324 9.9660024 19.802823 9.9045871 20 9.90625 z "/>
</svg>
