<?xml version="1.0" encoding="UTF-8" standalone="no"?>
<svg xmlns="http://www.w3.org/2000/svg" xmlns:svg="http://www.w3.org/2000/svg" width="24" height="24" viewBox="0 0 24 24" fill="currentColor" tags="clench,strength,power,unity,solidarity,rebellion,victory,triumph,support,fight,combat,brawl" categories="social,emoji,communication,sports">
  <path d="M 11 1 C 10.277778 1 9.5421194 1.2353472 8.9609375 1.7519531 C 8.7698187 1.9218364 8.6001975 2.1241717 8.4589844 2.3515625 C 8.0029553 2.1122964 7.4984203 2 7 2 C 6.2777779 2 5.5421194 2.2353472 4.9609375 2.7519531 C 4.3797556 3.268559 4 4.0833335 4 5 L 4 9.5859375 L 3.7070312 9.8789062 C 2.6146556 10.971713 2.0002084 12.454843 2 14 C 2 18.958718 6.0412819 23 11 23 L 13 23 C 17.958718 23 22 18.958718 22 14 L 22 9 L 22 7 C 22 6.0833335 21.620244 5.268559 21.039062 4.7519531 C 20.457881 4.2353472 19.722222 4 19 4 C 18.628763 4 18.25397 4.0627584 17.898438 4.1933594 C 17.748737 3.613208 17.442412 3.1104854 17.039062 2.7519531 C 16.457881 2.2353472 15.722222 2 15 2 C 14.50158 2 13.997045 2.1122964 13.541016 2.3515625 C 13.399803 2.1241717 13.230181 1.9218364 13.039062 1.7519531 C 12.45788 1.2353472 11.722222 1 11 1 z M 11 3 C 11.277778 3 11.542119 3.0979864 11.710938 3.2480469 C 11.879755 3.3981073 12 3.5833337 12 4 L 12 5 L 12 6 L 10 6 L 10 5 L 10 4 C 10 3.5833337 10.120244 3.3981073 10.289062 3.2480469 C 10.45788 3.0979864 10.722222 3 11 3 z M 7 4 C 7.2777779 4 7.5421194 4.0979864 7.7109375 4.2480469 C 7.8797556 4.3981073 8 4.5833337 8 5 L 8 6.1972656 C 7.4075917 6.3909307 6.8629654 6.7228365 6.4140625 7.171875 L 6 7.5859375 L 6 5 C 6 4.5833337 6.1202444 4.3981073 6.2890625 4.2480469 C 6.4578806 4.0979864 6.7222221 4 7 4 z M 15 4 C 15.277778 4 15.542119 4.0979864 15.710938 4.2480469 C 15.879755 4.3981073 16 4.5833337 16 5 L 16 8 C 15.999884 8.6360234 15.532169 9.0476283 15 9.0214844 C 15.000049 9.0141531 15 9.0073287 15 9 C 15 8.2777779 14.764653 7.5421194 14.248047 6.9609375 C 14.17167 6.8750139 14.088777 6.7933389 14 6.7167969 L 14 5 C 14 4.5833337 14.120244 4.3981073 14.289062 4.2480469 C 14.45788 4.0979864 14.722222 4 15 4 z M 19 6 C 19.277778 6 19.542119 6.097986 19.710938 6.2480469 C 19.879756 6.3981073 20 6.5833337 20 7 L 20 9 C 20 9.4166663 19.879756 9.6018927 19.710938 9.7519531 C 19.542119 9.9020136 19.277778 10 19 10 C 18.722222 10 18.457881 9.9020136 18.289062 9.7519531 C 18.120244 9.6018927 18 9.4166663 18 9 L 18 7 C 18 6.5833337 18.120244 6.3981073 18.289062 6.2480469 C 18.457881 6.0979864 18.722222 6 19 6 z M 9.2421875 8 L 12 8 C 12.14991 8 12.270007 8.0151764 12.369141 8.0429688 A 1 1 0 0 0 12.679688 8.2148438 C 12.705176 8.238272 12.728848 8.2630696 12.751953 8.2890625 C 12.902014 8.4578806 13 8.7222221 13 9 C 13 9.0895462 12.98953 9.1777151 12.970703 9.2617188 A 1 1 0 0 0 12.908203 9.4570312 C 12.867181 9.5538837 12.8141 9.641022 12.751953 9.7109375 C 12.601893 9.8797556 12.416666 10 12 10 L 10.828125 10 C 10.032925 10.00017 9.2692378 10.31653 8.7070312 10.878906 L 7.5117188 12.074219 C 7.0014702 12.584677 6.8957698 13.35697 7.1367188 13.943359 C 7.3774485 14.529214 7.9959065 15.004681 8.7167969 15.009766 L 9.0292969 15.011719 A 1.0001 1.0001 0 0 0 9.0351562 15.011719 C 10.15157 15.011719 11.035156 15.895305 11.035156 17.011719 A 1 1 0 0 0 12.035156 18.011719 A 1 1 0 0 0 13.035156 17.011719 C 13.035156 14.922245 11.389269 13.23923 9.3398438 13.074219 L 10.121094 12.292969 C 10.308857 12.105101 10.562546 12.000057 10.828125 12 L 12 12 C 12.916666 12 13.731441 11.620244 14.248047 11.039062 C 14.281969 11.0009 14.314193 10.961322 14.345703 10.921875 C 15.062731 11.071975 15.803029 10.938693 16.427734 10.595703 C 16.575028 10.844418 16.755325 11.06528 16.960938 11.248047 C 17.542119 11.764653 18.277778 12 19 12 C 19.354235 12 19.659039 11.749668 20 11.630859 L 20 14 C 20 17.877838 16.877838 21 13 21 L 11 21 C 7.1221621 21 4 17.877838 4 14 C 4.000137 12.984278 4.4030121 12.011334 5.1210938 11.292969 L 5.6972656 10.716797 A 1 1 0 0 0 5.7167969 10.697266 L 7.828125 8.5859375 C 8.2035459 8.2104032 8.711182 7.9999364 9.2421875 8 z "/>
</svg>
