<?xml version="1.0" encoding="UTF-8" standalone="no"?>
<svg xmlns="http://www.w3.org/2000/svg" xmlns:svg="http://www.w3.org/2000/svg" width="24" height="24" viewBox="0 0 24 24" fill="currentColor" tags="wave,move,mouse,grab" categories="cursors,accessibility">
  
  <path d="M 12 1 C 10.626156 1 9.4563308 1.9450188 9.1074219 3.2148438 C 8.7640524 3.0765626 8.3902255 3 8 3 C 6.3549936 3 5 4.3549936 5 6 L 5 11.921875 C 4.569854 11.7423 4.1185439 11.664515 3.6894531 11.697266 C 2.938796 11.754556 2.2747244 12.098127 1.7773438 12.59375 C 1.2799632 13.089373 0.93299862 13.753457 0.87304688 14.503906 C 0.81309513 15.254356 1.0780585 16.077134 1.6679688 16.730469 A 1.0001 1.0001 0 0 0 1.703125 16.767578 L 5.3027344 20.367188 A 1.0001 1.0001 0 0 0 5.3046875 20.369141 C 6.9270882 21.980602 8.9952441 23 12 23 L 14 23 C 18.958708 23 23 18.958708 23 14 L 23 8 C 23 7.0833353 22.620244 6.268558 22.039062 5.7519531 C 21.457882 5.2353482 20.72222 5 20 5 C 19.625166 5 19.247271 5.0640597 18.888672 5.1972656 C 18.533933 3.93614 17.367616 3 16 3 C 15.609775 3 15.235948 3.0765626 14.892578 3.2148438 C 14.543669 1.9450188 13.373844 1 12 1 z M 12 3 C 12.564128 3 13 3.4358718 13 4 L 13 10 A 1 1 0 0 0 14 11 A 1 1 0 0 0 15 10 L 15 6 C 15 5.4358718 15.435872 5 16 5 C 16.564128 5 17 5.4358718 17 6 L 17 8 L 17 11 A 1 1 0 0 0 18 12 A 1 1 0 0 0 19 11 L 19 8 C 19 7.5833345 19.120246 7.398107 19.289062 7.2480469 C 19.45788 7.0979867 19.722222 7 20 7 C 20.277778 7 20.542121 7.0979867 20.710938 7.2480469 C 20.879755 7.398107 21 7.5833345 21 8 L 21 14 C 21 17.87783 17.87783 21 14 21 L 12 21 C 9.4060939 21 8.0736742 20.30026 6.7167969 18.953125 L 6.7148438 18.951172 L 3.1523438 15.390625 L 3.1503906 15.386719 C 2.8935346 15.100427 2.8495668 14.884629 2.8671875 14.664062 C 2.8849065 14.442259 3.0014446 14.199063 3.1894531 14.011719 C 3.3774616 13.824374 3.619932 13.70834 3.8417969 13.691406 C 4.0636617 13.674476 4.2785781 13.718726 4.5664062 13.980469 L 6.2929688 15.707031 A 1 1 0 0 0 7.7070312 15.707031 A 1 1 0 0 0 7.7070312 14.292969 L 7 13.585938 L 7 6 C 7 5.4358718 7.4358718 5 8 5 C 8.5641282 5 9 5.4358718 9 6 L 9 10.5 A 1 1 0 0 0 10 11.5 A 1 1 0 0 0 11 10.5 L 11 6 L 11 4 C 11 3.4358718 11.435872 3 12 3 z "/>
</svg>
