<?xml version="1.0" encoding="UTF-8" standalone="no"?>
<svg xmlns="http://www.w3.org/2000/svg" xmlns:svg="http://www.w3.org/2000/svg" width="24" height="24" viewBox="0 0 24 24" fill="currentColor" tags="bag,baggage,carry,clutch,fashion,luggage,purse,tote,travel" categories="shopping,transportation">
  <path d="M 12 1 C 10.777778 1 9.5421194 1.402014 8.5859375 2.2519531 C 7.6297556 3.1018922 7 4.4166671 7 6 L 7 7 L 6 7 C 4.599841 7.0002403 3.3761001 7.9828139 3.0722656 9.3496094 L 1.0722656 18.349609 C 0.66067683 20.201136 2.1032775 21.999675 4 22 L 20 22 C 21.896722 21.999675 23.339323 20.201136 22.927734 18.349609 L 20.927734 9.3496094 C 20.6239 7.9828139 19.400159 7.0002403 18 7 L 17 7 L 17 6 C 17 4.4166671 16.370244 3.1018922 15.414062 2.2519531 C 14.45788 1.402014 13.222222 1 12 1 z M 12 3 C 12.777778 3 13.542119 3.2646532 14.085938 3.7480469 C 14.629755 4.2314405 15 4.9166674 15 6 L 15 7 L 9 7 L 9 6 C 9 4.9166674 9.3702444 4.2314405 9.9140625 3.7480469 C 10.457881 3.2646532 11.222222 3 12 3 z M 6 9 L 7 9 L 7 11 A 1 1 0 0 0 8 12 A 1 1 0 0 0 9 11 L 9 9 L 15 9 L 15 11 A 1 1 0 0 0 16 12 A 1 1 0 0 0 17 11 L 17 9 L 18 9 C 18.474272 9.0000814 18.873646 9.3202325 18.976562 9.7832031 L 20.976562 18.783203 C 21.12024 19.429531 20.662105 19.999886 20 20 L 4 20 C 3.3378954 19.999886 2.8797608 19.429531 3.0234375 18.783203 L 5.0234375 9.7832031 C 5.1263545 9.3202325 5.5257282 9.0000814 6 9 z "/>
</svg>
