<?xml version="1.0" encoding="UTF-8" standalone="no"?>
<svg xmlns="http://www.w3.org/2000/svg" xmlns:svg="http://www.w3.org/2000/svg" width="24" height="24" viewBox="0 0 24 24" fill="currentColor" tags="waiter,waitress,restaurant,table service,served,dinner,dining,meal,course,luxury" categories="food-beverage,people">
  
  <path d="M 12 1 A 1 1 0 0 0 11 2 L 11 3 A 1 1 0 0 0 11.011719 3.1484375 C 8.0029981 3.5102352 5.1352122 5.517668 4.1972656 9 L 4 9 A 1 1 0 0 0 3 10 A 1 1 0 0 0 4 11 L 20 11 A 1 1 0 0 0 21 10 A 1 1 0 0 0 20 9 L 19.802734 9 C 18.864788 5.517668 15.997002 3.5102352 12.988281 3.1484375 A 1 1 0 0 0 13 3 L 13 2 A 1 1 0 0 0 12 1 z M 12 5.0878906 C 14.421966 5.0878906 16.7838 6.3264763 17.716797 9 L 6.2832031 9 C 7.2162004 6.3264763 9.5780346 5.0878906 12 5.0878906 z M 2 13 A 1 1 0 0 0 1 14 A 1 1 0 0 0 2 15 L 4 15 L 4 20 L 2 20 A 1 1 0 0 0 1 21 A 1 1 0 0 0 2 22 L 5 22 A 1.0001 1.0001 0 0 0 6 21 L 6 20.205078 L 7.5039062 21.521484 C 8.4035787 22.510083 9.6852551 23 11 23 L 15 23 C 16.317932 23 17.60196 22.507094 18.501953 21.513672 L 22.076172 18.236328 A 1.0001 1.0001 0 0 0 22.09375 18.21875 C 22.756932 17.578436 23.081028 16.735912 23.048828 15.955078 C 23.016628 15.174244 22.674275 14.477445 22.169922 13.955078 C 21.665568 13.432713 20.980396 13.065428 20.201172 13.005859 C 19.421948 12.946289 18.569432 13.240546 17.90625 13.880859 L 17.941406 13.847656 L 16.789062 14.855469 C 16.66586 14.535466 16.488154 14.231058 16.248047 13.960938 C 15.731441 13.379756 14.916665 13 14 13 L 5 13 L 2 13 z M 6 15 L 14 15 C 14.416666 15 14.601893 15.120245 14.751953 15.289062 C 14.902013 15.457879 15 15.722222 15 16 C 15 16.195788 14.948469 16.383415 14.867188 16.537109 L 14.742188 16.646484 A 1 1 0 0 0 14.570312 16.869141 C 14.441429 16.950082 14.268984 17 14 17 L 12 17 A 1 1 0 0 0 11 18 A 1 1 0 0 0 12 19 L 14 19 C 14.916665 19 15.731441 18.620244 16.248047 18.039062 C 16.298242 17.982593 16.343745 17.924467 16.388672 17.865234 L 19.257812 15.353516 A 1.0001 1.0001 0 0 0 19.294922 15.320312 C 19.598396 15.027289 19.819721 14.982486 20.048828 15 C 20.277935 15.01751 20.534823 15.141117 20.730469 15.34375 C 20.926114 15.546383 21.041314 15.80753 21.050781 16.037109 C 21.060281 16.26669 21.008561 16.488233 20.705078 16.78125 L 17.125 20.0625 A 1.0001 1.0001 0 0 0 17.046875 20.140625 C 16.5489 20.709739 15.857574 21 15 21 L 11 21 C 10.142426 21 9.4511049 20.709744 8.953125 20.140625 A 1.0001 1.0001 0 0 0 8.859375 20.046875 L 6 17.546875 L 6 15 z "/>
</svg>
