<?xml version="1.0" encoding="UTF-8" standalone="no"?>
<svg xmlns="http://www.w3.org/2000/svg" xmlns:svg="http://www.w3.org/2000/svg" width="24" height="24" viewBox="0 0 24 24" fill="currentColor" tags="agreement,partnership,deal,business,assistance,cooperation,friendship,union,terms" categories="account,social,communication,money,security">
  <path d="M 3.0898438 2.0039062 A 1 1 0 0 0 2.0039062 2.9101562 L 1.0039062 13.910156 A 1.0001 1.0001 0 0 0 1.2929688 14.707031 L 7.7929688 21.207031 C 8.469744 21.883807 9.3457092 22.201746 10.152344 22.154297 C 10.958978 22.106847 11.674898 21.739165 12.207031 21.207031 C 12.496554 20.917509 12.735273 20.572795 12.902344 20.189453 C 13.454982 20.532024 14.071287 20.688477 14.652344 20.654297 C 15.458978 20.606847 16.174898 20.239165 16.707031 19.707031 C 17.132094 19.281968 17.452088 18.739114 17.587891 18.126953 C 17.777646 18.154674 17.96666 18.165219 18.152344 18.154297 C 18.958978 18.106847 19.674898 17.739165 20.207031 17.207031 C 20.739165 16.674898 21.106848 15.958978 21.154297 15.152344 C 21.157262 15.101929 21.154184 15.050891 21.154297 15 L 22 15 A 1.0001 1.0001 0 0 0 22.996094 13.910156 L 21.996094 2.9101562 A 1 1 0 0 0 20.910156 2.0039062 A 1 1 0 0 0 20.003906 3.0898438 L 20.011719 3.1796875 L 19.066406 3.3691406 C 18.822154 3.4172536 18.570556 3.3727805 18.357422 3.2441406 A 1.0001 1.0001 0 0 0 18.351562 3.2402344 L 17.882812 2.9609375 L 17.880859 2.9609375 C 16.549447 2.1653953 15.029993 1.8726181 13.568359 2.0527344 C 12.615878 2.1701081 11.688274 2.4894745 10.853516 3 L 3.9980469 3 A 1 1 0 0 0 3.0898438 2.0039062 z M 14.591797 4 C 15.371592 4.0314017 16.150292 4.2549487 16.857422 4.6777344 A 1.0001 1.0001 0 0 0 16.857422 4.6796875 L 17.324219 4.9570312 C 17.962657 5.3423657 18.721473 5.4761524 19.453125 5.3320312 A 1.0001 1.0001 0 0 0 19.457031 5.3300781 L 20.193359 5.1816406 L 20.904297 13 L 20.394531 13 C 20.334564 12.929346 20.27404 12.859978 20.207031 12.792969 L 16.326172 8.9121094 C 14.772829 7.3606988 12.227171 7.3606988 10.673828 8.9121094 L 9.7929688 9.7929688 C 9.4697464 10.116191 9.2207071 10.173254 8.9648438 10.158203 C 8.7089803 10.143152 8.424896 10.010834 8.2070312 9.7929688 C 7.9891664 9.5751039 7.8568477 9.2910196 7.8417969 9.0351562 C 7.826746 8.7792928 7.8838089 8.5302535 8.2070312 8.2070312 L 11.015625 5.3984375 L 11.017578 5.3964844 C 11.99025 4.427471 13.292139 3.9476638 14.591797 4 z M 3.8222656 5 L 8.5859375 5 L 6.7929688 6.7929688 C 6.1161936 7.469744 5.7982539 8.3457094 5.8457031 9.1523438 C 5.8931521 9.958978 6.2608351 10.674898 6.7929688 11.207031 C 7.3251025 11.739165 8.0410219 12.106848 8.8476562 12.154297 C 9.6542905 12.201747 10.530256 11.883807 11.207031 11.207031 L 12.085938 10.328125 L 12.087891 10.326172 C 12.876531 9.540586 14.123469 9.540586 14.912109 10.326172 L 18.792969 14.207031 C 19.11619 14.530254 19.173254 14.779294 19.158203 15.035156 C 19.143153 15.29102 19.010834 15.575104 18.792969 15.792969 C 18.575104 16.010834 18.29102 16.143152 18.035156 16.158203 C 17.779294 16.173253 17.530254 16.116192 17.207031 15.792969 L 14.707031 13.292969 A 1 1 0 0 0 13.292969 13.292969 A 1 1 0 0 0 13.292969 14.707031 L 15.292969 16.707031 C 15.61619 17.030254 15.673254 17.279294 15.658203 17.535156 C 15.643153 17.79102 15.510834 18.075104 15.292969 18.292969 C 15.075104 18.510834 14.79102 18.643152 14.535156 18.658203 C 14.279294 18.673253 14.030254 18.616192 13.707031 18.292969 L 11.707031 16.292969 A 1 1 0 0 0 10.292969 16.292969 A 1 1 0 0 0 10.292969 17.707031 L 10.792969 18.207031 C 11.11619 18.530254 11.173254 18.779294 11.158203 19.035156 C 11.143153 19.29102 11.010834 19.575104 10.792969 19.792969 C 10.575104 20.010834 10.29102 20.143152 10.035156 20.158203 C 9.7792931 20.173253 9.5302535 20.116192 9.2070312 19.792969 L 3.0390625 13.625 L 3.8222656 5 z "/>
</svg>
