<?xml version="1.0" encoding="UTF-8" standalone="no"?>
<svg xmlns="http://www.w3.org/2000/svg" xmlns:svg="http://www.w3.org/2000/svg" width="24" height="24" viewBox="0 0 24 24" fill="currentColor" tags="savings,banking,money,finance,offers,mortgage,payment,received,wage,payroll,allowance,pocket money,handout,pennies" categories="finance,account">
  <path d="M 6 1 C 3.8027056 1 2 2.8027056 2 5 C 2 7.1972944 3.8027056 9 6 9 C 8.1972944 9 10 7.1972944 10 5 C 10 2.8027056 8.1972944 1 6 1 z M 6 3 C 7.1164141 3 8 3.8835859 8 5 C 8 6.1164141 7.1164141 7 6 7 C 4.8835859 7 4 6.1164141 4 5 C 4 3.8835859 4.8835859 3 6 3 z M 16 5.0996094 C 13.857934 5.0996094 12.099609 6.8579341 12.099609 9 C 12.099609 9.3452182 12.144885 9.6804694 12.230469 10 L 10 10 C 9.2060839 10 8.3828902 10.281379 7.8554688 10.929688 L 3.0117188 15.597656 L 2.7070312 15.292969 A 1 1 0 0 0 1.2929688 15.292969 A 1 1 0 0 0 1.2929688 16.707031 L 2.2792969 17.693359 A 1 1 0 0 0 2.3066406 17.720703 L 7.2929688 22.707031 A 1 1 0 0 0 8.7070312 22.707031 A 1 1 0 0 0 8.7070312 21.292969 L 8.4628906 21.048828 L 9.2578125 20.353516 A 1.0001 1.0001 0 0 0 9.4003906 20.199219 C 9.4763906 20.097885 9.6222222 20 10 20 L 14 20 C 15.313563 20 16.592636 19.510248 17.492188 18.523438 L 17.494141 18.521484 L 17.513672 18.501953 L 22.085938 14.126953 C 22.75264 13.496909 23.084271 12.660524 23.060547 11.882812 C 23.036826 11.105102 22.703413 10.408075 22.207031 9.8828125 C 21.710649 9.3575503 21.032943 8.985589 20.257812 8.9179688 C 20.139833 8.9076766 20.019097 8.9061578 19.898438 8.9121094 C 19.850795 6.8103421 18.11248 5.0996094 16 5.0996094 z M 16 7.0996094 C 17.061186 7.0996094 17.900391 7.9388143 17.900391 9 C 17.900391 9.4804497 17.728167 9.915882 17.441406 10.248047 L 17.138672 10.529297 C 16.822782 10.763416 16.4296 10.900391 16 10.900391 C 14.938814 10.900391 14.099609 10.061186 14.099609 9 C 14.099609 7.9388143 14.938814 7.0996094 16 7.0996094 z M 20 10.90625 C 20.028168 10.906487 20.055798 10.907697 20.083984 10.910156 C 20.309478 10.929826 20.562788 11.055575 20.753906 11.257812 C 20.945024 11.46005 21.055599 11.719066 21.0625 11.945312 C 21.0694 12.171558 21.01619 12.387206 20.712891 12.673828 A 1.0001 1.0001 0 0 0 20.708984 12.677734 L 16.109375 17.078125 A 1.0001 1.0001 0 0 0 16.046875 17.140625 C 15.548842 17.709797 14.857576 18 14 18 L 10 18 C 9.2171565 18 8.4050756 18.275118 7.8769531 18.904297 L 7.0449219 19.630859 L 4.4277344 17.013672 L 9.2949219 12.320312 A 1.0001 1.0001 0 0 0 9.4003906 12.199219 C 9.4763906 12.097885 9.6222222 12 10 12 L 13 12 C 13.416666 12 13.601893 12.120244 13.751953 12.289062 C 13.902014 12.45788 14 12.722222 14 13 C 14 13.218294 13.936635 13.429937 13.837891 13.591797 L 13.769531 13.65625 A 1 1 0 0 0 13.615234 13.837891 C 13.481779 13.936461 13.301155 14 13 14 L 11 14 A 1 1 0 0 0 10 15 A 1 1 0 0 0 11 16 L 13 16 C 13.916666 16 14.731441 15.620244 15.248047 15.039062 C 15.281506 15.001421 15.314591 14.960767 15.345703 14.921875 L 19.330078 11.222656 A 1.0001 1.0001 0 0 0 19.335938 11.216797 C 19.601324 10.966003 19.802823 10.904588 20 10.90625 z "/>
</svg>
