<?xml version="1.0" encoding="UTF-8" standalone="no"?>
<svg xmlns="http://www.w3.org/2000/svg" xmlns:svg="http://www.w3.org/2000/svg" width="24" height="24" viewBox="0 0 24 24" fill="currentColor" tags="waiter,waitress,restaurant,table service,served,dinner,dining,meal,course,luxury" categories="food-beverage,people">
  <path d="M 12 1 A 1 1 0 0 0 11 2 L 11 2.0644531 C 7.3909814 2.5182242 4.5182246 5.3909795 4.0644531 9 L 4 9 A 1 1 0 0 0 3 10 A 1 1 0 0 0 4 11 L 20 11 A 1 1 0 0 0 21 10 A 1 1 0 0 0 20 9 L 19.935547 9 C 19.481775 5.3909795 16.609018 2.5182242 13 2.0644531 L 13 2 A 1 1 0 0 0 12 1 z M 12 4 C 14.984341 4 17.442627 6.1546752 17.916016 9 L 6.0839844 9 C 6.5573731 6.1546752 9.0156587 4 12 4 z M 2 13 A 1 1 0 0 0 1 14 A 1 1 0 0 0 2 15 L 4 15 L 4 19 L 4 20 L 2 20 A 1 1 0 0 0 1 21 A 1 1 0 0 0 2 22 L 4 22 C 5.0927249 22 6 21.092725 6 20 L 6.1503906 20 L 7.4472656 21.458984 L 7.4492188 21.460938 L 7.453125 21.464844 C 8.3549534 22.491417 9.660343 23 11 23 L 15 23 C 16.317935 23 17.601958 22.507095 18.501953 21.513672 L 22.076172 18.236328 A 1.0001 1.0001 0 0 0 22.09375 18.21875 C 22.756934 17.578435 23.081028 16.735914 23.048828 15.955078 C 23.016628 15.174242 22.674276 14.477445 22.169922 13.955078 C 21.665568 13.432711 20.980398 13.065428 20.201172 13.005859 C 19.421946 12.946289 18.569434 13.240544 17.90625 13.880859 L 17.941406 13.847656 L 16.789062 14.855469 C 16.66586 14.535466 16.488155 14.231058 16.248047 13.960938 C 15.731441 13.379755 14.916666 13 14 13 L 5 13 L 2 13 z M 6 15 L 14 15 C 14.416666 15 14.601893 15.120244 14.751953 15.289062 C 14.902014 15.45788 15 15.722222 15 16 C 15 16.195788 14.948469 16.383415 14.867188 16.537109 L 14.742188 16.646484 A 1 1 0 0 0 14.570312 16.869141 C 14.441429 16.950082 14.268984 17 14 17 L 12 17 A 1 1 0 0 0 11 18 A 1 1 0 0 0 12 19 L 14 19 C 14.916666 19 15.731441 18.620244 16.248047 18.039062 C 16.298242 17.982593 16.343745 17.924467 16.388672 17.865234 L 19.257812 15.353516 A 1.0001 1.0001 0 0 0 19.294922 15.320312 C 19.598397 15.027289 19.819721 14.982486 20.048828 15 C 20.277935 15.01751 20.534823 15.141117 20.730469 15.34375 C 20.926114 15.546383 21.041314 15.807529 21.050781 16.037109 C 21.060281 16.26669 21.008561 16.488232 20.705078 16.78125 L 17.125 20.0625 A 1.0001 1.0001 0 0 0 17.046875 20.140625 C 16.548899 20.709741 15.857576 21 15 21 L 11 21 C 10.142424 21 9.4511059 20.709746 8.953125 20.140625 A 1.0001 1.0001 0 0 0 8.9472656 20.134766 L 7.6445312 18.671875 C 7.2657349 18.246111 6.7222783 18.000418 6.1523438 18 A 1.0001 1.0001 0 0 0 6.1503906 18 L 6 18 L 6 15 z "/>
</svg>
