<?xml version="1.0" encoding="UTF-8" standalone="no"?>
<svg xmlns="http://www.w3.org/2000/svg" xmlns:svg="http://www.w3.org/2000/svg" width="24" height="24" viewBox="0 0 24 24" fill="currentColor" tags="agreement,partnership,deal,business,assistance,cooperation,friendship,union,terms" categories="account,social,communication,finance,security">
  <path d="M 2.9589844 2 A 1 1 0 0 0 2.0039062 2.9101562 L 1.0039062 13.910156 A 1.0001 1.0001 0 0 0 1.2929688 14.707031 L 7.7929688 21.207031 C 8.4697454 21.883808 9.3457076 22.201746 10.152344 22.154297 C 10.95898 22.106847 11.674896 21.739166 12.207031 21.207031 C 12.496156 20.917907 12.737254 20.574111 12.904297 20.191406 C 13.456383 20.533045 14.072043 20.688432 14.652344 20.654297 C 15.45898 20.606847 16.174896 20.239166 16.707031 19.707031 C 17.131737 19.282326 17.451892 18.740434 17.587891 18.128906 C 17.777616 18.156617 17.96669 18.165218 18.152344 18.154297 C 18.95898 18.106847 19.674896 17.739166 20.207031 17.207031 C 20.739166 16.674896 21.106848 15.95898 21.154297 15.152344 C 21.157268 15.101828 21.158096 15.050994 21.158203 15 L 22 15 A 1.0001 1.0001 0 0 0 22.996094 13.910156 L 21.996094 2.9101562 A 1 1 0 0 0 20.910156 2.0039062 A 1 1 0 0 0 20.003906 3.0898438 L 20.011719 3.1796875 L 19.066406 3.3691406 C 18.822154 3.4172536 18.570556 3.3727806 18.357422 3.2441406 A 1.0001 1.0001 0 0 0 18.351562 3.2402344 L 17.882812 2.9609375 L 17.880859 2.9609375 C 16.549531 2.1653975 15.029996 1.8726177 13.568359 2.0527344 C 12.615215 2.1701899 11.686772 2.4888526 10.851562 3 L 4 3 A 1 1 0 0 0 3.0898438 2.0039062 A 1 1 0 0 0 2.9589844 2 z M 14.591797 4 C 15.371592 4.0314019 16.15029 4.2549478 16.857422 4.6777344 A 1.0001 1.0001 0 0 0 16.857422 4.6796875 L 17.324219 4.9570312 C 17.962659 5.3423665 18.721471 5.4761528 19.453125 5.3320312 A 1.0001 1.0001 0 0 0 19.457031 5.3300781 L 20.193359 5.1816406 L 20.904297 13 L 20.398438 13 C 20.338357 12.929188 20.274184 12.860121 20.207031 12.792969 L 16.326172 8.9121094 C 14.772826 7.3606958 12.227174 7.3606958 10.673828 8.9121094 L 9.7929688 9.7929688 C 9.4697457 10.116192 9.2207076 10.173254 8.9648438 10.158203 C 8.7089798 10.143152 8.4248964 10.010834 8.2070312 9.7929688 C 7.9891659 9.5751035 7.8568477 9.2910201 7.8417969 9.0351562 C 7.826746 8.7792923 7.8838082 8.5302542 8.2070312 8.2070312 L 11.015625 5.3984375 L 11.017578 5.3964844 C 11.990251 4.4274691 13.292138 3.9476635 14.591797 4 z M 3.8222656 5 L 8.5859375 5 L 6.7929688 6.7929688 C 6.1161923 7.4697453 5.7982538 8.3457077 5.8457031 9.1523438 C 5.8931521 9.9589796 6.260834 10.674896 6.7929688 11.207031 C 7.3251035 11.739166 8.0410203 12.106848 8.8476562 12.154297 C 9.6542921 12.201747 10.530255 11.883808 11.207031 11.207031 L 12.085938 10.328125 L 12.087891 10.326172 C 12.876533 9.5405845 14.123467 9.5405845 14.912109 10.326172 L 18.792969 14.207031 C 19.116192 14.530254 19.173254 14.779292 19.158203 15.035156 C 19.143153 15.29102 19.010834 15.575104 18.792969 15.792969 C 18.575104 16.010834 18.29102 16.143152 18.035156 16.158203 C 17.779292 16.173253 17.530254 16.116193 17.207031 15.792969 L 14.707031 13.292969 A 1 1 0 0 0 13.292969 13.292969 A 1 1 0 0 0 13.292969 14.707031 L 15.285156 16.699219 A 1 1 0 0 0 15.292969 16.707031 C 15.616192 17.030254 15.673254 17.279292 15.658203 17.535156 C 15.643153 17.79102 15.510834 18.075104 15.292969 18.292969 C 15.075104 18.510834 14.79102 18.643152 14.535156 18.658203 C 14.279292 18.673253 14.030254 18.616193 13.707031 18.292969 L 11.707031 16.292969 A 1 1 0 0 0 10.292969 16.292969 A 1 1 0 0 0 10.292969 17.707031 L 10.792969 18.207031 C 11.116192 18.530254 11.173254 18.779292 11.158203 19.035156 C 11.143153 19.29102 11.010834 19.575104 10.792969 19.792969 C 10.575104 20.010834 10.29102 20.143152 10.035156 20.158203 C 9.7792927 20.173253 9.5302542 20.116193 9.2070312 19.792969 L 3.0390625 13.625 L 3.8222656 5 z "/>
</svg>
