<?xml version="1.0" encoding="UTF-8" standalone="no"?>
<svg xmlns="http://www.w3.org/2000/svg" xmlns:svg="http://www.w3.org/2000/svg" width="24" height="24" viewBox="0 0 24 24" fill="currentColor" tags="waiter,waitress,restaurant,table service,served,dinner,dining,meal,course,luxury" categories="food-beverage,people">
  <path d="M 12 1 A 1 1 0 0 0 11 2 L 11 2.0625 C 7.3902774 2.5159525 4.5159526 5.3902754 4.0625 9 L 4 9 A 1 1 0 0 0 3 10 A 1 1 0 0 0 4 11 L 20 11 A 1 1 0 0 0 21 10 A 1 1 0 0 0 20 9 L 19.9375 9 C 19.484047 5.3902754 16.609722 2.5159525 13 2.0625 L 13 2 A 1 1 0 0 0 12 1 z M 12 4 C 14.984652 4 17.444945 6.1542345 17.917969 9 L 6.0820312 9 C 6.5550551 6.1542345 9.0153477 4 12 4 z M 2 13 A 1 1 0 0 0 1 14 A 1 1 0 0 0 2 15 L 4 15 L 4 19 L 4 20 L 2 20 A 1 1 0 0 0 1 21 A 1 1 0 0 0 2 22 L 4 22 C 5.0927249 22 6 21.092725 6 20 L 6.1503906 20 L 7.4472656 21.458984 L 7.4492188 21.460938 L 7.453125 21.464844 C 8.3549534 22.491417 9.660343 23 11 23 L 15 23 C 16.3248 23 17.616937 22.503853 18.517578 21.5 L 22.076172 18.236328 A 1.0001 1.0001 0 0 0 22.09375 18.21875 C 22.756934 17.578435 23.081028 16.735914 23.048828 15.955078 C 23.016628 15.174242 22.674276 14.477445 22.169922 13.955078 C 21.665568 13.432711 20.980398 13.065428 20.201172 13.005859 C 19.434096 12.947218 18.596093 13.231857 17.9375 13.851562 L 16.791016 14.853516 C 16.667815 14.533569 16.488116 14.231015 16.248047 13.960938 C 15.731441 13.379755 14.916666 13 14 13 L 5 13 L 2 13 z M 19.962891 14.996094 C 19.991461 14.995972 20.02019 14.997811 20.048828 15 C 20.277935 15.01751 20.534823 15.141117 20.730469 15.34375 C 20.926114 15.546383 21.041314 15.807529 21.050781 16.037109 C 21.060281 16.26669 21.008561 16.488232 20.705078 16.78125 L 17.125 20.0625 A 1.0001 1.0001 0 0 0 17.046875 20.140625 C 16.548899 20.709741 15.857576 21 15 21 L 11 21 C 10.142424 21 9.4511059 20.709746 8.953125 20.140625 A 1.0001 1.0001 0 0 0 8.9472656 20.134766 L 7.6445312 18.671875 C 7.2657349 18.246111 6.7222783 18.000418 6.1523438 18 A 1.0001 1.0001 0 0 0 6.1503906 18 L 6 18 L 6 15 L 14 15 C 14.416666 15 14.601893 15.120244 14.751953 15.289062 C 14.902014 15.45788 15 15.722222 15 16 C 15 16.192702 14.952031 16.38084 14.873047 16.533203 L 14.742188 16.646484 A 1 1 0 0 0 14.541016 16.886719 C 14.415354 16.957536 14.249452 17 14 17 L 12 17 A 1 1 0 0 0 11 18 A 1 1 0 0 0 12 19 L 14 19 C 14.916666 19 15.731441 18.620244 16.248047 18.039062 C 16.301256 17.979203 16.351146 17.91647 16.398438 17.853516 L 19.257812 15.353516 A 1.0001 1.0001 0 0 0 19.294922 15.320312 C 19.560462 15.063917 19.762896 14.996944 19.962891 14.996094 z "/>
</svg>
