<?xml version="1.0" encoding="UTF-8" standalone="no"?>
<svg xmlns="http://www.w3.org/2000/svg" xmlns:svg="http://www.w3.org/2000/svg" width="24" height="24" viewBox="0 0 24 24" fill="currentColor" tags="computer,server,memory,data,ssd,disk,hard disk,save" categories="development,devices,arrows,files">
  <path d="M 12 1 A 1.0001 1.0001 0 0 0 11.794922 1.0234375 A 1 1 0 0 0 11.611328 1.078125 A 1.0001 1.0001 0 0 0 11.5 1.1347656 A 1 1 0 0 0 11.439453 1.1757812 A 1.0001 1.0001 0 0 0 11.384766 1.2128906 A 1 1 0 0 0 11.341797 1.25 A 1.0001 1.0001 0 0 0 11.292969 1.2929688 A 1 1 0 0 0 11.283203 1.3027344 L 7.2929688 5.2929688 A 1 1 0 0 0 7.2929688 6.7070312 A 1 1 0 0 0 8.7070312 6.7070312 L 11 4.4140625 L 11 10 A 1 1 0 0 0 12 11 A 1 1 0 0 0 13 10 L 13 4.4140625 L 15.292969 6.7070312 A 1 1 0 0 0 16.707031 6.7070312 A 1 1 0 0 0 16.707031 5.2929688 L 12.716797 1.3027344 A 1 1 0 0 0 12.658203 1.25 A 1.0001 1.0001 0 0 0 12.615234 1.2128906 A 1 1 0 0 0 12.560547 1.1757812 A 1.0001 1.0001 0 0 0 12.382812 1.0761719 A 1 1 0 0 0 12.257812 1.0351562 A 1.0001 1.0001 0 0 0 12 1 z M 4 13 C 2.3552972 13 1 14.355297 1 16 L 1 20 C 1 21.644703 2.3552972 23 4 23 L 20 23 C 21.644703 23 23 21.644703 23 20 L 23 16 C 23 14.355297 21.644703 13 20 13 L 4 13 z M 4 15 L 20 15 C 20.571297 15 21 15.428703 21 16 L 21 20 C 21 20.571297 20.571297 21 20 21 L 4 21 C 3.4287028 21 3 20.571297 3 20 L 3 16 C 3 15.428703 3.4287028 15 4 15 z M 6 17 A 1 1 0 0 0 5 18 A 1 1 0 0 0 6 19 L 6.0097656 19 A 1 1 0 0 0 7.0097656 18 A 1 1 0 0 0 6.0097656 17 L 6 17 z M 10 17 A 1 1 0 0 0 9 18 A 1 1 0 0 0 10 19 L 10.009766 19 A 1 1 0 0 0 11.009766 18 A 1 1 0 0 0 10.009766 17 L 10 17 z "/>
</svg>
