<svg xmlns="http://www.w3.org/2000/svg" xmlns:svg="http://www.w3.org/2000/svg" width="24" height="24" viewBox="0 0 24 24" fill="currentColor" tags="helmet,construction,safety,savety" categories="tools">
  <path d="M 11 3 C 9.9072751 3 9 3.9072751 9 5 L 9 5.0722656 C 5.6162229 5.5602657 3 8.4852315 3 12 L 3 14 C 1.9092972 14 1 14.909297 1 16 L 1 18 C 1 19.090703 1.9092972 20 3 20 L 21 20 C 22.090703 20 23 19.090703 23 18 L 23 16 C 23 14.909297 22.090703 14 21 14 L 21 12 C 21 8.4852315 18.383777 5.5602656 15 5.0722656 L 15 5 C 15 3.9072751 14.092725 3 13 3 L 11 3 z M 11 5 L 13 5 L 13 10 A 1 1 0 0 0 14 11 A 1 1 0 0 0 15 10 L 15 7.0996094 C 17.289645 7.5594852 19 9.5694697 19 12 L 19 14 L 5 14 L 5 12 C 5 9.5694697 6.7103546 7.5594852 9 7.0996094 L 9 10 A 1 1 0 0 0 10 11 A 1 1 0 0 0 11 10 L 11 5 z M 3 16 L 4 16 L 20 16 L 21 16 L 21 18 L 3 18 L 3 16 z "/>
</svg>
