<?xml version="1.0" encoding="UTF-8" standalone="no"?>
<svg xmlns="http://www.w3.org/2000/svg" xmlns:svg="http://www.w3.org/2000/svg" width="24" height="24" viewBox="0 0 24 24" fill="currentColor" tags="computer,server,memory,data,ssd,disk,hard disk,save" categories="development,devices,arrows,files">
  <path d="M 12 1 A 1 1 0 0 0 11 2 L 11 7.5859375 L 8.7070312 5.2929688 A 1 1 0 0 0 8 5 A 1 1 0 0 0 7.2929688 5.2929688 A 1 1 0 0 0 7.2929688 6.7070312 L 11.292969 10.707031 A 1 1 0 0 0 12 11 A 1 1 0 0 0 12.707031 10.707031 L 16.707031 6.7070312 A 1 1 0 0 0 16.707031 5.2929688 A 1 1 0 0 0 15.292969 5.2929688 L 13 7.5859375 L 13 2 A 1 1 0 0 0 12 1 z M 4 13 C 2.3552972 13 1 14.355297 1 16 L 1 20 C 1 21.644703 2.3552972 23 4 23 L 20 23 C 21.644703 23 23 21.644703 23 20 L 23 16 C 23 14.355297 21.644703 13 20 13 L 4 13 z M 4 15 L 20 15 C 20.571297 15 21 15.428703 21 16 L 21 20 C 21 20.571297 20.571297 21 20 21 L 4 21 C 3.4287028 21 3 20.571297 3 20 L 3 16 C 3 15.428703 3.4287028 15 4 15 z M 6 17 A 1 1 0 0 0 5 18 A 1 1 0 0 0 6 19 L 6.0097656 19 A 1 1 0 0 0 7.0097656 18 A 1 1 0 0 0 6.0097656 17 L 6 17 z M 10 17 A 1 1 0 0 0 9 18 A 1 1 0 0 0 10 19 L 10.009766 19 A 1 1 0 0 0 11.009766 18 A 1 1 0 0 0 10.009766 17 L 10 17 z "/>
</svg>
