<?xml version="1.0" encoding="UTF-8" standalone="no"?>
<svg xmlns="http://www.w3.org/2000/svg" xmlns:svg="http://www.w3.org/2000/svg" width="24" height="24" viewBox="0 0 24 24" fill="currentColor" tags="computer,server,memory,data,ssd,disk,hard disk" categories="development,devices">
  <path d="M 7.2402344 3 C 6.103949 3.000603 5.0603344 3.646484 4.5546875 4.6640625 L 1.1054688 11.552734 A 1.0001 1.0001 0 0 0 1.0898438 11.587891 A 1 1 0 0 0 1.0644531 11.650391 A 1.0001 1.0001 0 0 0 1.0566406 11.673828 A 1 1 0 0 0 1.0273438 11.769531 A 1.0001 1.0001 0 0 0 1.0253906 11.777344 A 1 1 0 0 0 1.0078125 11.876953 A 1.0001 1.0001 0 0 0 1.0058594 11.884766 A 1 1 0 0 0 1 12 L 1 18 C 1 19.64501 2.3549904 21 4 21 L 20 21 C 21.64501 21 23 19.64501 23 18 L 23 12 A 1 1 0 0 0 22.994141 11.884766 A 1.0001 1.0001 0 0 0 22.992188 11.869141 A 1 1 0 0 0 22.939453 11.660156 A 1.0001 1.0001 0 0 0 22.935547 11.650391 A 1 1 0 0 0 22.910156 11.587891 A 1.0001 1.0001 0 0 0 22.894531 11.552734 L 19.443359 4.6621094 C 18.937235 3.6460093 17.895096 3.0006025 16.759766 3 L 7.2402344 3 z M 7.2402344 5 L 16.759766 5 C 17.141368 5.0002025 17.484484 5.2129507 17.654297 5.5546875 A 1.0001 1.0001 0 0 0 17.65625 5.5585938 L 20.380859 11 L 3.6191406 11 L 6.34375 5.5585938 A 1.0001 1.0001 0 0 0 6.3457031 5.5546875 C 6.5155193 5.2129545 6.8586318 5.0002025 7.2402344 5 z M 3 13 L 21 13 L 21 18 C 21 18.564129 20.564129 19 20 19 L 4 19 C 3.4358706 19 3 18.564129 3 18 L 3 13 z M 6 15 A 1 1 0 0 0 5 16 A 1 1 0 0 0 6 17 L 6.0097656 17 A 1 1 0 0 0 7.0097656 16 A 1 1 0 0 0 6.0097656 15 L 6 15 z M 10 15 A 1 1 0 0 0 9 16 A 1 1 0 0 0 10 17 L 10.009766 17 A 1 1 0 0 0 11.009766 16 A 1 1 0 0 0 10.009766 15 L 10 15 z "/>
</svg>
