<?xml version="1.0" encoding="UTF-8" standalone="no"?>
<svg xmlns="http://www.w3.org/2000/svg" xmlns:svg="http://www.w3.org/2000/svg" width="24" height="24" viewBox="0 0 24 24" fill="currentColor" tags="hashtag,number,pound" categories="text,social">
  
  <path d="M 10.111328 2.0058594 A 1 1 0 0 0 9.0058594 2.8886719 L 8.4375 8 L 4 8 A 1 1 0 0 0 3 9 A 1 1 0 0 0 4 10 L 8.2148438 10 L 7.7714844 14 L 4 14 A 1 1 0 0 0 3 15 A 1 1 0 0 0 4 16 L 7.5488281 16 L 7.0058594 20.888672 A 1 1 0 0 0 7.8886719 21.994141 A 1 1 0 0 0 8.9941406 21.111328 L 9.5625 16 L 13.548828 16 L 13.005859 20.888672 A 1 1 0 0 0 13.888672 21.994141 A 1 1 0 0 0 14.994141 21.111328 L 15.5625 16 L 20 16 A 1 1 0 0 0 21 15 A 1 1 0 0 0 20 14 L 15.785156 14 L 16.228516 10 L 20 10 A 1 1 0 0 0 21 9 A 1 1 0 0 0 20 8 L 16.451172 8 L 16.994141 3.1113281 A 1 1 0 0 0 16.111328 2.0058594 A 1 1 0 0 0 15.005859 2.8886719 L 14.4375 8 L 10.451172 8 L 10.994141 3.1113281 A 1 1 0 0 0 10.111328 2.0058594 z M 10.228516 10 L 14.214844 10 L 13.771484 14 L 9.7851562 14 L 10.228516 10 z "/>
</svg>
