<svg xmlns="http://www.w3.org/2000/svg" xmlns:svg="http://www.w3.org/2000/svg" width="24" height="24" viewBox="0 0 24 24" fill="currentColor" tags="incognito,disguise,costume,masked,anonymous,anonymity,privacy,private browsing,stealth,hidden,undercover,cloak,invisible,ghost,spy,agent,detective,identity,cap,fedora,spectacles,shades,sunglasses,eyewear" categories="social,account,security">
  <path d="M 14.945312 2.0039062 C 14.528795 2.0091363 14.10684 2.1017962 13.707031 2.2929688 L 12.431641 2.9023438 C 12.297021 2.9665865 12.149163 3.0000462 12 3 L 8.5 3 C 7.1617781 2.9997287 5.9772776 3.8958265 5.6132812 5.1835938 L 4.2441406 10 L 2 10 A 1 1 0 0 0 1 11 A 1 1 0 0 0 2 12 L 22 12 A 1 1 0 0 0 23 11 A 1 1 0 0 0 22 10 L 19.732422 10 L 17.84375 4.0410156 A 1.0001 1.0001 0 0 0 17.833984 4.015625 C 17.397719 2.7597624 16.194862 1.988227 14.945312 2.0039062 z M 14.990234 3.9941406 C 15.407574 3.9827416 15.794439 4.2375959 15.945312 4.671875 L 17.634766 10 L 6.3242188 10 L 7.5371094 5.7285156 C 7.6601067 5.2933686 8.0478039 4.9999083 8.5 5 L 12 5 C 12.447396 5.0001387 12.889193 4.8997205 13.292969 4.7070312 L 14.568359 4.0976562 A 1.0001 1.0001 0 0 0 14.570312 4.0976562 C 14.708568 4.0315481 14.851121 3.9979403 14.990234 3.9941406 z M 7 14 C 4.8027056 14 3 15.802706 3 18 C 3 20.197294 4.8027056 22 7 22 C 9.1530421 22 10.921598 20.267768 10.992188 18.130859 A 1 1 0 0 0 11 18 C 11 17.583334 11.120244 17.398107 11.289062 17.248047 C 11.45788 17.097986 11.722222 17 12 17 C 12.277778 17 12.542119 17.09799 12.710938 17.248047 C 12.879755 17.398107 13 17.583334 13 18 C 13 20.197294 14.802706 22 17 22 C 19.197294 22 21 20.197294 21 18 C 21 15.802706 19.197294 14 17 14 C 15.710406 14 14.557314 14.620895 13.824219 15.578125 C 13.282244 15.182241 12.635625 15 12 15 C 11.364375 15 10.717756 15.182241 10.175781 15.578125 C 9.4426858 14.620895 8.2895944 14 7 14 z M 7 16 C 8.1164141 16 9 16.883586 9 18 C 9 19.116414 8.1164141 20 7 20 C 5.8835859 20 5 19.116414 5 18 C 5 16.883586 5.8835859 16 7 16 z M 17 16 C 18.116414 16 19 16.883586 19 18 C 19 19.116414 18.116414 20 17 20 C 15.883586 20 15 19.116414 15 18 C 15 16.883586 15.883586 16 17 16 z "/>
</svg>
