<svg xmlns="http://www.w3.org/2000/svg" xmlns:svg="http://www.w3.org/2000/svg" width="24" height="24" viewBox="0 0 24 24" fill="currentColor" tags="mist,fog" categories="weather">
  <path d="M 12 1.5 A 1 1 0 0 0 11 2.5 L 11 5 A 1 1 0 0 0 12 6 A 1 1 0 0 0 13 5 L 13 2.5 A 1 1 0 0 0 12 1.5 z M 5.1992188 5.1992188 A 1 1 0 0 0 4.4921875 5.4921875 A 1 1 0 0 0 4.4921875 6.90625 L 5.8925781 8.3066406 A 1 1 0 0 0 7.3066406 8.3066406 A 1 1 0 0 0 7.3066406 6.8925781 L 5.90625 5.4921875 A 1 1 0 0 0 5.1992188 5.1992188 z M 18.800781 5.1992188 A 1 1 0 0 0 18.09375 5.4921875 L 16.693359 6.8925781 A 1 1 0 0 0 16.693359 8.3066406 A 1 1 0 0 0 18.107422 8.3066406 L 19.507812 6.90625 A 1 1 0 0 0 19.507812 5.4921875 A 1 1 0 0 0 18.800781 5.1992188 z M 12 8 C 10.777778 8 9.5421194 8.402014 8.5859375 9.2519531 C 7.6297556 10.101892 7 11.416667 7 13 A 1 1 0 0 0 8 14 A 1 1 0 0 0 9 13 C 9 11.916667 9.3702444 11.231441 9.9140625 10.748047 C 10.457881 10.264653 11.222222 10 12 10 C 12.777778 10 13.542119 10.264653 14.085938 10.748047 C 14.629755 11.231441 15 11.916667 15 13 A 1 1 0 0 0 16 14 A 1 1 0 0 0 17 13 C 17 11.416667 16.370244 10.101892 15.414062 9.2519531 C 14.45788 8.402014 13.222222 8 12 8 z M 2 12 A 1 1 0 0 0 1 13 A 1 1 0 0 0 2 14 L 4 14 A 1 1 0 0 0 5 13 A 1 1 0 0 0 4 12 L 2 12 z M 20 12 A 1 1 0 0 0 19 13 A 1 1 0 0 0 20 14 L 22 14 A 1 1 0 0 0 23 13 A 1 1 0 0 0 22 12 L 20 12 z M 2 16 A 1 1 0 0 0 1 17 A 1 1 0 0 0 2 18 L 22 18 A 1 1 0 0 0 23 17 A 1 1 0 0 0 22 16 L 2 16 z M 2 20 A 1 1 0 0 0 1 21 A 1 1 0 0 0 2 22 L 22 22 A 1 1 0 0 0 23 21 A 1 1 0 0 0 22 20 L 2 20 z "/>
</svg>
