<svg xmlns="http://www.w3.org/2000/svg" xmlns:svg="http://www.w3.org/2000/svg" width="24" height="24" viewBox="0 0 24 24" fill="currentColor" tags="tv,resolution,video,high definition,720p,1080p" categories="devices,multimedia">
  <path d="M 4 4 C 2.3552972 4 1 5.3552972 1 7 L 1 17 C 1 18.644703 2.3552972 20 4 20 L 20 20 C 21.644703 20 23 18.644703 23 17 L 23 7 C 23 5.3552972 21.644703 4 20 4 L 4 4 z M 4 6 L 20 6 C 20.571297 6 21 6.4287028 21 7 L 21 17 C 21 17.571297 20.571297 18 20 18 L 4 18 C 3.4287028 18 3 17.571297 3 17 L 3 7 C 3 6.4287028 3.4287028 6 4 6 z M 6 8 A 1 1 0 0 0 5 9 L 5 15 A 1 1 0 0 0 6 16 A 1 1 0 0 0 7 15 L 7 13 L 9 13 L 9 15 A 1 1 0 0 0 10 16 A 1 1 0 0 0 11 15 L 11 9 A 1 1 0 0 0 10 8 A 1 1 0 0 0 9 9 L 9 11 L 7 11 L 7 9 A 1 1 0 0 0 6 8 z M 14.5 8 C 13.683418 8 13 8.6834175 13 9.5 L 13 14.5 C 13 15.316582 13.683418 16 14.5 16 L 15.5 16 C 17.421152 16 19 14.421152 19 12.5 L 19 11.5 C 19 9.578848 17.421152 8 15.5 8 L 14.5 8 z M 15 10 L 15.5 10 C 16.340272 10 17 10.659728 17 11.5 L 17 12.5 C 17 13.340272 16.340272 14 15.5 14 L 15 14 L 15 10 z "/>
</svg>
