<?xml version="1.0" encoding="UTF-8" standalone="no"?>
<svg xmlns="http://www.w3.org/2000/svg" xmlns:svg="http://www.w3.org/2000/svg" width="24" height="24" viewBox="0 0 24 24" fill="currentColor" tags="music,audio,sound,mute,off" categories="multimedia,connectivity,communication,devices,gaming">
  <path d="M 2 1 A 1 1 0 0 0 1.2929688 1.2929688 A 1 1 0 0 0 1.2929688 2.7070312 L 4.2578125 5.671875 C 2.8041878 7.4497522 1.9999799 9.6833853 2 12 L 2 14 L 2 19 C 2 20.64501 3.3549904 22 5 22 L 6 22 C 7.6450096 22 9 20.64501 9 19 L 9 16 C 9 14.35499 7.6450096 13 6 13 L 4 13 L 4 12 C 3.9999845 10.214334 4.5983174 8.4911756 5.6816406 7.0957031 L 15 16.414062 L 15 19 C 15 20.64501 16.35499 22 18 22 L 19 22 C 19.451737 21.999903 19.892731 21.898342 20.292969 21.707031 L 21.292969 22.707031 A 1 1 0 0 0 22.707031 22.707031 A 1 1 0 0 0 22.707031 21.292969 L 6.34375 4.9296875 L 2.7070312 1.2929688 A 1 1 0 0 0 2 1 z M 11.753906 2 C 11.579537 2.0041783 11.403915 2.0137248 11.228516 2.0273438 C 10.426689 2.089602 9.6152154 2.2498823 8.8085938 2.5214844 A 1 1 0 0 0 8.1796875 3.7890625 A 1 1 0 0 0 9.4472656 4.4179688 C 14.660249 2.6626763 20.000333 6.4994319 20 12 L 20 13 L 19.65625 13 A 1 1 0 0 0 18.65625 14 A 1 1 0 0 0 19.65625 15 L 20 15 L 20 15.34375 A 1 1 0 0 0 21 16.34375 A 1 1 0 0 0 22 15.34375 L 22 12 C 22.000349 6.2283386 17.159367 1.8704723 11.753906 2 z M 4 15 L 6 15 C 6.5641294 15 7 15.435871 7 16 L 7 19 C 7 19.564129 6.5641294 20 6 20 L 5 20 C 4.4358706 20 4 19.564129 4 19 L 4 15 z M 17 18.414062 L 18.585938 20 L 18 20 C 17.435871 20 17 19.564129 17 19 L 17 18.414062 z "/>
</svg>
