<?xml version="1.0" encoding="UTF-8" standalone="no"?>
<svg xmlns="http://www.w3.org/2000/svg" xmlns:svg="http://www.w3.org/2000/svg" width="24" height="24" viewBox="0 0 24 24" fill="currentColor" tags="h1,html,markup,markdown" categories="text,development">
  
  <path d="M 4 5 A 1 1 0 0 0 3 6 L 3 18 A 1 1 0 0 0 4 19 A 1 1 0 0 0 5 18 L 5 13 L 11 13 L 11 18 A 1 1 0 0 0 12 19 A 1 1 0 0 0 13 18 L 13 6 A 1 1 0 0 0 12 5 A 1 1 0 0 0 11 6 L 11 11 L 5 11 L 5 6 A 1 1 0 0 0 4 5 z M 19.953125 9.0019531 A 1.0001 1.0001 0 0 0 19.445312 9.1679688 L 16.445312 11.167969 A 1 1 0 0 0 16.167969 12.554688 A 1 1 0 0 0 17.554688 12.832031 L 19 11.869141 L 19 18 A 1 1 0 0 0 20 19 A 1 1 0 0 0 21 18 L 21 10 A 1.0001 1.0001 0 0 0 20.472656 9.1191406 A 1.0001 1.0001 0 0 0 19.953125 9.0019531 z "/>
</svg>
