<?xml version="1.0" encoding="UTF-8" standalone="no"?>
<svg xmlns="http://www.w3.org/2000/svg" xmlns:svg="http://www.w3.org/2000/svg" width="24" height="24" viewBox="0 0 24 24" fill="currentColor" tags="music,audio,sound,gaming,headphones,headset,call,center,phone,telephone,voip,video" categories="multimedia,connectivity,devices,files,gaming">
  <path d="M 12 1 C 6.4889982 1 2 5.4889941 2 11 L 2 16 C 2 17.64501 3.3549904 19 5 19 L 6 19 C 7.6450096 19 9 17.64501 9 16 L 9 13 C 9 11.35499 7.6450096 10 6 10 L 4.2011719 10 C 4.7115619 6.0678245 7.9249638 3 12 3 C 16.075036 3 19.288438 6.0678245 19.798828 10 L 18 10 C 16.35499 10 15 11.35499 15 13 L 15 16 C 15 17.64501 16.35499 19 18 19 L 19 19 C 19.303692 19 19.597778 18.952849 19.875 18.867188 C 19.506616 20.106577 18.366257 21 17 21 L 12 21 A 1 1 0 0 0 11 22 A 1 1 0 0 0 12 23 L 17 23 C 19.749579 23 22 20.749579 22 18 L 22 16 L 22 11 C 22 5.4889941 17.511002 1 12 1 z M 4 12 L 6 12 C 6.5641294 12 7 12.435871 7 13 L 7 16 C 7 16.564129 6.5641294 17 6 17 L 5 17 C 4.4358706 17 4 16.564129 4 16 L 4 12 z M 18 12 L 20 12 L 20 16 C 20 16.564129 19.564129 17 19 17 L 18 17 C 17.435871 17 17 16.564129 17 16 L 17 13 C 17 12.435871 17.435871 12 18 12 z "/>
</svg>
