<svg xmlns="http://www.w3.org/2000/svg" xmlns:svg="http://www.w3.org/2000/svg" width="24" height="24" viewBox="0 0 24 24" fill="currentColor" tags="h2,html,markup,markdown" categories="text">
  <path d="M 4 5 A 1 1 0 0 0 3 6 L 3 18 A 1 1 0 0 0 4 19 A 1 1 0 0 0 5 18 L 5 13 L 11 13 L 11 18 A 1 1 0 0 0 12 19 A 1 1 0 0 0 13 18 L 13 6 A 1 1 0 0 0 12 5 A 1 1 0 0 0 11 6 L 11 11 L 5 11 L 5 6 A 1 1 0 0 0 4 5 z M 19.201172 9.2636719 C 18.900979 9.2479177 18.591173 9.2712771 18.277344 9.3339844 C 17.649685 9.459399 17.007057 9.7442186 16.400391 10.199219 A 1 1 0 0 0 16.199219 11.599609 A 1 1 0 0 0 17.599609 11.800781 C 18.386276 11.210781 19.031444 11.190169 19.433594 11.324219 C 19.835743 11.458269 20 11.694444 20 12 C 20 12.527778 19.88783 12.704001 19.654297 12.947266 C 19.420763 13.19053 18.996111 13.448964 18.470703 13.777344 C 17.945295 14.105724 17.315752 14.522383 16.816406 15.208984 C 16.31706 15.895585 16 16.833333 16 18 A 1.0001 1.0001 0 0 0 17 19 L 21 19 A 1 1 0 0 0 22 18 A 1 1 0 0 0 21 17 L 18.267578 17 C 18.337078 16.825053 18.338088 16.516087 18.433594 16.384766 C 18.684248 16.040117 19.054705 15.769276 19.529297 15.472656 C 20.003889 15.176036 20.579237 14.87197 21.095703 14.333984 C 21.61217 13.795999 22 12.972222 22 12 C 22 10.805556 21.164257 9.7917313 20.066406 9.4257812 C 19.791944 9.3342937 19.501364 9.279426 19.201172 9.2636719 z "/>
</svg>
