<svg xmlns="http://www.w3.org/2000/svg" xmlns:svg="http://www.w3.org/2000/svg" width="24" height="24" viewBox="0 0 24 24" fill="currentColor" tags="h5,html,markup,markdown" categories="text">
  <path d="M 4 5 A 1 1 0 0 0 3 6 L 3 18 A 1 1 0 0 0 4 19 A 1 1 0 0 0 5 18 L 5 13 L 11 13 L 11 18 A 1 1 0 0 0 12 19 A 1 1 0 0 0 13 18 L 13 6 A 1 1 0 0 0 12 5 A 1 1 0 0 0 11 6 L 11 11 L 5 11 L 5 6 A 1 1 0 0 0 4 5 z M 17 9 A 1.0001 1.0001 0 0 0 16 10 L 16 13 A 1 1 0 0 0 17 14 L 18.300781 14 C 19.311892 14 20 14.671429 20 15.5 C 20 16.328571 19.311892 17 18.300781 17 C 17.934115 17 17.728009 16.945061 17.447266 16.804688 A 1 1 0 0 0 16.105469 17.251953 A 1 1 0 0 0 16.552734 18.59375 C 17.071991 18.853378 17.667448 19 18.300781 19 C 20.28967 19 22 17.471429 22 15.5 C 22 13.528571 20.28967 12 18.300781 12 L 18 12 L 18 11 L 21 11 A 1 1 0 0 0 22 10 A 1 1 0 0 0 21 9 L 17 9 z "/>
</svg>
