<?xml version="1.0" encoding="UTF-8" standalone="no"?>
<svg xmlns="http://www.w3.org/2000/svg" xmlns:svg="http://www.w3.org/2000/svg" width="24" height="24" viewBox="0 0 24 24" fill="currentColor" tags="music,audio,sound,mute,off" categories="multimedia,connectivity,communication,devices,gaming">
  <path d="M 2 1 A 1 1 0 0 0 1.2929688 1.2929688 A 1 1 0 0 0 1.2929688 2.7070312 L 4.2578125 5.671875 C 2.8041902 7.44975 1.9999799 9.68339 2 12 L 2 14 L 2 19 C 2 20.645006 3.3549936 22 5 22 L 6 22 C 7.6450064 22 9 20.645006 9 19 L 9 16 C 9 14.354994 7.6450064 13 6 13 L 4 13 L 4 12 C 3.9999845 10.214338 4.5983191 8.4911741 5.6816406 7.0957031 L 15 16.414062 L 15 19 C 15 20.645006 16.354994 22 18 22 L 19 22 C 19.451737 21.999903 19.892731 21.898341 20.292969 21.707031 L 21.292969 22.707031 A 1 1 0 0 0 22.707031 22.707031 A 1 1 0 0 0 22.707031 21.292969 L 6.34375 4.9296875 L 2.7070312 1.2929688 A 1 1 0 0 0 2 1 z M 11.753906 2 C 11.579537 2.0041783 11.403915 2.0137248 11.228516 2.0273438 C 10.42669 2.0896018 9.6152137 2.2498828 8.8085938 2.5214844 A 1 1 0 0 0 8.1796875 3.7890625 A 1 1 0 0 0 9.4472656 4.4179688 C 14.660239 2.6626799 20.000333 6.4994429 20 12 L 20 13 L 19.65625 13 A 1 1 0 0 0 18.65625 14 A 1 1 0 0 0 19.65625 15 L 20 15 L 20 15.34375 A 1 1 0 0 0 21 16.34375 A 1 1 0 0 0 22 15.34375 L 22 12 C 22.000349 6.2283501 17.159356 1.8704731 11.753906 2 z M 4 15 L 6 15 C 6.5641282 15 7 15.435872 7 16 L 7 19 C 7 19.564128 6.5641282 20 6 20 L 5 20 C 4.4358718 20 4 19.564128 4 19 L 4 15 z M 17 18.414062 L 18.585938 20 L 18 20 C 17.435872 20 17 19.564128 17 19 L 17 18.414062 z "/>
</svg>
