<svg xmlns="http://www.w3.org/2000/svg" xmlns:svg="http://www.w3.org/2000/svg" width="24" height="24" viewBox="0 0 24 24" fill="currentColor" tags="music,audio,sound" categories="multimedia,connectivity,devices,files,gaming">
  <path d="M 12 2 C 6.4889982 2 2 6.4889941 2 12 L 2 14 L 2 19 C 2 20.64501 3.3549904 22 5 22 L 6 22 C 7.6450096 22 9 20.64501 9 19 L 9 16 C 9 14.35499 7.6450096 13 6 13 L 4 13 L 4 12 C 4 7.5698737 7.5698765 4 12 4 C 16.430123 4 20 7.5698737 20 12 L 20 13 L 18 13 C 16.35499 13 15 14.35499 15 16 L 15 19 C 15 20.64501 16.35499 22 18 22 L 19 22 C 20.64501 22 22 20.64501 22 19 L 22 14 L 22 12 C 22 6.4889941 17.511002 2 12 2 z M 4 15 L 6 15 C 6.5641294 15 7 15.435871 7 16 L 7 19 C 7 19.564129 6.5641294 20 6 20 L 5 20 C 4.4358706 20 4 19.564129 4 19 L 4 15 z M 18 15 L 20 15 L 20 19 C 20 19.564129 19.564129 20 19 20 L 18 20 C 17.435871 20 17 19.564129 17 19 L 17 16 C 17 15.435871 17.435871 15 18 15 z "/>
</svg>
