<?xml version="1.0" encoding="UTF-8" standalone="no"?>
<svg xmlns="http://www.w3.org/2000/svg" xmlns:svg="http://www.w3.org/2000/svg" width="24" height="24" viewBox="0 0 24 24" fill="currentColor" tags="music,audio,sound,gaming,headphones,headset,call,center,phone,telephone,voip,video" categories="multimedia,connectivity,devices,files,gaming">
  
  <path d="M 12 1 C 6.4890092 1 2 5.4890051 2 11 L 2 16 C 2 17.645006 3.3549936 19 5 19 L 6 19 C 7.6450064 19 9 17.645006 9 16 L 9 13 C 9 11.354994 7.6450064 10 6 10 L 4.2011719 10 C 4.7115609 6.0678323 7.924972 3 12 3 C 16.075028 3 19.28844 6.0678323 19.798828 10 L 18 10 C 16.354994 10 15 11.354994 15 13 L 15 16 C 15 17.645006 16.354994 19 18 19 L 19 19 C 19.302865 19 19.59649 18.952402 19.873047 18.867188 C 19.504848 20.106881 18.36647 21 17 21 L 12 21 A 1 1 0 0 0 11 22 A 1 1 0 0 0 12 23 L 17 23 C 19.749573 23 22 20.749573 22 18 L 22 16 L 22 11 C 22 5.4890051 17.51099 1 12 1 z M 4 12 L 6 12 C 6.5641282 12 7 12.435872 7 13 L 7 16 C 7 16.564128 6.5641282 17 6 17 L 5 17 C 4.4358718 17 4 16.564128 4 16 L 4 12 z M 18 12 L 20 12 L 20 16 C 20 16.564128 19.564128 17 19 17 L 18 17 C 17.435872 17 17 16.564128 17 16 L 17 13 C 17 12.435872 17.435872 12 18 12 z "/>
</svg>
