<svg xmlns="http://www.w3.org/2000/svg" xmlns:svg="http://www.w3.org/2000/svg" width="24" height="24" viewBox="0 0 24 24" fill="currentColor" tags="h6,html,markup,markdown" categories="text">
  <path d="M 4 5 A 1 1 0 0 0 3 6 L 3 18 A 1 1 0 0 0 4 19 A 1 1 0 0 0 5 18 L 5 13 L 11 13 L 11 18 A 1 1 0 0 0 12 19 A 1 1 0 0 0 13 18 L 13 6 A 1 1 0 0 0 12 5 A 1 1 0 0 0 11 6 L 11 11 L 5 11 L 5 6 A 1 1 0 0 0 4 5 z M 20 9 A 1 1 0 0 0 19.292969 9.2929688 C 17.316633 11.269304 16.111978 13.090529 16.017578 15.679688 C 16.00609 15.785381 16 15.891477 16 16 C 16 17.64501 17.35499 19 19 19 C 20.64501 19 22 17.64501 22 16 C 22 14.35499 20.64501 13 19 13 C 18.919243 13 18.838999 13.00336 18.759766 13.009766 C 19.194692 12.291037 19.831383 11.58268 20.707031 10.707031 A 1 1 0 0 0 20.707031 9.2929688 A 1 1 0 0 0 20 9 z M 19 15 C 19.564129 15 20 15.435871 20 16 C 20 16.564129 19.564129 17 19 17 C 18.435871 17 18 16.564129 18 16 C 18 15.963161 18.005441 15.932726 18.005859 15.896484 C 18.055811 15.38377 18.471129 15 19 15 z "/>
</svg>
