<?xml version="1.0" encoding="UTF-8" standalone="no"?>
<svg xmlns="http://www.w3.org/2000/svg" xmlns:svg="http://www.w3.org/2000/svg" width="24" height="24" viewBox="0 0 24 24" fill="currentColor" tags="h3,html,markup,markdown" categories="text">
  <path d="M 4 5 A 1 1 0 0 0 3 6 L 3 18 A 1 1 0 0 0 4 19 A 1 1 0 0 0 5 18 L 5 13 L 11 13 L 11 18 A 1 1 0 0 0 12 19 A 1 1 0 0 0 13 18 L 13 6 A 1 1 0 0 0 12 5 A 1 1 0 0 0 11 6 L 11 11 L 5 11 L 5 6 A 1 1 0 0 0 4 5 z M 18.917969 9.1015625 C 18.847275 9.1014129 18.776391 9.1032754 18.705078 9.1074219 C 18.134578 9.1405929 17.546442 9.3126406 16.992188 9.6386719 A 1 1 0 0 0 16.638672 11.007812 A 1 1 0 0 0 18.007812 11.361328 C 18.599307 11.013391 19.105709 11.049236 19.460938 11.216797 C 19.816166 11.384358 20 11.65 20 12 C 20 12.564129 19.564129 13 19 13 A 1 1 0 0 0 18.763672 13.029297 A 1 1 0 0 0 18.666016 13.064453 A 1 1 0 0 0 18.53125 13.121094 A 1 1 0 0 0 18.451172 13.171875 A 1 1 0 0 0 18.333984 13.261719 A 1 1 0 0 0 18.261719 13.333984 A 1 1 0 0 0 18.171875 13.451172 A 1 1 0 0 0 18.121094 13.53125 A 1 1 0 0 0 18.064453 13.666016 A 1 1 0 0 0 18.029297 13.763672 A 1 1 0 0 0 18 14 A 1 1 0 0 0 18.029297 14.236328 A 1 1 0 0 0 18.064453 14.333984 A 1 1 0 0 0 18.121094 14.46875 A 1 1 0 0 0 18.171875 14.548828 A 1 1 0 0 0 18.261719 14.666016 A 1 1 0 0 0 18.333984 14.738281 A 1 1 0 0 0 18.451172 14.828125 A 1 1 0 0 0 18.53125 14.878906 A 1 1 0 0 0 18.666016 14.935547 A 1 1 0 0 0 18.763672 14.970703 A 1 1 0 0 0 19 15 C 19.564129 15 20 15.435871 20 16 C 20 16.52963 19.735945 16.897926 19.339844 17.076172 C 18.943743 17.254417 18.369209 17.276419 17.599609 16.699219 A 1 1 0 0 0 16.199219 16.900391 A 1 1 0 0 0 16.400391 18.300781 C 17.630791 19.223581 19.056257 19.397145 20.160156 18.900391 C 21.264055 18.403636 22 17.27037 22 16 C 22 15.2344 21.706197 14.532602 21.226562 14 C 21.706197 13.467398 22 12.7656 22 12 C 22 10.85 21.284225 9.8656425 20.314453 9.4082031 C 19.890178 9.2080734 19.412825 9.1026095 18.917969 9.1015625 z "/>
</svg>
