<svg xmlns="http://www.w3.org/2000/svg" xmlns:svg="http://www.w3.org/2000/svg" width="24" height="24" viewBox="0 0 24 24" fill="currentColor" tags="plus,like,favorite,add,health,support" categories="medical,account,multimedia,gaming,social">
  <path d="M 16.345703 2.984375 C 14.802057 3.0280288 13.251309 3.6536242 12 4.8847656 C 10.054903 2.985805 7.3767044 2.5853779 5.1738281 3.4296875 C 2.851187 4.3199001 1.0000539 6.5674564 1 9.5 C 1 12.234783 2.7615419 14.175604 4.2929688 15.707031 A 1.0001 1.0001 0 0 0 4.3046875 15.71875 L 9.78125 21.019531 C 9.7834415 21.021937 9.7849116 21.024947 9.7871094 21.027344 L 9.8125 21.050781 C 10.993228 22.308757 13.034348 22.298283 14.203125 21.03125 L 14.205078 21.029297 L 14.224609 21.009766 L 15.173828 20.09375 A 1 1 0 0 0 15.197266 18.679688 A 1 1 0 0 0 13.783203 18.654297 L 12.8125 19.59375 A 1.0001 1.0001 0 0 0 12.753906 19.65625 C 12.347332 20.123211 11.666362 20.127755 11.253906 19.666016 A 1.0001 1.0001 0 0 0 11.203125 19.613281 L 5.7070312 14.292969 L 5.7050781 14.291016 L 5.6953125 14.28125 C 4.232146 12.816885 3 11.359989 3 9.5 C 3.0000388 7.3898146 4.2584535 5.9236517 5.8886719 5.2988281 C 7.5188903 4.6740046 9.4372465 4.9225932 10.847656 6.4921875 A 1.0001 1.0001 0 0 0 10.861328 6.5078125 C 11.467942 7.1564246 12.532058 7.1564246 13.138672 6.5078125 A 1.0001 1.0001 0 0 0 13.15625 6.4882812 C 14.563712 4.9068204 16.484176 4.6553554 18.117188 5.28125 C 19.7502 5.9071446 21.010085 7.3790521 21 9.4960938 A 1.0001 1.0001 0 0 0 21 9.5 C 20.999749 9.9076146 20.93931 10.312677 20.822266 10.703125 A 1 1 0 0 0 21.494141 11.947266 A 1 1 0 0 0 22.738281 11.277344 C 22.910693 10.702215 22.999254 10.104308 23 9.5039062 L 23 9.5019531 C 23.013151 6.5606635 21.159115 4.3059779 18.832031 3.4140625 C 18.250126 3.1910322 17.634406 3.0518472 17.005859 3.0019531 C 16.786518 2.9845418 16.566224 2.9781387 16.345703 2.984375 z M 11.677734 5.140625 L 11.679688 5.140625 L 11.681641 5.140625 L 11.683594 5.140625 L 11.683594 5.1425781 C 11.678833 5.1469523 11.672892 5.1503354 11.667969 5.1542969 L 11.677734 5.140625 z M 12.316406 5.140625 L 12.318359 5.140625 L 12.320312 5.140625 L 12.322266 5.140625 L 12.330078 5.1523438 C 12.326783 5.1498173 12.319698 5.1450958 12.316406 5.1425781 L 12.316406 5.140625 z M 18 11 A 1 1 0 0 0 17 12 L 17 14 L 15 14 A 1 1 0 0 0 14 15 A 1 1 0 0 0 15 16 L 17 16 L 17 18 A 1 1 0 0 0 18 19 A 1 1 0 0 0 19 18 L 19 16 L 21 16 A 1 1 0 0 0 22 15 A 1 1 0 0 0 21 14 L 19 14 L 19 12 A 1 1 0 0 0 18 11 z "/>
</svg>
