<?xml version="1.0" encoding="UTF-8" standalone="no"?>
<svg xmlns="http://www.w3.org/2000/svg" xmlns:svg="http://www.w3.org/2000/svg" width="24" height="24" viewBox="0 0 24 24" fill="currentColor" tags="unlike,dislike,hate,emotion" categories="social,multimedia">
  <path d="M 2 1 A 1 1 0 0 0 1.2929688 1.2929688 A 1 1 0 0 0 1.2929688 2.7070312 L 3.2070312 4.6210938 C 1.8205761 5.8416413 1.0001394 7.613519 1 9.5 C 1 12.234783 2.7615419 14.175604 4.2929688 15.707031 A 1.0001 1.0001 0 0 0 4.3046875 15.71875 L 9.78125 21.019531 C 9.7834415 21.021937 9.7849116 21.024947 9.7871094 21.027344 L 9.8125 21.050781 C 10.993276 22.308806 13.034372 22.298434 14.203125 21.03125 L 14.224609 21.009766 L 16.955078 18.369141 L 21.292969 22.707031 A 1 1 0 0 0 22.707031 22.707031 A 1 1 0 0 0 22.707031 21.292969 L 17.685547 16.271484 A 1 1 0 0 0 17.662109 16.248047 L 5.5292969 4.1152344 A 1 1 0 0 0 5.3691406 3.9550781 L 2.7070312 1.2929688 A 1 1 0 0 0 2 1 z M 16.347656 2.984375 C 14.806884 3.0276938 13.258131 3.6509072 12.007812 4.8769531 C 11.704195 4.5819124 11.400619 4.2855365 11.044922 4.0546875 A 1 1 0 0 0 9.6621094 4.3476562 A 1 1 0 0 0 9.9550781 5.7324219 C 10.284597 5.9462815 10.584633 6.2023569 10.847656 6.4941406 A 1.0001 1.0001 0 0 0 10.861328 6.5078125 C 11.467942 7.1564246 12.532058 7.1564246 13.138672 6.5078125 A 1.0001 1.0001 0 0 0 13.15625 6.4882812 C 14.563712 4.9068203 16.484176 4.6553554 18.117188 5.28125 C 19.7502 5.9071446 21.010085 7.3790521 21 9.4960938 A 1.0001 1.0001 0 0 0 21 9.5 C 21 11.015162 20.192813 12.254263 19.074219 13.480469 A 1 1 0 0 0 19.138672 14.894531 A 1 1 0 0 0 20.552734 14.828125 C 21.803374 13.457178 22.99853 11.730758 23 9.5039062 L 23 9.5019531 C 23.013151 6.5606635 21.159115 4.3059779 18.832031 3.4140625 C 18.250126 3.1910322 17.634406 3.0518472 17.005859 3.0019531 C 16.786931 2.9845746 16.567767 2.9781866 16.347656 2.984375 z M 11.677734 5.140625 L 11.679688 5.140625 L 11.681641 5.140625 L 11.683594 5.140625 L 11.683594 5.1425781 C 11.678833 5.1469523 11.672892 5.1503354 11.667969 5.1542969 L 11.677734 5.140625 z M 12.320312 5.140625 L 12.322266 5.140625 L 12.326172 5.1464844 C 12.323779 5.1446215 12.322441 5.1427871 12.320312 5.140625 z M 4.625 6.0390625 L 15.541016 16.955078 L 12.8125 19.59375 A 1.0001 1.0001 0 0 0 12.753906 19.65625 C 12.347332 20.123211 11.666362 20.127755 11.253906 19.666016 A 1.0001 1.0001 0 0 0 11.203125 19.613281 L 5.7070312 14.292969 L 5.7050781 14.291016 L 5.6953125 14.28125 C 4.232146 12.816885 3 11.359989 3 9.5 C 3.0000999 8.1478915 3.6049037 6.8852507 4.625 6.0390625 z "/>
</svg>
