<?xml version="1.0" encoding="UTF-8" standalone="no"?>
<svg xmlns="http://www.w3.org/2000/svg" xmlns:svg="http://www.w3.org/2000/svg" width="24" height="24" viewBox="0 0 24 24" fill="currentColor" tags="unlike,dislike,hate,emotion" categories="social,multimedia">
  
  <path d="M 2 1 A 1 1 0 0 0 1.2929688 1.2929688 A 1 1 0 0 0 1.2929688 2.7070312 L 2.703125 4.1171875 C 1.618427 5.3044106 1.0012938 6.8662073 1 8.5 C 1 11.234777 2.7551336 13.220847 4.3046875 14.71875 L 11.292969 21.707031 A 1.0001 1.0001 0 0 0 12.707031 21.707031 L 16.5 17.914062 L 21.292969 22.707031 A 1 1 0 0 0 22.707031 22.707031 A 1 1 0 0 0 22.707031 21.292969 L 2.7070312 1.2929688 A 1 1 0 0 0 2 1 z M 16.5 2 C 14.844523 2 13.425504 2.6285868 12.041016 3.765625 C 11.055218 2.9263199 10.053193 2.3287562 8.9472656 2.1171875 A 1 1 0 0 0 7.7773438 2.9121094 A 1 1 0 0 0 8.5722656 4.0820312 C 9.5176441 4.2628863 10.268902 4.6737735 11.289062 5.703125 A 1.0001 1.0001 0 0 0 12.707031 5.7070312 C 14.090749 4.32331 14.929398 4 16.5 4 C 18.997122 4 21 6.002879 21 8.5 C 21 10.211191 19.929785 11.636991 18.617188 12.96875 A 1 1 0 0 0 18.628906 14.382812 A 1 1 0 0 0 20.042969 14.371094 C 21.470365 12.922859 23 11.0288 23 8.5 C 23 4.9220009 20.077999 2 16.5 2 z M 4.1191406 5.5332031 L 15.085938 16.5 L 12 19.585938 L 5.7070312 13.292969 A 1.0001 1.0001 0 0 0 5.6953125 13.28125 C 4.2448724 11.879157 3 10.365214 3 8.5 C 3.0008731 7.3974307 3.4044573 6.3461155 4.1191406 5.5332031 z "/>
</svg>
