<?xml version="1.0" encoding="UTF-8" standalone="no"?>
<svg xmlns="http://www.w3.org/2000/svg" xmlns:svg="http://www.w3.org/2000/svg" width="24" height="24" viewBox="0 0 24 24" fill="currentColor" tags="heartbreak,sadness,emotion" categories="emoji">
  <path d="M 7.65625 3 C 7.4360095 2.9941075 7.2151385 2.9999493 6.9960938 3.0175781 C 6.3689552 3.0680507 5.754509 3.2070659 5.1738281 3.4296875 C 2.8511046 4.3201738 0.99952061 6.5671834 1 9.5 C 1 12.234783 2.7615419 14.175604 4.2929688 15.707031 A 1.0001 1.0001 0 0 0 4.3046875 15.71875 L 9.78125 21.019531 C 9.7834415 21.021937 9.7849116 21.024947 9.7871094 21.027344 L 9.8125 21.050781 C 10.993278 22.308808 13.034372 22.29844 14.203125 21.03125 L 14.224609 21.009766 L 19.695312 15.71875 A 1.0001 1.0001 0 0 0 19.707031 15.707031 C 21.240025 14.174037 23 12.226681 23 9.5 C 22.999946 6.5674564 21.148813 4.3199001 18.826172 3.4296875 C 16.623296 2.5853779 13.945097 2.985805 12 4.8847656 C 10.746456 3.6606017 9.1979335 3.0412476 7.65625 3 z M 7.8027344 4.9863281 C 8.0195707 4.9981432 8.236319 5.0271592 8.4511719 5.0722656 C 9.2624922 5.2425952 10.049629 5.6570511 10.728516 6.3632812 C 10.449773 6.7874247 10.229794 7.2050159 10.064453 7.6230469 A 1.0001 1.0001 0 0 0 10.287109 8.6972656 L 12.085938 10.5 L 10.146484 12.439453 C 9.5692781 13.016834 9.5692781 13.983166 10.146484 14.560547 L 11.292969 15.707031 A 1 1 0 0 0 12.707031 15.707031 A 1 1 0 0 0 12.707031 14.292969 L 11.914062 13.5 L 13.853516 11.560547 C 14.430722 10.983166 14.430722 10.016834 13.853516 9.4394531 L 12.261719 7.8457031 C 12.486212 7.4262373 12.68835 7.0183723 13.158203 6.4882812 A 1 1 0 0 0 13.189453 6.4511719 C 14.596329 4.9176149 16.495147 4.6793845 18.111328 5.2988281 C 19.741547 5.9236517 20.999961 7.3898146 21 9.5 C 21 11.352454 19.761027 12.824693 18.294922 14.291016 L 12.8125 19.59375 A 1.0001 1.0001 0 0 0 12.753906 19.65625 C 12.347332 20.123211 11.666362 20.127755 11.253906 19.666016 A 1.0001 1.0001 0 0 0 11.203125 19.613281 L 5.7070312 14.292969 L 5.7050781 14.291016 C 4.2373981 12.823145 3 11.364346 3 9.5 C 2.999655 7.3895967 4.2583886 5.9218934 5.8886719 5.296875 C 6.5000281 5.0624931 7.1522253 4.9508828 7.8027344 4.9863281 z "/>
</svg>
