<?xml version="1.0" encoding="UTF-8" standalone="no"?>
<svg xmlns="http://www.w3.org/2000/svg" xmlns:svg="http://www.w3.org/2000/svg" width="24" height="24" viewBox="0 0 24 24" fill="currentColor" tags="plus,like,favorite,add,health,support" categories="medical,account,multimedia,gaming,social">
  <path d="M 7.5 2 C 3.9219938 2 1 4.9219938 1 8.5 C 1 11.234783 2.7551306 13.220845 4.3046875 14.71875 L 11.292969 21.707031 A 1.0001 1.0001 0 0 0 12.707031 21.707031 L 14.207031 20.207031 A 1 1 0 0 0 14.207031 18.792969 A 1 1 0 0 0 12.792969 18.792969 L 12 19.585938 L 5.7070312 13.292969 A 1.0001 1.0001 0 0 0 5.6953125 13.28125 C 4.2448694 11.879155 3 10.365217 3 8.5 C 3 6.002874 5.002874 4 7.5 4 C 9.0706061 4 9.9092483 4.3233111 11.292969 5.7070312 A 1.0001 1.0001 0 0 0 12.707031 5.7070312 C 14.090084 4.3239788 14.928905 4.0003122 16.498047 4 C 19.329197 4.00326 21.432726 6.5343964 20.917969 9.3183594 A 1 1 0 0 0 21.720703 10.482422 A 1 1 0 0 0 22.884766 9.6816406 C 23.619311 5.7089965 20.541933 2.0046469 16.501953 2 A 1.0001 1.0001 0 0 0 16.5 2 C 14.828695 2 13.396798 2.6325177 12 3.7929688 C 10.603202 2.6325177 9.1713052 2 7.5 2 z M 18 11 A 1 1 0 0 0 17 12 L 17 14 L 15 14 A 1 1 0 0 0 14 15 A 1 1 0 0 0 15 16 L 17 16 L 17 18 A 1 1 0 0 0 18 19 A 1 1 0 0 0 19 18 L 19 16 L 21 16 A 1 1 0 0 0 22 15 A 1 1 0 0 0 21 14 L 19 14 L 19 12 A 1 1 0 0 0 18 11 z "/>
</svg>
