<?xml version="1.0" encoding="UTF-8" standalone="no"?>
<svg xmlns="http://www.w3.org/2000/svg" xmlns:svg="http://www.w3.org/2000/svg" width="24" height="24" viewBox="0 0 24 24" fill="currentColor" tags="heartbreak,sadness,emotion" categories="emoji">
  <path d="M 7.5 2 C 3.9219938 2 1 4.9219938 1 8.5 C 1 11.234783 2.7551306 13.220845 4.3046875 14.71875 L 11.292969 21.707031 A 1.0001 1.0001 0 0 0 12.707031 21.707031 L 19.699219 14.714844 C 21.233305 13.211645 23 11.229592 23 8.5 C 23 4.9219938 20.078006 2 16.5 2 C 14.828695 2 13.396798 2.6325177 12 3.7929688 C 10.603202 2.6325177 9.1713052 2 7.5 2 z M 7.5 4 C 8.7695201 4 9.5652614 4.2214716 10.552734 5.0332031 L 9.2929688 6.2929688 A 1.0001 1.0001 0 0 0 9.2929688 7.7070312 L 11.585938 10 L 10.292969 11.292969 A 1.0001 1.0001 0 0 0 10.292969 12.707031 L 11.292969 13.707031 A 1 1 0 0 0 12.707031 13.707031 A 1 1 0 0 0 12.707031 12.292969 L 12.414062 12 L 13.707031 10.707031 A 1.0001 1.0001 0 0 0 13.707031 9.2929688 L 11.414062 7 L 12.707031 5.7070312 C 14.090751 4.3233111 14.929394 4 16.5 4 C 18.997126 4 21 6.002874 21 8.5 C 21 10.350408 19.746695 11.868355 18.300781 13.285156 A 1.0001 1.0001 0 0 0 18.292969 13.292969 L 12 19.585938 L 5.7070312 13.292969 A 1.0001 1.0001 0 0 0 5.6953125 13.28125 C 4.2448694 11.879155 3 10.365217 3 8.5 C 3 6.002874 5.002874 4 7.5 4 z "/>
</svg>
