<?xml version="1.0" encoding="UTF-8" standalone="no"?>
<svg xmlns="http://www.w3.org/2000/svg" xmlns:svg="http://www.w3.org/2000/svg" width="24" height="24" viewBox="0 0 24 24" fill="currentColor" tags="agreement,charity,help,deal,terms,emotion,together,handshake" categories="emoji,account,security">
  <path d="M 16.34375 3 C 14.80222 3.0414365 13.253337 3.6611569 12 4.8847656 C 10.0551 2.986125 7.3765557 2.5876177 5.1738281 3.4316406 C 2.8512693 4.3215795 1.000587 6.5677294 1 9.5 C 1 12.234783 2.7615419 14.175604 4.2929688 15.707031 A 1.0001 1.0001 0 0 0 4.3046875 15.71875 L 9.8027344 21.042969 C 10.951197 22.277923 12.928783 22.313765 14.121094 21.121094 C 14.666282 20.575131 14.884391 19.851034 14.9375 19.130859 C 14.98226 19.131355 15.02782 19.15801 15.072266 19.15625 C 15.90668 19.12322 16.647488 18.747045 17.195312 18.199219 C 17.743139 17.651393 18.119316 16.910586 18.152344 16.076172 C 18.154144 16.031732 18.127443 15.986172 18.126953 15.941406 C 18.849035 15.888246 19.574146 15.668118 20.121094 15.121094 C 21.755838 13.486343 23 11.833333 23 9.5 C 22.999946 6.5674564 21.148813 4.3199001 18.826172 3.4296875 C 18.245512 3.2071344 17.631003 3.0680021 17.003906 3.0175781 C 16.784913 2.9999692 16.563969 2.9940805 16.34375 3 z M 7.8027344 4.9882812 C 8.0193862 5.0000842 8.2363536 5.029096 8.4511719 5.0742188 C 9.1864522 5.2286681 9.8690604 5.6980751 10.501953 6.2890625 L 8.8867188 7.8710938 A 1.0001 1.0001 0 0 0 8.8789062 7.8789062 C 7.7161266 9.042037 7.7161266 10.957963 8.8789062 12.121094 C 10.042037 13.283873 11.957963 13.283873 13.121094 12.121094 L 14.832031 10.410156 C 15.391105 9.8508378 16.267098 9.8508377 16.826172 10.410156 L 18.707031 12.292969 C 19.105779 12.691837 19.105779 13.308163 18.707031 13.707031 C 18.259691 14.154434 17.564529 14.154434 17.117188 13.707031 L 17.111328 13.714844 C 17.097628 13.702054 17.094048 13.684505 17.080078 13.671875 A 1.0001 1.0001 0 0 0 15.703125 15.121094 L 15.705078 15.123047 C 15.706016 15.123773 15.709945 15.126355 15.710938 15.126953 C 15.720286 15.131358 15.734392 15.133204 15.744141 15.136719 C 15.746234 15.137673 15.752009 15.141159 15.753906 15.142578 L 15.740234 15.15625 C 16.104144 15.485317 16.164607 15.735628 16.154297 15.996094 C 16.143987 16.25656 16.007906 16.556547 15.779297 16.785156 C 15.550687 17.013766 15.252652 17.147893 14.992188 17.158203 C 14.731722 17.168513 14.481411 17.108053 14.152344 16.744141 L 14.136719 16.757812 L 14.134766 16.755859 C 14.133312 16.753898 14.129864 16.748267 14.128906 16.746094 C 14.125817 16.737087 14.124275 16.723796 14.121094 16.714844 C 14.120107 16.712688 14.116729 16.707015 14.115234 16.705078 A 1.0001 1.0001 0 0 0 12.667969 18.083984 C 12.680979 18.098364 12.699711 18.101134 12.712891 18.115234 L 12.705078 18.123047 C 13.152132 18.568354 13.152849 19.260534 12.707031 19.707031 C 12.297101 20.117087 11.662433 20.106232 11.267578 19.681641 A 1.0001 1.0001 0 0 0 11.230469 19.644531 L 5.7070312 14.292969 L 5.7050781 14.291016 L 5.6953125 14.28125 C 4.2321415 12.816957 3 11.359989 3 9.5 C 3.0004224 7.3900325 4.2604714 5.9234569 5.890625 5.2988281 C 6.5019326 5.0645923 7.1527789 4.9528724 7.8027344 4.9882812 z M 16.197266 4.9882812 C 16.847773 4.9534035 17.499996 5.0645195 18.111328 5.2988281 C 19.741547 5.9236517 20.999961 7.3898146 21 9.5 C 21 10.328013 20.809842 10.991385 20.433594 11.638672 C 20.299943 11.390752 20.329323 11.087199 20.121094 10.878906 L 18.240234 8.9980469 A 1.0001 1.0001 0 0 0 18.240234 8.9960938 C 16.916811 7.6720914 14.739439 7.6720914 13.416016 8.9960938 L 11.707031 10.707031 C 11.308163 11.105779 10.691837 11.105779 10.292969 10.707031 C 9.8942203 10.308163 9.8942203 9.6918373 10.292969 9.2929688 L 13.091797 6.5546875 A 1.0001 1.0001 0 0 0 13.107422 6.5390625 A 1.0001 1.0001 0 0 0 13.152344 6.4921875 C 13.857546 5.7073873 14.689486 5.252724 15.548828 5.0722656 C 15.763664 5.027151 15.98043 4.9999072 16.197266 4.9882812 z M 12.265625 5.0898438 L 12.267578 5.0898438 L 12.269531 5.0898438 L 12.269531 5.0917969 L 12.271484 5.0917969 L 12.294922 5.1152344 A 1 1 0 0 0 12.283203 5.1152344 C 12.275137 5.1064528 12.26629 5.1016199 12.257812 5.09375 L 12.259766 5.0917969 C 12.260553 5.0915762 12.264828 5.0920631 12.265625 5.0917969 L 12.265625 5.0898438 z M 11.728516 5.0917969 L 11.730469 5.0917969 L 11.732422 5.09375 L 11.734375 5.09375 L 11.736328 5.09375 L 11.738281 5.09375 L 11.738281 5.0957031 L 11.738281 5.0976562 C 11.734991 5.1001798 11.727904 5.1048895 11.724609 5.1074219 L 11.722656 5.109375 A 1 1 0 0 0 11.710938 5.109375 L 11.726562 5.09375 L 11.728516 5.09375 L 11.728516 5.0917969 z "/>
</svg>
