<?xml version="1.0" encoding="UTF-8" standalone="no"?>
<svg xmlns="http://www.w3.org/2000/svg" xmlns:svg="http://www.w3.org/2000/svg" width="24" height="24" viewBox="0 0 24 24" fill="currentColor" tags="heartbreak,sadness,emotion" categories="emoji">
  
  <path d="M 7.5 2 C 3.9220009 2 1 4.9220009 1 8.5 C 1 11.234777 2.7551336 13.220847 4.3046875 14.71875 L 11.292969 21.707031 A 1.0001 1.0001 0 0 0 12.707031 21.707031 L 19.699219 14.714844 C 21.233302 13.211648 23 11.229587 23 8.5 C 23 4.9220009 20.077999 2 16.5 2 C 14.828698 2 13.396796 2.6325199 12 3.7929688 C 10.603204 2.6325199 9.1713018 2 7.5 2 z M 7.5 4 C 8.7695176 4 9.5652625 4.2214728 10.552734 5.0332031 L 9.2929688 6.2929688 A 1.0001 1.0001 0 0 0 9.2929688 7.7070312 L 11.585938 10 L 10.292969 11.292969 A 1.0001 1.0001 0 0 0 10.292969 12.707031 L 11.292969 13.707031 A 1 1 0 0 0 12.707031 13.707031 A 1 1 0 0 0 12.707031 12.292969 L 12.414062 12 L 13.707031 10.707031 A 1.0001 1.0001 0 0 0 13.707031 9.2929688 L 11.414062 7 L 12.707031 5.7070312 C 14.090749 4.3233138 14.929398 4 16.5 4 C 18.997122 4 21 6.002879 21 8.5 C 21 10.350404 19.746692 11.868358 18.300781 13.285156 A 1.0001 1.0001 0 0 0 18.292969 13.292969 L 12 19.585938 L 5.7070312 13.292969 A 1.0001 1.0001 0 0 0 5.6953125 13.28125 C 4.2448724 11.879157 3 10.365214 3 8.5 C 3 6.002879 5.002879 4 7.5 4 z "/>
</svg>
