<?xml version="1.0" encoding="UTF-8" standalone="no"?>
<svg xmlns="http://www.w3.org/2000/svg" xmlns:svg="http://www.w3.org/2000/svg" width="24" height="24" viewBox="0 0 24 24" fill="currentColor" tags="heartbeat,pulse,health,medical,blood pressure,cardiac,systole,diastole" categories="medical">
  <path d="M 7.5 2 C 3.9219938 2 1 4.9219938 1 8.5 C 1 11.234783 2.7551306 13.220845 4.3046875 14.71875 L 11.292969 21.707031 A 1.0001 1.0001 0 0 0 12.707031 21.707031 L 19.699219 14.714844 C 21.233305 13.211645 23 11.229592 23 8.5 C 23 4.9219938 20.078006 2 16.5 2 C 14.828695 2 13.396798 2.6325177 12 3.7929688 C 10.603202 2.6325177 9.1713052 2 7.5 2 z M 7.5 4 C 9.0706061 4 9.9092483 4.3233111 11.292969 5.7070312 A 1.0001 1.0001 0 0 0 12.707031 5.7070312 C 14.090751 4.3233111 14.929394 4 16.5 4 C 18.997126 4 21 6.002874 21 8.5 C 21 9.4037595 20.700923 10.227904 20.226562 11 L 16.160156 11 L 14.919922 8.1054688 A 1.0001 1.0001 0 0 0 13.9375 7.5019531 A 1.0001 1.0001 0 0 0 13.039062 8.2246094 L 11.794922 12.576172 L 10.914062 10.59375 A 1.0001 1.0001 0 0 0 9.1054688 10.552734 L 8.8828125 11 L 3.765625 11 C 3.2960983 10.231349 3 9.4073399 3 8.5 C 3 6.002874 5.002874 4 7.5 4 z M 14.1875 11.480469 L 14.580078 12.394531 A 1.0001 1.0001 0 0 0 15.5 13 L 18.582031 13 C 18.48821 13.094849 18.396604 13.191263 18.300781 13.285156 A 1.0001 1.0001 0 0 0 18.292969 13.292969 L 12 19.585938 L 5.7070312 13.292969 A 1.0001 1.0001 0 0 0 5.6953125 13.28125 C 5.5991705 13.188313 5.5061423 13.09399 5.4121094 13 L 9.5 13 A 1.0001 1.0001 0 0 0 9.7304688 12.857422 L 11.085938 15.90625 A 1.0001 1.0001 0 0 0 12.960938 15.775391 L 14.1875 11.480469 z "/>
</svg>
