<?xml version="1.0" encoding="UTF-8" standalone="no"?>
<svg xmlns="http://www.w3.org/2000/svg" xmlns:svg="http://www.w3.org/2000/svg" width="24" height="24" viewBox="0 0 24 24" fill="currentColor" tags="heartbeat,pulse,health,medical,blood pressure,cardiac,systole,diastole" categories="medical">
  <path d="M 7.5 2 C 3.9219938 2 1 4.9219938 1 8.5 C 1 10.079666 1.5855922 11.408795 2.3789062 12.539062 C 2.3966753 12.564379 2.4136674 12.590118 2.4316406 12.615234 C 3.0004375 13.410097 3.6702338 14.105445 4.3046875 14.71875 L 11.292969 21.707031 A 1.0001 1.0001 0 0 0 12.707031 21.707031 L 19.699219 14.714844 C 20.333972 14.092871 21.009258 13.388952 21.582031 12.583984 C 21.60762 12.548022 21.627174 12.50707 21.652344 12.470703 C 22.425405 11.353731 23 10.049722 23 8.5 C 23 4.9219938 20.078006 2 16.5 2 C 14.828695 2 13.396798 2.6325177 12 3.7929688 C 10.603202 2.6325177 9.1713052 2 7.5 2 z M 7.5 4 C 9.0706061 4 9.9092483 4.3233111 11.292969 5.7070312 A 1.0001 1.0001 0 0 0 12.707031 5.7070312 C 14.090751 4.3233111 14.929394 4 16.5 4 C 18.997126 4 21 6.002874 21 8.5 C 21 9.4036395 20.700813 10.227993 20.226562 11 L 16.160156 11 L 14.919922 8.1054688 A 1.0001 1.0001 0 0 0 13.9375 7.5019531 A 1.0001 1.0001 0 0 0 13.039062 8.2246094 L 11.794922 12.576172 L 10.914062 10.59375 A 1.0001 1.0001 0 0 0 9.1054688 10.552734 L 8.8828125 11 L 3.7636719 11 C 3.2942183 10.231407 3 9.407259 3 8.5 C 3 6.002874 5.002874 4 7.5 4 z M 14.1875 11.480469 L 14.580078 12.394531 A 1.0001 1.0001 0 0 0 15.5 13 L 18.587891 13 C 18.493401 13.095549 18.397303 13.190578 18.300781 13.285156 A 1.0001 1.0001 0 0 0 18.292969 13.292969 L 12 19.585938 L 5.7070312 13.292969 A 1.0001 1.0001 0 0 0 5.6953125 13.28125 C 5.5988656 13.188018 5.5025266 13.094291 5.4082031 13 L 9.5 13 A 1.0001 1.0001 0 0 0 9.7304688 12.857422 L 11.085938 15.90625 A 1.0001 1.0001 0 0 0 12.960938 15.775391 L 14.1875 11.480469 z "/>
</svg>
