<?xml version="1.0" encoding="UTF-8" standalone="no"?>
<svg xmlns="http://www.w3.org/2000/svg" xmlns:svg="http://www.w3.org/2000/svg" width="24" height="24" viewBox="0 0 24 24" fill="currentColor" tags="heartbeat,pulse,health,medical,blood pressure,cardiac,systole,diastole" categories="medical">
  <path d="M 16.345703 2.984375 C 14.802057 3.0280288 13.251309 3.6536242 12 4.8847656 C 10.054903 2.985805 7.3767044 2.5853779 5.1738281 3.4296875 C 2.851187 4.3199001 1.0000539 6.5674564 1 9.5 C 1 11.038617 1.5578775 12.325212 2.3183594 13.429688 A 1 1 0 0 0 2.5195312 13.712891 C 3.0672378 14.454145 3.6979026 15.111965 4.2929688 15.707031 A 1.0001 1.0001 0 0 0 4.3046875 15.71875 L 9.78125 21.019531 C 9.7834415 21.021937 9.7849116 21.024947 9.7871094 21.027344 L 9.8125 21.050781 C 10.993278 22.308808 13.034372 22.29844 14.203125 21.03125 L 14.224609 21.009766 L 19.695312 15.71875 A 1.0001 1.0001 0 0 0 19.707031 15.707031 C 20.311257 15.102805 20.950822 14.43504 21.503906 13.679688 A 1 1 0 0 0 21.650391 13.474609 C 22.426721 12.359296 22.998996 11.05808 23 9.5039062 L 23 9.5019531 C 23.013151 6.5606635 21.159115 4.3059779 18.832031 3.4140625 C 18.250126 3.1910322 17.634406 3.0518472 17.005859 3.0019531 C 16.786518 2.9845418 16.566224 2.9781387 16.345703 2.984375 z M 16.201172 4.9707031 C 16.852019 4.9348709 17.504808 5.0465395 18.117188 5.28125 C 19.7502 5.9071446 21.010085 7.3790521 21 9.4960938 A 1.0001 1.0001 0 0 0 21 9.5 C 21 10.410349 20.700999 11.228875 20.222656 12 L 16.160156 12 L 14.919922 9.1054688 A 1.0001 1.0001 0 0 0 13.9375 8.5019531 A 1.0001 1.0001 0 0 0 13.039062 9.2246094 L 11.794922 13.576172 L 10.914062 11.59375 A 1.0001 1.0001 0 0 0 9.1054688 11.552734 L 8.8828125 12 L 3.7753906 12 C 3.2986807 11.231636 3 10.414621 3 9.5 C 3.0000388 7.3898146 4.2584535 5.9236517 5.8886719 5.2988281 C 7.5188903 4.6740046 9.4372465 4.9225932 10.847656 6.4921875 A 1.0001 1.0001 0 0 0 10.861328 6.5078125 C 11.467942 7.1564246 12.532058 7.1564246 13.138672 6.5078125 A 1.0001 1.0001 0 0 0 13.15625 6.4882812 C 13.859981 5.6975507 14.692549 5.2390874 15.552734 5.0566406 C 15.767781 5.0110289 15.984223 4.9826472 16.201172 4.9707031 z M 11.677734 5.140625 L 11.679688 5.140625 L 11.681641 5.140625 L 11.683594 5.140625 L 11.683594 5.1425781 C 11.678833 5.1469523 11.672892 5.1503354 11.667969 5.1542969 L 11.677734 5.140625 z M 12.316406 5.140625 L 12.318359 5.140625 L 12.320312 5.140625 L 12.322266 5.140625 L 12.330078 5.1523438 C 12.326783 5.1498173 12.319698 5.1450958 12.316406 5.1425781 L 12.316406 5.140625 z M 14.1875 12.480469 L 14.580078 13.394531 A 1.0001 1.0001 0 0 0 15.5 14 L 18.582031 14 C 18.48738 14.097103 18.391851 14.194072 18.294922 14.291016 L 12.8125 19.59375 A 1.0001 1.0001 0 0 0 12.753906 19.65625 C 12.347332 20.123211 11.666362 20.127755 11.253906 19.666016 A 1.0001 1.0001 0 0 0 11.203125 19.613281 L 5.7070312 14.292969 L 5.7050781 14.291016 C 5.6080883 14.194013 5.5126567 14.097043 5.4179688 14 L 9.5 14 A 1.0001 1.0001 0 0 0 9.7304688 13.857422 L 11.085938 16.90625 A 1.0001 1.0001 0 0 0 12.960938 16.775391 L 14.1875 12.480469 z "/>
</svg>
