<?xml version="1.0" encoding="UTF-8" standalone="no"?>
<svg xmlns="http://www.w3.org/2000/svg" xmlns:svg="http://www.w3.org/2000/svg" width="24" height="24" viewBox="0 0 24 24" fill="currentColor" tags="agreement,charity,help,deal,terms,emotion,together,handshake" categories="emoji,account,security">
  <path d="M 7.5 2 C 3.9219938 2 1 4.9219938 1 8.5 C 1 11.234783 2.7551306 13.220845 4.3046875 14.71875 L 11.292969 21.707031 A 1.0001 1.0001 0 0 0 12.707031 21.707031 L 15.707031 18.707031 L 19.699219 14.714844 C 21.233305 13.211645 23 11.229592 23 8.5 C 23 4.9219938 20.078006 2 16.5 2 C 14.828695 2 13.396798 2.6325177 12 3.7929688 C 10.603202 2.6325177 9.1713052 2 7.5 2 z M 7.5 4 C 8.7695201 4 9.5652614 4.2214716 10.552734 5.0332031 L 8.3359375 7.25 C 7.0956693 8.4812666 7.0956693 10.518733 8.3359375 11.75 C 9.5241457 12.9347 11.457208 12.976 12.707031 11.855469 A 1.0001 1.0001 0 0 0 12.716797 11.847656 L 14.78125 9.9511719 L 14.783203 9.9492188 C 15.483421 9.3156662 16.528961 9.316401 17.228516 9.9511719 A 1.0001 1.0001 0 0 0 17.232422 9.953125 L 19.5 11.992188 C 19.133361 12.435127 18.72863 12.865922 18.300781 13.285156 A 1.0001 1.0001 0 0 0 18.292969 13.292969 L 18 13.585938 L 16.707031 12.292969 A 1 1 0 0 0 15.292969 12.292969 A 1 1 0 0 0 15.292969 13.707031 L 16.585938 15 L 15 16.585938 L 13.707031 15.292969 A 1 1 0 0 0 13 15 A 1 1 0 0 0 12.292969 15.292969 A 1 1 0 0 0 12.292969 16.707031 L 13.585938 18 L 12 19.585938 L 5.7070312 13.292969 A 1.0001 1.0001 0 0 0 5.6953125 13.28125 C 4.2448694 11.879155 3 10.365217 3 8.5 C 3 6.002874 5.002874 4 7.5 4 z M 16.5 4 C 18.997126 4 21 6.002874 21 8.5 C 21 9.1332313 20.850647 9.7263824 20.599609 10.291016 L 18.568359 8.4667969 C 17.118438 7.1542472 14.88622 7.1541851 13.4375 8.46875 A 1.0001 1.0001 0 0 0 13.433594 8.4726562 L 11.373047 10.365234 L 11.371094 10.365234 C 10.882179 10.802272 10.199656 10.783637 9.7480469 10.332031 A 1.0001 1.0001 0 0 0 9.7441406 10.330078 C 9.2746037 9.863949 9.2746037 9.1360511 9.7441406 8.6699219 A 1.0001 1.0001 0 0 0 9.7480469 8.6679688 L 12.707031 5.7070312 C 14.090751 4.3233111 14.929394 4 16.5 4 z "/>
</svg>
