<svg xmlns="http://www.w3.org/2000/svg" xmlns:svg="http://www.w3.org/2000/svg" width="24" height="24" viewBox="0 0 24 24" fill="currentColor" tags="transport,flying,rotor,aviation,helipad,gear,flyer,technology,helicopter,aircraft,vehicle" categories="transportation,travel">
  <path d="M 6 2 A 1 1 0 0 0 5 3 A 1 1 0 0 0 6 4 L 13 4 L 13 6.0605469 C 9.6804728 6.4712072 7 8.8964787 7 12 L 3 12 L 3 10 A 1 1 0 0 0 2 9 A 1 1 0 0 0 1 10 L 1 13 L 1 15 A 1 1 0 0 0 2 16 A 1 1 0 0 0 3 15 L 3 14 L 7 14 L 7 15 C 7 16.64501 8.3549904 18 10 18 L 10 20 L 7 20 A 1 1 0 0 0 6 21 A 1 1 0 0 0 7 22 L 21 22 A 1 1 0 0 0 22 21 A 1 1 0 0 0 21 20 L 18 20 L 18 18 C 20.749579 18 23 15.749579 23 13 C 23 10.982852 21.900849 9.1893088 20.257812 7.9570312 C 18.844868 6.8973226 17.017833 6.2138681 15 6.0429688 L 15 4 L 22 4 A 1 1 0 0 0 23 3 A 1 1 0 0 0 22 2 L 6 2 z M 15 8.0507812 C 16.599858 8.2174548 18.016383 8.7764478 19.056641 9.5566406 C 19.980075 10.249217 20.598324 11.087608 20.859375 12 L 16 12 C 15.435871 12 15 11.564129 15 11 L 15 8.0507812 z M 13 8.0800781 L 13 11 C 13 12.64501 14.35499 14 16 14 L 20.832031 14 C 20.424208 15.170346 19.317311 16 18 16 L 10 16 C 9.4358706 16 9 15.564129 9 15 L 9 13 L 9 12 C 9 10.141451 10.653207 8.4585425 13 8.0800781 z M 12 18 L 16 18 L 16 20 L 12 20 L 12 18 z "/>
</svg>
