<svg xmlns="http://www.w3.org/2000/svg" xmlns:svg="http://www.w3.org/2000/svg" width="24" height="24" viewBox="0 0 24 24" fill="currentColor" tags="mark,text" categories="text,design">
  <path d="M 14 3 A 1 1 0 0 0 13.292969 3.2929688 L 8.6933594 7.8925781 A 1.0001 1.0001 0 0 0 8.6855469 7.9003906 C 7.9481646 8.652671 7.6899613 9.7095715 7.9101562 10.675781 L 2.2929688 16.292969 A 1.0001 1.0001 0 0 0 2 17 L 2 20 A 1.0001 1.0001 0 0 0 3 21 L 12 21 A 1.0001 1.0001 0 0 0 12.707031 20.707031 L 15.324219 18.089844 C 16.29042 18.310026 17.347337 18.051827 18.099609 17.314453 A 1.0001 1.0001 0 0 0 18.107422 17.306641 L 22.707031 12.707031 A 1 1 0 0 0 22.707031 11.292969 A 1 1 0 0 0 21.292969 11.292969 L 16.699219 15.886719 C 16.302432 16.275648 15.697568 16.275648 15.300781 15.886719 L 10.113281 10.699219 C 9.7243524 10.302432 9.7243524 9.6975683 10.113281 9.3007812 L 14.707031 4.7070312 A 1 1 0 0 0 14.707031 3.2929688 A 1 1 0 0 0 14 3 z M 9 12.414062 L 13.585938 17 L 11.585938 19 L 4 19 L 4 17.414062 L 9 12.414062 z "/>
</svg>
