<?xml version="1.0" encoding="UTF-8" standalone="no"?>
<svg xmlns="http://www.w3.org/2000/svg" xmlns:svg="http://www.w3.org/2000/svg" width="24" height="24" viewBox="0 0 24 24" fill="currentColor" tags="time,redo,undo,rewind,timeline,version,time machine,backup,rotate,ccw" categories="arrows,time">
  <path d="M 3 2 A 1 1 0 0 0 2 3 L 2 8 A 1 1 0 0 0 2.0078125 8.1308594 A 1.0001 1.0001 0 0 0 2.0761719 8.3828125 A 1 1 0 0 0 2.2929688 8.7070312 A 1 1 0 0 0 2.6171875 8.9238281 A 1.0001 1.0001 0 0 0 2.8691406 8.9921875 A 1 1 0 0 0 3 9 L 8 9 A 1 1 0 0 0 9 8 A 1 1 0 0 0 8 7 L 5.4140625 7 L 5.9550781 6.4589844 C 7.577818 4.8902405 9.7430789 4.0094955 12 4 C 15.606366 4 18.232728 6.1417253 19.390625 8.9375 C 20.548522 11.733275 20.205982 15.106518 17.65625 17.65625 C 15.106518 20.205982 11.733275 20.548522 8.9375 19.390625 C 6.1417253 18.232728 4 15.606366 4 12 A 1 1 0 0 0 3 11 A 1 1 0 0 0 2 12 C 2 16.412336 4.7051316 19.801687 8.1738281 21.238281 C 11.642525 22.674875 15.950653 22.189972 19.070312 19.070312 C 22.189972 15.950653 22.674875 11.642525 21.238281 8.1738281 C 19.801687 4.7051316 16.412336 2 12 2 A 1.0001 1.0001 0 0 0 11.996094 2 C 9.2223257 2.0104346 6.5587156 3.0935803 4.5644531 5.0214844 A 1.0001 1.0001 0 0 0 4.5527344 5.0332031 L 4 5.5859375 L 4 3 A 1 1 0 0 0 3 2 z M 12 6 A 1 1 0 0 0 11 7 L 11 12 A 1.0001 1.0001 0 0 0 11.552734 12.894531 L 15.552734 14.894531 A 1 1 0 0 0 16.894531 14.447266 A 1 1 0 0 0 16.447266 13.105469 L 13 11.382812 L 13 7 A 1 1 0 0 0 12 6 z "/>
</svg>
