<?xml version="1.0" encoding="UTF-8" standalone="no"?>
<svg xmlns="http://www.w3.org/2000/svg" xmlns:svg="http://www.w3.org/2000/svg" width="24" height="24" viewBox="0 0 24 24" fill="currentColor" tags="house,living" categories="account">
  <path d="M 11.78125 1.0253906 A 1.0001 1.0001 0 0 0 11.386719 1.2109375 L 2.3867188 8.2109375 A 1.0001 1.0001 0 0 0 2 9 L 2 20 C 2 21.645006 3.3549936 23 5 23 L 9 23 L 15 23 L 19 23 C 20.645006 23 22 21.645006 22 20 L 22 9 A 1.0001 1.0001 0 0 0 21.613281 8.2109375 L 12.613281 1.2109375 A 1.0001 1.0001 0 0 0 11.78125 1.0253906 z M 12 3.2675781 L 20 9.4882812 L 20 20 C 20 20.564128 19.564128 21 19 21 L 16 21 L 16 12 A 1.0001 1.0001 0 0 0 15 11 L 9 11 A 1.0001 1.0001 0 0 0 8 12 L 8 21 L 5 21 C 4.4358718 21 4 20.564128 4 20 L 4 9.4882812 L 12 3.2675781 z M 10 13 L 14 13 L 14 21 L 10 21 L 10 13 z "/>
</svg>
