<?xml version="1.0" encoding="UTF-8" standalone="no"?>
<svg xmlns="http://www.w3.org/2000/svg" xmlns:svg="http://www.w3.org/2000/svg" width="24" height="24" viewBox="0 0 24 24" fill="currentColor" tags="beer,brewery,drink,hop free,allergy,intolerance,diet" categories="food-beverage">
  <path d="M 11.914062 0.99414062 C 11.552973 0.99651777 11.190854 1.0165274 10.830078 1.0546875 C 9.8675322 1.1564981 8.9120399 1.3862071 7.9863281 1.7480469 A 1 1 0 0 0 7.4179688 3.0449219 A 1 1 0 0 0 8.7148438 3.6113281 C 11.508495 2.5193532 14.607958 2.9570758 17.052734 4.6367188 C 15.652842 5.0412607 13.540043 5.4235025 12.099609 5.4804688 A 1 1 0 0 0 11.140625 6.5195312 A 1 1 0 0 0 12.179688 7.4785156 C 13.75284 7.4163009 15.957052 7.1651852 17.667969 6.6679688 C 18.571567 7.7318707 19.337634 8.9043478 20.007812 10.130859 C 19.022026 10.182619 17.936691 10.146829 16.75 9.9179688 A 1 1 0 0 0 15.578125 10.710938 A 1 1 0 0 0 16.371094 11.882812 C 17.620515 12.123772 18.821437 12.219051 19.935547 12.177734 C 20.275247 12.983371 20.772135 14.287038 20.939453 15.335938 A 1 1 0 0 0 20.808594 16.541016 A 1 1 0 0 0 22.201172 16.791016 C 22.762321 16.40065 23.017427 15.731284 22.931641 15.087891 A 1.0001 1.0001 0 0 0 22.927734 15.068359 C 22.720887 13.711437 22.181145 12.320047 21.806641 11.453125 C 22.202574 10.945947 22.339552 10.239828 22.050781 9.6054688 A 1.0001 1.0001 0 0 0 22.027344 9.5585938 C 21.299744 8.1558254 20.423026 6.8385024 19.412109 5.6269531 C 19.528981 5.4260745 19.604259 5.2053697 19.623047 4.9824219 C 19.671827 4.4035025 19.405359 3.8461134 18.960938 3.484375 C 16.943582 1.8321117 14.441687 0.97750063 11.914062 0.99414062 z M 2 1 A 1 1 0 0 0 1.2929688 1.2929688 A 1 1 0 0 0 1.2929688 2.7070312 L 3.5488281 4.9628906 C 0.21173309 8.9672393 0.12878864 14.854659 3.484375 18.960938 L 3.4863281 18.960938 L 3.4863281 18.962891 C 3.8481085 19.406051 4.404413 19.671756 4.9824219 19.623047 C 5.2076346 19.604066 5.4303139 19.527129 5.6328125 19.408203 C 6.7301382 20.324675 8.1885203 21.399176 9.6035156 22.048828 A 1.0001 1.0001 0 0 0 9.6054688 22.050781 C 10.239767 22.339525 10.945957 22.202487 11.453125 21.806641 C 12.320047 22.181145 13.711437 22.720887 15.068359 22.927734 A 1.0001 1.0001 0 0 0 15.089844 22.931641 C 15.700507 23.011292 16.309027 22.74617 16.699219 22.291016 C 18.271054 22.744815 19.891693 22.895712 20.927734 22.957031 C 21.146291 22.972826 21.363236 22.949771 21.570312 22.892578 A 1 1 0 0 0 22.707031 22.707031 A 1 1 0 0 0 22.707031 21.292969 L 22.408203 20.994141 L 17.445312 16.03125 A 1 1 0 0 0 17.386719 15.972656 L 5.6367188 4.2226562 L 2.7070312 1.2929688 A 1 1 0 0 0 2 1 z M 4.9707031 6.3847656 L 9.7773438 11.191406 C 8.7264636 11.124135 7.6957877 10.847393 6.8183594 10.552734 A 1.0001 1.0001 0 0 0 5.5 11.5 C 5.5 12.79975 5.1421338 15.428968 4.6796875 17.050781 C 2.4301132 13.779504 2.5145554 9.4635509 4.9707031 6.3847656 z M 7.4023438 12.761719 C 7.866514 12.885634 8.352502 12.999341 8.8613281 13.080078 C 9.8395386 15.613935 10.232932 18.067424 10.130859 20.015625 C 8.9878392 19.42701 7.6232278 18.452669 6.6699219 17.660156 C 7.1117454 16.131615 7.3177237 14.275175 7.4023438 12.761719 z M 11.666016 13.080078 L 14.427734 15.841797 C 13.527473 15.742642 12.52843 15.584258 11.667969 15.339844 C 11.496248 14.625651 11.28227 13.899401 11.027344 13.167969 C 11.191377 13.153216 11.357706 13.133576 11.525391 13.107422 C 11.572698 13.100519 11.619611 13.090506 11.666016 13.080078 z M 12.064453 17.501953 C 13.017318 17.707928 13.975589 17.824028 14.792969 17.892578 C 14.950171 18.741789 15.110522 19.912935 15.087891 20.855469 C 14.092401 20.651964 12.924041 20.226265 12.179688 19.925781 C 12.207497 19.154697 12.168301 18.343012 12.064453 17.501953 z M 16.931641 18.345703 L 19.380859 20.794922 C 18.652599 20.694652 17.862951 20.545667 17.138672 20.332031 C 17.119381 19.638023 17.034328 18.952128 16.931641 18.345703 z "/>
</svg>
