<svg xmlns="http://www.w3.org/2000/svg" xmlns:svg="http://www.w3.org/2000/svg" width="24" height="24" viewBox="0 0 24 24" fill="currentColor" tags="beer,brewery,drink,hop free,allergy,intolerance,diet" categories="food-beverage">
  <path d="M 11.914062 0.99414062 C 11.552973 0.99651784 11.190855 1.0165274 10.830078 1.0546875 C 9.8675302 1.1564983 8.9120417 1.3862064 7.9863281 1.7480469 A 1 1 0 0 0 7.4179688 3.0449219 A 1 1 0 0 0 8.7148438 3.6113281 C 11.508501 2.519351 14.607953 2.9570724 17.052734 4.6367188 C 15.652838 5.0412615 13.540045 5.4235025 12.099609 5.4804688 A 1 1 0 0 0 11.140625 6.5195312 A 1 1 0 0 0 12.179688 7.4785156 C 13.752752 7.4163044 15.959044 7.1670817 17.669922 6.6699219 C 18.572945 7.7334122 19.337959 8.9049441 20.007812 10.130859 C 19.022025 10.182619 17.936694 10.146829 16.75 9.9179688 A 1 1 0 0 0 15.578125 10.710938 A 1 1 0 0 0 16.371094 11.882812 C 17.619858 12.123645 18.821931 12.220836 19.935547 12.179688 C 20.27522 12.985547 20.772331 14.288266 20.939453 15.335938 A 1 1 0 0 0 20.808594 16.541016 A 1 1 0 0 0 22.201172 16.791016 C 22.762323 16.40065 23.017427 15.731285 22.931641 15.087891 A 1.0001 1.0001 0 0 0 22.927734 15.068359 C 22.721487 13.715377 22.182974 12.320609 21.808594 11.453125 C 22.203775 10.946036 22.339316 10.239307 22.050781 9.6054688 A 1.0001 1.0001 0 0 0 22.027344 9.5585938 C 21.29999 8.1562984 20.422593 6.8381648 19.412109 5.6269531 C 19.529003 5.4260567 19.604257 5.2053947 19.623047 4.9824219 C 19.671785 4.4034982 19.405361 3.8461141 18.960938 3.484375 C 16.943618 1.8321111 14.44169 0.97750009 11.914062 0.99414062 z M 2 1 A 1 1 0 0 0 1.2929688 1.2929688 A 1 1 0 0 0 1.2929688 2.7070312 L 3.546875 4.9609375 C 0.210014 8.9652868 0.12886392 14.854751 3.484375 18.960938 L 3.4863281 18.960938 L 3.4863281 18.962891 C 3.8481092 19.406053 4.4044119 19.671756 4.9824219 19.623047 C 5.206627 19.604151 5.4290801 19.528166 5.6308594 19.410156 C 6.7275562 20.32559 8.1909792 21.400305 9.6035156 22.048828 A 1.0001 1.0001 0 0 0 9.6054688 22.050781 C 10.239326 22.339324 10.946032 22.203802 11.453125 21.808594 C 12.320612 22.182973 13.7154 22.721491 15.068359 22.927734 A 1.0001 1.0001 0 0 0 15.089844 22.931641 C 15.699722 23.01119 16.308966 22.74705 16.699219 22.292969 C 18.271183 22.746861 19.8916 22.895707 20.927734 22.957031 C 21.141753 22.972498 21.355403 22.951072 21.558594 22.896484 A 1 1 0 0 0 22.707031 22.707031 A 1 1 0 0 0 22.707031 21.292969 L 22.412109 20.998047 A 1 1 0 0 0 22.408203 20.994141 L 17.427734 16.013672 A 1 1 0 0 0 17.386719 15.972656 L 5.6367188 4.2226562 L 2.7070312 1.2929688 A 1 1 0 0 0 2 1 z M 4.96875 6.3828125 L 9.7753906 11.189453 C 8.7253621 11.121909 7.6951029 10.847163 6.8183594 10.552734 A 1.0001 1.0001 0 0 0 5.5 11.5 C 5.5 12.799752 5.1421347 15.428965 4.6796875 17.050781 C 2.4299905 13.779325 2.5122186 9.4616341 4.96875 6.3828125 z M 7.4023438 12.761719 C 7.8669225 12.885743 8.3539691 12.999328 8.8632812 13.080078 C 9.8413461 15.613754 10.232925 18.067554 10.130859 20.015625 C 8.9902392 19.428246 7.6249189 18.453727 6.671875 17.662109 C 7.1138734 16.133402 7.3177074 14.275466 7.4023438 12.761719 z M 11.667969 13.082031 L 14.427734 15.841797 C 13.528639 15.742705 12.529355 15.585725 11.669922 15.341797 C 11.49819 14.627346 11.2843 13.899679 11.029297 13.167969 C 11.192974 13.153225 11.358079 13.133518 11.525391 13.107422 C 11.573082 13.100463 11.621195 13.092572 11.667969 13.082031 z M 12.064453 17.503906 C 13.017844 17.709962 13.977298 17.826014 14.794922 17.894531 C 14.951964 18.743529 15.110499 19.913918 15.087891 20.855469 C 14.094571 20.652407 12.924279 20.226157 12.179688 19.925781 C 12.207443 19.15493 12.168266 18.34468 12.064453 17.503906 z M 16.931641 18.345703 L 19.380859 20.794922 C 18.652845 20.694709 17.86282 20.547482 17.138672 20.333984 C 17.119458 19.639535 17.03439 18.952513 16.931641 18.345703 z "/>
</svg>
