<?xml version="1.0" encoding="UTF-8" standalone="no"?>
<svg xmlns="http://www.w3.org/2000/svg" xmlns:svg="http://www.w3.org/2000/svg" width="24" height="24" viewBox="0 0 24 24" fill="currentColor" tags="beer,brewery,drink,hop free,allergy,intolerance,diet" categories="food-beverage">
  <path d="M 11.914062 0.99414062 C 11.552973 0.99651784 11.190855 1.0165274 10.830078 1.0546875 C 9.8675302 1.1564983 8.9120417 1.3862064 7.9863281 1.7480469 A 1 1 0 0 0 7.4179688 3.0449219 A 1 1 0 0 0 8.7148438 3.6113281 C 11.508501 2.519351 14.607953 2.9570724 17.052734 4.6367188 C 15.652838 5.0412615 13.540045 5.4235025 12.099609 5.4804688 A 1 1 0 0 0 11.140625 6.5195312 A 1 1 0 0 0 12.179688 7.4785156 C 13.752843 7.4163008 15.95705 7.165186 17.667969 6.6679688 C 18.571568 7.7318721 19.337632 8.9043453 20.007812 10.130859 C 19.022025 10.182619 17.936694 10.146829 16.75 9.9179688 A 1 1 0 0 0 15.578125 10.710938 A 1 1 0 0 0 16.371094 11.882812 C 17.620518 12.123772 18.821436 12.219051 19.935547 12.177734 C 20.275248 12.983372 20.772135 14.287036 20.939453 15.335938 A 1 1 0 0 0 20.808594 16.541016 A 1 1 0 0 0 22.201172 16.791016 C 22.762323 16.40065 23.017427 15.731285 22.931641 15.087891 A 1.0001 1.0001 0 0 0 22.927734 15.068359 C 22.720886 13.711434 22.181145 12.320048 21.806641 11.453125 C 22.202574 10.945947 22.339553 10.239829 22.050781 9.6054688 A 1.0001 1.0001 0 0 0 22.027344 9.5585938 C 21.299743 8.1558226 20.423027 6.8385037 19.412109 5.6269531 C 19.528981 5.4260744 19.604259 5.2053701 19.623047 4.9824219 C 19.671785 4.4034982 19.405361 3.8461141 18.960938 3.484375 C 16.943618 1.8321111 14.44169 0.97750009 11.914062 0.99414062 z M 2 1 A 1 1 0 0 0 1.2929688 1.2929688 A 1 1 0 0 0 1.2929688 2.7070312 L 3.5488281 4.9628906 C 0.21172649 8.9672457 0.12878192 14.854651 3.484375 18.960938 L 3.4863281 18.960938 L 3.4863281 18.962891 C 3.8481092 19.406053 4.4044119 19.671756 4.9824219 19.623047 C 5.207635 19.604066 5.4303137 19.527129 5.6328125 19.408203 C 6.7301391 20.324677 8.1885174 21.399175 9.6035156 22.048828 A 1.0001 1.0001 0 0 0 9.6054688 22.050781 C 10.239768 22.339526 10.945957 22.202487 11.453125 21.806641 C 12.320048 22.181145 13.711434 22.720886 15.068359 22.927734 A 1.0001 1.0001 0 0 0 15.089844 22.931641 C 15.700508 23.011292 16.309027 22.746171 16.699219 22.291016 C 18.271055 22.744816 19.89169 22.895712 20.927734 22.957031 C 21.146292 22.972826 21.363236 22.949771 21.570312 22.892578 A 1 1 0 0 0 22.707031 22.707031 A 1 1 0 0 0 22.707031 21.292969 L 22.408203 20.994141 L 17.445312 16.03125 A 1 1 0 0 0 17.386719 15.972656 L 5.6367188 4.2226562 L 2.7070312 1.2929688 A 1 1 0 0 0 2 1 z M 4.9707031 6.3847656 L 9.7773438 11.191406 C 8.7264628 11.124135 7.6957894 10.847394 6.8183594 10.552734 A 1.0001 1.0001 0 0 0 5.5 11.5 C 5.5 12.799752 5.1421347 15.428965 4.6796875 17.050781 C 2.4301088 13.779497 2.5145506 9.4635555 4.9707031 6.3847656 z M 7.4023438 12.761719 C 7.8665149 12.885634 8.3525018 12.99934 8.8613281 13.080078 C 9.8395404 15.613939 10.232932 18.06742 10.130859 20.015625 C 8.9878369 19.427009 7.6232288 18.45267 6.6699219 17.660156 C 7.111746 16.131613 7.3177235 14.275178 7.4023438 12.761719 z M 11.666016 13.080078 L 14.427734 15.841797 C 13.527472 15.742642 12.528431 15.584259 11.667969 15.339844 C 11.496248 14.625651 11.282271 13.899401 11.027344 13.167969 C 11.191377 13.153216 11.357706 13.133576 11.525391 13.107422 C 11.572698 13.100519 11.619611 13.090506 11.666016 13.080078 z M 12.064453 17.501953 C 13.017319 17.707928 13.975588 17.824028 14.792969 17.892578 C 14.950171 18.741789 15.110522 19.912933 15.087891 20.855469 C 14.0924 20.651963 12.924041 20.226265 12.179688 19.925781 C 12.207497 19.154696 12.168302 18.343012 12.064453 17.501953 z M 16.931641 18.345703 L 19.380859 20.794922 C 18.652598 20.694652 17.862951 20.545667 17.138672 20.332031 C 17.11938 19.63802 17.034328 18.952129 16.931641 18.345703 z "/>
</svg>
