<svg xmlns="http://www.w3.org/2000/svg" xmlns:svg="http://www.w3.org/2000/svg" width="24" height="24" viewBox="0 0 24 24" fill="currentColor" tags="beer,brewery,drink" categories="food-beverage">
  <path d="M 3.0117188 1 A 1 1 0 0 0 2.3007812 1.2851562 C 1.6294639 1.9429102 1.6294638 3.0570898 2.3007812 3.7148438 L 3.5546875 4.96875 C 0.2195451 8.9700817 0.13489143 14.854264 3.484375 18.960938 C 3.8461141 19.405361 4.4035013 19.671832 4.9824219 19.623047 C 5.2053993 19.604255 5.4260534 19.529007 5.6269531 19.412109 C 6.8386386 20.422697 8.1581168 21.300029 9.5605469 22.027344 A 1.0001 1.0001 0 0 0 9.6054688 22.050781 C 10.237733 22.338599 10.942402 22.203463 11.449219 21.810547 C 12.599394 22.303257 13.799724 22.672883 15.029297 22.912109 A 1.0001 1.0001 0 0 0 15.048828 22.916016 C 15.690534 23.027876 16.317467 22.763596 16.710938 22.294922 C 18.280919 22.746539 19.898256 22.895976 20.931641 22.957031 C 22.062893 23.035331 23.030479 22.066354 22.955078 20.935547 C 22.893083 19.507822 22.668564 18.09302 22.285156 16.71875 C 22.759993 16.325825 23.028658 15.695024 22.916016 15.048828 A 1.0001 1.0001 0 0 0 22.912109 15.029297 C 22.672882 13.799718 22.30326 12.599399 21.810547 11.449219 C 22.203455 10.942404 22.338597 10.237728 22.050781 9.6054688 A 1.0001 1.0001 0 0 0 22.027344 9.5605469 C 21.300103 8.1582509 20.422575 6.8404964 19.412109 5.6289062 C 19.529168 5.4277412 19.604502 5.2056753 19.623047 4.984375 C 19.671527 4.4058693 19.408976 3.8490576 18.960938 3.484375 C 16.777368 1.7034471 14.091391 0.89393726 11.453125 1.0273438 C 9.1295838 1.144836 6.8424845 1.9929644 4.96875 3.5546875 L 3.7070312 2.2929688 A 1.0001 1.0001 0 0 0 3.703125 2.2890625 A 1 1 0 0 0 3.7148438 1.3007812 A 1 1 0 0 0 3.0117188 1 z M 12.271484 3.0117188 C 13.944027 3.0808702 15.58672 3.6805877 17.046875 4.6816406 C 15.424509 5.1435386 12.798774 5.5 11.5 5.5 A 1 1 0 0 0 11.431641 5.5683594 A 1 1 0 0 0 11.183594 5.5507812 A 1 1 0 0 0 10.580078 6.4199219 A 1 1 0 0 0 10.5 6.5 A 1 1 0 0 0 10.568359 6.5683594 A 1 1 0 0 0 10.550781 6.8164062 C 10.999955 8.1639267 11.357232 9.2653624 11.119141 11.130859 C 9.6326048 11.336186 8.0691366 10.972772 6.8183594 10.552734 A 1.0001 1.0001 0 0 0 5.5 11.5 C 5.5 12.798774 5.1435386 15.42451 4.6816406 17.046875 C 2.2510855 13.501619 2.5534872 8.7355753 5.6445312 5.6445312 C 7.2806231 4.0084395 9.3965783 3.1246533 11.552734 3.015625 C 11.792414 3.0035054 12.03255 3.00184 12.271484 3.0117188 z M 17.669922 6.6679688 C 18.573261 7.7316105 19.337883 8.9046487 20.007812 10.130859 C 18.069098 10.232109 15.61641 9.8484352 13.099609 8.8691406 C 13.022022 8.3433374 12.90551 7.8612651 12.777344 7.4003906 C 14.29198 7.3147783 16.145171 7.1102304 17.669922 6.6679688 z M 13.15625 11.025391 C 13.890766 11.283722 14.622097 11.499145 15.339844 11.671875 C 15.73342 13.078438 15.899754 14.862752 15.955078 15.955078 C 14.856926 15.899748 13.077931 15.738918 11.667969 15.339844 C 11.496406 14.625947 11.283882 13.900921 11.029297 13.169922 C 11.19604 13.154927 11.364644 13.134244 11.535156 13.107422 A 1.0001 1.0001 0 0 0 11.539062 13.107422 C 12.343849 12.977225 12.980374 12.331874 13.099609 11.525391 A 1.0001 1.0001 0 0 0 13.099609 11.519531 C 13.123323 11.350375 13.1416 11.186071 13.15625 11.025391 z M 17.5 12.066406 C 18.348545 12.170662 19.168256 12.20896 19.943359 12.179688 C 20.33853 13.114853 20.625758 14.092279 20.841797 15.085938 C 19.904535 15.106521 18.742712 14.950344 17.892578 14.794922 C 17.822802 13.976159 17.704479 13.017552 17.5 12.066406 z M 7.4023438 12.761719 C 7.866981 12.885758 8.353943 13.00101 8.8632812 13.082031 C 9.8396907 15.612721 10.231267 18.069153 10.130859 20.007812 C 8.9050628 19.338109 7.733278 18.572862 6.6699219 17.669922 C 7.1134865 16.139737 7.3175632 14.278046 7.4023438 12.761719 z M 17.798828 16.832031 C 18.519633 16.974081 19.416998 17.112693 20.326172 17.138672 C 20.678391 18.376055 20.878873 19.652899 20.941406 20.939453 C 19.959258 20.877095 18.447275 20.717914 17.138672 20.333984 C 17.113404 19.421092 16.972757 18.520443 16.830078 17.798828 C 17.255159 17.603405 17.603347 17.257083 17.798828 16.832031 z M 12.064453 17.503906 C 13.017905 17.710073 13.977354 17.825981 14.794922 17.894531 C 14.950449 18.739396 15.106367 19.902714 15.085938 20.841797 C 14.092229 20.625747 13.114896 20.338561 12.179688 19.943359 C 12.208587 19.168702 12.169269 18.351582 12.064453 17.503906 z "/>
</svg>
