<?xml version="1.0" encoding="UTF-8" standalone="no"?>
<svg xmlns="http://www.w3.org/2000/svg" xmlns:svg="http://www.w3.org/2000/svg" width="24" height="24" viewBox="0 0 24 24" fill="currentColor" tags="beer,brewery,drink" categories="food-beverage">
  <path d="M 3.0097656 1 A 1 1 0 0 0 2.3007812 1.2851562 C 1.6294639 1.9429102 1.6294638 3.0570898 2.3007812 3.7148438 L 3.5546875 4.96875 C 0.21964061 8.9700794 0.13492396 14.854304 3.484375 18.960938 C 3.8461141 19.405361 4.4035013 19.671832 4.9824219 19.623047 C 5.2062526 19.604183 5.4273948 19.527826 5.6289062 19.410156 C 6.840748 20.420945 8.157897 21.299915 9.5605469 22.027344 A 1.0001 1.0001 0 0 0 9.6054688 22.050781 C 10.238867 22.339115 10.944158 22.203142 11.451172 21.808594 C 12.601142 22.301159 13.799965 22.67293 15.029297 22.912109 A 1.0001 1.0001 0 0 0 15.048828 22.916016 C 15.690801 23.027922 16.317498 22.763962 16.710938 22.294922 C 18.281133 22.746692 19.898106 22.895967 20.931641 22.957031 C 22.062893 23.035331 23.030479 22.066354 22.955078 20.935547 C 22.893055 19.507177 22.668881 18.091651 22.285156 16.716797 C 22.759627 16.323838 23.028612 15.694758 22.916016 15.048828 A 1.0001 1.0001 0 0 0 22.912109 15.029297 C 22.67293 13.799965 22.301159 12.601142 21.808594 11.451172 C 22.203142 10.944158 22.339115 10.238867 22.050781 9.6054688 A 1.0001 1.0001 0 0 0 22.027344 9.5605469 C 21.299919 8.1578971 20.420945 6.840748 19.410156 5.6289062 C 19.527763 5.4273055 19.604452 5.2062741 19.623047 4.984375 C 19.671527 4.4058693 19.408976 3.8490576 18.960938 3.484375 C 16.777368 1.7034471 14.091391 0.89393726 11.453125 1.0273438 C 9.1296603 1.1448321 6.84245 1.9930628 4.96875 3.5546875 L 3.8730469 2.4589844 A 1 1 0 0 0 3.7148438 1.3007812 A 1 1 0 0 0 3.0097656 1 z M 11.912109 3.0058594 C 13.707755 2.9981547 15.482423 3.6090839 17.046875 4.6816406 C 15.424509 5.1435386 12.798774 5.5 11.5 5.5 A 1 1 0 0 0 11.349609 5.5625 A 1 1 0 0 0 11.183594 5.5507812 A 1 1 0 0 0 11.005859 5.7050781 A 1 1 0 0 0 10.730469 5.9453125 A 1 1 0 0 0 10.587891 6.2851562 A 1 1 0 0 0 10.5 6.5 A 1 1 0 0 0 10.5625 6.6503906 A 1 1 0 0 0 10.550781 6.8164062 C 10.999955 8.1639267 11.357232 9.2653624 11.119141 11.130859 C 9.6326048 11.336185 8.0691366 10.972772 6.8183594 10.552734 A 1.0001 1.0001 0 0 0 5.5 11.5 C 5.5 12.798774 5.1435386 15.42451 4.6816406 17.046875 C 2.2510855 13.501619 2.5534872 8.7355753 5.6445312 5.6445312 C 7.2806231 4.0084395 9.3965783 3.1246533 11.552734 3.015625 C 11.672574 3.0095652 11.7924 3.006373 11.912109 3.0058594 z M 17.666016 6.6640625 C 18.570862 7.7287827 19.337028 8.9030839 20.007812 10.130859 C 18.068381 10.232147 15.615435 9.8492382 13.097656 8.8691406 C 13.020067 8.3441352 12.905343 7.8606645 12.777344 7.4003906 C 14.292202 7.3147658 16.141138 7.1064586 17.666016 6.6640625 z M 13.154297 11.021484 C 13.88932 11.280096 14.619646 11.497027 15.337891 11.669922 C 15.731962 13.076864 15.899721 14.862115 15.955078 15.955078 C 14.856476 15.899725 13.078207 15.739277 11.667969 15.339844 C 11.496265 14.625406 11.282194 13.899527 11.027344 13.167969 C 11.195031 13.152953 11.363657 13.134399 11.535156 13.107422 A 1.0001 1.0001 0 0 0 11.539062 13.107422 C 12.343849 12.977225 12.980374 12.331874 13.099609 11.525391 A 1.0001 1.0001 0 0 0 13.099609 11.523438 A 1.0001 1.0001 0 0 0 13.099609 11.521484 A 1.0001 1.0001 0 0 0 13.099609 11.519531 C 13.123617 11.348277 13.139574 11.184055 13.154297 11.021484 z M 17.5 12.066406 C 18.348384 12.170641 19.166434 12.206979 19.941406 12.177734 C 20.337162 13.113715 20.625551 14.091327 20.841797 15.085938 C 19.904341 15.106525 18.742759 14.950376 17.892578 14.794922 C 17.822782 13.976036 17.704542 13.017649 17.5 12.066406 z M 7.4023438 12.761719 C 7.8669031 12.885738 8.3540359 12.999059 8.8632812 13.080078 C 9.8399669 15.611112 10.23128 18.068904 10.130859 20.007812 C 8.9030839 19.337028 7.7287827 18.570862 6.6640625 17.666016 C 7.1078312 16.13564 7.3175444 14.278382 7.4023438 12.761719 z M 17.796875 16.830078 C 18.518563 16.972627 19.41004 17.112374 20.322266 17.138672 C 20.674667 18.376377 20.878856 19.652541 20.941406 20.939453 C 19.95883 20.877068 18.447668 20.716323 17.138672 20.332031 C 17.113224 19.415217 16.971439 18.519936 16.828125 17.796875 C 17.254065 17.601547 17.601165 17.255822 17.796875 16.830078 z M 12.064453 17.501953 C 13.018347 17.708244 13.97706 17.824026 14.794922 17.892578 C 14.950548 18.737576 15.10638 19.902107 15.085938 20.841797 C 14.091327 20.625551 13.113715 20.337162 12.177734 19.941406 C 12.2066 19.166824 12.169269 18.349532 12.064453 17.501953 z "/>
</svg>
