<?xml version="1.0" encoding="UTF-8" standalone="no"?>
<svg xmlns="http://www.w3.org/2000/svg" xmlns:svg="http://www.w3.org/2000/svg" width="24" height="24" viewBox="0 0 24 24" fill="currentColor" tags="beer,brewery,drink" categories="food-beverage">
  <path d="M 3 1 A 1 1 0 0 0 2.2929688 1.2929688 C 1.7968171 1.7891204 1.8613281 2.1457068 1.8613281 2.5 C 1.8613281 2.8542932 1.7981456 3.2095293 2.2910156 3.7050781 A 1.0001 1.0001 0 0 0 2.2929688 3.7070312 L 3.4023438 4.8164062 C -0.0031245441 8.9360587 0.16942945 15.101132 4.3417969 18.751953 A 1.0001 1.0001 0 0 0 5.4785156 18.863281 C 6.9537951 20.212657 8.772939 21.474485 10.757812 21.970703 A 1.0001 1.0001 0 0 0 11.894531 21.427734 C 12.425407 21.740771 12.978706 22.034493 13.517578 22.283203 C 14.389131 22.685459 15.166669 23 16 23 A 1.0001 1.0001 0 0 0 16.949219 22.316406 C 16.998292 22.169186 17.039858 22.022564 17.074219 21.876953 C 18.708433 22.601682 20.200283 23 22 23 A 1.0001 1.0001 0 0 0 23 22 C 23 20.200282 22.601683 18.708432 21.876953 17.074219 C 22.022564 17.039858 22.169186 16.998292 22.316406 16.949219 A 1.0001 1.0001 0 0 0 23 16 C 23 15.166668 22.685459 14.389131 22.283203 13.517578 C 22.035437 12.980751 21.743345 12.429418 21.431641 11.900391 A 1.0001 1.0001 0 0 0 21.970703 10.757812 C 21.475633 8.777531 20.216943 6.9636904 18.871094 5.4902344 A 1.0001 1.0001 0 0 0 18.871094 5.4882812 A 1.0001 1.0001 0 0 0 18.751953 4.3417969 C 16.813308 2.1261898 14.165806 1.0373035 11.492188 1.0136719 C 9.1301979 0.99279465 6.7485381 1.804279 4.8164062 3.4023438 L 3.8964844 2.4824219 C 3.883191 2.5130793 3.8348935 2.579169 3.7070312 2.7070312 A 1 1 0 0 0 3.8535156 2.4882812 C 3.8526741 2.4854013 3.8613281 2.502943 3.8613281 2.5 C 3.8613281 2.486636 3.8709378 2.4742803 3.8808594 2.4667969 L 3.8730469 2.4589844 A 1 1 0 0 0 3.7070312 1.2929688 A 1 1 0 0 0 3 1 z M 3.8808594 2.4667969 L 3.8964844 2.4824219 C 3.907531 2.456946 3.894368 2.4566079 3.8808594 2.4667969 z M 11.447266 2.9863281 C 13.126769 2.9964631 14.713848 3.7055684 16.107422 4.8085938 C 15.670259 5.0124747 15.463865 5.1965336 14.882812 5.3417969 C 13.73934 5.6276649 12.45685 5.7079625 11.742188 5.5292969 A 1.0001 1.0001 0 0 0 10.667969 7.0546875 C 11.295701 7.9962867 11.350651 9.8439823 11.105469 11.105469 C 9.8439823 11.350651 7.9962867 11.295701 7.0546875 10.667969 A 1.0001 1.0001 0 0 0 5.5292969 11.742188 C 5.7079625 12.45685 5.6276646 13.73934 5.3417969 14.882812 C 5.1965336 15.463865 5.0124747 15.670259 4.8085938 16.107422 C 2.3053594 12.944401 2.5112211 8.4672947 5.4902344 5.4882812 C 7.156701 3.8218147 9.3148942 2.9734598 11.447266 2.9863281 z M 17.232422 6.671875 C 18.158329 7.7001735 18.950372 8.9159788 19.492188 10.109375 C 17.638043 10.32616 15.763394 10.253585 13.183594 9.1992188 C 13.118225 8.662517 13.008942 8.121525 12.851562 7.5917969 C 13.691316 7.5826969 14.543858 7.4890352 15.367188 7.2832031 C 16.039469 7.1151328 16.670121 6.9209806 17.232422 6.671875 z M 13.173828 11.339844 C 14.043135 11.655382 14.864037 11.881535 15.646484 12.033203 C 16.362327 13.505034 16.446967 14.73952 16.464844 16.464844 C 14.73952 16.446962 13.505034 16.362327 12.033203 15.646484 C 11.881535 14.864037 11.655382 14.043135 11.339844 13.173828 C 11.680785 13.123488 12.00973 13.051443 12.316406 12.949219 A 1.0001 1.0001 0 0 0 12.949219 12.316406 C 13.051444 12.00973 13.123487 11.680785 13.173828 11.339844 z M 19.292969 12.246094 C 19.723287 12.911178 20.149677 13.670329 20.466797 14.357422 C 20.622636 14.695073 20.616563 14.815585 20.705078 15.09375 C 19.999225 15.100634 19.255793 14.978001 18.419922 14.738281 C 18.344961 13.901894 18.198637 13.107032 17.914062 12.283203 C 18.384782 12.294725 18.843343 12.28079 19.292969 12.246094 z M 7.5917969 12.851562 C 8.121525 13.008941 8.662517 13.118225 9.1992188 13.183594 C 10.253585 15.763394 10.32616 17.638043 10.109375 19.492188 C 8.9159788 18.950372 7.7001735 18.158329 6.671875 17.232422 C 6.9209806 16.670121 7.1151328 16.039469 7.2832031 15.367188 C 7.4890352 14.543858 7.5826974 13.691316 7.5917969 12.851562 z M 18.498047 16.867188 C 18.885293 16.97706 19.285232 17.070563 19.695312 17.132812 C 20.375615 18.531901 20.696121 19.639081 20.845703 20.845703 C 19.639081 20.696121 18.531901 20.375615 17.132812 19.695312 C 17.070563 19.285232 16.97706 18.885293 16.867188 18.498047 C 17.07501 18.498994 17.281789 18.5 17.5 18.5 A 1.0001 1.0001 0 0 0 18.5 17.5 C 18.5 17.281789 18.498994 17.07501 18.498047 16.867188 z M 12.283203 17.914062 C 13.107032 18.198637 13.901894 18.344962 14.738281 18.419922 C 14.977999 19.255793 15.100625 19.999225 15.09375 20.705078 C 14.815585 20.616558 14.695073 20.622638 14.357422 20.466797 C 13.670329 20.149677 12.911178 19.723287 12.246094 19.292969 C 12.28079 18.843343 12.294725 18.384782 12.283203 17.914062 z "/>
</svg>
