<?xml version="1.0" encoding="UTF-8" standalone="no"?>
<svg xmlns="http://www.w3.org/2000/svg" xmlns:svg="http://www.w3.org/2000/svg" width="24" height="24" viewBox="0 0 24 24" fill="currentColor" tags="beer,brewery,drink" categories="food-beverage">
  <path d="M 3.0097656 1 A 1 1 0 0 0 2.3007812 1.2851562 C 1.6294652 1.942909 1.6294652 3.057091 2.3007812 3.7148438 L 3.5546875 4.96875 C 0.2196472 8.9700729 0.13493065 14.854312 3.484375 18.960938 C 3.8461134 19.405359 4.4035025 19.671832 4.9824219 19.623047 C 5.2062521 19.604183 5.427395 19.527826 5.6289062 19.410156 C 6.8407468 20.420944 8.1578998 21.299916 9.5605469 22.027344 A 1.0001 1.0001 0 0 0 9.6054688 22.050781 C 10.238866 22.339115 10.944158 22.203141 11.451172 21.808594 C 12.60114 22.301158 13.799968 22.67293 15.029297 22.912109 A 1.0001 1.0001 0 0 0 15.048828 22.916016 C 15.6908 23.027922 16.317498 22.763961 16.710938 22.294922 C 18.281131 22.746692 19.898109 22.895967 20.931641 22.957031 C 22.06289 23.035331 23.030479 22.066352 22.955078 20.935547 C 22.893055 19.50718 22.668881 18.091649 22.285156 16.716797 C 22.759627 16.323838 23.028612 15.694757 22.916016 15.048828 A 1.0001 1.0001 0 0 0 22.912109 15.029297 C 22.67293 13.799968 22.301158 12.60114 21.808594 11.451172 C 22.203141 10.944158 22.339115 10.238866 22.050781 9.6054688 A 1.0001 1.0001 0 0 0 22.027344 9.5605469 C 21.299919 8.1578999 20.420944 6.8407468 19.410156 5.6289062 C 19.527763 5.4273056 19.604452 5.2062737 19.623047 4.984375 C 19.671527 4.4058705 19.408976 3.8490568 18.960938 3.484375 C 16.777373 1.7034507 14.091385 0.89393752 11.453125 1.0273438 C 9.129665 1.1448319 6.8424476 1.9930653 4.96875 3.5546875 L 3.8730469 2.4589844 A 1 1 0 0 0 3.7148438 1.3007812 A 1 1 0 0 0 3.0097656 1 z M 11.912109 3.0058594 C 13.707751 2.9981547 15.482425 3.609086 17.046875 4.6816406 C 15.424514 5.1435377 12.798771 5.5 11.5 5.5 A 1 1 0 0 0 11.349609 5.5625 A 1 1 0 0 0 11.183594 5.5507812 A 1 1 0 0 0 11.005859 5.7050781 A 1 1 0 0 0 10.730469 5.9453125 A 1 1 0 0 0 10.587891 6.2851562 A 1 1 0 0 0 10.5 6.5 A 1 1 0 0 0 10.5625 6.6503906 A 1 1 0 0 0 10.550781 6.8164062 C 10.999954 8.163924 11.357231 9.265366 11.119141 11.130859 C 9.6326078 11.336185 8.0691341 10.972771 6.8183594 10.552734 A 1.0001 1.0001 0 0 0 5.5 11.5 C 5.5 12.798771 5.1435377 15.424514 4.6816406 17.046875 C 2.2510904 13.501627 2.5534934 8.7355692 5.6445312 5.6445312 C 7.2806199 4.0084427 9.3965825 3.124653 11.552734 3.015625 C 11.672574 3.0095652 11.7924 3.006373 11.912109 3.0058594 z M 17.666016 6.6640625 C 18.570861 7.7287814 19.337029 8.9030863 20.007812 10.130859 C 18.068387 10.232147 15.615431 9.8492364 13.097656 8.8691406 C 13.020067 8.3441354 12.905342 7.8606636 12.777344 7.4003906 C 14.292198 7.314766 16.14114 7.1064579 17.666016 6.6640625 z M 13.154297 11.021484 C 13.889319 11.280096 14.619647 11.497027 15.337891 11.669922 C 15.731961 13.076863 15.899722 14.862117 15.955078 15.955078 C 14.856478 15.899725 13.078205 15.739276 11.667969 15.339844 C 11.496265 14.625406 11.282194 13.899526 11.027344 13.167969 C 11.195031 13.152953 11.363657 13.134399 11.535156 13.107422 A 1.0001 1.0001 0 0 0 11.539062 13.107422 C 12.343847 12.977226 12.980374 12.331872 13.099609 11.525391 A 1.0001 1.0001 0 0 0 13.099609 11.523438 A 1.0001 1.0001 0 0 0 13.099609 11.521484 A 1.0001 1.0001 0 0 0 13.099609 11.519531 C 13.123617 11.348278 13.139574 11.184055 13.154297 11.021484 z M 17.5 12.066406 C 18.348384 12.170641 19.166435 12.206979 19.941406 12.177734 C 20.337162 13.113714 20.625552 14.091328 20.841797 15.085938 C 19.904344 15.106525 18.742759 14.950376 17.892578 14.794922 C 17.822782 13.976036 17.704542 13.017648 17.5 12.066406 z M 7.4023438 12.761719 C 7.8669022 12.885737 8.3540361 12.999059 8.8632812 13.080078 C 9.8399651 15.611108 10.23128 18.068907 10.130859 20.007812 C 8.9030863 19.337029 7.7287814 18.570861 6.6640625 17.666016 C 7.1078306 16.135641 7.3175446 14.278379 7.4023438 12.761719 z M 17.796875 16.830078 C 18.518563 16.972627 19.410041 17.112374 20.322266 17.138672 C 20.674666 18.376376 20.878856 19.652543 20.941406 20.939453 C 19.958832 20.877068 18.447666 20.716323 17.138672 20.332031 C 17.113224 19.415218 16.971438 18.519935 16.828125 17.796875 C 17.254064 17.601547 17.601165 17.255822 17.796875 16.830078 z M 12.064453 17.501953 C 13.018347 17.708244 13.977061 17.824026 14.794922 17.892578 C 14.950548 18.737576 15.10638 19.902108 15.085938 20.841797 C 14.091328 20.625552 13.113714 20.337162 12.177734 19.941406 C 12.2066 19.166825 12.169269 18.349531 12.064453 17.501953 z "/>
</svg>
