<?xml version="1.0" encoding="UTF-8" standalone="no"?>
<svg xmlns="http://www.w3.org/2000/svg" xmlns:svg="http://www.w3.org/2000/svg" width="24" height="24" viewBox="0 0 24 24" fill="currentColor" tags="infirmary,sanatorium,healthcare,doctor,hospice,clinic,emergency room,ward,building,medical,vet" categories="medical,buildings,maps,travel">
  <path d="M 8 1 C 6.3549936 1 5 2.3549936 5 4 L 5 8 L 4 8 C 2.3549936 8 1 9.3549936 1 11 L 1 20 C 1 21.645006 2.3549936 23 4 23 L 6 23 L 18 23 L 20 23 C 21.645006 23 23 21.645006 23 20 L 23 14 C 23 12.354994 21.645006 11 20 11 L 19 11 L 19 4 C 19 2.3549936 17.645006 1 16 1 L 8 1 z M 8 3 L 16 3 C 16.564128 3 17 3.4358718 17 4 L 17 12 L 17 21 L 7 21 L 7 9 L 7 4 C 7 3.4358718 7.4358718 3 8 3 z M 12 5 A 1 1 0 0 0 11 6 L 11 7 L 10 7 A 1 1 0 0 0 9 8 A 1 1 0 0 0 10 9 L 11 9 L 11 10 A 1 1 0 0 0 12 11 A 1 1 0 0 0 13 10 L 13 9 L 14 9 A 1 1 0 0 0 15 8 A 1 1 0 0 0 14 7 L 13 7 L 13 6 A 1 1 0 0 0 12 5 z M 4 10 L 5 10 L 5 21 L 4 21 C 3.4358718 21 3 20.564128 3 20 L 3 11 C 3 10.435872 3.4358718 10 4 10 z M 10 13 A 1 1 0 0 0 9 14 A 1 1 0 0 0 10 15 L 14 15 A 1 1 0 0 0 15 14 A 1 1 0 0 0 14 13 L 10 13 z M 19 13 L 20 13 C 20.564128 13 21 13.435872 21 14 L 21 20 C 21 20.564128 20.564128 21 20 21 L 19 21 L 19 13 z M 10 17 A 1 1 0 0 0 9 18 A 1 1 0 0 0 10 19 L 14 19 A 1 1 0 0 0 15 18 A 1 1 0 0 0 14 17 L 10 17 z "/>
</svg>
