<svg xmlns="http://www.w3.org/2000/svg" xmlns:svg="http://www.w3.org/2000/svg" width="24" height="24" viewBox="0 0 24 24" fill="currentColor" tags="infirmary,sanatorium,healthcare,doctor,hospice,clinic,emergency room,ward,building,medical,vet" categories="medical,buildings,navigation,travel">
  <path d="M 8 2 C 6.3549904 2 5 3.3549904 5 5 L 5 7 L 4 7 C 2.3549904 7 1 8.3549904 1 10 L 1 19 C 1 20.64501 2.3549904 22 4 22 L 6 22 L 18 22 L 20 22 C 21.64501 22 23 20.64501 23 19 L 23 13 C 23 11.35499 21.64501 10 20 10 L 19 10 L 19 5 C 19 3.3549904 17.64501 2 16 2 L 8 2 z M 8 4 L 16 4 C 16.564129 4 17 4.4358706 17 5 L 17 11 L 17 20 L 15 20 L 15 18 C 15 17.083334 14.620244 16.268559 14.039062 15.751953 C 13.45788 15.235347 12.722222 15 12 15 C 11.277778 15 10.542119 15.235347 9.9609375 15.751953 C 9.3797556 16.268559 9 17.083334 9 18 L 9 20 L 7 20 L 7 8 L 7 5 C 7 4.4358706 7.4358706 4 8 4 z M 12 6 A 1 1 0 0 0 11 7 L 11 8 L 10 8 A 1 1 0 0 0 9 9 A 1 1 0 0 0 10 10 L 11 10 L 11 11 A 1 1 0 0 0 12 12 A 1 1 0 0 0 13 11 L 13 10 L 14 10 A 1 1 0 0 0 15 9 A 1 1 0 0 0 14 8 L 13 8 L 13 7 A 1 1 0 0 0 12 6 z M 4 9 L 5 9 L 5 20 L 4 20 C 3.4358706 20 3 19.564129 3 19 L 3 10 C 3 9.4358706 3.4358706 9 4 9 z M 19 12 L 20 12 C 20.564129 12 21 12.435871 21 13 L 21 19 C 21 19.564129 20.564129 20 20 20 L 19 20 L 19 12 z M 12 17 C 12.277778 17 12.542119 17.09799 12.710938 17.248047 C 12.879755 17.398107 13 17.583334 13 18 L 13 20 L 11 20 L 11 18 C 11 17.583334 11.120244 17.398107 11.289062 17.248047 C 11.45788 17.097986 11.722222 17 12 17 z "/>
</svg>
