<?xml version="1.0" encoding="UTF-8" standalone="no"?>
<svg xmlns="http://www.w3.org/2000/svg" xmlns:svg="http://www.w3.org/2000/svg" width="24" height="24" viewBox="0 0 24 24" fill="currentColor" tags="building,hostel,motel,inn" categories="buildings,maps,travel">
  <path d="M 6 1 C 4.3553005 1 3 2.3553005 3 4 L 3 20 C 3 21.644699 4.3553005 23 6 23 L 10 23 L 14 23 L 18 23 C 19.644699 23 21 21.644699 21 20 L 21 4 C 21 2.3553005 19.644699 1 18 1 L 6 1 z M 6 3 L 18 3 C 18.571296 3 19 3.4287039 19 4 L 19 20 C 19 20.571296 18.571296 21 18 21 L 15 21 L 15 16.998047 A 1 1 0 0 0 15.800781 16.599609 A 1 1 0 0 0 15.599609 15.199219 C 14.534723 14.400554 13.267553 14.001953 12 14.001953 C 10.732447 14.001953 9.4652774 14.400554 8.4003906 15.199219 A 1 1 0 0 0 8.1992188 16.599609 A 1 1 0 0 0 9 16.998047 L 9 21 L 6 21 C 5.4287039 21 5 20.571296 5 20 L 5 4 C 5 3.4287039 5.4287039 3 6 3 z M 8 6 A 1 1 0 0 0 7 7 A 1 1 0 0 0 8 8 L 8.0097656 8 A 1 1 0 0 0 9.0097656 7 A 1 1 0 0 0 8.0097656 6 L 8 6 z M 12 6 A 1 1 0 0 0 11 7 A 1 1 0 0 0 12 8 L 12.009766 8 A 1 1 0 0 0 13.009766 7 A 1 1 0 0 0 12.009766 6 L 12 6 z M 16 6 A 1 1 0 0 0 15 7 A 1 1 0 0 0 16 8 L 16.009766 8 A 1 1 0 0 0 17.009766 7 A 1 1 0 0 0 16.009766 6 L 16 6 z M 8 10 A 1 1 0 0 0 7 11 A 1 1 0 0 0 8 12 L 8.0097656 12 A 1 1 0 0 0 9.0097656 11 A 1 1 0 0 0 8.0097656 10 L 8 10 z M 12 10 A 1 1 0 0 0 11 11 A 1 1 0 0 0 12 12 L 12.009766 12 A 1 1 0 0 0 13.009766 11 A 1 1 0 0 0 12.009766 10 L 12 10 z M 16 10 A 1 1 0 0 0 15 11 A 1 1 0 0 0 16 12 L 16.009766 12 A 1 1 0 0 0 17.009766 11 A 1 1 0 0 0 16.009766 10 L 16 10 z M 12 15.998047 C 12.336436 15.998047 12.67186 16.041945 13 16.126953 L 13 21 L 11 21 L 11 16.126953 C 11.32814 16.041945 11.663564 15.998047 12 15.998047 z "/>
</svg>
