<?xml version="1.0" encoding="UTF-8" standalone="no"?>
<svg xmlns="http://www.w3.org/2000/svg" xmlns:svg="http://www.w3.org/2000/svg" width="24" height="24" viewBox="0 0 24 24" fill="currentColor" tags="building,hostel,motel,inn" categories="buildings,maps,travel">
  
  <path d="M 6 1 C 4.3549936 1 3 2.3549936 3 4 L 3 20 C 3 21.645006 4.3549936 23 6 23 L 10 23 L 14 23 L 18 23 C 19.645006 23 21 21.645006 21 20 L 21 4 C 21 2.3549936 19.645006 1 18 1 L 6 1 z M 6 3 L 18 3 C 18.564128 3 19 3.4358718 19 4 L 19 20 C 19 20.564128 18.564128 21 18 21 L 15 21 L 15 16.992188 A 1 1 0 0 0 15.822266 16.568359 A 1 1 0 0 0 15.568359 15.177734 L 15.220703 14.9375 C 14.280633 14.287028 13.14031 13.962886 12 13.962891 C 10.85969 13.962895 9.7197209 14.287228 8.7792969 14.9375 L 8.4316406 15.177734 A 1 1 0 0 0 8.1777344 16.568359 A 1 1 0 0 0 9 16.992188 L 9 21 L 6 21 C 5.4358718 21 5 20.564128 5 20 L 5 4 C 5 3.4358718 5.4358718 3 6 3 z M 8 6 A 1 1 0 0 0 7 7 A 1 1 0 0 0 8 8 L 8.0097656 8 A 1 1 0 0 0 9.0097656 7 A 1 1 0 0 0 8.0097656 6 L 8 6 z M 12 6 A 1 1 0 0 0 11 7 A 1 1 0 0 0 12 8 L 12.009766 8 A 1 1 0 0 0 13.009766 7 A 1 1 0 0 0 12.009766 6 L 12 6 z M 16 6 A 1 1 0 0 0 15 7 A 1 1 0 0 0 16 8 L 16.009766 8 A 1 1 0 0 0 17.009766 7 A 1 1 0 0 0 16.009766 6 L 16 6 z M 8 10 A 1 1 0 0 0 7 11 A 1 1 0 0 0 8 12 L 8.0097656 12 A 1 1 0 0 0 9.0097656 11 A 1 1 0 0 0 8.0097656 10 L 8 10 z M 12 10 A 1 1 0 0 0 11 11 A 1 1 0 0 0 12 12 L 12.009766 12 A 1 1 0 0 0 13.009766 11 A 1 1 0 0 0 12.009766 10 L 12 10 z M 16 10 A 1 1 0 0 0 15 11 A 1 1 0 0 0 16 12 L 16.009766 12 A 1 1 0 0 0 17.009766 11 A 1 1 0 0 0 16.009766 10 L 16 10 z M 12 16.037109 C 12.340317 16.037131 12.680985 16.073429 13 16.142578 L 13 21 L 11 21 L 11 16.142578 C 11.319138 16.073447 11.659683 16.037088 12 16.037109 z "/>
</svg>
