<svg xmlns="http://www.w3.org/2000/svg" xmlns:svg="http://www.w3.org/2000/svg" width="24" height="24" viewBox="0 0 24 24" fill="currentColor" tags="building,hostel,motel,inn" categories="buildings,navigation,travel">
  <path d="M 6 1 C 4.3552972 1 3 2.3552972 3 4 L 3 20 C 3 21.644703 4.3552972 23 6 23 L 10 23 L 14 23 L 18 23 C 19.644703 23 21 21.644703 21 20 L 21 4 C 21 2.3552972 19.644703 1 18 1 L 6 1 z M 6 3 L 18 3 C 18.571297 3 19 3.4287028 19 4 L 19 20 C 19 20.571297 18.571297 21 18 21 L 15 21 L 15 17 A 1 1 0 0 0 15.800781 16.599609 A 1 1 0 0 0 15.599609 15.199219 C 14.53472 14.400552 13.267556 14.001953 12 14.001953 C 10.732444 14.001953 9.4652795 14.400552 8.4003906 15.199219 A 1 1 0 0 0 8.1992188 16.599609 A 1 1 0 0 0 9 17 L 9 21 L 6 21 C 5.4287028 21 5 20.571297 5 20 L 5 4 C 5 3.4287028 5.4287028 3 6 3 z M 8 6 A 1 1 0 0 0 7 7 A 1 1 0 0 0 8 8 L 8.0097656 8 A 1 1 0 0 0 9.0097656 7 A 1 1 0 0 0 8.0097656 6 L 8 6 z M 12 6 A 1 1 0 0 0 11 7 A 1 1 0 0 0 12 8 L 12.009766 8 A 1 1 0 0 0 13.009766 7 A 1 1 0 0 0 12.009766 6 L 12 6 z M 16 6 A 1 1 0 0 0 15 7 A 1 1 0 0 0 16 8 L 16.009766 8 A 1 1 0 0 0 17.009766 7 A 1 1 0 0 0 16.009766 6 L 16 6 z M 8 10 A 1 1 0 0 0 7 11 A 1 1 0 0 0 8 12 L 8.0097656 12 A 1 1 0 0 0 9.0097656 11 A 1 1 0 0 0 8.0097656 10 L 8 10 z M 12 10 A 1 1 0 0 0 11 11 A 1 1 0 0 0 12 12 L 12.009766 12 A 1 1 0 0 0 13.009766 11 A 1 1 0 0 0 12.009766 10 L 12 10 z M 16 10 A 1 1 0 0 0 15 11 A 1 1 0 0 0 16 12 L 16.009766 12 A 1 1 0 0 0 17.009766 11 A 1 1 0 0 0 16.009766 10 L 16 10 z M 12 15.998047 C 12.33609 15.998047 12.67218 16.04212 13 16.126953 L 13 21 L 11 21 L 11 16.126953 C 11.32782 16.04212 11.66391 15.998047 12 15.998047 z "/>
</svg>
