<svg xmlns="http://www.w3.org/2000/svg" xmlns:svg="http://www.w3.org/2000/svg" width="24" height="24" viewBox="0 0 24 24" fill="currentColor" tags="timer,time,sandglass" categories="time,gaming">
  <path d="M 5 1 A 1 1 0 0 0 4 2 A 1 1 0 0 0 5 3 L 6 3 L 6 6.171875 C 6.0001698 6.9670754 6.3165298 7.7307621 6.8789062 8.2929688 L 10.585938 12 L 6.8789062 15.707031 C 6.3165297 16.269238 6.0001698 17.032925 6 17.828125 L 6 21 L 5 21 A 1 1 0 0 0 4 22 A 1 1 0 0 0 5 23 L 19 23 A 1 1 0 0 0 20 22 A 1 1 0 0 0 19 21 L 18 21 L 18 17.828125 C 17.99983 17.032925 17.68347 16.269238 17.121094 15.707031 L 13.414062 12 L 17.121094 8.2929688 C 17.68347 7.730762 17.99983 6.9670754 18 6.171875 L 18 3 L 19 3 A 1 1 0 0 0 20 2 A 1 1 0 0 0 19 1 L 17 1 L 7 1 L 5 1 z M 8 3 L 16 3 L 16 6.171875 C 15.999943 6.4374538 15.894852 6.691142 15.707031 6.8789062 L 12 10.585938 L 8.2929688 6.8789062 C 8.1051477 6.691142 8.0000567 6.4374538 8 6.171875 L 8 3 z M 12 13.414062 L 15.707031 17.121094 C 15.894852 17.308858 15.999943 17.562546 16 17.828125 L 16 21 L 8 21 L 8 17.828125 C 8.0000567 17.562546 8.1051477 17.308858 8.2929688 17.121094 L 12 13.414062 z "/>
</svg>
