<?xml version="1.0" encoding="UTF-8" standalone="no"?>
<svg xmlns="http://www.w3.org/2000/svg" xmlns:svg="http://www.w3.org/2000/svg" width="24" height="24" viewBox="0 0 24 24" fill="currentColor" tags="home,living,building,residence,architecture" categories="buildings,home">
  <path d="M 12 1.0039062 C 11.309971 1.0039062 10.620894 1.2387023 10.064453 1.7089844 A 1.0001 1.0001 0 0 0 10.058594 1.7128906 L 3.0644531 7.7089844 C 2.3903019 8.2787503 1.9997884 9.1173261 2 10 L 2 19 C 2 20.64501 3.3549904 22 5 22 L 9 22 L 15 22 L 19 22 C 20.64501 22 22 20.64501 22 19 L 22 10 C 22.000212 9.1173261 21.609698 8.2787503 20.935547 7.7089844 L 13.941406 1.7128906 A 1.0001 1.0001 0 0 0 13.935547 1.7089844 C 13.379147 1.2387061 12.690029 1.0039064 12 1.0039062 z M 12 2.9960938 C 12.227792 2.9960938 12.455584 3.0766376 12.644531 3.2363281 L 19.640625 9.2304688 A 1.0001 1.0001 0 0 0 19.644531 9.2363281 C 19.869903 9.4267973 20.000071 9.7049266 20 10 L 20 19 C 20 19.564129 19.564129 20 19 20 L 16 20 L 16 13 C 16 11.907275 15.092725 11 14 11 L 10 11 C 8.9072751 11 8 11.907275 8 13 L 8 20 L 5 20 C 4.4358706 20 4 19.564129 4 19 L 4 10 C 3.9999293 9.7049266 4.1301034 9.426798 4.3554688 9.2363281 A 1.0001 1.0001 0 0 0 4.359375 9.2304688 L 11.355469 3.2363281 C 11.544416 3.0766376 11.772208 2.9960938 12 2.9960938 z M 10 13 L 14 13 L 14 20 L 10 20 L 10 13 z "/>
</svg>
