<?xml version="1.0" encoding="UTF-8" standalone="no"?>
<svg xmlns="http://www.w3.org/2000/svg" xmlns:svg="http://www.w3.org/2000/svg" width="24" height="24" viewBox="0 0 24 24" fill="currentColor" tags="home,living,medical,new,addition,building,residence,architecture" categories="buildings,medical">
  <path d="M 12 1.0039062 C 11.309971 1.0039062 10.620894 1.2387023 10.064453 1.7089844 A 1.0001 1.0001 0 0 0 10.058594 1.7128906 L 3.0644531 7.7089844 C 2.3903019 8.2787503 1.9997884 9.1173261 2 10 L 2 19 C 2 20.64501 3.3549904 22 5 22 L 12.662109 22 A 1 1 0 0 0 13.662109 21 A 1 1 0 0 0 12.662109 20 L 10 20 L 10 13 L 14 13 A 1 1 0 0 0 15.242188 13.675781 A 1 1 0 0 0 15.917969 12.433594 C 15.668336 11.587558 14.882095 11.000106 14 11 L 10 11 C 8.9072751 11 8 11.907275 8 13 L 8 20 L 5 20 C 4.4358706 20 4 19.564129 4 19 L 4 10 C 3.9999293 9.7049266 4.1301034 9.426798 4.3554688 9.2363281 A 1.0001 1.0001 0 0 0 4.359375 9.2304688 L 11.355469 3.2363281 C 11.733363 2.916947 12.266637 2.916947 12.644531 3.2363281 L 19.640625 9.2304688 A 1.0001 1.0001 0 0 0 19.644531 9.2363281 C 19.8699 9.426798 20.000071 9.7049266 20 10 L 20 12.474609 A 1 1 0 0 0 21 13.474609 A 1 1 0 0 0 22 12.474609 L 22 10 C 22.000212 9.1173261 21.609698 8.2787503 20.935547 7.7089844 L 13.941406 1.7128906 A 1.0001 1.0001 0 0 0 13.935547 1.7089844 C 13.379147 1.2387061 12.690029 1.0039064 12 1.0039062 z M 18 14 A 1 1 0 0 0 17 15 L 17 17 L 15 17 A 1 1 0 0 0 14 18 A 1 1 0 0 0 15 19 L 17 19 L 17 21 A 1 1 0 0 0 18 22 A 1 1 0 0 0 19 21 L 19 19 L 21 19 A 1 1 0 0 0 22 18 A 1 1 0 0 0 21 17 L 19 17 L 19 15 A 1 1 0 0 0 18 14 z "/>
</svg>
