<?xml version="1.0" encoding="UTF-8" standalone="no"?>
<svg xmlns="http://www.w3.org/2000/svg" xmlns:svg="http://www.w3.org/2000/svg" width="24" height="24" viewBox="0 0 24 24" fill="currentColor" tags="home,living,medical,new,addition,building,residence,architecture" categories="buildings,medical">
  <path d="M 11.931641 1.0039062 C 11.263631 1.0190702 10.601663 1.2550615 10.064453 1.7089844 A 1.0001 1.0001 0 0 0 10.058594 1.7128906 L 3.0644531 7.7089844 C 2.3903019 8.2787503 1.9997884 9.1173261 2 10 L 2 19 C 2 20.64501 3.3549904 22 5 22 L 19 22 C 20.64501 22 22 20.64501 22 19 L 22 11.646484 A 1 1 0 0 0 21 10.646484 A 1 1 0 0 0 20 11.646484 L 20 19 C 20 19.564129 19.564129 20 19 20 L 16 20 L 16 13 C 16 11.907275 15.092725 11 14 11 L 10 11 C 8.9072751 11 8 11.907275 8 13 L 8 20 L 5 20 C 4.4358706 20 4 19.564129 4 19 L 4 10 C 3.9999293 9.7049266 4.1301034 9.426798 4.3554688 9.2363281 A 1.0001 1.0001 0 0 0 4.359375 9.2304688 L 11.355469 3.2363281 C 11.719399 2.9301306 12.232347 2.9186779 12.609375 3.2089844 A 1 1 0 0 0 14.011719 3.0253906 A 1 1 0 0 0 13.830078 1.6230469 C 13.272824 1.1939685 12.59965 0.98874241 11.931641 1.0039062 z M 18 2 A 1 1 0 0 0 17 3 L 17 5 L 15 5 A 1 1 0 0 0 14 6 A 1 1 0 0 0 15 7 L 17 7 L 17 9 A 1 1 0 0 0 18 10 A 1 1 0 0 0 19 9 L 19 7 L 21 7 A 1 1 0 0 0 22 6 A 1 1 0 0 0 21 5 L 19 5 L 19 3 A 1 1 0 0 0 18 2 z M 10 13 L 14 13 L 14 20 L 10 20 L 10 13 z "/>
</svg>
