<?xml version="1.0" encoding="UTF-8" standalone="no"?>
<svg xmlns="http://www.w3.org/2000/svg" xmlns:svg="http://www.w3.org/2000/svg" width="24" height="24" viewBox="0 0 24 24" fill="currentColor" tags="home,living,medical,new,addition,building,residence,architecture" categories="buildings,medical">
  <path d="M 12 1.0019531 C 11.310597 1.0019531 10.620647 1.2356289 10.064453 1.7050781 A 1.0001 1.0001 0 0 0 10.058594 1.7109375 L 3.0644531 7.7050781 L 3.0625 7.7070312 L 3.0585938 7.7109375 C 2.3870284 8.2809934 1.99928 9.1188385 2 10 L 2 19 C 2 20.64501 3.3549904 22 5 22 L 12.349609 22 A 1 1 0 0 0 13.349609 21 A 1 1 0 0 0 12.349609 20 L 10 20 L 10 13 L 14 13 A 1 1 0 0 0 15.400391 13.199219 A 1 1 0 0 0 15.599609 11.800781 C 15.222427 11.297871 14.628638 11 14 11 L 10 11 C 8.9072751 11 8 11.907275 8 13 L 8 20 L 5 20 C 4.4358706 20 4 19.564129 4 19 L 4 10 C 3.9997585 9.7044914 4.129646 9.424978 4.3554688 9.234375 A 1.0001 1.0001 0 0 0 4.3613281 9.2285156 L 11.355469 3.234375 C 11.73317 2.9155805 12.26683 2.9155805 12.644531 3.234375 L 19.638672 9.2285156 A 1.0001 1.0001 0 0 0 19.644531 9.234375 C 19.870313 9.4249774 20.000241 9.7044914 20 10 L 20 12.349609 A 1 1 0 0 0 21 13.349609 A 1 1 0 0 0 22 12.349609 L 22 10 C 22.00072 9.1188385 21.612972 8.280994 20.941406 7.7109375 L 20.9375 7.7070312 L 13.941406 1.7109375 A 1.0001 1.0001 0 0 0 13.935547 1.7050781 C 13.379388 1.2356332 12.689403 1.0019531 12 1.0019531 z M 18 14 A 1 1 0 0 0 17 15 L 17 17 L 15 17 A 1 1 0 0 0 14 18 A 1 1 0 0 0 15 19 L 17 19 L 17 21 A 1 1 0 0 0 18 22 A 1 1 0 0 0 19 21 L 19 19 L 21 19 A 1 1 0 0 0 22 18 A 1 1 0 0 0 21 17 L 19 17 L 19 15 A 1 1 0 0 0 18 14 z "/>
</svg>
