<?xml version="1.0" encoding="UTF-8" standalone="no"?>
<svg xmlns="http://www.w3.org/2000/svg" xmlns:svg="http://www.w3.org/2000/svg" width="24" height="24" viewBox="0 0 24 24" fill="currentColor" tags="home,living,building,residence,architecture,autarky,energy" categories="buildings,home,sustainability">
  <path d="M 12 1.0019531 C 11.309971 1.0019531 10.620894 1.2387023 10.064453 1.7089844 A 1.0001 1.0001 0 0 0 10.058594 1.7128906 L 3.0644531 7.7089844 C 2.3903019 8.2787503 1.9997884 9.1173261 2 10 L 2 19 C 2 20.64501 3.3549904 22 5 22 L 8.5 22 A 1 1 0 0 0 9.5 21 A 1 1 0 0 0 8.5 20 L 5 20 C 4.4358706 20 4 19.564129 4 19 L 4 10 C 3.9999293 9.7049266 4.1301034 9.426798 4.3554688 9.2363281 A 1.0001 1.0001 0 0 0 4.359375 9.2304688 L 11.359375 3.2304688 L 11.355469 3.2363281 C 11.733363 2.916947 12.266637 2.916947 12.644531 3.2363281 L 12.640625 3.2304688 L 19.640625 9.2304688 A 1.0001 1.0001 0 0 0 19.644531 9.2363281 C 19.869888 9.426798 20.000071 9.7049266 20 10 L 20 19 C 20 19.564129 19.564129 20 19 20 L 14 20 C 13.435871 20 13 19.564129 13 19 L 13 18 L 14 18 C 15.64501 18 17 16.64501 17 15 L 17 13 C 17 11.907275 16.092725 11 15 11 L 15 8.9648438 A 1 1 0 0 0 14 7.9648438 A 1 1 0 0 0 13 8.9648438 L 13 11 L 11 11 L 11 8.9648438 A 1 1 0 0 0 10 7.9648438 A 1 1 0 0 0 9 8.9648438 L 9 11 C 7.9072751 11 7 11.907275 7 13 L 7 15 C 7 16.64501 8.3549904 18 10 18 L 11 18 L 11 19 C 11 20.64501 12.35499 22 14 22 L 19 22 C 20.64501 22 22 20.64501 22 19 L 22 10 C 22.000212 9.1173261 21.609698 8.2787503 20.935547 7.7089844 L 13.941406 1.7128906 A 1.0001 1.0001 0 0 0 13.935547 1.7089844 C 13.379147 1.2387061 12.690029 1.0019531 12 1.0019531 z M 9 13 L 15 13 L 15 15 C 15 15.564129 14.564129 16 14 16 L 12 16 L 10 16 C 9.4358706 16 9 15.564129 9 15 L 9 13 z "/>
</svg>
