<svg xmlns="http://www.w3.org/2000/svg" xmlns:svg="http://www.w3.org/2000/svg" width="24" height="24" viewBox="0 0 24 24" fill="currentColor" tags="home,living,building,wifi,connectivity" categories="home,buildings,connectivity">
  <path d="M 12 1.0019531 C 11.309971 1.0019531 10.620894 1.2387023 10.064453 1.7089844 A 1.0001 1.0001 0 0 0 10.058594 1.7128906 L 3.0644531 7.7089844 C 2.3903019 8.2787503 1.9997884 9.1173261 2 10 L 2 19 C 2 20.64501 3.3549904 22 5 22 L 19 22 C 20.64501 22 22 20.64501 22 19 L 22 10 C 22.000212 9.1173261 21.609698 8.2787503 20.935547 7.7089844 L 13.941406 1.7128906 A 1.0001 1.0001 0 0 0 13.935547 1.7089844 C 13.379147 1.2387061 12.690029 1.0019531 12 1.0019531 z M 12 2.9960938 C 12.227792 2.9960938 12.455584 3.0766376 12.644531 3.2363281 L 12.640625 3.2304688 L 19.640625 9.2304688 A 1.0001 1.0001 0 0 0 19.644531 9.2363281 C 19.869891 9.4267973 20.000071 9.7049266 20 10 L 20 19 C 20 19.564129 19.564129 20 19 20 L 5 20 C 4.4358706 20 4 19.564129 4 19 L 4 10 C 3.9999293 9.7049266 4.1301034 9.426798 4.3554688 9.2363281 A 1.0001 1.0001 0 0 0 4.359375 9.2304688 L 11.359375 3.2304688 L 11.355469 3.2363281 C 11.544416 3.0766376 11.772208 2.9960938 12 2.9960938 z M 12 8.0019531 C 10.0084 8.0019531 8.0167999 8.6581642 6.375 9.9726562 A 1 1 0 0 0 6.21875 11.378906 A 1 1 0 0 0 7.625 11.535156 C 10.186725 9.4841349 13.813275 9.4841349 16.375 11.535156 A 1 1 0 0 0 17.78125 11.378906 A 1 1 0 0 0 17.625 9.9726562 C 15.9832 8.6581642 13.9916 8.0019531 12 8.0019531 z M 12.003906 11.996094 C 10.896973 11.993894 9.7895457 12.356314 8.8769531 13.083984 A 1 1 0 0 0 8.71875 14.490234 A 1 1 0 0 0 10.123047 14.648438 C 11.225202 13.769616 12.774416 13.773039 13.873047 14.65625 A 1 1 0 0 0 15.279297 14.501953 A 1 1 0 0 0 15.126953 13.095703 C 14.217279 12.364388 13.110839 11.998308 12.003906 11.996094 z M 12 16 A 1 1 0 0 0 11 17 A 1 1 0 0 0 12 18 L 12.009766 18 A 1 1 0 0 0 13.009766 17 A 1 1 0 0 0 12.009766 16 L 12 16 z "/>
</svg>
