<?xml version="1.0" encoding="UTF-8" standalone="no"?>
<svg xmlns="http://www.w3.org/2000/svg" xmlns:svg="http://www.w3.org/2000/svg" width="24" height="24" viewBox="0 0 24 24" fill="currentColor" tags="home,living,building,residence,architecture,autarky,energy" categories="buildings,home,sustainability">
  <path d="M 12 1.0039062 C 11.309972 1.0039062 10.620894 1.2387032 10.064453 1.7089844 A 1.0001 1.0001 0 0 0 10.058594 1.7128906 L 3.0644531 7.7089844 C 2.3903032 8.2787492 1.9997884 9.1173279 2 10 L 2 19 C 2 20.645006 3.3549936 22 5 22 L 8.5 22 A 1 1 0 0 0 9.5 21 A 1 1 0 0 0 8.5 20 L 5 20 C 4.4358718 20 4 19.564128 4 19 L 4 10 C 3.9999293 9.7049272 4.1301039 9.4267976 4.3554688 9.2363281 A 1.0001 1.0001 0 0 0 4.359375 9.2304688 L 11.355469 3.2363281 C 11.733361 2.9169477 12.266639 2.9169477 12.644531 3.2363281 L 19.640625 9.2304688 A 1.0001 1.0001 0 0 0 19.644531 9.2363281 C 19.869898 9.4267976 20.000071 9.7049272 20 10 L 20 19 C 20 19.564128 19.564128 20 19 20 L 14 20 C 13.435872 20 13 19.564128 13 19 L 13 18 L 14 18 C 15.645006 18 17 16.645006 17 15 L 17 13 C 17 11.907277 16.092723 11 15 11 L 15 8.9648438 A 1 1 0 0 0 14 7.9648438 A 1 1 0 0 0 13 8.9648438 L 13 11 L 11 11 L 11 8.9648438 A 1 1 0 0 0 10 7.9648438 A 1 1 0 0 0 9 8.9648438 L 9 11 C 7.9072773 11 7 11.907277 7 13 L 7 15 C 7 16.645006 8.3549936 18 10 18 L 11 18 L 11 19 C 11 20.645006 12.354994 22 14 22 L 19 22 C 20.645006 22 22 20.645006 22 19 L 22 10 C 22.000212 9.1173279 21.609696 8.2787492 20.935547 7.7089844 L 13.941406 1.7128906 A 1.0001 1.0001 0 0 0 13.935547 1.7089844 C 13.379147 1.238707 12.690028 1.0039063 12 1.0039062 z M 9 13 L 15 13 L 15 15 C 15 15.564128 14.564128 16 14 16 L 12 16 L 10 16 C 9.4358718 16 9 15.564128 9 15 L 9 13 z "/>
</svg>
