<svg xmlns="http://www.w3.org/2000/svg" xmlns:svg="http://www.w3.org/2000/svg" width="24" height="24" viewBox="0 0 24 24" fill="currentColor" tags="home sweet home,abode,building,residence,healthy living,lifestyle" categories="home,buildings,medical">
  <path d="M 12 1.0019531 C 11.309971 1.0019531 10.620894 1.2387023 10.064453 1.7089844 A 1.0001 1.0001 0 0 0 10.058594 1.7128906 L 3.0644531 7.7089844 C 2.3903019 8.2787503 1.9997884 9.1173261 2 10 L 2 19 C 2 20.64501 3.3549904 22 5 22 L 19 22 C 20.64501 22 22 20.64501 22 19 L 22 10 C 22.000212 9.1173261 21.609698 8.2787503 20.935547 7.7089844 L 13.941406 1.7128906 A 1.0001 1.0001 0 0 0 13.935547 1.7089844 C 13.379147 1.2387061 12.690029 1.0019531 12 1.0019531 z M 12 2.9960938 C 12.227792 2.9960938 12.455584 3.0766376 12.644531 3.2363281 L 12.640625 3.2304688 L 19.640625 9.2304688 A 1.0001 1.0001 0 0 0 19.644531 9.2363281 C 19.869891 9.4267973 20.000071 9.7049266 20 10 L 20 19 C 20 19.564129 19.564129 20 19 20 L 5 20 C 4.4358706 20 4 19.564129 4 19 L 4 10 C 3.9999293 9.7049266 4.1301034 9.426798 4.3554688 9.2363281 A 1.0001 1.0001 0 0 0 4.359375 9.2304688 L 11.359375 3.2304688 L 11.355469 3.2363281 C 11.544416 3.0766376 11.772208 2.9960938 12 2.9960938 z M 10.363281 8.9472656 C 9.4990122 8.9266954 8.7066484 9.2682143 8.1015625 9.7988281 C 7.4964766 10.329442 7.0553581 11.070132 6.9628906 11.929688 C 6.8704236 12.789241 7.1801281 13.743279 7.8984375 14.492188 L 10.492188 17.314453 L 10.494141 17.316406 C 11.278689 18.217163 12.723265 18.217165 13.507812 17.316406 L 16.105469 14.490234 L 16.107422 14.486328 C 16.814151 13.737506 17.119334 12.789739 17.025391 11.935547 C 16.931213 11.080022 16.491164 10.341196 15.888672 9.8125 C 15.286179 9.2838038 14.497164 8.9450317 13.636719 8.9628906 C 13.073913 8.9745716 12.520353 9.2211713 12.003906 9.5722656 C 11.48603 9.2143115 10.930019 8.9607544 10.363281 8.9472656 z M 10.316406 10.947266 C 10.609016 10.954266 10.88695 11.046656 11.21875 11.460938 A 1.0001 1.0001 0 0 0 12.775391 11.466797 C 13.107083 11.058935 13.387678 10.966998 13.679688 10.960938 C 13.971697 10.954838 14.30587 11.084354 14.570312 11.316406 C 14.834755 11.548458 15.00518 11.863975 15.037109 12.154297 C 15.069039 12.444619 15.015609 12.733363 14.654297 13.115234 A 1.0001 1.0001 0 0 0 14.644531 13.125 L 12.017578 15.980469 A 1.0001 1.0001 0 0 0 12 16 A 1.0001 1.0001 0 0 0 11.982422 15.980469 L 9.3554688 13.123047 A 1.0001 1.0001 0 0 0 9.3417969 13.107422 C 8.9743896 12.724368 8.9198658 12.435545 8.9511719 12.144531 C 8.982478 11.853517 9.1537022 11.536189 9.4199219 11.302734 C 9.6861415 11.06928 10.023796 10.940301 10.316406 10.947266 z "/>
</svg>
