<?xml version="1.0" encoding="UTF-8" standalone="no"?>
<svg xmlns="http://www.w3.org/2000/svg" xmlns:svg="http://www.w3.org/2000/svg" width="24" height="24" viewBox="0 0 24 24" fill="currentColor" tags="home,living,building,residence,architecture" categories="account,buildings,home">
  <path d="M 12 1.0039062 C 11.309972 1.0039062 10.620894 1.2387032 10.064453 1.7089844 A 1.0001 1.0001 0 0 0 10.058594 1.7128906 L 3.0644531 7.7089844 C 2.3903032 8.2787492 1.9997884 9.1173279 2 10 L 2 19 C 2 20.645006 3.3549936 22 5 22 L 9 22 L 15 22 L 19 22 C 20.645006 22 22 20.645006 22 19 L 22 10 C 22.000212 9.1173279 21.609696 8.2787492 20.935547 7.7089844 L 13.941406 1.7128906 A 1.0001 1.0001 0 0 0 13.935547 1.7089844 C 13.379147 1.238707 12.690028 1.0039063 12 1.0039062 z M 12 2.9960938 C 12.227792 2.9960938 12.455585 3.0766379 12.644531 3.2363281 L 19.640625 9.2304688 A 1.0001 1.0001 0 0 0 19.644531 9.2363281 C 19.869902 9.4267969 20.000071 9.7049272 20 10 L 20 19 C 20 19.564128 19.564128 20 19 20 L 16 20 L 16 13 C 16 11.907277 15.092723 11 14 11 L 10 11 C 8.9072773 11 8 11.907277 8 13 L 8 20 L 5 20 C 4.4358718 20 4 19.564128 4 19 L 4 10 C 3.9999293 9.7049272 4.1301039 9.4267976 4.3554688 9.2363281 A 1.0001 1.0001 0 0 0 4.359375 9.2304688 L 11.355469 3.2363281 C 11.544415 3.0766379 11.772208 2.9960938 12 2.9960938 z M 10 13 L 14 13 L 14 20 L 10 20 L 10 13 z "/>
</svg>
