<?xml version="1.0" encoding="UTF-8" standalone="no"?>
<svg xmlns="http://www.w3.org/2000/svg" xmlns:svg="http://www.w3.org/2000/svg" width="24" height="24" viewBox="0 0 24 24" fill="currentColor" tags="gelato,food" categories="food-beverage">
  <path d="M 12 1 C 10.527778 1 9.0421194 1.4853474 7.8984375 2.5019531 C 6.9311679 3.361748 6.2442516 4.6153662 6.0546875 6.140625 C 5.5329304 6.3010713 5.0817463 6.5899201 4.7519531 6.9609375 C 4.2353472 7.5421194 4 8.2777779 4 9 C 4 9.7222221 4.2353472 10.457881 4.7519531 11.039062 C 5.1297509 11.464085 5.66715 11.780096 6.2871094 11.919922 L 10.150391 21.716797 A 1.0001 1.0001 0 0 0 10.160156 21.742188 C 10.489581 22.51549 11.264703 22.958984 12 22.958984 C 12.735297 22.958984 13.510419 22.51549 13.839844 21.742188 A 1.0001 1.0001 0 0 0 13.849609 21.716797 L 17.712891 11.919922 C 18.33285 11.780096 18.870249 11.464085 19.248047 11.039062 C 19.764653 10.45788 20 9.7222221 20 9 C 20 8.2777779 19.764653 7.5421194 19.248047 6.9609375 C 18.918254 6.5899201 18.46707 6.3010713 17.945312 6.140625 C 17.755748 4.6153662 17.068832 3.361748 16.101562 2.5019531 C 14.957881 1.4853474 13.472222 1 12 1 z M 12 3 C 13.027778 3 14.042119 3.3479866 14.773438 3.9980469 C 15.504755 4.6481071 16 5.5833342 16 7 A 1 1 0 0 0 17 8 C 17.416666 8 17.601893 8.1202444 17.751953 8.2890625 C 17.902014 8.4578806 18 8.7222221 18 9 C 18 9.2777779 17.902014 9.5421194 17.751953 9.7109375 C 17.601893 9.8797556 17.416666 10 17 10 L 7 10 C 6.5833337 10 6.3981073 9.8797556 6.2480469 9.7109375 C 6.0979864 9.5421194 6 9.2777779 6 9 C 6 8.7222221 6.0979864 8.4578806 6.2480469 8.2890625 C 6.3981073 8.1202444 6.5833337 8 7 8 A 1 1 0 0 0 7.3085938 7.9511719 A 1 1 0 0 0 8 7 C 8 5.5833342 8.4952444 4.6481071 9.2265625 3.9980469 C 9.9578806 3.3479866 10.972222 3 12 3 z M 8.46875 12 L 15.53125 12 L 12 20.957031 L 8.46875 12 z "/>
</svg>
