<?xml version="1.0" encoding="UTF-8" standalone="no"?>
<svg xmlns="http://www.w3.org/2000/svg" xmlns:svg="http://www.w3.org/2000/svg" width="24" height="24" viewBox="0 0 24 24" fill="currentColor" tags="gelato,food,dessert,dish,restaurant,course,meal" categories="food-beverage">
  <path d="M 12 2 C 10.902778 2 9.7921194 2.3603473 8.9296875 3.1269531 C 8.2570523 3.7248508 7.7645284 4.5800123 7.5800781 5.5996094 C 5.5370083 6.0375665 4.1353204 7.9169189 4.1191406 10 L 4 10 A 1.0001 1.0001 0 0 0 3 11 C 3 12.957115 3.9182739 14.771198 5.5058594 16.025391 C 6.9030863 17.1292 8.8626297 17.727368 11.123047 17.876953 A 1 1 0 0 0 11 18 L 11 20 L 8 20 A 1 1 0 0 0 7 21 A 1 1 0 0 0 8 22 L 12 22 L 16 22 A 1 1 0 0 0 17 21 A 1 1 0 0 0 16 20 L 13 20 L 13 18 A 1 1 0 0 0 12.876953 17.876953 C 15.13737 17.727368 17.096914 17.1292 18.494141 16.025391 C 20.081726 14.771198 21 12.957115 21 11 A 1.0001 1.0001 0 0 0 20 10 L 19.994141 10 C 19.984909 7.9131648 18.488446 6.038299 16.419922 5.5996094 C 16.235575 4.5796914 15.743107 3.7249932 15.070312 3.1269531 C 14.20788 2.3603473 13.097222 2 12 2 z M 12 4 C 12.652778 4 13.292119 4.2229865 13.742188 4.6230469 C 14.030866 4.8796499 14.260751 5.2023948 14.388672 5.6425781 C 13.400249 5.895777 12.553424 6.4799369 11.953125 7.2539062 C 11.381774 6.486057 10.572947 5.9046893 9.609375 5.6484375 C 9.7369695 5.2054045 9.9679181 4.8807304 10.257812 4.6230469 C 10.70788 4.2229865 11.347222 4 12 4 z M 8.4941406 7.5039062 C 9.937826 7.5039062 10.941588 8.6571357 10.933594 10 L 6.0566406 10 C 6.048622 8.657116 7.0504389 7.5039062 8.4941406 7.5039062 z M 15.494141 7.5039062 C 16.94174 7.5039062 18.01387 8.6526712 18 10 L 12.988281 10 C 12.974411 8.6526712 14.046541 7.5039063 15.494141 7.5039062 z M 5.2304688 12 L 18.769531 12 C 18.54308 12.924891 18.110922 13.781532 17.255859 14.457031 C 16.093445 15.375339 14.320667 16 12 16 C 9.6793333 16 7.9065552 15.375339 6.7441406 14.457031 C 5.8890783 13.781532 5.4569198 12.924891 5.2304688 12 z "/>
</svg>
