<?xml version="1.0" encoding="UTF-8" standalone="no"?>
<svg xmlns="http://www.w3.org/2000/svg" xmlns:svg="http://www.w3.org/2000/svg" width="24" height="24" viewBox="0 0 24 24" fill="currentColor" tags="gelato,food" categories="food-beverage">
  <path d="M 12 1 C 10.527778 1 9.0421194 1.4853474 7.8984375 2.5019531 C 6.930653 3.3622056 6.2418673 4.6142632 6.0527344 6.140625 C 5.5320703 6.3012297 5.0812021 6.5905322 4.7519531 6.9609375 C 4.2353472 7.5421194 4 8.2777779 4 9 C 4 9.7222221 4.2353472 10.457881 4.7519531 11.039062 C 5.130141 11.464523 5.6682922 11.782271 6.2890625 11.921875 L 10.150391 21.716797 A 1.0001 1.0001 0 0 0 10.160156 21.742188 C 10.489581 22.51549 11.264703 22.958984 12 22.958984 C 12.735297 22.958984 13.510419 22.51549 13.839844 21.742188 A 1.0001 1.0001 0 0 0 13.849609 21.716797 L 17.710938 11.921875 C 18.331675 11.782262 18.869875 11.464506 19.248047 11.039062 C 19.764653 10.45788 20 9.7222221 20 9 C 20 8.2777779 19.764653 7.5421194 19.248047 6.9609375 C 18.918798 6.5905322 18.46793 6.3012297 17.947266 6.140625 C 17.758133 4.6142632 17.069347 3.3622056 16.101562 2.5019531 C 14.957881 1.4853474 13.472222 1 12 1 z M 12 3 C 13.027778 3 14.042119 3.3479866 14.773438 3.9980469 C 15.504755 4.6481071 16 5.5833342 16 7 A 1 1 0 0 0 17 8 C 17.416666 8 17.601893 8.1202444 17.751953 8.2890625 C 17.902014 8.4578806 18 8.7222221 18 9 C 18 9.2777779 17.902014 9.5421194 17.751953 9.7109375 C 17.601893 9.8797556 17.416666 10 17 10 L 16.984375 10 L 7.015625 10 L 7 10 C 6.5833337 10 6.3981073 9.8797556 6.2480469 9.7109375 C 6.0979864 9.5421194 6 9.2777779 6 9 C 6 8.7222221 6.0979864 8.4578806 6.2480469 8.2890625 C 6.3981073 8.1202444 6.5833337 8 7 8 A 1 1 0 0 0 7.1308594 7.9921875 A 1 1 0 0 0 8 7 C 8 5.5833342 8.4952444 4.6481071 9.2265625 3.9980469 C 9.9578806 3.3479866 10.972222 3 12 3 z M 8.46875 12 L 15.53125 12 L 12 20.957031 L 8.46875 12 z "/>
</svg>
