<?xml version="1.0" encoding="UTF-8" standalone="no"?>
<svg xmlns="http://www.w3.org/2000/svg" xmlns:svg="http://www.w3.org/2000/svg" width="24" height="24" viewBox="0 0 24 24" fill="currentColor" tags="gelato,food,dessert,dish,restaurant,course,meal" categories="food-beverage">
  
  <path d="M 12 2 C 10.90278 2 9.7921176 2.3603489 8.9296875 3.1269531 C 8.2572318 3.7246913 7.7665961 4.5803706 7.5820312 5.5996094 C 7.5820114 5.5997192 7.580098 5.5994995 7.5800781 5.5996094 C 5.5361849 6.0369588 4.1353244 7.9164054 4.1191406 10 L 4 10 A 1.0001 1.0001 0 0 0 3 11 C 3 12.957111 3.9182771 14.7712 5.5058594 16.025391 C 6.8882396 17.117471 8.8260214 17.707847 11.054688 17.867188 A 1 1 0 0 0 11 18 L 11 20 L 8 20 A 1 1 0 0 0 7 21 A 1 1 0 0 0 8 22 L 12 22 L 16 22 A 1 1 0 0 0 17 21 A 1 1 0 0 0 16 20 L 13 20 L 13 18 A 1 1 0 0 0 12.972656 17.863281 C 15.188662 17.700114 17.117698 17.11278 18.494141 16.025391 C 20.081718 14.7712 21 12.957111 21 11 A 1.0001 1.0001 0 0 0 20 10 L 19.994141 10 C 19.984988 7.9130338 18.488601 6.040186 16.419922 5.6015625 C 16.235671 4.5813463 15.743256 3.7251247 15.070312 3.1269531 C 14.207881 2.3603489 13.09722 2 12 2 z M 12 4 C 12.652776 4 13.29212 4.2229873 13.742188 4.6230469 C 14.030764 4.8795594 14.260724 5.2026321 14.388672 5.6425781 C 13.399847 5.8960645 12.553351 6.4812406 11.953125 7.2558594 C 11.382065 6.4877155 10.572807 5.9109671 9.609375 5.6542969 C 9.7366465 5.208508 9.9667471 4.8817713 10.257812 4.6230469 C 10.707879 4.2229873 11.347224 4 12 4 z M 8.4941406 7.5039062 C 9.9378232 7.5039062 10.941588 8.6571384 10.933594 10 L 6.0566406 10 C 6.048622 8.6571186 7.0504418 7.5039062 8.4941406 7.5039062 z M 15.494141 7.5039062 C 16.941618 7.5039062 18.011737 8.6528163 17.998047 10 L 12.990234 10 C 12.976544 8.6528163 14.046662 7.5039063 15.494141 7.5039062 z M 5.2304688 12 L 18.769531 12 C 18.54308 12.924889 18.110921 13.781534 17.255859 14.457031 C 16.093448 15.375337 14.320662 16 12 16 C 9.679338 16 7.9065529 15.375337 6.7441406 14.457031 C 5.88908 13.781534 5.4569194 12.924889 5.2304688 12 z "/>
</svg>
