<?xml version="1.0" encoding="UTF-8" standalone="no"?>
<svg xmlns="http://www.w3.org/2000/svg" xmlns:svg="http://www.w3.org/2000/svg" width="24" height="24" viewBox="0 0 24 24" fill="currentColor" tags="gelato,food,dessert,dish,restaurant,course,meal" categories="food-beverage">
  <path d="M 12 2 C 10.902778 2 9.7921194 2.3603473 8.9296875 3.1269531 C 8.2572305 3.7246924 7.7665961 4.5803694 7.5820312 5.5996094 C 7.5820114 5.5997192 7.580098 5.5994995 7.5800781 5.5996094 C 5.5361816 6.0369588 4.1353245 7.9164013 4.1191406 10 L 4 10 A 1.0001 1.0001 0 0 0 3 11 C 3 12.957115 3.9182739 14.771198 5.5058594 16.025391 C 6.8882424 17.117473 8.826017 17.707847 11.054688 17.867188 A 1 1 0 0 0 11 18 L 11 20 L 8 20 A 1 1 0 0 0 7 21 A 1 1 0 0 0 8 22 L 12 22 L 16 22 A 1 1 0 0 0 17 21 A 1 1 0 0 0 16 20 L 13 20 L 13 18 A 1 1 0 0 0 12.972656 17.863281 C 15.188666 17.700114 17.117695 17.112783 18.494141 16.025391 C 20.081722 14.771198 21 12.957115 21 11 A 1.0001 1.0001 0 0 0 20 10 L 19.994141 10 C 19.984988 7.9130307 18.488604 6.040186 16.419922 5.6015625 C 16.235671 4.5813452 15.743256 3.7251259 15.070312 3.1269531 C 14.20788 2.3603473 13.097222 2 12 2 z M 12 4 C 12.652778 4 13.292119 4.2229865 13.742188 4.6230469 C 14.030765 4.8795599 14.260724 5.2026318 14.388672 5.6425781 C 13.399846 5.8960646 12.553351 6.4812401 11.953125 7.2558594 C 11.382065 6.4877148 10.572808 5.9109671 9.609375 5.6542969 C 9.7366465 5.2085077 9.9667465 4.8817718 10.257812 4.6230469 C 10.70788 4.2229865 11.347222 4 12 4 z M 8.4941406 7.5039062 C 9.937826 7.5039062 10.941588 8.6571357 10.933594 10 L 6.0566406 10 C 6.048622 8.657116 7.0504389 7.5039062 8.4941406 7.5039062 z M 15.494141 7.5039062 C 16.941621 7.5039062 18.011738 8.6528144 17.998047 10 L 12.990234 10 C 12.976544 8.6528144 14.046659 7.5039063 15.494141 7.5039062 z M 5.2304688 12 L 18.769531 12 C 18.54308 12.924891 18.110922 13.781532 17.255859 14.457031 C 16.093445 15.375339 14.320667 16 12 16 C 9.6793333 16 7.9065552 15.375339 6.7441406 14.457031 C 5.8890783 13.781532 5.4569198 12.924891 5.2304688 12 z "/>
</svg>
