<?xml version="1.0" encoding="UTF-8" standalone="no"?>
<svg xmlns="http://www.w3.org/2000/svg" xmlns:svg="http://www.w3.org/2000/svg" width="24" height="24" viewBox="0 0 24 24" fill="currentColor" tags="gelato,food" categories="food-beverage">
  
  <path d="M 12 1 C 10.52778 1 9.0421172 1.4853494 7.8984375 2.5019531 C 6.9311698 3.3617463 6.2442516 4.6153683 6.0546875 6.140625 C 5.5329308 6.3010712 5.0817456 6.5899208 4.7519531 6.9609375 C 4.2353482 7.5421182 4 8.2777793 4 9 C 4 9.7222207 4.2353482 10.457881 4.7519531 11.039062 C 5.1297502 11.464084 5.6671506 11.780096 6.2871094 11.919922 L 10.150391 21.716797 A 1.0001 1.0001 0 0 0 10.160156 21.742188 C 10.489581 22.515488 11.264705 22.958984 12 22.958984 C 12.735295 22.958984 13.510419 22.515488 13.839844 21.742188 A 1.0001 1.0001 0 0 0 13.849609 21.716797 L 17.712891 11.919922 C 18.332849 11.780096 18.870249 11.464084 19.248047 11.039062 C 19.764651 10.457881 20 9.7222207 20 9 C 20 8.2777793 19.764651 7.5421182 19.248047 6.9609375 C 18.918254 6.5899208 18.467069 6.3010712 17.945312 6.140625 C 17.755748 4.6153683 17.06883 3.3617463 16.101562 2.5019531 C 14.957884 1.4853494 13.47222 1 12 1 z M 12 3 C 13.027776 3 14.04212 3.3479879 14.773438 3.9980469 C 15.504754 4.6481058 16 5.583337 16 7 A 1 1 0 0 0 17 8 C 17.416666 8 17.601893 8.1202448 17.751953 8.2890625 C 17.902013 8.4578802 18 8.7222227 18 9 C 18 9.2777773 17.902013 9.5421198 17.751953 9.7109375 C 17.601893 9.8797552 17.416666 10 17 10 L 7 10 C 6.5833345 10 6.398107 9.8797552 6.2480469 9.7109375 C 6.0979867 9.5421198 6 9.2777773 6 9 C 6 8.7222227 6.0979867 8.4578802 6.2480469 8.2890625 C 6.398107 8.1202448 6.5833345 8 7 8 A 1 1 0 0 0 7.3085938 7.9511719 A 1 1 0 0 0 8 7 C 8 5.583337 8.4952458 4.6481058 9.2265625 3.9980469 C 9.9578792 3.3479879 10.972224 3 12 3 z M 8.46875 12 L 15.53125 12 L 12 20.957031 L 8.46875 12 z "/>
</svg>
