<?xml version="1.0" encoding="UTF-8" standalone="no"?>
<svg xmlns="http://www.w3.org/2000/svg" xmlns:svg="http://www.w3.org/2000/svg" width="24" height="24" viewBox="0 0 24 24" fill="currentColor" tags="card,badge,identity,authentication,secure" categories="security,account">
  <path d="M 4 4 C 2.3553005 4 1 5.3553005 1 7 L 1 17 C 1 18.644699 2.3553005 20 4 20 L 20 20 C 21.644699 20 23 18.644699 23 17 L 23 7 C 23 5.3553005 21.644699 4 20 4 L 4 4 z M 4 6 L 20 6 C 20.571296 6 21 6.4287039 21 7 L 21 17 C 21 17.571296 20.571296 18 20 18 L 4 18 C 3.4287039 18 3 17.571296 3 17 L 3 7 C 3 6.4287039 3.4287039 6 4 6 z M 9 8 C 7.3549936 8 6 9.3549936 6 11 C 6 11.66979 6.2241787 12.291226 6.6015625 12.792969 C 5.999789 13.240206 5.5072742 13.869996 5.2265625 14.667969 A 1 1 0 0 0 5.8378906 15.943359 A 1 1 0 0 0 7.1132812 15.332031 C 7.4336863 14.421223 8.1501477 14.02243 8.9238281 13.998047 C 8.9490642 13.998688 8.9746219 14 9 14 C 9.0253781 14 9.0509358 13.998688 9.0761719 13.998047 C 9.8498522 14.02243 10.566313 14.421223 10.886719 15.332031 A 1 1 0 0 0 12.162109 15.943359 A 1 1 0 0 0 12.773438 14.667969 C 12.492726 13.869996 12.000211 13.240206 11.398438 12.792969 C 11.775821 12.291226 12 11.66979 12 11 C 12 9.3549936 10.645006 8 9 8 z M 16 9 A 1 1 0 0 0 15 10 A 1 1 0 0 0 16 11 L 18 11 A 1 1 0 0 0 19 10 A 1 1 0 0 0 18 9 L 16 9 z M 9 10 C 9.5641282 10 10 10.435872 10 11 C 10 11.544823 9.5926373 11.96763 9.0566406 11.996094 C 9.0378122 11.99582 9.0188159 11.996094 9 11.996094 C 8.9811841 11.996094 8.9621878 11.99582 8.9433594 11.996094 C 8.4073627 11.96763 8 11.544823 8 11 C 8 10.435872 8.4358718 10 9 10 z M 16 13 A 1 1 0 0 0 15 14 A 1 1 0 0 0 16 15 L 18 15 A 1 1 0 0 0 19 14 A 1 1 0 0 0 18 13 L 16 13 z "/>
</svg>
