<svg xmlns="http://www.w3.org/2000/svg" xmlns:svg="http://www.w3.org/2000/svg" width="24" height="24" viewBox="0 0 24 24" fill="currentColor" tags="id-card,id-card-lanyard,identity,employee,gate-pass,badge" categories="security,account">
  <path d="M 8.9296875 1.0019531 A 1 1 0 0 0 8.5527344 1.1054688 A 1 1 0 0 0 8.1054688 2.4472656 L 8.3828125 3 L 7 3 C 5.3549904 3 4 4.3549904 4 6 L 4 20 C 4 21.64501 5.3549904 23 7 23 L 17 23 C 18.64501 23 20 21.64501 20 20 L 20 6 C 20 4.3549904 18.64501 3 17 3 L 15.617188 3 L 15.894531 2.4472656 A 1 1 0 0 0 15.447266 1.1054688 A 1 1 0 0 0 14.683594 1.0507812 A 1 1 0 0 0 14.105469 1.5527344 L 13.105469 3.5527344 A 1.0001 1.0001 0 0 0 14 5 L 17 5 C 17.564129 5 18 5.4358706 18 6 L 18 20 C 18 20.339254 17.842116 20.632919 17.59375 20.8125 C 17.061422 19.408933 16.078191 18.373261 14.908203 17.738281 C 15.584294 17.020922 16 16.055699 16 15 C 16 12.802706 14.197294 11 12 11 C 9.8027056 11 8 12.802706 8 15 C 8 16.055585 8.4158353 17.020946 9.0917969 17.738281 C 7.9214534 18.373079 6.9369791 19.407353 6.4042969 20.810547 C 6.156784 20.630874 6 20.33858 6 20 L 6 6 C 6 5.4358706 6.4358706 5 7 5 L 9.3828125 5 L 10.384766 7.0058594 A 1 1 0 0 0 9.5 8 A 1 1 0 0 0 10.5 9 L 13.5 9 A 1 1 0 0 0 14.5 8 A 1 1 0 0 0 13.5 7 L 12.617188 7 L 9.8945312 1.5527344 A 1 1 0 0 0 9.3164062 1.0507812 A 1 1 0 0 0 8.9296875 1.0019531 z M 12 13 C 13.116414 13 14 13.883586 14 15 C 14 16.090293 13.15743 16.958016 12.078125 16.998047 C 12.052129 16.997707 12.025984 16.998047 12 16.998047 C 11.974016 16.998047 11.947871 16.997707 11.921875 16.998047 C 10.84257 16.958016 10 16.090293 10 15 C 10 13.883586 10.883586 13 12 13 z M 11.908203 18.998047 C 11.938881 18.998753 11.969162 19 12 19 C 12.030838 19 12.061119 18.998753 12.091797 18.998047 C 13.469935 19.024724 14.793112 19.651794 15.501953 21 L 8.4980469 21 C 9.2068881 19.651794 10.530065 19.024724 11.908203 18.998047 z "/>
</svg>
