<?xml version="1.0" encoding="UTF-8" standalone="no"?>
<svg xmlns="http://www.w3.org/2000/svg" xmlns:svg="http://www.w3.org/2000/svg" width="24" height="24" viewBox="0 0 24 24" fill="currentColor" tags="card,badge,identity,authentication,secure" categories="security,account">
  <path d="M 4 4 C 2.3552972 4 1 5.3552972 1 7 L 1 17 C 1 18.644703 2.3552972 20 4 20 L 20 20 C 21.644703 20 23 18.644703 23 17 L 23 7 C 23 5.3552972 21.644703 4 20 4 L 4 4 z M 4 6 L 20 6 C 20.571297 6 21 6.4287028 21 7 L 21 17 C 21 17.571297 20.571297 18 20 18 L 4 18 C 3.4287028 18 3 17.571297 3 17 L 3 7 C 3 6.4287028 3.4287028 6 4 6 z M 9 8 C 7.3549904 8 6 9.3549904 6 11 C 6 11.669792 6.2241785 12.291226 6.6015625 12.792969 C 5.9997887 13.240206 5.5072747 13.869994 5.2265625 14.667969 A 1 1 0 0 0 5.8378906 15.943359 A 1 1 0 0 0 7.1132812 15.332031 C 7.433687 14.421221 8.1501463 14.02243 8.9238281 13.998047 C 8.9490643 13.998688 8.9746219 14 9 14 C 9.0253781 14 9.0509357 13.998688 9.0761719 13.998047 C 9.8498537 14.02243 10.566313 14.421221 10.886719 15.332031 A 1 1 0 0 0 12.162109 15.943359 A 1 1 0 0 0 12.773438 14.667969 C 12.492725 13.869994 12.000211 13.240206 11.398438 12.792969 C 11.775821 12.291226 12 11.669792 12 11 C 12 9.3549904 10.64501 8 9 8 z M 16 9 A 1 1 0 0 0 15 10 A 1 1 0 0 0 16 11 L 18 11 A 1 1 0 0 0 19 10 A 1 1 0 0 0 18 9 L 16 9 z M 9 10 C 9.5641294 10 10 10.435871 10 11 C 10 11.544823 9.5926384 11.96763 9.0566406 11.996094 C 9.0378122 11.99582 9.0188159 11.996094 9 11.996094 C 8.9811841 11.996094 8.9621878 11.99582 8.9433594 11.996094 C 8.4073616 11.96763 8 11.544823 8 11 C 8 10.435871 8.4358706 10 9 10 z M 16 13 A 1 1 0 0 0 15 14 A 1 1 0 0 0 16 15 L 18 15 A 1 1 0 0 0 19 14 A 1 1 0 0 0 18 13 L 16 13 z "/>
</svg>
