<svg xmlns="http://www.w3.org/2000/svg" xmlns:svg="http://www.w3.org/2000/svg" width="24" height="24" viewBox="0 0 24 24" fill="currentColor" tags="card,badge,identity,authentication,secure" categories="security,account">
  <path d="M 4 4 C 2.3552972 4 1 5.3552972 1 7 L 1 17 C 1 18.644703 2.3552972 20 4 20 L 20 20 C 21.644703 20 23 18.644703 23 17 L 23 7 C 23 5.3552972 21.644703 4 20 4 L 4 4 z M 4 6 L 20 6 C 20.571297 6 21 6.4287028 21 7 L 21 17 C 21 17.571297 20.571297 18 20 18 L 4 18 C 3.4287028 18 3 17.571297 3 17 L 3 7 C 3 6.4287028 3.4287028 6 4 6 z M 9 8 C 7.3549904 8 6 9.3549904 6 11 C 6 11.669584 6.2243897 12.291307 6.6015625 12.792969 C 5.9996965 13.240215 5.5073063 13.869904 5.2265625 14.667969 A 1 1 0 0 0 5.8378906 15.943359 A 1 1 0 0 0 7.1132812 15.332031 C 7.4300782 14.43148 8.134784 14.030529 8.8984375 13.998047 C 8.9323618 13.999208 8.9658157 14 9 14 C 9.0341843 14 9.0676382 13.999208 9.1015625 13.998047 C 9.865216 14.030529 10.569922 14.43148 10.886719 15.332031 A 1 1 0 0 0 12.162109 15.943359 A 1 1 0 0 0 12.773438 14.667969 C 12.492694 13.869904 12.000304 13.240215 11.398438 12.792969 C 11.77561 12.291307 12 11.669584 12 11 C 12 9.3549904 10.64501 8 9 8 z M 16 9 A 1 1 0 0 0 15 10 A 1 1 0 0 0 16 11 L 18 11 A 1 1 0 0 0 19 10 A 1 1 0 0 0 18 9 L 16 9 z M 9 10 C 9.5641294 10 10 10.435871 10 11 C 10 11.53671 9.6061887 11.956475 9.0820312 11.996094 C 9.054916 11.995526 9.027091 11.996094 9 11.996094 C 8.972909 11.996094 8.945084 11.995526 8.9179688 11.996094 C 8.3938113 11.956475 8 11.53671 8 11 C 8 10.435871 8.4358706 10 9 10 z M 16 13 A 1 1 0 0 0 15 14 A 1 1 0 0 0 16 15 L 18 15 A 1 1 0 0 0 19 14 A 1 1 0 0 0 18 13 L 16 13 z "/>
</svg>
