<?xml version="1.0" encoding="UTF-8" standalone="no"?>
<svg xmlns="http://www.w3.org/2000/svg" xmlns:svg="http://www.w3.org/2000/svg" width="24" height="24" viewBox="0 0 24 24" fill="currentColor" tags="picture,gif,photo" categories="photography,text,multimedia,files">
  <path d="M 5 2 C 3.3549904 2 2 3.3549904 2 5 L 2 19 C 2 20.64501 3.3549904 22 5 22 L 11 22 A 1 1 0 0 0 12 21 A 1 1 0 0 0 11 20 L 8.4140625 20 L 11.707031 16.707031 A 1 1 0 0 0 11.707031 15.292969 A 1 1 0 0 0 11 15 A 1 1 0 0 0 10.292969 15.292969 L 5.5859375 20 L 5 20 C 4.4358706 20 4 19.564129 4 19 L 4 5 C 4 4.4358706 4.4358706 4 5 4 L 19 4 C 19.564129 4 20 4.4358706 20 5 L 20 11.5 A 1 1 0 0 0 21 12.5 A 1 1 0 0 0 22 11.5 L 22 5 C 22 3.3549904 20.64501 2 19 2 L 5 2 z M 9 6 C 7.3549904 6 6 7.3549904 6 9 C 6 10.64501 7.3549904 12 9 12 C 10.64501 12 12 10.64501 12 9 C 12 7.3549904 10.64501 6 9 6 z M 9 8 C 9.5641294 8 10 8.4358706 10 9 C 10 9.5641294 9.5641294 10 9 10 C 8.4358706 10 8 9.5641294 8 9 C 8 8.4358706 8.4358706 8 9 8 z M 15.533203 11.896484 C 15.273217 11.899858 15.016258 11.97175 14.789062 12.097656 C 14.33467 12.349502 13.999999 12.817845 14 13.380859 L 14 21.576172 C 13.999997 22.702201 15.340052 23.444452 16.294922 22.847656 L 22.173828 19.173828 C 23.392563 18.412124 23.392563 16.542954 22.173828 15.78125 L 16.294922 12.107422 C 16.056204 11.958223 15.79319 11.893111 15.533203 11.896484 z M 16 14.283203 L 21.113281 17.478516 L 16 20.673828 L 16 14.283203 z "/>
</svg>
