<?xml version="1.0" encoding="UTF-8" standalone="no"?>
<svg xmlns="http://www.w3.org/2000/svg" xmlns:svg="http://www.w3.org/2000/svg" width="24" height="24" viewBox="0 0 24 24" fill="currentColor" tags="picture,photo,multiple,copy,gallery,album,collection,slideshow,showcase" categories="photography,text,multimedia,files">
  <path d="M 8 1 C 6.3552972 1 5 2.3552972 5 4 L 5 16 C 5 17.644703 6.3552972 19 8 19 L 11 19 L 20 19 C 21.644703 19 23 17.644703 23 16 L 23 13 L 23 4 C 23 2.3552972 21.644703 1 20 1 L 8 1 z M 8 3 L 20 3 C 20.571297 3 21 3.4287028 21 4 L 21 10.646484 C 20.407334 10.218043 19.703957 10.003906 19 10.003906 C 18.125292 10.003906 17.251481 10.334555 16.589844 10.996094 L 10.585938 17 L 8 17 C 7.4287028 17 7 16.571297 7 16 L 7 4 C 7 3.4287028 7.4287028 3 8 3 z M 2 5 A 1 1 0 0 0 1 6 L 1 20 C 1 21.64501 2.3549904 23 4 23 L 18 23 A 1 1 0 0 0 19 22 A 1 1 0 0 0 18 21 L 4 21 C 3.4358706 21 3 20.564129 3 20 L 3 6 A 1 1 0 0 0 2 5 z M 12 5 C 10.35499 5 9 6.3549904 9 8 C 9 9.6450096 10.35499 11 12 11 C 13.64501 11 15 9.6450096 15 8 C 15 6.3549904 13.64501 5 12 5 z M 12 7 C 12.564129 7 13 7.4358706 13 8 C 13 8.5641294 12.564129 9 12 9 C 11.435871 9 11 8.5641294 11 8 C 11 7.4358706 11.435871 7 12 7 z M 19 11.992188 C 19.358298 11.992188 19.716596 12.132654 19.996094 12.412109 L 21 13.414062 L 21 16 C 21 16.571297 20.571297 17 20 17 L 13.414062 17 L 18.003906 12.412109 C 18.283404 12.132654 18.641702 11.992188 19 11.992188 z "/>
</svg>
