<?xml version="1.0" encoding="UTF-8" standalone="no"?>
<svg xmlns="http://www.w3.org/2000/svg" xmlns:svg="http://www.w3.org/2000/svg" width="24" height="24" viewBox="0 0 24 24" fill="currentColor" tags="remove,delete" categories="photography,multimedia,files">
  <path d="M 5 2 C 3.3549936 2 2 3.3549936 2 5 L 2 19 C 2 20.645006 3.3549936 22 5 22 L 6 22 L 19 22 C 20.645006 22 22 20.645006 22 19 L 22 15 L 22 9 A 1 1 0 0 0 21 8 A 1 1 0 0 0 20 9 L 20 12.585938 L 18.621094 11.207031 C 18.039529 10.625643 17.269716 10.333984 16.5 10.333984 C 15.730284 10.333984 14.960471 10.625643 14.378906 11.207031 L 5.5859375 20 L 5 20 C 4.4358718 20 4 19.564128 4 19 L 4 5 C 4 4.4358718 4.4358718 4 5 4 L 12 4 A 1 1 0 0 0 13 3 A 1 1 0 0 0 12 2 L 5 2 z M 16 4 A 1 1 0 0 0 15 5 A 1 1 0 0 0 16 6 L 22 6 A 1 1 0 0 0 23 5 A 1 1 0 0 0 22 4 L 16 4 z M 9 6 C 7.3549936 6 6 7.3549936 6 9 C 6 10.645006 7.3549936 12 9 12 C 10.645006 12 12 10.645006 12 9 C 12 7.3549936 10.645006 6 9 6 z M 9 8 C 9.5641282 8 10 8.4358718 10 9 C 10 9.5641282 9.5641282 10 9 10 C 8.4358718 10 8 9.5641282 8 9 C 8 8.4358718 8.4358718 8 9 8 z M 16.5 12.322266 C 16.753798 12.322266 17.007597 12.42172 17.207031 12.621094 L 20 15.414062 L 20 19 C 20 19.564128 19.564128 20 19 20 L 8.4140625 20 L 15.792969 12.621094 C 15.992403 12.42172 16.246202 12.322266 16.5 12.322266 z "/>
</svg>
