<?xml version="1.0" encoding="UTF-8" standalone="no"?>
<svg xmlns="http://www.w3.org/2000/svg" xmlns:svg="http://www.w3.org/2000/svg" width="24" height="24" viewBox="0 0 24 24" fill="currentColor" tags="picture,gif,photo" categories="photography,text,multimedia,files">
  <path d="M 5 2 C 3.3549904 2 2 3.3549904 2 5 L 2 19 C 2 20.64501 3.3549904 22 5 22 L 11 22 A 1 1 0 0 0 12 21 A 1 1 0 0 0 11 20 L 8.4140625 20 L 11.707031 16.707031 A 1 1 0 0 0 11.707031 15.292969 A 1 1 0 0 0 11 15 A 1 1 0 0 0 10.292969 15.292969 L 5.5859375 20 L 5 20 C 4.4358706 20 4 19.564129 4 19 L 4 5 C 4 4.4358706 4.4358706 4 5 4 L 19 4 C 19.564129 4 20 4.4358706 20 5 L 20 12.169922 A 1 1 0 0 0 21 13.169922 A 1 1 0 0 0 22 12.169922 L 22 5 C 22 3.3549904 20.64501 2 19 2 L 5 2 z M 9 6 C 7.3549904 6 6 7.3549904 6 9 C 6 10.64501 7.3549904 12 9 12 C 10.64501 12 12 10.64501 12 9 C 12 7.3549904 10.64501 6 9 6 z M 9 8 C 9.5641294 8 10 8.4358706 10 9 C 10 9.5641294 9.5641294 10 9 10 C 8.4358706 10 8 9.5641294 8 9 C 8 8.4358706 8.4358706 8 9 8 z M 16.013672 13.015625 C 14.977625 13.035368 13.996585 13.873957 14 15.005859 L 14 20.996094 C 13.9971 22.503133 15.740046 23.490944 17.03125 22.712891 L 22.025391 19.71875 C 23.288045 18.966191 23.288045 17.033809 22.025391 16.28125 L 17.033203 13.287109 L 17.03125 13.287109 C 16.708809 13.092786 16.358403 13.009056 16.013672 13.015625 z M 16 15 A 1.0001 1.0001 0 0 0 16.001953 15.001953 L 21 17.998047 A 1.0001 1.0001 0 0 0 21.001953 18 A 1.0001 1.0001 0 0 0 21 18.001953 L 16.001953 20.998047 A 1.0001 1.0001 0 0 0 16 21 A 1.0001 1.0001 0 0 0 16 20.996094 L 16 15.003906 A 1.0001 1.0001 0 0 0 16 15 z "/>
</svg>
