<svg xmlns="http://www.w3.org/2000/svg" xmlns:svg="http://www.w3.org/2000/svg" width="24" height="24" viewBox="0 0 24 24" fill="currentColor" tags="picture,photo,multiple,copy,gallery,album,collection,slideshow,showcase" categories="photography,text,multimedia,files">
  <path d="m 19,8 c -0.876639,0 -1.75334,0.3338374 -2.414063,1 l -6.292968,6.292969 a 1,1 0 0 0 0,1.414062 1,1 0 0 0 1.414062,0 l 6.296875,-6.296875 a 1.0001,1.0001 0 0 0 0.002,-0.002 c 0.556205,-0.5607839 1.432077,-0.5607839 1.988282,0 a 1.0001,1.0001 0 0 0 0.002,0.002 l 1.296875,1.296875 a 1,1 0 0 0 1.414062,0 1,1 0 0 0 0,-1.414062 L 21.414062,9 C 20.75334,8.3338374 19.876639,8 19,8 Z"/>
  <path d="M 4,7 C 2.3549904,7 1,8.3549904 1,10 v 10 c 0,1.64501 1.3549904,3 3,3 h 10 c 1.64501,0 3,-1.35499 3,-3 a 1,1 0 0 0 -1,-1 1,1 0 0 0 -1,1 c 0,0.564129 -0.435871,1 -1,1 H 4 C 3.4358706,21 3,20.564129 3,20 V 10 C 3,9.4358706 3.4358706,9 4,9 A 1,1 0 0 0 5,8 1,1 0 0 0 4,7 Z"/>
  <g id="circle2" style="opacity:1" stroke-width="0">
    <path d="M 14,7 A 1,1 0 0 1 13,8 1,1 0 0 1 12,7 1,1 0 0 1 13,6 1,1 0 0 1 14,7 Z"/>
    <path d="m 13,5 c -1.092725,0 -2,0.9072751 -2,2 0,1.0927249 0.907275,2 2,2 1.092725,0 2,-0.9072751 2,-2 0,-1.0927249 -0.907275,-2 -2,-2 z"/>
  </g>
  <path d="M 10,1 C 8.3552972,1 7,2.3552972 7,4 v 10 c 0,1.644703 1.3552972,3 3,3 h 10 c 1.644703,0 3,-1.355297 3,-3 V 4 C 23,2.3552972 21.644703,1 20,1 Z m 0,2 h 10 c 0.571297,0 1,0.4287028 1,1 v 10 c 0,0.571297 -0.428703,1 -1,1 H 10 C 9.4287028,15 9,14.571297 9,14 V 4 C 9,3.4287028 9.4287028,3 10,3 Z"/>
</svg>
