<?xml version="1.0" encoding="UTF-8" standalone="no"?>
<svg xmlns="http://www.w3.org/2000/svg" xmlns:svg="http://www.w3.org/2000/svg" width="24" height="24" viewBox="0 0 24 24" fill="currentColor" tags="picture,photo,multiple,copy,gallery,album,collection,slideshow,showcase" categories="photography,text,multimedia,files">
  <path d="M 8 1 C 6.3553005 1 5 2.3553005 5 4 L 5 16 C 5 17.644699 6.3553005 19 8 19 L 20 19 C 21.644699 19 23 17.644699 23 16 L 23 13 L 23 4 C 23 2.3553005 21.644699 1 20 1 L 8 1 z M 8 3 L 20 3 C 20.571296 3 21 3.4287039 21 4 L 21 10.646484 C 20.407359 10.218101 19.703909 10.003906 19 10.003906 C 18.125294 10.003906 17.251479 10.334556 16.589844 10.996094 L 10.585938 17 L 8 17 C 7.4287039 17 7 16.571296 7 16 L 7 4 C 7 3.4287039 7.4287039 3 8 3 z M 2 5 A 1 1 0 0 0 1 6 L 1 20 C 1 21.645006 2.3549936 23 4 23 L 18 23 A 1 1 0 0 0 19 22 A 1 1 0 0 0 18 21 L 4 21 C 3.4358718 21 3 20.564128 3 20 L 3 6 A 1 1 0 0 0 2 5 z M 12 5 C 10.354994 5 9 6.3549936 9 8 C 9 9.6450064 10.354994 11 12 11 C 13.645006 11 15 9.6450064 15 8 C 15 6.3549936 13.645006 5 12 5 z M 12 7 C 12.564128 7 13 7.4358718 13 8 C 13 8.5641282 12.564128 9 12 9 C 11.435872 9 11 8.5641282 11 8 C 11 7.4358718 11.435872 7 12 7 z M 19 11.992188 C 19.358298 11.992188 19.716597 12.132655 19.996094 12.412109 L 21 13.414062 L 21 16 C 21 16.571296 20.571296 17 20 17 L 13.414062 17 L 18.003906 12.412109 C 18.283403 12.132655 18.641702 11.992188 19 11.992188 z "/>
</svg>
