<svg xmlns="http://www.w3.org/2000/svg" xmlns:svg="http://www.w3.org/2000/svg" width="24" height="24" viewBox="0 0 24 24" fill="currentColor" tags="picture,photo,download,save,export" categories="photography,text,multimedia,files">
  <path d="M 5 2 C 3.3549904 2 2 3.3549904 2 5 L 2 19 C 2 20.64501 3.3549904 22 5 22 L 6 22 L 10.300781 22 A 1 1 0 0 0 11.300781 21 A 1 1 0 0 0 10.300781 20 L 8.4140625 20 L 15.792969 12.621094 C 16.188846 12.225296 16.799423 12.221429 17.199219 12.613281 L 20.292969 15.707031 A 1.0001 1.0001 0 0 0 22 15 L 22 5 C 22 3.3549904 20.64501 2 19 2 L 5 2 z M 5 4 L 19 4 C 19.564129 4 20 4.4358706 20 5 L 20 12.585938 L 18.607422 11.193359 A 1.0001 1.0001 0 0 0 18.599609 11.185547 C 17.432987 10.042143 15.534081 10.052089 14.378906 11.207031 L 5.5859375 20 L 5 20 C 4.4358706 20 4 19.564129 4 19 L 4 5 C 4 4.4358706 4.4358706 4 5 4 z M 9 6 C 7.3549904 6 6 7.3549904 6 9 C 6 10.64501 7.3549904 12 9 12 C 10.64501 12 12 10.64501 12 9 C 12 7.3549904 10.64501 6 9 6 z M 9 8 C 9.5641294 8 10 8.4358706 10 9 C 10 9.5641294 9.5641294 10 9 10 C 8.4358706 10 8 9.5641294 8 9 C 8 8.4358706 8.4358706 8 9 8 z M 17 15.5 A 1 1 0 0 0 16 16.5 L 16 19.585938 L 14.707031 18.292969 A 1 1 0 0 0 13.292969 18.292969 A 1 1 0 0 0 13.292969 19.707031 L 16.292969 22.707031 A 1 1 0 0 0 16.390625 22.792969 A 1.0001 1.0001 0 0 0 16.46875 22.845703 A 1 1 0 0 0 16.505859 22.869141 A 1.0001 1.0001 0 0 0 16.544922 22.886719 A 1 1 0 0 0 16.632812 22.929688 A 1.0001 1.0001 0 0 0 16.677734 22.943359 A 1 1 0 0 0 16.755859 22.966797 A 1.0001 1.0001 0 0 0 16.804688 22.978516 A 1 1 0 0 0 16.894531 22.994141 A 1.0001 1.0001 0 0 0 16.943359 22.996094 A 1 1 0 0 0 17.035156 22.998047 A 1.0001 1.0001 0 0 0 17.046875 22.998047 A 1 1 0 0 0 17.167969 22.984375 A 1.0001 1.0001 0 0 0 17.21875 22.972656 A 1 1 0 0 0 17.285156 22.957031 A 1.0001 1.0001 0 0 0 17.34375 22.935547 A 1 1 0 0 0 17.421875 22.904297 A 1.0001 1.0001 0 0 0 17.466797 22.880859 A 1 1 0 0 0 17.564453 22.824219 A 1.0001 1.0001 0 0 0 17.576172 22.814453 A 1 1 0 0 0 17.652344 22.755859 A 1.0001 1.0001 0 0 0 17.685547 22.724609 A 1 1 0 0 0 17.707031 22.707031 L 20.707031 19.707031 A 1 1 0 0 0 20.707031 18.292969 A 1 1 0 0 0 19.292969 18.292969 L 18 19.585938 L 18 16.5 A 1 1 0 0 0 17 15.5 z "/>
</svg>
