<?xml version="1.0" encoding="UTF-8" standalone="no"?>
<svg xmlns="http://www.w3.org/2000/svg" xmlns:svg="http://www.w3.org/2000/svg" width="24" height="24" viewBox="0 0 24 24" fill="currentColor" tags="resize,picture,sharpen,increase" categories="photography,multimedia">
  <path d="M 5 2 C 3.3549904 2 2 3.3549904 2 5 L 2 7 A 1 1 0 0 0 3 8 A 1 1 0 0 0 4 7 L 4 5 C 4 4.4358706 4.4358706 4 5 4 A 1 1 0 0 0 6 3 A 1 1 0 0 0 5 2 z M 9 2 A 1 1 0 0 0 8 3 A 1 1 0 0 0 9 4 L 12 4 A 1 1 0 0 0 13 3 A 1 1 0 0 0 12 2 L 9 2 z M 16 2 A 1 1 0 0 0 15 3 A 1 1 0 0 0 16 4 L 18.585938 4 L 15.292969 7.2929688 A 1 1 0 0 0 15.292969 8.7070312 A 1 1 0 0 0 16.707031 8.7070312 L 20 5.4140625 L 20 8 A 1 1 0 0 0 21 9 A 1 1 0 0 0 22 8 L 22 3 A 1.0001 1.0001 0 0 0 21.707031 2.2929688 A 1 1 0 0 0 21.382812 2.0761719 A 1.0001 1.0001 0 0 0 21 2 L 16 2 z M 4 10 C 2.9092972 10 2 10.909297 2 12 L 2 20 C 2 21.090703 2.9092972 22 4 22 L 5 22 L 12 22 C 13.090703 22 14 21.090703 14 20 L 14 19 L 14 12 C 14 10.909297 13.090703 10 12 10 L 4 10 z M 21 11 A 1 1 0 0 0 20 12 L 20 15 A 1 1 0 0 0 21 16 A 1 1 0 0 0 22 15 L 22 12 A 1 1 0 0 0 21 11 z M 4 12 L 12 12 L 12 16.585938 L 11.5625 16.148438 C 11.135085 15.720622 10.568012 15.507812 10 15.507812 C 9.4319885 15.507812 8.8649149 15.720623 8.4375 16.148438 L 4.5859375 20 L 4 20 L 4 12 z M 10 17.494141 C 10.051613 17.494141 10.103226 17.517245 10.148438 17.5625 L 12 19.414062 L 12 20 L 7.4140625 20 L 9.8515625 17.5625 C 9.8967735 17.517245 9.9483866 17.494141 10 17.494141 z M 21 18 A 1 1 0 0 0 20 19 C 20 19.564129 19.564129 20 19 20 L 17 20 A 1 1 0 0 0 16 21 A 1 1 0 0 0 17 22 L 19 22 C 20.64501 22 22 20.64501 22 19 A 1 1 0 0 0 21 18 z "/>
</svg>
