<?xml version="1.0" encoding="UTF-8" standalone="no"?>
<svg xmlns="http://www.w3.org/2000/svg" xmlns:svg="http://www.w3.org/2000/svg" width="24" height="24" viewBox="0 0 24 24" fill="currentColor" tags="picture,photo" categories="photography,multimedia,files">
  <path d="M 2 1 A 1 1 0 0 0 1.2929688 1.2929688 A 1 1 0 0 0 1.2929688 2.7070312 L 2.2949219 3.7089844 C 2.1034516 4.1075908 2.0009623 4.5478391 2 4.9980469 A 1.0001 1.0001 0 0 0 2 5 L 2 19 C 2 20.64501 3.3549904 22 5 22 L 19 22 C 19.456462 22 19.897575 21.896666 20.292969 21.707031 L 21.292969 22.707031 A 1 1 0 0 0 22.707031 22.707031 A 1 1 0 0 0 22.707031 21.292969 L 21.128906 19.714844 A 1 1 0 0 0 21.105469 19.691406 L 4.3007812 2.8867188 A 1 1 0 0 0 4.2929688 2.8789062 L 2.7070312 1.2929688 A 1 1 0 0 0 2 1 z M 9 2 A 1 1 0 0 0 8 3 A 1 1 0 0 0 9 4 L 19 4 C 19.564129 4 20 4.4358706 20 5 L 20 12.585938 L 18.707031 11.292969 A 1 1 0 0 0 17.292969 11.292969 A 1 1 0 0 0 17.292969 12.707031 L 20.283203 15.697266 L 20.292969 15.707031 A 1 1 0 0 0 20.341797 15.75 A 1 1 0 0 0 20.384766 15.787109 A 1 1 0 0 0 20.439453 15.824219 A 1 1 0 0 0 20.492188 15.861328 A 1 1 0 0 0 20.5 15.865234 A 1 1 0 0 0 20.611328 15.921875 A 1 1 0 0 0 20.617188 15.923828 A 1 1 0 0 0 20.742188 15.964844 A 1 1 0 0 0 20.794922 15.976562 A 1 1 0 0 0 21 16 A 1 1 0 0 0 21.130859 15.992188 A 1 1 0 0 0 21.382812 15.923828 A 1 1 0 0 0 21.707031 15.707031 A 1 1 0 0 0 21.923828 15.382812 A 1 1 0 0 0 21.992188 15.130859 A 1 1 0 0 0 22 15 L 22 5 C 22 3.3549904 20.64501 2 19 2 L 9 2 z M 4 5.4140625 L 6.2773438 7.6914062 C 6.0402952 8.1596707 5.93475 8.6641899 5.9628906 9.1425781 C 6.0085696 9.9191099 6.3621621 10.606302 6.8730469 11.117188 C 7.3839316 11.628072 8.0711244 11.981665 8.8476562 12.027344 C 9.3260447 12.055485 9.8305635 11.94994 10.298828 11.712891 L 12.085938 13.5 L 5.5859375 20 L 5 20 C 4.4358706 20 4 19.564129 4 19 L 4 5.4140625 z M 13.5 14.914062 L 18.585938 20 L 8.4140625 20 L 13.5 14.914062 z "/>
</svg>
