<?xml version="1.0" encoding="UTF-8" standalone="no"?>
<svg xmlns="http://www.w3.org/2000/svg" xmlns:svg="http://www.w3.org/2000/svg" width="24" height="24" viewBox="0 0 24 24" fill="currentColor" tags="picture,photo" categories="photography,text,multimedia,files">
  <path d="M 5 2 C 3.3552972 2 2 3.3552972 2 5 L 2 19 C 2 20.644703 3.3552972 22 5 22 L 6 22 L 19 22 C 20.644703 22 22 20.644703 22 19 L 22 15 L 22 5 C 22 3.3552972 20.644703 2 19 2 L 5 2 z M 5 4 L 19 4 C 19.571297 4 20 4.4287028 20 5 L 20 12.585938 L 18.621094 11.207031 C 18.039528 10.625641 17.269717 10.333984 16.5 10.333984 C 15.730283 10.333984 14.960472 10.625641 14.378906 11.207031 L 5.5859375 20 L 5 20 C 4.4287028 20 4 19.571297 4 19 L 4 5 C 4 4.4287028 4.4287028 4 5 4 z M 9 6 C 7.3549904 6 6 7.3549904 6 9 C 6 10.64501 7.3549904 12 9 12 C 10.64501 12 12 10.64501 12 9 C 12 7.3549904 10.64501 6 9 6 z M 9 8 C 9.5641294 8 10 8.4358706 10 9 C 10 9.5641294 9.5641294 10 9 10 C 8.4358706 10 8 9.5641294 8 9 C 8 8.4358706 8.4358706 8 9 8 z M 16.5 12.322266 C 16.753798 12.322266 17.007597 12.42172 17.207031 12.621094 L 20 15.414062 L 20 19 C 20 19.571297 19.571297 20 19 20 L 8.4140625 20 L 15.792969 12.621094 C 15.992403 12.42172 16.246202 12.322266 16.5 12.322266 z "/>
</svg>
