<?xml version="1.0" encoding="UTF-8" standalone="no"?>
<svg xmlns="http://www.w3.org/2000/svg" xmlns:svg="http://www.w3.org/2000/svg" width="24" height="24" viewBox="0 0 24 24" fill="currentColor" tags="picture,gif,photo" categories="photography,text,multimedia,files">
  <path d="M 5 2 C 3.3549936 2 2 3.3549936 2 5 L 2 19 C 2 20.645006 3.3549936 22 5 22 L 11 22 A 1 1 0 0 0 12 21 A 1 1 0 0 0 11 20 L 8.4140625 20 L 11.707031 16.707031 A 1 1 0 0 0 11.707031 15.292969 A 1 1 0 0 0 11 15 A 1 1 0 0 0 10.292969 15.292969 L 5.5859375 20 L 5 20 C 4.4358718 20 4 19.564128 4 19 L 4 5 C 4 4.4358718 4.4358718 4 5 4 L 19 4 C 19.564128 4 20 4.4358718 20 5 L 20 11.5 A 1 1 0 0 0 21 12.5 A 1 1 0 0 0 22 11.5 L 22 5 C 22 3.3549936 20.645006 2 19 2 L 5 2 z M 9 6 C 7.3549936 6 6 7.3549936 6 9 C 6 10.645006 7.3549936 12 9 12 C 10.645006 12 12 10.645006 12 9 C 12 7.3549936 10.645006 6 9 6 z M 9 8 C 9.5641282 8 10 8.4358718 10 9 C 10 9.5641282 9.5641282 10 9 10 C 8.4358718 10 8 9.5641282 8 9 C 8 8.4358718 8.4358718 8 9 8 z M 15.533203 11.896484 C 15.273217 11.899858 15.016258 11.971751 14.789062 12.097656 C 14.334671 12.349502 13.999999 12.817846 14 13.380859 L 14 21.576172 C 13.999997 22.702199 15.340054 23.444451 16.294922 22.847656 L 22.173828 19.173828 C 23.392561 18.412126 23.392561 16.542952 22.173828 15.78125 L 16.294922 12.107422 C 16.056205 11.958223 15.793189 11.893111 15.533203 11.896484 z M 16 14.283203 L 21.113281 17.478516 L 16 20.673828 L 16 14.283203 z "/>
</svg>
