<?xml version="1.0" encoding="UTF-8" standalone="no"?>
<svg xmlns="http://www.w3.org/2000/svg" xmlns:svg="http://www.w3.org/2000/svg" width="24" height="24" viewBox="0 0 24 24" fill="currentColor" tags="save" categories="arrows,files">
  <path d="M 12 2 A 1 1 0 0 0 11 3 L 11 12.585938 L 8.7070312 10.292969 A 1 1 0 0 0 8 10 A 1 1 0 0 0 7.2929688 10.292969 A 1 1 0 0 0 7.2929688 11.707031 L 11.292969 15.707031 A 1.0001 1.0001 0 0 0 11.341797 15.75 A 1 1 0 0 0 11.384766 15.787109 A 1.0001 1.0001 0 0 0 11.439453 15.824219 A 1 1 0 0 0 11.492188 15.861328 A 1.0001 1.0001 0 0 0 11.5 15.865234 A 1 1 0 0 0 11.611328 15.921875 A 1.0001 1.0001 0 0 0 11.617188 15.923828 A 1 1 0 0 0 11.794922 15.976562 A 1.0001 1.0001 0 0 0 12.257812 15.964844 A 1 1 0 0 0 12.382812 15.923828 A 1.0001 1.0001 0 0 0 12.560547 15.824219 A 1 1 0 0 0 12.615234 15.787109 A 1.0001 1.0001 0 0 0 12.658203 15.75 A 1 1 0 0 0 12.716797 15.697266 L 16.707031 11.707031 A 1 1 0 0 0 16.707031 10.292969 A 1 1 0 0 0 15.292969 10.292969 L 13 12.585938 L 13 3 A 1 1 0 0 0 12 2 z M 4 4 C 2.3549904 4 1 5.3549904 1 7 L 1 17 C 1 18.64501 2.3549904 20 4 20 L 20 20 C 21.64501 20 23 18.64501 23 17 L 23 7 C 23 5.3549904 21.64501 4 20 4 L 16 4 A 1 1 0 0 0 15 5 A 1 1 0 0 0 16 6 L 20 6 C 20.564129 6 21 6.4358706 21 7 L 21 17 C 21 17.564129 20.564129 18 20 18 L 4 18 C 3.4358706 18 3 17.564129 3 17 L 3 7 C 3 6.4358706 3.4358706 6 4 6 L 8 6 A 1 1 0 0 0 9 5 A 1 1 0 0 0 8 4 L 4 4 z "/>
</svg>
