<?xml version="1.0" encoding="UTF-8" standalone="no"?>
<svg xmlns="http://www.w3.org/2000/svg" xmlns:svg="http://www.w3.org/2000/svg" width="24" height="24" viewBox="0 0 24 24" fill="currentColor" tags="email" categories="account,mail">
  <path d="M 7.2402344 3 C 6.103949 3.000603 5.0603344 3.646484 4.5546875 4.6640625 L 1.1054688 11.552734 A 1.0001 1.0001 0 0 0 1.0976562 11.583984 A 1 1 0 0 0 1 12 L 1 18 C 1 19.64501 2.3549904 21 4 21 L 20 21 C 21.64501 21 23 19.64501 23 18 L 23 12 A 1.0001 1.0001 0 0 0 22.994141 11.892578 A 1.0001 1.0001 0 0 0 22.992188 11.869141 A 1 1 0 0 0 22.990234 11.857422 A 1.0001 1.0001 0 0 0 22.976562 11.787109 A 1.0001 1.0001 0 0 0 22.96875 11.751953 A 1 1 0 0 0 22.958984 11.71875 A 1.0001 1.0001 0 0 0 22.957031 11.714844 A 1.0001 1.0001 0 0 0 22.923828 11.617188 A 1.0001 1.0001 0 0 0 22.894531 11.552734 L 19.443359 4.6621094 C 18.937235 3.6460093 17.895096 3.0006025 16.759766 3 L 7.2402344 3 z M 7.2402344 5 L 16.759766 5 C 17.141368 5.0002025 17.484484 5.2129507 17.654297 5.5546875 A 1.0001 1.0001 0 0 0 17.65625 5.5585938 L 20.380859 11 L 16 11 A 1.0001 1.0001 0 0 0 15.167969 11.445312 L 13.464844 14 L 10.535156 14 L 8.8320312 11.445312 A 1.0001 1.0001 0 0 0 8 11 L 3.6191406 11 L 6.34375 5.5585938 A 1.0001 1.0001 0 0 0 6.3457031 5.5546875 C 6.5155193 5.2129545 6.8586318 5.0002025 7.2402344 5 z M 3 13 L 7.4648438 13 L 9.1679688 15.554688 A 1.0001 1.0001 0 0 0 10 16 L 14 16 A 1.0001 1.0001 0 0 0 14.832031 15.554688 L 16.535156 13 L 21 13 L 21 18 C 21 18.564129 20.564129 19 20 19 L 4 19 C 3.4358706 19 3 18.564129 3 18 L 3 13 z "/>
</svg>
