<?xml version="1.0" encoding="UTF-8" standalone="no"?>
<svg xmlns="http://www.w3.org/2000/svg" xmlns:svg="http://www.w3.org/2000/svg" width="24" height="24" viewBox="0 0 24 24" fill="currentColor" tags="currency,money,payment" categories="currency,money">
  
  <path d="M 6 2 A 1 1 0 0 0 5 3 A 1 1 0 0 0 6 4 L 9 4 C 10.41676 4 11.351859 4.4952425 12.001953 5.2265625 C 12.438206 5.7173225 12.738386 6.3358066 12.888672 7 L 6 7 A 1 1 0 0 0 5 8 A 1 1 0 0 0 6 9 L 12.888672 9 C 12.738386 9.6641935 12.438206 10.282677 12.001953 10.773438 C 11.351859 11.504757 10.41676 12 9 12 L 6 12 A 1 1 0 0 0 5.8144531 12.017578 A 1 1 0 0 0 5.8105469 12.019531 A 1 1 0 0 0 5.5488281 12.113281 A 1 1 0 0 0 5.4980469 12.140625 A 1 1 0 0 0 5.28125 12.306641 A 1 1 0 0 0 5.2714844 12.314453 A 1 1 0 0 0 5.2519531 12.341797 A 1 1 0 0 0 5.1171875 12.542969 A 1 1 0 0 0 5.0898438 12.589844 A 1 1 0 0 0 5.015625 12.847656 A 1 1 0 0 0 5.0097656 12.910156 A 1 1 0 0 0 5 13 A 1 1 0 0 0 5.0175781 13.171875 A 1 1 0 0 0 5.0195312 13.189453 A 1 1 0 0 0 5.1132812 13.451172 A 1 1 0 0 0 5.140625 13.501953 A 1 1 0 0 0 5.3066406 13.71875 A 1 1 0 0 0 5.3144531 13.728516 L 13.814453 21.728516 A 1 1 0 0 0 15.228516 21.685547 A 1 1 0 0 0 15.185547 20.271484 L 8.5214844 14 L 9 14 C 10.916734 14 12.481395 13.245238 13.498047 12.101562 C 14.28415 11.21724 14.751805 10.128944 14.923828 9 L 18 9 A 1 1 0 0 0 19 8 A 1 1 0 0 0 18 7 L 14.923828 7 C 14.758283 5.9135669 14.317492 4.8656165 13.583984 4 L 18 4 A 1 1 0 0 0 19 3 A 1 1 0 0 0 18 2 L 9 2 L 6 2 z "/>
</svg>
