<?xml version="1.0" encoding="UTF-8" standalone="no"?>
<svg xmlns="http://www.w3.org/2000/svg" xmlns:svg="http://www.w3.org/2000/svg" width="24" height="24" viewBox="0 0 24 24" fill="currentColor" tags="currency,money,payment" categories="finance">
  <path d="M 6 2 A 1 1 0 0 0 5 3 A 1 1 0 0 0 6 4 L 9 4 C 10.416762 4 11.351857 4.495241 12.001953 5.2265625 C 12.438266 5.7173895 12.738406 6.3357044 12.888672 7 L 6 7 A 1 1 0 0 0 5 8 A 1 1 0 0 0 6 9 L 12.888672 9 C 12.738406 9.6642956 12.438266 10.28261 12.001953 10.773438 C 11.351858 11.504757 10.416757 11.999998 9 12 L 6 12 A 1 1 0 0 0 5.9277344 12.003906 A 1 1 0 0 0 5.8847656 12.007812 A 1 1 0 0 0 5.5 12.134766 A 1 1 0 0 0 5.4375 12.175781 A 1 1 0 0 0 5.3847656 12.210938 A 1 1 0 0 0 5.3300781 12.261719 A 1 1 0 0 0 5.2851562 12.300781 A 1 1 0 0 0 5.2714844 12.314453 A 1 1 0 0 0 5.2304688 12.363281 A 1 1 0 0 0 5.2011719 12.400391 A 1 1 0 0 0 5.1386719 12.492188 A 1 1 0 0 0 5.1328125 12.501953 A 1 1 0 0 0 5.0859375 12.597656 A 1 1 0 0 0 5.0742188 12.625 A 1 1 0 0 0 5.0488281 12.697266 A 1 1 0 0 0 5.0292969 12.755859 A 1 1 0 0 0 5.015625 12.826172 A 1 1 0 0 0 5.0078125 12.880859 A 1 1 0 0 0 5.0019531 12.96875 A 1 1 0 0 0 5 13 A 1 1 0 0 0 5 13.009766 A 1 1 0 0 0 5.0058594 13.091797 A 1 1 0 0 0 5.0097656 13.142578 A 1 1 0 0 0 5.0253906 13.222656 A 1 1 0 0 0 5.0371094 13.269531 A 1 1 0 0 0 5.0664062 13.353516 A 1 1 0 0 0 5.0820312 13.392578 A 1 1 0 0 0 5.1289062 13.486328 A 1 1 0 0 0 5.1367188 13.501953 A 1 1 0 0 0 5.1933594 13.589844 A 1 1 0 0 0 5.2128906 13.615234 A 1 1 0 0 0 5.2734375 13.685547 A 1 1 0 0 0 5.3007812 13.712891 A 1 1 0 0 0 5.3144531 13.728516 L 13.814453 21.728516 A 1 1 0 0 0 15.228516 21.685547 A 1 1 0 0 0 15.185547 20.271484 L 8.5214844 14 L 9 14 C 10.916738 14 12.481393 13.245241 13.498047 12.101562 C 14.284038 11.217366 14.751745 10.128771 14.923828 9 L 18 9 A 1 1 0 0 0 19 8 A 1 1 0 0 0 18 7 L 14.923828 7 C 14.758277 5.9140757 14.318928 4.8653342 13.585938 4 L 18 4 A 1 1 0 0 0 19 3 A 1 1 0 0 0 18 2 L 9 2 L 6 2 z "/>
</svg>
