<svg xmlns="http://www.w3.org/2000/svg" xmlns:svg="http://www.w3.org/2000/svg" width="24" height="24" viewBox="0 0 24 24" fill="currentColor" tags="unlimited,forever,loop,math" categories="multimedia">
  <path d="M 6 7 C 4.4166671 7 3.1018922 7.6297556 2.2519531 8.5859375 C 1.402014 9.5421194 1 10.777778 1 12 C 1 13.222222 1.402014 14.45788 2.2519531 15.414062 C 3.1018922 16.370244 4.4166671 17 6 17 C 7.5166667 17 8.8140768 16.375984 9.8925781 15.541016 C 10.687515 14.925581 11.335933 14.15818 12 13.416016 C 12.664067 14.15818 13.312485 14.925581 14.107422 15.541016 C 15.185923 16.375984 16.483333 17 18 17 C 19.583333 17 20.898108 16.370244 21.748047 15.414062 C 22.597986 14.45788 23 13.222222 23 12 C 23 10.777778 22.597986 9.5421194 21.748047 8.5859375 C 20.898108 7.6297556 19.583333 7 18 7 C 16.483333 7 15.185923 7.6240156 14.107422 8.4589844 C 13.312485 9.074419 12.664067 9.84182 12 10.583984 C 11.335933 9.84182 10.687515 9.074419 9.8925781 8.4589844 C 8.8140768 7.6240156 7.5166667 7 6 7 z M 6 9 C 6.9833333 9 7.8109232 9.375984 8.6699219 10.041016 C 9.3128793 10.538789 9.9540711 11.280678 10.599609 12 C 9.9540711 12.719322 9.3128793 13.461211 8.6699219 13.958984 C 7.8109232 14.624016 6.9833333 15 6 15 C 4.9166674 15 4.2314405 14.629756 3.7480469 14.085938 C 3.2646532 13.542118 3 12.777778 3 12 C 3 11.222222 3.2646532 10.457881 3.7480469 9.9140625 C 4.2314405 9.3702444 4.9166674 9 6 9 z M 18 9 C 19.083333 9 19.768559 9.3702444 20.251953 9.9140625 C 20.735347 10.457881 21 11.222222 21 12 C 21 12.777778 20.735347 13.542119 20.251953 14.085938 C 19.768559 14.629755 19.083333 15 18 15 C 17.016667 15 16.189077 14.624016 15.330078 13.958984 C 14.687121 13.461211 14.045929 12.719322 13.400391 12 C 14.045929 11.280678 14.687121 10.538789 15.330078 10.041016 C 16.189077 9.375984 17.016667 9 18 9 z "/>
</svg>
