<?xml version="1.0" encoding="UTF-8" standalone="no"?>
<svg xmlns="http://www.w3.org/2000/svg" xmlns:svg="http://www.w3.org/2000/svg" width="24" height="24" viewBox="0 0 24 24" fill="currentColor" tags="unlimited,forever,loop,math" categories="multimedia">
  <path d="M 6 7 C 4.4166671 7 3.1018922 7.6297556 2.2519531 8.5859375 C 1.402014 9.5421194 1 10.777778 1 12 C 1 13.222222 1.402014 14.45788 2.2519531 15.414062 C 3.1018922 16.370244 4.4166671 17 6 17 C 8.143956 17 10.124985 15.589456 12 13.396484 C 13.875015 15.589456 15.856044 17 18 17 C 19.583333 17 20.898108 16.370244 21.748047 15.414062 C 22.597986 14.45788 23 13.222222 23 12 C 23 10.777778 22.597986 9.5421194 21.748047 8.5859375 C 20.898108 7.6297556 19.583333 7 18 7 C 15.856044 7 13.875015 8.4105437 12 10.603516 C 10.124985 8.4105437 8.143956 7 6 7 z M 6 9 C 7.3869699 9 8.9394494 10.019225 10.603516 12 C 8.9394494 13.980775 7.3869699 15 6 15 C 4.9166674 15 4.2314405 14.629756 3.7480469 14.085938 C 3.2646532 13.542118 3 12.777778 3 12 C 3 11.222222 3.2646532 10.457881 3.7480469 9.9140625 C 4.2314405 9.3702444 4.9166674 9 6 9 z M 18 9 C 19.083333 9 19.768559 9.3702444 20.251953 9.9140625 C 20.735347 10.457881 21 11.222222 21 12 C 21 12.777778 20.735347 13.542119 20.251953 14.085938 C 19.768559 14.629755 19.083333 15 18 15 C 16.61303 15 15.06055 13.980775 13.396484 12 C 15.06055 10.019225 16.61303 9 18 9 z "/>
</svg>
