<?xml version="1.0" encoding="UTF-8" standalone="no"?>
<svg xmlns="http://www.w3.org/2000/svg" xmlns:svg="http://www.w3.org/2000/svg" width="24" height="24" viewBox="0 0 24 24" fill="currentColor" tags="unlimited,forever,loop,maths" categories="multimedia">
  <path d="M 6 7 C 4.4166703 7 3.1018906 7.6297575 2.2519531 8.5859375 C 1.4020158 9.5421175 1 10.77778 1 12 C 1 13.22222 1.4020158 14.457882 2.2519531 15.414062 C 3.1018906 16.370242 4.4166703 17 6 17 C 8.1439517 17 10.124989 15.589452 12 13.396484 C 13.875011 15.589452 15.856048 17 18 17 C 19.583329 17 20.89811 16.370242 21.748047 15.414062 C 22.597984 14.457882 23 13.22222 23 12 C 23 10.77778 22.597984 9.5421175 21.748047 8.5859375 C 20.89811 7.6297575 19.583329 7 18 7 C 15.856048 7 13.875011 8.4105481 12 10.603516 C 10.124989 8.4105481 8.1439517 7 6 7 z M 6 9 C 7.3869671 9 8.9394527 10.019229 10.603516 12 C 8.9394527 13.980771 7.3869671 15 6 15 C 4.9166695 15 4.2314395 14.629754 3.7480469 14.085938 C 3.2646542 13.54212 3 12.777776 3 12 C 3 11.222224 3.2646542 10.457879 3.7480469 9.9140625 C 4.2314395 9.3702455 4.9166695 9 6 9 z M 18 9 C 19.083331 9 19.768561 9.3702455 20.251953 9.9140625 C 20.735346 10.457879 21 11.222224 21 12 C 21 12.777776 20.735346 13.54212 20.251953 14.085938 C 19.768561 14.629754 19.083331 15 18 15 C 16.613032 15 15.060548 13.980771 13.396484 12 C 15.060548 10.019229 16.613032 9 18 9 z "/>
</svg>
