<?xml version="1.0" encoding="UTF-8" standalone="no"?>
<svg xmlns="http://www.w3.org/2000/svg" xmlns:svg="http://www.w3.org/2000/svg" width="24" height="24" viewBox="0 0 24 24" fill="currentColor" tags="help" categories="accessibility,notifications">
  <path d="M 12 1 C 5.9367246 1 1 5.9367246 1 12 C 1 18.063276 5.9367246 23 12 23 C 18.063276 23 23 18.063276 23 12 C 23 5.9367246 18.063276 1 12 1 z M 12 3 C 16.982397 3 21 7.0176026 21 12 C 21 16.982397 16.982397 21 12 21 C 7.0176026 21 3 16.982397 3 12 C 3 7.0176026 7.0176026 3 12 3 z M 12 7 A 1 1 0 0 0 11 8 A 1 1 0 0 0 12 9 L 12.009766 9 A 1 1 0 0 0 13.009766 8 A 1 1 0 0 0 12.009766 7 L 12 7 z M 12 11 A 1 1 0 0 0 11 12 L 11 16 A 1 1 0 0 0 12 17 A 1 1 0 0 0 13 16 L 13 12 A 1 1 0 0 0 12 11 z "/>
</svg>
