<svg xmlns="http://www.w3.org/2000/svg" xmlns:svg="http://www.w3.org/2000/svg" width="24" height="24" viewBox="0 0 24 24" fill="currentColor" tags="logo,camera,social" categories="brands,social,photography">
  <path d="M 7 1 C 3.6932972 1 1 3.6932972 1 7 L 1 17 C 1 20.306703 3.6932972 23 7 23 L 17 23 C 20.306703 23 23 20.306703 23 17 L 23 7 C 23 3.6932972 20.306703 1 17 1 L 7 1 z M 7 3 L 17 3 C 19.233297 3 21 4.7667028 21 7 L 21 17 C 21 19.233297 19.233297 21 17 21 L 7 21 C 4.7667028 21 3 19.233297 3 17 L 3 7 C 3 4.7667028 4.7667028 3 7 3 z M 17.5 5.5 A 1 1 0 0 0 16.5 6.5 A 1 1 0 0 0 17.5 7.5 L 17.509766 7.5 A 1 1 0 0 0 18.509766 6.5 A 1 1 0 0 0 17.509766 5.5 L 17.5 5.5 z M 11.921875 6.9550781 C 9.970765 6.9920577 8.3544218 8.1623857 7.5761719 9.7089844 C 6.6867434 11.476526 6.8445048 13.828879 8.5078125 15.492188 C 10.17112 17.155495 12.523474 17.313257 14.291016 16.423828 C 16.058557 15.5344 17.333392 13.549968 16.988281 11.222656 C 16.66583 9.0481555 14.951845 7.3341699 12.777344 7.0117188 C 12.48643 6.9685799 12.200605 6.9497953 11.921875 6.9550781 z M 11.943359 8.9492188 C 12.116397 8.9475597 12.29662 8.9607292 12.482422 8.9882812 C 13.793874 9.1827531 14.817247 10.206126 15.011719 11.517578 C 15.232135 13.003991 14.477497 14.090786 13.392578 14.636719 C 12.307659 15.182651 10.983995 15.140245 9.921875 14.078125 C 8.8597555 13.016005 8.8173488 11.692341 9.3632812 10.607422 C 9.840972 9.6581175 10.732095 8.9608323 11.943359 8.9492188 z "/>
</svg>
