<?xml version="1.0" encoding="UTF-8" standalone="no"?>
<svg xmlns="http://www.w3.org/2000/svg" xmlns:svg="http://www.w3.org/2000/svg" width="24" height="24" viewBox="0 0 24 24" fill="currentColor" tags="logo,camera,social" categories="brands,social,photography">
  <path d="M 7 1 C 3.6933038 1 1 3.6933038 1 7 L 1 17 C 1 20.306696 3.6933038 23 7 23 L 17 23 C 20.306696 23 23 20.306696 23 17 L 23 7 C 23 3.6933038 20.306696 1 17 1 L 7 1 z M 7 3 L 17 3 C 19.233293 3 21 4.7667072 21 7 L 21 17 C 21 19.233293 19.233293 21 17 21 L 7 21 C 4.7667072 21 3 19.233293 3 17 L 3 7 C 3 4.7667072 4.7667072 3 7 3 z M 17.5 5.5 A 1 1 0 0 0 16.5 6.5 A 1 1 0 0 0 17.5 7.5 L 17.509766 7.5 A 1 1 0 0 0 18.509766 6.5 A 1 1 0 0 0 17.509766 5.5 L 17.5 5.5 z M 11.921875 6.9550781 C 9.9707678 6.9920582 8.3544202 8.1623889 7.5761719 9.7089844 C 6.6867452 11.476522 6.8445082 13.828882 8.5078125 15.492188 C 10.171117 17.155492 12.523477 17.313255 14.291016 16.423828 C 16.058553 15.534402 17.333392 13.549964 16.988281 11.222656 C 16.665831 9.0481599 14.951841 7.3341693 12.777344 7.0117188 C 12.48643 6.9685799 12.200605 6.9497953 11.921875 6.9550781 z M 11.943359 8.9492188 C 12.116397 8.9475596 12.296621 8.9607293 12.482422 8.9882812 C 13.793872 9.1827528 14.817247 10.206128 15.011719 11.517578 C 15.232135 13.003989 14.477495 14.090787 13.392578 14.636719 C 12.307661 15.18265 10.983992 15.140242 9.921875 14.078125 C 8.8597576 13.016008 8.8173499 11.692339 9.3632812 10.607422 C 9.8409711 9.6581194 10.732097 8.9608325 11.943359 8.9492188 z "/>
</svg>
