<?xml version="1.0" encoding="UTF-8" standalone="no"?>
<svg xmlns="http://www.w3.org/2000/svg" xmlns:svg="http://www.w3.org/2000/svg" width="24" height="24" viewBox="0 0 24 24" fill="currentColor" tags="arrow,right" categories="arrows,design">
  <path d="M 12.03125 0.9921875 C 9.7822051 0.97435917 7.4772986 1.7961389 5.6367188 3.6367188 C 2.8320258 6.4414116 2.3930911 10.322689 3.6855469 13.443359 C 4.9780026 16.56403 8.0331478 19 12 19 L 17.585938 19 L 15.292969 21.292969 A 1 1 0 0 0 15.292969 22.707031 A 1 1 0 0 0 16.707031 22.707031 L 20.697266 18.716797 A 1 1 0 0 0 20.707031 18.707031 A 1.0001 1.0001 0 0 0 20.785156 18.619141 A 1 1 0 0 0 20.792969 18.609375 A 1.0001 1.0001 0 0 0 20.861328 18.507812 A 1 1 0 0 0 20.865234 18.5 A 1.0001 1.0001 0 0 0 20.921875 18.388672 A 1 1 0 0 0 20.923828 18.382812 A 1 1 0 0 0 20.964844 18.257812 A 1.0001 1.0001 0 0 0 20.976562 18.205078 A 1.0001 1.0001 0 0 0 21 18 A 1.0001 1.0001 0 0 0 20.976562 17.794922 A 1.0001 1.0001 0 0 0 20.964844 17.742188 A 1 1 0 0 0 20.923828 17.617188 A 1.0001 1.0001 0 0 0 20.921875 17.611328 A 1 1 0 0 0 20.865234 17.5 A 1.0001 1.0001 0 0 0 20.861328 17.492188 A 1 1 0 0 0 20.792969 17.390625 A 1.0001 1.0001 0 0 0 20.785156 17.380859 A 1 1 0 0 0 20.707031 17.292969 L 20.697266 17.283203 L 16.707031 13.292969 A 1 1 0 0 0 15.292969 13.292969 A 1 1 0 0 0 15.292969 14.707031 L 17.585938 17 L 12 17 C 8.8391177 17 6.5469618 15.127435 5.5332031 12.679688 C 4.5194444 10.231939 4.8160158 7.2855467 7.0507812 5.0507812 C 9.2855467 2.8160158 12.231938 2.5194444 14.679688 3.5332031 C 17.127435 4.5469618 19 6.8391177 19 10 A 1 1 0 0 0 20 11 A 1 1 0 0 0 21 10 C 21 6.0331478 18.56403 2.9780026 15.443359 1.6855469 C 14.663192 1.3624329 13.836883 1.1475564 12.990234 1.0507812 C 12.672741 1.0144906 12.352542 0.9947344 12.03125 0.9921875 z "/>
</svg>
