<?xml version="1.0" encoding="UTF-8" standalone="no"?>
<svg xmlns="http://www.w3.org/2000/svg" xmlns:svg="http://www.w3.org/2000/svg" width="24" height="24" viewBox="0 0 24 24" fill="currentColor" tags="arrow,left" categories="arrows,design">
  <path d="M 12 1 C 7.0545455 1 3 5.0545455 3 10 A 1 1 0 0 0 4 11 A 1 1 0 0 0 5 10 C 5 6.1454545 8.1454545 3 12 3 C 15.854545 3 19 6.1454545 19 10 C 19 13.854545 15.854545 17 12 17 L 6.4140625 17 L 8.7070312 14.707031 A 1 1 0 0 0 8.7070312 13.292969 A 1 1 0 0 0 8 13 A 1 1 0 0 0 7.2929688 13.292969 L 3.3027344 17.283203 L 3.2929688 17.292969 A 1.0001 1.0001 0 0 0 3.25 17.341797 A 1 1 0 0 0 3.2128906 17.384766 A 1.0001 1.0001 0 0 0 3.1757812 17.439453 A 1 1 0 0 0 3.1386719 17.492188 A 1.0001 1.0001 0 0 0 3.1347656 17.5 A 1 1 0 0 0 3.078125 17.611328 A 1.0001 1.0001 0 0 0 3.0761719 17.617188 A 1 1 0 0 0 3.0351562 17.742188 A 1 1 0 0 0 3.0234375 17.794922 A 1.0001 1.0001 0 0 0 3 18 A 1.0001 1.0001 0 0 0 3.0234375 18.205078 A 1.0001 1.0001 0 0 0 3.0351562 18.257812 A 1 1 0 0 0 3.0761719 18.382812 A 1 1 0 0 0 3.078125 18.388672 A 1.0001 1.0001 0 0 0 3.1347656 18.5 A 1 1 0 0 0 3.1757812 18.560547 A 1.0001 1.0001 0 0 0 3.2128906 18.615234 A 1 1 0 0 0 3.25 18.658203 A 1.0001 1.0001 0 0 0 3.2929688 18.707031 A 1 1 0 0 0 3.3027344 18.716797 L 7.2929688 22.707031 A 1 1 0 0 0 8.7070312 22.707031 A 1 1 0 0 0 8.7070312 21.292969 L 6.4140625 19 L 12 19 C 16.945455 19 21 14.945455 21 10 C 21 5.0545455 16.945455 1 12 1 z "/>
</svg>
