<?xml version="1.0" encoding="UTF-8" standalone="no"?>
<svg xmlns="http://www.w3.org/2000/svg" xmlns:svg="http://www.w3.org/2000/svg" width="24" height="24" viewBox="0 0 24 24" fill="currentColor" tags="arrow,left" categories="arrows,design">
  <path d="M 12 1 C 7.0545553 1 3 5.0545553 3 10 A 1 1 0 0 0 4 11 A 1 1 0 0 0 5 10 C 5 6.1454623 8.1454623 3 12 3 C 15.854538 3 19 6.1454623 19 10 C 19 13.854538 15.854538 17 12 17 L 6.4140625 17 L 8.7070312 14.707031 A 1 1 0 0 0 8.7070312 13.292969 A 1 1 0 0 0 8 13 A 1 1 0 0 0 7.2929688 13.292969 L 3.2929688 17.292969 A 1.0001 1.0001 0 0 0 3.1035156 17.576172 A 1 1 0 0 0 3.0664062 17.666016 A 1.0001 1.0001 0 0 0 3 18 A 1.0001 1.0001 0 0 0 3.0664062 18.333984 A 1 1 0 0 0 3.1035156 18.423828 A 1.0001 1.0001 0 0 0 3.2929688 18.707031 L 7.2929688 22.707031 A 1 1 0 0 0 8.7070312 22.707031 A 1 1 0 0 0 8.7070312 21.292969 L 6.4140625 19 L 12 19 C 16.945445 19 21 14.945445 21 10 C 21 5.0545553 16.945445 1 12 1 z "/>
</svg>
