<?xml version="1.0" encoding="UTF-8" standalone="no"?>
<svg xmlns="http://www.w3.org/2000/svg" xmlns:svg="http://www.w3.org/2000/svg" width="24" height="24" viewBox="0 0 24 24" fill="currentColor" tags="arrow,right" categories="arrows,design">
  <path d="M 12 1 C 7.0545455 1 3 5.0545455 3 10 C 3 14.945455 7.0545455 19 12 19 L 17.585938 19 L 15.292969 21.292969 A 1 1 0 0 0 15.292969 22.707031 A 1 1 0 0 0 16.707031 22.707031 L 20.697266 18.716797 A 1 1 0 0 0 20.707031 18.707031 A 1.0001 1.0001 0 0 0 20.785156 18.619141 A 1 1 0 0 0 20.792969 18.609375 A 1.0001 1.0001 0 0 0 20.861328 18.507812 A 1 1 0 0 0 20.865234 18.5 A 1.0001 1.0001 0 0 0 20.921875 18.388672 A 1 1 0 0 0 20.923828 18.382812 A 1 1 0 0 0 20.964844 18.257812 A 1.0001 1.0001 0 0 0 20.976562 18.205078 A 1.0001 1.0001 0 0 0 21 18 A 1.0001 1.0001 0 0 0 20.976562 17.794922 A 1.0001 1.0001 0 0 0 20.964844 17.742188 A 1 1 0 0 0 20.923828 17.617188 A 1.0001 1.0001 0 0 0 20.921875 17.611328 A 1 1 0 0 0 20.865234 17.5 A 1.0001 1.0001 0 0 0 20.861328 17.492188 A 1 1 0 0 0 20.792969 17.390625 A 1.0001 1.0001 0 0 0 20.785156 17.380859 A 1 1 0 0 0 20.707031 17.292969 L 20.697266 17.283203 L 16.707031 13.292969 A 1 1 0 0 0 15.292969 13.292969 A 1 1 0 0 0 15.292969 14.707031 L 17.585938 17 L 12 17 C 8.1454545 17 5 13.854545 5 10 C 5 6.1454545 8.1454545 3 12 3 C 15.854545 3 19 6.1454545 19 10 A 1 1 0 0 0 20 11 A 1 1 0 0 0 21 10 C 21 5.0545455 16.945455 1 12 1 z "/>
</svg>
