<?xml version="1.0" encoding="UTF-8" standalone="no"?>
<svg xmlns="http://www.w3.org/2000/svg" xmlns:svg="http://www.w3.org/2000/svg" width="24" height="24" viewBox="0 0 24 24" fill="currentColor" tags="arrow,right" categories="arrows,design">
  <path d="M 12 1 C 7.0545553 1 3 5.0545553 3 10 C 3 14.945445 7.0545553 19 12 19 L 17.585938 19 L 15.292969 21.292969 A 1 1 0 0 0 15.292969 22.707031 A 1 1 0 0 0 16.707031 22.707031 L 20.707031 18.707031 A 1.0001 1.0001 0 0 0 20.923828 18.382812 A 1.0001 1.0001 0 0 0 21 18 A 1 1 0 0 0 20.994141 17.902344 A 1.0001 1.0001 0 0 0 20.992188 17.890625 A 1 1 0 0 0 20.984375 17.830078 A 1.0001 1.0001 0 0 0 20.958984 17.71875 A 1.0001 1.0001 0 0 0 20.917969 17.603516 A 1 1 0 0 0 20.886719 17.539062 A 1 1 0 0 0 20.880859 17.529297 A 1.0001 1.0001 0 0 0 20.871094 17.511719 A 1 1 0 0 0 20.833984 17.449219 A 1 1 0 0 0 20.832031 17.445312 A 1.0001 1.0001 0 0 0 20.757812 17.347656 A 1.0001 1.0001 0 0 0 20.755859 17.345703 A 1 1 0 0 0 20.751953 17.341797 A 1.0001 1.0001 0 0 0 20.707031 17.292969 L 16.707031 13.292969 A 1 1 0 0 0 15.292969 13.292969 A 1 1 0 0 0 15.292969 14.707031 L 17.585938 17 L 12 17 C 8.1454623 17 5 13.854538 5 10 C 5 6.1454623 8.1454623 3 12 3 C 15.854538 3 19 6.1454623 19 10 A 1 1 0 0 0 20 11 A 1 1 0 0 0 21 10 C 21 5.0545553 16.945445 1 12 1 z "/>
</svg>
