<?xml version="1.0" encoding="UTF-8" standalone="no"?>
<svg xmlns="http://www.w3.org/2000/svg" xmlns:svg="http://www.w3.org/2000/svg" width="24" height="24" viewBox="0 0 24 24" fill="currentColor" tags="arrow,left" categories="arrows,design">
  <path d="M 11.96875 0.9921875 C 11.647458 0.9947344 11.327259 1.0144906 11.009766 1.0507812 C 10.163117 1.1475564 9.3368082 1.3624329 8.5566406 1.6855469 C 5.4359703 2.9780026 3 6.0331478 3 10 A 1 1 0 0 0 4 11 A 1 1 0 0 0 5 10 C 5 6.8391177 6.872564 4.5469618 9.3203125 3.5332031 C 11.768061 2.5194444 14.714453 2.8160158 16.949219 5.0507812 C 19.183984 7.2855467 19.480556 10.231938 18.466797 12.679688 C 17.453038 15.127435 15.160882 17 12 17 L 6.4140625 17 L 8.7070312 14.707031 A 1 1 0 0 0 8.7070312 13.292969 A 1 1 0 0 0 8 13 A 1 1 0 0 0 7.2929688 13.292969 L 3.3027344 17.283203 L 3.2929688 17.292969 A 1.0001 1.0001 0 0 0 3.25 17.341797 A 1 1 0 0 0 3.2128906 17.384766 A 1.0001 1.0001 0 0 0 3.1757812 17.439453 A 1 1 0 0 0 3.1386719 17.492188 A 1.0001 1.0001 0 0 0 3.1347656 17.5 A 1 1 0 0 0 3.078125 17.611328 A 1.0001 1.0001 0 0 0 3.0761719 17.617188 A 1 1 0 0 0 3.0351562 17.742188 A 1 1 0 0 0 3.0234375 17.794922 A 1.0001 1.0001 0 0 0 3 18 A 1.0001 1.0001 0 0 0 3.0234375 18.205078 A 1.0001 1.0001 0 0 0 3.0351562 18.257812 A 1 1 0 0 0 3.0761719 18.382812 A 1 1 0 0 0 3.078125 18.388672 A 1.0001 1.0001 0 0 0 3.1347656 18.5 A 1 1 0 0 0 3.1757812 18.560547 A 1.0001 1.0001 0 0 0 3.2128906 18.615234 A 1 1 0 0 0 3.25 18.658203 A 1.0001 1.0001 0 0 0 3.2929688 18.707031 A 1 1 0 0 0 3.3027344 18.716797 L 7.2929688 22.707031 A 1 1 0 0 0 8.7070312 22.707031 A 1 1 0 0 0 8.7070312 21.292969 L 6.4140625 19 L 12 19 C 15.966852 19 19.021997 16.56403 20.314453 13.443359 C 21.606909 10.322689 21.167974 6.4414117 18.363281 3.6367188 C 16.522702 1.7961389 14.217795 0.97435917 11.96875 0.9921875 z "/>
</svg>
