<?xml version="1.0" encoding="UTF-8" standalone="no"?>
<svg xmlns="http://www.w3.org/2000/svg" xmlns:svg="http://www.w3.org/2000/svg" width="24" height="24" viewBox="0 0 24 24" fill="currentColor" tags="currency,money,payment" categories="currency,money">
  
  <path d="M 6.0390625 2 A 1 1 0 0 0 5.3222656 2.265625 A 1 1 0 0 0 5.265625 3.6777344 L 11 9.890625 L 11 10 L 6 10 A 1 1 0 0 0 5 11 A 1 1 0 0 0 6 12 L 11 12 L 11 14 L 6 14 A 1 1 0 0 0 5 15 A 1 1 0 0 0 6 16 L 11 16 L 11 21 A 1 1 0 0 0 12 22 A 1 1 0 0 0 13 21 L 13 16 L 18 16 A 1 1 0 0 0 19 15 A 1 1 0 0 0 18 14 L 13 14 L 13 12 L 18 12 A 1 1 0 0 0 19 11 A 1 1 0 0 0 18 10 L 13 10 L 13 9.890625 L 18.734375 3.6777344 A 1 1 0 0 0 18.677734 2.265625 A 1 1 0 0 0 17.265625 2.3222656 L 12 8.0273438 L 6.734375 2.3222656 A 1 1 0 0 0 6.0390625 2 z "/>
</svg>
