<?xml version="1.0" encoding="UTF-8" standalone="no"?>
<svg xmlns="http://www.w3.org/2000/svg" xmlns:svg="http://www.w3.org/2000/svg" width="24" height="24" viewBox="0 0 24 24" fill="currentColor" tags="game,console,control stick" categories="gaming,devices">
  <path d="M 12 2 C 9.8027056 2 8 3.8027056 8 6 C 8 7.8524716 9.2811752 9.4233216 11 9.8710938 L 11 14 L 7 14 L 7 13 A 1 1 0 0 0 6 12 A 1 1 0 0 0 5 13 L 5 14 C 3.3549904 14 2 15.35499 2 17 L 2 19 C 2 20.64501 3.3549904 22 5 22 L 19 22 C 20.64501 22 22 20.64501 22 19 L 22 17 C 22 15.35499 20.64501 14 19 14 L 13 14 L 13 9.8710938 C 14.718825 9.4233216 16 7.8524716 16 6 C 16 3.8027056 14.197294 2 12 2 z M 12 4 C 13.116414 4 14 4.8835859 14 6 C 14 7.1164141 13.116414 8 12 8 C 10.883586 8 10 7.1164141 10 6 C 10 4.8835859 10.883586 4 12 4 z M 5 16 L 19 16 C 19.564129 16 20 16.435871 20 17 L 20 19 C 20 19.564129 19.564129 20 19 20 L 5 20 C 4.4358706 20 4 19.564129 4 19 L 4 17 C 4 16.435871 4.4358706 16 5 16 z "/>
</svg>
