<svg xmlns="http://www.w3.org/2000/svg" xmlns:svg="http://www.w3.org/2000/svg" width="24" height="24" viewBox="0 0 24 24" fill="currentColor" tags="projects,manage,overview,board,tickets,issues,roadmap,plan,intentions,productivity,work,agile,code,coding" categories="charts,development,design">
  <path d="M 5 2 A 1 1 0 0 0 4 3 L 4 17 A 1 1 0 0 0 5 18 A 1 1 0 0 0 6 17 L 6 3 A 1 1 0 0 0 5 2 z M 12 2 A 1 1 0 0 0 11 3 L 11 11 A 1 1 0 0 0 12 12 A 1 1 0 0 0 13 11 L 13 3 A 1 1 0 0 0 12 2 z M 19 2 A 1 1 0 0 0 18 3 L 18 21 A 1 1 0 0 0 19 22 A 1 1 0 0 0 20 21 L 20 3 A 1 1 0 0 0 19 2 z "/>
</svg>
