<?xml version="1.0" encoding="UTF-8" standalone="no"?>
<svg xmlns="http://www.w3.org/2000/svg" xmlns:svg="http://www.w3.org/2000/svg" width="24" height="24" viewBox="0 0 24 24" fill="currentColor" tags="projects,manage,overview,board,tickets,issues,roadmap,plan,intentions,productivity,work,agile,code,coding" categories="charts,development,design">
  <path d="M 6 4 A 1 1 0 0 0 5 5 L 5 16 A 1 1 0 0 0 6 17 A 1 1 0 0 0 7 16 L 7 5 A 1 1 0 0 0 6 4 z M 12 4 A 1 1 0 0 0 11 5 L 11 11 A 1 1 0 0 0 12 12 A 1 1 0 0 0 13 11 L 13 5 A 1 1 0 0 0 12 4 z M 18 4 A 1 1 0 0 0 17 5 L 17 19 A 1 1 0 0 0 18 20 A 1 1 0 0 0 19 19 L 19 5 A 1 1 0 0 0 18 4 z "/>
</svg>
