<?xml version="1.0" encoding="UTF-8" standalone="no"?>
<svg xmlns="http://www.w3.org/2000/svg" xmlns:svg="http://www.w3.org/2000/svg" width="24" height="24" viewBox="0 0 24 24" fill="currentColor" tags="kayak,boat,paddle,water,sport,recreation,adventure,outdoors,equipment,lake,ocean" categories="transportation">
  <path d="M 4.9003906 2.0058594 C 4.7563513 2.0106676 4.6122227 2.0253588 4.46875 2.0507812 C 3.8948592 2.1524708 3.3363542 2.4214581 2.8789062 2.8789062 C 1.9640101 3.7938022 1.8008903 5.1159242 2.2285156 6.1484375 C 2.656141 7.1809508 3.7060483 8 5 8 L 6 8 C 6.1782024 8 6.3523706 7.9767685 6.5175781 7.9316406 L 7.8320312 9.2460938 C 5.4392375 11.910901 3.7446806 15.329656 2.09375 20.037109 L 2.09375 20.039062 C 1.8875 20.587566 2.0575459 21.205984 2.4257812 21.574219 C 2.7940159 21.942453 3.4124348 22.1125 3.9609375 21.90625 L 3.9628906 21.90625 C 8.6703596 20.255314 12.089095 18.560775 14.753906 16.167969 L 16.068359 17.482422 C 16.023232 17.647629 16 17.821798 16 18 L 16 19 C 16 20.293952 16.819049 21.343859 17.851562 21.771484 C 18.884076 22.19911 20.206198 22.03599 21.121094 21.121094 C 22.03599 20.206198 22.19911 18.884076 21.771484 17.851562 C 21.343859 16.819049 20.293952 16 19 16 L 18 16 C 17.821798 16 17.647629 16.023232 17.482422 16.068359 L 16.167969 14.753906 C 18.560368 12.089142 20.253464 8.6698997 21.904297 3.9628906 L 21.90625 3.9628906 L 21.90625 3.9609375 C 21.90885 3.9534675 21.911463 3.9488862 21.914062 3.9414062 A 1 1 0 0 0 21.890625 3.8945312 C 22.05696 3.3645174 21.926462 2.7780247 21.574219 2.4257812 C 21.205984 2.0575464 20.587566 1.8875 20.039062 2.09375 L 20.037109 2.09375 C 15.329656 3.7446806 11.910901 5.4392375 9.2460938 7.8320312 L 7.9316406 6.5175781 C 7.9767685 6.3523706 8 6.1782024 8 6 L 8 5 C 8 3.7060483 7.1809508 2.656141 6.1484375 2.2285156 C 5.761245 2.0681562 5.3325085 1.9914347 4.9003906 2.0058594 z M 20.037109 3.2636719 A 1 1 0 0 0 20.042969 3.2714844 A 1 1 0 0 0 20.039062 3.2734375 L 20.039062 3.2714844 L 20.039062 3.2695312 L 20.037109 3.2675781 C 20.036776 3.2668352 20.037478 3.2644147 20.037109 3.2636719 z M 4.9707031 3.9882812 C 5.109295 3.9882566 5.2479657 4.0203238 5.3828125 4.0761719 C 5.7424039 4.2251001 6 4.5120181 6 5 L 6 6 L 5 6 C 4.5120181 6 4.2251001 5.7424039 4.0761719 5.3828125 C 3.9272436 5.0232211 3.9480002 4.6379373 4.2929688 4.2929688 C 4.5085741 4.0773634 4.7397166 3.9883223 4.9707031 3.9882812 z M 19.507812 4.4921875 C 18.080348 8.3027216 16.638282 11.171172 14.748047 13.333984 L 10.666016 9.2519531 C 12.828857 7.3617199 15.69729 5.9196499 19.507812 4.4921875 z M 9.2519531 10.666016 L 13.333984 14.748047 C 11.171162 16.638307 8.3027636 18.080334 4.4921875 19.507812 C 5.9196661 15.697237 7.3616924 12.828838 9.2519531 10.666016 z M 18 18 L 19 18 C 19.487982 18 19.7749 18.257596 19.923828 18.617188 C 20.072756 18.976779 20.052 19.362063 19.707031 19.707031 C 19.362063 20.052 18.976779 20.072756 18.617188 19.923828 C 18.257596 19.7749 18 19.487982 18 19 L 18 18 z "/>
</svg>
