<?xml version="1.0" encoding="UTF-8" standalone="no"?>
<svg xmlns="http://www.w3.org/2000/svg" xmlns:svg="http://www.w3.org/2000/svg" width="24" height="24" viewBox="0 0 24 24" fill="currentColor" tags="password,login,authentication,secure,unlock,car key" categories="security,account">
  <path d="M 14.099609 1.0371094 C 13.243514 1.0371094 12.388507 1.3474578 11.720703 1.9667969 A 1.0001 1.0001 0 0 0 11.693359 1.9921875 L 7.9921875 5.6933594 A 1.0001 1.0001 0 0 0 7.9667969 5.7207031 C 6.7281188 7.0563116 6.7281188 9.1448601 7.9667969 10.480469 A 1.0001 1.0001 0 0 0 7.9921875 10.507812 L 8.0351562 10.550781 L 1.8789062 16.707031 C 1.3165309 17.269237 1.0001698 18.032926 1 18.828125 L 1 21 C 1 22.092723 1.9072773 23 3 23 L 6 23 C 7.0927227 23 8 22.092723 8 21 L 8 20 L 9 20 C 10.092723 20 11 19.092723 11 18 L 11 17 L 11.171875 17 C 11.967074 16.99983 12.730763 16.683469 13.292969 16.121094 L 13.449219 15.964844 L 13.492188 16.007812 A 1.0001 1.0001 0 0 0 13.519531 16.033203 C 14.85514 17.271881 16.943688 17.271881 18.279297 16.033203 A 1.0001 1.0001 0 0 0 18.306641 16.007812 L 22.007812 12.306641 A 1.0001 1.0001 0 0 0 22.033203 12.279297 C 23.271881 10.943688 23.271881 8.8551397 22.033203 7.5195312 A 1.0001 1.0001 0 0 0 22.007812 7.4921875 L 16.507812 1.9921875 A 1.0001 1.0001 0 0 0 16.480469 1.9667969 C 15.812668 1.3474582 14.955706 1.0371094 14.099609 1.0371094 z M 14.099609 3.0273438 C 14.46407 3.0273438 14.828064 3.1636415 15.119141 3.4335938 L 20.566406 8.8808594 C 21.106311 9.4630129 21.106311 10.337768 20.566406 10.919922 L 16.919922 14.566406 C 16.337768 15.106311 15.463013 15.106311 14.880859 14.566406 L 9.4335938 9.1191406 C 8.8936894 8.5369871 8.8936894 7.6622316 9.4335938 7.0800781 L 13.080078 3.4335938 C 13.371155 3.1636415 13.735149 3.0273437 14.099609 3.0273438 z M 14 6 A 1 1 0 0 0 13.292969 6.2929688 A 1 1 0 0 0 13.292969 7.7070312 L 16.292969 10.707031 A 1 1 0 0 0 17.707031 10.707031 A 1 1 0 0 0 17.707031 9.2929688 L 14.707031 6.2929688 A 1 1 0 0 0 14 6 z M 9.4492188 11.964844 L 12.035156 14.550781 L 11.878906 14.707031 C 11.691142 14.894852 11.437454 14.999943 11.171875 15 L 11 15 C 9.9072773 15 9 15.907277 9 17 L 9 18 L 8 18 C 6.9072773 18 6 18.907277 6 20 L 6 21 L 3 21 L 3 18.828125 C 3.0000567 18.562546 3.1051481 18.308858 3.2929688 18.121094 L 9.4492188 11.964844 z "/>
</svg>
