<?xml version="1.0" encoding="UTF-8" standalone="no"?>
<svg xmlns="http://www.w3.org/2000/svg" xmlns:svg="http://www.w3.org/2000/svg" width="24" height="24" viewBox="0 0 24 24" fill="currentColor" tags="password,login,authentication,secure,unlock" categories="security,account">
  <path d="M 16.173828,0.96484375 C 14.534192,0.83556882 12.902204,1.2633041 11.552734,2.109375 9.0257691,3.6936949 7.4874689,6.8242357 8.34375,10.242188 L 1.2929687,17.292969 A 1.0001,1.0001 0 0 0 1,18 v 3 c 0,0.522222 0.1913292,1.05461 0.5683594,1.431641 C 1.9453895,22.808671 2.4777783,23 3,23 h 4 a 1.0001,1.0001 0 0 0 1,-1 v -2 h 2 a 1.0001,1.0001 0 0 0 1,-1 v -2 h 1 a 1.0001,1.0001 0 0 0 0.707031,-0.292969 l 1.050782,-1.050781 c 3.417951,0.856281 6.548492,-0.682019 8.132812,-3.208984 1.692142,-2.69894 1.709053,-6.5272758 -1.050781,-9.2871097 -1.379917,-1.379917 -3.02638,-2.0660376 -4.666016,-2.19531255 z M 15.980469,2.9179688 c 1.185664,0.085403 2.384421,0.5953584 3.445312,1.6562499 2.121783,2.1217832 2.035172,4.7949862 0.771485,6.8105473 -1.263687,2.01556 -3.632084,3.259628 -6.46875,2.271484 a 1.0001,1.0001 0 0 0 -1.035157,0.236328 L 11.585938,15 H 10 a 1.0001,1.0001 0 0 0 -1,1 v 2 H 7 a 1.0001,1.0001 0 0 0 -1,1 v 2 H 3 v -2.585938 l 7.107422,-7.107421 a 1.0001,1.0001 0 0 0 0.236328,-1.035157 c -0.9881442,-2.8366657 0.255924,-5.2050627 2.271484,-6.4687496 1.007781,-0.6318435 2.17957,-0.970169 3.365235,-0.8847656 z"/>
  <g id="circle1" stroke-width="0">
    <path style="color:#000000;fill:currentColor;-inkscape-stroke:none" d="M 17,7.5 A 0.5,0.5 0 0 1 16.5,8 0.5,0.5 0 0 1 16,7.5 0.5,0.5 0 0 1 16.5,7 0.5,0.5 0 0 1 17,7.5 Z" id="path2"/>
    <path style="color:#000000;fill:#000000;-inkscape-stroke:none" d="M 16.5,6 C 15.683418,6 15,6.6834183 15,7.5 15,8.3165817 15.683418,9 16.5,9 17.316582,9 18,8.3165817 18,7.5 18,6.6834183 17.316582,6 16.5,6 Z m 0,1 C 16.764297,7 17,7.2357025 17,7.5 17,7.7642975 16.764297,8 16.5,8 16.235703,8 16,7.7642975 16,7.5 16,7.2357025 16.235703,7 16.5,7 Z" id="path3"/>
  </g>
</svg>
