<?xml version="1.0" encoding="UTF-8" standalone="no"?>
<svg xmlns="http://www.w3.org/2000/svg" xmlns:svg="http://www.w3.org/2000/svg" width="24" height="24" viewBox="0 0 24 24" fill="currentColor" tags="password,login,authentication,secure,unlock,car key" categories="security,account">
  
  <path d="M 14.099609 1.0039062 C 13.225814 1.0039062 12.352872 1.3326757 11.693359 1.9921875 L 7.9921875 5.6933594 C 6.6731639 7.012383 6.6731639 9.1887884 7.9921875 10.507812 L 8.0351562 10.550781 L 1.2929688 17.292969 A 1.0001 1.0001 0 0 0 1 18 L 1 21 C 1 21.522221 1.1913296 22.05461 1.5683594 22.431641 C 1.9453891 22.80867 2.4777788 23 3 23 L 7 23 A 1.0001 1.0001 0 0 0 8 22 L 8 20 L 10 20 A 1.0001 1.0001 0 0 0 11 19 L 11 17 L 12 17 A 1.0001 1.0001 0 0 0 12.707031 16.707031 L 13.449219 15.964844 L 13.492188 16.007812 C 14.81121 17.326836 16.987617 17.326836 18.306641 16.007812 L 22.007812 12.306641 C 23.326836 10.987617 23.326836 8.8112111 22.007812 7.4921875 L 16.507812 1.9921875 C 15.848301 1.3326757 14.973405 1.0039063 14.099609 1.0039062 z M 14.099609 3.046875 C 14.475812 3.046875 14.853263 3.1657636 15.09375 3.40625 L 20.59375 8.90625 C 21.074723 9.3872228 21.074723 10.411606 20.59375 10.892578 L 16.892578 14.59375 C 16.411606 15.074723 15.387223 15.074723 14.90625 14.59375 L 9.40625 9.09375 C 8.9252772 8.6127772 8.9252772 7.5883947 9.40625 7.1074219 L 13.107422 3.40625 C 13.347909 3.1657636 13.723408 3.046875 14.099609 3.046875 z M 14 6 A 1 1 0 0 0 13.292969 6.2929688 A 1 1 0 0 0 13.292969 7.7070312 L 16.292969 10.707031 A 1 1 0 0 0 17.707031 10.707031 A 1 1 0 0 0 17.707031 9.2929688 L 14.707031 6.2929688 A 1 1 0 0 0 14 6 z M 9.4492188 11.964844 L 12.035156 14.550781 L 11.585938 15 L 10 15 A 1.0001 1.0001 0 0 0 9 16 L 9 18 L 7 18 A 1.0001 1.0001 0 0 0 6 19 L 6 21 L 3 21 L 3 18.414062 L 9.4492188 11.964844 z "/>
</svg>
