<svg xmlns="http://www.w3.org/2000/svg" xmlns:svg="http://www.w3.org/2000/svg" width="24" height="24" viewBox="0 0 24 24" fill="currentColor" tags="password,login,authentication,secure,unlock" categories="security,account">
  <path d="M 16.173828,0.96484375 C 14.53419,0.83556869 12.902206,1.2633032 11.552734,2.109375 9.0257666,3.6936965 7.487468,6.8242322 8.34375,10.242188 L 1.8789062,16.707031 C 1.3165297,17.269238 1.0001698,18.032925 1,18.828125 V 21 c 0,1.092725 0.9072751,2 2,2 h 3 c 1.0927249,0 2,-0.907275 2,-2 v -1 h 1 c 1.092725,0 2,-0.907275 2,-2 v -1 h 0.171875 c 0.7952,-1.7e-4 1.558887,-0.31653 2.121094,-0.878906 l 0.464844,-0.464844 c 3.417955,0.856282 6.548491,-0.682017 8.132812,-3.208984 C 23.582769,9.7483233 23.59968,5.9199929 20.839844,3.1601563 19.459925,1.7802379 17.813466,1.0941188 16.173828,0.96484375 Z M 15.980469,2.9179688 c 1.185665,0.085403 2.38442,0.5953573 3.445312,1.6562499 2.121786,2.1217853 2.035173,4.7949842 0.771485,6.8105473 -1.263689,2.015562 -3.632081,3.259629 -6.46875,2.271484 a 1.0001,1.0001 0 0 0 -1.035157,0.236328 l -0.814453,0.814453 C 11.691142,14.894852 11.437454,14.999943 11.171875,15 H 11 c -1.0927249,0 -2,0.907275 -2,2 v 1 H 8 c -1.0927249,0 -2,0.907275 -2,2 v 1 H 3 v -2.171875 c 5.67e-5,-0.265579 0.1051478,-0.519267 0.2929688,-0.707031 L 10.107422,11.306641 A 1.0001,1.0001 0 0 0 10.34375,10.271484 C 9.3556048,7.4348154 10.599672,5.0664225 12.615234,3.8027344 13.623016,3.1708903 14.794803,2.8325653 15.980469,2.9179688 Z"/>
  <g id="circle1" style="opacity:1" stroke-width="0">
    <path d="M 17,7.5 A 0.5,0.5 0 0 1 16.5,8 0.5,0.5 0 0 1 16,7.5 0.5,0.5 0 0 1 16.5,7 0.5,0.5 0 0 1 17,7.5 Z"/>
    <path d="M 16.5,6 C 15.683418,6 15,6.6834175 15,7.5 15,8.3165825 15.683418,9 16.5,9 17.316582,9 18,8.3165825 18,7.5 18,6.6834175 17.316582,6 16.5,6 Z m 0,1 C 16.764298,7 17,7.2357023 17,7.5 17,7.7642977 16.764298,8 16.5,8 16.235702,8 16,7.7642977 16,7.5 16,7.2357023 16.235702,7 16.5,7 Z"/>
  </g>
</svg>
