<svg xmlns="http://www.w3.org/2000/svg" xmlns:svg="http://www.w3.org/2000/svg" width="24" height="24" viewBox="0 0 24 24" fill="currentColor" tags="password,login,authentication,secure,unlock,keychain,key ring,fob" categories="security,account">
  <path d="M 21 1 A 1 1 0 0 0 20.292969 1.2929688 L 11.330078 10.255859 C 10.254368 9.4672011 8.9298486 9 7.5 9 C 3.9219938 9 1 11.921994 1 15.5 C 1 19.078006 3.9219938 22 7.5 22 C 11.078006 22 14 19.078006 14 15.5 C 14 14.070151 13.532799 12.745632 12.744141 11.669922 L 15.5 8.9140625 L 17.09375 10.507812 A 1.0001 1.0001 0 0 0 17.099609 10.513672 C 17.869353 11.268171 19.130647 11.268171 19.900391 10.513672 A 1.0001 1.0001 0 0 0 19.90625 10.507812 L 22.007812 8.40625 A 1.0001 1.0001 0 0 0 22.013672 8.4003906 C 22.768171 7.6306471 22.768171 6.3693529 22.013672 5.5996094 A 1.0001 1.0001 0 0 0 22.007812 5.59375 L 20.414062 4 L 21.707031 2.7070312 A 1 1 0 0 0 21.707031 1.2929688 A 1 1 0 0 0 21 1 z M 19 5.4140625 L 20.585938 7 L 18.5 9.0859375 L 16.914062 7.5 L 19 5.4140625 z M 7.5 11 C 9.997126 11 12 13.002874 12 15.5 C 12 17.997126 9.997126 20 7.5 20 C 5.002874 20 3 17.997126 3 15.5 C 3 13.002874 5.002874 11 7.5 11 z "/>
</svg>
