<?xml version="1.0" encoding="UTF-8" standalone="no"?>
<svg xmlns="http://www.w3.org/2000/svg" xmlns:svg="http://www.w3.org/2000/svg" width="24" height="24" viewBox="0 0 24 24" fill="currentColor" tags="music,audio,sound,noise,notes,keys,chord,octave,midi,controller,instrument,electric,signal,digital,studio,production,producer,pianist,piano,play,performance,concert" categories="multimedia,devices">
  <path d="M 4 3 C 2.3552972 3 1 4.3552972 1 6 L 1 18 C 1 19.644703 2.3552972 21 4 21 L 20 21 C 21.644703 21 23 19.644703 23 18 L 23 6 C 23 4.3552972 21.644703 3 20 3 L 4 3 z M 4 5 L 20 5 C 20.571297 5 21 5.4287028 21 6 L 21 11 L 18 11 L 3 11 L 3 6 C 3 5.4287028 3.4287028 5 4 5 z M 6 7 A 1 1 0 0 0 5 8 A 1 1 0 0 0 6 9 L 10 9 A 1 1 0 0 0 11 8 A 1 1 0 0 0 10 7 L 6 7 z M 14 7 A 1 1 0 0 0 13 8 A 1 1 0 0 0 14 9 L 14.009766 9 A 1 1 0 0 0 15.009766 8 A 1 1 0 0 0 14.009766 7 L 14 7 z M 18 7 A 1 1 0 0 0 17 8 A 1 1 0 0 0 18 9 L 18.009766 9 A 1 1 0 0 0 19.009766 8 A 1 1 0 0 0 18.009766 7 L 18 7 z M 3 13 L 5 13 L 5 16 A 1 1 0 0 0 6 17 A 1 1 0 0 0 7 16 L 7 13 L 9 13 L 9 16 A 1 1 0 0 0 10 17 A 1 1 0 0 0 11 16 L 11 13 L 13 13 L 13 16 A 1 1 0 0 0 14 17 A 1 1 0 0 0 15 16 L 15 13 L 17 13 L 17 16 A 1 1 0 0 0 18 17 A 1 1 0 0 0 19 16 L 19 13 L 21 13 L 21 18 C 21 18.571297 20.571297 19 20 19 L 4 19 C 3.4287028 19 3 18.571297 3 18 L 3 13 z "/>
</svg>
