<?xml version="1.0" encoding="UTF-8" standalone="no"?>
<svg xmlns="http://www.w3.org/2000/svg" xmlns:svg="http://www.w3.org/2000/svg" width="24" height="24" viewBox="0 0 24 24" fill="currentColor" tags="layout,spell,settings,mouse" categories="text,devices,development">
  
  <path d="M 4 3 C 2.3553005 3 1 4.3553005 1 6 L 1 18 C 1 19.644699 2.3553005 21 4 21 L 20 21 C 21.644699 21 23 19.644699 23 18 L 23 6 C 23 4.3553005 21.644699 3 20 3 L 4 3 z M 4 5 L 20 5 C 20.571296 5 21 5.4287039 21 6 L 21 18 C 21 18.571296 20.571296 19 20 19 L 4 19 C 3.4287039 19 3 18.571296 3 18 L 3 6 C 3 5.4287039 3.4287039 5 4 5 z M 6 7 A 1 1 0 0 0 5 8 A 1 1 0 0 0 6 9 L 6.0019531 9 A 1 1 0 0 0 7.0019531 8 A 1 1 0 0 0 6.0019531 7 L 6 7 z M 10 7 A 1 1 0 0 0 9 8 A 1 1 0 0 0 10 9 L 10.001953 9 A 1 1 0 0 0 11.001953 8 A 1 1 0 0 0 10.001953 7 L 10 7 z M 14 7 A 1 1 0 0 0 13 8 A 1 1 0 0 0 14 9 L 14.001953 9 A 1 1 0 0 0 15.001953 8 A 1 1 0 0 0 14.001953 7 L 14 7 z M 18 7 A 1 1 0 0 0 17 8 A 1 1 0 0 0 18 9 L 18.001953 9 A 1 1 0 0 0 19.001953 8 A 1 1 0 0 0 18.001953 7 L 18 7 z M 8 11 A 1 1 0 0 0 7 12 A 1 1 0 0 0 8 13 L 8.0019531 13 A 1 1 0 0 0 9.0019531 12 A 1 1 0 0 0 8.0019531 11 L 8 11 z M 12 11 A 1 1 0 0 0 11 12 A 1 1 0 0 0 12 13 L 12.001953 13 A 1 1 0 0 0 13.001953 12 A 1 1 0 0 0 12.001953 11 L 12 11 z M 16 11 A 1 1 0 0 0 15 12 A 1 1 0 0 0 16 13 L 16.001953 13 A 1 1 0 0 0 17.001953 12 A 1 1 0 0 0 16.001953 11 L 16 11 z M 7 15 A 1 1 0 0 0 6 16 A 1 1 0 0 0 7 17 L 17 17 A 1 1 0 0 0 18 16 A 1 1 0 0 0 17 15 L 7 15 z "/>
</svg>
