<?xml version="1.0" encoding="UTF-8" standalone="no"?>
<svg xmlns="http://www.w3.org/2000/svg" xmlns:svg="http://www.w3.org/2000/svg" width="24" height="24" viewBox="0 0 24 24" fill="currentColor" tags="unkeys,layout,spell,settings,mouse" categories="devices,text,development">
  <path d="M 2 1 A 1 1 0 0 0 1.2929688 1.2929688 A 1 1 0 0 0 1.2929688 2.7070312 L 2.1992188 3.6132812 C 1.4742316 4.1631762 1 5.029156 1 6 L 1 18 C 1 19.64501 2.3549904 21 4 21 L 19.585938 21 L 21.292969 22.707031 A 1 1 0 0 0 22.707031 22.707031 A 1 1 0 0 0 22.707031 21.292969 L 2.7070312 1.2929688 A 1 1 0 0 0 2 1 z M 9.6894531 3 A 1 1 0 0 0 8.6894531 4 A 1 1 0 0 0 9.6894531 5 L 20 5 C 20.564129 5 21 5.4358706 21 6 L 21 16.410156 A 1 1 0 0 0 22 17.410156 A 1 1 0 0 0 23 16.410156 L 23 6 C 23 4.3549904 21.64501 3 20 3 L 9.6894531 3 z M 3.6484375 5.0625 L 5.6523438 7.0664062 A 1 1 0 0 0 5 8 A 1 1 0 0 0 6 9 L 6.0097656 9 A 1 1 0 0 0 6.9414062 8.3554688 L 13.585938 15 L 7 15 A 1 1 0 0 0 6 16 A 1 1 0 0 0 7 17 L 15.585938 17 L 17.585938 19 L 4 19 C 3.4358706 19 3 18.564129 3 18 L 3 6 C 3 5.5608253 3.2652453 5.2010719 3.6484375 5.0625 z M 14 7 A 1 1 0 0 0 13 8 A 1 1 0 0 0 14 9 L 14.009766 9 A 1 1 0 0 0 15.009766 8 A 1 1 0 0 0 14.009766 7 L 14 7 z M 18 7 A 1 1 0 0 0 17 8 A 1 1 0 0 0 18 9 L 18.009766 9 A 1 1 0 0 0 19.009766 8 A 1 1 0 0 0 18.009766 7 L 18 7 z M 8 11 A 1 1 0 0 0 7 12 A 1 1 0 0 0 8 13 L 8.0097656 13 A 1 1 0 0 0 9.0097656 12 A 1 1 0 0 0 8.0097656 11 L 8 11 z "/>
</svg>
