<?xml version="1.0" encoding="UTF-8" standalone="no"?>
<svg xmlns="http://www.w3.org/2000/svg" xmlns:svg="http://www.w3.org/2000/svg" width="24" height="24" viewBox="0 0 24 24" fill="currentColor" tags="lighting,household,floor,home,furniture" categories="furniture">
  <path d="M 9 1 A 1.0001 1.0001 0 0 0 8.0800781 1.6054688 L 5.0800781 8.6054688 A 1.0001 1.0001 0 0 0 6 10 L 11 10 L 11 21 L 9 21 A 1 1 0 0 0 8 22 A 1 1 0 0 0 9 23 L 12 23 L 15 23 A 1 1 0 0 0 16 22 A 1 1 0 0 0 15 21 L 13 21 L 13 10 L 18 10 A 1.0001 1.0001 0 0 0 18.919922 8.6054688 L 15.919922 1.6054688 A 1.0001 1.0001 0 0 0 15 1 L 9 1 z M 9.6601562 3 L 14.339844 3 L 16.482422 8 L 7.5175781 8 L 9.6601562 3 z "/>
</svg>
