<svg xmlns="http://www.w3.org/2000/svg" xmlns:svg="http://www.w3.org/2000/svg" width="24" height="24" viewBox="0 0 24 24" fill="currentColor" tags="lighting,household,wall,home,furniture" categories="home">
  <path d="M 11 3 C 10.185365 3.0005156 9.4448077 3.5013153 9.1425781 4.2578125 L 7.1425781 9.2578125 C 6.630607 10.539303 7.6200249 11.999127 9 12 L 13 12 L 13 16 C 13 16.564129 12.564129 17 12 17 L 9 17 C 9 15.35499 7.6450096 14 6 14 L 5 14 C 3.9072751 14 3 14.907275 3 16 L 3 20 C 3 21.092725 3.9072751 22 5 22 L 6 22 C 7.6450096 22 9 20.64501 9 19 L 12 19 C 13.64501 19 15 17.64501 15 16 L 15 12 L 19 12 C 20.380744 12.000507 21.369678 10.540017 20.857422 9.2578125 L 18.855469 4.2578125 L 18.857422 4.2578125 C 18.555145 3.5013153 17.814635 3.0005156 17 3 L 11 3 z M 11 5 L 17 5 L 19 10 L 14 10 L 9 10 L 11 5 z M 5 16 L 6 16 C 6.5641294 16 7 16.435871 7 17 L 7 18 L 7 19 C 7 19.564129 6.5641294 20 6 20 L 5 20 L 5 16 z "/>
</svg>
