<?xml version="1.0" encoding="UTF-8" standalone="no"?>
<svg xmlns="http://www.w3.org/2000/svg" xmlns:svg="http://www.w3.org/2000/svg" width="24" height="24" viewBox="0 0 24 24" fill="currentColor" tags="lighting,household,home,furniture" categories="home">
  <path d="M 12 1 A 1 1 0 0 0 11 2 L 11 6 L 6 6 A 1.0001 1.0001 0 0 0 5.0859375 6.59375 L 1.0859375 15.59375 A 1.0001 1.0001 0 0 0 2 17 L 8.0019531 17 C 8.016872 19.10902 9.7428876 20.996094 12 20.996094 C 14.257112 20.996094 15.983128 19.10902 15.998047 17 L 22 17 A 1.0001 1.0001 0 0 0 22.914062 15.59375 L 18.914062 6.59375 A 1.0001 1.0001 0 0 0 18 6 L 13 6 L 13 2 A 1 1 0 0 0 12 1 z M 6.6503906 8 L 17.349609 8 L 20.460938 15 L 14.845703 15 L 14.814453 15 L 9.1855469 15 L 9.1542969 15 L 3.5390625 15 L 6.6503906 8 z M 9.9921875 17 L 14.007812 17 C 14.022388 18.074644 13.171558 18.996094 12 18.996094 C 10.828442 18.996094 9.9776116 18.074644 9.9921875 17 z "/>
</svg>
