<?xml version="1.0" encoding="UTF-8" standalone="no"?>
<svg xmlns="http://www.w3.org/2000/svg" xmlns:svg="http://www.w3.org/2000/svg" width="24" height="24" viewBox="0 0 24 24" fill="currentColor" tags="lighting,household,home,furniture" categories="home">
  <path d="M 9 1 C 7.7921041 0.99989923 6.6955088 1.730916 6.2304688 2.8457031 L 3.1542969 10.230469 C 2.6183123 11.515323 3.6078323 13.000116 5 13 L 11 13 L 11 17 L 10 17 C 8.3549904 17 7 18.35499 7 20 L 7 21 C 7 22.092725 7.9072751 23 9 23 L 15 23 C 16.092725 23 17 22.092725 17 21 L 17 20 C 17 18.35499 15.64501 17 14 17 L 13 17 L 13 13 L 19 13 C 20.392168 13.000116 21.381688 11.515323 20.845703 10.230469 L 17.769531 2.8457031 C 17.304957 1.730332 16.208256 1.000151 15 1 L 9 1 z M 9 3 L 15 3 C 15.406548 3.0000508 15.767511 3.2399401 15.923828 3.6152344 L 19 11 L 5 11 L 8.0761719 3.6152344 C 8.2326445 3.2401404 8.5935776 2.9999661 9 3 z M 10 19 L 12 19 L 14 19 C 14.564129 19 15 19.435871 15 20 L 15 21 L 9 21 L 9 20 C 9 19.435871 9.4358706 19 10 19 z "/>
</svg>
