<?xml version="1.0" encoding="UTF-8" standalone="no"?>
<svg xmlns="http://www.w3.org/2000/svg" xmlns:svg="http://www.w3.org/2000/svg" width="24" height="24" viewBox="0 0 24 24" fill="currentColor" tags="lighting,household,home,furniture" categories="home">
  <path d="M 12 1 A 1 1 0 0 0 11 2 L 11 6 L 6 6 A 1.0001 1.0001 0 0 0 5.0859375 6.59375 L 1.0859375 15.59375 A 1.0001 1.0001 0 0 0 2 17 L 8.0058594 17 C 8.0206508 19.109115 9.7428032 20.996094 12 20.996094 C 14.257197 20.996094 15.979349 19.109115 15.994141 17 L 22 17 A 1.0001 1.0001 0 0 0 22.914062 15.59375 L 18.914062 6.59375 A 1.0001 1.0001 0 0 0 18 6 L 13 6 L 13 2 A 1 1 0 0 0 12 1 z M 6.6503906 8 L 17.349609 8 L 20.460938 15 L 3.5390625 15 L 6.6503906 8 z M 9.9941406 17 L 14.005859 17 C 14.020656 18.074819 13.171706 18.996094 12 18.996094 C 10.828294 18.996094 9.9793437 18.074819 9.9941406 17 z "/>
</svg>
