<svg xmlns="http://www.w3.org/2000/svg" xmlns:svg="http://www.w3.org/2000/svg" width="24" height="24" viewBox="0 0 24 24" fill="currentColor" tags="lighting,household,wall,home,furniture" categories="home">
  <path d="M 5 2 C 3.9072751 2 3 2.9072751 3 4 L 3 8 C 3 9.0927249 3.9072751 10 5 10 L 6 10 C 7.6450096 10 9 8.6450096 9 7 L 12 7 C 12.564129 7 13 7.4358706 13 8 L 13 12 L 11 12 C 10.185365 12.000516 9.4448077 12.501315 9.1425781 13.257812 L 7.1425781 18.257812 C 6.630607 19.539303 7.6200249 20.999127 9 21 L 19 21 C 20.380744 21.000507 21.369678 19.540017 20.857422 18.257812 L 18.855469 13.257812 L 18.857422 13.257812 C 18.555145 12.501314 17.814635 12.000516 17 12 L 15 12 L 15 8 C 15 6.3549904 13.64501 5 12 5 L 9 5 C 9 3.3549904 7.6450096 2 6 2 L 5 2 z M 5 4 L 6 4 C 6.5641294 4 7 4.4358706 7 5 L 7 6 L 7 7 C 7 7.5641294 6.5641294 8 6 8 L 5 8 L 5 4 z M 11 14 L 14 14 L 17 14 L 19 19 L 9 19 L 11 14 z "/>
</svg>
