<svg xmlns="http://www.w3.org/2000/svg" xmlns:svg="http://www.w3.org/2000/svg" width="24" height="24" viewBox="0 0 24 24" fill="currentColor" tags="lighting,household,floor,home,furniture" categories="home">
  <path d="M 9 1 C 8.1853648 1.0005156 7.4448077 1.5013153 7.1425781 2.2578125 L 5.1425781 7.2578125 C 4.630607 8.5393029 5.6200249 9.9991268 7 10 L 11 10 L 11 21 L 9 21 A 1 1 0 0 0 8 22 A 1 1 0 0 0 9 23 L 12 23 L 15 23 A 1 1 0 0 0 16 22 A 1 1 0 0 0 15 21 L 13 21 L 13 10 L 17 10 C 18.380744 10.000507 19.369678 8.5400172 18.857422 7.2578125 L 16.855469 2.2578125 L 16.857422 2.2578125 C 16.555145 1.5013153 15.814635 1.0005156 15 1 L 9 1 z M 9 3 L 15 3 L 17 8 L 7 8 L 9 3 z "/>
</svg>
