<?xml version="1.0" encoding="UTF-8" standalone="no"?>
<svg xmlns="http://www.w3.org/2000/svg" xmlns:svg="http://www.w3.org/2000/svg" width="24" height="24" viewBox="0 0 24 24" fill="currentColor" tags="lighting,household,wall,home,furniture" categories="furniture">
  
  <path d="M 11 3 A 1.0001 1.0001 0 0 0 10.080078 3.6054688 L 7.0800781 10.605469 A 1.0001 1.0001 0 0 0 8 12 L 13 12 L 13 16 C 13 16.564128 12.564128 17 12 17 L 9 17 C 9 15.354994 7.6450064 14 6 14 L 4 14 A 1.0001 1.0001 0 0 0 3 15 L 3 21 A 1.0001 1.0001 0 0 0 4 22 L 6 22 C 7.6450064 22 9 20.645006 9 19 L 12 19 C 13.645006 19 15 17.645006 15 16 L 15 12 L 20 12 A 1.0001 1.0001 0 0 0 20.919922 10.605469 L 17.919922 3.6054688 A 1.0001 1.0001 0 0 0 17 3 L 11 3 z M 11.660156 5 L 16.339844 5 L 18.482422 10 L 9.5175781 10 L 11.660156 5 z M 5 16 L 6 16 C 6.5641282 16 7 16.435872 7 17 L 7 18 L 7 19 C 7 19.564128 6.5641282 20 6 20 L 5 20 L 5 16 z "/>
</svg>
