<?xml version="1.0" encoding="UTF-8" standalone="no"?>
<svg xmlns="http://www.w3.org/2000/svg" xmlns:svg="http://www.w3.org/2000/svg" width="24" height="24" viewBox="0 0 24 24" fill="currentColor" tags="lighting,household,home,furniture" categories="home">
  <path d="M 12 1 A 1 1 0 0 0 11 2 L 11 6 L 7 6 C 6.2020985 5.9992904 5.4745294 6.4795306 5.1601562 7.2128906 L 2.1601562 14.212891 C 1.6084297 15.499939 2.5996809 17.001246 4 17 L 8.0039062 17 C 8.0178426 19.109047 9.7421136 20.996094 12 20.996094 C 14.257886 20.996094 15.982158 19.109047 15.996094 17 L 20 17 C 21.400319 17.0012 22.39157 15.499939 21.839844 14.212891 L 18.839844 7.2128906 C 18.525471 6.4795306 17.797902 5.9992904 17 6 L 13 6 L 13 2 A 1 1 0 0 0 12 1 z M 7 8 L 12 8 L 17 8 L 20 15 L 14.892578 15 L 14.763672 15 L 9.2363281 15 L 9.1074219 15 L 4 15 L 7 8 z M 9.9921875 17 L 14.007812 17 C 14.022241 18.074525 13.171723 18.996094 12 18.996094 C 10.828277 18.996094 9.9777593 18.074525 9.9921875 17 z "/>
</svg>
