<?xml version="1.0" encoding="UTF-8" standalone="no"?>
<svg xmlns="http://www.w3.org/2000/svg" xmlns:svg="http://www.w3.org/2000/svg" width="24" height="24" viewBox="0 0 24 24" fill="currentColor" tags="lighting,household,home,furniture" categories="home">
  <path d="M 8 1 A 1.0001 1.0001 0 0 0 7.0722656 1.6289062 L 3.0722656 11.628906 A 1.0001 1.0001 0 0 0 4 13 L 11 13 L 11 17 L 10 17 C 8.3545455 17 7 18.354545 7 20 L 7 22 A 1.0001 1.0001 0 0 0 8 23 L 16 23 A 1.0001 1.0001 0 0 0 17 22 L 17 20 C 17 18.35499 15.64501 17 14 17 L 13 17 L 13 13 L 20 13 A 1.0001 1.0001 0 0 0 20.927734 11.628906 L 16.927734 1.6289062 A 1.0001 1.0001 0 0 0 16 1 L 8 1 z M 8.6757812 3 L 15.322266 3 L 18.523438 11 L 5.4765625 11 L 8.6757812 3 z M 10 19 L 12 19 L 14 19 C 14.564129 19 15 19.435871 15 20 L 15 21 L 9 21 L 9 20 C 9 19.445455 9.4454545 19 10 19 z "/>
</svg>
