<svg xmlns="http://www.w3.org/2000/svg" xmlns:svg="http://www.w3.org/2000/svg" width="24" height="24" viewBox="0 0 24 24" fill="currentColor" tags="lighting,household,office,desk,home,furniture" categories="home">
  <path d="M 11 1.0058594 C 10.486158 1.0058594 9.972253 1.1997387 9.5859375 1.5859375 L 7.5859375 3.5859375 C 6.8135399 4.3585684 6.8135399 5.6414316 7.5859375 6.4140625 L 7.671875 6.5 L 3.5859375 10.585938 C 2.9704806 11.200603 2.8243209 12.154547 3.2265625 12.925781 L 5.3515625 17 L 5 17 C 3.3549904 17 2 18.35499 2 20 L 2 21 C 2 22.092725 2.9072751 23 4 23 L 10 23 C 11.092725 23 12 22.092725 12 21 L 12 20 C 12 18.35499 10.64501 17 9 17 L 7.6074219 17 L 5 12 L 9.0859375 7.9140625 L 9.8730469 8.7011719 L 11.041016 14.402344 C 11.34995 15.90923 13.326783 16.502167 14.414062 15.414062 L 21.414062 8.4140625 C 22.502168 7.3267844 21.90923 5.3499502 20.402344 5.0410156 L 14.701172 3.8730469 L 12.414062 1.5859375 C 12.027746 1.1997387 11.513842 1.0058594 11 1.0058594 z M 11 3 L 12.792969 4.7929688 L 10.792969 6.7929688 L 9.7929688 5.7929688 L 9 5 L 11 3 z M 14.533203 5.8808594 L 20 7 L 13 14 L 11.880859 8.5332031 L 14.533203 5.8808594 z M 5 19 L 6.9726562 19 L 7.0273438 19 L 9 19 C 9.5641294 19 10 19.435871 10 20 L 10 21 L 4 21 L 4 20 C 4 19.435871 4.4358706 19 5 19 z "/>
</svg>
