<?xml version="1.0" encoding="UTF-8" standalone="no"?>
<svg xmlns="http://www.w3.org/2000/svg" xmlns:svg="http://www.w3.org/2000/svg" width="24" height="24" viewBox="0 0 24 24" fill="currentColor" tags="lighting,household,office,desk,home,furniture" categories="furniture">
  <path d="M 11 1 A 1.0001 1.0001 0 0 0 10.292969 1.2929688 L 7.2929688 4.2929688 A 1.0001 1.0001 0 0 0 7.2929688 5.7070312 L 8.0859375 6.5 L 3.2929688 11.292969 A 1.0001 1.0001 0 0 0 3.1054688 12.447266 L 5.3828125 17 L 5 17 C 3.3545487 17 2 18.354549 2 20 L 2 22 A 1.0001 1.0001 0 0 0 3 23 L 11 23 A 1.0001 1.0001 0 0 0 12 22 L 12 20 C 12 18.354994 10.645006 17 9 17 L 7.6171875 17 L 5.2167969 12.197266 L 9.5 7.9140625 L 10.109375 8.5234375 L 12.039062 15.275391 A 1.0001 1.0001 0 0 0 13.707031 15.707031 L 21.707031 7.7070312 A 1.0001 1.0001 0 0 0 21.275391 6.0390625 L 14.523438 4.109375 L 11.707031 1.2929688 A 1.0001 1.0001 0 0 0 11 1 z M 11 3.4140625 L 12.585938 5 L 11 6.5859375 L 9.4140625 5 L 11 3.4140625 z M 14.291016 6.1230469 L 19.091797 7.4941406 L 13.494141 13.091797 L 12.123047 8.2910156 L 14.291016 6.1230469 z M 5 19 L 9 19 C 9.5641282 19 10 19.435872 10 20 L 10 21 L 4 21 L 4 20 C 4 19.445456 4.4454557 19 5 19 z "/>
</svg>
