<?xml version="1.0" encoding="UTF-8" standalone="no"?>
<svg xmlns="http://www.w3.org/2000/svg" xmlns:svg="http://www.w3.org/2000/svg" width="24" height="24" viewBox="0 0 24 24" fill="currentColor" tags="bank,building,capitol,finance,money" categories="money,maps,buildings">
  <path d="M 11.814453 1.0175781 A 1.0001 1.0001 0 0 0 11.470703 1.1523438 L 3.4707031 6.1523438 A 1.0001 1.0001 0 0 0 4 8 L 20 8 A 1.0001 1.0001 0 0 0 20.529297 6.1523438 L 12.529297 1.1523438 A 1.0001 1.0001 0 0 0 11.814453 1.0175781 z M 12 3.1777344 L 16.513672 6 L 7.4863281 6 L 12 3.1777344 z M 6 10 A 1 1 0 0 0 5 11 L 5 18 A 1 1 0 0 0 6 19 A 1 1 0 0 0 7 18 L 7 11 A 1 1 0 0 0 6 10 z M 10 10 A 1 1 0 0 0 9 11 L 9 18 A 1 1 0 0 0 10 19 A 1 1 0 0 0 11 18 L 11 11 A 1 1 0 0 0 10 10 z M 14 10 A 1 1 0 0 0 13 11 L 13 18 A 1 1 0 0 0 14 19 A 1 1 0 0 0 15 18 L 15 11 A 1 1 0 0 0 14 10 z M 18 10 A 1 1 0 0 0 17 11 L 17 18 A 1 1 0 0 0 18 19 A 1 1 0 0 0 19 18 L 19 11 A 1 1 0 0 0 18 10 z M 3 21 A 1 1 0 0 0 2 22 A 1 1 0 0 0 3 23 L 21 23 A 1 1 0 0 0 22 22 A 1 1 0 0 0 21 21 L 3 21 z "/>
</svg>
