<svg xmlns="http://www.w3.org/2000/svg" xmlns:svg="http://www.w3.org/2000/svg" width="24" height="24" viewBox="0 0 24 24" fill="currentColor" tags="bank,building,capitol,finance,money,museum,art gallery,hall,institute,pediment,portico,columns,pillars,classical,architecture,government,institution" categories="finance,navigation,buildings">
  <path d="M 12.003906 0.99804688 C 11.551902 0.99650587 11.100281 1.0964174 10.683594 1.2988281 A 1.0001 1.0001 0 0 0 10.679688 1.3007812 L 2.8144531 5.1523438 C 2.1722347 5.4673688 1.8748788 6.2376555 2.0136719 6.8378906 C 2.152465 7.4381257 2.7592949 8 3.4746094 8 L 20.525391 8 C 21.240705 8 21.849066 7.4383925 21.988281 6.8378906 C 22.127497 6.2373888 21.828071 5.4668565 21.185547 5.1523438 L 13.322266 1.3066406 L 13.320312 1.3066406 C 12.905544 1.1019674 12.455275 0.99958562 12.003906 0.99804688 z M 11.998047 2.9960938 C 12.148689 2.9963445 12.298587 3.0309577 12.4375 3.0996094 A 1.0001 1.0001 0 0 0 12.441406 3.1015625 L 18.367188 6 L 5.6308594 6 L 11.556641 3.0976562 C 11.696018 3.0299517 11.847405 2.995843 11.998047 2.9960938 z M 6 10 A 1 1 0 0 0 5 11 L 5 18 A 1 1 0 0 0 6 19 A 1 1 0 0 0 7 18 L 7 11 A 1 1 0 0 0 6 10 z M 10 10 A 1 1 0 0 0 9 11 L 9 18 A 1 1 0 0 0 10 19 A 1 1 0 0 0 11 18 L 11 11 A 1 1 0 0 0 10 10 z M 14 10 A 1 1 0 0 0 13 11 L 13 18 A 1 1 0 0 0 14 19 A 1 1 0 0 0 15 18 L 15 11 A 1 1 0 0 0 14 10 z M 18 10 A 1 1 0 0 0 17 11 L 17 18 A 1 1 0 0 0 18 19 A 1 1 0 0 0 19 18 L 19 11 A 1 1 0 0 0 18 10 z M 3 21 A 1 1 0 0 0 2 22 A 1 1 0 0 0 3 23 L 21 23 A 1 1 0 0 0 22 22 A 1 1 0 0 0 21 21 L 3 21 z "/>
</svg>
