<?xml version="1.0" encoding="UTF-8" standalone="no"?>
<svg xmlns="http://www.w3.org/2000/svg" xmlns:svg="http://www.w3.org/2000/svg" width="24" height="24" viewBox="0 0 24 24" fill="currentColor" tags="area,surface,square metres,allotment,parcel,property,plane,acres,measure,distance,isometric,flag,golf course,hole" categories="design,tools,math,sports,gaming">
  <path d="M 12.056641 1.0019531 A 1.0001 1.0001 0 0 0 11 2 L 11 12 A 1 1 0 0 0 12 13 A 1 1 0 0 0 13 12 L 13 8.6171875 L 18.447266 5.8945312 A 1.0001 1.0001 0 0 0 18.447266 4.1054688 L 12.447266 1.1054688 A 1.0001 1.0001 0 0 0 12.056641 1.0019531 z M 13 3.6171875 L 15.763672 5 L 13 6.3828125 L 13 3.6171875 z M 8.0058594 10.988281 A 1 1 0 0 0 7.5039062 11.121094 L 2.0078125 14.259766 C 0.69937841 15.001289 0.69937841 16.998711 2.0078125 17.740234 L 10.503906 22.597656 C 11.430048 23.130544 12.574462 23.13011 13.5 22.595703 L 21.992188 17.740234 C 23.299764 16.999197 23.299954 15.004401 21.994141 14.261719 L 18.117188 12.054688 A 1 1 0 0 0 17.884766 11.921875 A 1 1 0 0 0 17.882812 11.921875 L 16.494141 11.130859 A 1 1 0 0 0 15.734375 11.035156 A 1 1 0 0 0 15.130859 11.505859 A 1 1 0 0 0 15.484375 12.857422 L 12.001953 14.849609 L 8.5078125 12.851562 A 1 1 0 0 0 8.8691406 11.494141 A 1 1 0 0 0 8.0058594 10.988281 z M 6.4921875 14.003906 L 9.9882812 16.001953 L 6.4941406 18.001953 L 2.9960938 16.001953 A 1.0001 1.0001 0 0 0 2.9921875 16 A 1.0001 1.0001 0 0 0 2.9960938 15.998047 L 6.4921875 14.003906 z M 17.503906 14.005859 L 21.005859 16 A 1.0001 1.0001 0 0 0 21.003906 16.001953 L 17.511719 17.998047 L 14.017578 16 L 17.503906 14.005859 z M 12.001953 17.154297 L 15.496094 19.150391 L 12.503906 20.861328 A 1.0001 1.0001 0 0 0 12.5 20.863281 C 12.189211 21.042716 11.810789 21.042716 11.5 20.863281 A 1.0001 1.0001 0 0 0 11.496094 20.861328 L 8.5078125 19.152344 L 12.001953 17.154297 z "/>
</svg>
