<svg xmlns="http://www.w3.org/2000/svg" xmlns:svg="http://www.w3.org/2000/svg" width="24" height="24" viewBox="0 0 24 24" fill="currentColor" tags="computer,screen,remote" categories="devices">
  <path d="M 6 4 C 4.3549904 4 3 5.3549904 3 7 L 3 15.525391 A 1.0001 1.0001 0 0 0 3 15.527344 C 3.0000281 15.592195 2.9946865 15.655789 2.9824219 15.71875 C 2.9774855 15.744091 2.969789 15.770045 2.9628906 15.794922 C 2.9457679 15.85667 2.9235608 15.916689 2.8945312 15.974609 L 1.8261719 18.101562 C 1.1742313 19.39863 2.1748622 21.010141 3.6269531 21 L 20.373047 21 C 21.825138 21.01014 22.825769 19.39863 22.173828 18.101562 L 22.173828 18.099609 L 21.105469 15.974609 C 21.076417 15.916664 21.054236 15.856714 21.037109 15.794922 C 21.030244 15.770152 21.022498 15.743981 21.017578 15.71875 C 21.00529 15.655735 20.999972 15.592256 21 15.527344 A 1.0001 1.0001 0 0 0 21 15.525391 L 21 7 C 21 5.3549904 19.64501 4 18 4 L 6 4 z M 6 6 L 18 6 C 18.564129 6 19 6.4358706 19 7 L 19 14.986328 L 5 14.986328 L 5 7 C 5 6.4358706 5.4358706 6 6 6 z M 4.6230469 16.986328 L 19.376953 16.986328 L 20.386719 18.998047 A 1.0001 1.0001 0 0 0 20.386719 19 A 1.0001 1.0001 0 0 0 20.380859 19 L 3.6191406 19 A 1.0001 1.0001 0 0 0 3.6132812 19 A 1.0001 1.0001 0 0 0 3.6132812 18.998047 L 4.6230469 16.986328 z "/>
</svg>
