<svg xmlns="http://www.w3.org/2000/svg" xmlns:svg="http://www.w3.org/2000/svg" width="24" height="24" viewBox="0 0 24 24" fill="currentColor" tags="computer,screen,remote" categories="devices">
  <path d="M 5 3 C 3.3552972 3 2 4.3552972 2 6 L 2 14 C 2 15.644703 3.3552972 17 5 17 L 19 17 C 20.644703 17 22 15.644703 22 14 L 22 6 C 22 4.3552972 20.644703 3 19 3 L 5 3 z M 5 5 L 19 5 C 19.571297 5 20 5.4287028 20 6 L 20 14 C 20 14.571297 19.571297 15 19 15 L 5 15 C 4.4287028 15 4 14.571297 4 14 L 4 6 C 4 5.4287028 4.4287028 5 5 5 z M 2 19 A 1 1 0 0 0 1 20 A 1 1 0 0 0 2 21 L 22 21 A 1 1 0 0 0 23 20 A 1 1 0 0 0 22 19 L 2 19 z "/>
</svg>
