<?xml version="1.0" encoding="UTF-8" standalone="no"?>
<svg xmlns="http://www.w3.org/2000/svg" xmlns:svg="http://www.w3.org/2000/svg" width="24" height="24" viewBox="0 0 24 24" fill="currentColor" tags="select,cursor" categories="arrows,design,cursors">
  <path d="M 12 1 C 6.0476329 1 1 4.9042836 1 10 A 1.0001 1.0001 0 0 0 1 10.007812 C 1.0124455 11.590231 1.5116289 13.126786 2.4179688 14.419922 C 2.1323319 14.906782 2 15.456951 2 16 C 2 16.722222 2.2353472 17.457881 2.7519531 18.039062 C 3.0834022 18.411943 3.5374134 18.701374 4.0625 18.861328 C 4.2888017 20.41998 5.1224999 21.842363 6.4003906 22.800781 A 1 1 0 0 0 7.8007812 22.599609 A 1 1 0 0 0 7.5996094 21.199219 C 6.812168 20.608638 6.2796615 19.757524 6.0839844 18.8125 C 6.5207822 18.655276 6.9014673 18.406873 7.1953125 18.095703 C 8.0439571 18.428966 8.924394 18.677012 9.828125 18.826172 A 1 1 0 0 0 10.976562 18.001953 A 1 1 0 0 0 10.152344 16.853516 C 9.4160508 16.731992 8.693173 16.531869 7.9882812 16.259766 C 7.9951007 16.17324 8 16.086428 8 16 C 8 15.277778 7.7646528 14.542119 7.2480469 13.960938 C 6.731441 13.379755 5.9166665 13 5 13 C 4.6398146 13 4.2953308 13.05957 3.9785156 13.166016 C 3.3523951 12.228234 3.0096613 11.127812 3 9.9960938 C 3.0026775 6.2534266 6.9141088 3 12 3 C 17.083924 3 20.992349 6.2513465 20.998047 9.9921875 C 20.983937 10.571968 20.890944 11.145983 20.716797 11.699219 A 1 1 0 0 0 21.369141 12.953125 A 1 1 0 0 0 22.623047 12.300781 C 22.855299 11.562957 22.982912 10.794811 23 10.021484 A 1.0001 1.0001 0 0 0 23 10.019531 A 1.0001 1.0001 0 0 0 23 10.017578 A 1.0001 1.0001 0 0 0 23 10.015625 A 1.0001 1.0001 0 0 0 23 10.013672 A 1.0001 1.0001 0 0 0 23 10.011719 A 1.0001 1.0001 0 0 0 23 10.009766 A 1.0001 1.0001 0 0 0 23 10.007812 A 1.0001 1.0001 0 0 0 23 10.005859 A 1.0001 1.0001 0 0 0 23 10.003906 A 1.0001 1.0001 0 0 0 23 10.001953 A 1.0001 1.0001 0 0 0 23 10 C 23 4.9042836 17.952367 1 12 1 z M 14.300781 10.339844 C 13.586961 10.360844 12.999691 10.965559 13 11.679688 L 13 21.679688 A 1.0001 1.0001 0 0 0 13 21.714844 C 13.0198 22.276076 13.39254 22.773071 13.925781 22.949219 A 1.0001 1.0001 0 0 0 14.240234 23 L 14.330078 23 C 14.754123 23 15.155729 22.800174 15.410156 22.460938 A 1.0001 1.0001 0 0 0 15.441406 22.416016 L 17.714844 19.009766 L 21.648438 19.009766 C 22.231502 19.021906 22.757634 18.610344 22.929688 18.126953 C 23.101743 17.643562 22.955707 16.991798 22.496094 16.632812 L 15.179688 10.652344 C 14.976957 10.483402 14.660078 10.339844 14.330078 10.339844 A 1.0001 1.0001 0 0 0 14.300781 10.339844 z M 15 13.087891 L 19.798828 17.009766 L 17.179688 17.009766 A 1.0001 1.0001 0 0 0 16.347656 17.455078 L 15 19.472656 L 15 13.087891 z M 5 15 C 5.4166663 15 5.6018927 15.120244 5.7519531 15.289062 C 5.9020136 15.45788 6 15.722222 6 16 C 6 16.277778 5.9020136 16.542119 5.7519531 16.710938 C 5.6018927 16.879756 5.4166663 17 5 17 C 4.5833337 17 4.3981073 16.879756 4.2480469 16.710938 C 4.0979864 16.542119 4 16.277778 4 16 C 4 15.722222 4.0979864 15.45788 4.2480469 15.289062 C 4.3981073 15.120243 4.5833337 15 5 15 z "/>
</svg>
