<?xml version="1.0" encoding="UTF-8" standalone="no"?>
<svg xmlns="http://www.w3.org/2000/svg" xmlns:svg="http://www.w3.org/2000/svg" width="24" height="24" viewBox="0 0 24 24" fill="currentColor" tags="select,cursor" categories="design,cursors">
  <path d="M 12 1 C 6.0448013 1 1 4.9061693 1 10 C 0.99996686 11.574884 1.5074832 13.113379 2.4355469 14.453125 C 2.1595933 14.906207 2 15.435648 2 16 C 2 17.317387 2.8695032 18.449254 4.0605469 18.847656 C 4.2837272 20.412039 5.118544 21.839398 6.4003906 22.800781 A 1 1 0 0 0 7.8007812 22.599609 A 1 1 0 0 0 7.5996094 21.199219 C 6.8080531 20.605552 6.2732112 19.748171 6.0800781 18.796875 C 6.4868964 18.637714 6.8507597 18.391457 7.1503906 18.082031 C 8.6606812 18.687487 10.317555 18.999844 12 19 C 17.9552 19 23 15.093828 23 10 C 23 4.9061693 17.955199 1 12 1 z M 12 3 C 17.090496 3 21 6.2572687 21 10 C 21 13.742728 17.090495 17 12 17 C 10.601701 16.999871 9.2266937 16.741724 7.9882812 16.259766 C 7.9958327 16.173817 8 16.087761 8 16 C 8 14.35499 6.6450096 13 5 13 C 4.645287 13 4.3033942 13.062408 3.9863281 13.177734 C 3.3308284 12.184501 2.9999768 11.099922 3 10 C 3 6.2572687 6.9095039 3 12 3 z M 5 15 C 5.5641294 15 6 15.435871 6 16 C 6 16.564129 5.5641294 17 5 17 C 4.4358706 17 4 16.564129 4 16 C 4 15.435871 4.4358706 15 5 15 z "/>
</svg>
