<?xml version="1.0" encoding="UTF-8" standalone="no"?>
<svg xmlns="http://www.w3.org/2000/svg" xmlns:svg="http://www.w3.org/2000/svg" width="24" height="24" viewBox="0 0 24 24" fill="currentColor" tags="select,cursor" categories="design,cursors">
  <path d="M 12 1 C 6.0636364 1 1 4.9181818 1 10 C 0.99970683 11.594822 1.4869288 13.150165 2.3964844 14.457031 C 2.1257504 14.93457 2 15.470844 2 16 C 2 16.722222 2.2353472 17.457881 2.7519531 18.039062 C 3.0833106 18.41184 3.5375976 18.701346 4.0625 18.861328 C 4.2888843 20.419827 5.1226066 21.842443 6.4003906 22.800781 A 1 1 0 0 0 7.8007812 22.599609 A 1 1 0 0 0 7.5996094 21.199219 C 6.8125117 20.608895 6.2798707 19.75703 6.0839844 18.8125 C 6.4992619 18.66309 6.8647982 18.432442 7.1523438 18.142578 C 8.6990725 18.734356 10.346567 19.024231 12.005859 18.998047 C 17.939488 18.995256 23 15.080008 23 10 C 23 4.9181818 17.936364 1 12 1 z M 12 3 C 17.063636 3 21 6.2818182 21 10 C 21 13.718182 17.063636 17 12 17 A 1.0001 1.0001 0 0 0 11.982422 17 C 10.616839 17.0228 9.2616611 16.790696 7.984375 16.318359 C 7.9947183 16.212012 8 16.106301 8 16 C 8 15.277778 7.7646528 14.542119 7.2480469 13.960938 C 6.731441 13.379755 5.9166665 13 5 13 C 4.6276335 13 4.2728484 13.062405 3.9472656 13.175781 C 3.3308407 12.233388 2.9997922 11.130192 3 10 C 3 6.2818182 6.9363636 3 12 3 z M 5 15 C 5.4166663 15 5.6018927 15.120244 5.7519531 15.289062 C 5.9020136 15.45788 6 15.722222 6 16 C 6 16.277778 5.9020136 16.542119 5.7519531 16.710938 C 5.6018927 16.879756 5.4166663 17 5 17 C 4.5833337 17 4.3981073 16.879756 4.2480469 16.710938 C 4.0979864 16.542119 4 16.277778 4 16 C 4 15.722222 4.0979864 15.45788 4.2480469 15.289062 C 4.3981073 15.120243 4.5833337 15 5 15 z "/>
</svg>
