<?xml version="1.0" encoding="UTF-8" standalone="no"?>
<svg xmlns="http://www.w3.org/2000/svg" xmlns:svg="http://www.w3.org/2000/svg" width="24" height="24" viewBox="0 0 24 24" fill="currentColor" tags="select,cursor" categories="arrows,design,cursors">
  <path d="M 12 1 C 6.0476448 1 1 4.9042938 1 10 A 1.0001 1.0001 0 0 0 1 10.007812 C 1.0124455 11.590228 1.5116307 13.126788 2.4179688 14.419922 C 2.1323323 14.906782 2 15.456952 2 16 C 2 16.72222 2.2353482 17.457882 2.7519531 18.039062 C 3.0834015 18.411943 3.5374138 18.701374 4.0625 18.861328 C 4.2888018 20.419977 5.1225025 21.842365 6.4003906 22.800781 A 1 1 0 0 0 7.8007812 22.599609 A 1 1 0 0 0 7.5996094 21.199219 C 6.8121695 20.608639 6.2796615 19.757523 6.0839844 18.8125 C 6.520782 18.655276 6.9014678 18.406872 7.1953125 18.095703 C 8.0439562 18.428965 8.9243958 18.677012 9.828125 18.826172 A 1 1 0 0 0 10.976562 18.001953 A 1 1 0 0 0 10.152344 16.853516 C 9.4160523 16.731992 8.6931723 16.531868 7.9882812 16.259766 C 7.9951007 16.17324 8 16.086428 8 16 C 8 15.27778 7.7646518 14.542118 7.2480469 13.960938 C 6.731442 13.379756 5.9166647 13 5 13 C 4.6398154 13 4.2953305 13.05957 3.9785156 13.166016 C 3.3523962 12.228235 3.0096612 11.127809 3 9.9960938 C 3.0026775 6.2534342 6.914119 3 12 3 C 17.083914 3 20.992349 6.251354 20.998047 9.9921875 C 20.983937 10.571966 20.890944 11.145983 20.716797 11.699219 A 1 1 0 0 0 21.369141 12.953125 A 1 1 0 0 0 22.623047 12.300781 C 22.855299 11.562959 22.982912 10.79481 23 10.021484 A 1.0001 1.0001 0 0 0 23 10.019531 A 1.0001 1.0001 0 0 0 23 10.017578 A 1.0001 1.0001 0 0 0 23 10.015625 A 1.0001 1.0001 0 0 0 23 10.013672 A 1.0001 1.0001 0 0 0 23 10.011719 A 1.0001 1.0001 0 0 0 23 10.009766 A 1.0001 1.0001 0 0 0 23 10.007812 A 1.0001 1.0001 0 0 0 23 10.005859 A 1.0001 1.0001 0 0 0 23 10.003906 A 1.0001 1.0001 0 0 0 23 10.001953 A 1.0001 1.0001 0 0 0 23 10 C 23 4.9042938 17.952355 1 12 1 z M 14.300781 10.339844 C 13.586963 10.360844 12.999691 10.965559 13 11.679688 L 13 21.679688 A 1.0001 1.0001 0 0 0 13 21.714844 C 13.0198 22.276075 13.392542 22.773071 13.925781 22.949219 A 1.0001 1.0001 0 0 0 14.240234 23 L 14.330078 23 C 14.754123 23 15.15573 22.800173 15.410156 22.460938 A 1.0001 1.0001 0 0 0 15.441406 22.416016 L 17.714844 19.009766 L 21.648438 19.009766 C 22.2315 19.021906 22.757634 18.610344 22.929688 18.126953 C 23.101742 17.643563 22.955696 16.991796 22.496094 16.632812 L 15.179688 10.652344 C 14.976958 10.483403 14.660078 10.339844 14.330078 10.339844 A 1.0001 1.0001 0 0 0 14.300781 10.339844 z M 15 13.087891 L 19.798828 17.009766 L 17.179688 17.009766 A 1.0001 1.0001 0 0 0 16.347656 17.455078 L 15 19.472656 L 15 13.087891 z M 5 15 C 5.4166655 15 5.601893 15.120245 5.7519531 15.289062 C 5.9020133 15.457879 6 15.722222 6 16 C 6 16.277778 5.9020133 16.542121 5.7519531 16.710938 C 5.601893 16.879755 5.4166655 17 5 17 C 4.5833345 17 4.398107 16.879755 4.2480469 16.710938 C 4.0979867 16.542121 4 16.277778 4 16 C 4 15.722222 4.0979867 15.457879 4.2480469 15.289062 C 4.398107 15.120245 4.5833345 15 5 15 z "/>
</svg>
