<svg xmlns="http://www.w3.org/2000/svg" xmlns:svg="http://www.w3.org/2000/svg" width="24" height="24" viewBox="0 0 24 24" fill="currentColor" tags="select,cursor" categories="design,cursors">
  <path d="M 11.945312 0.9140625 C 9.3896966 0.94388468 6.9336755 1.7479985 4.9902344 3.0566406 C 3.0467932 4.3652828 1.5708473 6.2021842 1.0644531 8.3535156 C 0.60811401 10.292196 1.0042696 12.451549 2.4316406 14.457031 C 2.1575968 14.908988 2 15.437769 2 16 C 2 17.317387 2.8695032 18.449254 4.0605469 18.847656 C 4.2837272 20.412039 5.118544 21.839398 6.4003906 22.800781 A 1 1 0 0 0 7.8007812 22.599609 A 1 1 0 0 0 7.5996094 21.199219 C 6.8080531 20.605552 6.2732112 19.748171 6.0800781 18.796875 C 6.4866332 18.637817 6.8508692 18.391175 7.1503906 18.082031 C 11.783002 19.949586 17.388344 18.977452 20.664062 15.550781 C 22.393534 13.741614 23.177436 11.476808 22.960938 9.2773438 C 22.74444 7.0778797 21.539825 4.9712593 19.5 3.4160156 C 17.155663 1.6286 14.500927 0.88424032 11.945312 0.9140625 z M 11.923828 2.9179688 C 14.072083 2.8852248 16.311127 3.4992921 18.287109 5.0058594 C 19.941819 6.2674755 20.812242 7.8647491 20.970703 9.4746094 C 21.129165 11.08447 20.588982 12.734594 19.21875 14.167969 C 16.64394 16.861431 11.847796 17.754882 7.9882812 16.259766 C 7.9957931 16.17404 8 16.087528 8 16 C 8 14.35499 6.6450096 13 5 13 C 4.641318 13 4.2966282 13.063841 3.9765625 13.181641 C 2.8942215 11.629182 2.6913271 10.17363 3.0117188 8.8125 C 3.3757711 7.2658839 4.4967377 5.7994195 6.1074219 4.7148438 C 7.718106 3.630268 9.7755729 2.9507127 11.923828 2.9179688 z M 5 15 C 5.5641294 15 6 15.435871 6 16 C 6 16.564129 5.5641294 17 5 17 C 4.4358706 17 4 16.564129 4 16 C 4 15.435871 4.4358706 15 5 15 z "/>
</svg>
