<svg xmlns="http://www.w3.org/2000/svg" xmlns:svg="http://www.w3.org/2000/svg" width="24" height="24" viewBox="0 0 24 24" fill="currentColor" tags="emoji,face,happy,good,emotion" categories="emoji">
  <path d="M 12 1 C 5.9367124 1 1 5.9367124 1 12 C 1 18.063288 5.9367124 23 12 23 C 18.063288 23 23 18.063288 23 12 C 23 5.9367124 18.063288 1 12 1 z M 12 3 C 16.982407 3 21 7.0175926 21 12 C 21 16.982407 16.982407 21 12 21 C 7.0175926 21 3 16.982407 3 12 C 3 7.0175926 7.0175926 3 12 3 z M 9 8 A 1 1 0 0 0 8 9 A 1 1 0 0 0 9 10 L 9.0097656 10 A 1 1 0 0 0 10.009766 9 A 1 1 0 0 0 9.0097656 8 L 9 8 z M 15 8 A 1 1 0 0 0 14 9 A 1 1 0 0 0 15 10 L 15.009766 10 A 1 1 0 0 0 16.009766 9 A 1 1 0 0 0 15.009766 8 L 15 8 z M 6 12 A 1.0001 1.0001 0 0 0 5.0136719 13.166016 C 5.5868623 16.559099 8.560464 19.039146 12 18.998047 C 15.439536 19.039147 18.413138 16.559099 18.986328 13.166016 A 1.0001 1.0001 0 0 0 18 12 L 6 12 z M 7.40625 14 L 16.59375 14 C 15.79893 15.795311 14.058893 17.028575 12.013672 17 A 1.0001 1.0001 0 0 0 11.986328 17 C 9.9411027 17.028575 8.2010701 15.795311 7.40625 14 z "/>
</svg>
