<svg xmlns="http://www.w3.org/2000/svg" xmlns:svg="http://www.w3.org/2000/svg" width="24" height="24" viewBox="0 0 24 24" fill="currentColor" tags="stack,pile,pages,sheets,paperwork,copies,copy,duplicate,double,shortcuts" categories="design,layout">
  <path d="M 12 0.9921875 C 11.481704 0.9921875 10.963407 1.1269829 10.5 1.3945312 L 2.0078125 6.2597656 C 0.69937841 7.0012894 0.69937841 8.9987106 2.0078125 9.7402344 L 10.5 14.605469 C 11.426815 15.140566 12.573185 15.140566 13.5 14.605469 L 21.992188 9.7402344 C 23.300622 8.9987106 23.300622 7.0012894 21.992188 6.2597656 L 13.5 1.3945312 C 13.036593 1.1269828 12.518296 0.9921875 12 0.9921875 z M 12 2.9921875 C 12.172303 2.9921875 12.344606 3.037236 12.5 3.1269531 A 1.0001 1.0001 0 0 0 12.501953 3.1269531 L 21.001953 7.9980469 A 1.0001 1.0001 0 0 0 21.007812 8 A 1.0001 1.0001 0 0 0 21.001953 8.0019531 L 12.501953 12.873047 A 1.0001 1.0001 0 0 0 12.5 12.873047 C 12.189211 13.052481 11.810789 13.052481 11.5 12.873047 A 1.0001 1.0001 0 0 0 11.498047 12.873047 L 2.9980469 8.0019531 A 1.0001 1.0001 0 0 0 2.9921875 8 A 1.0001 1.0001 0 0 0 2.9980469 7.9980469 L 11.498047 3.1269531 A 1.0001 1.0001 0 0 0 11.5 3.1269531 C 11.655394 3.037236 11.827697 2.9921875 12 2.9921875 z M 4.0117188 13.285156 A 1 1 0 0 0 3.5097656 13.414062 L 2.0097656 14.257812 A 1.0001 1.0001 0 0 0 2.0078125 14.259766 C 0.69937841 15.001289 0.69937841 16.998711 2.0078125 17.740234 L 10.5 22.605469 C 11.426815 23.140566 12.573185 23.140566 13.5 22.605469 L 21.992188 17.740234 C 23.300622 16.998711 23.300622 15.001289 21.992188 14.259766 A 1.0001 1.0001 0 0 0 21.990234 14.257812 L 20.490234 13.414062 A 1 1 0 0 0 19.128906 13.794922 A 1 1 0 0 0 19.509766 15.15625 L 21.007812 16 A 1.0001 1.0001 0 0 0 21.001953 16.001953 L 12.501953 20.873047 A 1.0001 1.0001 0 0 0 12.5 20.873047 C 12.189211 21.052481 11.810789 21.052481 11.5 20.873047 A 1.0001 1.0001 0 0 0 11.498047 20.873047 L 2.9980469 16.001953 A 1.0001 1.0001 0 0 0 2.9921875 16 L 4.4902344 15.15625 A 1 1 0 0 0 4.8710938 13.794922 A 1 1 0 0 0 4.0117188 13.285156 z "/>
</svg>
