<?xml version="1.0" encoding="UTF-8" standalone="no"?>
<svg xmlns="http://www.w3.org/2000/svg" xmlns:svg="http://www.w3.org/2000/svg" width="24" height="24" viewBox="0 0 24 24" fill="currentColor" tags="stack,pile,pages,sheets,paperwork,copies,copy,duplicate,triple" categories="design,layout">
  <path d="M 12 1 C 11.575069 1 11.150995 1.0892962 10.755859 1.2695312 L 2.1972656 5.1640625 L 2.1953125 5.1660156 C 1.4369654 5.5017497 1.0039063 6.2667194 1.0039062 6.9941406 C 1.0039063 7.7224196 1.4372542 8.4891045 2.1972656 8.8242188 L 2.1855469 8.8203125 L 3.6757812 9.5 L 2.1640625 10.191406 A 1.0001 1.0001 0 0 0 2.1542969 10.195312 C 0.68529777 10.885842 0.68529777 13.123924 2.1542969 13.814453 A 1.0001 1.0001 0 0 0 2.1660156 13.820312 L 3.6679688 14.503906 L 2.1640625 15.191406 A 1.0001 1.0001 0 0 0 2.1542969 15.195312 C 0.68529777 15.885842 0.68529777 18.123924 2.1542969 18.814453 A 1.0001 1.0001 0 0 0 2.1660156 18.820312 L 10.765625 22.730469 A 1.0001 1.0001 0 0 0 10.767578 22.730469 C 11.553615 23.086402 12.456149 23.086402 13.242188 22.730469 A 1.0001 1.0001 0 0 0 13.244141 22.730469 L 21.8125 18.835938 L 21.814453 18.833984 C 22.5728 18.498251 23.005859 17.733281 23.005859 17.005859 C 23.005859 16.277581 22.572511 15.510896 21.8125 15.175781 L 20.337891 14.505859 L 21.8125 13.835938 L 21.814453 13.833984 C 22.5728 13.498251 23.005859 12.733281 23.005859 12.005859 C 23.005859 11.277581 22.572511 10.510896 21.8125 10.175781 L 20.34375 9.5078125 L 21.824219 8.8359375 L 21.828125 8.8320312 C 22.584805 8.4956794 23.015625 7.7324206 23.015625 7.0058594 C 23.015625 6.2775804 22.58423 5.5108955 21.824219 5.1757812 L 13.244141 1.2695312 C 12.849008 1.0893073 12.424931 1 12 1 z M 12 3 C 12.140996 3 12.281993 3.0296026 12.414062 3.0898438 A 1.0001 1.0001 0 0 0 12.416016 3.0898438 L 21.005859 7 A 1.0001 1.0001 0 0 0 21.015625 7.0058594 A 1.0001 1.0001 0 0 0 21.005859 7.0097656 L 17.601562 8.5566406 A 1 1 0 0 0 17.558594 8.5644531 A 1 1 0 0 0 17.482422 8.6113281 L 12.425781 10.910156 C 12.161644 11.030639 11.859842 11.030639 11.595703 10.910156 A 1.0001 1.0001 0 0 0 11.59375 10.910156 L 3.015625 7 A 1.0001 1.0001 0 0 0 3.0039062 6.9941406 A 1.0001 1.0001 0 0 0 3.0136719 6.9902344 L 11.583984 3.0898438 A 1.0001 1.0001 0 0 0 11.585938 3.0898438 C 11.718006 3.0296026 11.859004 3 12 3 z M 6.0859375 10.597656 L 10.765625 12.730469 C 11.555896 13.090937 12.465588 13.090937 13.255859 12.730469 L 17.927734 10.607422 L 20.996094 12 A 1.0001 1.0001 0 0 0 21.005859 12.005859 A 1.0001 1.0001 0 0 0 20.996094 12.009766 L 17.583984 13.560547 A 1 1 0 0 0 17.513672 13.591797 L 12.417969 15.908203 C 12.155263 16.027162 11.854502 16.027162 11.591797 15.908203 L 6.4296875 13.5625 L 3.0058594 12.005859 L 6.0859375 10.597656 z M 6.0800781 15.599609 L 10.765625 17.730469 A 1.0001 1.0001 0 0 0 10.767578 17.730469 C 11.553615 18.086402 12.456149 18.086402 13.242188 17.730469 A 1.0001 1.0001 0 0 0 13.244141 17.730469 L 17.921875 15.603516 L 20.996094 17 A 1.0001 1.0001 0 0 0 21.005859 17.005859 A 1.0001 1.0001 0 0 0 20.996094 17.009766 L 12.417969 20.908203 C 12.155263 21.027162 11.854502 21.027162 11.591797 20.908203 L 3.0058594 17.005859 L 6.0800781 15.599609 z "/>
</svg>
