<?xml version="1.0" encoding="UTF-8" standalone="no"?>
<svg xmlns="http://www.w3.org/2000/svg" xmlns:svg="http://www.w3.org/2000/svg" width="24" height="24" viewBox="0 0 24 24" fill="currentColor" tags="stack,pile,pages,sheets,paperwork,copies,copy" categories="design,layout">
  <path d="M 12 1 C 11.575069 1 11.150995 1.0892962 10.755859 1.2695312 L 2.1972656 5.1640625 L 2.1953125 5.1660156 C 1.4369654 5.5017497 1.0039063 6.2667194 1.0039062 6.9941406 C 1.0039063 7.7224196 1.4372542 8.4891045 2.1972656 8.8242188 L 2.1855469 8.8203125 L 10.765625 12.730469 C 11.555896 13.090937 12.465588 13.090937 13.255859 12.730469 L 21.824219 8.8359375 L 21.828125 8.8320312 C 22.584805 8.4956794 23.015625 7.7324206 23.015625 7.0058594 C 23.015625 6.2775804 22.58423 5.5108955 21.824219 5.1757812 L 13.244141 1.2695312 C 12.849008 1.0893073 12.424931 1 12 1 z M 12 3 C 12.140996 3 12.281993 3.0296026 12.414062 3.0898438 A 1.0001 1.0001 0 0 0 12.416016 3.0898438 L 21.005859 7 A 1.0001 1.0001 0 0 0 21.015625 7.0058594 A 1.0001 1.0001 0 0 0 21.005859 7.0097656 L 12.425781 10.910156 C 12.161644 11.030639 11.859842 11.030639 11.595703 10.910156 A 1.0001 1.0001 0 0 0 11.59375 10.910156 L 3.015625 7 A 1.0001 1.0001 0 0 0 3.0039062 6.9941406 A 1.0001 1.0001 0 0 0 3.0136719 6.9902344 L 11.583984 3.0898438 A 1.0001 1.0001 0 0 0 11.585938 3.0898438 C 11.718006 3.0296026 11.859004 3 12 3 z M 2.0332031 11.650391 A 1 1 0 0 0 1.6484375 11.714844 A 1 1 0 0 0 1.0898438 12.236328 A 1 1 0 0 0 1.5859375 13.560547 L 10.755859 17.720703 C 11.546131 18.081173 12.453869 18.081173 13.244141 17.720703 L 22.414062 13.560547 A 1 1 0 0 0 22.910156 12.236328 A 1 1 0 0 0 21.585938 11.740234 L 12.416016 15.898438 A 1.0001 1.0001 0 0 0 12.414062 15.900391 C 12.149924 16.020873 11.850075 16.020873 11.585938 15.900391 A 1.0001 1.0001 0 0 0 11.583984 15.898438 L 2.4140625 11.740234 A 1 1 0 0 0 2.0332031 11.650391 z M 2.0332031 16.650391 A 1 1 0 0 0 1.6484375 16.714844 A 1 1 0 0 0 1.0898438 17.236328 A 1 1 0 0 0 1.5859375 18.560547 L 10.755859 22.720703 C 11.546131 23.081173 12.453869 23.081173 13.244141 22.720703 L 22.414062 18.560547 A 1 1 0 0 0 22.910156 17.236328 A 1 1 0 0 0 21.585938 16.740234 L 12.416016 20.898438 A 1.0001 1.0001 0 0 0 12.414062 20.900391 C 12.149924 21.020873 11.850075 21.020873 11.585938 20.900391 A 1.0001 1.0001 0 0 0 11.583984 20.898438 L 2.4140625 16.740234 A 1 1 0 0 0 2.0332031 16.650391 z "/>
</svg>
