<svg xmlns="http://www.w3.org/2000/svg" xmlns:svg="http://www.w3.org/2000/svg" width="24" height="24" viewBox="0 0 24 24" fill="currentColor" tags="stack,pile,pages,sheets,paperwork,copies,copy" categories="design,layout">
  <path d="M 12 1 C 11.575068 1 11.150996 1.089296 10.755859 1.2695312 L 2.1972656 5.1640625 L 2.1953125 5.1660156 C 1.4369638 5.5017504 1.0039063 6.2667179 1.0039062 6.9941406 C 1.0039064 7.722421 1.4372526 8.4891038 2.1972656 8.8242188 L 2.1855469 8.8203125 L 10.765625 12.730469 C 11.555898 13.090939 12.465587 13.090939 13.255859 12.730469 L 21.824219 8.8359375 L 21.828125 8.8320312 C 22.584806 8.4956787 23.015625 7.7324221 23.015625 7.0058594 C 23.015625 6.277579 22.584232 5.5108962 21.824219 5.1757812 L 13.244141 1.2695312 C 12.849007 1.0893069 12.424932 1 12 1 z M 12 3 C 12.140997 3 12.281993 3.0296024 12.414062 3.0898438 A 1.0001 1.0001 0 0 0 12.416016 3.0898438 L 21.005859 7 A 1.0001 1.0001 0 0 0 21.015625 7.0058594 A 1.0001 1.0001 0 0 0 21.005859 7.0097656 L 12.425781 10.910156 C 12.161642 11.030639 11.859842 11.030639 11.595703 10.910156 A 1.0001 1.0001 0 0 0 11.59375 10.910156 L 3.015625 7 A 1.0001 1.0001 0 0 0 3.0039062 6.9941406 A 1.0001 1.0001 0 0 0 3.0136719 6.9902344 L 11.583984 3.0898438 A 1.0001 1.0001 0 0 0 11.585938 3.0898438 C 11.718006 3.0296025 11.859003 3 12 3 z M 2.0019531 11 A 1 1 0 0 0 1 11.998047 C 0.998073 12.77675 1.4534614 13.491306 2.1601562 13.818359 A 1.0001 1.0001 0 0 0 2.1660156 13.820312 L 10.765625 17.730469 A 1.0001 1.0001 0 0 0 10.767578 17.730469 C 11.553617 18.086403 12.456148 18.086403 13.242188 17.730469 A 1.0001 1.0001 0 0 0 13.244141 17.730469 L 21.820312 13.832031 C 22.541185 13.507927 23.006245 12.782609 23 11.992188 A 1 1 0 0 0 21.992188 11 A 1 1 0 0 0 21 12.007812 A 1.0001 1.0001 0 0 0 20.996094 12.009766 L 12.417969 15.908203 C 12.155263 16.027162 11.854503 16.027162 11.591797 15.908203 L 3 12.001953 A 1 1 0 0 0 2.0019531 11 z M 2.0019531 16 A 1 1 0 0 0 1 16.998047 C 0.998073 17.77675 1.4534614 18.491306 2.1601562 18.818359 A 1.0001 1.0001 0 0 0 2.1660156 18.820312 L 10.765625 22.730469 A 1.0001 1.0001 0 0 0 10.767578 22.730469 C 11.553617 23.086403 12.456148 23.086403 13.242188 22.730469 A 1.0001 1.0001 0 0 0 13.244141 22.730469 L 21.820312 18.832031 C 22.541185 18.507926 23.006245 17.78261 23 16.992188 A 1 1 0 0 0 21.992188 16 A 1 1 0 0 0 21 17.007812 A 1.0001 1.0001 0 0 0 20.996094 17.009766 L 12.417969 20.908203 C 12.155263 21.027162 11.854503 21.027162 11.591797 20.908203 L 3 17.001953 A 1 1 0 0 0 2.0019531 16 z "/>
</svg>
