<svg xmlns="http://www.w3.org/2000/svg" xmlns:svg="http://www.w3.org/2000/svg" width="24" height="24" viewBox="0 0 24 24" fill="currentColor" tags="stack,layers,add,new,increase,create,positive,copy,upgrade" categories="design,layout">
  <path d="M 12 1 C 11.575068 1 11.150996 1.089296 10.755859 1.2695312 L 2.1972656 5.1640625 L 2.1953125 5.1660156 C 1.4369638 5.5017504 1.0039063 6.2667179 1.0039062 6.9941406 C 1.0039064 7.722421 1.4372526 8.4891038 2.1972656 8.8242188 L 2.1855469 8.8203125 L 10.765625 12.730469 C 11.156493 12.908554 11.58024 13.000168 12.009766 13 C 12.439291 13.000168 12.863038 12.90855 13.253906 12.730469 L 21.822266 8.8359375 L 21.824219 8.8339844 C 22.583877 8.4987951 23.017578 7.7320221 23.017578 7.0039062 C 23.017578 6.2757905 22.583877 5.5109705 21.824219 5.1757812 L 13.244141 1.2695312 C 12.848954 1.0893001 12.424932 1 12 1 z M 12 3 C 12.140997 3 12.281993 3.0296024 12.414062 3.0898438 A 1.0001 1.0001 0 0 0 12.416016 3.0898438 L 21.005859 7 A 1.0001 1.0001 0 0 0 21.017578 7.0039062 A 1.0001 1.0001 0 0 0 21.005859 7.0097656 L 12.425781 10.910156 C 12.295469 10.969526 12.152965 11.00006 12.009766 11 C 11.866566 11.000056 11.724062 10.969526 11.59375 10.910156 L 3.015625 7 A 1.0001 1.0001 0 0 0 3.0039062 6.9941406 A 1.0001 1.0001 0 0 0 3.0136719 6.9902344 L 11.583984 3.0898438 A 1.0001 1.0001 0 0 0 11.585938 3.0898438 C 11.718006 3.0296025 11.859003 3 12 3 z M 2.0019531 11 A 1 1 0 0 0 1 11.998047 C 0.998073 12.77675 1.4534614 13.491306 2.1601562 13.818359 A 1.0001 1.0001 0 0 0 2.1660156 13.820312 L 10.765625 17.730469 A 1.0001 1.0001 0 0 0 10.767578 17.730469 C 11.156373 17.906475 11.579081 17.998087 12.005859 17.998047 A 1 1 0 0 0 13.005859 16.998047 A 1 1 0 0 0 12.005859 15.998047 C 11.863576 15.99806 11.721417 15.966883 11.591797 15.908203 L 3 12.001953 A 1 1 0 0 0 2.0019531 11 z M 19 13 A 1 1 0 0 0 18 14 L 18 16 L 16 16 A 1 1 0 0 0 15 17 A 1 1 0 0 0 16 18 L 18 18 L 18 20 A 1 1 0 0 0 19 21 A 1 1 0 0 0 20 20 L 20 18 L 22 18 A 1 1 0 0 0 23 17 A 1 1 0 0 0 22 16 L 20 16 L 20 14 A 1 1 0 0 0 19 13 z M 2.0019531 16 A 1 1 0 0 0 1 16.998047 C 0.998073 17.77675 1.4534614 18.491306 2.1601562 18.818359 A 1.0001 1.0001 0 0 0 2.1660156 18.820312 L 10.765625 22.730469 A 1.0001 1.0001 0 0 0 10.767578 22.730469 C 11.553617 23.086403 12.456148 23.086403 13.242188 22.730469 A 1.0001 1.0001 0 0 0 13.244141 22.730469 L 15.359375 21.767578 A 1 1 0 0 0 15.855469 20.443359 A 1 1 0 0 0 14.53125 19.947266 L 12.417969 20.908203 C 12.155263 21.027162 11.854503 21.027162 11.591797 20.908203 L 3 17.001953 A 1 1 0 0 0 2.0019531 16 z "/>
</svg>
