<?xml version="1.0" encoding="UTF-8" standalone="no"?>
<svg xmlns="http://www.w3.org/2000/svg" xmlns:svg="http://www.w3.org/2000/svg" width="24" height="24" viewBox="0 0 24 24" fill="currentColor" tags="window,webpage,block,section" categories="layout">
  <path d="M 4 2 C 2.9092972 2 2 2.9092972 2 4 L 2 9 C 2 10.090703 2.9092972 11 4 11 L 20 11 C 21.090703 11 22 10.090703 22 9 L 22 4 C 22 2.9092972 21.090703 2 20 2 L 4 2 z M 4 4 L 20 4 L 20 9 L 4 9 L 4 4 z M 4 13 C 2.9092972 13 2 13.909297 2 15 L 2 20 C 2 21.090703 2.9092972 22 4 22 L 11 22 C 12.090703 22 13 21.090703 13 20 L 13 15 C 13 13.909297 12.090703 13 11 13 L 4 13 z M 17 13 C 15.909297 13 15 13.909297 15 15 L 15 20 C 15 21.090703 15.909297 22 17 22 L 20 22 C 21.090703 22 22 21.090703 22 20 L 22 15 C 22 13.909297 21.090703 13 20 13 L 17 13 z M 4 15 L 11 15 L 11 20 L 4 20 L 4 15 z M 17 15 L 20 15 L 20 20 L 17 20 L 17 15 z "/>
</svg>
