<?xml version="1.0" encoding="UTF-8" standalone="no"?>
<svg xmlns="http://www.w3.org/2000/svg" xmlns:svg="http://www.w3.org/2000/svg" width="24" height="24" viewBox="0 0 24 24" fill="currentColor" tags="masonry,brick" categories="design,layout">
  <path d="M 4 2 C 2.9092972 2 2 2.9092972 2 4 L 2 11 C 2 12.090703 2.9092972 13 4 13 L 9 13 C 10.090703 13 11 12.090703 11 11 L 11 4 C 11 2.9092972 10.090703 2 9 2 L 4 2 z M 15 2 C 13.909297 2 13 2.9092972 13 4 L 13 7 C 13 8.0907028 13.909297 9 15 9 L 20 9 C 21.090703 9 22 8.0907028 22 7 L 22 4 C 22 2.9092972 21.090703 2 20 2 L 15 2 z M 4 4 L 9 4 L 9 11 L 4 11 L 4 4 z M 15 4 L 20 4 L 20 7 L 15 7 L 15 4 z M 15 11 C 13.909297 11 13 11.909297 13 13 L 13 20 C 13 21.090703 13.909297 22 15 22 L 20 22 C 21.090703 22 22 21.090703 22 20 L 22 13 C 22 11.909297 21.090703 11 20 11 L 15 11 z M 15 13 L 20 13 L 20 20 L 15 20 L 15 13 z M 4 15 C 2.9092972 15 2 15.909297 2 17 L 2 20 C 2 21.090703 2.9092972 22 4 22 L 9 22 C 10.090703 22 11 21.090703 11 20 L 11 17 C 11 15.909297 10.090703 15 9 15 L 4 15 z M 4 17 L 9 17 L 9 20 L 4 20 L 4 17 z "/>
</svg>
