<?xml version="1.0" encoding="UTF-8" standalone="no"?>
<svg xmlns="http://www.w3.org/2000/svg" xmlns:svg="http://www.w3.org/2000/svg" width="24" height="24" viewBox="0 0 24 24" fill="currentColor" tags="sustainability,nature,energy,plant,autumn" categories="nature,sustainability,seasons">
  <path d="M 19.107422 1.0058594 A 1.0001 1.0001 0 0 0 18.220703 1.3730469 C 17.275951 2.544539 16.584568 3.1348749 15.390625 3.6503906 C 14.196682 4.1659063 12.448567 4.5696503 9.6113281 5.1171875 L 9.6308594 5.1152344 C 4.9204322 5.919956 2.6860693 9.9606411 3.0078125 13.6875 C 3.0652792 14.353155 3.2060719 15.014648 3.4238281 15.652344 C 1.8823394 16.962631 1 18.87243 1 21 A 1 1 0 0 0 2 22 A 1 1 0 0 0 3 21 C 3 19.570718 3.4375239 18.362144 4.3066406 17.470703 C 5.6385849 19.523152 7.931143 21.009308 11.003906 21 C 16.797051 20.997788 22 16.078027 22 10 C 22 6.0054799 20.905264 3.5742006 19.894531 1.5527344 A 1.0001 1.0001 0 0 0 19.107422 1.0058594 z M 18.660156 3.7734375 C 19.384555 5.3808055 20 7.121753 20 10 C 20 14.920606 15.645287 19 11 19 A 1.0001 1.0001 0 0 0 10.996094 19 C 8.549267 19.007412 6.8780991 17.923152 5.9277344 16.388672 C 6.3346372 16.216347 6.7821331 16.077817 7.2734375 15.980469 A 1.0001 1.0001 0 0 0 7.2753906 15.980469 C 9.9616543 15.447656 12.476043 13.938019 13.707031 12.707031 A 1 1 0 0 0 13.707031 11.292969 A 1 1 0 0 0 13 11 A 1 1 0 0 0 12.292969 11.292969 C 11.523957 12.061981 9.0385019 13.592344 6.8847656 14.019531 C 6.2725755 14.140832 5.7002838 14.324626 5.1699219 14.560547 C 5.087877 14.219181 5.032439 13.868753 5.0019531 13.515625 C 4.7543494 10.647548 6.2134661 7.7274865 9.96875 7.0859375 A 1.0001 1.0001 0 0 0 9.9902344 7.0820312 C 12.852996 6.5295723 14.702537 6.1258124 16.183594 5.4863281 C 17.159053 5.0651484 17.931586 4.4658265 18.660156 3.7734375 z "/>
</svg>
