<svg xmlns="http://www.w3.org/2000/svg" xmlns:svg="http://www.w3.org/2000/svg" width="24" height="24" viewBox="0 0 24 24" fill="currentColor" tags="salad,lettuce,vegetable,chard,cabbage,bok choy" categories="food-beverage,emoji,sustainability">
  <path d="M 18.341797 0.96875 C 17.532193 1.0115168 16.711404 1.3607625 15.953125 1.9042969 C 13.82677 0.48186933 10.999088 1.1421374 9.7167969 3.3515625 C 6.950498 2.576013 4.2020074 4.5925878 4.1621094 7.4882812 C 1.3129914 8.6714322 0.062183485 12.194837 1.8808594 14.835938 C 2.6770393 15.991099 3.336095 17.069587 3.2089844 17.943359 C 2.9816808 19.289704 2.2545939 20.079684 1.21875 21.375 A 1 1 0 0 0 1.21875 21.376953 A 1 1 0 0 0 1.2128906 22.617188 A 1 1 0 0 0 1.2148438 22.619141 A 1 1 0 0 0 1.2929688 22.707031 A 1 1 0 0 0 1.375 22.779297 A 1 1 0 0 0 1.375 22.78125 A 1 1 0 0 0 1.3828125 22.785156 A 1 1 0 0 0 2.6191406 22.785156 C 3.8933068 21.779075 4.7221412 21.010966 5.9765625 20.814453 C 7.1058703 20.833643 8.1914315 21.256324 9.0175781 22.029297 A 1.0001 1.0001 0 0 0 9.1269531 22.119141 C 11.775039 23.974162 15.333224 22.714211 16.511719 19.837891 C 19.407412 19.797991 21.423987 17.049502 20.648438 14.283203 C 22.857864 13.000912 23.518131 10.17323 22.095703 8.046875 C 22.716885 7.1802576 23.08537 6.2325383 23.03125 5.3125 C 22.963488 4.1605517 22.432135 3.1196348 21.65625 2.34375 C 20.880365 1.5678652 19.839448 1.0365119 18.6875 0.96875 C 18.572495 0.96198499 18.457455 0.96264046 18.341797 0.96875 z M 18.34375 2.9628906 C 18.419336 2.9600841 18.495165 2.9604233 18.570312 2.9648438 C 19.171489 3.0002067 19.780572 3.2961973 20.242188 3.7578125 C 20.703803 4.2194277 20.999793 4.8285112 21.035156 5.4296875 C 21.070516 6.0308638 20.89041 6.6447459 20.242188 7.2929688 A 1.0001 1.0001 0 0 0 20.25 8.7148438 C 21.624416 10.060946 21.100168 12.287484 19.269531 12.878906 A 1.0001 1.0001 0 0 0 18.697266 14.308594 C 19.729317 16.208994 18.191488 18.342443 16.0625 17.962891 A 1.0001 1.0001 0 0 0 14.914062 18.716797 C 14.421535 20.793333 12.078959 21.700347 10.320312 20.513672 C 9.2804128 19.565472 7.9676277 18.979988 6.578125 18.835938 L 17.707031 7.7070312 A 1 1 0 0 0 17.707031 6.2929688 A 1 1 0 0 0 16.292969 6.2929688 L 5.2226562 17.363281 C 5.1129881 15.874767 4.1921019 14.662823 3.5292969 13.701172 C 2.3188574 11.943359 3.2154079 9.5889861 5.2890625 9.0839844 A 1.0001 1.0001 0 0 0 6.0371094 7.9375 C 5.657557 5.8085119 7.7910063 4.2706828 9.6914062 5.3027344 A 1.0001 1.0001 0 0 0 11.121094 4.7304688 C 11.712516 2.8998317 13.939054 2.3755835 15.285156 3.75 A 1.0001 1.0001 0 0 0 16.707031 3.7578125 C 17.274226 3.1906175 17.814646 2.9825363 18.34375 2.9628906 z "/>
</svg>
