<svg xmlns="http://www.w3.org/2000/svg" xmlns:svg="http://www.w3.org/2000/svg" width="24" height="24" viewBox="0 0 24 24" fill="currentColor" tags="sustainability,nature,energy,plant,autumn" categories="nature,sustainability,seasons">
  <path d="M 18.982422 1 A 1.0001 1.0001 0 0 0 18.220703 1.3730469 C 17.275951 2.544539 16.584568 3.1348749 15.390625 3.6503906 C 14.196682 4.1659063 12.448567 4.5696503 9.6113281 5.1171875 L 9.6308594 5.1152344 C 4.9204322 5.919956 2.6860693 9.9606411 3.0078125 13.6875 C 3.0652777 14.353138 3.2041285 15.014664 3.421875 15.652344 C 1.8807457 16.962617 1 18.872697 1 21 A 1 1 0 0 0 2 22 A 1 1 0 0 0 3 21 C 3 19.571275 3.4362471 18.362045 4.3046875 17.470703 C 5.6365602 19.523537 7.9307721 21.009309 11.003906 21 C 16.797051 20.997788 22 16.078027 22 10 C 22 6.0054799 20.905264 3.5742006 19.894531 1.5527344 A 1.0001 1.0001 0 0 0 19.107422 1.0058594 A 1.0001 1.0001 0 0 0 18.982422 1 z M 18.660156 3.7734375 C 19.384555 5.3808055 20 7.121753 20 10 C 20 14.920606 15.645287 19 11 19 A 1.0001 1.0001 0 0 0 10.996094 19 C 8.5473779 19.007418 6.8718548 17.925037 5.921875 16.388672 C 6.3297393 16.215617 6.7806667 16.078107 7.2734375 15.980469 A 1.0001 1.0001 0 0 0 7.2753906 15.980469 C 9.9616543 15.447656 12.476043 13.938019 13.707031 12.707031 A 1 1 0 0 0 13.707031 11.292969 A 1 1 0 0 0 13 11 A 1 1 0 0 0 12.292969 11.292969 C 11.523957 12.061981 9.0385019 13.592344 6.8847656 14.019531 C 6.2731849 14.140711 5.6998416 14.323014 5.1699219 14.558594 C 5.0880245 14.217586 5.0324054 13.868364 5.0019531 13.515625 C 4.7543494 10.647548 6.2134661 7.7274865 9.96875 7.0859375 A 1.0001 1.0001 0 0 0 9.9902344 7.0820312 C 12.852996 6.5295723 14.702537 6.1258124 16.183594 5.4863281 C 17.159053 5.0651484 17.931586 4.4658265 18.660156 3.7734375 z "/>
</svg>
