<?xml version="1.0" encoding="UTF-8" standalone="no"?>
<svg xmlns="http://www.w3.org/2000/svg" xmlns:svg="http://www.w3.org/2000/svg" width="24" height="24" viewBox="0 0 24 24" fill="currentColor" tags="sustainability,nature,energy,plant,autumn" categories="nature,sustainability,seasons">
  <path d="M 19.107422 1.0058594 A 1.0001 1.0001 0 0 0 18.220703 1.3730469 C 17.275953 2.5445366 16.584566 3.134876 15.390625 3.6503906 C 14.196684 4.1659053 12.448561 4.5696513 9.6113281 5.1171875 L 9.6308594 5.1152344 C 4.9204416 5.9199544 2.6860699 9.9606485 3.0078125 13.6875 C 3.065279 14.353154 3.2060719 15.014649 3.4238281 15.652344 C 1.8823408 16.962631 1 18.872434 1 21 A 1 1 0 0 0 2 22 A 1 1 0 0 0 3 21 C 3 19.570721 3.4375245 18.362144 4.3066406 17.470703 C 5.6385846 19.52315 7.9311491 21.009308 11.003906 21 C 16.797039 20.997788 22 16.078015 22 10 C 22 6.0054879 20.905262 3.5741966 19.894531 1.5527344 A 1.0001 1.0001 0 0 0 19.107422 1.0058594 z M 18.660156 3.7734375 C 19.384555 5.3808023 20 7.1217588 20 10 C 20 14.920596 15.645278 19 11 19 A 1.0001 1.0001 0 0 0 10.996094 19 C 8.5492719 19.007412 6.8780989 17.923151 5.9277344 16.388672 C 6.3346366 16.216347 6.7821341 16.077817 7.2734375 15.980469 A 1.0001 1.0001 0 0 0 7.2753906 15.980469 C 9.9616489 15.447657 12.476045 13.938017 13.707031 12.707031 A 1 1 0 0 0 13.707031 11.292969 A 1 1 0 0 0 13 11 A 1 1 0 0 0 12.292969 11.292969 C 11.523959 12.061979 9.0384977 13.592345 6.8847656 14.019531 C 6.2725768 14.140832 5.700283 14.324626 5.1699219 14.560547 C 5.087877 14.219181 5.0324389 13.868752 5.0019531 13.515625 C 4.7543499 10.647554 6.2134736 7.7274852 9.96875 7.0859375 A 1.0001 1.0001 0 0 0 9.9902344 7.0820312 C 12.852991 6.5295733 14.702539 6.1258112 16.183594 5.4863281 C 17.159051 5.0651493 17.931588 4.4658251 18.660156 3.7734375 z "/>
</svg>
