<svg xmlns="http://www.w3.org/2000/svg" xmlns:svg="http://www.w3.org/2000/svg" width="24" height="24" viewBox="0 0 24 24" fill="currentColor" tags="pulpit,podium,stand" categories="communication,multimedia">
  <path d="M 14 1 A 1 1 0 0 0 13 2 A 1 1 0 0 0 14 3 L 17 3 L 17 5 L 3 5 C 1.6877067 4.9999089 0.70735616 6.3171328 1.0839844 7.5742188 A 1.0001 1.0001 0 0 0 1.0878906 7.5898438 L 2.1445312 10.923828 A 1.0001 1.0001 0 0 0 2.1464844 10.931641 C 2.5484237 12.162165 3.7055067 13.000552 5 13 L 7 13 L 7 21 C 7 22.090703 7.9092972 23 9 23 L 15 23 C 16.090703 23 17 22.090703 17 21 L 17 13 L 19 13 C 20.294889 13.000341 21.4521 12.160785 21.853516 10.929688 A 1.0001 1.0001 0 0 0 21.855469 10.921875 L 22.912109 7.5898438 A 1.0001 1.0001 0 0 0 22.916016 7.5742188 C 23.292604 6.3171199 22.312293 4.9999089 21 5 L 19 5 L 19 3 C 19 1.9072751 18.092725 1 17 1 L 14 1 z M 3.0019531 7 L 20.998047 7 L 19.951172 10.310547 C 19.815739 10.725906 19.436881 11.000115 19 11 L 17 11 C 17 9.9092972 16.090703 9 15 9 L 9 9 C 7.9092972 9 7 9.9092972 7 11 L 5 11 C 4.5632584 11.000186 4.1844364 10.725702 4.0488281 10.310547 L 3.0019531 7 z M 9 11 L 15 11 L 15 12 L 15 21 L 9 21 L 9 12 L 9 11 z "/>
</svg>
