<?xml version="1.0" encoding="UTF-8" standalone="no"?>
<svg xmlns="http://www.w3.org/2000/svg" xmlns:svg="http://www.w3.org/2000/svg" width="24" height="24" viewBox="0 0 24 24" fill="currentColor" tags="drop cap,text,format,typography,letter,font size" categories="text">
  <path d="M 7 4.0429688 C 6.4607903 4.0429688 5.9207836 4.3042145 5.6582031 4.828125 A 1.0001 1.0001 0 0 0 5.6445312 4.8574219 L 2.0917969 12.582031 A 1 1 0 0 0 2.5820312 13.908203 A 1 1 0 0 0 3.9082031 13.417969 L 4.5605469 12 L 9.4394531 12 L 10.091797 13.417969 A 1 1 0 0 0 11.417969 13.908203 A 1 1 0 0 0 11.908203 12.582031 L 8.3554688 4.8574219 A 1.0001 1.0001 0 0 0 8.3417969 4.828125 C 8.0792164 4.3042145 7.5392097 4.0429687 7 4.0429688 z M 15 5 A 1 1 0 0 0 14 6 A 1 1 0 0 0 15 7 L 21 7 A 1 1 0 0 0 22 6 A 1 1 0 0 0 21 5 L 15 5 z M 7 6.6953125 L 8.5195312 10 L 5.4804688 10 L 7 6.6953125 z M 15 11 A 1 1 0 0 0 14 12 A 1 1 0 0 0 15 13 L 21 13 A 1 1 0 0 0 22 12 A 1 1 0 0 0 21 11 L 15 11 z M 3 17 A 1 1 0 0 0 2 18 A 1 1 0 0 0 3 19 L 21 19 A 1 1 0 0 0 22 18 A 1 1 0 0 0 21 17 L 3 17 z "/>
</svg>
