<svg xmlns="http://www.w3.org/2000/svg" xmlns:svg="http://www.w3.org/2000/svg" width="24" height="24" viewBox="0 0 24 24" fill="currentColor" tags="books,reading,written,authors,stories,fiction,novels,information,knowledge,education,high school,university,college,academy,learning,study,research,collection,vinyl,records,albums,music,package" categories="text,photography,multimedia,navigation,development">
  <path d="M 4 2 C 2.9092972 2 2 2.9092972 2 4 L 2 20 C 2 21.090703 2.9092972 22 4 22 L 10 22 C 11.090703 22 12 21.090703 12 20 L 12 10.523438 L 15.660156 20.640625 A 1.0001 1.0001 0 0 0 15.671875 20.671875 C 16.07678 21.684138 17.195188 22.258643 18.271484 21.828125 L 20.146484 21.138672 A 1.0001 1.0001 0 0 0 20.171875 21.128906 C 21.184138 20.724001 21.758643 19.605593 21.328125 18.529297 L 15.839844 3.359375 A 1.0001 1.0001 0 0 0 15.828125 3.328125 C 15.423221 2.315862 14.304812 1.7413566 13.228516 2.171875 L 11.576172 2.7792969 C 11.207744 2.3073106 10.634377 2 10 2 L 4 2 z M 4 4 L 6 4 L 6 20 L 4 20 L 4 4 z M 8 4 L 10 4 L 10 20 L 8 20 L 8 4 z M 13.958984 4.0351562 C 13.953588 4.0379379 13.946456 4.0423022 13.943359 4.0449219 C 13.942553 4.0457733 13.940048 4.0480004 13.939453 4.0488281 L 13.939453 4.0507812 L 13.939453 4.0527344 L 13.9375 4.0527344 L 13.9375 4.0546875 L 13.9375 4.0566406 L 13.9375 4.0585938 L 13.939453 4.0605469 L 13.939453 4.0625 L 13.941406 4.0625 L 13.941406 4.0644531 L 13.943359 4.0664062 L 13.945312 4.0683594 L 13.947266 4.0703125 C 13.953218 4.0738438 13.962091 4.076045 13.966797 4.0761719 L 13.96875 4.0761719 L 13.96875 4.0742188 L 13.970703 4.0742188 L 19.458984 19.240234 A 1.0001 1.0001 0 0 0 19.470703 19.271484 C 19.465934 19.259563 19.459444 19.249301 19.455078 19.244141 C 19.454227 19.243334 19.452 19.24083 19.451172 19.240234 L 19.449219 19.240234 L 19.447266 19.240234 L 19.447266 19.238281 L 19.445312 19.238281 L 19.443359 19.238281 L 19.441406 19.238281 L 19.439453 19.240234 L 19.4375 19.240234 L 19.4375 19.242188 L 19.435547 19.242188 L 19.433594 19.244141 L 19.431641 19.246094 L 19.429688 19.248047 C 19.426156 19.254 19.423955 19.262872 19.423828 19.267578 L 19.423828 19.269531 L 19.425781 19.269531 L 19.425781 19.271484 L 17.554688 19.960938 A 1.0001 1.0001 0 0 0 17.542969 19.964844 C 17.548308 19.96207 17.553586 19.95769 17.556641 19.955078 C 17.557435 19.954229 17.559962 19.951997 17.560547 19.951172 L 17.560547 19.949219 L 17.560547 19.947266 L 17.5625 19.947266 L 17.5625 19.945312 L 17.5625 19.943359 L 17.5625 19.941406 L 17.560547 19.939453 L 17.560547 19.9375 L 17.558594 19.9375 L 17.558594 19.935547 L 17.556641 19.933594 L 17.554688 19.931641 L 17.552734 19.929688 C 17.546784 19.926173 17.537893 19.923949 17.533203 19.923828 L 17.53125 19.923828 L 17.53125 19.925781 L 17.529297 19.925781 L 12.041016 4.7597656 A 1.0001 1.0001 0 0 0 12.029297 4.7285156 C 12.034066 4.7404369 12.040556 4.7506993 12.044922 4.7558594 C 12.045773 4.7566655 12.048 4.7591704 12.048828 4.7597656 L 12.050781 4.7597656 L 12.052734 4.7597656 L 12.052734 4.7617188 L 12.054688 4.7617188 L 12.056641 4.7617188 L 12.058594 4.7617188 L 12.060547 4.7597656 L 12.0625 4.7597656 L 12.0625 4.7578125 L 12.064453 4.7578125 L 12.066406 4.7558594 L 12.068359 4.7539062 L 12.070312 4.7519531 C 12.073844 4.7460003 12.076045 4.7371266 12.076172 4.7324219 L 12.076172 4.7304688 L 12.074219 4.7304688 L 12.074219 4.7285156 L 13.945312 4.0390625 A 1.0001 1.0001 0 0 0 13.958984 4.0351562 z "/>
</svg>
