<?xml version="1.0" encoding="UTF-8" standalone="no"?>
<svg xmlns="http://www.w3.org/2000/svg" xmlns:svg="http://www.w3.org/2000/svg" width="24" height="24" viewBox="0 0 24 24" fill="currentColor" tags="books,reading,written,authors,stories,fiction,novels,information,knowledge,education,high school,university,college,academy,learning,study,research,collection,vinyl,records,albums,music,package" categories="text,photography,multimedia,navigation,development">
  <path d="M 4 2 C 2.9092972 2 2 2.9092972 2 4 L 2 20 C 2 21.090703 2.9092972 22 4 22 L 10 22 C 11.090703 22 12 21.090703 12 20 L 12 10.523438 L 15.660156 20.640625 A 1.0001 1.0001 0 0 0 15.671875 20.671875 C 16.07678 21.684138 17.195188 22.258643 18.271484 21.828125 L 20.146484 21.138672 A 1.0001 1.0001 0 0 0 20.171875 21.128906 C 21.184138 20.724001 21.758643 19.605593 21.328125 18.529297 L 15.839844 3.359375 A 1.0001 1.0001 0 0 0 15.828125 3.328125 C 15.423221 2.315862 14.304812 1.7413566 13.228516 2.171875 L 11.574219 2.78125 C 11.205783 2.3094093 10.634261 2 10 2 L 4 2 z M 4 4 L 6 4 L 6 20 L 4 20 L 4 4 z M 8 4 L 10 4 L 10 20 L 8 20 L 8 4 z M 13.970703 4.0292969 C 13.894403 4.0598149 13.975603 4.0845286 13.970703 4.0722656 L 19.458984 19.240234 A 1.0001 1.0001 0 0 0 19.470703 19.271484 C 19.440183 19.195184 19.415474 19.276384 19.427734 19.271484 L 17.554688 19.960938 A 1.0001 1.0001 0 0 0 17.529297 19.970703 C 17.605597 19.940183 17.524397 19.915474 17.529297 19.927734 L 12.041016 4.7597656 A 1.0001 1.0001 0 0 0 12.029297 4.7285156 C 12.059817 4.8048116 12.084526 4.7236056 12.072266 4.7285156 L 13.945312 4.0390625 A 1.0001 1.0001 0 0 0 13.970703 4.0292969 z "/>
</svg>
