<?xml version="1.0" encoding="UTF-8" standalone="no"?>
<svg xmlns="http://www.w3.org/2000/svg" xmlns:svg="http://www.w3.org/2000/svg" width="24" height="24" viewBox="0 0 24 24" fill="currentColor" tags="books,reading,written,authors,stories,fiction,novels,information,knowledge,education,high school,university,college,academy,learning,study,research,collection,vinyl,records,albums,music,package" categories="text,photography,multimedia,maps,development">
  
  <path d="M 4 3 A 1 1 0 0 0 3 4 L 3 20 A 1 1 0 0 0 4 21 A 1 1 0 0 0 5 20 L 5 4 A 1 1 0 0 0 4 3 z M 12 5 A 1 1 0 0 0 11 6 L 11 20 A 1 1 0 0 0 12 21 A 1 1 0 0 0 13 20 L 13 6 A 1 1 0 0 0 12 5 z M 16.035156 5.0019531 A 1 1 0 0 0 15.724609 5.0390625 A 1 1 0 0 0 15.039062 6.2753906 L 19.039062 20.275391 A 1 1 0 0 0 20.275391 20.960938 A 1 1 0 0 0 20.960938 19.724609 L 16.960938 5.7246094 A 1 1 0 0 0 16.035156 5.0019531 z M 8 7 A 1 1 0 0 0 7 8 L 7 20 A 1 1 0 0 0 8 21 A 1 1 0 0 0 9 20 L 9 8 A 1 1 0 0 0 8 7 z "/>
</svg>
