<svg xmlns="http://www.w3.org/2000/svg" xmlns:svg="http://www.w3.org/2000/svg" width="24" height="24" viewBox="0 0 24 24" fill="currentColor" tags="preserver,life belt,lifesaver,help,rescue,ship,ring,raft,inflatable,wheel,donut" categories="accessibility,medical">
  <path d="M 12 1 C 9.0063419 1 6.286591 2.2040438 4.3007812 4.1523438 A 1 1 0 0 0 4.2226562 4.2226562 A 1 1 0 0 0 4.1523438 4.3007812 C 2.2039471 6.2866056 1 9.0062578 1 12 C 1 14.993742 2.2039474 17.713395 4.1523438 19.699219 A 1 1 0 0 0 4.2226562 19.777344 A 1 1 0 0 0 4.3007812 19.847656 C 6.2866056 21.796053 9.0062579 23 12 23 C 14.993742 23 17.713395 21.796052 19.699219 19.847656 A 1 1 0 0 0 19.777344 19.777344 A 1 1 0 0 0 19.847656 19.699219 C 21.796052 17.713395 23 14.993742 23 12 C 23 9.0062579 21.796053 6.2866056 19.847656 4.3007812 A 1 1 0 0 0 19.777344 4.2226562 A 1 1 0 0 0 19.699219 4.1523438 C 17.713395 2.2039474 14.993742 1 12 1 z M 12 3 C 14.129793 3 16.082337 3.7350659 17.621094 4.9648438 L 14.753906 7.8320312 C 13.962897 7.3065061 13.015307 7 12 7 C 10.984693 7 10.037103 7.3065061 9.2460938 7.8320312 L 6.3789062 4.9648438 C 7.9176632 3.7350659 9.870207 3 12 3 z M 4.9648438 6.3789062 L 7.8320312 9.2460938 C 7.3065061 10.037103 7 10.984693 7 12 C 7 13.015307 7.3065061 13.962897 7.8320312 14.753906 L 4.9648438 17.621094 C 3.7350659 16.082337 3 14.129793 3 12 C 3 9.870207 3.7350659 7.9176632 4.9648438 6.3789062 z M 19.035156 6.3789062 C 20.264934 7.9176632 21 9.8702071 21 12 C 21 14.129793 20.264934 16.082337 19.035156 17.621094 L 16.167969 14.753906 C 16.693494 13.962897 17 13.015307 17 12 C 17 10.984693 16.693494 10.037103 16.167969 9.2460938 L 19.035156 6.3789062 z M 12 9 C 12.806847 9 13.535532 9.3121282 14.072266 9.8222656 A 1 1 0 0 0 14.123047 9.8769531 A 1 1 0 0 0 14.177734 9.9277344 C 14.687872 10.464468 15 11.193153 15 12 C 15 12.806789 14.68976 13.535543 14.179688 14.072266 A 1 1 0 0 0 14.123047 14.123047 A 1 1 0 0 0 14.072266 14.177734 C 13.535532 14.687872 12.806847 15 12 15 C 11.193153 15 10.464468 14.687872 9.9277344 14.177734 A 1 1 0 0 0 9.8769531 14.123047 A 1 1 0 0 0 9.8203125 14.072266 C 9.3102406 13.535543 9 12.806789 9 12 C 9 11.193153 9.3121285 10.464468 9.8222656 9.9277344 A 1 1 0 0 0 9.8769531 9.8769531 A 1 1 0 0 0 9.9277344 9.8222656 C 10.464468 9.3121285 11.193153 9 12 9 z M 9.2460938 16.167969 C 10.037103 16.693494 10.984693 17 12 17 C 13.015307 17 13.962897 16.693494 14.753906 16.167969 L 17.621094 19.035156 C 16.082337 20.264934 14.129793 21 12 21 C 9.8702071 21 7.9176632 20.264934 6.3789062 19.035156 L 9.2460938 16.167969 z "/>
</svg>
