<?xml version="1.0" encoding="UTF-8" standalone="no"?>
<svg xmlns="http://www.w3.org/2000/svg" xmlns:svg="http://www.w3.org/2000/svg" width="24" height="24" viewBox="0 0 24 24" fill="currentColor" tags="preserver,life belt,lifesaver,help,rescue,ship,ring,raft,inflatable,wheel,donut" categories="accessibility,medical">
  <path d="M 12 1 C 8.9866624 1 6.2528125 2.2204612 4.2636719 4.1914062 A 1 1 0 0 0 4.2226562 4.2226562 A 1 1 0 0 0 4.1914062 4.2636719 C 2.2204612 6.2528125 1 8.9866624 1 12 C 1 15.013338 2.2204612 17.747188 4.1914062 19.736328 A 1 1 0 0 0 4.2226562 19.777344 A 1 1 0 0 0 4.2636719 19.808594 C 6.2528125 21.779539 8.9866624 23 12 23 C 15.013338 23 17.747188 21.779539 19.736328 19.808594 A 1 1 0 0 0 19.777344 19.777344 A 1 1 0 0 0 19.855469 19.6875 C 21.798534 17.702486 23 14.989098 23 12 C 23 9.0109019 21.798534 6.2975142 19.855469 4.3125 A 1 1 0 0 0 19.777344 4.2226562 A 1 1 0 0 0 19.736328 4.1914062 C 17.747188 2.2204612 15.013338 1 12 1 z M 12 3 C 14.129593 3 16.082403 3.7352745 17.621094 4.9648438 L 14.753906 7.8320312 C 13.96299 7.3066942 13.015109 7 12 7 C 10.984891 7 10.03701 7.3066942 9.2460938 7.8320312 L 6.3789062 4.9648438 C 7.9175966 3.7352745 9.870407 3 12 3 z M 4.9648438 6.3789062 L 7.8320312 9.2460938 C 7.3066942 10.03701 7 10.984891 7 12 C 7 13.015109 7.3066942 13.96299 7.8320312 14.753906 L 4.9648438 17.621094 C 3.7352745 16.082403 3 14.129593 3 12 C 3 9.870407 3.7352745 7.9175966 4.9648438 6.3789062 z M 19.035156 6.3789062 C 20.264726 7.9175966 21 9.870407 21 12 C 21 14.129593 20.264726 16.082403 19.035156 17.621094 L 16.167969 14.753906 C 16.693306 13.96299 17 13.015109 17 12 C 17 10.984891 16.693306 10.03701 16.167969 9.2460938 L 19.035156 6.3789062 z M 12 9 C 12.828796 9 13.57272 9.3301893 14.113281 9.8652344 A 1 1 0 0 0 14.123047 9.8769531 A 1 1 0 0 0 14.134766 9.8867188 C 14.669811 10.42728 15 11.171204 15 12 C 15 12.828796 14.669811 13.57272 14.134766 14.113281 A 1 1 0 0 0 14.123047 14.123047 A 1 1 0 0 0 14.113281 14.134766 C 13.57272 14.669811 12.828796 15 12 15 C 11.176233 15 10.436234 14.673833 9.8964844 14.144531 A 1 1 0 0 0 9.8769531 14.123047 A 1 1 0 0 0 9.8652344 14.113281 C 9.3301893 13.57272 9 12.828796 9 12 C 9 11.171204 9.3301893 10.42728 9.8652344 9.8867188 A 1 1 0 0 0 9.8769531 9.8769531 A 1 1 0 0 0 9.8964844 9.8554688 C 10.436234 9.3261669 11.176233 9 12 9 z M 9.2460938 16.167969 C 10.03701 16.693306 10.984891 17 12 17 C 13.015109 17 13.96299 16.693306 14.753906 16.167969 L 17.621094 19.035156 C 16.082403 20.264726 14.129593 21 12 21 C 9.870407 21 7.9175966 20.264726 6.3789062 19.035156 L 9.2460938 16.167969 z "/>
</svg>
