<?xml version="1.0" encoding="UTF-8" standalone="no"?>
<svg xmlns="http://www.w3.org/2000/svg" xmlns:svg="http://www.w3.org/2000/svg" width="24" height="24" viewBox="0 0 24 24" fill="currentColor" tags="text,font,typography,alternates,alternatives" categories="text">
  <path d="M 12.25 3.0058594 C 11.726457 2.980721 11.203058 3.0364867 10.705078 3.1699219 C 8.7131583 3.7036625 7.0001094 5.5126119 7 8 L 7 11 L 6 11 A 1 1 0 0 0 5 12 A 1 1 0 0 0 6 13 L 7 13 L 7 19 L 6 19 A 1 1 0 0 0 5 20 A 1 1 0 0 0 6 21 L 8 21 L 10 21 A 1 1 0 0 0 11 20 A 1 1 0 0 0 10 19 L 9 19 L 9 13 L 10 13 A 1 1 0 0 0 11 12 A 1 1 0 0 0 10 11 L 9 11 L 9 8 C 9.0000706 6.3951786 9.9941925 5.4307329 11.222656 5.1015625 C 12.45112 4.7723921 13.795175 5.1102246 14.597656 6.5 A 1 1 0 0 0 15.964844 6.8652344 A 1 1 0 0 0 16.330078 5.5 C 15.397226 3.8844414 13.820629 3.0812745 12.25 3.0058594 z M 14 11 A 1 1 0 0 0 13 12 A 1 1 0 0 0 14 13 L 15 13 L 15 19 L 14 19 A 1 1 0 0 0 13 20 A 1 1 0 0 0 14 21 L 18 21 A 1 1 0 0 0 19 20 A 1 1 0 0 0 18 19 L 17 19 L 17 12 A 1.0001 1.0001 0 0 0 16 11 L 14 11 z "/>
</svg>
