<?xml version="1.0" encoding="UTF-8" standalone="no"?>
<svg xmlns="http://www.w3.org/2000/svg" xmlns:svg="http://www.w3.org/2000/svg" width="24" height="24" viewBox="0 0 24 24" fill="currentColor" tags="text,font,typography,alternates,alternatives" categories="text">
  
  <path d="M 12 3 C 9.2545509 3 7 5.2545509 7 8 L 7 11 L 6 11 A 1 1 0 0 0 5 12 A 1 1 0 0 0 6 13 L 7 13 L 7 19 L 6 19 A 1 1 0 0 0 5 20 A 1 1 0 0 0 6 21 L 10 21 A 1 1 0 0 0 11 20 A 1 1 0 0 0 10 19 L 9 19 L 9 13 L 10 13 A 1 1 0 0 0 11 12 A 1 1 0 0 0 10 11 L 9 11 L 9 8 C 9 6.3454579 10.345458 5 12 5 C 13.144442 5 14.110768 5.6022774 14.636719 6.5039062 A 1 1 0 0 0 16.003906 6.8632812 A 1 1 0 0 0 16.363281 5.4960938 C 15.489234 3.9977275 13.855552 3 12 3 z M 14 11 A 1 1 0 0 0 13 12 A 1 1 0 0 0 14 13 L 15 13 L 15 19 L 14 19 A 1 1 0 0 0 13 20 A 1 1 0 0 0 14 21 L 16 21 L 18 21 A 1 1 0 0 0 19 20 A 1 1 0 0 0 18 19 L 17 19 L 17 12 A 1.0001 1.0001 0 0 0 16 11 L 14 11 z "/>
</svg>
