<?xml version="1.0" encoding="UTF-8" standalone="no"?>
<svg xmlns="http://www.w3.org/2000/svg" xmlns:svg="http://www.w3.org/2000/svg" width="24" height="24" viewBox="0 0 24 24" fill="currentColor" tags="idea,bright,lights" categories="photography">
  <path d="M 12 1 C 8.1458524 1 5 4.1458495 5 8 C 5 9.1333333 5.3116593 10.725722 6.7929688 12.207031 C 7.4256253 12.839688 7.874846 13.471886 8.0195312 14.195312 A 1 1 0 0 0 9.1953125 14.980469 A 1 1 0 0 0 9.9804688 13.804688 C 9.7251538 12.528112 8.9743747 11.560312 8.2070312 10.792969 C 7.0883406 9.674278 7 8.8666667 7 8 C 7 5.226729 9.2267307 3 12 3 C 14.773269 3 17 5.226729 17 8 C 17 9.0435897 16.597371 10.065296 15.830078 10.755859 A 1.0001 1.0001 0 0 0 15.792969 10.792969 C 14.934043 11.651894 14.264789 12.5784 14.019531 13.804688 A 1 1 0 0 0 14.804688 14.980469 A 1 1 0 0 0 15.980469 14.195312 C 16.132479 13.43526 16.456094 12.963023 17.169922 12.244141 L 17.181641 12.234375 C 18.406665 11.125479 19 9.5516252 19 8 C 19 4.1458495 15.854148 1 12 1 z M 9 17 A 1 1 0 0 0 8 18 A 1 1 0 0 0 9 19 L 15 19 A 1 1 0 0 0 16 18 A 1 1 0 0 0 15 17 L 9 17 z M 10 21 A 1 1 0 0 0 9 22 A 1 1 0 0 0 10 23 L 14 23 A 1 1 0 0 0 15 22 A 1 1 0 0 0 14 21 L 10 21 z "/>
</svg>
