<svg xmlns="http://www.w3.org/2000/svg" xmlns:svg="http://www.w3.org/2000/svg" width="24" height="24" viewBox="0 0 24 24" fill="currentColor" tags="lights" categories="photography">
  <path d="M 2 1 A 1 1 0 0 0 1.2929688 1.2929688 A 1 1 0 0 0 1.2929688 2.7070312 L 5.15625 6.5703125 C 4.6160114 8.5879387 5.2329974 10.769437 6.7929688 12.207031 C 6.8038985 12.217963 6.8153524 12.229302 6.8261719 12.240234 L 6.828125 12.242188 C 7.4421371 12.863003 7.8775575 13.485444 8.0195312 14.195312 A 1 1 0 0 0 9.1953125 14.980469 A 1 1 0 0 0 9.9804688 13.804688 C 9.7251535 12.528115 8.9743747 11.560312 8.2070312 10.792969 A 1.0001 1.0001 0 0 0 8.171875 10.757812 C 7.4783429 10.129858 7.0671726 9.2827594 6.9804688 8.3945312 L 21.292969 22.707031 A 1 1 0 0 0 22.707031 22.707031 A 1 1 0 0 0 22.707031 21.292969 L 7.0332031 5.6191406 A 1 1 0 0 0 6.9804688 5.5664062 L 2.7070312 1.2929688 A 1 1 0 0 0 2 1 z M 11.785156 1.0214844 C 10.552954 1.047387 9.3013397 1.4060985 8.1503906 2.1640625 A 1 1 0 0 0 7.8652344 3.5507812 A 1 1 0 0 0 9.25 3.8359375 C 12.616843 1.6186839 16.992622 3.970602 17 8.0019531 C 16.999574 8.9788538 16.693452 9.8143495 16.052734 10.535156 A 1 1 0 0 0 16.134766 11.947266 A 1 1 0 0 0 17.546875 11.865234 C 18.505713 10.786541 19 9.4222222 19 8 A 1.0001 1.0001 0 0 0 19 7.9980469 C 18.992433 3.8637141 15.481763 0.94377658 11.785156 1.0214844 z M 9 17 A 1 1 0 0 0 8 18 A 1 1 0 0 0 9 19 L 15 19 A 1 1 0 0 0 16 18 A 1 1 0 0 0 15 17 L 9 17 z M 10 21 A 1 1 0 0 0 9 22 A 1 1 0 0 0 10 23 L 14 23 A 1 1 0 0 0 15 22 A 1 1 0 0 0 14 21 L 10 21 z "/>
</svg>
