<svg xmlns="http://www.w3.org/2000/svg" xmlns:svg="http://www.w3.org/2000/svg" width="24" height="24" viewBox="0 0 24 24" fill="currentColor" tags="line,snakes,annotate,curve,doodle,stroke,pen,tool,gesture,draw,wave,art,road" categories="shapes,math,design">
  <path d="M 9.3125 2.0039062 C 9.0892088 2.0053705 8.8588269 2.0188951 8.6230469 2.046875 C 7.9943 2.121488 7.3246093 2.2939844 6.6289062 2.5722656 A 1 1 0 0 0 6.0722656 3.8710938 A 1 1 0 0 0 7.3710938 4.4277344 C 9.5882819 3.5408591 10.715389 4.188232 11.013672 4.6953125 C 11.162813 4.9488528 11.185252 5.1936459 11.025391 5.5175781 C 10.86762 5.8372699 10.478461 6.2463535 9.6796875 6.5527344 C 5.2762983 7.8554133 2.9533107 9.8510051 2.2382812 11.996094 C 1.5259639 14.133046 2.7130263 16.261449 4.6484375 16.929688 C 6.2547291 17.562611 7.8684717 17.043905 9.1621094 16.152344 C 10.461079 15.257108 11.607587 13.993641 12.726562 12.8125 C 13.845538 11.631359 14.939239 10.537656 15.908203 9.9746094 C 16.877167 9.4115629 17.538973 9.2890086 18.486328 9.8574219 C 19.458904 10.440967 19.951385 11.338205 20.128906 12.501953 C 20.279198 13.487198 20.034616 14.644707 19.703125 15.746094 C 18.932717 15.011206 18.154948 14.498152 17.373047 14.220703 C 15.854122 13.68173 14.353584 14.068212 13.388672 14.949219 C 12.42376 15.830225 11.926616 17.137788 12.060547 18.466797 C 12.194478 19.795806 13.034406 21.135367 14.552734 21.894531 A 1.0001 1.0001 0 0 0 14.683594 21.949219 C 16.188067 22.45071 17.717888 21.91237 18.869141 20.945312 C 19.346252 20.544539 19.749797 20.033714 20.134766 19.505859 C 20.138966 19.512659 20.142264 19.514654 20.146484 19.521484 A 1 1 0 0 0 21.521484 19.853516 A 1 1 0 0 0 21.853516 18.478516 C 21.637643 18.12527 21.411741 17.94904 21.193359 17.640625 C 21.285699 17.433727 21.417484 17.254271 21.498047 17.041016 C 22.080612 15.498932 22.349823 13.803049 22.105469 12.201172 C 21.861113 10.599288 21.041096 9.0590326 19.513672 8.1425781 C 17.961027 7.2109914 16.247833 7.4634371 14.904297 8.2441406 C 13.560761 9.0248441 12.404462 10.243641 11.273438 11.4375 C 10.142413 12.631359 9.0389207 13.805392 8.0253906 14.503906 C 7.0118606 15.20242 6.2582408 15.427124 5.3710938 15.072266 A 1.0001 1.0001 0 0 0 5.3164062 15.050781 C 4.274936 14.70363 3.728819 13.852606 4.1367188 12.628906 C 4.5446186 11.405207 6.2094761 9.6565649 10.28125 8.4589844 A 1.0001 1.0001 0 0 0 10.351562 8.4355469 C 11.531135 7.9932076 12.384472 7.2834897 12.818359 6.4042969 C 13.252247 5.5251041 13.212187 4.4886472 12.736328 3.6796875 C 12.111764 2.6179279 10.875538 1.9936564 9.3125 2.0039062 z M 15.808594 15.953125 C 16.070232 15.940906 16.366472 15.987274 16.705078 16.107422 C 17.263501 16.305572 17.970237 16.886809 18.720703 17.701172 C 18.341082 18.305465 18.029991 19.039417 17.583984 19.414062 C 16.806072 20.067509 16.104661 20.267103 15.382812 20.052734 C 14.469484 19.567022 14.115874 18.932878 14.048828 18.267578 C 13.979638 17.580962 14.26374 16.857275 14.736328 16.425781 C 14.972622 16.210034 15.238565 16.050362 15.558594 15.984375 C 15.638601 15.967878 15.721381 15.957198 15.808594 15.953125 z "/>
</svg>
