<?xml version="1.0" encoding="UTF-8" standalone="no"?>
<svg xmlns="http://www.w3.org/2000/svg" xmlns:svg="http://www.w3.org/2000/svg" width="24" height="24" viewBox="0 0 24 24" fill="currentColor" tags="statistics,diagram,graph" categories="charts">
  
  <path d="M 3 2 A 1 1 0 0 0 2 3 L 2 21 A 1.0001 1.0001 0 0 0 3 22 L 21 22 A 1 1 0 0 0 22 21 A 1 1 0 0 0 21 20 L 4 20 L 4 3 A 1 1 0 0 0 3 2 z M 18.84375 8.0117188 A 1 1 0 0 0 18.292969 8.2929688 L 14 12.585938 L 10.707031 9.2929688 A 1.0001 1.0001 0 0 0 9.2929688 9.2929688 L 6.2929688 12.292969 A 1 1 0 0 0 6.2929688 13.707031 A 1 1 0 0 0 7.7070312 13.707031 L 10 11.414062 L 13.292969 14.707031 A 1.0001 1.0001 0 0 0 14.707031 14.707031 L 19.707031 9.7070312 A 1 1 0 0 0 19.707031 8.2929688 A 1 1 0 0 0 18.84375 8.0117188 z "/>
</svg>
