<?xml version="1.0" encoding="UTF-8" standalone="no"?>
<svg xmlns="http://www.w3.org/2000/svg" xmlns:svg="http://www.w3.org/2000/svg" width="24" height="24" viewBox="0 0 24 24" fill="currentColor" tags="chain,url" categories="text,account">
  <path d="M 16.982422 0.98242188 C 15.554144 0.96538675 14.047495 1.5213604 12.775391 2.75 A 1.0001 1.0001 0 0 0 12.765625 2.7617188 L 11.044922 4.4707031 A 1 1 0 0 0 11.041016 5.8847656 A 1 1 0 0 0 12.455078 5.8886719 L 14.164062 4.1894531 L 14.169922 4.1855469 C 15.167388 3.2247985 16.170764 2.9268814 17.136719 2.9902344 C 18.104573 3.0537124 19.054004 3.5208013 19.771484 4.2382812 C 20.488964 4.9557613 20.956054 5.9051922 21.019531 6.8730469 C 21.082881 7.8390016 20.784967 8.8423774 19.824219 9.8398438 C 19.822319 9.8418038 19.822212 9.8437431 19.820312 9.8457031 L 16.832031 12.832031 A 1.0001 1.0001 0 0 0 16.832031 12.833984 C 15.096605 14.57004 12.271099 14.366035 10.800781 12.400391 A 1 1 0 0 0 9.4003906 12.199219 A 1 1 0 0 0 9.1992188 13.599609 C 11.377498 16.511717 15.677009 16.818064 18.248047 14.246094 L 21.248047 11.248047 A 1.0001 1.0001 0 0 0 21.259766 11.234375 C 22.570294 9.8774138 23.11471 8.2529565 23.015625 6.7421875 C 22.91654 5.2314185 22.215439 3.8541111 21.185547 2.8242188 C 20.155654 1.7943262 18.778347 1.0932257 17.267578 0.99414062 C 17.173155 0.98794781 17.07764 0.98355755 16.982422 0.98242188 z M 10.111328 8.0058594 C 8.5432072 7.9745063 6.9571273 8.548295 5.7519531 9.7539062 L 2.7519531 12.751953 A 1.0001 1.0001 0 0 0 2.7402344 12.765625 C 1.4296855 14.122536 0.88528994 15.747045 0.984375 17.257812 C 1.0834601 18.768581 1.7845607 20.145889 2.8144531 21.175781 C 3.8443456 22.205674 5.2216529 22.906774 6.7324219 23.005859 C 8.2431908 23.104939 9.8676983 22.560549 11.224609 21.25 A 1.0001 1.0001 0 0 0 11.236328 21.236328 L 12.947266 19.527344 A 1 1 0 0 0 12.947266 18.113281 A 1 1 0 0 0 11.533203 18.113281 L 9.8300781 19.814453 C 8.8326119 20.775202 7.8292359 21.073119 6.8632812 21.009766 C 5.8954267 20.946288 4.9459957 20.479199 4.2285156 19.761719 C 3.5110355 19.044239 3.0439462 18.094808 2.9804688 17.126953 C 2.9171157 16.160998 3.2150328 15.157622 4.1757812 14.160156 C 4.1776713 14.158156 4.1777875 14.156297 4.1796875 14.154297 L 7.1679688 11.167969 A 1.0001 1.0001 0 0 0 7.1679688 11.166016 C 8.9033911 9.4300478 11.728901 9.6339653 13.199219 11.599609 A 1 1 0 0 0 14.599609 11.800781 A 1 1 0 0 0 14.800781 10.400391 C 13.711642 8.9443365 12.092163 8.1390141 10.423828 8.0195312 C 10.319557 8.0120636 10.21587 8.0079496 10.111328 8.0058594 z "/>
</svg>
