<?xml version="1.0" encoding="UTF-8" standalone="no"?>
<svg xmlns="http://www.w3.org/2000/svg" xmlns:svg="http://www.w3.org/2000/svg" width="24" height="24" viewBox="0 0 24 24" fill="currentColor" tags="chain,url" categories="text,account">
  
  <path d="M 7 6 C 5.0833378 6 3.5185568 6.7547578 2.5019531 7.8984375 C 1.4853494 9.0421172 1 10.52778 1 12 C 1 13.47222 1.4853494 14.957884 2.5019531 16.101562 C 3.5185568 17.245242 5.0833378 18 7 18 L 9 18 A 1 1 0 0 0 10 17 A 1 1 0 0 0 9 16 L 7 16 C 5.583337 16 4.6481058 15.504754 3.9980469 14.773438 C 3.3479879 14.04212 3 13.027776 3 12 C 3 10.972224 3.3479879 9.9578792 3.9980469 9.2265625 C 4.6481058 8.4952458 5.583337 8 7 8 L 9 8 A 1 1 0 0 0 10 7 A 1 1 0 0 0 9 6 L 7 6 z M 15 6 A 1 1 0 0 0 14 7 A 1 1 0 0 0 15 8 L 17 8 C 19.220982 8 21 9.7790199 21 12 C 21 14.22098 19.220982 16 17 16 L 15 16 A 1 1 0 0 0 14 17 A 1 1 0 0 0 15 18 L 17 18 C 20.301859 18 23 15.301857 23 12 C 23 8.6981438 20.301859 6 17 6 L 15 6 z M 8 11 A 1 1 0 0 0 7 12 A 1 1 0 0 0 8 13 L 16 13 A 1 1 0 0 0 17 12 A 1 1 0 0 0 16 11 L 8 11 z "/>
</svg>
