<svg xmlns="http://www.w3.org/2000/svg" xmlns:svg="http://www.w3.org/2000/svg" width="24" height="24" viewBox="0 0 24 24" fill="currentColor" tags="chain,url" categories="text,account">
  <path d="M 7 6 C 5.0833339 6 3.5185588 6.7547556 2.5019531 7.8984375 C 1.4853474 9.0421194 1 10.527778 1 12 C 1 13.472222 1.4853474 14.957881 2.5019531 16.101562 C 3.5185588 17.245244 5.0833339 18 7 18 L 9 18 A 1 1 0 0 0 10 17 A 1 1 0 0 0 9 16 L 7 16 C 5.5833342 16 4.6481071 15.504756 3.9980469 14.773438 C 3.3479866 14.042118 3 13.027778 3 12 C 3 10.972222 3.3479866 9.9578806 3.9980469 9.2265625 C 4.6481071 8.4952444 5.5833342 8 7 8 L 9 8 A 1 1 0 0 0 10 7 A 1 1 0 0 0 9 6 L 7 6 z M 15 6 A 1 1 0 0 0 14 7 A 1 1 0 0 0 15 8 L 17 8 C 19.220986 8 21 9.7790155 21 12 C 21 14.220985 19.220986 16 17 16 L 15 16 A 1 1 0 0 0 14 17 A 1 1 0 0 0 15 18 L 17 18 C 20.301865 18 23 15.301863 23 12 C 23 8.6981372 20.301865 6 17 6 L 15 6 z M 8 11 A 1 1 0 0 0 7 12 A 1 1 0 0 0 8 13 L 16 13 A 1 1 0 0 0 17 12 A 1 1 0 0 0 16 11 L 8 11 z "/>
</svg>
