<?xml version="1.0" encoding="UTF-8" standalone="no"?>
<svg xmlns="http://www.w3.org/2000/svg" xmlns:svg="http://www.w3.org/2000/svg" width="24" height="24" viewBox="0 0 24 24" fill="currentColor" tags="chain,url" categories="text,account">
  <path d="M 16.982422 0.98242188 C 15.554147 0.96538698 14.047492 1.5213629 12.775391 2.75 A 1.0001 1.0001 0 0 0 12.765625 2.7617188 L 11.044922 4.4707031 A 1 1 0 0 0 11.041016 5.8847656 A 1 1 0 0 0 12.455078 5.8886719 L 14.164062 4.1894531 L 14.169922 4.1855469 C 15.167386 3.2248003 16.170766 2.9268815 17.136719 2.9902344 C 18.104571 3.0537123 19.054006 3.5208027 19.771484 4.2382812 C 20.488964 4.9557599 20.956054 5.9051941 21.019531 6.8730469 C 21.082881 7.8389996 20.784965 8.8423794 19.824219 9.8398438 C 19.822319 9.8418037 19.822212 9.8437431 19.820312 9.8457031 L 16.832031 12.832031 A 1.0001 1.0001 0 0 0 16.832031 12.833984 C 15.096609 14.570037 12.271096 14.366031 10.800781 12.400391 A 1 1 0 0 0 9.4003906 12.199219 A 1 1 0 0 0 9.1992188 13.599609 C 11.377494 16.511711 15.677013 16.818059 18.248047 14.246094 L 21.248047 11.248047 A 1.0001 1.0001 0 0 0 21.259766 11.234375 C 22.57029 9.8774165 23.11471 8.2529535 23.015625 6.7421875 C 22.91654 5.2314215 22.215437 3.8541091 21.185547 2.8242188 C 20.155656 1.7943283 18.778345 1.0932255 17.267578 0.99414062 C 17.173155 0.98794782 17.07764 0.98355753 16.982422 0.98242188 z M 10.111328 8.0058594 C 8.5432098 7.9745065 6.957125 8.5482975 5.7519531 9.7539062 L 2.7519531 12.751953 A 1.0001 1.0001 0 0 0 2.7402344 12.765625 C 1.4296881 14.122534 0.88529014 15.747047 0.984375 17.257812 C 1.0834599 18.768579 1.7845628 20.145891 2.8144531 21.175781 C 3.8443436 22.205672 5.2216559 22.906774 6.7324219 23.005859 C 8.2431878 23.104939 9.867701 22.560547 11.224609 21.25 A 1.0001 1.0001 0 0 0 11.236328 21.236328 L 12.947266 19.527344 A 1 1 0 0 0 12.947266 18.113281 A 1 1 0 0 0 11.533203 18.113281 L 9.8300781 19.814453 C 8.8326139 20.7752 7.8292341 21.073119 6.8632812 21.009766 C 5.8954285 20.946288 4.9459943 20.479197 4.2285156 19.761719 C 3.511037 19.044239 3.0439462 18.094806 2.9804688 17.126953 C 2.9171158 16.161 3.2150348 15.15762 4.1757812 14.160156 C 4.1776712 14.158156 4.1777875 14.156297 4.1796875 14.154297 L 7.1679688 11.167969 A 1.0001 1.0001 0 0 0 7.1679688 11.166016 C 8.9033877 9.4300514 11.728904 9.6339692 13.199219 11.599609 A 1 1 0 0 0 14.599609 11.800781 A 1 1 0 0 0 14.800781 10.400391 C 13.711644 8.9443395 12.09216 8.1390138 10.423828 8.0195312 C 10.319557 8.0120636 10.215869 8.0079496 10.111328 8.0058594 z "/>
</svg>
