<?xml version="1.0" encoding="UTF-8" standalone="no"?>
<svg xmlns="http://www.w3.org/2000/svg" xmlns:svg="http://www.w3.org/2000/svg" width="24" height="24" viewBox="0 0 24 24" fill="currentColor" tags="unchain,chain" categories="text">
  <path d="M 2 1 A 1 1 0 0 0 1.2929688 1.2929688 A 1 1 0 0 0 1.2929688 2.7070312 L 4.9140625 6.328125 C 3.9375196 6.6539798 3.118754 7.2045363 2.5019531 7.8984375 C 1.4853474 9.0421194 1 10.527778 1 12 C 1 13.472222 1.4853474 14.957881 2.5019531 16.101562 C 3.5185588 17.245244 5.0833339 18 7 18 L 9 18 A 1 1 0 0 0 10 17 A 1 1 0 0 0 9 16 L 7 16 C 5.5833342 16 4.6481071 15.504756 3.9980469 14.773438 C 3.3479866 14.042118 3 13.027778 3 12 C 3 10.972222 3.3479866 9.9578806 3.9980469 9.2265625 C 4.5848251 8.5664366 5.4037832 8.0984904 6.5996094 8.0136719 L 9.5859375 11 L 8 11 A 1 1 0 0 0 7 12 A 1 1 0 0 0 8 13 L 11.585938 13 L 21.292969 22.707031 A 1 1 0 0 0 22.707031 22.707031 A 1 1 0 0 0 22.707031 21.292969 L 12.716797 11.302734 A 1 1 0 0 0 12.697266 11.283203 L 7.7167969 6.3027344 A 1 1 0 0 0 7.6972656 6.2832031 L 2.7070312 1.2929688 A 1 1 0 0 0 2 1 z M 15 6 A 1 1 0 0 0 14 7 A 1 1 0 0 0 15 8 L 17 8 C 20.359133 8 22.214698 11.713084 20.199219 14.400391 A 1 1 0 0 0 20.400391 15.800781 A 1 1 0 0 0 21.800781 15.599609 C 24.729573 11.694553 21.88132 6 17 6 L 15 6 z "/>
</svg>
