<svg xmlns="http://www.w3.org/2000/svg" xmlns:svg="http://www.w3.org/2000/svg" width="24" height="24" viewBox="0 0 24 24" fill="currentColor" tags="logo,social media,social" categories="social,brands">
  <path d="M 4 1 C 2.3549904 1 1 2.3549904 1 4 C 1 5.6450096 2.3549904 7 4 7 C 5.6450096 7 7 5.6450096 7 4 C 7 2.3549904 5.6450096 1 4 1 z M 4 3 C 4.5641294 3 5 3.4358706 5 4 C 5 4.5641294 4.5641294 5 4 5 C 3.4358706 5 3 4.5641294 3 4 C 3 3.4358706 3.4358706 3 4 3 z M 16 7 C 12.145851 7 9 10.145851 9 14 L 9 21 A 1.0001 1.0001 0 0 0 10 22 L 14 22 A 1.0001 1.0001 0 0 0 15 21 L 15 14 C 15 13.435871 15.435871 13 16 13 C 16.564129 13 17 13.435871 17 14 L 17 21 A 1.0001 1.0001 0 0 0 18 22 L 22 22 A 1.0001 1.0001 0 0 0 23 21 L 23 14 C 23 10.145851 19.854149 7 16 7 z M 2 8 A 1.0001 1.0001 0 0 0 1 9 L 1 21 A 1.0001 1.0001 0 0 0 2 22 L 6 22 A 1.0001 1.0001 0 0 0 7 21 L 7 9 A 1.0001 1.0001 0 0 0 6 8 L 2 8 z M 16 9 C 18.773268 9 21 11.226732 21 14 L 21 20 L 19 20 L 19 14 C 19 12.35499 17.64501 11 16 11 C 14.35499 11 13 12.35499 13 14 L 13 20 L 11 20 L 11 14 C 11 11.226732 13.226732 9 16 9 z M 3 10 L 5 10 L 5 20 L 3 20 L 3 10 z "/>
</svg>
