<?xml version="1.0" encoding="UTF-8" standalone="no"?>
<svg xmlns="http://www.w3.org/2000/svg" xmlns:svg="http://www.w3.org/2000/svg" width="24" height="24" viewBox="0 0 24 24" fill="currentColor" tags="unchain,chain" categories="text">
  <path d="M 2 1 A 1 1 0 0 0 1.2929688 1.2929688 A 1 1 0 0 0 1.2929688 2.7070312 L 4.9140625 6.328125 C 3.9375922 6.6539866 3.1187184 7.2045762 2.5019531 7.8984375 C 1.4853494 9.0421172 1 10.52778 1 12 C 1 13.47222 1.4853494 14.957884 2.5019531 16.101562 C 3.5185568 17.245242 5.0833378 18 7 18 L 9 18 A 1 1 0 0 0 10 17 A 1 1 0 0 0 9 16 L 7 16 C 5.583337 16 4.6481058 15.504754 3.9980469 14.773438 C 3.3479879 14.04212 3 13.027776 3 12 C 3 10.972224 3.3479879 9.9578792 3.9980469 9.2265625 C 4.5849407 8.5663066 5.4053504 8.100308 6.6015625 8.015625 L 9.5859375 11 L 8 11 A 1 1 0 0 0 7 12 A 1 1 0 0 0 8 13 L 11.585938 13 L 21.292969 22.707031 A 1 1 0 0 0 22.707031 22.707031 A 1 1 0 0 0 22.707031 21.292969 L 12.732422 11.320312 A 1 1 0 0 0 12.679688 11.267578 L 7.7070312 6.2929688 L 2.7070312 1.2929688 A 1 1 0 0 0 2 1 z M 15 6 A 1 1 0 0 0 14 7 A 1 1 0 0 0 15 8 L 17 8 C 20.359126 8 22.214694 11.713089 20.199219 14.400391 A 1 1 0 0 0 20.400391 15.800781 A 1 1 0 0 0 21.800781 15.599609 C 24.729568 11.694561 21.881311 6 17 6 L 15 6 z "/>
</svg>
