<?xml version="1.0" encoding="UTF-8" standalone="no"?>
<svg xmlns="http://www.w3.org/2000/svg" xmlns:svg="http://www.w3.org/2000/svg" width="24" height="24" viewBox="0 0 24 24" fill="currentColor" tags="number,order,queue" categories="text">
  <path d="M 4 5 A 1 1 0 0 0 3 6 A 1 1 0 0 0 4 7 L 4 9 A 1 1 0 0 0 3 10 A 1 1 0 0 0 4 11 L 6 11 A 1 1 0 0 0 7 10 A 1 1 0 0 0 6 9 L 6 6 A 1.0001 1.0001 0 0 0 5 5 L 4 5 z M 10 5 A 1 1 0 0 0 9 6 A 1 1 0 0 0 10 7 L 21 7 A 1 1 0 0 0 22 6 A 1 1 0 0 0 21 5 L 10 5 z M 10 11 A 1 1 0 0 0 9 12 A 1 1 0 0 0 10 13 L 21 13 A 1 1 0 0 0 22 12 A 1 1 0 0 0 21 11 L 10 11 z M 4.7050781 12.806641 C 4.3166629 12.819421 3.9219913 12.92084 3.5527344 13.105469 A 1 1 0 0 0 3.1054688 14.447266 A 1 1 0 0 0 4.4472656 14.894531 C 4.7087517 14.763788 4.8707529 14.803541 4.9277344 14.832031 C 4.9795596 14.857944 4.9953344 14.845262 4.9980469 14.966797 C 4.9939278 14.965633 4.9752661 15.032325 4.8867188 15.150391 C 4.7632188 15.315057 4.5429689 15.542969 4.2929688 15.792969 C 4.0429688 16.042969 3.7632187 16.315057 3.5117188 16.650391 C 3.2602187 16.985724 3 17.416667 3 18 A 1.0001 1.0001 0 0 0 4 19 L 6 19 A 1 1 0 0 0 7 18 A 1 1 0 0 0 6 17 L 5.8964844 17 C 6.0941023 16.800642 6.2976269 16.603815 6.4882812 16.349609 C 6.7397813 16.014276 7 15.583333 7 15 C 7 14.166667 6.5152842 13.389478 5.8222656 13.042969 C 5.4757563 12.869714 5.0934934 12.793859 4.7050781 12.806641 z M 10 17 A 1 1 0 0 0 9 18 A 1 1 0 0 0 10 19 L 21 19 A 1 1 0 0 0 22 18 A 1 1 0 0 0 21 17 L 10 17 z "/>
</svg>
