<svg xmlns="http://www.w3.org/2000/svg" xmlns:svg="http://www.w3.org/2000/svg" width="24" height="24" viewBox="0 0 24 24" fill="currentColor" tags="options,items,collapse,expand,details,disclosure,show,hide,toggle,accordion,more,less,fold,unfold,vertical" categories="text,arrows">
  <path d="M 3 4 A 1 1 0 0 0 2 5 A 1 1 0 0 0 3 6 L 11 6 A 1 1 0 0 0 12 5 A 1 1 0 0 0 11 4 L 3 4 z M 15 4 A 1 1 0 0 0 14.292969 4.2929688 A 1 1 0 0 0 14.292969 5.7070312 L 17.292969 8.7070312 A 1.0001 1.0001 0 0 0 18.707031 8.7070312 L 21.707031 5.7070312 A 1 1 0 0 0 21.707031 4.2929688 A 1 1 0 0 0 20.292969 4.2929688 L 18 6.5859375 L 15.707031 4.2929688 A 1 1 0 0 0 15 4 z M 3 11 A 1 1 0 0 0 2 12 A 1 1 0 0 0 3 13 L 11 13 A 1 1 0 0 0 12 12 A 1 1 0 0 0 11 11 L 3 11 z M 18 15 A 1.0001 1.0001 0 0 0 17.292969 15.292969 L 14.292969 18.292969 A 1 1 0 0 0 14.292969 19.707031 A 1 1 0 0 0 15.707031 19.707031 L 18 17.414062 L 20.292969 19.707031 A 1 1 0 0 0 21.707031 19.707031 A 1 1 0 0 0 21.707031 18.292969 L 18.707031 15.292969 A 1.0001 1.0001 0 0 0 18 15 z M 3 18 A 1 1 0 0 0 2 19 A 1 1 0 0 0 3 20 L 11 20 A 1 1 0 0 0 12 19 A 1 1 0 0 0 11 18 L 3 18 z "/>
</svg>
