<svg xmlns="http://www.w3.org/2000/svg" xmlns:svg="http://www.w3.org/2000/svg" width="24" height="24" viewBox="0 0 24 24" fill="currentColor" tags="playlist,add,song,track,new" categories="multimedia,text">
  <path d="M 3 4 A 1 1 0 0 0 2 5 A 1 1 0 0 0 3 6 L 16 6 A 1 1 0 0 0 17 5 A 1 1 0 0 0 16 4 L 3 4 z M 18 8 A 1 1 0 0 0 17 9 L 17 11 L 15 11 A 1 1 0 0 0 14 12 A 1 1 0 0 0 15 13 L 17 13 L 17 15 A 1 1 0 0 0 18 16 A 1 1 0 0 0 19 15 L 19 13 L 21 13 A 1 1 0 0 0 22 12 A 1 1 0 0 0 21 11 L 19 11 L 19 9 A 1 1 0 0 0 18 8 z M 3 11 A 1 1 0 0 0 2 12 A 1 1 0 0 0 3 13 L 11 13 A 1 1 0 0 0 12 12 A 1 1 0 0 0 11 11 L 3 11 z M 3 18 A 1 1 0 0 0 2 19 A 1 1 0 0 0 3 20 L 16 20 A 1 1 0 0 0 17 19 A 1 1 0 0 0 16 18 L 3 18 z "/>
</svg>
