<svg xmlns="http://www.w3.org/2000/svg" xmlns:svg="http://www.w3.org/2000/svg" width="24" height="24" viewBox="0 0 24 24" fill="currentColor" tags="todo,done,check,tick,complete,tasks,items,pending" categories="text">
  <path d="M 9 4 A 1 1 0 0 0 8.2929688 4.2929688 L 5 7.5859375 L 3.7070312 6.2929688 A 1 1 0 0 0 2.2929688 6.2929688 A 1 1 0 0 0 2.2929688 7.7070312 L 4.2929688 9.7070312 A 1.0001 1.0001 0 0 0 5.7070312 9.7070312 L 9.7070312 5.7070312 A 1 1 0 0 0 9.7070312 4.2929688 A 1 1 0 0 0 9 4 z M 13 4 A 1 1 0 0 0 12 5 A 1 1 0 0 0 13 6 L 21 6 A 1 1 0 0 0 22 5 A 1 1 0 0 0 21 4 L 13 4 z M 13 11 A 1 1 0 0 0 12 12 A 1 1 0 0 0 13 13 L 21 13 A 1 1 0 0 0 22 12 A 1 1 0 0 0 21 11 L 13 11 z M 9 14 A 1 1 0 0 0 8.2929688 14.292969 L 5 17.585938 L 3.7070312 16.292969 A 1 1 0 0 0 2.2929688 16.292969 A 1 1 0 0 0 2.2929688 17.707031 L 4.2929688 19.707031 A 1.0001 1.0001 0 0 0 5.7070312 19.707031 L 9.7070312 15.707031 A 1 1 0 0 0 9.7070312 14.292969 A 1 1 0 0 0 9 14 z M 13 18 A 1 1 0 0 0 12 19 A 1 1 0 0 0 13 20 L 21 20 A 1 1 0 0 0 22 19 A 1 1 0 0 0 21 18 L 13 18 z "/>
</svg>
