<?xml version="1.0" encoding="UTF-8" standalone="no"?>
<svg xmlns="http://www.w3.org/2000/svg" xmlns:svg="http://www.w3.org/2000/svg" width="24" height="24" viewBox="0 0 24 24" fill="currentColor" tags="queue,top,start,next,playlist" categories="multimedia,text">
  <path d="M 16 3 A 1 1 0 0 0 15.292969 3.2929688 L 13.302734 5.2832031 L 13.292969 5.2929688 A 1.0001 1.0001 0 0 0 13.25 5.3417969 A 1 1 0 0 0 13.212891 5.3847656 A 1.0001 1.0001 0 0 0 13.175781 5.4394531 A 1 1 0 0 0 13.076172 5.6171875 A 1 1 0 0 0 13.035156 5.7421875 A 1 1 0 0 0 13.023438 5.7949219 A 1.0001 1.0001 0 0 0 13 6 A 1.0001 1.0001 0 0 0 13.023438 6.2050781 A 1.0001 1.0001 0 0 0 13.035156 6.2578125 A 1 1 0 0 0 13.076172 6.3828125 A 1 1 0 0 0 13.175781 6.5605469 A 1.0001 1.0001 0 0 0 13.212891 6.6152344 A 1 1 0 0 0 13.25 6.6582031 A 1.0001 1.0001 0 0 0 13.292969 6.7070312 A 1 1 0 0 0 13.302734 6.7167969 L 15.292969 8.7070312 A 1 1 0 0 0 16.707031 8.7070312 A 1 1 0 0 0 16.707031 7.2929688 L 16.414062 7 L 19 7 C 19.564129 7 20 7.4358706 20 8 L 20 18 A 1 1 0 0 0 21 19 A 1 1 0 0 0 22 18 L 22 8 C 22 6.3549904 20.64501 5 19 5 L 16.414062 5 L 16.707031 4.7070312 A 1 1 0 0 0 16.707031 3.2929688 A 1 1 0 0 0 16 3 z M 3 5 A 1 1 0 0 0 2 6 A 1 1 0 0 0 3 7 L 10 7 A 1 1 0 0 0 11 6 A 1 1 0 0 0 10 5 L 3 5 z M 3 11 A 1 1 0 0 0 2 12 A 1 1 0 0 0 3 13 L 16 13 A 1 1 0 0 0 17 12 A 1 1 0 0 0 16 11 L 3 11 z M 3 17 A 1 1 0 0 0 2 18 A 1 1 0 0 0 3 19 L 16 19 A 1 1 0 0 0 17 18 A 1 1 0 0 0 16 17 L 3 17 z "/>
</svg>
