<?xml version="1.0" encoding="UTF-8" standalone="no"?>
<svg xmlns="http://www.w3.org/2000/svg" xmlns:svg="http://www.w3.org/2000/svg" width="24" height="24" viewBox="0 0 24 24" fill="currentColor" tags="playlist,queue,music,audio,playback" categories="multimedia">
  <path d="M 3 4 A 1 1 0 0 0 2 5 A 1 1 0 0 0 3 6 L 16 6 A 1 1 0 0 0 17 5 A 1 1 0 0 0 16 4 L 3 4 z M 21 4 A 1 1 0 0 0 20 5 L 20 12.541016 C 19.410485 12.197483 18.72683 12 18 12 C 15.802706 12 14 13.802706 14 16 C 14 18.197294 15.802706 20 18 20 C 20.153042 20 21.921598 18.267768 21.992188 16.130859 A 1 1 0 0 0 22 16 L 22 5 A 1 1 0 0 0 21 4 z M 3 11 A 1 1 0 0 0 2 12 A 1 1 0 0 0 3 13 L 11 13 A 1 1 0 0 0 12 12 A 1 1 0 0 0 11 11 L 3 11 z M 18 14 C 19.116414 14 20 14.883586 20 16 C 20 17.116414 19.116414 18 18 18 C 16.883586 18 16 17.116414 16 16 C 16 14.883586 16.883586 14 18 14 z M 3 18 A 1 1 0 0 0 2 19 A 1 1 0 0 0 3 20 L 11 20 A 1 1 0 0 0 12 19 A 1 1 0 0 0 11 18 L 3 18 z "/>
</svg>
