<?xml version="1.0" encoding="UTF-8" standalone="no"?>
<svg xmlns="http://www.w3.org/2000/svg" xmlns:svg="http://www.w3.org/2000/svg" width="24" height="24" viewBox="0 0 24 24" fill="currentColor" tags="playlist,video,playback" categories="multimedia">
  <path d="M 3 5 A 1 1 0 0 0 2 6 A 1 1 0 0 0 3 7 L 16 7 A 1 1 0 0 0 17 6 A 1 1 0 0 0 16 5 L 3 5 z M 3 11 A 1 1 0 0 0 2 12 A 1 1 0 0 0 3 13 L 12 13 A 1 1 0 0 0 13 12 A 1 1 0 0 0 12 11 L 3 11 z M 16.636719 11.015625 C 15.793078 11.045201 14.997582 11.73509 15 12.650391 L 15 17.351562 C 14.9982 18.570925 16.41294 19.388183 17.46875 18.777344 L 21.533203 16.425781 C 22.587879 15.81548 22.587879 14.18452 21.533203 13.574219 L 17.46875 11.222656 C 17.204662 11.069868 16.917932 11.005766 16.636719 11.015625 z M 17 13.261719 L 20.003906 15 L 17 16.738281 L 17 13.261719 z M 3 17 A 1 1 0 0 0 2 18 A 1 1 0 0 0 3 19 L 12 19 A 1 1 0 0 0 13 18 A 1 1 0 0 0 12 17 L 3 17 z "/>
</svg>
