<svg xmlns="http://www.w3.org/2000/svg" xmlns:svg="http://www.w3.org/2000/svg" width="24" height="24" viewBox="0 0 24 24" fill="currentColor" tags="playlist,video,playback" categories="multimedia">
  <path d="M 3 4 A 1 1 0 0 0 2 5 A 1 1 0 0 0 3 6 L 21 6 A 1 1 0 0 0 22 5 A 1 1 0 0 0 21 4 L 3 4 z M 16.013672 10.015625 C 14.977625 10.035368 13.996585 10.873957 14 12.005859 L 14 17.996094 C 13.9971 19.503133 15.740046 20.490944 17.03125 19.712891 L 22.025391 16.71875 C 23.288045 15.966191 23.288045 14.033809 22.025391 13.28125 L 17.033203 10.287109 L 17.03125 10.287109 C 16.708809 10.092786 16.358403 10.009056 16.013672 10.015625 z M 3 11 A 1 1 0 0 0 2 12 A 1 1 0 0 0 3 13 L 10 13 A 1 1 0 0 0 11 12 A 1 1 0 0 0 10 11 L 3 11 z M 16 12 A 1.0001 1.0001 0 0 0 16.001953 12.001953 L 21 14.998047 A 1.0001 1.0001 0 0 0 21.001953 15 A 1.0001 1.0001 0 0 0 21 15.001953 L 16.001953 17.998047 A 1.0001 1.0001 0 0 0 16 18 A 1.0001 1.0001 0 0 0 16 17.996094 L 16 12.003906 A 1.0001 1.0001 0 0 0 16 12 z M 3 18 A 1 1 0 0 0 2 19 A 1 1 0 0 0 3 20 L 10 20 A 1 1 0 0 0 11 19 A 1 1 0 0 0 10 18 L 3 18 z "/>
</svg>
