<?xml version="1.0" encoding="UTF-8" standalone="no"?>
<svg xmlns="http://www.w3.org/2000/svg" xmlns:svg="http://www.w3.org/2000/svg" width="24" height="24" viewBox="0 0 24 24" fill="currentColor" tags="playlist,queue,music,audio,playback" categories="multimedia">
  <path d="M 3 5 A 1 1 0 0 0 2 6 A 1 1 0 0 0 3 7 L 16 7 A 1 1 0 0 0 17 6 A 1 1 0 0 0 16 5 L 3 5 z M 21 5 A 1 1 0 0 0 20 6 L 20 12.308594 C 19.552703 12.111474 19.044919 12 18.5 12 C 17.416669 12 16.476892 12.442256 15.876953 13.117188 C 15.277016 13.792118 15 14.65278 15 15.5 C 15 16.34722 15.277016 17.207882 15.876953 17.882812 C 16.476892 18.557744 17.416669 19 18.5 19 C 19.583331 19 20.523108 18.557744 21.123047 17.882812 C 21.722984 17.207882 22 16.34722 22 15.5 C 22 15.379727 21.993719 15.258917 21.982422 15.138672 A 1 1 0 0 0 22 15 L 22 6 A 1 1 0 0 0 21 5 z M 3 11 A 1 1 0 0 0 2 12 A 1 1 0 0 0 3 13 L 12 13 A 1 1 0 0 0 13 12 A 1 1 0 0 0 12 11 L 3 11 z M 18.5 14 C 19.083331 14 19.39356 14.182745 19.626953 14.445312 C 19.860347 14.707879 20 15.097223 20 15.5 C 20 15.902777 19.860347 16.292121 19.626953 16.554688 C 19.39356 16.817255 19.083331 17 18.5 17 C 17.916669 17 17.60644 16.817255 17.373047 16.554688 C 17.139653 16.292121 17 15.902777 17 15.5 C 17 15.097223 17.139653 14.707879 17.373047 14.445312 C 17.60644 14.182745 17.916669 14 18.5 14 z M 3 17 A 1 1 0 0 0 2 18 A 1 1 0 0 0 3 19 L 12 19 A 1 1 0 0 0 13 18 A 1 1 0 0 0 12 17 L 3 17 z "/>
</svg>
