<?xml version="1.0" encoding="UTF-8" standalone="no"?>
<svg xmlns="http://www.w3.org/2000/svg" xmlns:svg="http://www.w3.org/2000/svg" width="24" height="24" viewBox="0 0 24 24" fill="currentColor" tags="queue,bottom,end,playlist" categories="multimedia,text">
  <path d="M 3 4 A 1 1 0 0 0 2 5 A 1 1 0 0 0 3 6 L 16 6 A 1 1 0 0 0 17 5 A 1 1 0 0 0 16 4 L 3 4 z M 21 4 A 1 1 0 0 0 20 5 L 20 17 C 20 17.564129 19.564129 18 19 18 L 15.414062 18 L 16.707031 16.707031 A 1 1 0 0 0 16.707031 15.292969 A 1 1 0 0 0 15.292969 15.292969 L 12.302734 18.283203 L 12.292969 18.292969 A 1.0001 1.0001 0 0 0 12.25 18.341797 A 1 1 0 0 0 12.212891 18.384766 A 1.0001 1.0001 0 0 0 12.175781 18.439453 A 1 1 0 0 0 12.076172 18.617188 A 1 1 0 0 0 12.035156 18.742188 A 1 1 0 0 0 12.023438 18.794922 A 1.0001 1.0001 0 0 0 12 19 A 1.0001 1.0001 0 0 0 12.023438 19.205078 A 1.0001 1.0001 0 0 0 12.035156 19.257812 A 1 1 0 0 0 12.076172 19.382812 A 1 1 0 0 0 12.175781 19.560547 A 1.0001 1.0001 0 0 0 12.212891 19.615234 A 1 1 0 0 0 12.25 19.658203 A 1.0001 1.0001 0 0 0 12.292969 19.707031 A 1 1 0 0 0 12.302734 19.716797 L 15.292969 22.707031 A 1 1 0 0 0 16.707031 22.707031 A 1 1 0 0 0 16.707031 21.292969 L 15.414062 20 L 19 20 C 20.64501 20 22 18.64501 22 17 L 22 5 A 1 1 0 0 0 21 4 z M 3 11 A 1 1 0 0 0 2 12 A 1 1 0 0 0 3 13 L 16 13 A 1 1 0 0 0 17 12 A 1 1 0 0 0 16 11 L 3 11 z M 3 18 A 1 1 0 0 0 2 19 A 1 1 0 0 0 3 20 L 9 20 A 1 1 0 0 0 10 19 A 1 1 0 0 0 9 18 L 3 18 z "/>
</svg>
