<?xml version="1.0" encoding="UTF-8" standalone="no"?>
<svg xmlns="http://www.w3.org/2000/svg" xmlns:svg="http://www.w3.org/2000/svg" width="24" height="24" viewBox="0 0 24 24" fill="currentColor" tags="options,items,collapse,expand,details,disclosure,show,hide,toggle,accordion,more,less,fold,unfold,vertical" categories="text,arrows">
  <path d="M 3 5 A 1 1 0 0 0 2 6 A 1 1 0 0 0 3 7 L 11 7 A 1 1 0 0 0 12 6 A 1 1 0 0 0 11 5 L 3 5 z M 15 5 A 1 1 0 0 0 14.292969 5.2929688 A 1 1 0 0 0 14.292969 6.7070312 L 17.292969 9.7070312 A 1.0001 1.0001 0 0 0 18.707031 9.7070312 L 21.707031 6.7070312 A 1 1 0 0 0 21.707031 5.2929688 A 1 1 0 0 0 20.292969 5.2929688 L 18 7.5859375 L 15.707031 5.2929688 A 1 1 0 0 0 15 5 z M 3 11 A 1 1 0 0 0 2 12 A 1 1 0 0 0 3 13 L 11 13 A 1 1 0 0 0 12 12 A 1 1 0 0 0 11 11 L 3 11 z M 18 14 A 1.0001 1.0001 0 0 0 17.292969 14.292969 L 14.292969 17.292969 A 1 1 0 0 0 14.292969 18.707031 A 1 1 0 0 0 15.707031 18.707031 L 18 16.414062 L 20.292969 18.707031 A 1 1 0 0 0 21.707031 18.707031 A 1 1 0 0 0 21.707031 17.292969 L 18.707031 14.292969 A 1.0001 1.0001 0 0 0 18 14 z M 3 17 A 1 1 0 0 0 2 18 A 1 1 0 0 0 3 19 L 11 19 A 1 1 0 0 0 12 18 A 1 1 0 0 0 11 17 L 3 17 z "/>
</svg>
