<?xml version="1.0" encoding="UTF-8" standalone="no"?>
<svg xmlns="http://www.w3.org/2000/svg" xmlns:svg="http://www.w3.org/2000/svg" width="24" height="24" viewBox="0 0 24 24" fill="currentColor" tags="reset,refresh,reload,playlist,replay" categories="multimedia,text">
  <path d="M 3 5 A 1 1 0 0 0 2 6 A 1 1 0 0 0 3 7 L 21 7 A 1 1 0 0 0 22 6 A 1 1 0 0 0 21 5 L 3 5 z M 11 9 A 1 1 0 0 0 10 10 L 10 14 A 1 1 0 0 0 10.007812 14.130859 A 1.0001 1.0001 0 0 0 10.076172 14.382812 A 1 1 0 0 0 10.292969 14.707031 A 1 1 0 0 0 10.617188 14.923828 A 1.0001 1.0001 0 0 0 10.869141 14.992188 A 1 1 0 0 0 11 15 L 15 15 A 1 1 0 0 0 16 14 A 1 1 0 0 0 15 13 L 13.414062 13 L 13.796875 12.617188 C 14.485357 11.928705 15.440677 11.5 16.5 11.5 C 18.444841 11.5 20 13.055159 20 15 C 20 16.978189 18.793388 18.285667 17.265625 18.794922 C 15.737862 19.304176 13.987695 18.982942 12.800781 17.400391 A 1 1 0 0 0 11.400391 17.199219 A 1 1 0 0 0 11.199219 18.599609 C 12.895342 20.861107 15.645007 21.441899 17.896484 20.691406 C 20.147962 19.940914 22 17.826872 22 15 C 22 11.974279 19.525721 9.5 16.5 9.5 C 14.899323 9.5 13.43433 10.151607 12.382812 11.203125 L 12 11.585938 L 12 10 A 1 1 0 0 0 11 9 z M 3 11 A 1 1 0 0 0 2 12 A 1 1 0 0 0 3 13 L 7 13 A 1 1 0 0 0 8 12 A 1 1 0 0 0 7 11 L 3 11 z M 3 17 A 1 1 0 0 0 2 18 A 1 1 0 0 0 3 19 L 7 19 A 1 1 0 0 0 8 18 A 1 1 0 0 0 7 17 L 3 17 z "/>
</svg>
