<?xml version="1.0" encoding="UTF-8" standalone="no"?>
<svg xmlns="http://www.w3.org/2000/svg" xmlns:svg="http://www.w3.org/2000/svg" width="24" height="24" viewBox="0 0 24 24" fill="currentColor" tags="queue,bottom,end,playlist" categories="multimedia,text">
  <path d="M 3 5 A 1 1 0 0 0 2 6 A 1 1 0 0 0 3 7 L 16 7 A 1 1 0 0 0 17 6 A 1 1 0 0 0 16 5 L 3 5 z M 21 5 A 1 1 0 0 0 20 6 L 20 16 C 20 16.564129 19.564129 17 19 17 L 16.414062 17 L 16.707031 16.707031 A 1 1 0 0 0 16.707031 15.292969 A 1 1 0 0 0 15.292969 15.292969 L 13.302734 17.283203 L 13.292969 17.292969 A 1.0001 1.0001 0 0 0 13.25 17.341797 A 1 1 0 0 0 13.212891 17.384766 A 1.0001 1.0001 0 0 0 13.175781 17.439453 A 1 1 0 0 0 13.076172 17.617188 A 1 1 0 0 0 13.035156 17.742188 A 1 1 0 0 0 13.023438 17.794922 A 1.0001 1.0001 0 0 0 13 18 A 1.0001 1.0001 0 0 0 13.023438 18.205078 A 1.0001 1.0001 0 0 0 13.035156 18.257812 A 1 1 0 0 0 13.076172 18.382812 A 1 1 0 0 0 13.175781 18.560547 A 1.0001 1.0001 0 0 0 13.212891 18.615234 A 1 1 0 0 0 13.25 18.658203 A 1.0001 1.0001 0 0 0 13.292969 18.707031 A 1 1 0 0 0 13.302734 18.716797 L 15.292969 20.707031 A 1 1 0 0 0 16.707031 20.707031 A 1 1 0 0 0 16.707031 19.292969 L 16.414062 19 L 19 19 C 20.64501 19 22 17.64501 22 16 L 22 6 A 1 1 0 0 0 21 5 z M 3 11 A 1 1 0 0 0 2 12 A 1 1 0 0 0 3 13 L 16 13 A 1 1 0 0 0 17 12 A 1 1 0 0 0 16 11 L 3 11 z M 3 17 A 1 1 0 0 0 2 18 A 1 1 0 0 0 3 19 L 10 19 A 1 1 0 0 0 11 18 A 1 1 0 0 0 10 17 L 3 17 z "/>
</svg>
