<?xml version="1.0" encoding="UTF-8" standalone="no"?>
<svg xmlns="http://www.w3.org/2000/svg" xmlns:svg="http://www.w3.org/2000/svg" width="24" height="24" viewBox="0 0 24 24" fill="currentColor" tags="done,check,tick,complete,list,to-do,bom" categories="text">
  <path d="M 3 5 A 1 1 0 0 0 2 6 A 1 1 0 0 0 3 7 L 16 7 A 1 1 0 0 0 17 6 A 1 1 0 0 0 16 5 L 3 5 z M 3 11 A 1 1 0 0 0 2 12 A 1 1 0 0 0 3 13 L 16 13 A 1 1 0 0 0 17 12 A 1 1 0 0 0 16 11 L 3 11 z M 21 15 A 1 1 0 0 0 20.292969 15.292969 L 17 18.585938 L 15.707031 17.292969 A 1 1 0 0 0 14.292969 17.292969 A 1 1 0 0 0 14.292969 18.707031 L 16.292969 20.707031 A 1.0001 1.0001 0 0 0 17.707031 20.707031 L 21.707031 16.707031 A 1 1 0 0 0 21.707031 15.292969 A 1 1 0 0 0 21 15 z M 3 17 A 1 1 0 0 0 2 18 A 1 1 0 0 0 3 19 L 11 19 A 1 1 0 0 0 12 18 A 1 1 0 0 0 11 17 L 3 17 z "/>
</svg>
