<?xml version="1.0" encoding="UTF-8" standalone="no"?>
<svg xmlns="http://www.w3.org/2000/svg" xmlns:svg="http://www.w3.org/2000/svg" width="24" height="24" viewBox="0 0 24 24" fill="currentColor" tags="tree,browser" categories="files,text,layout">
  <path d="M 3 4 A 1 1 0 0 0 2 5 L 2 10 L 2 17 C 2 18.64501 3.3549904 20 5 20 L 8 20 A 1 1 0 0 0 9 19 A 1 1 0 0 0 8 18 L 5 18 C 4.4358706 18 4 17.564129 4 17 L 4 12.826172 C 4.313384 12.938511 4.6501325 13 5 13 L 8 13 A 1 1 0 0 0 9 12 A 1 1 0 0 0 8 11 L 5 11 C 4.4358706 11 4 10.564129 4 10 L 4 5 A 1 1 0 0 0 3 4 z M 8 4 A 1 1 0 0 0 7 5 A 1 1 0 0 0 8 6 L 21 6 A 1 1 0 0 0 22 5 A 1 1 0 0 0 21 4 L 8 4 z M 13 11 A 1 1 0 0 0 12 12 A 1 1 0 0 0 13 13 L 21 13 A 1 1 0 0 0 22 12 A 1 1 0 0 0 21 11 L 13 11 z M 13 18 A 1 1 0 0 0 12 19 A 1 1 0 0 0 13 20 L 21 20 A 1 1 0 0 0 22 19 A 1 1 0 0 0 21 18 L 13 18 z "/>
</svg>
