<svg xmlns="http://www.w3.org/2000/svg" xmlns:svg="http://www.w3.org/2000/svg" width="24" height="24" viewBox="0 0 24 24" fill="currentColor" tags="playlist,subtract,remove,delete,unqueue" categories="multimedia,text">
  <path d="M 3 4 A 1 1 0 0 0 2 5 A 1 1 0 0 0 3 6 L 16 6 A 1 1 0 0 0 17 5 A 1 1 0 0 0 16 4 L 3 4 z M 15.5 8.5 A 1 1 0 0 0 14.792969 8.7929688 A 1 1 0 0 0 14.792969 10.207031 L 16.585938 12 L 14.792969 13.792969 A 1 1 0 0 0 14.792969 15.207031 A 1 1 0 0 0 16.207031 15.207031 L 18 13.414062 L 19.792969 15.207031 A 1 1 0 0 0 21.207031 15.207031 A 1 1 0 0 0 21.207031 13.792969 L 19.414062 12 L 21.207031 10.207031 A 1 1 0 0 0 21.207031 8.7929688 A 1 1 0 0 0 19.792969 8.7929688 L 18 10.585938 L 16.207031 8.7929688 A 1 1 0 0 0 15.5 8.5 z M 3 11 A 1 1 0 0 0 2 12 A 1 1 0 0 0 3 13 L 11 13 A 1 1 0 0 0 12 12 A 1 1 0 0 0 11 11 L 3 11 z M 3 18 A 1 1 0 0 0 2 19 A 1 1 0 0 0 3 20 L 16 20 A 1 1 0 0 0 17 19 A 1 1 0 0 0 16 18 L 3 18 z "/>
</svg>
