<svg xmlns="http://www.w3.org/2000/svg" xmlns:svg="http://www.w3.org/2000/svg" width="24" height="24" viewBox="0 0 24 24" fill="currentColor" tags="number,order,queue" categories="text">
  <path d="M 4 3 A 1 1 0 0 0 3 4 A 1 1 0 0 0 4 5 L 4 8 A 1 1 0 0 0 3 9 A 1 1 0 0 0 4 10 L 6 10 A 1 1 0 0 0 7 9 A 1 1 0 0 0 6 8 L 6 4 A 1.0001 1.0001 0 0 0 5 3 L 4 3 z M 11 4 A 1 1 0 0 0 10 5 A 1 1 0 0 0 11 6 L 21 6 A 1 1 0 0 0 22 5 A 1 1 0 0 0 21 4 L 11 4 z M 11 11 A 1 1 0 0 0 10 12 A 1 1 0 0 0 11 13 L 21 13 A 1 1 0 0 0 22 12 A 1 1 0 0 0 21 11 L 11 11 z M 4.3535156 14.007812 C 4.2316123 14.015142 4.109331 14.031653 3.9882812 14.056641 C 3.5040823 14.156591 3.0368254 14.400811 2.6660156 14.800781 A 1 1 0 0 0 2.7207031 16.212891 A 1 1 0 0 0 4.1328125 16.160156 C 4.3185182 15.959847 4.4909294 15.960339 4.6816406 16.035156 C 4.8723524 16.109969 5.0000357 16.226851 5 16.5 C 5 16.737235 4.670172 17.177709 4.0527344 17.703125 C 3.7440156 17.965833 3.4027497 18.231185 3.0878906 18.556641 C 2.7730316 18.882096 2.4003906 19.316667 2.4003906 20 A 1.0001 1.0001 0 0 0 3.4003906 21 L 6.5 21 A 1 1 0 0 0 7.5 20 A 1 1 0 0 0 6.5 19 L 5.5742188 19 C 6.2267173 18.434334 7 17.697583 7 16.5 C 7.0001426 15.409173 6.2896114 14.516126 5.4121094 14.171875 C 5.0830461 14.042781 4.7192255 13.985825 4.3535156 14.007812 z M 11 18 A 1 1 0 0 0 10 19 A 1 1 0 0 0 11 20 L 21 20 A 1 1 0 0 0 22 19 A 1 1 0 0 0 21 18 L 11 18 z "/>
</svg>
