<?xml version="1.0" encoding="UTF-8" standalone="no"?>
<svg xmlns="http://www.w3.org/2000/svg" xmlns:svg="http://www.w3.org/2000/svg" width="24" height="24" viewBox="0 0 24 24" fill="currentColor" tags="filter,plus,options,add" categories="text,layout">
  <path d="M 19 1 A 1 1 0 0 0 18 2 L 18 4 L 16 4 A 1 1 0 0 0 15 5 A 1 1 0 0 0 16 6 L 18 6 L 18 8 A 1 1 0 0 0 19 9 A 1 1 0 0 0 20 8 L 20 6 L 22 6 A 1 1 0 0 0 23 5 A 1 1 0 0 0 22 4 L 20 4 L 20 2 A 1 1 0 0 0 19 1 z M 2 4 A 1 1 0 0 0 1 5 A 1 1 0 0 0 2 6 L 12 6 A 1 1 0 0 0 13 5 A 1 1 0 0 0 12 4 L 2 4 z M 6 11 A 1 1 0 0 0 5 12 A 1 1 0 0 0 6 13 L 18 13 A 1 1 0 0 0 19 12 A 1 1 0 0 0 18 11 L 6 11 z M 9 18 A 1 1 0 0 0 8 19 A 1 1 0 0 0 9 20 L 15 20 A 1 1 0 0 0 16 19 A 1 1 0 0 0 15 18 L 9 18 z "/>
</svg>
