<?xml version="1.0" encoding="UTF-8" standalone="no"?>
<svg xmlns="http://www.w3.org/2000/svg" xmlns:svg="http://www.w3.org/2000/svg" width="24" height="24" viewBox="0 0 24 24" fill="currentColor" tags="todo,done,check,tick,complete,tasks,items,pending" categories="text">
  <path d="M 4 3 C 2.9092972 3 2 3.9092972 2 5 L 2 9 C 2 10.090703 2.9092972 11 4 11 L 8 11 C 9.0907028 11 10 10.090703 10 9 L 10 5 C 10 3.9092972 9.0907028 3 8 3 L 4 3 z M 13 4 A 1 1 0 0 0 12 5 A 1 1 0 0 0 13 6 L 21 6 A 1 1 0 0 0 22 5 A 1 1 0 0 0 21 4 L 13 4 z M 4 5 L 8 5 L 8 9 L 4 9 L 4 5 z M 13 11 A 1 1 0 0 0 12 12 A 1 1 0 0 0 13 13 L 21 13 A 1 1 0 0 0 22 12 A 1 1 0 0 0 21 11 L 13 11 z M 9 14 A 1 1 0 0 0 8.2929688 14.292969 L 5 17.585938 L 3.7070312 16.292969 A 1 1 0 0 0 2.2929688 16.292969 A 1 1 0 0 0 2.2929688 17.707031 L 4.2929688 19.707031 A 1.0001 1.0001 0 0 0 5.7070312 19.707031 L 9.7070312 15.707031 A 1 1 0 0 0 9.7070312 14.292969 A 1 1 0 0 0 9 14 z M 13 18 A 1 1 0 0 0 12 19 A 1 1 0 0 0 13 20 L 21 20 A 1 1 0 0 0 22 19 A 1 1 0 0 0 21 18 L 13 18 z "/>
</svg>
