<svg xmlns="http://www.w3.org/2000/svg" xmlns:svg="http://www.w3.org/2000/svg" width="24" height="24" viewBox="0 0 24 24" fill="currentColor" tags="queue,top,start,next,playlist" categories="multimedia,text">
  <path d="M 16 1 A 1 1 0 0 0 15.292969 1.2929688 L 12.302734 4.2832031 L 12.292969 4.2929688 A 1.0001 1.0001 0 0 0 12.25 4.3417969 A 1 1 0 0 0 12.212891 4.3847656 A 1.0001 1.0001 0 0 0 12.175781 4.4394531 A 1 1 0 0 0 12.076172 4.6171875 A 1 1 0 0 0 12.035156 4.7421875 A 1 1 0 0 0 12.023438 4.7949219 A 1.0001 1.0001 0 0 0 12 5 A 1.0001 1.0001 0 0 0 12.023438 5.2050781 A 1.0001 1.0001 0 0 0 12.035156 5.2578125 A 1 1 0 0 0 12.076172 5.3828125 A 1 1 0 0 0 12.175781 5.5605469 A 1.0001 1.0001 0 0 0 12.212891 5.6152344 A 1 1 0 0 0 12.25 5.6582031 A 1.0001 1.0001 0 0 0 12.292969 5.7070312 A 1 1 0 0 0 12.302734 5.7167969 L 15.292969 8.7070312 A 1 1 0 0 0 16.707031 8.7070312 A 1 1 0 0 0 16.707031 7.2929688 L 15.414062 6 L 19 6 C 19.564129 6 20 6.4358706 20 7 L 20 19 A 1 1 0 0 0 21 20 A 1 1 0 0 0 22 19 L 22 7 C 22 5.3549904 20.64501 4 19 4 L 15.414062 4 L 16.707031 2.7070312 A 1 1 0 0 0 16.707031 1.2929688 A 1 1 0 0 0 16 1 z M 3 4 A 1 1 0 0 0 2 5 A 1 1 0 0 0 3 6 L 9 6 A 1 1 0 0 0 10 5 A 1 1 0 0 0 9 4 L 3 4 z M 3 11 A 1 1 0 0 0 2 12 A 1 1 0 0 0 3 13 L 16 13 A 1 1 0 0 0 17 12 A 1 1 0 0 0 16 11 L 3 11 z M 3 18 A 1 1 0 0 0 2 19 A 1 1 0 0 0 3 20 L 16 20 A 1 1 0 0 0 17 19 A 1 1 0 0 0 16 18 L 3 18 z "/>
</svg>
