<?xml version="1.0" encoding="UTF-8" standalone="no"?>
<svg xmlns="http://www.w3.org/2000/svg" xmlns:svg="http://www.w3.org/2000/svg" width="24" height="24" viewBox="0 0 24 24" fill="currentColor" tags="items,collapse,expand,details,disclosure,show,hide,toggle,accordion,more,less,fold,unfold" categories="text">
  <path d="M 3 3 A 1 1 0 0 0 2.2929688 3.2929688 A 1 1 0 0 0 2.2929688 4.7070312 L 4.5859375 7 L 2.2929688 9.2929688 A 1 1 0 0 0 2.2929688 10.707031 A 1 1 0 0 0 3.7070312 10.707031 L 6.7070312 7.7070312 A 1.0001 1.0001 0 0 0 6.7070312 6.2929688 L 3.7070312 3.2929688 A 1 1 0 0 0 3 3 z M 10 5 A 1 1 0 0 0 9 6 A 1 1 0 0 0 10 7 L 21 7 A 1 1 0 0 0 22 6 A 1 1 0 0 0 21 5 L 10 5 z M 10 11 A 1 1 0 0 0 9 12 A 1 1 0 0 0 10 13 L 21 13 A 1 1 0 0 0 22 12 A 1 1 0 0 0 21 11 L 10 11 z M 3 13 A 1 1 0 0 0 2.2929688 13.292969 A 1 1 0 0 0 2.2929688 14.707031 L 4.5859375 17 L 2.2929688 19.292969 A 1 1 0 0 0 2.2929688 20.707031 A 1 1 0 0 0 3.7070312 20.707031 L 6.7070312 17.707031 A 1.0001 1.0001 0 0 0 6.7070312 16.292969 L 3.7070312 13.292969 A 1 1 0 0 0 3 13 z M 10 17 A 1 1 0 0 0 9 18 A 1 1 0 0 0 10 19 L 21 19 A 1 1 0 0 0 22 18 A 1 1 0 0 0 21 17 L 10 17 z "/>
</svg>
