<?xml version="1.0" encoding="UTF-8" standalone="no"?>
<svg xmlns="http://www.w3.org/2000/svg" xmlns:svg="http://www.w3.org/2000/svg" width="24" height="24" viewBox="0 0 24 24" fill="currentColor" tags="filter,plus,options,add" categories="text,layout">
  <path d="M 18 2 A 1 1 0 0 0 17 3 L 17 5 L 15 5 A 1 1 0 0 0 14 6 A 1 1 0 0 0 15 7 L 17 7 L 17 9 A 1 1 0 0 0 18 10 A 1 1 0 0 0 19 9 L 19 7 L 21 7 A 1 1 0 0 0 22 6 A 1 1 0 0 0 21 5 L 19 5 L 19 3 A 1 1 0 0 0 18 2 z M 3 5 A 1 1 0 0 0 2 6 A 1 1 0 0 0 3 7 L 11 7 A 1 1 0 0 0 12 6 A 1 1 0 0 0 11 5 L 3 5 z M 7 11 A 1 1 0 0 0 6 12 A 1 1 0 0 0 7 13 L 15 13 A 1 1 0 0 0 16 12 A 1 1 0 0 0 15 11 L 7 11 z M 10 17 A 1 1 0 0 0 9 18 A 1 1 0 0 0 10 19 L 14 19 A 1 1 0 0 0 15 18 A 1 1 0 0 0 14 17 L 10 17 z "/>
</svg>
