<?xml version="1.0" encoding="UTF-8" standalone="no"?>
<svg xmlns="http://www.w3.org/2000/svg" xmlns:svg="http://www.w3.org/2000/svg" width="24" height="24" viewBox="0 0 24 24" fill="currentColor" tags="loading,wait,busy,progress,throbber,spinner,spinning,beach ball,frozen,freeze" categories="cursors,design">
  <path d="M 12 1 C 10.439217 1 8.9539154 1.3287194 7.6074219 1.9179688 C 7.2366625 2.0518736 6.8652701 2.222045 6.4980469 2.4355469 A 1 1 0 0 0 6.3457031 2.5703125 C 3.2452192 4.4368501 1.1376627 7.7878057 1.0097656 11.630859 C 1.0034914 11.752386 1 11.875447 1 12 C 1 15.627562 2.7681533 18.85035 5.4863281 20.855469 C 5.7911842 21.113299 6.1287346 21.351913 6.5019531 21.566406 A 1 1 0 0 0 6.6953125 21.632812 C 8.2694748 22.503448 10.078131 23 12 23 C 17.959695 23 22.827473 18.229358 22.992188 12.308594 C 22.997393 12.206654 23 12.103183 23 12 C 23 5.9367124 18.063288 1 12 1 z M 13.498047 3.125 C 14.494902 3.2911143 15.436738 3.6181056 16.292969 4.0820312 C 16.293737 4.0824473 16.294154 4.0835681 16.294922 4.0839844 A 1 1 0 0 0 16.498047 4.2636719 C 17.715253 4.9713497 18.269784 5.8658053 18.462891 6.8183594 C 18.655998 7.7709135 18.448851 8.8143782 17.935547 9.6972656 C 17.42224 10.580153 16.616704 11.278577 15.693359 11.582031 C 15.144177 11.762519 14.547962 11.81715 13.900391 11.685547 C 14.712672 10.861846 15.220026 9.8861668 15.423828 8.8808594 C 15.726554 7.3875805 15.400755 5.8647689 14.664062 4.5976562 C 14.34932 4.0562996 13.957049 3.5564145 13.498047 3.125 z M 9.5996094 3.5390625 C 9.9837742 3.5389722 10.347105 3.6049546 10.693359 3.71875 C 11.616704 4.0222044 12.42224 4.7206282 12.935547 5.6035156 C 13.448853 6.486403 13.655998 7.5298678 13.462891 8.4824219 C 13.352151 9.028675 13.116204 9.5538839 12.710938 10.037109 C 12.391187 9.0061419 11.82443 8.1445025 11.101562 7.5019531 C 9.9578801 6.4853474 8.4722221 6 7 6 C 6.3308301 6 5.660878 6.105692 5.0195312 6.3105469 C 5.9137155 5.2136196 7.0629699 4.334294 8.3769531 3.7578125 C 8.3796224 3.7566414 8.382095 3.7550748 8.3847656 3.7539062 C 8.8109375 3.6059645 9.2154445 3.5391528 9.5996094 3.5390625 z M 7 8 C 8.0277779 8 9.0421194 8.3479866 9.7734375 8.9980469 C 10.189642 9.3680059 10.524728 9.8349165 10.740234 10.425781 C 9.651811 10.163327 8.5855247 10.218712 7.6386719 10.535156 C 6.183285 11.021556 5.0189328 12.071393 4.2832031 13.351562 C 3.9577209 13.917901 3.7203463 14.536359 3.5761719 15.177734 C 3.2049626 14.190079 3 13.119778 3 12 C 3 10.583334 3.4952444 9.6481071 4.2265625 8.9980469 C 4.9578806 8.3479866 5.9722221 8 7 8 z M 20.404297 8.7714844 C 20.787806 9.7732413 21 10.860903 21 12 C 21 14.220986 19.220985 16 17 16 C 15.348326 16 13.942999 15.015495 13.330078 13.597656 C 14.377609 13.838385 15.403059 13.781279 16.318359 13.480469 C 17.765848 13.004756 18.92737 11.970238 19.664062 10.703125 C 20.011044 10.106317 20.26236 9.4519383 20.404297 8.7714844 z M 9.3789062 12.246094 C 9.5567106 12.245239 9.7411482 12.264513 9.9277344 12.292969 C 9.2143387 13.078019 8.7653754 13.986622 8.5761719 14.919922 C 8.2734462 16.413201 8.5992439 17.936012 9.3359375 19.203125 C 9.7114503 19.849007 10.197509 20.434203 10.775391 20.916016 C 9.3102322 20.717808 7.9596788 20.168011 6.8085938 19.355469 C 6.0481454 18.737609 5.6557924 18.020309 5.4980469 17.261719 C 5.2979601 16.299512 5.5033069 15.242487 6.0175781 14.347656 C 6.5318484 13.452826 7.3413249 12.745112 8.2734375 12.433594 C 8.6229797 12.316775 8.9904488 12.24796 9.3789062 12.246094 z M 11.271484 13.78125 C 12.034299 16.219333 14.317885 18 17 18 C 17.704977 18 18.382169 17.876 19.011719 17.650391 C 18.429974 18.372195 17.738725 19.001152 16.962891 19.513672 A 1 1 0 0 0 16.498047 19.634766 C 15.280841 20.342443 14.229985 20.385486 13.306641 20.082031 C 12.383296 19.778577 11.57776 19.080153 11.064453 18.197266 C 10.551147 17.314378 10.344002 16.270913 10.537109 15.318359 C 10.646348 14.779511 10.8764 14.259621 11.271484 13.78125 z "/>
</svg>
