<?xml version="1.0" encoding="UTF-8" standalone="no"?>
<svg xmlns="http://www.w3.org/2000/svg" xmlns:svg="http://www.w3.org/2000/svg" width="24" height="24" viewBox="0 0 24 24" fill="currentColor" tags="loading,wait,busy,progress,throbber,spinner,spinning,beach ball,frozen,freeze" categories="cursors,design">
  <path d="M 12 1 C 10.43922 1 8.9539138 1.3287195 7.6074219 1.9179688 C 7.2366627 2.0518735 6.8652694 2.2220454 6.4980469 2.4355469 A 1 1 0 0 0 6.3457031 2.5703125 C 3.2452223 4.4368495 1.1376627 7.7878131 1.0097656 11.630859 C 1.0034914 11.752386 1 11.875447 1 12 C 1 15.627555 2.7681556 18.850351 5.4863281 20.855469 C 5.7911838 21.113299 6.1287353 21.351913 6.5019531 21.566406 A 1 1 0 0 0 6.6953125 21.632812 C 8.2694731 22.503448 10.078135 23 12 23 C 17.959683 23 22.827473 18.229347 22.992188 12.308594 C 22.997393 12.206654 23 12.103183 23 12 C 23 5.9367246 18.063276 1 12 1 z M 13.498047 3.125 C 14.4949 3.2911143 15.436739 3.6181058 16.292969 4.0820312 C 16.293737 4.0824473 16.294154 4.0835681 16.294922 4.0839844 A 1 1 0 0 0 16.498047 4.2636719 C 17.71525 4.9713483 18.269784 5.8658071 18.462891 6.8183594 C 18.655996 7.7709115 18.44885 8.81438 17.935547 9.6972656 C 17.422241 10.580151 16.616702 11.278578 15.693359 11.582031 C 15.144178 11.762518 14.547961 11.81715 13.900391 11.685547 C 14.712671 10.861846 15.220027 9.8861651 15.423828 8.8808594 C 15.726554 7.3875835 15.400754 5.8647664 14.664062 4.5976562 C 14.349321 4.0563007 13.957049 3.5564143 13.498047 3.125 z M 9.5996094 3.5390625 C 9.983774 3.5389721 10.347106 3.6049548 10.693359 3.71875 C 11.616702 4.0222038 12.422241 4.72063 12.935547 5.6035156 C 13.448852 6.4864012 13.655996 7.5298696 13.462891 8.4824219 C 13.352151 9.0286739 13.116203 9.5538841 12.710938 10.037109 C 12.391187 9.0061426 11.824429 8.1445012 11.101562 7.5019531 C 9.9578823 6.4853494 8.4722192 6 7 6 C 6.3308314 6 5.6608776 6.105692 5.0195312 6.3105469 C 5.9137151 5.2136205 7.0629714 4.3342939 8.3769531 3.7578125 C 8.3796224 3.7566414 8.382095 3.7550748 8.3847656 3.7539062 C 8.8109371 3.6059648 9.2154447 3.5391529 9.5996094 3.5390625 z M 7 8 C 8.0277758 8 9.0421208 8.3479879 9.7734375 8.9980469 C 10.189641 9.3680052 10.524728 9.8349168 10.740234 10.425781 C 9.6518117 10.163327 8.5855228 10.218713 7.6386719 10.535156 C 6.1832879 11.021555 5.0189314 12.071395 4.2832031 13.351562 C 3.9577216 13.9179 3.7203461 14.53636 3.5761719 15.177734 C 3.2049626 14.19008 3 13.119776 3 12 C 3 10.583337 3.4952458 9.6481058 4.2265625 8.9980469 C 4.9578792 8.3479879 5.9722242 8 7 8 z M 20.404297 8.7714844 C 20.787806 9.77324 21 10.860906 21 12 C 21 14.220982 19.22098 16 17 16 C 15.34833 16 13.942999 15.015493 13.330078 13.597656 C 14.377608 13.838385 15.403061 13.781279 16.318359 13.480469 C 17.765845 13.004757 18.927371 11.970235 19.664062 10.703125 C 20.011044 10.106318 20.26236 9.4519379 20.404297 8.7714844 z M 9.3789062 12.246094 C 9.5567106 12.245239 9.7411482 12.264513 9.9277344 12.292969 C 9.2143393 13.078019 8.7653751 13.986625 8.5761719 14.919922 C 8.2734468 16.413197 8.5992456 17.936015 9.3359375 19.203125 C 9.7114494 19.849005 10.197509 20.434203 10.775391 20.916016 C 9.3102347 20.717808 7.9596778 20.168011 6.8085938 19.355469 C 6.0481464 18.73761 5.655792 18.020307 5.4980469 17.261719 C 5.2979605 16.299514 5.5033074 15.242485 6.0175781 14.347656 C 6.5318474 13.452828 7.3413268 12.74511 8.2734375 12.433594 C 8.622979 12.316775 8.9904489 12.24796 9.3789062 12.246094 z M 11.271484 13.78125 C 12.034298 16.21933 14.31789 18 17 18 C 17.704976 18 18.38217 17.876 19.011719 17.650391 C 18.429975 18.372194 17.738724 19.001152 16.962891 19.513672 A 1 1 0 0 0 16.498047 19.634766 C 15.280843 20.342442 14.229983 20.385485 13.306641 20.082031 C 12.383298 19.778578 11.577759 19.080151 11.064453 18.197266 C 10.551148 17.31438 10.344004 16.270912 10.537109 15.318359 C 10.646348 14.779512 10.8764 14.259621 11.271484 13.78125 z "/>
</svg>
