<?xml version="1.0" encoding="UTF-8" standalone="no"?>
<svg xmlns="http://www.w3.org/2000/svg" xmlns:svg="http://www.w3.org/2000/svg" width="24" height="24" viewBox="0 0 24 24" fill="currentColor" tags="load" categories="multimedia,layout">
  <path d="M 11.751953 1.9785156 C 8.5168922 2.0357926 5.6684739 3.7004277 3.9101562 6.1210938 C 1.5657327 9.3486486 1.0976036 14.00568 3.9101562 17.876953 C 6.7227088 21.748227 11.295752 22.741956 15.089844 21.509766 C 18.883936 20.277574 21.999765 16.786347 22 12 A 1 1 0 0 0 21 11 A 1 1 0 0 0 20 12 C 19.999807 15.933411 17.537743 18.611987 14.472656 19.607422 C 11.40757 20.602857 7.8404442 19.882298 5.5292969 16.701172 C 3.2181495 13.520046 3.6333833 9.9042798 5.5273438 7.296875 C 7.4213043 4.6894702 10.731738 3.1752009 14.472656 4.390625 A 1 1 0 0 0 15.732422 3.7480469 A 1 1 0 0 0 15.089844 2.4882812 C 13.951815 2.1185359 12.830307 1.9594234 11.751953 1.9785156 z "/>
</svg>
