<?xml version="1.0" encoding="UTF-8" standalone="no"?>
<svg xmlns="http://www.w3.org/2000/svg" xmlns:svg="http://www.w3.org/2000/svg" width="24" height="24" viewBox="0 0 24 24" fill="currentColor" tags="load,wait" categories="multimedia,layout">
  <path d="M 12 1 A 1 1 0 0 0 11 2 L 11 6 A 1 1 0 0 0 12 7 A 1 1 0 0 0 13 6 L 13 2 A 1 1 0 0 0 12 1 z M 4.9296875 3.9296875 A 1 1 0 0 0 4.2226562 4.2226562 A 1 1 0 0 0 4.2226562 5.6367188 L 7.0527344 8.4667969 A 1 1 0 0 0 8.4667969 8.4667969 A 1 1 0 0 0 8.4667969 7.0527344 L 5.6367188 4.2226562 A 1 1 0 0 0 4.9296875 3.9296875 z M 18.958984 3.9355469 A 1 1 0 0 0 18.363281 4.2226562 L 15.533203 7.0527344 A 1 1 0 0 0 15.533203 8.4667969 A 1 1 0 0 0 16.947266 8.4667969 L 19.777344 5.6367188 A 1 1 0 0 0 19.777344 4.2226562 A 1 1 0 0 0 18.958984 3.9355469 z M 2 11 A 1 1 0 0 0 1 12 A 1 1 0 0 0 2 13 L 6 13 A 1 1 0 0 0 7 12 A 1 1 0 0 0 6 11 L 2 11 z M 18 11 A 1 1 0 0 0 17 12 A 1 1 0 0 0 18 13 L 22 13 A 1 1 0 0 0 23 12 A 1 1 0 0 0 22 11 L 18 11 z M 7.6484375 15.246094 A 1 1 0 0 0 7.0527344 15.533203 L 4.2226562 18.363281 A 1 1 0 0 0 4.2226562 19.777344 A 1 1 0 0 0 5.6367188 19.777344 L 8.4667969 16.947266 A 1 1 0 0 0 8.4667969 15.533203 A 1 1 0 0 0 7.6484375 15.246094 z M 16.128906 15.246094 A 1 1 0 0 0 15.533203 15.533203 A 1 1 0 0 0 15.533203 16.947266 L 18.363281 19.777344 A 1 1 0 0 0 19.777344 19.777344 A 1 1 0 0 0 19.777344 18.363281 L 16.947266 15.533203 A 1 1 0 0 0 16.128906 15.246094 z M 12 17 A 1 1 0 0 0 11 18 L 11 22 A 1 1 0 0 0 12 23 A 1 1 0 0 0 13 22 L 13 18 A 1 1 0 0 0 12 17 z "/>
</svg>
