<svg xmlns="http://www.w3.org/2000/svg" xmlns:svg="http://www.w3.org/2000/svg" width="24" height="24" viewBox="0 0 24 24" fill="currentColor" tags="loading,wait,busy,progress,throbber,spinner,spinning,beach ball,frozen,freeze" categories="cursors,design">
  <path d="M 12 1 C 10.441958 1 8.9578997 1.326767 7.6132812 1.9140625 C 7.2402842 2.0483079 6.8674887 2.2207551 6.4980469 2.4355469 A 1 1 0 0 0 6.2753906 2.6113281 C 3.3408192 4.4078529 1.3326662 7.5473034 1.0566406 11.162109 C 1.0236519 11.434133 1.0000003 11.711343 1 12 A 1 1 0 0 0 1.0078125 12.132812 C 1.0509831 15.710264 2.8054692 18.885496 5.4960938 20.865234 C 5.7980508 21.119449 6.1332912 21.354532 6.5019531 21.566406 A 1 1 0 0 0 6.7636719 21.671875 C 8.3215183 22.518915 10.106286 23 12 23 C 17.877442 23 22.682772 18.357809 22.972656 12.550781 C 22.98936 12.369233 23 12.185742 23 12 C 23 5.9367124 18.063288 1 12 1 z M 13.494141 3.1230469 C 14.475344 3.2860804 15.402535 3.6066094 16.248047 4.0585938 A 1 1 0 0 0 16.498047 4.2636719 C 17.715253 4.9713497 18.269784 5.8658053 18.462891 6.8183594 C 18.655998 7.7709135 18.448851 8.8143782 17.935547 9.6972656 C 17.42224 10.580153 16.616704 11.278577 15.693359 11.582031 C 15.143538 11.762729 14.548839 11.819697 13.900391 11.6875 C 14.713608 10.863459 15.219893 9.8868273 15.423828 8.8808594 C 15.726554 7.3875805 15.400755 5.8647689 14.664062 4.5976562 C 14.348627 4.0551069 13.954448 3.5551122 13.494141 3.1230469 z M 9.5917969 3.5390625 C 9.9786854 3.5381256 10.344883 3.6042243 10.693359 3.71875 C 11.616704 4.0222044 12.42224 4.7206282 12.935547 5.6035156 C 13.448853 6.486403 13.655998 7.5298678 13.462891 8.4824219 C 13.351807 9.0303732 13.120513 9.5585112 12.712891 10.042969 C 12.393477 9.0093871 11.825809 8.1457283 11.101562 7.5019531 C 9.9578801 6.4853474 8.4722221 6 7 6 C 6.3332639 6 5.6646261 6.0993825 5.0253906 6.3027344 C 5.9170737 5.2111994 7.0591303 4.3350274 8.3671875 3.7597656 C 8.7966638 3.6087423 9.2049084 3.5399994 9.5917969 3.5390625 z M 7 8 C 8.0277779 8 9.0421194 8.3479866 9.7734375 8.9980469 C 10.190648 9.3689 10.530669 9.8328657 10.746094 10.425781 C 9.6554683 10.161571 8.5873652 10.218097 7.6386719 10.535156 C 6.183285 11.021556 5.0189328 12.071393 4.2832031 13.351562 C 3.9587886 13.916044 3.7146683 14.530814 3.5703125 15.169922 C 3.2012943 14.184813 3 13.116307 3 12 C 3.0000014 10.583337 3.4952454 9.6481061 4.2265625 8.9980469 C 4.9578806 8.3479866 5.9722221 8 7 8 z M 20.408203 8.7753906 C 20.790603 9.7758892 21 10.862634 21 12 C 21 14.220986 19.220985 16 17 16 C 15.348126 16 13.940928 15.015772 13.328125 13.597656 C 14.37632 13.838896 15.402502 13.781462 16.318359 13.480469 C 17.765848 13.004756 18.92737 11.970238 19.664062 10.703125 C 20.010583 10.107111 20.266153 9.4548679 20.408203 8.7753906 z M 9.4921875 12.248047 C 9.6356736 12.2521 9.7825232 12.266075 9.9316406 12.289062 C 9.2163823 13.074917 8.7656593 13.985222 8.5761719 14.919922 C 8.2734462 16.413201 8.5992439 17.936012 9.3359375 19.203125 C 9.7119643 19.849891 10.198419 20.435781 10.777344 20.917969 C 9.2979931 20.718374 7.933906 20.160966 6.7753906 19.335938 C 6.0319371 18.722809 5.6540051 18.011714 5.4980469 17.261719 C 5.2979601 16.299512 5.5033069 15.242487 6.0175781 14.347656 C 6.5318484 13.452826 7.3413249 12.745112 8.2734375 12.433594 C 8.6568368 12.305459 9.0617292 12.235887 9.4921875 12.248047 z M 11.269531 13.777344 C 12.03082 16.217936 14.316092 18 17 18 C 17.705279 18 18.383894 17.876185 19.013672 17.650391 C 18.437678 18.365021 17.752818 18.990286 16.986328 19.5 A 1 1 0 0 0 16.498047 19.634766 C 15.280841 20.342443 14.229985 20.385486 13.306641 20.082031 C 12.383296 19.778577 11.57776 19.080153 11.064453 18.197266 C 10.551147 17.314378 10.344002 16.270913 10.537109 15.318359 C 10.646666 14.777939 10.872298 14.256865 11.269531 13.777344 z "/>
</svg>
