<?xml version="1.0" encoding="UTF-8" standalone="no"?>
<svg xmlns="http://www.w3.org/2000/svg" xmlns:svg="http://www.w3.org/2000/svg" width="24" height="24" viewBox="0 0 24 24" fill="currentColor" tags="loading,wait,busy,progress,spinner,spinning,throbber" categories="cursors,multimedia,layout,design">
  <path d="M 12 1 A 1 1 0 0 0 11 2 L 11 6 A 1 1 0 0 0 12 7 A 1 1 0 0 0 13 6 L 13 2 A 1 1 0 0 0 12 1 z M 4.9003906 3.9003906 A 1 1 0 0 0 4.1933594 4.1933594 A 1 1 0 0 0 4.1933594 5.6074219 L 7.09375 8.5078125 A 1 1 0 0 0 8.5078125 8.5078125 A 1 1 0 0 0 8.5078125 7.09375 L 5.6074219 4.1933594 A 1 1 0 0 0 4.9003906 3.9003906 z M 19.099609 3.9003906 A 1 1 0 0 0 18.392578 4.1933594 L 15.492188 7.09375 A 1 1 0 0 0 15.492188 8.5078125 A 1 1 0 0 0 16.90625 8.5078125 L 19.806641 5.6074219 A 1 1 0 0 0 19.806641 4.1933594 A 1 1 0 0 0 19.099609 3.9003906 z M 2 11 A 1 1 0 0 0 1 12 A 1 1 0 0 0 2 13 L 6 13 A 1 1 0 0 0 7 12 A 1 1 0 0 0 6 11 L 2 11 z M 18 11 A 1 1 0 0 0 17 12 A 1 1 0 0 0 18 13 L 22 13 A 1 1 0 0 0 23 12 A 1 1 0 0 0 22 11 L 18 11 z M 7.8007812 15.199219 A 1 1 0 0 0 7.09375 15.492188 L 4.1933594 18.392578 A 1 1 0 0 0 4.1933594 19.806641 A 1 1 0 0 0 5.6074219 19.806641 L 8.5078125 16.90625 A 1 1 0 0 0 8.5078125 15.492188 A 1 1 0 0 0 7.8007812 15.199219 z M 16.199219 15.199219 A 1 1 0 0 0 15.492188 15.492188 A 1 1 0 0 0 15.492188 16.90625 L 18.392578 19.806641 A 1 1 0 0 0 19.806641 19.806641 A 1 1 0 0 0 19.806641 18.392578 L 16.90625 15.492188 A 1 1 0 0 0 16.199219 15.199219 z M 12 17 A 1 1 0 0 0 11 18 L 11 22 A 1 1 0 0 0 12 23 A 1 1 0 0 0 13 22 L 13 18 A 1 1 0 0 0 12 17 z "/>
</svg>
