<?xml version="1.0" encoding="UTF-8" standalone="no"?>
<svg xmlns="http://www.w3.org/2000/svg" xmlns:svg="http://www.w3.org/2000/svg" width="24" height="24" viewBox="0 0 24 24" fill="currentColor" tags="loading,wait,busy,progress,spinner,spinning,throbber,circle" categories="cursors,multimedia,layout">
  <path d="M 11.751953 1.9785156 C 8.5168857 2.0357923 5.6684773 3.7004228 3.9101562 6.1210938 C 1.5657279 9.348655 1.097598 14.005672 3.9101562 17.876953 C 6.7227144 21.748235 11.295744 22.74196 15.089844 21.509766 C 18.883944 20.277572 21.999765 16.786357 22 12 A 1 1 0 0 0 21 11 A 1 1 0 0 0 20 12 C 19.999807 15.933419 17.537749 18.611985 14.472656 19.607422 C 11.407564 20.602859 7.8404489 19.882304 5.5292969 16.701172 C 3.2181449 13.52004 3.6333796 9.904285 5.5273438 7.296875 C 7.421308 4.689465 10.731731 3.1751985 14.472656 4.390625 A 1 1 0 0 0 15.732422 3.7480469 A 1 1 0 0 0 15.089844 2.4882812 C 13.951813 2.1185352 12.830309 1.9594234 11.751953 1.9785156 z "/>
</svg>
