<?xml version="1.0" encoding="UTF-8" standalone="no"?>
<svg xmlns="http://www.w3.org/2000/svg" xmlns:svg="http://www.w3.org/2000/svg" width="24" height="24" viewBox="0 0 24 24" fill="currentColor" tags="map,gps,location,cross" categories="navigation">
  <path d="M 2 1 A 1 1 0 0 0 1.2929688 1.2929688 A 1 1 0 0 0 1.2929688 2.7070312 L 5.6816406 7.0957031 C 4.7805807 8.2555455 4.2419117 9.60866 4.0683594 11 L 2 11 A 1 1 0 0 0 1 12 A 1 1 0 0 0 2 13 L 4.0683594 13 C 4.2809333 14.704168 5.039747 16.352247 6.34375 17.65625 C 7.647753 18.960253 9.2958315 19.719067 11 19.931641 L 11 22 A 1 1 0 0 0 12 23 A 1 1 0 0 0 13 22 L 13 19.931641 C 14.39134 19.758088 15.744454 19.219419 16.904297 18.318359 L 21.292969 22.707031 A 1 1 0 0 0 22.707031 22.707031 A 1 1 0 0 0 22.707031 21.292969 L 17.65625 16.242188 L 7.7578125 6.34375 L 2.7070312 1.2929688 A 1 1 0 0 0 2 1 z M 12 1 A 1 1 0 0 0 11 2 L 11 4.0605469 C 10.861115 4.0781058 10.721756 4.099833 10.582031 4.125 A 1 1 0 0 0 9.7753906 5.2871094 A 1 1 0 0 0 10.9375 6.09375 C 11.264755 6.0348055 11.588061 6.0031754 11.90625 5.9960938 A 1 1 0 0 0 12 6 A 1 1 0 0 0 12.105469 5.9941406 C 15.345679 6.0278793 17.972121 8.6543209 18.005859 11.894531 A 1 1 0 0 0 18 12 A 1 1 0 0 0 18.003906 12.09375 C 17.996825 12.411939 17.965195 12.735245 17.90625 13.0625 A 1 1 0 0 0 18.712891 14.224609 A 1 1 0 0 0 19.875 13.417969 C 19.900175 13.278197 19.921799 13.138845 19.939453 13 L 22 13 A 1 1 0 0 0 23 12 A 1 1 0 0 0 22 11 L 19.939453 11 C 19.482358 7.413025 16.587114 4.5170107 13 4.0605469 L 13 2 A 1 1 0 0 0 12 1 z M 7.109375 8.5234375 L 15.476562 16.890625 C 14.465866 17.613321 13.286738 17.985948 12.101562 18.005859 A 1 1 0 0 0 12 18 A 1 1 0 0 0 11.898438 18.005859 C 10.39901 17.980668 8.907888 17.392263 7.7578125 16.242188 C 6.6077374 15.092113 6.0193322 13.60099 5.9941406 12.101562 A 1 1 0 0 0 6 12 A 1 1 0 0 0 5.9941406 11.898438 C 6.0140524 10.713262 6.386679 9.5341337 7.109375 8.5234375 z "/>
</svg>
