<?xml version="1.0" encoding="UTF-8" standalone="no"?>
<svg xmlns="http://www.w3.org/2000/svg" xmlns:svg="http://www.w3.org/2000/svg" width="24" height="24" viewBox="0 0 24 24" fill="currentColor" tags="map,gps,location,cross" categories="navigation">
  <path d="M 12 1 A 1 1 0 0 0 11 2 L 11 4.0644531 C 7.3909808 4.5182244 4.5182244 7.3909808 4.0644531 11 L 2 11 A 1 1 0 0 0 1 12 A 1 1 0 0 0 2 13 L 4.0644531 13 C 4.5182244 16.609019 7.3909808 19.481776 11 19.935547 L 11 22 A 1 1 0 0 0 12 23 A 1 1 0 0 0 13 22 L 13 19.935547 C 16.609019 19.481776 19.481776 16.609019 19.935547 13 L 22 13 A 1 1 0 0 0 23 12 A 1 1 0 0 0 22 11 L 19.935547 11 C 19.481776 7.3909808 16.609019 4.5182244 13 4.0644531 L 13 2 A 1 1 0 0 0 12 1 z M 12 6 C 15.325553 6 18 8.6744469 18 12 C 18 15.325553 15.325553 18 12 18 C 8.6744469 18 6 15.325553 6 12 C 6 8.6744469 8.6744469 6 12 6 z "/>
</svg>
