<?xml version="1.0" encoding="UTF-8" standalone="no"?>
<svg xmlns="http://www.w3.org/2000/svg" xmlns:svg="http://www.w3.org/2000/svg" width="24" height="24" viewBox="0 0 24 24" fill="currentColor" tags="map,gps,location,cross" categories="navigation">
  <path d="M 2 1 A 1 1 0 0 0 1.2929688 1.2929688 A 1 1 0 0 0 1.2929688 2.7070312 L 5.7363281 7.1503906 C 4.8692475 8.2445873 4.2612496 9.5587524 4.0664062 11 L 2 11 A 1 1 0 0 0 1 12 A 1 1 0 0 0 2 13 L 4.0625 13 C 4.5154388 16.611815 7.3881844 19.484561 11 19.9375 L 11 22 A 1 1 0 0 0 12 23 A 1 1 0 0 0 13 22 L 13 19.933594 C 14.441248 19.73875 15.755413 19.130753 16.849609 18.263672 L 21.292969 22.707031 A 1 1 0 0 0 22.707031 22.707031 A 1 1 0 0 0 22.707031 21.292969 L 17.597656 16.183594 L 7.8164062 6.4023438 L 2.7070312 1.2929688 A 1 1 0 0 0 2 1 z M 12 1 A 1 1 0 0 0 11 2 L 11 4.0644531 C 10.575602 4.1195302 10.158301 4.209482 9.7519531 4.3320312 A 1 1 0 0 0 9.0820312 5.578125 A 1 1 0 0 0 10.328125 6.2480469 C 10.866143 6.0857874 11.429502 6 12 6 C 15.33081 6 18 8.6691904 18 12 C 18 12.570498 17.91421 13.133857 17.751953 13.671875 A 1 1 0 0 0 18.421875 14.917969 A 1 1 0 0 0 19.667969 14.248047 C 19.790518 13.841699 19.88047 13.424398 19.935547 13 L 22 13 A 1 1 0 0 0 23 12 A 1 1 0 0 0 22 11 L 19.9375 11 C 19.484561 7.3881844 16.611815 4.5154388 13 4.0625 L 13 2 A 1 1 0 0 0 12 1 z M 7.1621094 8.5761719 L 15.423828 16.837891 C 14.437147 17.566913 13.265906 17.999998 12 18 C 8.6691904 18 6 15.33081 6 12 C 6 10.73409 6.4330849 9.5628551 7.1621094 8.5761719 z "/>
</svg>
