<svg xmlns="http://www.w3.org/2000/svg" xmlns:svg="http://www.w3.org/2000/svg" width="24" height="24" viewBox="0 0 24 24" fill="currentColor" tags="security,password,secure,admin" categories="security">
  <path d="M 12 1 C 10.527778 1 9.0421194 1.4853474 7.8984375 2.5019531 C 6.7547556 3.5185588 6 5.0833339 6 7 L 6 9 L 5 9 C 3.3552972 9 2 10.355297 2 12 L 2 20 C 2 21.644703 3.3552972 23 5 23 L 19 23 C 20.644703 23 22 21.644703 22 20 L 22 12 C 22 10.355297 20.644703 9 19 9 L 18 9 L 18 7 C 18 5.0833339 17.245244 3.5185588 16.101562 2.5019531 C 14.957881 1.4853474 13.472222 1 12 1 z M 12 3 C 13.027778 3 14.042119 3.3479866 14.773438 3.9980469 C 15.504755 4.6481071 16 5.5833342 16 7 L 16 9 L 8 9 L 8 7 C 8 5.5833342 8.4952444 4.6481071 9.2265625 3.9980469 C 9.9578806 3.3479866 10.972222 3 12 3 z M 5 11 L 7 11 L 17 11 L 19 11 C 19.571297 11 20 11.428703 20 12 L 20 20 C 20 20.571297 19.571297 21 19 21 L 5 21 C 4.4287028 21 4 20.571297 4 20 L 4 12 C 4 11.428703 4.4287028 11 5 11 z M 12 14 C 10.907275 14 10 14.907275 10 16 C 10 17.092725 10.907275 18 12 18 C 13.092725 18 14 17.092725 14 16 C 14 14.907275 13.092725 14 12 14 z "/>
</svg>
