<?xml version="1.0" encoding="UTF-8" standalone="no"?>
<svg xmlns="http://www.w3.org/2000/svg" xmlns:svg="http://www.w3.org/2000/svg" width="24" height="24" viewBox="0 0 24 24" fill="currentColor" tags="security" categories="security">
  <path d="M 12.300781 1.0058594 C 11.672983 0.97677184 11.045883 1.044677 10.447266 1.2050781 C 8.0527974 1.8466826 6.0001319 4.0010857 6 7 L 6 9 L 5 9 C 3.3552972 9 2 10.355297 2 12 L 2 20 C 2 21.644703 3.3552972 23 5 23 L 19 23 C 20.644703 23 22 21.644703 22 20 L 22 12 C 22 10.355297 20.644703 9 19 9 L 8 9 L 8 7 C 8.0000931 4.8836524 9.3338317 3.5737529 10.964844 3.1367188 C 12.595856 2.6996844 14.406577 3.1672429 15.464844 5 A 1 1 0 0 0 16.830078 5.3652344 A 1 1 0 0 0 17.195312 4 C 16.070621 2.0522052 14.184175 1.0931219 12.300781 1.0058594 z M 5 11 L 7 11 L 19 11 C 19.571297 11 20 11.428703 20 12 L 20 20 C 20 20.571297 19.571297 21 19 21 L 5 21 C 4.4287028 21 4 20.571297 4 20 L 4 12 C 4 11.428703 4.4287028 11 5 11 z M 12 14 C 10.907275 14 10 14.907275 10 16 C 10 17.092725 10.907275 18 12 18 C 13.092725 18 14 17.092725 14 16 C 14 14.907275 13.092725 14 12 14 z "/>
</svg>
