<?xml version="1.0" encoding="UTF-8" standalone="no"?>
<svg xmlns="http://www.w3.org/2000/svg" xmlns:svg="http://www.w3.org/2000/svg" width="24" height="24" viewBox="0 0 24 24" fill="currentColor" tags="security,password,secure,admin" categories="security">
  
  <path d="M 12 1 C 10.52778 1 9.0421172 1.4853494 7.8984375 2.5019531 C 6.7547578 3.5185568 6 5.0833378 6 7 L 6 9 L 5 9 C 3.3553005 9 2 10.355301 2 12 L 2 20 C 2 21.644699 3.3553005 23 5 23 L 19 23 C 20.644699 23 22 21.644699 22 20 L 22 12 C 22 10.355301 20.644699 9 19 9 L 18 9 L 18 7 C 18 5.0833378 17.245242 3.5185568 16.101562 2.5019531 C 14.957884 1.4853494 13.47222 1 12 1 z M 12 3 C 13.027776 3 14.04212 3.3479879 14.773438 3.9980469 C 15.504754 4.6481058 16 5.583337 16 7 L 16 9 L 8 9 L 8 7 C 8 5.583337 8.4952458 4.6481058 9.2265625 3.9980469 C 9.9578792 3.3479879 10.972224 3 12 3 z M 5 11 L 7 11 L 17 11 L 19 11 C 19.571296 11 20 11.428704 20 12 L 20 20 C 20 20.571296 19.571296 21 19 21 L 5 21 C 4.4287039 21 4 20.571296 4 20 L 4 12 C 4 11.428704 4.4287039 11 5 11 z M 12 14 C 10.907277 14 10 14.907277 10 16 C 10 17.092723 10.907277 18 12 18 C 13.092723 18 14 17.092723 14 16 C 14 14.907277 13.092723 14 12 14 z "/>
</svg>
