<?xml version="1.0" encoding="UTF-8" standalone="no"?>
<svg xmlns="http://www.w3.org/2000/svg" xmlns:svg="http://www.w3.org/2000/svg" width="24" height="24" viewBox="0 0 24 24" fill="currentColor" tags="security" categories="security">
  <path d="M 11.916016 0.99609375 C 11.742456 0.99861795 11.568457 1.0080197 11.396484 1.0253906 C 8.6449257 1.3033259 5.9964849 3.5042971 6 7.0019531 L 6 10 L 5 10 C 3.3552972 10 2 11.355297 2 13 L 2 20 C 2 21.644703 3.3552972 23 5 23 L 19 23 C 20.644703 23 22 21.644703 22 20 L 22 13 C 22 11.355297 20.644703 10 19 10 L 8 10 L 8 7 A 1.0001 1.0001 0 0 0 8 6.9980469 C 7.99745 4.4624266 9.6978479 3.2075249 11.597656 3.015625 C 13.497465 2.8237251 15.415346 3.7143084 15.919922 6.1992188 A 1 1 0 0 0 17.099609 6.9804688 A 1 1 0 0 0 17.880859 5.8007812 C 17.228344 2.5873036 14.519412 0.9582307 11.916016 0.99609375 z M 5 12 L 7 12 L 19 12 C 19.571297 12 20 12.428703 20 13 L 20 20 C 20 20.571297 19.571297 21 19 21 L 5 21 C 4.4287028 21 4 20.571297 4 20 L 4 13 C 4 12.428703 4.4287028 12 5 12 z "/>
</svg>
