<?xml version="1.0" encoding="UTF-8" standalone="no"?>
<svg xmlns="http://www.w3.org/2000/svg" xmlns:svg="http://www.w3.org/2000/svg" width="24" height="24" viewBox="0 0 24 24" fill="currentColor" tags="security,password,secure,admin" categories="security">
  <path d="M 12 1 C 10.527778 1 9.0421194 1.4853474 7.8984375 2.5019531 C 6.7547556 3.5185588 6 5.0833339 6 7 L 6 10 L 5 10 C 3.3552972 10 2 11.355297 2 13 L 2 20 C 2 21.644703 3.3552972 23 5 23 L 19 23 C 20.644703 23 22 21.644703 22 20 L 22 13 C 22 11.355297 20.644703 10 19 10 L 18 10 L 18 7 C 18 5.0833339 17.245244 3.5185588 16.101562 2.5019531 C 14.957881 1.4853474 13.472222 1 12 1 z M 12 3 C 13.027778 3 14.042119 3.3479866 14.773438 3.9980469 C 15.504755 4.6481071 16 5.5833342 16 7 L 16 10 L 8 10 L 8 7 C 8 5.5833342 8.4952444 4.6481071 9.2265625 3.9980469 C 9.9578806 3.3479866 10.972222 3 12 3 z M 5 12 L 7 12 L 17 12 L 19 12 C 19.571297 12 20 12.428703 20 13 L 20 20 C 20 20.571297 19.571297 21 19 21 L 5 21 C 4.4287028 21 4 20.571297 4 20 L 4 13 C 4 12.428703 4.4287028 12 5 12 z "/>
</svg>
