<?xml version="1.0" encoding="UTF-8" standalone="no"?>
<svg xmlns="http://www.w3.org/2000/svg" xmlns:svg="http://www.w3.org/2000/svg" width="24" height="24" viewBox="0 0 24 24" fill="currentColor" tags="sign in,arrow,enter,auth" categories="arrows,account">
  <path d="M 15 2 A 1 1 0 0 0 14 3 A 1 1 0 0 0 15 4 L 19 4 C 19.564128 4 20 4.4358718 20 5 L 20 19 C 20 19.564128 19.564128 20 19 20 L 15 20 A 1 1 0 0 0 14 21 A 1 1 0 0 0 15 22 L 19 22 C 20.645006 22 22 20.645006 22 19 L 22 5 C 22 3.3549936 20.645006 2 19 2 L 15 2 z M 10 6 A 1 1 0 0 0 9.2929688 6.2929688 A 1 1 0 0 0 9.2929688 7.7070312 L 12.585938 11 L 3 11 A 1 1 0 0 0 2 12 A 1 1 0 0 0 3 13 L 12.585938 13 L 9.2929688 16.292969 A 1 1 0 0 0 9.2929688 17.707031 A 1 1 0 0 0 10.707031 17.707031 L 15.707031 12.707031 A 1.0001 1.0001 0 0 0 15.802734 12.59375 A 1.0001 1.0001 0 0 0 15.808594 12.587891 A 1 1 0 0 0 15.8125 12.580078 A 1.0001 1.0001 0 0 0 15.945312 12.320312 A 1 1 0 0 0 15.953125 12.294922 A 1.0001 1.0001 0 0 0 15.998047 12.011719 A 1 1 0 0 0 16 12 A 1 1 0 0 0 15.998047 11.962891 A 1 1 0 0 0 15.998047 11.947266 A 1.0001 1.0001 0 0 0 15.996094 11.927734 A 1 1 0 0 0 15.990234 11.869141 A 1.0001 1.0001 0 0 0 15.980469 11.806641 A 1 1 0 0 0 15.966797 11.75 A 1 1 0 0 0 15.964844 11.742188 A 1.0001 1.0001 0 0 0 15.943359 11.669922 A 1 1 0 0 0 15.939453 11.658203 A 1.0001 1.0001 0 0 0 15.912109 11.595703 A 1.0001 1.0001 0 0 0 15.900391 11.566406 A 1 1 0 0 0 15.890625 11.546875 A 1.0001 1.0001 0 0 0 15.876953 11.523438 A 1 1 0 0 0 15.837891 11.455078 A 1.0001 1.0001 0 0 0 15.78125 11.376953 A 1 1 0 0 0 15.777344 11.371094 A 1.0001 1.0001 0 0 0 15.707031 11.292969 L 10.707031 6.2929688 A 1 1 0 0 0 10 6 z "/>
</svg>
