<?xml version="1.0" encoding="UTF-8" standalone="no"?>
<svg xmlns="http://www.w3.org/2000/svg" xmlns:svg="http://www.w3.org/2000/svg" width="24" height="24" viewBox="0 0 24 24" fill="currentColor" tags="sign out,arrow,exit,auth" categories="arrows,account">
  <path d="M 5 2 C 3.3549904 2 2 3.3549904 2 5 L 2 19 C 2 20.64501 3.3549904 22 5 22 L 9 22 A 1 1 0 0 0 10 21 A 1 1 0 0 0 9 20 L 5 20 C 4.4358706 20 4 19.564129 4 19 L 4 5 C 4 4.4358706 4.4358706 4 5 4 L 9 4 A 1 1 0 0 0 10 3 A 1 1 0 0 0 9 2 L 5 2 z M 16 6 A 1 1 0 0 0 15.292969 6.2929688 A 1 1 0 0 0 15.292969 7.7070312 L 18.585938 11 L 9 11 A 1 1 0 0 0 8 12 A 1 1 0 0 0 9 13 L 18.585938 13 L 15.292969 16.292969 A 1 1 0 0 0 15.292969 17.707031 A 1 1 0 0 0 16.707031 17.707031 L 21.697266 12.716797 A 1 1 0 0 0 21.707031 12.707031 A 1.0001 1.0001 0 0 0 21.785156 12.619141 A 1 1 0 0 0 21.792969 12.609375 A 1.0001 1.0001 0 0 0 21.861328 12.507812 A 1 1 0 0 0 21.865234 12.5 A 1.0001 1.0001 0 0 0 21.921875 12.388672 A 1 1 0 0 0 21.923828 12.382812 A 1 1 0 0 0 21.964844 12.257812 A 1.0001 1.0001 0 0 0 21.976562 12.205078 A 1.0001 1.0001 0 0 0 22 12 A 1.0001 1.0001 0 0 0 21.976562 11.794922 A 1.0001 1.0001 0 0 0 21.964844 11.742188 A 1 1 0 0 0 21.923828 11.617188 A 1.0001 1.0001 0 0 0 21.921875 11.611328 A 1 1 0 0 0 21.865234 11.5 A 1.0001 1.0001 0 0 0 21.861328 11.492188 A 1 1 0 0 0 21.792969 11.390625 A 1.0001 1.0001 0 0 0 21.785156 11.380859 A 1 1 0 0 0 21.707031 11.292969 L 21.697266 11.283203 L 16.707031 6.2929688 A 1 1 0 0 0 16 6 z "/>
</svg>
