<?xml version="1.0" encoding="UTF-8" standalone="no"?>
<svg xmlns="http://www.w3.org/2000/svg" xmlns:svg="http://www.w3.org/2000/svg" width="24" height="24" viewBox="0 0 24 24" fill="currentColor" tags="sign out,arrow,exit,auth" categories="arrows,account">
  <path d="M 5 2 C 3.3549904 2 2 3.3549904 2 5 L 2 19 C 2 20.64501 3.3549904 22 5 22 L 9 22 A 1 1 0 0 0 10 21 A 1 1 0 0 0 9 20 L 5 20 C 4.4358706 20 4 19.564129 4 19 L 4 5 C 4 4.4358706 4.4358706 4 5 4 L 9 4 A 1 1 0 0 0 10 3 A 1 1 0 0 0 9 2 L 5 2 z M 15.84375 6.0117188 A 1 1 0 0 0 15.292969 6.2929688 A 1 1 0 0 0 15.292969 7.7070312 L 18.585938 11 L 9 11 A 1 1 0 0 0 8 12 A 1 1 0 0 0 9 13 L 18.585938 13 L 15.292969 16.292969 A 1 1 0 0 0 15.292969 17.707031 A 1 1 0 0 0 16.707031 17.707031 L 21.707031 12.707031 A 1.0001 1.0001 0 0 0 21.802734 12.59375 A 1.0001 1.0001 0 0 0 21.808594 12.587891 A 1 1 0 0 0 21.8125 12.580078 A 1.0001 1.0001 0 0 0 21.945312 12.320312 A 1 1 0 0 0 21.953125 12.294922 A 1.0001 1.0001 0 0 0 21.998047 12.011719 A 1 1 0 0 0 22 12 A 1 1 0 0 0 21.998047 11.962891 A 1 1 0 0 0 21.998047 11.947266 A 1.0001 1.0001 0 0 0 21.996094 11.927734 A 1 1 0 0 0 21.990234 11.869141 A 1.0001 1.0001 0 0 0 21.980469 11.806641 A 1 1 0 0 0 21.966797 11.75 A 1 1 0 0 0 21.964844 11.742188 A 1.0001 1.0001 0 0 0 21.943359 11.669922 A 1 1 0 0 0 21.939453 11.658203 A 1.0001 1.0001 0 0 0 21.912109 11.595703 A 1.0001 1.0001 0 0 0 21.900391 11.566406 A 1 1 0 0 0 21.890625 11.546875 A 1.0001 1.0001 0 0 0 21.876953 11.523438 A 1 1 0 0 0 21.837891 11.455078 A 1.0001 1.0001 0 0 0 21.78125 11.376953 A 1 1 0 0 0 21.777344 11.371094 A 1.0001 1.0001 0 0 0 21.707031 11.292969 L 16.707031 6.2929688 A 1 1 0 0 0 15.84375 6.0117188 z "/>
</svg>
