<?xml version="1.0" encoding="UTF-8" standalone="no"?>
<svg xmlns="http://www.w3.org/2000/svg" xmlns:svg="http://www.w3.org/2000/svg" width="24" height="24" viewBox="0 0 24 24" fill="currentColor" tags="sign in,arrow,enter,auth" categories="arrows,account">
  <path d="M 15 2 A 1 1 0 0 0 14 3 A 1 1 0 0 0 15 4 L 19 4 C 19.564129 4 20 4.4358706 20 5 L 20 19 C 20 19.564129 19.564129 20 19 20 L 15 20 A 1 1 0 0 0 14 21 A 1 1 0 0 0 15 22 L 19 22 C 20.64501 22 22 20.64501 22 19 L 22 5 C 22 3.3549904 20.64501 2 19 2 L 15 2 z M 10 6 A 1 1 0 0 0 9.2929688 6.2929688 A 1 1 0 0 0 9.2929688 7.7070312 L 12.585938 11 L 3 11 A 1 1 0 0 0 2 12 A 1 1 0 0 0 3 13 L 12.585938 13 L 9.2929688 16.292969 A 1 1 0 0 0 9.2929688 17.707031 A 1 1 0 0 0 10.707031 17.707031 L 15.697266 12.716797 A 1 1 0 0 0 15.707031 12.707031 A 1.0001 1.0001 0 0 0 15.785156 12.619141 A 1 1 0 0 0 15.792969 12.609375 A 1.0001 1.0001 0 0 0 15.861328 12.507812 A 1 1 0 0 0 15.865234 12.5 A 1.0001 1.0001 0 0 0 15.921875 12.388672 A 1 1 0 0 0 15.923828 12.382812 A 1 1 0 0 0 15.964844 12.257812 A 1.0001 1.0001 0 0 0 15.976562 12.205078 A 1.0001 1.0001 0 0 0 16 12 A 1.0001 1.0001 0 0 0 15.976562 11.794922 A 1.0001 1.0001 0 0 0 15.964844 11.742188 A 1 1 0 0 0 15.923828 11.617188 A 1.0001 1.0001 0 0 0 15.921875 11.611328 A 1 1 0 0 0 15.865234 11.5 A 1.0001 1.0001 0 0 0 15.861328 11.492188 A 1 1 0 0 0 15.792969 11.390625 A 1.0001 1.0001 0 0 0 15.785156 11.380859 A 1 1 0 0 0 15.707031 11.292969 L 15.697266 11.283203 L 10.707031 6.2929688 A 1 1 0 0 0 10 6 z "/>
</svg>
