<svg xmlns="http://www.w3.org/2000/svg" xmlns:svg="http://www.w3.org/2000/svg" width="24" height="24" viewBox="0 0 24 24" fill="currentColor" tags="options,list,menu,order,queue,tasks,logs" categories="text">
  <path d="M 3 4 A 1 1 0 0 0 2 5 A 1 1 0 0 0 3 6 L 4 6 A 1 1 0 0 0 5 5 A 1 1 0 0 0 4 4 L 3 4 z M 8 4 A 1 1 0 0 0 7 5 A 1 1 0 0 0 8 6 L 9 6 A 1 1 0 0 0 10 5 A 1 1 0 0 0 9 4 L 8 4 z M 13 4 A 1 1 0 0 0 12 5 A 1 1 0 0 0 13 6 L 21 6 A 1 1 0 0 0 22 5 A 1 1 0 0 0 21 4 L 13 4 z M 3 11 A 1 1 0 0 0 2 12 A 1 1 0 0 0 3 13 L 4 13 A 1 1 0 0 0 5 12 A 1 1 0 0 0 4 11 L 3 11 z M 8 11 A 1 1 0 0 0 7 12 A 1 1 0 0 0 8 13 L 9 13 A 1 1 0 0 0 10 12 A 1 1 0 0 0 9 11 L 8 11 z M 13 11 A 1 1 0 0 0 12 12 A 1 1 0 0 0 13 13 L 21 13 A 1 1 0 0 0 22 12 A 1 1 0 0 0 21 11 L 13 11 z M 3 18 A 1 1 0 0 0 2 19 A 1 1 0 0 0 3 20 L 4 20 A 1 1 0 0 0 5 19 A 1 1 0 0 0 4 18 L 3 18 z M 8 18 A 1 1 0 0 0 7 19 A 1 1 0 0 0 8 20 L 9 20 A 1 1 0 0 0 10 19 A 1 1 0 0 0 9 18 L 8 18 z M 13 18 A 1 1 0 0 0 12 19 A 1 1 0 0 0 13 20 L 21 20 A 1 1 0 0 0 22 19 A 1 1 0 0 0 21 18 L 13 18 z "/>
</svg>
