<?xml version="1.0" encoding="UTF-8" standalone="no"?>
<svg xmlns="http://www.w3.org/2000/svg" xmlns:svg="http://www.w3.org/2000/svg" width="24" height="24" viewBox="0 0 24 24" fill="currentColor" tags="options,list,menu,order,queue,tasks,logs" categories="text">
  <path d="M 3 5 A 1 1 0 0 0 2 6 A 1 1 0 0 0 3 7 L 4 7 A 1 1 0 0 0 5 6 A 1 1 0 0 0 4 5 L 3 5 z M 8 5 A 1 1 0 0 0 7 6 A 1 1 0 0 0 8 7 L 9 7 A 1 1 0 0 0 10 6 A 1 1 0 0 0 9 5 L 8 5 z M 13 5 A 1 1 0 0 0 12 6 A 1 1 0 0 0 13 7 L 21 7 A 1 1 0 0 0 22 6 A 1 1 0 0 0 21 5 L 13 5 z M 3 11 A 1 1 0 0 0 2 12 A 1 1 0 0 0 3 13 L 4 13 A 1 1 0 0 0 5 12 A 1 1 0 0 0 4 11 L 3 11 z M 8 11 A 1 1 0 0 0 7 12 A 1 1 0 0 0 8 13 L 9 13 A 1 1 0 0 0 10 12 A 1 1 0 0 0 9 11 L 8 11 z M 13 11 A 1 1 0 0 0 12 12 A 1 1 0 0 0 13 13 L 21 13 A 1 1 0 0 0 22 12 A 1 1 0 0 0 21 11 L 13 11 z M 3 17 A 1 1 0 0 0 2 18 A 1 1 0 0 0 3 19 L 4 19 A 1 1 0 0 0 5 18 A 1 1 0 0 0 4 17 L 3 17 z M 8 17 A 1 1 0 0 0 7 18 A 1 1 0 0 0 8 19 L 9 19 A 1 1 0 0 0 10 18 A 1 1 0 0 0 9 17 L 8 17 z M 13 17 A 1 1 0 0 0 12 18 A 1 1 0 0 0 13 19 L 21 19 A 1 1 0 0 0 22 18 A 1 1 0 0 0 21 17 L 13 17 z "/>
</svg>
