<svg xmlns="http://www.w3.org/2000/svg" xmlns:svg="http://www.w3.org/2000/svg" width="24" height="24" viewBox="0 0 24 24" fill="currentColor" tags="lolly,candy,sugar,food,sweet,dessert,spiral" categories="food-beverage">
  <path d="M 11 2 C 6.0412819 2 2 6.0412819 2 11 C 2 15.958718 6.0412819 20 11 20 C 13.12031 20 15.07267 19.260902 16.613281 18.027344 L 20.292969 21.707031 A 1 1 0 0 0 21.707031 21.707031 A 1 1 0 0 0 21.707031 20.292969 L 18.027344 16.613281 C 19.260902 15.07267 20 13.12031 20 11 C 20 6.0412819 15.958718 2 11 2 z M 11 4 C 14.877838 4 18 7.1221621 18 11 C 18 13.773271 15.773269 16 13 16 C 10.226731 16 8 13.773271 8 11 C 8 9.9166674 8.3702444 9.2314405 8.9140625 8.7480469 C 9.4578806 8.2646532 10.222222 8 11 8 C 11.777778 8 12.542119 8.2646532 13.085938 8.7480469 C 13.629755 9.2314405 14 9.9166674 14 11 C 14 11.416666 13.879756 11.601893 13.710938 11.751953 C 13.542118 11.902014 13.277778 12 13 12 C 12.722222 12 12.45788 11.902014 12.289062 11.751953 C 12.120243 11.601893 12 11.416666 12 11 A 1 1 0 0 0 11 10 A 1 1 0 0 0 10 11 C 10 11.916666 10.379756 12.731441 10.960938 13.248047 C 11.542118 13.764653 12.277778 14 13 14 C 13.722222 14 14.45788 13.764653 15.039062 13.248047 C 15.620243 12.731441 16 11.916666 16 11 C 16 9.4166671 15.370244 8.1018922 14.414062 7.2519531 C 13.45788 6.402014 12.222222 6 11 6 C 9.7777779 6 8.5421194 6.402014 7.5859375 7.2519531 C 6.6297556 8.1018922 6 9.4166671 6 11 C 6 14.516275 8.618025 17.443566 12.003906 17.929688 C 11.676048 17.976409 11.341168 18 11 18 C 7.1221621 18 4 14.877838 4 11 C 4 7.1221621 7.1221621 4 11 4 z "/>
</svg>
