<?xml version="1.0" encoding="UTF-8" standalone="no"?>
<svg xmlns="http://www.w3.org/2000/svg" xmlns:svg="http://www.w3.org/2000/svg" width="24" height="24" viewBox="0 0 24 24" fill="currentColor" tags="baggage,luggage,travel,suitcase" categories="travel,transportation">
  <path d="M 10 1 C 8.3549904 1 7 2.3549904 7 4 L 7 5 L 6 5 C 4.3549904 5 3 6.3549904 3 8 L 3 18 C 3 19.343625 3.9032329 20.492803 5.1308594 20.869141 C 5.5071875 22.096782 6.6563646 23 8 23 C 9.295359 23 10.410479 22.160389 10.826172 21 L 13.173828 21 C 13.589521 22.160389 14.704641 23 16 23 C 17.343636 23 18.492813 22.096782 18.869141 20.869141 C 20.096767 20.492803 21 19.343625 21 18 L 21 8 C 21 6.3549904 19.64501 5 18 5 L 17 5 L 17 4 C 17 2.3549904 15.64501 1 14 1 L 10 1 z M 10 3 L 14 3 C 14.564129 3 15 3.4358706 15 4 L 15 5 L 9 5 L 9 4 C 9 3.4358706 9.4358706 3 10 3 z M 6 7 L 7 7 L 7 17.173828 C 6.2507487 17.442237 5.6372021 18.002876 5.2949219 18.714844 C 5.112476 18.535021 5 18.284664 5 18 L 5 8 C 5 7.4358706 5.4358706 7 6 7 z M 9 7 L 15 7 L 15 17.173828 C 14.15283 17.477315 13.477315 18.15283 13.173828 19 L 10.826172 19 C 10.522685 18.15283 9.8471701 17.477315 9 17.173828 L 9 7 z M 17 7 L 18 7 C 18.564129 7 19 7.4358706 19 8 L 19 18 C 19 18.284664 18.887524 18.535021 18.705078 18.714844 C 18.362798 18.002876 17.749251 17.442237 17 17.173828 L 17 7 z M 8 19 C 8.5641294 19 9 19.435871 9 20 C 9 20.564129 8.5641294 21 8 21 C 7.4358706 21 7 20.564129 7 20 C 7 19.435871 7.4358706 19 8 19 z M 16 19 C 16.564129 19 17 19.435871 17 20 C 17 20.564129 16.564129 21 16 21 C 15.435871 21 15 20.564129 15 20 C 15 19.435871 15.435871 19 16 19 z "/>
</svg>
