<svg xmlns="http://www.w3.org/2000/svg" xmlns:svg="http://www.w3.org/2000/svg" width="24" height="24" viewBox="0 0 24 24" fill="currentColor" tags="baggage,luggage,travel,suitcase" categories="travel,transportation">
  <path d="M 10 1 C 8.3549904 1 7 2.3549904 7 4 L 7 5 L 6 5 C 4.3549904 5 3 6.3549904 3 8 L 3 18 C 3 19.34315 3.9038957 20.492389 5.1308594 20.869141 C 5.5076107 22.096105 6.6568504 23 8 23 C 9.2951422 23 10.410314 22.160087 10.826172 21 L 13.173828 21 C 13.589685 22.160087 14.704857 23 16 23 C 17.34315 23 18.492389 22.096104 18.869141 20.869141 C 20.096104 20.492389 21 19.34315 21 18 L 21 8 C 21 6.3549904 19.64501 5 18 5 L 17 5 L 17 4 C 17 2.3549904 15.64501 1 14 1 L 10 1 z M 10 3 L 14 3 C 14.564129 3 15 3.4358706 15 4 L 15 5 L 9 5 L 9 4 C 9 3.4358706 9.4358706 3 10 3 z M 6 7 L 7 7 L 7 17.173828 C 6.2504465 17.442521 5.6350054 18.002293 5.2929688 18.714844 C 5.111065 18.53508 5 18.284189 5 18 L 5 8 C 5 7.4358706 5.4358706 7 6 7 z M 9 7 L 15 7 L 15 17.173828 C 14.153297 17.477346 13.477346 18.153297 13.173828 19 L 10.826172 19 C 10.522653 18.153297 9.8467033 17.477347 9 17.173828 L 9 7 z M 17 7 L 18 7 C 18.564129 7 19 7.4358706 19 8 L 19 18 C 19 18.284189 18.888935 18.53508 18.707031 18.714844 C 18.364995 18.002293 17.749554 17.442521 17 17.173828 L 17 7 z M 8 19 C 8.5641294 19 9 19.435871 9 20 C 9 20.564129 8.5641294 21 8 21 C 7.4358706 21 7 20.564129 7 20 C 7 19.435871 7.4358706 19 8 19 z M 16 19 C 16.564129 19 17 19.435871 17 20 C 17 20.564129 16.564129 21 16 21 C 15.435871 21 15 20.564129 15 20 C 15 19.435871 15.435871 19 16 19 z "/>
</svg>
