<svg xmlns="http://www.w3.org/2000/svg" xmlns:svg="http://www.w3.org/2000/svg" width="24" height="24" viewBox="0 0 24 24" fill="currentColor" tags="horseshoe,lock,science,snap" categories="design">
  <path d="M 14.214844 1.0097656 C 11.96622 1.0099691 9.7194686 1.8642049 8.0097656 3.5742188 A 1.0001 1.0001 0 0 0 8.0078125 3.5742188 L 4.2929688 7.2929688 L 1.6445312 9.9414062 C 0.79195146 10.794114 0.79195146 12.205886 1.6445312 13.058594 L 3.9414062 15.355469 C 4.7941135 16.208049 6.2058865 16.208049 7.0585938 15.355469 L 9.7070312 12.707031 L 13.087891 9.3261719 C 13.411114 9.0029489 13.660152 8.9458866 13.916016 8.9609375 C 14.171879 8.9759885 14.455963 9.1083066 14.673828 9.3261719 C 14.891693 9.5440371 15.024011 9.8281209 15.039062 10.083984 C 15.054113 10.339848 14.997053 10.588886 14.673828 10.912109 L 8.6445312 16.941406 C 7.7919513 17.794114 7.7919514 19.205886 8.6445312 20.058594 L 10.941406 22.355469 C 11.794114 23.208049 13.205886 23.208049 14.058594 22.355469 L 16.683594 19.730469 A 1 1 0 0 0 16.707031 19.707031 L 16.730469 19.683594 A 1 1 0 0 0 16.734375 19.679688 L 20.423828 15.988281 C 23.843234 12.568254 23.843853 6.9936221 20.423828 3.5742188 C 18.713816 1.864517 16.463468 1.0095621 14.214844 1.0097656 z M 14.216797 2.9960938 C 15.949388 2.9959369 17.681936 3.660693 19.009766 4.9882812 C 21.665425 7.6434577 21.664944 11.918558 19.009766 14.574219 L 16 17.585938 L 13.414062 15 L 16.087891 12.326172 C 16.76462 11.649395 17.082606 10.773433 17.035156 9.9667969 C 16.987707 9.160161 16.620025 8.4442441 16.087891 7.9121094 C 15.555756 7.3799746 14.839839 7.0122932 14.033203 6.9648438 C 13.226567 6.9173944 12.350605 7.2353328 11.673828 7.9121094 L 9 10.585938 L 6.4140625 8 L 9.4238281 4.9882812 C 10.751417 3.6604508 12.484206 2.9962505 14.216797 2.9960938 z M 5 9.4140625 L 7.5859375 12 L 5.6445312 13.941406 C 5.5561042 14.029816 5.4438959 14.029816 5.3554688 13.941406 L 3.0585938 11.644531 C 2.9701797 11.556101 2.9701797 11.443896 3.0585938 11.355469 L 5 9.4140625 z M 12 16.414062 L 14.585938 19 L 12.644531 20.941406 C 12.556101 21.029816 12.443896 21.029816 12.355469 20.941406 L 10.058594 18.644531 C 9.9701797 18.556101 9.9701797 18.443896 10.058594 18.355469 L 12 16.414062 z "/>
</svg>
