<?xml version="1.0" encoding="UTF-8" standalone="no"?>
<svg xmlns="http://www.w3.org/2000/svg" xmlns:svg="http://www.w3.org/2000/svg" width="24" height="24" viewBox="0 0 24 24" fill="currentColor" tags="horseshoe,lock,science,snap" categories="design">
  <path d="M 13.748047 1.1328125 C 11.83711 1.175259 9.8436186 1.9069763 8.0820312 3.484375 A 1.0001 1.0001 0 0 0 8.0410156 3.5234375 L 1.2910156 10.292969 A 1.0001 1.0001 0 0 0 1.2929688 11.707031 L 5.2910156 15.705078 L 5.2929688 15.707031 A 1 1 0 0 0 6 16 A 1 1 0 0 0 6.2910156 15.878906 A 1 1 0 0 0 6.7050781 15.708984 L 6.7070312 15.707031 L 13.017578 9.4277344 C 13.623478 8.9767246 14.107325 9.1444339 14.496094 9.5332031 C 14.884324 9.9214329 15.052158 10.407 14.603516 11.011719 L 11.373047 14.228516 A 1 1 0 0 0 11.292969 14.292969 A 1 1 0 0 0 11.242188 14.357422 L 8.2949219 17.291016 A 1.0001 1.0001 0 0 0 8.2929688 18.707031 L 12.292969 22.707031 A 1.0001 1.0001 0 0 0 13.708984 22.707031 L 16.671875 19.734375 A 1 1 0 0 0 16.707031 19.707031 A 1 1 0 0 0 16.775391 19.630859 L 20.458984 15.935547 A 1.0001 1.0001 0 0 0 20.494141 15.896484 C 22.296879 13.883285 22.997175 11.569759 22.824219 9.4199219 C 22.651263 7.270085 21.643323 5.2995733 20.162109 3.8183594 C 18.680895 2.3371455 16.710384 1.3292058 14.560547 1.15625 C 14.291817 1.1346305 14.021038 1.1267487 13.748047 1.1328125 z M 13.789062 3.1308594 C 13.994203 3.1273704 14.197669 3.1340816 14.400391 3.1503906 C 16.024115 3.2810203 17.574968 4.0593432 18.748047 5.2324219 C 19.921126 6.4055006 20.699448 7.9563542 20.830078 9.5800781 C 20.960453 11.200638 20.480792 12.907555 19.011719 14.552734 L 15.994141 17.580078 L 13.423828 15.009766 L 16.095703 12.349609 A 1.0001 1.0001 0 0 0 16.183594 12.248047 C 17.230885 10.879444 16.900328 9.109312 15.910156 8.1191406 C 14.919985 7.1289692 13.151806 6.7984127 11.783203 7.8457031 A 1.0001 1.0001 0 0 0 11.683594 7.9316406 L 9.0078125 10.59375 L 6.4082031 7.9941406 L 9.4238281 4.9707031 C 10.864354 3.6830086 12.353082 3.1552825 13.789062 3.1308594 z M 4.9960938 9.4101562 L 7.5917969 12.005859 L 6.0019531 13.587891 L 3.4140625 10.998047 L 4.9960938 9.4101562 z M 12.005859 16.419922 L 14.582031 18.996094 L 12.998047 20.583984 L 10.416016 18.001953 L 12.005859 16.419922 z "/>
</svg>
