<svg xmlns="http://www.w3.org/2000/svg" xmlns:svg="http://www.w3.org/2000/svg" width="24" height="24" viewBox="0 0 24 24" fill="currentColor" tags="emails,messages,letters,mailing list,newsletter" categories="mail">
  <path d="M 6.5 4 A 1 1 0 0 0 6.3691406 4.0078125 C 3.3965707 4.0781313 1 6.5107886 1 9.5 L 1 17 C 1 18.64501 2.3549904 20 4 20 L 20 20 C 21.64501 20 23 18.64501 23 17 L 23 9 C 23 6.2545455 20.745455 4 18 4 L 6.5 4 z M 6.5 6 C 8.4666667 6 10 7.5333333 10 9.5 L 10 17 C 10 17.564129 9.5641294 18 9 18 L 4 18 C 3.4358706 18 3 17.564129 3 17 L 3 9.5 C 3 7.5333333 4.5333333 6 6.5 6 z M 10.740234 6 L 18 6 C 19.654545 6 21 7.3454545 21 9 L 21 17 C 21 17.564129 20.564129 18 20 18 L 11.826172 18 C 11.938511 17.686616 12 17.349867 12 17 L 12 9.5 C 12 8.1714059 11.527006 6.9515224 10.740234 6 z M 15 8 A 1 1 0 0 0 14 9 A 1 1 0 0 0 15 10 L 17 10 L 17 11 A 1 1 0 0 0 18 12 A 1 1 0 0 0 19 11 L 19 9 A 1.0001 1.0001 0 0 0 18 8 L 15 8 z M 6 9 A 1 1 0 0 0 5 10 A 1 1 0 0 0 6 11 L 7 11 A 1 1 0 0 0 8 10 A 1 1 0 0 0 7 9 L 6 9 z "/>
</svg>
