<svg xmlns="http://www.w3.org/2000/svg" xmlns:svg="http://www.w3.org/2000/svg" width="24" height="24" viewBox="0 0 24 24" fill="currentColor" tags="email,message,letter,read" categories="mail">
  <path d="M 12 1.0019531 C 11.365778 1.0019531 10.730774 1.2009427 10.199219 1.5996094 L 2.1992188 7.5996094 C 1.45216 8.1599034 1.0089145 9.0379607 1 9.9707031 C 0.99990863 9.9802635 1 9.9904285 1 10 A 1 1 0 0 0 1 10.023438 L 1 20 C 1 21.64501 2.3549904 23 4 23 L 20 23 C 21.64501 23 23 21.64501 23 20 L 23 10.023438 A 1 1 0 0 0 23 9.9707031 C 22.990965 9.0341311 22.540748 8.1629214 21.804688 7.6035156 A 1.0001 1.0001 0 0 0 21.800781 7.5996094 L 13.800781 1.5996094 C 13.26922 1.2009465 12.634222 1.0019531 12 1.0019531 z M 12 2.9980469 C 12.210027 2.9980469 12.420054 3.064552 12.599609 3.1992188 L 20.595703 9.1972656 C 20.714839 9.28814 20.810437 9.4011581 20.878906 9.5273438 L 12.498047 14.853516 C 12.191823 15.044437 11.808177 15.044437 11.501953 14.853516 L 3.1191406 9.5253906 C 3.1870478 9.3990462 3.2822319 9.2878378 3.4003906 9.1992188 L 11.400391 3.1992188 C 11.579946 3.0645521 11.789973 2.9980469 12 2.9980469 z M 3 11.820312 L 10.433594 16.544922 A 1.0001 1.0001 0 0 0 10.439453 16.546875 C 11.392234 17.143816 12.607766 17.143816 13.560547 16.546875 A 1.0001 1.0001 0 0 0 13.566406 16.544922 L 21 11.820312 L 21 20 C 21 20.564129 20.564129 21 20 21 L 4 21 C 3.4358706 21 3 20.564129 3 20 L 3 11.820312 z "/>
</svg>
