<?xml version="1.0" encoding="UTF-8" standalone="no"?>
<svg xmlns="http://www.w3.org/2000/svg" xmlns:svg="http://www.w3.org/2000/svg" width="24" height="24" viewBox="0 0 24 24" fill="currentColor" tags="email,message,letter,search,lens" categories="mail">
  <path d="M 4 3 C 2.3549904 3 1 4.3549904 1 6 L 1 6.9765625 A 1 1 0 0 0 1 7.0234375 L 1 18 C 1 19.645455 2.3545455 21 4 21 L 11.5 21 A 1 1 0 0 0 12.5 20 A 1 1 0 0 0 11.5 19 L 4 19 C 3.4454545 19 3 18.554545 3 18 L 3 8.8203125 L 10.433594 13.544922 A 1.0001 1.0001 0 0 0 10.439453 13.546875 C 11.392234 14.143816 12.607766 14.143816 13.560547 13.546875 A 1.0001 1.0001 0 0 0 13.566406 13.544922 L 21 8.8203125 L 21 12.5 A 1 1 0 0 0 22 13.5 A 1 1 0 0 0 23 12.5 L 23 7.0234375 A 1 1 0 0 0 23 6.9765625 L 23 6 C 23 4.3549904 21.64501 3 20 3 L 4 3 z M 4 5 L 20 5 C 20.564129 5 21 5.4358706 21 6 L 21 6.4511719 L 12.498047 11.853516 C 12.191823 12.044437 11.808177 12.044437 11.501953 11.853516 L 3 6.4511719 L 3 6 C 3 5.4358706 3.4358706 5 4 5 z M 18 14 C 17.862667 14 17.727657 14.007744 17.59375 14.021484 C 16.520654 14.118204 15.609622 14.58981 15.001953 15.273438 C 14.318683 16.042117 14.000002 17.02778 14 18 C 14.000001 18.972221 14.318682 19.957883 15.001953 20.726562 C 15.685224 21.495243 16.750004 21.999998 18 22 C 18.774048 21.999999 19.47711 21.806482 20.0625 21.476562 L 21.292969 22.707031 A 1 1 0 0 0 22.707031 22.707031 A 1 1 0 0 0 22.707031 21.292969 L 21.472656 20.058594 C 21.829571 19.424569 21.999998 18.709144 22 18 C 21.999996 17.027784 21.681315 16.042114 20.998047 15.273438 C 20.390378 14.589811 19.479344 14.118205 18.40625 14.021484 C 18.272346 14.007744 18.13733 14 18 14 z M 18 16 C 19.116412 16 19.999997 16.883588 20 18 C 20 19.046638 19.224002 19.889072 18.207031 19.990234 C 18.140197 19.994702 18.072547 20 18 20 C 17.927452 20 17.859804 19.994702 17.792969 19.990234 C 16.776 19.889073 16.000002 19.046636 16 18 C 16 16.883586 16.883586 16 18 16 z "/>
</svg>
