<?xml version="1.0" encoding="UTF-8" standalone="no"?>
<svg xmlns="http://www.w3.org/2000/svg" xmlns:svg="http://www.w3.org/2000/svg" width="24" height="24" viewBox="0 0 24 24" fill="currentColor" tags="email,message,letter,search" categories="mail">
  <path d="M 4 3 C 2.3549904 3 1 4.3549904 1 6 L 1 18 C 1 19.645455 2.3545455 21 4 21 L 11.5 21 A 1 1 0 0 0 12.5 20 A 1 1 0 0 0 11.5 19 L 4 19 C 3.4454545 19 3 18.554545 3 18 L 3 8.8203125 L 10.433594 13.544922 A 1.0001 1.0001 0 0 0 10.439453 13.546875 C 11.392234 14.143816 12.607766 14.143816 13.560547 13.546875 A 1.0001 1.0001 0 0 0 13.566406 13.544922 L 21 8.8203125 L 21 12.5 A 1 1 0 0 0 22 13.5 A 1 1 0 0 0 23 12.5 L 23 6 C 23 4.3549904 21.64501 3 20 3 L 4 3 z M 4 5 L 20 5 C 20.564129 5 21 5.4358706 21 6 L 21 6.4511719 L 12.498047 11.853516 C 12.191823 12.044437 11.808177 12.044437 11.501953 11.853516 L 3 6.4511719 L 3 6 C 3 5.4358706 3.4358706 5 4 5 z M 18 14 C 16.75 14 15.685226 14.504756 15.001953 15.273438 C 14.318681 16.042119 14 17.027778 14 18 C 14 18.972222 14.318681 19.957881 15.001953 20.726562 C 15.685226 21.495244 16.75 22 18 22 C 18.774224 22 19.47703 21.806618 20.0625 21.476562 L 21.292969 22.707031 A 1 1 0 0 0 22.707031 22.707031 A 1 1 0 0 0 22.707031 21.292969 L 21.472656 20.058594 C 21.829435 19.424655 22 18.709013 22 18 C 22 17.027778 21.681319 16.042119 20.998047 15.273438 C 20.352458 14.54715 19.36627 14.057773 18.205078 14.005859 C 18.137226 14.002381 18.068665 14 18 14 z M 18 16 C 19.116414 16 20 16.883586 20 18 C 20 19.116414 19.116414 20 18 20 C 16.883586 20 16 19.116414 16 18 C 16 16.883586 16.883586 16 18 16 z "/>
</svg>
