<?xml version="1.0" encoding="UTF-8" standalone="no"?>
<svg xmlns="http://www.w3.org/2000/svg" xmlns:svg="http://www.w3.org/2000/svg" width="24" height="24" viewBox="0 0 24 24" fill="currentColor" tags="emails,messages,letters,multiple,mailing list,newsletter,copy" categories="mail">
  <path d="M 9 2 C 7.3552972 2 6 3.3552972 6 5 L 6 13 C 6 14.644703 7.3552972 16 9 16 L 20 16 C 21.644703 16 23 14.644703 23 13 L 23 5 C 23 3.3552972 21.644703 2 20 2 L 9 2 z M 9 4 L 20 4 C 20.557501 4 20.979958 4.4083659 21 4.9589844 L 15.041016 8.8378906 C 14.709658 9.0507632 14.290342 9.0507632 13.958984 8.8378906 L 8 4.9589844 C 8.0200416 4.4083658 8.4424983 4 9 4 z M 8 7.34375 L 12.873047 10.517578 A 1.0001 1.0001 0 0 0 12.878906 10.519531 C 13.864692 11.152824 15.135308 11.152824 16.121094 10.519531 A 1.0001 1.0001 0 0 0 16.126953 10.517578 L 21 7.34375 L 21 13 C 21 13.571297 20.571297 14 20 14 L 9 14 C 8.4287028 14 8 13.571297 8 13 L 8 7.34375 z M 3 8.2675781 A 1 1 0 0 0 2.5 8.4023438 C 1.5732086 8.9374269 1.0000272 9.9298334 1 11 L 1 19 C 1 20.64501 2.3549904 22 4 22 L 15 22 C 16.64501 22 18 20.64501 18 19 A 1 1 0 0 0 17 18 A 1 1 0 0 0 16 19 C 16 19.564129 15.564129 20 15 20 L 4 20 C 3.4358706 20 3 19.564129 3 19 L 3 11 C 3.0000091 10.641141 3.1892186 10.314195 3.5 10.134766 A 1 1 0 0 0 3.8652344 8.7675781 A 1 1 0 0 0 3 8.2675781 z "/>
</svg>
