<?xml version="1.0" encoding="UTF-8" standalone="no"?>
<svg xmlns="http://www.w3.org/2000/svg" xmlns:svg="http://www.w3.org/2000/svg" width="24" height="24" viewBox="0 0 24 24" fill="currentColor" tags="emails,messages,letters,multiple,mailing list,newsletter,copy" categories="mail">
  
  <path d="M 8 3 C 6.3553005 3 5 4.3553005 5 6 L 5 15 C 5 16.644699 6.3553005 18 8 18 L 20 18 C 21.644699 18 23 16.644699 23 15 L 23 6 C 23 4.3553005 21.644699 3 20 3 L 8 3 z M 8 5 L 20 5 C 20.571296 5 21 5.4287039 21 6 L 21 6.3984375 L 14.433594 9.8945312 C 14.14513 10.046354 13.85487 10.046354 13.566406 9.8945312 L 7 6.3984375 L 7 6 C 7 5.4287039 7.4287039 5 8 5 z M 2 7 A 1 1 0 0 0 1 8 L 1 19 C 1 20.645451 2.3545487 22 4 22 L 18 22 A 1 1 0 0 0 19 21 A 1 1 0 0 0 18 20 L 4 20 C 3.4454557 20 3 19.554544 3 19 L 3 8 A 1 1 0 0 0 2 7 z M 7 8.6660156 L 12.630859 11.662109 A 1.0001 1.0001 0 0 0 12.634766 11.664062 C 13.4863 12.112238 14.5137 12.112238 15.365234 11.664062 A 1.0001 1.0001 0 0 0 15.369141 11.662109 L 21 8.6660156 L 21 15 C 21 15.571296 20.571296 16 20 16 L 8 16 C 7.4287039 16 7 15.571296 7 15 L 7 8.6660156 z "/>
</svg>
