<svg xmlns="http://www.w3.org/2000/svg" xmlns:svg="http://www.w3.org/2000/svg" width="24" height="24" viewBox="0 0 24 24" fill="currentColor" tags="email,message,letter,delivery error,exclamation mark" categories="mail">
  <path d="M 4 3 C 2.3549904 3 1 4.3549904 1 6 L 1 6.9765625 A 1 1 0 0 0 1 7.0234375 L 1 18 C 1 19.645455 2.3545455 21 4 21 L 16.5 21 A 1 1 0 0 0 17.5 20 A 1 1 0 0 0 16.5 19 L 4 19 C 3.4454545 19 3 18.554545 3 18 L 3 8.8203125 L 10.433594 13.544922 A 1.0001 1.0001 0 0 0 10.439453 13.546875 C 11.392234 14.143816 12.607766 14.143816 13.560547 13.546875 A 1.0001 1.0001 0 0 0 13.566406 13.544922 L 21 8.8203125 L 21 10.5 A 1 1 0 0 0 22 11.5 A 1 1 0 0 0 23 10.5 L 23 7.0234375 A 1 1 0 0 0 23 6.9765625 L 23 6 C 23 4.3549904 21.64501 3 20 3 L 4 3 z M 4 5 L 20 5 C 20.564129 5 21 5.4358706 21 6 L 21 6.4511719 L 12.498047 11.853516 C 12.191823 12.044437 11.808177 12.044437 11.501953 11.853516 L 3 6.4511719 L 3 6 C 3 5.4358706 3.4358706 5 4 5 z M 20 13 A 1 1 0 0 0 19 14 L 19 18 A 1 1 0 0 0 20 19 A 1 1 0 0 0 21 18 L 21 14 A 1 1 0 0 0 20 13 z M 20 21 A 1 1 0 0 0 19 22 L 19 22.009766 A 1 1 0 0 0 20 23.009766 A 1 1 0 0 0 21 22.009766 L 21 22 A 1 1 0 0 0 20 21 z "/>
</svg>
