<svg xmlns="http://www.w3.org/2000/svg" xmlns:svg="http://www.w3.org/2000/svg" width="24" height="24" viewBox="0 0 24 24" fill="currentColor" tags="location,waypoint,marker,drop,delete,remove,erase" categories="navigation,travel,account">
  <path d="M 12 1 C 7.0412829 1 3 5.0412792 3 10 C 3 12.866284 4.523037 15.562821 6.2070312 17.775391 C 7.8910256 19.98796 9.7836574 21.725634 10.746094 22.556641 A 1.0001 1.0001 0 0 0 10.798828 22.597656 C 11.507166 23.130295 12.492834 23.130295 13.201172 22.597656 A 1.0001 1.0001 0 0 0 13.255859 22.554688 C 13.543473 22.305916 13.826625 22.053486 14.105469 21.794922 A 1 1 0 0 0 14.158203 20.380859 A 1 1 0 0 0 12.744141 20.328125 C 12.50081 20.553759 12.254353 20.774485 12.003906 20.992188 C 11.096234 20.206004 9.3297009 18.578405 7.796875 16.564453 C 6.2463693 14.527272 5 12.126716 5 10 C 5 6.1221588 8.1221613 3 12 3 C 15.877839 3 19 6.1221588 19 10 C 19 11.14444 18.65383 12.3639 18.076172 13.568359 A 1 1 0 0 0 18.544922 14.902344 A 1 1 0 0 0 19.878906 14.431641 C 20.547248 13.0381 21 11.54156 21 10 C 21 5.0412792 16.958717 1 12 1 z M 12 6 C 9.8027056 6 8 7.8027056 8 10 C 8 12.197294 9.8027056 14 12 14 C 14.197294 14 16 12.197294 16 10 C 16 7.8027056 14.197294 6 12 6 z M 12 8 C 13.116414 8 14 8.8835859 14 10 C 14 11.116414 13.116414 12 12 12 C 10.883586 12 10 11.116414 10 10 C 10 8.8835859 10.883586 8 12 8 z M 16 17 A 1 1 0 0 0 15 18 A 1 1 0 0 0 16 19 L 22 19 A 1 1 0 0 0 23 18 A 1 1 0 0 0 22 17 L 16 17 z "/>
</svg>
