<?xml version="1.0" encoding="UTF-8" standalone="no"?>
<svg xmlns="http://www.w3.org/2000/svg" xmlns:svg="http://www.w3.org/2000/svg" width="24" height="24" viewBox="0 0 24 24" fill="currentColor" tags="location,waypoint,marker,drop,edit" categories="navigation,travel,account">
  <path d="M 9.6074219 1.0039062 C 4.8024822 1.2133139 0.99769137 5.1904973 1 10 C 1 12.692335 2.3483675 15.235022 3.9023438 17.367188 C 5.45632 19.499354 7.2549671 21.232382 8.3554688 22.214844 A 1 1 0 0 0 9.7675781 22.134766 A 1 1 0 0 0 9.6875 20.722656 C 8.6530016 19.799118 6.9408519 18.142287 5.5175781 16.189453 C 4.0943044 14.23662 3 11.997665 3 10 C 2.9981956 6.2409025 5.9397811 3.1656256 9.6953125 3.0019531 C 13.450844 2.8382806 16.649372 5.6456232 16.974609 9.390625 A 1 1 0 0 0 18.056641 10.300781 A 1 1 0 0 0 18.966797 9.2167969 C 18.550679 4.4253287 14.412362 0.79449879 9.6074219 1.0039062 z M 10 6 C 7.8027056 6 6 7.8027056 6 10 C 6 12.197294 7.8027056 14 10 14 C 12.197294 14 14 12.197294 14 10 C 14 7.8027056 12.197294 6 10 6 z M 10 8 C 11.116414 8 12 8.8835859 12 10 C 12 11.116414 11.116414 12 10 12 C 8.8835859 12 8 11.116414 8 10 C 8 8.8835859 8.8835859 8 10 8 z M 19.724609 11.966797 C 19.006341 12.00498 18.258778 12.321299 17.666016 12.914062 A 1.0001 1.0001 0 0 0 17.666016 12.916016 L 13.65625 16.927734 C 13.300268 17.283925 13.039597 17.723619 12.898438 18.207031 A 1.0001 1.0001 0 0 0 12.898438 18.208984 L 12.060547 21.078125 C 11.743862 22.163902 12.836098 23.254185 13.921875 22.9375 L 16.791016 22.101562 C 17.274974 21.960244 17.715862 21.698397 18.072266 21.341797 L 22.083984 17.333984 A 1.0001 1.0001 0 0 0 22.085938 17.333984 C 22.763382 16.656541 23.080694 15.778047 23.033203 14.970703 C 22.985713 14.163359 22.618573 13.446697 22.085938 12.914062 C 21.553303 12.381427 20.836641 12.014288 20.029297 11.966797 C 19.928379 11.960861 19.827219 11.961342 19.724609 11.966797 z M 19.816406 13.960938 C 19.848419 13.960153 19.880038 13.961004 19.912109 13.962891 C 20.168682 13.977981 20.451557 14.111713 20.669922 14.330078 C 20.888287 14.548443 21.022017 14.831318 21.037109 15.087891 C 21.052199 15.344463 20.993809 15.594079 20.669922 15.917969 L 16.658203 19.927734 C 16.539363 20.04664 16.391841 20.134519 16.230469 20.181641 L 14.236328 20.763672 L 14.818359 18.767578 C 14.865479 18.606206 14.951406 18.460637 15.070312 18.341797 L 19.082031 14.330078 C 19.365435 14.046674 19.592317 13.966431 19.816406 13.960938 z "/>
</svg>
