<svg xmlns="http://www.w3.org/2000/svg" xmlns:svg="http://www.w3.org/2000/svg" width="24" height="24" viewBox="0 0 24 24" fill="currentColor" tags="location,waypoint,marker,drop" categories="navigation,travel,account">
  <path d="M 12 1 C 7.0412829 1 3 5.0412792 3 10 C 3 12.866284 4.523037 15.562821 6.2070312 17.775391 C 7.8910256 19.98796 9.7836574 21.725634 10.746094 22.556641 A 1.0001 1.0001 0 0 0 10.798828 22.597656 C 11.507166 23.130295 12.492834 23.130295 13.201172 22.597656 A 1.0001 1.0001 0 0 0 13.253906 22.556641 C 14.216342 21.725634 16.108974 19.98796 17.792969 17.775391 C 19.476971 15.562821 21 12.866284 21 10 C 21 5.0412792 16.958717 1 12 1 z M 12 3 C 15.877839 3 19 6.1221588 19 10 C 19 12.126716 17.753631 14.527272 16.203125 16.564453 C 14.671685 18.576584 12.908437 20.201254 12 20.988281 C 11.091563 20.201254 9.3283149 18.576584 7.796875 16.564453 C 6.2463693 14.527272 5 12.126716 5 10 C 5 6.1221588 8.1221613 3 12 3 z M 12 6 C 9.8027056 6 8 7.8027056 8 10 C 8 12.197294 9.8027056 14 12 14 C 14.197294 14 16 12.197294 16 10 C 16 7.8027056 14.197294 6 12 6 z M 12 8 C 13.116414 8 14 8.8835859 14 10 C 14 11.116414 13.116414 12 12 12 C 10.883586 12 10 11.116414 10 10 C 10 8.8835859 10.883586 8 12 8 z "/>
</svg>
