<?xml version="1.0" encoding="UTF-8" standalone="no"?>
<svg xmlns="http://www.w3.org/2000/svg" xmlns:svg="http://www.w3.org/2000/svg" width="24" height="24" viewBox="0 0 24 24" fill="currentColor" tags="location,waypoint,marker,drop,delete,remove,erase" categories="navigation,travel,account">
  <path d="M 12 1 C 7.0412829 1 3 5.0412792 3 10 C 3 12.866284 4.523037 15.562821 6.2070312 17.775391 C 7.8910256 19.98796 9.7836574 21.725634 10.746094 22.556641 A 1.0001 1.0001 0 0 0 10.798828 22.597656 C 11.507166 23.130295 12.492834 23.130295 13.201172 22.597656 A 1.0001 1.0001 0 0 0 13.248047 22.560547 C 13.279707 22.533627 13.31226 22.507589 13.34375 22.480469 A 1 1 0 0 0 13.449219 21.070312 A 1 1 0 0 0 12.039062 20.964844 C 12.028203 20.974144 12.016739 20.982867 12.005859 20.992188 C 11.098377 20.206221 9.3300386 18.578848 7.796875 16.564453 C 6.2463693 14.527272 5 12.126716 5 10 C 5 6.1221588 8.1221613 3 12 3 C 15.877172 3 18.998927 6.121132 19 9.9980469 C 18.9962 10.555757 18.92294 11.110448 18.783203 11.650391 A 1 1 0 0 0 19.501953 12.869141 A 1 1 0 0 0 20.720703 12.152344 C 20.902083 11.451503 20.995509 10.729777 21 10.005859 A 1.0001 1.0001 0 0 0 21 10.003906 A 1.0001 1.0001 0 0 0 21 10.001953 A 1.0001 1.0001 0 0 0 21 10 C 21 5.0412792 16.958717 1 12 1 z M 12 6 C 9.8027056 6 8 7.8027056 8 10 C 8 12.197294 9.8027056 14 12 14 C 14.197294 14 16 12.197294 16 10 C 16 7.8027056 14.197294 6 12 6 z M 12 8 C 13.116414 8 14 8.8835859 14 10 C 14 11.116414 13.116414 12 12 12 C 10.883586 12 10 11.116414 10 10 C 10 8.8835859 10.883586 8 12 8 z M 16.5 14.5 A 1 1 0 0 0 15.792969 14.792969 A 1 1 0 0 0 15.792969 16.207031 L 17.585938 18 L 15.792969 19.792969 A 1 1 0 0 0 15.792969 21.207031 A 1 1 0 0 0 17.207031 21.207031 L 19 19.414062 L 20.792969 21.207031 A 1 1 0 0 0 22.207031 21.207031 A 1 1 0 0 0 22.207031 19.792969 L 20.414062 18 L 22.207031 16.207031 A 1 1 0 0 0 22.207031 14.792969 A 1 1 0 0 0 20.792969 14.792969 L 19 16.585938 L 17.207031 14.792969 A 1 1 0 0 0 16.5 14.5 z "/>
</svg>
