<?xml version="1.0" encoding="UTF-8" standalone="no"?>
<svg xmlns="http://www.w3.org/2000/svg" xmlns:svg="http://www.w3.org/2000/svg" width="24" height="24" viewBox="0 0 24 24" fill="currentColor" tags="location,waypoint,marker,drop,delete,remove,erase" categories="maps,navigation,travel,account">
  <path d="M 12 1 C 7.0412929 1 3 5.0412892 3 10 C 3 12.866278 4.5230403 15.562826 6.2070312 17.775391 C 7.8910223 19.987955 9.7836593 21.725635 10.746094 22.556641 A 1.0001 1.0001 0 0 0 10.798828 22.597656 C 11.507165 23.130295 12.492835 23.130295 13.201172 22.597656 A 1.0001 1.0001 0 0 0 13.248047 22.560547 C 13.279707 22.533627 13.31226 22.507589 13.34375 22.480469 A 1 1 0 0 0 13.449219 21.070312 A 1 1 0 0 0 12.039062 20.964844 C 12.028203 20.974144 12.016739 20.982868 12.005859 20.992188 C 11.098378 20.206222 9.3300355 18.578844 7.796875 16.564453 C 6.2463725 14.527276 5 12.126712 5 10 C 5 6.1221666 8.122169 3 12 3 C 15.877164 3 18.998927 6.1211398 19 9.9980469 C 18.9962 10.555755 18.92294 11.110448 18.783203 11.650391 A 1 1 0 0 0 19.501953 12.869141 A 1 1 0 0 0 20.720703 12.152344 C 20.902083 11.451504 20.995509 10.729776 21 10.005859 A 1.0001 1.0001 0 0 0 21 10.003906 A 1.0001 1.0001 0 0 0 21 10.001953 A 1.0001 1.0001 0 0 0 21 10 C 21 5.0412892 16.958707 1 12 1 z M 12 6 C 9.80271 6 8 7.80271 8 10 C 8 12.19729 9.80271 14 12 14 C 14.19729 14 16 12.19729 16 10 C 16 7.80271 14.19729 6 12 6 z M 12 8 C 13.116412 8 14 8.8835881 14 10 C 14 11.116412 13.116412 12 12 12 C 10.883588 12 10 11.116412 10 10 C 10 8.8835881 10.883588 8 12 8 z M 16.5 14.5 A 1 1 0 0 0 15.792969 14.792969 A 1 1 0 0 0 15.792969 16.207031 L 17.585938 18 L 15.792969 19.792969 A 1 1 0 0 0 15.792969 21.207031 A 1 1 0 0 0 17.207031 21.207031 L 19 19.414062 L 20.792969 21.207031 A 1 1 0 0 0 22.207031 21.207031 A 1 1 0 0 0 22.207031 19.792969 L 20.414062 18 L 22.207031 16.207031 A 1 1 0 0 0 22.207031 14.792969 A 1 1 0 0 0 20.792969 14.792969 L 19 16.585938 L 17.207031 14.792969 A 1 1 0 0 0 16.5 14.5 z "/>
</svg>
