<svg xmlns="http://www.w3.org/2000/svg" xmlns:svg="http://www.w3.org/2000/svg" width="24" height="24" viewBox="0 0 24 24" fill="currentColor" tags="location,navigation,travel,drop,delete,remove,erase" categories="navigation,travel">
  <path d="M 9 2.2363281 A 1 1 0 0 0 8.8691406 2.2441406 C 8.4534407 2.2623374 8.0397857 2.3620569 7.6582031 2.5527344 L 3.1054688 4.8300781 C 2.4298967 5.1676623 2.0004033 5.8619654 2 6.6171875 L 2 19.380859 C 1.99792 20.826456 3.6010192 21.818251 4.8945312 21.171875 L 8.5527344 19.341797 C 8.6885961 19.273906 8.835033 19.238847 8.9824219 19.236328 C 8.9937801 19.236134 9.0062199 19.236134 9.0175781 19.236328 C 9.164967 19.238847 9.3114039 19.273906 9.4472656 19.341797 L 10.552734 19.894531 A 1 1 0 0 0 11.894531 19.447266 A 1 1 0 0 0 11.447266 18.105469 L 10.341797 17.552734 C 10.230306 17.497022 10.116138 17.449187 10 17.408203 L 10 4.6171875 L 13.658203 6.4472656 C 13.769694 6.5029777 13.883862 6.5508133 14 6.5917969 L 14 14 A 1 1 0 0 0 15 15 A 1 1 0 0 0 16 14 L 16 6.5917969 C 16.116138 6.5508133 16.230306 6.5029777 16.341797 6.4472656 L 20 4.6171875 A 1.0001 1.0001 0 0 0 20 4.6191406 L 20 14 A 1 1 0 0 0 21 15 A 1 1 0 0 0 22 14 L 22 4.6210938 L 22 4.6191406 C 22.000637 3.1743165 20.398289 2.1820989 19.105469 2.828125 L 15.447266 4.6582031 C 15.165072 4.7992156 14.834928 4.7992156 14.552734 4.6582031 L 10.341797 2.5527344 C 9.9602171 2.3620584 9.5465561 2.2623386 9.1308594 2.2441406 A 1 1 0 0 0 9 2.2363281 z M 8 4.6191406 L 8 17.408203 C 7.883862 17.449187 7.7696938 17.497022 7.6582031 17.552734 L 4 19.382812 A 1.0001 1.0001 0 0 0 4 19.380859 L 4 6.6191406 L 8 4.6191406 z M 15 17 A 1 1 0 0 0 14 18 A 1 1 0 0 0 15 19 L 21 19 A 1 1 0 0 0 22 18 A 1 1 0 0 0 21 17 L 15 17 z "/>
</svg>
