<?xml version="1.0" encoding="UTF-8" standalone="no"?>
<svg xmlns="http://www.w3.org/2000/svg" xmlns:svg="http://www.w3.org/2000/svg" width="24" height="24" viewBox="0 0 24 24" fill="currentColor" tags="location,waypoint,marker,drop,delete,remove,erase" categories="maps,navigation,travel,account">
  <path d="M 12 1 C 7.0412929 1 3 5.0412892 3 10 C 3 12.866278 4.5230403 15.562826 6.2070312 17.775391 C 7.8910223 19.987955 9.7836593 21.725635 10.746094 22.556641 A 1.0001 1.0001 0 0 0 10.798828 22.597656 C 11.507165 23.130295 12.492835 23.130295 13.201172 22.597656 A 1.0001 1.0001 0 0 0 13.255859 22.554688 C 13.543473 22.305916 13.826625 22.053486 14.105469 21.794922 A 1 1 0 0 0 14.158203 20.380859 A 1 1 0 0 0 12.744141 20.328125 C 12.500811 20.553759 12.254353 20.774486 12.003906 20.992188 C 11.096236 20.206005 9.3296979 18.578401 7.796875 16.564453 C 6.2463725 14.527276 5 12.126712 5 10 C 5 6.1221666 8.122169 3 12 3 C 15.877831 3 19 6.1221666 19 10 C 19 11.144437 18.653829 12.363903 18.076172 13.568359 A 1 1 0 0 0 18.544922 14.902344 A 1 1 0 0 0 19.878906 14.431641 C 20.547247 13.038102 21 11.541557 21 10 C 21 5.0412892 16.958707 1 12 1 z M 12 6 C 9.80271 6 8 7.80271 8 10 C 8 12.19729 9.80271 14 12 14 C 14.19729 14 16 12.19729 16 10 C 16 7.80271 14.19729 6 12 6 z M 12 8 C 13.116412 8 14 8.8835881 14 10 C 14 11.116412 13.116412 12 12 12 C 10.883588 12 10 11.116412 10 10 C 10 8.8835881 10.883588 8 12 8 z M 16 17 A 1 1 0 0 0 15 18 A 1 1 0 0 0 16 19 L 22 19 A 1 1 0 0 0 23 18 A 1 1 0 0 0 22 17 L 16 17 z "/>
</svg>
