<?xml version="1.0" encoding="UTF-8" standalone="no"?>
<svg xmlns="http://www.w3.org/2000/svg" xmlns:svg="http://www.w3.org/2000/svg" width="24" height="24" viewBox="0 0 24 24" fill="currentColor" tags="location,waypoint,marker,drop" categories="navigation,travel,account">
  <path d="M 12 1 C 8.1458524 1 5 4.1458495 5 8 C 5 9.8155174 5.7750783 11.515617 6.7460938 13 L 5.0039062 13 C 4.1477733 13.000364 3.378816 13.553256 3.1074219 14.365234 L 1.1035156 20.365234 C 0.6800087 21.632315 1.6640164 22.999432 3 23 L 21 23 C 22.334921 22.999 23.31832 21.633707 22.896484 20.367188 L 20.896484 14.367188 C 20.625554 13.553745 19.85542 12.999794 18.998047 13 L 17.253906 13 C 18.224629 11.515438 19 9.8156961 19 8 A 1 1 0 0 0 18.921875 7.6132812 C 18.709119 3.9476945 15.717127 1 12 1 z M 12 3 C 14.773269 3 17 5.226729 17 8 C 17 9.4495483 16.161584 11.15992 15.068359 12.648438 C 13.996389 14.108017 12.737993 15.319396 12 15.984375 C 11.262203 15.319166 10.00375 14.108049 8.9316406 12.648438 C 7.8382743 11.159886 7 9.449456 7 8 C 7 5.226729 9.2267307 3 12 3 z M 12 5 C 10.35499 5 9 6.3549904 9 8 C 9 9.6450096 10.35499 11 12 11 C 13.64501 11 15 9.6450096 15 8 C 15 6.3549904 13.64501 5 12 5 z M 12 7 C 12.564129 7 13 7.4358706 13 8 C 13 8.5641294 12.564129 9 12 9 C 11.435871 9 11 8.5641294 11 8 C 11 7.4358706 11.435871 7 12 7 z M 5.0039062 15 L 8.2441406 15 C 9.1916376 16.116335 10.127723 17.003707 10.724609 17.539062 A 1.0001 1.0001 0 0 0 10.785156 17.589844 C 11.498133 18.134421 12.501867 18.134421 13.214844 17.589844 A 1.0001 1.0001 0 0 0 13.275391 17.539062 C 13.872875 17.003522 14.80997 16.116282 15.757812 15 L 18.998047 15 A 1.0001 1.0001 0 0 0 19 15 L 21 21 L 3 21 L 5.0039062 15 z "/>
</svg>
