<?xml version="1.0" encoding="UTF-8" standalone="no"?>
<svg xmlns="http://www.w3.org/2000/svg" xmlns:svg="http://www.w3.org/2000/svg" width="24" height="24" viewBox="0 0 24 24" fill="currentColor" tags="location,waypoint,marker,remove" categories="maps,navigation,travel">
  <path d="M 2 1 A 1 1 0 0 0 1.2929688 1.2929688 A 1 1 0 0 0 1.2929688 2.7070312 L 4.1621094 5.5761719 C 3.4024931 6.9219422 2.9998884 8.445219 3 10 C 3 12.866278 4.5230403 15.562826 6.2070312 17.775391 C 7.8910223 19.987955 9.7836593 21.725635 10.746094 22.556641 A 1.0001 1.0001 0 0 0 10.798828 22.597656 C 11.507165 23.130295 12.492835 23.130295 13.201172 22.597656 A 1.0001 1.0001 0 0 0 13.253906 22.556641 C 14.09675 21.828974 15.655112 20.403114 17.160156 18.574219 L 21.292969 22.707031 A 1 1 0 0 0 22.707031 22.707031 A 1 1 0 0 0 22.707031 21.292969 L 13.558594 12.144531 L 13.554688 12.140625 A 1 1 0 0 0 13.552734 12.138672 L 9.8691406 8.4570312 L 9.859375 8.4453125 A 1 1 0 0 0 9.7910156 8.3789062 L 2.7070312 1.2929688 A 1 1 0 0 0 2 1 z M 12.005859 1 C 10.687287 0.99282219 9.3352606 1.2817754 8.0351562 1.9199219 A 1 1 0 0 0 7.578125 3.2578125 A 1 1 0 0 0 8.9160156 3.7148438 C 13.60417 1.4136984 19.000307 4.7775425 19 10 C 19 11.008301 18.731671 12.072769 18.271484 13.136719 A 1 1 0 0 0 18.792969 14.451172 A 1 1 0 0 0 20.107422 13.929688 C 20.647234 12.681641 21 11.357695 21 10 C 21.000292 5.0344837 17.050807 1.3319487 12.568359 1.0214844 C 12.381591 1.0085484 12.194227 1.0010254 12.005859 1 z M 12.804688 6.0917969 A 1 1 0 0 0 11.78125 6.8417969 A 1 1 0 0 0 12.501953 8.0585938 C 13.210402 8.2404263 13.759574 8.7895981 13.941406 9.4980469 A 1 1 0 0 0 15.158203 10.21875 A 1 1 0 0 0 15.878906 9.0019531 C 15.516562 7.5901984 14.409801 6.4834389 12.998047 6.1210938 A 1 1 0 0 0 12.804688 6.0917969 z M 5.6503906 7.0644531 L 8.0390625 9.453125 C 7.6885644 12.018246 9.9817538 14.311436 12.546875 13.960938 L 15.738281 17.152344 C 14.328149 18.889774 12.817686 20.279952 12 20.988281 C 11.091565 20.201255 9.3283119 18.57658 7.796875 16.564453 C 6.2463725 14.527276 5 12.126712 5 10 C 4.9999268 8.9810805 5.226841 7.9808974 5.6503906 7.0644531 z "/>
</svg>
