<?xml version="1.0" encoding="UTF-8" standalone="no"?>
<svg xmlns="http://www.w3.org/2000/svg" xmlns:svg="http://www.w3.org/2000/svg" width="24" height="24" viewBox="0 0 24 24" fill="currentColor" tags="location,waypoint,marker,remove" categories="navigation,travel">
  <path d="M 2 1 A 1 1 0 0 0 1.2929688 1.2929688 A 1 1 0 0 0 1.2929688 2.7070312 L 4.1621094 5.5761719 C 3.4024919 6.9219437 2.9998884 8.4452158 3 10 C 3 12.866284 4.523037 15.562821 6.2070312 17.775391 C 7.8910256 19.98796 9.7836574 21.725634 10.746094 22.556641 A 1.0001 1.0001 0 0 0 10.798828 22.597656 C 11.507166 23.130295 12.492834 23.130295 13.201172 22.597656 A 1.0001 1.0001 0 0 0 13.253906 22.556641 C 14.096751 21.828973 15.65511 20.403116 17.160156 18.574219 L 21.292969 22.707031 A 1 1 0 0 0 22.707031 22.707031 A 1 1 0 0 0 22.707031 21.292969 L 13.609375 12.195312 L 13.607422 12.193359 A 1 1 0 0 0 13.601562 12.1875 L 9.8730469 8.4589844 A 1 1 0 0 0 9.7910156 8.3789062 A 1 1 0 0 0 9.78125 8.3691406 L 2.7070312 1.2929688 A 1 1 0 0 0 2 1 z M 12.005859 1 C 10.687285 0.99282202 9.3352632 1.2817741 8.0351562 1.9199219 A 1 1 0 0 0 7.578125 3.2578125 A 1 1 0 0 0 8.9160156 3.7148438 C 13.604179 1.4136937 19.000307 4.7775321 19 10 C 19 11.008303 18.731671 12.072767 18.271484 13.136719 A 1 1 0 0 0 18.792969 14.451172 A 1 1 0 0 0 20.107422 13.929688 C 20.647235 12.681639 21 11.357697 21 10 C 21.000292 5.0344737 17.050816 1.3319493 12.568359 1.0214844 C 12.38159 1.0085483 12.194227 1.0010254 12.005859 1 z M 12.804688 6.0917969 A 1 1 0 0 0 11.78125 6.8417969 A 1 1 0 0 0 12.501953 8.0585938 C 13.210403 8.2404266 13.759573 8.7895966 13.941406 9.4980469 A 1 1 0 0 0 15.158203 10.21875 A 1 1 0 0 0 15.878906 9.0019531 C 15.51656 7.5901956 14.409804 6.4834395 12.998047 6.1210938 A 1 1 0 0 0 12.804688 6.0917969 z M 5.6503906 7.0644531 L 8.0390625 9.453125 C 7.6885631 12.018251 9.9817492 14.311437 12.546875 13.960938 L 15.738281 17.152344 C 14.328146 18.889777 12.817688 20.27995 12 20.988281 C 11.091563 20.201254 9.3283149 18.576584 7.796875 16.564453 C 6.2463693 14.527272 5 12.126716 5 10 C 4.9999268 8.9810784 5.2268405 7.980898 5.6503906 7.0644531 z "/>
</svg>
