<?xml version="1.0" encoding="UTF-8" standalone="no"?>
<svg xmlns="http://www.w3.org/2000/svg" xmlns:svg="http://www.w3.org/2000/svg" width="24" height="24" viewBox="0 0 24 24" fill="currentColor" tags="location,waypoint,marker,drop,home,living,building,residence,architecture,address,poi,real estate,property,navigation,destination,geolocation,place,landmark" categories="navigation,travel,account">
  <path d="M 10 1 C 5.0412829 1 1 5.0412792 1 10 C 1 12.866284 2.523037 15.562821 4.2070312 17.775391 C 5.8910256 19.98796 7.7836576 21.725634 8.7460938 22.556641 A 1.0001 1.0001 0 0 0 8.7988281 22.599609 C 9.1454529 22.859578 9.5686722 22.99848 10.001953 22.998047 A 1 1 0 0 0 11 21.998047 A 1 1 0 0 0 10.003906 20.998047 C 9.0932084 20.208499 7.3241979 18.571175 5.796875 16.564453 C 4.2463693 14.527272 3 12.126716 3 10 C 3 6.1221588 6.1221613 3 10 3 C 13.877839 3 17 6.1221588 17 10 A 1 1 0 0 0 18 11 A 1 1 0 0 0 19 10 C 19 5.0412792 14.958717 1 10 1 z M 10 6 C 7.8027056 6 6 7.8027056 6 10 C 6 12.197294 7.8027056 14 10 14 C 12.197294 14 14 12.197294 14 10 C 14 7.8027056 12.197294 6 10 6 z M 10 8 C 11.116414 8 12 8.8835859 12 10 C 12 11.116414 11.116414 12 10 12 C 8.8835859 12 8 11.116414 8 10 C 8 8.8835859 8.8835859 8 10 8 z M 18 13.001953 C 17.612425 13.001953 17.225474 13.11253 16.890625 13.335938 L 13.890625 15.335938 C 13.335458 15.706338 12.9999 16.332612 13 17 L 13 21 C 13 22.092725 13.907275 23 15 23 L 21 23 C 22.092725 23 23 22.092725 23 21 L 23 17 C 23.0001 16.332612 22.664542 15.706337 22.109375 15.335938 L 19.109375 13.335938 C 18.774526 13.112529 18.387575 13.001953 18 13.001953 z M 18 15 L 21 17 L 21 21 L 19 21 L 19 19 A 1 1 0 0 0 18 18 A 1 1 0 0 0 17 19 L 17 21 L 15 21 L 15 17 L 18 15 z "/>
</svg>
