<?xml version="1.0" encoding="UTF-8" standalone="no"?>
<svg xmlns="http://www.w3.org/2000/svg" xmlns:svg="http://www.w3.org/2000/svg" width="24" height="24" viewBox="0 0 24 24" fill="currentColor" tags="location,waypoint,marker,drop,home,living,building,residence,architecture,address,poi,real estate,property,navigation,destination,geolocation,place,landmark" categories="maps,navigation,travel,account">
  <path d="M 10 1 C 5.0412929 1 1 5.0412892 1 10 C 1 12.866278 2.5230403 15.562826 4.2070312 17.775391 C 5.8910223 19.987955 7.7836595 21.725635 8.7460938 22.556641 A 1.0001 1.0001 0 0 0 8.7988281 22.599609 C 9.1454523 22.859578 9.5686731 22.99848 10.001953 22.998047 A 1 1 0 0 0 11 21.998047 A 1 1 0 0 0 10.003906 20.998047 C 9.0932101 20.208501 7.3241948 18.571171 5.796875 16.564453 C 4.2463725 14.527276 3 12.126712 3 10 C 3 6.1221666 6.122169 3 10 3 C 13.877831 3 17 6.1221666 17 10 A 1 1 0 0 0 18 11 A 1 1 0 0 0 19 10 C 19 5.0412892 14.958707 1 10 1 z M 10 6 C 7.80271 6 6 7.80271 6 10 C 6 12.19729 7.80271 14 10 14 C 12.19729 14 14 12.19729 14 10 C 14 7.80271 12.19729 6 10 6 z M 10 8 C 11.116412 8 12 8.8835881 12 10 C 12 11.116412 11.116412 12 10 12 C 8.8835881 12 8 11.116412 8 10 C 8 8.8835881 8.8835881 8 10 8 z M 18 13.001953 C 17.612425 13.001953 17.225474 13.112531 16.890625 13.335938 L 13.890625 15.335938 C 13.33546 15.706336 12.9999 16.332614 13 17 L 13 21 C 13 22.092723 13.907277 23 15 23 L 21 23 C 22.092723 23 23 22.092723 23 21 L 23 17 C 23.0001 16.332614 22.66454 15.706336 22.109375 15.335938 L 19.109375 13.335938 C 18.774526 13.112531 18.387575 13.001953 18 13.001953 z M 18 15 L 21 17 L 21 21 L 19 21 L 19 19 A 1 1 0 0 0 18 18 A 1 1 0 0 0 17 19 L 17 21 L 15 21 L 15 17 L 18 15 z "/>
</svg>
