<?xml version="1.0" encoding="UTF-8" standalone="no"?>
<svg xmlns="http://www.w3.org/2000/svg" xmlns:svg="http://www.w3.org/2000/svg" width="24" height="24" viewBox="0 0 24 24" fill="currentColor" tags="location,waypoint,marker,drop" categories="maps,navigation,travel,account">
  <path d="M 12 1 C 7.0412929 1 3 5.0412892 3 10 C 3 12.866278 4.5230403 15.562826 6.2070312 17.775391 C 7.8910223 19.987955 9.7836593 21.725635 10.746094 22.556641 A 1.0001 1.0001 0 0 0 10.798828 22.597656 C 11.507165 23.130295 12.492835 23.130295 13.201172 22.597656 A 1.0001 1.0001 0 0 0 13.253906 22.556641 C 14.21634 21.725635 16.108977 19.987955 17.792969 17.775391 C 19.476967 15.562826 21 12.866278 21 10 C 21 5.0412892 16.958707 1 12 1 z M 12 3 C 15.877831 3 19 6.1221666 19 10 C 19 12.126712 17.753627 14.527276 16.203125 16.564453 C 14.671689 18.57658 12.908435 20.201255 12 20.988281 C 11.091565 20.201255 9.3283119 18.57658 7.796875 16.564453 C 6.2463725 14.527276 5 12.126712 5 10 C 5 6.1221666 8.122169 3 12 3 z M 12 6 C 9.80271 6 8 7.80271 8 10 C 8 12.19729 9.80271 14 12 14 C 14.19729 14 16 12.19729 16 10 C 16 7.80271 14.19729 6 12 6 z M 12 8 C 13.116412 8 14 8.8835881 14 10 C 14 11.116412 13.116412 12 12 12 C 10.883588 12 10 11.116412 10 10 C 10 8.8835881 10.883588 8 12 8 z "/>
</svg>
