<svg xmlns="http://www.w3.org/2000/svg" xmlns:svg="http://www.w3.org/2000/svg" width="24" height="24" viewBox="0 0 24 24" fill="currentColor" tags="location,waypoint,marker,remove" categories="navigation,travel">
  <path d="M 2 1 A 1 1 0 0 0 1.2929688 1.2929688 A 1 1 0 0 0 1.2929688 2.7070312 L 4.1621094 5.5761719 C 3.4025608 6.9218974 2.9998884 8.4452886 3 10 C 3 12.866284 4.523037 15.562821 6.2070312 17.775391 C 7.8910256 19.98796 9.7836574 21.725634 10.746094 22.556641 A 1.0001 1.0001 0 0 0 10.798828 22.597656 C 11.507166 23.130295 12.492834 23.130295 13.201172 22.597656 A 1.0001 1.0001 0 0 0 13.253906 22.556641 C 14.097002 21.828756 15.654694 20.403901 17.160156 18.574219 L 21.292969 22.707031 A 1 1 0 0 0 22.707031 22.707031 A 1 1 0 0 0 22.707031 21.292969 L 17.789062 16.375 A 1 1 0 0 0 17.769531 16.355469 L 13.613281 12.199219 A 1 1 0 0 0 13.539062 12.125 L 9.875 8.4609375 A 1 1 0 0 0 9.8007812 8.3867188 L 2.7070312 1.2929688 A 1 1 0 0 0 2 1 z M 11.439453 1.015625 C 10.302618 1.0828251 9.1495336 1.3729381 8.0351562 1.9199219 A 1 1 0 0 0 7.578125 3.2578125 A 1 1 0 0 0 8.9160156 3.7148438 C 13.604179 1.4136937 19.000307 4.7775321 19 10 C 19 11.008303 18.731671 12.072767 18.271484 13.136719 A 1 1 0 0 0 18.792969 14.451172 A 1 1 0 0 0 20.107422 13.929688 C 20.647235 12.681639 21 11.357697 21 10 C 21.000292 5.0344737 17.050816 1.3319493 12.568359 1.0214844 C 12.194821 0.99561229 11.818398 0.99322498 11.439453 1.015625 z M 12.738281 6.0898438 A 1 1 0 0 0 11.78125 6.8417969 A 1 1 0 0 0 12.501953 8.0585938 C 13.210403 8.2404266 13.759573 8.7895966 13.941406 9.4980469 A 1 1 0 0 0 15.158203 10.21875 A 1 1 0 0 0 15.878906 9.0019531 C 15.51656 7.5901956 14.409804 6.4834395 12.998047 6.1210938 A 1 1 0 0 0 12.738281 6.0898438 z M 5.6464844 7.0605469 L 8.0390625 9.453125 C 7.689202 12.017646 9.982354 14.310798 12.546875 13.960938 L 15.740234 17.154297 C 14.330083 18.891762 12.817699 20.279941 12 20.988281 C 11.091563 20.201254 9.3283149 18.576584 7.796875 16.564453 C 6.2463693 14.527272 5 12.126716 5 10 C 4.9999268 8.980445 5.222421 7.9774551 5.6464844 7.0605469 z "/>
</svg>
