<?xml version="1.0" encoding="UTF-8" standalone="no"?>
<svg xmlns="http://www.w3.org/2000/svg" xmlns:svg="http://www.w3.org/2000/svg" width="24" height="24" viewBox="0 0 24 24" fill="currentColor" tags="location,waypoint,marker,drop" categories="maps,navigation,travel,account">
  <path d="M 12 1 C 8.1458602 1 5 4.1458573 5 8 C 5 9.8155139 5.7750797 11.515618 6.7460938 13 L 5.0039062 13 C 4.1477749 13.000364 3.3788154 13.553258 3.1074219 14.365234 L 1.1035156 20.365234 C 0.68000955 21.632313 1.6640191 22.999432 3 23 L 21 23 C 22.334918 22.999 23.318319 21.633704 22.896484 20.367188 L 20.896484 14.367188 C 20.625556 13.553747 19.855419 12.999794 18.998047 13 L 17.253906 13 C 18.224628 11.51544 19 9.8156926 19 8 A 1 1 0 0 0 18.921875 7.6132812 C 18.70912 3.9477019 15.717119 1 12 1 z M 12 3 C 14.773263 3 17 5.2267346 17 8 C 17 9.4495454 16.161582 11.159922 15.068359 12.648438 C 13.996391 14.108013 12.737991 15.319398 12 15.984375 C 11.262205 15.319167 10.003748 14.108045 8.9316406 12.648438 C 7.8382765 11.15989 7 9.4494531 7 8 C 7 5.2267346 9.2267363 3 12 3 z M 12 5 C 10.354994 5 9 6.3549936 9 8 C 9 9.6450064 10.354994 11 12 11 C 13.645006 11 15 9.6450064 15 8 C 15 6.3549936 13.645006 5 12 5 z M 12 7 C 12.564128 7 13 7.4358718 13 8 C 13 8.5641282 12.564128 9 12 9 C 11.435872 9 11 8.5641282 11 8 C 11 7.4358718 11.435872 7 12 7 z M 5.0039062 15 L 8.2441406 15 C 9.1916367 16.116334 10.127724 17.003708 10.724609 17.539062 A 1.0001 1.0001 0 0 0 10.785156 17.589844 C 11.498132 18.13442 12.501868 18.13442 13.214844 17.589844 A 1.0001 1.0001 0 0 0 13.275391 17.539062 C 13.872874 17.003523 14.809971 16.116281 15.757812 15 L 18.998047 15 A 1.0001 1.0001 0 0 0 19 15 L 21 21 L 3 21 L 5.0039062 15 z "/>
</svg>
