<svg xmlns="http://www.w3.org/2000/svg" xmlns:svg="http://www.w3.org/2000/svg" width="24" height="24" viewBox="0 0 24 24" fill="currentColor" tags="location,waypoint,marker,drop,done,tick,complete,task,added" categories="navigation,travel,account">
  <path d="M 12 1 C 7.0412829 1 3 5.0412792 3 10 C 3 12.866284 4.523037 15.562821 6.2070312 17.775391 C 7.8910256 19.98796 9.7836574 21.725634 10.746094 22.556641 A 1.0001 1.0001 0 0 0 10.798828 22.597656 C 11.507166 23.130295 12.492834 23.130295 13.201172 22.597656 A 1.0001 1.0001 0 0 0 13.253906 22.556641 C 14.216342 21.725634 16.108974 19.98796 17.792969 17.775391 C 19.476971 15.562821 21 12.866284 21 10 C 21 5.0412792 16.958717 1 12 1 z M 12 3 C 15.877839 3 19 6.1221588 19 10 C 19 12.126716 17.753631 14.527272 16.203125 16.564453 C 14.671685 18.576584 12.908437 20.201254 12 20.988281 C 11.091563 20.201254 9.3283149 18.576584 7.796875 16.564453 C 6.2463693 14.527272 5 12.126716 5 10 C 5 6.1221588 8.1221613 3 12 3 z M 15 7 A 1 1 0 0 0 14.292969 7.2929688 L 11 10.585938 L 9.7070312 9.2929688 A 1 1 0 0 0 8.2929688 9.2929688 A 1 1 0 0 0 8.2929688 10.707031 L 10.292969 12.707031 A 1.0001 1.0001 0 0 0 11.707031 12.707031 L 15.707031 8.7070312 A 1 1 0 0 0 15.707031 7.2929688 A 1 1 0 0 0 15 7 z "/>
</svg>
