<?xml version="1.0" encoding="UTF-8" standalone="no"?>
<svg xmlns="http://www.w3.org/2000/svg" xmlns:svg="http://www.w3.org/2000/svg" width="24" height="24" viewBox="0 0 24 24" fill="currentColor" tags="location,navigation,travel" categories="text,maps">
  <path d="M 9 2.2363281 C 8.5403634 2.2363281 8.0799272 2.3419982 7.6582031 2.5527344 L 3.1054688 4.8300781 C 2.4298981 5.1676617 2.0004033 5.861967 2 6.6171875 L 2 19.380859 C 1.99792 20.826454 3.6010217 21.818249 4.8945312 21.171875 L 8.5527344 19.341797 C 8.6938307 19.271291 8.8469156 19.236328 9 19.236328 C 9.1530844 19.236328 9.3061693 19.271291 9.4472656 19.341797 L 13.658203 21.449219 C 14.501651 21.87069 15.498349 21.87069 16.341797 21.449219 L 20.894531 19.171875 C 21.570103 18.834291 21.999597 18.138034 22 17.382812 L 22 4.6210938 L 22 4.6191406 C 22.000637 3.1743194 20.398285 2.1821002 19.105469 2.828125 L 15.447266 4.6582031 C 15.165073 4.7992153 14.834927 4.7992153 14.552734 4.6582031 L 10.341797 2.5527344 C 9.9572294 2.3605654 9.540082 2.2611162 9.1210938 2.2441406 A 1 1 0 0 0 9 2.2363281 z M 10 4.6171875 L 13.658203 6.4472656 C 13.769812 6.5030369 13.883734 6.5507855 14 6.5917969 L 14 19.382812 L 10.341797 17.552734 C 10.230188 17.496963 10.116266 17.449214 10 17.408203 L 10 4.6171875 z M 20 4.6171875 A 1.0001 1.0001 0 0 0 20 4.6191406 L 20 17.382812 L 16 19.382812 L 16 6.5917969 C 16.116266 6.5507855 16.230188 6.5030369 16.341797 6.4472656 L 20 4.6171875 z M 8 4.6191406 L 8 17.408203 C 7.8837343 17.449214 7.7698123 17.496963 7.6582031 17.552734 L 4 19.382812 A 1.0001 1.0001 0 0 0 4 19.380859 L 4 6.6191406 L 8 4.6191406 z "/>
</svg>
