<?xml version="1.0" encoding="UTF-8" standalone="no"?>
<svg xmlns="http://www.w3.org/2000/svg" xmlns:svg="http://www.w3.org/2000/svg" width="24" height="24" viewBox="0 0 24 24" fill="currentColor" tags="location,navigation,travel" categories="text,maps">
  <path d="M 9 2 A 1 1 0 0 0 8.6035156 2.09375 A 1.0001 1.0001 0 0 0 8.5527344 2.1054688 L 2.5527344 5.1054688 A 1.0001 1.0001 0 0 0 2 6 L 2 21 A 1.0001 1.0001 0 0 0 3.4472656 21.894531 L 9 19.117188 L 14.552734 21.894531 A 1.0001 1.0001 0 0 0 14.603516 21.90625 A 1 1 0 0 0 15 22 A 1 1 0 0 0 15.396484 21.90625 A 1.0001 1.0001 0 0 0 15.447266 21.894531 L 21.447266 18.894531 A 1.0001 1.0001 0 0 0 22 18 L 22 3 A 1.0001 1.0001 0 0 0 20.552734 2.1054688 L 15 4.8828125 L 9.4472656 2.1054688 A 1.0001 1.0001 0 0 0 9.4394531 2.1035156 A 1 1 0 0 0 9 2 z M 8 4.6171875 L 8 17.382812 L 4 19.382812 L 4 6.6171875 L 8 4.6171875 z M 10 4.6171875 L 14 6.6171875 L 14 19.382812 L 10 17.382812 L 10 4.6171875 z M 20 4.6171875 L 20 17.382812 L 16 19.382812 L 16 6.6171875 L 20 4.6171875 z "/>
</svg>
