<?xml version="1.0" encoding="UTF-8" standalone="no"?>
<svg xmlns="http://www.w3.org/2000/svg" xmlns:svg="http://www.w3.org/2000/svg" width="24" height="24" viewBox="0 0 24 24" fill="currentColor" tags="gender,sex,male,masculine,man,boy" categories="medical">
  <path d="M 16 2 A 1 1 0 0 0 15 3 A 1 1 0 0 0 16 4 L 18.585938 4 L 14.1875 8.3984375 C 13.018117 7.5212443 11.567965 7 10 7 C 6.1458514 7 3 10.145851 3 14 C 3 17.854149 6.1458514 21 10 21 C 13.854149 21 17 17.854149 17 14 C 17 12.432035 16.478756 10.981883 15.601562 9.8125 L 20 5.4140625 L 20 8 A 1 1 0 0 0 21 9 A 1 1 0 0 0 22 8 L 22 3 A 1.0001 1.0001 0 0 0 21.707031 2.2929688 A 1 1 0 0 0 21.382812 2.0761719 A 1.0001 1.0001 0 0 0 21 2 L 16 2 z M 10 9 C 12.773268 9 15 11.226732 15 14 C 15 16.773268 12.773268 19 10 19 C 7.2267316 19 5 16.773268 5 14 C 5 11.226732 7.2267316 9 10 9 z "/>
</svg>
