<?xml version="1.0" encoding="UTF-8" standalone="no"?>
<svg xmlns="http://www.w3.org/2000/svg" xmlns:svg="http://www.w3.org/2000/svg" width="24" height="24" viewBox="0 0 24 24" fill="currentColor" tags="gender,sex,male,masculine,man,boy" categories="medical">
  <path d="M 16 2 A 1 1 0 0 0 15 3 A 1 1 0 0 0 16 4 L 18.585938 4 L 14.1875 8.3984375 C 13.018213 7.5214944 11.567719 7 10 7 C 6.1458514 7 3 10.145851 3 14 C 3 17.854149 6.1458514 21 10 21 C 13.854149 21 17 17.854149 17 14 C 17 12.432281 16.478506 10.981787 15.601562 9.8125 L 20 5.4140625 L 20 8 A 1 1 0 0 0 21 9 A 1 1 0 0 0 22 8 L 22 3 A 1.0001 1.0001 0 0 0 21.998047 2.984375 A 1 1 0 0 0 21.970703 2.7636719 A 1.0001 1.0001 0 0 0 21.957031 2.7167969 A 1 1 0 0 0 21.865234 2.5 A 1.0001 1.0001 0 0 0 21.859375 2.4921875 A 1 1 0 0 0 21.707031 2.2929688 A 1.0001 1.0001 0 0 0 21.472656 2.1230469 A 1 1 0 0 0 21.394531 2.0898438 A 1.0001 1.0001 0 0 0 21.197266 2.0253906 A 1 1 0 0 0 21.091797 2.0117188 A 1.0001 1.0001 0 0 0 21 2 L 16 2 z M 10 9 C 12.773268 9 15 11.226732 15 14 C 15 16.773268 12.773268 19 10 19 C 7.2267316 19 5 16.773268 5 14 C 5 11.226732 7.2267316 9 10 9 z "/>
</svg>
