<svg xmlns="http://www.w3.org/2000/svg" xmlns:svg="http://www.w3.org/2000/svg" width="24" height="24" viewBox="0 0 24 24" fill="currentColor" tags="gender,androgyne,transgender" categories="medical">
  <path d="M 17 2 A 1 1 0 0 0 16 3 A 1 1 0 0 0 17 4 L 18.585938 4 L 16 6.5859375 L 14.707031 5.2929688 A 1 1 0 0 0 14 5 A 1 1 0 0 0 13.292969 5.2929688 A 1 1 0 0 0 13.292969 6.7070312 L 14.585938 8 L 13.1875 9.3984375 C 12.018117 8.5212442 10.567965 8 9 8 C 5.1458514 8 2 11.145851 2 15 C 2 18.854149 5.1458514 22 9 22 C 12.854149 22 16 18.854149 16 15 C 16 13.432035 15.478756 11.981883 14.601562 10.8125 L 16 9.4140625 L 17.292969 10.707031 A 1 1 0 0 0 18.707031 10.707031 A 1 1 0 0 0 18.707031 9.2929688 L 17.414062 8 L 20 5.4140625 L 20 7 A 1 1 0 0 0 21 8 A 1 1 0 0 0 22 7 L 22 3 A 1.0001 1.0001 0 0 0 21.707031 2.2929688 A 1 1 0 0 0 21.382812 2.0761719 A 1.0001 1.0001 0 0 0 21 2 L 17 2 z M 9 10 C 11.773268 10 14 12.226732 14 15 C 14 17.773268 11.773268 20 9 20 C 6.2267316 20 4 17.773268 4 15 C 4 12.226732 6.2267316 10 9 10 z "/>
</svg>
