<?xml version="1.0" encoding="UTF-8" standalone="no"?>
<svg xmlns="http://www.w3.org/2000/svg" xmlns:svg="http://www.w3.org/2000/svg" width="24" height="24" viewBox="0 0 24 24" fill="currentColor" tags="cocktail,alcohol,beverage,bar,drink,glass" categories="food-beverage">
  <path d="M 5 2 A 1.0001 1.0001 0 0 0 4.2480469 3.6582031 L 11 11.375 L 11 21 L 8 21 A 1 1 0 0 0 7 22 A 1 1 0 0 0 8 23 L 16 23 A 1 1 0 0 0 17 22 A 1 1 0 0 0 16 21 L 13 21 L 13 11.375 L 19.751953 3.6582031 A 1.0001 1.0001 0 0 0 19 2 L 5 2 z M 7.203125 4 L 16.796875 4 L 12 9.4824219 L 7.203125 4 z "/>
</svg>
