<?xml version="1.0" encoding="UTF-8" standalone="no"?>
<svg xmlns="http://www.w3.org/2000/svg" xmlns:svg="http://www.w3.org/2000/svg" width="24" height="24" viewBox="0 0 24 24" fill="currentColor" tags="fullscreen,arrows,expand" categories="arrows,layout,design">
  <path d="M 15 2 A 1 1 0 0 0 14 3 A 1 1 0 0 0 15 4 L 18.585938 4 L 13.292969 9.2929688 A 1 1 0 0 0 13.292969 10.707031 A 1 1 0 0 0 14.707031 10.707031 L 20 5.4140625 L 20 9 A 1 1 0 0 0 21 10 A 1 1 0 0 0 22 9 L 22 3 A 1.0001 1.0001 0 0 0 21.998047 2.984375 A 1 1 0 0 0 21.970703 2.7636719 A 1.0001 1.0001 0 0 0 21.957031 2.7167969 A 1 1 0 0 0 21.865234 2.5 A 1.0001 1.0001 0 0 0 21.859375 2.4921875 A 1 1 0 0 0 21.707031 2.2929688 A 1.0001 1.0001 0 0 0 21.472656 2.1230469 A 1 1 0 0 0 21.394531 2.0898438 A 1.0001 1.0001 0 0 0 21.197266 2.0253906 A 1 1 0 0 0 21.091797 2.0117188 A 1.0001 1.0001 0 0 0 21 2 L 15 2 z M 10 13 A 1 1 0 0 0 9.2929688 13.292969 L 4 18.585938 L 4 15 A 1 1 0 0 0 3 14 A 1 1 0 0 0 2 15 L 2 21 A 1.0001 1.0001 0 0 0 2.0117188 21.091797 A 1 1 0 0 0 2.0253906 21.197266 A 1.0001 1.0001 0 0 0 2.0898438 21.394531 A 1 1 0 0 0 2.1230469 21.472656 A 1.0001 1.0001 0 0 0 2.2929688 21.707031 A 1.0001 1.0001 0 0 0 2.5273438 21.876953 A 1 1 0 0 0 2.6054688 21.910156 A 1.0001 1.0001 0 0 0 2.8027344 21.974609 A 1 1 0 0 0 2.9082031 21.988281 A 1.0001 1.0001 0 0 0 3 22 L 9 22 A 1 1 0 0 0 10 21 A 1 1 0 0 0 9 20 L 5.4140625 20 L 10.707031 14.707031 A 1 1 0 0 0 10.707031 13.292969 A 1 1 0 0 0 10 13 z "/>
</svg>
