<?xml version="1.0" encoding="UTF-8" standalone="no"?>
<svg xmlns="http://www.w3.org/2000/svg" xmlns:svg="http://www.w3.org/2000/svg" width="24" height="24" viewBox="0 0 24 24" fill="currentColor" tags="fullscreen,arrows,expand" categories="arrows,layout,design">
  <path d="M 15 2 A 1 1 0 0 0 14 3 A 1 1 0 0 0 15 4 L 18.585938 4 L 13.292969 9.2929688 A 1 1 0 0 0 13.292969 10.707031 A 1 1 0 0 0 14.707031 10.707031 L 20 5.4140625 L 20 9 A 1 1 0 0 0 21 10 A 1 1 0 0 0 22 9 L 22 3 A 1.0001 1.0001 0 0 0 21.707031 2.2929688 A 1 1 0 0 0 21.382812 2.0761719 A 1.0001 1.0001 0 0 0 21 2 L 15 2 z M 10 13 A 1 1 0 0 0 9.2929688 13.292969 L 4 18.585938 L 4 15 A 1 1 0 0 0 3 14 A 1 1 0 0 0 2 15 L 2 21 A 1.0001 1.0001 0 0 0 2.0078125 21.130859 A 1.0001 1.0001 0 0 0 2.0761719 21.382812 A 1.0001 1.0001 0 0 0 2.6171875 21.923828 A 1.0001 1.0001 0 0 0 2.8691406 21.992188 A 1.0001 1.0001 0 0 0 3 22 L 9 22 A 1 1 0 0 0 10 21 A 1 1 0 0 0 9 20 L 5.4140625 20 L 10.707031 14.707031 A 1 1 0 0 0 10.707031 13.292969 A 1 1 0 0 0 10 13 z "/>
</svg>
