<svg xmlns="http://www.w3.org/2000/svg" xmlns:svg="http://www.w3.org/2000/svg" width="24" height="24" viewBox="0 0 24 24" fill="currentColor" tags="prize,sports,winner,trophy,award,achievement" categories="sports,gaming">
  <path d="M 6 1 C 5.5775519 1 5.1657864 1.0893805 4.7890625 1.2558594 A 1 1 0 0 0 4.6054688 1.3417969 A 1 1 0 0 0 4.5742188 1.3613281 C 4.197945 1.5647219 3.8649846 1.8483648 3.6015625 2.1992188 L 1.9902344 4.3378906 A 1.0001 1.0001 0 0 0 1.9902344 4.3398438 C 1.2720203 5.2993942 1.1947125 6.6031709 1.7949219 7.640625 L 6.2402344 15.322266 C 6.0841642 15.855098 6 16.418226 6 17 C 6 20.301864 8.6981361 23 12 23 C 15.301864 23 18 20.301864 18 17 C 18 16.418224 17.915837 15.8551 17.759766 15.322266 L 22.205078 7.640625 A 1.0001 1.0001 0 0 0 22.207031 7.6367188 C 22.802136 6.5976326 22.720447 5.2979319 22 4.3417969 L 21.998047 4.3398438 L 20.400391 2.2011719 A 1.0001 1.0001 0 0 0 20.400391 2.1992188 C 20.134518 1.8446891 19.797056 1.5591708 19.416016 1.3554688 A 1 1 0 0 0 19.394531 1.3417969 A 1 1 0 0 0 19.21875 1.2578125 C 18.839741 1.0894441 18.42529 1 18 1 L 6 1 z M 6.765625 3 L 17.234375 3 L 15.433594 6 L 8.5664062 6 L 6.765625 3 z M 4.90625 3.7890625 L 9.5488281 11.525391 C 8.686043 11.91425 7.9317358 12.501779 7.3417969 13.228516 L 3.5253906 6.6386719 C 3.3238481 6.2903082 3.3494412 5.8635913 3.5898438 5.5410156 L 3.5898438 5.5390625 L 4.90625 3.7890625 z M 19.091797 3.7910156 L 20.398438 5.5390625 A 1.0001 1.0001 0 0 0 20.402344 5.5429688 C 20.64554 5.8647115 20.673108 6.2926034 20.472656 6.6425781 L 16.658203 13.228516 C 16.068261 12.501764 15.313969 11.914255 14.451172 11.525391 L 19.091797 3.7910156 z M 9.765625 8 L 14.234375 8 L 12.425781 11.015625 C 12.285231 11.005676 12.142985 11 12 11 C 11.857015 11 11.714769 11.005676 11.574219 11.015625 L 9.765625 8 z M 12 13 C 14.220984 13 16 14.779016 16 17 C 16 19.220984 14.220984 21 12 21 C 9.7790164 21 8 19.220984 8 17 C 8 14.779016 9.7790164 13 12 13 z M 11.5 15 A 1 1 0 0 0 10.5 16 A 1 1 0 0 0 11 16.5 L 11 18 A 1 1 0 0 0 12 19 A 1 1 0 0 0 13 18 L 13 16 A 1.0001 1.0001 0 0 0 12 15 L 11.5 15 z "/>
</svg>
