<?xml version="1.0" encoding="UTF-8" standalone="no"?>
<svg xmlns="http://www.w3.org/2000/svg" xmlns:svg="http://www.w3.org/2000/svg" width="24" height="24" viewBox="0 0 24 24" fill="currentColor" tags="advertisement,attention,alert,notification" categories="multimedia,notifications">
  <path d="M 20.992188 5 A 1.0001 1.0001 0 0 0 20.732422 5.0371094 L 2.7324219 10.037109 A 1.0001 1.0001 0 0 0 2 11 L 2 14 A 1.0001 1.0001 0 0 0 2.7832031 14.976562 L 4.7324219 15.410156 C 4.5638804 16.443864 4.7812251 17.417454 5.2675781 18.167969 C 5.8280152 19.032805 6.6955451 19.604186 7.6347656 19.863281 C 8.5739861 20.122377 9.6105778 20.078224 10.535156 19.623047 C 11.439518 19.177823 12.196531 18.312304 12.541016 17.144531 L 20.783203 18.976562 A 1.0001 1.0001 0 0 0 22 18 L 22 6 A 1.0001 1.0001 0 0 0 20.992188 5 z M 20 7.3144531 L 20 16.753906 L 4 13.197266 L 4 11.759766 L 20 7.3144531 z M 6.6855469 15.84375 L 10.582031 16.708984 C 10.375382 17.317633 10.045557 17.634544 9.6523438 17.828125 C 9.2227558 18.039614 8.6767951 18.076452 8.1660156 17.935547 C 7.6552361 17.794642 7.2057089 17.483861 6.9453125 17.082031 C 6.7327525 16.75402 6.6135629 16.368937 6.6855469 15.84375 z "/>
</svg>
