<?xml version="1.0" encoding="UTF-8" standalone="no"?>
<svg xmlns="http://www.w3.org/2000/svg" xmlns:svg="http://www.w3.org/2000/svg" width="24" height="24" viewBox="0 0 24 24" fill="currentColor" tags="advertisement,attention,alert,notification,disable,silent" categories="multimedia,notifications">
  <path d="M 2 1 A 1 1 0 0 0 1.2929688 1.2929688 A 1 1 0 0 0 1.2929688 2.7070312 L 7.3417969 8.7558594 L 2.7324219 10.037109 A 1.0001 1.0001 0 0 0 2 11 L 2 14 A 1.0001 1.0001 0 0 0 2.7832031 14.976562 L 4.7324219 15.410156 C 4.5638849 16.443858 4.7812275 17.417458 5.2675781 18.167969 C 5.8280152 19.032805 6.6955451 19.604186 7.6347656 19.863281 C 8.5739861 20.122377 9.6105778 20.078224 10.535156 19.623047 C 11.439499 19.177832 12.196521 18.312268 12.541016 17.144531 L 16.640625 18.054688 L 21.292969 22.707031 A 1 1 0 0 0 22.707031 22.707031 A 1 1 0 0 0 22.707031 21.292969 L 17.873047 16.460938 L 2.7070312 1.2929688 A 1 1 0 0 0 2 1 z M 21.035156 5.0019531 A 1.0001 1.0001 0 0 0 20.732422 5.0371094 L 13.421875 7.0664062 A 1 1 0 0 0 12.726562 8.296875 A 1 1 0 0 0 13.957031 8.9941406 L 20 7.3144531 L 20 15.339844 A 1 1 0 0 0 21 16.339844 A 1 1 0 0 0 22 15.339844 L 22 6 A 1.0001 1.0001 0 0 0 21.035156 5.0019531 z M 8.9648438 10.378906 L 14.005859 15.419922 L 4 13.197266 L 4 11.759766 L 8.9648438 10.378906 z M 6.6855469 15.84375 L 10.582031 16.708984 C 10.375368 17.317223 10.045422 17.63461 9.6523438 17.828125 C 9.2227558 18.039614 8.6767951 18.076452 8.1660156 17.935547 C 7.6552361 17.794642 7.2057089 17.483861 6.9453125 17.082031 C 6.7326925 16.753927 6.6134343 16.369164 6.6855469 15.84375 z "/>
</svg>
