<svg xmlns="http://www.w3.org/2000/svg" xmlns:svg="http://www.w3.org/2000/svg" width="24" height="24" viewBox="0 0 24 24" fill="currentColor" tags="advertisement,announcement,attention,alert,loudspeaker,megaphone,notification,disable,silent" categories="multimedia,notifications">
  <path d="M 2 1 A 1 1 0 0 0 1.2929688 1.2929688 A 1 1 0 0 0 1.2929688 2.7070312 L 3.828125 5.2421875 C 2.758182 5.702689 2 6.7699698 2 8 L 2 12 C 2 13.64501 3.3549904 15 5 15 L 5.0390625 15 C 5.2285472 17.457237 6.1127807 19.818343 7.5996094 21.800781 C 8.1496093 22.534114 8.9418878 22.956909 9.7167969 23.021484 C 10.491706 23.086064 11.223004 22.833724 11.800781 22.400391 C 12.378559 21.967057 12.825487 21.336213 12.980469 20.574219 C 13.135451 19.812225 12.950389 18.932552 12.400391 18.199219 C 11.693046 17.256094 11.239062 16.154073 11.072266 14.998047 C 12.005033 14.977661 12.937761 15.068282 13.849609 15.263672 L 21.292969 22.707031 A 1 1 0 0 0 22.707031 22.707031 A 1 1 0 0 0 22.707031 21.292969 L 15.195312 13.78125 A 1 1 0 0 0 14.953125 13.539062 L 8.7167969 7.3027344 A 1 1 0 0 0 8.6972656 7.2832031 L 6.7167969 5.3027344 A 1 1 0 0 0 6.6972656 5.2832031 L 2.7070312 1.2929688 A 1 1 0 0 0 2 1 z M 19.835938 2.0253906 C 19.476495 2.0438116 19.117809 2.1626197 18.800781 2.4003906 A 1.0001 1.0001 0 0 0 18.779297 2.4160156 C 16.734424 4.0332467 14.219678 4.9398041 11.613281 5 A 1 1 0 0 0 10.636719 6.0234375 A 1 1 0 0 0 11.658203 7 C 14.690331 6.9299719 17.61811 5.876855 20 4 L 20 15.34375 A 1 1 0 0 0 21 16.34375 A 1 1 0 0 0 22 15.34375 L 22 4 C 22 2.8111456 20.914267 1.9701275 19.835938 2.0253906 z M 5 7 L 5.5859375 7 L 7 8.4140625 L 7 13 L 5 13 C 4.4358706 13 4 12.564129 4 12 L 4 8 C 4 7.4358706 4.4358706 7 5 7 z M 9 10.414062 L 11.583984 12.998047 C 11.381159 12.994426 11.177693 12.994774 10.974609 13 L 9 13 L 9 10.414062 z M 7.0449219 15 L 8 15 L 9.0566406 15 C 9.234602 16.590061 9.8336808 18.110923 10.800781 19.400391 C 11.050781 19.733724 11.064549 19.954442 11.019531 20.175781 C 10.974511 20.39712 10.821832 20.634115 10.599609 20.800781 C 10.377387 20.967448 10.107903 21.048054 9.8828125 21.029297 C 9.6577218 21.010539 9.4492185 20.932942 9.1992188 20.599609 C 7.9720549 18.963392 7.2294574 17.023668 7.0449219 15 z "/>
</svg>
