<svg xmlns="http://www.w3.org/2000/svg" xmlns:svg="http://www.w3.org/2000/svg" width="24" height="24" viewBox="0 0 24 24" fill="currentColor" tags="ram,random access,technology,computer,chip,circuit,specs,capacity,gigabytes,gb" categories="devices,gaming">
  <path d="M 4 5 C 2.3552972 5 1 6.3552972 1 8 L 1 11 L 1 14 C 1 15.294856 1.8400444 16.41021 3 16.826172 L 3 18 A 1 1 0 0 0 4 19 A 1 1 0 0 0 5 18 L 5 17 L 7 17 L 7 18 A 1 1 0 0 0 8 19 A 1 1 0 0 0 9 18 L 9 17 L 11 17 L 11 18 A 1 1 0 0 0 12 19 A 1 1 0 0 0 13 18 L 13 17 L 15 17 L 15 18 A 1 1 0 0 0 16 19 A 1 1 0 0 0 17 18 L 17 17 L 19 17 L 19 18 A 1 1 0 0 0 20 19 A 1 1 0 0 0 21 18 L 21 16.826172 C 22.159956 16.41021 23 15.294856 23 14 L 23 11 L 23 8 C 23 6.3552972 21.644703 5 20 5 L 4 5 z M 4 7 L 20 7 C 20.571297 7 21 7.4287028 21 8 L 21 10 L 20.5 10 A 1 1 0 0 0 19.5 11 A 1 1 0 0 0 20.5 12 L 21 12 L 21 14 C 21 14.571297 20.571297 15 20 15 L 16 15 L 12 15 L 8 15 L 4 15 C 3.4287028 15 3 14.571297 3 14 L 3 12 L 3.5 12 A 1 1 0 0 0 4.5 11 A 1 1 0 0 0 3.5 10 L 3 10 L 3 8 C 3 7.4287028 3.4287028 7 4 7 z M 8 9 A 1 1 0 0 0 7 10 L 7 12 A 1 1 0 0 0 8 13 A 1 1 0 0 0 9 12 L 9 10 A 1 1 0 0 0 8 9 z M 12 9 A 1 1 0 0 0 11 10 L 11 12 A 1 1 0 0 0 12 13 A 1 1 0 0 0 13 12 L 13 10 A 1 1 0 0 0 12 9 z M 16 9 A 1 1 0 0 0 15 10 L 15 12 A 1 1 0 0 0 16 13 A 1 1 0 0 0 17 12 L 17 10 A 1 1 0 0 0 16 9 z "/>
</svg>
