<?xml version="1.0" encoding="UTF-8" standalone="no"?>
<svg xmlns="http://www.w3.org/2000/svg" xmlns:svg="http://www.w3.org/2000/svg" width="24" height="24" viewBox="0 0 24 24" fill="currentColor" tags="ram,random access,technology,computer,chip,circuit,specs,capacity,gigabytes,gb" categories="devices,development,gaming">
  
  <path d="M 4 4 C 2.3549936 4 1 5.3549936 1 7 L 1 8.0625 A 1.0001 1.0001 0 0 0 1.7167969 9.0214844 C 2.256637 9.1805008 2.4355469 9.5536951 2.4355469 9.9824219 C 2.4355469 10.411149 2.256637 10.78239 1.7167969 10.941406 A 1.0001 1.0001 0 0 0 1 11.900391 L 1 15 L 1 17 C 1 18.645006 2.3549936 20 4 20 L 6 20 L 10 20 L 14 20 L 18 20 L 20 20 C 21.645006 20 23 18.645006 23 17 L 23 15 L 23 11.9375 A 1.0001 1.0001 0 0 0 22.283203 10.978516 C 21.743363 10.819499 21.564453 10.446305 21.564453 10.017578 C 21.564453 9.5888515 21.743363 9.2176102 22.283203 9.0585938 A 1.0001 1.0001 0 0 0 23 8.0996094 L 23 7 C 23 5.3549936 21.645006 4 20 4 L 4 4 z M 4 6 L 20 6 C 20.564128 6 21 6.4358718 21 7 L 21 7.6542969 C 20.151175 8.2320861 19.564453 9.0819536 19.564453 10.017578 C 19.564453 10.953203 20.151175 11.805023 21 12.382812 L 21 14 L 3 14 L 3 12.345703 C 3.8488254 11.767914 4.4355469 10.918047 4.4355469 9.9824219 C 4.4355469 9.0467971 3.8488254 8.1949768 3 7.6171875 L 3 7 C 3 6.4358718 3.4358718 6 4 6 z M 8 8 A 1 1 0 0 0 7 9 L 7 11 A 1 1 0 0 0 8 12 A 1 1 0 0 0 9 11 L 9 9 A 1 1 0 0 0 8 8 z M 12 8 A 1 1 0 0 0 11 9 L 11 11 A 1 1 0 0 0 12 12 A 1 1 0 0 0 13 11 L 13 9 A 1 1 0 0 0 12 8 z M 16 8 A 1 1 0 0 0 15 9 L 15 11 A 1 1 0 0 0 16 12 A 1 1 0 0 0 17 11 L 17 9 A 1 1 0 0 0 16 8 z M 3 16 L 5 16 L 5 18 L 4 18 C 3.4358718 18 3 17.564128 3 17 L 3 16 z M 7 16 L 9 16 L 9 18 L 7 18 L 7 16 z M 11 16 L 13 16 L 13 18 L 11 18 L 11 16 z M 15 16 L 17 16 L 17 18 L 15 18 L 15 16 z M 19 16 L 21 16 L 21 17 C 21 17.564128 20.564128 18 20 18 L 19 18 L 19 16 z "/>
</svg>
