<svg xmlns="http://www.w3.org/2000/svg" xmlns:svg="http://www.w3.org/2000/svg" width="24" height="24" viewBox="0 0 24 24" fill="currentColor" tags="bars,navigation,hamburger,options" categories="layout,account">
  <path d="M 4 4 A 1 1 0 0 0 3 5 A 1 1 0 0 0 4 6 L 20 6 A 1 1 0 0 0 21 5 A 1 1 0 0 0 20 4 L 4 4 z M 4 11 A 1 1 0 0 0 3 12 A 1 1 0 0 0 4 13 L 20 13 A 1 1 0 0 0 21 12 A 1 1 0 0 0 20 11 L 4 11 z M 4 18 A 1 1 0 0 0 3 19 A 1 1 0 0 0 4 20 L 20 20 A 1 1 0 0 0 21 19 A 1 1 0 0 0 20 18 L 4 18 z "/>
</svg>
