<?xml version="1.0" encoding="UTF-8" standalone="no"?>
<svg xmlns="http://www.w3.org/2000/svg" xmlns:svg="http://www.w3.org/2000/svg" width="24" height="24" viewBox="0 0 24 24" fill="currentColor" tags="combine,join,unite" categories="development,arrows">
  <path d="M 12 1 A 1.0001 1.0001 0 0 0 11.666016 1.0664062 A 1 1 0 0 0 11.576172 1.1035156 A 1.0001 1.0001 0 0 0 11.292969 1.2929688 L 7.2929688 5.2929688 A 1 1 0 0 0 7.2929688 6.7070312 A 1 1 0 0 0 8.7070312 6.7070312 L 11 4.4140625 L 11 12.300781 A 1.0001 1.0001 0 0 0 11 12.310547 C 11.0087 13.117963 10.692189 13.894014 10.121094 14.464844 L 3.2929688 21.292969 A 1 1 0 0 0 3.2929688 22.707031 A 1 1 0 0 0 4.7070312 22.707031 L 11.535156 15.878906 C 12.486205 14.9283 13.014427 13.633657 13 12.289062 L 13 4.4140625 L 15.292969 6.7070312 A 1 1 0 0 0 16.707031 6.7070312 A 1 1 0 0 0 16.707031 5.2929688 L 12.707031 1.2929688 A 1.0001 1.0001 0 0 0 12.691406 1.28125 A 1 1 0 0 0 12.5 1.1347656 A 1.0001 1.0001 0 0 0 12.492188 1.1308594 A 1 1 0 0 0 12.257812 1.0351562 A 1.0001 1.0001 0 0 0 12.251953 1.0351562 A 1 1 0 0 0 12 1 z M 15 16 A 1 1 0 0 0 14.292969 16.292969 A 1 1 0 0 0 14.292969 17.707031 L 19.292969 22.707031 A 1 1 0 0 0 20.707031 22.707031 A 1 1 0 0 0 20.707031 21.292969 L 15.707031 16.292969 A 1 1 0 0 0 15 16 z "/>
</svg>
