<?xml version="1.0" encoding="UTF-8" standalone="no"?>
<svg xmlns="http://www.w3.org/2000/svg" xmlns:svg="http://www.w3.org/2000/svg" width="24" height="24" viewBox="0 0 24 24" fill="currentColor" tags="comment,chat,conversation,dialog,feedback,speech bubble,clear,close,delete,remove,cancel,silence,mute,moderate" categories="social">
  <path d="M 2 1 A 1 1 0 0 0 1.2929688 1.2929688 A 1 1 0 0 0 1.2929688 2.7070312 L 4.2324219 5.6464844 C 1.9824429 8.5037298 1.3930654 12.488478 2.9550781 15.970703 L 1.0507812 21.683594 A 1.0001 1.0001 0 0 0 2.3164062 22.949219 L 8.0234375 21.046875 C 11.42233 22.611243 15.416818 22.08975 18.275391 19.689453 L 21.292969 22.707031 A 1 1 0 0 0 22.707031 22.707031 A 1 1 0 0 0 22.707031 21.292969 L 19.019531 17.605469 A 1 1 0 0 0 18.994141 17.580078 L 6.3203125 4.90625 A 1 1 0 0 0 6.2929688 4.8789062 L 2.7070312 1.2929688 A 1 1 0 0 0 2 1 z M 11.664062 2.0273438 C 10.719857 2.0571746 9.753029 2.2257996 8.78125 2.5527344 A 1 1 0 0 0 8.1523438 3.8183594 A 1 1 0 0 0 9.4179688 4.4472656 C 15.74606 2.3183116 21.681688 8.2539403 19.552734 14.582031 A 1 1 0 0 0 20.181641 15.847656 A 1 1 0 0 0 21.447266 15.21875 C 23.735809 8.4162968 18.273494 1.8185275 11.664062 2.0273438 z M 5.6582031 7.0722656 L 16.855469 18.269531 C 14.476818 20.190333 11.184759 20.555075 8.46875 19.117188 A 1.0001 1.0001 0 0 0 7.6835938 19.050781 L 3.5820312 20.417969 L 4.9492188 16.316406 A 1.0001 1.0001 0 0 0 4.8886719 15.542969 C 3.4565574 12.758302 3.8849422 9.4554391 5.6582031 7.0722656 z "/>
</svg>
