<?xml version="1.0" encoding="UTF-8" standalone="no"?>
<svg xmlns="http://www.w3.org/2000/svg" xmlns:svg="http://www.w3.org/2000/svg" width="24" height="24" viewBox="0 0 24 24" fill="currentColor" tags="comment,chat,conversation,dialog,feedback,speech bubble,draft" categories="social">
  <path d="M 5 2 C 3.3549904 2 2 3.3549904 2 5 A 1 1 0 0 0 3 6 A 1 1 0 0 0 4 5 C 4 4.4358706 4.4358706 4 5 4 A 1 1 0 0 0 6 3 A 1 1 0 0 0 5 2 z M 9 2 A 1 1 0 0 0 8 3 A 1 1 0 0 0 9 4 L 10 4 A 1 1 0 0 0 11 3 A 1 1 0 0 0 10 2 L 9 2 z M 14 2 A 1 1 0 0 0 13 3 A 1 1 0 0 0 14 4 L 15 4 A 1 1 0 0 0 16 3 A 1 1 0 0 0 15 2 L 14 2 z M 19 2 A 1 1 0 0 0 18 3 A 1 1 0 0 0 19 4 C 19.564129 4 20 4.4358706 20 5 A 1 1 0 0 0 21 6 A 1 1 0 0 0 22 5 C 22 3.3549904 20.64501 2 19 2 z M 3 8 A 1 1 0 0 0 2 9 L 2 10 A 1 1 0 0 0 3 11 A 1 1 0 0 0 4 10 L 4 9 A 1 1 0 0 0 3 8 z M 21 8 A 1 1 0 0 0 20 9 L 20 10 A 1 1 0 0 0 21 11 A 1 1 0 0 0 22 10 L 22 9 A 1 1 0 0 0 21 8 z M 3 13 A 1 1 0 0 0 2 14 L 2 21 A 1.0001 1.0001 0 0 0 3.7070312 21.707031 L 7.4140625 18 L 10 18 A 1 1 0 0 0 11 17 A 1 1 0 0 0 10 16 L 7 16 A 1.0001 1.0001 0 0 0 6.2929688 16.292969 L 4 18.585938 L 4 14 A 1 1 0 0 0 3 13 z M 21 13 A 1 1 0 0 0 20 14 L 20 15 C 20 15.564129 19.564129 16 19 16 A 1 1 0 0 0 18 17 A 1 1 0 0 0 19 18 C 20.64501 18 22 16.64501 22 15 L 22 14 A 1 1 0 0 0 21 13 z M 14 16 A 1 1 0 0 0 13 17 A 1 1 0 0 0 14 18 L 15 18 A 1 1 0 0 0 16 17 A 1 1 0 0 0 15 16 L 14 16 z "/>
</svg>
