<?xml version="1.0" encoding="UTF-8" standalone="no"?>
<svg xmlns="http://www.w3.org/2000/svg" xmlns:svg="http://www.w3.org/2000/svg" width="24" height="24" viewBox="0 0 24 24" fill="currentColor" tags="comment,chat,conversation,dialog,feedback,speech bubbles,copy,multiple" categories="social">
  <path d="M 4 1 C 2.3549904 1 1 2.3549904 1 4 L 1 15 A 1.0001 1.0001 0 0 0 2.7070312 15.707031 L 6.4140625 12 L 12 12 C 13.64501 12 15 10.64501 15 9 L 15 4 C 15 2.3549904 13.64501 1 12 1 L 4 1 z M 4 3 L 12 3 C 12.564129 3 13 3.4358706 13 4 L 13 9 C 13 9.5641294 12.564129 10 12 10 L 6 10 A 1.0001 1.0001 0 0 0 5.2929688 10.292969 L 3 12.585938 L 3 4 C 3 3.4358706 3.4358706 3 4 3 z M 18 8 A 1 1 0 0 0 17 9 A 1 1 0 0 0 18 10 L 20 10 C 20.564129 10 21 10.435871 21 11 L 21 19.585938 L 18.707031 17.292969 A 1.0001 1.0001 0 0 0 18 17 L 12 17 C 11.435871 17 11 16.564129 11 16 L 11 15 A 1 1 0 0 0 10 14 A 1 1 0 0 0 9 15 L 9 16 C 9 17.64501 10.35499 19 12 19 L 17.585938 19 L 21.292969 22.707031 A 1.0001 1.0001 0 0 0 23 22 L 23 11 C 23 9.3549904 21.64501 8 20 8 L 18 8 z "/>
</svg>
