<svg xmlns="http://www.w3.org/2000/svg" xmlns:svg="http://www.w3.org/2000/svg" width="24" height="24" viewBox="0 0 24 24" fill="currentColor" tags="comment,chat,conversation,dialog,feedback,speech bubble,draft" categories="social">
  <path d="M 4 2 C 2.3549904 2 1 3.3549904 1 5 L 1 6 A 1 1 0 0 0 2 7 A 1 1 0 0 0 3 6 L 3 5 C 3 4.4358706 3.4358706 4 4 4 A 1 1 0 0 0 5 3 A 1 1 0 0 0 4 2 z M 8 2 A 1 1 0 0 0 7 3 A 1 1 0 0 0 8 4 L 10 4 A 1 1 0 0 0 11 3 A 1 1 0 0 0 10 2 L 8 2 z M 14 2 A 1 1 0 0 0 13 3 A 1 1 0 0 0 14 4 L 16 4 A 1 1 0 0 0 17 3 A 1 1 0 0 0 16 2 L 14 2 z M 20 2 A 1 1 0 0 0 19 3 A 1 1 0 0 0 20 4 C 20.564129 4 21 4.4358706 21 5 L 21 6 A 1 1 0 0 0 22 7 A 1 1 0 0 0 23 6 L 23 5 C 23 3.3549904 21.64501 2 20 2 z M 2 9 A 1 1 0 0 0 1 10 L 1 12 A 1 1 0 0 0 2 13 A 1 1 0 0 0 3 12 L 3 10 A 1 1 0 0 0 2 9 z M 22 9 A 1 1 0 0 0 21 10 L 21 12 A 1 1 0 0 0 22 13 A 1 1 0 0 0 23 12 L 23 10 A 1 1 0 0 0 22 9 z M 2 15 A 1 1 0 0 0 1 16 L 1 21.285156 C 1.0000928 22.00437 1.471188 22.623554 2.0546875 22.865234 C 2.638187 23.106915 3.4113146 23.004608 3.9199219 22.496094 A 1.0001 1.0001 0 0 0 3.9199219 22.494141 L 5.0683594 21.345703 A 1 1 0 0 0 5.0683594 19.931641 A 1 1 0 0 0 3.6542969 19.931641 L 3 20.585938 L 3 16 A 1 1 0 0 0 2 15 z M 22 15 A 1 1 0 0 0 21 16 L 21 17 C 21 17.564129 20.564129 18 20 18 A 1 1 0 0 0 19 19 A 1 1 0 0 0 20 20 C 21.64501 20 23 18.64501 23 17 L 23 16 A 1 1 0 0 0 22 15 z M 8 18 A 1 1 0 0 0 7 19 A 1 1 0 0 0 8 20 L 10 20 A 1 1 0 0 0 11 19 A 1 1 0 0 0 10 18 L 8 18 z M 14 18 A 1 1 0 0 0 13 19 A 1 1 0 0 0 14 20 L 16 20 A 1 1 0 0 0 17 19 A 1 1 0 0 0 16 18 L 14 18 z "/>
</svg>
