<?xml version="1.0" encoding="UTF-8" standalone="no"?>
<svg xmlns="http://www.w3.org/2000/svg" xmlns:svg="http://www.w3.org/2000/svg" width="24" height="24" viewBox="0 0 24 24" fill="currentColor" tags="comment,chat,conversation,dialog,feedback,positive,like,love,interest,valentine,dating,date,speech bubble" categories="social">
  <path d="M 4 2 C 2.3549904 2 1 3.3549904 1 5 L 1 21.285156 C 1.0000928 22.00437 1.471188 22.623554 2.0546875 22.865234 C 2.638187 23.106915 3.4113146 23.004608 3.9199219 22.496094 A 1.0001 1.0001 0 0 0 3.9199219 22.494141 L 6.1210938 20.292969 C 6.308858 20.105148 6.5625462 20.000057 6.828125 20 L 20 20 C 21.64501 20 23 18.64501 23 17 L 23 5 C 23 3.3549904 21.64501 2 20 2 L 4 2 z M 4 4 L 20 4 C 20.564129 4 21 4.4358706 21 5 L 21 17 C 21 17.564129 20.564129 18 20 18 L 6.828125 18 C 6.0329246 18.00017 5.2692379 18.31653 4.7070312 18.878906 L 3 20.585938 L 3 5 C 3 4.4358706 3.4358706 4 4 4 z M 9.9179688 6.0039062 C 9.5665349 6.0115606 9.2192449 6.0707986 8.8925781 6.1796875 C 7.585911 6.6152432 6.5 7.874393 6.5 9.5 C 6.5 10.444157 6.8309276 11.348789 7.4667969 12.027344 L 10.431641 15.242188 C 10.6381 15.494252 10.901061 15.696292 11.197266 15.832031 A 1.0001 1.0001 0 0 0 11.226562 15.84375 C 11.72755 16.053888 12.294154 16.051171 12.792969 15.835938 A 1.0001 1.0001 0 0 0 12.820312 15.824219 C 13.109666 15.688482 13.365917 15.489508 13.568359 15.242188 L 16.537109 12.021484 A 1.0001 1.0001 0 0 0 16.550781 12.007812 C 17.164365 11.316256 17.501867 10.422552 17.5 9.4980469 C 17.499095 7.8734221 16.413545 6.6150618 15.107422 6.1796875 C 14.08674 5.8394602 12.947736 6.14917 12 6.8476562 C 11.658905 6.5962676 11.359481 6.2494283 10.970703 6.1386719 C 10.624981 6.040181 10.269403 5.9962519 9.9179688 6.0039062 z M 9.9667969 7.9882812 C 10.114646 7.9800147 10.262526 7.9945263 10.40625 8.0332031 C 10.693697 8.1105571 10.966142 8.2888399 11.199219 8.5996094 A 1.0001 1.0001 0 0 0 12.800781 8.5996094 C 13.266935 7.9780705 13.891656 7.8818541 14.474609 8.0761719 C 15.057563 8.2704896 15.5 8.7230764 15.5 9.5 A 1.0001 1.0001 0 0 0 15.5 9.5019531 C 15.500876 9.9357605 15.342222 10.352968 15.054688 10.677734 L 15.054688 10.679688 L 12.058594 13.929688 A 1.0001 1.0001 0 0 0 12.019531 13.974609 L 12.017578 13.976562 L 12.015625 13.978516 C 12.010887 13.982555 12.004845 13.986124 12 13.990234 C 11.995125 13.986109 11.987152 13.980602 11.982422 13.976562 L 11.980469 13.974609 A 1.0001 1.0001 0 0 0 11.941406 13.929688 L 8.9316406 10.666016 A 1.0001 1.0001 0 0 0 8.9257812 10.660156 C 8.6976512 10.416751 8.5 9.9298433 8.5 9.5 C 8.5 8.7230764 8.9424373 8.2704896 9.5253906 8.0761719 C 9.671129 8.0275924 9.8189475 7.9965478 9.9667969 7.9882812 z "/>
</svg>
