<?xml version="1.0" encoding="UTF-8" standalone="no"?>
<svg xmlns="http://www.w3.org/2000/svg" xmlns:svg="http://www.w3.org/2000/svg" width="24" height="24" viewBox="0 0 24 24" fill="currentColor" tags="comment,chat,conversation,dialog,feedback,speech bubble,secure,encrypted" categories="social">
  <path d="M 5 2 C 3.3549904 2 2 3.3549904 2 5 L 2 21 A 1.0001 1.0001 0 0 0 3.7070312 21.707031 L 7.4140625 18 L 9 18 A 1 1 0 0 0 10 17 A 1 1 0 0 0 9 16 L 7 16 A 1.0001 1.0001 0 0 0 6.2929688 16.292969 L 4 18.585938 L 4 5 C 4 4.4358706 4.4358706 4 5 4 L 19 4 C 19.564129 4 20 4.4358706 20 5 L 20 8.5 A 1 1 0 0 0 21 9.5 A 1 1 0 0 0 22 8.5 L 22 5 C 22 3.3549904 20.64501 2 19 2 L 5 2 z M 17 10 C 16.277778 10 15.542119 10.235347 14.960938 10.751953 C 14.379755 11.268559 14 12.083334 14 13 L 14 14 C 12.909297 14 12 14.909297 12 16 L 12 19 C 12 20.090703 12.909297 21 14 21 L 20 21 C 21.090703 21 22 20.090703 22 19 L 22 16 C 22 14.909297 21.090703 14 20 14 L 20 13 C 20 12.083334 19.620244 11.268559 19.039062 10.751953 C 18.457881 10.235347 17.722222 10 17 10 z M 17 12 C 17.277778 12 17.542119 12.09799 17.710938 12.248047 C 17.879756 12.398107 18 12.583334 18 13 L 18 14 L 16 14 L 16 13 C 16 12.583334 16.120244 12.398107 16.289062 12.248047 C 16.457881 12.097986 16.722222 12 17 12 z M 14 16 L 15 16 L 19 16 L 20 16 L 20 19 L 14 19 L 14 16 z "/>
</svg>
