<svg xmlns="http://www.w3.org/2000/svg" xmlns:svg="http://www.w3.org/2000/svg" width="24" height="24" viewBox="0 0 24 24" fill="currentColor" tags="unread,unresolved,comment,chat,conversation,dialog,feedback,speech bubble" categories="social,notifications">
  <path d="M 4 2 C 2.3549904 2 1 3.3549904 1 5 L 1 21.285156 C 1.0000928 22.00437 1.471188 22.623554 2.0546875 22.865234 C 2.638187 23.106915 3.4113146 23.004608 3.9199219 22.496094 A 1.0001 1.0001 0 0 0 3.9199219 22.494141 L 6.1210938 20.292969 C 6.308858 20.105148 6.5625462 20.000057 6.828125 20 L 20 20 C 21.64501 20 23 18.64501 23 17 L 23 12.300781 A 1 1 0 0 0 22 11.300781 A 1 1 0 0 0 21 12.300781 L 21 17 C 21 17.564129 20.564129 18 20 18 L 6.828125 18 C 6.0329246 18.00017 5.2692379 18.31653 4.7070312 18.878906 L 3 20.585938 L 3 5 C 3 4.4358706 3.4358706 4 4 4 L 12.699219 4 A 1 1 0 0 0 13.699219 3 A 1 1 0 0 0 12.699219 2 L 4 2 z M 19 2 C 16.802706 2 15 3.8027056 15 6 C 15 8.1972944 16.802706 10 19 10 C 21.197294 10 23 8.1972944 23 6 C 23 3.8027056 21.197294 2 19 2 z M 19 4 C 20.116414 4 21 4.8835859 21 6 C 21 7.1164141 20.116414 8 19 8 C 17.883586 8 17 7.1164141 17 6 C 17 4.8835859 17.883586 4 19 4 z "/>
</svg>
