<svg xmlns="http://www.w3.org/2000/svg" xmlns:svg="http://www.w3.org/2000/svg" width="24" height="24" viewBox="0 0 24 24" fill="currentColor" tags="comment,chat,conversation,dialog,feedback,speech bubble,clear,close,delete,remove,cancel,silence,mute,moderate" categories="social">
  <path d="M 2 1 A 1 1 0 0 0 1.2929688 1.2929688 A 1 1 0 0 0 1.2929688 2.7070312 L 1.6816406 3.0957031 C 1.2493688 3.6224942 0.99998722 4.2927753 1 5 L 1 21.25 C 0.9734902 21.987597 1.4534721 22.634268 2.0488281 22.880859 C 2.6441841 23.127451 3.440565 23.009074 3.9433594 22.46875 L 6.1210938 20.292969 C 6.308858 20.105148 6.5625462 20.000057 6.828125 20 L 18.585938 20 L 21.292969 22.707031 A 1 1 0 0 0 22.707031 22.707031 A 1 1 0 0 0 22.707031 21.292969 L 19.716797 18.302734 A 1 1 0 0 0 19.697266 18.283203 L 3.9746094 2.5605469 A 1 1 0 0 0 3.7988281 2.3847656 L 2.7070312 1.2929688 A 1 1 0 0 0 2 1 z M 8.65625 2 A 1 1 0 0 0 7.65625 3 A 1 1 0 0 0 8.65625 4 L 20 4 C 20.564129 4 21 4.4358706 21 5 L 21 16.34375 A 1 1 0 0 0 22 17.34375 A 1 1 0 0 0 23 16.34375 L 23 5 C 23 3.3549904 21.64501 2 20 2 L 8.65625 2 z M 3.1152344 4.5292969 L 16.585938 18 L 6.828125 18 C 6.0329246 18.00017 5.2692379 18.31653 4.7070312 18.878906 L 3 20.585938 L 3 5 C 2.9999969 4.8318004 3.0402228 4.6705424 3.1152344 4.5292969 z "/>
</svg>
