<?xml version="1.0" encoding="UTF-8" standalone="no"?>
<svg xmlns="http://www.w3.org/2000/svg" xmlns:svg="http://www.w3.org/2000/svg" width="24" height="24" viewBox="0 0 24 24" fill="currentColor" tags="comment,chat,conversation,dialog,feedback,positive,like,love,interest,valentine,dating,date,speech bubble" categories="social">
  <path d="M 5 2 C 3.3549904 2 2 3.3549904 2 5 L 2 21 A 1.0001 1.0001 0 0 0 3.7070312 21.707031 L 7.4140625 18 L 19 18 C 20.64501 18 22 16.64501 22 15 L 22 5 C 22 3.3549904 20.64501 2 19 2 L 5 2 z M 5 4 L 19 4 C 19.564129 4 20 4.4358706 20 5 L 20 15 C 20 15.564129 19.564129 16 19 16 L 7 16 A 1.0001 1.0001 0 0 0 6.2929688 16.292969 L 4 18.585938 L 4 5 C 4 4.4358706 4.4358706 4 5 4 z M 13.5 5.96875 C 12.970345 5.96875 12.502175 6.2777484 12.041016 6.5683594 C 11.442682 6.1684959 10.766874 5.9614773 10.140625 6.046875 C 9.4089593 6.1466478 8.7844639 6.5301045 8.3398438 7.0488281 C 7.8952234 7.5675517 7.6116971 8.2421514 7.625 8.9804688 C 7.6380305 9.7036688 7.9784981 10.463764 8.609375 11.023438 L 11.292969 13.707031 A 1.0001 1.0001 0 0 0 12.707031 13.707031 L 15.40625 11.007812 C 16.451008 9.9630536 16.394807 8.5290249 15.765625 7.4375 A 1 1 0 0 0 15.511719 6.8046875 C 15.508719 6.8016775 15.510805 6.7959677 15.507812 6.7929688 A 1 1 0 0 0 15.505859 6.7929688 A 1 1 0 0 0 14.796875 6.5019531 C 14.374198 6.2723077 13.970832 5.96875 13.5 5.96875 z M 13.5 7.9550781 C 13.712672 7.9550781 13.925617 8.039176 14.09375 8.2070312 C 14.423361 8.5366419 14.551729 9.0342088 13.992188 9.59375 L 12 11.585938 L 10.007812 9.59375 A 1.0001 1.0001 0 0 0 9.9511719 9.5410156 C 9.6743196 9.3037137 9.6283636 9.1319951 9.625 8.9453125 C 9.62164 8.7586299 9.703995 8.5328389 9.859375 8.3515625 C 10.014755 8.1702861 10.225155 8.0545243 10.410156 8.0292969 C 10.593475 8.0042989 10.770421 8.0265869 11.042969 8.2578125 L 11.292969 8.5078125 A 1.0001 1.0001 0 0 0 12.832031 8.3554688 L 12.939453 8.1933594 C 13.102779 8.0436721 13.299167 7.9550781 13.5 7.9550781 z "/>
</svg>
