<?xml version="1.0" encoding="UTF-8" standalone="no"?>
<svg xmlns="http://www.w3.org/2000/svg" xmlns:svg="http://www.w3.org/2000/svg" width="24" height="24" viewBox="0 0 24 24" fill="currentColor" tags="comment,chat,conversation,dialog,feedback,speech bubble,code review,coding" categories="development,social">
  <path d="M 4 2 C 2.3549904 2 1 3.3549904 1 5 L 1 21.285156 C 1.0000928 22.00437 1.471188 22.623554 2.0546875 22.865234 C 2.638187 23.106915 3.4113146 23.004608 3.9199219 22.496094 A 1.0001 1.0001 0 0 0 3.9199219 22.494141 L 6.1210938 20.292969 C 6.308858 20.105148 6.5625462 20.000057 6.828125 20 L 20 20 C 21.64501 20 23 18.64501 23 17 L 23 5 C 23 3.3549904 21.64501 2 20 2 L 4 2 z M 4 4 L 20 4 C 20.564129 4 21 4.4358706 21 5 L 21 17 C 21 17.564129 20.564129 18 20 18 L 6.828125 18 C 6.0329246 18.00017 5.2692379 18.31653 4.7070312 18.878906 L 3 20.585938 L 3 5 C 3 4.4358706 3.4358706 4 4 4 z M 10 7 A 1 1 0 0 0 9.2929688 7.2929688 L 6.2929688 10.292969 A 1.0001 1.0001 0 0 0 6.2929688 11.707031 L 9.2929688 14.707031 A 1 1 0 0 0 10.707031 14.707031 A 1 1 0 0 0 10.707031 13.292969 L 8.4140625 11 L 10.707031 8.7070312 A 1 1 0 0 0 10.707031 7.2929688 A 1 1 0 0 0 10 7 z M 14 7 A 1 1 0 0 0 13.292969 7.2929688 A 1 1 0 0 0 13.292969 8.7070312 L 15.585938 11 L 13.292969 13.292969 A 1 1 0 0 0 13.292969 14.707031 A 1 1 0 0 0 14.707031 14.707031 L 17.707031 11.707031 A 1.0001 1.0001 0 0 0 17.707031 10.292969 L 14.707031 7.2929688 A 1 1 0 0 0 14 7 z "/>
</svg>
