<?xml version="1.0" encoding="UTF-8" standalone="no"?>
<svg xmlns="http://www.w3.org/2000/svg" xmlns:svg="http://www.w3.org/2000/svg" width="24" height="24" viewBox="0 0 24 24" fill="currentColor" tags="comment,chat,conversation,dialog,feedback,speech bubble,help" categories="social">
  <path d="M 12.037109 1.9433594 C 9.8935932 1.957067 7.8112727 2.6789696 6.1191406 3.9101562 C 2.6308634 6.4482089 0.77777978 11.237365 2.9589844 16.056641 L 1.0527344 21.679688 A 1.0001 1.0001 0 0 0 2.3203125 22.947266 L 7.9433594 21.041016 C 12.762635 23.22222 17.551791 21.369137 20.089844 17.880859 C 22.716375 14.270978 23.032473 8.8801291 19.076172 4.9238281 C 17.098021 2.9456776 14.760317 2.0363999 12.466797 1.9492188 C 12.323452 1.9437699 12.18001 1.9424455 12.037109 1.9433594 z M 12.003906 3.8925781 C 12.116812 3.8909463 12.230434 3.8928684 12.34375 3.8964844 C 14.156811 3.9543394 16.015352 4.6911335 17.662109 6.3378906 C 20.955624 9.6314048 20.607817 13.770532 18.472656 16.705078 C 16.337495 19.639624 12.509784 21.240446 8.3554688 19.109375 A 1.0001 1.0001 0 0 0 7.578125 19.052734 L 3.5976562 20.402344 L 4.9472656 16.421875 A 1.0001 1.0001 0 0 0 4.890625 15.644531 C 2.7595542 11.490216 4.3603756 7.6625046 7.2949219 5.5273438 C 8.6704904 4.5264871 10.310324 3.9170561 12.003906 3.8925781 z M 11.9375 5.9960938 C 10.386527 5.9937517 8.7719547 6.889939 8.1464844 8.6679688 A 1 1 0 0 0 8.7578125 9.9433594 A 1 1 0 0 0 10.033203 9.3320312 C 10.439152 8.178038 11.348784 7.8675149 12.257812 8.0234375 C 13.16684 8.1793601 13.921744 8.7747353 13.919922 9.9980469 A 1.0001 1.0001 0 0 0 13.919922 10 C 13.919922 10.5 13.487227 11.003307 12.865234 11.417969 C 12.243242 11.83263 11.603516 12.050781 11.603516 12.050781 A 1 1 0 0 0 10.970703 13.316406 A 1 1 0 0 0 12.236328 13.949219 C 12.236328 13.949219 13.096602 13.66737 13.974609 13.082031 C 14.85221 12.496964 15.918932 11.50079 15.919922 10.001953 L 15.919922 10 C 15.922111 7.8470075 14.32219 6.3488728 12.595703 6.0527344 C 12.379824 6.0157053 12.159068 5.9964283 11.9375 5.9960938 z M 12 16 A 1 1 0 0 0 11 17 A 1 1 0 0 0 12 18 L 12.009766 18 A 1 1 0 0 0 13.009766 17 A 1 1 0 0 0 12.009766 16 L 12 16 z "/>
</svg>
