<?xml version="1.0" encoding="UTF-8" standalone="no"?>
<svg xmlns="http://www.w3.org/2000/svg" xmlns:svg="http://www.w3.org/2000/svg" width="24" height="24" viewBox="0 0 24 24" fill="currentColor" tags="comment,chat,conversation,dialog,feedback,speech bubble,draft" categories="social">
  <path d="M 4 2 C 2.3549904 2 1 3.3549904 1 5 A 1 1 0 0 0 2 6 A 1 1 0 0 0 3 5 C 3 4.4358706 3.4358706 4 4 4 A 1 1 0 0 0 5 3 A 1 1 0 0 0 4 2 z M 8 2 A 1 1 0 0 0 7 3 A 1 1 0 0 0 8 4 L 8.0097656 4 A 1 1 0 0 0 9.0097656 3 A 1 1 0 0 0 8.0097656 2 L 8 2 z M 12 2 A 1 1 0 0 0 11 3 A 1 1 0 0 0 12 4 L 12.009766 4 A 1 1 0 0 0 13.009766 3 A 1 1 0 0 0 12.009766 2 L 12 2 z M 16 2 A 1 1 0 0 0 15 3 A 1 1 0 0 0 16 4 L 16.009766 4 A 1 1 0 0 0 17.009766 3 A 1 1 0 0 0 16.009766 2 L 16 2 z M 20 2 A 1 1 0 0 0 19 3 A 1 1 0 0 0 20 4 C 20.564129 4 21 4.4358706 21 5 A 1 1 0 0 0 22 6 A 1 1 0 0 0 23 5 C 23 3.3549904 21.64501 2 20 2 z M 2 8 A 1 1 0 0 0 1 9 A 1 1 0 0 0 2 10 L 2.0097656 10 A 1 1 0 0 0 3.0097656 9 A 1 1 0 0 0 2.0097656 8 L 2 8 z M 22 8 A 1 1 0 0 0 21 9 A 1 1 0 0 0 22 10 L 22.009766 10 A 1 1 0 0 0 23.009766 9 A 1 1 0 0 0 22.009766 8 L 22 8 z M 2 12 A 1 1 0 0 0 1 13 A 1 1 0 0 0 2 14 L 2.0097656 14 A 1 1 0 0 0 3.0097656 13 A 1 1 0 0 0 2.0097656 12 L 2 12 z M 22 12 A 1 1 0 0 0 21 13 A 1 1 0 0 0 22 14 L 22.009766 14 A 1 1 0 0 0 23.009766 13 A 1 1 0 0 0 22.009766 12 L 22 12 z M 2 16 A 1 1 0 0 0 1 17 L 1 21.285156 C 1.0000928 22.00437 1.471188 22.623554 2.0546875 22.865234 C 2.638187 23.106915 3.4113146 23.004608 3.9199219 22.496094 A 1.0001 1.0001 0 0 0 3.9199219 22.494141 L 6.1210938 20.292969 C 6.308858 20.105148 6.5625462 20.000057 6.828125 20 L 8 20 A 1 1 0 0 0 9 19 A 1 1 0 0 0 8 18 L 6.828125 18 C 6.0329246 18.00017 5.2692379 18.31653 4.7070312 18.878906 L 3 20.585938 L 3 17 A 1 1 0 0 0 2 16 z M 22 16 A 1 1 0 0 0 21 17 C 21 17.564129 20.564129 18 20 18 A 1 1 0 0 0 19 19 A 1 1 0 0 0 20 20 C 21.64501 20 23 18.64501 23 17 A 1 1 0 0 0 22 16 z M 12 18 A 1 1 0 0 0 11 19 A 1 1 0 0 0 12 20 L 12.009766 20 A 1 1 0 0 0 13.009766 19 A 1 1 0 0 0 12.009766 18 L 12 18 z M 16 18 A 1 1 0 0 0 15 19 A 1 1 0 0 0 16 20 L 16.009766 20 A 1 1 0 0 0 17.009766 19 A 1 1 0 0 0 16.009766 18 L 16 18 z "/>
</svg>
