<?xml version="1.0" encoding="UTF-8" standalone="no"?>
<svg xmlns="http://www.w3.org/2000/svg" xmlns:svg="http://www.w3.org/2000/svg" width="24" height="24" viewBox="0 0 24 24" fill="currentColor" tags="comment,chat,conversation,dialog,feedback,speech bubble,reply,response" categories="social">
  <path d="M 12.53125 0.953125 C 10.035577 0.85171367 7.5845073 1.6386601 5.6054688 3.0507812 C 1.6726739 5.8569836 -0.49998498 11.228761 2.0625 16.671875 A 1 1 0 0 0 2.0625 16.710938 C 2.134569 16.892736 2.1471179 17.091904 2.1074219 17.283203 L 1.0703125 20.490234 A 1.0001 1.0001 0 0 0 1.0410156 20.597656 C 0.75013737 22.01193 2.1181021 23.303952 3.5136719 22.933594 A 1.0001 1.0001 0 0 0 3.5371094 22.927734 L 6.8808594 21.951172 C 7.0598676 21.918642 7.2437685 21.931444 7.4140625 21.996094 C 12.900787 24.518685 18.263264 22.260747 21.027344 18.285156 C 23.803026 14.292876 24.049112 8.4458725 19.728516 4.1777344 C 17.568217 2.0436653 15.026923 1.0545363 12.53125 0.953125 z M 12.404297 2.9042969 C 14.425201 2.9758919 16.492694 3.7922519 18.322266 5.5996094 C 21.981408 9.2143244 21.68916 13.830964 19.386719 17.142578 C 17.084278 20.454193 12.860791 22.33489 8.1914062 20.154297 A 1.0001 1.0001 0 0 0 8.1230469 20.126953 C 7.5974052 19.927386 7.0261141 19.878889 6.4746094 19.988281 A 1.0001 1.0001 0 0 0 6.3886719 20.009766 L 3.0078125 20.998047 L 4.0371094 17.816406 A 1.0001 1.0001 0 0 0 4.0625 17.724609 C 4.1911426 17.140201 4.1423985 16.52894 3.921875 15.972656 A 1 1 0 0 0 3.8769531 15.953125 A 1 1 0 0 0 3.8925781 15.908203 C 1.6551106 11.2658 3.4843356 7.0204558 6.7675781 4.6777344 C 8.4091994 3.5063736 10.383393 2.832702 12.404297 2.9042969 z M 10 8 A 1 1 0 0 0 9.2929688 8.2929688 L 6.3027344 11.283203 L 6.2929688 11.292969 A 1.0001 1.0001 0 0 0 6.25 11.341797 A 1 1 0 0 0 6.2128906 11.384766 A 1.0001 1.0001 0 0 0 6.1757812 11.439453 A 1 1 0 0 0 6.1386719 11.492188 A 1.0001 1.0001 0 0 0 6.1347656 11.5 A 1 1 0 0 0 6.078125 11.611328 A 1.0001 1.0001 0 0 0 6.0761719 11.617188 A 1 1 0 0 0 6.0351562 11.742188 A 1 1 0 0 0 6.0234375 11.794922 A 1.0001 1.0001 0 0 0 6 12 A 1.0001 1.0001 0 0 0 6.0234375 12.205078 A 1.0001 1.0001 0 0 0 6.0351562 12.257812 A 1 1 0 0 0 6.0761719 12.382812 A 1 1 0 0 0 6.078125 12.388672 A 1.0001 1.0001 0 0 0 6.1347656 12.5 A 1 1 0 0 0 6.1757812 12.560547 A 1.0001 1.0001 0 0 0 6.2128906 12.615234 A 1 1 0 0 0 6.25 12.658203 A 1.0001 1.0001 0 0 0 6.2929688 12.707031 A 1 1 0 0 0 6.3027344 12.716797 L 9.2929688 15.707031 A 1 1 0 0 0 10.707031 15.707031 A 1 1 0 0 0 10.707031 14.292969 L 9.4140625 13 L 15 13 C 15.564129 13 16 13.435871 16 14 L 16 15 A 1 1 0 0 0 17 16 A 1 1 0 0 0 18 15 L 18 14 C 18 12.35499 16.64501 11 15 11 L 9.4140625 11 L 10.707031 9.7070312 A 1 1 0 0 0 10.707031 8.2929688 A 1 1 0 0 0 10 8 z M 3 21 L 3 21.001953 L 2.9765625 21.007812 L 3 21 z "/>
</svg>
