<?xml version="1.0" encoding="UTF-8" standalone="no"?>
<svg xmlns="http://www.w3.org/2000/svg" xmlns:svg="http://www.w3.org/2000/svg" width="24" height="24" viewBox="0 0 24 24" fill="currentColor" tags="comment,chat,conversation,dialog,feedback,speech bubble,typing,writing,responding,ellipsis,etc,et cetera,...,…" categories="social">
  <path d="M 5 2 C 3.3549904 2 2 3.3549904 2 5 L 2 21 A 1.0001 1.0001 0 0 0 3.7070312 21.707031 L 7.4140625 18 L 19 18 C 20.64501 18 22 16.64501 22 15 L 22 5 C 22 3.3549904 20.64501 2 19 2 L 5 2 z M 5 4 L 19 4 C 19.564129 4 20 4.4358706 20 5 L 20 15 C 20 15.564129 19.564129 16 19 16 L 7 16 A 1.0001 1.0001 0 0 0 6.2929688 16.292969 L 4 18.585938 L 4 5 C 4 4.4358706 4.4358706 4 5 4 z M 8 9 A 1 1 0 0 0 7 10 A 1 1 0 0 0 8 11 L 8.0097656 11 A 1 1 0 0 0 9.0097656 10 A 1 1 0 0 0 8.0097656 9 L 8 9 z M 12 9 A 1 1 0 0 0 11 10 A 1 1 0 0 0 12 11 L 12.009766 11 A 1 1 0 0 0 13.009766 10 A 1 1 0 0 0 12.009766 9 L 12 9 z M 16 9 A 1 1 0 0 0 15 10 A 1 1 0 0 0 16 11 L 16.009766 11 A 1 1 0 0 0 17.009766 10 A 1 1 0 0 0 16.009766 9 L 16 9 z "/>
</svg>
