<?xml version="1.0" encoding="UTF-8" standalone="no"?>
<svg xmlns="http://www.w3.org/2000/svg" xmlns:svg="http://www.w3.org/2000/svg" width="24" height="24" viewBox="0 0 24 24" fill="currentColor" tags="comment,chat,conversation,dialog,feedback,positive,like,love,interest,valentine,dating,date,speech bubble" categories="social">
  <path d="M 12.037109 1.9433594 C 9.8935932 1.957067 7.8112727 2.6789696 6.1191406 3.9101562 C 2.6308634 6.4482089 0.77777978 11.237365 2.9589844 16.056641 L 1.0527344 21.679688 A 1.0001 1.0001 0 0 0 2.3203125 22.947266 L 7.9433594 21.041016 C 12.762635 23.22222 17.551791 21.369137 20.089844 17.880859 C 22.716375 14.270978 23.032473 8.8801291 19.076172 4.9238281 C 17.098021 2.9456776 14.760317 2.0363999 12.466797 1.9492188 C 12.323452 1.9437699 12.18001 1.9424455 12.037109 1.9433594 z M 12.003906 3.8925781 C 12.116812 3.8909463 12.230434 3.8928684 12.34375 3.8964844 C 14.156811 3.9543394 16.015352 4.6911335 17.662109 6.3378906 C 20.955624 9.6314048 20.607817 13.770532 18.472656 16.705078 C 16.337495 19.639624 12.509784 21.240446 8.3554688 19.109375 A 1.0001 1.0001 0 0 0 7.578125 19.052734 L 3.5976562 20.402344 L 4.9472656 16.421875 A 1.0001 1.0001 0 0 0 4.890625 15.644531 C 2.7595542 11.490216 4.3603756 7.6625046 7.2949219 5.5273438 C 8.6704904 4.5264871 10.310324 3.9170561 12.003906 3.8925781 z M 9.7890625 7.4609375 C 9.741006 7.4618083 9.6923705 7.4648973 9.6445312 7.46875 C 8.7087167 7.5441158 7.8973156 8.016399 7.3164062 8.6699219 C 6.735497 9.3234448 6.3616143 10.18485 6.3964844 11.123047 C 6.4304843 12.037832 6.9089089 12.986419 7.7929688 13.658203 L 11.353516 17.117188 A 1.0001 1.0001 0 0 0 12.748047 17.117188 L 16.347656 13.617188 A 1.0001 1.0001 0 0 0 16.357422 13.607422 C 17.871692 12.093152 17.801745 9.8734665 16.59375 8.53125 A 1 1 0 0 0 16.5 8.4863281 C 15.238084 7.2494031 13.268623 7.2147859 11.908203 8.2851562 C 11.251011 7.7666776 10.50991 7.4478762 9.7890625 7.4609375 z M 9.9335938 9.4570312 C 10.232629 9.4603053 10.540039 9.5715679 10.916016 9.9785156 A 1.0001 1.0001 0 0 0 11 10.058594 L 11.349609 10.359375 A 1.0001 1.0001 0 0 0 12.800781 10.199219 L 13.021484 9.90625 C 13.61318 9.3440982 14.51434 9.3403864 15.099609 9.9140625 A 1 1 0 0 0 15.126953 9.9140625 C 15.68751 10.56313 15.810621 11.326098 14.943359 12.193359 L 12.050781 15.005859 L 9.1464844 12.183594 A 1.0001 1.0001 0 0 0 9.0371094 12.091797 C 8.524861 11.719605 8.407229 11.390466 8.3945312 11.048828 C 8.3818335 10.70719 8.5334223 10.309812 8.8105469 9.9980469 C 9.0876715 9.6862817 9.4658704 9.4883814 9.8066406 9.4609375 C 9.8492369 9.457507 9.8908745 9.4565635 9.9335938 9.4570312 z "/>
</svg>
