<?xml version="1.0" encoding="UTF-8" standalone="no"?>
<svg xmlns="http://www.w3.org/2000/svg" xmlns:svg="http://www.w3.org/2000/svg" width="24" height="24" viewBox="0 0 24 24" fill="currentColor" tags="comment,chat,conversation,dialog,feedback,speech bubble,clear,close,delete,remove,cancel,silence,mute,moderate" categories="account,social">
  <path d="M 12.037109 1.9433594 C 9.8935966 1.9570672 7.8112693 2.678972 6.1191406 3.9101562 C 2.6308704 6.4482038 0.77778415 11.237373 2.9589844 16.056641 L 1.0527344 21.679688 A 1.0001 1.0001 0 0 0 2.3203125 22.947266 L 7.9433594 21.041016 C 12.762626 23.222215 17.551796 21.36913 20.089844 17.880859 C 22.71637 14.270985 23.032465 8.8801212 19.076172 4.9238281 C 17.098025 2.9456816 14.760313 2.0363998 12.466797 1.9492188 C 12.323452 1.9437699 12.18001 1.9424455 12.037109 1.9433594 z M 12.003906 3.8925781 C 12.116812 3.8909462 12.230434 3.8928684 12.34375 3.8964844 C 14.156807 3.9543393 16.015356 4.6911369 17.662109 6.3378906 C 20.955617 9.6313983 20.607813 13.770538 18.472656 16.705078 C 16.3375 19.639618 12.509776 21.240442 8.3554688 19.109375 A 1.0001 1.0001 0 0 0 7.578125 19.052734 L 3.5976562 20.402344 L 4.9472656 16.421875 A 1.0001 1.0001 0 0 0 4.890625 15.644531 C 2.7595585 11.490224 4.3603814 7.6625004 7.2949219 5.5273438 C 8.6704876 4.5264892 10.310327 3.9170563 12.003906 3.8925781 z M 9 8 A 1 1 0 0 0 8.2929688 8.2929688 A 1 1 0 0 0 8.2929688 9.7070312 L 10.585938 12 L 8.2929688 14.292969 A 1 1 0 0 0 8.2929688 15.707031 A 1 1 0 0 0 9.7070312 15.707031 L 12 13.414062 L 14.292969 15.707031 A 1 1 0 0 0 15.707031 15.707031 A 1 1 0 0 0 15.707031 14.292969 L 13.414062 12 L 15.707031 9.7070312 A 1 1 0 0 0 15.707031 8.2929688 A 1 1 0 0 0 15 8 A 1 1 0 0 0 14.292969 8.2929688 L 12 10.585938 L 9.7070312 8.2929688 A 1 1 0 0 0 9 8 z "/>
</svg>
