<?xml version="1.0" encoding="UTF-8" standalone="no"?>
<svg xmlns="http://www.w3.org/2000/svg" xmlns:svg="http://www.w3.org/2000/svg" width="24" height="24" viewBox="0 0 24 24" fill="currentColor" tags="comment,chat,conversation,dialog,feedback,speech bubble" categories="account,social">
  
  <path d="M 5 2 C 3.3549936 2 2 3.3549936 2 5 L 2 21 A 1.0001 1.0001 0 0 0 3.7070312 21.707031 L 7.4140625 18 L 19 18 C 20.645006 18 22 16.645006 22 15 L 22 5 C 22 3.3549936 20.645006 2 19 2 L 5 2 z M 5 4 L 19 4 C 19.564128 4 20 4.4358718 20 5 L 20 15 C 20 15.564128 19.564128 16 19 16 L 7 16 A 1.0001 1.0001 0 0 0 6.2929688 16.292969 L 4 18.585938 L 4 5 C 4 4.4358718 4.4358718 4 5 4 z M 7 7 A 1 1 0 0 0 6 8 A 1 1 0 0 0 7 9 L 13 9 A 1 1 0 0 0 14 8 A 1 1 0 0 0 13 7 L 7 7 z M 7 11 A 1 1 0 0 0 6 12 A 1 1 0 0 0 7 13 L 17 13 A 1 1 0 0 0 18 12 A 1 1 0 0 0 17 11 L 7 11 z "/>
</svg>
