<?xml version="1.0" encoding="UTF-8" standalone="no"?>
<svg xmlns="http://www.w3.org/2000/svg" xmlns:svg="http://www.w3.org/2000/svg" width="24" height="24" viewBox="0 0 24 24" fill="currentColor" tags="comment,chat,conversation,dialog,feedback,speech bubble,clear,close,delete,remove,cancel,silence,mute,moderate" categories="account,social">
  <path d="M 12.466797 1.9492188 C 10.173277 1.8620376 7.9240815 2.5968904 6.1191406 3.9101562 C 2.6308634 6.4482089 0.77777978 11.237365 2.9589844 16.056641 L 1.0527344 21.679688 A 1.0001 1.0001 0 0 0 2.3203125 22.947266 L 7.9433594 21.041016 C 12.762635 23.22222 17.551791 21.369137 20.089844 17.880859 C 22.716375 14.270978 23.032473 8.8801291 19.076172 4.9238281 C 17.098021 2.9456776 14.760317 2.0363999 12.466797 1.9492188 z M 12.34375 3.8964844 C 14.156811 3.9543394 16.015352 4.6911335 17.662109 6.3378906 C 20.955624 9.6314048 20.607817 13.770532 18.472656 16.705078 C 16.337495 19.639624 12.509784 21.240446 8.3554688 19.109375 A 1.0001 1.0001 0 0 0 7.578125 19.052734 L 3.5976562 20.402344 L 4.9472656 16.421875 A 1.0001 1.0001 0 0 0 4.890625 15.644531 C 2.7595542 11.490216 4.3603756 7.6625046 7.2949219 5.5273438 C 8.762195 4.4597633 10.530689 3.8386289 12.34375 3.8964844 z M 9 8 A 1 1 0 0 0 8.2929688 8.2929688 A 1 1 0 0 0 8.2929688 9.7070312 L 10.585938 12 L 8.2929688 14.292969 A 1 1 0 0 0 8.2929688 15.707031 A 1 1 0 0 0 9.7070312 15.707031 L 12 13.414062 L 14.292969 15.707031 A 1 1 0 0 0 15.707031 15.707031 A 1 1 0 0 0 15.707031 14.292969 L 13.414062 12 L 15.707031 9.7070312 A 1 1 0 0 0 15.707031 8.2929688 A 1 1 0 0 0 15 8 A 1 1 0 0 0 14.292969 8.2929688 L 12 10.585938 L 9.7070312 8.2929688 A 1 1 0 0 0 9 8 z "/>
</svg>
