<?xml version="1.0" encoding="UTF-8" standalone="no"?>
<svg xmlns="http://www.w3.org/2000/svg" xmlns:svg="http://www.w3.org/2000/svg" width="24" height="24" viewBox="0 0 24 24" fill="currentColor" tags="comment,chat,conversation,dialog,feedback,speech bubble,clear,close,delete,remove,cancel,silence,mute,moderate" categories="social">
  <path d="M 2 1 A 1 1 0 0 0 1.2929688 1.2929688 A 1 1 0 0 0 1.2929688 2.7070312 L 2.2832031 3.6972656 C 2.0916376 4.1031168 2 4.5552049 2 5 L 2 21 A 1.0001 1.0001 0 0 0 3.7070312 21.707031 L 7.4140625 18 L 16.585938 18 L 21.292969 22.707031 A 1 1 0 0 0 22.707031 22.707031 A 1 1 0 0 0 22.707031 21.292969 L 2.7070312 1.2929688 A 1 1 0 0 0 2 1 z M 9 2 A 1 1 0 0 0 8 3 A 1 1 0 0 0 9 4 L 19 4 C 19.564129 4 20 4.4358706 20 5 L 20 15 A 1 1 0 0 0 21 16 A 1 1 0 0 0 22 15 L 22 5 C 22 3.3549904 20.64501 2 19 2 L 9 2 z M 4 5.4140625 L 14.585938 16 L 7 16 A 1.0001 1.0001 0 0 0 6.2929688 16.292969 L 4 18.585938 L 4 5.4140625 z "/>
</svg>
