<?xml version="1.0" encoding="UTF-8" standalone="no"?>
<svg xmlns="http://www.w3.org/2000/svg" xmlns:svg="http://www.w3.org/2000/svg" width="24" height="24" viewBox="0 0 24 24" fill="currentColor" tags="comment,chat,conversation,dialog,feedback,speech bubble,reply,response" categories="social">
  <path d="M 5 2 C 3.3549904 2 2 3.3549904 2 5 L 2 21 A 1.0001 1.0001 0 0 0 3.7070312 21.707031 L 7.4140625 18 L 19 18 C 20.64501 18 22 16.64501 22 15 L 22 5 C 22 3.3549904 20.64501 2 19 2 L 5 2 z M 5 4 L 19 4 C 19.564129 4 20 4.4358706 20 5 L 20 15 C 20 15.564129 19.564129 16 19 16 L 7 16 A 1.0001 1.0001 0 0 0 6.2929688 16.292969 L 4 18.585938 L 4 5 C 4 4.4358706 4.4358706 4 5 4 z M 10 6 A 1 1 0 0 0 9.2929688 6.2929688 L 6.3027344 9.2832031 L 6.2929688 9.2929688 A 1.0001 1.0001 0 0 0 6.25 9.3417969 A 1 1 0 0 0 6.2128906 9.3847656 A 1.0001 1.0001 0 0 0 6.1757812 9.4394531 A 1 1 0 0 0 6.1386719 9.4921875 A 1.0001 1.0001 0 0 0 6.1347656 9.5 A 1 1 0 0 0 6.078125 9.6113281 A 1.0001 1.0001 0 0 0 6.0761719 9.6171875 A 1 1 0 0 0 6.0351562 9.7421875 A 1 1 0 0 0 6.0234375 9.7949219 A 1.0001 1.0001 0 0 0 6 10 A 1.0001 1.0001 0 0 0 6.0234375 10.205078 A 1.0001 1.0001 0 0 0 6.0351562 10.257812 A 1 1 0 0 0 6.0761719 10.382812 A 1 1 0 0 0 6.078125 10.388672 A 1.0001 1.0001 0 0 0 6.1347656 10.5 A 1 1 0 0 0 6.1757812 10.560547 A 1.0001 1.0001 0 0 0 6.2128906 10.615234 A 1 1 0 0 0 6.25 10.658203 A 1.0001 1.0001 0 0 0 6.2929688 10.707031 A 1 1 0 0 0 6.3027344 10.716797 L 9.2929688 13.707031 A 1 1 0 0 0 10.707031 13.707031 A 1 1 0 0 0 10.707031 12.292969 L 9.4140625 11 L 15 11 C 15.564129 11 16 11.435871 16 12 L 16 13 A 1 1 0 0 0 17 14 A 1 1 0 0 0 18 13 L 18 12 C 18 10.35499 16.64501 9 15 9 L 9.4140625 9 L 10.707031 7.7070312 A 1 1 0 0 0 10.707031 6.2929688 A 1 1 0 0 0 10 6 z "/>
</svg>
