<?xml version="1.0" encoding="UTF-8" standalone="no"?>
<svg xmlns="http://www.w3.org/2000/svg" xmlns:svg="http://www.w3.org/2000/svg" width="24" height="24" viewBox="0 0 24 24" fill="currentColor" tags="comment,chat,conversation,dialog,feedback,speech bubble,code review,coding" categories="development,account,social">
  <path d="M 5 2 C 3.3549936 2 2 3.3549936 2 5 L 2 21 A 1.0001 1.0001 0 0 0 3.7070312 21.707031 L 7.4140625 18 L 19 18 C 20.645006 18 22 16.645006 22 15 L 22 5 C 22 3.3549936 20.645006 2 19 2 L 5 2 z M 5 4 L 19 4 C 19.564128 4 20 4.4358718 20 5 L 20 15 C 20 15.564128 19.564128 16 19 16 L 7 16 A 1.0001 1.0001 0 0 0 6.2929688 16.292969 L 4 18.585938 L 4 5 C 4 4.4358718 4.4358718 4 5 4 z M 10.001953 6.5 A 1 1 0 0 0 9.21875 6.875 L 7.21875 9.375 A 1.0001 1.0001 0 0 0 7.21875 10.625 L 9.21875 13.125 A 1 1 0 0 0 10.625 13.28125 A 1 1 0 0 0 10.78125 11.875 L 9.28125 10 L 10.78125 8.125 A 1 1 0 0 0 10.625 6.71875 A 1 1 0 0 0 10.001953 6.5 z M 13.998047 6.5 A 1 1 0 0 0 13.375 6.71875 A 1 1 0 0 0 13.21875 8.125 L 14.71875 10 L 13.21875 11.875 A 1 1 0 0 0 13.375 13.28125 A 1 1 0 0 0 14.78125 13.125 L 16.78125 10.625 A 1.0001 1.0001 0 0 0 16.78125 9.375 L 14.78125 6.875 A 1 1 0 0 0 13.998047 6.5 z "/>
</svg>
