<?xml version="1.0" encoding="UTF-8" standalone="no"?>
<svg xmlns="http://www.w3.org/2000/svg" xmlns:svg="http://www.w3.org/2000/svg" width="24" height="24" viewBox="0 0 24 24" fill="currentColor" tags="comment,chat,conversation,dialog,feedback,speech bubbles,copy,multiple,discussion,interview,debate" categories="social">
  <path d="M 4 1 C 2.3549904 1 1 2.3549904 1 4 L 1 14.285156 C 1.0000928 15.00437 1.471188 15.623554 2.0546875 15.865234 C 2.638187 16.106915 3.4113146 16.004608 3.9199219 15.496094 A 1.0001 1.0001 0 0 0 3.9199219 15.494141 L 6.1210938 13.292969 C 6.308858 13.105148 6.5625462 13.000057 6.828125 13 L 14 13 C 15.64501 13 17 11.64501 17 10 L 17 4 C 17 2.3549904 15.64501 1 14 1 L 4 1 z M 4 3 L 14 3 C 14.564129 3 15 3.4358706 15 4 L 15 10 C 15 10.564129 14.564129 11 14 11 L 6.828125 11 C 6.0329246 11.00017 5.2692379 11.31653 4.7070312 11.878906 L 3 13.585938 L 3 4 C 3 3.4358706 3.4358706 3 4 3 z M 20 8 A 1 1 0 0 0 19 9 A 1 1 0 0 0 20 10 C 20.564129 10 21 10.435871 21 11 L 21 20.585938 L 19.292969 18.878906 C 18.730762 18.31653 17.967075 18.00017 17.171875 18 L 10 18 C 9.4358706 18 9 17.564129 9 17 L 9 16 A 1 1 0 0 0 8 15 A 1 1 0 0 0 7 16 L 7 17 C 7 18.64501 8.3549904 20 10 20 L 17.171875 20 C 17.437454 20.000057 17.691142 20.105148 17.878906 20.292969 L 20.080078 22.494141 A 1.0001 1.0001 0 0 0 20.080078 22.496094 C 20.588685 23.004608 21.361814 23.106915 21.945312 22.865234 C 22.528812 22.623507 22.999907 22.00437 23 21.285156 L 23 11 C 23 9.3549904 21.64501 8 20 8 z "/>
</svg>
