<?xml version="1.0" encoding="UTF-8" standalone="no"?>
<svg xmlns="http://www.w3.org/2000/svg" xmlns:svg="http://www.w3.org/2000/svg" width="24" height="24" viewBox="0 0 24 24" fill="currentColor" tags="comment,chat,conversation,dialog,feedback,speech bubble,reply,response" categories="account,social">
  
  <path d="M 5 2 C 3.3549936 2 2 3.3549936 2 5 L 2 21 A 1.0001 1.0001 0 0 0 3.7070312 21.707031 L 7.4140625 18 L 19 18 C 20.645006 18 22 16.645006 22 15 L 22 5 C 22 3.3549936 20.645006 2 19 2 L 5 2 z M 5 4 L 19 4 C 19.564128 4 20 4.4358718 20 5 L 20 15 C 20 15.564128 19.564128 16 19 16 L 7 16 A 1.0001 1.0001 0 0 0 6.2929688 16.292969 L 4 18.585938 L 4 5 C 4 4.4358718 4.4358718 4 5 4 z M 10 6 A 1 1 0 0 0 9.2929688 6.2929688 L 6.2929688 9.2929688 A 1.0001 1.0001 0 0 0 6.2363281 9.3671875 A 1 1 0 0 0 6.1699219 9.453125 A 1.0001 1.0001 0 0 0 6.0859375 9.6191406 A 1 1 0 0 0 6.0449219 9.7207031 A 1.0001 1.0001 0 0 0 6 10 A 1.0001 1.0001 0 0 0 6.0449219 10.279297 A 1 1 0 0 0 6.0859375 10.380859 A 1.0001 1.0001 0 0 0 6.1699219 10.546875 A 1 1 0 0 0 6.2363281 10.632812 A 1.0001 1.0001 0 0 0 6.2929688 10.707031 L 9.2929688 13.707031 A 1 1 0 0 0 10.707031 13.707031 A 1 1 0 0 0 10.707031 12.292969 L 9.4140625 11 L 15 11 C 15.564128 11 16 11.435872 16 12 L 16 13 A 1 1 0 0 0 17 14 A 1 1 0 0 0 18 13 L 18 12 C 18 10.354994 16.645006 9 15 9 L 9.4140625 9 L 10.707031 7.7070312 A 1 1 0 0 0 10.707031 6.2929688 A 1 1 0 0 0 10 6 z "/>
</svg>
