<svg xmlns="http://www.w3.org/2000/svg" xmlns:svg="http://www.w3.org/2000/svg" width="24" height="24" viewBox="0 0 24 24" fill="currentColor" tags="comment,chat,conversation,dialog,feedback,speech bubble,help" categories="social">
  <path d="M 12.53125 0.953125 C 10.035577 0.85171367 7.5845073 1.6386601 5.6054688 3.0507812 C 1.6726739 5.8569836 -0.49998498 11.228761 2.0625 16.671875 A 1 1 0 0 0 2.0625 16.710938 C 2.134569 16.892736 2.1471179 17.091904 2.1074219 17.283203 L 1.0703125 20.490234 A 1.0001 1.0001 0 0 0 1.0410156 20.597656 C 0.75013737 22.01193 2.1181021 23.303952 3.5136719 22.933594 A 1.0001 1.0001 0 0 0 3.5371094 22.927734 L 6.8808594 21.951172 C 7.0598676 21.918642 7.2437685 21.931444 7.4140625 21.996094 C 12.900787 24.518685 18.263264 22.260747 21.027344 18.285156 C 23.803026 14.292876 24.049112 8.4458725 19.728516 4.1777344 C 17.568217 2.0436653 15.026923 1.0545363 12.53125 0.953125 z M 12.404297 2.9042969 C 14.425201 2.9758919 16.492694 3.7922519 18.322266 5.5996094 C 21.981408 9.2143244 21.68916 13.830964 19.386719 17.142578 C 17.084278 20.454193 12.860791 22.33489 8.1914062 20.154297 A 1.0001 1.0001 0 0 0 8.1230469 20.126953 C 7.5974052 19.927386 7.0261141 19.878889 6.4746094 19.988281 A 1.0001 1.0001 0 0 0 6.3886719 20.009766 L 3.0078125 20.998047 L 4.0371094 17.816406 A 1.0001 1.0001 0 0 0 4.0625 17.724609 C 4.1911426 17.140201 4.1423985 16.52894 3.921875 15.972656 A 1 1 0 0 0 3.8769531 15.953125 A 1 1 0 0 0 3.8925781 15.908203 C 1.6551106 11.2658 3.4843356 7.0204558 6.7675781 4.6777344 C 8.4091994 3.5063736 10.383393 2.832702 12.404297 2.9042969 z M 11.9375 5.9960938 C 10.386527 5.9937517 8.7719547 6.889939 8.1464844 8.6679688 A 1 1 0 0 0 8.7578125 9.9433594 A 1 1 0 0 0 10.033203 9.3320312 C 10.439152 8.178038 11.348784 7.8675149 12.257812 8.0234375 C 13.16684 8.1793601 13.921744 8.7747353 13.919922 9.9980469 A 1.0001 1.0001 0 0 0 13.919922 10 C 13.919922 10.5 13.487227 11.003307 12.865234 11.417969 C 12.243242 11.83263 11.603516 12.050781 11.603516 12.050781 A 1 1 0 0 0 10.970703 13.316406 A 1 1 0 0 0 12.236328 13.949219 C 12.236328 13.949219 13.096602 13.66737 13.974609 13.082031 C 14.85221 12.496964 15.918932 11.50079 15.919922 10.001953 L 15.919922 10 C 15.922111 7.8470075 14.32219 6.3488728 12.595703 6.0527344 C 12.379824 6.0157053 12.159068 5.9964283 11.9375 5.9960938 z M 12 16 A 1 1 0 0 0 11 17 A 1 1 0 0 0 12 18 L 12.009766 18 A 1 1 0 0 0 13.009766 17 A 1 1 0 0 0 12.009766 16 L 12 16 z M 3 21 L 3 21.001953 L 2.9765625 21.007812 L 3 21 z "/>
</svg>
