<svg xmlns="http://www.w3.org/2000/svg" xmlns:svg="http://www.w3.org/2000/svg" width="24" height="24" viewBox="0 0 24 24" fill="currentColor" tags="comment,chat,conversation,dialog,feedback,speech bubble,draft" categories="social">
  <path d="M 12 1 C 11.300207 1 10.600414 1.0675895 9.9101562 1.2011719 A 1 1 0 0 0 9.1191406 2.3710938 A 1 1 0 0 0 10.289062 3.1640625 C 11.418594 2.9454696 12.581406 2.9454696 13.710938 3.1640625 A 1 1 0 0 0 14.880859 2.3710938 A 1 1 0 0 0 14.089844 1.2011719 C 13.399586 1.0675895 12.699793 1 12 1 z M 6.3515625 2.703125 A 1 1 0 0 0 5.8632812 2.8710938 C 4.6927458 3.6578953 3.6837177 4.6624702 2.8925781 5.8300781 A 1 1 0 0 0 3.1601562 7.21875 A 1 1 0 0 0 4.5488281 6.9511719 C 5.1961351 5.9958401 6.0207886 5.1750077 6.9785156 4.53125 A 1 1 0 0 0 7.25 3.1425781 A 1 1 0 0 0 6.3515625 2.703125 z M 17.550781 2.7226562 A 1 1 0 0 0 16.78125 3.1582031 A 1 1 0 0 0 17.048828 4.5488281 C 18.00416 5.1961351 18.824992 6.0207886 19.46875 6.9785156 A 1 1 0 0 0 20.857422 7.25 A 1 1 0 0 0 21.128906 5.8613281 C 20.342105 4.6907927 19.33753 3.6837177 18.169922 2.8925781 A 1 1 0 0 0 17.550781 2.7226562 z M 2.1113281 9.1035156 A 1 1 0 0 0 1.2011719 9.9101562 C 0.93400719 11.290672 0.93400719 12.709328 1.2011719 14.089844 A 1 1 0 0 0 2.3710938 14.880859 A 1 1 0 0 0 3.1640625 13.710938 C 2.9454696 12.581406 2.9454696 11.418593 3.1640625 10.289062 A 1 1 0 0 0 2.3710938 9.1191406 A 1 1 0 0 0 2.1113281 9.1035156 z M 21.757812 9.1035156 A 1 1 0 0 0 21.628906 9.1191406 A 1 1 0 0 0 20.835938 10.289062 C 21.05453 11.418594 21.05453 12.581406 20.835938 13.710938 A 1 1 0 0 0 21.628906 14.880859 A 1 1 0 0 0 22.798828 14.089844 C 23.065993 12.709328 23.065993 11.290672 22.798828 9.9101562 A 1 1 0 0 0 21.757812 9.1035156 z M 20.220703 16.609375 A 1 1 0 0 0 19.451172 17.048828 C 18.803865 18.00416 17.979211 18.826945 17.021484 19.470703 A 1 1 0 0 0 16.75 20.857422 A 1 1 0 0 0 18.138672 21.130859 C 19.309207 20.344058 20.316282 19.339483 21.107422 18.171875 A 1 1 0 0 0 20.841797 16.78125 A 1 1 0 0 0 20.220703 16.609375 z M 3.0390625 16.820312 A 1 1 0 0 0 2.0351562 17.509766 L 1.0703125 20.490234 A 1.0001 1.0001 0 0 0 1.0410156 20.595703 C 0.74840507 22.010652 2.1172084 23.304526 3.5136719 22.933594 A 1.0001 1.0001 0 0 0 3.5371094 22.927734 L 6.4433594 22.076172 A 1 1 0 0 0 7.1230469 20.835938 A 1 1 0 0 0 5.8828125 20.15625 L 3.0078125 20.998047 L 3.9375 18.126953 A 1 1 0 0 0 3.2949219 16.867188 A 1 1 0 0 0 3.0390625 16.820312 z M 10.029297 20.820312 A 1 1 0 0 0 9.1191406 21.628906 A 1 1 0 0 0 9.9101562 22.798828 C 11.290672 23.065993 12.709328 23.065993 14.089844 22.798828 A 1 1 0 0 0 14.880859 21.628906 A 1 1 0 0 0 13.710938 20.835938 C 12.581406 21.05453 11.418593 21.05453 10.289062 20.835938 A 1 1 0 0 0 10.029297 20.820312 z M 3 21 L 3 21.001953 L 2.9765625 21.007812 L 3 21 z "/>
</svg>
