<?xml version="1.0" encoding="UTF-8" standalone="no"?>
<svg xmlns="http://www.w3.org/2000/svg" xmlns:svg="http://www.w3.org/2000/svg" width="24" height="24" viewBox="0 0 24 24" fill="currentColor" tags="comment,chat,conversation,dialog,feedback,positive,like,love,interest,valentine,dating,date,speech bubble" categories="social">
  <path d="M 12.53125 0.953125 C 10.035577 0.85171367 7.5845073 1.6386601 5.6054688 3.0507812 C 1.6726739 5.8569836 -0.49998498 11.228761 2.0625 16.671875 A 1 1 0 0 0 2.0625 16.710938 C 2.134569 16.892736 2.1471179 17.091904 2.1074219 17.283203 L 1.0703125 20.490234 A 1.0001 1.0001 0 0 0 1.0410156 20.597656 C 0.75013737 22.01193 2.1181021 23.303952 3.5136719 22.933594 A 1.0001 1.0001 0 0 0 3.5371094 22.927734 L 6.8808594 21.951172 C 7.0598676 21.918642 7.2437685 21.931444 7.4140625 21.996094 C 12.900787 24.518685 18.263264 22.260747 21.027344 18.285156 C 23.803026 14.292876 24.049112 8.4458725 19.728516 4.1777344 C 17.568217 2.0436653 15.026923 1.0545363 12.53125 0.953125 z M 12.404297 2.9042969 C 14.425201 2.9758919 16.492694 3.7922519 18.322266 5.5996094 C 21.981408 9.2143244 21.68916 13.830964 19.386719 17.142578 C 17.084278 20.454193 12.860791 22.33489 8.1914062 20.154297 A 1.0001 1.0001 0 0 0 8.1230469 20.126953 C 7.5974052 19.927386 7.0261141 19.878889 6.4746094 19.988281 A 1.0001 1.0001 0 0 0 6.3886719 20.009766 L 3.0078125 20.998047 L 4.0371094 17.816406 A 1.0001 1.0001 0 0 0 4.0625 17.724609 C 4.1911426 17.140201 4.1423985 16.52894 3.921875 15.972656 A 1 1 0 0 0 3.8769531 15.953125 A 1 1 0 0 0 3.8925781 15.908203 C 1.6551106 11.2658 3.4843356 7.0204558 6.7675781 4.6777344 C 8.4091994 3.5063736 10.383393 2.832702 12.404297 2.9042969 z M 9.9765625 6.9550781 C 9.8758314 6.9532057 9.775571 6.9558919 9.6757812 6.9648438 C 8.6760811 7.0545243 7.7842969 7.530402 7.1230469 8.2128906 C 6.4617969 8.8953792 6.0150732 9.8026521 5.9570312 10.804688 C 5.8989892 11.806722 6.2699917 12.887782 7.1054688 13.761719 L 10.550781 17.378906 C 11.329367 18.197993 12.670145 18.19976 13.449219 17.380859 L 16.894531 13.761719 L 16.896484 13.759766 C 17.610031 13.012716 18.007142 12.017509 18.003906 10.984375 C 17.999106 9.2944888 16.964156 7.9352414 15.628906 7.3417969 C 14.529299 6.8531034 13.22447 7.0224309 12.080078 7.671875 C 11.405187 7.2388699 10.68168 6.9681853 9.9765625 6.9550781 z M 10.03125 8.9492188 C 10.442569 8.9496406 10.865859 9.0895387 11.332031 9.5078125 A 1.0001 1.0001 0 0 0 12.667969 9.5078125 C 13.338881 8.9055586 14.133601 8.8644996 14.816406 9.1679688 C 15.499212 9.4714377 16.00136 10.088666 16.003906 10.990234 C 16.005506 11.507769 15.806941 12.004902 15.449219 12.378906 A 1.0001 1.0001 0 0 0 15.447266 12.380859 L 12 16 L 8.5527344 12.380859 A 1.0001 1.0001 0 0 0 8.5507812 12.378906 C 8.0561527 11.861559 7.926021 11.387845 7.953125 10.919922 C 7.980229 10.451999 8.2044392 9.9730142 8.5605469 9.6054688 C 8.9166545 9.2379232 9.3886358 8.9989095 9.8554688 8.9570312 C 9.9138229 8.9517965 9.9724901 8.9491585 10.03125 8.9492188 z M 3 21 L 3 21.001953 L 2.9765625 21.007812 L 3 21 z "/>
</svg>
