<?xml version="1.0" encoding="UTF-8" standalone="no"?>
<svg xmlns="http://www.w3.org/2000/svg" xmlns:svg="http://www.w3.org/2000/svg" width="24" height="24" viewBox="0 0 24 24" fill="currentColor" tags="comment,chat,conversation,dialog,feedback,speech bubble,clear,close,delete,remove,cancel,silence,mute,moderate" categories="social">
  <path d="M 12.505859 0.99609375 C 12.105712 0.9779882 11.700899 0.9819752 11.292969 1.0097656 C 10.205154 1.0838734 9.0937837 1.3252729 7.9863281 1.7578125 A 1 1 0 0 0 7.4179688 3.0546875 A 1 1 0 0 0 8.7128906 3.6210938 C 12.403499 2.1796507 15.987679 3.2749147 18.353516 5.6425781 C 20.719352 8.0102415 21.813432 11.595662 20.369141 15.285156 A 1 1 0 0 0 20.935547 16.582031 A 1 1 0 0 0 22.230469 16.013672 C 23.964046 11.585186 22.643054 7.1062109 19.769531 4.2304688 C 17.883782 2.3432631 15.306892 1.1228326 12.505859 0.99609375 z M 2 1 A 1 1 0 0 0 1.2929688 1.2929688 A 1 1 0 0 0 1.2929688 2.7070312 L 3.546875 4.9609375 C 0.82531511 8.2279102 0.21872658 12.816882 2.0625 16.708984 C 2.134569 16.890782 2.1471179 17.089951 2.1074219 17.28125 L 1.0703125 20.490234 A 1.0001 1.0001 0 0 0 1.0410156 20.595703 C 0.75013737 22.009977 2.1181021 23.301999 3.5136719 22.931641 A 1.0001 1.0001 0 0 0 3.5371094 22.925781 L 6.875 21.949219 C 7.0418805 21.917833 7.2123175 21.927534 7.3730469 21.980469 C 11.251064 23.778344 15.797759 23.152952 19.039062 20.453125 L 21.292969 22.707031 A 1 1 0 0 0 22.707031 22.707031 A 1 1 0 0 0 22.707031 21.292969 L 2.7070312 1.2929688 A 1 1 0 0 0 2 1 z M 4.96875 6.3828125 L 17.617188 19.03125 C 14.966976 21.151087 11.318906 21.614898 8.1914062 20.154297 A 1.0001 1.0001 0 0 0 8.1230469 20.125 C 7.5974056 19.925437 7.0261141 19.876935 6.4746094 19.986328 A 1.0001 1.0001 0 0 0 6.3886719 20.007812 L 3.0078125 20.996094 L 4.0371094 17.816406 A 1.0001 1.0001 0 0 0 4.0625 17.722656 C 4.1911426 17.138248 4.142398 16.52894 3.921875 15.972656 A 1.0001 1.0001 0 0 0 3.8925781 15.90625 C 2.3767465 12.76023 2.824337 9.0629634 4.96875 6.3828125 z "/>
</svg>
