<svg xmlns="http://www.w3.org/2000/svg" xmlns:svg="http://www.w3.org/2000/svg" width="24" height="24" viewBox="0 0 24 24" fill="currentColor" tags="comment,chat,conversation,dialog,feedback,speech bubble,secure,encrypted" categories="social">
  <path d="M 4 2 C 2.3549904 2 1 3.3549904 1 5 L 1 21.285156 C 1.0000928 22.00437 1.471188 22.623554 2.0546875 22.865234 C 2.638187 23.106915 3.4113146 23.004608 3.9199219 22.496094 A 1.0001 1.0001 0 0 0 3.9199219 22.494141 L 6.1210938 20.292969 C 6.308858 20.105148 6.5625462 20.000057 6.828125 20 L 10 20 A 1 1 0 0 0 11 19 A 1 1 0 0 0 10 18 L 6.828125 18 C 6.0329246 18.00017 5.2692379 18.31653 4.7070312 18.878906 L 3 20.585938 L 3 5 C 3 4.4358706 3.4358706 4 4 4 L 20 4 C 20.564129 4 21 4.4358706 21 5 L 21 8.5 A 1 1 0 0 0 22 9.5 A 1 1 0 0 0 23 8.5 L 23 5 C 23 3.3549904 21.64501 2 20 2 L 4 2 z M 18 10 C 17.277778 10 16.542119 10.235347 15.960938 10.751953 C 15.379755 11.268559 15 12.083334 15 13 L 15 14 C 13.909297 14 13 14.909297 13 16 L 13 19 C 13 20.090703 13.909297 21 15 21 L 21 21 C 22.090703 21 23 20.090703 23 19 L 23 16 C 23 14.909297 22.090703 14 21 14 L 21 13 C 21 12.083334 20.620244 11.268559 20.039062 10.751953 C 19.457881 10.235347 18.722222 10 18 10 z M 18 12 C 18.277778 12 18.542119 12.09799 18.710938 12.248047 C 18.879756 12.398107 19 12.583334 19 13 L 19 14 L 17 14 L 17 13 C 17 12.583334 17.120244 12.398107 17.289062 12.248047 C 17.457881 12.097986 17.722222 12 18 12 z M 15 16 L 16 16 L 20 16 L 21 16 L 21 19 L 15 19 L 15 16 z "/>
</svg>
