<?xml version="1.0" encoding="UTF-8" standalone="no"?>
<svg xmlns="http://www.w3.org/2000/svg" xmlns:svg="http://www.w3.org/2000/svg" width="24" height="24" viewBox="0 0 24 24" fill="currentColor" tags="comment,chat,conversation,dialog,feedback,speech bubble,draft" categories="social">
  <path d="M 12 2 C 11.366667 2 10.866667 2.0996094 10.5 2.0996094 A 1 1 0 0 0 9.5 3.0996094 A 1 1 0 0 0 10.5 4.0996094 C 11.133333 4.0996098 11.633333 4 12 4 C 12.366667 4 12.866667 4.0996094 13.5 4.0996094 A 1 1 0 0 0 14.5 3.0996094 A 1 1 0 0 0 13.5 2.0996094 C 13.133333 2.0996098 12.633333 2 12 2 z M 6.8105469 3.7011719 A 1 1 0 0 0 6.2011719 3.9003906 C 5.3285566 4.5539206 4.5539206 5.3285566 3.9003906 6.2011719 A 1 1 0 0 0 4.0996094 7.5996094 A 1 1 0 0 0 5.5 7.4003906 C 6.0393789 6.6801936 6.6801936 6.0393789 7.4003906 5.5 A 1 1 0 0 0 7.5996094 4.0996094 A 1 1 0 0 0 6.8105469 3.7011719 z M 17.189453 3.7011719 A 1 1 0 0 0 17.058594 3.7109375 A 1 1 0 0 0 16.400391 4.0996094 A 1 1 0 0 0 16.599609 5.5 C 17.319806 6.0393789 17.960621 6.6801936 18.5 7.4003906 A 1 1 0 0 0 19.900391 7.5996094 A 1 1 0 0 0 20.099609 6.2011719 C 19.446079 5.3285566 18.671443 4.5539206 17.798828 3.9003906 A 1 1 0 0 0 17.189453 3.7011719 z M 3.0996094 9.5 A 1 1 0 0 0 2.0996094 10.5 C 2.0996094 10.866667 2 11.366667 2 12 C 2 12.633333 2.0996094 13.133333 2.0996094 13.5 A 1 1 0 0 0 3.0996094 14.5 A 1 1 0 0 0 4.0996094 13.5 C 4.0996098 12.866667 4 12.366667 4 12 C 4 11.633333 4.0996094 11.133333 4.0996094 10.5 A 1 1 0 0 0 3.0996094 9.5 z M 20.900391 9.5 A 1 1 0 0 0 19.900391 10.5 C 19.900391 11.133333 20 11.633333 20 12 C 20 12.5 19.994802 12.930402 19.919922 13.304688 A 1 1 0 0 0 20.703125 14.480469 A 1 1 0 0 0 21.880859 13.695312 C 22.006003 13.069596 22 12.5 22 12 C 22 11.366667 21.900391 10.866667 21.900391 10.5 A 1 1 0 0 0 20.900391 9.5 z M 19.289062 16.199219 A 1 1 0 0 0 18.5 16.599609 C 17.960621 17.319806 17.319806 17.960621 16.599609 18.5 A 1 1 0 0 0 16.400391 19.900391 A 1 1 0 0 0 17.798828 20.099609 C 18.671443 19.446079 19.446079 18.671443 20.099609 17.798828 A 1 1 0 0 0 19.900391 16.400391 A 1 1 0 0 0 19.289062 16.199219 z M 3.4296875 16.501953 A 1 1 0 0 0 2.5507812 17.183594 L 1.0507812 21.683594 A 1.0001 1.0001 0 0 0 2.3164062 22.949219 L 6.8164062 21.449219 A 1 1 0 0 0 7.4492188 20.183594 A 1 1 0 0 0 6.1835938 19.550781 L 3.5820312 20.417969 L 4.4492188 17.816406 A 1 1 0 0 0 3.8164062 16.550781 A 1 1 0 0 0 3.4296875 16.501953 z M 13.5 19.900391 C 12.866667 19.900391 12.366667 20 12 20 C 11.5 20 11.069596 19.994802 10.695312 19.919922 A 1 1 0 0 0 9.5195312 20.703125 A 1 1 0 0 0 10.304688 21.880859 C 10.930402 22.006004 11.5 22 12 22 C 12.633333 22 13.133333 21.900391 13.5 21.900391 A 1 1 0 0 0 14.5 20.900391 A 1 1 0 0 0 13.5 19.900391 z "/>
</svg>
