<?xml version="1.0" encoding="UTF-8" standalone="no"?>
<svg xmlns="http://www.w3.org/2000/svg" xmlns:svg="http://www.w3.org/2000/svg" width="24" height="24" viewBox="0 0 24 24" fill="currentColor" tags="comment,chat,conversation,dialog,feedback,speech bubble,network,forward" categories="social">
  <path d="M 5 2 C 3.3549904 2 2 3.3549904 2 5 L 2 21 A 1.0001 1.0001 0 0 0 3.7070312 21.707031 L 7.4140625 18 L 19 18 C 20.64501 18 22 16.64501 22 15 L 22 12 A 1 1 0 0 0 21 11 A 1 1 0 0 0 20 12 L 20 15 C 20 15.564129 19.564129 16 19 16 L 7 16 A 1.0001 1.0001 0 0 0 6.2929688 16.292969 L 4 18.585938 L 4 5 C 4 4.4358706 4.4358706 4 5 4 L 12 4 A 1 1 0 0 0 13 3 A 1 1 0 0 0 12 2 L 5 2 z M 16 2 A 1 1 0 0 0 15 3 A 1 1 0 0 0 16 4 L 18.585938 4 L 15.292969 7.2929688 A 1 1 0 0 0 15.292969 8.7070312 A 1 1 0 0 0 16.707031 8.7070312 L 20 5.4140625 L 20 8 A 1 1 0 0 0 21 9 A 1 1 0 0 0 22 8 L 22 3 A 1.0001 1.0001 0 0 0 21.998047 2.984375 A 1 1 0 0 0 21.96875 2.7597656 A 1.0001 1.0001 0 0 0 21.957031 2.71875 A 1 1 0 0 0 21.867188 2.5039062 A 1 1 0 0 0 21.865234 2.5 A 1.0001 1.0001 0 0 0 21.861328 2.4941406 A 1 1 0 0 0 21.707031 2.2929688 A 1 1 0 0 0 21.5 2.1347656 A 1.0001 1.0001 0 0 0 21 2 L 16 2 z "/>
</svg>
