<?xml version="1.0" encoding="UTF-8" standalone="no"?>
<svg xmlns="http://www.w3.org/2000/svg" xmlns:svg="http://www.w3.org/2000/svg" width="24" height="24" viewBox="0 0 24 24" fill="currentColor" tags="comment,chat,conversation,dialog,feedback,speech bubble,clear,close,delete,remove,cancel,silence,mute,moderate" categories="account,social">
  <path d="M 5 2 C 3.3549936 2 2 3.3549936 2 5 L 2 21 A 1.0001 1.0001 0 0 0 3.7070312 21.707031 L 7.4140625 18 L 19 18 C 20.645006 18 22 16.645006 22 15 L 22 5 C 22 3.3549936 20.645006 2 19 2 L 5 2 z M 5 4 L 19 4 C 19.564128 4 20 4.4358718 20 5 L 20 15 C 20 15.564128 19.564128 16 19 16 L 7 16 A 1.0001 1.0001 0 0 0 6.2929688 16.292969 L 4 18.585938 L 4 5 C 4 4.4358718 4.4358718 4 5 4 z M 9.5 6.5 A 1 1 0 0 0 8.7929688 6.7929688 A 1 1 0 0 0 8.7929688 8.2070312 L 10.585938 10 L 8.7929688 11.792969 A 1 1 0 0 0 8.7929688 13.207031 A 1 1 0 0 0 10.207031 13.207031 L 12 11.414062 L 13.792969 13.207031 A 1 1 0 0 0 15.207031 13.207031 A 1 1 0 0 0 15.207031 11.792969 L 13.414062 10 L 15.207031 8.2070312 A 1 1 0 0 0 15.207031 6.7929688 A 1 1 0 0 0 14.5 6.5 A 1 1 0 0 0 13.792969 6.7929688 L 12 8.5859375 L 10.207031 6.7929688 A 1 1 0 0 0 9.5 6.5 z "/>
</svg>
