<?xml version="1.0" encoding="UTF-8" standalone="no"?>
<svg xmlns="http://www.w3.org/2000/svg" xmlns:svg="http://www.w3.org/2000/svg" width="24" height="24" viewBox="0 0 24 24" fill="currentColor" tags="unread,unresolved,comment,chat,conversation,dialog,feedback,speech bubble" categories="social,notifications">
  <path d="M 5 2 C 3.3549904 2 2 3.3549904 2 5 L 2 21 A 1.0001 1.0001 0 0 0 3.7070312 21.707031 L 7.4140625 18 L 19 18 C 20.64501 18 22 16.64501 22 15 L 22 12.300781 A 1 1 0 0 0 21 11.300781 A 1 1 0 0 0 20 12.300781 L 20 15 C 20 15.564129 19.564129 16 19 16 L 7 16 A 1.0001 1.0001 0 0 0 6.2929688 16.292969 L 4 18.585938 L 4 5 C 4 4.4358706 4.4358706 4 5 4 L 11.699219 4 A 1 1 0 0 0 12.699219 3 A 1 1 0 0 0 11.699219 2 L 5 2 z M 18 2 C 15.802706 2 14 3.8027056 14 6 C 14 8.1972944 15.802706 10 18 10 C 20.197294 10 22 8.1972944 22 6 C 22 3.8027056 20.197294 2 18 2 z M 18 4 C 19.116414 4 20 4.8835859 20 6 C 20 7.1164141 19.116414 8 18 8 C 16.883586 8 16 7.1164141 16 6 C 16 4.8835859 16.883586 4 18 4 z "/>
</svg>
