<?xml version="1.0" encoding="UTF-8" standalone="no"?>
<svg xmlns="http://www.w3.org/2000/svg" xmlns:svg="http://www.w3.org/2000/svg" width="24" height="24" viewBox="0 0 24 24" fill="currentColor" tags="comment,chat,conversation,dialog,feedback,speech bubble,blockquote,quotation,indent,reply,response" categories="social,text">
  <path d="M 4 2 C 2.3549904 2 1 3.3549904 1 5 L 1 21.285156 C 1.0000928 22.00437 1.471188 22.623554 2.0546875 22.865234 C 2.638187 23.106915 3.4113146 23.004608 3.9199219 22.496094 A 1.0001 1.0001 0 0 0 3.9199219 22.494141 L 6.1210938 20.292969 C 6.308858 20.105148 6.5625462 20.000057 6.828125 20 L 20 20 C 21.64501 20 23 18.64501 23 17 L 23 5 C 23 3.3549904 21.64501 2 20 2 L 4 2 z M 4 4 L 20 4 C 20.564129 4 21 4.4358706 21 5 L 21 17 C 21 17.564129 20.564129 18 20 18 L 6.828125 18 C 6.0329246 18.00017 5.2692379 18.31653 4.7070312 18.878906 L 3 20.585938 L 3 5 C 3 4.4358706 3.4358706 4 4 4 z M 8 7 A 1 1 0 0 0 7 8 A 1 1 0 0 0 8 9 L 9 9 L 9 12 C 9 12.564129 8.5641294 13 8 13 A 1 1 0 0 0 7 14 A 1 1 0 0 0 8 15 C 9.6450096 15 11 13.64501 11 12 L 11 8 A 1.0001 1.0001 0 0 0 10 7 L 8 7 z M 14 7 A 1 1 0 0 0 13 8 A 1 1 0 0 0 14 9 L 15 9 L 15 12 C 15 12.564129 14.564129 13 14 13 A 1 1 0 0 0 13 14 A 1 1 0 0 0 14 15 C 15.64501 15 17 13.64501 17 12 L 17 8 A 1.0001 1.0001 0 0 0 16 7 L 14 7 z "/>
</svg>
