<?xml version="1.0" encoding="UTF-8" standalone="no"?>
<svg xmlns="http://www.w3.org/2000/svg" xmlns:svg="http://www.w3.org/2000/svg" width="24" height="24" viewBox="0 0 24 24" fill="currentColor" tags="record,sound,mute,microphone" categories="devices,communication,connectivity,multimedia">
  <path d="M 2 1 A 1 1 0 0 0 1.2929688 1.2929688 A 1 1 0 0 0 1.2929688 2.7070312 L 8 9.4140625 L 8 12 C 8.00153 13.738053 9.0909038 15.122036 10.470703 15.693359 C 11.573691 16.150066 12.911038 16.107742 14.03125 15.445312 L 15.541016 16.955078 C 14.582519 17.675196 13.518159 18.037043 12.453125 18.107422 A 1 1 0 0 0 12 18 A 1 1 0 0 0 11.572266 18.099609 C 10.927061 18.045235 10.291796 17.890787 9.6914062 17.640625 C 7.5717912 16.757452 5.9599656 14.766891 6 12.013672 A 1.0001 1.0001 0 0 0 6 12.011719 A 1.0001 1.0001 0 0 0 6 12.009766 A 1.0001 1.0001 0 0 0 6 12.007812 A 1.0001 1.0001 0 0 0 6 12.005859 A 1.0001 1.0001 0 0 0 6 12.003906 A 1.0001 1.0001 0 0 0 6 12.001953 A 1.0001 1.0001 0 0 0 6 12 L 6 10 A 1 1 0 0 0 5 9 A 1 1 0 0 0 4 10 L 4 11.986328 C 3.948135 15.553152 6.1242387 18.320646 8.921875 19.486328 C 9.5829854 19.761791 10.28303 19.948482 11 20.041016 L 11 22 A 1 1 0 0 0 12 23 A 1 1 0 0 0 13 22 L 13 20.048828 C 14.387354 19.879737 15.761594 19.341334 16.964844 18.378906 L 21.292969 22.707031 A 1 1 0 0 0 22.707031 22.707031 A 1 1 0 0 0 22.707031 21.292969 L 9.7382812 8.3261719 A 1 1 0 0 0 9.6738281 8.2617188 L 2.7070312 1.2929688 A 1 1 0 0 0 2 1 z M 11.970703 1.0195312 C 10.588241 1.03251 9.1648386 1.7514132 8.4257812 3.2207031 A 1 1 0 0 0 8.8710938 4.5625 A 1 1 0 0 0 10.212891 4.1191406 C 10.719657 3.1116589 11.604815 2.8712191 12.455078 3.0703125 C 13.305342 3.2694059 13.993205 3.8781247 14 5.0058594 L 14 9.3398438 A 1 1 0 0 0 15 10.339844 A 1 1 0 0 0 16 9.3398438 L 16 5 A 1.0001 1.0001 0 0 0 16 4.9980469 A 1.0001 1.0001 0 0 0 16 4.9960938 A 1.0001 1.0001 0 0 0 16 4.9941406 C 15.987803 2.969939 14.543004 1.5049289 12.912109 1.1230469 C 12.606317 1.051444 12.289733 1.0165362 11.970703 1.0195312 z M 19 9 A 1 1 0 0 0 18 10 L 18 12 C 17.999051 12.353836 17.96821 12.706314 17.90625 13.054688 A 1 1 0 0 0 18.714844 14.214844 A 1 1 0 0 0 19.875 13.404297 C 19.957363 12.941228 19.998888 12.472288 20 12.001953 A 1.0001 1.0001 0 0 0 20 12 L 20 10 A 1 1 0 0 0 19 9 z M 10 11.414062 L 12.529297 13.943359 C 12.096077 14.063848 11.647117 14.016604 11.234375 13.845703 C 10.527098 13.552912 10.00082 12.932489 10 12 L 10 11.414062 z "/>
</svg>
