<?xml version="1.0" encoding="UTF-8" standalone="no"?>
<svg xmlns="http://www.w3.org/2000/svg" xmlns:svg="http://www.w3.org/2000/svg" width="24" height="24" viewBox="0 0 24 24" fill="currentColor" tags="lyrics,voice,listen,sound,music,radio,podcast,karaoke,singing,microphone" categories="devices,multimedia">
  <path d="M 16 1 C 12.698136 1 10 3.6981361 10 7 C 10 7.0891208 10.001969 7.177425 10.005859 7.265625 L 4.1992188 15.201172 C 3.6808841 15.909236 3.6945115 16.876801 4.2011719 17.568359 C 3.7684717 18.407965 3.7713769 19.422686 4.0351562 20.322266 C 4.3927078 21.541641 5.3486608 22.731799 6.8300781 22.986328 C 8.2783964 23.23517 9.4858479 22.563736 10.490234 22.007812 C 11.494621 21.45189 12.3526 21 13 21 C 14.129046 21 15.040345 21.396591 15.941406 22.003906 A 1 1 0 0 0 17.330078 21.732422 A 1 1 0 0 0 17.058594 20.345703 C 15.959655 19.605018 14.614954 19 13 19 C 11.5894 19 10.484598 19.724735 9.5214844 20.257812 C 8.5583712 20.79089 7.7936036 21.12083 7.1699219 21.013672 C 6.5793392 20.912201 6.1482766 20.41864 5.9550781 19.759766 C 5.8827746 19.513185 5.8602845 19.268773 5.8730469 19.048828 C 6.5133241 19.307831 7.2694557 19.22803 7.84375 18.789062 L 15.458984 12.976562 C 15.459632 12.976621 15.46029 12.976504 15.460938 12.976562 C 15.638761 12.992578 15.818165 13 16 13 C 19.301864 13 22 10.301864 22 7 C 22 3.6981361 19.301864 1 16 1 z M 16 3 C 18.220984 3 20 4.7790164 20 7 C 20 9.2209836 18.220984 11 16 11 C 13.779016 11 12 9.2209836 12 7 C 12 4.7790164 13.779016 3 16 3 z M 10.667969 9.7460938 C 11.215767 10.802667 12.069758 11.678239 13.109375 12.253906 L 6.6308594 17.199219 L 6.6289062 17.199219 L 5.8144531 16.382812 A 1.0001 1.0001 0 0 0 5.8125 16.380859 L 10.667969 9.7460938 z "/>
</svg>
