<?xml version="1.0" encoding="UTF-8" standalone="no"?>
<svg xmlns="http://www.w3.org/2000/svg" xmlns:svg="http://www.w3.org/2000/svg" width="24" height="24" viewBox="0 0 24 24" fill="currentColor" tags="record,sound,mute,microphone" categories="devices,communication,connectivity,multimedia">
  <path d="M 2 1 A 1 1 0 0 0 1.2929688 1.2929688 A 1 1 0 0 0 1.2929688 2.7070312 L 8 9.4140625 L 8 12 C 8.00153 13.738053 9.0909038 15.122036 10.470703 15.693359 C 11.573944 16.15017 12.910881 16.108179 14.03125 15.445312 L 15.482422 16.896484 C 14.461933 17.642857 13.324559 17.994145 12.197266 18.019531 A 1 1 0 0 0 12 18 A 1 1 0 0 0 11.820312 18.015625 C 11.093557 17.985444 10.377153 17.822169 9.703125 17.542969 C 7.6032497 16.673146 5.9998041 14.715342 6 12 L 6 10 A 1 1 0 0 0 5 9 A 1 1 0 0 0 4 10 L 4 12 C 3.9997459 15.521408 6.1647185 18.242067 8.9375 19.390625 C 9.5939936 19.662562 10.288791 19.847703 11 19.939453 L 11 22 A 1 1 0 0 0 12 23 A 1 1 0 0 0 13 22 L 13 19.947266 C 14.365319 19.78065 15.715975 19.254586 16.90625 18.320312 L 21.292969 22.707031 A 1 1 0 0 0 22.707031 22.707031 A 1 1 0 0 0 22.707031 21.292969 L 14.832031 13.417969 A 1 1 0 0 0 14.828125 13.414062 A 1 1 0 0 0 14.822266 13.408203 L 9.7167969 8.3027344 A 1 1 0 0 0 9.6972656 8.2832031 L 2.7070312 1.2929688 A 1 1 0 0 0 2 1 z M 12.289062 1.0292969 C 10.811612 0.92665769 9.2216892 1.6383909 8.4257812 3.2207031 A 1 1 0 0 0 8.8710938 4.5625 A 1 1 0 0 0 10.212891 4.1191406 C 10.719657 3.1116589 11.604815 2.8712191 12.455078 3.0703125 C 13.305342 3.2694059 13.993205 3.8781247 14 5.0058594 L 14 9.3398438 A 1 1 0 0 0 15 10.339844 A 1 1 0 0 0 16 9.3398438 L 16 5 A 1.0001 1.0001 0 0 0 16 4.9941406 C 15.987803 2.969939 14.543004 1.5049289 12.912109 1.1230469 C 12.708248 1.0753116 12.500127 1.0439596 12.289062 1.0292969 z M 19 9 A 1 1 0 0 0 18 10 L 18 12 C 17.999692 12.35352 17.96868 12.704769 17.90625 13.052734 A 1 1 0 0 0 18.712891 14.214844 A 1 1 0 0 0 19.875 13.40625 C 19.958235 12.942297 19.999589 12.47136 20 12 L 20 10 A 1 1 0 0 0 19 9 z M 10 11.414062 L 12.529297 13.943359 C 12.095799 14.064165 11.647402 14.016723 11.234375 13.845703 C 10.527098 13.552912 10.00082 12.932489 10 12 L 10 11.414062 z "/>
</svg>
