<?xml version="1.0" encoding="UTF-8" standalone="no"?>
<svg xmlns="http://www.w3.org/2000/svg" xmlns:svg="http://www.w3.org/2000/svg" width="24" height="24" viewBox="0 0 24 24" fill="currentColor" tags="lyrics,voice,listen,sound,music,radio,podcast,karaoke,singing,microphone" categories="devices,multimedia">
  <path d="M 16 1 C 12.698142 1 10 3.6981427 10 7 C 10 7.0888085 10.001996 7.1777308 10.005859 7.265625 L 4.1992188 15.201172 C 3.6805027 15.909758 3.6973178 16.876698 4.2050781 17.568359 C 3.772325 18.407985 3.7713666 19.42265 4.0351562 20.322266 C 4.3927072 21.541638 5.3486638 22.731799 6.8300781 22.986328 C 8.2783936 23.23517 9.4858499 22.563734 10.490234 22.007812 C 11.494619 21.451892 12.352602 21 13 21 C 14.129044 21 15.040347 21.396593 15.941406 22.003906 A 1 1 0 0 0 17.330078 21.732422 A 1 1 0 0 0 17.058594 20.345703 C 15.959657 19.60502 14.614951 19 13 19 C 11.589402 19 10.484596 19.724736 9.5214844 20.257812 C 8.5583731 20.79089 7.7936024 21.120829 7.1699219 21.013672 C 6.5793404 20.912201 6.1482762 20.418638 5.9550781 19.759766 C 5.8826289 19.512688 5.8601164 19.267166 5.8730469 19.046875 C 6.5133938 19.306039 7.2693581 19.228106 7.84375 18.789062 L 15.462891 12.974609 C 15.639981 12.990492 15.818933 13 16 13 C 19.301858 13 22 10.301858 22 7 C 22 3.6981427 19.301858 1 16 1 z M 16 3 C 18.220979 3 20 4.7790208 20 7 C 20 9.2209792 18.220979 11 16 11 C 13.779021 11 12 9.2209792 12 7 C 12 4.7790208 13.779021 3 16 3 z M 10.669922 9.7441406 C 11.217831 10.801481 12.069041 11.678038 13.109375 12.253906 L 6.6308594 17.199219 L 6.6289062 17.199219 L 5.8144531 16.382812 A 1.0001 1.0001 0 0 0 5.8125 16.380859 L 10.669922 9.7441406 z "/>
</svg>
