<?xml version="1.0" encoding="UTF-8" standalone="no"?>
<svg xmlns="http://www.w3.org/2000/svg" xmlns:svg="http://www.w3.org/2000/svg" width="24" height="24" viewBox="0 0 24 24" fill="currentColor" tags="record,sound,listen,radio,podcast,microphone" categories="devices,communication,connectivity,multimedia">
  <path d="M 12 1 C 9.8027056 1 8 2.8027056 8 5 L 8 12 C 8 13.25 8.5047556 14.314774 9.2734375 14.998047 C 10.042119 15.681319 11.027778 16 12 16 C 12.972222 16 13.95788 15.681319 14.726562 14.998047 C 15.495243 14.314774 16 13.25 16 12 L 16 5 C 16 2.8027056 14.197294 1 12 1 z M 12 3 C 13.116414 3 14 3.8835859 14 5 L 14 12 C 14 12.749999 13.754756 13.185226 13.398438 13.501953 C 13.042118 13.81868 12.527778 14 12 14 C 11.472222 14 10.95788 13.81868 10.601562 13.501953 C 10.245243 13.185226 10 12.749999 10 12 L 10 5 C 10 3.8835859 10.883586 3 12 3 z M 5 9 A 1 1 0 0 0 4 10 L 4 12 C 4 16.067582 7.0630057 19.440539 11 19.935547 L 11 22 A 1 1 0 0 0 12 23 A 1 1 0 0 0 13 22 L 13 19.935547 C 16.936994 19.440539 20 16.067582 20 12 L 20 10 A 1 1 0 0 0 19 9 A 1 1 0 0 0 18 10 L 18 12 C 18 15.325556 15.325554 18 12 18 C 8.674446 18 6 15.325556 6 12 L 6 10 A 1 1 0 0 0 5 9 z "/>
</svg>
