<?xml version="1.0" encoding="UTF-8" standalone="no"?>
<svg xmlns="http://www.w3.org/2000/svg" xmlns:svg="http://www.w3.org/2000/svg" width="24" height="24" viewBox="0 0 24 24" fill="currentColor" tags="processor,cores,technology,computer,chip,integrated circuit,memory,ram,specs,gpu,gigahertz,ghz" categories="devices">
  <path d="M 8 1 C 6.7048579 1 5.5896856 1.8399128 5.1738281 3 L 4 3 A 1 1 0 0 0 3 4 A 1 1 0 0 0 4 5 L 5 5 L 5 7 L 4 7 A 1 1 0 0 0 3 8 A 1 1 0 0 0 4 9 L 5 9 L 5 11 L 4 11 A 1 1 0 0 0 3 12 A 1 1 0 0 0 4 13 L 5 13 L 5 15 L 4 15 A 1 1 0 0 0 3 16 A 1 1 0 0 0 4 17 L 5 17 L 5 19 L 4 19 A 1 1 0 0 0 3 20 A 1 1 0 0 0 4 21 L 5.1738281 21 C 5.5896855 22.160087 6.7048578 23 8 23 L 16 23 C 17.295143 23 18.410315 22.160087 18.826172 21 L 20 21 A 1 1 0 0 0 21 20 A 1 1 0 0 0 20 19 L 19 19 L 19 17 L 20 17 A 1 1 0 0 0 21 16 A 1 1 0 0 0 20 15 L 19 15 L 19 13 L 20 13 A 1 1 0 0 0 21 12 A 1 1 0 0 0 20 11 L 19 11 L 19 9 L 20 9 A 1 1 0 0 0 21 8 A 1 1 0 0 0 20 7 L 19 7 L 19 5 L 20 5 A 1 1 0 0 0 21 4 A 1 1 0 0 0 20 3 L 18.826172 3 C 18.410315 1.8399128 17.295142 1 16 1 L 14.5 1 C 13.676379 1 13.129458 1.6172333 12.96875 2.2480469 C 12.822629 2.8211487 12.44312 3 12 3 C 11.557403 3 11.177749 2.8214976 11.03125 2.25 L 11.03125 2.2480469 C 10.870542 1.6172302 10.323621 1 9.5 1 L 8 1 z M 8 3 L 9.2675781 3 C 9.7331557 4.2356069 10.856821 5 12 5 C 13.143179 5 14.266844 4.2356069 14.732422 3 L 16 3 C 16.564129 3 17 3.4358706 17 4 L 17 8 L 17 12 L 17 16 L 17 20 C 17 20.564129 16.564129 21 16 21 L 8 21 C 7.4358706 21 7 20.564129 7 20 L 7 16 L 7 12 L 7 8 L 7 4 C 7 3.4358706 7.4358706 3 8 3 z "/>
</svg>
