<?xml version="1.0" encoding="UTF-8" standalone="no"?>
<svg xmlns="http://www.w3.org/2000/svg" xmlns:svg="http://www.w3.org/2000/svg" width="24" height="24" viewBox="0 0 24 24" fill="currentColor" tags="oven,cooker,toaster oven,bake" categories="food-beverage,home">
  <path d="M 4 3 C 2.3552972 3 1 4.3552972 1 6 L 1 17 C 1 18.644703 2.3552972 20 4 20 L 5 20 L 5 21 A 1 1 0 0 0 6 22 A 1 1 0 0 0 7 21 L 7 20 L 17 20 L 17 21 A 1 1 0 0 0 18 22 A 1 1 0 0 0 19 21 L 19 20 L 20 20 C 21.644703 20 23 18.644703 23 17 L 23 6 C 23 4.3552972 21.644703 3 20 3 L 4 3 z M 4 5 L 20 5 C 20.571297 5 21 5.4287028 21 6 L 21 17 C 21 17.571297 20.571297 18 20 18 L 18 18 L 4 18 C 3.4287028 18 3 17.571297 3 17 L 3 6 C 3 5.4287028 3.4287028 5 4 5 z M 7 7 C 5.9092972 7 5 7.9092972 5 9 L 5 14 C 5 15.090703 5.9092972 16 7 16 L 13 16 C 14.090703 16 15 15.090703 15 14 L 15 9 C 15 7.9092972 14.090703 7 13 7 L 7 7 z M 18 7 A 1 1 0 0 0 17 8 L 17 15 A 1 1 0 0 0 18 16 A 1 1 0 0 0 19 15 L 19 8 A 1 1 0 0 0 18 7 z M 7 9 L 13 9 L 13 14 L 7 14 L 7 9 z "/>
</svg>
