<?xml version="1.0" encoding="UTF-8" standalone="no"?>
<svg xmlns="http://www.w3.org/2000/svg" xmlns:svg="http://www.w3.org/2000/svg" width="24" height="24" viewBox="0 0 24 24" fill="currentColor" tags="medical,education,science,imaging,research" categories="science,medical">
  <path d="M 9 1 C 7.9072751 1 7 1.9072751 7 3 L 7 5 A 1.0001 1.0001 0 0 0 6 6 L 6 10 C 6 11.64501 7.3549904 13 9 13 A 1 1 0 0 0 8 14 A 1 1 0 0 0 9 15 L 11 15 A 1 1 0 0 0 12 14 A 1 1 0 0 0 11 13 C 12.64501 13 14 11.64501 14 10 L 14 9 C 17.325556 9 20 11.674446 20 15 C 20 18.325554 17.325556 21 14 21 L 3 21 A 1 1 0 0 0 2 22 A 1 1 0 0 0 3 23 L 21 23 A 1 1 0 0 0 22 22 A 1 1 0 0 0 21 21 L 19.279297 21 C 20.945114 19.53214 22 17.386008 22 15 C 22 10.593568 18.406436 7 14 7 L 14 6 A 1.0001 1.0001 0 0 0 13 5 L 13 3 C 13 1.9072751 12.092725 1 11 1 L 9 1 z M 9 3 L 11 3 L 11 5 L 9 5 L 9 3 z M 8 7 L 12 7 L 12 10 C 12 10.564129 11.564129 11 11 11 L 9 11 C 8.4358706 11 8 10.564129 8 10 L 8 7 z M 6 17 A 1 1 0 0 0 5 18 A 1 1 0 0 0 6 19 L 14 19 A 1 1 0 0 0 15 18 A 1 1 0 0 0 14 17 L 6 17 z "/>
</svg>
