<svg xmlns="http://www.w3.org/2000/svg" xmlns:svg="http://www.w3.org/2000/svg" width="24" height="24" viewBox="0 0 24 24" fill="currentColor" tags="processor,cores,technology,computer,chip,integrated circuit,memory,ram,specs,gpu,gigahertz,ghz" categories="devices">
  <path d="M 8 1 C 6.3552972 1 5 2.3552972 5 4 L 5 5 L 4 5 A 1 1 0 0 0 3 6 A 1 1 0 0 0 4 7 L 5 7 L 5 11 L 4 11 A 1 1 0 0 0 3 12 A 1 1 0 0 0 4 13 L 5 13 L 5 17 L 4 17 A 1 1 0 0 0 3 18 A 1 1 0 0 0 4 19 L 5 19 L 5 20 C 5 21.644703 6.3552972 23 8 23 L 16 23 C 17.644703 23 19 21.644703 19 20 L 19 19 L 20 19 A 1 1 0 0 0 21 18 A 1 1 0 0 0 20 17 L 19 17 L 19 13 L 20 13 A 1 1 0 0 0 21 12 A 1 1 0 0 0 20 11 L 19 11 L 19 7 L 20 7 A 1 1 0 0 0 21 6 A 1 1 0 0 0 20 5 L 19 5 L 19 4 C 19 2.3552972 17.644703 1 16 1 L 8 1 z M 8 3 L 16 3 C 16.571297 3 17 3.4287028 17 4 L 17 6 L 17 12 L 17 18 L 17 20 C 17 20.571297 16.571297 21 16 21 L 8 21 C 7.4287028 21 7 20.571297 7 20 L 7 18 L 7 12 L 7 6 L 7 4 C 7 3.4287028 7.4287028 3 8 3 z M 10 6 A 1 1 0 0 0 9 7 A 1 1 0 0 0 10 8 L 14 8 A 1 1 0 0 0 15 7 A 1 1 0 0 0 14 6 L 10 6 z M 10 11 A 1 1 0 0 0 9 12 A 1 1 0 0 0 10 13 L 14 13 A 1 1 0 0 0 15 12 A 1 1 0 0 0 14 11 L 10 11 z M 10 16 A 1 1 0 0 0 9 17 A 1 1 0 0 0 10 18 L 14 18 A 1 1 0 0 0 15 17 A 1 1 0 0 0 14 16 L 10 16 z "/>
</svg>
