<?xml version="1.0" encoding="UTF-8" standalone="no"?>
<svg xmlns="http://www.w3.org/2000/svg" xmlns:svg="http://www.w3.org/2000/svg" width="24" height="24" viewBox="0 0 24 24" fill="currentColor" tags="signpost,direction,right,east,forward,version control,waypoint" categories="arrows,navigation,development,gaming">
  <path d="M 12 2 A 1 1 0 0 0 11 3 L 11 5 L 4 5 C 2.9072751 5 2 5.9072751 2 7 L 2 12 C 2 13.092725 2.9072751 14 4 14 L 11 14 L 11 21 A 1 1 0 0 0 12 22 A 1 1 0 0 0 13 21 L 13 14 L 17 14 C 17.617927 14.000044 18.221206 13.808668 18.726562 13.453125 L 18.728516 13.453125 L 22.136719 11.146484 A 1.0001 1.0001 0 0 0 22.152344 11.134766 C 23.25778 10.355986 23.25778 8.6440138 22.152344 7.8652344 A 1.0001 1.0001 0 0 0 22.136719 7.8554688 L 18.728516 5.546875 L 18.726562 5.546875 C 18.221252 5.1913318 17.617927 4.9999559 17 5 L 13 5 L 13 3 A 1 1 0 0 0 12 2 z M 4 7 L 12 7 L 17 7 C 17.206337 6.9999853 17.407491 7.062805 17.576172 7.1816406 A 1.0001 1.0001 0 0 0 17.591797 7.1933594 L 21 9.5 L 17.591797 11.806641 A 1.0001 1.0001 0 0 0 17.576172 11.818359 C 17.407496 11.937193 17.206337 12.000015 17 12 L 12 12 L 4 12 L 4 7 z "/>
</svg>
