<?xml version="1.0" encoding="UTF-8" standalone="no"?>
<svg xmlns="http://www.w3.org/2000/svg" xmlns:svg="http://www.w3.org/2000/svg" width="24" height="24" viewBox="0 0 24 24" fill="currentColor" tags="lactose free,bottle,beverage,drink,water,allergy,intolerance,diet" categories="food-beverage">
  <path d="M 2 1 A 1 1 0 0 0 1.2929688 1.2929688 A 1 1 0 0 0 1.2929688 2.7070312 L 6.5410156 7.9550781 C 6.188118 8.6527994 5.9998234 9.4255901 6 10.212891 L 6 20 C 6 21.645006 7.3549936 23 9 23 L 15 23 C 16.645006 23 18 21.645006 18 20 L 18 19.414062 L 21.292969 22.707031 A 1 1 0 0 0 22.707031 22.707031 A 1 1 0 0 0 22.707031 21.292969 L 8.46875 7.0566406 L 2.7070312 1.2929688 A 1 1 0 0 0 2 1 z M 8 1 A 1 1 0 0 0 7 2 A 1 1 0 0 0 8 3 L 8 3.34375 A 1 1 0 0 0 9 4.34375 A 1 1 0 0 0 10 3.34375 L 10 3 L 14 3 L 14 4.7890625 C 14.000025 5.7762053 14.2922 6.7411972 14.839844 7.5625 L 15.496094 8.546875 C 15.824901 9.0399904 16.000133 9.6182502 16 10.210938 A 1.0001 1.0001 0 0 0 16 10.212891 L 16 11.34375 A 1 1 0 0 0 17 12.34375 A 1 1 0 0 0 18 11.34375 L 18 10.212891 C 18.000222 9.2253218 17.708036 8.2591569 17.160156 7.4375 L 16.503906 6.453125 C 16.175241 5.9602223 16.000015 5.3814936 16 4.7890625 L 16 3 A 1 1 0 0 0 17 2 A 1 1 0 0 0 16 1 L 8 1 z M 8.0859375 9.5 L 12.826172 14.240234 C 12.67777 14.192541 12.53121 14.138664 12.386719 14.078125 C 11.463647 13.691416 10.481661 13.498047 9.5 13.498047 C 8.9972429 13.498047 8.4949691 13.548954 8 13.650391 L 8 10.212891 A 1.0001 1.0001 0 0 0 8 10.210938 C 7.9999459 9.9697436 8.0293678 9.7316597 8.0859375 9.5 z M 9.5 15.496094 C 10.218513 15.496094 10.937028 15.638568 11.613281 15.921875 C 12.705534 16.379504 13.890181 16.569543 15.066406 16.480469 L 16 17.414062 L 16 20 C 16 20.564128 15.564128 21 15 21 L 9 21 C 8.4358718 21 8 20.564128 8 20 L 8 15.708984 C 8.490343 15.569026 8.9949835 15.496094 9.5 15.496094 z "/>
</svg>
