<?xml version="1.0" encoding="UTF-8" standalone="no"?>
<svg xmlns="http://www.w3.org/2000/svg" xmlns:svg="http://www.w3.org/2000/svg" width="24" height="24" viewBox="0 0 24 24" fill="currentColor" tags="lactose free,bottle,beverage,drink,water,allergy,intolerance,diet" categories="food-beverage">
  <path d="M 2 1 A 1 1 0 0 0 1.2929688 1.2929688 A 1 1 0 0 0 1.2929688 2.7070312 L 6.5390625 7.953125 C 6.1857878 8.6511458 5.9998233 9.4251573 6 10.212891 L 6 20 C 6 21.64501 7.3549904 23 9 23 L 15 23 C 16.64501 23 18 21.64501 18 20 L 18 19.414062 L 21.292969 22.707031 A 1 1 0 0 0 22.707031 22.707031 A 1 1 0 0 0 22.707031 21.292969 L 17.716797 16.302734 A 1 1 0 0 0 17.697266 16.283203 L 16.132812 14.71875 L 8.5175781 7.1035156 A 1 1 0 0 0 8.4980469 7.0839844 L 2.7070312 1.2929688 A 1 1 0 0 0 2 1 z M 8 1 A 1 1 0 0 0 7 2 A 1 1 0 0 0 8 3 L 8 3.34375 A 1 1 0 0 0 9 4.34375 A 1 1 0 0 0 10 3.34375 L 10 3 L 14 3 L 14 4.7890625 C 14.000025 5.7762073 14.2922 6.7411955 14.839844 7.5625 L 15.496094 8.546875 C 15.824903 9.0399914 16.000133 9.618249 16 10.210938 A 1.0001 1.0001 0 0 0 16 10.212891 L 16 11.34375 A 1 1 0 0 0 17 12.34375 A 1 1 0 0 0 18 11.34375 L 18 10.212891 C 18.000222 9.2253198 17.708036 8.2591585 17.160156 7.4375 L 16.503906 6.453125 C 16.175239 5.9602213 16.000015 5.3814948 16 4.7890625 L 16 3 A 1 1 0 0 0 17 2 A 1 1 0 0 0 16 1 L 8 1 z M 8.0859375 9.5 L 12.826172 14.240234 C 12.677687 14.192522 12.53129 14.138697 12.386719 14.078125 C 11.463645 13.691416 10.481663 13.498047 9.5 13.498047 C 8.9974347 13.498047 8.4947856 13.549032 8 13.650391 L 8 10.212891 A 1.0001 1.0001 0 0 0 8 10.210938 C 7.9999459 9.9698394 8.0294124 9.731573 8.0859375 9.5 z M 9.3613281 15.498047 C 10.125768 15.478698 10.893627 15.620385 11.613281 15.921875 C 12.705814 16.37962 13.889885 16.569707 15.066406 16.480469 L 16 17.414062 L 16 20 C 16 20.564129 15.564129 21 15 21 L 9 21 C 8.4358706 21 8 20.564129 8 20 L 8 15.707031 C 8.4454524 15.57992 8.902664 15.509656 9.3613281 15.498047 z "/>
</svg>
