<?xml version="1.0" encoding="UTF-8" standalone="no"?>
<svg xmlns="http://www.w3.org/2000/svg" xmlns:svg="http://www.w3.org/2000/svg" width="24" height="24" viewBox="0 0 24 24" fill="currentColor" tags="lactose,bottle,beverage,drink,water,diet" categories="food-beverage">
  <path d="M 8 1 A 1 1 0 0 0 7 2 A 1 1 0 0 0 8 3 L 8 4.7890625 C 7.9999848 5.3814948 7.8247609 5.9602213 7.4960938 6.453125 L 6.8398438 7.4375 C 6.2919637 8.2591585 5.9997785 9.2253198 6 10.212891 L 6 15.003906 L 6 20 C 6 21.64501 7.3549904 23 9 23 L 15 23 C 16.64501 23 18 21.64501 18 20 L 18 14.996094 L 18 10.210938 C 17.999975 9.2237922 17.7078 8.2588045 17.160156 7.4375 L 16.503906 6.453125 C 16.175097 5.9600086 15.999867 5.3817505 16 4.7890625 A 1.0001 1.0001 0 0 0 16 4.7871094 L 16 3 A 1 1 0 0 0 17 2 A 1 1 0 0 0 16 1 L 8 1 z M 10 3 L 14 3 L 14 4.7871094 C 13.999778 5.7746798 14.291964 6.7408415 14.839844 7.5625 L 15.496094 8.546875 C 15.824761 9.0397787 15.999985 9.6185047 16 10.210938 L 16 14.292969 C 14.812127 14.631932 13.538166 14.560509 12.386719 14.078125 C 11.463657 13.691561 10.481609 13.498047 9.5 13.498047 C 8.9974571 13.498047 8.4947991 13.549012 8 13.650391 L 8 10.212891 A 1.0001 1.0001 0 0 0 8 10.210938 C 7.999867 9.618296 8.1750973 9.0399914 8.5039062 8.546875 L 9.1601562 7.5625 C 9.7078 6.7411955 9.9999747 5.7762073 10 4.7890625 L 10 3 z M 9.3613281 15.498047 C 10.125745 15.478701 10.89356 15.620467 11.613281 15.921875 C 13.008906 16.506554 14.538829 16.648926 16 16.349609 L 16 20 C 16 20.564129 15.564129 21 15 21 L 9 21 C 8.4358706 21 8 20.564129 8 20 L 8 15.707031 C 8.4454644 15.579952 8.9026781 15.509655 9.3613281 15.498047 z "/>
</svg>
