<svg xmlns="http://www.w3.org/2000/svg" xmlns:svg="http://www.w3.org/2000/svg" width="24" height="24" viewBox="0 0 24 24" fill="currentColor" tags="exit fullscreen,arrows,close,shrink" categories="arrows,layout,design">
  <path d="M 21 2 A 1 1 0 0 0 20.292969 2.2929688 L 15 7.5859375 L 15 4 A 1 1 0 0 0 14 3 A 1 1 0 0 0 13 4 L 13 10 A 1 1 0 0 0 13.007812 10.130859 A 1.0001 1.0001 0 0 0 13.076172 10.382812 A 1 1 0 0 0 13.292969 10.707031 A 1 1 0 0 0 13.617188 10.923828 A 1.0001 1.0001 0 0 0 13.869141 10.992188 A 1 1 0 0 0 14 11 L 20 11 A 1 1 0 0 0 21 10 A 1 1 0 0 0 20 9 L 16.414062 9 L 21.707031 3.7070312 A 1 1 0 0 0 21.707031 2.2929688 A 1 1 0 0 0 21 2 z M 4 13 A 1 1 0 0 0 3 14 A 1 1 0 0 0 4 15 L 7.5859375 15 L 2.2929688 20.292969 A 1 1 0 0 0 2.2929688 21.707031 A 1 1 0 0 0 3.7070312 21.707031 L 9 16.414062 L 9 20 A 1 1 0 0 0 10 21 A 1 1 0 0 0 11 20 L 11 14 A 1 1 0 0 0 10.992188 13.869141 A 1.0001 1.0001 0 0 0 10.923828 13.617188 A 1 1 0 0 0 10.707031 13.292969 A 1.0001 1.0001 0 0 0 10 13 L 4 13 z "/>
</svg>
