<?xml version="1.0" encoding="UTF-8" standalone="no"?>
<svg xmlns="http://www.w3.org/2000/svg" xmlns:svg="http://www.w3.org/2000/svg" width="24" height="24" viewBox="0 0 24 24" fill="currentColor" tags="tv,screen,display,desktop,video,movie,film,running,start,boot,virtual machine,vm" categories="connectivity,devices,multimedia">
  <path d="M 4 2 C 2.3552972 2 1 3.3552972 1 5 L 1 15 C 1 16.644703 2.3552972 18 4 18 L 11 18 L 11 20 L 8 20 A 1 1 0 0 0 7 21 A 1 1 0 0 0 8 22 L 16 22 A 1 1 0 0 0 17 21 A 1 1 0 0 0 16 20 L 13 20 L 13 18 L 20 18 C 21.644703 18 23 16.644703 23 15 L 23 5 C 23 3.3552972 21.644703 2 20 2 L 4 2 z M 4 4 L 20 4 C 20.571297 4 21 4.4287028 21 5 L 21 15 C 21 15.571297 20.571297 16 20 16 L 12 16 L 4 16 C 3.4287028 16 3 15.571297 3 15 L 3 5 C 3 4.4287028 3.4287028 4 4 4 z M 10.775391 6.0175781 C 9.8688303 6.0312917 9.0018442 6.7615098 9 7.7480469 A 1.0001 1.0001 0 0 0 9 7.75 L 9 12.248047 C 8.99895 13.565209 10.541132 14.430625 11.664062 13.742188 A 1.0001 1.0001 0 0 0 11.666016 13.740234 L 15.330078 11.490234 C 16.40576 10.829243 16.40576 9.1707567 15.330078 8.5097656 A 1.0001 1.0001 0 0 0 15.330078 8.5078125 L 11.666016 6.2597656 A 1.0001 1.0001 0 0 0 11.664062 6.2597656 C 11.383755 6.0878881 11.077577 6.0130069 10.775391 6.0175781 z M 11 8.1992188 L 13.935547 10 L 11 11.802734 L 11 8.1992188 z "/>
</svg>
