<?xml version="1.0" encoding="UTF-8" standalone="no"?>
<svg xmlns="http://www.w3.org/2000/svg" xmlns:svg="http://www.w3.org/2000/svg" width="24" height="24" viewBox="0 0 24 24" fill="currentColor" tags="tv,screen,display,desktop,running,active,virtual machine,vm" categories="connectivity,devices">
  <path d="M 4 2 C 2.3549904 2 1 3.3549904 1 5 L 1 15 C 1 16.64501 2.3549904 18 4 18 L 11 18 L 11 20 L 8 20 A 1 1 0 0 0 7 21 A 1 1 0 0 0 8 22 L 16 22 A 1 1 0 0 0 17 21 A 1 1 0 0 0 16 20 L 13 20 L 13 18 L 20 18 C 21.64501 18 23 16.64501 23 15 L 23 12.306641 A 1 1 0 0 0 22 11.306641 A 1 1 0 0 0 21 12.306641 L 21 15 C 21 15.564129 20.564129 16 20 16 L 4 16 C 3.4358706 16 3 15.564129 3 15 L 3 5 C 3 4.4358706 3.4358706 4 4 4 L 12.693359 4 A 1 1 0 0 0 13.693359 3 A 1 1 0 0 0 12.693359 2 L 4 2 z M 19 2 C 16.802706 2 15 3.8027056 15 6 C 15 8.1972944 16.802706 10 19 10 C 21.197294 10 23 8.1972944 23 6 C 23 3.8027056 21.197294 2 19 2 z M 19 4 C 20.116414 4 21 4.8835859 21 6 C 21 7.1164141 20.116414 8 19 8 C 17.883586 8 17 7.1164141 17 6 C 17 4.8835859 17.883586 4 19 4 z "/>
</svg>
