<?xml version="1.0" encoding="UTF-8" standalone="no"?>
<svg xmlns="http://www.w3.org/2000/svg" xmlns:svg="http://www.w3.org/2000/svg" width="24" height="24" viewBox="0 0 24 24" fill="currentColor" tags="tv,screen,display,virtual machine,vm,executable,settings,cog,edit,gear,configuration,preferences,system,control panel,network,computing" categories="connectivity,devices,development">
  <path d="M 16.552734 1.3027344 A 1 1 0 0 0 16.09375 1.3867188 A 1 1 0 0 0 15.585938 2.7070312 L 15.623047 2.7910156 C 15.306469 3.0265744 15.026574 3.3064691 14.791016 3.6230469 L 14.707031 3.5859375 A 1 1 0 0 0 13.941406 3.5664062 A 1 1 0 0 0 13.386719 4.09375 A 1 1 0 0 0 13.894531 5.4140625 L 14.037109 5.4765625 C 14.01426 5.6484044 14 5.8222482 14 6 C 14 6.1777518 14.01426 6.3515956 14.037109 6.5234375 L 13.894531 6.5859375 A 1 1 0 0 0 13.386719 7.90625 A 1 1 0 0 0 14.707031 8.4140625 L 14.791016 8.3769531 C 15.026574 8.6935309 15.306469 8.9734256 15.623047 9.2089844 L 15.585938 9.2929688 A 1 1 0 0 0 16.09375 10.613281 A 1 1 0 0 0 17.414062 10.105469 L 17.476562 9.9628906 C 17.648404 9.9857395 17.822248 10 18 10 C 18.177752 10 18.351596 9.9857395 18.523438 9.9628906 L 18.585938 10.105469 A 1 1 0 0 0 19.90625 10.613281 A 1 1 0 0 0 20.414062 9.2929688 L 20.376953 9.2089844 C 20.693531 8.9734256 20.973426 8.6935309 21.208984 8.3769531 L 21.292969 8.4140625 A 1 1 0 0 0 22.613281 7.90625 A 1 1 0 0 0 22.105469 6.5859375 L 21.962891 6.5234375 C 21.98574 6.3515956 22 6.1777518 22 6 C 22 5.8222482 21.98574 5.6484044 21.962891 5.4765625 L 22.105469 5.4140625 A 1 1 0 0 0 22.613281 4.09375 A 1 1 0 0 0 21.292969 3.5859375 L 21.208984 3.6230469 C 20.973426 3.3064691 20.693531 3.0265744 20.376953 2.7910156 L 20.414062 2.7070312 A 1 1 0 0 0 19.90625 1.3867188 A 1 1 0 0 0 19.140625 1.3671875 A 1 1 0 0 0 18.585938 1.8945312 L 18.523438 2.0371094 C 18.351596 2.0142605 18.177752 2 18 2 C 17.822248 2 17.648404 2.0142605 17.476562 2.0371094 L 17.414062 1.8945312 A 1 1 0 0 0 16.859375 1.3671875 A 1 1 0 0 0 16.552734 1.3027344 z M 4 2 C 2.3549936 2 1 3.3549936 1 5 L 1 15 C 1 16.645006 2.3549936 18 4 18 L 11 18 L 11 20 L 8 20 A 1 1 0 0 0 7 21 A 1 1 0 0 0 8 22 L 16 22 A 1 1 0 0 0 17 21 A 1 1 0 0 0 16 20 L 13 20 L 13 18 L 20 18 C 21.645006 18 23 16.645006 23 15 L 23 13 A 1 1 0 0 0 22 12 A 1 1 0 0 0 21 13 L 21 15 C 21 15.564128 20.564128 16 20 16 L 4 16 C 3.4358718 16 3 15.564128 3 15 L 3 5 C 3 4.4358718 3.4358718 4 4 4 L 11 4 A 1 1 0 0 0 12 3 A 1 1 0 0 0 11 2 L 4 2 z M 18 4 C 19.116412 4 20 4.8835881 20 6 C 20 7.1164119 19.116412 8 18 8 C 16.883588 8 16 7.1164119 16 6 C 16 4.8835881 16.883588 4 18 4 z "/>
</svg>
