<svg xmlns="http://www.w3.org/2000/svg" xmlns:svg="http://www.w3.org/2000/svg" width="24" height="24" viewBox="0 0 24 24" fill="currentColor" tags="share" categories="connectivity,devices">
  <path d="M 2 1 A 1 1 0 0 0 1.2929688 1.2929688 A 1 1 0 0 0 1.2929688 2.7070312 L 1.6816406 3.0957031 C 1.2493688 3.6224942 0.99998722 4.2927753 1 5 L 1 15 C 1 16.64501 2.3549904 18 4 18 L 11 18 L 11 20 L 8 20 A 1 1 0 0 0 7 21 A 1 1 0 0 0 8 22 L 16 22 A 1 1 0 0 0 17 21 A 1 1 0 0 0 16 20 L 13 20 L 13 18 L 16.585938 18 L 21.292969 22.707031 A 1 1 0 0 0 22.707031 22.707031 A 1 1 0 0 0 22.707031 21.292969 L 17.716797 16.302734 A 1 1 0 0 0 17.697266 16.283203 L 3.9746094 2.5605469 A 1 1 0 0 0 3.7988281 2.3847656 L 2.7070312 1.2929688 A 1 1 0 0 0 2 1 z M 8.65625 2 A 1 1 0 0 0 7.65625 3 A 1 1 0 0 0 8.65625 4 L 20 4 C 20.564129 4 21 4.4358706 21 5 L 21 15 C 20.999983 15.183895 20.94934 15.36453 20.853516 15.521484 A 1 1 0 0 0 21.185547 16.894531 A 1 1 0 0 0 22.560547 16.5625 C 22.847893 16.091855 22.999949 15.551429 23 15 L 23 5 C 23 3.3549904 21.64501 2 20 2 L 8.65625 2 z M 3.1152344 4.5292969 L 14.585938 16 L 4 16 C 3.4358706 16 3 15.564129 3 15 L 3 5 C 2.9999969 4.8318004 3.0402228 4.6705424 3.1152344 4.5292969 z "/>
</svg>
