<?xml version="1.0" encoding="UTF-8" standalone="no"?>
<svg xmlns="http://www.w3.org/2000/svg" xmlns:svg="http://www.w3.org/2000/svg" width="24" height="24" viewBox="0 0 24 24" fill="currentColor" tags="smartphone,phone,cellphone,device,mobile,desktop,monitor,responsive,screens" categories="connectivity,devices">
  <path d="M 4 3 C 2.3549936 3 1 4.3549936 1 6 L 1 13 C 1 14.645006 2.3549936 16 4 16 L 9 16 L 9 18 L 7 18 A 1 1 0 0 0 6 19 A 1 1 0 0 0 7 20 L 12 20 A 1 1 0 0 0 13 19 A 1 1 0 0 0 12 18 L 11 18 L 11 16 L 12 16 A 1 1 0 0 0 13 15 A 1 1 0 0 0 12 14 L 4 14 C 3.4358718 14 3 13.564128 3 13 L 3 6 C 3 5.4358718 3.4358718 5 4 5 L 16 5 C 16.564128 5 17 5.4358718 17 6 L 17 8 A 1 1 0 0 0 18 9 A 1 1 0 0 0 19 8 L 19 6 C 19 4.3549936 17.645006 3 16 3 L 4 3 z M 18 11 C 16.355301 11 15 12.355301 15 14 L 15 20 C 15 21.644699 16.355301 23 18 23 L 20 23 C 21.644699 23 23 21.644699 23 20 L 23 14 C 23 12.355301 21.644699 11 20 11 L 18 11 z M 18 13 L 20 13 C 20.571296 13 21 13.428704 21 14 L 21 20 C 21 20.571296 20.571296 21 20 21 L 18 21 C 17.428704 21 17 20.571296 17 20 L 17 14 C 17 13.428704 17.428704 13 18 13 z "/>
</svg>
