<?xml version="1.0" encoding="UTF-8" standalone="no"?>
<svg xmlns="http://www.w3.org/2000/svg" xmlns:svg="http://www.w3.org/2000/svg" width="24" height="24" viewBox="0 0 24 24" fill="currentColor" tags="tv,screen,display,upload,connect,remote,screen share" categories="connectivity,devices">
  <path d="M 4 2 C 2.3552972 2 1 3.3552972 1 5 L 1 15 C 1 16.644703 2.3552972 18 4 18 L 11 18 L 11 20 L 8 20 A 1 1 0 0 0 7 21 A 1 1 0 0 0 8 22 L 12 22 L 16 22 A 1 1 0 0 0 17 21 A 1 1 0 0 0 16 20 L 13 20 L 13 18 L 20 18 C 21.644703 18 23 16.644703 23 15 L 23 5 C 23 3.3552972 21.644703 2 20 2 L 4 2 z M 4 4 L 20 4 C 20.571297 4 21 4.4287028 21 5 L 21 15 C 21 15.571297 20.571297 16 20 16 L 4 16 C 3.4287028 16 3 15.571297 3 15 L 3 5 C 3 4.4287028 3.4287028 4 4 4 z M 12 6 A 1 1 0 0 0 11.753906 6.0332031 A 1.0001 1.0001 0 0 0 11.699219 6.0527344 A 1 1 0 0 0 11.53125 6.1230469 A 1.0001 1.0001 0 0 0 11.451172 6.171875 A 1 1 0 0 0 11.333984 6.2617188 A 1.0001 1.0001 0 0 0 11.292969 6.2929688 L 8.2929688 9.2929688 A 1 1 0 0 0 8.2929688 10.707031 A 1 1 0 0 0 9.7070312 10.707031 L 11 9.4140625 L 11 13 A 1 1 0 0 0 12 14 A 1 1 0 0 0 13 13 L 13 9.4140625 L 14.292969 10.707031 A 1 1 0 0 0 15.707031 10.707031 A 1 1 0 0 0 15.707031 9.2929688 L 12.736328 6.3222656 A 1 1 0 0 0 12 6 z "/>
</svg>
