<?xml version="1.0" encoding="UTF-8" standalone="no"?>
<svg xmlns="http://www.w3.org/2000/svg" xmlns:svg="http://www.w3.org/2000/svg" width="24" height="24" viewBox="0 0 24 24" fill="currentColor" tags="tv,screen,display,desktop,running,active,virtual machine,vm" categories="connectivity,devices">
  <path d="M 4 2 C 2.3552972 2 1 3.3552972 1 5 L 1 15 C 1 16.644703 2.3552972 18 4 18 L 11 18 L 11 20 L 8 20 A 1 1 0 0 0 7 21 A 1 1 0 0 0 8 22 L 12 22 L 16 22 A 1 1 0 0 0 17 21 A 1 1 0 0 0 16 20 L 13 20 L 13 18 L 20 18 C 21.644703 18 23 16.644703 23 15 L 23 5 C 23 3.3552972 21.644703 2 20 2 L 4 2 z M 4 4 L 20 4 C 20.571297 4 21 4.4287028 21 5 L 21 15 C 21 15.571297 20.571297 16 20 16 L 4 16 C 3.4287028 16 3 15.571297 3 15 L 3 5 C 3 4.4287028 3.4287028 4 4 4 z M 15 7 A 1 1 0 0 0 14.292969 7.2929688 L 11 10.585938 L 9.7070312 9.2929688 A 1 1 0 0 0 8.2929688 9.2929688 A 1 1 0 0 0 8.2929688 10.707031 L 10.292969 12.707031 A 1.0001 1.0001 0 0 0 11.707031 12.707031 L 15.707031 8.7070312 A 1 1 0 0 0 15.707031 7.2929688 A 1 1 0 0 0 15 7 z "/>
</svg>
