<?xml version="1.0" encoding="UTF-8" standalone="no"?>
<svg xmlns="http://www.w3.org/2000/svg" xmlns:svg="http://www.w3.org/2000/svg" width="24" height="24" viewBox="0 0 24 24" fill="currentColor" tags="devices,connect,cast" categories="connectivity,devices">
  <path d="M 14 3 C 12.355297 3 11 4.3552972 11 6 L 11 18 C 11 19.644703 12.355297 21 14 21 L 20 21 C 21.644703 21 23 19.644703 23 18 L 23 6 C 23 4.3552972 21.644703 3 20 3 L 14 3 z M 4 5 C 2.3549904 5 1 6.3549904 1 8 L 1 14 C 1 15.64501 2.3549904 17 4 17 L 8 17 A 1 1 0 0 0 9 16 A 1 1 0 0 0 8 15 L 4 15 C 3.4358706 15 3 14.564129 3 14 L 3 8 C 3 7.4358706 3.4358706 7 4 7 L 8 7 A 1 1 0 0 0 9 6 A 1 1 0 0 0 8 5 L 4 5 z M 14 5 L 20 5 C 20.571297 5 21 5.4287028 21 6 L 21 18 C 21 18.571297 20.571297 19 20 19 L 14 19 C 13.428703 19 13 18.571297 13 18 L 13 6 C 13 5.4287028 13.428703 5 14 5 z M 17 8 A 1 1 0 0 0 16 9 A 1 1 0 0 0 17 10 L 17.009766 10 A 1 1 0 0 0 18.009766 9 A 1 1 0 0 0 17.009766 8 L 17 8 z M 17 13 C 15.907275 13 15 13.907275 15 15 C 15 16.092725 15.907275 17 17 17 C 18.092725 17 19 16.092725 19 15 C 19 13.907275 18.092725 13 17 13 z M 5.5 19 A 1 1 0 0 0 4.5 20 A 1 1 0 0 0 5.5 21 L 8 21 A 1 1 0 0 0 9 20 A 1 1 0 0 0 8 19 L 5.5 19 z "/>
</svg>
