<?xml version="1.0" encoding="UTF-8" standalone="no"?>
<svg xmlns="http://www.w3.org/2000/svg" xmlns:svg="http://www.w3.org/2000/svg" width="24" height="24" viewBox="0 0 24 24" fill="currentColor" tags="tv,screen,display,desktop,video,movie,film,running,start,boot,virtual machine,vm" categories="connectivity,devices,multimedia">
  <path d="M 4 2 C 2.3552972 2 1 3.3552972 1 5 L 1 15 C 1 16.644703 2.3552972 18 4 18 L 11 18 L 11 20 L 8 20 A 1 1 0 0 0 7 21 A 1 1 0 0 0 8 22 L 16 22 A 1 1 0 0 0 17 21 A 1 1 0 0 0 16 20 L 13 20 L 13 18 L 20 18 C 21.644703 18 23 16.644703 23 15 L 23 5 C 23 3.3552972 21.644703 2 20 2 L 4 2 z M 4 4 L 20 4 C 20.571297 4 21 4.4287028 21 5 L 21 15 C 21 15.571297 20.571297 16 20 16 L 12 16 L 4 16 C 3.4287028 16 3 15.571297 3 15 L 3 5 C 3 4.4287028 3.4287028 4 4 4 z M 10.634766 6.015625 C 9.7919801 6.0465236 8.9984046 6.7363389 9 7.6503906 L 9 12.351562 C 8.99823 13.570923 10.41294 14.388183 11.46875 13.777344 L 15.533203 11.425781 C 16.587879 10.81548 16.587879 9.18452 15.533203 8.5742188 L 11.466797 6.2226562 A 1.0001 1.0001 0 0 0 11.466797 6.2207031 C 11.202796 6.0685967 10.915694 6.0053255 10.634766 6.015625 z M 11 8.2617188 L 14.005859 10 L 11 11.738281 L 11 8.2617188 z "/>
</svg>
