<svg xmlns="http://www.w3.org/2000/svg" xmlns:svg="http://www.w3.org/2000/svg" width="24" height="24" viewBox="0 0 24 24" fill="currentColor" tags="virtual machine,virtual desktop,vm,vdi,computing,remote work,monitoring,infrastructure,software as a service,saas,workstation,environment,tv,screen,display" categories="connectivity,devices,development">
  <path d="M 4 2 C 2.3552972 2 1 3.3552972 1 5 L 1 15 C 1 16.644703 2.3552972 18 4 18 L 11 18 L 11 20 L 8 20 A 1 1 0 0 0 7 21 A 1 1 0 0 0 8 22 L 16 22 A 1 1 0 0 0 17 21 A 1 1 0 0 0 16 20 L 13 20 L 13 18 L 20 18 C 21.644703 18 23 16.644703 23 15 L 23 5 C 23 3.3552972 21.644703 2 20 2 L 4 2 z M 4 4 L 20 4 C 20.571297 4 21 4.4287028 21 5 L 21 15 C 21 15.571297 20.571297 16 20 16 L 12 16 L 4 16 C 3.4287028 16 3 15.571297 3 15 L 3 5 C 3 4.4287028 3.4287028 4 4 4 z M 11.019531 6.0371094 C 9.7854104 6.0220721 8.5411438 6.5519047 7.7363281 7.6894531 C 5.8967497 10.289564 7.814831 13.99833 11 14 L 14 14 C 14.916666 14 15.731441 13.620244 16.248047 13.039062 C 16.764653 12.45788 17 11.722222 17 11 C 17 10.277778 16.764653 9.5421194 16.248047 8.9609375 C 15.801153 8.4581822 15.109709 8.1561031 14.34375 8.0703125 C 13.703422 6.9901772 12.71044 6.2376984 11.546875 6.0761719 C 11.372315 6.0519394 11.195834 6.0392576 11.019531 6.0371094 z M 11.021484 7.9628906 C 11.108481 7.9631857 11.195234 7.9685293 11.28125 7.9804688 C 11.969374 8.0759837 12.606485 8.5413642 12.886719 9.3339844 A 1.0001 1.0001 0 0 0 13.830078 10 L 14 10 C 14.416666 10 14.601893 10.120244 14.751953 10.289062 C 14.902014 10.45788 15 10.722222 15 11 C 15 11.277778 14.90201 11.542119 14.751953 11.710938 C 14.601893 11.879755 14.416666 12 14 12 L 11 12 C 9.3185987 11.999118 8.398087 10.218217 9.3691406 8.8457031 C 9.7939767 8.2452283 10.412511 7.9608249 11.021484 7.9628906 z "/>
</svg>
