<svg xmlns="http://www.w3.org/2000/svg" xmlns:svg="http://www.w3.org/2000/svg" width="24" height="24" viewBox="0 0 24 24" fill="currentColor" tags="smartphone,phone,cellphone,device,mobile,desktop,monitor,responsive,screens" categories="connectivity,devices">
  <path d="M 4 3 C 2.3549904 3 1 4.3549904 1 6 L 1 13 C 1 14.64501 2.3549904 16 4 16 L 9 16 L 9 18 L 7 18 A 1 1 0 0 0 6 19 A 1 1 0 0 0 7 20 L 12 20 A 1 1 0 0 0 13 19 A 1 1 0 0 0 12 18 L 11 18 L 11 16 L 12 16 A 1 1 0 0 0 13 15 A 1 1 0 0 0 12 14 L 4 14 C 3.4358706 14 3 13.564129 3 13 L 3 6 C 3 5.4358706 3.4358706 5 4 5 L 16 5 C 16.564129 5 17 5.4358706 17 6 L 17 8 A 1 1 0 0 0 18 9 A 1 1 0 0 0 19 8 L 19 6 C 19 4.3549904 17.64501 3 16 3 L 4 3 z M 18 11 C 16.355297 11 15 12.355297 15 14 L 15 20 C 15 21.644703 16.355297 23 18 23 L 20 23 C 21.644703 23 23 21.644703 23 20 L 23 14 C 23 12.355297 21.644703 11 20 11 L 18 11 z M 18 13 L 20 13 C 20.571297 13 21 13.428703 21 14 L 21 20 C 21 20.571297 20.571297 21 20 21 L 18 21 C 17.428703 21 17 20.571297 17 20 L 17 14 C 17 13.428703 17.428703 13 18 13 z "/>
</svg>
