<?xml version="1.0" encoding="UTF-8" standalone="no"?>
<svg xmlns="http://www.w3.org/2000/svg" xmlns:svg="http://www.w3.org/2000/svg" width="24" height="24" viewBox="0 0 24 24" fill="currentColor" tags="tv,screen,display,desktop,video,movie,film,running,start,boot,virtual machine,vm" categories="connectivity,devices,multimedia,development">
  
  <path d="M 4 2 C 2.3553005 2 1 3.3553005 1 5 L 1 15 C 1 16.644699 2.3553005 18 4 18 L 11 18 L 11 20 L 8 20 A 1 1 0 0 0 7 21 A 1 1 0 0 0 8 22 L 12 22 L 16 22 A 1 1 0 0 0 17 21 A 1 1 0 0 0 16 20 L 13 20 L 13 18 L 20 18 C 21.644699 18 23 16.644699 23 15 L 23 5 C 23 3.3553005 21.644699 2 20 2 L 4 2 z M 4 4 L 20 4 C 20.571296 4 21 4.4287039 21 5 L 21 15 C 21 15.571296 20.571296 16 20 16 L 4 16 C 3.4287039 16 3 15.571296 3 15 L 3 5 C 3 4.4287039 3.4287039 4 4 4 z M 10.011719 6.0019531 A 1.0001 1.0001 0 0 0 9.5078125 6.1308594 A 1.0001 1.0001 0 0 0 9 7 L 9 13 A 1.0001 1.0001 0 0 0 10.513672 13.857422 L 15.513672 10.857422 A 1.0001 1.0001 0 0 0 15.513672 9.1425781 L 10.513672 6.1425781 A 1.0001 1.0001 0 0 0 10.011719 6.0019531 z M 11 8.765625 L 13.056641 10 L 11 11.234375 L 11 8.765625 z "/>
</svg>
