<svg xmlns="http://www.w3.org/2000/svg" xmlns:svg="http://www.w3.org/2000/svg" width="24" height="24" viewBox="0 0 24 24" fill="currentColor" tags="tv,screen,display,desktop,video,movie,film,suspend,hibernate,boot,virtual machine,vm" categories="connectivity,devices,multimedia">
  <path d="M 4 2 C 2.3552972 2 1 3.3552972 1 5 L 1 15 C 1 16.644703 2.3552972 18 4 18 L 11 18 L 11 20 L 8 20 A 1 1 0 0 0 7 21 A 1 1 0 0 0 8 22 L 12 22 L 16 22 A 1 1 0 0 0 17 21 A 1 1 0 0 0 16 20 L 13 20 L 13 18 L 20 18 C 21.644703 18 23 16.644703 23 15 L 23 5 C 23 3.3552972 21.644703 2 20 2 L 4 2 z M 4 4 L 20 4 C 20.571297 4 21 4.4287028 21 5 L 21 15 C 21 15.571297 20.571297 16 20 16 L 4 16 C 3.4287028 16 3 15.571297 3 15 L 3 5 C 3 4.4287028 3.4287028 4 4 4 z M 10 6 A 1 1 0 0 0 9 7 L 9 13 A 1 1 0 0 0 10 14 A 1 1 0 0 0 11 13 L 11 7 A 1 1 0 0 0 10 6 z M 14 6 A 1 1 0 0 0 13 7 L 13 13 A 1 1 0 0 0 14 14 A 1 1 0 0 0 15 13 L 15 7 A 1 1 0 0 0 14 6 z "/>
</svg>
