<?xml version="1.0" encoding="UTF-8" standalone="no"?>
<svg xmlns="http://www.w3.org/2000/svg" xmlns:svg="http://www.w3.org/2000/svg" width="24" height="24" viewBox="0 0 24 24" fill="currentColor" tags="tv,screen,display,virtual machine,vm,executable,settings,cog,edit,gear,configuration,preferences,system,control panel,network,computing" categories="connectivity,devices">
  <path d="M 16.46875 1.3046875 A 1 1 0 0 0 16.085938 1.3808594 A 1 1 0 0 0 15.544922 2.6875 L 15.595703 2.8105469 C 15.299259 3.03502 15.03502 3.2992594 14.810547 3.5957031 L 14.6875 3.5449219 A 1 1 0 0 0 13.380859 4.0859375 A 1 1 0 0 0 13.921875 5.3925781 L 14.039062 5.4414062 C 14.013153 5.6241221 14 5.8105121 14 6 C 14 6.188931 14.013302 6.3744392 14.039062 6.5566406 L 13.921875 6.6054688 A 1 1 0 0 0 13.380859 7.9121094 A 1 1 0 0 0 14.6875 8.453125 L 14.808594 8.4023438 C 15.033276 8.6993101 15.298829 8.9646543 15.595703 9.1894531 L 15.544922 9.3125 A 1 1 0 0 0 16.085938 10.619141 A 1 1 0 0 0 17.392578 10.078125 L 17.441406 9.9609375 C 17.624122 9.9868472 17.810512 10 18 10 C 18.188931 10 18.374439 9.9866978 18.556641 9.9609375 L 18.605469 10.078125 A 1 1 0 0 0 19.912109 10.621094 A 1 1 0 0 0 20.455078 9.3144531 L 20.404297 9.1894531 C 20.70099 8.9648802 20.964825 8.7009459 21.189453 8.4042969 L 21.3125 8.4550781 A 1 1 0 0 0 22.619141 7.9140625 A 1 1 0 0 0 22.078125 6.6074219 L 21.960938 6.5585938 C 21.986847 6.3758779 22 6.1894879 22 6 C 22 5.8105121 21.986847 5.6241221 21.960938 5.4414062 L 22.078125 5.3925781 A 1 1 0 0 0 22.619141 4.0859375 A 1 1 0 0 0 21.3125 3.5449219 L 21.189453 3.5957031 C 20.96498 3.2992594 20.700741 3.03502 20.404297 2.8105469 L 20.455078 2.6875 A 1 1 0 0 0 19.914062 1.3808594 A 1 1 0 0 0 19.148438 1.3808594 A 1 1 0 0 0 18.607422 1.921875 L 18.558594 2.0390625 C 18.375878 2.0131528 18.189488 2 18 2 C 17.810512 2 17.624122 2.0131528 17.441406 2.0390625 L 17.392578 1.921875 A 1 1 0 0 0 16.46875 1.3046875 z M 4 2 C 2.3549904 2 1 3.3549904 1 5 L 1 15 C 1 16.64501 2.3549904 18 4 18 L 11 18 L 11 20 L 8 20 A 1 1 0 0 0 7 21 A 1 1 0 0 0 8 22 L 16 22 A 1 1 0 0 0 17 21 A 1 1 0 0 0 16 20 L 13 20 L 13 18 L 20 18 C 21.64501 18 23 16.64501 23 15 L 23 13 A 1 1 0 0 0 22 12 A 1 1 0 0 0 21 13 L 21 15 C 21 15.564129 20.564129 16 20 16 L 4 16 C 3.4358706 16 3 15.564129 3 15 L 3 5 C 3 4.4358706 3.4358706 4 4 4 L 11 4 A 1 1 0 0 0 12 3 A 1 1 0 0 0 11 2 L 4 2 z M 18 4 C 18.248408 4 18.48494 4.0446788 18.703125 4.125 A 1 1 0 0 0 18.765625 4.1523438 A 1 1 0 0 0 18.835938 4.1796875 C 19.272851 4.3776195 19.62238 4.7271498 19.820312 5.1640625 A 1 1 0 0 0 19.847656 5.234375 A 1 1 0 0 0 19.875 5.296875 C 19.955321 5.5150594 20 5.7515933 20 6 C 20 6.2484067 19.955321 6.4849406 19.875 6.703125 A 1 1 0 0 0 19.847656 6.765625 A 1 1 0 0 0 19.820312 6.8359375 C 19.622308 7.2730082 19.273072 7.6243718 18.835938 7.8222656 A 1 1 0 0 0 18.765625 7.8476562 A 1 1 0 0 0 18.703125 7.875 C 18.48494 7.955321 18.248407 8 18 8 C 17.751593 8 17.51506 7.955321 17.296875 7.875 A 1 1 0 0 0 17.234375 7.8476562 A 1 1 0 0 0 17.164062 7.8222656 C 16.726836 7.6243878 16.377721 7.2730741 16.179688 6.8359375 A 1 1 0 0 0 16.152344 6.765625 A 1 1 0 0 0 16.125 6.703125 C 16.044679 6.4849406 16 6.2484067 16 6 C 16 5.7515933 16.044679 5.5150594 16.125 5.296875 A 1 1 0 0 0 16.152344 5.234375 A 1 1 0 0 0 16.179688 5.1640625 C 16.37762 4.7271498 16.727149 4.3776195 17.164062 4.1796875 A 1 1 0 0 0 17.234375 4.1523438 A 1 1 0 0 0 17.296875 4.125 C 17.51506 4.0446788 17.751592 4 18 4 z "/>
</svg>
