<?xml version="1.0" encoding="UTF-8" standalone="no"?>
<svg xmlns="http://www.w3.org/2000/svg" xmlns:svg="http://www.w3.org/2000/svg" width="24" height="24" viewBox="0 0 24 24" fill="currentColor" tags="tv,screen,display,desktop,running,active,virtual machine,vm" categories="connectivity,devices,development">
  
  <path d="M 4 2 C 2.3549936 2 1 3.3549936 1 5 L 1 15 C 1 16.645006 2.3549936 18 4 18 L 11 18 L 11 20 L 8 20 A 1 1 0 0 0 7 21 A 1 1 0 0 0 8 22 L 12 22 L 16 22 A 1 1 0 0 0 17 21 A 1 1 0 0 0 16 20 L 13 20 L 13 18 L 20 18 C 21.645006 18 23 16.645006 23 15 L 23 12 A 1 1 0 0 0 22 11 A 1 1 0 0 0 21 12 L 21 15 C 21 15.564128 20.564128 16 20 16 L 4 16 C 3.4358718 16 3 15.564128 3 15 L 3 5 C 3 4.4358718 3.4358718 4 4 4 L 13 4 A 1 1 0 0 0 14 3 A 1 1 0 0 0 13 2 L 4 2 z M 19 2 C 16.80271 2 15 3.80271 15 6 C 15 8.19729 16.80271 10 19 10 C 21.19729 10 23 8.19729 23 6 C 23 3.80271 21.19729 2 19 2 z M 19 4 C 20.116412 4 21 4.8835881 21 6 C 21 7.1164119 20.116412 8 19 8 C 17.883588 8 17 7.1164119 17 6 C 17 4.8835881 17.883588 4 19 4 z "/>
</svg>
