<svg xmlns="http://www.w3.org/2000/svg" xmlns:svg="http://www.w3.org/2000/svg" width="24" height="24" viewBox="0 0 24 24" fill="currentColor" tags="dark,night,star" categories="accessibility,weather">
  <path d="M 20 2 A 1 1 0 0 0 19 3 L 19 4 L 18 4 A 1 1 0 0 0 17 5 A 1 1 0 0 0 18 6 L 19 6 L 19 7 A 1 1 0 0 0 20 8 A 1 1 0 0 0 21 7 L 21 6 L 22 6 A 1 1 0 0 0 23 5 A 1 1 0 0 0 22 4 L 21 4 L 21 3 A 1 1 0 0 0 20 2 z M 11.570312 2.0136719 C 11.532802 2.0124281 11.494962 2.0135646 11.457031 2.015625 C 7.1755354 2.2472042 3.9735663 4.9950178 2.6601562 8.4257812 C 1.3467461 11.856545 1.8959123 16.040764 4.9277344 19.072266 C 7.9595564 22.103768 12.143594 22.653616 15.574219 21.339844 C 19.003771 20.026482 21.751748 16.822478 21.984375 12.542969 L 21.984375 12.541016 L 21.984375 12.539062 A 1 1 0 0 0 21.982422 12.533203 C 22.011202 11.930378 21.612168 11.37049 21.150391 11.150391 C 20.686469 10.929269 20.126657 10.939879 19.652344 11.236328 C 17.336136 12.683986 14.995961 12.062367 13.466797 10.533203 C 11.93768 9.0041705 11.314061 6.6638641 12.761719 4.3476562 C 13.059729 3.8722264 13.069066 3.3110311 12.847656 2.8476562 C 12.640084 2.4132423 12.132968 2.0323284 11.570312 2.0136719 z M 10.703125 4.1875 C 9.4224016 7.0283522 10.154184 10.048715 12.052734 11.947266 C 13.950903 13.845435 16.97019 14.578439 19.810547 13.298828 C 19.32563 16.313372 17.375625 18.507095 14.859375 19.470703 C 12.096183 20.528879 8.8155762 20.131721 6.3417969 17.658203 C 3.8680176 15.184685 3.4694593 11.903929 4.5273438 9.140625 C 5.4910957 6.6232049 7.6866169 4.67163 10.703125 4.1875 z "/>
</svg>
