<?xml version="1.0" encoding="UTF-8" standalone="no"?>
<svg xmlns="http://www.w3.org/2000/svg" xmlns:svg="http://www.w3.org/2000/svg" width="24" height="24" viewBox="0 0 24 24" fill="currentColor" tags="dark,night" categories="accessibility">
  <path d="M 12 2 C 7.5876644 2 4.1983128 4.7051316 2.7617188 8.1738281 C 1.3251245 11.642525 1.8100283 15.950653 4.9296875 19.070312 C 8.0493467 22.189972 12.357475 22.674875 15.826172 21.238281 C 19.294868 19.801687 22 16.412336 22 12 A 1.0001 1.0001 0 0 0 20.292969 11.292969 C 18.969746 12.616191 17.595707 13.048254 16.277344 12.970703 C 14.95898 12.893152 13.674896 12.260834 12.707031 11.292969 C 11.739166 10.325104 11.106848 9.0410199 11.029297 7.7226562 C 10.951746 6.4042926 11.383809 5.0302538 12.707031 3.7070312 A 1.0001 1.0001 0 0 0 12 2 z M 9.9492188 4.3085938 C 9.3424489 5.4716784 8.964276 6.6680863 9.0332031 7.8398438 C 9.1431527 9.7089795 10.010834 11.424896 11.292969 12.707031 C 12.575104 13.989166 14.291021 14.856847 16.160156 14.966797 C 17.331914 15.035727 18.528322 14.657551 19.691406 14.050781 C 19.044977 16.587301 17.288063 18.468887 15.0625 19.390625 C 12.266725 20.548522 8.8934816 20.205982 6.34375 17.65625 C 3.7940184 15.106518 3.4514779 11.733275 4.609375 8.9375 C 5.5311134 6.7119371 7.4126991 4.9550233 9.9492188 4.3085938 z "/>
</svg>
