<?xml version="1.0" encoding="UTF-8" standalone="no"?>
<svg xmlns="http://www.w3.org/2000/svg" xmlns:svg="http://www.w3.org/2000/svg" width="24" height="24" viewBox="0 0 24 24" fill="currentColor" tags="dark,night,star" categories="accessibility,weather">
  <path d="M 12 2 C 7.5876732 2 4.19831 4.7051386 2.7617188 8.1738281 C 1.3251274 11.642518 1.8100346 15.95066 4.9296875 19.070312 C 8.0493404 22.189966 12.357482 22.674873 15.826172 21.238281 C 19.294861 19.801691 22 16.412327 22 12 A 1.0001 1.0001 0 0 0 20.292969 11.292969 C 18.969748 12.616188 17.595704 13.048254 16.277344 12.970703 C 14.958982 12.893153 13.674895 12.260832 12.707031 11.292969 C 11.739168 10.325105 11.106848 9.0410173 11.029297 7.7226562 C 10.951746 6.4042953 11.383812 5.0302511 12.707031 3.7070312 A 1.0001 1.0001 0 0 0 12 2 z M 19 2 A 1 1 0 0 0 18 3 L 18 4 L 17 4 A 1 1 0 0 0 16 5 A 1 1 0 0 0 17 6 L 18 6 L 18 7 A 1 1 0 0 0 19 8 A 1 1 0 0 0 20 7 L 20 6 L 21 6 A 1 1 0 0 0 22 5 A 1 1 0 0 0 21 4 L 20 4 L 20 3 A 1 1 0 0 0 19 2 z M 9.9492188 4.3085938 C 9.3424501 5.4716761 8.9642761 6.6680886 9.0332031 7.8398438 C 9.1431525 9.7089758 10.010836 11.4249 11.292969 12.707031 C 12.5751 13.989164 14.291024 14.856847 16.160156 14.966797 C 17.331912 15.035727 18.528324 14.657551 19.691406 14.050781 C 19.044978 16.587296 17.288059 18.468889 15.0625 19.390625 C 12.266731 20.54852 8.8934766 20.205976 6.34375 17.65625 C 3.7940234 15.106524 3.4514803 11.733269 4.609375 8.9375 C 5.5311116 6.7119415 7.4127042 4.9550221 9.9492188 4.3085938 z "/>
</svg>
