<?xml version="1.0" encoding="UTF-8" standalone="no"?>
<svg xmlns="http://www.w3.org/2000/svg" xmlns:svg="http://www.w3.org/2000/svg" width="24" height="24" viewBox="0 0 24 24" fill="currentColor" tags="moto,motorcycle,transport,vehicle,drive,ride,trip,race,racing,journey,delivery" categories="transportation">
  <path d="M 16.974609 4 A 1 1 0 0 0 16.84375 4.0117188 A 1 1 0 0 0 16.191406 4.4121094 A 1 1 0 0 0 16.412109 5.8085938 C 17.257631 6.4219804 17.823287 7.3446253 18 8.3730469 L 18 9 C 17.142405 9 16.319196 9.1547949 15.558594 9.4394531 C 15.026888 8.5738994 14.070559 8.000511 13 8 L 11 8 C 9.8284101 8 9.0004501 8.7913695 8.5078125 9.78125 L 3.3164062 8.0507812 A 1 1 0 0 0 2.0507812 8.6835938 A 1 1 0 0 0 2.6835938 9.9492188 L 8.6835938 11.949219 A 1.0001 1.0001 0 0 0 10 11 C 10 10.435871 10.435871 10 11 10 L 13 10 C 13.333572 10.000159 13.625931 10.155122 13.806641 10.402344 C 12.105053 11.68162 11 13.716528 11 16 L 8.8730469 16 C 8.4252304 14.281239 6.8524261 13 5 13 C 2.8027056 13 1 14.802706 1 17 C 1 19.197294 2.8027056 21 5 21 C 6.8524261 21 8.4252304 19.718761 8.8730469 18 L 11 18 C 12.092725 18 13 17.092725 13 16 C 13 14.179021 13.959858 12.59279 15.404297 11.71875 A 1 1 0 0 0 15.574219 11.621094 C 15.735119 11.532183 15.900976 11.451938 16.072266 11.380859 L 16.828125 13.646484 C 15.730684 14.362257 15 15.601515 15 17 C 15 19.197294 16.802706 21 19 21 C 21.197294 21 23 19.197294 23 17 C 23 14.802706 21.197294 13 19 13 C 18.907437 13 18.815666 13.003473 18.724609 13.009766 L 18.054688 11 C 19.122943 10.970481 20 10.074527 20 9 L 20 8.25 A 1.0001 1.0001 0 0 0 19.986328 8.0898438 C 19.733449 6.5240487 18.871724 5.1227677 17.587891 4.1914062 A 1 1 0 0 0 16.974609 4 z M 5 15 C 6.1164141 15 7 15.883586 7 17 C 7 18.116414 6.1164141 19 5 19 C 3.8835859 19 3 18.116414 3 17 C 3 15.883586 3.8835859 15 5 15 z M 19 15 C 20.116414 15 21 15.883586 21 17 C 21 18.116414 20.116414 19 19 19 C 17.883586 19 17 18.116414 17 17 C 17 15.883586 17.883586 15 19 15 z "/>
</svg>
