<?xml version="1.0" encoding="UTF-8" standalone="no"?>
<svg xmlns="http://www.w3.org/2000/svg" xmlns:svg="http://www.w3.org/2000/svg" width="24" height="24" viewBox="0 0 24 24" fill="currentColor" tags="climb,hike,rock" categories="nature,gaming">
  <path d="M 7.9296875 2.0019531 A 1.0001 1.0001 0 0 0 7.0507812 2.6835938 L 1.0507812 20.683594 A 1.0001 1.0001 0 0 0 2 22 L 22 22 A 1.0001 1.0001 0 0 0 22.949219 20.683594 L 17.949219 5.6835938 A 1.0001 1.0001 0 0 0 16.292969 5.2929688 L 12.273438 9.3125 L 8.8945312 2.5527344 A 1.0001 1.0001 0 0 0 7.9296875 2.0019531 z M 8.1855469 5.6074219 L 11.105469 11.447266 A 1.0001 1.0001 0 0 0 12.707031 11.707031 L 16.5625 7.8515625 L 20.611328 20 L 3.3886719 20 L 8.1855469 5.6074219 z "/>
</svg>
