<svg xmlns="http://www.w3.org/2000/svg" xmlns:svg="http://www.w3.org/2000/svg" width="24" height="24" viewBox="0 0 24 24" fill="currentColor" tags="alpine,climb,snow" categories="nature">
  <path d="M 7.9296875 2.0019531 A 1.0001 1.0001 0 0 0 7.0507812 2.6835938 L 1.0507812 20.683594 A 1.0001 1.0001 0 0 0 2 22 L 22 22 A 1.0001 1.0001 0 0 0 22.949219 20.683594 L 21.177734 15.373047 L 17.949219 5.6835938 A 1.0001 1.0001 0 0 0 16.292969 5.2929688 L 12.273438 9.3125 L 8.8945312 2.5527344 A 1.0001 1.0001 0 0 0 7.9296875 2.0019531 z M 8.1855469 5.6074219 L 11.105469 11.447266 A 1.0001 1.0001 0 0 0 12.707031 11.707031 L 16.5625 7.8515625 L 19.029297 15.25 C 16.823824 16.468119 14.847591 16.290441 12.578125 14.683594 A 1.0001 1.0001 0 0 0 12.576172 14.683594 C 11.147628 13.674856 9.633964 13.124783 8.1152344 13.044922 C 7.2757593 13.000779 6.4357952 13.09944 5.6074219 13.34375 L 8.1855469 5.6074219 z M 7.6699219 14.962891 C 8.8890786 14.937898 10.102905 15.385391 11.421875 16.316406 C 14.046058 18.174405 16.958685 18.45883 19.664062 17.158203 L 20.611328 20 L 3.3886719 20 L 4.7636719 15.873047 C 5.7694418 15.288287 6.7216889 14.982329 7.6699219 14.962891 z "/>
</svg>
