<svg xmlns="http://www.w3.org/2000/svg" xmlns:svg="http://www.w3.org/2000/svg" width="24" height="24" viewBox="0 0 24 24" fill="currentColor" tags="device,scroll,click,disabled" categories="devices">
  <path d="M 2 1 A 1 1 0 0 0 1.2929688 1.2929688 A 1 1 0 0 0 1.2929688 2.7070312 L 4.5839844 5.9980469 C 4.1990197 6.9497376 3.999564 7.9688741 4 9 L 4 15 C 3.99826 19.116061 6.8347545 21.97864 10.107422 22.775391 C 13.01377 23.482958 16.362847 22.584971 18.400391 19.814453 L 21.292969 22.707031 A 1 1 0 0 0 22.707031 22.707031 A 1 1 0 0 0 22.707031 21.292969 L 18.892578 17.478516 L 6.4570312 5.0429688 L 2.7070312 1.2929688 A 1 1 0 0 0 2 1 z M 12.166016 1.0058594 C 10.799244 0.96726687 9.391525 1.2846337 8.0683594 2.03125 A 1 1 0 0 0 7.6894531 3.3925781 A 1 1 0 0 0 9.0507812 3.7734375 C 13.091988 1.4931255 18.001044 4.3598307 18 9 L 18 13.34375 A 1 1 0 0 0 19 14.34375 A 1 1 0 0 0 20 13.34375 L 20 9 C 20.001 4.4421685 16.266331 1.1216368 12.166016 1.0058594 z M 12 5 A 1 1 0 0 0 11 6 L 11 6.34375 A 1 1 0 0 0 12 7.34375 A 1 1 0 0 0 13 6.34375 L 13 6 A 1 1 0 0 0 12 5 z M 6.1699219 7.5839844 L 16.966797 18.380859 C 15.425824 20.736179 12.883171 21.392733 10.580078 20.832031 C 8.0854112 20.22469 5.998637 18.220826 6 15 L 6 9 C 5.9997974 8.5208235 6.0578408 8.0462064 6.1699219 7.5839844 z "/>
</svg>
