<?xml version="1.0" encoding="UTF-8" standalone="no"?>
<svg xmlns="http://www.w3.org/2000/svg" xmlns:svg="http://www.w3.org/2000/svg" width="24" height="24" viewBox="0 0 24 24" fill="currentColor" tags="click,select" categories="arrows,cursors">
  <path d="M 4.4101562 3.0058594 C 4.3353026 3.0105962 4.2620729 3.0199778 4.1894531 3.0351562 C 3.8983452 3.0960014 3.6305582 3.2366292 3.4335938 3.4335938 C 3.04009 3.8270974 2.8689027 4.5041598 3.1191406 5.0839844 L 3.1191406 5.0859375 L 9.6113281 21.064453 C 9.862347 21.680583 10.519771 22.034668 11.099609 21.996094 C 11.679447 21.957524 12.283981 21.520905 12.451172 20.876953 A 1.0001 1.0001 0 0 0 12.453125 20.875 L 14.03125 14.75 L 14.03125 14.748047 C 14.12337 14.394912 14.396454 14.124093 14.75 14.033203 L 20.875 12.453125 A 1.0001 1.0001 0 0 0 20.876953 12.451172 C 21.520905 12.283981 21.95752 11.679447 21.996094 11.099609 C 22.034664 10.519771 21.680583 9.862347 21.064453 9.6113281 L 5.0859375 3.1191406 L 5.0839844 3.1191406 C 4.8667829 3.0254028 4.6347172 2.991649 4.4101562 3.0058594 z M 5.4082031 5.4082031 L 18.910156 10.892578 L 14.251953 12.095703 C 13.196638 12.367005 12.369208 13.193301 12.095703 14.248047 A 1.0001 1.0001 0 0 0 12.09375 14.25 L 10.892578 18.910156 L 5.4082031 5.4082031 z "/>
</svg>
