<?xml version="1.0" encoding="UTF-8" standalone="no"?>
<svg xmlns="http://www.w3.org/2000/svg" xmlns:svg="http://www.w3.org/2000/svg" width="24" height="24" viewBox="0 0 24 24" fill="currentColor" tags="device,scroll,click,disabled" categories="devices">
  <path d="M 2 1 A 1 1 0 0 0 1.2929688 1.2929688 A 1 1 0 0 0 1.2929688 2.7070312 L 4.5859375 6 C 4.2011665 6.9514814 3.9995641 7.9691383 4 9 L 4 15 C 3.99826 19.116061 6.8347545 21.97864 10.107422 22.775391 C 13.013451 23.48288 16.362782 22.584255 18.400391 19.814453 L 21.292969 22.707031 A 1 1 0 0 0 22.707031 22.707031 A 1 1 0 0 0 22.707031 21.292969 L 18.908203 17.496094 L 6.4726562 5.0605469 L 2.7070312 1.2929688 A 1 1 0 0 0 2 1 z M 12.166016 1.0058594 C 10.799244 0.96726687 9.391525 1.2846337 8.0683594 2.03125 A 1 1 0 0 0 7.6894531 3.3925781 A 1 1 0 0 0 9.0507812 3.7734375 C 13.091988 1.4931255 18.001044 4.3598307 18 9 L 18 13.34375 A 1 1 0 0 0 19 14.34375 A 1 1 0 0 0 20 13.34375 L 20 9 C 20.001 4.4421685 16.266331 1.1216368 12.166016 1.0058594 z M 12 5 A 1 1 0 0 0 11 6 L 11 6.34375 A 1 1 0 0 0 12 7.34375 A 1 1 0 0 0 13 6.34375 L 13 6 A 1 1 0 0 0 12 5 z M 6.1699219 7.5839844 L 16.964844 18.378906 C 15.42387 20.734218 12.883168 21.392733 10.580078 20.832031 C 8.0854112 20.22469 5.998637 18.220826 6 15 L 6 9 C 5.9997976 8.5213635 6.0580909 8.0457155 6.1699219 7.5839844 z "/>
</svg>
