<?xml version="1.0" encoding="UTF-8" standalone="no"?>
<svg xmlns="http://www.w3.org/2000/svg" xmlns:svg="http://www.w3.org/2000/svg" width="24" height="24" viewBox="0 0 24 24" fill="currentColor" tags="click,select" categories="arrows,cursors">
  <path d="M 3.40625 2.0058594 C 3.3319895 2.010891 3.2575664 2.0217024 3.1855469 2.0371094 C 2.8968405 2.0988713 2.6313604 2.2397333 2.4355469 2.4355469 C 2.0443459 2.8267478 1.8726146 3.4961522 2.1152344 4.0742188 L 2.1152344 4.0761719 L 8.6113281 20.0625 A 1.0001 1.0001 0 0 0 8.6132812 20.068359 C 8.8663465 20.680535 9.5197803 21.031974 10.097656 20.994141 C 10.675533 20.956311 11.278129 20.522757 11.449219 19.882812 A 1.0001 1.0001 0 0 0 11.453125 19.875 L 12.888672 14.302734 L 18.292969 19.707031 A 1 1 0 0 0 19.707031 19.707031 A 1 1 0 0 0 19.707031 18.292969 L 14.302734 12.888672 L 19.875 11.453125 A 1.0001 1.0001 0 0 0 19.876953 11.451172 C 20.520904 11.283981 20.95752 10.679447 20.996094 10.099609 C 21.034664 9.5197731 20.680583 8.8623465 20.064453 8.6113281 L 4.0761719 2.1152344 L 4.0742188 2.1152344 C 3.8576775 2.024351 3.6290315 1.9907646 3.40625 2.0058594 z M 4.4082031 4.4082031 L 17.910156 9.8925781 L 13.251953 11.09375 C 12.725298 11.229414 12.257023 11.503983 11.884766 11.875 A 1 1 0 0 0 11.878906 11.878906 A 1 1 0 0 0 11.875 11.882812 C 11.489665 12.270054 11.209466 12.762213 11.080078 13.3125 L 9.8945312 17.910156 L 4.4082031 4.4082031 z "/>
</svg>
