<?xml version="1.0" encoding="UTF-8" standalone="no"?>
<svg xmlns="http://www.w3.org/2000/svg" xmlns:svg="http://www.w3.org/2000/svg" width="24" height="24" viewBox="0 0 24 24" fill="currentColor" tags="device,scroll,click" categories="devices">
  
  <path d="M 12 1 C 7.585306 1 4 4.585306 4 9 L 4 15 C 4 19.414694 7.585306 23 12 23 C 16.414694 23 20 19.414694 20 15 L 20 9 C 20 4.585306 16.414694 1 12 1 z M 12 3 C 15.341291 3 18 5.6587094 18 9 L 18 15 C 18 18.341291 15.341291 21 12 21 C 8.6587094 21 6 18.341291 6 15 L 6 9 C 6 5.6587094 8.6587094 3 12 3 z M 12 5 A 1 1 0 0 0 11 6 L 11 10 A 1 1 0 0 0 12 11 A 1 1 0 0 0 13 10 L 13 6 A 1 1 0 0 0 12 5 z "/>
</svg>
