<svg xmlns="http://www.w3.org/2000/svg" xmlns:svg="http://www.w3.org/2000/svg" width="24" height="24" viewBox="0 0 24 24" fill="currentColor" tags="device,scroll,click" categories="devices">
  <path d="M 12 1 C 7.5852972 1 4 4.5852972 4 9 L 4 15 C 4 19.414703 7.5852972 23 12 23 C 16.414703 23 20 19.414703 20 15 L 20 9 C 20 4.5852972 16.414703 1 12 1 z M 12 3 C 15.341297 3 18 5.6587028 18 9 L 18 15 C 18 18.341297 15.341297 21 12 21 C 8.6587028 21 6 18.341297 6 15 L 6 9 C 6 5.6587028 8.6587028 3 12 3 z M 12 5 A 1 1 0 0 0 11 6 L 11 10 A 1 1 0 0 0 12 11 A 1 1 0 0 0 13 10 L 13 6 A 1 1 0 0 0 12 5 z "/>
</svg>
