<?xml version="1.0" encoding="UTF-8" standalone="no"?>
<svg xmlns="http://www.w3.org/2000/svg" xmlns:svg="http://www.w3.org/2000/svg" width="24" height="24" viewBox="0 0 24 24" fill="currentColor" tags="click,select" categories="arrows,cursors">
  <path d="M 7.1914062 1.1992188 A 1 1 0 0 0 6.9335938 1.2363281 A 1 1 0 0 0 6.2363281 2.4667969 L 7.0351562 5.3652344 A 1 1 0 0 0 8.265625 6.0644531 A 1 1 0 0 0 8.9648438 4.8339844 L 8.1640625 1.9335938 A 1 1 0 0 0 7.1914062 1.1992188 z M 14.025391 3.1015625 A 1 1 0 0 0 13.310547 3.375 L 11.310547 5.2753906 A 1 1 0 0 0 11.275391 6.6894531 A 1 1 0 0 0 12.689453 6.7246094 L 14.689453 4.8242188 A 1 1 0 0 0 14.724609 3.4121094 A 1 1 0 0 0 14.025391 3.1015625 z M 2.2089844 6.1992188 A 1 1 0 0 0 1.2363281 6.9335938 A 1 1 0 0 0 1.9335938 8.1640625 L 4.8339844 8.9648438 A 1 1 0 0 0 6.0644531 8.265625 A 1 1 0 0 0 5.3652344 7.0351562 L 2.4667969 6.2363281 A 1 1 0 0 0 2.2089844 6.1992188 z M 9.4082031 8.0058594 C 9.3335884 8.0108498 9.2599045 8.0217119 9.1875 8.0371094 C 8.8978821 8.0986994 8.6318641 8.2392296 8.4355469 8.4355469 C 8.0429124 8.8281814 7.8711538 9.5004866 8.1171875 10.080078 L 12.611328 21.068359 C 12.864725 21.689999 13.533541 22.04351 14.117188 21.998047 C 14.699953 21.952657 15.303777 21.499444 15.458984 20.847656 L 15.458984 20.845703 L 16.5 16.5 L 20.847656 15.458984 C 21.499628 15.303809 21.950646 14.698066 21.996094 14.115234 C 22.041544 13.532403 21.690351 12.86569 21.070312 12.611328 A 1.0001 1.0001 0 0 0 21.068359 12.611328 L 10.080078 8.1171875 C 9.8627313 8.0249249 9.6320473 7.9908882 9.4082031 8.0058594 z M 10.414062 10.414062 L 18.873047 13.875 L 16.035156 14.554688 C 15.304982 14.729095 14.730083 15.303265 14.554688 16.033203 L 13.875 18.873047 L 10.414062 10.414062 z M 5.9746094 11 A 1 1 0 0 0 5.2753906 11.310547 L 3.375 13.310547 A 1 1 0 0 0 3.4121094 14.724609 A 1 1 0 0 0 4.8242188 14.689453 L 6.7246094 12.689453 A 1 1 0 0 0 6.6894531 11.275391 A 1 1 0 0 0 5.9746094 11 z "/>
</svg>
