<?xml version="1.0" encoding="UTF-8" standalone="no"?>
<svg xmlns="http://www.w3.org/2000/svg" xmlns:svg="http://www.w3.org/2000/svg" width="24" height="24" viewBox="0 0 24 24" fill="currentColor" tags="wait,busy,loading,blocked,frozen,freeze" categories="arrows,cursors">
  <path d="M 1.9707031 1.0019531 A 1.0001 1.0001 0 0 0 1.0605469 2.3417969 L 5.0605469 13.341797 A 1.0001 1.0001 0 0 0 6.9277344 13.371094 L 8.7695312 8.7695312 L 13.371094 6.9277344 A 1.0001 1.0001 0 0 0 13.341797 5.0605469 L 2.3417969 1.0605469 A 1.0001 1.0001 0 0 0 1.9707031 1.0019531 z M 3.671875 3.671875 L 10.197266 6.0449219 L 7.6289062 7.0722656 A 1.0001 1.0001 0 0 0 7.0722656 7.6289062 L 6.0449219 10.197266 L 3.671875 3.671875 z M 16 9 C 12.145859 9 9 12.145859 9 16 C 9 19.854141 12.145859 23 16 23 C 19.854141 23 23 19.854141 23 16 C 23 12.145859 19.854141 9 16 9 z M 16 11 C 18.773263 11 21 13.226737 21 16 C 21 17.022675 20.695179 17.969988 20.173828 18.759766 L 13.240234 11.826172 C 14.030012 11.304821 14.977325 11 16 11 z M 11.826172 13.240234 L 18.759766 20.173828 C 17.969988 20.695179 17.022675 21 16 21 C 13.226737 21 11 18.773263 11 16 C 11 14.977325 11.304821 14.030012 11.826172 13.240234 z "/>
</svg>
