<?xml version="1.0" encoding="UTF-8" standalone="no"?>
<svg xmlns="http://www.w3.org/2000/svg" xmlns:svg="http://www.w3.org/2000/svg" width="24" height="24" viewBox="0 0 24 24" fill="currentColor" tags="inspector,element,mouse,click,pointer,box,browser,selector,target,dom,node" categories="arrows,cursors,development,tools">
  <path d="M 5 2 C 3.3549936 2 2 3.3549936 2 5 A 1 1 0 0 0 3 6 A 1 1 0 0 0 4 5 C 4 4.4358718 4.4358718 4 5 4 A 1 1 0 0 0 6 3 A 1 1 0 0 0 5 2 z M 9 2 A 1 1 0 0 0 8 3 A 1 1 0 0 0 9 4 L 10 4 A 1 1 0 0 0 11 3 A 1 1 0 0 0 10 2 L 9 2 z M 14 2 A 1 1 0 0 0 13 3 A 1 1 0 0 0 14 4 L 15 4 A 1 1 0 0 0 16 3 A 1 1 0 0 0 15 2 L 14 2 z M 19 2 A 1 1 0 0 0 18 3 A 1 1 0 0 0 19 4 C 19.564128 4 20 4.4358718 20 5 A 1 1 0 0 0 21 6 A 1 1 0 0 0 22 5 C 22 3.3549936 20.645006 2 19 2 z M 3 8 A 1 1 0 0 0 2 9 L 2 10 A 1 1 0 0 0 3 11 A 1 1 0 0 0 4 10 L 4 9 A 1 1 0 0 0 3 8 z M 21 8 A 1 1 0 0 0 20 9 L 20 11 A 1 1 0 0 0 21 12 A 1 1 0 0 0 22 11 L 22 9 A 1 1 0 0 0 21 8 z M 12.046875 11.001953 A 1.0001 1.0001 0 0 0 11.072266 12.371094 L 15.072266 22.371094 A 1.0001 1.0001 0 0 0 16.929688 22.367188 L 18.470703 18.470703 L 22.367188 16.929688 A 1.0001 1.0001 0 0 0 22.371094 15.072266 L 12.371094 11.072266 A 1.0001 1.0001 0 0 0 12.046875 11.001953 z M 3 13 A 1 1 0 0 0 2 14 L 2 15 A 1 1 0 0 0 3 16 A 1 1 0 0 0 4 15 L 4 14 A 1 1 0 0 0 3 13 z M 13.792969 13.792969 L 19.294922 15.994141 L 17.332031 16.769531 A 1.0001 1.0001 0 0 0 16.769531 17.332031 L 15.994141 19.294922 L 13.792969 13.792969 z M 3 18 A 1 1 0 0 0 2 19 C 2 20.645006 3.3549936 22 5 22 A 1 1 0 0 0 6 21 A 1 1 0 0 0 5 20 C 4.4358718 20 4 19.564128 4 19 A 1 1 0 0 0 3 18 z M 9 20 A 1 1 0 0 0 8 21 A 1 1 0 0 0 9 22 L 11 22 A 1 1 0 0 0 12 21 A 1 1 0 0 0 11 20 L 9 20 z "/>
</svg>
