<?xml version="1.0" encoding="UTF-8" standalone="no"?>
<svg xmlns="http://www.w3.org/2000/svg" xmlns:svg="http://www.w3.org/2000/svg" width="24" height="24" viewBox="0 0 24 24" fill="currentColor" tags="wait,busy,loading,blocked,frozen,freeze" categories="arrows,cursors">
  <path d="M 2.6113281 1.0058594 C 2.4633756 0.99611627 2.3155721 1.0093365 2.1738281 1.0410156 C 1.8903401 1.1043739 1.6306665 1.2443335 1.4375 1.4375 C 1.0511669 1.8238331 0.87682959 2.4771847 1.1054688 3.0507812 L 4.6015625 12.042969 C 4.8390324 12.656244 5.4774477 13.020111 6.0527344 13 C 6.628021 12.979889 7.2395286 12.57172 7.4335938 11.943359 L 8.5 8.5 L 11.943359 7.4335938 C 12.57172 7.2395285 12.979889 6.628021 13 6.0527344 C 13.020111 5.4774477 12.656244 4.8390324 12.042969 4.6015625 L 3.0507812 1.1054688 C 2.9073821 1.048309 2.7592806 1.0156025 2.6113281 1.0058594 z M 3.3789062 3.3789062 L 9.9824219 5.9472656 L 7.9082031 6.5898438 C 7.2783053 6.7845926 6.7826395 7.2802584 6.5878906 7.9101562 L 5.9472656 9.9824219 L 3.3789062 3.3789062 z M 16 9 C 12.145851 9 9 12.145851 9 16 C 9 19.854149 12.145851 23 16 23 C 19.854149 23 23 19.854149 23 16 C 23 12.145851 19.854149 9 16 9 z M 16 11 C 18.773268 11 21 13.226732 21 16 C 21 17.022929 20.697369 17.971823 20.175781 18.761719 L 13.238281 11.824219 C 14.028177 11.302631 14.977071 11 16 11 z M 11.824219 13.238281 L 18.761719 20.175781 C 17.971823 20.697369 17.022929 21 16 21 C 13.226732 21 11 18.773268 11 16 C 11 14.977071 11.302631 14.028177 11.824219 13.238281 z "/>
</svg>
