<svg xmlns="http://www.w3.org/2000/svg" xmlns:svg="http://www.w3.org/2000/svg" width="24" height="24" viewBox="0 0 24 24" fill="currentColor" tags="double,arrow" categories="arrows,cursors">
  <path d="M 5 4 A 1.0001 1.0001 0 0 0 4.0761719 4.6171875 A 1.0001 1.0001 0 0 0 4.0078125 4.8691406 A 1.0001 1.0001 0 0 0 4 5 L 4 11 A 1 1 0 0 0 5 12 A 1 1 0 0 0 6 11 L 6 7.4140625 L 16.585938 18 L 13 18 A 1 1 0 0 0 12 19 A 1 1 0 0 0 13 20 L 19 20 A 1.0001 1.0001 0 0 0 19.130859 19.992188 A 1.0001 1.0001 0 0 0 19.382812 19.923828 A 1 1 0 0 0 19.707031 19.707031 A 1 1 0 0 0 19.792969 19.609375 A 1.0001 1.0001 0 0 0 19.923828 19.382812 A 1.0001 1.0001 0 0 0 19.992188 19.130859 A 1.0001 1.0001 0 0 0 20 19 L 20 13 A 1 1 0 0 0 19 12 A 1 1 0 0 0 18 13 L 18 16.585938 L 7.4140625 6 L 11 6 A 1 1 0 0 0 12 5 A 1 1 0 0 0 11 4 L 5 4 z "/>
</svg>
