<?xml version="1.0" encoding="UTF-8" standalone="no"?>
<svg xmlns="http://www.w3.org/2000/svg" xmlns:svg="http://www.w3.org/2000/svg" width="24" height="24" viewBox="0 0 24 24" fill="currentColor" tags="arrows" categories="arrows,cursors">
  <path d="M 12 1 A 1.0001 1.0001 0 0 0 11.666016 1.0664062 A 1 1 0 0 0 11.576172 1.1035156 A 1.0001 1.0001 0 0 0 11.292969 1.2929688 L 8.2929688 4.2929688 A 1 1 0 0 0 8.2929688 5.7070312 A 1 1 0 0 0 9.7070312 5.7070312 L 11 4.4140625 L 11 11 L 4.4140625 11 L 5.7070312 9.7070312 A 1 1 0 0 0 5.7070312 8.2929688 A 1 1 0 0 0 5 8 A 1 1 0 0 0 4.2929688 8.2929688 L 1.2929688 11.292969 A 1.0001 1.0001 0 0 0 1.1035156 11.576172 A 1 1 0 0 0 1.0664062 11.666016 A 1.0001 1.0001 0 0 0 1.0664062 12.333984 A 1 1 0 0 0 1.1035156 12.423828 A 1.0001 1.0001 0 0 0 1.2929688 12.707031 L 4.2929688 15.707031 A 1 1 0 0 0 5.7070312 15.707031 A 1 1 0 0 0 5.7070312 14.292969 L 4.4140625 13 L 11 13 L 11 19.585938 L 9.7070312 18.292969 A 1 1 0 0 0 9 18 A 1 1 0 0 0 8.2929688 18.292969 A 1 1 0 0 0 8.2929688 19.707031 L 11.292969 22.707031 A 1.0001 1.0001 0 0 0 11.576172 22.896484 A 1 1 0 0 0 11.666016 22.933594 A 1.0001 1.0001 0 0 0 12 23 A 1.0001 1.0001 0 0 0 12.333984 22.933594 A 1 1 0 0 0 12.423828 22.896484 A 1.0001 1.0001 0 0 0 12.707031 22.707031 L 15.707031 19.707031 A 1 1 0 0 0 15.707031 18.292969 A 1 1 0 0 0 14.292969 18.292969 L 13 19.585938 L 13 13 L 19.585938 13 L 18.292969 14.292969 A 1 1 0 0 0 18.292969 15.707031 A 1 1 0 0 0 19.707031 15.707031 L 22.707031 12.707031 A 1.0001 1.0001 0 0 0 22.923828 12.382812 A 1 1 0 0 0 22.925781 12.376953 A 1.0001 1.0001 0 0 0 22.994141 11.894531 A 1 1 0 0 0 22.984375 11.826172 A 1.0001 1.0001 0 0 0 22.980469 11.808594 A 1 1 0 0 0 22.939453 11.658203 A 1.0001 1.0001 0 0 0 22.923828 11.617188 A 1 1 0 0 0 22.916016 11.601562 A 1.0001 1.0001 0 0 0 22.792969 11.390625 A 1 1 0 0 0 22.779297 11.375 A 1.0001 1.0001 0 0 0 22.707031 11.292969 L 19.707031 8.2929688 A 1 1 0 0 0 18.292969 8.2929688 A 1 1 0 0 0 18.292969 9.7070312 L 19.585938 11 L 13 11 L 13 4.4140625 L 14.292969 5.7070312 A 1 1 0 0 0 15.707031 5.7070312 A 1 1 0 0 0 15.707031 4.2929688 L 12.707031 1.2929688 A 1 1 0 0 0 12.5 1.1347656 A 1 1 0 0 0 12 1 z "/>
</svg>
