<?xml version="1.0" encoding="UTF-8" standalone="no"?>
<svg xmlns="http://www.w3.org/2000/svg" xmlns:svg="http://www.w3.org/2000/svg" width="24" height="24" viewBox="0 0 24 24" fill="currentColor" tags="arrows,axis,gizmo,coordinates,transform,translate" categories="design">
  <path d="M 5 2 A 1.0001 1.0001 0 0 0 4.7949219 2.0234375 A 1 1 0 0 0 4.6113281 2.078125 A 1.0001 1.0001 0 0 0 4.5 2.1347656 A 1 1 0 0 0 4.4394531 2.1757812 A 1.0001 1.0001 0 0 0 4.3847656 2.2128906 A 1 1 0 0 0 4.3417969 2.25 A 1.0001 1.0001 0 0 0 4.2929688 2.2929688 A 1 1 0 0 0 4.2832031 2.3027344 L 1.2929688 5.2929688 A 1 1 0 0 0 1.2929688 6.7070312 A 1 1 0 0 0 2.7070312 6.7070312 L 4 5.4140625 L 4 19 A 1.0001 1.0001 0 0 0 5 20 L 18.585938 20 L 17.292969 21.292969 A 1 1 0 0 0 17.292969 22.707031 A 1 1 0 0 0 18.707031 22.707031 L 21.697266 19.716797 A 1 1 0 0 0 21.707031 19.707031 A 1.0001 1.0001 0 0 0 21.785156 19.619141 A 1 1 0 0 0 21.792969 19.609375 A 1.0001 1.0001 0 0 0 21.861328 19.507812 A 1 1 0 0 0 21.865234 19.5 A 1.0001 1.0001 0 0 0 21.921875 19.388672 A 1 1 0 0 0 21.923828 19.382812 A 1 1 0 0 0 21.964844 19.257812 A 1.0001 1.0001 0 0 0 21.976562 19.205078 A 1.0001 1.0001 0 0 0 22 19 A 1.0001 1.0001 0 0 0 21.976562 18.794922 A 1.0001 1.0001 0 0 0 21.964844 18.742188 A 1 1 0 0 0 21.923828 18.617188 A 1.0001 1.0001 0 0 0 21.921875 18.611328 A 1 1 0 0 0 21.865234 18.5 A 1.0001 1.0001 0 0 0 21.861328 18.492188 A 1 1 0 0 0 21.792969 18.390625 A 1.0001 1.0001 0 0 0 21.785156 18.380859 A 1 1 0 0 0 21.707031 18.292969 L 21.697266 18.283203 L 18.707031 15.292969 A 1 1 0 0 0 17.292969 15.292969 A 1 1 0 0 0 17.292969 16.707031 L 18.585938 18 L 7.4140625 18 L 11.707031 13.707031 A 1 1 0 0 0 11.707031 12.292969 A 1 1 0 0 0 11 12 A 1 1 0 0 0 10.292969 12.292969 L 6 16.585938 L 6 5.4140625 L 7.2929688 6.7070312 A 1 1 0 0 0 8.7070312 6.7070312 A 1 1 0 0 0 8.7070312 5.2929688 L 5.7167969 2.3027344 A 1 1 0 0 0 5.6582031 2.25 A 1.0001 1.0001 0 0 0 5.6152344 2.2128906 A 1 1 0 0 0 5.5605469 2.1757812 A 1.0001 1.0001 0 0 0 5.3828125 2.0761719 A 1 1 0 0 0 5.2578125 2.0351562 A 1.0001 1.0001 0 0 0 5 2 z "/>
</svg>
