<?xml version="1.0" encoding="UTF-8" standalone="no"?>
<svg xmlns="http://www.w3.org/2000/svg" xmlns:svg="http://www.w3.org/2000/svg" width="24" height="24" viewBox="0 0 24 24" fill="currentColor" tags="double,arrow" categories="arrows,cursors">
  <path d="M 6 7 A 1 1 0 0 0 5.2929688 7.2929688 L 1.2929688 11.292969 A 1.0001 1.0001 0 0 0 1.1035156 11.576172 A 1 1 0 0 0 1.0664062 11.666016 A 1.0001 1.0001 0 0 0 1 12 A 1.0001 1.0001 0 0 0 1.0664062 12.333984 A 1 1 0 0 0 1.1035156 12.423828 A 1.0001 1.0001 0 0 0 1.2929688 12.707031 L 5.2929688 16.707031 A 1 1 0 0 0 6.7070312 16.707031 A 1 1 0 0 0 6.7070312 15.292969 L 4.4140625 13 L 19.585938 13 L 17.292969 15.292969 A 1 1 0 0 0 17.292969 16.707031 A 1 1 0 0 0 18.707031 16.707031 L 22.707031 12.707031 A 1.0001 1.0001 0 0 0 22.994141 11.902344 A 1 1 0 0 0 22.980469 11.804688 A 1.0001 1.0001 0 0 0 22.974609 11.785156 A 1 1 0 0 0 22.957031 11.708984 A 1.0001 1.0001 0 0 0 22.865234 11.5 A 1 1 0 0 0 22.853516 11.482422 A 1.0001 1.0001 0 0 0 22.792969 11.390625 A 1 1 0 0 0 22.787109 11.384766 A 1.0001 1.0001 0 0 0 22.707031 11.292969 L 18.707031 7.2929688 A 1 1 0 0 0 17.292969 7.2929688 A 1 1 0 0 0 17.292969 8.7070312 L 19.585938 11 L 4.4140625 11 L 6.7070312 8.7070312 A 1 1 0 0 0 6.7070312 7.2929688 A 1 1 0 0 0 6 7 z "/>
</svg>
