<?xml version="1.0" encoding="UTF-8" standalone="no"?>
<svg xmlns="http://www.w3.org/2000/svg" xmlns:svg="http://www.w3.org/2000/svg" width="24" height="24" viewBox="0 0 24 24" fill="currentColor" tags="arrow,direction" categories="arrows">
  <path d="M 5 4 A 1.0001 1.0001 0 0 0 4.0761719 4.6171875 A 1.0001 1.0001 0 0 0 4.0078125 4.8691406 A 1.0001 1.0001 0 0 0 4 5 L 4 11 A 1 1 0 0 0 5 12 A 1 1 0 0 0 6 11 L 6 7.4140625 L 18.292969 19.707031 A 1 1 0 0 0 19.707031 19.707031 A 1 1 0 0 0 19.707031 18.292969 L 7.4140625 6 L 11 6 A 1 1 0 0 0 12 5 A 1 1 0 0 0 11 4 L 5 4 z "/>
</svg>
