<svg xmlns="http://www.w3.org/2000/svg" xmlns:svg="http://www.w3.org/2000/svg" width="24" height="24" viewBox="0 0 24 24" fill="currentColor" tags="double,arrow" categories="arrows,cursors">
  <path d="M 13 4 A 1 1 0 0 0 12 5 A 1 1 0 0 0 13 6 L 16.585938 6 L 6 16.585938 L 6 13 A 1 1 0 0 0 5 12 A 1 1 0 0 0 4 13 L 4 19 A 1.0001 1.0001 0 0 0 4.0078125 19.130859 A 1.0001 1.0001 0 0 0 4.0761719 19.382812 A 1.0001 1.0001 0 0 0 4.6171875 19.923828 A 1.0001 1.0001 0 0 0 4.8691406 19.992188 A 1.0001 1.0001 0 0 0 5 20 L 11 20 A 1 1 0 0 0 12 19 A 1 1 0 0 0 11 18 L 7.4140625 18 L 18 7.4140625 L 18 11 A 1 1 0 0 0 19 12 A 1 1 0 0 0 20 11 L 20 5 A 1.0001 1.0001 0 0 0 19.992188 4.8691406 A 1.0001 1.0001 0 0 0 19.923828 4.6171875 A 1.0001 1.0001 0 0 0 19.707031 4.2929688 A 1 1 0 0 0 19.382812 4.0761719 A 1.0001 1.0001 0 0 0 19.130859 4.0078125 A 1.0001 1.0001 0 0 0 19 4 L 13 4 z "/>
</svg>
