<svg xmlns="http://www.w3.org/2000/svg" xmlns:svg="http://www.w3.org/2000/svg" width="24" height="24" viewBox="0 0 24 24" fill="currentColor" tags="arrows" categories="arrows,cursors">
  <path d="M 12 1 A 1.0001 1.0001 0 0 0 11.794922 1.0234375 A 1 1 0 0 0 11.742188 1.0351562 A 1 1 0 0 0 11.617188 1.0761719 A 1 1 0 0 0 11.611328 1.078125 A 1.0001 1.0001 0 0 0 11.5 1.1347656 A 1 1 0 0 0 11.439453 1.1757812 A 1.0001 1.0001 0 0 0 11.384766 1.2128906 A 1 1 0 0 0 11.341797 1.25 A 1.0001 1.0001 0 0 0 11.292969 1.2929688 A 1 1 0 0 0 11.283203 1.3027344 L 8.2929688 4.2929688 A 1 1 0 0 0 8.2929688 5.7070312 A 1 1 0 0 0 9.7070312 5.7070312 L 11 4.4140625 L 11 11 L 4.4140625 11 L 5.7070312 9.7070312 A 1 1 0 0 0 5.7070312 8.2929688 A 1 1 0 0 0 5 8 A 1 1 0 0 0 4.2929688 8.2929688 L 1.2929688 11.292969 A 1.0001 1.0001 0 0 0 1.25 11.341797 A 1 1 0 0 0 1.2128906 11.384766 A 1.0001 1.0001 0 0 0 1.1757812 11.439453 A 1 1 0 0 0 1.1386719 11.492188 A 1.0001 1.0001 0 0 0 1.1347656 11.5 A 1 1 0 0 0 1.078125 11.611328 A 1.0001 1.0001 0 0 0 1.0761719 11.617188 A 1 1 0 0 0 1.0234375 11.794922 A 1.0001 1.0001 0 0 0 1.0351562 12.257812 A 1 1 0 0 0 1.078125 12.388672 A 1.0001 1.0001 0 0 0 1.1347656 12.5 A 1 1 0 0 0 1.1757812 12.560547 A 1.0001 1.0001 0 0 0 1.2128906 12.615234 A 1 1 0 0 0 1.25 12.658203 A 1.0001 1.0001 0 0 0 1.2929688 12.707031 A 1 1 0 0 0 1.3027344 12.716797 L 4.2929688 15.707031 A 1 1 0 0 0 5.7070312 15.707031 A 1 1 0 0 0 5.7070312 14.292969 L 4.4140625 13 L 11 13 L 11 19.585938 L 9.7070312 18.292969 A 1 1 0 0 0 9 18 A 1 1 0 0 0 8.2929688 18.292969 A 1 1 0 0 0 8.2929688 19.707031 L 11.292969 22.707031 A 1.0001 1.0001 0 0 0 11.341797 22.75 A 1 1 0 0 0 11.384766 22.787109 A 1.0001 1.0001 0 0 0 11.439453 22.824219 A 1 1 0 0 0 11.492188 22.861328 A 1.0001 1.0001 0 0 0 11.5 22.865234 A 1 1 0 0 0 11.611328 22.921875 A 1.0001 1.0001 0 0 0 11.617188 22.923828 A 1 1 0 0 0 11.794922 22.976562 A 1.0001 1.0001 0 0 0 12.257812 22.964844 A 1 1 0 0 0 12.382812 22.923828 A 1.0001 1.0001 0 0 0 12.560547 22.824219 A 1 1 0 0 0 12.615234 22.787109 A 1.0001 1.0001 0 0 0 12.658203 22.75 A 1 1 0 0 0 12.716797 22.697266 L 15.707031 19.707031 A 1 1 0 0 0 15.707031 18.292969 A 1 1 0 0 0 14.292969 18.292969 L 13 19.585938 L 13 13 L 19.585938 13 L 18.292969 14.292969 A 1 1 0 0 0 18.292969 15.707031 A 1 1 0 0 0 19.707031 15.707031 L 22.697266 12.716797 A 1 1 0 0 0 22.707031 12.707031 A 1.0001 1.0001 0 0 0 22.785156 12.619141 A 1 1 0 0 0 22.792969 12.609375 A 1.0001 1.0001 0 0 0 22.861328 12.507812 A 1 1 0 0 0 22.865234 12.5 A 1.0001 1.0001 0 0 0 22.921875 12.388672 A 1 1 0 0 0 22.964844 12.257812 A 1.0001 1.0001 0 0 0 22.964844 11.742188 A 1 1 0 0 0 22.923828 11.617188 A 1.0001 1.0001 0 0 0 22.921875 11.611328 A 1 1 0 0 0 22.865234 11.5 A 1.0001 1.0001 0 0 0 22.861328 11.492188 A 1 1 0 0 0 22.792969 11.390625 A 1.0001 1.0001 0 0 0 22.785156 11.380859 A 1 1 0 0 0 22.707031 11.292969 L 19.707031 8.2929688 A 1 1 0 0 0 18.292969 8.2929688 A 1 1 0 0 0 18.292969 9.7070312 L 19.585938 11 L 13 11 L 13 4.4140625 L 14.292969 5.7070312 A 1 1 0 0 0 15.707031 5.7070312 A 1 1 0 0 0 15.707031 4.2929688 L 12.716797 1.3027344 A 1 1 0 0 0 12.658203 1.25 A 1.0001 1.0001 0 0 0 12.615234 1.2128906 A 1 1 0 0 0 12.560547 1.1757812 A 1.0001 1.0001 0 0 0 12.382812 1.0761719 A 1 1 0 0 0 12.257812 1.0351562 A 1.0001 1.0001 0 0 0 12.205078 1.0234375 A 1.0001 1.0001 0 0 0 12 1 z "/>
</svg>
