<svg xmlns="http://www.w3.org/2000/svg" xmlns:svg="http://www.w3.org/2000/svg" width="24" height="24" viewBox="0 0 24 24" fill="currentColor" tags="arrow,direction" categories="arrows">
  <path d="M 5 4 A 1 1 0 0 0 4.2929688 4.2929688 A 1 1 0 0 0 4.2929688 5.7070312 L 16.585938 18 L 13 18 A 1 1 0 0 0 12 19 A 1 1 0 0 0 13 20 L 19 20 A 1.0001 1.0001 0 0 0 19.130859 19.992188 A 1.0001 1.0001 0 0 0 19.382812 19.923828 A 1 1 0 0 0 19.707031 19.707031 A 1 1 0 0 0 19.792969 19.609375 A 1.0001 1.0001 0 0 0 19.923828 19.382812 A 1.0001 1.0001 0 0 0 19.992188 19.130859 A 1.0001 1.0001 0 0 0 20 19 L 20 13 A 1 1 0 0 0 19 12 A 1 1 0 0 0 18 13 L 18 16.585938 L 5.7070312 4.2929688 A 1 1 0 0 0 5 4 z "/>
</svg>
