<?xml version="1.0" encoding="UTF-8" standalone="no"?>
<svg xmlns="http://www.w3.org/2000/svg" xmlns:svg="http://www.w3.org/2000/svg" width="24" height="24" viewBox="0 0 24 24" fill="currentColor" tags="double,arrow" categories="arrows,cursors">
  <path d="M 6 7 A 1 1 0 0 0 5.2929688 7.2929688 L 1.3027344 11.283203 L 1.2929688 11.292969 A 1.0001 1.0001 0 0 0 1.25 11.341797 A 1 1 0 0 0 1.2128906 11.384766 A 1.0001 1.0001 0 0 0 1.1757812 11.439453 A 1 1 0 0 0 1.1386719 11.492188 A 1.0001 1.0001 0 0 0 1.1347656 11.5 A 1 1 0 0 0 1.078125 11.611328 A 1.0001 1.0001 0 0 0 1.0761719 11.617188 A 1 1 0 0 0 1.0351562 11.742188 A 1 1 0 0 0 1.0234375 11.794922 A 1.0001 1.0001 0 0 0 1 12 A 1.0001 1.0001 0 0 0 1.0234375 12.205078 A 1.0001 1.0001 0 0 0 1.0351562 12.257812 A 1 1 0 0 0 1.0761719 12.382812 A 1 1 0 0 0 1.078125 12.388672 A 1.0001 1.0001 0 0 0 1.1347656 12.5 A 1 1 0 0 0 1.1757812 12.560547 A 1.0001 1.0001 0 0 0 1.2128906 12.615234 A 1 1 0 0 0 1.25 12.658203 A 1.0001 1.0001 0 0 0 1.2929688 12.707031 A 1 1 0 0 0 1.3027344 12.716797 L 5.2929688 16.707031 A 1 1 0 0 0 6.7070312 16.707031 A 1 1 0 0 0 6.7070312 15.292969 L 4.4140625 13 L 19.585938 13 L 17.292969 15.292969 A 1 1 0 0 0 17.292969 16.707031 A 1 1 0 0 0 18.707031 16.707031 L 22.697266 12.716797 A 1 1 0 0 0 22.707031 12.707031 A 1.0001 1.0001 0 0 0 22.785156 12.619141 A 1 1 0 0 0 22.792969 12.609375 A 1.0001 1.0001 0 0 0 22.861328 12.507812 A 1 1 0 0 0 22.865234 12.5 A 1.0001 1.0001 0 0 0 22.921875 12.388672 A 1 1 0 0 0 22.964844 12.257812 A 1.0001 1.0001 0 0 0 22.964844 11.742188 A 1 1 0 0 0 22.923828 11.617188 A 1.0001 1.0001 0 0 0 22.921875 11.611328 A 1 1 0 0 0 22.865234 11.5 A 1.0001 1.0001 0 0 0 22.861328 11.492188 A 1 1 0 0 0 22.792969 11.390625 A 1.0001 1.0001 0 0 0 22.785156 11.380859 A 1 1 0 0 0 22.707031 11.292969 L 18.707031 7.2929688 A 1 1 0 0 0 17.292969 7.2929688 A 1 1 0 0 0 17.292969 8.7070312 L 19.585938 11 L 4.4140625 11 L 6.7070312 8.7070312 A 1 1 0 0 0 6.7070312 7.2929688 A 1 1 0 0 0 6 7 z "/>
</svg>
