<?xml version="1.0" encoding="UTF-8" standalone="no"?>
<svg xmlns="http://www.w3.org/2000/svg" xmlns:svg="http://www.w3.org/2000/svg" width="24" height="24" viewBox="0 0 24 24" fill="currentColor" tags="crotchet,minim,quarter note,half note,note" categories="multimedia,files">
  <path d="M 16 1 A 1 1 0 0 0 15 2 L 15 14.007812 C 14.162826 13.376282 13.12305 13 12 13 C 9.2504209 13 7 15.250421 7 18 C 7 20.749579 9.2504209 23 12 23 C 14.749579 23 17 20.749579 17 18 L 17 2 A 1 1 0 0 0 16 1 z M 12 15 C 13.668699 15 15 16.331301 15 18 C 15 19.668699 13.668699 21 12 21 C 10.331301 21 9 19.668699 9 18 C 9 16.331301 10.331301 15 12 15 z "/>
</svg>
