<?xml version="1.0" encoding="UTF-8" standalone="no"?>
<svg xmlns="http://www.w3.org/2000/svg" xmlns:svg="http://www.w3.org/2000/svg" width="24" height="24" viewBox="0 0 24 24" fill="currentColor" tags="quaver,eighth note,note" categories="multimedia,files">
  <path d="M 12.169922 1.0136719 A 1.0001 1.0001 0 0 0 11 2 L 11 14.007812 C 10.162689 13.375917 9.1234061 13 8 13 C 5.2504263 13 3 15.250427 3 18 C 3 20.749573 5.2504263 23 8 23 C 10.749573 23 13 20.749573 13 18 L 13 3.7246094 L 18.503906 6.8691406 A 1 1 0 0 0 19.869141 6.4960938 A 1 1 0 0 0 19.496094 5.1308594 L 12.496094 1.1308594 A 1.0001 1.0001 0 0 0 12.169922 1.0136719 z M 8 15 C 9.6686955 15 11 16.331305 11 18 C 11 19.668695 9.6686955 21 8 21 C 6.3313045 21 5 19.668695 5 18 C 5 16.331305 6.3313045 15 8 15 z "/>
</svg>
