<?xml version="1.0" encoding="UTF-8" standalone="no"?>
<svg xmlns="http://www.w3.org/2000/svg" xmlns:svg="http://www.w3.org/2000/svg" width="24" height="24" viewBox="0 0 24 24" fill="currentColor" tags="note,quaver,eighth note" categories="multimedia,files">
  <path d="M 20.835938 2.0136719 L 8.8359375 4.0136719 A 1.0001 1.0001 0 0 0 8 5 L 8 14.541016 C 7.4104464 14.197422 6.7269006 14 6 14 C 3.8027056 14 2 15.802706 2 18 C 2 20.197294 3.8027056 22 6 22 C 8.1972944 22 10 20.197294 10 18 L 10 5.8476562 L 20 4.1796875 L 20 12.541016 C 19.410446 12.197422 18.7269 12 18 12 C 15.802706 12 14 13.802706 14 16 C 14 18.197294 15.802706 20 18 20 C 20.197294 20 22 18.197294 22 16 L 22 3 A 1.0001 1.0001 0 0 0 20.835938 2.0136719 z M 18 14 C 19.116414 14 20 14.883586 20 16 C 20 17.116414 19.116414 18 18 18 C 16.883586 18 16 17.116414 16 16 C 16 14.883586 16.883586 14 18 14 z M 6 16 C 7.1164141 16 8 16.883586 8 18 C 8 19.116414 7.1164141 20 6 20 C 4.8835859 20 4 19.116414 4 18 C 4 16.883586 4.8835859 16 6 16 z "/>
</svg>
