<svg xmlns="http://www.w3.org/2000/svg" xmlns:svg="http://www.w3.org/2000/svg" width="24" height="24" viewBox="0 0 24 24" fill="currentColor" tags="location,travel" categories="navigation">
  <path d="M 2 1 A 1 1 0 0 0 1.2929688 1.2929688 A 1 1 0 0 0 1.2929688 2.7070312 L 6.71875 8.1328125 L 2.5722656 10.095703 A 1.0001 1.0001 0 0 0 2.7578125 11.970703 L 10.175781 13.824219 L 12.029297 21.242188 A 1.0001 1.0001 0 0 0 13.904297 21.427734 L 15.867188 17.28125 L 21.292969 22.707031 A 1 1 0 0 0 22.707031 22.707031 A 1 1 0 0 0 22.707031 21.292969 L 16.300781 14.886719 A 1 1 0 0 0 16.253906 14.839844 L 9.1601562 7.7460938 A 1 1 0 0 0 9.1132812 7.6992188 L 2.7070312 1.2929688 A 1 1 0 0 0 2 1 z M 21.966797 1 A 1.0001 1.0001 0 0 0 21.572266 1.0957031 L 11.841797 5.7070312 A 1 1 0 0 0 11.367188 7.0390625 A 1 1 0 0 0 12.697266 7.5136719 L 19.896484 4.1035156 L 16.486328 11.302734 A 1 1 0 0 0 16.960938 12.632812 A 1 1 0 0 0 18.292969 12.158203 L 22.904297 2.4277344 A 1.0001 1.0001 0 0 0 21.966797 1 z M 8.2207031 9.6347656 L 10.40625 11.820312 L 5.9550781 10.707031 L 8.2207031 9.6347656 z M 12.179688 13.59375 L 14.365234 15.779297 L 13.292969 18.044922 L 12.179688 13.59375 z "/>
</svg>
