<?xml version="1.0" encoding="UTF-8" standalone="no"?>
<svg xmlns="http://www.w3.org/2000/svg" xmlns:svg="http://www.w3.org/2000/svg" width="24" height="24" viewBox="0 0 24 24" fill="currentColor" tags="location,travel" categories="navigation,maps">
  
  <path d="M 21.966797 1 A 1.0001 1.0001 0 0 0 21.572266 1.0957031 L 2.5722656 10.095703 A 1.0001 1.0001 0 0 0 2.7578125 11.970703 L 10.175781 13.824219 L 12.029297 21.242188 A 1.0001 1.0001 0 0 0 13.904297 21.427734 L 22.904297 2.4277344 A 1.0001 1.0001 0 0 0 22.367188 1.0703125 A 1.0001 1.0001 0 0 0 21.966797 1 z M 19.896484 4.1035156 L 13.292969 18.044922 L 11.970703 12.757812 A 1.0001 1.0001 0 0 0 11.242188 12.029297 L 5.9550781 10.707031 L 19.896484 4.1035156 z "/>
</svg>
