<?xml version="1.0" encoding="UTF-8" standalone="no"?>
<svg xmlns="http://www.w3.org/2000/svg" xmlns:svg="http://www.w3.org/2000/svg" width="24" height="24" viewBox="0 0 24 24" fill="currentColor" tags="tree" categories="development">
  <path d="M 10 1 C 8.9092994 1 8 1.9092994 8 3 L 8 7 C 8 8.0907006 8.9092994 9 10 9 L 11 9 L 11 11 L 6 11 C 4.9072773 11 4 11.907277 4 13 L 4 15 L 3 15 C 1.9092994 15 1 15.909299 1 17 L 1 21 C 1 22.090701 1.9092994 23 3 23 L 7 23 C 8.0907006 23 9 22.090701 9 21 L 9 17 C 9 15.909299 8.0907006 15 7 15 L 6 15 L 6 13 L 12 13 L 18 13 L 18 15 L 17 15 C 15.909299 15 15 15.909299 15 17 L 15 21 C 15 22.090701 15.909299 23 17 23 L 21 23 C 22.090701 23 23 22.090701 23 21 L 23 17 C 23 15.909299 22.090701 15 21 15 L 20 15 L 20 13 C 20 11.907277 19.092723 11 18 11 L 13 11 L 13 9 L 14 9 C 15.090701 9 16 8.0907006 16 7 L 16 3 C 16 1.9092994 15.090701 1 14 1 L 10 1 z M 10 3 L 14 3 L 14 7 L 12 7 L 10 7 L 10 3 z M 3 17 L 7 17 L 7 21 L 3 21 L 3 17 z M 17 17 L 21 17 L 21 21 L 17 21 L 17 17 z "/>
</svg>
