<svg xmlns="http://www.w3.org/2000/svg" xmlns:svg="http://www.w3.org/2000/svg" width="24" height="24" viewBox="0 0 24 24" fill="currentColor" tags="news,feed,home,magazine,article,headline" categories="multimedia,communication">
  <path d="M 8 1 C 6.3549904 1 5 2.3549904 5 4 L 5 8 L 4 8 C 2.3549904 8 1 9.3549904 1 11 L 1 20 C 1 20.916666 1.3797556 21.731441 1.9609375 22.248047 C 2.5421194 22.764653 3.2777779 23 4 23 L 20 23 C 21.64501 23 23 21.64501 23 20 L 23 4 C 23 2.3549904 21.64501 1 20 1 L 8 1 z M 8 3 L 20 3 C 20.564129 3 21 3.4358706 21 4 L 21 20 C 21 20.564129 20.564129 21 20 21 L 6.7949219 21 C 6.9011432 20.683521 7 20.359887 7 20 L 7 9 L 7 4 C 7 3.4358706 7.4358706 3 8 3 z M 11 5 C 9.9092972 5 9 5.9092972 9 7 L 9 9 C 9 10.090703 9.9092972 11 11 11 L 17 11 C 18.090703 11 19 10.090703 19 9 L 19 7 C 19 5.9092972 18.090703 5 17 5 L 11 5 z M 11 7 L 17 7 L 17 9 L 11 9 L 11 7 z M 4 10 L 5 10 L 5 20 C 5 20.416666 4.8797556 20.601893 4.7109375 20.751953 C 4.5421194 20.902014 4.2777779 21 4 21 C 3.7222221 21 3.4578806 20.902014 3.2890625 20.751953 C 3.1202444 20.601893 3 20.416666 3 20 L 3 11 C 3 10.435871 3.4358706 10 4 10 z M 10 13 A 1 1 0 0 0 9 14 A 1 1 0 0 0 10 15 L 18 15 A 1 1 0 0 0 19 14 A 1 1 0 0 0 18 13 L 10 13 z M 10 17 A 1 1 0 0 0 9 18 A 1 1 0 0 0 10 19 L 15 19 A 1 1 0 0 0 16 18 A 1 1 0 0 0 15 17 L 10 17 z "/>
</svg>
