<?xml version="1.0" encoding="UTF-8" standalone="no"?>
<svg xmlns="http://www.w3.org/2000/svg" xmlns:svg="http://www.w3.org/2000/svg" width="24" height="24" viewBox="0 0 24 24" fill="currentColor" tags="contactless,payment,near-field communication" categories="communication,finance,devices">
  <path d="M 16.375 0.99804688 A 1 1 0 0 0 15.873047 1.1308594 A 1 1 0 0 0 15.501953 2.4960938 C 18.867098 8.3867861 18.867098 15.613214 15.501953 21.503906 A 1 1 0 0 0 15.873047 22.869141 A 1 1 0 0 0 17.238281 22.496094 C 20.953092 15.993311 20.953092 8.0066888 17.238281 1.5039062 A 1 1 0 0 0 16.375 0.99804688 z M 12.912109 3.0996094 A 1 1 0 0 0 12.412109 3.2324219 A 1 1 0 0 0 12.042969 4.5976562 C 14.670559 9.1842359 14.672576 14.814395 12.050781 19.404297 A 1 1 0 0 0 12.423828 20.767578 A 1 1 0 0 0 13.789062 20.396484 C 16.760903 15.193762 16.755757 8.8024723 13.777344 3.6035156 A 1 1 0 0 0 12.912109 3.0996094 z M 9.46875 5.2089844 A 1 1 0 0 0 8.9667969 5.3398438 A 1 1 0 0 0 8.5898438 6.703125 C 10.449911 9.9914583 10.449911 14.008542 8.5898438 17.296875 A 1 1 0 0 0 8.9667969 18.660156 A 1 1 0 0 0 10.330078 18.283203 C 12.534297 14.386459 12.534297 9.6135406 10.330078 5.7167969 A 1 1 0 0 0 9.46875 5.2089844 z M 6.0058594 7.3203125 A 1 1 0 0 0 5.5039062 7.4511719 A 1 1 0 0 0 5.1308594 8.8144531 C 6.2570515 10.789773 6.2570515 13.210227 5.1308594 15.185547 A 1 1 0 0 0 5.5039062 16.548828 A 1 1 0 0 0 6.8691406 16.175781 C 8.3438832 13.589111 8.3438832 10.410889 6.8691406 7.8242188 A 1 1 0 0 0 6.2636719 7.3554688 A 1 1 0 0 0 6.0058594 7.3203125 z "/>
</svg>
