<?xml version="1.0" encoding="UTF-8" standalone="no"?>
<svg xmlns="http://www.w3.org/2000/svg" xmlns:svg="http://www.w3.org/2000/svg" width="24" height="24" viewBox="0 0 24 24" fill="currentColor" tags="gender,nonbinary,enby" categories="medical">
  <path d="M 12 1 A 1 1 0 0 0 11 2 L 11 4.1308594 L 9.5546875 3.1679688 A 1 1 0 0 0 8.1679688 3.4453125 A 1 1 0 0 0 8.4453125 4.8320312 L 10.197266 6 L 8.4453125 7.1679688 A 1 1 0 0 0 8.1679688 8.5546875 A 1 1 0 0 0 9.5546875 8.8320312 L 11 7.8691406 L 11 11.085938 C 8.170928 11.565599 6 14.039092 6 17 C 6 20.301864 8.6981361 23 12 23 C 15.301864 23 18 20.301864 18 17 C 18 14.039092 15.829072 11.565599 13 11.085938 L 13 7.8691406 L 14.445312 8.8320312 A 1 1 0 0 0 15.832031 8.5546875 A 1 1 0 0 0 15.554688 7.1679688 L 13.802734 6 L 15.554688 4.8320312 A 1 1 0 0 0 15.832031 3.4453125 A 1 1 0 0 0 14.445312 3.1679688 L 13 4.1308594 L 13 2 A 1 1 0 0 0 12 1 z M 12 13 C 14.220984 13 16 14.779016 16 17 C 16 19.220984 14.220984 21 12 21 C 9.7790164 21 8 19.220984 8 17 C 8 14.779016 9.7790164 13 12 13 z "/>
</svg>
