<svg xmlns="http://www.w3.org/2000/svg" xmlns:svg="http://www.w3.org/2000/svg" width="24" height="24" viewBox="0 0 24 24" fill="currentColor" tags="gender,nonbinary,enby" categories="medical">
  <path d="M 12 1 A 1 1 0 0 0 11 2 L 11 4.2753906 L 8.9960938 3.1308594 A 1 1 0 0 0 8.2363281 3.0351562 A 1 1 0 0 0 7.6308594 3.5039062 A 1 1 0 0 0 8.0039062 4.8691406 L 9.9824219 6 L 8.0039062 7.1308594 A 1 1 0 0 0 7.6308594 8.4960938 A 1 1 0 0 0 8.9960938 8.8691406 L 11 7.7246094 L 11 11.083984 C 8.1703169 11.563129 6 14.038656 6 17 C 6 20.301864 8.6981361 23 12 23 C 15.301864 23 18 20.301864 18 17 C 18 14.038656 15.829683 11.563129 13 11.083984 L 13 7.7246094 L 15.003906 8.8691406 A 1 1 0 0 0 16.369141 8.4960938 A 1 1 0 0 0 15.996094 7.1308594 L 14.017578 6 L 15.996094 4.8691406 A 1 1 0 0 0 16.369141 3.5039062 A 1 1 0 0 0 15.763672 3.0351562 A 1 1 0 0 0 15.003906 3.1308594 L 13 4.2753906 L 13 2 A 1 1 0 0 0 12 1 z M 12 13 C 14.220984 13 16 14.779016 16 17 C 16 19.220984 14.220984 21 12 21 C 9.7790164 21 8 19.220984 8 17 C 8 14.779016 9.7790164 13 12 13 z "/>
</svg>
