<svg xmlns="http://www.w3.org/2000/svg" xmlns:svg="http://www.w3.org/2000/svg" width="24" height="24" viewBox="0 0 24 24" fill="currentColor" tags="notepad,notes,pages,paper,stationery,sketchbook,organizer,organiser,planner,diary,journal,writing,write,written,reading,high school,university,college,academy,student,study,research,homework,lines,opened" categories="text,social">
  <path d="M 6 1 C 4.3552972 1 3 2.3552972 3 4 L 3 5 L 2 5 A 1 1 0 0 0 1 6 A 1 1 0 0 0 2 7 L 3 7 L 3 9 L 2 9 A 1 1 0 0 0 1 10 A 1 1 0 0 0 2 11 L 3 11 L 3 13 L 2 13 A 1 1 0 0 0 1 14 A 1 1 0 0 0 2 15 L 3 15 L 3 17 L 2 17 A 1 1 0 0 0 1 18 A 1 1 0 0 0 2 19 L 3 19 L 3 20 C 3 21.644703 4.3552972 23 6 23 L 18 23 C 19.644703 23 21 21.644703 21 20 L 21 4 C 21 2.3552972 19.644703 1 18 1 L 6 1 z M 6 3 L 18 3 C 18.571297 3 19 3.4287028 19 4 L 19 20 C 19 20.571297 18.571297 21 18 21 L 6 21 C 5.4287028 21 5 20.571297 5 20 L 5 19 L 6 19 A 1 1 0 0 0 7 18 A 1 1 0 0 0 6 17 L 5 17 L 5 15 L 6 15 A 1 1 0 0 0 7 14 A 1 1 0 0 0 6 13 L 5 13 L 5 11 L 6 11 A 1 1 0 0 0 7 10 A 1 1 0 0 0 6 9 L 5 9 L 5 7 L 6 7 A 1 1 0 0 0 7 6 A 1 1 0 0 0 6 5 L 5 5 L 5 4 C 5 3.4287028 5.4287028 3 6 3 z M 9.5 7 A 1 1 0 0 0 8.5 8 A 1 1 0 0 0 9.5 9 L 14.5 9 A 1 1 0 0 0 15.5 8 A 1 1 0 0 0 14.5 7 L 9.5 7 z M 9.5 11 A 1 1 0 0 0 8.5 12 A 1 1 0 0 0 9.5 13 L 16 13 A 1 1 0 0 0 17 12 A 1 1 0 0 0 16 11 L 9.5 11 z M 9.5 15 A 1 1 0 0 0 8.5 16 A 1 1 0 0 0 9.5 17 L 14 17 A 1 1 0 0 0 15 16 A 1 1 0 0 0 14 15 L 9.5 15 z "/>
</svg>
