<?xml version="1.0" encoding="UTF-8" standalone="no"?>
<svg xmlns="http://www.w3.org/2000/svg" xmlns:svg="http://www.w3.org/2000/svg" width="24" height="24" viewBox="0 0 24 24" fill="currentColor" tags="notepad,notes,people,family,friends,acquaintances,contacts,details,addresses,phone numbers,directory,listing,networking,alphabetical,a-z,organizer,organiser,planner,diary,stationery" categories="account,connectivity,communication,social">
  
  <path d="M 6 1 C 4.3553005 1 3 2.3553005 3 4 L 3 5 L 2 5 A 1 1 0 0 0 1 6 A 1 1 0 0 0 2 7 L 3 7 L 3 9 L 2 9 A 1 1 0 0 0 1 10 A 1 1 0 0 0 2 11 L 3 11 L 3 13 L 2 13 A 1 1 0 0 0 1 14 A 1 1 0 0 0 2 15 L 3 15 L 3 17 L 2 17 A 1 1 0 0 0 1 18 A 1 1 0 0 0 2 19 L 3 19 L 3 20 C 3 21.644699 4.3553005 23 6 23 L 18 23 C 19.644699 23 21 21.644699 21 20 L 21 17 L 21 4 C 21 2.3553005 19.644699 1 18 1 L 6 1 z M 6 3 L 14 3 L 14 17 L 14 21 L 6 21 C 5.4287039 21 5 20.571296 5 20 L 5 19 L 6 19 A 1 1 0 0 0 7 18 A 1 1 0 0 0 6 17 L 5 17 L 5 15 L 6 15 A 1 1 0 0 0 7 14 A 1 1 0 0 0 6 13 L 5 13 L 5 11 L 6 11 A 1 1 0 0 0 7 10 A 1 1 0 0 0 6 9 L 5 9 L 5 7 L 6 7 A 1 1 0 0 0 7 6 A 1 1 0 0 0 6 5 L 5 5 L 5 4 C 5 3.4287039 5.4287039 3 6 3 z M 16 3 L 18 3 C 18.571296 3 19 3.4287039 19 4 L 19 6 L 16 6 L 16 3 z M 16 8 L 19 8 L 19 11 L 16 11 L 16 8 z M 16 13 L 19 13 L 19 16 L 16 16 L 16 13 z M 16 18 L 19 18 L 19 20 C 19 20.571296 18.571296 21 18 21 L 16 21 L 16 18 z "/>
</svg>
