<svg xmlns="http://www.w3.org/2000/svg" xmlns:svg="http://www.w3.org/2000/svg" width="24" height="24" viewBox="0 0 24 24" fill="currentColor" tags="notebook,notes,pages,paper,stationery,sketchbook,organizer,organiser,planner,diary,journal,writing,write,written,reading,high school,university,college,academy,student,study,homework,research,lines,opened" categories="text,social">
  <path d="M 8 1 A 1 1 0 0 0 7 2 L 7 3 L 6 3 C 4.3552972 3 3 4.3552972 3 6 L 3 20 C 3 21.644703 4.3552972 23 6 23 L 18 23 C 19.644703 23 21 21.644703 21 20 L 21 6 C 21 4.3552972 19.644703 3 18 3 L 17 3 L 17 2 A 1 1 0 0 0 16 1 A 1 1 0 0 0 15 2 L 15 3 L 13 3 L 13 2 A 1 1 0 0 0 12 1 A 1 1 0 0 0 11 2 L 11 3 L 9 3 L 9 2 A 1 1 0 0 0 8 1 z M 6 5 L 7 5 L 7 6 A 1 1 0 0 0 8 7 A 1 1 0 0 0 9 6 L 9 5 L 11 5 L 11 6 A 1 1 0 0 0 12 7 A 1 1 0 0 0 13 6 L 13 5 L 15 5 L 15 6 A 1 1 0 0 0 16 7 A 1 1 0 0 0 17 6 L 17 5 L 18 5 C 18.571297 5 19 5.4287028 19 6 L 19 20 C 19 20.571297 18.571297 21 18 21 L 6 21 C 5.4287028 21 5 20.571297 5 20 L 5 6 C 5 5.4287028 5.4287028 5 6 5 z M 8 9 A 1 1 0 0 0 7 10 A 1 1 0 0 0 8 11 L 14 11 A 1 1 0 0 0 15 10 A 1 1 0 0 0 14 9 L 8 9 z M 8 13 A 1 1 0 0 0 7 14 A 1 1 0 0 0 8 15 L 16 15 A 1 1 0 0 0 17 14 A 1 1 0 0 0 16 13 L 8 13 z M 8 17 A 1 1 0 0 0 7 18 A 1 1 0 0 0 8 19 L 13 19 A 1 1 0 0 0 14 18 A 1 1 0 0 0 13 17 L 8 17 z "/>
</svg>
