<svg xmlns="http://www.w3.org/2000/svg" xmlns:svg="http://www.w3.org/2000/svg" width="24" height="24" viewBox="0 0 24 24" fill="currentColor" tags="notebook,notes,pages,paper,stationery,diary,journal,writing,write,written,draft,template,lines" categories="text,social">
  <path d="M 8 1 A 1 1 0 0 0 7 2 L 7 3 L 6 3 C 4.3549904 3 3 4.3549904 3 6 L 3 8 A 1 1 0 0 0 4 9 A 1 1 0 0 0 5 8 L 5 6 C 5 5.4358706 5.4358706 5 6 5 L 7 5 L 7 6 A 1 1 0 0 0 8 7 A 1 1 0 0 0 9 6 L 9 2 A 1 1 0 0 0 8 1 z M 12 1 A 1 1 0 0 0 11 2 L 11 6 A 1 1 0 0 0 12 7 A 1 1 0 0 0 13 6 L 13 2 A 1 1 0 0 0 12 1 z M 16 1 A 1 1 0 0 0 15 2 L 15 6 A 1 1 0 0 0 16 7 A 1 1 0 0 0 17 6 L 17 5 L 18 5 C 18.564129 5 19 5.4358706 19 6 L 19 8 A 1 1 0 0 0 20 9 A 1 1 0 0 0 21 8 L 21 6 C 21 4.3549904 19.64501 3 18 3 L 17 3 L 17 2 A 1 1 0 0 0 16 1 z M 8 9 A 1 1 0 0 0 7 10 A 1 1 0 0 0 8 11 L 14 11 A 1 1 0 0 0 15 10 A 1 1 0 0 0 14 9 L 8 9 z M 4 11 A 1 1 0 0 0 3 12 L 3 14 A 1 1 0 0 0 4 15 A 1 1 0 0 0 5 14 L 5 12 A 1 1 0 0 0 4 11 z M 20 11 A 1 1 0 0 0 19 12 L 19 14 A 1 1 0 0 0 20 15 A 1 1 0 0 0 21 14 L 21 12 A 1 1 0 0 0 20 11 z M 8 13 A 1 1 0 0 0 7 14 A 1 1 0 0 0 8 15 L 16 15 A 1 1 0 0 0 17 14 A 1 1 0 0 0 16 13 L 8 13 z M 4 17 A 1 1 0 0 0 3 18 L 3 20 C 3 21.64501 4.3549904 23 6 23 L 7 23 A 1 1 0 0 0 8 22 A 1 1 0 0 0 7 21 L 6 21 C 5.4358706 21 5 20.564129 5 20 L 5 18 A 1 1 0 0 0 4 17 z M 8 17 A 1 1 0 0 0 7 18 A 1 1 0 0 0 8 19 L 13 19 A 1 1 0 0 0 14 18 A 1 1 0 0 0 13 17 L 8 17 z M 20 17 A 1 1 0 0 0 19 18 L 19 20 C 19 20.564129 18.564129 21 18 21 L 17 21 A 1 1 0 0 0 16 22 A 1 1 0 0 0 17 23 L 18 23 C 19.64501 23 21 21.64501 21 20 L 21 18 A 1 1 0 0 0 20 17 z M 11 21 A 1 1 0 0 0 10 22 A 1 1 0 0 0 11 23 L 13 23 A 1 1 0 0 0 14 22 A 1 1 0 0 0 13 21 L 11 21 z "/>
</svg>
