<?xml version="1.0" encoding="UTF-8" standalone="no"?>
<svg xmlns="http://www.w3.org/2000/svg" xmlns:svg="http://www.w3.org/2000/svg" width="24" height="24" viewBox="0 0 24 24" fill="currentColor" tags="pencil,notepad,notes,noted,stationery,sketchbook,organizer,organiser,planner,diary,journal,writing,write,written,reading,high school,university,college,academy,student,study,research,homework,eraser,rubber" categories="text,social">
  <path d="M 19.724609 0.96679688 C 19.006341 1.0049794 18.258777 1.3213009 17.666016 1.9140625 L 12.65625 6.9277344 C 12.300269 7.2839247 12.039596 7.7236202 11.898438 8.2070312 A 1.0001 1.0001 0 0 0 11.898438 8.2089844 L 11.060547 11.078125 C 10.743862 12.1639 11.8361 13.254185 12.921875 12.9375 L 15.791016 12.101562 C 16.274973 11.960243 16.715862 11.698396 17.072266 11.341797 L 22.083984 6.3339844 A 1.0001 1.0001 0 0 0 22.085938 6.3339844 C 22.763333 5.6565456 23.080694 4.7780458 23.033203 3.9707031 C 22.985712 3.1633605 22.618572 2.4466962 22.085938 1.9140625 C 21.553304 1.3814288 20.836639 1.0142877 20.029297 0.96679688 C 19.928379 0.96086051 19.827219 0.96134223 19.724609 0.96679688 z M 6 1 C 4.3549936 1 3 2.3549936 3 4 L 3 5 L 2 5 A 1 1 0 0 0 1 6 A 1 1 0 0 0 2 7 L 3 7 L 3 9 L 2 9 A 1 1 0 0 0 1 10 A 1 1 0 0 0 2 11 L 3 11 L 3 13 L 2 13 A 1 1 0 0 0 1 14 A 1 1 0 0 0 2 15 L 3 15 L 3 17 L 2 17 A 1 1 0 0 0 1 18 A 1 1 0 0 0 2 19 L 3 19 L 3 20 C 3 21.645006 4.3549936 23 6 23 L 18 23 C 19.645006 23 21 21.645006 21 20 L 21 12.599609 A 1 1 0 0 0 20 11.599609 A 1 1 0 0 0 19 12.599609 L 19 20 C 19 20.564128 18.564128 21 18 21 L 6 21 C 5.4358718 21 5 20.564128 5 20 L 5 19 L 6 19 A 1 1 0 0 0 7 18 A 1 1 0 0 0 6 17 L 5 17 L 5 15 L 6 15 A 1 1 0 0 0 7 14 A 1 1 0 0 0 6 13 L 5 13 L 5 11 L 6 11 A 1 1 0 0 0 7 10 A 1 1 0 0 0 6 9 L 5 9 L 5 7 L 6 7 A 1 1 0 0 0 7 6 A 1 1 0 0 0 6 5 L 5 5 L 5 4 C 5 3.4358718 5.4358718 3 6 3 L 13.400391 3 A 1 1 0 0 0 14.400391 2 A 1 1 0 0 0 13.400391 1 L 6 1 z M 19.816406 2.9609375 C 19.848419 2.9601527 19.880038 2.9610041 19.912109 2.9628906 C 20.168681 2.9779826 20.451557 3.1117133 20.669922 3.3300781 C 20.888287 3.5484429 21.022017 3.831319 21.037109 4.0878906 C 21.052199 4.3444624 20.993809 4.5940798 20.669922 4.9179688 L 15.658203 9.9277344 C 15.539363 10.04664 15.391841 10.134519 15.230469 10.181641 L 13.236328 10.763672 L 13.818359 8.7675781 C 13.865479 8.6062064 13.951407 8.4606366 14.070312 8.3417969 L 19.082031 3.3300781 C 19.365435 3.0466753 19.592317 2.9664312 19.816406 2.9609375 z "/>
</svg>
