<?xml version="1.0" encoding="UTF-8" standalone="no"?>
<svg xmlns="http://www.w3.org/2000/svg" xmlns:svg="http://www.w3.org/2000/svg" width="24" height="24" viewBox="0 0 24 24" fill="currentColor" tags="pencil,notepad,notes,noted,stationery,sketchbook,organizer,organiser,planner,diary,journal,writing,write,written,reading,high school,university,college,academy,student,study,research,homework,eraser,rubber" categories="text,social">
  
  <path d="M 6 1 C 4.3549936 1 3 2.3549936 3 4 L 3 5 L 2 5 A 1 1 0 0 0 1 6 A 1 1 0 0 0 2 7 L 3 7 L 3 9 L 2 9 A 1 1 0 0 0 1 10 A 1 1 0 0 0 2 11 L 3 11 L 3 13 L 2 13 A 1 1 0 0 0 1 14 A 1 1 0 0 0 2 15 L 3 15 L 3 17 L 2 17 A 1 1 0 0 0 1 18 A 1 1 0 0 0 2 19 L 3 19 L 3 20 C 3 21.645006 4.3549936 23 6 23 L 18 23 C 19.645006 23 21 21.645006 21 20 L 21 12.599609 A 1 1 0 0 0 20 11.599609 A 1 1 0 0 0 19 12.599609 L 19 20 C 19 20.564128 18.564128 21 18 21 L 6 21 C 5.4358718 21 5 20.564128 5 20 L 5 19 L 6 19 A 1 1 0 0 0 7 18 A 1 1 0 0 0 6 17 L 5 17 L 5 15 L 6 15 A 1 1 0 0 0 7 14 A 1 1 0 0 0 6 13 L 5 13 L 5 11 L 6 11 A 1 1 0 0 0 7 10 A 1 1 0 0 0 6 9 L 5 9 L 5 7 L 6 7 A 1 1 0 0 0 7 6 A 1 1 0 0 0 6 5 L 5 5 L 5 4 C 5 3.4358718 5.4358718 3 6 3 L 13.400391 3 A 1 1 0 0 0 14.400391 2 A 1 1 0 0 0 13.400391 1 L 6 1 z M 19.458984 1.2558594 C 18.919768 1.2726238 18.36866 1.4297771 17.857422 1.7597656 A 1.0001 1.0001 0 0 0 17.693359 1.8925781 L 12.292969 7.2929688 A 1.0001 1.0001 0 0 0 12.029297 7.7578125 L 11.029297 11.757812 A 1.0001 1.0001 0 0 0 12.242188 12.970703 L 16.242188 11.970703 A 1.0001 1.0001 0 0 0 16.707031 11.707031 L 22.107422 6.3066406 A 1.0001 1.0001 0 0 0 22.240234 6.1425781 C 23.120204 4.7792778 22.768433 3.1317139 21.818359 2.1816406 C 21.343323 1.706604 20.693177 1.3818525 19.992188 1.2851562 C 19.81694 1.2609822 19.638723 1.2502712 19.458984 1.2558594 z M 19.580078 3.2226562 C 19.641288 3.2192997 19.700292 3.2228995 19.757812 3.2324219 C 20.001319 3.2727328 20.216325 3.4077312 20.404297 3.5957031 C 20.76988 3.9612862 20.919213 4.4366383 20.572266 5.0136719 L 15.488281 10.097656 L 13.375 10.625 L 13.902344 8.5117188 L 18.986328 3.4277344 C 19.196583 3.3013161 19.396448 3.2327258 19.580078 3.2226562 z "/>
</svg>
