<?xml version="1.0" encoding="UTF-8" standalone="no"?>
<svg xmlns="http://www.w3.org/2000/svg" xmlns:svg="http://www.w3.org/2000/svg" width="24" height="24" viewBox="0 0 24 24" fill="currentColor" tags="hazelnut,acorn,food,allergy,intolerance,diet" categories="food-beverage">
  <path d="M 2 1 A 1 1 0 0 0 1.2929688 1.2929688 A 1 1 0 0 0 1.2929688 2.7070312 L 4.3007812 5.7148438 C 3.6833335 6.3039556 3.2242247 6.9781012 3.0292969 7.7578125 C 2.8538713 8.4580711 2.3111309 9.3055306 1.3046875 10.28125 A 1.0001 1.0001 0 0 0 2.0625 11.998047 C 2.7938284 11.952268 3.4134858 11.806727 4 11.580078 L 4 14 C 4.000389 17.654973 6.4891274 20.85464 10.03125 21.755859 A 1.0001 1.0001 0 0 0 10.033203 21.755859 C 10.313118 21.826519 10.530581 21.944644 10.671875 22.085938 L 11.292969 22.707031 A 1.0001 1.0001 0 0 0 12.707031 22.707031 L 13.328125 22.085938 C 13.469419 21.944644 13.686882 21.826518 13.966797 21.755859 A 1.0001 1.0001 0 0 0 13.970703 21.755859 C 15.510917 21.363508 16.889153 20.5227 17.941406 19.355469 L 21.292969 22.707031 A 1 1 0 0 0 22.707031 22.707031 A 1 1 0 0 0 22.707031 21.292969 L 18.595703 17.183594 L 12.738281 11.326172 L 2.7070312 1.2929688 A 1 1 0 0 0 2 1 z M 12 1 A 1 1 0 0 0 11 2 L 11 3.0410156 C 10.548807 3.0753546 10.105041 3.1294253 9.6738281 3.2070312 A 1 1 0 0 0 8.8652344 4.3691406 A 1 1 0 0 0 10.027344 5.1757812 C 10.659377 5.0620337 11.321261 5 12 5 C 13.833333 5 15.56668 5.4673642 16.849609 6.1367188 C 18.132539 6.8060734 18.893431 7.6987251 19.029297 8.2421875 C 19.094844 8.5049197 19.244749 8.7903933 19.373047 9.0722656 A 1 1 0 0 0 19 9 A 1 1 0 0 0 18.052734 9.6933594 A 1.0001 1.0001 0 0 0 18.044922 9.7050781 C 17.820799 10.432667 17.751091 10.504415 16.986328 10.898438 A 1 1 0 0 0 16.554688 12.244141 A 1 1 0 0 0 17.902344 12.675781 C 17.936026 12.658427 17.967248 12.639264 18 12.621094 L 18 13.34375 A 1 1 0 0 0 19 14.34375 A 1 1 0 0 0 20 13.34375 L 20 11.679688 C 20.647588 11.950049 21.335928 12.085554 22.119141 11.992188 A 1.0001 1.0001 0 0 0 22.625 10.21875 C 21.481427 9.305302 21.179341 8.5940894 20.970703 7.7578125 C 20.606569 6.3012749 19.367461 5.1939267 17.775391 4.3632812 C 16.431713 3.6622325 14.783478 3.1784205 13 3.0429688 L 13 2 A 1 1 0 0 0 12 1 z M 5.7207031 7.1347656 L 8.4121094 9.8261719 C 8.1032639 10.231295 7.7569855 10.476745 7.1601562 10.78125 C 6.6338457 10.406421 6.2426799 10.140524 5.8632812 9.4941406 A 1.0001 1.0001 0 0 0 5.8574219 9.4882812 A 1 1 0 0 0 5 9 A 1 1 0 0 0 4.578125 9.1035156 C 4.7175863 8.8187993 4.8957681 8.541311 4.9707031 8.2421875 C 5.0444319 7.9472723 5.2963248 7.5449635 5.7207031 7.1347656 z M 9.5019531 11.515625 C 10.014618 12.023552 10.607987 12.464661 11.421875 12.835938 L 16.527344 17.941406 C 15.729355 18.858048 14.66663 19.515203 13.476562 19.818359 C 12.962814 19.948245 12.443394 20.212478 12 20.625 C 11.556606 20.212478 11.037144 19.948245 10.523438 19.818359 L 10.521484 19.818359 C 7.8568612 19.139535 6.0002926 16.749937 6 14 L 6 12.503906 C 6.1411542 12.62208 6.2927054 12.736806 6.4648438 12.845703 A 1.0001 1.0001 0 0 0 7.40625 12.914062 C 8.358886 12.489574 8.9830381 12.025101 9.5019531 11.515625 z "/>
</svg>
