<svg xmlns="http://www.w3.org/2000/svg" xmlns:svg="http://www.w3.org/2000/svg" width="24" height="24" viewBox="0 0 24 24" fill="currentColor" tags="hazelnut,acorn,food,allergy,intolerance,diet" categories="food-beverage">
  <path d="M 2 1 A 1 1 0 0 0 1.2929688 1.2929688 A 1 1 0 0 0 1.2929688 2.7070312 L 4.2988281 5.7128906 C 3.6808196 6.3022509 3.2243409 6.9776364 3.0292969 7.7578125 C 2.8538713 8.4580711 2.3111309 9.3055306 1.3046875 10.28125 A 1.0001 1.0001 0 0 0 2.0625 11.998047 C 2.7933061 11.952301 3.4138555 11.810352 4 11.583984 L 4 14 C 4.000389 17.654973 6.4891274 20.85464 10.03125 21.755859 A 1.0001 1.0001 0 0 0 10.033203 21.755859 C 10.313118 21.826519 10.530581 21.944644 10.671875 22.085938 L 11.292969 22.707031 A 1.0001 1.0001 0 0 0 12.707031 22.707031 L 13.328125 22.085938 C 13.469419 21.944644 13.686882 21.826518 13.966797 21.755859 A 1.0001 1.0001 0 0 0 13.970703 21.755859 C 15.51109 21.363464 16.891062 20.524858 17.943359 19.357422 L 21.292969 22.707031 A 1 1 0 0 0 22.707031 22.707031 A 1 1 0 0 0 22.707031 21.292969 L 18.595703 17.183594 L 12.712891 11.298828 L 2.7070312 1.2929688 A 1 1 0 0 0 2 1 z M 12 1 A 1 1 0 0 0 11 2 L 11 3.0371094 C 10.548276 3.0714358 10.10553 3.1293374 9.6738281 3.2070312 A 1 1 0 0 0 8.8652344 4.3691406 A 1 1 0 0 0 10.027344 5.1757812 C 10.659377 5.0620337 11.321261 5 12 5 C 13.833333 5 15.56668 5.4673642 16.849609 6.1367188 C 18.132539 6.8060734 18.893431 7.6987251 19.029297 8.2421875 C 19.094859 8.5049795 19.246683 8.7903309 19.375 9.0722656 A 1 1 0 0 0 19 9 A 1 1 0 0 0 18.050781 9.6933594 A 1.0001 1.0001 0 0 0 18.044922 9.7050781 C 17.820799 10.432667 17.751091 10.504415 16.986328 10.898438 A 1 1 0 0 0 16.554688 12.244141 A 1 1 0 0 0 17.902344 12.675781 C 17.935345 12.658779 17.967893 12.640833 18 12.623047 L 18 13.34375 A 1 1 0 0 0 19 14.34375 A 1 1 0 0 0 20 13.34375 L 20 11.681641 C 20.647349 11.951773 21.336259 12.085515 22.119141 11.992188 A 1.0001 1.0001 0 0 0 22.625 10.21875 C 21.481427 9.305302 21.179341 8.5940894 20.970703 7.7578125 C 20.606569 6.3012749 19.367461 5.1939267 17.775391 4.3632812 C 16.431179 3.6619538 14.784296 3.1723339 13 3.0371094 L 13 2 A 1 1 0 0 0 12 1 z M 5.71875 7.1328125 L 8.4121094 9.8261719 C 8.1030147 10.232068 7.7576183 10.476422 7.1601562 10.78125 C 6.6338457 10.406421 6.2426799 10.140524 5.8632812 9.4941406 A 1.0001 1.0001 0 0 0 5.84375 9.4667969 A 1 1 0 0 0 5 9 A 1 1 0 0 0 4.5800781 9.0917969 C 4.7187927 8.8108417 4.8967078 8.53756 4.9707031 8.2421875 C 5.0445711 7.9467157 5.2929033 7.5438167 5.71875 7.1328125 z M 9.5019531 11.515625 C 10.015814 12.024737 10.606994 12.466075 11.423828 12.837891 L 16.527344 17.941406 C 15.729366 18.85799 14.666582 19.515215 13.476562 19.818359 C 12.962814 19.948245 12.443394 20.212478 12 20.625 C 11.556606 20.212478 11.037144 19.948245 10.523438 19.818359 L 10.521484 19.818359 C 7.8568612 19.139535 6.0002926 16.749937 6 14 L 6 12.505859 C 6.1404031 12.623208 6.29383 12.737518 6.4648438 12.845703 A 1.0001 1.0001 0 0 0 7.40625 12.914062 C 8.358886 12.489574 8.9830381 12.025101 9.5019531 11.515625 z "/>
</svg>
