<?xml version="1.0" encoding="UTF-8" standalone="no"?>
<svg xmlns="http://www.w3.org/2000/svg" xmlns:svg="http://www.w3.org/2000/svg" width="24" height="24" viewBox="0 0 24 24" fill="currentColor" tags="hazelnut,acorn,food,diet" categories="food-beverage">
  <path d="M 12 1 A 1 1 0 0 0 11 2 L 11 3.0371094 C 9.2157041 3.1723339 7.5688205 3.6619538 6.2246094 4.3632812 C 4.6325389 5.1939267 3.3934313 6.3012749 3.0292969 7.7578125 C 2.8538713 8.4580711 2.3111309 9.3055306 1.3046875 10.28125 A 1.0001 1.0001 0 0 0 2.0625 11.998047 C 2.7933061 11.952301 3.4138555 11.810352 4 11.583984 L 4 14 C 4.000389 17.654973 6.4891274 20.85464 10.03125 21.755859 A 1.0001 1.0001 0 0 0 10.033203 21.755859 C 10.313118 21.826519 10.530581 21.944644 10.671875 22.085938 L 11.292969 22.707031 A 1.0001 1.0001 0 0 0 12.707031 22.707031 L 13.328125 22.085938 C 13.469419 21.944644 13.686882 21.826518 13.966797 21.755859 A 1.0001 1.0001 0 0 0 13.96875 21.755859 C 17.511073 20.854984 20.000017 17.655174 20 14 L 20 11.681641 C 20.647286 11.951867 21.336414 12.085496 22.119141 11.992188 A 1.0001 1.0001 0 0 0 22.625 10.21875 C 21.481427 9.305302 21.179341 8.5940894 20.970703 7.7578125 C 20.606569 6.3012749 19.367461 5.1939267 17.775391 4.3632812 C 16.431179 3.6619538 14.784296 3.1723339 13 3.0371094 L 13 2 A 1 1 0 0 0 12 1 z M 12 5 C 13.833333 5 15.56668 5.4673642 16.849609 6.1367188 C 18.132539 6.8060734 18.893431 7.6987251 19.029297 8.2421875 C 19.094859 8.5049795 19.246683 8.7903309 19.375 9.0722656 A 1 1 0 0 0 19 9 A 1 1 0 0 0 18.048828 9.6953125 A 1.0001 1.0001 0 0 0 18.044922 9.703125 A 1 1 0 0 0 18.033203 9.7402344 C 17.908888 10.130693 17.804313 10.300816 17.634766 10.466797 C 17.524391 10.574849 17.222457 10.723715 16.976562 10.859375 C 16.174399 10.475823 15.812598 10.193295 15.339844 9.4589844 A 1.0001 1.0001 0 0 0 13.671875 9.4394531 C 13.194549 10.14422 12.722523 10.411054 11.908203 10.830078 C 11.146904 10.468517 10.780549 10.193911 10.357422 9.4863281 A 1.0001 1.0001 0 0 0 8.6445312 9.4824219 C 8.263025 10.112676 7.9093577 10.399004 7.1601562 10.78125 C 6.6338457 10.406421 6.2426799 10.140524 5.8632812 9.4941406 A 1.0001 1.0001 0 0 0 5.84375 9.4667969 A 1 1 0 0 0 5 9 A 1 1 0 0 0 4.5800781 9.0917969 C 4.7187927 8.8108417 4.8967078 8.53756 4.9707031 8.2421875 C 5.1065687 7.6987251 5.8674611 6.8060733 7.1503906 6.1367188 C 8.4333201 5.4673642 10.166667 5 12 5 z M 14.488281 11.482422 C 15.03954 12.035892 15.672897 12.516648 16.603516 12.917969 A 1.0001 1.0001 0 0 0 17.412109 12.910156 C 17.619692 12.816066 17.815362 12.722837 18 12.625 L 18 14 C 18.000013 16.750594 16.142304 19.140432 13.476562 19.818359 C 12.962855 19.948245 12.443394 20.212478 12 20.625 C 11.556606 20.212478 11.037144 19.948245 10.523438 19.818359 L 10.521484 19.818359 C 7.8568612 19.139535 6.0002926 16.749937 6 14 L 6 12.505859 C 6.1404031 12.623208 6.29383 12.737518 6.4648438 12.845703 A 1.0001 1.0001 0 0 0 7.40625 12.914062 C 8.358886 12.489574 8.9830381 12.025101 9.5019531 11.515625 C 10.053774 12.062346 10.695663 12.531814 11.609375 12.919922 A 1.0001 1.0001 0 0 0 12.427734 12.904297 C 13.322202 12.480278 13.942956 12.012435 14.488281 11.482422 z "/>
</svg>
