<?xml version="1.0" encoding="UTF-8" standalone="no"?>
<svg xmlns="http://www.w3.org/2000/svg" xmlns:svg="http://www.w3.org/2000/svg" width="24" height="24" viewBox="0 0 24 24" fill="currentColor" tags="music,audio,stop" categories="multimedia,shapes">
  <path d="M 8.5410156 1 C 7.7458168 1.0001698 6.9821274 1.3165309 6.4199219 1.8789062 L 1.8789062 6.4199219 C 1.3165309 6.9821274 1.0001698 7.7458168 1 8.5410156 A 1.0001 1.0001 0 0 0 1 8.5429688 L 1 15.457031 A 1.0001 1.0001 0 0 0 1 15.458984 C 1.0001698 16.254184 1.3165309 17.017873 1.8789062 17.580078 L 6.4199219 22.121094 C 6.9821274 22.683425 7.7458168 22.99983 8.5410156 23 A 1.0001 1.0001 0 0 0 8.5429688 23 L 15.457031 23 A 1.0001 1.0001 0 0 0 15.458984 23 C 16.254184 22.99983 17.017873 22.683469 17.580078 22.121094 L 22.121094 17.580078 C 22.683425 17.017873 22.99983 16.254184 23 15.458984 A 1.0001 1.0001 0 0 0 23 15.457031 L 23 8.5429688 A 1.0001 1.0001 0 0 0 23 8.5410156 C 22.99983 7.7458136 22.683469 6.9821274 22.121094 6.4199219 L 17.580078 1.8789062 C 17.017873 1.3165309 16.254184 1.0001698 15.458984 1 A 1.0001 1.0001 0 0 0 15.457031 1 L 8.5429688 1 A 1.0001 1.0001 0 0 0 8.5410156 1 z M 8.5429688 3 L 15.457031 3 C 15.72261 3.0000567 15.976299 3.1051481 16.164062 3.2929688 L 20.707031 7.8359375 C 20.894855 8.0237014 20.999943 8.2773904 21 8.5429688 L 21 15.457031 C 20.999943 15.72261 20.894852 15.976299 20.707031 16.164062 L 16.164062 20.707031 C 15.976299 20.894852 15.72261 20.999943 15.457031 21 L 8.5429688 21 C 8.2773904 20.999943 8.0237014 20.894852 7.8359375 20.707031 L 3.2929688 16.164062 C 3.1051481 15.976299 3.0000567 15.72261 3 15.457031 L 3 8.5429688 C 3.0000567 8.2773904 3.1051481 8.0237014 3.2929688 7.8359375 L 7.8359375 3.2929688 C 8.0237014 3.1051481 8.2773904 3.0000567 8.5429688 3 z M 10 8 A 1 1 0 0 0 9 9 L 9 15 A 1 1 0 0 0 10 16 A 1 1 0 0 0 11 15 L 11 9 A 1 1 0 0 0 10 8 z M 14 8 A 1 1 0 0 0 13 9 L 13 15 A 1 1 0 0 0 14 16 A 1 1 0 0 0 15 15 L 15 9 A 1 1 0 0 0 14 8 z "/>
</svg>
