<?xml version="1.0" encoding="UTF-8" standalone="no"?>
<svg xmlns="http://www.w3.org/2000/svg" xmlns:svg="http://www.w3.org/2000/svg" width="24" height="24" viewBox="0 0 24 24" fill="currentColor" tags="warning,alert,danger,exclamation mark" categories="notifications,shapes">
  <path d="M 8.6875 1 C 7.8923012 1.0001698 7.1286119 1.3165309 6.5664062 1.8789062 L 1.8789062 6.5664062 C 1.3165309 7.1286119 1.0001698 7.8923012 1 8.6875 L 1 15.3125 C 1.0001698 16.107699 1.3165309 16.871388 1.8789062 17.433594 L 6.5664062 22.121094 C 7.1286119 22.683469 7.8923012 22.99983 8.6875 23 L 15.3125 23 C 16.107699 22.99983 16.871388 22.683469 17.433594 22.121094 L 22.121094 17.433594 C 22.683469 16.871388 22.99983 16.107699 23 15.3125 L 23 8.6875 C 22.99983 7.8923012 22.683469 7.1286119 22.121094 6.5664062 L 17.433594 1.8789062 C 16.871388 1.3165309 16.107699 1.0001698 15.3125 1 L 8.6875 1 z M 8.6875 3 L 15.3125 3 C 15.578079 3.0000567 15.831767 3.1051481 16.019531 3.2929688 L 20.707031 7.9804688 C 20.894852 8.1682327 20.999943 8.4219217 21 8.6875 L 21 15.3125 C 20.999943 15.578079 20.894852 15.831767 20.707031 16.019531 L 16.019531 20.707031 C 15.831767 20.894852 15.578079 20.999943 15.3125 21 L 8.6875 21 C 8.4219217 20.999943 8.1682327 20.894852 7.9804688 20.707031 L 3.2929688 16.019531 C 3.1051481 15.831767 3.0000567 15.578079 3 15.3125 L 3 8.6875 C 3.0000567 8.4219217 3.1051481 8.1682327 3.2929688 7.9804688 L 7.9804688 3.2929688 C 8.1682327 3.1051481 8.4219217 3.0000567 8.6875 3 z M 12 7 A 1 1 0 0 0 11 8 L 11 12 A 1 1 0 0 0 12 13 A 1 1 0 0 0 13 12 L 13 8 A 1 1 0 0 0 12 7 z M 12 15 A 1 1 0 0 0 11 16 A 1 1 0 0 0 12 17 L 12.009766 17 A 1 1 0 0 0 13.009766 16 A 1 1 0 0 0 12.009766 15 L 12 15 z "/>
</svg>
