<svg xmlns="http://www.w3.org/2000/svg" xmlns:svg="http://www.w3.org/2000/svg" width="24" height="24" viewBox="0 0 24 24" fill="currentColor" tags="stop,shape" categories="shapes">
  <path d="M 8.6875 1 C 7.8922996 1.0001698 7.1286129 1.3165297 6.5664062 1.8789062 L 1.8789062 6.5664062 C 1.3165297 7.1286129 1.0001698 7.8922996 1 8.6875 L 1 15.3125 C 1.0001698 16.1077 1.3165297 16.871387 1.8789062 17.433594 L 6.5664062 22.121094 C 7.128613 22.68347 7.8922996 22.99983 8.6875 23 L 15.3125 23 C 16.1077 22.99983 16.871387 22.68347 17.433594 22.121094 L 22.121094 17.433594 C 22.68347 16.871387 22.99983 16.1077 23 15.3125 L 23 8.6875 C 22.99983 7.8922996 22.68347 7.1286129 22.121094 6.5664062 L 17.433594 1.8789062 C 16.871387 1.3165297 16.1077 1.0001698 15.3125 1 L 8.6875 1 z M 8.6875 3 L 15.3125 3 C 15.578079 3.0000567 15.831767 3.1051478 16.019531 3.2929688 L 20.707031 7.9804688 C 20.894852 8.1682331 20.999943 8.4219212 21 8.6875 L 21 15.3125 C 20.999943 15.578079 20.894852 15.831767 20.707031 16.019531 L 16.019531 20.707031 C 15.831767 20.894852 15.578079 20.999943 15.3125 21 L 8.6875 21 C 8.4219212 20.999943 8.1682331 20.894852 7.9804688 20.707031 L 3.2929688 16.019531 C 3.1051477 15.831767 3.0000567 15.578079 3 15.3125 L 3 8.6875 C 3.0000567 8.4219212 3.1051478 8.1682331 3.2929688 7.9804688 L 7.9804688 3.2929688 C 8.1682331 3.1051477 8.4219212 3.0000567 8.6875 3 z "/>
</svg>
