<?xml version="1.0" encoding="UTF-8" standalone="no"?>
<svg xmlns="http://www.w3.org/2000/svg" xmlns:svg="http://www.w3.org/2000/svg" width="24" height="24" viewBox="0 0 24 24" fill="currentColor" tags="greek,symbol,mathematics,education,physics,engineering,ohms,electrical resistance,angular frequency,dynamical systems,astronomy,constellations,philosophy" categories="maths,development,text,science">
  <path d="M 11.998047 3.0019531 C 7.5459801 3.0024773 4.3662661 5.9781522 3.3496094 9.515625 C 2.409856 12.785511 3.3936908 16.569946 6.5136719 19 L 3 19 A 1 1 0 0 0 2 20 A 1 1 0 0 0 3 21 L 7.5 21 C 8.3165809 21 9 20.316581 9 19.5 L 9 19.21875 A 1.0001 1.0001 0 0 0 9 19.216797 A 1.0001 1.0001 0 0 0 9 19.214844 A 1.0001 1.0001 0 0 0 9 19.212891 A 1.0001 1.0001 0 0 0 9 19.210938 A 1.0001 1.0001 0 0 0 9 19.208984 A 1.0001 1.0001 0 0 0 9 19.207031 C 8.9944065 18.686901 8.7200735 18.202743 8.2773438 17.929688 C 5.2474193 16.028343 4.4714952 12.851935 5.2714844 10.068359 C 6.0720365 7.2828265 8.4186058 5.0023745 11.998047 5.0019531 C 15.577487 5.0015317 17.925355 7.2810618 18.726562 10.066406 C 19.527771 12.851751 18.751579 16.030039 15.716797 17.931641 L 15.722656 17.929688 C 15.279023 18.203335 15.004596 18.687822 15 19.208984 A 1.0001 1.0001 0 0 0 15 19.21875 L 15 19.5 C 15 20.316581 15.683419 21 16.5 21 L 21 21 A 1 1 0 0 0 22 20 A 1 1 0 0 0 21 19 L 17.482422 19 C 20.604309 16.569342 21.589268 12.784403 20.648438 9.5136719 C 19.630949 5.9764386 16.450113 3.001429 11.998047 3.0019531 z "/>
</svg>
