<svg xmlns="http://www.w3.org/2000/svg" xmlns:svg="http://www.w3.org/2000/svg" width="24" height="24" viewBox="0 0 24 24" fill="currentColor" tags="greek,symbol,mathematics,education,physics,engineering,ohms,electrical resistance,angular frequency,dynamical systems,astronomy,constellations,philosophy" categories="math,development,text,science">
  <path d="M 11.998047 3.0019531 C 7.5459712 3.0024773 4.3662682 5.9781452 3.3496094 9.515625 C 2.4098541 12.785518 3.3936846 16.569942 6.5136719 19 L 3 19 A 1 1 0 0 0 2 20 A 1 1 0 0 0 3 21 L 7.5 21 C 8.3165825 21 9 20.316582 9 19.5 L 9 19.21875 A 1.0001 1.0001 0 0 0 9 19.207031 C 8.9944065 18.686899 8.7200745 18.202744 8.2773438 17.929688 C 5.2474132 16.028339 4.4714936 12.851939 5.2714844 10.068359 C 6.0720381 7.2828209 8.4185986 5.0023745 11.998047 5.0019531 C 15.577495 5.0015317 17.925353 7.2810563 18.726562 10.066406 C 19.527773 12.851757 18.751582 16.030036 15.716797 17.931641 L 15.722656 17.929688 C 15.279022 18.203336 15.004596 18.68782 15 19.208984 A 1.0001 1.0001 0 0 0 15 19.21875 L 15 19.5 C 15 20.316582 15.683418 21 16.5 21 L 21 21 A 1 1 0 0 0 22 20 A 1 1 0 0 0 21 19 L 17.482422 19 C 20.604315 16.569337 21.58927 12.78441 20.648438 9.5136719 C 19.630947 5.9764316 16.450122 3.001429 11.998047 3.0019531 z "/>
</svg>
