<?xml version="1.0" encoding="UTF-8" standalone="no"?>
<svg xmlns="http://www.w3.org/2000/svg" xmlns:svg="http://www.w3.org/2000/svg" width="24" height="24" viewBox="0 0 24 24" fill="currentColor" tags="planet,space,physics,satellites,moons" categories="science">
  
  <path d="M 11.927734 0.97851562 C 11.36453 0.97838031 10.812394 1.021423 10.275391 1.1035156 C 7.0533703 1.5960639 4.3540739 3.5046593 2.71875 6.0664062 C 0.65233558 9.3034599 0.24881763 13.640247 2.4414062 17.443359 C 2.1621698 17.898356 2 18.432017 2 19 C 2 20.645006 3.3549936 22 5 22 C 6.6450064 22 8 20.645006 8 19 C 8 17.354994 6.6450064 16 5 16 C 4.6568572 16 4.325816 16.059717 4.0175781 16.167969 C 2.3686526 13.087785 2.7525226 9.7300948 4.4042969 7.1425781 C 6.1993367 4.3306349 9.4502483 2.4924249 13.349609 3.0878906 A 1 1 0 0 0 14.488281 2.25 A 1 1 0 0 0 13.650391 1.1113281 C 13.065214 1.0219668 12.490939 0.97865094 11.927734 0.97851562 z M 19 2 C 17.354994 2 16 3.3549936 16 5 C 16 6.6450064 17.354994 8 19 8 C 19.344012 8 19.675469 7.9388547 19.984375 7.8300781 C 21.654963 10.931394 21.260421 14.313455 19.585938 16.910156 C 17.767817 19.729606 14.484348 21.558468 10.5625 20.914062 A 1 1 0 0 0 9.4140625 21.738281 A 1 1 0 0 0 10.238281 22.886719 C 14.944937 23.660077 19.05749 21.418403 21.265625 17.994141 C 23.358982 14.747868 23.777341 10.381037 21.560547 6.5546875 C 21.838911 6.1001972 22 5.5670195 22 5 C 22 3.3549936 20.645006 2 19 2 z M 19 4 C 19.564128 4 20 4.4358718 20 5 C 20 5.5641282 19.564128 6 19 6 C 18.435872 6 18 5.5641282 18 5 C 18 4.4358718 18.435872 4 19 4 z M 12 8 C 9.80271 8 8 9.80271 8 12 C 8 14.19729 9.80271 16 12 16 C 14.19729 16 16 14.19729 16 12 C 16 9.80271 14.19729 8 12 8 z M 12 10 C 13.116412 10 14 10.883588 14 12 C 14 13.116412 13.116412 14 12 14 C 10.883588 14 10 13.116412 10 12 C 10 10.883588 10.883588 10 12 10 z M 5 18 C 5.5641282 18 6 18.435872 6 19 C 6 19.564128 5.5641282 20 5 20 C 4.4358718 20 4 19.564128 4 19 C 4 18.720996 4.1071846 18.473967 4.2832031 18.294922 C 4.2851337 18.292958 4.2871153 18.29101 4.2890625 18.289062 A 1 1 0 0 0 4.3710938 18.214844 C 4.5413405 18.079577 4.7588513 18 5 18 z "/>
</svg>
