<svg xmlns="http://www.w3.org/2000/svg" xmlns:svg="http://www.w3.org/2000/svg" width="24" height="24" viewBox="0 0 24 24" fill="currentColor" tags="planet,space,physics,satellites,moons" categories="science">
  <path d="M 12.173828 0.99414062 C 11.604668 0.98124151 11.047713 1.0121545 10.503906 1.0839844 C 7.2410659 1.5149637 4.4847756 3.4013202 2.8027344 5.9648438 C 0.67556223 9.2067714 0.22513816 13.592487 2.4394531 17.445312 C 2.1609224 17.8999 2 18.432795 2 19 C 2 20.64501 3.3549904 22 5 22 C 6.6450096 22 8 20.64501 8 19 C 8 17.35499 6.6450096 16 5 16 C 4.6564106 16 4.3261589 16.059448 4.0175781 16.167969 C 2.3530992 13.046629 2.7738408 9.6545651 4.4746094 7.0625 C 6.3213825 4.2479159 9.6344749 2.4418379 13.566406 3.1367188 A 1 1 0 0 0 14.724609 2.3261719 A 1 1 0 0 0 13.914062 1.1679688 C 13.324354 1.063751 12.742988 1.0070397 12.173828 0.99414062 z M 19 2 C 17.35499 2 16 3.3549904 16 5 C 16 6.6450096 17.35499 8 19 8 C 19.34363 8 19.67381 7.9405763 19.982422 7.8320312 C 21.64682 10.952358 21.226924 14.343416 19.527344 16.935547 C 17.681821 19.750266 14.370856 21.557842 10.439453 20.865234 A 1 1 0 0 0 9.28125 21.675781 A 1 1 0 0 0 10.091797 22.833984 C 14.808885 23.665009 18.958006 21.451415 21.199219 18.033203 C 23.324941 14.791133 23.774793 10.406372 21.560547 6.5546875 C 21.839047 6.100118 22 5.5671705 22 5 C 22 3.3549904 20.64501 2 19 2 z M 19 4 C 19.564129 4 20 4.4358706 20 5 C 20 5.2725824 19.897342 5.5153696 19.728516 5.6933594 A 1 1 0 0 0 19.617188 5.7929688 C 19.448613 5.9229823 19.235971 6 19 6 C 18.435871 6 18 5.5641294 18 5 C 18 4.4358706 18.435871 4 19 4 z M 12 8 C 9.8027056 8 8 9.8027056 8 12 C 8 14.197294 9.8027056 16 12 16 C 14.197294 16 16 14.197294 16 12 C 16 9.8027056 14.197294 8 12 8 z M 12 10 C 13.116414 10 14 10.883586 14 12 C 14 13.116414 13.116414 14 12 14 C 10.883586 14 10 13.116414 10 12 C 10 10.883586 10.883586 10 12 10 z M 5 18 C 5.5641294 18 6 18.435871 6 19 C 6 19.564129 5.5641294 20 5 20 C 4.4358706 20 4 19.564129 4 19 C 4 18.727416 4.1026562 18.484631 4.2714844 18.306641 A 1 1 0 0 0 4.3828125 18.207031 C 4.551388 18.077016 4.7640276 18 5 18 z "/>
</svg>
