<?xml version="1.0" encoding="UTF-8" standalone="no"?>
<svg xmlns="http://www.w3.org/2000/svg" xmlns:svg="http://www.w3.org/2000/svg" width="24" height="24" viewBox="0 0 24 24" fill="currentColor" tags="planet,space,physics,satellites,moons" categories="science">
  <path d="M 11.927734 0.97851562 C 11.36453 0.97838031 10.812395 1.0214228 10.275391 1.1035156 C 7.0533639 1.5960649 4.3540771 3.5046542 2.71875 6.0664062 C 0.65233145 9.3034664 0.24881325 13.64024 2.4414062 17.443359 C 2.1621698 17.898356 2 18.432016 2 19 C 2 20.64501 3.3549904 22 5 22 C 6.6450096 22 8 20.64501 8 19 C 8 17.35499 6.6450096 16 5 16 C 4.6568565 16 4.3258164 16.059717 4.0175781 16.167969 C 2.3686493 13.08778 2.7525193 9.7301 4.4042969 7.1425781 C 6.1993403 4.3306292 9.4502405 2.4924237 13.349609 3.0878906 A 1 1 0 0 0 14.488281 2.25 A 1 1 0 0 0 13.650391 1.1113281 C 13.065213 1.0219666 12.490939 0.97865094 11.927734 0.97851562 z M 19 2 C 17.35499 2 16 3.3549904 16 5 C 16 6.6450096 17.35499 8 19 8 C 19.344013 8 19.675469 7.9388547 19.984375 7.8300781 C 21.654966 10.931399 21.260424 14.313449 19.585938 16.910156 C 17.767813 19.729612 14.484356 21.55847 10.5625 20.914062 A 1 1 0 0 0 9.4140625 21.738281 A 1 1 0 0 0 10.238281 22.886719 C 14.944945 23.660078 19.057486 21.41841 21.265625 17.994141 C 23.358986 14.747862 23.777345 10.381043 21.560547 6.5546875 C 21.838911 6.1001968 22 5.5670207 22 5 C 22 3.3549904 20.64501 2 19 2 z M 19 4 C 19.564129 4 20 4.4358706 20 5 C 20 5.5641294 19.564129 6 19 6 C 18.435871 6 18 5.5641294 18 5 C 18 4.4358706 18.435871 4 19 4 z M 12 8 C 9.8027056 8 8 9.8027056 8 12 C 8 14.197294 9.8027056 16 12 16 C 14.197294 16 16 14.197294 16 12 C 16 9.8027056 14.197294 8 12 8 z M 12 10 C 13.116414 10 14 10.883586 14 12 C 14 13.116414 13.116414 14 12 14 C 10.883586 14 10 13.116414 10 12 C 10 10.883586 10.883586 10 12 10 z M 5 18 C 5.5641294 18 6 18.435871 6 19 C 6 19.564129 5.5641294 20 5 20 C 4.4358706 20 4 19.564129 4 19 C 4 18.720996 4.1071845 18.473968 4.2832031 18.294922 C 4.2851337 18.292958 4.2871153 18.29101 4.2890625 18.289062 A 1 1 0 0 0 4.3710938 18.214844 C 4.5413407 18.079577 4.7588508 18 5 18 z "/>
</svg>
