<?xml version="1.0" encoding="UTF-8" standalone="no"?>
<svg xmlns="http://www.w3.org/2000/svg" xmlns:svg="http://www.w3.org/2000/svg" width="24" height="24" viewBox="0 0 24 24" fill="currentColor" tags="planet,space,physics,satellites,moons" categories="science">
  <path d="M 11.927734 0.97851562 C 11.36453 0.97838031 10.812395 1.0214228 10.275391 1.1035156 C 7.0533639 1.5960649 4.3540771 3.5046542 2.71875 6.0664062 C 0.65214952 9.3037514 0.24620957 13.641953 2.4394531 17.445312 C 2.1607371 17.900008 2 18.432591 2 19 C 2 20.64501 3.3549904 22 5 22 C 6.6450096 22 8 20.64501 8 19 C 8 17.35499 6.6450096 16 5 16 C 4.6562377 16 4.3243386 16.059344 4.015625 16.167969 C 2.367052 13.087937 2.7526221 9.7299389 4.4042969 7.1425781 C 6.1993403 4.3306292 9.4502405 2.4924237 13.349609 3.0878906 A 1 1 0 0 0 14.488281 2.25 A 1 1 0 0 0 13.650391 1.1113281 C 13.065213 1.0219666 12.490939 0.97865094 11.927734 0.97851562 z M 19 2 C 17.35499 2 16 3.3549904 16 5 C 16 6.6450096 17.35499 8 19 8 C 19.344776 8 19.676837 7.9412693 19.986328 7.8320312 C 21.656333 10.933096 21.260255 14.313712 19.585938 16.910156 C 17.767813 19.729612 14.484356 21.55847 10.5625 20.914062 A 1 1 0 0 0 9.4140625 21.738281 A 1 1 0 0 0 10.238281 22.886719 C 14.944945 23.660078 19.057486 21.41841 21.265625 17.994141 C 23.359241 14.747467 23.780209 10.379424 21.5625 6.5527344 C 21.840282 6.0985826 22 5.5663769 22 5 C 22 3.3549904 20.64501 2 19 2 z M 19 4 C 19.564129 4 20 4.4358706 20 5 C 20 5.2738364 19.896785 5.5171022 19.726562 5.6953125 A 1 1 0 0 0 19.621094 5.7929688 C 19.452178 5.9240204 19.237 6 19 6 C 18.435871 6 18 5.5641294 18 5 C 18 4.4358706 18.435871 4 19 4 z M 12 8 C 9.8027056 8 8 9.8027056 8 12 C 8 14.197294 9.8027056 16 12 16 C 14.197294 16 16 14.197294 16 12 C 16 9.8027056 14.197294 8 12 8 z M 12 10 C 13.116414 10 14 10.883586 14 12 C 14 13.116414 13.116414 14 12 14 C 10.883586 14 10 13.116414 10 12 C 10 10.883586 10.883586 10 12 10 z M 5 18 C 5.5641294 18 6 18.435871 6 19 C 6 19.564129 5.5641294 20 5 20 C 4.4358706 20 4 19.564129 4 19 C 4 18.73009 4.0997589 18.489997 4.265625 18.3125 A 1 1 0 0 0 4.3886719 18.201172 C 4.5562295 18.074161 4.7670265 18 5 18 z "/>
</svg>
