<?xml version="1.0" encoding="UTF-8" standalone="no"?>
<svg xmlns="http://www.w3.org/2000/svg" xmlns:svg="http://www.w3.org/2000/svg" width="24" height="24" viewBox="0 0 24 24" fill="currentColor" tags="paper,bird" categories="animals,design">
  <path d="M 13 2 C 12.3819 2 11.823865 2.2902907 11.455078 2.7402344 A 1 1 0 0 0 11.408203 2.8007812 C 11.153318 3.136553 11 3.5523642 11 4 L 11 9.5898438 L 6.4140625 5.0019531 A 1.0001 1.0001 0 0 0 6.4101562 4.9980469 C 6.1097861 4.7006296 5.7367674 4.5228205 5.3535156 4.4550781 C 4.9702638 4.3873357 4.5776391 4.4289494 4.2363281 4.5703125 C 3.5537062 4.8530387 3.0042289 5.5647466 3 6.4101562 A 1.0001 1.0001 0 0 0 3 6.4140625 L 3 12.171875 C 3.0001698 12.967075 3.3165296 13.730762 3.8789062 14.292969 L 5.6171875 16.03125 L 3.8867188 16.019531 C 2.991658 16.013731 2.2484288 16.622808 1.9902344 17.351562 C 1.73204 18.080313 1.925924 19.021097 2.625 19.580078 L 5.1015625 21.5625 C 5.4562457 21.846125 5.8974226 22.000213 6.3515625 22 L 12 22 L 18.587891 22 C 19.115961 21.999922 19.623611 21.790403 19.998047 21.417969 L 20.693359 20.724609 A 1 1 0 0 0 20.707031 20.716797 A 1 1 0 0 0 20.734375 20.683594 L 21.166016 20.255859 L 21.166016 20.253906 C 21.799054 19.623689 21.937503 18.636399 21.5 17.857422 L 16.525391 9.0097656 L 20.599609 5.5175781 C 21.266558 4.9454516 21.436326 4.0211854 21.171875 3.3066406 C 20.907424 2.5920959 20.175595 2.0000796 19.296875 2 L 13 2 z M 13.708984 4 L 19.296875 4 L 15.527344 7.2324219 L 13.708984 4 z M 5.0019531 6.4179688 L 5.0039062 6.4179688 L 18.576172 20 L 12.414062 20 L 8.7578125 16.34375 L 5.2929688 12.878906 C 5.1051478 12.691142 5.0000567 12.437454 5 12.171875 L 5 6.4199219 L 5.0019531 6.4179688 z M 13 6.8203125 L 19.132812 17.728516 L 13 11.591797 L 13 6.8203125 z M 3.875 18.019531 L 7.6308594 18.044922 L 9.5859375 20 L 6.3515625 20 L 6.3496094 20 L 3.875 18.019531 z "/>
</svg>
