<?xml version="1.0" encoding="UTF-8" standalone="no"?>
<svg xmlns="http://www.w3.org/2000/svg" xmlns:svg="http://www.w3.org/2000/svg" width="24" height="24" viewBox="0 0 24 24" fill="currentColor" tags="find,product process" categories="files,development">
  <path d="M 12 1.0019531 C 11.483133 1.0019531 10.966338 1.1362682 10.503906 1.4023438 L 3.5039062 5.4023438 A 1.0001 1.0001 0 0 0 3.5 5.4042969 C 2.5741314 5.9388466 2.0010966 6.9289468 2 7.9980469 A 1.0001 1.0001 0 0 0 2 8 L 2 16 A 1.0001 1.0001 0 0 0 2 16.001953 C 2.0011 17.071053 2.5741314 18.061154 3.5 18.595703 A 1.0001 1.0001 0 0 0 3.5039062 18.597656 L 10.503906 22.597656 C 10.948264 22.853333 11.442884 22.982139 11.939453 22.992188 A 1 1 0 0 0 12 23 A 1 1 0 0 0 12.056641 22.992188 C 12.555823 22.982783 13.053603 22.853453 13.5 22.595703 L 13.496094 22.599609 L 15.496094 21.458984 A 1 1 0 0 0 15.869141 20.095703 A 1 1 0 0 0 14.503906 19.720703 L 13 20.578125 L 13 12.578125 L 20 8.5605469 L 20 10 A 1 1 0 0 0 21 11 A 1 1 0 0 0 22 10 L 22 8 A 1.0001 1.0001 0 0 0 22 7.9980469 C 21.9989 6.9289468 21.425869 5.9388466 20.5 5.4042969 A 1.0001 1.0001 0 0 0 20.496094 5.4023438 L 13.5 1.4042969 C 13.036593 1.1367489 12.518295 1.0019531 12 1.0019531 z M 12 3.0019531 C 12.172303 3.0019531 12.344606 3.0470017 12.5 3.1367188 A 1.0001 1.0001 0 0 0 12.503906 3.1386719 L 18.980469 6.8398438 L 16.496094 8.265625 L 9.5136719 4.2714844 L 11.496094 3.1386719 A 1.0001 1.0001 0 0 0 11.5 3.1367188 C 11.655394 3.0470017 11.827697 3.0019531 12 3.0019531 z M 7.5 5.421875 L 14.488281 9.4199219 L 12 10.847656 L 5.0195312 6.8398438 L 7.5 5.421875 z M 4 8.5605469 L 11 12.578125 L 11 20.578125 L 4.5 16.863281 C 4.1900603 16.684338 4.0010048 16.357782 4 16 L 4 8.5605469 z M 18.5 12 C 16.578852 12 15 13.578852 15 15.5 C 15 17.421148 16.578852 19 18.5 19 C 19.099745 19 19.664751 18.844336 20.160156 18.574219 L 20.162109 18.574219 L 21.292969 19.707031 A 1 1 0 0 0 22.707031 19.707031 A 1 1 0 0 0 22.707031 18.292969 L 21.574219 17.162109 C 21.574496 17.161602 21.573942 17.160663 21.574219 17.160156 C 21.844336 16.664751 22 16.099745 22 15.5 C 22 13.578852 20.421148 12 18.5 12 z M 18.5 14 C 19.34027 14 20 14.65973 20 15.5 C 20 15.912552 19.839476 16.280031 19.578125 16.548828 A 1 1 0 0 0 19.5625 16.5625 A 1 1 0 0 0 19.548828 16.578125 C 19.280031 16.839476 18.912552 17 18.5 17 C 17.65973 17 17 16.34027 17 15.5 C 17 14.65973 17.65973 14 18.5 14 z "/>
</svg>
