<?xml version="1.0" encoding="UTF-8" standalone="no"?>
<svg xmlns="http://www.w3.org/2000/svg" xmlns:svg="http://www.w3.org/2000/svg" width="24" height="24" viewBox="0 0 24 24" fill="currentColor" tags="box,container,storage,sealed,packed,unopened,undelivered,archive,zip" categories="files,development">
  <path d="M 7.2402344 2 C 6.1080135 1.9985058 5.0661857 2.6391889 4.5566406 3.6503906 A 1.0001 1.0001 0 0 0 4.5546875 3.6523438 L 2.3164062 8.1308594 C 2.2200498 8.3236506 2.1484198 8.5266718 2.0957031 8.734375 A 1 1 0 0 0 2.0859375 8.7636719 C 2.076374 8.8030459 2.0704647 8.843079 2.0625 8.8828125 C 2.0236427 9.0766597 2.0000135 9.2738286 2 9.4726562 L 2 19 C 2 20.64501 3.3549904 22 5 22 L 19 22 C 20.64501 22 22 20.64501 22 19 L 22 9.4707031 A 1.0001 1.0001 0 0 0 22 9.46875 C 21.999891 9.2760932 21.97596 9.0862199 21.939453 8.8984375 A 1 1 0 0 0 21.919922 8.7871094 A 1 1 0 0 0 21.919922 8.7832031 A 1 1 0 0 0 21.896484 8.703125 C 21.844657 8.507373 21.776527 8.3153581 21.685547 8.1328125 L 19.455078 3.6542969 A 1.0001 1.0001 0 0 0 19.453125 3.6503906 C 18.940942 2.633802 17.892228 1.992078 16.753906 2 L 7.2421875 2 L 7.2402344 2 z M 7.2382812 4 A 1.0001 1.0001 0 0 0 7.2402344 4 L 11 4 L 11 8.0136719 L 4.6113281 8.0136719 L 6.34375 4.546875 L 6.34375 4.5507812 C 6.5149567 4.2110147 6.857821 3.9992503 7.2382812 4 z M 13 4 L 16.759766 4 A 1.0001 1.0001 0 0 0 16.767578 4 C 17.149884 3.99734 17.493983 4.2093584 17.666016 4.5507812 L 19.390625 8.0136719 L 13 8.0136719 L 13 4 z M 4 10.013672 L 20 10.013672 L 20 19 C 20 19.564129 19.564129 20 19 20 L 5 20 C 4.4358706 20 4 19.564129 4 19 L 4 10.013672 z "/>
</svg>
