<?xml version="1.0" encoding="UTF-8" standalone="no"?>
<svg xmlns="http://www.w3.org/2000/svg" xmlns:svg="http://www.w3.org/2000/svg" width="24" height="24" viewBox="0 0 24 24" fill="currentColor" tags="find,product process" categories="files,development">
  <path d="M 12 1.0019531 C 11.483132 1.0019531 10.966338 1.1362676 10.503906 1.4023438 L 7.0390625 3.3828125 A 1 1 0 0 0 6.9804688 3.4160156 L 3.5039062 5.4023438 A 1.0001 1.0001 0 0 0 3.5 5.4042969 C 2.5741295 5.9388477 2.0010966 6.9289447 2 7.9980469 A 1.0001 1.0001 0 0 0 2 8 L 2 16 A 1.0001 1.0001 0 0 0 2 16.001953 C 2.0011 17.071055 2.5741295 18.061152 3.5 18.595703 A 1.0001 1.0001 0 0 0 3.5039062 18.597656 L 10.503906 22.597656 C 10.937982 22.847417 11.419333 22.980723 11.904297 22.996094 A 1 1 0 0 0 12 23 A 1 1 0 0 0 12.09375 22.996094 C 12.580295 22.980856 13.064795 22.846991 13.5 22.595703 L 13.496094 22.599609 L 15.496094 21.458984 A 1 1 0 0 0 15.869141 20.095703 A 1 1 0 0 0 14.503906 19.720703 L 13 20.578125 L 13 12.578125 L 16.947266 10.3125 A 1 1 0 0 0 17.001953 10.28125 L 17.046875 10.255859 A 1 1 0 0 0 17.048828 10.253906 L 20 8.5605469 L 20 10 A 1 1 0 0 0 21 11 A 1 1 0 0 0 22 10 L 22 8 A 1.0001 1.0001 0 0 0 22 7.9980469 C 21.9989 6.9289447 21.42587 5.9388477 20.5 5.4042969 A 1.0001 1.0001 0 0 0 20.496094 5.4023438 L 13.5 1.4042969 C 13.036593 1.1367485 12.518296 1.0019531 12 1.0019531 z M 12 3.0019531 C 12.172303 3.0019531 12.344606 3.0470016 12.5 3.1367188 A 1.0001 1.0001 0 0 0 12.503906 3.1386719 L 18.980469 6.8398438 L 16.496094 8.265625 L 9.5136719 4.2714844 L 11.496094 3.1386719 A 1.0001 1.0001 0 0 0 11.5 3.1367188 C 11.655394 3.0470016 11.827697 3.0019531 12 3.0019531 z M 7.5 5.421875 L 14.488281 9.4199219 L 12 10.847656 L 5.0195312 6.8398438 L 7.5 5.421875 z M 4 8.5605469 L 11 12.578125 L 11 20.578125 L 4.5 16.863281 C 4.1900597 16.684337 4.0010048 16.357782 4 16 L 4 8.5605469 z M 18.5 12 C 16.578848 12 15 13.578848 15 15.5 C 15 17.421152 16.578848 19 18.5 19 C 19.099854 19 19.66664 18.84638 20.162109 18.576172 L 21.292969 19.707031 A 1 1 0 0 0 22.707031 19.707031 A 1 1 0 0 0 22.707031 18.292969 L 21.576172 17.162109 C 21.84638 16.66664 22 16.099854 22 15.5 C 22 13.578848 20.421152 12 18.5 12 z M 18.5 14 C 19.340272 14 20 14.659728 20 15.5 C 20 15.895881 19.854093 16.251958 19.611328 16.517578 A 1 1 0 0 0 19.5625 16.5625 A 1 1 0 0 0 19.517578 16.611328 C 19.251958 16.854093 18.895881 17 18.5 17 C 17.659728 17 17 16.340272 17 15.5 C 17 14.659728 17.659728 14 18.5 14 z "/>
</svg>
