<?xml version="1.0" encoding="UTF-8" standalone="no"?>
<svg xmlns="http://www.w3.org/2000/svg" xmlns:svg="http://www.w3.org/2000/svg" width="24" height="24" viewBox="0 0 24 24" fill="currentColor" tags="box,container,storage,sealed,delivery,undelivered,unopened,packed,archive,zip,module" categories="files,development">
  <path d="M 12 1.0019531 C 11.483133 1.0019531 10.966338 1.1362682 10.503906 1.4023438 L 6.9980469 3.40625 L 3.5039062 5.4023438 A 1.0001 1.0001 0 0 0 3.5 5.4042969 C 2.5741314 5.9388466 2.0010966 6.9289468 2 7.9980469 A 1.0001 1.0001 0 0 0 2 8 L 2 16 A 1.0001 1.0001 0 0 0 2 16.001953 C 2.0011 17.071053 2.5741314 18.061154 3.5 18.595703 A 1.0001 1.0001 0 0 0 3.5039062 18.597656 L 10.503906 22.597656 C 10.948264 22.853333 11.442884 22.982139 11.939453 22.992188 A 1 1 0 0 0 12 23 A 1 1 0 0 0 12.056641 22.992188 C 12.555823 22.982783 13.053603 22.853453 13.5 22.595703 L 20.496094 18.597656 A 1.0001 1.0001 0 0 0 20.5 18.595703 C 21.425869 18.061154 21.998903 17.071053 22 16.001953 A 1.0001 1.0001 0 0 0 22 16 L 22 8 A 1.0001 1.0001 0 0 0 22 7.9980469 C 21.9989 6.9289468 21.425869 5.9388466 20.5 5.4042969 A 1.0001 1.0001 0 0 0 20.496094 5.4023438 L 13.5 1.4042969 C 13.036593 1.1367489 12.518295 1.0019531 12 1.0019531 z M 12 3.0019531 C 12.172303 3.0019531 12.344606 3.0470017 12.5 3.1367188 A 1.0001 1.0001 0 0 0 12.503906 3.1386719 L 19.017578 6.8613281 L 16.617188 8.3359375 L 9.5136719 4.2714844 L 11.496094 3.1386719 A 1.0001 1.0001 0 0 0 11.5 3.1367188 C 11.655394 3.0470017 11.827697 3.0019531 12 3.0019531 z M 7.5 5.421875 L 14.677734 9.5273438 L 12.498047 10.867188 C 12.188042 11.045453 11.811958 11.045453 11.501953 10.867188 L 4.9824219 6.8613281 L 7.5 5.421875 z M 4 8.6035156 L 10.478516 12.585938 A 1.0001 1.0001 0 0 0 10.503906 12.601562 C 10.663362 12.693257 10.829785 12.76806 11 12.828125 L 11 20.578125 L 4.5 16.863281 C 4.1900603 16.684338 4.0010048 16.357782 4 16 L 4 8.6035156 z M 20 8.6035156 L 20 15.998047 C 19.999632 16.356541 19.810465 16.684034 19.5 16.863281 L 13 20.578125 L 13 12.828125 C 13.170215 12.76806 13.336638 12.693257 13.496094 12.601562 A 1.0001 1.0001 0 0 0 13.521484 12.585938 L 20 8.6035156 z "/>
</svg>
