<?xml version="1.0" encoding="UTF-8" standalone="no"?>
<svg xmlns="http://www.w3.org/2000/svg" xmlns:svg="http://www.w3.org/2000/svg" width="24" height="24" viewBox="0 0 24 24" fill="currentColor" tags="box,container,storage,unpack,unarchive,unzip,opened,delivered" categories="files,development">
  
  <path d="M 7.6542969 1.0058594 C 7.1818809 1.0058594 6.7103275 1.1198605 6.28125 1.3476562 L 2.6386719 3.2421875 A 1.0001 1.0001 0 0 0 2.6191406 3.2539062 C 0.71211049 4.2989627 0.51689993 6.9751921 2.0703125 8.3398438 C 0.55189299 9.661197 0.66461778 12.254873 2.4785156 13.363281 A 1.0001 1.0001 0 0 0 2.4902344 13.371094 L 3 13.671875 L 3 16.869141 C 2.99882 18.010097 3.6360485 19.061721 4.6484375 19.587891 A 1.0001 1.0001 0 0 0 4.6542969 19.589844 L 10.648438 22.667969 C 10.649637 22.668568 10.651244 22.667371 10.652344 22.667969 L 10.654297 22.669922 C 11.065488 22.882489 11.515997 22.990657 11.966797 22.996094 A 1 1 0 0 0 12 23 A 1 1 0 0 0 12.025391 22.996094 C 12.481346 22.992492 12.936035 22.883939 13.351562 22.667969 L 19.345703 19.589844 A 1.0001 1.0001 0 0 0 19.351562 19.587891 C 20.36387 19.061721 21.001181 18.010097 21 16.869141 L 21 13.671875 L 21.509766 13.371094 A 1.0001 1.0001 0 0 0 21.521484 13.363281 C 23.326657 12.260205 23.446661 9.6864995 21.951172 8.359375 C 23.526628 6.9830132 23.306436 4.2726578 21.369141 3.2460938 A 1.0001 1.0001 0 0 0 21.361328 3.2421875 L 17.71875 1.3476562 C 17.289672 1.1198605 16.818119 1.0058594 16.345703 1.0058594 C 15.873288 1.0058594 15.399781 1.1198605 14.970703 1.3476562 A 1.0001 1.0001 0 0 0 14.96875 1.3476562 L 12 2.9375 L 9.03125 1.3476562 A 1.0001 1.0001 0 0 0 9.0292969 1.3476562 C 8.6002163 1.1198605 8.1267127 1.0058594 7.6542969 1.0058594 z M 7.65625 3.0039062 C 7.8060865 3.0039062 7.9549468 3.040628 8.0917969 3.1132812 L 9.8808594 4.0703125 L 4.0078125 7.2148438 L 3.5546875 6.9570312 L 3.5527344 6.9550781 C 2.7601789 6.4899511 2.7733594 5.4498962 3.5800781 5.0078125 L 7.2109375 3.1171875 A 1.0001 1.0001 0 0 0 7.21875 3.1132812 C 7.3556001 3.040628 7.5064135 3.0039062 7.65625 3.0039062 z M 16.345703 3.0039062 C 16.49554 3.0039062 16.6444 3.040628 16.78125 3.1132812 A 1.0001 1.0001 0 0 0 16.789062 3.1171875 L 20.431641 5.0136719 L 20.431641 5.015625 C 21.244264 5.4476928 21.273572 6.4882525 20.484375 6.9628906 L 20.015625 7.2265625 L 14.119141 4.0703125 L 15.908203 3.1132812 C 16.045053 3.040628 16.195867 3.0039062 16.345703 3.0039062 z M 12 5.2050781 L 17.953125 8.3925781 L 12.007812 11.75 L 6.0664062 8.3808594 L 12 5.2050781 z M 3.9824219 9.4980469 L 9.9765625 12.896484 L 8.2441406 13.875 C 7.9412652 14.042973 7.5782661 14.042973 7.2753906 13.875 L 3.5214844 11.65625 L 3.5214844 11.654297 C 2.7469228 11.179482 2.7703006 10.154192 3.5683594 9.71875 L 3.9824219 9.4980469 z M 20.042969 9.5097656 L 20.431641 9.71875 C 21.229699 10.154192 21.253082 11.179435 20.478516 11.654297 L 20.478516 11.65625 L 16.724609 13.875 C 16.421735 14.042973 16.058735 14.042973 15.755859 13.875 L 14.039062 12.900391 L 20.042969 9.5097656 z M 13 14.611328 L 14.777344 15.619141 A 1.0001 1.0001 0 0 0 14.785156 15.625 C 15.689032 16.126283 16.791437 16.126283 17.695312 15.625 A 1.0001 1.0001 0 0 0 17.71875 15.611328 L 19 14.853516 L 19 16.869141 A 1.0001 1.0001 0 0 0 19 16.871094 C 19.000412 17.268989 18.782747 17.629004 18.429688 17.8125 L 13 20.599609 L 13 14.611328 z M 11 14.617188 L 11 20.599609 L 5.5703125 17.8125 C 5.2172531 17.629004 4.9995882 17.268989 5 16.871094 A 1.0001 1.0001 0 0 0 5 16.869141 L 5 14.853516 L 6.28125 15.611328 A 1.0001 1.0001 0 0 0 6.3046875 15.625 C 7.2085632 16.126283 8.310968 16.126283 9.2148438 15.625 A 1.0001 1.0001 0 0 0 9.2226562 15.621094 L 11 14.617188 z "/>
</svg>
