<?xml version="1.0" encoding="UTF-8" standalone="no"?>
<svg xmlns="http://www.w3.org/2000/svg" xmlns:svg="http://www.w3.org/2000/svg" width="24" height="24" viewBox="0 0 24 24" fill="currentColor" tags="box,container,storage,unpack,unarchive,unzip,opened,delivered" categories="files,development">
  <path d="M 8.015625 0.984375 C 7.5624925 0.984375 7.1088113 1.0997067 6.703125 1.3320312 L 2.5078125 3.6992188 C 0.72513084 4.7072827 0.58075386 7.2439413 2.0742188 8.5 C 0.58075727 9.7560596 0.72513212 12.292718 2.5078125 13.300781 L 3 13.578125 L 3 16.869141 C 2.99882 18.010101 3.6360465 19.06172 4.6484375 19.587891 A 1.0001 1.0001 0 0 0 4.6542969 19.589844 L 10.648438 22.667969 L 10.650391 22.667969 L 10.652344 22.667969 L 10.654297 22.669922 C 11.048296 22.873601 11.478344 22.982577 11.910156 22.996094 A 1 1 0 0 0 12 23 A 1 1 0 0 0 12.087891 22.996094 C 12.522433 22.983225 12.955418 22.873865 13.351562 22.667969 L 19.345703 19.589844 A 1.0001 1.0001 0 0 0 19.351562 19.587891 C 20.363872 19.06172 21.001181 18.010101 21 16.869141 L 21 13.576172 L 21.490234 13.300781 A 1.0001 1.0001 0 0 0 21.492188 13.300781 C 23.274868 12.292718 23.419244 9.7560591 21.925781 8.5 C 23.419244 7.2439408 23.274869 4.7072824 21.492188 3.6992188 A 1.0001 1.0001 0 0 0 21.490234 3.6972656 L 17.289062 1.3378906 A 1.0001 1.0001 0 0 0 17.287109 1.3378906 C 16.882921 1.111868 16.433769 0.99804687 15.984375 0.99804688 C 15.534981 0.99804688 15.085876 1.1118712 14.681641 1.3378906 A 1.0001 1.0001 0 0 0 14.679688 1.3378906 L 12.005859 2.8457031 L 9.3261719 1.3320312 C 8.9204856 1.0997066 8.4687575 0.984375 8.015625 0.984375 z M 8.015625 2.9824219 C 8.1252127 2.9824219 8.2348003 3.0115596 8.3339844 3.0683594 A 1.0001 1.0001 0 0 0 8.3378906 3.0703125 L 9.9707031 3.9921875 L 4.0136719 7.3515625 L 3.4921875 7.0585938 C 2.8189102 6.6778715 2.8189102 5.8221285 3.4921875 5.4414062 L 7.6914062 3.0703125 A 1.0001 1.0001 0 0 0 7.6972656 3.0683594 C 7.7964497 3.0115596 7.9060373 2.9824219 8.015625 2.9824219 z M 15.986328 2.9960938 C 16.098434 2.9960087 16.210601 3.0250565 16.3125 3.0820312 L 20.507812 5.4414062 C 21.18109 5.8221286 21.181091 6.6778715 20.507812 7.0585938 L 19.988281 7.3515625 L 14.041016 3.9941406 L 15.658203 3.0820312 L 15.660156 3.0820312 C 15.762176 3.0253967 15.874222 2.9961788 15.986328 2.9960938 z M 12.005859 5.140625 L 17.951172 8.4980469 L 12 11.851562 L 6.0507812 8.5 L 12.005859 5.140625 z M 4.0136719 9.6484375 L 9.9628906 12.998047 L 8.3300781 13.917969 A 1.0001 1.0001 0 0 0 8.3242188 13.921875 C 8.12175 14.037364 7.87825 14.037364 7.6757812 13.921875 A 1.0001 1.0001 0 0 0 7.671875 13.919922 L 3.4921875 11.558594 C 2.8189102 11.177871 2.8189102 10.322129 3.4921875 9.9414062 L 4.0136719 9.6484375 z M 19.986328 9.6484375 L 20.507812 9.9414062 C 21.18109 10.322129 21.18109 11.177871 20.507812 11.558594 L 16.318359 13.917969 A 1.0001 1.0001 0 0 0 16.3125 13.923828 C 16.114952 14.037326 15.875282 14.037326 15.677734 13.923828 A 1.0001 1.0001 0 0 0 15.669922 13.917969 L 14.039062 12.998047 L 19.986328 9.6484375 z M 19 14.703125 L 19 16.869141 A 1.0001 1.0001 0 0 0 19 16.871094 C 19.000412 17.268991 18.782749 17.629004 18.429688 17.8125 L 13 20.599609 L 13 14.708984 L 14.681641 15.65625 C 15.493399 16.122631 16.496835 16.122631 17.308594 15.65625 L 19 14.703125 z M 5 14.707031 L 6.6875 15.660156 C 7.5008112 16.12228 8.5036864 16.121829 9.3164062 15.658203 L 11 14.708984 L 11 20.599609 L 5.5703125 17.8125 C 5.2172524 17.629004 4.9995882 17.268991 5 16.871094 A 1.0001 1.0001 0 0 0 5 16.869141 L 5 14.707031 z "/>
</svg>
