<?xml version="1.0" encoding="UTF-8" standalone="no"?>
<svg xmlns="http://www.w3.org/2000/svg" xmlns:svg="http://www.w3.org/2000/svg" width="24" height="24" viewBox="0 0 24 24" fill="currentColor" tags="box,container,storage,sealed,packed,unopened,undelivered,archive,zip" categories="files,development">
  <path d="M 7.2402344 2 C 6.1080157 1.9985058 5.0661847 2.6391909 4.5566406 3.6503906 A 1.0001 1.0001 0 0 0 4.5546875 3.6523438 L 2.1054688 8.5527344 A 1 1 0 0 0 2.0957031 8.5878906 A 1.0001 1.0001 0 0 0 2.0449219 8.7714844 A 1 1 0 0 0 2.0058594 8.9667969 A 1.0001 1.0001 0 0 0 2 9 L 2 19 C 2 20.645006 3.3549936 22 5 22 L 19 22 C 20.645006 22 22 20.645006 22 19 L 22 9 A 1.0001 1.0001 0 0 0 21.996094 8.9804688 A 1 1 0 0 0 21.925781 8.6308594 A 1.0001 1.0001 0 0 0 21.916016 8.6054688 A 1 1 0 0 0 21.894531 8.5546875 L 19.455078 3.6542969 A 1.0001 1.0001 0 0 0 19.453125 3.6503906 C 18.940944 2.633804 17.892226 1.992078 16.753906 2 L 12 2 L 7.2421875 2 L 7.2402344 2 z M 7.2382812 4 A 1.0001 1.0001 0 0 0 7.2402344 4 L 11 4 L 11 8 L 4.6171875 8 L 6.34375 4.546875 L 6.34375 4.5507812 C 6.5149563 4.2110153 6.8578218 3.9992503 7.2382812 4 z M 13 4 L 16.759766 4 A 1.0001 1.0001 0 0 0 16.767578 4 C 17.149883 3.99734 17.493983 4.2093591 17.666016 4.5507812 L 19.384766 8 L 13 8 L 13 4 z M 4 10 L 12 10 L 20 10 L 20 19 C 20 19.564128 19.564128 20 19 20 L 5 20 C 4.4358718 20 4 19.564128 4 19 L 4 10 z "/>
</svg>
