<?xml version="1.0" encoding="UTF-8" standalone="no"?>
<svg xmlns="http://www.w3.org/2000/svg" xmlns:svg="http://www.w3.org/2000/svg" width="24" height="24" viewBox="0 0 24 24" fill="currentColor" tags="box,container,storage,unpack,unarchive,unzip,opened,delivered" categories="files,development">
  <path d="M 8.015625 0.984375 C 7.5624935 0.984375 7.1088105 1.0997072 6.703125 1.3320312 L 2.5078125 3.6992188 C 0.72464038 4.7075601 0.58138793 7.2443052 2.0761719 8.5 C 0.58138793 9.7556947 0.72464038 12.29244 2.5078125 13.300781 L 3 13.578125 L 3 16.869141 C 2.99882 18.010097 3.6360485 19.061721 4.6484375 19.587891 A 1.0001 1.0001 0 0 0 4.6542969 19.589844 L 10.648438 22.667969 C 10.649637 22.668568 10.651244 22.667371 10.652344 22.667969 L 10.654297 22.669922 C 11.065488 22.882489 11.515997 22.990657 11.966797 22.996094 A 1 1 0 0 0 12 23 A 1 1 0 0 0 12.025391 22.996094 C 12.481346 22.992492 12.936035 22.883939 13.351562 22.667969 L 19.345703 19.589844 A 1.0001 1.0001 0 0 0 19.351562 19.587891 C 20.36387 19.061721 21.001181 18.010097 21 16.869141 L 21 13.576172 L 21.490234 13.300781 A 1.0001 1.0001 0 0 0 21.492188 13.300781 C 23.27536 12.29244 23.418613 9.7556947 21.923828 8.5 C 23.418613 7.2443052 23.27536 4.7075601 21.492188 3.6992188 A 1.0001 1.0001 0 0 0 21.490234 3.6972656 L 17.289062 1.3378906 A 1.0001 1.0001 0 0 0 17.287109 1.3378906 C 16.882922 1.1118685 16.433769 0.99804687 15.984375 0.99804688 C 15.534981 0.99804688 15.085875 1.1118717 14.681641 1.3378906 A 1.0001 1.0001 0 0 0 14.679688 1.3378906 L 12.005859 2.8457031 L 9.3261719 1.3320312 C 8.9204864 1.0997072 8.4687565 0.984375 8.015625 0.984375 z M 8.015625 2.9824219 C 8.1252126 2.9824219 8.2348005 3.0115597 8.3339844 3.0683594 A 1.0001 1.0001 0 0 0 8.3378906 3.0703125 L 9.9707031 3.9921875 L 4.0136719 7.3515625 L 3.4921875 7.0585938 C 2.8189116 6.6778722 2.8189116 5.8221279 3.4921875 5.4414062 L 7.6914062 3.0703125 A 1.0001 1.0001 0 0 0 7.6972656 3.0683594 C 7.7964495 3.0115597 7.9060374 2.9824219 8.015625 2.9824219 z M 15.986328 2.9960938 C 16.098434 2.9960087 16.210601 3.0250567 16.3125 3.0820312 L 20.507812 5.4414062 C 21.181089 5.8221279 21.181089 6.6778722 20.507812 7.0585938 L 19.988281 7.3515625 L 14.041016 3.9941406 L 15.658203 3.0820312 L 15.660156 3.0820312 C 15.762176 3.0253968 15.874222 2.9961788 15.986328 2.9960938 z M 12.005859 5.140625 L 17.951172 8.4980469 L 12 11.851562 L 6.0507812 8.5 L 12.005859 5.140625 z M 4.0136719 9.6484375 L 9.9628906 12.998047 L 8.3300781 13.917969 A 1.0001 1.0001 0 0 0 8.3242188 13.921875 C 8.1217505 14.037364 7.8782495 14.037364 7.6757812 13.921875 A 1.0001 1.0001 0 0 0 7.671875 13.919922 L 3.4921875 11.558594 C 2.8189116 11.177872 2.8189116 10.322128 3.4921875 9.9414062 L 4.0136719 9.6484375 z M 19.986328 9.6484375 L 20.507812 9.9414062 C 21.181089 10.322128 21.181089 11.177872 20.507812 11.558594 L 16.318359 13.917969 A 1.0001 1.0001 0 0 0 16.3125 13.923828 C 16.114952 14.037326 15.875282 14.037326 15.677734 13.923828 A 1.0001 1.0001 0 0 0 15.669922 13.917969 L 14.039062 12.998047 L 19.986328 9.6484375 z M 19 14.703125 L 19 16.869141 A 1.0001 1.0001 0 0 0 19 16.871094 C 19.000412 17.268989 18.782747 17.629004 18.429688 17.8125 L 13 20.599609 L 13 14.708984 L 14.681641 15.65625 C 15.493397 16.122631 16.496837 16.122631 17.308594 15.65625 L 19 14.703125 z M 5 14.707031 L 6.6875 15.660156 C 7.5008096 16.122279 8.5036881 16.121829 9.3164062 15.658203 L 11 14.708984 L 11 20.599609 L 5.5703125 17.8125 C 5.2172531 17.629004 4.9995882 17.268989 5 16.871094 A 1.0001 1.0001 0 0 0 5 16.869141 L 5 14.707031 z "/>
</svg>
