<?xml version="1.0" encoding="UTF-8" standalone="no"?>
<svg xmlns="http://www.w3.org/2000/svg" xmlns:svg="http://www.w3.org/2000/svg" width="24" height="24" viewBox="0 0 24 24" fill="currentColor" tags="fill,paint,bucket,color,colour" categories="design,tools">
  <path d="M 5 1 A 1 1 0 0 0 4.2929688 1.2929688 A 1 1 0 0 0 4.2929688 2.7070312 L 7.0859375 5.5 L 1.6933594 10.892578 A 1.0001 1.0001 0 0 0 1.6855469 10.900391 C 0.54990443 12.058978 0.54990443 13.941022 1.6855469 15.099609 A 1.0001 1.0001 0 0 0 1.6933594 15.107422 L 6.8925781 20.306641 C 8.0461315 21.460194 9.9538684 21.460194 11.107422 20.306641 L 17.695312 13.71875 A 1 1 0 0 0 17.71875 13.695312 L 19.707031 11.707031 A 1.0001 1.0001 0 0 0 19.707031 10.292969 L 11.707031 2.2929688 A 1.0001 1.0001 0 0 0 10.292969 2.2929688 L 8.5 4.0859375 L 5.7070312 1.2929688 A 1 1 0 0 0 5 1 z M 11 4.4140625 L 17.585938 11 L 16.585938 12 L 3.4140625 12 L 8.5 6.9140625 L 9.2929688 7.7070312 A 1 1 0 0 0 10.707031 7.7070312 A 1 1 0 0 0 10.707031 6.2929688 L 9.9140625 5.5 L 11 4.4140625 z M 3.4140625 14 L 14.585938 14 L 9.6933594 18.892578 C 9.2469128 19.339025 8.7530872 19.339025 8.3066406 18.892578 L 3.4140625 14 z M 20 15 A 1.0001 1.0001 0 0 0 19.017578 15.816406 C 18.925067 16.3098 18.57416 16.767971 18.095703 17.388672 C 17.617246 18.009372 17 18.845833 17 20 C 17 20.916666 17.379756 21.731441 17.960938 22.248047 C 18.542119 22.764653 19.277778 23 20 23 C 20.722222 23 21.457881 22.764653 22.039062 22.248047 C 22.620244 21.731441 23 20.916666 23 20 C 23 18.845833 22.382754 18.009372 21.904297 17.388672 C 21.42584 16.767971 21.074933 16.3098 20.982422 15.816406 A 1.0001 1.0001 0 0 0 20 15 z M 20 18.171875 C 20.109066 18.314359 20.223703 18.485996 20.320312 18.611328 C 20.766856 19.190628 21 19.554167 21 20 C 21 20.416666 20.879756 20.601893 20.710938 20.751953 C 20.542119 20.902014 20.277778 21 20 21 C 19.722222 21 19.457881 20.902014 19.289062 20.751953 C 19.120244 20.601893 19 20.416666 19 20 C 19 19.554167 19.233144 19.190628 19.679688 18.611328 C 19.776297 18.485996 19.890934 18.314359 20 18.171875 z "/>
</svg>
