<?xml version="1.0" encoding="UTF-8" standalone="no"?>
<svg xmlns="http://www.w3.org/2000/svg" xmlns:svg="http://www.w3.org/2000/svg" width="24" height="24" viewBox="0 0 24 24" fill="currentColor" tags="brush,color,colour,decoration,diy" categories="text,design,home,tools">
  <path d="M 4 1 C 2.3553005 1 1 2.3553005 1 4 L 1 6 C 1 7.6446995 2.3553005 9 4 9 L 16 9 C 17.644699 9 19 7.6446995 19 6 L 20 6 C 20.564128 6 21 6.4358718 21 7 L 21 10 C 21 10.564128 20.564128 11 20 11 L 12 11 C 10.354994 11 9 12.354994 9 14 L 9 15 C 7.9092994 15 7 15.909299 7 17 L 7 21 C 7 22.090701 7.9092994 23 9 23 L 11 23 C 12.090701 23 13 22.090701 13 21 L 13 17 C 13 15.909299 12.090701 15 11 15 L 11 14 C 11 13.435872 11.435872 13 12 13 L 20 13 C 21.645006 13 23 11.645006 23 10 L 23 7 C 23 5.3549936 21.645006 4 20 4 L 19 4 C 19 2.3553005 17.644699 1 16 1 L 4 1 z M 4 3 L 16 3 C 16.571296 3 17 3.4287039 17 4 L 17 6 C 17 6.5712961 16.571296 7 16 7 L 4 7 C 3.4287039 7 3 6.5712961 3 6 L 3 4 C 3 3.4287039 3.4287039 3 4 3 z M 9 17 L 10 17 L 11 17 L 11 21 L 9 21 L 9 17 z "/>
</svg>
