<svg xmlns="http://www.w3.org/2000/svg" xmlns:svg="http://www.w3.org/2000/svg" width="24" height="24" viewBox="0 0 24 24" fill="currentColor" tags="fill,paint,bucket,color,colour" categories="design,tools">
  <path d="M 6 1 A 1 1 0 0 0 5.2929688 1.2929688 A 1 1 0 0 0 5.2929688 2.7070312 L 7.7929688 5.2070312 L 10.292969 7.7070312 A 1 1 0 0 0 11.707031 7.7070312 A 1 1 0 0 0 11.707031 6.2929688 L 9.9140625 4.5 L 11.355469 3.0585938 C 11.443899 2.9701797 11.556104 2.9701797 11.644531 3.0585938 L 18.941406 10.355469 C 19.029816 10.443899 19.029816 10.556104 18.941406 10.644531 L 18.585938 11 L 3.46875 11 C 3.5552646 10.877481 3.6536313 10.760448 3.7636719 10.650391 L 6.3769531 8.0371094 A 1 1 0 0 0 6.3769531 6.6230469 A 1 1 0 0 0 4.9628906 6.6230469 L 2.3496094 9.2363281 C 1.6277015 9.9583439 1.2013234 10.866706 1.0605469 11.810547 A 1 1 0 0 0 1.046875 11.908203 C 0.87181751 13.280131 1.3028466 14.716752 2.3496094 15.763672 L 6.2363281 19.650391 C 8.0301698 21.443964 10.96983 21.443964 12.763672 19.650391 L 20.355469 12.058594 C 21.208049 11.205886 21.208049 9.7941135 20.355469 8.9414062 L 13.058594 1.6445312 C 12.63224 1.2182414 12.06635 1.0058594 11.5 1.0058594 C 10.93365 1.0058594 10.36776 1.2182414 9.9414062 1.6445312 L 8.5 3.0859375 L 6.7070312 1.2929688 A 1 1 0 0 0 6 1 z M 3.0410156 13 L 16.585938 13 L 11.349609 18.236328 C 10.320048 19.265736 8.6799522 19.265736 7.6503906 18.236328 L 3.7636719 14.349609 C 3.3781198 13.964 3.13776 13.492745 3.0410156 13 z M 19.998047 15.5 A 1.0001 1.0001 0 0 0 19.021484 16.294922 C 18.91324 16.810335 18.630936 17.27279 18.222656 17.605469 C 17.468983 18.211709 17.004761 19.073092 17.001953 19.966797 C 16.983846 21.623908 18.34227 23.00013 20 23 C 21.65773 23.00013 23.016167 21.623868 22.998047 19.966797 C 22.995147 19.063145 22.518579 18.211433 21.779297 17.607422 L 21.779297 17.605469 L 21.777344 17.605469 C 21.369813 17.269713 21.089241 16.807361 20.978516 16.291016 A 1.0001 1.0001 0 0 0 19.998047 15.5 z M 19.998047 18.3125 C 20.199916 18.57722 20.24934 18.9383 20.509766 19.152344 A 1 1 0 0 0 20.513672 19.154297 C 20.910913 19.47831 21 19.722196 21 19.974609 A 1.0001 1.0001 0 0 0 21 19.988281 C 21.0071 20.557757 20.56952 21.000044 20 21 C 19.43048 21.000044 18.992881 20.557757 19 19.988281 A 1.0001 1.0001 0 0 0 19 19.974609 C 19 19.724247 19.09096 19.471766 19.480469 19.160156 A 1.0001 1.0001 0 0 0 19.486328 19.154297 C 19.748359 18.940786 19.795323 18.577561 19.998047 18.3125 z "/>
</svg>
