<?xml version="1.0" encoding="UTF-8" standalone="no"?>
<svg xmlns="http://www.w3.org/2000/svg" xmlns:svg="http://www.w3.org/2000/svg" width="24" height="24" viewBox="0 0 24 24" fill="currentColor" tags="brush,paintbrush,design,color,colour,decoration,diy" categories="text,design,photography,home,tools">
  <path d="M 7 1 C 5.9072751 1 5 1.9072751 5 3 L 5 11.275391 C 4.4058841 11.624773 4 12.270374 4 13 L 4 14 C 4 15.64501 5.3549904 17 7 17 L 9 17 L 9 19.900391 C 9 20.817057 9.3797556 21.629878 9.9609375 22.146484 C 10.542119 22.66309 11.277778 22.900391 12 22.900391 C 12.722222 22.900391 13.45788 22.66309 14.039062 22.146484 C 14.620243 21.629878 15 20.817057 15 19.900391 L 15 17 L 17 17 C 18.64501 17 20 15.64501 20 14 L 20 13 C 20 12.270374 19.594116 11.624773 19 11.275391 L 19 3 C 19 1.9072751 18.092725 1 17 1 L 7 1 z M 7 3 L 9 3 L 9 4 A 1 1 0 0 0 10 5 A 1 1 0 0 0 11 4 L 11 3 L 13 3 L 13 6 A 1 1 0 0 0 14 7 A 1 1 0 0 0 15 6 L 15 3 L 17 3 L 17 11 L 7 11 L 7 3 z M 6 13 L 18 13 L 18 14 C 18 14.564129 17.564129 15 17 15 L 15 15 C 13.907275 15 13 15.907275 13 17 L 13 19.900391 C 13 20.317057 12.879756 20.502283 12.710938 20.652344 C 12.542119 20.802404 12.277778 20.900391 12 20.900391 C 11.722222 20.900391 11.45788 20.802401 11.289062 20.652344 C 11.120243 20.502283 11 20.317057 11 19.900391 L 11 17 C 11 15.907275 10.092725 15 9 15 L 7 15 C 6.4358706 15 6 14.564129 6 14 L 6 13 z "/>
</svg>
