<?xml version="1.0" encoding="UTF-8" standalone="no"?>
<svg xmlns="http://www.w3.org/2000/svg" xmlns:svg="http://www.w3.org/2000/svg" width="24" height="24" viewBox="0 0 24 24" fill="currentColor" tags="brush,paintbrush,design,color,colour,decoration,diy" categories="text,design,photography,home,tools">
  <path d="M 19.724609 0.96679688 C 19.006825 1.0050485 18.26044 1.3215913 17.667969 1.9140625 L 14.003906 5.5800781 L 13.414062 4.9902344 A 1.0001 1.0001 0 0 0 13.412109 4.9902344 C 12.088835 3.6671577 9.9150713 3.6671577 8.5917969 4.9902344 L 7.6464844 5.9335938 C 7.0692777 6.5109747 7.0692777 7.4773065 7.6464844 8.0546875 L 7.6933594 8.1015625 C 6.1799335 10.025701 4.5244979 10.537632 2.2382812 10.964844 C 1.1556548 11.162494 0.64470607 12.545249 1.3398438 13.398438 A 1.0001 1.0001 0 0 0 1.34375 13.402344 L 3.1367188 15.578125 A 1 1 0 0 0 3.2089844 15.666016 L 8.6640625 22.285156 A 1.0001 1.0001 0 0 0 8.7070312 22.335938 C 9.3148291 22.981479 10.287498 23.149275 11.076172 22.744141 A 1.0001 1.0001 0 0 0 11.185547 22.679688 C 12.36481 21.871767 13.736548 20.571749 14.875 19.193359 C 15.055644 18.974643 15.213152 18.759356 15.382812 18.542969 A 1 1 0 0 0 15.429688 18.482422 C 15.882642 17.900358 16.300315 17.320753 16.580078 16.726562 C 17.090969 16.873602 17.670471 16.749331 18.066406 16.353516 L 19.011719 15.408203 C 20.334795 14.084929 20.334795 11.911165 19.011719 10.587891 A 1.0001 1.0001 0 0 0 19.011719 10.585938 L 18.419922 9.9960938 L 22.085938 6.3320312 L 22.085938 6.3300781 C 22.762208 5.6531329 23.080645 4.7772072 23.033203 3.9707031 C 22.985733 3.1637131 22.618323 2.4464473 22.085938 1.9140625 C 21.553553 1.3816777 20.836287 1.0142671 20.029297 0.96679688 C 19.928423 0.9608631 19.82715 0.96133236 19.724609 0.96679688 z M 19.816406 2.9609375 C 19.84835 2.9601428 19.880082 2.9610067 19.912109 2.9628906 C 20.168327 2.9779626 20.451807 3.1119629 20.669922 3.3300781 C 20.888037 3.5481934 21.022038 3.8316726 21.037109 4.0878906 C 21.052179 4.3441087 20.993479 4.5924593 20.669922 4.9160156 L 16.652344 8.9355469 C 16.075137 9.5129279 16.075137 10.47926 16.652344 11.056641 L 17.597656 12.001953 C 18.156567 12.560947 18.156567 13.435146 17.597656 13.994141 L 17.005859 14.585938 L 9.4140625 6.9941406 L 10.005859 6.4042969 C 10.564854 5.8453861 11.439053 5.8453861 11.998047 6.4042969 L 12.943359 7.3476562 C 13.52074 7.9248629 14.487072 7.9248629 15.064453 7.3476562 L 19.083984 3.3300781 C 19.367097 3.0469664 19.592801 2.9665004 19.816406 2.9609375 z M 9.1074219 9.515625 L 14.914062 15.322266 C 14.790168 15.652862 14.53672 16.16833 14.179688 16.738281 L 4.5117188 14.103516 L 3.3457031 12.6875 C 5.442154 12.216622 7.4527344 11.454635 9.1074219 9.515625 z M 6.7148438 16.777344 L 12.869141 18.455078 C 11.967338 19.459413 10.936954 20.384718 10.146484 20.941406 L 6.7148438 16.777344 z "/>
</svg>
