<?xml version="1.0" encoding="UTF-8" standalone="no"?>
<svg xmlns="http://www.w3.org/2000/svg" xmlns:svg="http://www.w3.org/2000/svg" width="24" height="24" viewBox="0 0 24 24" fill="currentColor" tags="brush,paintbrush,design,color,colour,decoration,diy" categories="text,design,photography,home,tools">
  <path d="M 19.71875 0.97460938 C 19.001077 1.0133042 18.254288 1.3316498 17.662109 1.9238281 L 14 5.5859375 L 13.117188 4.703125 A 1.0001 1.0001 0 0 0 13.115234 4.7011719 C 11.953371 3.5461999 10.04663 3.5461999 8.8847656 4.7011719 A 1.0001 1.0001 0 0 0 8.8828125 4.703125 L 7.2929688 6.2929688 A 1.0001 1.0001 0 0 0 7.2929688 7.7070312 L 7.6933594 8.1074219 C 6.0388621 10.276875 4.5440938 10.562313 1.8359375 11.013672 A 1.0001 1.0001 0 0 0 1.21875 12.625 L 9.21875 22.625 A 1.0001 1.0001 0 0 0 10.447266 22.894531 C 11.685776 22.275276 13.175304 20.9933 14.490234 19.546875 C 15.147701 18.823663 15.744882 18.065856 16.199219 17.314453 C 16.297666 17.151637 16.388721 16.99018 16.474609 16.828125 A 1.0001 1.0001 0 0 0 17.707031 16.707031 L 19.296875 15.117188 A 1.0001 1.0001 0 0 0 19.298828 15.115234 C 20.4538 13.953371 20.4538 12.046629 19.298828 10.884766 A 1.0001 1.0001 0 0 0 19.296875 10.882812 L 18.414062 10 L 22.076172 6.3378906 C 22.752947 5.6611154 23.07284 4.7831968 23.025391 3.9765625 C 22.977941 3.1699282 22.608305 2.4559619 22.076172 1.9238281 C 21.544038 1.3916945 20.830073 1.0220586 20.023438 0.97460938 C 19.922608 0.96867822 19.821275 0.96908155 19.71875 0.97460938 z M 19.904297 2.9726562 C 20.16016 2.9877072 20.444245 3.1200258 20.662109 3.3378906 C 20.879974 3.5557554 21.012293 3.8398398 21.027344 4.0957031 C 21.042394 4.3515665 20.985334 4.6006057 20.662109 4.9238281 L 16.292969 9.2929688 A 1.0001 1.0001 0 0 0 16.292969 10.707031 L 17.882812 12.296875 C 18.276749 12.695209 18.276164 13.307462 17.880859 13.705078 L 17 14.585938 L 9.4140625 7 L 10.294922 6.1191406 L 10.296875 6.1171875 C 10.694542 5.7239114 11.305458 5.7239114 11.703125 6.1171875 L 13.292969 7.7070312 A 1.0001 1.0001 0 0 0 14.707031 7.7070312 L 19.076172 3.3378906 C 19.399395 3.0146682 19.648433 2.9576054 19.904297 2.9726562 z M 9.1054688 9.5195312 L 14.923828 15.337891 C 14.847059 15.582793 14.71096 15.91102 14.488281 16.279297 C 14.457105 16.330858 14.418444 16.386644 14.384766 16.439453 L 4.9433594 14.080078 L 3.7128906 12.541016 C 5.7121935 12.07513 7.5238901 11.387419 9.1054688 9.5195312 z M 7.0058594 16.658203 L 13.041016 18.166016 C 13.030063 18.178132 13.020763 18.191028 13.009766 18.203125 C 12.03217 19.278481 10.975607 20.060522 10.158203 20.597656 L 7.0058594 16.658203 z "/>
</svg>
