<?xml version="1.0" encoding="UTF-8" standalone="no"?>
<svg xmlns="http://www.w3.org/2000/svg" xmlns:svg="http://www.w3.org/2000/svg" width="24" height="24" viewBox="0 0 24 24" fill="currentColor" tags="brush,paintbrush,design,color,colour,decoration,diy" categories="text,design,photography,home,tools">
  <path d="M 19.724609 0.96679688 C 19.006826 1.0050486 18.260439 1.3215925 17.667969 1.9140625 L 14.003906 5.5800781 L 13.414062 4.9902344 A 1.0001 1.0001 0 0 0 13.412109 4.9902344 C 12.088838 3.6671603 9.9150687 3.6671603 8.5917969 4.9902344 L 7.6464844 5.9335938 C 7.0692789 6.5109737 7.0692789 7.4773077 7.6464844 8.0546875 L 7.6914062 8.0996094 C 6.1785413 10.021585 4.5234531 10.537828 2.2382812 10.964844 C 1.155657 11.162494 0.64470747 12.545251 1.3398438 13.398438 A 1.0001 1.0001 0 0 0 1.34375 13.402344 L 3.1582031 15.603516 A 1 1 0 0 0 3.1699219 15.619141 L 8.6640625 22.285156 A 1.0001 1.0001 0 0 0 8.7070312 22.335938 C 9.3148278 22.981477 10.2875 23.149274 11.076172 22.744141 A 1.0001 1.0001 0 0 0 11.185547 22.679688 C 12.364808 21.871769 13.73655 20.571747 14.875 19.193359 C 15.558807 18.365435 16.184791 17.560375 16.578125 16.724609 C 17.089534 16.872606 17.669924 16.749878 18.066406 16.353516 L 19.011719 15.408203 C 20.334792 14.084931 20.334792 11.911162 19.011719 10.587891 A 1.0001 1.0001 0 0 0 19.011719 10.585938 L 18.419922 9.9960938 L 22.085938 6.3320312 L 22.085938 6.3300781 C 22.762207 5.6531343 23.080645 4.7772056 23.033203 3.9707031 C 22.985733 3.1637147 22.618322 2.4464462 22.085938 1.9140625 C 21.553554 1.3816788 20.836285 1.0142669 20.029297 0.96679688 C 19.928423 0.96086311 19.82715 0.96133234 19.724609 0.96679688 z M 19.912109 2.9628906 C 20.168327 2.9779626 20.451807 3.1119633 20.669922 3.3300781 C 20.888037 3.5481929 21.022038 3.8316731 21.037109 4.0878906 C 21.052179 4.3441082 20.993479 4.5924599 20.669922 4.9160156 L 16.652344 8.9355469 C 16.075138 9.5129267 16.075138 10.47926 16.652344 11.056641 L 17.597656 12.001953 C 18.156567 12.560947 18.156567 13.435147 17.597656 13.994141 L 17.005859 14.585938 L 9.4140625 6.9941406 L 10.005859 6.4042969 C 10.564853 5.8453871 11.439053 5.8453871 11.998047 6.4042969 L 12.943359 7.3476562 C 13.52074 7.9248618 14.487074 7.9248618 15.064453 7.3476562 L 19.083984 3.3300781 C 19.40754 3.0065224 19.655893 2.9478189 19.912109 2.9628906 z M 9.1074219 9.515625 L 14.912109 15.320312 C 14.790237 15.64953 14.535767 16.163062 14.175781 16.738281 L 4.5117188 14.103516 L 3.3457031 12.6875 C 5.441957 12.216666 7.452823 11.454237 9.1074219 9.515625 z M 6.7148438 16.777344 L 12.867188 18.455078 C 11.965433 19.459325 10.936893 20.384761 10.146484 20.941406 L 6.7148438 16.777344 z "/>
</svg>
