<?xml version="1.0" encoding="UTF-8" standalone="no"?>
<svg xmlns="http://www.w3.org/2000/svg" xmlns:svg="http://www.w3.org/2000/svg" width="24" height="24" viewBox="0 0 24 24" fill="currentColor" tags="fill,paint,bucket,color,colour" categories="design,tools">
  <path d="M 5 1 A 1 1 0 0 0 4.2929688 1.2929688 A 1 1 0 0 0 4.2929688 2.7070312 L 7.0859375 5.5 L 1.6933594 10.892578 A 1.0001 1.0001 0 0 0 1.6855469 10.900391 C 0.5499067 12.058974 0.5499067 13.941026 1.6855469 15.099609 A 1.0001 1.0001 0 0 0 1.6933594 15.107422 L 6.8925781 20.306641 C 8.0461293 21.460191 9.9538706 21.460191 11.107422 20.306641 L 19.707031 11.707031 A 1.0001 1.0001 0 0 0 19.707031 10.292969 L 11.707031 2.2929688 A 1.0001 1.0001 0 0 0 10.292969 2.2929688 L 8.5 4.0859375 L 5.7070312 1.2929688 A 1 1 0 0 0 5 1 z M 11 4.4140625 L 17.585938 11 L 16.585938 12 L 3.4140625 12 L 8.5 6.9140625 L 9.2929688 7.7070312 A 1 1 0 0 0 10.707031 7.7070312 A 1 1 0 0 0 10.707031 6.2929688 L 9.9140625 5.5 L 11 4.4140625 z M 3.4140625 14 L 14.585938 14 L 9.6933594 18.892578 C 9.2469136 19.339024 8.7530864 19.339024 8.3066406 18.892578 L 3.4140625 14 z M 20 15 A 1.0001 1.0001 0 0 0 19.017578 15.816406 C 18.925068 16.309799 18.574159 16.767972 18.095703 17.388672 C 17.617248 18.009371 17 18.845835 17 20 C 17 20.916665 17.379757 21.731441 17.960938 22.248047 C 18.542119 22.764651 19.27778 23 20 23 C 20.72222 23 21.457882 22.764651 22.039062 22.248047 C 22.620244 21.731441 23 20.916665 23 20 C 23 18.845835 22.382752 18.009371 21.904297 17.388672 C 21.425841 16.767972 21.074933 16.309799 20.982422 15.816406 A 1.0001 1.0001 0 0 0 20 15 z M 20 18.171875 C 20.109066 18.314359 20.223704 18.485996 20.320312 18.611328 C 20.766855 19.190627 21 19.554167 21 20 C 21 20.416666 20.879755 20.601893 20.710938 20.751953 C 20.542121 20.902013 20.277778 21 20 21 C 19.722222 21 19.45788 20.902013 19.289062 20.751953 C 19.120246 20.601893 19 20.416666 19 20 C 19 19.554167 19.233146 19.190627 19.679688 18.611328 C 19.776297 18.485996 19.890934 18.314359 20 18.171875 z "/>
</svg>
