<?xml version="1.0" encoding="UTF-8" standalone="no"?>
<svg xmlns="http://www.w3.org/2000/svg" xmlns:svg="http://www.w3.org/2000/svg" width="24" height="24" viewBox="0 0 24 24" fill="currentColor" tags="colors,colours,theme,scheme,paint,watercolor,watercolour,artist" categories="text,design,photography">
  <g>
    <path style="color:#000000;fill:currentColor;-inkscape-stroke:none" d="M 14,6.5 A 0.5,0.5 0 0 1 13.5,7 0.5,0.5 0 0 1 13,6.5 0.5,0.5 0 0 1 13.5,6 0.5,0.5 0 0 1 14,6.5 Z" id="path5"/>
    <path style="color:#000000;fill:#000000;-inkscape-stroke:none" d="M 13.5,5 C 12.683418,5 12,5.6834183 12,6.5 12,7.3165817 12.683418,8 13.5,8 14.316582,8 15,7.3165817 15,6.5 15,5.6834183 14.316582,5 13.5,5 Z m 0,1 C 13.764297,6 14,6.2357025 14,6.5 14,6.7642975 13.764297,7 13.5,7 13.235703,7 13,6.7642975 13,6.5 13,6.2357025 13.235703,6 13.5,6 Z" id="path6"/>
  </g>
  <g id="circle2" stroke-width="0">
    <path style="color:#000000;fill:currentColor;-inkscape-stroke:none" d="M 18,10.5 A 0.5,0.5 0 0 1 17.5,11 0.5,0.5 0 0 1 17,10.5 0.5,0.5 0 0 1 17.5,10 0.5,0.5 0 0 1 18,10.5 Z" id="path7"/>
    <path style="color:#000000;fill:#000000;-inkscape-stroke:none" d="M 17.5,9 C 16.683418,9 16,9.6834183 16,10.5 16,11.316582 16.683418,12 17.5,12 18.316582,12 19,11.316582 19,10.5 19,9.6834183 18.316582,9 17.5,9 Z m 0,1 C 17.764297,10 18,10.235703 18,10.5 18,10.764297 17.764297,11 17.5,11 17.235703,11 17,10.764297 17,10.5 17,10.235703 17.235703,10 17.5,10 Z" id="path8"/>
  </g>
  <g id="circle3" stroke-width="0">
    <path style="color:#000000;fill:currentColor;-inkscape-stroke:none" d="M 9,7.5 A 0.5,0.5 0 0 1 8.5,8 0.5,0.5 0 0 1 8,7.5 0.5,0.5 0 0 1 8.5,7 0.5,0.5 0 0 1 9,7.5 Z" id="path9"/>
    <path style="color:#000000;fill:#000000;-inkscape-stroke:none" d="M 8.5,6 C 7.6834183,6 7,6.6834183 7,7.5 7,8.3165817 7.6834183,9 8.5,9 9.3165817,9 10,8.3165817 10,7.5 10,6.6834183 9.3165817,6 8.5,6 Z m 0,1 C 8.7642975,7 9,7.2357025 9,7.5 9,7.7642975 8.7642975,8 8.5,8 8.2357025,8 8,7.7642975 8,7.5 8,7.2357025 8.2357025,7 8.5,7 Z" id="path10"/>
  </g>
  <g id="circle4" stroke-width="0">
    <path style="color:#000000;fill:currentColor;-inkscape-stroke:none" d="M 7,12.5 A 0.5,0.5 0 0 1 6.5,13 0.5,0.5 0 0 1 6,12.5 0.5,0.5 0 0 1 6.5,12 0.5,0.5 0 0 1 7,12.5 Z" id="path11"/>
    <path style="color:#000000;fill:#000000;-inkscape-stroke:none" d="M 6.5,11 C 5.6834183,11 5,11.683418 5,12.5 5,13.316582 5.6834183,14 6.5,14 7.3165817,14 8,13.316582 8,12.5 8,11.683418 7.3165817,11 6.5,11 Z m 0,1 C 6.7642975,12 7,12.235703 7,12.5 7,12.764297 6.7642975,13 6.5,13 6.2357025,13 6,12.764297 6,12.5 6,12.235703 6.2357025,12 6.5,12 Z" id="path12"/>
  </g>
  <path style="color:#000000;fill:#000000;-inkscape-stroke:none" d="M 12,1 C 5.9545515,1 1,5.9545515 1,12 c 0,6.045448 4.9545515,11 11,11 1.463076,0 2.648438,-1.234532 2.648438,-2.6875 0,-0.711599 -0.28496,-1.33263 -0.689454,-1.789063 a 1.0001,1.0001 0 0 0 -0.04297,-0.04492 C 13.802084,18.364977 13.773437,18.326902 13.773438,18.0625 a 1.0001,1.0001 0 0 0 0,-0.01758 c -0.0065,-0.375219 0.275171,-0.656854 0.65039,-0.650391 a 1.0001,1.0001 0 0 0 0.01758,0 H 16.4375 c 3.597921,0 6.554687,-2.956548 6.554687,-6.554687 a 1.0001,1.0001 0 0 0 0,-0.0059 C 22.961727,5.3871893 17.95077,1 12,1 Z m 0,2 c 4.970454,0 8.967429,3.6353787 8.992187,7.84375 -0.0022,2.502044 -2.051943,4.550781 -4.554687,4.550781 h -1.978516 c -1.477149,-0.02544 -2.701791,1.201644 -2.68164,2.677735 0.0028,0.678017 0.264932,1.360281 0.728515,1.822265 l -0.04297,-0.04492 C 12.572396,19.973176 12.648437,20.1501 12.648438,20.3125 12.648438,20.74353 12.388923,21 12,21 7.0454595,21 3,16.95454 3,12 3,7.0454595 7.0454595,3 12,3 Z" id="path4" stroke-width="0"/>
</svg>
