<?xml version="1.0" encoding="UTF-8" standalone="no"?>
<svg xmlns="http://www.w3.org/2000/svg" xmlns:svg="http://www.w3.org/2000/svg" width="24" height="24" viewBox="0 0 24 24" fill="currentColor" tags="colors,colours,theme,scheme,paint,watercolor,watercolour,artist" categories="text,design,photography">
  <g>
    <path style="baseline-shift:baseline;display:inline;overflow:visible;vector-effect:none;fill:currentColor;stroke:none;stroke-linecap:butt;stroke-linejoin:miter;enable-background:accumulate;stop-color:#000000;stop-opacity:1" d="M 14,6.5 A 0.5,0.5 0 0 1 13.5,7 0.5,0.5 0 0 1 13,6.5 0.5,0.5 0 0 1 13.5,6 0.5,0.5 0 0 1 14,6.5 Z" id="path5"/>
    <path style="baseline-shift:baseline;display:inline;overflow:visible;vector-effect:none;fill:#000000;stroke:none;stroke-linecap:butt;stroke-linejoin:miter;enable-background:accumulate;stop-color:#000000;stop-opacity:1" d="M 13.5,5 C 12.683418,5 12,5.6834175 12,6.5 12,7.3165825 12.683418,8 13.5,8 14.316582,8 15,7.3165825 15,6.5 15,5.6834175 14.316582,5 13.5,5 Z m 0,1 C 13.764298,6 14,6.2357023 14,6.5 14,6.7642977 13.764298,7 13.5,7 13.235702,7 13,6.7642977 13,6.5 13,6.2357023 13.235702,6 13.5,6 Z" id="path6"/>
  </g>
  <g id="circle2" style="opacity:1" stroke-width="0">
    <path style="baseline-shift:baseline;display:inline;overflow:visible;vector-effect:none;fill:currentColor;stroke:none;stroke-linecap:butt;stroke-linejoin:miter;enable-background:accumulate;stop-color:#000000;stop-opacity:1" d="M 18,10.5 A 0.5,0.5 0 0 1 17.5,11 0.5,0.5 0 0 1 17,10.5 0.5,0.5 0 0 1 17.5,10 0.5,0.5 0 0 1 18,10.5 Z" id="path7"/>
    <path style="baseline-shift:baseline;display:inline;overflow:visible;vector-effect:none;fill:#000000;stroke:none;stroke-linecap:butt;stroke-linejoin:miter;enable-background:accumulate;stop-color:#000000;stop-opacity:1" d="M 17.5,9 C 16.683418,9 16,9.6834175 16,10.5 16,11.316582 16.683418,12 17.5,12 18.316582,12 19,11.316582 19,10.5 19,9.6834175 18.316582,9 17.5,9 Z m 0,1 C 17.764298,10 18,10.235702 18,10.5 18,10.764298 17.764298,11 17.5,11 17.235702,11 17,10.764298 17,10.5 17,10.235702 17.235702,10 17.5,10 Z" id="path8"/>
  </g>
  <g id="circle3" style="opacity:1" stroke-width="0">
    <path style="baseline-shift:baseline;display:inline;overflow:visible;vector-effect:none;fill:currentColor;stroke:none;stroke-linecap:butt;stroke-linejoin:miter;enable-background:accumulate;stop-color:#000000;stop-opacity:1" d="M 9,7.5 A 0.5,0.5 0 0 1 8.5,8 0.5,0.5 0 0 1 8,7.5 0.5,0.5 0 0 1 8.5,7 0.5,0.5 0 0 1 9,7.5 Z" id="path9"/>
    <path style="baseline-shift:baseline;display:inline;overflow:visible;vector-effect:none;fill:#000000;stroke:none;stroke-linecap:butt;stroke-linejoin:miter;enable-background:accumulate;stop-color:#000000;stop-opacity:1" d="M 8.5,6 C 7.6834175,6 7,6.6834175 7,7.5 7,8.3165825 7.6834175,9 8.5,9 9.3165825,9 10,8.3165825 10,7.5 10,6.6834175 9.3165825,6 8.5,6 Z m 0,1 C 8.7642977,7 9,7.2357023 9,7.5 9,7.7642977 8.7642977,8 8.5,8 8.2357023,8 8,7.7642977 8,7.5 8,7.2357023 8.2357023,7 8.5,7 Z" id="path10"/>
  </g>
  <g id="circle4" style="opacity:1" stroke-width="0">
    <path style="baseline-shift:baseline;display:inline;overflow:visible;vector-effect:none;fill:currentColor;stroke:none;stroke-linecap:butt;stroke-linejoin:miter;enable-background:accumulate;stop-color:#000000;stop-opacity:1" d="M 7,12.5 A 0.5,0.5 0 0 1 6.5,13 0.5,0.5 0 0 1 6,12.5 0.5,0.5 0 0 1 6.5,12 0.5,0.5 0 0 1 7,12.5 Z" id="path11"/>
    <path style="baseline-shift:baseline;display:inline;overflow:visible;vector-effect:none;fill:#000000;stroke:none;stroke-linecap:butt;stroke-linejoin:miter;enable-background:accumulate;stop-color:#000000;stop-opacity:1" d="M 6.5,11 C 5.6834175,11 5,11.683418 5,12.5 5,13.316582 5.6834175,14 6.5,14 7.3165825,14 8,13.316582 8,12.5 8,11.683418 7.3165825,11 6.5,11 Z m 0,1 C 6.7642977,12 7,12.235702 7,12.5 7,12.764298 6.7642977,13 6.5,13 6.2357023,13 6,12.764298 6,12.5 6,12.235702 6.2357023,12 6.5,12 Z" id="path12"/>
  </g>
  <path style="baseline-shift:baseline;display:inline;overflow:visible;vector-effect:none;fill:#000000;stroke:none;stroke-linecap:butt;stroke-linejoin:miter;enable-background:accumulate;stop-color:#000000;stop-opacity:1;opacity:1" d="M 12,1 C 5.9545455,1 1,5.9545455 1,12 c 0,6.045455 4.9545455,11 11,11 1.463077,0 2.648438,-1.23453 2.648438,-2.6875 0,-0.7116 -0.28496,-1.33263 -0.689454,-1.789063 a 1.0001,1.0001 0 0 0 -0.04297,-0.04492 C 13.802084,18.364976 13.773437,18.326902 13.773438,18.0625 a 1.0001,1.0001 0 0 0 0,-0.01758 c -0.0065,-0.37522 0.27517,-0.656854 0.65039,-0.650391 a 1.0001,1.0001 0 0 0 0.01758,0 H 16.4375 c 3.597925,0 6.554687,-2.956544 6.554687,-6.554687 a 1.0001,1.0001 0 0 0 0,-0.0059 C 22.961727,5.3871839 17.950776,1 12,1 Z m 0,2 c 4.970459,0 8.967429,3.6353745 8.992187,7.84375 -0.0022,2.502047 -2.05194,4.550781 -4.554687,4.550781 h -1.978516 c -1.47715,-0.02544 -2.701791,1.201643 -2.68164,2.677735 0.0028,0.678017 0.264932,1.36028 0.728515,1.822265 l -0.04297,-0.04492 C 12.572397,19.973176 12.648437,20.1501 12.648438,20.3125 12.648438,20.74353 12.388923,21 12,21 7.0454545,21 3,16.954545 3,12 3,7.0454545 7.0454545,3 12,3 Z" id="path4" stroke-width="0"/>
</svg>
