<svg xmlns="http://www.w3.org/2000/svg" xmlns:svg="http://www.w3.org/2000/svg" width="24" height="24" viewBox="0 0 24 24" fill="currentColor" tags="colors,colours,theme,scheme,paint,watercolor,watercolour,artist" categories="text,design,photography">
  <path d="M 12,1 C 5.936709,1 1,5.9367135 1,12 1,18.063287 5.936709,23 12,23 h 0.25 c 2.203173,0 3.521123,-2.637852 2.199219,-4.400391 l -0.298828,-0.40039 C 13.741799,17.65443 14.069015,17 14.75,17 H 17 c 3.301864,0 6,-2.698136 6,-6 C 23,5.4289482 18.009244,1 12,1 Z m 0,2 c 5.036451,0 9,3.6299263 9,8 0,2.220984 -1.779016,4 -4,4 h -2.25 c -2.203173,0 -3.521123,2.637852 -2.199219,4.400391 l 0.298828,0.40039 C 13.258201,20.34557 12.930985,21 12.25,21 H 12 C 7.0175885,21 3,16.982408 3,12 3,7.0175918 7.0175885,3 12,3 Z"/>
  <g id="circle1" style="opacity:1" stroke-width="0">
    <path d="M 14,6.5 A 0.5,0.5 0 0 1 13.5,7 0.5,0.5 0 0 1 13,6.5 0.5,0.5 0 0 1 13.5,6 0.5,0.5 0 0 1 14,6.5 Z"/>
    <path d="M 13.5,5 C 12.683418,5 12,5.6834175 12,6.5 12,7.3165825 12.683418,8 13.5,8 14.316582,8 15,7.3165825 15,6.5 15,5.6834175 14.316582,5 13.5,5 Z m 0,1 C 13.764298,6 14,6.2357023 14,6.5 14,6.7642977 13.764298,7 13.5,7 13.235702,7 13,6.7642977 13,6.5 13,6.2357023 13.235702,6 13.5,6 Z"/>
  </g>
  <g id="circle2" style="opacity:1" stroke-width="0">
    <path d="M 18,10.5 A 0.5,0.5 0 0 1 17.5,11 0.5,0.5 0 0 1 17,10.5 0.5,0.5 0 0 1 17.5,10 0.5,0.5 0 0 1 18,10.5 Z"/>
    <path d="M 17.5,9 C 16.683418,9 16,9.6834175 16,10.5 16,11.316582 16.683418,12 17.5,12 18.316582,12 19,11.316582 19,10.5 19,9.6834175 18.316582,9 17.5,9 Z m 0,1 C 17.764298,10 18,10.235702 18,10.5 18,10.764298 17.764298,11 17.5,11 17.235702,11 17,10.764298 17,10.5 17,10.235702 17.235702,10 17.5,10 Z"/>
  </g>
  <g id="circle3" style="opacity:1" stroke-width="0">
    <path d="M 7,12.5 A 0.5,0.5 0 0 1 6.5,13 0.5,0.5 0 0 1 6,12.5 0.5,0.5 0 0 1 6.5,12 0.5,0.5 0 0 1 7,12.5 Z"/>
    <path d="M 6.5,11 C 5.6834175,11 5,11.683418 5,12.5 5,13.316582 5.6834175,14 6.5,14 7.3165825,14 8,13.316582 8,12.5 8,11.683418 7.3165825,11 6.5,11 Z m 0,1 C 6.7642977,12 7,12.235702 7,12.5 7,12.764298 6.7642977,13 6.5,13 6.2357023,13 6,12.764298 6,12.5 6,12.235702 6.2357023,12 6.5,12 Z"/>
  </g>
  <g id="circle4" style="opacity:1" stroke-width="0">
    <path d="M 9,7.5 A 0.5,0.5 0 0 1 8.5,8 0.5,0.5 0 0 1 8,7.5 0.5,0.5 0 0 1 8.5,7 0.5,0.5 0 0 1 9,7.5 Z"/>
    <path d="M 8.5,6 C 7.6834175,6 7,6.6834175 7,7.5 7,8.3165825 7.6834175,9 8.5,9 9.3165825,9 10,8.3165825 10,7.5 10,6.6834175 9.3165825,6 8.5,6 Z m 0,1 C 8.7642977,7 9,7.2357023 9,7.5 9,7.7642977 8.7642977,8 8.5,8 8.2357023,8 8,7.7642977 8,7.5 8,7.2357023 8.2357023,7 8.5,7 Z"/>
  </g>
</svg>
