<svg xmlns="http://www.w3.org/2000/svg" xmlns:svg="http://www.w3.org/2000/svg" width="24" height="24" viewBox="0 0 24 24" fill="currentColor" tags="animal,wildlife,bear,zoo,bamboo" categories="animals">
  <path d="M 6.3613281 1 C 5.2220097 1.0236587 4.0780861 1.3979186 3.1074219 2.15625 C 0.72314751 4.0189643 0.43601348 7.4052411 2.203125 9.7519531 C 1.4801025 11.259023 1 12.873658 1 14.5 C 1 17.285469 2.3264228 19.52601 4.3613281 20.935547 C 6.3962334 22.345084 9.0872222 23 12 23 C 14.912778 23 17.603767 22.345084 19.638672 20.935547 C 21.673577 19.52601 23 17.285469 23 14.5 C 23 12.874472 22.527239 11.255711 21.802734 9.7441406 C 23.563009 7.3976294 23.27417 4.0168688 20.892578 2.15625 C 18.480387 0.27172593 15.065762 0.8370076 13.232422 3.1894531 C 12.412201 3.0800851 11.587799 3.0800851 10.767578 3.1894531 C 9.9178846 2.0991712 8.7786917 1.3297666 7.4921875 1.0917969 C 7.1198575 1.0229255 6.7411009 0.99211375 6.3613281 1 z M 6.4160156 2.9824219 C 6.6568666 2.976537 6.8970124 2.9954457 7.1328125 3.0390625 C 8.0760131 3.2135298 8.9480073 3.778122 9.4941406 4.6855469 A 1.0001 1.0001 0 0 0 10.546875 5.1503906 C 11.50551 4.9571494 12.49449 4.9571494 13.453125 5.1503906 A 1.0001 1.0001 0 0 0 14.505859 4.6855469 C 15.598126 2.8706972 17.990974 2.4283735 19.660156 3.7324219 C 21.329338 5.0364703 21.479053 7.4639509 19.982422 8.9628906 A 1 1 0 0 0 19.982422 9.5976562 A 1 1 0 0 0 19.818359 10.142578 C 20.571138 11.547154 21 13.077531 21 14.5 C 21 16.684531 20.085095 18.193053 18.5 19.291016 C 16.914905 20.388978 14.607222 21 12 21 C 9.3927778 21 7.0850947 20.388978 5.5 19.291016 C 3.9149053 18.193053 3 16.684531 3 14.5 C 3 13.081646 3.4370283 11.550137 4.1914062 10.142578 A 1.0001 1.0001 0 0 0 4.0175781 8.9628906 C 2.5209468 7.4639509 2.6706619 5.0364703 4.3398438 3.7324219 C 4.965787 3.2434037 5.6934628 3.0000766 6.4160156 2.9824219 z M 6.5097656 5 C 5.6848767 4.9916248 4.9916248 5.6848767 5 6.5097656 A 1 1 0 0 0 6.0097656 7.5 A 1 1 0 0 0 6.7480469 6.7480469 A 1 1 0 0 0 7.5 6.0097656 A 1 1 0 0 0 6.5097656 5 z M 17.5 5 A 1 1 0 0 0 16.5 6 A 1 1 0 0 0 17 6.5 C 17 6.7642977 17.235702 7 17.5 7 A 1 1 0 0 0 18 7.5 A 1 1 0 0 0 19 6.5 C 19 5.6834175 18.316582 5 17.5 5 z M 9 11 A 1 1 0 0 0 8.2929688 11.292969 L 6.2929688 13.292969 A 1 1 0 0 0 6.2929688 14.707031 A 1 1 0 0 0 7.7070312 14.707031 L 9.7070312 12.707031 A 1 1 0 0 0 9.7070312 11.292969 A 1 1 0 0 0 9 11 z M 15 11 A 1 1 0 0 0 14.292969 11.292969 A 1 1 0 0 0 14.292969 12.707031 L 16.292969 14.707031 A 1 1 0 0 0 17.707031 14.707031 A 1 1 0 0 0 17.707031 13.292969 L 15.707031 11.292969 A 1 1 0 0 0 15 11 z M 11.25 16.25 A 1.0001 1.0001 0 0 0 10.542969 17.957031 L 11.292969 18.707031 A 1.0001 1.0001 0 0 0 12.707031 18.707031 L 13.457031 17.957031 A 1.0001 1.0001 0 0 0 12.75 16.25 L 11.25 16.25 z "/>
</svg>
