<?xml version="1.0" encoding="UTF-8" standalone="no"?>
<svg xmlns="http://www.w3.org/2000/svg" xmlns:svg="http://www.w3.org/2000/svg" width="24" height="24" viewBox="0 0 24 24" fill="currentColor" tags="drawer,dock,show,reveal" categories="layout">
  <path d="M 5 2 C 3.3553005 2 2 3.3553005 2 5 L 2 19 C 2 20.644699 3.3553005 22 5 22 L 19 22 C 20.644699 22 22 20.644699 22 19 L 22 5 C 22 3.3553005 20.644699 2 19 2 L 5 2 z M 5 4 L 19 4 C 19.571296 4 20 4.4287039 20 5 L 20 14 L 19 14 A 1 1 0 0 0 18 15 A 1 1 0 0 0 19 16 L 20 16 L 20 19 C 20 19.571296 19.571296 20 19 20 L 5 20 C 4.4287039 20 4 19.571296 4 19 L 4 16 L 5 16 A 1 1 0 0 0 6 15 A 1 1 0 0 0 5 14 L 4 14 L 4 5 C 4 4.4287039 4.4287039 4 5 4 z M 9 14 A 1 1 0 0 0 8 15 A 1 1 0 0 0 9 16 L 10 16 A 1 1 0 0 0 11 15 A 1 1 0 0 0 10 14 L 9 14 z M 14 14 A 1 1 0 0 0 13 15 A 1 1 0 0 0 14 16 L 15 16 A 1 1 0 0 0 16 15 A 1 1 0 0 0 15 14 L 14 14 z "/>
</svg>
