<?xml version="1.0" encoding="UTF-8" standalone="no"?>
<svg xmlns="http://www.w3.org/2000/svg" xmlns:svg="http://www.w3.org/2000/svg" width="24" height="24" viewBox="0 0 24 24" fill="currentColor" tags="sidebar,secondary,drawer,hide,chevron,&gt;" categories="layout,arrows">
  <path d="M 5 2 C 3.3552972 2 2 3.3552972 2 5 L 2 19 C 2 20.644703 3.3552972 22 5 22 L 19 22 C 20.644703 22 22 20.644703 22 19 L 22 5 C 22 3.3552972 20.644703 2 19 2 L 5 2 z M 5 4 L 14 4 L 14 20 L 5 20 C 4.4287028 20 4 19.571297 4 19 L 4 5 C 4 4.4287028 4.4287028 4 5 4 z M 16 4 L 19 4 C 19.571297 4 20 4.4287028 20 5 L 20 19 C 20 19.571297 19.571297 20 19 20 L 16 20 L 16 4 z M 8 8 A 1 1 0 0 0 7.2929688 8.2929688 A 1 1 0 0 0 7.2929688 9.7070312 L 9.5859375 12 L 7.2929688 14.292969 A 1 1 0 0 0 7.2929688 15.707031 A 1 1 0 0 0 8.7070312 15.707031 L 11.707031 12.707031 A 1.0001 1.0001 0 0 0 11.707031 11.292969 L 8.7070312 8.2929688 A 1 1 0 0 0 8 8 z "/>
</svg>
