<?xml version="1.0" encoding="UTF-8" standalone="no"?>
<svg xmlns="http://www.w3.org/2000/svg" xmlns:svg="http://www.w3.org/2000/svg" width="24" height="24" viewBox="0 0 24 24" fill="currentColor" tags="menu bar,drawer,show,reveal,padding,margin,guide,layout,bleed" categories="layout">
  <path d="M 5 2 C 3.3552972 2 2 3.3552972 2 5 L 2 19 C 2 20.644703 3.3552972 22 5 22 L 19 22 C 20.644703 22 22 20.644703 22 19 L 22 5 C 22 3.3552972 20.644703 2 19 2 L 5 2 z M 5 4 L 19 4 C 19.571297 4 20 4.4287028 20 5 L 20 8 L 19 8 A 1 1 0 0 0 18 9 A 1 1 0 0 0 19 10 L 20 10 L 20 19 C 20 19.571297 19.571297 20 19 20 L 5 20 C 4.4287028 20 4 19.571297 4 19 L 4 10 L 5 10 A 1 1 0 0 0 6 9 A 1 1 0 0 0 5 8 L 4 8 L 4 5 C 4 4.4287028 4.4287028 4 5 4 z M 9 8 A 1 1 0 0 0 8 9 A 1 1 0 0 0 9 10 L 10 10 A 1 1 0 0 0 11 9 A 1 1 0 0 0 10 8 L 9 8 z M 14 8 A 1 1 0 0 0 13 9 A 1 1 0 0 0 14 10 L 15 10 A 1 1 0 0 0 16 9 A 1 1 0 0 0 15 8 L 14 8 z "/>
</svg>
