<?xml version="1.0" encoding="UTF-8" standalone="no"?>
<svg xmlns="http://www.w3.org/2000/svg" xmlns:svg="http://www.w3.org/2000/svg" width="24" height="24" viewBox="0 0 24 24" fill="currentColor" tags="sidebar,primary,drawer,show,reveal,padding,margin,guide,layout,vertical,bleed" categories="layout">
  <path d="M 5 2 C 3.3552972 2 2 3.3552972 2 5 L 2 19 C 2 20.644703 3.3552972 22 5 22 L 8 22 L 16 22 L 19 22 C 20.644703 22 22 20.644703 22 19 L 22 5 C 22 3.3552972 20.644703 2 19 2 L 16 2 L 8 2 L 5 2 z M 5 4 L 7 4 L 7 5 A 1 1 0 0 0 8 6 A 1 1 0 0 0 9 5 L 9 4 L 15 4 L 15 5 A 1 1 0 0 0 16 6 A 1 1 0 0 0 17 5 L 17 4 L 19 4 C 19.571297 4 20 4.4287028 20 5 L 20 19 C 20 19.571297 19.571297 20 19 20 L 17 20 L 17 19 A 1 1 0 0 0 16 18 A 1 1 0 0 0 15 19 L 15 20 L 9 20 L 9 19 A 1 1 0 0 0 8 18 A 1 1 0 0 0 7 19 L 7 20 L 5 20 C 4.4287028 20 4 19.571297 4 19 L 4 5 C 4 4.4287028 4.4287028 4 5 4 z M 8 8 A 1 1 0 0 0 7 9 L 7 10 A 1 1 0 0 0 8 11 A 1 1 0 0 0 9 10 L 9 9 A 1 1 0 0 0 8 8 z M 16 8 A 1 1 0 0 0 15 9 L 15 10 A 1 1 0 0 0 16 11 A 1 1 0 0 0 17 10 L 17 9 A 1 1 0 0 0 16 8 z M 8 13 A 1 1 0 0 0 7 14 L 7 15 A 1 1 0 0 0 8 16 A 1 1 0 0 0 9 15 L 9 14 A 1 1 0 0 0 8 13 z M 16 13 A 1 1 0 0 0 15 14 L 15 15 A 1 1 0 0 0 16 16 A 1 1 0 0 0 17 15 L 17 14 A 1 1 0 0 0 16 13 z "/>
</svg>
