<svg xmlns="http://www.w3.org/2000/svg" xmlns:svg="http://www.w3.org/2000/svg" width="24" height="24" viewBox="0 0 24 24" fill="currentColor" tags="primary,drawer,show,reveal,chevron,right,&gt;" categories="layout,arrows">
  <path d="M 5 2 C 3.3552972 2 2 3.3552972 2 5 L 2 19 C 2 20.644703 3.3552972 22 5 22 L 19 22 C 20.644703 22 22 20.644703 22 19 L 22 5 C 22 3.3552972 20.644703 2 19 2 L 5 2 z M 5 4 L 8 4 L 8 20 L 5 20 C 4.4287028 20 4 19.571297 4 19 L 4 5 C 4 4.4287028 4.4287028 4 5 4 z M 10 4 L 19 4 C 19.571297 4 20 4.4287028 20 5 L 20 19 C 20 19.571297 19.571297 20 19 20 L 10 20 L 10 4 z M 14 8 A 1 1 0 0 0 13.292969 8.2929688 A 1 1 0 0 0 13.292969 9.7070312 L 15.585938 12 L 13.292969 14.292969 A 1 1 0 0 0 13.292969 15.707031 A 1 1 0 0 0 14.707031 15.707031 L 17.707031 12.707031 A 1.0001 1.0001 0 0 0 17.707031 11.292969 L 14.707031 8.2929688 A 1 1 0 0 0 14 8 z "/>
</svg>
