<?xml version="1.0" encoding="UTF-8" standalone="no"?>
<svg xmlns="http://www.w3.org/2000/svg" xmlns:svg="http://www.w3.org/2000/svg" width="24" height="24" viewBox="0 0 24 24" fill="currentColor" tags="sidebar,secondary,drawer,show,reveal,chevron,left,&lt;" categories="layout,arrows">
  
  <path d="M 5 2 C 3.3553005 2 2 3.3553005 2 5 L 2 19 C 2 20.644699 3.3553005 22 5 22 L 19 22 C 20.644699 22 22 20.644699 22 19 L 22 5 C 22 3.3553005 20.644699 2 19 2 L 5 2 z M 5 4 L 14 4 L 14 20 L 5 20 C 4.4287039 20 4 19.571296 4 19 L 4 5 C 4 4.4287039 4.4287039 4 5 4 z M 16 4 L 19 4 C 19.571296 4 20 4.4287039 20 5 L 20 19 C 20 19.571296 19.571296 20 19 20 L 16 20 L 16 4 z M 10 8 A 1 1 0 0 0 9.2929688 8.2929688 L 6.2929688 11.292969 A 1.0001 1.0001 0 0 0 6.2929688 12.707031 L 9.2929688 15.707031 A 1 1 0 0 0 10.707031 15.707031 A 1 1 0 0 0 10.707031 14.292969 L 8.4140625 12 L 10.707031 9.7070312 A 1 1 0 0 0 10.707031 8.2929688 A 1 1 0 0 0 10 8 z "/>
</svg>
