<?xml version="1.0" encoding="UTF-8" standalone="no"?>
<svg xmlns="http://www.w3.org/2000/svg" xmlns:svg="http://www.w3.org/2000/svg" width="24" height="24" viewBox="0 0 24 24" fill="currentColor" tags="sidebar,secondary,drawer,show,reveal" categories="layout">
  <path d="M 5 2 C 3.3553005 2 2 3.3553005 2 5 L 2 19 C 2 20.644699 3.3553005 22 5 22 L 19 22 C 20.644699 22 22 20.644699 22 19 L 22 5 C 22 3.3553005 20.644699 2 19 2 L 5 2 z M 5 4 L 14 4 L 14 5 A 1 1 0 0 0 15 6 A 1 1 0 0 0 16 5 L 16 4 L 19 4 C 19.571296 4 20 4.4287039 20 5 L 20 19 C 20 19.571296 19.571296 20 19 20 L 16 20 L 16 19 A 1 1 0 0 0 15 18 A 1 1 0 0 0 14 19 L 14 20 L 5 20 C 4.4287039 20 4 19.571296 4 19 L 4 5 C 4 4.4287039 4.4287039 4 5 4 z M 15 8 A 1 1 0 0 0 14 9 L 14 10 A 1 1 0 0 0 15 11 A 1 1 0 0 0 16 10 L 16 9 A 1 1 0 0 0 15 8 z M 15 13 A 1 1 0 0 0 14 14 L 14 15 A 1 1 0 0 0 15 16 A 1 1 0 0 0 16 15 L 16 14 A 1 1 0 0 0 15 13 z "/>
</svg>
