<?xml version="1.0" encoding="UTF-8" standalone="no"?>
<svg xmlns="http://www.w3.org/2000/svg" xmlns:svg="http://www.w3.org/2000/svg" width="24" height="24" viewBox="0 0 24 24" fill="currentColor" tags="attachment,file" categories="text,design,files,mail">
  <path d="M 16 1.0078125 C 14.718533 1.0078125 13.436909 1.493072 12.464844 2.4648438 A 1.0001 1.0001 0 0 0 12.457031 2.4726562 L 4.0429688 11.056641 L 4.0507812 11.050781 C 2.4596718 12.641891 1.7977484 14.546104 1.9023438 16.324219 C 2.0069392 18.102334 2.8328966 19.731334 4.0507812 20.949219 C 5.2686661 22.167104 6.8976663 22.993061 8.6757812 23.097656 C 10.434952 23.201138 12.317728 22.554588 13.898438 21 A 1 1 0 0 0 13.949219 20.951172 L 13.949219 20.949219 L 21.714844 12.998047 A 1 1 0 0 0 21.699219 11.583984 A 1 1 0 0 0 20.988281 11.300781 A 1 1 0 0 0 20.285156 11.601562 L 12.5625 19.509766 L 12.550781 19.519531 A 1 1 0 0 0 12.535156 19.535156 C 11.29759 20.772755 10.020312 21.173759 8.7929688 21.101562 C 7.5656258 21.029366 6.368459 20.438771 5.4648438 19.535156 C 4.5612286 18.631541 3.9706344 17.434374 3.8984375 16.207031 C 3.8262406 14.979688 4.2272878 13.7024 5.4648438 12.464844 A 1.0001 1.0001 0 0 0 5.4707031 12.457031 L 13.878906 3.8789062 C 15.058775 2.6993942 16.941225 2.6993941 18.121094 3.8789062 C 19.300606 5.0587746 19.300606 6.9412253 18.121094 8.1210938 A 1.0001 1.0001 0 0 0 18.113281 8.1289062 L 9.7070312 16.707031 C 9.3081626 17.105779 8.6918374 17.105779 8.2929688 16.707031 C 7.8942204 16.308163 7.8942205 15.691837 8.2929688 15.292969 A 1.0001 1.0001 0 0 0 8.3007812 15.285156 L 16.714844 6.6992188 A 1 1 0 0 0 16.699219 5.2851562 A 1 1 0 0 0 15.285156 5.3007812 L 6.8789062 13.878906 C 5.7161267 15.042037 5.7161268 16.957963 6.8789062 18.121094 C 8.0420371 19.283873 9.9579628 19.283873 11.121094 18.121094 A 1.0001 1.0001 0 0 0 11.128906 18.113281 L 19.535156 9.5351562 C 21.4787 7.5910258 21.4787 4.4089741 19.535156 2.4648438 C 18.563103 1.493059 17.281467 1.0078125 16 1.0078125 z "/>
</svg>
