<?xml version="1.0" encoding="UTF-8" standalone="no"?>
<svg xmlns="http://www.w3.org/2000/svg" xmlns:svg="http://www.w3.org/2000/svg" width="24" height="24" viewBox="0 0 24 24" fill="currentColor" tags="attachment,file" categories="text,design,files,mail">
  <path d="M 15.753906 0.93359375 C 14.619879 0.99136839 13.444502 1.4851853 12.464844 2.4648438 A 1.0001 1.0001 0 0 0 12.457031 2.4726562 L 4.0917969 11.009766 C 2.4757676 12.599686 1.7989473 14.511802 1.8984375 16.298828 C 1.9979275 18.085854 2.8267935 19.725231 4.0507812 20.949219 C 5.274769 22.173207 6.9141462 23.002072 8.7011719 23.101562 C 10.488198 23.201052 12.400314 22.526185 13.990234 20.910156 A 1.0001 1.0001 0 0 0 13.992188 20.908203 L 22.371094 12.357422 A 1 1 0 0 0 22.357422 10.943359 A 1 1 0 0 0 20.943359 10.957031 L 12.564453 19.505859 C 11.326088 20.764561 10.045044 21.174089 8.8125 21.105469 C 7.5799556 21.036849 6.373717 20.44403 5.4648438 19.535156 C 4.5559705 18.626283 3.9651046 17.420044 3.8964844 16.1875 C 3.8278641 14.954956 4.2354881 13.673864 5.4941406 12.435547 A 1.0001 1.0001 0 0 0 5.5078125 12.423828 L 13.878906 3.8789062 C 14.644962 3.1128501 15.392766 2.8908657 16.119141 2.9335938 C 16.845515 2.9763217 17.571104 3.3289159 18.121094 3.8789062 C 18.671084 4.4288964 19.025631 5.1564383 19.068359 5.8828125 C 19.111089 6.6091867 18.88715 7.3550375 18.121094 8.1210938 A 1.0001 1.0001 0 0 0 18.115234 8.1289062 L 9.7070312 16.707031 C 9.4123081 17.001754 9.1962858 17.048426 8.9707031 17.035156 C 8.7451205 17.021887 8.4894589 16.903521 8.2929688 16.707031 C 8.0964784 16.510541 7.9781134 16.25488 7.9648438 16.029297 C 7.9515737 15.803714 7.9982456 15.587692 8.2929688 15.292969 A 1.0001 1.0001 0 0 0 8.3007812 15.285156 L 16.714844 6.6992188 A 1 1 0 0 0 16.699219 5.2851562 A 1 1 0 0 0 15.285156 5.3007812 L 6.8789062 13.878906 C 6.2306298 14.527183 5.9230819 15.372084 5.96875 16.148438 C 6.014418 16.924792 6.3681465 17.612287 6.8789062 18.123047 C 7.389666 18.633807 8.077161 18.985582 8.8535156 19.03125 C 9.6298703 19.07692 10.47477 18.771323 11.123047 18.123047 A 1.0001 1.0001 0 0 0 11.128906 18.115234 L 19.542969 9.5292969 L 19.535156 9.5351562 C 20.654712 8.415533 21.13958 7.0427712 21.064453 5.765625 C 20.989327 4.4884788 20.399416 3.3291035 19.535156 2.4648438 C 18.670896 1.6005839 17.513474 1.0106734 16.236328 0.93554688 C 16.076685 0.92615606 15.91591 0.92534023 15.753906 0.93359375 z "/>
</svg>
