<?xml version="1.0" encoding="UTF-8" standalone="no"?>
<svg xmlns="http://www.w3.org/2000/svg" xmlns:svg="http://www.w3.org/2000/svg" width="24" height="24" viewBox="0 0 24 24" fill="currentColor" tags="driving,car park,pay,sidewalk,pavement" categories="transportation,maps">
  
  <path d="M 11.982422 0.96875 C 11.549695 0.96936512 11.10969 1.005045 10.666016 1.0800781 C 5.7901824 1.9046675 2.8120386 6.96613 4.4570312 11.628906 C 4.4574841 11.630206 4.4565778 11.631513 4.4570312 11.632812 C 5.4645235 14.753701 7.0546875 19.328125 7.0546875 19.328125 A 1.0001 1.0001 0 0 0 8 20 L 11 20 L 11 22 A 1 1 0 0 0 12 23 A 1 1 0 0 0 13 22 L 13 20 L 16 20 A 1.0001 1.0001 0 0 0 16.945312 19.328125 C 16.945312 19.328125 18.529276 14.770726 19.537109 11.650391 C 19.537842 11.648391 19.536378 11.646531 19.537109 11.644531 C 19.876634 10.736901 19.999652 9.8840035 20 9.0039062 C 20.000006 9.0025663 19.999995 9.00134 20 9 A 1 1 0 0 0 19.910156 8.5957031 C 19.698481 4.3083151 16.16545 0.96280388 11.982422 0.96875 z M 12.025391 2.9667969 C 15.285166 2.9666988 18.015596 5.602847 18 8.9960938 A 1 1 0 0 0 18.001953 8.9980469 A 1 1 0 0 0 18 9 C 18 9.7166653 17.92238 10.260382 17.664062 10.949219 A 1.0001 1.0001 0 0 0 17.648438 10.992188 C 16.742255 13.801369 15.521231 17.308383 15.28125 18 L 12 18 L 8.71875 18 C 8.4787697 17.308383 7.2577505 13.80137 6.3515625 10.992188 A 1.0001 1.0001 0 0 0 6.34375 10.966797 C 5.0962675 7.4364062 7.3081209 3.6770963 11 3.0527344 C 11.346114 2.9942004 11.688172 2.966807 12.025391 2.9667969 z M 12 5 C 11.02778 5 10.042118 5.318682 9.2734375 6.0019531 C 8.5047572 6.6852243 8 7.7500028 8 9 A 1 1 0 0 0 9 10 A 1 1 0 0 0 10 9 C 10 8.250002 10.245245 7.8147733 10.601562 7.4980469 C 10.957879 7.1813204 11.472224 7 12 7 C 12.527776 7 13.04212 7.1813204 13.398438 7.4980469 C 13.754754 7.8147733 14 8.250002 14 9 A 1 1 0 0 0 15 10 A 1 1 0 0 0 16 9 C 16 7.7500028 15.495243 6.6852243 14.726562 6.0019531 C 13.957881 5.318682 12.97222 5 12 5 z M 12 11 A 1 1 0 0 0 11 12 L 11 14 A 1 1 0 0 0 10 15 A 1 1 0 0 0 11 16 L 13 16 A 1 1 0 0 0 14 15 A 1 1 0 0 0 13 14 L 13 12 A 1 1 0 0 0 12 11 z "/>
</svg>
