<?xml version="1.0" encoding="UTF-8" standalone="no"?>
<svg xmlns="http://www.w3.org/2000/svg" xmlns:svg="http://www.w3.org/2000/svg" width="24" height="24" viewBox="0 0 24 24" fill="currentColor" tags="driving,car park,pay,sidewalk,pavement" categories="transportation,maps">
  <path d="M 12 1 C 6.5112336 1 2.6310452 6.4867919 4.4570312 11.662109 C 4.4574902 11.663409 4.4565717 11.664716 4.4570312 11.666016 L 6.8222656 18.640625 C 7.0957301 19.450273 7.8641734 20.000498 8.71875 20 L 11 20 L 11 22 A 1 1 0 0 0 12 23 A 1 1 0 0 0 13 22 L 13 20 L 15.28125 20 C 16.135826 20.000498 16.904271 19.450266 17.177734 18.640625 L 19.542969 11.666016 L 19.542969 11.662109 C 21.368955 6.4867849 17.488767 1 12 1 z M 12 3 C 16.171538 3 19.046207 7.0648491 17.65625 10.998047 A 1.0001 1.0001 0 0 0 17.652344 11.011719 L 15.283203 17.998047 A 1.0001 1.0001 0 0 0 15.283203 18 A 1.0001 1.0001 0 0 0 15.28125 18 L 8.71875 18 A 1.0001 1.0001 0 0 0 8.7167969 18 A 1.0001 1.0001 0 0 0 8.7167969 17.998047 L 6.3476562 11.011719 A 1.0001 1.0001 0 0 0 6.34375 10.998047 C 4.9537933 7.0648491 7.8284625 3 12 3 z M 12 5 C 11.02778 5 10.042118 5.318682 9.2734375 6.0019531 C 8.5047572 6.6852243 8 7.7500028 8 9 A 1 1 0 0 0 9 10 A 1 1 0 0 0 10 9 C 10 8.250002 10.245245 7.8147733 10.601562 7.4980469 C 10.957879 7.1813204 11.472224 7 12 7 C 12.527776 7 13.04212 7.1813204 13.398438 7.4980469 C 13.754754 7.8147733 14 8.250002 14 9 A 1 1 0 0 0 15 10 A 1 1 0 0 0 16 9 C 16 7.7500028 15.495243 6.6852243 14.726562 6.0019531 C 13.957881 5.318682 12.97222 5 12 5 z M 12 11 A 1 1 0 0 0 11 12 L 11 14 A 1 1 0 0 0 10 15 A 1 1 0 0 0 11 16 L 13 16 A 1 1 0 0 0 14 15 A 1 1 0 0 0 13 14 L 13 12 A 1 1 0 0 0 12 11 z "/>
</svg>
