<?xml version="1.0" encoding="UTF-8" standalone="no"?>
<svg xmlns="http://www.w3.org/2000/svg" xmlns:svg="http://www.w3.org/2000/svg" width="24" height="24" viewBox="0 0 24 24" fill="currentColor" tags="driving,car park,pay,sidewalk,pavement" categories="transportation,navigation">
  <path d="M 12 1 C 6.5112226 1 2.6310415 6.4867815 4.4570312 11.662109 C 4.4574903 11.663409 4.4565717 11.664716 4.4570312 11.666016 L 6.8222656 18.640625 C 7.0957306 19.450275 7.8641717 20.000498 8.71875 20 L 11 20 L 11 22 A 1 1 0 0 0 12 23 A 1 1 0 0 0 13 22 L 13 20 L 15.28125 20 C 16.135828 20.000498 16.904269 19.450268 17.177734 18.640625 L 19.542969 11.666016 L 19.542969 11.662109 C 21.368959 6.4867745 17.488777 1 12 1 z M 12 3 C 16.171546 3 19.04621 7.0648413 17.65625 10.998047 A 1.0001 1.0001 0 0 0 17.652344 11.011719 L 15.283203 17.998047 A 1.0001 1.0001 0 0 0 15.283203 18 A 1.0001 1.0001 0 0 0 15.28125 18 L 8.71875 18 A 1.0001 1.0001 0 0 0 8.7167969 18 A 1.0001 1.0001 0 0 0 8.7167969 17.998047 L 6.3476562 11.011719 A 1.0001 1.0001 0 0 0 6.34375 10.998047 C 4.9537905 7.0648413 7.8284542 3 12 3 z M 12 5 C 11.027778 5 10.042119 5.3186806 9.2734375 6.0019531 C 8.5047556 6.6852256 8 7.7500003 8 9 A 1 1 0 0 0 9 10 A 1 1 0 0 0 10 9 C 10 8.2500005 10.245244 7.8147739 10.601562 7.4980469 C 10.95788 7.1813198 11.472222 7 12 7 C 12.527778 7 13.042119 7.1813198 13.398438 7.4980469 C 13.754755 7.8147739 14 8.2500005 14 9 A 1 1 0 0 0 15 10 A 1 1 0 0 0 16 9 C 16 7.7500003 15.495244 6.6852256 14.726562 6.0019531 C 13.95788 5.3186806 12.972222 5 12 5 z M 12 11 A 1 1 0 0 0 11 12 L 11 14 A 1 1 0 0 0 10 15 A 1 1 0 0 0 11 16 L 13 16 A 1 1 0 0 0 14 15 A 1 1 0 0 0 13 14 L 13 12 A 1 1 0 0 0 12 11 z "/>
</svg>
