<?xml version="1.0" encoding="UTF-8" standalone="no"?>
<svg xmlns="http://www.w3.org/2000/svg" xmlns:svg="http://www.w3.org/2000/svg" width="24" height="24" viewBox="0 0 24 24" fill="currentColor" tags="parking lot,car park" categories="transportation,maps">
  
  <path d="M 12 1 C 5.9367246 1 1 5.9367246 1 12 C 1 18.063276 5.9367246 23 12 23 C 18.063276 23 23 18.063276 23 12 C 23 5.9367246 18.063276 1 12 1 z M 12 3 C 16.982397 3 21 7.0176026 21 12 C 21 16.982397 16.982397 21 12 21 C 7.0176026 21 3 16.982397 3 12 C 3 7.0176026 7.0176026 3 12 3 z M 9 6 A 1.0001 1.0001 0 0 0 8 7 L 8 13 L 8 17 A 1 1 0 0 0 9 18 A 1 1 0 0 0 10 17 L 10 14 L 13 14 C 14.249997 14 15.314776 13.495243 15.998047 12.726562 C 16.681318 11.957881 17 10.97222 17 10 C 17 9.0277798 16.681318 8.0421178 15.998047 7.2734375 C 15.314776 6.5047572 14.249997 6 13 6 L 9 6 z M 10 8 L 13 8 C 13.749998 8 14.185226 8.2452452 14.501953 8.6015625 C 14.81868 8.9578798 15 9.4722232 15 10 C 15 10.527776 14.81868 11.04212 14.501953 11.398438 C 14.185226 11.754754 13.749998 12 13 12 L 10 12 L 10 8 z "/>
</svg>
