<?xml version="1.0" encoding="UTF-8" standalone="no"?>
<svg xmlns="http://www.w3.org/2000/svg" xmlns:svg="http://www.w3.org/2000/svg" width="24" height="24" viewBox="0 0 24 24" fill="currentColor" tags="parking lot,car park,no parking" categories="transportation,maps">
  <path d="M 2 1 A 1 1 0 0 0 1.2929688 1.2929688 A 1 1 0 0 0 1.2929688 2.7070312 L 21.292969 22.707031 A 1 1 0 0 0 22.707031 22.707031 A 1 1 0 0 0 22.707031 21.292969 L 21.701172 20.287109 C 21.891796 19.889519 21.998107 19.452876 22 19.003906 A 1.0001 1.0001 0 0 0 22 19.001953 A 1.0001 1.0001 0 0 0 22 19 L 22 5 C 22 3.3549936 20.645006 2 19 2 L 5 2 A 1.0001 1.0001 0 0 0 4.9863281 2 C 4.5423151 2.0063244 4.1108592 2.1139028 3.71875 2.3046875 L 2.7070312 1.2929688 A 1 1 0 0 0 2 1 z M 5.4140625 4 L 19 4 C 19.564128 4 20 4.4358718 20 5 L 20 18.585938 L 14.951172 13.537109 C 15.357405 13.325348 15.711517 13.048908 15.998047 12.726562 C 16.681318 11.957881 17 10.97222 17 10 C 17 9.0277798 16.681318 8.0421178 15.998047 7.2734375 C 15.314776 6.5047572 14.249997 6 13 6 L 9 6 A 1.0001 1.0001 0 0 0 8.0683594 6.6542969 L 5.4140625 4 z M 3 7.6992188 A 1 1 0 0 0 2 8.6992188 L 2 19 C 2 20.645006 3.3549936 22 5 22 L 15.300781 22 A 1 1 0 0 0 16.300781 21 A 1 1 0 0 0 15.300781 20 L 5 20 C 4.4358718 20 4 19.564128 4 19 L 4 8.6992188 A 1 1 0 0 0 3 7.6992188 z M 10 8 L 13 8 C 13.749998 8 14.185226 8.2452452 14.501953 8.6015625 C 14.81868 8.9578798 15 9.4722232 15 10 C 15 10.527776 14.81868 11.04212 14.501953 11.398438 C 14.244613 11.687945 13.909698 11.903719 13.390625 11.974609 L 10 8.5859375 L 10 8 z M 9 13.699219 A 1 1 0 0 0 8 14.699219 L 8 17 A 1 1 0 0 0 9 18 A 1 1 0 0 0 10 17 L 10 14.699219 A 1 1 0 0 0 9 13.699219 z "/>
</svg>
