<?xml version="1.0" encoding="UTF-8" standalone="no"?>
<svg xmlns="http://www.w3.org/2000/svg" xmlns:svg="http://www.w3.org/2000/svg" width="24" height="24" viewBox="0 0 24 24" fill="currentColor" tags="emoji,congratulations,celebration,party,tada,🎉,🎊,excitement,exciting,excites,confetti" categories="emoji">
  <path d="M 21.990234 0.99804688 A 1 1 0 0 0 21.681641 1.0507812 L 19.443359 1.8007812 C 17.684626 2.3866109 16.57676 4.1479548 16.806641 5.9863281 C 16.839589 6.2692842 16.646276 6.5 16.349609 6.5 L 15.970703 6.5 C 14.645587 6.5 13.478182 7.4412044 13.228516 8.7519531 L 13.019531 9.8046875 A 1 1 0 0 0 13.804688 10.980469 A 1 1 0 0 0 14.980469 10.195312 L 15.191406 9.1347656 A 1.0001 1.0001 0 0 0 15.191406 9.1328125 A 1.0001 1.0001 0 0 0 15.191406 9.1308594 A 1.0001 1.0001 0 0 0 15.191406 9.1289062 A 1.0001 1.0001 0 0 0 15.191406 9.1269531 C 15.26174 8.7576993 15.575819 8.5 15.970703 8.5 L 16.349609 8.5 C 17.812943 8.5 18.960067 7.1909504 18.792969 5.7539062 A 1.0001 1.0001 0 0 0 18.791016 5.7421875 C 18.67485 4.8353469 19.20877 3.9881479 20.076172 3.6992188 A 1.0001 1.0001 0 0 0 20.078125 3.6992188 L 22.318359 2.9492188 A 1 1 0 0 0 22.949219 1.6816406 A 1 1 0 0 0 21.990234 0.99804688 z M 15 1 A 1 1 0 0 0 14 2 A 1 1 0 0 0 15 3 L 15.009766 3 A 1 1 0 0 0 16.009766 2 A 1 1 0 0 0 15.009766 1 L 15 1 z M 11.066406 1.0019531 A 1 1 0 0 0 10.626953 1.0722656 A 1 1 0 0 0 10.072266 2.3730469 L 10.400391 3.1875 C 10.513742 3.4742127 10.351421 3.7609056 10.046875 3.8144531 L 10.078125 3.8105469 C 8.8739107 3.9825813 8 5.0322059 8 6.2304688 L 8 7 A 1 1 0 0 0 9 8 A 1 1 0 0 0 10 7 L 10 6.2304688 C 10 6.0087317 10.165542 5.8170319 10.361328 5.7890625 A 1.0001 1.0001 0 0 0 10.392578 5.7851562 C 11.908027 5.5187074 12.826414 3.8864123 12.259766 2.453125 A 1.0001 1.0001 0 0 0 12.257812 2.4472656 L 11.927734 1.6269531 A 1 1 0 0 0 11.066406 1.0019531 z M 4 2 A 1 1 0 0 0 3 3 A 1 1 0 0 0 4 4 L 4.0097656 4 A 1 1 0 0 0 5.0097656 3 A 1 1 0 0 0 4.0097656 2 L 4 2 z M 22 7 A 1 1 0 0 0 21 8 A 1 1 0 0 0 22 9 L 22.009766 9 A 1 1 0 0 0 23.009766 8 A 1 1 0 0 0 22.009766 7 L 22 7 z M 6.8535156 9.6914062 C 6.3143967 9.6947062 5.723392 9.8625452 5.2929688 10.292969 C 5.1020321 10.483905 4.9652913 10.70777 4.8691406 10.943359 A 1 1 0 0 0 4.8574219 10.964844 L 4.8398438 11.013672 C 4.8345623 11.028014 4.8291952 11.042221 4.8242188 11.056641 L 1.0585938 21.666016 A 1.0001 1.0001 0 0 0 2.3339844 22.943359 L 13.033203 19.152344 A 1 1 0 0 0 13.265625 19.033203 C 13.423738 18.947285 13.573488 18.840574 13.707031 18.707031 C 14.137454 18.276608 14.305289 17.685603 14.308594 17.146484 C 14.311894 16.607365 14.178357 16.078939 13.962891 15.541016 C 13.531957 14.465168 12.753855 13.339793 11.707031 12.292969 C 10.660207 11.246145 9.534832 10.468043 8.4589844 10.037109 C 7.9210605 9.821643 7.3926345 9.6881016 6.8535156 9.6914062 z M 20.59375 11.572266 C 20.548574 11.573538 20.503834 11.576321 20.458984 11.580078 C 19.382598 11.670248 18.414683 12.470835 18.214844 13.607422 A 1.0001 1.0001 0 0 0 18.212891 13.625 C 18.17916 13.839946 17.991268 14 17.769531 14 L 17 14 A 1 1 0 0 0 16 15 A 1 1 0 0 0 17 16 L 17.769531 16 C 18.967794 16 20.001278 15.120599 20.1875 13.935547 L 20.185547 13.953125 C 20.239097 13.648574 20.525787 13.486258 20.8125 13.599609 L 21.626953 13.927734 A 1 1 0 0 0 22.927734 13.373047 A 1 1 0 0 0 22.373047 12.072266 L 21.552734 11.742188 A 1.0001 1.0001 0 0 0 21.546875 11.740234 C 21.23342 11.616319 20.909981 11.563359 20.59375 11.572266 z M 6.8652344 11.691406 C 7.0398655 11.690306 7.3477677 11.745546 7.7148438 11.892578 C 8.4489961 12.186645 9.4097927 12.823855 10.292969 13.707031 C 11.176145 14.590207 11.813355 15.551004 12.107422 16.285156 C 12.254455 16.652232 12.309664 16.960135 12.308594 17.134766 C 12.307494 17.309397 12.277549 17.308392 12.292969 17.292969 C 12.300679 17.285259 12.304805 17.289222 12.285156 17.294922 C 12.265507 17.300622 12.222082 17.308054 12.134766 17.308594 C 11.960135 17.309694 11.652232 17.254454 11.285156 17.107422 C 10.551009 16.81335 9.590207 16.176145 8.7070312 15.292969 C 7.8238553 14.409793 7.1866447 13.448996 6.8925781 12.714844 C 6.7455449 12.347768 6.6903358 12.039865 6.6914062 11.865234 C 6.6917155 11.814763 6.695874 11.782834 6.6992188 11.757812 L 6.7167969 11.705078 C 6.7369603 11.699412 6.7795591 11.691936 6.8652344 11.691406 z M 5.6601562 14.677734 C 6.0858512 15.364119 6.6367684 16.050831 7.2929688 16.707031 C 7.9511045 17.365167 8.6397204 17.917539 9.328125 18.34375 L 3.6445312 20.355469 L 5.6601562 14.677734 z M 22 19 A 1 1 0 0 0 21 20 A 1 1 0 0 0 22 21 L 22.009766 21 A 1 1 0 0 0 23.009766 20 A 1 1 0 0 0 22.009766 19 L 22 19 z "/>
</svg>
