<?xml version="1.0" encoding="UTF-8" standalone="no"?>
<svg xmlns="http://www.w3.org/2000/svg" xmlns:svg="http://www.w3.org/2000/svg" width="24" height="24" viewBox="0 0 24 24" fill="currentColor" tags="music,stop" categories="multimedia">
  <path d="M 7 3 C 5.9092994 3 5 3.9092994 5 5 L 5 19 C 5 20.090701 5.9092994 21 7 21 L 9 21 C 10.090701 21 11 20.090701 11 19 L 11 5 C 11 3.9092994 10.090701 3 9 3 L 7 3 z M 15 3 C 13.909299 3 13 3.9092994 13 5 L 13 19 C 13 20.090701 13.909299 21 15 21 L 17 21 C 18.090701 21 19 20.090701 19 19 L 19 5 C 19 3.9092994 18.090701 3 17 3 L 15 3 z M 7 5 L 9 5 L 9 19 L 7 19 L 7 5 z M 15 5 L 17 5 L 17 19 L 15 19 L 15 5 z "/>
</svg>
