<?xml version="1.0" encoding="UTF-8" standalone="no"?>
<svg xmlns="http://www.w3.org/2000/svg" xmlns:svg="http://www.w3.org/2000/svg" width="24" height="24" viewBox="0 0 24 24" fill="currentColor" tags="music,audio,stop" categories="multimedia,shapes">
  
  <path d="M 7.7148438 1 A 1.0001 1.0001 0 0 0 7.0078125 1.2929688 L 1.2929688 7.0078125 A 1.0001 1.0001 0 0 0 1 7.7148438 L 1 16.285156 A 1.0001 1.0001 0 0 0 1.2929688 16.992188 L 7.0078125 22.707031 A 1.0001 1.0001 0 0 0 7.7148438 23 L 16.285156 23 A 1.0001 1.0001 0 0 0 16.992188 22.707031 L 22.707031 16.992188 A 1.0001 1.0001 0 0 0 23 16.285156 L 23 7.7148438 A 1.0001 1.0001 0 0 0 22.707031 7.0078125 L 16.992188 1.2929688 A 1.0001 1.0001 0 0 0 16.285156 1 L 7.7148438 1 z M 8.1289062 3 L 15.871094 3 L 21 8.1289062 L 21 15.871094 L 15.871094 21 L 8.1289062 21 L 3 15.871094 L 3 8.1289062 L 8.1289062 3 z M 10 8 A 1 1 0 0 0 9 9 L 9 15 A 1 1 0 0 0 10 16 A 1 1 0 0 0 11 15 L 11 9 A 1 1 0 0 0 10 8 z M 14 8 A 1 1 0 0 0 13 9 L 13 15 A 1 1 0 0 0 14 16 A 1 1 0 0 0 15 15 L 15 9 A 1 1 0 0 0 14 8 z "/>
</svg>
