<?xml version="1.0" encoding="UTF-8" standalone="no"?>
<svg xmlns="http://www.w3.org/2000/svg" xmlns:svg="http://www.w3.org/2000/svg" width="24" height="24" viewBox="0 0 24 24" fill="currentColor" tags="music,stop" categories="multimedia">
  <path d="M 6 2 C 4.9092972 2 4 2.9092972 4 4 L 4 20 C 4 21.090703 4.9092972 22 6 22 L 9 22 C 10.090703 22 11 21.090703 11 20 L 11 4 C 11 2.9092972 10.090703 2 9 2 L 6 2 z M 15 2 C 13.909297 2 13 2.9092972 13 4 L 13 20 C 13 21.090703 13.909297 22 15 22 L 18 22 C 19.090703 22 20 21.090703 20 20 L 20 4 C 20 2.9092972 19.090703 2 18 2 L 15 2 z M 6 4 L 9 4 L 9 20 L 6 20 L 6 4 z M 15 4 L 18 4 L 18 20 L 15 20 L 15 4 z "/>
</svg>
