<?xml version="1.0" encoding="UTF-8" standalone="no"?>
<svg xmlns="http://www.w3.org/2000/svg" xmlns:svg="http://www.w3.org/2000/svg" width="24" height="24" viewBox="0 0 24 24" fill="currentColor" tags="pets,vets,veterinarian,domesticated,cat,dog,bear" categories="animals">
  <path d="M 11 1 C 9.3549904 1 8 2.3549904 8 4 C 8 5.6450096 9.3549904 7 11 7 C 12.64501 7 14 5.6450096 14 4 C 14 2.3549904 12.64501 1 11 1 z M 11 3 C 11.564129 3 12 3.4358706 12 4 C 12 4.5641294 11.564129 5 11 5 C 10.435871 5 10 4.5641294 10 4 C 10 3.4358706 10.435871 3 11 3 z M 18 5 C 16.35499 5 15 6.3549904 15 8 C 15 9.6450096 16.35499 11 18 11 C 19.64501 11 21 9.6450096 21 8 C 21 6.3549904 19.64501 5 18 5 z M 18 7 C 18.564129 7 19 7.4358706 19 8 C 19 8.5641294 18.564129 9 18 9 C 17.435871 9 17 8.5641294 17 8 C 17 7.4358706 17.435871 7 18 7 z M 5.4980469 9 C 3.0270796 9.00432 1.3566106 10.851339 1.0566406 12.824219 C 0.75667067 14.797098 1.8021401 17.056371 4.1601562 17.794922 A 1.0001 1.0001 0 0 0 4.1640625 17.794922 C 5.274408 18.139884 5.8595762 18.727013 6.2050781 19.841797 A 1.0001 1.0001 0 0 0 6.2050781 19.84375 C 6.9441203 22.203293 9.2061128 23.248784 11.179688 22.947266 C 13.153258 22.6457 14.999198 20.972575 15 18.5 L 15 15 C 15 11.698136 12.301864 9 9 9 L 5.5 9 A 1.0001 1.0001 0 0 0 5.4980469 9 z M 5.5 11 L 9 11 C 11.220984 11 13 12.779016 13 15 L 13 18.5 C 12.999502 20.033961 12.02367 20.79551 10.876953 20.970703 C 9.7307169 21.145823 8.5741227 20.71041 8.1152344 19.248047 L 8.1152344 19.246094 C 7.6070935 17.60844 6.3916207 16.392963 4.7558594 15.884766 L 4.7597656 15.884766 C 3.2971345 15.426658 2.8608792 14.271206 3.0351562 13.125 C 3.209347 11.979361 3.9688338 11.00364 5.5 11 z M 20 13 C 18.35499 13 17 14.35499 17 16 C 17 17.64501 18.35499 19 20 19 C 21.64501 19 23 17.64501 23 16 C 23 14.35499 21.64501 13 20 13 z M 20 15 C 20.564129 15 21 15.435871 21 16 C 21 16.564129 20.564129 17 20 17 C 19.435871 17 19 16.564129 19 16 C 19 15.435871 19.435871 15 20 15 z "/>
</svg>
