<?xml version="1.0" encoding="UTF-8" standalone="no"?>
<svg xmlns="http://www.w3.org/2000/svg" xmlns:svg="http://www.w3.org/2000/svg" width="24" height="24" viewBox="0 0 24 24" fill="currentColor" tags="pets,vets,veterinarian,domesticated,cat,dog,bear" categories="animals">
  <path d="M 11 1 C 9.3549936 1 8 2.3549936 8 4 C 8 5.6450064 9.3549936 7 11 7 C 12.645006 7 14 5.6450064 14 4 C 14 2.3549936 12.645006 1 11 1 z M 11 3 C 11.564128 3 12 3.4358718 12 4 C 12 4.5641282 11.564128 5 11 5 C 10.435872 5 10 4.5641282 10 4 C 10 3.4358718 10.435872 3 11 3 z M 18 5 C 16.354994 5 15 6.3549936 15 8 C 15 9.6450064 16.354994 11 18 11 C 19.645006 11 21 9.6450064 21 8 C 21 6.3549936 19.645006 5 18 5 z M 18 7 C 18.564128 7 19 7.4358718 19 8 C 19 8.5641282 18.564128 9 18 9 C 17.435872 9 17 8.5641282 17 8 C 17 7.4358718 17.435872 7 18 7 z M 5.4980469 9 C 3.0270845 9.00432 1.35661 10.851343 1.0566406 12.824219 C 0.75667126 14.797094 1.8021448 17.056372 4.1601562 17.794922 A 1.0001 1.0001 0 0 0 4.1640625 17.794922 C 5.2744058 18.139883 5.8595769 18.727015 6.2050781 19.841797 A 1.0001 1.0001 0 0 0 6.2050781 19.84375 C 6.9441189 22.203289 9.2061168 23.248783 11.179688 22.947266 C 13.153254 22.645701 14.999198 20.97257 15 18.5 L 15 15 C 15 11.698142 12.301858 9 9 9 L 5.5 9 A 1.0001 1.0001 0 0 0 5.4980469 9 z M 5.5 11 L 9 11 C 11.220979 11 13 12.779021 13 15 L 13 18.5 C 12.999502 20.033958 12.023668 20.79551 10.876953 20.970703 C 9.7307193 21.145822 8.5741218 20.710406 8.1152344 19.248047 L 8.1152344 19.246094 C 7.6070945 17.608443 6.3916174 16.392962 4.7558594 15.884766 L 4.7597656 15.884766 C 3.2971375 15.426659 2.8608796 14.271204 3.0351562 13.125 C 3.2093466 11.979363 3.9688368 11.00364 5.5 11 z M 20 13 C 18.354994 13 17 14.354994 17 16 C 17 17.645006 18.354994 19 20 19 C 21.645006 19 23 17.645006 23 16 C 23 14.354994 21.645006 13 20 13 z M 20 15 C 20.564128 15 21 15.435872 21 16 C 21 16.564128 20.564128 17 20 17 C 19.435872 17 19 16.564128 19 16 C 19 15.435872 19.435872 15 20 15 z "/>
</svg>
