<svg xmlns="http://www.w3.org/2000/svg" xmlns:svg="http://www.w3.org/2000/svg" width="24" height="24" viewBox="0 0 24 24" fill="currentColor" tags="disabled,inactive,non-editable,locked,read-only,unmodifiable,frozen,restricted,pencil,change,create,draw,writer,writing,biro,ink,marker,felt tip,stationery,artist" categories="text,design,tools">
  <path d="M 18.994141 0.953125 C 18.121934 0.99881968 17.21644 1.3831695 16.480469 2.1191406 L 12.123047 6.4628906 A 1 1 0 0 0 12.121094 7.8789062 A 1 1 0 0 0 13.535156 7.8808594 L 17.894531 3.5332031 C 18.382088 3.0456469 18.815626 2.9278033 19.246094 2.953125 C 19.676562 2.978447 20.125682 3.1920879 20.466797 3.5332031 C 20.807912 3.8743184 21.021553 4.3234383 21.046875 4.7539062 C 21.072195 5.1843743 20.954355 5.6179126 20.466797 6.1054688 L 16.113281 10.457031 A 1 1 0 0 0 16.113281 11.873047 A 1 1 0 0 0 17.527344 11.873047 L 21.880859 7.5195312 C 22.721969 6.6784215 23.102642 5.6160057 23.044922 4.6347656 C 22.987202 3.6535256 22.536244 2.7745254 21.880859 2.1191406 C 21.225475 1.4637559 20.346474 1.0127983 19.365234 0.95507812 C 19.242579 0.9478631 19.118742 0.94659719 18.994141 0.953125 z M 2 1 A 1 1 0 0 0 1.2929688 1.2929688 A 1 1 0 0 0 1.2929688 2.7070312 L 8.5859375 10 L 3.1367188 15.455078 C 2.7878456 15.803577 2.5302087 16.231347 2.3867188 16.703125 A 1.0001 1.0001 0 0 0 2.3867188 16.705078 L 1.0644531 21.064453 C 0.73351663 22.156296 1.8367876 23.26493 2.9296875 22.9375 A 1.0001 1.0001 0 0 0 2.9335938 22.935547 L 7.2910156 21.613281 A 1.0001 1.0001 0 0 0 7.2949219 21.611328 C 7.7650895 21.467168 8.1918379 21.209573 8.5390625 20.861328 L 13.992188 15.40625 L 21.292969 22.707031 A 1 1 0 0 0 22.707031 22.707031 A 1 1 0 0 0 22.707031 21.292969 L 14.810547 13.396484 A 1 1 0 0 0 14.707031 13.275391 A 1 1 0 0 0 14.585938 13.171875 L 10.707031 9.2929688 L 2.7070312 1.2929688 A 1 1 0 0 0 2 1 z M 10 11.414062 L 12.578125 13.992188 L 7.1230469 19.449219 C 7.0072711 19.565335 6.8638002 19.651151 6.7070312 19.699219 L 3.25 20.748047 L 4.3007812 17.285156 L 4.2988281 17.285156 C 4.3466721 17.12785 4.4325023 16.985342 4.5488281 16.869141 A 1.0001 1.0001 0 0 0 4.5507812 16.869141 L 10 11.414062 z "/>
</svg>
