<?xml version="1.0" encoding="UTF-8" standalone="no"?>
<svg xmlns="http://www.w3.org/2000/svg" xmlns:svg="http://www.w3.org/2000/svg" width="24" height="24" viewBox="0 0 24 24" fill="currentColor" tags="disabled,inactive,non-editable,locked,read-only,unmodifiable,frozen,restricted,pencil,change,create,draw,writer,writing,biro,ink,marker,felt tip,stationery,artist" categories="text,design,tools">
  <path d="M 19.179688 0.94921875 C 18.251372 0.94656109 17.269008 1.3306017 16.480469 2.1191406 L 12.123047 6.4628906 A 1 1 0 0 0 12.121094 7.8789062 A 1 1 0 0 0 13.535156 7.8808594 L 17.894531 3.5332031 C 18.382087 3.0456478 18.815626 2.9278033 19.246094 2.953125 C 19.67656 2.978447 20.125682 3.1920886 20.466797 3.5332031 C 20.807912 3.8743177 21.021553 4.3234392 21.046875 4.7539062 C 21.072195 5.1843734 20.954354 5.6179135 20.466797 6.1054688 L 16.113281 10.457031 A 1 1 0 0 0 16.113281 11.873047 A 1 1 0 0 0 17.527344 11.873047 L 21.880859 7.5195312 C 22.721968 6.6784232 23.102642 5.6160037 23.044922 4.6347656 C 22.987202 3.6535276 22.536243 2.7745241 21.880859 2.1191406 C 21.225476 1.4637572 20.346472 1.0127982 19.365234 0.95507812 C 19.303907 0.95147062 19.241575 0.94939593 19.179688 0.94921875 z M 2 1 A 1 1 0 0 0 1.2929688 1.2929688 A 1 1 0 0 0 1.2929688 2.7070312 L 8.5859375 10 L 3.1367188 15.455078 C 2.7878463 15.803577 2.5302085 16.231347 2.3867188 16.703125 A 1.0001 1.0001 0 0 0 2.3867188 16.705078 L 1.0644531 21.064453 C 0.73351729 22.156294 1.8367897 23.264929 2.9296875 22.9375 A 1.0001 1.0001 0 0 0 2.9335938 22.935547 L 7.2910156 21.613281 A 1.0001 1.0001 0 0 0 7.2949219 21.611328 C 7.7650885 21.467168 8.1918385 21.209573 8.5390625 20.861328 L 13.992188 15.40625 L 21.292969 22.707031 A 1 1 0 0 0 22.707031 22.707031 A 1 1 0 0 0 22.707031 21.292969 L 14.804688 13.390625 A 1 1 0 0 0 14.707031 13.275391 A 1 1 0 0 0 14.654297 13.240234 L 10.707031 9.2929688 L 2.7070312 1.2929688 A 1 1 0 0 0 2 1 z M 10 11.414062 L 12.578125 13.992188 L 7.1230469 19.449219 C 7.0072713 19.565335 6.8637999 19.651151 6.7070312 19.699219 L 3.25 20.748047 L 4.3007812 17.285156 L 4.2988281 17.285156 C 4.3466721 17.12785 4.4325025 16.985342 4.5488281 16.869141 A 1.0001 1.0001 0 0 0 4.5507812 16.869141 L 10 11.414062 z "/>
</svg>
