<?xml version="1.0" encoding="UTF-8" standalone="no"?>
<svg xmlns="http://www.w3.org/2000/svg" xmlns:svg="http://www.w3.org/2000/svg" width="24" height="24" viewBox="0 0 24 24" fill="currentColor" tags="vector,drawing,path" categories="text,design,cursors">
  <path d="M 2.9472656 1.0039062 C 2.5067636 1.0213837 2.09435 1.1925206 1.7636719 1.4628906 A 1 1 0 0 0 1.59375 1.59375 A 1 1 0 0 0 1.5 1.7226562 C 1.1006725 2.1859132 0.89938712 2.8202968 1.0566406 3.4707031 A 1.0001 1.0001 0 0 0 1.0605469 3.4882812 L 4.3769531 16.113281 L 4.3789062 16.115234 C 4.5618387 16.868693 5.1692424 17.453396 5.9296875 17.605469 L 11.443359 18.708984 C 11.356363 19.31474 11.540657 19.954582 12 20.414062 L 13.585938 22 C 14.358567 22.772398 15.641432 22.772398 16.414062 22 L 22 16.414062 C 22.772398 15.641433 22.772398 14.358567 22 13.585938 L 20.414062 12 C 20.027748 11.613801 19.513842 11.419922 19 11.419922 C 18.902682 11.419922 18.80544 11.429461 18.708984 11.443359 L 17.605469 5.9296875 C 17.453397 5.1692418 16.868693 4.5618386 16.115234 4.3789062 L 16.113281 4.3769531 L 3.4882812 1.0605469 A 1.0001 1.0001 0 0 0 3.4707031 1.0566406 C 3.2941247 1.013948 3.1185134 0.99711177 2.9472656 1.0039062 z M 4.9199219 3.5058594 L 15.625 6.3164062 A 1.0001 1.0001 0 0 0 15.644531 6.3222656 L 16.914062 12.671875 L 12.671875 16.914062 L 6.3222656 15.644531 A 1.0001 1.0001 0 0 0 6.3164062 15.625 L 3.5058594 4.9199219 L 8.296875 9.7109375 C 8.107873 10.102617 8 10.539504 8 11 C 8 12.64501 9.3549904 14 11 14 C 12.64501 14 14 12.64501 14 11 C 14 9.3549904 12.64501 8 11 8 C 10.539504 8 10.102617 8.107873 9.7109375 8.296875 L 4.9199219 3.5058594 z M 11 10 C 11.564129 10 12 10.435871 12 11 C 12 11.564129 11.564129 12 11 12 C 10.435871 12 10 11.564129 10 11 C 10 10.727648 10.102914 10.486542 10.271484 10.308594 A 1 1 0 0 0 10.292969 10.292969 A 1 1 0 0 0 10.332031 10.25 C 10.507566 10.094297 10.739401 10 11 10 z M 19 13.414062 L 20.585938 15 L 15 20.585938 L 13.414062 19 L 19 13.414062 z "/>
</svg>
