<?xml version="1.0" encoding="UTF-8" standalone="no"?>
<svg xmlns="http://www.w3.org/2000/svg" xmlns:svg="http://www.w3.org/2000/svg" width="24" height="24" viewBox="0 0 24 24" fill="currentColor" tags="pencil,change,create,draw,writer,writing,biro,ink,marker,felt tip,stationery,artist" categories="text,design,tools">
  <path d="M 17.724609 1.9667969 C 17.006825 2.0050486 16.26044 2.3215913 15.667969 2.9140625 L 3.6582031 14.925781 C 3.3016032 15.282185 3.039757 15.723073 2.8984375 16.207031 L 2.0605469 19.078125 C 1.743862 20.163902 2.8360981 21.256138 3.921875 20.939453 L 6.7929688 20.101562 C 7.277464 19.960473 7.7173925 19.698612 8.0742188 19.341797 L 20.085938 7.3320312 C 20.763047 6.6549214 21.080673 5.7776932 21.033203 4.9707031 C 20.985733 4.1637131 20.618322 3.4464473 20.085938 2.9140625 C 19.553553 2.3816777 18.836287 2.0142671 18.029297 1.9667969 C 17.928423 1.9608631 17.82715 1.9613323 17.724609 1.9667969 z M 17.816406 3.9609375 C 17.84835 3.9601428 17.880082 3.9610067 17.912109 3.9628906 C 18.168327 3.9779626 18.451807 4.1119629 18.669922 4.3300781 C 18.888037 4.5481934 19.022038 4.8316726 19.037109 5.0878906 C 19.052179 5.3441087 18.993479 5.5924593 18.669922 5.9160156 L 6.6601562 17.927734 C 6.5411753 18.046712 6.3959263 18.134595 6.234375 18.181641 A 1.0001 1.0001 0 0 0 6.2324219 18.181641 L 4.2363281 18.763672 L 4.8183594 16.767578 C 4.8654814 16.606206 4.9533602 16.458684 5.0722656 16.339844 L 17.083984 4.3300781 C 17.367097 4.0469664 17.592801 3.9665004 17.816406 3.9609375 z M 12 19 A 1 1 0 0 0 11 20 A 1 1 0 0 0 12 21 L 21 21 A 1 1 0 0 0 22 20 A 1 1 0 0 0 21 19 L 12 19 z "/>
</svg>
