<?xml version="1.0" encoding="UTF-8" standalone="no"?>
<svg xmlns="http://www.w3.org/2000/svg" xmlns:svg="http://www.w3.org/2000/svg" width="24" height="24" viewBox="0 0 24 24" fill="currentColor" tags="pencil,change,create,draw,writer,writing,biro,ink,marker,felt tip,stationery,artist" categories="text,design,tools">
  <path d="M 18.994141 0.953125 C 18.12193 0.99838853 17.216604 1.3812373 16.480469 2.1171875 L 3.1367188 15.466797 C 2.7884742 15.814021 2.5308782 16.240771 2.3867188 16.710938 A 1.0001 1.0001 0 0 0 2.3847656 16.712891 L 1.0644531 21.066406 A 1.0001 1.0001 0 0 0 1.0625 21.070312 C 0.73630302 22.161848 1.840631 23.263497 2.9316406 22.935547 A 1.0001 1.0001 0 0 0 2.9335938 22.935547 L 7.2871094 21.615234 C 7.7568276 21.472373 8.1854892 21.215752 8.5332031 20.869141 A 1.0001 1.0001 0 0 0 8.5332031 20.867188 L 21.880859 7.5195312 C 22.722157 6.6784453 23.102524 5.6160995 23.044922 4.6347656 C 22.98732 3.6534318 22.536224 2.7746688 21.880859 2.1191406 C 21.225496 1.4636125 20.346554 1.0129265 19.365234 0.95507812 C 19.242569 0.94784708 19.118742 0.94665878 18.994141 0.953125 z M 19.085938 2.9492188 C 19.139997 2.9474722 19.194228 2.9479993 19.248047 2.9511719 C 19.678599 2.9765528 20.125662 3.1919833 20.466797 3.5332031 C 20.807931 3.874423 21.023555 4.3213943 21.048828 4.7519531 C 21.074098 5.182512 20.954497 5.6178913 20.466797 6.1054688 L 7.1191406 19.453125 C 7.0034207 19.568087 6.8611545 19.653702 6.7050781 19.701172 L 3.25 20.75 L 4.2988281 17.296875 L 4.2988281 17.294922 C 4.3469891 17.138794 4.4331137 16.998188 4.5488281 16.882812 A 1.0001 1.0001 0 0 0 4.5488281 16.880859 L 17.894531 3.53125 C 18.321269 3.1046197 18.707521 2.9614447 19.085938 2.9492188 z M 2.3554688 21.019531 L 2.3574219 21.021484 L 2.3535156 21.021484 L 2.3554688 21.019531 z "/>
</svg>
