<?xml version="1.0" encoding="UTF-8" standalone="no"?>
<svg xmlns="http://www.w3.org/2000/svg" xmlns:svg="http://www.w3.org/2000/svg" width="24" height="24" viewBox="0 0 24 24" fill="currentColor" tags="pencil,change,create,draw,writer,writing,biro,ink,marker,felt tip,stationery,artist" categories="text,design,tools">
  <path d="M 19.232422 0.921875 C 18.210249 0.89328669 17.121329 1.3499035 16.292969 2.2929688 L 2.7929688 15.792969 A 1.0001 1.0001 0 0 0 2.5351562 16.236328 L 1.0351562 21.736328 A 1.0001 1.0001 0 0 0 2.2636719 22.964844 L 7.7636719 21.464844 A 1.0001 1.0001 0 0 0 8.2070312 21.207031 L 21.707031 7.7070312 C 22.654906 6.8926021 23.123203 5.8143444 23.101562 4.796875 C 23.079358 3.7528362 22.606408 2.8134386 21.912109 2.1191406 C 21.217812 1.4248427 20.27738 0.95110054 19.232422 0.921875 z M 19.175781 2.9199219 C 19.632069 2.9326839 20.126429 3.1615852 20.498047 3.5332031 C 20.869665 3.9048211 21.09401 4.3929137 21.103516 4.8398438 C 21.113016 5.2867739 20.968121 5.7326345 20.365234 6.2285156 A 1.0001 1.0001 0 0 0 20.292969 6.2929688 L 6.9804688 19.605469 L 3.4257812 20.574219 L 4.3945312 17.019531 L 17.707031 3.7070312 A 1.0001 1.0001 0 0 0 17.763672 3.6464844 C 18.266663 3.0520765 18.719495 2.9071604 19.175781 2.9199219 z "/>
</svg>
