<?xml version="1.0" encoding="UTF-8" standalone="no"?>
<svg xmlns="http://www.w3.org/2000/svg" xmlns:svg="http://www.w3.org/2000/svg" width="24" height="24" viewBox="0 0 24 24" fill="currentColor" tags="pencil,change,create,draw,sketch,draft,writer,writing,biro,ink,marker,felt tip,stationery,artist" categories="text,design,tools">
  <path d="M 18.994141 0.953125 C 18.121929 0.9983884 17.216605 1.3812358 16.480469 2.1171875 L 14.394531 4.2050781 L 14.386719 4.2109375 A 1 1 0 0 0 14.292969 4.2929688 A 1 1 0 0 0 14.210938 4.3867188 A 1 1 0 0 0 14.205078 4.3945312 L 3.1367188 15.466797 C 2.7884735 15.814022 2.5308786 16.24077 2.3867188 16.710938 A 1.0001 1.0001 0 0 0 2.3847656 16.712891 L 1.0644531 21.066406 A 1.0001 1.0001 0 0 0 1.0625 21.070312 C 0.73630236 22.16185 1.8406289 23.263498 2.9316406 22.935547 A 1.0001 1.0001 0 0 0 2.9335938 22.935547 L 7.2871094 21.615234 C 7.7568286 21.472372 8.1854885 21.215753 8.5332031 20.869141 A 1.0001 1.0001 0 0 0 8.5332031 20.867188 L 19.601562 9.7988281 A 1 1 0 0 0 19.707031 9.7070312 A 1 1 0 0 0 19.798828 9.6015625 L 21.880859 7.5195312 C 22.722158 6.6784436 23.102524 5.6161014 23.044922 4.6347656 C 22.98732 3.6534298 22.536224 2.7746701 21.880859 2.1191406 C 21.225494 1.4636111 20.346556 1.0129266 19.365234 0.95507812 C 19.242569 0.94784706 19.118742 0.9466588 18.994141 0.953125 z M 19.085938 2.9492188 C 19.139997 2.9474722 19.194228 2.9479993 19.248047 2.9511719 C 19.6786 2.9765529 20.125662 3.1919826 20.466797 3.5332031 C 20.807932 3.8744236 21.023555 4.3213934 21.048828 4.7519531 C 21.074098 5.1825129 20.954498 5.6178904 20.466797 6.1054688 L 18.992188 7.578125 L 16.419922 5.0058594 L 17.894531 3.53125 C 18.32127 3.1046189 18.707521 2.9614447 19.085938 2.9492188 z M 15.005859 6.4199219 L 17.578125 8.9921875 L 7.1191406 19.453125 C 7.0034204 19.568087 6.8611548 19.653702 6.7050781 19.701172 L 3.25 20.75 L 4.2988281 17.296875 L 4.2988281 17.294922 C 4.3469891 17.138794 4.4331135 16.998188 4.5488281 16.882812 A 1.0001 1.0001 0 0 0 4.5488281 16.880859 L 15.005859 6.4199219 z M 13 20 A 1 1 0 0 0 12 21 A 1 1 0 0 0 13 22 L 21 22 A 1 1 0 0 0 22 21 A 1 1 0 0 0 21 20 L 13 20 z M 2.3554688 21.019531 L 2.3574219 21.021484 L 2.3535156 21.021484 L 2.3554688 21.019531 z "/>
</svg>
