<?xml version="1.0" encoding="UTF-8" standalone="no"?>
<svg xmlns="http://www.w3.org/2000/svg" xmlns:svg="http://www.w3.org/2000/svg" width="24" height="24" viewBox="0 0 24 24" fill="currentColor" tags="edit,create,draw,sketch,draft,writer,writing,stationery,artist,measurements,centimeters,cm,millimeters,mm,metre,foot,feet,inches,units,size,length,width,height,dimensions,depth,breadth,extent" categories="tools,design,layout,text">
  <path d="M 18.994141 0.953125 C 18.121929 0.9983884 17.216605 1.3812358 16.480469 2.1171875 L 14.394531 4.2050781 L 14.380859 4.2167969 A 1 1 0 0 0 14.292969 4.2929688 A 1 1 0 0 0 14.216797 4.3808594 A 1 1 0 0 0 14.205078 4.3945312 L 13.005859 5.5917969 L 10.708984 3.2949219 A 1 1 0 0 0 10.707031 3.2929688 A 1 1 0 0 0 10.705078 3.2910156 L 9.40625 1.9921875 A 1.0001 1.0001 0 0 0 9.40625 1.9902344 C 8.7452144 1.3323861 7.8721793 1.0039063 7 1.0039062 C 6.1278207 1.0039062 5.2547856 1.3323892 4.59375 1.9902344 A 1.0001 1.0001 0 0 0 4.59375 1.9921875 L 1.9921875 4.59375 A 1.0001 1.0001 0 0 0 1.9902344 4.59375 C 0.674544 5.9158212 0.674544 8.0841788 1.9902344 9.40625 A 1.0001 1.0001 0 0 0 1.9921875 9.40625 L 5.59375 13.007812 L 3.1367188 15.466797 C 2.7884735 15.814022 2.5308786 16.24077 2.3867188 16.710938 A 1.0001 1.0001 0 0 0 2.3847656 16.712891 L 1.0644531 21.066406 A 1.0001 1.0001 0 0 0 1.0625 21.070312 C 0.73630236 22.16185 1.8406289 23.263498 2.9316406 22.935547 A 1.0001 1.0001 0 0 0 2.9335938 22.935547 L 7.2871094 21.615234 C 7.7568286 21.472372 8.1854885 21.215753 8.5332031 20.869141 A 1.0001 1.0001 0 0 0 8.5332031 20.867188 L 10.992188 18.40625 L 14.59375 22.007812 C 15.914886 23.328948 18.085114 23.328948 19.40625 22.007812 L 22.007812 19.40625 C 23.328948 18.085114 23.328948 15.914886 22.007812 14.59375 L 18.40625 10.992188 L 19.597656 9.8007812 L 19.601562 9.7988281 A 1 1 0 0 0 19.707031 9.7070312 A 1 1 0 0 0 19.798828 9.6015625 A 1 1 0 0 0 19.800781 9.5976562 L 21.880859 7.5195312 C 22.722158 6.6784436 23.102524 5.6161014 23.044922 4.6347656 C 22.98732 3.6534298 22.536224 2.7746701 21.880859 2.1191406 C 21.225494 1.4636111 20.346556 1.0129266 19.365234 0.95507812 C 19.242569 0.94784706 19.118742 0.9466588 18.994141 0.953125 z M 19.085938 2.9492188 C 19.139997 2.9474722 19.194228 2.9479993 19.248047 2.9511719 C 19.6786 2.9765529 20.125662 3.1919826 20.466797 3.5332031 C 20.807932 3.8744236 21.023555 4.3213934 21.048828 4.7519531 C 21.074098 5.1825129 20.954498 5.6178904 20.466797 6.1054688 L 18.992188 7.578125 L 16.419922 5.0058594 L 17.894531 3.53125 C 18.32127 3.1046189 18.707521 2.9614447 19.085938 2.9492188 z M 7 2.9921875 C 7.3566512 2.9921875 7.7133024 3.1297377 7.9921875 3.40625 L 8.5859375 4 L 7.2929688 5.2929688 A 1 1 0 0 0 7.2929688 6.7070312 A 1 1 0 0 0 8.7070312 6.7070312 L 10 5.4140625 L 11.59375 7.0078125 L 7.0078125 11.59375 L 3.4082031 7.9941406 L 3.40625 7.9921875 C 2.8532253 7.4344173 2.8532253 6.5655827 3.40625 6.0078125 L 3.4082031 6.0058594 L 6.0058594 3.4082031 L 6.0078125 3.40625 C 6.2866976 3.1297377 6.6433488 2.9921875 7 2.9921875 z M 15.005859 6.4199219 L 17.578125 8.9921875 L 7.1191406 19.453125 C 7.0034204 19.568087 6.8611548 19.653702 6.7050781 19.701172 L 3.25 20.75 L 4.2988281 17.296875 L 4.2988281 17.294922 C 4.3469891 17.138794 4.4331135 16.998188 4.5488281 16.882812 A 1.0001 1.0001 0 0 0 4.5488281 16.880859 L 15.005859 6.4199219 z M 16.992188 12.40625 L 18.585938 14 L 17.292969 15.292969 A 1 1 0 0 0 17.292969 16.707031 A 1 1 0 0 0 18.707031 16.707031 L 20 15.414062 L 20.59375 16.007812 C 21.152614 16.566678 21.152614 17.433324 20.59375 17.992188 L 17.992188 20.59375 C 17.433324 21.152614 16.566678 21.152614 16.007812 20.59375 L 12.40625 16.992188 L 16.992188 12.40625 z M 2.3554688 21.019531 L 2.3574219 21.021484 L 2.3535156 21.021484 L 2.3554688 21.019531 z "/>
</svg>
