<?xml version="1.0" encoding="UTF-8" standalone="no"?>
<svg xmlns="http://www.w3.org/2000/svg" xmlns:svg="http://www.w3.org/2000/svg" width="24" height="24" viewBox="0 0 24 24" fill="currentColor" tags="pencil,change,create,draw,sketch,draft,writer,writing,biro,ink,marker,felt tip,stationery,artist" categories="text,design,tools">
  <path d="M 17.724609 1.9667969 C 17.006826 2.0050487 16.260439 2.3215925 15.667969 2.9140625 L 3.6582031 14.925781 C 3.301604 15.282184 3.0397568 15.723074 2.8984375 16.207031 L 2.0605469 19.078125 C 1.7438626 20.1639 2.8361003 21.256138 3.921875 20.939453 L 6.7929688 20.101562 C 7.2774631 19.960474 7.7173932 19.698612 8.0742188 19.341797 L 20.085938 7.3320312 C 20.763047 6.6549227 21.080673 5.7776916 21.033203 4.9707031 C 20.985733 4.1637147 20.618322 3.4464462 20.085938 2.9140625 C 19.553554 2.3816788 18.836285 2.0142669 18.029297 1.9667969 C 17.928423 1.9608631 17.82715 1.9613323 17.724609 1.9667969 z M 17.912109 3.9628906 C 18.168327 3.9779626 18.451807 4.1119633 18.669922 4.3300781 C 18.888037 4.5481929 19.022038 4.8316731 19.037109 5.0878906 C 19.052179 5.3441082 18.993479 5.5924599 18.669922 5.9160156 L 18 6.5859375 L 16.414062 5 L 17.083984 4.3300781 C 17.40754 4.0065224 17.655893 3.9478189 17.912109 3.9628906 z M 15 6.4140625 L 16.585938 8 L 6.6601562 17.927734 C 6.5411756 18.046712 6.3959259 18.134595 6.234375 18.181641 A 1.0001 1.0001 0 0 0 6.2324219 18.181641 L 4.2363281 18.763672 L 4.8183594 16.767578 C 4.8654813 16.606206 4.9533604 16.458684 5.0722656 16.339844 L 15 6.4140625 z M 12 19 A 1 1 0 0 0 11 20 A 1 1 0 0 0 12 21 L 21 21 A 1 1 0 0 0 22 20 A 1 1 0 0 0 21 19 L 12 19 z "/>
</svg>
