<?xml version="1.0" encoding="UTF-8" standalone="no"?>
<svg xmlns="http://www.w3.org/2000/svg" xmlns:svg="http://www.w3.org/2000/svg" width="24" height="24" viewBox="0 0 24 24" fill="currentColor" tags="pencil,change,create,draw,sketch,draft,writer,writing,biro,ink,marker,felt tip,stationery,artist" categories="text,design,tools">
  
  <path d="M 17.847656 1.8457031 C 17.130357 1.8840241 16.385147 2.2007904 15.792969 2.7929688 L 14.292969 4.2929688 L 3.2929688 15.292969 A 1.0001 1.0001 0 0 0 3.0292969 15.757812 L 2.0292969 19.757812 A 1.0001 1.0001 0 0 0 3.2421875 20.970703 L 7.2421875 19.970703 A 1.0001 1.0001 0 0 0 7.7070312 19.707031 L 18.707031 8.7070312 L 20.207031 7.2070312 C 20.883807 6.5302561 21.201746 5.6542906 21.154297 4.8476562 C 21.106848 4.041022 20.739165 3.3251024 20.207031 2.7929688 C 19.674898 2.260835 18.958978 1.8931524 18.152344 1.8457031 C 18.051514 1.839772 17.950128 1.8402287 17.847656 1.8457031 z M 18.035156 3.8417969 C 18.29102 3.8568479 18.575104 3.9891665 18.792969 4.2070312 C 19.010834 4.4248961 19.143152 4.7089804 19.158203 4.9648438 C 19.173253 5.2207072 19.116192 5.4697465 18.792969 5.7929688 L 18 6.5859375 L 16.414062 5 L 17.207031 4.2070312 C 17.530254 3.883809 17.779294 3.826746 18.035156 3.8417969 z M 15 6.4140625 L 16.585938 8 L 6.4882812 18.097656 L 4.375 18.625 L 4.9023438 16.511719 L 15 6.4140625 z M 12 19 A 1 1 0 0 0 11 20 A 1 1 0 0 0 12 21 L 21 21 A 1 1 0 0 0 22 20 A 1 1 0 0 0 21 19 L 12 19 z "/>
</svg>
