<?xml version="1.0" encoding="UTF-8" standalone="no"?>
<svg xmlns="http://www.w3.org/2000/svg" xmlns:svg="http://www.w3.org/2000/svg" width="24" height="24" viewBox="0 0 24 24" fill="currentColor" tags="shape" categories="shapes">
  <path d="M 12 1.0039062 C 11.383702 1.0039062 10.76654 1.1915514 10.244141 1.5683594 L 2.2460938 7.3066406 A 1.0001 1.0001 0 0 0 2.2460938 7.3085938 C 1.1869464 8.0716551 0.74097087 9.4440669 1.1503906 10.683594 L 4.1894531 19.941406 A 1.0001 1.0001 0 0 0 4.1914062 19.945312 C 4.5975082 21.168892 5.7499958 22.000333 7.0390625 22 L 16.960938 22 C 18.250005 22.000333 19.402495 21.168886 19.808594 19.945312 A 1.0001 1.0001 0 0 0 19.810547 19.941406 L 22.849609 10.683594 L 22.849609 10.681641 C 23.257874 9.4426648 22.812499 8.0712525 21.753906 7.3085938 A 1.0001 1.0001 0 0 0 21.753906 7.3066406 L 13.755859 1.5683594 C 13.23346 1.1915514 12.616298 1.0039062 12 1.0039062 z M 12 3 C 12.204862 3 12.409725 3.0643041 12.585938 3.1914062 A 1.0001 1.0001 0 0 0 12.587891 3.1933594 L 20.585938 8.9316406 C 20.943411 9.189181 21.089356 9.6382867 20.951172 10.056641 A 1.0001 1.0001 0 0 0 20.949219 10.058594 L 17.910156 19.314453 C 17.773097 19.727367 17.396046 20.000395 16.960938 20 L 7.0390625 20 C 6.6039548 20.000395 6.2269026 19.727411 6.0898438 19.314453 L 3.0507812 10.058594 A 1.0001 1.0001 0 0 0 3.0488281 10.056641 C 2.9106414 9.6383337 3.0565889 9.189181 3.4140625 8.9316406 L 11.412109 3.1933594 A 1.0001 1.0001 0 0 0 11.414062 3.1914062 C 11.590274 3.0643041 11.795138 3 12 3 z "/>
</svg>
