<?xml version="1.0" encoding="UTF-8" standalone="no"?>
<svg xmlns="http://www.w3.org/2000/svg" xmlns:svg="http://www.w3.org/2000/svg" width="24" height="24" viewBox="0 0 24 24" fill="currentColor" tags="shape" categories="shapes">
  <path d="M 12 1.0039062 C 11.3837 1.0039062 10.766541 1.1915506 10.244141 1.5683594 L 2.2460938 7.3066406 A 1.0001 1.0001 0 0 0 2.2460938 7.3085938 C 1.1869443 8.0716566 0.74097006 9.4440645 1.1503906 10.683594 L 4.1894531 19.941406 A 1.0001 1.0001 0 0 0 4.1914062 19.945312 C 4.5975091 21.168894 5.7499932 22.000333 7.0390625 22 L 16.960938 22 C 18.250007 22.000333 19.402494 21.168888 19.808594 19.945312 A 1.0001 1.0001 0 0 0 19.810547 19.941406 L 22.849609 10.683594 L 22.849609 10.681641 C 23.257874 9.4426623 22.812501 8.0712539 21.753906 7.3085938 A 1.0001 1.0001 0 0 0 21.753906 7.3066406 L 13.755859 1.5683594 C 13.233459 1.1915506 12.6163 1.0039062 12 1.0039062 z M 12 3 C 12.204863 3 12.409725 3.0643038 12.585938 3.1914062 A 1.0001 1.0001 0 0 0 12.587891 3.1933594 L 20.585938 8.9316406 C 20.943413 9.1891815 21.089356 9.6382858 20.951172 10.056641 A 1.0001 1.0001 0 0 0 20.949219 10.058594 L 17.910156 19.314453 C 17.773097 19.727367 17.396047 20.000395 16.960938 20 L 7.0390625 20 C 6.6039539 20.000395 6.2269028 19.727411 6.0898438 19.314453 L 3.0507812 10.058594 A 1.0001 1.0001 0 0 0 3.0488281 10.056641 C 2.9106411 9.6383328 3.0565882 9.1891815 3.4140625 8.9316406 L 11.412109 3.1933594 A 1.0001 1.0001 0 0 0 11.414062 3.1914062 C 11.590274 3.0643038 11.795137 3 12 3 z "/>
</svg>
