<?xml version="1.0" encoding="UTF-8" standalone="no"?>
<svg xmlns="http://www.w3.org/2000/svg" xmlns:svg="http://www.w3.org/2000/svg" width="24" height="24" viewBox="0 0 24 24" fill="currentColor" tags="percentage,modulo,modulus,remainder,%,sale,discount,offer,marketing" categories="math,development,finance,shopping">
  <path d="M 6.5 3 C 4.578848 3 3 4.578848 3 6.5 C 3 8.421152 4.578848 10 6.5 10 C 8.421152 10 10 8.421152 10 6.5 C 10 4.578848 8.421152 3 6.5 3 z M 19 4 A 1 1 0 0 0 18.292969 4.2929688 L 4.2929688 18.292969 A 1 1 0 0 0 4.2929688 19.707031 A 1 1 0 0 0 5.7070312 19.707031 L 19.707031 5.7070312 A 1 1 0 0 0 19.707031 4.2929688 A 1 1 0 0 0 19 4 z M 6.5 5 C 7.3402718 5 8 5.6597282 8 6.5 C 8 7.3402718 7.3402718 8 6.5 8 C 5.6597282 8 5 7.3402718 5 6.5 C 5 5.6597282 5.6597282 5 6.5 5 z M 17.5 14 C 15.578848 14 14 15.578848 14 17.5 C 14 19.421152 15.578848 21 17.5 21 C 19.421152 21 21 19.421152 21 17.5 C 21 15.578848 19.421152 14 17.5 14 z M 17.5 16 C 18.340272 16 19 16.659728 19 17.5 C 19 18.340272 18.340272 19 17.5 19 C 16.659728 19 16 18.340272 16 17.5 C 16 16.659728 16.659728 16 17.5 16 z "/>
</svg>
