<svg xmlns="http://www.w3.org/2000/svg" xmlns:svg="http://www.w3.org/2000/svg" width="24" height="24" viewBox="0 0 24 24" fill="currentColor" tags="people,human,accessibility,stick figure" categories="accessibility,people">
  <path d="M 12 3 C 10.907275 3 10 3.9072751 10 5 C 10 6.0927249 10.907275 7 12 7 C 13.092725 7 14 6.0927249 14 5 C 14 3.9072751 13.092725 3 12 3 z M 5.9296875 7.0019531 A 1 1 0 0 0 5.0507812 7.6835938 A 1 1 0 0 0 5.6835938 8.9492188 L 11 10.720703 L 11 13.763672 L 8.1054688 19.552734 A 1 1 0 0 0 8.5527344 20.894531 A 1 1 0 0 0 9.8945312 20.447266 L 12 16.236328 L 14.105469 20.447266 A 1 1 0 0 0 15.447266 20.894531 A 1 1 0 0 0 15.894531 19.552734 L 13 13.763672 L 13 10.720703 L 18.316406 8.9492188 A 1 1 0 0 0 18.949219 7.6835938 A 1 1 0 0 0 17.683594 7.0507812 L 12 8.9453125 L 6.3164062 7.0507812 A 1 1 0 0 0 5.9296875 7.0019531 z "/>
</svg>
