<svg xmlns="http://www.w3.org/2000/svg" xmlns:svg="http://www.w3.org/2000/svg" width="24" height="24" viewBox="0 0 24 24" fill="currentColor" tags="currency,peso,money,php" categories="finance">
  <path d="M 8 2 C 6.9072751 2 6 2.9072751 6 4 L 6 6 L 4 6 A 1 1 0 0 0 3 7 A 1 1 0 0 0 4 8 L 6 8 L 6 10 L 4 10 A 1 1 0 0 0 3 11 A 1 1 0 0 0 4 12 L 6 12 L 6 15 L 6 21 A 1 1 0 0 0 7 22 A 1 1 0 0 0 8 21 L 8 16 L 12 16 C 14.781821 16 17.194979 14.36115 18.322266 12 L 20 12 A 1 1 0 0 0 21 11 A 1 1 0 0 0 20 10 L 18.927734 10 C 18.974855 9.6732682 19 9.3393801 19 9 C 19 8.6606199 18.974855 8.3267318 18.927734 8 L 20 8 A 1 1 0 0 0 21 7 A 1 1 0 0 0 20 6 L 18.322266 6 C 17.194979 3.63885 14.781821 2 12 2 L 8 2 z M 8 4 L 12 4 C 13.645129 4 15.098072 4.783579 16.007812 6 L 8 6 L 8 4 z M 8 8 L 16.900391 8 C 16.965239 8.3228714 17 8.6572619 17 9 C 17 9.3427381 16.965239 9.6771286 16.900391 10 L 8 10 L 8 8 z M 8 12 L 16.007812 12 C 15.098072 13.216421 13.645129 14 12 14 L 8 14 L 8 12 z "/>
</svg>
