<?xml version="1.0" encoding="UTF-8" standalone="no"?>
<svg xmlns="http://www.w3.org/2000/svg" xmlns:svg="http://www.w3.org/2000/svg" width="24" height="24" viewBox="0 0 24 24" fill="currentColor" tags="call" categories="arrows,connectivity,devices,communication">
  <path d="M 4.109375 1 C 2.3625716 1.001645 0.96778685 2.5298161 1.125 4.2695312 A 1.0001 1.0001 0 0 0 1.125 4.2851562 C 1.4697641 7.5317267 2.5767198 10.65234 4.3515625 13.392578 L 4.3515625 13.394531 C 5.9650391 15.930988 8.1169995 18.081055 10.654297 19.693359 C 13.380719 21.459797 16.483176 22.563128 19.712891 22.914062 A 1.0001 1.0001 0 0 0 19.730469 22.916016 C 21.475913 23.07376 23.007114 21.668559 23 19.916016 L 23 16.945312 C 23.03758 15.430644 21.9202 14.112043 20.419922 13.900391 A 1.0001 1.0001 0 0 0 20.410156 13.898438 C 19.525489 13.781759 18.658332 13.565733 17.822266 13.253906 L 17.820312 13.253906 C 16.726743 12.843678 15.48683 13.10835 14.65625 13.929688 A 1.0001 1.0001 0 0 0 14.652344 13.933594 L 13.994141 14.591797 C 12.142939 13.413453 10.586507 11.857133 9.4082031 10.005859 L 10.066406 9.3476562 A 1.0001 1.0001 0 0 0 10.070312 9.34375 C 10.891649 8.5131702 11.156322 7.2732578 10.746094 6.1796875 L 10.746094 6.1777344 C 10.434274 5.3416689 10.21824 4.4745107 10.101562 3.5898438 A 1.0001 1.0001 0 0 0 10.099609 3.5800781 C 9.8899895 2.0966923 8.597671 0.98525589 7.0996094 1 L 4.109375 1 z M 18 1 A 1 1 0 0 0 17.292969 1.2929688 A 1 1 0 0 0 17.292969 2.7070312 L 19.585938 5 L 14 5 A 1 1 0 0 0 13 6 A 1 1 0 0 0 14 7 L 19.585938 7 L 17.292969 9.2929688 A 1 1 0 0 0 17.292969 10.707031 A 1 1 0 0 0 18.707031 10.707031 L 22.707031 6.7070312 A 1.0001 1.0001 0 0 0 22.865234 6.5 A 1 1 0 0 0 22.869141 6.4902344 A 1.0001 1.0001 0 0 0 22.960938 6.2714844 A 1 1 0 0 0 22.96875 6.2421875 A 1.0001 1.0001 0 0 0 23 6 A 1 1 0 0 0 22.994141 5.9023438 A 1.0001 1.0001 0 0 0 22.982422 5.8164062 A 1 1 0 0 0 22.980469 5.8046875 A 1.0001 1.0001 0 0 0 22.931641 5.6386719 A 1.0001 1.0001 0 0 0 22.894531 5.5546875 A 1 1 0 0 0 22.880859 5.5292969 A 1.0001 1.0001 0 0 0 22.876953 5.5214844 A 1 1 0 0 0 22.832031 5.4453125 A 1.0001 1.0001 0 0 0 22.824219 5.4355469 A 1 1 0 0 0 22.773438 5.3652344 A 1.0001 1.0001 0 0 0 22.738281 5.3261719 A 1 1 0 0 0 22.707031 5.2929688 L 18.707031 1.2929688 A 1 1 0 0 0 18 1 z M 4.109375 3 L 7.109375 3 A 1.0001 1.0001 0 0 0 7.1191406 3 C 7.6288071 2.99498 8.0478085 3.3547001 8.1191406 3.859375 L 8.1191406 3.8515625 C 8.2556207 4.8863972 8.5081297 5.900974 8.8730469 6.8789062 A 1.0001 1.0001 0 0 0 8.8730469 6.8828125 C 9.0112709 7.2505249 8.9246566 7.6581723 8.6484375 7.9375 L 7.3828125 9.203125 A 1.0001 1.0001 0 0 0 7.2207031 10.404297 C 8.7332023 13.064264 10.935736 15.266798 13.595703 16.779297 A 1.0001 1.0001 0 0 0 14.796875 16.617188 L 16.0625 15.351562 C 16.341828 15.075342 16.749471 14.988729 17.117188 15.126953 A 1.0001 1.0001 0 0 0 17.121094 15.126953 C 18.099026 15.49187 19.1136 15.744375 20.148438 15.880859 L 20.140625 15.880859 C 20.651472 15.952929 21.012797 16.378785 21 16.894531 A 1.0001 1.0001 0 0 0 21 16.919922 L 21 19.919922 A 1.0001 1.0001 0 0 0 21 19.923828 C 21.0024 20.527403 20.51459 20.973531 19.914062 20.921875 C 16.997471 20.602718 14.196172 19.608185 11.734375 18.011719 A 1.0001 1.0001 0 0 0 11.726562 18.005859 C 9.4342616 16.549294 7.4898154 14.606737 6.0332031 12.314453 A 1.0001 1.0001 0 0 0 6.0292969 12.306641 C 4.4264775 9.8324363 3.4300482 7.0152353 3.1171875 4.0839844 C 3.0669817 3.4872734 3.5097224 3.0016406 4.109375 3 z "/>
</svg>
