<svg xmlns="http://www.w3.org/2000/svg" xmlns:svg="http://www.w3.org/2000/svg" width="24" height="24" viewBox="0 0 24 24" fill="currentColor" tags="call" categories="arrows,connectivity,devices,communication">
  <path d="M 4 1 C 2.3549904 1 1 2.3549904 1 4 C 1 14.481566 9.5184344 23 20 23 C 21.64501 23 23 21.64501 23 20 L 23 17 C 23 15.35499 21.64501 14 20 14 L 17 14 C 16.059429 14 15.171746 14.442751 14.605469 15.193359 L 14.603516 15.195312 L 14.603516 15.197266 L 14.601562 15.197266 L 14.599609 15.197266 L 14.599609 15.199219 L 14.251953 15.654297 C 11.685108 14.38786 9.6051926 12.313967 8.3398438 9.7460938 L 8.8007812 9.4003906 C 9.555497 8.8343537 10 7.9433949 10 7 L 10 4 C 10 2.3549904 8.6450096 1 7 1 L 4 1 z M 18 1 A 1 1 0 0 0 17.292969 1.2929688 A 1 1 0 0 0 17.292969 2.7070312 L 19.585938 5 L 14 5 A 1 1 0 0 0 13 6 A 1 1 0 0 0 14 7 L 19.585938 7 L 17.292969 9.2929688 A 1 1 0 0 0 17.292969 10.707031 A 1 1 0 0 0 18.707031 10.707031 L 22.697266 6.7167969 A 1 1 0 0 0 22.707031 6.7070312 A 1.0001 1.0001 0 0 0 22.785156 6.6191406 A 1 1 0 0 0 22.792969 6.609375 A 1.0001 1.0001 0 0 0 22.861328 6.5078125 A 1 1 0 0 0 22.865234 6.5 A 1.0001 1.0001 0 0 0 22.921875 6.3886719 A 1 1 0 0 0 22.964844 6.2578125 A 1.0001 1.0001 0 0 0 22.964844 5.7421875 A 1 1 0 0 0 22.923828 5.6171875 A 1.0001 1.0001 0 0 0 22.921875 5.6113281 A 1 1 0 0 0 22.865234 5.5 A 1.0001 1.0001 0 0 0 22.861328 5.4921875 A 1 1 0 0 0 22.792969 5.390625 A 1.0001 1.0001 0 0 0 22.785156 5.3808594 A 1 1 0 0 0 22.707031 5.2929688 L 18.707031 1.2929688 A 1 1 0 0 0 18 1 z M 4 3 L 7 3 C 7.5641294 3 8 3.4358706 8 4 L 8 7 C 8 7.3156343 7.8521169 7.6114006 7.5996094 7.8007812 L 7.1328125 8.1503906 A 1.0001 1.0001 0 0 0 7.125 8.15625 C 6.3727922 8.7306067 6.1262932 9.7723368 6.5410156 10.623047 A 1.0001 1.0001 0 0 0 6.5429688 10.625 C 8.0072001 13.599 10.414793 16.004338 13.390625 17.464844 A 1 1 0 0 0 13.408203 17.458984 A 1 1 0 0 0 13.414062 17.476562 C 14.259764 17.864953 15.27612 17.61155 15.839844 16.871094 L 16.195312 16.40625 A 1.0001 1.0001 0 0 0 16.199219 16.400391 C 16.388567 16.147915 16.684366 16 17 16 L 20 16 C 20.564129 16 21 16.435871 21 17 L 21 20 C 21 20.564129 20.564129 21 20 21 C 10.599315 21 3 13.400685 3 4 C 3 3.4358706 3.4358706 3 4 3 z "/>
</svg>
