<?xml version="1.0" encoding="UTF-8" standalone="no"?>
<svg xmlns="http://www.w3.org/2000/svg" xmlns:svg="http://www.w3.org/2000/svg" width="24" height="24" viewBox="0 0 24 24" fill="currentColor" tags="call" categories="arrows,connectivity,devices,communication">
  <path d="M 4.109375 1 C 2.362575 1.001645 0.96778716 2.5298196 1.125 4.2695312 A 1.0001 1.0001 0 0 0 1.125 4.2851562 C 1.4697635 7.5317202 2.5767234 10.652345 4.3515625 13.392578 L 4.3515625 13.394531 C 5.9650359 15.930984 8.1170045 18.081059 10.654297 19.693359 C 13.380713 21.459794 16.483183 22.563129 19.712891 22.914062 A 1.0001 1.0001 0 0 0 19.730469 22.916016 C 21.475909 23.073759 23.007114 21.668555 23 19.916016 L 23 16.945312 C 23.03758 15.430648 21.920197 14.112042 20.419922 13.900391 A 1.0001 1.0001 0 0 0 20.410156 13.898438 C 19.525491 13.781759 18.65833 13.565732 17.822266 13.253906 L 17.820312 13.253906 C 16.726745 12.843679 15.486828 13.108352 14.65625 13.929688 A 1.0001 1.0001 0 0 0 14.652344 13.933594 L 13.994141 14.591797 C 12.142942 13.413456 10.586504 11.85713 9.4082031 10.005859 L 10.066406 9.3476562 A 1.0001 1.0001 0 0 0 10.070312 9.34375 C 10.891647 8.5131719 11.156321 7.2732556 10.746094 6.1796875 L 10.746094 6.1777344 C 10.434275 5.3416705 10.21824 4.4745089 10.101562 3.5898438 A 1.0001 1.0001 0 0 0 10.099609 3.5800781 C 9.88999 2.0966953 8.597668 0.98525591 7.0996094 1 L 4.109375 1 z M 16 1 A 1 1 0 0 0 15 2 L 15 8 A 1.0001 1.0001 0 0 0 16 9 L 22 9 A 1 1 0 0 0 23 8 A 1 1 0 0 0 22 7 L 18.414062 7 L 22.707031 2.7070312 A 1 1 0 0 0 22.707031 1.2929688 A 1 1 0 0 0 21.292969 1.2929688 L 17 5.5859375 L 17 2 A 1 1 0 0 0 16 1 z M 4.109375 3 L 7.109375 3 A 1.0001 1.0001 0 0 0 7.1191406 3 C 7.6288061 2.99498 8.0478087 3.3547011 8.1191406 3.859375 L 8.1191406 3.8515625 C 8.2556205 4.8863952 8.5081304 5.9009759 8.8730469 6.8789062 A 1.0001 1.0001 0 0 0 8.8730469 6.8828125 C 9.0112706 7.2505241 8.9246561 7.6581728 8.6484375 7.9375 L 7.3828125 9.203125 A 1.0001 1.0001 0 0 0 7.2207031 10.404297 C 8.7331993 13.064259 10.935741 15.2668 13.595703 16.779297 A 1.0001 1.0001 0 0 0 14.796875 16.617188 L 16.0625 15.351562 C 16.341827 15.075344 16.749473 14.988729 17.117188 15.126953 A 1.0001 1.0001 0 0 0 17.121094 15.126953 C 18.099024 15.49187 19.113603 15.744376 20.148438 15.880859 L 20.140625 15.880859 C 20.65147 15.952929 21.012797 16.378786 21 16.894531 A 1.0001 1.0001 0 0 0 21 16.919922 L 21 19.919922 A 1.0001 1.0001 0 0 0 21 19.923828 C 21.0024 20.527403 20.51459 20.973531 19.914062 20.921875 C 16.997476 20.602719 14.196167 19.608181 11.734375 18.011719 A 1.0001 1.0001 0 0 0 11.726562 18.005859 C 9.4342662 16.549298 7.4898125 14.606732 6.0332031 12.314453 A 1.0001 1.0001 0 0 0 6.0292969 12.306641 C 4.4264807 9.8324413 3.4300476 7.0152294 3.1171875 4.0839844 C 3.0669819 3.4872746 3.5097236 3.0016406 4.109375 3 z "/>
</svg>
