<?xml version="1.0" encoding="UTF-8" standalone="no"?>
<svg xmlns="http://www.w3.org/2000/svg" xmlns:svg="http://www.w3.org/2000/svg" width="24" height="24" viewBox="0 0 24 24" fill="currentColor" tags="call,mute" categories="connectivity,devices,communication">
  <path d="M 4.109375 1 C 2.3625716 1.001645 0.96778685 2.5298161 1.125 4.2695312 A 1.0001 1.0001 0 0 0 1.125 4.2871094 C 1.4762515 7.519738 2.5823329 10.625313 4.3515625 13.353516 A 1 1 0 0 0 5.734375 13.648438 A 1 1 0 0 0 6.0292969 12.265625 C 4.4328303 9.8038278 3.436344 7.0025299 3.1171875 4.0859375 C 3.0657833 3.4882815 3.5090317 3.0016425 4.109375 3 L 7.109375 3 A 1.0001 1.0001 0 0 0 7.1191406 3 C 7.6288071 2.99498 8.0478085 3.3547001 8.1191406 3.859375 L 8.1191406 3.8515625 C 8.2556207 4.8863972 8.5081297 5.900974 8.8730469 6.8789062 A 1.0001 1.0001 0 0 0 8.8730469 6.8828125 C 9.0112709 7.2505249 8.9246566 7.6581723 8.6484375 7.9375 L 7.3828125 9.203125 A 1 1 0 0 0 7.3828125 10.617188 A 1 1 0 0 0 8.796875 10.617188 L 10.066406 9.3476562 A 1.0001 1.0001 0 0 0 10.070312 9.34375 C 10.891649 8.5131702 11.156322 7.2732578 10.746094 6.1796875 L 10.746094 6.1777344 C 10.434274 5.3416689 10.21824 4.4745107 10.101562 3.5898438 A 1.0001 1.0001 0 0 0 10.099609 3.5800781 C 9.8899895 2.0966923 8.597671 0.98525589 7.0996094 1 L 4.109375 1 z M 22 1 A 1 1 0 0 0 21.292969 1.2929688 L 10.001953 12.583984 A 1 1 0 0 0 9.9726562 12.603516 A 1 1 0 0 0 9.953125 12.632812 L 1.2929688 21.292969 A 1 1 0 0 0 1.2929688 22.707031 A 1 1 0 0 0 2.7070312 22.707031 L 7.8730469 17.541016 C 8.7354515 18.323567 9.6626078 19.032827 10.646484 19.658203 L 10.648438 19.658203 C 13.376283 21.426873 16.480847 22.533578 19.712891 22.884766 A 1.0001 1.0001 0 0 0 19.730469 22.886719 C 21.475913 23.044463 23.007114 21.639262 23 19.886719 L 23 16.900391 C 23.01474 15.402329 21.903312 14.110057 20.419922 13.900391 A 1.0001 1.0001 0 0 0 20.410156 13.898438 C 19.525489 13.781759 18.658332 13.565733 17.822266 13.253906 L 17.820312 13.253906 C 16.726743 12.843678 15.48683 13.10835 14.65625 13.929688 A 1.0001 1.0001 0 0 0 14.652344 13.933594 L 13.994141 14.591797 C 13.353278 14.184054 12.724495 13.755894 12.138672 13.275391 L 22.707031 2.7070312 A 1 1 0 0 0 22.707031 1.2929688 A 1 1 0 0 0 22 1 z M 10.707031 14.707031 C 11.594676 15.495735 12.561744 16.191374 13.595703 16.779297 A 1.0001 1.0001 0 0 0 14.796875 16.617188 L 16.0625 15.351562 C 16.341828 15.075342 16.749471 14.988729 17.117188 15.126953 A 1.0001 1.0001 0 0 0 17.121094 15.126953 C 18.099026 15.49187 19.1136 15.744375 20.148438 15.880859 L 20.140625 15.880859 C 20.6453 15.952189 21.005016 16.371193 21 16.880859 A 1.0001 1.0001 0 0 0 21 16.890625 L 21 19.890625 A 1.0001 1.0001 0 0 0 21 19.894531 C 21.0024 20.498107 20.514591 20.944235 19.914062 20.892578 C 16.997471 20.573421 14.196172 19.576935 11.734375 17.980469 A 1.0001 1.0001 0 0 0 11.726562 17.976562 C 10.863305 17.428418 10.048687 16.80792 9.2890625 16.125 L 10.707031 14.707031 z "/>
</svg>
