<?xml version="1.0" encoding="UTF-8" standalone="no"?>
<svg xmlns="http://www.w3.org/2000/svg" xmlns:svg="http://www.w3.org/2000/svg" width="24" height="24" viewBox="0 0 24 24" fill="currentColor" tags="music,audio,sound,noise,notes,chord,keys,octave,acoustic,instrument,play,pianist,performance,concert" categories="multimedia,devices">
  
  <path d="M 9.1152344 0.45898438 C 8.4380172 0.43989075 7.7605553 0.50457987 7.1054688 0.65234375 C 3.6254484 1.4373108 0.58850586 4.57532 1 9.0449219 L 1 20 C 1 21.645006 2.3549936 23 4 23 L 20 23 C 21.645006 23 23 21.645006 23 20 L 23 11.5 C 23 9.1759059 21.163479 7.2900816 18.888672 7.0800781 A 1 1 0 0 0 18.5 7 C 17.484938 7 16.643579 6.4385615 16.201172 5.5625 C 15.033551 2.439152 12.463878 0.80383517 9.7910156 0.50585938 C 9.5659091 0.48076407 9.3409734 0.46534892 9.1152344 0.45898438 z M 9.0625 2.4375 C 9.2312861 2.4386848 9.3990907 2.4460056 9.5664062 2.4609375 C 11.574193 2.6401207 13.451675 3.8224334 14.359375 6.3398438 A 1.0001 1.0001 0 0 0 14.40625 6.4472656 C 15.165263 7.9652812 16.719051 9 18.5 9 C 19.838594 9 21 10.161406 21 11.5 L 21 13 L 18 13 L 3 13 L 3 9 A 1.0001 1.0001 0 0 0 2.9960938 8.9023438 C 2.6482531 5.3512649 4.8774257 3.2052065 7.5449219 2.6035156 C 8.0450774 2.4906986 8.5561417 2.4339455 9.0625 2.4375 z M 3 15 L 5 15 L 5 18 A 1 1 0 0 0 6 19 A 1 1 0 0 0 7 18 L 7 15 L 9 15 L 9 18 A 1 1 0 0 0 10 19 A 1 1 0 0 0 11 18 L 11 15 L 13 15 L 13 18 A 1 1 0 0 0 14 19 A 1 1 0 0 0 15 18 L 15 15 L 17 15 L 17 18 A 1 1 0 0 0 18 19 A 1 1 0 0 0 19 18 L 19 15 L 21 15 L 21 20 C 21 20.564128 20.564128 21 20 21 L 4 21 C 3.4358718 21 3 20.564128 3 20 L 3 15 z "/>
</svg>
