<svg xmlns="http://www.w3.org/2000/svg" xmlns:svg="http://www.w3.org/2000/svg" width="24" height="24" viewBox="0 0 24 24" fill="currentColor" tags="music,audio,sound,noise,notes,chord,keys,octave,acoustic,instrument,play,pianist,performance,concert" categories="multimedia,devices">
  <path d="M 9.1152344 0.45898438 C 8.4380166 0.43989066 7.7605566 0.50457957 7.1054688 0.65234375 C 3.6222456 1.4380332 0.58178297 4.5804774 1 9.0566406 L 1 20 C 1 21.64501 2.3549904 23 4 23 L 20 23 C 21.64501 23 23 21.64501 23 20 L 23 11.5 C 23 9.0385965 20.961404 7 18.5 7 C 17.496238 7 16.661097 6.4511348 16.214844 5.5917969 C 15.052895 2.4474792 12.473046 0.80485728 9.7910156 0.50585938 C 9.5659087 0.48076402 9.3409736 0.46534895 9.1152344 0.45898438 z M 9.0625 2.4375 C 9.2312863 2.4386848 9.3990904 2.4460055 9.5664062 2.4609375 C 11.574197 2.6401211 13.451673 3.8224284 14.359375 6.3398438 A 1.0001 1.0001 0 0 0 14.40625 6.4472656 C 15.165264 7.9652842 16.719048 9 18.5 9 C 19.838596 9 21 10.161404 21 11.5 L 21 13 L 18 13 L 3 13 L 3 9 A 1.0001 1.0001 0 0 0 2.9960938 8.9023438 C 2.6482524 5.3512579 4.8774204 3.2052077 7.5449219 2.6035156 C 8.0450783 2.4906984 8.5561412 2.4339455 9.0625 2.4375 z M 3 15 L 5 15 L 5 18 A 1 1 0 0 0 6 19 A 1 1 0 0 0 7 18 L 7 15 L 9 15 L 9 18 A 1 1 0 0 0 10 19 A 1 1 0 0 0 11 18 L 11 15 L 13 15 L 13 18 A 1 1 0 0 0 14 19 A 1 1 0 0 0 15 18 L 15 15 L 17 15 L 17 18 A 1 1 0 0 0 18 19 A 1 1 0 0 0 19 18 L 19 15 L 21 15 L 21 20 C 21 20.564129 20.564129 21 20 21 L 4 21 C 3.4358706 21 3 20.564129 3 20 L 3 15 z "/>
</svg>
