<?xml version="1.0" encoding="UTF-8" standalone="no"?>
<svg xmlns="http://www.w3.org/2000/svg" xmlns:svg="http://www.w3.org/2000/svg" width="24" height="24" viewBox="0 0 24 24" fill="currentColor" tags="mining,mine,land worker,extraction,labor,construction,progress,advancement,crafting,building,creation" categories="tools,gaming">
  <path d="M 8.46875 1.0078125 C 7.5298587 1.0433823 6.5906783 1.1749905 5.6640625 1.4023438 C 5.1079597 1.5383862 4.6152744 1.8689123 4.3242188 2.3164062 C 4.0331632 2.7639 3.9485541 3.2870687 4.0117188 3.765625 C 4.1380481 4.7227377 4.8265409 5.5877703 5.8710938 5.9257812 C 7.4985351 6.4533138 9.0447518 7.1990462 10.46875 8.140625 C 10.1429 8.5576655 9.9884017 9.070346 10.005859 9.578125 L 1.9101562 17.671875 A 1.0001 1.0001 0 0 0 1.9101562 17.673828 C 1.2334092 18.350801 0.91530163 19.226487 0.96289062 20.033203 C 1.0104796 20.83992 1.3798234 21.555782 1.9121094 22.087891 C 2.4443953 22.619999 3.1600645 22.987836 3.9667969 23.035156 C 4.7735292 23.082476 5.6494248 22.764863 6.3261719 22.087891 L 14.419922 13.994141 C 14.927802 14.012032 15.442043 13.856822 15.859375 13.53125 C 16.80133 14.955581 17.546922 16.503116 18.074219 18.130859 C 18.41288 19.175066 19.27531 19.863529 20.232422 19.990234 C 20.710978 20.053584 21.235887 19.968544 21.683594 19.677734 C 22.131301 19.386928 22.463182 18.895895 22.599609 18.339844 C 23.445246 14.895076 22.948979 11.265647 21.230469 8.1835938 L 21.355469 8.0585938 C 22.208049 7.2058865 22.208049 5.7941136 21.355469 4.9414062 L 19.058594 2.6445312 C 18.63224 2.2182412 18.06635 2.0058594 17.5 2.0058594 C 16.93365 2.0058594 16.36776 2.2182412 15.941406 2.6445312 L 15.816406 2.7695312 C 13.564596 1.5142826 11.019666 0.91117144 8.46875 1.0078125 z M 9.2832031 3.0019531 C 11.030938 3.0432815 12.756647 3.4659052 14.335938 4.25 L 11.894531 6.6914062 C 10.231772 5.546384 8.4118975 4.6469746 6.4882812 4.0234375 A 1.0001 1.0001 0 0 0 6.4863281 4.0234375 C 6.161878 3.9184484 6.0135613 3.6510435 5.9941406 3.5039062 C 5.9856444 3.4395334 5.9977898 3.4133195 6.0019531 3.40625 L 6.0019531 3.4042969 L 6.0039062 3.4023438 L 6.0039062 3.4003906 C 6.0043428 3.3995729 6.007101 3.3954924 6.0078125 3.3945312 C 6.0184647 3.3835383 6.0493601 3.3655987 6.1386719 3.34375 A 1.0001 1.0001 0 0 0 6.140625 3.34375 C 7.177924 3.0892399 8.2345622 2.9771561 9.2832031 3.0019531 z M 17.5 3.9921875 C 17.550158 3.9921875 17.600318 4.0143867 17.644531 4.0585938 L 19.941406 6.3554688 C 20.029816 6.4438958 20.029816 6.5561041 19.941406 6.6445312 L 15.310547 11.275391 A 1 1 0 0 0 15.277344 11.308594 L 14.644531 11.941406 C 14.556101 12.029816 14.443896 12.029816 14.355469 11.941406 L 12.058594 9.6445312 C 11.970184 9.5561043 11.970184 9.4438959 12.058594 9.3554688 L 12.699219 8.7148438 A 1 1 0 0 0 12.71875 8.6953125 L 17.355469 4.0585938 C 17.399684 4.0143867 17.449842 3.9921875 17.5 3.9921875 z M 19.75 9.6640625 C 21.00563 12.192471 21.335478 15.096392 20.65625 17.863281 C 20.629948 17.970493 20.607456 17.994216 20.597656 18 L 20.595703 18.001953 L 20.59375 18.001953 L 20.591797 18.003906 C 20.584741 18.007722 20.560686 18.016326 20.496094 18.007812 C 20.348455 17.988273 20.081902 17.838465 19.976562 17.513672 C 19.353201 15.589945 18.453604 13.768682 17.308594 12.105469 L 19.75 9.6640625 z M 11 11.414062 L 12.585938 13 L 4.9121094 20.671875 A 1.0001 1.0001 0 0 0 4.9121094 20.673828 C 4.5888569 20.997094 4.3399393 21.054076 4.0839844 21.039062 C 3.8280294 21.02405 3.5441359 20.89172 3.3261719 20.673828 C 3.1082078 20.455937 2.9760362 20.171966 2.9609375 19.916016 C 2.9458385 19.660066 3.0029195 19.411251 3.3261719 19.087891 L 11 11.414062 z "/>
</svg>
