<?xml version="1.0" encoding="UTF-8" standalone="no"?>
<svg xmlns="http://www.w3.org/2000/svg" xmlns:svg="http://www.w3.org/2000/svg" width="24" height="24" viewBox="0 0 24 24" fill="currentColor" tags="mining,mine,land worker,extraction,labor,construction,progress,advancement,crafting,building,creation" categories="tools,maps,gaming">
  <path d="M 9.0742188 1.4238281 C 8.7172251 1.4238864 8.3589426 1.4383323 8.0019531 1.4667969 C 7.0499813 1.5427025 6.1017869 1.7190164 5.171875 2 A 1.0001 1.0001 0 0 0 4.9238281 2.1152344 C 3.6334464 2.9367114 3.7724983 4.9796952 5.1621094 5.6191406 A 1.0001 1.0001 0 0 0 5.2558594 5.65625 C 7.134532 6.2978931 8.9108078 7.2011814 10.533203 8.3398438 C 10.442502 8.6036914 10.406265 8.8820582 10.427734 9.1582031 L 2.9121094 16.673828 C 2.2353342 17.350603 1.9173946 18.226569 1.9648438 19.033203 C 2.0122927 19.839837 2.3799756 20.555756 2.9121094 21.087891 C 3.444243 21.620024 4.1601626 21.987707 4.9667969 22.035156 C 5.7734312 22.082606 6.6493967 21.764666 7.3261719 21.087891 L 14.841797 13.572266 C 15.117942 13.593735 15.396309 13.557498 15.660156 13.466797 C 16.798441 15.088903 17.702363 16.863735 18.34375 18.742188 A 1.0001 1.0001 0 0 0 18.382812 18.839844 C 19.022971 20.227337 21.062769 20.364296 21.884766 19.076172 A 1.0001 1.0001 0 0 0 22 18.828125 C 23.046404 15.364613 22.654935 11.63628 20.9375 8.4765625 L 21.007812 8.40625 A 1.0001 1.0001 0 0 0 21.013672 8.4003906 C 21.76817 7.6306487 21.76817 6.3693513 21.013672 5.5996094 A 1.0001 1.0001 0 0 0 21.007812 5.59375 L 18.40625 2.9921875 A 1.0001 1.0001 0 0 0 18.400391 2.9863281 C 18.01556 2.6090797 17.507563 2.4199219 17 2.4199219 C 16.492437 2.4199219 15.984481 2.6090791 15.599609 2.9863281 A 1.0001 1.0001 0 0 0 15.59375 2.9921875 L 15.521484 3.0644531 C 13.528392 1.981427 11.310615 1.4234628 9.0742188 1.4238281 z M 9.015625 3.4492188 C 10.743677 3.4316828 12.460382 3.8022303 14.035156 4.5507812 L 11.798828 6.7871094 C 10.048116 5.5458374 8.1265773 4.563207 6.0996094 3.8496094 C 7.0594882 3.5919436 8.0390576 3.4591288 9.015625 3.4492188 z M 5.9023438 3.7636719 L 5.9980469 3.8007812 L 5.9921875 3.8027344 C 5.9612382 3.7920193 5.9333447 3.77426 5.9023438 3.7636719 z M 17 4.4140625 L 19.585938 7 L 15 11.585938 L 12.414062 9 L 17 4.4140625 z M 19.449219 9.9648438 C 20.620159 12.428504 20.862687 15.239005 20.150391 17.896484 C 19.437097 15.871049 18.453368 13.950966 17.212891 12.201172 L 19.449219 9.9648438 z M 11.5 10.914062 L 13.085938 12.5 L 5.9121094 19.671875 A 1.0001 1.0001 0 0 0 5.9121094 19.673828 C 5.588887 19.997004 5.3398477 20.05216 5.0839844 20.037109 C 4.828121 20.022059 4.5440367 19.891693 4.3261719 19.673828 C 4.1083071 19.455963 3.9759884 19.169926 3.9609375 18.914062 C 3.9458866 18.6582 4.0029495 18.411112 4.3261719 18.087891 L 11.5 10.914062 z M 20.199219 18.001953 L 20.238281 18.097656 C 20.227421 18.065846 20.208266 18.037619 20.197266 18.005859 L 20.199219 18.001953 z "/>
</svg>
