<?xml version="1.0" encoding="UTF-8" standalone="no"?>
<svg xmlns="http://www.w3.org/2000/svg" xmlns:svg="http://www.w3.org/2000/svg" width="24" height="24" viewBox="0 0 24 24" fill="currentColor" tags="mining,mine,land worker,extraction,labor,construction,progress,advancement,crafting,building,creation" categories="tools,gaming">
  <path d="M 9.9472656 1.453125 C 9.301107 1.4114017 8.6503991 1.4150929 8.0019531 1.4667969 C 7.0499793 1.5427027 6.1017887 1.7190158 5.171875 2 A 1.0001 1.0001 0 0 0 4.9238281 2.1152344 C 3.6334438 2.936713 3.7724955 4.9796938 5.1621094 5.6191406 A 1.0001 1.0001 0 0 0 5.2558594 5.65625 C 7.1332751 6.2974638 8.9097339 7.2003055 10.53125 8.3378906 C 10.440311 8.6021027 10.404215 8.8836034 10.425781 9.1601562 L 2.9121094 16.673828 C 2.2353328 17.350605 1.9173944 18.226567 1.9648438 19.033203 C 2.0122927 19.839839 2.3799746 20.555756 2.9121094 21.087891 C 3.4442441 21.620025 4.160161 21.987707 4.9667969 22.035156 C 5.7734328 22.082606 6.6493953 21.764667 7.3261719 21.087891 L 14.839844 13.574219 C 15.116799 13.595827 15.397557 13.559975 15.662109 13.46875 C 16.79924 15.089912 17.702823 16.865081 18.34375 18.742188 A 1.0001 1.0001 0 0 0 18.382812 18.839844 C 19.022972 20.22734 21.062768 20.364298 21.884766 19.076172 A 1.0001 1.0001 0 0 0 22 18.828125 C 23.046426 15.364538 22.655023 11.636324 20.9375 8.4765625 L 21.007812 8.40625 A 1.0001 1.0001 0 0 0 21.013672 8.4003906 C 21.768171 7.6306471 21.768171 6.3693529 21.013672 5.5996094 A 1.0001 1.0001 0 0 0 21.007812 5.59375 L 18.40625 2.9921875 A 1.0001 1.0001 0 0 0 18.400391 2.9863281 C 18.01556 2.609079 17.507564 2.4199219 17 2.4199219 C 16.492436 2.4199219 15.984481 2.6090784 15.599609 2.9863281 A 1.0001 1.0001 0 0 0 15.59375 2.9921875 L 15.523438 3.0625 C 13.789792 2.1202422 11.885741 1.5782948 9.9472656 1.453125 z M 9.1289062 3.4472656 C 10.818989 3.4466335 12.49651 3.8163388 14.037109 4.5488281 L 11.798828 6.7871094 C 10.047936 5.5456144 8.1268361 4.5632982 6.0996094 3.8496094 C 7.0966444 3.5819696 8.1148568 3.4476449 9.1289062 3.4472656 z M 5.9199219 3.7714844 L 5.9980469 3.8007812 L 5.9921875 3.8027344 C 5.9673246 3.7941265 5.9440358 3.7818136 5.9199219 3.7714844 z M 17 4.4140625 L 19.585938 7 L 18.957031 7.6308594 L 15.228516 11.357422 A 1 1 0 0 0 15.154297 11.431641 L 15 11.585938 L 12.414062 9 L 17 4.4140625 z M 19.451172 9.9628906 C 20.622299 12.426662 20.862732 15.238837 20.150391 17.896484 C 19.437032 15.870862 18.455482 13.949141 17.214844 12.199219 L 19.451172 9.9628906 z M 11.5 10.914062 L 13.085938 12.5 L 5.9121094 19.671875 A 1.0001 1.0001 0 0 0 5.9121094 19.673828 C 5.5888864 19.997004 5.3398482 20.05216 5.0839844 20.037109 C 4.8281205 20.022059 4.5440371 19.891693 4.3261719 19.673828 C 4.1083066 19.455963 3.9759884 19.169926 3.9609375 18.914062 C 3.9458866 18.658199 4.0029489 18.411114 4.3261719 18.087891 L 11.5 10.914062 z M 20.199219 18.001953 L 20.226562 18.066406 C 20.216744 18.045938 20.204711 18.027357 20.197266 18.005859 L 20.199219 18.001953 z "/>
</svg>
