<?xml version="1.0" encoding="UTF-8" standalone="no"?>
<svg xmlns="http://www.w3.org/2000/svg" xmlns:svg="http://www.w3.org/2000/svg" width="24" height="24" viewBox="0 0 24 24" fill="currentColor" tags="display,play,video,pop out,always on top,window,inset,multitask" categories="multimedia">
  <path d="M 2 3 A 1 1 0 0 0 1.2929688 3.2929688 A 1 1 0 0 0 1.2929688 4.7070312 L 5.5859375 9 L 2 9 A 1 1 0 0 0 1 10 A 1 1 0 0 0 2 11 L 8 11 A 1.0001 1.0001 0 0 0 8.3828125 10.923828 A 1 1 0 0 0 8.7070312 10.707031 A 1 1 0 0 0 8.7929688 10.609375 A 1.0001 1.0001 0 0 0 9 10 L 9 4 A 1 1 0 0 0 8 3 A 1 1 0 0 0 7 4 L 7 7.5859375 L 2.7070312 3.2929688 A 1 1 0 0 0 2 3 z M 12 4 A 1 1 0 0 0 11 5 A 1 1 0 0 0 12 6 L 19 6 C 19.564129 6 20 6.4358706 20 7 L 20 10 A 1 1 0 0 0 21 11 A 1 1 0 0 0 22 10 L 22 7 C 22 5.3549904 20.64501 4 19 4 L 12 4 z M 3 13 A 1 1 0 0 0 2 14 L 2 16 C 2 17.64501 3.3549904 19 5 19 L 8 19 A 1 1 0 0 0 9 18 A 1 1 0 0 0 8 17 L 5 17 C 4.4358706 17 4 16.564129 4 16 L 4 14 A 1 1 0 0 0 3 13 z M 13 13 C 11.909297 13 11 13.909297 11 15 L 11 20 C 11 21.090703 11.909297 22 13 22 L 21 22 C 22.090703 22 23 21.090703 23 20 L 23 15 C 23 13.909297 22.090703 13 21 13 L 13 13 z M 13 15 L 21 15 L 21 20 L 13 20 L 13 15 z "/>
</svg>
