<?xml version="1.0" encoding="UTF-8" standalone="no"?>
<svg xmlns="http://www.w3.org/2000/svg" xmlns:svg="http://www.w3.org/2000/svg" width="24" height="24" viewBox="0 0 24 24" fill="currentColor" tags="display,play,video,pop out,always on top,window,inset,multitask" categories="multimedia">
  <path d="M 4 3 C 2.3549904 3 1 4.3549904 1 6 L 1 16 C 1 17.645455 2.3545455 19 4 19 L 8 19 A 1 1 0 0 0 9 18 A 1 1 0 0 0 8 17 L 4 17 C 3.4454545 17 3 16.554545 3 16 L 3 6 C 3 5.4358706 3.4358706 5 4 5 L 19 5 C 19.564129 5 20 5.4358706 20 6 L 20 9 A 1 1 0 0 0 21 10 A 1 1 0 0 0 22 9 L 22 6 C 22 4.3549904 20.64501 3 19 3 L 4 3 z M 14 12 C 12.355297 12 11 13.355297 11 15 L 11 18 C 11 19.644703 12.355297 21 14 21 L 20 21 C 21.644703 21 23 19.644703 23 18 L 23 15 C 23 13.355297 21.644703 12 20 12 L 14 12 z M 14 14 L 20 14 C 20.571297 14 21 14.428703 21 15 L 21 18 C 21 18.571297 20.571297 19 20 19 L 14 19 C 13.428703 19 13 18.571297 13 18 L 13 15 C 13 14.428703 13.428703 14 14 14 z "/>
</svg>
