<?xml version="1.0" encoding="UTF-8" standalone="no"?>
<svg xmlns="http://www.w3.org/2000/svg" xmlns:svg="http://www.w3.org/2000/svg" width="24" height="24" viewBox="0 0 24 24" fill="currentColor" tags="display,play,video,pop out,always on top,window,inset,multitask" categories="multimedia">
  <path d="M 2 2.5 A 1 1 0 0 0 1.2929688 2.7929688 A 1 1 0 0 0 1.2929688 4.2070312 L 5.5859375 8.5 L 3 8.5 A 1 1 0 0 0 2 9.5 A 1 1 0 0 0 3 10.5 L 8 10.5 A 1 1 0 0 0 8.7070312 10.207031 A 1 1 0 0 0 8.9667969 9.5332031 A 1.0001 1.0001 0 0 0 9 9.5 L 9 4.5 A 1 1 0 0 0 8 3.5 A 1 1 0 0 0 7 4.5 L 7 7.0859375 L 2.7070312 2.7929688 A 1 1 0 0 0 2 2.5 z M 12 3.5 A 1 1 0 0 0 11 4.5 A 1 1 0 0 0 12 5.5 L 19 5.5 C 19.67724 5.5 20 5.82276 20 6.5 L 20 9.5 A 1 1 0 0 0 21 10.5 A 1 1 0 0 0 22 9.5 L 22 6.5 C 22 4.8572446 20.642755 3.5 19 3.5 L 12 3.5 z M 3 12.5 A 1 1 0 0 0 2 13.5 L 2 15.5 C 2 17.153171 3.3468288 18.5 5 18.5 L 8 18.5 A 1 1 0 0 0 9 17.5 A 1 1 0 0 0 8 16.5 L 5 16.5 C 4.5531754 16.5 4 15.946825 4 15.5 L 4 13.5 A 1 1 0 0 0 3 12.5 z M 14 12.5 C 12.355301 12.5 11 13.855301 11 15.5 L 11 18.5 C 11 20.144699 12.355301 21.5 14 21.5 L 20 21.5 C 21.644699 21.5 23 20.144699 23 18.5 L 23 15.5 C 23 13.855301 21.644699 12.5 20 12.5 L 14 12.5 z M 14 14.5 L 20 14.5 C 20.571296 14.5 21 14.928704 21 15.5 L 21 18.5 C 21 19.071296 20.571296 19.5 20 19.5 L 14 19.5 C 13.428704 19.5 13 19.071296 13 18.5 L 13 15.5 C 13 14.928704 13.428704 14.5 14 14.5 z "/>
</svg>
