<?xml version="1.0" encoding="UTF-8" standalone="no"?>
<svg xmlns="http://www.w3.org/2000/svg" xmlns:svg="http://www.w3.org/2000/svg" width="24" height="24" viewBox="0 0 24 24" fill="currentColor" tags="statistics,diagram,presentation" categories="charts,files">
  <path d="M 12 1 A 1.0001 1.0001 0 0 0 11 2 L 11 12 A 1.0001 1.0001 0 0 0 12 13 L 22 13 A 1.0001 1.0001 0 0 0 23 12 C 23 5.9367246 18.063276 1 12 1 z M 7.9804688 1.8300781 A 1 1 0 0 0 7.5996094 1.9140625 C 0.50199914 5.011342 -1.2413181 14.373948 4.265625 19.818359 C 9.7725681 25.262771 19.114833 23.411814 22.130859 16.279297 A 1 1 0 0 0 21.599609 14.96875 A 1 1 0 0 0 20.289062 15.5 C 17.797273 21.392766 10.221613 22.892608 5.671875 18.394531 C 1.1221362 13.896455 2.5364639 6.3050142 8.4003906 3.7460938 A 1 1 0 0 0 8.9160156 2.4296875 A 1 1 0 0 0 8.3652344 1.8984375 A 1 1 0 0 0 7.9804688 1.8300781 z M 13 3.2011719 C 17.140968 3.6789243 20.321076 6.8590325 20.798828 11 L 13 11 L 13 3.2011719 z "/>
</svg>
