<?xml version="1.0" encoding="UTF-8" standalone="no"?>
<svg xmlns="http://www.w3.org/2000/svg" xmlns:svg="http://www.w3.org/2000/svg" width="24" height="24" viewBox="0 0 24 24" fill="currentColor" tags="money,savings" categories="finance">
  <path d="M 19 4 C 17.938889 4 17.051895 4.4689138 16.392578 4.9902344 C 16.024707 5.281109 15.880489 5.6267677 15.644531 5.9355469 C 13.64413 5.2975101 11.158865 5.2345861 8.8691406 6.0019531 C 7.5904332 6.4304929 6.3918928 7.1025547 5.4863281 8.0996094 C 4.7808867 8.8763221 4.2742089 9.8641059 4.0839844 11 L 4 11 C 3.4454545 11 3 10.554545 3 10 L 3 9 A 1 1 0 0 0 2 8 A 1 1 0 0 0 1 9 L 1 10 C 1 11.645455 2.3545455 13 4 13 L 4.0175781 13 C 4.0410216 13.558528 4.1043179 14.116739 4.3066406 14.693359 C 4.5810561 15.475444 5.1707631 16.209557 6 16.921875 L 6 20 A 1.0001 1.0001 0 0 0 7 21 L 11 21 A 1.0001 1.0001 0 0 0 12 20 L 12 19 L 13 19 L 13 20 A 1.0001 1.0001 0 0 0 14 21 L 18 21 A 1.0001 1.0001 0 0 0 19 20 L 19 16.525391 C 19.617672 16.153636 20.121447 15.644031 20.509766 15 L 22 15 A 1.0001 1.0001 0 0 0 23 14 L 23 10 A 1.0001 1.0001 0 0 0 22 9 L 20.724609 9 C 20.526332 8.4414157 20.298565 7.9905794 20 7.6582031 L 20 5 A 1.0001 1.0001 0 0 0 19 4 z M 18 6.4082031 L 18 8 A 1.0001 1.0001 0 0 0 18.292969 8.7070312 C 18.792969 9.2070312 19 9.3333333 19 10 A 1.0001 1.0001 0 0 0 20 11 L 21 11 L 21 13 L 20 13 A 1.0001 1.0001 0 0 0 19.042969 13.712891 C 18.83963 14.390686 18.48118 14.641246 17.552734 15.105469 A 1.0001 1.0001 0 0 0 17 16 L 17 19 L 15 19 L 15 18 A 1.0001 1.0001 0 0 0 14 17 L 11 17 A 1.0001 1.0001 0 0 0 10 18 L 10 19 L 8 19 L 8 16.5 A 1.0001 1.0001 0 0 0 7.5996094 15.699219 C 6.7020094 15.026019 6.3707723 14.536877 6.1933594 14.03125 C 6.0159464 13.525623 6 12.9 6 12 C 6 10.910849 6.3567365 10.115055 6.9667969 9.4433594 C 7.5768572 8.771664 8.4720668 8.2448977 9.5058594 7.8984375 C 11.573444 7.2055171 14.181924 7.3098311 15.605469 7.9199219 A 1.0001 1.0001 0 0 0 16.949219 7.3164062 C 16.917457 7.411691 17.21713 6.8872732 17.632812 6.5585938 C 17.744492 6.4702888 17.877628 6.4797935 18 6.4082031 z M 16 10 A 1 1 0 0 0 15 11 A 1 1 0 0 0 16 12 L 16.009766 12 A 1 1 0 0 0 17.009766 11 A 1 1 0 0 0 16.009766 10 L 16 10 z "/>
</svg>
