<svg xmlns="http://www.w3.org/2000/svg" xmlns:svg="http://www.w3.org/2000/svg" width="24" height="24" viewBox="0 0 24 24" fill="currentColor" tags="money,savings" categories="finance">
  <path d="M 18 2 C 16.427091 2 14.943746 2.7416724 14 4 L 11 4 C 7.4852315 4 4.5602657 6.6162229 4.0722656 10 L 4 10 C 3.4358706 10 3 9.5641294 3 9 L 3 8 A 1 1 0 0 0 2 7 A 1 1 0 0 0 1 8 L 1 9 C 1 10.64501 2.3549904 12 4 12 C 4 13.673638 4.78887 15.192167 6 16.320312 L 6 19 C 6 20.092725 6.9072751 21 8 21 L 10 21 C 11.092725 21 12 20.092725 12 19 L 12 18 L 13 18 L 13 19 C 13 20.092725 13.907275 21 15 21 L 17 21 C 18.092725 21 19 20.092725 19 19 L 19 16.527344 C 19.64836 16.157843 20.157843 15.64836 20.527344 15 L 21 15 C 22.092725 15 23 14.092725 23 13 L 23 11 C 23 9.9072751 22.092725 9 21 9 L 20.763672 9 C 20.537991 7.7193871 19.956589 6.5707326 19 5.6796875 L 19 3 A 1.0001 1.0001 0 0 0 18 2 z M 17 4.2363281 L 17 6 A 1.0001 1.0001 0 0 0 17.400391 6.8007812 C 18.408316 7.556725 19 8.7400937 19 10 A 1.0001 1.0001 0 0 0 20 11 L 21 11 L 21 13 L 20 13 A 1.0001 1.0001 0 0 0 19.050781 13.683594 C 18.835567 14.330013 18.330013 14.835567 17.683594 15.050781 A 1.0001 1.0001 0 0 0 17 16 L 17 19 L 15 19 L 15 17 A 1.0001 1.0001 0 0 0 14 16 L 11 16 A 1.0001 1.0001 0 0 0 10 17 L 10 19 L 8 19 L 8 16 A 1.0001 1.0001 0 0 0 7.5996094 15.199219 C 6.5916844 14.443275 6 13.259906 6 12 L 6 11 C 6 8.2267316 8.2267316 6 11 6 L 14.5 6 A 1.0001 1.0001 0 0 0 15.300781 5.5996094 L 15.599609 5.1992188 C 15.955357 4.7248885 16.45686 4.4324074 17 4.2363281 z M 16 9 A 1 1 0 0 0 15 10 A 1 1 0 0 0 16 11 L 16.009766 11 A 1 1 0 0 0 17.009766 10 A 1 1 0 0 0 16.009766 9 L 16 9 z "/>
</svg>
