<?xml version="1.0" encoding="UTF-8" standalone="no"?>
<svg xmlns="http://www.w3.org/2000/svg" xmlns:svg="http://www.w3.org/2000/svg" width="24" height="24" viewBox="0 0 24 24" fill="currentColor" tags="paragraph,mark,paraph,blind,typography,type,text,prose,symbol" categories="text">
  
  <path d="M 9.5 3 C 7.750004 3 6.3102237 3.6922576 5.3769531 4.7421875 C 4.4436827 5.7921174 4 7.1527805 4 8.5 C 4 9.8472195 4.4436827 11.207883 5.3769531 12.257812 C 6.3102237 13.307741 7.750004 14 9.5 14 L 12 14 L 12 20 A 1 1 0 0 0 13 21 A 1 1 0 0 0 14 20 L 14 13 L 14 5 L 16 5 L 16 20 A 1 1 0 0 0 17 21 A 1 1 0 0 0 18 20 L 18 5 L 19 5 A 1 1 0 0 0 20 4 A 1 1 0 0 0 19 3 L 17 3 L 13 3 L 9.5 3 z M 9.5 5 L 12 5 L 12 12 L 9.5 12 C 8.2500032 12 7.4397727 11.567254 6.8730469 10.929688 C 6.306321 10.29212 6 9.4027761 6 8.5 C 6 7.5972239 6.306321 6.7078794 6.8730469 6.0703125 C 7.4397727 5.4327456 8.2500032 5 9.5 5 z "/>
</svg>
