<?xml version="1.0" encoding="UTF-8" standalone="no"?>
<svg xmlns="http://www.w3.org/2000/svg" xmlns:svg="http://www.w3.org/2000/svg" width="24" height="24" viewBox="0 0 24 24" fill="currentColor" tags="direction,paragraph,mark,paraph,blind,typography,type,text,prose,symbol" categories="text">
  <path d="M 11 2 C 9.7500003 2 8.6852256 2.5047556 8.0019531 3.2734375 C 7.3186806 4.0421194 7 5.0277779 7 6 C 7 6.9722221 7.3186806 7.9578806 8.0019531 8.7265625 C 8.6852256 9.4952444 9.7500003 10 11 10 L 13 10 L 13 14 A 1 1 0 0 0 14 15 A 1 1 0 0 0 15 14 L 15 4 L 17 4 L 17 14 A 1 1 0 0 0 18 15 A 1 1 0 0 0 19 14 L 19 4 L 20 4 A 1 1 0 0 0 21 3 A 1 1 0 0 0 20 2 L 11 2 z M 11 4 L 13 4 L 13 8 L 11 8 C 10.250001 8 9.8147739 7.7547556 9.4980469 7.3984375 C 9.1813198 7.0421194 9 6.5277779 9 6 C 9 5.4722221 9.1813198 4.9578806 9.4980469 4.6015625 C 9.8147739 4.2452444 10.250001 4 11 4 z M 6 13 A 1 1 0 0 0 5.2929688 13.292969 L 1.2929688 17.292969 A 1 1 0 0 0 1.0976562 17.583984 A 1.0001 1.0001 0 0 0 1.0722656 17.638672 A 1 1 0 0 0 1.0058594 17.970703 A 1.0001 1.0001 0 0 0 1.0058594 18.029297 A 1 1 0 0 0 1.0722656 18.361328 A 1.0001 1.0001 0 0 0 1.0976562 18.416016 A 1 1 0 0 0 1.2929688 18.707031 L 5.2929688 22.707031 A 1 1 0 0 0 6.7070312 22.707031 A 1 1 0 0 0 6.7070312 21.292969 L 4.4140625 19 L 22 19 A 1 1 0 0 0 23 18 A 1 1 0 0 0 22 17 L 4.4140625 17 L 6.7070312 14.707031 A 1 1 0 0 0 6.7070312 13.292969 A 1 1 0 0 0 6 13 z "/>
</svg>
