<?xml version="1.0" encoding="UTF-8" standalone="no"?>
<svg xmlns="http://www.w3.org/2000/svg" xmlns:svg="http://www.w3.org/2000/svg" width="24" height="24" viewBox="0 0 24 24" fill="currentColor" tags="direction,paragraph,mark,paraph,blind,typography,type,text,prose,symbol" categories="text">
  <path d="M 7 2 C 5.7500003 2 4.6852256 2.5047556 4.0019531 3.2734375 C 3.3186806 4.0421194 3 5.0277779 3 6 C 3 6.9722221 3.3186806 7.9578806 4.0019531 8.7265625 C 4.6852256 9.4952444 5.7500003 10 7 10 L 9 10 L 9 14 A 1 1 0 0 0 10 15 A 1 1 0 0 0 11 14 L 11 4 L 13 4 L 13 14 A 1 1 0 0 0 14 15 A 1 1 0 0 0 15 14 L 15 4 A 1 1 0 0 0 16 3 A 1 1 0 0 0 15 2 L 7 2 z M 7 4 L 9 4 L 9 8 L 7 8 C 6.2500005 8 5.8147739 7.7547556 5.4980469 7.3984375 C 5.1813198 7.0421194 5 6.5277779 5 6 C 5 5.4722221 5.1813198 4.9578806 5.4980469 4.6015625 C 5.8147739 4.2452444 6.2500005 4 7 4 z M 18 13 A 1 1 0 0 0 17.292969 13.292969 A 1 1 0 0 0 17.292969 14.707031 L 19.585938 17 L 2 17 A 1 1 0 0 0 1 18 A 1 1 0 0 0 2 19 L 19.585938 19 L 17.292969 21.292969 A 1 1 0 0 0 17.292969 22.707031 A 1 1 0 0 0 18.707031 22.707031 L 22.707031 18.707031 A 1 1 0 0 0 22.808594 18.587891 A 1.0001 1.0001 0 0 0 22.814453 18.580078 A 1 1 0 0 0 22.919922 18.388672 A 1 1 0 0 0 22.923828 18.382812 A 1.0001 1.0001 0 0 0 22.925781 18.378906 A 1 1 0 0 0 22.984375 18.169922 A 1.0001 1.0001 0 0 0 22.988281 18.144531 A 1 1 0 0 0 22.996094 17.927734 A 1 1 0 0 0 22.996094 17.921875 A 1.0001 1.0001 0 0 0 22.994141 17.916016 A 1 1 0 0 0 22.951172 17.693359 A 1 1 0 0 0 22.951172 17.691406 A 1.0001 1.0001 0 0 0 22.949219 17.6875 A 1 1 0 0 0 22.851562 17.478516 A 1 1 0 0 0 22.707031 17.292969 L 18.707031 13.292969 A 1 1 0 0 0 18 13 z "/>
</svg>
