<?xml version="1.0" encoding="UTF-8" standalone="no"?>
<svg xmlns="http://www.w3.org/2000/svg" xmlns:svg="http://www.w3.org/2000/svg" width="24" height="24" viewBox="0 0 24 24" fill="currentColor" tags="paragraph,mark,paraph,blind,typography,type,text,prose,symbol" categories="text">
  <path d="M 9.5 3 C 7.7500005 3 6.3102255 3.6922556 5.3769531 4.7421875 C 4.4436807 5.7921194 4 7.1527779 4 8.5 C 4 9.8472221 4.4436807 11.207881 5.3769531 12.257812 C 6.3102255 13.307743 7.7500005 14 9.5 14 L 12 14 L 12 20 A 1 1 0 0 0 13 21 A 1 1 0 0 0 14 20 L 14 13 L 14 5 L 16 5 L 16 20 A 1 1 0 0 0 17 21 A 1 1 0 0 0 18 20 L 18 5 L 19 5 A 1 1 0 0 0 20 4 A 1 1 0 0 0 19 3 L 17 3 L 13 3 L 9.5 3 z M 9.5 5 L 12 5 L 12 12 L 9.5 12 C 8.2500008 12 7.4397738 11.567256 6.8730469 10.929688 C 6.3063199 10.292118 6 9.4027779 6 8.5 C 6 7.5972221 6.3063199 6.7078806 6.8730469 6.0703125 C 7.4397738 5.4327444 8.2500008 5 9.5 5 z "/>
</svg>
