<?xml version="1.0" encoding="UTF-8" standalone="no"?>
<svg xmlns="http://www.w3.org/2000/svg" xmlns:svg="http://www.w3.org/2000/svg" width="24" height="24" viewBox="0 0 24 24" fill="currentColor" tags="medicine,medication,prescription,drug,supplement,vitamin,capsule,jar,container,healthcare,pharmaceutical,tablet" categories="medical">
  <path d="M 5 1 C 3.9092994 1 3 1.9092994 3 3 L 3 6 C 3 7.0907006 3.9092994 8 5 8 L 5 20 C 5 21.645006 6.3549936 23 8 23 L 16 23 C 17.645006 23 19 21.645006 19 20 L 19 8 C 20.090701 8 21 7.0907006 21 6 L 21 3 C 21 1.9092994 20.090701 1 19 1 L 5 1 z M 5 3 L 19 3 L 19 6 L 18 6 L 6 6 L 5 6 L 5 3 z M 7 8 L 17 8 L 17 10 L 14 10 C 12.907277 10 12 10.907277 12 12 L 12 17 C 12 18.092723 12.907277 19 14 19 L 17 19 L 17 20 C 17 20.564128 16.564128 21 16 21 L 8 21 C 7.4358718 21 7 20.564128 7 20 L 7 8 z M 14 12 L 17 12 L 17 17 L 14 17 L 14 12 z "/>
</svg>
