<svg xmlns="http://www.w3.org/2000/svg" xmlns:svg="http://www.w3.org/2000/svg" width="24" height="24" viewBox="0 0 24 24" fill="currentColor" tags="medicine,medication,drug,prescription,tablet,pharmacy" categories="medical">
  <path d="M 16.710938 0.9296875 C 15.358201 1.004341 13.959554 1.6024154 12.785156 2.8007812 L 7.7929688 7.7929688 L 2.8007812 12.785156 C 1.4312202 14.127325 0.84595465 15.762428 0.9296875 17.287109 C 1.0134203 18.811791 1.7192025 20.203578 2.7578125 21.242188 C 3.7964225 22.280797 5.1882094 22.98658 6.7128906 23.070312 C 8.2375719 23.154042 9.8726752 22.56878 11.214844 21.199219 L 16.207031 16.207031 L 21.199219 11.214844 C 22.56878 9.8726751 23.154045 8.2375719 23.070312 6.7128906 C 22.98658 5.1882094 22.280797 3.7964225 21.242188 2.7578125 C 20.203578 1.7192025 18.811791 1.0134203 17.287109 0.9296875 C 17.096524 0.91922089 16.904186 0.91902271 16.710938 0.9296875 z M 16.8125 2.9257812 C 16.934614 2.9203298 17.056571 2.9210803 17.177734 2.9277344 C 18.14704 2.9809674 19.10483 3.4485802 19.828125 4.171875 C 20.55142 4.8951698 21.019033 5.8529599 21.072266 6.8222656 C 21.125496 7.7915713 20.812051 8.7941125 19.800781 9.7851562 A 1.0001 1.0001 0 0 0 19.792969 9.7929688 L 15.5 14.085938 L 9.9140625 8.5 L 14.207031 4.2070312 A 1.0001 1.0001 0 0 0 14.214844 4.1992188 C 15.082006 3.3143575 15.957699 2.9639412 16.8125 2.9257812 z M 8.5 9.9140625 L 14.085938 15.5 L 9.7929688 19.792969 A 1.0001 1.0001 0 0 0 9.7851562 19.800781 C 8.79411 20.812063 7.7915713 21.125498 6.8222656 21.072266 C 5.8529599 21.019033 4.8951698 20.55142 4.171875 19.828125 C 3.4485802 19.10483 2.980967 18.14704 2.9277344 17.177734 C 2.8745018 16.208429 3.1879487 15.205887 4.1992188 14.214844 A 1.0001 1.0001 0 0 0 4.2070312 14.207031 L 8.5 9.9140625 z "/>
</svg>
