<?xml version="1.0" encoding="UTF-8" standalone="no"?>
<svg xmlns="http://www.w3.org/2000/svg" xmlns:svg="http://www.w3.org/2000/svg" width="24" height="24" viewBox="0 0 24 24" fill="currentColor" tags="medicine,medication,drug,prescription,tablet,pharmacy" categories="medical">
  <path d="M 17 0.921875 C 15.559151 0.92219616 14.043437 1.5168204 12.785156 2.8007812 L 7.7929688 7.7929688 L 2.8007812 12.785156 C 1.431223 14.127322 0.84595482 15.762432 0.9296875 17.287109 C 1.0134202 18.811788 1.7192046 20.203581 2.7578125 21.242188 C 3.7964204 22.280795 5.1882124 22.986581 6.7128906 23.070312 C 8.2375688 23.154042 9.8726779 22.568776 11.214844 21.199219 L 16.207031 16.207031 L 21.199219 11.214844 C 22.568776 9.8726779 23.154045 8.2375688 23.070312 6.7128906 C 22.986581 5.1882124 22.280795 3.7964204 21.242188 2.7578125 C 20.203581 1.7192046 18.811788 1.0134202 17.287109 0.9296875 C 17.191817 0.92445421 17.096057 0.92185359 17 0.921875 z M 16.8125 2.9257812 C 16.934614 2.9203298 17.056571 2.9210803 17.177734 2.9277344 C 18.147038 2.9809673 19.104832 3.4485816 19.828125 4.171875 C 20.551418 4.8951684 21.019033 5.8529619 21.072266 6.8222656 C 21.125496 7.7915695 20.812049 8.7941145 19.800781 9.7851562 A 1.0001 1.0001 0 0 0 19.792969 9.7929688 L 15.5 14.085938 L 9.9140625 8.5 L 14.207031 4.2070312 A 1.0001 1.0001 0 0 0 14.214844 4.1992188 C 15.082005 3.3143593 15.9577 2.9639414 16.8125 2.9257812 z M 8.5 9.9140625 L 14.085938 15.5 L 9.7929688 19.792969 A 1.0001 1.0001 0 0 0 9.7851562 19.800781 C 8.794112 20.812061 7.7915695 21.125498 6.8222656 21.072266 C 5.8529619 21.019033 4.8951684 20.551418 4.171875 19.828125 C 3.4485816 19.104832 2.9809668 18.147038 2.9277344 17.177734 C 2.8745018 16.208431 3.1879508 15.205885 4.1992188 14.214844 A 1.0001 1.0001 0 0 0 4.2070312 14.207031 L 8.5 9.9140625 z "/>
</svg>
