<?xml version="1.0" encoding="UTF-8" standalone="no"?>
<svg xmlns="http://www.w3.org/2000/svg" xmlns:svg="http://www.w3.org/2000/svg" width="24" height="24" viewBox="0 0 24 24" fill="currentColor" tags="unpin,map,unlock,unfix,unsave,remove" categories="navigation">
  <path d="M 2 1 A 1 1 0 0 0 1.2929688 1.2929688 A 1 1 0 0 0 1.2929688 2.7070312 L 8 9.4140625 L 8 10.759766 C 7.9997975 11.141368 7.7870493 11.484484 7.4453125 11.654297 A 1.0001 1.0001 0 0 0 7.4394531 11.658203 L 5.6640625 12.554688 C 4.646484 13.060333 4.000603 14.103949 4 15.240234 L 4 16 C 4 17.092725 4.9072751 18 6 18 L 11 18 L 11 22 A 1 1 0 0 0 12 23 A 1 1 0 0 0 13 22 L 13 18 L 16.585938 18 L 21.292969 22.707031 A 1 1 0 0 0 22.707031 22.707031 A 1 1 0 0 0 22.707031 21.292969 L 17.716797 16.302734 A 1 1 0 0 0 17.697266 16.283203 L 9.7167969 8.3027344 A 1 1 0 0 0 9.6972656 8.2832031 L 2.7070312 1.2929688 A 1 1 0 0 0 2 1 z M 7.890625 1 A 1 1 0 0 0 6.890625 2 A 1 1 0 0 0 7.890625 3 L 16 3 C 16.416666 3 16.601893 3.1202444 16.751953 3.2890625 C 16.902014 3.4578806 17 3.7222221 17 4 C 17 4.2777779 16.902014 4.5421194 16.751953 4.7109375 C 16.601893 4.8797556 16.416666 5 16 5 C 14.907275 5 14 5.9072751 14 7 L 14 9.3398438 A 1 1 0 0 0 15 10.339844 A 1 1 0 0 0 16 9.3398438 L 16 7 C 16.916666 7 17.731441 6.6202444 18.248047 6.0390625 C 18.764653 5.4578806 19 4.7222221 19 4 C 19 3.2777779 18.764653 2.5421194 18.248047 1.9609375 C 17.731441 1.3797556 16.916666 1 16 1 L 7.890625 1 z M 9.9394531 11.353516 L 14.585938 16 L 12 16 L 6 16 L 6 15.240234 C 6.0002025 14.858632 6.2129507 14.515516 6.5546875 14.345703 A 1.0001 1.0001 0 0 0 6.5605469 14.341797 L 8.3359375 13.445312 C 9.1727167 13.029507 9.7574998 12.249271 9.9394531 11.353516 z "/>
</svg>
