<?xml version="1.0" encoding="UTF-8" standalone="no"?>
<svg xmlns="http://www.w3.org/2000/svg" xmlns:svg="http://www.w3.org/2000/svg" width="24" height="24" viewBox="0 0 24 24" fill="currentColor" tags="save,map,lock,fix" categories="navigation,account">
  <path d="M 8 1 C 7.0833335 1 6.268559 1.3797556 5.7519531 1.9609375 C 5.2353472 2.5421194 5 3.2777779 5 4 C 5 4.7222221 5.2353472 5.4578806 5.7519531 6.0390625 C 6.268559 6.6202444 7.0833335 7 8 7 L 8 10.759766 C 7.9997975 11.141368 7.7870493 11.484484 7.4453125 11.654297 A 1.0001 1.0001 0 0 0 7.4394531 11.658203 L 5.6640625 12.554688 C 4.646484 13.060333 4.000603 14.103949 4 15.240234 L 4 16 C 4 17.092725 4.9072751 18 6 18 L 11 18 L 11 22 A 1 1 0 0 0 12 23 A 1 1 0 0 0 13 22 L 13 18 L 18 18 C 19.092725 18 20 17.092725 20 16 L 20 15.240234 C 19.999397 14.103949 19.353516 13.060333 18.335938 12.554688 L 16.560547 11.658203 A 1.0001 1.0001 0 0 0 16.554688 11.654297 C 16.212992 11.484478 16.000202 11.141368 16 10.759766 L 16 7 C 16.916666 7 17.731441 6.6202444 18.248047 6.0390625 C 18.764653 5.4578806 19 4.7222221 19 4 C 19 3.2777779 18.764653 2.5421194 18.248047 1.9609375 C 17.731441 1.3797556 16.916666 1 16 1 L 8 1 z M 8 3 L 16 3 C 16.416666 3 16.601893 3.1202444 16.751953 3.2890625 C 16.902014 3.4578806 17 3.7222221 17 4 C 17 4.2777779 16.902014 4.5421194 16.751953 4.7109375 C 16.601893 4.8797556 16.416666 5 16 5 C 14.907275 5 14 5.9072751 14 7 L 14 10.759766 C 14.000603 11.896051 14.646483 12.939666 15.664062 13.445312 L 17.439453 14.341797 A 1.0001 1.0001 0 0 0 17.445312 14.345703 C 17.787008 14.515522 17.999798 14.858632 18 15.240234 L 18 16 L 12 16 L 6 16 L 6 15.240234 C 6.0002025 14.858632 6.2129507 14.515516 6.5546875 14.345703 A 1.0001 1.0001 0 0 0 6.5605469 14.341797 L 8.3359375 13.445312 C 9.353516 12.939666 9.999397 11.896051 10 10.759766 L 10 7 C 10 5.9072751 9.0927249 5 8 5 C 7.5833337 5 7.3981073 4.8797556 7.2480469 4.7109375 C 7.0979864 4.5421194 7 4.2777779 7 4 C 7 3.7222221 7.0979864 3.4578806 7.2480469 3.2890625 C 7.3981073 3.1202444 7.5833337 3 8 3 z "/>
</svg>
