<?xml version="1.0" encoding="UTF-8" standalone="no"?>
<svg xmlns="http://www.w3.org/2000/svg" xmlns:svg="http://www.w3.org/2000/svg" width="24" height="24" viewBox="0 0 24 24" fill="currentColor" tags="save,map,lock,fix" categories="maps,account">
  <path d="M 8 1 C 7.0833353 1 6.268558 1.3797568 5.7519531 1.9609375 C 5.2353482 2.5421182 5 3.2777793 5 4 C 5 4.7222207 5.2353482 5.4578818 5.7519531 6.0390625 C 6.268558 6.6202432 7.0833353 7 8 7 L 8 10.759766 C 7.9997975 11.141367 7.7870487 11.484484 7.4453125 11.654297 A 1.0001 1.0001 0 0 0 7.4394531 11.658203 L 5.6640625 12.554688 C 4.646486 13.060333 4.000603 14.103952 4 15.240234 L 4 16 C 4 17.092723 4.9072773 18 6 18 L 11 18 L 11 22 A 1 1 0 0 0 12 23 A 1 1 0 0 0 13 22 L 13 18 L 18 18 C 19.092723 18 20 17.092723 20 16 L 20 15.240234 C 19.999397 14.103952 19.353514 13.060333 18.335938 12.554688 L 16.560547 11.658203 A 1.0001 1.0001 0 0 0 16.554688 11.654297 C 16.212992 11.484478 16.000202 11.141367 16 10.759766 L 16 7 C 16.916665 7 17.731441 6.6202432 18.248047 6.0390625 C 18.764651 5.4578818 19 4.7222207 19 4 C 19 3.2777793 18.764651 2.5421182 18.248047 1.9609375 C 17.731441 1.3797568 16.916665 1 16 1 L 8 1 z M 8 3 L 16 3 C 16.416666 3 16.601893 3.1202448 16.751953 3.2890625 C 16.902013 3.4578802 17 3.7222227 17 4 C 17 4.2777773 16.902013 4.5421198 16.751953 4.7109375 C 16.601893 4.8797552 16.416666 5 16 5 C 14.907277 5 14 5.9072773 14 7 L 14 10.759766 C 14.000603 11.896048 14.646486 12.939666 15.664062 13.445312 L 17.439453 14.341797 A 1.0001 1.0001 0 0 0 17.445312 14.345703 C 17.787008 14.515522 17.999798 14.858633 18 15.240234 L 18 16 L 12 16 L 6 16 L 6 15.240234 C 6.0002025 14.858633 6.2129513 14.515516 6.5546875 14.345703 A 1.0001 1.0001 0 0 0 6.5605469 14.341797 L 8.3359375 13.445312 C 9.353514 12.939666 9.999397 11.896048 10 10.759766 L 10 7 C 10 5.9072773 9.0927227 5 8 5 C 7.5833345 5 7.398107 4.8797552 7.2480469 4.7109375 C 7.0979867 4.5421198 7 4.2777773 7 4 C 7 3.7222227 7.0979867 3.4578802 7.2480469 3.2890625 C 7.398107 3.1202448 7.5833345 3 8 3 z "/>
</svg>
