<?xml version="1.0" encoding="UTF-8" standalone="no"?>
<svg xmlns="http://www.w3.org/2000/svg" xmlns:svg="http://www.w3.org/2000/svg" width="24" height="24" viewBox="0 0 24 24" fill="currentColor" tags="eye dropper,color picker,lab,chemistry" categories="text,design,science">
  <path d="M 19.748047 0.9453125 C 19.030746 0.98363335 18.285539 1.3003987 17.693359 1.8925781 L 14.9375 4.6484375 C 14.322832 4.1805378 13.622046 3.9056194 12.947266 3.9453125 C 12.14063 3.9927618 11.424713 4.3604434 10.892578 4.8925781 C 10.360443 5.4247129 9.9927618 6.1406297 9.9453125 6.9472656 C 9.9052099 7.6290071 10.129481 8.3598363 10.607422 8.9785156 L 2.2929688 17.292969 A 1.0001 1.0001 0 0 0 2 18 L 2 20.585938 L 1.2929688 21.292969 A 1 1 0 0 0 1.2929688 22.707031 A 1 1 0 0 0 2.7070312 22.707031 L 3.4140625 22 L 6 22 A 1.0001 1.0001 0 0 0 6.7070312 21.707031 L 15.021484 13.392578 C 15.640164 13.870519 16.370993 14.09479 17.052734 14.054688 C 17.85937 14.007238 18.575287 13.639557 19.107422 13.107422 C 19.639557 12.575287 20.007238 11.85937 20.054688 11.052734 C 20.102138 10.246098 19.784198 9.3701359 19.107422 8.6933594 L 19.414062 9 L 22.107422 6.3066406 C 22.784198 5.6298641 23.102137 4.7539015 23.054688 3.9472656 C 23.007238 3.1406297 22.639557 2.4247129 22.107422 1.8925781 C 21.575287 1.3604434 20.85937 0.99276185 20.052734 0.9453125 C 19.951905 0.93938133 19.850518 0.93983809 19.748047 0.9453125 z M 19.839844 2.9394531 C 19.871772 2.938702 19.903564 2.9395249 19.935547 2.9414062 C 20.191411 2.9564573 20.475494 3.0887754 20.693359 3.3066406 C 20.911225 3.5245059 21.043543 3.8085893 21.058594 4.0644531 C 21.073644 4.320317 21.016584 4.5693551 20.693359 4.8925781 L 17.292969 8.2929688 A 1.0001 1.0001 0 0 0 17.292969 9.7070312 L 17.693359 10.107422 C 18.016582 10.430645 18.073645 10.679683 18.058594 10.935547 C 18.043544 11.191411 17.911225 11.475494 17.693359 11.693359 C 17.475494 11.911225 17.191411 12.043543 16.935547 12.058594 C 16.679683 12.073644 16.430645 12.016584 16.107422 11.693359 L 15.707031 11.292969 L 12.707031 8.2929688 L 12.306641 7.8925781 C 11.983418 7.5693551 11.926355 7.320317 11.941406 7.0644531 C 11.956456 6.8085893 12.088775 6.5245059 12.306641 6.3066406 C 12.524506 6.0887754 12.808589 5.9564572 13.064453 5.9414062 C 13.320317 5.9263553 13.569355 5.9834172 13.892578 6.3066406 L 14.292969 6.7070312 A 1.0001 1.0001 0 0 0 15.707031 6.7070312 L 19.107422 3.3066406 C 19.390242 3.0238205 19.616348 2.9447113 19.839844 2.9394531 z M 12 10.414062 L 13.585938 12 L 5.5859375 20 L 4 20 L 4 18.414062 L 12 10.414062 z "/>
</svg>
