<?xml version="1.0" encoding="UTF-8" standalone="no"?>
<svg xmlns="http://www.w3.org/2000/svg" xmlns:svg="http://www.w3.org/2000/svg" width="24" height="24" viewBox="0 0 24 24" fill="currentColor" tags="pie,quiche,food" categories="food-beverage">
  
  <path d="M 16.119141 1.0078125 A 1.0001 1.0001 0 0 0 15.736328 1.0351562 C 8.594901 2.993106 3.0118823 8.5733905 1.0449219 15.710938 A 1 1 0 0 0 1.0429688 15.712891 A 1 1 0 0 0 1.0429688 15.716797 C 1.0410788 15.723697 1.0370362 15.729448 1.0351562 15.736328 A 1 1 0 0 0 1.0839844 16.123047 A 1 1 0 0 0 1.1289062 16.482422 A 1 1 0 0 0 1.4160156 16.716797 A 1 1 0 0 0 1.7128906 16.957031 L 1.734375 16.962891 L 1.7382812 16.964844 L 21.712891 22.957031 A 1.0001 1.0001 0 0 0 22.957031 21.712891 L 16.957031 1.7128906 A 1.0001 1.0001 0 0 0 16.119141 1.0078125 z M 15.359375 3.34375 L 15.876953 5.0664062 C 10.851959 6.8882938 6.8882938 10.851959 5.0664062 15.876953 L 3.34375 15.359375 C 5.2310088 9.6597224 9.6597224 5.2310088 15.359375 3.34375 z M 16.451172 6.9863281 L 20.509766 20.509766 L 6.9863281 16.451172 C 8.6102184 12.066845 12.066845 8.6102184 16.451172 6.9863281 z M 15 10 A 1 1 0 0 0 14 11 A 1 1 0 0 0 15 12 L 15.009766 12 A 1 1 0 0 0 16.009766 11 A 1 1 0 0 0 15.009766 10 L 15 10 z M 11 14 A 1 1 0 0 0 10 15 A 1 1 0 0 0 11 16 L 11.009766 16 A 1 1 0 0 0 12.009766 15 A 1 1 0 0 0 11.009766 14 L 11 14 z M 16 15 A 1 1 0 0 0 15 16 A 1 1 0 0 0 16 17 L 16.009766 17 A 1 1 0 0 0 17.009766 16 A 1 1 0 0 0 16.009766 15 L 16 15 z "/>
</svg>
