<?xml version="1.0" encoding="UTF-8" standalone="no"?>
<svg xmlns="http://www.w3.org/2000/svg" xmlns:svg="http://www.w3.org/2000/svg" width="24" height="24" viewBox="0 0 24 24" fill="currentColor" tags="pie,quiche,food" categories="food-beverage">
  <path d="M 16.058594 1.0039062 C 15.862565 0.99723493 15.662145 1.0194151 15.464844 1.0742188 L 15.462891 1.0742188 C 8.4769694 3.0153542 3.0153541 8.4769694 1.0742188 15.462891 C 0.78057616 16.51575 1.4099071 17.634539 2.4628906 17.927734 A 1.0001 1.0001 0 0 0 2.4648438 17.927734 L 20.464844 22.927734 C 21.915584 23.330927 23.330927 21.915584 22.927734 20.464844 L 19.792969 9.1777344 A 1 1 0 0 0 19.765625 9.0371094 A 1 1 0 0 0 19.730469 8.953125 L 17.927734 2.4648438 A 1.0001 1.0001 0 0 0 17.927734 2.4628906 C 17.689666 1.607881 16.908052 1.0328153 16.058594 1.0039062 z M 16 3 L 16.535156 4.9296875 C 10.902281 6.4933675 6.4927403 10.903941 4.9296875 16.537109 L 3 16 C 4.7539129 9.6857126 9.6857126 4.7539129 16 3 z M 17.070312 6.8554688 L 17.580078 8.6914062 C 16.548124 9.1864872 15.786208 9.9574706 15.345703 10.845703 C 14.778347 11.989717 14.714186 13.285999 15.035156 14.462891 C 15.356127 15.639782 16.069066 16.724305 17.138672 17.421875 C 17.980243 17.970726 19.046462 18.247302 20.205078 18.138672 L 21 21 L 14.298828 19.138672 L 14.5 18.910156 A 1 1 0 0 0 14.410156 17.5 A 1 1 0 0 0 13.685547 17.251953 A 1 1 0 0 0 13 17.589844 L 12.160156 18.544922 L 6.8554688 17.070312 C 8.2318142 12.109242 12.109213 8.23149 17.070312 6.8554688 z M 18.126953 10.65625 L 19.660156 16.173828 C 19.093595 16.171372 18.629588 16.006389 18.230469 15.746094 C 17.622992 15.349913 17.168873 14.685608 16.964844 13.9375 C 16.760814 13.189392 16.814492 12.384111 17.136719 11.734375 C 17.344893 11.314613 17.653983 10.94349 18.126953 10.65625 z M 12 13 A 1 1 0 0 0 11.292969 13.292969 L 10.292969 14.292969 A 1 1 0 0 0 10.292969 15.707031 A 1 1 0 0 0 11.707031 15.707031 L 12.707031 14.707031 A 1 1 0 0 0 12.707031 13.292969 A 1 1 0 0 0 12 13 z "/>
</svg>
