<?xml version="1.0" encoding="UTF-8" standalone="no"?>
<svg xmlns="http://www.w3.org/2000/svg" xmlns:svg="http://www.w3.org/2000/svg" width="24" height="24" viewBox="0 0 24 24" fill="currentColor" tags="arrival,plane,trip,airplane,landing" categories="transportation,travel">
  <path d="M 11.074219 1.5019531 A 1.0001 1.0001 0 0 0 10.685547 1.5507812 A 1.0001 1.0001 0 0 0 10.105469 2.0527344 L 7.5527344 7.1582031 L 7.3535156 7.0585938 L 7.3535156 7.0566406 C 7.1320735 6.9431503 7 6.726918 7 6.5 C 7 5.5074883 6.4302801 4.6049537 5.5527344 4.1582031 A 1.0001 1.0001 0 0 0 5.546875 4.15625 L 4.4472656 3.6054688 A 1.0001 1.0001 0 0 0 3.0859375 4.09375 L 1.0859375 8.59375 A 1.0001 1.0001 0 0 0 1.2929688 9.7070312 L 3.0625 11.476562 C 3.2891124 11.70571 3.5504452 11.895233 3.8378906 12.041016 A 1.0001 1.0001 0 0 0 3.84375 12.044922 L 16.886719 18.556641 C 16.887919 18.557258 16.889425 18.556025 16.890625 18.556641 C 17.498887 18.874299 18.1814 18.987148 18.845703 18.902344 L 20.019531 18.751953 C 21.694236 18.550988 22.651025 16.641165 21.833984 15.173828 A 1.0001 1.0001 0 0 0 21.824219 15.15625 L 21.232422 14.140625 C 20.896602 13.541991 20.390498 13.084941 19.814453 12.783203 A 1.0001 1.0001 0 0 0 19.796875 12.775391 L 15.396484 10.576172 A 1.0001 1.0001 0 0 0 15.396484 10.574219 C 15.099297 10.426221 14.896428 10.143465 14.851562 9.8144531 L 14.130859 4.4179688 A 1.0001 1.0001 0 0 0 14.130859 4.4160156 A 1.0001 1.0001 0 0 0 14.130859 4.4140625 C 13.997059 3.4328893 13.385593 2.5794147 12.5 2.1367188 L 12.496094 2.1347656 L 11.451172 1.6074219 A 1.0001 1.0001 0 0 0 11.074219 1.5019531 z M 11.445312 3.84375 L 11.599609 3.921875 A 1.0001 1.0001 0 0 0 11.603516 3.9257812 C 11.900745 4.073822 12.103571 4.3565349 12.148438 4.6855469 L 12.869141 10.082031 A 1.0001 1.0001 0 0 0 12.869141 10.085938 C 13.003069 11.068051 13.614992 11.922903 14.501953 12.365234 L 18.886719 14.556641 C 19.150672 14.694902 19.364101 14.897776 19.488281 15.119141 A 1.0001 1.0001 0 0 0 19.496094 15.132812 L 20.085938 16.146484 C 20.248896 16.439145 20.106537 16.728543 19.78125 16.767578 A 1.0001 1.0001 0 0 0 19.773438 16.767578 L 18.59375 16.917969 C 18.319342 16.952999 18.045307 16.904129 17.814453 16.783203 A 1.0001 1.0001 0 0 0 17.796875 16.775391 L 4.7421875 10.257812 C 4.6458216 10.208939 4.5582581 10.145326 4.4824219 10.068359 A 1.0001 1.0001 0 0 0 4.4765625 10.0625 L 3.1933594 8.7792969 L 4.4882812 5.8632812 L 4.6464844 5.9414062 L 4.6464844 5.9433594 C 4.8679265 6.0568498 5 6.273082 5 6.5 C 5 7.4925117 5.5697199 8.3950463 6.4472656 8.8417969 A 1.0001 1.0001 0 0 0 6.453125 8.84375 L 7.5527344 9.3945312 A 1.0001 1.0001 0 0 0 8.8945312 8.9472656 L 11.445312 3.84375 z M 2 21 A 1 1 0 0 0 1 22 A 1 1 0 0 0 2 23 L 22 23 A 1 1 0 0 0 23 22 A 1 1 0 0 0 22 21 L 2 21 z "/>
</svg>
