<svg xmlns="http://www.w3.org/2000/svg" xmlns:svg="http://www.w3.org/2000/svg" width="24" height="24" viewBox="0 0 24 24" fill="currentColor" tags="plane,trip,airplane" categories="transportation,travel,navigation">
  <path d="M 20.089844 1.8007812 C 19.618343 1.8014454 19.13149 1.8944874 18.642578 2.0449219 C 17.664754 2.3457908 16.66082 2.9251175 15.792969 3.7929688 L 12.679688 6.90625 L 5.0136719 5.2226562 A 1.0001 1.0001 0 0 0 4.9960938 5.21875 C 4.1694012 5.0534115 3.2423665 5.4685311 2.8417969 6.1855469 C 2.8344106 6.1987682 2.8253824 6.2111843 2.8183594 6.2246094 L 2.5429688 6.6855469 A 1.0001 1.0001 0 0 0 2.4707031 6.828125 C 2.1426374 7.6482894 2.3369427 8.7287813 3.0996094 9.3007812 A 1.0001 1.0001 0 0 0 3.1484375 9.3339844 L 7.6113281 12.28125 L 6.4648438 14 L 4 14 A 1.0001 1.0001 0 0 0 3.2929688 14.292969 L 2.2929688 15.292969 A 1.0001 1.0001 0 0 0 2.4453125 16.832031 L 5.2792969 18.720703 L 7.1679688 21.554688 A 1.0001 1.0001 0 0 0 8.7070312 21.707031 L 9.7070312 20.707031 A 1.0001 1.0001 0 0 0 10 20 L 10 17.535156 L 11.71875 16.388672 L 14.666016 20.851562 A 1.0001 1.0001 0 0 0 14.699219 20.900391 C 15.271219 21.663057 16.351711 21.857363 17.171875 21.529297 L 17.671875 21.328125 A 1.0001 1.0001 0 0 0 17.900391 21.199219 C 18.513724 20.739219 18.951651 19.85591 18.78125 19.003906 A 1.0001 1.0001 0 0 0 18.777344 18.986328 L 17.09375 11.320312 L 20.207031 8.2070312 C 21.074882 7.33918 21.654209 6.3352458 21.955078 5.3574219 C 22.255947 4.3795979 22.32342 3.4105053 21.894531 2.5527344 A 1.0001 1.0001 0 0 0 21.447266 2.1054688 C 21.01838 1.8910259 20.561344 1.8001172 20.089844 1.8007812 z M 19.722656 3.8789062 C 19.852389 3.882372 19.960058 3.9047246 20.083984 3.9160156 C 20.106564 4.1638676 20.173352 4.3501685 20.044922 4.7675781 C 19.845791 5.4147542 19.425118 6.16082 18.792969 6.7929688 L 15.292969 10.292969 A 1.0001 1.0001 0 0 0 15.023438 11.214844 L 16.820312 19.396484 C 16.842782 19.508845 16.798456 19.50635 16.728516 19.550781 L 16.427734 19.671875 C 16.337817 19.70784 16.312399 19.724051 16.306641 19.726562 L 16.306641 19.724609 C 16.306888 19.723751 16.306432 19.719952 16.306641 19.71875 L 16.306641 19.716797 L 16.306641 19.714844 C 16.306547 19.714008 16.306846 19.709892 16.306641 19.708984 C 16.306302 19.708007 16.303229 19.704168 16.302734 19.703125 C 16.302061 19.702018 16.301656 19.700386 16.300781 19.699219 L 12.833984 14.449219 A 1.0001 1.0001 0 0 0 11.445312 14.167969 L 8.4453125 16.167969 A 1.0001 1.0001 0 0 0 8 17 L 8 19.197266 L 6.8320312 17.445312 A 1.0001 1.0001 0 0 0 6.5546875 17.167969 L 4.8027344 16 L 7 16 A 1.0001 1.0001 0 0 0 7.8320312 15.554688 L 9.8320312 12.554688 A 1.0001 1.0001 0 0 0 9.5507812 11.166016 L 4.3007812 7.6992188 L 4.2988281 7.6972656 L 4.296875 7.6953125 L 4.2949219 7.6933594 L 4.2929688 7.6914062 L 4.2929688 7.6894531 L 4.2910156 7.6875 L 4.2910156 7.6855469 L 4.2910156 7.6835938 C 4.2909002 7.682825 4.2891071 7.6785228 4.2890625 7.6777344 C 4.289564 7.6599608 4.3067488 7.6377226 4.3203125 7.6113281 L 4.5566406 7.2148438 A 1.0001 1.0001 0 0 0 4.5800781 7.1738281 C 4.5869658 7.175746 4.5944192 7.177868 4.6035156 7.1796875 L 12.785156 8.9765625 A 1.0001 1.0001 0 0 0 13.707031 8.7070312 L 17.207031 5.2070312 C 17.83918 4.5748825 18.585246 4.1542092 19.232422 3.9550781 C 19.441127 3.8908613 19.592924 3.8754405 19.722656 3.8789062 z "/>
</svg>
