<?xml version="1.0" encoding="UTF-8" standalone="no"?>
<svg xmlns="http://www.w3.org/2000/svg" xmlns:svg="http://www.w3.org/2000/svg" width="24" height="24" viewBox="0 0 24 24" fill="currentColor" tags="plane,trip,airplane" categories="transportation,travel">
  <path d="M 20.089844 1.8007812 C 19.618344 1.8014454 19.13149 1.8944873 18.642578 2.0449219 C 17.664756 2.3457902 16.660818 2.9251193 15.792969 3.7929688 L 12.679688 6.90625 L 5.0136719 5.2226562 A 1.0001 1.0001 0 0 0 4.9960938 5.21875 C 4.1695426 5.0534397 3.2424767 5.4687556 2.8417969 6.1855469 L 2.5429688 6.6855469 A 1.0001 1.0001 0 0 0 2.4707031 6.828125 C 2.1426381 7.6482878 2.3369442 8.7287823 3.0996094 9.3007812 A 1.0001 1.0001 0 0 0 3.1484375 9.3339844 L 7.6113281 12.28125 L 6.4648438 14 L 4 14 A 1.0001 1.0001 0 0 0 3.2929688 14.292969 L 2.2929688 15.292969 A 1.0001 1.0001 0 0 0 2.4453125 16.832031 L 5.2792969 18.720703 L 7.1679688 21.554688 A 1.0001 1.0001 0 0 0 8.7070312 21.707031 L 9.7070312 20.707031 A 1.0001 1.0001 0 0 0 10 20 L 10 17.535156 L 11.71875 16.388672 L 14.666016 20.851562 A 1.0001 1.0001 0 0 0 14.699219 20.900391 C 15.271217 21.663056 16.351712 21.857362 17.171875 21.529297 L 17.671875 21.328125 A 1.0001 1.0001 0 0 0 17.900391 21.199219 C 18.513722 20.739219 18.95165 19.855908 18.78125 19.003906 A 1.0001 1.0001 0 0 0 18.777344 18.986328 L 17.09375 11.320312 L 20.207031 8.2070312 C 21.074881 7.3391818 21.65421 6.3352438 21.955078 5.3574219 C 22.255947 4.3795999 22.323416 3.4105035 21.894531 2.5527344 A 1.0001 1.0001 0 0 0 21.447266 2.1054688 C 21.018381 1.8910264 20.561343 1.8001172 20.089844 1.8007812 z M 19.722656 3.8789062 C 19.852389 3.882372 19.960059 3.9047243 20.083984 3.9160156 C 20.106564 4.1638671 20.173352 4.3501693 20.044922 4.7675781 C 19.845791 5.4147529 19.425116 6.1608212 18.792969 6.7929688 L 15.292969 10.292969 A 1.0001 1.0001 0 0 0 15.023438 11.214844 L 16.820312 19.396484 C 16.842782 19.508845 16.798456 19.50635 16.728516 19.550781 L 16.427734 19.671875 C 16.2479 19.743805 16.328784 19.736559 16.300781 19.699219 L 12.833984 14.449219 A 1.0001 1.0001 0 0 0 11.445312 14.167969 L 8.4453125 16.167969 A 1.0001 1.0001 0 0 0 8 17 L 8 19.197266 L 6.8320312 17.445312 A 1.0001 1.0001 0 0 0 6.5546875 17.167969 L 4.8027344 16 L 7 16 A 1.0001 1.0001 0 0 0 7.8320312 15.554688 L 9.8320312 12.554688 A 1.0001 1.0001 0 0 0 9.5507812 11.166016 L 4.3007812 7.6992188 C 4.2748983 7.6798068 4.3005836 7.6497201 4.3203125 7.6113281 L 4.5566406 7.2148438 A 1.0001 1.0001 0 0 0 4.5800781 7.1699219 C 4.5891269 7.1730278 4.5890504 7.1767942 4.6035156 7.1796875 L 12.785156 8.9765625 A 1.0001 1.0001 0 0 0 13.707031 8.7070312 L 17.207031 5.2070312 C 17.839174 4.5748838 18.585247 4.1542088 19.232422 3.9550781 C 19.441126 3.8908614 19.592923 3.8754405 19.722656 3.8789062 z "/>
</svg>
