<svg xmlns="http://www.w3.org/2000/svg" xmlns:svg="http://www.w3.org/2000/svg" width="24" height="24" viewBox="0 0 24 24" fill="currentColor" tags="departure,plane,trip,airplane,takeoff" categories="transportation,travel">
  <path d="M 6.6582031 4.3476562 C 6.2481147 4.3641728 5.8399152 4.4649486 5.4589844 4.6523438 A 1.0001 1.0001 0 0 0 5.453125 4.65625 L 4.5527344 5.1054688 A 1.0001 1.0001 0 0 0 4.1054688 6.4472656 L 6.6523438 11.542969 L 6.4316406 11.650391 A 1.0001 1.0001 0 0 0 6.4199219 11.65625 C 6.1372961 11.798666 5.8064799 11.79743 5.5234375 11.65625 L 5.40625 11.587891 A 1.0001 1.0001 0 0 0 5.3496094 11.556641 C 4.5012764 11.129163 3.4987236 11.129163 2.6503906 11.556641 L 1.5527344 12.105469 A 1.0001 1.0001 0 0 0 1.1054688 13.447266 L 3.1054688 17.447266 A 1.0001 1.0001 0 0 0 3.8320312 17.986328 L 6.1933594 18.386719 A 1.0001 1.0001 0 0 0 6.3632812 18.339844 C 6.9307441 18.401564 7.5098067 18.350114 8.0234375 18.095703 A 1.0001 1.0001 0 0 0 8.0253906 18.095703 L 20.865234 11.726562 A 1.0001 1.0001 0 0 0 20.875 11.720703 C 21.536445 11.382944 22.061434 10.843929 22.384766 10.197266 L 22.759766 9.4472656 L 22.759766 9.4453125 C 23.444967 8.1120111 22.712337 6.4383264 21.267578 6.0371094 L 20.306641 5.7597656 A 1.0001 1.0001 0 0 0 20.296875 5.7558594 C 19.480367 5.5289877 18.608507 5.6150838 17.851562 5.9960938 L 13.667969 8.0527344 A 1.0001 1.0001 0 0 0 13.666016 8.0546875 C 13.323536 8.2246063 12.919483 8.1865897 12.615234 7.9550781 A 1.0001 1.0001 0 0 0 12.607422 7.9492188 L 8.59375 4.953125 L 8.5917969 4.953125 C 8.1408174 4.6121689 7.6117016 4.4113695 7.0683594 4.359375 C 6.9323726 4.3463619 6.7948993 4.3421507 6.6582031 4.3476562 z M 6.7441406 6.3457031 C 6.9710192 6.3360584 7.1976354 6.4037331 7.3867188 6.546875 A 1.0001 1.0001 0 0 0 7.3925781 6.5507812 L 11.404297 9.5449219 C 12.310201 10.234253 13.534948 10.351639 14.554688 9.8457031 L 18.740234 7.7871094 A 1.0001 1.0001 0 0 0 18.75 7.7832031 C 19.062917 7.6254642 19.422046 7.5902755 19.759766 7.6835938 L 19.761719 7.6835938 L 20.722656 7.9609375 A 1.0001 1.0001 0 0 0 20.732422 7.9628906 C 20.997573 8.0365246 21.106474 8.2866083 20.980469 8.53125 A 1.0001 1.0001 0 0 0 20.974609 8.5429688 L 20.595703 9.3027344 C 20.459456 9.575229 20.244103 9.7952139 19.966797 9.9375 L 19.964844 9.9394531 L 7.1347656 16.304688 C 6.9463153 16.397568 6.7326011 16.429448 6.5253906 16.394531 A 1.0001 1.0001 0 0 0 6.4824219 16.40625 L 4.6679688 16.099609 L 3.3417969 13.447266 L 3.546875 13.34375 A 1.0001 1.0001 0 0 0 3.5507812 13.34375 C 3.8334043 13.201335 4.1622719 13.202574 4.4453125 13.34375 L 4.5625 13.412109 A 1.0001 1.0001 0 0 0 4.6191406 13.443359 C 5.4674736 13.870837 6.4719795 13.870837 7.3203125 13.443359 L 8.4375 12.898438 A 1.0001 1.0001 0 0 0 8.8945312 11.552734 L 6.3417969 6.4472656 L 6.34375 6.4472656 C 6.4715118 6.3847409 6.6080135 6.35149 6.7441406 6.3457031 z M 2 21 A 1 1 0 0 0 1 22 A 1 1 0 0 0 2 23 L 22 23 A 1 1 0 0 0 23 22 A 1 1 0 0 0 22 21 L 2 21 z "/>
</svg>
