<?xml version="1.0" encoding="UTF-8" standalone="no"?>
<svg xmlns="http://www.w3.org/2000/svg" xmlns:svg="http://www.w3.org/2000/svg" width="24" height="24" viewBox="0 0 24 24" fill="currentColor" tags="music,audio,video,start,run" categories="arrows,multimedia">
  <path d="M 6.9804688 2.0117188 C 5.4359281 2.0486235 3.999496 3.2995207 4 5 L 4 19 C 3.999328 21.267306 6.5534384 22.734519 8.5117188 21.591797 L 20.511719 14.591797 C 22.458339 13.457744 22.45669 10.538493 20.509766 9.40625 L 8.5117188 2.4082031 C 8.0221487 2.1225226 7.4953156 1.9994171 6.9804688 2.0117188 z M 6.9707031 3.9804688 C 7.1448689 3.9825824 7.3267064 4.0313636 7.5039062 4.1347656 A 1.0001 1.0001 0 0 0 7.5039062 4.1367188 L 19.501953 11.132812 A 1.0001 1.0001 0 0 0 19.503906 11.134766 C 20.20843 11.543568 20.20772 12.453257 19.503906 12.863281 L 7.5039062 19.863281 A 1.0001 1.0001 0 0 0 7.5039062 19.865234 C 6.7950601 20.278749 5.9997568 19.820651 6 19 L 6 5 C 5.9998784 4.5896745 6.1988976 4.2705884 6.4863281 4.1054688 C 6.6300434 4.0229089 6.7965374 3.9783551 6.9707031 3.9804688 z "/>
</svg>
