<?xml version="1.0" encoding="UTF-8" standalone="no"?>
<svg xmlns="http://www.w3.org/2000/svg" xmlns:svg="http://www.w3.org/2000/svg" width="24" height="24" viewBox="0 0 24 24" fill="currentColor" tags="electricity,energy,electronics,charge,charging,battery,connect" categories="devices">
  <path d="M 18 2 A 1 1 0 0 0 17.292969 2.2929688 L 13.292969 6.2929688 A 1.0001 1.0001 0 0 0 14 8 L 17.585938 8 L 15.292969 10.292969 A 1 1 0 0 0 15.292969 11.707031 A 1 1 0 0 0 16.707031 11.707031 L 20.707031 7.7070312 A 1.0001 1.0001 0 0 0 20 6 L 16.414062 6 L 18.707031 3.7070312 A 1 1 0 0 0 18.707031 2.2929688 A 1 1 0 0 0 18 2 z M 10 10 A 1 1 0 0 0 9.2929688 10.292969 L 7.5 12.085938 L 6.7070312 11.292969 A 1.0001 1.0001 0 0 0 5.2929688 11.292969 L 2.9921875 13.59375 C 1.6693109 14.914225 1.6699375 17.088587 2.9941406 18.408203 L 3.5859375 19 L 1.2929688 21.292969 A 1 1 0 0 0 1.2929688 22.707031 A 1 1 0 0 0 2.7070312 22.707031 L 5 20.414062 L 5.59375 21.007812 C 6.9142247 22.330689 9.088587 22.330113 10.408203 21.005859 L 12.707031 18.707031 A 1.0001 1.0001 0 0 0 12.707031 17.292969 L 11.914062 16.5 L 13.707031 14.707031 A 1 1 0 0 0 13.707031 13.292969 A 1 1 0 0 0 13 13 A 1 1 0 0 0 12.292969 13.292969 L 10.5 15.085938 L 8.9140625 13.5 L 10.707031 11.707031 A 1 1 0 0 0 10.707031 10.292969 A 1 1 0 0 0 10 10 z M 6 13.414062 L 10.585938 18 L 8.9921875 19.59375 C 8.4366111 20.151259 7.5633889 20.151259 7.0078125 19.59375 L 4.40625 16.992188 C 3.8487412 16.436612 3.8487412 15.563389 4.40625 15.007812 L 6 13.414062 z "/>
</svg>
