<?xml version="1.0" encoding="UTF-8" standalone="no"?>
<svg xmlns="http://www.w3.org/2000/svg" xmlns:svg="http://www.w3.org/2000/svg" width="24" height="24" viewBox="0 0 24 24" fill="currentColor" tags="electricity,energy,electronics,socket,outlet" categories="devices,development">
  
  <path d="M 9 1 A 1 1 0 0 0 8 2 L 8 7 L 6 7 A 1.0001 1.0001 0 0 0 5 8 L 5 13 C 5 15.749573 7.2504263 18 10 18 L 11 18 L 11 22 A 1 1 0 0 0 12 23 A 1 1 0 0 0 13 22 L 13 18 L 14 18 C 16.749573 18 19 15.749573 19 13 L 19 8 A 1.0001 1.0001 0 0 0 18 7 L 16 7 L 16 2 A 1 1 0 0 0 15 1 A 1 1 0 0 0 14 2 L 14 7 L 10 7 L 10 2 A 1 1 0 0 0 9 1 z M 7 9 L 9 9 L 15 9 L 17 9 L 17 13 C 17 14.668695 15.668695 16 14 16 L 12 16 L 10 16 C 8.3313045 16 7 14.668695 7 13 L 7 9 z "/>
</svg>
