<svg xmlns="http://www.w3.org/2000/svg" xmlns:svg="http://www.w3.org/2000/svg" width="24" height="24" viewBox="0 0 24 24" fill="currentColor" tags="electricity,energy,socket,outlet" categories="devices,development">
  <path d="M 9 1 A 1 1 0 0 0 8 2 L 8 7 L 6 7 L 5 7 A 1 1 0 0 0 4 8 A 1 1 0 0 0 5 9 L 5 11 C 5 14.514771 7.6162236 17.439735 11 17.927734 L 11 22 A 1 1 0 0 0 12 23 A 1 1 0 0 0 13 22 L 13 17.927734 C 16.383777 17.439735 19 14.514771 19 11 L 19 9 A 1 1 0 0 0 20 8 A 1 1 0 0 0 19 7 L 18 7 L 16 7 L 16 2 A 1 1 0 0 0 15 1 A 1 1 0 0 0 14 2 L 14 7 L 10 7 L 10 2 A 1 1 0 0 0 9 1 z M 7 9 L 9 9 L 17 9 L 17 11 C 17 13.773271 14.773269 16 12 16 C 9.2267307 16 7 13.773271 7 11 L 7 9 z "/>
</svg>
