<svg xmlns="http://www.w3.org/2000/svg" xmlns:svg="http://www.w3.org/2000/svg" width="24" height="24" viewBox="0 0 24 24" fill="currentColor" tags="electricity,energy,electronics,socket,outlet,power,voltage,current,charger" categories="devices,development">
  <path d="M 9 1 A 1 1 0 0 0 8 2 L 8 7 L 7 7 C 5.9072751 7 5 7.9072751 5 9 L 5 13 C 5 15.749579 7.2504209 18 10 18 L 11 18 L 11 22 A 1 1 0 0 0 12 23 A 1 1 0 0 0 13 22 L 13 18 L 14 18 C 16.749579 18 19 15.749579 19 13 L 19 9 C 19 7.9072751 18.092725 7 17 7 L 16 7 L 16 2 A 1 1 0 0 0 15 1 A 1 1 0 0 0 14 2 L 14 7 L 10 7 L 10 2 A 1 1 0 0 0 9 1 z M 7 9 L 9 9 L 17 9 L 17 13 C 17 14.668699 15.668699 16 14 16 L 10 16 C 8.3313011 16 7 14.668699 7 13 L 7 9 z "/>
</svg>
