<?xml version="1.0" encoding="UTF-8" standalone="no"?>
<svg xmlns="http://www.w3.org/2000/svg" xmlns:svg="http://www.w3.org/2000/svg" width="24" height="24" viewBox="0 0 24 24" fill="currentColor" tags="swiss army knife,penknife,multi-tool,multitask,blade,cutter,gadget,corkscrew" categories="tools">
  
  <path d="M 17.753906 0.93164062 C 16.619342 0.98931161 15.442984 1.4827966 14.462891 2.4628906 L 5.3046875 11.621094 C 4.9911871 11.365252 4.6912776 11.227475 4.4472656 11.105469 C 4.3525146 11.058093 4.3333396 11.040438 4.2597656 11 C 4.3333396 10.95956 4.3525147 10.94191 4.4472656 10.894531 C 4.6972652 10.769531 5.0062918 10.629523 5.328125 10.361328 C 5.6499582 10.093134 6 9.5833321 6 9 C 6 8.4166679 5.6499582 7.9068661 5.328125 7.6386719 C 5.0062918 7.3704775 4.6972652 7.2304685 4.4472656 7.1054688 C 4.3525146 7.0580933 4.3333396 7.0404381 4.2597656 7 C 4.3333396 6.9595619 4.3525146 6.9419068 4.4472656 6.8945312 C 4.6972652 6.7695316 5.0062918 6.6295225 5.328125 6.3613281 C 5.6499582 6.0931339 6 5.5833321 6 5 C 6 4.4166678 5.6499582 3.9068661 5.328125 3.6386719 C 5.0062918 3.3704775 4.6972652 3.2304684 4.4472656 3.1054688 C 4.2211656 2.9924187 4.0713226 2.9046416 4 2.8535156 L 4 2 A 1 1 0 0 0 3 1 A 1 1 0 0 0 2 2 L 2 3 C 2 3.5833321 2.3500418 4.0931339 2.671875 4.3613281 C 2.9937082 4.6295225 3.3027348 4.7695316 3.5527344 4.8945312 C 3.6474853 4.9419072 3.6666604 4.9595622 3.7402344 5 C 3.6666604 5.040438 3.6474853 5.0580931 3.5527344 5.1054688 C 3.3027348 5.2304685 2.9937082 5.3704775 2.671875 5.6386719 C 2.3500418 5.9068661 2 6.4166679 2 7 C 2 7.5833321 2.3500418 8.0931339 2.671875 8.3613281 C 2.9937082 8.6295225 3.3027348 8.7695315 3.5527344 8.8945312 C 3.6474854 8.9419067 3.6666604 8.9595619 3.7402344 9 C 3.6666604 9.0404381 3.6474854 9.0580932 3.5527344 9.1054688 C 3.3027348 9.2304684 2.9937082 9.3704775 2.671875 9.6386719 C 2.3500418 9.9068661 2 10.416668 2 11 C 2 11.583332 2.3500418 12.093134 2.671875 12.361328 C 2.9937082 12.629523 3.3027348 12.769531 3.5527344 12.894531 C 3.6747238 12.955526 3.7805065 13.012587 3.8652344 13.060547 L 2.4628906 14.462891 C 1.3427831 15.582998 0.85843613 16.958653 0.93359375 18.236328 C 1.0087513 19.514003 1.5982576 20.672476 2.4628906 21.537109 C 3.3275237 22.401743 4.485997 22.991249 5.7636719 23.066406 C 7.0413468 23.141566 8.4170019 22.657217 9.5371094 21.537109 L 17 14.074219 L 17 22 A 1.0001 1.0001 0 0 0 18 23 C 20.749573 23 23 20.749573 23 18 L 23 6.8144531 C 23.063013 6.4616057 23.08673 6.1091807 23.066406 5.7636719 C 22.991249 4.485997 22.401743 3.3275237 21.537109 2.4628906 C 20.672476 1.5982576 19.514003 1.0087513 18.236328 0.93359375 C 18.076619 0.92419905 17.915987 0.92340191 17.753906 0.93164062 z M 17.84375 2.9257812 C 17.935234 2.9222658 18.026325 2.9243426 18.117188 2.9296875 C 18.844092 2.9724465 19.572682 3.326589 20.123047 3.8769531 C 20.624924 4.3788297 20.960619 5.0295457 21.048828 5.6914062 C 21.048914 5.6920504 21.048743 5.6927152 21.048828 5.6933594 A 1 1 0 0 0 21 6 L 21 6.6699219 C 20.882463 7.1461434 20.615628 7.6304657 20.123047 8.1230469 L 8.1230469 20.123047 C 7.3564922 20.889601 6.6097165 21.113072 5.8828125 21.070312 C 5.1559085 21.027554 4.4273173 20.673411 3.8769531 20.123047 C 3.326589 19.572682 2.9724468 18.844092 2.9296875 18.117188 C 2.8869282 17.390284 3.1103985 16.643508 3.8769531 15.876953 L 15.876953 3.8769531 C 16.547689 3.2062178 17.203364 2.9503895 17.84375 2.9257812 z M 18 5 A 1 1 0 0 0 17 6 A 1 1 0 0 0 18 7 L 18.009766 7 A 1 1 0 0 0 19.009766 6 A 1 1 0 0 0 18.009766 5 L 18 5 z M 21 10.074219 L 21 18 C 21 19.276014 20.1125 20.150854 19 20.587891 L 19 12.074219 L 21 10.074219 z M 6 17 A 1 1 0 0 0 5 18 A 1 1 0 0 0 6 19 L 6.0097656 19 A 1 1 0 0 0 7.0097656 18 A 1 1 0 0 0 6.0097656 17 L 6 17 z "/>
</svg>
