<svg xmlns="http://www.w3.org/2000/svg" xmlns:svg="http://www.w3.org/2000/svg" width="24" height="24" viewBox="0 0 24 24" fill="currentColor" tags="logo,save" categories="brands">
  <path d="M 4 2 C 2.3549904 2 1 3.3549904 1 5 L 1 11 C 1 17.063291 5.9367135 22 12 22 C 18.063287 22 23 17.063291 23 11 L 23 5 C 23 3.3549904 21.64501 2 20 2 L 4 2 z M 4 4 L 20 4 C 20.564129 4 21 4.4358706 21 5 L 21 11 C 21 15.982411 16.982408 20 12 20 C 7.0175918 20 3 15.982411 3 11 L 3 5 C 3 4.4358706 3.4358706 4 4 4 z M 8 9 A 1 1 0 0 0 7.2929688 9.2929688 A 1 1 0 0 0 7.2929688 10.707031 L 11.292969 14.707031 A 1.0001 1.0001 0 0 0 12.707031 14.707031 L 16.707031 10.707031 A 1 1 0 0 0 16.707031 9.2929688 A 1 1 0 0 0 15.292969 9.2929688 L 12 12.585938 L 8.7070312 9.2929688 A 1 1 0 0 0 8 9 z "/>
</svg>
