<?xml version="1.0" encoding="UTF-8" standalone="no"?>
<svg xmlns="http://www.w3.org/2000/svg" xmlns:svg="http://www.w3.org/2000/svg" width="24" height="24" viewBox="0 0 24 24" fill="currentColor" tags="swiss army knife,penknife,multi-tool,multitask,blade,cutter,gadget,corkscrew" categories="tools">
  <path d="M 17.753906 0.93164062 C 16.61934 0.98931143 15.442986 1.4827946 14.462891 2.4628906 L 5.3046875 11.621094 C 4.9909601 11.364922 4.6914405 11.227556 4.4472656 11.105469 C 4.3525144 11.058093 4.3333397 11.040438 4.2597656 11 C 4.3333396 10.95956 4.3525146 10.94191 4.4472656 10.894531 C 4.6972656 10.769531 5.0062912 10.629523 5.328125 10.361328 C 5.6499588 10.093133 6 9.5833333 6 9 C 6 8.4166667 5.6499588 7.9068667 5.328125 7.6386719 C 5.0062912 7.3704771 4.6972656 7.2304687 4.4472656 7.1054688 C 4.3525144 7.0580931 4.3333397 7.0404382 4.2597656 7 C 4.3333396 6.959562 4.3525146 6.941907 4.4472656 6.8945312 C 4.6972656 6.7695312 5.0062912 6.6295229 5.328125 6.3613281 C 5.6499588 6.0931333 6 5.5833333 6 5 C 6 4.4166667 5.6499588 3.9068667 5.328125 3.6386719 C 5.0062912 3.3704771 4.6972656 3.2304687 4.4472656 3.1054688 C 4.2211651 2.9924184 4.0713227 2.9046417 4 2.8535156 L 4 2 A 1 1 0 0 0 3 1 A 1 1 0 0 0 2 2 L 2 3 C 2 3.5833333 2.3500412 4.0931333 2.671875 4.3613281 C 2.9937088 4.6295229 3.3027344 4.7695314 3.5527344 4.8945312 C 3.6474854 4.9419072 3.6666603 4.9595622 3.7402344 5 C 3.6666604 5.040438 3.6474854 5.058093 3.5527344 5.1054688 C 3.3027344 5.2304688 2.9937088 5.3704771 2.671875 5.6386719 C 2.3500412 5.9068667 2 6.4166667 2 7 C 2 7.5833333 2.3500412 8.0931333 2.671875 8.3613281 C 2.9937088 8.6295229 3.3027344 8.7695312 3.5527344 8.8945312 C 3.6474856 8.9419068 3.6666603 8.9595618 3.7402344 9 C 3.6666604 9.040438 3.6474854 9.0580929 3.5527344 9.1054688 C 3.3027344 9.2304688 2.9937088 9.3704771 2.671875 9.6386719 C 2.3500412 9.9068667 2 10.416667 2 11 C 2 11.583333 2.3500412 12.093133 2.671875 12.361328 C 2.9937088 12.629523 3.3027344 12.769531 3.5527344 12.894531 C 3.6739552 12.955142 3.7807502 13.012771 3.8652344 13.060547 L 2.4628906 14.462891 C 1.3427809 15.583 0.85843597 16.958651 0.93359375 18.236328 C 1.0087515 19.514006 1.5982559 20.672475 2.4628906 21.537109 C 3.3275254 22.401744 4.4859944 22.991248 5.7636719 23.066406 C 7.0413494 23.141566 8.4169997 22.657219 9.5371094 21.537109 L 17 14.074219 L 17 22 A 1.0001 1.0001 0 0 0 18 23 C 20.749579 23 23 20.749579 23 18 L 23 6.8320312 C 23.065455 6.4734079 23.087063 6.1148331 23.066406 5.7636719 C 22.991248 4.4859944 22.401744 3.3275254 21.537109 2.4628906 C 20.672475 1.5982559 19.514006 1.0087515 18.236328 0.93359375 C 18.076618 0.92419903 17.915987 0.92340194 17.753906 0.93164062 z M 17.84375 2.9257812 C 17.935234 2.9222658 18.026324 2.9243426 18.117188 2.9296875 C 18.844093 2.9724465 19.572682 3.3265879 20.123047 3.8769531 C 20.623381 4.3772878 20.961309 5.0257937 21.050781 5.6855469 A 1 1 0 0 0 21 6 L 21 6.6757812 C 20.881691 7.1500636 20.613552 7.632542 20.123047 8.1230469 L 17.302734 10.943359 A 1 1 0 0 0 17.283203 10.962891 L 8.1230469 20.123047 C 7.3564907 20.889603 6.6097179 21.113072 5.8828125 21.070312 C 5.1559071 21.027553 4.4273184 20.673412 3.8769531 20.123047 C 3.3265879 19.572682 2.9724468 18.844093 2.9296875 18.117188 C 2.8869282 17.390282 3.110397 16.643509 3.8769531 15.876953 L 15.876953 3.8769531 C 16.54769 3.2062165 17.203363 2.9503894 17.84375 2.9257812 z M 18 5 A 1 1 0 0 0 17 6 A 1 1 0 0 0 18 7 L 18.009766 7 A 1 1 0 0 0 19.009766 6 A 1 1 0 0 0 18.009766 5 L 18 5 z M 21 10.074219 L 21 18 C 21 19.276016 20.112502 20.150853 19 20.587891 L 19 12.074219 L 21 10.074219 z M 6 17 A 1 1 0 0 0 5 18 A 1 1 0 0 0 6 19 L 6.0097656 19 A 1 1 0 0 0 7.0097656 18 A 1 1 0 0 0 6.0097656 17 L 6 17 z "/>
</svg>
