<?xml version="1.0" encoding="UTF-8" standalone="no"?>
<svg xmlns="http://www.w3.org/2000/svg" xmlns:svg="http://www.w3.org/2000/svg" width="24" height="24" viewBox="0 0 24 24" fill="currentColor" tags="audio,music,mic,talk,voice,subscribe,subscription,stream" categories="multimedia,social">
  <path d="M 12 1 C 7.0694936 1 3.5476628 4.2778822 2.4023438 8.1914062 C 1.2570246 12.10493 2.45647 16.763912 6.6113281 19.421875 A 1 1 0 0 0 7.9921875 19.119141 A 1 1 0 0 0 7.6894531 17.738281 C 4.2672645 15.549024 3.3960898 11.918624 4.3222656 8.7539062 C 5.2484415 5.5891887 7.939459 3 12 3 C 16.060541 3 18.751559 5.5891887 19.677734 8.7539062 C 20.60391 11.918624 19.73273 15.549024 16.310547 17.738281 A 1 1 0 0 0 16.007812 19.119141 A 1 1 0 0 0 17.388672 19.421875 C 21.54353 16.763912 22.742976 12.10493 21.597656 8.1914062 C 20.452337 4.2778822 16.930506 1 12 1 z M 12 5 C 7.1187955 5 4.2703681 10.694475 7.1992188 14.599609 A 1 1 0 0 0 8.5996094 14.800781 A 1 1 0 0 0 8.8007812 13.400391 C 6.7852107 10.712963 8.6409373 7 12 7 C 15.359063 7 17.214789 10.712963 15.199219 13.400391 A 1 1 0 0 0 15.400391 14.800781 A 1 1 0 0 0 16.800781 14.599609 C 19.729632 10.694475 16.881204 5 12 5 z M 12 9 C 10.907277 9 10 9.9072773 10 11 C 10 12.092723 10.907277 13 12 13 C 13.092723 13 14 12.092723 14 11 C 14 9.9072773 13.092723 9 12 9 z M 12 15 C 11.527778 15 11.042118 15.152014 10.648438 15.501953 C 10.254756 15.851892 10 16.416668 10 17 A 1.0001 1.0001 0 0 0 10.005859 17.111328 L 10.505859 21.611328 L 10.5 21.5 C 10.5 21.916666 10.692256 22.356441 10.992188 22.623047 C 11.292118 22.889653 11.652778 23 12 23 C 12.347222 23 12.707881 22.889653 13.007812 22.623047 C 13.307743 22.356441 13.5 21.916666 13.5 21.5 L 13.494141 21.611328 L 13.994141 17.111328 A 1.0001 1.0001 0 0 0 14 17 C 14 16.416668 13.745243 15.851892 13.351562 15.501953 C 12.957881 15.152014 12.472222 15 12 15 z "/>
</svg>
