<?xml version="1.0" encoding="UTF-8" standalone="no"?>
<svg xmlns="http://www.w3.org/2000/svg" xmlns:svg="http://www.w3.org/2000/svg" width="24" height="24" viewBox="0 0 24 24" fill="currentColor" tags="mouse" categories="cursors">
  <path d="M 2 1 A 1 1 0 0 0 1.2929688 1.2929688 A 1 1 0 0 0 1.2929688 2.7070312 L 5 6.4140625 L 5 11.90625 C 4.5503026 11.714977 4.0767918 11.637439 3.6289062 11.677734 C 2.878318 11.745264 2.2173192 12.098493 1.7265625 12.601562 C 1.2358058 13.104631 0.8985218 13.77336 0.84960938 14.525391 C 0.80069698 15.277421 1.0768594 16.097371 1.6777344 16.742188 A 1.0001 1.0001 0 0 0 1.6972656 16.761719 L 5.2871094 20.400391 C 7.0473959 22.191611 9.4943713 23.137493 12 23 L 12.003906 23 L 14 23 C 16.050751 23.000075 18.028221 22.297227 19.615234 21.029297 L 21.292969 22.707031 A 1 1 0 0 0 22.707031 22.707031 A 1 1 0 0 0 22.707031 21.292969 L 20.363281 18.949219 L 6.7382812 5.3261719 A 1 1 0 0 0 6.6738281 5.2617188 L 2.7070312 1.2929688 A 1 1 0 0 0 2 1 z M 7.9003906 1.0019531 C 7.7303054 1.0071866 7.5574813 1.0282781 7.3847656 1.0644531 A 1 1 0 0 0 6.6113281 2.2480469 A 1 1 0 0 0 7.7949219 3.0214844 C 8.4372794 2.8869437 8.9998281 3.343704 9 4 L 9 4.5 A 1 1 0 0 0 10 5.5 A 1 1 0 0 0 11 4.5 L 11 4 C 10.999553 2.294187 9.5445476 0.95136283 7.9003906 1.0019531 z M 12.621094 6.1035156 A 1 1 0 0 0 11.693359 6.78125 A 1 1 0 0 0 12.316406 8.0507812 C 12.618363 8.1543502 12.850053 8.394538 12.945312 8.6992188 A 1 1 0 0 0 13.501953 9.3164062 A 1 1 0 0 0 13.791016 9.65625 A 1 1 0 0 0 15.185547 9.421875 C 15.501793 8.9770811 15.904541 8.921178 16.304688 9.0488281 C 16.704835 9.1764783 16.999749 9.4542408 17 10 L 17 11 A 1.0001 1.0001 0 0 0 19 11 C 19 10.583334 19.120244 10.398107 19.289062 10.248047 C 19.457881 10.097986 19.722222 10 20 10 C 20.277778 10 20.542119 10.09799 20.710938 10.248047 C 20.879756 10.398107 21 10.583334 21 11 L 21 14 A 1.0001 1.0001 0 0 0 21 14.003906 C 21.0024 14.654657 20.91484 15.301387 20.738281 15.927734 A 1 1 0 0 0 21.427734 17.162109 A 1 1 0 0 0 22.662109 16.470703 C 22.889106 15.66541 23.003091 14.832769 23 13.996094 L 23 11 C 23 10.083334 22.620244 9.268559 22.039062 8.7519531 C 21.457881 8.2353472 20.722222 8 20 8 C 19.470811 8 18.983508 8.2798289 18.505859 8.5507812 C 18.122129 7.8959324 17.593255 7.3598691 16.912109 7.1425781 C 16.345853 6.9619376 15.709379 6.9563798 15.113281 7.1386719 C 14.910946 7.2005478 14.714251 7.286987 14.525391 7.3925781 C 14.164556 6.8219921 13.617124 6.3819302 12.964844 6.1582031 A 1 1 0 0 0 12.621094 6.1035156 z M 7 8.4140625 L 18.191406 19.605469 C 16.988382 20.505514 15.52045 21.000056 14 21 L 12 21 A 1.0001 1.0001 0 0 0 11.9375 21.001953 C 9.9873698 21.122959 8.0824094 20.393585 6.7128906 19 A 1.0001 1.0001 0 0 0 6.7128906 18.998047 L 3.140625 15.378906 L 3.1386719 15.376953 C 2.8751708 15.093199 2.8313012 14.877681 2.8457031 14.65625 C 2.8601521 14.434094 2.9726014 14.188305 3.1582031 13.998047 C 3.3438049 13.807788 3.5849111 13.68987 3.8066406 13.669922 C 4.0271379 13.650082 4.2439275 13.692472 4.5332031 13.947266 C 4.5348231 13.948666 4.5354894 13.947734 4.5371094 13.949219 L 5.2890625 14.703125 A 1 1 0 0 0 5.296875 14.710938 L 6.2929688 15.707031 A 1 1 0 0 0 7.7070312 15.707031 A 1 1 0 0 0 7.7070312 14.292969 L 7 13.585938 L 7 8.4140625 z "/>
</svg>
