<?xml version="1.0" encoding="UTF-8" standalone="no"?>
<svg xmlns="http://www.w3.org/2000/svg" xmlns:svg="http://www.w3.org/2000/svg" width="24" height="24" viewBox="0 0 24 24" fill="currentColor" tags="mouse" categories="cursors">
  <path d="M 8 1 C 6.3549904 1 5 2.3549904 5 4 L 5 11.917969 C 4.5700594 11.738602 4.1183166 11.664532 3.6894531 11.697266 C 2.9387945 11.754556 2.2747253 12.098126 1.7773438 12.59375 C 1.2799623 13.089374 0.93299873 13.753455 0.87304688 14.503906 C 0.81309497 15.254357 1.0780574 16.077133 1.6679688 16.730469 A 1.0001 1.0001 0 0 0 1.703125 16.767578 L 5.3027344 20.367188 A 1.0001 1.0001 0 0 0 5.3046875 20.369141 C 6.9270914 21.980606 8.9952381 23 12 23 L 14 23 C 18.958718 23 23 18.958718 23 14 L 23 11 C 23 10.083334 22.620244 9.268559 22.039062 8.7519531 C 21.457881 8.2353472 20.722222 8 20 8 C 19.490649 8 18.975535 8.116966 18.511719 8.3671875 C 17.973792 7.5466582 17.044949 7 16 7 C 15.4662 7 14.963678 7.1436116 14.527344 7.3925781 C 13.991908 6.5585255 13.055258 6 12 6 C 11.650133 6 11.313384 6.0614891 11 6.1738281 L 11 4 C 11 2.3549904 9.6450096 1 8 1 z M 8 3 C 8.5641294 3 9 3.4358706 9 4 L 9 9.5 L 9 10 A 1 1 0 0 0 10 11 A 1 1 0 0 0 11 10 L 11 9 C 11 8.4358706 11.435871 8 12 8 C 12.564129 8 13 8.4358706 13 9 L 13 10 A 1 1 0 0 0 14 11 A 1 1 0 0 0 14.130859 10.992188 A 1 1 0 0 0 15 10 C 15 9.4358706 15.435871 9 16 9 C 16.564129 9 17 9.4358706 17 10 L 17 11 A 1 1 0 0 0 18 12 A 1 1 0 0 0 19 11 C 19 10.583334 19.120244 10.398107 19.289062 10.248047 C 19.457881 10.097986 19.722222 10 20 10 C 20.277778 10 20.542119 10.09799 20.710938 10.248047 C 20.879756 10.398107 21 10.583334 21 11 L 21 14 C 21 17.635473 18.255048 20.607632 14.716797 20.964844 C 14.480913 20.988658 14.242365 21 14 21 L 12 21 C 9.4060887 21 8.073677 20.300262 6.7167969 18.953125 L 6.7148438 18.951172 L 3.1523438 15.390625 L 3.1503906 15.386719 C 2.8935341 15.100427 2.8495668 14.884629 2.8671875 14.664062 C 2.8849065 14.442258 3.0014442 14.199063 3.1894531 14.011719 C 3.377462 13.824374 3.6199316 13.70834 3.8417969 13.691406 C 4.0636621 13.674476 4.2785775 13.718726 4.5664062 13.980469 L 5.2832031 14.697266 A 1 1 0 0 0 5.3027344 14.716797 L 6.2929688 15.707031 A 1 1 0 0 0 7.7070312 15.707031 A 1 1 0 0 0 7.7070312 14.292969 L 7 13.585938 L 7 4 C 7 3.4358706 7.4358706 3 8 3 z "/>
</svg>
