<svg xmlns="http://www.w3.org/2000/svg" xmlns:svg="http://www.w3.org/2000/svg" width="24" height="24" viewBox="0 0 24 24" fill="currentColor" tags="cinema,movies,films,salted,sweet,sugar,candy,snack" categories="food-beverage,multimedia">
  <path d="M 8 1 C 7.2777779 1 6.5421194 1.2353472 5.9609375 1.7519531 C 5.5691441 2.1002138 5.3239147 2.610974 5.1699219 3.1699219 C 4.610974 3.3239147 4.1002138 3.5691441 3.7519531 3.9609375 C 3.2353472 4.5421194 3 5.2777779 3 6 C 3 6.3955859 3.0699911 6.7958196 3.21875 7.171875 C 2.9907376 7.2769594 2.7835377 7.4286461 2.6152344 7.625 C 2.2661688 8.0322432 2.1214206 8.6152424 2.2128906 9.1640625 A 1.0001 1.0001 0 0 0 2.2226562 9.2109375 L 4.8222656 21.210938 L 4.8144531 21.164062 C 4.9914621 22.226152 5.9555556 23 7 23 L 9.9667969 23 L 10.033203 23 L 13.966797 23 L 14.033203 23 L 17 23 C 17.583333 23 18.025694 22.759187 18.390625 22.455078 C 18.755556 22.150969 19.06683 21.759602 19.179688 21.195312 L 19.177734 21.210938 L 21.777344 9.2109375 A 1.0001 1.0001 0 0 0 21.787109 9.1640625 C 21.878591 8.6152374 21.733831 8.0322432 21.384766 7.625 C 21.216462 7.4286461 21.009262 7.2769594 20.78125 7.171875 C 20.930009 6.7958197 21 6.3955859 21 6 C 21 5.2777779 20.764653 4.5421194 20.248047 3.9609375 C 19.899786 3.5691441 19.389026 3.3239147 18.830078 3.1699219 C 18.676085 2.610974 18.430856 2.1002138 18.039062 1.7519531 C 17.457881 1.2353472 16.722222 1 16 1 C 15.291529 1 14.575838 1.2419787 14 1.7382812 C 13.424162 1.2419786 12.708471 1 12 1 C 11.291529 1 10.575838 1.2419787 10 1.7382812 C 9.4241621 1.2419786 8.7084708 1 8 1 z M 8 3 C 8.2777779 3 8.5421194 3.0979864 8.7109375 3.2480469 C 8.8797556 3.3981073 9 3.5833337 9 4 A 1.0001 1.0001 0 0 0 11 4 C 11 3.5833337 11.120244 3.3981073 11.289062 3.2480469 C 11.45788 3.0979864 11.722222 3 12 3 C 12.277778 3 12.542119 3.0979864 12.710938 3.2480469 C 12.879755 3.3981073 13 3.5833337 13 4 A 1.0001 1.0001 0 0 0 15 4 C 15 3.5833337 15.120244 3.3981073 15.289062 3.2480469 C 15.45788 3.0979864 15.722222 3 16 3 C 16.277778 3 16.542119 3.0979864 16.710938 3.2480469 C 16.879756 3.3981073 17 3.5833337 17 4 A 1.0001 1.0001 0 0 0 18 5 C 18.416666 5 18.601893 5.1202444 18.751953 5.2890625 C 18.902014 5.4578806 19 5.7222221 19 6 C 19 6.2777779 18.902014 6.5421194 18.751953 6.7109375 C 18.601893 6.8797556 18.416666 7 18 7 L 15.033203 7 L 14.966797 7 L 9.0332031 7 L 8.9667969 7 L 6 7 C 5.5833337 7 5.3981073 6.8797556 5.2480469 6.7109375 C 5.0979864 6.5421194 5 6.2777779 5 6 C 5 5.7222221 5.0979864 5.4578806 5.2480469 5.2890625 C 5.3981073 5.1202444 5.5833337 5 6 5 A 1.0001 1.0001 0 0 0 7 4 C 7 3.5833337 7.1202444 3.3981073 7.2890625 3.2480469 C 7.4578806 3.0979864 7.7222221 3 8 3 z M 4.2226562 9 L 6 9 L 8.0683594 9 L 8.9257812 21 L 7 21 C 6.8444444 21 6.8100936 20.973843 6.7871094 20.835938 A 1.0001 1.0001 0 0 0 6.7773438 20.789062 L 4.2226562 9 z M 10.074219 9 L 13.925781 9 L 13.068359 21 L 10.931641 21 L 10.074219 9 z M 15.931641 9 L 18 9 L 19.777344 9 L 17.222656 20.789062 A 1.0001 1.0001 0 0 0 17.21875 20.804688 C 17.220357 20.796651 17.220655 20.790153 17.220703 20.787109 L 17.220703 20.785156 L 17.21875 20.785156 L 17.21875 20.787109 L 17.216797 20.789062 C 17.204284 20.805022 17.167857 20.871182 17.109375 20.919922 C 17.056203 20.964226 16.991323 20.985219 16.972656 20.994141 L 16.970703 20.996094 L 16.970703 20.998047 L 16.972656 20.998047 L 16.974609 21 L 15.074219 21 L 15.931641 9 z "/>
</svg>
