<?xml version="1.0" encoding="UTF-8" standalone="no"?>
<svg xmlns="http://www.w3.org/2000/svg" xmlns:svg="http://www.w3.org/2000/svg" width="24" height="24" viewBox="0 0 24 24" fill="currentColor" tags="cinema,movies,films,salted,sweet,sugar,candy,snack" categories="food-beverage,multimedia">
  
  <path d="M 8 1 C 7.2777793 1 6.5421182 1.2353482 5.9609375 1.7519531 C 5.5691449 2.1002131 5.3239143 2.6109751 5.1699219 3.1699219 C 4.6109751 3.3239143 4.1002131 3.5691449 3.7519531 3.9609375 C 3.2353482 4.5421182 3 5.2777793 3 6 C 3 6.396251 3.0733834 6.7952663 3.2226562 7.171875 C 2.9934473 7.2770049 2.7842874 7.4277714 2.6152344 7.625 C 2.2661694 8.0322424 2.1214208 8.6152435 2.2128906 9.1640625 A 1.0001 1.0001 0 0 0 2.2226562 9.2109375 L 4.8222656 21.210938 L 4.8144531 21.164062 C 4.9914617 22.22615 5.9555576 23 7 23 L 17 23 C 17.583332 23 18.025694 22.759187 18.390625 22.455078 C 18.755556 22.150969 19.066831 21.759601 19.179688 21.195312 L 19.177734 21.210938 L 21.777344 9.2109375 A 1.0001 1.0001 0 0 0 21.787109 9.1640625 C 21.878591 8.6152385 21.73383 8.0322424 21.384766 7.625 C 21.215712 7.4277714 21.006553 7.2770049 20.777344 7.171875 C 20.926617 6.7952663 21 6.396251 21 6 C 21 5.2777793 20.764651 4.5421182 20.248047 3.9609375 C 19.899787 3.5691449 19.389025 3.3239143 18.830078 3.1699219 C 18.676085 2.6109751 18.430856 2.1002131 18.039062 1.7519531 C 17.457882 1.2353482 16.72222 1 16 1 C 15.291531 1 14.575836 1.2419796 14 1.7382812 C 13.424164 1.2419796 12.708469 1 12 1 C 11.291531 1 10.575836 1.2419796 10 1.7382812 C 9.4241633 1.2419796 8.7084694 1 8 1 z M 8 3 C 8.2777773 3 8.5421198 3.0979867 8.7109375 3.2480469 C 8.8797552 3.398107 9 3.5833345 9 4 A 1.0001 1.0001 0 0 0 11 4 C 11 3.5833345 11.120245 3.398107 11.289062 3.2480469 C 11.457879 3.0979867 11.722222 3 12 3 C 12.277778 3 12.54212 3.0979867 12.710938 3.2480469 C 12.879754 3.398107 13 3.5833345 13 4 A 1.0001 1.0001 0 0 0 15 4 C 15 3.5833345 15.120245 3.398107 15.289062 3.2480469 C 15.457879 3.0979867 15.722222 3 16 3 C 16.277778 3 16.542121 3.0979867 16.710938 3.2480469 C 16.879755 3.398107 17 3.5833345 17 4 A 1.0001 1.0001 0 0 0 18 5 C 18.416666 5 18.601893 5.1202448 18.751953 5.2890625 C 18.902013 5.4578802 19 5.7222227 19 6 C 19 6.2777773 18.902013 6.5421198 18.751953 6.7109375 C 18.601893 6.8797552 18.416666 7 18 7 L 6 7 C 5.5833345 7 5.398107 6.8797552 5.2480469 6.7109375 C 5.0979867 6.5421198 5 6.2777773 5 6 C 5 5.7222227 5.0979867 5.4578802 5.2480469 5.2890625 C 5.398107 5.1202448 5.5833345 5 6 5 A 1.0001 1.0001 0 0 0 7 4 C 7 3.5833345 7.1202448 3.398107 7.2890625 3.2480469 C 7.4578802 3.0979867 7.7222227 3 8 3 z M 4.2226562 9 L 6 9 L 8.0683594 9 L 8.9257812 21 L 7 21 C 6.8444448 21 6.8100936 20.973843 6.7871094 20.835938 A 1.0001 1.0001 0 0 0 6.7773438 20.789062 L 4.2226562 9 z M 10.074219 9 L 13.925781 9 L 13.068359 21 L 10.931641 21 L 10.074219 9 z M 15.931641 9 L 18 9 L 19.777344 9 L 17.222656 20.789062 A 1.0001 1.0001 0 0 0 17.21875 20.804688 C 17.23161 20.740398 17.19444 20.849027 17.109375 20.919922 C 17.0243 20.990808 16.916667 21 17 21 L 15.074219 21 L 15.931641 9 z "/>
</svg>
