<svg xmlns="http://www.w3.org/2000/svg" xmlns:svg="http://www.w3.org/2000/svg" width="24" height="24" viewBox="0 0 24 24" fill="currentColor" tags="ice lolly,ice cream,sweet,food" categories="food-beverage">
  <path d="M 7.25 0.94726562 C 7.0556996 0.93754775 6.8615065 0.93794902 6.6699219 0.94921875 C 5.1372444 1.0393766 3.7379941 1.748334 2.6933594 2.7929688 C 1.6487246 3.8376035 0.93781408 5.2368538 0.84765625 6.7695312 C 0.75749842 8.3022087 1.3332498 9.9465306 2.6933594 11.306641 L 10.792969 19.40625 A 1.0001 1.0001 0 0 0 10.886719 19.490234 C 12.126747 20.454701 13.953868 20.460194 15.107422 19.306641 L 16.5 17.914062 L 21.292969 22.707031 A 1 1 0 0 0 22.707031 22.707031 A 1 1 0 0 0 22.707031 21.292969 L 17.914062 16.5 L 19.306641 15.107422 C 20.460194 13.953868 20.460194 12.046132 19.306641 10.892578 L 11.207031 2.7929688 C 10.016936 1.6028728 8.6101029 1.0152907 7.25 0.94726562 z M 7.15625 2.9414062 C 8.0225477 2.9763689 8.9122322 3.3262947 9.7929688 4.2070312 L 17.892578 12.306641 C 18.339025 12.753087 18.339025 13.246913 17.892578 13.693359 L 15.792969 15.792969 L 13.693359 17.892578 C 13.252175 18.333762 12.686456 18.338064 12.132812 17.917969 L 4.1074219 9.8925781 C 3.1008658 8.8860221 2.7879438 7.8686242 2.8457031 6.8867188 C 2.9034625 5.9048133 3.3770566 4.9373965 4.1074219 4.2070312 C 4.8377871 3.476666 5.805204 3.0030718 6.7871094 2.9453125 C 6.9098476 2.9380926 7.0324932 2.9364116 7.15625 2.9414062 z "/>
</svg>
