<?xml version="1.0" encoding="UTF-8" standalone="no"?>
<svg xmlns="http://www.w3.org/2000/svg" xmlns:svg="http://www.w3.org/2000/svg" width="24" height="24" viewBox="0 0 24 24" fill="currentColor" tags="ice lolly,ice cream,sweet,food" categories="food-beverage">
  
  <path d="M 6.9589844 0.93945312 C 6.8624166 0.93987095 6.765714 0.9435839 6.6699219 0.94921875 C 5.1372475 1.0393764 3.737992 1.748336 2.6933594 2.7929688 C 1.6487266 3.8376014 0.9378139 5.2368569 0.84765625 6.7695312 C 0.7574986 8.3022057 1.3332524 9.9465334 2.6933594 11.306641 L 10.792969 19.40625 A 1.0001 1.0001 0 0 0 10.886719 19.490234 C 12.126745 20.454699 13.953871 20.460191 15.107422 19.306641 L 16.5 17.914062 L 21.292969 22.707031 A 1 1 0 0 0 22.707031 22.707031 A 1 1 0 0 0 22.707031 21.292969 L 17.914062 16.5 L 19.306641 15.107422 C 20.460191 13.953871 20.460191 12.046129 19.306641 10.892578 L 11.207031 2.7929688 C 9.9319313 1.5178685 8.4075008 0.93318582 6.9589844 0.93945312 z M 7.15625 2.9414062 C 8.0225466 2.9763691 8.9122339 3.3262965 9.7929688 4.2070312 L 17.892578 12.306641 C 18.339024 12.753086 18.339024 13.246914 17.892578 13.693359 L 15.792969 15.792969 L 13.693359 17.892578 C 13.252177 18.333762 12.686455 18.338062 12.132812 17.917969 L 4.1074219 9.8925781 C 3.1008678 8.8860241 2.7879439 7.8686223 2.8457031 6.8867188 C 2.9034624 5.9048153 3.3770581 4.937395 4.1074219 4.2070312 C 4.8377856 3.4766676 5.805206 3.0030717 6.7871094 2.9453125 C 6.9098473 2.9380926 7.0324933 2.9364116 7.15625 2.9414062 z "/>
</svg>
