<?xml version="1.0" encoding="UTF-8" standalone="no"?>
<svg xmlns="http://www.w3.org/2000/svg" xmlns:svg="http://www.w3.org/2000/svg" width="24" height="24" viewBox="0 0 24 24" fill="currentColor" tags="currency,money,payment" categories="finance">
  <path d="M 14 2 C 12.777792 2 11.542123 2.4020631 10.585938 3.2519531 C 9.6297509 4.1018432 9 5.4167344 9 7 L 9 12 L 6 12 A 1 1 0 0 0 5 13 A 1 1 0 0 0 6 14 L 9 14 L 9 20 L 6 20 A 1 1 0 0 0 5 21 A 1 1 0 0 0 6 22 L 18 22 A 1 1 0 0 0 19 21 A 1 1 0 0 0 18 20 L 11 20 L 11 14 L 16 14 A 1 1 0 0 0 17 13 A 1 1 0 0 0 16 12 L 11 12 L 11 7 C 11 5.9167656 11.370248 5.2314068 11.914062 4.7480469 C 12.457876 4.2646869 13.222208 4 14 4 C 14.777792 4 15.542124 4.2646869 16.085938 4.7480469 C 16.629751 5.2314068 17 5.9167656 17 7 A 1 1 0 0 0 18 8 A 1 1 0 0 0 19 7 C 19 5.4167344 18.370249 4.1018432 17.414062 3.2519531 C 16.457876 2.4020631 15.222208 2 14 2 z "/>
</svg>
