<?xml version="1.0" encoding="UTF-8" standalone="no"?>
<svg xmlns="http://www.w3.org/2000/svg" xmlns:svg="http://www.w3.org/2000/svg" width="24" height="24" viewBox="0 0 24 24" fill="currentColor" tags="on,off,device,switch" categories="connectivity">
  <path d="M 2 1 A 1 1 0 0 0 1.2929688 1.2929688 A 1 1 0 0 0 1.2929688 2.7070312 L 4.7246094 6.1386719 C 1.0191657 10.004309 1.0002337 16.246327 4.8769531 20.123047 C 8.7536726 23.999767 14.995691 23.980834 18.861328 20.275391 L 21.292969 22.707031 A 1 1 0 0 0 22.707031 22.707031 A 1 1 0 0 0 22.707031 21.292969 L 2.7070312 1.2929688 A 1 1 0 0 0 2 1 z M 12 1 A 1 1 0 0 0 11 2 L 11 6 A 1 1 0 0 0 12 7 A 1 1 0 0 0 13 6 L 13 2 A 1 1 0 0 0 12 1 z M 18.359375 5.640625 A 1 1 0 0 0 17.652344 5.9335938 A 1 1 0 0 0 17.652344 7.3476562 C 19.596754 9.2930157 20.405404 12.095466 19.794922 14.777344 A 1 1 0 0 0 20.548828 15.974609 A 1 1 0 0 0 21.744141 15.222656 C 22.506578 11.873234 21.494799 8.3631712 19.066406 5.9335938 A 1 1 0 0 0 18.359375 5.640625 z M 6.1367188 7.5507812 L 17.449219 18.863281 C 14.344207 21.817467 9.4012078 21.819177 6.2910156 18.708984 C 3.1808235 15.598792 3.1825326 10.655792 6.1367188 7.5507812 z "/>
</svg>
