<?xml version="1.0" encoding="UTF-8" standalone="no"?>
<svg xmlns="http://www.w3.org/2000/svg" xmlns:svg="http://www.w3.org/2000/svg" width="24" height="24" viewBox="0 0 24 24" fill="currentColor" tags="on,off,device,switch,toggle,binary,boolean,reboot,restart,button,keyboard,troubleshoot" categories="connectivity">
  <path d="M 12 1 A 1 1 0 0 0 11 2 L 11 12 A 1 1 0 0 0 12 13 A 1 1 0 0 0 13 12 L 13 2 A 1 1 0 0 0 12 1 z M 18.400391 5.5996094 A 1 1 0 0 0 17.693359 5.8925781 A 1 1 0 0 0 17.693359 7.3066406 C 20.23825 9.852468 20.582141 13.220118 19.429688 16.013672 C 18.277234 18.807225 15.65972 20.951617 12.060547 20.962891 C 8.4613733 20.974164 5.8281348 18.844873 4.6582031 16.058594 C 3.4882714 13.272315 3.812905 9.9035171 6.3417969 7.3417969 A 1 1 0 0 0 6.3320312 5.9277344 A 1 1 0 0 0 4.9179688 5.9375 C 1.8235773 9.0720609 1.3628644 13.376918 2.8144531 16.833984 C 4.2660419 20.29105 7.6622637 22.976686 12.066406 22.962891 C 16.470549 22.949091 19.849394 20.241482 21.279297 16.775391 C 22.7092 13.309299 22.22139 9.0076923 19.107422 5.8925781 A 1 1 0 0 0 18.400391 5.5996094 z "/>
</svg>
