<?xml version="1.0" encoding="UTF-8" standalone="no"?>
<svg xmlns="http://www.w3.org/2000/svg" xmlns:svg="http://www.w3.org/2000/svg" width="24" height="24" viewBox="0 0 24 24" fill="currentColor" tags="on,off,device,switch,toggle,binary,boolean,reboot,restart,button,keyboard,troubleshoot" categories="connectivity">
  
  <path d="M 12 1 A 1 1 0 0 0 11 2 L 11 12 A 1 1 0 0 0 12 13 A 1 1 0 0 0 13 12 L 13 2 A 1 1 0 0 0 12 1 z M 18.400391 5.5996094 A 1 1 0 0 0 17.693359 5.8925781 A 1 1 0 0 0 17.693359 7.3066406 C 20.238245 9.852463 20.582139 13.220124 19.429688 16.013672 C 18.277237 18.807219 15.659713 20.951617 12.060547 20.962891 C 8.4613805 20.974164 5.8281326 18.844867 4.6582031 16.058594 C 3.4882738 13.272321 3.81291 9.903512 6.3417969 7.3417969 A 1 1 0 0 0 6.3320312 5.9277344 A 1 1 0 0 0 4.9179688 5.9375 C 1.8235833 9.0720546 1.3628673 13.376926 2.8144531 16.833984 C 4.266039 20.291044 7.6622725 22.976686 12.066406 22.962891 C 16.470541 22.949091 19.849396 20.241475 21.279297 16.775391 C 22.709196 13.309305 22.221383 9.0076861 19.107422 5.8925781 A 1 1 0 0 0 18.400391 5.5996094 z "/>
</svg>
