<?xml version="1.0" encoding="UTF-8" standalone="no"?>
<svg xmlns="http://www.w3.org/2000/svg" xmlns:svg="http://www.w3.org/2000/svg" width="24" height="24" viewBox="0 0 24 24" fill="currentColor" tags="on,off,device,switch,toggle,binary,boolean,reboot,restart,button,keyboard,troubleshoot" categories="connectivity">
  <path d="M 12 1 C 5.9367246 1 1 5.9367246 1 12 C 1 18.063276 5.9367246 23 12 23 C 18.063276 23 23 18.063276 23 12 C 23 5.9367246 18.063276 1 12 1 z M 12 3 C 16.982397 3 21 7.0176026 21 12 C 21 16.982397 16.982397 21 12 21 C 7.0176026 21 3 16.982397 3 12 C 3 7.0176026 7.0176026 3 12 3 z M 12 5 A 1 1 0 0 0 11 6 L 11 12 A 1 1 0 0 0 12 13 A 1 1 0 0 0 13 12 L 13 6 A 1 1 0 0 0 12 5 z M 8.0214844 6.5 A 1 1 0 0 0 7.3085938 6.7773438 C 5.0733781 8.9195597 4.643874 11.958724 5.5859375 14.431641 C 6.528001 16.904557 8.8689083 18.887955 11.962891 19 A 1.0001 1.0001 0 0 0 11.994141 19 C 15.179579 19.01671 17.612878 17.010578 18.572266 14.492188 C 19.531653 11.973796 19.051266 8.8569496 16.662109 6.75 A 1 1 0 0 0 15.25 6.8378906 A 1 1 0 0 0 15.337891 8.25 C 17.106965 9.8101119 17.397259 11.957195 16.703125 13.779297 C 16.010852 15.596515 14.371994 17.002787 12.023438 16.998047 C 9.7381563 16.909562 8.1377384 15.510733 7.4550781 13.71875 C 6.7709566 11.922931 7.0347672 9.8103681 8.6914062 8.2226562 A 1 1 0 0 0 8.7226562 6.8085938 A 1 1 0 0 0 8.0214844 6.5 z "/>
</svg>
