<?xml version="1.0" encoding="UTF-8" standalone="no"?>
<svg xmlns="http://www.w3.org/2000/svg" xmlns:svg="http://www.w3.org/2000/svg" width="24" height="24" viewBox="0 0 24 24" fill="currentColor" tags="screen,whiteboard,marker pens,markers,blackboard,chalk,easel,school,learning,lesson,office,meeting,project,planning" categories="multimedia,photography,devices,communication,design">
  <path d="M 2 2 A 1 1 0 0 0 1 3 A 1 1 0 0 0 2 4 L 2 14 C 2 15.645006 3.3549936 17 5 17 L 9.5859375 17 L 6.2929688 20.292969 A 1 1 0 0 0 6.2929688 21.707031 A 1 1 0 0 0 7.7070312 21.707031 L 12 17.414062 L 16.292969 21.707031 A 1 1 0 0 0 17.707031 21.707031 A 1 1 0 0 0 17.707031 20.292969 L 14.414062 17 L 19 17 C 20.645006 17 22 15.645006 22 14 L 22 4 A 1 1 0 0 0 23 3 A 1 1 0 0 0 22 2 L 2 2 z M 4 4 L 20 4 L 20 14 C 20 14.564128 19.564128 15 19 15 L 5 15 C 4.4358718 15 4 14.564128 4 14 L 4 4 z "/>
</svg>
