<?xml version="1.0" encoding="UTF-8" standalone="no"?>
<svg xmlns="http://www.w3.org/2000/svg" xmlns:svg="http://www.w3.org/2000/svg" width="24" height="24" viewBox="0 0 24 24" fill="currentColor" tags="fax,office,device,success,printed" categories="devices">
  <path d="M 7 1 C 5.9072751 1 5 1.9072751 5 3 L 5 8 L 4 8 C 2.3549904 8 1 9.3549904 1 11 L 1 16 C 1 17.64501 2.3549904 19 4 19 L 5 19 L 5 21 C 5 22.092725 5.9072751 23 7 23 L 13.5 23 A 1 1 0 0 0 14.5 22 A 1 1 0 0 0 13.5 21 L 7 21 L 7 15 L 17 15 L 17 15.5 A 1 1 0 0 0 18 16.5 A 1 1 0 0 0 19 15.5 L 19 15 C 19 13.907275 18.092725 13 17 13 L 7 13 C 5.9072751 13 5 13.907275 5 15 L 5 17 L 4 17 C 3.4358706 17 3 16.564129 3 16 L 3 11 C 3 10.435871 3.4358706 10 4 10 L 6 10 L 18 10 L 20 10 C 20.564129 10 21 10.435871 21 11 L 21 13 A 1 1 0 0 0 22 14 A 1 1 0 0 0 23 13 L 23 11 C 23 9.3549904 21.64501 8 20 8 L 19 8 L 19 3 C 19 1.9072751 18.092725 1 17 1 L 7 1 z M 7 3 L 17 3 L 17 8 L 7 8 L 7 3 z M 22 16 A 1 1 0 0 0 21.292969 16.292969 L 18 19.585938 L 16.707031 18.292969 A 1 1 0 0 0 15.292969 18.292969 A 1 1 0 0 0 15.292969 19.707031 L 17.292969 21.707031 A 1.0001 1.0001 0 0 0 18.707031 21.707031 L 22.707031 17.707031 A 1 1 0 0 0 22.707031 16.292969 A 1 1 0 0 0 22 16 z "/>
</svg>
