<svg xmlns="http://www.w3.org/2000/svg" xmlns:svg="http://www.w3.org/2000/svg" width="24" height="24" viewBox="0 0 24 24" fill="currentColor" tags="fax,office,device" categories="devices">
  <path d="M 7 1 C 5.9072751 1 5 1.9072751 5 3 L 5 8 L 4 8 C 2.3549904 8 1 9.3549904 1 11 L 1 16 C 1 17.64501 2.3549904 19 4 19 L 5 19 L 5 21 C 5 22.090703 5.9092972 23 7 23 L 17 23 C 18.090703 23 19 22.090703 19 21 L 19 19 L 20 19 C 21.64501 19 23 17.64501 23 16 L 23 11 C 23 9.3549904 21.64501 8 20 8 L 19 8 L 19 3 C 19 1.9072751 18.092725 1 17 1 L 7 1 z M 7 3 L 17 3 L 17 8 L 7 8 L 7 3 z M 4 10 L 20 10 C 20.564129 10 21 10.435871 21 11 L 21 16 C 21 16.564129 20.564129 17 20 17 L 19 17 L 19 15 C 19 13.909297 18.090703 13 17 13 L 7 13 C 5.9092972 13 5 13.909297 5 15 L 5 17 L 4 17 C 3.4358706 17 3 16.564129 3 16 L 3 11 C 3 10.435871 3.4358706 10 4 10 z M 7 15 L 17 15 L 17 18 L 17 21 L 7 21 L 7 18 L 7 15 z "/>
</svg>
