<?xml version="1.0" encoding="UTF-8" standalone="no"?>
<svg xmlns="http://www.w3.org/2000/svg" xmlns:svg="http://www.w3.org/2000/svg" width="24" height="24" viewBox="0 0 24 24" fill="currentColor" tags="fax,office,device" categories="devices,account">
  <path d="M 6 1 A 1.0001 1.0001 0 0 0 5 2 L 5 8 L 4 8 C 2.3549936 8 1 9.3549936 1 11 L 1 16 C 1 17.645006 2.3549936 19 4 19 L 5 19 L 5 22 A 1.0001 1.0001 0 0 0 6 23 L 18 23 A 1.0001 1.0001 0 0 0 19 22 L 19 19 L 20 19 C 21.645006 19 23 17.645006 23 16 L 23 11 C 23 9.3549936 21.645006 8 20 8 L 19 8 L 19 2 A 1.0001 1.0001 0 0 0 18 1 L 6 1 z M 7 3 L 17 3 L 17 8 L 7 8 L 7 3 z M 4 10 L 20 10 C 20.564128 10 21 10.435872 21 11 L 21 16 C 21 16.564128 20.564128 17 20 17 L 19 17 L 19 14 A 1.0001 1.0001 0 0 0 18 13 L 6 13 A 1.0001 1.0001 0 0 0 5 14 L 5 17 L 4 17 C 3.4358718 17 3 16.564128 3 16 L 3 11 C 3 10.435872 3.4358718 10 4 10 z M 7 15 L 17 15 L 17 18 L 17 21 L 7 21 L 7 18 L 7 15 z "/>
</svg>
