<svg xmlns="http://www.w3.org/2000/svg" xmlns:svg="http://www.w3.org/2000/svg" width="24" height="24" viewBox="0 0 24 24" fill="currentColor" tags="fax,office,device,cross,cancel,remove,error" categories="devices">
  <path d="M 7 1 C 5.9072751 1 5 1.9072751 5 3 L 5 8 L 4 8 C 2.3549904 8 1 9.3549904 1 11 L 1 16 C 1 17.64501 2.3549904 19 4 19 L 5 19 L 5 21 C 5 22.092725 5.9072751 23 7 23 L 12.53125 23 A 1 1 0 0 0 13.53125 22 A 1 1 0 0 0 12.53125 21 L 7 21 L 7 15 L 13.376953 15 A 1 1 0 0 0 14.376953 14 A 1 1 0 0 0 13.376953 13 L 7 13 C 5.9072751 13 5 13.907275 5 15 L 5 17 L 4 17 C 3.4358706 17 3 16.564129 3 16 L 3 11 C 3 10.435871 3.4358706 10 4 10 L 6 10 L 18 10 L 20 10 C 20.564129 10 21 10.435871 21 11 L 21 12.5 A 1 1 0 0 0 22 13.5 A 1 1 0 0 0 23 12.5 L 23 11 C 23 9.3549904 21.64501 8 20 8 L 19 8 L 19 3 C 19 1.9072751 18.092725 1 17 1 L 7 1 z M 7 3 L 17 3 L 17 8 L 7 8 L 7 3 z M 16.5 15.5 A 1 1 0 0 0 15.792969 15.792969 A 1 1 0 0 0 15.792969 17.207031 L 17.585938 19 L 15.792969 20.792969 A 1 1 0 0 0 15.792969 22.207031 A 1 1 0 0 0 17.207031 22.207031 L 19 20.414062 L 20.792969 22.207031 A 1 1 0 0 0 22.207031 22.207031 A 1 1 0 0 0 22.207031 20.792969 L 20.414062 19 L 22.207031 17.207031 A 1 1 0 0 0 22.207031 15.792969 A 1 1 0 0 0 20.792969 15.792969 L 19 17.585938 L 17.207031 15.792969 A 1 1 0 0 0 16.5 15.5 z "/>
</svg>
