<?xml version="1.0" encoding="UTF-8" standalone="no"?>
<svg xmlns="http://www.w3.org/2000/svg" xmlns:svg="http://www.w3.org/2000/svg" width="24" height="24" viewBox="0 0 24 24" fill="currentColor" tags="cinema,film,movie,home video,presentation,slideshow,office,meeting,project,planning" categories="multimedia,photography,devices,communication">
  <path d="M 9 2 A 1 1 0 0 0 8 3 L 8 6 A 1 1 0 0 0 9 7 A 1 1 0 0 0 10 6 L 10 3 A 1 1 0 0 0 9 2 z M 3 4 A 1 1 0 0 0 2.2929688 4.2929688 A 1 1 0 0 0 2.2929688 5.7070312 L 4.2929688 7.7070312 A 1 1 0 0 0 5.7070312 7.7070312 A 1 1 0 0 0 5.7070312 6.2929688 L 3.7070312 4.2929688 A 1 1 0 0 0 3 4 z M 15 4 A 1 1 0 0 0 14.292969 4.2929688 L 12.292969 6.2929688 A 1 1 0 0 0 12.292969 7.7070312 A 1 1 0 0 0 13.707031 7.7070312 L 15.707031 5.7070312 A 1 1 0 0 0 15.707031 4.2929688 A 1 1 0 0 0 15 4 z M 9 9 C 7.5296062 9 6.2360467 9.8074353 5.5410156 11 L 4 11 C 2.3549904 11 1 12.35499 1 14 L 1 18 C 1 19.64501 2.3549904 21 4 21 L 20 21 C 21.64501 21 23 19.64501 23 18 L 23 14 C 23 12.35499 21.64501 11 20 11 L 12.458984 11 C 11.763953 9.8074353 10.470394 9 9 9 z M 9 11 C 10.116414 11 11 11.883586 11 13 C 11 14.116414 10.116414 15 9 15 C 7.8835859 15 7 14.116414 7 13 C 7 11.883586 7.8835859 11 9 11 z M 4 13 L 5 13 C 5 15.197294 6.8027056 17 9 17 C 11.197294 17 13 15.197294 13 13 L 20 13 C 20.564129 13 21 13.435871 21 14 L 21 18 C 21 18.564129 20.564129 19 20 19 L 4 19 C 3.4358706 19 3 18.564129 3 18 L 3 14 C 3 13.435871 3.4358706 13 4 13 z M 16 15 A 1 1 0 0 0 15 16 A 1 1 0 0 0 16 17 L 18 17 A 1 1 0 0 0 19 16 A 1 1 0 0 0 18 15 L 16 15 z "/>
</svg>
