<svg xmlns="http://www.w3.org/2000/svg" xmlns:svg="http://www.w3.org/2000/svg" width="24" height="24" viewBox="0 0 24 24" fill="currentColor" tags="screens,sizes,rotate,rotation,adjust,aspect ratio,16:9,widescreen,4:3,resolution,responsive,mobile,desktop,dimensions,monitor,orientation,portrait,landscape" categories="layout,design,photography,devices">
  <path d="M 4 3 C 2.3552972 3 1 4.3552972 1 6 L 1 9 L 1 18 C 1 19.644703 2.3552972 21 4 21 L 17 21 L 20 21 C 21.644703 21 23 19.644703 23 18 L 23 6 C 23 4.3552972 21.644703 3 20 3 L 4 3 z M 4 5 L 20 5 C 20.571297 5 21 5.4287028 21 6 L 21 18 C 21 18.571297 20.571297 19 20 19 L 18 19 L 18 11 C 18 9.3549904 16.64501 8 15 8 L 12 8 L 3 8 L 3 6 C 3 5.4287028 3.4287028 5 4 5 z M 3 10 L 11 10 L 11 19 L 4 19 C 3.4287028 19 3 18.571297 3 18 L 3 10 z M 13 10 L 15 10 C 15.564129 10 16 10.435871 16 11 L 16 19 L 13 19 L 13 10 z "/>
</svg>
