<svg xmlns="http://www.w3.org/2000/svg" xmlns:svg="http://www.w3.org/2000/svg" width="24" height="24" viewBox="0 0 24 24" fill="currentColor" tags="component,module,part,piece" categories="development,gaming">
  <path d="M 12 1.0058594 C 11.124159 1.0058594 10.248381 1.3375218 9.5859375 2 L 7.9023438 3.6816406 C 6.8320791 4.750826 7.3802898 6.6889068 8.8515625 7.0410156 C 10.041193 7.326386 10.427376 8.6953841 9.5625 9.5605469 C 8.6980285 10.425305 7.3296121 10.039791 7.0429688 8.8515625 L 7.0429688 8.8496094 C 6.6897297 7.3796646 4.7503973 6.8325082 3.6816406 7.9023438 L 2 9.5859375 C 0.67504366 10.910825 0.67504366 13.089174 2 14.414062 L 3.6835938 16.095703 C 1.0734972 16.721817 0.12581907 20.076361 2.0234375 21.974609 C 3.9210559 23.872857 7.2753642 22.928248 7.9023438 20.318359 L 9.5859375 22 C 10.910825 23.324956 13.089175 23.324956 14.414062 22 L 16.097656 20.318359 C 17.167921 19.249174 16.619709 17.311093 15.148438 16.958984 C 13.958806 16.673614 13.572624 15.304616 14.4375 14.439453 C 15.302376 13.57429 16.671266 13.960855 16.957031 15.150391 C 17.310127 16.619738 19.24738 17.165753 20.316406 16.097656 L 22 14.414062 C 23.324956 13.089175 23.324956 10.910825 22 9.5859375 L 20.316406 7.9042969 C 22.926503 7.278183 23.874181 3.9236387 21.976562 2.0253906 C 20.078944 0.12714261 16.724636 1.0717519 16.097656 3.6816406 L 14.414062 2 C 13.751618 1.3375218 12.875841 1.0058594 12 1.0058594 z M 19.460938 2.9707031 C 19.843225 2.9669499 20.238323 3.1151688 20.5625 3.4394531 C 21.427376 4.3046159 21.041193 5.673614 19.851562 5.9589844 C 18.38029 6.3110932 17.832079 8.249174 18.902344 9.3183594 L 20.585938 11 C 21.146551 11.560584 21.146551 12.439416 20.585938 13 L 18.902344 14.681641 C 18.275364 12.071752 14.921056 11.127143 13.023438 13.025391 C 11.125818 14.923639 12.073497 18.278183 14.683594 18.904297 L 13 20.585938 C 12.439416 21.146551 11.560584 21.146551 11 20.585938 L 9.3183594 18.902344 L 9.3164062 18.902344 C 8.2469475 17.833819 6.3089978 18.380885 5.9570312 19.851562 C 5.670388 21.039791 4.3019715 21.425305 3.4375 20.560547 C 2.5726241 19.695384 2.9588068 18.326386 4.1484375 18.041016 C 5.6197102 17.688907 6.1679209 15.750826 5.0976562 14.681641 L 3.4140625 13 C 2.8534496 12.439416 2.8534496 11.560584 3.4140625 11 L 5.0976562 9.3183594 C 5.7246359 11.928248 9.0789436 12.872857 10.976562 10.974609 C 12.87418 9.0763617 11.926503 5.721817 9.3164062 5.0957031 L 11 3.4140625 C 11.280292 3.1337561 11.640209 2.9941406 12 2.9941406 C 12.359791 2.9941406 12.719708 3.1337561 13 3.4140625 L 14.681641 5.0976562 L 14.683594 5.0976562 C 15.75262 6.1657528 17.689873 5.6197379 18.042969 4.1503906 L 18.042969 4.1484375 C 18.222091 3.4057928 18.823792 2.9769585 19.460938 2.9707031 z "/>
</svg>
