<?xml version="1.0" encoding="UTF-8" standalone="no"?>
<svg xmlns="http://www.w3.org/2000/svg" xmlns:svg="http://www.w3.org/2000/svg" width="24" height="24" viewBox="0 0 24 24" fill="currentColor" tags="component,module,part,piece" categories="development,gaming">
  
  <path d="M 12 0.99804688 C 11.096305 0.99741479 10.228335 1.3564943 9.5898438 1.9960938 L 8.0644531 3.5214844 C 7.6004661 3.9854714 7.3840132 4.6447873 7.4804688 5.2929688 C 7.6317768 6.3049637 8.4231963 6.8686811 9.1015625 7.1445312 C 10.127704 7.5630486 10.379311 8.8101421 9.5957031 9.59375 C 8.8120952 10.377358 7.5650017 10.125751 7.1464844 9.0996094 C 6.8706342 8.4212432 6.3069168 7.6298237 5.2949219 7.4785156 C 4.6445346 7.3817318 3.9873537 7.5985838 3.5234375 8.0625 L 1.9960938 9.5898438 C 1.3350258 10.250911 0.99804687 11.128005 0.99804688 12 C 0.99741353 12.904388 1.3575812 13.773505 1.9980469 14.412109 L 3.5644531 15.978516 C 3.5709231 15.985016 3.5736256 15.992903 3.5722656 16.001953 C 3.5726512 15.999353 3.4866263 16.137714 3.2324219 16.236328 A 1.0001 1.0001 0 0 0 3.2304688 16.236328 C 0.91107809 17.139951 0.26723315 20.212546 2.0273438 21.972656 C 3.7874543 23.732767 6.8600486 23.088922 7.7636719 20.769531 A 1.0001 1.0001 0 0 0 7.7636719 20.767578 C 7.8622849 20.513418 8.001244 20.427548 8 20.427734 C 8.00794 20.427059 8.0136133 20.427625 8.0195312 20.433594 A 1.0001 1.0001 0 0 0 8.0214844 20.435547 L 9.5898438 22.003906 C 10.228725 22.643611 11.097783 23.003105 12.001953 23.001953 C 12.906752 23.002275 13.775322 22.64091 14.414062 22 L 16.021484 20.392578 C 16.464053 19.950029 16.671979 19.320187 16.580078 18.701172 C 16.436829 17.737312 15.681589 17.19123 15.015625 16.943359 A 1.0001 1.0001 0 0 0 15.013672 16.941406 C 13.951297 16.547888 13.671581 15.273732 14.472656 14.472656 C 15.273732 13.671581 16.547888 13.951297 16.941406 15.013672 A 1.0001 1.0001 0 0 0 16.943359 15.015625 C 17.191662 15.681253 17.736308 16.436375 18.701172 16.580078 C 19.320468 16.672318 19.94962 16.464006 20.392578 16.021484 L 22.003906 14.410156 C 22.665572 13.748407 23.001953 12.870915 23.001953 12 C 23.001953 11.128005 22.664975 10.250911 22.003906 9.5898438 L 20.435547 8.0214844 C 20.428947 8.0148844 20.426734 8.006703 20.427734 8 A 1.0001 1.0001 0 0 0 20.427734 7.9980469 C 20.427349 8.0006469 20.513374 7.8622855 20.767578 7.7636719 A 1.0001 1.0001 0 0 0 20.769531 7.7636719 C 23.088862 6.8600451 23.732767 3.7874543 21.972656 2.0273438 C 20.212546 0.26723315 17.139951 0.91107809 16.236328 3.2304688 A 1.0001 1.0001 0 0 0 16.236328 3.2324219 C 16.137714 3.486629 15.998756 3.5724523 16 3.5722656 C 15.994 3.5726408 15.984616 3.5705531 15.978516 3.5644531 L 14.410156 1.9960938 C 13.749572 1.3355096 12.873319 0.9985409 12.001953 0.99804688 L 12 0.99804688 z M 19.541016 2.9824219 C 19.8997 2.9969738 20.261672 3.1444851 20.558594 3.4414062 C 21.350383 4.2331959 21.08636 5.4919374 20.042969 5.8984375 C 19.371735 6.1591858 18.603055 6.7154773 18.453125 7.6972656 A 1.0001 1.0001 0 0 0 18.451172 7.6992188 L 18.451172 7.7011719 C 18.450926 7.7028019 18.449519 7.7034381 18.449219 7.7050781 L 18.453125 7.7050781 C 18.445025 7.7595721 18.505563 7.7990452 18.501953 7.8535156 L 18.439453 7.8496094 L 18.439453 7.8515625 A 1.0001 1.0001 0 0 0 18.535156 7.9550781 C 18.529256 8.4966835 18.634887 9.0489508 19.021484 9.4355469 L 20.589844 11.003906 C 20.868773 11.282837 21.001953 11.637998 21.001953 12 C 21.001953 12.363083 20.870179 12.715758 20.589844 12.996094 L 18.992188 14.59375 C 19.009137 14.593858 18.899767 14.53269 18.818359 14.318359 L 18.816406 14.316406 C 17.941877 11.961399 14.835361 11.281827 13.058594 13.058594 C 11.281141 14.836046 11.96115 17.945215 14.318359 18.818359 C 14.535302 18.900529 14.596166 19.005945 14.595703 18.990234 L 12.998047 20.587891 A 1.0001 1.0001 0 0 0 12.996094 20.589844 C 12.732257 20.854781 12.374032 21.002301 12 21.001953 A 1.0001 1.0001 0 0 0 11.998047 21.001953 C 11.624497 21.002429 11.267661 20.854366 11.003906 20.589844 L 9.4355469 19.021484 C 8.9823597 18.567493 8.3376251 18.354895 7.703125 18.449219 C 6.7165738 18.597302 6.1600512 19.369507 5.8984375 20.042969 C 5.4919374 21.08636 4.2331959 21.350383 3.4414062 20.558594 C 2.6496165 19.766804 2.9136401 18.508063 3.9570312 18.101562 C 4.6300499 17.840121 5.4037685 17.283564 5.5507812 16.296875 L 5.5507812 16.294922 C 5.6448928 15.661415 5.4313317 15.017552 4.9785156 14.564453 L 3.4101562 12.996094 C 3.1456328 12.732339 2.9975709 12.375503 2.9980469 12.001953 A 1.0001 1.0001 0 0 0 2.9980469 12 C 2.9980469 11.637998 3.131226 11.282837 3.4101562 11.003906 L 4.9375 9.4765625 C 4.9535828 9.4604797 4.9783885 9.4538153 5 9.4570312 C 5.018847 9.4603912 5.1771893 9.5687926 5.2929688 9.8535156 A 1.0001 1.0001 0 0 0 5.2949219 9.8554688 C 6.2265512 12.139679 9.2654299 12.752148 11.009766 11.007812 C 12.754101 9.2634766 12.141629 6.224595 9.8574219 5.2929688 A 1.0001 1.0001 0 0 0 9.8554688 5.2910156 C 9.5707425 5.175233 9.4623448 5.0168939 9.4589844 4.9980469 C 9.4554444 4.9742299 9.4605046 4.9535589 9.4785156 4.9355469 L 11.003906 3.4101562 C 11.267614 3.1459916 11.624785 2.9975716 11.998047 2.9980469 A 1.0001 1.0001 0 0 0 12 2.9980469 C 12.362002 2.9980469 12.717163 3.131226 12.996094 3.4101562 L 14.564453 4.9785156 C 15.017857 5.4319195 15.660958 5.6458719 16.296875 5.5507812 C 17.283426 5.4026986 17.839949 4.6304926 18.101562 3.9570312 C 18.355625 3.3049118 18.943209 2.9581686 19.541016 2.9824219 z "/>
</svg>
