<?xml version="1.0" encoding="UTF-8" standalone="no"?>
<svg xmlns="http://www.w3.org/2000/svg" xmlns:svg="http://www.w3.org/2000/svg" width="24" height="24" viewBox="0 0 24 24" fill="currentColor" tags="prism,triangle,triangular,hierarchy,structure,geometry,ancient,egyptian,landmark,tourism" categories="shapes,math,travel">
  <path d="M 12 1 A 1 1 0 0 0 11.847656 1.03125 C 11.274296 1.0728825 10.716659 1.3455572 10.359375 1.8574219 A 1.0001 1.0001 0 0 0 10.357422 1.8613281 L 1.3574219 14.880859 A 1.0001 1.0001 0 0 0 1.3554688 14.882812 C 0.70539605 15.828738 1.0048596 17.165501 1.9960938 17.744141 A 1.0001 1.0001 0 0 0 2.0039062 17.748047 L 10.513672 22.607422 A 1.0001 1.0001 0 0 0 10.515625 22.609375 C 11.434856 23.133052 12.565144 23.133052 13.484375 22.609375 A 1.0001 1.0001 0 0 0 13.486328 22.607422 L 21.996094 17.748047 A 1.0001 1.0001 0 0 0 22 17.746094 C 23.00388 17.167743 23.30312 15.816277 22.638672 14.867188 L 13.642578 1.8613281 A 1.0001 1.0001 0 0 0 13.640625 1.8574219 C 13.313138 1.3881919 12.816943 1.1190125 12.294922 1.0449219 A 1 1 0 0 0 12 1 z M 13 4.4472656 L 20.998047 16.009766 A 1.0001 1.0001 0 0 0 21 16.013672 L 13 20.582031 L 13 4.4472656 z M 11 4.4492188 L 11 20.582031 L 3.0039062 16.015625 L 11 4.4492188 z "/>
</svg>
