<?xml version="1.0" encoding="UTF-8" standalone="no"?>
<svg xmlns="http://www.w3.org/2000/svg" xmlns:svg="http://www.w3.org/2000/svg" width="24" height="24" viewBox="0 0 24 24" fill="currentColor" tags="quotation" categories="text">
  <path d="M 5 2 C 3.3549936 2 2 3.3549936 2 5 L 2 11 C 2 12.645006 3.3549936 14 5 14 L 5 15 C 5 15.564128 4.5641282 16 4 16 C 2.9072773 16 2 16.907277 2 18 L 2 20 C 2 21.092723 2.9072773 22 4 22 C 7.8541409 22 11 18.854141 11 15 L 11 5 C 11 3.3549936 9.6450064 2 8 2 L 5 2 z M 16 2 C 14.354994 2 13 3.3549936 13 5 L 13 11 C 13 12.645006 14.354994 14 16 14 L 16 15 C 16 15.564128 15.564128 16 15 16 C 13.907277 16 13 16.907277 13 18 L 13 20 C 13 21.092723 13.907277 22 15 22 C 18.854141 22 22 18.854141 22 15 L 22 5 C 22 3.3549936 20.645006 2 19 2 L 16 2 z M 5 4 L 8 4 C 8.5641282 4 9 4.4358718 9 5 L 9 15 C 9 17.773263 6.7732628 20 4 20 L 4 18 C 5.6450064 18 7 16.645006 7 15 L 7 14 C 7 12.907277 6.0927227 12 5 12 C 4.4358718 12 4 11.564128 4 11 L 4 5 C 4 4.4358718 4.4358718 4 5 4 z M 16 4 L 19 4 C 19.564128 4 20 4.4358718 20 5 L 20 15 C 20 17.773263 17.773263 20 15 20 L 15 18 C 16.645006 18 18 16.645006 18 15 L 18 14 C 18 12.907277 17.092723 12 16 12 C 15.435872 12 15 11.564128 15 11 L 15 5 C 15 4.4358718 15.435872 4 16 4 z "/>
</svg>
