<svg xmlns="http://www.w3.org/2000/svg" xmlns:svg="http://www.w3.org/2000/svg" width="24" height="24" viewBox="0 0 24 24" fill="currentColor" tags="quotation" categories="text">
  <path d="M 5 2 C 3.3549904 2 2 3.3549904 2 5 L 2 11 C 2 12.64501 3.3549904 14 5 14 L 5 15 C 5 15.564129 4.5641294 16 4 16 C 2.9072751 16 2 16.907275 2 18 L 2 20 C 2 21.092725 2.9072751 22 4 22 C 7.8541486 22 11 18.854149 11 15 L 11 5 C 11 3.3549904 9.6450096 2 8 2 L 5 2 z M 16 2 C 14.35499 2 13 3.3549904 13 5 L 13 11 C 13 12.64501 14.35499 14 16 14 L 16 15 C 16 15.564129 15.564129 16 15 16 C 13.907275 16 13 16.907275 13 18 L 13 20 C 13 21.092725 13.907275 22 15 22 C 18.854149 22 22 18.854149 22 15 L 22 5 C 22 3.3549904 20.64501 2 19 2 L 16 2 z M 5 4 L 8 4 C 8.5641294 4 9 4.4358706 9 5 L 9 15 C 9 17.773268 6.7732684 20 4 20 L 4 18 C 5.6450096 18 7 16.64501 7 15 L 7 14 C 7 12.907275 6.0927249 12 5 12 C 4.4358706 12 4 11.564129 4 11 L 4 5 C 4 4.4358706 4.4358706 4 5 4 z M 16 4 L 19 4 C 19.564129 4 20 4.4358706 20 5 L 20 15 C 20 17.773268 17.773268 20 15 20 L 15 18 C 16.64501 18 18 16.64501 18 15 L 18 14 C 18 12.907275 17.092725 12 16 12 C 15.435871 12 15 11.564129 15 11 L 15 5 C 15 4.4358706 15.435871 4 16 4 z "/>
</svg>
