<?xml version="1.0" encoding="UTF-8" standalone="no"?>
<svg xmlns="http://www.w3.org/2000/svg" xmlns:svg="http://www.w3.org/2000/svg" width="24" height="24" viewBox="0 0 24 24" fill="currentColor" tags="quotation" categories="text">
  <path d="M 4 2 C 3.1750016 2 2.3859018 2.2643085 1.828125 2.8164062 C 1.2703482 3.3685039 1 4.1570753 1 4.9726562 L 1 11 C 1 11.824998 1.2661951 12.617758 1.8242188 13.175781 C 2.3822425 13.733805 3.1750016 14 4 14 L 4 15 C 4 15.166667 3.8858334 15.450104 3.6679688 15.667969 C 3.450104 15.885834 3.1666663 16 3 16 C 2.7486672 16 2.544608 15.994656 2.3027344 16.023438 C 2.0608607 16.05222 1.6960004 16.13442 1.4042969 16.4375 C 1.1125933 16.74058 1.0472812 17.091327 1.0214844 17.330078 C 0.99568742 17.568829 1 17.7755 1 18.03125 L 1 20 C 1 20.25 0.9950864 20.451864 1.0214844 20.689453 C 1.0478833 20.927042 1.1197667 21.28383 1.4179688 21.582031 C 1.7161705 21.880233 2.072958 21.952117 2.3105469 21.978516 C 2.548136 22.004914 2.7500004 22 3 22 C 4.6111079 22 6.617167 21.740784 8.2578125 20.398438 C 9.898458 19.056092 11 16.690468 11 13 L 11 5 C 11 4.1734016 10.73417 3.3789762 10.175781 2.8183594 C 9.6173933 2.2577424 8.8165563 1.9886544 7.9863281 2 L 4 2 z M 16 2 C 15.175002 2 14.385901 2.2643085 13.828125 2.8164062 C 13.270349 3.3685039 13 4.1570753 13 4.9726562 L 13 11 C 13 11.824998 13.266195 12.617758 13.824219 13.175781 C 14.302634 13.654198 14.993554 13.817266 15.689453 13.882812 C 15.673583 14.487426 15.682853 15.213361 15.582031 15.445312 C 15.503121 15.626813 15.450061 15.695868 15.248047 15.796875 C 15.046033 15.897882 14.652776 16 14 16 A 1.0001 1.0001 0 0 0 13 17 L 13 20 C 13 20.25 12.995104 20.451864 13.021484 20.689453 C 13.047884 20.927042 13.119764 21.28383 13.417969 21.582031 C 13.71617 21.880233 14.072958 21.952117 14.310547 21.978516 C 14.54814 22.004914 14.75 22 15 22 C 16.611108 22 18.617167 21.740784 20.257812 20.398438 C 21.898459 19.056092 23 16.690468 23 13 L 23 5 C 23 4.173135 22.732257 3.3788134 22.173828 2.8183594 C 21.6154 2.2579052 20.816229 1.9886498 19.986328 2 L 16 2 z M 4 4 L 8 4 A 1.0001 1.0001 0 0 0 8.0136719 4 C 8.4274413 3.99435 8.627202 4.0993372 8.7578125 4.2304688 C 8.8884229 4.3616005 9 4.5766008 9 5 L 9 13 C 9 16.309518 8.1015366 17.943913 6.9921875 18.851562 C 5.8828384 19.759213 4.3888861 20 3 20 L 3 18.03125 C 3 18.014823 2.9999647 18.01578 3 18 C 3.8333317 18 4.5498975 17.614166 5.0820312 17.082031 C 5.6141651 16.549898 6 15.833331 6 15 L 6 14 C 6 13.75 6.0049144 13.548136 5.9785156 13.310547 C 5.9521169 13.072958 5.880233 12.71617 5.5820312 12.417969 C 5.2838296 12.119767 4.927042 12.047883 4.6894531 12.021484 C 4.4518644 11.995086 4.2499995 12 4 12 C 3.5750008 12 3.3677561 11.891194 3.2382812 11.761719 C 3.1088063 11.632244 3 11.425 3 11 L 3 4.9726562 C 3 4.5662398 3.1046532 4.3666823 3.234375 4.2382812 C 3.3640968 4.1098803 3.5750008 4 4 4 z M 16 4 L 20 4 A 1.0001 1.0001 0 0 0 20.013672 4 C 20.426767 3.99435 20.626993 4.0991742 20.757812 4.2304688 C 20.888635 4.3617633 21 4.5768675 21 5 L 21 13 C 21 16.309518 20.101537 17.943913 18.992188 18.851562 C 17.882839 19.759213 16.388886 20 15 20 L 15 17.806641 C 15.383513 17.741101 15.825361 17.744551 16.142578 17.585938 C 16.737438 17.288508 17.184383 16.779436 17.417969 16.242188 C 17.88514 15.167693 17.75 14.087961 17.75 13 A 1.0001 1.0001 0 0 0 16.75 12 L 16 12 C 15.575 12 15.367756 11.891194 15.238281 11.761719 C 15.108806 11.632244 15 11.425 15 11 L 15 4.9726562 C 15 4.5662398 15.104653 4.3666823 15.234375 4.2382812 C 15.364097 4.1098803 15.575 4 16 4 z "/>
</svg>
