<?xml version="1.0" encoding="UTF-8" standalone="no"?>
<svg xmlns="http://www.w3.org/2000/svg" xmlns:svg="http://www.w3.org/2000/svg" width="24" height="24" viewBox="0 0 24 24" fill="currentColor" tags="animal,rodent,pet,pest,bunny,hare,fast,speed,hop" categories="animals">
  <path d="M 18 1 C 17.27778 1 16.542118 1.2353482 15.960938 1.7519531 C 15.379756 2.268558 15 3.0833353 15 4 L 15 4.7851562 L 13.107422 2.8925781 C 12.46398 2.2491362 11.624733 1.9429154 10.853516 1.9882812 C 10.082297 2.0336472 9.3997119 2.3854444 8.8925781 2.8925781 C 8.3854444 3.3997119 8.0336472 4.0822979 7.9882812 4.8535156 C 7.9429154 5.6247334 8.2491362 6.4639799 8.8925781 7.1074219 L 11.158203 9.3730469 C 9.8828548 9.6847615 8.7223006 10.287462 7.7578125 11.105469 C 6.9159166 10.313553 5.7852158 9.9735726 4.6875 10.060547 C 3.229664 10.176054 1.8326795 11.044766 1.2519531 12.605469 C 0.24629891 15.308164 2.4540578 18.038753 5.0996094 17.994141 C 5.5641814 20.271678 7.5907034 22 10 22 L 18 22 A 1 1 0 0 0 19 21 A 1 1 0 0 0 18 20 L 16.878906 20 C 16.968262 19.650339 17.007768 19.293705 17.001953 18.941406 C 17.03244 17.853015 17.903323 17 19 17 L 20 17 C 21.645006 17 23 15.645006 23 14 L 23 13 C 23 11.10744 22.234485 9.3833156 21 8.1191406 L 21 4 C 21 3.0833353 20.620244 2.268558 20.039062 1.7519531 C 19.457882 1.2353482 18.72222 1 18 1 z M 18 3 C 18.277778 3 18.542121 3.0979867 18.710938 3.2480469 C 18.879755 3.398107 19 3.5833345 19 4 L 19 6.6816406 C 18.377685 6.3833664 17.705154 6.1766219 17 6.0742188 L 17 4 C 17 3.5833345 17.120246 3.398107 17.289062 3.2480469 C 17.45788 3.0979867 17.722222 3 18 3 z M 10.970703 3.9863281 C 11.19115 3.9733601 11.403471 4.0167514 11.693359 4.3066406 L 15.09375 7.7070312 A 1.0001 1.0001 0 0 0 15.800781 8 L 16 8 C 18.75454 8 21 10.24546 21 13 L 21 14 C 21 14.564128 20.564128 15 20 15 L 19 15 C 17.811945 15 16.742576 15.529878 16.007812 16.361328 C 15.291988 15.546396 14.2319 14.998382 12.998047 15 A 1 1 0 0 0 12 16.001953 A 1 1 0 0 0 13.001953 17 C 13.904816 16.9988 14.524271 17.499035 14.830078 18.181641 C 14.924265 18.39188 14.985525 18.612943 15.007812 18.837891 C 15.005593 18.892165 15 18.945213 15 19 A 1 1 0 0 0 15.015625 19.082031 C 15.006443 19.391489 14.919536 19.703095 14.740234 20 L 10 20 C 8.3313045 20 7 18.668695 7 17 C 7 16.988896 6.9999404 16.977887 7 16.966797 A 1 1 0 0 0 7.0058594 16.738281 C 7.0627797 15.395517 7.5569492 14.169722 8.3496094 13.199219 A 1 1 0 0 0 8.3632812 13.183594 C 8.3665243 13.179651 8.3697939 13.175809 8.3730469 13.171875 C 9.4715809 11.843254 11.132377 11 13 11 L 13.199219 11 A 1.0001 1.0001 0 0 0 13.90625 9.2929688 L 10.306641 5.6933594 C 10.016751 5.4034703 9.9733606 5.1911499 9.9863281 4.9707031 C 9.9992956 4.7502563 10.113776 4.4995055 10.306641 4.3066406 C 10.499505 4.1137758 10.750256 3.9992956 10.970703 3.9863281 z M 18 11 A 1 1 0 0 0 17 12 A 1 1 0 0 0 18 13 L 18.009766 13 A 1 1 0 0 0 19.009766 12 A 1 1 0 0 0 18.009766 11 L 18 11 z M 4.9726562 11.951172 C 5.4890224 11.946238 6.0105274 12.150247 6.4101562 12.568359 C 5.7026593 13.566381 5.2257079 14.734461 5.0625 16.011719 C 3.6655916 16.100412 2.5840666 14.756493 3.125 13.302734 C 3.4532732 12.4205 4.2069119 11.958489 4.9726562 11.951172 z "/>
</svg>
