<?xml version="1.0" encoding="UTF-8" standalone="no"?>
<svg xmlns="http://www.w3.org/2000/svg" xmlns:svg="http://www.w3.org/2000/svg" width="24" height="24" viewBox="0 0 24 24" fill="currentColor" tags="animal,rodent,pet,pest,bunny,hare,fast,speed,hop" categories="animals">
  <path d="M 18 1 C 17.277778 1 16.542119 1.2353472 15.960938 1.7519531 C 15.379755 2.268559 15 3.0833335 15 4 L 15 4.7851562 L 13.107422 2.8925781 C 12.463979 2.2491349 11.624735 1.9429153 10.853516 1.9882812 C 10.082296 2.0336473 9.3997129 2.3854434 8.8925781 2.8925781 C 8.3854434 3.3997129 8.0336472 4.0822964 7.9882812 4.8535156 C 7.9429153 5.6247349 8.2491349 6.4639786 8.8925781 7.1074219 L 11.158203 9.3730469 C 9.8833191 9.6846481 8.7201414 10.284014 7.7558594 11.101562 C 6.9143416 10.312083 5.7836401 9.9736974 4.6875 10.060547 C 3.2296611 10.176054 1.8326807 11.044763 1.2519531 12.605469 C 0.2460738 15.30877 2.4532721 18.041951 5.0996094 17.996094 C 5.5650408 20.272542 7.5914779 22 10 22 L 18 22 A 1 1 0 0 0 19 21 A 1 1 0 0 0 18 20 L 16.878906 20 C 16.952387 19.71268 16.983372 19.421248 16.992188 19.130859 A 1 1 0 0 0 17 19 C 17 17.883586 17.883586 17 19 17 L 20 17 C 21.64501 17 23 15.64501 23 14 L 23 13 C 23 11.106706 22.235324 9.3814951 21 8.1171875 L 21 4 C 21 3.0833335 20.620244 2.268559 20.039062 1.7519531 C 19.457881 1.2353472 18.722222 1 18 1 z M 18 3 C 18.277778 3 18.542119 3.0979864 18.710938 3.2480469 C 18.879756 3.3981073 19 3.5833337 19 4 L 19 6.6816406 C 18.377589 6.3833924 17.705255 6.1745898 17 6.0722656 L 17 4 C 17 3.5833337 17.120244 3.3981073 17.289062 3.2480469 C 17.457881 3.0979864 17.722222 3 18 3 z M 11.052734 3.984375 C 11.245019 3.9879563 11.439707 4.0529871 11.693359 4.3066406 L 15.09375 7.7070312 A 1.0001 1.0001 0 0 0 15.800781 8 L 16 8 C 17.247658 8 18.390163 8.4607046 19.267578 9.2207031 A 1 1 0 0 0 19.400391 9.3398438 C 20.383128 10.253791 21 11.557068 21 13 L 21 14 C 21 14.564129 20.564129 15 20 15 L 19 15 C 17.81215 15 16.73866 15.526223 16.003906 16.357422 C 15.288127 15.544732 14.229847 14.998384 12.998047 15 A 1 1 0 0 0 12 16.001953 A 1 1 0 0 0 13.001953 17 C 13.904818 16.9988 14.52427 17.499034 14.830078 18.181641 C 14.919957 18.382262 14.979236 18.592337 15.003906 18.806641 C 15.000819 18.870591 15 18.93533 15 19 A 1 1 0 0 0 15.011719 19.158203 C 14.991583 19.442243 14.906465 19.727724 14.742188 20 L 10 20 C 8.3313011 20 7 18.668699 7 17 C 7 16.992817 6.9999751 16.985692 7 16.978516 A 1 1 0 0 0 7.0058594 16.71875 C 7.0667878 15.383563 7.5606556 14.165006 8.3496094 13.199219 C 8.3702953 13.173896 8.3910186 13.149973 8.4121094 13.125 C 9.5107772 11.824107 11.154974 11 13 11 L 13.199219 11 A 1.0001 1.0001 0 0 0 13.90625 9.2929688 L 10.306641 5.6933594 C 10.016751 5.4034697 9.9733606 5.1911503 9.9863281 4.9707031 C 9.9992957 4.7502559 10.113775 4.4995059 10.306641 4.3066406 C 10.499506 4.1137754 10.750256 3.9992957 10.970703 3.9863281 C 10.998259 3.9847072 11.025265 3.9838634 11.052734 3.984375 z M 18 11 A 1 1 0 0 0 17 12 A 1 1 0 0 0 18 13 L 18.009766 13 A 1 1 0 0 0 19.009766 12 A 1 1 0 0 0 18.009766 11 L 18 11 z M 5.0800781 11.953125 C 5.5608313 11.974873 6.0380007 12.177524 6.4101562 12.566406 C 5.7021156 13.564736 5.225781 14.733863 5.0625 16.011719 C 3.6652808 16.100862 2.5839833 14.756717 3.125 13.302734 C 3.4684198 12.379794 4.2788229 11.916879 5.0800781 11.953125 z "/>
</svg>
