<?xml version="1.0" encoding="UTF-8" standalone="no"?>
<svg xmlns="http://www.w3.org/2000/svg" xmlns:svg="http://www.w3.org/2000/svg" width="24" height="24" viewBox="0 0 24 24" fill="currentColor" tags="animal,rodent,pet,pest,bunny,hare,fast,speed,hop" categories="animals">
  <path d="M 18 1 C 17.277778 1 16.542119 1.2353472 15.960938 1.7519531 C 15.379755 2.268559 15 3.0833335 15 4 L 15 4.7851562 L 13.107422 2.8925781 C 12.463979 2.2491349 11.624735 1.9429153 10.853516 1.9882812 C 10.082296 2.0336473 9.3997129 2.3854434 8.8925781 2.8925781 C 8.3854434 3.3997129 8.0336472 4.0822964 7.9882812 4.8535156 C 7.9429153 5.6247349 8.2491349 6.4639786 8.8925781 7.1074219 L 11.158203 9.3730469 C 9.8828522 9.6847622 8.7223015 10.287461 7.7578125 11.105469 C 6.9159063 10.313489 5.7852581 9.9735692 4.6875 10.060547 C 3.2296611 10.176054 1.8326807 11.044763 1.2519531 12.605469 C 0.2462969 15.30817 2.4540535 18.038755 5.0996094 17.994141 C 5.5641814 20.271682 7.5906986 22 10 22 L 18 22 A 1 1 0 0 0 19 21 A 1 1 0 0 0 18 20 L 16.878906 20 C 16.968262 19.650339 17.007768 19.293705 17.001953 18.941406 C 17.03244 17.853013 17.903321 17 19 17 L 20 17 C 21.64501 17 23 15.64501 23 14 L 23 13 C 23 11.107436 22.234485 9.3833164 21 8.1191406 L 21 4 C 21 3.0833335 20.620244 2.268559 20.039062 1.7519531 C 19.457881 1.2353472 18.722222 1 18 1 z M 18 3 C 18.277778 3 18.542119 3.0979864 18.710938 3.2480469 C 18.879756 3.3981073 19 3.5833337 19 4 L 19 6.6816406 C 18.377685 6.3833663 17.705155 6.1766219 17 6.0742188 L 17 4 C 17 3.5833337 17.120244 3.3981073 17.289062 3.2480469 C 17.457881 3.0979864 17.722222 3 18 3 z M 10.970703 3.9863281 C 11.19115 3.9733606 11.40347 4.0167509 11.693359 4.3066406 L 15.09375 7.7070312 A 1.0001 1.0001 0 0 0 15.800781 8 L 16 8 C 18.754545 8 21 10.245455 21 13 L 21 14 C 21 14.564129 20.564129 15 20 15 L 19 15 C 17.811943 15 16.742576 15.529877 16.007812 16.361328 C 15.291987 15.546395 14.231902 14.998382 12.998047 15 A 1 1 0 0 0 12 16.001953 A 1 1 0 0 0 13.001953 17 C 13.904818 16.9988 14.52427 17.499034 14.830078 18.181641 C 14.924266 18.39188 14.985525 18.612943 15.007812 18.837891 C 15.005593 18.892165 15 18.945213 15 19 A 1 1 0 0 0 15.015625 19.082031 C 15.006443 19.391489 14.919536 19.703095 14.740234 20 L 10 20 C 8.3313011 20 7 18.668699 7 17 C 7 16.992162 6.9999703 16.984394 7 16.976562 A 1 1 0 0 0 7.0058594 16.734375 C 7.0637565 15.388663 7.5608965 14.160549 8.3574219 13.189453 C 8.3712118 13.172641 8.3864216 13.157283 8.4003906 13.140625 A 1 1 0 0 0 8.40625 13.132812 C 9.5049258 11.827008 11.15096 11 13 11 L 13.199219 11 A 1.0001 1.0001 0 0 0 13.90625 9.2929688 L 10.306641 5.6933594 C 10.016751 5.4034697 9.9733606 5.1911503 9.9863281 4.9707031 C 9.9992957 4.7502559 10.113775 4.4995059 10.306641 4.3066406 C 10.499506 4.1137754 10.750256 3.9992957 10.970703 3.9863281 z M 18 11 A 1 1 0 0 0 17 12 A 1 1 0 0 0 18 13 L 18.009766 13 A 1 1 0 0 0 19.009766 12 A 1 1 0 0 0 18.009766 11 L 18 11 z M 4.9726562 11.951172 C 5.4890228 11.946238 6.0105269 12.150247 6.4101562 12.568359 C 5.7026589 13.566382 5.2257079 14.734459 5.0625 16.011719 C 3.6655893 16.100413 2.5840655 14.756496 3.125 13.302734 C 3.4532739 12.420499 4.2069113 11.958489 4.9726562 11.951172 z "/>
</svg>
