<?xml version="1.0" encoding="UTF-8" standalone="no"?>
<svg xmlns="http://www.w3.org/2000/svg" xmlns:svg="http://www.w3.org/2000/svg" width="24" height="24" viewBox="0 0 24 24" fill="currentColor" tags="scan,sonar,detect,find,locate" categories="navigation,maps,security,communication">
  
  <path d="M 12.103516 1 C 10.180692 0.97991521 8.241155 1.4623267 6.4902344 2.4746094 A 1 1 0 0 0 6.125 3.8398438 A 1 1 0 0 0 7.4902344 4.2050781 C 10.732236 2.3307376 14.74638 2.672181 17.615234 4.9707031 L 16.189453 6.3964844 C 14.898678 5.4261765 13.347724 4.961328 11.808594 5 C 9.9539953 5.0465985 8.1184104 5.8209711 6.7792969 7.3105469 C 4.1010698 10.289698 4.4790212 14.942065 7.6035156 17.449219 A 1 1 0 0 0 9.0097656 17.294922 A 1 1 0 0 0 8.8554688 15.890625 C 6.6048808 14.084711 6.3384385 10.794335 8.2675781 8.6484375 C 9.9679147 6.757052 12.732725 6.4690593 14.757812 7.828125 L 13.289062 9.296875 C 12.897383 9.107873 12.460495 9 12 9 C 10.354994 9 9 10.354994 9 12 C 9 13.645006 10.354994 15 12 15 C 13.645006 15 15 13.645006 15 12 C 15 11.539505 14.892127 11.102617 14.703125 10.710938 L 16.945312 8.46875 L 19.777344 5.6367188 A 1 1 0 0 0 19.851562 5.5527344 A 1 1 0 0 0 19.916016 5.4609375 A 1 1 0 0 0 19.951172 5.4003906 A 1 1 0 0 0 19.970703 5.3632812 A 1 1 0 0 0 19.978516 5.34375 A 1 1 0 0 0 20.009766 5.2675781 A 1 1 0 0 0 20.013672 5.2597656 A 1 1 0 0 0 20.015625 5.2539062 A 1 1 0 0 0 20.039062 5.1699219 A 1 1 0 0 0 20.044922 5.1523438 A 1 1 0 0 0 20.050781 5.125 A 1 1 0 0 0 20.054688 5.0957031 A 1 1 0 0 0 20.064453 5.0273438 A 1 1 0 0 0 20.070312 4.9296875 A 1 1 0 0 0 20.064453 4.8320312 A 1 1 0 0 0 20.054688 4.7636719 A 1 1 0 0 0 20.050781 4.734375 A 1 1 0 0 0 20.044922 4.7070312 A 1 1 0 0 0 20.039062 4.6894531 A 1 1 0 0 0 20.015625 4.6054688 A 1 1 0 0 0 20.013672 4.5996094 A 1 1 0 0 0 20.009766 4.5917969 A 1 1 0 0 0 19.978516 4.515625 A 1 1 0 0 0 19.970703 4.4960938 A 1 1 0 0 0 19.951172 4.4589844 A 1 1 0 0 0 19.916016 4.3984375 A 1 1 0 0 0 19.851562 4.3066406 A 1 1 0 0 0 19.777344 4.2226562 C 18.018149 2.4615765 15.773137 1.4022008 13.429688 1.09375 C 12.990291 1.0359155 12.547244 1.004635 12.103516 1 z M 4 5 A 1 1 0 0 0 3 6 A 1 1 0 0 0 4 7 L 4.0097656 7 A 1 1 0 0 0 5.0097656 6 A 1 1 0 0 0 4.0097656 5 L 4 5 z M 21.328125 7.3515625 A 1 1 0 0 0 20.945312 7.4199219 A 1 1 0 0 0 20.378906 8.7148438 C 22.614316 14.409016 18.705172 20.576825 12.601562 20.984375 C 6.4979518 21.391925 1.8031989 15.800198 3.2617188 9.859375 A 1 1 0 0 0 2.5292969 8.6484375 A 1 1 0 0 0 1.3183594 9.3808594 C -0.44924581 16.580644 5.3373013 23.474384 12.734375 22.980469 C 20.131449 22.486552 24.949366 14.88524 22.240234 7.984375 A 1 1 0 0 0 21.328125 7.3515625 z M 17.933594 10.662109 A 1 1 0 0 0 16.992188 11.716797 C 17.084207 13.326214 16.396614 14.879618 15.142578 15.892578 A 1 1 0 0 0 14.992188 17.298828 A 1 1 0 0 0 16.398438 17.447266 C 18.152256 16.0306 19.11698 13.854349 18.988281 11.603516 A 1 1 0 0 0 17.933594 10.662109 z M 12 11 C 12.258559 11 12.489007 11.092585 12.664062 11.246094 A 1 1 0 0 0 12.703125 11.296875 A 1 1 0 0 0 12.753906 11.335938 C 12.907415 11.510993 13 11.741441 13 12 C 13 12.564128 12.564128 13 12 13 C 11.435872 13 11 12.564128 11 12 C 11 11.435872 11.435872 11 12 11 z M 12 17 A 1 1 0 0 0 11 18 A 1 1 0 0 0 12 19 L 12.009766 19 A 1 1 0 0 0 13.009766 18 A 1 1 0 0 0 12.009766 17 L 12 17 z "/>
</svg>
