<?xml version="1.0" encoding="UTF-8" standalone="no"?>
<svg xmlns="http://www.w3.org/2000/svg" xmlns:svg="http://www.w3.org/2000/svg" width="24" height="24" viewBox="0 0 24 24" fill="currentColor" tags="scan,sonar,detect,find,locate" categories="navigation,security,communication">
  <path d="M 12.103516 1 C 10.18069 0.97991482 8.2411585 1.4623246 6.4902344 2.4746094 A 1 1 0 0 0 6.125 3.8398438 A 1 1 0 0 0 7.4902344 4.2050781 C 10.732242 2.3307338 14.746375 2.6721766 17.615234 4.9707031 L 16.189453 6.3964844 C 14.898676 5.426175 13.347727 4.9613278 11.808594 5 C 9.9539916 5.0465986 8.1184131 5.8209681 6.7792969 7.3105469 C 4.1010644 10.289704 4.479015 14.942061 7.6035156 17.449219 A 1 1 0 0 0 9.0097656 17.294922 A 1 1 0 0 0 8.8554688 15.890625 C 6.6048763 14.084708 6.3384345 10.794339 8.2675781 8.6484375 C 9.9679182 6.7570483 12.732723 6.4690566 14.757812 7.828125 L 13.289062 9.296875 C 12.897382 9.107873 12.460496 9 12 9 C 10.35499 9 9 10.35499 9 12 C 9 13.64501 10.35499 15 12 15 C 13.64501 15 15 13.64501 15 12 C 15 11.539504 14.892127 11.102618 14.703125 10.710938 L 16.945312 8.46875 L 19.777344 5.6367188 A 1 1 0 0 0 19.851562 5.5527344 A 1 1 0 0 0 19.916016 5.4609375 A 1 1 0 0 0 19.951172 5.4003906 A 1 1 0 0 0 19.970703 5.3632812 A 1 1 0 0 0 19.978516 5.34375 A 1 1 0 0 0 20.009766 5.2675781 A 1 1 0 0 0 20.013672 5.2597656 A 1 1 0 0 0 20.015625 5.2539062 A 1 1 0 0 0 20.039062 5.1699219 A 1 1 0 0 0 20.044922 5.1523438 A 1 1 0 0 0 20.050781 5.125 A 1 1 0 0 0 20.054688 5.0957031 A 1 1 0 0 0 20.064453 5.0273438 A 1 1 0 0 0 20.070312 4.9296875 A 1 1 0 0 0 20.064453 4.8320312 A 1 1 0 0 0 20.054688 4.7636719 A 1 1 0 0 0 20.050781 4.734375 A 1 1 0 0 0 20.044922 4.7070312 A 1 1 0 0 0 20.039062 4.6894531 A 1 1 0 0 0 20.015625 4.6054688 A 1 1 0 0 0 20.013672 4.5996094 A 1 1 0 0 0 20.009766 4.5917969 A 1 1 0 0 0 19.978516 4.515625 A 1 1 0 0 0 19.970703 4.4960938 A 1 1 0 0 0 19.951172 4.4589844 A 1 1 0 0 0 19.916016 4.3984375 A 1 1 0 0 0 19.851562 4.3066406 A 1 1 0 0 0 19.777344 4.2226562 C 18.018145 2.4615729 15.773142 1.4022014 13.429688 1.09375 C 12.99029 1.0359154 12.547245 1.004635 12.103516 1 z M 4 5 A 1 1 0 0 0 3 6 A 1 1 0 0 0 4 7 L 4.0097656 7 A 1 1 0 0 0 5.0097656 6 A 1 1 0 0 0 4.0097656 5 L 4 5 z M 21.328125 7.3515625 A 1 1 0 0 0 20.945312 7.4199219 A 1 1 0 0 0 20.378906 8.7148438 C 22.61432 14.409028 18.705185 20.576825 12.601562 20.984375 C 6.4979396 21.391925 1.803196 15.80021 3.2617188 9.859375 A 1 1 0 0 0 2.5292969 8.6484375 A 1 1 0 0 0 1.3183594 9.3808594 C -0.44924935 16.580659 5.3372865 23.474386 12.734375 22.980469 C 20.131463 22.486552 24.949371 14.885254 22.240234 7.984375 A 1 1 0 0 0 21.328125 7.3515625 z M 17.933594 10.662109 A 1 1 0 0 0 16.992188 11.716797 C 17.084208 13.326218 16.396616 14.879616 15.142578 15.892578 A 1 1 0 0 0 14.992188 17.298828 A 1 1 0 0 0 16.398438 17.447266 C 18.152259 16.030598 19.11698 13.854354 18.988281 11.603516 A 1 1 0 0 0 17.933594 10.662109 z M 12 11 C 12.258559 11 12.489007 11.092585 12.664062 11.246094 A 1 1 0 0 0 12.703125 11.296875 A 1 1 0 0 0 12.753906 11.335938 C 12.907415 11.510993 13 11.741441 13 12 C 13 12.564129 12.564129 13 12 13 C 11.435871 13 11 12.564129 11 12 C 11 11.435871 11.435871 11 12 11 z M 12 17 A 1 1 0 0 0 11 18 A 1 1 0 0 0 12 19 L 12.009766 19 A 1 1 0 0 0 13.009766 18 A 1 1 0 0 0 12.009766 17 L 12 17 z "/>
</svg>
