<?xml version="1.0" encoding="UTF-8" standalone="no"?>
<svg xmlns="http://www.w3.org/2000/svg" xmlns:svg="http://www.w3.org/2000/svg" width="24" height="24" viewBox="0 0 24 24" fill="currentColor" tags="scan,sonar,detect,find,locate" categories="navigation,security,communication">
  <path d="M 11.660156 1.0039062 C 9.8839608 1.0568918 8.106472 1.5401927 6.4902344 2.4746094 A 1 1 0 0 0 6.125 3.8398438 A 1 1 0 0 0 7.4902344 4.2050781 C 10.732282 2.3307107 14.748321 2.6701467 17.617188 4.96875 L 16.191406 6.3945312 C 14.900504 5.4238963 13.34798 4.9613215 11.808594 5 C 9.9539916 5.0465986 8.1184131 5.8209681 6.7792969 7.3105469 C 4.1010644 10.289704 4.479015 14.942061 7.6035156 17.449219 A 1 1 0 0 0 9.0097656 17.294922 A 1 1 0 0 0 8.8554688 15.890625 C 6.6048763 14.084708 6.3384345 10.794339 8.2675781 8.6484375 C 9.9680955 6.756851 12.734619 6.4666178 14.759766 7.8261719 L 13.291016 9.2949219 C 12.899197 9.1057553 12.46071 9 12 9 C 10.35499 9 9 10.35499 9 12 C 9 13.64501 10.35499 15 12 15 C 13.64501 15 15 13.64501 15 12 C 15 11.53929 14.894245 11.100803 14.705078 10.708984 L 16.945312 8.46875 A 1 1 0 0 0 16.949219 8.4648438 L 19.777344 5.6367188 A 1 1 0 0 0 19.863281 5.5390625 A 1 1 0 0 0 19.777344 4.2226562 C 18.018145 2.4615729 15.773142 1.4022014 13.429688 1.09375 C 12.843824 1.0166372 12.252221 0.98624441 11.660156 1.0039062 z M 4 5 A 1 1 0 0 0 3 6 A 1 1 0 0 0 4 7 L 4.0097656 7 A 1 1 0 0 0 5.0097656 6 A 1 1 0 0 0 4.0097656 5 L 4 5 z M 21.328125 7.3515625 A 1 1 0 0 0 20.945312 7.4199219 A 1 1 0 0 0 20.378906 8.7148438 C 22.61432 14.409028 18.705185 20.576825 12.601562 20.984375 C 6.4979396 21.391925 1.803196 15.80021 3.2617188 9.859375 A 1 1 0 0 0 2.5292969 8.6484375 A 1 1 0 0 0 1.3183594 9.3808594 C -0.44924935 16.580659 5.3372865 23.474386 12.734375 22.980469 C 20.131463 22.486552 24.949371 14.885254 22.240234 7.984375 A 1 1 0 0 0 21.328125 7.3515625 z M 17.933594 10.662109 A 1 1 0 0 0 16.992188 11.716797 C 17.084208 13.326218 16.396616 14.879616 15.142578 15.892578 A 1 1 0 0 0 14.992188 17.298828 A 1 1 0 0 0 16.398438 17.447266 C 18.152259 16.030598 19.11698 13.854354 18.988281 11.603516 A 1 1 0 0 0 17.933594 10.662109 z M 12 11 C 12.241974 11 12.460356 11.080686 12.630859 11.216797 A 1 1 0 0 0 12.703125 11.296875 A 1 1 0 0 0 12.783203 11.369141 C 12.919314 11.539644 13 11.758026 13 12 C 13 12.564129 12.564129 13 12 13 C 11.435871 13 11 12.564129 11 12 C 11 11.435871 11.435871 11 12 11 z M 12 17 A 1 1 0 0 0 11 18 A 1 1 0 0 0 12 19 L 12.009766 19 A 1 1 0 0 0 13.009766 18 A 1 1 0 0 0 12.009766 17 L 12 17 z "/>
</svg>
