<?xml version="1.0" encoding="UTF-8" standalone="no"?>
<svg xmlns="http://www.w3.org/2000/svg" xmlns:svg="http://www.w3.org/2000/svg" width="24" height="24" viewBox="0 0 24 24" fill="currentColor" tags="signal,broadcast,connectivity,live,frequency" categories="devices,multimedia,social">
  <path d="M 4.9238281 3.9335938 A 1 1 0 0 0 4.2167969 4.2265625 C -0.064667075 8.5129539 -0.064667075 15.487047 4.2167969 19.773438 A 1 1 0 0 0 5.6308594 19.775391 A 1 1 0 0 0 5.6328125 18.359375 C 2.1146318 14.837145 2.1146318 9.1628547 5.6328125 5.640625 A 1 1 0 0 0 5.6308594 4.2246094 A 1 1 0 0 0 4.9238281 3.9335938 z M 19.076172 3.9335938 A 1 1 0 0 0 18.369141 4.2246094 A 1 1 0 0 0 18.367188 5.640625 C 21.885368 9.1628547 21.885368 14.837145 18.367188 18.359375 A 1 1 0 0 0 18.369141 19.775391 A 1 1 0 0 0 19.783203 19.773438 C 24.064667 15.487046 24.064667 8.5129539 19.783203 4.2265625 A 1 1 0 0 0 19.076172 3.9335938 z M 7.7519531 6.7617188 A 1 1 0 0 0 7.0449219 7.0546875 C 4.3252338 9.7790452 4.3252338 14.220956 7.0449219 16.945312 A 1 1 0 0 0 8.4589844 16.947266 A 1 1 0 0 0 8.4609375 15.533203 C 6.5040343 13.57294 6.5040343 10.42706 8.4609375 8.4667969 A 1 1 0 0 0 8.4589844 7.0527344 A 1 1 0 0 0 7.7519531 6.7617188 z M 16.248047 6.7617188 A 1 1 0 0 0 15.541016 7.0527344 A 1 1 0 0 0 15.539062 8.4667969 C 17.495966 10.42706 17.495965 13.57294 15.539062 15.533203 A 1 1 0 0 0 15.541016 16.947266 A 1 1 0 0 0 16.955078 16.945312 C 19.674766 14.220956 19.674766 9.7790452 16.955078 7.0546875 A 1 1 0 0 0 16.248047 6.7617188 z M 12 9 C 10.35499 9 9 10.35499 9 12 C 9 13.64501 10.35499 15 12 15 C 13.64501 15 15 13.64501 15 12 C 15 10.35499 13.64501 9 12 9 z M 12 11 C 12.564129 11 13 11.435871 13 12 C 13 12.564129 12.564129 13 12 13 C 11.435871 13 11 12.564129 11 12 C 11 11.435871 11.435871 11 12 11 z "/>
</svg>
