<svg xmlns="http://www.w3.org/2000/svg" xmlns:svg="http://www.w3.org/2000/svg" width="24" height="24" viewBox="0 0 24 24" fill="currentColor" tags="radioactive,nuclear,fallout,waste,atomic,physics,particle,element,molecule" categories="science">
  <path d="M 6.6582031 2.7617188 C 6.2452629 2.7595993 5.8297308 2.8824768 5.4746094 3.1445312 C 3.0062315 4.963414 1.408835 7.7301645 1.0683594 10.777344 C 0.94057783 11.905467 1.8117349 12.93487 2.9453125 12.998047 A 1.0001 1.0001 0 0 0 3 13 L 8 13 A 1.0001 1.0001 0 0 0 9 12 C 9.0000273 10.926627 9.5704321 9.9390299 10.5 9.4023438 A 1.0001 1.0001 0 0 0 10.865234 8.0351562 L 8.3945312 3.7539062 C 8.1005154 3.244164 7.6064816 2.9171034 7.0683594 2.8046875 C 6.9338288 2.7765835 6.7958498 2.7624252 6.6582031 2.7617188 z M 17.341797 2.7617188 C 17.20415 2.7624252 17.066171 2.7765835 16.931641 2.8046875 C 16.393518 2.9171034 15.899485 3.2441641 15.605469 3.7539062 L 13.134766 8.0351562 A 1.0001 1.0001 0 0 0 13.5 9.4023438 C 14.429568 9.93903 14.999973 10.926627 15 12 A 1.0001 1.0001 0 0 0 16 13 L 21 13 A 1.0001 1.0001 0 0 0 21.054688 12.998047 C 22.188265 12.934867 23.059422 11.905467 22.931641 10.777344 C 22.591165 7.7301645 20.993768 4.963414 18.525391 3.1445312 C 18.170269 2.8824767 17.754737 2.7595993 17.341797 2.7617188 z M 6.6621094 4.7539062 L 8.7695312 8.4003906 C 7.9918696 9.1034511 7.488073 9.9751266 7.2675781 11 L 3.0566406 11 C 3.3353104 8.5059697 4.6418116 6.2426106 6.6621094 4.7539062 z M 17.337891 4.7539062 C 19.358188 6.2426106 20.66469 8.5059697 20.943359 11 L 16.732422 11 C 16.511927 9.9751266 16.00813 9.1034511 15.230469 8.4003906 L 17.337891 4.7539062 z M 12 11 A 1 1 0 0 0 11 12 A 1 1 0 0 0 12 13 L 12.009766 13 A 1 1 0 0 0 13.009766 12 A 1 1 0 0 0 12.009766 11 L 12 11 z M 10 14.464844 A 1.0001 1.0001 0 0 0 9.1347656 14.964844 L 6.6621094 19.246094 C 6.0741807 20.264419 6.5145433 21.606774 7.5917969 22.078125 C 10.401305 23.30684 13.598695 23.30684 16.408203 22.078125 C 17.485457 21.606774 17.925819 20.264419 17.337891 19.246094 L 14.865234 14.964844 A 1.0001 1.0001 0 0 0 13.5 14.597656 C 12.570408 15.134356 11.429592 15.134356 10.5 14.597656 A 1.0001 1.0001 0 0 0 10 14.464844 z M 10.5 16.597656 C 11.497155 16.918949 12.502845 16.918949 13.5 16.597656 L 15.605469 20.246094 C 13.305965 21.251762 10.694035 21.251762 8.3945312 20.246094 L 10.5 16.597656 z "/>
</svg>
