<?xml version="1.0" encoding="UTF-8" standalone="no"?>
<svg xmlns="http://www.w3.org/2000/svg" xmlns:svg="http://www.w3.org/2000/svg" width="24" height="24" viewBox="0 0 24 24" fill="currentColor" tags="calculate,formula,maths,operator,root,square,symbol" categories="development,maths">
  <path d="M 14 3 A 1.0001 1.0001 0 0 0 13.027344 3.7714844 L 9.8339844 17.339844 L 7.9492188 11.683594 A 1.0001 1.0001 0 0 0 7 11 L 3 11 A 1 1 0 0 0 2 12 A 1 1 0 0 0 3 13 L 6.2792969 13 L 9.0507812 21.316406 A 1.0001 1.0001 0 0 0 10.972656 21.228516 L 14.792969 5 L 21 5 A 1 1 0 0 0 22 4 A 1 1 0 0 0 21 3 L 14 3 z "/>
</svg>
