<?xml version="1.0" encoding="UTF-8" standalone="no"?>
<svg xmlns="http://www.w3.org/2000/svg" xmlns:svg="http://www.w3.org/2000/svg" width="24" height="24" viewBox="0 0 24 24" fill="currentColor" tags="shape,circle,geometry,trigonometry,radii,calculate,measure,size" categories="shapes,maths,design,tools">
  <path d="M 11.947266 1.0097656 C 11.782074 1.0107377 11.616123 1.015095 11.451172 1.0234375 C 8.8119583 1.1569169 6.2202106 2.2329144 4.2265625 4.2265625 C 0.2392663 8.2138587 -0.084662988 14.594352 3.4824219 18.960938 C 6.8927526 23.135636 12.817336 24.191341 17.441406 21.556641 C 17.896908 21.83675 18.431054 22 19 22 C 20.645006 22 22 20.645006 22 19 C 22 18.431054 21.83675 17.896908 21.556641 17.441406 C 24.191341 12.817336 23.135636 6.8927526 18.960938 3.4824219 C 16.9141 1.8103509 14.425136 0.99518401 11.947266 1.0097656 z M 11.957031 3 C 13.981584 2.9890995 16.015192 3.6607047 17.695312 5.0332031 C 21.036755 7.7628437 21.9393 12.419356 19.976562 16.166016 C 19.669993 16.059068 19.340974 16 19 16 C 18.539505 16 18.102617 16.107873 17.710938 16.296875 L 14.703125 13.289062 C 14.892127 12.897383 15 12.460495 15 12 C 15 10.354994 13.645006 9 12 9 C 10.354994 9 9 10.354994 9 12 C 9 13.645006 10.354994 15 12 15 C 12.460495 15 12.897383 14.892127 13.289062 14.703125 L 16.296875 17.710938 C 16.107873 18.102617 16 18.539505 16 19 C 16 19.340974 16.059068 19.669993 16.166016 19.976562 C 12.419356 21.9393 7.7628437 21.036755 5.0332031 17.695312 C 2.1052065 14.111056 2.3667319 8.9145181 5.640625 5.640625 C 7.3798807 3.9013693 9.6625376 3.0123539 11.957031 3 z M 12 11 C 12.564128 11 13 11.435872 13 12 C 13 12.258559 12.907415 12.489007 12.753906 12.664062 A 1 1 0 0 0 12.703125 12.703125 A 1 1 0 0 0 12.664062 12.753906 C 12.489007 12.907415 12.258559 13 12 13 C 11.435872 13 11 12.564128 11 12 C 11 11.435872 11.435872 11 12 11 z M 19 18 C 19.564128 18 20 18.435872 20 19 C 20 19.564128 19.564128 20 19 20 C 18.435872 20 18 19.564128 18 19 C 18 18.741441 18.092585 18.510993 18.246094 18.335938 A 1 1 0 0 0 18.296875 18.296875 A 1 1 0 0 0 18.365234 18.220703 C 18.536413 18.08231 18.755806 18 19 18 z "/>
</svg>
