<?xml version="1.0" encoding="UTF-8" standalone="no"?>
<svg xmlns="http://www.w3.org/2000/svg" xmlns:svg="http://www.w3.org/2000/svg" width="24" height="24" viewBox="0 0 24 24" fill="currentColor" tags="signal,broadcast,connectivity,live,frequency" categories="devices,multimedia,social">
  <path d="M 4.9003906 3.9003906 A 1 1 0 0 0 4.1933594 4.1933594 C -0.093434105 8.4801528 -0.093434105 15.519847 4.1933594 19.806641 A 1 1 0 0 0 5.6074219 19.806641 A 1 1 0 0 0 5.6074219 18.392578 C 2.0942153 14.879372 2.0942153 9.1206284 5.6074219 5.6074219 A 1 1 0 0 0 5.6074219 4.1933594 A 1 1 0 0 0 4.9003906 3.9003906 z M 19.099609 3.9003906 A 1 1 0 0 0 18.392578 4.1933594 A 1 1 0 0 0 18.392578 5.6074219 C 21.911828 9.1266721 21.911828 14.773719 18.392578 18.292969 A 1 1 0 0 0 18.392578 19.707031 A 1 1 0 0 0 19.806641 19.707031 C 24.08739 15.426281 24.08739 8.4741092 19.806641 4.1933594 A 1 1 0 0 0 19.099609 3.9003906 z M 7.7792969 6.7011719 A 1 1 0 0 0 7.078125 7.0078125 C 4.4132832 9.788517 4.4043289 14.216829 7.09375 16.90625 A 1 1 0 0 0 8.5078125 16.90625 A 1 1 0 0 0 8.5078125 15.492188 C 6.5972336 13.581608 6.5863262 10.411874 8.5214844 8.3925781 A 1 1 0 0 0 8.4921875 6.9785156 A 1 1 0 0 0 7.7792969 6.7011719 z M 16.199219 6.8007812 A 1 1 0 0 0 15.492188 7.09375 A 1 1 0 0 0 15.492188 8.5078125 C 17.402766 10.418391 17.413672 13.588126 15.478516 15.607422 A 1 1 0 0 0 15.507812 17.021484 A 1 1 0 0 0 16.921875 16.992188 C 19.586712 14.211486 19.595671 9.7831711 16.90625 7.09375 A 1 1 0 0 0 16.199219 6.8007812 z M 12 9 C 10.35499 9 9 10.35499 9 12 C 9 13.64501 10.35499 15 12 15 C 13.64501 15 15 13.64501 15 12 C 15 10.35499 13.64501 9 12 9 z M 12 11 C 12.564129 11 13 11.435871 13 12 C 13 12.564129 12.564129 13 12 13 C 11.435871 13 11 12.564129 11 12 C 11 11.435871 11.435871 11 12 11 z "/>
</svg>
