<?xml version="1.0" encoding="UTF-8" standalone="no"?>
<svg xmlns="http://www.w3.org/2000/svg" xmlns:svg="http://www.w3.org/2000/svg" width="24" height="24" viewBox="0 0 24 24" fill="currentColor" tags="radioactive,nuclear,fallout,waste,atomic,physics,particle,element,molecule" categories="science">
  <path d="M 6.5976562 2.6640625 C 6.2542195 2.6728242 5.8997528 2.7769779 5.6015625 3 C 3.1119662 4.8419527 1.3758317 7.650959 1.0234375 10.816406 C 0.90458504 11.438323 1.1579694 12.021251 1.53125 12.394531 C 1.9073118 12.770593 2.4222222 13 3 13 L 8 13 A 1.0001 1.0001 0 0 0 9 12 C 9 10.855556 9.6050361 9.9152552 10.447266 9.4941406 A 1.0001 1.0001 0 0 0 10.865234 8.0996094 C 9.7686998 6.2055943 8.8719456 4.6093459 8.375 3.7148438 A 1.0001 1.0001 0 0 0 8.3574219 3.6855469 C 8.0863641 3.2337838 7.6799608 2.9009908 7.1894531 2.7460938 C 7.0057331 2.6880769 6.8037183 2.6588055 6.5976562 2.6640625 z M 17.365234 2.7285156 C 17.235505 2.729626 17.106509 2.7439325 16.978516 2.7695312 C 16.499837 2.8652668 15.989142 3.1780619 15.726562 3.7070312 C 15.083072 4.6827035 14.212321 6.2344207 13.146484 7.9785156 A 1.0001 1.0001 0 0 0 13.496094 9.3632812 C 14.397728 9.8892324 15 10.855556 15 12 A 1.0001 1.0001 0 0 0 16 13 L 21 13 C 21.522222 13 22.05461 12.808671 22.431641 12.431641 C 22.808671 12.05461 23 11.522222 23 11 A 1.0001 1.0001 0 0 0 22.994141 10.896484 C 22.666414 7.7284629 21.029353 4.8726032 18.494141 3.0976562 C 18.145087 2.8377617 17.754421 2.7251844 17.365234 2.7285156 z M 6.6621094 4.75 C 7.092782 5.5247117 7.8921114 6.9329434 8.7617188 8.4453125 C 7.9930644 9.1092025 7.4924561 9.9631942 7.2714844 11 L 3.0292969 11 C 3.3194067 8.5115445 4.69103 6.2704118 6.6621094 4.75 z M 17.402344 4.8027344 C 19.372893 6.2137135 20.679533 8.4628556 20.972656 11 L 16.730469 11 C 16.507231 9.9513493 16.006087 9.073927 15.242188 8.3769531 C 16.120056 6.9156185 16.932562 5.5120972 17.402344 4.8027344 z M 12 11 A 1 1 0 0 0 11 12 A 1 1 0 0 0 12 13 L 12.009766 13 A 1 1 0 0 0 13.009766 12 A 1 1 0 0 0 12.009766 11 L 12 11 z M 9.9648438 14.5 A 1.0001 1.0001 0 0 0 9.1464844 14.978516 C 8.0431142 16.784031 7.1476605 18.376285 6.6425781 19.285156 C 6.0619079 20.25294 6.475693 21.595106 7.5234375 22.021484 C 10.365762 23.318776 13.634238 23.318776 16.476562 22.021484 C 17.524307 21.595106 17.938092 20.25294 17.357422 19.285156 C 16.85234 18.376285 15.956886 16.784031 14.853516 14.978516 A 1.0001 1.0001 0 0 0 13.496094 14.636719 C 12.630267 15.141784 11.369733 15.141784 10.503906 14.636719 A 1.0001 1.0001 0 0 0 9.9648438 14.5 z M 10.498047 16.632812 C 11.496014 16.954749 12.503986 16.954749 13.501953 16.632812 C 14.36586 18.073902 15.155506 19.442229 15.583984 20.212891 C 13.302499 21.233839 10.697501 21.233839 8.4160156 20.212891 C 8.8444939 19.442229 9.6341402 18.073902 10.498047 16.632812 z "/>
</svg>
