<?xml version="1.0" encoding="UTF-8" standalone="no"?>
<svg xmlns="http://www.w3.org/2000/svg" xmlns:svg="http://www.w3.org/2000/svg" width="24" height="24" viewBox="0 0 24 24" fill="currentColor" tags="device,music,connect" categories="devices">
  <path d="M 4 7 C 2.3553005 7 1 8.3553005 1 10 L 1 14 C 1 15.644699 2.3553005 17 4 17 L 4 18 A 1 1 0 0 0 5 19 A 1 1 0 0 0 6 18 L 6 17 L 18 17 L 18 18 A 1 1 0 0 0 19 19 A 1 1 0 0 0 20 18 L 20 17 C 21.644699 17 23 15.644699 23 14 L 23 10 C 23 8.3553005 21.644699 7 20 7 L 4 7 z M 4 9 L 20 9 C 20.571296 9 21 9.4287039 21 10 L 21 14 C 21 14.571296 20.571296 15 20 15 L 4 15 C 3.4287039 15 3 14.571296 3 14 L 3 10 C 3 9.4287039 3.4287039 9 4 9 z M 18 11 A 1 1 0 0 0 17 12 A 1 1 0 0 0 18 13 A 1 1 0 0 0 19 12 A 1 1 0 0 0 18 11 z "/>
</svg>
