<?xml version="1.0" encoding="UTF-8" standalone="no"?>
<svg xmlns="http://www.w3.org/2000/svg" xmlns:svg="http://www.w3.org/2000/svg" width="24" height="24" viewBox="0 0 24 24" fill="currentColor" tags="calculate,formula,math,operator,root,square,symbol" categories="development,math">
  <path d="M 14.791016 3 C 13.869338 3.00131 13.056767 3.6457826 12.845703 4.5429688 A 1.0001 1.0001 0 0 0 12.841797 4.5644531 L 9.9238281 18.396484 L 8.1894531 12.40625 A 1.0001 1.0001 0 0 0 8.1777344 12.367188 C 7.9070327 11.554427 7.1379024 11.00065 6.28125 11 A 1.0001 1.0001 0 0 0 6.2792969 11 L 3 11 A 1 1 0 0 0 2 12 A 1 1 0 0 0 3 13 L 6.2792969 13 L 8.5664062 20.896484 A 1.0001 1.0001 0 0 0 8.578125 20.9375 C 8.7981746 21.588472 9.4723609 21.984348 10.068359 21.957031 C 10.664358 21.929711 11.299405 21.475013 11.458984 20.806641 A 1.0001 1.0001 0 0 0 11.464844 20.78125 L 14.792969 5 L 21 5 A 1 1 0 0 0 22 4 A 1 1 0 0 0 21 3 L 14.792969 3 A 1.0001 1.0001 0 0 0 14.791016 3 z "/>
</svg>
