<?xml version="1.0" encoding="UTF-8" standalone="no"?>
<svg xmlns="http://www.w3.org/2000/svg" xmlns:svg="http://www.w3.org/2000/svg" width="24" height="24" viewBox="0 0 24 24" fill="currentColor" tags="shape,circle,geometry,trigonometry,radii,calculate,measure,size" categories="shapes,math,design,tools">
  <path d="M 11.947266 1.0097656 C 11.782074 1.0107378 11.616123 1.015095 11.451172 1.0234375 C 8.8119531 1.1569172 6.2202146 2.2329104 4.2265625 4.2265625 C 0.23925833 8.2138667 -0.084670125 14.594343 3.4824219 18.960938 C 6.8927593 23.135644 12.817328 24.191347 17.441406 21.556641 C 17.896908 21.83675 18.431053 22 19 22 C 20.64501 22 22 20.64501 22 19 C 22 18.431053 21.83675 17.896908 21.556641 17.441406 C 24.191347 12.817328 23.135644 6.8927593 18.960938 3.4824219 C 16.914097 1.8103475 14.425141 0.99518371 11.947266 1.0097656 z M 11.957031 3 C 13.981586 2.9890996 16.015189 3.6607019 17.695312 5.0332031 C 21.036763 7.7628491 21.939304 12.41935 19.976562 16.166016 C 19.669993 16.059068 19.340975 16 19 16 C 18.539504 16 18.102618 16.107873 17.710938 16.296875 L 14.703125 13.289062 C 14.892127 12.897382 15 12.460496 15 12 C 15 10.35499 13.64501 9 12 9 C 10.35499 9 9 10.35499 9 12 C 9 13.64501 10.35499 15 12 15 C 12.460496 15 12.897382 14.892127 13.289062 14.703125 L 16.296875 17.710938 C 16.107873 18.102618 16 18.539504 16 19 C 16 19.340975 16.059068 19.669993 16.166016 19.976562 C 12.41935 21.939304 7.7628491 21.036763 5.0332031 17.695312 C 2.1052005 14.111048 2.3667253 8.9145247 5.640625 5.640625 C 7.3798842 3.9013658 9.6625362 3.0123538 11.957031 3 z M 12 11 C 12.564129 11 13 11.435871 13 12 C 13 12.258559 12.907415 12.489007 12.753906 12.664062 A 1 1 0 0 0 12.703125 12.703125 A 1 1 0 0 0 12.664062 12.753906 C 12.489007 12.907415 12.258559 13 12 13 C 11.435871 13 11 12.564129 11 12 C 11 11.435871 11.435871 11 12 11 z M 19 18 C 19.564129 18 20 18.435871 20 19 C 20 19.564129 19.564129 20 19 20 C 18.435871 20 18 19.564129 18 19 C 18 18.741441 18.092585 18.510993 18.246094 18.335938 A 1 1 0 0 0 18.296875 18.296875 A 1 1 0 0 0 18.365234 18.220703 C 18.536413 18.08231 18.755806 18 19 18 z "/>
</svg>
