<?xml version="1.0" encoding="UTF-8" standalone="no"?>
<svg xmlns="http://www.w3.org/2000/svg" xmlns:svg="http://www.w3.org/2000/svg" width="24" height="24" viewBox="0 0 24 24" fill="currentColor" tags="shape,circle,geometry,trigonometry,radii,calculate,measure,size" categories="shapes,math,design,tools">
  <path d="M 12.441406 1.0175781 C 12.111081 1.0047502 11.781074 1.0067525 11.451172 1.0234375 C 8.8119531 1.1569172 6.2202146 2.2329104 4.2265625 4.2265625 C 0.23925833 8.2138667 -0.084670125 14.594343 3.4824219 18.960938 C 6.8931815 23.136161 12.820984 24.196494 17.445312 21.560547 C 17.900085 21.839396 18.432443 22 19 22 C 20.64501 22 22 20.64501 22 19 C 22 18.432443 21.839396 17.900085 21.560547 17.445312 C 24.196497 12.820983 23.136162 6.8931823 18.960938 3.4824219 C 17.050553 1.9218191 14.753683 1.1073736 12.441406 1.0175781 z M 12.361328 3.0078125 C 14.250625 3.0826575 16.127197 3.752202 17.695312 5.0332031 C 21.036574 7.7626948 21.942775 12.419459 19.980469 16.166016 C 19.672801 16.058211 19.342402 16 19 16 C 18.53929 16 18.100803 16.105755 17.708984 16.294922 L 14.705078 13.291016 C 14.894245 12.899197 15 12.46071 15 12 C 15 10.35499 13.64501 9 12 9 C 10.35499 9 9 10.35499 9 12 C 9 13.64501 10.35499 15 12 15 C 12.46071 15 12.899197 14.894245 13.291016 14.705078 L 16.294922 17.708984 C 16.105755 18.100803 16 18.53929 16 19 C 16 19.342402 16.058211 19.672801 16.166016 19.980469 C 12.419459 21.942775 7.7626948 21.036574 5.0332031 17.695312 C 2.1052005 14.111048 2.3667253 8.9145247 5.640625 5.640625 C 7.4821936 3.7990564 9.9322325 2.9115833 12.361328 3.0078125 z M 12 11 C 12.564129 11 13 11.435871 13 12 C 13 12.241935 12.919274 12.460368 12.783203 12.630859 A 1 1 0 0 0 12.703125 12.703125 A 1 1 0 0 0 12.630859 12.783203 C 12.460356 12.919314 12.241974 13 12 13 C 11.435871 13 11 12.564129 11 12 C 11 11.435871 11.435871 11 12 11 z M 19 18 C 19.229364 18 19.437231 18.071881 19.603516 18.195312 A 1 1 0 0 0 19.742188 18.320312 C 19.903311 18.496946 20 18.734408 20 19 C 20 19.564129 19.564129 20 19 20 C 18.734408 20 18.496946 19.903311 18.320312 19.742188 A 1 1 0 0 0 18.195312 19.603516 C 18.071881 19.437231 18 19.229364 18 19 C 18 18.758026 18.080686 18.539644 18.216797 18.369141 A 1 1 0 0 0 18.296875 18.296875 A 1 1 0 0 0 18.369141 18.216797 C 18.539644 18.080686 18.758026 18 19 18 z "/>
</svg>
