<?xml version="1.0" encoding="UTF-8" standalone="no"?>
<svg xmlns="http://www.w3.org/2000/svg" xmlns:svg="http://www.w3.org/2000/svg" width="24" height="24" viewBox="0 0 24 24" fill="currentColor" tags="radioactive,nuclear,fallout,waste,atomic,physics,particle,element,molecule" categories="science">
  
  <path d="M 6.5976562 2.6640625 C 6.2542197 2.6728243 5.8997521 2.7769783 5.6015625 3 C 3.1119712 4.8419491 1.375831 7.6509653 1.0234375 10.816406 C 0.90458528 11.438323 1.1579702 12.021252 1.53125 12.394531 C 1.907311 12.770593 2.4222234 13 3 13 L 8 13 A 1.0001 1.0001 0 0 0 9 12 C 9 10.855558 9.6050378 9.9152544 10.447266 9.4941406 A 1.0001 1.0001 0 0 0 10.865234 8.0996094 C 9.768702 6.2055981 8.8719446 4.6093441 8.375 3.7148438 A 1.0001 1.0001 0 0 0 8.3574219 3.6855469 C 8.0863645 3.2337847 7.6799598 2.9009906 7.1894531 2.7460938 C 7.0057335 2.688077 6.8037182 2.6588054 6.5976562 2.6640625 z M 17.365234 2.7285156 C 17.235506 2.729626 17.106509 2.7439325 16.978516 2.7695312 C 16.496639 2.8659064 15.981677 3.1833438 15.720703 3.71875 C 15.077632 4.6947969 14.209988 6.2382384 13.146484 7.9785156 A 1.0001 1.0001 0 0 0 13.496094 9.3632812 C 14.397726 9.8892314 15 10.855558 15 12 A 1.0001 1.0001 0 0 0 16 13 L 21 13 C 21.522221 13 22.05461 12.80867 22.431641 12.431641 C 22.80867 12.05461 23 11.522221 23 11 A 1.0001 1.0001 0 0 0 22.994141 10.896484 C 22.666415 7.7284692 21.029347 4.8725996 18.494141 3.0976562 C 18.145088 2.8377622 17.754421 2.7251845 17.365234 2.7285156 z M 6.6621094 4.75 C 7.092781 5.5247101 7.892113 6.9329464 8.7617188 8.4453125 C 7.993066 9.1092011 7.4924557 9.9631962 7.2714844 11 L 3.0292969 11 C 3.3194061 8.5115495 4.6910339 6.2704088 6.6621094 4.75 z M 17.402344 4.8027344 C 19.372889 6.2137107 20.679534 8.4628606 20.972656 11 L 16.730469 11 C 16.507231 9.9513514 16.006087 9.0739256 15.242188 8.3769531 C 16.120055 6.9156215 16.932563 5.5120958 17.402344 4.8027344 z M 12 11 A 1 1 0 0 0 11 12 A 1 1 0 0 0 12 13 L 12.009766 13 A 1 1 0 0 0 13.009766 12 A 1 1 0 0 0 12.009766 11 L 12 11 z M 9.9082031 14.503906 A 1.0001 1.0001 0 0 0 9.1464844 14.978516 C 8.0431164 16.784027 7.1476595 18.376287 6.6425781 19.285156 C 6.0619091 20.252938 6.475695 21.595107 7.5234375 22.021484 C 10.365756 23.318774 13.634244 23.318774 16.476562 22.021484 C 17.524305 21.595107 17.938091 20.252938 17.357422 19.285156 C 16.85234 18.376287 15.956884 16.784027 14.853516 14.978516 A 1.0001 1.0001 0 0 0 13.496094 14.636719 C 12.630269 15.141783 11.369731 15.141783 10.503906 14.636719 A 1.0001 1.0001 0 0 0 9.9082031 14.503906 z M 10.498047 16.632812 C 11.496012 16.954749 12.503988 16.954749 13.501953 16.632812 C 14.365858 18.073899 15.155508 19.44223 15.583984 20.212891 C 13.302505 21.233837 10.697496 21.233837 8.4160156 20.212891 C 8.8445341 19.44223 9.6341418 18.073899 10.498047 16.632812 z "/>
</svg>
