<?xml version="1.0" encoding="UTF-8" standalone="no"?>
<svg xmlns="http://www.w3.org/2000/svg" xmlns:svg="http://www.w3.org/2000/svg" width="24" height="24" viewBox="0 0 24 24" fill="currentColor" tags="colors,colours,spectrum,light,prism,arc,clear,sunshine" categories="weather">
  <path d="M 12 6 C 5.9367135 6 1 10.936709 1 17 A 1 1 0 0 0 2 18 A 1 1 0 0 0 3 17 C 3 12.017589 7.0175918 8 12 8 C 16.982408 8 21 12.017589 21 17 A 1 1 0 0 0 22 18 A 1 1 0 0 0 23 17 C 23 10.936709 18.063287 6 12 6 z M 12 10 C 8.1458524 10 5 13.145849 5 17 A 1 1 0 0 0 6 18 A 1 1 0 0 0 7 17 C 7 14.226729 9.2267307 12 12 12 C 14.773269 12 17 14.226729 17 17 A 1 1 0 0 0 18 18 A 1 1 0 0 0 19 17 C 19 13.145849 15.854148 10 12 10 z M 12 14 C 11.277778 14 10.542119 14.235347 9.9609375 14.751953 C 9.3797556 15.268559 9 16.083334 9 17 A 1 1 0 0 0 10 18 A 1 1 0 0 0 11 17 C 11 16.583334 11.120244 16.398107 11.289062 16.248047 C 11.45788 16.097986 11.722222 16 12 16 C 12.277778 16 12.542119 16.09799 12.710938 16.248047 C 12.879755 16.398107 13 16.583334 13 17 A 1 1 0 0 0 14 18 A 1 1 0 0 0 15 17 C 15 16.083334 14.620244 15.268559 14.039062 14.751953 C 13.45788 14.235347 12.722222 14 12 14 z "/>
</svg>
