<?xml version="1.0" encoding="UTF-8" standalone="no"?>
<svg xmlns="http://www.w3.org/2000/svg" xmlns:svg="http://www.w3.org/2000/svg" width="24" height="24" viewBox="0 0 24 24" fill="currentColor" tags="mouse,mice,gerbil,rodent,pet,pest,plague,disease" categories="animals">
  
  <path d="M 14 1 C 11.7902 1 10 2.7902005 10 5 C 10 5.4078756 10.109625 5.7845939 10.224609 6.15625 C 6.1800992 6.5626361 3 9.8454303 3 14 C 3 15.123556 3.3813228 16.161757 4.015625 17 L 4 17 C 3.0833353 17 2.268558 17.379757 1.7519531 17.960938 C 1.2353482 18.542119 1 19.27778 1 20 C 1 20.72222 1.2353482 21.457882 1.7519531 22.039062 C 2.268558 22.620244 3.0833353 23 4 23 L 13 23 A 1 1 0 0 0 14 22 A 1 1 0 0 0 13 21 L 4 21 C 3.5833345 21 3.398107 20.879755 3.2480469 20.710938 C 3.0979867 20.542121 3 20.277778 3 20 C 3 19.722222 3.0979867 19.45788 3.2480469 19.289062 C 3.398107 19.120246 3.5833345 19 4 19 L 16 19 A 1 1 0 0 0 17 18 A 1 1 0 0 0 16 17 L 14.837891 17 C 14.896354 16.771746 14.933727 16.539588 14.951172 16.308594 A 1 1 0 0 0 15 16 C 15 14.809806 15.809806 14 17 14 L 17.394531 14 C 18.541893 14.298766 20.015625 14.582031 20.015625 14.582031 A 1.0001 1.0001 0 0 0 20.076172 14.591797 C 21.273081 14.741411 22.55696 13.998722 22.871094 12.742188 A 1.0001 1.0001 0 0 0 22.900391 12.5 C 22.900391 12.2 22.958821 11.586665 22.53125 10.945312 L 22.568359 11.003906 L 21.419922 8.9941406 C 22.741896 7.9142836 23.285662 6.0696226 22.628906 4.4277344 C 22.016691 2.8971959 20.525773 1.9980185 18.972656 1.9824219 C 18.454951 1.9772219 17.929021 2.0709701 17.427734 2.2714844 A 1.0001 1.0001 0 0 0 17.353516 2.3046875 C 17.261115 2.3508879 17.171316 2.4005031 17.082031 2.4511719 C 16.348456 1.5647041 15.241022 1 14 1 z M 14 3 C 14.89098 3 15.569026 3.454154 15.853516 4.1816406 A 1 1 0 0 0 15.912109 4.3574219 C 15.96922 4.5555116 16 4.7705623 16 5 A 1 1 0 0 0 17 6 A 1 1 0 0 0 18 5 C 18 4.7529338 17.974481 4.512004 17.931641 4.2773438 C 18.011705 4.2287202 18.096886 4.1805414 18.197266 4.1289062 C 19.187517 3.7487225 20.39096 4.2205622 20.771484 5.171875 C 21.169425 6.1667248 20.687793 7.387774 19.728516 7.7714844 A 1.0001 1.0001 0 0 0 19.232422 9.1953125 L 20.832031 11.996094 A 1.0001 1.0001 0 0 0 20.867188 12.054688 C 20.853038 12.033458 20.872786 12.199805 20.884766 12.283203 C 20.800286 12.561197 20.695677 12.650582 20.328125 12.605469 C 20.261855 12.592879 18.767362 12.30889 17.763672 12.035156 A 1.0001 1.0001 0 0 0 17.5 12 L 17 12 C 15.794041 12 14.713727 12.533392 13.980469 13.376953 C 13.275606 12.566329 12.232098 12.014595 11.011719 12 A 1 1 0 0 0 10 12.988281 A 1 1 0 0 0 10.988281 14 C 11.883821 14.01071 12.49543 14.512696 12.794922 15.193359 C 13.045861 15.763677 13.05544 16.411983 12.701172 17 L 8 17 C 6.3454579 17 5 15.654542 5 14 C 5 10.629921 7.6299213 8 11 8 L 11.800781 8 A 1.0001 1.0001 0 0 0 12.507812 6.2929688 C 12.196375 5.9815313 12 5.5499989 12 5 C 12 3.8098063 12.809806 3 14 3 z M 16 8 A 1 1 0 0 0 15 9 A 1 1 0 0 0 16 10 L 16.009766 10 A 1 1 0 0 0 17.009766 9 A 1 1 0 0 0 16.009766 8 L 16 8 z "/>
</svg>
