<?xml version="1.0" encoding="UTF-8" standalone="no"?>
<svg xmlns="http://www.w3.org/2000/svg" xmlns:svg="http://www.w3.org/2000/svg" width="24" height="24" viewBox="0 0 24 24" fill="currentColor" tags="mouse,mice,gerbil,rodent,pet,pest,plague,disease" categories="animals">
  <path d="M 13.996094 1.0039062 C 13.511553 1.0006517 13.016364 1.0878632 12.53125 1.2792969 C 10.508597 2.0774669 9.6518192 4.3007885 10.253906 6.2148438 C 6.2587814 6.6138692 2.9875101 9.8279904 3 14.017578 A 1.0001 1.0001 0 0 0 3 14.019531 C 3.004191 15.137098 3.3843479 16.167265 4.0136719 17 L 4 17 C 3.0833335 17 2.268559 17.379756 1.7519531 17.960938 C 1.2353472 18.542119 1 19.277778 1 20 C 1 20.722222 1.2353472 21.457881 1.7519531 22.039062 C 2.268559 22.620244 3.0833335 23 4 23 L 13 23 A 1 1 0 0 0 14 22 A 1 1 0 0 0 13 21 L 4 21 C 3.5833337 21 3.3981073 20.879756 3.2480469 20.710938 C 3.0979864 20.542119 3 20.277778 3 20 C 3 19.722222 3.0979864 19.457881 3.2480469 19.289062 C 3.3981073 19.120244 3.5833337 19 4 19 L 8 19 L 16 19 A 1 1 0 0 0 17 18 A 1 1 0 0 0 16 17 L 14.875 17 C 14.957469 16.678822 14.998024 16.351559 15 16.027344 C 14.98222 14.758054 16.082346 13.81565 17.333984 14.027344 A 1.0001 1.0001 0 0 0 17.34375 14.029297 L 20.216797 14.482422 A 1.0001 1.0001 0 0 0 20.287109 14.492188 C 22.133866 14.649873 23.53522 12.687978 22.787109 10.992188 A 1.0001 1.0001 0 0 0 22.691406 10.820312 L 21.445312 9.046875 C 22.988112 7.7922051 23.500767 5.5427731 22.332031 3.7851562 C 21.626089 2.7235167 20.504154 2.1266092 19.339844 2.0273438 C 18.572257 1.9619013 17.787109 2.1140849 17.089844 2.4902344 C 16.438157 1.7026374 15.500294 1.1698987 14.476562 1.0371094 C 14.318306 1.0165817 14.157607 1.0049911 13.996094 1.0039062 z M 14.015625 2.9921875 C 15.078326 2.9822711 15.995153 3.8215067 16 4.9921875 A 1 1 0 0 0 17.003906 5.9882812 A 1 1 0 0 0 18 4.984375 C 17.999034 4.7509124 17.974915 4.5250883 17.935547 4.3046875 C 18.831502 3.7269094 20.037567 3.947479 20.666016 4.8925781 C 21.390998 5.9828515 20.930577 7.4101584 19.705078 7.8710938 A 1.0001 1.0001 0 0 0 19.238281 9.3828125 L 20.955078 11.830078 C 21.096548 12.203869 20.868518 12.531748 20.458984 12.498047 L 17.666016 12.056641 C 16.244991 11.816298 14.886745 12.370174 14.005859 13.363281 C 13.301164 12.560088 12.262385 12.014514 11.048828 12 A 1 1 0 0 0 10.035156 12.988281 A 1 1 0 0 0 11.023438 14 C 11.91898 14.01071 12.530586 14.512695 12.830078 15.193359 C 12.92367 15.406067 12.983559 15.630103 13.003906 15.857422 C 13.00154 15.923532 12.999063 15.989703 13 16.056641 A 1 1 0 0 0 13.009766 16.115234 C 12.995868 16.413969 12.908636 16.714003 12.736328 17 L 8 17 C 6.3358223 17.000012 5.0062407 15.675885 5 14.011719 C 4.98924 10.402319 8.0997822 7.6206824 11.685547 8.0332031 A 1.0001 1.0001 0 0 0 12.533203 6.359375 C 11.553627 5.3027392 11.925372 3.6695095 13.265625 3.140625 C 13.516922 3.0414592 13.770386 2.9944759 14.015625 2.9921875 z M 16 8 A 1 1 0 0 0 15 9 A 1 1 0 0 0 16 10 L 16.009766 10 A 1 1 0 0 0 17.009766 9 A 1 1 0 0 0 16.009766 8 L 16 8 z "/>
</svg>
