<svg xmlns="http://www.w3.org/2000/svg" xmlns:svg="http://www.w3.org/2000/svg" width="24" height="24" viewBox="0 0 24 24" fill="currentColor" tags="screens,sizes,rotate,rotation,adjust,aspect ratio,proportions,16:9,widescreen,4:3,resolution,responsive,mobile,desktop,dimensions,monitor,orientation,portrait,landscape" categories="layout,design,photography">
  <path d="M 8 1 C 6.3552972 1 5 2.3552972 5 4 L 5 5 L 4 5 C 2.3552972 5 1 6.3552972 1 8 L 1 16 C 1 17.644703 2.3552972 19 4 19 L 5 19 L 5 20 C 5 21.644703 6.3552972 23 8 23 L 16 23 C 17.644703 23 19 21.644703 19 20 L 19 19 L 20 19 C 21.644703 19 23 17.644703 23 16 L 23 8 C 23 6.3552972 21.644703 5 20 5 L 19 5 L 19 4 C 19 2.3552972 17.644703 1 16 1 L 8 1 z M 8 3 L 16 3 C 16.571297 3 17 3.4287028 17 4 L 17 5 L 7 5 L 7 4 C 7 3.4287028 7.4287028 3 8 3 z M 4 7 L 5 7 L 5 17 L 4 17 C 3.4287028 17 3 16.571297 3 16 L 3 8 C 3 7.4287028 3.4287028 7 4 7 z M 7 7 L 17 7 L 17 17 L 7 17 L 7 7 z M 19 7 L 20 7 C 20.571297 7 21 7.4287028 21 8 L 21 16 C 21 16.571297 20.571297 17 20 17 L 19 17 L 19 7 z M 7 19 L 17 19 L 17 20 C 17 20.571297 16.571297 21 16 21 L 8 21 C 7.4287028 21 7 20.571297 7 20 L 7 19 z "/>
</svg>
