<svg xmlns="http://www.w3.org/2000/svg" xmlns:svg="http://www.w3.org/2000/svg" width="24" height="24" viewBox="0 0 24 24" fill="currentColor" tags="bill,voucher,slip,check,counterfoil,details,small print,terms,conditions,contract" categories="finance,travel">
  <path d="M 9.6679688 0.99609375 C 9.237014 0.99609375 8.8042867 1.1168013 8.4277344 1.3574219 A 1.0001 1.0001 0 0 0 8.4257812 1.359375 L 7.4941406 1.9570312 C 7.3936123 2.0212702 7.2724033 2.0212702 7.171875 1.9570312 L 6.2402344 1.359375 A 1.0001 1.0001 0 0 0 6.2324219 1.3535156 C 5.8630241 1.1208429 5.4345511 1.0003843 4.9980469 1.0019531 C 3.9065457 1.0034682 3 1.9081886 3 3 L 3 21 C 3 22.091811 3.9065457 22.996532 4.9980469 22.998047 C 5.4345511 22.999647 5.8630266 22.879158 6.2324219 22.646484 A 1.0001 1.0001 0 0 0 6.2402344 22.640625 L 7.171875 22.042969 C 7.2724033 21.978729 7.3936123 21.978729 7.4941406 22.042969 L 8.4257812 22.640625 A 1.0001 1.0001 0 0 0 8.4277344 22.642578 C 9.180839 23.123819 10.153145 23.123819 10.90625 22.642578 A 1.0001 1.0001 0 0 0 10.908203 22.640625 L 11.837891 22.042969 C 11.938419 21.978729 12.061581 21.978729 12.162109 22.042969 L 13.091797 22.640625 A 1.0001 1.0001 0 0 0 13.09375 22.642578 C 13.846855 23.123819 14.819161 23.123819 15.572266 22.642578 A 1.0001 1.0001 0 0 0 15.574219 22.640625 L 16.505859 22.042969 C 16.606388 21.978729 16.727597 21.978729 16.828125 22.042969 L 17.759766 22.640625 A 1.0001 1.0001 0 0 0 17.767578 22.646484 C 18.136973 22.879158 18.565449 22.999616 19.001953 22.998047 C 20.093328 22.996491 21 22.091811 21 21 L 21 3 C 21 1.9081886 20.093454 1.0034682 19.001953 1.0019531 C 18.565449 1.0003831 18.136973 1.1208423 17.767578 1.3535156 A 1.0001 1.0001 0 0 0 17.759766 1.359375 L 16.828125 1.9570312 C 16.727597 2.0212703 16.606388 2.0212703 16.505859 1.9570312 L 15.574219 1.359375 A 1.0001 1.0001 0 0 0 15.572266 1.3574219 C 14.819161 0.87618072 13.846855 0.87618073 13.09375 1.3574219 A 1.0001 1.0001 0 0 0 13.091797 1.359375 L 12.162109 1.9570312 C 12.061581 2.0212703 11.938419 2.0212703 11.837891 1.9570312 L 10.908203 1.359375 A 1.0001 1.0001 0 0 0 10.90625 1.3574219 C 10.529745 1.1167982 10.098923 0.99609375 9.6679688 0.99609375 z M 9.6679688 2.9941406 C 9.7234031 2.9941406 9.7778608 3.0108492 9.828125 3.0429688 L 10.759766 3.640625 A 1.0001 1.0001 0 0 0 10.761719 3.6425781 C 11.514823 4.1238192 12.485177 4.1238192 13.238281 3.6425781 A 1.0001 1.0001 0 0 0 13.240234 3.640625 L 14.171875 3.0429688 C 14.272403 2.9787297 14.393612 2.9787297 14.494141 3.0429688 L 15.425781 3.640625 A 1.0001 1.0001 0 0 0 15.427734 3.6425781 C 16.180839 4.1238192 17.153145 4.1238192 17.90625 3.6425781 A 1.0001 1.0001 0 0 0 17.908203 3.640625 L 18.833984 3.046875 C 18.881838 3.0170376 18.937558 2.9996889 18.994141 3 A 1.0001 1.0001 0 0 0 19 3 L 19 21 A 1.0001 1.0001 0 0 0 18.994141 21 C 18.937561 21.000311 18.882026 20.982955 18.833984 20.953125 L 18.832031 20.953125 L 17.908203 20.359375 A 1.0001 1.0001 0 0 0 17.90625 20.357422 C 17.153145 19.876181 16.180839 19.876181 15.427734 20.357422 A 1.0001 1.0001 0 0 0 15.425781 20.359375 L 14.494141 20.957031 C 14.393612 21.021271 14.272403 21.021271 14.171875 20.957031 L 13.240234 20.359375 A 1.0001 1.0001 0 0 0 13.238281 20.357422 C 12.485177 19.876181 11.514823 19.876181 10.761719 20.357422 A 1.0001 1.0001 0 0 0 10.759766 20.359375 L 9.828125 20.957031 C 9.7275967 21.021271 9.6063877 21.021271 9.5058594 20.957031 L 8.5742188 20.359375 A 1.0001 1.0001 0 0 0 8.5722656 20.357422 C 7.819161 19.876181 6.8468546 19.876181 6.09375 20.357422 A 1.0001 1.0001 0 0 0 6.0917969 20.359375 L 5.1679688 20.953125 L 5.1660156 20.953125 C 5.1179646 20.982962 5.0624423 21.000311 5.0058594 21 A 1.0001 1.0001 0 0 0 5 21 L 5 3 A 1.0001 1.0001 0 0 0 5.0058594 3 C 5.0624424 2.9996889 5.117974 3.017038 5.1660156 3.046875 L 5.1679688 3.046875 L 6.0917969 3.640625 A 1.0001 1.0001 0 0 0 6.09375 3.6425781 C 6.8468546 4.1238192 7.819161 4.1238192 8.5722656 3.6425781 A 1.0001 1.0001 0 0 0 8.5742188 3.640625 L 9.5058594 3.0429688 C 9.5561235 3.0108492 9.6125344 2.9941406 9.6679688 2.9941406 z M 8 7 A 1 1 0 0 0 7 8 A 1 1 0 0 0 8 9 L 14 9 A 1 1 0 0 0 15 8 A 1 1 0 0 0 14 7 L 8 7 z M 8 11 A 1 1 0 0 0 7 12 A 1 1 0 0 0 8 13 L 16 13 A 1 1 0 0 0 17 12 A 1 1 0 0 0 16 11 L 8 11 z M 8 15 A 1 1 0 0 0 7 16 A 1 1 0 0 0 8 17 L 13 17 A 1 1 0 0 0 14 16 A 1 1 0 0 0 13 15 L 8 15 z "/>
</svg>
