<?xml version="1.0" encoding="UTF-8" standalone="no"?>
<svg xmlns="http://www.w3.org/2000/svg" xmlns:svg="http://www.w3.org/2000/svg" width="24" height="24" viewBox="0 0 24 24" fill="currentColor" tags="bill,voucher,slip,check,counterfoil,currency,rub,₽" categories="finance,travel">
  <path d="M 4.0566406 1.0019531 A 1.0001 1.0001 0 0 0 3 2 L 3 22 A 1.0001 1.0001 0 0 0 4.4472656 22.894531 L 6 22.117188 L 7.5527344 22.894531 A 1.0001 1.0001 0 0 0 8.4472656 22.894531 L 10 22.117188 L 11.552734 22.894531 A 1.0001 1.0001 0 0 0 12.447266 22.894531 L 14 22.117188 L 15.552734 22.894531 A 1.0001 1.0001 0 0 0 16.447266 22.894531 L 18 22.117188 L 19.552734 22.894531 A 1.0001 1.0001 0 0 0 21 22 L 21 2 A 1.0001 1.0001 0 0 0 19.552734 1.1054688 L 18 1.8828125 L 16.447266 1.1054688 A 1.0001 1.0001 0 0 0 15.552734 1.1054688 L 14 1.8828125 L 12.447266 1.1054688 A 1.0001 1.0001 0 0 0 11.552734 1.1054688 L 10 1.8828125 L 8.4472656 1.1054688 A 1.0001 1.0001 0 0 0 7.5527344 1.1054688 L 6 1.8828125 L 4.4472656 1.1054688 A 1.0001 1.0001 0 0 0 4.0566406 1.0019531 z M 8 3.1171875 L 9.5527344 3.8945312 A 1.0001 1.0001 0 0 0 10.447266 3.8945312 L 12 3.1171875 L 13.552734 3.8945312 A 1.0001 1.0001 0 0 0 14.447266 3.8945312 L 16 3.1171875 L 17.552734 3.8945312 A 1.0001 1.0001 0 0 0 18.447266 3.8945312 L 19 3.6171875 L 19 20.382812 L 18.447266 20.105469 A 1.0001 1.0001 0 0 0 17.552734 20.105469 L 16 20.882812 L 14.447266 20.105469 A 1.0001 1.0001 0 0 0 13.552734 20.105469 L 12 20.882812 L 10.447266 20.105469 A 1.0001 1.0001 0 0 0 9.5527344 20.105469 L 8 20.882812 L 6.4472656 20.105469 A 1.0001 1.0001 0 0 0 5.5527344 20.105469 L 5 20.382812 L 5 3.6171875 L 5.5527344 3.8945312 A 1.0001 1.0001 0 0 0 6.4472656 3.8945312 L 8 3.1171875 z M 10 6 A 1.0001 1.0001 0 0 0 9 7 L 9 10 L 8 10 A 1 1 0 0 0 7 11 A 1 1 0 0 0 8 12 L 9 12 L 9 14 L 8 14 A 1 1 0 0 0 7 15 A 1 1 0 0 0 8 16 L 9 16 L 9 17 A 1 1 0 0 0 10 18 A 1 1 0 0 0 11 17 L 11 16 L 13 16 A 1 1 0 0 0 14 15 A 1 1 0 0 0 13 14 L 11 14 L 11 12 L 13 12 C 13.916666 12 14.731441 11.620244 15.248047 11.039062 C 15.764653 10.45788 16 9.7222221 16 9 C 16 8.2777779 15.764653 7.5421194 15.248047 6.9609375 C 14.731441 6.3797556 13.916666 6 13 6 L 10 6 z M 11 8 L 13 8 C 13.416666 8 13.601893 8.1202444 13.751953 8.2890625 C 13.902014 8.4578806 14 8.7222221 14 9 C 14 9.2777779 13.902014 9.5421194 13.751953 9.7109375 C 13.601893 9.8797556 13.416666 10 13 10 L 11 10 L 11 8 z "/>
</svg>
