<?xml version="1.0" encoding="UTF-8" standalone="no"?>
<svg xmlns="http://www.w3.org/2000/svg" xmlns:svg="http://www.w3.org/2000/svg" width="24" height="24" viewBox="0 0 24 24" fill="currentColor" tags="bill,voucher,slip,check,counterfoil,currency,dollar,usd,$" categories="money,currency,travel">
  <path d="M 8 1 A 1.0001 1.0001 0 0 0 7.5527344 1.1054688 L 6 1.8828125 L 4.4472656 1.1054688 A 1.0001 1.0001 0 0 0 3 2 L 3 22 A 1.0001 1.0001 0 0 0 4.4472656 22.894531 L 6 22.117188 L 7.5527344 22.894531 A 1.0001 1.0001 0 0 0 8.4472656 22.894531 L 10 22.117188 L 11.552734 22.894531 A 1.0001 1.0001 0 0 0 12.447266 22.894531 L 14 22.117188 L 15.552734 22.894531 A 1.0001 1.0001 0 0 0 16.447266 22.894531 L 18 22.117188 L 19.552734 22.894531 A 1.0001 1.0001 0 0 0 21 22 L 21 2 A 1.0001 1.0001 0 0 0 19.552734 1.1054688 L 18 1.8828125 L 16.447266 1.1054688 A 1.0001 1.0001 0 0 0 15.552734 1.1054688 L 14 1.8828125 L 12.447266 1.1054688 A 1.0001 1.0001 0 0 0 11.552734 1.1054688 L 10 1.8828125 L 8.4472656 1.1054688 A 1.0001 1.0001 0 0 0 8 1 z M 8 3.1171875 L 9.5527344 3.8945312 A 1.0001 1.0001 0 0 0 10.447266 3.8945312 L 12 3.1171875 L 13.552734 3.8945312 A 1.0001 1.0001 0 0 0 14.447266 3.8945312 L 16 3.1171875 L 17.552734 3.8945312 A 1.0001 1.0001 0 0 0 18.447266 3.8945312 L 19 3.6171875 L 19 20.382812 L 18.447266 20.105469 A 1.0001 1.0001 0 0 0 17.552734 20.105469 L 16 20.882812 L 14.447266 20.105469 A 1.0001 1.0001 0 0 0 13.552734 20.105469 L 12 20.882812 L 10.447266 20.105469 A 1.0001 1.0001 0 0 0 9.5527344 20.105469 L 8 20.882812 L 6.4472656 20.105469 A 1.0001 1.0001 0 0 0 5.5527344 20.105469 L 5 20.382812 L 5 3.6171875 L 5.5527344 3.8945312 A 1.0001 1.0001 0 0 0 6.4472656 3.8945312 L 8 3.1171875 z M 12 5.5 A 1 1 0 0 0 11 6.5 L 11 7 L 10 7 C 9.0833353 7 8.268558 7.3797568 7.7519531 7.9609375 C 7.2353482 8.5421182 7 9.2777793 7 10 C 7 10.72222 7.2353482 11.457881 7.7519531 12.039062 C 8.268558 12.620243 9.0833353 13 10 13 L 11 13 L 11 15 L 8 15 A 1 1 0 0 0 7 16 A 1 1 0 0 0 8 17 L 11 17 L 11 17.5 A 1 1 0 0 0 12 18.5 A 1 1 0 0 0 13 17.5 L 13 17 L 14 17 C 14.916665 17 15.731441 16.620244 16.248047 16.039062 C 16.764651 15.457882 17 14.72222 17 14 C 17 13.27778 16.764651 12.542118 16.248047 11.960938 C 15.731441 11.379756 14.916665 11 14 11 L 13 11 L 13 9 L 16 9 A 1 1 0 0 0 17 8 A 1 1 0 0 0 16 7 L 13 7 L 13 6.5 A 1 1 0 0 0 12 5.5 z M 10 9 L 11 9 L 11 11 L 10 11 C 9.5833345 11 9.398107 10.879754 9.2480469 10.710938 C 9.0979867 10.54212 9 10.277778 9 10 C 9 9.7222227 9.0979867 9.4578802 9.2480469 9.2890625 C 9.398107 9.1202448 9.5833345 9 10 9 z M 13 13 L 14 13 C 14.416666 13 14.601893 13.120245 14.751953 13.289062 C 14.902013 13.457879 15 13.722222 15 14 C 15 14.277778 14.90201 14.54212 14.751953 14.710938 C 14.601893 14.879754 14.416666 15 14 15 L 13 15 L 13 13 z "/>
</svg>
