<?xml version="1.0" encoding="UTF-8" standalone="no"?>
<svg xmlns="http://www.w3.org/2000/svg" xmlns:svg="http://www.w3.org/2000/svg" width="24" height="24" viewBox="0 0 24 24" fill="currentColor" tags="bill,voucher,slip,check,counterfoil,currency,€" categories="money,currency,travel">
  <path d="M 8 1 A 1.0001 1.0001 0 0 0 7.5527344 1.1054688 L 6 1.8828125 L 4.4472656 1.1054688 A 1.0001 1.0001 0 0 0 3 2 L 3 22 A 1.0001 1.0001 0 0 0 4.4472656 22.894531 L 6 22.117188 L 7.5527344 22.894531 A 1.0001 1.0001 0 0 0 8.4472656 22.894531 L 10 22.117188 L 11.552734 22.894531 A 1.0001 1.0001 0 0 0 12.447266 22.894531 L 14 22.117188 L 15.552734 22.894531 A 1.0001 1.0001 0 0 0 16.447266 22.894531 L 18 22.117188 L 19.552734 22.894531 A 1.0001 1.0001 0 0 0 21 22 L 21 2 A 1.0001 1.0001 0 0 0 19.552734 1.1054688 L 18 1.8828125 L 16.447266 1.1054688 A 1.0001 1.0001 0 0 0 15.552734 1.1054688 L 14 1.8828125 L 12.447266 1.1054688 A 1.0001 1.0001 0 0 0 11.552734 1.1054688 L 10 1.8828125 L 8.4472656 1.1054688 A 1.0001 1.0001 0 0 0 8 1 z M 8 3.1171875 L 9.5527344 3.8945312 A 1.0001 1.0001 0 0 0 10.447266 3.8945312 L 12 3.1171875 L 13.552734 3.8945312 A 1.0001 1.0001 0 0 0 14.447266 3.8945312 L 16 3.1171875 L 17.552734 3.8945312 A 1.0001 1.0001 0 0 0 18.447266 3.8945312 L 19 3.6171875 L 19 20.382812 L 18.447266 20.105469 A 1.0001 1.0001 0 0 0 17.552734 20.105469 L 16 20.882812 L 14.447266 20.105469 A 1.0001 1.0001 0 0 0 13.552734 20.105469 L 12 20.882812 L 10.447266 20.105469 A 1.0001 1.0001 0 0 0 9.5527344 20.105469 L 8 20.882812 L 6.4472656 20.105469 A 1.0001 1.0001 0 0 0 5.5527344 20.105469 L 5 20.382812 L 5 3.6171875 L 5.5527344 3.8945312 A 1.0001 1.0001 0 0 0 6.4472656 3.8945312 L 8 3.1171875 z M 13.013672 7.0996094 C 12.400302 7.0942913 11.793685 7.2013763 11.228516 7.4101562 C 9.7241972 7.9658683 8.4622562 9.2694062 8.0800781 11 L 8 11 A 1 1 0 0 0 7 12 A 1 1 0 0 0 8 13 L 8.0410156 13 C 8.3673694 14.829877 9.6670881 16.214207 11.228516 16.791016 C 13.037058 17.459111 15.282408 17.076831 16.759766 15.349609 A 1 1 0 0 0 16.650391 13.939453 A 1 1 0 0 0 15.240234 14.050781 C 14.302143 15.147532 13.029184 15.323114 11.921875 14.914062 C 11.064394 14.597299 10.36057 13.946599 10.085938 13 L 13 13 A 1 1 0 0 0 14 12 A 1 1 0 0 0 13 11 L 10.152344 11 C 10.463353 10.161299 11.125997 9.5791625 11.921875 9.2851562 C 13.029184 8.876104 14.302143 9.0536398 15.240234 10.150391 A 1 1 0 0 0 16.650391 10.259766 A 1 1 0 0 0 16.759766 8.8496094 C 16.021087 7.9859986 15.08944 7.4601051 14.117188 7.2324219 C 13.752593 7.1470406 13.381694 7.1028002 13.013672 7.0996094 z "/>
</svg>
