<?xml version="1.0" encoding="UTF-8" standalone="no"?>
<svg xmlns="http://www.w3.org/2000/svg" xmlns:svg="http://www.w3.org/2000/svg" width="24" height="24" viewBox="0 0 24 24" fill="currentColor" tags="bill,voucher,slip,check,counterfoil,currency,cents,dollar,usd,$,¢" categories="finance,travel">
  <path d="M 4.0566406 1.0019531 A 1.0001 1.0001 0 0 0 3 2 L 3 22 A 1.0001 1.0001 0 0 0 4.4472656 22.894531 L 6 22.117188 L 7.5527344 22.894531 A 1.0001 1.0001 0 0 0 8.4472656 22.894531 L 10 22.117188 L 11.552734 22.894531 A 1.0001 1.0001 0 0 0 12.447266 22.894531 L 14 22.117188 L 15.552734 22.894531 A 1.0001 1.0001 0 0 0 16.447266 22.894531 L 18 22.117188 L 19.552734 22.894531 A 1.0001 1.0001 0 0 0 21 22 L 21 2 A 1.0001 1.0001 0 0 0 19.552734 1.1054688 L 18 1.8828125 L 16.447266 1.1054688 A 1.0001 1.0001 0 0 0 15.552734 1.1054688 L 14 1.8828125 L 12.447266 1.1054688 A 1.0001 1.0001 0 0 0 11.552734 1.1054688 L 10 1.8828125 L 8.4472656 1.1054688 A 1.0001 1.0001 0 0 0 7.5527344 1.1054688 L 6 1.8828125 L 4.4472656 1.1054688 A 1.0001 1.0001 0 0 0 4.0566406 1.0019531 z M 8 3.1171875 L 9.5527344 3.8945312 A 1.0001 1.0001 0 0 0 10.447266 3.8945312 L 12 3.1171875 L 13.552734 3.8945312 A 1.0001 1.0001 0 0 0 14.447266 3.8945312 L 16 3.1171875 L 17.552734 3.8945312 A 1.0001 1.0001 0 0 0 18.447266 3.8945312 L 19 3.6171875 L 19 20.382812 L 18.447266 20.105469 A 1.0001 1.0001 0 0 0 17.552734 20.105469 L 16 20.882812 L 14.447266 20.105469 A 1.0001 1.0001 0 0 0 13.552734 20.105469 L 12 20.882812 L 10.447266 20.105469 A 1.0001 1.0001 0 0 0 9.5527344 20.105469 L 8 20.882812 L 6.4472656 20.105469 A 1.0001 1.0001 0 0 0 5.5527344 20.105469 L 5 20.382812 L 5 3.6171875 L 5.5527344 3.8945312 A 1.0001 1.0001 0 0 0 6.4472656 3.8945312 L 8 3.1171875 z M 12 5.5 A 1 1 0 0 0 11 6.5 L 11 7.09375 C 10.736677 7.1453939 10.478475 7.218209 10.228516 7.3105469 C 8.4199691 7.9786442 6.9609375 9.7274606 6.9609375 12 C 6.9609375 14.272539 8.4199691 16.021356 10.228516 16.689453 C 10.478398 16.781762 10.736619 16.854757 11 16.90625 L 11 17.5 A 1 1 0 0 0 12 18.5 A 1 1 0 0 0 13 17.5 L 13 16.894531 C 14.014688 16.683023 14.99116 16.148599 15.759766 15.25 A 1 1 0 0 0 15.650391 13.839844 A 1 1 0 0 0 14.240234 13.949219 C 13.868937 14.383313 13.445181 14.673129 13 14.839844 L 13 9.1601562 C 13.445181 9.3268707 13.868937 9.6166866 14.240234 10.050781 A 1 1 0 0 0 15.650391 10.160156 A 1 1 0 0 0 15.759766 8.75 C 15.021086 7.8863876 14.089442 7.3585432 13.117188 7.1308594 C 13.078186 7.1217259 13.03912 7.1136361 13 7.1054688 L 13 6.5 A 1 1 0 0 0 12 5.5 z M 11 9.1582031 L 11 14.841797 C 10.973872 14.832858 10.947828 14.82404 10.921875 14.814453 C 9.8145641 14.4054 8.9609375 13.442836 8.9609375 12 C 8.9609375 10.557164 9.8145641 9.5946 10.921875 9.1855469 C 10.947828 9.1759596 10.973872 9.1671417 11 9.1582031 z "/>
</svg>
