<svg xmlns="http://www.w3.org/2000/svg" xmlns:svg="http://www.w3.org/2000/svg" width="24" height="24" viewBox="0 0 24 24" fill="currentColor" tags="bill,voucher,slip,check,counterfoil,currency,€" categories="finance,travel">
  <path d="M 4.0566406 1.0019531 A 1.0001 1.0001 0 0 0 3 2 L 3 22 A 1.0001 1.0001 0 0 0 4.4472656 22.894531 L 6 22.117188 L 7.5527344 22.894531 A 1.0001 1.0001 0 0 0 8.4472656 22.894531 L 10 22.117188 L 11.552734 22.894531 A 1.0001 1.0001 0 0 0 12.447266 22.894531 L 14 22.117188 L 15.552734 22.894531 A 1.0001 1.0001 0 0 0 16.447266 22.894531 L 18 22.117188 L 19.552734 22.894531 A 1.0001 1.0001 0 0 0 21 22 L 21 2 A 1.0001 1.0001 0 0 0 19.552734 1.1054688 L 18 1.8828125 L 16.447266 1.1054688 A 1.0001 1.0001 0 0 0 15.552734 1.1054688 L 14 1.8828125 L 12.447266 1.1054688 A 1.0001 1.0001 0 0 0 11.552734 1.1054688 L 10 1.8828125 L 8.4472656 1.1054688 A 1.0001 1.0001 0 0 0 7.5527344 1.1054688 L 6 1.8828125 L 4.4472656 1.1054688 A 1.0001 1.0001 0 0 0 4.0566406 1.0019531 z M 8 3.1171875 L 9.5527344 3.8945312 A 1.0001 1.0001 0 0 0 10.447266 3.8945312 L 12 3.1171875 L 13.552734 3.8945312 A 1.0001 1.0001 0 0 0 14.447266 3.8945312 L 16 3.1171875 L 17.552734 3.8945312 A 1.0001 1.0001 0 0 0 18.447266 3.8945312 L 19 3.6171875 L 19 20.382812 L 18.447266 20.105469 A 1.0001 1.0001 0 0 0 17.552734 20.105469 L 16 20.882812 L 14.447266 20.105469 A 1.0001 1.0001 0 0 0 13.552734 20.105469 L 12 20.882812 L 10.447266 20.105469 A 1.0001 1.0001 0 0 0 9.5527344 20.105469 L 8 20.882812 L 6.4472656 20.105469 A 1.0001 1.0001 0 0 0 5.5527344 20.105469 L 5 20.382812 L 5 3.6171875 L 5.5527344 3.8945312 A 1.0001 1.0001 0 0 0 6.4472656 3.8945312 L 8 3.1171875 z M 12.646484 7.1113281 C 12.158882 7.1424661 11.680652 7.243132 11.228516 7.4101562 C 9.7241628 7.9658811 8.4622274 9.2693498 8.0800781 11 L 8 11 A 1 1 0 0 0 7 12 A 1 1 0 0 0 8 13 L 8.0390625 13 C 8.3652689 14.830127 9.6669431 16.214153 11.228516 16.791016 C 13.037062 17.459113 15.282406 17.076834 16.759766 15.349609 A 1 1 0 0 0 16.650391 13.939453 A 1 1 0 0 0 15.240234 14.050781 C 14.302141 15.147534 13.029186 15.323115 11.921875 14.914062 C 11.063785 14.597074 10.3582 13.947693 10.083984 13 L 13 13 A 1 1 0 0 0 14 12 A 1 1 0 0 0 13 11 L 10.148438 11 C 10.459102 10.160121 11.125305 9.5794182 11.921875 9.2851562 C 13.029186 8.8761032 14.302141 9.0536376 15.240234 10.150391 A 1 1 0 0 0 16.650391 10.259766 A 1 1 0 0 0 16.759766 8.8496094 C 16.021086 7.985997 15.089442 7.4601057 14.117188 7.2324219 C 13.63106 7.11858 13.134086 7.0801902 12.646484 7.1113281 z "/>
</svg>
