<?xml version="1.0" encoding="UTF-8" standalone="no"?>
<svg xmlns="http://www.w3.org/2000/svg" xmlns:svg="http://www.w3.org/2000/svg" width="24" height="24" viewBox="0 0 24 24" fill="currentColor" tags="bill,voucher,slip,check,counterfoil,british,gbp,£" categories="money,currency,travel">
  
  <path d="M 8 1 A 1.0001 1.0001 0 0 0 7.5527344 1.1054688 L 6 1.8828125 L 4.4472656 1.1054688 A 1.0001 1.0001 0 0 0 3 2 L 3 22 A 1.0001 1.0001 0 0 0 4.4472656 22.894531 L 6 22.117188 L 7.5527344 22.894531 A 1.0001 1.0001 0 0 0 8.4472656 22.894531 L 10 22.117188 L 11.552734 22.894531 A 1.0001 1.0001 0 0 0 12.447266 22.894531 L 14 22.117188 L 15.552734 22.894531 A 1.0001 1.0001 0 0 0 16.447266 22.894531 L 18 22.117188 L 19.552734 22.894531 A 1.0001 1.0001 0 0 0 21 22 L 21 2 A 1.0001 1.0001 0 0 0 19.552734 1.1054688 L 18 1.8828125 L 16.447266 1.1054688 A 1.0001 1.0001 0 0 0 15.552734 1.1054688 L 14 1.8828125 L 12.447266 1.1054688 A 1.0001 1.0001 0 0 0 11.552734 1.1054688 L 10 1.8828125 L 8.4472656 1.1054688 A 1.0001 1.0001 0 0 0 8 1 z M 8 3.1171875 L 9.5527344 3.8945312 A 1.0001 1.0001 0 0 0 10.447266 3.8945312 L 12 3.1171875 L 13.552734 3.8945312 A 1.0001 1.0001 0 0 0 14.447266 3.8945312 L 16 3.1171875 L 17.552734 3.8945312 A 1.0001 1.0001 0 0 0 18.447266 3.8945312 L 19 3.6171875 L 19 20.382812 L 18.447266 20.105469 A 1.0001 1.0001 0 0 0 17.552734 20.105469 L 16 20.882812 L 14.447266 20.105469 A 1.0001 1.0001 0 0 0 13.552734 20.105469 L 12 20.882812 L 10.447266 20.105469 A 1.0001 1.0001 0 0 0 9.5527344 20.105469 L 8 20.882812 L 6.4472656 20.105469 A 1.0001 1.0001 0 0 0 5.5527344 20.105469 L 5 20.382812 L 5 3.6171875 L 5.5527344 3.8945312 A 1.0001 1.0001 0 0 0 6.4472656 3.8945312 L 8 3.1171875 z M 12.5 6 C 11.65278 6 10.792118 6.2770151 10.117188 6.8769531 C 9.4422565 7.4768911 9 8.4166691 9 9.5 L 9 12 L 8 12 A 1 1 0 0 0 7 13 A 1 1 0 0 0 8 14 L 9 14 L 9 16 L 8 16 A 1 1 0 0 0 7 17 A 1 1 0 0 0 8 18 L 10 18 L 15 18 A 1 1 0 0 0 16 17 A 1 1 0 0 0 15 16 L 11 16 L 11 14 L 13 14 A 1 1 0 0 0 14 13 A 1 1 0 0 0 13 12 L 11 12 L 11 9.5 C 11 8.9166683 11.182745 8.6064401 11.445312 8.3730469 C 11.707879 8.1396536 12.097223 8 12.5 8 C 12.902777 8 13.29212 8.1396536 13.554688 8.3730469 C 13.817254 8.6064401 14 8.9166683 14 9.5 A 1 1 0 0 0 15 10.5 A 1 1 0 0 0 16 9.5 C 16 8.4166691 15.557743 7.4768911 14.882812 6.8769531 C 14.207881 6.2770151 13.34722 6 12.5 6 z "/>
</svg>
