<?xml version="1.0" encoding="UTF-8" standalone="no"?>
<svg xmlns="http://www.w3.org/2000/svg" xmlns:svg="http://www.w3.org/2000/svg" width="24" height="24" viewBox="0 0 24 24" fill="currentColor" tags="bill,voucher,slip,check,counterfoil,currency,cents,dollar,usd,$,¢" categories="money,currency,travel">
  
  <path d="M 8 1 A 1.0001 1.0001 0 0 0 7.5527344 1.1054688 L 6 1.8828125 L 4.4472656 1.1054688 A 1.0001 1.0001 0 0 0 3 2 L 3 22 A 1.0001 1.0001 0 0 0 4.4472656 22.894531 L 6 22.117188 L 7.5527344 22.894531 A 1.0001 1.0001 0 0 0 8.4472656 22.894531 L 10 22.117188 L 11.552734 22.894531 A 1.0001 1.0001 0 0 0 12.447266 22.894531 L 14 22.117188 L 15.552734 22.894531 A 1.0001 1.0001 0 0 0 16.447266 22.894531 L 18 22.117188 L 19.552734 22.894531 A 1.0001 1.0001 0 0 0 21 22 L 21 2 A 1.0001 1.0001 0 0 0 19.552734 1.1054688 L 18 1.8828125 L 16.447266 1.1054688 A 1.0001 1.0001 0 0 0 15.552734 1.1054688 L 14 1.8828125 L 12.447266 1.1054688 A 1.0001 1.0001 0 0 0 11.552734 1.1054688 L 10 1.8828125 L 8.4472656 1.1054688 A 1.0001 1.0001 0 0 0 8 1 z M 8 3.1171875 L 9.5527344 3.8945312 A 1.0001 1.0001 0 0 0 10.447266 3.8945312 L 12 3.1171875 L 13.552734 3.8945312 A 1.0001 1.0001 0 0 0 14.447266 3.8945312 L 16 3.1171875 L 17.552734 3.8945312 A 1.0001 1.0001 0 0 0 18.447266 3.8945312 L 19 3.6171875 L 19 20.382812 L 18.447266 20.105469 A 1.0001 1.0001 0 0 0 17.552734 20.105469 L 16 20.882812 L 14.447266 20.105469 A 1.0001 1.0001 0 0 0 13.552734 20.105469 L 12 20.882812 L 10.447266 20.105469 A 1.0001 1.0001 0 0 0 9.5527344 20.105469 L 8 20.882812 L 6.4472656 20.105469 A 1.0001 1.0001 0 0 0 5.5527344 20.105469 L 5 20.382812 L 5 3.6171875 L 5.5527344 3.8945312 A 1.0001 1.0001 0 0 0 6.4472656 3.8945312 L 8 3.1171875 z M 12 5.5 A 1 1 0 0 0 11 6.5 L 11 7.0957031 C 10.736579 7.1473505 10.478564 7.2181761 10.228516 7.3105469 C 8.4199727 7.9786428 6.9609375 9.7274652 6.9609375 12 C 6.9609375 14.272535 8.4199727 16.021357 10.228516 16.689453 C 10.478092 16.78165 10.736953 16.852816 11 16.904297 L 11 17.5 A 1 1 0 0 0 12 18.5 A 1 1 0 0 0 13 17.5 L 13 16.892578 C 14.014739 16.68109 14.991125 16.14864 15.759766 15.25 A 1 1 0 0 0 15.650391 13.839844 A 1 1 0 0 0 14.240234 13.949219 C 13.868907 14.383349 13.445221 14.671183 13 14.837891 L 13 9.1621094 C 13.445221 9.3288169 13.868907 9.616651 14.240234 10.050781 A 1 1 0 0 0 15.650391 10.160156 A 1 1 0 0 0 15.759766 8.75 C 15.021087 7.8863894 14.08944 7.3585426 13.117188 7.1308594 C 13.07837 7.121769 13.038935 7.113602 13 7.1054688 L 13 6.5 A 1 1 0 0 0 12 5.5 z M 11 9.1601562 L 11 14.839844 C 10.974045 14.83096 10.947657 14.823977 10.921875 14.814453 C 9.8145664 14.405401 8.9609375 13.442834 8.9609375 12 C 8.9609375 10.557166 9.8145664 9.5945992 10.921875 9.1855469 C 10.947657 9.1760226 10.974045 9.1690403 11 9.1601562 z "/>
</svg>
