<?xml version="1.0" encoding="UTF-8" standalone="no"?>
<svg xmlns="http://www.w3.org/2000/svg" xmlns:svg="http://www.w3.org/2000/svg" width="24" height="24" viewBox="0 0 24 24" fill="currentColor" tags="bill,voucher,slip,check,counterfoil,currency,inr,₹" categories="finance,travel">
  <path d="M 4.0566406 1.0019531 A 1.0001 1.0001 0 0 0 3 2 L 3 22 A 1.0001 1.0001 0 0 0 4.4472656 22.894531 L 6 22.117188 L 7.5527344 22.894531 A 1.0001 1.0001 0 0 0 8.4472656 22.894531 L 10 22.117188 L 11.552734 22.894531 A 1.0001 1.0001 0 0 0 12.447266 22.894531 L 14 22.117188 L 15.552734 22.894531 A 1.0001 1.0001 0 0 0 16.447266 22.894531 L 18 22.117188 L 19.552734 22.894531 A 1.0001 1.0001 0 0 0 21 22 L 21 2 A 1.0001 1.0001 0 0 0 19.552734 1.1054688 L 18 1.8828125 L 16.447266 1.1054688 A 1.0001 1.0001 0 0 0 15.552734 1.1054688 L 14 1.8828125 L 12.447266 1.1054688 A 1.0001 1.0001 0 0 0 11.552734 1.1054688 L 10 1.8828125 L 8.4472656 1.1054688 A 1.0001 1.0001 0 0 0 7.5527344 1.1054688 L 6 1.8828125 L 4.4472656 1.1054688 A 1.0001 1.0001 0 0 0 4.0566406 1.0019531 z M 8 3.1171875 L 9.5527344 3.8945312 A 1.0001 1.0001 0 0 0 10.447266 3.8945312 L 12 3.1171875 L 13.552734 3.8945312 A 1.0001 1.0001 0 0 0 14.447266 3.8945312 L 16 3.1171875 L 17.552734 3.8945312 A 1.0001 1.0001 0 0 0 18.447266 3.8945312 L 19 3.6171875 L 19 20.382812 L 18.447266 20.105469 A 1.0001 1.0001 0 0 0 17.552734 20.105469 L 16 20.882812 L 14.447266 20.105469 A 1.0001 1.0001 0 0 0 13.552734 20.105469 L 12 20.882812 L 10.447266 20.105469 A 1.0001 1.0001 0 0 0 9.5527344 20.105469 L 8 20.882812 L 6.4472656 20.105469 A 1.0001 1.0001 0 0 0 5.5527344 20.105469 L 5 20.382812 L 5 3.6171875 L 5.5527344 3.8945312 A 1.0001 1.0001 0 0 0 6.4472656 3.8945312 L 8 3.1171875 z M 8 6 A 1 1 0 0 0 7 7 A 1 1 0 0 0 8 8 L 9 8 C 10.083333 8 10.768559 8.3702444 11.251953 8.9140625 C 11.522925 9.2189059 11.724194 9.5930442 11.849609 10 L 8 10 A 1 1 0 0 0 7 11 A 1 1 0 0 0 8 12 L 11.849609 12 C 11.724194 12.406956 11.522925 12.781094 11.251953 13.085938 C 10.768559 13.629755 10.083333 14 9 14 L 8 14 A 1.0001 1.0001 0 0 0 7.4707031 15.847656 L 11.470703 18.347656 A 1 1 0 0 0 12.847656 18.029297 A 1 1 0 0 0 12.529297 16.652344 L 10.878906 15.621094 C 11.616452 15.343894 12.269752 14.952145 12.748047 14.414062 C 13.365494 13.719434 13.745935 12.877314 13.908203 12 L 16 12 A 1 1 0 0 0 17 11 A 1 1 0 0 0 16 10 L 13.908203 10 C 13.776977 9.2905196 13.502877 8.6040555 13.076172 8 L 16 8 A 1 1 0 0 0 17 7 A 1 1 0 0 0 16 6 L 8 6 z "/>
</svg>
