<?xml version="1.0" encoding="UTF-8" standalone="no"?>
<svg xmlns="http://www.w3.org/2000/svg" xmlns:svg="http://www.w3.org/2000/svg" width="24" height="24" viewBox="0 0 24 24" fill="currentColor" tags="bill,voucher,slip,check,counterfoil,currency,jpy,¥" categories="finance,travel">
  <path d="M 4.0566406 1.0019531 A 1.0001 1.0001 0 0 0 3 2 L 3 22 A 1.0001 1.0001 0 0 0 4.4472656 22.894531 L 6 22.117188 L 7.5527344 22.894531 A 1.0001 1.0001 0 0 0 8.4472656 22.894531 L 10 22.117188 L 11.552734 22.894531 A 1.0001 1.0001 0 0 0 12.447266 22.894531 L 14 22.117188 L 15.552734 22.894531 A 1.0001 1.0001 0 0 0 16.447266 22.894531 L 18 22.117188 L 19.552734 22.894531 A 1.0001 1.0001 0 0 0 21 22 L 21 2 A 1.0001 1.0001 0 0 0 19.552734 1.1054688 L 18 1.8828125 L 16.447266 1.1054688 A 1.0001 1.0001 0 0 0 15.552734 1.1054688 L 14 1.8828125 L 12.447266 1.1054688 A 1.0001 1.0001 0 0 0 11.552734 1.1054688 L 10 1.8828125 L 8.4472656 1.1054688 A 1.0001 1.0001 0 0 0 7.5527344 1.1054688 L 6 1.8828125 L 4.4472656 1.1054688 A 1.0001 1.0001 0 0 0 4.0566406 1.0019531 z M 8 3.1171875 L 9.5527344 3.8945312 A 1.0001 1.0001 0 0 0 10.447266 3.8945312 L 12 3.1171875 L 13.552734 3.8945312 A 1.0001 1.0001 0 0 0 14.447266 3.8945312 L 16 3.1171875 L 17.552734 3.8945312 A 1.0001 1.0001 0 0 0 18.447266 3.8945312 L 19 3.6171875 L 19 20.382812 L 18.447266 20.105469 A 1.0001 1.0001 0 0 0 17.552734 20.105469 L 16 20.882812 L 14.447266 20.105469 A 1.0001 1.0001 0 0 0 13.552734 20.105469 L 12 20.882812 L 10.447266 20.105469 A 1.0001 1.0001 0 0 0 9.5527344 20.105469 L 8 20.882812 L 6.4472656 20.105469 A 1.0001 1.0001 0 0 0 5.5527344 20.105469 L 5 20.382812 L 5 3.6171875 L 5.5527344 3.8945312 A 1.0001 1.0001 0 0 0 6.4472656 3.8945312 L 8 3.1171875 z M 9 6 A 1 1 0 0 0 8.2929688 6.2929688 A 1 1 0 0 0 8.2929688 7.7070312 L 10.585938 10 L 9 10 A 1 1 0 0 0 8 11 A 1 1 0 0 0 9 12 L 11 12 L 11 14 L 9 14 A 1 1 0 0 0 8 15 A 1 1 0 0 0 9 16 L 11 16 L 11 17.5 A 1 1 0 0 0 12 18.5 A 1 1 0 0 0 13 17.5 L 13 16 L 15 16 A 1 1 0 0 0 16 15 A 1 1 0 0 0 15 14 L 13 14 L 13 12 L 15 12 A 1 1 0 0 0 16 11 A 1 1 0 0 0 15 10 L 13.414062 10 L 15.707031 7.7070312 A 1 1 0 0 0 15.707031 6.2929688 A 1 1 0 0 0 15 6 A 1 1 0 0 0 14.292969 6.2929688 L 12 8.5859375 L 9.7070312 6.2929688 A 1 1 0 0 0 9 6 z "/>
</svg>
