<svg xmlns="http://www.w3.org/2000/svg" xmlns:svg="http://www.w3.org/2000/svg" width="24" height="24" viewBox="0 0 24 24" fill="currentColor" tags="compose,keyboard,key,button" categories="development,text">
  <path d="M 3 3 C 1.9072751 3 1 3.9072751 1 5 L 1 19 C 1 20.092725 1.9072751 21 3 21 L 14 21 C 18.958718 21 23 16.958718 23 12 C 23 7.0412819 18.958718 3 14 3 L 3 3 z M 3 5 L 8.3515625 5 C 6.3087791 6.651937 5 9.1773316 5 12 C 5 14.822668 6.3087791 17.348063 8.3515625 19 L 3 19 L 3 5 z M 13 5.0703125 L 13 18.929688 C 9.5991732 18.447218 7 15.538177 7 12 C 7 8.4618231 9.5991732 5.5527824 13 5.0703125 z M 15 5.0703125 C 18.400827 5.5527824 21 8.4618231 21 12 C 21 15.538177 18.400827 18.447218 15 18.929688 L 15 5.0703125 z "/>
</svg>
