<?xml version="1.0" encoding="UTF-8" standalone="no"?>
<svg xmlns="http://www.w3.org/2000/svg" xmlns:svg="http://www.w3.org/2000/svg" width="24" height="24" viewBox="0 0 24 24" fill="currentColor" tags="rectangle,aspect ratio,16:9,horizontal,shape" categories="shapes,design">
  <path d="M 4 5 C 2.3552972 5 1 6.3552972 1 8 L 1 16 C 1 17.644703 2.3552972 19 4 19 L 20 19 C 21.644703 19 23 17.644703 23 16 L 23 8 C 23 6.3552972 21.644703 5 20 5 L 4 5 z M 4 7 L 20 7 C 20.571297 7 21 7.4287028 21 8 L 21 16 C 21 16.571297 20.571297 17 20 17 L 4 17 C 3.4287028 17 3 16.571297 3 16 L 3 8 C 3 7.4287028 3.4287028 7 4 7 z "/>
</svg>
