<?xml version="1.0" encoding="UTF-8" standalone="no"?>
<svg xmlns="http://www.w3.org/2000/svg" xmlns:svg="http://www.w3.org/2000/svg" width="24" height="24" viewBox="0 0 24 24" fill="currentColor" tags="vr,virtual,augmented,reality,headset,goggles" categories="devices,gaming,multimedia,connectivity">
  <path d="M 4 5 C 2.3549904 5 1 6.3549904 1 8 L 1 16 C 1 17.64501 2.3549904 19 4 19 L 8 19 C 8.9433949 19 9.8343533 18.555497 10.400391 17.800781 L 12 15.669922 L 13.599609 17.800781 C 14.165646 18.555497 15.056605 19 16 19 L 20 19 C 21.64501 19 23 17.64501 23 16 L 23 8 C 23 6.3549904 21.64501 5 20 5 L 4 5 z M 4 7 L 20 7 C 20.564129 7 21 7.4358706 21 8 L 21 16 C 21 16.564129 20.564129 17 20 17 L 16 17 C 15.684366 17 15.388599 16.852117 15.199219 16.599609 L 13.599609 14.470703 C 12.815609 13.42537 11.184391 13.42537 10.400391 14.470703 L 8.8007812 16.599609 C 8.6114005 16.852117 8.3156343 17 8 17 L 4 17 C 3.4358706 17 3 16.564129 3 16 L 3 8 C 3 7.4358706 3.4358706 7 4 7 z "/>
</svg>
