<svg xmlns="http://www.w3.org/2000/svg" xmlns:svg="http://www.w3.org/2000/svg" width="24" height="24" viewBox="0 0 24 24" fill="currentColor" tags="undo,rerun,history" categories="text,arrows">
  <path d="M 21 6 A 1 1 0 0 0 20 7 L 20 10.753906 L 18.669922 9.5566406 A 1.0001 1.0001 0 0 0 18.667969 9.5546875 C 16.836157 7.9117067 14.462661 7.0025058 12.001953 7 A 1.0001 1.0001 0 0 0 12 7 C 6.4889971 7 2 11.488997 2 17 A 1 1 0 0 0 3 18 A 1 1 0 0 0 4 17 C 4 12.570544 7.5688496 9.0010741 11.998047 9 C 13.967094 9.00201 15.866185 9.7302178 17.332031 11.044922 L 18.392578 12 L 15 12 A 1 1 0 0 0 14 13 A 1 1 0 0 0 15 14 L 20.939453 14 L 21 14 A 1 1 0 0 0 21.121094 13.992188 A 1 1 0 0 0 21.130859 13.992188 A 1.0001 1.0001 0 0 0 21.144531 13.990234 A 1 1 0 0 0 21.238281 13.970703 A 1.0001 1.0001 0 0 0 21.277344 13.960938 A 1 1 0 0 0 21.378906 13.925781 A 1 1 0 0 0 21.382812 13.923828 A 1.0001 1.0001 0 0 0 21.384766 13.921875 A 1 1 0 0 0 21.5 13.865234 A 1 1 0 0 0 21.607422 13.792969 A 1 1 0 0 0 21.609375 13.792969 A 1.0001 1.0001 0 0 0 21.611328 13.791016 A 1 1 0 0 0 21.699219 13.714844 A 1 1 0 0 0 21.707031 13.707031 A 1.0001 1.0001 0 0 0 21.712891 13.701172 A 1 1 0 0 0 21.744141 13.669922 A 1 1 0 0 0 21.785156 13.619141 A 1 1 0 0 0 21.792969 13.609375 A 1.0001 1.0001 0 0 0 21.796875 13.603516 A 1 1 0 0 0 21.865234 13.5 A 1 1 0 0 0 21.921875 13.386719 A 1 1 0 0 0 21.923828 13.382812 A 1.0001 1.0001 0 0 0 21.925781 13.378906 A 1 1 0 0 0 21.957031 13.287109 A 1.0001 1.0001 0 0 0 21.972656 13.234375 A 1 1 0 0 0 21.988281 13.150391 A 1 1 0 0 0 21.992188 13.130859 A 1.0001 1.0001 0 0 0 21.992188 13.121094 A 1 1 0 0 0 22 13 L 22 12.939453 L 22 7 A 1 1 0 0 0 21 6 z "/>
</svg>
