<?xml version="1.0" encoding="UTF-8" standalone="no"?>
<svg xmlns="http://www.w3.org/2000/svg" xmlns:svg="http://www.w3.org/2000/svg" width="24" height="24" viewBox="0 0 24 24" fill="currentColor" tags="redo,history,step,over,forward" categories="text,arrows">
  <path d="M 21 6 A 1 1 0 0 0 20 7 L 20 10.753906 L 18.669922 9.5566406 A 1.0001 1.0001 0 0 0 18.667969 9.5546875 C 16.836157 7.9117067 14.462661 7.0025058 12.001953 7 A 1.0001 1.0001 0 0 0 12 7 C 6.4889971 7 2 11.488997 2 17 A 1 1 0 0 0 3 18 A 1 1 0 0 0 4 17 C 4 12.570544 7.5688496 9.0010741 11.998047 9 C 13.967094 9.00201 15.866185 9.7302178 17.332031 11.044922 L 18.392578 12 L 15 12 A 1 1 0 0 0 14 13 A 1 1 0 0 0 15 14 L 21 14 A 1.0001 1.0001 0 0 0 21.027344 13.996094 A 1 1 0 0 0 21.107422 13.986328 A 1.0001 1.0001 0 0 0 21.371094 13.919922 A 1 1 0 0 0 21.462891 13.880859 A 1.0001 1.0001 0 0 0 21.724609 13.685547 A 1 1 0 0 0 21.744141 13.669922 A 1 1 0 0 0 21.865234 13.5 A 1 1 0 0 0 21.962891 13.271484 A 1.0001 1.0001 0 0 0 21.96875 13.251953 A 1 1 0 0 0 22 13.007812 A 1 1 0 0 0 22 13 L 22 12.947266 L 22 7 A 1 1 0 0 0 21 6 z M 12 15 C 10.907275 15 10 15.907275 10 17 C 10 18.092725 10.907275 19 12 19 C 13.092725 19 14 18.092725 14 17 C 14 15.907275 13.092725 15 12 15 z "/>
</svg>
