<?xml version="1.0" encoding="UTF-8" standalone="no"?>
<svg xmlns="http://www.w3.org/2000/svg" xmlns:svg="http://www.w3.org/2000/svg" width="24" height="24" viewBox="0 0 24 24" fill="currentColor" tags="undo,rerun,history" categories="text,arrows">
  <path d="M 15 3 A 1 1 0 0 0 14.292969 3.2929688 A 1 1 0 0 0 14.292969 4.7070312 L 17.585938 8 L 9.5 8 C 5.9219938 8 3 10.921994 3 14.5 C 3 18.078006 5.9219938 21 9.5 21 L 13 21 A 1 1 0 0 0 14 20 A 1 1 0 0 0 13 19 L 9.5 19 C 7.002874 19 5 16.997126 5 14.5 C 5 12.002874 7.002874 10 9.5 10 L 17.585938 10 L 14.292969 13.292969 A 1 1 0 0 0 14.292969 14.707031 A 1 1 0 0 0 15.707031 14.707031 L 20.697266 9.7167969 A 1 1 0 0 0 20.707031 9.7070312 A 1.0001 1.0001 0 0 0 20.785156 9.6191406 A 1 1 0 0 0 20.792969 9.609375 A 1.0001 1.0001 0 0 0 20.861328 9.5078125 A 1 1 0 0 0 20.865234 9.5 A 1.0001 1.0001 0 0 0 20.921875 9.3886719 A 1 1 0 0 0 20.923828 9.3828125 A 1 1 0 0 0 20.964844 9.2578125 A 1.0001 1.0001 0 0 0 20.976562 9.2050781 A 1.0001 1.0001 0 0 0 21 9 A 1.0001 1.0001 0 0 0 20.976562 8.7949219 A 1.0001 1.0001 0 0 0 20.964844 8.7421875 A 1 1 0 0 0 20.923828 8.6171875 A 1.0001 1.0001 0 0 0 20.921875 8.6113281 A 1 1 0 0 0 20.865234 8.5 A 1.0001 1.0001 0 0 0 20.861328 8.4921875 A 1 1 0 0 0 20.792969 8.390625 A 1.0001 1.0001 0 0 0 20.785156 8.3808594 A 1 1 0 0 0 20.707031 8.2929688 L 20.697266 8.2832031 L 15.707031 3.2929688 A 1 1 0 0 0 15 3 z "/>
</svg>
