<?xml version="1.0" encoding="UTF-8" standalone="no"?>
<svg xmlns="http://www.w3.org/2000/svg" xmlns:svg="http://www.w3.org/2000/svg" width="24" height="24" viewBox="0 0 24 24" fill="currentColor" tags="arrows,rotate,reload,synchronise,synchronize,circular,cycle,issue,code,coding,version control" categories="arrows,development">
  <path d="M 3 1 A 1 1 0 0 0 2 2 L 2 8 A 1.0001 1.0001 0 0 0 2.0527344 8.3046875 A 1 1 0 0 0 2.0839844 8.3808594 A 1.0001 1.0001 0 0 0 2.2246094 8.6191406 A 1 1 0 0 0 2.2558594 8.6699219 A 1 1 0 0 0 2.2753906 8.6855469 A 1.0001 1.0001 0 0 0 2.5371094 8.8808594 A 1 1 0 0 0 2.6289062 8.9199219 A 1.0001 1.0001 0 0 0 2.8925781 8.9863281 A 1 1 0 0 0 2.9726562 8.9960938 A 1.0001 1.0001 0 0 0 3 9 L 9 9 A 1 1 0 0 0 10 8 A 1 1 0 0 0 9 7 L 5.6054688 7 L 6.6660156 6.0449219 L 6.6699219 6.0429688 C 9.2731135 3.7169922 12.564138 3.4982056 15.261719 4.703125 C 17.960483 5.9085732 19.996817 8.5067309 20 12 A 1 1 0 0 0 21 13 A 1 1 0 0 0 22 12 C 21.996099 7.7183734 19.428823 4.3735983 16.078125 2.8769531 C 14.402776 2.1286305 12.514978 1.834453 10.646484 2.0839844 C 8.7779911 2.3335157 6.9296523 3.1274772 5.3339844 4.5546875 A 1.0001 1.0001 0 0 0 5.3300781 4.5566406 L 4 5.7539062 L 4 2 A 1 1 0 0 0 3 1 z M 12 10 C 10.907275 10 10 10.907275 10 12 C 10 13.092725 10.907275 14 12 14 C 13.092725 14 14 13.092725 14 12 C 14 10.907275 13.092725 10 12 10 z M 3 11 A 1 1 0 0 0 2 12 C 2.0039 16.281627 4.5711769 19.626402 7.921875 21.123047 C 11.272573 22.619692 15.47468 22.299733 18.666016 19.445312 A 1.0001 1.0001 0 0 0 18.669922 19.443359 L 20 18.246094 L 20 22 A 1 1 0 0 0 21 23 A 1 1 0 0 0 22 22 L 22 16.052734 A 1 1 0 0 0 22 16 A 1.0001 1.0001 0 0 0 22 15.992188 A 1 1 0 0 0 21.96875 15.748047 A 1.0001 1.0001 0 0 0 21.962891 15.728516 A 1 1 0 0 0 21.744141 15.330078 A 1 1 0 0 0 21.724609 15.314453 A 1.0001 1.0001 0 0 0 21.462891 15.119141 A 1 1 0 0 0 21.371094 15.080078 A 1.0001 1.0001 0 0 0 21.107422 15.013672 A 1 1 0 0 0 21.027344 15.003906 A 1.0001 1.0001 0 0 0 21 15 L 15 15 A 1 1 0 0 0 14 16 A 1 1 0 0 0 15 17 L 18.392578 17 L 17.330078 17.957031 C 14.726892 20.283055 11.435862 20.501794 8.7382812 19.296875 C 6.0395166 18.091427 4.003183 15.493269 4 12 A 1 1 0 0 0 3 11 z "/>
</svg>
