<?xml version="1.0" encoding="UTF-8" standalone="no"?>
<svg xmlns="http://www.w3.org/2000/svg" xmlns:svg="http://www.w3.org/2000/svg" width="24" height="24" viewBox="0 0 24 24" fill="currentColor" tags="rotate,reload,rerun,synchronise,synchronize,arrows,circular,cycle,cancel,no,stop,error,disconnect,ignore" categories="arrows">
  <path d="M 2 1 A 1 1 0 0 0 1.2929688 1.2929688 A 1 1 0 0 0 1.2929688 2.7070312 L 4.2578125 5.671875 C 2.8401507 7.3928832 2 9.6034952 2 12 A 1 1 0 0 0 3 13 A 1 1 0 0 0 4 12 C 4 10.138549 4.6243739 8.442715 5.6816406 7.0957031 L 16.904297 18.318359 C 15.558289 19.374728 13.86367 19.999106 12.003906 20 C 9.7455827 19.991504 7.5787505 19.11066 5.9550781 17.541016 L 5.4140625 17 L 8 17 A 1 1 0 0 0 9 16 A 1 1 0 0 0 8 15 L 3 15 A 1.0001 1.0001 0 0 0 2.1230469 15.527344 A 1 1 0 0 0 2.0898438 15.605469 A 1.0001 1.0001 0 0 0 2.0253906 15.802734 A 1 1 0 0 0 2.0117188 15.908203 A 1.0001 1.0001 0 0 0 2 16 L 2 21 A 1 1 0 0 0 3 22 A 1 1 0 0 0 4 21 L 4 18.414062 L 4.5527344 18.966797 A 1.0001 1.0001 0 0 0 4.5644531 18.978516 C 6.5587113 20.906415 9.2223312 21.989565 11.996094 22 A 1.0001 1.0001 0 0 0 12 22 C 14.396623 22 16.60708 21.159976 18.328125 19.742188 L 21.292969 22.707031 A 1 1 0 0 0 22.707031 22.707031 A 1 1 0 0 0 22.707031 21.292969 L 19.0625 17.648438 L 6.3515625 4.9375 L 2.7070312 1.2929688 A 1 1 0 0 0 2 1 z M 12 2 C 10.893335 2 9.8136929 2.1778444 8.8046875 2.5253906 A 1 1 0 0 0 8.1835938 3.7949219 A 1 1 0 0 0 9.4550781 4.4160156 C 10.244886 4.1439705 11.104197 4.000427 11.996094 4 C 14.254417 4.0085 16.421249 4.889339 18.044922 6.4589844 L 18.585938 7 L 16 7 A 1 1 0 0 0 15 8 A 1 1 0 0 0 16 9 L 21 9 A 1.0001 1.0001 0 0 0 21.091797 8.9882812 A 1 1 0 0 0 21.197266 8.9746094 A 1.0001 1.0001 0 0 0 21.394531 8.9101562 A 1 1 0 0 0 21.472656 8.8769531 A 1.0001 1.0001 0 0 0 21.707031 8.7070312 A 1 1 0 0 0 21.857422 8.5097656 A 1.0001 1.0001 0 0 0 21.871094 8.484375 A 1 1 0 0 0 21.957031 8.2832031 A 1.0001 1.0001 0 0 0 21.96875 8.2421875 A 1 1 0 0 0 22 8 L 22 3 A 1 1 0 0 0 21 2 A 1 1 0 0 0 20 3 L 20 5.5859375 L 19.447266 5.0332031 A 1.0001 1.0001 0 0 0 19.435547 5.0214844 C 17.441289 3.0935844 14.777668 2.0104346 12.003906 2 A 1.0001 1.0001 0 0 0 12 2 z M 21 11 A 1 1 0 0 0 20 12 C 20 12.893331 19.856437 13.753931 19.583984 14.544922 A 1 1 0 0 0 20.205078 15.816406 A 1 1 0 0 0 21.474609 15.195312 C 21.822156 14.186307 22 13.106665 22 12 A 1 1 0 0 0 21 11 z "/>
</svg>
