<?xml version="1.0" encoding="UTF-8" standalone="no"?>
<svg xmlns="http://www.w3.org/2000/svg" xmlns:svg="http://www.w3.org/2000/svg" width="24" height="24" viewBox="0 0 24 24" fill="currentColor" tags="arrows,rotate,reload,rerun,synchronise,synchronize,circular,cycle" categories="arrows">
  <path d="M 3 2 A 1 1 0 0 0 2 3 L 2 8 A 1.0001 1.0001 0 0 0 2.0683594 8.3417969 A 1 1 0 0 0 2.1015625 8.4199219 A 1.0001 1.0001 0 0 0 2.5800781 8.8984375 A 1 1 0 0 0 2.6582031 8.9316406 A 1.0001 1.0001 0 0 0 3 9 L 8 9 A 1 1 0 0 0 9 8 A 1 1 0 0 0 8 7 L 5.4140625 7 L 5.9550781 6.4589844 C 7.5778148 4.8902436 9.7430834 4.0094955 12 4 C 16.430114 4 20 7.5698862 20 12 A 1 1 0 0 0 21 13 A 1 1 0 0 0 22 12 C 22 6.4890081 17.510991 2 12 2 A 1.0001 1.0001 0 0 0 11.996094 2 C 9.2223312 2.0104346 6.5587116 3.0935841 4.5644531 5.0214844 A 1.0001 1.0001 0 0 0 4.5527344 5.0332031 L 4 5.5859375 L 4 3 A 1 1 0 0 0 3 2 z M 3 11 A 1 1 0 0 0 2 12 C 2 17.510991 6.4890081 22 12 22 A 1.0001 1.0001 0 0 0 12.003906 22 C 14.777668 21.98956 17.441288 20.906416 19.435547 18.978516 A 1.0001 1.0001 0 0 0 19.447266 18.966797 L 20 18.414062 L 20 21 A 1 1 0 0 0 21 22 A 1 1 0 0 0 22 21 L 22 16 A 1 1 0 0 0 21.970703 15.767578 A 1.0001 1.0001 0 0 0 21.955078 15.712891 A 1 1 0 0 0 21.865234 15.5 A 1 1 0 0 0 21.707031 15.292969 A 1.0001 1.0001 0 0 0 21.419922 15.101562 A 1 1 0 0 0 21.341797 15.068359 A 1.0001 1.0001 0 0 0 21 15 L 16 15 A 1 1 0 0 0 15 16 A 1 1 0 0 0 16 17 L 18.585938 17 L 18.044922 17.541016 C 16.42219 19.109757 14.256917 19.990505 12 20 C 7.5698862 20 4 16.430114 4 12 A 1 1 0 0 0 3 11 z "/>
</svg>
