<svg xmlns="http://www.w3.org/2000/svg" xmlns:svg="http://www.w3.org/2000/svg" width="24" height="24" viewBox="0 0 24 24" fill="currentColor" tags="arrows,rotate,reload,synchronise,synchronize,circular,cycle,issue,code,coding,version control" categories="arrows,development">
  <path d="M 3 2 A 1 1 0 0 0 2 3 L 2 8 A 1 1 0 0 0 2.0078125 8.1308594 A 1.0001 1.0001 0 0 0 2.0761719 8.3828125 A 1 1 0 0 0 2.2929688 8.7070312 A 1 1 0 0 0 2.6171875 8.9238281 A 1.0001 1.0001 0 0 0 2.8691406 8.9921875 A 1 1 0 0 0 3 9 L 8 9 A 1 1 0 0 0 9 8 A 1 1 0 0 0 8 7 L 5.4140625 7 L 5.9550781 6.4589844 C 7.577818 4.8902405 9.7430789 4.0094955 12 4 C 16.430123 4 20 7.5698774 20 12 A 1 1 0 0 0 21 13 A 1 1 0 0 0 22 12 C 22 6.4889971 17.511003 2 12 2 A 1.0001 1.0001 0 0 0 11.996094 2 C 9.2223257 2.0104346 6.5587156 3.0935803 4.5644531 5.0214844 A 1.0001 1.0001 0 0 0 4.5527344 5.0332031 L 4 5.5859375 L 4 3 A 1 1 0 0 0 3 2 z M 12 10 C 10.907275 10 10 10.907275 10 12 C 10 13.092725 10.907275 14 12 14 C 13.092725 14 14 13.092725 14 12 C 14 10.907275 13.092725 10 12 10 z M 3 11 A 1 1 0 0 0 2 12 C 2 17.511003 6.4889971 22 12 22 A 1.0001 1.0001 0 0 0 12.003906 22 C 14.777674 21.98956 17.441284 20.90642 19.435547 18.978516 A 1.0001 1.0001 0 0 0 19.447266 18.966797 L 20 18.414062 L 20 21 A 1 1 0 0 0 21 22 A 1 1 0 0 0 22 21 L 22 16 A 1 1 0 0 0 21.992188 15.869141 A 1.0001 1.0001 0 0 0 21.923828 15.617188 A 1 1 0 0 0 21.707031 15.292969 A 1 1 0 0 0 21.382812 15.076172 A 1.0001 1.0001 0 0 0 21 15 L 16 15 A 1 1 0 0 0 15 16 A 1 1 0 0 0 16 17 L 18.585938 17 L 18.044922 17.541016 C 16.422187 19.10976 14.256921 19.990504 12 20 C 7.5698774 20 4 16.430123 4 12 A 1 1 0 0 0 3 11 z "/>
</svg>
