<?xml version="1.0" encoding="UTF-8" standalone="no"?>
<svg xmlns="http://www.w3.org/2000/svg" xmlns:svg="http://www.w3.org/2000/svg" width="24" height="24" viewBox="0 0 24 24" fill="currentColor" tags="rotate,reload,rerun,synchronise,synchronize,arrows,circular,cycle" categories="arrows">
  
  <path d="M 12 2 C 6.4890081 2 2 6.4890081 2 12 A 1 1 0 0 0 3 13 A 1 1 0 0 0 4 12 C 4 7.5712193 7.5678307 4.0021477 11.996094 4 C 14.254417 4.0085 16.421249 4.889339 18.044922 6.4589844 L 18.585938 7 L 16 7 A 1 1 0 0 0 15 8 A 1 1 0 0 0 16 9 L 21 9 A 1.0001 1.0001 0 0 0 21.341797 8.9316406 A 1 1 0 0 0 21.419922 8.8984375 A 1.0001 1.0001 0 0 0 21.707031 8.7070312 A 1 1 0 0 0 21.955078 8.2871094 A 1.0001 1.0001 0 0 0 21.970703 8.2324219 A 1 1 0 0 0 22 8 L 22 3 A 1 1 0 0 0 21 2 A 1 1 0 0 0 20 3 L 20 5.5859375 L 19.447266 5.0332031 A 1.0001 1.0001 0 0 0 19.435547 5.0214844 C 17.441289 3.0935844 14.777668 2.0104346 12.003906 2 A 1.0001 1.0001 0 0 0 12 2 z M 21 11 A 1 1 0 0 0 20 12 C 20 16.428781 16.432169 19.997852 12.003906 20 C 9.7455827 19.9915 7.5787505 19.11066 5.9550781 17.541016 L 5.4140625 17 L 8 17 A 1 1 0 0 0 9 16 A 1 1 0 0 0 8 15 L 3 15 A 1.0001 1.0001 0 0 0 2.6582031 15.068359 A 1 1 0 0 0 2.5800781 15.101562 A 1.0001 1.0001 0 0 0 2.2929688 15.292969 A 1.0001 1.0001 0 0 0 2.1015625 15.580078 A 1 1 0 0 0 2.0683594 15.658203 A 1.0001 1.0001 0 0 0 2 16 L 2 21 A 1 1 0 0 0 3 22 A 1 1 0 0 0 4 21 L 4 18.414062 L 4.5527344 18.966797 A 1.0001 1.0001 0 0 0 4.5644531 18.978516 C 6.5587113 20.906415 9.2223312 21.989565 11.996094 22 A 1.0001 1.0001 0 0 0 12 22 C 17.510991 22 22 17.510991 22 12 A 1 1 0 0 0 21 11 z "/>
</svg>
