<svg xmlns="http://www.w3.org/2000/svg" xmlns:svg="http://www.w3.org/2000/svg" width="24" height="24" viewBox="0 0 24 24" fill="currentColor" tags="rotate,reload,rerun,synchronise,synchronize,arrows,circular,cycle" categories="arrows">
  <path d="M 12 2 C 6.4889971 2 2 6.4889971 2 12 A 1 1 0 0 0 3 13 A 1 1 0 0 0 4 12 C 4 7.5712105 7.5678219 4.0021477 11.996094 4 C 14.254422 4.0085 16.421246 4.8893359 18.044922 6.4589844 L 18.585938 7 L 16 7 A 1 1 0 0 0 15 8 A 1 1 0 0 0 16 9 L 21 9 A 1 1 0 0 0 21.130859 8.9921875 A 1.0001 1.0001 0 0 0 21.382812 8.9238281 A 1 1 0 0 0 21.707031 8.7070312 A 1 1 0 0 0 21.923828 8.3828125 A 1.0001 1.0001 0 0 0 21.992188 8.1308594 A 1 1 0 0 0 22 8 L 22 3 A 1 1 0 0 0 21 2 A 1 1 0 0 0 20 3 L 20 5.5859375 L 19.447266 5.0332031 A 1.0001 1.0001 0 0 0 19.435547 5.0214844 C 17.441285 3.0935806 14.777674 2.0104346 12.003906 2 A 1.0001 1.0001 0 0 0 12 2 z M 21 11 A 1 1 0 0 0 20 12 C 20 16.428789 16.432178 19.997852 12.003906 20 C 9.7455782 19.9915 7.5787538 19.110664 5.9550781 17.541016 L 5.4140625 17 L 8 17 A 1 1 0 0 0 9 16 A 1 1 0 0 0 8 15 L 3 15 A 1 1 0 0 0 2.8691406 15.007812 A 1.0001 1.0001 0 0 0 2.6171875 15.076172 A 1 1 0 0 0 2.2929688 15.292969 A 1 1 0 0 0 2.0761719 15.617188 A 1.0001 1.0001 0 0 0 2.0078125 15.869141 A 1 1 0 0 0 2 16 L 2 21 A 1 1 0 0 0 3 22 A 1 1 0 0 0 4 21 L 4 18.414062 L 4.5527344 18.966797 A 1.0001 1.0001 0 0 0 4.5644531 18.978516 C 6.5587153 20.906419 9.2223257 21.989565 11.996094 22 A 1.0001 1.0001 0 0 0 12 22 C 17.511003 22 22 17.511003 22 12 A 1 1 0 0 0 21 11 z "/>
</svg>
