<svg xmlns="http://www.w3.org/2000/svg" xmlns:svg="http://www.w3.org/2000/svg" width="24" height="24" viewBox="0 0 24 24" fill="currentColor" tags="arrows,retweet,repost,share,repeat,loop" categories="arrows,social,multimedia">
  <path d="M 5 5 A 1.0001 1.0001 0 0 0 4.7949219 5.0234375 A 1 1 0 0 0 4.6113281 5.078125 A 1.0001 1.0001 0 0 0 4.5 5.1347656 A 1 1 0 0 0 4.4394531 5.1757812 A 1.0001 1.0001 0 0 0 4.3847656 5.2128906 A 1 1 0 0 0 4.3417969 5.25 A 1.0001 1.0001 0 0 0 4.2929688 5.2929688 A 1 1 0 0 0 4.2832031 5.3027344 L 1.2929688 8.2929688 A 1 1 0 0 0 1.2929688 9.7070312 A 1 1 0 0 0 2.7070312 9.7070312 L 4 8.4140625 L 4 16 C 4 17.64501 5.3549904 19 7 19 L 13 19 A 1 1 0 0 0 14 18 A 1 1 0 0 0 13 17 L 7 17 C 6.4358706 17 6 16.564129 6 16 L 6 8.4140625 L 7.2929688 9.7070312 A 1 1 0 0 0 8.7070312 9.7070312 A 1 1 0 0 0 8.7070312 8.2929688 L 5.7167969 5.3027344 A 1 1 0 0 0 5.6582031 5.25 A 1.0001 1.0001 0 0 0 5.6152344 5.2128906 A 1 1 0 0 0 5.5605469 5.1757812 A 1.0001 1.0001 0 0 0 5.3828125 5.0761719 A 1 1 0 0 0 5.2578125 5.0351562 A 1.0001 1.0001 0 0 0 5 5 z M 11 5 A 1 1 0 0 0 10 6 A 1 1 0 0 0 11 7 L 17 7 C 17.564129 7 18 7.4358706 18 8 L 18 15.585938 L 16.707031 14.292969 A 1 1 0 0 0 15.292969 14.292969 A 1 1 0 0 0 15.292969 15.707031 L 18.283203 18.697266 L 18.292969 18.707031 A 1.0001 1.0001 0 0 0 18.341797 18.75 A 1 1 0 0 0 18.384766 18.787109 A 1.0001 1.0001 0 0 0 18.439453 18.824219 A 1 1 0 0 0 18.617188 18.923828 A 1 1 0 0 0 18.742188 18.964844 A 1 1 0 0 0 18.794922 18.976562 A 1.0001 1.0001 0 0 0 19 19 A 1.0001 1.0001 0 0 0 19.205078 18.976562 A 1.0001 1.0001 0 0 0 19.257812 18.964844 A 1 1 0 0 0 19.382812 18.923828 A 1 1 0 0 0 19.388672 18.921875 A 1.0001 1.0001 0 0 0 19.5 18.865234 A 1 1 0 0 0 19.507812 18.861328 A 1.0001 1.0001 0 0 0 19.560547 18.824219 A 1 1 0 0 0 19.615234 18.787109 A 1.0001 1.0001 0 0 0 19.658203 18.75 A 1 1 0 0 0 19.716797 18.697266 L 22.707031 15.707031 A 1 1 0 0 0 22.707031 14.292969 A 1 1 0 0 0 21.292969 14.292969 L 20 15.585938 L 20 8 C 20 6.3549904 18.64501 5 17 5 L 11 5 z "/>
</svg>
