<svg xmlns="http://www.w3.org/2000/svg" xmlns:svg="http://www.w3.org/2000/svg" width="24" height="24" viewBox="0 0 24 24" fill="currentColor" tags="loop,arrows" categories="arrows,multimedia">
  <path d="M 17 1 A 1 1 0 0 0 16.292969 1.2929688 A 1 1 0 0 0 16.292969 2.7070312 L 18.585938 5 L 7 5 C 4.2504209 5 2 7.2504209 2 10 L 2 11 A 1 1 0 0 0 3 12 A 1 1 0 0 0 4 11 L 4 10 C 4 8.3313011 5.3313011 7 7 7 L 18.585938 7 L 16.292969 9.2929688 A 1 1 0 0 0 16.292969 10.707031 A 1 1 0 0 0 17.707031 10.707031 L 21.697266 6.7167969 A 1 1 0 0 0 21.707031 6.7070312 A 1.0001 1.0001 0 0 0 21.785156 6.6191406 A 1 1 0 0 0 21.792969 6.609375 A 1.0001 1.0001 0 0 0 21.861328 6.5078125 A 1 1 0 0 0 21.865234 6.5 A 1.0001 1.0001 0 0 0 21.921875 6.3886719 A 1 1 0 0 0 21.964844 6.2578125 A 1.0001 1.0001 0 0 0 21.964844 5.7421875 A 1 1 0 0 0 21.923828 5.6171875 A 1.0001 1.0001 0 0 0 21.921875 5.6113281 A 1 1 0 0 0 21.865234 5.5 A 1.0001 1.0001 0 0 0 21.861328 5.4921875 A 1 1 0 0 0 21.792969 5.390625 A 1.0001 1.0001 0 0 0 21.785156 5.3808594 A 1 1 0 0 0 21.707031 5.2929688 L 17.707031 1.2929688 A 1 1 0 0 0 17 1 z M 21 12 A 1 1 0 0 0 20 13 L 20 14 C 20 15.668699 18.668699 17 17 17 L 5.4140625 17 L 7.7070312 14.707031 A 1 1 0 0 0 7.7070312 13.292969 A 1 1 0 0 0 7 13 A 1 1 0 0 0 6.2929688 13.292969 L 2.3027344 17.283203 L 2.2929688 17.292969 A 1.0001 1.0001 0 0 0 2.25 17.341797 A 1 1 0 0 0 2.2128906 17.384766 A 1.0001 1.0001 0 0 0 2.1757812 17.439453 A 1 1 0 0 0 2.1386719 17.492188 A 1.0001 1.0001 0 0 0 2.1347656 17.5 A 1 1 0 0 0 2.078125 17.611328 A 1.0001 1.0001 0 0 0 2.0761719 17.617188 A 1 1 0 0 0 2.0351562 17.742188 A 1 1 0 0 0 2.0234375 17.794922 A 1.0001 1.0001 0 0 0 2 18 A 1.0001 1.0001 0 0 0 2.0234375 18.205078 A 1.0001 1.0001 0 0 0 2.0351562 18.257812 A 1 1 0 0 0 2.0761719 18.382812 A 1 1 0 0 0 2.078125 18.388672 A 1.0001 1.0001 0 0 0 2.1347656 18.5 A 1 1 0 0 0 2.1757812 18.560547 A 1.0001 1.0001 0 0 0 2.2128906 18.615234 A 1 1 0 0 0 2.25 18.658203 A 1.0001 1.0001 0 0 0 2.2929688 18.707031 A 1 1 0 0 0 2.3027344 18.716797 L 6.2929688 22.707031 A 1 1 0 0 0 7.7070312 22.707031 A 1 1 0 0 0 7.7070312 21.292969 L 5.4140625 19 L 17 19 C 19.749579 19 22 16.749579 22 14 L 22 13 A 1 1 0 0 0 21 12 z "/>
</svg>
