<svg xmlns="http://www.w3.org/2000/svg" xmlns:svg="http://www.w3.org/2000/svg" width="24" height="24" viewBox="0 0 24 24" fill="currentColor" tags="email" categories="mail">
  <path d="M 9 6 A 1 1 0 0 0 8.2929688 6.2929688 L 3.3027344 11.283203 L 3.2929688 11.292969 A 1.0001 1.0001 0 0 0 3.25 11.341797 A 1 1 0 0 0 3.2128906 11.384766 A 1.0001 1.0001 0 0 0 3.1757812 11.439453 A 1 1 0 0 0 3.1386719 11.492188 A 1.0001 1.0001 0 0 0 3.1347656 11.5 A 1 1 0 0 0 3.078125 11.611328 A 1.0001 1.0001 0 0 0 3.0761719 11.617188 A 1 1 0 0 0 3.0351562 11.742188 A 1 1 0 0 0 3.0234375 11.794922 A 1.0001 1.0001 0 0 0 3 12 A 1.0001 1.0001 0 0 0 3.0234375 12.205078 A 1.0001 1.0001 0 0 0 3.0351562 12.257812 A 1 1 0 0 0 3.0761719 12.382812 A 1 1 0 0 0 3.078125 12.388672 A 1.0001 1.0001 0 0 0 3.1347656 12.5 A 1 1 0 0 0 3.1757812 12.560547 A 1.0001 1.0001 0 0 0 3.2128906 12.615234 A 1 1 0 0 0 3.25 12.658203 A 1.0001 1.0001 0 0 0 3.2929688 12.707031 A 1 1 0 0 0 3.3027344 12.716797 L 8.2929688 17.707031 A 1 1 0 0 0 9.7070312 17.707031 A 1 1 0 0 0 9.7070312 16.292969 L 6.4140625 13 L 16 13 C 17.668699 13 19 14.331301 19 16 L 19 18 A 1 1 0 0 0 20 19 A 1 1 0 0 0 21 18 L 21 16 C 21 13.250421 18.749579 11 16 11 L 6.4140625 11 L 9.7070312 7.7070312 A 1 1 0 0 0 9.7070312 6.2929688 A 1 1 0 0 0 9 6 z "/>
</svg>
