<svg xmlns="http://www.w3.org/2000/svg" xmlns:svg="http://www.w3.org/2000/svg" width="24" height="24" viewBox="0 0 24 24" fill="currentColor" tags="search,substitute,swap,change" categories="text">
  <path d="M 8 2 C 6.3549904 2 5 3.3549904 5 5 L 5 7.5859375 L 3.7070312 6.2929688 A 1 1 0 0 0 2.2929688 6.2929688 A 1 1 0 0 0 2.2929688 7.7070312 L 5.2929688 10.707031 A 1.0001 1.0001 0 0 0 5.3417969 10.75 A 1 1 0 0 0 5.3847656 10.787109 A 1.0001 1.0001 0 0 0 5.4394531 10.824219 A 1 1 0 0 0 5.4921875 10.861328 A 1.0001 1.0001 0 0 0 5.5 10.865234 A 1 1 0 0 0 5.6113281 10.921875 A 1.0001 1.0001 0 0 0 5.6171875 10.923828 A 1 1 0 0 0 5.7949219 10.976562 A 1.0001 1.0001 0 0 0 6.2578125 10.964844 A 1 1 0 0 0 6.3828125 10.923828 A 1.0001 1.0001 0 0 0 6.5605469 10.824219 A 1 1 0 0 0 6.6152344 10.787109 A 1.0001 1.0001 0 0 0 6.6582031 10.75 A 1 1 0 0 0 6.7167969 10.697266 L 9.7070312 7.7070312 A 1 1 0 0 0 9.7070312 6.2929688 A 1 1 0 0 0 9 6 A 1 1 0 0 0 8.2929688 6.2929688 L 7 7.5859375 L 7 5 C 7 4.4358706 7.4358706 4 8 4 L 10 4 A 1 1 0 0 0 11 3 A 1 1 0 0 0 10 2 L 8 2 z M 15 2 C 13.907275 2 13 2.9072751 13 4 A 1 1 0 0 0 14 5 A 1 1 0 0 0 15 4 A 1 1 0 0 0 16 3 A 1 1 0 0 0 15 2 z M 20 2 A 1 1 0 0 0 19 3 A 1 1 0 0 0 20 4 A 1 1 0 0 0 21 5 A 1 1 0 0 0 22 4 C 22 2.9072751 21.092725 2 20 2 z M 14 8 A 1 1 0 0 0 13 9 C 13 10.092725 13.907275 11 15 11 A 1 1 0 0 0 16 10 A 1 1 0 0 0 15 9 A 1 1 0 0 0 14 8 z M 21 8 A 1 1 0 0 0 20 9 A 1 1 0 0 0 19 10 A 1 1 0 0 0 20 11 C 21.092725 11 22 10.092725 22 9 A 1 1 0 0 0 21 8 z M 4 13 C 2.9092972 13 2 13.909297 2 15 L 2 20 C 2 21.090703 2.9092972 22 4 22 L 9 22 C 10.090703 22 11 21.090703 11 20 L 11 15 C 11 13.909297 10.090703 13 9 13 L 4 13 z M 14 13 A 1 1 0 0 0 13 14 A 1 1 0 0 0 14 15 L 14 20 A 1 1 0 0 0 13 21 A 1 1 0 0 0 14 22 C 15.092725 22 16 21.092725 16 20 L 16 15 C 16 13.907275 15.092725 13 14 13 z M 19 13 A 1 1 0 0 0 18 14 A 1 1 0 0 0 19 15 L 19 20 A 1 1 0 0 0 18 21 A 1 1 0 0 0 19 22 C 20.092725 22 21 21.092725 21 20 L 21 15 C 21 13.907275 20.092725 13 19 13 z M 4 15 L 9 15 L 9 20 L 4 20 L 4 15 z "/>
</svg>
