<?xml version="1.0" encoding="UTF-8" standalone="no"?>
<svg xmlns="http://www.w3.org/2000/svg" xmlns:svg="http://www.w3.org/2000/svg" width="24" height="24" viewBox="0 0 24 24" fill="currentColor" tags="search,substitute,swap,change" categories="text">
  <path d="M 9 1 C 6.80271 1 5 2.80271 5 5 L 5 7.5859375 L 3.7070312 6.2929688 A 1 1 0 0 0 3 6 A 1 1 0 0 0 2.2929688 6.2929688 A 1 1 0 0 0 2.2929688 7.7070312 L 5.2929688 10.707031 A 1.0001 1.0001 0 0 0 5.5 10.865234 A 1 1 0 0 0 6 11 A 1 1 0 0 0 6.7070312 10.707031 L 9.7070312 7.7070312 A 1 1 0 0 0 9.7070312 6.2929688 A 1 1 0 0 0 8.2929688 6.2929688 L 7 7.5859375 L 7 5 C 7 3.8835881 7.8835881 3 9 3 L 10 3 A 1 1 0 0 0 11 2 A 1 1 0 0 0 10 1 L 9 1 z M 16 1 C 14.354994 1 13 2.3549936 13 4 A 1 1 0 0 0 14 5 A 1 1 0 0 0 15 4 C 15 3.4358718 15.435872 3 16 3 A 1 1 0 0 0 17 2 A 1 1 0 0 0 16 1 z M 20 1 A 1 1 0 0 0 19 2 A 1 1 0 0 0 20 3 C 20.564128 3 21 3.4358718 21 4 A 1 1 0 0 0 22 5 A 1 1 0 0 0 23 4 C 23 2.3549936 21.645006 1 20 1 z M 14 7 A 1 1 0 0 0 13 8 C 13 9.6450064 14.354994 11 16 11 A 1 1 0 0 0 17 10 A 1 1 0 0 0 16 9 C 15.435872 9 15 8.5641282 15 8 A 1 1 0 0 0 14 7 z M 22 7 A 1 1 0 0 0 21 8 C 21 8.5641282 20.564128 9 20 9 A 1 1 0 0 0 19 10 A 1 1 0 0 0 20 11 C 21.645006 11 23 9.6450064 23 8 A 1 1 0 0 0 22 7 z M 4 13 C 2.3553005 13 1 14.355301 1 16 L 1 20 C 1 21.644699 2.3553005 23 4 23 L 8 23 C 9.6446995 23 11 21.644699 11 20 L 11 16 C 11 14.355301 9.6446995 13 8 13 L 4 13 z M 14 13 A 1 1 0 0 0 13 14 A 1 1 0 0 0 14 15 C 14.564128 15 15 15.435872 15 16 L 15 20 C 15 20.564128 14.564128 21 14 21 A 1 1 0 0 0 13 22 A 1 1 0 0 0 14 23 C 15.645006 23 17 21.645006 17 20 L 17 16 C 17 14.354994 15.645006 13 14 13 z M 20 13 A 1 1 0 0 0 19 14 A 1 1 0 0 0 20 15 C 20.564128 15 21 15.435872 21 16 L 21 20 C 21 20.564128 20.564128 21 20 21 A 1 1 0 0 0 19 22 A 1 1 0 0 0 20 23 C 21.645006 23 23 21.645006 23 20 L 23 16 C 23 14.354994 21.645006 13 20 13 z M 4 15 L 8 15 C 8.5712961 15 9 15.428704 9 16 L 9 20 C 9 20.571296 8.5712961 21 8 21 L 4 21 C 3.4287039 21 3 20.571296 3 20 L 3 16 C 3 15.428704 3.4287039 15 4 15 z "/>
</svg>
