<?xml version="1.0" encoding="UTF-8" standalone="no"?>
<svg xmlns="http://www.w3.org/2000/svg" xmlns:svg="http://www.w3.org/2000/svg" width="24" height="24" viewBox="0 0 24 24" fill="currentColor" tags="email" categories="mail">
  <path d="M 7 6 A 1 1 0 0 0 6.2929688 6.2929688 L 1.2929688 11.292969 A 1.0001 1.0001 0 0 0 1.2929688 12.707031 L 6.2929688 17.707031 A 1 1 0 0 0 7.7070312 17.707031 A 1 1 0 0 0 7.7070312 16.292969 L 3.4140625 12 L 7.7070312 7.7070312 A 1 1 0 0 0 7.7070312 6.2929688 A 1 1 0 0 0 7 6 z M 12 6 A 1 1 0 0 0 11.292969 6.2929688 L 6.3027344 11.283203 L 6.2929688 11.292969 A 1.0001 1.0001 0 0 0 6.25 11.341797 A 1 1 0 0 0 6.2128906 11.384766 A 1.0001 1.0001 0 0 0 6.1757812 11.439453 A 1 1 0 0 0 6.1386719 11.492188 A 1.0001 1.0001 0 0 0 6.1347656 11.5 A 1 1 0 0 0 6.078125 11.611328 A 1.0001 1.0001 0 0 0 6.0761719 11.617188 A 1 1 0 0 0 6.0351562 11.742188 A 1 1 0 0 0 6.0234375 11.794922 A 1.0001 1.0001 0 0 0 6 12 A 1.0001 1.0001 0 0 0 6.0234375 12.205078 A 1.0001 1.0001 0 0 0 6.0351562 12.257812 A 1 1 0 0 0 6.0761719 12.382812 A 1 1 0 0 0 6.078125 12.388672 A 1.0001 1.0001 0 0 0 6.1347656 12.5 A 1 1 0 0 0 6.1757812 12.560547 A 1.0001 1.0001 0 0 0 6.2128906 12.615234 A 1 1 0 0 0 6.25 12.658203 A 1.0001 1.0001 0 0 0 6.2929688 12.707031 A 1 1 0 0 0 6.3027344 12.716797 L 11.292969 17.707031 A 1 1 0 0 0 12.707031 17.707031 A 1 1 0 0 0 12.707031 16.292969 L 9.4140625 13 L 18 13 C 19.668699 13 21 14.331301 21 16 L 21 18 A 1 1 0 0 0 22 19 A 1 1 0 0 0 23 18 L 23 16 C 23 13.250421 20.749579 11 18 11 L 9.4140625 11 L 12.707031 7.7070312 A 1 1 0 0 0 12.707031 6.2929688 A 1 1 0 0 0 12 6 z "/>
</svg>
