<?xml version="1.0" encoding="UTF-8" standalone="no"?>
<svg xmlns="http://www.w3.org/2000/svg" xmlns:svg="http://www.w3.org/2000/svg" width="24" height="24" viewBox="0 0 24 24" fill="currentColor" tags="search,substitute,swap,change" categories="text">
  <path d="M 9 1 C 6.8027056 1 5 2.8027056 5 5 L 5 7.5859375 L 3.7070312 6.2929688 A 1 1 0 0 0 2.2929688 6.2929688 A 1 1 0 0 0 2.2929688 7.7070312 L 5.2929688 10.707031 A 1.0001 1.0001 0 0 0 5.3417969 10.75 A 1 1 0 0 0 5.3847656 10.787109 A 1.0001 1.0001 0 0 0 5.4394531 10.824219 A 1 1 0 0 0 5.4921875 10.861328 A 1.0001 1.0001 0 0 0 5.5 10.865234 A 1 1 0 0 0 5.6113281 10.921875 A 1.0001 1.0001 0 0 0 5.6171875 10.923828 A 1 1 0 0 0 5.7949219 10.976562 A 1.0001 1.0001 0 0 0 6.2578125 10.964844 A 1 1 0 0 0 6.3828125 10.923828 A 1.0001 1.0001 0 0 0 6.5605469 10.824219 A 1 1 0 0 0 6.6152344 10.787109 A 1.0001 1.0001 0 0 0 6.6582031 10.75 A 1 1 0 0 0 6.7167969 10.697266 L 9.7070312 7.7070312 A 1 1 0 0 0 9.7070312 6.2929688 A 1 1 0 0 0 9 6 A 1 1 0 0 0 8.2929688 6.2929688 L 7 7.5859375 L 7 5 C 7 3.8835859 7.8835859 3 9 3 L 10 3 A 1 1 0 0 0 11 2 A 1 1 0 0 0 10 1 L 9 1 z M 16 1 C 14.35499 1 13 2.3549904 13 4 A 1 1 0 0 0 14 5 A 1 1 0 0 0 15 4 C 15 3.4358706 15.435871 3 16 3 A 1 1 0 0 0 17 2 A 1 1 0 0 0 16 1 z M 20 1 A 1 1 0 0 0 19 2 A 1 1 0 0 0 20 3 C 20.564129 3 21 3.4358706 21 4 A 1 1 0 0 0 22 5 A 1 1 0 0 0 23 4 C 23 2.3549904 21.64501 1 20 1 z M 14 7 A 1 1 0 0 0 13 8 C 13 9.6450096 14.35499 11 16 11 A 1 1 0 0 0 17 10 A 1 1 0 0 0 16 9 C 15.435871 9 15 8.5641294 15 8 A 1 1 0 0 0 14 7 z M 22 7 A 1 1 0 0 0 21 8 C 21 8.5641294 20.564129 9 20 9 A 1 1 0 0 0 19 10 A 1 1 0 0 0 20 11 C 21.64501 11 23 9.6450096 23 8 A 1 1 0 0 0 22 7 z M 4 13 C 2.3552972 13 1 14.355297 1 16 L 1 20 C 1 21.644703 2.3552972 23 4 23 L 8 23 C 9.6447028 23 11 21.644703 11 20 L 11 16 C 11 14.355297 9.6447028 13 8 13 L 4 13 z M 4 15 L 8 15 C 8.5712972 15 9 15.428703 9 16 L 9 20 C 9 20.571297 8.5712972 21 8 21 L 4 21 C 3.4287028 21 3 20.571297 3 20 L 3 16 C 3 15.428703 3.4287028 15 4 15 z "/>
</svg>
