<?xml version="1.0" encoding="UTF-8" standalone="no"?>
<svg xmlns="http://www.w3.org/2000/svg" xmlns:svg="http://www.w3.org/2000/svg" width="24" height="24" viewBox="0 0 24 24" fill="currentColor" tags="email" categories="mail">
  <path d="M 7 6 A 1 1 0 0 0 6.2929688 6.2929688 L 1.2929688 11.292969 A 1.0001 1.0001 0 0 0 1.2929688 12.707031 L 6.2929688 17.707031 A 1 1 0 0 0 7.7070312 17.707031 A 1 1 0 0 0 7.7070312 16.292969 L 3.4140625 12 L 7.7070312 7.7070312 A 1 1 0 0 0 7.7070312 6.2929688 A 1 1 0 0 0 7 6 z M 12 6 A 1 1 0 0 0 11.292969 6.2929688 L 6.2929688 11.292969 A 1.0001 1.0001 0 0 0 6.2460938 11.355469 A 1 1 0 0 0 6.1542969 11.484375 A 1.0001 1.0001 0 0 0 6.0859375 11.619141 A 1 1 0 0 0 6.0371094 11.767578 A 1.0001 1.0001 0 0 0 6.0117188 11.925781 A 1 1 0 0 0 6 12 A 1 1 0 0 0 6.0117188 12.074219 A 1.0001 1.0001 0 0 0 6.0371094 12.232422 A 1 1 0 0 0 6.0859375 12.380859 A 1.0001 1.0001 0 0 0 6.1542969 12.515625 A 1 1 0 0 0 6.2460938 12.644531 A 1.0001 1.0001 0 0 0 6.2929688 12.707031 L 11.292969 17.707031 A 1 1 0 0 0 12.707031 17.707031 A 1 1 0 0 0 12.707031 16.292969 L 9.4140625 13 L 18 13 C 19.668695 13 21 14.331305 21 16 L 21 18 A 1 1 0 0 0 22 19 A 1 1 0 0 0 23 18 L 23 16 C 23 13.250427 20.749573 11 18 11 L 9.4140625 11 L 12.707031 7.7070312 A 1 1 0 0 0 12.707031 6.2929688 A 1 1 0 0 0 12 6 z "/>
</svg>
