<?xml version="1.0" encoding="UTF-8" standalone="no"?>
<svg xmlns="http://www.w3.org/2000/svg" xmlns:svg="http://www.w3.org/2000/svg" width="24" height="24" viewBox="0 0 24 24" fill="currentColor" tags="music" categories="arrows,multimedia">
  <path d="M 9.9003906 3.0058594 C 9.7563486 3.0106631 9.6122075 3.0253745 9.46875 3.0507812 C 8.8949196 3.1524081 8.3363627 3.4215879 7.8789062 3.8789062 L 1.8789062 9.8789062 C 0.71612675 11.042037 0.71612675 12.957963 1.8789062 14.121094 L 7.8789062 20.121094 C 8.7938192 21.03573 10.116065 21.199069 11.148438 20.771484 C 12.180808 20.3439 12.999724 19.293687 13 18 L 13 15.242188 L 17.878906 20.121094 C 18.793819 21.03573 20.116066 21.199069 21.148438 20.771484 C 22.180809 20.3439 22.999724 19.293687 23 18 L 23 6 C 22.999724 4.7063131 22.180809 3.6560999 21.148438 3.2285156 C 20.632252 3.0147235 20.04258 2.9491542 19.46875 3.0507812 C 18.89492 3.1524081 18.336363 3.4215879 17.878906 3.8789062 L 13 8.7578125 L 13 6 C 12.999724 4.7063131 12.180808 3.6560999 11.148438 3.2285156 C 10.761298 3.0681715 10.332517 2.9914483 9.9003906 3.0058594 z M 9.9707031 4.9882812 C 10.109297 4.9882427 10.247975 5.0203254 10.382812 5.0761719 C 10.742377 5.2250958 10.999896 5.5122288 11 6 L 11 18 C 10.999896 18.487771 10.742377 18.774904 10.382812 18.923828 C 10.023247 19.072752 9.6379272 19.051886 9.2929688 18.707031 L 3.2929688 12.707031 C 2.8942205 12.308163 2.8942204 11.691837 3.2929688 11.292969 L 9.2929688 5.2929688 C 9.5085677 5.0774349 9.7397132 4.9883456 9.9707031 4.9882812 z M 19.970703 4.9882812 C 20.109297 4.9882427 20.247976 5.0203254 20.382812 5.0761719 C 20.742378 5.2250958 20.999896 5.5122288 21 6 L 21 18 C 20.999896 18.487771 20.742378 18.774904 20.382812 18.923828 C 20.023248 19.072752 19.637927 19.051886 19.292969 18.707031 L 13.292969 12.707031 C 13.12205 12.536061 13.024394 12.326001 13 12.109375 L 13 11.890625 C 13.024394 11.673999 13.12205 11.463939 13.292969 11.292969 L 19.292969 5.2929688 C 19.508567 5.0774349 19.739713 4.9883456 19.970703 4.9882812 z "/>
</svg>
