<?xml version="1.0" encoding="UTF-8" standalone="no"?>
<svg xmlns="http://www.w3.org/2000/svg" xmlns:svg="http://www.w3.org/2000/svg" width="24" height="24" viewBox="0 0 24 24" fill="currentColor" tags="awareness,strip,band,tape,strap,cordon" categories="social,medical,emoji">
  <path d="M 12 1 C 10.314815 1 8.6178196 1.4557677 7.2792969 2.4472656 C 5.9407741 3.4387635 5 5.0333339 5 7 C 5 7.7761248 5.0915162 8.4893596 5.2519531 9.1542969 A 1 1 0 0 0 5.3066406 9.3652344 C 5.8480722 11.393913 7.0208671 12.967442 8.1191406 14.484375 L 5.0722656 18.417969 C 4.3883429 19.300239 4.5750432 20.606059 5.4785156 21.261719 L 7.34375 22.615234 C 8.2213922 23.252064 9.4763704 23.059865 10.123047 22.189453 L 11.994141 19.681641 L 13.839844 22.193359 A 1.0001 1.0001 0 0 0 13.84375 22.199219 C 14.488561 23.063707 15.736597 23.258988 16.613281 22.630859 A 1.0001 1.0001 0 0 0 16.613281 22.628906 L 18.507812 21.269531 C 19.421428 20.613357 19.608964 19.294672 18.914062 18.410156 A 1.0001 1.0001 0 0 0 18.914062 18.408203 L 15.808594 14.460938 C 16.929067 12.955477 18.13052 11.389935 18.685547 9.359375 A 1 1 0 0 0 18.738281 9.15625 C 18.903134 8.4920673 18.998794 7.7787398 19 7.0019531 A 1.0001 1.0001 0 0 0 19 7 C 19 5.0333339 18.059226 3.4387635 16.720703 2.4472656 C 15.38218 1.4557677 13.685185 1 12 1 z M 12 3 C 13.314815 3 14.61782 3.3775663 15.529297 4.0527344 C 16.383259 4.6852987 16.928791 5.5193397 16.994141 6.7460938 C 15.673967 5.6944314 14.080268 5.1244489 12.462891 5.0332031 C 12.30932 5.0113637 12.153976 5 12 5 C 11.845807 5 11.690893 5.0113014 11.537109 5.0332031 C 9.9201401 5.1247239 8.3257931 5.6952941 7.0058594 6.7460938 C 7.0713877 5.5197416 7.6169116 4.6851722 8.4707031 4.0527344 C 9.3821804 3.3775663 10.685185 3 12 3 z M 12 7 C 12.277778 7 12.542119 7.097986 12.710938 7.2480469 C 12.879755 7.3981073 13 7.5833337 13 8 C 13 8.1673333 12.884482 8.492593 12.560547 8.9472656 C 12.424545 9.1381571 12.183196 9.4097524 11.998047 9.6328125 C 11.814236 9.4099575 11.574871 9.1376187 11.439453 8.9472656 C 11.115648 8.4921029 11 8.1666667 11 8 C 11 7.5833337 11.120244 7.3981073 11.289062 7.2480469 C 11.45788 7.0979864 11.722222 7 12 7 z M 9.0078125 7.7792969 C 9.002931 7.8520548 9 7.9258029 9 8 C 9 8.8333333 9.3843525 9.5063813 9.8105469 10.105469 C 10.085234 10.491587 10.395219 10.862489 10.708984 11.234375 L 9.3925781 12.876953 C 8.5174278 11.659457 7.7551753 10.535714 7.3378906 9.21875 C 7.8205889 8.6183019 8.3883746 8.1383221 9.0078125 7.7792969 z M 14.992188 7.7832031 C 15.606738 8.1400874 16.172156 8.6144233 16.652344 9.2089844 C 16.101741 10.893096 14.968058 12.257091 13.763672 13.908203 C 13.763102 13.908984 13.762288 13.909375 13.761719 13.910156 A 1.0001 1.0001 0 0 0 13.744141 13.933594 L 11.199219 17.402344 L 11.193359 17.408203 A 1 1 0 0 0 11.169922 17.443359 L 8.5195312 20.996094 A 1.0001 1.0001 0 0 0 8.5175781 20.996094 L 6.6542969 19.644531 A 1.0001 1.0001 0 0 0 6.6542969 19.642578 L 10.130859 15.154297 L 10.140625 15.142578 A 1.0001 1.0001 0 0 0 10.150391 15.130859 L 12.78125 11.845703 A 1 1 0 0 0 12.84375 11.759766 C 13.307227 11.207353 13.785572 10.676258 14.189453 10.109375 C 14.617515 9.5085796 15 8.8326667 15 8 C 15 7.9268179 14.996938 7.8549865 14.992188 7.7832031 z M 14.597656 16.154297 L 17.339844 19.644531 L 15.447266 21.003906 L 13.242188 18 L 14.597656 16.154297 z "/>
</svg>
