<?xml version="1.0" encoding="UTF-8" standalone="no"?>
<svg xmlns="http://www.w3.org/2000/svg" xmlns:svg="http://www.w3.org/2000/svg" width="24" height="24" viewBox="0 0 24 24" fill="currentColor" tags="awareness,strip,band,tape,strap,cordon" categories="social,medical,emoji">
  <path d="M 12 1 C 10.314819 1 8.6178169 1.4557697 7.2792969 2.4472656 C 5.9407768 3.4387615 5 5.0333379 5 7 C 5 7.8354521 5.1072173 8.5988343 5.2910156 9.3066406 A 1 1 0 0 0 5.3085938 9.3652344 C 5.8500804 11.393686 7.0209534 12.967561 8.1191406 14.484375 L 5.0722656 18.417969 C 4.3883443 19.300237 4.575045 20.60606 5.4785156 21.261719 L 7.34375 22.615234 C 8.2213904 23.252063 9.4763717 23.059864 10.123047 22.189453 L 11.994141 19.681641 L 13.839844 22.193359 A 1.0001 1.0001 0 0 0 13.84375 22.199219 C 14.488559 23.063705 15.736599 23.258988 16.613281 22.630859 A 1.0001 1.0001 0 0 0 16.613281 22.628906 L 18.507812 21.269531 C 19.421426 20.613359 19.608963 19.29467 18.914062 18.410156 A 1.0001 1.0001 0 0 0 18.914062 18.408203 L 15.808594 14.460938 C 16.928459 12.956295 18.128168 11.390285 18.683594 9.3613281 A 1 1 0 0 0 18.740234 9.1425781 C 18.903095 8.4821107 18.998802 7.7736369 19 7.0019531 A 1.0001 1.0001 0 0 0 19 7 C 19 5.0333379 18.059224 3.4387615 16.720703 2.4472656 C 15.382183 1.4557697 13.685181 1 12 1 z M 12 3 C 13.314813 3 14.617822 3.3775677 15.529297 4.0527344 C 16.381088 4.6836905 16.918716 5.5205379 16.986328 6.7421875 C 15.666252 5.6927036 14.075271 5.1236097 12.458984 5.0332031 C 12.306289 5.0116174 12.153087 5 12 5 C 11.847553 5 11.695034 5.0117995 11.542969 5.0332031 C 9.9260468 5.1234361 8.334285 5.6928039 7.0136719 6.7421875 C 7.0812843 5.5205379 7.6189121 4.6836905 8.4707031 4.0527344 C 9.3821786 3.3775677 10.685187 3 12 3 z M 12 7 C 12.277778 7 12.54212 7.0979871 12.710938 7.2480469 C 12.879754 7.398107 13 7.5833345 13 8 C 13 8.167333 12.884482 8.492594 12.560547 8.9472656 C 12.424545 9.1381567 12.183196 9.4097528 11.998047 9.6328125 C 11.814236 9.4099579 11.574871 9.1376183 11.439453 8.9472656 C 11.115648 8.4921039 11 8.1666663 11 8 C 11 7.5833345 11.120245 7.398107 11.289062 7.2480469 C 11.457879 7.0979867 11.722222 7 12 7 z M 9.0078125 7.78125 C 9.0029639 7.8537651 9 7.9260558 9 8 C 9 8.8333317 9.3843533 9.5063824 9.8105469 10.105469 C 10.085001 10.491259 10.395492 10.860854 10.708984 11.232422 L 9.3945312 12.875 C 8.5246835 11.664317 7.7553254 10.529126 7.3398438 9.21875 C 7.8219755 8.619617 8.389427 8.1397558 9.0078125 7.78125 z M 14.992188 7.7832031 C 15.60542 8.1392567 16.168896 8.6143367 16.648438 9.2070312 C 16.097847 10.891214 14.968097 12.257035 13.763672 13.908203 C 13.763111 13.908971 13.762279 13.909388 13.761719 13.910156 A 1.0001 1.0001 0 0 0 13.761719 13.912109 L 11.199219 17.402344 L 11.193359 17.408203 A 1 1 0 0 0 11.1875 17.416016 L 8.5195312 20.996094 A 1.0001 1.0001 0 0 0 8.5175781 20.996094 L 6.6542969 19.644531 A 1.0001 1.0001 0 0 0 6.6542969 19.642578 L 10.130859 15.154297 L 10.140625 15.142578 A 1.0001 1.0001 0 0 0 10.142578 15.138672 L 12.78125 11.845703 A 1 1 0 0 0 12.837891 11.765625 C 13.30283 11.211196 13.784204 10.67818 14.189453 10.109375 C 14.617475 9.5086308 15 8.832665 15 8 C 15 7.9267176 14.996951 7.8550828 14.992188 7.7832031 z M 14.597656 16.154297 L 17.339844 19.644531 L 15.447266 21.003906 L 13.242188 18 L 14.597656 16.154297 z "/>
</svg>
