<?xml version="1.0" encoding="UTF-8" standalone="no"?>
<svg xmlns="http://www.w3.org/2000/svg" xmlns:svg="http://www.w3.org/2000/svg" width="24" height="24" viewBox="0 0 24 24" fill="currentColor" tags="awareness,strip,band,tape,strap,cordon" categories="social,medical,emoji">
  <path d="M 12 1 C 10.314815 1 8.6178196 1.4557677 7.2792969 2.4472656 C 5.9407741 3.4387635 5 5.0333339 5 7 C 5 7.835454 5.1072173 8.5988336 5.2910156 9.3066406 A 1 1 0 0 0 5.3085938 9.3652344 C 5.8500806 11.393688 7.0209512 12.967558 8.1191406 14.484375 L 5.0722656 18.417969 C 4.3883429 19.300239 4.5750432 20.606059 5.4785156 21.261719 L 7.34375 22.615234 C 8.2213922 23.252064 9.4763704 23.059865 10.123047 22.189453 L 11.994141 19.681641 L 13.839844 22.193359 A 1.0001 1.0001 0 0 0 13.84375 22.199219 C 14.488561 23.063707 15.736597 23.258988 16.613281 22.630859 A 1.0001 1.0001 0 0 0 16.613281 22.628906 L 18.507812 21.269531 C 19.421428 20.613357 19.608964 19.294672 18.914062 18.410156 A 1.0001 1.0001 0 0 0 18.914062 18.408203 L 15.808594 14.460938 C 16.92846 12.956292 18.128168 11.390287 18.683594 9.3613281 A 1 1 0 0 0 18.740234 9.1425781 C 18.903095 8.4821101 18.998802 7.7736384 19 7.0019531 A 1.0001 1.0001 0 0 0 19 7 C 19 5.0333339 18.059226 3.4387635 16.720703 2.4472656 C 15.38218 1.4557677 13.685185 1 12 1 z M 12 3 C 13.314815 3 14.61782 3.3775663 15.529297 4.0527344 C 16.38335 4.6853663 16.928886 5.5210779 16.994141 6.7480469 C 15.672569 5.6946737 14.078399 5.1237845 12.458984 5.0332031 C 12.306288 5.0116174 12.153088 5 12 5 C 11.847553 5 11.695034 5.0117996 11.542969 5.0332031 C 9.9229185 5.1236104 8.3279665 5.6947756 7.0058594 6.7480469 C 7.0711137 5.5210779 7.6166497 4.6853663 8.4707031 4.0527344 C 9.3821804 3.3775663 10.685185 3 12 3 z M 12 7 C 12.277778 7 12.542119 7.097986 12.710938 7.2480469 C 12.879755 7.3981073 13 7.5833337 13 8 C 13 8.1673333 12.884482 8.492593 12.560547 8.9472656 C 12.424545 9.1381571 12.183196 9.4097524 11.998047 9.6328125 C 11.814236 9.4099575 11.574871 9.1376187 11.439453 8.9472656 C 11.115648 8.4921029 11 8.1666667 11 8 C 11 7.5833337 11.120244 7.3981073 11.289062 7.2480469 C 11.45788 7.0979864 11.722222 7 12 7 z M 9.0078125 7.78125 C 9.0029639 7.8537653 9 7.9260557 9 8 C 9 8.8333333 9.3843525 9.5063813 9.8105469 10.105469 C 10.085001 10.49126 10.395492 10.860853 10.708984 11.232422 L 9.3945312 12.875 C 8.5246822 11.664316 7.7553255 10.529127 7.3398438 9.21875 C 7.8219764 8.6196158 8.3894264 8.1397565 9.0078125 7.78125 z M 14.992188 7.7832031 C 15.60542 8.1392574 16.168895 8.6143355 16.648438 9.2070312 C 16.097846 10.891215 14.968099 12.257032 13.763672 13.908203 C 13.763111 13.908971 13.762279 13.909388 13.761719 13.910156 A 1.0001 1.0001 0 0 0 13.761719 13.912109 L 11.199219 17.402344 L 11.193359 17.408203 A 1 1 0 0 0 11.1875 17.416016 L 8.5195312 20.996094 A 1.0001 1.0001 0 0 0 8.5175781 20.996094 L 6.6542969 19.644531 A 1.0001 1.0001 0 0 0 6.6542969 19.642578 L 10.130859 15.154297 L 10.140625 15.142578 A 1.0001 1.0001 0 0 0 10.142578 15.138672 L 12.78125 11.845703 A 1 1 0 0 0 12.837891 11.765625 C 13.30283 11.211194 13.784202 10.67818 14.189453 10.109375 C 14.617476 9.5086296 15 8.8326667 15 8 C 15 7.9267175 14.996951 7.855083 14.992188 7.7832031 z M 14.597656 16.154297 L 17.339844 19.644531 L 15.447266 21.003906 L 13.242188 18 L 14.597656 16.154297 z "/>
</svg>
