<?xml version="1.0" encoding="UTF-8" standalone="no"?>
<svg xmlns="http://www.w3.org/2000/svg" xmlns:svg="http://www.w3.org/2000/svg" width="24" height="24" viewBox="0 0 24 24" fill="currentColor" tags="awareness,strip,band,tape,strap,cordon" categories="social,medical,emoji">
  
  <path d="M 11.980469 1 C 10.246741 1 8.5457282 1.4008887 7.2148438 2.3828125 C 5.8839594 3.3647363 5 4.9804802 5 7 C 5 7.8416701 5.0604235 8.5788641 5.2128906 9.2617188 A 1 1 0 0 0 5.2128906 9.3007812 C 5.5880364 11.04104 6.5771276 12.367834 8.109375 14.498047 L 4.7089844 18.886719 A 1.0001 1.0001 0 0 0 4.9121094 20.308594 L 8.4121094 22.849609 A 1.0001 1.0001 0 0 0 9.8027344 22.636719 L 11.972656 19.714844 L 14.158203 22.638672 A 1.0001 1.0001 0 0 0 15.542969 22.851562 L 19.082031 20.3125 A 1.0001 1.0001 0 0 0 19.287109 18.882812 L 15.828125 14.482422 C 17.012681 12.892903 18.19414 11.342015 18.716797 9.2636719 C 18.71783 9.2597327 18.719675 9.2558962 18.720703 9.2519531 A 1 1 0 0 0 18.724609 9.234375 C 18.902067 8.5475714 19 7.8008519 19 7 C 19 4.9871469 18.137251 3.3678889 16.806641 2.3828125 C 15.476029 1.3977361 13.763839 1 11.980469 1 z M 11.980469 3 C 13.457091 3 14.752802 3.3522672 15.617188 3.9921875 C 16.425021 4.5902418 16.8885 5.4444543 16.951172 6.7617188 C 15.733988 5.8024512 14.294092 5.2523184 12.820312 5.1054688 C 12.550805 5.0347576 12.274871 5 12 5 C 11.71784 5 11.434453 5.0367462 11.158203 5.1113281 C 9.6882831 5.2675925 8.2546239 5.8243141 7.0449219 6.7832031 C 7.1038138 5.4566751 7.5827023 4.5969173 8.4023438 3.9921875 C 9.2739549 3.3491145 10.564201 3 11.980469 3 z M 12 7 C 12.277778 7 12.54212 7.0979871 12.710938 7.2480469 C 12.879754 7.398107 13 7.5833345 13 8 C 13 8.1666663 12.884927 8.4924874 12.560547 8.9472656 C 12.423692 9.1391355 12.180543 9.4121422 11.994141 9.6367188 C 11.81094 9.4134509 11.574718 9.1401274 11.439453 8.9492188 C 11.116423 8.4933034 11 8.1666663 11 8 C 11 7.5833345 11.120245 7.398107 11.289062 7.2480469 C 11.457879 7.0979867 11.722222 7 12 7 z M 14.970703 7.7773438 C 15.592985 8.1339862 16.162031 8.6131922 16.648438 9.2128906 C 16.124171 10.822491 15.020971 12.184514 13.761719 13.910156 L 11.166016 17.445312 L 11.154297 17.460938 A 1 1 0 0 0 11.152344 17.462891 A 1 1 0 0 0 11.150391 17.464844 L 8.7871094 20.650391 L 6.9238281 19.296875 L 10.130859 15.154297 L 10.140625 15.142578 A 1.0001 1.0001 0 0 0 10.144531 15.138672 L 12.759766 11.857422 C 12.763597 11.852794 12.76765 11.848375 12.771484 11.84375 A 1 1 0 0 0 12.773438 11.841797 C 13.256668 11.259112 13.763263 10.7022 14.1875 10.107422 C 14.615619 9.5072152 15 8.8333317 15 8 A 1 1 0 0 0 14.970703 7.7773438 z M 9.0058594 7.7988281 C 9.0017605 7.8655632 9 7.9320659 9 8 C 9 8.8333317 9.3841253 9.5063859 9.8085938 10.105469 C 10.082254 10.491705 10.390248 10.86151 10.701172 11.232422 L 9.3945312 12.871094 C 8.250527 11.271013 7.5894182 10.309378 7.28125 9.3105469 C 7.7741554 8.6759176 8.36253 8.1732616 9.0058594 7.7988281 z M 14.595703 16.152344 L 17.068359 19.296875 L 15.173828 20.65625 L 13.214844 18.035156 L 14.595703 16.152344 z "/>
</svg>
