<?xml version="1.0" encoding="UTF-8" standalone="no"?>
<svg xmlns="http://www.w3.org/2000/svg" xmlns:svg="http://www.w3.org/2000/svg" width="24" height="24" viewBox="0 0 24 24" fill="currentColor" tags="release,boost,launch,space,version" categories="gaming,development">
  <path d="M 22.005859 1 C 17.459821 0.9718033 13.204595 3.1727594 10.595703 6.8554688 C 10.232345 6.7687886 9.7566506 6.6708256 9.234375 6.6035156 C 8.660612 6.52957 8.014757 6.4700475 7.3613281 6.5292969 C 6.7078993 6.5885462 6.0478553 6.7662736 5.4453125 7.1679688 A 1.0001 1.0001 0 0 0 5.4433594 7.1679688 C 4.3669613 7.8880398 3.8657567 9.0581721 3.515625 10.023438 C 3.1654933 10.988701 3.015625 11.822266 3.015625 11.822266 A 1.0001 1.0001 0 0 0 4 13 L 8.5859375 13 L 11 15.414062 L 11 20 A 1.0001 1.0001 0 0 0 12.177734 20.984375 C 12.177734 20.984375 13.011297 20.834507 13.976562 20.484375 C 14.941826 20.134243 16.11196 19.633036 16.832031 18.556641 A 1.0001 1.0001 0 0 0 16.832031 18.554688 C 17.635422 17.349602 17.544376 15.913151 17.396484 14.765625 C 17.329882 14.248839 17.232482 13.777884 17.146484 13.416016 C 22.153014 9.7420656 23 4.8043031 23 2 A 1.0001 1.0001 0 0 0 22.005859 1 z M 20.908203 3.1328125 C 20.710179 5.6996721 19.716851 9.2935469 15.455078 12.158203 C 14.426818 12.807709 13.32415 13.322047 12.201172 13.787109 L 10.216797 11.802734 C 10.682653 10.693831 11.192834 9.6034469 11.841797 8.5898438 A 1.0001 1.0001 0 0 0 11.847656 8.5800781 C 13.836943 5.3994011 17.213427 3.4538161 20.908203 3.1328125 z M 8.2617188 8.5332031 C 8.5008602 8.5374209 8.743789 8.5554346 8.9804688 8.5859375 C 9.1503149 8.607827 9.3138621 8.6344368 9.46875 8.6621094 C 9.0434316 9.4193118 8.6611694 10.199207 8.3242188 11 L 5.3144531 11 C 5.3592671 10.854858 5.3389604 10.863665 5.3964844 10.705078 C 5.683853 9.9128431 6.1830356 9.0819601 6.5566406 8.8320312 C 6.8683517 8.6249613 7.5442944 8.5205498 8.2617188 8.5332031 z M 15.341797 14.550781 C 15.368088 14.699595 15.39314 14.857188 15.414062 15.019531 C 15.536074 15.96625 15.444063 17.027745 15.167969 17.443359 C 14.91804 17.816964 14.087157 18.316147 13.294922 18.603516 C 13.136335 18.661036 13.145142 18.640737 13 18.685547 L 13 15.679688 C 13.801197 15.347403 14.582736 14.969903 15.341797 14.550781 z M 6.0039062 14.992188 C 5.2436611 14.968674 4.4745375 15.21496 3.8574219 15.734375 C 2.776207 16.642595 2.3111599 18.027513 1.9765625 19.197266 C 1.6419651 20.367018 1.5097656 21.367188 1.5097656 21.367188 A 1.0001 1.0001 0 0 0 2.6328125 22.490234 C 2.6328125 22.490234 3.6329818 22.358035 4.8027344 22.023438 C 5.972487 21.68884 7.3574045 21.223793 8.265625 20.142578 C 9.3014784 18.913492 9.2914202 17.042132 8.1132812 15.878906 A 1.0001 1.0001 0 0 0 8.0996094 15.867188 C 7.5155703 15.309746 6.7647694 15.015719 6.0039062 14.992188 z M 5.9414062 16.982422 C 6.2187205 16.991022 6.4912212 17.102023 6.7109375 17.308594 C 7.1053903 17.705434 7.1154706 18.404952 6.7363281 18.853516 A 1.0001 1.0001 0 0 0 6.734375 18.857422 C 6.3825955 19.276207 5.2672005 19.81116 4.2519531 20.101562 C 4.0089315 20.171073 4.0171956 20.148769 3.8007812 20.199219 C 3.8512283 19.982804 3.8289235 19.991068 3.8984375 19.748047 C 4.1888401 18.732799 4.723793 17.617405 5.1425781 17.265625 A 1.0001 1.0001 0 0 0 5.1445312 17.265625 C 5.3779889 17.068881 5.6611996 16.973756 5.9414062 16.982422 z "/>
</svg>
