<?xml version="1.0" encoding="UTF-8" standalone="no"?>
<svg xmlns="http://www.w3.org/2000/svg" xmlns:svg="http://www.w3.org/2000/svg" width="24" height="24" viewBox="0 0 24 24" fill="currentColor" tags="chair,furniture,seat" categories="home">
  <path d="M 3.6132812 1.0078125 A 1 1 0 0 0 3.2246094 1.0390625 A 1 1 0 0 0 2.5390625 2.2753906 L 5.5390625 12.775391 A 1.0001 1.0001 0 0 0 6.5 13.5 L 7.8320312 13.5 L 5.078125 18.666016 C 4.5104612 18.263476 3.967469 17.809816 3.4609375 17.296875 A 1 1 0 0 0 2.7558594 17 A 1 1 0 0 0 2.046875 17.289062 A 1 1 0 0 0 2.0390625 18.703125 C 7.5116351 24.244948 16.488365 24.244948 21.960938 18.703125 A 1 1 0 0 0 21.953125 17.289062 A 1 1 0 0 0 20.539062 17.296875 C 20.045793 17.796386 19.518222 18.23995 18.966797 18.634766 L 16.570312 13.5 L 18 13.5 A 1 1 0 0 0 19 12.5 A 1 1 0 0 0 18 11.5 L 7.2539062 11.5 L 4.4609375 1.7246094 A 1 1 0 0 0 3.6132812 1.0078125 z M 10.099609 13.5 L 14.363281 13.5 L 17.240234 19.664062 C 13.952963 21.263083 10.092866 21.271147 6.8007812 19.685547 L 10.099609 13.5 z "/>
</svg>
