<?xml version="1.0" encoding="UTF-8" standalone="no"?>
<svg xmlns="http://www.w3.org/2000/svg" xmlns:svg="http://www.w3.org/2000/svg" width="24" height="24" viewBox="0 0 24 24" fill="currentColor" tags="release,boost,launch,space,version" categories="gaming,development">
  <path d="M 22.005859 1 C 17.459869 0.97180366 13.204597 3.1728231 10.595703 6.8554688 C 10.231646 6.7684623 9.7593153 6.671169 9.234375 6.6035156 C 8.6606131 6.5295702 8.0147557 6.4700476 7.3613281 6.5292969 C 6.7079006 6.588546 6.0478541 6.7662744 5.4453125 7.1679688 A 1.0001 1.0001 0 0 0 5.4433594 7.1679688 C 4.3669635 7.8880384 3.8657559 9.058174 3.515625 10.023438 C 3.1654941 10.9887 3.015625 11.822266 3.015625 11.822266 A 1.0001 1.0001 0 0 0 4 13 L 8.5859375 13 L 11 15.414062 L 11 20 A 1.0001 1.0001 0 0 0 12.177734 20.984375 C 12.177734 20.984375 13.011299 20.834506 13.976562 20.484375 C 14.941825 20.134244 16.111962 19.633033 16.832031 18.556641 A 1.0001 1.0001 0 0 0 16.832031 18.554688 C 17.63542 17.349605 17.544375 15.913149 17.396484 14.765625 C 17.329531 14.246114 17.232822 13.778631 17.146484 13.416016 C 22.153081 9.7420659 23 4.8043135 23 2 A 1.0001 1.0001 0 0 0 22.005859 1 z M 20.908203 3.1328125 C 20.710179 5.6996669 19.716843 9.2935526 15.455078 12.158203 C 14.42682 12.807708 13.324148 13.322049 12.201172 13.787109 L 10.216797 11.802734 C 10.682651 10.693834 11.192836 9.6034448 11.841797 8.5898438 A 1.0001 1.0001 0 0 0 11.847656 8.5800781 C 13.836939 5.3994075 17.213435 3.4538155 20.908203 3.1328125 z M 8.2617188 8.5332031 C 8.5008599 8.5374209 8.7437895 8.5554347 8.9804688 8.5859375 C 9.1519612 8.6080392 9.3144937 8.6341329 9.4707031 8.6621094 C 9.0452379 9.4195519 8.6612586 10.19894 8.3242188 11 L 5.3144531 11 C 5.3592671 10.854858 5.3389604 10.863665 5.3964844 10.705078 C 5.6838524 9.9128447 6.1830363 9.0819596 6.5566406 8.8320312 C 6.8683511 8.6249618 7.5442952 8.5205499 8.2617188 8.5332031 z M 15.339844 14.548828 C 15.366517 14.69933 15.392873 14.855113 15.414062 15.019531 C 15.536073 15.966248 15.444062 17.027746 15.167969 17.443359 C 14.91804 17.816964 14.087155 18.316148 13.294922 18.603516 C 13.136335 18.661036 13.145142 18.640737 13 18.685547 L 13 15.677734 C 13.800587 15.345695 14.581326 14.967575 15.339844 14.548828 z M 5.8613281 14.990234 C 5.1481482 14.999822 4.4359666 15.247424 3.8574219 15.734375 C 2.7762092 16.642594 2.3111593 18.027515 1.9765625 19.197266 C 1.6419657 20.367015 1.5097656 21.367188 1.5097656 21.367188 A 1.0001 1.0001 0 0 0 2.6328125 22.490234 C 2.6328125 22.490234 3.6329841 22.358035 4.8027344 22.023438 C 5.9724846 21.688841 7.3574063 21.223791 8.265625 20.142578 C 9.3014763 18.913494 9.2914179 17.04213 8.1132812 15.878906 A 1.0001 1.0001 0 0 0 8.0996094 15.867188 C 7.5155715 15.309748 6.764768 15.015718 6.0039062 14.992188 C 5.956391 14.990718 5.9088735 14.989595 5.8613281 14.990234 z M 5.9414062 16.982422 C 6.2187199 16.991022 6.4912216 17.102023 6.7109375 17.308594 C 7.1053895 17.705432 7.1154698 18.404953 6.7363281 18.853516 A 1.0001 1.0001 0 0 0 6.734375 18.857422 C 6.3825962 19.276206 5.2671985 19.811161 4.2519531 20.101562 C 4.0089321 20.171072 4.0171952 20.148769 3.8007812 20.199219 C 3.8512282 19.982805 3.8289236 19.991068 3.8984375 19.748047 C 4.1888395 18.732801 4.7237938 17.617404 5.1425781 17.265625 A 1.0001 1.0001 0 0 0 5.1445312 17.265625 C 5.3779885 17.068881 5.6612002 16.973756 5.9414062 16.982422 z "/>
</svg>
