<svg xmlns="http://www.w3.org/2000/svg" xmlns:svg="http://www.w3.org/2000/svg" width="24" height="24" viewBox="0 0 24 24" fill="currentColor" tags="chair,furniture,seat" categories="home">
  <path d="M 3.4824219 1 A 1 1 0 0 0 3.2246094 1.0390625 A 1 1 0 0 0 2.5390625 2.2753906 L 5.5390625 12.775391 A 1.0001 1.0001 0 0 0 6.5 13.5 L 7.8320312 13.5 L 5.0761719 18.669922 C 4.5086395 18.267444 3.9673619 17.809708 3.4609375 17.296875 A 1 1 0 0 0 2.7558594 17 A 1 1 0 0 0 2.046875 17.289062 A 1 1 0 0 0 2.0390625 18.703125 C 7.5116351 24.244948 16.488365 24.244948 21.960938 18.703125 A 1 1 0 0 0 21.953125 17.289062 A 1 1 0 0 0 20.539062 17.296875 C 20.045787 17.796393 19.520183 18.243853 18.96875 18.638672 L 16.570312 13.5 L 18 13.5 A 1 1 0 0 0 19 12.5 A 1 1 0 0 0 18 11.5 L 7.2539062 11.5 L 4.4609375 1.7246094 A 1 1 0 0 0 3.4824219 1 z M 10.099609 13.5 L 14.363281 13.5 L 17.240234 19.667969 C 13.952927 21.266965 10.092869 21.273169 6.8007812 19.6875 L 10.099609 13.5 z "/>
</svg>
