<?xml version="1.0" encoding="UTF-8" standalone="no"?>
<svg xmlns="http://www.w3.org/2000/svg" xmlns:svg="http://www.w3.org/2000/svg" width="24" height="24" viewBox="0 0 24 24" fill="currentColor" tags="attraction,entertainment,amusement park,theme park,funfair" categories="navigation">
  <path d="M 6 4 C 3.2504209 4 1 6.2504209 1 9 L 1 19 A 1 1 0 0 0 2 20 A 1 1 0 0 0 3 19 L 3 9 C 3 7.6826889 3.8296541 6.5757916 5 6.1679688 L 5 19 A 1 1 0 0 0 6 20 A 1 1 0 0 0 7 19 L 7 6.1425781 C 7.6395913 6.323234 8.3066027 6.6797162 9 7.2382812 L 9 19 A 1 1 0 0 0 10 20 A 1 1 0 0 0 11 19 L 11 9.3378906 C 11.066204 9.4231993 11.13261 9.510687 11.199219 9.5996094 C 11.78641 10.38351 12.386545 11.072944 13 11.660156 L 13 19 A 1 1 0 0 0 14 20 A 1 1 0 0 0 15 19 L 15 13.173828 C 15.652374 13.538347 16.318908 13.786684 17 13.910156 L 17 19 A 1 1 0 0 0 18 20 A 1 1 0 0 0 19 19 L 19 13.898438 C 19.747748 13.744326 20.424727 13.42128 21 12.978516 L 21 19 A 1 1 0 0 0 22 20 A 1 1 0 0 0 23 19 L 23 9 A 1 1 0 0 0 22.992188 8.8730469 C 22.980232 8.2316367 22.840912 7.5778227 22.554688 6.9433594 C 21.739213 5.1357239 20.015916 4.1221002 18.236328 4.0292969 A 1 1 0 0 0 18 4 A 1 1 0 0 0 17.777344 4.0253906 C 16.485424 4.0736743 15.20188 4.611249 14.25 5.6875 A 1 1 0 0 0 14.337891 7.0996094 A 1 1 0 0 0 15.75 7.0117188 C 16.111794 6.6026535 16.542582 6.3181985 17 6.1523438 L 17 9 A 1 1 0 0 0 18 10 A 1 1 0 0 0 19 9 L 19 6.1484375 C 19.727404 6.4077 20.365065 6.9556469 20.730469 7.765625 C 20.899134 8.1394995 20.987658 8.5206452 21.005859 8.8925781 A 1 1 0 0 0 21 9 L 21 9.2734375 C 20.881895 10.750238 19.663287 11.998439 18 12 C 17.003566 12 15.932197 11.566525 14.791016 10.587891 A 1 1 0 0 0 14.517578 10.34375 C 13.961606 9.8292876 13.388725 9.1852962 12.800781 8.4003906 C 10.704532 5.6018985 8.4433333 4 6 4 z "/>
</svg>
