<?xml version="1.0" encoding="UTF-8" standalone="no"?>
<svg xmlns="http://www.w3.org/2000/svg" xmlns:svg="http://www.w3.org/2000/svg" width="24" height="24" viewBox="0 0 24 24" fill="currentColor" tags="attraction,entertainment,amusement park,theme park,funfair" categories="navigation">
  <path d="M 6 4 C 3.2504209 4 1 6.2504209 1 9 L 1 19 A 1 1 0 0 0 2 20 A 1 1 0 0 0 3 19 L 3 9 C 3 7.6833445 3.8305755 6.5801903 5 6.171875 L 5 19 A 1 1 0 0 0 6 20 A 1 1 0 0 0 7 19 L 7 6.1464844 C 7.6394274 6.3270621 8.3067929 6.6838993 9 7.2421875 L 9 19 A 1 1 0 0 0 10 20 A 1 1 0 0 0 11 19 L 11 9.3417969 C 11.066371 9.4273129 11.132441 9.5104614 11.199219 9.5996094 C 11.786234 10.383274 12.386738 11.069153 13 11.65625 L 13 19 A 1 1 0 0 0 14 20 A 1 1 0 0 0 15 19 L 15 13.169922 C 15.652473 13.534545 16.3188 13.782749 17 13.90625 L 17 19 A 1 1 0 0 0 18 20 A 1 1 0 0 0 19 19 L 19 13.896484 C 19.747419 13.74228 20.424949 13.421141 21 12.978516 L 21 19 A 1 1 0 0 0 22 20 A 1 1 0 0 0 23 19 L 23 9 A 1 1 0 0 0 22.990234 8.8652344 C 22.977254 8.2264491 22.839695 7.5751251 22.554688 6.9433594 C 21.739668 5.1367317 20.018766 4.1230754 18.240234 4.0292969 A 1 1 0 0 0 18 4 A 1 1 0 0 0 17.771484 4.0273438 C 16.481465 4.0769765 15.200499 4.612811 14.25 5.6875 A 1 1 0 0 0 14.337891 7.0996094 A 1 1 0 0 0 15.75 7.0117188 C 16.111681 6.6027812 16.542742 6.3201737 17 6.1542969 L 17 9 A 1 1 0 0 0 18 10 A 1 1 0 0 0 19 9 L 19 6.1542969 C 19.726596 6.4138432 20.365391 6.9563686 20.730469 7.765625 C 20.909586 8.1626672 20.995744 8.5671528 21.005859 8.9609375 A 1 1 0 0 0 21 9 L 21 9.2792969 C 20.879252 10.753639 19.661173 11.998441 18 12 C 17.00261 12 15.929521 11.562653 14.787109 10.582031 A 1 1 0 0 0 14.521484 10.345703 C 13.964268 9.8306323 13.390123 9.187162 12.800781 8.4003906 C 10.704532 5.6018985 8.4433333 4 6 4 z "/>
</svg>
