<?xml version="1.0" encoding="UTF-8" standalone="no"?>
<svg xmlns="http://www.w3.org/2000/svg" xmlns:svg="http://www.w3.org/2000/svg" width="24" height="24" viewBox="0 0 24 24" fill="currentColor" tags="roses,thorns,petals,plant,stem,leaves,spring,bloom,blossom,gardening,botanical,flora,florist,bouquet,bunch,gift,date,romance,romantic,valentines day,special occasion" categories="nature,seasons,sustainability,home,social">
  <path d="M 15.835938 1.0019531 C 15.596763 1.0090166 15.357396 1.0323729 15.119141 1.0742188 C 14.518828 1.1796544 13.930889 1.4042427 13.382812 1.7441406 A 1 1 0 0 0 13.324219 1.7753906 L 11.255859 3.0859375 C 8.0086858 5.1392191 7.3638297 8.7526304 8.4863281 11.578125 C 2.8792222 15.013841 1.0390625 21.724609 1.0390625 21.724609 A 1 1 0 0 0 1.7246094 22.960938 A 1 1 0 0 0 2.9609375 22.275391 C 2.9609375 22.275391 3.3666291 20.918602 4.2988281 19.177734 C 5.026756 20.587292 5.9731438 21.545598 7.0429688 22.083984 C 8.6217141 22.927278 10.408966 22.897894 12.496094 22.480469 A 1.0001 1.0001 0 0 0 13.248047 21.183594 C 12.718532 19.595051 11.973498 17.999902 10.587891 16.992188 C 9.9315159 16.514824 9.1096663 16.136378 8.0800781 15.945312 C 7.6276643 15.861356 7.1359295 15.813402 6.5996094 15.808594 C 7.4050921 14.886762 8.3588334 14.015993 9.4785156 13.316406 C 11.185859 15.521913 14.204384 16.792286 17.484375 15.544922 L 19.775391 14.675781 C 22.285897 13.723541 23.313224 11.241427 22.919922 9.0976562 C 22.699466 7.8960183 22.024007 6.7541754 21 5.9824219 C 20.992564 3.8060731 19.637876 2.0947932 17.914062 1.3808594 C 17.265851 1.1123961 16.553462 0.98076273 15.835938 1.0019531 z M 15.822266 2.9882812 C 16.274818 2.9670714 16.725938 3.0535331 17.148438 3.2285156 C 17.947298 3.5593714 18.598173 4.1869802 18.867188 5.0703125 C 18.589437 5.0241744 18.299592 4.9998944 18 5 L 17 5 C 15.35499 5 14 6.3549904 14 8 C 14 8.091346 14.003545 8.1821092 14.011719 8.2714844 C 13.669031 7.9641931 13.406268 7.5776252 13.228516 7.1484375 C 12.791311 6.0927937 12.904005 4.8538071 13.878906 3.8789062 C 14.002286 3.7555264 14.130786 3.645222 14.261719 3.5488281 L 14.394531 3.4648438 A 1 1 0 0 0 14.490234 3.3964844 C 14.91547 3.1390381 15.369713 3.0094911 15.822266 2.9882812 z M 11 5.90625 C 10.988634 6.6002605 11.120896 7.2863747 11.380859 7.9140625 C 12.096762 9.6426281 13.815081 11 16 11 L 17 11 C 18.64501 11 20 9.6450096 20 8 C 20 7.8897665 19.99427 7.7811365 19.982422 7.6738281 C 20.507504 8.1261491 20.825718 8.7645271 20.953125 9.4589844 C 21.197585 10.791461 20.710463 12.180352 19.064453 12.804688 L 16.775391 13.675781 A 1.0001 1.0001 0 0 0 16.773438 13.675781 C 13.840566 14.791998 11.586102 13.364011 10.523438 11.238281 C 9.6766151 9.5442469 9.6379502 7.5108272 11 5.90625 z M 17 7 C 17.564129 7 18 7.4358706 18 8 C 18 8.5641294 17.564129 9 17 9 C 16.435871 9 16 8.5641294 16 8 C 16 7.4358728 16.435874 7.0000033 17 7 z M 7.3417969 17.853516 C 7.4722397 17.853418 7.5911953 17.86055 7.6933594 17.878906 C 8.4387712 18.01284 8.9684837 18.286738 9.4121094 18.609375 C 9.9779518 19.020897 10.434483 19.783925 10.837891 20.650391 C 9.6803838 20.764861 8.7234871 20.723551 7.9746094 20.320312 A 1.0001 1.0001 0 0 0 7.9472656 20.304688 C 7.2739573 19.968039 6.6173802 19.131275 6.0390625 17.9375 C 6.4595741 17.918746 6.9504685 17.853809 7.3417969 17.853516 z "/>
</svg>
