<?xml version="1.0" encoding="UTF-8" standalone="no"?>
<svg xmlns="http://www.w3.org/2000/svg" xmlns:svg="http://www.w3.org/2000/svg" width="24" height="24" viewBox="0 0 24 24" fill="currentColor" tags="gizmo,transform,orientation,orbit,axis" categories="design">
  <path d="M 12 1 C 10.078995 1 8.5661784 2.4908277 7.5703125 4.4824219 C 7.2332388 5.1565227 6.9455184 5.9050745 6.7109375 6.7109375 C 5.9050745 6.9455184 5.1565227 7.2332388 4.4824219 7.5703125 C 2.4908277 8.5661784 1 10.078995 1 12 C 1 13.921005 2.4908277 15.433822 4.4824219 16.429688 C 5.1565227 16.766761 5.9050745 17.054482 6.7109375 17.289062 C 6.9455184 18.094925 7.2332388 18.843477 7.5703125 19.517578 C 8.5661784 21.509172 10.078995 23 12 23 C 12.476503 23 12.942172 22.90211 13.375 22.726562 A 1 1 0 0 0 13.925781 21.423828 A 1 1 0 0 0 12.625 20.873047 C 12.411828 20.959504 12.207497 21 12 21 C 11.160005 21 10.173259 20.250703 9.359375 18.623047 C 9.2295627 18.36344 9.1091731 18.078566 8.9941406 17.783203 C 9.950018 17.924848 10.957636 18 12 18 C 13.807428 18 15.509898 17.777098 17.019531 17.367188 L 16.25 18.943359 A 1 1 0 0 0 16.708984 20.279297 A 1 1 0 0 0 18.046875 19.818359 L 19.90625 16.005859 A 1.0001 1.0001 0 0 0 19.447266 14.667969 L 15.632812 12.808594 A 1 1 0 0 0 14.294922 13.269531 A 1 1 0 0 0 14.755859 14.605469 L 16.466797 15.439453 C 15.153247 15.791894 13.62626 16 12 16 C 10.706109 16 9.476331 15.866423 8.3652344 15.634766 C 8.1335771 14.523669 8 13.293891 8 12 C 8 10.706109 8.1335771 9.476331 8.3652344 8.3652344 C 9.476331 8.1335771 10.706109 8 12 8 C 14.300632 8 16.403281 8.4148937 17.984375 9.0683594 C 19.565469 9.7218251 20.567017 10.623599 20.873047 11.376953 A 1 1 0 0 0 22.175781 11.925781 A 1 1 0 0 0 22.726562 10.623047 C 22.105593 9.0944008 20.625702 7.9967374 18.748047 7.2207031 C 18.287114 7.0301997 17.797259 6.8617804 17.285156 6.7128906 C 16.850421 5.2084212 16.236632 3.9060465 15.439453 2.9042969 C 14.547438 1.7833745 13.358001 1 12 1 z M 12 3 C 12.593999 3 13.225812 3.3351099 13.873047 4.1484375 C 14.289235 4.6714272 14.681911 5.3794091 15.011719 6.2226562 C 14.053325 6.0796446 13.045304 6 12 6 C 10.957636 6 9.950018 6.0751522 8.9941406 6.2167969 C 9.1091731 5.9214343 9.2295627 5.6365598 9.359375 5.3769531 C 10.173259 3.7492973 11.160005 3 12 3 z M 6.2167969 8.9941406 C 6.0751522 9.950018 6 10.957636 6 12 C 6 13.042364 6.0751522 14.049982 6.2167969 15.005859 C 5.9214343 14.890827 5.6365598 14.770437 5.3769531 14.640625 C 3.7492973 13.826741 3 12.839995 3 12 C 3 11.160005 3.7492973 10.173259 5.3769531 9.359375 C 5.6365598 9.2295627 5.9214343 9.1091731 6.2167969 8.9941406 z "/>
</svg>
