<?xml version="1.0" encoding="UTF-8" standalone="no"?>
<svg xmlns="http://www.w3.org/2000/svg" xmlns:svg="http://www.w3.org/2000/svg" width="24" height="24" viewBox="0 0 24 24" fill="currentColor" tags="right,clockwise,rotate,image,90,45,degrees,°" categories="layout,design,photography,tools,arrows">
  <path d="M 9 1 A 1 1 0 0 0 8.2929688 1.2929688 A 1 1 0 0 0 8.2929688 2.7070312 L 9.5859375 4 L 6 4 C 4.3549904 4 3 5.3549904 3 7 L 3 10 A 1 1 0 0 0 4 11 A 1 1 0 0 0 5 10 L 5 7 C 5 6.4358706 5.4358706 6 6 6 L 9.5859375 6 L 8.2929688 7.2929688 A 1 1 0 0 0 8.2929688 8.7070312 A 1 1 0 0 0 9.7070312 8.7070312 L 12.707031 5.7070312 A 1.0001 1.0001 0 0 0 12.957031 5.28125 A 1 1 0 0 0 12.970703 5.2363281 A 1.0001 1.0001 0 0 0 12.996094 4.9121094 A 1 1 0 0 0 12.984375 4.8261719 A 1.0001 1.0001 0 0 0 12.980469 4.8046875 A 1 1 0 0 0 12.939453 4.6582031 A 1.0001 1.0001 0 0 0 12.923828 4.6171875 A 1 1 0 0 0 12.90625 4.578125 A 1.0001 1.0001 0 0 0 12.900391 4.5664062 A 1 1 0 0 0 12.865234 4.5 A 1.0001 1.0001 0 0 0 12.832031 4.4453125 A 1 1 0 0 0 12.818359 4.4257812 A 1.0001 1.0001 0 0 0 12.806641 4.4101562 A 1 1 0 0 0 12.765625 4.3574219 A 1.0001 1.0001 0 0 0 12.707031 4.2929688 L 9.7070312 1.2929688 A 1 1 0 0 0 9 1 z M 16 4 A 1 1 0 0 0 15 5 A 1 1 0 0 0 16 6 L 18 6 C 18.564129 6 19 6.4358706 19 7 L 19 18 C 19 18.564129 18.564129 19 18 19 L 6 19 C 5.4358706 19 5 18.564129 5 18 L 5 14 A 1 1 0 0 0 4 13 A 1 1 0 0 0 3 14 L 3 18 C 3 19.64501 4.3549904 21 6 21 L 18 21 C 19.64501 21 21 19.64501 21 18 L 21 7 C 21 5.3549904 19.64501 4 18 4 L 16 4 z "/>
</svg>
