<?xml version="1.0" encoding="UTF-8" standalone="no"?>
<svg xmlns="http://www.w3.org/2000/svg" xmlns:svg="http://www.w3.org/2000/svg" width="24" height="24" viewBox="0 0 24 24" fill="currentColor" tags="gizmo,transform,orientation,orbit" categories="design">
  <path d="M 12 1 C 10.078999 1 8.5661764 2.4908317 7.5703125 4.4824219 C 7.2332395 5.1565214 6.9455181 5.905075 6.7109375 6.7109375 C 5.905075 6.9455181 5.1565214 7.2332395 4.4824219 7.5703125 C 2.4908317 8.5661764 1 10.078999 1 12 C 1 13.921001 2.4908317 15.433824 4.4824219 16.429688 C 5.1565214 16.766761 5.905075 17.054482 6.7109375 17.289062 C 6.9455181 18.094925 7.2332395 18.843479 7.5703125 19.517578 C 8.5661764 21.509168 10.078999 23 12 23 C 12.476502 23 12.942172 22.90211 13.375 22.726562 A 1 1 0 0 0 13.925781 21.423828 A 1 1 0 0 0 12.625 20.873047 C 12.411828 20.959503 12.207497 21 12 21 C 11.160006 21 10.173257 20.250699 9.359375 18.623047 C 9.229563 18.363441 9.1091729 18.078565 8.9941406 17.783203 C 9.9500173 17.924848 10.957638 18 12 18 C 13.807425 18 15.509899 17.777098 17.019531 17.367188 L 16.25 18.943359 A 1 1 0 0 0 16.708984 20.279297 A 1 1 0 0 0 18.046875 19.818359 L 19.90625 16.005859 A 1.0001 1.0001 0 0 0 19.447266 14.667969 L 15.632812 12.808594 A 1 1 0 0 0 14.294922 13.269531 A 1 1 0 0 0 14.755859 14.605469 L 16.466797 15.439453 C 15.153248 15.791894 13.626256 16 12 16 C 10.706111 16 9.4763304 15.866423 8.3652344 15.634766 C 8.1335772 14.52367 8 13.293889 8 12 C 8 10.706111 8.1335772 9.4763304 8.3652344 8.3652344 C 9.4763304 8.1335772 10.706111 8 12 8 C 14.300627 8 16.403284 8.4148949 17.984375 9.0683594 C 19.565466 9.7218237 20.567018 10.623601 20.873047 11.376953 A 1 1 0 0 0 22.175781 11.925781 A 1 1 0 0 0 22.726562 10.623047 C 22.105594 9.0944038 20.625699 7.9967359 18.748047 7.2207031 C 18.287115 7.0302 17.797258 6.8617802 17.285156 6.7128906 C 16.850422 5.2084235 16.23663 3.9060445 15.439453 2.9042969 C 14.54744 1.7833767 13.357999 1 12 1 z M 12 3 C 12.593997 3 13.225813 3.3351115 13.873047 4.1484375 C 14.289234 4.6714262 14.681911 5.3794097 15.011719 6.2226562 C 14.053326 6.0796446 13.045303 6 12 6 C 10.957638 6 9.9500173 6.0751522 8.9941406 6.2167969 C 9.1091729 5.9214346 9.229563 5.6365593 9.359375 5.3769531 C 10.173257 3.7493006 11.160006 3 12 3 z M 6.2167969 8.9941406 C 6.0751522 9.9500173 6 10.957638 6 12 C 6 13.042362 6.0751522 14.049983 6.2167969 15.005859 C 5.9214346 14.890827 5.6365593 14.770437 5.3769531 14.640625 C 3.7493006 13.826743 3 12.839994 3 12 C 3 11.160006 3.7493006 10.173257 5.3769531 9.359375 C 5.6365593 9.229563 5.9214346 9.1091729 6.2167969 8.9941406 z "/>
</svg>
