<svg xmlns="http://www.w3.org/2000/svg" xmlns:svg="http://www.w3.org/2000/svg" width="24" height="24" viewBox="0 0 24 24" fill="currentColor" tags="gizmo,transform,orientation,orbit,axis" categories="design">
  <path d="M 12 1 C 10.078995 1 8.5661784 2.4908277 7.5703125 4.4824219 C 7.233205 5.1565903 6.9435779 5.9030288 6.7089844 6.7089844 C 5.9030288 6.9435779 5.1565903 7.233205 4.4824219 7.5703125 C 2.4908277 8.5661784 1 10.078995 1 12 C 1 13.921005 2.4908277 15.433822 4.4824219 16.429688 C 5.1565903 16.766795 5.9030288 17.056422 6.7089844 17.291016 C 6.9435779 18.096971 7.2332049 18.84341 7.5703125 19.517578 C 8.5661784 21.509172 10.078995 23 12 23 C 12.476503 23 12.942172 22.90211 13.375 22.726562 A 1 1 0 0 0 13.925781 21.423828 A 1 1 0 0 0 12.625 20.873047 C 12.411828 20.959504 12.207497 21 12 21 C 11.160005 21 10.173259 20.250703 9.359375 18.623047 C 9.2286289 18.361573 9.1040259 18.080935 8.9882812 17.783203 C 9.9456268 17.925324 10.95584 18 12 18 C 13.806474 18 15.508537 17.776685 17.017578 17.367188 L 16.25 18.943359 A 1 1 0 0 0 16.708984 20.279297 A 1 1 0 0 0 18.046875 19.818359 L 19.90625 16.005859 A 1.0001 1.0001 0 0 0 19.447266 14.667969 L 15.632812 12.808594 A 1 1 0 0 0 14.294922 13.269531 A 1 1 0 0 0 14.755859 14.605469 L 16.464844 15.439453 C 15.151558 15.791703 13.625775 16 12 16 C 10.70626 16 9.474276 15.868326 8.3632812 15.636719 C 8.1316742 14.525724 8 13.29374 8 12 C 8 10.70626 8.1316742 9.4742763 8.3632812 8.3632812 C 9.474276 8.1316743 10.70626 8 12 8 C 14.300632 8 16.403281 8.4148937 17.984375 9.0683594 C 19.565469 9.7218251 20.567017 10.623599 20.873047 11.376953 A 1 1 0 0 0 22.175781 11.925781 A 1 1 0 0 0 22.726562 10.623047 C 22.105593 9.0944008 20.625702 7.9967374 18.748047 7.2207031 C 18.287637 7.0304158 17.80053 6.8597074 17.289062 6.7109375 C 16.854314 5.2060919 16.236789 3.9062435 15.439453 2.9042969 C 14.547438 1.7833745 13.358001 1 12 1 z M 12 3 C 12.593999 3 13.225812 3.3351099 13.873047 4.1484375 C 14.288797 4.6708767 14.682125 5.3766793 15.011719 6.21875 C 14.054358 6.0760743 13.044041 6 12 6 C 10.95584 6 9.9456267 6.0746759 8.9882812 6.2167969 C 9.1040259 5.9190649 9.2286289 5.6384272 9.359375 5.3769531 C 10.173259 3.7492973 11.160005 3 12 3 z M 6.2167969 8.9882812 C 6.0746759 9.9456268 6 10.95584 6 12 C 6 13.04416 6.0746759 14.054373 6.2167969 15.011719 C 5.919065 14.895974 5.6384272 14.771371 5.3769531 14.640625 C 3.7492973 13.826741 3 12.839995 3 12 C 3 11.160005 3.7492973 10.173259 5.3769531 9.359375 C 5.6384272 9.2286289 5.919065 9.1040259 6.2167969 8.9882812 z "/>
</svg>
