<?xml version="1.0" encoding="UTF-8" standalone="no"?>
<svg xmlns="http://www.w3.org/2000/svg" xmlns:svg="http://www.w3.org/2000/svg" width="24" height="24" viewBox="0 0 24 24" fill="currentColor" tags="arrow,left,counter-clockwise,restart,reload,rerun,refresh,backup,undo" categories="arrows,design,photography">
  <path d="M 3 2 A 1 1 0 0 0 2 3 L 2 8 A 1.0001 1.0001 0 0 0 2.0683594 8.3417969 A 1 1 0 0 0 2.1015625 8.4199219 A 1.0001 1.0001 0 0 0 2.2929688 8.7070312 A 1.0001 1.0001 0 0 0 2.5800781 8.8984375 A 1 1 0 0 0 2.6582031 8.9316406 A 1.0001 1.0001 0 0 0 3 9 L 8 9 A 1 1 0 0 0 9 8 A 1 1 0 0 0 8 7 L 5.4140625 7 L 5.9550781 6.4589844 C 7.5778148 4.8902436 9.7430834 4.0094955 12 4 C 15.606358 4 18.23273 6.1417309 19.390625 8.9375 C 20.54852 11.733269 20.205976 15.106524 17.65625 17.65625 C 15.106524 20.205976 11.733269 20.54852 8.9375 19.390625 C 6.1417309 18.23273 4 15.606358 4 12 A 1 1 0 0 0 3 11 A 1 1 0 0 0 2 12 C 2 16.412327 4.7051386 19.801691 8.1738281 21.238281 C 11.642518 22.674873 15.95066 22.189966 19.070312 19.070312 C 22.189966 15.95066 22.674873 11.642518 21.238281 8.1738281 C 19.801691 4.7051386 16.412327 2 12 2 A 1.0001 1.0001 0 0 0 11.996094 2 C 9.2223312 2.0104346 6.5587116 3.0935841 4.5644531 5.0214844 A 1.0001 1.0001 0 0 0 4.5527344 5.0332031 L 4 5.5859375 L 4 3 A 1 1 0 0 0 3 2 z "/>
</svg>
