<?xml version="1.0" encoding="UTF-8" standalone="no"?>
<svg xmlns="http://www.w3.org/2000/svg" xmlns:svg="http://www.w3.org/2000/svg" width="24" height="24" viewBox="0 0 24 24" fill="currentColor" tags="arrow,right,clockwise,refresh,reload,rerun,redo" categories="arrows,design,photography">
  <path d="M 12 2 C 7.5876644 2 4.1983128 4.7051316 2.7617188 8.1738281 C 1.3251245 11.642525 1.8100283 15.950653 4.9296875 19.070312 C 8.0493467 22.189972 12.357475 22.674875 15.826172 21.238281 C 19.294868 19.801687 22 16.412336 22 12 A 1 1 0 0 0 21 11 A 1 1 0 0 0 20 12 C 20 15.606366 17.858275 18.232728 15.0625 19.390625 C 12.266725 20.548522 8.8934816 20.205982 6.34375 17.65625 C 3.7940184 15.106518 3.4514779 11.733275 4.609375 8.9375 C 5.7672721 6.1417253 8.3936343 4 12 4 C 14.25545 4 16.41859 4.8956249 18.046875 6.4609375 L 18.585938 7 L 16 7 A 1 1 0 0 0 15 8 A 1 1 0 0 0 16 9 L 21 9 A 1.0001 1.0001 0 0 0 21.341797 8.9316406 A 1 1 0 0 0 21.419922 8.8984375 A 1.0001 1.0001 0 0 0 21.707031 8.7070312 A 1 1 0 0 0 21.849609 8.5195312 A 1.0001 1.0001 0 0 0 21.873047 8.4824219 A 1 1 0 0 0 21.957031 8.28125 A 1.0001 1.0001 0 0 0 21.970703 8.2265625 A 1 1 0 0 0 22 8 L 22 3 A 1 1 0 0 0 21 2 A 1 1 0 0 0 20 3 L 20 5.5859375 L 19.447266 5.0332031 A 1.0001 1.0001 0 0 0 19.433594 5.0195312 C 17.441877 3.104844 14.78455 2 12 2 z "/>
</svg>
