<?xml version="1.0" encoding="UTF-8" standalone="no"?>
<svg xmlns="http://www.w3.org/2000/svg" xmlns:svg="http://www.w3.org/2000/svg" width="24" height="24" viewBox="0 0 24 24" fill="currentColor" tags="left,counter-clockwise,rotate,image,90,45,degrees,°" categories="layout,design,photography,tools,arrows">
  <path d="M 15 1 A 1 1 0 0 0 14.292969 1.2929688 L 11.292969 4.2929688 A 1 1 0 0 0 11 5 A 1 1 0 0 0 11.292969 5.7070312 L 14.292969 8.7070312 A 1 1 0 0 0 15.707031 8.7070312 A 1 1 0 0 0 15.707031 7.2929688 L 14.414062 6 L 18 6 C 18.564129 6 19 6.4358706 19 7 L 19 9 A 1 1 0 0 0 20 10 A 1 1 0 0 0 21 9 L 21 7 C 21 5.3549904 19.64501 4 18 4 L 14.414062 4 L 15.707031 2.7070312 A 1 1 0 0 0 15.707031 1.2929688 A 1 1 0 0 0 15 1 z M 6 4 C 4.3549904 4 3 5.3549904 3 7 L 3 18 C 3 19.64501 4.3549904 21 6 21 L 18 21 C 19.64501 21 21 19.64501 21 18 L 21 13 A 1 1 0 0 0 20 12 A 1 1 0 0 0 19 13 L 19 18 C 19 18.564129 18.564129 19 18 19 L 6 19 C 5.4358706 19 5 18.564129 5 18 L 5 7 C 5 6.4358706 5.4358706 6 6 6 L 8 6 A 1 1 0 0 0 9 5 A 1 1 0 0 0 8 4 L 6 4 z "/>
</svg>
