<svg xmlns="http://www.w3.org/2000/svg" xmlns:svg="http://www.w3.org/2000/svg" width="24" height="24" viewBox="0 0 24 24" fill="currentColor" tags="password,key,refresh,change" categories="security,account">
  <path d="M 3 2 A 1 1 0 0 0 2 3 L 2 8 A 1 1 0 0 0 2.0078125 8.1308594 A 1.0001 1.0001 0 0 0 2.0761719 8.3828125 A 1 1 0 0 0 2.2929688 8.7070312 A 1 1 0 0 0 2.6171875 8.9238281 A 1.0001 1.0001 0 0 0 2.8691406 8.9921875 A 1 1 0 0 0 3 9 L 8 9 A 1 1 0 0 0 9 8 A 1 1 0 0 0 8 7 L 5.4140625 7 L 5.9550781 6.4589844 C 7.5771111 4.8896277 9.7431575 4.008564 12 4 C 15.606366 4 18.232728 6.1417253 19.390625 8.9375 C 20.548522 11.733275 20.205982 15.106518 17.65625 17.65625 C 15.106518 20.205982 11.733275 20.548522 8.9375 19.390625 C 6.1417253 18.232728 4 15.606366 4 12 A 1 1 0 0 0 3 11 A 1 1 0 0 0 2 12 C 2 16.412336 4.7051316 19.801687 8.1738281 21.238281 C 11.642525 22.674875 15.950653 22.189972 19.070312 19.070312 C 22.189972 15.950653 22.674875 11.642525 21.238281 8.1738281 C 19.801687 4.7051316 16.412336 2 12 2 A 1.0001 1.0001 0 0 0 11.996094 2 C 9.2218366 2.0092909 6.5582679 3.0924197 4.5644531 5.0214844 A 1.0001 1.0001 0 0 0 4.5527344 5.0332031 L 4 5.5859375 L 4 3 A 1 1 0 0 0 3 2 z M 15.5 7.5 A 1 1 0 0 0 14.792969 7.7929688 L 11.291016 11.294922 C 10.899197 11.105755 10.46071 11 10 11 C 8.3549904 11 7 12.35499 7 14 C 7 15.64501 8.3549904 17 10 17 C 11.64501 17 13 15.64501 13 14 C 13 13.53929 12.894245 13.100803 12.705078 12.708984 L 14.5 10.914062 L 14.792969 11.207031 A 1 1 0 0 0 16.207031 11.207031 A 1 1 0 0 0 16.207031 9.7929688 L 15.914062 9.5 L 16.207031 9.2070312 A 1 1 0 0 0 16.207031 7.7929688 A 1 1 0 0 0 15.5 7.5 z M 10 13 C 10.564129 13 11 13.435871 11 14 C 11 14.564129 10.564129 15 10 15 C 9.4358706 15 9 14.564129 9 14 C 9 13.435871 9.4358706 13 10 13 z "/>
</svg>
