<svg xmlns="http://www.w3.org/2000/svg" xmlns:svg="http://www.w3.org/2000/svg" width="24" height="24" viewBox="0 0 24 24" fill="currentColor" tags="computer,server,cloud" categories="development,devices,connectivity,home">
  <path d="M 15.005859 1.0058594 C 12.701392 1.0058594 10.395518 1.8810212 8.6425781 3.6328125 A 1 1 0 0 0 8.6425781 5.046875 A 1 1 0 0 0 10.056641 5.046875 C 12.7983 2.307012 17.211465 2.307012 19.953125 5.046875 A 1 1 0 0 0 21.367188 5.046875 A 1 1 0 0 0 21.367188 3.6328125 C 19.614249 1.8810212 17.310327 1.0058594 15.005859 1.0058594 z M 15.009766 5.0039062 C 13.727183 5.0039062 12.444992 5.489473 11.472656 6.4628906 A 1 1 0 0 0 11.472656 7.8769531 A 1 1 0 0 0 12.886719 7.8769531 C 14.066961 6.6953973 15.952571 6.6953973 17.132812 7.8769531 A 1 1 0 0 0 18.546875 7.8769531 A 1 1 0 0 0 18.546875 6.4628906 C 17.57454 5.489473 16.292348 5.0039062 15.009766 5.0039062 z M 15 9 A 1 1 0 0 0 14 10 L 14 13 L 4 13 C 2.3552972 13 1 14.355297 1 16 L 1 20 C 1 21.644703 2.3552972 23 4 23 L 20 23 C 21.644703 23 23 21.644703 23 20 L 23 16 C 23 14.355297 21.644703 13 20 13 L 16 13 L 16 10 A 1 1 0 0 0 15 9 z M 4 15 L 20 15 C 20.571297 15 21 15.428703 21 16 L 21 20 C 21 20.571297 20.571297 21 20 21 L 4 21 C 3.4287028 21 3 20.571297 3 20 L 3 16 C 3 15.428703 3.4287028 15 4 15 z M 6 17 A 1 1 0 0 0 5 18 A 1 1 0 0 0 6 19 L 6.0097656 19 A 1 1 0 0 0 7.0097656 18 A 1 1 0 0 0 6.0097656 17 L 6 17 z M 10 17 A 1 1 0 0 0 9 18 A 1 1 0 0 0 10 19 L 10.009766 19 A 1 1 0 0 0 11.009766 18 A 1 1 0 0 0 10.009766 17 L 10 17 z "/>
</svg>
