<?xml version="1.0" encoding="UTF-8" standalone="no"?>
<svg xmlns="http://www.w3.org/2000/svg" xmlns:svg="http://www.w3.org/2000/svg" width="24" height="24" viewBox="0 0 24 24" fill="currentColor" tags="path,journey,planner,points,stops,stations,reset,clear,cancelled,closed,blocked" categories="navigation">
  <path d="M 2 1 A 1 1 0 0 0 1.2929688 1.2929688 A 1 1 0 0 0 1.2929688 2.7070312 L 3.5996094 5.0136719 C 2.3017476 6.1112829 1.8111567 7.8173424 2.0996094 9.3261719 C 2.4656112 11.240643 4.1153692 12.987494 6.4941406 13 A 1.0001 1.0001 0 0 0 6.5 13 L 11.585938 13 L 16.585938 18 L 9.8710938 18 C 9.4233216 16.281175 7.8524716 15 6 15 C 3.8027056 15 2 16.802706 2 19 C 2 21.197294 3.8027056 23 6 23 C 7.8524716 23 9.4233216 21.718825 9.8710938 20 L 17.5 20 C 17.843503 20 18.173838 19.953932 18.480469 19.894531 L 21.292969 22.707031 A 1 1 0 0 0 22.707031 22.707031 A 1 1 0 0 0 22.707031 21.292969 L 12.742188 11.330078 A 1 1 0 0 0 12.669922 11.257812 L 2.7070312 1.2929688 A 1 1 0 0 0 2 1 z M 18 1 C 16.147529 1 14.576679 2.2811752 14.128906 4 L 10.699219 4 A 1 1 0 0 0 9.6992188 5 A 1 1 0 0 0 10.699219 6 L 14.128906 6 C 14.576679 7.7188248 16.147529 9 18 9 C 20.197294 9 22 7.1972944 22 5 C 22 2.8027056 20.197294 1 18 1 z M 18 3 C 19.116414 3 20 3.8835859 20 5 C 20 6.1164141 19.116414 7 18 7 C 16.883586 7 16 6.1164141 16 5 C 16 3.8835859 16.883586 3 18 3 z M 5.015625 6.4296875 L 9.5859375 11 L 6.5058594 11 C 5.052274 10.992358 4.2779089 10.06771 4.0644531 8.9511719 C 3.8846347 8.0105832 4.1289328 7.0422769 5.015625 6.4296875 z M 17.755859 11.001953 A 1 1 0 0 0 16.701172 11.945312 A 1 1 0 0 0 17.644531 12.998047 C 18.924115 13.069297 19.930703 14.075885 20.001953 15.355469 A 1 1 0 0 0 21.054688 16.298828 A 1 1 0 0 0 21.998047 15.244141 C 21.871082 12.963978 20.036022 11.128918 17.755859 11.001953 z M 6 17 C 7.1164141 17 8 17.883586 8 19 C 8 20.116414 7.1164141 21 6 21 C 4.8835859 21 4 20.116414 4 19 C 4 17.883586 4.8835859 17 6 17 z "/>
</svg>
