<?xml version="1.0" encoding="UTF-8" standalone="no"?>
<svg xmlns="http://www.w3.org/2000/svg" xmlns:svg="http://www.w3.org/2000/svg" width="24" height="24" viewBox="0 0 24 24" fill="currentColor" tags="path,journey,planner,points,stops,stations" categories="maps,navigation">
  
  <path d="M 18 1 C 16.147532 1 14.576678 2.2811777 14.128906 4 L 6.5 4 C 5.0833365 4 3.8935575 4.5672574 3.1269531 5.4296875 C 2.3603489 6.2921176 2 7.4027801 2 8.5 C 2 9.5972199 2.3603489 10.707881 3.1269531 11.570312 C 3.8935575 12.432743 5.0833365 13 6.5 13 L 17.5 13 C 18.416664 13 18.976894 13.307745 19.376953 13.757812 C 19.777013 14.207879 20 14.847224 20 15.5 C 20 16.152776 19.777013 16.792121 19.376953 17.242188 C 18.976894 17.692255 18.416664 18 17.5 18 L 9.8710938 18 C 9.4233216 16.281178 7.8524679 15 6 15 C 3.80271 15 2 16.80271 2 19 C 2 21.19729 3.80271 23 6 23 C 7.8524679 23 9.4233216 21.718822 9.8710938 20 L 17.5 20 C 18.916664 20 20.106443 19.432744 20.873047 18.570312 C 21.639651 17.707882 22 16.59722 22 15.5 C 22 14.40278 21.639651 13.292118 20.873047 12.429688 C 20.106443 11.567256 18.916664 11 17.5 11 L 6.5 11 C 5.5833358 11 5.0231064 10.692254 4.6230469 10.242188 C 4.2229873 9.7921199 4 9.1527765 4 8.5 C 4 7.8472235 4.2229873 7.2078796 4.6230469 6.7578125 C 5.0231064 6.3077454 5.5833358 6 6.5 6 L 14.128906 6 C 14.576678 7.7188223 16.147532 9 18 9 C 20.19729 9 22 7.19729 22 5 C 22 2.80271 20.19729 1 18 1 z M 18 3 C 19.116412 3 20 3.8835881 20 5 C 20 6.1164119 19.116412 7 18 7 C 16.883588 7 16 6.1164119 16 5 C 16 3.8835881 16.883588 3 18 3 z M 6 17 C 7.1164119 17 8 17.883588 8 19 C 8 20.116412 7.1164119 21 6 21 C 4.8835881 21 4 20.116412 4 19 C 4 17.883588 4.8835881 17 6 17 z "/>
</svg>
