<?xml version="1.0" encoding="UTF-8" standalone="no"?>
<svg xmlns="http://www.w3.org/2000/svg" xmlns:svg="http://www.w3.org/2000/svg" width="24" height="24" viewBox="0 0 24 24" fill="currentColor" tags="path,journey,planner,points,stops,stations" categories="navigation">
  <path d="M 18 1 C 16.147529 1 14.576679 2.2811752 14.128906 4 L 6.5 4 C 5.0833337 4 3.8935589 4.5672556 3.1269531 5.4296875 C 2.3603473 6.2921194 2 7.4027779 2 8.5 C 2 9.5972221 2.3603473 10.707881 3.1269531 11.570312 C 3.8935589 12.432743 5.0833337 13 6.5 13 L 17.5 13 C 18.416666 13 18.976893 13.307744 19.376953 13.757812 C 19.777013 14.20788 20 14.847222 20 15.5 C 20 16.152778 19.777013 16.792119 19.376953 17.242188 C 18.976893 17.692256 18.416666 18 17.5 18 L 9.8710938 18 C 9.4233216 16.281175 7.8524716 15 6 15 C 3.8027056 15 2 16.802706 2 19 C 2 21.197294 3.8027056 23 6 23 C 7.8524716 23 9.4233216 21.718825 9.8710938 20 L 17.5 20 C 18.916666 20 20.106441 19.432744 20.873047 18.570312 C 21.639653 17.707881 22 16.597222 22 15.5 C 22 14.402778 21.639653 13.292119 20.873047 12.429688 C 20.106441 11.567255 18.916666 11 17.5 11 L 6.5 11 C 5.5833339 11 5.0231072 10.692256 4.6230469 10.242188 C 4.2229865 9.7921189 4 9.1527779 4 8.5 C 4 7.8472221 4.2229865 7.2078806 4.6230469 6.7578125 C 5.0231072 6.3077444 5.5833339 6 6.5 6 L 14.128906 6 C 14.576679 7.7188248 16.147529 9 18 9 C 20.197294 9 22 7.1972944 22 5 C 22 2.8027056 20.197294 1 18 1 z M 18 3 C 19.116414 3 20 3.8835859 20 5 C 20 6.1164141 19.116414 7 18 7 C 16.883586 7 16 6.1164141 16 5 C 16 3.8835859 16.883586 3 18 3 z M 6 17 C 7.1164141 17 8 17.883586 8 19 C 8 20.116414 7.1164141 21 6 21 C 4.8835859 21 4 20.116414 4 19 C 4 17.883586 4.8835859 17 6 17 z "/>
</svg>
