<?xml version="1.0" encoding="UTF-8" standalone="no"?>
<svg xmlns="http://www.w3.org/2000/svg" xmlns:svg="http://www.w3.org/2000/svg" width="24" height="24" viewBox="0 0 24 24" fill="currentColor" tags="feed,subscribe,news,updates,notifications,content,blog,articles,broadcast,syndication,reader,channels,posts,publishing,digest,alert,following,inbox,newsletter,weblog,podcast" categories="development,social">
  <path d="M 4 3 A 1 1 0 0 0 3 4 A 1 1 0 0 0 4 5 C 12.296116 5 19 11.703884 19 20 A 1 1 0 0 0 20 21 A 1 1 0 0 0 21 20 C 21 10.623004 13.376996 3 4 3 z M 4 10 A 1 1 0 0 0 3 11 A 1 1 0 0 0 4 12 C 8.4301226 12 12 15.569877 12 20 A 1 1 0 0 0 13 21 A 1 1 0 0 0 14 20 C 14 14.488997 9.5110029 10 4 10 z M 5 17 C 3.9072751 17 3 17.907275 3 19 C 3 20.092725 3.9072751 21 5 21 C 6.0927249 21 7 20.092725 7 19 C 7 17.907275 6.0927249 17 5 17 z "/>
</svg>
