<?xml version="1.0" encoding="UTF-8" standalone="no"?>
<svg xmlns="http://www.w3.org/2000/svg" xmlns:svg="http://www.w3.org/2000/svg" width="24" height="24" viewBox="0 0 24 24" fill="currentColor" tags="feed,subscribe" categories="development,social">
  
  <path d="M 4 3 A 1 1 0 0 0 3 4 A 1 1 0 0 0 4 5 C 12.2961 5 19 11.7039 19 20 A 1 1 0 0 0 20 21 A 1 1 0 0 0 21 20 C 21 10.623022 13.376978 3 4 3 z M 4 10 A 1 1 0 0 0 3 11 A 1 1 0 0 0 4 12 C 8.4301138 12 12 15.569886 12 20 A 1 1 0 0 0 13 21 A 1 1 0 0 0 14 20 C 14 14.489009 9.5109919 10 4 10 z M 5 17 C 3.9072773 17 3 17.907277 3 19 C 3 20.092723 3.9072773 21 5 21 C 6.0927227 21 7 20.092723 7 19 C 7 17.907277 6.0927227 17 5 17 z "/>
</svg>
