<?xml version="1.0" encoding="UTF-8" standalone="no"?>
<svg xmlns="http://www.w3.org/2000/svg" xmlns:svg="http://www.w3.org/2000/svg" width="24" height="24" viewBox="0 0 24 24" fill="currentColor" tags="measurements,centimeters,cm,millimeters,mm,metre,foot,feet,inches,units,size,length,width,height,dimensions,depth,breadth,extent,stationery" categories="tools,design,layout">
  <path d="M 7 1.0039062 C 6.1278225 1.0039062 5.2547843 1.3323905 4.59375 1.9902344 A 1.0001 1.0001 0 0 0 4.59375 1.9921875 L 1.9921875 4.59375 A 1.0001 1.0001 0 0 0 1.9902344 4.59375 C 0.67454662 5.9158186 0.67454662 8.0841814 1.9902344 9.40625 A 1.0001 1.0001 0 0 0 1.9921875 9.40625 L 14.59375 22.007812 C 15.914222 23.330687 18.088589 23.33011 19.408203 22.005859 L 22.005859 19.408203 L 22.007812 19.40625 C 23.330022 18.086441 23.330022 15.913559 22.007812 14.59375 L 20.207031 12.792969 L 9.40625 1.9921875 A 1.0001 1.0001 0 0 0 9.40625 1.9902344 C 8.7452157 1.3323874 7.8721775 1.0039063 7 1.0039062 z M 7 2.9921875 C 7.3568659 2.9921875 7.713303 3.1297382 7.9921875 3.40625 L 9.0859375 4.5 L 7.7929688 5.7929688 A 1 1 0 0 0 7.7929688 7.2070312 A 1 1 0 0 0 9.2070312 7.2070312 L 10.5 5.9140625 L 12.085938 7.5 L 10.792969 8.7929688 A 1 1 0 0 0 10.792969 10.207031 A 1 1 0 0 0 12.207031 10.207031 L 13.5 8.9140625 L 15.085938 10.5 L 13.792969 11.792969 A 1 1 0 0 0 13.792969 13.207031 A 1 1 0 0 0 15.207031 13.207031 L 16.5 11.914062 L 18.085938 13.5 L 16.792969 14.792969 A 1 1 0 0 0 16.792969 16.207031 A 1 1 0 0 0 18.207031 16.207031 L 19.5 14.914062 L 20.59375 16.007812 C 21.151257 16.563388 21.151257 17.436613 20.59375 17.992188 L 17.992188 20.59375 C 17.436613 21.151257 16.563388 21.151257 16.007812 20.59375 L 3.4082031 7.9941406 L 3.40625 7.9921875 C 2.8532264 7.4344185 2.8532264 6.5655815 3.40625 6.0078125 L 3.4082031 6.0058594 L 6.0058594 3.4082031 L 6.0078125 3.40625 C 6.2867032 3.129732 6.6431341 2.9921875 7 2.9921875 z "/>
</svg>
