<?xml version="1.0" encoding="UTF-8" standalone="no"?>
<svg xmlns="http://www.w3.org/2000/svg" xmlns:svg="http://www.w3.org/2000/svg" width="24" height="24" viewBox="0 0 24 24" fill="currentColor" tags="measurements,centimeters,cm,millimeters,mm,metre,foot,feet,inches,units,size,length,width,height,dimensions,depth,breadth,extent,stationery" categories="tools,design,layout">
  <path d="M 4 3 A 1 1 0 0 0 3 4 L 3 8 A 1 1 0 0 0 4 9 A 1 1 0 0 0 5 8 L 5 7 L 19 7 L 19 8 A 1 1 0 0 0 20 9 A 1 1 0 0 0 21 8 L 21 4 A 1 1 0 0 0 20 3 A 1 1 0 0 0 19 4 L 19 5 L 5 5 L 5 4 A 1 1 0 0 0 4 3 z M 8 10.986328 A 1 1 0 0 0 7.8359375 11 L 4 11 C 2.9092972 11 2 11.909297 2 13 L 2 18 C 2 19.090703 2.9092972 20 4 20 L 20 20 C 21.090703 20 22 19.090703 22 18 L 22 13 C 22 11.909297 21.090703 11 20 11 L 16.164062 11 A 1 1 0 0 0 16 10.986328 A 1 1 0 0 0 15.835938 11 L 12.164062 11 A 1 1 0 0 0 12 10.986328 A 1 1 0 0 0 11.835938 11 L 8.1640625 11 A 1 1 0 0 0 8 10.986328 z M 4 13 L 7 13 L 7 15 A 1 1 0 0 0 8 16 A 1 1 0 0 0 9 15 L 9 13 L 11 13 L 11 15 A 1 1 0 0 0 12 16 A 1 1 0 0 0 13 15 L 13 13 L 15 13 L 15 15 A 1 1 0 0 0 16 16 A 1 1 0 0 0 17 15 L 17 13 L 20 13 L 20 18 L 4 18 L 4 13 z "/>
</svg>
