<svg xmlns="http://www.w3.org/2000/svg" xmlns:svg="http://www.w3.org/2000/svg" width="24" height="24" viewBox="0 0 24 24" fill="currentColor" tags="measurements,centimeters,cm,millimeters,mm,metre,foot,feet,inches,units,size,length,width,height,dimensions,depth,breadth,extent,stationery" categories="tools,design,layout">
  <path d="M 2 3 A 1 1 0 0 0 1 4 L 1 8 A 1 1 0 0 0 2 9 A 1 1 0 0 0 3 8 L 3 7 L 21 7 L 21 8 A 1 1 0 0 0 22 9 A 1 1 0 0 0 23 8 L 23 4 A 1 1 0 0 0 22 3 A 1 1 0 0 0 21 4 L 21 5 L 3 5 L 3 4 A 1 1 0 0 0 2 3 z M 4 11 C 2.3552972 11 1 12.355297 1 14 L 1 18 C 1 19.644703 2.3552972 21 4 21 L 20 21 C 21.644703 21 23 19.644703 23 18 L 23 14 C 23 12.355297 21.644703 11 20 11 L 18 11 L 14 11 L 10 11 L 6 11 L 4 11 z M 4 13 L 5 13 L 5 15 A 1 1 0 0 0 6 16 A 1 1 0 0 0 7 15 L 7 13 L 9 13 L 9 15 A 1 1 0 0 0 10 16 A 1 1 0 0 0 11 15 L 11 13 L 13 13 L 13 15 A 1 1 0 0 0 14 16 A 1 1 0 0 0 15 15 L 15 13 L 17 13 L 17 15 A 1 1 0 0 0 18 16 A 1 1 0 0 0 19 15 L 19 13 L 20 13 C 20.571297 13 21 13.428703 21 14 L 21 18 C 21 18.571297 20.571297 19 20 19 L 4 19 C 3.4287028 19 3 18.571297 3 18 L 3 14 C 3 13.428703 3.4287028 13 4 13 z "/>
</svg>
