<?xml version="1.0" encoding="UTF-8" standalone="no"?>
<svg xmlns="http://www.w3.org/2000/svg" xmlns:svg="http://www.w3.org/2000/svg" width="24" height="24" viewBox="0 0 24 24" fill="currentColor" tags="currency,money,payment" categories="currency,money">
  <path d="M 9 2 A 1.0001 1.0001 0 0 0 8 3 L 8 10 L 6 10 A 1 1 0 0 0 5 11 A 1 1 0 0 0 6 12 L 8 12 L 8 14 L 6 14 A 1 1 0 0 0 5 15 A 1 1 0 0 0 6 16 L 8 16 L 8 21 A 1 1 0 0 0 9 22 A 1 1 0 0 0 10 21 L 10 16 L 14 16 A 1 1 0 0 0 15 15 A 1 1 0 0 0 14 14 L 10 14 L 10 12 L 14 12 C 15.583329 12 16.89811 11.370242 17.748047 10.414062 C 18.597984 9.457882 19 8.2222197 19 7 C 19 5.7777803 18.597984 4.5421175 17.748047 3.5859375 C 16.89811 2.6297575 15.583329 2 14 2 L 9 2 z M 10 4 L 14 4 C 15.083331 4 15.768561 4.3702455 16.251953 4.9140625 C 16.735346 5.4578795 17 6.2222237 17 7 C 17 7.7777763 16.735346 8.5421205 16.251953 9.0859375 C 15.768561 9.6297545 15.083331 10 14 10 L 10 10 L 10 4 z "/>
</svg>
