<svg xmlns="http://www.w3.org/2000/svg" xmlns:svg="http://www.w3.org/2000/svg" width="24" height="24" viewBox="0 0 24 24" fill="currentColor" tags="ship,boat,harbor,harbour,dock" categories="transportation,travel">
  <path d="M 10 1 A 1 1 0 0 0 9.7871094 1.0234375 C 9.77488 1.0247687 9.7622039 1.0257952 9.75 1.0273438 C 9.1845803 1.09909 8.6494158 1.4046246 8.3183594 1.9199219 L 8.3261719 1.9042969 L 2.3515625 10.865234 L 2.3496094 10.867188 L 2.3496094 10.869141 C 1.4733281 12.148685 2.4480181 14.000438 4 14 L 9 14 L 9 16 L 4 16 C 2.9072751 16 2 16.907275 2 18 C 2 20.749579 4.2504209 23 7 23 L 17 23 C 19.749579 23 22 20.749579 22 18 C 22 16.907275 21.092725 16 20 16 L 11 16 L 11 14 L 20 14 A 1.0001 1.0001 0 0 0 20.001953 14 C 20.876662 13.999108 21.604675 13.412028 21.871094 12.701172 C 22.137513 11.990316 21.97311 11.069717 21.314453 10.494141 L 11.359375 1.5332031 C 11.027054 1.2252796 10.616069 1.0573102 10.195312 1.0195312 A 1 1 0 0 0 10 1 z M 11 3.8984375 L 19.988281 11.990234 A 1.0001 1.0001 0 0 0 19.998047 12 L 11 12 L 11 3.8984375 z M 9 4.5 L 9 12 L 4 12 A 1.0001 1.0001 0 0 0 4.0078125 11.988281 L 9 4.5 z M 4 18 L 20 18 C 20 19.668699 18.668699 21 17 21 L 7 21 C 5.3313011 21 4 19.668699 4 18 z "/>
</svg>
