<?xml version="1.0" encoding="UTF-8" standalone="no"?>
<svg xmlns="http://www.w3.org/2000/svg" xmlns:svg="http://www.w3.org/2000/svg" width="24" height="24" viewBox="0 0 24 24" fill="currentColor" tags="ship,boat,harbor,harbour,dock" categories="transportation,travel">
  <path d="M 10 1 A 1 1 0 0 0 9.9609375 1.0019531 A 1.0001 1.0001 0 0 0 9.8925781 1.0058594 A 1.0001 1.0001 0 0 0 9.8730469 1.0097656 A 1.0001 1.0001 0 0 0 9.8671875 1.0097656 A 1 1 0 0 0 9.8144531 1.0195312 A 1.0001 1.0001 0 0 0 9.7578125 1.03125 A 1 1 0 0 0 9.6523438 1.0644531 A 1.0001 1.0001 0 0 0 9.6289062 1.0722656 A 1 1 0 0 0 9.5566406 1.1074219 A 1.0001 1.0001 0 0 0 9.5019531 1.1347656 A 1 1 0 0 0 9.4453125 1.1699219 A 1.0001 1.0001 0 0 0 9.3925781 1.2070312 A 1 1 0 0 0 9.3378906 1.2539062 A 1.0001 1.0001 0 0 0 9.2910156 1.296875 A 1 1 0 0 0 9.2480469 1.34375 A 1.0001 1.0001 0 0 0 9.203125 1.3964844 A 1 1 0 0 0 9.1679688 1.4511719 A 1.0001 1.0001 0 0 0 9.1367188 1.4960938 L 9.1230469 1.5214844 L 2.1367188 13.496094 A 1.0001 1.0001 0 0 0 3 15 L 9 15 L 9 17 L 2 17 A 1.0001 1.0001 0 0 0 1 18 C 1 20.749579 3.2504209 23 6 23 L 18 23 C 20.749579 23 23 20.749579 23 18 A 1.0001 1.0001 0 0 0 22 17 L 11 17 L 11 15 L 21 15 A 1.0001 1.0001 0 0 0 21.736328 13.324219 L 10.759766 1.3515625 L 10.759766 1.3496094 A 1 1 0 0 0 10.736328 1.3242188 A 1.0001 1.0001 0 0 0 10.714844 1.3027344 A 1 1 0 0 0 10.65625 1.2480469 A 1.0001 1.0001 0 0 0 10.619141 1.2167969 A 1 1 0 0 0 10.537109 1.1582031 A 1 1 0 0 0 10.53125 1.1542969 A 1.0001 1.0001 0 0 0 10.521484 1.1484375 A 1 1 0 0 0 10.441406 1.1054688 A 1.0001 1.0001 0 0 0 10.382812 1.078125 A 1 1 0 0 0 10.320312 1.0546875 A 1 1 0 0 0 10.289062 1.0429688 A 1.0001 1.0001 0 0 0 10.277344 1.0410156 A 1 1 0 0 0 10.166016 1.015625 A 1 1 0 0 0 10.158203 1.0136719 A 1.0001 1.0001 0 0 0 10.152344 1.0136719 A 1 1 0 0 0 10.066406 1.0039062 A 1.0001 1.0001 0 0 0 10.009766 1 A 1 1 0 0 0 10 1 z M 11 4.5703125 L 18.726562 13 L 11 13 L 11 4.5703125 z M 9 5.6972656 L 9 13 L 4.7402344 13 L 9 5.6972656 z M 3.4121094 19 L 10 19 L 20.587891 19 C 20.150853 20.112502 19.276016 21 18 21 L 6 21 C 4.7239838 21 3.8491466 20.112502 3.4121094 19 z "/>
</svg>
