<svg xmlns="http://www.w3.org/2000/svg" xmlns:svg="http://www.w3.org/2000/svg" width="24" height="24" viewBox="0 0 24 24" fill="currentColor" tags="food,vegetarian,dish,restaurant,course,meal,side,vegetables,health" categories="food-beverage,emoji">
  <path d="M 19.210938 2.3203125 C 18.680398 2.3169648 18.1415 2.4774789 17.623047 2.7402344 C 16.311289 2.1310043 14.790312 2.4151558 13.789062 3.4628906 C 12.222103 3.2579746 10.812782 4.159695 10.279297 5.5390625 C 9.8611341 5.3222395 9.4219318 5.1721914 8.9765625 5.0839844 C 8.0148345 4.8935106 7.0224425 4.9930794 6.1425781 5.34375 C 4.384456 6.0444509 2.9913134 7.7810552 3 10 L 3 10.001953 C 3.0001376 10.343729 3.0349943 10.677653 3.1015625 11 L 3 11 A 1.0001 1.0001 0 0 0 2 12 C 2 15.415164 3.7229896 18.437058 6.3457031 20.242188 A 1 1 0 0 0 6 21 A 1 1 0 0 0 7 22 L 17 22 A 1 1 0 0 0 18 21 A 1 1 0 0 0 17.654297 20.242188 C 20.27701 18.437058 22 15.415164 22 12 A 1.0001 1.0001 0 0 0 21.345703 11.0625 C 22.379764 10.098448 22.703629 8.5829814 22.097656 7.25 C 22.81498 5.8615796 22.489732 4.2651231 21.537109 3.3125 C 20.995655 2.7710459 20.242052 2.4104032 19.4375 2.3320312 C 19.362123 2.3246887 19.286729 2.3207907 19.210938 2.3203125 z M 19.173828 4.2636719 C 19.532563 4.2699097 19.851561 4.4550762 20.123047 4.7265625 C 20.605689 5.2092048 20.817067 5.8406665 20.234375 6.5820312 A 1.0001 1.0001 0 0 0 20.220703 7.8007812 C 20.80361 8.5750604 20.491307 9.6289077 19.580078 9.9589844 A 1.0001 1.0001 0 0 0 18.925781 11 L 15.414062 11 L 17.707031 8.7070312 A 1 1 0 0 0 17.707031 7.2929688 A 1 1 0 0 0 16.292969 7.2929688 L 12.585938 11 L 11.324219 11 C 10.3609 10.990884 10.021209 10.412251 9.9628906 9.7167969 C 9.9067919 9.0478135 10.125548 8.4420567 10.986328 8.2460938 A 1 1 0 0 0 11.177734 8.2070312 A 1.0001 1.0001 0 0 0 11.955078 7.0097656 C 11.696289 5.8645542 12.725962 4.9742929 13.822266 5.3945312 A 1.0001 1.0001 0 0 0 15.023438 4.9960938 C 15.469694 4.2935796 16.3841 4.1280983 17.048828 4.6289062 A 1.0001 1.0001 0 0 0 18.267578 4.6171875 C 18.591925 4.3622599 18.894812 4.2588202 19.173828 4.2636719 z M 7.9648438 6.9746094 C 8.3333818 6.9648043 8.7043629 7.0250876 9.0625 7.1660156 C 8.2837603 7.8799591 7.8866231 8.9054032 7.96875 9.8847656 C 8.0005655 10.264166 8.1026136 10.643364 8.265625 11 L 5.1738281 11 C 5.0612061 10.686734 5 10.352424 5 10 A 1.0001 1.0001 0 0 0 5 9.9941406 C 4.9928827 8.5896696 5.8081982 7.6314133 6.8828125 7.203125 C 7.2301618 7.0646887 7.5963057 6.9844144 7.9648438 6.9746094 z M 4.2011719 13 L 4.5078125 13 L 4.5722656 13 L 19.798828 13 C 19.288438 16.932174 16.075035 20 12 20 C 7.9249646 20 4.711562 16.932174 4.2011719 13 z "/>
</svg>
