<?xml version="1.0" encoding="UTF-8" standalone="no"?>
<svg xmlns="http://www.w3.org/2000/svg" xmlns:svg="http://www.w3.org/2000/svg" width="24" height="24" viewBox="0 0 24 24" fill="currentColor" tags="food,vegetarian,dish,restaurant,course,meal,side,vegetables,health" categories="food-beverage,emoji">
  <path d="M 19.210938 2.3203125 C 18.680399 2.3169649 18.141499 2.4774794 17.623047 2.7402344 C 16.311291 2.1310055 14.79031 2.415158 13.789062 3.4628906 C 12.221646 3.2579149 10.812424 4.1609649 10.279297 5.5410156 C 9.8609235 5.3239974 9.42218 5.1722406 8.9765625 5.0839844 C 8.0148365 4.8935109 7.0224407 4.9930802 6.1425781 5.34375 C 4.3844595 6.0444495 2.9913134 7.7810597 3 10 L 3 10.001953 C 3.0001377 10.343915 3.0349239 10.677489 3.1015625 11 L 3 11 A 1.0001 1.0001 0 0 0 2 12 C 2 15.417831 3.7273426 18.44146 6.3535156 20.246094 A 1 1 0 0 0 6 21 A 1 1 0 0 0 7 22 L 17 22 A 1 1 0 0 0 18 21 A 1 1 0 0 0 17.652344 20.242188 C 20.27526 18.437088 22 15.415315 22 12 A 1.0001 1.0001 0 0 0 21.337891 11.066406 C 22.376904 10.10264 22.70485 8.5856664 22.097656 7.25 C 22.814988 5.8615821 22.48973 4.2651211 21.537109 3.3125 C 20.995657 2.7710469 20.24205 2.4104031 19.4375 2.3320312 C 19.362123 2.3246887 19.286729 2.3207907 19.210938 2.3203125 z M 19.173828 4.2636719 C 19.532563 4.2699098 19.851561 4.4550768 20.123047 4.7265625 C 20.605688 5.2092038 20.817065 5.8406679 20.234375 6.5820312 A 1.0001 1.0001 0 0 0 20.220703 7.8007812 C 20.803609 8.5750588 20.491305 9.6289083 19.580078 9.9589844 A 1.0001 1.0001 0 0 0 18.941406 11 L 15.414062 11 L 17.707031 8.7070312 A 1 1 0 0 0 17.707031 7.2929688 A 1 1 0 0 0 16.292969 7.2929688 L 12.585938 11 L 11.371094 11 C 10.372149 11.0093 10.022139 10.423334 9.9628906 9.7167969 C 9.9047109 9.0229971 10.143242 8.3977488 11.085938 8.2265625 A 1 1 0 0 0 11.150391 8.2128906 A 1.0001 1.0001 0 0 0 11.955078 7.0097656 C 11.696289 5.8645565 12.725964 4.9742938 13.822266 5.3945312 A 1.0001 1.0001 0 0 0 15.023438 4.9960938 C 15.469693 4.2935811 16.384102 4.1280994 17.048828 4.6289062 A 1.0001 1.0001 0 0 0 18.267578 4.6171875 C 18.591925 4.3622604 18.894812 4.2588202 19.173828 4.2636719 z M 7.9277344 6.9765625 C 8.3086218 6.9616407 8.6921879 7.0220968 9.0625 7.1679688 C 8.2844506 7.8818706 7.88666 8.9058431 7.96875 9.8847656 C 8.0005892 10.264448 8.1023994 10.643132 8.265625 11 L 5.1738281 11 C 5.0612294 10.686763 5 10.352385 5 10 A 1.0001 1.0001 0 0 0 5 9.9980469 A 1.0001 1.0001 0 0 0 5 9.9960938 A 1.0001 1.0001 0 0 0 5 9.9941406 C 4.9928827 8.5896724 5.8082003 7.6314125 6.8828125 7.203125 C 7.2186288 7.0692852 7.5716223 6.9905137 7.9277344 6.9765625 z M 4.2011719 13 L 4.5390625 13 L 19.798828 13 C 19.288439 16.932166 16.075027 20 12 20 C 7.9249728 20 4.711561 16.932166 4.2011719 13 z "/>
</svg>
