<?xml version="1.0" encoding="UTF-8" standalone="no"?>
<svg xmlns="http://www.w3.org/2000/svg" xmlns:svg="http://www.w3.org/2000/svg" width="24" height="24" viewBox="0 0 24 24" fill="currentColor" tags="food,vegetarian,dish,restaurant,course,meal,side,vegetables,health" categories="food-beverage,emoji">
  <path d="M 19.210938 2.3203125 C 18.680398 2.3169648 18.1415 2.4774789 17.623047 2.7402344 C 16.311289 2.1310043 14.790312 2.4151558 13.789062 3.4628906 C 12.221643 3.2579144 10.812424 4.1609629 10.279297 5.5410156 C 9.8609232 5.3239973 9.4221809 5.1722408 8.9765625 5.0839844 C 8.0148345 4.8935106 7.0224425 4.9930794 6.1425781 5.34375 C 4.384456 6.0444509 2.9913134 7.7810552 3 10 L 3 10.001953 C 3.0001377 10.343916 3.0349239 10.677489 3.1015625 11 L 3 11 A 1.0001 1.0001 0 0 0 2 12 C 2 15.417838 3.7273403 18.44146 6.3535156 20.246094 A 1 1 0 0 0 6 21 A 1 1 0 0 0 7 22 L 17 22 A 1 1 0 0 0 18 21 A 1 1 0 0 0 17.652344 20.242188 C 20.275262 18.437087 22 15.415322 22 12 A 1.0001 1.0001 0 0 0 21.337891 11.066406 C 22.376907 10.102639 22.704851 8.5856691 22.097656 7.25 C 22.81498 5.8615796 22.489732 4.2651231 21.537109 3.3125 C 20.995655 2.7710459 20.242052 2.4104032 19.4375 2.3320312 C 19.362123 2.3246887 19.286729 2.3207907 19.210938 2.3203125 z M 19.173828 4.2636719 C 19.532563 4.2699097 19.851561 4.4550762 20.123047 4.7265625 C 20.605689 5.2092048 20.817067 5.8406665 20.234375 6.5820312 A 1.0001 1.0001 0 0 0 20.220703 7.8007812 C 20.80361 8.5750604 20.491307 9.6289077 19.580078 9.9589844 A 1.0001 1.0001 0 0 0 18.941406 11 L 15.414062 11 L 17.707031 8.7070312 A 1 1 0 0 0 17.707031 7.2929688 A 1 1 0 0 0 16.292969 7.2929688 L 12.585938 11 L 11.371094 11 C 10.372147 11.0093 10.022139 10.423336 9.9628906 9.7167969 C 9.9047108 9.0229957 10.14324 8.3977492 11.085938 8.2265625 A 1 1 0 0 0 11.150391 8.2128906 A 1.0001 1.0001 0 0 0 11.955078 7.0097656 C 11.696289 5.8645542 12.725962 4.9742929 13.822266 5.3945312 A 1.0001 1.0001 0 0 0 15.023438 4.9960938 C 15.469694 4.2935796 16.3841 4.1280983 17.048828 4.6289062 A 1.0001 1.0001 0 0 0 18.267578 4.6171875 C 18.591925 4.3622599 18.894812 4.2588202 19.173828 4.2636719 z M 7.9277344 6.9765625 C 8.3086221 6.9616405 8.6921876 7.0220967 9.0625 7.1679688 C 8.2844497 7.881871 7.8866599 8.9058411 7.96875 9.8847656 C 8.0005893 10.264449 8.1023994 10.643131 8.265625 11 L 5.1738281 11 C 5.0612293 10.686763 5 10.352386 5 10 A 1.0001 1.0001 0 0 0 5 9.9980469 A 1.0001 1.0001 0 0 0 5 9.9960938 A 1.0001 1.0001 0 0 0 5 9.9941406 C 4.9928827 8.5896696 5.8081982 7.6314133 6.8828125 7.203125 C 7.2186295 7.0692849 7.5716221 6.9905139 7.9277344 6.9765625 z M 4.2011719 13 L 4.5390625 13 L 19.798828 13 C 19.288438 16.932174 16.075035 20 12 20 C 7.9249646 20 4.711562 16.932174 4.2011719 13 z "/>
</svg>
