<?xml version="1.0" encoding="UTF-8" standalone="no"?>
<svg xmlns="http://www.w3.org/2000/svg" xmlns:svg="http://www.w3.org/2000/svg" width="24" height="24" viewBox="0 0 24 24" fill="currentColor" tags="food,snack,dish,restaurant,lunch,meal" categories="food-beverage">
  <path d="M 12 3.0039062 C 11.330479 3.0039062 10.661236 3.2246184 10.113281 3.6679688 L 1.7402344 10.445312 A 1 1 0 0 0 1.7050781 10.488281 C 1.2766484 10.8573 1 11.400596 1 12 L 1 14 C 1 14.362496 1.1012347 14.7043 1.2753906 15 C 1.10152 15.295663 1 15.636901 1 16 L 1 18 C 1 19.092723 1.9072773 20 3 20 L 11.666016 20 L 12.199219 20.400391 C 13.445311 21.334959 15.212129 21.140353 16.234375 20 L 21 20 C 22.092723 20 23 19.092723 23 18 L 23 16 C 23 15.636901 22.89848 15.295663 22.724609 15 C 22.898765 14.7043 23 14.362496 23 14 L 23 12 C 23 11.440534 22.759159 10.930225 22.378906 10.564453 A 1 1 0 0 0 22.257812 10.445312 L 13.886719 3.6679688 C 13.338764 3.2246184 12.669521 3.0039062 12 3.0039062 z M 12 4.9980469 C 12.221613 4.9980469 12.443226 5.0724219 12.628906 5.2226562 L 18.529297 10 L 5.4707031 10 L 11.371094 5.2226562 C 11.556774 5.0724219 11.778387 4.9980469 12 4.9980469 z M 3 12 L 21 12 L 21 14 L 18.763672 14 L 3 14 L 3 12 z M 3 16 L 6.3359375 16 L 9 18 L 3 18 L 3 16 z M 9.6679688 16 L 16.75 16 L 14.800781 18.599609 C 14.462305 19.050912 13.851693 19.139259 13.400391 18.800781 L 9.6679688 16 z M 19.25 16 L 21 16 L 21 18 L 17.75 18 L 19.25 16 z "/>
</svg>
