<?xml version="1.0" encoding="UTF-8" standalone="no"?>
<svg xmlns="http://www.w3.org/2000/svg" xmlns:svg="http://www.w3.org/2000/svg" width="24" height="24" viewBox="0 0 24 24" fill="currentColor" tags="food,snack,dish,restaurant,lunch,meal" categories="food-beverage">
  <path d="M 12 3.0039062 C 11.330477 3.0039062 10.661236 3.2246175 10.113281 3.6679688 L 1.7402344 10.445312 A 1 1 0 0 0 1.609375 10.574219 C 1.2355291 10.939238 1 11.44596 1 12 L 1 14 C 1 14.36189 1.0998194 14.704639 1.2734375 15 C 1.0997683 15.295536 1 15.637128 1 16 L 1 18 C 1 19.092725 1.9072751 20 3 20 L 11.666016 20 L 12.199219 20.400391 C 13.445909 21.335408 15.214306 21.141807 16.236328 20 L 21 20 C 22.092725 20 23 19.092725 23 18 L 23 16 C 23 15.637128 22.900232 15.295536 22.726562 15 C 22.900181 14.704639 23 14.36189 23 14 L 23 12 C 23 11.439985 22.759808 10.928344 22.378906 10.5625 A 1 1 0 0 0 22.257812 10.445312 L 13.886719 3.6679688 C 13.338764 3.2246176 12.669523 3.0039062 12 3.0039062 z M 12 4.9980469 C 12.221613 4.9980469 12.443226 5.0724216 12.628906 5.2226562 L 18.529297 10 L 5.4707031 10 L 11.371094 5.2226562 C 11.556774 5.0724216 11.778387 4.9980469 12 4.9980469 z M 3 12 L 21 12 L 21 14 L 18.783203 14 L 18.716797 14 L 6.6914062 14 L 6.6484375 14 L 3 14 L 3 12 z M 3 16 L 6.3359375 16 L 9 18 L 3 18 L 3 16 z M 9.6679688 16 L 16.75 16 L 14.949219 18.402344 A 1 1 0 0 0 14.931641 18.425781 L 14.800781 18.599609 C 14.462304 19.050913 13.851694 19.139259 13.400391 18.800781 L 12.607422 18.205078 A 1 1 0 0 0 12.59375 18.195312 L 9.6679688 16 z M 19.25 16 L 21 16 L 21 18 L 17.75 18 L 19.25 16 z "/>
</svg>
