<?xml version="1.0" encoding="UTF-8" standalone="no"?>
<svg xmlns="http://www.w3.org/2000/svg" xmlns:svg="http://www.w3.org/2000/svg" width="24" height="24" viewBox="0 0 24 24" fill="currentColor" tags="antenna,receiver,dish aerial,saucer" categories="connectivity,devices,multimedia">
  <path d="M 11 2 A 1 1 0 0 0 10 3 A 1 1 0 0 0 11 4 C 15.982407 4 20 8.0175926 20 13 A 1 1 0 0 0 21 14 A 1 1 0 0 0 22 13 C 22 6.9367124 17.063288 2 11 2 z M 11 6 A 1 1 0 0 0 10 7 A 1 1 0 0 0 11 8 C 13.773268 8 16 10.226732 16 13 A 1 1 0 0 0 17 14 A 1 1 0 0 0 18 13 C 18 9.1458514 14.854149 6 11 6 z M 4.0039062 9 A 1.0001 1.0001 0 0 0 3.8730469 9.0078125 A 1.0001 1.0001 0 0 0 3.1367188 9.4960938 C 1.0154014 13.124763 1.9923839 17.12129 4.4355469 19.564453 C 6.8787098 22.007616 10.875237 22.984598 14.503906 20.863281 A 1.0001 1.0001 0 0 0 14.707031 19.292969 L 10.414062 15 L 12.707031 12.707031 A 1 1 0 0 0 12.707031 11.292969 A 1 1 0 0 0 12 11 A 1 1 0 0 0 11.292969 11.292969 L 9 13.585938 L 4.7070312 9.2929688 A 1.0001 1.0001 0 0 0 4.0039062 9 z M 4.3730469 11.787109 L 12.212891 19.626953 C 9.7894665 20.450653 7.4497519 19.750533 5.8496094 18.150391 C 4.2494669 16.550248 3.5493467 14.210533 4.3730469 11.787109 z "/>
</svg>
