<svg xmlns="http://www.w3.org/2000/svg" xmlns:svg="http://www.w3.org/2000/svg" width="24" height="24" viewBox="0 0 24 24" fill="currentColor" tags="space station,orbit,transmitter" categories="connectivity,science">
  <path d="M 9.5 2.0058594 C 8.9336498 2.0058594 8.3677599 2.2182412 7.9414062 2.6445312 L 5.6445312 4.9414062 C 4.7919515 5.7941135 4.7919514 7.2058864 5.6445312 8.0585938 L 8.1914062 10.605469 C 7.8371867 11.414436 7.9881809 12.402145 8.6445312 13.058594 L 10.941406 15.355469 C 11.597855 16.011819 12.585564 16.162813 13.394531 15.808594 L 15.941406 18.355469 C 16.794114 19.208049 18.205886 19.208049 19.058594 18.355469 L 21.355469 16.058594 C 22.208049 15.205886 22.208049 13.794114 21.355469 12.941406 L 18.808594 10.394531 C 19.162813 9.5855638 19.011819 8.5978547 18.355469 7.9414062 L 17.914062 7.5 L 19.707031 5.7070312 A 1 1 0 0 0 19.707031 4.2929688 A 1 1 0 0 0 18.292969 4.2929688 L 16.5 6.0859375 L 16.058594 5.6445312 C 15.63224 5.2182413 15.06635 5.0058594 14.5 5.0058594 C 14.194456 5.0058594 13.888907 5.067536 13.605469 5.1914062 L 11.058594 2.6445312 C 10.63224 2.2182412 10.06635 2.0058594 9.5 2.0058594 z M 9.5 3.9921875 C 9.5501589 3.9921875 9.6003176 4.0143867 9.6445312 4.0585938 L 12.085938 6.5 L 9.5 9.0859375 L 7.0585938 6.6445312 C 6.9701797 6.5561042 6.9701797 6.4438959 7.0585938 6.3554688 L 9.3554688 4.0585938 C 9.3996822 4.0143867 9.4498411 3.9921875 9.5 3.9921875 z M 14.5 6.9921875 C 14.550158 6.9921875 14.600318 7.0143867 14.644531 7.0585938 L 15.792969 8.2070312 L 16.941406 9.3554688 C 17.029816 9.4438957 17.029816 9.556104 16.941406 9.6445312 L 16.792969 9.7929688 L 12.792969 13.792969 L 12.644531 13.941406 C 12.556101 14.029816 12.443896 14.029816 12.355469 13.941406 L 10.058594 11.644531 C 9.9701797 11.556101 9.9701797 11.443896 10.058594 11.355469 L 10.207031 11.207031 L 14.207031 7.2070312 L 14.355469 7.0585938 C 14.399684 7.0143867 14.449842 6.9921875 14.5 6.9921875 z M 17.5 11.914062 L 19.941406 14.355469 C 20.029816 14.443899 20.029816 14.556104 19.941406 14.644531 L 17.644531 16.941406 C 17.556101 17.029816 17.443896 17.029816 17.355469 16.941406 L 14.914062 14.5 L 17.5 11.914062 z M 3 14 A 1 1 0 0 0 2 15 A 1 1 0 0 0 3 16 C 5.7732684 16 8 18.226732 8 21 A 1 1 0 0 0 9 22 A 1 1 0 0 0 10 21 C 10 17.145851 6.8541486 14 3 14 z "/>
</svg>
