<?xml version="1.0" encoding="UTF-8" standalone="no"?>
<svg xmlns="http://www.w3.org/2000/svg" xmlns:svg="http://www.w3.org/2000/svg" width="24" height="24" viewBox="0 0 24 24" fill="currentColor" tags="space station,orbit,transmitter" categories="connectivity,science">
  <path d="M 8.84375 2.0117188 A 1.0001 1.0001 0 0 0 8.2929688 2.2929688 L 4.2929688 6.2929688 A 1.0001 1.0001 0 0 0 4.2929688 7.7070312 L 7.5859375 11 L 7.2929688 11.292969 A 1.0001 1.0001 0 0 0 7.2929688 12.707031 L 11.292969 16.707031 A 1.0001 1.0001 0 0 0 12.707031 16.707031 L 13 16.414062 L 16.292969 19.707031 A 1.0001 1.0001 0 0 0 17.707031 19.707031 L 21.707031 15.707031 A 1.0001 1.0001 0 0 0 21.707031 14.292969 L 18.414062 11 L 18.707031 10.707031 A 1.0001 1.0001 0 0 0 18.707031 9.2929688 L 17.414062 8 L 19.707031 5.7070312 A 1 1 0 0 0 19.707031 4.2929688 A 1 1 0 0 0 18.292969 4.2929688 L 16 6.5859375 L 14.707031 5.2929688 A 1.0001 1.0001 0 0 0 13.292969 5.2929688 L 13 5.5859375 L 9.7070312 2.2929688 A 1.0001 1.0001 0 0 0 8.84375 2.0117188 z M 9 4.4140625 L 11.585938 7 L 9 9.5859375 L 6.4140625 7 L 9 4.4140625 z M 14 7.4140625 L 16.585938 10 L 12 14.585938 L 9.4140625 12 L 14 7.4140625 z M 17 12.414062 L 19.585938 15 L 17 17.585938 L 14.414062 15 L 17 12.414062 z M 3 14 A 1 1 0 0 0 2 15 A 1 1 0 0 0 3 16 C 5.7732684 16 8 18.226732 8 21 A 1 1 0 0 0 9 22 A 1 1 0 0 0 10 21 C 10 17.145851 6.8541486 14 3 14 z "/>
</svg>
