<?xml version="1.0" encoding="UTF-8" standalone="no"?>
<svg xmlns="http://www.w3.org/2000/svg" xmlns:svg="http://www.w3.org/2000/svg" width="24" height="24" viewBox="0 0 24 24" fill="currentColor" tags="currency,money,payment" categories="finance">
  <path d="M 10 1 A 1 1 0 0 0 9 2 L 9 11.382812 L 3.7871094 12.523438 A 1 1 0 0 0 3.0234375 13.712891 A 1 1 0 0 0 4.2128906 14.476562 L 9 13.429688 L 9 16 A 1.0001 1.0001 0 0 0 9 16.029297 C 9.013652 16.496251 8.7143702 16.900543 8.2636719 17.023438 L 2.7402344 18.378906 A 1 1 0 0 0 2.0078125 19.589844 A 1 1 0 0 0 3.2167969 20.322266 L 8.765625 18.958984 A 1.0001 1.0001 0 0 0 8.7910156 18.953125 C 10.122654 18.590058 11.040337 17.350371 11 15.970703 L 11 12.992188 L 13.5 12.445312 L 13.5 15.220703 C 13.500353 16.497159 14.74586 17.469059 15.984375 17.160156 L 20.226562 16.173828 A 1 1 0 0 0 20.974609 14.972656 A 1 1 0 0 0 19.773438 14.226562 L 15.515625 15.216797 A 1.0001 1.0001 0 0 0 15.5 15.21875 L 15.5 12.007812 L 20.212891 10.976562 A 1 1 0 0 0 20.976562 9.7871094 A 1 1 0 0 0 19.787109 9.0234375 L 15.5 9.9609375 L 15.5 4 A 1 1 0 0 0 14.5 3 A 1 1 0 0 0 13.5 4 L 13.5 10.398438 L 11 10.945312 L 11 2 A 1 1 0 0 0 10 1 z M 20.046875 18.501953 A 1 1 0 0 0 19.787109 18.523438 L 14.287109 19.722656 A 1 1 0 0 0 13.523438 20.914062 A 1 1 0 0 0 14.712891 21.677734 L 20.212891 20.476562 A 1 1 0 0 0 20.976562 19.287109 A 1 1 0 0 0 20.046875 18.501953 z "/>
</svg>
