<?xml version="1.0" encoding="UTF-8" standalone="no"?>
<svg xmlns="http://www.w3.org/2000/svg" xmlns:svg="http://www.w3.org/2000/svg" width="24" height="24" viewBox="0 0 24 24" fill="currentColor" tags="floppy disk,unsalvageable" categories="text,files">
  <path d="M 2 1 A 1 1 0 0 0 1.2929688 1.2929688 A 1 1 0 0 0 1.2929688 2.7070312 L 2.2988281 3.7128906 C 2.1082026 4.1104822 2.001893 4.547124 2 4.9960938 A 1.0001 1.0001 0 0 0 2 5 L 2 19 C 2 20.645006 3.3549936 22 5 22 L 19 22 A 1.0001 1.0001 0 0 0 19.003906 22 C 19.452876 21.998134 19.889518 21.891806 20.287109 21.701172 L 21.292969 22.707031 A 1 1 0 0 0 22.707031 22.707031 A 1 1 0 0 0 22.707031 21.292969 L 21.115234 19.701172 A 1 1 0 0 0 21.113281 19.699219 L 17.732422 16.320312 A 1 1 0 0 0 17.679688 16.267578 L 13.742188 12.330078 A 1 1 0 0 0 13.669922 12.257812 L 2.7070312 1.2929688 A 1 1 0 0 0 2 1 z M 9 2 A 1 1 0 0 0 8 3 A 1 1 0 0 0 9 4 L 15.185547 4 C 15.44969 4.00376 15.701826 4.1121 15.886719 4.3007812 A 1.0001 1.0001 0 0 0 15.892578 4.3066406 L 19.693359 8.1074219 A 1.0001 1.0001 0 0 0 19.699219 8.1132812 C 19.887819 8.2981721 19.996238 8.5503101 20 8.8144531 L 20 15 A 1 1 0 0 0 21 16 A 1 1 0 0 0 22 15 L 22 8.8007812 A 1.0001 1.0001 0 0 0 22 8.7988281 A 1.0001 1.0001 0 0 0 22 8.796875 A 1.0001 1.0001 0 0 0 22 8.7949219 A 1.0001 1.0001 0 0 0 22 8.7929688 A 1.0001 1.0001 0 0 0 22 8.7910156 A 1.0001 1.0001 0 0 0 22 8.7890625 A 1.0001 1.0001 0 0 0 22 8.7871094 A 1.0001 1.0001 0 0 0 22 8.7851562 C 21.988734 7.9942242 21.664584 7.2391751 21.099609 6.6855469 L 17.314453 2.9003906 C 16.760825 2.3354163 16.005775 2.0112658 15.214844 2 A 1.0001 1.0001 0 0 0 15.199219 2 L 9 2 z M 4 5.4140625 L 10.585938 12 L 8 12 C 6.9072773 12 6 12.907277 6 14 L 6 20 L 5 20 C 4.4358718 20 4 19.564128 4 19 L 4 5.4140625 z M 14 7 A 1 1 0 0 0 13 8 A 1 1 0 0 0 14 9 L 15 9 A 1 1 0 0 0 16 8 A 1 1 0 0 0 15 7 L 14 7 z M 29.5 10.5 A 1 1 0 0 0 28.792969 10.792969 A 1 1 0 0 0 28.792969 12.207031 C 28.792969 12.207031 30.030501 13.447301 31.130859 14.669922 C 31.681039 15.281232 32.201707 15.897528 32.478516 16.292969 C 32.528646 16.364579 32.512149 16.339889 32.542969 16.394531 A 1 1 0 0 0 32.5 16.5 A 1 1 0 0 0 33.5 17.5 C 33.770833 17.5 34.30455 17.308868 34.513672 16.890625 C 34.722793 16.472382 34.627927 16.183571 34.572266 15.998047 C 34.460951 15.626998 34.304955 15.415561 34.115234 15.144531 C 33.735794 14.602473 33.193959 13.968765 32.619141 13.330078 C 31.469503 12.052703 30.207031 10.792969 30.207031 10.792969 A 1 1 0 0 0 29.5 10.5 z M 8 14 L 12.585938 14 L 16 17.414062 L 16 20 L 8 20 L 8 14 z M 18 19.414062 L 18.585938 20 L 18 20 L 18 19.414062 z "/>
</svg>
