<?xml version="1.0" encoding="UTF-8" standalone="no"?>
<svg xmlns="http://www.w3.org/2000/svg" xmlns:svg="http://www.w3.org/2000/svg" width="24" height="24" viewBox="0 0 24 24" fill="currentColor" tags="floppy disks,copy" categories="text,files">
  <path d="M 8 1 C 6.3549904 1 5 2.3549904 5 4 L 5 16 C 5 17.64501 6.3549904 19 8 19 L 10 19 L 18 19 L 19.984375 19 C 21.635053 19.008253 23.000021 17.650699 23 16 L 23 6.828125 C 22.99983 6.0329246 22.68347 5.2692379 22.121094 4.7070312 L 19.292969 1.8789062 C 18.730762 1.3165297 17.967075 1.0001698 17.171875 1 L 10 1 L 8 1 z M 8 3 L 9 3 L 9 5 C 9 6.0927249 9.9072751 7 11 7 L 16 7 A 1 1 0 0 0 17 6 A 1 1 0 0 0 16 5 L 11 5 L 11 3 L 17.171875 3 C 17.437454 3.0000567 17.691142 3.1051478 17.878906 3.2929688 L 20.707031 6.1210938 C 20.894852 6.308858 20.999943 6.5625462 21 6.828125 L 21 16 C 21.000007 16.566274 20.560408 17.002831 19.994141 17 A 1.0001 1.0001 0 0 0 19.990234 17 L 19 17 L 19 12 C 19 10.907275 18.092725 10 17 10 L 11 10 C 9.9072751 10 9 10.907275 9 12 L 9 17 L 8 17 C 7.4358706 17 7 16.564129 7 16 L 7 4 C 7 3.4358706 7.4358706 3 8 3 z M 2 5 A 1 1 0 0 0 1 6 L 1 20 C 1 21.64501 2.3549904 23 4 23 L 18 23 A 1 1 0 0 0 19 22 A 1 1 0 0 0 18 21 L 4 21 C 3.4358706 21 3 20.564129 3 20 L 3 6 A 1 1 0 0 0 2 5 z M 11 12 L 17 12 L 17 17 L 11 17 L 11 12 z "/>
</svg>
