<svg xmlns="http://www.w3.org/2000/svg" xmlns:svg="http://www.w3.org/2000/svg" width="24" height="24" viewBox="0 0 24 24" fill="currentColor" tags="floppy disk" categories="text,files">
  <path d="M 5 2 C 3.3549904 2 2 3.3549904 2 5 L 2 19 C 2 20.64501 3.3549904 22 5 22 L 19 22 C 20.64501 22 22 20.64501 22 19 L 22 8.8007812 A 1.0001 1.0001 0 0 0 22 8.7851562 C 21.988734 7.9942226 21.664585 7.2391763 21.099609 6.6855469 L 17.314453 2.9003906 C 16.760824 2.3354152 16.005777 2.0112658 15.214844 2 A 1.0001 1.0001 0 0 0 15.199219 2 L 7 2 L 5 2 z M 5 4 L 6 4 L 6 7 C 6 8.0927249 6.9072751 9 8 9 L 15 9 A 1 1 0 0 0 16 8 A 1 1 0 0 0 15 7 L 8 7 L 8 4 L 15.185547 4 C 15.44969 4.00376 15.701826 4.1120996 15.886719 4.3007812 A 1.0001 1.0001 0 0 0 15.892578 4.3066406 L 19.693359 8.1074219 A 1.0001 1.0001 0 0 0 19.699219 8.1132812 C 19.887819 8.2981724 19.996238 8.5503096 20 8.8144531 L 20 19 C 20 19.564129 19.564129 20 19 20 L 18 20 L 18 14 C 18 12.907275 17.092725 12 16 12 L 8 12 C 6.9072751 12 6 12.907275 6 14 L 6 20 L 5 20 C 4.4358706 20 4 19.564129 4 19 L 4 5 C 4 4.4358706 4.4358706 4 5 4 z M 8 14 L 16 14 L 16 20 L 8 20 L 8 14 z "/>
</svg>
