<?xml version="1.0" encoding="UTF-8" standalone="no"?>
<svg xmlns="http://www.w3.org/2000/svg" xmlns:svg="http://www.w3.org/2000/svg" width="24" height="24" viewBox="0 0 24 24" fill="currentColor" tags="floppy disks,copy" categories="text,files">
  <path d="M 8 1 C 6.3549936 1 5 2.3549936 5 4 L 5 16 C 5 17.645006 6.3549936 19 8 19 L 10 19 L 18 19 L 19.984375 19 C 21.635049 19.008253 23.000021 17.650695 23 16 L 23 6.828125 C 22.99983 6.0329262 22.683469 5.2692369 22.121094 4.7070312 L 19.292969 1.8789062 C 18.730763 1.3165309 17.967074 1.0001698 17.171875 1 L 10 1 L 8 1 z M 8 3 L 9 3 L 9 5 C 9 6.0927227 9.9072773 7 11 7 L 16 7 A 1 1 0 0 0 17 6 A 1 1 0 0 0 16 5 L 11 5 L 11 3 L 17.171875 3 C 17.437454 3.0000567 17.691142 3.1051481 17.878906 3.2929688 L 20.707031 6.1210938 C 20.894852 6.3088577 20.999943 6.5625467 21 6.828125 L 21 16 C 21.000007 16.566273 20.560406 17.002831 19.994141 17 A 1.0001 1.0001 0 0 0 19.990234 17 L 19 17 L 19 12 C 19 10.907277 18.092723 10 17 10 L 11 10 C 9.9072773 10 9 10.907277 9 12 L 9 17 L 8 17 C 7.4358718 17 7 16.564128 7 16 L 7 4 C 7 3.4358718 7.4358718 3 8 3 z M 2 5 A 1 1 0 0 0 1 6 L 1 20 C 1 21.645006 2.3549936 23 4 23 L 18 23 A 1 1 0 0 0 19 22 A 1 1 0 0 0 18 21 L 4 21 C 3.4358718 21 3 20.564128 3 20 L 3 6 A 1 1 0 0 0 2 5 z M 11 12 L 17 12 L 17 17 L 11 17 L 11 12 z "/>
</svg>
