<?xml version="1.0" encoding="UTF-8" standalone="no"?>
<svg xmlns="http://www.w3.org/2000/svg" xmlns:svg="http://www.w3.org/2000/svg" width="24" height="24" viewBox="0 0 24 24" fill="currentColor" tags="floppy disk" categories="text,files">
  <path d="M 5 2 C 3.3549936 2 2 3.3549936 2 5 L 2 19 C 2 20.645006 3.3549936 22 5 22 L 19 22 C 20.645006 22 22 20.645006 22 19 L 22 8.8007812 A 1.0001 1.0001 0 0 0 22 8.7988281 A 1.0001 1.0001 0 0 0 22 8.796875 A 1.0001 1.0001 0 0 0 22 8.7949219 A 1.0001 1.0001 0 0 0 22 8.7929688 A 1.0001 1.0001 0 0 0 22 8.7910156 A 1.0001 1.0001 0 0 0 22 8.7890625 A 1.0001 1.0001 0 0 0 22 8.7871094 A 1.0001 1.0001 0 0 0 22 8.7851562 C 21.988734 7.9942242 21.664584 7.2391751 21.099609 6.6855469 L 17.314453 2.9003906 C 16.760825 2.3354163 16.005775 2.0112658 15.214844 2 A 1.0001 1.0001 0 0 0 15.199219 2 L 7 2 L 5 2 z M 5 4 L 6 4 L 6 7 C 6 8.0927227 6.9072773 9 8 9 L 15 9 A 1 1 0 0 0 16 8 A 1 1 0 0 0 15 7 L 8 7 L 8 4 L 15.185547 4 C 15.44969 4.00376 15.701826 4.1121 15.886719 4.3007812 A 1.0001 1.0001 0 0 0 15.892578 4.3066406 L 19.693359 8.1074219 A 1.0001 1.0001 0 0 0 19.699219 8.1132812 C 19.887819 8.2981721 19.996238 8.5503101 20 8.8144531 L 20 19 C 20 19.564128 19.564128 20 19 20 L 18 20 L 18 14 C 18 12.907277 17.092723 12 16 12 L 8 12 C 6.9072773 12 6 12.907277 6 14 L 6 20 L 5 20 C 4.4358718 20 4 19.564128 4 19 L 4 5 C 4 4.4358718 4.4358718 4 5 4 z M 8 14 L 16 14 L 16 20 L 8 20 L 8 14 z "/>
</svg>
