<svg xmlns="http://www.w3.org/2000/svg" xmlns:svg="http://www.w3.org/2000/svg" width="24" height="24" viewBox="0 0 24 24" fill="currentColor" tags="floppy disk,unsalvageable" categories="text,files">
  <path d="M 2 1 A 1 1 0 0 0 1.2929688 1.2929688 A 1 1 0 0 0 1.2929688 2.7070312 L 2.2949219 3.7089844 C 2.103929 4.106892 2.0018948 4.5466736 2 4.9960938 A 1.0001 1.0001 0 0 0 2 5 L 2 19 C 2 20.64501 3.3549904 22 5 22 L 19 22 A 1.0001 1.0001 0 0 0 19.003906 22 C 19.453332 21.998132 19.893104 21.896084 20.291016 21.705078 L 21.292969 22.707031 A 1 1 0 0 0 22.707031 22.707031 A 1 1 0 0 0 22.707031 21.292969 L 21.119141 19.705078 A 1 1 0 0 0 21.115234 19.701172 L 17.716797 16.302734 A 1 1 0 0 0 17.697266 16.283203 L 13.716797 12.302734 A 1 1 0 0 0 13.697266 12.283203 L 4.2988281 2.8847656 A 1 1 0 0 0 4.2949219 2.8808594 L 2.7070312 1.2929688 A 1 1 0 0 0 2 1 z M 9 2 A 1 1 0 0 0 8 3 A 1 1 0 0 0 9 4 L 15.185547 4 C 15.44969 4.00376 15.701826 4.1120996 15.886719 4.3007812 A 1.0001 1.0001 0 0 0 15.892578 4.3066406 L 19.693359 8.1074219 A 1.0001 1.0001 0 0 0 19.699219 8.1132812 C 19.887819 8.2981724 19.996238 8.5503096 20 8.8144531 L 20 15 A 1 1 0 0 0 21 16 A 1 1 0 0 0 22 15 L 22 8.8007812 A 1.0001 1.0001 0 0 0 22 8.7851562 C 21.988734 7.9942226 21.664585 7.2391763 21.099609 6.6855469 L 17.314453 2.9003906 C 16.760824 2.3354152 16.005777 2.0112658 15.214844 2 A 1.0001 1.0001 0 0 0 15.199219 2 L 9 2 z M 4 5.4140625 L 10.585938 12 L 8 12 C 6.9072751 12 6 12.907275 6 14 L 6 20 L 5 20 C 4.4358706 20 4 19.564129 4 19 L 4 5.4140625 z M 14 7 A 1 1 0 0 0 13 8 A 1 1 0 0 0 14 9 L 15 9 A 1 1 0 0 0 16 8 A 1 1 0 0 0 15 7 L 14 7 z M 29.5 10.5 A 1 1 0 0 0 28.792969 10.792969 A 1 1 0 0 0 28.792969 12.207031 C 28.792969 12.207031 30.030499 13.447299 31.130859 14.669922 C 31.68104 15.281233 32.201707 15.897528 32.478516 16.292969 C 32.547376 16.391339 32.537009 16.373999 32.568359 16.431641 A 1 1 0 0 0 32.5 16.5 A 1 1 0 0 0 33.5 17.5 C 33.770833 17.5 34.30455 17.308868 34.513672 16.890625 C 34.722794 16.472382 34.627927 16.183572 34.572266 15.998047 C 34.460951 15.626998 34.304955 15.415561 34.115234 15.144531 C 33.735793 14.602472 33.19396 13.968767 32.619141 13.330078 C 31.469501 12.052701 30.207031 10.792969 30.207031 10.792969 A 1 1 0 0 0 29.5 10.5 z M 8 14 L 12.585938 14 L 16 17.414062 L 16 20 L 8 20 L 8 14 z M 33.5 15.5 A 1 1 0 0 0 32.6875 16.3125 C 32.6799 16.2164 32.629859 16.185596 32.724609 15.996094 C 32.897109 15.651093 33.354167 15.5 33.5 15.5 z M 18 19.414062 L 18.585938 20 L 18 20 L 18 19.414062 z "/>
</svg>
