<?xml version="1.0" encoding="UTF-8" standalone="no"?>
<svg xmlns="http://www.w3.org/2000/svg" xmlns:svg="http://www.w3.org/2000/svg" width="24" height="24" viewBox="0 0 24 24" fill="currentColor" tags="scale,resize,design" categories="design">
  <path d="M 5 2 C 3.3549904 2 2 3.3549904 2 5 L 2 19 C 2 20.64501 3.3549904 22 5 22 L 19 22 C 20.64501 22 22 20.64501 22 19 L 22 12 A 1 1 0 0 0 21 11 A 1 1 0 0 0 20 12 L 20 19 C 20 19.564129 19.564129 20 19 20 L 5 20 C 4.4358706 20 4 19.564129 4 19 L 4 5 C 4 4.4358706 4.4358706 4 5 4 L 12 4 A 1 1 0 0 0 13 3 A 1 1 0 0 0 12 2 L 5 2 z M 16 2 A 1 1 0 0 0 15 3 A 1 1 0 0 0 16 4 L 18.585938 4 L 10 12.585938 L 10 10 A 1 1 0 0 0 9 9 A 1 1 0 0 0 8 10 L 8 15 A 1.0001 1.0001 0 0 0 8.0078125 15.130859 A 1.0001 1.0001 0 0 0 8.0761719 15.382812 A 1.0001 1.0001 0 0 0 8.6171875 15.923828 A 1.0001 1.0001 0 0 0 8.8691406 15.992188 A 1.0001 1.0001 0 0 0 9 16 L 14 16 A 1 1 0 0 0 15 15 A 1 1 0 0 0 14 14 L 11.414062 14 L 20 5.4140625 L 20 8 A 1 1 0 0 0 21 9 A 1 1 0 0 0 22 8 L 22 3 A 1.0001 1.0001 0 0 0 21.992188 2.8691406 A 1.0001 1.0001 0 0 0 21.923828 2.6171875 A 1.0001 1.0001 0 0 0 21.707031 2.2929688 A 1 1 0 0 0 21.382812 2.0761719 A 1.0001 1.0001 0 0 0 21.130859 2.0078125 A 1.0001 1.0001 0 0 0 21 2 L 16 2 z "/>
</svg>
