<?xml version="1.0" encoding="UTF-8" standalone="no"?>
<svg xmlns="http://www.w3.org/2000/svg" xmlns:svg="http://www.w3.org/2000/svg" width="24" height="24" viewBox="0 0 24 24" fill="currentColor" tags="gizmo,transform,size,axis" categories="design">
  <path d="M 5 2 C 3.3549936 2 2 3.3549936 2 5 C 2 6.2953565 2.8396128 7.4104792 4 7.8261719 L 4 19 A 1 1 0 0 0 4.0664062 19.333984 A 1.0001 1.0001 0 0 0 4.1035156 19.423828 A 1 1 0 0 0 4.2929688 19.707031 A 1 1 0 0 0 4.5761719 19.896484 A 1.0001 1.0001 0 0 0 4.6660156 19.933594 A 1 1 0 0 0 5 20 L 16.173828 20 C 16.589521 21.160387 17.704644 22 19 22 C 20.645006 22 22 20.645006 22 19 C 22 17.354994 20.645006 16 19 16 C 17.704644 16 16.589521 16.839613 16.173828 18 L 7.4140625 18 L 11.707031 13.707031 A 1 1 0 0 0 11.707031 12.292969 A 1 1 0 0 0 11 12 A 1 1 0 0 0 10.292969 12.292969 L 6 16.585938 L 6 7.8261719 C 7.1603872 7.4104792 8 6.2953565 8 5 C 8 3.3549936 6.6450064 2 5 2 z M 5 4 C 5.5641282 4 6 4.4358718 6 5 C 6 5.5641282 5.5641282 6 5 6 C 4.4358718 6 4 5.5641282 4 5 C 4 4.4358718 4.4358718 4 5 4 z M 19 18 C 19.564128 18 20 18.435872 20 19 C 20 19.564128 19.564128 20 19 20 C 18.435872 20 18 19.564128 18 19 C 18 18.435872 18.435872 18 19 18 z "/>
</svg>
