<?xml version="1.0" encoding="UTF-8" standalone="no"?>
<svg xmlns="http://www.w3.org/2000/svg" xmlns:svg="http://www.w3.org/2000/svg" width="24" height="24" viewBox="0 0 24 24" fill="currentColor" tags="balance,legal,license,right,rule,law" categories="navigation">
  <path d="M 12 2 A 1 1 0 0 0 11 3 L 11 4.3671875 C 9.1238283 5.2146976 6.5114496 6 5 6 L 3 6 A 1 1 0 0 0 2 7 A 1 1 0 0 0 3 8 L 3.9335938 8 L 1.0644531 15.648438 A 1.0001 1.0001 0 0 0 1.4023438 16.800781 C 2.443514 17.578667 3.7039506 18 5 18 C 6.2960494 18 7.556486 17.578667 8.5976562 16.800781 A 1.0001 1.0001 0 0 0 8.9355469 15.648438 L 6.0429688 7.9375 C 7.6553134 7.7521253 9.4385176 7.1817428 11 6.5214844 L 11 20 L 7 20 A 1 1 0 0 0 6 21 A 1 1 0 0 0 7 22 L 17 22 A 1 1 0 0 0 18 21 A 1 1 0 0 0 17 20 L 13 20 L 13 6.5214844 C 14.561482 7.1817428 16.344687 7.7521253 17.957031 7.9375 L 15.064453 15.648438 A 1.0001 1.0001 0 0 0 15.402344 16.800781 C 16.443514 17.578667 17.703951 18 19 18 C 20.296049 18 21.556486 17.578667 22.597656 16.800781 A 1.0001 1.0001 0 0 0 22.935547 15.648438 L 20.066406 8 L 21 8 A 1 1 0 0 0 22 7 A 1 1 0 0 0 21 6 L 19 6 C 17.48855 6 14.876172 5.2146976 13 4.3671875 L 13 3 A 1 1 0 0 0 12 2 z M 5 10.845703 L 6.71875 15.427734 C 6.1685157 15.70015 5.6180408 16 5 16 C 4.3819592 16 3.8314843 15.70015 3.28125 15.427734 L 5 10.845703 z M 19 10.845703 L 20.71875 15.427734 C 20.168516 15.70015 19.618041 16 19 16 C 18.381959 16 17.831484 15.70015 17.28125 15.427734 L 19 10.845703 z "/>
</svg>
