<svg xmlns="http://www.w3.org/2000/svg" xmlns:svg="http://www.w3.org/2000/svg" width="24" height="24" viewBox="0 0 24 24" fill="currentColor" tags="balance,legal,license,right,rule,law,justice,weight,measure,compare,judge,fair,ethics,decision" categories="navigation,science,finance">
  <path d="M 12 2 A 1 1 0 0 0 11 3 L 11 4.3867188 C 8.8213598 5.4468024 6.4280296 6 4 6 L 3 6 A 1 1 0 0 0 2 7 A 1 1 0 0 0 3 8 L 3.9335938 8 L 1.0644531 15.648438 A 1.0001 1.0001 0 0 0 1.4003906 16.800781 C 3.5301684 18.398115 6.4698316 18.398115 8.5996094 16.800781 A 1.0001 1.0001 0 0 0 8.9355469 15.648438 L 6.0214844 7.8789062 C 7.7351858 7.6727967 9.4091893 7.2093174 11 6.5273438 L 11 20 L 7 20 A 1 1 0 0 0 6 21 A 1 1 0 0 0 7 22 L 12 22 L 17 22 A 1 1 0 0 0 18 21 A 1 1 0 0 0 17 20 L 13 20 L 13 6.5273438 C 14.590811 7.2093174 16.264814 7.6727967 17.978516 7.8789062 L 15.064453 15.648438 A 1.0001 1.0001 0 0 0 15.400391 16.800781 C 17.530168 18.398115 20.469832 18.398115 22.599609 16.800781 A 1.0001 1.0001 0 0 0 22.935547 15.648438 L 20.066406 8 L 21 8 A 1 1 0 0 0 22 7 A 1 1 0 0 0 21 6 L 20 6 C 17.57197 6 15.17864 5.4468024 13 4.3867188 L 13 3 A 1 1 0 0 0 12 2 z M 5 10.845703 L 6.71875 15.427734 C 5.6067569 15.975871 4.3932431 15.975871 3.28125 15.427734 L 5 10.845703 z M 19 10.845703 L 20.71875 15.427734 C 19.606757 15.975871 18.393243 15.975871 17.28125 15.427734 L 19 10.845703 z "/>
</svg>
