<svg xmlns="http://www.w3.org/2000/svg" xmlns:svg="http://www.w3.org/2000/svg" width="24" height="24" viewBox="0 0 24 24" fill="currentColor" tags="gizmo,transform,size,axis" categories="design">
  <path d="M 5 2 C 3.3549904 2 2 3.3549904 2 5 C 2 6.2951421 2.8399128 7.4103144 4 7.8261719 L 4 18 C 4 18.492131 4.1842151 18.945914 4.4863281 19.296875 A 1 1 0 0 0 4.5859375 19.414062 A 1 1 0 0 0 4.703125 19.513672 C 5.0540864 19.815785 5.5078685 20 6 20 L 16.173828 20 C 16.589685 21.160087 17.704857 22 19 22 C 20.64501 22 22 20.64501 22 19 C 22 17.35499 20.64501 16 19 16 C 17.704857 16 16.589685 16.839913 16.173828 18 L 7.4140625 18 L 11.707031 13.707031 A 1 1 0 0 0 11.707031 12.292969 A 1 1 0 0 0 11 12 A 1 1 0 0 0 10.292969 12.292969 L 6 16.585938 L 6 7.8261719 C 7.1600872 7.4103144 8 6.2951421 8 5 C 8 3.3549904 6.6450096 2 5 2 z M 5 4 C 5.5641294 4 6 4.4358706 6 5 C 6 5.5641294 5.5641294 6 5 6 C 4.4358706 6 4 5.5641294 4 5 C 4 4.4358706 4.4358706 4 5 4 z M 19 18 C 19.564129 18 20 18.435871 20 19 C 20 19.564129 19.564129 20 19 20 C 18.435873 20 18.000003 19.564126 18 19 C 18 18.435871 18.435871 18 19 18 z "/>
</svg>
