<?xml version="1.0" encoding="UTF-8" standalone="no"?>
<svg xmlns="http://www.w3.org/2000/svg" xmlns:svg="http://www.w3.org/2000/svg" width="24" height="24" viewBox="0 0 24 24" fill="currentColor" tags="health,heart rate,pulse,monitoring,healthiness,screening,dashed" categories="medical">
  <path d="M 5 2 C 3.3549904 2 2 3.3549904 2 5 L 2 7 A 1 1 0 0 0 3 8 A 1 1 0 0 0 4 7 L 4 5 C 4 4.4358706 4.4358706 4 5 4 L 7 4 A 1 1 0 0 0 8 3 A 1 1 0 0 0 7 2 L 5 2 z M 17 2 A 1 1 0 0 0 16 3 A 1 1 0 0 0 17 4 L 19 4 C 19.564129 4 20 4.4358706 20 5 L 20 7 A 1 1 0 0 0 21 8 A 1 1 0 0 0 22 7 L 22 5 C 22 3.3549904 20.64501 2 19 2 L 17 2 z M 9.7441406 6.953125 C 8.8885886 6.9726817 8.0862449 7.2974815 7.4414062 7.8027344 C 6.7044478 8.3801662 6.1455928 9.2119535 5.9863281 10.195312 C 5.8270634 11.17867 6.122611 12.291277 6.9199219 13.210938 A 1.0001 1.0001 0 0 0 6.921875 13.212891 L 10.492188 17.314453 C 11.277593 18.215989 12.722406 18.215989 13.507812 17.314453 L 17.078125 13.212891 A 1.0001 1.0001 0 0 0 17.080078 13.210938 C 17.877389 12.291277 18.172937 11.178671 18.013672 10.195312 C 17.854363 9.2119535 17.295552 8.3801662 16.558594 7.8027344 C 15.821635 7.2253025 14.879626 6.8822974 13.886719 6.9628906 C 13.220066 7.0170022 12.583508 7.3614929 12 7.8320312 C 11.416492 7.3614929 10.779934 7.0170022 10.113281 6.9628906 C 9.9891679 6.9528165 9.8663623 6.9503312 9.7441406 6.953125 z M 9.7910156 8.953125 C 9.8450087 8.95157 9.8985886 8.9527631 9.9511719 8.9570312 C 10.371838 8.9911763 10.774245 9.1646185 11.183594 9.7441406 A 1.0001 1.0001 0 0 0 12.816406 9.7441406 C 13.225755 9.1646185 13.628162 8.9911762 14.048828 8.9570312 C 14.469494 8.9228862 14.944504 9.0779033 15.326172 9.3769531 C 15.70784 9.6760029 15.971588 10.099004 16.039062 10.515625 C 16.106542 10.932246 16.033162 11.364296 15.568359 11.900391 L 12 16 L 8.4316406 11.900391 L 8.4296875 11.898438 C 7.9670218 11.363647 7.893576 10.93154 7.9609375 10.515625 C 8.0284133 10.099004 8.2921601 9.6760029 8.6738281 9.3769531 C 9.0077877 9.1152846 9.4130644 8.9640103 9.7910156 8.953125 z M 3 16 A 1 1 0 0 0 2 17 L 2 19 C 2 20.64501 3.3549904 22 5 22 L 7 22 A 1 1 0 0 0 8 21 A 1 1 0 0 0 7 20 L 5 20 C 4.4358706 20 4 19.564129 4 19 L 4 17 A 1 1 0 0 0 3 16 z M 21 16 A 1 1 0 0 0 20 17 L 20 19 C 20 19.564129 19.564129 20 19 20 L 17 20 A 1 1 0 0 0 16 21 A 1 1 0 0 0 17 22 L 19 22 C 20.64501 22 22 20.64501 22 19 L 22 17 A 1 1 0 0 0 21 16 z "/>
</svg>
