<svg xmlns="http://www.w3.org/2000/svg" xmlns:svg="http://www.w3.org/2000/svg" width="24" height="24" viewBox="0 0 24 24" fill="currentColor" tags="health,heart rate,pulse,monitoring,healthiness,screening,dashed" categories="medical">
  <path d="M 5 2 C 3.3549904 2 2 3.3549904 2 5 L 2 7 A 1 1 0 0 0 3 8 A 1 1 0 0 0 4 7 L 4 5 C 4 4.4358706 4.4358706 4 5 4 L 7 4 A 1 1 0 0 0 8 3 A 1 1 0 0 0 7 2 L 5 2 z M 17 2 A 1 1 0 0 0 16 3 A 1 1 0 0 0 17 4 L 19 4 C 19.564129 4 20 4.4358706 20 5 L 20 7 A 1 1 0 0 0 21 8 A 1 1 0 0 0 22 7 L 22 5 C 22 3.3549904 20.64501 2 19 2 L 17 2 z M 9.9667969 6.9550781 C 9.869595 6.953395 9.7721511 6.9561987 9.6757812 6.9648438 C 8.6760811 7.0545243 7.7842969 7.530402 7.1230469 8.2128906 C 6.4617969 8.8953792 6.0150732 9.8026521 5.9570312 10.804688 C 5.8989892 11.806722 6.2699917 12.887782 7.1054688 13.761719 L 10.552734 17.378906 C 11.33173 18.196105 12.670863 18.197039 13.449219 17.378906 L 16.894531 13.761719 L 16.896484 13.759766 C 17.730561 12.886195 18.100964 11.805925 18.042969 10.804688 C 17.98488 9.8026991 17.538203 8.8953792 16.876953 8.2128906 C 16.215703 7.530402 15.323919 7.0545242 14.324219 6.9648438 C 13.55326 6.895683 12.750406 7.1665552 12 7.625 C 11.343395 7.2238608 10.64721 6.9668603 9.9667969 6.9550781 z M 10.03125 8.9492188 C 10.442569 8.9496406 10.865859 9.0895387 11.332031 9.5078125 A 1.0001 1.0001 0 0 0 12.667969 9.5078125 C 13.200737 9.0297855 13.677698 8.9151529 14.144531 8.9570312 C 14.611364 8.9989093 15.083345 9.2379232 15.439453 9.6054688 C 15.795561 9.9730142 16.019771 10.451999 16.046875 10.919922 C 16.073975 11.387845 15.943844 11.861512 15.449219 12.378906 A 1.0001 1.0001 0 0 0 15.447266 12.380859 L 12 16 L 8.5527344 12.380859 A 1.0001 1.0001 0 0 0 8.5507812 12.378906 C 8.0561527 11.861559 7.926021 11.387845 7.953125 10.919922 C 7.980229 10.451999 8.2044392 9.9730142 8.5605469 9.6054688 C 8.9166545 9.2379232 9.3886358 8.9989095 9.8554688 8.9570312 C 9.9138229 8.9517965 9.9724901 8.9491585 10.03125 8.9492188 z M 3 16 A 1 1 0 0 0 2 17 L 2 19 C 2 20.64501 3.3549904 22 5 22 L 7 22 A 1 1 0 0 0 8 21 A 1 1 0 0 0 7 20 L 5 20 C 4.4358706 20 4 19.564129 4 19 L 4 17 A 1 1 0 0 0 3 16 z M 21 16 A 1 1 0 0 0 20 17 L 20 19 C 20 19.564129 19.564129 20 19 20 L 17 20 A 1 1 0 0 0 16 21 A 1 1 0 0 0 17 22 L 19 22 C 20.64501 22 22 20.64501 22 19 L 22 17 A 1 1 0 0 0 21 16 z "/>
</svg>
