<?xml version="1.0" encoding="UTF-8" standalone="no"?>
<svg xmlns="http://www.w3.org/2000/svg" xmlns:svg="http://www.w3.org/2000/svg" width="24" height="24" viewBox="0 0 24 24" fill="currentColor" tags="preview,zoom,expand,fullscreen,gallery,image,camera,watch,surveillance,retina,focus,lens,biometric,identification,authentication,access,login" categories="photography,multimedia,layout,accessibility,security,devices,account">
  <path d="M 5 2 C 3.3549936 2 2 3.3549936 2 5 L 2 7 A 1 1 0 0 0 3 8 A 1 1 0 0 0 4 7 L 4 5 C 4 4.4358718 4.4358718 4 5 4 L 7 4 A 1 1 0 0 0 8 3 A 1 1 0 0 0 7 2 L 5 2 z M 17 2 A 1 1 0 0 0 16 3 A 1 1 0 0 0 17 4 L 19 4 C 19.564128 4 20 4.4358718 20 5 L 20 7 A 1 1 0 0 0 21 8 A 1 1 0 0 0 22 7 L 22 5 C 22 3.3549936 20.645006 2 19 2 L 17 2 z M 12 6.0039062 C 8.7972958 6.0039062 5.5532553 7.8075969 4.1308594 11.292969 A 1.0001 1.0001 0 0 0 4.1113281 11.339844 C 3.9620029 11.766995 3.9620029 12.233005 4.1113281 12.660156 A 1.0001 1.0001 0 0 0 4.1308594 12.707031 C 5.5532553 16.192413 8.7972958 17.996094 12 17.996094 C 15.202704 17.996094 18.446744 16.192403 19.869141 12.707031 A 1 1 0 0 0 19.873047 12.677734 A 1 1 0 0 0 19.888672 12.660156 C 19.900382 12.626666 19.878772 12.590566 19.888672 12.556641 A 1 1 0 0 0 19.888672 12.082031 C 19.899102 11.831252 19.972612 11.579959 19.888672 11.339844 A 1.0001 1.0001 0 0 0 19.869141 11.292969 C 18.446744 7.8075969 15.202704 6.0039063 12 6.0039062 z M 12 8.0039062 C 14.455633 8.0039062 16.863923 9.3002829 17.990234 12 C 16.863923 14.699717 14.455633 15.996094 12 15.996094 C 9.5443676 15.996094 7.1360777 14.699717 6.0097656 12 C 7.1360777 9.3002829 9.5443676 8.0039062 12 8.0039062 z M 12 10 C 10.907277 10 10 10.907277 10 12 C 10 13.092723 10.907277 14 12 14 C 13.092723 14 14 13.092723 14 12 C 14 10.907277 13.092723 10 12 10 z M 3 16 A 1 1 0 0 0 2 17 L 2 19 C 2 20.645006 3.3549936 22 5 22 L 7 22 A 1 1 0 0 0 8 21 A 1 1 0 0 0 7 20 L 5 20 C 4.4358718 20 4 19.564128 4 19 L 4 17 A 1 1 0 0 0 3 16 z M 21 16 A 1 1 0 0 0 20 17 L 20 19 C 20 19.564128 19.564128 20 19 20 L 17 20 A 1 1 0 0 0 16 21 A 1 1 0 0 0 17 22 L 19 22 C 20.645006 22 22 20.645006 22 19 L 22 17 A 1 1 0 0 0 21 16 z "/>
</svg>
