<svg xmlns="http://www.w3.org/2000/svg" xmlns:svg="http://www.w3.org/2000/svg" width="24" height="24" viewBox="0 0 24 24" fill="currentColor" tags="preview,zoom,expand,fullscreen,gallery,image,camera,watch,surveillance,retina,focus,lens,biometric,identification,authentication,access,login" categories="photography,multimedia,accessibility,security,devices,account">
  <path d="M 5 2 C 3.3549904 2 2 3.3549904 2 5 L 2 7 A 1 1 0 0 0 3 8 A 1 1 0 0 0 4 7 L 4 5 C 4 4.4358706 4.4358706 4 5 4 L 7 4 A 1 1 0 0 0 8 3 A 1 1 0 0 0 7 2 L 5 2 z M 17 2 A 1 1 0 0 0 16 3 A 1 1 0 0 0 17 4 L 19 4 C 19.564129 4 20 4.4358706 20 5 L 20 7 A 1 1 0 0 0 21 8 A 1 1 0 0 0 22 7 L 22 5 C 22 3.3549904 20.64501 2 19 2 L 17 2 z M 12 6.0039062 C 8.7972894 6.0039062 5.5532581 7.8075901 4.1308594 11.292969 A 1.0001 1.0001 0 0 0 4.1113281 11.339844 C 3.9620025 11.766997 3.9620025 12.233003 4.1113281 12.660156 A 1.0001 1.0001 0 0 0 4.1308594 12.707031 C 5.5532581 16.19242 8.7972894 17.996094 12 17.996094 C 15.202711 17.996094 18.446742 16.19241 19.869141 12.707031 A 1 1 0 0 0 19.869141 12.681641 A 1 1 0 0 0 19.888672 12.660156 C 20.037997 12.233003 20.037997 11.766997 19.888672 11.339844 A 1.0001 1.0001 0 0 0 19.869141 11.292969 C 18.446742 7.80759 15.202711 6.0039064 12 6.0039062 z M 12 8.0039062 C 14.455637 8.0039062 16.86392 9.3002775 17.990234 12 C 16.86392 14.699722 14.455637 15.996094 12 15.996094 C 9.5443626 15.996094 7.13608 14.699722 6.0097656 12 C 7.13608 9.3002775 9.5443626 8.0039062 12 8.0039062 z M 12 10 C 10.907275 10 10 10.907275 10 12 C 10 13.092725 10.907275 14 12 14 C 13.092725 14 14 13.092725 14 12 C 14 10.907275 13.092725 10 12 10 z M 3 16 A 1 1 0 0 0 2 17 L 2 19 C 2 20.64501 3.3549904 22 5 22 L 7 22 A 1 1 0 0 0 8 21 A 1 1 0 0 0 7 20 L 5 20 C 4.4358706 20 4 19.564129 4 19 L 4 17 A 1 1 0 0 0 3 16 z M 21 16 A 1 1 0 0 0 20 17 L 20 19 C 20 19.564129 19.564129 20 19 20 L 17 20 A 1 1 0 0 0 16 21 A 1 1 0 0 0 17 22 L 19 22 C 20.64501 22 22 20.64501 22 19 L 22 17 A 1 1 0 0 0 21 16 z "/>
</svg>
