<?xml version="1.0" encoding="UTF-8" standalone="no"?>
<svg xmlns="http://www.w3.org/2000/svg" xmlns:svg="http://www.w3.org/2000/svg" width="24" height="24" viewBox="0 0 24 24" fill="currentColor" tags="preview,zoom,expand,fullscreen,gallery,image,camera,watch,surveillance,retina,focus,lens,biometric,identification,authentication,access,login" categories="photography,multimedia,layout,accessibility,security,devices,account">
  <path d="M 5 2 C 3.3549936 2 2 3.3549936 2 5 L 2 7 A 1 1 0 0 0 3 8 A 1 1 0 0 0 4 7 L 4 5 C 4 4.4358718 4.4358718 4 5 4 L 7 4 A 1 1 0 0 0 8 3 A 1 1 0 0 0 7 2 L 5 2 z M 17 2 A 1 1 0 0 0 16 3 A 1 1 0 0 0 17 4 L 19 4 C 19.564128 4 20 4.4358718 20 5 L 20 7 A 1 1 0 0 0 21 8 A 1 1 0 0 0 22 7 L 22 5 C 22 3.3549936 20.645006 2 19 2 L 17 2 z M 12 6 C 6.7592697 6 4.1054687 11.552734 4.1054688 11.552734 A 1 1 0 0 0 4.0996094 11.626953 A 1 1 0 0 0 4.0742188 12 A 1 1 0 0 0 4.0996094 12.373047 A 1 1 0 0 0 4.1054688 12.447266 C 4.1054678 12.447265 6.7592697 18 12 18 C 17.24073 18 19.894531 12.447266 19.894531 12.447266 A 1.0001 1.0001 0 0 0 19.894531 11.552734 C 19.894531 11.552734 17.24073 6 12 6 z M 12 8 C 15.381415 8 17.359627 11.276706 17.775391 12 C 17.359627 12.723294 15.381415 16 12 16 C 8.6185859 16 6.6403724 12.723294 6.2246094 12 C 6.6403724 11.276706 8.6185859 8 12 8 z M 12 10 C 10.907277 10 10 10.907277 10 12 C 10 13.092723 10.907277 14 12 14 C 13.092723 14 14 13.092723 14 12 C 14 10.907277 13.092723 10 12 10 z M 3 16 A 1 1 0 0 0 2 17 L 2 19 C 2 20.645006 3.3549936 22 5 22 L 7 22 A 1 1 0 0 0 8 21 A 1 1 0 0 0 7 20 L 5 20 C 4.4358718 20 4 19.564128 4 19 L 4 17 A 1 1 0 0 0 3 16 z M 21 16 A 1 1 0 0 0 20 17 L 20 19 C 20 19.564128 19.564128 20 19 20 L 17 20 A 1 1 0 0 0 16 21 A 1 1 0 0 0 17 22 L 19 22 C 20.645006 22 22 20.645006 22 19 L 22 17 A 1 1 0 0 0 21 16 z "/>
</svg>
