<?xml version="1.0" encoding="UTF-8" standalone="no"?>
<svg xmlns="http://www.w3.org/2000/svg" xmlns:svg="http://www.w3.org/2000/svg" width="24" height="24" viewBox="0 0 24 24" fill="currentColor" tags="face,biometric,identification,authentication,2fa,access,login,dashed" categories="account,security,devices,social">
  <path d="M 5 2 C 3.3549936 2 2 3.3549936 2 5 L 2 7 A 1 1 0 0 0 3 8 A 1 1 0 0 0 4 7 L 4 5 C 4 4.4358718 4.4358718 4 5 4 L 7 4 A 1 1 0 0 0 8 3 A 1 1 0 0 0 7 2 L 5 2 z M 17 2 A 1 1 0 0 0 16 3 A 1 1 0 0 0 17 4 L 19 4 C 19.564128 4 20 4.4358718 20 5 L 20 7 A 1 1 0 0 0 21 8 A 1 1 0 0 0 22 7 L 22 5 C 22 3.3549936 20.645006 2 19 2 L 17 2 z M 9 8 A 1 1 0 0 0 8 9 A 1 1 0 0 0 9 10 L 9.0097656 10 A 1 1 0 0 0 10.009766 9 A 1 1 0 0 0 9.0097656 8 L 9 8 z M 15 8 A 1 1 0 0 0 14 9 A 1 1 0 0 0 15 10 L 15.009766 10 A 1 1 0 0 0 16.009766 9 A 1 1 0 0 0 15.009766 8 L 15 8 z M 16.119141 13.005859 A 1 1 0 0 0 15.199219 13.400391 C 15.199219 13.400391 13.966663 15 12 15 C 10.033337 15 8.8007812 13.400391 8.8007812 13.400391 A 1 1 0 0 0 8.140625 13.009766 A 1 1 0 0 0 7.4003906 13.199219 A 1 1 0 0 0 7.1992188 14.599609 C 7.1992188 14.599609 8.9666727 17 12 17 C 15.033327 17 16.800781 14.599609 16.800781 14.599609 A 1 1 0 0 0 16.599609 13.199219 A 1 1 0 0 0 16.119141 13.005859 z M 3 16 A 1 1 0 0 0 2 17 L 2 19 C 2 20.645006 3.3549936 22 5 22 L 7 22 A 1 1 0 0 0 8 21 A 1 1 0 0 0 7 20 L 5 20 C 4.4358718 20 4 19.564128 4 19 L 4 17 A 1 1 0 0 0 3 16 z M 21 16 A 1 1 0 0 0 20 17 L 20 19 C 20 19.564128 19.564128 20 19 20 L 17 20 A 1 1 0 0 0 16 21 A 1 1 0 0 0 17 22 L 19 22 C 20.645006 22 22 20.645006 22 19 L 22 17 A 1 1 0 0 0 21 16 z "/>
</svg>
