<?xml version="1.0" encoding="UTF-8" standalone="no"?>
<svg xmlns="http://www.w3.org/2000/svg" xmlns:svg="http://www.w3.org/2000/svg" width="24" height="24" viewBox="0 0 24 24" fill="currentColor" tags="barcode,scan,qrcode,url,information,digital,scanner" categories="account,shopping,devices,security">
  <path d="M 5 2 C 3.3549904 2 2 3.3549904 2 5 L 2 7 A 1 1 0 0 0 3 8 A 1 1 0 0 0 4 7 L 4 5 C 4 4.4358706 4.4358706 4 5 4 L 7 4 A 1 1 0 0 0 8 3 A 1 1 0 0 0 7 2 L 5 2 z M 17 2 A 1 1 0 0 0 16 3 A 1 1 0 0 0 17 4 L 19 4 C 19.564129 4 20 4.4358706 20 5 L 20 7 A 1 1 0 0 0 21 8 A 1 1 0 0 0 22 7 L 22 5 C 22 3.3549904 20.64501 2 19 2 L 17 2 z M 8 6 C 6.9092972 6 6 6.9092972 6 8 L 6 11 C 6 12.090703 6.9092972 13 8 13 L 11 13 C 12.090703 13 13 12.090703 13 11 L 13 8 C 13 6.9092972 12.090703 6 11 6 L 8 6 z M 17 6 A 1 1 0 0 0 16 7 L 16 8 A 1 1 0 0 0 17 9 A 1 1 0 0 0 18 8 L 18 7 A 1 1 0 0 0 17 6 z M 8 8 L 11 8 L 11 11 L 8 11 L 8 8 z M 17 11 A 1 1 0 0 0 16 12 L 16 16 L 12 16 A 1 1 0 0 0 11 17 A 1 1 0 0 0 12 18 L 16 18 C 17.092725 18 18 17.092725 18 16 L 18 12 A 1 1 0 0 0 17 11 z M 3 16 A 1 1 0 0 0 2 17 L 2 19 C 2 20.64501 3.3549904 22 5 22 L 7 22 A 1 1 0 0 0 8 21 A 1 1 0 0 0 7 20 L 5 20 C 4.4358706 20 4 19.564129 4 19 L 4 17 A 1 1 0 0 0 3 16 z M 7 16 A 1 1 0 0 0 6 17 A 1 1 0 0 0 7 18 L 7.0097656 18 A 1 1 0 0 0 8.0097656 17 A 1 1 0 0 0 7.0097656 16 L 7 16 z M 21 16 A 1 1 0 0 0 20 17 L 20 19 C 20 19.564129 19.564129 20 19 20 L 17 20 A 1 1 0 0 0 16 21 A 1 1 0 0 0 17 22 L 19 22 C 20.64501 22 22 20.64501 22 19 L 22 17 A 1 1 0 0 0 21 16 z "/>
</svg>
