<?xml version="1.0" encoding="UTF-8" standalone="no"?>
<svg xmlns="http://www.w3.org/2000/svg" xmlns:svg="http://www.w3.org/2000/svg" width="24" height="24" viewBox="0 0 24 24" fill="currentColor" tags="qr-code,barcode,checkout,augmented reality,ar,target,surveillance,camera,lens,focus,frame,select,box,boundary,bounds,area,square,dashed" categories="devices,shopping,security,social,gaming">
  <path d="M 5 2 C 3.3549936 2 2 3.3549936 2 5 L 2 7 A 1 1 0 0 0 3 8 A 1 1 0 0 0 4 7 L 4 5 C 4 4.4358718 4.4358718 4 5 4 L 7 4 A 1 1 0 0 0 8 3 A 1 1 0 0 0 7 2 L 5 2 z M 17 2 A 1 1 0 0 0 16 3 A 1 1 0 0 0 17 4 L 19 4 C 19.564128 4 20 4.4358718 20 5 L 20 7 A 1 1 0 0 0 21 8 A 1 1 0 0 0 22 7 L 22 5 C 22 3.3549936 20.645006 2 19 2 L 17 2 z M 3 16 A 1 1 0 0 0 2 17 L 2 19 C 2 20.645006 3.3549936 22 5 22 L 7 22 A 1 1 0 0 0 8 21 A 1 1 0 0 0 7 20 L 5 20 C 4.4358718 20 4 19.564128 4 19 L 4 17 A 1 1 0 0 0 3 16 z M 21 16 A 1 1 0 0 0 20 17 L 20 19 C 20 19.564128 19.564128 20 19 20 L 17 20 A 1 1 0 0 0 16 21 A 1 1 0 0 0 17 22 L 19 22 C 20.645006 22 22 20.645006 22 19 L 22 17 A 1 1 0 0 0 21 16 z "/>
</svg>
