<svg xmlns="http://www.w3.org/2000/svg" xmlns:svg="http://www.w3.org/2000/svg" width="24" height="24" viewBox="0 0 24 24" fill="currentColor" tags="building,education,childhood,university,learning,campus,scholar,student,lecture,degree,course,academia,study,knowledge,classroom,research,diploma,graduation,professor,tutorial,homework,assignment,exam" categories="buildings,navigation">
  <path d="M 12 1 C 11.540362 1 11.079928 1.1056697 10.658203 1.3164062 A 1.0001 1.0001 0 0 0 10.634766 1.328125 L 3.5292969 5.1171875 A 1 1 0 0 0 3.1171875 6.4707031 A 1 1 0 0 0 4.4707031 6.8828125 L 5 6.5996094 L 5 10.439453 L 1.9609375 12.292969 C 1.3661039 12.655092 1.0001158 13.303609 1 14 A 1.0001 1.0001 0 0 0 1 14.001953 L 1 19 C 1 20.64501 2.3549904 22 4 22 L 20 22 C 21.64501 22 23 20.64501 23 19 L 23 14 A 1.0001 1.0001 0 0 0 23 13.998047 C 22.999188 13.302362 22.633294 12.654725 22.039062 12.292969 L 19 10.439453 L 19 6.5996094 L 19.529297 6.8828125 A 1 1 0 0 0 20.882812 6.4707031 A 1 1 0 0 0 20.470703 5.1171875 L 13.365234 1.328125 A 1.0001 1.0001 0 0 0 13.341797 1.3164062 C 12.920075 1.10567 12.459638 1 12 1 z M 12 3 C 12.153085 3 12.306169 3.0349625 12.447266 3.1054688 L 17 5.5332031 L 17 20 L 15 20 L 15 18 C 15 17.083334 14.620244 16.268559 14.039062 15.751953 C 13.45788 15.235347 12.722222 15 12 15 C 11.277778 15 10.542119 15.235347 9.9609375 15.751953 C 9.3797556 16.268559 9 17.083334 9 18 L 9 20 L 7 20 L 7 11.025391 A 1 1 0 0 0 7 10.976562 L 7 5.5332031 L 11.552734 3.1054688 C 11.693831 3.0349625 11.846915 3 12 3 z M 12 6 C 10.35499 6 9 7.3549904 9 9 C 9 10.64501 10.35499 12 12 12 C 13.64501 12 15 10.64501 15 9 C 15 7.3549904 13.64501 6 12 6 z M 12 8 C 12.564129 8 13 8.4358706 13 9 C 13 9.5641294 12.564129 10 12 10 C 11.435871 10 11 9.5641294 11 9 C 11 8.4358706 11.435871 8 12 8 z M 5 12.78125 L 5 20 L 4 20 C 3.4358706 20 3 19.564129 3 19 L 3 14.001953 A 1.0001 1.0001 0 0 0 3 14 L 5 12.78125 z M 19 12.78125 L 21 14 A 1.0001 1.0001 0 0 0 21 14.001953 L 21 19 C 21 19.564129 20.564129 20 20 20 L 19 20 L 19 12.78125 z M 12 17 C 12.277778 17 12.542119 17.09799 12.710938 17.248047 C 12.879755 17.398107 13 17.583334 13 18 L 13 20 L 11 20 L 11 18 C 11 17.583334 11.120244 17.398107 11.289062 17.248047 C 11.45788 17.097986 11.722222 17 12 17 z "/>
</svg>
