<?xml version="1.0" encoding="UTF-8" standalone="no"?>
<svg xmlns="http://www.w3.org/2000/svg" xmlns:svg="http://www.w3.org/2000/svg" width="24" height="24" viewBox="0 0 24 24" fill="currentColor" tags="building,education,childhood,university,learning,campus,scholar,student,lecture,degree,course,academia,study,knowledge,classroom,research,diploma,graduation,professor,tutorial,homework,assignment,exam" categories="buildings,navigation">
  <path d="M 12 1.2363281 C 11.540362 1.2363281 11.079928 1.3419978 10.658203 1.5527344 L 3.5527344 5.1054688 A 1 1 0 0 0 3.1054688 6.4472656 A 1 1 0 0 0 4.4472656 6.8945312 L 5 6.6171875 L 5 9.3828125 L 2.1054688 10.830078 C 1.4298967 11.167662 1.0004033 11.861964 1 12.617188 L 1 20 C 1 21.64501 2.3549904 23 4 23 L 20 23 C 21.64501 23 23 21.64501 23 20 L 23 12.617188 C 22.999597 11.861964 22.570103 11.167662 21.894531 10.830078 L 19 9.3828125 L 19 6.6171875 L 19.552734 6.8945312 A 1 1 0 0 0 20.894531 6.4472656 A 1 1 0 0 0 20.447266 5.1054688 L 13.341797 1.5527344 C 12.920072 1.3419978 12.459638 1.2363281 12 1.2363281 z M 12 3.2363281 C 12.153085 3.2363281 12.306169 3.2712906 12.447266 3.3417969 L 17 5.6171875 L 17 21 L 15 21 L 15 18 C 15 17.083334 14.620244 16.268559 14.039062 15.751953 C 13.45788 15.235347 12.722222 15 12 15 C 11.277778 15 10.542119 15.235347 9.9609375 15.751953 C 9.3797556 16.268559 9 17.083334 9 18 L 9 21 L 7 21 L 7 5.6171875 L 11.552734 3.3417969 C 11.693831 3.2712906 11.846915 3.2363281 12 3.2363281 z M 12 6 C 10.35499 6 9 7.3549904 9 9 C 9 10.64501 10.35499 12 12 12 C 13.64501 12 15 10.64501 15 9 C 15 7.3549904 13.64501 6 12 6 z M 12 8 C 12.564129 8 13 8.4358706 13 9 C 13 9.5641294 12.564129 10 12 10 C 11.435871 10 11 9.5641294 11 9 C 11 8.4358706 11.435871 8 12 8 z M 5 11.619141 L 5 21 L 4 21 C 3.4358706 21 3 20.564129 3 20 L 3 12.619141 L 5 11.619141 z M 19 11.619141 L 21 12.619141 L 21 20 C 21 20.564129 20.564129 21 20 21 L 19 21 L 19 11.619141 z M 12 17 C 12.277778 17 12.542119 17.09799 12.710938 17.248047 C 12.879755 17.398107 13 17.583334 13 18 L 13 21 L 11 21 L 11 18 C 11 17.583334 11.120244 17.398107 11.289062 17.248047 C 11.45788 17.097986 11.722222 17 12 17 z "/>
</svg>
