<?xml version="1.0" encoding="UTF-8" standalone="no"?>
<svg xmlns="http://www.w3.org/2000/svg" xmlns:svg="http://www.w3.org/2000/svg" width="24" height="24" viewBox="0 0 24 24" fill="currentColor" tags="building,education,childhood,university" categories="buildings,maps">
  <path d="M 11.804688 3.0195312 A 1.0001 1.0001 0 0 0 11.445312 3.1679688 L 5.6972656 7 L 2 7 A 1.0001 1.0001 0 0 0 1 8 L 1 20 C 1 21.645006 2.3549936 23 4 23 L 10 23 L 14 23 L 20 23 C 21.645006 23 23 21.645006 23 20 L 23 8 A 1.0001 1.0001 0 0 0 22 7 L 18.302734 7 L 12.554688 3.1679688 A 1.0001 1.0001 0 0 0 11.804688 3.0195312 z M 12 5.2011719 L 17.445312 8.8320312 A 1.0001 1.0001 0 0 0 18 9 L 21 9 L 21 20 C 21 20.564128 20.564128 21 20 21 L 15 21 L 15 17 C 15 15.354994 13.645006 14 12 14 C 10.354994 14 9 15.354994 9 17 L 9 21 L 4 21 C 3.4358718 21 3 20.564128 3 20 L 3 9 L 6 9 A 1.0001 1.0001 0 0 0 6.5546875 8.8320312 L 12 5.2011719 z M 12 8 C 10.907277 8 10 8.9072773 10 10 C 10 11.092723 10.907277 12 12 12 C 13.092723 12 14 11.092723 14 10 C 14 8.9072773 13.092723 8 12 8 z M 6 12 A 1 1 0 0 0 5 13 L 5 13.009766 A 1 1 0 0 0 6 14.009766 A 1 1 0 0 0 7 13.009766 L 7 13 A 1 1 0 0 0 6 12 z M 18 12 A 1 1 0 0 0 17 13 L 17 13.009766 A 1 1 0 0 0 18 14.009766 A 1 1 0 0 0 19 13.009766 L 19 13 A 1 1 0 0 0 18 12 z M 6 16 A 1 1 0 0 0 5 17 L 5 17.009766 A 1 1 0 0 0 6 18.009766 A 1 1 0 0 0 7 17.009766 L 7 17 A 1 1 0 0 0 6 16 z M 12 16 C 12.564128 16 13 16.435872 13 17 L 13 21 L 11 21 L 11 17 C 11 16.435872 11.435872 16 12 16 z M 18 16 A 1 1 0 0 0 17 17 L 17 17.009766 A 1 1 0 0 0 18 18.009766 A 1 1 0 0 0 19 17.009766 L 19 17 A 1 1 0 0 0 18 16 z "/>
</svg>
