<?xml version="1.0" encoding="UTF-8" standalone="no"?>
<svg xmlns="http://www.w3.org/2000/svg" xmlns:svg="http://www.w3.org/2000/svg" width="24" height="24" viewBox="0 0 24 24" fill="currentColor" tags="cut here,along,snip,chop,stationery,crafts,instructions,diagram" categories="design,tools">
  <path d="M 4 5 C 2.3549904 5 1 6.3549904 1 8 C 1 9.6450096 2.3549904 11 4 11 C 4.4607097 11 4.8991966 10.894245 5.2910156 10.705078 L 6.5859375 12 L 5.2910156 13.294922 C 4.8991966 13.105755 4.4607097 13 4 13 C 2.3549904 13 1 14.35499 1 16 C 1 17.64501 2.3549904 19 4 19 C 5.6450096 19 7 17.64501 7 16 C 7 15.53929 6.8942448 15.100803 6.7050781 14.708984 L 14.707031 6.7070312 A 1 1 0 0 0 14.707031 5.2929688 A 1 1 0 0 0 14 5 A 1 1 0 0 0 13.292969 5.2929688 L 8 10.585938 L 6.7050781 9.2910156 C 6.8942448 8.8991966 7 8.4607097 7 8 C 7 6.3549904 5.6450096 5 4 5 z M 4 7 C 4.5641294 7 5 7.4358706 5 8 C 5 8.5641294 4.5641294 9 4 9 C 3.4358706 9 3 8.5641294 3 8 C 3 7.4358706 3.4358706 7 4 7 z M 14 11 A 1 1 0 0 0 13 12 A 1 1 0 0 0 14 13 L 16 13 A 1 1 0 0 0 17 12 A 1 1 0 0 0 16 11 L 14 11 z M 20 11 A 1 1 0 0 0 19 12 A 1 1 0 0 0 20 13 L 22 13 A 1 1 0 0 0 23 12 A 1 1 0 0 0 22 11 L 20 11 z M 10.800781 13.800781 A 1 1 0 0 0 10.09375 14.09375 A 1 1 0 0 0 10.09375 15.507812 L 13.292969 18.707031 A 1 1 0 0 0 14.707031 18.707031 A 1 1 0 0 0 14.707031 17.292969 L 11.507812 14.09375 A 1 1 0 0 0 10.800781 13.800781 z M 4 15 C 4.5641294 15 5 15.435871 5 16 C 5 16.564129 4.5641294 17 4 17 C 3.4358706 17 3 16.564129 3 16 C 3 15.435871 3.4358706 15 4 15 z "/>
</svg>
