<svg xmlns="http://www.w3.org/2000/svg" xmlns:svg="http://www.w3.org/2000/svg" width="24" height="24" viewBox="0 0 24 24" fill="currentColor" tags="cut,snip,chop,stationery,crafts" categories="text,design,tools">
  <path d="M 6 2 C 3.8027056 2 2 3.8027056 2 6 C 2 8.1972944 3.8027056 10 6 10 C 6.7385452 10 7.4333774 9.7972069 8.0292969 9.4433594 L 10.585938 12 L 8.0292969 14.556641 C 7.4333775 14.202793 6.7385451 14 6 14 C 3.8027056 14 2 15.802706 2 18 C 2 20.197294 3.8027056 22 6 22 C 8.1972944 22 10 20.197294 10 18 C 10 17.261455 9.7972068 16.566623 9.4433594 15.970703 L 20.707031 4.7070312 A 1 1 0 0 0 20.707031 3.2929688 A 1 1 0 0 0 19.292969 3.2929688 L 12 10.585938 L 9.4433594 8.0292969 C 9.7972069 7.4333774 10 6.7385452 10 6 C 10 3.8027056 8.1972944 2 6 2 z M 6 4 C 7.1164141 4 8 4.8835859 8 6 C 8 6.5177439 7.8092993 6.9852019 7.4941406 7.3378906 A 1 1 0 0 0 7.4121094 7.4121094 A 1 1 0 0 0 7.3378906 7.4941406 C 6.9851896 7.809356 6.5177958 8 6 8 C 4.8835859 8 4 7.1164141 4 6 C 4 4.8835859 4.8835859 4 6 4 z M 14.800781 13.800781 A 1 1 0 0 0 14.09375 14.09375 A 1 1 0 0 0 14.09375 15.507812 L 19.292969 20.707031 A 1 1 0 0 0 20.707031 20.707031 A 1 1 0 0 0 20.707031 19.292969 L 15.507812 14.09375 A 1 1 0 0 0 14.800781 13.800781 z M 6 16 C 6.5177952 16 6.9851897 16.190645 7.3378906 16.505859 A 1 1 0 0 0 7.4121094 16.587891 A 1 1 0 0 0 7.4941406 16.662109 C 7.8093553 17.01481 8 17.482205 8 18 C 8 19.116414 7.1164141 20 6 20 C 4.8835859 20 4 19.116414 4 18 C 4 16.883586 4.8835859 16 6 16 z "/>
</svg>
