<?xml version="1.0" encoding="UTF-8" standalone="no"?>
<svg xmlns="http://www.w3.org/2000/svg" xmlns:svg="http://www.w3.org/2000/svg" width="24" height="24" viewBox="0 0 24 24" fill="currentColor" tags="cut,snip,chop,stationery,crafts" categories="text,design,tools">
  <path d="M 6 2 C 3.80271 2 2 3.80271 2 6 C 2 8.19729 3.80271 10 6 10 C 6.7384787 10 7.4314601 9.7951961 8.0273438 9.4414062 L 10.585938 12 L 8.0273438 14.558594 C 7.4314601 14.204804 6.7384787 14 6 14 C 3.80271 14 2 15.80271 2 18 C 2 20.19729 3.80271 22 6 22 C 8.19729 22 10 20.19729 10 18 C 10 17.261521 9.7951961 16.56854 9.4414062 15.972656 L 20.707031 4.7070312 A 1 1 0 0 0 20.707031 3.2929688 A 1 1 0 0 0 19.292969 3.2929688 L 12 10.585938 L 9.4414062 8.0273438 C 9.7951961 7.4314601 10 6.7384787 10 6 C 10 3.80271 8.19729 2 6 2 z M 6 4 C 7.1164119 4 8 4.8835881 8 6 C 8 6.536966 7.7934349 7.0181646 7.4570312 7.375 A 1 1 0 0 0 7.4121094 7.4121094 A 1 1 0 0 0 7.3808594 7.453125 C 7.0235369 7.792379 6.5395113 8 6 8 C 4.8835881 8 4 7.1164119 4 6 C 4 4.8835881 4.8835881 4 6 4 z M 14.800781 13.800781 A 1 1 0 0 0 14.09375 14.09375 A 1 1 0 0 0 14.09375 15.507812 L 19.292969 20.707031 A 1 1 0 0 0 20.707031 20.707031 A 1 1 0 0 0 20.707031 19.292969 L 15.507812 14.09375 A 1 1 0 0 0 14.800781 13.800781 z M 6 16 C 6.5455673 16 7.0341557 16.212524 7.3925781 16.558594 A 1 1 0 0 0 7.4121094 16.587891 A 1 1 0 0 0 7.4414062 16.607422 C 7.7874762 16.965844 8 17.454433 8 18 C 8 19.116412 7.1164119 20 6 20 C 4.8835881 20 4 19.116412 4 18 C 4 16.883588 4.8835881 16 6 16 z "/>
</svg>
