<?xml version="1.0" encoding="UTF-8" standalone="no"?>
<svg xmlns="http://www.w3.org/2000/svg" xmlns:svg="http://www.w3.org/2000/svg" width="24" height="24" viewBox="0 0 24 24" fill="currentColor" tags="cut here,along,snip,chop,stationery,crafts,instructions,diagram" categories="design,tools">
  <path d="M 4 5 C 2.3549936 5 1 6.3549936 1 8 C 1 9.6450064 2.3549936 11 4 11 C 4.460495 11 4.897383 10.892127 5.2890625 10.703125 L 6.5859375 12 L 5.2890625 13.296875 C 4.897383 13.107873 4.460495 13 4 13 C 2.3549936 13 1 14.354994 1 16 C 1 17.645006 2.3549936 19 4 19 C 5.6450064 19 7 17.645006 7 16 C 7 15.539505 6.892127 15.102617 6.703125 14.710938 L 14.707031 6.7070312 A 1 1 0 0 0 14.707031 5.2929688 A 1 1 0 0 0 14 5 A 1 1 0 0 0 13.292969 5.2929688 L 8 10.585938 L 6.703125 9.2890625 C 6.892127 8.897383 7 8.460495 7 8 C 7 6.3549936 5.6450064 5 4 5 z M 4 7 C 4.5641282 7 5 7.4358718 5 8 C 5 8.5641282 4.5641282 9 4 9 C 3.4358718 9 3 8.5641282 3 8 C 3 7.4358718 3.4358718 7 4 7 z M 14 11 A 1 1 0 0 0 13 12 A 1 1 0 0 0 14 13 L 16 13 A 1 1 0 0 0 17 12 A 1 1 0 0 0 16 11 L 14 11 z M 20 11 A 1 1 0 0 0 19 12 A 1 1 0 0 0 20 13 L 22 13 A 1 1 0 0 0 23 12 A 1 1 0 0 0 22 11 L 20 11 z M 10.800781 13.800781 A 1 1 0 0 0 10.09375 14.09375 A 1 1 0 0 0 10.09375 15.507812 L 13.292969 18.707031 A 1 1 0 0 0 14.707031 18.707031 A 1 1 0 0 0 14.707031 17.292969 L 11.507812 14.09375 A 1 1 0 0 0 10.800781 13.800781 z M 4 15 C 4.5641282 15 5 15.435872 5 16 C 5 16.564128 4.5641282 17 4 17 C 3.4358718 17 3 16.564128 3 16 C 3 15.435872 3.4358718 15 4 15 z "/>
</svg>
