<svg xmlns="http://www.w3.org/2000/svg" xmlns:svg="http://www.w3.org/2000/svg" width="24" height="24" viewBox="0 0 24 24" fill="currentColor" tags="vehicle,drive,trip,journey,transport,electric,ride,urban,commute,speed" categories="transportation">
  <path d="M 17.5 3 A 1.0001 1.0001 0 0 0 16.515625 4.1777344 L 17.613281 10.238281 C 14.912637 10.94028 12.795397 13.104025 12.179688 15.867188 A 1.0001 1.0001 0 0 0 12.177734 15.867188 C 12.158392 15.954671 12.10888 15.992349 12.09375 16 L 12.091797 16 L 7.6582031 16 C 7.0926496 14.821314 5.8856262 14 4.5 14 C 2.578848 14 1 15.578848 1 17.5 C 1 19.421152 2.578848 21 4.5 21 C 6.2515333 21 7.7194532 19.687638 7.9648438 18 L 12.091797 18 C 13.132324 18 13.927012 17.2208 14.130859 16.300781 C 14.572338 14.319531 16.05678 12.765471 17.970703 12.212891 L 18.330078 14.203125 C 16.977487 14.688542 16 15.988371 16 17.5 C 16 19.421152 17.578848 21 19.5 21 C 21.421152 21 23 19.421152 23 17.5 C 23 15.870007 21.863568 14.485452 20.345703 14.103516 L 18.697266 5 L 21 5 A 1 1 0 0 0 22 4 A 1 1 0 0 0 21 3 L 17.5 3 z M 4.5 16 C 5.2196892 16 5.807214 16.483535 5.9609375 17.150391 A 1 1 0 0 0 5.9785156 17.240234 C 5.9927384 17.324585 6 17.411033 6 17.5 C 6 18.340272 5.3402718 19 4.5 19 C 3.6597282 19 3 18.340272 3 17.5 C 3 16.659728 3.6597282 16 4.5 16 z M 19.255859 16.019531 A 1 1 0 0 0 19.677734 16.033203 A 1 1 0 0 0 19.744141 16.019531 C 20.464731 16.133038 21 16.742953 21 17.5 C 21 18.340272 20.340272 19 19.5 19 C 18.659728 19 18 18.340272 18 17.5 C 18 16.743146 18.535548 16.133263 19.255859 16.019531 z "/>
</svg>
