<svg xmlns="http://www.w3.org/2000/svg" xmlns:svg="http://www.w3.org/2000/svg" width="24" height="24" viewBox="0 0 24 24" fill="currentColor" tags="host,desktop,monitor" categories="connectivity,devices,communication">
  <path d="M 4 2 C 2.3549904 2 1 3.3549904 1 5 L 1 15 C 1 16.64501 2.3549904 18 4 18 L 11 18 L 11 20 L 8 20 A 1 1 0 0 0 7 21 A 1 1 0 0 0 8 22 L 16 22 A 1 1 0 0 0 17 21 A 1 1 0 0 0 16 20 L 13 20 L 13 18 L 20 18 C 21.64501 18 23 16.64501 23 15 L 23 12 A 1 1 0 0 0 22 11 A 1 1 0 0 0 21 12 L 21 15 C 21 15.564129 20.564129 16 20 16 L 4 16 C 3.4358706 16 3 15.564129 3 15 L 3 5 C 3 4.4358706 3.4358706 4 4 4 L 13 4 A 1 1 0 0 0 14 3 A 1 1 0 0 0 13 2 L 4 2 z M 17 2 A 1 1 0 0 0 16 3 A 1 1 0 0 0 17 4 L 19.585938 4 L 16.292969 7.2929688 A 1 1 0 0 0 16.292969 8.7070312 A 1 1 0 0 0 17.707031 8.7070312 L 21 5.4140625 L 21 8 A 1 1 0 0 0 22 9 A 1 1 0 0 0 23 8 L 23 3 A 1 1 0 0 0 22.992188 2.8691406 A 1.0001 1.0001 0 0 0 22.923828 2.6171875 A 1 1 0 0 0 22.707031 2.2929688 A 1 1 0 0 0 22.382812 2.0761719 A 1.0001 1.0001 0 0 0 22.130859 2.0078125 A 1.0001 1.0001 0 0 0 22 2 L 17 2 z "/>
</svg>
