<svg xmlns="http://www.w3.org/2000/svg" xmlns:svg="http://www.w3.org/2000/svg" width="24" height="24" viewBox="0 0 24 24" fill="currentColor" tags="paper,log,scripture,document,notes,parchment,list,long,script,story,code,coding" categories="gaming,development,text">
  <path d="M 4 2 C 3.2777779 2 2.5421194 2.2353472 1.9609375 2.7519531 C 1.3797556 3.268559 1 4.0833335 1 5 L 1 7 C 1 8.0927249 1.9072751 9 3 9 L 5 9 L 5 19 C 5 19.916666 5.3797556 20.731441 5.9609375 21.248047 C 6.5421194 21.764653 7.2777779 22 8 22 L 20 22 C 21.64501 22 23 20.64501 23 19 L 23 18 C 23 16.907275 22.092725 16 21 16 L 20 16 L 20 5 C 20 3.3549904 18.64501 2 17 2 L 4 2 z M 4 4 C 4.2777779 4 4.5421194 4.0979864 4.7109375 4.2480469 C 4.8797556 4.3981073 5 4.5833337 5 5 L 5 7 L 3 7 L 3 5 C 3 4.5833337 3.1202444 4.3981073 3.2890625 4.2480469 C 3.4578793 4.0979875 3.7222244 4.0000015 4 4 z M 6.8417969 4 L 17 4 C 17.564129 4 18 4.4358706 18 5 L 18 16 L 11 16 C 9.9072751 16 9 16.907275 9 18 L 9 19 C 9 19.416666 8.8797556 19.601893 8.7109375 19.751953 C 8.5421194 19.902014 8.2777779 20 8 20 C 7.7222221 20 7.4578806 19.902014 7.2890625 19.751953 C 7.1202444 19.601893 7 19.416666 7 19 L 7 8 L 7 5 C 7 4.6479292 6.9437328 4.310889 6.8417969 4 z M 11 18 L 19 18 L 21 18 L 21 19 C 21 19.564129 20.564129 20 20 20 L 10.794922 20 C 10.901143 19.683521 11 19.359887 11 19 L 11 18 z "/>
</svg>
