<?xml version="1.0" encoding="UTF-8" standalone="no"?>
<svg xmlns="http://www.w3.org/2000/svg" xmlns:svg="http://www.w3.org/2000/svg" width="24" height="24" viewBox="0 0 24 24" fill="currentColor" tags="paper,log,scripture,document,notes,parchment,list,long,script,story,code,coding" categories="gaming,development,text">
  <path d="M 4 2 C 3.2777793 2 2.5421182 2.2353482 1.9609375 2.7519531 C 1.3797568 3.268558 1 4.0833353 1 5 L 1 8 A 1.0001 1.0001 0 0 0 2 9 L 5 9 L 5 19 C 5 19.916665 5.3797568 20.731441 5.9609375 21.248047 C 6.5421182 21.764651 7.2777793 22 8 22 L 20 22 C 21.645006 22 23 20.645006 23 19 L 23 17 A 1.0001 1.0001 0 0 0 22 16 L 20 16 L 20 5 C 20 3.3549936 18.645006 2 17 2 L 4 2 z M 4 4 C 4.2777773 4 4.5421198 4.0979867 4.7109375 4.2480469 C 4.8797552 4.398107 5 4.5833345 5 5 L 5 7 L 3 7 L 3 5 C 3 4.5833345 3.1202448 4.398107 3.2890625 4.2480469 C 3.4578802 4.0979867 3.7222227 4 4 4 z M 6.8417969 4 L 17 4 C 17.564128 4 18 4.4358718 18 5 L 18 16 L 10 16 A 1.0001 1.0001 0 0 0 9 17 L 9 19 C 9 19.416666 8.8797552 19.601893 8.7109375 19.751953 C 8.5421198 19.902013 8.2777773 20 8 20 C 7.7222227 20 7.4578802 19.902013 7.2890625 19.751953 C 7.1202448 19.601893 7 19.416666 7 19 L 7 8 L 7 5 C 7 4.6479418 6.9437262 4.31088 6.8417969 4 z M 11 18 L 19 18 L 21 18 L 21 19 C 21 19.564128 20.564128 20 20 20 L 10.794922 20 C 10.901143 19.683522 11 19.359886 11 19 L 11 18 z "/>
</svg>
