<?xml version="1.0" encoding="UTF-8" standalone="no"?>
<svg xmlns="http://www.w3.org/2000/svg" xmlns:svg="http://www.w3.org/2000/svg" width="24" height="24" viewBox="0 0 24 24" fill="currentColor" tags="find,scan,magnifier,magnifying glass,grep,chevrons,&lt;&gt;" categories="text,social,development">
  <path d="M 11 2 C 6.0412819 2 2 6.0412819 2 11 C 2 15.958718 6.0412819 20 11 20 C 13.120213 20 15.070749 19.258847 16.611328 18.025391 L 20.292969 21.707031 A 1 1 0 0 0 21.707031 21.707031 A 1 1 0 0 0 21.707031 20.292969 L 18.025391 16.611328 C 19.258847 15.070749 20 13.120213 20 11 C 20 6.0412819 15.958718 2 11 2 z M 11 4 C 14.877838 4 18 7.1221621 18 11 C 18 14.877838 14.877838 18 11 18 C 7.1221621 18 4 14.877838 4 11 C 4 7.1221621 7.1221621 4 11 4 z M 9.0019531 7.5 A 1 1 0 0 0 8.21875 7.875 L 6.21875 10.375 A 1.0001 1.0001 0 0 0 6.21875 11.625 L 8.21875 14.125 A 1 1 0 0 0 9.625 14.28125 A 1 1 0 0 0 9.78125 12.875 L 8.28125 11 L 9.78125 9.125 A 1 1 0 0 0 9.625 7.71875 A 1 1 0 0 0 9.0019531 7.5 z M 12.998047 7.5 A 1 1 0 0 0 12.375 7.71875 A 1 1 0 0 0 12.21875 9.125 L 13.71875 11 L 12.21875 12.875 A 1 1 0 0 0 12.375 14.28125 A 1 1 0 0 0 13.78125 14.125 L 15.78125 11.625 A 1.0001 1.0001 0 0 0 15.78125 10.375 L 13.78125 7.875 A 1 1 0 0 0 12.998047 7.5 z "/>
</svg>
