<svg xmlns="http://www.w3.org/2000/svg" xmlns:svg="http://www.w3.org/2000/svg" width="24" height="24" viewBox="0 0 24 24" fill="currentColor" tags="find,scan,magnifier,magnifying glass,stop,warning,alert,error,anomaly,lens" categories="text,social">
  <path d="M 11 2 C 6.0412819 2 2 6.0412819 2 11 C 2 15.958718 6.0412819 20 11 20 C 13.12031 20 15.07267 19.260902 16.613281 18.027344 L 20.292969 21.707031 A 1 1 0 0 0 21.707031 21.707031 A 1 1 0 0 0 21.707031 20.292969 L 18.027344 16.613281 C 19.260902 15.07267 20 13.12031 20 11 C 20 6.0412819 15.958718 2 11 2 z M 11 4 C 14.877838 4 18 7.1221621 18 11 C 18 14.877838 14.877838 18 11 18 C 7.1221621 18 4 14.877838 4 11 C 4 7.1221621 7.1221621 4 11 4 z M 11 6 A 1 1 0 0 0 10 7 L 10 11 A 1 1 0 0 0 11 12 A 1 1 0 0 0 12 11 L 12 7 A 1 1 0 0 0 11 6 z M 11 14 A 1 1 0 0 0 10 15 A 1 1 0 0 0 11 16 L 11.009766 16 A 1 1 0 0 0 12.009766 15 A 1 1 0 0 0 11.009766 14 L 11 14 z "/>
</svg>
