<?xml version="1.0" encoding="UTF-8" standalone="no"?>
<svg xmlns="http://www.w3.org/2000/svg" xmlns:svg="http://www.w3.org/2000/svg" width="24" height="24" viewBox="0 0 24 24" fill="currentColor" tags="find,scan,magnifier,magnifying glass,stop,clear,cancel,abort,/" categories="text,social">
  <path d="M 11 2 C 6.0412819 2 2 6.0412819 2 11 C 2 15.958718 6.0412819 20 11 20 C 13.12031 20 15.07267 19.260902 16.613281 18.027344 L 20.292969 21.707031 A 1 1 0 0 0 21.707031 21.707031 A 1 1 0 0 0 21.707031 20.292969 L 18.027344 16.613281 C 19.260902 15.07267 20 13.12031 20 11 C 20 6.0412819 15.958718 2 11 2 z M 11 4 C 14.877838 4 18 7.1221621 18 11 C 18 14.877838 14.877838 18 11 18 C 7.1221621 18 4 14.877838 4 11 C 4 7.1221621 7.1221621 4 11 4 z M 13.5 7.5 A 1 1 0 0 0 12.792969 7.7929688 L 7.7929688 12.792969 A 1 1 0 0 0 7.7929688 14.207031 A 1 1 0 0 0 9.2070312 14.207031 L 14.207031 9.2070312 A 1 1 0 0 0 14.207031 7.7929688 A 1 1 0 0 0 13.5 7.5 z "/>
</svg>
