<?xml version="1.0" encoding="UTF-8" standalone="no"?>
<svg xmlns="http://www.w3.org/2000/svg" xmlns:svg="http://www.w3.org/2000/svg" width="24" height="24" viewBox="0 0 24 24" fill="currentColor" tags="mark,typography,punctuation,legal,type,text,prose,symbol" categories="text">
  <path d="M 12 1 C 9.5 1 7 2.3333339 7 5 C 7 6.3333333 7.7608713 7.3898619 8.671875 8.0351562 C 8.9189747 8.2101852 9.1779106 8.3666147 9.4433594 8.5078125 C 8.0796328 9.1007881 7.0716166 10.218089 7.0117188 11.851562 A 1 1 0 0 0 7 12 C 7.0000006 12.170204 7.0135819 12.335191 7.0371094 12.496094 C 7.2105612 13.88433 8.1018569 14.863194 9.2929688 15.425781 C 10.048446 15.848088 10.868237 16.142972 11.648438 16.435547 C 12.648438 16.810547 13.582879 17.180451 14.171875 17.597656 C 14.760871 18.014862 15 18.333333 15 19 C 15 21.666664 9 21.666664 9 19 A 1 1 0 0 0 8 18 A 1 1 0 0 0 7 19 C 7 24.333332 17 24.333332 17 19 C 17 17.666667 16.239129 16.610138 15.328125 15.964844 C 15.081025 15.789814 14.82209 15.633385 14.556641 15.492188 C 15.920367 14.899212 16.928383 13.781911 16.988281 12.148438 A 1 1 0 0 0 17 12 C 17 11.829795 16.986418 11.66481 16.962891 11.503906 C 16.789441 10.115662 15.89815 9.1368068 14.707031 8.5742188 C 13.951557 8.1519152 13.13176 7.857027 12.351562 7.5644531 C 11.351562 7.1894531 10.417121 6.8195496 9.828125 6.4023438 C 9.2391287 5.985138 9 5.6666667 9 5 C 9 2.3333356 15 2.3333356 15 5 A 1 1 0 0 0 16 6 A 1 1 0 0 0 17 5 C 17 2.3333339 14.5 1 12 1 z M 12.294922 10.007812 C 12.825528 10.038996 13.34479 10.15599 13.783203 10.355469 C 13.924965 10.434879 14.055092 10.514935 14.171875 10.597656 C 14.376952 10.742919 14.53914 10.875436 14.664062 11.015625 C 14.839577 11.241771 14.954029 11.506973 14.988281 11.808594 C 14.993545 11.870723 15 11.930884 15 12 C 15 13.894808 11.970447 14.442449 10.216797 13.644531 C 10.075035 13.565121 9.9449074 13.485064 9.828125 13.402344 C 9.6230489 13.257081 9.4608599 13.124563 9.3359375 12.984375 C 9.160422 12.758229 9.045971 12.493028 9.0117188 12.191406 C 9.0064549 12.129277 9 12.069116 9 12 C 9 10.578894 10.703105 9.9142608 12.294922 10.007812 z "/>
</svg>
