<?xml version="1.0" encoding="UTF-8" standalone="no"?>
<svg xmlns="http://www.w3.org/2000/svg" xmlns:svg="http://www.w3.org/2000/svg" width="24" height="24" viewBox="0 0 24 24" fill="currentColor" tags="mark,typography,punctuation,legal,type,text,prose,symbol" categories="text">
  <path d="M 12 1 C 9.5 1 7 2.3333339 7 5 C 7 6.3333333 7.7608713 7.3898619 8.671875 8.0351562 C 8.9200014 8.2109124 9.1806558 8.3641943 9.4472656 8.5058594 C 8.0394492 9.1168 7 10.281176 7 12 C 7 12.083333 7.003006 12.165365 7.0078125 12.246094 C 7.0990037 13.77772 8.0416301 14.841296 9.3144531 15.435547 C 9.316304 15.436411 9.3184603 15.436638 9.3203125 15.4375 C 10.068385 15.851905 10.877422 16.146416 11.648438 16.435547 C 12.648438 16.810547 13.582879 17.180451 14.171875 17.597656 C 14.760871 18.014862 15 18.333333 15 19 C 15 21.666664 9 21.666664 9 19 A 1 1 0 0 0 8 18 A 1 1 0 0 0 7 19 C 7 24.333332 17 24.333332 17 19 C 17 17.666667 16.239129 16.610138 15.328125 15.964844 C 15.079999 15.789087 14.819344 15.635806 14.552734 15.494141 C 15.960551 14.8832 17 13.718824 17 12 C 17 11.916667 16.997983 11.835044 16.992188 11.753906 C 16.900996 10.22228 15.95837 9.1587042 14.685547 8.5644531 C 14.683696 8.563589 14.68154 8.5633621 14.679688 8.5625 C 13.931615 8.1480948 13.122578 7.8535838 12.351562 7.5644531 C 11.351562 7.1894531 10.417121 6.8195496 9.828125 6.4023438 C 9.2391287 5.985138 9 5.6666667 9 5 C 9 2.3333356 15 2.3333356 15 5 A 1 1 0 0 0 16 6 A 1 1 0 0 0 17 5 C 17 2.3333339 14.5 1 12 1 z M 12 10 C 12.630554 10 13.260168 10.119855 13.779297 10.355469 C 13.921174 10.434933 14.05501 10.514877 14.171875 10.597656 C 14.370806 10.738566 14.527013 10.868303 14.650391 11.003906 C 14.868923 11.279589 15 11.610583 15 12 C 15 13.893824 11.974766 14.440637 10.220703 13.644531 C 10.078826 13.565067 9.9449898 13.485123 9.828125 13.402344 C 9.6291935 13.261434 9.4729867 13.131697 9.3496094 12.996094 C 9.1310773 12.720411 9 12.389416 9 12 C 9 10.666668 10.5 10 12 10 z "/>
</svg>
