<?xml version="1.0" encoding="UTF-8" standalone="no"?>
<svg xmlns="http://www.w3.org/2000/svg" xmlns:svg="http://www.w3.org/2000/svg" width="24" height="24" viewBox="0 0 24 24" fill="currentColor" tags="mark,typography,punctuation,legal,type,text,prose,symbol" categories="text">
  <path d="M 12 1 C 9.500005 1 7 2.3333393 7 5 C 7 6.3333307 7.7608731 7.3898632 8.671875 8.0351562 C 8.9211994 8.211761 9.1832064 8.3656031 9.4511719 8.5078125 C 8.0423815 9.118527 7 10.280399 7 12 C 7 12.083333 7.003006 12.165365 7.0078125 12.246094 C 7.0990037 13.777717 8.0416314 14.841297 9.3144531 15.435547 C 9.316304 15.436411 9.3184603 15.436638 9.3203125 15.4375 C 10.068385 15.851905 10.877424 16.146416 11.648438 16.435547 C 12.648436 16.810546 13.58288 17.180452 14.171875 17.597656 C 14.76087 18.014862 15 18.333335 15 19 C 15 21.666659 9 21.666659 9 19 A 1 1 0 0 0 8 18 A 1 1 0 0 0 7 19 C 7 24.333322 17 24.333322 17 19 C 17 17.666669 16.239127 16.610136 15.328125 15.964844 C 15.078801 15.788239 14.816793 15.634397 14.548828 15.492188 C 15.957618 14.881474 17 13.719601 17 12 C 17 11.916667 16.997983 11.835044 16.992188 11.753906 C 16.900996 10.222282 15.958369 9.1587041 14.685547 8.5644531 C 14.683696 8.563589 14.68154 8.5633621 14.679688 8.5625 C 13.931616 8.1480952 13.122576 7.8535833 12.351562 7.5644531 C 11.351563 7.1894539 10.41712 6.8195487 9.828125 6.4023438 C 9.2391299 5.9851389 9 5.6666653 9 5 C 9 2.333341 15 2.333341 15 5 A 1 1 0 0 0 16 6 A 1 1 0 0 0 17 5 C 17 2.3333393 14.499995 1 12 1 z M 12 10 C 12.630554 10 13.260169 10.119855 13.779297 10.355469 C 13.921174 10.434933 14.05501 10.514877 14.171875 10.597656 C 14.370806 10.738566 14.527013 10.868303 14.650391 11.003906 C 14.868922 11.279588 15 11.610584 15 12 C 15 13.893821 11.974764 14.440636 10.220703 13.644531 C 10.078826 13.565067 9.9449896 13.485123 9.828125 13.402344 C 9.6291939 13.261434 9.4729865 13.131697 9.3496094 12.996094 C 9.1310775 12.720412 9 12.389416 9 12 C 9 10.66667 10.500001 10 12 10 z "/>
</svg>
