<?xml version="1.0" encoding="UTF-8" standalone="no"?>
<svg xmlns="http://www.w3.org/2000/svg" xmlns:svg="http://www.w3.org/2000/svg" width="24" height="24" viewBox="0 0 24 24" fill="currentColor" tags="email,message,mail,paper airplane,paper aeroplane,submit" categories="mail,communication,connectivity">
  <path d="M 3.4804688 2.0039062 C 3.4056105 2.0051415 3.3310159 2.0114617 3.2578125 2.0234375 C 2.9631054 2.0716505 2.6884118 2.2034776 2.4824219 2.3925781 C 2.0708868 2.770371 1.8699369 3.4412333 2.0976562 4.0332031 L 2.0976562 4.0351562 L 4.9375 11.650391 C 4.9794595 11.763059 5 11.88153 5 12 C 5 12.11847 4.9794595 12.236941 4.9375 12.349609 L 2.0996094 19.964844 L 2.0996094 19.966797 C 1.8730462 20.558027 2.0717548 21.229873 2.4824219 21.607422 C 2.8930923 21.984973 3.5782932 22.126932 4.1484375 21.851562 L 4.1503906 21.851562 L 22.140625 13.355469 C 22.548527 13.162558 22.803831 12.803264 22.904297 12.402344 A 1 1 0 0 0 23 12 A 1 1 0 0 0 22.884766 11.535156 A 1 1 0 0 0 22.882812 11.53125 C 22.771684 11.157602 22.525599 10.826598 22.140625 10.644531 L 4.1464844 2.1484375 C 3.9335535 2.045636 3.7050435 2.0002006 3.4804688 2.0039062 z M 4.3984375 4.4785156 L 18.210938 11 L 6.8261719 11 C 6.8206584 10.984411 6.816326 10.968643 6.8105469 10.953125 L 4.3984375 4.4785156 z M 6.8261719 13 L 18.210938 13 L 4.3984375 19.521484 L 6.8105469 13.046875 C 6.816326 13.031357 6.8206584 13.015589 6.8261719 13 z "/>
</svg>
