<?xml version="1.0" encoding="UTF-8" standalone="no"?>
<svg xmlns="http://www.w3.org/2000/svg" xmlns:svg="http://www.w3.org/2000/svg" width="24" height="24" viewBox="0 0 24 24" fill="currentColor" tags="email,message,mail,paper airplane,paper aeroplane,submit" categories="mail,communication,connectivity">
  
  <path d="M 21.912109 1.0039062 A 1.0001 1.0001 0 0 0 21.876953 1.0117188 A 1 1 0 0 0 21.779297 1.0332031 A 1.0001 1.0001 0 0 0 21.669922 1.0566406 L 1.6699219 8.0566406 A 1.0001 1.0001 0 0 0 1.59375 9.9140625 L 10.242188 13.757812 L 14.085938 22.40625 A 1.0001 1.0001 0 0 0 15.943359 22.330078 L 22.943359 2.3300781 A 1.0001 1.0001 0 0 0 22.945312 2.3242188 A 1 1 0 0 0 22.994141 2.0996094 A 1.0001 1.0001 0 0 0 22.996094 2.0800781 A 1 1 0 0 0 22.986328 1.8398438 A 1 1 0 0 0 22.916016 1.6015625 A 1 1 0 0 0 22.789062 1.3867188 A 1.0001 1.0001 0 0 0 22.787109 1.3828125 A 1 1 0 0 0 22.707031 1.2929688 A 1 1 0 0 0 22.664062 1.2617188 A 1.0001 1.0001 0 0 0 22.505859 1.1464844 A 1 1 0 0 0 22.425781 1.1015625 A 1.0001 1.0001 0 0 0 22.179688 1.0195312 A 1.0001 1.0001 0 0 0 22.160156 1.0136719 A 1 1 0 0 0 22.111328 1.0117188 A 1.0001 1.0001 0 0 0 21.912109 1.0039062 z M 18.195312 4.390625 L 10.779297 11.806641 L 4.7109375 9.109375 L 18.195312 4.390625 z M 19.609375 5.8046875 L 14.890625 19.289062 L 12.193359 13.220703 L 19.609375 5.8046875 z "/>
</svg>
