<svg xmlns="http://www.w3.org/2000/svg" xmlns:svg="http://www.w3.org/2000/svg" width="24" height="24" viewBox="0 0 24 24" fill="currentColor" tags="email,message,mail,paper airplane,paper aeroplane,submit" categories="mail,communication,connectivity">
  <path d="M 3.4804688 2.0039062 C 3.4056104 2.0051415 3.3310161 2.0114617 3.2578125 2.0234375 C 2.9631048 2.0716505 2.6884122 2.2034772 2.4824219 2.3925781 C 2.0708859 2.7703717 1.8699364 3.4412321 2.0976562 4.0332031 L 2.0976562 4.0351562 L 4.9375 11.650391 C 4.976983 11.756409 4.9976697 11.867057 5 11.978516 A 1 1 0 0 0 5 12 C 5 12.006992 5.0001462 12.014493 5 12.021484 C 4.9976697 12.132943 4.976983 12.243591 4.9375 12.349609 L 2.0996094 19.964844 L 2.0996094 19.966797 C 1.8730458 20.558029 2.0717534 21.229872 2.4824219 21.607422 C 2.8930931 21.984974 3.578292 22.126932 4.1484375 21.851562 L 4.1503906 21.851562 L 22.140625 13.355469 C 22.527963 13.172283 22.7766 12.839359 22.886719 12.462891 A 1 1 0 0 0 23 12 A 1 1 0 0 0 22.886719 11.537109 C 22.7766 11.160641 22.527963 10.827717 22.140625 10.644531 L 4.1464844 2.1484375 C 3.9335531 2.0456358 3.7050437 2.0002006 3.4804688 2.0039062 z M 4.3984375 4.4785156 L 18.210938 11 L 6.828125 11 C 6.8225875 10.98434 6.8163525 10.968714 6.8105469 10.953125 L 4.3984375 4.4785156 z M 6.828125 13 L 18.210938 13 L 4.3984375 19.521484 L 6.8105469 13.046875 C 6.8163525 13.031286 6.8225875 13.01566 6.828125 13 z "/>
</svg>
