<svg xmlns="http://www.w3.org/2000/svg" xmlns:svg="http://www.w3.org/2000/svg" width="24" height="24" viewBox="0 0 24 24" fill="currentColor" tags="bring,send,move,under,back,backwards,overlap,layer,order" categories="design,layout">
  <path d="M 4 1 C 2.3552972 1 1 2.3552972 1 4 L 1 8 C 1 9.6447028 2.3552972 11 4 11 L 8 11 C 9.6447028 11 11 9.6447028 11 8 L 11 4 C 11 2.3552972 9.6447028 1 8 1 L 4 1 z M 4 3 L 8 3 C 8.5712972 3 9 3.4287028 9 4 L 9 8 C 9 8.5712972 8.5712972 9 8 9 L 4 9 C 3.4287028 9 3 8.5712972 3 8 L 3 4 C 3 3.4287028 3.4287028 3 4 3 z M 14 6 A 1 1 0 0 0 13 7 A 1 1 0 0 0 14 8 L 15 8 C 15.564129 8 16 8.4358706 16 9 L 16 10 A 1 1 0 0 0 17 11 A 1 1 0 0 0 18 10 L 18 9 C 18 7.3549904 16.64501 6 15 6 L 14 6 z M 7 13 A 1 1 0 0 0 6 14 L 6 15 C 6 16.64501 7.3549904 18 9 18 L 10 18 A 1 1 0 0 0 11 17 A 1 1 0 0 0 10 16 L 9 16 C 8.4358706 16 8 15.564129 8 15 L 8 14 A 1 1 0 0 0 7 13 z M 16 13 C 14.355297 13 13 14.355297 13 16 L 13 20 C 13 21.644703 14.355297 23 16 23 L 20 23 C 21.644703 23 23 21.644703 23 20 L 23 16 C 23 14.355297 21.644703 13 20 13 L 16 13 z M 16 15 L 20 15 C 20.571297 15 21 15.428703 21 16 L 21 20 C 21 20.571297 20.571297 21 20 21 L 16 21 C 15.428703 21 15 20.571297 15 20 L 15 16 C 15 15.428703 15.428703 15 16 15 z "/>
</svg>
