<?xml version="1.0" encoding="UTF-8" standalone="no"?>
<svg xmlns="http://www.w3.org/2000/svg" xmlns:svg="http://www.w3.org/2000/svg" width="24" height="24" viewBox="0 0 24 24" fill="currentColor" tags="email,message,mail,paper airplane,paper aeroplane,submit" categories="mail,communication,connectivity">
  <path d="M 21.419922 1.0058594 C 21.280117 1.0095382 21.138802 1.0350976 20.998047 1.0859375 L 2.0136719 7.5800781 A 1.0001 1.0001 0 0 0 2.0136719 7.5820312 C 1.4026982 7.7915583 1.0145228 8.3939449 1 8.9609375 C 0.98547724 9.5279301 1.34196 10.152051 1.9414062 10.392578 L 9.8710938 13.572266 A 1.0001 1.0001 0 0 0 9.8730469 13.572266 C 9.993512 13.620496 10.102093 13.691582 10.193359 13.779297 A 1 1 0 0 0 10.207031 13.792969 C 10.211731 13.79767 10.216099 13.801845 10.220703 13.806641 C 10.308458 13.898038 10.379243 14.006466 10.427734 14.126953 L 13.607422 22.058594 C 13.847952 22.65804 14.472069 23.014523 15.039062 23 C 15.606055 22.98548 16.208445 22.597302 16.417969 21.986328 A 1.0001 1.0001 0 0 0 16.419922 21.986328 L 22.914062 3.0019531 C 23.062913 2.5898448 22.997367 2.169005 22.798828 1.8203125 A 1 1 0 0 0 22.560547 1.4394531 A 1 1 0 0 0 22.175781 1.1992188 C 22.06657 1.1375922 21.95089 1.0898117 21.830078 1.0566406 C 21.698022 1.0203823 21.559727 1.0021805 21.419922 1.0058594 z M 18.548828 4.0371094 L 10.791016 11.794922 C 10.733195 11.767316 10.67505 11.740779 10.615234 11.716797 L 3.9355469 9.0371094 L 18.548828 4.0371094 z M 19.960938 5.453125 L 14.962891 20.0625 L 12.285156 13.382812 A 1.0001 1.0001 0 0 0 12.283203 13.380859 C 12.259532 13.322037 12.23423 13.263899 12.207031 13.207031 L 19.960938 5.453125 z "/>
</svg>
