<svg xmlns="http://www.w3.org/2000/svg" xmlns:svg="http://www.w3.org/2000/svg" width="24" height="24" viewBox="0 0 24 24" fill="currentColor" tags="move,split" categories="text,arrows,layout">
  <path d="M 12 3 A 1.0001 1.0001 0 0 0 11.292969 3.2929688 L 7.2929688 7.2929688 A 1 1 0 0 0 7.2929688 8.7070312 A 1 1 0 0 0 8.7070312 8.7070312 L 12 5.4140625 L 15.292969 8.7070312 A 1 1 0 0 0 16.707031 8.7070312 A 1 1 0 0 0 16.707031 7.2929688 L 12.707031 3.2929688 A 1.0001 1.0001 0 0 0 12 3 z M 3 11 A 1 1 0 0 0 2 12 A 1 1 0 0 0 3 13 L 21 13 A 1 1 0 0 0 22 12 A 1 1 0 0 0 21 11 L 3 11 z M 8 15 A 1 1 0 0 0 7.2929688 15.292969 A 1 1 0 0 0 7.2929688 16.707031 L 11.292969 20.707031 A 1.0001 1.0001 0 0 0 12.707031 20.707031 L 16.707031 16.707031 A 1 1 0 0 0 16.707031 15.292969 A 1 1 0 0 0 15.292969 15.292969 L 12 18.585938 L 8.7070312 15.292969 A 1 1 0 0 0 8 15 z "/>
</svg>
