<svg xmlns="http://www.w3.org/2000/svg" xmlns:svg="http://www.w3.org/2000/svg" width="24" height="24" viewBox="0 0 24 24" fill="currentColor" tags="cloud,storage,computing,cog,gear" categories="development,devices">
  <path d="M 4 1 C 2.3549904 1 1 2.3549904 1 4 L 1 8 C 1 9.6450096 2.3549904 11 4 11 L 4.5 11 A 1 1 0 0 0 5.5 10 A 1 1 0 0 0 4.5 9 L 4 9 C 3.4358706 9 3 8.5641294 3 8 L 3 4 C 3 3.4358706 3.4358706 3 4 3 L 20 3 C 20.564129 3 21 3.4358706 21 4 L 21 8 C 21 8.5641294 20.564129 9 20 9 L 19.5 9 A 1 1 0 0 0 18.5 10 A 1 1 0 0 0 19.5 11 L 20 11 C 21.64501 11 23 9.6450096 23 8 L 23 4 C 23 2.3549904 21.64501 1 20 1 L 4 1 z M 6 5 A 1 1 0 0 0 5 6 A 1 1 0 0 0 6 7 L 6.0097656 7 A 1 1 0 0 0 7.0097656 6 A 1 1 0 0 0 6.0097656 5 L 6 5 z M 10.46875 7.3046875 A 1 1 0 0 0 10.085938 7.3808594 A 1 1 0 0 0 9.5449219 8.6875 L 9.5878906 8.7910156 C 9.2671366 9.0205957 8.9909676 9.2861587 8.7636719 9.5761719 L 8.6875 9.5449219 A 1 1 0 0 0 7.3808594 10.085938 A 1 1 0 0 0 7.921875 11.392578 L 8.0039062 11.425781 C 7.957931 11.807194 7.9688113 12.189797 8.0292969 12.5625 L 7.921875 12.607422 A 1 1 0 0 0 7.3808594 13.914062 A 1 1 0 0 0 8.6875 14.455078 L 8.7929688 14.410156 C 9.0133593 14.715999 9.2763134 14.995604 9.578125 15.232422 L 9.5449219 15.3125 A 1 1 0 0 0 10.085938 16.619141 A 1 1 0 0 0 11.392578 16.078125 L 11.445312 15.951172 C 11.794784 15.971478 12.158956 15.94744 12.527344 15.890625 L 12.605469 16.078125 A 1 1 0 0 0 13.912109 16.621094 A 1 1 0 0 0 14.455078 15.314453 L 14.412109 15.208984 C 14.733128 14.979303 15.008886 14.714028 15.236328 14.423828 L 15.3125 14.455078 A 1 1 0 0 0 16.619141 13.914062 A 1 1 0 0 0 16.078125 12.607422 L 15.996094 12.574219 C 16.042069 12.192807 16.031189 11.810202 15.970703 11.4375 L 16.078125 11.392578 A 1 1 0 0 0 16.619141 10.085938 A 1 1 0 0 0 15.3125 9.5449219 L 15.207031 9.5898438 C 14.986641 9.2840009 14.723686 9.0043961 14.421875 8.7675781 L 14.455078 8.6875 A 1 1 0 0 0 13.914062 7.3808594 A 1 1 0 0 0 12.607422 7.921875 L 12.554688 8.0488281 C 12.204569 8.0283958 11.839782 8.0522817 11.470703 8.109375 L 11.392578 7.921875 A 1 1 0 0 0 10.46875 7.3046875 z M 12.097656 9.9570312 C 12.249463 9.9558865 12.39044 9.9748741 12.523438 10.009766 A 1 1 0 0 0 12.765625 10.152344 A 1 1 0 0 0 13.009766 10.21875 C 13.370217 10.44238 13.670649 10.806967 13.847656 11.234375 C 14.024733 11.66195 14.069529 12.133663 13.972656 12.546875 A 1 1 0 0 0 13.847656 12.765625 A 1 1 0 0 0 13.777344 13.037109 C 13.592354 13.353564 13.288467 13.631126 12.765625 13.847656 A 1 1 0 0 0 12.763672 13.847656 C 12.241151 14.063786 11.831116 14.083252 11.476562 13.990234 A 1 1 0 0 0 11.234375 13.847656 A 1 1 0 0 0 10.990234 13.78125 C 10.629782 13.55762 10.329352 13.193034 10.152344 12.765625 C 9.9752658 12.338047 9.9304687 11.866339 10.027344 11.453125 A 1 1 0 0 0 10.152344 11.234375 A 1 1 0 0 0 10.222656 10.962891 C 10.407645 10.646432 10.711527 10.368877 11.234375 10.152344 C 11.56109 10.017148 11.844645 9.9589392 12.097656 9.9570312 z M 4 13 C 2.3549904 13 1 14.35499 1 16 L 1 20 C 1 21.64501 2.3549904 23 4 23 L 20 23 C 21.64501 23 23 21.64501 23 20 L 23 16 C 23 14.35499 21.64501 13 20 13 L 19.5 13 A 1 1 0 0 0 18.5 14 A 1 1 0 0 0 19.5 15 L 20 15 C 20.564129 15 21 15.435871 21 16 L 21 20 C 21 20.564129 20.564129 21 20 21 L 4 21 C 3.4358706 21 3 20.564129 3 20 L 3 16 C 3 15.435871 3.4358706 15 4 15 L 4.5 15 A 1 1 0 0 0 5.5 14 A 1 1 0 0 0 4.5 13 L 4 13 z M 6 17 A 1 1 0 0 0 5 18 A 1 1 0 0 0 6 19 L 6.0097656 19 A 1 1 0 0 0 7.0097656 18 A 1 1 0 0 0 6.0097656 17 L 6 17 z "/>
</svg>
