<?xml version="1.0" encoding="UTF-8" standalone="no"?>
<svg xmlns="http://www.w3.org/2000/svg" xmlns:svg="http://www.w3.org/2000/svg" width="24" height="24" viewBox="0 0 24 24" fill="currentColor" tags="cloud,storage,computing,cog,gear" categories="development,devices">
  <path d="M 4 1 C 2.3549904 1 1 2.3549904 1 4 L 1 8 C 1 9.6450096 2.3549904 11 4 11 L 4.5 11 A 1 1 0 0 0 5.5 10 A 1 1 0 0 0 4.5 9 L 4 9 C 3.4358706 9 3 8.5641294 3 8 L 3 4 C 3 3.4358706 3.4358706 3 4 3 L 20 3 C 20.564129 3 21 3.4358706 21 4 L 21 8 C 21 8.5641294 20.564129 9 20 9 L 19.5 9 A 1 1 0 0 0 18.5 10 A 1 1 0 0 0 19.5 11 L 20 11 C 21.64501 11 23 9.6450096 23 8 L 23 4 C 23 2.3549904 21.64501 1 20 1 L 4 1 z M 6 5 A 1 1 0 0 0 5 6 A 1 1 0 0 0 6 7 L 6.0097656 7 A 1 1 0 0 0 7.0097656 6 A 1 1 0 0 0 6.0097656 5 L 6 5 z M 10.412109 7.3007812 A 1 1 0 0 0 10.029297 7.3710938 A 1 1 0 0 0 9.4707031 8.671875 L 9.5429688 8.8515625 C 9.2368897 9.0914259 8.966025 9.3742999 8.7402344 9.6914062 L 8.6171875 9.6503906 A 1 1 0 0 0 7.3515625 10.283203 A 1 1 0 0 0 7.984375 11.548828 L 8.0234375 11.5625 C 8.0075339 11.706387 8 11.852108 8 12 C 8 12.211861 8.0165722 12.419785 8.0488281 12.623047 L 7.9277344 12.671875 A 1 1 0 0 0 7.3710938 13.970703 A 1 1 0 0 0 8.671875 14.529297 L 8.8515625 14.457031 C 9.0914259 14.76311 9.3742999 15.033975 9.6914062 15.259766 L 9.6503906 15.382812 A 1 1 0 0 0 10.283203 16.648438 A 1 1 0 0 0 11.548828 16.015625 L 11.5625 15.976562 C 11.706387 15.992466 11.852108 16 12 16 C 12.211861 16 12.419785 15.983428 12.623047 15.951172 L 12.671875 16.072266 A 1 1 0 0 0 13.970703 16.628906 A 1 1 0 0 0 14.529297 15.328125 L 14.457031 15.148438 C 14.76311 14.908574 15.033975 14.6257 15.259766 14.308594 L 15.382812 14.349609 A 1 1 0 0 0 16.648438 13.716797 A 1 1 0 0 0 16.015625 12.451172 L 15.976562 12.4375 C 15.992466 12.293613 16 12.147892 16 12 C 16 11.788139 15.983428 11.580215 15.951172 11.376953 L 16.072266 11.328125 A 1 1 0 0 0 16.628906 10.029297 A 1 1 0 0 0 15.328125 9.4707031 L 15.148438 9.5429688 C 14.908574 9.2368897 14.6257 8.966025 14.308594 8.7402344 L 14.349609 8.6171875 A 1 1 0 0 0 13.716797 7.3515625 A 1 1 0 0 0 12.451172 7.984375 L 12.4375 8.0234375 C 12.293613 8.0075339 12.147892 8 12 8 C 11.788139 8 11.580215 8.0165722 11.376953 8.0488281 L 11.328125 7.9277344 A 1 1 0 0 0 10.412109 7.3007812 z M 12 10 C 12.731654 10 13.362454 10.379255 13.710938 10.955078 A 1 1 0 0 0 13.771484 11.171875 A 1 1 0 0 0 13.917969 11.423828 C 13.971399 11.605852 14 11.799106 14 12 C 14 12.731654 13.620745 13.362454 13.044922 13.710938 A 1 1 0 0 0 12.828125 13.771484 A 1 1 0 0 0 12.576172 13.917969 C 12.394148 13.971399 12.200894 14 12 14 C 11.268346 14 10.637546 13.620745 10.289062 13.044922 A 1 1 0 0 0 10.228516 12.828125 A 1 1 0 0 0 10.082031 12.576172 C 10.028601 12.394148 10 12.200894 10 12 C 10 11.268346 10.379255 10.637546 10.955078 10.289062 A 1 1 0 0 0 11.171875 10.228516 A 1 1 0 0 0 11.423828 10.082031 C 11.605852 10.028601 11.799106 10 12 10 z M 4 13 C 2.3549904 13 1 14.35499 1 16 L 1 20 C 1 21.64501 2.3549904 23 4 23 L 20 23 C 21.64501 23 23 21.64501 23 20 L 23 16 C 23 14.35499 21.64501 13 20 13 L 19.5 13 A 1 1 0 0 0 18.5 14 A 1 1 0 0 0 19.5 15 L 20 15 C 20.564129 15 21 15.435871 21 16 L 21 20 C 21 20.564129 20.564129 21 20 21 L 4 21 C 3.4358706 21 3 20.564129 3 20 L 3 16 C 3 15.435871 3.4358706 15 4 15 L 4.5 15 A 1 1 0 0 0 5.5 14 A 1 1 0 0 0 4.5 13 L 4 13 z M 6 17 A 1 1 0 0 0 5 18 A 1 1 0 0 0 6 19 L 6.0097656 19 A 1 1 0 0 0 7.0097656 18 A 1 1 0 0 0 6.0097656 17 L 6 17 z "/>
</svg>
