<?xml version="1.0" encoding="UTF-8" standalone="no"?>
<svg xmlns="http://www.w3.org/2000/svg" xmlns:svg="http://www.w3.org/2000/svg" width="24" height="24" viewBox="0 0 24 24" fill="currentColor" tags="cloud,storage" categories="development,devices">
  
  <path d="M 2 1 A 1 1 0 0 0 1.2929688 1.2929688 A 1 1 0 0 0 1.0878906 2.3984375 C 1.0841435 2.4192887 1.0796191 2.440254 1.0761719 2.4609375 C 0.97812632 3.0492107 1 3.7500025 1 5 L 1 8 C 1 9.6450064 2.3549936 11 4 11 L 9.5859375 11 L 11.585938 13 L 4 13 C 2.3549936 13 1 14.354994 1 16 L 1 20 C 1 21.645006 2.3549936 23 4 23 L 20.5 23 A 1.0001 1.0001 0 0 0 20.947266 22.894531 L 21.302734 22.716797 L 21.292969 22.707031 A 1 1 0 0 0 22.707031 22.707031 A 1 1 0 0 0 22.707031 21.292969 L 22.207031 20.792969 L 14.707031 13.292969 L 10.707031 9.2929688 L 3.2070312 1.7929688 L 2.7070312 1.2929688 A 1 1 0 0 0 2 1 z M 7 1 A 1 1 0 0 0 6 2 A 1 1 0 0 0 7 3 L 20 3 C 20.564128 3 21 3.4358718 21 4 L 21 8 C 21 8.5641282 20.564128 9 20 9 L 15 9 A 1 1 0 0 0 14 10 A 1 1 0 0 0 15 11 L 20 11 C 21.645006 11 23 9.6450064 23 8 L 23 4 C 23 2.3549936 21.645006 1 20 1 L 7 1 z M 3.0117188 4.4257812 L 7.5859375 9 L 4 9 C 3.4358718 9 3 8.5641282 3 8 L 3 5 C 3 4.675366 3.00906 4.6863019 3.0117188 4.4257812 z M 19 13 A 1 1 0 0 0 18 14 A 1 1 0 0 0 19 15 L 20 15 C 20.564128 15 21 15.435872 21 16 L 21 17 A 1 1 0 0 0 22 18 A 1 1 0 0 0 23 17 L 23 16 C 23 14.354994 21.645006 13 20 13 L 19 13 z M 4 15 L 13.585938 15 L 19.585938 21 L 4 21 C 3.4358718 21 3 20.564128 3 20 L 3 16 C 3 15.435872 3.4358718 15 4 15 z M 6 17 A 1 1 0 0 0 5 18 A 1 1 0 0 0 6 19 L 6.0097656 19 A 1 1 0 0 0 7.0097656 18 A 1 1 0 0 0 6.0097656 17 L 6 17 z "/>
</svg>
