<?xml version="1.0" encoding="UTF-8" standalone="no"?>
<svg xmlns="http://www.w3.org/2000/svg" xmlns:svg="http://www.w3.org/2000/svg" width="24" height="24" viewBox="0 0 24 24" fill="currentColor" tags="cloud,storage" categories="development,devices">
  <path d="M 4 1 C 2.3552972 1 1 2.3552972 1 4 L 1 8 C 1 9.6447028 2.3552972 11 4 11 L 20 11 C 21.644703 11 23 9.6447028 23 8 L 23 4 C 23 2.3552972 21.644703 1 20 1 L 4 1 z M 4 3 L 20 3 C 20.571297 3 21 3.4287028 21 4 L 21 8 C 21 8.5712972 20.571297 9 20 9 L 4 9 C 3.4287028 9 3 8.5712972 3 8 L 3 4 C 3 3.4287028 3.4287028 3 4 3 z M 6 5 A 1 1 0 0 0 5 6 A 1 1 0 0 0 6 7 L 6.0097656 7 A 1 1 0 0 0 7.0097656 6 A 1 1 0 0 0 6.0097656 5 L 6 5 z M 4 13 C 2.3552972 13 1 14.355297 1 16 L 1 20 C 1 21.644703 2.3552972 23 4 23 L 20 23 C 21.644703 23 23 21.644703 23 20 L 23 16 C 23 14.355297 21.644703 13 20 13 L 4 13 z M 4 15 L 20 15 C 20.571297 15 21 15.428703 21 16 L 21 20 C 21 20.571297 20.571297 21 20 21 L 4 21 C 3.4287028 21 3 20.571297 3 20 L 3 16 C 3 15.428703 3.4287028 15 4 15 z M 6 17 A 1 1 0 0 0 5 18 A 1 1 0 0 0 6 19 L 6.0097656 19 A 1 1 0 0 0 7.0097656 18 A 1 1 0 0 0 6.0097656 17 L 6 17 z "/>
</svg>
