<?xml version="1.0" encoding="UTF-8" standalone="no"?>
<svg xmlns="http://www.w3.org/2000/svg" xmlns:svg="http://www.w3.org/2000/svg" width="24" height="24" viewBox="0 0 24 24" fill="currentColor" tags="cloud,storage,computing,cog,gear" categories="development,devices">
  <path d="M 4 1 C 2.3549936 1 1 2.3549936 1 4 L 1 8 C 1 9.6450064 2.3549936 11 4 11 L 4.5 11 A 1 1 0 0 0 5.5 10 A 1 1 0 0 0 4.5 9 L 4 9 C 3.4358718 9 3 8.5641282 3 8 L 3 4 C 3 3.4358718 3.4358718 3 4 3 L 20 3 C 20.564128 3 21 3.4358718 21 4 L 21 8 C 21 8.5641282 20.564128 9 20 9 L 19.5 9 A 1 1 0 0 0 18.5 10 A 1 1 0 0 0 19.5 11 L 20 11 C 21.645006 11 23 9.6450064 23 8 L 23 4 C 23 2.3549936 21.645006 1 20 1 L 4 1 z M 6 5 A 1 1 0 0 0 5 6 A 1 1 0 0 0 6 7 L 6.0097656 7 A 1 1 0 0 0 7.0097656 6 A 1 1 0 0 0 6.0097656 5 L 6 5 z M 10.369141 7.3007812 A 1 1 0 0 0 10.029297 7.3710938 A 1 1 0 0 0 9.4707031 8.671875 L 9.5429688 8.8535156 C 9.2371752 9.0932236 8.9658701 9.3745835 8.7402344 9.6914062 L 8.6171875 9.6503906 A 1 1 0 0 0 7.3515625 10.283203 A 1 1 0 0 0 7.984375 11.548828 L 8.0253906 11.5625 C 8.009443 11.706582 8 11.851902 8 12 C 8 12.212161 8.0184355 12.419511 8.0507812 12.623047 L 7.9277344 12.671875 A 1 1 0 0 0 7.3710938 13.970703 A 1 1 0 0 0 8.671875 14.529297 L 8.8535156 14.457031 C 9.0932236 14.762825 9.3745835 15.03413 9.6914062 15.259766 L 9.6503906 15.382812 A 1 1 0 0 0 10.283203 16.648438 A 1 1 0 0 0 11.548828 16.015625 L 11.5625 15.974609 C 11.706582 15.990557 11.851902 16 12 16 C 12.212161 16 12.419511 15.981565 12.623047 15.949219 L 12.671875 16.072266 A 1 1 0 0 0 13.970703 16.628906 A 1 1 0 0 0 14.529297 15.328125 L 14.457031 15.146484 C 14.762825 14.906776 15.03413 14.625416 15.259766 14.308594 L 15.382812 14.349609 A 1 1 0 0 0 16.648438 13.716797 A 1 1 0 0 0 16.015625 12.451172 L 15.974609 12.4375 C 15.990557 12.293418 16 12.148098 16 12 C 16 11.787839 15.981565 11.580489 15.949219 11.376953 L 16.072266 11.328125 A 1 1 0 0 0 16.628906 10.029297 A 1 1 0 0 0 15.328125 9.4707031 L 15.146484 9.5429688 C 14.906776 9.2371752 14.625416 8.9658701 14.308594 8.7402344 L 14.349609 8.6171875 A 1 1 0 0 0 13.716797 7.3515625 A 1 1 0 0 0 12.451172 7.984375 L 12.4375 8.0253906 C 12.293418 8.009443 12.148098 8 12 8 C 11.787839 8 11.580489 8.0184355 11.376953 8.0507812 L 11.328125 7.9277344 A 1 1 0 0 0 10.369141 7.3007812 z M 12 10 C 12.735019 10 13.367379 10.38456 13.714844 10.964844 A 1 1 0 0 0 13.771484 11.171875 A 1 1 0 0 0 13.912109 11.412109 C 13.967762 11.597525 14 11.794815 14 12 C 14 12.735019 13.61544 13.367379 13.035156 13.714844 A 1 1 0 0 0 12.828125 13.771484 A 1 1 0 0 0 12.587891 13.912109 C 12.402475 13.967762 12.205185 14 12 14 C 11.266564 14 10.635057 13.617248 10.287109 13.039062 A 1 1 0 0 0 10.228516 12.828125 A 1 1 0 0 0 10.087891 12.587891 C 10.032238 12.402475 10 12.205185 10 12 C 10 11.264981 10.38456 10.632621 10.964844 10.285156 A 1 1 0 0 0 11.171875 10.228516 A 1 1 0 0 0 11.417969 10.085938 C 11.601684 10.031406 11.79697 10 12 10 z M 4 13 C 2.3549936 13 1 14.354994 1 16 L 1 20 C 1 21.645006 2.3549936 23 4 23 L 20 23 C 21.645006 23 23 21.645006 23 20 L 23 16 C 23 14.354994 21.645006 13 20 13 L 19.5 13 A 1 1 0 0 0 18.5 14 A 1 1 0 0 0 19.5 15 L 20 15 C 20.564128 15 21 15.435872 21 16 L 21 20 C 21 20.564128 20.564128 21 20 21 L 4 21 C 3.4358718 21 3 20.564128 3 20 L 3 16 C 3 15.435872 3.4358718 15 4 15 L 4.5 15 A 1 1 0 0 0 5.5 14 A 1 1 0 0 0 4.5 13 L 4 13 z M 6 17 A 1 1 0 0 0 5 18 A 1 1 0 0 0 6 19 L 6.0097656 19 A 1 1 0 0 0 7.0097656 18 A 1 1 0 0 0 6.0097656 17 L 6 17 z "/>
</svg>
