<?xml version="1.0" encoding="UTF-8" standalone="no"?>
<svg xmlns="http://www.w3.org/2000/svg" xmlns:svg="http://www.w3.org/2000/svg" width="24" height="24" viewBox="0 0 24 24" fill="currentColor" tags="cog,edit,gear,preferences" categories="account">
  <path d="M 7 3 C 4.8027056 3 3 4.8027056 3 7 C 3 9.1972944 4.8027056 11 7 11 C 8.8580685 11 10.432696 9.7110369 10.875 7.984375 A 1 1 0 0 0 11 8 L 20 8 A 1 1 0 0 0 21 7 A 1 1 0 0 0 20 6 L 11 6 A 1 1 0 0 0 10.875 6.015625 C 10.432696 4.2889631 8.8580685 3 7 3 z M 7 5 C 8.1164141 5 9 5.8835859 9 7 C 9 8.1164141 8.1164141 9 7 9 C 5.8835859 9 5 8.1164141 5 7 C 5 5.8835859 5.8835859 5 7 5 z M 17 13 C 15.147529 13 13.576679 14.281175 13.128906 16 L 5 16 A 1 1 0 0 0 4 17 A 1 1 0 0 0 5 18 L 13.128906 18 C 13.576679 19.718825 15.147529 21 17 21 C 19.197294 21 21 19.197294 21 17 C 21 14.802706 19.197294 13 17 13 z M 17 15 C 18.116414 15 19 15.883586 19 17 C 19 18.116414 18.116414 19 17 19 C 15.883586 19 15 18.116414 15 17 C 15 15.883586 15.883586 15 17 15 z "/>
</svg>
