<?xml version="1.0" encoding="UTF-8" standalone="no"?>
<svg xmlns="http://www.w3.org/2000/svg" xmlns:svg="http://www.w3.org/2000/svg" width="24" height="24" viewBox="0 0 24 24" fill="currentColor" tags="cog,edit,gear,preferences,slider" categories="account">
  <path d="M 7 3 C 4.8027056 3 3 4.8027056 3 7 C 3 9.1972944 4.8027056 11 7 11 C 8.8524261 11 10.42523 9.7187611 10.873047 8 L 19 8 A 1 1 0 0 0 20 7 A 1 1 0 0 0 19 6 L 10.873047 6 C 10.42523 4.2812389 8.8524261 3 7 3 z M 7 5 C 8.1164141 5 9 5.8835859 9 7 C 9 8.1164141 8.1164141 9 7 9 C 5.8835859 9 5 8.1164141 5 7 C 5 5.8835859 5.8835859 5 7 5 z M 17 13 C 15.147574 13 13.57477 14.281239 13.126953 16 L 5 16 A 1 1 0 0 0 4 17 A 1 1 0 0 0 5 18 L 13.126953 18 C 13.57477 19.718761 15.147574 21 17 21 C 19.197294 21 21 19.197294 21 17 C 21 14.802706 19.197294 13 17 13 z M 17 15 C 18.116414 15 19 15.883586 19 17 C 19 18.116414 18.116414 19 17 19 C 15.883588 19 15.000003 18.116411 15 17 C 15 15.883586 15.883586 15 17 15 z "/>
</svg>
