<?xml version="1.0" encoding="UTF-8" standalone="no"?>
<svg xmlns="http://www.w3.org/2000/svg" xmlns:svg="http://www.w3.org/2000/svg" width="24" height="24" viewBox="0 0 24 24" fill="currentColor" tags="cog,edit,gear,preferences" categories="account">
  <path d="M 12 1.0175781 C 10.473455 1.0175781 8.8556482 2.1487406 8.6757812 4.0410156 A 1 1 0 0 0 8.6777344 4.0429688 A 1 1 0 0 0 8.6738281 4.0488281 C 8.5891944 5.0058632 7.6423946 5.5502293 6.7714844 5.1445312 A 1.0001 1.0001 0 0 0 6.7617188 5.140625 C 5.0359362 4.3597573 3.2537265 5.193004 2.4921875 6.5117188 C 1.7306485 7.8304336 1.8985764 9.7920325 3.4375 10.896484 A 1.0001 1.0001 0 0 0 3.4472656 10.902344 C 4.23341 11.453957 4.23341 12.54409 3.4472656 13.095703 A 1.0001 1.0001 0 0 0 3.4394531 13.101562 C 1.8980856 14.205659 1.7298973 16.168832 2.4921875 17.488281 C 3.2544777 18.80773 5.0372621 19.643183 6.7636719 18.859375 A 1.0001 1.0001 0 0 0 6.7734375 18.853516 C 7.6445422 18.447247 8.5912877 18.993707 8.6757812 19.951172 A 1.0001 1.0001 0 0 0 8.6757812 19.957031 C 8.8556368 21.849226 10.473455 22.982422 12 22.982422 C 13.526545 22.982422 15.146305 21.849306 15.326172 19.957031 A 1.0001 1.0001 0 0 0 15.326172 19.951172 C 15.410812 18.994139 16.355652 18.447818 17.226562 18.853516 A 1.0001 1.0001 0 0 0 17.236328 18.859375 C 18.962738 19.643183 20.745522 18.807725 21.507812 17.488281 C 22.270104 16.168832 22.101914 14.20566 20.560547 13.101562 A 1.0001 1.0001 0 0 0 20.552734 13.095703 C 19.76659 12.54409 19.76659 11.453957 20.552734 10.902344 A 1.0001 1.0001 0 0 0 20.560547 10.896484 C 22.10188 9.7924674 22.270104 7.8311678 21.507812 6.5117188 C 20.745522 5.1922697 18.962738 4.3568174 17.236328 5.140625 A 1.0001 1.0001 0 0 0 17.226562 5.1445312 C 16.355653 5.5502293 15.410812 5.0058607 15.326172 4.0488281 A 1.0001 1.0001 0 0 0 15.326172 4.0410156 C 15.146339 2.1487343 13.526545 1.0175781 12 1.0175781 z M 12 3.0175781 C 12.668703 3.0175781 13.245348 3.29798 13.333984 4.2304688 C 13.538726 6.5001458 15.994727 7.9175601 18.0625 6.9609375 L 18.070312 6.9570312 C 18.915201 6.5772932 19.444737 6.9360091 19.777344 7.5117188 C 20.111025 8.0892888 20.155082 8.7280929 19.396484 9.2714844 C 17.537574 10.584039 17.537574 13.415961 19.396484 14.728516 C 20.155082 15.271907 20.111025 15.910711 19.777344 16.488281 C 19.444737 17.063991 18.915201 17.420766 18.070312 17.041016 L 18.0625 17.037109 C 15.992944 16.079658 13.53502 17.502285 13.333984 19.775391 C 13.242822 20.701539 12.66679 20.982422 12 20.982422 C 11.331297 20.982422 10.754652 20.700067 10.666016 19.767578 C 10.46004 17.499131 8.0044873 16.081086 5.9375 17.037109 C 5.9361314 17.037731 5.9349607 17.038445 5.9335938 17.039062 C 5.9317023 17.03994 5.9296252 17.040134 5.9277344 17.041016 C 5.0838298 17.419519 4.5550403 17.063605 4.2226562 16.488281 C 3.8901838 15.912804 3.8456444 15.276484 4.5957031 14.734375 L 4.6035156 14.728516 C 6.4624259 13.415961 6.4624259 10.584039 4.6035156 9.2714844 L 4.5957031 9.265625 C 3.847194 8.7235661 3.8925527 8.0886759 4.2246094 7.5136719 C 4.5578738 6.9365764 5.0885399 6.5787594 5.9375 6.9628906 L 5.9277344 6.9570312 C 7.9963882 7.9206753 10.457408 6.5035156 10.664062 4.2324219 A 1 1 0 0 0 10.666016 4.2304688 C 10.754605 3.2979767 11.331297 3.0175781 12 3.0175781 z M 12 8 C 9.8027056 8 8 9.8027056 8 12 C 8 14.197294 9.8027056 16 12 16 C 14.197294 16 16 14.197294 16 12 C 16 9.8027056 14.197294 8 12 8 z M 12 10 C 13.116414 10 14 10.883586 14 12 C 14 13.116414 13.116414 14 12 14 C 10.883586 14 10 13.116414 10 12 C 10 10.883586 10.883586 10 12 10 z "/>
</svg>
