<?xml version="1.0" encoding="UTF-8" standalone="no"?>
<svg xmlns="http://www.w3.org/2000/svg" xmlns:svg="http://www.w3.org/2000/svg" width="24" height="24" viewBox="0 0 24 24" fill="currentColor" tags="cog,edit,gear,preferences" categories="account">
  <path d="M 11.779297 1 C 10.134287 1 8.7792969 2.3549904 8.7792969 4 L 8.7792969 4.1796875 C 8.7789292 4.5381821 8.5897626 4.8656747 8.2792969 5.0449219 A 1.0001 1.0001 0 0 0 8.2773438 5.0449219 L 7.8476562 5.2949219 C 7.5372107 5.4733062 7.1597918 5.4740058 6.8496094 5.2949219 A 1.0001 1.0001 0 0 0 6.8203125 5.2773438 L 6.6992188 5.2128906 C 5.2760351 4.3919254 3.4289589 4.8868697 2.6054688 6.3085938 L 2.3847656 6.6894531 A 1.0001 1.0001 0 0 0 2.3828125 6.6894531 C 1.5723267 8.0944648 2.0456383 9.9133566 3.4257812 10.751953 L 3.5761719 10.851562 A 1.0001 1.0001 0 0 0 3.6308594 10.886719 C 3.9397532 11.06505 4.1287065 11.389425 4.1308594 11.746094 L 4.1308594 12.25 A 1.0001 1.0001 0 0 0 4.1308594 12.253906 C 4.1322894 12.614225 3.9429083 12.942889 3.6308594 13.123047 A 1.0001 1.0001 0 0 0 3.6152344 13.132812 L 3.4785156 13.214844 C 2.0567914 14.038334 1.5618472 15.887363 2.3828125 17.310547 A 1.0001 1.0001 0 0 0 2.3847656 17.310547 L 2.6054688 17.691406 C 3.4289588 19.11313 5.2760352 19.608075 6.6992188 18.787109 L 6.8203125 18.722656 A 1.0001 1.0001 0 0 0 6.8496094 18.705078 C 7.1603988 18.525644 7.5388199 18.525644 7.8496094 18.705078 L 8.2773438 18.955078 A 1.0001 1.0001 0 0 0 8.2792969 18.955078 C 8.5897626 19.134325 8.7789292 19.461818 8.7792969 19.820312 L 8.7792969 20 C 8.7792969 21.64501 10.134287 23 11.779297 23 L 12.220703 23 C 13.865713 23 15.220703 21.64501 15.220703 20 L 15.220703 19.820312 C 15.221071 19.461818 15.410237 19.134325 15.720703 18.955078 A 1.0001 1.0001 0 0 0 15.722656 18.955078 L 16.150391 18.705078 C 16.46118 18.525644 16.839601 18.525644 17.150391 18.705078 A 1.0001 1.0001 0 0 0 17.179688 18.722656 L 17.300781 18.787109 C 18.723965 19.608075 20.571041 19.11313 21.394531 17.691406 A 1.0001 1.0001 0 0 0 21.400391 17.681641 L 21.617188 17.298828 L 21.617188 17.296875 C 22.436695 15.873934 21.942607 14.02822 20.521484 13.205078 A 1.0001 1.0001 0 0 0 20.490234 13.1875 L 20.369141 13.123047 C 20.057092 12.942889 19.86771 12.614225 19.869141 12.253906 A 1.0001 1.0001 0 0 0 19.869141 12.251953 A 1.0001 1.0001 0 0 0 19.869141 12.25 L 19.869141 11.75 A 1.0001 1.0001 0 0 0 19.869141 11.748047 A 1.0001 1.0001 0 0 0 19.869141 11.746094 C 19.867741 11.385775 20.057092 11.057111 20.369141 10.876953 A 1.0001 1.0001 0 0 0 20.384766 10.867188 L 20.521484 10.785156 C 21.943209 9.9616663 22.438153 8.1126368 21.617188 6.6894531 A 1.0001 1.0001 0 0 0 21.615234 6.6894531 L 21.394531 6.3085938 C 20.571041 4.8868696 18.723965 4.3919254 17.300781 5.2128906 L 17.179688 5.2773438 A 1.0001 1.0001 0 0 0 17.150391 5.2949219 C 16.840208 5.4740058 16.462789 5.4733062 16.152344 5.2949219 L 16.150391 5.2949219 L 15.722656 5.0449219 A 1.0001 1.0001 0 0 0 15.720703 5.0449219 C 15.410237 4.8656747 15.221071 4.5381821 15.220703 4.1796875 L 15.220703 4 C 15.220703 2.3549904 13.865713 1 12.220703 1 L 11.779297 1 z M 11.779297 3 L 12.220703 3 C 12.784833 3 13.220703 3.4358706 13.220703 4 L 13.220703 4.1796875 A 1.0001 1.0001 0 0 0 13.220703 4.1816406 C 13.221803 5.2507428 13.794833 6.2408398 14.720703 6.7753906 L 14.716797 6.7753906 L 15.146484 7.0253906 A 1.0001 1.0001 0 0 0 15.150391 7.0253906 C 16.077205 7.5604874 17.223576 7.5604874 18.150391 7.0253906 L 18.121094 7.0429688 L 18.271484 6.9628906 A 1.0001 1.0001 0 0 0 18.298828 6.9453125 C 18.786827 6.6638097 19.381694 6.8230484 19.664062 7.3105469 L 19.882812 7.6894531 C 20.164323 8.177455 20.00703 8.772319 19.519531 9.0546875 A 1.0001 1.0001 0 0 0 19.505859 9.0625 L 19.369141 9.1445312 C 18.438653 9.6817374 17.864875 10.679486 17.869141 11.753906 L 17.869141 12.246094 C 17.864841 13.320514 18.438653 14.318263 19.369141 14.855469 A 1.0001 1.0001 0 0 0 19.398438 14.873047 L 19.521484 14.939453 C 20.005791 15.222769 20.163529 15.814145 19.882812 16.300781 A 1.0001 1.0001 0 0 0 19.878906 16.308594 L 19.664062 16.689453 C 19.381694 17.176952 18.786827 17.336191 18.298828 17.054688 A 1.0001 1.0001 0 0 0 18.271484 17.037109 L 18.121094 16.957031 L 18.150391 16.974609 C 17.223576 16.439513 16.077205 16.439513 15.150391 16.974609 A 1.0001 1.0001 0 0 0 15.146484 16.974609 L 14.716797 17.224609 L 14.720703 17.224609 C 13.794833 17.75916 13.2218 18.749257 13.220703 19.818359 A 1.0001 1.0001 0 0 0 13.220703 19.820312 L 13.220703 20 C 13.220703 20.564129 12.784833 21 12.220703 21 L 11.779297 21 C 11.215167 21 10.779297 20.564129 10.779297 20 L 10.779297 19.820312 A 1.0001 1.0001 0 0 0 10.779297 19.818359 C 10.778197 18.749257 10.205167 17.75916 9.2792969 17.224609 L 9.2832031 17.224609 L 8.8535156 16.974609 A 1.0001 1.0001 0 0 0 8.8496094 16.974609 C 7.9227945 16.439513 6.7764242 16.439513 5.8496094 16.974609 L 5.8789062 16.957031 L 5.7285156 17.037109 A 1.0001 1.0001 0 0 0 5.7011719 17.054688 C 5.2131531 17.336235 4.618306 17.176952 4.3359375 16.689453 L 4.1171875 16.310547 C 3.8356847 15.822548 3.9929703 15.22768 4.4804688 14.945312 A 1.0001 1.0001 0 0 0 4.4941406 14.9375 L 4.6308594 14.855469 C 5.5613472 14.318263 6.1351249 13.320514 6.1308594 12.246094 L 6.1308594 11.740234 A 1.0001 1.0001 0 0 0 6.1308594 11.738281 A 1.0001 1.0001 0 0 0 6.1308594 11.736328 A 1.0001 1.0001 0 0 0 6.1308594 11.734375 C 6.1244394 10.6706 5.5521437 9.6861748 4.6308594 9.1542969 L 4.6855469 9.1875 L 4.5351562 9.0878906 A 1.0001 1.0001 0 0 0 4.4804688 9.0546875 C 3.9929703 8.772319 3.8356847 8.177452 4.1171875 7.6894531 L 4.3359375 7.3105469 C 4.618306 6.8230484 5.213173 6.6638097 5.7011719 6.9453125 A 1.0001 1.0001 0 0 0 5.7285156 6.9628906 L 5.8789062 7.0429688 L 5.8496094 7.0253906 C 6.7764242 7.5604874 7.9227945 7.5604874 8.8496094 7.0253906 A 1.0001 1.0001 0 0 0 8.8535156 7.0253906 L 9.2832031 6.7753906 L 9.2792969 6.7753906 C 10.205167 6.2408399 10.7782 5.2507428 10.779297 4.1816406 A 1.0001 1.0001 0 0 0 10.779297 4.1796875 L 10.779297 4 C 10.779297 3.4358706 11.215167 3 11.779297 3 z M 12 8 C 9.8027056 8 8 9.8027056 8 12 C 8 14.197294 9.8027056 16 12 16 C 14.197294 16 16 14.197294 16 12 C 16 9.8027056 14.197294 8 12 8 z M 12 10 C 13.116414 10 14 10.883586 14 12 C 14 13.116414 13.116414 14 12 14 C 10.883586 14 10 13.116414 10 12 C 10 10.883586 10.883586 10 12 10 z "/>
</svg>
