<?xml version="1.0" encoding="UTF-8" standalone="no"?>
<svg xmlns="http://www.w3.org/2000/svg" xmlns:svg="http://www.w3.org/2000/svg" width="24" height="24" viewBox="0 0 24 24" fill="currentColor" tags="triangle,equilateral,square,circle,classification,different,collection,toy,blocks,learning" categories="shapes,gaming">
  <path d="M 11.951172 1.6699219 C 11.392929 1.6899592 10.844445 1.9638616 10.541016 2.4863281 L 6.8339844 8.3789062 C 6.1226911 9.4791491 7.0057466 11.027598 8.3027344 11 L 8.3046875 11 L 15.728516 11 A 1.0001 1.0001 0 0 0 15.732422 11 C 17.04531 10.9954 17.871328 9.4055503 17.121094 8.328125 L 13.447266 2.4277344 A 1.0001 1.0001 0 0 0 13.435547 2.4101562 C 13.097604 1.8928536 12.519046 1.6495391 11.951172 1.6699219 z M 12.011719 3.90625 L 15.183594 9 L 8.8046875 9 L 12.011719 3.90625 z M 4 13 C 2.9092972 13 2 13.909297 2 15 L 2 20 C 2 21.090703 2.9092972 22 4 22 L 9 22 C 10.090703 22 11 21.090703 11 20 L 11 15 C 11 13.909297 10.090703 13 9 13 L 4 13 z M 17.5 13 C 15.026563 13 13 15.026563 13 17.5 C 13 19.973437 15.026563 22 17.5 22 C 19.973437 22 22 19.973437 22 17.5 C 22 15.026563 19.973437 13 17.5 13 z M 4 15 L 9 15 L 9 20 L 4 20 L 4 15 z M 17.5 15 C 18.892557 15 20 16.107443 20 17.5 C 20 18.892557 18.892557 20 17.5 20 C 16.107443 20 15 18.892557 15 17.5 C 15 16.107443 16.107443 15 17.5 15 z "/>
</svg>
