<?xml version="1.0" encoding="UTF-8" standalone="no"?>
<svg xmlns="http://www.w3.org/2000/svg" xmlns:svg="http://www.w3.org/2000/svg" width="24" height="24" viewBox="0 0 24 24" fill="currentColor" tags="network,connections" categories="account,social">
  <path d="M 18 1 C 15.802706 1 14 2.8027056 14 5 C 14 5.3758377 14.053908 5.740235 14.152344 6.0859375 L 8.8359375 9.1894531 C 8.1095941 8.4566425 7.1050768 8 6 8 C 3.8027056 8 2 9.8027056 2 12 C 2 14.197294 3.8027056 16 6 16 C 7.1055599 16 8.1114737 15.54392 8.8378906 14.810547 L 14.154297 17.910156 C 14.055105 18.257086 14 18.622667 14 19 C 14 21.197294 15.802706 23 18 23 C 20.197294 23 22 21.197294 22 19 C 22 16.802706 20.197294 15 18 15 C 16.896415 15 15.89213 15.454472 15.166016 16.185547 L 9.8476562 13.085938 C 9.9460919 12.740235 10 12.375838 10 12 C 10 11.624162 9.9460919 11.259765 9.8476562 10.914062 L 15.164062 7.8105469 C 15.890406 8.5433575 16.894923 9 18 9 C 20.197294 9 22 7.1972944 22 5 C 22 2.8027056 20.197294 1 18 1 z M 18 3 C 19.116414 3 20 3.8835859 20 5 C 20 6.1164141 19.116414 7 18 7 C 17.287263 7 16.670024 6.6388176 16.316406 6.0878906 A 1 1 0 0 0 16.316406 6.0859375 A 1 1 0 0 0 16.273438 6.0058594 A 1 1 0 0 0 16.242188 5.9648438 A 1 1 0 0 0 16.238281 5.9589844 C 16.085565 5.6754388 16 5.3488794 16 5 C 16 3.8835859 16.883586 3 18 3 z M 6 10 C 6.7318556 10 7.3625146 10.380941 7.7109375 10.957031 A 1 1 0 0 0 7.7265625 10.994141 A 1 1 0 0 0 7.7578125 11.035156 C 7.7589393 11.03723 7.7605991 11.038937 7.7617188 11.041016 C 7.9144346 11.324561 8 11.651121 8 12 C 8 12.351437 7.9126281 12.67985 7.7578125 12.964844 A 1 1 0 0 0 7.7265625 13.005859 A 1 1 0 0 0 7.7109375 13.042969 C 7.3625146 13.619059 6.7318556 14 6 14 C 4.8835859 14 4 13.116414 4 12 C 4 10.883586 4.8835859 10 6 10 z M 18 17 C 19.116414 17 20 17.883586 20 19 C 20 20.116414 19.116414 21 18 21 C 16.883586 21 16 20.116414 16 19 C 16 18.662113 16.080779 18.345552 16.224609 18.068359 A 1 1 0 0 0 16.283203 17.994141 A 1 1 0 0 0 16.34375 17.869141 C 16.701442 17.342294 17.30578 17 18 17 z "/>
</svg>
