<?xml version="1.0" encoding="UTF-8" standalone="no"?>
<svg xmlns="http://www.w3.org/2000/svg" xmlns:svg="http://www.w3.org/2000/svg" width="24" height="24" viewBox="0 0 24 24" fill="currentColor" tags="network,connections" categories="account,social">
  <path d="M 18 1 C 15.802706 1 14 2.8027056 14 5 C 14 5.3755905 14.054033 5.7404379 14.152344 6.0859375 C 14.152516 6.086544 14.152171 6.0872842 14.152344 6.0878906 L 8.8359375 9.1894531 C 8.1095931 8.4566348 7.1050834 8 6 8 C 3.8027056 8 2 9.8027056 2 12 C 2 14.197294 3.8027056 16 6 16 C 7.1052829 16 8.1115158 15.543598 8.8378906 14.810547 L 14.152344 17.908203 C 14.052903 18.255534 14 18.622177 14 19 C 14 21.197294 15.802706 23 18 23 C 20.197294 23 22 21.197294 22 19 C 22 16.802706 20.197294 15 18 15 C 16.896531 15 15.892112 15.454607 15.166016 16.185547 L 9.8496094 13.085938 C 9.9481543 12.740057 10 12.376054 10 12 C 10 11.62441 9.945967 11.259562 9.8476562 10.914062 C 9.8474837 10.913456 9.8478291 10.912716 9.8476562 10.912109 L 15.164062 7.8105469 C 15.890407 8.5433651 16.894917 9 18 9 C 20.197294 9 22 7.1972944 22 5 C 22 2.8027056 20.197294 1 18 1 z M 18 3 C 19.116414 3 20 3.8835859 20 5 C 20 6.1164141 19.116414 7 18 7 C 17.289612 7 16.672546 6.6416054 16.318359 6.09375 A 1 1 0 0 0 16.273438 6.0058594 A 1 1 0 0 0 16.222656 5.9277344 C 16.080127 5.6515045 16 5.3362522 16 5 C 16 3.8835859 16.883586 3 18 3 z M 6 10 C 6.7103862 10 7.3274537 10.358397 7.6816406 10.90625 A 1 1 0 0 0 7.7265625 10.994141 A 1 1 0 0 0 7.7773438 11.072266 C 7.9198714 11.348495 8 11.663749 8 12 C 8 12.336251 7.9198714 12.651505 7.7773438 12.927734 A 1 1 0 0 0 7.7265625 13.005859 A 1 1 0 0 0 7.6816406 13.09375 C 7.3274537 13.641603 6.7103862 14 6 14 C 4.8835859 14 4 13.116414 4 12 C 4 10.883586 4.8835859 10 6 10 z M 18 17 C 19.116414 17 20 17.883586 20 19 C 20 20.116414 19.116414 21 18 21 C 16.883586 21 16 20.116414 16 19 C 16 18.679358 16.072772 18.378142 16.203125 18.111328 A 1 1 0 0 0 16.283203 17.994141 A 1 1 0 0 0 16.347656 17.863281 C 16.705722 17.338948 17.307725 17 18 17 z "/>
</svg>
