<svg xmlns="http://www.w3.org/2000/svg" xmlns:svg="http://www.w3.org/2000/svg" width="24" height="24" viewBox="0 0 24 24" fill="currentColor" tags="beach,sand,holiday,sealife,fossil,ammonite,biology,ocean,terminal,command line,session,bash,zsh,roll,wrap,chewing gum,bubble gum,sweet,sugar,hosepipe,carpet,string,spiral,spinner,hypnotise,hypnosis" categories="animals,development,nature,science,travel,food-beverage,home">
  <path d="M 6.0546875 1.8632812 C 5.9557933 1.8621555 5.8565415 1.8656479 5.7558594 1.875 C 4.9577512 1.9491345 4.1502798 2.416676 3.609375 3.2011719 C 1.9151222 5.4485518 0.99601847 8.1869627 1 11.001953 C 1.0010826 17.064332 5.9373784 22 12 22 C 18.063287 22 23 17.063291 23 11 C 23 6.0412792 18.958717 2 14 2 C 12.000132 2 10.244546 2.7847936 8.7480469 3.8945312 C 8.5333745 3.3849781 8.3299133 2.852968 7.9082031 2.5273438 C 7.3906076 2.1276813 6.7469467 1.8711613 6.0546875 1.8632812 z M 6.0292969 3.8632812 C 6.2395284 3.867881 6.4816186 3.9538644 6.6855469 4.1113281 C 6.9186078 4.2912865 7.0741018 4.5452945 7.1113281 4.7714844 C 7.1485541 4.9976742 7.1275191 5.2186458 6.828125 5.5605469 A 1 1 0 0 0 6.8457031 5.8183594 C 5.7667608 7.3025284 5 9.0308671 5 11 C 5 14.854151 8.1458524 18 12 18 C 15.854148 18 19 14.854151 19 11 C 19 9.4166671 18.370244 8.1018922 17.414062 7.2519531 C 16.457881 6.402014 15.222222 6 14 6 C 12.777778 6 11.542119 6.402014 10.585938 7.2519531 C 9.6297551 8.1018922 9 9.4166671 9 11 C 9 11.916666 9.3797556 12.731441 9.9609375 13.248047 C 10.542119 13.764653 11.277778 14 12 14 C 12.722222 14 13.45788 13.764653 14.039062 13.248047 C 14.620243 12.731441 15 11.916666 15 11 A 1 1 0 0 0 14 10 A 1 1 0 0 0 13 11 C 13 11.416666 12.879756 11.601893 12.710938 11.751953 C 12.542118 11.902014 12.277778 12 12 12 C 11.722222 12 11.45788 11.902014 11.289062 11.751953 C 11.120243 11.601893 11 11.416666 11 11 C 11 9.9166674 11.370244 9.2314405 11.914062 8.7480469 C 12.45788 8.2646532 13.222222 8 14 8 C 14.777778 8 15.54212 8.2646532 16.085938 8.7480469 C 16.629756 9.2314405 17 9.9166674 17 11 C 17 13.773271 14.773269 16 12 16 C 9.2267307 16 7 13.773271 7 11 C 7 7.1221588 10.122161 4 14 4 C 17.877839 4 21 7.1221588 21 11 C 21 15.982411 16.982408 20 12 20 C 7.0175918 20 3 15.982411 3 11 A 1.0001 1.0001 0 0 0 3 10.998047 C 2.9966223 8.6100141 3.7749145 6.2864698 5.2167969 4.3828125 A 1.0001 1.0001 0 0 0 5.2480469 4.3417969 C 5.503093 3.9656532 5.7131561 3.8883891 5.9414062 3.8671875 C 5.9699375 3.8645373 5.9992638 3.8626241 6.0292969 3.8632812 z "/>
</svg>
