<?xml version="1.0" encoding="UTF-8" standalone="no"?>
<svg xmlns="http://www.w3.org/2000/svg" xmlns:svg="http://www.w3.org/2000/svg" width="24" height="24" viewBox="0 0 24 24" fill="currentColor" tags="shield,user,admin,protection,protected,safety,guard" categories="account,security,development">
  <path d="M 12 1.0039062 C 11.496809 1.0039064 10.993034 1.17506 10.589844 1.5195312 A 1.0001 1.0001 0 0 0 10.582031 1.5273438 C 9.0030437 2.9066805 6.6 4 5 4 C 3.9072751 4 3 4.9072751 3 6 L 3 13 C 3 15.733333 4.0010335 17.910697 5.5566406 19.503906 C 7.1078654 21.092627 9.1607469 22.127341 11.326172 22.876953 C 11.755553 23.03542 12.226567 23.043413 12.660156 22.896484 A 1.0001 1.0001 0 0 0 12.669922 22.894531 C 14.753787 22.168184 16.732844 21.174989 18.263672 19.681641 A 1 1 0 0 0 18.365234 19.583984 C 18.391889 19.557249 18.418945 19.530959 18.445312 19.503906 C 19.999087 17.909769 21 15.733333 21 13 L 21 6 C 21 4.9072751 20.092725 4 19 4 C 17.396667 4 15.007538 2.9170812 13.417969 1.5273438 A 1.0001 1.0001 0 0 0 13.410156 1.5195312 C 13.006953 1.1750576 12.503191 1.0039062 12 1.0039062 z M 12 2.9960938 C 12.038422 2.9960938 12.076845 3.0115541 12.111328 3.0410156 C 14.020875 4.7074119 16.607167 6 19 6 L 19 13 C 19 14.711535 18.57178 16.027392 17.830078 17.115234 C 17.156682 16.091311 16.257801 15.313233 15.248047 14.791016 C 16.318315 13.872102 17 12.512375 17 11 C 17 8.2504209 14.749579 6 12 6 C 9.2504209 6 7 8.2504209 7 11 C 7 12.512375 7.681685 13.872102 8.7519531 14.791016 C 7.742783 15.313373 6.8431415 16.09163 6.1699219 17.115234 C 5.4275611 16.027914 5 14.712225 5 13 L 5 6 C 7.3961543 6 9.9884686 4.6978838 11.888672 3.0410156 C 11.923157 3.0115541 11.961578 2.9960938 12 2.9960938 z M 12 8 C 13.668699 8 15 9.3313011 15 11 C 15 12.668048 13.669737 13.998961 12.001953 14 L 12 14 C 10.331301 14 9 12.668699 9 11 C 9 9.3313011 10.331301 8 12 8 z M 12 16 L 12.001953 16 C 13.768294 16.000471 15.49566 16.851028 16.419922 18.652344 C 15.240125 19.646025 13.711493 20.411438 12.019531 21.001953 A 1.0001 1.0001 0 0 0 11.996094 20.994141 C 10.297058 20.407412 8.7628827 19.64237 7.5800781 18.648438 C 8.5052996 16.848503 10.234339 16.000157 12 16 z "/>
</svg>
