<?xml version="1.0" encoding="UTF-8" standalone="no"?>
<svg xmlns="http://www.w3.org/2000/svg" xmlns:svg="http://www.w3.org/2000/svg" width="24" height="24" viewBox="0 0 24 24" fill="currentColor" tags="unshielded,cybersecurity,insecure,unsecured,safety,unsafe,protection,unprotected,guardian,unguarded,unarmored,unarmoured,defenseless,defenceless,undefended,defender,threat,prevention,unprevented,antivirus,vigilance,vigilant,detection,undetected,scan,find,exploit,vulnerability,vulnerable,weakness,infection,comprimised,data leak,audit,admin,verification,unverified,uncertified,uncertain,unknown,inactive,crest,question mark,?" categories="account,security,development,gaming">
  <path d="M 12 1.0039062 C 11.496809 1.0039064 10.993034 1.17506 10.589844 1.5195312 A 1.0001 1.0001 0 0 0 10.582031 1.5273438 C 9.0030437 2.9066805 6.6 4 5 4 C 3.9072751 4 3 4.9072751 3 6 L 3 13 C 3 15.733333 4.0010335 17.910697 5.5566406 19.503906 C 7.1078654 21.092627 9.1607469 22.127341 11.326172 22.876953 C 11.755553 23.03542 12.226567 23.043413 12.660156 22.896484 A 1.0001 1.0001 0 0 0 12.669922 22.894531 C 14.836283 22.139429 16.891504 21.098092 18.445312 19.503906 C 19.999087 17.909769 21 15.733333 21 13 L 21 6 C 21 4.9072751 20.092725 4 19 4 C 17.396667 4 15.007538 2.9170812 13.417969 1.5273438 A 1.0001 1.0001 0 0 0 13.410156 1.5195312 C 13.006953 1.1750576 12.503191 1.0039062 12 1.0039062 z M 12 2.9960938 C 12.038422 2.9960938 12.076845 3.0115541 12.111328 3.0410156 C 14.020875 4.7074119 16.607167 6 19 6 L 19 13 C 19 15.266667 18.249863 16.839107 17.013672 18.107422 C 15.779251 19.37392 14.009684 20.307365 12.019531 21.001953 A 1.0001 1.0001 0 0 0 11.996094 20.994141 C 9.9982736 20.304233 8.223221 19.37226 6.9863281 18.105469 C 5.7494352 16.838678 5 15.266667 5 13 L 5 6 C 7.3961543 6 9.9884686 4.6978838 11.888672 3.0410156 C 11.923157 3.0115541 11.961578 2.9960938 12 2.9960938 z M 11.943359 6.0234375 C 10.402211 6.0190066 8.7975114 6.901686 8.1601562 8.6582031 A 1 1 0 0 0 8.7597656 9.9394531 A 1 1 0 0 0 10.039062 9.3417969 C 10.451565 8.2049596 11.355764 7.8977434 12.257812 8.0527344 C 13.157953 8.2073976 13.905484 8.7977918 13.917969 10.001953 C 13.916669 10.50119 13.486265 11.003948 12.865234 11.417969 C 12.243242 11.83263 11.603516 12.050781 11.603516 12.050781 A 1 1 0 0 0 10.970703 13.316406 A 1 1 0 0 0 12.236328 13.949219 C 12.236328 13.949219 13.096602 13.66737 13.974609 13.082031 C 14.852617 12.496693 15.919922 11.5 15.919922 10 A 1.0001 1.0001 0 0 0 15.919922 9.9980469 A 1.0001 1.0001 0 0 0 15.919922 9.9960938 A 1.0001 1.0001 0 0 0 15.919922 9.9941406 A 1.0001 1.0001 0 0 0 15.919922 9.9921875 C 15.903354 7.8567345 14.313894 6.3749643 12.597656 6.0800781 C 12.383127 6.0432173 12.163523 6.0240705 11.943359 6.0234375 z M 12 16 A 1 1 0 0 0 11 17 A 1 1 0 0 0 12 18 L 12.009766 18 A 1 1 0 0 0 13.009766 17 A 1 1 0 0 0 12.009766 16 L 12 16 z "/>
</svg>
