<svg xmlns="http://www.w3.org/2000/svg" xmlns:svg="http://www.w3.org/2000/svg" width="24" height="24" viewBox="0 0 24 24" fill="currentColor" tags="unshielded,cybersecurity,insecure,unsecured,safety,unsafe,protection,unprotected,guardian,unguarded,unarmored,unarmoured,defenseless,defenceless,undefended,defender,interception,threat,prevention,unprevented,antivirus,detection,undetected,exploit,vulnerability,vulnerable,weakness,infected,infection,comprimised,data leak,unaudited,admin,verification,unverified,inactive,cancelled,error,crest,bravery,damaged,injured,hit,expired,eliminated" categories="account,security,development,gaming">
  <path d="M 2 1 A 1 1 0 0 0 1.2929688 1.2929688 A 1 1 0 0 0 1.2929688 2.7070312 L 3.3984375 4.8125 C 3.1490182 5.1461632 3 5.5577027 3 6 L 3 13 C 3 15.733333 4.0010335 17.910697 5.5566406 19.503906 C 7.1078654 21.092627 9.1607469 22.127341 11.326172 22.876953 C 11.755553 23.03542 12.226567 23.043413 12.660156 22.896484 A 1.0001 1.0001 0 0 0 12.669922 22.894531 C 14.758389 22.165789 16.744064 21.174221 18.271484 19.685547 L 21.292969 22.707031 A 1 1 0 0 0 22.707031 22.707031 A 1 1 0 0 0 22.707031 21.292969 L 18.980469 17.566406 A 1 1 0 0 0 18.914062 17.5 L 5.7167969 4.3027344 A 1 1 0 0 0 5.6972656 4.2832031 L 2.7070312 1.2929688 A 1 1 0 0 0 2 1 z M 12 1.0039062 C 11.496809 1.0039064 10.993034 1.17506 10.589844 1.5195312 A 1.0001 1.0001 0 0 0 10.583984 1.5253906 C 10.034978 2.0016889 9.4409877 2.4234141 8.8105469 2.7851562 A 1 1 0 0 0 8.4414062 4.1503906 A 1 1 0 0 0 9.8066406 4.5195312 C 10.549139 4.0934913 11.247894 3.5961148 11.894531 3.0351562 C 11.962305 2.981499 12.044458 2.9838842 12.111328 3.0410156 C 14.020916 4.7074112 16.607167 6 19 6 L 19 13 A 1.0001 1.0001 0 0 0 19 13.001953 C 19.000593 13.381377 18.976164 13.760397 18.927734 14.136719 A 1 1 0 0 0 19.792969 15.255859 A 1 1 0 0 0 20.912109 14.392578 C 20.971564 13.930526 21.000728 13.463861 21 12.998047 L 21 6 C 21 4.9072751 20.092725 4 19 4 C 17.396667 4 15.007538 2.9170812 13.417969 1.5273438 A 1.0001 1.0001 0 0 0 13.410156 1.5195312 C 13.006953 1.1750576 12.503191 1.0039062 12 1.0039062 z M 5 6.4140625 L 16.853516 18.267578 C 15.623267 19.452211 13.928648 20.334745 12.019531 21.001953 A 1.0001 1.0001 0 0 0 11.996094 20.994141 C 9.9982397 20.304281 8.223221 19.37226 6.9863281 18.105469 C 5.7494352 16.838678 5 15.266667 5 13 L 5 6.4140625 z "/>
</svg>
