<?xml version="1.0" encoding="UTF-8" standalone="no"?>
<svg xmlns="http://www.w3.org/2000/svg" xmlns:svg="http://www.w3.org/2000/svg" width="24" height="24" viewBox="0 0 24 24" fill="currentColor" tags="unshielded,cybersecurity,insecure,unsecured,safety,unsafe,protection,unprotected,guardian,unguarded,unarmored,unarmoured,defenseless,defenceless,undefended,defender,threat,prevention,unprevented,antivirus,vigilance,vigilant,detection,undetected,scan,find,exploit,vulnerability,vulnerable,weakness,infection,comprimised,data leak,audit,admin,verification,unverified,uncertified,uncertain,unknown,inactive,crest,question mark,?" categories="account,security,development,gaming">
  <path d="M 12 1.0039062 C 11.49681 1.0039063 10.993033 1.1750607 10.589844 1.5195312 A 1.0001 1.0001 0 0 0 10.582031 1.5273438 C 9.0030468 2.9066779 6.5999968 4 5 4 C 3.9072773 4 3 4.9072773 3 6 L 3 13 C 3 15.733328 4.0010367 17.910701 5.5566406 19.503906 C 7.1078624 21.092624 9.1607512 22.127342 11.326172 22.876953 C 11.755552 23.03542 12.226569 23.043413 12.660156 22.896484 A 1.0001 1.0001 0 0 0 12.669922 22.894531 C 14.836245 22.139479 16.891507 21.098089 18.445312 19.503906 C 19.999119 17.909724 21 15.733328 21 13 L 21 6 C 21 4.9072773 20.092723 4 19 4 C 17.39667 4 15.007534 2.9170784 13.417969 1.5273438 A 1.0001 1.0001 0 0 0 13.410156 1.5195312 C 13.006954 1.1750582 12.50319 1.0039062 12 1.0039062 z M 12 2.9960938 C 12.038422 2.9960938 12.076845 3.0115542 12.111328 3.0410156 C 14.020871 4.7074086 16.607171 6 19 6 L 19 13 C 19 15.266662 18.249861 16.83911 17.013672 18.107422 C 15.779253 19.373918 14.00968 20.307367 12.019531 21.001953 A 1.0001 1.0001 0 0 0 11.996094 20.994141 C 9.9982776 20.304234 8.2232186 19.372256 6.9863281 18.105469 C 5.7494378 16.83868 5 15.266662 5 13 L 5 6 C 7.3961495 6 9.9884724 4.6978805 11.888672 3.0410156 C 11.923157 3.0115542 11.961578 2.9960938 12 2.9960938 z M 11.943359 6.0234375 C 10.402213 6.0190071 8.7975102 6.9016895 8.1601562 8.6582031 A 1 1 0 0 0 8.7597656 9.9394531 A 1 1 0 0 0 10.039062 9.3417969 C 10.451564 8.2049618 11.355766 7.8977436 12.257812 8.0527344 C 13.157951 8.2073973 13.905484 8.7977942 13.917969 10.001953 C 13.916669 10.501189 13.486264 11.003949 12.865234 11.417969 C 12.243244 11.832629 11.603516 12.050781 11.603516 12.050781 A 1 1 0 0 0 10.970703 13.316406 A 1 1 0 0 0 12.236328 13.949219 C 12.236328 13.949219 13.096604 13.667369 13.974609 13.082031 C 14.852615 12.496694 15.919922 11.499997 15.919922 10 A 1.0001 1.0001 0 0 0 15.919922 9.9980469 A 1.0001 1.0001 0 0 0 15.919922 9.9960938 A 1.0001 1.0001 0 0 0 15.919922 9.9941406 A 1.0001 1.0001 0 0 0 15.919922 9.9921875 C 15.903354 7.8567388 14.313891 6.3749637 12.597656 6.0800781 C 12.383127 6.0432174 12.163523 6.0240704 11.943359 6.0234375 z M 12 16 A 1 1 0 0 0 11 17 A 1 1 0 0 0 12 18 L 12.009766 18 A 1 1 0 0 0 13.009766 17 A 1 1 0 0 0 12.009766 16 L 12 16 z "/>
</svg>
