<?xml version="1.0" encoding="UTF-8" standalone="no"?>
<svg xmlns="http://www.w3.org/2000/svg" xmlns:svg="http://www.w3.org/2000/svg" width="24" height="24" viewBox="0 0 24 24" fill="currentColor" tags="unshielded,cybersecurity,insecure,unsecured,safety,unsafe,protection,unprotected,guardian,unguarded,unarmored,unarmoured,defenseless,defenceless,undefended,defender,blocked,stopped,intercepted,interception,saved,thwarted,threat,prevention,unprevented,antivirus,vigilance,vigilant,detection,detected,scanned,found,exploit,vulnerability,vulnerable,weakness,infection,infected,comprimised,data leak,audited,admin,verification,unverified,uncertified,cancel,error,crest,bravery,attacked,damaged,injured,hit,expired,eliminated,disabled,inactive,/" categories="account,security,development,gaming">
  <path d="M 12 1.0039062 C 11.496809 1.0039064 10.993034 1.17506 10.589844 1.5195312 A 1.0001 1.0001 0 0 0 10.582031 1.5273438 C 9.0030437 2.9066805 6.6 4 5 4 C 4.6749611 4 4.3669735 4.0811013 4.09375 4.2226562 A 1 1 0 0 0 3.4882812 4.5546875 A 1 1 0 0 0 3.2617188 5.0195312 C 3.0952516 5.3104389 3 5.6453426 3 6 L 3 13 C 3 15.733333 4.0010335 17.910697 5.5566406 19.503906 C 7.1078654 21.092627 9.1607469 22.127341 11.326172 22.876953 C 11.755553 23.03542 12.226567 23.043413 12.660156 22.896484 A 1.0001 1.0001 0 0 0 12.669922 22.894531 C 14.836283 22.139429 16.891504 21.098092 18.445312 19.503906 C 19.999087 17.909769 21 15.733333 21 13 L 21 6 C 21 4.9072751 20.092725 4 19 4 C 17.396667 4 15.007538 2.9170812 13.417969 1.5273438 A 1.0001 1.0001 0 0 0 13.410156 1.5195312 C 13.006953 1.1750576 12.503191 1.0039062 12 1.0039062 z M 12 2.9960938 C 12.038422 2.9960938 12.076845 3.0115541 12.111328 3.0410156 C 14.020875 4.7074119 16.607167 6 19 6 L 19 13 C 19 14.23004 18.778512 15.25517 18.378906 16.138672 L 6.4980469 5.8417969 C 8.4345054 5.4475879 10.380168 4.3563444 11.888672 3.0410156 C 11.923157 3.0115541 11.961578 2.9960938 12 2.9960938 z M 5 7.1894531 L 17.273438 17.826172 C 17.273094 17.82656 17.273781 17.827737 17.273438 17.828125 C 17.189171 17.923241 17.10313 18.015639 17.013672 18.107422 C 15.779251 19.37392 14.009684 20.307365 12.019531 21.001953 A 1.0001 1.0001 0 0 0 11.996094 20.994141 C 9.9982736 20.304233 8.223221 19.37226 6.9863281 18.105469 C 5.7494352 16.838678 5 15.266667 5 13 L 5 7.1894531 z "/>
</svg>
