<?xml version="1.0" encoding="UTF-8" standalone="no"?>
<svg xmlns="http://www.w3.org/2000/svg" xmlns:svg="http://www.w3.org/2000/svg" width="24" height="24" viewBox="0 0 24 24" fill="currentColor" tags="unshielded,cybersecurity,insecure,unsecured,safety,unsafe,protection,unprotected,guardian,unguarded,unarmored,unarmoured,defenseless,defenceless,undefended,defender,blocked,stopped,intercepted,interception,saved,thwarted,threat,prevention,unprevented,antivirus,vigilance,vigilant,detection,detected,scanned,found,exploit,vulnerability,vulnerable,weakness,infection,infected,comprimised,data leak,audited,admin,verification,unverified,uncertified,cancel,error,crest,bravery,attacked,damaged,injured,hit,expired,eliminated,disabled,inactive,/" categories="account,security,development,gaming">
  <path d="M 12 1.0039062 C 11.49681 1.0039063 10.993033 1.1750607 10.589844 1.5195312 A 1.0001 1.0001 0 0 0 10.582031 1.5273438 C 9.0030468 2.9066779 6.5999968 4 5 4 C 4.6560428 4 4.3315715 4.0907722 4.046875 4.2480469 A 1 1 0 0 0 3.4882812 4.5546875 A 1 1 0 0 0 3.2832031 4.9882812 C 3.1049192 5.2866786 3 5.6319387 3 6 L 3 13 C 3 15.733328 4.0010367 17.910701 5.5566406 19.503906 C 7.1078624 21.092624 9.1607512 22.127342 11.326172 22.876953 C 11.755552 23.03542 12.226569 23.043413 12.660156 22.896484 A 1.0001 1.0001 0 0 0 12.669922 22.894531 C 14.836245 22.139479 16.891507 21.098089 18.445312 19.503906 C 19.999119 17.909724 21 15.733328 21 13 L 21 6 C 21 4.9072773 20.092723 4 19 4 C 17.39667 4 15.007534 2.9170784 13.417969 1.5273438 A 1.0001 1.0001 0 0 0 13.410156 1.5195312 C 13.006954 1.1750582 12.50319 1.0039062 12 1.0039062 z M 12 2.9960938 C 12.038422 2.9960938 12.076845 3.0115542 12.111328 3.0410156 C 14.020871 4.7074086 16.607171 6 19 6 L 19 13 C 19 14.229467 18.776208 15.253495 18.376953 16.136719 L 6.4960938 5.8398438 C 8.4336324 5.4461996 10.379321 4.3570832 11.888672 3.0410156 C 11.923157 3.0115542 11.961578 2.9960938 12 2.9960938 z M 5 7.1894531 L 17.269531 17.822266 C 17.184856 17.917891 17.103592 18.015165 17.013672 18.107422 C 15.779253 19.373918 14.00968 20.307367 12.019531 21.001953 A 1.0001 1.0001 0 0 0 11.996094 20.994141 C 9.9982776 20.304234 8.2232186 19.372256 6.9863281 18.105469 C 5.7494378 16.83868 5 15.266662 5 13 L 5 7.1894531 z "/>
</svg>
