<?xml version="1.0" encoding="UTF-8" standalone="no"?>
<svg xmlns="http://www.w3.org/2000/svg" xmlns:svg="http://www.w3.org/2000/svg" width="24" height="24" viewBox="0 0 24 24" fill="currentColor" tags="unshielded,cybersecurity,insecure,unsecured,safety,unsafe,protection,unprotected,guardian,unguarded,unarmored,unarmoured,defenseless,defenceless,undefended,defender,blocked,stopped,intercepted,interception,saved,thwarted,threat,prevention,unprevented,antivirus,vigilance,vigilant,detection,detected,scanned,found,exploit,vulnerability,vulnerable,weakness,infection,infected,comprimised,data leak,audited,admin,verification,unverified,uncertified,cancel,error,crest,bravery,attacked,damaged,injured,hit,expired,eliminated,disabled,inactive,/" categories="account,security,development,gaming">
  
  <path d="M 12 1 A 1.0001 1.0001 0 0 0 11.648438 1.0644531 L 3.6484375 4.0644531 A 1.0001 1.0001 0 0 0 3.6074219 4.0898438 A 1 1 0 0 0 3.4199219 4.2070312 A 1.0001 1.0001 0 0 0 3.28125 4.3183594 A 1 1 0 0 0 3.2402344 4.3496094 A 1 1 0 0 0 3.1601562 4.4921875 A 1.0001 1.0001 0 0 0 3.0722656 4.6484375 A 1 1 0 0 0 3.0273438 4.8632812 A 1.0001 1.0001 0 0 0 3 5 L 3 12 C 3 15.444438 5.2352415 18.158717 7.3417969 20.001953 C 9.4483522 21.845189 11.552734 22.894531 11.552734 22.894531 A 1 1 0 0 0 11.626953 22.900391 A 1 1 0 0 0 12 22.925781 A 1 1 0 0 0 12.373047 22.900391 A 1 1 0 0 0 12.447266 22.894531 C 12.447266 22.894531 14.551648 21.845189 16.658203 20.001953 C 18.764757 18.158717 21 15.444438 21 12 L 21 5 A 1.0001 1.0001 0 0 0 20.351562 4.0644531 L 12.351562 1.0644531 A 1.0001 1.0001 0 0 0 12 1 z M 12 3.0683594 L 19 5.6933594 L 19 12 C 19 13.276329 18.55938 14.485048 17.882812 15.582031 L 5.9355469 5.3417969 L 12 3.0683594 z M 5 7.1738281 L 16.675781 17.181641 C 16.254201 17.65358 15.802091 18.095289 15.341797 18.498047 C 13.672053 19.959072 12.371562 20.601665 12 20.796875 C 11.628438 20.601665 10.327947 19.959072 8.6582031 18.498047 C 6.7647665 16.84129 5 14.55555 5 12 L 5 7.1738281 z "/>
</svg>
