<?xml version="1.0" encoding="UTF-8" standalone="no"?>
<svg xmlns="http://www.w3.org/2000/svg" xmlns:svg="http://www.w3.org/2000/svg" width="24" height="24" viewBox="0 0 24 24" fill="currentColor" tags="cybersecurity,securing,protecting,guarding,armoring,armouring,defending,blocking,preventing,antivirus,detecting,scanning,finding,auditing,admin,verifying,crest,upgrading,loader,loading,throbber,progress,dots,more,etc,...,…" categories="account,security,development,gaming">
  
  <path d="M 12 1 A 1.0001 1.0001 0 0 0 11.648438 1.0644531 L 3.6484375 4.0644531 A 1.0001 1.0001 0 0 0 3 5 L 3 12 C 3 15.444438 5.2352415 18.158717 7.3417969 20.001953 C 9.4483522 21.845189 11.552734 22.894531 11.552734 22.894531 A 1 1 0 0 0 11.626953 22.900391 A 1 1 0 0 0 12 22.925781 A 1 1 0 0 0 12.373047 22.900391 A 1 1 0 0 0 12.447266 22.894531 C 12.447266 22.894531 14.551648 21.845189 16.658203 20.001953 C 18.764757 18.158717 21 15.444438 21 12 L 21 5 A 1.0001 1.0001 0 0 0 20.351562 4.0644531 L 12.351562 1.0644531 A 1.0001 1.0001 0 0 0 12 1 z M 12 3.0683594 L 19 5.6933594 L 19 12 C 19 14.55555 17.235233 16.84129 15.341797 18.498047 C 13.672053 19.959072 12.371562 20.601665 12 20.796875 C 11.628438 20.601665 10.327947 19.959072 8.6582031 18.498047 C 6.7647665 16.84129 5 14.55555 5 12 L 5 5.6933594 L 12 3.0683594 z M 8 10 A 1 1 0 0 0 7 11 A 1 1 0 0 0 8 12 L 8.0097656 12 A 1 1 0 0 0 9.0097656 11 A 1 1 0 0 0 8.0097656 10 L 8 10 z M 12 10 A 1 1 0 0 0 11 11 A 1 1 0 0 0 12 12 L 12.009766 12 A 1 1 0 0 0 13.009766 11 A 1 1 0 0 0 12.009766 10 L 12 10 z M 16 10 A 1 1 0 0 0 15 11 A 1 1 0 0 0 16 12 L 16.009766 12 A 1 1 0 0 0 17.009766 11 A 1 1 0 0 0 16.009766 10 L 16 10 z "/>
</svg>
