<svg xmlns="http://www.w3.org/2000/svg" xmlns:svg="http://www.w3.org/2000/svg" width="24" height="24" viewBox="0 0 24 24" fill="currentColor" tags="shield,user,admin,protection,protected,safety,guard" categories="account,security,development">
  <path d="M 12 1.0039062 C 11.496809 1.0039064 10.993034 1.17506 10.589844 1.5195312 A 1.0001 1.0001 0 0 0 10.582031 1.5273438 C 9.0030437 2.9066805 6.6 4 5 4 C 3.9072751 4 3 4.9072751 3 6 L 3 13 C 3 15.733333 4.0010335 17.910697 5.5566406 19.503906 C 5.5808462 19.528697 5.6083641 19.549697 5.6328125 19.574219 A 1 1 0 0 0 5.75 19.6875 C 7.2770141 21.170178 9.2476643 22.15743 11.326172 22.876953 C 11.755553 23.03542 12.226567 23.043413 12.660156 22.896484 A 1.0001 1.0001 0 0 0 12.669922 22.894531 C 14.836283 22.139429 16.891504 21.098092 18.445312 19.503906 C 19.999087 17.909769 21 15.733333 21 13 L 21 6 C 21 4.9072751 20.092725 4 19 4 C 17.396667 4 15.007538 2.9170812 13.417969 1.5273438 A 1.0001 1.0001 0 0 0 13.410156 1.5195312 C 13.006953 1.1750576 12.503191 1.0039062 12 1.0039062 z M 12 2.9960938 C 12.038422 2.9960938 12.076845 3.0115541 12.111328 3.0410156 C 14.020875 4.7074119 16.607167 6 19 6 L 19 13 C 19 14.711012 18.573315 16.025632 17.832031 17.113281 C 17.159222 16.090174 16.258723 15.313257 15.25 14.791016 C 16.31932 13.87212 17 12.511599 17 11 C 17 8.2504209 14.749579 6 12 6 C 9.2504209 6 7 8.2504209 7 11 C 7 12.511851 7.6803721 13.872114 8.75 14.791016 C 7.7415199 15.313451 6.842708 16.092093 6.1699219 17.115234 C 5.4277359 16.027994 5 14.712007 5 13 L 5 6 C 7.3961543 6 9.9884686 4.6978838 11.888672 3.0410156 C 11.923157 3.0115541 11.961578 2.9960938 12 2.9960938 z M 12 8 C 13.668699 8 15 9.3313011 15 11 C 15 12.668344 13.670154 13.999434 12.001953 14 L 11.998047 14 C 10.329819 13.999465 9 12.668364 9 11 C 9 9.3313011 10.331301 8 12 8 z M 12 16 L 12.001953 16 C 13.76941 16.000471 15.498046 16.852594 16.421875 18.65625 C 15.242339 19.64913 13.710561 20.411763 12.019531 21.001953 A 1.0001 1.0001 0 0 0 11.996094 20.994141 C 10.29793 20.407713 8.760687 19.645529 7.578125 18.652344 C 8.5026951 16.849844 10.233255 16.000397 12 16 z "/>
</svg>
