<?xml version="1.0" encoding="UTF-8" standalone="no"?>
<svg xmlns="http://www.w3.org/2000/svg" xmlns:svg="http://www.w3.org/2000/svg" width="24" height="24" viewBox="0 0 24 24" fill="currentColor" tags="unshielded,cybersecurity,insecure,unsecured,safety,unsafe,protection,unprotected,guardian,unguarded,unarmored,unarmoured,defenseless,defenceless,undefended,defender,interception,threat,prevention,unprevented,antivirus,detection,undetected,exploit,vulnerability,vulnerable,weakness,infected,infection,comprimised,data leak,unaudited,admin,verification,unverified,inactive,cancelled,error,crest,bravery,damaged,injured,hit,expired,eliminated" categories="account,security,development,gaming">
  <path d="M 2 1 A 1 1 0 0 0 1.2929688 1.2929688 A 1 1 0 0 0 1.2929688 2.7070312 L 3.3984375 4.8125 C 3.1490519 5.1461498 3 5.5577366 3 6 L 3 13 C 3 15.733328 4.0010367 17.910701 5.5566406 19.503906 C 7.1078624 21.092624 9.1607512 22.127342 11.326172 22.876953 C 11.755552 23.03542 12.226569 23.043413 12.660156 22.896484 A 1.0001 1.0001 0 0 0 12.669922 22.894531 C 14.758361 22.165799 16.74212 21.172237 18.269531 19.683594 L 21.292969 22.707031 A 1 1 0 0 0 22.707031 22.707031 A 1 1 0 0 0 22.707031 21.292969 L 2.7070312 1.2929688 A 1 1 0 0 0 2 1 z M 12 1.0039062 C 11.49681 1.0039063 10.993033 1.1750607 10.589844 1.5195312 A 1.0001 1.0001 0 0 0 10.583984 1.5253906 C 10.034979 2.0016879 9.4409864 2.4234149 8.8105469 2.7851562 A 1 1 0 0 0 8.4414062 4.1503906 A 1 1 0 0 0 9.8066406 4.5195312 C 10.546748 4.094863 11.243783 3.5997602 11.888672 3.0410156 C 11.957642 2.9820927 12.042361 2.9820927 12.111328 3.0410156 C 14.020912 4.7074079 16.607171 6 19 6 L 19 13 A 1.0001 1.0001 0 0 0 19 13.001953 C 19.000593 13.381377 18.976164 13.760397 18.927734 14.136719 A 1 1 0 0 0 19.792969 15.255859 A 1 1 0 0 0 20.912109 14.392578 C 20.971564 13.930528 21.000728 13.463859 21 12.998047 L 21 6 C 21 4.9072773 20.092723 4 19 4 C 17.39667 4 15.007534 2.9170784 13.417969 1.5273438 A 1.0001 1.0001 0 0 0 13.410156 1.5195312 C 13.006954 1.1750582 12.50319 1.0039062 12 1.0039062 z M 5 6.4140625 L 16.851562 18.265625 C 15.621293 19.450386 13.928782 20.334698 12.019531 21.001953 A 1.0001 1.0001 0 0 0 11.996094 20.994141 C 9.9982436 20.304282 8.2232186 19.372256 6.9863281 18.105469 C 5.7494378 16.83868 5 15.266662 5 13 L 5 6.4140625 z "/>
</svg>
