<?xml version="1.0" encoding="UTF-8" standalone="no"?>
<svg xmlns="http://www.w3.org/2000/svg" xmlns:svg="http://www.w3.org/2000/svg" width="24" height="24" viewBox="0 0 24 24" fill="currentColor" tags="cybersecurity,secure,safety,protection,guardian,armored,armoured,defense,defence,defender,block,threat,prevention,antivirus,vigilance,vigilant,detection,scan,strength,strong,tough,invincible,invincibility,invulnerable,undamaged,audit,admin,verification,crest,logo,sigil,flag,team,faction,fraternity,university,college,academy,school,education,uniform,bravery,knight,foot soldier,infantry,trooper,pawn,battle,war,military,ranking,army,cadet,scout" categories="account,security,development,gaming">
  <path d="M 12 1 A 1 1 0 0 0 11.974609 1.0058594 C 11.47987 1.0115067 10.986269 1.1808399 10.589844 1.5195312 A 1.0001 1.0001 0 0 0 10.582031 1.5273438 C 9.0030468 2.9066779 6.5999968 4 5 4 C 3.9072773 4 3 4.9072773 3 6 L 3 13 C 3 15.733328 4.0010367 17.910701 5.5566406 19.503906 C 7.1078624 21.092624 9.1607512 22.127342 11.326172 22.876953 C 11.755552 23.03542 12.226569 23.043413 12.660156 22.896484 A 1.0001 1.0001 0 0 0 12.669922 22.894531 C 14.836245 22.139479 16.891507 21.098089 18.445312 19.503906 C 19.999119 17.909724 21 15.733328 21 13 L 21 6 C 21 4.9072773 20.092723 4 19 4 C 17.39667 4 15.007534 2.9170784 13.417969 1.5273438 A 1.0001 1.0001 0 0 0 13.410156 1.5195312 C 13.044365 1.2070202 12.596435 1.0385967 12.140625 1.0097656 A 1 1 0 0 0 12 1 z M 11 3.75 L 11 20.617188 C 9.412842 19.974114 8.0126344 19.156582 6.9863281 18.105469 C 5.7494378 16.83868 5 15.266662 5 13 L 5 6 C 7.0414074 6 9.2231139 5.0543932 11 3.75 z M 13 3.75 C 14.781861 5.0593875 16.960277 6 19 6 L 19 13 C 19 15.266662 18.249861 16.83911 17.013672 18.107422 C 15.986566 19.161218 14.586887 19.982005 13 20.628906 L 13 3.75 z "/>
</svg>
