<?xml version="1.0" encoding="UTF-8" standalone="no"?>
<svg xmlns="http://www.w3.org/2000/svg" xmlns:svg="http://www.w3.org/2000/svg" width="24" height="24" viewBox="0 0 24 24" fill="currentColor" tags="unshielded,cybersecurity,insecure,unsecured,safety,unsafe,protection,unprotected,guardian,unguarded,unarmored,unarmoured,defenseless,defenceless,undefended,defender,threat,prevention,unprevented,antivirus,vigilance,vigilant,detection,undetected,scan,find,exploit,vulnerability,vulnerable,weakness,infection,comprimised,data leak,audit,admin,verification,unverified,uncertified,uncertain,unknown,inactive,crest,question mark,?" categories="account,security,development,gaming">
  <path d="M 12 1 A 1.0001 1.0001 0 0 0 11.648438 1.0644531 L 3.6484375 4.0644531 A 1.0001 1.0001 0 0 0 3 5 L 3 12 C 3 15.444438 5.2352415 18.158717 7.3417969 20.001953 C 9.4483522 21.845189 11.552734 22.894531 11.552734 22.894531 A 1 1 0 0 0 11.626953 22.900391 A 1 1 0 0 0 12 22.925781 A 1 1 0 0 0 12.373047 22.900391 A 1 1 0 0 0 12.447266 22.894531 C 12.447266 22.894531 14.551648 21.845189 16.658203 20.001953 C 18.764757 18.158717 21 15.444438 21 12 L 21 5 A 1.0001 1.0001 0 0 0 20.351562 4.0644531 L 12.351562 1.0644531 A 1.0001 1.0001 0 0 0 12 1 z M 12 3.0683594 L 19 5.6933594 L 19 12 C 19 14.55555 17.235233 16.84129 15.341797 18.498047 C 13.672053 19.959072 12.371562 20.601665 12 20.796875 C 11.628438 20.601665 10.327947 19.959072 8.6582031 18.498047 C 6.7647665 16.84129 5 14.55555 5 12 L 5 5.6933594 L 12 3.0683594 z M 11.943359 6.0234375 C 10.402213 6.0190071 8.7975102 6.9016895 8.1601562 8.6582031 A 1 1 0 0 0 8.7597656 9.9394531 A 1 1 0 0 0 10.039062 9.3417969 C 10.451564 8.2049618 11.355766 7.8977436 12.257812 8.0527344 C 13.157951 8.2073973 13.905484 8.7977942 13.917969 10.001953 C 13.916669 10.501189 13.486264 11.003949 12.865234 11.417969 C 12.243244 11.832629 11.603516 12.050781 11.603516 12.050781 A 1 1 0 0 0 10.970703 13.316406 A 1 1 0 0 0 12.236328 13.949219 C 12.236328 13.949219 13.096604 13.667369 13.974609 13.082031 C 14.852615 12.496694 15.919922 11.499997 15.919922 10 A 1.0001 1.0001 0 0 0 15.919922 9.9980469 A 1.0001 1.0001 0 0 0 15.919922 9.9960938 A 1.0001 1.0001 0 0 0 15.919922 9.9941406 A 1.0001 1.0001 0 0 0 15.919922 9.9921875 C 15.903354 7.8567388 14.313891 6.3749637 12.597656 6.0800781 C 12.383127 6.0432174 12.163523 6.0240704 11.943359 6.0234375 z M 12 16 A 1 1 0 0 0 11 17 A 1 1 0 0 0 12 18 L 12.009766 18 A 1 1 0 0 0 13.009766 17 A 1 1 0 0 0 12.009766 16 L 12 16 z "/>
</svg>
