<?xml version="1.0" encoding="UTF-8" standalone="no"?>
<svg xmlns="http://www.w3.org/2000/svg" xmlns:svg="http://www.w3.org/2000/svg" width="24" height="24" viewBox="0 0 24 24" fill="currentColor" tags="cybersecurity,secure,safety,protection,guardian,armored,armoured,defense,defence,defender,block,threat,prevention,antivirus,vigilance,vigilant,detection,scan,strength,strong,tough,invincible,invincibility,invulnerable,undamaged,audit,admin,verification,crest,logo,sigil,flag,team,faction,fraternity,university,college,academy,school,education,uniform,bravery,knight,foot soldier,infantry,trooper,pawn,battle,war,military,ranking,army,cadet,scout" categories="account,security,development,gaming">
  <path d="M 12 1 A 1 1 0 0 0 11.880859 1.0078125 C 11.417813 1.0326731 10.961263 1.2022042 10.589844 1.5195312 A 1.0001 1.0001 0 0 0 10.582031 1.5273438 C 9.0030437 2.9066805 6.6 4 5 4 C 3.9072751 4 3 4.9072751 3 6 L 3 13 C 3 15.733333 4.0010335 17.910697 5.5566406 19.503906 C 7.1078654 21.092627 9.1607469 22.127341 11.326172 22.876953 C 11.755553 23.03542 12.226567 23.043413 12.660156 22.896484 A 1.0001 1.0001 0 0 0 12.669922 22.894531 C 14.836283 22.139429 16.891504 21.098092 18.445312 19.503906 C 19.999087 17.909769 21 15.733333 21 13 L 21 6 C 21 4.9072751 20.092725 4 19 4 C 17.396667 4 15.007538 2.9170812 13.417969 1.5273438 A 1.0001 1.0001 0 0 0 13.410156 1.5195312 C 13.038725 1.2022018 12.582187 1.032673 12.119141 1.0078125 A 1 1 0 0 0 12 1 z M 11 3.7519531 L 11 20.621094 C 9.4114411 19.977815 8.013366 19.157332 6.9863281 18.105469 C 5.7494352 16.838678 5 15.266667 5 13 L 5 6 C 7.0406116 6 9.2234894 5.0555557 11 3.7519531 z M 13 3.7519531 C 14.781514 5.0606177 16.960995 6 19 6 L 19 13 C 19 15.266667 18.249863 16.839107 17.013672 18.107422 C 15.986116 19.161679 14.587746 19.985782 13 20.632812 L 13 3.7519531 z "/>
</svg>
