<?xml version="1.0" encoding="UTF-8" standalone="no"?>
<svg xmlns="http://www.w3.org/2000/svg" xmlns:svg="http://www.w3.org/2000/svg" width="24" height="24" viewBox="0 0 24 24" fill="currentColor" tags="steering,rudder,boat,knots,nautical mile,maritime,sailing,yacht,cruise,ocean liner,tanker,vessel,navy,trip" categories="transportation,travel,maps">
  <path d="M 12 1 A 1 1 0 0 0 11 2 L 11 3.0566406 C 9.2681761 3.2495198 7.6835142 3.9379001 6.3886719 4.9746094 L 5.7070312 4.2929688 A 1 1 0 0 0 5 4 A 1 1 0 0 0 4.2929688 4.2929688 A 1 1 0 0 0 4.2929688 5.7070312 L 4.9746094 6.3886719 C 3.9379001 7.6835142 3.2495198 9.2681761 3.0566406 11 L 2 11 A 1 1 0 0 0 1 12 A 1 1 0 0 0 2 13 L 3.0566406 13 C 3.2495198 14.731824 3.9379001 16.316486 4.9746094 17.611328 L 4.2929688 18.292969 A 1 1 0 0 0 4.2929688 19.707031 A 1 1 0 0 0 5.7070312 19.707031 L 6.3886719 19.025391 C 7.6835142 20.0621 9.2681761 20.75048 11 20.943359 L 11 22 A 1 1 0 0 0 12 23 A 1 1 0 0 0 13 22 L 13 20.943359 C 14.731824 20.75048 16.316486 20.0621 17.611328 19.025391 L 18.292969 19.707031 A 1 1 0 0 0 19.707031 19.707031 A 1 1 0 0 0 19.707031 18.292969 L 19.025391 17.611328 C 20.0621 16.316486 20.75048 14.731824 20.943359 13 L 22 13 A 1 1 0 0 0 23 12 A 1 1 0 0 0 22 11 L 20.943359 11 C 20.75048 9.2681761 20.0621 7.6835142 19.025391 6.3886719 L 19.707031 5.7070312 A 1 1 0 0 0 19.707031 4.2929688 A 1 1 0 0 0 18.292969 4.2929688 L 17.611328 4.9746094 C 16.316486 3.9379001 14.731824 3.2495198 13 3.0566406 L 13 2 A 1 1 0 0 0 12 1 z M 11 5.0722656 L 11 8.6484375 C 10.768694 8.718177 10.548731 8.8118864 10.339844 8.9257812 L 10.337891 8.9257812 L 7.8027344 6.3886719 C 8.7187749 5.7035619 9.8111809 5.241104 11 5.0722656 z M 13 5.0722656 C 14.188819 5.241104 15.281225 5.7035619 16.197266 6.3886719 L 13.662109 8.9257812 C 13.661602 8.9255045 13.660663 8.9260578 13.660156 8.9257812 C 13.451269 8.8118864 13.231306 8.718177 13 8.6484375 L 13 5.0722656 z M 6.3886719 7.8027344 L 8.9257812 10.337891 L 8.9257812 10.339844 C 8.8118864 10.548731 8.718177 10.768694 8.6484375 11 L 5.0722656 11 C 5.241104 9.8111809 5.7035619 8.7187749 6.3886719 7.8027344 z M 17.611328 7.8027344 C 18.296438 8.7187749 18.758896 9.8111809 18.927734 11 L 15.351562 11 C 15.281823 10.768694 15.188114 10.548731 15.074219 10.339844 C 15.073942 10.339337 15.074496 10.338398 15.074219 10.337891 L 17.611328 7.8027344 z M 12 10.5 C 12.414084 10.5 12.783687 10.660744 13.052734 10.923828 A 1 1 0 0 0 13.0625 10.9375 A 1 1 0 0 0 13.076172 10.947266 C 13.339256 11.216313 13.5 11.585916 13.5 12 C 13.5 12.414084 13.339256 12.783687 13.076172 13.052734 A 1 1 0 0 0 13.0625 13.0625 A 1 1 0 0 0 13.052734 13.076172 C 12.783687 13.339256 12.414084 13.5 12 13.5 C 11.591966 13.5 11.227002 13.344156 10.958984 13.087891 A 1 1 0 0 0 10.9375 13.0625 A 1 1 0 0 0 10.923828 13.052734 C 10.660744 12.783687 10.5 12.414084 10.5 12 C 10.5 11.585916 10.660744 11.216313 10.923828 10.947266 A 1 1 0 0 0 10.9375 10.9375 A 1 1 0 0 0 10.958984 10.912109 C 11.227002 10.655844 11.591966 10.5 12 10.5 z M 5.0722656 13 L 8.6484375 13 C 8.718177 13.231306 8.8118864 13.451269 8.9257812 13.660156 C 8.9260578 13.660663 8.9255045 13.661602 8.9257812 13.662109 L 6.3886719 16.197266 C 5.7035619 15.281225 5.241104 14.188819 5.0722656 13 z M 15.351562 13 L 18.927734 13 C 18.758896 14.188819 18.296438 15.281225 17.611328 16.197266 L 15.074219 13.662109 C 15.074496 13.661602 15.073942 13.660663 15.074219 13.660156 C 15.188114 13.451269 15.281823 13.231306 15.351562 13 z M 10.337891 15.074219 L 10.339844 15.074219 C 10.548731 15.188114 10.768694 15.281823 11 15.351562 L 11 18.927734 C 9.8111809 18.758896 8.7187749 18.296438 7.8027344 17.611328 L 10.337891 15.074219 z M 13.660156 15.074219 L 13.662109 15.074219 L 16.197266 17.611328 C 15.281225 18.296438 14.188819 18.758896 13 18.927734 L 13 15.351562 C 13.231306 15.281823 13.451269 15.188114 13.660156 15.074219 z "/>
</svg>
