<svg xmlns="http://www.w3.org/2000/svg" xmlns:svg="http://www.w3.org/2000/svg" width="24" height="24" viewBox="0 0 24 24" fill="currentColor" tags="steering,rudder,boat,knots,nautical mile,maritime,sailing,yacht,cruise,ocean liner,tanker,vessel,navy,trip" categories="transportation,navigation,travel">
  <path d="M 12 1 A 1 1 0 0 0 11 2 L 11 3.0546875 C 9.2677741 3.2474571 7.6817959 3.9356961 6.3867188 4.9726562 L 5.7070312 4.2929688 A 1 1 0 0 0 5 4 A 1 1 0 0 0 4.2929688 4.2929688 A 1 1 0 0 0 4.2929688 5.7070312 L 4.9726562 6.3867188 C 3.9356961 7.6817959 3.2474571 9.2677741 3.0546875 11 L 2 11 A 1 1 0 0 0 1 12 A 1 1 0 0 0 2 13 L 3.0546875 13 C 3.2474571 14.732226 3.935696 16.318204 4.9726562 17.613281 L 4.2929688 18.292969 A 1 1 0 0 0 4.2929688 19.707031 A 1 1 0 0 0 5.7070312 19.707031 L 6.3867188 19.027344 C 7.681796 20.064304 9.2677741 20.752543 11 20.945312 L 11 22 A 1 1 0 0 0 12 23 A 1 1 0 0 0 13 22 L 13 20.945312 C 14.732226 20.752543 16.318204 20.064304 17.613281 19.027344 L 18.292969 19.707031 A 1 1 0 0 0 19.707031 19.707031 A 1 1 0 0 0 19.707031 18.292969 L 19.027344 17.613281 C 20.064304 16.318204 20.752543 14.732226 20.945312 13 L 22 13 A 1 1 0 0 0 23 12 A 1 1 0 0 0 22 11 L 20.945312 11 C 20.752543 9.2677741 20.064304 7.681796 19.027344 6.3867188 L 19.707031 5.7070312 A 1 1 0 0 0 19.707031 4.2929688 A 1 1 0 0 0 18.292969 4.2929688 L 17.613281 4.9726562 C 16.318204 3.935696 14.732226 3.2474571 13 3.0546875 L 13 2 A 1 1 0 0 0 12 1 z M 11 5.0703125 L 11 8.6464844 C 10.768654 8.7162483 10.546807 8.8098938 10.337891 8.9238281 L 7.8027344 6.3886719 C 8.7189809 5.7034868 9.8109059 5.2390074 11 5.0703125 z M 13 5.0703125 C 14.189094 5.2390074 15.281019 5.7034868 16.197266 6.3886719 L 13.662109 8.9238281 C 13.453193 8.8098938 13.231346 8.7162483 13 8.6464844 L 13 5.0703125 z M 6.3886719 7.8027344 L 8.9238281 10.337891 C 8.8098938 10.546807 8.7162483 10.768654 8.6464844 11 L 5.0703125 11 C 5.2390074 9.8109059 5.7034868 8.7189809 6.3886719 7.8027344 z M 17.611328 7.8027344 C 18.296513 8.7189809 18.760993 9.8109059 18.929688 11 L 15.353516 11 C 15.283752 10.768654 15.190106 10.546807 15.076172 10.337891 L 17.611328 7.8027344 z M 12 10.5 C 12.395881 10.5 12.751958 10.645907 13.017578 10.888672 A 1 1 0 0 0 13.0625 10.9375 A 1 1 0 0 0 13.111328 10.982422 C 13.354093 11.248042 13.5 11.604119 13.5 12 C 13.5 12.395834 13.354042 12.751968 13.111328 13.017578 A 1 1 0 0 0 13.0625 13.0625 A 1 1 0 0 0 13.017578 13.111328 C 12.751959 13.354092 12.395879 13.499999 12 13.5 C 11.604119 13.5 11.248042 13.354093 10.982422 13.111328 A 1 1 0 0 0 10.9375 13.0625 A 1 1 0 0 0 10.888672 13.017578 C 10.645959 12.75197 10.500001 12.395832 10.5 12 C 10.5 11.604119 10.645907 11.248042 10.888672 10.982422 A 1 1 0 0 0 10.9375 10.9375 A 1 1 0 0 0 10.982422 10.888672 C 11.248042 10.645907 11.604119 10.5 12 10.5 z M 5.0703125 13 L 8.6464844 13 C 8.7162483 13.231346 8.8098938 13.453193 8.9238281 13.662109 L 6.3886719 16.197266 C 5.7034868 15.281019 5.2390074 14.189094 5.0703125 13 z M 15.353516 13 L 18.929688 13 C 18.760993 14.189094 18.296513 15.281019 17.611328 16.197266 L 15.076172 13.662109 C 15.190106 13.453193 15.283752 13.231346 15.353516 13 z M 10.337891 15.076172 C 10.546807 15.190106 10.768654 15.283752 11 15.353516 L 11 18.929688 C 9.8109059 18.760993 8.7189809 18.296513 7.8027344 17.611328 L 10.337891 15.076172 z M 13.662109 15.076172 L 16.197266 17.611328 C 15.281019 18.296513 14.189094 18.760993 13 18.929688 L 13 15.353516 C 13.231346 15.283752 13.453193 15.190106 13.662109 15.076172 z "/>
</svg>
