<?xml version="1.0" encoding="UTF-8" standalone="no"?>
<svg xmlns="http://www.w3.org/2000/svg" xmlns:svg="http://www.w3.org/2000/svg" width="24" height="24" viewBox="0 0 24 24" fill="currentColor" tags="boat,knots,nautical mile,maritime,sailing,yacht,cruise,ocean liner,tanker,vessel,navy,trip" categories="transportation,navigation,travel">
  <path d="M 12 1 A 1 1 0 0 0 11 2 L 11 4 L 7 4 C 5.3549904 4 4 5.3549904 4 7 L 4 12.460938 L 2.59375 13.085938 A 1.0001 1.0001 0 0 0 2 13.984375 C 1.9595376 16.469963 2.6563134 18.897806 3.9804688 20.970703 C 3.359597 20.888432 3.1248682 20.635958 2.640625 20.232422 A 1 1 0 0 0 1.2324219 20.359375 A 1 1 0 0 0 1.359375 21.767578 C 1.959375 22.267578 2.9435897 23 4.5 23 C 5.0764189 23 5.5758591 22.896406 6.0078125 22.740234 A 1 1 0 0 0 6.359375 22.595703 C 6.8909363 22.350816 7.3049151 22.037318 7.625 21.78125 C 8.25 21.28125 8.5166667 21 9.5 21 C 10.54359 21 10.759375 21.267578 11.359375 21.767578 C 11.959375 22.267578 12.94359 23 14.5 23 C 16.016667 23 17 22.28125 17.625 21.78125 C 18.25 21.28125 18.516667 21 19.5 21 C 20.54359 21 20.759375 21.267578 21.359375 21.767578 A 1 1 0 0 0 22.767578 21.640625 A 1 1 0 0 0 22.640625 20.232422 C 22.246457 19.903948 21.687307 19.474283 20.908203 19.21875 C 21.639405 17.579461 22.013512 15.798132 22 13.992188 A 1.0001 1.0001 0 0 0 21.40625 13.085938 L 20 12.460938 L 20 7 C 20 5.3549904 18.64501 4 17 4 L 13 4 L 13 2 A 1 1 0 0 0 12 1 z M 7 6 L 17 6 C 17.564129 6 18 6.4358706 18 7 L 18 11.572266 L 13.21875 9.4472656 C 12.83126 9.2751183 12.415255 9.1894531 12 9.1894531 C 11.584745 9.1894531 11.16874 9.2751181 10.78125 9.4472656 L 6 11.572266 L 6 7 C 6 6.4358706 6.4358706 6 7 6 z M 11 11.539062 L 11 14 A 1 1 0 0 0 12 15 A 1 1 0 0 0 13 14 L 13 11.539062 L 19.921875 14.615234 C 19.843188 16.165147 19.478241 17.687741 18.759766 19.060547 C 17.653959 19.243071 16.891818 19.805296 16.375 20.21875 C 15.75 20.71875 15.483333 21 14.5 21 C 13.45641 21 13.240625 20.732422 12.640625 20.232422 C 12.040625 19.732422 11.05641 19 9.5 19 C 7.9833333 19 7 19.71875 6.375 20.21875 C 6.2615143 20.309539 6.1607458 20.39276 6.0644531 20.46875 C 4.8301029 18.765982 4.1839892 16.716964 4.0976562 14.605469 L 11 11.539062 z "/>
</svg>
