<?xml version="1.0" encoding="UTF-8" standalone="no"?>
<svg xmlns="http://www.w3.org/2000/svg" xmlns:svg="http://www.w3.org/2000/svg" width="24" height="24" viewBox="0 0 24 24" fill="currentColor" tags="boat,knots,nautical mile,maritime,sailing,yacht,cruise,ocean liner,tanker,vessel,navy,trip" categories="transportation,navigation,travel">
  <path d="M 12 1 A 1 1 0 0 0 11 2 L 11 4 L 7 4 C 5.3549904 4 4 5.3549904 4 7 L 4 12.460938 L 2.59375 13.085938 A 1.0001 1.0001 0 0 0 2 13.984375 C 1.9595549 16.468906 2.6554582 18.89448 3.9785156 20.966797 C 3.3634902 20.883448 3.1228296 20.634259 2.640625 20.232422 A 1 1 0 0 0 1.2324219 20.359375 A 1 1 0 0 0 1.359375 21.767578 C 1.959375 22.267578 2.9435897 23 4.5 23 C 5.1051578 23 5.6238568 22.884148 6.0703125 22.714844 A 1 1 0 0 0 6.1992188 22.666016 C 6.8086853 22.413193 7.2734375 22.0625 7.625 21.78125 C 8.25 21.28125 8.5166667 21 9.5 21 C 10.54359 21 10.759375 21.267578 11.359375 21.767578 C 11.959375 22.267578 12.94359 23 14.5 23 C 16.016667 23 17 22.28125 17.625 21.78125 C 18.25 21.28125 18.516667 21 19.5 21 C 20.54359 21 20.759375 21.267578 21.359375 21.767578 A 1 1 0 0 0 22.767578 21.640625 A 1 1 0 0 0 22.640625 20.232422 C 22.246232 19.903761 21.684097 19.476184 20.904297 19.220703 C 21.635895 17.581043 22.013515 15.798628 22 13.992188 A 1.0001 1.0001 0 0 0 21.40625 13.085938 L 20 12.460938 L 20 7 C 20 5.3549904 18.64501 4 17 4 L 13 4 L 13 2 A 1 1 0 0 0 12 1 z M 7 6 L 17 6 C 17.564129 6 18 6.4358706 18 7 L 18 11.572266 L 13.21875 9.4472656 C 12.83126 9.2751183 12.415255 9.1894531 12 9.1894531 C 11.584745 9.1894531 11.16874 9.2751181 10.78125 9.4472656 L 6 11.572266 L 6 7 C 6 6.4358706 6.4358706 6 7 6 z M 11 11.539062 L 11 14 A 1 1 0 0 0 12 15 A 1 1 0 0 0 13 14 L 13 11.539062 L 19.921875 14.615234 C 19.843111 16.166667 19.473779 17.68864 18.753906 19.0625 C 17.651218 19.246027 16.890919 19.806015 16.375 20.21875 C 15.75 20.71875 15.483333 21 14.5 21 C 13.45641 21 13.240625 20.732422 12.640625 20.232422 C 12.040625 19.732422 11.05641 19 9.5 19 C 7.9833333 19 7 19.71875 6.375 20.21875 C 6.2586618 20.311821 6.1628931 20.389288 6.0644531 20.466797 C 4.830703 18.76428 4.1839677 16.716439 4.0976562 14.605469 L 11 11.539062 z "/>
</svg>
