<?xml version="1.0" encoding="UTF-8" standalone="no"?>
<svg xmlns="http://www.w3.org/2000/svg" xmlns:svg="http://www.w3.org/2000/svg" width="24" height="24" viewBox="0 0 24 24" fill="currentColor" tags="t-shirt,shopping,store,clothing,clothes" categories="shopping">
  <path d="M 7.9492188 1 A 1.0001 1.0001 0 0 0 7.6835938 1.0507812 L 3.3046875 2.5117188 C 1.9086957 2.9768088 1.0483177 4.4045215 1.2929688 5.8554688 L 1.8730469 9.3203125 C 2.029234 10.283932 2.8773246 11.002814 3.8535156 11 L 5 11 L 5 20 C 5 21.645455 6.3545455 23 8 23 L 16 23 C 17.64501 23 19 21.64501 19 20 L 19 11 L 20.146484 11 C 21.122675 11.0028 21.970766 10.283932 22.126953 9.3203125 L 22.707031 5.8554688 C 22.951682 4.4045216 22.091304 2.9768088 20.695312 2.5117188 L 16.316406 1.0507812 A 1.0001 1.0001 0 0 0 15 2 C 15 3.0833326 14.629756 3.7685595 14.085938 4.2519531 C 13.542118 4.7353468 12.777778 5 12 5 C 11.222222 5 10.457881 4.7353468 9.9140625 4.2519531 C 9.3702444 3.7685595 9 3.0833326 9 2 A 1.0001 1.0001 0 0 0 7.9492188 1 z M 7.2617188 3.3007812 C 7.5080948 4.2787567 7.9191833 5.1553767 8.5859375 5.7480469 C 9.5421194 6.597986 10.777778 7 12 7 C 13.222222 7 14.45788 6.597986 15.414062 5.7480469 C 16.080816 5.1553767 16.491905 4.2787568 16.738281 3.3007812 L 20.064453 4.4082031 C 20.538792 4.5662345 20.817504 5.0304251 20.734375 5.5234375 A 1.0001 1.0001 0 0 0 20.734375 5.5253906 L 20.154297 8.9960938 A 1.0001 1.0001 0 0 0 20.152344 9 A 1.0001 1.0001 0 0 0 20.150391 9 L 18 9 A 1.0001 1.0001 0 0 0 17 10 L 17 20 C 17 20.564129 16.564129 21 16 21 L 8 21 C 7.4454545 21 7 20.554545 7 20 L 7 10 A 1.0001 1.0001 0 0 0 6 9 L 3.8496094 9 A 1.0001 1.0001 0 0 0 3.8476562 9 A 1.0001 1.0001 0 0 0 3.8457031 8.9960938 L 3.265625 5.5253906 A 1.0001 1.0001 0 0 0 3.265625 5.5234375 C 3.1824959 5.030422 3.4612076 4.5662345 3.9355469 4.4082031 L 7.2617188 3.3007812 z "/>
</svg>
