<?xml version="1.0" encoding="UTF-8" standalone="no"?>
<svg xmlns="http://www.w3.org/2000/svg" xmlns:svg="http://www.w3.org/2000/svg" width="24" height="24" viewBox="0 0 24 24" fill="currentColor" tags="trolley,cart,basket,e-commerce,store,purchase,products,items,ingredients" categories="shopping">
  <path d="M 2.0507812 1.0507812 A 1 1 0 0 0 1.0507812 2.0507812 A 1 1 0 0 0 2.0507812 3.0507812 L 3.2421875 3.0507812 L 5.7324219 14.679688 C 6.0330234 16.080931 7.2996518 17.080709 8.7324219 17.048828 L 8.7109375 17.050781 L 18.490234 17.050781 A 1.0001 1.0001 0 0 0 18.492188 17.050781 C 19.892427 17.048481 21.114197 16.064441 21.416016 14.697266 L 21.416016 14.695312 L 23.066406 7.2675781 A 1.0001 1.0001 0 0 0 22.089844 6.0507812 L 5.9296875 6.0507812 L 5.0273438 1.8398438 A 1.0001 1.0001 0 0 0 4.0507812 1.0507812 L 2.0507812 1.0507812 z M 6.3574219 8.0507812 L 20.84375 8.0507812 L 19.462891 14.263672 A 1.0001 1.0001 0 0 0 19.462891 14.265625 C 19.360871 14.729039 18.962792 15.050015 18.488281 15.050781 L 8.7109375 15.050781 A 1.0001 1.0001 0 0 0 8.6875 15.050781 C 8.2015027 15.061591 7.7894644 14.735069 7.6875 14.259766 L 6.3574219 8.0507812 z M 8 19 C 6.9072773 19 6 19.907277 6 21 C 6 22.092723 6.9072773 23 8 23 C 9.0927227 23 10 22.092723 10 21 C 10 19.907277 9.0927227 19 8 19 z M 19 19 C 17.907277 19 17 19.907277 17 21 C 17 22.092723 17.907277 23 19 23 C 20.092723 23 21 22.092723 21 21 C 21 19.907277 20.092723 19 19 19 z "/>
</svg>
