<?xml version="1.0" encoding="UTF-8" standalone="no"?>
<svg xmlns="http://www.w3.org/2000/svg" xmlns:svg="http://www.w3.org/2000/svg" width="24" height="24" viewBox="0 0 24 24" fill="currentColor" tags="ecommerce,cart,purchase,store" categories="shopping">
  <path d="M 6 1 A 1.0001 1.0001 0 0 0 5.1992188 1.4003906 L 2.1992188 5.4003906 A 1 1 0 0 0 2.1347656 5.5 A 1.0001 1.0001 0 0 0 2.0527344 5.6816406 A 1 1 0 0 0 2.0078125 5.8691406 A 1.0001 1.0001 0 0 0 2.0078125 5.8710938 A 1.0001 1.0001 0 0 0 2 6 L 2 20 C 2 21.64501 3.3549904 23 5 23 L 19 23 C 20.64501 23 22 21.64501 22 20 L 22 6 A 1.0001 1.0001 0 0 0 21.992188 5.8691406 A 1 1 0 0 0 21.947266 5.6816406 A 1.0001 1.0001 0 0 0 21.865234 5.5 A 1 1 0 0 0 21.800781 5.4003906 L 18.800781 1.4003906 A 1.0001 1.0001 0 0 0 18 1 L 6 1 z M 6.5 3 L 17.5 3 L 19 5 L 5 5 L 6.5 3 z M 4 7 L 20 7 L 20 20 C 20 20.564129 19.564129 21 19 21 L 5 21 C 4.4358706 21 4 20.564129 4 20 L 4 7 z M 8 9 A 1 1 0 0 0 7 10 C 7 11.583333 7.6297556 12.898108 8.5859375 13.748047 C 9.5421194 14.597986 10.777778 15 12 15 C 13.222222 15 14.45788 14.597986 15.414062 13.748047 C 16.370244 12.898108 17 11.583333 17 10 A 1 1 0 0 0 16 9 A 1 1 0 0 0 15 10 C 15 11.083333 14.629756 11.768559 14.085938 12.251953 C 13.542118 12.735347 12.777778 13 12 13 C 11.222222 13 10.457881 12.735347 9.9140625 12.251953 C 9.3702444 11.768559 9 11.083333 9 10 A 1 1 0 0 0 8 9 z "/>
</svg>
