<?xml version="1.0" encoding="UTF-8" standalone="no"?>
<svg xmlns="http://www.w3.org/2000/svg" xmlns:svg="http://www.w3.org/2000/svg" width="24" height="24" viewBox="0 0 24 24" fill="currentColor" tags="cart,e-commerce,store,purchase,products,items,ingredients" categories="shopping">
  <path d="M 8.9941406 3 A 1 1 0 0 0 8.7363281 3.0351562 A 1 1 0 0 0 8.1308594 3.5039062 L 4.4179688 10 L 2 10 A 1 1 0 0 0 1 11 A 1 1 0 0 0 2 12 L 2.6933594 12 L 4.1210938 18.599609 C 4.4092173 20.012617 5.679304 21.029076 7.1210938 21 L 16.900391 21 C 18.318326 21 19.562328 20.031175 19.876953 18.619141 L 21.396484 12 L 22 12 A 1 1 0 0 0 23 11 A 1 1 0 0 0 22 10 L 19.582031 10 L 15.869141 3.5039062 A 1 1 0 0 0 15.263672 3.0351562 A 1 1 0 0 0 14.503906 3.1308594 A 1 1 0 0 0 14.130859 4.4960938 L 17.275391 10 L 6.7246094 10 L 9.8691406 4.4960938 A 1 1 0 0 0 9.4960938 3.1308594 A 1 1 0 0 0 8.9941406 3 z M 4.7382812 12 L 4.9902344 12 A 1 1 0 0 0 5.0195312 12 L 8.1054688 12 L 8.3828125 14.5 L 5.2792969 14.5 L 4.7382812 12 z M 10.117188 12 L 13.882812 12 L 13.605469 14.5 L 10.394531 14.5 L 10.117188 12 z M 15.894531 12 L 18.980469 12 A 1 1 0 0 0 19.009766 12 L 19.34375 12 L 18.769531 14.5 L 15.617188 14.5 L 15.894531 12 z M 5.7128906 16.5 L 8.6054688 16.5 L 8.8828125 19 L 7.0996094 19 A 1.0001 1.0001 0 0 0 7.0800781 19 C 6.5908287 19.0099 6.1778484 18.680654 6.0800781 18.201172 A 1.0001 1.0001 0 0 0 6.078125 18.189453 L 5.7128906 16.5 z M 10.617188 16.5 L 13.382812 16.5 L 13.105469 19 L 10.894531 19 L 10.617188 16.5 z M 15.394531 16.5 L 18.310547 16.5 L 17.925781 18.175781 A 1.0001 1.0001 0 0 0 17.923828 18.183594 C 17.83787 18.570629 17.281871 19 16.900391 19 L 15.117188 19 L 15.394531 16.5 z "/>
</svg>
