<?xml version="1.0" encoding="UTF-8" standalone="no"?>
<svg xmlns="http://www.w3.org/2000/svg" xmlns:svg="http://www.w3.org/2000/svg" width="24" height="24" viewBox="0 0 24 24" fill="currentColor" tags="ecommerce,cart,purchase,store" categories="shopping">
  <path d="M 7 1 C 6.0566051 1 5.1656463 1.4445029 4.5996094 2.1992188 L 2.5996094 4.8671875 C 2.4200916 5.1065446 2.2800015 5.370365 2.1796875 5.6484375 A 1 1 0 0 0 2.1777344 5.6582031 C 2.1674536 5.6869973 2.1558812 5.7150469 2.1464844 5.7441406 A 1 1 0 0 0 2.1328125 5.7929688 C 2.0469672 6.0749791 2 6.3696177 2 6.6679688 L 2 20 C 2 21.64501 3.3549904 23 5 23 L 19 23 C 20.64501 23 22 21.64501 22 20 L 22 6.6679688 C 22 6.3696177 21.953033 6.0749791 21.867188 5.7929688 A 1 1 0 0 0 21.853516 5.7441406 C 21.844119 5.7150469 21.832546 5.6869973 21.822266 5.6582031 C 21.821366 5.6556844 21.821219 5.652907 21.820312 5.6503906 A 1 1 0 0 0 21.820312 5.6484375 C 21.719999 5.370365 21.579908 5.1065446 21.400391 4.8671875 L 19.400391 2.1992188 C 18.834354 1.4445028 17.943395 1 17 1 L 7 1 z M 7 3 L 17 3 C 17.315634 3 17.611401 3.1478831 17.800781 3.4003906 L 19.025391 5.0332031 L 4.9746094 5.0332031 L 6.1992188 3.4003906 C 6.3885995 3.1478831 6.6843657 3 7 3 z M 4 7.0332031 L 20 7.0332031 L 20 20 C 20 20.564129 19.564129 21 19 21 L 5 21 C 4.4358706 21 4 20.564129 4 20 L 4 7.0332031 z M 8 9 A 1 1 0 0 0 7 10 C 7 11.583333 7.6297556 12.898108 8.5859375 13.748047 C 9.5421194 14.597986 10.777778 15 12 15 C 13.222222 15 14.45788 14.597986 15.414062 13.748047 C 16.370244 12.898108 17 11.583333 17 10 A 1 1 0 0 0 16 9 A 1 1 0 0 0 15 10 C 15 11.083333 14.629756 11.768559 14.085938 12.251953 C 13.542118 12.735347 12.777778 13 12 13 C 11.222222 13 10.457881 12.735347 9.9140625 12.251953 C 9.3702444 11.768559 9 11.083333 9 10 A 1 1 0 0 0 8 9 z "/>
</svg>
