<svg xmlns="http://www.w3.org/2000/svg" xmlns:svg="http://www.w3.org/2000/svg" width="24" height="24" viewBox="0 0 24 24" fill="currentColor" tags="dig,spade,treasure" categories="nature,tools,gaming">
  <path d="M 18.378906 1.0058594 C 17.737126 1.0058594 17.095269 1.2486276 16.611328 1.7324219 L 16.171875 2.171875 C 14.86203 3.4814984 14.656483 5.4990595 15.554688 7.03125 L 9 13.585938 L 8.0585938 12.644531 C 7.63224 12.218241 7.0663502 12.005859 6.5 12.005859 C 5.9336498 12.005859 5.3677599 12.218241 4.9414062 12.644531 L 1.5859375 16 C 1.2111103 16.374714 1.0001132 16.884057 1 17.414062 L 1 21 C 1 22.092725 1.9072751 23 3 23 L 6.5859375 23 C 7.1159431 22.999887 7.6252861 22.78889 8 22.414062 L 11.355469 19.058594 C 12.208049 18.205886 12.208049 16.794114 11.355469 15.941406 L 10.414062 15 L 16.96875 8.4472656 C 18.483389 9.335755 20.474225 9.1450194 21.787109 7.8691406 A 1.0001 1.0001 0 0 0 21.796875 7.859375 L 22.267578 7.3886719 C 23.236249 6.4206212 23.236249 4.8215663 22.267578 3.8535156 L 20.146484 1.7324219 C 19.662544 1.2486276 19.020686 1.0058594 18.378906 1.0058594 z M 18.378906 2.9941406 C 18.504759 2.9941406 18.630612 3.0447057 18.732422 3.1464844 L 20.853516 5.2675781 C 21.057324 5.4712557 21.057324 5.7709318 20.853516 5.9746094 L 20.392578 6.4355469 C 19.600794 7.2050137 18.369144 7.195813 17.587891 6.4160156 L 17.585938 6.4140625 C 16.796889 5.6245779 16.796529 4.3752127 17.585938 3.5859375 L 18.025391 3.1464844 C 18.1272 3.0447057 18.253053 2.9941406 18.378906 2.9941406 z M 6.5 13.992188 C 6.5501589 13.992188 6.6003177 14.014389 6.6445312 14.058594 L 8.2929688 15.707031 L 9.9414062 17.355469 C 10.02982 17.443899 10.02982 17.556104 9.9414062 17.644531 L 6.5859375 21 L 3 21 L 3 17.414062 L 6.3554688 14.058594 C 6.3996822 14.014389 6.4498411 13.992188 6.5 13.992188 z "/>
</svg>
