<?xml version="1.0" encoding="UTF-8" standalone="no"?>
<svg xmlns="http://www.w3.org/2000/svg" xmlns:svg="http://www.w3.org/2000/svg" width="24" height="24" viewBox="0 0 24 24" fill="currentColor" tags="dig,spade,treasure" categories="nature,tools,gaming">
  <path d="M 17 1 A 1 1 0 0 0 16.292969 1.2929688 L 15.792969 1.7929688 C 14.271228 3.3118185 14.061287 5.6716393 15.164062 7.421875 L 9.5 13.085938 L 7.7070312 11.292969 A 1.0001 1.0001 0 0 0 6.2929688 11.292969 L 1.2929688 16.292969 A 1.0001 1.0001 0 0 0 1 17 L 1 22 A 1.0001 1.0001 0 0 0 2 23 L 7 23 A 1.0001 1.0001 0 0 0 7.7070312 22.707031 L 12.707031 17.707031 A 1.0001 1.0001 0 0 0 12.707031 16.292969 L 10.914062 14.5 L 16.578125 8.8359375 C 18.329118 9.9392377 20.690204 9.7286358 22.208984 8.2050781 L 22.707031 7.7070312 A 1.0001 1.0001 0 0 0 22.707031 6.2929688 L 17.707031 1.2929688 A 1 1 0 0 0 17 1 z M 17.083984 3.4980469 L 20.501953 6.9160156 C 19.504529 7.6871208 18.125624 7.7144424 17.208984 6.7949219 A 1.0001 1.0001 0 0 0 17.205078 6.7910156 C 16.285552 5.8743795 16.312879 4.4954713 17.083984 3.4980469 z M 7 13.414062 L 10.585938 17 L 6.5859375 21 L 3 21 L 3 17.414062 L 7 13.414062 z "/>
</svg>
