<?xml version="1.0" encoding="UTF-8" standalone="no"?>
<svg xmlns="http://www.w3.org/2000/svg" xmlns:svg="http://www.w3.org/2000/svg" width="24" height="24" viewBox="0 0 24 24" fill="currentColor" tags="shower,bath,bathroom,amenities,services" categories="home,travel">
  <path d="M 4 3 A 1 1 0 0 0 3.2929688 3.2929688 A 1 1 0 0 0 3.2929688 4.7070312 L 5.1757812 6.5898438 C 4.5135333 7.4938205 4.0824784 8.5736062 4.0097656 9.7324219 C 3.9324288 10.964931 4.2877419 12.272007 5.1425781 13.443359 L 4.2929688 14.292969 A 1 1 0 0 0 4.2929688 15.707031 A 1 1 0 0 0 5.7070312 15.707031 L 15.707031 5.7070312 A 1 1 0 0 0 15.707031 4.2929688 A 1 1 0 0 0 15 4 A 1 1 0 0 0 14.292969 4.2929688 L 13.443359 5.1425781 C 12.27201 4.2877419 10.964931 3.9324288 9.7324219 4.0097656 C 8.5736062 4.0824784 7.4938205 4.5135333 6.5898438 5.1757812 L 4.7070312 3.2929688 A 1 1 0 0 0 4 3 z M 10.037109 5.9980469 C 10.683182 5.9887111 11.344502 6.1531215 12.007812 6.578125 L 6.578125 12.007812 C 6.1135064 11.282672 5.9617425 10.560507 6.0058594 9.8574219 C 6.0660444 8.8982595 6.5296217 7.9547533 7.2421875 7.2421875 C 7.9547533 6.5296217 8.8982595 6.0660444 9.8574219 6.0058594 C 9.9173695 6.0020978 9.9768882 5.9989171 10.037109 5.9980469 z M 16 9 A 1 1 0 0 0 15 10 L 15 10.009766 A 1 1 0 0 0 16 11.009766 A 1 1 0 0 0 17 10.009766 L 17 10 A 1 1 0 0 0 16 9 z M 20 10 A 1 1 0 0 0 19 11 L 19 11.009766 A 1 1 0 0 0 20 12.009766 A 1 1 0 0 0 21 11.009766 L 21 11 A 1 1 0 0 0 20 10 z M 13 12 A 1 1 0 0 0 12 13 L 12 13.009766 A 1 1 0 0 0 13 14.009766 A 1 1 0 0 0 14 13.009766 L 14 13 A 1 1 0 0 0 13 12 z M 17 13 A 1 1 0 0 0 16 14 L 16 14.009766 A 1 1 0 0 0 17 15.009766 A 1 1 0 0 0 18 14.009766 L 18 14 A 1 1 0 0 0 17 13 z M 10 15 A 1 1 0 0 0 9 16 L 9 16.009766 A 1 1 0 0 0 10 17.009766 A 1 1 0 0 0 11 16.009766 L 11 16 A 1 1 0 0 0 10 15 z M 14 16 A 1 1 0 0 0 13 17 L 13 17.009766 A 1 1 0 0 0 14 18.009766 A 1 1 0 0 0 15 17.009766 L 15 17 A 1 1 0 0 0 14 16 z M 11 19 A 1 1 0 0 0 10 20 L 10 20.009766 A 1 1 0 0 0 11 21.009766 A 1 1 0 0 0 12 20.009766 L 12 20 A 1 1 0 0 0 11 19 z "/>
</svg>
