<svg xmlns="http://www.w3.org/2000/svg" xmlns:svg="http://www.w3.org/2000/svg" width="24" height="24" viewBox="0 0 24 24" fill="currentColor" tags="file,paper,tear,cut,delete,destroy,remove,erase,document,destruction,secure,security,confidential,data,trash,dispose,disposal,information,waste,permanent" categories="mail,files">
  <path d="M 6 1 C 4.3549904 1 3 2.3549904 3 4 L 3 12 L 2 12 A 1 1 0 0 0 1 13 A 1 1 0 0 0 2 14 L 22 14 A 1 1 0 0 0 23 13 A 1 1 0 0 0 22 12 L 21 12 L 21 8.0019531 L 21 8 C 21.001701 7.0943483 20.641585 6.225212 20 5.5859375 L 16.414062 2 C 15.774788 1.3584154 14.905652 0.99829936 14 1 L 6 1 z M 6 3 L 13 3 L 13 7 C 13 8.0927249 13.907275 9 15 9 L 19 9 L 19 12 L 5 12 L 5 4 C 5 3.4358706 5.4358706 3 6 3 z M 15 3.4160156 L 18.583984 7 L 15 7 L 15 3.4160156 z M 6 16 A 1 1 0 0 0 5 17 L 5 20 A 1 1 0 0 0 6 21 A 1 1 0 0 0 7 20 L 7 17 A 1 1 0 0 0 6 16 z M 10 16 A 1 1 0 0 0 9 17 L 9 22 A 1 1 0 0 0 10 23 A 1 1 0 0 0 11 22 L 11 17 A 1 1 0 0 0 10 16 z M 14 16 A 1 1 0 0 0 13 17 L 13 19 A 1 1 0 0 0 14 20 A 1 1 0 0 0 15 19 L 15 17 A 1 1 0 0 0 14 16 z M 18 16 A 1 1 0 0 0 17 17 L 17 20 A 1 1 0 0 0 18 21 A 1 1 0 0 0 19 20 L 19 17 A 1 1 0 0 0 18 16 z "/>
</svg>
