<?xml version="1.0" encoding="UTF-8" standalone="no"?>
<svg xmlns="http://www.w3.org/2000/svg" xmlns:svg="http://www.w3.org/2000/svg" width="24" height="24" viewBox="0 0 24 24" fill="currentColor" tags="file,paper,tear,cut,delete,destroy,remove,erase,document,destruction,secure,security,confidential,data,trash,dispose,disposal,information,waste,permanent" categories="mail,files">
  <path d="M 6 1 C 4.3549904 1 3 2.3549904 3 4 L 3 12 L 2 12 A 1 1 0 0 0 1 13 A 1 1 0 0 0 2 14 L 22 14 A 1 1 0 0 0 23 13 A 1 1 0 0 0 22 12 L 21 12 L 21 7 A 1.0001 1.0001 0 0 0 20.707031 6.2929688 L 15.707031 1.2929688 A 1.0001 1.0001 0 0 0 15 1 L 6 1 z M 6 3 L 13 3 L 13 6 C 13 7.6450096 14.35499 9 16 9 L 19 9 L 19 12 L 5 12 L 5 4 C 5 3.4358706 5.4358706 3 6 3 z M 15 3.4140625 L 18.585938 7 L 16 7 C 15.435871 7 15 6.5641294 15 6 L 15 3.4140625 z M 6 16 A 1 1 0 0 0 5 17 L 5 20 A 1 1 0 0 0 6 21 A 1 1 0 0 0 7 20 L 7 17 A 1 1 0 0 0 6 16 z M 10 16 A 1 1 0 0 0 9 17 L 9 22 A 1 1 0 0 0 10 23 A 1 1 0 0 0 11 22 L 11 17 A 1 1 0 0 0 10 16 z M 14 16 A 1 1 0 0 0 13 17 L 13 19 A 1 1 0 0 0 14 20 A 1 1 0 0 0 15 19 L 15 17 A 1 1 0 0 0 14 16 z M 18 16 A 1 1 0 0 0 17 17 L 17 20 A 1 1 0 0 0 18 21 A 1 1 0 0 0 19 20 L 19 17 A 1 1 0 0 0 18 16 z "/>
</svg>
