<?xml version="1.0" encoding="UTF-8" standalone="no"?>
<svg xmlns="http://www.w3.org/2000/svg" xmlns:svg="http://www.w3.org/2000/svg" width="24" height="24" viewBox="0 0 24 24" fill="currentColor" tags="seafood,shellfish,crustacean,prawn,scallop,whelk,arthropod,littleneck,quahog,cherrystone" categories="animals">
  <path d="M 14.070312 1.0019531 A 1 1 0 0 0 13.683594 1.0507812 A 1 1 0 0 0 13.105469 1.5527344 C 12.684351 2.3935964 11.799909 2.8870961 10.863281 2.8027344 L 4.6933594 2.2402344 L 4.6992188 2.2421875 C 3.6133802 2.1377431 2.6325682 2.5019015 1.9902344 3.1367188 C 1.3479005 3.771536 1.0284196 4.6169642 0.99023438 5.4589844 C 0.95204912 6.3010045 1.1931526 7.1729303 1.7753906 7.8632812 C 2.281444 8.4633014 3.0885261 8.8239541 4 8.9199219 L 4 9 C 4 13.406433 7.5935666 17 12 17 L 15.5 17 C 16.083333 17 16.393559 17.182744 16.626953 17.445312 C 16.860347 17.707881 17 18.097222 17 18.5 C 17 18.902778 16.860347 19.292119 16.626953 19.554688 C 16.393559 19.817256 16.083333 20 15.5 20 C 14.361546 20 14.150463 19.7364 13.707031 19.292969 A 1 1 0 0 0 13 19 A 1 1 0 0 0 12.292969 19.292969 A 1 1 0 0 0 12.292969 20.707031 C 12.388179 20.802241 12.581613 20.898853 12.705078 21 C 12.581613 21.101147 12.388181 21.197756 12.292969 21.292969 A 1 1 0 0 0 12.292969 22.707031 A 1 1 0 0 0 13.707031 22.707031 C 14.150463 22.2636 14.361546 22 15.5 22 C 19.630293 22 23 18.63029 23 14.5 C 23 10.36971 19.630293 7 15.5 7 L 5 7 L 4.3867188 7 A 1.0001 1.0001 0 0 0 4.3808594 7 C 3.7977943 7.0030662 3.5165036 6.8253661 3.3046875 6.5742188 C 3.0928714 6.3230715 2.9705495 5.9417809 2.9882812 5.5507812 C 3.0060128 5.1597817 3.1628056 4.7914911 3.3964844 4.5605469 C 3.6301631 4.3296026 3.9274176 4.1765933 4.5078125 4.2324219 A 1.0001 1.0001 0 0 0 4.5117188 4.2324219 L 10.681641 4.7929688 A 1.0001 1.0001 0 0 0 10.683594 4.7949219 C 12.432947 4.9524854 14.108004 4.017755 14.894531 2.4472656 A 1 1 0 0 0 14.447266 1.1054688 A 1 1 0 0 0 14.070312 1.0019531 z M 6 9 L 13.373047 9 C 14.208177 10.912525 14.208177 13.087475 13.373047 15 L 12 15 C 8.6744469 15 6 12.325553 6 9 z M 15.513672 9 C 16.858405 9.0032643 18.085724 9.4839189 19.037109 10.28125 C 19.129149 10.781515 18.797104 12.13201 18.099609 13.205078 C 17.384166 14.30576 16.333333 15 16 15 A 1 1 0 0 0 15.861328 15.017578 C 15.746987 15.006935 15.631704 15.000412 15.513672 15 C 16.161297 13.053607 16.161297 10.946393 15.513672 9 z M 11 11 A 1 1 0 0 0 10 12 A 1 1 0 0 0 11 13 L 11.009766 13 A 1 1 0 0 0 12.009766 12 A 1 1 0 0 0 11.009766 11 L 11 11 z M 20.666016 12.617188 C 20.878674 13.20455 21 13.836989 21 14.5 C 21 16.229412 20.162443 17.702558 18.923828 18.708984 C 18.92812 18.634688 19 18.57422 19 18.5 C 19 17.675637 18.734798 16.840161 18.167969 16.173828 C 18.791248 15.672202 19.319794 14.995839 19.775391 14.294922 C 20.122687 13.76062 20.43406 13.196014 20.666016 12.617188 z "/>
</svg>
