<svg xmlns="http://www.w3.org/2000/svg" xmlns:svg="http://www.w3.org/2000/svg" width="24" height="24" viewBox="0 0 24 24" fill="currentColor" tags="forest,undergrowth,park,nature" categories="nature">
  <path d="M 12 2 C 10.527778 2 9.0421194 2.4853474 7.8984375 3.5019531 C 6.8713493 4.41492 6.2402051 5.8177568 6.1054688 7.4726562 C 3.3999205 9.4084342 2.4735089 12.57177 3.1640625 15.333984 C 3.8894387 18.235489 6.3599509 20.755557 9.9316406 20.998047 A 1.0001 1.0001 0 0 0 10 21 L 11 21 L 11 22 A 1 1 0 0 0 12 23 A 1 1 0 0 0 13 22 L 13 21 L 13.763672 21 C 17.338161 21.127136 19.937768 18.750039 20.744141 15.927734 C 21.498105 13.28886 20.640541 10.201532 18 8.3496094 L 18 8 C 18 6.0833339 17.245244 4.5185588 16.101562 3.5019531 C 14.957881 2.4853474 13.472222 2 12 2 z M 12 4 C 13.027778 4 14.042119 4.3479866 14.773438 4.9980469 C 15.504755 5.6481071 16 6.5833342 16 8 L 16 8.8007812 A 1.0001 1.0001 0 0 0 16.501953 9.6679688 C 18.829645 11.003954 19.407232 13.322736 18.820312 15.376953 C 18.233393 17.43117 16.518082 19.095397 13.835938 19 A 1.0001 1.0001 0 0 0 13.800781 19 L 13 19 L 13 17.414062 L 15.207031 15.207031 A 1 1 0 0 0 15.207031 13.792969 A 1 1 0 0 0 14.5 13.5 A 1 1 0 0 0 13.792969 13.792969 L 12.466797 15.119141 C 12.365146 14.972378 12.249039 14.834938 12.121094 14.707031 L 10.207031 12.792969 A 1 1 0 0 0 9.5 12.5 A 1 1 0 0 0 8.7929688 12.792969 A 1 1 0 0 0 8.7929688 14.207031 L 10.707031 16.121094 C 10.894852 16.308858 10.999943 16.562546 11 16.828125 L 11 19 L 10.060547 19 C 7.3458361 18.812097 5.6442258 17.004637 5.1054688 14.849609 C 4.5661391 12.692291 5.2164086 10.290466 7.5292969 8.8476562 A 1.0001 1.0001 0 0 0 8 8 C 8 6.5833342 8.4952444 5.6481071 9.2265625 4.9980469 C 9.9578806 4.3479866 10.972222 4 12 4 z "/>
</svg>
