<?xml version="1.0" encoding="UTF-8" standalone="no"?>
<svg xmlns="http://www.w3.org/2000/svg" xmlns:svg="http://www.w3.org/2000/svg" width="24" height="24" viewBox="0 0 24 24" fill="currentColor" tags="forest,undergrowth,park,nature" categories="nature">
  <path d="M 12 2 C 10.52778 2 9.0421172 2.4853494 7.8984375 3.5019531 C 6.8713513 4.4149182 6.2402047 5.8177601 6.1054688 7.4726562 C 3.399926 9.4084304 2.4735103 12.571776 3.1640625 15.333984 C 3.8894373 18.235483 6.3599581 20.755558 9.9316406 20.998047 A 1.0001 1.0001 0 0 0 10 21 L 11 21 L 11 22 A 1 1 0 0 0 12 23 A 1 1 0 0 0 13 22 L 13 21 L 13.763672 21 C 17.338153 21.127136 19.937769 18.750034 20.744141 15.927734 C 21.498103 13.288866 20.640535 10.201528 18 8.3496094 L 18 8 C 18 6.0833378 17.245242 4.5185568 16.101562 3.5019531 C 14.957884 2.4853494 13.47222 2 12 2 z M 12 4 C 13.027776 4 14.04212 4.3479879 14.773438 4.9980469 C 15.504754 5.6481058 16 6.583337 16 8 L 16 8.8007812 A 1.0001 1.0001 0 0 0 16.501953 9.6679688 C 18.829641 11.003951 19.407231 13.322741 18.820312 15.376953 C 18.233395 17.431166 16.518078 19.095397 13.835938 19 A 1.0001 1.0001 0 0 0 13.800781 19 L 13 19 L 13 16.414062 L 14.707031 14.707031 A 1 1 0 0 0 14.707031 13.292969 A 1 1 0 0 0 14 13 A 1 1 0 0 0 13.292969 13.292969 L 12.5 14.085938 L 10.707031 12.292969 A 1 1 0 0 0 10 12 A 1 1 0 0 0 9.2929688 12.292969 A 1 1 0 0 0 9.2929688 13.707031 L 11 15.414062 L 11 16 L 11 19 L 10.060547 19 C 7.3458416 18.812097 5.6442247 17.004633 5.1054688 14.849609 C 4.5661402 12.692296 5.2164132 10.290464 7.5292969 8.8476562 A 1.0001 1.0001 0 0 0 8 8 C 8 6.583337 8.4952458 5.6481058 9.2265625 4.9980469 C 9.9578792 4.3479879 10.972224 4 12 4 z "/>
</svg>
