<svg xmlns="http://www.w3.org/2000/svg" xmlns:svg="http://www.w3.org/2000/svg" width="24" height="24" viewBox="0 0 24 24" fill="currentColor" tags="music,random,reorder" categories="multimedia,arrows">
  <path d="M 18 1 A 1 1 0 0 0 17.292969 1.2929688 A 1 1 0 0 0 17.292969 2.7070312 L 19.585938 5 L 16.033203 5 C 14.393941 4.988803 12.850763 5.7837737 11.908203 7.125 A 1.0001 1.0001 0 0 0 11.882812 7.1640625 L 6.4492188 15.730469 C 5.8822844 16.532379 4.9628967 17.00671 3.9804688 17 A 1.0001 1.0001 0 0 0 3.9726562 17 L 2 17 A 1 1 0 0 0 1 18 A 1 1 0 0 0 2 19 L 3.9667969 19 C 5.6060593 19.0112 7.1492372 18.216226 8.0917969 16.875 A 1.0001 1.0001 0 0 0 8.1171875 16.835938 L 13.550781 8.2695312 C 14.117716 7.4676209 15.037103 6.9932897 16.019531 7 A 1.0001 1.0001 0 0 0 16.027344 7 L 19.585938 7 L 17.292969 9.2929688 A 1 1 0 0 0 17.292969 10.707031 A 1 1 0 0 0 18.707031 10.707031 L 22.697266 6.7167969 A 1 1 0 0 0 22.707031 6.7070312 A 1.0001 1.0001 0 0 0 22.785156 6.6191406 A 1 1 0 0 0 22.792969 6.609375 A 1.0001 1.0001 0 0 0 22.861328 6.5078125 A 1 1 0 0 0 22.865234 6.5 A 1.0001 1.0001 0 0 0 22.921875 6.3886719 A 1 1 0 0 0 22.964844 6.2578125 A 1.0001 1.0001 0 0 0 22.964844 5.7421875 A 1 1 0 0 0 22.923828 5.6171875 A 1.0001 1.0001 0 0 0 22.921875 5.6113281 A 1 1 0 0 0 22.865234 5.5 A 1.0001 1.0001 0 0 0 22.861328 5.4921875 A 1 1 0 0 0 22.792969 5.390625 A 1.0001 1.0001 0 0 0 22.785156 5.3808594 A 1 1 0 0 0 22.707031 5.2929688 L 18.707031 1.2929688 A 1 1 0 0 0 18 1 z M 2 5 A 1 1 0 0 0 1 6 A 1 1 0 0 0 2 7 L 3.9726562 7 A 1.0001 1.0001 0 0 0 3.9785156 7 C 5.1211344 6.992048 6.165524 7.6299601 6.6796875 8.6503906 A 1 1 0 0 0 8.0214844 9.09375 A 1 1 0 0 0 8.4648438 7.75 C 7.610483 6.0544001 5.8634791 4.9867866 3.9648438 5 L 2 5 z M 18 13 A 1 1 0 0 0 17.292969 13.292969 A 1 1 0 0 0 17.292969 14.707031 L 19.585938 17 L 15.96875 17 C 14.969378 16.98981 14.043772 16.485108 13.494141 15.650391 A 1.0001 1.0001 0 0 0 13.441406 15.576172 L 13.082031 15.126953 A 1 1 0 0 0 12.412109 14.755859 A 1 1 0 0 0 11.675781 14.96875 A 1 1 0 0 0 11.517578 16.373047 L 11.876953 16.824219 C 12.797214 18.167615 14.317204 18.983355 15.949219 19 A 1.0001 1.0001 0 0 0 15.958984 19 L 19.585938 19 L 17.292969 21.292969 A 1 1 0 0 0 17.292969 22.707031 A 1 1 0 0 0 18.707031 22.707031 L 22.697266 18.716797 A 1 1 0 0 0 22.707031 18.707031 A 1.0001 1.0001 0 0 0 22.785156 18.619141 A 1 1 0 0 0 22.792969 18.609375 A 1.0001 1.0001 0 0 0 22.861328 18.507812 A 1 1 0 0 0 22.865234 18.5 A 1.0001 1.0001 0 0 0 22.921875 18.388672 A 1 1 0 0 0 22.923828 18.382812 A 1 1 0 0 0 22.964844 18.257812 A 1.0001 1.0001 0 0 0 22.976562 18.205078 A 1.0001 1.0001 0 0 0 23 18 A 1.0001 1.0001 0 0 0 22.976562 17.794922 A 1.0001 1.0001 0 0 0 22.964844 17.742188 A 1 1 0 0 0 22.923828 17.617188 A 1.0001 1.0001 0 0 0 22.921875 17.611328 A 1 1 0 0 0 22.865234 17.5 A 1.0001 1.0001 0 0 0 22.861328 17.492188 A 1 1 0 0 0 22.792969 17.390625 A 1.0001 1.0001 0 0 0 22.785156 17.380859 A 1 1 0 0 0 22.707031 17.292969 L 22.697266 17.283203 L 18.707031 13.292969 A 1 1 0 0 0 18 13 z "/>
</svg>
