<?xml version="1.0" encoding="UTF-8" standalone="no"?>
<svg xmlns="http://www.w3.org/2000/svg" xmlns:svg="http://www.w3.org/2000/svg" width="24" height="24" viewBox="0 0 24 24" fill="currentColor" tags="music,random,reorder" categories="multimedia,arrows">
  <path d="M 18 1 A 1 1 0 0 0 17.292969 1.2929688 A 1 1 0 0 0 17.292969 2.7070312 L 19.585938 5 L 16.033203 5 C 14.393941 4.988803 12.850763 5.7837737 11.908203 7.125 A 1.0001 1.0001 0 0 0 11.882812 7.1640625 L 6.4492188 15.730469 C 5.8822844 16.532379 4.9628967 17.00671 3.9804688 17 A 1.0001 1.0001 0 0 0 3.9726562 17 L 2 17 A 1 1 0 0 0 1 18 A 1 1 0 0 0 2 19 L 3.9667969 19 C 5.6060593 19.0112 7.1492372 18.216226 8.0917969 16.875 A 1.0001 1.0001 0 0 0 8.1171875 16.835938 L 13.550781 8.2695312 C 14.117716 7.4676209 15.037103 6.9932897 16.019531 7 A 1.0001 1.0001 0 0 0 16.027344 7 L 19.585938 7 L 17.292969 9.2929688 A 1 1 0 0 0 17.292969 10.707031 A 1 1 0 0 0 18.707031 10.707031 L 22.707031 6.7070312 A 1.0001 1.0001 0 0 0 23 6 A 1 1 0 0 0 22.994141 5.9023438 A 1.0001 1.0001 0 0 0 22.992188 5.890625 A 1 1 0 0 0 22.984375 5.8300781 A 1.0001 1.0001 0 0 0 22.917969 5.6035156 A 1 1 0 0 0 22.880859 5.5292969 A 1.0001 1.0001 0 0 0 22.871094 5.5117188 A 1 1 0 0 0 22.832031 5.4453125 A 1.0001 1.0001 0 0 0 22.755859 5.3457031 A 1 1 0 0 0 22.751953 5.3417969 A 1.0001 1.0001 0 0 0 22.707031 5.2929688 L 18.707031 1.2929688 A 1 1 0 0 0 18 1 z M 2 5 A 1 1 0 0 0 1 6 A 1 1 0 0 0 2 7 L 3.9726562 7 A 1.0001 1.0001 0 0 0 3.9785156 7 C 5.1211344 6.992048 6.165524 7.6299601 6.6796875 8.6503906 A 1 1 0 0 0 8.0214844 9.09375 A 1 1 0 0 0 8.4648438 7.75 C 7.610483 6.0544001 5.8634791 4.9867866 3.9648438 5 L 2 5 z M 18 13 A 1 1 0 0 0 17.292969 13.292969 A 1 1 0 0 0 17.292969 14.707031 L 19.585938 17 L 15.96875 17 C 14.969378 16.98981 14.043772 16.485108 13.494141 15.650391 A 1.0001 1.0001 0 0 0 13.441406 15.576172 L 13.082031 15.126953 A 1 1 0 0 0 12.412109 14.755859 A 1 1 0 0 0 11.675781 14.96875 A 1 1 0 0 0 11.517578 16.373047 L 11.876953 16.824219 C 12.79719 18.167822 14.317064 18.983353 15.949219 19 A 1.0001 1.0001 0 0 0 15.958984 19 L 19.585938 19 L 17.292969 21.292969 A 1 1 0 0 0 17.292969 22.707031 A 1 1 0 0 0 18.707031 22.707031 L 22.707031 18.707031 A 1.0001 1.0001 0 0 0 22.804688 18.591797 A 1.0001 1.0001 0 0 0 22.808594 18.587891 A 1 1 0 0 0 22.810547 18.583984 A 1.0001 1.0001 0 0 0 22.949219 18.3125 A 1.0001 1.0001 0 0 0 22.951172 18.308594 A 1 1 0 0 0 22.951172 18.306641 A 1.0001 1.0001 0 0 0 23 18 A 1.0001 1.0001 0 0 0 22.994141 17.894531 A 1 1 0 0 0 22.980469 17.804688 A 1.0001 1.0001 0 0 0 22.978516 17.792969 A 1 1 0 0 0 22.957031 17.708984 A 1.0001 1.0001 0 0 0 22.951172 17.691406 A 1 1 0 0 0 22.923828 17.617188 A 1.0001 1.0001 0 0 0 22.919922 17.609375 A 1 1 0 0 0 22.886719 17.541016 A 1 1 0 0 0 22.880859 17.529297 A 1.0001 1.0001 0 0 0 22.865234 17.5 A 1 1 0 0 0 22.851562 17.478516 A 1.0001 1.0001 0 0 0 22.814453 17.421875 A 1.0001 1.0001 0 0 0 22.808594 17.412109 A 1 1 0 0 0 22.798828 17.400391 A 1.0001 1.0001 0 0 0 22.75 17.339844 A 1.0001 1.0001 0 0 0 22.742188 17.330078 A 1 1 0 0 0 22.707031 17.292969 L 22.669922 17.257812 L 18.707031 13.292969 A 1 1 0 0 0 18 13 z "/>
</svg>
