<?xml version="1.0" encoding="UTF-8" standalone="no"?>
<svg xmlns="http://www.w3.org/2000/svg" xmlns:svg="http://www.w3.org/2000/svg" width="24" height="24" viewBox="0 0 24 24" fill="currentColor" tags="sum,calculate,formula,maths,enumeration,enumerate" categories="text,maths,science">
  <path d="M 6.5 3 C 5.3268858 3 4.5969128 4.4618993 5.3007812 5.4003906 L 9.8007812 11.400391 C 10.070114 11.7595 10.070114 12.2405 9.8007812 12.599609 L 5.3007812 18.599609 C 4.5969128 19.538101 5.3268858 21 6.5 21 L 17 21 C 18.092723 21 19 20.092723 19 19 L 19 17 A 1 1 0 0 0 18 16 A 1 1 0 0 0 17 17 L 17 19 L 7.5 19 L 11.400391 13.800781 C 12.197722 12.737672 12.197722 11.262328 11.400391 10.199219 L 7.5 5 L 17 5 L 17 7 A 1 1 0 0 0 18 8 A 1 1 0 0 0 19 7 L 19 5 C 19 3.9072773 18.092723 3 17 3 L 6.5 3 z "/>
</svg>
