<?xml version="1.0" encoding="UTF-8" standalone="no"?>
<svg xmlns="http://www.w3.org/2000/svg" xmlns:svg="http://www.w3.org/2000/svg" width="24" height="24" viewBox="0 0 24 24" fill="currentColor" tags="sum,calculate,formula,maths,enumeration,enumerate" categories="text,maths">
  
  <path d="M 5 2 C 3.3553005 2 2 3.3553005 2 5 L 2 19 C 2 20.644699 3.3553005 22 5 22 L 19 22 C 20.644699 22 22 20.644699 22 19 L 22 5 C 22 3.3553005 20.644699 2 19 2 L 5 2 z M 5 4 L 19 4 C 19.571296 4 20 4.4287039 20 5 L 20 19 C 20 19.571296 19.571296 20 19 20 L 5 20 C 4.4287039 20 4 19.571296 4 19 L 4 5 C 4 4.4287039 4.4287039 4 5 4 z M 8 6 A 1.0001 1.0001 0 0 0 7.21875 7.625 L 10.71875 12 L 7.21875 16.375 A 1.0001 1.0001 0 0 0 8 18 L 16 18 A 1.0001 1.0001 0 0 0 17 17 L 17 15.099609 A 1 1 0 0 0 16 14.099609 A 1 1 0 0 0 15 15.099609 L 15 16 L 10.082031 16 L 12.78125 12.625 A 1.0001 1.0001 0 0 0 12.78125 11.375 L 10.082031 8 L 15 8 L 15 8.9003906 A 1 1 0 0 0 16 9.9003906 A 1 1 0 0 0 17 8.9003906 L 17 7 A 1.0001 1.0001 0 0 0 16 6 L 8 6 z "/>
</svg>
