<?xml version="1.0" encoding="UTF-8" standalone="no"?>
<svg xmlns="http://www.w3.org/2000/svg" xmlns:svg="http://www.w3.org/2000/svg" width="24" height="24" viewBox="0 0 24 24" fill="currentColor" tags="connection,wireless,gsm,phone,2g,3g,4g,5g" categories="connectivity">
  <path d="M 22 3 A 1 1 0 0 0 21 4 L 21 20 A 1 1 0 0 0 22 21 A 1 1 0 0 0 23 20 L 23 4 A 1 1 0 0 0 22 3 z M 17 7 A 1 1 0 0 0 16 8 L 16 20 A 1 1 0 0 0 17 21 A 1 1 0 0 0 18 20 L 18 8 A 1 1 0 0 0 17 7 z M 12 11 A 1 1 0 0 0 11 12 L 11 20 A 1 1 0 0 0 12 21 A 1 1 0 0 0 13 20 L 13 12 A 1 1 0 0 0 12 11 z M 7 15 A 1 1 0 0 0 6 16 L 6 20 A 1 1 0 0 0 7 21 A 1 1 0 0 0 8 20 L 8 16 A 1 1 0 0 0 7 15 z M 2 19 A 1 1 0 0 0 1 20 A 1 1 0 0 0 2 21 L 2.0097656 21 A 1 1 0 0 0 3.0097656 20 A 1 1 0 0 0 2.0097656 19 L 2 19 z "/>
</svg>
