<?xml version="1.0" encoding="UTF-8" standalone="no"?>
<svg xmlns="http://www.w3.org/2000/svg" xmlns:svg="http://www.w3.org/2000/svg" width="24" height="24" viewBox="0 0 24 24" fill="currentColor" tags="bidirectional,left,right,east,west" categories="arrows,navigation,development,gaming">
  <path d="M 12 1 C 11.27778 1 10.542118 1.2353482 9.9609375 1.7519531 C 9.3797568 2.268558 9 3.0833353 9 4 L 4 4 A 1.0001 1.0001 0 0 0 3.2929688 4.2929688 L 1.2929688 6.2929688 A 1.0001 1.0001 0 0 0 1.2929688 7.7070312 L 3.2929688 9.7070312 A 1.0001 1.0001 0 0 0 4 10 L 9 10 L 9 21 L 8 21 A 1 1 0 0 0 7 22 A 1 1 0 0 0 8 23 L 10 23 L 14 23 L 16 23 A 1 1 0 0 0 17 22 A 1 1 0 0 0 16 21 L 15 21 L 15 10 L 20 10 A 1.0001 1.0001 0 0 0 20.707031 9.7070312 L 22.707031 7.7070312 A 1.0001 1.0001 0 0 0 22.707031 6.2929688 L 20.707031 4.2929688 A 1.0001 1.0001 0 0 0 20 4 L 15 4 C 15 3.0833353 14.620243 2.268558 14.039062 1.7519531 C 13.457881 1.2353482 12.72222 1 12 1 z M 12 3 C 12.277778 3 12.54212 3.0979867 12.710938 3.2480469 C 12.879754 3.398107 13 3.5833345 13 4 L 13 21 L 11 21 L 11 4 C 11 3.5833345 11.120245 3.398107 11.289062 3.2480469 C 11.457879 3.0979867 11.722222 3 12 3 z M 4.4140625 6 L 9 6 L 9 8 L 4.4140625 8 L 3.4140625 7 L 4.4140625 6 z M 15 6 L 19.585938 6 L 20.585938 7 L 19.585938 8 L 15 8 L 15 6 z "/>
</svg>
