<?xml version="1.0" encoding="UTF-8" standalone="no"?>
<svg xmlns="http://www.w3.org/2000/svg" xmlns:svg="http://www.w3.org/2000/svg" width="24" height="24" viewBox="0 0 24 24" fill="currentColor" tags="text,format,input,contract,autograph,handwriting,sign,cursive,ink,scribble,authorize,personal,agreement,legal,document,identity,authentic,approval,verification,unique" categories="text,layout">
  <path d="M 13.132812 1.5136719 C 11.355612 1.471648 9.6413342 2.8086083 9.5078125 4.7597656 C 9.3223639 6.0208532 9.087849 8.7396842 8.5078125 11.244141 C 7.5464018 11.080248 6.5484439 10.962015 5.5058594 10.955078 A 1.0001 1.0001 0 0 0 5.5 10.955078 C 4.4015025 10.955078 3.4512713 11.402475 2.84375 12.085938 C 2.2362293 12.769399 1.9550781 13.641405 1.9550781 14.5 C 1.9550781 15.358595 2.2362287 16.230601 2.84375 16.914062 C 3.4512713 17.597525 4.4015025 18.046875 5.5 18.046875 C 6.9364332 18.046875 8.0773038 17.137078 8.8203125 16.009766 C 9.264743 15.335463 9.4796702 14.455027 9.765625 13.634766 C 10.189043 13.765952 10.674857 13.86312 11.025391 14.027344 C 12.407836 14.675017 13.015625 15.428103 13.015625 16.175781 A 1.0001 1.0001 0 0 0 13.03125 16.351562 C 13.174569 17.152685 13.796918 17.793473 14.59375 17.958984 A 1.0001 1.0001 0 0 0 14.791016 17.978516 L 17.220703 17.994141 C 18.111029 17.999441 18.749032 17.339213 19.007812 16.527344 L 20.324219 17.736328 A 1 1 0 0 0 21.736328 17.675781 A 1 1 0 0 0 21.675781 16.263672 L 19.746094 14.490234 A 1.0001 1.0001 0 0 0 19.746094 14.488281 C 19.293913 14.073472 18.626641 14.002127 18.128906 14.220703 C 17.631172 14.439279 17.232975 14.980126 17.232422 15.59375 L 17.232422 15.994141 L 14.939453 15.978516 C 14.82902 14.293396 13.54794 13.001481 11.873047 12.216797 C 11.449326 12.018284 10.920108 11.917799 10.443359 11.765625 C 11.09792 8.9725281 11.347016 5.9459967 11.494141 4.9785156 A 1.0001 1.0001 0 0 0 11.503906 4.8964844 C 11.584616 3.7170726 12.80442 3.0993315 13.802734 3.7324219 C 14.801049 4.3655122 14.762886 5.7346725 13.730469 6.3105469 A 1 1 0 0 0 13.34375 7.6699219 A 1 1 0 0 0 14.705078 8.0566406 C 16.982352 6.7863783 17.077114 3.4394602 14.875 2.0429688 C 14.324472 1.6938458 13.725212 1.5276798 13.132812 1.5136719 z M 5.4980469 12.955078 C 6.3129167 12.960678 7.0730546 13.07126 7.8242188 13.183594 C 7.5994824 13.776723 7.4234867 14.495808 7.1503906 14.910156 C 6.6199644 15.714933 6.1400627 16.046875 5.5 16.046875 C 4.9015017 16.046875 4.5788673 15.857036 4.3378906 15.585938 C 4.0969141 15.314838 3.9550781 14.914152 3.9550781 14.5 C 3.9550781 14.085848 4.0969141 13.685161 4.3378906 13.414062 C 4.5785169 13.143358 4.9012204 12.955626 5.4980469 12.955078 z M 14.945312 15.994141 L 15 16 L 15.015625 16.175781 C 15.015625 16.106271 14.949422 16.062285 14.945312 15.994141 z M 3 20 A 1 1 0 0 0 2 21 A 1 1 0 0 0 3 22 L 21 22 A 1 1 0 0 0 22 21 A 1 1 0 0 0 21 20 L 3 20 z "/>
</svg>
