<?xml version="1.0" encoding="UTF-8" standalone="no"?>
<svg xmlns="http://www.w3.org/2000/svg" xmlns:svg="http://www.w3.org/2000/svg" width="24" height="24" viewBox="0 0 24 24" fill="currentColor" tags="bidirectional,left,right,east,west" categories="arrows,navigation,development,gaming">
  <path d="M 12 2 A 1 1 0 0 0 11 3 L 11 5 L 6 5 C 5.2048012 5.0001698 4.4411118 5.3165309 3.8789062 5.8789062 L 1.5996094 8.0722656 A 1.0001 1.0001 0 0 0 1.5859375 8.0859375 C 0.81354143 8.8585668 0.81354143 10.141432 1.5859375 10.914062 A 1.0001 1.0001 0 0 0 1.5996094 10.927734 L 3.8789062 13.121094 C 4.4411118 13.68347 5.2048012 13.99983 6 14 A 1.0001 1.0001 0 0 0 6.0019531 14 L 11 13.990234 L 11 21 A 1 1 0 0 0 12 22 A 1 1 0 0 0 13 21 L 13 13.986328 L 17.671875 13.976562 C 18.590731 14.07768 19.510283 13.753602 20.15625 13.085938 L 22.400391 10.927734 A 1.0001 1.0001 0 0 0 22.414062 10.914062 C 23.186459 10.141432 23.186459 8.8585668 22.414062 8.0859375 A 1.0001 1.0001 0 0 0 22.400391 8.0722656 L 20.121094 5.8789062 C 19.558888 5.3165309 18.795199 5.0001698 18 5 L 13 5 L 13 3 A 1 1 0 0 0 12 2 z M 6 7 L 12 7 L 18 7 C 18.265579 7.0000567 18.519267 7.1051482 18.707031 7.2929688 A 1.0001 1.0001 0 0 0 18.720703 7.3066406 L 21 9.5 L 18.744141 11.669922 A 1.0001 1.0001 0 0 0 18.71875 11.695312 C 18.492438 11.929225 18.169332 12.037855 17.847656 11.988281 A 1.0001 1.0001 0 0 0 17.693359 11.976562 L 6 12 C 5.7344217 11.999943 5.4807327 11.894852 5.2929688 11.707031 A 1.0001 1.0001 0 0 0 5.2792969 11.693359 L 3 9.5 L 5.2792969 7.3066406 A 1.0001 1.0001 0 0 0 5.2929688 7.2929688 C 5.4807325 7.1051483 5.7344217 7.0000567 6 7 z "/>
</svg>
