<?xml version="1.0" encoding="UTF-8" standalone="no"?>
<svg xmlns="http://www.w3.org/2000/svg" xmlns:svg="http://www.w3.org/2000/svg" width="24" height="24" viewBox="0 0 24 24" fill="currentColor" tags="bidirectional,left,right,east,west" categories="arrows,navigation,development,gaming">
  <path d="M 12 2 A 1 1 0 0 0 11 3 L 11 5 L 6 5 C 5.2242979 5.0003678 4.4784274 5.3015265 3.9199219 5.8398438 L 1.6132812 8.0605469 C 0.80676544 8.8379095 0.80676544 10.16209 1.6132812 10.939453 L 3.9199219 13.160156 C 4.4784274 13.698474 5.2242979 13.999632 6 14 L 11 14 L 11 21 A 1 1 0 0 0 12 22 A 1 1 0 0 0 13 21 L 13 14 L 18 14 C 18.775702 13.999632 19.521573 13.698474 20.080078 13.160156 L 22.386719 10.941406 A 1.0001 1.0001 0 0 0 22.388672 10.939453 C 23.195188 10.16209 23.195188 8.8379095 22.388672 8.0605469 A 1.0001 1.0001 0 0 0 22.386719 8.0585938 L 20.080078 5.8398438 C 19.521573 5.3015264 18.775702 5.0003678 18 5 L 13 5 L 13 3 A 1 1 0 0 0 12 2 z M 6 7 L 12 7 L 18 7 C 18.259021 7.0001228 18.506864 7.099543 18.693359 7.2792969 A 1.0001 1.0001 0 0 0 18.693359 7.28125 L 21 9.5 L 18.693359 11.71875 A 1.0001 1.0001 0 0 0 18.693359 11.720703 C 18.506864 11.90041 18.259021 11.999877 18 12 L 12 12 L 6 12 C 5.7409788 11.999877 5.4931359 11.900457 5.3066406 11.720703 A 1.0001 1.0001 0 0 0 5.3066406 11.71875 L 3 9.5 L 5.3066406 7.28125 A 1.0001 1.0001 0 0 0 5.3066406 7.2792969 C 5.4931359 7.0995397 5.7409788 7.0001228 6 7 z "/>
</svg>
