<svg xmlns="http://www.w3.org/2000/svg" xmlns:svg="http://www.w3.org/2000/svg" width="24" height="24" viewBox="0 0 24 24" fill="currentColor" tags="text,format,input,contract,autograph,handwriting,sign,cursive,ink,scribble,authorize,personal,agreement,legal,document,identity,authentic,approval,verification,unique" categories="text">
  <path d="M 13.667969 1.0214844 C 13.39233 1.0105736 13.116021 1.0323765 12.845703 1.0839844 C 11.764433 1.2904158 10.776872 1.987967 10.291016 3.0996094 C 9.9399804 3.9033806 9.7682567 4.9826024 9.5117188 6.3554688 C 9.2551807 7.7283351 8.9621655 9.3262916 8.5800781 10.830078 C 8.538464 10.993859 8.4678425 11.088913 8.4238281 11.25 C 7.4866245 11.11071 6.5187011 11.006739 5.5058594 11 A 1.0001 1.0001 0 0 0 5.5 11 C 4.4166669 11 3.4768923 11.442256 2.8769531 12.117188 C 2.2770139 12.792118 2 13.652778 2 14.5 C 2 15.347222 2.2770139 16.207881 2.8769531 16.882812 C 3.4768923 17.557744 4.4166669 18 5.5 18 C 6.9915368 18 8.1219993 16.959581 8.8671875 15.714844 C 9.2286382 15.111089 9.4041314 14.301963 9.6679688 13.583984 C 10.136707 13.710928 10.661924 13.809117 11.042969 13.974609 C 11.731539 14.273664 12.251037 14.629772 12.564453 14.976562 C 12.877869 15.323352 13 15.625112 13 16 C 13 17.092725 13.907275 18 15 18 L 17 18 C 17.924692 18 18.59668 17.295577 18.818359 16.433594 L 20.345703 17.755859 A 1 1 0 0 0 21.755859 17.654297 A 1 1 0 0 0 21.654297 16.244141 L 19.53125 14.40625 C 19.080422 13.978786 18.403849 13.899623 17.900391 14.119141 C 17.396932 14.338658 16.993576 14.888533 17 15.509766 L 17 16 L 15 16 C 15 15.102388 14.624631 14.271882 14.048828 13.634766 C 13.473025 12.997649 12.712649 12.517742 11.839844 12.138672 C 11.403441 11.949137 10.86239 11.855996 10.371094 11.714844 C 10.409004 11.573052 10.483275 11.46496 10.519531 11.322266 C 10.924944 9.7266768 11.221474 8.0877586 11.476562 6.7226562 C 11.731649 5.3575539 11.994535 4.1991194 12.125 3.9003906 C 12.560455 2.9040683 13.782815 2.6697385 14.554688 3.4355469 C 15.326559 4.2013553 15.102232 5.4277959 14.109375 5.8710938 A 1 1 0 0 0 13.605469 7.1914062 A 1 1 0 0 0 14.925781 7.6972656 C 17.141334 6.7080499 17.685324 3.7245285 15.962891 2.015625 C 15.316978 1.3747862 14.494884 1.0542167 13.667969 1.0214844 z M 5.4980469 13 C 6.2726316 13.0053 6.9883346 13.103149 7.7050781 13.193359 C 7.5117772 13.677154 7.3688702 14.322559 7.1503906 14.6875 C 6.5864539 15.629481 6.0849632 16 5.5 16 C 4.9166671 16 4.6064406 15.817256 4.3730469 15.554688 C 4.1396531 15.292118 4 14.902778 4 14.5 C 4 14.097222 4.1396531 13.70788 4.3730469 13.445312 C 4.6060908 13.183137 4.9164037 13.000548 5.4980469 13 z M 3 20 A 1 1 0 0 0 2 21 A 1 1 0 0 0 3 22 L 21 22 A 1 1 0 0 0 22 21 A 1 1 0 0 0 21 20 L 3 20 z "/>
</svg>
