<?xml version="1.0" encoding="UTF-8" standalone="no"?>
<svg xmlns="http://www.w3.org/2000/svg" xmlns:svg="http://www.w3.org/2000/svg" width="24" height="24" viewBox="0 0 24 24" fill="currentColor" tags="bidirectional,left,right,east,west" categories="arrows,navigation,development,gaming">
  
  <path d="M 12 2 A 1 1 0 0 0 11 3 L 11 5 L 5.5 5 A 1.0001 1.0001 0 0 0 4.7929688 5.2929688 L 1.2929688 8.7929688 A 1.0001 1.0001 0 0 0 1.2929688 10.207031 L 4.7929688 13.707031 A 1.0001 1.0001 0 0 0 5.5 14 L 11 14 L 11 21 A 1 1 0 0 0 12 22 A 1 1 0 0 0 13 21 L 13 14 L 18.5 14 A 1.0001 1.0001 0 0 0 19.207031 13.707031 L 22.707031 10.207031 A 1.0001 1.0001 0 0 0 22.707031 8.7929688 L 19.207031 5.2929688 A 1.0001 1.0001 0 0 0 18.5 5 L 13 5 L 13 3 A 1 1 0 0 0 12 2 z M 5.9140625 7 L 18.085938 7 L 20.585938 9.5 L 18.085938 12 L 12 12 L 5.9140625 12 L 3.4140625 9.5 L 5.9140625 7 z "/>
</svg>
