<?xml version="1.0" encoding="UTF-8" standalone="no"?>
<svg xmlns="http://www.w3.org/2000/svg" xmlns:svg="http://www.w3.org/2000/svg" width="24" height="24" viewBox="0 0 24 24" fill="currentColor" tags="text,format,input,contract,autograph,handwriting,sign,cursive,ink,scribble,authorize,personal,agreement,legal,document,identity,authentic,approval,verification,unique" categories="text,layout">
  <path d="M 13.667969 1.0214844 C 13.392331 1.0105735 13.11602 1.0323766 12.845703 1.0839844 C 11.764435 1.2904154 10.776871 1.9879692 10.291016 3.0996094 C 9.9399812 3.903379 9.7682561 4.9826051 9.5117188 6.3554688 C 9.2551813 7.7283325 8.9621647 9.3262946 8.5800781 10.830078 C 8.5384642 10.993859 8.4678425 11.088913 8.4238281 11.25 C 7.4866264 11.11071 6.5186991 11.006739 5.5058594 11 A 1.0001 1.0001 0 0 0 5.5 11 C 4.4166691 11 3.4768911 11.442256 2.8769531 12.117188 C 2.2770151 12.792118 2 13.65278 2 14.5 C 2 15.34722 2.2770151 16.207882 2.8769531 16.882812 C 3.4768911 17.557744 4.4166691 18 5.5 18 C 6.9915338 18 8.1220007 16.959579 8.8671875 15.714844 C 9.2286374 15.111089 9.404132 14.301962 9.6679688 13.583984 C 10.136705 13.710928 10.661924 13.809118 11.042969 13.974609 C 11.731537 14.273664 12.251038 14.629773 12.564453 14.976562 C 12.877869 15.323351 13 15.625113 13 16 C 13 17.092723 13.907277 18 15 18 L 17 18 C 17.92469 18 18.596681 17.295575 18.818359 16.433594 L 20.345703 17.755859 A 1 1 0 0 0 21.755859 17.654297 A 1 1 0 0 0 21.654297 16.244141 L 19.53125 14.40625 C 19.080423 13.978786 18.403848 13.899623 17.900391 14.119141 C 17.396933 14.338657 16.993576 14.888533 17 15.509766 L 17 16 L 15 16 C 15 15.10239 14.62463 14.271881 14.048828 13.634766 C 13.473027 12.99765 12.712647 12.517741 11.839844 12.138672 C 11.403442 11.949137 10.862389 11.855996 10.371094 11.714844 C 10.409004 11.573052 10.483275 11.464958 10.519531 11.322266 C 10.924944 9.72668 11.221476 8.087756 11.476562 6.7226562 C 11.731648 5.3575566 11.994535 4.1991188 12.125 3.9003906 C 12.560454 2.9040703 13.782817 2.66974 14.554688 3.4355469 C 15.326557 4.2013537 15.10223 5.4277967 14.109375 5.8710938 A 1 1 0 0 0 13.605469 7.1914062 A 1 1 0 0 0 14.925781 7.6972656 C 17.14133 6.7080519 17.68532 3.7245251 15.962891 2.015625 C 15.316979 1.3747875 14.494883 1.0542169 13.667969 1.0214844 z M 5.4980469 13 C 6.27263 13.0053 6.988336 13.103149 7.7050781 13.193359 C 7.5117776 13.677153 7.3688698 14.322559 7.1503906 14.6875 C 6.586455 15.629479 6.084962 16 5.5 16 C 4.9166683 16 4.6064401 15.817254 4.3730469 15.554688 C 4.1396536 15.29212 4 14.902777 4 14.5 C 4 14.097223 4.1396536 13.707879 4.3730469 13.445312 C 4.6060902 13.183138 4.9164049 13.000548 5.4980469 13 z M 3 20 A 1 1 0 0 0 2 21 A 1 1 0 0 0 3 22 L 21 22 A 1 1 0 0 0 22 21 A 1 1 0 0 0 21 20 L 3 20 z "/>
</svg>
