<?xml version="1.0" encoding="UTF-8" standalone="no"?>
<svg xmlns="http://www.w3.org/2000/svg" xmlns:svg="http://www.w3.org/2000/svg" width="24" height="24" viewBox="0 0 24 24" fill="currentColor" tags="police,ambulance,emergency,security,alert,alarm,light" categories="medical">
  <path d="M 12 1 A 1 1 0 0 0 11 2 L 11 3 A 1 1 0 0 0 12 4 A 1 1 0 0 0 13 3 L 13 2 A 1 1 0 0 0 12 1 z M 18.5 3.5 A 1 1 0 0 0 17.792969 3.7929688 L 17.292969 4.2929688 A 1 1 0 0 0 17.292969 5.7070312 A 1 1 0 0 0 18.707031 5.7070312 L 19.207031 5.2070312 A 1 1 0 0 0 19.207031 3.7929688 A 1 1 0 0 0 18.5 3.5 z M 4.9296875 3.9296875 A 1 1 0 0 0 4.2226562 4.2226562 A 1 1 0 0 0 4.2226562 5.6367188 L 4.9296875 6.34375 A 1 1 0 0 0 6.34375 6.34375 A 1 1 0 0 0 6.34375 4.9296875 L 5.6367188 4.2226562 A 1 1 0 0 0 4.9296875 3.9296875 z M 12 6 C 8.6981427 6 6 8.6981427 6 12 L 6 17.177734 C 4.840457 17.593888 4 18.705251 4 20 L 4 22 A 1.0001 1.0001 0 0 0 5 23 L 19 23 A 1.0001 1.0001 0 0 0 20 22 L 20 20 C 20 18.705251 19.159543 17.593888 18 17.177734 L 18 12 C 18 8.6981427 15.301858 6 12 6 z M 12 8 C 14.220979 8 16 9.7790208 16 12 L 16 17 L 13 17 L 13 12 A 1 1 0 0 0 12 11 A 1 1 0 0 0 11 12 L 11 17 L 8 17 L 8 12 C 8 9.7790208 9.7790208 8 12 8 z M 2 11 A 1 1 0 0 0 1 12 A 1 1 0 0 0 2 13 L 3 13 A 1 1 0 0 0 4 12 A 1 1 0 0 0 3 11 L 2 11 z M 21 11 A 1 1 0 0 0 20 12 A 1 1 0 0 0 21 13 L 22 13 A 1 1 0 0 0 23 12 A 1 1 0 0 0 22 11 L 21 11 z M 7 19 L 12 19 L 17 19 C 17.564128 19 18 19.435872 18 20 L 18 21 L 6 21 L 6 20 C 6 19.435872 6.4358718 19 7 19 z "/>
</svg>
