<?xml version="1.0" encoding="UTF-8" standalone="no"?>
<svg xmlns="http://www.w3.org/2000/svg" xmlns:svg="http://www.w3.org/2000/svg" width="24" height="24" viewBox="0 0 24 24" fill="currentColor" tags="arrow,previous,music" categories="multimedia,arrows">
  <path d="M 3 3 A 1 1 0 0 0 2 4 L 2 20 A 1 1 0 0 0 3 21 A 1 1 0 0 0 4 20 L 4 4 A 1 1 0 0 0 3 3 z M 18.992188 3.0136719 C 18.474512 3.0058019 17.946206 3.1342261 17.457031 3.4277344 L 7.4570312 9.4277344 C 5.5509733 10.571077 5.5528798 13.436164 7.4609375 14.576172 L 17.457031 20.572266 C 19.413728 21.746299 22.000022 20.281891 22 18 L 22 6 C 22.000016 4.2885816 20.545213 3.0372708 18.992188 3.0136719 z M 19.021484 4.9804688 C 19.196274 4.9762972 19.362838 5.0194788 19.507812 5.1015625 C 19.797762 5.26573 20.000004 5.5863437 20 6 L 20 18 C 20.000008 18.827313 19.195741 19.283074 18.486328 18.857422 L 8.4882812 12.859375 A 1.0001 1.0001 0 0 0 8.4863281 12.859375 C 7.7991545 12.448808 7.7998733 11.554346 8.4863281 11.142578 L 18.486328 5.1425781 C 18.663681 5.036165 18.846695 4.9846403 19.021484 4.9804688 z "/>
</svg>
