<svg xmlns="http://www.w3.org/2000/svg" xmlns:svg="http://www.w3.org/2000/svg" width="24" height="24" viewBox="0 0 24 24" fill="currentColor" tags="arrow,skip,next,music" categories="multimedia,arrows">
  <path d="M 21 3 A 1 1 0 0 0 20 4 L 20 20 A 1 1 0 0 0 21 21 A 1 1 0 0 0 22 20 L 22 4 A 1 1 0 0 0 21 3 z M 5.0078125 3.0136719 C 3.4547871 3.0372708 1.9999835 4.2885816 2 6 L 2 18 C 1.999978 20.281891 4.586269 21.746299 6.5429688 20.572266 L 16.539062 14.576172 L 16.541016 14.574219 C 18.446532 13.433187 18.448134 10.570569 16.542969 9.4277344 L 6.5429688 3.4277344 C 6.0537009 3.1342731 5.5254876 3.0058056 5.0078125 3.0136719 z M 4.9785156 4.9804688 C 5.1533048 4.9846403 5.3363187 5.036165 5.5136719 5.1425781 L 15.513672 11.142578 C 16.200127 11.554346 16.200846 12.448808 15.513672 12.859375 A 1.0001 1.0001 0 0 0 15.511719 12.859375 L 5.5136719 18.857422 C 4.8042592 19.283074 3.999992 18.827313 4 18 L 4 6 C 3.999996 5.5863437 4.2022381 5.26573 4.4921875 5.1015625 C 4.6371622 5.0194788 4.8037265 4.9762972 4.9785156 4.9804688 z "/>
</svg>
