<?xml version="1.0" encoding="UTF-8" standalone="no"?>
<svg xmlns="http://www.w3.org/2000/svg" xmlns:svg="http://www.w3.org/2000/svg" width="24" height="24" viewBox="0 0 24 24" fill="currentColor" tags="arrow,previous,music" categories="multimedia,arrows">
  <path d="M 19.027344 3 A 1.0001 1.0001 0 0 0 18.375 3.21875 L 8.375 11.21875 A 1.0001 1.0001 0 0 0 8.375 12.78125 L 18.375 20.78125 A 1.0001 1.0001 0 0 0 20 20 L 20 4 A 1.0001 1.0001 0 0 0 19.433594 3.0996094 A 1.0001 1.0001 0 0 0 19.027344 3 z M 5 4 A 1 1 0 0 0 4 5 L 4 19 A 1 1 0 0 0 5 20 A 1 1 0 0 0 6 19 L 6 5 A 1 1 0 0 0 5 4 z M 18 6.0820312 L 18 17.917969 L 10.601562 12 L 18 6.0820312 z "/>
</svg>
