<svg xmlns="http://www.w3.org/2000/svg" xmlns:svg="http://www.w3.org/2000/svg" width="24" height="24" viewBox="0 0 24 24" fill="currentColor" tags="death,danger,bone" categories="gaming">
  <path d="M 12 1.9980469 C 7.9981336 1.9980469 4.9310229 4.4724397 3.65625 7.625 C 2.4567317 10.591453 2.8937149 14.196974 5.3378906 16.933594 C 4.7643125 18.448439 5.5078397 20.10402 7 20.693359 L 7 21 C 7 22.092725 7.9072751 23 9 23 L 15 23 C 16.092725 23 17 22.092725 17 21 L 17 20.693359 C 18.49216 20.10402 19.235687 18.448439 18.662109 16.933594 C 21.106285 14.196974 21.543268 10.591453 20.34375 7.625 C 19.068977 4.4724397 16.001866 1.9980469 12 1.9980469 z M 12 3.9980469 C 15.190634 3.9980469 17.49009 5.9016064 18.490234 8.375 C 19.490379 10.848394 19.15969 13.813413 16.865234 16.03125 A 1.0001 1.0001 0 0 0 16.779297 17.375 C 17.345367 18.082021 16.905711 18.999434 16 19 A 1.0001 1.0001 0 0 0 15 20 L 15 21 L 9 21 L 9 20 A 1.0001 1.0001 0 0 0 8 19 C 7.0942887 18.999434 6.6546333 18.082021 7.2207031 17.375 A 1.0001 1.0001 0 0 0 7.1347656 16.03125 C 4.8403099 13.813413 4.5096213 10.848394 5.5097656 8.375 C 6.5099099 5.9016064 8.8093655 3.9980469 12 3.9980469 z M 9 10 C 7.9072751 10 7 10.907275 7 12 C 7 13.092725 7.9072751 14 9 14 C 10.092725 14 11 13.092725 11 12 C 11 10.907275 10.092725 10 9 10 z M 15 10 C 13.907275 10 13 10.907275 13 12 C 13 13.092725 13.907275 14 15 14 C 16.092725 14 17 13.092725 17 12 C 17 10.907275 16.092725 10 15 10 z M 12 15 A 1.0001 1.0001 0 0 0 11.105469 15.552734 L 10.605469 16.552734 A 1.0001 1.0001 0 0 0 11.5 18 L 12.5 18 A 1.0001 1.0001 0 0 0 13.394531 16.552734 L 12.894531 15.552734 A 1.0001 1.0001 0 0 0 12 15 z "/>
</svg>
