<?xml version="1.0" encoding="UTF-8" standalone="no"?>
<svg xmlns="http://www.w3.org/2000/svg" xmlns:svg="http://www.w3.org/2000/svg" width="24" height="24" viewBox="0 0 24 24" fill="currentColor" tags="death,danger,bone" categories="gaming">
  <path d="M 12 1.9980469 C 7.9981416 1.9980469 4.9310203 4.4724461 3.65625 7.625 C 2.4567341 10.591447 2.8937199 14.196979 5.3378906 16.933594 C 4.7643137 18.448435 5.5078427 20.104022 7 20.693359 L 7 21 C 7 22.092723 7.9072773 23 9 23 L 15 23 C 16.092723 23 17 22.092723 17 21 L 17 20.693359 C 18.492158 20.104022 19.235687 18.448435 18.662109 16.933594 C 21.106281 14.196979 21.543266 10.591447 20.34375 7.625 C 19.068979 4.4724461 16.001858 1.9980469 12 1.9980469 z M 12 3.9980469 C 15.190628 3.9980469 17.490092 5.9016114 18.490234 8.375 C 19.490377 10.848389 19.159686 13.813417 16.865234 16.03125 A 1.0001 1.0001 0 0 0 16.779297 17.375 C 17.345365 18.082019 16.905709 18.999434 16 19 A 1.0001 1.0001 0 0 0 15 20 L 15 21 L 9 21 L 9 20 A 1.0001 1.0001 0 0 0 8 19 C 7.0942905 18.999434 6.6546345 18.082019 7.2207031 17.375 A 1.0001 1.0001 0 0 0 7.1347656 16.03125 C 4.8403145 13.813417 4.5096233 10.848389 5.5097656 8.375 C 6.5099079 5.9016114 8.8093719 3.9980469 12 3.9980469 z M 9 10 C 7.9072773 10 7 10.907277 7 12 C 7 13.092723 7.9072773 14 9 14 C 10.092723 14 11 13.092723 11 12 C 11 10.907277 10.092723 10 9 10 z M 15 10 C 13.907277 10 13 10.907277 13 12 C 13 13.092723 13.907277 14 15 14 C 16.092723 14 17 13.092723 17 12 C 17 10.907277 16.092723 10 15 10 z M 12 15 A 1.0001 1.0001 0 0 0 11.105469 15.552734 L 10.605469 16.552734 A 1.0001 1.0001 0 0 0 11.5 18 L 12.5 18 A 1.0001 1.0001 0 0 0 13.394531 16.552734 L 12.894531 15.552734 A 1.0001 1.0001 0 0 0 12 15 z "/>
</svg>
