<?xml version="1.0" encoding="UTF-8" standalone="no"?>
<svg xmlns="http://www.w3.org/2000/svg" xmlns:svg="http://www.w3.org/2000/svg" width="24" height="24" viewBox="0 0 24 24" fill="currentColor" tags="logo" categories="account,social,brands,development">
  <path d="M 14.5 1 C 13.132297 1 12 2.1322972 12 3.5 L 12 8.5 C 12 9.8677028 13.132297 11 14.5 11 C 15.867703 11 17 9.8677028 17 8.5 L 17 3.5 C 17 2.1322972 15.867703 1 14.5 1 z M 8.4179688 1.0058594 C 8.2977591 1.0100122 8.1764176 1.0216522 8.0566406 1.0429688 C 7.5775328 1.1282349 7.1111284 1.3537154 6.7324219 1.7324219 C 5.9750089 2.4898349 5.833897 3.5985311 6.1894531 4.4570312 C 6.5450093 5.3155314 7.42879 6 8.5 6 L 10 6 A 1.0001 1.0001 0 0 0 11 5 L 11 3.5 C 11 2.42879 10.315531 1.5450093 9.4570312 1.1894531 C 9.1350937 1.0561196 8.7785977 0.99340085 8.4179688 1.0058594 z M 8.453125 2.9902344 C 8.5315208 2.9858638 8.6102157 3.0054366 8.6914062 3.0390625 C 8.8769845 3.1159216 9 3.2347598 9 3.5 L 9 4 L 8.5 4 C 8.2347598 4 8.1159216 3.8769845 8.0390625 3.6914062 C 7.9622034 3.5058278 7.9589989 3.3339698 8.1464844 3.1464844 C 8.2519449 3.0410238 8.3523304 2.9958537 8.453125 2.9902344 z M 14.5 3 C 14.794297 3 15 3.2057028 15 3.5 L 15 8.5 C 15 8.7942972 14.794297 9 14.5 9 C 14.205703 9 14 8.7942972 14 8.5 L 14 3.5 C 14 3.2057028 14.205703 3 14.5 3 z M 20.582031 6.0058594 C 20.221403 5.9934008 19.864906 6.0561196 19.542969 6.1894531 C 18.684469 6.5450093 18 7.42879 18 8.5 L 18 10 A 1.0001 1.0001 0 0 0 19 11 L 20.5 11 C 21.57121 11 22.454991 10.315531 22.810547 9.4570312 C 23.166103 8.5985311 23.024991 7.4898349 22.267578 6.7324219 C 21.888872 6.3537154 21.422467 6.1282349 20.943359 6.0429688 C 20.823583 6.0216522 20.702241 6.0100122 20.582031 6.0058594 z M 3.5 7 C 2.1322972 7 1 8.1322972 1 9.5 C 1 10.867703 2.1322972 12 3.5 12 L 8.5 12 C 9.8677028 12 11 10.867703 11 9.5 C 11 8.1322972 9.8677028 7 8.5 7 L 3.5 7 z M 20.513672 7.9902344 C 20.625806 7.9870093 20.736337 8.0293057 20.853516 8.1464844 C 21.041001 8.3339698 21.037797 8.5058279 20.960938 8.6914062 C 20.884079 8.8769845 20.76524 9 20.5 9 L 20 9 L 20 8.5 C 20 8.2347598 20.123015 8.1159216 20.308594 8.0390625 C 20.378186 8.0102404 20.446391 7.9921694 20.513672 7.9902344 z M 3.5 9 L 8.5 9 C 8.7942972 9 9 9.2057028 9 9.5 C 9 9.7942972 8.7942972 10 8.5 10 L 3.5 10 C 3.2057028 10 3 9.7942972 3 9.5 C 3 9.2057028 3.2057028 9 3.5 9 z M 15.5 12 C 14.132297 12 13 13.132297 13 14.5 C 13 15.867703 14.132297 17 15.5 17 L 20.5 17 C 21.867703 17 23 15.867703 23 14.5 C 23 13.132297 21.867703 12 20.5 12 L 15.5 12 z M 3.5 13 C 2.42879 13 1.5450093 13.684469 1.1894531 14.542969 C 0.83389701 15.401469 0.97500886 16.510165 1.7324219 17.267578 C 2.4898349 18.024991 3.5985311 18.166103 4.4570312 17.810547 C 5.3155314 17.454991 6 16.57121 6 15.5 L 6 14 A 1.0001 1.0001 0 0 0 5 13 L 3.5 13 z M 9.5 13 C 8.1322972 13 7 14.132297 7 15.5 L 7 20.5 C 7 21.867703 8.1322972 23 9.5 23 C 10.867703 23 12 21.867703 12 20.5 L 12 15.5 C 12 14.132297 10.867703 13 9.5 13 z M 15.5 14 L 20.5 14 C 20.794297 14 21 14.205703 21 14.5 C 21 14.794297 20.794297 15 20.5 15 L 15.5 15 C 15.205703 15 15 14.794297 15 14.5 C 15 14.205703 15.205703 14 15.5 14 z M 3.5 15 L 4 15 L 4 15.5 C 4 15.76524 3.8769845 15.884077 3.6914062 15.960938 C 3.5058278 16.037796 3.3339698 16.041001 3.1464844 15.853516 C 2.9589989 15.66603 2.9622034 15.494172 3.0390625 15.308594 C 3.1159216 15.123015 3.2347598 15 3.5 15 z M 9.5 15 C 9.7942972 15 10 15.205703 10 15.5 L 10 20.5 C 10 20.794297 9.7942972 21 9.5 21 C 9.2057028 21 9 20.794297 9 20.5 L 9 15.5 C 9 15.205703 9.2057028 15 9.5 15 z M 14 18 A 1.0001 1.0001 0 0 0 13 19 L 13 20.5 C 13 21.57121 13.684469 22.454991 14.542969 22.810547 C 15.401469 23.166103 16.510165 23.024991 17.267578 22.267578 C 18.024991 21.510165 18.166103 20.401469 17.810547 19.542969 C 17.454991 18.684469 16.57121 18 15.5 18 L 14 18 z M 15 20 L 15.5 20 C 15.76524 20 15.884077 20.123015 15.960938 20.308594 C 16.037798 20.494172 16.040998 20.66603 15.853516 20.853516 C 15.66603 21.041001 15.494172 21.037797 15.308594 20.960938 C 15.123015 20.884079 15 20.76524 15 20.5 L 15 20 z "/>
</svg>
