<?xml version="1.0" encoding="UTF-8" standalone="no"?>
<svg xmlns="http://www.w3.org/2000/svg" xmlns:svg="http://www.w3.org/2000/svg" width="24" height="24" viewBox="0 0 24 24" fill="currentColor" tags="cutter,scalpel,knife" categories="design">
  <path d="M 19.71875 1.9746094 C 19.001077 2.0133042 18.254288 2.3316498 17.662109 2.9238281 L 7.2929688 13.292969 L 1.2929688 19.292969 A 1.0001 1.0001 0 0 0 2 21 L 11 21 A 1.0001 1.0001 0 0 0 12 20 L 12 17.414062 L 22.076172 7.3378906 C 22.752947 6.6611154 23.07284 5.7831968 23.025391 4.9765625 C 22.977941 4.1699282 22.608305 3.4559619 22.076172 2.9238281 C 21.544038 2.3916945 20.830073 2.0220586 20.023438 1.9746094 C 19.922608 1.9686782 19.821275 1.9690815 19.71875 1.9746094 z M 19.904297 3.9726562 C 20.16016 3.9877072 20.444245 4.1200258 20.662109 4.3378906 C 20.879974 4.5557554 21.012293 4.8398398 21.027344 5.0957031 C 21.042394 5.3515665 20.985334 5.6006057 20.662109 5.9238281 L 11 15.585938 L 9.4140625 14 L 19.076172 4.3378906 C 19.399395 4.0146682 19.648433 3.9576054 19.904297 3.9726562 z M 8 15.414062 L 10 17.414062 L 10 19 L 4.4140625 19 L 8 15.414062 z "/>
</svg>
