<?xml version="1.0" encoding="UTF-8" standalone="no"?>
<svg xmlns="http://www.w3.org/2000/svg" xmlns:svg="http://www.w3.org/2000/svg" width="24" height="24" viewBox="0 0 24 24" fill="currentColor" tags="cutter,scalpel,knife" categories="design">
  <path d="M 19.71875 1.9746094 C 19.001076 2.013304 18.254289 2.3316487 17.662109 2.9238281 L 7.2929688 13.292969 L 1.2929688 19.292969 A 1.0001 1.0001 0 0 0 2 21 L 10 21 C 11.092725 21 12 20.092725 12 19 L 12 17.169922 C 12.131795 17.089947 12.300936 17.113092 12.414062 17 L 22.076172 7.3378906 C 22.752948 6.6611141 23.07284 5.7831984 23.025391 4.9765625 C 22.977941 4.1699266 22.608307 3.4559629 22.076172 2.9238281 C 21.544037 2.3916934 20.830073 2.0220587 20.023438 1.9746094 C 19.922608 1.9686782 19.821275 1.9690816 19.71875 1.9746094 z M 19.904297 3.9726562 C 20.160161 3.9877073 20.444244 4.1200254 20.662109 4.3378906 C 20.879975 4.5557559 21.012293 4.8398393 21.027344 5.0957031 C 21.042394 5.351567 20.985334 5.6006051 20.662109 5.9238281 L 11 15.585938 L 9.4140625 14 L 19.076172 4.3378906 C 19.399395 4.0146676 19.648433 3.9576054 19.904297 3.9726562 z M 8 15.414062 L 9.5859375 17 C 9.6990637 17.113092 9.8682049 17.089947 10 17.169922 L 10 19 L 4.4140625 19 L 8 15.414062 z "/>
</svg>
