<svg xmlns="http://www.w3.org/2000/svg" xmlns:svg="http://www.w3.org/2000/svg" width="24" height="24" viewBox="0 0 24 24" fill="currentColor" tags="settings,filters,controls" categories="account">
  <path d="M 14 2 A 1 1 0 0 0 13 3 L 13 7 A 1 1 0 0 0 14 8 A 1 1 0 0 0 15 7 L 15 6 L 21 6 A 1 1 0 0 0 22 5 A 1 1 0 0 0 21 4 L 15 4 L 15 3 A 1 1 0 0 0 14 2 z M 3 4 A 1 1 0 0 0 2 5 A 1 1 0 0 0 3 6 L 10 6 A 1 1 0 0 0 11 5 A 1 1 0 0 0 10 4 L 3 4 z M 8 9 A 1 1 0 0 0 7 10 L 7 11 L 3 11 A 1 1 0 0 0 2 12 A 1 1 0 0 0 3 13 L 7 13 L 7 14 A 1 1 0 0 0 8 15 A 1 1 0 0 0 9 14 L 9 12 L 9 10 A 1 1 0 0 0 8 9 z M 12 11 A 1 1 0 0 0 11 12 A 1 1 0 0 0 12 13 L 21 13 A 1 1 0 0 0 22 12 A 1 1 0 0 0 21 11 L 12 11 z M 16 16 A 1 1 0 0 0 15 17 L 15 21 A 1 1 0 0 0 16 22 A 1 1 0 0 0 17 21 L 17 20 L 21 20 A 1 1 0 0 0 22 19 A 1 1 0 0 0 21 18 L 17 18 L 17 17 A 1 1 0 0 0 16 16 z M 3 18 A 1 1 0 0 0 2 19 A 1 1 0 0 0 3 20 L 12 20 A 1 1 0 0 0 13 19 A 1 1 0 0 0 12 18 L 3 18 z "/>
</svg>
