<?xml version="1.0" encoding="UTF-8" standalone="no"?>
<svg xmlns="http://www.w3.org/2000/svg" xmlns:svg="http://www.w3.org/2000/svg" width="24" height="24" viewBox="0 0 24 24" fill="currentColor" tags="settings,controls" categories="account">
  
  <path d="M 4 2 A 1 1 0 0 0 3 3 L 3 10 A 1 1 0 0 0 4 11 A 1 1 0 0 0 5 10 L 5 3 A 1 1 0 0 0 4 2 z M 12 2 A 1 1 0 0 0 11 3 L 11 7 L 10 7 A 1 1 0 0 0 9 8 A 1 1 0 0 0 10 9 L 14 9 A 1 1 0 0 0 15 8 A 1 1 0 0 0 14 7 L 13 7 L 13 3 A 1 1 0 0 0 12 2 z M 20 2 A 1 1 0 0 0 19 3 L 19 12 A 1 1 0 0 0 20 13 A 1 1 0 0 0 21 12 L 21 3 A 1 1 0 0 0 20 2 z M 12 11 A 1 1 0 0 0 11 12 L 11 21 A 1 1 0 0 0 12 22 A 1 1 0 0 0 13 21 L 13 12 A 1 1 0 0 0 12 11 z M 2 13 A 1 1 0 0 0 1 14 A 1 1 0 0 0 2 15 L 3 15 L 3 21 A 1 1 0 0 0 4 22 A 1 1 0 0 0 5 21 L 5 15 L 6 15 A 1 1 0 0 0 7 14 A 1 1 0 0 0 6 13 L 2 13 z M 18 15 A 1 1 0 0 0 17 16 A 1 1 0 0 0 18 17 L 19 17 L 19 21 A 1 1 0 0 0 20 22 A 1 1 0 0 0 21 21 L 21 17 L 22 17 A 1 1 0 0 0 23 16 A 1 1 0 0 0 22 15 L 20 15 L 18 15 z "/>
</svg>
