<?xml version="1.0" encoding="UTF-8" standalone="no"?>
<svg xmlns="http://www.w3.org/2000/svg" xmlns:svg="http://www.w3.org/2000/svg" width="24" height="24" viewBox="0 0 24 24" fill="currentColor" tags="settings,controls" categories="account">
  <path d="M 5 2 A 1 1 0 0 0 4 3 L 4 10 A 1 1 0 0 0 5 11 A 1 1 0 0 0 6 10 L 6 3 A 1 1 0 0 0 5 2 z M 12 2 A 1 1 0 0 0 11 3 L 11 7 L 10 7 A 1 1 0 0 0 9 8 A 1 1 0 0 0 10 9 L 14 9 A 1 1 0 0 0 15 8 A 1 1 0 0 0 14 7 L 13 7 L 13 3 A 1 1 0 0 0 12 2 z M 19 2 A 1 1 0 0 0 18 3 L 18 12 A 1 1 0 0 0 19 13 A 1 1 0 0 0 20 12 L 20 3 A 1 1 0 0 0 19 2 z M 12 11 A 1 1 0 0 0 11 12 L 11 21 A 1 1 0 0 0 12 22 A 1 1 0 0 0 13 21 L 13 12 A 1 1 0 0 0 12 11 z M 3 13 A 1 1 0 0 0 2 14 A 1 1 0 0 0 3 15 L 4 15 L 4 21 A 1 1 0 0 0 5 22 A 1 1 0 0 0 6 21 L 6 15 L 7 15 A 1 1 0 0 0 8 14 A 1 1 0 0 0 7 13 L 5 13 L 3 13 z M 17 15 A 1 1 0 0 0 16 16 A 1 1 0 0 0 17 17 L 18 17 L 18 21 A 1 1 0 0 0 19 22 A 1 1 0 0 0 20 21 L 20 17 L 21 17 A 1 1 0 0 0 22 16 A 1 1 0 0 0 21 15 L 17 15 z "/>
</svg>
