<svg xmlns="http://www.w3.org/2000/svg" xmlns:svg="http://www.w3.org/2000/svg" width="24" height="24" viewBox="0 0 24 24" fill="currentColor" tags="phone,cellphone,device,screen" categories="connectivity,devices">
  <path d="M 7 1 C 5.3552972 1 4 2.3552972 4 4 L 4 20 C 4 21.644703 5.3552972 23 7 23 L 17 23 C 18.644703 23 20 21.644703 20 20 L 20 4 C 20 2.3552972 18.644703 1 17 1 L 7 1 z M 7 3 L 17 3 C 17.571297 3 18 3.4287028 18 4 L 18 20 C 18 20.571297 17.571297 21 17 21 L 7 21 C 6.4287028 21 6 20.571297 6 20 L 6 4 C 6 3.4287028 6.4287028 3 7 3 z M 12 17 A 1 1 0 0 0 11 18 A 1 1 0 0 0 12 19 L 12.009766 19 A 1 1 0 0 0 13.009766 18 A 1 1 0 0 0 12.009766 17 L 12 17 z "/>
</svg>
