<svg xmlns="http://www.w3.org/2000/svg" xmlns:svg="http://www.w3.org/2000/svg" width="24" height="24" viewBox="0 0 24 24" fill="currentColor" tags="contactless,payment,near-field communication,screen" categories="communication,finance,devices">
  <path d="M 19.912109 3.0996094 A 1 1 0 0 0 19.412109 3.2324219 A 1 1 0 0 0 19.042969 4.5976562 C 21.670559 9.184236 21.672576 14.814395 19.050781 19.404297 A 1 1 0 0 0 19.423828 20.767578 A 1 1 0 0 0 20.789062 20.396484 C 23.760893 15.193762 23.755759 8.8024723 20.777344 3.6035156 A 1 1 0 0 0 20.171875 3.1347656 A 1 1 0 0 0 19.912109 3.0996094 z M 3 5 C 1.9092972 5 1 5.9092972 1 7 L 1 17 C 1 18.090703 1.9092972 19 3 19 L 8 19 C 9.0907028 19 10 18.090703 10 17 L 10 7 C 10 5.9092972 9.0907028 5 8 5 L 3 5 z M 16.46875 5.2089844 A 1 1 0 0 0 15.966797 5.3398438 A 1 1 0 0 0 15.589844 6.703125 C 17.449911 9.9914583 17.449911 14.008542 15.589844 17.296875 A 1 1 0 0 0 15.966797 18.660156 A 1 1 0 0 0 17.330078 18.283203 C 19.534297 14.386459 19.534297 9.6135406 17.330078 5.7167969 A 1 1 0 0 0 16.726562 5.2460938 A 1 1 0 0 0 16.46875 5.2089844 z M 3 7 L 8 7 L 8 17 L 3 17 L 3 7 z M 13.005859 7.3183594 A 1 1 0 0 0 12.503906 7.4511719 A 1 1 0 0 0 12.130859 8.8144531 C 13.257052 10.789773 13.257052 13.210227 12.130859 15.185547 A 1 1 0 0 0 12.503906 16.548828 A 1 1 0 0 0 13.869141 16.175781 C 15.343883 13.589111 15.343883 10.410889 13.869141 7.8242188 A 1 1 0 0 0 13.005859 7.3183594 z "/>
</svg>
