<?xml version="1.0" encoding="UTF-8" standalone="no"?>
<svg xmlns="http://www.w3.org/2000/svg" xmlns:svg="http://www.w3.org/2000/svg" width="24" height="24" viewBox="0 0 24 24" fill="currentColor" tags="phone,cellphone,device,power,screen" categories="connectivity,devices">
  
  <path d="M 7 1 C 5.3553005 1 4 2.3553005 4 4 L 4 20 C 4 21.644699 5.3553005 23 7 23 L 17 23 C 18.644699 23 20 21.644699 20 20 L 20 4 C 20 2.3553005 18.644699 1 17 1 L 7 1 z M 7 3 L 17 3 C 17.571296 3 18 3.4287039 18 4 L 18 20 C 18 20.571296 17.571296 21 17 21 L 7 21 C 6.4287039 21 6 20.571296 6 20 L 6 4 C 6 3.4287039 6.4287039 3 7 3 z M 12.732422 7.0019531 A 1 1 0 0 0 11.835938 7.4453125 L 9.1679688 11.445312 A 1.0001 1.0001 0 0 0 10 13 L 12.130859 13 L 10.501953 15.445312 A 1 1 0 0 0 10.777344 16.832031 A 1 1 0 0 0 12.164062 16.554688 L 14.832031 12.554688 A 1.0001 1.0001 0 0 0 14 11 L 11.869141 11 L 13.498047 8.5546875 A 1 1 0 0 0 13.222656 7.1679688 A 1 1 0 0 0 12.732422 7.0019531 z "/>
</svg>
