<?xml version="1.0" encoding="UTF-8" standalone="no"?>
<svg xmlns="http://www.w3.org/2000/svg" xmlns:svg="http://www.w3.org/2000/svg" width="24" height="24" viewBox="0 0 24 24" fill="currentColor" tags="emoji,face,happy,good,emotion,react,reaction,add" categories="emoji,social,notifications,communication">
  <path d="M 11.730469 0.94921875 C 7.4025038 1.0263526 3.9118302 3.5736334 2.1875 6.9765625 C 0.28479078 10.731518 0.49271222 15.606919 3.8242188 19.308594 C 7.1557252 23.010267 11.982073 23.726545 15.916016 22.228516 C 19.849958 20.730485 22.97504 16.986595 23 12.005859 A 1.0001 1.0001 0 0 0 23 12.003906 A 1.0001 1.0001 0 0 0 23 12.001953 A 1.0001 1.0001 0 0 0 23 12 L 23 11 A 1 1 0 0 0 22 10 A 1 1 0 0 0 21 11 L 21 12 C 20.97668 16.156985 18.44376 19.127307 15.203125 20.361328 C 11.960886 21.59596 8.0931178 21.062449 5.3105469 17.970703 C 2.527976 14.878958 2.4044999 10.975583 3.9726562 7.8808594 C 5.5408125 4.7861362 8.7609677 2.5781658 12.900391 2.9941406 A 1 1 0 0 0 13.994141 2.0996094 A 1 1 0 0 0 13.099609 1.0058594 C 12.635 0.95917025 12.178189 0.94123938 11.730469 0.94921875 z M 19 1 A 1 1 0 0 0 18 2 L 18 4 L 16 4 A 1 1 0 0 0 15 5 A 1 1 0 0 0 16 6 L 18 6 L 18 8 A 1 1 0 0 0 19 9 A 1 1 0 0 0 20 8 L 20 6 L 22 6 A 1 1 0 0 0 23 5 A 1 1 0 0 0 22 4 L 20 4 L 20 2 A 1 1 0 0 0 19 1 z M 9 8 A 1 1 0 0 0 8 9 A 1 1 0 0 0 9 10 L 9.0097656 10 A 1 1 0 0 0 10.009766 9 A 1 1 0 0 0 9.0097656 8 L 9 8 z M 15 8 A 1 1 0 0 0 14 9 A 1 1 0 0 0 15 10 L 15.009766 10 A 1 1 0 0 0 16.009766 9 A 1 1 0 0 0 15.009766 8 L 15 8 z M 16.119141 13.005859 A 1 1 0 0 0 15.199219 13.400391 C 15.199219 13.400391 13.966663 15 12 15 C 10.033337 15 8.8007812 13.400391 8.8007812 13.400391 A 1 1 0 0 0 8.140625 13.009766 A 1 1 0 0 0 7.4003906 13.199219 A 1 1 0 0 0 7.1992188 14.599609 C 7.1992188 14.599609 8.9666727 17 12 17 C 15.033327 17 16.800781 14.599609 16.800781 14.599609 A 1 1 0 0 0 16.599609 13.199219 A 1 1 0 0 0 16.119141 13.005859 z "/>
</svg>
