<?xml version="1.0" encoding="UTF-8" standalone="no"?>
<svg xmlns="http://www.w3.org/2000/svg" xmlns:svg="http://www.w3.org/2000/svg" width="24" height="24" viewBox="0 0 24 24" fill="currentColor" tags="emoji,face,happy,good,emotion" categories="emoji,account">
  <path d="M 12 1 C 5.9367246 1 1 5.9367246 1 12 C 1 18.063276 5.9367246 23 12 23 C 18.063276 23 23 18.063276 23 12 C 23 5.9367246 18.063276 1 12 1 z M 12 3 C 16.982397 3 21 7.0176026 21 12 C 21 16.982397 16.982397 21 12 21 C 7.0176026 21 3 16.982397 3 12 C 3 7.0176026 7.0176026 3 12 3 z M 9 8 A 1 1 0 0 0 8 9 A 1 1 0 0 0 9 10 L 9.0097656 10 A 1 1 0 0 0 10.009766 9 A 1 1 0 0 0 9.0097656 8 L 9 8 z M 15 8 A 1 1 0 0 0 14 9 A 1 1 0 0 0 15 10 L 15.009766 10 A 1 1 0 0 0 16.009766 9 A 1 1 0 0 0 15.009766 8 L 15 8 z M 16.119141 13.005859 A 1 1 0 0 0 15.199219 13.400391 C 15.199219 13.400391 13.966663 15 12 15 C 10.033337 15 8.8007812 13.400391 8.8007812 13.400391 A 1 1 0 0 0 8.140625 13.009766 A 1 1 0 0 0 7.4003906 13.199219 A 1 1 0 0 0 7.1992188 14.599609 C 7.1992188 14.599609 8.9666727 17 12 17 C 15.033327 17 16.800781 14.599609 16.800781 14.599609 A 1 1 0 0 0 16.599609 13.199219 A 1 1 0 0 0 16.119141 13.005859 z "/>
</svg>
