<?xml version="1.0" encoding="UTF-8" standalone="no"?>
<svg xmlns="http://www.w3.org/2000/svg" xmlns:svg="http://www.w3.org/2000/svg" width="24" height="24" viewBox="0 0 24 24" fill="currentColor" tags="animal,insect,slow,speed,delicacy,spiral" categories="animals,food-beverage">
  <path d="M 17.929688 2.0019531 A 1 1 0 0 0 17.552734 2.1054688 A 1 1 0 0 0 17.105469 3.4472656 L 17.824219 4.8867188 C 17.321718 5.4046609 17 6.1581094 17 7 L 17 7.3535156 C 15.348075 5.3102759 12.823035 4 10 4 C 5.0412819 4 1 8.0412819 1 13 C 1 13.120442 1.0036958 13.240391 1.0097656 13.359375 C 1.1156494 16.036831 2.3973547 18.418477 4.3535156 20 L 2 20 A 1 1 0 0 0 1 21 A 1 1 0 0 0 2 22 L 14 22 C 18.945455 22 23 17.945455 23 13 L 23 7 C 23 6.1581094 22.678283 5.4046609 22.175781 4.8867188 L 22.894531 3.4472656 A 1 1 0 0 0 22.447266 2.1054688 A 1 1 0 0 0 21.683594 2.0507812 A 1 1 0 0 0 21.105469 2.5527344 L 20.369141 4.0234375 C 20.246216 4.0095642 20.122974 4 20 4 C 19.877026 4 19.753784 4.0095642 19.630859 4.0234375 L 18.894531 2.5527344 A 1 1 0 0 0 18.316406 2.0507812 A 1 1 0 0 0 17.929688 2.0019531 z M 10 6 C 13.877838 6 17 9.1221621 17 13 C 17 16.877838 13.877838 20 10 20 C 9.6586511 20 9.3241178 19.974504 8.9960938 19.927734 C 12.381153 19.440879 15 16.515687 15 13 C 15 11.416667 14.370244 10.101892 13.414062 9.2519531 C 12.45788 8.402014 11.222222 8 10 8 C 8.7777779 8 7.5421194 8.402014 6.5859375 9.2519531 C 5.6297556 10.101892 5 11.416667 5 13 C 5 13.916666 5.3797556 14.731441 5.9609375 15.248047 C 6.5421194 15.764653 7.2777779 16 8 16 C 8.7222221 16 9.4578801 15.764653 10.039062 15.248047 C 10.620243 14.731441 11 13.916666 11 13 A 1 1 0 0 0 10 12 A 1 1 0 0 0 9 13 C 9 13.416666 8.8797556 13.601893 8.7109375 13.751953 C 8.5421194 13.902014 8.2777779 14 8 14 C 7.7222221 14 7.4578806 13.902014 7.2890625 13.751953 C 7.1202444 13.601893 7 13.416666 7 13 C 7 11.916667 7.3702444 11.231441 7.9140625 10.748047 C 8.4578806 10.264653 9.2222221 10 10 10 C 10.777778 10 11.542119 10.264653 12.085938 10.748047 C 12.629755 11.231441 13 11.916667 13 13 C 13 15.773271 10.773269 18 8 18 C 5.3213383 18 3.1526669 15.922007 3.0078125 13.28125 C 3.0041518 13.187851 3 13.094328 3 13 C 3 9.1221621 6.1221621 6 10 6 z M 20 6 C 20.16172 6 20.316712 6.0363855 20.453125 6.09375 C 20.551021 6.1349174 20.640404 6.1853504 20.710938 6.2480469 C 20.879756 6.3981073 21 6.5833337 21 7 L 21 13 C 21 16.164363 18.880051 18.848376 15.988281 19.708984 C 17.834461 18.059054 19 15.662134 19 13 L 19 7 C 19 6.5833337 19.120244 6.3981073 19.289062 6.2480469 C 19.457881 6.0979864 19.722222 6 20 6 z "/>
</svg>
