<?xml version="1.0" encoding="UTF-8" standalone="no"?>
<svg xmlns="http://www.w3.org/2000/svg" xmlns:svg="http://www.w3.org/2000/svg" width="24" height="24" viewBox="0 0 24 24" fill="currentColor" tags="animal,insect,slow,speed,delicacy,spiral" categories="animals,food-beverage">
  <path d="M 17.929688 2.0019531 A 1 1 0 0 0 17.552734 2.1054688 A 1 1 0 0 0 17.105469 3.4472656 L 17.824219 4.8828125 C 17.321293 5.4007751 17 6.1576965 17 7 L 17 7.3515625 C 15.348063 5.3087791 12.822668 4 10 4 C 5.0412819 4 1 8.0412819 1 13 C 1.0000005 13.256498 1.0177736 13.508307 1.0449219 13.757812 C 1.256875 16.270677 2.4943259 18.498109 4.3515625 20 L 2 20 A 1 1 0 0 0 1 21 A 1 1 0 0 0 2 22 L 14 22 C 18.945455 22 23 17.945455 23 13 L 23 7 C 23 6.1576969 22.678708 5.400775 22.175781 4.8828125 L 22.894531 3.4472656 A 1 1 0 0 0 22.447266 2.1054688 A 1 1 0 0 0 21.683594 2.0507812 A 1 1 0 0 0 21.105469 2.5527344 L 20.371094 4.0214844 C 20.247472 4.0074509 20.123676 4 20 4 C 19.876324 4 19.752528 4.0074509 19.628906 4.0214844 L 18.894531 2.5527344 A 1 1 0 0 0 18.316406 2.0507812 A 1 1 0 0 0 17.929688 2.0019531 z M 10 6 C 13.877838 6 17 9.1221621 17 13 C 17 16.877838 13.877838 20 10 20 C 9.6588323 20 9.3239516 19.976409 8.9960938 19.929688 C 12.381975 19.443566 15 16.516275 15 13 C 15 11.416667 14.370244 10.101892 13.414062 9.2519531 C 12.45788 8.402014 11.222222 8 10 8 C 8.7777779 8 7.5421194 8.402014 6.5859375 9.2519531 C 5.6297556 10.101892 5 11.416667 5 13 C 5 13.916666 5.3797556 14.731441 5.9609375 15.248047 C 6.5421194 15.764653 7.2777779 16 8 16 C 8.7222221 16 9.4578801 15.764653 10.039062 15.248047 C 10.620243 14.731441 11 13.916666 11 13 A 1 1 0 0 0 10 12 A 1 1 0 0 0 9 13 C 9 13.416666 8.8797556 13.601893 8.7109375 13.751953 C 8.5421194 13.902014 8.2777779 14 8 14 C 7.7222221 14 7.4578806 13.902014 7.2890625 13.751953 C 7.1202444 13.601893 7 13.416666 7 13 C 7 11.916667 7.3702444 11.231441 7.9140625 10.748047 C 8.4578806 10.264653 9.2222221 10 10 10 C 10.777778 10 11.542119 10.264653 12.085938 10.748047 C 12.629755 11.231441 13 11.916667 13 13 C 13 15.773271 10.773269 18 8 18 C 5.2267307 18 3 15.773271 3 13 C 3 9.1221621 6.1221621 6 10 6 z M 20 6 C 20.148035 6 20.291943 6.0274625 20.419922 6.0761719 A 1 1 0 0 0 20.453125 6.09375 A 1 1 0 0 0 20.548828 6.1347656 C 20.608964 6.1675117 20.663872 6.2062109 20.710938 6.2480469 C 20.879756 6.3981073 21 6.5833337 21 7 L 21 13 C 21 16.165004 18.878997 18.852848 15.986328 19.712891 C 17.803277 18.090265 18.95428 15.741222 18.992188 13.130859 A 1 1 0 0 0 19 13 L 19 7 C 19 6.5833337 19.120244 6.3981073 19.289062 6.2480469 C 19.336128 6.206211 19.391036 6.1675116 19.451172 6.1347656 A 1 1 0 0 0 19.546875 6.09375 A 1 1 0 0 0 19.580078 6.0761719 C 19.708057 6.0274626 19.851965 6 20 6 z "/>
</svg>
