<svg xmlns="http://www.w3.org/2000/svg" xmlns:svg="http://www.w3.org/2000/svg" width="24" height="24" viewBox="0 0 24 24" fill="currentColor" tags="cold,weather,freeze,snow,winter" categories="weather,seasons">
  <path d="M 6.9296875 2.0019531 A 1 1 0 0 0 6.5527344 2.1054688 A 1 1 0 0 0 6.1054688 3.4472656 L 6.9609375 5.1582031 L 6.1796875 5.015625 A 1 1 0 0 0 5.015625 5.8203125 A 1 1 0 0 0 5.8203125 6.984375 L 8.0800781 7.3945312 L 8.8828125 9 L 7.8828125 11 L 6 11 L 4.8007812 9.4003906 A 1 1 0 0 0 4.140625 9.0097656 A 1 1 0 0 0 3.4003906 9.1992188 A 1 1 0 0 0 3.1992188 10.599609 L 3.5 11 L 2 11 A 1 1 0 0 0 1 12 A 1 1 0 0 0 2 13 L 3.5 13 L 3.1992188 13.400391 A 1 1 0 0 0 3.4003906 14.800781 A 1 1 0 0 0 4.8007812 14.599609 L 6 13 L 7.8828125 13 L 8.8828125 15 L 8.0800781 16.605469 L 5.8203125 17.015625 A 1 1 0 0 0 5.015625 18.179688 A 1 1 0 0 0 6.1796875 18.984375 L 6.9609375 18.841797 L 6.1054688 20.552734 A 1 1 0 0 0 6.5527344 21.894531 A 1 1 0 0 0 7.8945312 21.447266 L 8.75 19.736328 L 9.1054688 20.447266 A 1 1 0 0 0 10.447266 20.894531 A 1 1 0 0 0 10.894531 19.552734 L 9.8671875 17.5 L 10.617188 16 L 13.382812 16 L 14.132812 17.5 L 13.105469 19.552734 A 1 1 0 0 0 13.552734 20.894531 A 1 1 0 0 0 14.894531 20.447266 L 15.25 19.736328 L 16.105469 21.447266 A 1 1 0 0 0 17.447266 21.894531 A 1 1 0 0 0 17.894531 20.552734 L 17.039062 18.841797 L 17.820312 18.984375 A 1 1 0 0 0 18.984375 18.179688 A 1 1 0 0 0 18.179688 17.015625 L 15.919922 16.605469 L 15.117188 15 L 16.117188 13 L 18 13 L 19.199219 14.599609 A 1 1 0 0 0 20.599609 14.800781 A 1 1 0 0 0 20.800781 13.400391 L 20.5 13 L 22 13 A 1 1 0 0 0 23 12 A 1 1 0 0 0 22 11 L 20.5 11 L 20.800781 10.599609 A 1 1 0 0 0 20.599609 9.1992188 A 1 1 0 0 0 19.859375 9.0097656 A 1 1 0 0 0 19.199219 9.4003906 L 18 11 L 16.117188 11 L 15.117188 9 L 15.919922 7.3945312 L 18.179688 6.984375 A 1 1 0 0 0 18.984375 5.8203125 A 1 1 0 0 0 17.820312 5.015625 L 17.039062 5.1582031 L 17.894531 3.4472656 A 1 1 0 0 0 17.447266 2.1054688 A 1 1 0 0 0 16.105469 2.5527344 L 15.25 4.2636719 L 14.894531 3.5527344 A 1 1 0 0 0 14.316406 3.0507812 A 1 1 0 0 0 13.552734 3.1054688 A 1 1 0 0 0 13.105469 4.4472656 L 14.132812 6.5 L 13.382812 8 L 10.617188 8 L 9.8671875 6.5 L 10.894531 4.4472656 A 1 1 0 0 0 10.447266 3.1054688 A 1 1 0 0 0 9.6835938 3.0507812 A 1 1 0 0 0 9.1054688 3.5527344 L 8.75 4.2636719 L 7.8945312 2.5527344 A 1 1 0 0 0 7.3164062 2.0507812 A 1 1 0 0 0 6.9296875 2.0019531 z M 10.617188 10 L 13.382812 10 L 14.382812 12 L 13.382812 14 L 10.617188 14 L 9.6171875 12 L 10.617188 10 z "/>
</svg>
