<svg xmlns="http://www.w3.org/2000/svg" xmlns:svg="http://www.w3.org/2000/svg" width="24" height="24" viewBox="0 0 24 24" fill="currentColor" tags="wash,bath,water,liquid,fluid,wet,moisture,damp,bead,globule" categories="home,travel">
  <path d="M 7 1 C 5.3549904 1 4 2.3549904 4 4 A 1 1 0 0 0 5 5 A 1 1 0 0 0 6 4 C 6 3.4358706 6.4358706 3 7 3 L 9.5 3 L 9.5 5 L 9 5 C 7.9072751 5 7 5.9072751 7 7 L 7 9 L 6 9 C 4.3549904 9 3 10.35499 3 12 L 3 19 C 3 20.64501 4.3549904 22 6 22 L 9.6074219 22 A 1 1 0 0 0 10.607422 21 A 1 1 0 0 0 9.6074219 20 L 6 20 C 5.4358706 20 5 19.564129 5 19 L 5 12 C 5 11.435871 5.4358706 11 6 11 L 8 11 L 13 11 A 1.0001 1.0001 0 0 0 14 10 L 14 7 C 14 5.9072751 13.092725 5 12 5 L 11.5 5 L 11.5 3 L 14 3 A 1 1 0 0 0 15 2 A 1 1 0 0 0 14 1 L 7 1 z M 9 7 L 10.5 7 L 12 7 L 12 9 L 9 9 L 9 7 z M 16.998047 10 A 1.0001 1.0001 0 0 0 16.021484 10.794922 C 15.757987 12.049578 15.071989 13.174544 14.078125 13.984375 C 12.747489 15.052126 12 16.477431 12 17.949219 C 12 20.709759 14.245455 23 17 23 C 19.754545 23 22 20.709759 22 17.949219 C 22 16.462958 21.234448 15.058864 19.923828 13.988281 L 19.923828 13.986328 L 19.923828 13.984375 L 19.921875 13.984375 C 18.930967 13.169998 18.246801 12.045317 17.978516 10.791016 A 1.0001 1.0001 0 0 0 16.998047 10 z M 17.003906 13.628906 C 17.445379 14.343869 17.997692 14.992511 18.65625 15.533203 A 1 1 0 0 0 18.658203 15.533203 A 1 1 0 0 0 18.658203 15.535156 C 19.62535 16.324169 20 17.116805 20 17.949219 C 20 19.628678 18.645455 21 17 21 C 15.354545 21 14 19.628678 14 17.949219 C 14 17.123856 14.369472 16.312626 15.333984 15.541016 A 1.0001 1.0001 0 0 0 15.341797 15.535156 C 16.005142 14.994642 16.561184 14.346959 17.003906 13.628906 z "/>
</svg>
