<?xml version="1.0" encoding="UTF-8" standalone="no"?>
<svg xmlns="http://www.w3.org/2000/svg" xmlns:svg="http://www.w3.org/2000/svg" width="24" height="24" viewBox="0 0 24 24" fill="currentColor" tags="armchair,furniture,leisure,lounge,loveseat,couch" categories="furniture">
  <path d="M 6 3 C 4.3549936 3 3 4.3549936 3 6 L 3 8.1601562 C 2.6269657 8.2826007 2.2714032 8.4759837 1.9609375 8.7519531 C 1.3797568 9.268558 1 10.083335 1 11 L 1 16 C 1 17.294749 1.840457 18.406112 3 18.822266 L 3 20 A 1 1 0 0 0 4 21 A 1 1 0 0 0 5 20 L 5 19 L 19 19 L 19 20 A 1 1 0 0 0 20 21 A 1 1 0 0 0 21 20 L 21 18.822266 C 22.159543 18.406112 23 17.294749 23 16 L 23 11 C 23 10.083335 22.620244 9.268558 22.039062 8.7519531 C 21.728597 8.4759837 21.373034 8.2826007 21 8.1601562 L 21 6 C 21 4.3549936 19.645006 3 18 3 L 12 3 L 6 3 z M 6 5 L 11 5 L 11 12 L 7 12 L 7 11 C 7 10.083335 6.6202432 9.268558 6.0390625 8.7519531 C 5.7285968 8.4759837 5.3730343 8.2826007 5 8.1601562 L 5 6 C 5 5.4358718 5.4358718 5 6 5 z M 13 5 L 18 5 C 18.564128 5 19 5.4358718 19 6 L 19 8.1601562 C 18.626966 8.2826007 18.271404 8.4759837 17.960938 8.7519531 C 17.379757 9.268558 17 10.083335 17 11 L 17 12 L 13 12 L 13 5 z M 4 10 C 4.2777773 10 4.5421198 10.09799 4.7109375 10.248047 C 4.8797552 10.398107 5 10.583334 5 11 L 5 13 A 1.0001 1.0001 0 0 0 6 14 L 12 14 L 18 14 A 1.0001 1.0001 0 0 0 19 13 L 19 11 C 19 10.583334 19.120246 10.398107 19.289062 10.248047 C 19.45788 10.097987 19.722222 10 20 10 C 20.277778 10 20.542121 10.09799 20.710938 10.248047 C 20.879755 10.398107 21 10.583334 21 11 L 21 16 C 21 16.564128 20.564128 17 20 17 L 4 17 C 3.4358718 17 3 16.564128 3 16 L 3 11 C 3 10.583334 3.1202448 10.398107 3.2890625 10.248047 C 3.4578802 10.097987 3.7222227 10 4 10 z "/>
</svg>
