<svg xmlns="http://www.w3.org/2000/svg" xmlns:svg="http://www.w3.org/2000/svg" width="24" height="24" viewBox="0 0 24 24" fill="currentColor" tags="armchair,furniture,leisure,lounge,loveseat,couch" categories="home">
  <path d="M 6 3 C 4.3549904 3 3 4.3549904 3 6 L 3 8.1582031 C 2.6265945 8.2806257 2.2716848 8.4757334 1.9609375 8.7519531 C 1.3797556 9.268559 1 10.083334 1 11 L 1 16 C 1 17.295142 1.8399128 18.410315 3 18.826172 L 3 20 A 1 1 0 0 0 4 21 A 1 1 0 0 0 5 20 L 5 19 L 19 19 L 19 20 A 1 1 0 0 0 20 21 A 1 1 0 0 0 21 20 L 21 18.826172 C 22.160087 18.410315 23 17.295143 23 16 L 23 11 C 23 10.083334 22.620244 9.268559 22.039062 8.7519531 C 21.728316 8.4757334 21.373406 8.2806257 21 8.1582031 L 21 6 C 21 4.3549904 19.64501 3 18 3 L 12 3 L 6 3 z M 6 5 L 11 5 L 11 12 L 7 12 L 7 11 C 7 10.083334 6.6202444 9.268559 6.0390625 8.7519531 C 5.7283152 8.4757334 5.3734055 8.2806257 5 8.1582031 L 5 6 C 5 5.4358706 5.4358706 5 6 5 z M 13 5 L 18 5 C 18.564129 5 19 5.4358706 19 6 L 19 8.1582031 C 18.626594 8.2806257 18.271685 8.4757334 17.960938 8.7519531 C 17.379756 9.268559 17 10.083334 17 11 L 17 12 L 13 12 L 13 5 z M 4 10 C 4.2777779 10 4.5421194 10.09799 4.7109375 10.248047 C 4.8797556 10.398107 5 10.583334 5 11 L 5 12.5 C 5 13.316582 5.6834175 14 6.5 14 L 12 14 L 17.5 14 C 18.316582 14 19 13.316582 19 12.5 L 19 11 C 19 10.583334 19.120244 10.398107 19.289062 10.248047 C 19.457881 10.097986 19.722222 10 20 10 C 20.277778 10 20.542119 10.09799 20.710938 10.248047 C 20.879756 10.398107 21 10.583334 21 11 L 21 16 C 21 16.564129 20.564129 17 20 17 L 4 17 C 3.4358706 17 3 16.564129 3 16 L 3 11 C 3 10.583334 3.1202444 10.398107 3.2890625 10.248047 C 3.4578806 10.097986 3.7222221 10 4 10 z "/>
</svg>
