<svg xmlns="http://www.w3.org/2000/svg" xmlns:svg="http://www.w3.org/2000/svg" width="24" height="24" viewBox="0 0 24 24" fill="currentColor" tags="solar panel,solar,panel,sun,energy,electricity,light" categories="home,science,sustainability,weather">
  <path d="M 7 1 A 1 1 0 0 0 6 2 C 6 3.6686989 4.6686989 5 3 5 A 1 1 0 0 0 2 6 A 1 1 0 0 0 3 7 C 5.7495791 7 8 4.7495791 8 2 A 1 1 0 0 0 7 1 z M 11 1 A 1 1 0 0 0 10 2 A 1 1 0 0 0 11 3 L 13 3 A 1 1 0 0 0 14 2 A 1 1 0 0 0 13 1 L 11 1 z M 8.6601562 6.6601562 A 1 1 0 0 0 7.953125 6.953125 A 1 1 0 0 0 7.953125 8.3671875 L 9.3632812 9.7773438 A 1 1 0 0 0 10.777344 9.7773438 A 1 1 0 0 0 10.777344 8.3632812 L 9.3671875 6.953125 A 1 1 0 0 0 8.6601562 6.6601562 z M 3 9 A 1 1 0 0 0 2 10 L 2 12 A 1 1 0 0 0 3 13 A 1 1 0 0 0 4 12 L 4 10 A 1 1 0 0 0 3 9 z M 8 13 C 6.9060643 12.999747 5.8950753 13.599546 5.3691406 14.558594 L 5.3671875 14.558594 L 5.3671875 14.560547 L 2.2675781 19.998047 L 2.2753906 19.988281 C 1.5177802 21.279698 2.502748 23.000699 4 23 L 16 23 C 17.093723 23.000306 18.104779 22.402249 18.630859 21.443359 L 19.271484 20.318359 L 20.068359 22.363281 A 1 1 0 0 0 21.363281 22.931641 A 1 1 0 0 0 21.931641 21.636719 L 20.546875 18.082031 L 21.726562 16.009766 C 22.482383 14.717959 21.496672 12.998682 20 13 L 8 13 z M 8 15 L 12.560547 15 L 11.419922 17 L 6.2792969 17 L 7.1132812 15.535156 A 1.0001 1.0001 0 0 0 7.1230469 15.519531 C 7.2993677 15.197277 7.6326548 14.999915 8 15 z M 14.861328 15 L 20 15 A 1.0001 1.0001 0 0 0 19.996094 15.009766 L 18.861328 17 L 13.720703 17 L 14.861328 15 z M 5.1386719 19 L 10.279297 19 L 9.1386719 21 L 4 21 A 1.0001 1.0001 0 0 0 4.0058594 20.988281 L 5.1386719 19 z M 12.580078 19 L 17.720703 19 L 16.884766 20.466797 A 1.0001 1.0001 0 0 0 16.876953 20.480469 C 16.700434 20.802145 16.366945 21.000103 16 21 L 11.439453 21 L 12.580078 19 z "/>
</svg>
