<?xml version="1.0" encoding="UTF-8" standalone="no"?>
<svg xmlns="http://www.w3.org/2000/svg" xmlns:svg="http://www.w3.org/2000/svg" width="24" height="24" viewBox="0 0 24 24" fill="currentColor" tags="food,dish,restaurant,course,meal,bowl,starter" categories="food-beverage">
  <path d="M 6.2128906 2 A 1 1 0 0 0 5.3125 2.6523438 A 1 1 0 0 0 5.9023438 3.9375 C 5.8766125 3.92797 5.8625707 3.9231958 5.8574219 3.921875 C 5.8652075 3.9284337 5.9078605 3.9550238 5.9316406 3.9882812 C 5.9697249 4.0415401 6.008053 4.1117114 6 4.2910156 C 5.9936496 4.3696249 5.9468126 4.4638351 5.7167969 4.7578125 C 5.4849473 5.0541337 5.0676854 5.5477948 5.0039062 6.2949219 A 1.0001 1.0001 0 0 0 5.0019531 6.3164062 C 4.9291079 7.452744 5.5939373 8.2906076 6.0507812 8.7246094 A 1 1 0 0 0 7.4648438 8.6894531 A 1 1 0 0 0 7.4296875 7.2753906 C 7.0906929 6.9533457 6.9804916 6.863534 7.0039062 6.453125 C 7.0123557 6.3805983 7.0613018 6.2838258 7.2910156 5.9902344 C 7.526666 5.6890555 7.9437564 5.1826591 7.9980469 4.4316406 A 1.0001 1.0001 0 0 0 7.9980469 4.4199219 C 8.0364231 3.7828775 7.8392877 3.2167516 7.5585938 2.8242188 C 7.2779 2.4316859 6.9705812 2.2006204 6.5976562 2.0625 A 1 1 0 0 0 6.2128906 2 z M 11.212891 2 A 1 1 0 0 0 10.3125 2.6523438 A 1 1 0 0 0 10.902344 3.9375 C 10.876613 3.92797 10.862772 3.923363 10.857422 3.921875 C 10.864488 3.9278001 10.905228 3.9526579 10.927734 3.984375 C 10.964934 4.036804 11.006028 4.0956896 10.992188 4.2871094 A 1.0001 1.0001 0 0 0 10.992188 4.3007812 C 10.987787 4.3731852 10.942608 4.4620826 10.710938 4.7597656 C 10.48045 5.0559279 10.065322 5.5603487 10.015625 6.3105469 C 9.932149 7.4462939 10.592181 8.2889858 11.03125 8.7167969 A 1 1 0 0 0 12.445312 8.6972656 A 1 1 0 0 0 12.427734 7.2832031 C 12.087984 6.9521591 11.975533 6.876658 12.007812 6.4570312 A 1.0001 1.0001 0 0 0 12.007812 6.4414062 C 12.011712 6.3780243 12.055732 6.2880983 12.289062 5.9882812 C 12.5218 5.6892261 12.938912 5.1782459 12.986328 4.4238281 C 13.029953 3.7890015 12.837536 3.2212801 12.558594 2.828125 C 12.278292 2.4330537 11.970581 2.2006204 11.597656 2.0625 A 1 1 0 0 0 11.212891 2 z M 16.212891 2 A 1 1 0 0 0 15.3125 2.6523438 A 1 1 0 0 0 15.902344 3.9375 C 15.876613 3.92797 15.862571 3.9231958 15.857422 3.921875 C 15.865208 3.9284337 15.907858 3.9550238 15.931641 3.9882812 C 15.969721 4.0415403 16.00805 4.1117114 16 4.2910156 C 15.9937 4.3696246 15.94681 4.4638351 15.716797 4.7578125 C 15.484947 5.0541337 15.067685 5.5477948 15.003906 6.2949219 A 1.0001 1.0001 0 0 0 15.001953 6.3164062 C 14.929113 7.4527437 15.591005 8.2878404 16.03125 8.7167969 A 1 1 0 0 0 17.445312 8.6972656 A 1 1 0 0 0 17.427734 7.2832031 C 17.092116 6.9561472 16.980525 6.8637109 17.003906 6.453125 C 17.012306 6.380598 17.061306 6.2838258 17.291016 5.9902344 C 17.526666 5.6890555 17.943756 5.1826591 17.998047 4.4316406 A 1.0001 1.0001 0 0 0 17.998047 4.4199219 C 18.036423 3.7828775 17.839288 3.2167516 17.558594 2.8242188 C 17.2779 2.4316859 16.970581 2.2006204 16.597656 2.0625 A 1 1 0 0 0 16.212891 2 z M 22.001953 4.9980469 A 1 1 0 0 0 21.076172 5.6152344 L 18.832031 11 L 3 11 A 1.0001 1.0001 0 0 0 2 12 C 2 15.415164 3.7229896 18.437058 6.3457031 20.242188 A 1 1 0 0 0 6 21 A 1 1 0 0 0 7 22 L 17 22 A 1 1 0 0 0 18 21 A 1 1 0 0 0 17.654297 20.242188 C 20.27701 18.437058 22 15.415164 22 12 A 1.0001 1.0001 0 0 0 21 11 L 22.923828 6.3847656 A 1 1 0 0 0 22.384766 5.0761719 A 1 1 0 0 0 22.001953 4.9980469 z M 4.2011719 13 L 19.798828 13 C 19.288438 16.932174 16.075035 20 12 20 C 7.9249646 20 4.711562 16.932174 4.2011719 13 z "/>
</svg>
