<?xml version="1.0" encoding="UTF-8" standalone="no"?>
<svg xmlns="http://www.w3.org/2000/svg" xmlns:svg="http://www.w3.org/2000/svg" width="24" height="24" viewBox="0 0 24 24" fill="currentColor" tags="shape,suit,playing,cards" categories="shapes,gaming">
  <path d="M 12 1 A 1.0001 1.0001 0 0 0 11.292969 1.2929688 L 4.2929688 8.2929688 C 2.7615418 9.8243956 1 11.765217 1 14.5 C 1 18.078006 3.9219938 21 7.5 21 C 8.7947591 21 9.9233164 20.631291 11 19.945312 L 11 22 A 1 1 0 0 0 12 23 A 1 1 0 0 0 13 22 L 13 19.945312 C 14.076684 20.631291 15.205241 21 16.5 21 C 20.078006 21 23 18.078006 23 14.5 C 23 11.765217 21.238458 9.8243956 19.707031 8.2929688 L 12.707031 1.2929688 A 1.0001 1.0001 0 0 0 12 1 z M 12 3.4140625 L 18.292969 9.7070312 C 19.761542 11.175604 21 12.634783 21 14.5 C 21 16.997126 18.997126 19 16.5 19 C 14.889088 19 14.100548 18.684209 12.716797 17.302734 A 1 1 0 0 0 12.617188 17.214844 A 1.0001 1.0001 0 0 0 12.542969 17.164062 A 1.0001 1.0001 0 0 0 12.382812 17.076172 A 1 1 0 0 0 12.257812 17.035156 A 1.0001 1.0001 0 0 0 12.205078 17.023438 A 1.0001 1.0001 0 0 0 12 17 A 1.0001 1.0001 0 0 0 11.794922 17.023438 A 1 1 0 0 0 11.742188 17.035156 A 1 1 0 0 0 11.617188 17.076172 A 1 1 0 0 0 11.611328 17.078125 A 1.0001 1.0001 0 0 0 11.5 17.134766 A 1 1 0 0 0 11.457031 17.164062 A 1.0001 1.0001 0 0 0 11.382812 17.214844 A 1.0001 1.0001 0 0 0 11.292969 17.292969 C 11.289609 17.296329 11.286556 17.299387 11.283203 17.302734 C 9.8994517 18.684209 9.1109113 19 7.5 19 C 5.002874 19 3 16.997126 3 14.5 C 3 12.634783 4.2384582 11.175604 5.7070312 9.7070312 L 12 3.4140625 z "/>
</svg>
