<?xml version="1.0" encoding="UTF-8" standalone="no"?>
<svg xmlns="http://www.w3.org/2000/svg" xmlns:svg="http://www.w3.org/2000/svg" width="24" height="24" viewBox="0 0 24 24" fill="currentColor" tags="shape,suit,playing,cards" categories="shapes,gaming">
  <path d="M 12 1 A 1.0001 1.0001 0 0 0 11.292969 1.2929688 L 4.2929688 8.2929688 C 2.7615418 9.8243956 1 11.765217 1 14.5 C 1 18.078006 3.9219938 21 7.5 21 C 8.7949053 21 9.9232065 20.629487 11 19.943359 L 11 22 A 1 1 0 0 0 12 23 A 1 1 0 0 0 13 22 L 13 19.943359 C 14.076793 20.629487 15.205095 21 16.5 21 C 20.078006 21 23 18.078006 23 14.5 C 23 11.765217 21.238458 9.8243956 19.707031 8.2929688 L 12.707031 1.2929688 A 1.0001 1.0001 0 0 0 12 1 z M 12 3.4140625 L 18.292969 9.7070312 C 19.761542 11.175604 21 12.634783 21 14.5 C 21 16.997126 18.997126 19 16.5 19 C 14.885185 19 14.097037 18.682974 12.707031 17.292969 A 1.0001 1.0001 0 0 0 12.701172 17.289062 A 1 1 0 0 0 12.384766 17.076172 A 1 1 0 0 0 12.382812 17.076172 A 1 1 0 0 0 12 17 A 1 1 0 0 0 11.654297 17.068359 A 1.0001 1.0001 0 0 0 11.599609 17.087891 A 1 1 0 0 0 11.322266 17.273438 A 1.0001 1.0001 0 0 0 11.292969 17.292969 C 9.9029628 18.682974 9.1148148 19 7.5 19 C 5.002874 19 3 16.997126 3 14.5 C 3 12.634783 4.2384582 11.175604 5.7070312 9.7070312 L 12 3.4140625 z "/>
</svg>
