<?xml version="1.0" encoding="UTF-8" standalone="no"?>
<svg xmlns="http://www.w3.org/2000/svg" xmlns:svg="http://www.w3.org/2000/svg" width="24" height="24" viewBox="0 0 24 24" fill="currentColor" tags="shape,suit,playing,cards" categories="shapes,gaming">
  <path d="M 12 1 A 1.0001 1.0001 0 0 0 11.292969 1.2929688 L 4.2929688 8.2929688 C 2.7615449 9.8243926 1 11.765223 1 14.5 C 1 18.077999 3.9220009 21 7.5 21 C 8.7949027 21 9.9232074 20.629486 11 19.943359 L 11 22 A 1 1 0 0 0 12 23 A 1 1 0 0 0 13 22 L 13 19.943359 C 14.076793 20.629486 15.205098 21 16.5 21 C 20.077999 21 23 18.077999 23 14.5 C 23 11.765223 21.238456 9.8243926 19.707031 8.2929688 L 12.707031 1.2929688 A 1.0001 1.0001 0 0 0 12 1 z M 12 3.4140625 L 18.292969 9.7070312 C 19.761538 11.175601 21 12.634786 21 14.5 C 21 16.997122 18.997122 19 16.5 19 C 14.885189 19 14.097034 18.682971 12.707031 17.292969 A 1.0001 1.0001 0 0 0 12.701172 17.289062 A 1 1 0 0 0 12.384766 17.076172 A 1 1 0 0 0 12.382812 17.076172 A 1 1 0 0 0 12 17 A 1 1 0 0 0 11.654297 17.068359 A 1.0001 1.0001 0 0 0 11.599609 17.087891 A 1 1 0 0 0 11.322266 17.273438 A 1.0001 1.0001 0 0 0 11.292969 17.292969 C 9.9029656 18.682971 9.1148116 19 7.5 19 C 5.002879 19 3 16.997122 3 14.5 C 3 12.634786 4.2384612 11.175601 5.7070312 9.7070312 L 12 3.4140625 z "/>
</svg>
