<svg xmlns="http://www.w3.org/2000/svg" xmlns:svg="http://www.w3.org/2000/svg" width="24" height="24" viewBox="0 0 24 24" fill="currentColor" tags="shape,suit,playing,cards" categories="shapes,gaming">
  <path d="M 12.019531 2.0097656 C 11.199323 2.0042976 10.37575 2.3282812 9.78125 2.9804688 L 4.3046875 8.28125 A 1.0001 1.0001 0 0 0 4.2929688 8.2910156 C 2.7615421 9.8224382 1 11.763264 1 14.498047 A 1 1 0 0 0 1 14.5 C 1.000587 17.432271 2.8512693 19.678421 5.1738281 20.568359 C 7.019036 21.275391 9.1980075 21.10856 11 19.919922 L 11 22 A 1 1 0 0 0 12 23 A 1 1 0 0 0 13 22 L 13 19.919922 C 14.801956 21.108804 16.980736 21.275479 18.826172 20.568359 C 21.148731 19.678421 22.999413 17.432271 23 14.5 C 23 11.773319 21.24003 9.825967 19.707031 8.2929688 A 1.0001 1.0001 0 0 0 19.695312 8.28125 L 14.224609 2.9902344 C 13.640146 2.3426479 12.831919 2.0151816 12.019531 2.0097656 z M 12.005859 3.9902344 C 12.278481 3.9920544 12.550697 4.1102004 12.753906 4.34375 A 1.0001 1.0001 0 0 0 12.8125 4.40625 L 18.294922 9.7089844 C 19.761029 11.175307 21 12.647546 21 14.5 C 20.999578 16.609967 19.739529 18.076543 18.109375 18.701172 C 16.479221 19.325801 14.562608 19.075292 13.152344 17.505859 A 1.0001 1.0001 0 0 0 13.091797 17.443359 C 12.864368 17.230952 12.585609 17.098281 12.294922 17.044922 A 1 1 0 0 0 12 17 A 1 1 0 0 0 11.703125 17.044922 C 11.41356 17.098229 11.1372 17.230413 10.910156 17.441406 A 1.0001 1.0001 0 0 0 10.847656 17.505859 C 9.4373952 19.075342 7.5207786 19.323848 5.890625 18.699219 C 4.2604714 18.07459 3.0004224 16.608014 3 14.498047 C 3 12.632829 4.2384582 11.175604 5.7070312 9.7070312 L 11.203125 4.3867188 A 1.0001 1.0001 0 0 0 11.253906 4.3339844 C 11.460211 4.1031649 11.733238 3.9884169 12.005859 3.9902344 z "/>
</svg>
