<?xml version="1.0" encoding="UTF-8" standalone="no"?>
<svg xmlns="http://www.w3.org/2000/svg" xmlns:svg="http://www.w3.org/2000/svg" width="24" height="24" viewBox="0 0 24 24" fill="currentColor" tags="stars,effect,filter,night,magic" categories="shapes,cursors,multimedia,gaming,weather">
  <path d="M 5 2 A 1 1 0 0 0 4 3 L 4 4 L 3 4 A 1 1 0 0 0 2 5 A 1 1 0 0 0 3 6 L 4 6 L 4 7 A 1 1 0 0 0 5 8 A 1 1 0 0 0 6 7 L 6 6 L 7 6 A 1 1 0 0 0 8 5 A 1 1 0 0 0 7 4 L 6 4 L 6 3 A 1 1 0 0 0 5 2 z M 12 2 A 1.0001 1.0001 0 0 0 11.050781 2.6875 L 9.1386719 8.5 C 9.0391657 8.802539 8.802539 9.0391657 8.5 9.1386719 L 2.6875 11.050781 A 1.0001 1.0001 0 0 0 2.6875 12.949219 L 8.5 14.861328 C 8.802539 14.960834 9.0391657 15.197461 9.1386719 15.5 L 11.050781 21.3125 A 1.0001 1.0001 0 0 0 12.949219 21.3125 L 14.861328 15.5 C 14.960834 15.197461 15.197461 14.960834 15.5 14.861328 L 21.3125 12.949219 A 1.0001 1.0001 0 0 0 21.3125 11.050781 L 15.5 9.1386719 C 15.197461 9.0391657 14.960834 8.802539 14.861328 8.5 L 12.949219 2.6875 A 1.0001 1.0001 0 0 0 12 2 z M 12 6.1972656 L 12.962891 9.125 C 13.260265 10.029139 13.970861 10.739735 14.875 11.037109 L 17.802734 12 L 14.875 12.962891 C 13.970861 13.260265 13.260265 13.970861 12.962891 14.875 L 12 17.802734 L 11.037109 14.875 C 10.739735 13.970861 10.029139 13.260265 9.125 12.962891 L 6.1972656 12 L 9.125 11.037109 C 10.029139 10.739735 10.739735 10.029139 11.037109 9.125 L 12 6.1972656 z M 19 16 A 1 1 0 0 0 18 17 L 18 18 L 17 18 A 1 1 0 0 0 16 19 A 1 1 0 0 0 17 20 L 18 20 L 18 21 A 1 1 0 0 0 19 22 A 1 1 0 0 0 20 21 L 20 20 L 21 20 A 1 1 0 0 0 22 19 A 1 1 0 0 0 21 18 L 20 18 L 20 17 A 1 1 0 0 0 19 16 z "/>
</svg>
