<?xml version="1.0" encoding="UTF-8" standalone="no"?>
<svg xmlns="http://www.w3.org/2000/svg" xmlns:svg="http://www.w3.org/2000/svg" width="24" height="24" viewBox="0 0 24 24" fill="currentColor" tags="star,effect,filter,night,magic,shiny,glitter,twinkle,celebration" categories="shapes">
  <path d="M 12 0.99804688 C 11.148455 0.99804686 10.222775 1.6327226 10.035156 2.6289062 L 8.984375 8.1855469 A 1.0001 1.0001 0 0 0 8.9824219 8.1855469 C 8.9054589 8.5929481 8.5929481 8.905462 8.1855469 8.9824219 A 1.0001 1.0001 0 0 0 8.1855469 8.984375 L 2.6289062 10.035156 C 1.6327225 10.222775 0.99804688 11.148455 0.99804688 12 C 0.99804686 12.851545 1.6327226 13.777225 2.6289062 13.964844 L 8.1855469 15.015625 A 1.0001 1.0001 0 0 0 8.1855469 15.017578 C 8.5929481 15.094538 8.905462 15.407052 8.9824219 15.814453 A 1.0001 1.0001 0 0 0 8.984375 15.814453 L 10.035156 21.371094 C 10.222775 22.367277 11.148455 23.001953 12 23.001953 C 12.851545 23.001953 13.777225 22.367277 13.964844 21.371094 L 15.015625 15.814453 A 1.0001 1.0001 0 0 0 15.017578 15.814453 C 15.094538 15.407052 15.407052 15.094538 15.814453 15.017578 A 1.0001 1.0001 0 0 0 15.814453 15.015625 L 21.371094 13.964844 C 22.367233 13.777225 23.001953 12.851545 23.001953 12 C 23.001953 11.148455 22.367277 10.222775 21.371094 10.035156 L 15.814453 8.984375 A 1.0001 1.0001 0 0 0 15.814453 8.9824219 C 15.407052 8.9054589 15.094538 8.5929481 15.017578 8.1855469 A 1.0001 1.0001 0 0 0 15.015625 8.1855469 L 13.964844 2.6289062 C 13.777225 1.6327225 12.851545 0.99804688 12 0.99804688 z M 12 3 L 13.050781 8.5585938 C 13.27935 9.7685658 14.231434 10.72065 15.441406 10.949219 L 21 12 L 15.441406 13.050781 C 14.231434 13.27935 13.27935 14.231434 13.050781 15.441406 L 12 21 L 10.949219 15.441406 C 10.72065 14.231434 9.7685657 13.27935 8.5585938 13.050781 L 3 12 L 8.5585938 10.949219 C 9.7685657 10.72065 10.72065 9.7685657 10.949219 8.5585938 L 12 3 z "/>
</svg>
