<?xml version="1.0" encoding="UTF-8" standalone="no"?>
<svg xmlns="http://www.w3.org/2000/svg" xmlns:svg="http://www.w3.org/2000/svg" width="24" height="24" viewBox="0 0 24 24" fill="currentColor" tags="star,effect,filter,night,magic,shiny,glitter,twinkle,celebration" categories="shapes">
  <path d="M 12 1 C 11.400604 1 10.742892 1.430175 10.556641 2.0957031 A 1.0001 1.0001 0 0 0 10.550781 2.1152344 L 8.96875 8.25 C 8.8772436 8.6038987 8.6039624 8.8755369 8.25 8.9667969 L 2.1152344 10.550781 A 1.0001 1.0001 0 0 0 2.0917969 10.556641 C 1.4288741 10.74476 1.0019531 11.402003 1.0019531 12 C 1.0019531 12.597997 1.4288746 13.2552 2.0917969 13.443359 A 1.0001 1.0001 0 0 0 2.1152344 13.449219 L 8.25 15.03125 C 8.6040949 15.1226 8.8774019 15.395905 8.96875 15.75 L 10.548828 21.884766 A 1.0001 1.0001 0 0 0 10.554688 21.904297 C 10.740899 22.569826 11.400604 23 12 23 C 12.599396 23 13.257108 22.569825 13.443359 21.904297 A 1.0001 1.0001 0 0 0 13.449219 21.884766 L 15.03125 15.75 C 15.1226 15.395905 15.395905 15.122598 15.75 15.03125 L 21.884766 13.451172 A 1.0001 1.0001 0 0 0 21.900391 13.445312 C 22.568553 13.261012 23.001953 12.600812 23.001953 12 C 23.001953 11.399188 22.568553 10.738987 21.900391 10.554688 A 1.0001 1.0001 0 0 0 21.884766 10.548828 L 15.75 8.96875 C 15.395905 8.8774019 15.122598 8.6040949 15.03125 8.25 L 13.451172 2.1152344 A 1.0001 1.0001 0 0 0 13.445312 2.0957031 C 13.259101 1.4301747 12.599396 1 12 1 z M 12 4.5058594 L 13.09375 8.75 C 13.366046 9.8055077 14.194492 10.633954 15.25 10.90625 L 19.496094 12 L 15.25 13.09375 C 14.194492 13.366046 13.366046 14.194492 13.09375 15.25 L 12 19.494141 L 10.90625 15.25 C 10.633954 14.194492 9.8055077 13.366046 8.75 13.09375 L 4.5058594 12 L 8.75 10.904297 C 9.8051228 10.632261 10.631526 9.8049332 10.904297 8.75 A 1.0001 1.0001 0 0 0 10.90625 8.75 L 12 4.5058594 z "/>
</svg>
