<?xml version="1.0" encoding="UTF-8" standalone="no"?>
<svg xmlns="http://www.w3.org/2000/svg" xmlns:svg="http://www.w3.org/2000/svg" width="24" height="24" viewBox="0 0 24 24" fill="currentColor" tags="disability,disabled,dda,human,accessibility,people,sound" categories="accessibility,communication">
  <path d="M 7.4609375 1.84375 C 5.8807177 1.8364773 4.2843774 2.3506264 3.0546875 3.4335938 C 1.8249976 4.516561 1.0094839 6.1854303 1 8.2460938 A 1.0001 1.0001 0 0 0 1 8.25 C 1 9.7280952 1.1867062 10.646295 1.4257812 11.339844 C 1.6648565 12.033393 1.8817316 12.398688 2.0253906 13.023438 A 1.0001 1.0001 0 0 0 2.03125 13.048828 C 2.2234502 13.795751 2.2311398 14.579279 2.0546875 15.330078 A 1.0001 1.0001 0 0 0 2.0546875 15.332031 L 1.0253906 19.773438 A 1 1 0 0 0 1.7734375 20.974609 A 1 1 0 0 0 2.9746094 20.226562 L 4.0019531 15.787109 C 4.2516146 14.724804 4.239123 13.61767 3.96875 12.560547 C 3.7687276 11.70253 3.4898719 11.190718 3.3164062 10.6875 C 3.141757 10.180849 3.000445 9.5714849 3 8.2539062 L 3 8.2519531 L 3 8.25 C 3.0082175 6.6918075 3.5620869 5.6512329 4.3769531 4.9335938 C 5.1925966 4.2152702 6.3173448 3.8385227 7.453125 3.84375 C 8.5889052 3.84898 9.7085811 4.2370899 10.517578 4.9628906 C 11.326575 5.6886914 11.870464 6.7342535 11.863281 8.2949219 A 1.0001 1.0001 0 0 0 11.863281 8.3007812 L 11.863281 13.921875 C 11.804091 14.560646 11.305658 15.043584 10.667969 15.091797 L 8.9042969 14.90625 A 1.0001 1.0001 0 0 0 7.8007812 15.900391 L 7.8007812 20 A 1 1 0 0 0 8.8007812 21 A 1 1 0 0 0 9.8007812 20 L 9.8007812 17.009766 L 10.595703 17.09375 A 1.0001 1.0001 0 0 0 10.755859 17.097656 C 12.389217 17.006906 13.719644 15.715836 13.859375 14.085938 A 1.0001 1.0001 0 0 0 13.863281 14 L 13.863281 8.3046875 L 13.863281 8.3007812 C 13.871662 6.2420346 13.072359 4.5681083 11.853516 3.4746094 C 10.633846 2.3803692 9.0411573 1.8510227 7.4609375 1.84375 z M 19.802734 6.1972656 A 1 1 0 0 0 19.095703 6.4902344 A 1 1 0 0 0 19.095703 7.9042969 C 21.639665 10.451428 21.6392 14.548059 19.09375 17.09375 A 1 1 0 0 0 19.09375 18.507812 A 1 1 0 0 0 20.507812 18.507812 C 23.817131 15.19812 23.817164 9.8017989 20.509766 6.4902344 A 1 1 0 0 0 19.802734 6.1972656 z M 17.078125 9.0292969 A 1 1 0 0 0 16.261719 9.3242188 A 1 1 0 0 0 16.275391 10.738281 C 17.277456 11.720203 17.285113 13.301026 16.292969 14.292969 A 1 1 0 0 0 16.292969 15.707031 A 1 1 0 0 0 17.707031 15.707031 C 19.468681 13.945742 19.455043 11.054042 17.675781 9.3105469 A 1 1 0 0 0 17.078125 9.0292969 z "/>
</svg>
