<svg xmlns="http://www.w3.org/2000/svg" xmlns:svg="http://www.w3.org/2000/svg" width="24" height="24" viewBox="0 0 24 24" fill="currentColor" tags="spelling,error,mistake,oversight,typo,correction,code,linter,a" categories="text,development">
  <path d="M 12 3 A 1.0001 1.0001 0 0 0 11.105469 3.5527344 L 5.1054688 15.552734 A 1 1 0 0 0 5.5527344 16.894531 A 1 1 0 0 0 6.8945312 16.447266 L 8.6171875 13 L 15.382812 13 L 17.105469 16.447266 A 1 1 0 0 0 18.447266 16.894531 A 1 1 0 0 0 18.894531 15.552734 L 12.894531 3.5527344 A 1.0001 1.0001 0 0 0 12 3 z M 12 6.2363281 L 14.382812 11 L 9.6171875 11 L 12 6.2363281 z M 22 17 A 1 1 0 0 0 21.292969 17.292969 L 18 20.585938 L 16.707031 19.292969 A 1 1 0 0 0 15.292969 19.292969 A 1 1 0 0 0 15.292969 20.707031 L 17.292969 22.707031 A 1.0001 1.0001 0 0 0 18.707031 22.707031 L 22.707031 18.707031 A 1 1 0 0 0 22.707031 17.292969 A 1 1 0 0 0 22 17 z "/>
</svg>
