<?xml version="1.0" encoding="UTF-8" standalone="no"?>
<svg xmlns="http://www.w3.org/2000/svg" xmlns:svg="http://www.w3.org/2000/svg" width="24" height="24" viewBox="0 0 24 24" fill="currentColor" tags="spelling,error,mistake,oversight,typo,correction,code,linter,a" categories="text,development">
  <path d="M 12 3 A 1.0001 1.0001 0 0 0 11.105469 3.5527344 L 5.1054688 15.552734 A 1 1 0 0 0 5.5527344 16.894531 A 1 1 0 0 0 6.8945312 16.447266 L 8.6171875 13 L 15.382812 13 L 17.105469 16.447266 A 1 1 0 0 0 18.447266 16.894531 A 1 1 0 0 0 18.894531 15.552734 L 12.894531 3.5527344 A 1.0001 1.0001 0 0 0 12 3 z M 12 6.2363281 L 14.382812 11 L 9.6171875 11 L 12 6.2363281 z M 6.3007812 19 C 5.4230035 19 4.7553616 19.486676 4.4570312 19.746094 C 4.158701 20.005511 4.2469697 20 4 20 A 1 1 0 0 0 3 21 A 1 1 0 0 0 4 22 C 4.8530303 22 5.4928617 21.494489 5.7695312 21.253906 C 6.0462009 21.013324 5.9785591 21 6.3007812 21 C 6.6230035 21 6.5023438 20.990234 6.7773438 21.240234 C 7.0523437 21.490234 7.7218316 22 8.5996094 22 C 9.4526397 22 10.092471 21.494489 10.369141 21.253906 C 10.64581 21.013324 10.578168 21 10.900391 21 C 11.14736 21 11.057138 20.9945 11.355469 21.253906 C 11.653799 21.513324 12.321441 22 13.199219 22 C 14.052249 22 14.69208 21.494489 14.96875 21.253906 C 15.24542 21.013324 15.177778 21 15.5 21 C 15.74697 21 15.658701 20.9945 15.957031 21.253906 C 16.255362 21.513324 16.923003 22 17.800781 22 C 18.653812 22 19.29169 21.494489 19.568359 21.253906 C 19.845029 21.013324 19.777387 21 20.099609 21 A 1 1 0 0 0 21.099609 20 A 1 1 0 0 0 20.099609 19 C 19.221832 19 18.55419 19.486676 18.255859 19.746094 C 17.957529 20.005511 18.047751 20 17.800781 20 C 17.478559 20 17.546201 19.986676 17.269531 19.746094 C 16.992862 19.505511 16.35303 19 15.5 19 C 14.622222 19 13.95458 19.486676 13.65625 19.746094 C 13.35792 20.005511 13.446188 20 13.199219 20 C 12.876997 20 12.944638 19.986676 12.667969 19.746094 C 12.391299 19.505511 11.753421 19 10.900391 19 C 10.022613 19 9.354971 19.486676 9.0566406 19.746094 C 8.7583103 20.005511 8.8465791 20 8.5996094 20 C 8.2773872 20 8.3980469 20.009766 8.1230469 19.759766 C 7.8480469 19.509766 7.1785591 19 6.3007812 19 z "/>
</svg>
