<?xml version="1.0" encoding="UTF-8" standalone="no"?>
<svg xmlns="http://www.w3.org/2000/svg" xmlns:svg="http://www.w3.org/2000/svg" width="24" height="24" viewBox="0 0 24 24" fill="currentColor" tags="path,pen,tool,shape,curve,draw" categories="design">
  <path d="M 19 2 C 17.693798 2 16.571382 2.853825 16.164062 4.0292969 C 9.6610337 4.4443095 4.4443095 9.6610337 4.0292969 16.164062 C 2.853825 16.571382 2 17.693798 2 19 C 2 20.645006 3.3549936 22 5 22 C 6.6450064 22 8 20.645006 8 19 C 8 17.717017 7.1763999 16.610464 6.0332031 16.185547 C 6.4293154 10.750605 10.750605 6.4293154 16.185547 6.0332031 C 16.610464 7.1763999 17.717017 8 19 8 C 20.645006 8 22 6.6450064 22 5 C 22 3.3549936 20.645006 2 19 2 z M 19 4 C 19.564128 4 20 4.4358718 20 5 C 20 5.5641282 19.564128 6 19 6 C 18.435872 6 18 5.5641282 18 5 C 18 4.4358718 18.435872 4 19 4 z M 5 18 C 5.5641282 18 6 18.435872 6 19 C 6 19.564128 5.5641282 20 5 20 C 4.4358718 20 4 19.564128 4 19 C 4 18.435872 4.4358718 18 5 18 z "/>
</svg>
