<?xml version="1.0" encoding="UTF-8" standalone="no"?>
<svg xmlns="http://www.w3.org/2000/svg" xmlns:svg="http://www.w3.org/2000/svg" width="24" height="24" viewBox="0 0 24 24" fill="currentColor" tags="path,pen,tool,shape,curve,draw" categories="design">
  <path d="M 19 2 C 17.694992 2 16.572319 2.853535 16.164062 4.0273438 C 9.6604354 4.4420259 4.4420259 9.6604354 4.0273438 16.164062 C 2.853535 16.572319 2 17.694992 2 19 C 2 20.64501 3.3549904 22 5 22 C 6.6450096 22 8 20.64501 8 19 C 8 17.715899 7.1740433 16.607694 6.0292969 16.183594 C 6.4253512 10.748534 10.748534 6.4253512 16.183594 6.0292969 C 16.607694 7.1740433 17.715899 8 19 8 C 20.64501 8 22 6.6450096 22 5 C 22 3.3549904 20.64501 2 19 2 z M 19 4 C 19.564129 4 20 4.4358706 20 5 C 20 5.5641294 19.564129 6 19 6 C 18.435871 6 18 5.5641294 18 5 C 18 4.4358706 18.435871 4 19 4 z M 5 18 C 5.5641294 18 6 18.435871 6 19 C 6 19.564129 5.5641294 20 5 20 C 4.4358706 20 4 19.564129 4 19 C 4 18.435871 4.4358706 18 5 18 z "/>
</svg>
