<?xml version="1.0" encoding="UTF-8" standalone="no"?>
<svg xmlns="http://www.w3.org/2000/svg" xmlns:svg="http://www.w3.org/2000/svg" width="24" height="24" viewBox="0 0 24 24" fill="currentColor" tags="split,divide" categories="layout">
  <path d="M 7 2 C 6.1666683 2 5.4501026 2.3858349 4.9179688 2.9179688 C 4.385835 3.4501025 4 4.1666683 4 5 L 4 8 A 1 1 0 0 0 5 9 A 1 1 0 0 0 6 8 L 6 5 C 6 4.8333337 6.1141666 4.549896 6.3320312 4.3320312 C 6.549896 4.1141666 6.8333337 4 7 4 L 17 4 C 17.166667 4 17.450104 4.1141666 17.667969 4.3320312 C 17.885834 4.549896 18 4.8333337 18 5 L 18 8 A 1 1 0 0 0 19 9 A 1 1 0 0 0 20 8 L 20 5 C 20 4.1666683 19.614166 3.4501025 19.082031 2.9179688 C 18.549898 2.3858349 17.833331 2 17 2 L 7 2 z M 4 11 A 1 1 0 0 0 3 12 A 1 1 0 0 0 4 13 L 20 13 A 1 1 0 0 0 21 12 A 1 1 0 0 0 20 11 L 4 11 z M 5 15 A 1 1 0 0 0 4 16 L 4 19 C 4 19.833331 4.385835 20.549898 4.9179688 21.082031 C 5.4501026 21.614166 6.1666683 22 7 22 L 17 22 C 17.833331 22 18.549898 21.614166 19.082031 21.082031 C 19.614166 20.549898 20 19.833331 20 19 L 20 16 A 1 1 0 0 0 19 15 A 1 1 0 0 0 18 16 L 18 19 C 18 19.166667 17.885834 19.450104 17.667969 19.667969 C 17.450104 19.885834 17.166667 20 17 20 L 7 20 C 6.8333337 20 6.549896 19.885834 6.3320312 19.667969 C 6.1141666 19.450104 6 19.166667 6 19 L 6 16 A 1 1 0 0 0 5 15 z "/>
</svg>
