<svg xmlns="http://www.w3.org/2000/svg" xmlns:svg="http://www.w3.org/2000/svg" width="24" height="24" viewBox="0 0 24 24" fill="currentColor" tags="break,disband,divide,separate,branch,disunite" categories="development,arrows">
  <path d="M 3 2 A 1.0001 1.0001 0 0 0 2 3 L 2 8 A 1 1 0 0 0 3 9 A 1 1 0 0 0 4 8 L 4 5.4140625 L 10.121094 11.535156 C 10.692189 12.105986 11.008663 12.882037 11 13.689453 A 1.0001 1.0001 0 0 0 11 13.699219 L 11 22 A 1 1 0 0 0 12 23 A 1 1 0 0 0 13 22 L 13 13.710938 C 13.014427 12.366341 12.486205 11.0717 11.535156 10.121094 L 5.4140625 4 L 8 4 A 1 1 0 0 0 9 3 A 1 1 0 0 0 8 2 L 3 2 z M 16 2 A 1 1 0 0 0 15 3 A 1 1 0 0 0 16 4 L 18.585938 4 L 14.292969 8.2929688 A 1 1 0 0 0 14.292969 9.7070312 A 1 1 0 0 0 15.707031 9.7070312 L 20 5.4140625 L 20 8 A 1 1 0 0 0 21 9 A 1 1 0 0 0 22 8 L 22 3 A 1.0001 1.0001 0 0 0 21.992188 2.8691406 A 1.0001 1.0001 0 0 0 21.923828 2.6171875 A 1.0001 1.0001 0 0 0 21.707031 2.2929688 A 1 1 0 0 0 21.382812 2.0761719 A 1.0001 1.0001 0 0 0 21.130859 2.0078125 A 1.0001 1.0001 0 0 0 21 2 L 16 2 z "/>
</svg>
