<svg xmlns="http://www.w3.org/2000/svg" xmlns:svg="http://www.w3.org/2000/svg" width="24" height="24" viewBox="0 0 24 24" fill="currentColor" tags="bobbin,spindle,yarn,thread,string,sewing,needlework" categories="communication,tools,social">
  <path d="M 5 2 C 3.3702071 1.9988251 2.2165954 3.2620001 2.0292969 4.578125 C 1.8419983 5.8942499 2.5986456 7.427322 4.1640625 7.8808594 A 1.0001 1.0001 0 0 0 4.1660156 7.8828125 L 5.28125 8.203125 C 5.711541 8.3292685 6.0002529 8.7134204 6 9.1621094 L 6 15.587891 L 4.1640625 16.121094 A 1.0001 1.0001 0 0 0 4.1582031 16.123047 C 2.6077338 16.580687 1.8566638 18.100924 2.0371094 19.410156 C 2.2175549 20.719389 3.3522771 21.978798 4.96875 22 A 1.0001 1.0001 0 0 0 4.9824219 22 L 19 22 C 20.629793 22.0012 21.783405 20.738 21.970703 19.421875 C 22.158002 18.10575 21.401355 16.572678 19.835938 16.119141 A 1.0001 1.0001 0 0 0 19.833984 16.117188 L 18.71875 15.796875 C 18.288459 15.670732 17.999747 15.28658 18 14.837891 L 18 8.4121094 L 19.835938 7.8789062 A 1.0001 1.0001 0 0 0 19.841797 7.8769531 C 21.392227 7.4192631 22.143336 5.8990763 21.962891 4.5898438 C 21.782445 3.2806112 20.647723 2.0212017 19.03125 2 A 1.0001 1.0001 0 0 0 19.017578 2 L 5 2 z M 5 4 L 19.005859 4 C 19.682932 4.00888 19.91628 4.3833826 19.982422 4.8632812 C 20.048372 5.3418186 19.923912 5.7645565 19.279297 5.9570312 L 16.742188 6.6933594 L 16.738281 6.6933594 L 8 9.2285156 L 8 9.1640625 L 8 9.1621094 C 7.9998855 7.8316865 7.1138617 6.6518125 5.8359375 6.28125 A 1.0001 1.0001 0 0 0 5.8320312 6.2792969 L 4.71875 5.9589844 C 4.0629768 5.7676086 3.9391004 5.3422066 4.0078125 4.859375 C 4.0766464 4.375687 4.314069 3.9995055 5 4 z M 16 8.9902344 L 16 12.689453 L 8 15.009766 L 8 11.310547 L 16 8.9902344 z M 16 14.771484 L 16 14.837891 C 16.000115 16.16831 16.886138 17.348187 18.164062 17.71875 A 1.0001 1.0001 0 0 0 18.167969 17.720703 L 19.28125 18.041016 C 19.937023 18.232391 20.0609 18.657793 19.992188 19.140625 C 19.923361 19.624263 19.685931 20.000494 19 20 L 4.9941406 20 C 4.3170684 19.99112 4.0837204 19.616617 4.0175781 19.136719 C 3.9514359 18.65682 4.075183 18.232721 4.7246094 18.041016 L 7.2226562 17.316406 A 1 1 0 0 0 7.25 17.308594 L 7.3339844 17.285156 A 1 1 0 0 0 7.3398438 17.283203 L 16 14.771484 z "/>
</svg>
