<svg xmlns="http://www.w3.org/2000/svg" xmlns:svg="http://www.w3.org/2000/svg" width="24" height="24" viewBox="0 0 24 24" fill="currentColor" tags="winner,soapbox,stage,entertainment,drama,podium,actor,actress,singer,light,beam,play,theatre,show,focus,concert,performance,lens,leaderboard,followspot,best,highlight" categories="devices,photography,multimedia,communication">
  <path d="M 8 1 A 1 1 0 0 0 7 2 L 7 5.0722656 C 6.8505761 5.0474463 6.7006082 5.0310663 6.5507812 5.0234375 C 5.0454161 4.9467882 3.5580142 5.7286189 2.8085938 7.1289062 A 1.0001 1.0001 0 0 0 2.7929688 7.15625 L 1.4140625 9.9472656 A 1.0001 1.0001 0 0 0 1.4042969 9.9667969 C 0.51274937 11.880328 1.2768895 14.182891 3.1367188 15.181641 A 1.0001 1.0001 0 0 0 3.1464844 15.185547 L 10.037109 18.783203 A 1.0001 1.0001 0 0 0 10.052734 18.791016 C 11.030151 19.280233 12.247488 18.874086 12.736328 17.896484 L 15.841797 11.685547 C 16.329254 10.709467 15.925757 9.4955582 14.951172 9.0058594 L 9 5.8984375 L 9 2 A 1 1 0 0 0 8 1 z M 6.34375 7.0136719 C 6.5627121 7.0154671 6.7837026 7.0518986 7 7.1289062 L 7 9 A 1 1 0 0 0 8 10 A 1 1 0 0 0 9 9 L 9 8.1523438 L 14.039062 10.785156 A 1.0001 1.0001 0 0 0 14.052734 10.792969 L 10.947266 17.001953 L 4.0839844 13.419922 C 3.1416261 12.913865 2.7661458 11.784232 3.2167969 10.814453 L 3.2167969 10.8125 L 4.5722656 8.0722656 C 4.825621 7.5988728 5.2346363 7.2686474 5.703125 7.1132812 C 5.9078544 7.0453863 6.1247879 7.0118767 6.34375 7.0136719 z M 21.960938 10.904297 A 1 1 0 0 0 21.832031 10.921875 L 18.806641 11.519531 A 1 1 0 0 0 18.019531 12.693359 A 1 1 0 0 0 19.193359 13.480469 L 22.220703 12.882812 A 1 1 0 0 0 23.007812 11.708984 A 1 1 0 0 0 21.960938 10.904297 z M 16.986328 15 A 1 1 0 0 0 16.726562 15.037109 A 1 1 0 0 0 16.126953 15.511719 A 1 1 0 0 0 16.511719 16.873047 L 20.271484 18.970703 A 1 1 0 0 0 21.630859 18.585938 A 1 1 0 0 0 21.246094 17.224609 L 17.488281 15.126953 A 1 1 0 0 0 16.986328 15 z M 15.275391 18.5625 A 1 1 0 0 0 15.017578 18.601562 A 1 1 0 0 0 14.333984 19.839844 L 15.039062 22.277344 A 1 1 0 0 0 16.277344 22.960938 A 1 1 0 0 0 16.960938 21.722656 L 16.255859 19.285156 A 1 1 0 0 0 15.275391 18.5625 z "/>
</svg>
