<svg xmlns="http://www.w3.org/2000/svg" xmlns:svg="http://www.w3.org/2000/svg" width="24" height="24" viewBox="0 0 24 24" fill="currentColor" tags="paint,color,graffiti,decoration,aerosol,deodorant,shaving foam,air freshener" categories="design,tools">
  <path d="M 3 2 A 1 1 0 0 0 2 3 A 1 1 0 0 0 3 4 L 3.0097656 4 A 1 1 0 0 0 4.0097656 3 A 1 1 0 0 0 3.0097656 2 L 3 2 z M 7 4 A 1 1 0 0 0 6 5 A 1 1 0 0 0 7 6 L 7.0097656 6 A 1 1 0 0 0 8.0097656 5 A 1 1 0 0 0 7.0097656 4 L 7 4 z M 15 4 A 1.0001 1.0001 0 0 0 14 5 L 14 8.5859375 L 12.292969 10.292969 A 1.0001 1.0001 0 0 0 12 11 L 12 13.966797 A 1 1 0 0 0 12 14.033203 L 12 18.966797 A 1 1 0 0 0 12 19.033203 L 12 21 C 12 21.522222 12.191329 22.05461 12.568359 22.431641 C 12.94539 22.808671 13.477778 23 14 23 L 20 23 C 20.522222 23 21.05461 22.808671 21.431641 22.431641 C 21.808671 22.05461 22 21.522222 22 21 L 22 17.033203 A 1 1 0 0 0 22 16.966797 L 22 12.033203 A 1 1 0 0 0 22 11.966797 L 22 11 A 1.0001 1.0001 0 0 0 21.707031 10.292969 L 20 8.5859375 L 20 5 A 1.0001 1.0001 0 0 0 19 4 L 15 4 z M 3 6 A 1 1 0 0 0 2 7 A 1 1 0 0 0 3 8 L 3.0097656 8 A 1 1 0 0 0 4.0097656 7 A 1 1 0 0 0 3.0097656 6 L 3 6 z M 11 6 A 1 1 0 0 0 10 7 A 1 1 0 0 0 11 8 L 11.009766 8 A 1 1 0 0 0 12.009766 7 A 1 1 0 0 0 11.009766 6 L 11 6 z M 16 6 L 18 6 L 18 8 L 16 8 L 16 6 z M 7 8 A 1 1 0 0 0 6 9 A 1 1 0 0 0 7 10 L 7.0097656 10 A 1 1 0 0 0 8.0097656 9 A 1 1 0 0 0 7.0097656 8 L 7 8 z M 3 10 A 1 1 0 0 0 2 11 A 1 1 0 0 0 3 12 L 3.0097656 12 A 1 1 0 0 0 4.0097656 11 A 1 1 0 0 0 3.0097656 10 L 3 10 z M 15.414062 10 L 18.585938 10 L 19.84375 11.257812 L 14 12.71875 L 14 11.414062 L 15.414062 10 z M 20 13.28125 L 20 16.21875 L 14 17.71875 L 14 14.78125 L 20 13.28125 z M 20 18.28125 L 20 21 L 14 21 L 14 19.78125 L 20 18.28125 z "/>
</svg>
