<?xml version="1.0" encoding="UTF-8" standalone="no"?>
<svg xmlns="http://www.w3.org/2000/svg" xmlns:svg="http://www.w3.org/2000/svg" width="24" height="24" viewBox="0 0 24 24" fill="currentColor" tags="leaf,nature,plant" categories="nature,gaming,sustainability">
  <path d="M 18.962891 3 C 16.052989 3.1077741 14.378156 4.1959293 13.357422 5.3300781 A 1.0001 1.0001 0 0 0 13.257812 5.4609375 C 12.438885 6.7408197 12.002073 8.2266129 11.996094 9.7421875 C 11.877604 9.9630225 11.780523 10.183739 11.699219 10.404297 C 11.280068 9.7069802 10.7599 9.0805312 10.087891 8.5917969 C 9.4315159 8.1144338 8.6096663 7.7379408 7.5800781 7.546875 C 6.5504899 7.3558092 5.3134539 7.3492995 3.8242188 7.6152344 A 1.0001 1.0001 0 0 0 3.0429688 8.890625 C 3.794843 11.361069 5.0475586 12.93151 6.5390625 13.683594 C 7.9986463 14.464554 9.6370353 14.497052 11.525391 14.167969 C 11.604681 14.659505 11.69356 15.119633 11.744141 15.533203 C 11.841311 16.327715 11.822921 16.941195 11.576172 17.460938 C 11.34255 17.953035 10.874268 18.469219 9.7753906 19 L 7 19 A 1 1 0 0 0 6 20 A 1 1 0 0 0 7 21 L 17 21 A 1 1 0 0 0 18 20 A 1 1 0 0 0 17 19 L 12.970703 19 C 13.133353 18.781182 13.271241 18.553371 13.382812 18.318359 C 13.870441 17.291227 13.845798 16.234004 13.730469 15.291016 C 13.523455 13.59837 13.101913 12.223828 13.632812 10.953125 C 15.409956 10.778542 16.842596 10.245846 17.923828 9.3808594 A 1.0001 1.0001 0 0 0 18.007812 9.3066406 C 19.172808 8.1416492 19.89317 6.5000531 20 4.0429688 A 1.0001 1.0001 0 0 0 18.962891 3 z M 17.775391 5.25 C 17.563119 6.3991091 17.219041 7.2404935 16.625 7.8457031 C 16.042043 8.3001456 15.179072 8.6009487 14.138672 8.7949219 C 14.266359 8.0297641 14.492694 7.2887867 14.904297 6.6230469 C 15.492824 5.9796262 16.394425 5.5142489 17.775391 5.25 z M 6.8417969 9.453125 C 6.9722397 9.4530272 7.0911953 9.460159 7.1933594 9.4785156 C 7.9387712 9.6124498 8.4684837 9.8863479 8.9121094 10.208984 C 9.4779518 10.620506 9.9344828 11.383535 10.337891 12.25 C 9.1803838 12.36447 8.2234871 12.32316 7.4746094 11.919922 A 1.0001 1.0001 0 0 0 7.4472656 11.90625 C 6.7738068 11.569521 6.1174566 10.731391 5.5390625 9.5371094 C 5.9595741 9.5183558 6.4504685 9.4534184 6.8417969 9.453125 z "/>
</svg>
