<svg xmlns="http://www.w3.org/2000/svg" xmlns:svg="http://www.w3.org/2000/svg" width="24" height="24" viewBox="0 0 24 24" fill="currentColor" tags="eco,green,growth,leaf,nature,plant,seed,spring,sustainability" categories="nature,gaming,sustainability">
  <path d="M 18 2 C 15.250421 2 13 4.2504209 13 7 L 13 9.109375 C 12.686113 9.3522089 12.398258 9.6273158 12.144531 9.9296875 C 10.976414 8.0232875 8.7721903 6.8863103 6.546875 7.0273438 C 5.4638255 7.095984 4.3766547 7.4670206 3.4003906 8.1992188 A 1 1 0 0 0 3.0371094 8.9628906 A 1 1 0 0 0 3 9 C 3 13.317937 7.4559401 16.045105 11.1875 14.589844 C 11.293111 15.044052 11.428056 15.44823 11.550781 15.816406 C 11.800781 16.566406 12 17.166667 12 18 C 12 18.70491 11.81266 19.394332 11.462891 20 L 5 20 A 1 1 0 0 0 4 21 A 1 1 0 0 0 5 22 L 11.966797 22 L 12.033203 22 L 19 22 A 1 1 0 0 0 20 21 A 1 1 0 0 0 19 20 L 13.65625 20 C 13.881763 19.36174 14 18.685756 14 18 C 14 16.833333 13.699219 15.933594 13.449219 15.183594 C 13.199292 14.433814 13.000117 13.832951 13 13 C 13 11.331301 14.331301 10 16 10 C 18.749579 10 21 7.7495791 21 5 L 21 3.5 C 21 2.6834175 20.316582 2 19.5 2 L 18 2 z M 18 4 L 19 4 L 19 5 C 19 6.6686989 17.668699 8 16 8 C 15.645936 8 15.333771 8.1322324 15 8.203125 L 15 7 C 15 5.3313011 16.331301 4 18 4 z M 7.1035156 8.9667969 C 8.9382152 9.0049028 10.53458 10.398174 10.835938 12.417969 C 8.4042325 13.731544 5.5719284 12.315685 5.1640625 9.5820312 C 5.6792918 9.303711 6.200454 9.018416 6.734375 8.9765625 C 6.8585001 8.9668325 6.9812023 8.9642565 7.1035156 8.9667969 z "/>
</svg>
