<?xml version="1.0" encoding="UTF-8" standalone="no"?>
<svg xmlns="http://www.w3.org/2000/svg" xmlns:svg="http://www.w3.org/2000/svg" width="24" height="24" viewBox="0 0 24 24" fill="currentColor" tags="pencil,change,create,draw,sketch,draft,writer,writing,biro,ink,marker,felt tip,stationery,artist" categories="text">
  <path d="M 19.722656 0.97070312 C 19.005357 1.0090241 18.260147 1.3257905 17.667969 1.9179688 L 8.65625 10.931641 C 8.3000804 11.287197 8.0382621 11.726101 7.8964844 12.208984 A 1.0001 1.0001 0 0 0 7.8964844 12.210938 L 7.0566406 15.083984 C 6.7399563 16.169759 7.830241 17.260044 8.9160156 16.943359 L 11.789062 16.103516 C 12.27233 15.962398 12.712213 15.701543 13.068359 15.345703 L 22.082031 6.3320312 C 22.758807 5.6552561 23.076746 4.7792905 23.029297 3.9726562 C 22.981848 3.1660219 22.614165 2.4501025 22.082031 1.9179688 C 21.549898 1.3858351 20.833978 1.0181523 20.027344 0.97070312 C 19.926514 0.96477197 19.825128 0.9652287 19.722656 0.97070312 z M 5 2 C 3.3549936 2 2 3.3549936 2 5 L 2 19 C 2 20.645006 3.3549936 22 5 22 L 19 22 C 20.645006 22 22 20.645006 22 19 L 22 12 A 1 1 0 0 0 21 11 A 1 1 0 0 0 20 12 L 20 19 C 20 19.564128 19.564128 20 19 20 L 5 20 C 4.4358718 20 4 19.564128 4 19 L 4 5 C 4 4.4358718 4.4358718 4 5 4 L 12 4 A 1 1 0 0 0 13 3 A 1 1 0 0 0 12 2 L 5 2 z M 19.910156 2.9667969 C 20.16602 2.9818479 20.450104 3.1141664 20.667969 3.3320312 C 20.885834 3.549896 21.018152 3.8339804 21.033203 4.0898438 C 21.048253 4.3457072 20.991192 4.5947465 20.667969 4.9179688 L 11.654297 13.931641 C 11.535543 14.050292 11.389656 14.136539 11.228516 14.183594 L 9.2324219 14.767578 L 9.8164062 12.773438 L 9.8164062 12.771484 C 9.8637892 12.611118 9.9500016 12.465811 10.068359 12.347656 A 1.0001 1.0001 0 0 0 10.068359 12.345703 L 19.082031 3.3320312 C 19.405254 3.0088089 19.654294 2.951746 19.910156 2.9667969 z "/>
</svg>
