<?xml version="1.0" encoding="UTF-8" standalone="no"?>
<svg xmlns="http://www.w3.org/2000/svg" xmlns:svg="http://www.w3.org/2000/svg" width="24" height="24" viewBox="0 0 24 24" fill="currentColor" tags="next,forward,direction,west,sign,keyboard,button,-&gt;" categories="arrows,navigation">
  <path d="M 5 2 C 3.3552972 2 2 3.3552972 2 5 L 2 19 C 2 20.644703 3.3552972 22 5 22 L 19 22 C 20.644703 22 22 20.644703 22 19 L 22 5 C 22 3.3552972 20.644703 2 19 2 L 5 2 z M 5 4 L 19 4 C 19.571297 4 20 4.4287028 20 5 L 20 19 C 20 19.571297 19.571297 20 19 20 L 5 20 C 4.4287028 20 4 19.571297 4 19 L 4 5 C 4 4.4287028 4.4287028 4 5 4 z M 12 7 A 1 1 0 0 0 11.292969 7.2929688 A 1 1 0 0 0 11.292969 8.7070312 L 13.585938 11 L 8 11 A 1 1 0 0 0 7 12 A 1 1 0 0 0 8 13 L 13.585938 13 L 11.292969 15.292969 A 1 1 0 0 0 11.292969 16.707031 A 1 1 0 0 0 12.707031 16.707031 L 16.707031 12.707031 A 1.0001 1.0001 0 0 0 16.859375 12.507812 A 1.0001 1.0001 0 0 0 16.865234 12.5 A 1 1 0 0 0 16.869141 12.490234 A 1.0001 1.0001 0 0 0 16.960938 12.271484 A 1 1 0 0 0 16.96875 12.242188 A 1.0001 1.0001 0 0 0 17 12 A 1 1 0 0 0 16.994141 11.902344 A 1.0001 1.0001 0 0 0 16.982422 11.816406 A 1 1 0 0 0 16.980469 11.804688 A 1.0001 1.0001 0 0 0 16.960938 11.726562 A 1.0001 1.0001 0 0 0 16.931641 11.640625 A 1.0001 1.0001 0 0 0 16.931641 11.638672 A 1.0001 1.0001 0 0 0 16.90625 11.582031 A 1.0001 1.0001 0 0 0 16.894531 11.554688 A 1 1 0 0 0 16.880859 11.529297 A 1.0001 1.0001 0 0 0 16.876953 11.521484 A 1 1 0 0 0 16.835938 11.453125 A 1 1 0 0 0 16.832031 11.445312 A 1.0001 1.0001 0 0 0 16.824219 11.435547 A 1 1 0 0 0 16.78125 11.376953 A 1 1 0 0 0 16.773438 11.365234 A 1.0001 1.0001 0 0 0 16.738281 11.326172 A 1 1 0 0 0 16.707031 11.292969 L 16.673828 11.261719 L 12.707031 7.2929688 A 1 1 0 0 0 12 7 z "/>
</svg>
