<?xml version="1.0" encoding="UTF-8" standalone="no"?>
<svg xmlns="http://www.w3.org/2000/svg" xmlns:svg="http://www.w3.org/2000/svg" width="24" height="24" viewBox="0 0 24 24" fill="currentColor" tags="square,pathfinder,path,exclude,invert,xor,shape,vector" categories="design">
  <path d="M 4 1 C 2.3549904 1 1 2.3549904 1 4 L 1 14 C 1 15.64501 2.3549904 17 4 17 A 1 1 0 0 0 5 16 A 1 1 0 0 0 4 15 C 3.4358706 15 3 14.564129 3 14 L 3 4 C 3 3.4358706 3.4358706 3 4 3 L 14 3 C 14.564129 3 15 3.4358706 15 4 L 15 7 L 10 7 C 8.3549904 7 7 8.3549904 7 10 L 7 12 A 1 1 0 0 0 8 13 A 1 1 0 0 0 9 12 L 9 10 C 9 9.4358706 9.4358706 9 10 9 L 15 9 C 16.092725 9 17 8.0927249 17 7 L 17 4 C 17 2.3549904 15.64501 1 14 1 L 4 1 z M 20 7 A 1 1 0 0 0 19 8 A 1 1 0 0 0 20 9 C 20.564129 9 21 9.4358706 21 10 L 21 20 C 21 20.564129 20.564129 21 20 21 L 10 21 C 9.4358706 21 9 20.564129 9 20 L 9 17 L 14 17 C 15.64501 17 17 15.64501 17 14 L 17 12 A 1 1 0 0 0 16 11 A 1 1 0 0 0 15 12 L 15 14 C 15 14.564129 14.564129 15 14 15 L 9 15 C 7.9072751 15 7 15.907275 7 17 L 7 20 C 7 21.64501 8.3549904 23 10 23 L 20 23 C 21.64501 23 23 21.64501 23 20 L 23 10 C 23 8.3549904 21.64501 7 20 7 z "/>
</svg>
