<?xml version="1.0" encoding="UTF-8" standalone="no"?>
<svg xmlns="http://www.w3.org/2000/svg" xmlns:svg="http://www.w3.org/2000/svg" width="24" height="24" viewBox="0 0 24 24" fill="currentColor" tags="parking lot,car park,no parking" categories="transportation,navigation">
  <path d="M 2 1 A 1 1 0 0 0 1.2929688 1.2929688 A 1 1 0 0 0 1.2929688 2.7070312 L 2.8867188 4.3007812 A 1 1 0 0 0 2.9003906 4.3144531 L 8.2832031 9.6972656 A 1 1 0 0 0 8.3027344 9.7167969 L 12.283203 13.697266 A 1 1 0 0 0 12.302734 13.716797 L 21.292969 22.707031 A 1 1 0 0 0 22.707031 22.707031 A 1 1 0 0 0 22.707031 21.292969 L 21.705078 20.291016 C 21.89607 19.893109 21.998105 19.453327 22 19.003906 A 1.0001 1.0001 0 0 0 22 19 L 22 5 C 22 3.3549904 20.64501 2 19 2 L 5 2 A 1.0001 1.0001 0 0 0 4.9863281 2 C 4.5419588 2.0063296 4.1091551 2.1116593 3.7167969 2.3027344 L 2.7070312 1.2929688 A 1 1 0 0 0 2 1 z M 5.4140625 4 L 19 4 C 19.564129 4 20 4.4358706 20 5 L 20 18.585938 L 14.951172 13.537109 C 15.35768 13.325303 15.711362 13.049082 15.998047 12.726562 C 16.681319 11.95788 17 10.972222 17 10 C 17 9.0277779 16.681319 8.0421194 15.998047 7.2734375 C 15.314774 6.5047556 14.25 6 13 6 L 9 6 A 1.0001 1.0001 0 0 0 8.0644531 6.6503906 L 5.4140625 4 z M 3 7.6992188 A 1 1 0 0 0 2 8.6992188 L 2 19 C 2 20.64501 3.3549904 22 5 22 L 15.300781 22 A 1 1 0 0 0 16.300781 21 A 1 1 0 0 0 15.300781 20 L 5 20 C 4.4358706 20 4 19.564129 4 19 L 4 8.6992188 A 1 1 0 0 0 3 7.6992188 z M 10 8 L 13 8 C 13.749999 8 14.185226 8.2452444 14.501953 8.6015625 C 14.81868 8.9578806 15 9.4722221 15 10 C 15 10.527778 14.81868 11.042119 14.501953 11.398438 C 14.244483 11.688091 13.90819 11.903829 13.388672 11.974609 L 10 8.5859375 L 10 8 z M 9 13.699219 A 1 1 0 0 0 8 14.699219 L 8 17 A 1 1 0 0 0 9 18 A 1 1 0 0 0 10 17 L 10 14.699219 A 1 1 0 0 0 9 13.699219 z "/>
</svg>
