<?xml version="1.0" encoding="UTF-8" standalone="no"?>
<svg xmlns="http://www.w3.org/2000/svg" xmlns:svg="http://www.w3.org/2000/svg" width="24" height="24" viewBox="0 0 24 24" fill="currentColor" tags="forward,direction,north,sign,keyboard,button" categories="arrows,navigation">
  <path d="M 5 2 C 3.3552972 2 2 3.3552972 2 5 L 2 19 C 2 20.644703 3.3552972 22 5 22 L 19 22 C 20.644703 22 22 20.644703 22 19 L 22 5 C 22 3.3552972 20.644703 2 19 2 L 5 2 z M 5 4 L 19 4 C 19.571297 4 20 4.4287028 20 5 L 20 19 C 20 19.571297 19.571297 20 19 20 L 5 20 C 4.4287028 20 4 19.571297 4 19 L 4 5 C 4 4.4287028 4.4287028 4 5 4 z M 12 7 A 1.0001 1.0001 0 0 0 11.794922 7.0234375 A 1 1 0 0 0 11.742188 7.0351562 A 1 1 0 0 0 11.617188 7.0761719 A 1 1 0 0 0 11.611328 7.078125 A 1.0001 1.0001 0 0 0 11.5 7.1347656 A 1 1 0 0 0 11.439453 7.1757812 A 1.0001 1.0001 0 0 0 11.384766 7.2128906 A 1 1 0 0 0 11.341797 7.25 A 1.0001 1.0001 0 0 0 11.292969 7.2929688 A 1 1 0 0 0 11.283203 7.3027344 L 7.2929688 11.292969 A 1 1 0 0 0 7.2929688 12.707031 A 1 1 0 0 0 8.7070312 12.707031 L 11 10.414062 L 11 16 A 1 1 0 0 0 12 17 A 1 1 0 0 0 13 16 L 13 10.414062 L 15.292969 12.707031 A 1 1 0 0 0 16.707031 12.707031 A 1 1 0 0 0 16.707031 11.292969 L 12.716797 7.3027344 A 1 1 0 0 0 12.658203 7.25 A 1.0001 1.0001 0 0 0 12.615234 7.2128906 A 1 1 0 0 0 12.560547 7.1757812 A 1.0001 1.0001 0 0 0 12.382812 7.0761719 A 1 1 0 0 0 12.257812 7.0351562 A 1.0001 1.0001 0 0 0 12.205078 7.0234375 A 1.0001 1.0001 0 0 0 12 7 z "/>
</svg>
