<svg xmlns="http://www.w3.org/2000/svg" xmlns:svg="http://www.w3.org/2000/svg" width="24" height="24" viewBox="0 0 24 24" fill="currentColor" tags="badge,medal,honour,decoration,order,pin,laurel,trophy,medallion,insignia,bronze,silver,gold" categories="sports,gaming">
  <path d="M 5 2 C 3.3552972 2 2 3.3552972 2 5 L 2 19 C 2 20.644703 3.3552972 22 5 22 L 19 22 C 20.644703 22 22 20.644703 22 19 L 22 5 C 22 3.3552972 20.644703 2 19 2 L 5 2 z M 5 4 L 19 4 C 19.571297 4 20 4.4287028 20 5 L 20 19 C 20 19.571297 19.571297 20 19 20 L 5 20 C 4.4287028 20 4 19.571297 4 19 L 4 5 C 4 4.4287028 4.4287028 4 5 4 z M 12.011719 6 C 11.25136 5.9904438 10.433849 6.4675148 10.119141 7.2832031 L 9.3925781 8.7128906 L 7.8203125 8.9589844 C 6.9437895 9.0006123 6.2323244 9.6298382 6.0039062 10.357422 C 5.7755791 11.084716 5.9986042 12.007666 6.6933594 12.542969 L 7.7929688 13.640625 L 7.546875 15.179688 C 7.3020242 16.022158 7.6671727 16.899484 8.28125 17.351562 C 8.8961239 17.804229 9.8460803 17.888573 10.578125 17.402344 L 11.982422 16.683594 L 13.394531 17.40625 C 14.12613 17.891703 15.072861 17.805832 15.6875 17.353516 C 16.304544 16.899441 16.669594 16.015803 16.417969 15.169922 L 16.173828 13.640625 L 16.173828 13.638672 L 17.298828 12.517578 C 17.97712 11.97292 18.183637 11.057889 17.949219 10.337891 C 17.715123 9.6189309 17.01182 9.0014241 16.144531 8.9589844 L 14.572266 8.7128906 L 13.869141 7.328125 C 13.574819 6.505554 12.771722 6.0095548 12.011719 6 z M 11.986328 8 A 1.0001 1.0001 0 0 0 12.052734 8.1660156 L 12.789062 9.6191406 C 13.079612 10.190963 13.62997 10.590346 14.263672 10.689453 L 15.896484 10.945312 A 1.0001 1.0001 0 0 0 16.048828 10.957031 A 1.0001 1.0001 0 0 0 15.933594 11.054688 L 14.761719 12.222656 C 14.307151 12.675223 14.098297 13.321625 14.199219 13.955078 L 14.457031 15.568359 A 1.0001 1.0001 0 0 0 14.501953 15.742188 A 1.0001 1.0001 0 0 0 14.359375 15.654297 L 12.894531 14.904297 C 12.323403 14.611667 11.643626 14.612294 11.072266 14.904297 L 11.070312 14.904297 L 9.6054688 15.654297 A 1.0001 1.0001 0 0 0 9.4667969 15.740234 A 1.0001 1.0001 0 0 0 9.5097656 15.568359 L 9.7675781 13.955078 C 9.8683966 13.322271 9.6586845 12.677108 9.2050781 12.224609 L 9.2050781 12.222656 L 8.0488281 11.070312 A 1.0001 1.0001 0 0 0 7.9121094 10.957031 A 1.0001 1.0001 0 0 0 8.0703125 10.945312 L 9.703125 10.689453 C 10.336827 10.590343 10.885231 10.190963 11.175781 9.6191406 L 11.925781 8.1425781 A 1.0001 1.0001 0 0 0 11.986328 8 z "/>
</svg>
