<?xml version="1.0" encoding="UTF-8" standalone="no"?>
<svg xmlns="http://www.w3.org/2000/svg" xmlns:svg="http://www.w3.org/2000/svg" width="24" height="24" viewBox="0 0 24 24" fill="currentColor" tags="border,radius,style,design,corner,layout,round,rounded" categories="design,development,layout">
  <path d="M 5 2 C 3.3549904 2 2 3.3549904 2 5 L 2 19 C 2 20.64501 3.3549904 22 5 22 L 19 22 C 20.64501 22 22 20.64501 22 19 L 22 15 A 1 1 0 0 0 21 14 A 1 1 0 0 0 20 15 L 20 19 C 20 19.564129 19.564129 20 19 20 L 5 20 C 4.4358706 20 4 19.564129 4 19 L 4 5 C 4 4.4358706 4.4358706 4 5 4 L 9 4 A 1 1 0 0 0 10 3 A 1 1 0 0 0 9 2 L 5 2 z M 13 2 A 1 1 0 0 0 12 3 A 1 1 0 0 0 13 4 C 16.877838 4 20 7.1221621 20 11 A 1 1 0 0 0 21 12 A 1 1 0 0 0 22 11 C 22 6.0412819 17.958718 2 13 2 z "/>
</svg>
