<svg xmlns="http://www.w3.org/2000/svg" xmlns:svg="http://www.w3.org/2000/svg" width="24" height="24" viewBox="0 0 24 24" fill="currentColor" tags="cut,snippet,chop,stationery,crafts" categories="text,design,tools,files,development">
  <path d="M 5 2 C 3.3549904 2 2 3.3549904 2 5 L 2 19 C 2 20.64501 3.3549904 22 5 22 A 1 1 0 0 0 6 21 A 1 1 0 0 0 5 20 C 4.4358728 20 4.0000033 19.564126 4 19 L 4 5 C 4 4.4358706 4.4358706 4 5 4 L 19 4 C 19.564129 4 20 4.4358706 20 5 L 20 19 C 20 19.564129 19.564129 20 19 20 A 1 1 0 0 0 18 21 A 1 1 0 0 0 19 22 C 20.64501 22 22 20.64501 22 19 L 22 5 C 22 3.3549904 20.64501 2 19 2 L 5 2 z M 8.5 6 C 7.1311328 6 6 7.1311328 6 8.5 C 6 9.8688672 7.1311328 11 8.5 11 C 8.8206202 11 9.1290534 10.938801 9.4121094 10.826172 L 10.585938 12 L 9.4121094 13.173828 C 9.1290534 13.061199 8.8206202 13 8.5 13 C 7.1311328 13 6 14.131133 6 15.5 C 6 16.868867 7.1311328 18 8.5 18 C 9.8688672 18 11 16.868867 11 15.5 C 11 15.17938 10.938801 14.870947 10.826172 14.587891 L 12.707031 12.707031 L 17.707031 7.7070312 A 1 1 0 0 0 17.707031 6.2929688 A 1 1 0 0 0 16.292969 6.2929688 L 12 10.585938 L 10.826172 9.4121094 C 10.938801 9.1290534 11 8.8206202 11 8.5 C 11 7.1311328 9.8688672 6 8.5 6 z M 8.5 8 C 8.787987 8 9 8.212013 9 8.5 C 9 8.6197561 8.9639317 8.7268481 8.9003906 8.8105469 A 1 1 0 0 0 8.8535156 8.8535156 A 1 1 0 0 0 8.8105469 8.9003906 C 8.7268399 8.9639572 8.6197821 9 8.5 9 C 8.212013 9 8 8.787987 8 8.5 C 8 8.212013 8.212013 8 8.5 8 z M 14.820312 13.820312 A 1 1 0 0 0 14.113281 14.113281 A 1 1 0 0 0 14.113281 15.527344 L 16.292969 17.707031 A 1 1 0 0 0 17.707031 17.707031 A 1 1 0 0 0 17.707031 16.292969 L 15.527344 14.113281 A 1 1 0 0 0 14.820312 13.820312 z M 8.5 15 C 8.6197826 15 8.7268397 15.036042 8.8105469 15.099609 A 1 1 0 0 0 8.8535156 15.146484 A 1 1 0 0 0 8.9003906 15.189453 C 8.9639577 15.27316 9 15.380217 9 15.5 C 9 15.787987 8.787987 16 8.5 16 C 8.212013 16 8 15.787987 8 15.5 C 8 15.212013 8.212013 15 8.5 15 z M 9 20 A 1 1 0 0 0 8 21 A 1 1 0 0 0 9 22 L 10 22 A 1 1 0 0 0 11 21 A 1 1 0 0 0 10 20 L 9 20 z M 14 20 A 1 1 0 0 0 13 21 A 1 1 0 0 0 14 22 L 15 22 A 1 1 0 0 0 16 21 A 1 1 0 0 0 15 20 L 14 20 z "/>
</svg>
