<?xml version="1.0" encoding="UTF-8" standalone="no"?>
<svg xmlns="http://www.w3.org/2000/svg" xmlns:svg="http://www.w3.org/2000/svg" width="24" height="24" viewBox="0 0 24 24" fill="currentColor" tags="pulse,action,motion,movement,exercise,fitness,healthcare,heart rate monitor,vital signs,vitals,emergency room,er,intensive care,hospital,defibrillator,earthquake,siesmic,magnitude,richter scale,aftershock,tremor,shockwave,audio,waveform,synthesizer,synthesiser,music" categories="medical,social,science,multimedia">
  <path d="M 5 2 C 3.3552972 2 2 3.3552972 2 5 L 2 19 C 2 20.644703 3.3552972 22 5 22 L 19 22 C 20.644703 22 22 20.644703 22 19 L 22 5 C 22 3.3552972 20.644703 2 19 2 L 5 2 z M 5 4 L 19 4 C 19.571297 4 20 4.4287028 20 5 L 20 19 C 20 19.571297 19.571297 20 19 20 L 5 20 C 4.4287028 20 4 19.571297 4 19 L 4 5 C 4 4.4287028 4.4287028 4 5 4 z M 10.962891 6 A 1.0001 1.0001 0 0 0 10.072266 6.6289062 L 8.3222656 11 L 7 11 A 1 1 0 0 0 6 12 A 1 1 0 0 0 7 13 L 9 13 A 1.0001 1.0001 0 0 0 9.9277344 12.371094 L 10.679688 10.492188 L 12.019531 17.195312 A 1.0001 1.0001 0 0 0 13.927734 17.371094 L 15.677734 13 L 17 13 A 1 1 0 0 0 18 12 A 1 1 0 0 0 17 11 L 15 11 A 1.0001 1.0001 0 0 0 14.072266 11.628906 L 13.320312 13.507812 L 11.980469 6.8046875 A 1.0001 1.0001 0 0 0 11.091797 6.0039062 A 1.0001 1.0001 0 0 0 10.962891 6 z "/>
</svg>
