<?xml version="1.0" encoding="UTF-8" standalone="no"?>
<svg xmlns="http://www.w3.org/2000/svg" xmlns:svg="http://www.w3.org/2000/svg" width="24" height="24" viewBox="0 0 24 24" fill="currentColor" tags="person,account,contact" categories="account">
  <path d="M 5 2 C 3.3552972 2 2 3.3552972 2 5 L 2 19 C 2 20.644703 3.3552972 22 5 22 L 6 22 L 18 22 L 19 22 C 20.644703 22 22 20.644703 22 19 L 22 5 C 22 3.3552972 20.644703 2 19 2 L 5 2 z M 5 4 L 19 4 C 19.571297 4 20 4.4287028 20 5 L 20 19 C 20 19.571297 19.571297 20 19 20 L 18.927734 20 C 18.601449 17.740292 17.188224 15.823011 15.238281 14.798828 C 16.314034 13.879824 17 12.516857 17 11 C 17 8.2504209 14.749579 6 12 6 C 9.2504209 6 7 8.2504209 7 11 C 7 12.516857 7.6859663 13.879824 8.7617188 14.798828 C 6.8117758 15.823011 5.3985515 17.740292 5.0722656 20 L 5 20 C 4.4287028 20 4 19.571297 4 19 L 4 5 C 4 4.4287028 4.4287028 4 5 4 z M 12 8 C 13.668699 8 15 9.3313011 15 11 C 15 12.668699 13.668699 14 12 14 C 10.331301 14 9 12.668699 9 11 C 9 9.3313011 10.331301 8 12 8 z M 12 16 C 14.430694 16 16.440693 17.710121 16.900391 20 L 7.0996094 20 C 7.5593072 17.710121 9.5693053 16 12 16 z "/>
</svg>
