<?xml version="1.0" encoding="UTF-8" standalone="no"?>
<svg xmlns="http://www.w3.org/2000/svg" xmlns:svg="http://www.w3.org/2000/svg" width="24" height="24" viewBox="0 0 24 24" fill="currentColor" tags="code,command line,prompt,shell" categories="development">
  <path d="M 5 2 C 3.3552972 2 2 3.3552972 2 5 L 2 19 C 2 20.644703 3.3552972 22 5 22 L 19 22 C 20.644703 22 22 20.644703 22 19 L 22 5 C 22 3.3552972 20.644703 2 19 2 L 5 2 z M 5 4 L 19 4 C 19.571297 4 20 4.4287028 20 5 L 20 19 C 20 19.571297 19.571297 20 19 20 L 5 20 C 4.4287028 20 4 19.571297 4 19 L 4 5 C 4 4.4287028 4.4287028 4 5 4 z M 7 6 A 1 1 0 0 0 6.2929688 6.2929688 A 1 1 0 0 0 6.2929688 7.7070312 L 7.5859375 9 L 6.2929688 10.292969 A 1 1 0 0 0 6.2929688 11.707031 A 1 1 0 0 0 7.7070312 11.707031 L 9.7070312 9.7070312 A 1.0001 1.0001 0 0 0 9.7070312 8.2929688 L 7.7070312 6.2929688 A 1 1 0 0 0 7 6 z M 11 12 A 1 1 0 0 0 10 13 A 1 1 0 0 0 11 14 L 15 14 A 1 1 0 0 0 16 13 A 1 1 0 0 0 15 12 L 11 12 z "/>
</svg>
