<?xml version="1.0" encoding="UTF-8" standalone="no"?>
<svg xmlns="http://www.w3.org/2000/svg" xmlns:svg="http://www.w3.org/2000/svg" width="24" height="24" viewBox="0 0 24 24" fill="currentColor" tags="direction,north-west,diagonal,sign,keyboard,button" categories="arrows,navigation">
  <path d="M 5 2 C 3.3552972 2 2 3.3552972 2 5 L 2 19 C 2 20.644703 3.3552972 22 5 22 L 19 22 C 20.644703 22 22 20.644703 22 19 L 22 5 C 22 3.3552972 20.644703 2 19 2 L 5 2 z M 5 4 L 19 4 C 19.571297 4 20 4.4287028 20 5 L 20 19 C 20 19.571297 19.571297 20 19 20 L 5 20 C 4.4287028 20 4 19.571297 4 19 L 4 5 C 4 4.4287028 4.4287028 4 5 4 z M 8 7 A 1.0001 1.0001 0 0 0 7.0761719 7.6171875 A 1.0001 1.0001 0 0 0 7.0078125 7.8691406 A 1.0001 1.0001 0 0 0 7 8 L 7 16 A 1 1 0 0 0 8 17 A 1 1 0 0 0 9 16 L 9 10.414062 L 15.292969 16.707031 A 1 1 0 0 0 16.707031 16.707031 A 1 1 0 0 0 16.707031 15.292969 L 10.414062 9 L 16 9 A 1 1 0 0 0 17 8 A 1 1 0 0 0 16 7 L 8 7 z "/>
</svg>
