<svg xmlns="http://www.w3.org/2000/svg" xmlns:svg="http://www.w3.org/2000/svg" width="24" height="24" viewBox="0 0 24 24" fill="currentColor" tags="outwards,direction,south-west,diagonal" categories="arrows">
  <path d="M 5 2 C 3.3549904 2 2 3.3549904 2 5 L 2 11 A 1 1 0 0 0 3 12 A 1 1 0 0 0 4 11 L 4 5 C 4 4.4358706 4.4358706 4 5 4 L 19 4 C 19.564129 4 20 4.4358706 20 5 L 20 19 C 20 19.564129 19.564129 20 19 20 L 13 20 A 1 1 0 0 0 12 21 A 1 1 0 0 0 13 22 L 19 22 C 20.64501 22 22 20.64501 22 19 L 22 5 C 22 3.3549904 20.64501 2 19 2 L 5 2 z M 12 11 A 1 1 0 0 0 11.292969 11.292969 L 4 18.585938 L 4 15 A 1 1 0 0 0 3 14 A 1 1 0 0 0 2 15 L 2 21 A 1 1 0 0 0 2.0078125 21.130859 A 1.0001 1.0001 0 0 0 2.0761719 21.382812 A 1 1 0 0 0 2.2929688 21.707031 A 1 1 0 0 0 2.6171875 21.923828 A 1.0001 1.0001 0 0 0 2.8691406 21.992188 A 1 1 0 0 0 3 22 L 9 22 A 1 1 0 0 0 10 21 A 1 1 0 0 0 9 20 L 5.4140625 20 L 12.707031 12.707031 A 1 1 0 0 0 12.707031 11.292969 A 1 1 0 0 0 12 11 z "/>
</svg>
