<?xml version="1.0" encoding="UTF-8" standalone="no"?>
<svg xmlns="http://www.w3.org/2000/svg" xmlns:svg="http://www.w3.org/2000/svg" width="24" height="24" viewBox="0 0 24 24" fill="currentColor" tags="gist,source,programming,html,xml,coding" categories="text,development">
  <path d="M 5 2 C 3.3552972 2 2 3.3552972 2 5 L 2 19 C 2 20.644703 3.3552972 22 5 22 L 19 22 C 20.644703 22 22 20.644703 22 19 L 22 5 C 22 3.3552972 20.644703 2 19 2 L 5 2 z M 5 4 L 19 4 C 19.571297 4 20 4.4287028 20 5 L 20 19 C 20 19.571297 19.571297 20 19 20 L 5 20 C 4.4287028 20 4 19.571297 4 19 L 4 5 C 4 4.4287028 4.4287028 4 5 4 z M 10.001953 8.5 A 1 1 0 0 0 9.21875 8.875 L 7.21875 11.375 A 1.0001 1.0001 0 0 0 7.21875 12.625 L 9.21875 15.125 A 1 1 0 0 0 10.625 15.28125 A 1 1 0 0 0 10.78125 13.875 L 9.28125 12 L 10.78125 10.125 A 1 1 0 0 0 10.625 8.71875 A 1 1 0 0 0 10.001953 8.5 z M 13.998047 8.5 A 1 1 0 0 0 13.375 8.71875 A 1 1 0 0 0 13.21875 10.125 L 14.71875 12 L 13.21875 13.875 A 1 1 0 0 0 13.375 15.28125 A 1 1 0 0 0 14.78125 15.125 L 16.78125 12.625 A 1.0001 1.0001 0 0 0 16.78125 11.375 L 14.78125 8.875 A 1 1 0 0 0 13.998047 8.5 z "/>
</svg>
