<?xml version="1.0" encoding="UTF-8" standalone="no"?>
<svg xmlns="http://www.w3.org/2000/svg" xmlns:svg="http://www.w3.org/2000/svg" width="24" height="24" viewBox="0 0 24 24" fill="currentColor" tags="programming,code,automation,math" categories="development,math">
  <path d="M 5 2 C 3.3552972 2 2 3.3552972 2 5 L 2 19 C 2 20.644703 3.3552972 22 5 22 L 19 22 C 20.644703 22 22 20.644703 22 19 L 22 5 C 22 3.3552972 20.644703 2 19 2 L 5 2 z M 5 4 L 19 4 C 19.571297 4 20 4.4287028 20 5 L 20 19 C 20 19.571297 19.571297 20 19 20 L 5 20 C 4.4287028 20 4 19.571297 4 19 L 4 5 C 4 4.4287028 4.4287028 4 5 4 z M 14.648438 5.9667969 C 13.530963 5.9187641 12.534451 6.248304 11.859375 6.9394531 C 11.08786 7.7293379 10.800781 8.8333333 10.800781 10 L 10.800781 10.199219 L 9 10.199219 A 1 1 0 0 0 8 11.199219 A 1 1 0 0 0 9 12.199219 L 10.800781 12.199219 L 10.800781 14.199219 C 10.800781 14.951071 10.638221 15.361587 10.423828 15.587891 C 10.209435 15.814194 9.8333333 16 9 16 A 1 1 0 0 0 8 17 A 1 1 0 0 0 9 18 C 10.166667 18 11.189393 17.686587 11.875 16.962891 C 12.560607 16.239194 12.800781 15.247367 12.800781 14.199219 L 12.800781 12.199219 L 14.699219 12.199219 A 1 1 0 0 0 15.699219 11.199219 A 1 1 0 0 0 14.699219 10.199219 L 12.800781 10.199219 L 12.800781 10 C 12.800781 9.1666667 13.012531 8.6210527 13.291016 8.3359375 C 13.5695 8.0508223 13.976933 7.8691024 14.865234 7.9902344 A 1 1 0 0 0 15.990234 7.1347656 A 1 1 0 0 0 15.134766 6.0097656 C 14.970803 5.9874071 14.808077 5.9736587 14.648438 5.9667969 z "/>
</svg>
