<?xml version="1.0" encoding="UTF-8" standalone="no"?>
<svg xmlns="http://www.w3.org/2000/svg" xmlns:svg="http://www.w3.org/2000/svg" width="24" height="24" viewBox="0 0 24 24" fill="currentColor" tags="forward,direction,north,sign,keyboard,button" categories="arrows,navigation,shapes">
  <path d="M 5 2 C 3.3553005 2 2 3.3553005 2 5 L 2 19 C 2 20.644699 3.3553005 22 5 22 L 19 22 C 20.644699 22 22 20.644699 22 19 L 22 5 C 22 3.3553005 20.644699 2 19 2 L 5 2 z M 5 4 L 19 4 C 19.571296 4 20 4.4287039 20 5 L 20 19 C 20 19.571296 19.571296 20 19 20 L 5 20 C 4.4287039 20 4 19.571296 4 19 L 4 5 C 4 4.4287039 4.4287039 4 5 4 z M 12 7 A 1 1 0 0 0 11.5 7.1347656 A 1.0001 1.0001 0 0 0 11.292969 7.2929688 L 7.2929688 11.292969 A 1 1 0 0 0 7.2929688 12.707031 A 1 1 0 0 0 8.7070312 12.707031 L 11 10.414062 L 11 16 A 1 1 0 0 0 12 17 A 1 1 0 0 0 13 16 L 13 10.414062 L 15.292969 12.707031 A 1 1 0 0 0 16.707031 12.707031 A 1 1 0 0 0 16.707031 11.292969 L 12.738281 7.3261719 A 1 1 0 0 0 12.699219 7.2871094 A 1 1 0 0 0 12.503906 7.1367188 A 1 1 0 0 0 12.496094 7.1328125 A 1 1 0 0 0 12.259766 7.0351562 A 1 1 0 0 0 12.257812 7.0351562 A 1.0001 1.0001 0 0 0 12.255859 7.0351562 A 1 1 0 0 0 12 7 z "/>
</svg>
