<?xml version="1.0" encoding="UTF-8" standalone="no"?>
<svg xmlns="http://www.w3.org/2000/svg" xmlns:svg="http://www.w3.org/2000/svg" width="24" height="24" viewBox="0 0 24 24" fill="currentColor" tags="rectangle,aspect ratio,1:1,shape,snippet,code,coding" categories="shapes,development,files">
  <path d="M 5 2 C 3.3549936 2 2 3.3549936 2 5 L 2 19 C 2 20.645006 3.3549936 22 5 22 A 1 1 0 0 0 6 21 A 1 1 0 0 0 5 20 C 4.4358718 20 4 19.564128 4 19 L 4 5 C 4 4.4358718 4.4358718 4 5 4 L 19 4 C 19.564128 4 20 4.4358718 20 5 L 20 19 C 20 19.564128 19.564128 20 19 20 A 1 1 0 0 0 18 21 A 1 1 0 0 0 19 22 C 20.645006 22 22 20.645006 22 19 L 22 5 C 22 3.3549936 20.645006 2 19 2 L 5 2 z M 10 9 A 1 1 0 0 0 9.2929688 9.2929688 L 7.2929688 11.292969 A 1.0001 1.0001 0 0 0 7.2929688 12.707031 L 9.2929688 14.707031 A 1 1 0 0 0 10.707031 14.707031 A 1 1 0 0 0 10.707031 13.292969 L 9.4140625 12 L 10.707031 10.707031 A 1 1 0 0 0 10.707031 9.2929688 A 1 1 0 0 0 10 9 z M 14 9 A 1 1 0 0 0 13.292969 9.2929688 A 1 1 0 0 0 13.292969 10.707031 L 14.585938 12 L 13.292969 13.292969 A 1 1 0 0 0 13.292969 14.707031 A 1 1 0 0 0 14.707031 14.707031 L 16.707031 12.707031 A 1.0001 1.0001 0 0 0 16.707031 11.292969 L 14.707031 9.2929688 A 1 1 0 0 0 14 9 z M 9 20 A 1 1 0 0 0 8 21 A 1 1 0 0 0 9 22 L 10 22 A 1 1 0 0 0 11 21 A 1 1 0 0 0 10 20 L 9 20 z M 14 20 A 1 1 0 0 0 13 21 A 1 1 0 0 0 14 22 L 15 22 A 1 1 0 0 0 16 21 A 1 1 0 0 0 15 20 L 14 20 z "/>
</svg>
