<svg xmlns="http://www.w3.org/2000/svg" xmlns:svg="http://www.w3.org/2000/svg" width="24" height="24" viewBox="0 0 24 24" fill="currentColor" tags="music,audio,stop" categories="multimedia">
  <path d="M 5 2 C 3.3552972 2 2 3.3552972 2 5 L 2 19 C 2 20.644703 3.3552972 22 5 22 L 19 22 C 20.644703 22 22 20.644703 22 19 L 22 5 C 22 3.3552972 20.644703 2 19 2 L 5 2 z M 5 4 L 19 4 C 19.571297 4 20 4.4287028 20 5 L 20 19 C 20 19.571297 19.571297 20 19 20 L 5 20 C 4.4287028 20 4 19.571297 4 19 L 4 5 C 4 4.4287028 4.4287028 4 5 4 z M 10 8 A 1 1 0 0 0 9 9 L 9 15 A 1 1 0 0 0 10 16 A 1 1 0 0 0 11 15 L 11 9 A 1 1 0 0 0 10 8 z M 14 8 A 1 1 0 0 0 13 9 L 13 15 A 1 1 0 0 0 14 16 A 1 1 0 0 0 15 15 L 15 9 A 1 1 0 0 0 14 8 z "/>
</svg>
