<svg xmlns="http://www.w3.org/2000/svg" xmlns:svg="http://www.w3.org/2000/svg" width="24" height="24" viewBox="0 0 24 24" fill="currentColor" tags="square,pathfinder,path,unite,union,shape,merge,vector" categories="design">
  <path d="M 4 1 C 2.3549904 1 1 2.3549904 1 4 L 1 14 C 1 15.64501 2.3549904 17 4 17 L 7 17 L 7 20 C 7 21.64501 8.3549904 23 10 23 L 20 23 C 21.64501 23 23 21.64501 23 20 L 23 10 C 23 8.3549904 21.64501 7 20 7 L 17 7 L 17 4 C 17 2.3549904 15.64501 1 14 1 L 4 1 z M 4 3 L 14 3 C 14.564129 3 15 3.4358706 15 4 L 15 7 C 15 8.0927249 15.907275 9 17 9 L 20 9 C 20.564129 9 21 9.4358706 21 10 L 21 20 C 21 20.564129 20.564129 21 20 21 L 10 21 C 9.4358706 21 9 20.564129 9 20 L 9 17 C 9 15.907275 8.0927249 15 7 15 L 4 15 C 3.4358706 15 3 14.564129 3 14 L 3 4 C 3 3.4358706 3.4358706 3 4 3 z "/>
</svg>
