<?xml version="1.0" encoding="UTF-8" standalone="no"?>
<svg xmlns="http://www.w3.org/2000/svg" xmlns:svg="http://www.w3.org/2000/svg" width="24" height="24" viewBox="0 0 24 24" fill="currentColor" tags="sqaure,pathfinder,path,minus,subtract,subtraction,shape,front,vector" categories="design">
  <path d="M 4 1 C 2.3549904 1 1 2.3549904 1 4 L 1 14 C 1 15.64501 2.3549904 17 4 17 L 7 17 C 8.0927249 17 9 16.092725 9 15 L 9 10 C 9 9.4358706 9.4358706 9 10 9 L 15 9 C 16.092725 9 17 8.0927249 17 7 L 17 4 C 17 2.3549904 15.64501 1 14 1 L 4 1 z M 4 3 L 14 3 C 14.564129 3 15 3.4358706 15 4 L 15 7 L 10 7 C 8.3549904 7 7 8.3549904 7 10 L 7 15 L 4 15 C 3.4358706 15 3 14.564129 3 14 L 3 4 C 3 3.4358706 3.4358706 3 4 3 z M 20 7 A 1 1 0 0 0 19 8 A 1 1 0 0 0 20 9 C 20.564129 9 21 9.4358706 21 10 A 1 1 0 0 0 22 11 A 1 1 0 0 0 23 10 C 23 8.3549904 21.64501 7 20 7 z M 22 13 A 1 1 0 0 0 21 14 L 21 16 A 1 1 0 0 0 22 17 A 1 1 0 0 0 23 16 L 23 14 A 1 1 0 0 0 22 13 z M 8 19 A 1 1 0 0 0 7 20 C 7 21.64501 8.3549904 23 10 23 A 1 1 0 0 0 11 22 A 1 1 0 0 0 10 21 C 9.4358706 21 9 20.564129 9 20 A 1 1 0 0 0 8 19 z M 22 19 A 1 1 0 0 0 21 20 C 21 20.564129 20.564129 21 20 21 A 1 1 0 0 0 19 22 A 1 1 0 0 0 20 23 C 21.64501 23 23 21.64501 23 20 A 1 1 0 0 0 22 19 z M 14 21 A 1 1 0 0 0 13 22 A 1 1 0 0 0 14 23 L 16 23 A 1 1 0 0 0 17 22 A 1 1 0 0 0 16 21 L 14 21 z "/>
</svg>
