<svg xmlns="http://www.w3.org/2000/svg" xmlns:svg="http://www.w3.org/2000/svg" width="24" height="24" viewBox="0 0 24 24" fill="currentColor" tags="books,reading,written,authors,stories,fiction,novels,information,knowledge,education,high school,university,college,academy,learning,study,research,collection,vinyl,records,albums,music,package" categories="text,photography,multimedia,navigation,development">
  <path d="M 5 2 C 3.3552972 2 2 3.3552972 2 5 L 2 19 C 2 20.644703 3.3552972 22 5 22 L 19 22 C 20.644703 22 22 20.644703 22 19 L 22 5 C 22 3.3552972 20.644703 2 19 2 L 5 2 z M 5 4 L 19 4 C 19.571297 4 20 4.4287028 20 5 L 20 19 C 20 19.571297 19.571297 20 19 20 L 5 20 C 4.4287028 20 4 19.571297 4 19 L 4 5 C 4 4.4287028 4.4287028 4 5 4 z M 7 6 A 1 1 0 0 0 6 7 L 6 17 A 1 1 0 0 0 7 18 A 1 1 0 0 0 8 17 L 8 7 A 1 1 0 0 0 7 6 z M 11 6 A 1 1 0 0 0 10 7 L 10 17 A 1 1 0 0 0 11 18 A 1 1 0 0 0 12 17 L 12 7 A 1 1 0 0 0 11 6 z M 14.933594 6.0019531 A 1 1 0 0 0 14.804688 6.0195312 A 1 1 0 0 0 14.019531 7.1953125 L 16.019531 17.195312 A 1 1 0 0 0 17.195312 17.980469 A 1 1 0 0 0 17.980469 16.804688 L 15.980469 6.8046875 A 1 1 0 0 0 14.933594 6.0019531 z "/>
</svg>
