<?xml version="1.0" encoding="UTF-8" standalone="no"?>
<svg xmlns="http://www.w3.org/2000/svg" xmlns:svg="http://www.w3.org/2000/svg" width="24" height="24" viewBox="0 0 24 24" fill="currentColor" tags="done,todo,tick,complete,task" categories="notifications">
  <path d="M 5 2 C 3.3549904 2 2 3.3549904 2 5 L 2 19 C 2 20.64501 3.3549904 22 5 22 L 19 22 C 20.64501 22 22 20.64501 22 19 L 22 10.5 A 1 1 0 0 0 21 9.5 A 1 1 0 0 0 20 10.5 L 20 19 C 20 19.564129 19.564129 20 19 20 L 5 20 C 4.4358706 20 4 19.564129 4 19 L 4 5 C 4 4.4358706 4.4358706 4 5 4 L 17.5 4 A 1 1 0 0 0 18.5 3 A 1 1 0 0 0 17.5 2 L 5 2 z M 21.84375 3.0117188 A 1 1 0 0 0 21.292969 3.2929688 L 12 12.585938 L 9.7070312 10.292969 A 1 1 0 0 0 8.2929688 10.292969 A 1 1 0 0 0 8.2929688 11.707031 L 11.292969 14.707031 A 1.0001 1.0001 0 0 0 12.707031 14.707031 L 22.707031 4.7070312 A 1 1 0 0 0 22.707031 3.2929688 A 1 1 0 0 0 21.84375 3.0117188 z "/>
</svg>
