<svg xmlns="http://www.w3.org/2000/svg" xmlns:svg="http://www.w3.org/2000/svg" width="24" height="24" viewBox="0 0 24 24" fill="currentColor" tags="projects,manage,overview,board,tickets,issues,roadmap,plan,intentions,productivity,work,agile,draft,template,boilerplate,code,coding" categories="charts,development,design">
  <path d="M 5 2 C 3.3549904 2 2 3.3549904 2 5 A 1 1 0 0 0 3 6 A 1 1 0 0 0 4 5 C 4 4.4358706 4.4358706 4 5 4 A 1 1 0 0 0 6 3 A 1 1 0 0 0 5 2 z M 9 2 A 1 1 0 0 0 8 3 A 1 1 0 0 0 9 4 L 10 4 A 1 1 0 0 0 11 3 A 1 1 0 0 0 10 2 L 9 2 z M 14 2 A 1 1 0 0 0 13 3 A 1 1 0 0 0 14 4 L 15 4 A 1 1 0 0 0 16 3 A 1 1 0 0 0 15 2 L 14 2 z M 19 2 A 1 1 0 0 0 18 3 A 1 1 0 0 0 19 4 C 19.564129 4 20 4.4358706 20 5 A 1 1 0 0 0 21 6 A 1 1 0 0 0 22 5 C 22 3.3549904 20.64501 2 19 2 z M 8 6 A 1 1 0 0 0 7 7 L 7 14 A 1 1 0 0 0 8 15 A 1 1 0 0 0 9 14 L 9 7 A 1 1 0 0 0 8 6 z M 12 6 A 1 1 0 0 0 11 7 L 11 11 A 1 1 0 0 0 12 12 A 1 1 0 0 0 13 11 L 13 7 A 1 1 0 0 0 12 6 z M 16 6 A 1 1 0 0 0 15 7 L 15 16 A 1 1 0 0 0 16 17 A 1 1 0 0 0 17 16 L 17 7 A 1 1 0 0 0 16 6 z M 3 8 A 1 1 0 0 0 2 9 L 2 10 A 1 1 0 0 0 3 11 A 1 1 0 0 0 4 10 L 4 9 A 1 1 0 0 0 3 8 z M 21 8 A 1 1 0 0 0 20 9 L 20 10 A 1 1 0 0 0 21 11 A 1 1 0 0 0 22 10 L 22 9 A 1 1 0 0 0 21 8 z M 3 13 A 1 1 0 0 0 2 14 L 2 15 A 1 1 0 0 0 3 16 A 1 1 0 0 0 4 15 L 4 14 A 1 1 0 0 0 3 13 z M 21 13 A 1 1 0 0 0 20 14 L 20 15 A 1 1 0 0 0 21 16 A 1 1 0 0 0 22 15 L 22 14 A 1 1 0 0 0 21 13 z M 3 18 A 1 1 0 0 0 2 19 C 2 20.64501 3.3549904 22 5 22 A 1 1 0 0 0 6 21 A 1 1 0 0 0 5 20 C 4.4358706 20 4 19.564129 4 19 A 1 1 0 0 0 3 18 z M 21 18 A 1 1 0 0 0 20 19 C 20 19.564129 19.564129 20 19 20 A 1 1 0 0 0 18 21 A 1 1 0 0 0 19 22 C 20.64501 22 22 20.64501 22 19 A 1 1 0 0 0 21 18 z M 9 20 A 1 1 0 0 0 8 21 A 1 1 0 0 0 9 22 L 10 22 A 1 1 0 0 0 11 21 A 1 1 0 0 0 10 20 L 9 20 z M 14 20 A 1 1 0 0 0 13 21 A 1 1 0 0 0 14 22 L 15 22 A 1 1 0 0 0 16 21 A 1 1 0 0 0 15 20 L 14 20 z "/>
</svg>
