<?xml version="1.0" encoding="UTF-8" standalone="no"?>
<svg xmlns="http://www.w3.org/2000/svg" xmlns:svg="http://www.w3.org/2000/svg" width="24" height="24" viewBox="0 0 24 24" fill="currentColor" tags="media,music" categories="multimedia">
  <path d="M 5 2 C 3.3552972 2 2 3.3552972 2 5 L 2 19 C 2 20.644703 3.3552972 22 5 22 L 19 22 C 20.644703 22 22 20.644703 22 19 L 22 5 C 22 3.3552972 20.644703 2 19 2 L 5 2 z M 5 4 L 19 4 C 19.571297 4 20 4.4287028 20 5 L 20 19 C 20 19.571297 19.571297 20 19 20 L 5 20 C 4.4287028 20 4 19.571297 4 19 L 4 5 C 4 4.4287028 4.4287028 4 5 4 z M 10 8 C 8.9092972 8 8 8.9092972 8 10 L 8 14 C 8 15.090703 8.9092972 16 10 16 L 14 16 C 15.090703 16 16 15.090703 16 14 L 16 10 C 16 8.9092972 15.090703 8 14 8 L 10 8 z M 10 10 L 14 10 L 14 14 L 10 14 L 10 10 z "/>
</svg>
