<?xml version="1.0" encoding="UTF-8" standalone="no"?>
<svg xmlns="http://www.w3.org/2000/svg" xmlns:svg="http://www.w3.org/2000/svg" width="24" height="24" viewBox="0 0 24 24" fill="currentColor" tags="cut,snippet,chop,stationery,crafts" categories="text,design,tools,files,development">
  <path d="M 4 1 C 2.3549904 1 1 2.3549904 1 4 L 1 20 C 1 21.64501 2.3549904 23 4 23 A 1 1 0 0 0 5 22 A 1 1 0 0 0 4 21 C 3.4358706 21 3 20.564129 3 20 L 3 4 C 3 3.4358706 3.4358706 3 4 3 L 20 3 C 20.564129 3 21 3.4358706 21 4 L 21 20 C 21 20.564129 20.564129 21 20 21 A 1 1 0 0 0 19 22 A 1 1 0 0 0 20 23 C 21.64501 23 23 21.64501 23 20 L 23 4 C 23 2.3549904 21.64501 1 20 1 L 4 1 z M 8 5 C 6.3549904 5 5 6.3549904 5 8 C 5 9.6450096 6.3549904 11 8 11 C 8.4604959 11 8.8973825 10.892127 9.2890625 10.703125 L 10.585938 12 L 9.2890625 13.296875 C 8.8973825 13.107873 8.4604959 13 8 13 C 6.3549904 13 5 14.35499 5 16 C 5 17.64501 6.3549904 19 8 19 C 9.6450096 19 11 17.64501 11 16 C 11 15.539504 10.892127 15.102618 10.703125 14.710938 L 12.707031 12.707031 L 18.707031 6.7070312 A 1 1 0 0 0 18.707031 5.2929688 A 1 1 0 0 0 17.292969 5.2929688 L 12 10.585938 L 10.703125 9.2890625 C 10.892127 8.8973825 11 8.4604959 11 8 C 11 6.3549904 9.6450096 5 8 5 z M 8 7 C 8.5641294 7 9 7.4358706 9 8 C 9 8.2677397 8.8998038 8.5045675 8.7363281 8.6816406 A 1 1 0 0 0 8.7070312 8.7070312 A 1 1 0 0 0 8.6855469 8.734375 C 8.5081687 8.8995588 8.269292 9 8 9 C 7.4358706 9 7 8.5641294 7 8 C 7 7.4358706 7.4358706 7 8 7 z M 14.800781 13.800781 A 1 1 0 0 0 14.09375 14.09375 A 1 1 0 0 0 14.09375 15.507812 L 17.292969 18.707031 A 1 1 0 0 0 18.707031 18.707031 A 1 1 0 0 0 18.707031 17.292969 L 15.507812 14.09375 A 1 1 0 0 0 14.800781 13.800781 z M 8 15 C 8.2723521 15 8.5134577 15.102914 8.6914062 15.271484 A 1 1 0 0 0 8.7070312 15.292969 A 1 1 0 0 0 8.7285156 15.308594 C 8.897086 15.486542 9 15.727648 9 16 C 9 16.564129 8.5641294 17 8 17 C 7.4358706 17 7 16.564129 7 16 C 7 15.435871 7.4358706 15 8 15 z M 8 21 A 1 1 0 0 0 7 22 A 1 1 0 0 0 8 23 L 10 23 A 1 1 0 0 0 11 22 A 1 1 0 0 0 10 21 L 8 21 z M 14 21 A 1 1 0 0 0 13 22 A 1 1 0 0 0 14 23 L 16 23 A 1 1 0 0 0 17 22 A 1 1 0 0 0 16 21 L 14 21 z "/>
</svg>
