<?xml version="1.0" encoding="UTF-8" standalone="no"?>
<svg xmlns="http://www.w3.org/2000/svg" xmlns:svg="http://www.w3.org/2000/svg" width="24" height="24" viewBox="0 0 24 24" fill="currentColor" tags="cut,snippet,chop,stationery,crafts,toolbar,button" categories="text,design,tools,files,development">
  <path d="M 4 1 C 2.3552972 1 1 2.3552972 1 4 L 1 20 C 1 21.644703 2.3552972 23 4 23 L 20 23 C 21.644703 23 23 21.644703 23 20 L 23 4 C 23 2.3552972 21.644703 1 20 1 L 4 1 z M 4 3 L 20 3 C 20.571297 3 21 3.4287028 21 4 L 21 20 C 21 20.571297 20.571297 21 20 21 L 4 21 C 3.4287028 21 3 20.571297 3 20 L 3 4 C 3 3.4287028 3.4287028 3 4 3 z M 8 5 C 6.3549904 5 5 6.3549904 5 8 C 5 9.6450096 6.3549904 11 8 11 C 8.4607097 11 8.8991966 10.894245 9.2910156 10.705078 L 10.585938 12 L 9.2910156 13.294922 C 8.8991967 13.105755 8.4607096 13 8 13 C 6.3549904 13 5 14.35499 5 16 C 5 17.64501 6.3549904 19 8 19 C 9.6450096 19 11 17.64501 11 16 C 11 15.53929 10.894245 15.100803 10.705078 14.708984 L 12.707031 12.707031 L 18.707031 6.7070312 A 1 1 0 0 0 18.707031 5.2929688 A 1 1 0 0 0 17.292969 5.2929688 L 12 10.585938 L 10.705078 9.2910156 C 10.894245 8.8991966 11 8.4607097 11 8 C 11 6.3549904 9.6450096 5 8 5 z M 8 7 C 8.5641294 7 9 7.4358706 9 8 C 9 8.2526725 8.9128672 8.4787721 8.765625 8.6523438 A 1 1 0 0 0 8.7070312 8.7070312 A 1 1 0 0 0 8.6523438 8.765625 C 8.4787618 8.9129084 8.2527115 9 8 9 C 7.4358706 9 7 8.5641294 7 8 C 7 7.4358706 7.4358706 7 8 7 z M 14.800781 13.800781 A 1 1 0 0 0 14.09375 14.09375 A 1 1 0 0 0 14.09375 15.507812 L 17.292969 18.707031 A 1 1 0 0 0 18.707031 18.707031 A 1 1 0 0 0 18.707031 17.292969 L 15.507812 14.09375 A 1 1 0 0 0 14.800781 13.800781 z M 8 15 C 8.2527112 15 8.4787619 15.087092 8.6523438 15.234375 A 1 1 0 0 0 8.7070312 15.292969 A 1 1 0 0 0 8.765625 15.347656 C 8.9129082 15.521238 9 15.747289 9 16 C 9 16.564129 8.5641294 17 8 17 C 7.4358706 17 7 16.564129 7 16 C 7 15.435871 7.4358706 15 8 15 z "/>
</svg>
