<?xml version="1.0" encoding="UTF-8" standalone="no"?>
<svg xmlns="http://www.w3.org/2000/svg" xmlns:svg="http://www.w3.org/2000/svg" width="24" height="24" viewBox="0 0 24 24" fill="currentColor" tags="music,audio,video,start,run" categories="arrows,multimedia">
  <path d="M 5 2 C 3.3552972 2 2 3.3552972 2 5 L 2 19 C 2 20.644703 3.3552972 22 5 22 L 19 22 C 20.644703 22 22 20.644703 22 19 L 22 5 C 22 3.3552972 20.644703 2 19 2 L 5 2 z M 5 4 L 19 4 C 19.571297 4 20 4.4287028 20 5 L 20 19 C 20 19.571297 19.571297 20 19 20 L 5 20 C 4.4287028 20 4 19.571297 4 19 L 4 5 C 4 4.4287028 4.4287028 4 5 4 z M 9.046875 7.0019531 A 1.0001 1.0001 0 0 0 8.5273438 7.1191406 A 1.0001 1.0001 0 0 0 8 8 L 8 16 A 1.0001 1.0001 0 0 0 9.5546875 16.832031 L 15.554688 12.832031 A 1.0001 1.0001 0 0 0 15.554688 11.167969 L 9.5546875 7.1679688 A 1.0001 1.0001 0 0 0 9.046875 7.0019531 z M 10 9.8691406 L 13.197266 12 L 10 14.130859 L 10 9.8691406 z "/>
</svg>
