<svg xmlns="http://www.w3.org/2000/svg" xmlns:svg="http://www.w3.org/2000/svg" width="24" height="24" viewBox="0 0 24 24" fill="currentColor" tags="metro,subway,underground,track,line" categories="transportation,navigation">
  <path d="M 5 2 C 3.3552972 2 2 3.3552972 2 5 L 2 19 C 2 20.644703 3.3552972 22 5 22 L 19 22 C 20.644703 22 22 20.644703 22 19 L 22 5 C 22 3.3552972 20.644703 2 19 2 L 5 2 z M 5 4 L 19 4 C 19.571297 4 20 4.4287028 20 5 L 20 19 C 20 19.571297 19.571297 20 19 20 L 5 20 C 4.4287028 20 4 19.571297 4 19 L 4 5 C 4 4.4287028 4.4287028 4 5 4 z M 8.4628906 7.0058594 C 8.3113025 7.0069308 8.1630954 7.0302703 8.0253906 7.0761719 C 7.4745717 7.2597782 7 7.8354053 7 8.5 L 7 16 A 1 1 0 0 0 8 17 A 1 1 0 0 0 9 16 L 9 10 L 10.800781 12.398438 C 11.384781 13.177103 12.615219 13.177103 13.199219 12.398438 L 15 9.9980469 L 15 16 A 1 1 0 0 0 16 17 A 1 1 0 0 0 17 16 L 17 8.4980469 C 17 7.8334521 16.525428 7.2597782 15.974609 7.0761719 C 15.6992 6.9843687 15.379967 6.9811118 15.080078 7.0683594 C 14.78019 7.1556074 14.50016 7.3337715 14.300781 7.5996094 L 12 10.666016 L 9.6992188 7.5996094 C 9.4001511 7.2008525 8.9176551 7.002645 8.4628906 7.0058594 z "/>
</svg>
