<?xml version="1.0" encoding="UTF-8" standalone="no"?>
<svg xmlns="http://www.w3.org/2000/svg" xmlns:svg="http://www.w3.org/2000/svg" width="24" height="24" viewBox="0 0 24 24" fill="currentColor" tags="inspector,element,mouse,click,pointer,box,browser,selector,target,dom,node" categories="arrows,cursors,development,tools">
  <path d="M 5 2 C 3.3549936 2 2 3.3549936 2 5 L 2 19 C 2 20.645006 3.3549936 22 5 22 L 11 22 A 1 1 0 0 0 12 21 A 1 1 0 0 0 11 20 L 5 20 C 4.4358718 20 4 19.564128 4 19 L 4 5 C 4 4.4358718 4.4358718 4 5 4 L 19 4 C 19.564128 4 20 4.4358718 20 5 L 20 11 A 1 1 0 0 0 21 12 A 1 1 0 0 0 22 11 L 22 5 C 22 3.3549936 20.645006 2 19 2 L 5 2 z M 12.611328 11.005859 C 12.463376 10.996117 12.315572 11.009335 12.173828 11.041016 C 11.89034 11.104376 11.630666 11.244334 11.4375 11.4375 C 11.051167 11.823833 10.87683 12.477186 11.105469 13.050781 L 14.601562 22.042969 A 1.0001 1.0001 0 0 0 14.603516 22.044922 C 14.842262 22.655923 15.478638 23.018137 16.052734 22.998047 C 16.626832 22.977957 17.236188 22.571509 17.431641 21.945312 A 1.0001 1.0001 0 0 0 17.431641 21.943359 L 18.5 18.501953 A 1.0001 1.0001 0 0 0 18.5 18.5 L 21.943359 17.431641 A 1.0001 1.0001 0 0 0 21.945312 17.431641 C 22.571509 17.236188 22.977956 16.626832 22.998047 16.052734 C 23.018137 15.478638 22.655923 14.842262 22.044922 14.603516 A 1.0001 1.0001 0 0 0 22.042969 14.601562 L 13.050781 11.105469 C 12.907382 11.048309 12.75928 11.015602 12.611328 11.005859 z M 13.378906 13.378906 L 19.980469 15.947266 L 17.908203 16.589844 C 17.278307 16.784592 16.782638 17.28026 16.587891 17.910156 L 15.945312 19.980469 L 13.378906 13.378906 z "/>
</svg>
