<?xml version="1.0" encoding="UTF-8" standalone="no"?>
<svg xmlns="http://www.w3.org/2000/svg" xmlns:svg="http://www.w3.org/2000/svg" width="24" height="24" viewBox="0 0 24 24" fill="currentColor" tags="pencil,change,create,draw,sketch,draft,writer,writing,biro,ink,marker,felt tip,stationery,artist" categories="text">
  <path d="M 19.722656 0.97070312 C 19.005356 1.009024 18.260148 1.3257893 17.667969 1.9179688 L 8.65625 10.931641 C 8.3000797 11.287199 8.0382625 11.7261 7.8964844 12.208984 A 1.0001 1.0001 0 0 0 7.8964844 12.210938 L 7.0566406 15.083984 C 6.7399557 16.169761 7.8302388 17.260044 8.9160156 16.943359 L 11.789062 16.103516 C 12.272331 15.962397 12.712212 15.701543 13.068359 15.345703 L 22.082031 6.3320312 C 22.758808 5.6552548 23.076746 4.7792921 23.029297 3.9726562 C 22.981848 3.1660202 22.614166 2.4501035 22.082031 1.9179688 C 21.549896 1.385834 20.83398 1.0181525 20.027344 0.97070312 C 19.926514 0.96477196 19.825128 0.96522872 19.722656 0.97070312 z M 5 2 C 3.3549904 2 2 3.3549904 2 5 L 2 19 C 2 20.64501 3.3549904 22 5 22 L 19 22 C 20.64501 22 22 20.64501 22 19 L 22 12 A 1 1 0 0 0 21 11 A 1 1 0 0 0 20 12 L 20 19 C 20 19.564129 19.564129 20 19 20 L 5 20 C 4.4358706 20 4 19.564129 4 19 L 4 5 C 4 4.4358706 4.4358706 4 5 4 L 12 4 A 1 1 0 0 0 13 3 A 1 1 0 0 0 12 2 L 5 2 z M 19.814453 2.9648438 C 19.846381 2.9640926 19.878173 2.9649155 19.910156 2.9667969 C 20.16602 2.9818479 20.450104 3.114166 20.667969 3.3320312 C 20.885834 3.5498964 21.018152 3.83398 21.033203 4.0898438 C 21.048253 4.3457076 20.991193 4.5947457 20.667969 4.9179688 L 11.654297 13.931641 C 11.535542 14.050293 11.389658 14.136539 11.228516 14.183594 L 9.2324219 14.767578 L 9.8164062 12.773438 L 9.8164062 12.771484 C 9.863789 12.611163 9.9500014 12.465811 10.068359 12.347656 A 1.0001 1.0001 0 0 0 10.068359 12.345703 L 19.082031 3.3320312 C 19.364851 3.049211 19.590958 2.970102 19.814453 2.9648438 z "/>
</svg>
