<svg xmlns="http://www.w3.org/2000/svg" xmlns:svg="http://www.w3.org/2000/svg" width="24" height="24" viewBox="0 0 24 24" fill="currentColor" tags="outwards,direction,north-west,diagonal" categories="arrows">
  <path d="M 3 2 A 1 1 0 0 0 2.8691406 2.0078125 A 1.0001 1.0001 0 0 0 2.6171875 2.0761719 A 1 1 0 0 0 2.2929688 2.2929688 A 1 1 0 0 0 2.0761719 2.6171875 A 1.0001 1.0001 0 0 0 2.0078125 2.8691406 A 1 1 0 0 0 2 3 L 2 9 A 1 1 0 0 0 3 10 A 1 1 0 0 0 4 9 L 4 5.4140625 L 11.292969 12.707031 A 1 1 0 0 0 12.707031 12.707031 A 1 1 0 0 0 12.707031 11.292969 L 5.4140625 4 L 9 4 A 1 1 0 0 0 10 3 A 1 1 0 0 0 9 2 L 3 2 z M 13 2 A 1 1 0 0 0 12 3 A 1 1 0 0 0 13 4 L 19 4 C 19.564129 4 20 4.4358706 20 5 L 20 19 C 20 19.564129 19.564129 20 19 20 L 5 20 C 4.4358706 20 4 19.564129 4 19 L 4 13 A 1 1 0 0 0 3 12 A 1 1 0 0 0 2 13 L 2 19 C 2 20.64501 3.3549904 22 5 22 L 19 22 C 20.64501 22 22 20.64501 22 19 L 22 5 C 22 3.3549904 20.64501 2 19 2 L 13 2 z "/>
</svg>
