<svg xmlns="http://www.w3.org/2000/svg" xmlns:svg="http://www.w3.org/2000/svg" width="24" height="24" viewBox="0 0 24 24" fill="currentColor" tags="music,audio,video,start,run" categories="arrows,multimedia">
  <path d="M 5 2 C 3.3552972 2 2 3.3552972 2 5 L 2 19 C 2 20.644703 3.3552972 22 5 22 L 19 22 C 20.644703 22 22 20.644703 22 19 L 22 5 C 22 3.3552972 20.644703 2 19 2 L 5 2 z M 5 4 L 19 4 C 19.571297 4 20 4.4287028 20 5 L 20 19 C 20 19.571297 19.571297 20 19 20 L 5 20 C 4.4287028 20 4 19.571297 4 19 L 4 5 C 4 4.4287028 4.4287028 4 5 4 z M 10.013672 7.015625 C 8.9776245 7.0353678 7.9965846 7.8739571 8 9.0058594 L 8 14.996094 C 7.99705 16.503133 9.7400464 17.490944 11.03125 16.712891 L 16.025391 13.71875 C 17.288045 12.966191 17.288045 11.033809 16.025391 10.28125 L 11.033203 7.2871094 L 11.03125 7.2871094 C 10.708809 7.0927861 10.358403 7.0090558 10.013672 7.015625 z M 10 9 A 1.0001 1.0001 0 0 0 10.001953 9.0019531 L 15 11.998047 A 1.0001 1.0001 0 0 0 15.001953 12 A 1.0001 1.0001 0 0 0 15 12.001953 L 10.001953 14.998047 A 1.0001 1.0001 0 0 0 10 15 A 1.0001 1.0001 0 0 0 10 14.996094 L 10 9.0039062 A 1.0001 1.0001 0 0 0 10 9 z "/>
</svg>
