<?xml version="1.0" encoding="UTF-8" standalone="no"?>
<svg xmlns="http://www.w3.org/2000/svg" xmlns:svg="http://www.w3.org/2000/svg" width="24" height="24" viewBox="0 0 24 24" fill="currentColor" tags="password,secret,access,key,multiply,multiplication,glob pattern,wildcard,*" categories="text,security,math,development">
  <path d="M 5 2 C 3.3552972 2 2 3.3552972 2 5 L 2 19 C 2 20.644703 3.3552972 22 5 22 L 19 22 C 20.644703 22 22 20.644703 22 19 L 22 5 C 22 3.3552972 20.644703 2 19 2 L 5 2 z M 5 4 L 19 4 C 19.571297 4 20 4.4287028 20 5 L 20 19 C 20 19.571297 19.571297 20 19 20 L 5 20 C 4.4287028 20 4 19.571297 4 19 L 4 5 C 4 4.4287028 4.4287028 4 5 4 z M 12 7 A 1 1 0 0 0 11 8 L 11 10.275391 L 8.9960938 9.1308594 A 1 1 0 0 0 8.2363281 9.0351562 A 1 1 0 0 0 7.6308594 9.5039062 A 1 1 0 0 0 8.0039062 10.869141 L 9.9824219 12 L 8.0039062 13.130859 A 1 1 0 0 0 7.6308594 14.496094 A 1 1 0 0 0 8.9960938 14.869141 L 11 13.724609 L 11 16 A 1 1 0 0 0 12 17 A 1 1 0 0 0 13 16 L 13 13.724609 L 15.003906 14.869141 A 1 1 0 0 0 16.369141 14.496094 A 1 1 0 0 0 15.996094 13.130859 L 14.017578 12 L 15.996094 10.869141 A 1 1 0 0 0 16.369141 9.5039062 A 1 1 0 0 0 15.763672 9.0351562 A 1 1 0 0 0 15.003906 9.1308594 L 13 10.275391 L 13 8 A 1 1 0 0 0 12 7 z "/>
</svg>
