<?xml version="1.0" encoding="UTF-8" standalone="no"?>
<svg xmlns="http://www.w3.org/2000/svg" xmlns:svg="http://www.w3.org/2000/svg" width="24" height="24" viewBox="0 0 24 24" fill="currentColor" tags="on,off,device,switch,toggle,binary,boolean,reboot,restart,button,keyboard,troubleshoot" categories="connectivity">
  <path d="M 5 2 C 3.3552972 2 2 3.3552972 2 5 L 2 19 C 2 20.644703 3.3552972 22 5 22 L 19 22 C 20.644703 22 22 20.644703 22 19 L 22 5 C 22 3.3552972 20.644703 2 19 2 L 5 2 z M 5 4 L 19 4 C 19.571297 4 20 4.4287028 20 5 L 20 19 C 20 19.571297 19.571297 20 19 20 L 5 20 C 4.4287028 20 4 19.571297 4 19 L 4 5 C 4 4.4287028 4.4287028 4 5 4 z M 12 6 A 1 1 0 0 0 11 7 L 11 11 A 1 1 0 0 0 12 12 A 1 1 0 0 0 13 11 L 13 7 A 1 1 0 0 0 12 6 z M 16.007812 7.9980469 A 1 1 0 0 0 15.398438 8.1992188 A 1 1 0 0 0 15.199219 9.5976562 C 17.216472 12.283829 15.361021 15.997901 12.001953 16 C 8.6428849 16.002099 6.7849346 12.290255 8.7988281 9.6015625 A 1 1 0 0 0 8.5976562 8.203125 A 1 1 0 0 0 7.1972656 8.4042969 C 4.2708517 12.311269 7.1226938 18.003051 12.003906 18 C 16.885119 17.9969 19.72817 12.301749 16.796875 8.3984375 A 1 1 0 0 0 16.138672 8.0078125 A 1 1 0 0 0 16.007812 7.9980469 z "/>
</svg>
