<?xml version="1.0" encoding="UTF-8" standalone="no"?>
<svg xmlns="http://www.w3.org/2000/svg" xmlns:svg="http://www.w3.org/2000/svg" width="24" height="24" viewBox="0 0 24 24" fill="currentColor" tags="float,center,rectangle" categories="layout">
  <path d="M 5 2 C 3.3553005 2 2 3.3553005 2 5 L 2 19 C 2 20.644699 3.3553005 22 5 22 L 19 22 C 20.644699 22 22 20.644699 22 19 L 22 5 C 22 3.3553005 20.644699 2 19 2 L 5 2 z M 5 4 L 19 4 C 19.571296 4 20 4.4287039 20 5 L 20 19 C 20 19.571296 19.571296 20 19 20 L 5 20 C 4.4287039 20 4 19.571296 4 19 L 4 5 C 4 4.4287039 4.4287039 4 5 4 z M 9 7 C 7.9092994 7 7 7.9092994 7 9 L 7 15 C 7 16.090701 7.9092994 17 9 17 L 15 17 C 16.090701 17 17 16.090701 17 15 L 17 9 C 17 7.9092994 16.090701 7 15 7 L 9 7 z M 9 9 L 15 9 L 15 15 L 9 15 L 9 9 z "/>
</svg>
