<svg xmlns="http://www.w3.org/2000/svg" xmlns:svg="http://www.w3.org/2000/svg" width="24" height="24" viewBox="0 0 24 24" fill="currentColor" tags="add,new,increase,increment,positive,calculate,calculator,button,keyboard,toolbar,maximum,upgrade,extra,operator,join,concatenate,code,coding,+" categories="math,tools,development,text">
  <path d="M 5 2 C 3.3552972 2 2 3.3552972 2 5 L 2 19 C 2 20.644703 3.3552972 22 5 22 L 19 22 C 20.644703 22 22 20.644703 22 19 L 22 5 C 22 3.3552972 20.644703 2 19 2 L 5 2 z M 5 4 L 19 4 C 19.571297 4 20 4.4287028 20 5 L 20 19 C 20 19.571297 19.571297 20 19 20 L 5 20 C 4.4287028 20 4 19.571297 4 19 L 4 5 C 4 4.4287028 4.4287028 4 5 4 z M 12 7 A 1 1 0 0 0 11 8 L 11 11 L 8 11 A 1 1 0 0 0 7 12 A 1 1 0 0 0 8 13 L 11 13 L 11 16 A 1 1 0 0 0 12 17 A 1 1 0 0 0 13 16 L 13 13 L 16 13 A 1 1 0 0 0 17 12 A 1 1 0 0 0 16 11 L 13 11 L 13 8 A 1 1 0 0 0 12 7 z "/>
</svg>
