<?xml version="1.0" encoding="UTF-8" standalone="no"?>
<svg xmlns="http://www.w3.org/2000/svg" xmlns:svg="http://www.w3.org/2000/svg" width="24" height="24" viewBox="0 0 24 24" fill="currentColor" tags="direction,south-west,diagonal,sign,turn,keyboard,button" categories="arrows,navigation,gaming">
  <path d="M 5 2 C 3.3552972 2 2 3.3552972 2 5 L 2 19 C 2 20.644703 3.3552972 22 5 22 L 19 22 C 20.644703 22 22 20.644703 22 19 L 22 5 C 22 3.3552972 20.644703 2 19 2 L 5 2 z M 5 4 L 19 4 C 19.571297 4 20 4.4287028 20 5 L 20 19 C 20 19.571297 19.571297 20 19 20 L 5 20 C 4.4287028 20 4 19.571297 4 19 L 4 5 C 4 4.4287028 4.4287028 4 5 4 z M 8 7 A 1 1 0 0 0 7 8 L 7 16 A 1.0001 1.0001 0 0 0 7.0117188 16.074219 A 1 1 0 0 0 7.0371094 16.232422 A 1.0001 1.0001 0 0 0 7.0859375 16.380859 A 1 1 0 0 0 7.1542969 16.515625 A 1.0001 1.0001 0 0 0 7.2460938 16.644531 A 1 1 0 0 0 7.2929688 16.707031 A 1 1 0 0 0 7.3554688 16.753906 A 1.0001 1.0001 0 0 0 7.484375 16.845703 A 1 1 0 0 0 7.6191406 16.914062 A 1.0001 1.0001 0 0 0 7.7675781 16.962891 A 1 1 0 0 0 7.9257812 16.988281 A 1.0001 1.0001 0 0 0 8 17 L 16 17 A 1 1 0 0 0 17 16 A 1 1 0 0 0 16 15 L 10.414062 15 L 16.707031 8.7070312 A 1 1 0 0 0 16.707031 7.2929688 A 1 1 0 0 0 15.292969 7.2929688 L 9 13.585938 L 9 8 A 1 1 0 0 0 8 7 z "/>
</svg>
