<svg xmlns="http://www.w3.org/2000/svg" xmlns:svg="http://www.w3.org/2000/svg" width="24" height="24" viewBox="0 0 24 24" fill="currentColor" tags="outwards,direction,north-east,diagonal,share,open,external,link" categories="arrows,social">
  <path d="M 5 2 C 3.3549904 2 2 3.3549904 2 5 L 2 19 C 2 20.64501 3.3549904 22 5 22 L 19 22 C 20.64501 22 22 20.64501 22 19 L 22 13 A 1 1 0 0 0 21 12 A 1 1 0 0 0 20 13 L 20 19 C 20 19.564129 19.564129 20 19 20 L 5 20 C 4.4358706 20 4 19.564129 4 19 L 4 5 C 4 4.4358706 4.4358706 4 5 4 L 11 4 A 1 1 0 0 0 12 3 A 1 1 0 0 0 11 2 L 5 2 z M 15 2 A 1 1 0 0 0 14 3 A 1 1 0 0 0 15 4 L 18.585938 4 L 11.292969 11.292969 A 1 1 0 0 0 11.292969 12.707031 A 1 1 0 0 0 12.707031 12.707031 L 20 5.4140625 L 20 9 A 1 1 0 0 0 21 10 A 1 1 0 0 0 22 9 L 22 3 A 1 1 0 0 0 21.992188 2.8691406 A 1.0001 1.0001 0 0 0 21.923828 2.6171875 A 1 1 0 0 0 21.707031 2.2929688 A 1 1 0 0 0 21.382812 2.0761719 A 1.0001 1.0001 0 0 0 21.130859 2.0078125 A 1.0001 1.0001 0 0 0 21 2 L 15 2 z "/>
</svg>
