<?xml version="1.0" encoding="UTF-8" standalone="no"?>
<svg xmlns="http://www.w3.org/2000/svg" xmlns:svg="http://www.w3.org/2000/svg" width="24" height="24" viewBox="0 0 24 24" fill="currentColor" tags="previous,back,direction,west,sign,keyboard,button,&lt;-" categories="arrows,navigation">
  <path d="M 5 2 C 3.3552972 2 2 3.3552972 2 5 L 2 19 C 2 20.644703 3.3552972 22 5 22 L 19 22 C 20.644703 22 22 20.644703 22 19 L 22 5 C 22 3.3552972 20.644703 2 19 2 L 5 2 z M 5 4 L 19 4 C 19.571297 4 20 4.4287028 20 5 L 20 19 C 20 19.571297 19.571297 20 19 20 L 5 20 C 4.4287028 20 4 19.571297 4 19 L 4 5 C 4 4.4287028 4.4287028 4 5 4 z M 12 7 A 1 1 0 0 0 11.292969 7.2929688 L 7.3027344 11.283203 L 7.2929688 11.292969 A 1.0001 1.0001 0 0 0 7.25 11.341797 A 1 1 0 0 0 7.2128906 11.384766 A 1.0001 1.0001 0 0 0 7.1757812 11.439453 A 1 1 0 0 0 7.1386719 11.492188 A 1.0001 1.0001 0 0 0 7.1347656 11.5 A 1 1 0 0 0 7.078125 11.611328 A 1.0001 1.0001 0 0 0 7.0761719 11.617188 A 1 1 0 0 0 7.0351562 11.742188 A 1 1 0 0 0 7.0234375 11.794922 A 1.0001 1.0001 0 0 0 7 12 A 1.0001 1.0001 0 0 0 7.0234375 12.205078 A 1.0001 1.0001 0 0 0 7.0351562 12.257812 A 1 1 0 0 0 7.0761719 12.382812 A 1 1 0 0 0 7.078125 12.388672 A 1.0001 1.0001 0 0 0 7.1347656 12.5 A 1 1 0 0 0 7.1757812 12.560547 A 1.0001 1.0001 0 0 0 7.2128906 12.615234 A 1 1 0 0 0 7.25 12.658203 A 1.0001 1.0001 0 0 0 7.2929688 12.707031 A 1 1 0 0 0 7.3027344 12.716797 L 11.292969 16.707031 A 1 1 0 0 0 12.707031 16.707031 A 1 1 0 0 0 12.707031 15.292969 L 10.414062 13 L 16 13 A 1 1 0 0 0 17 12 A 1 1 0 0 0 16 11 L 10.414062 11 L 12.707031 8.7070312 A 1 1 0 0 0 12.707031 7.2929688 A 1 1 0 0 0 12 7 z "/>
</svg>
