<svg xmlns="http://www.w3.org/2000/svg" xmlns:svg="http://www.w3.org/2000/svg" width="24" height="24" viewBox="0 0 24 24" fill="currentColor" tags="constant,code,coding,programming,symbol,trigonometry,geometry,formula" categories="development,math">
  <path d="M 5 2 C 3.3552972 2 2 3.3552972 2 5 L 2 19 C 2 20.644703 3.3552972 22 5 22 L 19 22 C 20.644703 22 22 20.644703 22 19 L 22 5 C 22 3.3552972 20.644703 2 19 2 L 5 2 z M 5 4 L 19 4 C 19.571297 4 20 4.4287028 20 5 L 20 19 C 20 19.571297 19.571297 20 19 20 L 5 20 C 4.4287028 20 4 19.571297 4 19 L 4 5 C 4 4.4287028 4.4287028 4 5 4 z M 7 6 A 1 1 0 0 0 6 7 A 1 1 0 0 0 7 8 L 9 8 L 9 17 A 1 1 0 0 0 10 18 A 1 1 0 0 0 11 17 L 11 8 L 13 8 L 13 15 C 13 16.64501 14.35499 18 16 18 A 1 1 0 0 0 17 17 A 1 1 0 0 0 16 16 C 15.435871 16 15 15.564129 15 15 L 15 8 L 17 8 A 1 1 0 0 0 18 7 A 1 1 0 0 0 17 6 L 14 6 L 7 6 z "/>
</svg>
