<svg xmlns="http://www.w3.org/2000/svg" xmlns:svg="http://www.w3.org/2000/svg" width="24" height="24" viewBox="0 0 24 24" fill="currentColor" tags="outwards,direction,south-east,diagonal" categories="arrows">
  <path d="M 5 2 C 3.3549904 2 2 3.3549904 2 5 L 2 19 C 2 20.64501 3.3549904 22 5 22 L 11 22 A 1 1 0 0 0 12 21 A 1 1 0 0 0 11 20 L 5 20 C 4.4358706 20 4 19.564129 4 19 L 4 5 C 4 4.4358706 4.4358706 4 5 4 L 19 4 C 19.564129 4 20 4.4358706 20 5 L 20 11 A 1 1 0 0 0 21 12 A 1 1 0 0 0 22 11 L 22 5 C 22 3.3549904 20.64501 2 19 2 L 5 2 z M 12 11 A 1 1 0 0 0 11.292969 11.292969 A 1 1 0 0 0 11.292969 12.707031 L 18.585938 20 L 15 20 A 1 1 0 0 0 14 21 A 1 1 0 0 0 15 22 L 21 22 A 1 1 0 0 0 21.130859 21.992188 A 1.0001 1.0001 0 0 0 21.382812 21.923828 A 1 1 0 0 0 21.707031 21.707031 A 1 1 0 0 0 21.923828 21.382812 A 1.0001 1.0001 0 0 0 21.992188 21.130859 A 1 1 0 0 0 22 21 L 22 15 A 1 1 0 0 0 21 14 A 1 1 0 0 0 20 15 L 20 18.585938 L 12.707031 11.292969 A 1 1 0 0 0 12 11 z "/>
</svg>
