<?xml version="1.0" encoding="UTF-8" standalone="no"?>
<svg xmlns="http://www.w3.org/2000/svg" xmlns:svg="http://www.w3.org/2000/svg" width="24" height="24" viewBox="0 0 24 24" fill="currentColor" tags="animal,rodent,pet,pest,nuts,retrieve,updates,storage,stash" categories="animals">
  <path d="M 6.5 1 C 5.1527805 1 3.7921174 1.4436827 2.7421875 2.3769531 C 1.6922576 3.3102237 1 4.750004 1 6.5 C 1 7.5833309 1.442257 8.5231089 2.1171875 9.1230469 C 2.7566319 9.6914416 3.5714789 9.9253468 4.375 9.953125 C 4.2999106 10.05908 4.2579124 10.129739 4.1796875 10.242188 C 3.1408911 11.735457 2 13.777784 2 17 C 2 20.323803 4.6761971 23 8 23 L 18 23 A 1 1 0 0 0 19 22 A 1 1 0 0 0 18 21 L 16.875 21 C 16.959773 20.66985 17.000207 20.333116 17 20 C 17 18.883588 17.883588 18 19 18 L 20 18 C 21.645006 18 23 16.645006 23 15 L 23 13 C 23 10.604489 21.258212 8.6827669 19 8.203125 L 19 6 L 19 4 A 1 1 0 0 0 18 3 A 1 1 0 0 0 17 4 L 17 5.109375 C 15.026661 5.5281164 13.524648 7.155352 13.169922 9.1679688 C 12.559529 9.2345171 11.960286 9.330558 11.398438 9.5273438 C 11.71156 8.6596487 12 7.742165 12 6.5 C 12 4.750004 11.307741 3.3102237 10.257812 2.3769531 C 9.2078821 1.4436827 7.8472195 1 6.5 1 z M 6.5 3 C 7.4027761 3 8.2921206 3.306321 8.9296875 3.8730469 C 9.5672544 4.4397727 10 5.2500032 10 6.5 C 10 9.0075708 9.1958014 10.031708 8.2050781 11.332031 C 7.6822591 12.018232 7.1253664 12.821807 6.6894531 13.802734 C 6.2568892 14.785449 6 15.860469 6 17 A 1.0001 1.0001 0 0 0 8 17 C 8 15.980132 8.2003426 15.285131 8.4746094 14.654297 C 9.3842418 12.502675 11.508387 11 14 11 A 1.0001 1.0001 0 0 0 15 10 C 15 8.6833471 15.830577 7.5801903 17 7.171875 L 17 9 A 1.0001 1.0001 0 0 0 18 10 C 19.668695 10 21 11.331305 21 13 L 21 15 C 21 15.564128 20.564128 16 20 16 L 19 16 C 17.810959 16 16.740671 16.530636 16.005859 17.363281 C 15.301164 16.560089 14.262383 16.014514 13.048828 16 A 1 1 0 0 0 12.035156 16.988281 A 1 1 0 0 0 13.023438 18 C 13.918978 18.01071 14.530586 18.512696 14.830078 19.193359 C 14.923669 19.406067 14.98356 19.632056 15.003906 19.859375 C 15.002265 19.906083 15 19.952916 15 20 A 1 1 0 0 0 15.011719 20.054688 C 15.007251 20.373399 14.920341 20.694574 14.736328 21 L 8 21 C 5.7238141 21 4 19.276186 4 17 C 4 14.222228 4.8591129 12.764536 5.8203125 11.382812 C 6.4812284 10.432745 7.1206511 9.3915976 7.5449219 8.2011719 C 7.811715 7.7011269 8 7.1418204 8 6.5 A 1.0001 1.0001 0 0 0 6 6.5 C 6 7.0833317 5.817255 7.3935599 5.5546875 7.6269531 C 5.29212 7.8603464 4.9027771 8 4.5 8 C 4.0972229 8 3.70788 7.8603464 3.4453125 7.6269531 C 3.182745 7.3935599 3 7.0833317 3 6.5 C 3 5.2500032 3.4327456 4.4397727 4.0703125 3.8730469 C 4.7078794 3.306321 5.5972239 3 6.5 3 z M 18 12 A 1 1 0 0 0 17 13 A 1 1 0 0 0 18 14 L 18.009766 14 A 1 1 0 0 0 19.009766 13 A 1 1 0 0 0 18.009766 12 L 18 12 z "/>
</svg>
