<?xml version="1.0" encoding="UTF-8" standalone="no"?>
<svg xmlns="http://www.w3.org/2000/svg" xmlns:svg="http://www.w3.org/2000/svg" width="24" height="24" viewBox="0 0 24 24" fill="currentColor" tags="animal,rodent,pet,pest,nuts,retrieve,updates,storage,stash" categories="animals">
  <path d="M 6.5 1 C 5.1527779 1 3.7921194 1.4436807 2.7421875 2.3769531 C 1.6922556 3.3102255 1 4.7500005 1 6.5 C 1 7.5833331 1.4422556 8.5231077 2.1171875 9.1230469 C 2.7566332 9.6914428 3.5714773 9.9253468 4.375 9.953125 C 4.2999104 10.05908 4.2579126 10.129739 4.1796875 10.242188 C 3.1408891 11.735459 2 13.777778 2 17 C 2 20.32381 4.6761905 23 8 23 L 15.216797 23 L 15.251953 23 L 18 23 A 1 1 0 0 0 19 22 A 1 1 0 0 0 18 21 L 16.873047 21 C 16.954451 20.682881 16.997096 20.361194 17 20.041016 A 1 1 0 0 0 17 20 C 17 18.883586 17.883586 18 19 18 L 20 18 C 21.64501 18 23 16.64501 23 15 L 23 13 C 23 10.604485 21.258216 8.6827679 19 8.203125 L 19 6 L 19 4 A 1 1 0 0 0 18 3 A 1 1 0 0 0 17 4 L 17 5.1035156 C 15.02556 5.5215017 13.524782 7.1545915 13.169922 9.1679688 C 12.559528 9.2345172 11.960287 9.3305576 11.398438 9.5273438 C 11.711562 8.6596471 12 7.7421675 12 6.5 C 12 4.7500005 11.307744 3.3102255 10.257812 2.3769531 C 9.2078801 1.4436807 7.8472221 1 6.5 1 z M 6.5 3 C 7.4027779 3 8.2921194 3.3063199 8.9296875 3.8730469 C 9.5672556 4.4397738 10 5.2500008 10 6.5 C 10 9.0075758 9.1958034 10.031704 8.2050781 11.332031 C 7.6822581 12.018233 7.1253673 12.821805 6.6894531 13.802734 C 6.2568882 14.785451 6 15.860467 6 17 A 1.0001 1.0001 0 0 0 8 17 C 8 15.98013 8.2003422 15.285133 8.4746094 14.654297 C 9.3842436 12.502671 11.508382 11 14 11 A 1.0001 1.0001 0 0 0 15 10 C 15 8.6826889 15.829654 7.5757915 17 7.1679688 L 17 9 A 1.0001 1.0001 0 0 0 18 10 C 19.668699 10 21 11.331301 21 13 L 21 15 C 21 15.564129 20.564129 16 20 16 L 19 16 C 17.811584 16 16.738688 16.527489 16.003906 17.359375 C 15.29926 16.558011 14.260703 16.014494 13.048828 16 A 1 1 0 0 0 12.035156 16.988281 A 1 1 0 0 0 13.023438 18 C 13.91898 18.01071 14.530586 18.512695 14.830078 19.193359 C 14.921889 19.402021 14.982461 19.620895 15.003906 19.84375 C 15.001889 19.8955 15 19.947786 15 20 A 1 1 0 0 0 15.009766 20.132812 C 14.993293 20.425371 14.906892 20.719955 14.738281 21 L 8 21 C 5.7238095 21 4 19.27619 4 17 C 4 14.222222 4.8591109 12.764539 5.8203125 11.382812 C 6.4812298 10.432743 7.1206503 9.3916 7.5449219 8.2011719 C 7.8117156 7.7011259 8 7.1418216 8 6.5 A 1.0001 1.0001 0 0 0 6 6.5 C 6 7.0833329 5.8172556 7.3935594 5.5546875 7.6269531 C 5.2921194 7.8603469 4.9027779 8 4.5 8 C 4.0972221 8 3.7078806 7.8603469 3.4453125 7.6269531 C 3.1827444 7.3935594 3 7.0833329 3 6.5 C 3 5.2500008 3.4327444 4.4397738 4.0703125 3.8730469 C 4.7078806 3.3063199 5.5972221 3 6.5 3 z M 18 12 A 1 1 0 0 0 17 13 A 1 1 0 0 0 18 14 L 18.009766 14 A 1 1 0 0 0 19.009766 13 A 1 1 0 0 0 18.009766 12 L 18 12 z "/>
</svg>
