<svg xmlns="http://www.w3.org/2000/svg" xmlns:svg="http://www.w3.org/2000/svg" width="24" height="24" viewBox="0 0 24 24" fill="currentColor" tags="shape,pending,progress,issue,draft,code,coding,version control" categories="development,shapes,design">
  <path d="M 10.177734 2.0449219 A 1 1 0 0 0 9.2304688 3.0957031 A 1 1 0 0 0 10.28125 4.0410156 C 11.425767 3.9813526 12.574233 3.9813526 13.71875 4.0410156 A 1 1 0 0 0 14.769531 3.0957031 A 1 1 0 0 0 13.822266 2.0449219 C 12.608384 1.9816429 11.391616 1.9816429 10.177734 2.0449219 z M 6.234375 2.8203125 A 1 1 0 0 0 5.8535156 2.90625 C 4.5120864 3.5016624 3.5016624 4.5120864 2.90625 5.8535156 A 1 1 0 0 0 3.4140625 7.1738281 A 1 1 0 0 0 4.734375 6.6660156 C 5.1589626 5.7094448 5.7094448 5.1589626 6.6660156 4.734375 A 1 1 0 0 0 7.1738281 3.4140625 A 1 1 0 0 0 6.234375 2.8203125 z M 17.763672 2.8203125 A 1 1 0 0 0 16.826172 3.4160156 A 1 1 0 0 0 17.335938 4.734375 C 18.292022 5.157914 18.84109 5.7084426 19.265625 6.6640625 A 1 1 0 0 0 20.585938 7.1738281 A 1 1 0 0 0 21.09375 5.8535156 C 20.498285 4.5131355 19.486448 3.500711 18.144531 2.90625 A 1 1 0 0 0 17.763672 2.8203125 z M 3.0957031 9.2304688 A 1 1 0 0 0 2.0449219 10.177734 C 1.9819499 11.391976 1.9812639 12.610012 2.0449219 13.824219 A 1 1 0 0 0 3.0957031 14.769531 A 1 1 0 0 0 4.0429688 13.71875 C 3.9829487 12.573927 3.9816386 11.426107 4.0410156 10.28125 A 1 1 0 0 0 3.0957031 9.2304688 z M 20.904297 9.2304688 A 1 1 0 0 0 19.958984 10.283203 C 20.020404 11.426621 20.020404 12.573379 19.958984 13.716797 A 1 1 0 0 0 20.904297 14.769531 A 1 1 0 0 0 21.955078 13.824219 C 22.020338 12.609337 22.020338 11.390663 21.955078 10.175781 A 1 1 0 0 0 20.904297 9.2304688 z M 3.7949219 16.740234 A 1 1 0 0 0 3.4140625 16.826172 A 1 1 0 0 0 2.90625 18.146484 C 3.5014307 19.486224 4.5113766 20.500012 5.8554688 21.09375 A 1 1 0 0 0 7.1738281 20.583984 A 1 1 0 0 0 6.6640625 19.263672 C 5.7081548 18.84141 5.1591943 18.292198 4.734375 17.335938 A 1 1 0 0 0 3.7949219 16.740234 z M 20.205078 16.740234 A 1 1 0 0 0 19.820312 16.806641 A 1 1 0 0 0 19.265625 17.333984 C 18.840875 18.291753 18.292755 18.840928 17.335938 19.265625 A 1 1 0 0 0 16.826172 20.585938 A 1 1 0 0 0 18.146484 21.09375 C 19.487667 20.498447 20.4985 19.486763 21.09375 18.144531 A 1 1 0 0 0 20.585938 16.826172 A 1 1 0 0 0 20.205078 16.740234 z M 13.716797 19.957031 C 12.573073 20.018811 11.426961 20.020064 10.283203 19.958984 A 1 1 0 0 0 9.2304688 20.904297 A 1 1 0 0 0 10.175781 21.955078 C 11.391024 22.020028 12.609013 22.020718 13.824219 21.955078 A 1 1 0 0 0 14.769531 20.902344 A 1 1 0 0 0 13.716797 19.957031 z "/>
</svg>
