<?xml version="1.0" encoding="UTF-8" standalone="no"?>
<svg xmlns="http://www.w3.org/2000/svg" xmlns:svg="http://www.w3.org/2000/svg" width="24" height="24" viewBox="0 0 24 24" fill="currentColor" tags="mark,print,clone,loyalty,library" categories="design,cursors,tools,maps">
  <path d="M 12 1 C 10.969199 1 9.9573041 1.3169288 9.1992188 2.015625 C 8.4411333 2.7143212 8 3.7766691 8 5 C 8 6.1666643 8.3605054 6.9604745 8.6308594 7.4335938 C 8.9012132 7.9067131 9 7.9722232 9 8.5 L 9 12 L 6.5 12 C 4.5788518 12 3 13.578852 3 15.5 L 3 17 C 3 18.092723 3.9072773 19 5 19 L 19 19 C 20.092723 19 21 18.092723 21 17 L 21 15.5 C 21 14.577376 20.63713 13.684004 19.976562 13.023438 A 1.0001 1.0001 0 0 0 19.976562 13.021484 C 19.319643 12.366266 18.427803 11.99886 17.5 12 L 15 12 L 15 8.5 C 15 7.9722232 15.098786 7.9067131 15.369141 7.4335938 C 15.639494 6.9604745 16 6.1666643 16 5 C 16 2.80271 14.19729 1 12 1 z M 12 3 C 13.116412 3 14 3.8835881 14 5 C 14 5.8333317 13.860505 6.0395274 13.630859 6.4414062 C 13.401215 6.8432852 13 7.5277798 13 8.5 L 13 12 L 11 12 L 11 8.5 C 11 7.5277798 10.598785 6.8432852 10.369141 6.4414062 C 10.139495 6.0395274 10 5.8333317 10 5 C 10 4.2233349 10.227775 3.7856768 10.554688 3.484375 C 10.881599 3.1830732 11.370805 3 12 3 z M 6.5 14 L 10 14 L 14 14 L 17.5 14 A 1.0001 1.0001 0 0 0 17.501953 14 C 17.899808 13.999289 18.280507 14.156918 18.5625 14.4375 C 18.841885 14.716932 19 15.102627 19 15.5 L 19 17 L 5 17 L 5 15.5 C 5 14.65973 5.6597299 14 6.5 14 z M 5 21 A 1 1 0 0 0 4 22 A 1 1 0 0 0 5 23 L 19 23 A 1 1 0 0 0 20 22 A 1 1 0 0 0 19 21 L 5 21 z "/>
</svg>
