<svg xmlns="http://www.w3.org/2000/svg" xmlns:svg="http://www.w3.org/2000/svg" width="24" height="24" viewBox="0 0 24 24" fill="currentColor" tags="mark,print,clone,loyalty,library" categories="design,cursors,tools">
  <path d="M 12 1 C 11.027778 1 10.042119 1.3186806 9.2734375 2.0019531 C 8.5047556 2.6852256 8 3.7500003 8 5 C 8 6.1666667 8.360505 6.9604735 8.6308594 7.4335938 C 8.9012138 7.906714 9 7.9722222 9 8.5 L 9 12 L 6.5 12 C 4.578848 12 3 13.578848 3 15.5 L 3 17 C 3 18.092725 3.9072751 19 5 19 L 19 19 C 20.092725 19 21 18.092725 21 17 L 21 15.5 C 21 13.578848 19.421152 12 17.5 12 L 15 12 L 15 8.5 C 15 7.9722222 15.098786 7.906714 15.369141 7.4335938 C 15.639495 6.9604735 16 6.1666667 16 5 C 16 3.7500003 15.495244 2.6852256 14.726562 2.0019531 C 13.95788 1.3186806 12.972222 1 12 1 z M 12 3 C 12.527778 3 13.042119 3.1813198 13.398438 3.4980469 C 13.754755 3.8147739 14 4.2500005 14 5 C 14 5.8333333 13.860505 6.0395265 13.630859 6.4414062 C 13.401214 6.843286 13 7.5277778 13 8.5 L 13 12 L 11 12 L 11 8.5 C 11 7.5277778 10.598786 6.843286 10.369141 6.4414062 C 10.139495 6.0395265 10 5.8333333 10 5 C 10 4.2500005 10.245244 3.8147739 10.601562 3.4980469 C 10.95788 3.1813198 11.472222 3 12 3 z M 6.5 14 L 17.5 14 C 18.340272 14 19 14.659728 19 15.5 L 19 17 L 5 17 L 5 15.5 C 5 14.659728 5.6597282 14 6.5 14 z M 5 21 A 1 1 0 0 0 4 22 A 1 1 0 0 0 5 23 L 19 23 A 1 1 0 0 0 20 22 A 1 1 0 0 0 19 21 L 5 21 z "/>
</svg>
