<svg xmlns="http://www.w3.org/2000/svg" xmlns:svg="http://www.w3.org/2000/svg" width="24" height="24" viewBox="0 0 24 24" fill="currentColor" tags="bookmark,favorite,like,review,rating" categories="social,multimedia">
  <path d="M 12 1 C 11.420335 1.0000576 10.885928 1.3319936 10.628906 1.8515625 L 8.3183594 6.53125 C 8.1546932 6.8629498 7.8406628 7.0914629 7.4746094 7.1445312 L 2.3144531 7.8984375 L 2.3144531 7.9003906 L 2.3125 7.9003906 C 1.1180828 8.0719158 0.59633163 9.674821 1.4648438 10.513672 L 5.1992188 14.148438 C 5.4646456 14.40666 5.5842723 14.775675 5.5214844 15.140625 A 1.0001 1.0001 0 0 0 5.5214844 15.142578 L 4.640625 20.277344 L 4.640625 20.279297 C 4.4338353 21.467765 5.796677 22.459184 6.8632812 21.894531 L 11.478516 19.466797 A 1.0001 1.0001 0 0 0 11.480469 19.464844 C 11.639764 19.380524 11.81781 19.337503 11.998047 19.337891 A 1 1 0 0 0 13 18.339844 A 1 1 0 0 0 12.001953 17.337891 C 11.494151 17.336791 10.993722 17.459689 10.544922 17.697266 L 6.7714844 19.681641 L 7.4921875 15.480469 C 7.6663944 14.467905 7.3301845 13.431291 6.59375 12.714844 L 3.5390625 9.7421875 L 7.7617188 9.1230469 C 8.7773627 8.9758046 9.659177 8.3363426 10.113281 7.4160156 L 12.367188 2.8476562 A 1 1 0 0 0 13 2 A 1 1 0 0 0 12 1 z "/>
</svg>
