<svg xmlns="http://www.w3.org/2000/svg" xmlns:svg="http://www.w3.org/2000/svg" width="24" height="24" viewBox="0 0 24 24" fill="currentColor" tags="dislike,unlike,remove,unrate" categories="multimedia,social">
  <path d="M 2 1 A 1 1 0 0 0 1.2929688 1.2929688 A 1 1 0 0 0 1.2929688 2.7070312 L 5.953125 7.3671875 L 2.3144531 7.8984375 L 2.3144531 7.9003906 L 2.3125 7.9003906 C 1.1180828 8.0719158 0.59633163 9.674821 1.4648438 10.513672 L 5.1992188 14.148438 C 5.4646456 14.40666 5.5842723 14.775675 5.5214844 15.140625 A 1.0001 1.0001 0 0 0 5.5214844 15.142578 L 4.640625 20.277344 L 4.640625 20.279297 C 4.4338353 21.467765 5.796677 22.459184 6.8632812 21.894531 L 11.478516 19.466797 C 11.805753 19.294763 12.194247 19.294763 12.521484 19.466797 L 17.134766 21.892578 C 18.049158 22.379413 19.182844 21.719193 19.357422 20.771484 L 21.292969 22.707031 A 1 1 0 0 0 22.707031 22.707031 A 1 1 0 0 0 22.707031 21.292969 L 18.623047 17.210938 L 2.7070312 1.2929688 A 1 1 0 0 0 2 1 z M 12 1.0429688 C 11.447735 1.0429689 10.895602 1.3127403 10.628906 1.8515625 L 9.4472656 4.2460938 A 1 1 0 0 0 9.9023438 5.5839844 A 1 1 0 0 0 11.240234 5.1308594 L 12 3.5917969 L 13.888672 7.4160156 C 14.341932 8.3350126 15.220597 8.9743941 16.234375 9.1230469 L 20.460938 9.7421875 L 17.90625 12.230469 A 1 1 0 0 0 17.886719 13.644531 A 1 1 0 0 0 19.300781 13.662109 L 22.537109 10.509766 A 1.0001 1.0001 0 0 0 22.539062 10.509766 C 23.400596 9.6697064 22.88169 8.0742438 21.691406 7.9003906 L 21.689453 7.9003906 L 16.525391 7.1445312 C 16.159735 7.091137 15.845099 6.8626662 15.681641 6.53125 L 13.371094 1.8515625 C 13.104398 1.3127403 12.552265 1.0429688 12 1.0429688 z M 7.7167969 9.1308594 L 17.013672 18.427734 L 17.228516 19.681641 L 13.451172 17.697266 C 12.54322 17.219941 11.454827 17.219941 10.546875 17.697266 L 6.7714844 19.681641 L 7.4921875 15.480469 C 7.6663944 14.467905 7.3301845 13.431291 6.59375 12.714844 L 3.5390625 9.7421875 L 7.7167969 9.1308594 z "/>
</svg>
