<?xml version="1.0" encoding="UTF-8" standalone="no"?>
<svg xmlns="http://www.w3.org/2000/svg" xmlns:svg="http://www.w3.org/2000/svg" width="24" height="24" viewBox="0 0 24 24" fill="currentColor" tags="bookmark,favorite,like,review,rating" categories="account,social,shapes,multimedia,weather,emoji,gaming">
  <path d="M 12 1.0429688 C 11.447735 1.0429688 10.895602 1.3127403 10.628906 1.8515625 L 8.3183594 6.53125 C 8.1542081 6.8622857 7.840339 7.0913247 7.4746094 7.1445312 L 2.3144531 7.8984375 L 2.3125 7.9003906 C 1.1180828 8.0719158 0.59633163 9.674821 1.4648438 10.513672 L 5.1992188 14.148438 C 5.4647036 14.406973 5.584135 14.777341 5.5214844 15.142578 L 4.640625 20.277344 L 4.640625 20.279297 C 4.4338353 21.467765 5.796677 22.459184 6.8632812 21.894531 L 11.478516 19.466797 C 11.806068 19.294805 12.193932 19.294805 12.521484 19.466797 L 17.134766 21.892578 C 18.202377 22.460989 19.569724 21.466457 19.359375 20.275391 L 18.478516 15.140625 C 18.416116 14.77542 18.537396 14.407013 18.802734 14.148438 L 22.537109 10.509766 A 1.0001 1.0001 0 0 0 22.539062 10.509766 C 23.400598 9.6696614 22.88169 8.0742438 21.691406 7.9003906 L 21.689453 7.9003906 L 16.525391 7.1445312 C 16.159389 7.0908092 15.845517 6.8628936 15.681641 6.53125 L 13.371094 1.8515625 C 13.104398 1.3127403 12.552265 1.0429689 12 1.0429688 z M 12 3.5917969 L 13.888672 7.4160156 A 1.0001 1.0001 0 0 0 13.888672 7.4179688 C 14.342603 8.3366071 15.220567 8.9742388 16.234375 9.1230469 L 20.460938 9.7421875 L 17.40625 12.714844 C 16.671279 13.431071 16.334976 14.466937 16.507812 15.478516 L 17.228516 19.681641 L 13.451172 17.697266 C 12.543365 17.220591 11.456635 17.220591 10.548828 17.697266 A 1.0001 1.0001 0 0 0 10.546875 17.697266 L 6.7714844 19.681641 L 7.4921875 15.480469 C 7.6658188 14.468244 7.3295198 13.431356 6.59375 12.714844 L 3.5390625 9.7421875 L 7.7636719 9.1230469 C 8.7788166 8.9753632 9.6589116 8.3357315 10.113281 7.4160156 L 12 3.5917969 z "/>
</svg>
