<svg xmlns="http://www.w3.org/2000/svg" xmlns:svg="http://www.w3.org/2000/svg" width="24" height="24" viewBox="0 0 24 24" fill="currentColor" tags="arrow,next,music,right,continue" categories="multimedia,arrows">
  <path d="M 3 3 A 1 1 0 0 0 2 4 L 2 20 A 1 1 0 0 0 3 21 A 1 1 0 0 0 4 20 L 4 4 A 1 1 0 0 0 3 3 z M 9.0078125 3.0136719 C 7.4547871 3.0372708 5.9999835 4.2885816 6 6 L 6 18 C 5.999978 20.281891 8.5862688 21.746299 10.542969 20.572266 L 20.539062 14.576172 L 20.541016 14.574219 C 22.446532 13.433187 22.448134 10.570569 20.542969 9.4277344 L 10.542969 3.4277344 C 10.053701 3.1342731 9.5254876 3.0058056 9.0078125 3.0136719 z M 8.9785156 4.9804688 C 9.1533048 4.9846403 9.3363187 5.036165 9.5136719 5.1425781 L 19.513672 11.142578 C 20.200127 11.554346 20.200846 12.448808 19.513672 12.859375 A 1.0001 1.0001 0 0 0 19.511719 12.859375 L 9.5136719 18.857422 C 8.8042592 19.283074 7.999992 18.827313 8 18 L 8 6 C 7.999996 5.5863437 8.2022381 5.26573 8.4921875 5.1015625 C 8.6371622 5.0194788 8.8037265 4.9762972 8.9785156 4.9804688 z "/>
</svg>
