<?xml version="1.0" encoding="UTF-8" standalone="no"?>
<svg xmlns="http://www.w3.org/2000/svg" xmlns:svg="http://www.w3.org/2000/svg" width="24" height="24" viewBox="0 0 24 24" fill="currentColor" tags="arrow,next,music,right,continue" categories="multimedia,arrows">
  <path d="M 6 3 A 1 1 0 0 0 5 4 L 5 20 A 1 1 0 0 0 6 21 A 1 1 0 0 0 7 20 L 7 4 A 1 1 0 0 0 6 3 z M 9.9726562 3 A 1.0001 1.0001 0 0 0 9.5664062 3.0996094 A 1.0001 1.0001 0 0 0 9 4 L 9 20 A 1.0001 1.0001 0 0 0 10.625 20.78125 L 20.625 12.78125 A 1.0001 1.0001 0 0 0 20.625 11.21875 L 10.625 3.21875 A 1.0001 1.0001 0 0 0 9.9726562 3 z M 11 6.0820312 L 18.398438 12 L 11 17.917969 L 11 6.0820312 z "/>
</svg>
