<svg xmlns="http://www.w3.org/2000/svg" xmlns:svg="http://www.w3.org/2000/svg" width="24" height="24" viewBox="0 0 24 24" fill="currentColor" tags="arrow,previous,music,left,reverse" categories="multimedia,arrows">
  <path d="M 21 3 A 1 1 0 0 0 20 4 L 20 20 A 1 1 0 0 0 21 21 A 1 1 0 0 0 22 20 L 22 4 A 1 1 0 0 0 21 3 z M 14.992188 3.0136719 C 14.474512 3.0058019 13.946206 3.1342261 13.457031 3.4277344 L 3.4570312 9.4277344 C 1.5509731 10.571077 1.5528797 13.436164 3.4609375 14.576172 L 13.457031 20.572266 C 15.413727 21.746299 18.000022 20.281891 18 18 L 18 6 C 18.000016 4.2885816 16.545212 3.0372708 14.992188 3.0136719 z M 15.021484 4.9804688 C 15.196274 4.9762972 15.362838 5.0194788 15.507812 5.1015625 C 15.797762 5.26573 16.000004 5.5863437 16 6 L 16 18 C 16.000008 18.827313 15.195741 19.283074 14.486328 18.857422 L 4.4882812 12.859375 A 1.0001 1.0001 0 0 0 4.4863281 12.859375 C 3.7991545 12.448808 3.7998733 11.554346 4.4863281 11.142578 L 14.486328 5.1425781 C 14.663681 5.036165 14.846695 4.9846403 15.021484 4.9804688 z "/>
</svg>
