<?xml version="1.0" encoding="UTF-8" standalone="no"?>
<svg xmlns="http://www.w3.org/2000/svg" xmlns:svg="http://www.w3.org/2000/svg" width="24" height="24" viewBox="0 0 24 24" fill="currentColor" tags="phonendoscope,medical,heart,lungs,sound" categories="science,medical">
  <path d="M 5 1 A 1 1 0 0 0 4 2 C 2.3549936 2 1 3.3549936 1 5 L 1 9 C 1 12.536554 3.6501994 15.475007 7.0644531 15.935547 C 7.5249936 19.349803 10.463449 22 14 22 C 17.85414 22 21 18.854143 21 15 L 21 12.826172 C 22.160387 12.410479 23 11.295356 23 10 C 23 8.3549936 21.645006 7 20 7 C 18.354994 7 17 8.3549936 17 10 C 17 11.295356 17.839613 12.410479 19 12.826172 L 19 15 C 19 17.773265 16.773263 20 14 20 C 11.539942 20 9.5111335 18.247558 9.0839844 15.916016 C 12.426544 15.391746 15 12.485331 15 9 L 15 5 C 15 3.3549936 13.645006 2 12 2 A 1 1 0 0 0 11 1 A 1 1 0 0 0 10 2 L 10 4 A 1 1 0 0 0 11 5 A 1 1 0 0 0 12 4 C 12.564128 4 13 4.4358718 13 5 L 13 9 C 13 11.773265 10.773263 14 8 14 C 5.2267363 14 3 11.773265 3 9 L 3 5 C 3 4.4358718 3.4358718 4 4 4 A 1 1 0 0 0 5 5 A 1 1 0 0 0 6 4 L 6 2 A 1 1 0 0 0 5 1 z M 20 9 C 20.564128 9 21 9.4358718 21 10 C 21 10.564128 20.564128 11 20 11 C 19.435872 11 19 10.564128 19 10 C 19 9.4358718 19.435872 9 20 9 z "/>
</svg>
