<?xml version="1.0" encoding="UTF-8" standalone="no"?>
<svg xmlns="http://www.w3.org/2000/svg" xmlns:svg="http://www.w3.org/2000/svg" width="24" height="24" viewBox="0 0 24 24" fill="currentColor" tags="phonendoscope,medical,heart,lungs,sound" categories="science,medical">
  <path d="M 5 1 A 1 1 0 0 0 4 2 C 2.3549904 2 1 3.3549904 1 5 L 1 9 C 1 12.536468 3.6483704 15.476842 7.0625 15.9375 C 7.5231584 19.351632 10.463534 22 14 22 C 17.854148 22 21 18.854151 21 15 L 21 12.826172 C 22.160087 12.410315 23 11.295143 23 10 C 23 8.3549904 21.64501 7 20 7 C 18.35499 7 17 8.3549904 17 10 C 17 11.295143 17.839913 12.410315 19 12.826172 L 19 15 C 19 17.773271 16.773269 20 14 20 C 11.539853 20 9.5090852 18.247682 9.0820312 15.916016 C 12.42562 15.392636 15 12.486069 15 9 L 15 5 C 15 3.3549904 13.64501 2 12 2 A 1 1 0 0 0 11 1 A 1 1 0 0 0 10 2 L 10 4 A 1 1 0 0 0 11 5 A 1 1 0 0 0 12 4 C 12.564129 4 13 4.4358706 13 5 L 13 9 C 13 11.773271 10.773269 14 8 14 C 5.2267307 14 3 11.773271 3 9 L 3 5 C 3 4.4358706 3.4358706 4 4 4 A 1 1 0 0 0 5 5 A 1 1 0 0 0 6 4 L 6 2 A 1 1 0 0 0 5 1 z M 20 9 C 20.564129 9 21 9.4358706 21 10 C 21 10.564129 20.564129 11 20 11 C 19.435871 11 19 10.564129 19 10 C 19 9.4358706 19.435871 9 20 9 z "/>
</svg>
