<svg xmlns="http://www.w3.org/2000/svg" xmlns:svg="http://www.w3.org/2000/svg" width="24" height="24" viewBox="0 0 24 24" fill="currentColor" tags="reaction,emotion,smile,happy,feedback" categories="social">
  <path d="M 5 2 C 3.3549904 2 2 3.3549904 2 5 L 2 19 C 2 20.64501 3.3549904 22 5 22 L 19 22 C 20.64501 22 22 20.64501 22 19 L 22 9.0019531 L 22 9 C 22.001676 8.0943521 21.641583 7.2252104 21 6.5859375 L 17.414062 3 C 16.774788 2.3584154 15.905652 1.9982994 15 2 L 5 2 z M 5 4 L 14 4 L 14 8 C 14 9.0927249 14.907275 10 16 10 L 20 10 L 20 19 C 20 19.564129 19.564129 20 19 20 L 5 20 C 4.4358706 20 4 19.564129 4 19 L 4 5 C 4 4.4358706 4.4358706 4 5 4 z M 16 4.4160156 L 19.583984 8 L 16 8 L 16 4.4160156 z M 8 12 A 1 1 0 0 0 7 13 A 1 1 0 0 0 8 14 L 8.0097656 14 A 1 1 0 0 0 9.0097656 13 A 1 1 0 0 0 8.0097656 12 L 8 12 z M 16 12 A 1 1 0 0 0 15 13 A 1 1 0 0 0 16 14 L 16.009766 14 A 1 1 0 0 0 17.009766 13 A 1 1 0 0 0 16.009766 12 L 16 12 z M 9.9804688 15 A 1 1 0 0 0 9.375 15.21875 A 1 1 0 0 0 9.21875 16.625 C 9.21875 16.625 10.244444 18 12 18 C 13.812821 18 14.818359 16.574219 14.818359 16.574219 A 1 1 0 0 0 14.574219 15.181641 A 1 1 0 0 0 13.181641 15.425781 C 13.181641 15.425781 12.787179 16 12 16 C 11.355556 16 10.78125 15.375 10.78125 15.375 A 1 1 0 0 0 10.111328 15.005859 A 1 1 0 0 0 9.9804688 15 z "/>
</svg>
