<svg xmlns="http://www.w3.org/2000/svg" xmlns:svg="http://www.w3.org/2000/svg" width="24" height="24" viewBox="0 0 24 24" fill="currentColor" tags="post-it,comment,annotation,reaction,memo,reminder,todo,task,idea,brainstorm,document,page,paper,sheet,stationary,office" categories="text,social">
  <path d="M 5 2 C 3.3549904 2 2 3.3549904 2 5 L 2 19 C 2 20.64501 3.3549904 22 5 22 L 19 22 C 20.64501 22 22 20.64501 22 19 L 22 9.0019531 C 22.000006 8.9993392 22 8.9967539 22 8.9941406 C 22.00011 8.0906117 21.640194 7.2238266 21 6.5859375 L 17.414062 3 C 16.774788 2.3584154 15.905652 1.9982994 15 2 L 5 2 z M 5 4 L 14 4 L 14 8 C 14 9.0927249 14.907275 10 16 10 L 20 10 L 20 19 C 20 19.564129 19.564129 20 19 20 L 5 20 C 4.4358706 20 4 19.564129 4 19 L 4 5 C 4 4.4358706 4.4358706 4 5 4 z M 16 4.4160156 L 19.583984 8 L 16 8 L 16 4.4160156 z "/>
</svg>
