<?xml version="1.0" encoding="UTF-8" standalone="no"?>
<svg xmlns="http://www.w3.org/2000/svg" xmlns:svg="http://www.w3.org/2000/svg" width="24" height="24" viewBox="0 0 24 24" fill="currentColor" tags="reaction,emotion,smile,happy,feedback" categories="communication,social">
  
  <path d="M 5 2 C 3.3549936 2 2 3.3549936 2 5 L 2 19 C 2 20.645451 3.3545487 22 5 22 L 19 22 C 20.645006 22 22 20.645006 22 19 L 22 8.5 A 1.0001 1.0001 0 0 0 21.707031 7.7929688 L 16.207031 2.2929688 A 1.0001 1.0001 0 0 0 15.5 2 L 5 2 z M 5 4 L 14 4 L 14 9 A 1.0001 1.0001 0 0 0 15 10 L 20 10 L 20 19 C 20 19.564128 19.564128 20 19 20 L 5 20 C 4.4454557 20 4 19.554544 4 19 L 4 5 C 4 4.4358718 4.4358718 4 5 4 z M 16 4.9140625 L 19.085938 8 L 16 8 L 16 4.9140625 z M 8 12 A 1 1 0 0 0 7 13 A 1 1 0 0 0 8 14 A 1 1 0 0 0 9 13 A 1 1 0 0 0 8 12 z M 16 12 A 1 1 0 0 0 15 13 A 1 1 0 0 0 16 14 A 1 1 0 0 0 17 13 A 1 1 0 0 0 16 12 z M 13.939453 15.001953 A 1 1 0 0 0 13.181641 15.425781 C 13.181641 15.425781 12.787178 16 12 16 C 11.355557 16 10.78125 15.375 10.78125 15.375 A 1 1 0 0 0 10.111328 15.005859 A 1 1 0 0 0 9.375 15.21875 A 1 1 0 0 0 9.21875 16.625 C 9.21875 16.625 10.244448 18 12 18 C 13.812817 18 14.818359 16.574219 14.818359 16.574219 A 1 1 0 0 0 14.574219 15.181641 A 1 1 0 0 0 13.939453 15.001953 z "/>
</svg>
