<?xml version="1.0" encoding="UTF-8" standalone="no"?>
<svg xmlns="http://www.w3.org/2000/svg" xmlns:svg="http://www.w3.org/2000/svg" width="24" height="24" viewBox="0 0 24 24" fill="currentColor" tags="post-it,comment,annotation,reaction,memo,reminder,todo,task,idea,brainstorm,document,page,paper,sheet,stationary,office" categories="communication,text,social">
  <path d="M 5 2 C 3.3549936 2 2 3.3549936 2 5 L 2 19 C 2 20.645006 3.3549936 22 5 22 L 19 22 C 20.645006 22 22 20.645006 22 19 L 22 9 L 22 8 A 1.0001 1.0001 0 0 0 21.707031 7.2929688 L 16.707031 2.2929688 A 1.0001 1.0001 0 0 0 16 2 L 15 2 L 5 2 z M 5 4 L 14 4 L 14 7 C 14 8.6450064 15.354994 10 17 10 L 20 10 L 20 19 C 20 19.564128 19.564128 20 19 20 L 5 20 C 4.4358718 20 4 19.564128 4 19 L 4 5 C 4 4.4358718 4.4358718 4 5 4 z M 16 4.4140625 L 19.585938 8 L 17 8 C 16.435872 8 16 7.5641282 16 7 L 16 4.4140625 z "/>
</svg>
