<svg xmlns="http://www.w3.org/2000/svg" xmlns:svg="http://www.w3.org/2000/svg" width="24" height="24" viewBox="0 0 24 24" fill="currentColor" tags="mineral,geology,nature,solid,pebble,crystal,ore,hard,coal,stone,rock,boulder" categories="nature">
  <path d="M 9.796875 1.0039062 C 9.2368208 1.0274312 8.6874816 1.1450608 8.171875 1.3476562 A 1 1 0 0 0 8.0058594 1.4160156 C 6.9596873 1.8707898 6.0663569 2.6813626 5.5253906 3.7636719 L 1.5253906 11.763672 C 0.4012862 14.012019 1.1330667 16.765838 3.2246094 18.160156 L 9.2246094 22.160156 C 10.901851 23.278462 13.094243 23.278462 14.771484 22.160156 L 20.771484 18.160156 C 21.719296 17.528181 22.39465 16.612182 22.738281 15.583984 A 1 1 0 0 0 22.748047 15.560547 A 1 1 0 0 0 22.802734 15.373047 C 23.073366 14.427627 23.06864 13.400094 22.742188 12.419922 L 20.742188 6.4199219 C 20.244804 4.9275944 19.072406 3.7551967 17.580078 3.2578125 L 11.580078 1.2558594 C 10.991566 1.0594938 10.388197 0.97906803 9.796875 1.0039062 z M 10.017578 2.9980469 C 10.326262 3.0009116 10.639347 3.0515554 10.947266 3.1542969 L 16.947266 5.1542969 C 17.843994 5.4531713 18.544876 6.1560061 18.84375 7.0527344 L 20.84375 13.052734 C 20.922106 13.287997 20.971041 13.527348 20.990234 13.765625 L 14.699219 11.205078 L 10.017578 2.9980469 z M 8.0996094 3.671875 L 12.945312 12.171875 L 11.193359 20.890625 C 10.893395 20.806793 10.60297 20.675441 10.333984 20.496094 L 4.3339844 16.496094 C 3.0685415 15.652492 2.6343379 14.018517 3.3144531 12.658203 L 7.3144531 4.6582031 C 7.5105789 4.2658149 7.779859 3.933504 8.0996094 3.671875 z M 14.742188 13.380859 L 20.464844 15.710938 C 20.254189 16.01399 19.984469 16.281152 19.662109 16.496094 L 13.662109 20.496094 C 13.535013 20.580836 13.402915 20.655333 13.267578 20.71875 L 14.742188 13.380859 z "/>
</svg>
