<?xml version="1.0" encoding="UTF-8" standalone="no"?>
<svg xmlns="http://www.w3.org/2000/svg" xmlns:svg="http://www.w3.org/2000/svg" width="24" height="24" viewBox="0 0 24 24" fill="currentColor" tags="shop,supermarket,stand,boutique,building" categories="buildings,navigation,shopping">
  <path d="M 7.8300781 1 C 7.0309047 0.99936675 6.2645891 1.3179856 5.7011719 1.8847656 L 1.3027344 6.2832031 L 1.2929688 6.2929688 A 1 1 0 0 0 1.25 6.3417969 A 1 1 0 0 0 1.2128906 6.3847656 A 1 1 0 0 0 1.2109375 6.3867188 A 1 1 0 0 0 1.1757812 6.4394531 A 1 1 0 0 0 1.1386719 6.4921875 A 1 1 0 0 0 1.1347656 6.5 A 1 1 0 0 0 1.078125 6.6113281 A 1 1 0 0 0 1.0761719 6.6171875 A 1 1 0 0 0 1.0351562 6.7421875 A 1 1 0 0 0 1.0253906 6.7832031 A 1 1 0 0 0 1.0234375 6.7949219 A 1 1 0 0 0 1 7 L 1 10 C 1 11.295142 1.8399128 12.410315 3 12.826172 L 3 20 C 3 21.64501 4.3549904 23 6 23 L 18 23 C 19.64501 23 21 21.64501 21 20 L 21 12.826172 C 22.160087 12.410315 23 11.295143 23 10 L 23 7 A 1 1 0 0 0 22.964844 6.7382812 A 1 1 0 0 0 22.925781 6.6230469 A 1 1 0 0 0 22.921875 6.6113281 A 1 1 0 0 0 22.865234 6.5 A 1 1 0 0 0 22.861328 6.4921875 A 1 1 0 0 0 22.792969 6.390625 A 1 1 0 0 0 22.791016 6.3886719 A 1 1 0 0 0 22.787109 6.3828125 A 1 1 0 0 0 22.707031 6.2929688 A 1 1 0 0 0 22.699219 6.2851562 L 18.298828 1.8847656 C 17.735411 1.3179856 16.969095 0.99936675 16.169922 1 L 7.8300781 1 z M 7.8300781 3 L 16.169922 3 C 16.436838 2.9997885 16.692684 3.1056231 16.880859 3.2949219 A 1.0001 1.0001 0 0 0 16.882812 3.296875 L 19.585938 6 L 4.4140625 6 L 7.1171875 3.296875 A 1.0001 1.0001 0 0 0 7.1191406 3.2949219 C 7.3073193 3.10562 7.5631624 2.9997885 7.8300781 3 z M 3 8 L 21 8 L 21 10 C 21 10.554133 20.574964 10.975156 20.025391 10.990234 C 19.669179 10.963824 19.328429 10.835811 19.054688 10.605469 A 1.0001 1.0001 0 0 0 18.996094 10.558594 C 18.404894 10.131368 17.595106 10.131368 17.003906 10.558594 A 1.0001 1.0001 0 0 0 16.945312 10.605469 C 16.678702 10.82981 16.346018 10.949104 16 10.980469 C 15.653982 10.949109 15.321298 10.82981 15.054688 10.605469 A 1.0001 1.0001 0 0 0 14.996094 10.558594 C 14.404894 10.131368 13.595106 10.131368 13.003906 10.558594 A 1.0001 1.0001 0 0 0 12.945312 10.605469 C 12.678702 10.82981 12.346018 10.949104 12 10.980469 C 11.653982 10.949109 11.321297 10.82981 11.054688 10.605469 A 1.0001 1.0001 0 0 0 10.996094 10.558594 C 10.404894 10.131368 9.5951057 10.131368 9.0039062 10.558594 A 1.0001 1.0001 0 0 0 8.9453125 10.605469 C 8.6786842 10.82981 8.3460176 10.949104 8 10.980469 C 7.6539824 10.949104 7.321298 10.82981 7.0546875 10.605469 A 1.0001 1.0001 0 0 0 6.9960938 10.558594 C 6.4048944 10.131368 5.5951058 10.131368 5.0039062 10.558594 A 1.0001 1.0001 0 0 0 4.9453125 10.605469 C 4.6715711 10.835811 4.330821 10.963822 3.9746094 10.990234 C 3.4250364 10.975156 3 10.554133 3 10 L 3 8 z M 5.7832031 12.146484 C 5.8114434 12.159619 5.8465006 12.160817 5.8730469 12.177734 C 5.8626767 12.176611 5.8481824 12.182395 5.8378906 12.183594 C 5.8367694 12.183614 5.8331259 12.183715 5.8320312 12.183594 L 5.8300781 12.183594 L 5.828125 12.181641 L 5.8261719 12.181641 L 5.8242188 12.179688 L 5.7832031 12.146484 z M 6.2167969 12.146484 L 6.1757812 12.179688 L 6.1738281 12.181641 L 6.171875 12.181641 L 6.1699219 12.183594 L 6.1679688 12.183594 L 6.1660156 12.183594 C 6.164921 12.183715 6.1612775 12.183614 6.1601562 12.183594 C 6.1498643 12.182395 6.137323 12.176611 6.1269531 12.177734 L 6.1269531 12.175781 C 6.1534993 12.158864 6.1885565 12.159619 6.2167969 12.146484 z M 9.7832031 12.146484 C 9.8114434 12.159619 9.8465005 12.160817 9.8730469 12.177734 C 9.8626766 12.176611 9.8481824 12.182395 9.8378906 12.183594 C 9.8367694 12.183614 9.8331258 12.183715 9.8320312 12.183594 L 9.8300781 12.183594 L 9.828125 12.181641 L 9.8261719 12.181641 L 9.8242188 12.179688 L 9.7832031 12.146484 z M 10.216797 12.146484 L 10.175781 12.179688 L 10.173828 12.181641 L 10.171875 12.181641 L 10.169922 12.183594 L 10.167969 12.183594 L 10.166016 12.183594 C 10.164921 12.183715 10.161277 12.183614 10.160156 12.183594 C 10.149865 12.182395 10.137325 12.176611 10.126953 12.177734 L 10.126953 12.175781 C 10.153502 12.158862 10.188555 12.159623 10.216797 12.146484 z M 13.783203 12.146484 C 13.811445 12.159622 13.846498 12.160816 13.873047 12.177734 C 13.862675 12.176611 13.848182 12.182395 13.837891 12.183594 C 13.836769 12.183614 13.833126 12.183715 13.832031 12.183594 L 13.830078 12.183594 L 13.828125 12.181641 L 13.826172 12.181641 L 13.824219 12.179688 L 13.783203 12.146484 z M 14.216797 12.146484 L 14.175781 12.179688 L 14.173828 12.181641 L 14.171875 12.181641 L 14.169922 12.183594 L 14.167969 12.183594 L 14.166016 12.183594 C 14.164921 12.183715 14.161277 12.183614 14.160156 12.183594 C 14.149865 12.182395 14.137325 12.176611 14.126953 12.177734 L 14.126953 12.175781 C 14.153502 12.158862 14.188555 12.159623 14.216797 12.146484 z M 17.783203 12.146484 C 17.811445 12.159622 17.846498 12.160816 17.873047 12.177734 C 17.862678 12.176611 17.848184 12.182395 17.837891 12.183594 C 17.836769 12.183614 17.833126 12.183715 17.832031 12.183594 L 17.830078 12.183594 L 17.828125 12.181641 L 17.826172 12.181641 L 17.824219 12.179688 L 17.783203 12.146484 z M 18.216797 12.146484 L 18.175781 12.179688 L 18.173828 12.181641 L 18.171875 12.181641 L 18.169922 12.183594 L 18.167969 12.183594 L 18.166016 12.183594 C 18.164921 12.183715 18.161277 12.183614 18.160156 12.183594 C 18.149865 12.182395 18.137325 12.176611 18.126953 12.177734 L 18.126953 12.175781 C 18.153499 12.158864 18.188556 12.159618 18.216797 12.146484 z M 6 12.228516 C 6.5753044 12.647701 7.2309897 12.958731 7.9453125 12.998047 A 1.0001 1.0001 0 0 0 8.0546875 12.998047 C 8.7690103 12.958731 9.4246956 12.647701 10 12.228516 C 10.575304 12.647701 11.230989 12.958731 11.945312 12.998047 A 1.0001 1.0001 0 0 0 12.054688 12.998047 C 12.769009 12.958731 13.424696 12.647701 14 12.228516 C 14.575304 12.647701 15.230989 12.958731 15.945312 12.998047 A 1.0001 1.0001 0 0 0 16.054688 12.998047 C 16.769011 12.958731 17.424696 12.647701 18 12.228516 C 18.31099 12.455113 18.645468 12.649556 19 12.787109 L 19 20 C 19 20.564129 18.564129 21 18 21 L 16 21 L 16 18 C 16 16.35499 14.64501 15 13 15 L 11 15 C 9.3549904 15 8 16.35499 8 18 L 8 21 L 6 21 C 5.4358706 21 5 20.564129 5 20 L 5 12.787109 C 5.3545319 12.649564 5.6890101 12.455113 6 12.228516 z M 11 17 L 13 17 C 13.564129 17 14 17.435871 14 18 L 14 21 L 10 21 L 10 18 C 10 17.435871 10.435871 17 11 17 z "/>
</svg>
