<?xml version="1.0" encoding="UTF-8" standalone="no"?>
<svg xmlns="http://www.w3.org/2000/svg" xmlns:svg="http://www.w3.org/2000/svg" width="24" height="24" viewBox="0 0 24 24" fill="currentColor" tags="shop,supermarket,stand,boutique,building" categories="buildings,maps">
  
  <path d="M 7.8300781 1 C 7.0309063 0.99936675 6.2645879 1.3179867 5.7011719 1.8847656 L 1.2929688 6.2929688 A 1 1 0 0 0 1 7 L 1 10 C 1 11.294749 1.840457 12.406112 3 12.822266 L 3 20 C 3 21.645006 4.3549936 23 6 23 L 18 23 C 19.645006 23 21 21.645006 21 20 L 21 12.822266 C 22.159543 12.406112 23 11.294749 23 10 L 23 7 A 1 1 0 0 0 22.998047 6.9667969 A 1 1 0 0 0 22.994141 6.9023438 A 1 1 0 0 0 22.990234 6.859375 A 1 1 0 0 0 22.990234 6.8574219 A 1 1 0 0 0 22.988281 6.8476562 A 1 1 0 0 0 22.976562 6.7871094 A 1 1 0 0 0 22.974609 6.78125 A 1 1 0 0 0 22.958984 6.71875 A 1 1 0 0 0 22.947266 6.6835938 A 1 1 0 0 0 22.929688 6.6328125 A 1 1 0 0 0 22.917969 6.6054688 A 1 1 0 0 0 22.882812 6.5351562 A 1 1 0 0 0 22.876953 6.5214844 A 1 1 0 0 0 22.873047 6.5136719 A 1 1 0 0 0 22.859375 6.4902344 A 1 1 0 0 0 22.818359 6.4277344 A 1 1 0 0 0 22.800781 6.4003906 A 1 1 0 0 0 22.792969 6.390625 A 1 1 0 0 0 22.771484 6.3652344 A 1 1 0 0 0 22.736328 6.3261719 A 1 1 0 0 0 22.707031 6.2929688 L 18.298828 1.8847656 C 17.735412 1.3179867 16.969094 0.99936675 16.169922 1 L 7.8300781 1 z M 7.8300781 3 L 16.169922 3 C 16.436837 2.9997885 16.692685 3.1056235 16.880859 3.2949219 A 1.0001 1.0001 0 0 0 16.882812 3.296875 L 19.585938 6 L 4.4140625 6 L 7.1171875 3.296875 A 1.0001 1.0001 0 0 0 7.1191406 3.2949219 C 7.3073189 3.1056204 7.563163 2.9997885 7.8300781 3 z M 3 8 L 21 8 L 21 10 C 21 10.554131 20.574962 10.975156 20.025391 10.990234 C 19.669179 10.963824 19.328429 10.835811 19.054688 10.605469 A 1.0001 1.0001 0 0 0 18.996094 10.558594 C 18.404895 10.131368 17.595105 10.131368 17.003906 10.558594 A 1.0001 1.0001 0 0 0 16.945312 10.605469 C 16.678703 10.82981 16.346017 10.949104 16 10.980469 C 15.653983 10.949109 15.321297 10.82981 15.054688 10.605469 A 1.0001 1.0001 0 0 0 14.996094 10.558594 C 14.404895 10.131368 13.595105 10.131368 13.003906 10.558594 A 1.0001 1.0001 0 0 0 12.945312 10.605469 C 12.678702 10.82981 12.346017 10.949104 12 10.980469 C 11.653983 10.949109 11.321297 10.82981 11.054688 10.605469 A 1.0001 1.0001 0 0 0 10.996094 10.558594 C 10.404895 10.131368 9.5951045 10.131368 9.0039062 10.558594 A 1.0001 1.0001 0 0 0 8.9453125 10.605469 C 8.6786847 10.82981 8.346017 10.949104 8 10.980469 C 7.653983 10.949104 7.3212975 10.82981 7.0546875 10.605469 A 1.0001 1.0001 0 0 0 6.9960938 10.558594 C 6.4048955 10.131368 5.5951046 10.131368 5.0039062 10.558594 A 1.0001 1.0001 0 0 0 4.9453125 10.605469 C 4.6715716 10.835811 4.3308202 10.963822 3.9746094 10.990234 C 3.4250374 10.975156 3 10.554131 3 10 L 3 8 z M 5.765625 12.134766 C 5.797512 12.161596 5.8462171 12.154018 5.8789062 12.179688 C 5.8611913 12.171788 5.8400447 12.191127 5.8242188 12.179688 L 5.765625 12.134766 z M 6.234375 12.134766 L 6.1757812 12.179688 C 6.1599543 12.191127 6.1388077 12.171788 6.1210938 12.179688 C 6.1537827 12.154018 6.202488 12.161596 6.234375 12.134766 z M 9.765625 12.134766 C 9.797512 12.161596 9.846217 12.154018 9.8789062 12.179688 C 9.8611913 12.171788 9.8400447 12.191127 9.8242188 12.179688 L 9.765625 12.134766 z M 10.234375 12.134766 L 10.175781 12.179688 C 10.159951 12.191127 10.138814 12.171788 10.121094 12.179688 C 10.153784 12.154018 10.202485 12.161596 10.234375 12.134766 z M 13.765625 12.134766 C 13.797515 12.161596 13.846215 12.154018 13.878906 12.179688 C 13.861186 12.171788 13.840049 12.191127 13.824219 12.179688 L 13.765625 12.134766 z M 14.234375 12.134766 L 14.175781 12.179688 C 14.159951 12.191127 14.138814 12.171788 14.121094 12.179688 C 14.153784 12.154018 14.202485 12.161596 14.234375 12.134766 z M 17.765625 12.134766 C 17.797515 12.161596 17.846215 12.154018 17.878906 12.179688 C 17.861196 12.171788 17.840049 12.191127 17.824219 12.179688 L 17.765625 12.134766 z M 18.234375 12.134766 L 18.175781 12.179688 C 18.159951 12.191127 18.138814 12.171788 18.121094 12.179688 C 18.153784 12.154018 18.202484 12.161596 18.234375 12.134766 z M 6 12.228516 C 6.5753033 12.647699 7.2309911 12.958731 7.9453125 12.998047 A 1.0001 1.0001 0 0 0 8.0546875 12.998047 C 8.7690089 12.958731 9.4246967 12.647699 10 12.228516 C 10.575303 12.647699 11.23099 12.958731 11.945312 12.998047 A 1.0001 1.0001 0 0 0 12.054688 12.998047 C 12.769009 12.958731 13.424697 12.647699 14 12.228516 C 14.575303 12.647699 15.23099 12.958731 15.945312 12.998047 A 1.0001 1.0001 0 0 0 16.054688 12.998047 C 16.76901 12.958731 17.424697 12.647699 18 12.228516 C 18.310836 12.455 18.645663 12.647614 19 12.785156 L 19 20 C 19 20.564128 18.564128 21 18 21 L 16 21 L 16 18 C 16 16.354994 14.645006 15 13 15 L 11 15 C 9.3549936 15 8 16.354994 8 18 L 8 21 L 6 21 C 5.4358718 21 5 20.564128 5 20 L 5 12.785156 C 5.3543367 12.647622 5.6891643 12.455 6 12.228516 z M 11 17 L 13 17 C 13.564128 17 14 17.435872 14 18 L 14 21 L 10 21 L 10 18 C 10 17.435872 10.435872 17 11 17 z "/>
</svg>
