<?xml version="1.0" encoding="UTF-8" standalone="no"?>
<svg xmlns="http://www.w3.org/2000/svg" xmlns:svg="http://www.w3.org/2000/svg" width="24" height="24" viewBox="0 0 24 24" fill="currentColor" tags="shop,supermarket,stand,boutique,building" categories="buildings,navigation,shopping">
  <path d="M 7 1 C 6.0087762 0.99981743 5.0796926 1.4918697 4.5214844 2.3105469 L 4.5195312 2.3125 L 1.6367188 6.4863281 L 1.6367188 6.4882812 L 1.6347656 6.4902344 L 1.6347656 6.4921875 L 1.6328125 6.4941406 C 0.49245903 8.1221245 1.0054951 10.110443 2.2148438 11.152344 C 2.4488024 11.353908 2.7139926 11.524069 3 11.658203 L 3 19 C 3 20.64501 4.3549904 22 6 22 L 9 22 L 15 22 L 18 22 C 19.64501 22 21 20.64501 21 19 L 21 11.664062 C 21.285965 11.530383 21.551085 11.359403 21.785156 11.158203 C 22.998236 10.115482 23.513034 8.1211718 22.365234 6.4902344 L 22.371094 6.4960938 L 19.478516 2.3085938 C 18.91991 1.4898465 17.991082 0.99961954 17 1 L 7 1 z M 7 3 L 17 3 C 17.331842 2.9998726 17.639179 3.1614066 17.826172 3.4355469 A 1.0001 1.0001 0 0 0 17.830078 3.4414062 L 20.724609 7.6328125 A 1.0001 1.0001 0 0 0 20.730469 7.640625 C 21.323882 8.4838213 21.04355 9.15662 20.480469 9.640625 C 20.331631 9.7685608 20.172949 9.8749994 20.005859 9.9492188 A 1 1 0 0 0 20 9.9492188 A 1 1 0 0 0 19.535156 10.0625 C 19.19611 10.076482 18.835322 9.9428458 18.464844 9.5878906 C 17.652497 8.810227 16.34555 8.810227 15.533203 9.5878906 C 14.946228 10.145782 14.05108 10.1451 13.464844 9.5859375 L 13.464844 9.5878906 C 12.652719 8.8114014 11.347281 8.8114014 10.535156 9.5878906 L 10.535156 9.5859375 C 9.9481613 10.146134 9.0518389 10.146134 8.4648438 9.5859375 L 8.4648438 9.5878906 C 7.6524966 8.810227 6.3455503 8.810227 5.5332031 9.5878906 C 5.1611861 9.9419632 4.7991138 10.075844 4.4589844 10.060547 A 1 1 0 0 0 4 9.9492188 C 3.8310925 9.8751323 3.6696178 9.7679773 3.5195312 9.6386719 C 2.9574089 9.1543818 2.6804583 8.4807813 3.2734375 7.6386719 A 1.0001 1.0001 0 0 0 3.2773438 7.6308594 L 6.1660156 3.4453125 A 1.0001 1.0001 0 0 0 6.171875 3.4394531 C 6.3586075 3.163909 6.6671425 2.9999387 7 3 z M 7 10.994141 C 7.0280399 10.994141 7.0551033 11.007423 7.0820312 11.033203 A 1.0001 1.0001 0 0 0 7.0839844 11.033203 C 8.4290092 12.316821 10.570991 12.316821 11.916016 11.033203 A 1.0001 1.0001 0 0 0 11.917969 11.033203 C 11.971789 10.981743 12.028215 10.981743 12.082031 11.033203 A 1.0001 1.0001 0 0 0 12.083984 11.033203 C 13.428836 12.315945 15.571164 12.315945 16.916016 11.033203 C 16.969876 10.981643 17.028175 10.981643 17.082031 11.033203 A 1 1 0 0 0 17.085938 11.033203 C 17.658185 11.580126 18.326447 11.877353 19 11.970703 L 19 19 C 19 19.564129 18.564129 20 18 20 L 16 20 L 16 16 C 16 14.907275 15.092725 14 14 14 L 10 14 C 8.9072751 14 8 14.907275 8 16 L 8 20 L 6 20 C 5.4358706 20 5 19.564129 5 19 L 5 11.96875 C 5.6740606 11.876339 6.3429445 11.580064 6.9160156 11.033203 C 6.9429436 11.007423 6.9719601 10.994141 7 10.994141 z M 10 16 L 14 16 L 14 20 L 10 20 L 10 16 z "/>
</svg>
