<?xml version="1.0" encoding="UTF-8" standalone="no"?>
<svg xmlns="http://www.w3.org/2000/svg" xmlns:svg="http://www.w3.org/2000/svg" width="24" height="24" viewBox="0 0 24 24" fill="currentColor" tags="items,flex,justify,distribute" categories="layout">
  <path d="M 4 3 C 2.3552972 3 1 4.3552972 1 6 L 1 8 C 1 9.6447028 2.3552972 11 4 11 L 20 11 C 21.644703 11 23 9.6447028 23 8 L 23 6 C 23 4.3552972 21.644703 3 20 3 L 4 3 z M 4 5 L 20 5 C 20.571297 5 21 5.4287028 21 6 L 21 8 C 21 8.5712972 20.571297 9 20 9 L 4 9 C 3.4287028 9 3 8.5712972 3 8 L 3 6 C 3 5.4287028 3.4287028 5 4 5 z M 4 13 C 2.3552972 13 1 14.355297 1 16 L 1 18 C 1 19.644703 2.3552972 21 4 21 L 20 21 C 21.644703 21 23 19.644703 23 18 L 23 16 C 23 14.355297 21.644703 13 20 13 L 4 13 z M 4 15 L 20 15 C 20.571297 15 21 15.428703 21 16 L 21 18 C 21 18.571297 20.571297 19 20 19 L 4 19 C 3.4287028 19 3 18.571297 3 18 L 3 16 C 3 15.428703 3.4287028 15 4 15 z "/>
</svg>
