<?xml version="1.0" encoding="UTF-8" standalone="no"?>
<svg xmlns="http://www.w3.org/2000/svg" xmlns:svg="http://www.w3.org/2000/svg" width="24" height="24" viewBox="0 0 24 24" fill="currentColor" tags="items,flex,justify,distribute" categories="layout">
  <path d="M 6 1 C 4.3552972 1 3 2.3552972 3 4 L 3 20 C 3 21.644703 4.3552972 23 6 23 L 8 23 C 9.6447028 23 11 21.644703 11 20 L 11 4 C 11 2.3552972 9.6447028 1 8 1 L 6 1 z M 16 1 C 14.355297 1 13 2.3552972 13 4 L 13 20 C 13 21.644703 14.355297 23 16 23 L 18 23 C 19.644703 23 21 21.644703 21 20 L 21 4 C 21 2.3552972 19.644703 1 18 1 L 16 1 z M 6 3 L 8 3 C 8.5712972 3 9 3.4287028 9 4 L 9 20 C 9 20.571297 8.5712972 21 8 21 L 6 21 C 5.4287028 21 5 20.571297 5 20 L 5 4 C 5 3.4287028 5.4287028 3 6 3 z M 16 3 L 18 3 C 18.571297 3 19 3.4287028 19 4 L 19 20 C 19 20.571297 18.571297 21 18 21 L 16 21 C 15.428703 21 15 20.571297 15 20 L 15 4 C 15 3.4287028 15.428703 3 16 3 z "/>
</svg>
