<?xml version="1.0" encoding="UTF-8" standalone="no"?>
<svg xmlns="http://www.w3.org/2000/svg" xmlns:svg="http://www.w3.org/2000/svg" width="24" height="24" viewBox="0 0 24 24" fill="currentColor" tags="cross out,delete,remove,format" categories="text">
  <path d="M 9 3 C 6.2692407 2.9985682 4.3163089 5.7593996 5.2265625 8.3339844 A 1 1 0 0 0 6.5039062 8.9433594 A 1 1 0 0 0 7.1132812 7.6660156 C 6.6427227 6.3350756 7.5883251 4.9992598 9 5 L 16 5 A 1 1 0 0 0 17 4 A 1 1 0 0 0 16 3 L 9 3 z M 4 11 A 1 1 0 0 0 3 12 A 1 1 0 0 0 4 13 L 14 13 C 15.083333 13 15.768559 13.370244 16.251953 13.914062 C 16.735347 14.45788 17 15.222222 17 16 C 17 16.777778 16.735347 17.542119 16.251953 18.085938 C 15.768559 18.629756 15.083333 19 14 19 L 6 19 A 1 1 0 0 0 5 20 A 1 1 0 0 0 6 21 L 14 21 C 15.583333 21 16.898108 20.370244 17.748047 19.414062 C 18.597986 18.457881 19 17.222222 19 16 C 19 14.947636 18.701556 13.88531 18.076172 13 L 20 13 A 1 1 0 0 0 21 12 A 1 1 0 0 0 20 11 L 14 11 L 4 11 z "/>
</svg>
