<svg xmlns="http://www.w3.org/2000/svg" xmlns:svg="http://www.w3.org/2000/svg" width="24" height="24" viewBox="0 0 24 24" fill="currentColor" tags="weather,air conditioning,temperature,hot,cold,seasons" categories="weather">
  <path d="M 10 2 A 1 1 0 0 0 9 3 L 9 4 A 1 1 0 0 0 10 5 A 1 1 0 0 0 11 4 L 11 3 A 1 1 0 0 0 10 2 z M 16.939453 2.0019531 A 1 1 0 0 0 16.105469 2.5527344 L 15.25 4.2636719 L 14.894531 3.5527344 A 1 1 0 0 0 14.316406 3.0507812 A 1 1 0 0 0 13.552734 3.1054688 A 1 1 0 0 0 13.105469 4.4472656 L 14.132812 6.5 L 13.105469 8.5527344 A 1.0001 1.0001 0 0 0 13.105469 9.4472656 L 14.382812 12 L 13.105469 14.552734 A 1.0001 1.0001 0 0 0 13.105469 15.447266 L 14.132812 17.5 L 13.105469 19.552734 A 1 1 0 0 0 13.552734 20.894531 A 1 1 0 0 0 14.894531 20.447266 L 15.25 19.736328 L 16.105469 21.447266 A 1 1 0 0 0 17.447266 21.894531 A 1 1 0 0 0 17.894531 20.552734 L 17.039062 18.841797 L 17.820312 18.984375 A 1 1 0 0 0 18.984375 18.179688 A 1 1 0 0 0 18.179688 17.015625 L 15.919922 16.605469 L 15.117188 15 L 16.117188 13 L 18 13 L 19.199219 14.599609 A 1 1 0 0 0 20.599609 14.800781 A 1 1 0 0 0 20.800781 13.400391 L 20.5 13 L 22 13 A 1 1 0 0 0 23 12 A 1 1 0 0 0 22 11 L 20.5 11 L 20.800781 10.599609 A 1 1 0 0 0 20.599609 9.1992188 A 1 1 0 0 0 19.859375 9.0097656 A 1 1 0 0 0 19.199219 9.4003906 L 18 11 L 16.117188 11 L 15.117188 9 L 15.919922 7.3945312 L 18.179688 6.984375 A 1 1 0 0 0 18.984375 5.8203125 A 1 1 0 0 0 17.820312 5.015625 L 17.039062 5.1582031 L 17.894531 3.4472656 A 1 1 0 0 0 17.447266 2.1054688 A 1 1 0 0 0 16.939453 2.0019531 z M 3.640625 4.640625 A 1 1 0 0 0 2.9335938 4.9335938 A 1 1 0 0 0 2.9335938 6.3476562 L 3.6328125 7.046875 A 1 1 0 0 0 5.046875 7.046875 A 1 1 0 0 0 5.046875 5.6328125 L 4.3476562 4.9335938 A 1 1 0 0 0 3.640625 4.640625 z M 10 8 C 8.7500003 8 7.6852256 8.5047556 7.0019531 9.2734375 C 6.3186806 10.042119 6 11.027778 6 12 C 6 12.972222 6.3186806 13.95788 7.0019531 14.726562 C 7.6852256 15.495243 8.7500003 16 10 16 A 1 1 0 0 0 11 15 A 1 1 0 0 0 10 14 C 9.2500005 14 8.8147739 13.754756 8.4980469 13.398438 C 8.1813198 13.042118 8 12.527778 8 12 C 8 11.472222 8.1813198 10.95788 8.4980469 10.601562 C 8.8147739 10.245243 9.2500005 10 10 10 A 1 1 0 0 0 11 9 A 1 1 0 0 0 10 8 z M 2 11 A 1 1 0 0 0 1 12 A 1 1 0 0 0 2 13 L 3 13 A 1 1 0 0 0 4 12 A 1 1 0 0 0 3 11 L 2 11 z M 4.3398438 16.660156 A 1 1 0 0 0 3.6328125 16.953125 L 2.9335938 17.652344 A 1 1 0 0 0 2.9335938 19.066406 A 1 1 0 0 0 4.3476562 19.066406 L 5.046875 18.367188 A 1 1 0 0 0 5.046875 16.953125 A 1 1 0 0 0 4.3398438 16.660156 z M 10 19 A 1 1 0 0 0 9 20 L 9 21 A 1 1 0 0 0 10 22 A 1 1 0 0 0 11 21 L 11 20 A 1 1 0 0 0 10 19 z "/>
</svg>
