<?xml version="1.0" encoding="UTF-8" standalone="no"?>
<svg xmlns="http://www.w3.org/2000/svg" xmlns:svg="http://www.w3.org/2000/svg" width="24" height="24" viewBox="0 0 24 24" fill="currentColor" tags="brightness,medium" categories="accessibility,weather">
  <path d="M 12 2 A 1 1 0 0 0 11 3 L 11 4 A 1 1 0 0 0 12 5 A 1 1 0 0 0 13 4 L 13 3 A 1 1 0 0 0 12 2 z M 18.363281 4.6367188 A 1 1 0 0 0 17.65625 4.9296875 L 16.949219 5.6367188 A 1 1 0 0 0 16.949219 7.0507812 A 1 1 0 0 0 18.363281 7.0507812 L 19.070312 6.34375 A 1 1 0 0 0 19.070312 4.9296875 A 1 1 0 0 0 18.363281 4.6367188 z M 5.5488281 4.640625 A 1 1 0 0 0 4.9296875 4.9296875 A 1 1 0 0 0 4.9296875 6.34375 L 5.6367188 7.0507812 A 1 1 0 0 0 7.0507812 7.0507812 A 1 1 0 0 0 7.0507812 5.6367188 L 6.34375 4.9296875 A 1 1 0 0 0 5.5488281 4.640625 z M 12 7 C 9.2504263 7 7 9.2504263 7 12 C 7 14.749573 9.2504263 17 12 17 C 14.749573 17 17 14.749573 17 12 C 17 9.2504263 14.749573 7 12 7 z M 12 9 C 13.668695 9 15 10.331305 15 12 C 15 13.668695 13.668695 15 12 15 C 10.331305 15 9 13.668695 9 12 C 9 10.331305 10.331305 9 12 9 z M 3 11 A 1 1 0 0 0 2 12 A 1 1 0 0 0 3 13 L 4 13 A 1 1 0 0 0 5 12 A 1 1 0 0 0 4 11 L 3 11 z M 20 11 A 1 1 0 0 0 19 12 A 1 1 0 0 0 20 13 L 21 13 A 1 1 0 0 0 22 12 A 1 1 0 0 0 21 11 L 20 11 z M 6.34375 16.65625 A 1 1 0 0 0 5.6367188 16.949219 L 4.9296875 17.65625 A 1 1 0 0 0 4.9296875 19.070312 A 1 1 0 0 0 6.34375 19.070312 L 7.0507812 18.363281 A 1 1 0 0 0 7.0507812 16.949219 A 1 1 0 0 0 6.34375 16.65625 z M 17.568359 16.660156 A 1 1 0 0 0 16.949219 16.949219 A 1 1 0 0 0 16.949219 18.363281 L 17.65625 19.070312 A 1 1 0 0 0 19.070312 19.070312 A 1 1 0 0 0 19.070312 17.65625 L 18.363281 16.949219 A 1 1 0 0 0 17.568359 16.660156 z M 12 19 A 1 1 0 0 0 11 20 L 11 21 A 1 1 0 0 0 12 22 A 1 1 0 0 0 13 21 L 13 20 A 1 1 0 0 0 12 19 z "/>
</svg>
