<?xml version="1.0" encoding="UTF-8" standalone="no"?>
<svg xmlns="http://www.w3.org/2000/svg" xmlns:svg="http://www.w3.org/2000/svg" width="24" height="24" viewBox="0 0 24 24" fill="currentColor" tags="night,dark,light,moon,sun,brightness,theme,auto theme,system theme,appearance" categories="accessibility">
  <path d="M 12 1 A 1 1 0 0 0 11 2 L 11 4 A 1 1 0 0 0 12 5 A 1 1 0 0 0 13 4 L 13 2 A 1 1 0 0 0 12 1 z M 4.9003906 3.9003906 A 1 1 0 0 0 4.1933594 4.1933594 A 1 1 0 0 0 4.1933594 5.6074219 L 5.59375 7.0078125 A 1 1 0 0 0 7.0078125 7.0078125 A 1 1 0 0 0 7.0078125 5.59375 L 5.6074219 4.1933594 A 1 1 0 0 0 4.9003906 3.9003906 z M 19.099609 3.9003906 A 1 1 0 0 0 18.392578 4.1933594 L 16.992188 5.59375 A 1 1 0 0 0 16.992188 7.0078125 A 1 1 0 0 0 18.40625 7.0078125 L 19.806641 5.6074219 A 1 1 0 0 0 19.806641 4.1933594 A 1 1 0 0 0 19.099609 3.9003906 z M 12 7 C 9.8150858 7 8.0967601 8.3573748 7.3808594 10.085938 C 6.6649586 11.814499 6.9200184 13.990331 8.4648438 15.535156 C 10.009669 17.079982 12.1855 17.335041 13.914062 16.619141 C 15.642624 15.903239 17 14.184914 17 12 A 1.0001 1.0001 0 0 0 15.316406 11.269531 C 14.830542 11.724031 14.397533 11.835352 13.970703 11.804688 C 13.543874 11.774018 13.107361 11.560486 12.773438 11.226562 C 12.439513 10.892638 12.225977 10.456126 12.195312 10.029297 C 12.164643 9.6024674 12.275973 9.1694582 12.730469 8.6835938 A 1 1 0 0 0 12.96875 8.03125 A 1 1 0 0 0 13 8 A 1 1 0 0 0 12.960938 7.7988281 A 1 1 0 0 0 12.935547 7.6738281 A 1 1 0 0 0 12.691406 7.2832031 A 1 1 0 0 0 12.683594 7.2695312 A 1 1 0 0 0 12.671875 7.2695312 A 1 1 0 0 0 12 7 z M 10.294922 9.5195312 C 10.269092 9.738103 10.185834 9.9583831 10.201172 10.171875 C 10.270332 11.134467 10.714809 11.996059 11.359375 12.640625 C 12.003941 13.285191 12.865533 13.729671 13.828125 13.798828 C 14.041617 13.814168 14.261897 13.730908 14.480469 13.705078 C 14.148296 14.184395 13.686311 14.54872 13.148438 14.771484 C 12.092796 15.208689 10.853805 15.095993 9.8789062 14.121094 C 8.9040073 13.146195 8.7913115 11.907203 9.2285156 10.851562 C 9.4512812 10.313688 9.8156055 9.8517036 10.294922 9.5195312 z M 2 11 A 1 1 0 0 0 1 12 A 1 1 0 0 0 2 13 L 4 13 A 1 1 0 0 0 5 12 A 1 1 0 0 0 4 11 L 2 11 z M 20 11 A 1 1 0 0 0 19 12 A 1 1 0 0 0 20 13 L 22 13 A 1 1 0 0 0 23 12 A 1 1 0 0 0 22 11 L 20 11 z M 6.3007812 16.699219 A 1 1 0 0 0 5.59375 16.992188 L 4.1933594 18.392578 A 1 1 0 0 0 4.1933594 19.806641 A 1 1 0 0 0 5.6074219 19.806641 L 7.0078125 18.40625 A 1 1 0 0 0 7.0078125 16.992188 A 1 1 0 0 0 6.3007812 16.699219 z M 17.611328 16.703125 A 1 1 0 0 0 16.992188 16.992188 A 1 1 0 0 0 16.992188 18.40625 L 18.392578 19.806641 A 1 1 0 0 0 19.806641 19.806641 A 1 1 0 0 0 19.806641 18.392578 L 18.40625 16.992188 A 1 1 0 0 0 17.611328 16.703125 z M 12 19 A 1 1 0 0 0 11 20 L 11 22 A 1 1 0 0 0 12 23 A 1 1 0 0 0 13 22 L 13 20 A 1 1 0 0 0 12 19 z "/>
</svg>
