<?xml version="1.0" encoding="UTF-8" standalone="no"?>
<svg xmlns="http://www.w3.org/2000/svg" xmlns:svg="http://www.w3.org/2000/svg" width="24" height="24" viewBox="0 0 24 24" fill="currentColor" tags="night,dark,light,moon,sun,brightness,theme,auto theme,system theme,appearance" categories="accessibility">
  <path d="M 12 1 A 1 1 0 0 0 11 2 L 11 4 A 1 1 0 0 0 12 5 A 1 1 0 0 0 13 4 L 13 2 A 1 1 0 0 0 12 1 z M 4.9003906 3.9003906 A 1 1 0 0 0 4.1933594 4.1933594 A 1 1 0 0 0 4.1933594 5.6074219 L 5.59375 7.0078125 A 1 1 0 0 0 7.0078125 7.0078125 A 1 1 0 0 0 7.0078125 5.59375 L 5.6074219 4.1933594 A 1 1 0 0 0 4.9003906 3.9003906 z M 19.099609 3.9003906 A 1 1 0 0 0 18.392578 4.1933594 L 16.992188 5.59375 A 1 1 0 0 0 16.992188 7.0078125 A 1 1 0 0 0 18.40625 7.0078125 L 19.806641 5.6074219 A 1 1 0 0 0 19.806641 4.1933594 A 1 1 0 0 0 19.099609 3.9003906 z M 12 7 C 9.8150815 7 8.0967615 8.3573714 7.3808594 10.085938 C 6.6649572 11.814502 6.9200154 13.990328 8.4648438 15.535156 C 10.009672 17.079985 12.185496 17.335043 13.914062 16.619141 C 15.642627 15.903238 17 14.184919 17 12 A 1.0001 1.0001 0 0 0 15.316406 11.269531 C 14.830541 11.724032 14.397533 11.835352 13.970703 11.804688 C 13.543873 11.774017 13.107362 11.560488 12.773438 11.226562 C 12.439512 10.892637 12.225977 10.456127 12.195312 10.029297 C 12.164642 9.6024666 12.275973 9.1694591 12.730469 8.6835938 A 1 1 0 0 0 12.980469 8.0195312 A 1 1 0 0 0 13 8 A 1 1 0 0 0 12.990234 7.9902344 A 1 1 0 0 0 12.683594 7.2695312 A 1 1 0 0 0 12.283203 7.2832031 A 1 1 0 0 0 12 7 z M 10.294922 9.5195312 C 10.269092 9.7381035 10.185834 9.9583827 10.201172 10.171875 C 10.270332 11.134469 10.714807 11.996057 11.359375 12.640625 C 12.003943 13.285193 12.865531 13.729671 13.828125 13.798828 C 14.041617 13.814168 14.261896 13.730908 14.480469 13.705078 C 14.148296 14.184395 13.686312 14.548718 13.148438 14.771484 C 12.092793 15.208689 10.853807 15.095995 9.8789062 14.121094 C 8.9040054 13.146193 8.7913106 11.907205 9.2285156 10.851562 C 9.4512816 10.313688 9.8156045 9.8517044 10.294922 9.5195312 z M 2 11 A 1 1 0 0 0 1 12 A 1 1 0 0 0 2 13 L 4 13 A 1 1 0 0 0 5 12 A 1 1 0 0 0 4 11 L 2 11 z M 20 11 A 1 1 0 0 0 19 12 A 1 1 0 0 0 20 13 L 22 13 A 1 1 0 0 0 23 12 A 1 1 0 0 0 22 11 L 20 11 z M 6.3007812 16.699219 A 1 1 0 0 0 5.59375 16.992188 L 4.1933594 18.392578 A 1 1 0 0 0 4.1933594 19.806641 A 1 1 0 0 0 5.6074219 19.806641 L 7.0078125 18.40625 A 1 1 0 0 0 7.0078125 16.992188 A 1 1 0 0 0 6.3007812 16.699219 z M 17.699219 16.699219 A 1 1 0 0 0 16.992188 16.992188 A 1 1 0 0 0 16.992188 18.40625 L 18.392578 19.806641 A 1 1 0 0 0 19.806641 19.806641 A 1 1 0 0 0 19.806641 18.392578 L 18.40625 16.992188 A 1 1 0 0 0 17.699219 16.699219 z M 12 19 A 1 1 0 0 0 11 20 L 11 22 A 1 1 0 0 0 12 23 A 1 1 0 0 0 13 22 L 13 20 A 1 1 0 0 0 12 19 z "/>
</svg>
