<svg xmlns="http://www.w3.org/2000/svg" xmlns:svg="http://www.w3.org/2000/svg" width="24" height="24" viewBox="0 0 24 24" fill="currentColor" tags="dark,light,moon,sun,brightness,theme,auto theme,system theme,appearance" categories="accessibility">
  <path d="M 12 1 A 1 1 0 0 0 11 2 L 11 4 A 1 1 0 0 0 12 5 A 1 1 0 0 0 13 4 L 13 2 A 1 1 0 0 0 12 1 z M 19 4 A 1 1 0 0 0 18.292969 4.2929688 L 17.037109 5.5488281 A 1 1 0 0 0 17.037109 6.9628906 A 1 1 0 0 0 18.451172 6.9628906 L 19.707031 5.7070312 A 1 1 0 0 0 19.707031 4.2929688 A 1 1 0 0 0 19 4 z M 12 7 A 1 1 0 0 0 11 8 A 1 1 0 0 0 12 9 C 13.668699 9 15 10.331301 15 12 A 1 1 0 0 0 16 13 A 1 1 0 0 0 17 12 C 17 9.2504209 14.749579 7 12 7 z M 7.6660156 8.1542969 C 7.5725422 8.1565591 7.4784774 8.1673768 7.3847656 8.1894531 A 1.0001 1.0001 0 0 0 7.3828125 8.1894531 C 2.1015884 9.4421831 0.21065344 16.113529 4.0488281 19.951172 C 7.8870028 23.788815 14.558548 21.896632 15.810547 16.615234 C 15.987964 15.866007 15.491111 15.089117 14.947266 14.808594 C 14.40342 14.52807 13.789607 14.49297 13.191406 14.751953 C 11.902595 15.309736 10.697717 14.939749 9.8789062 14.121094 C 9.0600955 13.302439 8.6885556 12.097511 9.2460938 10.808594 C 9.5057211 10.209923 9.4699566 9.5960281 9.1894531 9.0527344 C 8.9440127 8.5773524 8.3203295 8.1384614 7.6660156 8.1542969 z M 7.3046875 10.431641 C 6.6674887 12.340134 7.2166114 14.287162 8.4648438 15.535156 C 9.7129667 16.783042 11.660146 17.332604 13.568359 16.695312 C 12.320712 20.060858 8.1083349 21.182187 5.4628906 18.537109 C 2.8173921 15.891977 3.9391513 11.679654 7.3046875 10.431641 z M 20 11 A 1 1 0 0 0 19 12 A 1 1 0 0 0 20 13 L 22 13 A 1 1 0 0 0 23 12 A 1 1 0 0 0 22 11 L 20 11 z "/>
</svg>
