<?xml version="1.0" encoding="UTF-8" standalone="no"?>
<svg xmlns="http://www.w3.org/2000/svg" xmlns:svg="http://www.w3.org/2000/svg" width="24" height="24" viewBox="0 0 24 24" fill="currentColor" tags="dark,light,moon,sun,brightness,theme,auto theme,system theme,appearance" categories="accessibility">
  <path d="M 12 1 A 1 1 0 0 0 11 2 L 11 4 A 1 1 0 0 0 12 5 A 1 1 0 0 0 13 4 L 13 2 A 1 1 0 0 0 12 1 z M 19 4 A 1 1 0 0 0 18.292969 4.2929688 L 17.037109 5.5488281 A 1 1 0 0 0 17.037109 6.9628906 A 1 1 0 0 0 18.451172 6.9628906 L 19.707031 5.7070312 A 1 1 0 0 0 19.707031 4.2929688 A 1 1 0 0 0 19 4 z M 9 7 C 5.4786312 7 2.7576924 9.1668091 1.609375 11.939453 C 0.46105764 14.712097 0.85402316 18.166523 3.34375 20.65625 C 5.8334768 23.145977 9.2879026 23.538942 12.060547 22.390625 C 14.833191 21.242308 17 18.521369 17 15 A 1.0001 1.0001 0 0 0 15.199219 14.400391 C 13.727844 16.362223 10.905903 16.562153 9.171875 14.828125 C 7.4378471 13.094097 7.6377769 10.272156 9.5996094 8.8007812 A 1 1 0 0 0 9.9628906 8.0371094 A 1 1 0 0 0 10 8 A 1 1 0 0 0 9.9394531 7.9394531 A 1 1 0 0 0 9.8007812 7.4003906 A 1 1 0 0 0 9.0371094 7.0371094 A 1 1 0 0 0 9 7 z M 12.990234 7.1289062 A 1 1 0 0 0 12.03125 7.8789062 A 1 1 0 0 0 12.75 9.0976562 C 13.808021 9.3706707 14.630546 10.192169 14.904297 11.25 A 1 1 0 0 0 16.123047 11.96875 A 1 1 0 0 0 16.841797 10.75 C 16.386709 8.9914489 15.008868 7.6140192 13.25 7.1601562 A 1 1 0 0 0 12.990234 7.1289062 z M 6.609375 9.53125 C 5.6197047 11.724547 5.9270681 14.411443 7.7578125 16.242188 C 9.5885569 18.072933 12.275453 18.380295 14.46875 17.390625 C 13.840551 18.852106 12.704429 19.960017 11.296875 20.542969 C 9.1971527 21.412589 6.6776118 21.161987 4.7578125 19.242188 C 2.8380132 17.322388 2.5874109 14.802847 3.4570312 12.703125 C 4.0399833 11.295571 5.1478943 10.159449 6.609375 9.53125 z M 20 11 A 1 1 0 0 0 19 12 A 1 1 0 0 0 20 13 L 22 13 A 1 1 0 0 0 23 12 A 1 1 0 0 0 22 11 L 20 11 z "/>
</svg>
