<svg xmlns="http://www.w3.org/2000/svg" xmlns:svg="http://www.w3.org/2000/svg" width="24" height="24" viewBox="0 0 24 24" fill="currentColor" tags="weather,time,morning,day" categories="arrows,weather,time">
  <path d="M 12 1 A 1.0001 1.0001 0 0 0 11.794922 1.0234375 A 1 1 0 0 0 11.611328 1.078125 A 1.0001 1.0001 0 0 0 11.5 1.1347656 A 1 1 0 0 0 11.439453 1.1757812 A 1.0001 1.0001 0 0 0 11.384766 1.2128906 A 1 1 0 0 0 11.341797 1.25 A 1.0001 1.0001 0 0 0 11.292969 1.2929688 A 1 1 0 0 0 11.283203 1.3027344 L 7.2929688 5.2929688 A 1 1 0 0 0 7.2929688 6.7070312 A 1 1 0 0 0 8.7070312 6.7070312 L 11 4.4140625 L 11 10 A 1 1 0 0 0 12 11 A 1 1 0 0 0 13 10 L 13 4.4140625 L 15.292969 6.7070312 A 1 1 0 0 0 16.707031 6.7070312 A 1 1 0 0 0 16.707031 5.2929688 L 12.716797 1.3027344 A 1 1 0 0 0 12.658203 1.25 A 1.0001 1.0001 0 0 0 12.615234 1.2128906 A 1 1 0 0 0 12.560547 1.1757812 A 1.0001 1.0001 0 0 0 12.382812 1.0761719 A 1 1 0 0 0 12.257812 1.0351562 A 1.0001 1.0001 0 0 0 12 1 z M 4.9296875 9.9296875 A 1 1 0 0 0 4.2226562 10.222656 A 1 1 0 0 0 4.2226562 11.636719 L 5.6328125 13.046875 A 1 1 0 0 0 7.046875 13.046875 A 1 1 0 0 0 7.046875 11.632812 L 5.6367188 10.222656 A 1 1 0 0 0 4.9296875 9.9296875 z M 19.070312 9.9296875 A 1 1 0 0 0 18.363281 10.222656 L 16.953125 11.632812 A 1 1 0 0 0 16.953125 13.046875 A 1 1 0 0 0 18.367188 13.046875 L 19.777344 11.636719 A 1 1 0 0 0 19.777344 10.222656 A 1 1 0 0 0 19.070312 9.9296875 z M 12 13 C 10.777778 13 9.5421194 13.402014 8.5859375 14.251953 C 7.6297556 15.101892 7 16.416667 7 18 A 1 1 0 0 0 8 19 A 1 1 0 0 0 9 18 C 9 16.916667 9.3702444 16.231441 9.9140625 15.748047 C 10.457881 15.264653 11.222222 15 12 15 C 12.777778 15 13.542119 15.264653 14.085938 15.748047 C 14.629755 16.231441 15 16.916667 15 18 A 1 1 0 0 0 16 19 A 1 1 0 0 0 17 18 C 17 16.416667 16.370244 15.101892 15.414062 14.251953 C 14.45788 13.402014 13.222222 13 12 13 z M 2 17 A 1 1 0 0 0 1 18 A 1 1 0 0 0 2 19 L 4 19 A 1 1 0 0 0 5 18 A 1 1 0 0 0 4 17 L 2 17 z M 20 17 A 1 1 0 0 0 19 18 A 1 1 0 0 0 20 19 L 22 19 A 1 1 0 0 0 23 18 A 1 1 0 0 0 22 17 L 20 17 z M 2 21 A 1 1 0 0 0 1 22 A 1 1 0 0 0 2 23 L 22 23 A 1 1 0 0 0 23 22 A 1 1 0 0 0 22 21 L 2 21 z "/>
</svg>
