<?xml version="1.0" encoding="UTF-8" standalone="no"?>
<svg xmlns="http://www.w3.org/2000/svg" xmlns:svg="http://www.w3.org/2000/svg" width="24" height="24" viewBox="0 0 24 24" fill="currentColor" tags="text,exponent" categories="text">
  <path d="M 17.929688 4.0039062 C 17.407263 4.0042513 16.881212 4.1352709 16.404297 4.40625 C 15.782081 4.7603207 15.301599 5.3229248 15.058594 5.9960938 A 1 1 0 0 0 15.660156 7.2773438 A 1 1 0 0 0 16.941406 6.6757812 C 17.020396 6.4569503 17.176748 6.2684607 17.394531 6.1445312 C 17.852476 5.8854712 18.413864 5.9822952 18.763672 6.375 C 18.916288 6.5522943 19 6.7721826 19 7.0019531 C 19 7.3070923 18.87938 7.4959427 18.521484 7.7832031 C 18.163589 8.0704636 17.604869 8.3440003 17.072266 8.5957031 C 16.47548 8.8777379 15.901544 9.2328472 15.513672 9.8320312 C 15.1258 10.431215 15 11.151778 15 12 A 1.0001 1.0001 0 0 0 16 13 L 20 13 A 1 1 0 0 0 21 12 A 1 1 0 0 0 20 11 L 17.177734 11 L 17.177734 10.998047 L 17.179688 10.996094 L 17.179688 10.994141 C 17.184483 10.975658 17.187945 10.933625 17.193359 10.919922 L 17.193359 10.917969 C 17.290989 10.767153 17.46652 10.622262 17.927734 10.404297 C 18.453126 10.155999 19.145833 9.8474895 19.773438 9.34375 C 20.401042 8.8400105 21 8.028814 21 7.0019531 C 21 6.2898401 20.742174 5.5965706 20.269531 5.0546875 A 1.0001 1.0001 0 0 0 20.265625 5.0488281 C 19.781216 4.5008796 19.134204 4.1609956 18.449219 4.046875 C 18.277973 4.0183449 18.103829 4.0037912 17.929688 4.0039062 z M 4 10 A 1 1 0 0 0 3.2929688 10.292969 A 1 1 0 0 0 3.2929688 11.707031 L 6.5859375 15 L 3.2929688 18.292969 A 1 1 0 0 0 3.2929688 19.707031 A 1 1 0 0 0 4.7070312 19.707031 L 8 16.414062 L 11.292969 19.707031 A 1 1 0 0 0 12.707031 19.707031 A 1 1 0 0 0 12.707031 18.292969 L 9.4140625 15 L 12.707031 11.707031 A 1 1 0 0 0 12.707031 10.292969 A 1 1 0 0 0 12 10 A 1 1 0 0 0 11.292969 10.292969 L 8 13.585938 L 4.7070312 10.292969 A 1 1 0 0 0 4 10 z "/>
</svg>
