<svg xmlns="http://www.w3.org/2000/svg" xmlns:svg="http://www.w3.org/2000/svg" width="24" height="24" viewBox="0 0 24 24" fill="currentColor" tags="colors,colours,swatches,pantone,shades,tint,hue,saturation,brightness,theme,scheme,palette,samples,textile,carpet" categories="design,home,photography">
  <path d="M 5 2 C 3.3549904 2 2 3.3549904 2 5 L 2 17 C 2 18.583333 2.6297556 19.898108 3.5859375 20.748047 C 4.5421194 21.597986 5.7777779 22 7 22 L 19 22 C 20.64501 22 22 20.64501 22 19 L 22 15 C 22 13.380533 20.68652 12.041173 19.076172 12 L 19.330078 11.744141 L 19.333984 11.740234 C 20.676756 10.404492 20.65849 8.1923831 19.292969 6.8789062 L 17.414062 5 L 17.410156 4.9960938 C 16.75096 4.3336846 15.877519 4.0010266 15.003906 4 C 14.128539 3.99897 13.25301 4.330619 12.591797 4.9941406 L 12 5.5859375 L 12 5 C 12 3.3549904 10.64501 2 9 2 L 5 2 z M 5 4 L 9 4 C 9.5641294 4 10 4.4358706 10 5 L 10 8 L 10 17 C 10 17.764559 9.8153132 18.330602 9.515625 18.767578 C 9.5151013 18.768342 9.5141963 18.768768 9.5136719 18.769531 L 9.1914062 19.09375 A 1 1 0 0 0 9.0371094 19.294922 C 8.4968845 19.751475 7.7548185 20 7 20 C 6.2222221 20 5.4578806 19.735347 4.9140625 19.251953 C 4.3702444 18.768559 4 18.083333 4 17 L 4 5 C 4 4.4358706 4.4358706 4 5 4 z M 15.001953 5.9882812 C 15.359562 5.9886058 15.716524 6.1283057 15.994141 6.4082031 A 1.0001 1.0001 0 0 0 15.996094 6.4101562 L 17.892578 8.3066406 A 1.0001 1.0001 0 0 0 17.90625 8.3203125 C 18.482049 8.8741677 18.489216 9.7617082 17.921875 10.324219 A 1.0001 1.0001 0 0 0 17.917969 10.328125 L 12 16.273438 L 12 8.4140625 L 14.007812 6.40625 C 14.286086 6.1270042 14.644344 5.9879567 15.001953 5.9882812 z M 17.083984 14 L 19 14 C 19.564129 14 20 14.435871 20 15 L 20 19 C 20 19.564129 19.564129 20 19 20 L 11.113281 20 L 17.083984 14 z M 7 16 A 1 1 0 0 0 6 17 A 1 1 0 0 0 7 18 L 7.0097656 18 A 1 1 0 0 0 8.0097656 17 A 1 1 0 0 0 7.0097656 16 L 7 16 z "/>
</svg>
