<?xml version="1.0" encoding="UTF-8" standalone="no"?>
<svg xmlns="http://www.w3.org/2000/svg" xmlns:svg="http://www.w3.org/2000/svg" width="24" height="24" viewBox="0 0 24 24" fill="currentColor" tags="colors,colours,swatches,pantone,shades,tint,hue,saturation,brightness,theme,scheme,palette,samples,textile,carpet" categories="design,home,furniture,photography">
  <path d="M 5 2 C 3.3549936 2 2 3.3549936 2 5 L 2 17 C 2 18.583329 2.6297575 19.89811 3.5859375 20.748047 C 4.5421175 21.597984 5.7777803 22 7 22 L 19 22 C 20.645006 22 22 20.645006 22 19 L 22 15 C 22 13.379382 20.684181 12.043258 19.072266 12.003906 L 19.330078 11.744141 L 19.333984 11.740234 C 20.676754 10.404495 20.658487 8.1923805 19.292969 6.8789062 L 17.414062 5 L 17.410156 4.9960938 C 16.750962 4.3336859 15.877517 4.0010266 15.003906 4 C 14.128541 3.99897 13.253008 4.3306204 12.591797 4.9941406 L 12 5.5859375 L 12 5 C 12 3.3549936 10.645006 2 9 2 L 5 2 z M 5 4 L 9 4 C 9.5641282 4 10 4.4358718 10 5 L 10 8 L 10 17 C 10 17.773811 9.8100353 18.342143 9.5039062 18.78125 L 9.1914062 19.09375 A 1 1 0 0 0 9.0859375 19.251953 C 8.5421205 19.735346 7.7777763 20 7 20 C 6.2222237 20 5.4578795 19.735346 4.9140625 19.251953 C 4.3702455 18.768561 4 18.083331 4 17 L 4 5 C 4 4.4358718 4.4358718 4 5 4 z M 15.001953 5.9882812 C 15.359562 5.9886058 15.716524 6.1283062 15.994141 6.4082031 A 1.0001 1.0001 0 0 0 15.996094 6.4101562 L 17.892578 8.3066406 A 1.0001 1.0001 0 0 0 17.90625 8.3203125 C 18.482047 8.8741666 18.489215 9.7617092 17.921875 10.324219 A 1.0001 1.0001 0 0 0 17.917969 10.328125 L 12 16.273438 L 12 8.4140625 L 14.007812 6.40625 C 14.286086 6.1270047 14.644344 5.9879567 15.001953 5.9882812 z M 17.083984 14 L 19 14 C 19.564128 14 20 14.435872 20 15 L 20 19 C 20 19.564128 19.564128 20 19 20 L 11.113281 20 L 17.083984 14 z M 7 16 A 1 1 0 0 0 6 17 A 1 1 0 0 0 7 18 L 7.0097656 18 A 1 1 0 0 0 8.0097656 17 A 1 1 0 0 0 7.0097656 16 L 7 16 z "/>
</svg>
