<?xml version="1.0" encoding="UTF-8" standalone="no"?>
<svg xmlns="http://www.w3.org/2000/svg" xmlns:svg="http://www.w3.org/2000/svg" width="24" height="24" viewBox="0 0 24 24" fill="currentColor" tags="currency,money,payment" categories="finance">
  <path d="M 10 2 A 1.0001 1.0001 0 0 0 9 3 L 9 9.5 L 9 15 L 6 15 A 1 1 0 0 0 5 16 A 1 1 0 0 0 6 17 L 9 17 L 9 21 A 1 1 0 0 0 10 22 A 1 1 0 0 0 11 21 L 11 17 L 15 17 A 1 1 0 0 0 16 16 A 1 1 0 0 0 15 15 L 11 15 L 11 10.5 L 17 10.5 A 1 1 0 0 0 18 9.5 A 1 1 0 0 0 17 8.5 L 11 8.5 L 11 4 L 18 4 A 1 1 0 0 0 19 3 A 1 1 0 0 0 18 2 L 10 2 z "/>
</svg>
