<svg xmlns="http://www.w3.org/2000/svg" xmlns:svg="http://www.w3.org/2000/svg" width="24" height="24" viewBox="0 0 24 24" fill="currentColor" tags="photo,selfie,front,back" categories="communication,devices">
  <path d="M 6 1 A 1 1 0 0 0 5.2929688 1.2929688 A 1 1 0 0 0 5.2929688 2.7070312 L 6.5859375 4 L 4 4 C 2.3549904 4 1 5.3549904 1 7 L 1 17 C 1 18.64501 2.3549904 20 4 20 L 11 20 A 1 1 0 0 0 12 19 A 1 1 0 0 0 11 18 L 4 18 C 3.4358706 18 3 17.564129 3 17 L 3 7 C 3 6.4358706 3.4358706 6 4 6 L 6.5859375 6 L 5.2929688 7.2929688 A 1 1 0 0 0 5.2929688 8.7070312 A 1 1 0 0 0 6.7070312 8.7070312 L 9.6972656 5.7167969 A 1 1 0 0 0 9.7070312 5.7070312 A 1.0001 1.0001 0 0 0 9.7851562 5.6191406 A 1 1 0 0 0 9.7929688 5.609375 A 1.0001 1.0001 0 0 0 9.8613281 5.5078125 A 1 1 0 0 0 9.8652344 5.5 A 1.0001 1.0001 0 0 0 9.921875 5.3886719 A 1 1 0 0 0 9.9238281 5.3828125 A 1 1 0 0 0 9.9648438 5.2578125 A 1.0001 1.0001 0 0 0 9.9765625 5.2050781 A 1.0001 1.0001 0 0 0 10 5 A 1.0001 1.0001 0 0 0 9.9765625 4.7949219 A 1.0001 1.0001 0 0 0 9.9648438 4.7421875 A 1 1 0 0 0 9.9238281 4.6171875 A 1.0001 1.0001 0 0 0 9.921875 4.6113281 A 1 1 0 0 0 9.8652344 4.5 A 1.0001 1.0001 0 0 0 9.8613281 4.4921875 A 1 1 0 0 0 9.7929688 4.390625 A 1.0001 1.0001 0 0 0 9.7851562 4.3808594 A 1 1 0 0 0 9.7070312 4.2929688 L 9.6972656 4.2832031 L 6.7070312 1.2929688 A 1 1 0 0 0 6 1 z M 13 4 A 1 1 0 0 0 12 5 A 1 1 0 0 0 13 6 L 20 6 C 20.564129 6 21 6.4358706 21 7 L 21 17 C 21 17.564129 20.564129 18 20 18 L 17.414062 18 L 18.707031 16.707031 A 1 1 0 0 0 18.707031 15.292969 A 1 1 0 0 0 17.292969 15.292969 L 14.292969 18.292969 A 1.0001 1.0001 0 0 0 14.25 18.341797 A 1 1 0 0 0 14.212891 18.384766 A 1.0001 1.0001 0 0 0 14.175781 18.439453 A 1 1 0 0 0 14.023438 18.794922 A 1.0001 1.0001 0 0 0 14.035156 19.257812 A 1 1 0 0 0 14.175781 19.560547 A 1.0001 1.0001 0 0 0 14.212891 19.615234 A 1 1 0 0 0 14.25 19.658203 A 1.0001 1.0001 0 0 0 14.292969 19.707031 A 1 1 0 0 0 14.302734 19.716797 L 17.292969 22.707031 A 1 1 0 0 0 18.707031 22.707031 A 1 1 0 0 0 18.707031 21.292969 L 17.414062 20 L 20 20 C 21.64501 20 23 18.64501 23 17 L 23 7 C 23 5.3549904 21.64501 4 20 4 L 13 4 z M 12 8 C 9.8027056 8 8 9.8027056 8 12 C 8 14.197294 9.8027056 16 12 16 C 14.197294 16 16 14.197294 16 12 C 16 9.8027056 14.197294 8 12 8 z M 12 10 C 13.116414 10 14 10.883586 14 12 C 14 13.116414 13.116414 14 12 14 C 10.883586 14 10 13.116414 10 12 C 10 10.883586 10.883586 10 12 10 z "/>
</svg>
