<?xml version="1.0" encoding="UTF-8" standalone="no"?>
<svg xmlns="http://www.w3.org/2000/svg" xmlns:svg="http://www.w3.org/2000/svg" width="24" height="24" viewBox="0 0 24 24" fill="currentColor" tags="photo,selfie,front,back" categories="communication,devices">
  
  <path d="M 6 1 A 1 1 0 0 0 5.2929688 1.2929688 A 1 1 0 0 0 5.2929688 2.7070312 L 6.5859375 4 L 4 4 C 2.3549936 4 1 5.3549936 1 7 L 1 17 C 1 18.645006 2.3549936 20 4 20 L 11 20 A 1 1 0 0 0 12 19 A 1 1 0 0 0 11 18 L 4 18 C 3.4358718 18 3 17.564128 3 17 L 3 7 C 3 6.4358718 3.4358718 6 4 6 L 6.5859375 6 L 5.2929688 7.2929688 A 1 1 0 0 0 5.2929688 8.7070312 A 1 1 0 0 0 6.7070312 8.7070312 L 9.7070312 5.7070312 A 1.0001 1.0001 0 0 0 9.9199219 5.3886719 A 1.0001 1.0001 0 0 0 9.9238281 5.3828125 A 1 1 0 0 0 9.9257812 5.3769531 A 1.0001 1.0001 0 0 0 10 5 A 1.0001 1.0001 0 0 0 9.9941406 4.8945312 A 1 1 0 0 0 9.9863281 4.8359375 A 1 1 0 0 0 9.984375 4.8261719 A 1.0001 1.0001 0 0 0 9.9804688 4.8085938 A 1 1 0 0 0 9.9472656 4.6855469 A 1 1 0 0 0 9.9394531 4.6582031 A 1.0001 1.0001 0 0 0 9.9238281 4.6171875 A 1 1 0 0 0 9.9160156 4.6015625 A 1.0001 1.0001 0 0 0 9.8652344 4.5 A 1.0001 1.0001 0 0 0 9.8027344 4.40625 A 1.0001 1.0001 0 0 0 9.7929688 4.390625 A 1 1 0 0 0 9.7792969 4.375 A 1.0001 1.0001 0 0 0 9.7070312 4.2929688 L 6.7070312 1.2929688 A 1 1 0 0 0 6 1 z M 13 4 A 1 1 0 0 0 12 5 A 1 1 0 0 0 13 6 L 20 6 C 20.564128 6 21 6.4358718 21 7 L 21 17 C 21 17.564128 20.564128 18 20 18 L 17.414062 18 L 18.707031 16.707031 A 1 1 0 0 0 18.707031 15.292969 A 1 1 0 0 0 17.292969 15.292969 L 14.292969 18.292969 A 1.0001 1.0001 0 0 0 14.103516 18.576172 A 1 1 0 0 0 14.066406 18.666016 A 1.0001 1.0001 0 0 0 14.066406 19.333984 A 1 1 0 0 0 14.103516 19.423828 A 1.0001 1.0001 0 0 0 14.292969 19.707031 L 17.292969 22.707031 A 1 1 0 0 0 18.707031 22.707031 A 1 1 0 0 0 18.707031 21.292969 L 17.414062 20 L 20 20 C 21.645006 20 23 18.645006 23 17 L 23 7 C 23 5.3549936 21.645006 4 20 4 L 13 4 z M 12 8 C 9.80271 8 8 9.80271 8 12 C 8 14.19729 9.80271 16 12 16 C 14.19729 16 16 14.19729 16 12 C 16 9.80271 14.19729 8 12 8 z M 12 10 C 13.116412 10 14 10.883588 14 12 C 14 13.116412 13.116412 14 12 14 C 10.883588 14 10 13.116412 10 12 C 10 10.883588 10.883588 10 12 10 z "/>
</svg>
