<svg xmlns="http://www.w3.org/2000/svg" xmlns:svg="http://www.w3.org/2000/svg" width="24" height="24" viewBox="0 0 24 24" fill="currentColor" tags="battle,challenge,game,war,weapon" categories="gaming,tools">
  <path d="M 18 2 A 1.0001 1.0001 0 0 0 17.292969 2.2929688 L 6.5 13.085938 L 5.7070312 12.292969 A 1 1 0 0 0 5 12 A 1 1 0 0 0 4.2929688 12.292969 A 1 1 0 0 0 4.2929688 13.707031 L 5.7929688 15.207031 L 6.5859375 16 L 4 18.585938 L 3.7070312 18.292969 A 1 1 0 0 0 2.2929688 18.292969 A 1 1 0 0 0 2.2929688 19.707031 L 4.2929688 21.707031 A 1 1 0 0 0 5.7070312 21.707031 A 1 1 0 0 0 5.7070312 20.292969 L 5.4140625 20 L 8 17.414062 L 8.7929688 18.207031 L 10.292969 19.707031 A 1 1 0 0 0 11.707031 19.707031 A 1 1 0 0 0 11.707031 18.292969 L 10.914062 17.5 L 21.707031 6.7070312 A 1.0001 1.0001 0 0 0 22 6 L 22 3 A 1.0001 1.0001 0 0 0 21 2 L 18 2 z M 18.414062 4 L 20 4 L 20 5.5859375 L 9.5 16.085938 L 7.9140625 14.5 L 18.414062 4 z "/>
</svg>
