<?xml version="1.0" encoding="UTF-8" standalone="no"?>
<svg xmlns="http://www.w3.org/2000/svg" xmlns:svg="http://www.w3.org/2000/svg" width="24" height="24" viewBox="0 0 24 24" fill="currentColor" tags="battle,challenge,game,war,weapon" categories="gaming,tools">
  <path d="M 3 2 A 1.0001 1.0001 0 0 0 2 3 L 2 6 A 1.0001 1.0001 0 0 0 2.2929688 6.7070312 L 13.085938 17.5 L 12.292969 18.292969 A 1 1 0 0 0 12.292969 19.707031 A 1 1 0 0 0 13.707031 19.707031 L 16 17.414062 L 18.585938 20 L 18.292969 20.292969 A 1 1 0 0 0 18.292969 21.707031 A 1 1 0 0 0 19.707031 21.707031 L 21.707031 19.707031 A 1 1 0 0 0 21.707031 18.292969 A 1 1 0 0 0 20.292969 18.292969 L 20 18.585938 L 17.414062 16 L 19.707031 13.707031 A 1 1 0 0 0 19.707031 12.292969 A 1 1 0 0 0 18.292969 12.292969 L 17.5 13.085938 L 6.7070312 2.2929688 A 1.0001 1.0001 0 0 0 6 2 L 3 2 z M 18 2 A 1.0001 1.0001 0 0 0 17.292969 2.2929688 L 13.792969 5.7929688 A 1 1 0 0 0 13.792969 7.2070312 A 1 1 0 0 0 15.207031 7.2070312 L 18.414062 4 L 20 4 L 20 5.5859375 L 16.792969 8.7929688 A 1 1 0 0 0 16.792969 10.207031 A 1 1 0 0 0 18.207031 10.207031 L 21.707031 6.7070312 A 1.0001 1.0001 0 0 0 22 6 L 22 3 A 1.0001 1.0001 0 0 0 21 2 L 18 2 z M 4 4 L 5.5859375 4 L 16.085938 14.5 L 14.5 16.085938 L 4 5.5859375 L 4 4 z M 5 13 A 1 1 0 0 0 4.2929688 13.292969 A 1 1 0 0 0 4.2929688 14.707031 L 6.0859375 16.5 L 4 18.585938 L 3.7070312 18.292969 A 1 1 0 0 0 3 18 A 1 1 0 0 0 2.2929688 18.292969 A 1 1 0 0 0 2.2929688 19.707031 L 3.2929688 20.707031 L 4.2929688 21.707031 A 1 1 0 0 0 5.7070312 21.707031 A 1 1 0 0 0 5.7070312 20.292969 L 5.4140625 20 L 7.5 17.914062 L 8.2929688 18.707031 A 1 1 0 0 0 9.7070312 18.707031 A 1 1 0 0 0 9.7070312 17.292969 L 5.7070312 13.292969 A 1 1 0 0 0 5 13 z "/>
</svg>
