<?xml version="1.0" encoding="UTF-8" standalone="no"?>
<svg xmlns="http://www.w3.org/2000/svg" xmlns:svg="http://www.w3.org/2000/svg" width="24" height="24" viewBox="0 0 24 24" fill="currentColor" tags="medicine,medical,needle,pump,plunger,nozzle,blood" categories="science,medical">
  <path d="M 18 1 A 1 1 0 0 0 17.292969 1.2929688 A 1 1 0 0 0 17.292969 2.7070312 L 18.585938 4 L 17 5.5859375 L 15.707031 4.2929688 L 14.707031 3.2929688 A 1 1 0 0 0 14 3 A 1 1 0 0 0 13.292969 3.2929688 A 1 1 0 0 0 13.292969 4.7070312 L 13.585938 5 L 8.3105469 10.277344 A 1 1 0 0 0 8.2929688 10.292969 A 1 1 0 0 0 8.265625 10.322266 L 4.03125 14.556641 C 2.7645872 15.696637 2.6494469 17.608513 3.6191406 18.966797 L 1.2929688 21.292969 A 1 1 0 0 0 1.2929688 22.707031 A 1 1 0 0 0 2.7070312 22.707031 L 5.0214844 20.392578 C 6.3186944 21.358184 8.2057624 21.208302 9.40625 20.007812 L 19 10.414062 L 19.292969 10.707031 A 1 1 0 0 0 20.707031 10.707031 A 1 1 0 0 0 20.707031 9.2929688 L 19.707031 8.2929688 L 18.414062 7 L 20 5.4140625 L 21.292969 6.7070312 A 1 1 0 0 0 22.707031 6.7070312 A 1 1 0 0 0 22.707031 5.2929688 L 18.707031 1.2929688 A 1 1 0 0 0 18 1 z M 15 6.4140625 L 16.292969 7.7070312 L 17.585938 9 L 13 13.585938 L 10.414062 11 L 15 6.4140625 z M 9 12.414062 L 11.585938 15 L 7.9921875 18.59375 C 7.3457409 19.240197 6.573375 19.2202 6.0429688 18.630859 A 1.0001 1.0001 0 0 0 6.0078125 18.59375 L 5.40625 17.992188 C 4.7598034 17.345741 4.7798004 16.573375 5.3691406 16.042969 A 1.0001 1.0001 0 0 0 5.40625 16.007812 L 9 12.414062 z "/>
</svg>
