<?xml version="1.0" encoding="UTF-8" standalone="no"?>
<svg xmlns="http://www.w3.org/2000/svg" xmlns:svg="http://www.w3.org/2000/svg" width="24" height="24" viewBox="0 0 24 24" fill="currentColor" tags="medicine,medication,drug,prescription,pills,pharmacy" categories="medical">
  <path d="M 7 1 C 3.6981427 1 1 3.6981427 1 7 C 1 8.6148976 1.6456137 10.084978 2.6914062 11.166016 A 1 1 0 0 0 2.7519531 11.248047 A 1 1 0 0 0 2.8339844 11.308594 C 3.9150218 12.354386 5.3851025 13 7 13 C 10.301858 13 13 10.301858 13 7 C 13 5.4181969 12.37928 3.9767613 11.371094 2.9023438 A 1 1 0 0 0 11.248047 2.7519531 A 1 1 0 0 0 11.146484 2.6757812 C 10.067144 1.6401543 8.6059925 1 7 1 z M 7 3 C 7.7443267 3 8.4384822 3.2014879 9.0332031 3.5507812 L 3.5507812 9.0332031 C 3.2014879 8.4384822 3 7.7443267 3 7 C 3 4.7790208 4.7790208 3 7 3 z M 10.449219 4.9667969 C 10.798512 5.5615178 11 6.2556733 11 7 C 11 9.2209792 9.2209792 11 7 11 C 6.2556733 11 5.5615178 10.798512 4.9667969 10.449219 L 10.449219 4.9667969 z M 17 11 C 13.698142 11 11 13.698142 11 17 C 11 20.301858 13.698142 23 17 23 C 20.301858 23 23 20.301858 23 17 C 23 13.698142 20.301858 11 17 11 z M 17 13 C 18.875269 13 20.434729 14.268255 20.875 16 L 13.125 16 C 13.565271 14.268255 15.124731 13 17 13 z M 13.125 18 L 20.875 18 C 20.434729 19.731745 18.875269 21 17 21 C 15.124731 21 13.565271 19.731745 13.125 18 z "/>
</svg>
