<svg xmlns="http://www.w3.org/2000/svg" xmlns:svg="http://www.w3.org/2000/svg" width="24" height="24" viewBox="0 0 24 24" fill="currentColor" tags="spreadsheet,grid,cut,break,divide,separate,segment" categories="text,files">
  <path d="M 14 1 A 1 1 0 0 0 13 2 L 13 4 A 1 1 0 0 0 14 5 A 1 1 0 0 0 15 4 L 15 2 A 1 1 0 0 0 14 1 z M 2 2 A 1 1 0 0 0 1 3 A 1 1 0 0 0 2 4 L 4 4 L 4 8 L 2 8 A 1 1 0 0 0 1 9 A 1 1 0 0 0 2 10 L 4 10 L 4 14 L 2 14 A 1 1 0 0 0 1 15 A 1 1 0 0 0 2 16 L 4 16 L 4 20 L 2 20 A 1 1 0 0 0 1 21 A 1 1 0 0 0 2 22 L 5 22 L 8 22 C 9.6450096 22 11 20.64501 11 19 L 11 5 C 11 3.3549904 9.6450096 2 8 2 L 5 2 L 2 2 z M 20 2 C 18.35499 2 17 3.3549904 17 5 L 17 19 C 17 20.64501 18.35499 22 20 22 L 22 22 A 1 1 0 0 0 23 21 A 1 1 0 0 0 22 20 L 20 20 C 19.435871 20 19 19.564129 19 19 L 19 16 L 22 16 A 1 1 0 0 0 23 15 A 1 1 0 0 0 22 14 L 19 14 L 19 10 L 22 10 A 1 1 0 0 0 23 9 A 1 1 0 0 0 22 8 L 19 8 L 19 5 C 19 4.4358706 19.435871 4 20 4 L 22 4 A 1 1 0 0 0 23 3 A 1 1 0 0 0 22 2 L 20 2 z M 6 4 L 8 4 C 8.5641294 4 9 4.4358706 9 5 L 9 8 L 6 8 L 6 4 z M 14 7 A 1 1 0 0 0 13 8 L 13 10 A 1 1 0 0 0 14 11 A 1 1 0 0 0 15 10 L 15 8 A 1 1 0 0 0 14 7 z M 6 10 L 9 10 L 9 14 L 6 14 L 6 10 z M 14 13 A 1 1 0 0 0 13 14 L 13 16 A 1 1 0 0 0 14 17 A 1 1 0 0 0 15 16 L 15 14 A 1 1 0 0 0 14 13 z M 6 16 L 9 16 L 9 19 C 9 19.564129 8.5641294 20 8 20 L 6 20 L 6 16 z M 14 19 A 1 1 0 0 0 13 20 L 13 22 A 1 1 0 0 0 14 23 A 1 1 0 0 0 15 22 L 15 20 A 1 1 0 0 0 14 19 z "/>
</svg>
