<svg xmlns="http://www.w3.org/2000/svg" xmlns:svg="http://www.w3.org/2000/svg" width="24" height="24" viewBox="0 0 24 24" fill="currentColor" tags="toc,outline,navigation,document structure,index,overview,sections,chapters,content,documentation,manual,knowledge base,faq" categories="text">
  <path d="M 3 4 A 1 1 0 0 0 2 5 A 1 1 0 0 0 3 6 L 16 6 A 1 1 0 0 0 17 5 A 1 1 0 0 0 16 4 L 3 4 z M 21 4 A 1 1 0 0 0 20 5 A 1 1 0 0 0 21 6 L 21.009766 6 A 1 1 0 0 0 22.009766 5 A 1 1 0 0 0 21.009766 4 L 21 4 z M 3 11 A 1 1 0 0 0 2 12 A 1 1 0 0 0 3 13 L 16 13 A 1 1 0 0 0 17 12 A 1 1 0 0 0 16 11 L 3 11 z M 21 11 A 1 1 0 0 0 20 12 A 1 1 0 0 0 21 13 L 21.009766 13 A 1 1 0 0 0 22.009766 12 A 1 1 0 0 0 21.009766 11 L 21 11 z M 3 18 A 1 1 0 0 0 2 19 A 1 1 0 0 0 3 20 L 16 20 A 1 1 0 0 0 17 19 A 1 1 0 0 0 16 18 L 3 18 z M 21 18 A 1 1 0 0 0 20 19 A 1 1 0 0 0 21 20 L 21.009766 20 A 1 1 0 0 0 22.009766 19 A 1 1 0 0 0 21.009766 18 L 21 18 z "/>
</svg>
