<?xml version="1.0" encoding="UTF-8" standalone="no"?>
<svg xmlns="http://www.w3.org/2000/svg" xmlns:svg="http://www.w3.org/2000/svg" width="24" height="24" viewBox="0 0 24 24" fill="currentColor" tags="medicine,medication,drug,prescription,pills,pharmacy" categories="medical">
  <path d="M 7 1 C 3.6981361 1 1 3.6981361 1 7 C 1 8.5853503 1.6225743 10.032254 2.6347656 11.107422 A 1 1 0 0 0 2.7519531 11.248047 A 1 1 0 0 0 2.8925781 11.365234 C 3.967746 12.377426 5.4146498 13 7 13 C 10.301864 13 13 10.301864 13 7 C 13 5.4146498 12.377426 3.967746 11.365234 2.8925781 A 1 1 0 0 0 11.248047 2.7519531 A 1 1 0 0 0 11.109375 2.6367188 C 10.033857 1.6226398 8.5870192 1 7 1 z M 7 3 C 7.7446284 3 8.4402755 3.1992732 9.0351562 3.5488281 L 3.5488281 9.0351562 C 3.1992732 8.4402755 3 7.7446284 3 7 C 3 4.7790164 4.7790164 3 7 3 z M 10.451172 4.9648438 C 10.800727 5.5597245 11 6.2553717 11 7 C 11 9.2209836 9.2209836 11 7 11 C 6.2553717 11 5.5597245 10.800727 4.9648438 10.451172 L 10.451172 4.9648438 z M 17 11 C 13.698136 11 11 13.698136 11 17 C 11 20.301864 13.698136 23 17 23 C 20.301864 23 23 20.301864 23 17 C 23 13.698136 20.301864 11 17 11 z M 17 13 C 18.87526 13 20.434717 14.268271 20.875 16 L 13.125 16 C 13.565283 14.268271 15.12474 13 17 13 z M 13.125 18 L 20.875 18 C 20.434717 19.731729 18.87526 21 17 21 C 15.12474 21 13.565283 19.731729 13.125 18 z "/>
</svg>
