<?xml version="1.0" encoding="UTF-8" standalone="no"?>
<svg xmlns="http://www.w3.org/2000/svg" xmlns:svg="http://www.w3.org/2000/svg" width="24" height="24" viewBox="0 0 24 24" fill="currentColor" tags="spreadsheet,grid,cut,break,divide,separate,segment" categories="text,files">
  <path d="M 3 1 A 1 1 0 0 0 2 2 L 2 4 C 2 5.6450064 3.3549936 7 5 7 L 9 7 L 19 7 C 20.645006 7 22 5.6450064 22 4 L 22 2 A 1 1 0 0 0 21 1 A 1 1 0 0 0 20 2 L 20 4 C 20 4.5641282 19.564128 5 19 5 L 16 5 L 16 2 A 1 1 0 0 0 15 1 A 1 1 0 0 0 14 2 L 14 5 L 10 5 L 10 2 A 1 1 0 0 0 9 1 A 1 1 0 0 0 8 2 L 8 5 L 5 5 C 4.4358718 5 4 4.5641282 4 4 L 4 2 A 1 1 0 0 0 3 1 z M 2 9 A 1 1 0 0 0 1 10 A 1 1 0 0 0 2 11 L 4 11 A 1 1 0 0 0 5 10 A 1 1 0 0 0 4 9 L 2 9 z M 8 9 A 1 1 0 0 0 7 10 A 1 1 0 0 0 8 11 L 10 11 A 1 1 0 0 0 11 10 A 1 1 0 0 0 10 9 L 8 9 z M 14 9 A 1 1 0 0 0 13 10 A 1 1 0 0 0 14 11 L 16 11 A 1 1 0 0 0 17 10 A 1 1 0 0 0 16 9 L 14 9 z M 20 9 A 1 1 0 0 0 19 10 A 1 1 0 0 0 20 11 L 22 11 A 1 1 0 0 0 23 10 A 1 1 0 0 0 22 9 L 20 9 z M 5 13 C 3.3549936 13 2 14.354994 2 16 L 2 22 A 1 1 0 0 0 3 23 A 1 1 0 0 0 4 22 L 4 20 L 8 20 L 8 22 A 1 1 0 0 0 9 23 A 1 1 0 0 0 10 22 L 10 20 L 14 20 L 14 22 A 1 1 0 0 0 15 23 A 1 1 0 0 0 16 22 L 16 20 L 20 20 L 20 22 A 1 1 0 0 0 21 23 A 1 1 0 0 0 22 22 L 22 16 C 22 14.354994 20.645006 13 19 13 L 5 13 z M 5 15 L 8 15 L 8 18 L 4 18 L 4 16 C 4 15.435872 4.4358718 15 5 15 z M 10 15 L 14 15 L 14 18 L 10 18 L 10 15 z M 16 15 L 19 15 C 19.564128 15 20 15.435872 20 16 L 20 18 L 16 18 L 16 15 z "/>
</svg>
