<?xml version="1.0" encoding="UTF-8" standalone="no"?>
<svg xmlns="http://www.w3.org/2000/svg" xmlns:svg="http://www.w3.org/2000/svg" width="24" height="24" viewBox="0 0 24 24" fill="currentColor" tags="responsive,screens,browser,testing,mobile" categories="devices,design,development,tools">
  
  <path d="M 7 1 C 5.3549936 1 4 2.3549936 4 4 A 1 1 0 0 0 5 5 A 1 1 0 0 0 6 4 C 6 3.4358718 6.4358718 3 7 3 L 19 3 C 19.564128 3 20 3.4358718 20 4 L 20 20 C 20 20.564128 19.564128 21 19 21 L 16.599609 21 A 1 1 0 0 0 15.599609 22 A 1 1 0 0 0 16.599609 23 L 19 23 C 20.645006 23 22 21.645006 22 20 L 22 4 C 22 2.3549936 20.645006 1 19 1 L 7 1 z M 5 7 C 3.3553005 7 2 8.3553005 2 10 L 2 20 C 2 21.644699 3.3553005 23 5 23 L 11 23 C 12.644699 23 14 21.644699 14 20 L 14 10 C 14 8.3553005 12.644699 7 11 7 L 5 7 z M 5 9 L 11 9 C 11.571296 9 12 9.4287039 12 10 L 12 20 C 12 20.571296 11.571296 21 11 21 L 5 21 C 4.4287039 21 4 20.571296 4 20 L 4 10 C 4 9.4287039 4.4287039 9 5 9 z M 8 17 A 1 1 0 0 0 7 18 A 1 1 0 0 0 8 19 L 8.0097656 19 A 1 1 0 0 0 9.0097656 18 A 1 1 0 0 0 8.0097656 17 L 8 17 z "/>
</svg>
