<?xml version="1.0" encoding="UTF-8" standalone="no"?>
<svg xmlns="http://www.w3.org/2000/svg" xmlns:svg="http://www.w3.org/2000/svg" width="24" height="24" viewBox="0 0 24 24" fill="currentColor" tags="label,badge,ticket,mark" categories="account">
  <path d="M 4,1 C 2.3549904,1 1,2.3549904 1,4 v 7.171875 c 1.698e-4,0.7952 0.3165297,1.558887 0.8789062,2.121094 l 8.7031248,8.705078 a 1.0001,1.0001 0 0 0 0.0039,0.002 c 1.327922,1.319538 3.500202,1.319538 4.828125,0 a 1.0001,1.0001 0 0 0 0.0039,-0.002 l 6.580078,-6.580078 A 1.0001,1.0001 0 0 0 22,15.414063 c 1.319538,-1.327923 1.319538,-3.500203 0,-4.828125 a 1.0001,1.0001 0 0 0 -0.002,-0.0039 L 13.292969,1.8789062 C 12.730762,1.3165297 11.967075,1.0001698 11.171875,1 Z m 0,2 h 7.171875 c 0.265579,5.67e-5 0.519267,0.1051478 0.707031,0.2929688 l 8.703125,8.7050782 c 0.557466,0.56452 0.557749,1.444555 -0.002,2.007812 l -6.578125,6.576172 c -0.56452,0.557466 -1.444555,0.557749 -2.007812,-0.002 L 3.2929688,11.878906 C 3.1051478,11.691142 3.0000567,11.437454 3,11.171875 V 4 C 3,3.4358706 3.4358706,3 4,3 Z"/>
  <g id="circle1" style="opacity:1" stroke-width="0">
    <path style="baseline-shift:baseline;display:inline;overflow:visible;vector-effect:none;fill:currentColor;stroke:none;stroke-linecap:butt;stroke-linejoin:miter;enable-background:accumulate;stop-color:#000000;stop-opacity:1" d="M 8,7.5 A 0.5,0.5 0 0 1 7.5,8 0.5,0.5 0 0 1 7,7.5 0.5,0.5 0 0 1 7.5,7 0.5,0.5 0 0 1 8,7.5 Z" id="path2"/>
    <path style="baseline-shift:baseline;display:inline;overflow:visible;vector-effect:none;fill:#000000;stroke:none;stroke-linecap:butt;stroke-linejoin:miter;enable-background:accumulate;stop-color:#000000;stop-opacity:1" d="M 7.5,6 C 6.6834175,6 6,6.6834175 6,7.5 6,8.3165825 6.6834175,9 7.5,9 8.3165825,9 9,8.3165825 9,7.5 9,6.6834175 8.3165825,6 7.5,6 Z m 0,1 C 7.7642977,7 8,7.2357023 8,7.5 8,7.7642977 7.7642977,8 7.5,8 7.2357023,8 7,7.7642977 7,7.5 7,7.2357023 7.2357023,7 7.5,7 Z" id="path3"/>
  </g>
</svg>
