<?xml version="1.0" encoding="UTF-8" standalone="no"?>
<svg xmlns="http://www.w3.org/2000/svg" xmlns:svg="http://www.w3.org/2000/svg" width="24" height="24" viewBox="0 0 24 24" fill="currentColor" tags="label,badge,ticket,mark" categories="account">
  <path d="M 2 1 A 1.0001 1.0001 0 0 0 1 2 L 1 12 A 1.0001 1.0001 0 0 0 1.2929688 12.707031 L 10.582031 21.998047 C 11.908179 23.324195 14.091821 23.324195 15.417969 21.998047 L 21.998047 15.417969 C 23.324195 14.091821 23.324195 11.908179 21.998047 10.582031 L 12.707031 1.2929688 A 1.0001 1.0001 0 0 0 12 1 L 2 1 z M 3 3 L 11.585938 3 L 20.582031 11.998047 C 21.13588 12.551895 21.13588 13.448105 20.582031 14.001953 L 14.001953 20.582031 C 13.448105 21.13588 12.551895 21.13588 11.998047 20.582031 L 3 11.585938 L 3 3 z M 7 6 A 1 1 0 0 0 6 7 A 1 1 0 0 0 7 8 L 7.0097656 8 A 1 1 0 0 0 8.0097656 7 A 1 1 0 0 0 7.0097656 6 L 7 6 z "/>
</svg>
