<svg xmlns="http://www.w3.org/2000/svg" xmlns:svg="http://www.w3.org/2000/svg" width="24" height="24" viewBox="0 0 24 24" fill="currentColor" tags="labels,badges,tickets,marks,copy,multiple" categories="account">
  <path d="M 7,1 C 5.9072751,1 5,1.9072751 5,3 v 6.171875 c 1.698e-4,0.7952004 0.3165297,1.558887 0.8789062,2.121094 l 6.7109378,6.710937 C 13.911691,19.332236 16.09394,19.330993 17.414062,18 L 22,13.414063 l 0.0039,-0.0039 c 1.327,-1.320523 1.327,-3.4997886 0,-4.8203122 L 22,8.5859375 15.292969,1.8789062 C 14.730762,1.3165297 13.967075,1.0001698 13.171875,1 Z m 0,2 h 6.171875 c 0.265579,5.67e-5 0.519267,0.1051478 0.707031,0.2929688 l 6.710938,6.7109372 a 1.0001,1.0001 0 0 0 0.002,0.002 c 0.560784,0.556205 0.560784,1.432077 0,1.988282 a 1.0001,1.0001 0 0 0 -0.002,0.002 l -4.59375,4.59375 a 1.0001,1.0001 0 0 0 -0.002,0.002 c -0.556205,0.560784 -1.432077,0.560784 -1.988282,0 a 1.0001,1.0001 0 0 0 -0.002,-0.002 L 7.2929687,9.8789063 C 7.1051478,9.691142 7.0000567,9.4374538 7,9.171875 Z"/>
  <path d="M 2,6 A 1,1 0 0 0 1,7 v 6.171875 c 1.698e-4,0.7952 0.3165297,1.558887 0.8789062,2.121094 L 8.5859375,22 c 1.2122843,1.221663 3.1707975,1.340085 4.5214845,0.273437 a 1,1 0 0 0 0.164062,-1.404296 1,1 0 0 0 -1.404296,-0.164063 c -0.565259,0.446389 -1.353992,0.397981 -1.861329,-0.113281 a 1.0001,1.0001 0 0 0 -0.002,-0.002 L 3.2929688,13.878906 C 3.1051478,13.691142 3.0000567,13.437454 3,13.171875 V 7 A 1,1 0 0 0 2,6 Z"/>
  <g id="circle2" style="opacity:1" stroke-width="0">
    <path d="M 11,6.5 A 0.5,0.5 0 0 1 10.5,7 0.5,0.5 0 0 1 10,6.5 0.5,0.5 0 0 1 10.5,6 0.5,0.5 0 0 1 11,6.5 Z"/>
    <path d="M 10.5,5 C 9.6834175,5 9,5.6834175 9,6.5 9,7.3165825 9.6834175,8 10.5,8 11.316582,8 12,7.3165825 12,6.5 12,5.6834175 11.316582,5 10.5,5 Z m 0,1 C 10.764298,6 11,6.2357023 11,6.5 11,6.7642977 10.764298,7 10.5,7 10.235702,7 10,6.7642977 10,6.5 10,6.2357023 10.235702,6 10.5,6 Z"/>
  </g>
</svg>
