<?xml version="1.0" encoding="UTF-8" standalone="no"?>
<svg xmlns="http://www.w3.org/2000/svg" xmlns:svg="http://www.w3.org/2000/svg" width="24" height="24" viewBox="0 0 24 24" fill="currentColor" tags="labels,badges,tickets,marks,copy,multiple" categories="account">
  <path d="m 15,4 a 1,1 0 0 0 -0.707031,0.2929687 1,1 0 0 0 0,1.4140625 l 6.300781,6.3007818 c 0.557509,0.555576 0.557509,1.428798 0,1.984375 l -4.300781,4.300781 a 1,1 0 0 0 0,1.414062 1,1 0 0 0 1.414062,0 l 4.298828,-4.298828 0.002,-0.002 c 1.322213,-1.319811 1.322213,-3.492689 0,-4.8125 l -0.002,-0.002 -6.298828,-6.2988283 A 1,1 0 0 0 15,4 Z"/>
  <path style="fill:#000000" d="M 3,4 C 1.9072751,4 1,4.9072751 1,6 v 5.171875 c 1.698e-4,0.7952 0.3165297,1.558887 0.8789062,2.121094 l 5.703125,5.705078 A 1.0001,1.0001 0 0 0 7.5859375,19 c 1.3279224,1.319538 3.5002025,1.319538 4.8281255,0 a 1.0001,1.0001 0 0 0 0.0039,-0.002 l 3.580078,-3.580078 A 1.0001,1.0001 0 0 0 16,15.414063 c 1.319538,-1.327923 1.319538,-3.500203 0,-4.828125 a 1.0001,1.0001 0 0 0 -0.002,-0.0039 L 10.292969,4.8789062 C 9.7307621,4.3165297 8.9670754,4.0001698 8.171875,4 Z m 0,2 h 5.171875 c 0.2655788,5.67e-5 0.519267,0.1051478 0.7070313,0.2929687 l 5.7031247,5.7050783 c 0.557466,0.56452 0.557749,1.444555 -0.002,2.007812 l -3.578125,3.576172 c -0.56452,0.557466 -1.4445546,0.557749 -2.0078124,-0.002 L 3.2929688,11.878906 C 3.1051478,11.691142 3.0000567,11.437454 3,11.171875 Z" id="path2" stroke-width="0"/>
  <g id="circle2" stroke-width="0">
    <path style="fill:currentColor" d="M 7,9.5 A 0.5,0.5 0 0 1 6.5,10 0.5,0.5 0 0 1 6,9.5 0.5,0.5 0 0 1 6.5,9 0.5,0.5 0 0 1 7,9.5 Z" id="path3"/>
    <path style="fill:#000000" d="M 6.5,8 C 5.6834175,8 5,8.6834175 5,9.5 5,10.316582 5.6834175,11 6.5,11 7.3165825,11 8,10.316582 8,9.5 8,8.6834175 7.3165825,8 6.5,8 Z m 0,1 C 6.7642977,9 7,9.2357023 7,9.5 7,9.7642977 6.7642977,10 6.5,10 6.2357023,10 6,9.7642977 6,9.5 6,9.2357023 6.2357023,9 6.5,9 Z" id="path4"/>
  </g>
</svg>
