<?xml version="1.0" encoding="UTF-8" standalone="no"?>
<svg xmlns="http://www.w3.org/2000/svg" xmlns:svg="http://www.w3.org/2000/svg" width="24" height="24" viewBox="0 0 24 24" fill="currentColor" tags="labels,badges,tickets,marks,copy,multiple" categories="account">
  <path d="M 2 4 A 1.0001 1.0001 0 0 0 1 5 L 1 12 A 1.0001 1.0001 0 0 0 1.2929688 12.707031 L 7.5820312 18.998047 C 8.9081791 20.324195 11.091821 20.324195 12.417969 18.998047 L 15.998047 15.417969 C 17.324195 14.091821 17.324195 11.908179 15.998047 10.582031 L 9.7070312 4.2929688 A 1.0001 1.0001 0 0 0 9 4 L 2 4 z M 15 4 A 1 1 0 0 0 14.292969 4.2929688 A 1 1 0 0 0 14.292969 5.7070312 L 20.59375 12.007812 C 21.151257 12.563387 21.151257 13.436612 20.59375 13.992188 L 16.292969 18.292969 A 1 1 0 0 0 16.292969 19.707031 A 1 1 0 0 0 17.707031 19.707031 L 22.005859 15.408203 L 22.007812 15.40625 C 23.330022 14.086441 23.330022 11.913559 22.007812 10.59375 L 22.005859 10.591797 L 15.707031 4.2929688 A 1 1 0 0 0 15 4 z M 3 6 L 8.5859375 6 L 14.582031 11.998047 C 15.13588 12.551895 15.13588 13.448105 14.582031 14.001953 L 11.001953 17.582031 C 10.448105 18.13588 9.5518952 18.13588 8.9980469 17.582031 L 3 11.585938 L 3 6 z M 6 8 A 1 1 0 0 0 5 9 L 5 9.0097656 A 1 1 0 0 0 6 10.009766 A 1 1 0 0 0 7 9.0097656 L 7 9 A 1 1 0 0 0 6 8 z "/>
</svg>
