<?xml version="1.0" encoding="UTF-8" standalone="no"?>
<svg xmlns="http://www.w3.org/2000/svg" xmlns:svg="http://www.w3.org/2000/svg" width="24" height="24" viewBox="0 0 24 24" fill="currentColor" tags="count,score,enumerate,days,4,fourth,quadruple,bars,prison,cell,sentence" categories="math,gaming">
  <path d="M 4 3 A 1 1 0 0 0 3 4 L 3 20 A 1 1 0 0 0 4 21 A 1 1 0 0 0 5 20 L 5 4 A 1 1 0 0 0 4 3 z M 9 3 A 1 1 0 0 0 8 4 L 8 20 A 1 1 0 0 0 9 21 A 1 1 0 0 0 10 20 L 10 4 A 1 1 0 0 0 9 3 z M 14 3 A 1 1 0 0 0 13 4 L 13 20 A 1 1 0 0 0 14 21 A 1 1 0 0 0 15 20 L 15 4 A 1 1 0 0 0 14 3 z M 19 3 A 1 1 0 0 0 18 4 L 18 20 A 1 1 0 0 0 19 21 A 1 1 0 0 0 20 20 L 20 4 A 1 1 0 0 0 19 3 z "/>
</svg>
