<svg xmlns="http://www.w3.org/2000/svg" xmlns:svg="http://www.w3.org/2000/svg" width="24" height="24" viewBox="0 0 24 24" fill="currentColor" tags="tangential,shape,circle,geometry,trigonometry,bezier curve" categories="shapes,math,design,tools">
  <path d="M 17 1 C 15.35499 1 14 2.3549904 14 4 C 14 4.4607098 14.105755 4.8991965 14.294922 5.2910156 L 9.7929688 9.7929688 L 5.2910156 14.294922 C 4.8991965 14.105755 4.4607098 14 4 14 C 2.3549904 14 1 15.35499 1 17 C 1 18.64501 2.3549904 20 4 20 C 5.6450096 20 7 18.64501 7 17 C 7 16.53929 6.8942447 16.100803 6.7050781 15.708984 L 8.6914062 13.722656 C 8.7550284 14.948264 9.0206536 16.235717 9.3457031 17.447266 C 10.058129 20.102669 11.085936 22.40625 11.085938 22.40625 A 1 1 0 0 0 12.40625 22.914062 A 1 1 0 0 0 12.914062 21.59375 C 12.914062 21.59375 11.941871 19.397331 11.279297 16.927734 C 10.94801 15.692936 10.700512 14.394139 10.679688 13.332031 C 10.658869 12.270529 10.888727 11.525921 11.207031 11.207031 C 11.525921 10.888727 12.270529 10.658873 13.332031 10.679688 C 14.394139 10.700518 15.692936 10.94801 16.927734 11.279297 C 19.397331 11.941871 21.59375 12.914062 21.59375 12.914062 A 1 1 0 0 0 22.914062 12.40625 A 1 1 0 0 0 22.40625 11.085938 C 22.40625 11.085938 20.102669 10.058129 17.447266 9.3457031 C 16.235717 9.0206536 14.948264 8.7550286 13.722656 8.6914062 L 15.708984 6.7050781 C 16.100803 6.8942447 16.53929 7 17 7 C 18.64501 7 20 5.6450096 20 4 C 20 2.3549904 18.64501 1 17 1 z M 17 3 C 17.564129 3 18 3.4358706 18 4 C 18 4.5641294 17.564129 5 17 5 C 16.758026 5 16.539644 4.9193143 16.369141 4.7832031 A 1 1 0 0 0 16.296875 4.703125 A 1 1 0 0 0 16.216797 4.6308594 C 16.080686 4.4603561 16 4.2419745 16 4 C 16 3.4358706 16.435871 3 17 3 z M 4 16 C 4.2419745 16 4.4603561 16.080686 4.6308594 16.216797 A 1 1 0 0 0 4.703125 16.296875 A 1 1 0 0 0 4.7832031 16.369141 C 4.9193143 16.539644 5 16.758026 5 17 C 5 17.564129 4.5641294 18 4 18 C 3.4358706 18 3 17.564129 3 17 C 3 16.435871 3.4358706 16 4 16 z "/>
</svg>
