<?xml version="1.0" encoding="UTF-8" standalone="no"?>
<svg xmlns="http://www.w3.org/2000/svg" xmlns:svg="http://www.w3.org/2000/svg" width="24" height="24" viewBox="0 0 24 24" fill="currentColor" tags="tangential,shape,circle,geometry,trigonometry,bezier curve" categories="shapes,math,design,tools">
  <path d="M 17 1 C 15.35499 1 14 2.3549904 14 4 C 14 4.4604959 14.107873 4.8973825 14.296875 5.2890625 L 9.7929688 9.7929688 L 5.2890625 14.296875 C 4.8973825 14.107873 4.4604959 14 4 14 C 2.3549904 14 1 15.35499 1 17 C 1 18.64501 2.3549904 20 4 20 C 5.6450096 20 7 18.64501 7 17 C 7 16.539504 6.892127 16.102618 6.703125 15.710938 L 8.6953125 13.71875 C 8.7585998 14.945444 9.0203327 16.234521 9.3457031 17.447266 C 10.058129 20.102669 11.085936 22.40625 11.085938 22.40625 A 1 1 0 0 0 12.40625 22.914062 A 1 1 0 0 0 12.914062 21.59375 C 12.914062 21.59375 11.941871 19.397331 11.279297 16.927734 C 10.94801 15.692936 10.700512 14.394139 10.679688 13.332031 C 10.658857 12.269924 10.888444 11.525618 11.207031 11.207031 C 11.525618 10.888444 12.269924 10.658861 13.332031 10.679688 C 14.394139 10.700518 15.692936 10.94801 16.927734 11.279297 C 19.397331 11.941871 21.59375 12.914062 21.59375 12.914062 A 1 1 0 0 0 22.914062 12.40625 A 1 1 0 0 0 22.40625 11.085938 C 22.40625 11.085938 20.102669 10.058129 17.447266 9.3457031 C 16.234521 9.0203327 14.945444 8.7586001 13.71875 8.6953125 L 15.710938 6.703125 C 16.102618 6.892127 16.539504 7 17 7 C 18.64501 7 20 5.6450096 20 4 C 20 2.3549904 18.64501 1 17 1 z M 17 3 C 17.564129 3 18 3.4358706 18 4 C 18 4.5641294 17.564129 5 17 5 C 16.755806 5 16.536413 4.91769 16.365234 4.7792969 A 1 1 0 0 0 16.296875 4.703125 A 1 1 0 0 0 16.251953 4.671875 C 16.094572 4.4959868 16 4.2621516 16 4 C 16 3.4358706 16.435871 3 17 3 z M 4 16 C 4.2621516 16 4.4959868 16.094572 4.671875 16.251953 A 1 1 0 0 0 4.703125 16.296875 A 1 1 0 0 0 4.7480469 16.328125 C 4.9054279 16.504013 5 16.737849 5 17 C 5 17.564129 4.5641294 18 4 18 C 3.4358706 18 3 17.564129 3 17 C 3 16.435871 3.4358706 16 4 16 z "/>
</svg>
