<?xml version="1.0" encoding="UTF-8" standalone="no"?>
<svg xmlns="http://www.w3.org/2000/svg" xmlns:svg="http://www.w3.org/2000/svg" width="24" height="24" viewBox="0 0 24 24" fill="currentColor" tags="logo,bullseye,deadline,projects,overview,work,productivity" categories="brands,gaming">
  <path d="M 12 1 C 5.9367124 1 1 5.9367124 1 12 C 1 18.063288 5.9367124 23 12 23 C 18.063288 23 23 18.063288 23 12 C 23 5.9367124 18.063288 1 12 1 z M 12 3 C 16.982407 3 21 7.0175926 21 12 C 21 16.982407 16.982407 21 12 21 C 7.0175926 21 3 16.982407 3 12 C 3 7.0175926 7.0175926 3 12 3 z M 12 5 C 8.1458514 5 5 8.1458514 5 12 C 5 15.854149 8.1458514 19 12 19 C 15.854149 19 19 15.854149 19 12 C 19 8.1458514 15.854149 5 12 5 z M 12 7 C 14.773268 7 17 9.2267316 17 12 C 17 14.773268 14.773268 17 12 17 C 9.2267316 17 7 14.773268 7 12 C 7 9.2267316 9.2267316 7 12 7 z M 12 9 C 10.35499 9 9 10.35499 9 12 C 9 13.64501 10.35499 15 12 15 C 13.64501 15 15 13.64501 15 12 C 15 10.35499 13.64501 9 12 9 z M 12 11 C 12.564129 11 13 11.435871 13 12 C 13 12.564129 12.564129 13 12 13 C 11.435871 13 11 12.564129 11 12 C 11 11.435871 11.435871 11 12 11 z "/>
</svg>
