<svg xmlns="http://www.w3.org/2000/svg" xmlns:svg="http://www.w3.org/2000/svg" width="24" height="24" viewBox="0 0 24 24" fill="currentColor" tags="astronomy,space,discovery,exploration,explore,vision,perspective,focus,stargazing,observe,view" categories="science,development,tools">
  <path d="M 19.185547 2.2167969 C 19.053546 2.2220157 18.919525 2.2404055 18.787109 2.2734375 L 17.697266 2.5449219 C 16.684169 2.798354 15.916558 3.5529416 15.59375 4.4785156 L 5.8867188 7.6699219 A 1 1 0 0 0 5.8046875 7.6972656 L 2.6191406 8.7441406 A 1.0001 1.0001 0 0 0 2.6054688 8.7480469 C 1.6031407 9.0934069 1.0165403 10.165303 1.2675781 11.195312 A 1.0001 1.0001 0 0 0 1.2695312 11.201172 L 1.8027344 13.333984 C 2.0388265 14.353299 3.0751598 15.010968 4.0976562 14.789062 L 9.0898438 13.722656 C 9.2197077 14.238526 9.4840494 14.70508 9.84375 15.078125 L 7.1054688 20.552734 A 1 1 0 0 0 7.5527344 21.894531 A 1 1 0 0 0 8.8945312 21.447266 L 11.628906 15.976562 C 11.750339 15.991807 11.874733 16 12 16 C 12.125267 16 12.249661 15.991807 12.371094 15.976562 L 15.105469 21.447266 A 1 1 0 0 0 16.447266 21.894531 A 1 1 0 0 0 16.894531 20.552734 L 14.15625 15.078125 C 14.677753 14.537274 15 13.80268 15 13 C 15 12.82016 14.984123 12.644173 14.953125 12.472656 L 17.583984 11.912109 C 18.291962 12.476089 19.244307 12.718562 20.181641 12.484375 L 21.271484 12.212891 A 1.0001 1.0001 0 0 0 21.273438 12.212891 C 22.333364 11.947334 22.992065 10.847049 22.726562 9.7871094 L 21.212891 3.7265625 C 20.980495 2.7999488 20.109553 2.180265 19.185547 2.2167969 z M 19.271484 4.2128906 L 20.787109 10.273438 L 19.697266 10.544922 C 19.31652 10.640049 18.944261 10.515237 18.707031 10.246094 A 1 1 0 0 0 18.642578 10.164062 C 18.57163 10.063768 18.516777 9.9470205 18.484375 9.8183594 L 18.484375 9.8164062 L 17.455078 5.6972656 C 17.429608 5.5953223 17.419201 5.4947619 17.423828 5.3964844 A 1 1 0 0 0 17.433594 5.3007812 C 17.489376 4.9132435 17.770632 4.587884 18.181641 4.484375 L 19.271484 4.2128906 z M 15.613281 6.5761719 L 16.494141 10.099609 L 13.867188 10.660156 C 13.353186 10.248186 12.703155 10 12 10 C 10.848747 10 9.8400063 10.662738 9.3378906 11.625 L 8.0078125 11.908203 L 7.3535156 9.2929688 L 15.613281 6.5761719 z M 5.4492188 9.9179688 L 6.0507812 12.326172 L 3.7363281 12.818359 L 3.2128906 10.720703 C 3.2041006 10.680473 3.2153003 10.654975 3.2539062 10.640625 L 5.4492188 9.9179688 z M 12 12 C 12.295953 12 12.557344 12.120897 12.738281 12.316406 A 1 1 0 0 0 12.824219 12.423828 C 12.935282 12.585184 13 12.783441 13 13 C 13 13.380875 12.800747 13.703772 12.498047 13.873047 A 1 1 0 0 0 12.447266 13.896484 A 1 1 0 0 0 12.408203 13.917969 C 12.284462 13.971296 12.14639 14 12 14 C 11.85361 14 11.715538 13.971296 11.591797 13.917969 A 1 1 0 0 0 11.552734 13.896484 A 1 1 0 0 0 11.501953 13.873047 C 11.199254 13.703772 11 13.380874 11 13 C 11 12.922748 11.00788 12.847042 11.023438 12.775391 A 1 1 0 0 0 11.042969 12.705078 C 11.165102 12.291323 11.539365 12 12 12 z "/>
</svg>
