<?xml version="1.0" encoding="UTF-8" standalone="no"?>
<svg xmlns="http://www.w3.org/2000/svg" xmlns:svg="http://www.w3.org/2000/svg" width="24" height="24" viewBox="0 0 24 24" fill="currentColor" tags="astronomy,space,discovery,exploration,explore,vision,perspective,focus,stargazing,observe,view" categories="science,development,tools">
  <path d="M 19.185547 2.2167969 C 19.053546 2.2220157 18.919525 2.2404055 18.787109 2.2734375 L 17.697266 2.5449219 C 16.684449 2.7982841 15.918667 3.5532911 15.595703 4.4785156 L 2.6191406 8.7441406 A 1.0001 1.0001 0 0 0 2.6054688 8.7480469 C 1.6031407 9.0934069 1.0165403 10.165303 1.2675781 11.195312 A 1.0001 1.0001 0 0 0 1.2695312 11.201172 L 1.8027344 13.333984 C 2.0388265 14.353299 3.0751598 15.010968 4.0976562 14.789062 L 9.0898438 13.722656 C 9.2195591 14.238696 9.4840605 14.70297 9.84375 15.076172 L 7.1054688 20.552734 A 1 1 0 0 0 7.5527344 21.894531 A 1 1 0 0 0 8.8945312 21.447266 L 11.630859 15.976562 C 11.751875 15.9917 11.87518 16 12 16 C 12.12482 16 12.248125 15.9917 12.369141 15.976562 L 15.105469 21.447266 A 1 1 0 0 0 16.447266 21.894531 A 1 1 0 0 0 16.894531 20.552734 L 14.15625 15.076172 C 14.677472 14.535369 15 13.802434 15 13 C 15 12.820467 14.984019 12.643896 14.953125 12.472656 L 17.583984 11.912109 C 18.291858 12.475514 19.244755 12.71845 20.181641 12.484375 L 21.271484 12.212891 A 1.0001 1.0001 0 0 0 21.273438 12.212891 C 22.333364 11.947334 22.992065 10.847049 22.726562 9.7871094 L 21.212891 3.7265625 C 20.980495 2.7999488 20.109553 2.180265 19.185547 2.2167969 z M 19.271484 4.2128906 L 20.787109 10.273438 L 19.697266 10.544922 C 19.306318 10.642597 18.925527 10.506889 18.689453 10.222656 A 1 1 0 0 0 18.654297 10.181641 C 18.576846 10.077257 18.518758 9.954887 18.484375 9.8183594 L 18.484375 9.8164062 L 17.455078 5.6972656 C 17.426395 5.5824613 17.418481 5.4691427 17.427734 5.359375 A 1 1 0 0 0 17.431641 5.3144531 C 17.482808 4.9210294 17.765907 4.5890739 18.181641 4.484375 L 19.271484 4.2128906 z M 15.613281 6.5761719 L 16.494141 10.099609 L 13.867188 10.660156 C 13.353219 10.248288 12.703058 10 12 10 C 10.849545 10 9.8423138 10.663819 9.3398438 11.625 L 8.0078125 11.908203 L 7.3535156 9.2929688 L 15.613281 6.5761719 z M 5.4492188 9.9179688 L 6.0507812 12.326172 L 3.7363281 12.818359 L 3.2128906 10.720703 C 3.2041006 10.680473 3.2153003 10.654975 3.2539062 10.640625 L 5.4492188 9.9179688 z M 12 12 C 12.30761 12 12.576347 12.130519 12.757812 12.339844 A 1 1 0 0 0 12.794922 12.384766 C 12.923869 12.552985 13 12.765091 13 13 C 13 13.397282 12.783888 13.729956 12.458984 13.892578 A 1 1 0 0 0 12.447266 13.896484 A 1 1 0 0 0 12.439453 13.902344 C 12.307732 13.96469 12.158977 14 12 14 C 11.846377 14 11.702607 13.966638 11.574219 13.908203 A 1 1 0 0 0 11.552734 13.896484 A 1 1 0 0 0 11.541016 13.892578 C 11.216112 13.729956 11 13.397282 11 13 C 11 12.896386 11.013514 12.796179 11.041016 12.703125 C 11.041765 12.700589 11.0422 12.697839 11.042969 12.695312 C 11.167528 12.285772 11.542309 12 12 12 z "/>
</svg>
