<?xml version="1.0" encoding="UTF-8" standalone="no"?>
<svg xmlns="http://www.w3.org/2000/svg" xmlns:svg="http://www.w3.org/2000/svg" width="24" height="24" viewBox="0 0 24 24" fill="currentColor" tags="tipi,teepee,wigwam,lodge,camping,campsite,holiday,retreat,nomadic,native american,indian,wilderness,outdoors" categories="travel,nature,sustainability">
  <path d="M 9.8652344 2.0097656 A 1 1 0 0 0 9.4960938 2.1367188 A 1 1 0 0 0 9.1367188 3.5039062 L 10.84375 6.4277344 L 2.9257812 20 L 2 20 A 1 1 0 0 0 1 21 A 1 1 0 0 0 2 22 L 8.4960938 22 L 15.503906 22 L 22 22 A 1 1 0 0 0 23 21 A 1 1 0 0 0 22 20 L 21.074219 20 L 13.15625 6.4277344 L 14.863281 3.5039062 A 1 1 0 0 0 14.503906 2.1367188 A 1 1 0 0 0 13.746094 2.0332031 A 1 1 0 0 0 13.136719 2.4960938 L 12 4.4453125 L 10.863281 2.4960938 A 1 1 0 0 0 10.253906 2.0332031 A 1 1 0 0 0 9.8652344 2.0097656 z M 12 8.4121094 L 18.759766 20 L 16.074219 20 L 12.863281 14.496094 A 1.0001 1.0001 0 0 0 12 14 A 1.0001 1.0001 0 0 0 11.136719 14.496094 L 7.9257812 20 L 5.2402344 20 L 12 8.4121094 z M 12 16.984375 L 13.759766 20 L 10.240234 20 L 12 16.984375 z "/>
</svg>
