<svg xmlns="http://www.w3.org/2000/svg" xmlns:svg="http://www.w3.org/2000/svg" width="24" height="24" viewBox="0 0 24 24" fill="currentColor" tags="code,command line,prompt,shell" categories="development">
  <path d="M 4 4 A 1 1 0 0 0 3.2929688 4.2929688 A 1 1 0 0 0 3.2929688 5.7070312 L 8.5859375 11 L 3.2929688 16.292969 A 1 1 0 0 0 3.2929688 17.707031 A 1 1 0 0 0 4.7070312 17.707031 L 10.707031 11.707031 A 1.0001 1.0001 0 0 0 10.707031 10.292969 L 4.7070312 4.2929688 A 1 1 0 0 0 4 4 z M 12 18 A 1 1 0 0 0 11 19 A 1 1 0 0 0 12 20 L 20 20 A 1 1 0 0 0 21 19 A 1 1 0 0 0 20 18 L 12 18 z "/>
</svg>
