<svg xmlns="http://www.w3.org/2000/svg" xmlns:svg="http://www.w3.org/2000/svg" width="24" height="24" viewBox="0 0 24 24" fill="currentColor" tags="words,lines,break,paragraph" categories="text,arrows">
  <path d="M 3 4 A 1 1 0 0 0 2 5 A 1 1 0 0 0 3 6 L 21 6 A 1 1 0 0 0 22 5 A 1 1 0 0 0 21 4 L 3 4 z M 3 11 A 1 1 0 0 0 2 12 A 1 1 0 0 0 3 13 L 17.5 13 C 18.416666 13 18.976893 13.307744 19.376953 13.757812 C 19.777013 14.20788 20 14.847222 20 15.5 C 20 16.152778 19.777013 16.792119 19.376953 17.242188 C 18.976893 17.692256 18.416666 18 17.5 18 L 15.414062 18 L 16.707031 16.707031 A 1 1 0 0 0 16.707031 15.292969 A 1 1 0 0 0 15.292969 15.292969 L 12.292969 18.292969 A 1.0001 1.0001 0 0 0 12.25 18.341797 A 1 1 0 0 0 12.212891 18.384766 A 1.0001 1.0001 0 0 0 12.175781 18.439453 A 1 1 0 0 0 12.138672 18.492188 A 1.0001 1.0001 0 0 0 12.134766 18.5 A 1 1 0 0 0 12.078125 18.611328 A 1.0001 1.0001 0 0 0 12.076172 18.617188 A 1 1 0 0 0 12.023438 18.794922 A 1.0001 1.0001 0 0 0 12.035156 19.257812 A 1 1 0 0 0 12.078125 19.388672 A 1.0001 1.0001 0 0 0 12.134766 19.5 A 1 1 0 0 0 12.175781 19.560547 A 1.0001 1.0001 0 0 0 12.212891 19.615234 A 1 1 0 0 0 12.25 19.658203 A 1.0001 1.0001 0 0 0 12.292969 19.707031 A 1 1 0 0 0 12.302734 19.716797 L 15.292969 22.707031 A 1 1 0 0 0 16.707031 22.707031 A 1 1 0 0 0 16.707031 21.292969 L 15.414062 20 L 17.5 20 C 18.916666 20 20.106441 19.432744 20.873047 18.570312 C 21.639653 17.707881 22 16.597222 22 15.5 C 22 14.402778 21.639653 13.292119 20.873047 12.429688 C 20.106441 11.567255 18.916666 11 17.5 11 L 3 11 z M 3 18 A 1 1 0 0 0 2 19 A 1 1 0 0 0 3 20 L 9 20 A 1 1 0 0 0 10 19 A 1 1 0 0 0 9 18 L 3 18 z "/>
</svg>
