<?xml version="1.0" encoding="UTF-8" standalone="no"?>
<svg xmlns="http://www.w3.org/2000/svg" xmlns:svg="http://www.w3.org/2000/svg" width="24" height="24" viewBox="0 0 24 24" fill="currentColor" tags="find,data,copy,txt,pdf,document,scan,magnifier,magnifying glass" categories="text">
  <path d="M 3 5 A 1 1 0 0 0 2 6 A 1 1 0 0 0 3 7 L 21 7 A 1 1 0 0 0 22 6 A 1 1 0 0 0 21 5 L 3 5 z M 3 11 A 1 1 0 0 0 2 12 A 1 1 0 0 0 3 13 L 10 13 A 1 1 0 0 0 11 12 A 1 1 0 0 0 10 11 L 3 11 z M 17 11 C 14.80271 11 13 12.80271 13 15 C 13 17.19729 14.80271 19 17 19 C 17.738479 19 18.43146 18.795196 19.027344 18.441406 L 20.292969 19.707031 A 1 1 0 0 0 21.707031 19.707031 A 1 1 0 0 0 21.707031 18.292969 L 20.441406 17.027344 C 20.795196 16.43146 21 15.738479 21 15 C 21 12.80271 19.19729 11 17 11 z M 17 13 C 18.116412 13 19 13.883588 19 15 C 19 15.480363 18.835875 15.91745 18.560547 16.259766 A 1 1 0 0 0 18.392578 16.392578 A 1 1 0 0 0 18.259766 16.560547 C 17.91745 16.835875 17.480363 17 17 17 C 15.883588 17 15 16.116412 15 15 C 15 13.883588 15.883588 13 17 13 z M 3 17 A 1 1 0 0 0 2 18 A 1 1 0 0 0 3 19 L 10 19 A 1 1 0 0 0 11 18 A 1 1 0 0 0 10 17 L 3 17 z "/>
</svg>
