<?xml version="1.0" encoding="UTF-8" standalone="no"?>
<svg xmlns="http://www.w3.org/2000/svg" xmlns:svg="http://www.w3.org/2000/svg" width="24" height="24" viewBox="0 0 24 24" fill="currentColor" tags="find,data,copy,txt,pdf,document,scan,magnifier,magnifying glass,lens" categories="text">
  <path d="M 3 5 A 1 1 0 0 0 2 6 A 1 1 0 0 0 3 7 L 21 7 A 1 1 0 0 0 22 6 A 1 1 0 0 0 21 5 L 3 5 z M 3 11 A 1 1 0 0 0 2 12 A 1 1 0 0 0 3 13 L 10 13 A 1 1 0 0 0 11 12 A 1 1 0 0 0 10 11 L 3 11 z M 17 11 C 14.802706 11 13 12.802706 13 15 C 13 17.197294 14.802706 19 17 19 C 17.738545 19 18.433377 18.797207 19.029297 18.443359 L 20.292969 19.707031 A 1 1 0 0 0 21.707031 19.707031 A 1 1 0 0 0 21.707031 18.292969 L 20.443359 17.029297 C 20.797207 16.433377 21 15.738545 21 15 C 21 12.802706 19.197294 11 17 11 z M 17 13 C 18.116414 13 19 13.883586 19 15 C 19 15.477709 18.838982 15.912441 18.566406 16.253906 A 1 1 0 0 0 18.392578 16.392578 A 1 1 0 0 0 18.253906 16.566406 C 17.912441 16.838982 17.477709 17 17 17 C 15.883586 17 15 16.116414 15 15 C 15 13.883586 15.883586 13 17 13 z M 3 17 A 1 1 0 0 0 2 18 A 1 1 0 0 0 3 19 L 10 19 A 1 1 0 0 0 11 18 A 1 1 0 0 0 10 17 L 3 17 z "/>
</svg>
