<?xml version="1.0" encoding="UTF-8" standalone="no"?>
<svg xmlns="http://www.w3.org/2000/svg" xmlns:svg="http://www.w3.org/2000/svg" width="24" height="24" viewBox="0 0 24 24" fill="currentColor" tags="text,alignment,center" categories="text">
  <path d="M 3 4 A 1 1 0 0 0 2 5 A 1 1 0 0 0 3 6 L 21 6 A 1 1 0 0 0 22 5 A 1 1 0 0 0 21 4 L 3 4 z M 7 11 A 1 1 0 0 0 6 12 A 1 1 0 0 0 7 13 L 17 13 A 1 1 0 0 0 18 12 A 1 1 0 0 0 17 11 L 7 11 z M 5 18 A 1 1 0 0 0 4 19 A 1 1 0 0 0 5 20 L 19 20 A 1 1 0 0 0 20 19 A 1 1 0 0 0 19 18 L 5 18 z "/>
</svg>
