<svg xmlns="http://www.w3.org/2000/svg" xmlns:svg="http://www.w3.org/2000/svg" width="24" height="24" viewBox="0 0 24 24" fill="currentColor" tags="drop cap,text,format,typography,letter,font size" categories="text">
  <path d="M 7 3.0429688 C 6.4607903 3.0429688 5.9207836 3.3042145 5.6582031 3.828125 A 1.0001 1.0001 0 0 0 5.6445312 3.8574219 L 3.0195312 9.5664062 A 1 1 0 0 0 3.0039062 9.5996094 L 2.0917969 11.582031 A 1 1 0 0 0 2.5820312 12.908203 A 1 1 0 0 0 3.9082031 12.417969 L 4.5605469 11 L 9.4394531 11 L 10.091797 12.417969 A 1 1 0 0 0 11.417969 12.908203 A 1 1 0 0 0 11.908203 11.582031 L 10.996094 9.5996094 A 1 1 0 0 0 10.980469 9.5664062 L 8.3554688 3.8574219 A 1.0001 1.0001 0 0 0 8.3417969 3.828125 C 8.0792164 3.3042145 7.5392097 3.0429688 7 3.0429688 z M 15 4 A 1 1 0 0 0 14 5 A 1 1 0 0 0 15 6 L 21 6 A 1 1 0 0 0 22 5 A 1 1 0 0 0 21 4 L 15 4 z M 7 5.6953125 L 8.5195312 9 L 5.4804688 9 L 7 5.6953125 z M 15 11 A 1 1 0 0 0 14 12 A 1 1 0 0 0 15 13 L 21 13 A 1 1 0 0 0 22 12 A 1 1 0 0 0 21 11 L 15 11 z M 3 18 A 1 1 0 0 0 2 19 A 1 1 0 0 0 3 20 L 21 20 A 1 1 0 0 0 22 19 A 1 1 0 0 0 21 18 L 3 18 z "/>
</svg>
