<?xml version="1.0" encoding="UTF-8" standalone="no"?>
<svg xmlns="http://www.w3.org/2000/svg" xmlns:svg="http://www.w3.org/2000/svg" width="24" height="24" viewBox="0 0 24 24" fill="currentColor" tags="find,search,data,txt,pdf,document" categories="text,files,cursors">
  <path d="M 3 5.0996094 A 1 1 0 0 0 2 6.0996094 A 1 1 0 0 0 3 7.0996094 L 17 7.0996094 A 1 1 0 0 0 18 6.0996094 A 1 1 0 0 0 17 5.0996094 L 3 5.0996094 z M 3 11.099609 A 1 1 0 0 0 2 12.099609 A 1 1 0 0 0 3 13.099609 L 21 13.099609 A 1 1 0 0 0 22 12.099609 A 1 1 0 0 0 21 11.099609 L 3 11.099609 z M 3 17 A 1 1 0 0 0 2 18 A 1 1 0 0 0 3 19 L 15.099609 19 A 1 1 0 0 0 16.099609 18 A 1 1 0 0 0 15.099609 17 L 3 17 z "/>
</svg>
