<svg xmlns="http://www.w3.org/2000/svg" xmlns:svg="http://www.w3.org/2000/svg" width="24" height="24" viewBox="0 0 24 24" fill="currentColor" tags="blockquote,quotation,indent,reply,response" categories="text">
  <path d="M 3 4 A 1 1 0 0 0 2 5 A 1 1 0 0 0 3 6 L 17 6 A 1 1 0 0 0 18 5 A 1 1 0 0 0 17 4 L 3 4 z M 3 11 A 1 1 0 0 0 2 12 L 2 19 A 1 1 0 0 0 3 20 A 1 1 0 0 0 4 19 L 4 12 A 1 1 0 0 0 3 11 z M 8 11 A 1 1 0 0 0 7 12 A 1 1 0 0 0 8 13 L 21 13 A 1 1 0 0 0 22 12 A 1 1 0 0 0 21 11 L 8 11 z M 8 18 A 1 1 0 0 0 7 19 A 1 1 0 0 0 8 20 L 21 20 A 1 1 0 0 0 22 19 A 1 1 0 0 0 21 18 L 8 18 z "/>
</svg>
