<?xml version="1.0" encoding="UTF-8" standalone="no"?>
<svg xmlns="http://www.w3.org/2000/svg" xmlns:svg="http://www.w3.org/2000/svg" width="24" height="24" viewBox="0 0 24 24" fill="currentColor" tags="theater,theatre,entertainment,podium,stage,musical" categories="buildings,social">
  <path d="M 5 1 A 1 1 0 0 0 4 2 C 4 6.6 1.2929688 9.2929688 1.2929688 9.2929688 A 1 1 0 0 0 1.2265625 9.3769531 A 1 1 0 0 0 1.1757812 9.4414062 A 1 1 0 0 0 1.1464844 9.484375 A 1 1 0 0 0 1.1113281 9.5585938 A 1 1 0 0 0 1.0546875 9.6816406 A 1 1 0 0 0 1.0449219 9.7207031 A 1 1 0 0 0 1.0292969 9.7910156 A 1 1 0 0 0 1.0058594 9.9570312 A 1 1 0 0 0 1.0058594 10.042969 A 1 1 0 0 0 1.0292969 10.208984 A 1 1 0 0 0 1.0449219 10.279297 A 1 1 0 0 0 1.0546875 10.318359 A 1 1 0 0 0 1.1113281 10.441406 A 1 1 0 0 0 1.1464844 10.515625 A 1 1 0 0 0 1.1757812 10.558594 A 1 1 0 0 0 1.2265625 10.623047 A 1 1 0 0 0 1.2929688 10.707031 C 1.2929688 10.707031 3 12.444444 3 15 A 1 1 0 0 0 4 16 A 1 1 0 0 0 5 15 C 5 13.251463 4.4099903 11.80858 3.828125 10.810547 C 7.9064444 9.9583983 11 6.3195496 11 2 A 1 1 0 0 0 10 1 A 1 1 0 0 0 9 2 C 9 5.0846364 6.9852395 7.7128459 4.2050781 8.640625 C 5.0744983 7.1351978 6 4.8617168 6 2 A 1 1 0 0 0 5 1 z M 14 1 A 1 1 0 0 0 13 2 C 13 6.3195496 16.093555 9.9583983 20.171875 10.810547 C 19.59001 11.80858 19 13.251463 19 15 A 1 1 0 0 0 20 16 A 1 1 0 0 0 21 15 C 21 12.444444 22.707031 10.707031 22.707031 10.707031 A 1 1 0 0 0 22.763672 10.646484 A 1 1 0 0 0 22.773438 10.634766 A 1 1 0 0 0 22.808594 10.587891 A 1 1 0 0 0 22.810547 10.583984 A 1 1 0 0 0 22.814453 10.580078 A 1 1 0 0 0 22.832031 10.554688 A 1 1 0 0 0 22.839844 10.542969 A 1 1 0 0 0 22.923828 10.382812 A 1 1 0 0 0 22.931641 10.363281 A 1 1 0 0 0 22.949219 10.3125 A 1 1 0 0 0 22.949219 10.310547 A 1 1 0 0 0 22.951172 10.308594 A 1 1 0 0 0 22.951172 10.306641 A 1 1 0 0 0 22.955078 10.294922 A 1 1 0 0 0 22.957031 10.291016 A 1 1 0 0 0 22.958984 10.285156 A 1 1 0 0 0 22.980469 10.195312 A 1 1 0 0 0 22.982422 10.183594 A 1 1 0 0 0 22.994141 10.097656 A 1 1 0 0 0 22.998047 10.041016 A 1 1 0 0 0 22.998047 10.033203 A 1 1 0 0 0 22.998047 9.9589844 A 1 1 0 0 0 22.994141 9.9023438 A 1 1 0 0 0 22.992188 9.8769531 A 1 1 0 0 0 22.984375 9.8339844 A 1 1 0 0 0 22.982422 9.8144531 A 1 1 0 0 0 22.980469 9.8046875 A 1 1 0 0 0 22.978516 9.7949219 A 1 1 0 0 0 22.976562 9.7890625 A 1 1 0 0 0 22.974609 9.7832031 A 1 1 0 0 0 22.974609 9.7773438 A 1 1 0 0 0 22.96875 9.7597656 A 1 1 0 0 0 22.958984 9.7148438 A 1 1 0 0 0 22.957031 9.7089844 A 1 1 0 0 0 22.943359 9.6699219 A 1 1 0 0 0 22.939453 9.6621094 A 1 1 0 0 0 22.931641 9.6367188 A 1 1 0 0 0 22.923828 9.6171875 A 1 1 0 0 0 22.900391 9.5664062 A 1 1 0 0 0 22.898438 9.5605469 A 1 1 0 0 0 22.847656 9.46875 A 1 1 0 0 0 22.832031 9.4453125 A 1 1 0 0 0 22.814453 9.4199219 A 1 1 0 0 0 22.78125 9.3769531 A 1 1 0 0 0 22.779297 9.3730469 A 1 1 0 0 0 22.773438 9.3652344 A 1 1 0 0 0 22.763672 9.3535156 A 1 1 0 0 0 22.707031 9.2929688 C 22.707031 9.2929688 20 6.6 20 2 A 1 1 0 0 0 19 1 A 1 1 0 0 0 18 2 C 18 4.8617168 18.925502 7.1351978 19.794922 8.640625 C 17.014761 7.7128459 15 5.0846364 15 2 A 1 1 0 0 0 14 1 z M 8 14 A 1 1 0 0 0 7 15 A 1 1 0 0 0 8 16 L 16 16 A 1 1 0 0 0 17 15 A 1 1 0 0 0 16 14 L 8 14 z M 4 18 C 2.3549904 18 1 19.35499 1 21 L 1 22 A 1 1 0 0 0 2 23 A 1 1 0 0 0 3 22 L 3 21 C 3 20.435871 3.4358706 20 4 20 L 8 20 C 8.5641294 20 9 20.435871 9 21 L 9 22 A 1 1 0 0 0 10 23 A 1 1 0 0 0 11 22 L 11 21 C 11 19.35499 9.6450096 18 8 18 L 4 18 z M 16 18 C 14.35499 18 13 19.35499 13 21 L 13 22 A 1 1 0 0 0 14 23 A 1 1 0 0 0 15 22 L 15 21 C 15 20.435871 15.435871 20 16 20 L 20 20 C 20.564129 20 21 20.435871 21 21 L 21 22 A 1 1 0 0 0 22 23 A 1 1 0 0 0 23 22 L 23 21 C 23 19.35499 21.64501 18 20 18 L 16 18 z "/>
</svg>
