<svg xmlns="http://www.w3.org/2000/svg" xmlns:svg="http://www.w3.org/2000/svg" width="24" height="24" viewBox="0 0 24 24" fill="currentColor" tags="theater,theatre,entertainment,podium,stage,musical" categories="buildings,social">
  <path d="M 5 1 A 1 1 0 0 0 4 2 C 4 6.5650695 1.3334589 9.2524257 1.2929688 9.2929688 A 1 1 0 0 0 1.2617188 9.328125 A 1 1 0 0 0 1.2109375 9.3847656 A 1 1 0 0 0 1.2070312 9.390625 A 1 1 0 0 0 1.078125 9.6132812 A 1 1 0 0 0 1.0625 9.65625 A 1 1 0 0 0 1.0351562 9.7382812 A 1 1 0 0 0 1.0351562 9.7421875 A 1 1 0 0 0 1.0078125 9.8671875 A 1 1 0 0 0 1.0078125 9.8691406 A 1 1 0 0 0 1.0351562 10.257812 A 1 1 0 0 0 1.0351562 10.259766 A 1 1 0 0 0 1.0488281 10.300781 A 1 1 0 0 0 1.0761719 10.382812 A 1 1 0 0 0 1.078125 10.384766 A 1 1 0 0 0 1.1347656 10.5 A 1 1 0 0 0 1.1367188 10.503906 A 1 1 0 0 0 1.2070312 10.609375 A 1 1 0 0 0 1.2753906 10.6875 A 1 1 0 0 0 1.2929688 10.707031 A 1 1 0 0 0 1.2949219 10.708984 A 1 1 0 0 0 1.296875 10.710938 C 1.3876968 10.805346 3 12.516425 3 15 A 1 1 0 0 0 4 16 A 1 1 0 0 0 5 15 C 5 13.252704 4.4095899 11.810458 3.828125 10.8125 C 7.9064496 9.9603554 11 6.3195532 11 2 A 1 1 0 0 0 10 1 A 1 1 0 0 0 9 2 C 9 5.0849837 6.985725 7.7150781 4.2050781 8.6425781 C 5.074866 7.1371666 6 4.863105 6 2 A 1 1 0 0 0 5 1 z M 14 1 A 1 1 0 0 0 13 2 C 13 6.3195534 16.09355 9.9603555 20.171875 10.8125 C 19.59041 11.810458 19 13.252704 19 15 A 1 1 0 0 0 20 16 A 1 1 0 0 0 21 15 C 21 12.516478 22.61224 10.805413 22.703125 10.710938 A 1 1 0 0 0 22.705078 10.708984 A 1 1 0 0 0 22.707031 10.707031 A 1 1 0 0 0 22.724609 10.6875 A 1 1 0 0 0 22.791016 10.613281 A 1 1 0 0 0 22.792969 10.609375 A 1 1 0 0 0 22.863281 10.503906 A 1 1 0 0 0 22.865234 10.5 A 1 1 0 0 0 22.921875 10.384766 A 1 1 0 0 0 22.923828 10.382812 A 1 1 0 0 0 22.964844 10.259766 A 1 1 0 0 0 22.964844 10.257812 A 1 1 0 0 0 22.992188 9.8671875 A 1 1 0 0 0 22.964844 9.7421875 A 1 1 0 0 0 22.964844 9.7382812 A 1 1 0 0 0 22.923828 9.6171875 A 1 1 0 0 0 22.921875 9.6132812 A 1 1 0 0 0 22.792969 9.390625 A 1 1 0 0 0 22.789062 9.3847656 A 1 1 0 0 0 22.707031 9.2929688 A 1 1 0 0 0 22.699219 9.2851562 C 22.548645 9.1314719 20 6.4641626 20 2 A 1 1 0 0 0 19 1 A 1 1 0 0 0 18 2 C 18 4.863105 18.925134 7.1371666 19.794922 8.6425781 C 17.014275 7.7150781 15 5.0849837 15 2 A 1 1 0 0 0 14 1 z M 8 14 A 1 1 0 0 0 7 15 A 1 1 0 0 0 8 16 L 16 16 A 1 1 0 0 0 17 15 A 1 1 0 0 0 16 14 L 8 14 z M 4 18 C 2.3549904 18 1 19.35499 1 21 L 1 22 A 1 1 0 0 0 2 23 A 1 1 0 0 0 3 22 L 3 21 C 3 20.435871 3.4358706 20 4 20 L 8 20 C 8.5641294 20 9 20.435871 9 21 L 9 22 A 1 1 0 0 0 10 23 A 1 1 0 0 0 11 22 L 11 21 C 11 19.35499 9.6450096 18 8 18 L 4 18 z M 16 18 C 14.35499 18 13 19.35499 13 21 L 13 22 A 1 1 0 0 0 14 23 A 1 1 0 0 0 15 22 L 15 21 C 15 20.435871 15.435871 20 16 20 L 20 20 C 20.564129 20 21 20.435871 21 21 L 21 22 A 1 1 0 0 0 22 23 A 1 1 0 0 0 23 22 L 23 21 C 23 19.35499 21.64501 18 20 18 L 16 18 z "/>
</svg>
