<svg xmlns="http://www.w3.org/2000/svg" xmlns:svg="http://www.w3.org/2000/svg" width="24" height="24" viewBox="0 0 24 24" fill="currentColor" tags="temperature,celsius,fahrenheit,weather" categories="weather">
  <path d="M 12 1 C 11.277778 1 10.542119 1.2353472 9.9609375 1.7519531 C 9.3797556 2.268559 9 3.0833335 9 4 L 9 14.089844 C 7.286663 15.399018 6.6853319 17.491686 7.1699219 19.298828 C 7.7040197 21.290595 9.5130199 23.003906 12 23.003906 C 14.48698 23.003906 16.29598 21.290595 16.830078 19.298828 C 17.314668 17.491686 16.713337 15.399018 15 14.089844 L 15 4 C 15 3.0833335 14.620244 2.268559 14.039062 1.7519531 C 13.45788 1.2353472 12.722222 1 12 1 z M 12 3 C 12.277778 3 12.542119 3.097986 12.710938 3.2480469 C 12.879755 3.3981073 13 3.5833337 13 4 L 13 14.539062 A 1.0001 1.0001 0 0 0 13.5 15.40625 C 14.890522 16.209068 15.227792 17.551058 14.898438 18.779297 C 14.569081 20.007536 13.604367 21.003906 12 21.003906 C 10.395633 21.003906 9.4309182 20.007536 9.1015625 18.779297 C 8.7722068 17.551058 9.1094776 16.209068 10.5 15.40625 A 1.0001 1.0001 0 0 0 11 14.539062 L 11 4 C 11 3.5833337 11.120244 3.3981073 11.289062 3.2480469 C 11.45788 3.0979864 11.722222 3 12 3 z "/>
</svg>
