<?xml version="1.0" encoding="UTF-8" standalone="no"?>
<svg xmlns="http://www.w3.org/2000/svg" xmlns:svg="http://www.w3.org/2000/svg" width="24" height="24" viewBox="0 0 24 24" fill="currentColor" tags="temperature,celsius,fahrenheit,weather,warm,hot" categories="weather">
  
  <path d="M 18 1 C 17.27778 1 16.542118 1.2353482 15.960938 1.7519531 C 15.379756 2.268558 15 3.0833353 15 4 L 15 14.089844 C 13.286667 15.399015 12.685332 17.49169 13.169922 19.298828 C 13.704018 21.290591 15.513024 23.003906 18 23.003906 C 20.486976 23.003906 22.295982 21.290591 22.830078 19.298828 C 23.314668 17.49169 22.713333 15.399015 21 14.089844 L 21 4 C 21 3.0833353 20.620244 2.268558 20.039062 1.7519531 C 19.457882 1.2353482 18.72222 1 18 1 z M 12 2 A 1 1 0 0 0 11 3 L 11 5 A 1 1 0 0 0 12 6 A 1 1 0 0 0 13 5 L 13 3 A 1 1 0 0 0 12 2 z M 18 3 C 18.277778 3 18.542121 3.0979871 18.710938 3.2480469 C 18.879755 3.398107 19 3.5833345 19 4 L 19 14.539062 A 1.0001 1.0001 0 0 0 19.5 15.40625 C 20.89052 16.209067 21.227793 17.55106 20.898438 18.779297 C 20.569083 20.007534 19.604364 21.003906 18 21.003906 C 16.395636 21.003906 15.430917 20.007534 15.101562 18.779297 C 14.772207 17.55106 15.10948 16.209067 16.5 15.40625 A 1.0001 1.0001 0 0 0 17 14.539062 L 17 4 C 17 3.5833345 17.120246 3.398107 17.289062 3.2480469 C 17.45788 3.0979867 17.722222 3 18 3 z M 4.9296875 4.9296875 A 1 1 0 0 0 4.2226562 5.2226562 A 1 1 0 0 0 4.2226562 6.6367188 L 5.6328125 8.046875 A 1 1 0 0 0 7.046875 8.046875 A 1 1 0 0 0 7.046875 6.6328125 L 5.6367188 5.2226562 A 1 1 0 0 0 4.9296875 4.9296875 z M 12.015625 8 C 9.4868523 7.9592517 7.6413675 9.6939925 7.1035156 11.710938 C 6.5656638 13.727881 7.3023333 16.151198 9.515625 17.375 A 1 1 0 0 0 10.875 16.984375 A 1 1 0 0 0 10.484375 15.625 C 9.0516743 14.832813 8.7048875 13.472394 9.0371094 12.226562 C 9.3693311 10.98073 10.347459 9.9736229 11.984375 10 A 1 1 0 0 0 13 9.015625 A 1 1 0 0 0 12.015625 8 z M 2 12 A 1 1 0 0 0 1 13 A 1 1 0 0 0 2 14 L 4 14 A 1 1 0 0 0 5 13 A 1 1 0 0 0 4 12 L 2 12 z M 6.5996094 17.400391 A 1 1 0 0 0 5.8925781 17.693359 L 4.4921875 19.09375 A 1 1 0 0 0 4.4921875 20.507812 A 1 1 0 0 0 5.90625 20.507812 L 7.3066406 19.107422 A 1 1 0 0 0 7.3066406 17.693359 A 1 1 0 0 0 6.5996094 17.400391 z "/>
</svg>
