<svg xmlns="http://www.w3.org/2000/svg" xmlns:svg="http://www.w3.org/2000/svg" width="24" height="24" viewBox="0 0 24 24" fill="currentColor" tags="temperature,celsius,fahrenheit,weather,warm,hot" categories="weather">
  <path d="M 12 1 A 1 1 0 0 0 11 2 L 11 4 A 1 1 0 0 0 12 5 A 1 1 0 0 0 13 4 L 13 2 A 1 1 0 0 0 12 1 z M 18 1 C 17.277778 1 16.542119 1.2353472 15.960938 1.7519531 C 15.379755 2.268559 15 3.0833335 15 4 L 15 14.089844 C 13.286663 15.399018 12.685332 17.491686 13.169922 19.298828 C 13.70402 21.290595 15.51302 23.003906 18 23.003906 C 20.48698 23.003906 22.29598 21.290595 22.830078 19.298828 C 23.314668 17.491686 22.713337 15.399018 21 14.089844 L 21 4 C 21 3.0833335 20.620244 2.268559 20.039062 1.7519531 C 19.457881 1.2353472 18.722222 1 18 1 z M 18 3 C 18.277778 3 18.542119 3.097986 18.710938 3.2480469 C 18.879756 3.3981073 19 3.5833337 19 4 L 19 14.539062 A 1.0001 1.0001 0 0 0 19.5 15.40625 C 20.890522 16.209068 21.227793 17.551058 20.898438 18.779297 C 20.569083 20.007536 19.604367 21.003906 18 21.003906 C 16.395633 21.003906 15.430917 20.007536 15.101562 18.779297 C 14.772206 17.551058 15.109478 16.209068 16.5 15.40625 A 1.0001 1.0001 0 0 0 17 14.539062 L 17 4 C 17 3.5833337 17.120244 3.3981073 17.289062 3.2480469 C 17.457881 3.0979864 17.722222 3 18 3 z M 4.9296875 3.9296875 A 1 1 0 0 0 4.2226562 4.2226562 A 1 1 0 0 0 4.2226562 5.6367188 L 5.6328125 7.046875 A 1 1 0 0 0 7.046875 7.046875 A 1 1 0 0 0 7.046875 5.6328125 L 5.6367188 4.2226562 A 1 1 0 0 0 4.9296875 3.9296875 z M 12 7 C 9.390184 6.99868 7.5584926 8.861436 7.109375 10.949219 C 6.6602574 13.037001 7.563859 15.486624 9.9433594 16.558594 A 1 1 0 0 0 11.267578 16.058594 A 1 1 0 0 0 10.765625 14.734375 C 9.2152345 14.035921 8.7861658 12.662796 9.0644531 11.369141 C 9.3427404 10.075485 10.299545 8.9991418 12 9 A 1 1 0 0 0 13 8 A 1 1 0 0 0 12 7 z M 2 11 A 1 1 0 0 0 1 12 A 1 1 0 0 0 2 13 L 4 13 A 1 1 0 0 0 5 12 A 1 1 0 0 0 4 11 L 2 11 z M 6.3398438 16.660156 A 1 1 0 0 0 5.6328125 16.953125 L 4.2226562 18.363281 A 1 1 0 0 0 4.2226562 19.777344 A 1 1 0 0 0 5.6367188 19.777344 L 7.046875 18.367188 A 1 1 0 0 0 7.046875 16.953125 A 1 1 0 0 0 6.3398438 16.660156 z "/>
</svg>
