<?xml version="1.0" encoding="UTF-8" standalone="no"?>
<svg xmlns="http://www.w3.org/2000/svg" xmlns:svg="http://www.w3.org/2000/svg" width="24" height="24" viewBox="0 0 24 24" fill="currentColor" tags="temperature,celsius,fahrenheit,weather,cold,freeze,freezing" categories="weather">
  <path d="M 18 1 C 17.277778 1 16.542119 1.2353472 15.960938 1.7519531 C 15.379755 2.268559 15 3.0833335 15 4 L 15 14.089844 C 13.286663 15.399018 12.685332 17.491686 13.169922 19.298828 C 13.70402 21.290595 15.51302 23.003906 18 23.003906 C 20.48698 23.003906 22.29598 21.290595 22.830078 19.298828 C 23.314668 17.491686 22.713337 15.399018 21 14.089844 L 21 4 C 21 3.0833335 20.620244 2.268559 20.039062 1.7519531 C 19.457881 1.2353472 18.722222 1 18 1 z M 7.0605469 2.0019531 A 1 1 0 0 0 6.5527344 2.1054688 A 1 1 0 0 0 6.1054688 3.4472656 L 6.9609375 5.1582031 L 6.1796875 5.015625 A 1 1 0 0 0 5.015625 5.8203125 A 1 1 0 0 0 5.8203125 6.984375 L 8.0800781 7.3945312 L 8.8828125 9 L 7.8828125 11 L 6 11 L 4.8007812 9.4003906 A 1 1 0 0 0 4.140625 9.0097656 A 1 1 0 0 0 3.4003906 9.1992188 A 1 1 0 0 0 3.1992188 10.599609 L 3.5 11 L 2 11 A 1 1 0 0 0 1 12 A 1 1 0 0 0 2 13 L 3.5 13 L 3.1992188 13.400391 A 1 1 0 0 0 3.4003906 14.800781 A 1 1 0 0 0 4.8007812 14.599609 L 6 13 L 7.8828125 13 L 8.8828125 15 L 8.0800781 16.605469 L 5.8203125 17.015625 A 1 1 0 0 0 5.015625 18.179688 A 1 1 0 0 0 6.1796875 18.984375 L 6.9609375 18.841797 L 6.1054688 20.552734 A 1 1 0 0 0 6.5527344 21.894531 A 1 1 0 0 0 7.8945312 21.447266 L 8.75 19.736328 L 9.1054688 20.447266 A 1 1 0 0 0 10.447266 20.894531 A 1 1 0 0 0 10.894531 19.552734 L 9.8671875 17.5 L 10.619141 15.998047 A 1 1 0 0 0 11.585938 15 A 1 1 0 0 0 10.619141 14.001953 L 9.6171875 12 L 10.617188 10 L 12 10 A 1 1 0 0 0 13 9 A 1 1 0 0 0 12 8 L 10.617188 8 L 9.8671875 6.5 L 10.894531 4.4472656 A 1 1 0 0 0 10.447266 3.1054688 A 1 1 0 0 0 9.6835938 3.0507812 A 1 1 0 0 0 9.1054688 3.5527344 L 8.75 4.2636719 L 7.8945312 2.5527344 A 1 1 0 0 0 7.3164062 2.0507812 A 1 1 0 0 0 7.0605469 2.0019531 z M 18 3 C 18.277778 3 18.542119 3.097986 18.710938 3.2480469 C 18.879756 3.3981073 19 3.5833337 19 4 L 19 14.539062 A 1.0001 1.0001 0 0 0 19.5 15.40625 C 20.890522 16.209068 21.227793 17.551058 20.898438 18.779297 C 20.569083 20.007536 19.604367 21.003906 18 21.003906 C 16.395633 21.003906 15.430917 20.007536 15.101562 18.779297 C 14.772206 17.551058 15.109478 16.209068 16.5 15.40625 A 1.0001 1.0001 0 0 0 17 14.539062 L 17 4 C 17 3.5833337 17.120244 3.3981073 17.289062 3.2480469 C 17.457881 3.0979864 17.722222 3 18 3 z "/>
</svg>
