<?xml version="1.0" encoding="UTF-8" standalone="no"?>
<svg xmlns="http://www.w3.org/2000/svg" xmlns:svg="http://www.w3.org/2000/svg" width="24" height="24" viewBox="0 0 24 24" fill="currentColor" tags="temperature,celsius,fahrenheit,weather,warm,hot" categories="weather">
  <path d="M 18 1 C 17.277778 1 16.542119 1.2353472 15.960938 1.7519531 C 15.379755 2.268559 15 3.0833335 15 4 L 15 14.089844 C 13.286663 15.399018 12.685332 17.491686 13.169922 19.298828 C 13.70402 21.290595 15.51302 23.003906 18 23.003906 C 20.48698 23.003906 22.29598 21.290595 22.830078 19.298828 C 23.314668 17.491686 22.713337 15.399018 21 14.089844 L 21 4 C 21 3.0833335 20.620244 2.268559 20.039062 1.7519531 C 19.457881 1.2353472 18.722222 1 18 1 z M 12 2 A 1 1 0 0 0 11 3 L 11 5 A 1 1 0 0 0 12 6 A 1 1 0 0 0 13 5 L 13 3 A 1 1 0 0 0 12 2 z M 18 3 C 18.277778 3 18.542119 3.097986 18.710938 3.2480469 C 18.879756 3.3981073 19 3.5833337 19 4 L 19 14.539062 A 1.0001 1.0001 0 0 0 19.5 15.40625 C 20.890522 16.209068 21.227793 17.551058 20.898438 18.779297 C 20.569083 20.007536 19.604367 21.003906 18 21.003906 C 16.395633 21.003906 15.430917 20.007536 15.101562 18.779297 C 14.772206 17.551058 15.109478 16.209068 16.5 15.40625 A 1.0001 1.0001 0 0 0 17 14.539062 L 17 4 C 17 3.5833337 17.120244 3.3981073 17.289062 3.2480469 C 17.457881 3.0979864 17.722222 3 18 3 z M 4.9296875 4.9296875 A 1 1 0 0 0 4.2226562 5.2226562 A 1 1 0 0 0 4.2226562 6.6367188 L 5.6328125 8.046875 A 1 1 0 0 0 7.046875 8.046875 A 1 1 0 0 0 7.046875 6.6328125 L 5.6367188 5.2226562 A 1 1 0 0 0 4.9296875 4.9296875 z M 12.015625 8 C 9.4868472 7.9592516 7.6413686 9.6939884 7.1035156 11.710938 C 6.5656627 13.727885 7.3023289 16.151195 9.515625 17.375 A 1 1 0 0 0 10.875 16.984375 A 1 1 0 0 0 10.484375 15.625 C 9.0516714 14.832811 8.7048869 13.472397 9.0371094 12.226562 C 9.3693319 10.980727 10.347455 9.9736229 11.984375 10 A 1 1 0 0 0 13 9.015625 A 1 1 0 0 0 12.015625 8 z M 2 12 A 1 1 0 0 0 1 13 A 1 1 0 0 0 2 14 L 4 14 A 1 1 0 0 0 5 13 A 1 1 0 0 0 4 12 L 2 12 z M 6.5996094 17.400391 A 1 1 0 0 0 5.8925781 17.693359 L 4.4921875 19.09375 A 1 1 0 0 0 4.4921875 20.507812 A 1 1 0 0 0 5.90625 20.507812 L 7.3066406 19.107422 A 1 1 0 0 0 7.3066406 17.693359 A 1 1 0 0 0 6.5996094 17.400391 z "/>
</svg>
