<?xml version="1.0" encoding="UTF-8" standalone="no"?>
<svg xmlns="http://www.w3.org/2000/svg" xmlns:svg="http://www.w3.org/2000/svg" width="24" height="24" viewBox="0 0 24 24" fill="currentColor" tags="dislike,bad,emotion" categories="account,social,emoji">
  <path d="M 6.5 1 C 5.1711137 1 3.9912288 1.8844254 3.6191406 3.1601562 L 1.2890625 11.160156 C 0.73653027 13.054552 2.1965924 15 4.1699219 15 L 8.7265625 15 L 8.0292969 17.880859 C 7.3970526 20.441689 9.3507618 22.967339 11.988281 23 A 1.0001 1.0001 0 0 0 12.894531 22.447266 L 16.34375 15.558594 A 1.0001 1.0001 0 0 0 16.345703 15.554688 C 16.515469 15.212945 16.858633 15.000202 17.240234 15 L 20 15 C 21.645006 15 23 13.645006 23 12 L 23 4 C 23 2.3549936 21.645006 1 20 1 L 17 1 L 6.5 1 z M 6.5 3 L 16 3 L 16 13.271484 C 15.38397 13.552221 14.866306 14.036953 14.554688 14.664062 L 11.505859 20.751953 C 10.446364 20.438139 9.6869554 19.508661 9.9707031 18.359375 A 1.0001 1.0001 0 0 0 9.9726562 18.355469 L 10.972656 14.236328 A 1.0001 1.0001 0 0 0 10 13 L 4.1699219 13 C 3.4765899 13 3.0168046 12.386301 3.2109375 11.720703 A 1.0001 1.0001 0 0 0 3.2109375 11.71875 L 5.5410156 3.71875 C 5.667597 3.2894907 6.0521338 3 6.5 3 z M 18 3 L 20 3 C 20.564128 3 21 3.4358718 21 4 L 21 12 C 21 12.564128 20.564128 13 20 13 L 18 13 L 18 3 z "/>
</svg>
