<?xml version="1.0" encoding="UTF-8" standalone="no"?>
<svg xmlns="http://www.w3.org/2000/svg" xmlns:svg="http://www.w3.org/2000/svg" width="24" height="24" viewBox="0 0 24 24" fill="currentColor" tags="like,good,emotion" categories="account,social,emoji">
  <path d="M 12.011719 1 A 1.0001 1.0001 0 0 0 11.105469 1.5527344 L 7.65625 8.4414062 A 1.0001 1.0001 0 0 0 7.6542969 8.4453125 C 7.4844809 8.7870449 7.1413674 8.9997975 6.7597656 9 L 4 9 C 2.3549936 9 1 10.354994 1 12 L 1 20 C 1 21.645006 2.3549936 23 4 23 L 7 23 L 17.5 23 C 18.828887 23 20.008772 22.115574 20.380859 20.839844 L 22.710938 12.839844 C 23.26347 10.945448 21.803407 9 19.830078 9 L 15.273438 9 L 15.970703 6.1191406 C 16.602947 3.5583119 14.649238 1.0326609 12.011719 1 z M 12.494141 3.2480469 C 13.553636 3.5618606 14.313045 4.4913392 14.029297 5.640625 A 1.0001 1.0001 0 0 0 14.027344 5.6445312 L 13.027344 9.7636719 A 1.0001 1.0001 0 0 0 14 11 L 19.830078 11 C 20.52341 11 20.983196 11.613699 20.789062 12.279297 A 1.0001 1.0001 0 0 0 20.789062 12.28125 L 18.458984 20.28125 C 18.332404 20.71051 17.947867 21 17.5 21 L 8 21 L 8 10.728516 C 8.6153712 10.448044 9.1314654 9.9640521 9.4433594 9.3378906 L 9.4453125 9.3359375 L 12.494141 3.2480469 z M 4 11 L 6 11 L 6 21 L 4 21 C 3.4358718 21 3 20.564128 3 20 L 3 12 C 3 11.435872 3.4358718 11 4 11 z "/>
</svg>
