<svg xmlns="http://www.w3.org/2000/svg" xmlns:svg="http://www.w3.org/2000/svg" width="24" height="24" viewBox="0 0 24 24" fill="currentColor" tags="trip,travel,pass,entry,voucher,event,concert,show,perforated,dashed" categories="travel,account,transportation">
  <path d="M 14.916016 2.0039062 C 14.526875 2.0132913 14.134018 2.0996797 13.759766 2.2695312 L 2.7597656 7.2695312 A 1 1 0 0 0 2.6796875 7.3105469 C 1.6881172 7.8026417 1 8.8273719 1 10 L 1 19 C 1 20.644703 2.3552972 22 4 22 L 6 22 L 20 22 C 21.644703 22 23 20.644703 23 19 L 23 10 C 23 8.3552972 21.644703 7 20 7 L 19.205078 7 L 17.730469 3.7597656 C 17.390079 3.0115726 16.771183 2.4675182 16.050781 2.1972656 C 15.690581 2.0621394 15.305156 1.9945212 14.916016 2.0039062 z M 14.976562 3.9980469 C 15.366473 3.9850956 15.73507 4.203044 15.910156 4.5878906 L 17.007812 7 L 8.1835938 7 L 14.585938 4.0898438 C 14.714273 4.0315996 14.846592 4.002364 14.976562 3.9980469 z M 4 9 L 5 9 L 5 10 A 1 1 0 0 0 6 11 A 1 1 0 0 0 7 10 L 7 9 L 18.595703 9 L 20 9 C 20.571297 9 21 9.4287028 21 10 L 21 19 C 21 19.571297 20.571297 20 20 20 L 7 20 L 7 19 A 1 1 0 0 0 6 18 A 1 1 0 0 0 5 19 L 5 20 L 4 20 C 3.4287028 20 3 19.571297 3 19 L 3 10 C 3 9.6120561 3.1981279 9.2898963 3.5039062 9.1230469 A 1 1 0 0 0 3.5859375 9.0898438 L 3.671875 9.0507812 C 3.7735488 9.0179561 3.8842356 9 4 9 z M 6 13 A 1 1 0 0 0 5 14 L 5 15 A 1 1 0 0 0 6 16 A 1 1 0 0 0 7 15 L 7 14 A 1 1 0 0 0 6 13 z "/>
</svg>
