<?xml version="1.0" encoding="UTF-8" standalone="no"?>
<svg xmlns="http://www.w3.org/2000/svg" xmlns:svg="http://www.w3.org/2000/svg" width="24" height="24" viewBox="0 0 24 24" fill="currentColor" tags="trip,travel,pass,entry,voucher,event,concert,show,perforated,dashed" categories="travel,account,transportation">
  <path d="M 15.425781 1.8457031 C 15.163081 1.8551356 14.898132 1.9175982 14.648438 2.0371094 L 4.2734375 7 L 4 7 C 2.3552972 7 1 8.3552972 1 10 L 1 19 C 1 20.644703 2.3552972 22 4 22 L 6 22 L 20 22 C 21.644703 22 23 20.644703 23 19 L 23 10 C 23 8.3552972 21.644703 7 20 7 L 19.144531 7 L 17.332031 3.0136719 C 17.10282 2.5097034 16.682209 2.1465135 16.193359 1.96875 C 15.948935 1.8798682 15.688482 1.8362706 15.425781 1.8457031 z M 15.511719 3.8417969 L 16.947266 7 L 8.9082031 7 L 15.511719 3.8417969 z M 4 9 L 5 9 L 5 10 A 1 1 0 0 0 6 11 A 1 1 0 0 0 7 10 L 7 9 L 20 9 C 20.571297 9 21 9.4287028 21 10 L 21 19 C 21 19.571297 20.571297 20 20 20 L 7 20 L 7 19 A 1 1 0 0 0 6 18 A 1 1 0 0 0 5 19 L 5 20 L 4 20 C 3.4287028 20 3 19.571297 3 19 L 3 10 C 3 9.4287028 3.4287028 9 4 9 z M 6 13 A 1 1 0 0 0 5 14 L 5 15 A 1 1 0 0 0 6 16 A 1 1 0 0 0 7 15 L 7 14 A 1 1 0 0 0 6 13 z "/>
</svg>
