<?xml version="1.0" encoding="UTF-8" standalone="no"?>
<svg xmlns="http://www.w3.org/2000/svg" xmlns:svg="http://www.w3.org/2000/svg" width="24" height="24" viewBox="0 0 24 24" fill="currentColor" tags="entry,pass,voucher,event,concert,show,perforated,dashed" categories="account,transportation">
  <path d="M 4 4 C 2.3549936 4 1 5.3549936 1 7 L 1 9 A 1.0001 1.0001 0 0 0 2 10 C 2.749998 10 3.1852267 10.245245 3.5019531 10.601562 C 3.8186796 10.957879 4 11.472224 4 12 C 4 12.527776 3.8186796 13.04212 3.5019531 13.398438 C 3.1852267 13.754754 2.749998 14 2 14 A 1.0001 1.0001 0 0 0 1 15 L 1 17 C 1 18.645006 2.3549936 20 4 20 L 20 20 C 21.645006 20 23 18.645006 23 17 L 23 15 A 1.0001 1.0001 0 0 0 22 14 C 21.250002 14 20.814774 13.754754 20.498047 13.398438 C 20.18132 13.04212 20 12.527776 20 12 C 20 11.472224 20.18132 10.957879 20.498047 10.601562 C 20.814774 10.245245 21.250002 10 22 10 A 1.0001 1.0001 0 0 0 23 9 L 23 7 C 23 5.3549936 21.645006 4 20 4 L 4 4 z M 4 6 L 12 6 L 12 7 A 1 1 0 0 0 13 8 A 1 1 0 0 0 14 7 L 14 6 L 20 6 C 20.564128 6 21 6.4358718 21 7 L 21 8.203125 C 20.203966 8.3972801 19.48555 8.7293911 19.001953 9.2734375 C 18.318682 10.042118 18 11.02778 18 12 C 18 12.97222 18.318682 13.957881 19.001953 14.726562 C 19.48555 15.270608 20.203966 15.60272 21 15.796875 L 21 17 C 21 17.564128 20.564128 18 20 18 L 14 18 L 14 17 A 1 1 0 0 0 13 16 A 1 1 0 0 0 12 17 L 12 18 L 4 18 C 3.4358718 18 3 17.564128 3 17 L 3 15.796875 C 3.7960346 15.60272 4.5144504 15.270608 4.9980469 14.726562 C 5.681318 13.957881 6 12.97222 6 12 C 6 11.02778 5.681318 10.042118 4.9980469 9.2734375 C 4.5144504 8.7293911 3.7960346 8.3972801 3 8.203125 L 3 7 C 3 6.4358718 3.4358718 6 4 6 z M 13 10 A 1 1 0 0 0 12 11 L 12 13 A 1 1 0 0 0 13 14 A 1 1 0 0 0 14 13 L 14 11 A 1 1 0 0 0 13 10 z "/>
</svg>
