<?xml version="1.0" encoding="UTF-8" standalone="no"?>
<svg xmlns="http://www.w3.org/2000/svg" xmlns:svg="http://www.w3.org/2000/svg" width="24" height="24" viewBox="0 0 24 24" fill="currentColor" tags="entry,pass,voucher,event,concert,show,book,purchase,add,+" categories="transportation">
  <path d="M 4 4 C 2.3549904 4 1 5.3549904 1 7 L 1 9 A 1.0001 1.0001 0 0 0 2 10 C 2.7499995 10 3.1852261 10.245244 3.5019531 10.601562 C 3.8186802 10.95788 4 11.472222 4 12 C 4 12.527778 3.8186802 13.042119 3.5019531 13.398438 C 3.1852261 13.754755 2.7499995 14 2 14 A 1.0001 1.0001 0 0 0 1 15 L 1 17 C 1 18.64501 2.3549904 20 4 20 L 20 20 C 21.64501 20 23 18.64501 23 17 L 23 15 A 1.0001 1.0001 0 0 0 22 14 C 21.250001 14 20.814774 13.754756 20.498047 13.398438 C 20.18132 13.042118 20 12.527778 20 12 C 20 11.472222 20.18132 10.95788 20.498047 10.601562 C 20.814774 10.245243 21.250001 10 22 10 A 1.0001 1.0001 0 0 0 23 9 L 23 7 C 23 5.3549904 21.64501 4 20 4 L 4 4 z M 4 6 L 20 6 C 20.564129 6 21 6.4358706 21 7 L 21 8.203125 C 20.203964 8.3972805 19.485551 8.7293901 19.001953 9.2734375 C 18.318681 10.042119 18 11.027778 18 12 C 18 12.972222 18.318681 13.95788 19.001953 14.726562 C 19.485551 15.270609 20.203964 15.602719 21 15.796875 L 21 17 C 21 17.564129 20.564129 18 20 18 L 4 18 C 3.4358706 18 3 17.564129 3 17 L 3 15.796875 C 3.7960362 15.602719 4.5144494 15.270609 4.9980469 14.726562 C 5.6813194 13.95788 6 12.972222 6 12 C 6 11.027778 5.6813194 10.042119 4.9980469 9.2734375 C 4.5144494 8.7293901 3.7960362 8.3972805 3 8.203125 L 3 7 C 3 6.4358706 3.4358706 6 4 6 z M 12 8 A 1 1 0 0 0 11 9 L 11 11 L 9 11 A 1 1 0 0 0 8 12 A 1 1 0 0 0 9 13 L 11 13 L 11 15 A 1 1 0 0 0 12 16 A 1 1 0 0 0 13 15 L 13 13 L 15 13 A 1 1 0 0 0 16 12 A 1 1 0 0 0 15 11 L 13 11 L 13 9 A 1 1 0 0 0 12 8 z "/>
</svg>
