<?xml version="1.0" encoding="UTF-8" standalone="no"?>
<svg xmlns="http://www.w3.org/2000/svg" xmlns:svg="http://www.w3.org/2000/svg" width="24" height="24" viewBox="0 0 24 24" fill="currentColor" tags="plane,trip,airplane,flight,travel,fly,takeoff,vacation,passenger,pass,check-in,airport" categories="transportation,travel">
  <path d="M 15.425781 1.8457031 C 15.163081 1.8551356 14.898132 1.9175984 14.648438 2.0371094 L 4.2734375 7 L 4 7 C 2.3553005 7 1 8.3553005 1 10 L 1 19 C 1 20.644699 2.3553005 22 4 22 L 6 22 L 20 22 C 21.644699 22 23 20.644699 23 19 L 23 10 C 23 8.3553005 21.644699 7 20 7 L 19.144531 7 L 17.332031 3.0136719 C 17.10282 2.5097044 16.682208 2.1465131 16.193359 1.96875 C 15.948935 1.8798684 15.688481 1.8362706 15.425781 1.8457031 z M 15.511719 3.8417969 L 16.947266 7 L 8.9082031 7 L 15.511719 3.8417969 z M 4 9 L 5 9 L 5 10 A 1 1 0 0 0 6 11 A 1 1 0 0 0 7 10 L 7 9 L 20 9 C 20.571296 9 21 9.4287039 21 10 L 21 19 C 21 19.571296 20.571296 20 20 20 L 7 20 L 7 19 A 1 1 0 0 0 6 18 A 1 1 0 0 0 5 19 L 5 20 L 4 20 C 3.4287039 20 3 19.571296 3 19 L 3 10 C 3 9.4287039 3.4287039 9 4 9 z M 18.048828 11.001953 A 1 1 0 0 0 17.328125 11.259766 L 15.466797 12.953125 L 12.132812 12.507812 A 1 1 0 0 0 11.007812 13.367188 A 1 1 0 0 0 11.867188 14.492188 L 13.527344 14.712891 L 12.398438 15.740234 C 12.214193 15.9077 11.975541 15.999973 11.726562 16 L 10.5 16 A 1 1 0 0 0 9.5 17 A 1 1 0 0 0 10.5 18 L 11.726562 18 C 12.472375 17.99992 13.192239 17.722342 13.744141 17.220703 L 18.671875 12.740234 A 1 1 0 0 0 18.740234 11.328125 A 1 1 0 0 0 18.048828 11.001953 z M 6 13 A 1 1 0 0 0 5 14 L 5 15 A 1 1 0 0 0 6 16 A 1 1 0 0 0 7 15 L 7 14 A 1 1 0 0 0 6 13 z "/>
</svg>
