<?xml version="1.0" encoding="UTF-8" standalone="no"?>
<svg xmlns="http://www.w3.org/2000/svg" xmlns:svg="http://www.w3.org/2000/svg" width="24" height="24" viewBox="0 0 24 24" fill="currentColor" tags="time,timer,stopwatch" categories="time">
  <path d="M 2 1 A 1 1 0 0 0 1.2929688 1.2929688 A 1 1 0 0 0 1.2929688 2.7070312 L 21.292969 22.707031 A 1 1 0 0 0 22.707031 22.707031 A 1 1 0 0 0 22.707031 21.292969 L 19.869141 18.455078 C 21.825025 14.982391 21.265664 10.571289 18.410156 7.6972656 C 16.87985 6.1246752 14.88949 5.217521 12.830078 5.0175781 C 11.033697 4.8431721 9.1852877 5.206528 7.5449219 6.1308594 L 2.7070312 1.2929688 A 1 1 0 0 0 2 1 z M 10 1 A 1 1 0 0 0 9 2 A 1 1 0 0 0 10 3 L 14 3 A 1 1 0 0 0 15 2 A 1 1 0 0 0 14 1 L 10 1 z M 12.035156 6.96875 C 13.846887 6.9878784 15.637791 7.7108465 16.982422 9.0957031 A 1.0001 1.0001 0 0 0 16.990234 9.1054688 C 19.084682 11.212194 19.595699 14.353524 18.384766 16.970703 L 13 11.585938 L 13 10 A 1 1 0 0 0 12 9 A 1 1 0 0 0 11.064453 9.6503906 L 9.0292969 7.6152344 C 9.9871216 7.1716711 11.0141 6.9579696 12.035156 6.96875 z M 4.4707031 10.007812 A 1 1 0 0 0 4.21875 10.076172 A 1 1 0 0 0 3.6757812 10.615234 C 2.283336 13.962385 3.0398473 17.827509 5.5898438 20.404297 A 1.0001 1.0001 0 0 0 5.5957031 20.410156 C 8.1724914 22.960153 12.037615 23.716664 15.384766 22.324219 A 1 1 0 0 0 15.923828 21.015625 A 1 1 0 0 0 14.615234 20.476562 C 12.008973 21.560792 9.0155333 20.975898 7.0078125 18.992188 C 5.0241019 16.984468 4.4392089 13.991027 5.5234375 11.384766 A 1 1 0 0 0 4.984375 10.076172 A 1 1 0 0 0 4.4707031 10.007812 z "/>
</svg>
