<svg xmlns="http://www.w3.org/2000/svg" xmlns:svg="http://www.w3.org/2000/svg" width="24" height="24" viewBox="0 0 24 24" fill="currentColor" tags="time,timer,stopwatch" categories="time">
  <path d="M 10 1 A 1 1 0 0 0 9 2 A 1 1 0 0 0 10 3 L 14 3 A 1 1 0 0 0 15 2 A 1 1 0 0 0 14 1 L 10 1 z M 12.001953 5 C 7.4501856 4.9673055 3.5767351 8.3581885 3.0078125 12.875 A 1 1 0 0 0 3.875 13.992188 A 1 1 0 0 0 4.9921875 13.125 C 5.4366731 9.5961236 8.4355371 6.9721172 11.992188 7 A 1.0001 1.0001 0 0 0 11.998047 7 C 16.924172 7.00524 20.281188 11.871515 18.537109 16.478516 C 16.793583 21.084058 11.059957 22.506284 7.3652344 19.251953 L 7.3613281 19.25 L 5.9550781 18 L 9 18 A 1 1 0 0 0 10 17 A 1 1 0 0 0 9 16 L 4 16 A 1.0001 1.0001 0 0 0 3 17 L 3 17.572266 A 1 1 0 0 0 3 17.626953 L 3 22 A 1 1 0 0 0 4 23 A 1 1 0 0 0 5 22 L 5 19.828125 L 6.0351562 20.748047 A 1.0001 1.0001 0 0 0 6.0390625 20.75 C 10.733522 24.890074 18.192124 23.03934 20.408203 17.185547 C 22.623571 11.333631 18.263865 5.0107008 12.007812 5 L 12.001953 5 z M 12 9 A 1 1 0 0 0 11 10 L 11 14 A 1 1 0 0 0 12 15 A 1 1 0 0 0 13 14 L 13 10 A 1 1 0 0 0 12 9 z "/>
</svg>
