<?xml version="1.0" encoding="UTF-8" standalone="no"?>
<svg xmlns="http://www.w3.org/2000/svg" xmlns:svg="http://www.w3.org/2000/svg" width="24" height="24" viewBox="0 0 24 24" fill="currentColor" tags="time,timer,stopwatch" categories="time">
  
  <path d="M 2 1 A 1 1 0 0 0 1.2929688 1.2929688 A 1 1 0 0 0 1.2929688 2.7070312 L 21.292969 22.707031 A 1 1 0 0 0 22.707031 22.707031 A 1 1 0 0 0 22.707031 21.292969 L 19.869141 18.455078 C 21.825022 14.982396 21.265658 10.571284 18.410156 7.6972656 C 16.879853 6.1246783 14.889486 5.2175206 12.830078 5.0175781 C 11.0337 4.8431725 9.1852856 5.2065295 7.5449219 6.1308594 L 2.7070312 1.2929688 A 1 1 0 0 0 2 1 z M 10 1 A 1 1 0 0 0 9 2 A 1 1 0 0 0 10 3 L 14 3 A 1 1 0 0 0 15 2 A 1 1 0 0 0 14 1 L 10 1 z M 12.035156 6.96875 C 13.846886 6.9878786 15.637794 7.7108493 16.982422 9.0957031 A 1.0001 1.0001 0 0 0 16.990234 9.1054688 C 19.084678 11.21219 19.595697 14.353527 18.384766 16.970703 L 13 11.585938 L 13 10 A 1 1 0 0 0 12 9 A 1 1 0 0 0 11.064453 9.6503906 L 9.0292969 7.6152344 C 9.9871202 7.171672 11.0141 6.9579695 12.035156 6.96875 z M 4.6015625 10 A 1 1 0 0 0 4.21875 10.076172 A 1 1 0 0 0 3.6757812 10.615234 C 2.2833387 13.962378 3.0398525 17.827513 5.5898438 20.404297 A 1.0001 1.0001 0 0 0 5.5957031 20.410156 C 8.1724862 22.960148 12.037622 23.716661 15.384766 22.324219 A 1 1 0 0 0 15.923828 21.015625 A 1 1 0 0 0 14.615234 20.476562 C 12.008977 21.560748 9.0155292 20.975895 7.0078125 18.992188 C 5.0241058 16.984472 4.439211 13.991022 5.5234375 11.384766 A 1 1 0 0 0 4.984375 10.076172 A 1 1 0 0 0 4.6015625 10 z "/>
</svg>
