<?xml version="1.0" encoding="UTF-8" standalone="no"?>
<svg xmlns="http://www.w3.org/2000/svg" xmlns:svg="http://www.w3.org/2000/svg" width="24" height="24" viewBox="0 0 24 24" fill="currentColor" tags="on,off,switch,boolean" categories="layout,account,development">
  <path d="M 9 4 C 4.5852972 4 1 7.5852972 1 12 C 1 16.414703 4.5852972 20 9 20 L 15 20 C 19.414703 20 23 16.414703 23 12 C 23 7.5852972 19.414703 4 15 4 L 9 4 z M 9 6 L 15 6 C 18.341297 6 21 8.6587028 21 12 C 21 15.341297 18.341297 18 15 18 L 9 18 C 5.6587028 18 3 15.341297 3 12 C 3 8.6587028 5.6587028 6 9 6 z M 9 8 C 6.8027056 8 5 9.8027056 5 12 C 5 14.197294 6.8027056 16 9 16 C 11.197294 16 13 14.197294 13 12 C 13 9.8027056 11.197294 8 9 8 z M 9 10 C 10.116414 10 11 10.883586 11 12 C 11 13.116414 10.116414 14 9 14 C 7.8835859 14 7 13.116414 7 12 C 7 10.883586 7.8835859 10 9 10 z "/>
</svg>
