<?xml version="1.0" encoding="UTF-8" standalone="no"?>
<svg xmlns="http://www.w3.org/2000/svg" xmlns:svg="http://www.w3.org/2000/svg" width="24" height="24" viewBox="0 0 24 24" fill="currentColor" tags="on,off,switch,boolean" categories="layout,account,development">
  <path d="M 8 5 C 4.1392972 5 1 8.1392972 1 12 C 1 15.860703 4.1392972 19 8 19 L 16 19 C 19.860703 19 23 15.860703 23 12 C 23 8.1392972 19.860703 5 16 5 L 8 5 z M 8 7 L 16 7 C 18.787297 7 21 9.2127028 21 12 C 21 14.787297 18.787297 17 16 17 L 8 17 C 5.2127028 17 3 14.787297 3 12 C 3 9.2127028 5.2127028 7 8 7 z M 16 9 C 14.35499 9 13 10.35499 13 12 C 13 13.64501 14.35499 15 16 15 C 17.64501 15 19 13.64501 19 12 C 19 10.35499 17.64501 9 16 9 z M 16 11 C 16.564129 11 17 11.435871 17 12 C 17 12.564129 16.564129 13 16 13 C 15.435871 13 15 12.564129 15 12 C 15 11.435871 15.435871 11 16 11 z "/>
</svg>
