<?xml version="1.0" encoding="UTF-8" standalone="no"?>
<svg xmlns="http://www.w3.org/2000/svg" xmlns:svg="http://www.w3.org/2000/svg" width="24" height="24" viewBox="0 0 24 24" fill="currentColor" tags="on,off,switch,boolean" categories="layout,account,development">
  <path d="M 8 5 C 4.1392972 5 1 8.1392972 1 12 C 1 15.860703 4.1392972 19 8 19 L 16 19 C 19.860703 19 23 15.860703 23 12 C 23 8.1392972 19.860703 5 16 5 L 8 5 z M 8 7 L 16 7 C 18.787297 7 21 9.2127028 21 12 C 21 14.787297 18.787297 17 16 17 L 8 17 C 5.2127028 17 3 14.787297 3 12 C 3 9.2127028 5.2127028 7 8 7 z M 8 9 C 6.3549904 9 5 10.35499 5 12 C 5 13.64501 6.3549904 15 8 15 C 9.6450096 15 11 13.64501 11 12 C 11 10.35499 9.6450096 9 8 9 z M 8 11 C 8.5641294 11 9 11.435871 9 12 C 9 12.564129 8.5641294 13 8 13 C 7.4358706 13 7 12.564129 7 12 C 7 11.435871 7.4358706 11 8 11 z "/>
</svg>
