<svg xmlns="http://www.w3.org/2000/svg" xmlns:svg="http://www.w3.org/2000/svg" width="24" height="24" viewBox="0 0 24 24" fill="currentColor" tags="toilet,potty,bathroom,washroom" categories="devices,home">
  <path d="M 5 1 C 3.3549904 1 2 2.3549904 2 4 L 2 13 C 2 15.422711 3.4533809 17.519546 5.53125 18.464844 L 4.1308594 20.705078 C 3.5340639 21.659948 4.2763145 23.000003 5.4023438 23 L 16.097656 23 C 17.223685 23.000003 17.965936 21.659948 17.369141 20.705078 L 16.269531 18.945312 C 19.440299 18.795472 22 16.206377 22 13 C 22 11.907275 21.092725 11 20 11 L 16 11 L 16 4 C 16 2.3549904 14.64501 1 13 1 L 5 1 z M 5 3 L 13 3 C 13.564129 3 14 3.4358706 14 4 L 14 11 L 7 11 A 1 1 0 0 0 6 12 A 1 1 0 0 0 7 13 L 15 13 L 20 13 C 20 15.220984 18.220984 17 16 17 L 15.402344 17 C 14.276315 16.999997 13.534064 18.340052 14.130859 19.294922 L 15.195312 21 L 6.3046875 21 L 7.5644531 18.984375 C 7.7086159 18.994848 7.8532689 19 8 19 A 1 1 0 0 0 9 18 A 1 1 0 0 0 8 17 C 5.7790164 17 4 15.220984 4 13 L 4 4 C 4 3.4358706 4.4358706 3 5 3 z "/>
</svg>
