<?xml version="1.0" encoding="UTF-8" standalone="no"?>
<svg xmlns="http://www.w3.org/2000/svg" xmlns:svg="http://www.w3.org/2000/svg" width="24" height="24" viewBox="0 0 24 24" fill="currentColor" tags="tools,maintenance,repair" categories="tools,development,home">
  <path d="M 16.558594 1.8339844 C 15.797855 1.8505173 15.074102 2.302637 14.755859 3.0351562 L 14.269531 4.1523438 C 13.765072 3.9897193 13.204849 3.9555541 12.632812 4.0996094 L 11.46875 4.3320312 L 10.740234 3.3261719 C 10.015094 2.2486359 8.7422785 1.8379387 7.6445312 2.0644531 C 6.546784 2.2909676 5.5421193 3.1726579 5.3027344 4.4492188 A 1.0001 1.0001 0 0 0 5.2871094 4.5585938 L 5.1972656 5.7519531 L 4.1757812 6.0058594 A 1.0001 1.0001 0 0 0 4.1230469 6.0195312 C 2.8304299 6.4151884 2.0642721 7.5815998 2.0058594 8.7363281 C 1.9594037 9.6546841 2.3567107 10.627016 3.1484375 11.25 C 3.0509246 11.486023 2.9983837 11.743139 3 12.011719 L 3 19 C 3 20.64501 4.3549904 22 6 22 L 18 22 C 19.64501 22 21 20.64501 21 19 L 21 12 C 21 11.339444 20.667692 10.746428 20.164062 10.380859 L 22.003906 6.0019531 C 22.433642 4.9781121 21.924356 3.7705988 20.890625 3.3652344 A 1.0001 1.0001 0 0 0 20.888672 3.3652344 L 17.318359 1.96875 C 17.070383 1.8718939 16.812173 1.8284734 16.558594 1.8339844 z M 16.589844 3.8320312 L 20.160156 5.2285156 L 18.15625 10 L 15.353516 10 L 15.095703 9.6132812 L 15.638672 8.9648438 C 16.558608 7.894558 16.539854 6.4311092 15.90625 5.4179688 C 15.904971 5.4159231 15.903629 5.4141521 15.902344 5.4121094 L 16.589844 3.8320312 z M 8.3320312 3.9960938 C 8.6116973 4.0082866 8.8747262 4.1382129 9.0800781 4.4433594 A 1.0001 1.0001 0 0 0 9.0996094 4.4707031 L 10.224609 6.0253906 A 1.0001 1.0001 0 0 0 11.230469 6.4199219 L 13.050781 6.0546875 A 1.0001 1.0001 0 0 0 13.109375 6.0429688 C 13.642457 5.9028946 13.986751 6.1200407 14.210938 6.4785156 C 14.435123 6.8369902 14.480365 7.2441162 14.121094 7.6621094 A 1.0001 1.0001 0 0 0 14.113281 7.6699219 L 13.080078 8.9023438 A 1.0001 1.0001 0 0 0 12.955078 10 L 5.078125 10 L 4.6132812 9.8105469 C 4.1354572 9.6095841 3.9814574 9.2430578 4.0019531 8.8378906 C 4.0223725 8.4342326 4.2154803 8.0881606 4.7070312 7.9355469 L 6.3808594 7.5214844 A 1.0001 1.0001 0 0 0 7.1386719 6.625 L 7.2734375 4.8105469 C 7.3663545 4.3357731 7.6690986 4.0998396 8.0488281 4.0214844 C 8.1444716 4.0017489 8.2388092 3.9920295 8.3320312 3.9960938 z M 5 12 L 19 12 L 19 19 C 19 19.564129 18.564129 20 18 20 L 6 20 C 5.4358706 20 5 19.564129 5 19 L 5 12.005859 A 1.0001 1.0001 0 0 0 5 12 z M 10 14 A 1 1 0 0 0 9 15 A 1 1 0 0 0 10 16 L 14 16 A 1 1 0 0 0 15 15 A 1 1 0 0 0 14 14 L 10 14 z "/>
</svg>
