<svg xmlns="http://www.w3.org/2000/svg" xmlns:svg="http://www.w3.org/2000/svg" width="24" height="24" viewBox="0 0 24 24" fill="currentColor" tags="toolkit,tools,trunk,chest,box,storage,utility,utilities,container,kit,set,repair,fix,service,maintenance,mechanic,workshop,construction,hardware,equipment,gear,handyman,engineering,craft,diy" categories="tools,home">
  <path d="M 10 1 C 8.3549904 1 7 2.3549904 7 4 L 7 5.171875 C 6.5821054 5.3197261 6.1980445 5.5596717 5.8789062 5.8789062 L 1.8789062 9.8789062 C 1.3165297 10.441113 1.0001698 11.2048 1 12 L 1 19 C 1 20.64501 2.3549904 22 4 22 L 20 22 C 21.64501 22 23 20.64501 23 19 L 23 12 C 22.99983 11.2048 22.68347 10.441113 22.121094 9.8789062 L 18.121094 5.8789062 C 17.801955 5.5596717 17.417895 5.3197261 17 5.171875 L 17 4 C 17 2.3549904 15.64501 1 14 1 L 10 1 z M 10 3 L 14 3 C 14.564129 3 15 3.4358706 15 4 L 15 5 L 9 5 L 9 4 C 9 3.4358706 9.4358706 3 10 3 z M 8 7 L 16 7 C 16.265579 7.0000567 16.519267 7.1051479 16.707031 7.2929688 L 20.707031 11.292969 C 20.894852 11.480733 20.999943 11.734421 21 12 L 21 13 L 17 13 L 17 12 A 1 1 0 0 0 16 11 A 1 1 0 0 0 15 12 L 15 13 L 9 13 L 9 12 A 1 1 0 0 0 8 11 A 1 1 0 0 0 7 12 L 7 13 L 3 13 L 3 12 C 3.0000567 11.734421 3.1051478 11.480733 3.2929688 11.292969 L 7.2929688 7.2929688 C 7.480733 7.1051478 7.7344212 7.0000567 8 7 z M 3 15 L 7 15 L 7 16 A 1 1 0 0 0 8 17 A 1 1 0 0 0 9 16 L 9 15 L 15 15 L 15 16 A 1 1 0 0 0 16 17 A 1 1 0 0 0 17 16 L 17 15 L 21 15 L 21 19 C 21 19.564129 20.564129 20 20 20 L 4 20 C 3.4358706 20 3 19.564129 3 19 L 3 15 z "/>
</svg>
