<?xml version="1.0" encoding="UTF-8" standalone="no"?>
<svg xmlns="http://www.w3.org/2000/svg" xmlns:svg="http://www.w3.org/2000/svg" width="24" height="24" viewBox="0 0 24 24" fill="currentColor" tags="donut,doughnut,ring,hollow,3d,fast food,junk food,snack,treat,sweet,sugar,dessert" categories="shapes,design,tools,food-beverage">
  <path d="M 12 3 C 6.0177904 3 1 7.1697784 1 12.5 C 1 17.830222 6.0177904 22 12 22 C 17.98221 22 23 17.830222 23 12.5 C 23 7.1697784 17.98221 3 12 3 z M 12 5 C 17.063463 5 21 8.4413997 21 12.5 C 21 16.5586 17.063463 20 12 20 C 6.9365368 20 3 16.5586 3 12.5 C 3 8.4413997 6.9365368 5 12 5 z M 12 8 C 10.991428 8 10.062443 8.2617562 9.3242188 8.7539062 C 8.5859937 9.2460562 8 10.042387 8 11 C 8 11.957613 8.5859937 12.753943 9.3242188 13.246094 C 10.062443 13.738243 10.991428 14 12 14 C 13.008572 14 13.937557 13.738243 14.675781 13.246094 C 15.414007 12.753943 16 11.957613 16 11 C 16 10.042387 15.414007 9.2460562 14.675781 8.7539062 C 13.937557 8.2617562 13.008572 8 12 8 z M 12 10 C 12.648279 10 13.218848 10.186262 13.566406 10.417969 C 13.913966 10.649675 14 10.853045 14 11 C 14 11.146955 13.91397 11.350325 13.566406 11.582031 C 13.218848 11.813738 12.648279 12 12 12 C 11.351721 12 10.781152 11.813738 10.433594 11.582031 C 10.086034 11.350325 10 11.146955 10 11 C 10 10.853045 10.086034 10.649675 10.433594 10.417969 C 10.781152 10.186262 11.351721 10 12 10 z "/>
</svg>
