<svg xmlns="http://www.w3.org/2000/svg" xmlns:svg="http://www.w3.org/2000/svg" width="24" height="24" viewBox="0 0 24 24" fill="currentColor" tags="donut,doughnut,ring,hollow,3d,fast food,junk food,snack,treat,sweet,sugar,dessert" categories="shapes,design,tools,food-beverage">
  <path d="M 12 3 C 6.0177784 3 1 7.1697677 1 12.5 C 1 17.830232 6.0177784 22 12 22 C 17.982222 22 23 17.830232 23 12.5 C 23 7.1697677 17.982222 3 12 3 z M 12 5 C 17.063473 5 21 8.4413915 21 12.5 C 21 16.558608 17.063473 20 12 20 C 6.9365266 20 3 16.558608 3 12.5 C 3 8.4413915 6.9365266 5 12 5 z M 12 8 C 10.991426 8 10.062445 8.2617553 9.3242188 8.7539062 C 8.5859922 9.2460571 8 10.042385 8 11 C 8 11.957615 8.5859923 12.753943 9.3242188 13.246094 C 10.062445 13.738245 10.991426 14 12 14 C 13.008574 14 13.937555 13.738245 14.675781 13.246094 C 15.414008 12.753943 16 11.957615 16 11 C 16 10.042385 15.414008 9.2460572 14.675781 8.7539062 C 13.937555 8.2617553 13.008574 8 12 8 z M 12 10 C 12.64828 10 13.218846 10.186262 13.566406 10.417969 C 13.913966 10.649675 14 10.853045 14 11 C 14 11.146955 13.91397 11.350325 13.566406 11.582031 C 13.218846 11.813738 12.64828 12 12 12 C 11.35172 12 10.781154 11.813738 10.433594 11.582031 C 10.086034 11.350325 10 11.146955 10 11 C 10 10.853045 10.086034 10.649675 10.433594 10.417969 C 10.781154 10.186262 11.35172 10 12 10 z "/>
</svg>
