<?xml version="1.0" encoding="UTF-8" standalone="no"?>
<svg xmlns="http://www.w3.org/2000/svg" xmlns:svg="http://www.w3.org/2000/svg" width="24" height="24" viewBox="0 0 24 24" fill="currentColor" tags="trackpad,cursor" categories="devices">
  <path d="M 2 1 A 1 1 0 0 0 1.2929688 1.2929688 A 1 1 0 0 0 1.2929688 2.7070312 L 2.1953125 3.609375 C 1.4708304 4.1593067 1 5.0295544 1 6 L 1 18 C 1 19.64501 2.3549904 21 4 21 L 19.585938 21 L 21.292969 22.707031 A 1 1 0 0 0 22.707031 22.707031 A 1 1 0 0 0 22.707031 21.292969 L 20.716797 19.302734 A 1 1 0 0 0 20.697266 19.283203 L 14.716797 13.302734 A 1 1 0 0 0 14.697266 13.283203 L 4.7167969 3.3027344 A 1 1 0 0 0 4.6972656 3.2832031 L 2.7070312 1.2929688 A 1 1 0 0 0 2 1 z M 10 3 A 1 1 0 0 0 9 4 A 1 1 0 0 0 10 5 L 20 5 C 20.564129 5 21 5.4358706 21 6 L 21 13 L 20 13 A 1 1 0 0 0 19 14 A 1 1 0 0 0 20 15 L 21 15 L 21 16 A 1 1 0 0 0 22 17 A 1 1 0 0 0 23 16 L 23 14 L 23 6 C 23 4.3549904 21.64501 3 20 3 L 10 3 z M 3.6464844 5.0605469 L 11.585938 13 L 3 13 L 3 6 C 3 5.5609958 3.2635334 5.199238 3.6464844 5.0605469 z M 3 15 L 11 15 L 11 19 L 4 19 C 3.4358706 19 3 18.564129 3 18 L 3 15 z M 13 15 L 13.585938 15 L 17.585938 19 L 13 19 L 13 15 z "/>
</svg>
