<?xml version="1.0" encoding="UTF-8" standalone="no"?>
<svg xmlns="http://www.w3.org/2000/svg" xmlns:svg="http://www.w3.org/2000/svg" width="24" height="24" viewBox="0 0 24 24" fill="currentColor" tags="trackpad,cursor" categories="devices">
  <path d="M 2 1 A 1 1 0 0 0 1.2929688 1.2929688 A 1 1 0 0 0 1.2929688 2.7070312 L 2.1992188 3.6132812 C 1.4742316 4.1631762 1 5.029156 1 6 L 1 18 C 1 19.64501 2.3549904 21 4 21 L 19.585938 21 L 21.292969 22.707031 A 1 1 0 0 0 22.707031 22.707031 A 1 1 0 0 0 22.707031 21.292969 L 2.7070312 1.2929688 A 1 1 0 0 0 2 1 z M 10 3 A 1 1 0 0 0 9 4 A 1 1 0 0 0 10 5 L 20 5 C 20.564129 5 21 5.4358706 21 6 L 21 13 L 20 13 A 1 1 0 0 0 19 14 A 1 1 0 0 0 20 15 L 21 15 L 21 16 A 1 1 0 0 0 22 17 A 1 1 0 0 0 23 16 L 23 14 L 23 6 C 23 4.3549904 21.64501 3 20 3 L 10 3 z M 3.6484375 5.0625 L 11.585938 13 L 3 13 L 3 6 C 3 5.5608253 3.2652453 5.2010719 3.6484375 5.0625 z M 3 15 L 11 15 L 11 19 L 4 19 C 3.4358706 19 3 18.564129 3 18 L 3 15 z M 13 15 L 13.585938 15 L 17.585938 19 L 13 19 L 13 15 z "/>
</svg>
