<?xml version="1.0" encoding="UTF-8" standalone="no"?>
<svg xmlns="http://www.w3.org/2000/svg" xmlns:svg="http://www.w3.org/2000/svg" width="24" height="24" viewBox="0 0 24 24" fill="currentColor" tags="lego,block,addon,plugin,integration" categories="gaming,development">
  <path d="M 6 3 C 4.9072751 3 4 3.9072751 4 5 L 4 7 C 2.9092972 7 2 7.9092972 2 9 L 2 19 C 2 20.090703 2.9092972 21 4 21 L 20 21 C 21.090703 21 22 20.090703 22 19 L 22 9 C 22 7.9092972 21.090703 7 20 7 L 20 5 C 20 4.4777778 19.808671 3.9453899 19.431641 3.5683594 C 19.05461 3.1913289 18.522222 3 18 3 L 15 3 C 13.907275 3 13 3.9072751 13 5 L 13 7 L 11 7 L 11 5 C 11 4.4777778 10.808671 3.9453899 10.431641 3.5683594 C 10.05461 3.1913289 9.5222222 3 9 3 L 6 3 z M 6 5 L 9 5 L 9 7 L 6 7 L 6 5 z M 15 5 L 18 5 L 18 7 L 15 7 L 15 5 z M 4 9 L 14 9 L 19 9 L 20 9 L 20 19 L 4 19 L 4 9 z "/>
</svg>
