<?xml version="1.0" encoding="UTF-8" standalone="no"?>
<svg xmlns="http://www.w3.org/2000/svg" xmlns:svg="http://www.w3.org/2000/svg" width="24" height="24" viewBox="0 0 24 24" fill="currentColor" tags="farming,farmer,ranch,harvest,equipment,vehicle" categories="transportation,sustainability,food-beverage">
  <path d="M 3 3 A 1 1 0 0 0 2 4 A 1 1 0 0 0 3 5 L 3 10.537109 C 1.7743487 11.637381 1 13.231991 1 15 C 1 18.301864 3.6981361 21 7 21 C 8.7680091 21 10.362619 20.225651 11.462891 19 L 15.173828 19 C 15.589521 20.160389 16.704641 21 18 21 C 19.345774 21 20.496635 20.093907 20.871094 18.863281 C 21.515616 18.610283 22.008899 18.029791 22.123047 17.316406 L 22.787109 13.158203 A 1.0001 1.0001 0 0 0 22.792969 13.119141 C 22.916157 12.089416 22.210944 11.11804 21.193359 10.917969 A 1.0001 1.0001 0 0 0 21.082031 10.904297 L 18 10.652344 L 18 6 A 1 1 0 0 0 19 5 A 1 1 0 0 0 18 4 C 16.907275 4 16 4.9072751 16 6 L 16 10.488281 L 13.880859 10.314453 L 13.109375 4.7265625 C 12.973647 3.745185 12.119625 3.0005658 11.128906 3 L 3 3 z M 5 5 L 7 5 L 7 9 C 6.2993489 9 5.6262695 9.1227303 5 9.3457031 L 5 5 z M 9 5 L 11.128906 5 L 11.839844 10.148438 L 10.347656 10.025391 C 9.9323852 9.7445785 9.479623 9.5164649 9 9.3457031 L 9 5 z M 7 11 C 7.2666104 11 7.5257837 11.02526 7.7773438 11.074219 C 8.3532545 11.186302 8.8846402 11.421192 9.3417969 11.75 A 1 1 0 0 0 9.3789062 11.777344 C 10.364314 12.503568 11 13.672666 11 15 C 11 15.88404 10.717682 16.697748 10.238281 17.357422 A 1 1 0 0 0 10.191406 17.421875 C 9.463106 18.382967 8.3081147 19 7 19 C 4.7790164 19 3 17.220984 3 15 C 3 12.779016 4.7790164 11 7 11 z M 12.296875 12.191406 L 20.804688 12.886719 L 20.294922 16.078125 C 19.742642 15.420692 18.916839 15 18 15 C 16.704641 15 15.589521 15.839611 15.173828 17 L 12.654297 17 C 12.87727 16.37373 13 15.700651 13 15 C 13 13.986702 12.744559 13.030453 12.296875 12.191406 z M 7 14 A 1 1 0 0 0 6 15 A 1 1 0 0 0 7 16 L 7.0097656 16 A 1 1 0 0 0 8.0097656 15 A 1 1 0 0 0 7.0097656 14 L 7 14 z M 18 17 C 18.564129 17 19 17.435871 19 18 C 19 18.564129 18.564129 19 18 19 C 17.435871 19 17 18.564129 17 18 C 17 17.435871 17.435871 17 18 17 z "/>
</svg>
