<svg xmlns="http://www.w3.org/2000/svg" xmlns:svg="http://www.w3.org/2000/svg" width="24" height="24" viewBox="0 0 24 24" fill="currentColor" tags="farming,farmer,ranch,harvest,equipment,vehicle" categories="transportation,sustainability,food-beverage">
  <path d="M 3 3 A 1 1 0 0 0 2 4 A 1 1 0 0 0 3 5 L 3 10.537109 C 1.773913 11.637404 1 13.231629 1 15 C 1 18.301864 3.6981361 21 7 21 C 8.7683708 21 10.362596 20.226087 11.462891 19 L 15.173828 19 C 15.589685 20.160087 16.704857 21 18 21 C 19.345785 21 20.496645 20.093923 20.871094 18.863281 C 21.515141 18.610082 22.008956 18.029433 22.123047 17.316406 L 22.787109 13.158203 A 1.0001 1.0001 0 0 0 22.792969 13.119141 C 22.916157 12.089416 22.210944 11.11804 21.193359 10.917969 A 1.0001 1.0001 0 0 0 21.082031 10.904297 L 18 10.652344 L 18 6 A 1 1 0 0 0 19 5 A 1 1 0 0 0 18 4 C 16.907275 4 16 4.9072751 16 6 L 16 10.488281 L 13.880859 10.314453 L 13.109375 4.7265625 C 12.973647 3.745185 12.119625 3.0005658 11.128906 3 L 3 3 z M 5 5 L 7 5 L 7 9 C 6.2994932 9 5.62616 9.1208648 5 9.34375 L 5 5 z M 9 5 L 11.128906 5 L 11.839844 10.148438 L 10.345703 10.025391 C 9.9306472 9.744868 9.4793084 9.5143625 9 9.34375 L 9 5 z M 7 11 C 7.265066 11 7.5232347 11.025813 7.7734375 11.074219 A 1 1 0 0 0 7.8320312 11.085938 C 8.382235 11.200798 8.8899082 11.426159 9.3300781 11.740234 A 1 1 0 0 0 9.4765625 11.851562 C 10.405717 12.581865 11 13.717347 11 15 C 11 15.869276 10.726602 16.670516 10.261719 17.324219 A 1 1 0 0 0 10.144531 17.482422 C 9.4140967 18.408864 8.280479 19 7 19 C 4.7790164 19 3 17.220984 3 15 C 3 13.719521 3.5911358 12.585903 4.5175781 11.855469 A 1 1 0 0 0 4.6757812 11.738281 C 5.3294843 11.273398 6.1307238 11 7 11 z M 12.298828 12.191406 L 12.880859 12.238281 A 1 1 0 0 0 12.957031 12.244141 L 16.892578 12.566406 A 1 1 0 0 0 16.935547 12.570312 L 16.9375 12.570312 L 20.804688 12.886719 L 20.294922 16.078125 C 19.742643 15.420913 18.91666 15 18 15 C 16.704857 15 15.589685 15.839913 15.173828 17 L 12.65625 17 C 12.879135 16.37384 13 15.700507 13 15 C 13 13.986534 12.746651 13.030553 12.298828 12.191406 z M 7 14 A 1 1 0 0 0 6 15 A 1 1 0 0 0 7 16 L 7.0097656 16 A 1 1 0 0 0 8.0097656 15 A 1 1 0 0 0 7.0097656 14 L 7 14 z M 18 17 C 18.564127 17 18.999997 17.435874 19 18 C 19 18.564129 18.564129 19 18 19 C 17.435871 19 17 18.564129 17 18 C 17 17.435871 17.435871 17 18 17 z "/>
</svg>
