<?xml version="1.0" encoding="UTF-8" standalone="no"?>
<svg xmlns="http://www.w3.org/2000/svg" xmlns:svg="http://www.w3.org/2000/svg" width="24" height="24" viewBox="0 0 24 24" fill="currentColor" tags="roadworks,tarmac,safety,block" categories="transportation">
  <path d="M 12 0.99804688 C 10.763606 0.99804688 9.4647381 1.8204059 9.0957031 3.25 L 9.09375 3.2519531 L 6.2402344 13.322266 L 2.1933594 15.164062 L 2.1914062 15.166016 C 1.4330545 15.501703 1 16.266718 1 16.994141 C 1 17.722421 1.4333464 18.489104 2.1933594 18.824219 L 2.1816406 18.820312 L 10.755859 22.730469 C 11.546132 23.090939 12.453868 23.090939 13.244141 22.730469 L 21.806641 18.835938 L 21.808594 18.833984 C 22.568071 18.498381 23.002351 17.732023 23.001953 17.003906 C 23.001555 16.274932 22.566196 15.507978 21.804688 15.173828 L 17.759766 13.332031 L 14.90625 3.2519531 L 14.904297 3.2480469 C 14.534662 1.8195255 13.235896 0.99804686 12 0.99804688 z M 12 2.9980469 C 12.442321 2.9980469 12.821875 3.1767991 12.96875 3.7480469 A 1.0001 1.0001 0 0 0 12.974609 3.7714844 L 13.564453 5.8554688 C 12.568954 6.0345591 11.431233 6.0343237 10.435547 5.8554688 L 11.025391 3.7734375 A 1.0001 1.0001 0 0 0 11.03125 3.7480469 C 11.17812 3.1768167 11.557696 2.9980579 12 2.9980469 z M 9.8867188 7.7949219 C 11.255242 8.0852642 12.744848 8.0854797 14.113281 7.7949219 L 14.871094 10.470703 C 14.106417 10.794892 13.053719 11 12 11 C 10.945888 11 9.8936535 10.795101 9.1289062 10.470703 L 9.8867188 7.7949219 z M 8.5761719 12.417969 L 8.578125 12.417969 C 9.6203243 12.827984 10.811199 13 12 13 C 13.188967 13 14.381525 12.830061 15.423828 12.419922 L 15.982422 14.394531 C 15.980285 14.39673 15.977045 14.399612 15.974609 14.402344 C 15.909919 14.474924 15.665873 14.648522 15.28125 14.791016 C 14.512005 15.076002 13.24822 15.259766 11.998047 15.259766 C 10.747874 15.259766 9.4860419 15.076002 8.7167969 14.791016 C 8.3321744 14.648522 8.088132 14.474922 8.0234375 14.402344 C 8.0209979 14.399607 8.0197011 14.39675 8.0175781 14.394531 L 8.0195312 14.386719 A 1 1 0 0 0 8.0546875 14.265625 L 8.5761719 12.417969 z M 6.3398438 15.476562 C 6.3970872 15.569184 6.4602489 15.65496 6.5292969 15.732422 C 6.9368132 16.189598 7.4528199 16.45534 8.0214844 16.666016 C 9.1588132 17.087368 10.571924 17.259766 11.998047 17.259766 C 13.424169 17.259766 14.839233 17.087368 15.976562 16.666016 C 16.545226 16.45534 17.061234 16.189598 17.46875 15.732422 C 17.536443 15.65648 17.599883 15.57297 17.65625 15.482422 L 20.988281 17 A 1.0001 1.0001 0 0 0 21.001953 17.003906 A 1.0001 1.0001 0 0 0 20.990234 17.009766 L 12.416016 20.910156 A 1.0001 1.0001 0 0 0 12.414062 20.910156 C 12.149923 21.030639 11.850076 21.030639 11.585938 20.910156 A 1.0001 1.0001 0 0 0 11.583984 20.910156 L 3.0117188 17 A 1.0001 1.0001 0 0 0 3 16.994141 A 1.0001 1.0001 0 0 0 3.0097656 16.990234 L 6.3398438 15.476562 z "/>
</svg>
