<?xml version="1.0" encoding="UTF-8" standalone="no"?>
<svg xmlns="http://www.w3.org/2000/svg" xmlns:svg="http://www.w3.org/2000/svg" width="24" height="24" viewBox="0 0 24 24" fill="currentColor" tags="roadworks,tarmac,safety,block" categories="transportation">
  <path d="M 12.068359 0.85546875 C 10.817687 0.82255631 9.4714509 1.6644653 9.1367188 3.1347656 L 6.96875 10.357422 A 1 1 0 0 0 6.9179688 10.527344 L 6.609375 11.558594 L 2.3027344 14.033203 A 1.0001 1.0001 0 0 0 2.2851562 14.042969 C 1.6002067 14.453904 1 15.1 1 16 C 1 16.9 1.6002068 17.546062 2.2851562 17.957031 A 1.0001 1.0001 0 0 0 2.2910156 17.960938 L 9.890625 22.460938 A 1.0001 1.0001 0 0 0 9.9140625 22.474609 C 11.143933 23.157871 12.654895 23.157871 13.884766 22.474609 A 1.0001 1.0001 0 0 0 13.910156 22.460938 L 21.486328 17.974609 C 22.34171 17.578846 23 16.868511 23 16 C 23 15.1 22.399793 14.453938 21.714844 14.042969 A 1.0001 1.0001 0 0 0 21.710938 14.041016 L 17.322266 11.425781 L 17.099609 10.683594 A 1 1 0 0 0 16.943359 10.162109 L 14.869141 3.2519531 C 14.599044 1.7853459 13.309907 0.88814104 12.068359 0.85546875 z M 12.015625 2.8554688 C 12.458303 2.8671177 12.819193 3.039509 12.910156 3.6484375 A 1.0001 1.0001 0 0 0 12.941406 3.7871094 L 13.527344 5.7421875 C 12.552509 6.2080161 11.417169 6.2049549 10.445312 5.7304688 L 11.058594 3.6875 A 1.0001 1.0001 0 0 0 11.080078 3.5996094 C 11.202942 2.9963079 11.572947 2.8438193 12.015625 2.8554688 z M 9.8671875 7.6621094 C 11.221254 8.2247481 12.751198 8.227593 14.107422 7.671875 L 14.902344 10.322266 C 14.19601 10.715067 13.162504 11 12 11 C 10.8236 11 9.7790809 10.708688 9.0722656 10.308594 L 9.8671875 7.6621094 z M 8.4960938 12.275391 C 9.5000639 12.756969 10.706561 13 12 13 C 13.287695 13 14.488932 12.758586 15.490234 12.28125 L 15.941406 13.787109 A 1.0001 1.0001 0 0 0 15.998047 13.882812 C 15.998009 13.893176 16 13.919996 16 14 C 16 14.418627 15.739513 14.859806 15.037109 15.279297 C 14.334706 15.698788 13.245238 16 12 16 C 10.754762 16 9.6652942 15.698788 8.9628906 15.279297 C 8.260487 14.859806 8 14.418627 8 14 C 8 13.85 8.0082622 13.816728 8.0039062 13.826172 A 1.0001 1.0001 0 0 0 8.0585938 13.6875 L 8.3476562 12.726562 A 1 1 0 0 0 8.4960938 12.275391 z M 17.994141 14.154297 L 20.6875 15.759766 C 20.847702 15.856971 20.922881 15.944131 20.960938 15.992188 C 20.91408 16.028111 20.822908 16.088453 20.605469 16.181641 A 1.0001 1.0001 0 0 0 20.490234 16.240234 L 12.914062 20.726562 C 12.344482 21.042997 11.456911 21.042388 10.886719 20.726562 L 10.884766 20.726562 L 3.3144531 16.242188 C 3.1358753 16.135041 3.0626394 16.046478 3.0292969 16.001953 C 3.0624828 15.959537 3.1349685 15.869454 3.3105469 15.761719 C 3.3147769 15.759119 3.3101009 15.760413 3.3144531 15.757812 L 6.0078125 14.208984 C 6.0931796 15.396596 6.9000601 16.376512 7.9375 16.996094 C 9.0350964 17.651603 10.445238 18 12 18 C 13.554762 18 14.964904 17.651603 16.0625 16.996094 C 17.11568 16.367111 17.92983 15.36628 17.994141 14.154297 z "/>
</svg>
