<?xml version="1.0" encoding="UTF-8" standalone="no"?>
<svg xmlns="http://www.w3.org/2000/svg" xmlns:svg="http://www.w3.org/2000/svg" width="24" height="24" viewBox="0 0 24 24" fill="currentColor" tags="roadworks,tarmac,safety,block" categories="transportation">
  <path d="M 12.068359 0.85546875 C 10.804898 0.82221975 9.4401256 1.6794062 9.1230469 3.1777344 L 6.9902344 10.285156 A 1 1 0 0 0 6.9101562 10.554688 L 6.609375 11.558594 L 2.3027344 14.033203 A 1.0001 1.0001 0 0 0 2.2851562 14.042969 C 1.6002067 14.453904 1 15.1 1 16 C 1 16.9 1.6002068 17.546062 2.2851562 17.957031 A 1.0001 1.0001 0 0 0 2.2910156 17.960938 L 9.890625 22.460938 A 1.0001 1.0001 0 0 0 9.9140625 22.474609 C 11.143933 23.157871 12.654895 23.157871 13.884766 22.474609 A 1.0001 1.0001 0 0 0 13.910156 22.460938 L 21.457031 17.992188 C 22.327234 17.599371 23 16.878786 23 16 C 23 15.1 22.399793 14.453938 21.714844 14.042969 A 1.0001 1.0001 0 0 0 21.710938 14.041016 L 17.320312 11.423828 L 17.099609 10.6875 A 1 1 0 0 0 16.939453 10.15625 L 14.876953 3.2773438 C 14.617456 1.7952748 13.317251 0.88833432 12.068359 0.85546875 z M 12.015625 2.8554688 C 12.458303 2.8671177 12.819193 3.039509 12.910156 3.6484375 A 1.0001 1.0001 0 0 0 12.941406 3.7871094 L 13.527344 5.7421875 C 12.552439 6.2082726 11.417325 6.2049589 10.445312 5.7304688 L 11.058594 3.6875 A 1.0001 1.0001 0 0 0 11.080078 3.5996094 C 11.202942 2.9963079 11.572947 2.8438193 12.015625 2.8554688 z M 9.8671875 7.6621094 C 11.221488 8.2252264 12.750841 8.2276762 14.107422 7.671875 L 14.902344 10.324219 C 14.196031 10.71677 13.162026 11 12 11 C 10.823869 11 9.7790739 10.708547 9.0722656 10.308594 L 9.8671875 7.6621094 z M 8.4980469 12.275391 C 9.5017517 12.756545 10.707134 13 12 13 C 13.28725 13 14.489139 12.758258 15.490234 12.28125 L 15.941406 13.787109 A 1.0001 1.0001 0 0 0 15.998047 13.882812 C 15.998009 13.893176 16 13.919996 16 14 C 16 14.418627 15.739513 14.859806 15.037109 15.279297 C 14.334706 15.698788 13.245238 16 12 16 C 10.754762 16 9.6652942 15.698788 8.9628906 15.279297 C 8.260487 14.859806 8 14.418627 8 14 C 8 13.879059 8.0042912 13.835864 8.0039062 13.828125 A 1.0001 1.0001 0 0 0 8.0039062 13.826172 A 1.0001 1.0001 0 0 0 8.0585938 13.6875 L 8.34375 12.734375 A 1 1 0 0 0 8.3457031 12.730469 A 1 1 0 0 0 8.4980469 12.275391 z M 17.996094 14.15625 L 20.6875 15.759766 C 20.84831 15.857341 20.926948 15.946205 20.964844 15.994141 C 20.914532 16.031163 20.810796 16.093644 20.605469 16.181641 A 1.0001 1.0001 0 0 0 20.490234 16.240234 L 12.914062 20.726562 C 12.344482 21.042997 11.456911 21.042388 10.886719 20.726562 L 10.884766 20.726562 L 3.3144531 16.242188 C 3.1444622 16.140193 3.0671276 16.048928 3.03125 16.001953 C 3.0669176 15.956739 3.1434093 15.864275 3.3105469 15.761719 L 3.3125 15.761719 L 3.3125 15.759766 L 3.3125 15.757812 L 3.3144531 15.757812 L 6.0078125 14.210938 C 6.0937758 15.397845 6.9005158 16.376784 7.9375 16.996094 C 9.0350964 17.651603 10.445238 18 12 18 C 13.554762 18 14.964904 17.651603 16.0625 16.996094 C 17.115372 16.367295 17.931362 15.367754 17.996094 14.15625 z "/>
</svg>
