<?xml version="1.0" encoding="UTF-8" standalone="no"?>
<svg xmlns="http://www.w3.org/2000/svg" xmlns:svg="http://www.w3.org/2000/svg" width="24" height="24" viewBox="0 0 24 24" fill="currentColor" tags="railway,metro,subway,underground,speed,bullet,fast,track,line" categories="transportation,navigation">
  <path d="M 12 1 C 5.9367135 1 1 5.936709 1 12 L 1 22 A 1 1 0 0 0 2 23 A 1 1 0 0 0 3 22 L 3 12 C 3 7.0175885 7.0175918 3 12 3 C 16.982408 3 21 7.0175885 21 12 L 21 22 A 1 1 0 0 0 22 23 A 1 1 0 0 0 23 22 L 23 12 C 23 5.936709 18.063287 1 12 1 z M 12 5 C 10.770459 5 9.6136528 5.3196793 8.6074219 5.8808594 A 1 1 0 0 0 8.3964844 6.0039062 C 6.3642464 7.2315678 5 9.4620152 5 12 L 5 15 C 5 16.864676 6.0348179 18.50005 7.5585938 19.359375 L 6.1679688 21.445312 A 1 1 0 0 0 6.4453125 22.832031 A 1 1 0 0 0 7.8320312 22.554688 L 9.5488281 19.980469 C 9.6975301 19.993936 9.8479489 20 10 20 L 14 20 C 14.152051 20 14.30247 19.993936 14.451172 19.980469 L 16.167969 22.554688 A 1 1 0 0 0 17.554688 22.832031 A 1 1 0 0 0 17.832031 21.445312 L 16.441406 19.359375 C 17.965182 18.50005 19 16.864676 19 15 L 19 12 C 19 9.4620148 17.635754 7.2315677 15.603516 6.0039062 A 1 1 0 0 0 15.392578 5.8808594 C 14.386347 5.3196791 13.229541 5 12 5 z M 12 7 C 12.712196 7 13.388349 7.1468597 14 7.4121094 L 14 8.1992188 C 14 8.8646943 13.77622 9.2388955 13.423828 9.53125 C 13.071436 9.8236045 12.542593 10 12 10 C 11.457407 10 10.928564 9.8236045 10.576172 9.53125 C 10.22378 9.2388955 10 8.8646943 10 8.1992188 L 10 7.4121094 C 10.611651 7.1468598 11.287804 7 12 7 z M 8.0625 8.9082031 C 8.2236488 9.8025535 8.6831503 10.559528 9.2988281 11.070312 C 10.071436 11.71129 11.042593 12 12 12 C 12.957407 12 13.928564 11.71129 14.701172 11.070312 C 15.31685 10.559528 15.776351 9.8025535 15.9375 8.9082031 C 16.603971 9.7574773 17 10.83002 17 12 L 17 15 C 17 16.668699 15.668699 18 14 18 L 10 18 C 8.3313011 18 7 16.668699 7 15 L 7 12 C 7 10.83002 7.3960293 9.7574774 8.0625 8.9082031 z M 10 14 A 1 1 0 0 0 9 15 A 1 1 0 0 0 10 16 L 10.009766 16 A 1 1 0 0 0 11.009766 15 A 1 1 0 0 0 10.009766 14 L 10 14 z M 14 14 A 1 1 0 0 0 13 15 A 1 1 0 0 0 14 16 L 14.009766 16 A 1 1 0 0 0 15.009766 15 A 1 1 0 0 0 14.009766 14 L 14 14 z "/>
</svg>
