<?xml version="1.0" encoding="UTF-8" standalone="no"?>
<svg xmlns="http://www.w3.org/2000/svg" xmlns:svg="http://www.w3.org/2000/svg" width="24" height="24" viewBox="0 0 24 24" fill="currentColor" tags="railway,metro,subway,underground,high-speed,bullet,fast,track,line" categories="transportation">
  <path d="M 12 1 C 7.0412829 1 3 5.0412792 3 10 L 3 14 C 3 16.428123 4.4286097 18.510982 6.4941406 19.457031 L 5.1679688 21.445312 A 1 1 0 0 0 5.4453125 22.832031 A 1 1 0 0 0 6.8320312 22.554688 L 8.546875 19.982422 C 8.6966059 19.993516 8.8473402 20 9 20 L 15 20 C 15.15266 20 15.303394 19.993516 15.453125 19.982422 L 17.167969 22.554688 A 1 1 0 0 0 18.554688 22.832031 A 1 1 0 0 0 18.832031 21.445312 L 17.505859 19.457031 C 19.571391 18.510982 21 16.428123 21 14 L 21 10 C 21 5.0412792 16.958717 1 12 1 z M 12 3 C 13.074856 3 14.091654 3.2405767 15 3.6699219 L 15 7 C 15 8.0833326 14.629756 8.7685595 14.085938 9.2519531 C 13.542118 9.7353468 12.777778 10 12 10 C 11.222222 10 10.457881 9.7353468 9.9140625 9.2519531 C 9.3702444 8.7685595 9 8.0833326 9 7 L 9 3.6699219 C 9.9083462 3.2405766 10.925144 3 12 3 z M 7 5.0917969 L 7 7 C 7 8.5833329 7.6297556 9.8981077 8.5859375 10.748047 C 9.5421194 11.597986 10.777778 12 12 12 C 13.222222 12 14.45788 11.597986 15.414062 10.748047 C 16.370244 9.8981077 17 8.5833329 17 7 L 17 5.0917969 C 18.238273 6.3532945 19 8.0845891 19 10 L 19 14 C 19 16.27619 17.27619 18 15 18 L 9 18 C 6.7238095 18 5 16.27619 5 14 L 5 10 C 5 8.0845891 5.7617267 6.3532945 7 5.0917969 z M 8 13 A 1 1 0 0 0 7.2929688 13.292969 A 1 1 0 0 0 7.2929688 14.707031 L 8.2929688 15.707031 A 1 1 0 0 0 9.7070312 15.707031 A 1 1 0 0 0 9.7070312 14.292969 L 8.7070312 13.292969 A 1 1 0 0 0 8 13 z M 16 13 A 1 1 0 0 0 15.292969 13.292969 L 14.292969 14.292969 A 1 1 0 0 0 14.292969 15.707031 A 1 1 0 0 0 15.707031 15.707031 L 16.707031 14.707031 A 1 1 0 0 0 16.707031 13.292969 A 1 1 0 0 0 16 13 z "/>
</svg>
