<?xml version="1.0" encoding="UTF-8" standalone="no"?>
<svg xmlns="http://www.w3.org/2000/svg" xmlns:svg="http://www.w3.org/2000/svg" width="24" height="24" viewBox="0 0 24 24" fill="currentColor" tags="railway,line" categories="transportation,maps">
  
  <path d="M 14 1 A 1 1 0 0 0 13.292969 1.2929688 A 1 1 0 0 0 13.292969 2.7070312 L 14.085938 3.5 L 12.5 5.0859375 L 11.707031 4.2929688 A 1 1 0 0 0 11 4 A 1 1 0 0 0 10.292969 4.2929688 A 1 1 0 0 0 10.292969 5.7070312 L 11.085938 6.5 L 9.5 8.0859375 L 8.7070312 7.2929688 A 1 1 0 0 0 8 7 A 1 1 0 0 0 7.2929688 7.2929688 A 1 1 0 0 0 7.2929688 8.7070312 L 8.0859375 9.5 L 6.5 11.085938 L 5.7070312 10.292969 A 1 1 0 0 0 5 10 A 1 1 0 0 0 4.2929688 10.292969 A 1 1 0 0 0 4.2929688 11.707031 L 5.0859375 12.5 L 3.5 14.085938 L 2.7070312 13.292969 A 1 1 0 0 0 2 13 A 1 1 0 0 0 1.2929688 13.292969 A 1 1 0 0 0 1.2929688 14.707031 L 2.0859375 15.5 L 1.2929688 16.292969 A 1 1 0 0 0 1.2929688 17.707031 A 1 1 0 0 0 2.7070312 17.707031 L 3.5 16.914062 L 7.0859375 20.5 L 6.2929688 21.292969 A 1 1 0 0 0 6.2929688 22.707031 A 1 1 0 0 0 7.7070312 22.707031 L 8.5 21.914062 L 9.2929688 22.707031 A 1 1 0 0 0 10.707031 22.707031 A 1 1 0 0 0 10.707031 21.292969 L 9.9140625 20.5 L 11.5 18.914062 L 12.292969 19.707031 A 1 1 0 0 0 13.707031 19.707031 A 1 1 0 0 0 13.707031 18.292969 L 12.914062 17.5 L 14.5 15.914062 L 15.292969 16.707031 A 1 1 0 0 0 16.707031 16.707031 A 1 1 0 0 0 16.707031 15.292969 L 15.914062 14.5 L 17.5 12.914062 L 18.292969 13.707031 A 1 1 0 0 0 19.707031 13.707031 A 1 1 0 0 0 19.707031 12.292969 L 18.914062 11.5 L 20.5 9.9140625 L 21.292969 10.707031 A 1 1 0 0 0 22.707031 10.707031 A 1 1 0 0 0 22.707031 9.2929688 L 21.914062 8.5 L 22.707031 7.7070312 A 1 1 0 0 0 22.707031 6.2929688 A 1 1 0 0 0 21.292969 6.2929688 L 20.5 7.0859375 L 16.914062 3.5 L 17.707031 2.7070312 A 1 1 0 0 0 17.707031 1.2929688 A 1 1 0 0 0 16.292969 1.2929688 L 15.5 2.0859375 L 14.707031 1.2929688 A 1 1 0 0 0 14 1 z M 15.5 4.9140625 L 19.085938 8.5 L 17.5 10.085938 L 13.914062 6.5 L 15.5 4.9140625 z M 12.5 7.9140625 L 16.085938 11.5 L 14.5 13.085938 L 10.914062 9.5 L 12.5 7.9140625 z M 9.5 10.914062 L 13.085938 14.5 L 11.5 16.085938 L 7.9140625 12.5 L 9.5 10.914062 z M 6.5 13.914062 L 10.085938 17.5 L 8.5 19.085938 L 4.9140625 15.5 L 6.5 13.914062 z "/>
</svg>
