<?xml version="1.0" encoding="UTF-8" standalone="no"?>
<svg xmlns="http://www.w3.org/2000/svg" xmlns:svg="http://www.w3.org/2000/svg" width="24" height="24" viewBox="0 0 24 24" fill="currentColor" tags="railway,metro,subway,underground,speed,bullet,fast,track,line" categories="transportation,navigation">
  <path d="M 12 1 C 5.9367135 1 1 5.936709 1 12 L 1 22 A 1 1 0 0 0 2 23 A 1 1 0 0 0 3 22 L 3 12 C 3 7.0175885 7.0175918 3 12 3 C 16.982408 3 21 7.0175885 21 12 L 21 22 A 1 1 0 0 0 22 23 A 1 1 0 0 0 23 22 L 23 12 C 23 5.936709 18.063287 1 12 1 z M 12 5 C 10.7497 5 9.5746447 5.3332016 8.5566406 5.9121094 A 1 1 0 0 0 8.4550781 5.96875 C 6.3904068 7.188677 5 9.4376219 5 12 L 5 15 C 5 16.864827 6.0346154 18.500106 7.5585938 19.359375 L 6.1679688 21.445312 A 1 1 0 0 0 6.4453125 22.832031 A 1 1 0 0 0 7.8320312 22.554688 L 9.5488281 19.978516 C 9.6975153 19.991981 9.8479644 20 10 20 L 14 20 C 14.152036 20 14.302485 19.991981 14.451172 19.978516 L 16.167969 22.554688 A 1 1 0 0 0 17.554688 22.832031 A 1 1 0 0 0 17.832031 21.445312 L 16.441406 19.359375 C 17.965385 18.500106 19 16.864827 19 15 L 19 12 C 19 9.4616411 17.63625 7.2294998 15.603516 6.0019531 A 1 1 0 0 0 15.396484 5.8847656 C 14.38945 5.3223928 13.230946 5 12 5 z M 12 7 C 12.71227 7 13.388298 7.1468076 14 7.4121094 L 14 8.1992188 C 14 8.8646943 13.77622 9.2388955 13.423828 9.53125 C 13.071436 9.8236045 12.542593 10 12 10 C 11.457407 10 10.928564 9.8236045 10.576172 9.53125 C 10.22378 9.2388955 10 8.8646943 10 8.1992188 L 10 7.4121094 C 10.611702 7.1468076 11.287729 7 12 7 z M 8.0644531 8.9101562 C 8.2260342 9.8033434 8.6837631 10.560036 9.2988281 11.070312 C 10.071436 11.71129 11.042593 12 12 12 C 12.957407 12 13.928564 11.71129 14.701172 11.070312 C 15.316237 10.560036 15.773966 9.8033434 15.935547 8.9101562 C 16.601725 9.7593329 17 10.830303 17 12 L 17 15 C 17 16.668699 15.668699 18 14 18 L 10 18 C 8.3313011 18 7 16.668699 7 15 L 7 12 C 7 10.830303 7.3982749 9.7593329 8.0644531 8.9101562 z M 10 14 A 1 1 0 0 0 9 15 A 1 1 0 0 0 10 16 L 10.009766 16 A 1 1 0 0 0 11.009766 15 A 1 1 0 0 0 10.009766 14 L 10 14 z M 14 14 A 1 1 0 0 0 13 15 A 1 1 0 0 0 14 16 L 14.009766 16 A 1 1 0 0 0 15.009766 15 A 1 1 0 0 0 14.009766 14 L 14 14 z "/>
</svg>
