<?xml version="1.0" encoding="UTF-8" standalone="no"?>
<svg xmlns="http://www.w3.org/2000/svg" xmlns:svg="http://www.w3.org/2000/svg" width="24" height="24" viewBox="0 0 24 24" fill="currentColor" tags="railway,metro,subway,underground,high-speed,bullet,fast,track,line" categories="transportation">
  <path d="M 12 1 C 7.0412929 1 3 5.0412892 3 10 L 3 14 C 3 16.42797 4.4288159 18.508948 6.4941406 19.455078 L 5.1679688 21.445312 A 1 1 0 0 0 5.4453125 22.832031 A 1 1 0 0 0 6.8320312 22.554688 L 8.546875 19.980469 C 8.6964465 19.991539 8.8475063 20 9 20 L 15 20 C 15.152494 20 15.303554 19.991539 15.453125 19.980469 L 17.167969 22.554688 A 1 1 0 0 0 18.554688 22.832031 A 1 1 0 0 0 18.832031 21.445312 L 17.505859 19.455078 C 19.571184 18.508948 21 16.42797 21 14 L 21 10 C 21 5.0412892 16.958707 1 12 1 z M 12 3 C 13.075297 3 14.09137 3.2402432 15 3.6699219 L 15 7 C 15 8.0833305 14.629754 8.7685605 14.085938 9.2519531 C 13.54212 9.7353458 12.777776 10 12 10 C 11.222224 10 10.457879 9.7353458 9.9140625 9.2519531 C 9.3702455 8.7685605 9 8.0833305 9 7 L 9 3.6699219 C 9.9086303 3.2402432 10.924703 3 12 3 z M 7 5.0917969 L 7 7 C 7 8.5833297 7.6297575 9.8981093 8.5859375 10.748047 C 9.5421175 11.597984 10.77778 12 12 12 C 13.22222 12 14.457882 11.597984 15.414062 10.748047 C 16.370242 9.8981093 17 8.5833297 17 7 L 17 5.0917969 C 18.23836 6.3533065 19 8.0845168 19 10 L 19 14 C 19 16.276186 17.276186 18 15 18 L 9 18 C 6.7238141 18 5 16.276186 5 14 L 5 10 C 5 8.0845168 5.7616403 6.3533065 7 5.0917969 z M 8 13 A 1 1 0 0 0 7.2929688 13.292969 A 1 1 0 0 0 7.2929688 14.707031 L 8.2929688 15.707031 A 1 1 0 0 0 9.7070312 15.707031 A 1 1 0 0 0 9.7070312 14.292969 L 8.7070312 13.292969 A 1 1 0 0 0 8 13 z M 15.912109 13.003906 A 1 1 0 0 0 15.292969 13.292969 L 14.292969 14.292969 A 1 1 0 0 0 14.292969 15.707031 A 1 1 0 0 0 15.707031 15.707031 L 16.707031 14.707031 A 1 1 0 0 0 16.707031 13.292969 A 1 1 0 0 0 15.912109 13.003906 z "/>
</svg>
