<?xml version="1.0" encoding="UTF-8" standalone="no"?>
<svg xmlns="http://www.w3.org/2000/svg" xmlns:svg="http://www.w3.org/2000/svg" width="24" height="24" viewBox="0 0 24 24" fill="currentColor" tags="gender,inclusive" categories="medical,accessibility">
  <path d="M 2 1 A 1.0001 1.0001 0 0 0 1.7636719 1.0292969 A 1 1 0 0 0 1.6660156 1.0644531 A 1.0001 1.0001 0 0 0 1.53125 1.1210938 A 1 1 0 0 0 1.4511719 1.171875 A 1.0001 1.0001 0 0 0 1.3339844 1.2617188 A 1 1 0 0 0 1.2929688 1.2929688 A 1 1 0 0 0 1.2675781 1.328125 A 1.0001 1.0001 0 0 0 1.1289062 1.5195312 A 1 1 0 0 0 1.1074219 1.5546875 A 1.0001 1.0001 0 0 0 1.0214844 1.8144531 A 1 1 0 0 0 1.0117188 1.8964844 A 1.0001 1.0001 0 0 0 1 2 L 1 5.3554688 A 1 1 0 0 0 2 6.3554688 A 1 1 0 0 0 3 5.3554688 L 3 4.4140625 L 5.0859375 6.5 L 4.2929688 7.2929688 A 1 1 0 0 0 4.2929688 8.7070312 A 1 1 0 0 0 5.7070312 8.7070312 L 6.5 7.9140625 L 7.8320312 9.2460938 C 7.3066942 10.03701 7 10.984891 7 12 C 7 14.407205 8.725397 16.431556 11 16.898438 L 11 19 L 10 19 A 1 1 0 0 0 9 20 A 1 1 0 0 0 10 21 L 11 21 L 11 22 A 1 1 0 0 0 12 23 A 1 1 0 0 0 13 22 L 13 21 L 14 21 A 1 1 0 0 0 15 20 A 1 1 0 0 0 14 19 L 13 19 L 13 16.898438 C 15.274603 16.431556 17 14.407205 17 12 C 17 10.984891 16.693306 10.03701 16.167969 9.2460938 L 21 4.4140625 L 21 6 A 1 1 0 0 0 22 7 A 1 1 0 0 0 23 6 L 23 2 A 1.0001 1.0001 0 0 0 22.998047 1.9824219 A 1 1 0 0 0 22.976562 1.7910156 A 1.0001 1.0001 0 0 0 22.970703 1.7636719 A 1 1 0 0 0 22.900391 1.5664062 A 1.0001 1.0001 0 0 0 22.896484 1.5605469 A 1 1 0 0 0 22.78125 1.3769531 A 1.0001 1.0001 0 0 0 22.777344 1.3710938 A 1 1 0 0 0 22.707031 1.2929688 A 1 1 0 0 0 22.671875 1.2675781 A 1.0001 1.0001 0 0 0 22.480469 1.1289062 A 1 1 0 0 0 22.445312 1.1074219 A 1.0001 1.0001 0 0 0 22.185547 1.0214844 A 1 1 0 0 0 22.103516 1.0117188 A 1.0001 1.0001 0 0 0 22 1 L 18 1 A 1 1 0 0 0 17 2 A 1 1 0 0 0 18 3 L 19.585938 3 L 14.753906 7.8320312 C 13.96299 7.3066942 13.015109 7 12 7 C 10.984891 7 10.03701 7.3066942 9.2460938 7.8320312 L 7.9140625 6.5 L 8.7070312 5.7070312 A 1 1 0 0 0 8.7070312 4.2929688 A 1 1 0 0 0 8 4 A 1 1 0 0 0 7.2929688 4.2929688 L 6.5 5.0859375 L 4.4140625 3 L 5.3574219 3 A 1 1 0 0 0 6.3574219 2 A 1 1 0 0 0 5.3574219 1 L 2 1 z M 12 9 C 12.829321 9 13.57459 9.3295887 14.115234 9.8652344 A 1 1 0 0 0 14.123047 9.8769531 A 1 1 0 0 0 14.134766 9.8847656 C 14.670411 10.42541 15 11.170679 15 12 C 15 13.668699 13.668699 15 12 15 C 10.331301 15 9 13.668699 9 12 C 9 11.170679 9.3295887 10.42541 9.8652344 9.8847656 A 1 1 0 0 0 9.8769531 9.8769531 A 1 1 0 0 0 9.8964844 9.8554688 C 10.436234 9.3261669 11.176233 9 12 9 z "/>
</svg>
