<?xml version="1.0" encoding="UTF-8" standalone="no"?>
<svg xmlns="http://www.w3.org/2000/svg" xmlns:svg="http://www.w3.org/2000/svg" width="24" height="24" viewBox="0 0 24 24" fill="currentColor" tags="gender,inclusive" categories="medical,accessibility">
  <path d="M 2 1 A 1 1 0 0 0 1.8691406 1.0078125 A 1.0001 1.0001 0 0 0 1.6171875 1.0761719 A 1 1 0 0 0 1.2929688 1.2929688 A 1 1 0 0 0 1.0761719 1.6171875 A 1.0001 1.0001 0 0 0 1.0078125 1.8691406 A 1 1 0 0 0 1 2 L 1 5.3554688 A 1 1 0 0 0 2 6.3554688 A 1 1 0 0 0 3 5.3554688 L 3 4.4140625 L 5.0859375 6.5 L 4.2929688 7.2929688 A 1 1 0 0 0 4.2929688 8.7070312 A 1 1 0 0 0 5.7070312 8.7070312 L 6.5 7.9140625 L 7.8320312 9.2460938 C 7.3065061 10.037103 7 10.984693 7 12 C 7 14.407389 8.7251388 16.431759 11 16.898438 L 11 19 L 10 19 A 1 1 0 0 0 9 20 A 1 1 0 0 0 10 21 L 11 21 L 11 22 A 1 1 0 0 0 12 23 A 1 1 0 0 0 13 22 L 13 21 L 14 21 A 1 1 0 0 0 15 20 A 1 1 0 0 0 14 19 L 13 19 L 13 16.898438 C 15.274861 16.431759 17 14.407389 17 12 C 17 10.984693 16.693494 10.037103 16.167969 9.2460938 L 21 4.4140625 L 21 6 A 1 1 0 0 0 22 7 A 1 1 0 0 0 23 6 L 23 2 A 1.0001 1.0001 0 0 0 22.707031 1.2929688 A 1 1 0 0 0 22.382812 1.0761719 A 1.0001 1.0001 0 0 0 22 1 L 18 1 A 1 1 0 0 0 17 2 A 1 1 0 0 0 18 3 L 19.585938 3 L 14.753906 7.8320312 C 13.962897 7.3065061 13.015307 7 12 7 C 10.984693 7 10.037103 7.3065061 9.2460938 7.8320312 L 7.9140625 6.5 L 8.7070312 5.7070312 A 1 1 0 0 0 8.7070312 4.2929688 A 1 1 0 0 0 8 4 A 1 1 0 0 0 7.2929688 4.2929688 L 6.5 5.0859375 L 4.4140625 3 L 5.3574219 3 A 1 1 0 0 0 6.3574219 2 A 1 1 0 0 0 5.3574219 1 L 2 1 z M 12 9 C 12.806847 9 13.535532 9.3121282 14.072266 9.8222656 A 1 1 0 0 0 14.123047 9.8769531 A 1 1 0 0 0 14.177734 9.9277344 C 14.687872 10.464468 15 11.193153 15 12 C 15 13.668699 13.668699 15 12 15 C 10.331301 15 9 13.668699 9 12 C 9 11.193153 9.3121285 10.464468 9.8222656 9.9277344 A 1 1 0 0 0 9.8769531 9.8769531 A 1 1 0 0 0 9.9277344 9.8222656 C 10.464468 9.3121285 11.193153 9 12 9 z "/>
</svg>
