<svg xmlns="http://www.w3.org/2000/svg" xmlns:svg="http://www.w3.org/2000/svg" width="24" height="24" viewBox="0 0 24 24" fill="currentColor" tags="garbage,delete,remove,bin" categories="files,mail">
  <path d="M 10 1 C 8.3549904 1 7 2.3549904 7 4 L 7 5 L 3 5 A 1 1 0 0 0 2 6 A 1 1 0 0 0 3 7 L 4 7 L 4 20 C 4 21.64501 5.3549904 23 7 23 L 17 23 C 18.64501 23 20 21.64501 20 20 L 20 7 L 21 7 A 1 1 0 0 0 22 6 A 1 1 0 0 0 21 5 L 17 5 L 17 4 C 17 2.3549904 15.64501 1 14 1 L 10 1 z M 10 3 L 14 3 C 14.564129 3 15 3.4358706 15 4 L 15 5 L 9 5 L 9 4 C 9 3.4358706 9.4358706 3 10 3 z M 6 7 L 8 7 L 16 7 L 18 7 L 18 20 C 18 20.564129 17.564129 21 17 21 L 7 21 C 6.4358706 21 6 20.564129 6 20 L 6 7 z M 10 10 A 1 1 0 0 0 9 11 L 9 17 A 1 1 0 0 0 10 18 A 1 1 0 0 0 11 17 L 11 11 A 1 1 0 0 0 10 10 z M 14 10 A 1 1 0 0 0 13 11 L 13 17 A 1 1 0 0 0 14 18 A 1 1 0 0 0 15 17 L 15 11 A 1 1 0 0 0 14 10 z "/>
</svg>
