<?xml version="1.0" encoding="UTF-8" standalone="no"?>
<svg xmlns="http://www.w3.org/2000/svg" xmlns:svg="http://www.w3.org/2000/svg" width="24" height="24" viewBox="0 0 24 24" fill="currentColor" tags="garbage,delete,remove,bin" categories="files,mail">
  <path d="M 10 1 C 9.1666667 1 8.4501036 1.385834 7.9179688 1.9179688 C 7.3858339 2.4501036 7 3.1666667 7 4 L 7 5 L 3 5 A 1 1 0 0 0 2 6 A 1 1 0 0 0 3 7 L 4 7 L 4 20 C 4 20.833333 4.3858339 21.549896 4.9179688 22.082031 C 5.4501036 22.614166 6.1666667 23 7 23 L 17 23 C 17.833333 23 18.549896 22.614166 19.082031 22.082031 C 19.614166 21.549896 20 20.833333 20 20 L 20 7 L 21 7 A 1 1 0 0 0 22 6 A 1 1 0 0 0 21 5 L 17 5 L 17 4 C 17 3.1666667 16.614166 2.4501036 16.082031 1.9179688 C 15.549896 1.3858339 14.833333 1 14 1 L 10 1 z M 10 3 L 14 3 C 14.166667 3 14.450104 3.1141661 14.667969 3.3320312 C 14.885834 3.5498964 15 3.8333333 15 4 L 15 5 L 9 5 L 9 4 C 9 3.8333333 9.114166 3.5498964 9.3320312 3.3320312 C 9.5498963 3.114166 9.8333333 3 10 3 z M 6 7 L 8 7 L 16 7 L 18 7 L 18 20 C 18 20.166667 17.885834 20.450104 17.667969 20.667969 C 17.450104 20.885834 17.166667 21 17 21 L 7 21 C 6.8333333 21 6.5498964 20.885834 6.3320312 20.667969 C 6.1141661 20.450104 6 20.166667 6 20 L 6 7 z "/>
</svg>
