<svg xmlns="http://www.w3.org/2000/svg" xmlns:svg="http://www.w3.org/2000/svg" width="24" height="24" viewBox="0 0 24 24" fill="currentColor" tags="tree,forest,park,nature" categories="nature,sustainability">
  <path d="M 12 2 C 11.027778 2 10.042119 2.3186806 9.2734375 3.0019531 C 8.6837719 3.5261001 8.332357 4.3187569 8.1621094 5.203125 C 6.6354967 5.3338796 5.2840274 6.0433701 4.5898438 7.2539062 C 3.8925017 8.4699503 3.9604939 10.006288 4.6289062 11.394531 C 3.1488679 12.770602 2.687927 14.760149 3.2089844 16.462891 C 3.7982428 18.388503 5.5915919 20.00448 8 20 L 8.0019531 20 L 11 20 L 11 22 A 1 1 0 0 0 12 23 A 1 1 0 0 0 13 22 L 13 20 L 16 20 A 1.0001 1.0001 0 0 0 16.001953 20 C 18.401798 19.9965 20.186974 18.385079 20.775391 16.464844 C 21.295813 14.766501 20.840221 12.783234 19.369141 11.40625 C 20.038825 10.017438 20.107885 8.4803981 19.410156 7.2636719 C 18.716219 6.0536566 17.365592 5.3442552 15.839844 5.2128906 C 15.670934 4.3242199 15.318419 3.5280488 14.726562 3.0019531 C 13.95788 2.3186806 12.972222 2 12 2 z M 12 4 C 12.527778 4 13.042119 4.1813198 13.398438 4.4980469 C 13.754755 4.8147739 14 5.2500005 14 6 L 14 6.0390625 A 1.0001 1.0001 0 0 0 15.144531 7.0292969 C 16.312477 6.8581731 17.193918 7.4194787 17.675781 8.2597656 C 18.157645 9.1000526 18.196567 10.142849 17.458984 11.064453 A 1.0001 1.0001 0 0 0 17.677734 12.517578 C 18.95038 13.381076 19.22505 14.698314 18.863281 15.878906 C 18.501513 17.059498 17.535984 17.997748 15.998047 18 L 12 18 L 8 18 A 1.0001 1.0001 0 0 0 7.9980469 18 C 6.452841 18.0035 5.4855542 17.061575 5.1230469 15.876953 C 4.7605396 14.692331 5.0358309 13.371621 6.3183594 12.509766 A 1.0001 1.0001 0 0 0 6.5410156 11.054688 C 5.8034335 10.133083 5.8423551 9.090287 6.3242188 8.25 C 6.8060824 7.409713 7.6875228 6.8484076 8.8554688 7.0195312 A 1.0001 1.0001 0 0 0 10 6.0292969 L 10 6 C 10 5.2500005 10.245244 4.8147739 10.601562 4.4980469 C 10.95788 4.1813198 11.472222 4 12 4 z "/>
</svg>
