<?xml version="1.0" encoding="UTF-8" standalone="no"?>
<svg xmlns="http://www.w3.org/2000/svg" xmlns:svg="http://www.w3.org/2000/svg" width="24" height="24" viewBox="0 0 24 24" fill="currentColor" tags="tree,forest,park,nature" categories="nature,sustainability">
  <path d="M 12 2 C 11.02778 2 10.042118 2.318682 9.2734375 3.0019531 C 8.6837731 3.5260991 8.3323567 4.3187587 8.1621094 5.203125 C 6.6354997 5.3338793 5.2840261 6.0433725 4.5898438 7.2539062 C 3.8925031 8.4699478 3.9604953 10.006291 4.6289062 11.394531 C 3.1488709 12.7706 2.687928 14.760152 3.2089844 16.462891 C 3.7982416 18.388499 5.5915967 20.00448 8 20 L 8.0019531 20 L 11 20 L 11 22 A 1 1 0 0 0 12 23 A 1 1 0 0 0 13 22 L 13 20 L 16 20 A 1.0001 1.0001 0 0 0 16.001953 20 C 18.401794 19.9965 20.186974 18.385075 20.775391 16.464844 C 21.295812 14.766503 20.840219 12.783232 19.369141 11.40625 C 20.038823 10.01744 20.107884 8.4803957 19.410156 7.2636719 C 18.716221 6.053659 17.365588 5.344255 15.839844 5.2128906 C 15.670935 4.3242217 15.318419 3.5280478 14.726562 3.0019531 C 13.957881 2.318682 12.97222 2 12 2 z M 12 4 C 12.527776 4 13.04212 4.1813204 13.398438 4.4980469 C 13.754754 4.8147733 14 5.250002 14 6 L 14 6.0390625 A 1.0001 1.0001 0 0 0 15.144531 7.0292969 C 16.312475 6.8581734 17.193919 7.4194804 17.675781 8.2597656 C 18.157644 9.1000509 18.196566 10.142851 17.458984 11.064453 A 1.0001 1.0001 0 0 0 17.677734 12.517578 C 18.950378 13.381074 19.225049 14.698316 18.863281 15.878906 C 18.501514 17.059496 17.535981 17.997748 15.998047 18 L 12 18 L 8 18 A 1.0001 1.0001 0 0 0 7.9980469 18 C 6.4528441 18.0035 5.4855534 17.061573 5.1230469 15.876953 C 4.7605372 14.692333 5.035834 13.371619 6.3183594 12.509766 A 1.0001 1.0001 0 0 0 6.5410156 11.054688 C 5.803435 10.133085 5.8423561 9.0902853 6.3242188 8.25 C 6.8060815 7.4097147 7.6875251 6.8484078 8.8554688 7.0195312 A 1.0001 1.0001 0 0 0 10 6.0292969 L 10 6 C 10 5.250002 10.245245 4.8147733 10.601562 4.4980469 C 10.957879 4.1813204 11.472224 4 12 4 z "/>
</svg>
