<?xml version="1.0" encoding="UTF-8" standalone="no"?>
<svg xmlns="http://www.w3.org/2000/svg" xmlns:svg="http://www.w3.org/2000/svg" width="24" height="24" viewBox="0 0 24 24" fill="currentColor" tags="tree,pine,forest,park,nature" categories="nature,sustainability">
  <path d="M 12 2 A 1.0001 1.0001 0 0 0 11.267578 2.3183594 L 7.2890625 6.5957031 C 6.6677869 7.2223722 6.5748807 8.1637599 6.9003906 8.8554688 C 6.9917131 9.0495289 7.1862223 9.1794089 7.3417969 9.3378906 L 5.2851562 11.599609 C 4.6977653 12.198703 4.5856819 13.082805 4.8652344 13.761719 C 4.9589283 13.989261 5.15797 14.160937 5.3359375 14.34375 L 3.2851562 16.599609 C 2.6977652 17.198703 2.5856819 18.082805 2.8652344 18.761719 C 3.1447868 19.440632 3.846618 19.988215 4.6855469 20 A 1.0001 1.0001 0 0 0 4.6992188 20 L 11 20 L 11 22 A 1 1 0 0 0 12 23 A 1 1 0 0 0 13 22 L 13 20 L 19.300781 20 A 1.0001 1.0001 0 0 0 19.314453 20 C 20.153382 19.98822 20.855213 19.440632 21.134766 18.761719 C 21.414317 18.082805 21.302234 17.198703 20.714844 16.599609 L 18.664062 14.34375 C 18.84203 14.160937 19.041072 13.989261 19.134766 13.761719 C 19.414317 13.082805 19.302234 12.198703 18.714844 11.599609 L 16.658203 9.3378906 C 16.813778 9.1794089 17.008287 9.0495289 17.099609 8.8554688 C 17.42512 8.1637599 17.332214 7.2223722 16.710938 6.5957031 L 12.732422 2.3183594 A 1.0001 1.0001 0 0 0 12 2 z M 12 4.46875 L 15.267578 7.9804688 A 1.0001 1.0001 0 0 0 15.289062 8.0039062 A 1.0001 1.0001 0 0 0 15.199219 8 L 15 8 A 1.0001 1.0001 0 0 0 14.259766 9.671875 L 17.259766 12.972656 A 1.0001 1.0001 0 0 0 17.285156 13 L 17 13 A 1.0001 1.0001 0 0 0 16.259766 14.671875 L 19.259766 17.972656 A 1.0001 1.0001 0 0 0 19.285156 18 L 12 18 L 4.7148438 18 A 1.0001 1.0001 0 0 0 4.7402344 17.972656 L 7.7402344 14.671875 A 1.0001 1.0001 0 0 0 7 13 L 6.7148438 13 A 1.0001 1.0001 0 0 0 6.7402344 12.972656 L 9.7402344 9.671875 A 1.0001 1.0001 0 0 0 9 8 L 8.8007812 8 A 1.0001 1.0001 0 0 0 8.7109375 8.0039062 A 1.0001 1.0001 0 0 0 8.7324219 7.9804688 L 12 4.46875 z "/>
</svg>
