<svg xmlns="http://www.w3.org/2000/svg" xmlns:svg="http://www.w3.org/2000/svg" width="24" height="24" viewBox="0 0 24 24" fill="currentColor" tags="tree,forest,park,nature" categories="nature,sustainability">
  <path d="M 13 2 A 1.0001 1.0001 0 0 0 12.269531 2.3183594 L 10.869141 3.8183594 A 1 1 0 0 0 10.917969 5.2304688 A 1 1 0 0 0 12.332031 5.1816406 L 12.998047 4.4667969 L 16.267578 7.9804688 A 1.0001 1.0001 0 0 0 16.289062 8.0039062 A 1.0001 1.0001 0 0 0 16.199219 8 L 16 8 A 1.0001 1.0001 0 0 0 15.259766 9.671875 L 18.259766 12.972656 A 1.0001 1.0001 0 0 0 18.285156 13 L 18 13 A 1.0001 1.0001 0 0 0 17.259766 14.671875 L 20.259766 17.972656 A 1.0001 1.0001 0 0 0 20.285156 18 L 13 18 L 12 18 A 1 1 0 0 0 11 19 A 1 1 0 0 0 12 20 L 12 22 A 1 1 0 0 0 13 23 A 1 1 0 0 0 14 22 L 14 20 L 20.300781 20 A 1.0001 1.0001 0 0 0 20.314453 20 C 21.153384 19.98822 21.855213 19.440633 22.134766 18.761719 C 22.414319 18.082804 22.302236 17.198704 21.714844 16.599609 L 19.664062 14.34375 C 19.84203 14.160937 20.041072 13.989261 20.134766 13.761719 C 20.414319 13.082804 20.302236 12.198704 19.714844 11.599609 L 17.658203 9.3378906 C 17.813778 9.1794086 18.008287 9.0495292 18.099609 8.8554688 C 18.42512 8.1637585 18.332214 7.2223735 17.710938 6.5957031 L 13.732422 2.3183594 A 1.0001 1.0001 0 0 0 13 2 z M 7 6 C 6.0277779 6 5.0421194 6.3186806 4.2734375 7.0019531 C 3.5925356 7.607199 3.1793592 8.5419741 3.0800781 9.609375 C 1.5594938 10.502053 0.87297994 12.172658 1.1328125 13.679688 C 1.4252569 15.375864 2.8739759 16.947736 4.9746094 17 A 1.0001 1.0001 0 0 0 5 17 L 6 17 L 6 22 A 1 1 0 0 0 7 23 A 1 1 0 0 0 8 22 L 8 17 L 8.8925781 17 C 11.024575 17.016488 12.529414 15.454992 12.853516 13.746094 C 13.141865 12.225708 12.464424 10.518827 10.921875 9.6113281 C 10.823078 8.5428892 10.407971 7.6076497 9.7265625 7.0019531 C 8.9578806 6.3186806 7.9722221 6 7 6 z M 7 8 C 7.5277779 8 8.0421194 8.1813198 8.3984375 8.4980469 C 8.7547556 8.8147739 9 9.2500005 9 10 L 9 10.199219 A 1.0001 1.0001 0 0 0 9.640625 11.132812 C 10.766989 11.565966 11.058973 12.475095 10.888672 13.373047 C 10.718371 14.270999 10.114947 15.009333 8.9082031 15 A 1.0001 1.0001 0 0 0 8.9003906 15 L 5.0253906 15 C 3.8418475 14.970553 3.2568262 14.229045 3.1035156 13.339844 C 2.9502051 12.450643 3.2520759 11.556894 4.3574219 11.132812 A 1.0001 1.0001 0 0 0 5 10.199219 L 5 10 C 5 9.2500005 5.2452444 8.8147739 5.6015625 8.4980469 C 5.9578806 8.1813198 6.4722221 8 7 8 z "/>
</svg>
