<?xml version="1.0" encoding="UTF-8" standalone="no"?>
<svg xmlns="http://www.w3.org/2000/svg" xmlns:svg="http://www.w3.org/2000/svg" width="24" height="24" viewBox="0 0 24 24" fill="currentColor" tags="vacation,leisure,island" categories="nature,sustainability">
  <path d="M 7.5 2 C 3.9687719 2 1 4.6457971 1 8 A 1.0001 1.0001 0 0 0 2 9 L 4 9 A 1.0001 1.0001 0 0 0 4.7070312 8.7070312 L 5 8.4140625 L 5.2929688 8.7070312 A 1.0001 1.0001 0 0 0 5.3964844 8.796875 C 5.324302 8.8632474 5.2535348 8.932012 5.1835938 9.0019531 C 2.68607 11.499477 2.4657238 15.467261 4.8320312 17.845703 A 1.0001 1.0001 0 0 0 6.2480469 17.845703 L 10.488281 13.597656 L 11.1875 12.896484 L 11.896484 12.1875 L 12.869141 11.214844 C 13.079099 12.010545 13.28781 12.898636 13.451172 13.855469 C 13.836813 16.114223 13.861215 18.659543 13.177734 21 L 11.371094 21 C 11.967426 19.305125 12.417005 17.487369 11.980469 15.304688 A 1 1 0 0 0 10.804688 14.519531 A 1 1 0 0 0 10.019531 15.695312 C 10.465725 17.926281 9.8887325 19.659211 9.0761719 21.617188 A 1.0001 1.0001 0 0 0 10 23 L 14 23 A 1.0001 1.0001 0 0 0 14.939453 22.341797 C 16.028423 19.34713 15.877801 16.178516 15.423828 13.519531 C 15.334114 12.994064 15.231515 12.48512 15.123047 12 L 17 12 A 1.0001 1.0001 0 0 0 17.707031 11.707031 L 18 11.414062 L 18.292969 11.707031 A 1.0001 1.0001 0 0 0 19 12 L 22 12 A 1.0001 1.0001 0 0 0 23 11 C 23 7.6470608 20.03338 5.0019926 16.503906 5 C 15.456952 4.993395 14.429084 5.2272703 13.496094 5.6777344 C 12.503622 3.5018232 10.161065 2 7.5 2 z M 7.5 4 C 9.7827595 4 11.58592 5.4708807 11.9375 7.3339844 C 11.317744 7.1129278 10.662264 7.0070732 10 7 L 6.4140625 7 L 5.7070312 6.2929688 A 1.0001 1.0001 0 0 0 4.2929688 6.2929688 L 3.5859375 7 L 3.2226562 7 C 3.7236177 5.3093705 5.3651807 4 7.5 4 z M 16.492188 7 A 1.0001 1.0001 0 0 0 16.5 7 C 18.634819 7 20.276382 8.3093705 20.777344 10 L 19.414062 10 L 18.707031 9.2929688 A 1.0001 1.0001 0 0 0 17.292969 9.2929688 L 16.585938 10 L 14.617188 10 C 14.35569 9.0620292 14.119046 8.3187409 13.998047 7.8652344 C 13.996563 7.8031249 13.993739 7.7412749 13.990234 7.6796875 C 14.743702 7.2305717 15.608809 6.9939217 16.492188 7 z M 10.109375 8.9941406 C 10.688742 9.0393846 11.233204 9.2383856 11.740234 9.515625 L 10.482422 10.773438 L 9.7734375 11.482422 L 9.0722656 12.183594 L 5.6972656 15.566406 C 4.8543916 14.011546 5.0881283 11.927497 6.5976562 10.417969 C 7.4532413 9.5623835 8.5038602 9.0926879 9.5351562 9 L 10 9 A 1 1 0 0 0 10.109375 8.9941406 z "/>
</svg>
