<?xml version="1.0" encoding="UTF-8" standalone="no"?>
<svg xmlns="http://www.w3.org/2000/svg" xmlns:svg="http://www.w3.org/2000/svg" width="24" height="24" viewBox="0 0 24 24" fill="currentColor" tags="logo,brand" categories="account,brands,development">
  <path d="M 5 2 C 3.3552972 2 2 3.3552972 2 5 L 2 19 C 2 20.644703 3.3552972 22 5 22 L 19 22 C 20.644703 22 22 20.644703 22 19 L 22 5 C 22 3.3552972 20.644703 2 19 2 L 5 2 z M 5 4 L 19 4 C 19.571297 4 20 4.4287028 20 5 L 20 19 C 20 19.571297 19.571297 20 19 20 L 5 20 C 4.4287028 20 4 19.571297 4 19 L 4 5 C 4 4.4287028 4.4287028 4 5 4 z M 7 6 A 1.0001 1.0001 0 0 0 6 7 L 6 16 A 1.0001 1.0001 0 0 0 7 17 L 10 17 A 1.0001 1.0001 0 0 0 11 16 L 11 7 A 1.0001 1.0001 0 0 0 10 6 L 7 6 z M 14 6 A 1.0001 1.0001 0 0 0 13 7 L 13 12 A 1.0001 1.0001 0 0 0 14 13 L 17 13 A 1.0001 1.0001 0 0 0 18 12 L 18 7 A 1.0001 1.0001 0 0 0 17 6 L 14 6 z M 8 8 L 9 8 L 9 15 L 8 15 L 8 8 z M 15 8 L 16 8 L 16 11 L 15 11 L 15 8 z "/>
</svg>
