<?xml version="1.0" encoding="UTF-8" standalone="no"?>
<svg xmlns="http://www.w3.org/2000/svg" xmlns:svg="http://www.w3.org/2000/svg" width="24" height="24" viewBox="0 0 24 24" fill="currentColor" tags="arrows,estimated,indeterminate,data fluctuation,uncertain,forecast,variable,prediction,dynamic,volatile" categories="charts,arrows">
  <path d="M 16 2 A 1 1 0 0 0 15 3 A 1 1 0 0 0 16 4 L 18.585938 4 L 12 10.585938 L 8.7070312 7.2929688 A 1.0001 1.0001 0 0 0 7.2929688 7.2929688 L 1.2929688 13.292969 A 1 1 0 0 0 1.2929688 14.707031 A 1 1 0 0 0 2.7070312 14.707031 L 8 9.4140625 L 11.292969 12.707031 A 1.0001 1.0001 0 0 0 12.707031 12.707031 L 20 5.4140625 L 20 8 A 1 1 0 0 0 21 9 A 1 1 0 0 0 22 8 L 22 3 A 1.0001 1.0001 0 0 0 21.998047 2.984375 A 1 1 0 0 0 21.970703 2.7636719 A 1.0001 1.0001 0 0 0 21.955078 2.7128906 A 1 1 0 0 0 21.869141 2.5078125 A 1.0001 1.0001 0 0 0 21.855469 2.4863281 A 1 1 0 0 0 21.707031 2.2929688 A 1.0001 1.0001 0 0 0 21.419922 2.1015625 A 1 1 0 0 0 21.341797 2.0683594 A 1.0001 1.0001 0 0 0 21 2 L 16 2 z M 14.828125 13.828125 A 1 1 0 0 0 14.121094 14.121094 A 1 1 0 0 0 14.121094 15.535156 L 18.585938 20 L 16 20 A 1 1 0 0 0 15 21 A 1 1 0 0 0 16 22 L 21 22 A 1.0001 1.0001 0 0 0 21.707031 21.707031 A 1 1 0 0 0 21.865234 21.5 A 1.0001 1.0001 0 0 0 21.869141 21.490234 A 1 1 0 0 0 21.960938 21.271484 A 1.0001 1.0001 0 0 0 21.96875 21.242188 A 1 1 0 0 0 22 21 L 22 16 A 1 1 0 0 0 21 15 A 1 1 0 0 0 20 16 L 20 18.585938 L 15.535156 14.121094 A 1 1 0 0 0 14.828125 13.828125 z "/>
</svg>
