<?xml version="1.0" encoding="UTF-8" standalone="no"?>
<svg xmlns="http://www.w3.org/2000/svg" xmlns:svg="http://www.w3.org/2000/svg" width="24" height="24" viewBox="0 0 24 24" fill="currentColor" tags="statistics" categories="charts,arrows">
  <path d="M 2 6 A 1 1 0 0 0 1.2929688 6.2929688 A 1 1 0 0 0 1.2929688 7.7070312 L 7.7929688 14.207031 A 1.0001 1.0001 0 0 0 9.2070312 14.207031 L 13.5 9.9140625 L 19.585938 16 L 16 16 A 1 1 0 0 0 15 17 A 1 1 0 0 0 16 18 L 22 18 A 1 1 0 0 0 22.130859 17.992188 A 1.0001 1.0001 0 0 0 22.382812 17.923828 A 1 1 0 0 0 22.707031 17.707031 A 1 1 0 0 0 22.923828 17.382812 A 1.0001 1.0001 0 0 0 22.992188 17.130859 A 1 1 0 0 0 23 17 L 23 11 A 1 1 0 0 0 22 10 A 1 1 0 0 0 21 11 L 21 14.585938 L 14.207031 7.7929688 A 1.0001 1.0001 0 0 0 12.792969 7.7929688 L 8.5 12.085938 L 2.7070312 6.2929688 A 1 1 0 0 0 2 6 z "/>
</svg>
