<?xml version="1.0" encoding="UTF-8" standalone="no"?>
<svg xmlns="http://www.w3.org/2000/svg" xmlns:svg="http://www.w3.org/2000/svg" width="24" height="24" viewBox="0 0 24 24" fill="currentColor" tags="statistics" categories="charts,arrows">
  <path d="M 16 6 A 1 1 0 0 0 15 7 A 1 1 0 0 0 16 8 L 19.585938 8 L 13.5 14.085938 L 9.2070312 9.7929688 A 1.0001 1.0001 0 0 0 7.7929688 9.7929688 L 1.2929688 16.292969 A 1 1 0 0 0 1.2929688 17.707031 A 1 1 0 0 0 2.7070312 17.707031 L 8.5 11.914062 L 12.792969 16.207031 A 1.0001 1.0001 0 0 0 14.207031 16.207031 L 21 9.4140625 L 21 13 A 1 1 0 0 0 22 14 A 1 1 0 0 0 23 13 L 23 7 A 1.0001 1.0001 0 0 0 22.992188 6.8691406 A 1.0001 1.0001 0 0 0 22.923828 6.6171875 A 1.0001 1.0001 0 0 0 22.707031 6.2929688 A 1 1 0 0 0 22.382812 6.0761719 A 1.0001 1.0001 0 0 0 22.130859 6.0078125 A 1.0001 1.0001 0 0 0 22 6 L 16 6 z "/>
</svg>
