<svg xmlns="http://www.w3.org/2000/svg" xmlns:svg="http://www.w3.org/2000/svg" width="24" height="24" viewBox="0 0 24 24" fill="currentColor" tags="warning,alert,danger,exclamation mark,linter" categories="notifications,shapes,development">
  <path d="M 11.990234 2.0195312 C 10.966382 2.0195312 9.9431551 2.5156299 9.3808594 3.5078125 L 9.3808594 3.5039062 L 1.3808594 17.503906 L 1.3847656 17.5 C 0.2484982 19.46786 1.7375067 22.020447 4.0097656 22 L 20 22 A 1.0001 1.0001 0 0 0 20.001953 22 C 22.259783 21.9977 23.721514 19.462332 22.597656 17.505859 L 22.597656 17.503906 L 22.595703 17.5 L 14.599609 3.5078125 C 14.037314 2.5156299 13.014086 2.0195313 11.990234 2.0195312 z M 11.990234 3.953125 C 12.323314 3.953125 12.655535 4.132508 12.859375 4.4921875 A 1.0001 1.0001 0 0 0 12.861328 4.4960938 L 20.861328 18.496094 A 1 1 0 0 0 20.863281 18.496094 A 1 1 0 0 0 20.863281 18.5 C 21.271954 19.20784 20.815391 19.999162 19.998047 20 L 4 20 A 1.0001 1.0001 0 0 0 3.9902344 20 C 3.1673164 20.0074 2.7037254 19.212677 3.1152344 18.5 A 1.0001 1.0001 0 0 0 3.1191406 18.496094 L 11.119141 4.4960938 A 1.0001 1.0001 0 0 0 11.119141 4.4921875 C 11.32298 4.1325118 11.657154 3.953125 11.990234 3.953125 z M 12 8 A 1 1 0 0 0 11 9 L 11 13 A 1 1 0 0 0 12 14 A 1 1 0 0 0 13 13 L 13 9 A 1 1 0 0 0 12 8 z M 12 16 A 1 1 0 0 0 11 17 A 1 1 0 0 0 12 18 L 12.009766 18 A 1 1 0 0 0 13.009766 17 A 1 1 0 0 0 12.009766 16 L 12 16 z "/>
</svg>
