<?xml version="1.0" encoding="UTF-8" standalone="no"?>
<svg xmlns="http://www.w3.org/2000/svg" xmlns:svg="http://www.w3.org/2000/svg" width="24" height="24" viewBox="0 0 24 24" fill="currentColor" tags="volume,controls,controller,tv remote,geometry,delta,ramp,slope,incline,increase" categories="shapes,math">
  <path d="M 21.214844 2.9179688 C 21.073204 2.9221966 20.933709 2.9441974 20.796875 2.9804688 C 20.431984 3.0771917 20.087067 3.2749458 19.785156 3.5097656 A 1.0001 1.0001 0 0 0 19.771484 3.5234375 L 1.9863281 17.910156 C 1.6925128 18.138679 1.4493242 18.379804 1.265625 18.693359 C 1.0819258 19.006915 0.95150504 19.457435 1.0957031 19.914062 C 1.2399012 20.37069 1.6205254 20.673723 1.9589844 20.816406 C 2.2974433 20.95909 2.6340909 21 3 21 L 20 21 C 21.64501 21 23 19.64501 23 18 L 23 5 C 23 4.2378788 22.712928 3.3965858 21.935547 3.0585938 C 21.692615 2.9529712 21.45091 2.9109224 21.214844 2.9179688 z M 21 5.1015625 L 21 18 C 21 18.564129 20.564129 19 20 19 L 3.8183594 19 L 21 5.1015625 z "/>
</svg>
