<?xml version="1.0" encoding="UTF-8" standalone="no"?>
<svg xmlns="http://www.w3.org/2000/svg" xmlns:svg="http://www.w3.org/2000/svg" width="24" height="24" viewBox="0 0 24 24" fill="currentColor" tags="equilateral,delta,shape,pyramid,hierarchy,dashed" categories="shapes">
  <path d="M 12.011719 2 C 10.910387 1.9960946 9.7680103 2.6269104 9.2558594 3.7890625 A 1 1 0 0 0 9.7675781 5.1074219 A 1 1 0 0 0 11.085938 4.5957031 C 11.277772 4.1603989 11.621394 3.9986436 12.003906 4 C 12.386419 4.00136 12.729226 4.1668618 12.917969 4.6035156 A 1 1 0 0 0 14.232422 5.1230469 A 1 1 0 0 0 14.753906 3.8085938 C 14.25001 2.6428387 13.11305 2.0039054 12.011719 2 z M 15.873047 6.7421875 A 1 1 0 0 0 15.373047 6.8769531 A 1 1 0 0 0 15.007812 8.2421875 L 16.007812 9.9746094 A 1 1 0 0 0 17.373047 10.341797 A 1 1 0 0 0 17.740234 8.9746094 L 16.740234 7.2421875 A 1 1 0 0 0 15.873047 6.7421875 z M 8.1015625 6.7441406 A 1 1 0 0 0 7.84375 6.7773438 A 1 1 0 0 0 7.2363281 7.2421875 L 6.2363281 8.9746094 A 1 1 0 0 0 6.6015625 10.341797 A 1 1 0 0 0 7.96875 9.9746094 L 8.96875 8.2421875 A 1 1 0 0 0 8.6015625 6.8769531 A 1 1 0 0 0 8.1015625 6.7441406 z M 5.1367188 11.951172 A 1 1 0 0 0 4.8769531 11.986328 A 1 1 0 0 0 4.2695312 12.451172 L 3.2695312 14.183594 A 1 1 0 0 0 3.6367188 15.550781 A 1 1 0 0 0 5.0019531 15.183594 L 6.0019531 13.451172 A 1 1 0 0 0 5.6367188 12.085938 A 1 1 0 0 0 5.1367188 11.951172 z M 18.849609 11.953125 A 1 1 0 0 0 18.349609 12.085938 A 1 1 0 0 0 17.982422 13.451172 L 18.982422 15.183594 A 1 1 0 0 0 20.349609 15.550781 A 1 1 0 0 0 20.714844 14.183594 L 19.714844 12.451172 A 1 1 0 0 0 19.107422 11.986328 A 1 1 0 0 0 18.849609 11.953125 z M 2.2265625 17.162109 A 1 1 0 0 0 1.8398438 17.222656 A 1 1 0 0 0 1.2773438 17.742188 C 0.36877375 19.707846 1.869824 22.025502 4.0351562 22 A 1 1 0 0 0 5.0234375 20.988281 A 1 1 0 0 0 4.0117188 20 C 3.2366733 20.009128 2.766589 19.283654 3.0917969 18.580078 A 1 1 0 0 0 2.6054688 17.253906 A 1 1 0 0 0 2.2265625 17.162109 z M 21.791016 17.181641 A 1 1 0 0 0 21.412109 17.269531 A 1 1 0 0 0 20.912109 18.591797 C 21.22847 19.291423 20.763907 20.008763 19.996094 20.003906 A 1 1 0 0 0 18.988281 20.998047 A 1 1 0 0 0 19.982422 22.003906 C 22.131266 22.017496 23.61976 19.72559 22.734375 17.767578 A 1 1 0 0 0 21.791016 17.181641 z M 8 20 A 1 1 0 0 0 7 21 A 1 1 0 0 0 8 22 L 10 22 A 1 1 0 0 0 11 21 A 1 1 0 0 0 10 20 L 8 20 z M 14 20 A 1 1 0 0 0 13 21 A 1 1 0 0 0 14 22 L 16 22 A 1 1 0 0 0 17 21 A 1 1 0 0 0 16 20 L 14 20 z "/>
</svg>
