<?xml version="1.0" encoding="UTF-8" standalone="no"?>
<svg xmlns="http://www.w3.org/2000/svg" xmlns:svg="http://www.w3.org/2000/svg" width="24" height="24" viewBox="0 0 24 24" fill="currentColor" tags="volume,controls,controller,tv remote,geometry,delta,ramp,slope,incline,increase" categories="shapes,maths">
  <path d="M 21.357422 2.9199219 C 21.166952 2.9094247 20.97932 2.932107 20.796875 2.9804688 C 20.431984 3.0771917 20.087067 3.2749463 19.785156 3.5097656 A 1.0001 1.0001 0 0 0 19.771484 3.5234375 L 1.9863281 17.910156 C 1.6925134 18.138679 1.4493238 18.379805 1.265625 18.693359 C 1.0819262 19.006915 0.95150534 19.457437 1.0957031 19.914062 C 1.239901 20.370689 1.620526 20.673723 1.9589844 20.816406 C 2.2974426 20.95909 2.6340917 21 3 21 L 20 21 C 21.645006 21 23 19.645006 23 18 L 23 5 C 23 4.2378803 22.712927 3.396585 21.935547 3.0585938 C 21.741202 2.9740959 21.547892 2.9304191 21.357422 2.9199219 z M 21 5.1015625 L 21 18 C 21 18.564128 20.564128 19 20 19 L 3.8183594 19 L 21 5.1015625 z "/>
</svg>
