<svg xmlns="http://www.w3.org/2000/svg" xmlns:svg="http://www.w3.org/2000/svg" width="24" height="24" viewBox="0 0 24 24" fill="currentColor" tags="equilateral,delta,shape,pyramid,hierarchy" categories="shapes">
  <path d="M 12 2.0351562 C 10.985535 2.0351562 9.9703673 2.5222032 9.4042969 3.4980469 A 1.0001 1.0001 0 0 0 9.4023438 3.5039062 L 1.4023438 17.503906 C 0.27659382 19.460618 1.7395395 21.997685 3.9980469 22 A 1.0001 1.0001 0 0 0 4 22 L 20 22 A 1.0001 1.0001 0 0 0 20.001953 22 C 22.260461 21.9977 23.723406 19.460618 22.597656 17.503906 L 22.595703 17.5 L 14.597656 3.5039062 A 1.0001 1.0001 0 0 0 14.595703 3.4980469 C 14.02968 2.5222038 13.014465 2.0351562 12 2.0351562 z M 12 3.9726562 C 12.330184 3.9726562 12.660602 4.1491884 12.865234 4.5019531 L 20.861328 18.496094 A 1.0001 1.0001 0 0 0 20.863281 18.5 C 21.271561 19.207248 20.816043 19.997828 20 20 L 4.0019531 20 L 4 20 C 3.1839575 19.997828 2.7283918 19.207242 3.1367188 18.5 A 1.0001 1.0001 0 0 0 3.1386719 18.496094 L 11.134766 4.5019531 C 11.339398 4.1491884 11.669816 3.9726562 12 3.9726562 z "/>
</svg>
