<svg xmlns="http://www.w3.org/2000/svg" xmlns:svg="http://www.w3.org/2000/svg" width="24" height="24" viewBox="0 0 24 24" fill="currentColor" tags="delivery,van,shipping,haulage,lorry,electric" categories="transportation">
  <path d="M 3.9257812 2.0019531 A 1 1 0 0 0 3.2421875 2.3476562 L 1.4277344 4.4570312 C 0.99103893 4.8945225 0.89334606 5.5713066 1.0996094 6.078125 C 1.3129203 6.6022603 1.887113 7.0304856 2.53125 7.0097656 L 3.5039062 7.0097656 L 2.2675781 8.3398438 A 1 1 0 0 0 2.3183594 9.7519531 A 1 1 0 0 0 3.7324219 9.7011719 L 5.6660156 7.6230469 C 6.1796791 7.2074949 6.3364531 6.4480302 6.1191406 5.9140625 C 5.9000102 5.3756277 5.2477045 4.9395956 4.5839844 5.0097656 L 3.5898438 5.0097656 L 4.7578125 3.6523438 A 1 1 0 0 0 4.6523438 2.2421875 A 1 1 0 0 0 3.9257812 2.0019531 z M 9 4 A 1 1 0 0 0 8 5 A 1 1 0 0 0 9 6 L 12 6 C 12.564129 6 13 6.4358706 13 7 L 13 18 L 9.8261719 18 C 9.4103145 16.839913 8.2951422 16 7 16 C 5.7048578 16 4.5896855 16.839913 4.1738281 18 L 3 18 L 3 13 A 1 1 0 0 0 2 12 A 1 1 0 0 0 1 13 L 1 18 C 1 19.092725 1.9072751 20 3 20 L 4.1738281 20 C 4.5896855 21.160087 5.7048578 22 7 22 C 8.2951422 22 9.4103145 21.160087 9.8261719 20 L 14.173828 20 C 14.589685 21.160087 15.704857 22 17 22 C 18.295143 22 19.410315 21.160087 19.826172 20 L 21 20 C 22.092725 20 23 19.092725 23 18 L 23 14.349609 A 1.0001 1.0001 0 0 0 23 14.34375 C 22.9974 13.893427 22.842009 13.456958 22.560547 13.105469 L 22.560547 13.103516 L 19.083984 8.7597656 L 19.082031 8.7597656 C 18.705226 8.2837564 18.132574 8.0027993 17.525391 8 A 1.0001 1.0001 0 0 0 17.519531 8 L 15 8 L 15 7 C 15 5.3549904 13.64501 4 12 4 L 9 4 z M 15 10 L 17.515625 10 A 1.0001 1.0001 0 0 0 17.519531 10.003906 L 21 14.355469 L 21 18 L 19.826172 18 C 19.410315 16.839913 18.295143 16 17 16 C 16.234871 16 15.532484 16.292374 15 16.771484 L 15 10 z M 7 18 C 7.5641294 18 8 18.435871 8 19 C 8 19.564129 7.5641294 20 7 20 C 6.4358728 20 6.0000033 19.564126 6 19 C 6 18.435871 6.4358706 18 7 18 z M 17 18 C 17.564129 18 18 18.435871 18 19 C 18 19.564129 17.564129 20 17 20 C 16.435873 20 16.000003 19.564126 16 19 C 16 18.435871 16.435871 18 17 18 z "/>
</svg>
