<svg xmlns="http://www.w3.org/2000/svg" xmlns:svg="http://www.w3.org/2000/svg" width="24" height="24" viewBox="0 0 24 24" fill="currentColor" tags="delivery,van,shipping,haulage,lorry" categories="transportation">
  <path d="M 4 3 C 2.3549904 3 1 4.3549904 1 6 L 1 17 C 1 18.092725 1.9072751 19 3 19 L 4.1738281 19 C 4.5896855 20.160087 5.7048578 21 7 21 C 8.2951422 21 9.4103145 20.160087 9.8261719 19 L 14.173828 19 C 14.589685 20.160087 15.704857 21 17 21 C 18.295143 21 19.410315 20.160087 19.826172 19 L 21 19 C 22.092725 19 23 18.092725 23 17 L 23 13.349609 A 1.0001 1.0001 0 0 0 23 13.347656 C 22.999193 12.894593 22.843708 12.455192 22.560547 12.101562 L 22.560547 12.099609 L 19.080078 7.7519531 C 18.701636 7.2789342 18.127323 7.0008634 17.521484 7 A 1.0001 1.0001 0 0 0 17.519531 7 L 15 7 L 15 6 C 15 4.3549904 13.64501 3 12 3 L 4 3 z M 4 5 L 12 5 C 12.564129 5 13 5.4358706 13 6 L 13 17 L 9.8261719 17 C 9.4103145 15.839913 8.2951422 15 7 15 C 5.7048578 15 4.5896855 15.839913 4.1738281 17 L 3 17 L 3 6 C 3 5.4358706 3.4358706 5 4 5 z M 15 9 L 17.519531 9 L 21 13.351562 L 21 17 L 19.826172 17 C 19.410315 15.839913 18.295143 15 17 15 C 16.234871 15 15.532484 15.292374 15 15.771484 L 15 9 z M 7 17 C 7.5641272 17 7.9999967 17.435874 8 18 C 8 18.564129 7.5641294 19 7 19 C 6.4358706 19 6 18.564129 6 18 C 6 17.435871 6.4358706 17 7 17 z M 17 17 C 17.564127 17 17.999997 17.435874 18 18 C 18 18.564129 17.564129 19 17 19 C 16.435871 19 16 18.564129 16 18 C 16 17.435871 16.435871 17 17 17 z "/>
</svg>
