<svg xmlns="http://www.w3.org/2000/svg" xmlns:svg="http://www.w3.org/2000/svg" width="24" height="24" viewBox="0 0 24 24" fill="currentColor" tags="currency,money,payment" categories="finance">
  <path d="M 9 2 A 1 1 0 0 0 8 3 L 8 6.3828125 L 4.5527344 8.1054688 A 1 1 0 0 0 4.1054688 9.4472656 A 1 1 0 0 0 5.4472656 9.8945312 L 8 8.6171875 L 8 10.882812 L 4.5527344 12.605469 A 1 1 0 0 0 4.1054688 13.947266 A 1 1 0 0 0 5.4472656 14.394531 L 8 13.117188 L 8 21 A 1.0001 1.0001 0 0 0 9 22 C 14.511003 22 19 17.511003 19 12 A 1 1 0 0 0 18 11 A 1 1 0 0 0 17 12 C 17 16.075035 13.932174 19.288438 10 19.798828 L 10 12.117188 L 15.447266 9.3945312 A 1 1 0 0 0 15.894531 8.0527344 A 1 1 0 0 0 15.316406 7.5507812 A 1 1 0 0 0 14.552734 7.6054688 L 10 9.8828125 L 10 7.6171875 L 15.447266 4.8945312 A 1 1 0 0 0 15.894531 3.5527344 A 1 1 0 0 0 15.316406 3.0507812 A 1 1 0 0 0 14.552734 3.1054688 L 10 5.3828125 L 10 3 A 1 1 0 0 0 9 2 z "/>
</svg>
