<?xml version="1.0" encoding="UTF-8" standalone="no"?>
<svg xmlns="http://www.w3.org/2000/svg" xmlns:svg="http://www.w3.org/2000/svg" width="24" height="24" viewBox="0 0 24 24" fill="currentColor" tags="record player,gramophone,stereo,phonograph,vinyl,lp,disc,platter,cut,music,analog,retro,dj deck,disc jockey,scratch,spinning" categories="multimedia,home">
  <path d="M 4 3 C 2.3552972 3 1 4.3552972 1 6 L 1 18 C 1 19.644703 2.3552972 21 4 21 L 20 21 C 21.644703 21 23 19.644703 23 18 L 23 6 C 23 4.3552972 21.644703 3 20 3 L 4 3 z M 4 5 L 20 5 C 20.571297 5 21 5.4287028 21 6 L 21 18 C 21 18.571297 20.571297 19 20 19 L 4 19 C 3.4287028 19 3 18.571297 3 18 L 3 6 C 3 5.4287028 3.4287028 5 4 5 z M 10 7 C 7.2504209 7 5 9.2504209 5 12 C 5 14.749579 7.2504209 17 10 17 C 12.749579 17 15 14.749579 15 12 C 15 9.2504209 12.749579 7 10 7 z M 18 7 A 1 1 0 0 0 17 8 L 17 12 C 17.000478 13.228665 16.678307 14.435669 16.064453 15.5 A 1 1 0 0 0 16.429688 16.867188 A 1 1 0 0 0 17.796875 16.5 C 18.586058 15.131675 19.000615 13.579595 19 12 L 19 8 A 1 1 0 0 0 18 7 z M 10 9 C 11.668699 9 13 10.331301 13 12 C 13 13.668699 11.668699 15 10 15 C 8.3313011 15 7 13.668699 7 12 C 7 10.331301 8.3313011 9 10 9 z M 10 11.009766 A 1 1 0 0 0 9 12.009766 A 1 1 0 0 0 10 13.009766 L 10.009766 13.009766 A 1 1 0 0 0 11.009766 12.009766 A 1 1 0 0 0 10.009766 11.009766 L 10 11.009766 z "/>
</svg>
