<?xml version="1.0" encoding="UTF-8" standalone="no"?>
<svg xmlns="http://www.w3.org/2000/svg" xmlns:svg="http://www.w3.org/2000/svg" width="24" height="24" viewBox="0 0 24 24" fill="currentColor" tags="animal,pet,tortoise,slow,speed" categories="animals">
  <path d="M 10 5 C 7.8315443 5 5.8375823 5.7722256 4.28125 7.0566406 A 1 1 0 0 0 4.078125 7.2304688 C 2.2244426 8.8548325 1.0462204 11.228336 1.0078125 13.869141 C 1.0071711 13.913243 1 13.95575 1 14 L 1 17 C 1 18.092725 1.9072751 19 3 19 L 5 19 C 6.0927249 19 7 18.092725 7 17 L 7 15 L 13 15 L 13 17 C 13 18.092725 13.907275 19 15 19 L 17 19 C 18.092725 19 19 18.092725 19 17 L 19 15 L 20 15 C 20.916666 15 21.731441 14.620244 22.248047 14.039062 C 22.764653 13.45788 23 12.722222 23 12 C 23 11.277778 22.764653 10.542119 22.248047 9.9609375 C 21.731441 9.3797556 20.916666 9 20 9 L 17.478516 9 C 17.038659 8.344717 16.513694 7.7490738 15.921875 7.2304688 A 1 1 0 0 0 15.71875 7.0566406 C 14.162418 5.7722256 12.168456 5 10 5 z M 10 7 C 11.236759 7 12.396084 7.3166206 13.402344 7.875 L 11.701172 9 L 8.2988281 9 L 6.5976562 7.875 C 7.603916 7.3166206 8.7632413 7 10 7 z M 4.9257812 9.1679688 L 6.7089844 10.345703 L 5.3828125 13 L 3.0703125 13 C 3.2799704 11.522165 3.9471659 10.195541 4.9257812 9.1679688 z M 15.074219 9.1679688 C 15.434848 9.5466389 15.75263 9.965504 16.021484 10.417969 A 1 1 0 0 0 16.113281 10.576172 C 16.524555 11.311431 16.806202 12.129573 16.929688 13 L 14.617188 13 L 13.291016 10.345703 L 15.074219 9.1679688 z M 8.6171875 11 L 11.382812 11 L 12.382812 13 L 7.6171875 13 L 8.6171875 11 z M 18.484375 11 L 20 11 C 20.416666 11 20.601893 11.120244 20.751953 11.289062 C 20.902014 11.45788 21 11.722222 21 12 C 21 12.277778 20.90201 12.542119 20.751953 12.710938 C 20.601893 12.879755 20.416666 13 20 13 L 18.945312 13 C 18.868176 12.306851 18.710617 11.637086 18.484375 11 z M 3 15 L 5 15 L 5 17 L 3 17 L 3 15 z M 15 15 L 17 15 L 17 17 L 15 17 L 15 15 z "/>
</svg>
