<?xml version="1.0" encoding="UTF-8" standalone="no"?>
<svg xmlns="http://www.w3.org/2000/svg" xmlns:svg="http://www.w3.org/2000/svg" width="24" height="24" viewBox="0 0 24 24" fill="currentColor" tags="animal,pet,tortoise,slow,speed" categories="animals">
  <path d="M 10 5 C 7.8260785 5 5.8275778 5.7761699 4.2695312 7.0664062 A 1 1 0 0 0 4.0859375 7.2265625 C 2.1970978 8.878189 1 11.302601 1 14 L 1 17 C 1 18.092725 1.9072751 19 3 19 L 5 19 C 6.0927249 19 7 18.092725 7 17 L 7 15 L 13 15 L 13 17 C 13 18.092725 13.907275 19 15 19 L 17 19 C 18.092725 19 19 18.092725 19 17 L 19 15 L 20 15 C 20.916666 15 21.731441 14.620244 22.248047 14.039062 C 22.764653 13.45788 23 12.722222 23 12 C 23 11.277778 22.764653 10.542119 22.248047 9.9609375 C 21.731441 9.3797556 20.916666 9 20 9 L 17.476562 9 C 17.034884 8.3419735 16.508911 7.7467055 15.914062 7.2265625 A 1 1 0 0 0 15.730469 7.0664062 C 14.172422 5.7761699 12.173921 5 10 5 z M 10 7 C 11.236948 7 12.395977 7.3184145 13.402344 7.8769531 L 11.701172 9 L 8.2988281 9 L 6.5976562 7.8769531 C 7.6040229 7.3184145 8.763052 7 10 7 z M 4.9277344 9.1699219 L 6.7089844 10.345703 L 5.3828125 13 L 3.0722656 13 C 3.2820759 11.522687 3.9494608 10.197221 4.9277344 9.1699219 z M 15.072266 9.1699219 C 16.050539 10.197221 16.717924 11.522687 16.927734 13 L 14.617188 13 L 13.291016 10.345703 L 15.072266 9.1699219 z M 8.6171875 11 L 11.382812 11 L 12.382812 13 L 7.6171875 13 L 8.6171875 11 z M 18.482422 11 L 20 11 C 20.416666 11 20.601893 11.120244 20.751953 11.289062 C 20.902014 11.45788 21 11.722222 21 12 C 21 12.277778 20.90201 12.542119 20.751953 12.710938 C 20.601893 12.879755 20.416666 13 20 13 L 18.943359 13 C 18.866152 12.306769 18.708769 11.637144 18.482422 11 z M 3 15 L 5 15 L 5 17 L 3 17 L 3 15 z M 15 15 L 17 15 L 17 17 L 15 17 L 15 15 z "/>
</svg>
