<?xml version="1.0" encoding="UTF-8" standalone="no"?>
<svg xmlns="http://www.w3.org/2000/svg" xmlns:svg="http://www.w3.org/2000/svg" width="24" height="24" viewBox="0 0 24 24" fill="currentColor" tags="animal,pet,tortoise,slow,speed" categories="animals">
  
  <path d="M 10 5 C 7.8260829 5 5.8275766 5.7761705 4.2695312 7.0664062 A 1 1 0 0 0 4.0859375 7.2265625 C 2.1970991 8.8781881 1 11.302607 1 14 L 1 17 C 1 18.092723 1.9072773 19 3 19 L 5 19 C 6.0927227 19 7 18.092723 7 17 L 7 15 L 13 15 L 13 17 C 13 18.092723 13.907277 19 15 19 L 17 19 C 18.092723 19 19 18.092723 19 17 L 19 15 L 20 15 C 20.916665 15 21.731441 14.620243 22.248047 14.039062 C 22.764651 13.457881 23 12.72222 23 12 C 23 11.27778 22.764651 10.542118 22.248047 9.9609375 C 21.731441 9.3797568 20.916665 9 20 9 L 17.476562 9 C 17.034884 8.3419741 16.50891 7.7467052 15.914062 7.2265625 A 1 1 0 0 0 15.730469 7.0664062 C 14.172423 5.7761705 12.173917 5 10 5 z M 10 7 C 11.236946 7 12.395978 7.3184147 13.402344 7.8769531 L 11.701172 9 L 8.2988281 9 L 6.5976562 7.8769531 C 7.6040219 7.3184147 8.7630545 7 10 7 z M 4.9277344 9.1699219 L 6.7089844 10.345703 L 5.3828125 13 L 3.0722656 13 C 3.2820759 11.52269 3.9494614 10.197221 4.9277344 9.1699219 z M 15.072266 9.1699219 C 16.050539 10.197221 16.717924 11.52269 16.927734 13 L 14.617188 13 L 13.291016 10.345703 L 15.072266 9.1699219 z M 8.6171875 11 L 11.382812 11 L 12.382812 13 L 7.6171875 13 L 8.6171875 11 z M 18.482422 11 L 20 11 C 20.416666 11 20.601893 11.120245 20.751953 11.289062 C 20.902013 11.457879 21 11.722222 21 12 C 21 12.277778 20.90201 12.54212 20.751953 12.710938 C 20.601893 12.879754 20.416666 13 20 13 L 18.943359 13 C 18.866152 12.30677 18.708769 11.637143 18.482422 11 z M 3 15 L 5 15 L 5 17 L 3 17 L 3 15 z M 15 15 L 17 15 L 17 17 L 15 17 L 15 15 z "/>
</svg>
