<?xml version="1.0" encoding="UTF-8" standalone="no"?>
<svg xmlns="http://www.w3.org/2000/svg" xmlns:svg="http://www.w3.org/2000/svg" width="24" height="24" viewBox="0 0 24 24" fill="currentColor" tags="flatscreen,television,stream,display,widescreen,high-definition,hd,1080p,4k,8k,smart,digital,video,movie,live,ott,running,start,film,home cinema,entertainment,showtime,channels,catchup" categories="devices,multimedia">
  <path d="M 4 2 C 2.3553005 2 1 3.3553005 1 5 L 1 15 C 1 16.644699 2.3553005 18 4 18 L 20 18 C 21.644699 18 23 16.644699 23 15 L 23 5 C 23 3.3553005 21.644699 2 20 2 L 4 2 z M 4 4 L 20 4 C 20.571296 4 21 4.4287039 21 5 L 21 15 C 21 15.571296 20.571296 16 20 16 L 4 16 C 3.4287039 16 3 15.571296 3 15 L 3 5 C 3 4.4287039 3.4287039 4 4 4 z M 10.775391 6.0175781 C 9.8688321 6.0312917 9.0018442 6.7615118 9 7.7480469 A 1.0001 1.0001 0 0 0 9 7.75 L 9 12.248047 C 8.99895 13.565207 10.541135 14.430623 11.664062 13.742188 A 1.0001 1.0001 0 0 0 11.666016 13.740234 L 15.330078 11.490234 C 16.405758 10.829245 16.405758 9.1707554 15.330078 8.5097656 A 1.0001 1.0001 0 0 0 15.330078 8.5078125 L 11.666016 6.2597656 A 1.0001 1.0001 0 0 0 11.664062 6.2597656 C 11.383756 6.0878884 11.077576 6.0130069 10.775391 6.0175781 z M 11 8.1992188 L 13.935547 10 L 11 11.802734 L 11 8.1992188 z M 7 20 A 1 1 0 0 0 6 21 A 1 1 0 0 0 7 22 L 17 22 A 1 1 0 0 0 18 21 A 1 1 0 0 0 17 20 L 7 20 z "/>
</svg>
