<svg xmlns="http://www.w3.org/2000/svg" xmlns:svg="http://www.w3.org/2000/svg" width="24" height="24" viewBox="0 0 24 24" fill="currentColor" tags="television,stream,display,widescreen,high-definition,hd,1080p,4k,8k,smart,digital,video,entertainment,showtime,channels,terrestrial,satellite,cable,broadcast,live,frequency,tune,scan,aerial,receiver,transmission,signal,connection,connectivity" categories="devices,multimedia,communication">
  <path d="M 7 1 A 1 1 0 0 0 6.2929688 1.2929688 A 1 1 0 0 0 6.2929688 2.7070312 L 9.5859375 6 L 4 6 C 2.3552972 6 1 7.3552972 1 9 L 1 20 C 1 21.644703 2.3552972 23 4 23 L 20 23 C 21.644703 23 23 21.644703 23 20 L 23 9 C 23 7.3552972 21.644703 6 20 6 L 14.414062 6 L 17.707031 2.7070312 A 1 1 0 0 0 17.707031 1.2929688 A 1 1 0 0 0 16.292969 1.2929688 L 12 5.5859375 L 7.7070312 1.2929688 A 1 1 0 0 0 7 1 z M 4 8 L 12 8 L 20 8 C 20.571297 8 21 8.4287028 21 9 L 21 20 C 21 20.571297 20.571297 21 20 21 L 4 21 C 3.4287028 21 3 20.571297 3 20 L 3 9 C 3 8.4287028 3.4287028 8 4 8 z "/>
</svg>
