<?xml version="1.0" encoding="UTF-8" standalone="no"?>
<svg xmlns="http://www.w3.org/2000/svg" xmlns:svg="http://www.w3.org/2000/svg" width="24" height="24" viewBox="0 0 24 24" fill="currentColor" tags="logo,social" categories="brands,social,account">
  <path d="M 21.982422 3 A 1.0001 1.0001 0 0 0 21.466797 3.1542969 C 21.466797 3.1542969 21.032063 3.4271768 20.472656 3.7011719 C 19.984594 3.9402228 19.460332 4.0873727 19.1875 4.1347656 C 18.396482 3.5427078 17.531932 3.1448132 16.642578 3.0371094 C 15.571254 2.9073683 14.496389 3.1084498 13.576172 3.5878906 C 12.067462 4.3739411 11.015222 5.984986 10.958984 7.9121094 C 8.2159056 7.7107832 5.5391316 6.4517862 3.7636719 4.3535156 A 1.0001 1.0001 0 0 0 2.1210938 4.5234375 C -0.35734746 9.0837692 1.6816252 14.568508 6.0214844 16.988281 C 4.818347 17.633611 3.4715874 18.066802 2.0449219 18.001953 A 1.0001 1.0001 0 0 0 1.4472656 19.833984 C 6.0747821 22.901059 11.444004 22.485157 15.371094 19.925781 C 19.184998 17.440168 21.640315 12.88854 20.992188 7.6914062 C 22.283794 6.1817108 22.949219 4.3164063 22.949219 4.3164062 A 1.0001 1.0001 0 0 0 21.982422 3 z M 15.890625 4.9882812 C 16.054083 4.981633 16.219003 4.9867321 16.384766 5.0058594 C 17.047817 5.0823684 17.719722 5.3729124 18.318359 5.9316406 A 1.0001 1.0001 0 0 0 19 6.1992188 C 19.302781 6.1992188 19.506178 6.0338721 19.779297 5.9667969 C 19.606134 6.2140963 19.493266 6.4930616 19.292969 6.6933594 A 1.0001 1.0001 0 0 0 19.011719 7.5585938 C 19.749237 12.168085 17.602207 16.084379 14.279297 18.25 C 11.747152 19.90026 8.573132 20.492806 5.4472656 19.527344 C 6.624916 19.152239 7.7256308 18.567954 8.6582031 17.751953 A 1.0001 1.0001 0 0 0 8.2871094 16.042969 C 4.3631565 14.865783 2.3745254 10.616587 3.5117188 6.8398438 C 5.8493326 8.8997728 8.9009337 10.092011 12.029297 10 A 1.0001 1.0001 0 0 0 12.978516 8.7910156 C 12.614599 7.0927361 13.365434 5.9524465 14.5 5.3613281 C 14.925462 5.1396588 15.40025 5.0082261 15.890625 4.9882812 z "/>
</svg>
