<?xml version="1.0" encoding="UTF-8" standalone="no"?>
<svg xmlns="http://www.w3.org/2000/svg" xmlns:svg="http://www.w3.org/2000/svg" width="24" height="24" viewBox="0 0 24 24" fill="currentColor" tags="text,font,typography,silhouette,profile,contour,stroke,line" categories="text">
  <path d="M 4 2 C 2.3549936 2 1 3.3549936 1 5 L 1 8 C 1 8.9166647 1.3797568 9.7314419 1.9609375 10.248047 C 2.5421182 10.764651 3.2777793 11 4 11 C 4.7222207 11 5.4578818 10.764651 6.0390625 10.248047 C 6.6202432 9.7314419 7 8.9166647 7 8 L 9 8 L 9 16 C 8.0833353 16 7.268558 16.379757 6.7519531 16.960938 C 6.2353482 17.542119 6 18.27778 6 19 C 6 19.72222 6.2353482 20.457882 6.7519531 21.039062 C 7.268558 21.620244 8.0833353 22 9 22 L 15 22 C 15.916665 22 16.731441 21.620244 17.248047 21.039062 C 17.764651 20.457882 18 19.72222 18 19 C 18 18.27778 17.764651 17.542119 17.248047 16.960938 C 16.731441 16.379757 15.916665 16 15 16 L 15 8 L 17 8 C 17 8.9166647 17.379757 9.7314419 17.960938 10.248047 C 18.542119 10.764651 19.27778 11 20 11 C 20.72222 11 21.457882 10.764651 22.039062 10.248047 C 22.620244 9.7314419 23 8.9166647 23 8 L 23 5 C 23 3.3549936 21.645006 2 20 2 L 4 2 z M 4 4 L 20 4 C 20.564128 4 21 4.4358718 21 5 L 21 8 C 21 8.4166655 20.879755 8.601893 20.710938 8.7519531 C 20.542121 8.9020133 20.277778 9 20 9 C 19.722222 9 19.45788 8.9020133 19.289062 8.7519531 C 19.120246 8.601893 19 8.4166655 19 8 L 19 7.5 C 19 6.6834191 18.316581 6 17.5 6 L 14.5 6 C 13.683419 6 13 6.6834191 13 7.5 L 13 16.5 C 13 17.316581 13.683419 18 14.5 18 L 15 18 C 15.416666 18 15.601893 18.120246 15.751953 18.289062 C 15.902013 18.45788 16 18.722222 16 19 C 16 19.277778 15.90201 19.542121 15.751953 19.710938 C 15.601893 19.879755 15.416666 20 15 20 L 9 20 C 8.5833345 20 8.398107 19.879755 8.2480469 19.710938 C 8.0979867 19.542121 8 19.277778 8 19 C 8 18.722222 8.0979867 18.45788 8.2480469 18.289062 C 8.398107 18.120246 8.5833345 18 9 18 L 9.5 18 C 10.316581 18 11 17.316581 11 16.5 L 11 7.5 C 11 6.6834191 10.316581 6 9.5 6 L 6.5 6 C 5.6834191 6 5 6.6834191 5 7.5 L 5 8 C 5 8.4166655 4.8797552 8.601893 4.7109375 8.7519531 C 4.5421198 8.9020133 4.2777773 9 4 9 C 3.7222227 9 3.4578802 8.9020133 3.2890625 8.7519531 C 3.1202448 8.601893 3 8.4166655 3 8 L 3 5 C 3 4.4358718 3.4358718 4 4 4 z "/>
</svg>
