<?xml version="1.0" encoding="UTF-8" standalone="no"?>
<svg xmlns="http://www.w3.org/2000/svg" xmlns:svg="http://www.w3.org/2000/svg" width="24" height="24" viewBox="0 0 24 24" fill="currentColor" tags="text,font,typography" categories="text">
  <path d="M 5 3 C 3.9072751 3 3 3.9072751 3 5 L 3 7 A 1 1 0 0 0 4 8 A 1 1 0 0 0 5 7 L 5 5 L 11 5 L 11 19 L 9 19 A 1 1 0 0 0 8 20 A 1 1 0 0 0 9 21 L 12 21 L 15 21 A 1 1 0 0 0 16 20 A 1 1 0 0 0 15 19 L 13 19 L 13 5 L 19 5 L 19 7 A 1 1 0 0 0 20 8 A 1 1 0 0 0 21 7 L 21 5 C 21 3.9072751 20.092725 3 19 3 L 5 3 z "/>
</svg>
