<svg xmlns="http://www.w3.org/2000/svg" xmlns:svg="http://www.w3.org/2000/svg" width="24" height="24" viewBox="0 0 24 24" fill="currentColor" tags="text,font,typography,silhouette,profile,contour,stroke,line" categories="text">
  <path d="M 4 2 C 2.3549904 2 1 3.3549904 1 5 L 1 8 C 1 8.9166665 1.3797556 9.7314409 1.9609375 10.248047 C 2.5421194 10.764653 3.2777779 11 4 11 C 4.7222221 11 5.4578806 10.764653 6.0390625 10.248047 C 6.6202444 9.7314409 7 8.9166665 7 8 L 9 8 L 9 16 C 8.0833335 16 7.268559 16.379756 6.7519531 16.960938 C 6.2353472 17.542119 6 18.277778 6 19 C 6 19.722222 6.2353472 20.457881 6.7519531 21.039062 C 7.268559 21.620244 8.0833335 22 9 22 L 15 22 C 15.916666 22 16.731441 21.620244 17.248047 21.039062 C 17.764653 20.457881 18 19.722222 18 19 C 18 18.277778 17.764653 17.542119 17.248047 16.960938 C 16.731441 16.379756 15.916666 16 15 16 L 15 8 L 17 8 C 17 8.9166665 17.379756 9.7314409 17.960938 10.248047 C 18.542119 10.764653 19.277778 11 20 11 C 20.722222 11 21.457881 10.764653 22.039062 10.248047 C 22.620244 9.7314409 23 8.9166665 23 8 L 23 5 C 23 3.3549904 21.64501 2 20 2 L 4 2 z M 4 4 L 20 4 C 20.564129 4 21 4.4358706 21 5 L 21 8 C 21 8.4166663 20.879756 8.6018927 20.710938 8.7519531 C 20.542119 8.9020136 20.277778 9 20 9 C 19.722222 9 19.457881 8.9020136 19.289062 8.7519531 C 19.120244 8.6018927 19 8.4166663 19 8 L 19 7.5 C 19 6.6834175 18.316582 6 17.5 6 L 14.5 6 C 13.683418 6 13 6.6834175 13 7.5 L 13 16.5 C 13 17.316582 13.683418 18 14.5 18 L 15 18 C 15.416666 18 15.601893 18.120244 15.751953 18.289062 C 15.902014 18.457881 16 18.722222 16 19 C 16 19.277778 15.90201 19.542119 15.751953 19.710938 C 15.601893 19.879756 15.416666 20 15 20 L 9 20 C 8.5833337 20 8.3981073 19.879756 8.2480469 19.710938 C 8.0979864 19.542119 8 19.277778 8 19 C 8 18.722222 8.0979864 18.457881 8.2480469 18.289062 C 8.3981073 18.120244 8.5833337 18 9 18 L 9.5 18 C 10.316582 18 11 17.316582 11 16.5 L 11 7.5 C 11 6.6834175 10.316582 6 9.5 6 L 6.5 6 C 5.6834175 6 5 6.6834175 5 7.5 L 5 8 C 5 8.4166663 4.8797556 8.6018927 4.7109375 8.7519531 C 4.5421194 8.9020136 4.2777779 9 4 9 C 3.7222221 9 3.4578806 8.9020136 3.2890625 8.7519531 C 3.1202444 8.6018927 3 8.4166663 3 8 L 3 5 C 3 4.4358706 3.4358706 4 4 4 z "/>
</svg>
