<svg xmlns="http://www.w3.org/2000/svg" xmlns:svg="http://www.w3.org/2000/svg" width="24" height="24" viewBox="0 0 24 24" fill="currentColor" tags="rain,weather,uncovered,uninsured,antivirus,unprotected,risky" categories="weather">
  <path d="M 2 1 A 1 1 0 0 0 1.2929688 1.2929688 A 1 1 0 0 0 1.2929688 2.7070312 L 4.4667969 5.8808594 C 2.819017 7.3596069 1.6382886 9.2986597 1.0800781 11.458984 C 0.73033465 12.707886 1.7016005 13.999053 3 14 L 11 14 L 11 20 C 11 20.916666 11.379756 21.731441 11.960938 22.248047 C 12.542118 22.764653 13.277778 23 14 23 C 14.722222 23 15.457881 22.764653 16.039062 22.248047 C 16.620244 21.731441 17 20.916666 17 20 A 1 1 0 0 0 16 19 A 1 1 0 0 0 15 20 C 15 20.416666 14.879756 20.601893 14.710938 20.751953 C 14.542118 20.902014 14.277778 21 14 21 C 13.722222 21 13.45788 20.902014 13.289062 20.751953 C 13.120243 20.601893 13 20.416666 13 20 L 13 14.414062 L 21.292969 22.707031 A 1 1 0 0 0 22.707031 22.707031 A 1 1 0 0 0 22.707031 21.292969 L 13.716797 12.302734 A 1 1 0 0 0 13.697266 12.283203 L 6.7167969 5.3027344 A 1 1 0 0 0 6.6152344 5.2011719 L 2.7070312 1.2929688 A 1 1 0 0 0 2 1 z M 12 1 A 1 1 0 0 0 11 2 L 11 3.0410156 C 10.564018 3.079867 10.12595 3.1444794 9.6875 3.2363281 A 1 1 0 0 0 8.9140625 4.421875 A 1 1 0 0 0 10.097656 5.1953125 C 10.705399 5.0679995 11.311707 5.0030729 11.910156 4.9960938 A 1 1 0 0 0 12 5 A 1 1 0 0 0 12.09375 4.9960938 C 16.218865 5.0294663 19.927518 7.8169041 20.994141 11.974609 A 1.0001 1.0001 0 0 0 21 12 A 1.0001 1.0001 0 0 0 20.992188 12 L 18.65625 12 A 1 1 0 0 0 17.65625 13 A 1 1 0 0 0 18.65625 14 L 20.984375 14 C 22.288926 14.0108 23.271878 12.71582 22.921875 11.460938 C 21.793775 7.0924179 18.230792 3.9583521 14.033203 3.1835938 C 13.692575 3.1207232 13.347864 3.0723741 13 3.0410156 L 13 2 A 1 1 0 0 0 12 1 z M 5.8828125 7.296875 L 10.585938 12 L 3 12 A 1.0001 1.0001 0 0 0 3.0078125 11.974609 C 3.4741637 10.155068 4.4797337 8.5260003 5.8828125 7.296875 z "/>
</svg>
