<svg xmlns="http://www.w3.org/2000/svg" xmlns:svg="http://www.w3.org/2000/svg" width="24" height="24" viewBox="0 0 24 24" fill="currentColor" tags="rain,weather" categories="weather">
  <path d="M 12 1 A 1 1 0 0 0 11 2 L 11 3.0410156 C 6.6304034 3.4202898 2.4173655 6.2831326 1.0800781 11.457031 C 0.72871055 12.706564 1.7008983 13.999052 3 14 L 11 14 L 11 20 C 11 20.916666 11.379756 21.731441 11.960938 22.248047 C 12.542118 22.764653 13.277778 23 14 23 C 14.722222 23 15.457881 22.764653 16.039062 22.248047 C 16.620244 21.731441 17 20.916666 17 20 A 1 1 0 0 0 16 19 A 1 1 0 0 0 15 20 C 15 20.416666 14.879756 20.601893 14.710938 20.751953 C 14.542118 20.902014 14.277778 21 14 21 C 13.722222 21 13.45788 20.902014 13.289062 20.751953 C 13.120243 20.601893 13 20.416666 13 20 L 13 14 L 20.984375 14 C 22.289629 14.01081 23.273509 12.7145 22.921875 11.458984 C 21.585349 6.2833887 17.370511 3.4202604 13 3.0410156 L 13 2 A 1 1 0 0 0 12 1 z M 11.939453 4.9980469 A 1 1 0 0 0 12 5 A 1 1 0 0 0 12.060547 4.9980469 C 15.962314 5.0207858 19.788977 7.2763029 20.994141 11.974609 A 1.0001 1.0001 0 0 0 21 12 A 1.0001 1.0001 0 0 0 20.992188 12 L 12 12 L 3 12 A 1.0001 1.0001 0 0 0 3.0078125 11.974609 C 4.2129778 7.276302 8.0377051 5.0207859 11.939453 4.9980469 z "/>
</svg>
