<?xml version="1.0" encoding="UTF-8" standalone="no"?>
<svg xmlns="http://www.w3.org/2000/svg" xmlns:svg="http://www.w3.org/2000/svg" width="24" height="24" viewBox="0 0 24 24" fill="currentColor" tags="rain,weather,uncovered,uninsured,antivirus,unprotected,risky" categories="weather">
  <path d="M 2 1 A 1 1 0 0 0 1.2929688 1.2929688 A 1 1 0 0 0 1.2929688 2.7070312 L 3.9941406 5.4082031 C 2.3109769 7.1711235 1.2531356 9.4531552 1.0058594 11.898438 A 1.0001 1.0001 0 0 0 2 13 L 11 13 L 11 20 C 10.907174 21.438649 11.901768 22.591354 13.058594 22.921875 C 14.241627 23.259884 15.736318 22.780688 16.396484 21.443359 A 1 1 0 0 0 15.943359 20.103516 A 1 1 0 0 0 14.603516 20.556641 C 14.352803 21.06452 13.997029 21.109363 13.607422 20.998047 C 13.217815 20.886731 12.940649 20.661326 12.996094 20.097656 A 1.0001 1.0001 0 0 0 13 20 L 13 14.414062 L 21.292969 22.707031 A 1 1 0 0 0 22.707031 22.707031 A 1 1 0 0 0 22.707031 21.292969 L 12.707031 11.292969 L 6.1855469 4.7734375 L 2.7070312 1.2929688 A 1 1 0 0 0 2 1 z M 12 1 A 1 1 0 0 0 11 2 L 11 2.0332031 C 10.235649 2.1066237 9.4652961 2.2571261 8.6992188 2.5019531 A 1 1 0 0 0 8.0507812 3.7597656 A 1 1 0 0 0 9.3085938 4.4082031 C 10.155119 4.1376662 11.000656 4.0024829 11.828125 3.984375 A 1 1 0 0 0 12 4 A 1 1 0 0 0 12.181641 3.9824219 C 16.184131 4.0586342 19.688417 6.9204075 20.636719 11 L 17.5 11 A 1 1 0 0 0 16.5 12 A 1 1 0 0 0 17.5 13 L 22 13 A 1.0001 1.0001 0 0 0 22.996094 11.902344 C 22.459983 6.4603392 18.072228 2.4748308 13 2.0234375 L 13 2 A 1 1 0 0 0 12 1 z M 5.4179688 6.8320312 L 9.5859375 11 L 3.3242188 11 C 3.6863496 9.454032 4.3572272 7.9989057 5.4179688 6.8320312 z "/>
</svg>
