<?xml version="1.0" encoding="UTF-8" standalone="no"?>
<svg xmlns="http://www.w3.org/2000/svg" xmlns:svg="http://www.w3.org/2000/svg" width="24" height="24" viewBox="0 0 24 24" fill="currentColor" tags="rain,weather" categories="weather">
  <path d="M 12 1 A 1 1 0 0 0 11 2 L 11 2.0820312 C 5.8142759 2.5505652 1.5834454 6.6259014 1.0058594 11.890625 A 1.0001 1.0001 0 0 0 2 13 L 11 13 L 11 20 C 11 20.916665 11.379756 21.731441 11.960938 22.248047 C 12.542118 22.764651 13.27778 23 14 23 C 14.72222 23 15.457882 22.764651 16.039062 22.248047 C 16.620244 21.731441 17 20.916665 17 20 A 1 1 0 0 0 16 19 A 1 1 0 0 0 15 20 C 15 20.416666 14.879754 20.601893 14.710938 20.751953 C 14.54212 20.902013 14.277778 21 14 21 C 13.722222 21 13.457879 20.902013 13.289062 20.751953 C 13.120245 20.601893 13 20.416666 13 20 L 13 13 L 22 13 A 1.0001 1.0001 0 0 0 22.994141 11.890625 C 22.416554 6.6259014 18.185724 2.5505652 13 2.0820312 L 13 2 A 1 1 0 0 0 12 1 z M 12 4.0371094 C 16.228718 4.0371094 19.694064 6.9915977 20.669922 11 L 3.3300781 11 C 4.305936 6.9915977 7.7712821 4.0371094 12 4.0371094 z "/>
</svg>
