<?xml version="1.0" encoding="UTF-8" standalone="no"?>
<svg xmlns="http://www.w3.org/2000/svg" xmlns:svg="http://www.w3.org/2000/svg" width="24" height="24" viewBox="0 0 24 24" fill="currentColor" tags="rain,weather" categories="weather">
  <path d="M 12 1 A 1 1 0 0 0 11 2 L 11 2.0820312 C 5.8141299 2.550435 1.5834577 6.6257894 1.0058594 11.890625 A 1.0001 1.0001 0 0 0 2 13 L 11 13 L 11 20 C 11 20.916666 11.379756 21.731441 11.960938 22.248047 C 12.542118 22.764653 13.277778 23 14 23 C 14.722222 23 15.457881 22.764653 16.039062 22.248047 C 16.620244 21.731441 17 20.916666 17 20 A 1 1 0 0 0 16 19 A 1 1 0 0 0 15 20 C 15 20.416666 14.879756 20.601893 14.710938 20.751953 C 14.542118 20.902014 14.277778 21 14 21 C 13.722222 21 13.45788 20.902014 13.289062 20.751953 C 13.120243 20.601893 13 20.416666 13 20 L 13 13 L 22 13 A 1.0001 1.0001 0 0 0 22.994141 11.890625 C 22.416542 6.6257894 18.18587 2.550435 13 2.0820312 L 13 2 A 1 1 0 0 0 12 1 z M 12 4.0371094 C 16.228726 4.0371094 19.694062 6.9915897 20.669922 11 L 3.3300781 11 C 4.305938 6.9915897 7.7712736 4.0371094 12 4.0371094 z "/>
</svg>
