<?xml version="1.0" encoding="UTF-8" standalone="no"?>
<svg xmlns="http://www.w3.org/2000/svg" xmlns:svg="http://www.w3.org/2000/svg" width="24" height="24" viewBox="0 0 24 24" fill="currentColor" tags="redo,rerun,history,back,return,reverse,revert,direction,u-turn" categories="text,arrows">
  <path d="M 9 3 A 1 1 0 0 0 8.2929688 3.2929688 L 3.2929688 8.2929688 A 1.0001 1.0001 0 0 0 3.0957031 8.5878906 A 1 1 0 0 0 3.0605469 8.6953125 A 1.0001 1.0001 0 0 0 3.0117188 8.9414062 A 1 1 0 0 0 3 9 A 1 1 0 0 0 3.0117188 9.0585938 A 1.0001 1.0001 0 0 0 3.0605469 9.3046875 A 1 1 0 0 0 3.0957031 9.4121094 A 1.0001 1.0001 0 0 0 3.2929688 9.7070312 L 8.2929688 14.707031 A 1 1 0 0 0 9.7070312 14.707031 A 1 1 0 0 0 9.7070312 13.292969 L 6.4140625 10 L 14.5 10 C 16.997122 10 19 12.002878 19 14.5 C 19 16.997122 16.997122 19 14.5 19 L 11 19 A 1 1 0 0 0 10 20 A 1 1 0 0 0 11 21 L 14.5 21 C 18.077999 21 21 18.077999 21 14.5 C 21 10.922001 18.077999 8 14.5 8 L 6.4140625 8 L 9.7070312 4.7070312 A 1 1 0 0 0 9.7070312 3.2929688 A 1 1 0 0 0 9 3 z "/>
</svg>
