<?xml version="1.0" encoding="UTF-8" standalone="no"?>
<svg xmlns="http://www.w3.org/2000/svg" xmlns:svg="http://www.w3.org/2000/svg" width="24" height="24" viewBox="0 0 24 24" fill="currentColor" tags="redo,rerun,history,back,return,reverse,revert,direction,u-turn" categories="text,arrows">
  <path d="M 9 3 A 1 1 0 0 0 8.2929688 3.2929688 L 3.3027344 8.2832031 L 3.2929688 8.2929688 A 1.0001 1.0001 0 0 0 3.25 8.3417969 A 1 1 0 0 0 3.2128906 8.3847656 A 1.0001 1.0001 0 0 0 3.1757812 8.4394531 A 1 1 0 0 0 3.1386719 8.4921875 A 1.0001 1.0001 0 0 0 3.1347656 8.5 A 1 1 0 0 0 3.078125 8.6113281 A 1.0001 1.0001 0 0 0 3.0761719 8.6171875 A 1 1 0 0 0 3.0351562 8.7421875 A 1 1 0 0 0 3.0234375 8.7949219 A 1.0001 1.0001 0 0 0 3 9 A 1.0001 1.0001 0 0 0 3.0234375 9.2050781 A 1.0001 1.0001 0 0 0 3.0351562 9.2578125 A 1 1 0 0 0 3.0761719 9.3828125 A 1 1 0 0 0 3.078125 9.3886719 A 1.0001 1.0001 0 0 0 3.1347656 9.5 A 1 1 0 0 0 3.1757812 9.5605469 A 1.0001 1.0001 0 0 0 3.2128906 9.6152344 A 1 1 0 0 0 3.25 9.6582031 A 1.0001 1.0001 0 0 0 3.2929688 9.7070312 A 1 1 0 0 0 3.3027344 9.7167969 L 8.2929688 14.707031 A 1 1 0 0 0 9.7070312 14.707031 A 1 1 0 0 0 9.7070312 13.292969 L 6.4140625 10 L 14.5 10 C 16.997126 10 19 12.002874 19 14.5 C 19 16.997126 16.997126 19 14.5 19 L 11 19 A 1 1 0 0 0 10 20 A 1 1 0 0 0 11 21 L 14.5 21 C 18.078006 21 21 18.078006 21 14.5 C 21 10.921994 18.078006 8 14.5 8 L 6.4140625 8 L 9.7070312 4.7070312 A 1 1 0 0 0 9.7070312 3.2929688 A 1 1 0 0 0 9 3 z "/>
</svg>
