<?xml version="1.0" encoding="UTF-8" standalone="no"?>
<svg xmlns="http://www.w3.org/2000/svg" xmlns:svg="http://www.w3.org/2000/svg" width="24" height="24" viewBox="0 0 24 24" fill="currentColor" tags="redo,history,step,back" categories="text,arrows">
  
  <path d="M 3 6 A 1 1 0 0 0 2 7 L 2 12.947266 L 2 13 A 1.0001 1.0001 0 0 0 2.0527344 13.304688 A 1 1 0 0 0 2.0839844 13.380859 A 1.0001 1.0001 0 0 0 2.2246094 13.619141 A 1 1 0 0 0 2.2558594 13.669922 A 1 1 0 0 0 2.2753906 13.685547 A 1.0001 1.0001 0 0 0 2.5371094 13.880859 A 1 1 0 0 0 2.6289062 13.919922 A 1.0001 1.0001 0 0 0 2.8925781 13.986328 A 1 1 0 0 0 2.9726562 13.996094 A 1.0001 1.0001 0 0 0 3 14 L 9 14 A 1 1 0 0 0 10 13 A 1 1 0 0 0 9 12 L 5.6074219 12 L 6.6679688 11.044922 L 6.6699219 11.042969 C 8.1350027 9.7299006 10.032564 9.002483 12 9 C 16.430114 9 20 12.569886 20 17 A 1 1 0 0 0 21 18 A 1 1 0 0 0 22 17 C 22 11.489009 17.510991 7 12 7 A 1.0001 1.0001 0 0 0 11.998047 7 C 9.5373435 7.0025058 7.1638878 7.911712 5.3320312 9.5546875 A 1.0001 1.0001 0 0 0 5.3300781 9.5566406 L 4 10.753906 L 4 7 A 1 1 0 0 0 3 6 z M 12 15 C 10.907277 15 10 15.907277 10 17 C 10 18.092723 10.907277 19 12 19 C 13.092723 19 14 18.092723 14 17 C 14 15.907277 13.092723 15 12 15 z "/>
</svg>
