<?xml version="1.0" encoding="UTF-8" standalone="no"?>
<svg xmlns="http://www.w3.org/2000/svg" xmlns:svg="http://www.w3.org/2000/svg" width="24" height="24" viewBox="0 0 24 24" fill="currentColor" tags="redo,rerun,history" categories="text,arrows">
  <path d="M 3 6 A 1 1 0 0 0 2 7 L 2 12.939453 L 2 13 A 1 1 0 0 0 2.0078125 13.121094 A 1.0001 1.0001 0 0 0 2.0117188 13.150391 A 1 1 0 0 0 2.0273438 13.234375 A 1.0001 1.0001 0 0 0 2.0429688 13.287109 A 1 1 0 0 0 2.0742188 13.378906 A 1.0001 1.0001 0 0 0 2.078125 13.386719 A 1 1 0 0 0 2.1347656 13.5 A 1 1 0 0 0 2.203125 13.603516 A 1.0001 1.0001 0 0 0 2.2148438 13.619141 A 1 1 0 0 0 2.2558594 13.669922 A 1 1 0 0 0 2.2871094 13.701172 A 1.0001 1.0001 0 0 0 2.3007812 13.714844 A 1 1 0 0 0 2.3886719 13.791016 A 1.0001 1.0001 0 0 0 2.390625 13.792969 A 1 1 0 0 0 2.3925781 13.792969 A 1 1 0 0 0 2.5 13.865234 A 1 1 0 0 0 2.6152344 13.921875 A 1.0001 1.0001 0 0 0 2.6210938 13.925781 A 1 1 0 0 0 2.7226562 13.960938 A 1.0001 1.0001 0 0 0 2.7617188 13.970703 A 1 1 0 0 0 2.8554688 13.990234 A 1.0001 1.0001 0 0 0 2.8691406 13.992188 A 1 1 0 0 0 2.8789062 13.992188 A 1 1 0 0 0 3 14 A 1 1 0 0 0 3.0605469 14 L 9 14 A 1 1 0 0 0 10 13 A 1 1 0 0 0 9 12 L 5.6074219 12 L 6.6679688 11.044922 L 6.6699219 11.042969 C 8.1350057 9.7298979 10.03256 9.002483 12 9 C 16.430123 9 20 12.569877 20 17 A 1 1 0 0 0 21 18 A 1 1 0 0 0 22 17 C 22 11.488997 17.511003 7 12 7 A 1.0001 1.0001 0 0 0 11.998047 7 C 9.5373386 7.0025058 7.1638915 7.9117088 5.3320312 9.5546875 A 1.0001 1.0001 0 0 0 5.3300781 9.5566406 L 4 10.753906 L 4 7 A 1 1 0 0 0 3 6 z "/>
</svg>
