<svg xmlns="http://www.w3.org/2000/svg" xmlns:svg="http://www.w3.org/2000/svg" width="24" height="24" viewBox="0 0 24 24" fill="currentColor" tags="redo,history,step,back" categories="text,arrows">
  <path d="M 3 6 A 1 1 0 0 0 2 7 L 2 13 A 1 1 0 0 0 2.0078125 13.121094 A 1.0001 1.0001 0 0 0 2.0117188 13.150391 A 1 1 0 0 0 2.0273438 13.234375 A 1.0001 1.0001 0 0 0 2.0429688 13.287109 A 1 1 0 0 0 2.0742188 13.378906 A 1.0001 1.0001 0 0 0 2.078125 13.386719 A 1 1 0 0 0 2.203125 13.603516 A 1.0001 1.0001 0 0 0 2.2148438 13.619141 A 1 1 0 0 0 2.2558594 13.669922 A 1 1 0 0 0 2.2871094 13.701172 A 1.0001 1.0001 0 0 0 2.3007812 13.714844 A 1 1 0 0 0 2.3886719 13.791016 A 1.0001 1.0001 0 0 0 2.390625 13.792969 A 1 1 0 0 0 2.3925781 13.792969 A 1 1 0 0 0 2.6152344 13.921875 A 1.0001 1.0001 0 0 0 2.6171875 13.923828 A 1.0001 1.0001 0 0 0 2.6210938 13.925781 A 1 1 0 0 0 2.7226562 13.960938 A 1.0001 1.0001 0 0 0 2.7617188 13.970703 A 1 1 0 0 0 2.8554688 13.990234 A 1.0001 1.0001 0 0 0 2.8691406 13.992188 A 1 1 0 0 0 3.0605469 14 L 9 14 A 1 1 0 0 0 10 13 A 1 1 0 0 0 9 12 L 5.6054688 12 L 6.6660156 11.044922 L 6.6699219 11.042969 C 9.2731135 8.7170413 12.564138 8.4982056 15.261719 9.703125 C 17.960483 10.908573 19.996817 13.506731 20 17 A 1 1 0 0 0 21 18 A 1 1 0 0 0 22 17 C 21.996099 12.718373 19.428823 9.3735983 16.078125 7.8769531 C 14.402776 7.1286305 12.514978 6.834453 10.646484 7.0839844 C 8.7779911 7.3335157 6.9296523 8.1274772 5.3339844 9.5546875 A 1.0001 1.0001 0 0 0 5.3300781 9.5566406 L 4 10.753906 L 4 7 A 1 1 0 0 0 3 6 z M 12 15 C 10.907275 15 10 15.907275 10 17 C 10 18.092725 10.907275 19 12 19 C 13.092725 19 14 18.092725 14 17 C 14 15.907275 13.092725 15 12 15 z "/>
</svg>
