<?xml version="1.0" encoding="UTF-8" standalone="no"?>
<svg xmlns="http://www.w3.org/2000/svg" xmlns:svg="http://www.w3.org/2000/svg" width="24" height="24" viewBox="0 0 24 24" fill="currentColor" tags="arrow,collapse,fold,vertical,dashed" categories="arrows,layout">
  <path d="M 12 1 A 1 1 0 0 0 11 2 L 11 4 A 1 1 0 0 0 12 5 A 1 1 0 0 0 13 4 L 13 2 A 1 1 0 0 0 12 1 z M 12 7 A 1 1 0 0 0 11 8 L 11 10 A 1 1 0 0 0 12 11 A 1 1 0 0 0 13 10 L 13 8 A 1 1 0 0 0 12 7 z M 5 8 A 1 1 0 0 0 4.2929688 8.2929688 L 1.2929688 11.292969 A 1.0001 1.0001 0 0 0 1.2617188 11.333984 A 1 1 0 0 0 1.171875 11.451172 A 1.0001 1.0001 0 0 0 1.1230469 11.53125 A 1 1 0 0 0 1.0527344 11.699219 A 1.0001 1.0001 0 0 0 1.0332031 11.753906 A 1 1 0 0 0 1 12 A 1 1 0 0 0 1.0332031 12.246094 A 1.0001 1.0001 0 0 0 1.0527344 12.300781 A 1 1 0 0 0 1.1230469 12.46875 A 1.0001 1.0001 0 0 0 1.171875 12.548828 A 1 1 0 0 0 1.2617188 12.666016 A 1.0001 1.0001 0 0 0 1.2929688 12.707031 L 4.2929688 15.707031 A 1 1 0 0 0 5.7070312 15.707031 A 1 1 0 0 0 5.7070312 14.292969 L 4.4140625 13 L 8 13 A 1 1 0 0 0 9 12 A 1 1 0 0 0 8 11 L 4.4140625 11 L 5.7070312 9.7070312 A 1 1 0 0 0 5.7070312 8.2929688 A 1 1 0 0 0 5 8 z M 19 8 A 1 1 0 0 0 18.292969 8.2929688 A 1 1 0 0 0 18.292969 9.7070312 L 19.585938 11 L 16 11 A 1 1 0 0 0 15 12 A 1 1 0 0 0 16 13 L 19.585938 13 L 18.292969 14.292969 A 1 1 0 0 0 18.292969 15.707031 A 1 1 0 0 0 19.707031 15.707031 L 22.707031 12.707031 A 1.0001 1.0001 0 0 0 22.78125 12.623047 A 1 1 0 0 0 22.783203 12.619141 A 1.0001 1.0001 0 0 0 22.900391 12.433594 A 1 1 0 0 0 22.900391 12.431641 A 1.0001 1.0001 0 0 0 22.970703 12.236328 A 1 1 0 0 0 22.976562 12.208984 A 1.0001 1.0001 0 0 0 23 12 A 1 1 0 0 0 22.996094 11.912109 A 1.0001 1.0001 0 0 0 22.986328 11.835938 A 1 1 0 0 0 22.984375 11.826172 A 1.0001 1.0001 0 0 0 22.96875 11.753906 A 1 1 0 0 0 22.964844 11.742188 A 1.0001 1.0001 0 0 0 22.945312 11.675781 A 1 1 0 0 0 22.939453 11.658203 A 1.0001 1.0001 0 0 0 22.931641 11.640625 A 1 1 0 0 0 22.90625 11.578125 A 1.0001 1.0001 0 0 0 22.878906 11.523438 A 1 1 0 0 0 22.818359 11.425781 A 1.0001 1.0001 0 0 0 22.789062 11.386719 A 1 1 0 0 0 22.765625 11.357422 A 1.0001 1.0001 0 0 0 22.759766 11.351562 A 1 1 0 0 0 22.707031 11.292969 L 19.707031 8.2929688 A 1 1 0 0 0 19 8 z M 12 13 A 1 1 0 0 0 11 14 L 11 16 A 1 1 0 0 0 12 17 A 1 1 0 0 0 13 16 L 13 14 A 1 1 0 0 0 12 13 z M 12 19 A 1 1 0 0 0 11 20 L 11 22 A 1 1 0 0 0 12 23 A 1 1 0 0 0 13 22 L 13 20 A 1 1 0 0 0 12 19 z "/>
</svg>
