<svg xmlns="http://www.w3.org/2000/svg" xmlns:svg="http://www.w3.org/2000/svg" width="24" height="24" viewBox="0 0 24 24" fill="currentColor" tags="arrow,expand,vertical,dashed" categories="arrows,layout">
  <path d="M 12 1 A 1.0001 1.0001 0 0 0 11.794922 1.0234375 A 1 1 0 0 0 11.742188 1.0351562 A 1 1 0 0 0 11.617188 1.0761719 A 1 1 0 0 0 11.611328 1.078125 A 1.0001 1.0001 0 0 0 11.5 1.1347656 A 1 1 0 0 0 11.439453 1.1757812 A 1.0001 1.0001 0 0 0 11.384766 1.2128906 A 1 1 0 0 0 11.341797 1.25 A 1.0001 1.0001 0 0 0 11.292969 1.2929688 A 1 1 0 0 0 11.283203 1.3027344 L 8.2929688 4.2929688 A 1 1 0 0 0 8.2929688 5.7070312 A 1 1 0 0 0 9.7070312 5.7070312 L 11 4.4140625 L 11 8 A 1 1 0 0 0 12 9 A 1 1 0 0 0 13 8 L 13 4.4140625 L 14.292969 5.7070312 A 1 1 0 0 0 15.707031 5.7070312 A 1 1 0 0 0 15.707031 4.2929688 L 12.716797 1.3027344 A 1 1 0 0 0 12.658203 1.25 A 1.0001 1.0001 0 0 0 12.615234 1.2128906 A 1 1 0 0 0 12.560547 1.1757812 A 1.0001 1.0001 0 0 0 12.382812 1.0761719 A 1 1 0 0 0 12.257812 1.0351562 A 1.0001 1.0001 0 0 0 12.205078 1.0234375 A 1.0001 1.0001 0 0 0 12 1 z M 2 11 A 1 1 0 0 0 1 12 A 1 1 0 0 0 2 13 L 4 13 A 1 1 0 0 0 5 12 A 1 1 0 0 0 4 11 L 2 11 z M 8 11 A 1 1 0 0 0 7 12 A 1 1 0 0 0 8 13 L 10 13 A 1 1 0 0 0 11 12 A 1 1 0 0 0 10 11 L 8 11 z M 14 11 A 1 1 0 0 0 13 12 A 1 1 0 0 0 14 13 L 16 13 A 1 1 0 0 0 17 12 A 1 1 0 0 0 16 11 L 14 11 z M 20 11 A 1 1 0 0 0 19 12 A 1 1 0 0 0 20 13 L 22 13 A 1 1 0 0 0 23 12 A 1 1 0 0 0 22 11 L 20 11 z M 12 15 A 1 1 0 0 0 11 16 L 11 19.585938 L 9.7070312 18.292969 A 1 1 0 0 0 9 18 A 1 1 0 0 0 8.2929688 18.292969 A 1 1 0 0 0 8.2929688 19.707031 L 11.292969 22.707031 A 1.0001 1.0001 0 0 0 11.341797 22.75 A 1 1 0 0 0 11.384766 22.787109 A 1.0001 1.0001 0 0 0 11.439453 22.824219 A 1 1 0 0 0 11.492188 22.861328 A 1.0001 1.0001 0 0 0 11.5 22.865234 A 1 1 0 0 0 11.611328 22.921875 A 1.0001 1.0001 0 0 0 11.617188 22.923828 A 1 1 0 0 0 11.794922 22.976562 A 1.0001 1.0001 0 0 0 12.257812 22.964844 A 1 1 0 0 0 12.382812 22.923828 A 1.0001 1.0001 0 0 0 12.560547 22.824219 A 1 1 0 0 0 12.615234 22.787109 A 1.0001 1.0001 0 0 0 12.658203 22.75 A 1 1 0 0 0 12.716797 22.697266 L 15.707031 19.707031 A 1 1 0 0 0 15.707031 18.292969 A 1 1 0 0 0 14.292969 18.292969 L 13 19.585938 L 13 16 A 1 1 0 0 0 12 15 z "/>
</svg>
