<svg xmlns="http://www.w3.org/2000/svg" xmlns:svg="http://www.w3.org/2000/svg" width="24" height="24" viewBox="0 0 24 24" fill="currentColor" tags="building,education,childhood,school,college,academy,institute" categories="buildings,navigation">
  <path d="M 12 1.0019531 C 11.399652 1.0016905 10.799117 1.1814536 10.285156 1.5390625 L 5.5722656 4.8183594 A 1.0001 1.0001 0 0 0 5.5703125 4.8203125 C 5.4025966 4.93738 5.2045278 4.9998233 5 5 L 3 5 C 1.9072751 5 1 5.9072751 1 7 L 1 19 C 1 20.64501 2.3549904 22 4 22 L 20 22 C 21.64501 22 23 20.64501 23 19 L 23 7 C 23 5.9072751 22.092725 5 21 5 L 19 5 C 18.795526 4.99997 18.595505 4.937199 18.427734 4.8203125 L 13.714844 1.5390625 C 13.201196 1.1810041 12.600348 1.0022157 12 1.0019531 z M 12 2.9980469 C 12.199089 2.998009 12.397255 3.0590508 12.570312 3.1796875 A 1.0001 1.0001 0 0 0 12.572266 3.1816406 L 17.285156 6.4609375 C 17.788069 6.8113552 18.387008 6.9999102 19 7 L 21 7 L 21 19 C 21 19.564129 20.564129 20 20 20 L 15 20 L 15 18 C 15 17.083334 14.620244 16.268559 14.039062 15.751953 C 13.45788 15.235347 12.722222 15 12 15 C 11.277778 15 10.542119 15.235347 9.9609375 15.751953 C 9.3797556 16.268559 9 17.083334 9 18 L 9 20 L 4 20 C 3.4358706 20 3 19.564129 3 19 L 3 7 L 5 7 C 5.6131522 6.9994702 6.2120591 6.8118839 6.7148438 6.4609375 L 11.427734 3.1796875 C 11.600897 3.0592023 11.800911 2.9980847 12 2.9980469 z M 12 7 C 10.35499 7 9 8.3549904 9 10 C 9 11.64501 10.35499 13 12 13 C 13.64501 13 15 11.64501 15 10 C 15 8.3549904 13.64501 7 12 7 z M 12 9 C 12.564129 9 13 9.4358706 13 10 C 13 10.564129 12.564129 11 12 11 C 11.435871 11 11 10.564129 11 10 C 11 9.4358706 11.435871 9 12 9 z M 6 11 A 1 1 0 0 0 5 12 A 1 1 0 0 0 6 13 L 6.0097656 13 A 1 1 0 0 0 7.0097656 12 A 1 1 0 0 0 6.0097656 11 L 6 11 z M 18 11 A 1 1 0 0 0 17 12 A 1 1 0 0 0 18 13 L 18.009766 13 A 1 1 0 0 0 19.009766 12 A 1 1 0 0 0 18.009766 11 L 18 11 z M 6 15 A 1 1 0 0 0 5 16 A 1 1 0 0 0 6 17 L 6.0097656 17 A 1 1 0 0 0 7.0097656 16 A 1 1 0 0 0 6.0097656 15 L 6 15 z M 18 15 A 1 1 0 0 0 17 16 A 1 1 0 0 0 18 17 L 18.009766 17 A 1 1 0 0 0 19.009766 16 A 1 1 0 0 0 18.009766 15 L 18 15 z M 12 17 C 12.277778 17 12.542119 17.09799 12.710938 17.248047 C 12.879755 17.398107 13 17.583334 13 18 L 13 20 L 11 20 L 11 18 C 11 17.583334 11.120244 17.398107 11.289062 17.248047 C 11.45788 17.097986 11.722222 17 12 17 z "/>
</svg>
