<?xml version="1.0" encoding="UTF-8" standalone="no"?>
<svg xmlns="http://www.w3.org/2000/svg" xmlns:svg="http://www.w3.org/2000/svg" width="24" height="24" viewBox="0 0 24 24" fill="currentColor" tags="building,education,childhood,school" categories="buildings,navigation">
  <path d="M 11.935547 3.0019531 A 1.0001 1.0001 0 0 0 11.445312 3.1679688 L 5.6972656 7 L 2 7 A 1.0001 1.0001 0 0 0 1 8 L 1 20 C 1 21.64501 2.3549904 23 4 23 L 10 23 L 14 23 L 20 23 C 21.64501 23 23 21.64501 23 20 L 23 8 A 1.0001 1.0001 0 0 0 22 7 L 18.302734 7 L 12.554688 3.1679688 A 1.0001 1.0001 0 0 0 11.935547 3.0019531 z M 12 5.2011719 L 17.445312 8.8320312 A 1.0001 1.0001 0 0 0 18 9 L 21 9 L 21 20 C 21 20.564129 20.564129 21 20 21 L 15 21 L 15 17 C 15 15.35499 13.64501 14 12 14 C 10.35499 14 9 15.35499 9 17 L 9 21 L 4 21 C 3.4358706 21 3 20.564129 3 20 L 3 9 L 6 9 A 1.0001 1.0001 0 0 0 6.5546875 8.8320312 L 12 5.2011719 z M 12 8 C 10.907275 8 10 8.9072751 10 10 C 10 11.092725 10.907275 12 12 12 C 13.092725 12 14 11.092725 14 10 C 14 8.9072751 13.092725 8 12 8 z M 6 12 A 1 1 0 0 0 5 13 L 5 13.009766 A 1 1 0 0 0 6 14.009766 A 1 1 0 0 0 7 13.009766 L 7 13 A 1 1 0 0 0 6 12 z M 18 12 A 1 1 0 0 0 17 13 L 17 13.009766 A 1 1 0 0 0 18 14.009766 A 1 1 0 0 0 19 13.009766 L 19 13 A 1 1 0 0 0 18 12 z M 6 16 A 1 1 0 0 0 5 17 L 5 17.009766 A 1 1 0 0 0 6 18.009766 A 1 1 0 0 0 7 17.009766 L 7 17 A 1 1 0 0 0 6 16 z M 12 16 C 12.564129 16 13 16.435871 13 17 L 13 21 L 11 21 L 11 17 C 11 16.435871 11.435871 16 12 16 z M 18 16 A 1 1 0 0 0 17 17 L 17 17.009766 A 1 1 0 0 0 18 18.009766 A 1 1 0 0 0 19 17.009766 L 19 17 A 1 1 0 0 0 18 16 z "/>
</svg>
