<?xml version="1.0" encoding="UTF-8" standalone="no"?>
<svg xmlns="http://www.w3.org/2000/svg" xmlns:svg="http://www.w3.org/2000/svg" width="24" height="24" viewBox="0 0 24 24" fill="currentColor" tags="url,unchain" categories="text">
  <path d="M 8 1 A 1 1 0 0 0 7 2 L 7 5 A 1 1 0 0 0 8 6 A 1 1 0 0 0 9 5 L 9 2 A 1 1 0 0 0 8 1 z M 16.945312 1.0722656 C 15.440485 1.0722656 13.934903 1.6318012 12.775391 2.75 A 1.0001 1.0001 0 0 0 12.765625 2.7617188 L 11.044922 4.4707031 A 1 1 0 0 0 11.041016 5.8847656 A 1 1 0 0 0 12.455078 5.8886719 L 14.169922 4.1855469 C 15.729614 2.6867416 18.168862 2.6872496 19.726562 4.1894531 C 21.319948 5.7342442 21.361705 8.2485086 19.820312 9.8457031 A 1.0001 1.0001 0 0 0 19.816406 9.8691406 L 18.134766 11.541016 A 1 1 0 0 0 18.130859 12.955078 A 1 1 0 0 0 19.544922 12.958984 L 21.265625 11.25 A 1.0001 1.0001 0 0 0 21.294922 11.177734 C 23.537878 8.7996973 23.469728 5.0315279 21.115234 2.7519531 A 1.0001 1.0001 0 0 0 21.113281 2.75 C 19.953769 1.6318012 18.45014 1.0722656 16.945312 1.0722656 z M 2 7 A 1 1 0 0 0 1 8 A 1 1 0 0 0 2 9 L 5 9 A 1 1 0 0 0 6 8 A 1 1 0 0 0 5 7 L 2 7 z M 5.1699219 10.75 A 1 1 0 0 0 4.4628906 11.042969 L 2.7519531 12.751953 A 1.0001 1.0001 0 0 0 2.7402344 12.765625 C 0.44838617 15.140444 0.51364463 18.952373 2.8847656 21.248047 A 1.0001 1.0001 0 0 0 2.8867188 21.25 C 5.2057432 23.486398 8.9055852 23.486398 11.224609 21.25 A 1.0001 1.0001 0 0 0 11.236328 21.236328 L 12.947266 19.527344 A 1 1 0 0 0 12.947266 18.113281 A 1 1 0 0 0 11.533203 18.113281 L 9.8300781 19.814453 C 8.2710627 21.312608 5.8331794 21.312794 4.2753906 19.8125 L 4.2734375 19.810547 C 2.6818134 18.267463 2.6395881 15.757606 4.1757812 14.160156 C 4.1774812 14.158356 4.1779775 14.156097 4.1796875 14.154297 L 5.8769531 12.457031 A 1 1 0 0 0 5.8769531 11.042969 A 1 1 0 0 0 5.1699219 10.75 z M 19 15 A 1 1 0 0 0 18 16 A 1 1 0 0 0 19 17 L 22 17 A 1 1 0 0 0 23 16 A 1 1 0 0 0 22 15 L 19 15 z M 16 18 A 1 1 0 0 0 15 19 L 15 22 A 1 1 0 0 0 16 23 A 1 1 0 0 0 17 22 L 17 19 A 1 1 0 0 0 16 18 z "/>
</svg>
