<?xml version="1.0" encoding="UTF-8" standalone="no"?>
<svg xmlns="http://www.w3.org/2000/svg" xmlns:svg="http://www.w3.org/2000/svg" width="24" height="24" viewBox="0 0 24 24" fill="currentColor" tags="url,unchain" categories="text">
  
  <path d="M 8 1 A 1 1 0 0 0 7 2 L 7 5 A 1 1 0 0 0 8 6 A 1 1 0 0 0 9 5 L 9 2 A 1 1 0 0 0 8 1 z M 16.945312 1.0722656 C 15.440489 1.0722656 13.9349 1.6318034 12.775391 2.75 A 1.0001 1.0001 0 0 0 12.765625 2.7617188 L 11.044922 4.4707031 A 1 1 0 0 0 11.041016 5.8847656 A 1 1 0 0 0 12.455078 5.8886719 L 14.169922 4.1855469 C 15.72961 2.6867446 18.168865 2.6872526 19.726562 4.1894531 C 21.319945 5.7342411 21.361702 8.2485118 19.820312 9.8457031 A 1.0001 1.0001 0 0 0 19.816406 9.8691406 L 18.134766 11.541016 A 1 1 0 0 0 18.130859 12.955078 A 1 1 0 0 0 19.544922 12.958984 L 21.265625 11.25 A 1.0001 1.0001 0 0 0 21.294922 11.177734 C 23.537874 8.7997021 23.469723 5.0315233 21.115234 2.7519531 A 1.0001 1.0001 0 0 0 21.113281 2.75 C 19.953771 1.6318034 18.450137 1.0722656 16.945312 1.0722656 z M 2 7 A 1 1 0 0 0 1 8 A 1 1 0 0 0 2 9 L 5 9 A 1 1 0 0 0 6 8 A 1 1 0 0 0 5 7 L 2 7 z M 5.1699219 10.75 A 1 1 0 0 0 4.4628906 11.042969 L 2.7519531 12.751953 A 1.0001 1.0001 0 0 0 2.7402344 12.765625 C 0.44839077 15.140439 0.51364937 18.952378 2.8847656 21.248047 A 1.0001 1.0001 0 0 0 2.8867188 21.25 C 5.2057386 23.486393 8.9055898 23.486393 11.224609 21.25 A 1.0001 1.0001 0 0 0 11.236328 21.236328 L 12.947266 19.527344 A 1 1 0 0 0 12.947266 18.113281 A 1 1 0 0 0 11.533203 18.113281 L 9.8300781 19.814453 C 8.2710659 21.312606 5.8331764 21.31279 4.2753906 19.8125 L 4.2734375 19.810547 C 2.681816 18.267513 2.6395914 15.757603 4.1757812 14.160156 C 4.1774812 14.158356 4.1779775 14.156097 4.1796875 14.154297 L 5.8769531 12.457031 A 1 1 0 0 0 5.8769531 11.042969 A 1 1 0 0 0 5.1699219 10.75 z M 19 15 A 1 1 0 0 0 18 16 A 1 1 0 0 0 19 17 L 22 17 A 1 1 0 0 0 23 16 A 1 1 0 0 0 22 15 L 19 15 z M 16 18 A 1 1 0 0 0 15 19 L 15 22 A 1 1 0 0 0 16 23 A 1 1 0 0 0 17 22 L 17 19 A 1 1 0 0 0 16 18 z "/>
</svg>
