<?xml version="1.0" encoding="UTF-8" standalone="no"?>
<svg xmlns="http://www.w3.org/2000/svg" xmlns:svg="http://www.w3.org/2000/svg" width="24" height="24" viewBox="0 0 24 24" fill="currentColor" tags="electricity,energy,electronics,socket,outlet,disconnect" categories="devices,development">
  
  <path d="M 21.888672 1.0058594 A 1 1 0 0 0 21.292969 1.2929688 L 19 3.5859375 L 18.408203 2.9941406 C 17.748065 2.3317502 16.874095 2 16 2 C 15.125905 2 14.251935 2.3317063 13.591797 2.9941406 L 11.292969 5.2929688 A 1.0001 1.0001 0 0 0 11.292969 6.7070312 L 17.292969 12.707031 A 1.0001 1.0001 0 0 0 18.707031 12.707031 L 21.005859 10.408203 L 21.007812 10.40625 C 22.330022 9.0864412 22.330022 6.9135588 21.007812 5.59375 L 21.005859 5.5917969 L 20.414062 5 L 22.707031 2.7070312 A 1 1 0 0 0 22.707031 1.2929688 A 1 1 0 0 0 21.888672 1.0058594 z M 16 3.9882812 C 16.356939 3.9882812 16.714401 4.1274962 16.992188 4.40625 L 18.292969 5.7070312 L 19.59375 7.0078125 C 20.151257 7.5633877 20.151257 8.4366123 19.59375 8.9921875 L 18 10.585938 L 13.414062 6 L 15.007812 4.40625 C 15.285599 4.1274962 15.643061 3.9882813 16 3.9882812 z M 10 10 A 1 1 0 0 0 9.2929688 10.292969 L 7.5 12.085938 L 6.7070312 11.292969 A 1.0001 1.0001 0 0 0 5.2929688 11.292969 L 2.9921875 13.59375 C 1.6693135 14.914222 1.6699401 17.088589 2.9941406 18.408203 L 3.5859375 19 L 1.2929688 21.292969 A 1 1 0 0 0 1.2929688 22.707031 A 1 1 0 0 0 2.7070312 22.707031 L 5 20.414062 L 5.59375 21.007812 C 6.9142221 22.330687 9.0885896 22.33011 10.408203 21.005859 L 12.707031 18.707031 A 1.0001 1.0001 0 0 0 12.707031 17.292969 L 11.914062 16.5 L 13.707031 14.707031 A 1 1 0 0 0 13.707031 13.292969 A 1 1 0 0 0 13 13 A 1 1 0 0 0 12.292969 13.292969 L 10.5 15.085938 L 8.9140625 13.5 L 10.707031 11.707031 A 1 1 0 0 0 10.707031 10.292969 A 1 1 0 0 0 10 10 z M 6 13.414062 L 10.585938 18 L 8.9921875 19.59375 C 8.4366123 20.151257 7.5633877 20.151257 7.0078125 19.59375 L 4.40625 16.992188 C 3.8487423 16.436613 3.8487423 15.563387 4.40625 15.007812 L 6 13.414062 z "/>
</svg>
