<?xml version="1.0" encoding="UTF-8" standalone="no"?>
<svg xmlns="http://www.w3.org/2000/svg" xmlns:svg="http://www.w3.org/2000/svg" width="24" height="24" viewBox="0 0 24 24" fill="currentColor" tags="file" categories="arrows,files">
  <path d="M 12 2 A 1 1 0 0 0 11.925781 2.0117188 A 1.0001 1.0001 0 0 0 11.767578 2.0371094 A 1 1 0 0 0 11.619141 2.0859375 A 1.0001 1.0001 0 0 0 11.484375 2.1542969 A 1 1 0 0 0 11.355469 2.2460938 A 1.0001 1.0001 0 0 0 11.292969 2.2929688 L 6.2929688 7.2929688 A 1 1 0 0 0 6.2929688 8.7070312 A 1 1 0 0 0 7.7070312 8.7070312 L 11 5.4140625 L 11 15 A 1 1 0 0 0 12 16 A 1 1 0 0 0 13 15 L 13 5.4140625 L 16.292969 8.7070312 A 1 1 0 0 0 17.707031 8.7070312 A 1 1 0 0 0 17.707031 7.2929688 L 12.707031 2.2929688 A 1 1 0 0 0 12.457031 2.1132812 A 1 1 0 0 0 12.453125 2.109375 A 1.0001 1.0001 0 0 0 12.449219 2.1074219 A 1 1 0 0 0 12.169922 2.015625 A 1.0001 1.0001 0 0 0 12.144531 2.0117188 A 1 1 0 0 0 12 2 z M 3 14 A 1 1 0 0 0 2 15 L 2 19 C 2 20.64501 3.3549904 22 5 22 L 19 22 C 20.64501 22 22 20.64501 22 19 L 22 15 A 1 1 0 0 0 21 14 A 1 1 0 0 0 20 15 L 20 19 C 20 19.564129 19.564129 20 19 20 L 5 20 C 4.4358706 20 4 19.564129 4 19 L 4 15 A 1 1 0 0 0 3 14 z "/>
</svg>
