<?xml version="1.0" encoding="UTF-8" standalone="no"?>
<svg xmlns="http://www.w3.org/2000/svg" xmlns:svg="http://www.w3.org/2000/svg" width="24" height="24" viewBox="0 0 24 24" fill="currentColor" tags="universal,serial,bus,controller,connector,interface" categories="devices,multimedia,home">
  <path d="M 20.955078 2 A 1.0001 1.0001 0 0 0 20.683594 2.0507812 L 17.683594 3.0507812 A 1.0001 1.0001 0 0 0 17.292969 4.7070312 L 17.585938 5 L 7.3652344 15.220703 L 6.171875 12.236328 L 9.4433594 8.9199219 C 9.6204889 8.9723438 9.8073945 9 10 9 C 11.092725 9 12 8.0927249 12 7 C 12 5.9072751 11.092725 5 10 5 C 8.9072751 5 8 5.9072751 8 7 C 8 7.163483 8.0203954 7.3218455 8.0585938 7.4746094 L 4.2871094 11.298828 A 1.0001 1.0001 0 0 0 4.0722656 12.371094 L 5.828125 16.757812 L 4.5175781 18.068359 C 4.3523706 18.023231 4.1782024 18 4 18 C 2.9072751 18 2 18.907275 2 20 C 2 21.092725 2.9072751 22 4 22 C 5.0927249 22 6 21.092725 6 20 C 6 19.821797 5.9767686 19.64763 5.9316406 19.482422 L 10.240234 15.171875 L 14.628906 16.927734 A 1.0001 1.0001 0 0 0 15.707031 16.707031 L 18.53125 13.882812 A 1.0001 1.0001 0 0 0 19.707031 13.707031 L 20.707031 12.707031 A 1.0001 1.0001 0 0 0 20.707031 11.292969 L 19.707031 10.292969 A 1.0001 1.0001 0 0 0 18.292969 10.292969 L 17.292969 11.292969 A 1.0001 1.0001 0 0 0 17.117188 12.46875 L 14.759766 14.826172 L 11.777344 13.634766 L 19 6.4140625 L 19.292969 6.7070312 A 1.0001 1.0001 0 0 0 20.949219 6.3164062 L 21.949219 3.3164062 A 1.0001 1.0001 0 0 0 20.955078 2 z "/>
</svg>
