<?xml version="1.0" encoding="UTF-8" standalone="no"?>
<svg xmlns="http://www.w3.org/2000/svg" xmlns:svg="http://www.w3.org/2000/svg" width="24" height="24" viewBox="0 0 24 24" fill="currentColor" tags="universal,serial,bus,controller,connector,interface" categories="devices,multimedia,home">
  <path d="M 21.046875 2 A 1.0001 1.0001 0 0 0 20.683594 2.0507812 L 17.683594 3.0507812 A 1.0001 1.0001 0 0 0 17.292969 4.7070312 L 17.585938 5 L 7.3652344 15.220703 L 6.171875 12.236328 L 9.4453125 8.9179688 C 9.622051 8.970141 9.807872 9 10 9 C 11.092723 9 12 8.0927227 12 7 C 12 5.9072773 11.092723 5 10 5 C 8.9072773 5 8 5.9072773 8 7 C 8 7.1630228 8.0206032 7.3222386 8.0585938 7.4746094 L 4.2871094 11.298828 A 1.0001 1.0001 0 0 0 4.0722656 12.371094 L 5.828125 16.757812 L 4.515625 18.070312 C 4.3506973 18.025348 4.1778679 18 4 18 C 2.9072773 18 2 18.907277 2 20 C 2 21.092723 2.9072773 22 4 22 C 5.0927227 22 6 21.092723 6 20 C 6 19.822132 5.9746522 19.649303 5.9296875 19.484375 L 10.242188 15.171875 L 14.628906 16.927734 A 1.0001 1.0001 0 0 0 15.707031 16.707031 L 18.535156 13.878906 A 1.0001 1.0001 0 0 0 19.707031 13.707031 L 20.707031 12.707031 A 1.0001 1.0001 0 0 0 20.707031 11.292969 L 19.707031 10.292969 A 1.0001 1.0001 0 0 0 18.292969 10.292969 L 17.292969 11.292969 A 1.0001 1.0001 0 0 0 17.121094 12.464844 L 14.759766 14.826172 L 11.779297 13.634766 L 19 6.4140625 L 19.292969 6.7070312 A 1.0001 1.0001 0 0 0 20.949219 6.3164062 L 21.949219 3.3164062 A 1.0001 1.0001 0 0 0 21.046875 2 z "/>
</svg>
