<?xml version="1.0" encoding="UTF-8" standalone="no"?>
<svg xmlns="http://www.w3.org/2000/svg" xmlns:svg="http://www.w3.org/2000/svg" width="24" height="24" viewBox="0 0 24 24" fill="currentColor" tags="delete,remove,unfollow,unsubscribe" categories="account">
  <path d="M 9 2 C 6.2504209 2 4 4.2504209 4 7 C 4 9.7495791 6.2504209 12 9 12 C 11.749579 12 14 9.7495791 14 7 C 14 4.2504209 11.749579 2 9 2 z M 9 4 C 10.668699 4 12 5.3313011 12 7 C 12 8.6686989 10.668699 10 9 10 C 7.3313011 10 6 8.6686989 6 7 C 6 5.3313011 7.3313011 4 9 4 z M 16 10 A 1 1 0 0 0 15 11 A 1 1 0 0 0 16 12 L 22 12 A 1 1 0 0 0 23 11 A 1 1 0 0 0 22 10 L 16 10 z M 6 14 C 3.2504209 14 1 16.250421 1 19 L 1 21 A 1 1 0 0 0 2 22 A 1 1 0 0 0 3 21 L 3 19 C 3 17.331301 4.3313011 16 6 16 L 12 16 C 13.668699 16 15 17.331301 15 19 L 15 21 A 1 1 0 0 0 16 22 A 1 1 0 0 0 17 21 L 17 19 C 17 16.250421 14.749579 14 12 14 L 6 14 z "/>
</svg>
