<?xml version="1.0" encoding="UTF-8" standalone="no"?>
<svg xmlns="http://www.w3.org/2000/svg" xmlns:svg="http://www.w3.org/2000/svg" width="24" height="24" viewBox="0 0 24 24" fill="currentColor" tags="person,account,contact,find,scan,magnifier,magnifying glass" categories="account,social">
  <path d="M 10 2 C 6.6981361 2 4 4.6981361 4 8 C 4 9.9437088 4.9342145 11.67735 6.3769531 12.775391 C 3.2748028 14.156663 1.0003457 17.251226 1 21 A 1 1 0 0 0 2 22 A 1 1 0 0 0 3 21 C 3.0003618 17.076504 6.1041646 14.113539 9.734375 13.994141 C 9.8225002 13.998024 9.9109555 14 10 14 C 10.077167 14 10.153988 13.999014 10.230469 13.996094 C 10.855635 14.020273 11.492697 14.128831 12.128906 14.332031 A 1 1 0 0 0 13.386719 13.683594 A 1 1 0 0 0 13.347656 12.972656 C 14.945396 11.892162 16 10.064551 16 8 C 16 4.6981361 13.301864 2 10 2 z M 10 4 C 12.220984 4 14 5.7790164 14 8 C 14 10.203207 12.248838 11.971835 10.052734 12 C 10.035099 11.999914 10.01762 11.99998 10 12 C 7.7790164 12 6 10.220984 6 8 C 6 5.7790164 7.7790164 4 10 4 z M 18 14 C 15.802706 14 14 15.802706 14 18 C 14 20.197294 15.802706 22 18 22 C 18.738545 22 19.433377 21.797207 20.029297 21.443359 L 21.292969 22.707031 A 1 1 0 0 0 22.707031 22.707031 A 1 1 0 0 0 22.707031 21.292969 L 21.443359 20.029297 C 21.797207 19.433377 22 18.738545 22 18 C 22 15.802706 20.197294 14 18 14 z M 18 16 C 19.116414 16 20 16.883586 20 18 C 20 18.477709 19.838982 18.912441 19.566406 19.253906 A 1 1 0 0 0 19.392578 19.392578 A 1 1 0 0 0 19.253906 19.566406 C 18.912441 19.838982 18.477709 20 18 20 C 16.883586 20 16 19.116414 16 18 C 16 16.883586 16.883586 16 18 16 z "/>
</svg>
