<?xml version="1.0" encoding="UTF-8" standalone="no"?>
<svg xmlns="http://www.w3.org/2000/svg" xmlns:svg="http://www.w3.org/2000/svg" width="24" height="24" viewBox="0 0 24 24" fill="currentColor" tags="person,account,contact" categories="account">
  <path d="M 12 2 C 8.6981361 2 6 4.6981361 6 8 C 6 9.9396009 6.9315948 11.671129 8.3691406 12.769531 C 5.2119625 14.169606 3 17.332707 3 21 A 1 1 0 0 0 4 22 A 1 1 0 0 0 5 21 C 5 17.122159 8.1221613 14 12 14 C 15.877839 14 19 17.122159 19 21 A 1 1 0 0 0 20 22 A 1 1 0 0 0 21 21 C 21 17.332707 18.788037 14.169606 15.630859 12.769531 C 17.068405 11.671129 18 9.9396009 18 8 C 18 4.6981361 15.301864 2 12 2 z M 12 4 C 14.220984 4 16 5.7790164 16 8 C 16 10.220984 14.220984 12 12 12 C 9.7790164 12 8 10.220984 8 8 C 8 5.7790164 9.7790164 4 12 4 z "/>
</svg>
