<?xml version="1.0" encoding="UTF-8" standalone="no"?>
<svg xmlns="http://www.w3.org/2000/svg" xmlns:svg="http://www.w3.org/2000/svg" width="24" height="24" viewBox="0 0 24 24" fill="currentColor" tags="settings,edit,cog,gear" categories="account">
  <path d="M 9 2 C 6.2504209 2 4 4.2504209 4 7 C 4 9.7495791 6.2504209 12 9 12 C 11.749579 12 14 9.7495791 14 7 C 14 4.2504209 11.749579 2 9 2 z M 9 4 C 10.668699 4 12 5.3313011 12 7 C 12 8.6686989 10.668699 10 9 10 C 7.3313011 10 6 8.6686989 6 7 C 6 5.3313011 7.3313011 4 9 4 z M 16.412109 10.300781 A 1 1 0 0 0 16.029297 10.371094 A 1 1 0 0 0 15.470703 11.671875 L 15.542969 11.851562 C 15.23689 12.091426 14.966025 12.3743 14.740234 12.691406 L 14.617188 12.650391 A 1 1 0 0 0 13.351562 13.283203 A 1 1 0 0 0 13.984375 14.548828 L 14.023438 14.5625 C 14.007534 14.706387 14 14.852108 14 15 C 14 15.211861 14.016572 15.419785 14.048828 15.623047 L 13.927734 15.671875 A 1 1 0 0 0 13.371094 16.970703 A 1 1 0 0 0 14.671875 17.529297 L 14.851562 17.457031 C 15.091426 17.76311 15.3743 18.033975 15.691406 18.259766 L 15.650391 18.382812 A 1 1 0 0 0 16.283203 19.648438 A 1 1 0 0 0 17.548828 19.015625 L 17.5625 18.976562 C 17.706387 18.992466 17.852108 19 18 19 C 18.211861 19 18.419785 18.983428 18.623047 18.951172 L 18.671875 19.072266 A 1 1 0 0 0 19.970703 19.628906 A 1 1 0 0 0 20.529297 18.328125 L 20.457031 18.148438 C 20.76311 17.908574 21.033975 17.6257 21.259766 17.308594 L 21.382812 17.349609 A 1 1 0 0 0 22.648438 16.716797 A 1 1 0 0 0 22.015625 15.451172 L 21.976562 15.4375 C 21.992466 15.293613 22 15.147892 22 15 C 22 14.788139 21.983428 14.580215 21.951172 14.376953 L 22.072266 14.328125 A 1 1 0 0 0 22.628906 13.029297 A 1 1 0 0 0 21.328125 12.470703 L 21.148438 12.542969 C 20.908574 12.23689 20.6257 11.966025 20.308594 11.740234 L 20.349609 11.617188 A 1 1 0 0 0 19.716797 10.351562 A 1 1 0 0 0 18.451172 10.984375 L 18.4375 11.023438 C 18.293613 11.007534 18.147892 11 18 11 C 17.788139 11 17.580215 11.016572 17.376953 11.048828 L 17.328125 10.927734 A 1 1 0 0 0 16.412109 10.300781 z M 18 13 C 18.731654 13 19.362454 13.379255 19.710938 13.955078 A 1 1 0 0 0 19.771484 14.171875 A 1 1 0 0 0 19.917969 14.423828 C 19.971399 14.605852 20 14.799106 20 15 C 20 15.731654 19.620745 16.362454 19.044922 16.710938 A 1 1 0 0 0 18.828125 16.771484 A 1 1 0 0 0 18.576172 16.917969 C 18.394148 16.971399 18.200894 17 18 17 C 17.268346 17 16.637546 16.620745 16.289062 16.044922 A 1 1 0 0 0 16.228516 15.828125 A 1 1 0 0 0 16.082031 15.576172 C 16.028601 15.394148 16 15.200894 16 15 C 16 14.268346 16.379255 13.637546 16.955078 13.289062 A 1 1 0 0 0 17.171875 13.228516 A 1 1 0 0 0 17.423828 13.082031 C 17.605852 13.028601 17.799106 13 18 13 z M 6 14 C 3.2504209 14 1 16.250421 1 19 L 1 21 A 1 1 0 0 0 2 22 A 1 1 0 0 0 3 21 L 3 19 C 3 17.331301 4.3313011 16 6 16 L 10 16 A 1 1 0 0 0 11 15 A 1 1 0 0 0 10 14 L 6 14 z "/>
</svg>
