<svg xmlns="http://www.w3.org/2000/svg" xmlns:svg="http://www.w3.org/2000/svg" width="24" height="24" viewBox="0 0 24 24" fill="currentColor" tags="person,account,contact" categories="account">
  <path d="M 12 2 C 9.2504209 2 7 4.2504209 7 7 C 7 9.7495791 9.2504209 12 12 12 C 14.749579 12 17 9.7495791 17 7 C 17 4.2504209 14.749579 2 12 2 z M 12 4 C 13.668699 4 15 5.3313011 15 7 C 15 8.6686989 13.668699 10 12 10 C 10.331301 10 9 8.6686989 9 7 C 9 5.3313011 10.331301 4 12 4 z M 9 14 C 6.2504209 14 4 16.250421 4 19 L 4 21 A 1 1 0 0 0 5 22 A 1 1 0 0 0 6 21 L 6 19 C 6 17.331301 7.3313011 16 9 16 L 15 16 C 16.668699 16 18 17.331301 18 19 L 18 21 A 1 1 0 0 0 19 22 A 1 1 0 0 0 20 21 L 20 19 C 20 16.250421 17.749579 14 15 14 L 9 14 z "/>
</svg>
