<svg xmlns="http://www.w3.org/2000/svg" xmlns:svg="http://www.w3.org/2000/svg" width="24" height="24" viewBox="0 0 24 24" fill="currentColor" tags="person,account,favorite,contact,like,review,rating,admin" categories="account">
  <path d="M 10 2 C 7.2504209 2 5 4.2504209 5 7 C 5 9.7495791 7.2504209 12 10 12 C 12.749579 12 15 9.7495791 15 7 C 15 4.2504209 12.749579 2 10 2 z M 10 4 C 11.668699 4 13 5.3313011 13 7 C 13 8.6686989 11.668699 10 10 10 C 8.3313011 10 7 8.6686989 7 7 C 7 5.3313011 8.3313011 4 10 4 z M 17.027344 10.925781 C 16.262212 10.916194 15.439209 11.399536 15.128906 12.224609 L 14.410156 13.638672 A 1.0001 1.0001 0 0 0 14.408203 13.638672 L 12.835938 13.884766 C 11.959417 13.926413 11.247949 14.555621 11.019531 15.283203 C 10.791204 16.010498 11.014224 16.933449 11.708984 17.46875 L 12.808594 18.566406 L 12.5625 20.105469 C 12.317653 20.947937 12.682798 21.825266 13.296875 22.277344 C 13.911749 22.730009 14.861705 22.814354 15.59375 22.328125 L 16.998047 21.609375 A 1.0001 1.0001 0 0 0 17 21.609375 L 18.408203 22.330078 C 19.140151 22.81743 20.08777 22.73214 20.703125 22.279297 C 21.316764 21.827728 21.680975 20.950988 21.4375 20.109375 L 21.189453 18.566406 L 21.189453 18.564453 L 22.314453 17.443359 C 22.992881 16.898703 23.201218 15.983681 22.966797 15.263672 C 22.7327 14.544661 22.027572 13.927197 21.160156 13.884766 L 19.587891 13.638672 L 18.884766 12.253906 C 18.590448 11.431334 17.787347 10.935336 17.027344 10.925781 z M 17.001953 12.925781 A 1.0001 1.0001 0 0 0 17.068359 13.091797 L 17.804688 14.544922 C 18.095239 15.116745 18.645595 15.516127 19.279297 15.615234 L 20.914062 15.871094 A 1.0001 1.0001 0 0 0 21.064453 15.882812 A 1.0001 1.0001 0 0 0 20.949219 15.980469 L 19.779297 17.148438 C 19.324729 17.601004 19.113922 18.247406 19.214844 18.880859 L 19.474609 20.494141 A 1.0001 1.0001 0 0 0 19.517578 20.667969 A 1.0001 1.0001 0 0 0 19.375 20.580078 L 17.910156 19.830078 C 17.338416 19.537135 16.659631 19.537135 16.087891 19.830078 L 14.623047 20.580078 A 1.0001 1.0001 0 0 0 14.482422 20.666016 A 1.0001 1.0001 0 0 0 14.527344 20.494141 L 14.785156 18.882812 A 1.0001 1.0001 0 0 0 14.785156 18.880859 C 14.885971 18.248091 14.67431 17.60289 14.220703 17.150391 L 14.220703 17.148438 L 13.064453 15.996094 A 1.0001 1.0001 0 0 0 12.927734 15.882812 A 1.0001 1.0001 0 0 0 13.085938 15.871094 L 14.71875 15.615234 C 15.352452 15.516124 15.902809 15.116745 16.193359 14.544922 L 16.943359 13.068359 A 1.0001 1.0001 0 0 0 17.001953 12.925781 z M 7 14 C 4.2504209 14 2 16.250421 2 19 L 2 21 A 1 1 0 0 0 3 22 A 1 1 0 0 0 4 21 L 4 19 C 4 17.331301 5.3313011 16 7 16 L 8 16 A 1 1 0 0 0 9 15 A 1 1 0 0 0 8 14 L 7 14 z "/>
</svg>
