<?xml version="1.0" encoding="UTF-8" standalone="no"?>
<svg xmlns="http://www.w3.org/2000/svg" xmlns:svg="http://www.w3.org/2000/svg" width="24" height="24" viewBox="0 0 24 24" fill="currentColor" tags="settings,edit,cog,gear" categories="account">
  <path d="M 10 2 C 6.6981361 2 4 4.6981361 4 8 C 4 9.9437088 4.9342145 11.67735 6.3769531 12.775391 C 3.2748028 14.156663 1.0003457 17.251226 1 21 A 1 1 0 0 0 2 22 A 1 1 0 0 0 3 21 C 3.0003618 17.076504 6.1041646 14.113539 9.734375 13.994141 C 9.8225002 13.998024 9.9109555 14 10 14 C 10.077167 14 10.153988 13.999014 10.230469 13.996094 C 10.855635 14.020273 11.492697 14.128831 12.128906 14.332031 A 1 1 0 0 0 13.386719 13.683594 A 1 1 0 0 0 13.347656 12.972656 C 14.945396 11.892162 16 10.064551 16 8 C 16 4.6981361 13.301864 2 10 2 z M 10 4 C 12.220984 4 14 5.7790164 14 8 C 14 10.203207 12.248838 11.971835 10.052734 12 C 10.019424 11.999838 9.9863812 11.999785 9.953125 12 C 7.7539122 11.975317 6 10.205427 6 8 C 6 5.7790164 7.7790164 4 10 4 z M 16.474609 13.300781 A 1 1 0 0 0 16.09375 13.386719 A 1 1 0 0 0 15.585938 14.707031 L 15.623047 14.789062 C 15.306562 15.024571 15.024571 15.306562 14.789062 15.623047 L 14.707031 15.585938 A 1 1 0 0 0 13.941406 15.566406 A 1 1 0 0 0 13.386719 16.09375 A 1 1 0 0 0 13.894531 17.414062 L 14.035156 17.476562 C 14.012412 17.648021 14 17.822661 14 18 C 14 18.177339 14.012412 18.35198 14.035156 18.523438 L 13.894531 18.585938 A 1 1 0 0 0 13.386719 19.90625 A 1 1 0 0 0 14.707031 20.414062 L 14.789062 20.376953 C 15.024571 20.693438 15.306562 20.975429 15.623047 21.210938 L 15.585938 21.292969 A 1 1 0 0 0 16.09375 22.613281 A 1 1 0 0 0 17.414062 22.105469 L 17.476562 21.964844 C 17.648021 21.987588 17.822661 22 18 22 C 18.177339 22 18.351979 21.987588 18.523438 21.964844 L 18.585938 22.105469 A 1 1 0 0 0 19.90625 22.613281 A 1 1 0 0 0 20.414062 21.292969 L 20.376953 21.210938 C 20.693438 20.975429 20.975429 20.693438 21.210938 20.376953 L 21.292969 20.414062 A 1 1 0 0 0 22.613281 19.90625 A 1 1 0 0 0 22.105469 18.585938 L 21.964844 18.523438 C 21.987588 18.351979 22 18.177339 22 18 C 22 17.822661 21.987588 17.648021 21.964844 17.476562 L 22.105469 17.414062 A 1 1 0 0 0 22.613281 16.09375 A 1 1 0 0 0 21.292969 15.585938 L 21.210938 15.623047 C 20.975429 15.306562 20.693438 15.024571 20.376953 14.789062 L 20.414062 14.707031 A 1 1 0 0 0 19.90625 13.386719 A 1 1 0 0 0 19.140625 13.367188 A 1 1 0 0 0 18.585938 13.894531 L 18.523438 14.035156 C 18.351979 14.012412 18.177339 14 18 14 C 17.822661 14 17.648021 14.012412 17.476562 14.035156 L 17.414062 13.894531 A 1 1 0 0 0 16.474609 13.300781 z M 18 16 C 19.116414 16 20 16.883586 20 18 C 20 19.116414 19.116414 20 18 20 C 16.883586 20 16 19.116414 16 18 C 16 16.883586 16.883586 16 18 16 z "/>
</svg>
