<svg xmlns="http://www.w3.org/2000/svg" xmlns:svg="http://www.w3.org/2000/svg" width="24" height="24" viewBox="0 0 24 24" fill="currentColor" tags="delete,remove,unfollow,unsubscribe" categories="account">
  <path d="M 10 2 C 6.6981361 2 4 4.6981361 4 8 C 4 9.9379595 4.9297618 11.667082 6.3652344 12.765625 C 6.3425019 12.775662 6.3195199 12.786653 6.296875 12.796875 C 3.2948827 14.151972 0.99978956 17.162492 1 21 A 1 1 0 0 0 2 22 A 1 1 0 0 0 3 21 C 2.9998327 17.948974 4.7665443 15.681101 7.1191406 14.619141 C 7.9150896 14.25985 8.7705973 14.042932 9.6425781 13.990234 C 9.7609258 13.997267 9.8799557 14 10 14 C 10.137732 14 10.274677 13.995566 10.410156 13.986328 C 11.870894 14.062451 13.343069 14.614086 14.630859 15.75 A 1 1 0 0 0 16.041016 15.662109 A 1 1 0 0 0 15.953125 14.25 C 15.231685 13.613643 14.454399 13.119365 13.646484 12.757812 C 15.075757 11.658864 16 9.9330473 16 8 C 16 4.6981361 13.301864 2 10 2 z M 10 4 C 12.220984 4 14 5.7790164 14 8 C 14 10.138131 12.350689 11.8662 10.246094 11.992188 C 10.089295 11.988532 9.9335748 11.989609 9.7773438 11.994141 C 7.6614602 11.879742 6 10.146136 6 8 C 6 5.7790164 7.7790164 4 10 4 z M 16 18 A 1 1 0 0 0 15 19 A 1 1 0 0 0 16 20 L 22 20 A 1 1 0 0 0 23 19 A 1 1 0 0 0 22 18 L 16 18 z "/>
</svg>
