<?xml version="1.0" encoding="UTF-8" standalone="no"?>
<svg xmlns="http://www.w3.org/2000/svg" xmlns:svg="http://www.w3.org/2000/svg" width="24" height="24" viewBox="0 0 24 24" fill="currentColor" tags="new,add,create,follow,subscribe" categories="account">
  <path d="M 10 2 C 6.6981427 2 4 4.6981427 4 8 C 4 9.9381929 4.9314167 11.667103 6.3671875 12.765625 C 6.3437182 12.77598 6.3202511 12.786323 6.296875 12.796875 C 3.2948887 14.15197 0.99978956 17.1625 1 21 A 1 1 0 0 0 2 22 A 1 1 0 0 0 3 21 C 2.9998327 17.94898 4.766549 15.681099 7.1191406 14.619141 C 7.9269379 14.254501 8.7961837 14.040676 9.6816406 13.992188 C 9.7868061 13.99773 9.8935083 14 10 14 C 10.130468 14 10.260219 13.994624 10.388672 13.986328 C 11.856276 14.058246 13.336914 14.608657 14.630859 15.75 A 1 1 0 0 0 16.041016 15.662109 A 1 1 0 0 0 15.953125 14.25 C 15.231268 13.613276 14.452948 13.119421 13.644531 12.757812 C 15.073983 11.658876 16 9.9331864 16 8 C 16 4.6981427 13.301858 2 10 2 z M 10 4 C 12.220979 4 14 5.7790208 14 8 C 14 10.144888 12.340689 11.875981 10.226562 11.992188 C 10.081732 11.989127 9.9373137 11.990215 9.7929688 11.994141 L 9.7910156 11.994141 C 7.6684012 11.886719 6 10.15091 6 8 C 6 5.7790208 7.7790208 4 10 4 z M 19 15 A 1 1 0 0 0 18 16 L 18 18 L 16 18 A 1 1 0 0 0 15 19 A 1 1 0 0 0 16 20 L 18 20 L 18 22 A 1 1 0 0 0 19 23 A 1 1 0 0 0 20 22 L 20 20 L 22 20 A 1 1 0 0 0 23 19 A 1 1 0 0 0 22 18 L 20 18 L 20 16 A 1 1 0 0 0 19 15 z "/>
</svg>
