<?xml version="1.0" encoding="UTF-8" standalone="no"?>
<svg xmlns="http://www.w3.org/2000/svg" xmlns:svg="http://www.w3.org/2000/svg" width="24" height="24" viewBox="0 0 24 24" fill="currentColor" tags="group,people" categories="account">
  <path d="M 10 2 C 6.6981361 2 4 4.6981361 4 8 C 4 9.9396009 4.9315948 11.671129 6.3691406 12.769531 C 3.2119625 14.169606 1 17.332707 1 21 A 1 1 0 0 0 2 22 A 1 1 0 0 0 3 21 C 3 17.122159 6.1221613 14 10 14 C 13.877839 14 17 17.122159 17 21 A 1 1 0 0 0 18 22 A 1 1 0 0 0 19 21 C 19 17.332707 16.788037 14.169606 13.630859 12.769531 C 15.068405 11.671129 16 9.9396009 16 8 C 16 4.6981361 13.301864 2 10 2 z M 17.693359 2.7089844 A 1 1 0 0 0 17.302734 2.7304688 A 1 1 0 0 0 16.689453 3.1894531 A 1 1 0 0 0 17.039062 4.5605469 C 19.519837 6.0319111 19.707544 9.4682679 17.400391 11.199219 A 1.0001 1.0001 0 0 0 17.400391 12.800781 C 19.122204 14.092141 21 17.025648 21 20 A 1 1 0 0 0 22 21 A 1 1 0 0 0 23 20 C 23 16.650159 21.302714 13.715512 19.328125 11.890625 C 21.740524 9.1673895 21.349406 4.7904892 18.060547 2.8398438 A 1 1 0 0 0 17.693359 2.7089844 z M 10 4 C 12.220984 4 14 5.7790164 14 8 C 14 10.220984 12.220984 12 10 12 C 7.7790164 12 6 10.220984 6 8 C 6 5.7790164 7.7790164 4 10 4 z "/>
</svg>
