<svg xmlns="http://www.w3.org/2000/svg" xmlns:svg="http://www.w3.org/2000/svg" width="24" height="24" viewBox="0 0 24 24" fill="currentColor" tags="person,lock,locked,account,secure" categories="account,security">
  <path d="M 10 2 C 7.2504209 2 5 4.2504209 5 7 C 5 9.7495791 7.2504209 12 10 12 C 12.749579 12 15 9.7495791 15 7 C 15 4.2504209 12.749579 2 10 2 z M 10 4 C 11.668699 4 13 5.3313011 13 7 C 13 8.6686989 11.668699 10 10 10 C 8.3313011 10 7 8.6686989 7 7 C 7 5.3313011 8.3313011 4 10 4 z M 17 11 C 16.277778 11 15.542119 11.235347 14.960938 11.751953 C 14.379755 12.268559 14 13.083334 14 14 L 14 15 L 13.898438 15 C 12.863689 15 12 15.863689 12 16.898438 L 12 20.101562 C 12 21.136311 12.863689 22 13.898438 22 L 20.101562 22 C 21.136311 22 22 21.136311 22 20.101562 L 22 16.898438 C 22 15.863689 21.136311 15 20.101562 15 L 20 15 L 20 14 C 20 13.083334 19.620244 12.268559 19.039062 11.751953 C 18.457881 11.235347 17.722222 11 17 11 z M 17 13 C 17.277778 13 17.542119 13.09799 17.710938 13.248047 C 17.879756 13.398107 18 13.583334 18 14 L 18 15 L 16 15 L 16 14 C 16 13.583334 16.120244 13.398107 16.289062 13.248047 C 16.457881 13.097986 16.722222 13 17 13 z M 7 14 C 4.2504209 14 2 16.250421 2 19 L 2 21 A 1 1 0 0 0 3 22 A 1 1 0 0 0 4 21 L 4 19 C 4 17.331301 5.3313011 16 7 16 L 10.300781 16 A 1 1 0 0 0 11.300781 15 A 1 1 0 0 0 10.300781 14 L 7 14 z M 14 17 L 20 17 L 20 20 L 14 20 L 14 17 z "/>
</svg>
