<?xml version="1.0" encoding="UTF-8" standalone="no"?>
<svg xmlns="http://www.w3.org/2000/svg" xmlns:svg="http://www.w3.org/2000/svg" width="24" height="24" viewBox="0 0 24 24" fill="currentColor" tags="person,account,contact,find,scan,magnifier,magnifying glass" categories="account,social">
  <path d="M 10 2 C 6.6981361 2 4 4.6981361 4 8 C 4 9.9446074 4.9369842 11.679384 6.3808594 12.777344 C 3.2772826 14.158003 1.0003458 17.250102 1 21 A 1 1 0 0 0 2 22 A 1 1 0 0 0 3 21 C 3.0003642 17.050604 6.1455821 14.076455 9.8066406 13.994141 C 9.8708228 13.996194 9.935339 14 10 14 C 10.054855 14 10.109551 13.997574 10.164062 13.996094 C 10.810496 14.014914 11.470151 14.12163 12.128906 14.332031 A 1 1 0 0 0 13.386719 13.683594 A 1 1 0 0 0 13.345703 12.974609 C 14.944301 11.894248 16 10.065211 16 8 C 16 4.6981361 13.301864 2 10 2 z M 10 4 C 12.220984 4 14 5.7790164 14 8 C 14 10.220984 12.220984 12 10 12 C 7.7790164 12 6 10.220984 6 8 C 6 5.7790164 7.7790164 4 10 4 z M 18 14 C 15.802706 14 14 15.802706 14 18 C 14 20.197294 15.802706 22 18 22 C 18.73848 22 19.43146 21.795196 20.027344 21.441406 L 21.292969 22.707031 A 1 1 0 0 0 22.707031 22.707031 A 1 1 0 0 0 22.707031 21.292969 L 21.441406 20.027344 C 21.795196 19.43146 22 18.73848 22 18 C 22 15.802706 20.197294 14 18 14 z M 18 16 C 19.116414 16 20 16.883586 20 18 C 20 18.480364 19.835875 18.91745 19.560547 19.259766 A 1 1 0 0 0 19.392578 19.392578 A 1 1 0 0 0 19.259766 19.560547 C 18.91745 19.835875 18.480364 20 18 20 C 16.883586 20 16 19.116414 16 18 C 16 16.883586 16.883586 16 18 16 z "/>
</svg>
