<?xml version="1.0" encoding="UTF-8" standalone="no"?>
<svg xmlns="http://www.w3.org/2000/svg" xmlns:svg="http://www.w3.org/2000/svg" width="24" height="24" viewBox="0 0 24 24" fill="currentColor" tags="settings,edit,cog,gear" categories="account">
  <path d="M 10 2 C 6.6981361 2 4 4.6981361 4 8 C 4 9.9446074 4.9369842 11.679384 6.3808594 12.777344 C 3.2772826 14.158003 1.0003458 17.250102 1 21 A 1 1 0 0 0 2 22 A 1 1 0 0 0 3 21 C 3.0003642 17.050604 6.1455821 14.076455 9.8066406 13.994141 C 9.8708228 13.996194 9.935339 14 10 14 C 10.054855 14 10.109551 13.997574 10.164062 13.996094 C 10.810496 14.014914 11.470151 14.12163 12.128906 14.332031 A 1 1 0 0 0 13.386719 13.683594 A 1 1 0 0 0 13.345703 12.974609 C 14.944301 11.894248 16 10.065211 16 8 C 16 4.6981361 13.301864 2 10 2 z M 10 4 C 12.220984 4 14 5.7790164 14 8 C 14 10.220984 12.220984 12 10 12 C 7.7790164 12 6 10.220984 6 8 C 6 5.7790164 7.7790164 4 10 4 z M 16.552734 13.302734 A 1 1 0 0 0 16.09375 13.386719 A 1 1 0 0 0 15.585938 14.707031 L 15.623047 14.791016 C 15.306469 15.026575 15.026575 15.306469 14.791016 15.623047 L 14.707031 15.585938 A 1 1 0 0 0 13.941406 15.566406 A 1 1 0 0 0 13.386719 16.09375 A 1 1 0 0 0 13.894531 17.414062 L 14.037109 17.476562 C 14.01426 17.648405 14 17.822248 14 18 C 14 18.177752 14.01426 18.351595 14.037109 18.523438 L 13.894531 18.585938 A 1 1 0 0 0 13.386719 19.90625 A 1 1 0 0 0 14.707031 20.414062 L 14.791016 20.376953 C 15.026575 20.693531 15.306469 20.973425 15.623047 21.208984 L 15.585938 21.292969 A 1 1 0 0 0 16.09375 22.613281 A 1 1 0 0 0 17.414062 22.105469 L 17.476562 21.962891 C 17.648405 21.98574 17.822248 22 18 22 C 18.177752 22 18.351595 21.98574 18.523438 21.962891 L 18.585938 22.105469 A 1 1 0 0 0 19.90625 22.613281 A 1 1 0 0 0 20.414062 21.292969 L 20.376953 21.208984 C 20.693531 20.973425 20.973425 20.693531 21.208984 20.376953 L 21.292969 20.414062 A 1 1 0 0 0 22.613281 19.90625 A 1 1 0 0 0 22.105469 18.585938 L 21.962891 18.523438 C 21.98574 18.351595 22 18.177752 22 18 C 22 17.822248 21.98574 17.648405 21.962891 17.476562 L 22.105469 17.414062 A 1 1 0 0 0 22.613281 16.09375 A 1 1 0 0 0 21.292969 15.585938 L 21.208984 15.623047 C 20.973425 15.306469 20.693531 15.026575 20.376953 14.791016 L 20.414062 14.707031 A 1 1 0 0 0 19.90625 13.386719 A 1 1 0 0 0 19.140625 13.367188 A 1 1 0 0 0 18.585938 13.894531 L 18.523438 14.037109 C 18.351595 14.01426 18.177752 14 18 14 C 17.822248 14 17.648405 14.01426 17.476562 14.037109 L 17.414062 13.894531 A 1 1 0 0 0 16.859375 13.367188 A 1 1 0 0 0 16.552734 13.302734 z M 18 16 C 19.116414 16 20 16.883586 20 18 C 20 19.116414 19.116414 20 18 20 C 16.883586 20 16 19.116414 16 18 C 16 16.883586 16.883586 16 18 16 z "/>
</svg>
