<?xml version="1.0" encoding="UTF-8" standalone="no"?>
<svg xmlns="http://www.w3.org/2000/svg" xmlns:svg="http://www.w3.org/2000/svg" width="24" height="24" viewBox="0 0 24 24" fill="currentColor" tags="person,account,contact,find,scan,magnifier,magnifying glass" categories="account,social">
  <path d="M 10 2 C 7.2504209 2 5 4.2504209 5 7 C 5 9.7495791 7.2504209 12 10 12 C 12.749579 12 15 9.7495791 15 7 C 15 4.2504209 12.749579 2 10 2 z M 10 4 C 11.668699 4 13 5.3313011 13 7 C 13 8.6686989 11.668699 10 10 10 C 8.3313011 10 7 8.6686989 7 7 C 7 5.3313011 8.3313011 4 10 4 z M 17 13 C 14.802706 13 13 14.802706 13 17 C 13 19.197294 14.802706 21 17 21 C 17.73848 21 18.43146 20.795196 19.027344 20.441406 L 20.292969 21.707031 A 1 1 0 0 0 21.707031 21.707031 A 1 1 0 0 0 21.707031 20.292969 L 20.441406 19.027344 C 20.795196 18.43146 21 17.73848 21 17 C 21 14.802706 19.197294 13 17 13 z M 7 14 C 4.2504209 14 2 16.250421 2 19 L 2 21 A 1 1 0 0 0 3 22 A 1 1 0 0 0 4 21 L 4 19 C 4 17.331301 5.3313011 16 7 16 L 10.300781 16 A 1 1 0 0 0 11.300781 15 A 1 1 0 0 0 10.300781 14 L 7 14 z M 17 15 C 18.116414 15 19 15.883586 19 17 C 19 17.480364 18.835875 17.91745 18.560547 18.259766 A 1 1 0 0 0 18.392578 18.392578 A 1 1 0 0 0 18.259766 18.560547 C 17.91745 18.835875 17.480364 19 17 19 C 15.883586 19 15 18.116414 15 17 C 15 15.883586 15.883586 15 17 15 z "/>
</svg>
