<?xml version="1.0" encoding="UTF-8" standalone="no"?>
<svg xmlns="http://www.w3.org/2000/svg" xmlns:svg="http://www.w3.org/2000/svg" width="24" height="24" viewBox="0 0 24 24" fill="currentColor" tags="person,account,contact,profile,edit,change" categories="account">
  <path d="M 10 2 C 6.6981427 2 4 4.6981427 4 8 C 4 9.9446037 4.9369854 11.679385 6.3808594 12.777344 C 3.2854443 14.15576 0.99958494 17.23643 1 21 A 1 1 0 0 0 2 22 A 1 1 0 0 0 3 21 C 2.9995652 17.056847 6.1150572 14.117001 9.7226562 13.992188 C 9.8143981 13.996398 9.9072592 14 10 14 C 10.076408 14 10.15278 13.997004 10.228516 13.994141 C 10.967161 14.022711 11.721561 14.167655 12.46875 14.449219 A 1 1 0 0 0 13.755859 13.865234 A 1 1 0 0 0 13.548828 12.830078 C 15.032565 11.735414 16 9.9759962 16 8 C 16 4.6981427 13.301858 2 10 2 z M 10 4 C 12.220979 4 14 5.7790208 14 8 C 14 10.206567 12.243781 11.975165 10.042969 11.998047 C 10.019491 11.997988 9.9961091 11.999872 9.9726562 12 C 7.7644895 11.98541 6 10.211819 6 8 C 6 5.7790208 7.7790208 4 10 4 z M 19.876953 11.962891 C 19.112728 11.961102 18.301117 12.27896 17.666016 12.914062 A 1.0001 1.0001 0 0 0 17.666016 12.916016 L 13.65625 16.927734 C 13.300269 17.283925 13.039596 17.723621 12.898438 18.207031 A 1.0001 1.0001 0 0 0 12.898438 18.208984 L 12.060547 21.078125 C 11.743862 22.1639 12.8361 23.254185 13.921875 22.9375 L 16.791016 22.101562 C 17.274973 21.960244 17.715862 21.698396 18.072266 21.341797 L 22.083984 17.333984 A 1.0001 1.0001 0 0 0 22.085938 17.333984 C 22.76338 16.656543 23.080694 15.778046 23.033203 14.970703 C 22.985713 14.163361 22.618572 13.446696 22.085938 12.914062 C 21.553304 12.381428 20.836639 12.014288 20.029297 11.966797 C 19.978838 11.963829 19.927901 11.96301 19.876953 11.962891 z M 19.816406 13.960938 C 19.848419 13.960153 19.880038 13.961004 19.912109 13.962891 C 20.168681 13.977981 20.451557 14.111713 20.669922 14.330078 C 20.888287 14.548443 21.022017 14.831319 21.037109 15.087891 C 21.052199 15.344462 20.993809 15.594079 20.669922 15.917969 L 16.658203 19.927734 C 16.539363 20.04664 16.391841 20.134519 16.230469 20.181641 L 14.236328 20.763672 L 14.818359 18.767578 C 14.865479 18.606206 14.951407 18.460637 15.070312 18.341797 L 19.082031 14.330078 C 19.365435 14.046676 19.592317 13.966431 19.816406 13.960938 z "/>
</svg>
