<?xml version="1.0" encoding="UTF-8" standalone="no"?>
<svg xmlns="http://www.w3.org/2000/svg" xmlns:svg="http://www.w3.org/2000/svg" width="24" height="24" viewBox="0 0 24 24" fill="currentColor" tags="settings,edit,cog,gear" categories="account">
  <path d="M 9 2 C 6.2504209 2 4 4.2504209 4 7 C 4 9.7495791 6.2504209 12 9 12 C 11.749579 12 14 9.7495791 14 7 C 14 4.2504209 11.749579 2 9 2 z M 9 4 C 10.668699 4 12 5.3313011 12 7 C 12 8.6686989 10.668699 10 9 10 C 7.3313011 10 6 8.6686989 6 7 C 6 5.3313011 7.3313011 4 9 4 z M 16.369141 10.300781 A 1 1 0 0 0 16.029297 10.371094 A 1 1 0 0 0 15.470703 11.671875 L 15.542969 11.853516 C 15.237175 12.093224 14.96587 12.374583 14.740234 12.691406 L 14.617188 12.650391 A 1 1 0 0 0 13.351562 13.283203 A 1 1 0 0 0 13.984375 14.548828 L 14.025391 14.5625 C 14.009443 14.706582 14 14.851901 14 15 C 14 15.212162 14.018435 15.41951 14.050781 15.623047 L 13.927734 15.671875 A 1 1 0 0 0 13.371094 16.970703 A 1 1 0 0 0 14.671875 17.529297 L 14.853516 17.457031 C 15.093224 17.762825 15.374583 18.03413 15.691406 18.259766 L 15.650391 18.382812 A 1 1 0 0 0 16.283203 19.648438 A 1 1 0 0 0 17.548828 19.015625 L 17.5625 18.974609 C 17.706582 18.990557 17.851901 19 18 19 C 18.212162 19 18.41951 18.981565 18.623047 18.949219 L 18.671875 19.072266 A 1 1 0 0 0 19.970703 19.628906 A 1 1 0 0 0 20.529297 18.328125 L 20.457031 18.146484 C 20.762825 17.906776 21.03413 17.625417 21.259766 17.308594 L 21.382812 17.349609 A 1 1 0 0 0 22.648438 16.716797 A 1 1 0 0 0 22.015625 15.451172 L 21.974609 15.4375 C 21.990557 15.293418 22 15.148099 22 15 C 22 14.787838 21.981565 14.58049 21.949219 14.376953 L 22.072266 14.328125 A 1 1 0 0 0 22.628906 13.029297 A 1 1 0 0 0 21.328125 12.470703 L 21.146484 12.542969 C 20.906776 12.237175 20.625417 11.96587 20.308594 11.740234 L 20.349609 11.617188 A 1 1 0 0 0 19.716797 10.351562 A 1 1 0 0 0 18.451172 10.984375 L 18.4375 11.025391 C 18.293418 11.009443 18.148099 11 18 11 C 17.787838 11 17.58049 11.018435 17.376953 11.050781 L 17.328125 10.927734 A 1 1 0 0 0 16.369141 10.300781 z M 18 13 C 18.73502 13 19.367379 13.38456 19.714844 13.964844 A 1 1 0 0 0 19.771484 14.171875 A 1 1 0 0 0 19.912109 14.412109 C 19.967762 14.597525 20 14.794815 20 15 C 20 15.73502 19.61544 16.367379 19.035156 16.714844 A 1 1 0 0 0 18.828125 16.771484 A 1 1 0 0 0 18.587891 16.912109 C 18.402475 16.967762 18.205185 17 18 17 C 17.266562 17 16.635057 16.617249 16.287109 16.039062 A 1 1 0 0 0 16.228516 15.828125 A 1 1 0 0 0 16.087891 15.587891 C 16.032238 15.402475 16 15.205185 16 15 C 16 14.26498 16.38456 13.632621 16.964844 13.285156 A 1 1 0 0 0 17.171875 13.228516 A 1 1 0 0 0 17.417969 13.085938 C 17.601684 13.031406 17.79697 13 18 13 z M 6 14 C 3.2504209 14 1 16.250421 1 19 L 1 21 A 1 1 0 0 0 2 22 A 1 1 0 0 0 3 21 L 3 19 C 3 17.331301 4.3313011 16 6 16 L 10 16 A 1 1 0 0 0 11 15 A 1 1 0 0 0 10 14 L 6 14 z "/>
</svg>
