<svg xmlns="http://www.w3.org/2000/svg" xmlns:svg="http://www.w3.org/2000/svg" width="24" height="24" viewBox="0 0 24 24" fill="currentColor" tags="settings,edit,cog,gear" categories="account">
  <path d="M 9 2 C 6.2504209 2 4 4.2504209 4 7 C 4 9.7495791 6.2504209 12 9 12 C 11.749579 12 14 9.7495791 14 7 C 14 4.2504209 11.749579 2 9 2 z M 9 4 C 10.668699 4 12 5.3313011 12 7 C 12 8.6686989 10.668699 10 9 10 C 7.3313011 10 6 8.6686989 6 7 C 6 5.3313011 7.3313011 4 9 4 z M 16.46875 10.304688 A 1 1 0 0 0 16.085938 10.380859 A 1 1 0 0 0 15.544922 11.6875 L 15.595703 11.810547 C 15.299259 12.03502 15.03502 12.299259 14.810547 12.595703 L 14.6875 12.544922 A 1 1 0 0 0 13.380859 13.085938 A 1 1 0 0 0 13.921875 14.392578 L 14.039062 14.441406 C 14.013153 14.624122 14 14.810512 14 15 C 14 15.188931 14.013302 15.374439 14.039062 15.556641 L 13.921875 15.605469 A 1 1 0 0 0 13.380859 16.912109 A 1 1 0 0 0 14.6875 17.453125 L 14.808594 17.402344 C 15.033276 17.69931 15.298829 17.964654 15.595703 18.189453 L 15.544922 18.3125 A 1 1 0 0 0 16.085938 19.619141 A 1 1 0 0 0 17.392578 19.078125 L 17.441406 18.960938 C 17.624122 18.986847 17.810512 19 18 19 C 18.188931 19 18.374439 18.986698 18.556641 18.960938 L 18.605469 19.078125 A 1 1 0 0 0 19.912109 19.621094 A 1 1 0 0 0 20.455078 18.314453 L 20.404297 18.189453 C 20.70099 17.96488 20.964825 17.700946 21.189453 17.404297 L 21.3125 17.455078 A 1 1 0 0 0 22.619141 16.914062 A 1 1 0 0 0 22.078125 15.607422 L 21.960938 15.558594 C 21.986847 15.375878 22 15.189488 22 15 C 22 14.810512 21.986847 14.624122 21.960938 14.441406 L 22.078125 14.392578 A 1 1 0 0 0 22.619141 13.085938 A 1 1 0 0 0 21.3125 12.544922 L 21.189453 12.595703 C 20.96498 12.299259 20.700741 12.03502 20.404297 11.810547 L 20.455078 11.6875 A 1 1 0 0 0 19.914062 10.380859 A 1 1 0 0 0 19.148438 10.380859 A 1 1 0 0 0 18.607422 10.921875 L 18.558594 11.039062 C 18.375878 11.013153 18.189488 11 18 11 C 17.810512 11 17.624122 11.013153 17.441406 11.039062 L 17.392578 10.921875 A 1 1 0 0 0 16.46875 10.304688 z M 18 13 C 18.248407 13 18.484941 13.044679 18.703125 13.125 A 1 1 0 0 0 18.765625 13.152344 A 1 1 0 0 0 18.835938 13.179688 C 19.272849 13.37762 19.62238 13.727151 19.820312 14.164062 A 1 1 0 0 0 19.847656 14.234375 A 1 1 0 0 0 19.875 14.296875 C 19.955321 14.515059 20 14.751593 20 15 C 20 15.248407 19.955321 15.48494 19.875 15.703125 A 1 1 0 0 0 19.847656 15.765625 A 1 1 0 0 0 19.820312 15.835938 C 19.622309 16.273008 19.273071 16.624372 18.835938 16.822266 A 1 1 0 0 0 18.765625 16.847656 A 1 1 0 0 0 18.703125 16.875 C 18.484941 16.955321 18.248407 17 18 17 C 17.751593 17 17.515059 16.955321 17.296875 16.875 A 1 1 0 0 0 17.234375 16.847656 A 1 1 0 0 0 17.164062 16.820312 C 16.72715 16.62238 16.37762 16.27285 16.179688 15.835938 A 1 1 0 0 0 16.152344 15.765625 A 1 1 0 0 0 16.125 15.703125 C 16.044679 15.484941 16 15.248407 16 15 C 16 14.751593 16.044679 14.515059 16.125 14.296875 A 1 1 0 0 0 16.152344 14.234375 A 1 1 0 0 0 16.179688 14.164062 C 16.37762 13.727151 16.727151 13.37762 17.164062 13.179688 A 1 1 0 0 0 17.234375 13.152344 A 1 1 0 0 0 17.296875 13.125 C 17.515059 13.044679 17.751593 13 18 13 z M 6 14 C 3.2504209 14 1 16.250421 1 19 L 1 21 A 1 1 0 0 0 2 22 A 1 1 0 0 0 3 21 L 3 19 C 3 17.331301 4.3313011 16 6 16 L 10 16 A 1 1 0 0 0 11 15 A 1 1 0 0 0 10 14 L 6 14 z "/>
</svg>
