<?xml version="1.0" encoding="UTF-8" standalone="no"?>
<svg xmlns="http://www.w3.org/2000/svg" xmlns:svg="http://www.w3.org/2000/svg" width="24" height="24" viewBox="0 0 24 24" fill="currentColor" tags="new,add,create,follow,subscribe" categories="account">
  <path d="M 10 2 C 6.6981361 2 4 4.6981361 4 8 C 4 9.9381966 4.9314155 11.667102 6.3671875 12.765625 C 6.3437181 12.77598 6.3202511 12.786323 6.296875 12.796875 C 3.2948827 14.151972 0.99978956 17.162492 1 21 A 1 1 0 0 0 2 22 A 1 1 0 0 0 3 21 C 2.9998327 17.948974 4.7665443 15.681101 7.1191406 14.619141 C 7.9269395 14.254501 8.7961831 14.040677 9.6816406 13.992188 C 9.7868063 13.99773 9.8935081 14 10 14 C 10.130468 14 10.260218 13.994624 10.388672 13.986328 C 11.856277 14.058246 13.336912 14.608655 14.630859 15.75 A 1 1 0 0 0 16.041016 15.662109 A 1 1 0 0 0 15.953125 14.25 C 15.231267 13.613274 14.452949 13.11942 13.644531 12.757812 C 15.073984 11.658875 16 9.9331901 16 8 C 16 4.6981361 13.301864 2 10 2 z M 10 4 C 12.220984 4 14 5.7790164 14 8 C 14 10.144893 12.340694 11.875981 10.226562 11.992188 C 10.081732 11.989127 9.9373138 11.990215 9.7929688 11.994141 L 9.7910156 11.994141 C 7.6683972 11.886719 6 10.150915 6 8 C 6 5.7790164 7.7790164 4 10 4 z M 19 15 A 1 1 0 0 0 18 16 L 18 18 L 16 18 A 1 1 0 0 0 15 19 A 1 1 0 0 0 16 20 L 18 20 L 18 22 A 1 1 0 0 0 19 23 A 1 1 0 0 0 20 22 L 20 20 L 22 20 A 1 1 0 0 0 23 19 A 1 1 0 0 0 22 18 L 20 18 L 20 16 A 1 1 0 0 0 19 15 z "/>
</svg>
