<?xml version="1.0" encoding="UTF-8" standalone="no"?>
<svg xmlns="http://www.w3.org/2000/svg" xmlns:svg="http://www.w3.org/2000/svg" width="24" height="24" viewBox="0 0 24 24" fill="currentColor" tags="delete,remove,unfollow,unsubscribe,unavailable" categories="account">
  <path d="M 10 2 C 6.6981361 2 4 4.6981361 4 8 C 4 9.9494999 4.9405571 11.687652 6.390625 12.785156 C 3.3112521 14.151864 0.99999562 17.19393 1 21 A 1 1 0 0 0 2 22 A 1 1 0 0 0 3 21 C 2.9999954 17.041015 6.0797452 14.181581 9.5820312 13.986328 C 9.7202672 13.995949 9.8594134 14 10 14 C 10.129194 14 10.257546 13.996417 10.384766 13.988281 C 11.388401 14.049892 12.409637 14.333313 13.388672 14.875 A 1 1 0 0 0 14.748047 14.484375 A 1 1 0 0 0 14.357422 13.125 C 14.119057 12.993116 13.879169 12.873299 13.636719 12.765625 C 15.071706 11.667049 16 9.9375751 16 8 C 16 4.6981361 13.301864 2 10 2 z M 10 4 C 12.220984 4 14 5.7790164 14 8 C 14 10.220984 12.220984 12 10 12 C 7.7790164 12 6 10.220984 6 8 C 6 5.7790164 7.7790164 4 10 4 z M 17 16 A 1 1 0 0 0 16.292969 16.292969 A 1 1 0 0 0 16.292969 17.707031 L 18.085938 19.5 L 16.292969 21.292969 A 1 1 0 0 0 16.292969 22.707031 A 1 1 0 0 0 17.707031 22.707031 L 19.5 20.914062 L 21.292969 22.707031 A 1 1 0 0 0 22.707031 22.707031 A 1 1 0 0 0 22.707031 21.292969 L 20.914062 19.5 L 22.707031 17.707031 A 1 1 0 0 0 22.707031 16.292969 A 1 1 0 0 0 21.292969 16.292969 L 19.5 18.085938 L 17.707031 16.292969 A 1 1 0 0 0 17 16 z "/>
</svg>
