<?xml version="1.0" encoding="UTF-8" standalone="no"?>
<svg xmlns="http://www.w3.org/2000/svg" xmlns:svg="http://www.w3.org/2000/svg" width="24" height="24" viewBox="0 0 24 24" fill="currentColor" tags="delete,remove,unfollow,unsubscribe,unavailable" categories="account">
  <path d="M 10 2 C 6.6981361 2 4 4.6981361 4 8 C 4 9.9496139 4.9423658 11.687663 6.3925781 12.785156 C 3.3122229 14.151442 0.99999562 17.19312 1 21 A 1 1 0 0 0 2 22 A 1 1 0 0 0 3 21 C 2.9999954 17.027573 6.1001595 14.164067 9.6171875 13.986328 C 9.7437186 13.994376 9.8715172 14 10 14 C 10.117844 14 10.235352 13.99506 10.351562 13.988281 C 11.365982 14.04557 12.398721 14.327274 13.388672 14.875 A 1 1 0 0 0 14.748047 14.484375 A 1 1 0 0 0 14.357422 13.125 C 14.118524 12.992821 13.877766 12.873486 13.634766 12.765625 C 15.069844 11.667056 16 9.9376471 16 8 C 16 4.6981361 13.301864 2 10 2 z M 10 4 C 12.220984 4 14 5.7790164 14 8 C 14 10.220984 12.220984 12 10 12 C 7.7790164 12 6 10.220984 6 8 C 6 5.7790164 7.7790164 4 10 4 z M 17 16 A 1 1 0 0 0 16.292969 16.292969 A 1 1 0 0 0 16.292969 17.707031 L 18.085938 19.5 L 16.292969 21.292969 A 1 1 0 0 0 16.292969 22.707031 A 1 1 0 0 0 17.707031 22.707031 L 19.5 20.914062 L 21.292969 22.707031 A 1 1 0 0 0 22.707031 22.707031 A 1 1 0 0 0 22.707031 21.292969 L 20.914062 19.5 L 22.707031 17.707031 A 1 1 0 0 0 22.707031 16.292969 A 1 1 0 0 0 21.292969 16.292969 L 19.5 18.085938 L 17.707031 16.292969 A 1 1 0 0 0 17 16 z "/>
</svg>
