<?xml version="1.0" encoding="UTF-8" standalone="no"?>
<svg xmlns="http://www.w3.org/2000/svg" xmlns:svg="http://www.w3.org/2000/svg" width="24" height="24" viewBox="0 0 24 24" fill="currentColor" tags="person,account,contact,profile,edit,change" categories="account">
  <path d="M 10 2 C 7.2504209 2 5 4.2504209 5 7 C 5 9.7495791 7.2504209 12 10 12 C 12.749579 12 15 9.7495791 15 7 C 15 4.2504209 12.749579 2 10 2 z M 10 4 C 11.668699 4 13 5.3313011 13 7 C 13 8.6686989 11.668699 10 10 10 C 8.3313011 10 7 8.6686989 7 7 C 7 5.3313011 8.3313011 4 10 4 z M 19.876953 11.962891 C 19.112727 11.961102 18.301118 12.278959 17.666016 12.914062 A 1.0001 1.0001 0 0 0 17.666016 12.916016 L 13.65625 16.927734 C 13.300268 17.283925 13.039597 17.723619 12.898438 18.207031 A 1.0001 1.0001 0 0 0 12.898438 18.208984 L 12.060547 21.078125 C 11.743862 22.163902 12.836098 23.254185 13.921875 22.9375 L 16.791016 22.101562 C 17.274974 21.960244 17.715862 21.698397 18.072266 21.341797 L 22.083984 17.333984 A 1.0001 1.0001 0 0 0 22.085938 17.333984 C 22.763382 16.656541 23.080694 15.778047 23.033203 14.970703 C 22.985713 14.163359 22.618573 13.446697 22.085938 12.914062 C 21.553303 12.381427 20.836641 12.014288 20.029297 11.966797 C 19.978838 11.963829 19.927902 11.96301 19.876953 11.962891 z M 19.816406 13.960938 C 19.848419 13.960153 19.880038 13.961004 19.912109 13.962891 C 20.168682 13.977981 20.451557 14.111713 20.669922 14.330078 C 20.888287 14.548443 21.022017 14.831318 21.037109 15.087891 C 21.052199 15.344463 20.993809 15.594079 20.669922 15.917969 L 16.658203 19.927734 C 16.539363 20.04664 16.391841 20.134519 16.230469 20.181641 L 14.236328 20.763672 L 14.818359 18.767578 C 14.865479 18.606206 14.951406 18.460637 15.070312 18.341797 L 19.082031 14.330078 C 19.365435 14.046674 19.592317 13.966431 19.816406 13.960938 z M 7 14 C 4.2504209 14 2 16.250421 2 19 L 2 21 A 1 1 0 0 0 3 22 A 1 1 0 0 0 4 21 L 4 19 C 4 17.331301 5.3313011 16 7 16 L 11.5 16 A 1 1 0 0 0 12.5 15 A 1 1 0 0 0 11.5 14 L 7 14 z "/>
</svg>
