<?xml version="1.0" encoding="UTF-8" standalone="no"?>
<svg xmlns="http://www.w3.org/2000/svg" xmlns:svg="http://www.w3.org/2000/svg" width="24" height="24" viewBox="0 0 24 24" fill="currentColor" tags="person,account,contact,profile,edit,change" categories="account">
  <path d="M 10 2 C 6.6981361 2 4 4.6981361 4 8 C 4 9.9446074 4.9369842 11.679384 6.3808594 12.777344 C 3.2854411 14.15576 0.99958494 17.236423 1 21 A 1 1 0 0 0 2 22 A 1 1 0 0 0 3 21 C 2.9995652 17.056839 6.1150524 14.117 9.7226562 13.992188 C 9.8143983 13.996398 9.907259 14 10 14 C 10.076408 14 10.15278 13.997004 10.228516 13.994141 C 10.967162 14.022712 11.72156 14.167655 12.46875 14.449219 A 1 1 0 0 0 13.755859 13.865234 A 1 1 0 0 0 13.548828 12.830078 C 15.032566 11.735414 16 9.976 16 8 C 16 4.6981361 13.301864 2 10 2 z M 10 4 C 12.220984 4 14 5.7790164 14 8 C 14 10.206572 12.243786 11.975165 10.042969 11.998047 C 10.019491 11.997988 9.9961092 11.999872 9.9726562 12 C 7.7644851 11.98541 6 10.211825 6 8 C 6 5.7790164 7.7790164 4 10 4 z M 19.876953 11.962891 C 19.112727 11.961102 18.301118 12.278959 17.666016 12.914062 A 1.0001 1.0001 0 0 0 17.666016 12.916016 L 13.65625 16.927734 C 13.300268 17.283925 13.039597 17.723619 12.898438 18.207031 A 1.0001 1.0001 0 0 0 12.898438 18.208984 L 12.060547 21.078125 C 11.743862 22.163902 12.836098 23.254185 13.921875 22.9375 L 16.791016 22.101562 C 17.274974 21.960244 17.715862 21.698397 18.072266 21.341797 L 22.083984 17.333984 A 1.0001 1.0001 0 0 0 22.085938 17.333984 C 22.763382 16.656541 23.080694 15.778047 23.033203 14.970703 C 22.985713 14.163359 22.618573 13.446697 22.085938 12.914062 C 21.553303 12.381427 20.836641 12.014288 20.029297 11.966797 C 19.978838 11.963829 19.927902 11.96301 19.876953 11.962891 z M 19.816406 13.960938 C 19.848419 13.960153 19.880038 13.961004 19.912109 13.962891 C 20.168682 13.977981 20.451557 14.111713 20.669922 14.330078 C 20.888287 14.548443 21.022017 14.831318 21.037109 15.087891 C 21.052199 15.344463 20.993809 15.594079 20.669922 15.917969 L 16.658203 19.927734 C 16.539363 20.04664 16.391841 20.134519 16.230469 20.181641 L 14.236328 20.763672 L 14.818359 18.767578 C 14.865479 18.606206 14.951406 18.460637 15.070312 18.341797 L 19.082031 14.330078 C 19.365435 14.046674 19.592317 13.966431 19.816406 13.960938 z "/>
</svg>
