<?xml version="1.0" encoding="UTF-8" standalone="no"?>
<svg xmlns="http://www.w3.org/2000/svg" xmlns:svg="http://www.w3.org/2000/svg" width="24" height="24" viewBox="0 0 24 24" fill="currentColor" tags="fork,knife,cutlery,flatware,tableware,silverware,food,restaurant,meal,breakfast,dinner,supper" categories="food-beverage,travel,navigation">
  <path d="M 15.84375 1.0117188 A 1 1 0 0 0 15.292969 1.2929688 L 12.992188 3.59375 A 1.0001 1.0001 0 0 0 12.986328 3.5996094 C 11.469543 5.1470399 11.469543 7.6517881 12.986328 9.1992188 A 1.0001 1.0001 0 0 0 12.992188 9.2070312 L 13.185547 9.4003906 L 12 10.585938 L 4.0078125 2.59375 A 1.0001 1.0001 0 0 0 2.5996094 2.5859375 C 0.52761169 4.6160723 0.52761169 7.983537 2.5996094 10.013672 L 7.5839844 14.998047 L 1.3984375 21.087891 A 1 1 0 0 0 1.3867188 22.501953 A 1 1 0 0 0 2.8007812 22.511719 L 8.9980469 16.412109 L 9.8925781 17.306641 C 11.030311 18.444373 12.854556 18.407054 14.058594 17.353516 A 1.0001 1.0001 0 0 0 14.107422 17.306641 L 15 16.414062 L 21.292969 22.707031 A 1 1 0 0 0 22.707031 22.707031 A 1 1 0 0 0 22.707031 21.292969 L 15.707031 14.292969 L 13.414062 12 L 14.599609 10.814453 L 14.792969 11.007812 A 1.0001 1.0001 0 0 0 14.800781 11.013672 C 16.348212 12.530457 18.85296 12.530457 20.400391 11.013672 A 1.0001 1.0001 0 0 0 20.40625 11.007812 L 22.707031 8.7070312 A 1 1 0 0 0 22.707031 7.2929688 A 1 1 0 0 0 21.292969 7.2929688 L 19 9.5859375 C 18.214369 10.356009 16.984849 10.356009 16.199219 9.5859375 L 16.013672 9.4003906 L 19.707031 5.7070312 A 1 1 0 0 0 19.707031 4.2929688 A 1 1 0 0 0 18.292969 4.2929688 L 14.599609 7.9863281 L 14.414062 7.8007812 C 13.64399 7.0151508 13.64399 5.7856305 14.414062 5 L 16.707031 2.7070312 A 1 1 0 0 0 16.707031 1.2929688 A 1 1 0 0 0 15.84375 1.0117188 z M 3.4355469 4.8496094 L 11.292969 12.707031 L 13.585938 15 L 12.736328 15.849609 C 12.338996 16.191817 11.567905 16.153841 11.306641 15.892578 L 4.0078125 8.59375 A 1.0001 1.0001 0 0 0 4 8.5859375 C 2.9619658 7.5688759 2.8025426 6.0640242 3.4355469 4.8496094 z "/>
</svg>
