<?xml version="1.0" encoding="UTF-8" standalone="no"?>
<svg xmlns="http://www.w3.org/2000/svg" xmlns:svg="http://www.w3.org/2000/svg" width="24" height="24" viewBox="0 0 24 24" fill="currentColor" tags="fork,knife,cutlery,flatware,tableware,silverware,food,restaurant,meal,breakfast,dinner,supper" categories="food-beverage,travel,navigation">
  <path d="M 3 1 A 1 1 0 0 0 2 2 L 2 9 C 2 10.645455 3.3545455 12 5 12 L 6 12 L 6 22 A 1 1 0 0 0 7 23 A 1 1 0 0 0 8 22 L 8 12 L 9 12 C 10.64501 12 12 10.64501 12 9 L 12 2 A 1 1 0 0 0 11 1 A 1 1 0 0 0 10 2 L 10 9 C 10 9.5641294 9.5641294 10 9 10 L 8 10 L 8 2 A 1 1 0 0 0 7 1 A 1 1 0 0 0 6 2 L 6 10 L 5 10 C 4.4454545 10 4 9.5545455 4 9 L 4 2 A 1 1 0 0 0 3 1 z M 21 1 C 17.698136 1 15 3.6981361 15 7 L 15 13 C 15 14.645455 16.354545 16 18 16 L 20 16 L 20 22 A 1 1 0 0 0 21 23 A 1 1 0 0 0 22 22 L 22 15 L 22 2 A 1.0001 1.0001 0 0 0 21 1 z M 20 3.1992188 L 20 14 L 18 14 C 17.445455 14 17 13.554545 17 13 L 17 7 C 17 5.1343204 18.281851 3.648616 20 3.1992188 z "/>
</svg>
