<svg xmlns="http://www.w3.org/2000/svg" xmlns:svg="http://www.w3.org/2000/svg" width="24" height="24" viewBox="0 0 24 24" fill="currentColor" tags="electricity,energy,transmission line,telegraph pole,power lines,phone" categories="buildings,home,sustainability">
  <path d="M 12 1 A 1 1 0 0 0 11 2 L 11 4 L 8 4 L 8 3 A 1 1 0 0 0 7 2 A 1 1 0 0 0 6 3 L 6 4 L 5 4 L 4 4 L 4 3 A 1 1 0 0 0 3 2 A 1 1 0 0 0 2 3 L 2 4 A 1 1 0 0 0 1 5 A 1 1 0 0 0 2 6 L 4.5859375 6 L 11 12.414062 L 11 22 A 1 1 0 0 0 12 23 A 1 1 0 0 0 13 22 L 13 12.414062 L 19.414062 6 L 22 6 A 1 1 0 0 0 23 5 A 1 1 0 0 0 22 4 L 22 3 A 1 1 0 0 0 21 2 A 1 1 0 0 0 20 3 L 20 4 L 19 4 L 18 4 L 18 3 A 1 1 0 0 0 17 2 A 1 1 0 0 0 16 3 L 16 4 L 13 4 L 13 2 A 1 1 0 0 0 12 1 z M 7.4140625 6 L 11 6 L 11 9.5859375 L 7.4140625 6 z M 13 6 L 16.585938 6 L 13 9.5859375 L 13 6 z "/>
</svg>
