<svg xmlns="http://www.w3.org/2000/svg" xmlns:svg="http://www.w3.org/2000/svg" width="24" height="24" viewBox="0 0 24 24" fill="currentColor" tags="minivan,cart,wagon,truck,lorry,trailer,camper,vehicle,drive,trip,journey,van,transport,carriage,delivery,travel" categories="transportation">
  <path d="M 4 5 C 2.3549904 5 1 6.3549904 1 8 L 1 17 C 1 18.092725 1.9072751 19 3 19 L 4.1738281 19 C 4.5896855 20.160087 5.7048578 21 7 21 C 8.2951422 21 9.4103145 20.160087 9.8261719 19 L 13.173828 19 C 13.589685 20.160087 14.704857 21 16 21 C 17.295143 21 18.410315 20.160087 18.826172 19 L 21 19 C 22.092725 19 23 18.092725 23 17 L 23 13.910156 C 22.999906 13.385026 22.792564 12.879752 22.423828 12.505859 L 21.525391 11.595703 C 21.205756 11.271435 20.785579 11.067189 20.337891 11.013672 L 19.363281 7.53125 A 1.0001 1.0001 0 0 0 19.357422 7.5117188 C 18.923894 6.0664903 17.584848 5 16 5 L 4 5 z M 4 7 L 12 7 L 12 11 C 12 12.092725 12.907275 13 14 13 L 20.101562 13 L 21 13.910156 L 21 17 L 18.826172 17 C 18.410315 15.839913 17.295143 15 16 15 C 14.704857 15 13.589685 15.839913 13.173828 17 L 9.8261719 17 C 9.4103145 15.839913 8.2951422 15 7 15 C 5.7048578 15 4.5896855 15.839913 4.1738281 17 L 3 17 L 3 8 C 3 7.4358706 3.4358706 7 4 7 z M 14 7 L 16 7 C 16.615152 7 17.274975 7.5331187 17.441406 8.0878906 L 18.257812 11 L 14 11 L 14 7 z M 7 17 C 7.5641272 17 7.9999967 17.435874 8 18 C 8 18.564129 7.5641294 19 7 19 C 6.4358706 19 6 18.564129 6 18 C 6 17.435871 6.4358706 17 7 17 z M 16 17 C 16.564127 17 16.999997 17.435874 17 18 C 17 18.564129 16.564129 19 16 19 C 15.435871 19 15 18.564129 15 18 C 15 17.435871 15.435871 17 16 17 z "/>
</svg>
