<?xml version="1.0" encoding="UTF-8" standalone="no"?>
<svg xmlns="http://www.w3.org/2000/svg" xmlns:svg="http://www.w3.org/2000/svg" width="24" height="24" viewBox="0 0 24 24" fill="currentColor" tags="code,coding,programming,symbol,calculate,algebra,x,parentheses,parenthesis,brackets,parameter,(,)" categories="development,math">
  <path d="M 8.0117188 2 A 1 1 0 0 0 7.4003906 2.1992188 C 7.4003906 2.1992188 3 5.5555556 3 12 C 3 18.444444 7.4003906 21.800781 7.4003906 21.800781 A 1 1 0 0 0 8.8007812 21.599609 A 1 1 0 0 0 8.5996094 20.199219 C 8.5996094 20.199219 5 17.555556 5 12 C 5 6.4444444 8.5996094 3.8007813 8.5996094 3.8007812 A 1 1 0 0 0 8.8007812 2.4003906 A 1 1 0 0 0 8.0117188 2 z M 15.990234 2 A 1 1 0 0 0 15.859375 2.0097656 A 1 1 0 0 0 15.199219 2.4003906 A 1 1 0 0 0 15.400391 3.8007812 C 15.400391 3.8007812 19 6.4444444 19 12 C 19 17.555556 15.400391 20.199219 15.400391 20.199219 A 1 1 0 0 0 15.199219 21.599609 A 1 1 0 0 0 16.599609 21.800781 C 16.599609 21.800781 21 18.444444 21 12 C 21 5.5555556 16.599609 2.1992186 16.599609 2.1992188 A 1 1 0 0 0 15.990234 2 z M 9 8 A 1 1 0 0 0 8.2929688 8.2929688 A 1 1 0 0 0 8.2929688 9.7070312 L 10.585938 12 L 8.2929688 14.292969 A 1 1 0 0 0 8.2929688 15.707031 A 1 1 0 0 0 9.7070312 15.707031 L 12 13.414062 L 14.292969 15.707031 A 1 1 0 0 0 15.707031 15.707031 A 1 1 0 0 0 15.707031 14.292969 L 13.414062 12 L 15.707031 9.7070312 A 1 1 0 0 0 15.707031 8.2929688 A 1 1 0 0 0 15 8 A 1 1 0 0 0 14.292969 8.2929688 L 12 10.585938 L 9.7070312 8.2929688 A 1 1 0 0 0 9 8 z "/>
</svg>
