<?xml version="1.0" encoding="UTF-8" standalone="no"?>
<svg xmlns="http://www.w3.org/2000/svg" xmlns:svg="http://www.w3.org/2000/svg" width="24" height="24" viewBox="0 0 24 24" fill="currentColor" tags="safe,lockbox,deposit,locker,coffer,strongbox,safety,secure,storage,valuables,bank" categories="security,travel,home">
  
  <path d="M 5 2 C 3.3553005 2 2 3.3553005 2 5 L 2 19 C 2 20.644699 3.3553005 22 5 22 L 19 22 C 20.644699 22 22 20.644699 22 19 L 22 5 C 22 3.3553005 20.644699 2 19 2 L 5 2 z M 5 4 L 19 4 C 19.571296 4 20 4.4287039 20 5 L 20 19 C 20 19.571296 19.571296 20 19 20 L 5 20 C 4.4287039 20 4 19.571296 4 19 L 4 5 C 4 4.4287039 4.4287039 4 5 4 z M 7.5 6 C 6.6834191 6 6 6.6834191 6 7.5 C 6 8.3165809 6.6834191 9 7.5 9 C 7.52812 9 7.5562027 8.9996453 7.5839844 8.9980469 L 9.296875 10.710938 C 9.107873 11.102617 9 11.539505 9 12 C 9 12.460495 9.107873 12.897383 9.296875 13.289062 L 7.5839844 15.001953 C 7.5562027 15.000355 7.52812 15 7.5 15 C 6.6834191 15 6 15.683419 6 16.5 C 6 17.316581 6.6834191 18 7.5 18 C 8.3165809 18 9 17.316581 9 16.5 C 9 16.47188 8.9996453 16.443797 8.9980469 16.416016 L 10.710938 14.703125 C 11.102617 14.892127 11.539505 15 12 15 C 12.460495 15 12.897383 14.892127 13.289062 14.703125 L 15.001953 16.416016 C 15.000355 16.443797 15 16.47188 15 16.5 C 15 17.316581 15.683419 18 16.5 18 C 17.316581 18 18 17.316581 18 16.5 C 18 15.683419 17.316581 15 16.5 15 C 16.47188 15 16.443797 15.000355 16.416016 15.001953 L 14.703125 13.289062 C 14.892127 12.897383 15 12.460495 15 12 C 15 11.539505 14.892127 11.102617 14.703125 10.710938 L 16.416016 8.9980469 C 16.443797 8.9996453 16.47188 9 16.5 9 C 17.316581 9 18 8.3165809 18 7.5 C 18 6.6834191 17.316581 6 16.5 6 C 15.683419 6 15 6.6834191 15 7.5 C 15 7.52812 15.000355 7.5562027 15.001953 7.5839844 L 13.289062 9.296875 C 12.897383 9.107873 12.460495 9 12 9 C 11.539505 9 11.102617 9.107873 10.710938 9.296875 L 8.9980469 7.5839844 C 8.9996453 7.5562027 9 7.52812 9 7.5 C 9 6.6834191 8.3165809 6 7.5 6 z M 16.519531 7 C 16.763227 7.0107937 16.977702 7.2207055 16.998047 7.4628906 A 1 1 0 0 0 16.806641 7.1933594 A 1 1 0 0 0 16.519531 7 z M 7.4511719 7.0019531 C 7.4576593 7.0012379 7.4641671 7.0023875 7.4707031 7.0019531 A 1 1 0 0 0 7.1933594 7.1933594 A 1 1 0 0 0 7 7.4804688 C 7.0106195 7.2407073 7.2139901 7.0281008 7.4511719 7.0019531 z M 12 11 C 12.233312 11 12.443654 11.075776 12.611328 11.203125 A 1 1 0 0 0 12.693359 11.306641 A 1 1 0 0 0 12.796875 11.388672 C 12.924224 11.556346 13 11.766688 13 12 C 13 12.229685 12.926482 12.437116 12.802734 12.603516 A 1 1 0 0 0 12.693359 12.693359 A 1 1 0 0 0 12.611328 12.796875 C 12.443654 12.924224 12.233312 13 12 13 C 11.774958 13 11.570943 12.929745 11.40625 12.810547 A 1 1 0 0 0 11.306641 12.693359 A 1 1 0 0 0 11.197266 12.603516 C 11.073518 12.437116 11 12.229685 11 12 C 11 11.766688 11.075776 11.556346 11.203125 11.388672 A 1 1 0 0 0 11.306641 11.306641 A 1 1 0 0 0 11.40625 11.189453 C 11.570943 11.070255 11.774958 11 12 11 z M 7 16.519531 A 1 1 0 0 0 7.1933594 16.806641 A 1 1 0 0 0 7.4804688 17 C 7.2308441 16.988944 7.0110563 16.769156 7 16.519531 z M 16.998047 16.537109 C 16.977702 16.779294 16.763227 16.989206 16.519531 17 A 1 1 0 0 0 16.806641 16.806641 A 1 1 0 0 0 16.998047 16.537109 z "/>
</svg>
