<?xml version="1.0" encoding="UTF-8" standalone="no"?>
<svg xmlns="http://www.w3.org/2000/svg" xmlns:svg="http://www.w3.org/2000/svg" width="24" height="24" viewBox="0 0 24 24" fill="currentColor" tags="safe,lockbox,deposit,locker,coffer,strongbox,safety,secure,storage,valuables,bank" categories="security,travel,home">
  <path d="M 5,2 C 3.3552972,2 2,3.3552972 2,5 v 14 c 0,1.644703 1.3552972,3 3,3 h 14 c 1.644703,0 3,-1.355297 3,-3 V 5 C 22,3.3552972 20.644703,2 19,2 Z m 0,2 h 14 c 0.571297,0 1,0.4287028 1,1 v 14 c 0,0.571297 -0.428703,1 -1,1 H 5 C 4.4287028,20 4,19.571297 4,19 V 5 C 4,4.4287028 4.4287028,4 5,4 Z"/>
  <g id="circle1" style="opacity:1" stroke-width="0">
    <path style="baseline-shift:baseline;display:inline;overflow:visible;vector-effect:none;fill:currentColor;stroke:none;stroke-linecap:butt;stroke-linejoin:miter;enable-background:accumulate;stop-color:#000000;stop-opacity:1" d="M 8,7.5 A 0.5,0.5 0 0 1 7.5,8 0.5,0.5 0 0 1 7,7.5 0.5,0.5 0 0 1 7.5,7 0.5,0.5 0 0 1 8,7.5 Z" id="path5"/>
    <path style="baseline-shift:baseline;display:inline;overflow:visible;vector-effect:none;fill:#000000;stroke:none;stroke-linecap:butt;stroke-linejoin:miter;enable-background:accumulate;stop-color:#000000;stop-opacity:1" d="M 7.5,6 C 6.6834175,6 6,6.6834175 6,7.5 6,8.3165825 6.6834175,9 7.5,9 8.3165825,9 9,8.3165825 9,7.5 9,6.6834175 8.3165825,6 7.5,6 Z m 0,1 C 7.7642977,7 8,7.2357023 8,7.5 8,7.7642977 7.7642977,8 7.5,8 7.2357023,8 7,7.7642977 7,7.5 7,7.2357023 7.2357023,7 7.5,7 Z" id="path6"/>
  </g>
  <path style="baseline-shift:baseline;display:inline;overflow:visible;vector-effect:none;fill:#000000;stroke:none;stroke-linecap:butt;stroke-linejoin:miter;enable-background:accumulate;stop-color:#000000;stop-opacity:1;opacity:1" d="m 7.9003906,6.9003906 a 1,1 0 0 0 -0.7070312,0.2929688 1,1 0 0 0 0,1.4140625 l 2.6992187,2.6992191 a 1,1 0 0 0 1.4140629,0 1,1 0 0 0 0,-1.4140629 L 8.6074219,7.1933594 A 1,1 0 0 0 7.9003906,6.9003906 Z" id="path1" stroke-width="0"/>
  <g id="circle2" style="opacity:1" stroke-width="0">
    <path style="baseline-shift:baseline;display:inline;overflow:visible;vector-effect:none;fill:currentColor;stroke:none;stroke-linecap:butt;stroke-linejoin:miter;enable-background:accumulate;stop-color:#000000;stop-opacity:1" d="M 17,7.5 A 0.5,0.5 0 0 1 16.5,8 0.5,0.5 0 0 1 16,7.5 0.5,0.5 0 0 1 16.5,7 0.5,0.5 0 0 1 17,7.5 Z" id="path7"/>
    <path style="baseline-shift:baseline;display:inline;overflow:visible;vector-effect:none;fill:#000000;stroke:none;stroke-linecap:butt;stroke-linejoin:miter;enable-background:accumulate;stop-color:#000000;stop-opacity:1" d="M 16.5,6 C 15.683418,6 15,6.6834175 15,7.5 15,8.3165825 15.683418,9 16.5,9 17.316582,9 18,8.3165825 18,7.5 18,6.6834175 17.316582,6 16.5,6 Z m 0,1 C 16.764298,7 17,7.2357023 17,7.5 17,7.7642977 16.764298,8 16.5,8 16.235702,8 16,7.7642977 16,7.5 16,7.2357023 16.235702,7 16.5,7 Z" id="path8"/>
  </g>
  <path style="baseline-shift:baseline;display:inline;overflow:visible;vector-effect:none;fill:#000000;stroke:none;stroke-linecap:butt;stroke-linejoin:miter;enable-background:accumulate;stop-color:#000000;stop-opacity:1;opacity:1" d="m 15.392578,7.1933594 -2.699219,2.6992187 a 1,1 0 0 0 0,1.4140629 1,1 0 0 0 1.414063,0 l 2.699219,-2.6992191 a 1,1 0 0 0 0,-1.4140625 1,1 0 0 0 -1.414063,0 z" id="path2" stroke-width="0"/>
  <g id="circle3" style="opacity:1" stroke-width="0">
    <path style="baseline-shift:baseline;display:inline;overflow:visible;vector-effect:none;fill:currentColor;stroke:none;stroke-linecap:butt;stroke-linejoin:miter;enable-background:accumulate;stop-color:#000000;stop-opacity:1" d="M 8,16.5 A 0.5,0.5 0 0 1 7.5,17 0.5,0.5 0 0 1 7,16.5 0.5,0.5 0 0 1 7.5,16 0.5,0.5 0 0 1 8,16.5 Z" id="path9"/>
    <path style="baseline-shift:baseline;display:inline;overflow:visible;vector-effect:none;fill:#000000;stroke:none;stroke-linecap:butt;stroke-linejoin:miter;enable-background:accumulate;stop-color:#000000;stop-opacity:1" d="M 7.5,15 C 6.6834175,15 6,15.683418 6,16.5 6,17.316582 6.6834175,18 7.5,18 8.3165825,18 9,17.316582 9,16.5 9,15.683418 8.3165825,15 7.5,15 Z m 0,1 C 7.7642977,16 8,16.235702 8,16.5 8,16.764298 7.7642977,17 7.5,17 7.2357023,17 7,16.764298 7,16.5 7,16.235702 7.2357023,16 7.5,16 Z" id="path10"/>
  </g>
  <path style="baseline-shift:baseline;display:inline;overflow:visible;vector-effect:none;fill:#000000;stroke:none;stroke-linecap:butt;stroke-linejoin:miter;enable-background:accumulate;stop-color:#000000;stop-opacity:1;opacity:1" d="m 10.599609,12.400391 a 1,1 0 0 0 -0.7070309,0.292968 l -2.6992187,2.699219 a 1,1 0 0 0 0,1.414063 1,1 0 0 0 1.4140625,0 l 2.6992191,-2.699219 a 1,1 0 0 0 0,-1.414063 1,1 0 0 0 -0.707032,-0.292968 z" id="path3" stroke-width="0"/>
  <g id="circle4" style="opacity:1" stroke-width="0">
    <path style="baseline-shift:baseline;display:inline;overflow:visible;vector-effect:none;fill:currentColor;stroke:none;stroke-linecap:butt;stroke-linejoin:miter;enable-background:accumulate;stop-color:#000000;stop-opacity:1" d="M 17,16.5 A 0.5,0.5 0 0 1 16.5,17 0.5,0.5 0 0 1 16,16.5 0.5,0.5 0 0 1 16.5,16 0.5,0.5 0 0 1 17,16.5 Z" id="path11"/>
    <path style="baseline-shift:baseline;display:inline;overflow:visible;vector-effect:none;fill:#000000;stroke:none;stroke-linecap:butt;stroke-linejoin:miter;enable-background:accumulate;stop-color:#000000;stop-opacity:1" d="M 16.5,15 C 15.683418,15 15,15.683418 15,16.5 15,17.316582 15.683418,18 16.5,18 17.316582,18 18,17.316582 18,16.5 18,15.683418 17.316582,15 16.5,15 Z m 0,1 C 16.764298,16 17,16.235702 17,16.5 17,16.764298 16.764298,17 16.5,17 16.235702,17 16,16.764298 16,16.5 16,16.235702 16.235702,16 16.5,16 Z" id="path12"/>
  </g>
  <path style="baseline-shift:baseline;display:inline;overflow:visible;vector-effect:none;fill:#000000;stroke:none;stroke-linecap:butt;stroke-linejoin:miter;enable-background:accumulate;stop-color:#000000;stop-opacity:1;opacity:1" d="m 13.400391,12.400391 a 1,1 0 0 0 -0.707032,0.292968 1,1 0 0 0 0,1.414063 l 2.699219,2.699219 a 1,1 0 0 0 1.414063,0 1,1 0 0 0 0,-1.414063 l -2.699219,-2.699219 a 1,1 0 0 0 -0.707031,-0.292968 z" id="path4" stroke-width="0"/>
  <path style="baseline-shift:baseline;display:inline;overflow:visible;vector-effect:none;fill:#000000;stroke:none;stroke-linecap:butt;stroke-linejoin:miter;enable-background:accumulate;stop-color:#000000;stop-opacity:1;opacity:1" d="m 12,9 c -1.64501,0 -3,1.35499 -3,3 0,1.64501 1.35499,3 3,3 1.64501,0 3,-1.35499 3,-3 0,-1.64501 -1.35499,-3 -3,-3 z m 0,2 c 0.564129,0 1,0.435871 1,1 0,0.564129 -0.435871,1 -1,1 -0.564129,0 -1,-0.435871 -1,-1 0,-0.564129 0.435871,-1 1,-1 z" id="circle5" stroke-width="0"/>
</svg>
