<svg xmlns="http://www.w3.org/2000/svg" xmlns:svg="http://www.w3.org/2000/svg" width="24" height="24" viewBox="0 0 24 24" fill="currentColor" tags="shape,geometry,art,width,height,size,calculate,measure,select,graphics,box" categories="shapes,math,design,tools">
  <path d="M 3 1 C 1.9092972 1 1 1.9092972 1 3 L 1 6 C 1 7.0907028 1.9092972 8 3 8 L 3.2949219 8 C 2.8656242 10.649144 2.8656242 13.350856 3.2949219 16 L 3 16 C 1.9092972 16 1 16.909297 1 18 L 1 21 C 1 22.090703 1.9092972 23 3 23 L 6 23 C 7.0907028 23 8 22.090703 8 21 L 8 20.705078 C 10.649144 21.134376 13.350856 21.134376 16 20.705078 L 16 21 C 16 22.090703 16.909297 23 18 23 L 21 23 C 22.090703 23 23 22.090703 23 21 L 23 18 C 23 16.909297 22.090703 16 21 16 L 20.705078 16 C 21.134376 13.350856 21.134376 10.649144 20.705078 8 L 21 8 C 22.090703 8 23 7.0907028 23 6 L 23 3 C 23 1.9092972 22.090703 1 21 1 L 18 1 C 16.909297 1 16 1.9092972 16 3 L 16 3.2949219 C 14.675339 3.0801924 13.337478 2.9726562 12 2.9726562 C 10.662522 2.9726562 9.3246612 3.0801924 8 3.2949219 L 8 3 C 8 1.9092972 7.0907028 1 6 1 L 3 1 z M 3 3 L 6 3 L 6 4.4628906 A 1 1 0 0 0 6 4.5371094 L 6 6 L 4.5371094 6 L 4.4628906 6 L 3 6 L 3 3 z M 18 3 L 21 3 L 21 6 L 18 6 L 18 4.5371094 A 1 1 0 0 0 18 4.4628906 L 18 3 z M 12 4.9746094 C 13.338398 4.9746094 14.676796 5.0904798 16 5.3242188 L 16 6 C 16 7.0907028 16.909297 8 18 8 L 18.675781 8 C 19.143259 10.646408 19.143259 13.353591 18.675781 16 L 18 16 C 16.909297 16 16 16.909297 16 18 L 16 18.675781 C 13.353591 19.143259 10.646408 19.143259 8 18.675781 L 8 18 C 8 16.909297 7.0907028 16 6 16 L 5.3242188 16 C 4.8567408 13.353591 4.8567407 10.646408 5.3242188 8 L 6 8 C 7.0907028 8 8 7.0907028 8 6 L 8 5.3242188 C 9.3232042 5.0904797 10.661602 4.9746094 12 4.9746094 z M 3 18 L 6 18 L 6 19.462891 A 1 1 0 0 0 6 19.537109 L 6 21 L 3 21 L 3 18 z M 18 18 L 21 18 L 21 21 L 18 21 L 18 19.537109 A 1 1 0 0 0 18 19.462891 L 18 18 z "/>
</svg>
