<svg xmlns="http://www.w3.org/2000/svg" xmlns:svg="http://www.w3.org/2000/svg" width="24" height="24" viewBox="0 0 24 24" fill="currentColor" tags="vegetarian,fruitarian,herbivorous,animal rights,diet" categories="food-beverage,sustainability">
  <path d="M 2.0195312 1 A 1 1 0 0 0 1.8886719 1.0058594 A 1 1 0 0 0 1.21875 1.3769531 A 1 1 0 0 0 1.3769531 2.78125 C 2.181471 3.4230415 2.9425532 4.1091094 3.65625 4.8339844 C 3.5824848 4.9199528 3.5090344 5.006964 3.4375 5.0957031 C -0.08410997 9.4642939 0.25844881 15.805324 4.2265625 19.773438 C 6.3133839 21.860259 9.0568678 22.943545 11.824219 22.990234 A 1.0001 1.0001 0 0 0 12.173828 22.992188 C 14.552804 22.957121 16.929949 22.154062 18.904297 20.5625 C 23.07214 17.202717 24.187377 11.339649 21.644531 6.7089844 C 22.574654 5.5069514 23 3.8915841 23 2 A 1.0001 1.0001 0 0 0 22 1 C 20.108413 1 18.493049 1.4253433 17.291016 2.3554688 C 15.087151 1.1452927 12.603461 0.76306951 10.244141 1.1445312 C 8.3822328 1.44557 6.5977988 2.2233659 5.0878906 3.4433594 C 4.3166294 2.6575738 3.4941534 1.9136616 2.6230469 1.21875 A 1 1 0 0 0 2.0195312 1 z M 12.269531 3 C 13.518237 3.0374787 14.770669 3.335898 15.941406 3.9082031 C 15.334085 4.962019 15.033582 6.2613503 15.001953 7.7363281 C 13.494088 10.50509 12.715976 12.980258 12.09375 15.822266 C 11.046233 11.815606 9.1180517 8.0853833 6.4375 4.921875 C 8.1156391 3.5992103 10.188355 2.9375355 12.269531 3 z M 20.839844 3.1601562 C 20.678446 4.2994329 20.364235 5.2217028 19.792969 5.7929688 C 19.221703 6.3642348 18.299433 6.6784463 17.160156 6.8398438 C 17.321554 5.7005672 17.635765 4.7782973 18.207031 4.2070312 C 18.778297 3.6357653 19.700567 3.3215537 20.839844 3.1601562 z M 5.0136719 6.3261719 C 8.4570703 10.425318 10.551047 15.533569 10.943359 20.939453 C 8.9996888 20.708598 7.1231873 19.841937 5.640625 18.359375 C 2.3826875 15.101438 2.1036202 9.9372807 4.9941406 6.3515625 C 5.0007492 6.3433645 5.0070401 6.3343411 5.0136719 6.3261719 z M 20.091797 8.0585938 C 21.915541 11.789338 20.954493 16.340781 17.648438 19.005859 C 16.309749 20.085004 14.751668 20.722233 13.154297 20.927734 C 13.929537 15.268718 14.523905 12.828763 16.601562 8.984375 C 17.937571 8.9168982 19.119083 8.6191747 20.091797 8.0585938 z "/>
</svg>
