<?xml version="1.0" encoding="UTF-8" standalone="no"?>
<svg xmlns="http://www.w3.org/2000/svg" xmlns:svg="http://www.w3.org/2000/svg" width="24" height="24" viewBox="0 0 24 24" fill="currentColor" tags="vegetarian,fruitarian,herbivorous,animal rights,diet" categories="food-beverage,sustainability">
  <path d="M 22 1 C 20.10708 1 18.491359 1.4259281 17.289062 2.3574219 C 15.085314 1.147447 12.603295 0.76309628 10.244141 1.1445312 C 8.3822388 1.445569 6.5997489 2.2253258 5.0898438 3.4453125 C 4.3178016 2.6585096 3.4951703 1.9144728 2.6230469 1.21875 A 1 1 0 0 0 1.8886719 1.0058594 A 1 1 0 0 0 1.21875 1.3769531 A 1 1 0 0 0 1.3769531 2.78125 C 2.182602 3.4239437 2.9416811 4.1118864 3.65625 4.8378906 C 3.5830273 4.9232645 3.5085234 5.007598 3.4375 5.0957031 C -0.08410997 9.4642939 0.25844881 15.805324 4.2265625 19.773438 C 6.3782444 21.92512 9.2277431 23.008621 12.082031 22.990234 A 1.0001 1.0001 0 0 0 12.175781 22.988281 C 14.554156 22.952837 16.930447 22.15366 18.904297 20.5625 C 23.072004 17.202827 24.185103 11.341532 21.642578 6.7109375 C 22.574072 5.5086404 23 3.8929198 23 2 A 1.0001 1.0001 0 0 0 22 1 z M 12.171875 2.9980469 C 13.453651 3.0223739 14.739495 3.3244397 15.941406 3.9121094 C 15.334553 4.9666942 15.034861 6.2663786 15.003906 7.7421875 C 13.499128 10.507456 12.715328 12.983218 12.09375 15.822266 C 11.046273 11.815758 9.1159397 8.0892125 6.4355469 4.9257812 C 8.0875276 3.6227028 10.122963 2.9591603 12.171875 2.9980469 z M 20.839844 3.1601562 C 20.678446 4.2994329 20.364235 5.2217028 19.792969 5.7929688 C 19.221703 6.3642348 18.299433 6.6784463 17.160156 6.8398438 C 17.321554 5.7005672 17.635765 4.7782973 18.207031 4.2070312 C 18.778297 3.6357653 19.700567 3.3215537 20.839844 3.1601562 z M 5.0136719 6.3300781 C 8.4556568 10.428171 10.548552 15.531489 10.941406 20.935547 C 8.9985651 20.704277 7.1225951 19.841345 5.640625 18.359375 C 2.3826875 15.101438 2.1036202 9.9372807 4.9941406 6.3515625 C 5.0002414 6.3439945 5.0075514 6.3376216 5.0136719 6.3300781 z M 20.087891 8.0585938 C 21.912086 11.789466 20.954695 16.340618 17.648438 19.005859 C 16.310907 20.08407 14.754125 20.719711 13.158203 20.925781 C 13.929896 15.303495 14.533951 12.81495 16.603516 8.984375 C 17.93684 8.9166814 19.116508 8.617569 20.087891 8.0585938 z "/>
</svg>
