<?xml version="1.0" encoding="UTF-8" standalone="no"?>
<svg xmlns="http://www.w3.org/2000/svg" xmlns:svg="http://www.w3.org/2000/svg" width="24" height="24" viewBox="0 0 24 24" fill="currentColor" tags="vegetarian,fruitarian,herbivorous,animal rights,diet" categories="food-beverage,sustainability">
  
  <path d="M 22 1 C 20.102402 1 18.482511 1.4269747 17.279297 2.3632812 C 15.078039 1.1576371 12.599725 0.77539218 10.244141 1.15625 C 8.3844889 1.4569239 6.6044471 2.2342951 5.0957031 3.4511719 C 4.3219866 2.6621853 3.4973515 1.9162128 2.6230469 1.21875 A 1 1 0 0 0 1.8886719 1.0058594 A 1 1 0 0 0 1.21875 1.3769531 A 1 1 0 0 0 1.3769531 2.78125 C 2.1840558 3.4251035 2.9444668 4.1143399 3.6601562 4.8417969 C 3.5853727 4.9288733 3.509993 5.0155404 3.4375 5.1054688 C -0.084102928 9.4740509 0.25845674 15.815097 4.2265625 19.783203 C 8.1946682 23.751309 14.535714 24.093868 18.904297 20.572266 C 23.073843 17.211109 24.185564 11.346389 21.638672 6.7148438 C 22.572488 5.512103 23 3.8951772 23 2 A 1.0001 1.0001 0 0 0 22 1 z M 12.171875 3.0078125 C 13.452254 3.0321127 14.736714 3.3335222 15.9375 3.9199219 C 15.333557 4.973156 15.034787 6.269898 15.003906 7.7421875 C 13.499131 10.507451 12.715326 12.983224 12.09375 15.822266 C 11.04697 11.818425 9.1190191 8.0937211 6.4414062 4.9316406 C 8.0923997 3.6314363 10.125242 2.9689696 12.171875 3.0078125 z M 20.839844 3.1601562 C 20.678446 4.2994306 20.364233 5.221704 19.792969 5.7929688 C 19.221703 6.3642336 18.299431 6.6784467 17.160156 6.8398438 C 17.321554 5.7005694 17.635767 4.7782961 18.207031 4.2070312 C 18.778297 3.6357665 19.700569 3.3215533 20.839844 3.1601562 z M 5.0175781 6.3339844 C 8.4595157 10.433812 10.550488 15.539523 10.941406 20.945312 C 8.9985663 20.714043 7.1225921 19.851108 5.640625 18.369141 C 2.3826941 15.111209 2.103626 9.9470392 4.9941406 6.3613281 C 5.0017124 6.3519353 5.009976 6.3433394 5.0175781 6.3339844 z M 20.083984 8.0605469 C 21.913367 11.792877 20.957009 16.348519 17.648438 19.015625 C 16.310374 20.094265 14.75284 20.72974 13.15625 20.935547 C 13.928595 15.306288 14.53275 12.817172 16.603516 8.984375 C 17.935112 8.9167689 19.113322 8.6181235 20.083984 8.0605469 z "/>
</svg>
