<?xml version="1.0" encoding="UTF-8" standalone="no"?>
<svg xmlns="http://www.w3.org/2000/svg" xmlns:svg="http://www.w3.org/2000/svg" width="24" height="24" viewBox="0 0 24 24" fill="currentColor" tags="mask,masquerade,impersonate,secret,incognito" categories="account,gaming">
  
  <path d="M 2 6 A 1.0001 1.0001 0 0 0 1 7 L 1 12 C 1 15.289458 3.6779804 17.97984 6.9628906 18 C 8.5798311 18.06023 10.125465 18.678483 11.337891 19.75 A 1.0001 1.0001 0 0 0 12.662109 19.75 C 13.874535 18.678483 15.420169 18.060229 17.037109 18 C 20.32202 17.97984 23 15.289458 23 12 L 23 7 A 1.0001 1.0001 0 0 0 22 6 L 17 6 A 1.0001 1.0001 0 0 0 16.962891 6 C 15.147428 6.0676235 13.45149 6.7693087 12 7.8417969 C 10.54851 6.7693087 8.8525726 6.0676235 7.0371094 6 A 1.0001 1.0001 0 0 0 7 6 L 2 6 z M 3 8 L 6.9628906 8 C 8.5798311 8.0602289 10.125465 8.6784826 11.337891 9.75 A 1.0001 1.0001 0 0 0 12.662109 9.75 C 13.874535 8.6784826 15.420169 8.0602287 17.037109 8 L 21 8 L 21 12 C 21 14.220979 19.220979 16 17 16 A 1.0001 1.0001 0 0 0 16.962891 16 C 15.147428 16.067624 13.45149 16.769309 12 17.841797 C 10.54851 16.769309 8.8525726 16.067624 7.0371094 16 A 1.0001 1.0001 0 0 0 7 16 C 4.7790208 16 3 14.220979 3 12 L 3 8 z M 6 10 A 1.0001 1.0001 0 0 0 5 11 C 5 11.583332 5.0646982 12.092836 5.2734375 12.5625 C 5.482177 13.032164 5.8738498 13.430089 6.3027344 13.644531 C 7.1605035 14.073416 8.000002 14 9 14 A 1.0001 1.0001 0 0 0 10 13 C 10 11.916669 9.342236 11.003283 8.5488281 10.5625 C 7.7554202 10.121717 6.8611093 10 6 10 z M 18 10 C 17.138891 10 16.24458 10.121717 15.451172 10.5625 C 14.657764 11.003283 14 11.916669 14 13 A 1.0001 1.0001 0 0 0 15 14 C 15.999998 14 16.839496 14.07342 17.697266 13.644531 C 18.12615 13.430089 18.517824 13.032164 18.726562 12.5625 C 18.935302 12.092836 19 11.583332 19 11 A 1.0001 1.0001 0 0 0 18 10 z "/>
</svg>
