<?xml version="1.0" encoding="UTF-8" standalone="no"?>
<svg xmlns="http://www.w3.org/2000/svg" xmlns:svg="http://www.w3.org/2000/svg" width="24" height="24" viewBox="0 0 24 24" fill="currentColor" tags="mask,masquerade,impersonate,secret,incognito" categories="account,gaming">
  <path d="M 4 5 C 2.3549904 5 1 6.3549904 1 8 L 1 12 C 1 15.289464 3.6779739 17.97984 6.9628906 18 C 8.5798343 18.06023 10.125463 18.67848 11.337891 19.75 A 1.0001 1.0001 0 0 0 12.662109 19.75 C 13.874537 18.67848 15.420166 18.060229 17.037109 18 C 20.322026 17.97984 23 15.289464 23 12 L 23 8 C 23 6.3549904 21.64501 5 20 5 L 17 5 A 1.0001 1.0001 0 0 0 16.962891 5 C 15.147425 5.0676236 13.451492 5.7693066 12 6.8417969 C 10.548508 5.7693066 8.8525763 5.0676236 7.0371094 5 A 1.0001 1.0001 0 0 0 7 5 L 4 5 z M 4 7 L 6.9628906 7 C 8.5798343 7.060229 10.125463 7.6784805 11.337891 8.75 A 1.0001 1.0001 0 0 0 12.662109 8.75 C 13.874537 7.6784805 15.420166 7.0602289 17.037109 7 L 20 7 C 20.564129 7 21 7.4358706 21 8 L 21 12 C 21 14.220984 19.220984 16 17 16 A 1.0001 1.0001 0 0 0 16.962891 16 C 15.147425 16.067624 13.451492 16.769307 12 17.841797 C 10.548508 16.769307 8.8525763 16.067624 7.0371094 16 A 1.0001 1.0001 0 0 0 7 16 C 4.7790164 16 3 14.220984 3 12 L 3 8 C 3 7.4358706 3.4358706 7 4 7 z M 6 10 A 1 1 0 0 0 5 11 A 1 1 0 0 0 6 12 C 6.6388889 12 7.0616727 12.107637 7.3457031 12.285156 C 7.6297335 12.462675 7.8534858 12.72452 8.0507812 13.316406 A 1 1 0 0 0 9.3164062 13.949219 A 1 1 0 0 0 9.9492188 12.683594 C 9.646514 11.77548 9.1202665 11.037325 8.4042969 10.589844 C 7.6883273 10.142363 6.8611111 10 6 10 z M 18 10 C 17.138889 10 16.311673 10.142363 15.595703 10.589844 C 14.879734 11.037325 14.353486 11.77548 14.050781 12.683594 A 1 1 0 0 0 14.683594 13.949219 A 1 1 0 0 0 15.949219 13.316406 C 16.146514 12.72452 16.370266 12.462675 16.654297 12.285156 C 16.938327 12.107637 17.361111 12 18 12 A 1 1 0 0 0 19 11 A 1 1 0 0 0 18 10 z "/>
</svg>
