<?xml version="1.0" encoding="UTF-8" standalone="no"?>
<svg xmlns="http://www.w3.org/2000/svg" xmlns:svg="http://www.w3.org/2000/svg" width="24" height="24" viewBox="0 0 24 24" fill="currentColor" tags="gender,sex,female,feminine,woman,girl" categories="medical">
  <path d="M 12 2 C 8.1458514 2 5 5.1458514 5 9 C 5 12.51436 7.6167957 15.439224 11 15.927734 L 11 18 L 9 18 A 1 1 0 0 0 8 19 A 1 1 0 0 0 9 20 L 11 20 L 11 22 A 1 1 0 0 0 12 23 A 1 1 0 0 0 13 22 L 13 20 L 15 20 A 1 1 0 0 0 16 19 A 1 1 0 0 0 15 18 L 13 18 L 13 15.927734 C 16.383205 15.439224 19 12.51436 19 9 C 19 5.1458514 15.854149 2 12 2 z M 12 4 C 14.773268 4 17 6.2267316 17 9 C 17 11.773268 14.773268 14 12 14 C 9.2267316 14 7 11.773268 7 9 C 7 6.2267316 9.2267316 4 12 4 z "/>
</svg>
