<svg xmlns="http://www.w3.org/2000/svg" xmlns:svg="http://www.w3.org/2000/svg" width="24" height="24" viewBox="0 0 24 24" fill="currentColor" tags="gender,sex,intersex,androgynous,hermaphrodite" categories="medical">
  <path d="M 17 1 A 1 1 0 0 0 16 2 A 1 1 0 0 0 17 3 L 18.585938 3 L 15.470703 6.1132812 C 14.489367 5.4132542 13.291268 5 12 5 C 8.6981361 5 6 7.6981361 6 11 C 6 13.961344 8.1703169 16.436871 11 16.916016 L 11 19 L 10 19 A 1 1 0 0 0 9 20 A 1 1 0 0 0 10 21 L 11 21 L 11 22 A 1 1 0 0 0 12 23 A 1 1 0 0 0 13 22 L 13 21 L 14 21 A 1 1 0 0 0 15 20 A 1 1 0 0 0 14 19 L 13 19 L 13 16.916016 C 15.829683 16.436871 18 13.961344 18 11 C 18 9.7087322 17.586746 8.5106334 16.886719 7.5292969 L 20 4.4140625 L 20 6 A 1 1 0 0 0 21 7 A 1 1 0 0 0 22 6 L 22 2 A 1.0001 1.0001 0 0 0 21.707031 1.2929688 A 1 1 0 0 0 21.382812 1.0761719 A 1.0001 1.0001 0 0 0 21 1 L 17 1 z M 12 7 C 13.094349 7 14.080986 7.4328312 14.800781 8.1367188 C 14.811399 8.1471016 14.821531 8.1574681 14.832031 8.1679688 A 1 1 0 0 0 14.863281 8.1992188 C 15.567169 8.9190142 16 9.9056506 16 11 C 16 13.220984 14.220984 15 12 15 C 9.7790164 15 8 13.220984 8 11 C 8 8.7790164 9.7790164 7 12 7 z "/>
</svg>
