<?xml version="1.0" encoding="UTF-8" standalone="no"?>
<svg xmlns="http://www.w3.org/2000/svg" xmlns:svg="http://www.w3.org/2000/svg" width="24" height="24" viewBox="0 0 24 24" fill="currentColor" tags="gender,sex,intersex,androgynous,hermaphrodite" categories="medical">
  <path d="M 17 1 A 1 1 0 0 0 16 2 A 1 1 0 0 0 17 3 L 18.585938 3 L 15.470703 6.1132812 C 14.489339 5.4131889 13.291334 5 12 5 C 8.6981361 5 6 7.6981361 6 11 C 6 13.960908 8.170928 16.434401 11 16.914062 L 11 19 L 10 19 A 1 1 0 0 0 9 20 A 1 1 0 0 0 10 21 L 11 21 L 11 22 A 1 1 0 0 0 12 23 A 1 1 0 0 0 13 22 L 13 21 L 14 21 A 1 1 0 0 0 15 20 A 1 1 0 0 0 14 19 L 13 19 L 13 16.914062 C 15.829072 16.434401 18 13.960908 18 11 C 18 9.7086661 17.586811 8.5106614 16.886719 7.5292969 L 20 4.4140625 L 20 6 A 1 1 0 0 0 21 7 A 1 1 0 0 0 22 6 L 22 2 A 1.0001 1.0001 0 0 0 21.998047 1.9824219 A 1 1 0 0 0 21.974609 1.7773438 A 1.0001 1.0001 0 0 0 21.972656 1.7714844 A 1 1 0 0 0 21.900391 1.5664062 A 1.0001 1.0001 0 0 0 21.896484 1.5585938 A 1 1 0 0 0 21.78125 1.3769531 A 1 1 0 0 0 21.707031 1.2929688 A 1 1 0 0 0 21.666016 1.2617188 A 1.0001 1.0001 0 0 0 21.548828 1.171875 A 1 1 0 0 0 21.46875 1.1230469 A 1.0001 1.0001 0 0 0 21.300781 1.0527344 A 1 1 0 0 0 21.246094 1.0332031 A 1.0001 1.0001 0 0 0 21 1 L 17 1 z M 12 7 C 13.110492 7 14.109654 7.4455917 14.832031 8.1679688 C 15.554408 8.8903458 16 9.8895082 16 11 C 16 13.220984 14.220984 15 12 15 C 9.7790164 15 8 13.220984 8 11 C 8 8.7790164 9.7790164 7 12 7 z "/>
</svg>
