<?xml version="1.0" encoding="UTF-8" standalone="no"?>
<svg xmlns="http://www.w3.org/2000/svg" xmlns:svg="http://www.w3.org/2000/svg" width="24" height="24" viewBox="0 0 24 24" fill="currentColor" tags="smartphone,notification,rumble,haptic feedback,notifications,screen" categories="devices,connectivity,account">
  <path d="M 2 1 A 1 1 0 0 0 1.2929688 1.2929688 A 1 1 0 0 0 1.2929688 2.7070312 L 7 8.4140625 L 7 18 C 7 19.095452 7.9045477 20 9 20 L 15 20 C 15.966665 20 16.783913 19.295304 16.962891 18.376953 L 21.292969 22.707031 A 1 1 0 0 0 22.707031 22.707031 A 1 1 0 0 0 22.707031 21.292969 L 16.748047 15.335938 A 1 1 0 0 0 16.664062 15.251953 L 8.7480469 7.3359375 A 1 1 0 0 0 8.6640625 7.2519531 L 2.7070312 1.2929688 A 1 1 0 0 0 2 1 z M 10.660156 4 A 1 1 0 0 0 9.6601562 5 A 1 1 0 0 0 10.660156 6 L 15 6 L 15 10.339844 A 1 1 0 0 0 16 11.339844 A 1 1 0 0 0 17 10.339844 L 17 6 C 17 4.9045477 16.095452 4 15 4 L 10.660156 4 z M 2 7 A 1 1 0 0 0 1.2929688 7.2929688 A 1 1 0 0 0 1.2929688 8.7070312 L 2.5859375 10 L 1.2929688 11.292969 A 1.0001 1.0001 0 0 0 1.2929688 12.707031 L 2.5859375 14 L 1.2929688 15.292969 A 1 1 0 0 0 1.2929688 16.707031 A 1 1 0 0 0 2.7070312 16.707031 L 4.7070312 14.707031 A 1.0001 1.0001 0 0 0 4.7070312 13.292969 L 3.4140625 12 L 4.7070312 10.707031 A 1.0001 1.0001 0 0 0 4.7070312 9.2929688 L 2.7070312 7.2929688 A 1 1 0 0 0 2 7 z M 22 7 A 1 1 0 0 0 21.292969 7.2929688 L 19.292969 9.2929688 A 1.0001 1.0001 0 0 0 19.292969 10.707031 L 20.585938 12 L 19.292969 13.292969 A 1.0001 1.0001 0 0 0 19.292969 14.707031 L 21.292969 16.707031 A 1 1 0 0 0 22.707031 16.707031 A 1 1 0 0 0 22.707031 15.292969 L 21.414062 14 L 22.707031 12.707031 A 1.0001 1.0001 0 0 0 22.707031 11.292969 L 21.414062 10 L 22.707031 8.7070312 A 1 1 0 0 0 22.707031 7.2929688 A 1 1 0 0 0 22 7 z M 9 10.414062 L 15 16.414062 L 15 18 L 9 18 L 9 10.414062 z "/>
</svg>
