<svg xmlns="http://www.w3.org/2000/svg" xmlns:svg="http://www.w3.org/2000/svg" width="24" height="24" viewBox="0 0 24 24" fill="currentColor" tags="smartphone,notification,rumble,haptic feedback,screen" categories="devices,connectivity,account,notifications">
  <path d="M 9 4 C 7.9092972 4 7 4.9092972 7 6 L 7 18 C 7 19.090703 7.9092972 20 9 20 L 15 20 C 16.090703 20 17 19.090703 17 18 L 17 6 C 17 4.9092972 16.090703 4 15 4 L 9 4 z M 9 6 L 15 6 L 15 18 L 9 18 L 9 6 z M 2 7 A 1 1 0 0 0 1.2929688 7.2929688 A 1 1 0 0 0 1.2929688 8.7070312 L 2.5859375 10 L 1.2929688 11.292969 A 1.0001 1.0001 0 0 0 1.2929688 12.707031 L 2.5859375 14 L 1.2929688 15.292969 A 1 1 0 0 0 1.2929688 16.707031 A 1 1 0 0 0 2.7070312 16.707031 L 4.7070312 14.707031 A 1.0001 1.0001 0 0 0 4.7070312 13.292969 L 3.4140625 12 L 4.7070312 10.707031 A 1.0001 1.0001 0 0 0 4.7070312 9.2929688 L 2.7070312 7.2929688 A 1 1 0 0 0 2 7 z M 22 7 A 1 1 0 0 0 21.292969 7.2929688 L 19.292969 9.2929688 A 1.0001 1.0001 0 0 0 19.292969 10.707031 L 20.585938 12 L 19.292969 13.292969 A 1.0001 1.0001 0 0 0 19.292969 14.707031 L 21.292969 16.707031 A 1 1 0 0 0 22.707031 16.707031 A 1 1 0 0 0 22.707031 15.292969 L 21.414062 14 L 22.707031 12.707031 A 1.0001 1.0001 0 0 0 22.707031 11.292969 L 21.414062 10 L 22.707031 8.7070312 A 1 1 0 0 0 22.707031 7.2929688 A 1 1 0 0 0 22 7 z "/>
</svg>
