<?xml version="1.0" encoding="UTF-8" standalone="no"?>
<svg xmlns="http://www.w3.org/2000/svg" xmlns:svg="http://www.w3.org/2000/svg" width="24" height="24" viewBox="0 0 24 24" fill="currentColor" tags="camera,movie,film,recording,motion picture,camcorder,reel" categories="devices,communication,connectivity,photography">
  <path d="M 4 5 C 2.3552972 5 1 6.3552972 1 8 L 1 16 C 1 17.644703 2.3552972 19 4 19 L 14 19 C 15.644703 19 17 17.644703 17 16 L 17 14.869141 L 20.667969 17.314453 A 1.0001 1.0001 0 0 0 20.669922 17.314453 C 21.620271 17.946896 22.99941 17.208 23 16.066406 L 23 7.8710938 L 23 7.8691406 C 22.998872 6.7608495 21.701728 6.0154342 20.744141 6.5742188 L 17 8.7597656 L 17 8 C 17 6.3552972 15.644703 5 14 5 L 4 5 z M 4 7 L 14 7 C 14.571297 7 15 7.4287028 15 8 L 15 13.041016 L 15 16 C 15 16.571297 14.571297 17 14 17 L 4 17 C 3.4287028 17 3 16.571297 3 16 L 3 8 C 3 7.4287028 3.4287028 7 4 7 z M 21 8.7402344 L 21 15.132812 L 17 12.464844 L 17 11.074219 L 21 8.7402344 z "/>
</svg>
