<svg xmlns="http://www.w3.org/2000/svg" xmlns:svg="http://www.w3.org/2000/svg" width="24" height="24" viewBox="0 0 24 24" fill="currentColor" tags="vhs,movie,film,recording,motion picture,showreel,cassette" categories="devices,communication,connectivity,photography,files">
  <path d="M 4 3 C 2.3552972 3 1 4.3552972 1 6 L 1 18 C 1 19.644703 2.3552972 21 4 21 L 20 21 C 21.644703 21 23 19.644703 23 18 L 23 6 C 23 4.3552972 21.644703 3 20 3 L 4 3 z M 4 5 L 20 5 C 20.571297 5 21 5.4287028 21 6 L 21 7 L 3 7 L 3 6 C 3 5.4287028 3.4287028 5 4 5 z M 3 9 L 21 9 L 21 18 C 21 18.571297 20.571297 19 20 19 L 4 19 C 3.4287028 19 3 18.571297 3 18 L 3 9 z M 8 11 C 6.3549904 11 5 12.35499 5 14 C 5 15.64501 6.3549904 17 8 17 C 9.6450096 17 11 15.64501 11 14 C 11 13.650133 10.938511 13.313384 10.826172 13 L 13.173828 13 C 13.061489 13.313384 13 13.650133 13 14 C 13 15.64501 14.35499 17 16 17 C 17.64501 17 19 15.64501 19 14 C 19 12.354993 17.645006 11.000005 16 11 L 8 11 z M 8 13 C 8.5641294 13 9 13.435871 9 14 C 9 14.564129 8.5641294 15 8 15 C 7.4358706 15 7 14.564129 7 14 C 7 13.435871 7.4358706 13 8 13 z M 16 13 C 16.564129 13 17 13.435871 17 14 C 17 14.564129 16.564129 15 16 15 C 15.435871 15 15 14.564129 15 14 C 15 13.435871 15.435871 13 16 13 z "/>
</svg>
