<?xml version="1.0" encoding="UTF-8" standalone="no"?>
<svg xmlns="http://www.w3.org/2000/svg" xmlns:svg="http://www.w3.org/2000/svg" width="24" height="24" viewBox="0 0 24 24" fill="currentColor" tags="phone,cassette,tape,reel,recording,audio" categories="connectivity,devices,social">
  <path d="M 6 7 C 3.2504209 7 1 9.2504209 1 12 C 1 14.749579 3.2504209 17 6 17 L 18 17 C 20.749579 17 23 14.749579 23 12 C 23 9.2504209 20.749579 7 18 7 C 15.250421 7 13 9.2504209 13 12 C 13 13.123408 13.375917 14.162688 14.007812 15 L 9.9921875 15 C 10.624083 14.162688 11 13.123408 11 12 C 11 9.2504209 8.7495791 7 6 7 z M 6 9 C 7.6686989 9 9 10.331301 9 12 C 9 13.668699 7.6686989 15 6 15 C 4.3313011 15 3 13.668699 3 12 C 3 10.331301 4.3313011 9 6 9 z M 18 9 C 19.668699 9 21 10.331301 21 12 C 21 13.668699 19.668699 15 18 15 C 16.331301 15 15 13.668699 15 12 C 15 10.331301 16.331301 9 18 9 z "/>
</svg>
