<?xml version="1.0" encoding="UTF-8" standalone="no"?>
<svg xmlns="http://www.w3.org/2000/svg" xmlns:svg="http://www.w3.org/2000/svg" width="24" height="24" viewBox="0 0 24 24" fill="currentColor" tags="beach,sand,net,holiday,vacation,summer,soccer,football,futbol,kick,pitch,goal,score,bounce,leather,wool,yarn,knitting,sewing,thread,embroidery,textile" categories="sports,gaming,travel">
  <path d="M 12 1 C 5.9367124 1 1 5.9367124 1 12 C 1 13.909447 1.491371 15.706443 2.3515625 17.273438 A 1 1 0 0 0 2.5957031 17.699219 A 1 1 0 0 0 2.5976562 17.701172 C 3.695809 19.50516 5.2979341 20.969729 7.2070312 21.898438 A 1 1 0 0 0 7.5683594 22.064453 C 8.9252116 22.664588 10.42402 23 12 23 C 15.967385 23 19.451417 20.886429 21.386719 17.726562 A 1 1 0 0 0 21.669922 17.238281 C 22.517847 15.679814 23 13.894778 23 12 C 23 11.766142 22.991032 11.534975 22.976562 11.304688 A 1 1 0 0 0 22.923828 10.71875 C 22.286418 5.2566778 17.629746 1 12 1 z M 12.685547 3.0292969 C 16.19325 3.2919036 19.128888 5.549624 20.367188 8.6777344 C 17.872925 7.1523611 15.026865 6.2701295 12.087891 6.1230469 C 12.148587 5.0762772 12.345697 4.0368101 12.685547 3.0292969 z M 10.566406 3.1132812 C 9.759295 5.9694967 9.8581968 9.0150298 10.865234 11.824219 C 10.203574 12.632732 9.4425821 13.342013 8.6035156 13.9375 C 7.1376168 10.98354 6.6472277 7.6344113 7.2109375 4.375 C 8.2129204 3.7457115 9.3479918 3.3071904 10.566406 3.1132812 z M 4.9941406 6.3417969 C 4.8785097 9.3155714 5.5237614 12.280953 6.8769531 14.953125 C 5.934118 15.402068 4.9283315 15.724171 3.8847656 15.90625 C 3.317086 14.725501 3 13.401302 3 12 C 3 9.8533404 3.7467259 7.8861038 4.9941406 6.3417969 z M 12.136719 8.1269531 C 15.368478 8.3193952 18.463766 9.5167343 20.988281 11.558594 C 20.995277 11.704669 21 11.852145 21 12 C 21 13.112309 20.798142 14.176032 20.431641 15.158203 C 19.539698 14.236196 18.526421 13.451892 17.423828 12.820312 A 1 1 0 0 0 17.291016 12.728516 A 1 1 0 0 0 17.210938 12.699219 C 15.859143 11.956468 14.380987 11.437101 12.835938 11.167969 C 12.478374 10.179067 12.245112 9.1574588 12.136719 8.1269531 z M 12.431641 13.072266 C 13.462524 13.245001 14.457925 13.553558 15.394531 13.982422 C 13.593206 16.730153 10.964228 18.842186 7.8808594 20.005859 C 6.7807836 19.440316 5.8122153 18.656838 5.0351562 17.708984 C 7.9338877 17.020191 10.537308 15.396375 12.431641 13.072266 z M 17.138672 14.96875 C 17.994577 15.553429 18.774878 16.251421 19.457031 17.050781 C 17.840888 19.436401 15.107978 21 12 21 C 11.563923 21 11.136045 20.967709 10.716797 20.908203 C 13.316013 19.507322 15.528206 17.466443 17.138672 14.96875 z "/>
</svg>
