<?xml version="1.0" encoding="UTF-8" standalone="no"?>
<svg xmlns="http://www.w3.org/2000/svg" xmlns:svg="http://www.w3.org/2000/svg" width="24" height="24" viewBox="0 0 24 24" fill="currentColor" tags="beach,sand,net,holiday,vacation,summer,soccer,football,futbol,kick,pitch,goal,score,bounce,leather,wool,yarn,knitting,sewing,thread,embroidery,textile" categories="sports,gaming,travel,home">
  <path d="M 12 1 C 5.9367246 1 1 5.9367246 1 12 C 1 13.909443 1.4913712 15.706444 2.3515625 17.273438 A 1 1 0 0 0 2.5957031 17.699219 A 1 1 0 0 0 2.5976562 17.701172 C 3.6958087 19.505158 5.2979363 20.969729 7.2070312 21.898438 A 1 1 0 0 0 7.5683594 22.064453 C 8.92521 22.664588 10.424023 23 12 23 C 15.967377 23 19.451418 20.886426 21.386719 17.726562 A 1 1 0 0 0 21.669922 17.238281 C 22.517847 15.679816 23 13.894774 23 12 C 23 11.766142 22.991032 11.534975 22.976562 11.304688 A 1 1 0 0 0 22.923828 10.71875 C 22.286418 5.2566874 17.629735 1 12 1 z M 12.685547 3.0292969 C 16.193244 3.2919036 19.128889 5.549628 20.367188 8.6777344 C 17.872928 7.1523631 15.02686 6.2701297 12.087891 6.1230469 C 12.148587 5.0762778 12.345697 4.0368085 12.685547 3.0292969 z M 10.566406 3.1132812 C 9.7592966 5.9694931 9.8581988 9.0150345 10.865234 11.824219 C 10.203575 12.63273 9.4425816 13.342014 8.6035156 13.9375 C 7.1376195 10.983544 6.6472289 7.6344054 7.2109375 4.375 C 8.2129194 3.7457117 9.3479938 3.3071904 10.566406 3.1132812 z M 4.9941406 6.3417969 C 4.8785104 9.3155685 5.5237639 12.280957 6.8769531 14.953125 C 5.9341187 15.402068 4.9283297 15.724171 3.8847656 15.90625 C 3.3170861 14.725502 3 13.401299 3 12 C 3 9.8533447 3.7467265 7.8861026 4.9941406 6.3417969 z M 12.136719 8.1269531 C 15.368473 8.3193954 18.463771 9.5167381 20.988281 11.558594 C 20.995277 11.704669 21 11.852146 21 12 C 21 13.112307 20.798142 14.176034 20.431641 15.158203 C 19.539699 14.236197 18.52642 13.451892 17.423828 12.820312 A 1 1 0 0 0 17.291016 12.728516 A 1 1 0 0 0 17.210938 12.699219 C 15.859144 11.956468 14.380984 11.4371 12.835938 11.167969 C 12.478375 10.179069 12.245112 9.1574581 12.136719 8.1269531 z M 12.431641 13.072266 C 13.462522 13.245 14.457926 13.553558 15.394531 13.982422 C 13.593208 16.730149 10.964222 18.842188 7.8808594 20.005859 C 6.7807848 19.440316 5.8122149 18.656837 5.0351562 17.708984 C 7.9338837 17.020192 10.537311 15.396371 12.431641 13.072266 z M 17.138672 14.96875 C 17.994577 15.553429 18.774879 16.251422 19.457031 17.050781 C 17.840889 19.436399 15.107972 21 12 21 C 11.563924 21 11.136045 20.967709 10.716797 20.908203 C 13.31601 19.507323 15.528208 17.466439 17.138672 14.96875 z "/>
</svg>
