<svg xmlns="http://www.w3.org/2000/svg" xmlns:svg="http://www.w3.org/2000/svg" width="24" height="24" viewBox="0 0 24 24" fill="currentColor" tags="beach,sand,net,holiday,vacation,summer,soccer,football,futbol,kick,pitch,goal,score,bounce,leather,wool,yarn,knitting,sewing,thread,embroidery,textile" categories="sports,gaming,travel">
  <path d="M 12 1 C 5.9367124 1 1 5.9367124 1 12 C 1 13.893541 1.48123 15.67663 2.328125 17.234375 A 1 1 0 0 0 2.6113281 17.724609 C 3.7050588 19.510996 5.2941046 20.963622 7.1855469 21.888672 A 1 1 0 0 0 7.5957031 22.078125 C 8.9452633 22.670581 10.434728 23 12 23 C 15.967047 23 19.451318 20.885982 21.386719 17.726562 A 1 1 0 0 0 21.671875 17.232422 C 22.518182 15.675089 23 13.892835 23 12 C 23 11.766954 22.992885 11.536141 22.978516 11.306641 A 1 1 0 0 0 22.925781 10.722656 C 22.290611 5.2582031 17.631449 1 12 1 z M 12.683594 3.0253906 C 16.193478 3.287413 19.133388 5.5491597 20.371094 8.6796875 C 17.875138 7.1523378 15.027415 6.2678788 12.085938 6.1210938 C 12.146855 5.0737611 12.343204 4.0333753 12.683594 3.0253906 z M 10.564453 3.1132812 C 9.7571586 5.9705709 9.8570454 9.0181069 10.865234 11.828125 C 10.204036 12.635654 9.4417494 13.34259 8.6035156 13.9375 C 7.1371655 10.982795 6.6466013 7.6332699 7.2109375 4.3730469 C 8.2120604 3.7445431 9.3473165 3.30726 10.564453 3.1132812 z M 4.9960938 6.3378906 C 4.8798649 9.312431 5.5216317 12.2802 6.875 14.953125 C 5.9327521 15.401586 4.9275866 15.724283 3.8847656 15.90625 C 3.3174379 14.725795 3 13.40084 3 12 C 3 9.8520493 3.7473251 7.8826168 4.9960938 6.3378906 z M 12.132812 8.1269531 C 15.365954 8.3188632 18.464817 9.5157456 20.990234 11.558594 C 20.997243 11.704799 21 11.852013 21 12 C 21 13.110971 20.801208 14.17311 20.435547 15.154297 C 19.541311 14.229822 18.523883 13.444993 17.417969 12.8125 A 1 1 0 0 0 17.291016 12.728516 A 1 1 0 0 0 17.142578 12.660156 C 15.809264 11.937265 14.355104 11.432592 12.835938 11.167969 C 12.47835 10.179001 12.241196 9.1575292 12.132812 8.1269531 z M 12.433594 13.072266 C 13.464758 13.245145 14.459676 13.551321 15.396484 13.980469 C 13.594505 16.730392 10.964592 18.844021 7.8789062 20.007812 C 6.7797709 19.442635 5.8118182 18.657832 5.0351562 17.710938 C 7.9341175 17.021998 10.539284 15.396768 12.433594 13.072266 z M 17.140625 14.966797 C 17.995802 15.551184 18.777314 16.250085 19.458984 17.048828 C 17.84306 19.435873 15.109078 21 12 21 C 11.563309 21 11.134657 20.969827 10.714844 20.910156 C 13.316002 19.508727 15.529538 17.466474 17.140625 14.966797 z "/>
</svg>
