<?xml version="1.0" encoding="UTF-8" standalone="no"?>
<svg xmlns="http://www.w3.org/2000/svg" xmlns:svg="http://www.w3.org/2000/svg" width="24" height="24" viewBox="0 0 24 24" fill="currentColor" tags="music,sound,speaker" categories="connectivity,communication,multimedia">
  <path d="M 11.074219 4.0039062 A 1.0001 1.0001 0 0 0 10.375 4.21875 L 5.6484375 8 L 2 8 A 1.0001 1.0001 0 0 0 1 9 L 1 15 A 1.0001 1.0001 0 0 0 2 16 L 5.6484375 16 L 10.375 19.78125 A 1.0001 1.0001 0 0 0 12 19 L 12 5 A 1.0001 1.0001 0 0 0 11.433594 4.0996094 A 1.0001 1.0001 0 0 0 11.074219 4.0039062 z M 10 7.0820312 L 10 16.917969 L 6.625 14.21875 A 1.0001 1.0001 0 0 0 6 14 L 3 14 L 3 10 L 6 10 A 1.0001 1.0001 0 0 0 6.625 9.78125 L 10 7.0820312 z M 15.541016 7.4589844 A 1 1 0 0 0 14.832031 7.7519531 A 1 1 0 0 0 14.832031 9.1679688 C 16.401923 10.738333 16.401923 13.2519 14.832031 14.822266 A 1 1 0 0 0 14.832031 16.236328 A 1 1 0 0 0 16.248047 16.236328 C 18.581968 13.901702 18.581968 10.088532 16.248047 7.7539062 A 1 1 0 0 0 15.541016 7.4589844 z "/>
</svg>
