<?xml version="1.0" encoding="UTF-8" standalone="no"?>
<svg xmlns="http://www.w3.org/2000/svg" xmlns:svg="http://www.w3.org/2000/svg" width="24" height="24" viewBox="0 0 24 24" fill="currentColor" tags="music,sound,mute,speaker" categories="connectivity,communication,multimedia">
  <path d="M 2 1 A 1 1 0 0 0 1.2929688 1.2929688 A 1 1 0 0 0 1.2929688 2.7070312 L 5.5605469 6.9746094 C 5.5154284 6.9914406 5.4673357 7.0001447 5.4179688 7 A 1.0001 1.0001 0 0 0 5.4160156 7 L 3 7 C 1.9072773 7 1 7.9072773 1 9 L 1 15 C 1 16.092723 1.9072773 17 3 17 L 5.4160156 17 A 1.0001 1.0001 0 0 0 5.4179688 17 C 5.5252732 16.999685 5.6274755 17.041091 5.703125 17.117188 A 1.0001 1.0001 0 0 0 5.7050781 17.119141 L 9.0878906 20.503906 C 9.5949778 21.011941 10.365003 21.11632 10.947266 20.875 C 11.529528 20.63368 12.000998 20.014702 12 19.296875 L 12 13.414062 L 21.292969 22.707031 A 1 1 0 0 0 22.707031 22.707031 A 1 1 0 0 0 22.707031 21.292969 L 11.748047 10.335938 A 1 1 0 0 0 11.664062 10.251953 L 2.7070312 1.2929688 A 1 1 0 0 0 2 1 z M 10.255859 2.9765625 C 10.174307 2.9798465 10.093017 2.98917 10.011719 3.0039062 C 9.6865271 3.062851 9.3695432 3.2154363 9.1191406 3.4667969 A 1 1 0 0 0 9.1230469 4.8808594 A 1 1 0 0 0 10 5.1015625 L 10 5.34375 A 1 1 0 0 0 11 6.34375 A 1 1 0 0 0 12 5.34375 L 12 4.6582031 L 12 4.65625 C 12.000016 3.9474875 11.534388 3.3357709 10.958984 3.0976562 C 10.743009 3.0082804 10.500515 2.9667106 10.255859 2.9765625 z M 19.363281 4.6367188 A 1 1 0 0 0 18.65625 4.9296875 A 1 1 0 0 0 18.65625 6.34375 C 20.98503 8.6712067 21.65081 12.178759 20.335938 15.197266 A 1 1 0 0 0 20.853516 16.513672 A 1 1 0 0 0 22.169922 15.996094 C 23.810725 12.229357 22.976354 7.8321235 20.070312 4.9277344 A 1 1 0 0 0 19.363281 4.6367188 z M 15.945312 8.0019531 A 1 1 0 0 0 15.400391 8.1992188 A 1 1 0 0 0 15.199219 9.5996094 C 15.602727 10.137512 15.865804 10.767929 15.960938 11.433594 A 1 1 0 0 0 17.091797 12.283203 A 1 1 0 0 0 17.939453 11.152344 C 17.796767 10.153949 17.405984 9.2071625 16.800781 8.4003906 A 1 1 0 0 0 16.140625 8.0097656 A 1 1 0 0 0 15.945312 8.0019531 z M 6.9941406 8.4082031 L 10 11.414062 L 10 18.585938 L 7.1230469 15.707031 C 6.6711178 15.2524 6.0531445 14.998121 5.4121094 15 L 3 15 L 3 9 L 5.4121094 9 C 5.9952701 9.0017094 6.5569082 8.788651 6.9941406 8.4082031 z "/>
</svg>
