<svg xmlns="http://www.w3.org/2000/svg" xmlns:svg="http://www.w3.org/2000/svg" width="24" height="24" viewBox="0 0 24 24" fill="currentColor" tags="music,sound,mute,speaker" categories="connectivity,communication,multimedia">
  <path d="M 10.238281 3.0039062 C 10.155888 3.0070983 10.072258 3.0165093 9.9902344 3.03125 C 9.6621417 3.090213 9.3433375 3.2431174 9.0898438 3.4960938 L 5.7050781 6.8789062 A 1.0001 1.0001 0 0 0 5.703125 6.8828125 C 5.6274722 6.9589108 5.5252734 7.0003145 5.4179688 7 A 1.0001 1.0001 0 0 0 5.4160156 7 L 3 7 C 1.9072751 7 1 7.9072751 1 9 L 1 15 C 1 16.092725 1.9072751 17 3 17 L 5.4160156 17 A 1.0001 1.0001 0 0 0 5.4179688 17 C 5.5252735 16.999685 5.6274753 17.04108 5.703125 17.117188 A 1.0001 1.0001 0 0 0 5.7050781 17.119141 L 9.0878906 20.503906 C 9.5949788 21.011941 10.365002 21.11632 10.947266 20.875 C 11.529529 20.63368 12.000998 20.014703 12 19.296875 L 12 4.7011719 C 11.998964 3.9849153 11.528589 3.3676005 10.947266 3.1269531 C 10.729269 3.0367103 10.485461 2.9943302 10.238281 3.0039062 z M 10 5.4160156 L 10 18.585938 L 7.1230469 15.707031 C 6.6711169 15.252399 6.0531459 14.998121 5.4121094 15 L 3 15 L 3 9 L 5.4121094 9 C 6.0516375 9.00187 6.6675037 8.7475482 7.1191406 8.2949219 L 10 5.4160156 z "/>
</svg>
