<?xml version="1.0" encoding="UTF-8" standalone="no"?>
<svg xmlns="http://www.w3.org/2000/svg" xmlns:svg="http://www.w3.org/2000/svg" width="24" height="24" viewBox="0 0 24 24" fill="currentColor" tags="music,sound,speaker" categories="connectivity,communication,multimedia">
  <path d="M 10.238281 3.0039062 C 10.155888 3.0070983 10.072257 3.0165093 9.9902344 3.03125 C 9.6621423 3.0902129 9.343337 3.2431178 9.0898438 3.4960938 L 5.7050781 6.8789062 A 1.0001 1.0001 0 0 0 5.703125 6.8828125 C 5.6274724 6.9589107 5.5252732 7.0003145 5.4179688 7 A 1.0001 1.0001 0 0 0 5.4160156 7 L 3 7 C 1.9072773 7 1 7.9072773 1 9 L 1 15 C 1 16.092723 1.9072773 17 3 17 L 5.4160156 17 A 1.0001 1.0001 0 0 0 5.4179688 17 C 5.5252732 16.999685 5.6274755 17.041091 5.703125 17.117188 A 1.0001 1.0001 0 0 0 5.7050781 17.119141 L 9.0878906 20.503906 C 9.5949778 21.011941 10.365003 21.11632 10.947266 20.875 C 11.529528 20.63368 12.000998 20.014702 12 19.296875 L 12 4.7011719 C 11.998964 3.9849167 11.528587 3.3676001 10.947266 3.1269531 C 10.729269 3.0367105 10.48546 2.9943302 10.238281 3.0039062 z M 19.207031 4.6484375 A 1 1 0 0 0 18.65625 4.9296875 A 1 1 0 0 0 18.65625 6.34375 C 21.78886 9.4763217 21.78886 14.523678 18.65625 17.65625 A 1 1 0 0 0 18.65625 19.070312 A 1 1 0 0 0 20.070312 19.070312 C 23.96723 15.173443 23.96723 8.8265568 20.070312 4.9296875 A 1 1 0 0 0 19.207031 4.6484375 z M 10 5.4160156 L 10 18.585938 L 7.1230469 15.707031 C 6.6711178 15.2524 6.0531445 14.998121 5.4121094 15 L 3 15 L 3 9 L 5.4121094 9 C 6.0516362 9.00187 6.6675047 8.7475472 7.1191406 8.2949219 L 10 5.4160156 z M 15.880859 8.0078125 A 1 1 0 0 0 15.400391 8.1992188 A 1 1 0 0 0 15.199219 9.5996094 C 16.26855 11.025385 16.26855 12.974615 15.199219 14.400391 A 1 1 0 0 0 15.400391 15.800781 A 1 1 0 0 0 16.800781 15.599609 C 18.398112 13.469837 18.398112 10.530164 16.800781 8.4003906 A 1 1 0 0 0 16.140625 8.0097656 A 1 1 0 0 0 15.880859 8.0078125 z "/>
</svg>
