<svg xmlns="http://www.w3.org/2000/svg" xmlns:svg="http://www.w3.org/2000/svg" width="24" height="24" viewBox="0 0 24 24" fill="currentColor" tags="music,sound,mute,speaker" categories="connectivity,communication,multimedia">
  <path d="M 2 1 A 1 1 0 0 0 1.2929688 1.2929688 A 1 1 0 0 0 1.2929688 2.7070312 L 5.5605469 6.9746094 C 5.5154648 6.9914095 5.4672893 7.0001446 5.4179688 7 A 1.0001 1.0001 0 0 0 5.4160156 7 L 3 7 C 1.9072751 7 1 7.9072751 1 9 L 1 15 C 1 16.092725 1.9072751 17 3 17 L 5.4160156 17 A 1.0001 1.0001 0 0 0 5.4179688 17 C 5.5252735 16.999685 5.6274753 17.04108 5.703125 17.117188 A 1.0001 1.0001 0 0 0 5.7050781 17.119141 L 9.0878906 20.503906 C 9.5949788 21.011941 10.365002 21.11632 10.947266 20.875 C 11.529529 20.63368 12.000998 20.014703 12 19.296875 L 12 13.414062 L 21.292969 22.707031 A 1 1 0 0 0 22.707031 22.707031 A 1 1 0 0 0 22.707031 21.292969 L 11.716797 10.302734 A 1 1 0 0 0 11.697266 10.283203 L 2.7070312 1.2929688 A 1 1 0 0 0 2 1 z M 10.255859 2.9765625 C 10.174307 2.9798465 10.093017 2.98917 10.011719 3.0039062 C 9.6865264 3.062851 9.3695436 3.2154358 9.1191406 3.4667969 A 1 1 0 0 0 9.1230469 4.8808594 A 1 1 0 0 0 10 5.1015625 L 10 5.34375 A 1 1 0 0 0 11 6.34375 A 1 1 0 0 0 12 5.34375 L 12 4.6582031 L 12 4.65625 C 12.000016 3.9474861 11.534389 3.3357714 10.958984 3.0976562 C 10.743008 3.0082802 10.500515 2.9667105 10.255859 2.9765625 z M 19.363281 4.6367188 A 1 1 0 0 0 18.65625 4.9296875 A 1 1 0 0 0 18.65625 6.34375 C 20.985035 8.6712113 21.650813 12.178753 20.335938 15.197266 A 1 1 0 0 0 20.853516 16.513672 A 1 1 0 0 0 22.169922 15.996094 C 23.810729 12.229349 22.97636 7.8321293 20.070312 4.9277344 A 1 1 0 0 0 19.363281 4.6367188 z M 16.011719 8 A 1 1 0 0 0 15.400391 8.1992188 A 1 1 0 0 0 15.199219 9.5996094 C 15.602729 10.137513 15.865803 10.767928 15.960938 11.433594 A 1 1 0 0 0 17.091797 12.283203 A 1 1 0 0 0 17.939453 11.152344 C 17.796767 10.153947 17.405985 9.2071641 16.800781 8.4003906 A 1 1 0 0 0 16.011719 8 z M 6.9960938 8.4101562 L 10 11.414062 L 10 18.585938 L 7.1230469 15.707031 C 6.6711169 15.252399 6.0531459 14.998121 5.4121094 15 L 3 15 L 3 9 L 5.4121094 9 C 5.9952443 9.0017093 6.5588692 8.7905716 6.9960938 8.4101562 z "/>
</svg>
