<svg xmlns="http://www.w3.org/2000/svg" xmlns:svg="http://www.w3.org/2000/svg" width="24" height="24" viewBox="0 0 24 24" fill="currentColor" tags="vote,poll,ballot,political,social,check,tick" categories="social">
  <path d="M 7 4 C 5.3545455 4 4 5.3545455 4 7 L 4 18 L 2 18 A 1 1 0 0 0 1 19 A 1 1 0 0 0 2 20 L 5 20 L 19 20 L 22 20 A 1 1 0 0 0 23 19 A 1 1 0 0 0 22 18 L 20 18 L 20 7 C 20 5.3549904 18.64501 4 17 4 L 7 4 z M 7 6 L 17 6 C 17.564129 6 18 6.4358706 18 7 L 18 18 L 6 18 L 6 7 C 6 6.4454545 6.4454545 6 7 6 z M 15 9 A 1 1 0 0 0 14.292969 9.2929688 L 11 12.585938 L 9.7070312 11.292969 A 1 1 0 0 0 8.2929688 11.292969 A 1 1 0 0 0 8.2929688 12.707031 L 10.292969 14.707031 A 1.0001 1.0001 0 0 0 11.707031 14.707031 L 15.707031 10.707031 A 1 1 0 0 0 15.707031 9.2929688 A 1 1 0 0 0 15 9 z "/>
</svg>
