<svg xmlns="http://www.w3.org/2000/svg" xmlns:svg="http://www.w3.org/2000/svg" width="24" height="24" viewBox="0 0 24 24" fill="currentColor" tags="money,finance,pocket,credit,purchase,payment,shopping,retail,consumer,cc" categories="account,finance">
  <path d="M 5 2 C 3.3552972 2 2 3.3552972 2 5 L 2 11 L 2 19 C 2 20.644703 3.3552972 22 5 22 L 19 22 C 20.644703 22 22 20.644703 22 19 L 22 11 L 22 5 C 22 3.3552972 20.644703 2 19 2 L 5 2 z M 5 4 L 19 4 C 19.571297 4 20 4.4287028 20 5 L 20 6.1738281 C 19.686616 6.0614891 19.349867 6 19 6 L 5 6 C 4.6501325 6 4.313384 6.0614891 4 6.1738281 L 4 5 C 4 4.4287028 4.4287028 4 5 4 z M 5 8 L 19 8 C 19.564129 8 20 8.4358706 20 9 L 20 10 L 18.099609 10 C 16.984577 10 16.011035 10.490588 15.324219 11.162109 L 14.267578 12.025391 A 1.0001 1.0001 0 0 0 14.193359 12.09375 C 12.961644 13.325465 11.137965 13.325465 9.90625 12.09375 A 1.0001 1.0001 0 0 0 9.8339844 12.025391 L 8.8085938 11.189453 L 8.8066406 11.1875 C 8.0770826 10.362146 7.0204088 10 6 10 L 4 10 L 4 9 C 4 8.4358706 4.4358706 8 5 8 z M 4 12 L 6 12 C 6.55 12 7.0629175 12.218079 7.3320312 12.541016 A 1.0001 1.0001 0 0 0 7.4667969 12.673828 L 8.5234375 13.539062 L 8.5253906 13.541016 C 10.485085 15.466063 13.616479 15.464113 15.576172 13.539062 L 16.632812 12.673828 A 1.0001 1.0001 0 0 0 16.707031 12.607422 C 17.018469 12.295988 17.632943 12 18.099609 12 L 20 12 L 20 19 C 20 19.571297 19.571297 20 19 20 L 5 20 C 4.4287028 20 4 19.571297 4 19 L 4 12 z "/>
</svg>
