<svg xmlns="http://www.w3.org/2000/svg" xmlns:svg="http://www.w3.org/2000/svg" width="24" height="24" viewBox="0 0 24 24" fill="currentColor" tags="background,texture,image,art,design,visual,decor,pattern,screen,cover,lock screen" categories="account,devices">
  <path d="M 4 2 C 2.3552972 2 1 3.3552972 1 5 L 1 15 C 1 16.644703 2.3552972 18 4 18 L 9 18 L 11 18 L 11 20 L 8 20 A 1 1 0 0 0 7 21 A 1 1 0 0 0 8 22 L 16 22 A 1 1 0 0 0 17 21 A 1 1 0 0 0 16 20 L 13 20 L 13 18 L 20 18 C 21.644703 18 23 16.644703 23 15 L 23 5 C 23 3.3552972 21.644703 2 20 2 L 4 2 z M 4 4 L 20 4 C 20.571297 4 21 4.4287028 21 5 L 21 12.585938 L 18.617188 10.203125 A 1.0001 1.0001 0 0 0 18.615234 10.201172 C 18.037184 9.6264832 17.273455 9.3367021 16.509766 9.3339844 C 15.746077 9.3312644 14.98255 9.6149682 14.400391 10.185547 A 1.0001 1.0001 0 0 0 14.392578 10.193359 L 8.5859375 16 L 4 16 C 3.4287028 16 3 15.571297 3 15 L 3 5 C 3 4.4287028 3.4287028 4 4 4 z M 8 6 C 6.3549904 6 5 7.3549904 5 9 C 5 10.64501 6.3549904 12 8 12 C 9.6450096 12 11 10.64501 11 9 C 11 7.3549904 9.6450096 6 8 6 z M 8 8 C 8.5641294 8 9 8.4358706 9 9 C 9 9.5641294 8.5641294 10 8 10 C 7.4358706 10 7 9.5641294 7 9 C 7 8.4358706 7.4358706 8 8 8 z M 16.503906 11.322266 C 16.755596 11.323382 17.007007 11.422206 17.205078 11.619141 L 20.939453 15.353516 C 20.802814 15.73875 20.445165 16 20 16 L 12 16 L 11.414062 16 L 15.800781 11.613281 C 16.000249 11.417782 16.252217 11.321149 16.503906 11.322266 z "/>
</svg>
