<?xml version="1.0" encoding="UTF-8" standalone="no"?>
<svg xmlns="http://www.w3.org/2000/svg" xmlns:svg="http://www.w3.org/2000/svg" width="24" height="24" viewBox="0 0 24 24" fill="currentColor" tags="money,finance,pocket" categories="account,money">
  <path d="M 5 2 C 4.0833353 2 3.268558 2.3797568 2.7519531 2.9609375 C 2.2353482 3.5421182 2 4.2777793 2 5 L 2 19 C 2 20.645006 3.3549936 22 5 22 L 21 22 A 1.0001 1.0001 0 0 0 22 21 L 22 17 A 1.0001 1.0001 0 0 0 23 16 L 23 12 A 1.0001 1.0001 0 0 0 22 11 L 22 7 A 1.0001 1.0001 0 0 0 21 6 L 20 6 L 20 3 A 1.0001 1.0001 0 0 0 19 2 L 5 2 z M 5 4 L 18 4 L 18 6 L 5 6 C 4.5833345 6 4.398107 5.8797552 4.2480469 5.7109375 C 4.0979867 5.5421198 4 5.2777773 4 5 C 4 4.7222227 4.0979867 4.4578802 4.2480469 4.2890625 C 4.398107 4.1202448 4.5833345 4 5 4 z M 4 7.8417969 C 4.31088 7.9437262 4.6479418 8 5 8 L 19 8 L 20 8 L 20 11 L 18 11 C 17.083335 11 16.268559 11.379756 15.751953 11.960938 C 15.235349 12.542118 15 13.27778 15 14 C 15 14.72222 15.235349 15.457882 15.751953 16.039062 C 16.268559 16.620244 17.083335 17 18 17 L 20 17 L 20 20 L 5 20 C 4.4358718 20 4 19.564128 4 19 L 4 7.8417969 z M 18 13 L 21 13 L 21 15 L 18 15 C 17.583334 15 17.398107 14.879754 17.248047 14.710938 C 17.097987 14.54212 17 14.277778 17 14 C 17 13.722222 17.097987 13.457879 17.248047 13.289062 C 17.398107 13.120245 17.583334 13 18 13 z "/>
</svg>
