<?xml version="1.0" encoding="UTF-8" standalone="no"?>
<svg xmlns="http://www.w3.org/2000/svg" xmlns:svg="http://www.w3.org/2000/svg" width="24" height="24" viewBox="0 0 24 24" fill="currentColor" tags="money,finance,pocket" categories="account,finance">
  <path d="M 5 2 C 4.0833335 2 3.268559 2.3797556 2.7519531 2.9609375 C 2.2353472 3.5421194 2 4.2777779 2 5 L 2 19 C 2 20.64501 3.3549904 22 5 22 L 20 22 C 21.092725 22 22 21.092725 22 20 L 22 16.726562 C 22.594872 16.377372 23 15.730192 23 15 L 23 13 C 23 12.29468 22.561882 11.774646 22 11.417969 L 22 8 C 22 6.9072751 21.092725 6 20 6 L 20 4 C 20 2.9072751 19.092725 2 18 2 L 5 2 z M 5 4 L 18 4 L 18 6 L 5 6 C 4.5833337 6 4.3981073 5.8797556 4.2480469 5.7109375 C 4.0979864 5.5421194 4 5.2777779 4 5 C 4 4.7222221 4.0979864 4.4578806 4.2480469 4.2890625 C 4.3981073 4.1202444 4.5833337 4 5 4 z M 4 7.8417969 C 4.310889 7.9437328 4.6479292 8 5 8 L 19 8 L 20 8 L 20 11 L 18 11 C 17.083334 11 16.268559 11.379756 15.751953 11.960938 C 15.235347 12.542118 15 13.277778 15 14 C 15 14.722222 15.235347 15.457881 15.751953 16.039062 C 16.268559 16.620244 17.083334 17 18 17 L 20 17 L 20 20 L 5 20 C 4.4358706 20 4 19.564129 4 19 L 4 7.8417969 z M 18 13 L 21 13 L 21 15 L 18 15 C 17.583334 15 17.398107 14.879756 17.248047 14.710938 C 17.097986 14.542118 17 14.277778 17 14 C 17 13.722222 17.097986 13.45788 17.248047 13.289062 C 17.398107 13.120243 17.583334 13 18 13 z "/>
</svg>
