<?xml version="1.0" encoding="UTF-8" standalone="no"?>
<svg xmlns="http://www.w3.org/2000/svg" xmlns:svg="http://www.w3.org/2000/svg" width="24" height="24" viewBox="0 0 24 24" fill="currentColor" tags="finance,pocket" categories="account,finance">
  <path d="M 5 2 C 3.3549904 2 2 3.3549904 2 5 L 2 19 C 2 20.64501 3.3549904 22 5 22 L 19 22 C 20.64501 22 22 20.64501 22 19 L 22 9 C 22 7.3549904 20.64501 6 19 6 L 7 6 A 1 1 0 0 0 6 7 A 1 1 0 0 0 7 8 L 19 8 C 19.564129 8 20 8.4358706 20 9 L 20 19 C 20 19.564129 19.564129 20 19 20 L 5 20 C 4.4358706 20 4 19.564129 4 19 L 4 5 C 4 4.4358706 4.4358706 4 5 4 L 19 4 A 1 1 0 0 0 20 3 A 1 1 0 0 0 19 2 L 5 2 z M 17 13 A 1 1 0 0 0 16 14 A 1 1 0 0 0 17 15 L 17.009766 15 A 1 1 0 0 0 18.009766 14 A 1 1 0 0 0 17.009766 13 L 17 13 z "/>
</svg>
