<?xml version="1.0" encoding="UTF-8" standalone="no"?>
<svg xmlns="http://www.w3.org/2000/svg" xmlns:svg="http://www.w3.org/2000/svg" width="24" height="24" viewBox="0 0 24 24" fill="currentColor" tags="magic,wizard,magician" categories="design,gaming,cursors,photography">
  <path d="M 10 1 A 1 1 0 0 0 9 2 A 1 1 0 0 0 8 3 A 1 1 0 0 0 9 4 A 1 1 0 0 0 10 5 A 1 1 0 0 0 11 4 A 1 1 0 0 0 12 3 A 1 1 0 0 0 11 2 A 1 1 0 0 0 10 1 z M 19.5 1.0078125 C 18.928693 1.0078125 18.357819 1.2236809 17.929688 1.65625 L 1.65625 17.929688 C 0.79111179 18.78595 0.79111179 20.214052 1.65625 21.070312 L 2.9238281 22.337891 C 3.7785799 23.216236 5.2214201 23.216236 6.0761719 22.337891 L 22.337891 6.0761719 C 23.209708 5.227773 23.206479 3.8042914 22.347656 2.9472656 A 1 1 0 0 0 22.347656 2.9335938 L 22.337891 2.9238281 L 21.070312 1.65625 C 20.642182 1.2236809 20.071307 1.0078125 19.5 1.0078125 z M 19.480469 2.9941406 C 19.538323 2.9876911 19.597371 3.0109036 19.648438 3.0625 A 1.0001 1.0001 0 0 0 19.652344 3.0664062 L 20.933594 4.3476562 A 1 1 0 0 0 20.943359 4.3476562 A 1 1 0 0 0 20.943359 4.3574219 C 21.033279 4.4449299 21.033279 4.5550699 20.943359 4.6425781 A 1.0001 1.0001 0 0 0 20.933594 4.6523438 L 17 8.5859375 L 15.414062 7 L 19.347656 3.0664062 A 1.0001 1.0001 0 0 0 19.351562 3.0625 C 19.391283 3.0223694 19.435471 2.9991569 19.480469 2.9941406 z M 5 5 A 1 1 0 0 0 4 6 L 4 7 L 3 7 A 1 1 0 0 0 2 8 A 1 1 0 0 0 3 9 L 4 9 L 4 10 A 1 1 0 0 0 5 11 A 1 1 0 0 0 6 10 L 6 9 L 7 9 A 1 1 0 0 0 8 8 A 1 1 0 0 0 7 7 L 6 7 L 6 6 A 1 1 0 0 0 5 5 z M 14 8.4140625 L 15.585938 10 L 4.6523438 20.933594 A 1.0001 1.0001 0 0 0 4.6425781 20.943359 C 4.5550701 21.033279 4.4449301 21.033279 4.3574219 20.943359 A 1.0001 1.0001 0 0 0 4.3476562 20.933594 L 3.0664062 19.652344 A 1.0001 1.0001 0 0 0 3.0625 19.648438 C 2.970773 19.557648 2.970773 19.442349 3.0625 19.351562 A 1.0001 1.0001 0 0 0 3.0664062 19.347656 L 14 8.4140625 z M 19 13 A 1 1 0 0 0 18 14 L 18 15 L 17 15 A 1 1 0 0 0 16 16 A 1 1 0 0 0 17 17 L 18 17 L 18 18 A 1 1 0 0 0 19 19 A 1 1 0 0 0 20 18 L 20 17 L 21 17 A 1 1 0 0 0 22 16 A 1 1 0 0 0 21 15 L 20 15 L 20 14 A 1 1 0 0 0 19 13 z "/>
</svg>
