<?xml version="1.0" encoding="UTF-8" standalone="no"?>
<svg xmlns="http://www.w3.org/2000/svg" xmlns:svg="http://www.w3.org/2000/svg" width="24" height="24" viewBox="0 0 24 24" fill="currentColor" tags="magic,selection" categories="design,gaming,cursors,photography">
  <path d="M 15 1 A 1 1 0 0 0 14 2 L 14 4 A 1 1 0 0 0 15 5 A 1 1 0 0 0 16 4 L 16 2 A 1 1 0 0 0 15 1 z M 11 4 A 1 1 0 0 0 10.292969 4.2929688 A 1 1 0 0 0 10.292969 5.7070312 L 11.492188 6.90625 A 1 1 0 0 0 12.90625 6.90625 A 1 1 0 0 0 12.90625 5.4921875 L 11.707031 4.2929688 A 1 1 0 0 0 11 4 z M 18.912109 4.0039062 A 1 1 0 0 0 18.292969 4.2929688 L 17.09375 5.4921875 A 1 1 0 0 0 17.09375 6.90625 A 1 1 0 0 0 18.507812 6.90625 L 19.707031 5.7070312 A 1 1 0 0 0 19.707031 4.2929688 A 1 1 0 0 0 18.912109 4.0039062 z M 8 8 A 1 1 0 0 0 7 9 A 1 1 0 0 0 8 10 L 10 10 A 1 1 0 0 0 11 9 A 1 1 0 0 0 10 8 L 8 8 z M 15 8 A 1 1 0 0 0 14 9 A 1 1 0 0 0 15 10 L 15.009766 10 A 1 1 0 0 0 16.009766 9 A 1 1 0 0 0 15.009766 8 L 15 8 z M 20 8 A 1 1 0 0 0 19 9 A 1 1 0 0 0 20 10 L 22 10 A 1 1 0 0 0 23 9 A 1 1 0 0 0 22 8 L 20 8 z M 17.712891 10.804688 A 1 1 0 0 0 17.09375 11.09375 A 1 1 0 0 0 17.09375 12.507812 L 18.292969 13.707031 A 1 1 0 0 0 19.707031 13.707031 A 1 1 0 0 0 19.707031 12.292969 L 18.507812 11.09375 A 1 1 0 0 0 17.712891 10.804688 z M 12 11 A 1 1 0 0 0 11.292969 11.292969 L 2.2929688 20.292969 A 1 1 0 0 0 2.2929688 21.707031 A 1 1 0 0 0 3.7070312 21.707031 L 12.707031 12.707031 A 1 1 0 0 0 12.707031 11.292969 A 1 1 0 0 0 12 11 z M 15 13 A 1 1 0 0 0 14 14 L 14 16 A 1 1 0 0 0 15 17 A 1 1 0 0 0 16 16 L 16 14 A 1 1 0 0 0 15 13 z "/>
</svg>
