<svg xmlns="http://www.w3.org/2000/svg" xmlns:svg="http://www.w3.org/2000/svg" width="24" height="24" viewBox="0 0 24 24" fill="currentColor" tags="storage,storehouse,depot,depository,repository,stockroom,logistics,building" categories="buildings,navigation">
  <path d="M 12 1 C 11.526943 1 11.054683 1.1108307 10.623047 1.3339844 L 2.6972656 5.296875 C 1.660661 5.796242 0.99932453 6.8493845 1 8 L 1 19 C 1 20.64501 2.3549904 22 4 22 L 20 22 C 21.64501 22 23 20.64501 23 19 L 23 8 C 23.000398 6.8500019 22.338438 5.7963199 21.302734 5.296875 L 13.378906 1.3339844 C 12.94727 1.1108307 12.473057 1 12 1 z M 12 3 C 12.157253 3 12.314507 3.0366339 12.458984 3.1113281 A 1.0001 1.0001 0 0 0 12.472656 3.1171875 L 20.419922 7.0917969 A 1.0001 1.0001 0 0 0 20.433594 7.0976562 C 20.782046 7.2652762 21.000134 7.6133307 21 8 L 21 19 C 21 19.564129 20.564129 20 20 20 L 19 20 L 19 17 L 19 10 C 19 8.9072751 18.092725 8 17 8 L 7 8 C 5.9072751 8 5 8.9072751 5 10 L 5 17 L 5 20 L 4 20 C 3.4358706 20 3 19.564129 3 19 L 3 8 C 2.9997731 7.6134473 3.2181557 7.2654201 3.5664062 7.0976562 A 1.0001 1.0001 0 0 0 3.5800781 7.0917969 L 11.529297 3.1171875 A 1.0001 1.0001 0 0 0 11.541016 3.1113281 C 11.685493 3.0366339 11.842747 3 12 3 z M 7 10 L 17 10 L 17 12 L 7 12 L 7 10 z M 7 14 L 17 14 L 17 16 L 7 16 L 7 14 z M 7 18 L 17 18 L 17 20 L 7 20 L 7 18 z "/>
</svg>
