<?xml version="1.0" encoding="UTF-8" standalone="no"?>
<svg xmlns="http://www.w3.org/2000/svg" xmlns:svg="http://www.w3.org/2000/svg" width="24" height="24" viewBox="0 0 24 24" fill="currentColor" tags="storage,logistics,building" categories="buildings,navigation">
  <path d="M 12 2.1582031 C 11.623432 2.1582031 11.246863 2.2292168 10.890625 2.3710938 A 1.0001 1.0001 0 0 0 10.888672 2.3710938 L 2.8886719 5.5722656 C 1.7558462 6.0246728 1.0049227 7.1257103 1 8.3457031 A 1.0001 1.0001 0 0 0 1 8.3496094 L 1 20 C 1 21.64501 2.3549904 23 4 23 L 6 23 L 18 23 L 20 23 C 21.64501 23 23 21.64501 23 20 L 23 8.3496094 A 1.0001 1.0001 0 0 0 23 8.3457031 C 22.995077 7.125714 22.244154 6.0246728 21.111328 5.5722656 L 21.109375 5.5703125 L 13.111328 2.3710938 A 1.0001 1.0001 0 0 0 13.109375 2.3710938 C 12.753137 2.2292168 12.376568 2.1582031 12 2.1582031 z M 12 4.1582031 C 12.125098 4.1582031 12.250195 4.1811441 12.369141 4.2285156 L 20.369141 7.4277344 A 1.0001 1.0001 0 0 0 20.369141 7.4296875 C 20.750949 7.5817472 20.998342 7.9425462 21 8.3535156 L 21 20 C 21 20.564129 20.564129 21 20 21 L 19 21 L 19 18 L 19 14 L 19 10 A 1.0001 1.0001 0 0 0 18 9 L 6 9 A 1.0001 1.0001 0 0 0 5 10 L 5 14 L 5 18 L 5 21 L 4 21 C 3.4358706 21 3 20.564129 3 20 L 3 8.3535156 C 3.0016583 7.9425462 3.2490512 7.5817441 3.6308594 7.4296875 A 1.0001 1.0001 0 0 0 3.6308594 7.4277344 L 11.630859 4.2285156 C 11.749805 4.1811441 11.874902 4.1582031 12 4.1582031 z M 7 11 L 17 11 L 17 13 L 7 13 L 7 11 z M 7 15 L 17 15 L 17 17 L 7 17 L 7 15 z M 7 19 L 17 19 L 17 21 L 7 21 L 7 19 z "/>
</svg>
