<svg xmlns="http://www.w3.org/2000/svg" xmlns:svg="http://www.w3.org/2000/svg" width="24" height="24" viewBox="0 0 24 24" fill="currentColor" tags="tumble dryer,amenities,electronics,cycle,clothes,rinse,spin,drum" categories="home,devices,travel">
  <path d="M 5 1 C 3.3552972 1 2 2.3552972 2 4 L 2 20 C 2 21.644703 3.3552972 23 5 23 L 19 23 C 20.644703 23 22 21.644703 22 20 L 22 4 C 22 2.3552972 20.644703 1 19 1 L 5 1 z M 5 3 L 19 3 C 19.571297 3 20 3.4287028 20 4 L 20 20 C 20 20.571297 19.571297 21 19 21 L 5 21 C 4.4287028 21 4 20.571297 4 20 L 4 7 L 6 7 A 1 1 0 0 0 7 6 A 1 1 0 0 0 6 5 L 4 5 L 4 4 C 4 3.4287028 4.4287028 3 5 3 z M 17 5 A 1 1 0 0 0 16 6 A 1 1 0 0 0 17 7 L 17.009766 7 A 1 1 0 0 0 18.009766 6 A 1 1 0 0 0 17.009766 5 L 17 5 z M 12 7 C 11.861793 7 11.726876 7.0075237 11.59375 7.0214844 C 8.4805712 7.232857 6 9.8352866 6 13 C 6 16.301864 8.6981361 19 12 19 C 12.134486 19 12.266096 18.989279 12.398438 18.980469 C 12.401126 18.980193 12.403564 18.978797 12.40625 18.978516 C 15.519429 18.767143 18 16.164714 18 13 C 18 9.6981361 15.301864 7 12 7 z M 12 9 C 14.220984 9 16 10.779016 16 13 C 16 13.732057 15.807424 14.415761 15.46875 15.003906 C 15.380366 14.323797 15.10598 13.660487 14.623047 13.117188 C 14.023108 12.442255 13.083333 12 12 12 C 11.416667 12 11.106441 11.817256 10.873047 11.554688 C 10.639653 11.292118 10.5 10.902778 10.5 10.5 C 10.5 10.097222 10.639653 9.7078806 10.873047 9.4453125 C 11.06347 9.2310863 11.307718 9.0715867 11.707031 9.0195312 C 11.804487 9.0125322 11.900656 9 12 9 z M 8.53125 10.996094 C 8.6196343 11.676203 8.89402 12.339512 9.3769531 12.882812 C 9.9768923 13.557743 10.916667 14 12 14 C 12.583333 14 12.893559 14.182744 13.126953 14.445312 C 13.360347 14.70788 13.5 15.097222 13.5 15.5 C 13.5 15.902778 13.360347 16.29212 13.126953 16.554688 C 12.93653 16.768914 12.692282 16.928413 12.292969 16.980469 C 12.195513 16.987468 12.099344 17 12 17 C 9.7790164 17 8 15.220984 8 13 C 8 12.267943 8.192576 11.584239 8.53125 10.996094 z "/>
</svg>
