<?xml version="1.0" encoding="UTF-8" standalone="no"?>
<svg xmlns="http://www.w3.org/2000/svg" xmlns:svg="http://www.w3.org/2000/svg" width="24" height="24" viewBox="0 0 24 24" fill="currentColor" tags="tumble dryer,amenities,electronics,cycle,clothes,rinse,spin,drum" categories="home,devices,travel">
  
  <path d="M 5 1 C 3.3553005 1 2 2.3553005 2 4 L 2 20 C 2 21.644699 3.3553005 23 5 23 L 19 23 C 20.644699 23 22 21.644699 22 20 L 22 4 C 22 2.3553005 20.644699 1 19 1 L 5 1 z M 5 3 L 19 3 C 19.571296 3 20 3.4287039 20 4 L 20 20 C 20 20.571296 19.571296 21 19 21 L 5 21 C 4.4287039 21 4 20.571296 4 20 L 4 7 L 6 7 A 1 1 0 0 0 7 6 A 1 1 0 0 0 6 5 L 4 5 L 4 4 C 4 3.4287039 4.4287039 3 5 3 z M 17 5 A 1 1 0 0 0 16 6 A 1 1 0 0 0 17 7 L 17.009766 7 A 1 1 0 0 0 18.009766 6 A 1 1 0 0 0 17.009766 5 L 17 5 z M 12 7 C 11.932292 7 11.865367 7.0024554 11.798828 7.0058594 C 8.5891928 7.1127104 6 9.7654141 6 13 C 6 16.301858 8.6981427 19 12 19 C 12.067271 19 12.134419 18.996363 12.201172 18.994141 C 15.410808 18.88729 18 16.234586 18 13 C 18 9.6981427 15.301858 7 12 7 z M 12 9 C 14.220979 9 16 10.779021 16 13 C 16 13.733629 15.804872 14.418817 15.464844 15.007812 C 15.376936 14.326503 15.106792 13.661401 14.623047 13.117188 C 14.023108 12.442256 13.083331 12 12 12 C 11.416669 12 11.10644 11.817254 10.873047 11.554688 C 10.639653 11.29212 10.5 10.902777 10.5 10.5 C 10.5 10.097223 10.639653 9.70788 10.873047 9.4453125 C 11.10644 9.182745 11.416669 9 12 9 z M 8.5351562 10.992188 C 8.6230643 11.673497 8.8932075 12.338598 9.3769531 12.882812 C 9.9768911 13.557743 10.916669 14 12 14 C 12.583331 14 12.89356 14.182745 13.126953 14.445312 C 13.360347 14.707879 13.5 15.097223 13.5 15.5 C 13.5 15.902777 13.360347 16.292121 13.126953 16.554688 C 12.89356 16.817255 12.583331 17 12 17 C 9.7790208 17 8 15.220979 8 13 C 8 12.266371 8.1951281 11.581183 8.5351562 10.992188 z "/>
</svg>
