<svg xmlns="http://www.w3.org/2000/svg" xmlns:svg="http://www.w3.org/2000/svg" width="24" height="24" viewBox="0 0 24 24" fill="currentColor" tags="clock,time" categories="time">
  <path d="M 10.658203 1 C 9.2118631 0.97228263 7.9400257 1.9971274 7.6582031 3.4160156 A 1.0001 1.0001 0 0 0 7.6582031 3.4199219 L 6.9355469 7.1777344 C 5.7374567 8.4350307 5 10.134072 5 12 C 5 13.877822 5.7473574 15.588036 6.9589844 16.847656 L 7.6992188 20.556641 C 7.9817332 21.974628 9.2534681 22.998409 10.699219 22.970703 L 13.380859 22.970703 C 14.82661 22.998413 16.098345 21.974628 16.380859 20.556641 L 16.380859 20.554688 L 17.144531 16.736328 C 17.144869 16.735962 17.144194 16.734741 17.144531 16.734375 C 18.294456 15.486198 19 13.823227 19 12 C 19 10.126932 18.256991 8.4208124 17.050781 7.1621094 L 16.300781 3.4160156 L 16.300781 3.4140625 C 16.018267 1.9960718 14.746532 0.97229394 13.300781 1 L 10.658203 1 z M 10.621094 3 A 1.0001 1.0001 0 0 0 10.640625 3 L 13.320312 3 A 1.0001 1.0001 0 0 0 13.339844 3 C 13.830736 2.99059 14.244192 3.3231127 14.339844 3.8046875 A 1.0001 1.0001 0 0 0 14.339844 3.8066406 L 14.685547 5.5371094 C 13.85758 5.1908265 12.950764 5 12 5 C 11.038226 5 10.120838 5.196866 9.2851562 5.5507812 L 9.6210938 3.8046875 C 9.7167451 3.3231127 10.130202 2.9905926 10.621094 3 z M 12 7 C 13.28607 7 14.454452 7.4793634 15.337891 8.2695312 A 1 1 0 0 0 15.5625 8.4824219 C 16.452957 9.3840053 17 10.624583 17 12 C 17 14.773268 14.773268 17 12 17 C 10.707596 17 9.5334008 16.515887 8.6484375 15.71875 A 1 1 0 0 0 8.4765625 15.556641 C 7.5637779 14.652091 7 13.39482 7 12 C 7 10.614517 7.555015 9.3660571 8.4570312 8.4628906 A 1 1 0 0 0 8.6328125 8.2949219 C 9.5196762 7.4888278 10.699484 7 12 7 z M 12 9 A 1 1 0 0 0 11 10 L 11 12.199219 A 1.0001 1.0001 0 0 0 11.470703 13.048828 L 13.070312 14.048828 A 1 1 0 0 0 14.447266 13.730469 A 1 1 0 0 0 14.130859 12.351562 L 13 11.646484 L 13 10 A 1 1 0 0 0 12 9 z M 14.765625 18.427734 L 14.419922 20.164062 A 1.0001 1.0001 0 0 0 14.419922 20.166016 C 14.324272 20.64759 13.910814 20.98011 13.419922 20.970703 A 1.0001 1.0001 0 0 0 13.400391 20.970703 L 10.679688 20.970703 A 1.0001 1.0001 0 0 0 10.660156 20.970703 C 10.169261 20.980064 9.7558076 20.64759 9.6601562 20.166016 A 1.0001 1.0001 0 0 0 9.6601562 20.164062 L 9.3203125 18.464844 C 10.146311 18.809199 11.052033 19 12 19 C 12.981493 19 13.916256 18.795502 14.765625 18.427734 z "/>
</svg>
