<?xml version="1.0" encoding="UTF-8" standalone="no"?>
<svg xmlns="http://www.w3.org/2000/svg" xmlns:svg="http://www.w3.org/2000/svg" width="24" height="24" viewBox="0 0 24 24" fill="currentColor" tags="clock,time" categories="time">
  <path d="M 10.658203 1 C 9.2118661 0.97228269 7.9400251 1.9971302 7.6582031 3.4160156 A 1.0001 1.0001 0 0 0 7.6582031 3.4199219 L 6.9355469 7.1816406 C 5.7386615 8.4387243 5 10.135136 5 12 C 5 13.876728 5.7466479 15.584339 6.9570312 16.84375 L 7.6992188 20.556641 C 7.9817328 21.974625 9.253471 22.998409 10.699219 22.970703 L 13.380859 22.970703 C 14.826607 22.998413 16.098346 21.974625 16.380859 20.556641 L 16.380859 20.554688 L 17.146484 16.734375 C 18.29607 15.486268 19 13.82292 19 12 C 19 10.127724 18.256093 8.4245642 17.050781 7.1660156 L 16.300781 3.4160156 L 16.300781 3.4140625 C 16.018268 1.9960746 14.746529 0.97229399 13.300781 1 L 10.658203 1 z M 10.621094 3 A 1.0001 1.0001 0 0 0 10.640625 3 L 13.320312 3 A 1.0001 1.0001 0 0 0 13.339844 3 C 13.830734 2.99059 14.244192 3.3231137 14.339844 3.8046875 A 1.0001 1.0001 0 0 0 14.339844 3.8066406 L 14.6875 5.5390625 C 13.859022 5.1922771 12.951491 5 12 5 C 11.038002 5 10.120995 5.1967087 9.2851562 5.5507812 L 9.6210938 3.8046875 C 9.7167449 3.3231137 10.130202 2.9905927 10.621094 3 z M 12 7 C 13.314991 7 14.506377 7.5020503 15.396484 8.3242188 A 1 1 0 0 0 15.509766 8.4316406 C 16.430463 9.3371508 17 10.598345 17 12 C 17 14.773263 14.773263 17 12 17 C 10.676487 17 9.4778663 16.49184 8.5859375 15.660156 A 1 1 0 0 0 8.53125 15.605469 C 7.5872176 14.697397 7 13.421705 7 12 C 7 10.587819 7.5787958 9.3190121 8.5117188 8.4121094 A 1 1 0 0 0 8.5703125 8.3554688 C 9.4638934 7.5148033 10.668474 7 12 7 z M 12 9 A 1 1 0 0 0 11 10 L 11 12 A 1.0001 1.0001 0 0 0 11.292969 12.707031 L 12.292969 13.707031 A 1 1 0 0 0 13.707031 13.707031 A 1 1 0 0 0 13.707031 12.292969 L 13 11.585938 L 13 10 A 1 1 0 0 0 12 9 z M 14.767578 18.425781 L 14.419922 20.164062 A 1.0001 1.0001 0 0 0 14.419922 20.166016 C 14.324272 20.647589 13.910812 20.98011 13.419922 20.970703 A 1.0001 1.0001 0 0 0 13.400391 20.970703 L 10.679688 20.970703 A 1.0001 1.0001 0 0 0 10.660156 20.970703 C 10.169263 20.980064 9.7558074 20.647589 9.6601562 20.166016 A 1.0001 1.0001 0 0 0 9.6601562 20.164062 L 9.3203125 18.462891 C 10.146808 18.807733 11.051328 19 12 19 C 12.982427 19 13.917565 18.794212 14.767578 18.425781 z "/>
</svg>
