<?xml version="1.0" encoding="UTF-8" standalone="no"?>
<svg xmlns="http://www.w3.org/2000/svg" xmlns:svg="http://www.w3.org/2000/svg" width="24" height="24" viewBox="0 0 24 24" fill="currentColor" tags="water,sea,sound,hertz,wavelength,vibrate" categories="weather,navigation,multimedia,sustainability">
  <path d="M 9.5 4 C 7.9833333 4 7 4.71875 6.375 5.21875 C 5.75 5.71875 5.4833333 6 4.5 6 C 3.4564103 6 3.240625 5.7324219 2.640625 5.2324219 A 1 1 0 0 0 1.2324219 5.359375 A 1 1 0 0 0 1.359375 6.7675781 C 1.959375 7.2675781 2.9435897 8 4.5 8 C 6.0166667 8 7 7.28125 7.625 6.78125 C 8.25 6.28125 8.5166667 6 9.5 6 C 10.54359 6 10.759375 6.2675781 11.359375 6.7675781 C 11.959375 7.2675781 12.94359 8 14.5 8 C 16.016667 8 17 7.28125 17.625 6.78125 C 18.25 6.28125 18.516667 6 19.5 6 C 20.54359 6 20.759375 6.2675781 21.359375 6.7675781 A 1 1 0 0 0 22.767578 6.640625 A 1 1 0 0 0 22.640625 5.2324219 C 22.040625 4.7324219 21.05641 4 19.5 4 C 17.983333 4 17 4.71875 16.375 5.21875 C 15.75 5.71875 15.483333 6 14.5 6 C 13.45641 6 13.240625 5.7324219 12.640625 5.2324219 C 12.040625 4.7324219 11.05641 4 9.5 4 z M 9.5 10 C 7.9833333 10 7 10.71875 6.375 11.21875 C 5.75 11.71875 5.4833333 12 4.5 12 C 3.4564103 12 3.240625 11.732422 2.640625 11.232422 A 1 1 0 0 0 1.2324219 11.359375 A 1 1 0 0 0 1.359375 12.767578 C 1.959375 13.267578 2.9435897 14 4.5 14 C 6.0166667 14 7 13.28125 7.625 12.78125 C 8.25 12.28125 8.5166667 12 9.5 12 C 10.54359 12 10.759375 12.267578 11.359375 12.767578 C 11.959375 13.267578 12.94359 14 14.5 14 C 16.016667 14 17 13.28125 17.625 12.78125 C 18.25 12.28125 18.516667 12 19.5 12 C 20.54359 12 20.759375 12.267578 21.359375 12.767578 A 1 1 0 0 0 22.767578 12.640625 A 1 1 0 0 0 22.640625 11.232422 C 22.040625 10.732422 21.05641 10 19.5 10 C 17.983333 10 17 10.71875 16.375 11.21875 C 15.75 11.71875 15.483333 12 14.5 12 C 13.45641 12 13.240625 11.732422 12.640625 11.232422 C 12.040625 10.732422 11.05641 10 9.5 10 z M 9.5 16 C 7.9833333 16 7 16.71875 6.375 17.21875 C 5.75 17.71875 5.4833333 18 4.5 18 C 3.4564103 18 3.240625 17.732422 2.640625 17.232422 A 1 1 0 0 0 1.2324219 17.359375 A 1 1 0 0 0 1.359375 18.767578 C 1.959375 19.267578 2.9435897 20 4.5 20 C 6.0166667 20 7 19.28125 7.625 18.78125 C 8.25 18.28125 8.5166667 18 9.5 18 C 10.54359 18 10.759375 18.267578 11.359375 18.767578 C 11.959375 19.267578 12.94359 20 14.5 20 C 16.016667 20 17 19.28125 17.625 18.78125 C 18.25 18.28125 18.516667 18 19.5 18 C 20.54359 18 20.759375 18.267578 21.359375 18.767578 A 1 1 0 0 0 22.767578 18.640625 A 1 1 0 0 0 22.640625 17.232422 C 22.040625 16.732422 21.05641 16 19.5 16 C 17.983333 16 17 16.71875 16.375 17.21875 C 15.75 17.71875 15.483333 18 14.5 18 C 13.45641 18 13.240625 17.732422 12.640625 17.232422 C 12.040625 16.732422 11.05641 16 9.5 16 z "/>
</svg>
