<svg xmlns="http://www.w3.org/2000/svg" xmlns:svg="http://www.w3.org/2000/svg" width="24" height="24" viewBox="0 0 24 24" fill="currentColor" tags="water,sea,level,sound,hertz,wavelength,vibrate,high,tide,ocean,rising" categories="weather,sustainability">
  <path d="M 12 1 A 1.0001 1.0001 0 0 0 11.794922 1.0234375 A 1 1 0 0 0 11.742188 1.0351562 A 1 1 0 0 0 11.617188 1.0761719 A 1 1 0 0 0 11.611328 1.078125 A 1.0001 1.0001 0 0 0 11.5 1.1347656 A 1 1 0 0 0 11.439453 1.1757812 A 1.0001 1.0001 0 0 0 11.384766 1.2128906 A 1 1 0 0 0 11.341797 1.25 A 1.0001 1.0001 0 0 0 11.292969 1.2929688 A 1 1 0 0 0 11.283203 1.3027344 L 7.2929688 5.2929688 A 1 1 0 0 0 7.2929688 6.7070312 A 1 1 0 0 0 8.7070312 6.7070312 L 11 4.4140625 L 11 10 A 1 1 0 0 0 12 11 A 1 1 0 0 0 13 10 L 13 4.4140625 L 15.292969 6.7070312 A 1 1 0 0 0 16.707031 6.7070312 A 1 1 0 0 0 16.707031 5.2929688 L 12.716797 1.3027344 A 1 1 0 0 0 12.658203 1.25 A 1.0001 1.0001 0 0 0 12.615234 1.2128906 A 1 1 0 0 0 12.560547 1.1757812 A 1.0001 1.0001 0 0 0 12.382812 1.0761719 A 1 1 0 0 0 12.257812 1.0351562 A 1.0001 1.0001 0 0 0 12.205078 1.0234375 A 1.0001 1.0001 0 0 0 12 1 z M 9.5 13 C 7.9833333 13 7 13.71875 6.375 14.21875 C 5.75 14.71875 5.4833333 15 4.5 15 C 3.4564103 15 3.240625 14.732422 2.640625 14.232422 A 1 1 0 0 0 1.2324219 14.359375 A 1 1 0 0 0 1.359375 15.767578 C 1.959375 16.267578 2.9435897 17 4.5 17 C 6.0166667 17 7 16.28125 7.625 15.78125 C 8.25 15.28125 8.5166667 15 9.5 15 C 10.54359 15 10.759375 15.267578 11.359375 15.767578 C 11.959375 16.267578 12.94359 17 14.5 17 C 16.016667 17 17 16.28125 17.625 15.78125 C 18.25 15.28125 18.516667 15 19.5 15 C 20.54359 15 20.759375 15.267578 21.359375 15.767578 A 1 1 0 0 0 22.767578 15.640625 A 1 1 0 0 0 22.640625 14.232422 C 22.040625 13.732422 21.05641 13 19.5 13 C 17.983333 13 17 13.71875 16.375 14.21875 C 15.75 14.71875 15.483333 15 14.5 15 C 13.45641 15 13.240625 14.732422 12.640625 14.232422 C 12.040625 13.732422 11.05641 13 9.5 13 z M 9.5 19 C 7.9833333 19 7 19.71875 6.375 20.21875 C 5.75 20.71875 5.4833333 21 4.5 21 C 3.4564103 21 3.240625 20.732422 2.640625 20.232422 A 1 1 0 0 0 1.2324219 20.359375 A 1 1 0 0 0 1.359375 21.767578 C 1.959375 22.267578 2.9435897 23 4.5 23 C 6.0166667 23 7 22.28125 7.625 21.78125 C 8.25 21.28125 8.5166667 21 9.5 21 C 10.54359 21 10.759375 21.267578 11.359375 21.767578 C 11.959375 22.267578 12.94359 23 14.5 23 C 16.016667 23 17 22.28125 17.625 21.78125 C 18.25 21.28125 18.516667 21 19.5 21 C 20.54359 21 20.759375 21.267578 21.359375 21.767578 A 1 1 0 0 0 22.767578 21.640625 A 1 1 0 0 0 22.640625 20.232422 C 22.040625 19.732422 21.05641 19 19.5 19 C 17.983333 19 17 19.71875 16.375 20.21875 C 15.75 20.71875 15.483333 21 14.5 21 C 13.45641 21 13.240625 20.732422 12.640625 20.232422 C 12.040625 19.732422 11.05641 19 9.5 19 z "/>
</svg>
