<svg xmlns="http://www.w3.org/2000/svg" xmlns:svg="http://www.w3.org/2000/svg" width="24" height="24" viewBox="0 0 24 24" fill="currentColor" tags="indirection,vpn,virtual private network,proxy,connections,bounce,reroute,path,journey,planner,stops,stations,shared,spread,viral" categories="security,account,navigation,development,social">
  <path d="M 12 1 C 10.35499 1 9 2.3549904 9 4 C 9 4.4607097 9.1057552 4.8991966 9.2949219 5.2910156 L 5.2910156 9.2949219 C 4.8991966 9.1057552 4.4607097 9 4 9 C 2.3549904 9 1 10.35499 1 12 C 1 13.64501 2.3549904 15 4 15 C 5.2951422 15 6.4103145 14.160087 6.8261719 13 L 17.173828 13 C 17.209418 13.099284 17.24941 13.196748 17.294922 13.291016 L 13.291016 17.294922 C 12.899197 17.105755 12.46071 17 12 17 C 10.35499 17 9 18.35499 9 20 C 9 21.64501 10.35499 23 12 23 C 13.64501 23 15 21.64501 15 20 C 15 19.53929 14.894245 19.100803 14.705078 18.708984 L 18.708984 14.705078 C 19.100803 14.894245 19.53929 15 20 15 C 21.64501 15 23 13.64501 23 12 C 23 10.35499 21.64501 9 20 9 C 18.704857 9 17.589685 9.8399126 17.173828 11 L 6.8261719 11 C 6.7905815 10.900716 6.7505897 10.803252 6.7050781 10.708984 L 10.708984 6.7050781 C 11.100803 6.8942447 11.53929 7 12 7 C 13.64501 7 15 5.6450096 15 4 C 15 2.3549904 13.64501 1 12 1 z M 12 3 C 12.564129 3 13 3.4358706 13 4 C 13 4.5641294 12.564129 5 12 5 C 11.747289 5 11.521238 4.912908 11.347656 4.765625 A 1 1 0 0 0 11.292969 4.7070312 A 1 1 0 0 0 11.234375 4.6523438 C 11.087133 4.4787722 11 4.2526721 11 4 C 11 3.4358706 11.435871 3 12 3 z M 4 11 C 4.2527111 11 4.4787619 11.087092 4.6523438 11.234375 A 1 1 0 0 0 4.7070312 11.292969 A 1 1 0 0 0 4.765625 11.347656 C 4.912908 11.521238 5 11.747289 5 12 C 5 12.564129 4.5641294 13 4 13 C 3.4358706 13 3 12.564129 3 12 C 3 11.435871 3.4358706 11 4 11 z M 20 11 C 20.564129 11 21 11.435871 21 12 C 21 12.564129 20.564129 13 20 13 C 19.747289 13 19.521238 12.912908 19.347656 12.765625 A 1 1 0 0 0 19.292969 12.707031 A 1 1 0 0 0 19.234375 12.652344 C 19.087092 12.478762 19 12.252711 19 12 C 19 11.435871 19.435871 11 20 11 z M 12 19 C 12.252711 19 12.478762 19.087092 12.652344 19.234375 A 1 1 0 0 0 12.707031 19.292969 A 1 1 0 0 0 12.765625 19.347656 C 12.912908 19.521238 13 19.747289 13 20 C 13 20.564129 12.564129 21 12 21 C 11.435871 21 11 20.564129 11 20 C 11 19.435871 11.435871 19 12 19 z "/>
</svg>
