<?xml version="1.0" encoding="UTF-8" standalone="no"?>
<svg xmlns="http://www.w3.org/2000/svg" xmlns:svg="http://www.w3.org/2000/svg" width="24" height="24" viewBox="0 0 24 24" fill="currentColor" tags="indirection,vpn,virtual private network,proxy,connections,bounce,reroute,path,journey,planner,stops,stations,shared,spread,viral" categories="security,account,maps,navigation,development,social">
  <path d="M 12 1 C 10.078852 1 8.5 2.5788518 8.5 4.5 C 8.5 5.0997448 8.6556637 5.6667041 8.9257812 6.1621094 L 6.1621094 8.9257812 L 6.1601562 8.9257812 C 5.664751 8.6556637 5.0997448 8.5 4.5 8.5 C 2.5788518 8.5 1 10.078852 1 12 C 1 13.921148 2.5788518 15.5 4.5 15.5 C 6.0742853 15.5 7.4174078 14.439966 7.8515625 13 L 16.148438 13 C 16.218177 13.231306 16.311886 13.451269 16.425781 13.660156 L 16.425781 13.662109 L 13.662109 16.425781 C 13.661602 16.425504 13.660663 16.426058 13.660156 16.425781 C 13.164751 16.155664 12.599745 16 12 16 C 10.078852 16 8.5 17.578852 8.5 19.5 C 8.5 21.421148 10.078852 23 12 23 C 13.921148 23 15.5 21.421148 15.5 19.5 C 15.5 18.900255 15.344336 18.335249 15.074219 17.839844 C 15.073942 17.839337 15.074496 17.838398 15.074219 17.837891 L 17.839844 15.074219 C 18.335249 15.344336 18.900255 15.5 19.5 15.5 C 21.421148 15.5 23 13.921148 23 12 C 23 10.078852 21.421148 8.5 19.5 8.5 C 17.925715 8.5 16.582592 9.5600337 16.148438 11 L 7.8515625 11 C 7.781823 10.768694 7.6881136 10.546778 7.5742188 10.337891 L 10.339844 7.5742188 C 10.835249 7.8443363 11.400255 8 12 8 C 13.921148 8 15.5 6.4211482 15.5 4.5 C 15.5 2.5788518 13.921148 1 12 1 z M 12 3 C 12.84027 3 13.5 3.6597299 13.5 4.5 C 13.5 5.3402701 12.84027 6 12 6 C 11.15973 6 10.5 5.3402701 10.5 4.5 C 10.5 3.6597299 11.15973 3 12 3 z M 4.5 10.5 C 5.3402701 10.5 6 11.15973 6 12 C 6 12.84027 5.3402701 13.5 4.5 13.5 C 3.6597299 13.5 3 12.84027 3 12 C 3 11.15973 3.6597299 10.5 4.5 10.5 z M 19.5 10.5 C 20.34027 10.5 21 11.15973 21 12 C 21 12.84027 20.34027 13.5 19.5 13.5 C 18.65973 13.5 18 12.84027 18 12 C 18 11.15973 18.65973 10.5 19.5 10.5 z M 12 18 C 12.84027 18 13.5 18.65973 13.5 19.5 C 13.5 20.34027 12.84027 21 12 21 C 11.15973 21 10.5 20.34027 10.5 19.5 C 10.5 18.65973 11.15973 18 12 18 z "/>
</svg>
