<?xml version="1.0" encoding="UTF-8" standalone="no"?>
<svg xmlns="http://www.w3.org/2000/svg" xmlns:svg="http://www.w3.org/2000/svg" width="24" height="24" viewBox="0 0 24 24" fill="currentColor" tags="indirection,vpn,virtual private network,proxy,connections,bounce,reroute,path,journey,planner,stops,stations,shared,spread,viral" categories="security,account,navigation,development,social">
  <path d="M 12 1 C 10.078848 1 8.5 2.578848 8.5 4.5 C 8.5 5.099746 8.6556636 5.6667036 8.9257812 6.1621094 L 6.1621094 8.9257812 L 6.1601562 8.9257812 C 5.6647505 8.6556636 5.099746 8.5 4.5 8.5 C 2.578848 8.5 1 10.078848 1 12 C 1 13.921152 2.578848 15.5 4.5 15.5 C 6.0742884 15.5 7.4174078 14.439968 7.8515625 13 L 16.148438 13 C 16.218177 13.231306 16.311886 13.451269 16.425781 13.660156 L 16.425781 13.662109 L 13.662109 16.425781 C 13.661602 16.425504 13.660663 16.426058 13.660156 16.425781 C 13.16475 16.155664 12.599746 16 12 16 C 10.078848 16 8.5 17.578848 8.5 19.5 C 8.5 21.421152 10.078848 23 12 23 C 13.921152 23 15.5 21.421152 15.5 19.5 C 15.5 18.900254 15.344336 18.33525 15.074219 17.839844 C 15.073942 17.839337 15.074496 17.838398 15.074219 17.837891 L 17.839844 15.074219 C 18.33525 15.344336 18.900254 15.5 19.5 15.5 C 21.421152 15.5 23 13.921152 23 12 C 23 10.078848 21.421152 8.5 19.5 8.5 C 17.925712 8.5 16.582592 9.5600317 16.148438 11 L 7.8515625 11 C 7.781823 10.768694 7.6881137 10.546778 7.5742188 10.337891 L 10.339844 7.5742188 C 10.83525 7.8443364 11.400254 8 12 8 C 13.921152 8 15.5 6.421152 15.5 4.5 C 15.5 2.578848 13.921152 1 12 1 z M 12 3 C 12.840272 3 13.5 3.6597282 13.5 4.5 C 13.5 5.3402718 12.840272 6 12 6 C 11.159728 6 10.5 5.3402718 10.5 4.5 C 10.5 3.6597282 11.159728 3 12 3 z M 4.5 10.5 C 5.3402718 10.5 6 11.159728 6 12 C 6 12.840272 5.3402718 13.5 4.5 13.5 C 3.6597282 13.5 3 12.840272 3 12 C 3 11.159728 3.6597282 10.5 4.5 10.5 z M 19.5 10.5 C 20.340272 10.5 21 11.159728 21 12 C 21 12.840272 20.340272 13.5 19.5 13.5 C 18.659728 13.5 18 12.840272 18 12 C 18 11.159728 18.659728 10.5 19.5 10.5 z M 12 18 C 12.840272 18 13.5 18.659728 13.5 19.5 C 13.5 20.340272 12.840272 21 12 21 C 11.159728 21 10.5 20.340272 10.5 19.5 C 10.5 18.659728 11.159728 18 12 18 z "/>
</svg>
