<?xml version="1.0" encoding="UTF-8" standalone="no"?>
<svg xmlns="http://www.w3.org/2000/svg" xmlns:svg="http://www.w3.org/2000/svg" width="24" height="24" viewBox="0 0 24 24" fill="currentColor" tags="push api,interface,callback" categories="development,social,account">
  <path d="M 2 1 A 1 1 0 0 0 1.2929688 1.2929688 A 1 1 0 0 0 1.2929688 2.7070312 L 8.2929688 9.7070312 C 8.3910836 10.057494 8.3595816 10.434008 8.1992188 10.765625 L 5.1171875 16.529297 A 1 1 0 0 0 5.5292969 17.882812 A 1 1 0 0 0 6.8828125 17.470703 L 9.9824219 11.671875 A 1.0001 1.0001 0 0 0 10 11.634766 C 10.024411 11.584285 10.046501 11.533761 10.068359 11.482422 L 14.585938 16 L 12.017578 16 C 11.180496 15.98464 10.45105 16.348983 9.9042969 16.8125 C 9.357543 17.276017 8.9506589 17.844647 8.6308594 18.404297 A 1.0001 1.0001 0 0 0 8.6289062 18.410156 C 8.1015177 19.347285 7.4473068 19.758833 6.7421875 19.912109 C 6.0370682 20.065386 5.2487595 19.921508 4.5761719 19.542969 C 3.903581 19.164415 3.3716079 18.565099 3.1367188 17.882812 C 2.9018295 17.200527 2.9140177 16.427363 3.4414062 15.490234 A 1 1 0 0 0 3.0605469 14.128906 A 1 1 0 0 0 2.3007812 14.037109 A 1 1 0 0 0 1.6992188 14.509766 C 0.92661049 15.882631 0.82965585 17.329243 1.2441406 18.533203 C 1.6586254 19.737163 2.5338412 20.690624 3.59375 21.287109 C 4.6536588 21.883595 5.9237173 22.13766 7.1679688 21.867188 C 8.4106216 21.597063 9.5964638 20.766201 10.369141 19.396484 C 10.609339 18.976136 10.906521 18.584372 11.197266 18.337891 C 11.488056 18.091367 11.729506 17.995359 11.982422 18 A 1.0001 1.0001 0 0 0 12 18 L 16.585938 18 L 18.542969 19.957031 C 18.367617 19.98698 18.189455 20.001761 18.009766 20 A 1 1 0 0 0 17 20.990234 A 1 1 0 0 0 17.990234 22 C 18.731252 22.007264 19.459875 21.847748 20.126953 21.541016 L 21.292969 22.707031 A 1 1 0 0 0 22.707031 22.707031 A 1 1 0 0 0 22.707031 21.292969 L 20.998047 19.583984 L 17.748047 16.335938 A 1 1 0 0 0 17.664062 16.251953 L 2.7070312 1.2929688 A 1 1 0 0 0 2 1 z M 11.949219 1.03125 C 10.587664 1.0482716 9.2248742 1.6067922 8.2421875 2.7460938 A 1 1 0 0 0 8.3476562 4.1582031 A 1 1 0 0 0 9.7578125 4.0527344 C 11.138475 2.4520309 13.614612 2.7039111 14.646484 4.5488281 A 1 1 0 0 0 16.007812 4.9335938 A 1 1 0 0 0 16.392578 3.5722656 C 15.553224 2.0715564 14.078139 1.2132277 12.53125 1.0566406 C 12.337889 1.0370673 12.143727 1.0288183 11.949219 1.03125 z M 11.931641 5.0019531 A 1 1 0 0 0 11.486328 5.1425781 A 1 1 0 0 0 11.142578 6.5136719 L 11.742188 7.5136719 A 1 1 0 0 0 13.115234 7.8574219 A 1 1 0 0 0 13.457031 6.4863281 L 12.857422 5.4863281 A 1 1 0 0 0 12.242188 5.0292969 A 1 1 0 0 0 11.931641 5.0019531 z M 18.527344 12.001953 A 1 1 0 0 0 17.611328 12.847656 A 1 1 0 0 0 18.449219 13.988281 C 19.76735 14.190452 20.786846 15.227479 20.966797 16.548828 A 1 1 0 0 0 22.091797 17.404297 A 1 1 0 0 0 22.947266 16.279297 C 22.648924 14.088625 20.937292 12.346897 18.751953 12.011719 A 1 1 0 0 0 18.527344 12.001953 z "/>
</svg>
