<svg xmlns="http://www.w3.org/2000/svg" xmlns:svg="http://www.w3.org/2000/svg" width="24" height="24" viewBox="0 0 24 24" fill="currentColor" tags="push api,interface,callback" categories="development,social,account">
  <path d="M 2 1 A 1 1 0 0 0 1.2929688 1.2929688 A 1 1 0 0 0 1.2929688 2.7070312 L 8.2949219 9.7089844 C 8.3926829 10.059152 8.359424 10.434335 8.1992188 10.765625 L 5.1171875 16.529297 A 1 1 0 0 0 5.5292969 17.882812 A 1 1 0 0 0 6.8828125 17.470703 L 9.9824219 11.671875 A 1.0001 1.0001 0 0 0 10 11.634766 C 10.02425 11.584619 10.046629 11.533416 10.068359 11.482422 L 14.585938 16 L 12.017578 16 C 11.180494 15.98464 10.451052 16.348982 9.9042969 16.8125 C 9.357542 17.276018 8.9506595 17.844647 8.6308594 18.404297 A 1.0001 1.0001 0 0 0 8.6289062 18.410156 C 8.1015135 19.347246 7.4473082 19.758832 6.7421875 19.912109 C 6.0370668 20.065386 5.2487609 19.921482 4.5761719 19.542969 C 3.9035829 19.164455 3.3716084 18.5651 3.1367188 17.882812 C 2.901829 17.200525 2.9140166 16.427365 3.4414062 15.490234 A 1 1 0 0 0 3.0605469 14.128906 A 1 1 0 0 0 2.3007812 14.037109 A 1 1 0 0 0 1.6992188 14.509766 C 0.92660894 15.882634 0.82965502 17.329241 1.2441406 18.533203 C 1.6586263 19.737165 2.533839 20.690623 3.59375 21.287109 C 4.653661 21.883596 5.9237147 22.13766 7.1679688 21.867188 C 8.4122228 21.596715 9.5984837 20.763493 10.371094 19.390625 L 10.369141 19.396484 C 10.609387 18.976094 10.90652 18.584373 11.197266 18.337891 C 11.488011 18.091408 11.729506 17.995359 11.982422 18 A 1.0001 1.0001 0 0 0 12 18 L 16.585938 18 L 18.542969 19.957031 C 18.367614 19.986981 18.189459 20.001761 18.009766 20 A 1 1 0 0 0 17 20.990234 A 1 1 0 0 0 17.990234 22 C 18.731433 22.007265 19.461697 21.849848 20.128906 21.542969 L 21.292969 22.707031 A 1 1 0 0 0 22.707031 22.707031 A 1 1 0 0 0 22.707031 21.292969 L 21.029297 19.615234 A 1 1 0 0 0 20.984375 19.570312 L 17.716797 16.302734 A 1 1 0 0 0 17.697266 16.283203 L 9.9316406 8.5175781 A 1 1 0 0 0 9.7871094 8.3730469 L 2.7070312 1.2929688 A 1 1 0 0 0 2 1 z M 11.949219 1.03125 C 10.587662 1.0482714 9.2248761 1.6067899 8.2421875 2.7460938 A 1 1 0 0 0 8.3476562 4.1582031 A 1 1 0 0 0 9.7578125 4.0527344 C 11.138477 2.4520277 13.61461 2.7039074 14.646484 4.5488281 A 1 1 0 0 0 16.007812 4.9335938 A 1 1 0 0 0 16.392578 3.5722656 C 15.553222 2.0715534 14.078143 1.2132279 12.53125 1.0566406 C 12.337888 1.0370672 12.143727 1.0288184 11.949219 1.03125 z M 11.982422 5 A 1 1 0 0 0 11.486328 5.1425781 A 1 1 0 0 0 11.142578 6.5136719 L 11.742188 7.5136719 A 1 1 0 0 0 13.115234 7.8574219 A 1 1 0 0 0 13.457031 6.4863281 L 12.857422 5.4863281 A 1 1 0 0 0 12.242188 5.0292969 A 1 1 0 0 0 11.982422 5 z M 18.621094 12 A 1 1 0 0 0 17.611328 12.847656 A 1 1 0 0 0 18.449219 13.988281 C 19.767353 14.190452 20.786846 15.227477 20.966797 16.548828 A 1 1 0 0 0 22.091797 17.404297 A 1 1 0 0 0 22.947266 16.279297 C 22.648924 14.088621 20.937296 12.346899 18.751953 12.011719 A 1 1 0 0 0 18.621094 12 z "/>
</svg>
