<svg xmlns="http://www.w3.org/2000/svg" xmlns:svg="http://www.w3.org/2000/svg" width="24" height="24" viewBox="0 0 24 24" fill="currentColor" tags="push api,interface,callback" categories="development,social,account">
  <path d="M 12.164062 0.94335938 C 11.847467 0.94282864 11.53254 0.97296354 11.224609 1.03125 C 10.608748 1.1478229 10.017345 1.3761977 9.4824219 1.6914062 C 8.4125756 2.3218236 7.5404401 3.3152236 7.1542969 4.5566406 C 6.7681537 5.7980576 6.9218543 7.2759631 7.78125 8.6503906 A 1.0001 1.0001 0 0 0 7.7929688 8.6660156 C 8.29323 9.4330832 8.5050459 10.277027 8.2519531 10.740234 A 1.0001 1.0001 0 0 0 8.25 10.744141 L 5.1210938 16.523438 A 1 1 0 0 0 5.5234375 17.878906 A 1 1 0 0 0 6.8789062 17.476562 L 10.007812 11.699219 C 10.814719 10.222426 10.166535 8.6471513 9.4667969 7.5742188 L 9.4785156 7.5898438 C 8.8864353 6.642933 8.8437206 5.8537474 9.0625 5.1503906 C 9.2812794 4.4470338 9.8143647 3.8169289 10.498047 3.4140625 C 11.181729 3.0111961 11.991607 2.8505846 12.712891 3 C 13.434174 3.1494154 14.103079 3.5681782 14.644531 4.5449219 A 1 1 0 0 0 16.003906 4.9355469 A 1 1 0 0 0 16.394531 3.5742188 C 15.608621 2.1564891 14.390245 1.3047321 13.117188 1.0410156 C 12.798923 0.97508651 12.480658 0.94389011 12.164062 0.94335938 z M 12.023438 5.0019531 A 1 1 0 0 0 11.521484 5.1230469 A 1 1 0 0 0 11.123047 6.4785156 L 14.251953 12.208984 C 15.055041 13.678786 16.718182 14 18 14 C 19.083333 14 19.768559 14.370244 20.251953 14.914062 C 20.735347 15.45788 21 16.222222 21 17 C 21 17.777778 20.735347 18.542119 20.251953 19.085938 C 19.768559 19.629756 19.083333 20 18 20 A 1 1 0 0 0 17 21 A 1 1 0 0 0 18 22 C 19.583333 22 20.898108 21.370244 21.748047 20.414062 C 22.597986 19.457881 23 18.222222 23 17 C 23 15.777778 22.597986 14.542119 21.748047 13.585938 C 20.898108 12.629755 19.583333 12 18 12 C 17.081818 12 16.264725 11.720198 16.007812 11.25 L 12.876953 5.5214844 A 1 1 0 0 0 12.023438 5.0019531 z M 2.5996094 14 A 1 1 0 0 0 1.71875 14.474609 C 1.2466384 15.240196 1.0124482 16.114952 1 16.986328 A 1.0001 1.0001 0 0 0 1 17 C 1.0007895 19.527926 2.7644882 21.344138 4.7890625 21.849609 C 6.8136368 22.355081 9.2231949 21.580504 10.412109 19.349609 L 10.40625 19.363281 C 10.851095 18.557525 11.479463 17.980469 12.009766 17.980469 L 18 17.980469 A 1 1 0 0 0 19 16.980469 A 1 1 0 0 0 18 15.980469 L 12.009766 15.980469 C 10.340069 15.980469 9.269452 17.282241 8.6542969 18.396484 A 1.0001 1.0001 0 0 0 8.6484375 18.410156 C 7.8789054 19.854116 6.5239263 20.222363 5.2734375 19.910156 C 4.0248217 19.598421 3.005517 18.637606 3.0019531 17.005859 C 3.0108967 16.480012 3.1553805 15.957544 3.421875 15.525391 A 1 1 0 0 0 3.0957031 14.148438 A 1 1 0 0 0 2.5996094 14 z "/>
</svg>
