<svg xmlns="http://www.w3.org/2000/svg" xmlns:svg="http://www.w3.org/2000/svg" width="24" height="24" viewBox="0 0 24 24" fill="currentColor" tags="measure,scale,estimate,load,balance,size,measurement,quantity,mass" categories="math">
  <path d="M 12 1 C 9.8027056 1 8 2.8027056 8 5 C 8 5.7268302 8.1974832 6.4104852 8.5410156 7 L 6.5 7 A 1.0001 1.0001 0 0 0 6.4902344 7 C 5.1607784 7.013128 3.9897652 7.9092921 3.6308594 9.1894531 A 1.0001 1.0001 0 0 0 3.6308594 9.1933594 L 1.1367188 18.234375 A 1.0001 1.0001 0 0 0 1.1308594 18.25 C 0.6516564 20.104634 2.067197 21.965131 3.9824219 22 A 1.0001 1.0001 0 0 0 4 22 L 20 22 C 21.960645 21.999294 23.418046 20.07728 22.888672 18.189453 A 1.0001 1.0001 0 0 0 22.886719 18.189453 L 20.369141 9.25 C 20.030694 7.9390103 18.842207 7.0111765 17.488281 7 A 1.0001 1.0001 0 0 0 17.480469 7 L 15.458984 7 C 15.802517 6.4104852 16 5.7268302 16 5 C 16 2.8027056 14.197294 1 12 1 z M 12 3 C 13.116414 3 14 3.8835859 14 5 C 14 6.1164141 13.116414 7 12 7 C 10.883586 7 10 6.1164141 10 5 C 10 3.8835859 10.883586 3 12 3 z M 6.5097656 9 L 12 9 L 17.472656 9 C 17.930429 9.00378 18.317209 9.3067443 18.431641 9.75 A 1.0001 1.0001 0 0 0 18.4375 9.7714844 L 20.962891 18.730469 C 21.148639 19.393023 20.68811 19.999752 20 20 L 4.0175781 20 C 3.3479799 19.987809 2.9008211 19.398414 3.0683594 18.75 L 5.5566406 9.7304688 L 5.5585938 9.7304688 C 5.6803528 9.2989475 6.0612548 9.0044288 6.5097656 9 z M 9.9980469 13.015625 C 8.9440469 13.015625 7.8912187 13.477724 7.1992188 14.400391 A 1 1 0 0 0 7.3984375 15.800781 A 1 1 0 0 0 8.7988281 15.599609 C 9.4148281 14.778276 10.583219 14.778276 11.199219 15.599609 C 12.583219 17.444943 15.414828 17.444943 16.798828 15.599609 A 1 1 0 0 0 16.599609 14.199219 A 1 1 0 0 0 15.199219 14.400391 C 14.583219 15.221724 13.414828 15.221724 12.798828 14.400391 C 12.106828 13.477724 11.052047 13.015625 9.9980469 13.015625 z "/>
</svg>
