<?xml version="1.0" encoding="UTF-8" standalone="no"?>
<svg xmlns="http://www.w3.org/2000/svg" xmlns:svg="http://www.w3.org/2000/svg" width="24" height="24" viewBox="0 0 24 24" fill="currentColor" tags="mass,heavy,lead,metal,measure,geometry,scales,balance" categories="maths">
  <path d="M 12 1 C 9.80271 1 8 2.80271 8 5 C 8 5.7268991 8.1974217 6.410447 8.5410156 7 L 6.5 7 A 1.0001 1.0001 0 0 0 6.4902344 7 C 5.1613306 7.0137887 3.9915642 7.9098155 3.6328125 9.1894531 A 1.0001 1.0001 0 0 0 3.6308594 9.1933594 L 1.1367188 18.234375 A 1.0001 1.0001 0 0 0 1.1308594 18.25 C 0.65165736 20.10463 2.0672008 21.965131 3.9824219 22 A 1.0001 1.0001 0 0 0 4 22 L 20 22 C 21.960641 21.999294 23.418045 20.077276 22.888672 18.189453 A 1.0001 1.0001 0 0 0 22.886719 18.189453 L 20.369141 9.25 C 20.030694 7.9390129 18.842205 7.0111765 17.488281 7 A 1.0001 1.0001 0 0 0 17.480469 7 L 15.458984 7 C 15.802578 6.410447 16 5.7268991 16 5 C 16 2.80271 14.19729 1 12 1 z M 12 3 C 13.116412 3 14 3.8835881 14 5 C 14 6.1164119 13.116412 7 12 7 C 10.883588 7 10 6.1164119 10 5 C 10 3.8835881 10.883588 3 12 3 z M 6.5097656 9 L 12 9 L 17.472656 9 C 17.930429 9.00378 18.317209 9.3067451 18.431641 9.75 A 1.0001 1.0001 0 0 0 18.4375 9.7714844 L 20.962891 18.730469 C 21.148638 19.393021 20.688109 19.999752 20 20 L 4.0175781 20 C 3.3479813 19.987809 2.9008214 19.398413 3.0683594 18.75 L 5.5585938 9.7304688 C 5.6797779 9.2982152 6.0608705 9.0046577 6.5097656 9 z "/>
</svg>
