<?xml version="1.0" encoding="UTF-8" standalone="no"?>
<svg xmlns="http://www.w3.org/2000/svg" xmlns:svg="http://www.w3.org/2000/svg" width="24" height="24" viewBox="0 0 24 24" fill="currentColor" tags="corn,cereal,grain,gluten free,allergy,intolerance,diet" categories="food-beverage">
  <path d="M 2 1 A 1 1 0 0 0 1.2929688 1.2929688 A 1 1 0 0 0 1.2929688 2.7070312 L 6.5917969 8.0058594 C 6.0346253 8.6306599 5.682047 9.3775157 5.5351562 10.15625 A 1.0001 1.0001 0 0 0 4.2929688 10.292969 L 2.7636719 11.822266 A 1.0001 1.0001 0 0 0 2.7617188 11.824219 C 1.0209548 13.571846 1.0209548 16.428154 2.7617188 18.175781 A 1.0001 1.0001 0 0 0 2.7636719 18.177734 L 3.5859375 19 L 1.2929688 21.292969 A 1 1 0 0 0 1.2929688 22.707031 A 1 1 0 0 0 2.7070312 22.707031 L 5 20.414062 L 5.8222656 21.236328 A 1.0001 1.0001 0 0 0 5.8242188 21.238281 C 7.5718457 22.979045 10.428154 22.979045 12.175781 21.238281 A 1.0001 1.0001 0 0 0 12.177734 21.236328 L 13.707031 19.707031 A 1.0001 1.0001 0 0 0 13.84375 18.464844 C 14.622479 18.317946 15.369346 17.965377 15.994141 17.408203 L 21.292969 22.707031 A 1 1 0 0 0 22.707031 22.707031 A 1 1 0 0 0 22.707031 21.292969 L 16.712891 15.298828 A 1 1 0 0 0 16.707031 15.292969 A 1 1 0 0 0 16.701172 15.287109 L 13.287109 11.873047 A 1 1 0 0 0 13.117188 11.703125 L 12.707031 11.292969 L 12.292969 10.878906 A 1 1 0 0 0 12.130859 10.716797 L 8.7070312 7.2929688 L 2.7070312 1.2929688 A 1 1 0 0 0 2 1 z M 20 1 C 17.955799 1 16.186809 2.2436125 15.414062 4.0117188 C 15.357343 3.9477971 15.299209 3.8854437 15.238281 3.8242188 A 1.0001 1.0001 0 0 0 15.236328 3.8222656 L 13.707031 2.2929688 A 1.0001 1.0001 0 0 0 12.292969 2.2929688 L 10.763672 3.8222656 C 10.479389 4.1065481 10.236969 4.4234977 10.042969 4.7597656 A 1 1 0 0 0 10.410156 6.1269531 A 1 1 0 0 0 11.775391 5.7597656 C 11.88139 5.5760335 12.022017 5.3920457 12.177734 5.2363281 L 13 4.4140625 L 13.820312 5.2363281 C 14.714149 6.1345267 14.800304 7.5355845 14.021484 8.5351562 A 1 1 0 0 0 14.113281 9.8652344 A 1 1 0 0 0 14.123047 9.8769531 A 1 1 0 0 0 14.134766 9.8867188 A 1 1 0 0 0 15.464844 9.9785156 C 16.464415 9.1996958 17.865473 9.2858508 18.763672 10.179688 L 19.585938 11 L 18.763672 11.822266 C 18.607954 11.977983 18.423966 12.11861 18.240234 12.224609 A 1 1 0 0 0 17.873047 13.589844 A 1 1 0 0 0 19.240234 13.957031 C 19.576502 13.763031 19.893452 13.520611 20.177734 13.236328 L 21.707031 11.707031 A 1.0001 1.0001 0 0 0 21.707031 10.292969 L 20.177734 8.7636719 A 1.0001 1.0001 0 0 0 20.175781 8.7617188 C 20.114565 8.7007964 20.052197 8.6426557 19.988281 8.5859375 C 21.756401 7.8131972 23 6.0442104 23 4 L 23 2 A 1.0001 1.0001 0 0 0 22 1 L 20 1 z M 20 3 L 21 3 L 21 4 C 21 5.6686989 19.668699 7 18 7 L 17 7 L 17 6 C 17 4.3313011 18.331301 3 20 3 z M 8.0097656 9.4238281 L 10.410156 11.824219 C 10.298344 12.149254 10.116692 12.456118 9.8671875 12.71875 C 9.8530574 12.732427 9.8381819 12.745888 9.8242188 12.759766 A 1.0001 1.0001 0 0 0 9.8222656 12.763672 L 9 13.585938 L 8.1777344 12.763672 C 7.2577253 11.840036 7.2022792 10.409554 8.0097656 9.4238281 z M 5 12.414062 L 5.8222656 13.236328 C 6.801544 14.219467 6.8002315 15.779762 5.8222656 16.763672 L 5 17.585938 L 4.1777344 16.763672 C 3.1977994 15.779874 3.1977994 14.220126 4.1777344 13.236328 L 5 12.414062 z M 12.177734 13.591797 L 14.576172 15.990234 C 13.590447 16.797696 12.159955 16.742266 11.236328 15.822266 L 10.414062 15 L 11.234375 14.179688 L 11.236328 14.177734 C 11.503506 13.912772 11.82574 13.713183 12.177734 13.591797 z M 9 17.443359 C 9.6361933 17.443359 10.271773 17.687767 10.763672 18.177734 L 11.585938 19 L 10.763672 19.822266 C 9.7798735 20.802201 8.2201264 20.802201 7.2363281 19.822266 L 6.4140625 19 L 7.2363281 18.177734 A 1.0001 1.0001 0 0 0 7.2382812 18.175781 L 7.2402344 18.173828 C 7.2416769 18.172377 7.2446536 18.169421 7.2460938 18.167969 C 7.7364952 17.685053 8.3683959 17.443359 9 17.443359 z "/>
</svg>
