<?xml version="1.0" encoding="UTF-8" standalone="no"?>
<svg xmlns="http://www.w3.org/2000/svg" xmlns:svg="http://www.w3.org/2000/svg" width="24" height="24" viewBox="0 0 24 24" fill="currentColor" tags="corn,cereal,grain,gluten" categories="food-beverage">
  <path d="M 20 1 C 17.955862 1 16.186846 2.2436988 15.414062 4.0117188 C 15.357366 3.9478864 15.299249 3.8854265 15.238281 3.8242188 A 1.0001 1.0001 0 0 0 15.236328 3.8222656 L 13.707031 2.2929688 A 1.0001 1.0001 0 0 0 12.292969 2.2929688 L 10.763672 3.8222656 A 1.0001 1.0001 0 0 0 10.761719 3.8242188 C 10.105292 4.483233 9.6965178 5.3008302 9.5351562 6.15625 A 1.0001 1.0001 0 0 0 8.2929688 6.2929688 L 6.7636719 7.8222656 A 1.0001 1.0001 0 0 0 6.7617188 7.8242188 C 6.1052851 8.4832404 5.696514 9.3008198 5.5351562 10.15625 A 1.0001 1.0001 0 0 0 4.2929688 10.292969 L 2.7636719 11.822266 A 1.0001 1.0001 0 0 0 2.7617188 11.824219 C 1.0209548 13.571846 1.0209548 16.428154 2.7617188 18.175781 A 1.0001 1.0001 0 0 0 2.7636719 18.177734 L 3.5859375 19 L 1.2929688 21.292969 A 1 1 0 0 0 1.2929688 22.707031 A 1 1 0 0 0 2.7070312 22.707031 L 5 20.414062 L 5.8222656 21.236328 A 1.0001 1.0001 0 0 0 5.8242188 21.238281 C 7.5718457 22.979045 10.428154 22.979045 12.175781 21.238281 A 1.0001 1.0001 0 0 0 12.177734 21.236328 L 13.707031 19.707031 A 1.0001 1.0001 0 0 0 13.84375 18.464844 C 14.699154 18.303476 15.516778 17.894696 16.175781 17.238281 A 1.0001 1.0001 0 0 0 16.177734 17.236328 L 17.707031 15.707031 A 1.0001 1.0001 0 0 0 17.84375 14.464844 C 18.699164 14.30348 19.516771 13.894703 20.175781 13.238281 A 1.0001 1.0001 0 0 0 20.177734 13.236328 L 21.707031 11.707031 A 1.0001 1.0001 0 0 0 21.707031 10.292969 L 20.177734 8.7636719 A 1.0001 1.0001 0 0 0 20.175781 8.7617188 C 20.114573 8.7007473 20.052115 8.6426476 19.988281 8.5859375 C 21.75633 7.8131664 23 6.0441588 23 4 L 23 2 A 1.0001 1.0001 0 0 0 22 1 L 20 1 z M 20 3 L 21 3 L 21 4 C 21 5.6686989 19.668699 7 18 7 L 17 7 L 17 6 C 17 4.3313011 18.331301 3 20 3 z M 13 4.4140625 L 13.822266 5.2363281 C 14.801646 6.2195699 14.802491 7.7778261 13.824219 8.7617188 A 1.0001 1.0001 0 0 0 13.822266 8.7636719 L 13 9.5859375 L 12.177734 8.7636719 C 11.197799 7.7798736 11.197799 6.2201264 12.177734 5.2363281 L 13 4.4140625 z M 9 8.4140625 L 9.8222656 9.2363281 C 10.801544 10.219467 10.800232 11.779762 9.8222656 12.763672 L 9 13.585938 L 8.1777344 12.763672 C 7.1977994 11.779874 7.1977994 10.220126 8.1777344 9.2363281 L 9 8.4140625 z M 17 9.4433594 C 17.636193 9.4433594 18.271773 9.6877673 18.763672 10.177734 L 19.585938 11 L 18.763672 11.822266 C 17.779874 12.802201 16.220126 12.802201 15.236328 11.822266 L 14.414062 11 L 15.236328 10.177734 A 1.0001 1.0001 0 0 0 15.238281 10.175781 L 15.240234 10.173828 C 15.241674 10.17238 15.244656 10.169418 15.246094 10.167969 C 15.736494 9.6850571 16.368399 9.4433594 17 9.4433594 z M 5 12.414062 L 5.8222656 13.236328 C 6.801544 14.219467 6.8002315 15.779762 5.8222656 16.763672 L 5 17.585938 L 4.1777344 16.763672 C 3.1977994 15.779874 3.1977994 14.220126 4.1777344 13.236328 L 5 12.414062 z M 13 13.443359 C 13.636193 13.443359 14.271773 13.687767 14.763672 14.177734 L 15.585938 15 L 14.763672 15.822266 C 13.779874 16.802201 12.220126 16.802201 11.236328 15.822266 L 10.414062 15 L 11.236328 14.177734 A 1.0001 1.0001 0 0 0 11.238281 14.175781 L 11.240234 14.173828 C 11.241676 14.172378 11.244655 14.16942 11.246094 14.167969 C 11.736493 13.685062 12.368402 13.443359 13 13.443359 z M 9 17.443359 C 9.6361933 17.443359 10.271773 17.687767 10.763672 18.177734 L 11.585938 19 L 10.763672 19.822266 C 9.7798735 20.802201 8.2201264 20.802201 7.2363281 19.822266 L 6.4140625 19 L 7.2363281 18.177734 A 1.0001 1.0001 0 0 0 7.2382812 18.175781 L 7.2402344 18.173828 C 7.2416715 18.172383 7.244659 18.169416 7.2460938 18.167969 C 7.7364952 17.685053 8.3683959 17.443359 9 17.443359 z "/>
</svg>
