<?xml version="1.0" encoding="UTF-8" standalone="no"?>
<svg xmlns="http://www.w3.org/2000/svg" xmlns:svg="http://www.w3.org/2000/svg" width="24" height="24" viewBox="0 0 24 24" fill="currentColor" tags="corn,cereal,grain,gluten" categories="food-beverage">
  <path d="M 20 1 C 17.955201 1 16.186449 2.2447368 15.414062 4.0136719 C 15.357298 3.9497542 15.299327 3.8855051 15.238281 3.8242188 A 1.0001 1.0001 0 0 0 15.236328 3.8222656 L 13.707031 2.2929688 A 1.0001 1.0001 0 0 0 12.292969 2.2929688 L 10.763672 3.8222656 A 1.0001 1.0001 0 0 0 10.761719 3.8242188 C 10.102457 4.4860792 9.6931132 5.3065661 9.5332031 6.1660156 A 1.0001 1.0001 0 0 0 8.2929688 6.2929688 L 6.7636719 7.8222656 A 1.0001 1.0001 0 0 0 6.7617188 7.8242188 C 6.1024574 8.4860792 5.6931132 9.3065661 5.5332031 10.166016 A 1.0001 1.0001 0 0 0 4.2929688 10.292969 L 2.7636719 11.822266 A 1.0001 1.0001 0 0 0 2.7617188 11.824219 C 1.0209582 13.571842 1.0209582 16.428158 2.7617188 18.175781 A 1.0001 1.0001 0 0 0 2.7636719 18.177734 L 3.5859375 19 L 1.2929688 21.292969 A 1 1 0 0 0 1.2929688 22.707031 A 1 1 0 0 0 2.7070312 22.707031 L 5 20.414062 L 5.8222656 21.236328 A 1.0001 1.0001 0 0 0 5.8242188 21.238281 C 7.5718422 22.979043 10.428158 22.979043 12.175781 21.238281 A 1.0001 1.0001 0 0 0 12.177734 21.236328 L 13.707031 19.707031 A 1.0001 1.0001 0 0 0 13.84375 18.464844 C 14.699634 18.303649 15.51644 17.895034 16.175781 17.238281 A 1.0001 1.0001 0 0 0 16.177734 17.236328 L 17.707031 15.707031 A 1.0001 1.0001 0 0 0 17.84375 14.464844 C 18.699634 14.303649 19.51644 13.895034 20.175781 13.238281 A 1.0001 1.0001 0 0 0 20.177734 13.236328 L 21.707031 11.707031 A 1.0001 1.0001 0 0 0 21.707031 10.292969 L 20.177734 8.7636719 A 1.0001 1.0001 0 0 0 20.175781 8.7617188 C 20.114498 8.7006728 20.050243 8.6427116 19.986328 8.5859375 C 21.755263 7.8135512 23 6.0447997 23 4 L 23 2 A 1.0001 1.0001 0 0 0 22 1 L 20 1 z M 20 3 L 21 3 L 21 4 C 21 5.6686955 19.668695 7 18 7 L 17 7 L 17 6 C 17 4.3313045 18.331305 3 20 3 z M 13 4.4140625 L 13.822266 5.2363281 C 14.801547 6.2194707 14.802199 7.7778116 13.824219 8.7617188 C 13.823568 8.7623731 13.822917 8.7630181 13.822266 8.7636719 L 13 9.5859375 L 12.177734 8.7636719 C 11.197801 7.7798755 11.197801 6.2201245 12.177734 5.2363281 L 13 4.4140625 z M 9 8.4140625 L 9.8222656 9.2363281 C 10.801548 10.21947 10.800246 11.779765 9.8222656 12.763672 L 9 13.585938 L 8.1777344 12.763672 C 7.1978014 11.779876 7.1978014 10.220124 8.1777344 9.2363281 L 9 8.4140625 z M 17 9.4433594 C 17.636192 9.4433594 18.271773 9.6877683 18.763672 10.177734 L 19.585938 11 L 18.763672 11.822266 C 17.779876 12.802199 16.220124 12.802199 15.236328 11.822266 L 14.414062 11 L 15.236328 10.177734 A 1.0001 1.0001 0 0 0 15.238281 10.175781 C 15.729907 9.6871183 16.364653 9.4433594 17 9.4433594 z M 5 12.414062 L 5.8222656 13.236328 C 6.8015474 14.21947 6.8002457 15.779765 5.8222656 16.763672 L 5 17.585938 L 4.1777344 16.763672 C 3.1978014 15.779876 3.1978014 14.220124 4.1777344 13.236328 L 5 12.414062 z M 13 13.443359 C 13.636192 13.443359 14.271773 13.687768 14.763672 14.177734 L 15.585938 15 L 14.763672 15.822266 C 13.779876 16.802199 12.220124 16.802199 11.236328 15.822266 L 10.414062 15 L 11.236328 14.177734 A 1.0001 1.0001 0 0 0 11.238281 14.175781 C 11.729907 13.687118 12.364653 13.443359 13 13.443359 z M 9 17.443359 C 9.636192 17.443359 10.271773 17.687768 10.763672 18.177734 L 11.585938 19 L 10.763672 19.822266 C 9.7798754 20.802199 8.2201245 20.802199 7.2363281 19.822266 L 6.4140625 19 L 7.2363281 18.177734 A 1.0001 1.0001 0 0 0 7.2382812 18.175781 C 7.7299068 17.687118 8.3646537 17.443359 9 17.443359 z "/>
</svg>
