<?xml version="1.0" encoding="UTF-8" standalone="no"?>
<svg xmlns="http://www.w3.org/2000/svg" xmlns:svg="http://www.w3.org/2000/svg" width="24" height="24" viewBox="0 0 24 24" fill="currentColor" tags="corn,cereal,grain,gluten free,allergy,intolerance,diet" categories="food-beverage">
  <path d="M 2 1 A 1 1 0 0 0 1.2929688 1.2929688 A 1 1 0 0 0 1.2929688 2.7070312 L 6.5917969 8.0058594 C 6.031758 8.6337071 5.678872 9.3831064 5.5332031 10.166016 A 1.0001 1.0001 0 0 0 4.2929688 10.292969 L 2.7636719 11.822266 A 1.0001 1.0001 0 0 0 2.7617188 11.824219 C 1.0209582 13.571842 1.0209582 16.428158 2.7617188 18.175781 A 1.0001 1.0001 0 0 0 2.7636719 18.177734 L 3.5859375 19 L 1.2929688 21.292969 A 1 1 0 0 0 1.2929688 22.707031 A 1 1 0 0 0 2.7070312 22.707031 L 5 20.414062 L 5.8222656 21.236328 A 1.0001 1.0001 0 0 0 5.8242188 21.238281 C 7.5718422 22.979043 10.428158 22.979043 12.175781 21.238281 A 1.0001 1.0001 0 0 0 12.177734 21.236328 L 13.707031 19.707031 A 1.0001 1.0001 0 0 0 13.84375 18.464844 C 14.62312 18.318059 15.368916 17.965902 15.994141 17.408203 L 21.292969 22.707031 A 1 1 0 0 0 22.707031 22.707031 A 1 1 0 0 0 22.707031 21.292969 L 16.707031 15.292969 L 13.287109 11.873047 L 12.707031 11.292969 L 12.285156 10.871094 A 1 1 0 0 0 12.140625 10.726562 L 8.7070312 7.2929688 L 2.7070312 1.2929688 A 1 1 0 0 0 2 1 z M 20 1 C 17.955201 1 16.186449 2.2447368 15.414062 4.0136719 C 15.356983 3.9492939 15.299627 3.8858635 15.238281 3.8242188 A 1.0001 1.0001 0 0 0 15.236328 3.8222656 L 13.707031 2.2929688 A 1.0001 1.0001 0 0 0 12.292969 2.2929688 L 10.763672 3.8222656 C 10.47939 4.1065475 10.236969 4.4234984 10.042969 4.7597656 A 1 1 0 0 0 10.410156 6.1269531 A 1 1 0 0 0 11.775391 5.7597656 C 11.88139 5.5760339 12.022018 5.3920454 12.177734 5.2363281 L 13 4.4140625 L 13.820312 5.2363281 C 14.714147 6.1345249 14.800303 7.5355865 14.021484 8.5351562 A 1 1 0 0 0 14.060547 9.8046875 A 1 1 0 0 0 14.064453 9.8085938 A 1 1 0 0 0 14.123047 9.8769531 A 1 1 0 0 0 14.183594 9.9277344 A 1 1 0 0 0 14.195312 9.9394531 A 1 1 0 0 0 14.197266 9.9414062 A 1 1 0 0 0 15.464844 9.9785156 C 16.464413 9.1996973 17.865475 9.2858526 18.763672 10.179688 L 19.585938 11 L 18.763672 11.822266 C 18.607954 11.977982 18.423966 12.11861 18.240234 12.224609 A 1 1 0 0 0 17.873047 13.589844 A 1 1 0 0 0 19.240234 13.957031 C 19.576502 13.763031 19.893453 13.52061 20.177734 13.236328 L 21.707031 11.707031 A 1.0001 1.0001 0 0 0 21.707031 10.292969 L 20.177734 8.7636719 A 1.0001 1.0001 0 0 0 20.175781 8.7617188 C 20.11414 8.7003731 20.050706 8.6430203 19.986328 8.5859375 C 21.755263 7.8135512 23 6.0447997 23 4 L 23 2 A 1.0001 1.0001 0 0 0 22 1 L 20 1 z M 20 3 L 21 3 L 21 4 C 21 5.6686955 19.668695 7 18 7 L 17 7 L 17 6 C 17 4.3313045 18.331305 3 20 3 z M 8.0097656 9.4238281 L 10.408203 11.822266 C 10.292077 12.160226 10.10081 12.478647 9.8359375 12.748047 C 9.8319949 12.751936 9.828148 12.755861 9.8242188 12.759766 A 1.0001 1.0001 0 0 0 9.8222656 12.763672 L 9 13.585938 L 8.1777344 12.763672 C 7.2577257 11.840036 7.2022768 10.409552 8.0097656 9.4238281 z M 5 12.414062 L 5.8222656 13.236328 C 6.8015474 14.21947 6.8002457 15.779765 5.8222656 16.763672 L 5 17.585938 L 4.1777344 16.763672 C 3.1978014 15.779876 3.1978014 14.220124 4.1777344 13.236328 L 5 12.414062 z M 12.179688 13.59375 L 14.576172 15.990234 C 13.590447 16.797723 12.159964 16.742274 11.236328 15.822266 L 10.414062 15 L 11.234375 14.179688 L 11.236328 14.177734 C 11.503968 13.912313 11.826981 13.715075 12.179688 13.59375 z M 9 17.443359 C 9.636192 17.443359 10.271773 17.687768 10.763672 18.177734 L 11.585938 19 L 10.763672 19.822266 C 9.7798754 20.802199 8.2201245 20.802199 7.2363281 19.822266 L 6.4140625 19 L 7.2363281 18.177734 A 1.0001 1.0001 0 0 0 7.2382812 18.175781 C 7.7299068 17.687118 8.3646537 17.443359 9 17.443359 z "/>
</svg>
