<?xml version="1.0" encoding="UTF-8" standalone="no"?>
<svg xmlns="http://www.w3.org/2000/svg" xmlns:svg="http://www.w3.org/2000/svg" width="24" height="24" viewBox="0 0 24 24" fill="currentColor" tags="disabled" categories="connectivity,devices">
  <path d="M 2 1 A 1 1 0 0 0 1.2929688 1.2929688 A 1 1 0 0 0 1.2929688 2.7070312 L 4.4707031 5.8847656 C 3.3428727 6.4860758 2.2894509 7.2197168 1.3339844 8.0742188 A 1 1 0 0 0 1.2539062 9.4863281 A 1 1 0 0 0 2.6660156 9.5644531 C 3.6544582 8.6804597 4.7628566 7.9424136 5.9570312 7.3710938 L 8.2480469 9.6621094 C 6.7769478 10.196349 5.4285436 11.038987 4.3007812 12.144531 A 1 1 0 0 0 4.2851562 13.558594 A 1 1 0 0 0 5.6992188 13.572266 C 6.852067 12.442129 8.2860828 11.646226 9.8476562 11.261719 L 12.625 14.039062 C 12.417157 14.017535 12.208794 14.005859 12 14.005859 C 10.481279 14.005859 8.96334 14.575308 7.8007812 15.714844 A 1 1 0 0 0 7.7851562 17.128906 A 1 1 0 0 0 9.1992188 17.142578 C 10.762536 15.61022 13.237464 15.61022 14.800781 17.142578 A 1 1 0 0 0 15.916016 17.330078 L 21.292969 22.707031 A 1 1 0 0 0 22.707031 22.707031 A 1 1 0 0 0 22.707031 21.292969 L 6.8789062 5.4648438 L 2.7070312 1.2929688 A 1 1 0 0 0 2 1 z M 11.861328 4.0019531 C 11.450834 4.0055731 11.038978 4.0250292 10.626953 4.0605469 A 1 1 0 0 0 9.7148438 5.1425781 A 1 1 0 0 0 10.798828 6.0527344 C 14.645258 5.7211612 18.456331 6.9907248 21.333984 9.5644531 A 1 1 0 0 0 22.746094 9.4863281 A 1 1 0 0 0 22.666016 8.0742188 C 19.686262 5.4091719 15.829441 3.9669599 11.861328 4.0019531 z M 16.927734 10.337891 A 1 1 0 0 0 16.734375 10.371094 A 1 1 0 0 0 16.126953 10.835938 A 1 1 0 0 0 16.494141 12.203125 C 17.151621 12.582047 17.758875 13.041041 18.300781 13.572266 A 1 1 0 0 0 19.714844 13.558594 A 1 1 0 0 0 19.699219 12.144531 C 19.036896 11.495257 18.295772 10.931876 17.492188 10.46875 A 1 1 0 0 0 16.927734 10.337891 z M 12 19 A 1 1 0 0 0 11 20 A 1 1 0 0 0 12 21 L 12.009766 21 A 1 1 0 0 0 13.009766 20 A 1 1 0 0 0 12.009766 19 L 12 19 z "/>
</svg>
