<?xml version="1.0" encoding="UTF-8" standalone="no"?>
<svg xmlns="http://www.w3.org/2000/svg" xmlns:svg="http://www.w3.org/2000/svg" width="24" height="24" viewBox="0 0 24 24" fill="currentColor" tags="connection,signal,wireless,synchronize,reconnect,reset,restart" categories="connectivity,devices">
  <path d="M 12 4.0039062 C 8.1835317 4.0039063 4.3677145 5.3607679 1.3339844 8.0742188 A 1 1 0 0 0 1.2539062 9.4863281 A 1 1 0 0 0 2.6660156 9.5644531 C 7.9865815 4.8055943 16.013418 4.8055943 21.333984 9.5644531 A 1 1 0 0 0 22.746094 9.4863281 A 1 1 0 0 0 22.666016 8.0742188 C 19.632286 5.3607679 15.816468 4.0039062 12 4.0039062 z M 11.964844 9.1054688 A 1 1 0 0 0 10.964844 10.105469 L 10.964844 14.105469 A 1.0001 1.0001 0 0 0 10.972656 14.236328 A 1 1 0 0 0 11.041016 14.488281 A 1.0001 1.0001 0 0 0 11.041016 14.490234 A 1 1 0 0 0 11.099609 14.605469 A 1.0001 1.0001 0 0 0 11.099609 14.607422 A 1.0001 1.0001 0 0 0 11.148438 14.679688 A 1 1 0 0 0 11.171875 14.714844 A 1.0001 1.0001 0 0 0 11.173828 14.716797 A 1 1 0 0 0 11.259766 14.814453 A 1.0001 1.0001 0 0 0 11.261719 14.816406 A 1.0001 1.0001 0 0 0 11.289062 14.839844 A 1 1 0 0 0 11.464844 14.970703 A 1.0001 1.0001 0 0 0 11.509766 14.994141 A 1 1 0 0 0 11.716797 15.074219 A 1 1 0 0 0 11.964844 15.105469 A 1.0001 1.0001 0 0 0 11.974609 15.105469 L 15.964844 15.105469 A 1 1 0 0 0 16.964844 14.105469 A 1 1 0 0 0 15.964844 13.105469 L 14.318359 13.105469 C 16.326797 11.322811 19.449054 11.955563 20.59375 14.421875 A 1 1 0 0 0 21.921875 14.90625 A 1 1 0 0 0 22.40625 13.578125 C 20.71205 9.928023 15.926518 9.0173649 12.964844 11.689453 L 12.964844 10.105469 A 1 1 0 0 0 11.964844 9.1054688 z M 7.9785156 9.828125 A 1 1 0 0 0 7.5976562 9.9121094 C 6.3707315 10.450007 5.2535348 11.20669 4.2988281 12.146484 A 1 1 0 0 0 4.2871094 13.560547 A 1 1 0 0 0 5.7011719 13.572266 C 6.4823067 12.803331 7.3984822 12.184245 8.4023438 11.744141 A 1 1 0 0 0 8.9160156 10.425781 A 1 1 0 0 0 8.3632812 9.8964844 A 1 1 0 0 0 7.9785156 9.828125 z M 8.5 15.429688 A 1 1 0 0 0 7.5 16.429688 A 1 1 0 0 0 8.5 17.429688 L 8.5097656 17.429688 A 1 1 0 0 0 9.5097656 16.429688 A 1 1 0 0 0 8.5097656 15.429688 L 8.5 15.429688 z M 17.964844 17.105469 A 1 1 0 0 0 16.964844 18.105469 A 1 1 0 0 0 17.964844 19.105469 L 19.535156 19.105469 C 17.52512 20.825066 14.471574 20.231649 13.337891 17.789062 A 1 1 0 0 0 12.009766 17.302734 A 1 1 0 0 0 11.523438 18.630859 C 13.214296 22.273911 18.001812 23.230922 20.964844 20.578125 L 20.964844 22.105469 A 1 1 0 0 0 21.964844 23.105469 A 1 1 0 0 0 22.964844 22.105469 L 22.964844 18.115234 A 1.0001 1.0001 0 0 0 22.957031 17.984375 A 1 1 0 0 0 22.933594 17.855469 A 1.0001 1.0001 0 0 0 22.910156 17.787109 A 1 1 0 0 0 22.892578 17.730469 A 1.0001 1.0001 0 0 0 22.888672 17.722656 A 1 1 0 0 0 22.833984 17.611328 A 1.0001 1.0001 0 0 0 22.830078 17.605469 A 1 1 0 0 0 22.761719 17.501953 A 1.0001 1.0001 0 0 0 22.699219 17.429688 A 1 1 0 0 0 22.675781 17.402344 A 1.0001 1.0001 0 0 0 22.673828 17.400391 A 1.0001 1.0001 0 0 0 22.671875 17.398438 A 1.0001 1.0001 0 0 0 22.574219 17.3125 A 1.0001 1.0001 0 0 0 22.521484 17.277344 A 1 1 0 0 0 22.46875 17.242188 A 1.0001 1.0001 0 0 0 22.347656 17.181641 A 1 1 0 0 0 22.095703 17.113281 A 1.0001 1.0001 0 0 0 21.964844 17.105469 L 17.964844 17.105469 z "/>
</svg>
