<?xml version="1.0" encoding="UTF-8" standalone="no"?>
<svg xmlns="http://www.w3.org/2000/svg" xmlns:svg="http://www.w3.org/2000/svg" width="24" height="24" viewBox="0 0 24 24" fill="currentColor" tags="connection,signal,wireless,directory,settings,control,preferences,cog,edit,gear" categories="connectivity,devices,files">
  <path d="M 12 3.0039062 C 8.1835317 3.0039062 4.3677145 4.3607681 1.3339844 7.0742188 A 1 1 0 0 0 1.2539062 8.4863281 A 1 1 0 0 0 2.6660156 8.5644531 C 7.9865815 3.8055943 16.013418 3.8055943 21.333984 8.5644531 A 1 1 0 0 0 22.746094 8.4863281 A 1 1 0 0 0 22.666016 7.0742188 C 19.632286 4.3607681 15.816468 3.0039062 12 3.0039062 z M 12.410156 8.0097656 C 9.4557106 7.9006332 6.5055911 8.9849582 4.3007812 11.144531 A 1 1 0 0 0 4.2851562 12.558594 A 1 1 0 0 0 5.6992188 12.572266 C 8.4529173 9.8750671 12.607088 9.2312364 16.048828 10.966797 A 1 1 0 0 0 17.392578 10.523438 A 1 1 0 0 0 16.951172 9.1796875 C 15.901379 8.6503104 14.794124 8.3031315 13.673828 8.1308594 C 13.253717 8.0662573 12.83222 8.025356 12.410156 8.0097656 z M 10.955078 13.119141 A 1 1 0 0 0 10.695312 13.142578 C 9.6023983 13.386093 8.60033 13.930955 7.8007812 14.714844 A 1 1 0 0 0 7.7851562 16.128906 A 1 1 0 0 0 9.1992188 16.142578 C 9.7323332 15.619905 10.402138 15.258071 11.130859 15.095703 A 1 1 0 0 0 11.888672 13.902344 A 1 1 0 0 0 10.955078 13.119141 z M 16.46875 13.304688 A 1 1 0 0 0 16.085938 13.380859 A 1 1 0 0 0 15.544922 14.6875 L 15.595703 14.810547 C 15.299259 15.03502 15.03502 15.299259 14.810547 15.595703 L 14.6875 15.544922 A 1 1 0 0 0 13.380859 16.085938 A 1 1 0 0 0 13.921875 17.392578 L 14.039062 17.441406 C 14.013153 17.624122 14 17.810512 14 18 C 14 18.188931 14.013302 18.374439 14.039062 18.556641 L 13.921875 18.605469 A 1 1 0 0 0 13.380859 19.912109 A 1 1 0 0 0 14.6875 20.453125 L 14.808594 20.402344 C 15.033276 20.69931 15.298829 20.964654 15.595703 21.189453 L 15.544922 21.3125 A 1 1 0 0 0 16.085938 22.619141 A 1 1 0 0 0 17.392578 22.078125 L 17.441406 21.960938 C 17.624122 21.986847 17.810512 22 18 22 C 18.188931 22 18.374439 21.986698 18.556641 21.960938 L 18.605469 22.078125 A 1 1 0 0 0 19.912109 22.621094 A 1 1 0 0 0 20.455078 21.314453 L 20.404297 21.189453 C 20.70099 20.96488 20.964825 20.700946 21.189453 20.404297 L 21.3125 20.455078 A 1 1 0 0 0 22.619141 19.914062 A 1 1 0 0 0 22.078125 18.607422 L 21.960938 18.558594 C 21.986847 18.375878 22 18.189488 22 18 C 22 17.810512 21.986847 17.624122 21.960938 17.441406 L 22.078125 17.392578 A 1 1 0 0 0 22.619141 16.085938 A 1 1 0 0 0 21.3125 15.544922 L 21.189453 15.595703 C 20.96498 15.299259 20.700741 15.03502 20.404297 14.810547 L 20.455078 14.6875 A 1 1 0 0 0 19.914062 13.380859 A 1 1 0 0 0 19.148438 13.380859 A 1 1 0 0 0 18.607422 13.921875 L 18.558594 14.039062 C 18.375878 14.013153 18.189488 14 18 14 C 17.810512 14 17.624122 14.013153 17.441406 14.039062 L 17.392578 13.921875 A 1 1 0 0 0 16.46875 13.304688 z M 18 16 C 18.248407 16 18.484941 16.044679 18.703125 16.125 A 1 1 0 0 0 18.765625 16.152344 A 1 1 0 0 0 18.835938 16.179688 C 19.272849 16.37762 19.62238 16.727151 19.820312 17.164062 A 1 1 0 0 0 19.847656 17.234375 A 1 1 0 0 0 19.875 17.296875 C 19.955321 17.515059 20 17.751593 20 18 C 20 18.248407 19.955321 18.48494 19.875 18.703125 A 1 1 0 0 0 19.847656 18.765625 A 1 1 0 0 0 19.820312 18.835938 C 19.622309 19.273008 19.273071 19.624372 18.835938 19.822266 A 1 1 0 0 0 18.765625 19.847656 A 1 1 0 0 0 18.703125 19.875 C 18.484941 19.955321 18.248407 20 18 20 C 17.751593 20 17.515059 19.955321 17.296875 19.875 A 1 1 0 0 0 17.234375 19.847656 A 1 1 0 0 0 17.164062 19.820312 C 16.72715 19.62238 16.37762 19.27285 16.179688 18.835938 A 1 1 0 0 0 16.152344 18.765625 A 1 1 0 0 0 16.125 18.703125 C 16.044679 18.484941 16 18.248407 16 18 C 16 17.751593 16.044679 17.515059 16.125 17.296875 A 1 1 0 0 0 16.152344 17.234375 A 1 1 0 0 0 16.179688 17.164062 C 16.37762 16.727151 16.727151 16.37762 17.164062 16.179688 A 1 1 0 0 0 17.234375 16.152344 A 1 1 0 0 0 17.296875 16.125 C 17.515059 16.044679 17.751593 16 18 16 z "/>
</svg>
