<?xml version="1.0" encoding="UTF-8" standalone="no"?>
<svg xmlns="http://www.w3.org/2000/svg" xmlns:svg="http://www.w3.org/2000/svg" width="24" height="24" viewBox="0 0 24 24" fill="currentColor" tags="connection,signal,wireless" categories="connectivity,devices">
  <path d="M 12 4.0039062 C 8.1835394 4.0039063 4.3677084 5.3607734 1.3339844 8.0742188 A 1 1 0 0 0 1.2539062 9.4863281 A 1 1 0 0 0 2.6660156 9.5644531 C 7.9865709 4.8056039 16.01343 4.8056039 21.333984 9.5644531 A 1 1 0 0 0 22.746094 9.4863281 A 1 1 0 0 0 22.666016 8.0742188 C 19.632293 5.3607734 15.81646 4.0039062 12 4.0039062 z M 12 9.0058594 C 9.2173394 9.0058594 6.4354446 10.052143 4.3007812 12.144531 A 1 1 0 0 0 4.2851562 13.558594 A 1 1 0 0 0 5.6992188 13.572266 C 9.2067469 10.1342 14.793254 10.1342 18.300781 13.572266 A 1 1 0 0 0 19.714844 13.558594 A 1 1 0 0 0 19.699219 12.144531 C 17.56456 10.052143 14.78266 9.0058594 12 9.0058594 z M 12 14.005859 C 10.481283 14.005859 8.9633378 14.57531 7.8007812 15.714844 A 1 1 0 0 0 7.7851562 17.128906 A 1 1 0 0 0 9.1992188 17.142578 C 10.762533 15.610224 13.237467 15.610224 14.800781 17.142578 A 1 1 0 0 0 16.214844 17.128906 A 1 1 0 0 0 16.199219 15.714844 C 15.036667 14.57531 13.518717 14.005859 12 14.005859 z M 12 19 A 1 1 0 0 0 11 20 A 1 1 0 0 0 12 21 L 12.009766 21 A 1 1 0 0 0 13.009766 20 A 1 1 0 0 0 12.009766 19 L 12 19 z "/>
</svg>
