<?xml version="1.0" encoding="UTF-8" standalone="no"?>
<svg xmlns="http://www.w3.org/2000/svg" xmlns:svg="http://www.w3.org/2000/svg" width="24" height="24" viewBox="0 0 24 24" fill="currentColor" tags="edit,wifi,pen,change,network" categories="connectivity,devices">
  <path d="M 12 4.0039062 C 8.1835317 4.0039063 4.3677145 5.3607679 1.3339844 8.0742188 A 1 1 0 0 0 1.2539062 9.4863281 A 1 1 0 0 0 2.6660156 9.5644531 C 7.9865815 4.8055943 16.013418 4.8055943 21.333984 9.5644531 A 1 1 0 0 0 22.746094 9.4863281 A 1 1 0 0 0 22.666016 8.0742188 C 19.632286 5.3607679 15.816468 4.0039062 12 4.0039062 z M 11.628906 9.0097656 C 8.9290071 9.101353 6.3010018 10.185573 4.3007812 12.144531 A 1 1 0 0 0 4.2851562 13.558594 A 1 1 0 0 0 5.6992188 13.574219 C 8.196074 11.12887 11.876979 10.349969 15.150391 11.574219 A 1 1 0 0 0 16.4375 10.986328 A 1 1 0 0 0 15.849609 9.7011719 C 14.850631 9.3275561 13.821061 9.1053686 12.789062 9.03125 C 12.402063 9.0034555 12.014606 8.9966817 11.628906 9.0097656 z M 19.724609 11.966797 C 19.006341 12.00498 18.258778 12.321299 17.666016 12.914062 A 1.0001 1.0001 0 0 0 17.666016 12.916016 L 13.65625 16.927734 C 13.300268 17.283925 13.039597 17.723619 12.898438 18.207031 A 1.0001 1.0001 0 0 0 12.898438 18.208984 L 12.060547 21.078125 C 11.743862 22.163902 12.836098 23.254185 13.921875 22.9375 L 16.791016 22.101562 C 17.274974 21.960244 17.715862 21.698397 18.072266 21.341797 L 22.083984 17.333984 A 1.0001 1.0001 0 0 0 22.085938 17.333984 C 22.763382 16.656541 23.080694 15.778047 23.033203 14.970703 C 22.985713 14.163359 22.618573 13.446697 22.085938 12.914062 C 21.553303 12.381427 20.836641 12.014288 20.029297 11.966797 C 19.928379 11.960861 19.827219 11.961342 19.724609 11.966797 z M 19.816406 13.960938 C 19.848419 13.960153 19.880038 13.961004 19.912109 13.962891 C 20.168682 13.977981 20.451557 14.111713 20.669922 14.330078 C 20.888287 14.548443 21.022017 14.831318 21.037109 15.087891 C 21.052199 15.344463 20.993809 15.594079 20.669922 15.917969 L 16.658203 19.927734 C 16.539363 20.04664 16.391841 20.134519 16.230469 20.181641 L 14.236328 20.763672 L 14.818359 18.767578 C 14.865479 18.606206 14.951406 18.460637 15.070312 18.341797 L 19.082031 14.330078 C 19.365435 14.046674 19.592317 13.966431 19.816406 13.960938 z M 11.53125 14.023438 A 1 1 0 0 0 11.400391 14.027344 C 10.043698 14.164253 8.7720812 14.759785 7.7988281 15.714844 A 1 1 0 0 0 7.7871094 17.128906 A 1 1 0 0 0 9.2011719 17.142578 C 9.8502229 16.505661 10.694847 16.108881 11.599609 16.017578 A 1 1 0 0 0 12.494141 14.921875 A 1 1 0 0 0 11.53125 14.023438 z "/>
</svg>
