<?xml version="1.0" encoding="UTF-8" standalone="no"?>
<svg xmlns="http://www.w3.org/2000/svg" xmlns:svg="http://www.w3.org/2000/svg" width="24" height="24" viewBox="0 0 24 24" fill="currentColor" tags="disabled" categories="connectivity,devices">
  <path d="M 2 1 A 1 1 0 0 0 1.2929688 1.2929688 A 1 1 0 0 0 1.2929688 2.7070312 L 4.4648438 5.8789062 C 3.3379278 6.4825228 2.2861219 7.2196639 1.3320312 8.0761719 A 1 1 0 0 0 1.2558594 9.4882812 A 1 1 0 0 0 2.6679688 9.5644531 C 3.653527 8.6796959 4.7596119 7.9387756 5.9511719 7.3652344 L 8.3203125 9.734375 C 6.8134768 10.280833 5.4366459 11.149237 4.2929688 12.292969 A 1 1 0 0 0 4.2929688 13.707031 A 1 1 0 0 0 5.7070312 13.707031 C 6.8702773 12.54373 8.3288041 11.725938 9.9199219 11.333984 L 12.705078 14.119141 C 12.470793 14.091719 12.235647 14.076172 12 14.076172 C 10.481283 14.076172 8.9633378 14.645623 7.8007812 15.785156 A 1 1 0 0 0 7.7851562 17.199219 A 1 1 0 0 0 9.1992188 17.214844 C 10.762533 15.682489 13.237467 15.682489 14.800781 17.214844 A 1 1 0 0 0 15.966797 17.380859 L 21.292969 22.707031 A 1 1 0 0 0 22.707031 22.707031 A 1 1 0 0 0 22.707031 21.292969 L 2.7070312 1.2929688 A 1 1 0 0 0 2 1 z M 11.775391 3.9414062 C 11.372985 3.9470203 10.971362 3.9679018 10.570312 4.0039062 A 1 1 0 0 0 9.6640625 5.0898438 A 1 1 0 0 0 10.75 5.9960938 C 14.492119 5.6601429 18.343936 6.8335036 21.333984 9.5058594 A 1 1 0 0 0 22.746094 9.4257812 A 1 1 0 0 0 22.666016 8.0136719 C 19.57576 5.2517545 15.665314 3.8871369 11.775391 3.9414062 z M 16.769531 10.253906 A 1 1 0 0 0 16.576172 10.289062 A 1 1 0 0 0 15.976562 10.763672 A 1 1 0 0 0 16.363281 12.123047 C 17.096525 12.53142 17.769087 13.040069 18.361328 13.634766 A 1 1 0 0 0 19.775391 13.638672 A 1 1 0 0 0 19.779297 12.224609 C 19.05545 11.497762 18.23212 10.876074 17.335938 10.376953 A 1 1 0 0 0 16.769531 10.253906 z M 12 19 A 1 1 0 0 0 11 20 A 1 1 0 0 0 12 21 L 12.009766 21 A 1 1 0 0 0 13.009766 20 A 1 1 0 0 0 12.009766 19 L 12 19 z "/>
</svg>
