<?xml version="1.0" encoding="UTF-8" standalone="no"?>
<svg xmlns="http://www.w3.org/2000/svg" xmlns:svg="http://www.w3.org/2000/svg" width="24" height="24" viewBox="0 0 24 24" fill="currentColor" tags="connection,signal,wireless" categories="connectivity,devices">
  <path d="M 12 14.005859 C 10.481283 14.005859 8.9633378 14.57531 7.8007812 15.714844 A 1 1 0 0 0 7.7851562 17.128906 A 1 1 0 0 0 9.1992188 17.142578 C 10.762533 15.610224 13.237467 15.610224 14.800781 17.142578 A 1 1 0 0 0 16.214844 17.128906 A 1 1 0 0 0 16.199219 15.714844 C 15.036667 14.57531 13.518717 14.005859 12 14.005859 z M 12 19 A 1 1 0 0 0 11 20 A 1 1 0 0 0 12 21 L 12.009766 21 A 1 1 0 0 0 13.009766 20 A 1 1 0 0 0 12.009766 19 L 12 19 z "/>
</svg>
