<?xml version="1.0" encoding="UTF-8" standalone="no"?>
<svg xmlns="http://www.w3.org/2000/svg" xmlns:svg="http://www.w3.org/2000/svg" width="24" height="24" viewBox="0 0 24 24" fill="currentColor" tags="disabled" categories="connectivity,devices">
  <path d="M 2 1 A 1 1 0 0 0 1.2929688 1.2929688 A 1 1 0 0 0 1.2929688 2.7070312 L 4.4707031 5.8847656 C 3.3431331 6.4860077 2.2892562 7.219891 1.3339844 8.0742188 A 1 1 0 0 0 1.2539062 9.4863281 A 1 1 0 0 0 2.6660156 9.5644531 C 3.6544663 8.6804524 4.7628454 7.9424156 5.9570312 7.3710938 L 8.2460938 9.6601562 C 6.7750943 10.1944 5.4284782 11.039051 4.3007812 12.144531 A 1 1 0 0 0 4.2851562 13.558594 A 1 1 0 0 0 5.6992188 13.572266 C 6.8520379 12.442158 8.2861287 11.646237 9.8476562 11.261719 L 12.623047 14.037109 C 12.415693 14.015684 12.208298 14.005859 12 14.005859 C 10.481279 14.005859 8.96334 14.575308 7.8007812 15.714844 A 1 1 0 0 0 7.7851562 17.128906 A 1 1 0 0 0 9.1992188 17.142578 C 10.762536 15.61022 13.237464 15.61022 14.800781 17.142578 A 1 1 0 0 0 15.921875 17.335938 L 21.292969 22.707031 A 1 1 0 0 0 22.707031 22.707031 A 1 1 0 0 0 22.707031 21.292969 L 10.896484 9.4824219 A 1 1 0 0 0 10.855469 9.4414062 L 6.8925781 5.4785156 A 1 1 0 0 0 6.8710938 5.4570312 L 2.7070312 1.2929688 A 1 1 0 0 0 2 1 z M 12.271484 4.0039062 C 11.725341 3.994723 11.176319 4.01319 10.626953 4.0605469 A 1 1 0 0 0 9.7148438 5.1425781 A 1 1 0 0 0 10.798828 6.0527344 C 14.645258 5.7211612 18.456331 6.9907248 21.333984 9.5644531 A 1 1 0 0 0 22.746094 9.4863281 A 1 1 0 0 0 22.666016 8.0742188 C 19.789012 5.50107 16.094487 4.0681891 12.271484 4.0039062 z M 16.992188 10.335938 A 1 1 0 0 0 16.734375 10.371094 A 1 1 0 0 0 16.126953 10.835938 A 1 1 0 0 0 16.494141 12.203125 C 17.151621 12.582047 17.758875 13.041041 18.300781 13.572266 A 1 1 0 0 0 19.714844 13.558594 A 1 1 0 0 0 19.699219 12.144531 C 19.036896 11.495257 18.295772 10.931876 17.492188 10.46875 A 1 1 0 0 0 16.992188 10.335938 z M 12 19 A 1 1 0 0 0 11 20 A 1 1 0 0 0 12 21 L 12.009766 21 A 1 1 0 0 0 13.009766 20 A 1 1 0 0 0 12.009766 19 L 12 19 z "/>
</svg>
