<?xml version="1.0" encoding="UTF-8" standalone="no"?>
<svg xmlns="http://www.w3.org/2000/svg" xmlns:svg="http://www.w3.org/2000/svg" width="24" height="24" viewBox="0 0 24 24" fill="currentColor" tags="weather,air,pressure,blow" categories="weather,sustainability">
  <path d="M 10 1 A 1 1 0 0 0 9 2 L 9 7.5859375 L 6.7070312 5.2929688 A 1 1 0 0 0 6 5 A 1 1 0 0 0 5.2929688 5.2929688 A 1 1 0 0 0 5.2929688 6.7070312 L 9.2929688 10.707031 A 1 1 0 0 0 9.5 10.865234 A 1 1 0 0 0 10 11 A 1 1 0 0 0 10.5 10.865234 A 1 1 0 0 0 10.707031 10.707031 L 14.707031 6.7070312 A 1 1 0 0 0 14.707031 5.2929688 A 1 1 0 0 0 13.292969 5.2929688 L 11 7.5859375 L 11 2 A 1 1 0 0 0 10 1 z M 19.380859 8.0273438 C 18.372361 8.0560177 17.371231 8.5043738 16.699219 9.4003906 A 1 1 0 0 0 16.900391 10.800781 A 1 1 0 0 0 18.300781 10.599609 C 18.994925 9.674085 20.324426 9.7953369 20.841797 10.830078 C 21.359168 11.864819 20.656906 13 19.5 13 L 2 13 A 1 1 0 0 0 1 14 A 1 1 0 0 0 2 15 L 19.5 15 C 22.060048 15 23.775732 12.225292 22.630859 9.9355469 C 22.058423 8.7906744 20.960006 8.144493 19.8125 8.0410156 C 19.669062 8.028081 19.524931 8.0232475 19.380859 8.0273438 z M 2 17 A 1 1 0 0 0 1 18 A 1 1 0 0 0 2 19 L 14 19 C 14.711998 19 15.17437 19.640953 14.949219 20.316406 C 14.724068 20.99186 13.969989 21.22798 13.400391 20.800781 A 1 1 0 0 0 12 21 A 1 1 0 0 0 12.199219 22.400391 C 13.813817 23.611339 16.207481 22.863885 16.845703 20.949219 C 17.483925 19.034553 16.018247 17 14 17 L 2 17 z "/>
</svg>
