<svg xmlns="http://www.w3.org/2000/svg" xmlns:svg="http://www.w3.org/2000/svg" width="24" height="24" viewBox="0 0 24 24" fill="currentColor" tags="weather,air,blow" categories="weather,sustainability">
  <path d="M 11.039062 3.0136719 C 10.865592 3.0097525 10.690599 3.020518 10.517578 3.046875 C 10.056188 3.1171603 9.6028681 3.2968723 9.1992188 3.5996094 A 1 1 0 0 0 9 5 A 1 1 0 0 0 10.400391 5.1992188 C 10.969989 4.7720201 11.724068 5.0081403 11.949219 5.6835938 C 12.17437 6.3590473 11.711998 7 11 7 L 2 7 A 1 1 0 0 0 1 8 A 1 1 0 0 0 2 9 L 11 9 C 13.018247 9 14.483925 6.9654474 13.845703 5.0507812 C 13.42687 3.7942816 12.253358 3.0411077 11.039062 3.0136719 z M 19.380859 6.0273438 C 18.372361 6.0560177 17.371231 6.5043738 16.699219 7.4003906 A 1 1 0 0 0 16.900391 8.8007812 A 1 1 0 0 0 18.300781 8.5996094 C 18.994925 7.6740846 20.324426 7.7953368 20.841797 8.8300781 C 21.359168 9.8648194 20.656906 11 19.5 11 L 2 11 A 1 1 0 0 0 1 12 A 1 1 0 0 0 2 13 L 19.5 13 C 22.060048 13 23.775732 10.225292 22.630859 7.9355469 C 22.058423 6.7906744 20.960006 6.144493 19.8125 6.0410156 C 19.669062 6.028081 19.524931 6.0232475 19.380859 6.0273438 z M 2 15 A 1 1 0 0 0 1 16 A 1 1 0 0 0 2 17 L 14 17 C 14.711998 17 15.17437 17.640953 14.949219 18.316406 C 14.724068 18.99186 13.969989 19.22798 13.400391 18.800781 A 1 1 0 0 0 12 19 A 1 1 0 0 0 12.199219 20.400391 C 13.813817 21.611339 16.207481 20.863885 16.845703 18.949219 C 17.483925 17.034553 16.018247 15 14 15 L 2 15 z "/>
</svg>
