<?xml version="1.0" encoding="UTF-8" standalone="no"?>
<svg xmlns="http://www.w3.org/2000/svg" xmlns:svg="http://www.w3.org/2000/svg" width="24" height="24" viewBox="0 0 24 24" fill="currentColor" tags="alcohol,beverage,bar,drink,glass,sommelier,vineyard,winery" categories="food-beverage">
  <path d="M 9 1 A 1.0001 1.0001 0 0 0 8.0644531 1.6484375 C 6.5829312 5.5991627 6.0322943 7.7412997 6.0097656 9.8632812 A 1 1 0 0 0 6 10 C 6 12.961344 8.1703169 15.436871 11 15.916016 L 11 21 L 8 21 A 1 1 0 0 0 7 22 A 1 1 0 0 0 8 23 L 16 23 A 1 1 0 0 0 17 22 A 1 1 0 0 0 16 21 L 13 21 L 13 15.916016 C 15.829683 15.436871 18 12.961344 18 10 C 18 9.9571204 17.992623 9.9120224 17.992188 9.8691406 A 1 1 0 0 0 17.990234 9.8632812 C 17.967706 7.7412997 17.417068 5.5991627 15.935547 1.6484375 A 1.0001 1.0001 0 0 0 15 1 L 9 1 z M 9.7207031 3 L 14.279297 3 C 15.291756 5.7707517 15.793318 7.5268423 15.947266 9 L 8.0527344 9 C 8.2066822 7.5268423 8.7082438 5.7707517 9.7207031 3 z M 8.125 11 L 15.875 11 C 15.434717 12.731729 13.87526 14 12 14 C 10.12474 14 8.5652833 12.731729 8.125 11 z "/>
</svg>
