<?xml version="1.0" encoding="UTF-8" standalone="no"?>
<svg xmlns="http://www.w3.org/2000/svg" xmlns:svg="http://www.w3.org/2000/svg" width="24" height="24" viewBox="0 0 24 24" fill="currentColor" tags="alcohol,beverage,drink,glass,alcohol free,abstinence,abstaining,teetotalism,allergy,intolerance" categories="food-beverage">
  <path d="M 2 1 A 1 1 0 0 0 1.2929688 1.2929688 A 1 1 0 0 0 1.2929688 2.7070312 L 6.21875 7.6328125 C 6.0755178 8.411942 6.0026765 9.2028688 6 9.9960938 A 1 1 0 0 0 6 10 C 6.000217 13.076414 8.288508 15.412986 11 15.900391 L 11 21 L 8 21 A 1 1 0 0 0 7 22 A 1 1 0 0 0 8 23 L 16 23 A 1 1 0 0 0 17 22 A 1 1 0 0 0 16 21 L 13 21 L 13 15.916016 C 13.394781 15.850772 13.789107 15.743764 14.177734 15.591797 L 21.292969 22.707031 A 1 1 0 0 0 22.707031 22.707031 A 1 1 0 0 0 22.707031 21.292969 L 15.121094 13.707031 A 1 1 0 0 0 15.076172 13.662109 L 10.716797 9.3027344 A 1 1 0 0 0 10.697266 9.2832031 L 7.9863281 6.5742188 L 2.7070312 1.2929688 A 1 1 0 0 0 2 1 z M 9 1 A 1.0001 1.0001 0 0 0 8.0644531 1.6484375 C 7.9355562 1.99082 7.8122126 2.3232954 7.6972656 2.6445312 A 1 1 0 0 0 8.3007812 3.921875 A 1 1 0 0 0 9.5800781 3.3183594 C 9.6159934 3.217989 9.6590864 3.1042256 9.6972656 3 L 14.279297 3 C 15.291756 5.7707517 15.793318 7.5268423 15.947266 9 L 15.65625 9 A 1 1 0 0 0 14.65625 10 A 1 1 0 0 0 15.65625 11 L 15.875 11 A 1 1 0 0 0 16.617188 12.169922 A 1 1 0 0 0 17.826172 11.435547 C 17.929287 11.01332 17.982222 10.573852 17.992188 10.130859 A 1 1 0 0 0 18 10 C 18 9.9571204 17.992623 9.9120224 17.992188 9.8691406 A 1 1 0 0 0 17.990234 9.8632812 C 17.967706 7.7412997 17.417068 5.5991627 15.935547 1.6484375 A 1.0001 1.0001 0 0 0 15 1 L 9 1 z M 8.1191406 11 L 9.5859375 11 L 12.560547 13.974609 C 12.430971 13.99456 12.302565 14.008659 12.173828 14.015625 A 1 1 0 0 0 12 14 A 1 1 0 0 0 11.810547 14.017578 C 10.090962 13.951976 8.5491366 12.760675 8.1191406 11 z "/>
</svg>
