<?xml version="1.0" encoding="UTF-8" standalone="no"?>
<svg xmlns="http://www.w3.org/2000/svg" xmlns:svg="http://www.w3.org/2000/svg" width="24" height="24" viewBox="0 0 24 24" fill="currentColor" tags="alcohol,beverage,bar,drink,glass,sommelier,vineyard,winery" categories="food-beverage">
  
  <path d="M 9 1 A 1.0001 1.0001 0 0 0 8.0644531 1.6484375 C 6.5516297 5.6826333 6 7.8333377 6 10 C 6 12.960902 8.1709326 15.434401 11 15.914062 L 11 21 L 8 21 A 1 1 0 0 0 7 22 A 1 1 0 0 0 8 23 L 16 23 A 1 1 0 0 0 17 22 A 1 1 0 0 0 16 21 L 13 21 L 13 15.914062 C 15.829068 15.434401 18 12.960902 18 10 C 18 7.8333377 17.44837 5.6826333 15.935547 1.6484375 A 1.0001 1.0001 0 0 0 15 1 L 9 1 z M 9.7207031 3 L 14.279297 3 C 15.291899 5.7711444 15.793395 7.5267131 15.947266 9 L 8.0527344 9 C 8.2066046 7.5267131 8.7081004 5.7711444 9.7207031 3 z M 8.125 11 L 15.875 11 C 15.434729 12.731745 13.875269 14 12 14 C 10.12473 14 8.5652706 12.731745 8.125 11 z "/>
</svg>
