<?xml version="1.0" encoding="UTF-8" standalone="no"?>
<svg xmlns="http://www.w3.org/2000/svg" xmlns:svg="http://www.w3.org/2000/svg" width="24" height="24" viewBox="0 0 24 24" fill="currentColor" tags="alcohol,beverage,drink,glass,alcohol free,abstinence,abstaining,teetotalism,allergy,intolerance" categories="food-beverage">
  <path d="M 2 1 A 1 1 0 0 0 1.2929688 1.2929688 A 1 1 0 0 0 1.2929688 2.7070312 L 6.2207031 7.6347656 C 6.0775435 8.4137007 6.0026758 9.2030725 6 9.9960938 A 1 1 0 0 0 6 10 C 6.0001568 13.076229 8.2887555 15.410771 11 15.898438 L 11 21 L 8 21 A 1 1 0 0 0 7 22 A 1 1 0 0 0 8 23 L 16 23 A 1 1 0 0 0 17 22 A 1 1 0 0 0 16 21 L 13 21 L 13 15.916016 C 13.394472 15.850857 13.787445 15.741585 14.175781 15.589844 L 21.292969 22.707031 A 1 1 0 0 0 22.707031 22.707031 A 1 1 0 0 0 22.707031 21.292969 L 15.078125 13.664062 L 10.707031 9.2929688 L 8.0429688 6.6308594 L 2.7070312 1.2929688 A 1 1 0 0 0 2 1 z M 9 1 A 1.0001 1.0001 0 0 0 8.0644531 1.6484375 C 7.9355562 1.99082 7.8122126 2.3232954 7.6972656 2.6445312 A 1 1 0 0 0 8.3007812 3.921875 A 1 1 0 0 0 9.5800781 3.3183594 C 9.6159934 3.217989 9.6590864 3.1042256 9.6972656 3 L 14.279297 3 C 15.291901 5.77115 15.793395 7.5267119 15.947266 9 L 15.65625 9 A 1 1 0 0 0 14.65625 10 A 1 1 0 0 0 15.65625 11 L 15.878906 11 A 1 1 0 0 0 16.617188 12.169922 A 1 1 0 0 0 17.826172 11.435547 C 17.939657 10.970856 18 10.4889 18 10 C 18 7.8333333 17.448373 5.6826413 15.935547 1.6484375 A 1.0001 1.0001 0 0 0 15 1 L 9 1 z M 8.1210938 11 L 9.5859375 11 L 12.558594 13.972656 C 12.425355 13.993116 12.292493 14.006933 12.160156 14.013672 A 1 1 0 0 0 12 14 A 1 1 0 0 0 11.847656 14.019531 C 10.113581 13.969678 8.5544363 12.772787 8.1210938 11 z "/>
</svg>
