<?xml version="1.0" encoding="UTF-8" standalone="no"?>
<svg xmlns="http://www.w3.org/2000/svg" xmlns:svg="http://www.w3.org/2000/svg" width="24" height="24" viewBox="0 0 24 24" fill="currentColor" tags="action,continuous integration,ci,automation,devops,network,node,connection" categories="development">
  <path d="M 5 2 C 3.3552972 2 2 3.3552972 2 5 L 2 9 C 2 10.644703 3.3552972 12 5 12 L 6 12 L 6 15 C 6 16.64501 7.3549904 18 9 18 L 12 18 L 12 19 C 12 20.644703 13.355297 22 15 22 L 19 22 C 20.644703 22 22 20.644703 22 19 L 22 15 C 22 13.355297 20.644703 12 19 12 L 15 12 C 13.355297 12 12 13.355297 12 15 L 12 16 L 9 16 C 8.4358706 16 8 15.564129 8 15 L 8 12 L 9 12 C 10.644703 12 12 10.644703 12 9 L 12 5 C 12 3.3552972 10.644703 2 9 2 L 5 2 z M 5 4 L 9 4 C 9.5712972 4 10 4.4287028 10 5 L 10 9 C 10 9.5712972 9.5712972 10 9 10 L 5 10 C 4.4287028 10 4 9.5712972 4 9 L 4 5 C 4 4.4287028 4.4287028 4 5 4 z M 15 14 L 19 14 C 19.571297 14 20 14.428703 20 15 L 20 19 C 20 19.571297 19.571297 20 19 20 L 15 20 C 14.428703 20 14 19.571297 14 19 L 14 17 L 14 15 C 14 14.428703 14.428703 14 15 14 z "/>
</svg>
