<?xml version="1.0" encoding="UTF-8" standalone="no"?>
<svg xmlns="http://www.w3.org/2000/svg" xmlns:svg="http://www.w3.org/2000/svg" width="24" height="24" viewBox="0 0 24 24" fill="currentColor" tags="invertebrate,grub,larva,snake,crawl,wiggle,slither,pest control,computer virus,malware" categories="animals,security">
  <path d="M 7.4550781 1.9394531 C 6.1170849 1.9209659 4.7317624 2.2605718 3.4257812 3.0429688 L 3.4433594 3.03125 L 2.7441406 3.4316406 A 1.0001 1.0001 0 0 0 2.734375 3.4375 C 1.7954964 3.9891452 1.2054675 4.85025 1.0292969 5.7402344 C 0.85312623 6.6302188 1.0510981 7.5178571 1.4824219 8.2519531 C 1.9137456 8.9860493 2.5938392 9.5898416 3.4570312 9.8691406 C 4.3202232 10.14844 5.3579964 10.053598 6.296875 9.5019531 A 1.0001 1.0001 0 0 0 6.3066406 9.4960938 L 6.9609375 9.1015625 C 7.2639538 8.9303945 7.5069083 8.9925929 7.71875 9.1601562 C 7.9305917 9.3277195 8.0460103 9.548524 7.9492188 9.8828125 L 7.3164062 11.941406 C 6.2441594 15.369806 7.6332374 18.629066 10.046875 20.451172 C 12.460513 22.273278 15.975039 22.716567 18.978516 20.746094 L 19.390625 20.480469 A 1.0001 1.0001 0 0 0 19.394531 20.478516 C 19.584396 20.355397 19.754236 20.216257 19.912109 20.070312 L 21.550781 20.894531 A 1 1 0 0 0 22.894531 20.449219 A 1 1 0 0 0 22.449219 19.105469 L 20.939453 18.347656 C 20.958147 18.268192 20.978056 18.189224 20.990234 18.109375 C 21.126723 17.214481 20.891844 16.3377 20.429688 15.625 C 20.073011 15.07496 19.570195 14.611173 18.958984 14.316406 L 19.894531 12.447266 A 1 1 0 0 0 19.447266 11.105469 A 1 1 0 0 0 18.105469 11.552734 L 16.849609 14.066406 C 16.41783 14.156737 15.98506 14.326651 15.576172 14.591797 L 15.164062 14.855469 C 14.825821 15.070378 14.543434 15.006875 14.296875 14.820312 C 14.050316 14.633753 13.912475 14.380018 14.027344 13.996094 L 14.662109 11.933594 C 15.715876 8.6172375 14.423726 5.4319413 12.115234 3.6054688 C 10.96099 2.6922324 9.5360572 2.1049521 8.0253906 1.96875 C 7.8365573 1.9517247 7.64622 1.9420942 7.4550781 1.9394531 z M 7.453125 3.9199219 C 7.5931981 3.9220874 7.73299 3.9303498 7.8710938 3.9433594 C 8.975924 4.0474363 10.012351 4.4913026 10.875 5.1738281 C 12.600297 6.5388792 13.561752 8.7979565 12.757812 11.328125 A 1.0001 1.0001 0 0 0 12.753906 11.335938 L 12.113281 13.416016 A 1.0001 1.0001 0 0 0 12.111328 13.423828 C 11.75918 14.600805 12.248443 15.779365 13.089844 16.416016 C 13.931245 17.052665 15.199401 17.203757 16.236328 16.544922 A 1.0001 1.0001 0 0 0 16.240234 16.541016 L 16.660156 16.271484 A 1.0001 1.0001 0 0 0 16.664062 16.269531 C 16.933595 16.094752 17.163474 16.013197 17.373047 15.988281 A 1 1 0 0 0 17.642578 15.988281 C 17.715995 15.99651 17.788782 16.007893 17.859375 16.027344 C 18.200194 16.121254 18.529656 16.375046 18.75 16.714844 C 18.970344 17.05464 19.066974 17.459115 19.013672 17.808594 C 18.998831 17.905904 18.974102 18.001912 18.9375 18.095703 A 1 1 0 0 0 18.736328 18.361328 A 1 1 0 0 0 18.689453 18.482422 C 18.591524 18.588781 18.469349 18.694264 18.308594 18.798828 L 18.306641 18.798828 L 18.306641 18.800781 L 17.888672 19.068359 A 1.0001 1.0001 0 0 0 17.880859 19.074219 C 15.576349 20.586161 13.065035 20.224202 11.251953 18.855469 C 9.4388714 17.486734 8.4018637 15.169707 9.2246094 12.539062 A 1.0001 1.0001 0 0 0 9.2265625 12.533203 L 9.8652344 10.453125 A 1.0001 1.0001 0 0 0 9.8710938 10.4375 C 10.192973 9.3258782 9.7441353 8.2108853 8.9589844 7.5898438 C 8.1738335 6.9688023 6.9861877 6.7901607 5.9785156 7.359375 A 1.0001 1.0001 0 0 0 5.953125 7.3730469 L 5.2832031 7.7773438 C 4.7754186 8.0756965 4.4105293 8.0762473 4.0722656 7.9667969 C 3.734002 7.8573465 3.4132061 7.589183 3.2070312 7.2382812 C 3.0008563 6.8873796 2.9231506 6.4776692 2.9921875 6.1289062 C 3.0612244 5.7801434 3.2383092 5.460462 3.7460938 5.1621094 L 4.4355469 4.7675781 A 1.0001 1.0001 0 0 0 4.453125 4.7578125 C 5.4494903 4.1609066 6.4726132 3.9047634 7.453125 3.9199219 z "/>
</svg>
