<?xml version="1.0" encoding="UTF-8" standalone="no"?>
<svg xmlns="http://www.w3.org/2000/svg" xmlns:svg="http://www.w3.org/2000/svg" width="24" height="24" viewBox="0 0 24 24" fill="currentColor" tags="invertebrate,grub,larva,snake,crawl,wiggle,slither,pest control,computer virus,malware" categories="animals,security">
  <path d="M 6.8789062 1.953125 C 5.7226453 2.0265246 4.5451959 2.3723415 3.4257812 3.0429688 L 3.4433594 3.03125 L 2.7441406 3.4316406 A 1.0001 1.0001 0 0 0 2.734375 3.4375 C 1.7954945 3.9891464 1.2054678 4.8502482 1.0292969 5.7402344 C 0.85312588 6.6302205 1.0510973 7.5178555 1.4824219 8.2519531 C 1.9137465 8.9860507 2.5938375 9.5898411 3.4570312 9.8691406 C 4.3202249 10.14844 5.3579945 10.053599 6.296875 9.5019531 A 1.0001 1.0001 0 0 0 6.3066406 9.4960938 L 6.9609375 9.1015625 C 7.2639544 8.9303941 7.5069079 8.9925926 7.71875 9.1601562 C 7.9305921 9.3277198 8.0460105 9.5485233 7.9492188 9.8828125 L 7.3164062 11.941406 C 6.2441572 15.369813 7.6332325 18.629062 10.046875 20.451172 C 12.460517 22.273282 15.975033 22.716571 18.978516 20.746094 L 19.390625 20.480469 A 1.0001 1.0001 0 0 0 19.394531 20.478516 C 19.584679 20.355213 19.759908 20.218458 19.917969 20.072266 L 21.550781 20.894531 A 1 1 0 0 0 22.894531 20.449219 A 1 1 0 0 0 22.449219 19.105469 L 20.943359 18.349609 C 20.962236 18.269573 20.977967 18.189803 20.990234 18.109375 C 21.126723 17.214479 20.891845 16.337702 20.429688 15.625 C 20.07306 15.075036 19.572033 14.609227 18.960938 14.314453 L 19.894531 12.447266 A 1 1 0 0 0 19.447266 11.105469 A 1 1 0 0 0 18.105469 11.552734 L 16.851562 14.060547 C 16.419264 14.150783 15.985554 14.326331 15.576172 14.591797 L 15.164062 14.855469 C 14.825821 15.070378 14.543434 15.006875 14.296875 14.820312 C 14.050316 14.633752 13.912474 14.380019 14.027344 13.996094 L 14.662109 11.933594 C 15.715878 8.6172308 14.42373 5.431945 12.115234 3.6054688 C 10.960986 2.6922305 9.5360602 2.1049523 8.0253906 1.96875 C 7.6477232 1.9346994 7.2643266 1.9286585 6.8789062 1.953125 z M 7.453125 3.9199219 C 7.5931983 3.9220874 7.7329897 3.9303497 7.8710938 3.9433594 C 8.9759263 4.0474365 10.01235 4.4913012 10.875 5.1738281 C 12.600301 6.5388819 13.561754 8.7979515 12.757812 11.328125 A 1.0001 1.0001 0 0 0 12.753906 11.335938 L 12.113281 13.416016 A 1.0001 1.0001 0 0 0 12.111328 13.423828 C 11.75918 14.600808 12.248441 15.779365 13.089844 16.416016 C 13.931247 17.052666 15.199399 17.203759 16.236328 16.544922 A 1.0001 1.0001 0 0 0 16.240234 16.541016 L 16.660156 16.271484 A 1.0001 1.0001 0 0 0 16.664062 16.269531 C 16.923218 16.101481 17.146515 16.016668 17.349609 15.988281 A 1 1 0 0 0 17.662109 15.986328 C 17.72932 15.994841 17.794485 16.009464 17.859375 16.027344 C 18.200195 16.121254 18.529656 16.375046 18.75 16.714844 C 18.970344 17.054642 19.066974 17.459115 19.013672 17.808594 C 18.999451 17.901838 18.97738 17.993988 18.943359 18.083984 A 1 1 0 0 0 18.736328 18.361328 A 1 1 0 0 0 18.681641 18.496094 C 18.585492 18.598123 18.462948 18.698428 18.308594 18.798828 L 18.306641 18.798828 L 18.306641 18.800781 L 17.888672 19.068359 A 1.0001 1.0001 0 0 0 17.880859 19.074219 C 15.576257 20.586185 13.065039 20.224205 11.251953 18.855469 C 9.4389538 17.486711 8.4018621 15.169712 9.2246094 12.539062 A 1.0001 1.0001 0 0 0 9.2265625 12.533203 L 9.8652344 10.453125 A 1.0001 1.0001 0 0 0 9.8710938 10.4375 C 10.192974 9.325876 9.7441369 8.2108866 8.9589844 7.5898438 C 8.1738319 6.968801 6.9861897 6.7901596 5.9785156 7.359375 A 1.0001 1.0001 0 0 0 5.953125 7.3730469 L 5.2832031 7.7773438 C 4.7754176 8.075697 4.41053 8.0762475 4.0722656 7.9667969 C 3.7340013 7.8573463 3.4132066 7.5891838 3.2070312 7.2382812 C 3.0008558 6.8873788 2.9231504 6.4776699 2.9921875 6.1289062 C 3.0612246 5.7801426 3.2383082 5.4604626 3.7460938 5.1621094 L 4.4355469 4.7675781 A 1.0001 1.0001 0 0 0 4.453125 4.7578125 C 5.4494922 4.1609053 6.4726119 3.9047632 7.453125 3.9199219 z "/>
</svg>
