<?xml version="1.0" encoding="UTF-8" standalone="no"?>
<svg xmlns="http://www.w3.org/2000/svg" xmlns:svg="http://www.w3.org/2000/svg" width="24" height="24" viewBox="0 0 24 24" fill="currentColor" tags="words,lines,break,paragraph" categories="text,arrows">
  <path d="M 3 5 A 1 1 0 0 0 2 6 A 1 1 0 0 0 3 7 L 21 7 A 1 1 0 0 0 22 6 A 1 1 0 0 0 21 5 L 3 5 z M 3 11 A 1 1 0 0 0 2 12 A 1 1 0 0 0 3 13 L 18 13 C 18.749999 13 19.185226 13.245244 19.501953 13.601562 C 19.81868 13.95788 20 14.472222 20 15 C 20 15.527778 19.81868 16.04212 19.501953 16.398438 C 19.185226 16.754756 18.749999 17 18 17 L 16.414062 17 L 16.707031 16.707031 A 1 1 0 0 0 16.707031 15.292969 A 1 1 0 0 0 15.292969 15.292969 L 13.292969 17.292969 A 1.0001 1.0001 0 0 0 13.25 17.341797 A 1 1 0 0 0 13.212891 17.384766 A 1.0001 1.0001 0 0 0 13.175781 17.439453 A 1 1 0 0 0 13.138672 17.492188 A 1.0001 1.0001 0 0 0 13.134766 17.5 A 1 1 0 0 0 13.078125 17.611328 A 1.0001 1.0001 0 0 0 13.076172 17.617188 A 1 1 0 0 0 13.023438 17.794922 A 1.0001 1.0001 0 0 0 13.035156 18.257812 A 1 1 0 0 0 13.078125 18.388672 A 1.0001 1.0001 0 0 0 13.134766 18.5 A 1 1 0 0 0 13.175781 18.560547 A 1.0001 1.0001 0 0 0 13.212891 18.615234 A 1 1 0 0 0 13.25 18.658203 A 1.0001 1.0001 0 0 0 13.292969 18.707031 A 1 1 0 0 0 13.302734 18.716797 L 15.292969 20.707031 A 1 1 0 0 0 16.707031 20.707031 A 1 1 0 0 0 16.707031 19.292969 L 16.414062 19 L 18 19 C 19.25 19 20.314774 18.495244 20.998047 17.726562 C 21.681319 16.957881 22 15.972222 22 15 C 22 14.027778 21.681319 13.042119 20.998047 12.273438 C 20.314774 11.504755 19.25 11 18 11 L 3 11 z M 3 17 A 1 1 0 0 0 2 18 A 1 1 0 0 0 3 19 L 10 19 A 1 1 0 0 0 11 18 A 1 1 0 0 0 10 17 L 3 17 z "/>
</svg>
