<svg xmlns="http://www.w3.org/2000/svg" xmlns:svg="http://www.w3.org/2000/svg" width="24" height="24" viewBox="0 0 24 24" fill="currentColor" tags="account,settings,spanner,diy,toolbox,build,construction" categories="account,development,tools">
  <path d="M 15.777344 0.99609375 C 11.306605 1.1404116 7.9454633 5.7101484 9.4179688 10.169922 L 1.9140625 17.673828 C 1.2380949 18.350241 0.91951564 19.22518 0.96679688 20.03125 C 1.0141066 20.837805 1.3820789 21.553777 1.9140625 22.085938 C 2.4460461 22.618098 3.1602574 22.985625 3.9667969 23.033203 C 4.7733363 23.080783 5.6493659 22.764471 6.3261719 22.087891 L 13.830078 14.583984 C 18.960819 16.277744 24.23863 11.548442 22.753906 6.1484375 C 22.597564 5.5777893 22.097319 5.1498899 21.578125 5.0410156 C 21.058931 4.9321413 20.494222 5.0911905 20.097656 5.4902344 L 17 8.5859375 L 15.414062 7 L 18.513672 3.9023438 A 1.0001 1.0001 0 0 0 18.515625 3.9003906 C 18.911528 3.5032035 19.070086 2.9407559 18.960938 2.421875 C 18.851789 1.9029941 18.421528 1.4022488 17.851562 1.2460938 C 17.145946 1.0522947 16.449441 0.97439809 15.777344 0.99609375 z M 15.714844 3.1738281 C 15.938984 3.1642665 16.16704 3.1695348 16.398438 3.1894531 L 13.992188 5.5917969 A 1.0001 1.0001 0 0 0 13.986328 5.5996094 C 13.231829 6.3693529 13.231829 7.6306471 13.986328 8.4003906 A 1.0001 1.0001 0 0 0 13.992188 8.40625 L 15.59375 10.007812 A 1.0001 1.0001 0 0 0 15.599609 10.013672 C 16.369353 10.768171 17.630647 10.768171 18.400391 10.013672 A 1.0001 1.0001 0 0 0 18.40625 10.007812 L 20.810547 7.6035156 C 21.127701 11.304884 17.553317 14.193098 13.941406 12.558594 A 1.0001 1.0001 0 0 0 12.822266 12.763672 L 4.9121094 20.671875 C 4.5889158 20.994961 4.3417103 21.052198 4.0859375 21.037109 C 3.8301647 21.022021 3.5458914 20.889714 3.328125 20.671875 C 3.1103586 20.454036 2.9778937 20.16984 2.9628906 19.914062 C 2.9478876 19.658285 3.0049315 19.410976 3.328125 19.087891 L 11.238281 11.177734 A 1.0001 1.0001 0 0 0 11.441406 10.058594 C 9.9087804 6.6718123 12.352739 3.3172528 15.714844 3.1738281 z "/>
</svg>
