<?xml version="1.0" encoding="UTF-8" standalone="no"?>
<svg xmlns="http://www.w3.org/2000/svg" xmlns:svg="http://www.w3.org/2000/svg" width="24" height="24" viewBox="0 0 24 24" fill="currentColor" tags="account,settings,spanner,diy,toolbox,build,construction" categories="account,development,tools,home">
  <path d="M 15.896484 0.984375 C 14.031476 1.0088492 12.295781 1.7979694 11.046875 3.046875 C 9.3006771 4.7930729 8.5369994 7.4928195 9.421875 10.164062 L 2.9121094 16.673828 C 2.2353342 17.350603 1.9173946 18.226569 1.9648438 19.033203 C 2.0122927 19.839837 2.3799756 20.555756 2.9121094 21.087891 C 3.444243 21.620024 4.1601626 21.987707 4.9667969 22.035156 C 5.7734312 22.082606 6.6493967 21.764666 7.3261719 21.087891 L 13.835938 14.578125 C 16.50718 15.463 19.206927 14.699323 20.953125 12.953125 C 22.856219 11.050031 23.691842 8.014258 22.380859 5.1171875 A 1.0001 1.0001 0 0 0 20.763672 4.8222656 L 17 8.5859375 L 15.414062 7 L 15.417969 6.9980469 L 19.177734 3.2363281 A 1.0001 1.0001 0 0 0 18.882812 1.6191406 C 18.158545 1.2913952 17.424837 1.0977716 16.703125 1.0214844 C 16.432483 0.99287666 16.162914 0.98087869 15.896484 0.984375 z M 15.896484 2.96875 C 16.086126 2.9667508 16.278526 2.9765009 16.472656 2.9980469 C 16.502006 3.0013069 16.53306 3.0196235 16.5625 3.0234375 L 14.001953 5.5820312 L 13.992188 5.59375 A 1.0001 1.0001 0 0 0 13.986328 5.5996094 C 13.23183 6.3693513 13.23183 7.6306487 13.986328 8.4003906 A 1.0001 1.0001 0 0 0 13.992188 8.40625 L 15.59375 10.007812 A 1.0001 1.0001 0 0 0 15.599609 10.013672 C 16.369352 10.76817 17.630648 10.76817 18.400391 10.013672 A 1.0001 1.0001 0 0 0 18.40625 10.007812 L 20.976562 7.4375 C 21.182183 9.0247081 20.591192 10.486933 19.539062 11.539062 C 18.162244 12.915881 16.086191 13.529151 13.941406 12.558594 A 1.0001 1.0001 0 0 0 12.822266 12.763672 L 5.9121094 19.673828 C 5.588887 19.997051 5.3418008 20.05216 5.0859375 20.037109 C 4.8300742 20.022059 4.5440367 19.891693 4.3261719 19.673828 C 4.1083071 19.455963 3.9779415 19.169926 3.9628906 18.914062 C 3.9478398 18.6582 4.0029495 18.411112 4.3261719 18.087891 L 11.236328 11.177734 A 1.0001 1.0001 0 0 0 11.441406 10.058594 C 10.470849 7.9138093 11.084118 5.8377565 12.460938 4.4609375 C 13.364475 3.5574 14.568993 2.9827446 15.896484 2.96875 z "/>
</svg>
