<?xml version="1.0" encoding="UTF-8" standalone="no"?>
<svg xmlns="http://www.w3.org/2000/svg" xmlns:svg="http://www.w3.org/2000/svg" width="24" height="24" viewBox="0 0 24 24" fill="currentColor" tags="account,settings,spanner,diy,toolbox,build,construction" categories="account,development,tools">
  <path d="M 15.896484 0.984375 C 14.031473 1.0088488 12.295783 1.7979669 11.046875 3.046875 C 9.3006737 4.7930763 8.5369976 7.4928141 9.421875 10.164062 L 2.9121094 16.673828 C 2.2353328 17.350605 1.9173944 18.226567 1.9648438 19.033203 C 2.0122927 19.839839 2.3799746 20.555756 2.9121094 21.087891 C 3.4442441 21.620025 4.160161 21.987707 4.9667969 22.035156 C 5.7734328 22.082606 6.6493953 21.764667 7.3261719 21.087891 L 13.835938 14.578125 C 16.507185 15.463002 19.206924 14.699326 20.953125 12.953125 C 22.856223 11.050027 23.691844 8.0142638 22.380859 5.1171875 A 1.0001 1.0001 0 0 0 20.763672 4.8222656 L 17 8.5859375 L 15.414062 7 L 15.417969 6.9980469 L 19.177734 3.2363281 A 1.0001 1.0001 0 0 0 18.882812 1.6191406 C 18.158544 1.2913945 17.424839 1.0977718 16.703125 1.0214844 C 16.432482 0.9928766 16.162915 0.98087874 15.896484 0.984375 z M 15.896484 2.96875 C 16.086126 2.9667508 16.278526 2.9765009 16.472656 2.9980469 C 16.502006 3.0013069 16.53306 3.0196235 16.5625 3.0234375 L 14.001953 5.5820312 L 13.992188 5.59375 A 1.0001 1.0001 0 0 0 13.986328 5.5996094 C 13.231829 6.3693529 13.231829 7.6306471 13.986328 8.4003906 A 1.0001 1.0001 0 0 0 13.992188 8.40625 L 15.59375 10.007812 A 1.0001 1.0001 0 0 0 15.599609 10.013672 C 16.369353 10.768171 17.630647 10.768171 18.400391 10.013672 A 1.0001 1.0001 0 0 0 18.40625 10.007812 L 20.976562 7.4375 C 21.182185 9.0247113 20.591195 10.486931 19.539062 11.539062 C 18.162242 12.915883 16.086195 13.529153 13.941406 12.558594 A 1.0001 1.0001 0 0 0 12.822266 12.763672 L 5.9121094 19.673828 C 5.5888864 19.997051 5.3418014 20.05216 5.0859375 20.037109 C 4.8300736 20.022059 4.5440371 19.891693 4.3261719 19.673828 C 4.1083066 19.455963 3.9779415 19.169926 3.9628906 18.914062 C 3.9478398 18.658199 4.0029489 18.411114 4.3261719 18.087891 L 11.236328 11.177734 A 1.0001 1.0001 0 0 0 11.441406 10.058594 C 10.470847 7.9138051 11.084116 5.8377593 12.460938 4.4609375 C 13.364476 3.5573982 14.568991 2.9827443 15.896484 2.96875 z "/>
</svg>
