<?xml version="1.0" encoding="UTF-8" standalone="no"?>
<svg xmlns="http://www.w3.org/2000/svg" xmlns:svg="http://www.w3.org/2000/svg" width="24" height="24" viewBox="0 0 24 24" fill="currentColor" tags="logo,social,video,play" categories="account,multimedia,social,text,brands">
  <path d="M 12 3.9335938 C 9.2362028 3.9335938 6.4721553 4.1600481 3.7363281 4.6132812 A 1.0001 1.0001 0 0 0 3.6347656 4.6347656 C 2.6145456 4.9144771 1.8148678 5.7161081 1.5351562 6.7363281 A 1.0001 1.0001 0 0 0 1.5214844 6.7929688 C 0.79394996 10.226359 0.79394996 13.773642 1.5214844 17.207031 A 1 1 0 0 0 1.5546875 17.228516 A 1 1 0 0 0 1.5351562 17.263672 C 1.8148678 18.283892 2.6145456 19.085524 3.6347656 19.365234 A 1.0001 1.0001 0 0 0 3.7363281 19.386719 C 9.2079891 20.293374 14.79201 20.293374 20.263672 19.386719 A 1.0001 1.0001 0 0 0 20.365234 19.365234 C 21.385454 19.085524 22.185132 18.283892 22.464844 17.263672 A 1.0001 1.0001 0 0 0 22.478516 17.207031 C 23.20605 13.773642 23.20605 10.226359 22.478516 6.7929688 A 1.0001 1.0001 0 0 0 22.464844 6.7363281 C 22.185132 5.7161081 21.385454 4.9144771 20.365234 4.6347656 A 1.0001 1.0001 0 0 0 20.263672 4.6132812 C 17.527845 4.1600481 14.763797 3.9335938 12 3.9335938 z M 12 5.9335938 C 14.625059 5.9335938 17.250525 6.1524115 19.849609 6.578125 C 20.178141 6.6754419 20.432773 6.9260411 20.527344 7.2558594 C 21.183364 10.384735 21.183364 13.615265 20.527344 16.744141 C 20.432774 17.073958 20.178141 17.324558 19.849609 17.421875 C 14.651475 18.273472 9.3485254 18.273472 4.1503906 17.421875 C 3.8218597 17.324555 3.5672273 17.073958 3.4726562 16.744141 C 2.8166352 13.615265 2.8166352 10.384735 3.4726562 7.2558594 C 3.5672273 6.9260411 3.8218597 6.6754415 4.1503906 6.578125 C 6.7494758 6.1524115 9.3749411 5.9335937 12 5.9335938 z M 10.011719 8.0019531 A 1.0001 1.0001 0 0 0 9.5078125 8.1308594 A 1.0001 1.0001 0 0 0 9 9 L 9 15 A 1.0001 1.0001 0 0 0 10.513672 15.857422 L 15.513672 12.857422 A 1.0001 1.0001 0 0 0 15.513672 11.142578 L 10.513672 8.1425781 A 1.0001 1.0001 0 0 0 10.011719 8.0019531 z M 11 10.765625 L 13.056641 12 L 11 13.234375 L 11 10.765625 z "/>
</svg>
