<svg xmlns="http://www.w3.org/2000/svg" xmlns:svg="http://www.w3.org/2000/svg" width="24" height="24" viewBox="0 0 24 24" fill="currentColor" tags="logo,social,video,play" categories="multimedia,social,brands">
  <path d="M 12 3.9335938 C 9.2361972 3.9335938 6.4721608 4.1600471 3.7363281 4.6132812 A 1.0001 1.0001 0 0 0 3.6347656 4.6347656 C 2.6145436 4.9144777 1.8148684 5.7161061 1.5351562 6.7363281 A 1.0001 1.0001 0 0 0 1.5214844 6.7929688 C 0.79394851 10.226366 0.79394851 13.773634 1.5214844 17.207031 A 1 1 0 0 0 1.5546875 17.228516 A 1 1 0 0 0 1.5351562 17.263672 C 1.8148684 18.283894 2.6145436 19.085522 3.6347656 19.365234 A 1.0001 1.0001 0 0 0 3.7363281 19.386719 C 9.208 20.293376 14.792 20.293376 20.263672 19.386719 A 1.0001 1.0001 0 0 0 20.365234 19.365234 C 21.385456 19.085522 22.185132 18.283894 22.464844 17.263672 A 1.0001 1.0001 0 0 0 22.478516 17.207031 C 23.206051 13.773634 23.206051 10.226366 22.478516 6.7929688 A 1.0001 1.0001 0 0 0 22.464844 6.7363281 C 22.185132 5.7161061 21.385456 4.9144777 20.365234 4.6347656 A 1.0001 1.0001 0 0 0 20.263672 4.6132812 C 17.527839 4.1600471 14.763803 3.9335938 12 3.9335938 z M 12 5.9335938 C 14.625064 5.9335938 17.250519 6.1524107 19.849609 6.578125 C 20.178141 6.675442 20.432773 6.9260404 20.527344 7.2558594 C 21.183366 10.384741 21.183366 13.615259 20.527344 16.744141 C 20.432774 17.07396 20.178141 17.324558 19.849609 17.421875 C 14.651464 18.273474 9.3485358 18.273474 4.1503906 17.421875 C 3.821859 17.324555 3.5672274 17.07396 3.4726562 16.744141 C 2.8166339 13.615259 2.8166338 10.384741 3.4726562 7.2558594 C 3.5672274 6.9260404 3.821859 6.6754417 4.1503906 6.578125 C 6.749481 6.1524107 9.3749359 5.9335937 12 5.9335938 z M 10.011719 8.0019531 A 1.0001 1.0001 0 0 0 9.5078125 8.1308594 A 1.0001 1.0001 0 0 0 9 9 L 9 15 A 1.0001 1.0001 0 0 0 10.513672 15.857422 L 15.513672 12.857422 A 1.0001 1.0001 0 0 0 15.513672 11.142578 L 10.513672 8.1425781 A 1.0001 1.0001 0 0 0 10.011719 8.0019531 z M 11 10.765625 L 13.056641 12 L 11 13.234375 L 11 10.765625 z "/>
</svg>
