<?xml version="1.0" encoding="UTF-8" standalone="no"?>
<svg xmlns="http://www.w3.org/2000/svg" xmlns:svg="http://www.w3.org/2000/svg" width="24" height="24" viewBox="0 0 24 24" fill="currentColor" tags="flash,camera,lightning,electricity,energy" categories="connectivity,devices,photography,weather">
  <path d="M 2 1 A 1 1 0 0 0 1.2929688 1.2929688 A 1 1 0 0 0 1.2929688 2.7070312 L 6.3242188 7.7382812 L 2.5019531 11.673828 A 1.0001 1.0001 0 0 0 2.4433594 11.740234 C 1.4250444 12.995479 2.3847444 15.002159 4 15 L 11 15 A 1.0001 1.0001 0 0 0 11.003906 15 A 1.0001 1.0001 0 0 0 10.986328 15.046875 L 9.0664062 21.066406 A 1.0001 1.0001 0 0 0 9.0566406 21.105469 C 8.8662177 21.797773 9.2498488 22.534621 9.7949219 22.826172 C 10.339995 23.117723 11.166568 23.027057 11.636719 22.484375 L 11.597656 22.527344 L 16.283203 17.697266 L 21.292969 22.707031 A 1 1 0 0 0 22.707031 22.707031 A 1 1 0 0 0 22.707031 21.292969 L 16.96875 15.554688 L 8.4238281 7.0097656 L 2.7070312 1.2929688 A 1 1 0 0 0 2 1 z M 13.505859 1.0097656 C 13.422534 1.0103062 13.339208 1.0178174 13.255859 1.03125 C 12.922465 1.084981 12.598357 1.244284 12.363281 1.515625 L 12.402344 1.4726562 L 9.7949219 4.1601562 A 1 1 0 0 0 9.8164062 5.5742188 A 1 1 0 0 0 11.230469 5.5527344 L 12.373047 4.375 L 11.650391 6.6425781 A 1 1 0 0 0 12.298828 7.9003906 A 1 1 0 0 0 13.556641 7.25 L 14.933594 2.9335938 A 1.0001 1.0001 0 0 0 14.943359 2.8945312 C 15.133747 2.2022277 14.750151 1.4653788 14.205078 1.1738281 C 14.000676 1.0644967 13.755835 1.0081438 13.505859 1.0097656 z M 15.65625 9 A 1 1 0 0 0 14.65625 10 A 1 1 0 0 0 15.65625 11 L 19.998047 11 L 18.341797 12.707031 A 1 1 0 0 0 18.363281 14.121094 A 1 1 0 0 0 19.777344 14.099609 L 21.498047 12.326172 A 1.0001 1.0001 0 0 0 21.556641 12.259766 C 22.574964 11.004526 21.615256 8.9978414 20 9 L 15.65625 9 z M 7.7382812 9.1523438 L 11.732422 13.146484 C 11.505397 13.053079 11.258379 12.999147 10.996094 13 L 4.0019531 13 L 7.7382812 9.1523438 z M 12.837891 14.251953 L 14.869141 16.283203 L 11.626953 19.623047 L 12.892578 15.654297 L 12.876953 15.699219 C 13.060312 15.208497 13.025476 14.696541 12.837891 14.251953 z "/>
</svg>
