<?xml version="1.0" encoding="UTF-8" standalone="no"?>
<svg xmlns="http://www.w3.org/2000/svg" xmlns:svg="http://www.w3.org/2000/svg" width="24" height="24" viewBox="0 0 24 24" fill="currentColor" tags="flash,camera,lightning,electricity,energy" categories="connectivity,devices,photography,weather">
  <path d="M 13.505859 1.0097656 C 13.422534 1.0103062 13.339208 1.0178174 13.255859 1.03125 C 12.922466 1.0849799 12.598357 1.2442846 12.363281 1.515625 L 12.402344 1.4726562 L 2.5019531 11.673828 A 1.0001 1.0001 0 0 0 2.4433594 11.740234 C 1.4250495 12.995477 2.3847477 15.002159 4 15 L 4.0039062 15 L 11 15 A 1.0001 1.0001 0 0 0 11.003906 15 A 1.0001 1.0001 0 0 0 10.986328 15.046875 L 9.0664062 21.066406 A 1.0001 1.0001 0 0 0 9.0566406 21.105469 C 8.8662181 21.797771 9.2498499 22.534621 9.7949219 22.826172 C 10.339993 23.117722 11.166568 23.027055 11.636719 22.484375 L 11.597656 22.527344 L 21.498047 12.326172 A 1.0001 1.0001 0 0 0 21.556641 12.259766 C 22.574967 11.00453 21.615252 8.9978414 20 9 L 13 9 A 1.0001 1.0001 0 0 0 12.996094 9 A 1.0001 1.0001 0 0 0 13.013672 8.953125 L 14.933594 2.9335938 A 1.0001 1.0001 0 0 0 14.943359 2.8945312 C 15.133739 2.202229 14.750151 1.4653782 14.205078 1.1738281 C 14.000676 1.0644968 13.755835 1.0081438 13.505859 1.0097656 z M 12.373047 4.375 L 11.107422 8.3457031 L 11.123047 8.3007812 C 10.64506 9.5800557 11.638259 11.004441 13.003906 11 L 19.998047 11 L 11.626953 19.625 L 12.892578 15.654297 L 12.876953 15.699219 C 13.354945 14.419946 12.361741 12.995559 10.996094 13 L 4.0019531 13 L 12.373047 4.375 z "/>
</svg>
