<?xml version="1.0" encoding="UTF-8" standalone="no"?>
<svg xmlns="http://www.w3.org/2000/svg" xmlns:svg="http://www.w3.org/2000/svg" width="24" height="24" viewBox="0 0 24 24" fill="currentColor" tags="flash,camera,lightning,electricity,energy" categories="connectivity,devices,photography,weather">
  <path d="M 13.505859 1.0097656 C 13.422534 1.0103062 13.339208 1.0178174 13.255859 1.03125 C 12.940301 1.0821066 12.633644 1.2271597 12.402344 1.4726562 L 12.400391 1.4746094 C 12.398495 1.4766294 12.396416 1.4784353 12.394531 1.4804688 L 2.5019531 11.673828 A 1.0001 1.0001 0 0 0 2.4433594 11.740234 C 1.4250474 12.99548 2.3847444 15.002159 4 15 L 4.0039062 15 L 11 15 A 1.0001 1.0001 0 0 0 11.003906 15 A 1.0001 1.0001 0 0 0 10.986328 15.046875 L 9.0664062 21.066406 A 1.0001 1.0001 0 0 0 9.0566406 21.105469 C 8.8662177 21.797773 9.2498488 22.534621 9.7949219 22.826172 C 10.325349 23.109889 11.121947 23.031855 11.597656 22.527344 L 11.599609 22.525391 L 11.603516 22.521484 C 11.604133 22.520821 11.604852 22.520196 11.605469 22.519531 L 21.498047 12.326172 A 1.0001 1.0001 0 0 0 21.556641 12.259766 C 22.574969 11.004528 21.615256 8.9978414 20 9 L 13 9 A 1.0001 1.0001 0 0 0 12.996094 9 A 1.0001 1.0001 0 0 0 13.013672 8.953125 L 14.933594 2.9335938 A 1.0001 1.0001 0 0 0 14.943359 2.8945312 C 15.133739 2.2022277 14.750151 1.4653788 14.205078 1.1738281 C 14.000676 1.0644967 13.755835 1.0081438 13.505859 1.0097656 z M 12.373047 4.375 L 11.113281 8.328125 C 11.112795 8.3294909 11.111811 8.3306651 11.111328 8.3320312 L 11.107422 8.3457031 C 10.669801 9.6128759 11.654603 11.004388 13.003906 11 L 19.998047 11 L 11.626953 19.625 L 12.886719 15.669922 C 13.339585 14.398078 12.351624 12.995592 10.996094 13 L 4.0019531 13 L 12.373047 4.375 z "/>
</svg>
