<svg xmlns="http://www.w3.org/2000/svg" xmlns:svg="http://www.w3.org/2000/svg" width="24" height="24" viewBox="0 0 24 24" fill="currentColor" tags="magnifying glass,plus" categories="accessibility,layout,design,text,photography">
  <path d="M 11 2 C 6.0412819 2 2 6.0412819 2 11 C 2 15.958718 6.0412819 20 11 20 C 13.120309 20 15.07267 19.260902 16.613281 18.027344 L 20.292969 21.707031 A 1 1 0 0 0 21.707031 21.707031 A 1 1 0 0 0 21.707031 20.292969 L 18.027344 16.613281 C 19.260902 15.07267 20 13.120309 20 11 C 20 6.0412819 15.958718 2 11 2 z M 11 4 C 14.877838 4 18 7.1221621 18 11 C 18 12.879986 17.266336 14.582772 16.068359 15.837891 A 1 1 0 0 0 15.943359 15.943359 A 1 1 0 0 0 15.837891 16.068359 C 14.582772 17.266336 12.879986 18 11 18 C 7.1221621 18 4 14.877838 4 11 C 4 7.1221621 7.1221621 4 11 4 z M 11 7 A 1 1 0 0 0 10 8 L 10 10 L 8 10 A 1 1 0 0 0 7 11 A 1 1 0 0 0 8 12 L 10 12 L 10 14 A 1 1 0 0 0 11 15 A 1 1 0 0 0 12 14 L 12 12 L 14 12 A 1 1 0 0 0 15 11 A 1 1 0 0 0 14 10 L 12 10 L 12 8 A 1 1 0 0 0 11 7 z "/>
</svg>
