<?xml version="1.0" encoding="UTF-8" standalone="no"?>
<svg xmlns="http://www.w3.org/2000/svg" xmlns:svg="http://www.w3.org/2000/svg" width="24" height="24" viewBox="0 0 24 24" fill="currentColor" tags="letter,font size,text,formatting" categories="text,design">
  
  <path d="M 7.5 6 A 1.0001 1.0001 0 0 0 6.6054688 6.5527344 L 3.5996094 12.566406 L 2.1054688 15.552734 A 1 1 0 0 0 2.5527344 16.894531 A 1 1 0 0 0 3.8945312 16.447266 L 5.1171875 14 L 9.8828125 14 L 11.105469 16.447266 A 1 1 0 0 0 12.447266 16.894531 A 1 1 0 0 0 12.894531 15.552734 L 11.416016 12.597656 A 1 1 0 0 0 11.378906 12.523438 L 8.3945312 6.5527344 A 1.0001 1.0001 0 0 0 7.5 6 z M 18.5 9 C 17.65278 9 16.792119 9.2770151 16.117188 9.8769531 C 15.442257 10.476891 15 11.416669 15 12.5 L 15 16 A 1 1 0 0 0 16 17 A 1 1 0 0 0 17 16 L 17 15 L 20 15 L 20 16 A 1 1 0 0 0 21 17 A 1 1 0 0 0 22 16 L 22 12.5 C 22 11.416669 21.557744 10.476891 20.882812 9.8769531 C 20.207882 9.2770151 19.34722 9 18.5 9 z M 7.5 9.2363281 L 8.8828125 12 L 6.1171875 12 L 7.5 9.2363281 z M 18.5 11 C 18.902777 11 19.292121 11.139653 19.554688 11.373047 C 19.817255 11.60644 20 11.916669 20 12.5 L 20 13 L 17 13 L 17 12.5 C 17 11.916669 17.182746 11.60644 17.445312 11.373047 C 17.70788 11.139653 18.097223 11 18.5 11 z "/>
</svg>
