<?xml version="1.0" encoding="UTF-8" standalone="no"?>
<svg
   width="24"
   height="24"
   viewBox="0 0 24 24"
   fill="none"
   stroke="currentColor"
   stroke-width="2"
   stroke-linecap="round"
   stroke-linejoin="round"
   version="1.1"
   id="svg1"
   xmlns="http://www.w3.org/2000/svg"
   xmlns:svg="http://www.w3.org/2000/svg">
  <defs
     id="defs1" />
  <path
     id="path1"
     style="color:#000000;fill:#000000;-inkscape-stroke:none"
     d="M 9 2 A 1.0001 1.0001 0 0 0 8.0507812 2.6835938 L 5.2792969 11 L 2 11 A 1 1 0 0 0 1 12 A 1 1 0 0 0 2 13 L 6 13 A 1.0001 1.0001 0 0 0 6.9492188 12.316406 L 9 6.1640625 L 14.050781 21.316406 A 1.0001 1.0001 0 0 0 15.949219 21.316406 L 18.720703 13 L 22 13 A 1 1 0 0 0 23 12 A 1 1 0 0 0 22 11 L 18 11 A 1.0001 1.0001 0 0 0 17.050781 11.683594 L 15 17.835938 L 9.9492188 2.6835938 A 1.0001 1.0001 0 0 0 9 2 z "
     stroke-width="0" />
</svg>
