<?xml version="1.0" encoding="UTF-8" standalone="no"?>
<svg xmlns="http://www.w3.org/2000/svg" xmlns:svg="http://www.w3.org/2000/svg" width="24" height="24" viewBox="0 0 24 24" fill="currentColor" tags="fire,alert,warning,detector,carbon monoxide,safety,equipment,amenities" categories="home,devices,travel">
  
  <path d="M 2 2 A 1.0001 1.0001 0 0 0 1 3 L 1 6 C 1 7.6450064 2.3549936 9 4 9 L 4.2304688 9 L 4.8339844 11.257812 C 5.0507869 12.270962 5.9868142 13 7 13 L 17 13 C 18.013185 13 18.949212 12.270962 19.166016 11.257812 L 19.769531 9 L 20 9 C 21.645006 9 23 7.6450064 23 6 L 23 3 A 1.0001 1.0001 0 0 0 22 2 L 2 2 z M 3 4 L 21 4 L 21 6 C 21 6.5641282 20.564128 7 20 7 L 4 7 C 3.4358718 7 3 6.5641282 3 6 L 3 4 z M 6.3007812 9 L 17.699219 9 L 17.234375 10.742188 A 1.0001 1.0001 0 0 0 17.212891 10.835938 C 17.189902 10.973842 17.155555 11 17 11 L 7 11 C 6.8444448 11 6.8100936 10.973842 6.7871094 10.835938 A 1.0001 1.0001 0 0 0 6.765625 10.742188 L 6.3007812 9 z M 8 15 A 1 1 0 0 0 7 16 C 7 16.983331 6.718749 17.250002 6.21875 17.875 C 5.718751 18.499998 5 19.483337 5 21 A 1 1 0 0 0 6 22 A 1 1 0 0 0 7 21 C 7 20.016669 7.281251 19.749998 7.78125 19.125 C 8.281249 18.500002 9 17.516663 9 16 A 1 1 0 0 0 8 15 z M 13 15 A 1 1 0 0 0 12 16 C 12 16.983331 11.718749 17.250002 11.21875 17.875 C 10.718751 18.499998 10 19.483337 10 21 A 1 1 0 0 0 11 22 A 1 1 0 0 0 12 21 C 12 20.016669 12.281251 19.749998 12.78125 19.125 C 13.281249 18.500002 14 17.516663 14 16 A 1 1 0 0 0 13 15 z M 18 15 A 1 1 0 0 0 17 16 C 17 16.983331 16.718749 17.250002 16.21875 17.875 C 15.718751 18.499998 15 19.483337 15 21 A 1 1 0 0 0 16 22 A 1 1 0 0 0 17 21 C 17 20.016669 17.281251 19.749998 17.78125 19.125 C 18.28125 18.500002 19 17.516663 19 16 A 1 1 0 0 0 18 15 z "/>
</svg>
