<?xml version="1.0" encoding="UTF-8" standalone="no"?>
<svg
   width="24"
   height="24"
   viewBox="0 0 24 24"
   fill="none"
   stroke="currentColor"
   stroke-width="2"
   stroke-linecap="round"
   stroke-linejoin="round"
   version="1.1"
   id="svg6"
   xmlns="http://www.w3.org/2000/svg"
   xmlns:svg="http://www.w3.org/2000/svg">
  <defs
     id="defs6" />
  <path
     id="path1"
     style="color:#000000;fill:#000000;-inkscape-stroke:none"
     d="M 2 1 A 1 1 0 0 0 1.2929688 1.2929688 A 1 1 0 0 0 1.2929688 2.7070312 L 2.5859375 4 L 1.2929688 5.2929688 A 1 1 0 0 0 1.2929688 6.7070312 A 1 1 0 0 0 2.7070312 6.7070312 L 4 5.4140625 L 5.4316406 6.8457031 C 2.3542849 10.074358 2.1193575 15.142519 4.8964844 18.640625 L 3.28125 20.304688 A 1 1 0 0 0 3.3046875 21.71875 A 1 1 0 0 0 4.71875 21.695312 L 6.3046875 20.060547 C 9.8044691 22.883609 14.908844 22.661727 18.154297 19.568359 L 21.292969 22.707031 A 1 1 0 0 0 22.707031 22.707031 A 1 1 0 0 0 22.707031 21.292969 L 4.7070312 3.2929688 L 2.7070312 1.2929688 A 1 1 0 0 0 2 1 z M 18.888672 2.0058594 A 1 1 0 0 0 18.292969 2.2929688 A 1 1 0 0 0 18.292969 3.7070312 L 21.292969 6.7070312 A 1 1 0 0 0 22.707031 6.7070312 A 1 1 0 0 0 22.707031 5.2929688 L 19.707031 2.2929688 A 1 1 0 0 0 18.888672 2.0058594 z M 11.986328 4 C 11.528715 4.0011234 11.063098 4.0372064 10.59375 4.1113281 A 1 1 0 0 0 9.7617188 5.2558594 A 1 1 0 0 0 10.90625 6.0878906 C 15.629433 5.3419826 19.658018 9.3705669 18.912109 14.09375 A 1 1 0 0 0 19.744141 15.238281 A 1 1 0 0 0 20.888672 14.40625 C 21.718835 9.14955 17.81445 4.4836775 12.800781 4.0351562 C 12.532192 4.0111283 12.260896 3.999326 11.986328 4 z M 6.8457031 8.2597656 L 16.740234 18.154297 C 14.026873 20.71579 9.7248391 20.717675 7.0058594 18.003906 A 1 1 0 0 0 6.9570312 17.953125 A 1 1 0 0 0 6.9511719 17.949219 C 4.2823684 15.227943 4.2984055 10.95809 6.8457031 8.2597656 z "
     stroke-width="0" />
</svg>
