<?xml version="1.0" encoding="UTF-8" standalone="no"?>
<svg
   width="24"
   height="24"
   viewBox="0 0 24 24"
   fill="none"
   stroke="currentColor"
   stroke-width="2"
   stroke-linecap="round"
   stroke-linejoin="round"
   version="1.1"
   id="svg1"
   xmlns="http://www.w3.org/2000/svg"
   xmlns:svg="http://www.w3.org/2000/svg">
  <defs
     id="defs1" />
  <path
     id="rect1"
     style="color:#000000;fill:#000000;-inkscape-stroke:none"
     d="M 5 2 C 3.3553005 2 2 3.3553005 2 5 L 2 19 C 2 20.644699 3.3553005 22 5 22 L 19 22 C 20.644699 22 22 20.644699 22 19 L 22 5 C 22 3.3553005 20.644699 2 19 2 L 17 2 L 11 2 L 5 2 z M 5 4 L 10 4 L 10 11 A 1.0001 1.0001 0 0 0 11.707031 11.707031 L 14 9.4140625 L 16.292969 11.707031 A 1.0001 1.0001 0 0 0 18 11 L 18 4 L 19 4 C 19.571296 4 20 4.4287039 20 5 L 20 19 C 20 19.571296 19.571296 20 19 20 L 5 20 C 4.4287039 20 4 19.571296 4 19 L 4 5 C 4 4.4287039 4.4287039 4 5 4 z M 12 4 L 16 4 L 16 8.5859375 L 14.707031 7.2929688 A 1.0001 1.0001 0 0 0 13.292969 7.2929688 L 12 8.5859375 L 12 4 z "
     stroke-width="0" />
</svg>
