<?xml version="1.0" encoding="UTF-8" standalone="no"?>
<svg xmlns="http://www.w3.org/2000/svg" xmlns:svg="http://www.w3.org/2000/svg" width="24" height="24" viewBox="0 0 24 24" fill="currentColor" tags="warning,alert,danger,exclamation mark" categories="notifications,shapes">
  
  <path d="M 7.859375 1 A 1.0001 1.0001 0 0 0 7.1523438 1.2929688 L 1.2929688 7.1523438 A 1.0001 1.0001 0 0 0 1 7.859375 L 1 16.140625 A 1.0001 1.0001 0 0 0 1.2929688 16.847656 L 7.1523438 22.707031 A 1.0001 1.0001 0 0 0 7.859375 23 L 16.140625 23 A 1.0001 1.0001 0 0 0 16.847656 22.707031 L 22.707031 16.847656 A 1.0001 1.0001 0 0 0 23 16.140625 L 23 7.859375 A 1.0001 1.0001 0 0 0 22.707031 7.1523438 L 16.847656 1.2929688 A 1.0001 1.0001 0 0 0 16.140625 1 L 7.859375 1 z M 8.2734375 3 L 15.726562 3 L 21 8.2734375 L 21 15.726562 L 15.726562 21 L 8.2734375 21 L 3 15.726562 L 3 8.2734375 L 8.2734375 3 z M 12 7 A 1 1 0 0 0 11 8 L 11 12 A 1 1 0 0 0 12 13 A 1 1 0 0 0 13 12 L 13 8 A 1 1 0 0 0 12 7 z M 12 15 A 1 1 0 0 0 11 16 A 1 1 0 0 0 12 17 L 12.009766 17 A 1 1 0 0 0 13.009766 16 A 1 1 0 0 0 12.009766 15 L 12 15 z "/>
</svg>
