<?xml version="1.0" encoding="UTF-8" standalone="no"?>
<svg xmlns="http://www.w3.org/2000/svg" xmlns:svg="http://www.w3.org/2000/svg" width="24" height="24" viewBox="0 0 24 24" fill="currentColor" tags="right,items,flex,justify" categories="layout">
  
  <path d="M 10 1 A 1 1 0 0 0 9 2 L 9 4.1777344 C 8.6860474 4.0649032 8.3505728 4 8 4 L 6 4 C 4.3553005 4 3 5.3553005 3 7 L 3 17 C 3 18.644699 4.3553005 20 6 20 L 8 20 C 8.3505728 20 8.6860474 19.935097 9 19.822266 L 9 22 A 1 1 0 0 0 10 23 A 1 1 0 0 0 11 22 L 11 2 A 1 1 0 0 0 10 1 z M 20 1 A 1 1 0 0 0 19 2 L 19 6.1738281 C 18.686703 6.0615246 18.349713 6 18 6 L 16 6 C 14.355301 6 13 7.3553005 13 9 L 13 15 C 13 16.644699 14.355301 18 16 18 L 18 18 C 18.349713 18 18.686703 17.938475 19 17.826172 L 19 22 A 1 1 0 0 0 20 23 A 1 1 0 0 0 21 22 L 21 15 L 21 9 L 21 2 A 1 1 0 0 0 20 1 z M 6 6 L 8 6 C 8.5712961 6 9 6.4287039 9 7 L 9 17 C 9 17.571296 8.5712961 18 8 18 L 6 18 C 5.4287039 18 5 17.571296 5 17 L 5 7 C 5 6.4287039 5.4287039 6 6 6 z M 16 8 L 18 8 C 18.571296 8 19 8.4287039 19 9 L 19 15 C 19 15.571296 18.571296 16 18 16 L 16 16 C 15.428704 16 15 15.571296 15 15 L 15 9 C 15 8.4287039 15.428704 8 16 8 z "/>
</svg>
