<?xml version="1.0" encoding="UTF-8" standalone="no"?>
<svg xmlns="http://www.w3.org/2000/svg" xmlns:svg="http://www.w3.org/2000/svg" width="24" height="24" viewBox="0 0 24 24" fill="currentColor" tags="bottom,items,flex,justify,distribute,between" categories="layout">
  
  <path d="M 9 1 C 7.3553005 1 6 2.3553005 6 4 L 6 6 C 6 7.6446995 7.3553005 9 9 9 L 15 9 C 16.644699 9 18 7.6446995 18 6 L 18 4 C 18 2.3553005 16.644699 1 15 1 L 9 1 z M 9 3 L 15 3 C 15.571296 3 16 3.4287039 16 4 L 16 6 C 16 6.5712961 15.571296 7 15 7 L 9 7 C 8.4287039 7 8 6.5712961 8 6 L 8 4 C 8 3.4287039 8.4287039 3 9 3 z M 7 11 C 5.3553005 11 4 12.355301 4 14 L 4 16 C 4 17.644699 5.3553005 19 7 19 L 17 19 C 18.644699 19 20 17.644699 20 16 L 20 14 C 20 12.355301 18.644699 11 17 11 L 7 11 z M 7 13 L 17 13 C 17.571296 13 18 13.428704 18 14 L 18 16 C 18 16.571296 17.571296 17 17 17 L 7 17 C 6.4287039 17 6 16.571296 6 16 L 6 14 C 6 13.428704 6.4287039 13 7 13 z M 2 21 A 1 1 0 0 0 1 22 A 1 1 0 0 0 2 23 L 22 23 A 1 1 0 0 0 23 22 A 1 1 0 0 0 22 21 L 2 21 z "/>
</svg>
