<?xml version="1.0" encoding="UTF-8" standalone="no"?>
<svg
   width="24"
   height="24"
   viewBox="0 0 24 24"
   fill="none"
   stroke="currentColor"
   stroke-width="2"
   stroke-linecap="round"
   stroke-linejoin="round"
   version="1.1"
   id="svg3"
   xmlns="http://www.w3.org/2000/svg"
   xmlns:svg="http://www.w3.org/2000/svg">
  <defs
     id="defs3" />
  <path
     id="rect1"
     style="color:#000000;fill:#000000;-inkscape-stroke:none"
     d="M 2 2 A 1 1 0 0 0 1 3 A 1 1 0 0 0 2 4 L 6.1738281 4 C 6.0615246 4.3132973 6 4.6502872 6 5 L 6 7 C 6 8.6446995 7.3553005 10 9 10 L 15 10 C 16.644699 10 18 8.6446995 18 7 L 18 5 C 18 4.6502872 17.938475 4.3132973 17.826172 4 L 22 4 A 1 1 0 0 0 23 3 A 1 1 0 0 0 22 2 L 15 2 L 9 2 L 2 2 z M 9 4 L 15 4 C 15.571296 4 16 4.4287039 16 5 L 16 7 C 16 7.5712961 15.571296 8 15 8 L 9 8 C 8.4287039 8 8 7.5712961 8 7 L 8 5 C 8 4.4287039 8.4287039 4 9 4 z M 7 14 C 5.3553005 14 4 15.355301 4 17 L 4 19 C 4 19.350573 4.0649032 19.686047 4.1777344 20 L 2 20 A 1 1 0 0 0 1 21 A 1 1 0 0 0 2 22 L 22 22 A 1 1 0 0 0 23 21 A 1 1 0 0 0 22 20 L 19.822266 20 C 19.935097 19.686047 20 19.350573 20 19 L 20 17 C 20 15.355301 18.644699 14 17 14 L 7 14 z M 7 16 L 17 16 C 17.571296 16 18 16.428704 18 17 L 18 19 C 18 19.571296 17.571296 20 17 20 L 7 20 C 6.4287039 20 6 19.571296 6 19 L 6 17 C 6 16.428704 6.4287039 16 7 16 z "
     stroke-width="0" />
</svg>
