<?xml version="1.0" encoding="UTF-8" standalone="no"?>
<svg
   width="24"
   height="24"
   viewBox="0 0 24 24"
   fill="none"
   stroke="currentColor"
   stroke-width="2"
   stroke-linecap="round"
   stroke-linejoin="round"
   version="1.1"
   id="svg3"
   xmlns="http://www.w3.org/2000/svg"
   xmlns:svg="http://www.w3.org/2000/svg">
  <defs
     id="defs3" />
  <path
     id="line1"
     style="color:#000000;fill:#000000;-inkscape-stroke:none"
     d="M 3 5 A 1 1 0 0 0 2 6 A 1 1 0 0 0 3 7 L 21 7 A 1 1 0 0 0 22 6 A 1 1 0 0 0 21 5 L 3 5 z M 9 11 A 1 1 0 0 0 8 12 A 1 1 0 0 0 9 13 L 21 13 A 1 1 0 0 0 22 12 A 1 1 0 0 0 21 11 L 9 11 z M 7 17 A 1 1 0 0 0 6 18 A 1 1 0 0 0 7 19 L 21 19 A 1 1 0 0 0 22 18 A 1 1 0 0 0 21 17 L 7 17 z "
     stroke-width="0" />
</svg>
