<?xml version="1.0" encoding="UTF-8" standalone="no"?>
<svg
   width="24"
   height="24"
   viewBox="0 0 24 24"
   fill="none"
   stroke="currentColor"
   stroke-width="2"
   stroke-linecap="round"
   stroke-linejoin="round"
   version="1.1"
   id="svg2"
   xmlns="http://www.w3.org/2000/svg"
   xmlns:svg="http://www.w3.org/2000/svg">
  <defs
     id="defs2" />
  <path
     id="rect1"
     style="color:#000000;fill:#000000;-inkscape-stroke:none"
     d="M 6 1 C 4.3553005 1 3 2.3553005 3 4 L 3 16 C 3 17.644699 4.3553005 19 6 19 L 8 19 C 9.6446995 19 11 17.644699 11 16 L 11 4 C 11 2.3553005 9.6446995 1 8 1 L 6 1 z M 6 3 L 8 3 C 8.5712961 3 9 3.4287039 9 4 L 9 16 C 9 16.571296 8.5712961 17 8 17 L 6 17 C 5.4287039 17 5 16.571296 5 16 L 5 4 C 5 3.4287039 5.4287039 3 6 3 z M 16 8 C 14.355301 8 13 9.3553005 13 11 L 13 16 C 13 17.644699 14.355301 19 16 19 L 18 19 C 19.644699 19 21 17.644699 21 16 L 21 11 C 21 9.3553005 19.644699 8 18 8 L 16 8 z M 16 10 L 18 10 C 18.571296 10 19 10.428704 19 11 L 19 16 C 19 16.571296 18.571296 17 18 17 L 16 17 C 15.428704 17 15 16.571296 15 16 L 15 11 C 15 10.428704 15.428704 10 16 10 z M 2 21 A 1 1 0 0 0 1 22 A 1 1 0 0 0 2 23 L 22 23 A 1 1 0 0 0 23 22 A 1 1 0 0 0 22 21 L 2 21 z "
     stroke-width="0" />
</svg>
