<?xml version="1.0" encoding="UTF-8" standalone="no"?>
<svg
   width="24"
   height="24"
   viewBox="0 0 24 24"
   fill="none"
   stroke="currentColor"
   stroke-width="2"
   stroke-linecap="round"
   stroke-linejoin="round"
   version="1.1"
   id="svg2"
   xmlns="http://www.w3.org/2000/svg"
   xmlns:svg="http://www.w3.org/2000/svg">
  <defs
     id="defs2" />
  <path
     id="rect1"
     style="color:#000000;fill:#000000;-inkscape-stroke:none"
     d="M 22 1 A 1 1 0 0 0 21 2 L 21 22 A 1 1 0 0 0 22 23 A 1 1 0 0 0 23 22 L 23 2 A 1 1 0 0 0 22 1 z M 4 4 C 2.3553005 4 1 5.3553005 1 7 L 1 17 C 1 18.644699 2.3553005 20 4 20 L 6 20 C 7.6446995 20 9 18.644699 9 17 L 9 7 C 9 5.3553005 7.6446995 4 6 4 L 4 4 z M 4 6 L 6 6 C 6.5712961 6 7 6.4287039 7 7 L 7 17 C 7 17.571296 6.5712961 18 6 18 L 4 18 C 3.4287039 18 3 17.571296 3 17 L 3 7 C 3 6.4287039 3.4287039 6 4 6 z M 14 6 C 12.355301 6 11 7.3553005 11 9 L 11 15 C 11 16.644699 12.355301 18 14 18 L 16 18 C 17.644699 18 19 16.644699 19 15 L 19 9 C 19 7.3553005 17.644699 6 16 6 L 14 6 z M 14 8 L 16 8 C 16.571296 8 17 8.4287039 17 9 L 17 15 C 17 15.571296 16.571296 16 16 16 L 14 16 C 13.428704 16 13 15.571296 13 15 L 13 9 C 13 8.4287039 13.428704 8 14 8 z "
     stroke-width="0" />
</svg>
