<?xml version="1.0" encoding="UTF-8" standalone="no"?>
<svg
   width="24"
   height="24"
   viewBox="0 0 24 24"
   fill="none"
   stroke="currentColor"
   stroke-width="2"
   stroke-linecap="round"
   stroke-linejoin="round"
   version="1.1"
   id="svg2"
   xmlns="http://www.w3.org/2000/svg"
   xmlns:svg="http://www.w3.org/2000/svg">
  <defs
     id="defs2" />
  <path
     id="rect1"
     style="color:#000000;fill:#000000;-inkscape-stroke:none"
     d="M 22 1 A 1 1 0 0 0 21 2 L 21 22 A 1 1 0 0 0 22 23 A 1 1 0 0 0 23 22 L 23 2 A 1 1 0 0 0 22 1 z M 4 3 C 2.3553005 3 1 4.3553005 1 6 L 1 8 C 1 9.6446995 2.3553005 11 4 11 L 16 11 C 17.644699 11 19 9.6446995 19 8 L 19 6 C 19 4.3553005 17.644699 3 16 3 L 4 3 z M 4 5 L 16 5 C 16.571296 5 17 5.4287039 17 6 L 17 8 C 17 8.5712961 16.571296 9 16 9 L 4 9 C 3.4287039 9 3 8.5712961 3 8 L 3 6 C 3 5.4287039 3.4287039 5 4 5 z M 11 13 C 9.3553005 13 8 14.355301 8 16 L 8 18 C 8 19.644699 9.3553005 21 11 21 L 16 21 C 17.644699 21 19 19.644699 19 18 L 19 16 C 19 14.355301 17.644699 13 16 13 L 11 13 z M 11 15 L 16 15 C 16.571296 15 17 15.428704 17 16 L 17 18 C 17 18.571296 16.571296 19 16 19 L 11 19 C 10.428704 19 10 18.571296 10 18 L 10 16 C 10 15.428704 10.428704 15 11 15 z "
     stroke-width="0" />
</svg>
