<?xml version="1.0" encoding="UTF-8" standalone="no"?>
<svg
   width="24"
   height="24"
   viewBox="0 0 24 24"
   fill="none"
   stroke="currentColor"
   stroke-width="2"
   stroke-linecap="round"
   stroke-linejoin="round"
   version="1.1"
   id="svg3"
   xmlns="http://www.w3.org/2000/svg"
   xmlns:svg="http://www.w3.org/2000/svg">
  <defs
     id="defs3" />
  <path
     id="rect1"
     style="color:#000000;fill:#000000;-inkscape-stroke:none"
     d="M 4 1 A 1 1 0 0 0 3 2 L 3 7 L 3 17 L 3 22 A 1 1 0 0 0 4 23 A 1 1 0 0 0 5 22 L 5 19.822266 C 5.3139526 19.935097 5.6494272 20 6 20 L 8 20 C 9.6446995 20 11 18.644699 11 17 L 11 7 C 11 5.3553005 9.6446995 4 8 4 L 6 4 C 5.6494272 4 5.3139526 4.0649032 5 4.1777344 L 5 2 A 1 1 0 0 0 4 1 z M 14 1 A 1 1 0 0 0 13 2 L 13 9 L 13 15 L 13 22 A 1 1 0 0 0 14 23 A 1 1 0 0 0 15 22 L 15 17.826172 C 15.313297 17.938475 15.650287 18 16 18 L 18 18 C 19.644699 18 21 16.644699 21 15 L 21 9 C 21 7.3553005 19.644699 6 18 6 L 16 6 C 15.650287 6 15.313297 6.0615246 15 6.1738281 L 15 2 A 1 1 0 0 0 14 1 z M 6 6 L 8 6 C 8.5712961 6 9 6.4287039 9 7 L 9 17 C 9 17.571296 8.5712961 18 8 18 L 6 18 C 5.4287039 18 5 17.571296 5 17 L 5 7 C 5 6.4287039 5.4287039 6 6 6 z M 16 8 L 18 8 C 18.571296 8 19 8.4287039 19 9 L 19 15 C 19 15.571296 18.571296 16 18 16 L 16 16 C 15.428704 16 15 15.571296 15 15 L 15 9 C 15 8.4287039 15.428704 8 16 8 z "
     stroke-width="0" />
</svg>
