<?xml version="1.0" encoding="UTF-8" standalone="no"?>
<svg xmlns="http://www.w3.org/2000/svg" xmlns:svg="http://www.w3.org/2000/svg" width="24" height="24" viewBox="0 0 24 24" fill="currentColor" tags="items,flex,justify" categories="layout">
  
  <path d="M 6 1 C 4.3549936 1 3 2.3549936 3 4 L 3 8 A 1 1 0 0 0 4 9 A 1 1 0 0 0 5 8 L 5 4 C 5 3.4358718 5.4358718 3 6 3 L 8 3 C 8.5641282 3 9 3.4358718 9 4 L 9 8 A 1 1 0 0 0 10 9 A 1 1 0 0 0 11 8 L 11 4 C 11 2.3549936 9.6450064 1 8 1 L 6 1 z M 16 4 C 14.354549 4 13 5.3545487 13 7 L 13 8 A 1 1 0 0 0 14 9 A 1 1 0 0 0 15 8 L 15 7 C 15 6.4454557 15.445456 6 16 6 L 18 6 C 18.564128 6 19 6.4358718 19 7 L 19 8 A 1 1 0 0 0 20 9 A 1 1 0 0 0 21 8 L 21 7 C 21 5.3549936 19.645006 4 18 4 L 16 4 z M 2 11 A 1 1 0 0 0 1 12 A 1 1 0 0 0 2 13 L 22 13 A 1 1 0 0 0 23 12 A 1 1 0 0 0 22 11 L 2 11 z M 4 15 A 1 1 0 0 0 3 16 L 3 20 C 3 21.645006 4.3549936 23 6 23 L 8 23 C 9.6450064 23 11 21.645006 11 20 L 11 16 A 1 1 0 0 0 10 15 A 1 1 0 0 0 9 16 L 9 20 C 9 20.564128 8.5641282 21 8 21 L 6 21 C 5.4358718 21 5 20.564128 5 20 L 5 16 A 1 1 0 0 0 4 15 z M 14 15 A 1 1 0 0 0 13 16 L 13 17 C 13 18.645006 14.354994 20 16 20 L 18 20 C 19.645006 20 21 18.645006 21 17 L 21 16 A 1 1 0 0 0 20 15 A 1 1 0 0 0 19 16 L 19 17 C 19 17.564128 18.564128 18 18 18 L 16 18 C 15.435872 18 15 17.564128 15 17 L 15 16 A 1 1 0 0 0 14 15 z "/>
</svg>
