<?xml version="1.0" encoding="UTF-8" standalone="no"?>
<svg
   width="24"
   height="24"
   viewBox="0 0 24 24"
   fill="none"
   stroke="currentColor"
   stroke-width="2"
   stroke-linecap="round"
   stroke-linejoin="round"
   version="1.1"
   id="svg3"
   xmlns="http://www.w3.org/2000/svg"
   xmlns:svg="http://www.w3.org/2000/svg">
  <defs
     id="defs3" />
  <path
     id="rect1"
     style="color:#000000;fill:#000000;-inkscape-stroke:none"
     d="M 3 1 A 1 1 0 0 0 2 2 L 2 7 L 2 17 L 2 22 A 1 1 0 0 0 3 23 A 1 1 0 0 0 4 22 L 4 19.822266 C 4.3139526 19.935097 4.6494272 20 5 20 L 7 20 C 8.6446995 20 10 18.644699 10 17 L 10 7 C 10 5.3553005 8.6446995 4 7 4 L 5 4 C 4.6494272 4 4.3139526 4.0649032 4 4.1777344 L 4 2 A 1 1 0 0 0 3 1 z M 21 1 A 1 1 0 0 0 20 2 L 20 6.1738281 C 19.686703 6.0615246 19.349713 6 19 6 L 17 6 C 15.355301 6 14 7.3553005 14 9 L 14 15 C 14 16.644699 15.355301 18 17 18 L 19 18 C 19.349713 18 19.686703 17.938475 20 17.826172 L 20 22 A 1 1 0 0 0 21 23 A 1 1 0 0 0 22 22 L 22 15 L 22 9 L 22 2 A 1 1 0 0 0 21 1 z M 5 6 L 7 6 C 7.5712961 6 8 6.4287039 8 7 L 8 17 C 8 17.571296 7.5712961 18 7 18 L 5 18 C 4.4287039 18 4 17.571296 4 17 L 4 7 C 4 6.4287039 4.4287039 6 5 6 z M 17 8 L 19 8 C 19.571296 8 20 8.4287039 20 9 L 20 15 C 20 15.571296 19.571296 16 19 16 L 17 16 C 16.428704 16 16 15.571296 16 15 L 16 9 C 16 8.4287039 16.428704 8 17 8 z "
     stroke-width="0" />
</svg>
