<?xml version="1.0" encoding="UTF-8" standalone="no"?>
<svg xmlns="http://www.w3.org/2000/svg" xmlns:svg="http://www.w3.org/2000/svg" width="24" height="24" viewBox="0 0 24 24" fill="currentColor" tags="and,operator,then,code,&amp;&amp;" categories="text,development">
  
  <path d="M 5 5 C 4.2777793 5 3.5421182 5.2353482 2.9609375 5.7519531 C 2.3797568 6.268558 2 7.0833353 2 8 C 2 8.810188 2.2950477 9.7462374 2.7382812 10.730469 C 2.501005 10.922722 2.2457131 11.032332 2.03125 11.275391 C 1.4380717 11.947659 1 12.886907 1 14 C 1 16.2098 2.7902005 18 5 18 C 6.2223303 18 7.2920094 17.548749 8.2382812 16.925781 C 8.6715071 17.233116 9.0015301 17.566543 9.4863281 17.857422 A 1 1 0 0 0 10.857422 17.513672 A 1 1 0 0 0 10.513672 16.142578 C 10.200903 15.954917 10.004448 15.741461 9.7167969 15.546875 C 10.470999 14.543775 11 13.357102 11 12 A 1 1 0 0 0 10 11 A 1 1 0 0 0 9 12 C 9 12.929436 8.6571889 13.723191 8.1621094 14.388672 C 7.0397384 13.440287 6.0846651 12.477329 5.4472656 11.556641 C 5.3807312 11.460535 5.366101 11.384065 5.3046875 11.289062 C 5.827249 10.982541 6.3754047 10.68715 6.8730469 10.255859 C 7.4632685 9.7443343 8 8.9583314 8 8 C 8 7.0833353 7.6202432 6.268558 7.0390625 5.7519531 C 6.4578818 5.2353482 5.7222207 5 5 5 z M 17 5 C 16.27778 5 15.542118 5.2353482 14.960938 5.7519531 C 14.379756 6.268558 14 7.0833353 14 8 C 14 8.810188 14.295048 9.7462374 14.738281 10.730469 C 14.501005 10.922722 14.245713 11.032332 14.03125 11.275391 C 13.438072 11.947659 13 12.886907 13 14 C 13 16.2098 14.7902 18 17 18 C 18.222331 18 19.29201 17.548749 20.238281 16.925781 C 20.671508 17.233116 21.001531 17.566543 21.486328 17.857422 A 1 1 0 0 0 22.857422 17.513672 A 1 1 0 0 0 22.513672 16.142578 C 22.200903 15.954917 22.004448 15.741461 21.716797 15.546875 C 22.470999 14.543775 23 13.357102 23 12 A 1 1 0 0 0 22 11 A 1 1 0 0 0 21 12 C 21 12.929436 20.657189 13.723191 20.162109 14.388672 C 19.039738 13.440287 18.084665 12.477329 17.447266 11.556641 C 17.380736 11.460531 17.366106 11.384065 17.304688 11.289062 C 17.82725 10.982541 18.375404 10.68715 18.873047 10.255859 C 19.463268 9.7443343 20 8.9583314 20 8 C 20 7.0833353 19.620244 6.268558 19.039062 5.7519531 C 18.457882 5.2353482 17.72222 5 17 5 z M 5 7 C 5.2777773 7 5.5421198 7.0979867 5.7109375 7.2480469 C 5.8797552 7.398107 6 7.5833345 6 8 C 6 8.2916661 5.9117296 8.4431677 5.5644531 8.7441406 C 5.3005944 8.9728183 4.8260609 9.245477 4.3652344 9.5214844 C 4.1197968 8.8809843 4 8.3424316 4 8 C 4 7.5833345 4.1202448 7.398107 4.2890625 7.2480469 C 4.4578802 7.0979867 4.7222227 7 5 7 z M 17 7 C 17.277778 7 17.542121 7.0979871 17.710938 7.2480469 C 17.879755 7.398107 18 7.5833345 18 8 C 18 8.2916661 17.91173 8.4431677 17.564453 8.7441406 C 17.300594 8.9728183 16.826061 9.245477 16.365234 9.5214844 C 16.119798 8.8809843 16 8.3424316 16 8 C 16 7.5833345 16.120246 7.398107 16.289062 7.2480469 C 16.45788 7.0979867 16.722222 7 17 7 z M 3.6875 12.482422 C 3.736404 12.555752 3.751631 12.619543 3.8027344 12.693359 C 4.4922677 13.689352 5.45766 14.703025 6.5878906 15.693359 C 6.1055265 15.891201 5.570059 16 5 16 C 3.8098063 16 3 15.190194 3 14 C 3 13.363097 3.1869301 12.989839 3.53125 12.599609 C 3.5674788 12.55855 3.6471889 12.522929 3.6875 12.482422 z M 15.6875 12.482422 C 15.7364 12.555752 15.75163 12.619543 15.802734 12.693359 C 16.492268 13.689352 17.45766 14.703025 18.587891 15.693359 C 18.105526 15.891201 17.570059 16 17 16 C 15.809806 16 15 15.190194 15 14 C 15 13.363097 15.18693 12.989839 15.53125 12.599609 C 15.56748 12.558549 15.647189 12.522929 15.6875 12.482422 z "/>
</svg>
