<?xml version="1.0" encoding="UTF-8" standalone="no"?>
<svg
   width="24"
   height="24"
   viewBox="0 0 24 24"
   fill="none"
   stroke="currentColor"
   stroke-width="2"
   stroke-linecap="round"
   stroke-linejoin="round"
   version="1.1"
   id="svg1"
   xmlns="http://www.w3.org/2000/svg"
   xmlns:svg="http://www.w3.org/2000/svg">
  <defs
     id="defs1" />
  <path
     id="circle1"
     style="color:#000000;fill:#000000;-inkscape-stroke:none"
     d="M 12 1 C 9.80271 1 8 2.80271 8 5 C 8 6.8524679 9.2811777 8.4233216 11 8.8710938 L 11 20.941406 C 6.8549552 20.476503 3.6806988 17.156351 3.2011719 13 L 5 13 A 1 1 0 0 0 6 12 A 1 1 0 0 0 5 11 L 2 11 A 1.0001 1.0001 0 0 0 1 12 C 1 18.063279 5.9367256 23 12 23 C 18.063274 23 23 18.063279 23 12 A 1.0001 1.0001 0 0 0 22 11 L 19 11 A 1 1 0 0 0 18 12 A 1 1 0 0 0 19 13 L 20.798828 13 C 20.319301 17.156351 17.145045 20.476503 13 20.941406 L 13 8.8710938 C 14.718822 8.4233216 16 6.8524679 16 5 C 16 2.80271 14.19729 1 12 1 z M 12 3 C 13.116412 3 14 3.8835881 14 5 C 14 6.1164119 13.116412 7 12 7 C 10.883588 7 10 6.1164119 10 5 C 10 3.8835881 10.883588 3 12 3 z "
     stroke-width="0" />
</svg>
