<?xml version="1.0" encoding="UTF-8" standalone="no"?>
<svg
   width="24"
   height="24"
   viewBox="0 0 24 24"
   fill="none"
   stroke="currentColor"
   stroke-width="2"
   stroke-linecap="round"
   stroke-linejoin="round"
   version="1.1"
   id="svg5"
   xmlns="http://www.w3.org/2000/svg"
   xmlns:svg="http://www.w3.org/2000/svg">
  <defs
     id="defs5" />
  <path
     id="circle1"
     style="color:#000000;fill:#000000;-inkscape-stroke:none"
     d="M 12 1 C 5.9367246 1 1 5.9367246 1 12 C 1 18.063276 5.9367246 23 12 23 C 18.063276 23 23 18.063276 23 12 C 23 5.9367246 18.063276 1 12 1 z M 12 3 C 16.982397 3 21 7.0176026 21 12 C 21 16.982397 16.982397 21 12 21 C 7.0176026 21 3 16.982397 3 12 C 3 7.0176026 7.0176026 3 12 3 z M 7.4882812 7.0019531 A 1 1 0 0 0 6.5722656 7.6289062 A 1 1 0 0 0 7.1289062 8.9277344 L 8.2285156 9.3671875 A 1 1 0 0 0 8 10 A 1 1 0 0 0 9 11 A 1 1 0 0 0 10 10 A 1 1 0 0 0 10 9.9980469 A 1 1 0 0 0 10.927734 9.3710938 A 1 1 0 0 0 10.371094 8.0722656 L 7.8710938 7.0722656 A 1 1 0 0 0 7.4882812 7.0019531 z M 16.511719 7.0019531 A 1 1 0 0 0 16.128906 7.0722656 L 13.628906 8.0722656 A 1 1 0 0 0 13.072266 9.3710938 A 1 1 0 0 0 14 9.9980469 A 1 1 0 0 0 14 10 A 1 1 0 0 0 15 11 A 1 1 0 0 0 16 10 A 1 1 0 0 0 15.773438 9.3671875 L 16.871094 8.9277344 A 1 1 0 0 0 17.427734 7.6289062 A 1 1 0 0 0 16.511719 7.0019531 z M 12 13 C 8.9666727 13 7.1992188 15.400391 7.1992188 15.400391 A 1 1 0 0 0 7.4003906 16.800781 A 1 1 0 0 0 8.8007812 16.599609 C 8.8007812 16.599609 10.033337 15 12 15 C 13.966663 15 15.199219 16.599609 15.199219 16.599609 A 1 1 0 0 0 16.599609 16.800781 A 1 1 0 0 0 16.800781 15.400391 C 16.800781 15.400391 15.033327 13 12 13 z "
     stroke-width="0" />
</svg>
