<?xml version="1.0" encoding="UTF-8" standalone="no"?>
<svg xmlns="http://www.w3.org/2000/svg" xmlns:svg="http://www.w3.org/2000/svg" width="24" height="24" viewBox="0 0 24 24" fill="currentColor" tags="fruit,food" categories="food-beverage">
  
  <path d="M 10.070312 1.0019531 A 1 1 0 0 0 9.6835938 1.0507812 A 1 1 0 0 0 9.1054688 1.5527344 A 1 1 0 0 0 9.5527344 2.8945312 C 9.9341125 3.0852203 10.528139 3.7052137 10.822266 5.1035156 C 9.8587124 4.5558613 8.5824806 4.0050846 7.0117188 4.0019531 C 3.778476 3.940626 1.078533 6.5217366 1 9.7558594 A 1.0001 1.0001 0 0 0 1 9.7792969 C 1 12.126259 1.78135 15.228767 2.9609375 17.878906 C 3.5507312 19.203977 4.23826 20.406651 5.0390625 21.335938 C 5.839865 22.265225 6.8055579 23 8 23 C 8.9076649 23 9.6352215 22.657357 10.28125 22.396484 C 10.927278 22.135613 11.485557 21.939453 12 21.939453 C 12.514443 21.939453 13.072722 22.135613 13.71875 22.396484 C 14.364778 22.657357 15.092335 23 16 23 C 17.194442 23 18.160135 22.265225 18.960938 21.335938 C 19.761741 20.406651 20.449269 19.203977 21.039062 17.878906 C 22.21865 15.228767 23 12.126259 23 9.7792969 A 1.0001 1.0001 0 0 0 23 9.7773438 A 1.0001 1.0001 0 0 0 23 9.7753906 A 1.0001 1.0001 0 0 0 23 9.7734375 A 1.0001 1.0001 0 0 0 23 9.7714844 A 1.0001 1.0001 0 0 0 23 9.7695312 A 1.0001 1.0001 0 0 0 23 9.7675781 A 1.0001 1.0001 0 0 0 23 9.765625 A 1.0001 1.0001 0 0 0 23 9.7636719 A 1.0001 1.0001 0 0 0 23 9.7617188 A 1.0001 1.0001 0 0 0 23 9.7597656 A 1.0001 1.0001 0 0 0 23 9.7578125 A 1.0001 1.0001 0 0 0 23 9.7558594 A 1.0001 1.0001 0 0 0 23 9.7539062 C 22.91499 6.522974 20.218845 3.9461386 16.988281 4.0019531 C 15.255138 4.0054083 13.872299 4.6764068 12.882812 5.2734375 C 12.567356 3.0743649 11.638386 1.7010293 10.447266 1.1054688 A 1 1 0 0 0 10.070312 1.0019531 z M 6.9785156 6 A 1.0001 1.0001 0 0 0 7 6 C 8.787564 6 10.315469 7.2031471 11.511719 7.8730469 A 1.0001 1.0001 0 0 0 11.537109 7.8828125 A 1 1 0 0 0 11.806641 7.9785156 A 1.0001 1.0001 0 0 0 11.880859 7.9863281 A 1 1 0 0 0 12 8 A 1 1 0 0 0 12.119141 7.9863281 A 1.0001 1.0001 0 0 0 12.193359 7.9785156 A 1 1 0 0 0 12.462891 7.8828125 A 1.0001 1.0001 0 0 0 12.488281 7.8730469 C 13.684531 7.2031471 15.212436 6 17 6 A 1.0001 1.0001 0 0 0 17.019531 6 C 19.175043 5.959737 20.935865 7.6432448 20.998047 9.796875 C 20.994447 11.670887 20.278626 14.667668 19.210938 17.066406 C 18.675734 18.268831 18.050758 19.328665 17.445312 20.03125 C 16.839869 20.733835 16.305555 21 16 21 C 15.657667 21 15.135219 20.812095 14.46875 20.542969 C 13.802281 20.273842 12.985554 19.939453 12 19.939453 C 11.014446 19.939453 10.197719 20.273842 9.53125 20.542969 C 8.8647811 20.812095 8.3423327 21 8 21 C 7.6944451 21 7.1601322 20.733835 6.5546875 20.03125 C 5.9492428 19.328665 5.3242665 18.268831 4.7890625 17.066406 C 3.721077 14.666999 3.0051946 11.668829 3.0019531 9.7949219 C 3.059806 7.6403593 4.8222694 5.9553499 6.9785156 6 z "/>
</svg>
