<?xml version="1.0" encoding="UTF-8" standalone="no"?>
<svg
   width="24"
   height="24"
   viewBox="0 0 24 24"
   fill="none"
   stroke="currentColor"
   stroke-width="2"
   stroke-linecap="round"
   stroke-linejoin="round"
   version="1.1"
   id="svg4"
   xmlns="http://www.w3.org/2000/svg"
   xmlns:svg="http://www.w3.org/2000/svg">
  <defs
     id="defs4" />
  <path
     id="rect1"
     style="color:#000000;fill:#000000;-inkscape-stroke:none"
     d="M 3 2 C 1.9092994 2 1 2.9092994 1 4 L 1 7 C 1 8.0907006 1.9092994 9 3 9 L 3 19 C 3 20.645006 4.3549936 22 6 22 L 8 22 A 1 1 0 0 0 9 21 A 1 1 0 0 0 8 20 L 6 20 C 5.4358718 20 5 19.564128 5 19 L 5 9 L 19 9 L 19 19 C 19 19.564128 18.564128 20 18 20 L 16 20 A 1 1 0 0 0 15 21 A 1 1 0 0 0 16 22 L 18 22 C 19.645006 22 21 20.645006 21 19 L 21 9 C 22.090701 9 23 8.0907006 23 7 L 23 4 C 23 2.9092994 22.090701 2 21 2 L 3 2 z M 3 4 L 21 4 L 21 7 L 3 7 L 3 4 z M 12 11 A 1 1 0 0 0 11.5 11.134766 A 1.0001 1.0001 0 0 0 11.292969 11.292969 L 8.2929688 14.292969 A 1 1 0 0 0 8.2929688 15.707031 A 1 1 0 0 0 9.7070312 15.707031 L 11 14.414062 L 11 21 A 1 1 0 0 0 12 22 A 1 1 0 0 0 13 21 L 13 14.414062 L 14.292969 15.707031 A 1 1 0 0 0 15.707031 15.707031 A 1 1 0 0 0 15.707031 14.292969 L 12.707031 11.292969 A 1 1 0 0 0 12.5 11.134766 A 1 1 0 0 0 12.257812 11.035156 A 1 1 0 0 0 12 11 z "
     stroke-width="0" />
</svg>
