<?xml version="1.0" encoding="UTF-8" standalone="no"?>
<svg xmlns="http://www.w3.org/2000/svg" xmlns:svg="http://www.w3.org/2000/svg" width="24" height="24" viewBox="0 0 24 24" fill="currentColor" tags="statistics,diagram,graph,area" categories="charts">
  
  <path d="M 3 2 A 1 1 0 0 0 2 3 L 2 21 A 1.0001 1.0001 0 0 0 3 22 L 21 22 A 1 1 0 0 0 22 21 A 1 1 0 0 0 21 20 L 4 20 L 4 3 A 1 1 0 0 0 3 2 z M 19.097656 7.0039062 A 1.0001 1.0001 0 0 0 18.292969 7.2929688 L 14 11.585938 L 10.707031 8.2929688 A 1.0001 1.0001 0 0 0 9.2929688 8.2929688 L 6.2929688 11.292969 A 1.0001 1.0001 0 0 0 6 12 L 6 17 A 1.0001 1.0001 0 0 0 7 18 L 19 18 A 1.0001 1.0001 0 0 0 20 17 L 20 8 A 1.0001 1.0001 0 0 0 19.382812 7.0761719 A 1.0001 1.0001 0 0 0 19.097656 7.0039062 z M 10 10.414062 L 13.292969 13.707031 A 1.0001 1.0001 0 0 0 14.707031 13.707031 L 18 10.414062 L 18 16 L 8 16 L 8 12.414062 L 10 10.414062 z "/>
</svg>
