<?xml version="1.0" encoding="UTF-8" standalone="no"?>
<svg xmlns="http://www.w3.org/2000/svg" xmlns:svg="http://www.w3.org/2000/svg" width="24" height="24" viewBox="0 0 24 24" fill="currentColor" tags="sofa,furniture,leisure,lounge,loveseat,couch" categories="furniture">
  
  <path d="M 7 3 C 5.3549936 3 4 4.3549936 4 6 L 4 8.1601562 C 3.6269657 8.2826007 3.2714032 8.4759837 2.9609375 8.7519531 C 2.3797568 9.268558 2 10.083335 2 11 L 2 16 C 2 17.294749 2.840457 18.406112 4 18.822266 L 4 20 A 1 1 0 0 0 5 21 A 1 1 0 0 0 6 20 L 6 19 L 18 19 L 18 20 A 1 1 0 0 0 19 21 A 1 1 0 0 0 20 20 L 20 18.822266 C 21.159543 18.406112 22 17.294749 22 16 L 22 11 C 22 10.083335 21.620244 9.268558 21.039062 8.7519531 C 20.728597 8.4759837 20.373034 8.2826007 20 8.1601562 L 20 6 C 20 4.3549936 18.645006 3 17 3 L 7 3 z M 7 5 L 17 5 C 17.564128 5 18 5.4358718 18 6 L 18 8.1601562 C 17.626966 8.2826007 17.271404 8.4759837 16.960938 8.7519531 C 16.379757 9.268558 16 10.083335 16 11 L 16 12 L 8 12 L 8 11 C 8 10.083335 7.6202432 9.268558 7.0390625 8.7519531 C 6.7285968 8.4759837 6.3730343 8.2826007 6 8.1601562 L 6 6 C 6 5.4358718 6.4358718 5 7 5 z M 5 10 C 5.2777773 10 5.5421198 10.09799 5.7109375 10.248047 C 5.8797552 10.398107 6 10.583334 6 11 L 6 13 A 1.0001 1.0001 0 0 0 7 14 L 17 14 A 1.0001 1.0001 0 0 0 18 13 L 18 11 C 18 10.583334 18.120246 10.398107 18.289062 10.248047 C 18.45788 10.097987 18.722222 10 19 10 C 19.277778 10 19.542121 10.09799 19.710938 10.248047 C 19.879755 10.398107 20 10.583334 20 11 L 20 16 C 20 16.564128 19.564128 17 19 17 L 5 17 C 4.4358718 17 4 16.564128 4 16 L 4 11 C 4 10.583334 4.1202448 10.398107 4.2890625 10.248047 C 4.4578802 10.097987 4.7222227 10 5 10 z "/>
</svg>
