<?xml version="1.0" encoding="UTF-8" standalone="no"?>
<svg
   width="24"
   height="24"
   viewBox="0 0 24 24"
   fill="none"
   stroke="currentColor"
   stroke-width="2"
   stroke-linecap="round"
   stroke-linejoin="round"
   version="1.1"
   id="svg1"
   xmlns="http://www.w3.org/2000/svg"
   xmlns:svg="http://www.w3.org/2000/svg">
  <defs
     id="defs1" />
  <path
     id="path1"
     style="color:#000000;fill:#000000;-inkscape-stroke:none"
     d="M 12 4 A 1.0001 1.0001 0 0 0 11.617188 4.0761719 A 1.0001 1.0001 0 0 0 11 5 L 11 8 L 6 8 A 1.0001 1.0001 0 0 0 5 9 L 5 15 A 1.0001 1.0001 0 0 0 6 16 L 11 16 L 11 19 A 1.0001 1.0001 0 0 0 12.707031 19.707031 L 19.707031 12.707031 A 1.0001 1.0001 0 0 0 19.707031 11.292969 L 12.707031 4.2929688 A 1.0001 1.0001 0 0 0 12 4 z M 13 7.4140625 L 17.585938 12 L 13 16.585938 L 13 15 A 1.0001 1.0001 0 0 0 12 14 L 7 14 L 7 10 L 12 10 A 1.0001 1.0001 0 0 0 13 9 L 13 7.4140625 z "
     stroke-width="0" />
</svg>
