<?xml version="1.0" encoding="UTF-8" standalone="no"?>
<svg
   width="24"
   height="24"
   viewBox="0 0 24 24"
   fill="none"
   stroke="currentColor"
   stroke-width="2"
   stroke-linecap="round"
   stroke-linejoin="round"
   version="1.1"
   id="svg5"
   xmlns="http://www.w3.org/2000/svg"
   xmlns:svg="http://www.w3.org/2000/svg">
  <defs
     id="defs5" />
  <path
     id="path1"
     style="color:#000000;fill:#000000;-inkscape-stroke:none"
     d="M 7 3 A 1.0001 1.0001 0 0 0 6.7207031 3.0449219 A 1 1 0 0 0 6.6191406 3.0859375 A 1.0001 1.0001 0 0 0 6.453125 3.1699219 A 1 1 0 0 0 6.3671875 3.2363281 A 1.0001 1.0001 0 0 0 6.2929688 3.2929688 L 2.2929688 7.2929688 A 1 1 0 0 0 2.2929688 8.7070312 A 1 1 0 0 0 3.7070312 8.7070312 L 6 6.4140625 L 6 20 A 1 1 0 0 0 7 21 A 1 1 0 0 0 8 20 L 8 6.4140625 L 10.292969 8.7070312 A 1 1 0 0 0 11.707031 8.7070312 A 1 1 0 0 0 11.707031 7.2929688 L 7.7480469 3.3359375 A 1 1 0 0 0 7.7070312 3.2929688 A 1.0001 1.0001 0 0 0 7.6992188 3.2871094 A 1 1 0 0 0 7.5097656 3.1425781 A 1.0001 1.0001 0 0 0 7.4902344 3.1308594 A 1 1 0 0 0 7 3 z M 15 3 A 1 1 0 0 0 14 4 A 1 1 0 0 0 15 5 L 17.865234 5 L 14.232422 9.359375 A 1.0001 1.0001 0 0 0 15 11 L 20 11 A 1 1 0 0 0 21 10 A 1 1 0 0 0 20 9 L 17.134766 9 L 20.767578 4.640625 A 1.0001 1.0001 0 0 0 20 3 L 15 3 z M 17.5 13 C 16.65278 13 15.792118 13.277016 15.117188 13.876953 C 14.442256 14.476892 14 15.416669 14 16.5 L 14 18 L 14 20 A 1 1 0 0 0 15 21 A 1 1 0 0 0 16 20 L 16 19 L 19 19 L 19 20 A 1 1 0 0 0 20 21 A 1 1 0 0 0 21 20 L 21 18 L 21 16.5 C 21 15.416669 20.557744 14.476892 19.882812 13.876953 C 19.207882 13.277016 18.34722 13 17.5 13 z M 17.5 15 C 17.902777 15 18.292121 15.139653 18.554688 15.373047 C 18.817255 15.60644 19 15.916669 19 16.5 L 19 17 L 16 17 L 16 16.5 C 16 15.916669 16.182746 15.60644 16.445312 15.373047 C 16.70788 15.139653 17.097223 15 17.5 15 z "
     stroke-width="0" />
</svg>
