<?xml version="1.0" encoding="UTF-8" standalone="no"?>
<svg xmlns="http://www.w3.org/2000/svg" xmlns:svg="http://www.w3.org/2000/svg" width="24" height="24" viewBox="0 0 24 24" fill="currentColor" tags="shift,keyboard,button,mac,capitalize,capitalise,forward,direction,north" categories="arrows,navigation,text,development,gaming">
  
  <path d="M 12 4 A 1.0001 1.0001 0 0 0 11.292969 4.2929688 L 4.2929688 11.292969 A 1.0001 1.0001 0 0 0 5 13 L 8 13 L 8 18 A 1.0001 1.0001 0 0 0 9 19 L 15 19 A 1.0001 1.0001 0 0 0 16 18 L 16 13 L 19 13 A 1.0001 1.0001 0 0 0 19.707031 11.292969 L 12.707031 4.2929688 A 1.0001 1.0001 0 0 0 12 4 z M 12 6.4140625 L 16.585938 11 L 15 11 A 1.0001 1.0001 0 0 0 14 12 L 14 17 L 10 17 L 10 12 A 1.0001 1.0001 0 0 0 9 11 L 7.4140625 11 L 12 6.4140625 z "/>
</svg>
