<?xml version="1.0" encoding="UTF-8" standalone="no"?>
<svg
   width="24"
   height="24"
   viewBox="0 0 24 24"
   fill="none"
   stroke="currentColor"
   stroke-width="2"
   stroke-linecap="round"
   stroke-linejoin="round"
   version="1.1"
   id="svg2"
   xmlns="http://www.w3.org/2000/svg"
   xmlns:svg="http://www.w3.org/2000/svg">
  <defs
     id="defs2" />
  <path
     id="rect1"
     style="color:#000000;fill:#000000;-inkscape-stroke:none"
     d="M 5 2 C 3.3553005 2 2 3.3553005 2 5 L 2 19 C 2 20.644699 3.3553005 22 5 22 L 19 22 C 20.644699 22 22 20.644699 22 19 L 22 5 C 22 3.3553005 20.644699 2 19 2 L 5 2 z M 5 4 L 19 4 C 19.571296 4 20 4.4287039 20 5 L 20 19 C 20 19.571296 19.571296 20 19 20 L 5 20 C 4.4287039 20 4 19.571296 4 19 L 4 5 C 4 4.4287039 4.4287039 4 5 4 z M 8 7 A 1 1 0 0 0 7.7109375 7.0449219 A 1.0001 1.0001 0 0 0 7.6347656 7.078125 A 1 1 0 0 0 7.453125 7.1699219 A 1.0001 1.0001 0 0 0 7.3671875 7.2363281 A 1 1 0 0 0 7.2929688 7.2929688 A 1 1 0 0 0 7.2460938 7.3554688 A 1.0001 1.0001 0 0 0 7.1542969 7.484375 A 1 1 0 0 0 7.0859375 7.6191406 A 1.0001 1.0001 0 0 0 7.0371094 7.7675781 A 1 1 0 0 0 7.0117188 7.9257812 A 1.0001 1.0001 0 0 0 7 8 L 7 16 A 1 1 0 0 0 8 17 A 1 1 0 0 0 9 16 L 9 10.414062 L 15.292969 16.707031 A 1 1 0 0 0 16.707031 16.707031 A 1 1 0 0 0 16.707031 15.292969 L 10.414062 9 L 16 9 A 1 1 0 0 0 17 8 A 1 1 0 0 0 16 7 L 8 7 z "
     stroke-width="0" />
</svg>
