<?xml version="1.0" encoding="UTF-8" standalone="no"?>
<svg
   width="24"
   height="24"
   viewBox="0 0 24 24"
   fill="none"
   stroke="currentColor"
   stroke-width="2"
   stroke-linecap="round"
   stroke-linejoin="round"
   version="1.1"
   id="svg3"
   xmlns="http://www.w3.org/2000/svg"
   xmlns:svg="http://www.w3.org/2000/svg">
  <defs
     id="defs3" />
  <path
     id="path1"
     style="color:#000000;fill:#000000;-inkscape-stroke:none"
     d="M 21 4 A 1 1 0 0 0 20 5 L 20 19 A 1 1 0 0 0 21 20 A 1 1 0 0 0 22 19 L 22 5 A 1 1 0 0 0 21 4 z M 9 5 A 1 1 0 0 0 8.2929688 5.2929688 L 2.2929688 11.292969 A 1.0001 1.0001 0 0 0 2.2460938 11.355469 A 1 1 0 0 0 2.1542969 11.484375 A 1.0001 1.0001 0 0 0 2.0859375 11.619141 A 1 1 0 0 0 2.0371094 11.767578 A 1.0001 1.0001 0 0 0 2.0117188 11.925781 A 1 1 0 0 0 2 12 A 1 1 0 0 0 2.0117188 12.074219 A 1.0001 1.0001 0 0 0 2.0371094 12.232422 A 1 1 0 0 0 2.0859375 12.380859 A 1.0001 1.0001 0 0 0 2.1542969 12.515625 A 1 1 0 0 0 2.2460938 12.644531 A 1.0001 1.0001 0 0 0 2.2929688 12.707031 L 8.2929688 18.707031 A 1 1 0 0 0 9.7070312 18.707031 A 1 1 0 0 0 9.7070312 17.292969 L 5.4140625 13 L 17 13 A 1 1 0 0 0 18 12 A 1 1 0 0 0 17 11 L 5.4140625 11 L 9.7070312 6.7070312 A 1 1 0 0 0 9.7070312 5.2929688 A 1 1 0 0 0 9 5 z "
     stroke-width="0" />
</svg>
