<?xml version="1.0" encoding="UTF-8" standalone="no"?>
<svg
   width="24"
   height="24"
   viewBox="0 0 24 24"
   fill="none"
   stroke="currentColor"
   stroke-width="2"
   stroke-linecap="round"
   stroke-linejoin="round"
   version="1.1"
   id="svg4"
   xmlns="http://www.w3.org/2000/svg"
   xmlns:svg="http://www.w3.org/2000/svg">
  <defs
     id="defs4" />
  <path
     id="path1"
     style="color:#000000;fill:#000000;-inkscape-stroke:none"
     d="M 7 3 A 1.0001 1.0001 0 0 0 6.7207031 3.0449219 A 1 1 0 0 0 6.6191406 3.0859375 A 1.0001 1.0001 0 0 0 6.453125 3.1699219 A 1 1 0 0 0 6.3671875 3.2363281 A 1.0001 1.0001 0 0 0 6.2929688 3.2929688 L 2.2929688 7.2929688 A 1 1 0 0 0 2.2929688 8.7070312 A 1 1 0 0 0 3.7070312 8.7070312 L 6 6.4140625 L 6 20 A 1 1 0 0 0 7 21 A 1 1 0 0 0 8 20 L 8 6.4140625 L 10.292969 8.7070312 A 1 1 0 0 0 11.707031 8.7070312 A 1 1 0 0 0 11.707031 7.2929688 L 7.7480469 3.3359375 A 1 1 0 0 0 7.7070312 3.2929688 A 1.0001 1.0001 0 0 0 7.6992188 3.2871094 A 1 1 0 0 0 7.5097656 3.1425781 A 1.0001 1.0001 0 0 0 7.4902344 3.1308594 A 1 1 0 0 0 7 3 z M 17 3 C 15.355301 3 14 4.3553005 14 6 L 14 8 C 14 9.6446995 15.355301 11 17 11 C 18.644699 11 20 9.6446995 20 8 L 20 6 C 20 4.3553005 18.644699 3 17 3 z M 17 5 C 17.571296 5 18 5.4287039 18 6 L 18 8 C 18 8.5712961 17.571296 9 17 9 C 16.428704 9 16 8.5712961 16 8 L 16 6 C 16 5.4287039 16.428704 5 17 5 z M 15 13 A 1 1 0 0 0 14 14 A 1 1 0 0 0 15 15 L 16 15 L 16 19 L 15 19 A 1 1 0 0 0 14 20 A 1 1 0 0 0 15 21 L 17 21 L 19 21 A 1 1 0 0 0 20 20 A 1 1 0 0 0 19 19 L 18 19 L 18 14 A 1.0001 1.0001 0 0 0 17 13 L 15 13 z "
     stroke-width="0" />
</svg>
