<?xml version="1.0" encoding="UTF-8" standalone="no"?>
<svg
   width="24"
   height="24"
   viewBox="0 0 24 24"
   fill="none"
   stroke="currentColor"
   stroke-width="2"
   stroke-linecap="round"
   stroke-linejoin="round"
   version="1.1"
   id="svg2"
   xmlns="http://www.w3.org/2000/svg"
   xmlns:svg="http://www.w3.org/2000/svg">
  <defs
     id="defs2" />
  <path
     id="path1"
     style="color:#000000;fill:#000000;-inkscape-stroke:none"
     d="M 12 4 A 1.0001 1.0001 0 0 0 11.292969 4.2929688 L 4.2929688 11.292969 A 1.0001 1.0001 0 0 0 4.2929688 12.707031 L 11.292969 19.707031 A 1.0001 1.0001 0 0 0 13 19 L 13 16 L 15 16 A 1.0001 1.0001 0 0 0 16 15 L 16 9 A 1.0001 1.0001 0 0 0 15 8 L 13 8 L 13 5 A 1.0001 1.0001 0 0 0 12.382812 4.0761719 A 1.0001 1.0001 0 0 0 12 4 z M 11 7.4140625 L 11 9 A 1.0001 1.0001 0 0 0 12 10 L 14 10 L 14 14 L 12 14 A 1.0001 1.0001 0 0 0 11 15 L 11 16.585938 L 6.4140625 12 L 11 7.4140625 z M 19 8 A 1 1 0 0 0 18 9 L 18 15 A 1 1 0 0 0 19 16 A 1 1 0 0 0 20 15 L 20 9 A 1 1 0 0 0 19 8 z "
     stroke-width="0" />
</svg>
