<?xml version="1.0" encoding="UTF-8" standalone="no"?>
<svg
   width="24"
   height="24"
   viewBox="0 0 24 24"
   fill="none"
   stroke="currentColor"
   stroke-width="2"
   stroke-linecap="round"
   stroke-linejoin="round"
   version="1.1"
   id="svg3"
   xmlns="http://www.w3.org/2000/svg"
   xmlns:svg="http://www.w3.org/2000/svg">
  <defs
     id="defs3" />
  <path
     id="path1"
     style="color:#000000;fill:#000000;-inkscape-stroke:none"
     d="M 5 2 A 1 1 0 0 0 4 3 A 1 1 0 0 0 5 4 L 19 4 A 1 1 0 0 0 20 3 A 1 1 0 0 0 19 2 L 5 2 z M 12 6 A 1 1 0 0 0 11.925781 6.0117188 A 1.0001 1.0001 0 0 0 11.767578 6.0371094 A 1 1 0 0 0 11.619141 6.0859375 A 1.0001 1.0001 0 0 0 11.484375 6.1542969 A 1 1 0 0 0 11.355469 6.2460938 A 1.0001 1.0001 0 0 0 11.292969 6.2929688 L 5.2929688 12.292969 A 1 1 0 0 0 5.2929688 13.707031 A 1 1 0 0 0 6.7070312 13.707031 L 11 9.4140625 L 11 21 A 1 1 0 0 0 12 22 A 1 1 0 0 0 13 21 L 13 9.4140625 L 17.292969 13.707031 A 1 1 0 0 0 18.707031 13.707031 A 1 1 0 0 0 18.707031 12.292969 L 12.707031 6.2929688 A 1 1 0 0 0 12.457031 6.1132812 A 1 1 0 0 0 12.453125 6.109375 A 1.0001 1.0001 0 0 0 12.449219 6.1074219 A 1 1 0 0 0 12.169922 6.015625 A 1.0001 1.0001 0 0 0 12.144531 6.0117188 A 1 1 0 0 0 12 6 z "
     stroke-width="0" />
</svg>
