<?xml version="1.0" encoding="UTF-8" standalone="no"?>
<svg
   width="24"
   height="24"
   viewBox="0 0 24 24"
   fill="none"
   stroke="currentColor"
   stroke-width="2"
   stroke-linecap="round"
   stroke-linejoin="round"
   version="1.1"
   id="svg3"
   xmlns="http://www.w3.org/2000/svg"
   xmlns:svg="http://www.w3.org/2000/svg">
  <defs
     id="defs3" />
  <path
     id="path1"
     style="color:#000000;fill:#000000;-inkscape-stroke:none"
     d="M 12 2 A 1 1 0 0 0 11 3 L 11 14.585938 L 6.7070312 10.292969 A 1 1 0 0 0 6 10 A 1 1 0 0 0 5.2929688 10.292969 A 1 1 0 0 0 5.2929688 11.707031 L 11.292969 17.707031 A 1.0001 1.0001 0 0 0 11.355469 17.753906 A 1 1 0 0 0 11.484375 17.845703 A 1.0001 1.0001 0 0 0 11.619141 17.914062 A 1 1 0 0 0 11.767578 17.962891 A 1.0001 1.0001 0 0 0 11.925781 17.988281 A 1 1 0 0 0 12 18 A 1 1 0 0 0 12.074219 17.988281 A 1.0001 1.0001 0 0 0 12.232422 17.962891 A 1 1 0 0 0 12.380859 17.914062 A 1.0001 1.0001 0 0 0 12.515625 17.845703 A 1 1 0 0 0 12.644531 17.753906 A 1.0001 1.0001 0 0 0 12.707031 17.707031 L 18.707031 11.707031 A 1 1 0 0 0 18.707031 10.292969 A 1 1 0 0 0 17.292969 10.292969 L 13 14.585938 L 13 3 A 1 1 0 0 0 12 2 z M 5 20 A 1 1 0 0 0 4 21 A 1 1 0 0 0 5 22 L 19 22 A 1 1 0 0 0 20 21 A 1 1 0 0 0 19 20 L 5 20 z "
     stroke-width="0" />
</svg>
