<?xml version="1.0" encoding="UTF-8" standalone="no"?>
<svg
   width="24"
   height="24"
   viewBox="0 0 24 24"
   fill="none"
   stroke="currentColor"
   stroke-width="2"
   stroke-linecap="round"
   stroke-linejoin="round"
   version="1.1"
   id="svg3"
   xmlns="http://www.w3.org/2000/svg"
   xmlns:svg="http://www.w3.org/2000/svg">
  <defs
     id="defs3" />
  <path
     id="path1"
     style="color:#000000;fill:#000000;-inkscape-stroke:none"
     d="M 5 2 A 1 1 0 0 0 4 3 A 1 1 0 0 0 5 4 L 19 4 A 1 1 0 0 0 20 3 A 1 1 0 0 0 19 2 L 5 2 z M 12 6 A 1 1 0 0 0 11 7 L 11 18.585938 L 6.7070312 14.292969 A 1 1 0 0 0 6 14 A 1 1 0 0 0 5.2929688 14.292969 A 1 1 0 0 0 5.2929688 15.707031 L 11.292969 21.707031 A 1.0001 1.0001 0 0 0 11.355469 21.753906 A 1 1 0 0 0 11.484375 21.845703 A 1.0001 1.0001 0 0 0 11.619141 21.914062 A 1 1 0 0 0 11.767578 21.962891 A 1.0001 1.0001 0 0 0 11.925781 21.988281 A 1 1 0 0 0 12 22 A 1 1 0 0 0 12.074219 21.988281 A 1.0001 1.0001 0 0 0 12.232422 21.962891 A 1 1 0 0 0 12.380859 21.914062 A 1.0001 1.0001 0 0 0 12.515625 21.845703 A 1 1 0 0 0 12.644531 21.753906 A 1.0001 1.0001 0 0 0 12.707031 21.707031 L 18.707031 15.707031 A 1 1 0 0 0 18.707031 14.292969 A 1 1 0 0 0 17.292969 14.292969 L 13 18.585938 L 13 7 A 1 1 0 0 0 12 6 z "
     stroke-width="0" />
</svg>
