<?xml version="1.0" encoding="UTF-8" standalone="no"?>
<svg
   width="24"
   height="24"
   viewBox="0 0 24 24"
   fill="none"
   stroke="currentColor"
   stroke-width="2"
   stroke-linecap="round"
   stroke-linejoin="round"
   version="1.1"
   id="svg2"
   xmlns="http://www.w3.org/2000/svg"
   xmlns:svg="http://www.w3.org/2000/svg">
  <defs
     id="defs2" />
  <path
     id="path1"
     style="color:#000000;fill:#000000;-inkscape-stroke:none"
     d="M 12 4 A 1 1 0 0 0 11.925781 4.0117188 A 1.0001 1.0001 0 0 0 11.767578 4.0371094 A 1 1 0 0 0 11.619141 4.0859375 A 1.0001 1.0001 0 0 0 11.484375 4.1542969 A 1 1 0 0 0 11.355469 4.2460938 A 1.0001 1.0001 0 0 0 11.292969 4.2929688 L 4.2929688 11.292969 A 1 1 0 0 0 4.2929688 12.707031 A 1 1 0 0 0 5.7070312 12.707031 L 11 7.4140625 L 11 19 A 1 1 0 0 0 12 20 A 1 1 0 0 0 13 19 L 13 7.4140625 L 18.292969 12.707031 A 1 1 0 0 0 19.707031 12.707031 A 1 1 0 0 0 19.707031 11.292969 L 12.707031 4.2929688 A 1 1 0 0 0 12.457031 4.1132812 A 1 1 0 0 0 12.453125 4.109375 A 1.0001 1.0001 0 0 0 12.449219 4.1074219 A 1 1 0 0 0 12.169922 4.015625 A 1.0001 1.0001 0 0 0 12.144531 4.0117188 A 1 1 0 0 0 12 4 z "
     stroke-width="0" />
</svg>
