<?xml version="1.0" encoding="UTF-8" standalone="no"?>
<svg
   width="24"
   height="24"
   viewBox="0 0 24 24"
   fill="none"
   stroke="currentColor"
   stroke-width="2"
   stroke-linecap="round"
   stroke-linejoin="round"
   version="1.1"
   id="svg2"
   xmlns="http://www.w3.org/2000/svg"
   xmlns:svg="http://www.w3.org/2000/svg">
  <defs
     id="defs2" />
  <path
     id="rect1"
     style="color:#000000;fill:#000000;-inkscape-stroke:none"
     d="M 5 2 C 3.3553005 2 2 3.3553005 2 5 L 2 19 C 2 20.644699 3.3553005 22 5 22 L 19 22 C 20.644699 22 22 20.644699 22 19 L 22 5 C 22 3.3553005 20.644699 2 19 2 L 5 2 z M 5 4 L 19 4 C 19.571296 4 20 4.4287039 20 5 L 20 19 C 20 19.571296 19.571296 20 19 20 L 5 20 C 4.4287039 20 4 19.571296 4 19 L 4 5 C 4 4.4287039 4.4287039 4 5 4 z M 8 7 A 1 1 0 0 0 7.2929688 7.2929688 A 1 1 0 0 0 7.2929688 8.7070312 L 13.585938 15 L 8 15 A 1 1 0 0 0 7 16 A 1 1 0 0 0 8 17 L 16 17 A 1.0001 1.0001 0 0 0 16.074219 16.988281 A 1 1 0 0 0 16.232422 16.962891 A 1.0001 1.0001 0 0 0 16.380859 16.914062 A 1 1 0 0 0 16.515625 16.845703 A 1.0001 1.0001 0 0 0 16.644531 16.753906 A 1 1 0 0 0 16.707031 16.707031 A 1 1 0 0 0 16.798828 16.597656 A 1.0001 1.0001 0 0 0 16.816406 16.574219 A 1 1 0 0 0 16.947266 16.316406 A 1.0001 1.0001 0 0 0 16.953125 16.296875 A 1 1 0 0 0 17 16 L 17 8 A 1 1 0 0 0 16 7 A 1 1 0 0 0 15 8 L 15 13.585938 L 8.7070312 7.2929688 A 1 1 0 0 0 8 7 z "
     stroke-width="0" />
</svg>
