<?xml version="1.0" encoding="UTF-8" standalone="no"?>
<svg
   width="24"
   height="24"
   viewBox="0 0 24 24"
   fill="none"
   stroke="currentColor"
   stroke-width="2"
   stroke-linecap="round"
   stroke-linejoin="round"
   version="1.1"
   id="svg2"
   xmlns="http://www.w3.org/2000/svg"
   xmlns:svg="http://www.w3.org/2000/svg">
  <defs
     id="defs2" />
  <path
     id="path1"
     style="color:#000000;fill:#000000;-inkscape-stroke:none"
     d="M 9 4 A 1 1 0 0 0 8 5 A 1 1 0 0 0 9 6 L 15 6 A 1 1 0 0 0 16 5 A 1 1 0 0 0 15 4 L 9 4 z M 9 8 A 1.0001 1.0001 0 0 0 8 9 L 8 11 L 5 11 A 1.0001 1.0001 0 0 0 4.2929688 12.707031 L 11.292969 19.707031 A 1.0001 1.0001 0 0 0 12.707031 19.707031 L 19.707031 12.707031 A 1.0001 1.0001 0 0 0 19 11 L 16 11 L 16 9 A 1.0001 1.0001 0 0 0 15 8 L 9 8 z M 10 10 L 14 10 L 14 12 A 1.0001 1.0001 0 0 0 15 13 L 16.585938 13 L 12 17.585938 L 7.4140625 13 L 9 13 A 1.0001 1.0001 0 0 0 10 12 L 10 10 z "
     stroke-width="0" />
</svg>
