<?xml version="1.0" encoding="UTF-8" standalone="no"?>
<svg xmlns="http://www.w3.org/2000/svg" xmlns:svg="http://www.w3.org/2000/svg" width="24" height="24" viewBox="0 0 24 24" fill="currentColor" tags="outwards,direction,south-west,diagonal" categories="arrows,navigation,maps">
  
  <path d="M 11.962891 0.98828125 C 11.570445 0.99159648 11.178912 1.0159778 10.791016 1.0605469 C 9.7566247 1.1793979 8.7451944 1.4427083 7.7910156 1.8378906 C 3.9743005 3.41862 1 7.1421908 1 12 A 1 1 0 0 0 2 13 A 1 1 0 0 0 3 12 C 3 7.948159 5.4128461 4.9875798 8.5566406 3.6855469 C 11.700435 2.383514 15.498589 2.7720267 18.363281 5.6367188 C 21.227973 8.5014109 21.616486 12.299566 20.314453 15.443359 C 19.01242 18.587154 16.051841 21 12 21 A 1 1 0 0 0 11 22 A 1 1 0 0 0 12 23 C 16.857809 23 20.58138 20.0257 22.162109 16.208984 C 23.742839 12.392269 23.211962 7.6572747 19.777344 4.2226562 C 17.523375 1.9686879 14.710007 0.96507465 11.962891 0.98828125 z M 12 11 A 1 1 0 0 0 11.292969 11.292969 L 3 19.585938 L 3 16 A 1 1 0 0 0 2 15 A 1 1 0 0 0 1 16 L 1 22 A 1.0001 1.0001 0 0 0 1.0117188 22.091797 A 1 1 0 0 0 1.0253906 22.197266 A 1.0001 1.0001 0 0 0 1.0898438 22.394531 A 1 1 0 0 0 1.1230469 22.472656 A 1.0001 1.0001 0 0 0 1.2929688 22.707031 A 1.0001 1.0001 0 0 0 1.5273438 22.876953 A 1 1 0 0 0 1.6054688 22.910156 A 1.0001 1.0001 0 0 0 1.8027344 22.974609 A 1 1 0 0 0 1.9082031 22.988281 A 1.0001 1.0001 0 0 0 2 23 L 8 23 A 1 1 0 0 0 9 22 A 1 1 0 0 0 8 21 L 4.4140625 21 L 12.707031 12.707031 A 1 1 0 0 0 12.707031 11.292969 A 1 1 0 0 0 12 11 z "/>
</svg>
