<?xml version="1.0" encoding="UTF-8" standalone="no"?>
<svg
   width="24"
   height="24"
   viewBox="0 0 24 24"
   fill="none"
   stroke="currentColor"
   stroke-width="2"
   stroke-linecap="round"
   stroke-linejoin="round"
   version="1.1"
   id="svg3"
   xmlns="http://www.w3.org/2000/svg"
   xmlns:svg="http://www.w3.org/2000/svg">
  <defs
     id="defs3" />
  <path
     id="path1"
     style="color:#000000;fill:#000000;-inkscape-stroke:none"
     d="M 21 4 A 1 1 0 0 0 20 5 L 20 19 A 1 1 0 0 0 21 20 A 1 1 0 0 0 22 19 L 22 5 A 1 1 0 0 0 21 4 z M 11 5 A 1 1 0 0 0 10.292969 5.2929688 A 1 1 0 0 0 10.292969 6.7070312 L 14.585938 11 L 3 11 A 1 1 0 0 0 2 12 A 1 1 0 0 0 3 13 L 14.585938 13 L 10.292969 17.292969 A 1 1 0 0 0 10.292969 18.707031 A 1 1 0 0 0 11.707031 18.707031 L 17.707031 12.707031 A 1.0001 1.0001 0 0 0 17.798828 12.597656 A 1 1 0 0 0 17.816406 12.574219 A 1.0001 1.0001 0 0 0 17.947266 12.316406 A 1 1 0 0 0 17.953125 12.296875 A 1.0001 1.0001 0 0 0 17.994141 11.888672 A 1 1 0 0 0 17.707031 11.292969 L 11.707031 5.2929688 A 1 1 0 0 0 11 5 z "
     stroke-width="0" />
</svg>
