<?xml version="1.0" encoding="UTF-8" standalone="no"?>
<svg
   width="24"
   height="24"
   viewBox="0 0 24 24"
   fill="none"
   stroke="currentColor"
   stroke-width="2"
   stroke-linecap="round"
   stroke-linejoin="round"
   version="1.1"
   id="svg3"
   xmlns="http://www.w3.org/2000/svg"
   xmlns:svg="http://www.w3.org/2000/svg">
  <defs
     id="defs3" />
  <path
     id="path1"
     style="color:#000000;fill:#000000;-inkscape-stroke:none"
     d="M 12 1 C 7.1421908 1 3.41862 3.9743005 1.8378906 7.7910156 C 0.25716125 11.607731 0.78803786 16.342725 4.2226562 19.777344 C 7.6572747 23.211962 12.392269 23.742839 16.208984 22.162109 C 20.0257 20.58138 23 16.857809 23 12 A 1 1 0 0 0 22 11 A 1 1 0 0 0 21 12 C 21 16.051841 18.587154 19.01242 15.443359 20.314453 C 12.299566 21.616486 8.5014109 21.227973 5.6367188 18.363281 C 2.7720267 15.498589 2.383514 11.700435 3.6855469 8.5566406 C 4.9875798 5.4128461 7.948159 3 12 3 A 1 1 0 0 0 13 2 A 1 1 0 0 0 12 1 z M 16 1 A 1 1 0 0 0 15 2 A 1 1 0 0 0 16 3 L 19.585938 3 L 11.292969 11.292969 A 1 1 0 0 0 11.292969 12.707031 A 1 1 0 0 0 12.707031 12.707031 L 21 4.4140625 L 21 8 A 1 1 0 0 0 22 9 A 1 1 0 0 0 23 8 L 23 2 A 1.0001 1.0001 0 0 0 22.998047 1.984375 A 1 1 0 0 0 22.96875 1.7597656 A 1.0001 1.0001 0 0 0 22.960938 1.7265625 A 1 1 0 0 0 22.867188 1.5039062 A 1 1 0 0 0 22.865234 1.5 A 1.0001 1.0001 0 0 0 22.863281 1.4980469 A 1 1 0 0 0 22.707031 1.2929688 A 1.0001 1.0001 0 0 0 22.472656 1.1230469 A 1 1 0 0 0 22.394531 1.0898438 A 1.0001 1.0001 0 0 0 22.197266 1.0253906 A 1 1 0 0 0 22.091797 1.0117188 A 1.0001 1.0001 0 0 0 22 1 L 16 1 z "
     stroke-width="0" />
</svg>
