<?xml version="1.0" encoding="UTF-8" standalone="no"?>
<svg xmlns="http://www.w3.org/2000/svg" xmlns:svg="http://www.w3.org/2000/svg" width="24" height="24" viewBox="0 0 24 24" fill="currentColor" tags="direction,south-east,diagonal" categories="arrows,navigation">
  
  <path d="M 7 6 A 1 1 0 0 0 6.2929688 6.2929688 A 1 1 0 0 0 6.2929688 7.7070312 L 14.585938 16 L 7 16 A 1 1 0 0 0 6 17 A 1 1 0 0 0 7 18 L 17 18 A 1.0001 1.0001 0 0 0 17.074219 17.988281 A 1 1 0 0 0 17.232422 17.962891 A 1.0001 1.0001 0 0 0 17.380859 17.914062 A 1 1 0 0 0 17.515625 17.845703 A 1.0001 1.0001 0 0 0 17.644531 17.753906 A 1 1 0 0 0 17.707031 17.707031 A 1 1 0 0 0 17.804688 17.591797 A 1 1 0 0 0 17.808594 17.587891 A 1.0001 1.0001 0 0 0 17.8125 17.580078 A 1 1 0 0 0 17.949219 17.3125 A 1 1 0 0 0 17.951172 17.308594 A 1.0001 1.0001 0 0 0 17.951172 17.306641 A 1 1 0 0 0 17.998047 17.011719 A 1.0001 1.0001 0 0 0 18 17 L 18 7 A 1 1 0 0 0 17 6 A 1 1 0 0 0 16 7 L 16 14.585938 L 7.7070312 6.2929688 A 1 1 0 0 0 7 6 z "/>
</svg>
