<?xml version="1.0" encoding="UTF-8" standalone="no"?>
<svg xmlns="http://www.w3.org/2000/svg" xmlns:svg="http://www.w3.org/2000/svg" width="24" height="24" viewBox="0 0 24 24" fill="currentColor" tags="previous,back,direction,west,indicate turn" categories="arrows,navigation,gaming">
  
  <path d="M 12 4 A 1.0001 1.0001 0 0 0 11.292969 4.2929688 L 4.2929688 11.292969 A 1.0001 1.0001 0 0 0 4.2929688 12.707031 L 11.292969 19.707031 A 1.0001 1.0001 0 0 0 13 19 L 13 16 L 18 16 A 1.0001 1.0001 0 0 0 19 15 L 19 9 A 1.0001 1.0001 0 0 0 18 8 L 13 8 L 13 5 A 1.0001 1.0001 0 0 0 12.382812 4.0761719 A 1.0001 1.0001 0 0 0 12 4 z M 11 7.4140625 L 11 9 A 1.0001 1.0001 0 0 0 12 10 L 17 10 L 17 14 L 12 14 A 1.0001 1.0001 0 0 0 11 15 L 11 16.585938 L 6.4140625 12 L 11 7.4140625 z "/>
</svg>
