<?xml version="1.0" encoding="UTF-8" standalone="no"?>
<svg
   width="24"
   height="24"
   viewBox="0 0 24 24"
   fill="none"
   stroke="currentColor"
   stroke-width="2"
   stroke-linecap="round"
   stroke-linejoin="round"
   version="1.1"
   id="svg2"
   xmlns="http://www.w3.org/2000/svg"
   xmlns:svg="http://www.w3.org/2000/svg">
  <defs
     id="defs2" />
  <path
     id="circle1"
     style="color:#000000;fill:#000000;-inkscape-stroke:none"
     d="M 5.8457031 2.0078125 C 4.8087172 2.0403662 3.8136346 2.369577 3.09375 3.0917969 C 2.3701674 3.8118325 2.0403957 4.8077792 2.0078125 5.8457031 C 1.9752293 6.8836272 2.2131966 7.9964411 2.6542969 9.1621094 C 3.0022127 10.081525 3.4806409 11.036582 4.0742188 12 C 3.4806409 12.963418 3.0022127 13.918475 2.6542969 14.837891 C 2.2131966 16.003558 1.9752293 17.116373 2.0078125 18.154297 C 2.0403665 19.191283 2.369577 20.186366 3.0917969 20.90625 L 3.09375 20.90625 L 3.09375 20.908203 C 3.8136346 21.630423 4.8087172 21.959635 5.8457031 21.992188 C 6.8836272 22.024767 7.9964411 21.786804 9.1621094 21.345703 C 10.081525 20.997787 11.036582 20.519359 12 19.925781 C 12.963418 20.519359 13.918475 20.997787 14.837891 21.345703 C 16.003558 21.786804 17.116373 22.024771 18.154297 21.992188 C 19.191283 21.959638 20.186366 21.630423 20.90625 20.908203 L 20.90625 20.90625 L 20.908203 20.90625 C 21.630423 20.186366 21.959635 19.191283 21.992188 18.154297 C 22.024767 17.116373 21.786804 16.003558 21.345703 14.837891 C 20.997787 13.918475 20.519359 12.963418 19.925781 12 C 20.519359 11.036582 20.997787 10.081525 21.345703 9.1621094 C 21.786757 7.9964442 22.024771 6.8836272 21.992188 5.8457031 C 21.959635 4.8087172 21.630423 3.8136346 20.908203 3.09375 C 20.188168 2.3701674 19.192221 2.0403957 18.154297 2.0078125 C 17.116373 1.9752293 16.003558 2.2131966 14.837891 2.6542969 C 13.918475 3.0022127 12.963418 3.4806409 12 4.0742188 C 11.036582 3.4806407 10.081525 3.0022127 9.1621094 2.6542969 C 7.9964411 2.2131966 6.8836272 1.9752293 5.8457031 2.0078125 z M 5.9082031 4.0058594 C 6.5824633 3.9846924 7.4670007 4.1514925 8.4550781 4.5253906 C 9.0013366 4.7321002 9.5806084 5.0073148 10.175781 5.3339844 C 9.3026027 6.00072 8.4350782 6.7541749 7.59375 7.5917969 A 1.0001 1.0001 0 0 0 7.5917969 7.59375 C 6.7541749 8.4350782 6.00072 9.3026027 5.3339844 10.175781 C 5.0069942 9.5801566 4.7322441 9.0017171 4.5253906 8.4550781 C 4.1514925 7.4670007 3.9846926 6.5824633 4.0058594 5.9082031 C 4.0270264 5.2339431 4.209444 4.804728 4.5058594 4.5097656 A 1.0001 1.0001 0 0 0 4.5097656 4.5058594 C 4.804728 4.209444 5.2339431 4.0270262 5.9082031 4.0058594 z M 17.830078 4.0058594 C 17.920723 4.0025939 18.007514 4.0032135 18.091797 4.0058594 C 18.766057 4.0270264 19.195273 4.209444 19.490234 4.5058594 A 1.0001 1.0001 0 0 0 19.494141 4.5097656 C 19.790555 4.804728 19.972974 5.2339431 19.994141 5.9082031 C 20.015311 6.5824633 19.848508 7.4670007 19.474609 8.4550781 C 19.267756 9.0017171 18.993005 9.5801554 18.666016 10.175781 C 17.99928 9.3026027 17.245825 8.4350782 16.408203 7.59375 A 1.0001 1.0001 0 0 0 16.40625 7.5917969 C 15.564923 6.7541738 14.697397 6.0007205 13.824219 5.3339844 C 14.419845 5.0069944 14.998283 4.7322441 15.544922 4.5253906 C 16.409489 4.1982298 17.195562 4.0287176 17.830078 4.0058594 z M 12 6.484375 C 13.001647 7.1935773 14.016934 8.0349112 14.994141 9.0078125 C 15.966085 9.9842871 16.806942 10.99913 17.515625 12 C 16.806942 13.00087 15.966085 14.015713 14.994141 14.992188 L 14.992188 14.992188 L 14.992188 14.994141 C 14.015713 15.966085 13.00087 16.806942 12 17.515625 C 10.99913 16.806942 9.9842871 15.966085 9.0078125 14.994141 L 9.0058594 14.992188 C 8.0339105 14.015737 7.1930594 13.000862 6.484375 12 C 7.1935773 10.998353 8.0349112 9.9830657 9.0078125 9.0058594 C 9.9842871 8.033915 10.99913 7.1930581 12 6.484375 z M 12 10 C 10.907277 10 10 10.907277 10 12 C 10 13.092723 10.907277 14 12 14 C 13.092723 14 14 13.092723 14 12 C 14 10.907277 13.092723 10 12 10 z M 5.3339844 13.824219 C 6.00072 14.697397 6.7541749 15.564922 7.5917969 16.40625 A 1.0001 1.0001 0 0 0 7.59375 16.408203 C 8.4350782 17.245825 9.3026027 17.99928 10.175781 18.666016 C 9.5801554 18.993005 9.0017171 19.267756 8.4550781 19.474609 C 7.4670007 19.848508 6.5824633 20.015307 5.9082031 19.994141 C 5.2339431 19.972971 4.804728 19.790555 4.5097656 19.494141 A 1.0001 1.0001 0 0 0 4.5058594 19.490234 C 4.209444 19.195273 4.0270262 18.766057 4.0058594 18.091797 C 3.9847504 17.417479 4.1514925 16.532999 4.5253906 15.544922 C 4.7321002 14.998663 5.0073148 14.419392 5.3339844 13.824219 z M 18.666016 13.824219 C 18.993005 14.419845 19.267756 14.998283 19.474609 15.544922 C 19.848508 16.532999 20.015307 17.417537 19.994141 18.091797 C 19.972971 18.766057 19.790555 19.195273 19.494141 19.490234 A 1.0001 1.0001 0 0 0 19.490234 19.494141 C 19.195273 19.790555 18.766057 19.972974 18.091797 19.994141 C 17.417537 20.015311 16.532999 19.848508 15.544922 19.474609 C 14.998283 19.267756 14.419845 18.993005 13.824219 18.666016 C 14.697397 17.99928 15.564922 17.245825 16.40625 16.408203 A 1.0001 1.0001 0 0 0 16.408203 16.40625 C 17.245825 15.564922 17.99928 14.697397 18.666016 13.824219 z "
     stroke-width="0" />
</svg>
