<?xml version="1.0" encoding="UTF-8" standalone="no"?>
<svg
   width="24"
   height="24"
   viewBox="0 0 24 24"
   fill="none"
   stroke="currentColor"
   stroke-width="2"
   stroke-linecap="round"
   stroke-linejoin="round"
   version="1.1"
   id="svg1"
   xmlns="http://www.w3.org/2000/svg"
   xmlns:svg="http://www.w3.org/2000/svg">
  <defs
     id="defs1" />
  <path
     id="path1"
     style="color:#000000;fill:#000000;-inkscape-stroke:none"
     d="M 14 1 C 13.27778 1 12.542118 1.2353482 11.960938 1.7519531 C 11.379756 2.268558 11 3.0833353 11 4 L 11 20 C 11 20.416666 10.879754 20.601893 10.710938 20.751953 C 10.54212 20.902013 10.277778 21 10 21 C 9.7222227 21 9.4578802 20.902013 9.2890625 20.751953 C 9.1202448 20.601893 9 20.416666 9 20 L 9 7 C 9 6.0833353 8.6202432 5.268558 8.0390625 4.7519531 C 7.4578818 4.2353482 6.7222207 4 6 4 C 5.2777793 4 4.5421182 4.2353482 3.9609375 4.7519531 C 3.3797568 5.268558 3 6.0833353 3 7 L 3 11 C 3 11.564128 2.5641282 12 2 12 A 1 1 0 0 0 1 13 A 1 1 0 0 0 2 14 C 3.6450064 14 5 12.645006 5 11 L 5 7 C 5 6.5833345 5.1202448 6.398107 5.2890625 6.2480469 C 5.4578802 6.0979867 5.7222227 6 6 6 C 6.2777773 6 6.5421198 6.0979867 6.7109375 6.2480469 C 6.8797552 6.398107 7 6.5833345 7 7 L 7 20 C 7 20.916665 7.3797568 21.731441 7.9609375 22.248047 C 8.5421182 22.764651 9.2777793 23 10 23 C 10.72222 23 11.457881 22.764651 12.039062 22.248047 C 12.620243 21.731441 13 20.916665 13 20 L 13 4 C 13 3.5833345 13.120245 3.398107 13.289062 3.2480469 C 13.457879 3.0979867 13.722222 3 14 3 C 14.277778 3 14.54212 3.0979867 14.710938 3.2480469 C 14.879754 3.398107 15 3.5833345 15 4 L 15 17 C 15 17.916665 15.379756 18.731441 15.960938 19.248047 C 16.542118 19.764651 17.27778 20 18 20 C 18.72222 20 19.457882 19.764651 20.039062 19.248047 C 20.620244 18.731441 21 17.916665 21 17 L 21 13 C 21 12.435872 21.435872 12 22 12 A 1 1 0 0 0 23 11 A 1 1 0 0 0 22 10 C 20.354994 10 19 11.354994 19 13 L 19 17 C 19 17.416666 18.879755 17.601893 18.710938 17.751953 C 18.542121 17.902013 18.277778 18 18 18 C 17.722222 18 17.45788 17.902013 17.289062 17.751953 C 17.120246 17.601893 17 17.416666 17 17 L 17 4 C 17 3.0833353 16.620244 2.268558 16.039062 1.7519531 C 15.457882 1.2353482 14.72222 1 14 1 z "
     stroke-width="0" />
</svg>
