<?xml version="1.0" encoding="UTF-8" standalone="no"?>
<svg
   width="24"
   height="24"
   viewBox="0 0 24 24"
   fill="none"
   stroke="currentColor"
   stroke-width="2"
   stroke-linecap="round"
   stroke-linejoin="round"
   version="1.1"
   id="svg2"
   xmlns="http://www.w3.org/2000/svg"
   xmlns:svg="http://www.w3.org/2000/svg">
  <defs
     id="defs2" />
  <path
     id="path1"
     style="color:#000000;fill:#000000;-inkscape-stroke:none"
     d="M 13 2 A 1.0001 1.0001 0 0 0 12.292969 2.2929688 L 8.2929688 6.2929688 A 1.0001 1.0001 0 0 0 8.2929688 7.7070312 L 9.5859375 9 L 1.7929688 16.792969 C 1.1161936 17.469744 0.79825387 18.34571 0.84570312 19.152344 C 0.89315238 19.958978 1.2608351 20.674898 1.7929688 21.207031 C 2.3251025 21.739165 3.0410219 22.106848 3.8476562 22.154297 C 4.6542905 22.201747 5.5302561 21.883807 6.2070312 21.207031 L 14 13.414062 L 14 16 A 1.0001 1.0001 0 0 0 15.117188 16.992188 C 19.240875 16.502118 22.502118 13.240876 22.992188 9.1171875 A 1.0001 1.0001 0 0 0 22 8 L 19.414062 8 L 13.707031 2.2929688 A 1.0001 1.0001 0 0 0 13 2 z M 13 4.4140625 L 18.292969 9.7070312 A 1.0001 1.0001 0 0 0 19 10 L 20.677734 10 C 20.007709 12.276137 18.276137 14.007709 16 14.677734 L 16 13 A 1.0001 1.0001 0 0 0 15.707031 12.292969 L 14.707031 11.292969 L 11.707031 8.2929688 L 10.414062 7 L 13 4.4140625 z M 11 10.414062 L 12.585938 12 L 4.7929688 19.792969 C 4.4697465 20.11619 4.2207071 20.173254 3.9648438 20.158203 C 3.7089803 20.143152 3.424896 20.010834 3.2070312 19.792969 C 2.9891664 19.575104 2.8568477 19.29102 2.8417969 19.035156 C 2.826746 18.779294 2.8838089 18.530254 3.2070312 18.207031 L 11 10.414062 z "
     stroke-width="0" />
</svg>
