<?xml version="1.0" encoding="UTF-8" standalone="no"?>
<svg
   width="24"
   height="24"
   viewBox="0 0 24 24"
   fill="none"
   stroke="currentColor"
   stroke-width="2"
   stroke-linecap="round"
   stroke-linejoin="round"
   version="1.1"
   id="svg4"
   xmlns="http://www.w3.org/2000/svg"
   xmlns:svg="http://www.w3.org/2000/svg">
  <defs
     id="defs4" />
  <path
     id="path1"
     style="color:#000000;fill:#000000;-inkscape-stroke:none"
     d="M 11.998047 2 C 7.3736584 2.0093345 3.4128379 5.2223682 2.3417969 9.6914062 C 0.83038576 10.860788 0.83130067 13.145614 2.3457031 14.3125 C 3.5723604 19.277713 7.7971962 21.914063 12 21.914062 C 16.202804 21.914062 20.427639 19.277713 21.654297 14.3125 C 23.15783 13.153989 23.166506 10.897582 21.6875 9.71875 C 21.35495 8.2470538 20.723818 6.8573248 19.78125 5.6757812 A 1 1 0 0 0 18.376953 5.5175781 A 1 1 0 0 0 18.21875 6.9238281 C 19.024078 7.9333368 19.57263 9.1228405 19.818359 10.390625 A 1.0001 1.0001 0 0 0 20.363281 11.099609 C 21.175263 11.492871 21.175263 12.507129 20.363281 12.900391 A 1.0001 1.0001 0 0 0 19.822266 13.589844 C 18.900843 17.88735 15.485433 19.914063 12 19.914062 C 8.5145677 19.914062 5.0991571 17.88735 4.1777344 13.589844 A 1.0001 1.0001 0 0 0 3.6367188 12.900391 C 2.8247365 12.507129 2.8247365 11.492871 3.6367188 11.099609 A 1.0001 1.0001 0 0 0 4.1796875 10.400391 C 4.9398395 6.6763817 8.1993976 4.0085986 12 4 C 12.816665 4 13.493401 4.232827 13.916016 4.5371094 C 14.338629 4.8413918 14.5 5.1571435 14.5 5.5 C 14.5 6.4714266 13.933333 7 13.5 7 C 13.270751 7 13.068664 6.9294327 12.992188 6.8828125 A 1 1 0 0 0 12 6 A 1 1 0 0 0 11 7 C 11 7.6888875 11.437246 8.2649309 11.914062 8.5683594 C 12.390878 8.8717878 12.933335 9 13.5 9 C 15.266663 9 16.5 7.3285678 16.5 5.5 C 16.5 4.4428593 15.911368 3.5097783 15.083984 2.9140625 C 14.256601 2.3183467 13.183331 2 12 2 A 1.0001 1.0001 0 0 0 11.998047 2 z M 9 11 A 1 1 0 0 0 8 12 A 1 1 0 0 0 9 13 L 9.0097656 13 A 1 1 0 0 0 10.009766 12 A 1 1 0 0 0 9.0097656 11 L 9 11 z M 15 11 A 1 1 0 0 0 14 12 A 1 1 0 0 0 15 13 L 15.009766 13 A 1 1 0 0 0 16.009766 12 A 1 1 0 0 0 15.009766 11 L 15 11 z M 9.9511719 15 A 1 1 0 0 0 9.7578125 15.029297 A 1 1 0 0 0 9.1425781 15.486328 A 1 1 0 0 0 9.4863281 16.857422 C 10.171276 17.26839 11.033335 17.5 12 17.5 C 12.966665 17.5 13.828724 17.26839 14.513672 16.857422 A 1 1 0 0 0 14.857422 15.486328 A 1 1 0 0 0 13.486328 15.142578 C 13.171278 15.331608 12.633332 15.5 12 15.5 C 11.366668 15.5 10.828722 15.331608 10.513672 15.142578 A 1 1 0 0 0 9.9511719 15 z "
     stroke-width="0" />
</svg>
