<?xml version="1.0" encoding="UTF-8" standalone="no"?>
<svg
   width="24"
   height="24"
   viewBox="0 0 24 24"
   fill="none"
   stroke="currentColor"
   stroke-width="2"
   stroke-linecap="round"
   stroke-linejoin="round"
   version="1.1"
   id="svg2"
   xmlns="http://www.w3.org/2000/svg"
   xmlns:svg="http://www.w3.org/2000/svg">
  <defs
     id="defs2" />
  <path
     id="path1"
     style="color:#000000;fill:#000000;-inkscape-stroke:none"
     d="M 13 1 C 12.402779 1 11.79354 1.2472869 11.410156 1.6699219 C 11.026773 2.0925569 10.8645 2.6036726 10.796875 3.1015625 C 10.661625 4.0973423 10.868905 5.1590386 11.197266 6.1933594 A 1.0001 1.0001 0 0 0 11.199219 6.1972656 C 11.74498 7.8875235 11.708896 9.6076437 11.193359 11.173828 C 10.714111 10.971133 10.21409 10.830782 9.6992188 10.759766 C 7.6093027 10.471501 5.4141934 11.039267 3.5039062 12.130859 A 1 1 0 0 0 3.1308594 13.496094 A 1 1 0 0 0 4.4960938 13.869141 C 6.0857996 12.960737 7.8907044 12.5285 9.4257812 12.740234 C 9.7489 12.784802 10.060429 12.855772 10.359375 12.953125 C 9.2107184 14.797109 7.3133583 16.257039 4.8847656 16.925781 A 1.0001 1.0001 0 0 0 4.8808594 16.925781 C 3.9155375 17.194728 3.1234878 17.320391 2.3710938 17.699219 C 1.9948966 17.888633 1.6132086 18.176757 1.3574219 18.591797 C 1.101635 19.006836 1 19.498335 1 20 C 1 20.759165 1.3581028 21.475892 1.8730469 21.916016 C 2.387991 22.356138 2.9987633 22.578405 3.6289062 22.724609 C 4.889192 23.017019 6.309768 23 7.5097656 23 C 10.946227 23 13.873886 21.468632 15.878906 19.080078 C 16.735004 18.060221 17.427116 16.886102 17.941406 15.607422 C 19.697148 16.192161 21.039327 17.851712 21 19.982422 A 1 1 0 0 0 21.982422 21 A 1 1 0 0 0 23 20.017578 C 23.05579 16.994954 21.065534 14.674392 18.511719 13.873047 C 18.831678 12.640345 19 11.338579 19 10 C 19 8.5126697 18.528274 6.4585014 17.601562 4.6132812 C 17.138208 3.6906713 16.558167 2.8269944 15.806641 2.1542969 C 15.055114 1.4815993 14.089677 1 13 1 z M 13 3 C 13.520319 3 13.984811 3.2059029 14.472656 3.6425781 C 14.960503 4.0792534 15.430311 4.7468322 15.814453 5.5117188 C 16.582739 7.0414919 17 8.9873353 17 10 C 17 11.24681 16.831076 12.448063 16.519531 13.570312 C 15.807725 13.572656 15.083454 13.688208 14.371094 13.9375 C 13.943768 13.280596 13.44929 12.712803 12.904297 12.244141 C 13.706615 10.173423 13.83493 7.8532489 13.101562 5.5820312 C 12.831489 4.728527 12.714723 3.8465172 12.779297 3.3710938 C 12.811672 3.1327351 12.88026 3.0250986 12.890625 3.0136719 C 12.90099 3.0022452 12.847222 3 13 3 z M 12.046875 13.964844 C 12.445888 14.352177 12.80148 14.839288 13.105469 15.447266 A 1.0001 1.0001 0 0 0 14.455078 15.890625 C 14.908651 15.659053 15.372795 15.511888 15.833984 15.4375 C 15.430285 16.304451 14.932054 17.098736 14.347656 17.794922 C 12.680184 19.78136 10.363292 21 7.5097656 21 C 6.309768 21 4.974788 20.982979 4.0800781 20.775391 C 3.6327232 20.671596 3.3170078 20.51886 3.1738281 20.396484 C 3.0306486 20.274109 3 20.240833 3 20 C 3 19.751667 3.0397719 19.674335 3.0605469 19.640625 C 3.0813219 19.606915 3.111432 19.566915 3.2714844 19.486328 C 3.5913201 19.325292 4.3726584 19.144138 5.4160156 18.853516 C 8.316352 18.054872 10.631581 16.251902 12.046875 13.964844 z "
     stroke-width="0" />
</svg>
