<?xml version="1.0" encoding="UTF-8" standalone="no"?>
<svg
   width="24"
   height="24"
   viewBox="0 0 24 24"
   fill="none"
   stroke="currentColor"
   stroke-width="2"
   stroke-linecap="round"
   stroke-linejoin="round"
   version="1.1"
   id="svg1"
   xmlns="http://www.w3.org/2000/svg"
   xmlns:svg="http://www.w3.org/2000/svg">
  <defs
     id="defs1" />
  <path
     id="rect1"
     style="color:#000000;fill:#000000;-inkscape-stroke:none"
     d="M 4 5 C 2.3553005 5 1 6.3553005 1 8 L 1 16 C 1 17.644699 2.3553005 19 4 19 L 20 19 C 21.644699 19 23 17.644699 23 16 L 23 8 C 23 6.3553005 21.644699 5 20 5 L 4 5 z M 4 7 L 20 7 C 20.571296 7 21 7.4287039 21 8 L 21 16 C 21 16.571296 20.571296 17 20 17 L 4 17 C 3.4287039 17 3 16.571296 3 16 L 3 8 C 3 7.4287039 3.4287039 7 4 7 z M 12 9 C 10.354994 9 9 10.354994 9 12 C 9 13.645006 10.354994 15 12 15 C 13.645006 15 15 13.645006 15 12 C 15 10.354994 13.645006 9 12 9 z M 6 11 A 1 1 0 0 0 5 12 A 1 1 0 0 0 6 13 L 6.0097656 13 A 1 1 0 0 0 7.0097656 12 A 1 1 0 0 0 6.0097656 11 L 6 11 z M 12 11 C 12.564128 11 13 11.435872 13 12 C 13 12.564128 12.564128 13 12 13 C 11.435872 13 11 12.564128 11 12 C 11 11.435872 11.435872 11 12 11 z M 18 11 A 1 1 0 0 0 17 12 A 1 1 0 0 0 18 13 L 18.009766 13 A 1 1 0 0 0 19.009766 12 A 1 1 0 0 0 18.009766 11 L 18 11 z "
     stroke-width="0" />
</svg>
