<?xml version="1.0" encoding="UTF-8" standalone="no"?>
<svg
   width="24"
   height="24"
   viewBox="0 0 24 24"
   fill="none"
   stroke="currentColor"
   stroke-width="2"
   stroke-linecap="round"
   stroke-linejoin="round"
   version="1.1"
   id="svg2"
   xmlns="http://www.w3.org/2000/svg"
   xmlns:svg="http://www.w3.org/2000/svg">
  <defs
     id="defs2" />
  <path
     id="path1"
     style="color:#000000;fill:#000000;-inkscape-stroke:none"
     d="M 3 2 A 1 1 0 0 0 2 3 L 2 21 A 1.0001 1.0001 0 0 0 3 22 L 21 22 A 1 1 0 0 0 22 21 A 1 1 0 0 0 21 20 L 4 20 L 4 3 A 1 1 0 0 0 3 2 z M 16 4 C 14.909299 4 14 4.9092994 14 6 L 14 16 C 14 17.090701 14.909299 18 16 18 L 18 18 C 19.090701 18 20 17.090701 20 16 L 20 6 C 20 4.9092994 19.090701 4 18 4 L 16 4 z M 16 6 L 18 6 L 18 16 L 16 16 L 16 6 z M 8 9 C 6.9092994 9 6 9.9092994 6 11 L 6 16 C 6 17.090701 6.9092994 18 8 18 L 10 18 C 11.090701 18 12 17.090701 12 16 L 12 11 C 12 9.9092994 11.090701 9 10 9 L 8 9 z M 8 11 L 10 11 L 10 16 L 8 16 L 8 11 z "
     stroke-width="0" />
</svg>
