<?xml version="1.0" encoding="UTF-8" standalone="no"?>
<svg
   width="24"
   height="24"
   viewBox="0 0 24 24"
   fill="none"
   stroke="currentColor"
   stroke-width="2"
   stroke-linecap="round"
   stroke-linejoin="round"
   version="1.1"
   id="svg4"
   xmlns="http://www.w3.org/2000/svg"
   xmlns:svg="http://www.w3.org/2000/svg">
  <defs
     id="defs4" />
  <path
     id="path1"
     style="color:#000000;fill:#000000;-inkscape-stroke:none"
     d="M 3 2 A 1 1 0 0 0 2 3 L 2 21 A 1.0001 1.0001 0 0 0 3 22 L 21 22 A 1 1 0 0 0 22 21 A 1 1 0 0 0 21 20 L 4 20 L 4 3 A 1 1 0 0 0 3 2 z M 18 4 A 1 1 0 0 0 17 5 L 17 17 A 1 1 0 0 0 18 18 A 1 1 0 0 0 19 17 L 19 5 A 1 1 0 0 0 18 4 z M 13 8 A 1 1 0 0 0 12 9 L 12 17 A 1 1 0 0 0 13 18 A 1 1 0 0 0 14 17 L 14 9 A 1 1 0 0 0 13 8 z M 8 13 A 1 1 0 0 0 7 14 L 7 17 A 1 1 0 0 0 8 18 A 1 1 0 0 0 9 17 L 9 14 A 1 1 0 0 0 8 13 z "
     stroke-width="0" />
</svg>
