<?xml version="1.0" encoding="UTF-8" standalone="no"?>
<svg
   width="24"
   height="24"
   viewBox="0 0 24 24"
   fill="none"
   stroke="currentColor"
   stroke-width="2"
   stroke-linecap="round"
   stroke-linejoin="round"
   version="1.1"
   id="svg4"
   xmlns="http://www.w3.org/2000/svg"
   xmlns:svg="http://www.w3.org/2000/svg">
  <defs
     id="defs4" />
  <path
     id="path1"
     style="color:#000000;fill:#000000;-inkscape-stroke:none"
     d="M 3 2 A 1 1 0 0 0 2 3 L 2 21 A 1.0001 1.0001 0 0 0 3 22 L 21 22 A 1 1 0 0 0 22 21 A 1 1 0 0 0 21 20 L 4 20 L 4 3 A 1 1 0 0 0 3 2 z M 7 5 A 1 1 0 0 0 6 6 A 1 1 0 0 0 7 7 L 10 7 A 1 1 0 0 0 11 6 A 1 1 0 0 0 10 5 L 7 5 z M 7 10 A 1 1 0 0 0 6 11 A 1 1 0 0 0 7 12 L 19 12 A 1 1 0 0 0 20 11 A 1 1 0 0 0 19 10 L 7 10 z M 7 15 A 1 1 0 0 0 6 16 A 1 1 0 0 0 7 17 L 15 17 A 1 1 0 0 0 16 16 A 1 1 0 0 0 15 15 L 7 15 z "
     stroke-width="0" />
</svg>
