<?xml version="1.0" encoding="UTF-8" standalone="no"?>
<svg
   width="24"
   height="24"
   viewBox="0 0 24 24"
   fill="none"
   stroke="currentColor"
   stroke-width="2"
   stroke-linecap="round"
   stroke-linejoin="round"
   version="1.1"
   id="svg2"
   xmlns="http://www.w3.org/2000/svg"
   xmlns:svg="http://www.w3.org/2000/svg">
  <defs
     id="defs2" />
  <path
     id="path1"
     style="color:#000000;fill:#000000;-inkscape-stroke:none"
     d="M 3 2 A 1 1 0 0 0 2 3 L 2 21 A 1.0001 1.0001 0 0 0 3 22 L 21 22 A 1 1 0 0 0 22 21 A 1 1 0 0 0 21 20 L 4 20 L 4 3 A 1 1 0 0 0 3 2 z M 8 4 C 6.9092994 4 6 4.9092994 6 6 L 6 8 C 6 9.0907006 6.9092994 10 8 10 L 18 10 C 19.090701 10 20 9.0907006 20 8 L 20 6 C 20 4.9092994 19.090701 4 18 4 L 8 4 z M 8 6 L 18 6 L 18 8 L 8 8 L 8 6 z M 8 12 C 6.9092994 12 6 12.909299 6 14 L 6 16 C 6 17.090701 6.9092994 18 8 18 L 13 18 C 14.090701 18 15 17.090701 15 16 L 15 14 C 15 12.909299 14.090701 12 13 12 L 8 12 z M 8 14 L 13 14 L 13 16 L 8 16 L 8 14 z "
     stroke-width="0" />
</svg>
