<?xml version="1.0" encoding="UTF-8" standalone="no"?>
<svg
   width="24"
   height="24"
   viewBox="0 0 24 24"
   fill="none"
   stroke="currentColor"
   stroke-width="2"
   stroke-linecap="round"
   stroke-linejoin="round"
   version="1.1"
   id="svg5"
   xmlns="http://www.w3.org/2000/svg"
   xmlns:svg="http://www.w3.org/2000/svg">
  <defs
     id="defs5" />
  <path
     id="path1"
     style="color:#000000;fill:#000000;-inkscape-stroke:none"
     d="M 3 4 A 1 1 0 0 0 2 5 L 2 19 A 1 1 0 0 0 3 20 A 1 1 0 0 0 4 19 L 4 5 A 1 1 0 0 0 3 4 z M 8 4 A 1 1 0 0 0 7 5 L 7 19 A 1 1 0 0 0 8 20 A 1 1 0 0 0 9 19 L 9 5 A 1 1 0 0 0 8 4 z M 12 4 A 1 1 0 0 0 11 5 L 11 19 A 1 1 0 0 0 12 20 A 1 1 0 0 0 13 19 L 13 5 A 1 1 0 0 0 12 4 z M 17 4 A 1 1 0 0 0 16 5 L 16 19 A 1 1 0 0 0 17 20 A 1 1 0 0 0 18 19 L 18 5 A 1 1 0 0 0 17 4 z M 21 4 A 1 1 0 0 0 20 5 L 20 19 A 1 1 0 0 0 21 20 A 1 1 0 0 0 22 19 L 22 5 A 1 1 0 0 0 21 4 z "
     stroke-width="0" />
</svg>
