<?xml version="1.0" encoding="UTF-8" standalone="no"?>
<svg xmlns="http://www.w3.org/2000/svg" xmlns:svg="http://www.w3.org/2000/svg" width="24" height="24" viewBox="0 0 24 24" fill="currentColor" tags="power,electricity,energy,accumulator,charge" categories="connectivity,devices">
  
  <path d="M 4 6 C 2.3549936 6 1 7.3549936 1 9 L 1 15 C 1 16.645006 2.3549936 18 4 18 L 5 18 A 1 1 0 0 0 6 17 A 1 1 0 0 0 5 16 L 4 16 C 3.4358718 16 3 15.564128 3 15 L 3 9 C 3 8.4358718 3.4358718 8 4 8 L 6 8 A 1 1 0 0 0 7 7 A 1 1 0 0 0 6 6 L 4 6 z M 15 6 A 1 1 0 0 0 14 7 A 1 1 0 0 0 15 8 L 16 8 C 16.564128 8 17 8.4358718 17 9 L 17 15 C 17 15.564128 16.564128 16 16 16 L 14 16 A 1 1 0 0 0 13 17 A 1 1 0 0 0 14 18 L 16 18 C 17.645006 18 19 16.645006 19 15 L 19 9 C 19 7.3549936 17.645006 6 16 6 L 15 6 z M 10.912109 6.0039062 A 1 1 0 0 0 10.142578 6.4863281 L 7.1425781 11.486328 A 1.0001 1.0001 0 0 0 8 13 L 10.234375 13 L 8.1425781 16.486328 A 1 1 0 0 0 8.4863281 17.857422 A 1 1 0 0 0 9.8574219 17.513672 L 12.857422 12.513672 A 1.0001 1.0001 0 0 0 12 11 L 9.765625 11 L 11.857422 7.5136719 A 1 1 0 0 0 11.513672 6.1425781 A 1 1 0 0 0 10.912109 6.0039062 z M 22 10 A 1 1 0 0 0 21 11 L 21 13 A 1 1 0 0 0 22 14 A 1 1 0 0 0 23 13 L 23 11 A 1 1 0 0 0 22 10 z "/>
</svg>
