<?xml version="1.0" encoding="UTF-8" standalone="no"?>
<svg
   width="24"
   height="24"
   viewBox="0 0 24 24"
   fill="none"
   stroke="currentColor"
   stroke-width="2"
   stroke-linecap="round"
   stroke-linejoin="round"
   version="1.1"
   id="svg3"
   xmlns="http://www.w3.org/2000/svg"
   xmlns:svg="http://www.w3.org/2000/svg">
  <defs
     id="defs3" />
  <path
     id="rect1"
     style="color:#000000;fill:#000000;-inkscape-stroke:none"
     d="M 4 6 C 2.3553005 6 1 7.3553005 1 9 L 1 15 C 1 16.644699 2.3553005 18 4 18 L 16 18 C 17.644699 18 19 16.644699 19 15 L 19 9 C 19 7.3553005 17.644699 6 16 6 L 4 6 z M 4 8 L 16 8 C 16.571296 8 17 8.4287039 17 9 L 17 15 C 17 15.571296 16.571296 16 16 16 L 4 16 C 3.4287039 16 3 15.571296 3 15 L 3 9 C 3 8.4287039 3.4287039 8 4 8 z M 6 10 A 1 1 0 0 0 5 11 L 5 13 A 1 1 0 0 0 6 14 A 1 1 0 0 0 7 13 L 7 11 A 1 1 0 0 0 6 10 z M 10 10 A 1 1 0 0 0 9 11 L 9 13 A 1 1 0 0 0 10 14 A 1 1 0 0 0 11 13 L 11 11 A 1 1 0 0 0 10 10 z M 22 10 A 1 1 0 0 0 21 11 L 21 13 A 1 1 0 0 0 22 14 A 1 1 0 0 0 23 13 L 23 11 A 1 1 0 0 0 22 10 z "
     stroke-width="0" />
</svg>
