<?xml version="1.0" encoding="UTF-8" standalone="no"?>
<svg xmlns="http://www.w3.org/2000/svg" xmlns:svg="http://www.w3.org/2000/svg" width="24" height="24" viewBox="0 0 24 24" fill="currentColor" tags="power,electricity,energy,accumulator,charge,exclamation mark" categories="connectivity,devices">
  
  <path d="M 4 6 C 2.3549936 6 1 7.3549936 1 9 L 1 15 C 1 15.833332 1.385835 16.549898 1.9179688 17.082031 C 2.4501026 17.614166 3.1666683 18 4 18 L 6 18 A 1 1 0 0 0 7 17 A 1 1 0 0 0 6 16 L 4 16 C 3.8333337 16 3.5498959 15.885834 3.3320312 15.667969 C 3.1141665 15.450104 3 15.166667 3 15 L 3 9 C 3 8.4358718 3.4358718 8 4 8 L 6 8 A 1 1 0 0 0 7 7 A 1 1 0 0 0 6 6 L 4 6 z M 10 6 A 1 1 0 0 0 9 7 L 9 13 A 1 1 0 0 0 10 14 A 1 1 0 0 0 11 13 L 11 7 A 1 1 0 0 0 10 6 z M 14 6 A 1 1 0 0 0 13 7 A 1 1 0 0 0 14 8 L 16 8 C 16.564128 8 17 8.4358718 17 9 L 17 15 C 17 15.166667 16.885834 15.450104 16.667969 15.667969 C 16.450104 15.885834 16.166667 16 16 16 L 14 16 A 1 1 0 0 0 13 17 A 1 1 0 0 0 14 18 L 16 18 C 16.833331 18 17.549898 17.614166 18.082031 17.082031 C 18.614166 16.549898 19 15.833331 19 15 L 19 9 C 19 7.3549936 17.645006 6 16 6 L 14 6 z M 22 10 A 1 1 0 0 0 21 11 L 21 13 A 1 1 0 0 0 22 14 A 1 1 0 0 0 23 13 L 23 11 A 1 1 0 0 0 22 10 z M 10 16 A 1 1 0 0 0 9 17 L 9 17.009766 A 1 1 0 0 0 10 18.009766 A 1 1 0 0 0 11 17.009766 L 11 17 A 1 1 0 0 0 10 16 z "/>
</svg>
