<?xml version="1.0" encoding="UTF-8" standalone="no"?>
<svg
   width="24"
   height="24"
   viewBox="0 0 24 24"
   fill="none"
   stroke="currentColor"
   stroke-width="2"
   stroke-linecap="round"
   stroke-linejoin="round"
   version="1.1"
   id="svg2"
   xmlns="http://www.w3.org/2000/svg"
   xmlns:svg="http://www.w3.org/2000/svg">
  <defs
     id="defs2" />
  <path
     id="path1"
     style="color:#000000;fill:#000000;-inkscape-stroke:none"
     d="M 16.226562 1 C 13.221246 0.89934043 10.074181 2.6872897 9.1933594 6.3652344 C 8.9994844 7.1738125 8.7237821 7.8621553 8.2929688 8.2929688 C 7.8617871 8.7241503 7.1745466 8.9995286 6.3652344 9.1933594 C 2.4420934 10.132902 0.66889674 13.649998 1.0449219 16.824219 C 1.420947 19.998439 3.9659243 23.003086 8 23 C 16.272422 23 23 16.272422 23 8 C 23.003086 3.9659243 19.998439 1.420947 16.824219 1.0449219 C 16.62583 1.0214203 16.426917 1.0067106 16.226562 1 z M 15.714844 2.9902344 C 16.004994 2.981222 16.296587 2.9947884 16.587891 3.0292969 C 18.91832 3.3053647 21.002356 4.9203755 21 8 C 21 15.191548 15.191548 21 8 21 C 4.9203755 21.002356 3.3053647 18.91832 3.0292969 16.587891 C 2.8210859 14.830274 3.3861366 13.031292 4.9609375 11.945312 C 6.7095043 14.330766 10.33159 14.731327 12.53125 12.53125 C 14.73062 10.331464 14.33 6.7096931 11.945312 4.9609375 C 12.851304 3.647141 14.254336 3.0355992 15.714844 2.9902344 z M 11.126953 6.8691406 C 12.271131 7.9895605 12.355317 9.8788224 11.117188 11.117188 C 9.8784217 12.356187 7.9895214 12.270865 6.8691406 11.125 C 7.8122289 10.89653 8.8696062 10.544456 9.7070312 9.7070312 C 10.545464 8.8685984 10.898551 7.8115328 11.126953 6.8691406 z "
     stroke-width="0" />
</svg>
