<?xml version="1.0" encoding="UTF-8" standalone="no"?>
<svg xmlns="http://www.w3.org/2000/svg" xmlns:svg="http://www.w3.org/2000/svg" width="24" height="24" viewBox="0 0 24 24" fill="currentColor" tags="soy free,legume,soy,food,seed,allergy,intolerance,diet" categories="food-beverage">
  
  <path d="M 15.845703 0.99609375 C 15.753604 0.99767195 15.6624 1.0006964 15.570312 1.0058594 C 13.36021 1.129771 11.161368 2.2844033 9.875 4.609375 A 1 1 0 0 0 9.8320312 4.7421875 A 1 1 0 0 0 9.7070312 4.9355469 A 1 1 0 0 0 10.212891 6.2539062 C 10.895654 6.557373 11.441008 7.1041974 11.744141 7.7871094 A 1 1 0 0 0 13.064453 8.2949219 A 1 1 0 0 0 13.572266 6.9746094 C 13.221425 6.1842174 12.674997 5.5044805 11.992188 4.9941406 C 13.31668 3.1502819 15.380251 2.673107 17.25 3.15625 C 19.303078 3.6867654 21.001002 5.3448458 21 8 C 21 10.242324 20.433663 12.345381 19.4375 14.183594 A 1 1 0 0 0 19.839844 15.539062 A 1 1 0 0 0 21.195312 15.136719 C 22.345146 13.014939 23 10.579666 23 8 C 23.001336 4.4571865 20.574304 1.9499986 17.751953 1.2207031 C 17.134564 1.0611698 16.490398 0.98504637 15.845703 0.99609375 z M 2 1 A 1 1 0 0 0 1.2929688 1.2929688 A 1 1 0 0 0 1.2929688 2.7070312 L 7.4335938 8.8476562 C 7.1153771 8.9871653 6.7550753 9.0999922 6.3652344 9.1933594 C 2.4420934 10.132902 0.66889674 13.649998 1.0449219 16.824219 C 1.420947 19.998439 3.9659243 23.003086 8 23 C 11.643792 23.004121 15.149429 21.673876 17.873047 19.287109 L 21.292969 22.707031 A 1 1 0 0 0 22.707031 22.707031 A 1 1 0 0 0 22.707031 21.292969 L 18.605469 17.191406 L 12.535156 11.121094 L 9.7070312 8.2929688 L 2.7070312 1.2929688 A 1 1 0 0 0 2 1 z M 8.9140625 10.328125 L 10.298828 11.712891 C 9.146626 12.282065 7.7644283 12.041409 6.8710938 11.126953 C 7.5348627 10.96606 8.2536069 10.738456 8.9140625 10.328125 z M 4.9589844 11.945312 C 6.5130784 14.070511 9.5532432 14.623045 11.755859 13.169922 L 16.457031 17.871094 C 14.11149 19.885255 11.115894 21.003922 8.0019531 21 A 1.0001 1.0001 0 0 0 8 21 C 4.9203755 21.002356 3.3053647 18.91832 3.0292969 16.587891 C 2.8211286 14.830635 3.3849209 13.031362 4.9589844 11.945312 z "/>
</svg>
