<?xml version="1.0" encoding="UTF-8" standalone="no"?>
<svg xmlns="http://www.w3.org/2000/svg" xmlns:svg="http://www.w3.org/2000/svg" width="24" height="24" viewBox="0 0 24 24" fill="currentColor" tags="food,dish,restaurant,course,meal,meat,bbq,steak" categories="food-beverage">
  
  <path d="M 12.5 1 C 9.2048957 0.99802723 6.2874027 3.1574047 5.3242188 6.3085938 L 5.3359375 6.2675781 C 4.7673768 7.8853917 4.5572301 8.8848358 4.2539062 9.6113281 C 3.9505825 10.33782 3.5679835 10.903727 2.4277344 11.939453 C 1.0488912 13.098718 0.71760997 14.898761 1.234375 16.345703 C 1.3063854 16.547332 1.3970891 16.742669 1.5019531 16.931641 A 1 1 0 0 0 1.5058594 16.947266 L 3.4257812 20.787109 C 4.1010916 22.139801 5.4861561 22.997932 6.9980469 23 A 1.0001 1.0001 0 0 0 7 23 C 11.285413 23 15.819409 21.136555 19.005859 18.494141 C 20.890352 17.07971 22.000589 14.860334 22 12.503906 L 22 12.501953 C 22.0022 11.719074 21.88184 10.940746 21.642578 10.195312 A 1.0001 1.0001 0 0 0 21.589844 10.0625 L 19.419922 5.6074219 C 19.417683 5.6020602 19.414361 5.5971538 19.412109 5.5917969 L 19.398438 5.5625 C 18.312017 3.0081768 15.806159 1 12.5 1 z M 12.5 3 C 15.198942 3 17.018582 4.6670733 17.716797 6.7617188 C 18.415012 8.8563643 17.959936 11.281024 15.800781 12.900391 A 1.0001 1.0001 0 0 0 15.759766 12.931641 C 12.947833 15.274913 8.6999926 17 5 17 C 4.0094431 16.99934 3.3877998 16.42412 3.1191406 15.671875 C 2.8504816 14.91963 2.968344 14.081137 3.734375 13.453125 A 1.0001 1.0001 0 0 0 3.7714844 13.419922 C 5.0312308 12.275649 5.6879346 11.366864 6.0996094 10.380859 C 6.5112841 9.3948556 6.691219 8.4438212 7.2226562 6.9316406 A 1.0001 1.0001 0 0 0 7.2363281 6.8925781 C 7.944811 4.5746788 10.076241 2.9985489 12.5 3 z M 12.5 5 C 10.578852 5 9 6.5788518 9 8.5 C 9 10.421148 10.578852 12 12.5 12 C 14.421148 12 16 10.421148 16 8.5 C 16 6.5788518 14.421148 5 12.5 5 z M 12.5 7 C 13.34027 7 14 7.6597299 14 8.5 C 14 9.3402701 13.34027 10 12.5 10 C 11.65973 10 11 9.3402701 11 8.5 C 11 7.6597299 11.65973 7 12.5 7 z M 19.679688 10.707031 L 19.744141 10.839844 C 19.912374 11.376016 20.001703 11.934006 20 12.496094 A 1.0001 1.0001 0 0 0 20 12.5 C 20.0013 14.231875 19.187083 15.862333 17.800781 16.900391 A 1.0001 1.0001 0 0 0 17.759766 16.931641 C 14.948319 19.274515 10.701504 20.999415 7.0019531 21 C 6.2428503 20.998962 5.5539094 20.571748 5.2148438 19.892578 L 4.7636719 18.990234 C 4.8419073 18.994763 4.9201617 18.999947 5 19 C 9.2863268 19 13.821258 17.135499 17.007812 14.492188 C 18.378128 13.461379 19.248517 12.127647 19.679688 10.707031 z "/>
</svg>
