<?xml version="1.0" encoding="UTF-8" standalone="no"?>
<svg
   width="24"
   height="24"
   viewBox="0 0 24 24"
   fill="none"
   stroke="currentColor"
   stroke-width="2"
   stroke-linecap="round"
   stroke-linejoin="round"
   version="1.1"
   id="svg2"
   xmlns="http://www.w3.org/2000/svg"
   xmlns:svg="http://www.w3.org/2000/svg">
  <defs
     id="defs2" />
  <path
     id="path1"
     style="color:#000000;fill:#000000;-inkscape-stroke:none"
     d="M 12 1 C 8.1458602 1 5 4.1458573 5 8 C 5 11.357136 4.2876451 13.428055 3.6230469 14.646484 C 2.9584485 15.864915 2.4453125 16.167969 2.4453125 16.167969 A 1.0001 1.0001 0 0 0 3 18 L 21 18 A 1.0001 1.0001 0 0 0 21.554688 16.167969 C 21.554688 16.167969 21.041551 15.864915 20.376953 14.646484 C 19.712355 13.428055 19 11.357136 19 8 C 19 4.1458573 15.85414 1 12 1 z M 12 3 C 14.773263 3 17 5.2267346 17 8 C 17 11.64285 17.787648 14.071951 18.623047 15.603516 C 18.771678 15.876006 18.795408 15.779589 18.947266 16 L 5.0527344 16 C 5.2045923 15.779589 5.2283218 15.876006 5.3769531 15.603516 C 6.2123519 14.071951 7 11.64285 7 8 C 7 5.2267346 9.2267363 3 12 3 z M 13.753906 20.001953 A 1 1 0 0 0 12.824219 20.517578 C 12.441621 21.213459 11.558379 21.213459 11.175781 20.517578 A 1 1 0 0 0 10.578125 20.039062 A 1 1 0 0 0 9.8183594 20.123047 A 1 1 0 0 0 9.4238281 21.482422 C 10.515191 23.467427 13.484809 23.467427 14.576172 21.482422 A 1 1 0 0 0 14.181641 20.123047 A 1 1 0 0 0 13.753906 20.001953 z "
     stroke-width="0" />
</svg>
