<?xml version="1.0" encoding="UTF-8" standalone="no"?>
<svg
   width="24"
   height="24"
   viewBox="0 0 24 24"
   fill="none"
   stroke="currentColor"
   stroke-width="2"
   stroke-linecap="round"
   stroke-linejoin="round"
   version="1.1"
   id="svg3"
   xmlns="http://www.w3.org/2000/svg"
   xmlns:svg="http://www.w3.org/2000/svg">
  <defs
     id="defs3" />
  <path
     id="path1"
     style="color:#000000;fill:#000000;-inkscape-stroke:none"
     d="M 9 1 C 4.5935754 1 1 4.5935754 1 9 C 1 11.674647 2.3254389 14.04814 4.3515625 15.501953 C 3.5404365 16.041562 3 16.962449 3 18 L 3 20 C 3 21.644699 4.3553005 23 6 23 L 12 23 C 13.644699 23 15 21.644699 15 20 L 15 19.941406 C 16.663829 19.749419 17.891354 19.118148 18.601562 18.648438 C 19.020392 18.872064 19.496157 19 20 19 C 21.645006 19 23 17.645006 23 16 C 23 14.354994 21.645006 13 20 13 C 18.354994 13 17 14.354994 17 16 C 17 16.416489 17.087709 16.813758 17.244141 17.175781 C 16.767546 17.462366 16.025262 17.794886 14.998047 17.933594 C 14.975377 16.923438 14.442047 16.029909 13.648438 15.501953 C 15.674561 14.04814 17 11.674647 17 9 C 17 4.5935754 13.406425 1 9 1 z M 9 3 C 12.325547 3 15 5.6744535 15 9 C 15 12.325547 12.325547 15 9 15 C 5.6744535 15 3 12.325547 3 9 C 3 5.6744535 5.6744535 3 9 3 z M 18.708984 3.0039062 A 1 1 0 0 0 18.333984 3.1152344 A 1 1 0 0 0 17.914062 4.4648438 C 18.595387 5.7618384 18.985101 7.3614838 19 9.0097656 A 1 1 0 0 0 20.009766 10 A 1 1 0 0 0 21 8.9902344 C 20.982397 7.0427969 20.533277 5.1489291 19.685547 3.5351562 A 1 1 0 0 0 19.097656 3.0449219 A 1 1 0 0 0 18.708984 3.0039062 z M 9 8 A 1 1 0 0 0 8 9 A 1 1 0 0 0 9 10 L 9.0097656 10 A 1 1 0 0 0 10.009766 9 A 1 1 0 0 0 9.0097656 8 L 9 8 z M 20 15 C 20.564128 15 21 15.435872 21 16 C 21 16.564128 20.564128 17 20 17 C 19.775973 17 19.572511 16.930713 19.408203 16.8125 A 1 1 0 0 0 19.40625 16.810547 A 1 1 0 0 0 19.306641 16.693359 A 1 1 0 0 0 19.203125 16.611328 C 19.075776 16.443654 19 16.233312 19 16 C 19 15.435872 19.435872 15 20 15 z M 6 17 L 12 17 C 12.571296 17 13 17.428704 13 18 L 13 20 C 13 20.571296 12.571296 21 12 21 L 6 21 C 5.4287039 21 5 20.571296 5 20 L 5 18 C 5 17.428704 5.4287039 17 6 17 z "
     stroke-width="0" />
</svg>
