<?xml version="1.0" encoding="UTF-8" standalone="no"?>
<svg
   width="24"
   height="24"
   viewBox="0 0 24 24"
   fill="none"
   stroke="currentColor"
   stroke-width="2"
   stroke-linecap="round"
   stroke-linejoin="round"
   version="1.1"
   id="svg4"
   xmlns="http://www.w3.org/2000/svg"
   xmlns:svg="http://www.w3.org/2000/svg">
  <defs
     id="defs4" />
  <path
     id="path1"
     style="color:#000000;fill:#000000;-inkscape-stroke:none"
     d="M 12 1 C 8.1545531 1 5 4.1545531 5 8 C 5 11.357136 4.2876451 13.428055 3.6230469 14.646484 C 2.9584485 15.864915 2.4453125 16.167969 2.4453125 16.167969 A 1.0001 1.0001 0 0 0 3 18 L 21 18 A 1.0001 1.0001 0 0 0 21.554688 16.167969 C 21.554688 16.167969 20.905869 15.774627 20.195312 14.353516 A 1 1 0 0 0 18.853516 13.90625 A 1 1 0 0 0 18.40625 15.248047 C 18.576954 15.589455 18.745837 15.729086 18.925781 16 L 5.0527344 16 C 5.2045923 15.779589 5.2283218 15.876006 5.3769531 15.603516 C 6.2123519 14.071951 7 11.64285 7 8 C 7 5.2454601 9.2454601 3 12 3 C 12.866665 3 13.562897 3.1566872 14.314453 3.5742188 A 1 1 0 0 0 15.673828 3.1855469 A 1 1 0 0 0 15.285156 1.8261719 C 14.236716 1.2437054 13.133331 1 12 1 z M 18 4 A 1 1 0 0 0 17 5 L 17 7 L 15 7 A 1 1 0 0 0 14 8 A 1 1 0 0 0 15 9 L 17 9 L 17 11 A 1 1 0 0 0 18 12 A 1 1 0 0 0 19 11 L 19 9 L 21 9 A 1 1 0 0 0 22 8 A 1 1 0 0 0 21 7 L 19 7 L 19 5 A 1 1 0 0 0 18 4 z M 13.753906 20.001953 A 1 1 0 0 0 12.824219 20.517578 C 12.441621 21.213459 11.558379 21.213459 11.175781 20.517578 A 1 1 0 0 0 10.578125 20.039062 A 1 1 0 0 0 9.8183594 20.123047 A 1 1 0 0 0 9.4238281 21.482422 C 10.515191 23.467427 13.484809 23.467427 14.576172 21.482422 A 1 1 0 0 0 14.181641 20.123047 A 1 1 0 0 0 13.753906 20.001953 z "
     stroke-width="0" />
</svg>
