<?xml version="1.0" encoding="UTF-8" standalone="no"?>
<svg
   width="24"
   height="24"
   viewBox="0 0 24 24"
   fill="none"
   stroke="currentColor"
   stroke-width="2"
   stroke-linecap="round"
   stroke-linejoin="round"
   version="1.1"
   id="svg5"
   xmlns="http://www.w3.org/2000/svg"
   xmlns:svg="http://www.w3.org/2000/svg">
  <defs
     id="defs5" />
  <path
     id="rect1"
     style="color:#000000;fill:#000000;-inkscape-stroke:none"
     d="M 8 3 C 6.3553005 3 5 4.3553005 5 6 L 5 8 C 5 9.6446995 6.3553005 11 8 11 C 9.6446995 11 11 9.6446995 11 8 L 11 6 C 11 4.3553005 9.6446995 3 8 3 z M 14 3 A 1 1 0 0 0 13 4 A 1 1 0 0 0 14 5 L 15 5 L 15 9 L 14 9 A 1 1 0 0 0 13 10 A 1 1 0 0 0 14 11 L 16 11 L 18 11 A 1 1 0 0 0 19 10 A 1 1 0 0 0 18 9 L 17 9 L 17 4 A 1.0001 1.0001 0 0 0 16 3 L 14 3 z M 8 5 C 8.5712961 5 9 5.4287039 9 6 L 9 8 C 9 8.5712961 8.5712961 9 8 9 C 7.4287039 9 7 8.5712961 7 8 L 7 6 C 7 5.4287039 7.4287039 5 8 5 z M 6 13 A 1 1 0 0 0 5 14 A 1 1 0 0 0 6 15 L 7 15 L 7 19 L 6 19 A 1 1 0 0 0 5 20 A 1 1 0 0 0 6 21 L 10 21 A 1 1 0 0 0 11 20 A 1 1 0 0 0 10 19 L 9 19 L 9 14 A 1.0001 1.0001 0 0 0 8 13 L 6 13 z M 16 13 C 14.355301 13 13 14.355301 13 16 L 13 18 C 13 19.644699 14.355301 21 16 21 C 17.644699 21 19 19.644699 19 18 L 19 16 C 19 14.355301 17.644699 13 16 13 z M 16 15 C 16.571296 15 17 15.428704 17 16 L 17 18 C 17 18.571296 16.571296 19 16 19 C 15.428704 19 15 18.571296 15 18 L 15 16 C 15 15.428704 15.428704 15 16 15 z "
     stroke-width="0" />
</svg>
