<?xml version="1.0" encoding="UTF-8" standalone="no"?>
<svg
   width="24"
   height="24"
   viewBox="0 0 24 24"
   fill="none"
   stroke="currentColor"
   stroke-width="2"
   stroke-linecap="round"
   stroke-linejoin="round"
   version="1.1"
   id="svg2"
   xmlns="http://www.w3.org/2000/svg"
   xmlns:svg="http://www.w3.org/2000/svg">
  <defs
     id="defs2" />
  <path
     id="path1"
     style="color:#000000;fill:#000000;-inkscape-stroke:none"
     d="M 6 3 A 1.0001 1.0001 0 0 0 5 4 L 5 12 L 5 20 A 1.0001 1.0001 0 0 0 6 21 L 15 21 C 16.583329 21 17.89811 20.370243 18.748047 19.414062 C 19.597984 18.457883 20 17.22222 20 16 C 20 14.77778 19.597984 13.542117 18.748047 12.585938 C 18.413933 12.210059 18.00687 11.885473 17.541016 11.628906 C 17.612386 11.558858 17.68217 11.488174 17.748047 11.414062 C 18.597984 10.457882 19 9.2222197 19 8 C 19 6.7777803 18.597984 5.5421175 17.748047 4.5859375 C 16.89811 3.6297575 15.583329 3 14 3 L 6 3 z M 7 5 L 14 5 C 15.083331 5 15.768561 5.3702455 16.251953 5.9140625 C 16.735346 6.4578795 17 7.2222237 17 8 C 17 8.7777763 16.735346 9.54212 16.251953 10.085938 C 15.768561 10.629754 15.083331 11 14 11 L 7 11 L 7 5 z M 7 13 L 14 13 L 15 13 C 16.083331 13 16.768561 13.370245 17.251953 13.914062 C 17.735346 14.457879 18 15.222224 18 16 C 18 16.777776 17.735346 17.542121 17.251953 18.085938 C 16.768561 18.629755 16.083331 19 15 19 L 7 19 L 7 13 z "
     stroke-width="0" />
</svg>
