<?xml version="1.0" encoding="UTF-8" standalone="no"?>
<svg
   width="24"
   height="24"
   viewBox="0 0 24 24"
   fill="none"
   stroke="currentColor"
   stroke-width="2"
   stroke-linecap="round"
   stroke-linejoin="round"
   version="1.1"
   id="svg2"
   xmlns="http://www.w3.org/2000/svg"
   xmlns:svg="http://www.w3.org/2000/svg">
  <defs
     id="defs2" />
  <path
     id="circle1"
     style="color:#000000;fill:#000000;-inkscape-stroke:none"
     d="M 22 1 A 1 1 0 0 0 21.292969 1.2929688 L 20.5 2.0859375 L 20.40625 1.9921875 A 1.0001 1.0001 0 0 0 20.40625 1.9902344 C 19.745169 1.3323812 18.872177 1.0039062 18 1.0039062 C 17.127823 1.0039062 16.254784 1.3323905 15.59375 1.9902344 A 1.0001 1.0001 0 0 0 15.59375 1.9921875 L 14.09375 3.4921875 C 13.118727 3.1737585 12.07951 3 11 3 C 5.4890081 3 1 7.4890081 1 13 C 1 18.510991 5.4890081 23 11 23 C 16.510991 23 21 18.510991 21 13 C 21 11.92049 20.826241 10.881273 20.507812 9.90625 L 22.005859 8.4082031 L 22.007812 8.40625 C 23.330022 7.0864412 23.330022 4.9135588 22.007812 3.59375 L 22.005859 3.5917969 L 21.914062 3.5 L 22.707031 2.7070312 A 1 1 0 0 0 22.707031 1.2929688 A 1 1 0 0 0 22 1 z M 18 2.9921875 C 18.356651 2.9921875 18.713303 3.1297382 18.992188 3.40625 L 19.792969 4.2070312 L 20.59375 5.0078125 C 21.151257 5.5633877 21.151257 6.4366123 20.59375 6.9921875 L 19.628906 7.9570312 C 18.760258 6.4772767 17.522723 5.2397415 16.042969 4.3710938 L 17.005859 3.4082031 L 17.007812 3.40625 C 17.286697 3.1297382 17.643349 2.9921875 18 2.9921875 z M 11 5 C 12.021069 5 12.996082 5.1910026 13.892578 5.5371094 A 1 1 0 0 0 13.919922 5.5488281 C 15.99425 6.358603 17.641397 8.0057496 18.451172 10.080078 A 1 1 0 0 0 18.462891 10.107422 C 18.808997 11.003918 19 11.978931 19 13 C 19 17.430114 15.430114 21 11 21 C 6.5698862 21 3 17.430114 3 13 C 3 8.5698862 6.5698862 5 11 5 z "
     stroke-width="0" />
</svg>
