<?xml version="1.0" encoding="UTF-8" standalone="no"?>
<svg
   width="24"
   height="24"
   viewBox="0 0 24 24"
   fill="none"
   stroke="currentColor"
   stroke-width="2"
   stroke-linecap="round"
   stroke-linejoin="round"
   version="1.1"
   id="svg1"
   xmlns="http://www.w3.org/2000/svg"
   xmlns:svg="http://www.w3.org/2000/svg">
  <defs
     id="defs1" />
  <path
     id="path1"
     style="color:#000000;fill:#000000;-inkscape-stroke:none"
     d="M 16.5 1 C 15.65278 1 14.792118 1.2770151 14.117188 1.8769531 C 13.442256 2.4768911 13 3.4166691 13 4.5 C 13 5.1930645 13.218232 5.6740935 13.28125 5.9882812 C 13.34427 6.3024691 13.358439 6.2274952 13.292969 6.2929688 L 6.2929688 13.292969 C 6.2274948 13.358439 6.3024684 13.34427 5.9882812 13.28125 C 5.6740935 13.218233 5.1930645 13 4.5 13 C 3.4166691 13 2.4768911 13.442256 1.8769531 14.117188 C 1.2770151 14.792118 1 15.65278 1 16.5 C 1 17.34722 1.2770151 18.207882 1.8769531 18.882812 C 2.3932989 19.463702 3.1894417 19.813509 4.0839844 19.916016 C 4.1864912 20.810558 4.5362983 21.606701 5.1171875 22.123047 C 5.792118 22.722984 6.6527795 23 7.5 23 C 8.3472205 23 9.207882 22.722984 9.8828125 22.123047 C 10.557743 21.523108 11 20.583331 11 19.5 C 11 18.806936 10.781768 18.325906 10.71875 18.011719 C 10.65573 17.697531 10.641561 17.772505 10.707031 17.707031 L 17.707031 10.707031 C 17.772501 10.641561 17.697531 10.65573 18.011719 10.71875 C 18.325907 10.781767 18.806936 11 19.5 11 C 20.583331 11 21.523108 10.557743 22.123047 9.8828125 C 22.722984 9.207882 23 8.3472205 23 7.5 C 23 6.6527795 22.722984 5.792118 22.123047 5.1171875 C 21.606701 4.5362983 20.810558 4.1864912 19.916016 4.0839844 C 19.813509 3.1894417 19.463702 2.3932989 18.882812 1.8769531 C 18.207882 1.2770151 17.34722 1 16.5 1 z M 16.5 3 C 16.902777 3 17.292121 3.1396536 17.554688 3.3730469 C 17.817255 3.6064401 18 3.9166683 18 4.5 C 18 5.3165809 18.683419 6 19.5 6 C 20.083331 6 20.39356 6.182745 20.626953 6.4453125 C 20.860347 6.70788 21 7.0972229 21 7.5 C 21 7.9027771 20.860347 8.29212 20.626953 8.5546875 C 20.39356 8.817255 20.083331 9 19.5 9 C 19.383066 9 18.96456 8.8697945 18.40625 8.7578125 C 17.84794 8.6458305 16.927493 8.6584437 16.292969 9.2929688 L 9.2929688 16.292969 C 8.6584437 16.927493 8.6458305 17.84794 8.7578125 18.40625 C 8.8697945 18.96456 9 19.383066 9 19.5 C 9 20.083331 8.817255 20.39356 8.5546875 20.626953 C 8.29212 20.860347 7.9027771 21 7.5 21 C 7.0972229 21 6.70788 20.860347 6.4453125 20.626953 C 6.182745 20.39356 6 20.083331 6 19.5 C 6 18.696192 5.3038079 18 4.5 18 C 3.9166683 18 3.6064401 17.817255 3.3730469 17.554688 C 3.1396536 17.292121 3 16.902777 3 16.5 C 3 16.097223 3.1396536 15.707879 3.3730469 15.445312 C 3.6064401 15.182745 3.9166683 15 4.5 15 C 4.6169339 15 5.0354396 15.130205 5.59375 15.242188 C 6.1520604 15.354169 7.0725063 15.341558 7.7070312 14.707031 L 14.707031 7.7070312 C 15.341557 7.0725063 15.354169 6.1520604 15.242188 5.59375 C 15.130205 5.0354396 15 4.6169339 15 4.5 C 15 3.9166683 15.182745 3.6064401 15.445312 3.3730469 C 15.707879 3.1396536 16.097223 3 16.5 3 z "
     stroke-width="0" />
</svg>
