<?xml version="1.0" encoding="UTF-8" standalone="no"?>
<svg
   width="24"
   height="24"
   viewBox="0 0 24 24"
   fill="none"
   stroke="currentColor"
   stroke-width="2"
   stroke-linecap="round"
   stroke-linejoin="round"
   version="1.1"
   id="svg6"
   xmlns="http://www.w3.org/2000/svg"
   xmlns:svg="http://www.w3.org/2000/svg">
  <defs
     id="defs6" />
  <path
     id="path1"
     style="color:#000000;fill:#000000;-inkscape-stroke:none"
     d="M 2 2 A 1.0001 1.0001 0 0 0 1 3 L 1 18 A 1.0001 1.0001 0 0 0 2 19 L 9 19 C 10.116412 19 11 19.883588 11 21 A 1.0001 1.0001 0 0 0 13 21 C 13 19.883588 13.883588 19 15 19 L 22 19 A 1.0001 1.0001 0 0 0 23 18 L 23 3 A 1.0001 1.0001 0 0 0 22 2 L 16 2 C 14.366186 2 12.91391 2.7977893 12 4.0195312 C 11.08609 2.7977893 9.6338144 2 8 2 L 2 2 z M 3 4 L 8 4 C 9.6686955 4 11 5.3313045 11 7 L 11 17.619141 C 10.401871 17.261655 9.742643 17 9 17 L 3 17 L 3 4 z M 16 4 L 21 4 L 21 17 L 15 17 C 14.257357 17 13.598129 17.261655 13 17.619141 L 13 7 C 13 5.3313045 14.331305 4 16 4 z M 6 7 A 1 1 0 0 0 5 8 A 1 1 0 0 0 6 9 L 8 9 A 1 1 0 0 0 9 8 A 1 1 0 0 0 8 7 L 6 7 z M 16 7 A 1 1 0 0 0 15 8 A 1 1 0 0 0 16 9 L 18 9 A 1 1 0 0 0 19 8 A 1 1 0 0 0 18 7 L 16 7 z M 6 11 A 1 1 0 0 0 5 12 A 1 1 0 0 0 6 13 L 8 13 A 1 1 0 0 0 9 12 A 1 1 0 0 0 8 11 L 6 11 z M 16 11 A 1 1 0 0 0 15 12 A 1 1 0 0 0 16 13 L 18 13 A 1 1 0 0 0 19 12 A 1 1 0 0 0 18 11 L 16 11 z "
     stroke-width="0" />
</svg>
