<?xml version="1.0" encoding="UTF-8" standalone="no"?>
<svg xmlns="http://www.w3.org/2000/svg" xmlns:svg="http://www.w3.org/2000/svg" width="24" height="24" viewBox="0 0 24 24" fill="currentColor" tags="code,coding,version control,git,repository,clone,fork,duplicate,multiple,books,library,copies,copied,plagiarism,plagiarised,plagiarized,reading list,information,informed,knowledge,knowledgeable,knowledgable,education,high school,university,college,academy,student,study,learning,research,smart,intelligent,intellectual" categories="development,text,gaming">
  
  <path d="M 4 1 C 2.3549936 1 1 2.3549936 1 4 L 1 16 C 1 16.72222 1.2353482 17.457882 1.7519531 18.039062 C 2.268558 18.620244 3.0833353 19 4 19 L 5 19 A 1 1 0 0 0 6 18 A 1 1 0 0 0 5 17 L 4 17 C 3.5833345 17 3.398107 16.879755 3.2480469 16.710938 C 3.0979867 16.542121 3 16.277778 3 16 C 3 15.722222 3.0979867 15.457879 3.2480469 15.289062 C 3.398107 15.120245 3.5833345 15 4 15 L 5 15 A 1 1 0 0 0 6 14 A 1 1 0 0 0 5 13 L 4 13 C 3.648033 13 3.310813 13.056324 3 13.158203 L 3 4 C 3 3.4358718 3.4358718 3 4 3 L 15 3 A 1 1 0 0 0 16 2 A 1 1 0 0 0 15 1 L 4 1 z M 11 5 C 9.3549936 5 8 6.3549936 8 8 L 8 20 C 8 20.72222 8.2353482 21.457882 8.7519531 22.039062 C 9.268558 22.620244 10.083335 23 11 23 L 22 23 A 1.0001 1.0001 0 0 0 23 22 L 23 18 L 23 6 A 1.0001 1.0001 0 0 0 22 5 L 11 5 z M 11 7 L 21 7 L 21 17 L 11 17 C 10.640114 17 10.316478 17.09886 10 17.205078 L 10 8 C 10 7.4358718 10.435872 7 11 7 z M 11 19 L 21 19 L 21 21 L 11 21 C 10.583334 21 10.398107 20.879755 10.248047 20.710938 C 10.097987 20.542121 10 20.277778 10 20 C 10 19.722222 10.097987 19.45788 10.248047 19.289062 C 10.398107 19.120246 10.583334 19 11 19 z "/>
</svg>
