<?xml version="1.0" encoding="UTF-8" standalone="no"?>
<svg xmlns="http://www.w3.org/2000/svg" xmlns:svg="http://www.w3.org/2000/svg" width="24" height="24" viewBox="0 0 24 24" fill="currentColor" tags="code,coding,version control,git,repository,pull" categories="development">
  
  <path d="M 6.5 1 C 4.5788518 1 3 2.5788518 3 4.5 L 3 19.5 C 3 20.34722 3.2770151 21.207882 3.8769531 21.882812 C 4.4768911 22.557744 5.4166691 23 6.5 23 L 20 23 A 1.0001 1.0001 0 0 0 21 22 L 21 17 L 21 2 A 1.0001 1.0001 0 0 0 20 1 L 6.5 1 z M 6.5 3 L 19 3 L 19 16 L 6.5 16 C 5.9545365 16 5.4474593 16.113136 5 16.310547 L 5 4.5 C 5 3.6597299 5.6597299 3 6.5 3 z M 12 6 A 1 1 0 0 0 11 7 L 11 10.585938 L 9.7070312 9.2929688 A 1 1 0 0 0 9 9 A 1 1 0 0 0 8.2929688 9.2929688 A 1 1 0 0 0 8.2929688 10.707031 L 11.292969 13.707031 A 1.0001 1.0001 0 0 0 11.333984 13.738281 A 1 1 0 0 0 11.451172 13.828125 A 1.0001 1.0001 0 0 0 11.53125 13.876953 A 1 1 0 0 0 11.699219 13.947266 A 1.0001 1.0001 0 0 0 11.753906 13.966797 A 1 1 0 0 0 12 14 A 1 1 0 0 0 12.246094 13.966797 A 1.0001 1.0001 0 0 0 12.300781 13.947266 A 1 1 0 0 0 12.46875 13.876953 A 1.0001 1.0001 0 0 0 12.548828 13.828125 A 1 1 0 0 0 12.666016 13.738281 A 1.0001 1.0001 0 0 0 12.707031 13.707031 L 15.707031 10.707031 A 1 1 0 0 0 15.707031 9.2929688 A 1 1 0 0 0 14.292969 9.2929688 L 13 10.585938 L 13 7 A 1 1 0 0 0 12 6 z M 6.5 18 L 19 18 L 19 21 L 6.5 21 C 5.9166683 21 5.6064401 20.817255 5.3730469 20.554688 C 5.1396536 20.292121 5 19.902777 5 19.5 C 5 19.097223 5.1396536 18.70788 5.3730469 18.445312 C 5.6064401 18.182746 5.9166683 18 6.5 18 z "/>
</svg>
