<?xml version="1.0" encoding="UTF-8" standalone="no"?>
<svg
   width="24"
   height="24"
   viewBox="0 0 24 24"
   fill="none"
   stroke="currentColor"
   stroke-width="2"
   stroke-linecap="round"
   stroke-linejoin="round"
   version="1.1"
   id="svg3"
   xmlns="http://www.w3.org/2000/svg"
   xmlns:svg="http://www.w3.org/2000/svg">
  <defs
     id="defs3" />
  <path
     id="path1"
     style="color:#000000;fill:#000000;-inkscape-stroke:none"
     d="M 6.5 1 C 4.5788518 1 3 2.5788518 3 4.5 L 3 19.5 C 3 20.34722 3.2770151 21.207882 3.8769531 21.882812 C 4.4768911 22.557744 5.4166691 23 6.5 23 L 20 23 A 1.0001 1.0001 0 0 0 21 22 L 21 17 L 21 2 A 1.0001 1.0001 0 0 0 20 1 L 6.5 1 z M 6.5 3 L 19 3 L 19 16 L 6.5 16 C 5.9545365 16 5.4474593 16.113136 5 16.310547 L 5 4.5 C 5 3.6597299 5.6597299 3 6.5 3 z M 12 5 A 1.0001 1.0001 0 0 0 11.130859 5.5039062 L 8.3828125 10.3125 A 1 1 0 0 0 8.1367188 10.742188 L 7.1308594 12.503906 A 1 1 0 0 0 7.5039062 13.869141 A 1 1 0 0 0 8.8691406 13.496094 L 9.7246094 12 L 14.275391 12 L 15.130859 13.496094 A 1 1 0 0 0 16.496094 13.869141 A 1 1 0 0 0 16.869141 12.503906 L 12.869141 5.5039062 A 1.0001 1.0001 0 0 0 12 5 z M 12 8.0175781 L 13.132812 10 L 10.867188 10 L 12 8.0175781 z M 6.5 18 L 19 18 L 19 21 L 6.5 21 C 5.9166683 21 5.6064401 20.817255 5.3730469 20.554688 C 5.1396536 20.292121 5 19.902777 5 19.5 C 5 19.097223 5.1396536 18.70788 5.3730469 18.445312 C 5.6064401 18.182746 5.9166683 18 6.5 18 z "
     stroke-width="0" />
</svg>
