<?xml version="1.0" encoding="UTF-8" standalone="no"?>
<svg
   width="24"
   height="24"
   viewBox="0 0 24 24"
   fill="none"
   stroke="currentColor"
   stroke-width="2"
   stroke-linecap="round"
   stroke-linejoin="round"
   version="1.1"
   id="svg3"
   xmlns="http://www.w3.org/2000/svg"
   xmlns:svg="http://www.w3.org/2000/svg">
  <defs
     id="defs3" />
  <path
     id="path1"
     style="color:#000000;fill:#000000;-inkscape-stroke:none"
     d="M 6.5 1 C 4.5788518 1 3 2.5788518 3 4.5 L 3 19.5 C 3 20.34722 3.2770151 21.207882 3.8769531 21.882812 C 4.4768911 22.557744 5.4166691 23 6.5 23 L 20 23 A 1.0001 1.0001 0 0 0 21 22 L 21 17 L 21 2 A 1.0001 1.0001 0 0 0 20 1 L 6.5 1 z M 6.5 3 L 19 3 L 19 16 L 6.5 16 C 5.9545365 16 5.4474593 16.113136 5 16.310547 L 5 4.5 C 5 3.6597299 5.6597299 3 6.5 3 z M 12 6 A 1 1 0 0 0 11.753906 6.0332031 A 1.0001 1.0001 0 0 0 11.699219 6.0527344 A 1 1 0 0 0 11.53125 6.1230469 A 1.0001 1.0001 0 0 0 11.451172 6.171875 A 1 1 0 0 0 11.333984 6.2617188 A 1.0001 1.0001 0 0 0 11.292969 6.2929688 L 8.2929688 9.2929688 A 1 1 0 0 0 8.2929688 10.707031 A 1 1 0 0 0 9.7070312 10.707031 L 11 9.4140625 L 11 13 A 1 1 0 0 0 12 14 A 1 1 0 0 0 13 13 L 13 9.4140625 L 14.292969 10.707031 A 1 1 0 0 0 15.707031 10.707031 A 1 1 0 0 0 15.707031 9.2929688 L 12.736328 6.3222656 A 1 1 0 0 0 12.707031 6.2929688 A 1 1 0 0 0 12.5 6.1347656 A 1 1 0 0 0 12.257812 6.0351562 A 1 1 0 0 0 12 6 z M 6.5 18 L 19 18 L 19 21 L 6.5 21 C 5.9166683 21 5.6064401 20.817255 5.3730469 20.554688 C 5.1396536 20.292121 5 19.902777 5 19.5 C 5 19.097223 5.1396536 18.70788 5.3730469 18.445312 C 5.6064401 18.182746 5.9166683 18 6.5 18 z "
     stroke-width="0" />
</svg>
