<?xml version="1.0" encoding="UTF-8" standalone="no"?>
<svg xmlns="http://www.w3.org/2000/svg" xmlns:svg="http://www.w3.org/2000/svg" width="24" height="24" viewBox="0 0 24 24" fill="currentColor" tags="radio,speakers,audio,music,sound,broadcast,live,frequency" categories="devices,multimedia,social">
  
  <path d="M 6 2 C 4.3549936 2 3 3.3549936 3 5 L 3 8.1777344 C 1.8410552 8.5942467 1 9.7058733 1 11 L 1 19 C 1 20.644699 2.3553005 22 4 22 L 20 22 C 21.644699 22 23 20.644699 23 19 L 23 11 C 23 9.7058733 22.158945 8.5942467 21 8.1777344 L 21 5 C 21 3.3549936 19.645006 2 18 2 L 6 2 z M 6 4 L 18 4 C 18.564128 4 19 4.4358718 19 5 L 19 8 L 17 8 A 1 1 0 0 0 16 7 A 1 1 0 0 0 15 8 L 13 8 A 1 1 0 0 0 12 7 A 1 1 0 0 0 11 8 L 9 8 A 1 1 0 0 0 8 7 A 1 1 0 0 0 7 8 L 5 8 L 5 5 C 5 4.4358718 5.4358718 4 6 4 z M 4 10 L 20 10 C 20.571296 10 21 10.428704 21 11 L 21 19 C 21 19.571296 20.571296 20 20 20 L 4 20 C 3.4287039 20 3 19.571296 3 19 L 3 11 C 3 10.428704 3.4287039 10 4 10 z M 8 12 C 6.3549936 12 5 13.354994 5 15 C 5 16.645006 6.3549936 18 8 18 C 9.6450064 18 11 16.645006 11 15 C 11 13.354994 9.6450064 12 8 12 z M 16 12 C 14.354994 12 13 13.354994 13 15 C 13 16.645006 14.354994 18 16 18 C 17.645006 18 19 16.645006 19 15 C 19 13.354994 17.645006 12 16 12 z M 8 14 C 8.5641282 14 9 14.435872 9 15 C 9 15.564128 8.5641282 16 8 16 C 7.4358718 16 7 15.564128 7 15 C 7 14.435872 7.4358718 14 8 14 z M 16 14 C 16.564128 14 17 14.435872 17 15 C 17 15.564128 16.564128 16 16 16 C 15.435872 16 15 15.564128 15 15 C 15 14.435872 15.435872 14 16 14 z "/>
</svg>
