<?xml version="1.0" encoding="UTF-8" standalone="no"?>
<svg xmlns="http://www.w3.org/2000/svg" xmlns:svg="http://www.w3.org/2000/svg" width="24" height="24" viewBox="0 0 24 24" fill="currentColor" tags="cubes,packages,parts,group,units,collection,cluster,geometry" categories="shapes,gaming,development">
  
  <path d="M 12 1.3359375 C 11.464797 1.3359375 10.929668 1.4785382 10.455078 1.7636719 L 10.455078 1.7617188 L 7.4550781 3.5625 C 7.0124884 3.8284063 6.6528989 4.1994693 6.4023438 4.6328125 A 1 1 0 0 0 6.4023438 4.6347656 C 6.1442048 5.0817938 6.001167 5.5944927 6 6.1269531 A 1.0001 1.0001 0 0 0 6 6.1308594 L 6 9.9335938 L 2.4550781 12.0625 C 2.0124884 12.328406 1.6528989 12.699469 1.4023438 13.132812 A 1 1 0 0 0 1.4023438 13.134766 C 1.1442048 13.581794 1.001167 14.094493 1 14.626953 A 1.0001 1.0001 0 0 0 1 14.630859 L 1 17.869141 A 1.0001 1.0001 0 0 0 1 17.873047 C 1.0023 18.922402 1.5555777 19.897084 2.4550781 20.4375 L 5.4550781 22.238281 L 5.4550781 22.236328 C 5.9095097 22.509351 6.4193112 22.650513 6.9316406 22.662109 A 1 1 0 0 0 7 22.669922 A 1 1 0 0 0 7.0683594 22.662109 C 7.5806888 22.650513 8.0904903 22.509351 8.5449219 22.236328 L 8.5449219 22.238281 L 12 20.166016 L 15.455078 22.238281 L 15.455078 22.236328 C 15.90951 22.509351 16.419311 22.650513 16.931641 22.662109 A 1 1 0 0 0 17 22.669922 A 1 1 0 0 0 17.068359 22.662109 C 17.580689 22.650513 18.09049 22.509351 18.544922 22.236328 L 18.544922 22.238281 L 21.544922 20.4375 C 22.444422 19.897084 22.9977 18.922402 23 17.873047 A 1.0001 1.0001 0 0 0 23 17.871094 A 1.0001 1.0001 0 0 0 23 17.869141 L 23 14.630859 A 1.0001 1.0001 0 0 0 23 14.628906 A 1.0001 1.0001 0 0 0 23 14.626953 C 22.998895 14.12282 22.869451 13.636819 22.636719 13.207031 A 1 1 0 0 0 22.609375 13.154297 C 22.60609 13.148508 22.60098 13.140533 22.597656 13.134766 C 22.347064 12.700804 21.988 12.3287 21.544922 12.0625 L 18 9.9335938 L 18 6.1308594 A 1.0001 1.0001 0 0 0 18 6.1289062 A 1.0001 1.0001 0 0 0 18 6.1269531 C 17.998895 5.6228279 17.869451 5.1368165 17.636719 4.7070312 A 1 1 0 0 0 17.609375 4.6542969 C 17.60609 4.6485076 17.60098 4.640533 17.597656 4.6347656 C 17.347064 4.2008063 16.988 3.8287001 16.544922 3.5625 L 13.544922 1.7617188 L 13.544922 1.7636719 C 13.070332 1.4785414 12.535203 1.3359375 12 1.3359375 z M 12 3.3339844 C 12.178175 3.3339844 12.356351 3.3808707 12.515625 3.4765625 L 15.050781 4.9980469 L 12 6.8320312 L 8.9492188 4.9980469 L 11.484375 3.4765625 C 11.643649 3.3808707 11.821825 3.3339844 12 3.3339844 z M 8 6.7636719 L 11 8.5644531 L 11 11.734375 L 8 9.9335938 L 8 6.7636719 z M 16 6.7636719 L 16 9.9335938 L 13 11.734375 L 13 8.5644531 L 16 6.7636719 z M 7 11.666016 L 10.056641 13.5 L 7.0019531 15.333984 L 3.9492188 13.498047 L 7 11.666016 z M 17 11.666016 L 20.050781 13.498047 L 16.998047 15.333984 L 13.943359 13.5 L 17 11.666016 z M 3 15.263672 L 6 17.066406 L 6 20.232422 L 3.484375 18.722656 C 3.1833943 18.541781 3.0013974 18.220161 3 17.869141 L 3 15.263672 z M 21 15.263672 L 21 17.869141 C 20.9986 18.220161 20.816606 18.541828 20.515625 18.722656 L 18 20.232422 L 18 17.066406 L 21 15.263672 z M 11 15.265625 L 11 18.433594 L 8 20.230469 L 8 17.064453 L 11 15.265625 z M 13 15.265625 L 16 17.064453 L 16 20.230469 L 13 18.433594 L 13 15.265625 z "/>
</svg>
