<?xml version="1.0" encoding="UTF-8" standalone="no"?>
<svg
   width="24"
   height="24"
   viewBox="0 0 24 24"
   fill="none"
   stroke="currentColor"
   stroke-width="2"
   stroke-linecap="round"
   stroke-linejoin="round"
   version="1.1"
   id="svg2"
   xmlns="http://www.w3.org/2000/svg"
   xmlns:svg="http://www.w3.org/2000/svg">
  <defs
     id="defs2" />
  <path
     id="path1"
     style="color:#000000;fill:#000000;-inkscape-stroke:none"
     d="M 5 2 A 1.0001 1.0001 0 0 0 4 3 L 4 21 A 1.0001 1.0001 0 0 0 5 22 L 8 22 A 1 1 0 0 0 9 21 A 1 1 0 0 0 8 20 L 6 20 L 6 4 L 8 4 A 1 1 0 0 0 9 3 A 1 1 0 0 0 8 2 L 5 2 z M 16 2 A 1 1 0 0 0 15 3 A 1 1 0 0 0 16 4 L 18 4 L 18 20 L 16 20 A 1 1 0 0 0 15 21 A 1 1 0 0 0 16 22 L 19 22 A 1.0001 1.0001 0 0 0 20 21 L 20 3 A 1.0001 1.0001 0 0 0 19 2 L 16 2 z "
     stroke-width="0" />
</svg>
