<?xml version="1.0" encoding="UTF-8" standalone="no"?>
<svg xmlns="http://www.w3.org/2000/svg" xmlns:svg="http://www.w3.org/2000/svg" width="24" height="24" viewBox="0 0 24 24" fill="currentColor" tags="mind,intellect,artificial intelligence,ai,deep learning,machine learning,computing" categories="science,development">
  
  <path d="M 9.5546875 0.98632812 C 8.2077001 0.97620437 6.8279671 1.8146161 6.28125 3.2929688 C 4.9514789 3.8063348 4.0942298 5.0454864 4.0722656 6.4609375 C 2.3307508 7.3086115 1.655152 9.3804031 2.5390625 11.089844 C 1.5578888 11.93272 0.93358278 13.059907 1.0058594 14.246094 C 1.0830083 15.51224 1.904995 16.648593 3.1191406 17.345703 C 3.0530977 19.282928 4.5739296 20.867168 6.5117188 20.880859 C 7.1136161 22.131096 8.2288174 22.981554 9.4648438 22.994141 C 10.753886 23.007271 11.957573 22.135144 12.550781 20.794922 A 1.0001 1.0001 0 0 0 12.851562 20.3125 C 12.864512 20.26048 12.918858 20.24286 12.929688 20.189453 L 12.902344 20.207031 A 1.0001 1.0001 0 0 0 13 20 L 13 19 L 18 19 C 18.522121 19 18.933686 19.37409 18.992188 19.876953 C 18.692257 20.143559 18.5 20.583334 18.5 21 C 18.5 21.416666 18.692257 21.856441 18.992188 22.123047 C 19.292119 22.389653 19.652778 22.5 20 22.5 C 20.347222 22.5 20.707882 22.389653 21.007812 22.123047 C 21.307744 21.856441 21.5 21.416666 21.5 21 C 21.5 20.583334 21.307744 20.143559 21.007812 19.876953 C 21.003989 19.873555 20.999937 19.870535 20.996094 19.867188 C 20.925902 18.282368 19.600753 17 18 17 L 13 17 L 13 14 L 14.871094 14 C 14.909101 14.044282 14.949595 14.085187 14.992188 14.123047 C 15.292118 14.389653 15.652778 14.5 16 14.5 C 16.347222 14.5 16.707882 14.389653 17.007812 14.123047 C 17.307744 13.856441 17.5 13.416666 17.5 13 C 17.5 12.583334 17.307744 12.143559 17.007812 11.876953 C 16.707882 11.610347 16.347222 11.5 16 11.5 C 15.652778 11.5 15.292118 11.610347 14.992188 11.876953 C 14.949595 11.914813 14.909101 11.955718 14.871094 12 L 13 12 L 13 9 L 18.871094 9 C 18.909101 9.0442824 18.949595 9.0851867 18.992188 9.1230469 C 19.292119 9.3896523 19.652778 9.5 20 9.5 C 20.347222 9.5 20.707882 9.3896523 21.007812 9.1230469 C 21.307744 8.8564413 21.5 8.4166659 21.5 8 C 21.5 7.5833341 21.307744 7.1435587 21.007812 6.8769531 C 20.707882 6.6103477 20.347222 6.5 20 6.5 C 19.652778 6.5 19.292119 6.6103477 18.992188 6.8769531 C 18.949595 6.9148133 18.909101 6.9557176 18.871094 7 L 17 7 L 17 5 C 17 4.7352835 17.103107 4.4967705 17.269531 4.3183594 C 17.50218 4.4448135 17.754591 4.5 18 4.5 C 18.347222 4.5 18.707882 4.3896523 19.007812 4.1230469 C 19.307744 3.8564413 19.5 3.4166659 19.5 3 C 19.5 2.5833341 19.307744 2.1435587 19.007812 1.8769531 C 18.707882 1.6103477 18.347222 1.5 18 1.5 C 17.652778 1.5 17.292119 1.6103477 16.992188 1.8769531 C 16.85893 1.995404 16.747392 2.1487567 16.664062 2.3183594 C 15.681449 2.8134763 15 3.8334581 15 5 L 15 7 L 13 7 L 13 4.5058594 C 13.011929 2.4938041 11.426984 1.1486436 9.8242188 1 C 9.7349751 0.99172337 9.6444867 0.98700304 9.5546875 0.98632812 z M 9.3632812 2.9824219 C 9.4536996 2.9797082 9.5454612 2.983543 9.6386719 2.9921875 C 10.384357 3.0613438 11.006193 3.449618 11 4.4941406 A 1.0001 1.0001 0 0 0 11 4.5 L 11 19.771484 A 1.0001 1.0001 0 0 0 10.970703 19.791016 C 10.788607 20.689618 10.171388 21.001137 9.484375 20.994141 C 8.7973613 20.987141 8.1871957 20.663843 8.0234375 19.761719 A 1.0001 1.0001 0 0 0 6.8222656 18.964844 C 5.6825583 19.218558 4.7480915 18.243965 5.046875 17.115234 A 1.0001 1.0001 0 0 0 4.3867188 15.908203 C 3.475064 15.615364 3.0493907 14.903534 3.0019531 14.125 C 2.9545156 13.346466 3.2888471 12.588859 4.1582031 12.1875 A 1.0001 1.0001 0 0 0 4.4433594 10.568359 C 3.5354509 9.6714296 3.9777851 8.2484676 5.234375 8.0253906 A 1.0001 1.0001 0 0 0 6.0371094 6.8222656 C 5.850111 5.9814691 6.3779993 5.1820524 7.2246094 5.0234375 A 1.0001 1.0001 0 0 0 8.0234375 4.21875 C 8.18619 3.3193841 8.7303526 3.0014173 9.3632812 2.9824219 z "/>
</svg>
