<?xml version="1.0" encoding="UTF-8" standalone="no"?>
<svg
   width="24"
   height="24"
   viewBox="0 0 24 24"
   fill="none"
   stroke="currentColor"
   stroke-width="2"
   stroke-linecap="round"
   stroke-linejoin="round"
   version="1.1"
   id="svg9"
   xmlns="http://www.w3.org/2000/svg"
   xmlns:svg="http://www.w3.org/2000/svg">
  <defs
     id="defs9" />
  <path
     id="circle1"
     style="color:#000000;fill:#000000;-inkscape-stroke:none"
     d="M 9.5546875 0.98632812 C 8.2077001 0.97620437 6.8279671 1.8146161 6.28125 3.2929688 C 4.9514789 3.8063348 4.0942298 5.0454864 4.0722656 6.4609375 C 2.3307508 7.3086115 1.655152 9.3804031 2.5390625 11.089844 C 1.5578888 11.93272 0.93358278 13.059907 1.0058594 14.246094 C 1.0830083 15.51224 1.904995 16.648593 3.1191406 17.345703 C 3.0549237 19.229376 4.4876997 20.771138 6.3535156 20.873047 C 6.986737 22.321536 8.4415215 23.101741 9.8085938 22.980469 C 10.607693 22.909581 11.402926 22.54001 12 21.939453 C 12.597074 22.54001 13.392307 22.909581 14.191406 22.980469 C 15.558479 23.101741 17.013263 22.321536 17.646484 20.873047 C 19.512301 20.771138 20.945077 19.229376 20.880859 17.345703 C 22.095005 16.648593 22.916992 15.51224 22.994141 14.246094 C 23.066421 13.059907 22.442112 11.93272 21.460938 11.089844 C 22.344849 9.3804031 21.66925 7.3086115 19.927734 6.4609375 C 19.90577 5.0454864 19.048521 3.8063348 17.71875 3.2929688 C 17.135585 1.7160592 15.60368 0.86757395 14.175781 1 C 13.38073 1.0737346 12.593774 1.4489614 12 2.046875 C 11.406226 1.4489614 10.61927 1.0737346 9.8242188 1 C 9.7349751 0.99172337 9.6444867 0.98700304 9.5546875 0.98632812 z M 9.3632812 2.9824219 C 9.4536996 2.9797082 9.5454612 2.983543 9.6386719 2.9921875 C 10.384357 3.0613438 11.006193 3.449618 11 4.4941406 A 1 1 0 0 0 11.001953 4.4960938 C 11.001964 4.4996637 11 4.5022794 11 4.5058594 A 1 1 0 0 0 11.5 5 A 1 1 0 0 0 11.994141 5.5 A 1 1 0 0 0 12 5.4941406 A 1 1 0 0 0 12.005859 5.5 A 1 1 0 0 0 12.996094 4.5097656 A 1 1 0 0 0 13 4.5058594 C 13.000013 4.5036594 12.998047 4.5022 12.998047 4.5 A 1 1 0 0 0 13 4.4941406 C 12.9938 3.449618 13.615643 3.0613438 14.361328 2.9921875 C 15.107013 2.9230316 15.790559 3.1909032 15.976562 4.21875 A 1.0001 1.0001 0 0 0 16.775391 5.0234375 C 17.622001 5.1820524 18.149888 5.9814691 17.962891 6.8222656 A 1.0001 1.0001 0 0 0 18.765625 8.0253906 C 20.022215 8.2484676 20.464549 9.6714296 19.556641 10.568359 A 1.0001 1.0001 0 0 0 19.841797 12.1875 C 20.711153 12.588859 21.045484 13.346466 20.998047 14.125 C 20.950607 14.903534 20.524936 15.615364 19.613281 15.908203 A 1.0001 1.0001 0 0 0 18.953125 17.115234 C 19.251909 18.243965 18.317442 19.218558 17.177734 18.964844 A 1.0001 1.0001 0 0 0 15.976562 19.761719 C 15.791434 20.784232 15.110598 21.054229 14.367188 20.988281 C 13.623776 20.922333 13.00224 20.537182 13 19.498047 A 1.0001 1.0001 0 0 0 11 19.498047 C 10.9978 20.537182 10.376223 20.922333 9.6328125 20.988281 C 8.889402 21.054231 8.2085656 20.784232 8.0234375 19.761719 A 1.0001 1.0001 0 0 0 6.8222656 18.964844 C 5.6825583 19.218558 4.7480915 18.243965 5.046875 17.115234 A 1.0001 1.0001 0 0 0 4.3867188 15.908203 C 3.475064 15.615364 3.0493907 14.903534 3.0019531 14.125 C 2.9545156 13.346466 3.2888471 12.588859 4.1582031 12.1875 A 1.0001 1.0001 0 0 0 4.4433594 10.568359 C 3.5354509 9.6714296 3.9777851 8.2484676 5.234375 8.0253906 A 1.0001 1.0001 0 0 0 6.0371094 6.8222656 C 5.850111 5.9814691 6.3779993 5.1820524 7.2246094 5.0234375 A 1.0001 1.0001 0 0 0 8.0234375 4.21875 C 8.18619 3.3193841 8.7303526 3.0014173 9.3632812 2.9824219 z M 10.453125 7.3027344 A 1 1 0 0 0 9.9941406 7.3867188 A 1 1 0 0 0 9.4863281 8.7070312 L 9.5488281 8.8476562 C 9.262504 9.0711615 9.0079545 9.3314932 8.7910156 9.6230469 L 8.7070312 9.5859375 A 1 1 0 0 0 7.9414062 9.5664062 A 1 1 0 0 0 7.3867188 10.09375 A 1 1 0 0 0 7.8945312 11.414062 L 8.0371094 11.476562 C 8.0142605 11.648404 8 11.822248 8 12 C 8 12.210067 8.0171055 12.415564 8.0488281 12.617188 L 7.8945312 12.685547 A 1 1 0 0 0 7.3867188 14.005859 A 1 1 0 0 0 8.7070312 14.513672 L 8.8476562 14.451172 C 9.0711615 14.737496 9.3314932 14.992045 9.6230469 15.208984 L 9.5859375 15.292969 A 1 1 0 0 0 10.09375 16.613281 A 1 1 0 0 0 11.414062 16.105469 L 11.476562 15.962891 C 11.648404 15.98574 11.822248 16 12 16 C 12.210067 16 12.415564 15.982895 12.617188 15.951172 L 12.685547 16.105469 A 1 1 0 0 0 14.005859 16.613281 A 1 1 0 0 0 14.513672 15.292969 L 14.451172 15.152344 C 14.737496 14.928838 14.992045 14.668507 15.208984 14.376953 L 15.292969 14.414062 A 1 1 0 0 0 16.613281 13.90625 A 1 1 0 0 0 16.105469 12.585938 L 15.962891 12.523438 C 15.98574 12.351596 16 12.177752 16 12 C 16 11.789933 15.982895 11.584436 15.951172 11.382812 L 16.105469 11.314453 A 1 1 0 0 0 16.613281 9.9941406 A 1 1 0 0 0 15.292969 9.4863281 L 15.152344 9.5488281 C 14.928838 9.262504 14.668507 9.0079545 14.376953 8.7910156 L 14.414062 8.7070312 A 1 1 0 0 0 13.90625 7.3867188 A 1 1 0 0 0 13.140625 7.3671875 A 1 1 0 0 0 12.585938 7.8945312 L 12.523438 8.0371094 C 12.351596 8.0142605 12.177752 8 12 8 C 11.789933 8 11.584436 8.0171055 11.382812 8.0488281 L 11.314453 7.8945312 A 1 1 0 0 0 10.759766 7.3671875 A 1 1 0 0 0 10.453125 7.3027344 z M 12 10 C 13.116412 10 14 10.883588 14 12 C 14 13.116412 13.116412 14 12 14 C 10.883588 14 10 13.116412 10 12 C 10 10.883588 10.883588 10 12 10 z "
     stroke-width="0" />
</svg>
