<?xml version="1.0" encoding="UTF-8" standalone="no"?>
<svg
   width="24"
   height="24"
   viewBox="0 0 24 24"
   fill="none"
   stroke="currentColor"
   stroke-width="2"
   stroke-linecap="round"
   stroke-linejoin="round"
   version="1.1"
   id="svg1"
   xmlns="http://www.w3.org/2000/svg"
   xmlns:svg="http://www.w3.org/2000/svg">
  <defs
     id="defs1" />
  <path
     id="rect1"
     style="color:#000000;fill:#000000;-inkscape-stroke:none"
     d="M 10 2 C 8.3549936 2 7 3.3549936 7 5 L 7 6 L 4 6 C 2.3553005 6 1 7.3553005 1 9 L 1 19 C 1 20.644699 2.3553005 22 4 22 L 8 22 L 16 22 L 20 22 C 21.644699 22 23 20.644699 23 19 L 23 9 C 23 7.3553005 21.644699 6 20 6 L 17 6 L 17 5 C 17 3.3549936 15.645006 2 14 2 L 10 2 z M 10 4 L 14 4 C 14.564128 4 15 4.4358718 15 5 L 15 6 L 9 6 L 9 5 C 9 4.4358718 9.4358718 4 10 4 z M 4 8 L 7 8 L 7 20 L 4 20 C 3.4287039 20 3 19.571296 3 19 L 3 9 C 3 8.4287039 3.4287039 8 4 8 z M 9 8 L 15 8 L 15 20 L 9 20 L 9 8 z M 17 8 L 20 8 C 20.571296 8 21 8.4287039 21 9 L 21 19 C 21 19.571296 20.571296 20 20 20 L 17 20 L 17 8 z "
     stroke-width="0" />
</svg>
