<?xml version="1.0" encoding="UTF-8" standalone="no"?>
<svg
   width="24"
   height="24"
   viewBox="0 0 24 24"
   fill="none"
   stroke="currentColor"
   stroke-width="2"
   stroke-linecap="round"
   stroke-linejoin="round"
   version="1.1"
   id="svg9"
   xmlns="http://www.w3.org/2000/svg"
   xmlns:svg="http://www.w3.org/2000/svg">
  <defs
     id="defs9" />
  <path
     id="path1"
     style="color:#000000;fill:#000000;-inkscape-stroke:none"
     d="M 2 1 A 1 1 0 0 0 1.2929688 1.2929688 A 1 1 0 0 0 1.2929688 2.7070312 L 6.25 7.6640625 C 5.4452937 8.5764754 4.9915129 9.7632999 5 11.005859 L 5 12 L 2 12 A 1 1 0 0 0 1 13 A 1 1 0 0 0 2 14 L 5 14 C 4.9979495 14.815598 5.1271572 15.576657 5.359375 16.275391 C 3.4054638 16.963285 2 18.84543 2 21 A 1 1 0 0 0 3 22 A 1 1 0 0 0 4 21 C 4 19.634725 4.9896112 18.416713 6.2792969 18.083984 C 6.2795161 18.084291 6.2810307 18.083678 6.28125 18.083984 C 7.2260311 19.403275 8.6024985 20.335145 10.105469 20.757812 C 12.530765 21.439859 15.368897 20.823905 17.248047 18.662109 L 21.292969 22.707031 A 1 1 0 0 0 22.707031 22.707031 A 1 1 0 0 0 22.707031 21.292969 L 12.738281 11.326172 A 1 1 0 0 0 12.673828 11.261719 L 2.7070312 1.2929688 A 1 1 0 0 0 2 1 z M 8.0097656 1 A 1 1 0 0 0 7.3007812 1.2851562 A 1 1 0 0 0 7.2851562 2.6992188 L 9.1445312 4.5996094 A 1.0001 1.0001 0 0 0 10.574219 4.6015625 C 11.23153 3.9325216 12.044332 3.8596885 12.755859 4.1503906 C 12.974283 4.2396299 13.175217 4.3606158 13.349609 4.5117188 A 1 1 0 0 0 13.412109 4.5878906 A 1 1 0 0 0 13.509766 4.6679688 C 13.811117 4.9986026 13.999541 5.4431151 14 6 L 12.699219 6 A 1 1 0 0 0 11.699219 7 A 1 1 0 0 0 12.699219 8 L 14 8 C 14.243301 8 14.479202 8.0285087 14.705078 8.0820312 A 1 1 0 0 0 14.789062 8.1035156 C 16.069381 8.4461211 17 9.6048624 17 11 L 17 13 A 1.0001 1.0001 0 0 0 18 14 L 22 14 A 1 1 0 0 0 23 13 A 1 1 0 0 0 22 12 L 19 12 L 19 11 C 19 10.545549 18.937311 10.10482 18.822266 9.6855469 C 20.64239 8.9620418 21.970703 7.1421121 21.970703 5 A 1 1 0 0 0 20.970703 4 A 1 1 0 0 0 19.970703 5 C 19.970703 6.3795487 19.043943 7.5157079 17.904297 7.8886719 C 17.399978 7.2578237 16.747479 6.7510738 16 6.421875 L 16 6 C 15.999376 5.2427606 15.792322 4.55347 15.445312 3.96875 L 16.707031 2.7070312 A 1 1 0 0 0 16.707031 1.2929688 A 1 1 0 0 0 15.292969 1.2929688 L 14.029297 2.5566406 C 13.863188 2.4583875 13.690936 2.3712511 13.513672 2.2988281 C 12.432597 1.857144 11.186088 2.0744038 10.083984 2.7011719 L 8.7148438 1.3007812 A 1 1 0 0 0 8.0097656 1 z M 7.6699219 9.0839844 L 11 12.414062 L 11 18.917969 C 10.881718 18.892832 10.763275 18.864875 10.646484 18.832031 C 9.4784747 18.503561 8.4378355 17.803717 7.7695312 16.767578 A 1 1 0 0 0 7.5058594 16.298828 C 7.184461 15.642958 6.9973374 14.877938 7 14.003906 A 1.0001 1.0001 0 0 0 7 14.001953 A 1.0001 1.0001 0 0 0 7 14 L 7 11 A 1.0001 1.0001 0 0 0 7 10.998047 A 1.0001 1.0001 0 0 0 7 10.996094 A 1.0001 1.0001 0 0 0 7 10.994141 C 6.9951906 10.290051 7.2373487 9.6176325 7.6699219 9.0839844 z M 13 14.414062 L 15.828125 17.242188 C 15.042472 18.214147 14.048423 18.762327 13 18.955078 L 13 14.414062 z "
     stroke-width="0" />
</svg>
