<?xml version="1.0" encoding="UTF-8" standalone="no"?>
<svg xmlns="http://www.w3.org/2000/svg" xmlns:svg="http://www.w3.org/2000/svg" width="24" height="24" viewBox="0 0 24 24" fill="currentColor" tags="issue,report,debug,code,insect" categories="development,animals">
  
  <path d="M 8 1 A 1 1 0 0 0 7.2929688 1.2929688 A 1 1 0 0 0 7.2929688 2.7070312 L 8.5117188 3.9257812 C 8.157136 4.5575325 7.9640688 5.3269191 8.0019531 6.1738281 L 8 6.1308594 L 8 6.421875 C 7.2508372 6.7518153 6.596579 7.2597515 6.0917969 7.8925781 C 4.9249672 7.5224236 4 6.3837542 4 5 A 1 1 0 0 0 3 4 A 1 1 0 0 0 2 5 C 2 7.1454977 3.3384098 8.9668308 5.1777344 9.6875 C 5.063009 10.10623 5 10.546204 5 11 L 5 12 L 2 12 A 1 1 0 0 0 1 13 A 1 1 0 0 0 2 14 L 5 14 C 5 14.79269 5.1363025 15.555184 5.3828125 16.267578 C 3.4167858 16.948664 2 18.836882 2 21 A 1 1 0 0 0 3 22 A 1 1 0 0 0 4 21 C 4 19.61961 5.011652 18.390729 6.3222656 18.074219 C 7.5970568 19.841329 9.6708631 21 12 21 C 14.329137 21 16.402943 19.841329 17.677734 18.074219 C 18.988348 18.390729 20 19.61961 20 21 A 1 1 0 0 0 21 22 A 1 1 0 0 0 22 21 C 22 18.836882 20.583214 16.948664 18.617188 16.267578 C 18.863698 15.555184 19 14.79269 19 14 L 22 14 A 1 1 0 0 0 23 13 A 1 1 0 0 0 22 12 L 19 12 L 19 11 C 19 10.545549 18.937311 10.10482 18.822266 9.6855469 C 20.64239 8.9620418 21.970703 7.1421121 21.970703 5 A 1 1 0 0 0 20.970703 4 A 1 1 0 0 0 19.970703 5 C 19.970703 6.3795487 19.043943 7.5157079 17.904297 7.8886719 C 17.399978 7.2578237 16.747479 6.7510738 16 6.421875 L 16 6.1308594 L 15.998047 6.1738281 C 16.035962 5.3269189 15.84286 4.5575325 15.488281 3.9257812 L 16.707031 2.7070312 A 1 1 0 0 0 16.707031 1.2929688 A 1 1 0 0 0 15.292969 1.2929688 L 14.068359 2.5175781 C 13.431484 2.1614774 12.711542 1.9921875 12 1.9921875 C 11.288458 1.9921875 10.568516 2.1614774 9.9316406 2.5175781 L 8.7070312 1.2929688 A 1 1 0 0 0 8 1 z M 12 3.9921875 C 12.459926 3.9921875 12.906178 4.1290297 13.25 4.3671875 A 1 1 0 0 0 13.412109 4.5878906 A 1 1 0 0 0 13.666016 4.7675781 C 13.881276 5.0578309 14.014891 5.4401198 14.003906 6 C 14.002595 5.999999 14.001311 6 14 6 L 10 6 C 9.9986889 6 9.9974047 5.999999 9.9960938 6 C 9.9851068 5.4401199 10.118724 5.0578309 10.333984 4.7675781 A 1 1 0 0 0 10.587891 4.5878906 A 1 1 0 0 0 10.755859 4.3632812 C 11.098917 4.1276012 11.542648 3.9921875 12 3.9921875 z M 10 8 L 14 8 C 14.250138 8 14.491028 8.0333625 14.722656 8.0898438 A 1 1 0 0 0 14.763672 8.1015625 C 16.056083 8.4362043 17 9.5963442 17 11 L 17 14 C 17 16.412327 15.278078 18.435244 13 18.900391 L 13 11 A 1 1 0 0 0 12 10 A 1 1 0 0 0 11 11 L 11 18.900391 C 8.7219218 18.435244 7 16.412327 7 14 L 7 11 C 7 9.5963442 7.9439174 8.4362043 9.2363281 8.1015625 A 1 1 0 0 0 9.2773438 8.0898438 C 9.5089716 8.0333625 9.7498618 8 10 8 z "/>
</svg>
