<?xml version="1.0" encoding="UTF-8" standalone="no"?>
<svg xmlns="http://www.w3.org/2000/svg" xmlns:svg="http://www.w3.org/2000/svg" width="24" height="24" viewBox="0 0 24 24" fill="currentColor" tags="bus,vehicle,transport,trip" categories="transportation">
  
  <path d="M 4 5 C 2.3549936 5 1 6.3549936 1 8 L 1 18 A 1.0001 1.0001 0 0 0 2 19 L 4.1738281 19 C 4.5895208 20.160387 5.7046435 21 7 21 C 8.2953565 21 9.4104792 20.160387 9.8261719 19 L 13.173828 19 C 13.589521 20.160387 14.704644 21 16 21 C 17.295356 21 18.410479 20.160387 18.826172 19 L 21 19 A 1.0001 1.0001 0 0 0 21.958984 18.28125 C 21.958984 18.28125 22.460228 16.582679 22.765625 15.462891 A 1.0001 1.0001 0 0 0 22.769531 15.443359 C 22.869537 15.043359 23 14.566665 23 14 C 23 13.433335 22.869531 12.956639 22.769531 12.556641 A 1.0001 1.0001 0 0 0 22.763672 12.53125 L 22.595703 11.931641 A 1 1 0 0 0 22.488281 11.544922 L 21.363281 7.53125 A 1.0001 1.0001 0 0 0 21.357422 7.5117188 C 20.923936 6.0664923 19.584845 5 18 5 L 4 5 z M 4 7 L 7 7 L 7 11 L 3 11 L 3 8 C 3 7.4358718 3.4358718 7 4 7 z M 9 7 L 14 7 L 14 11 L 9 11 L 9 7 z M 16 7 L 18 7 C 18.61515 7 19.274975 7.5331199 19.441406 8.0878906 L 20.257812 11 L 16 11 L 16 7 z M 3 13 L 20.818359 13 L 20.830078 13.042969 C 20.930078 13.442967 21 13.766667 21 14 C 21 14.233333 20.93008 14.557033 20.830078 14.957031 C 20.611574 15.756847 20.401303 16.468229 20.246094 17 L 18.826172 17 C 18.410479 15.839613 17.295356 15 16 15 C 14.704644 15 13.589521 15.839613 13.173828 17 L 9.8261719 17 C 9.4104792 15.839613 8.2953565 15 7 15 C 5.7046435 15 4.5895208 15.839613 4.1738281 17 L 3 17 L 3 13 z M 7 17 C 7.5641282 17 8 17.435872 8 18 C 8 18.564128 7.5641282 19 7 19 C 6.4358718 19 6 18.564128 6 18 C 6 17.435872 6.4358718 17 7 17 z M 16 17 C 16.564128 17 17 17.435872 17 18 C 17 18.564128 16.564128 19 16 19 C 15.435872 19 15 18.564128 15 18 C 15 17.435872 15.435872 17 16 17 z "/>
</svg>
