<?xml version="1.0" encoding="UTF-8" standalone="no"?>
<svg xmlns="http://www.w3.org/2000/svg" xmlns:svg="http://www.w3.org/2000/svg" width="24" height="24" viewBox="0 0 24 24" fill="currentColor" tags="ski lift,winter holiday,alpine,resort,mountains" categories="transportation,travel">
  
  <path d="M 14 1 A 1 1 0 0 0 13 2 A 1 1 0 0 0 14 3 L 14.009766 3 A 1 1 0 0 0 15.009766 2 A 1 1 0 0 0 14.009766 1 L 14 1 z M 10 2 A 1 1 0 0 0 9 3 A 1 1 0 0 0 10 4 L 10.009766 4 A 1 1 0 0 0 11.009766 3 A 1 1 0 0 0 10.009766 2 L 10 2 z M 22.148438 3.0097656 A 1 1 0 0 0 21.757812 3.0292969 L 1.7578125 8.0292969 A 1 1 0 0 0 1.0292969 9.2421875 A 1 1 0 0 0 2.2421875 9.9707031 L 11 7.78125 L 11 11 L 7 11 C 4.8013016 11 3 12.801301 3 15 L 3 17 L 3 19 C 3 21.198699 4.8013016 23 7 23 L 17 23 C 19.198699 23 21 21.198699 21 19 L 21 17 L 21 15 C 21 12.801301 19.198699 11 17 11 L 13 11 L 13 7.28125 L 22.242188 4.9707031 A 1 1 0 0 0 22.970703 3.7578125 A 1 1 0 0 0 22.148438 3.0097656 z M 7 13 L 8 13 L 8 16 L 5 16 L 5 15 C 5 13.874705 5.874705 13 7 13 z M 10 13 L 14 13 L 14 16 L 10 16 L 10 13 z M 16 13 L 17 13 C 18.125295 13 19 13.874705 19 15 L 19 16 L 16 16 L 16 13 z M 5 18 L 9 18 L 15 18 L 19 18 L 19 19 C 19 20.125295 18.125295 21 17 21 L 7 21 C 5.874705 21 5 20.125295 5 19 L 5 18 z "/>
</svg>
