<?xml version="1.0" encoding="UTF-8" standalone="no"?>
<svg
   width="24"
   height="24"
   viewBox="0 0 24 24"
   fill="none"
   stroke="currentColor"
   stroke-width="2"
   stroke-linecap="round"
   stroke-linejoin="round"
   version="1.1"
   id="svg3"
   xmlns="http://www.w3.org/2000/svg"
   xmlns:svg="http://www.w3.org/2000/svg">
  <defs
     id="defs3" />
  <path
     id="rect1"
     style="color:#000000;fill:#000000;-inkscape-stroke:none"
     d="M 8 1 A 1 1 0 0 0 7 2 L 7 3 L 5 3 C 3.3553005 3 2 4.3553005 2 6 L 2 20 C 2 21.644699 3.3553005 23 5 23 L 19 23 C 20.644699 23 22 21.644699 22 20 L 22 6 C 22 4.3553005 20.644699 3 19 3 L 17 3 L 17 2 A 1 1 0 0 0 16 1 A 1 1 0 0 0 15 2 L 15 3 L 9 3 L 9 2 A 1 1 0 0 0 8 1 z M 5 5 L 7 5 L 7 6 A 1 1 0 0 0 8 7 A 1 1 0 0 0 9 6 L 9 5 L 15 5 L 15 6 A 1 1 0 0 0 16 7 A 1 1 0 0 0 17 6 L 17 5 L 19 5 C 19.571296 5 20 5.4287039 20 6 L 20 9 L 4 9 L 4 6 C 4 5.4287039 4.4287039 5 5 5 z M 4 11 L 20 11 L 20 20 C 20 20.571296 19.571296 21 19 21 L 5 21 C 4.4287039 21 4 20.571296 4 20 L 4 11 z M 15 13 A 1 1 0 0 0 14.292969 13.292969 L 11 16.585938 L 9.7070312 15.292969 A 1 1 0 0 0 8.2929688 15.292969 A 1 1 0 0 0 8.2929688 16.707031 L 10.292969 18.707031 A 1.0001 1.0001 0 0 0 11.707031 18.707031 L 15.707031 14.707031 A 1 1 0 0 0 15.707031 13.292969 A 1 1 0 0 0 15 13 z "
     stroke-width="0" />
</svg>
