<?xml version="1.0" encoding="UTF-8" standalone="no"?>
<svg
   width="24"
   height="24"
   viewBox="0 0 24 24"
   fill="none"
   stroke="currentColor"
   stroke-width="2"
   stroke-linecap="round"
   stroke-linejoin="round"
   version="1.1"
   id="svg5"
   xmlns="http://www.w3.org/2000/svg"
   xmlns:svg="http://www.w3.org/2000/svg">
  <defs
     id="defs5" />
  <path
     id="path1"
     style="color:#000000;fill:#000000;-inkscape-stroke:none"
     d="M 2 1 A 1 1 0 0 0 1.2929688 1.2929688 A 1 1 0 0 0 1.2929688 2.7070312 L 2.6855469 4.0996094 C 2.2535392 4.6254634 2.0014726 5.2922497 2 5.9980469 A 1.0001 1.0001 0 0 0 2 6 L 2 20 C 2 21.645006 3.3549936 23 5 23 L 19 23 A 1.0001 1.0001 0 0 0 19.001953 23 C 19.70775 22.9985 20.374537 22.746452 20.900391 22.314453 L 21.292969 22.707031 A 1 1 0 0 0 22.707031 22.707031 A 1 1 0 0 0 22.707031 21.292969 L 21.492188 20.080078 L 10.707031 9.2929688 L 4.8652344 3.453125 L 2.7070312 1.2929688 A 1 1 0 0 0 2 1 z M 16 1 A 1 1 0 0 0 15 2 L 15 3 L 9.5 3 A 1 1 0 0 0 8.5 4 A 1 1 0 0 0 9.5 5 L 15 5 L 15 6 A 1 1 0 0 0 16 7 A 1 1 0 0 0 17 6 L 17 5 L 19 5 C 19.564128 5 20 5.4358718 20 6 L 20 9 L 15.5 9 A 1 1 0 0 0 14.5 10 A 1 1 0 0 0 15.5 11 L 20 11 L 20 15.5 A 1 1 0 0 0 21 16.5 A 1 1 0 0 0 22 15.5 L 22 6 C 22 4.3549936 20.645006 3 19 3 L 17 3 L 17 2 A 1 1 0 0 0 16 1 z M 4.1191406 5.5332031 L 7.5859375 9 L 4 9 L 4 6.0019531 L 4 6 C 4.0006416 5.832381 4.0439787 5.6740591 4.1191406 5.5332031 z M 4 11 L 9.5859375 11 L 19.466797 20.880859 C 19.325613 20.955996 19.165975 20.99965 18.998047 21 L 5 21 C 4.4358718 21 4 20.564128 4 20 L 4 11 z "
     stroke-width="0" />
</svg>
