<?xml version="1.0" encoding="UTF-8" standalone="no"?>
<svg
   width="24"
   height="24"
   viewBox="0 0 24 24"
   fill="none"
   stroke="currentColor"
   stroke-width="2"
   stroke-linecap="round"
   stroke-linejoin="round"
   version="1.1"
   id="svg1"
   xmlns="http://www.w3.org/2000/svg"
   xmlns:svg="http://www.w3.org/2000/svg">
  <defs
     id="defs1" />
  <path
     id="path1"
     style="color:#000000;fill:#000000;-inkscape-stroke:none"
     d="M 9.5 3 A 1.0001 1.0001 0 0 0 8.7324219 3.359375 L 6.53125 6 L 4 6 C 2.3549936 6 1 7.3549936 1 9 L 1 18 C 1 19.645006 2.3549936 21 4 21 L 20 21 C 21.645006 21 23 19.645006 23 18 L 23 9 C 23 7.3549936 21.645006 6 20 6 L 17.46875 6 L 15.267578 3.359375 A 1.0001 1.0001 0 0 0 14.5 3 L 9.5 3 z M 9.96875 5 L 14.03125 5 L 16.232422 7.640625 A 1.0001 1.0001 0 0 0 17 8 L 20 8 C 20.564128 8 21 8.4358718 21 9 L 21 18 C 21 18.564128 20.564128 19 20 19 L 4 19 C 3.4358718 19 3 18.564128 3 18 L 3 9 C 3 8.4358718 3.4358718 8 4 8 L 7 8 A 1.0001 1.0001 0 0 0 7.7675781 7.640625 L 9.96875 5 z M 12 9 C 9.80271 9 8 10.80271 8 13 C 8 15.19729 9.80271 17 12 17 C 14.19729 17 16 15.19729 16 13 C 16 10.80271 14.19729 9 12 9 z M 12 11 C 13.116412 11 14 11.883588 14 13 C 14 14.116412 13.116412 15 12 15 C 10.883588 15 10 14.116412 10 13 C 10 11.883588 10.883588 11 12 11 z "
     stroke-width="0" />
</svg>
