<?xml version="1.0" encoding="UTF-8" standalone="no"?>
<svg
   width="24"
   height="24"
   viewBox="0 0 24 24"
   fill="none"
   stroke="currentColor"
   stroke-width="2"
   stroke-linecap="round"
   stroke-linejoin="round"
   version="1.1"
   id="svg5"
   xmlns="http://www.w3.org/2000/svg"
   xmlns:svg="http://www.w3.org/2000/svg">
  <defs
     id="defs5" />
  <path
     id="path1"
     style="color:#000000;fill:#000000;-inkscape-stroke:none"
     d="M 15.851562 1.0019531 C 13.623117 1.0544557 11.467964 2.1689528 10.167969 4.1289062 A 1 1 0 0 0 9.9726562 4.4375 C 9.9600895 4.4587642 9.9459658 4.4785551 9.9335938 4.5 L 7.1328125 9.0585938 A 1 1 0 0 0 6.9960938 9.28125 L 1.3476562 18.476562 A 1.0001 1.0001 0 0 0 1.3320312 18.503906 C 0.87466424 19.304298 0.79928295 20.202774 1.0488281 20.943359 C 1.2983734 21.683945 1.8226834 22.258888 2.453125 22.619141 C 3.0835666 22.979392 3.8446402 23.139511 4.609375 22.978516 C 5.3741098 22.817519 6.1109923 22.296486 6.5683594 21.496094 L 7.7558594 19.556641 A 1 1 0 0 0 7.9277344 19.277344 L 15.125 7.5214844 A 1.0001 1.0001 0 0 0 15.140625 7.4941406 C 15.348487 7.1285451 15.546064 7.0266622 15.767578 6.9804688 C 15.989092 6.9342758 16.267709 6.9832888 16.509766 7.1230469 C 16.628272 7.1914688 16.730907 7.2787146 16.814453 7.375 L 16.878906 7.4902344 A 1 1 0 0 0 16.964844 7.6113281 C 16.977894 7.6395599 16.994583 7.6669882 17.003906 7.6953125 C 17.074656 7.9102476 17.085736 8.1313348 16.873047 8.4941406 C 16.406928 9.2892317 16.324195 10.187892 16.568359 10.929688 C 16.812524 11.671482 17.333141 12.246905 17.960938 12.609375 C 18.588735 12.971845 19.346829 13.135987 20.111328 12.976562 C 20.875828 12.817137 21.61283 12.295345 22.068359 11.494141 C 23.99078 8.1549359 22.838137 3.859442 19.5 1.9335938 C 18.665002 1.4518638 17.770012 1.1633908 16.867188 1.0527344 C 16.528629 1.0112382 16.189608 0.99398872 15.851562 1.0019531 z M 16.673828 3.0390625 C 17.298368 3.1252206 17.917876 3.3301747 18.5 3.6660156 C 20.903756 5.0527975 21.720767 8.0962433 20.333984 10.5 A 1.0001 1.0001 0 0 0 20.330078 10.505859 C 20.122216 10.871455 19.924639 10.973338 19.703125 11.019531 C 19.481611 11.065721 19.202994 11.016731 18.960938 10.876953 C 18.718882 10.737198 18.539497 10.519622 18.46875 10.304688 C 18.398 10.089752 18.386921 9.8686652 18.599609 9.5058594 C 19.065729 8.7107683 19.148462 7.8121074 18.904297 7.0703125 C 18.803873 6.7652052 18.655218 6.4897099 18.472656 6.2441406 L 16.673828 3.0390625 z M 14.484375 3.2246094 L 15.484375 5.0039062 C 15.442829 5.0106858 15.400979 5.0147616 15.359375 5.0234375 C 14.59611 5.1826052 13.859998 5.7029435 13.404297 6.5019531 C 13.40356 6.5032431 13.403144 6.5045594 13.402344 6.5058594 L 13.109375 6.984375 L 12.070312 4.9042969 C 12.70523 4.0939705 13.552597 3.5207757 14.484375 3.2246094 z M 10.820312 6.8769531 L 11.878906 8.9941406 L 10.041016 11.994141 L 9.0351562 9.78125 L 10.820312 6.8769531 z M 7.7734375 11.835938 L 8.78125 14.054688 L 7.0820312 16.828125 L 6.0175781 14.695312 L 7.7734375 11.835938 z M 4.7832031 16.703125 L 5.8515625 18.839844 L 4.8476562 20.478516 A 1.0001 1.0001 0 0 0 4.8320312 20.503906 C 4.6227334 20.870178 4.422112 20.974148 4.1972656 21.021484 C 3.9724192 21.068824 3.6898692 21.020606 3.4453125 20.880859 C 3.2007558 20.741114 3.0186834 20.524386 2.9453125 20.306641 C 2.8721146 20.089407 2.8605947 19.862795 3.0683594 19.498047 L 3.0683594 19.496094 L 4.7832031 16.703125 z "
     stroke-width="0" />
</svg>
