<?xml version="1.0" encoding="UTF-8" standalone="no"?>
<svg xmlns="http://www.w3.org/2000/svg" xmlns:svg="http://www.w3.org/2000/svg" width="24" height="24" viewBox="0 0 24 24" fill="currentColor" tags="sugar free,food,sweet,allergy,intolerance,diet" categories="food-beverage">
  
  <path d="M 2 1 A 1 1 0 0 0 1.2929688 1.2929688 A 1 1 0 0 0 1.2929688 2.7070312 L 7.0859375 8.5 L 6.7929688 8.7929688 A 1.0001 1.0001 0 0 0 6.7851562 8.8007812 C 5.4674985 10.145331 4.9153083 11.762222 5.0097656 13.267578 C 5.0540806 13.973824 5.2321156 14.651512 5.5136719 15.277344 L 1.8046875 16.019531 A 1.0001 1.0001 0 0 0 1.1054688 17.447266 L 1.7890625 18.814453 C 1.9279305 19.092044 1.9998754 19.398597 2 19.708984 L 2 21 A 1.0001 1.0001 0 0 0 3 22 L 4.2929688 22 C 4.6026965 22.000422 4.9085308 22.072361 5.1855469 22.210938 L 6.5527344 22.894531 A 1.0001 1.0001 0 0 0 7.9804688 22.195312 L 8.7226562 18.486328 C 9.3484878 18.767884 10.026176 18.945919 10.732422 18.990234 C 12.237778 19.084694 13.854671 18.532498 15.199219 17.214844 A 1.0001 1.0001 0 0 0 15.207031 17.207031 L 15.5 16.914062 L 21.292969 22.707031 A 1 1 0 0 0 22.707031 22.707031 A 1 1 0 0 0 22.707031 21.292969 L 16.207031 14.792969 L 14.751953 13.339844 A 1 1 0 0 0 14.660156 13.248047 L 10.738281 9.3261719 A 1 1 0 0 0 10.673828 9.2617188 L 9.2070312 7.7929688 L 2.7070312 1.2929688 A 1 1 0 0 0 2 1 z M 17.003906 1 A 1.0001 1.0001 0 0 0 16.560547 1.1015625 A 1.0001 1.0001 0 0 0 16.019531 1.8046875 L 15.279297 5.5058594 C 14.134621 5.0313072 12.850965 4.9160277 11.609375 5.2148438 A 1 1 0 0 0 10.871094 6.421875 A 1 1 0 0 0 12.076172 7.1601562 C 12.382757 7.0863699 12.692265 7.0528451 13 7.0527344 L 13 8.34375 A 1 1 0 0 0 14 9.34375 A 1 1 0 0 0 15 8.34375 L 15 7.59375 C 15.285805 7.7616194 15.552572 7.9664435 15.792969 8.2070312 C 16.766362 9.1796509 17.161823 10.585989 16.839844 11.923828 A 1 1 0 0 0 17.578125 13.128906 A 1 1 0 0 0 18.785156 12.390625 C 19.083973 11.149035 18.968693 9.8653795 18.494141 8.7207031 L 22.195312 7.9804688 A 1.0001 1.0001 0 0 0 22.894531 6.5527344 L 22.210938 5.1855469 C 22.072358 4.9085308 22.000422 4.6026965 22 4.2929688 L 22 3 A 1.0001 1.0001 0 0 0 21 2 L 19.708984 2 L 19.707031 2 C 19.397351 1.9995776 19.091469 1.9276433 18.814453 1.7890625 L 17.447266 1.1054688 A 1.0001 1.0001 0 0 0 17.003906 1 z M 17.722656 3.4804688 L 17.919922 3.578125 C 18.475028 3.855824 19.086339 3.9997508 19.707031 4 L 20 4 L 20 4.2929688 C 20.000249 4.9136615 20.144176 5.524972 20.421875 6.0800781 L 20.519531 6.2773438 L 17.326172 6.9160156 C 17.286978 6.8745282 17.247557 6.833462 17.207031 6.7929688 C 17.166538 6.7524433 17.125472 6.7130223 17.083984 6.6738281 L 17.722656 3.4804688 z M 8.5 9.9140625 L 9 10.414062 L 9 16.361328 C 8.7288334 16.188298 8.4724034 15.988028 8.2421875 15.757812 C 7.5296217 15.045246 7.0660444 14.10174 7.0058594 13.142578 C 6.9456743 12.183416 7.2459557 11.187881 8.2148438 10.199219 L 8.5 9.9140625 z M 11 12.414062 L 13 14.414062 L 13 16.427734 C 12.326676 16.856954 11.655246 17.016117 11 17 L 11 12.414062 z M 6.7324219 17.072266 C 6.7642925 17.105497 6.7955862 17.139336 6.828125 17.171875 C 6.8606638 17.204414 6.8945032 17.235707 6.9277344 17.267578 L 6.2773438 20.519531 L 6.0800781 20.421875 C 5.524972 20.14418 4.9136615 20.000249 4.2929688 20 L 4 20 L 4 19.707031 C 3.9997508 19.086339 3.8558238 18.475028 3.578125 17.919922 L 3.4804688 17.722656 L 6.7324219 17.072266 z "/>
</svg>
