<?xml version="1.0" encoding="UTF-8" standalone="no"?>
<svg
   width="24"
   height="24"
   viewBox="0 0 24 24"
   fill="none"
   stroke="currentColor"
   stroke-width="2"
   stroke-linecap="round"
   stroke-linejoin="round"
   version="1.1"
   id="svg2"
   xmlns="http://www.w3.org/2000/svg"
   xmlns:svg="http://www.w3.org/2000/svg">
  <defs
     id="defs2" />
  <path
     id="path1"
     style="color:#000000;fill:#000000;-inkscape-stroke:none"
     d="M 5 6 C 3.9555576 6 3.1733326 6.6661904 2.7421875 7.3847656 A 1.0001 1.0001 0 0 0 2.6992188 7.4648438 L 1.2988281 10.365234 A 1.0001 1.0001 0 0 0 1.2539062 10.476562 C 1.0856991 10.967166 1 11.481361 1 12 L 1 16 C 1 16.522221 1.1913296 17.05461 1.5683594 17.431641 C 1.9453891 17.80867 2.4777788 18 3 18 L 4.1738281 18 C 4.5895208 19.160387 5.7046435 20 7 20 C 8.2953565 20 9.4104792 19.160387 9.8261719 18 L 14.173828 18 C 14.589521 19.160387 15.704644 20 17 20 C 18.295356 20 19.410479 19.160387 19.826172 18 L 21 18 C 21.522221 18 22.05461 17.80867 22.431641 17.431641 C 22.80867 17.05461 23 16.522221 23 16 L 23 13 C 23 11.583101 22.019527 10.451238 20.746094 10.130859 C 19.020815 9.652946 16.838714 9.1688512 16.519531 9.0976562 C 16.308526 8.8708521 15.345395 7.8297698 14.507812 6.9921875 A 1.0001 1.0001 0 0 0 14.423828 6.9199219 C 13.809561 6.4285045 12.985712 6 12 6 L 5 6 z M 5 8 L 12 8 C 12.408014 8 12.778617 8.1728187 13.158203 8.4726562 C 14.029222 9.3491639 15.267578 10.679687 15.267578 10.679688 A 1.0001 1.0001 0 0 0 15.783203 10.976562 C 15.783203 10.976562 18.48212 11.578259 20.232422 12.064453 A 1.0001 1.0001 0 0 0 20.257812 12.070312 C 20.582252 12.151381 21 12.618519 21 13 L 21 16 L 19.826172 16 C 19.410479 14.839613 18.295356 14 17 14 C 15.704644 14 14.589521 14.839613 14.173828 16 L 9.8261719 16 C 9.4104792 14.839613 8.2953565 14 7 14 C 5.7046435 14 4.5895208 14.839613 4.1738281 16 L 3 16 L 3 12 C 3 11.708736 3.0501911 11.420661 3.1425781 11.144531 L 4.4628906 8.4082031 C 4.6308679 8.1336882 4.8463156 8 5 8 z M 7 16 C 7.5641282 16 8 16.435872 8 17 C 8 17.564128 7.5641282 18 7 18 C 6.4358718 18 6 17.564128 6 17 C 6 16.435872 6.4358718 16 7 16 z M 17 16 C 17.564128 16 18 16.435872 18 17 C 18 17.564128 17.564128 18 17 18 C 16.435872 18 16 17.564128 16 17 C 16 16.435872 16.435872 16 17 16 z "
     stroke-width="0" />
</svg>
