<?xml version="1.0" encoding="UTF-8" standalone="no"?>
<svg
   width="24"
   height="24"
   viewBox="0 0 24 24"
   fill="none"
   stroke="currentColor"
   stroke-width="2"
   stroke-linecap="round"
   stroke-linejoin="round"
   version="1.1"
   id="svg3"
   xmlns="http://www.w3.org/2000/svg"
   xmlns:svg="http://www.w3.org/2000/svg">
  <defs
     id="defs3" />
  <path
     id="rect1"
     style="color:#000000;fill:#000000;-inkscape-stroke:none"
     d="M 6 4 C 3.2504263 4 1 6.2504263 1 9 L 1 13 L 1 17 C 1 18.645006 2.3549936 20 4 20 L 5.1738281 20 C 5.5895208 21.160387 6.7046435 22 8 22 C 9.2953565 22 10.410479 21.160387 10.826172 20 L 14 20 L 18 20 L 22 20 A 1.0001 1.0001 0 0 0 23 19 L 23 17 A 1 1 0 0 0 22 16 A 1 1 0 0 0 21 17 L 21 18 L 19 18 L 19 9 C 19 6.2504263 16.749573 4 14 4 L 6 4 z M 6 6 L 14 6 C 15.668695 6 17 7.3313045 17 9 L 17 18 L 15 18 L 15 9 A 1.0001 1.0001 0 0 0 14 8 L 10 8 A 1.0001 1.0001 0 0 0 9 9 L 9 16.173828 C 8.6867818 16.061622 8.3496499 16 8 16 C 6.7046435 16 5.5895208 16.839613 5.1738281 18 L 4 18 C 3.4358718 18 3 17.564128 3 17 L 3 14 L 6 14 A 1.0001 1.0001 0 0 0 7 13 L 7 9 A 1.0001 1.0001 0 0 0 6 8 L 3.171875 8 C 3.5801903 6.8305771 4.6833471 6 6 6 z M 3 10 L 5 10 L 5 12 L 3 12 L 3 10 z M 11 10 L 13 10 L 13 18 L 11 18 L 11 10 z M 8 18 C 8.5641282 18 9 18.435872 9 19 C 9 19.564128 8.5641282 20 8 20 C 7.4358718 20 7 19.564128 7 19 C 7 18.435872 7.4358718 18 8 18 z "
     stroke-width="0" />
</svg>
