<?xml version="1.0" encoding="UTF-8" standalone="no"?>
<svg
   width="24"
   height="24"
   viewBox="0 0 24 24"
   fill="none"
   stroke="currentColor"
   stroke-width="2"
   stroke-linecap="round"
   stroke-linejoin="round"
   version="1.1"
   id="svg3"
   xmlns="http://www.w3.org/2000/svg"
   xmlns:svg="http://www.w3.org/2000/svg">
  <defs
     id="defs3" />
  <path
     id="path1"
     style="color:#000000;fill:#000000;-inkscape-stroke:none"
     d="M 7 6 A 1.0001 1.0001 0 0 0 6.1054688 6.5527344 L 2.1054688 14.552734 A 1 1 0 0 0 2.5527344 15.894531 A 1 1 0 0 0 3.8945312 15.447266 L 4.6171875 14 L 9.3828125 14 L 10.105469 15.447266 A 1 1 0 0 0 11.447266 15.894531 A 1 1 0 0 0 11.894531 14.552734 L 10.916016 12.597656 A 1 1 0 0 0 10.878906 12.523438 L 7.8945312 6.5527344 A 1.0001 1.0001 0 0 0 7 6 z M 15 6 A 1.0001 1.0001 0 0 0 14 7 L 14 11 L 14 15 A 1.0001 1.0001 0 0 0 15 16 L 19.5 16 C 20.416665 16 21.231441 15.620243 21.748047 15.039062 C 22.264651 14.457881 22.5 13.72222 22.5 13 C 22.5 12.27778 22.264651 11.542118 21.748047 10.960938 C 21.649185 10.849718 21.494288 10.788558 21.375 10.693359 C 21.726139 10.171115 22 9.5998365 22 9 C 22 8.2777793 21.764651 7.5421182 21.248047 6.9609375 C 20.731441 6.3797568 19.916665 6 19 6 L 15 6 z M 16 8 L 19 8 C 19.416666 8 19.601893 8.1202448 19.751953 8.2890625 C 19.902013 8.4578802 20 8.7222227 20 9 C 20 9.2777773 19.902013 9.5421198 19.751953 9.7109375 C 19.601893 9.8797552 19.416666 10 19 10 L 16 10 L 16 8 z M 7 9.2363281 L 8.3828125 12 L 5.6171875 12 L 7 9.2363281 z M 16 12 L 19 12 L 19.5 12 C 19.916666 12 20.101893 12.120245 20.251953 12.289062 C 20.402013 12.457879 20.5 12.722222 20.5 13 C 20.5 13.277778 20.40201 13.54212 20.251953 13.710938 C 20.101893 13.879754 19.916666 14 19.5 14 L 16 14 L 16 12 z "
     stroke-width="0" />
</svg>
