<?xml version="1.0" encoding="UTF-8" standalone="no"?>
<svg
   width="24"
   height="24"
   viewBox="0 0 24 24"
   fill="none"
   stroke="currentColor"
   stroke-width="2"
   stroke-linecap="round"
   stroke-linejoin="round"
   version="1.1"
   id="svg9"
   xmlns="http://www.w3.org/2000/svg"
   xmlns:svg="http://www.w3.org/2000/svg">
  <defs
     id="defs9" />
  <path
     id="path1"
     style="color:#000000;fill:#000000;-inkscape-stroke:none"
     d="M 6 1 A 1 1 0 0 0 5 2 L 5 4 L 5 10 L 3 10 L 3 9 A 1 1 0 0 0 2 8 A 1 1 0 0 0 1 9 L 1 11 L 1 20 C 1 21.645006 2.3549936 23 4 23 L 20 23 C 21.645006 23 23 21.645006 23 20 L 23 11 L 23 9 A 1 1 0 0 0 22 8 A 1 1 0 0 0 21 9 L 21 10 L 19 10 L 19 4 L 19 2 A 1 1 0 0 0 18 1 A 1 1 0 0 0 17 2 L 17 3 L 15 3 L 15 2 A 1 1 0 0 0 14 1 A 1 1 0 0 0 13 2 L 13 3 L 11 3 L 11 2 A 1 1 0 0 0 10 1 A 1 1 0 0 0 9 2 L 9 3 L 7 3 L 7 2 A 1 1 0 0 0 6 1 z M 7 5 L 14 5 L 17 5 L 17 10 L 7 10 L 7 5 z M 3 12 L 21 12 L 21 20 C 21 20.564128 20.564128 21 20 21 L 16 21 L 16 18 C 16 15.80271 14.19729 14 12 14 C 9.80271 14 8 15.80271 8 18 L 8 21 L 4 21 C 3.4358718 21 3 20.564128 3 20 L 3 12 z M 12 16 C 13.116412 16 14 16.883588 14 18 L 14 21 L 10 21 L 10 18 C 10 16.883588 10.883588 16 12 16 z "
     stroke-width="0" />
</svg>
