<?xml version="1.0" encoding="UTF-8" standalone="no"?>
<svg
   width="24"
   height="24"
   viewBox="0 0 24 24"
   fill="none"
   stroke="currentColor"
   stroke-width="2"
   stroke-linecap="round"
   stroke-linejoin="round"
   version="1.1"
   id="svg2"
   xmlns="http://www.w3.org/2000/svg"
   xmlns:svg="http://www.w3.org/2000/svg">
  <defs
     id="defs2" />
  <path
     id="path1"
     style="color:#000000;fill:#000000;-inkscape-stroke:none"
     d="M 12.119141 0.95898438 C 8.7563498 0.90334953 5.6830788 2.455015 3.6386719 4.8476562 C 0.73107081 8.2505238 -0.17160911 13.441223 2.7734375 17.980469 C 5.7184842 22.519714 10.826746 23.811432 15.119141 22.542969 C 19.411534 21.274504 22.996905 17.412841 23 12 L 23 11.080078 A 1 1 0 0 0 22 10.080078 A 1 1 0 0 0 21 11.080078 L 21 12 C 20.9974 16.545032 18.098435 19.577195 14.552734 20.625 C 11.007035 21.672805 6.9237857 20.703656 4.4511719 16.892578 C 1.978558 13.081501 2.7564014 8.9573972 5.1582031 6.1464844 C 7.5600048 3.3355715 11.510549 1.9236098 15.662109 3.7734375 A 1 1 0 0 0 16.984375 3.2675781 A 1 1 0 0 0 16.476562 1.9472656 C 15.240503 1.3965093 14.00316 1.089356 12.794922 0.9921875 C 12.568377 0.9739684 12.343327 0.96269336 12.119141 0.95898438 z M 21.84375 3.0117188 A 1 1 0 0 0 21.292969 3.2929688 L 12 12.585938 L 9.7070312 10.292969 A 1 1 0 0 0 8.2929688 10.292969 A 1 1 0 0 0 8.2929688 11.707031 L 11.292969 14.707031 A 1.0001 1.0001 0 0 0 12.707031 14.707031 L 22.707031 4.7070312 A 1 1 0 0 0 22.707031 3.2929688 A 1 1 0 0 0 21.84375 3.0117188 z "
     stroke-width="0" />
</svg>
