<?xml version="1.0" encoding="UTF-8" standalone="no"?>
<svg
   width="24"
   height="24"
   viewBox="0 0 24 24"
   fill="none"
   stroke="currentColor"
   stroke-width="2"
   stroke-linecap="round"
   stroke-linejoin="round"
   version="1.1"
   id="svg1"
   xmlns="http://www.w3.org/2000/svg"
   xmlns:svg="http://www.w3.org/2000/svg">
  <defs
     id="defs1" />
  <path
     id="path1"
     style="color:#000000;fill:#000000;-inkscape-stroke:none"
     d="M 12 1.9980469 C 10.459987 1.9980469 8.9199186 2.5829844 7.7519531 3.7539062 A 1.0001 1.0001 0 0 0 7.75 3.7558594 C 7.3801978 4.1283157 7.1332017 4.5942774 6.8710938 5.046875 C 5.6424437 5.0268716 4.5171014 5.3285869 3.6992188 5.9902344 C 2.7256 6.7778685 2.1290539 7.8999405 1.9179688 9.078125 C 1.7068837 10.25631 1.8779694 11.515135 2.5175781 12.591797 C 3.0281436 13.451238 3.924639 14.086456 5 14.505859 L 5 17 L 5 21 A 1.0001 1.0001 0 0 0 6 22 L 18 22 A 1.0001 1.0001 0 0 0 19 21 L 19 17 L 19 14.505859 C 20.075361 14.086456 20.971856 13.451238 21.482422 12.591797 C 22.12203 11.515135 22.293117 10.25631 22.082031 9.078125 C 21.870946 7.8999405 21.2744 6.7778685 20.300781 5.9902344 C 19.482899 5.3285869 18.357557 5.0268716 17.128906 5.046875 C 16.866799 4.5942774 16.619803 4.1283157 16.25 3.7558594 A 1.0001 1.0001 0 0 0 16.248047 3.7539062 C 15.080128 2.5829813 13.540013 1.9980469 12 1.9980469 z M 12 3.984375 C 13.023162 3.984375 14.046362 4.3783575 14.832031 5.1660156 C 15.186208 5.5232092 15.472956 5.9420119 15.675781 6.4023438 A 1.0001 1.0001 0 0 0 16.732422 6.9902344 C 17.763226 6.841773 18.486652 7.0948756 19.042969 7.5449219 C 19.599284 7.994968 19.979645 8.6837914 20.113281 9.4296875 C 20.246917 10.175583 20.129141 10.955118 19.763672 11.570312 C 19.398205 12.185506 18.809245 12.673932 17.791016 12.892578 A 1.0001 1.0001 0 0 0 17 13.869141 L 17 16 L 7 16 L 7 13.869141 A 1.0001 1.0001 0 0 0 6.2089844 12.892578 C 5.1907551 12.673932 4.6017942 12.185506 4.2363281 11.570312 C 3.8708621 10.955118 3.753083 10.175583 3.8867188 9.4296875 C 4.0203544 8.6837914 4.4007154 7.994968 4.9570312 7.5449219 C 5.5133472 7.0948756 6.2367745 6.841773 7.2675781 6.9902344 A 1.0001 1.0001 0 0 0 8.3242188 6.4023438 C 8.527412 5.9411771 8.8148542 5.5216785 9.1699219 5.1640625 C 9.955327 4.3777415 10.977706 3.984375 12 3.984375 z M 7 18 L 17 18 L 17 20 L 7 20 L 7 18 z "
     stroke-width="0" />
</svg>
