<?xml version="1.0" encoding="UTF-8" standalone="no"?>
<svg
   width="24"
   height="24"
   viewBox="0 0 24 24"
   fill="none"
   stroke="currentColor"
   stroke-width="2"
   stroke-linecap="round"
   stroke-linejoin="round"
   version="1.1"
   id="svg2"
   xmlns="http://www.w3.org/2000/svg"
   xmlns:svg="http://www.w3.org/2000/svg">
  <defs
     id="defs2" />
  <path
     id="path1"
     style="color:#000000;fill:#000000;-inkscape-stroke:none"
     d="M 7 3 A 1 1 0 0 0 6.2929688 3.2929688 A 1 1 0 0 0 6.2929688 4.7070312 L 11.292969 9.7070312 A 1.0001 1.0001 0 0 0 12.707031 9.7070312 L 17.707031 4.7070312 A 1 1 0 0 0 17.707031 3.2929688 A 1 1 0 0 0 16.292969 3.2929688 L 12 7.5859375 L 7.7070312 3.2929688 A 1 1 0 0 0 7 3 z M 11.84375 14.011719 A 1.0001 1.0001 0 0 0 11.292969 14.292969 L 6.2929688 19.292969 A 1 1 0 0 0 6.2929688 20.707031 A 1 1 0 0 0 7.7070312 20.707031 L 12 16.414062 L 16.292969 20.707031 A 1 1 0 0 0 17.707031 20.707031 A 1 1 0 0 0 17.707031 19.292969 L 12.707031 14.292969 A 1.0001 1.0001 0 0 0 11.84375 14.011719 z "
     stroke-width="0" />
</svg>
