<?xml version="1.0" encoding="UTF-8" standalone="no"?>
<svg xmlns="http://www.w3.org/2000/svg" xmlns:svg="http://www.w3.org/2000/svg" width="24" height="24" viewBox="0 0 24 24" fill="currentColor" tags="expand,horizontal,unfold" categories="arrows">
  
  <path d="M 9 6 A 1 1 0 0 0 8.2929688 6.2929688 L 3.2929688 11.292969 A 1.0001 1.0001 0 0 0 3.2929688 12.707031 L 8.2929688 17.707031 A 1 1 0 0 0 9.7070312 17.707031 A 1 1 0 0 0 9.7070312 16.292969 L 5.4140625 12 L 9.7070312 7.7070312 A 1 1 0 0 0 9.7070312 6.2929688 A 1 1 0 0 0 9 6 z M 15 6 A 1 1 0 0 0 14.292969 6.2929688 A 1 1 0 0 0 14.292969 7.7070312 L 18.585938 12 L 14.292969 16.292969 A 1 1 0 0 0 14.292969 17.707031 A 1 1 0 0 0 15.707031 17.707031 L 20.707031 12.707031 A 1.0001 1.0001 0 0 0 20.707031 11.292969 L 15.707031 6.2929688 A 1 1 0 0 0 15 6 z "/>
</svg>
