<?xml version="1.0" encoding="UTF-8" standalone="no"?>
<svg xmlns="http://www.w3.org/2000/svg" xmlns:svg="http://www.w3.org/2000/svg" width="24" height="24" viewBox="0 0 24 24" fill="currentColor" tags="previous,music" categories="arrows,multimedia">
  
  <path d="M 7 5 A 1 1 0 0 0 6 6 L 6 18 A 1 1 0 0 0 7 19 A 1 1 0 0 0 8 18 L 8 6 A 1 1 0 0 0 7 5 z M 16.84375 5.0117188 A 1 1 0 0 0 16.292969 5.2929688 L 10.292969 11.292969 A 1.0001 1.0001 0 0 0 10.292969 12.707031 L 16.292969 18.707031 A 1 1 0 0 0 17.707031 18.707031 A 1 1 0 0 0 17.707031 17.292969 L 12.414062 12 L 17.707031 6.7070312 A 1 1 0 0 0 17.707031 5.2929688 A 1 1 0 0 0 16.84375 5.0117188 z "/>
</svg>
