<?xml version="1.0" encoding="UTF-8" standalone="no"?>
<svg xmlns="http://www.w3.org/2000/svg" xmlns:svg="http://www.w3.org/2000/svg" width="24" height="24" viewBox="0 0 24 24" fill="currentColor" tags="collapse,fold,horizontal" categories="arrows">
  
  <path d="M 4 6 A 1 1 0 0 0 3.2929688 6.2929688 A 1 1 0 0 0 3.2929688 7.7070312 L 7.5859375 12 L 3.2929688 16.292969 A 1 1 0 0 0 3.2929688 17.707031 A 1 1 0 0 0 4.7070312 17.707031 L 9.7070312 12.707031 A 1.0001 1.0001 0 0 0 9.7070312 11.292969 L 4.7070312 6.2929688 A 1 1 0 0 0 4 6 z M 19.84375 6.0117188 A 1 1 0 0 0 19.292969 6.2929688 L 14.292969 11.292969 A 1.0001 1.0001 0 0 0 14.292969 12.707031 L 19.292969 17.707031 A 1 1 0 0 0 20.707031 17.707031 A 1 1 0 0 0 20.707031 16.292969 L 16.414062 12 L 20.707031 7.7070312 A 1 1 0 0 0 20.707031 6.2929688 A 1 1 0 0 0 19.84375 6.0117188 z "/>
</svg>
