<?xml version="1.0" encoding="UTF-8" standalone="no"?>
<svg
   width="24"
   height="24"
   viewBox="0 0 24 24"
   fill="none"
   stroke="currentColor"
   stroke-width="2"
   stroke-linecap="round"
   stroke-linejoin="round"
   version="1.1"
   id="svg6"
   xmlns="http://www.w3.org/2000/svg"
   xmlns:svg="http://www.w3.org/2000/svg">
  <defs
     id="defs6" />
  <path
     id="line1"
     style="color:#000000;fill:#000000;-inkscape-stroke:none"
     d="M 2 1 A 1 1 0 0 0 1.2929688 1.2929688 A 1 1 0 0 0 1.2929688 2.7070312 L 9.5859375 11 L 2 11 A 1.0001 1.0001 0 0 0 1 12 L 1 16 A 1.0001 1.0001 0 0 0 2 17 L 15.585938 17 L 21.292969 22.707031 A 1 1 0 0 0 22.707031 22.707031 A 1 1 0 0 0 22.707031 21.292969 L 16.748047 15.335938 A 1 1 0 0 0 16.664062 15.251953 L 12.748047 11.335938 A 1 1 0 0 0 12.664062 11.251953 L 2.7070312 1.2929688 A 1 1 0 0 0 2 1 z M 16 2 A 1 1 0 0 0 15 3 C 15 4.5166636 15.718751 5.5000012 16.21875 6.125 C 16.71875 6.7499988 17 7.0166686 17 8 A 1 1 0 0 0 18 9 A 1 1 0 0 0 19 8 C 19 6.4833364 18.28125 5.4999988 17.78125 4.875 C 17.28125 4.2500012 17 3.9833314 17 3 A 1 1 0 0 0 16 2 z M 20 2 A 1 1 0 0 0 19 3 C 19 4.5166636 19.71875 5.5000012 20.21875 6.125 C 20.71875 6.7499988 21 7.0166686 21 8 A 1 1 0 0 0 22 9 A 1 1 0 0 0 23 8 C 23 6.4833364 22.28125 5.4999988 21.78125 4.875 C 21.28125 4.2500012 21 3.9833314 21 3 A 1 1 0 0 0 20 2 z M 17.5 11 A 1 1 0 0 0 16.5 12 A 1 1 0 0 0 17.5 13 L 18 13 A 1 1 0 0 0 19 12 A 1 1 0 0 0 18 11 L 17.5 11 z M 22 11 A 1 1 0 0 0 21 12 L 21 16 A 1 1 0 0 0 22 17 A 1 1 0 0 0 23 16 L 23 12 A 1 1 0 0 0 22 11 z M 3 13 L 6 13 L 6 15 L 3 15 L 3 13 z M 8 13 L 11.585938 13 L 13.585938 15 L 8 15 L 8 13 z "
     stroke-width="0" />
</svg>
