<?xml version="1.0" encoding="UTF-8" standalone="no"?>
<svg xmlns="http://www.w3.org/2000/svg" xmlns:svg="http://www.w3.org/2000/svg" width="24" height="24" viewBox="0 0 24 24" fill="currentColor" tags="person,account,contact" categories="account,shapes">
  
  <path d="M 12 1 C 5.9367246 1 1 5.9367246 1 12 C 1 16.022339 3.1734302 19.546473 6.40625 21.464844 A 1 1 0 0 0 6.4472656 21.488281 C 8.0785316 22.44686 9.9758878 23 12 23 C 14.024112 23 15.921468 22.44686 17.552734 21.488281 A 1 1 0 0 0 17.59375 21.464844 C 20.82657 19.546473 23 16.022339 23 12 C 23 5.9367246 18.063276 1 12 1 z M 12 3 C 16.982397 3 21 7.0176026 21 12 C 21 14.680344 19.836458 17.079939 17.986328 18.726562 C 17.846188 17.207524 16.552863 16 15 16 L 9 16 C 7.4471374 16 6.1538123 17.207524 6.0136719 18.726562 C 4.163542 17.079939 3 14.680344 3 12 C 3 7.0176026 7.0176026 3 12 3 z M 12 6 C 9.80271 6 8 7.80271 8 10 C 8 12.19729 9.80271 14 12 14 C 14.19729 14 16 12.19729 16 10 C 16 7.80271 14.19729 6 12 6 z M 12 8 C 13.116412 8 14 8.8835881 14 10 C 14 11.116412 13.116412 12 12 12 C 10.883588 12 10 11.116412 10 10 C 10 8.8835881 10.883588 8 12 8 z M 9 18 L 15 18 C 15.564128 18 16 18.435872 16 19 L 16 20.066406 C 14.795517 20.663101 13.438981 21 12 21 C 10.561019 21 9.2044829 20.663101 8 20.066406 L 8 19 C 8 18.435872 8.4358718 18 9 18 z "/>
</svg>
