<?xml version="1.0" encoding="UTF-8" standalone="no"?>
<svg
   width="24"
   height="24"
   viewBox="0 0 24 24"
   fill="none"
   stroke="currentColor"
   stroke-width="2"
   stroke-linecap="round"
   stroke-linejoin="round"
   version="1.1"
   id="svg4"
   xmlns="http://www.w3.org/2000/svg"
   xmlns:svg="http://www.w3.org/2000/svg">
  <defs
     id="defs4" />
  <path
     id="path1"
     style="color:#000000;fill:#000000;-inkscape-stroke:none"
     d="M 5.5019531 1.0175781 C 4.9386111 1.0315742 4.3796506 1.2659016 3.9804688 1.7167969 A 1.0001 1.0001 0 0 0 3.9570312 1.7441406 C -0.28495786 6.905679 0.084405164 14.467218 4.8085938 19.191406 C 9.5327824 23.915596 17.094322 24.284958 22.255859 20.042969 A 1.0001 1.0001 0 0 0 22.273438 20.027344 C 23.19265 19.2352 23.228092 17.782399 22.349609 16.945312 L 14.769531 9.3613281 A 1 1 0 0 0 14.707031 9.2929688 A 1 1 0 0 0 14.685547 9.2753906 L 9.1347656 3.7207031 A 1 1 0 0 0 9.0390625 3.6152344 A 1 1 0 0 0 9.0078125 3.5957031 L 7.0546875 1.640625 C 6.6336073 1.2101089 6.0652952 1.003582 5.5019531 1.0175781 z M 5.5546875 3.0058594 C 5.5776326 3.0045016 5.6009043 3.0144268 5.625 3.0390625 A 1.0001 1.0001 0 0 0 5.6328125 3.046875 L 6.9863281 4.4003906 C 5.7324036 6.0445451 5.1223501 8.0234374 5.1523438 9.9921875 A 1 1 0 0 0 5.1503906 10 A 1 1 0 0 0 5.1523438 10.011719 C 5.1915118 12.264059 6.0675248 14.502002 7.7753906 16.212891 C 9.4842984 17.924823 11.722832 18.80373 13.976562 18.845703 A 1 1 0 0 0 14 18.849609 A 1 1 0 0 0 14.013672 18.847656 C 15.978392 18.876224 17.951849 18.2661 19.59375 17.015625 L 20.953125 18.376953 A 1.0001 1.0001 0 0 0 20.970703 18.394531 C 21.014953 18.436691 21.010067 18.468382 20.966797 18.507812 C 16.58749 22.093314 10.226415 21.781103 6.2226562 17.777344 C 2.2216826 13.77637 1.9087434 7.4219767 5.4863281 3.0429688 C 5.5091239 3.0198578 5.5317424 3.0072171 5.5546875 3.0058594 z M 8.4160156 5.8320312 L 11.582031 9 L 7.1914062 9 C 7.3286292 7.8836126 7.73707 6.7941574 8.4160156 5.8320312 z M 7.2363281 11 L 11.585938 11 L 8.5390625 14.046875 C 7.8492474 13.128638 7.4157978 12.081677 7.2363281 11 z M 13 12.414062 L 13 16.765625 C 11.918489 16.58633 10.871097 16.150612 9.953125 15.460938 L 13 12.414062 z M 15 12.417969 L 18.164062 15.585938 C 17.203299 16.262964 16.113885 16.669245 15 16.806641 L 15 12.417969 z "
     stroke-width="0" />
</svg>
