<?xml version="1.0" encoding="UTF-8" standalone="no"?>
<svg xmlns="http://www.w3.org/2000/svg" xmlns:svg="http://www.w3.org/2000/svg" width="24" height="24" viewBox="0 0 24 24" fill="currentColor" tags="paste" categories="text,account">
  
  <path d="M 9 1 C 7.9092994 1 7 1.9092994 7 3 L 6 3 C 4.3549936 3 3 4.3549936 3 6 L 3 20 C 3 21.645006 4.3549936 23 6 23 L 18 23 C 19.645006 23 21 21.645006 21 20 L 21 19.5 A 1 1 0 0 0 20 18.5 A 1 1 0 0 0 19 19.5 L 19 20 C 19 20.564128 18.564128 21 18 21 L 6 21 C 5.4358718 21 5 20.564128 5 20 L 5 6 C 5 5.4358718 5.4358718 5 6 5 L 7 5 C 7 6.0907006 7.9092994 7 9 7 L 15 7 C 16.090701 7 17 6.0907006 17 5 L 18 5 C 18.357782 5.001 18.684338 5.1900603 18.863281 5.5 A 1 1 0 0 0 20.230469 5.8652344 A 1 1 0 0 0 20.595703 4.5 C 20.061154 3.5741314 19.071053 3.0010966 18.001953 3 A 1.0001 1.0001 0 0 0 18 3 L 17 3 C 17 1.9092994 16.090701 1 15 1 L 9 1 z M 9 3 L 15 3 L 15 5 L 9 5 L 9 3 z M 19.900391 7.9414062 C 19.13703 7.9397177 18.327836 8.2581014 17.693359 8.8925781 L 13.292969 13.292969 A 1.0001 1.0001 0 0 0 13.029297 13.757812 L 12.029297 17.757812 A 1.0001 1.0001 0 0 0 13.242188 18.970703 L 17.242188 17.970703 A 1.0001 1.0001 0 0 0 17.707031 17.707031 L 22.107422 13.306641 C 22.784197 12.629865 23.102137 11.7539 23.054688 10.947266 C 23.007239 10.140631 22.639555 9.4247119 22.107422 8.8925781 C 21.575288 8.3604445 20.859369 7.9927618 20.052734 7.9453125 C 20.00232 7.9423469 19.951281 7.9415188 19.900391 7.9414062 z M 19.839844 9.9394531 C 19.871772 9.9387019 19.903564 9.9395249 19.935547 9.9414062 C 20.19141 9.9564572 20.475495 10.088776 20.693359 10.306641 C 20.911224 10.524505 21.043543 10.80859 21.058594 11.064453 C 21.073644 11.320317 21.016584 11.569355 20.693359 11.892578 L 16.488281 16.097656 L 14.375 16.625 L 14.902344 14.511719 L 19.107422 10.306641 C 19.390242 10.023821 19.616349 9.9447114 19.839844 9.9394531 z M 8 17 A 1 1 0 0 0 7 18 A 1 1 0 0 0 8 19 L 9 19 A 1 1 0 0 0 10 18 A 1 1 0 0 0 9 17 L 8 17 z "/>
</svg>
