<?xml version="1.0" encoding="UTF-8" standalone="no"?>
<svg
   width="24"
   height="24"
   viewBox="0 0 24 24"
   fill="none"
   stroke="currentColor"
   stroke-width="2"
   stroke-linecap="round"
   stroke-linejoin="round"
   version="1.1"
   id="svg3"
   xmlns="http://www.w3.org/2000/svg"
   xmlns:svg="http://www.w3.org/2000/svg">
  <defs
     id="defs3" />
  <path
     id="rect1"
     style="color:#000000;fill:#000000;-inkscape-stroke:none"
     d="M 9 1 C 7.9092994 1 7 1.9092994 7 3 L 6 3 C 4.3549936 3 3 4.3549936 3 6 L 3 13.5 A 1 1 0 0 0 4 14.5 A 1 1 0 0 0 5 13.5 L 5 6 C 5 5.4358718 5.4358718 5 6 5 L 7 5 C 7 6.0907006 7.9092994 7 9 7 L 15 7 C 16.090701 7 17 6.0907006 17 5 L 18 5 C 18.564128 5 19 5.4358718 19 6 L 19 20 C 19 20.564128 18.564128 21 18 21 L 12.5 21 A 1 1 0 0 0 11.5 22 A 1 1 0 0 0 12.5 23 L 18 23 C 19.645006 23 21 21.645006 21 20 L 21 6 C 21 4.3549936 19.645006 3 18 3 L 17 3 C 17 1.9092994 16.090701 1 15 1 L 9 1 z M 9 3 L 15 3 L 15 5 L 9 5 L 9 4 L 9 3 z M 11.753906 10.962891 C 11.041251 11.000753 10.300694 11.31454 9.7128906 11.902344 A 1.0001 1.0001 0 0 0 9.7128906 11.904297 L 4.2832031 17.34375 A 1.0001 1.0001 0 0 0 4.0195312 17.806641 L 3.0292969 21.757812 A 1.0001 1.0001 0 0 0 4.2460938 22.96875 L 8.1953125 21.96875 A 1.0001 1.0001 0 0 0 8.65625 21.708984 L 14.095703 16.289062 A 1.0001 1.0001 0 0 0 14.097656 16.287109 C 14.769432 15.615334 15.084246 14.744682 15.037109 13.943359 C 14.989969 13.142038 14.62604 12.430727 14.097656 11.902344 C 13.569273 11.37396 12.857962 11.010027 12.056641 10.962891 C 11.956475 10.956998 11.855714 10.957482 11.753906 10.962891 z M 11.845703 12.957031 C 11.876968 12.956345 11.908134 12.957142 11.939453 12.958984 C 12.190004 12.973724 12.469479 13.102291 12.683594 13.316406 C 12.897709 13.530521 13.026277 13.809996 13.041016 14.060547 C 13.055756 14.311098 13.001815 14.554824 12.683594 14.873047 L 7.4394531 20.097656 L 5.3769531 20.621094 L 5.8925781 18.560547 L 11.126953 13.316406 C 11.405398 13.037962 11.626852 12.961833 11.845703 12.957031 z "
     stroke-width="0" />
</svg>
