<?xml version="1.0" encoding="UTF-8" standalone="no"?>
<svg xmlns="http://www.w3.org/2000/svg" xmlns:svg="http://www.w3.org/2000/svg" width="24" height="24" viewBox="0 0 24 24" fill="currentColor" tags="time,watch,alarm" categories="time">
  
  <path d="M 12 1 C 5.9367246 1 1 5.9367246 1 12 C 1 18.063276 5.9367246 23 12 23 C 18.063276 23 23 18.063276 23 12 C 23 5.9367246 18.063276 1 12 1 z M 12 3 C 16.982397 3 21 7.0176026 21 12 C 21 16.982397 16.982397 21 12 21 C 7.0176026 21 3 16.982397 3 12 C 3 7.0176026 7.0176026 3 12 3 z M 12 5 A 1 1 0 0 0 11 6 L 11 12 A 1.0001 1.0001 0 0 0 12.847656 12.529297 L 15.347656 8.5292969 A 1 1 0 0 0 15.029297 7.1523438 A 1 1 0 0 0 13.652344 7.4707031 L 13 8.5136719 L 13 6 A 1 1 0 0 0 12 5 z "/>
</svg>
