<?xml version="1.0" encoding="UTF-8" standalone="no"?>
<svg
   width="24"
   height="24"
   viewBox="0 0 24 24"
   fill="none"
   stroke="currentColor"
   stroke-width="2"
   stroke-linecap="round"
   stroke-linejoin="round"
   version="1.1"
   id="svg2"
   xmlns="http://www.w3.org/2000/svg"
   xmlns:svg="http://www.w3.org/2000/svg">
  <defs
     id="defs2" />
  <path
     id="path1"
     style="color:#000000;fill:#000000;-inkscape-stroke:none"
     d="M 8.7773438 2.0214844 C 8.3243334 2.0300799 7.8689187 2.0776309 7.4179688 2.1660156 C 6.134992 2.417475 4.8867915 2.9934458 3.7949219 3.9296875 C -0.57255687 7.6746544 0.37317323 14.760683 5.5703125 17.228516 A 1 1 0 0 0 6.9042969 16.755859 A 1 1 0 0 0 6.4296875 15.421875 C 2.4725186 13.542836 1.77221 8.2987246 5.0976562 5.4472656 C 8.4231026 2.5958068 13.498668 4.087627 14.751953 8.2851562 A 1.0001 1.0001 0 0 0 15.710938 9 L 17.5 9 A 1.0001 1.0001 0 0 0 17.501953 9 C 18.678021 8.99795 19.474279 9.3990642 20.046875 10 C 20.619471 10.600935 20.953712 11.438947 21.001953 12.304688 C 21.050193 13.170427 20.810881 14.042294 20.308594 14.703125 C 19.806306 15.363956 19.05964 15.849893 17.890625 15.978516 A 1 1 0 0 0 17.005859 17.082031 A 1 1 0 0 0 18.109375 17.966797 C 19.765752 17.784552 21.080358 16.99355 21.902344 15.912109 C 22.724282 14.830669 23.072497 13.494389 23 12.193359 C 22.927503 10.892331 22.431186 9.6045161 21.494141 8.6210938 C 20.557095 7.6376713 19.164417 6.9970924 17.498047 7 L 16.349609 7 C 15.046024 3.8144031 11.948416 1.961316 8.7773438 2.0214844 z M 12.912109 11.003906 A 1 1 0 0 0 12.142578 11.486328 L 9.1425781 16.486328 A 1.0001 1.0001 0 0 0 10 18 L 12.234375 18 L 10.142578 21.486328 A 1 1 0 0 0 10.486328 22.857422 A 1 1 0 0 0 11.857422 22.513672 L 14.857422 17.513672 A 1.0001 1.0001 0 0 0 14 16 L 11.765625 16 L 13.857422 12.513672 A 1 1 0 0 0 13.513672 11.142578 A 1 1 0 0 0 12.912109 11.003906 z "
     stroke-width="0" />
</svg>
