<?xml version="1.0" encoding="UTF-8" standalone="no"?>
<svg
   width="24"
   height="24"
   viewBox="0 0 24 24"
   fill="none"
   stroke="currentColor"
   stroke-width="2"
   stroke-linecap="round"
   stroke-linejoin="round"
   version="1.1"
   id="svg1"
   xmlns="http://www.w3.org/2000/svg"
   xmlns:svg="http://www.w3.org/2000/svg">
  <defs
     id="defs1" />
  <path
     id="path1"
     style="color:#000000;fill:#000000;-inkscape-stroke:none"
     d="M 8.8847656 4.0371094 C 8.6777947 4.0381367 8.4707092 4.04728 8.2636719 4.0644531 C 6.1319797 4.2412709 4.0489148 5.2591052 2.5878906 7.21875 C -1.3081736 12.44447 2.481465 19.998327 9 20 L 17.5 20 C 19.249996 20 20.689776 19.307742 21.623047 18.257812 C 22.556317 17.207884 23 15.84722 23 14.5 C 23 13.15278 22.556317 11.792116 21.623047 10.742188 C 20.689776 9.6922571 19.249996 9 17.5 9 L 16.335938 9 C 15.030829 5.8094692 11.98933 4.0217001 8.8847656 4.0371094 z M 8.8671875 5.9589844 C 9.2659421 5.9498917 9.6651318 5.9813877 10.056641 6.0507812 C 12.144687 6.4208802 14.037894 7.8901301 14.751953 10.285156 A 1.0001 1.0001 0 0 0 15.710938 11 L 17.5 11 C 18.749997 11 19.560228 11.432745 20.126953 12.070312 C 20.69368 12.707879 21 13.597224 21 14.5 C 21 15.402776 20.69368 16.292121 20.126953 16.929688 C 19.560228 17.567255 18.749997 18 17.5 18 L 9 18 C 4.0015878 17.998717 1.20395 12.421083 4.1914062 8.4140625 C 5.4050604 6.7862105 7.1392511 5.9983861 8.8671875 5.9589844 z "
     stroke-width="0" />
</svg>
