<?xml version="1.0" encoding="UTF-8" standalone="no"?>
<svg
   width="24"
   height="24"
   viewBox="0 0 24 24"
   fill="none"
   stroke="currentColor"
   stroke-width="2"
   stroke-linecap="round"
   stroke-linejoin="round"
   version="1.1"
   id="svg8"
   xmlns="http://www.w3.org/2000/svg"
   xmlns:svg="http://www.w3.org/2000/svg">
  <defs
     id="defs8" />
  <path
     id="path1"
     style="color:#000000;fill:#000000;-inkscape-stroke:none"
     d="M 12 1 A 1 1 0 0 0 11 2 L 11 4 A 1 1 0 0 0 12 5 A 1 1 0 0 0 13 4 L 13 2 A 1 1 0 0 0 12 1 z M 4.9296875 3.9296875 A 1 1 0 0 0 4.2226562 4.2226562 A 1 1 0 0 0 4.2226562 5.6367188 L 5.6328125 7.046875 A 1 1 0 0 0 7.046875 7.046875 A 1 1 0 0 0 7.046875 5.6328125 L 5.6367188 4.2226562 A 1 1 0 0 0 4.9296875 3.9296875 z M 19.070312 3.9296875 A 1 1 0 0 0 18.363281 4.2226562 L 16.953125 5.6328125 A 1 1 0 0 0 16.953125 7.046875 A 1 1 0 0 0 18.367188 7.046875 L 19.777344 5.6367188 A 1 1 0 0 0 19.777344 4.2226562 A 1 1 0 0 0 19.070312 3.9296875 z M 11.951172 7.0078125 C 11.142763 7.0046985 10.314214 7.2045457 9.5273438 7.6523438 A 1 1 0 0 0 9.1523438 9.0175781 A 1 1 0 0 0 10.517578 9.390625 C 12.770766 8.108364 15.383208 9.9284514 14.960938 12.486328 A 1 1 0 0 0 15.783203 13.636719 A 1 1 0 0 0 16.933594 12.8125 C 17.439197 9.7498411 15.043725 7.2277803 12.296875 7.0214844 C 12.182423 7.0128887 12.066659 7.0082574 11.951172 7.0078125 z M 20 11 A 1 1 0 0 0 19 12 A 1 1 0 0 0 20 13 L 22 13 A 1 1 0 0 0 23 12 A 1 1 0 0 0 22 11 L 20 11 z M 6.875 11.005859 C 6.0959646 11.019205 5.3033631 11.186669 4.5410156 11.529297 C 1.0559986 13.095596 -0.091848979 17.541874 2.1992188 20.599609 A 1 1 0 0 0 3.5996094 20.800781 A 1 1 0 0 0 3.8007812 19.400391 C 2.2508883 17.331852 3.0037367 14.413107 5.3613281 13.353516 C 7.7189196 12.293924 10.402 13.668825 10.919922 16.201172 A 1.0001 1.0001 0 0 0 11.900391 17 L 13 17 A 1.0001 1.0001 0 0 0 13.001953 17 C 13.969436 16.9986 14.592881 17.553075 14.873047 18.287109 C 15.153213 19.021144 15.056374 19.850572 14.333984 20.494141 A 1 1 0 0 0 14.253906 21.904297 A 1 1 0 0 0 15.666016 21.986328 C 17.003688 20.794572 17.287281 19.002361 16.742188 17.574219 C 16.197095 16.146075 14.789629 14.997367 12.998047 15 L 12.511719 15 C 11.656903 12.683034 9.5760906 11.102049 7.2070312 11.009766 C 7.0963777 11.005456 6.9862908 11.003953 6.875 11.005859 z M 7 18 A 1 1 0 0 0 6 19 L 6 21 A 1 1 0 0 0 7 22 A 1 1 0 0 0 8 21 L 8 19 A 1 1 0 0 0 7 18 z M 11 19 A 1 1 0 0 0 10 20 L 10 22 A 1 1 0 0 0 11 23 A 1 1 0 0 0 12 22 L 12 20 A 1 1 0 0 0 11 19 z "
     stroke-width="0" />
</svg>
