<?xml version="1.0" encoding="UTF-8" standalone="no"?>
<svg
   width="24"
   height="24"
   viewBox="0 0 24 24"
   fill="none"
   stroke="currentColor"
   stroke-width="2"
   stroke-linecap="round"
   stroke-linejoin="round"
   version="1.1"
   id="svg2"
   xmlns="http://www.w3.org/2000/svg"
   xmlns:svg="http://www.w3.org/2000/svg">
  <defs
     id="defs2" />
  <path
     id="path1"
     style="color:#000000;fill:#000000;-inkscape-stroke:none"
     d="M 12 1.0097656 C 8.0144801 1.0097656 5.186118 4.6104955 5.71875 8.421875 C 1.7558915 9.6133987 -0.28925387 14.223232 1.9609375 17.892578 C 3.9448675 21.127737 8.0864357 21.70415 11 19.748047 L 11 22 A 1 1 0 0 0 12 23 A 1 1 0 0 0 13 22 L 13 19.753906 C 15.912145 21.715842 20.057584 21.143201 22.044922 17.90625 C 24.299634 14.233803 22.249967 9.6172543 18.28125 8.4296875 C 18.819122 4.6153594 15.988277 1.0097656 12 1.0097656 z M 12 3.0097656 C 15.026661 3.0097656 17.167783 5.8639199 16.320312 8.7695312 A 1.0001 1.0001 0 0 0 16.279297 9.0507812 L 16.279297 9.0605469 A 1.0001 1.0001 0 0 0 17.138672 10.050781 C 20.381805 10.512244 22.053758 14.067772 20.339844 16.859375 C 18.628405 19.646946 14.708386 19.769003 12.826172 17.097656 A 1 1 0 0 0 12.818359 17.085938 A 1.0001 1.0001 0 0 0 12.816406 17.083984 A 1 1 0 0 0 12.462891 16.775391 A 1 1 0 0 0 12.460938 16.773438 A 1.0001 1.0001 0 0 0 12.458984 16.773438 A 1 1 0 0 0 12 16.660156 A 1 1 0 0 0 11.552734 16.767578 A 1.0001 1.0001 0 0 0 11.517578 16.791016 A 1 1 0 0 0 11.199219 17.068359 A 1.0001 1.0001 0 0 0 11.181641 17.083984 C 9.2982758 19.759449 5.3764166 19.634823 3.6660156 16.845703 C 1.9556147 14.056584 3.6227752 10.50461 6.8613281 10.039062 A 1.0001 1.0001 0 0 0 7.6796875 8.7695312 C 6.8322175 5.8639199 8.9733393 3.0097656 12 3.0097656 z M 18.253906 9.03125 L 18.277344 9.0585938 L 18.251953 9.2460938 C 18.25285 9.1742648 18.236247 9.1046662 18.253906 9.03125 z "
     stroke-width="0" />
</svg>
