<?xml version="1.0" encoding="UTF-8" standalone="no"?>
<svg xmlns="http://www.w3.org/2000/svg" xmlns:svg="http://www.w3.org/2000/svg" width="24" height="24" viewBox="0 0 24 24" fill="currentColor" tags="source,programming,html,xml" categories="text,development">
  
  <path d="M 8 5 A 1 1 0 0 0 7.2929688 5.2929688 L 1.2929688 11.292969 A 1.0001 1.0001 0 0 0 1.2929688 12.707031 L 7.2929688 18.707031 A 1 1 0 0 0 8.7070312 18.707031 A 1 1 0 0 0 8.7070312 17.292969 L 3.4140625 12 L 8.7070312 6.7070312 A 1 1 0 0 0 8.7070312 5.2929688 A 1 1 0 0 0 8 5 z M 15.84375 5.0117188 A 1 1 0 0 0 15.292969 5.2929688 A 1 1 0 0 0 15.292969 6.7070312 L 20.585938 12 L 15.292969 17.292969 A 1 1 0 0 0 15.292969 18.707031 A 1 1 0 0 0 16.707031 18.707031 L 22.707031 12.707031 A 1.0001 1.0001 0 0 0 22.707031 11.292969 L 16.707031 5.2929688 A 1 1 0 0 0 15.84375 5.0117188 z "/>
</svg>
