<?xml version="1.0" encoding="UTF-8" standalone="no"?>
<svg
   width="24"
   height="24"
   viewBox="0 0 24 24"
   fill="none"
   stroke="currentColor"
   stroke-width="2"
   stroke-linecap="round"
   stroke-linejoin="round"
   version="1.1"
   id="svg14"
   xmlns="http://www.w3.org/2000/svg"
   xmlns:svg="http://www.w3.org/2000/svg">
  <defs
     id="defs14" />
  <path
     id="path1"
     style="color:#000000;fill:#000000;-inkscape-stroke:none"
     d="M 12 1 A 1 1 0 0 0 11 2 L 11 3.0566406 C 10.08325 3.1587422 9.2079523 3.4001347 8.3945312 3.7578125 L 7.8652344 2.8398438 A 1 1 0 0 0 7.2597656 2.375 A 1 1 0 0 0 6.5 2.4746094 A 1 1 0 0 0 6.1347656 3.8398438 L 6.6660156 4.7597656 C 5.9399962 5.2964021 5.2964018 5.9399961 4.7597656 6.6660156 L 3.8398438 6.1347656 A 1 1 0 0 0 3.0820312 6.0332031 A 1 1 0 0 0 2.4746094 6.5 A 1 1 0 0 0 2.8398438 7.8652344 L 3.7578125 8.3945312 C 3.4001349 9.2079522 3.1587421 10.083251 3.0566406 11 L 2 11 A 1 1 0 0 0 1 12 A 1 1 0 0 0 2 13 L 3.0566406 13 C 3.1587421 13.916749 3.4001349 14.792048 3.7578125 15.605469 L 2.8398438 16.134766 A 1 1 0 0 0 2.4746094 17.5 A 1 1 0 0 0 3.8398438 17.865234 L 4.7597656 17.333984 C 5.2964018 18.060004 5.9399962 18.703598 6.6660156 19.240234 L 6.1347656 20.160156 A 1 1 0 0 0 6.5 21.525391 A 1 1 0 0 0 7.8652344 21.160156 L 8.3945312 20.242188 C 9.2079523 20.599865 10.08325 20.841258 11 20.943359 L 11 22 A 1 1 0 0 0 12 23 A 1 1 0 0 0 13 22 L 13 20.943359 C 13.91675 20.841258 14.792048 20.599865 15.605469 20.242188 L 16.134766 21.160156 A 1 1 0 0 0 17.5 21.525391 A 1 1 0 0 0 17.865234 20.160156 L 17.333984 19.240234 C 18.060004 18.703598 18.703598 18.060004 19.240234 17.333984 L 20.160156 17.865234 A 1 1 0 0 0 21.525391 17.5 A 1 1 0 0 0 21.160156 16.134766 L 20.242188 15.605469 C 20.599865 14.792048 20.841258 13.916749 20.943359 13 L 22 13 A 1 1 0 0 0 23 12 A 1 1 0 0 0 22 11 L 20.943359 11 C 20.841258 10.083251 20.599865 9.2079522 20.242188 8.3945312 L 21.160156 7.8652344 A 1 1 0 0 0 21.525391 6.5 A 1 1 0 0 0 20.917969 6.0332031 A 1 1 0 0 0 20.160156 6.1347656 L 19.240234 6.6660156 C 18.703598 5.9399961 18.060004 5.2964021 17.333984 4.7597656 L 17.865234 3.8398438 A 1 1 0 0 0 17.5 2.4746094 A 1 1 0 0 0 16.742188 2.3730469 A 1 1 0 0 0 16.134766 2.8398438 L 15.605469 3.7578125 C 14.792048 3.4001347 13.91675 3.1587422 13 3.0566406 L 13 2 A 1 1 0 0 0 12 1 z M 12 5 C 13.267371 5 14.453238 5.3335985 15.476562 5.9179688 A 1 1 0 0 0 15.5 5.9355469 A 1 1 0 0 0 15.529297 5.9492188 C 16.572406 6.5571196 17.442881 7.427594 18.050781 8.4707031 A 1 1 0 0 0 18.064453 8.5 A 1 1 0 0 0 18.082031 8.5234375 C 18.50962 9.2722142 18.80115 10.108695 18.927734 11 L 14.841797 11 C 14.719365 10.626754 14.524158 10.271563 14.248047 9.9609375 C 13.731441 9.3797568 12.916665 9 12 9 C 11.8116 9 11.627307 9.0163402 11.449219 9.046875 L 9.4003906 5.4980469 C 10.203527 5.1783642 11.080275 5 12 5 z M 7.6679688 6.4960938 L 9.703125 10.019531 C 9.221213 10.59129 9 11.301434 9 12 C 9 12.698566 9.221213 13.408709 9.703125 13.980469 L 7.6679688 17.503906 C 6.986379 16.967393 6.4071464 16.306239 5.9648438 15.554688 A 1 1 0 0 0 5.9355469 15.5 A 1 1 0 0 0 5.9160156 15.472656 C 5.3329859 14.450192 5 13.265806 5 12 C 5 10.732629 5.3335988 9.5467625 5.9179688 8.5234375 A 1 1 0 0 0 5.9355469 8.5 A 1 1 0 0 0 5.96875 8.4355469 C 6.410373 7.6877082 6.9890931 7.0304709 7.6679688 6.4960938 z M 12 11 C 12.416666 11 12.601893 11.120245 12.751953 11.289062 C 12.902013 11.457879 13 11.722222 13 12 C 13 12.277778 12.90201 12.54212 12.751953 12.710938 C 12.601893 12.879754 12.416666 13 12 13 C 11.84925 13 11.730314 12.983164 11.630859 12.955078 A 1 1 0 0 0 11.5 12.863281 A 1 1 0 0 0 11.332031 12.792969 C 11.302864 12.766985 11.274074 12.740218 11.248047 12.710938 C 11.097987 12.54212 11 12.277778 11 12 C 11 11.722222 11.097987 11.457879 11.248047 11.289062 C 11.274074 11.259782 11.302864 11.233016 11.332031 11.207031 A 1 1 0 0 0 11.5 11.136719 A 1 1 0 0 0 11.630859 11.044922 C 11.730314 11.016836 11.84925 11 12 11 z M 14.841797 13 L 18.927734 13 C 18.801363 13.889802 18.510399 14.724848 18.083984 15.472656 A 1 1 0 0 0 18.064453 15.5 A 1 1 0 0 0 18.050781 15.529297 C 17.442881 16.572406 16.572406 17.44288 15.529297 18.050781 A 1 1 0 0 0 15.5 18.064453 A 1 1 0 0 0 15.476562 18.082031 C 14.453238 18.666401 13.267371 19 12 19 C 11.080275 19 10.203527 18.821636 9.4003906 18.501953 L 11.449219 14.953125 C 11.627307 14.98366 11.8116 15 12 15 C 12.916665 15 13.731441 14.620243 14.248047 14.039062 C 14.524158 13.728436 14.719365 13.373246 14.841797 13 z "
     stroke-width="0" />
</svg>
