<?xml version="1.0" encoding="UTF-8" standalone="no"?>
<svg
   width="24"
   height="24"
   viewBox="0 0 24 24"
   fill="none"
   stroke="currentColor"
   stroke-width="2"
   stroke-linecap="round"
   stroke-linejoin="round"
   version="1.1"
   id="svg4"
   xmlns="http://www.w3.org/2000/svg"
   xmlns:svg="http://www.w3.org/2000/svg">
  <defs
     id="defs4" />
  <path
     id="path1"
     style="color:#000000;fill:#000000;-inkscape-stroke:none"
     d="M 11.84375 1.0117188 A 1.0001 1.0001 0 0 0 11.292969 1.2929688 L 7.7929688 4.7929688 A 1.0001 1.0001 0 0 0 7.7929688 6.2070312 L 11.292969 9.7070312 A 1.0001 1.0001 0 0 0 12.707031 9.7070312 L 16.207031 6.2070312 A 1.0001 1.0001 0 0 0 16.207031 4.7929688 L 12.707031 1.2929688 A 1.0001 1.0001 0 0 0 11.84375 1.0117188 z M 12 3.4140625 L 14.085938 5.5 L 12 7.5859375 L 9.9140625 5.5 L 12 3.4140625 z M 5.34375 7.5117188 A 1.0001 1.0001 0 0 0 4.7929688 7.7929688 L 1.2929688 11.292969 A 1.0001 1.0001 0 0 0 1.2929688 12.707031 L 4.7929688 16.207031 A 1.0001 1.0001 0 0 0 6.2070312 16.207031 L 9.7070312 12.707031 A 1.0001 1.0001 0 0 0 9.7070312 11.292969 L 6.2070312 7.7929688 A 1.0001 1.0001 0 0 0 5.34375 7.5117188 z M 18.34375 7.5117188 A 1.0001 1.0001 0 0 0 17.792969 7.7929688 L 14.292969 11.292969 A 1.0001 1.0001 0 0 0 14.292969 12.707031 L 17.792969 16.207031 A 1.0001 1.0001 0 0 0 19.207031 16.207031 L 22.707031 12.707031 A 1.0001 1.0001 0 0 0 22.707031 11.292969 L 19.207031 7.7929688 A 1.0001 1.0001 0 0 0 18.34375 7.5117188 z M 5.5 9.9140625 L 7.5859375 12 L 5.5 14.085938 L 3.4140625 12 L 5.5 9.9140625 z M 18.5 9.9140625 L 20.585938 12 L 18.5 14.085938 L 16.414062 12 L 18.5 9.9140625 z M 11.84375 14.011719 A 1.0001 1.0001 0 0 0 11.292969 14.292969 L 7.7929688 17.792969 A 1.0001 1.0001 0 0 0 7.7929688 19.207031 L 11.292969 22.707031 A 1.0001 1.0001 0 0 0 12.707031 22.707031 L 16.207031 19.207031 A 1.0001 1.0001 0 0 0 16.207031 17.792969 L 12.707031 14.292969 A 1.0001 1.0001 0 0 0 11.84375 14.011719 z M 12 16.414062 L 14.085938 18.5 L 12 20.585938 L 9.9140625 18.5 L 12 16.414062 z "
     stroke-width="0" />
</svg>
