<?xml version="1.0" encoding="UTF-8" standalone="no"?>
<svg xmlns="http://www.w3.org/2000/svg" xmlns:svg="http://www.w3.org/2000/svg" width="24" height="24" viewBox="0 0 24 24" fill="currentColor" tags="conical,triangle,triangular,geometry,filter,funnel,hopper,spotlight,searchlight" categories="shapes,maths">
  
  <path d="M 12 1.0507812 C 11.274897 1.0507812 10.549009 1.4125388 10.199219 2.1347656 L 2.2050781 18.101562 A 1 1 0 0 0 2.1992188 18.121094 C 2.0744649 18.389261 2 18.683249 2 19 C 2 19.819542 2.4933634 20.484584 3.0878906 20.953125 C 3.6824178 21.421666 4.4335924 21.77474 5.3203125 22.070312 C 7.0937528 22.66146 9.4246504 23 12 23 C 14.575349 23 16.906247 22.66146 18.679688 22.070312 C 19.566409 21.77474 20.317583 21.421666 20.912109 20.953125 C 21.506637 20.484584 22 19.819542 22 19 C 22 18.737308 21.945885 18.49128 21.857422 18.261719 A 1 1 0 0 0 21.8125 18.144531 A 1 1 0 0 0 21.794922 18.101562 L 13.800781 2.1347656 C 13.450991 1.4125388 12.725103 1.0507813 12 1.0507812 z M 12 3.0058594 A 1.0001 1.0001 0 0 0 12.005859 3.0175781 L 18.431641 15.855469 C 16.690546 15.312596 14.459956 15 12 15 C 9.5400435 15 7.3094541 15.312596 5.5683594 15.855469 L 11.994141 3.0175781 A 1.0001 1.0001 0 0 0 12 3.0058594 z M 12 17 C 14.395204 17 16.562962 17.333487 18.046875 17.828125 C 18.788831 18.075444 19.357507 18.3679 19.673828 18.617188 C 19.831988 18.741832 19.913075 18.835006 19.955078 18.898438 C 19.961774 18.908549 19.961961 18.913286 19.966797 18.921875 L 19.996094 18.976562 C 19.999199 18.98754 20 18.998235 20 19 C 20 19.0089 19.9901 19.133525 19.673828 19.382812 C 19.357507 19.632101 18.788831 19.924556 18.046875 20.171875 C 16.562962 20.666513 14.395204 21 12 21 C 9.6047968 21 7.4370375 20.666513 5.953125 20.171875 C 5.2111687 19.924556 4.6424924 19.632101 4.3261719 19.382812 C 4.0098513 19.133525 4 19.008883 4 19 C 4 18.998235 4.0008006 18.98754 4.0039062 18.976562 L 4.0332031 18.921875 L 4.0449219 18.898438 C 4.0869247 18.835006 4.1680116 18.741832 4.3261719 18.617188 C 4.6424924 18.3679 5.2111687 18.075444 5.953125 17.828125 C 7.4370375 17.333487 9.6047968 17 12 17 z "/>
</svg>
