<?xml version="1.0" encoding="UTF-8" standalone="no"?>
<svg
   width="24"
   height="24"
   viewBox="0 0 24 24"
   fill="none"
   stroke="currentColor"
   stroke-width="2"
   stroke-linecap="round"
   stroke-linejoin="round"
   version="1.1"
   id="svg6"
   xmlns="http://www.w3.org/2000/svg"
   xmlns:svg="http://www.w3.org/2000/svg">
  <defs
     id="defs6" />
  <path
     id="path1"
     style="color:#000000;fill:#000000;-inkscape-stroke:none"
     d="M 12 1 C 7.1421908 1 3.41862 3.9743005 1.8378906 7.7910156 C 0.25716125 11.607731 0.78803786 16.342725 4.2226562 19.777344 C 7.6572747 23.211962 12.392269 23.742839 16.208984 22.162109 C 20.0257 20.58138 23 16.857809 23 12 A 1.0001 1.0001 0 0 0 21.705078 11.044922 C 19.34851 11.770546 17.229454 9.6514898 17.955078 7.2949219 A 1.0001 1.0001 0 0 0 16.705078 6.0449219 C 14.34851 6.7705466 12.229454 4.6514898 12.955078 2.2949219 A 1 1 0 0 0 12.982422 2.0449219 A 1 1 0 0 0 13 2 A 1 1 0 0 0 12.990234 1.9550781 A 1 1 0 0 0 12.951172 1.7578125 A 1 1 0 0 0 12.898438 1.5800781 A 1 1 0 0 0 12.791016 1.4199219 A 1 1 0 0 0 12.664062 1.265625 A 1 1 0 0 0 12.513672 1.1640625 A 1 1 0 0 0 12.333984 1.0664062 A 1 1 0 0 0 12.294922 1.0449219 A 1 1 0 0 0 12.275391 1.0546875 A 1 1 0 0 0 12 1 z M 11.019531 3.1484375 C 11.034261 5.9022317 13.252477 8.0615207 16.023438 7.9765625 C 15.938478 10.747523 18.097769 12.965743 20.851562 12.980469 C 20.480975 16.504112 18.31446 19.125359 15.443359 20.314453 C 12.299566 21.616486 8.5014109 21.227973 5.6367188 18.363281 C 2.7720267 15.498589 2.383514 11.700435 3.6855469 8.5566406 C 4.8746406 5.6855407 7.4958879 3.5190253 11.019531 3.1484375 z M 8.5 7.5 A 1 1 0 0 0 7.5 8.5 L 7.5 8.5097656 A 1 1 0 0 0 8.5 9.5097656 A 1 1 0 0 0 9.5 8.5097656 L 9.5 8.5 A 1 1 0 0 0 8.5 7.5 z M 12 11 A 1 1 0 0 0 11 12 L 11 12.009766 A 1 1 0 0 0 12 13.009766 A 1 1 0 0 0 13 12.009766 L 13 12 A 1 1 0 0 0 12 11 z M 7 13 A 1 1 0 0 0 6 14 L 6 14.009766 A 1 1 0 0 0 7 15.009766 A 1 1 0 0 0 8 14.009766 L 8 14 A 1 1 0 0 0 7 13 z M 16 14.5 A 1 1 0 0 0 15 15.5 L 15 15.509766 A 1 1 0 0 0 16 16.509766 A 1 1 0 0 0 17 15.509766 L 17 15.5 A 1 1 0 0 0 16 14.5 z M 11 16 A 1 1 0 0 0 10 17 L 10 17.009766 A 1 1 0 0 0 11 18.009766 A 1 1 0 0 0 12 17.009766 L 12 17 A 1 1 0 0 0 11 16 z "
     stroke-width="0" />
</svg>
