<?xml version="1.0" encoding="UTF-8" standalone="no"?>
<svg
   width="24"
   height="24"
   viewBox="0 0 24 24"
   fill="none"
   stroke="currentColor"
   stroke-width="2"
   stroke-linecap="round"
   stroke-linejoin="round"
   version="1.1"
   id="svg2"
   xmlns="http://www.w3.org/2000/svg"
   xmlns:svg="http://www.w3.org/2000/svg">
  <defs
     id="defs2" />
  <path
     id="path1"
     style="color:#000000;fill:#000000;-inkscape-stroke:none"
     d="M 4 1 C 2.3545487 1 1 2.3545487 1 4 L 1 14 C 1 15.645451 2.3545487 17 4 17 A 1 1 0 0 0 5 16 A 1 1 0 0 0 4 15 C 3.4454557 15 3 14.554544 3 14 L 3 4 C 3 3.4454557 3.4454557 3 4 3 L 14 3 C 14.554544 3 15 3.4454557 15 4 A 1 1 0 0 0 16 5 A 1 1 0 0 0 17 4 C 17 2.3545487 15.645451 1 14 1 L 4 1 z M 10 7 C 8.3553005 7 7 8.3553005 7 10 L 7 20 C 7 21.644699 8.3553005 23 10 23 L 20 23 C 21.644699 23 23 21.644699 23 20 L 23 10 C 23 8.3553005 21.644699 7 20 7 L 10 7 z M 10 9 L 20 9 C 20.571296 9 21 9.4287039 21 10 L 21 20 C 21 20.571296 20.571296 21 20 21 L 10 21 C 9.4287039 21 9 20.571296 9 20 L 9 10 C 9 9.4287039 9.4287039 9 10 9 z M 18 12 A 1 1 0 0 0 17.292969 12.292969 L 14 15.585938 L 12.707031 14.292969 A 1 1 0 0 0 11.292969 14.292969 A 1 1 0 0 0 11.292969 15.707031 L 13.292969 17.707031 A 1.0001 1.0001 0 0 0 14.707031 17.707031 L 18.707031 13.707031 A 1 1 0 0 0 18.707031 12.292969 A 1 1 0 0 0 18 12 z "
     stroke-width="0" />
</svg>
