<?xml version="1.0" encoding="UTF-8" standalone="no"?>
<svg xmlns="http://www.w3.org/2000/svg" xmlns:svg="http://www.w3.org/2000/svg" width="24" height="24" viewBox="0 0 24 24" fill="currentColor" tags="licence" categories="">
  
  <path d="M 12 1 C 5.9367246 1 1 5.9367246 1 12 C 1 18.063276 5.9367246 23 12 23 C 18.063276 23 23 18.063276 23 12 C 23 5.9367246 18.063276 1 12 1 z M 12 3 C 16.982397 3 21 7.0176026 21 12 C 21 16.982397 16.982397 21 12 21 C 7.0176026 21 3 16.982397 3 12 C 3 7.0176026 7.0176026 3 12 3 z M 11.835938 7.0019531 C 11.596927 7.0090139 11.357366 7.0324875 11.119141 7.0742188 C 10.166238 7.2411439 9.2355838 7.6910567 8.4628906 8.4628906 A 1 1 0 0 0 8.4628906 9.8769531 A 1 1 0 0 0 9.8769531 9.8769531 C 10.852238 8.9027523 12.091253 8.7910241 13.146484 9.2285156 C 14.201715 9.6660073 14.996094 10.621734 14.996094 12 C 14.996094 13.378266 14.201715 14.333993 13.146484 14.771484 C 12.091253 15.208976 10.852238 15.097248 9.8769531 14.123047 A 1 1 0 0 0 8.4628906 14.123047 A 1 1 0 0 0 8.4628906 15.537109 C 10.008276 17.080778 12.18419 17.335524 13.912109 16.619141 C 15.64003 15.902756 16.996094 14.184091 16.996094 12 C 16.996094 9.8159091 15.64003 8.0972431 13.912109 7.3808594 C 13.26414 7.1122154 12.55297 6.9807707 11.835938 7.0019531 z "/>
</svg>
