<?xml version="1.0" encoding="UTF-8" standalone="no"?>
<svg
   width="24"
   height="24"
   viewBox="0 0 24 24"
   fill="none"
   stroke="currentColor"
   stroke-width="2"
   stroke-linecap="round"
   stroke-linejoin="round"
   version="1.1"
   id="svg1"
   xmlns="http://www.w3.org/2000/svg"
   xmlns:svg="http://www.w3.org/2000/svg">
  <defs
     id="defs1" />
  <path
     id="polyline1"
     style="color:#000000;fill:#000000;-inkscape-stroke:none"
     d="M 15 3 A 1 1 0 0 0 14.292969 3.2929688 A 1 1 0 0 0 14.292969 4.7070312 L 17.585938 8 L 8 8 C 5.2504263 8 3 10.250427 3 13 L 3 20 A 1 1 0 0 0 4 21 A 1 1 0 0 0 5 20 L 5 13 C 5 11.331305 6.3313045 10 8 10 L 17.585938 10 L 14.292969 13.292969 A 1 1 0 0 0 14.292969 14.707031 A 1 1 0 0 0 15.707031 14.707031 L 20.707031 9.7070312 A 1.0001 1.0001 0 0 0 20.917969 9.390625 A 1 1 0 0 0 20.925781 9.3769531 A 1.0001 1.0001 0 0 0 20.998047 9.0097656 A 1 1 0 0 0 21 9 A 1 1 0 0 0 20.998047 8.9667969 A 1.0001 1.0001 0 0 0 20.994141 8.9121094 A 1 1 0 0 0 20.990234 8.8535156 A 1 1 0 0 0 20.988281 8.84375 A 1.0001 1.0001 0 0 0 20.980469 8.8105469 A 1 1 0 0 0 20.941406 8.6679688 A 1 1 0 0 0 20.933594 8.6425781 A 1.0001 1.0001 0 0 0 20.929688 8.6328125 A 1 1 0 0 0 20.908203 8.5859375 A 1.0001 1.0001 0 0 0 20.875 8.5214844 A 1.0001 1.0001 0 0 0 20.865234 8.5 A 1 1 0 0 0 20.853516 8.4824219 A 1.0001 1.0001 0 0 0 20.810547 8.4160156 A 1.0001 1.0001 0 0 0 20.792969 8.390625 A 1 1 0 0 0 20.777344 8.3710938 A 1.0001 1.0001 0 0 0 20.707031 8.2929688 L 15.707031 3.2929688 A 1 1 0 0 0 15 3 z "
     stroke-width="0" />
</svg>
