<?xml version="1.0" encoding="UTF-8" standalone="no"?>
<svg
   width="24"
   height="24"
   viewBox="0 0 24 24"
   fill="none"
   stroke="currentColor"
   stroke-width="2"
   stroke-linecap="round"
   stroke-linejoin="round"
   version="1.1"
   id="svg1"
   xmlns="http://www.w3.org/2000/svg"
   xmlns:svg="http://www.w3.org/2000/svg">
  <defs
     id="defs1" />
  <path
     id="polyline1"
     style="color:#000000;fill:#000000;-inkscape-stroke:none"
     d="M 9 3 A 1 1 0 0 0 8.2929688 3.2929688 L 3.2929688 8.2929688 A 1.0001 1.0001 0 0 0 3.0957031 8.5878906 A 1 1 0 0 0 3.0605469 8.6953125 A 1.0001 1.0001 0 0 0 3.0117188 8.9414062 A 1 1 0 0 0 3 9 A 1 1 0 0 0 3.0117188 9.0585938 A 1.0001 1.0001 0 0 0 3.0605469 9.3046875 A 1 1 0 0 0 3.0957031 9.4121094 A 1.0001 1.0001 0 0 0 3.2929688 9.7070312 L 8.2929688 14.707031 A 1 1 0 0 0 9.7070312 14.707031 A 1 1 0 0 0 9.7070312 13.292969 L 6.4140625 10 L 16 10 C 17.668695 10 19 11.331305 19 13 L 19 20 A 1 1 0 0 0 20 21 A 1 1 0 0 0 21 20 L 21 13 C 21 10.250427 18.749573 8 16 8 L 6.4140625 8 L 9.7070312 4.7070312 A 1 1 0 0 0 9.7070312 3.2929688 A 1 1 0 0 0 9 3 z "
     stroke-width="0" />
</svg>
