<?xml version="1.0" encoding="UTF-8" standalone="no"?>
<svg
   width="24"
   height="24"
   viewBox="0 0 24 24"
   fill="none"
   stroke="currentColor"
   stroke-width="2"
   stroke-linecap="round"
   stroke-linejoin="round"
   version="1.1"
   id="svg9"
   xmlns="http://www.w3.org/2000/svg"
   xmlns:svg="http://www.w3.org/2000/svg">
  <defs
     id="defs9" />
  <path
     id="rect1"
     style="color:#000000;fill:#000000;-inkscape-stroke:none"
     d="M 9 1 A 1 1 0 0 0 8 2 L 8 3 L 6 3 C 4.3553005 3 3 4.3553005 3 6 L 3 8 L 2 8 A 1 1 0 0 0 1 9 A 1 1 0 0 0 2 10 L 3 10 L 3 14 L 2 14 A 1 1 0 0 0 1 15 A 1 1 0 0 0 2 16 L 3 16 L 3 18 C 3 19.644699 4.3553005 21 6 21 L 8 21 L 8 22 A 1 1 0 0 0 9 23 A 1 1 0 0 0 10 22 L 10 21 L 14 21 L 14 22 A 1 1 0 0 0 15 23 A 1 1 0 0 0 16 22 L 16 21 L 18 21 C 19.644699 21 21 19.644699 21 18 L 21 16 L 22 16 A 1 1 0 0 0 23 15 A 1 1 0 0 0 22 14 L 21 14 L 21 10 L 22 10 A 1 1 0 0 0 23 9 A 1 1 0 0 0 22 8 L 21 8 L 21 6 C 21 4.3553005 19.644699 3 18 3 L 16 3 L 16 2 A 1 1 0 0 0 15 1 A 1 1 0 0 0 14 2 L 14 3 L 10 3 L 10 2 A 1 1 0 0 0 9 1 z M 6 5 L 18 5 C 18.571296 5 19 5.4287039 19 6 L 19 18 C 19 18.571296 18.571296 19 18 19 L 9 19 L 6 19 C 5.4287039 19 5 18.571296 5 18 L 5 6 C 5 5.4287039 5.4287039 5 6 5 z M 9 8 A 1.0001 1.0001 0 0 0 8 9 L 8 15 A 1.0001 1.0001 0 0 0 9 16 L 15 16 A 1.0001 1.0001 0 0 0 16 15 L 16 9 A 1.0001 1.0001 0 0 0 15 8 L 9 8 z M 10 10 L 14 10 L 14 14 L 10 14 L 10 10 z "
     stroke-width="0" />
</svg>
