<?xml version="1.0" encoding="UTF-8" standalone="no"?>
<svg
   width="24"
   height="24"
   viewBox="0 0 24 24"
   fill="none"
   stroke="currentColor"
   stroke-width="2"
   stroke-linecap="round"
   stroke-linejoin="round"
   version="1.1"
   id="svg2"
   xmlns="http://www.w3.org/2000/svg"
   xmlns:svg="http://www.w3.org/2000/svg">
  <defs
     id="defs2" />
  <path
     id="circle1"
     style="color:#000000;fill:#000000;-inkscape-stroke:none"
     d="M 12 1 C 5.9367246 1 1 5.9367246 1 12 C 1 18.063276 5.9367246 23 12 23 C 18.063276 23 23 18.063276 23 12 C 23 5.9367246 18.063276 1 12 1 z M 12 3 C 16.982397 3 21 7.0176026 21 12 C 21 16.982397 16.982397 21 12 21 C 7.0176026 21 3 16.982397 3 12 C 3 7.0176026 7.0176026 3 12 3 z M 8.7695312 8.0488281 C 8.4372049 8.0551454 8.1086247 8.1045671 7.7910156 8.1953125 C 6.9440583 8.4373004 6.1806479 8.9708838 5.6660156 9.7480469 A 1.0001 1.0001 0 0 0 5.6640625 9.7519531 C 4.7721125 11.11207 4.773927 12.876448 5.6621094 14.238281 C 6.6658239 15.845781 8.7465396 16.440374 10.445312 15.595703 A 1 1 0 0 0 10.894531 14.253906 A 1 1 0 0 0 9.5546875 13.804688 C 8.7598936 14.199878 7.8176074 13.931211 7.3515625 13.175781 A 1.0001 1.0001 0 0 0 7.3359375 13.152344 C 6.8767257 12.4521 6.8764117 11.552513 7.3339844 10.851562 L 7.3359375 10.851562 C 7.8295139 10.107651 8.7720662 9.8373119 9.5839844 10.208984 A 1 1 0 0 0 10.910156 9.7167969 A 1 1 0 0 0 10.416016 8.390625 C 9.88631 8.1481411 9.3234086 8.0382993 8.7695312 8.0488281 z M 15.769531 8.0488281 C 15.437205 8.0551454 15.108625 8.1045671 14.791016 8.1953125 C 13.944057 8.4373004 13.180647 8.9708838 12.666016 9.7480469 A 1.0001 1.0001 0 0 0 12.664062 9.7519531 C 11.772112 11.11207 11.773976 12.876448 12.662109 14.238281 C 13.665824 15.845781 15.74654 16.440374 17.445312 15.595703 A 1 1 0 0 0 17.894531 14.253906 A 1 1 0 0 0 16.554688 13.804688 C 15.759894 14.199878 14.817607 13.931211 14.351562 13.175781 A 1.0001 1.0001 0 0 0 14.335938 13.152344 C 13.876725 12.4521 13.876461 11.552513 14.333984 10.851562 L 14.335938 10.851562 C 14.829513 10.107651 15.772066 9.8373119 16.583984 10.208984 A 1 1 0 0 0 17.910156 9.7167969 A 1 1 0 0 0 17.416016 8.390625 C 16.88631 8.1481411 16.323408 8.0382993 15.769531 8.0488281 z "
     stroke-width="0" />
</svg>
