<?xml version="1.0" encoding="UTF-8" standalone="no"?>
<svg
   width="24"
   height="24"
   viewBox="0 0 24 24"
   fill="none"
   stroke="currentColor"
   stroke-width="2"
   stroke-linecap="round"
   stroke-linejoin="round"
   version="1.1"
   id="svg1"
   xmlns="http://www.w3.org/2000/svg"
   xmlns:svg="http://www.w3.org/2000/svg">
  <defs
     id="defs1" />
  <path
     id="rect1"
     style="color:#000000;fill:#000000;-inkscape-stroke:none"
     d="M 4 4 C 2.3553005 4 1 5.3553005 1 7 L 1 10 L 1 17 C 1 18.644699 2.3553005 20 4 20 L 20 20 C 21.644699 20 23 18.644699 23 17 L 23 10 L 23 7 C 23 5.3553005 21.644699 4 20 4 L 4 4 z M 4 6 L 20 6 C 20.571296 6 21 6.4287039 21 7 L 21 9 L 3 9 L 3 7 C 3 6.4287039 3.4287039 6 4 6 z M 3 11 L 21 11 L 21 17 C 21 17.571296 20.571296 18 20 18 L 4 18 C 3.4287039 18 3 17.571296 3 17 L 3 11 z "
     stroke-width="0" />
</svg>
