<?xml version="1.0" encoding="UTF-8" standalone="no"?>
<svg
   width="24"
   height="24"
   viewBox="0 0 24 24"
   fill="none"
   stroke="currentColor"
   stroke-width="2"
   stroke-linecap="round"
   stroke-linejoin="round"
   version="1.1"
   id="svg5"
   xmlns="http://www.w3.org/2000/svg"
   xmlns:svg="http://www.w3.org/2000/svg">
  <defs
     id="defs5" />
  <path
     id="path1"
     style="color:#000000;fill:#000000;-inkscape-stroke:none"
     d="M 6 1 C 4.6383361 1 3.5869898 1.878591 3.1015625 2.8769531 C 2.7164599 3.6689808 2.5661924 4.536122 2.5195312 5.3632812 C 2.312899 5.4663654 2.1172474 5.5960343 1.9355469 5.7617188 C 1.2333128 6.4020538 1 7.3683356 1 8.5 A 1.0001 1.0001 0 0 0 1.0019531 8.546875 C 1.0870531 10.367511 1.7411664 12.109928 2.8632812 13.533203 C 2.8181647 13.626387 2.7773966 13.72146 2.7441406 13.818359 C 2.5230482 14.46257 2.5529406 15.132562 2.7109375 15.759766 C 3.0269312 17.01417 3.8358063 18.183022 4.8261719 19.169922 C 5.8165374 20.156822 6.9877062 20.960744 8.2382812 21.279297 C 8.8635687 21.438573 9.5309842 21.472201 10.173828 21.257812 C 10.273381 21.224611 10.371055 21.182514 10.466797 21.136719 C 11.890072 22.258834 13.632489 22.912947 15.453125 22.998047 A 1.0001 1.0001 0 0 0 15.5 23 C 16.631665 23 17.597947 22.766687 18.238281 22.064453 C 18.403966 21.882752 18.533635 21.687101 18.636719 21.480469 C 19.463878 21.433807 20.331019 21.28354 21.123047 20.898438 C 22.121409 20.413011 23 19.361664 23 18 C 23 17.25771 22.77064 16.575167 22.347656 16.087891 C 21.924673 15.600613 21.370439 15.339028 20.84375 15.195312 C 20.126021 14.999467 19.40448 14.980911 18.787109 14.988281 C 18.691261 14.76912 18.56646 14.567576 18.416016 14.398438 C 18.053541 13.990922 17.612016 13.757882 17.175781 13.578125 L 15.326172 12.769531 C 15.33466 12.433428 15.291829 12.101623 15.203125 11.792969 C 14.996033 11.072368 14.582836 10.440607 14.0625 9.9257812 C 13.542164 9.410955 12.90824 9.0061919 12.191406 8.8027344 C 11.887707 8.716536 11.562092 8.6753306 11.232422 8.6816406 L 10.425781 6.8300781 L 10.421875 6.8242188 C 10.242108 6.3879853 10.009078 5.9464587 9.6015625 5.5839844 C 9.432424 5.4335401 9.2308798 5.3087386 9.0117188 5.2128906 C 9.019089 4.5955204 9.0005331 3.8739796 8.8046875 3.15625 C 8.6609706 2.6295604 8.3993866 2.0753275 7.9121094 1.6523438 C 7.4248322 1.2293601 6.7422902 1 6 1 z M 6 3 C 6.3777076 3 6.5038409 3.0772816 6.6015625 3.1621094 C 6.6992841 3.2469371 6.7987173 3.4020819 6.875 3.6816406 C 6.967236 4.0196647 6.9935455 4.4948999 7 5 L 4.5664062 5 C 4.630584 4.5204306 4.7408566 4.0760444 4.8984375 3.7519531 C 5.1630087 3.2078184 5.3616679 3 6 3 z M 4.5 7 L 8 7 C 8.1999996 7 8.207884 7.0198171 8.2734375 7.078125 C 8.3389914 7.1364329 8.4543237 7.2980991 8.5742188 7.5898438 A 1.0001 1.0001 0 0 0 8.5839844 7.609375 L 9.3398438 9.3398438 L 4.3085938 12.128906 C 3.5272844 11.071547 3.0713452 9.8034235 3.0039062 8.4804688 C 3.0087792 7.6431594 3.1647908 7.346256 3.2832031 7.2382812 C 3.4034674 7.1286179 3.7424674 7 4.5 7 z M 11.314453 10.669922 C 11.414602 10.673399 11.524712 10.691998 11.646484 10.726562 C 11.971212 10.818732 12.350338 11.044985 12.65625 11.347656 C 12.962162 11.650329 13.189279 12.023727 13.28125 12.34375 C 13.37322 12.663773 13.352582 12.895904 13.226562 13.121094 A 1.0001 1.0001 0 0 0 13.224609 13.125 L 10.005859 18.933594 C 9.848642 19.216377 9.719459 19.301816 9.5410156 19.361328 C 9.3625723 19.42084 9.0910386 19.433145 8.7324219 19.341797 C 8.0151883 19.1591 7.032209 18.547002 6.2363281 17.753906 C 5.4404473 16.96081 4.8297085 15.983326 4.6503906 15.271484 C 4.5607317 14.915565 4.5747258 14.649383 4.6367188 14.46875 C 4.6987118 14.288117 4.7904658 14.148785 5.0859375 13.984375 L 10.875 10.775391 A 1.0001 1.0001 0 0 0 10.875 10.773438 C 11.006809 10.70021 11.147538 10.664126 11.314453 10.669922 z M 14.660156 14.660156 L 16.390625 15.416016 A 1.0001 1.0001 0 0 0 16.410156 15.425781 C 16.701901 15.545676 16.863567 15.661009 16.921875 15.726562 C 16.980184 15.79208 17 15.8 17 16 L 17 19.5 C 17 20.257532 16.871382 20.596532 16.761719 20.716797 C 16.653744 20.835209 16.35684 20.991221 15.519531 20.996094 C 14.197106 20.928684 12.93015 20.472144 11.873047 19.691406 L 14.660156 14.660156 z M 19 17 C 19.5051 17.006454 19.980335 17.032761 20.318359 17.125 C 20.597918 17.20128 20.753063 17.300717 20.837891 17.398438 C 20.922718 17.496159 21 17.622292 21 18 C 21 18.638332 20.792181 18.836992 20.248047 19.101562 C 19.923956 19.259144 19.47957 19.369416 19 19.433594 L 19 17 z "
     stroke-width="0" />
</svg>
