<?xml version="1.0" encoding="UTF-8" standalone="no"?>
<svg
   width="24"
   height="24"
   viewBox="0 0 24 24"
   fill="none"
   stroke="currentColor"
   stroke-width="2"
   stroke-linecap="round"
   stroke-linejoin="round"
   version="1.1"
   id="svg4"
   xmlns="http://www.w3.org/2000/svg"
   xmlns:svg="http://www.w3.org/2000/svg">
  <defs
     id="defs4" />
  <path
     id="circle1"
     style="color:#000000;fill:#000000;-inkscape-stroke:none"
     d="M 12 1 C 5.9367246 1 1 5.9367246 1 12 C 1 18.063276 5.9367246 23 12 23 C 18.063276 23 23 18.063276 23 12 A 1 1 0 0 0 22.998047 11.925781 C 22.957872 5.9215826 18.078418 1.0421278 12.074219 1.0019531 A 1 1 0 0 0 12 1 z M 11 3.0566406 L 11 6 A 1 1 0 0 0 12 7 A 1 1 0 0 0 13 6 L 13 3.0566406 C 17.180269 3.5160357 20.483964 6.8197307 20.943359 11 L 18 11 A 1 1 0 0 0 17 12 A 1 1 0 0 0 18 13 L 20.943359 13 C 20.483964 17.180269 17.180269 20.483964 13 20.943359 L 13 18 A 1 1 0 0 0 12 17 A 1 1 0 0 0 11 18 L 11 20.943359 C 6.8197307 20.483964 3.5160357 17.180269 3.0566406 13 L 6 13 A 1 1 0 0 0 7 12 A 1 1 0 0 0 6 11 L 3.0566406 11 C 3.5160357 6.8197307 6.8197307 3.5160357 11 3.0566406 z "
     stroke-width="0" />
</svg>
