<?xml version="1.0" encoding="UTF-8" standalone="no"?>
<svg
   width="24"
   height="24"
   viewBox="0 0 24 24"
   fill="none"
   stroke="currentColor"
   stroke-width="2"
   stroke-linecap="round"
   stroke-linejoin="round"
   version="1.1"
   id="svg1"
   xmlns="http://www.w3.org/2000/svg"
   xmlns:svg="http://www.w3.org/2000/svg">
  <defs
     id="defs1" />
  <path
     id="path1"
     style="color:#000000;fill:#000000;-inkscape-stroke:none"
     d="M 11 1 C 9.3549936 1 8 2.3549936 8 4 L 8 8 L 4 8 C 2.3549936 8 1 9.3549936 1 11 L 1 13 C 1 14.645451 2.3545487 16 4 16 L 8 16 L 8 20 C 8 21.645451 9.3545487 23 11 23 L 13 23 C 14.645006 23 16 21.645006 16 20 L 16 16 L 20 16 C 21.645006 16 23 14.645006 23 13 L 23 11 C 23 9.3549936 21.645006 8 20 8 L 16 8 L 16 4 C 16 2.3549936 14.645006 1 13 1 L 11 1 z M 11 3 L 13 3 C 13.564128 3 14 3.4358718 14 4 L 14 9 A 1.0001 1.0001 0 0 0 15 10 L 20 10 C 20.564128 10 21 10.435872 21 11 L 21 13 C 21 13.564128 20.564128 14 20 14 L 15 14 A 1.0001 1.0001 0 0 0 14 15 L 14 20 C 14 20.564128 13.564128 21 13 21 L 11 21 C 10.445456 21 10 20.554544 10 20 L 10 15 A 1.0001 1.0001 0 0 0 9 14 L 4 14 C 3.4454557 14 3 13.554544 3 13 L 3 11 C 3 10.435872 3.4358718 10 4 10 L 9 10 A 1.0001 1.0001 0 0 0 10 9 L 10 4 C 10 3.4358718 10.435872 3 11 3 z "
     stroke-width="0" />
</svg>
