<?xml version="1.0" encoding="UTF-8" standalone="no"?>
<svg xmlns="http://www.w3.org/2000/svg" xmlns:svg="http://www.w3.org/2000/svg" width="24" height="24" viewBox="0 0 24 24" fill="currentColor" tags="king,winner,favourite" categories="gaming">
  
  <path d="M 1.9707031 3 A 1.0001 1.0001 0 0 0 1.0292969 4.2421875 L 4.0292969 16.242188 A 1.0001 1.0001 0 0 0 5 17 L 19 17 A 1.0001 1.0001 0 0 0 19.970703 16.242188 L 22.970703 4.2421875 A 1.0001 1.0001 0 0 0 21.240234 3.3496094 L 16.164062 9.2714844 L 12.869141 3.5039062 A 1.0001 1.0001 0 0 0 12 3 A 1.0001 1.0001 0 0 0 11.130859 3.5039062 L 7.8359375 9.2714844 L 2.7597656 3.3496094 A 1.0001 1.0001 0 0 0 1.9707031 3 z M 12 6.0175781 L 15.130859 11.496094 A 1.0001 1.0001 0 0 0 16.759766 11.650391 L 20.001953 7.8671875 L 18.21875 15 L 5.78125 15 L 3.9980469 7.8671875 L 7.2402344 11.650391 A 1.0001 1.0001 0 0 0 8.8691406 11.496094 L 12 6.0175781 z M 5 19 A 1 1 0 0 0 4 20 A 1 1 0 0 0 5 21 L 19 21 A 1 1 0 0 0 20 20 A 1 1 0 0 0 19 19 L 5 19 z "/>
</svg>
