<?xml version="1.0" encoding="UTF-8" standalone="no"?>
<svg
   width="24"
   height="24"
   viewBox="0 0 24 24"
   fill="none"
   stroke="currentColor"
   stroke-width="2"
   stroke-linecap="round"
   stroke-linejoin="round"
   version="1.1"
   id="svg4"
   xmlns="http://www.w3.org/2000/svg"
   xmlns:svg="http://www.w3.org/2000/svg">
  <defs
     id="defs4" />
  <path
     id="circle1"
     style="color:#000000;fill:#000000;-inkscape-stroke:none"
     d="M 3 2 A 1 1 0 0 0 2.2929688 2.2929688 A 1 1 0 0 0 2.2929688 3.7070312 L 4.9746094 6.3886719 C 3.7411532 7.9292496 3 9.8797912 3 12 C 3 14.120209 3.7411532 16.07075 4.9746094 17.611328 L 2.2929688 20.292969 A 1 1 0 0 0 2.2929688 21.707031 A 1 1 0 0 0 3.7070312 21.707031 L 6.3886719 19.025391 C 7.9292496 20.258847 9.8797912 21 12 21 C 14.120209 21 16.07075 20.258847 17.611328 19.025391 L 20.292969 21.707031 A 1 1 0 0 0 21.707031 21.707031 A 1 1 0 0 0 21.707031 20.292969 L 19.025391 17.611328 C 20.258847 16.07075 21 14.120209 21 12 C 21 9.8797912 20.258847 7.9292496 19.025391 6.3886719 L 21.707031 3.7070312 A 1 1 0 0 0 21.707031 2.2929688 A 1 1 0 0 0 20.292969 2.2929688 L 17.611328 4.9746094 C 16.07075 3.7411532 14.120209 3 12 3 C 9.8797912 3 7.9292496 3.7411532 6.3886719 4.9746094 L 3.7070312 2.2929688 A 1 1 0 0 0 3 2 z M 12 5 C 15.87783 5 19 8.1221699 19 12 C 19 15.87783 15.87783 19 12 19 C 8.1221699 19 5 15.87783 5 12 C 5 8.1221699 8.1221699 5 12 5 z "
     stroke-width="0" />
</svg>
