<?xml version="1.0" encoding="UTF-8" standalone="no"?>
<svg xmlns="http://www.w3.org/2000/svg" xmlns:svg="http://www.w3.org/2000/svg" width="24" height="24" viewBox="0 0 24 24" fill="currentColor" tags="shape,elliptical,geometry,container,storage,tin,pot" categories="shapes,design,maths">
  
  <path d="M 12 1 C 9.4246504 1 7.0937528 1.3385407 5.3203125 1.9296875 C 4.4335924 2.2252609 3.6824178 2.578335 3.0878906 3.046875 C 2.4933634 3.515415 2 4.180458 2 5 L 2 19 C 2 19.874998 2.5236196 20.616489 3.1679688 21.107422 C 3.8123178 21.598354 4.6130041 21.937491 5.5292969 22.208984 C 7.3618823 22.751973 9.6759306 23 12 23 C 14.32407 23 16.638118 22.751973 18.470703 22.208984 C 19.386996 21.937491 20.187682 21.598354 20.832031 21.107422 C 21.476381 20.616489 22 19.874998 22 19 L 22 5 C 22 4.180458 21.506637 3.515415 20.912109 3.046875 C 20.317583 2.578335 19.566409 2.2252609 18.679688 1.9296875 C 16.906247 1.3385407 14.575349 1 12 1 z M 12 3 C 14.395204 3 16.562962 3.3334875 18.046875 3.828125 C 18.788831 4.0754438 19.357507 4.3678989 19.673828 4.6171875 C 19.990149 4.8664761 20 4.9911165 20 5 C 20 5.00888 19.9901 5.1335239 19.673828 5.3828125 C 19.357507 5.6321011 18.788831 5.9245562 18.046875 6.171875 C 16.562962 6.6665125 14.395204 7 12 7 C 9.6047968 7 7.4370375 6.6665125 5.953125 6.171875 C 5.2111687 5.9245562 4.6424924 5.6321011 4.3261719 5.3828125 C 4.0098513 5.1335239 4 5.0088835 4 5 C 4 4.9911165 4.0098513 4.8664761 4.3261719 4.6171875 C 4.6424924 4.3678989 5.2111687 4.0754438 5.953125 3.828125 C 7.4370375 3.3334875 9.6047968 3 12 3 z M 4 7.5273438 C 4.3983027 7.73113 4.8386322 7.9097524 5.3203125 8.0703125 C 7.0937528 8.6614593 9.4246504 9 12 9 C 14.575349 9 16.906247 8.6614593 18.679688 8.0703125 C 19.161368 7.9097524 19.601697 7.73113 20 7.5273438 L 20 19 C 20 19.124999 19.961119 19.258512 19.621094 19.517578 C 19.28107 19.776644 18.675501 20.062511 17.904297 20.291016 C 16.361889 20.748025 14.175922 21 12 21 C 9.8240784 21 7.6381109 20.748025 6.0957031 20.291016 C 5.3244993 20.062511 4.7189302 19.776644 4.3789062 19.517578 C 4.0388824 19.258512 4 19.124999 4 19 L 4 7.5273438 z "/>
</svg>
