<?xml version="1.0" encoding="UTF-8" standalone="no"?>
<svg
   width="24"
   height="24"
   viewBox="0 0 24 24"
   fill="none"
   stroke="currentColor"
   stroke-width="2"
   stroke-linecap="round"
   stroke-linejoin="round"
   version="1.1"
   id="svg5"
   xmlns="http://www.w3.org/2000/svg"
   xmlns:svg="http://www.w3.org/2000/svg">
  <defs
     id="defs5" />
  <path
     id="ellipse1"
     style="color:#000000;fill:#000000;-inkscape-stroke:none"
     d="M 12 1 C 9.4246504 1 7.0937528 1.3385407 5.3203125 1.9296875 C 4.4335924 2.2252609 3.6824178 2.578335 3.0878906 3.046875 C 2.4933634 3.515415 2 4.180458 2 5 L 2 19 C 1.9993542 19.662879 2.3351735 20.242614 2.7675781 20.669922 C 3.1999829 21.097229 3.7451761 21.42645 4.3886719 21.712891 C 5.6756634 22.285771 7.3765845 22.680063 9.3730469 22.875 A 1 1 0 0 0 10.464844 21.976562 A 1 1 0 0 0 9.5664062 20.884766 C 7.7268392 20.705148 6.1924441 20.325142 5.203125 19.884766 C 4.7084654 19.664577 4.3550447 19.427127 4.1738281 19.248047 C 3.9926116 19.068966 3.9999968 19.003323 4 19 L 4 14.527344 C 5.0008749 15.041423 6.2921206 15.420466 7.8359375 15.675781 A 1 1 0 0 0 8.9863281 14.853516 A 1 1 0 0 0 8.1640625 13.703125 C 6.7068456 13.462131 5.5395591 13.087075 4.8222656 12.701172 C 4.1049722 12.315268 3.9999917 12.005183 4 12.001953 L 4 7.5273438 C 4.3983027 7.73113 4.8386322 7.9097524 5.3203125 8.0703125 C 7.0937528 8.6614593 9.4246504 9 12 9 C 14.575349 9 16.906247 8.6614593 18.679688 8.0703125 C 19.161368 7.9097524 19.601697 7.73113 20 7.5273438 L 20 9.3007812 A 1 1 0 0 0 21 10.300781 A 1 1 0 0 0 22 9.3007812 L 22 5 C 22 4.9750576 21.99895 4.9504362 21.998047 4.9257812 A 1 1 0 0 0 21.996094 4.9160156 C 21.963707 4.1350509 21.486146 3.4992664 20.912109 3.046875 C 20.317583 2.578335 19.566409 2.2252609 18.679688 1.9296875 C 16.906247 1.3385407 14.575349 1 12 1 z M 12 3 C 14.395204 3 16.562962 3.3334875 18.046875 3.828125 C 18.788831 4.0754438 19.357507 4.3678989 19.673828 4.6171875 C 19.990149 4.8664761 20 4.9911165 20 5 C 20 5.00888 19.9901 5.1335239 19.673828 5.3828125 C 19.357507 5.6321011 18.788831 5.9245562 18.046875 6.171875 C 16.562962 6.6665125 14.395204 7 12 7 C 9.6047968 7 7.4370375 6.6665125 5.953125 6.171875 C 5.2111687 5.9245562 4.6424924 5.6321011 4.3261719 5.3828125 C 4.0098513 5.1335239 4 5.0088835 4 5 C 4 4.9911165 4.0098513 4.8664761 4.3261719 4.6171875 C 4.6424924 4.3678989 5.2111687 4.0754438 5.953125 3.828125 C 7.4370375 3.3334875 9.6047968 3 12 3 z M 12 11 A 1 1 0 0 0 11 12 L 11 16 A 1.0001 1.0001 0 0 0 11.011719 16.103516 A 1 1 0 0 0 11.021484 16.185547 A 1.0001 1.0001 0 0 0 11.107422 16.445312 A 1 1 0 0 0 11.128906 16.480469 A 1.0001 1.0001 0 0 0 11.267578 16.671875 A 1 1 0 0 0 11.292969 16.707031 A 1 1 0 0 0 11.328125 16.732422 A 1.0001 1.0001 0 0 0 11.519531 16.871094 A 1 1 0 0 0 11.554688 16.892578 A 1.0001 1.0001 0 0 0 11.814453 16.978516 A 1 1 0 0 0 11.896484 16.988281 A 1.0001 1.0001 0 0 0 12 17 L 16 17 A 1 1 0 0 0 17 16 A 1 1 0 0 0 16 15 L 14.414062 15 L 14.796875 14.617188 C 15.485355 13.928706 16.440679 13.5 17.5 13.5 C 19.444837 13.5 21 15.055163 21 17 C 21 18.978185 19.793385 20.285668 18.265625 20.794922 C 16.737865 21.304175 14.987692 20.982938 13.800781 19.400391 A 1 1 0 0 0 12.400391 19.199219 A 1 1 0 0 0 12.199219 20.599609 C 13.895338 22.861103 16.645012 23.441897 18.896484 22.691406 C 21.147957 21.940916 23 19.826866 23 17 C 23 13.974285 20.525715 11.5 17.5 11.5 C 15.899327 11.5 14.434327 12.151609 13.382812 13.203125 L 13 13.585938 L 13 12 A 1 1 0 0 0 12 11 z "
     stroke-width="0" />
</svg>
