<?xml version="1.0" encoding="UTF-8" standalone="no"?>
<svg xmlns="http://www.w3.org/2000/svg" xmlns:svg="http://www.w3.org/2000/svg" width="24" height="24" viewBox="0 0 24 24" fill="currentColor" tags="backspace,remove" categories="text,arrows">
  
  <path d="M 9 4 A 1.0001 1.0001 0 0 0 8.2929688 4.2929688 L 1.2929688 11.292969 A 1.0001 1.0001 0 0 0 1.2929688 12.707031 L 8.2929688 19.707031 A 1.0001 1.0001 0 0 0 9 20 L 20 20 C 21.645006 20 23 18.645006 23 17 L 23 7 C 23 5.3549936 21.645006 4 20 4 L 9 4 z M 9.4140625 6 L 20 6 C 20.564128 6 21 6.4358718 21 7 L 21 17 C 21 17.564128 20.564128 18 20 18 L 9.4140625 18 L 3.4140625 12 L 9.4140625 6 z M 12 8 A 1 1 0 0 0 11.292969 8.2929688 A 1 1 0 0 0 11.292969 9.7070312 L 13.585938 12 L 11.292969 14.292969 A 1 1 0 0 0 11.292969 15.707031 A 1 1 0 0 0 12.707031 15.707031 L 15 13.414062 L 17.292969 15.707031 A 1 1 0 0 0 18.707031 15.707031 A 1 1 0 0 0 18.707031 14.292969 L 16.414062 12 L 18.707031 9.7070312 A 1 1 0 0 0 18.707031 8.2929688 A 1 1 0 0 0 17.292969 8.2929688 L 15 10.585938 L 12.707031 8.2929688 A 1 1 0 0 0 12 8 z "/>
</svg>
