<?xml version="1.0" encoding="UTF-8" standalone="no"?>
<svg
   width="24"
   height="24"
   viewBox="0 0 24 24"
   fill="none"
   stroke="currentColor"
   stroke-width="2"
   stroke-linecap="round"
   stroke-linejoin="round"
   version="1.1"
   id="svg2"
   xmlns="http://www.w3.org/2000/svg"
   xmlns:svg="http://www.w3.org/2000/svg">
  <defs
     id="defs2" />
  <path
     id="circle1"
     style="color:#000000;fill:#000000;-inkscape-stroke:none"
     d="M 12 1 C 5.9367246 1 1 5.9367246 1 12 C 1 18.063276 5.9367246 23 12 23 C 18.063276 23 23 18.063276 23 12 C 23 5.9367246 18.063276 1 12 1 z M 12 3 C 16.982397 3 21 7.0176026 21 12 C 21 16.982397 16.982397 21 12 21 C 7.0176026 21 3 16.982397 3 12 C 3 7.0176026 7.0176026 3 12 3 z M 7.734375 6.8027344 A 1 1 0 0 0 7.1269531 7.0605469 C 5.8149065 8.2533165 5 10.025494 5 12 A 1 1 0 0 0 6 13 A 1 1 0 0 0 7 12 C 7 10.574512 7.5847071 9.3462889 8.4726562 8.5390625 A 1 1 0 0 0 8.5390625 7.1269531 A 1 1 0 0 0 7.734375 6.8027344 z M 12 9 C 10.354994 9 9 10.354994 9 12 C 9 13.645006 10.354994 15 12 15 C 13.645006 15 15 13.645006 15 12 C 15 10.354994 13.645006 9 12 9 z M 12 11 C 12.564128 11 13 11.435872 13 12 C 13 12.564128 12.564128 13 12 13 C 11.435872 13 11 12.564128 11 12 C 11 11.435872 11.435872 11 12 11 z M 18 11 A 1 1 0 0 0 17 12 C 17 13.425488 16.415293 14.65371 15.527344 15.460938 A 1 1 0 0 0 15.460938 16.873047 A 1 1 0 0 0 16.873047 16.939453 C 18.185098 15.746679 19 13.974506 19 12 A 1 1 0 0 0 18 11 z "
     stroke-width="0" />
</svg>
