<?xml version="1.0" encoding="UTF-8" standalone="no"?>
<svg
   width="24"
   height="24"
   viewBox="0 0 24 24"
   fill="none"
   stroke="currentColor"
   stroke-width="2"
   stroke-linecap="round"
   stroke-linejoin="round"
   version="1.1"
   id="svg6"
   xmlns="http://www.w3.org/2000/svg"
   xmlns:svg="http://www.w3.org/2000/svg">
  <defs
     id="defs6" />
  <path
     id="path1"
     style="color:#000000;fill:#000000;-inkscape-stroke:none"
     d="M 7.2128906 1.9433594 C 6.9268026 1.9409357 6.633127 1.964063 6.3359375 2.0136719 C 4.3213707 2.3490761 3.1951732 4.2157602 2.4785156 5.9140625 C 2.1201869 6.7632137 1.8666807 7.6122747 1.7050781 8.3339844 C 1.5434756 9.055694 1.441722 9.5491004 1.5058594 10.113281 C 1.5663233 10.644605 1.8417158 10.996253 2.1503906 11.285156 C 2.4501976 11.56576 2.8157912 11.786829 3.2402344 11.953125 C 3.0805876 12.811307 2.9992144 13.682283 3 14.556641 C 3 16.928829 4.0743132 18.885471 5.7421875 20.140625 C 7.4100618 21.395779 9.6195848 22 12 22 C 14.380416 22 16.589938 21.395779 18.257812 20.140625 C 19.925688 18.885471 21 16.928829 21 14.556641 C 21 13.744639 20.910416 12.900138 20.736328 12.054688 C 20.822419 12.028175 20.906601 11.99986 20.988281 11.96875 C 21.428902 11.80093 21.808513 11.57406 22.117188 11.285156 C 22.425863 10.996253 22.699302 10.644605 22.759766 10.113281 C 22.823856 9.5491004 22.724103 9.055694 22.5625 8.3339844 C 22.400897 7.6122747 22.147392 6.7632137 21.789062 5.9140625 C 21.072405 4.2157602 19.946207 2.3490761 17.931641 2.0136719 C 16.742882 1.8152365 15.618511 2.0457884 14.753906 2.6035156 C 14.185641 2.970084 13.723518 3.5015925 13.472656 4.1269531 C 13.001753 4.04731 12.513086 4.0002219 12.003906 4 L 12 4 C 11.589714 3.9983274 11.180346 4.0246374 10.773438 4.0742188 C 10.518084 3.4717584 10.065899 2.9597386 9.5136719 2.6035156 C 8.8652182 2.1852202 8.0711548 1.9506304 7.2128906 1.9433594 z M 7.1933594 3.9453125 C 7.6983551 3.9509455 8.1262056 4.0893905 8.4296875 4.2851562 C 8.83433 4.5461774 9 4.8550531 9 5.171875 A 1 1 0 0 0 10 6.171875 A 1 1 0 0 0 10.169922 6.1445312 A 1 1 0 0 0 10.457031 6.1464844 C 10.963841 6.0469142 11.4796 5.9976907 11.996094 6 A 1.0001 1.0001 0 0 0 12 6 C 12.687691 6 13.309465 6.0942681 13.875 6.2636719 A 1 1 0 0 0 14.978516 5.8574219 A 1 1 0 0 0 15.267578 5.171875 C 15.267578 4.8550531 15.433248 4.5461774 15.837891 4.2851562 C 16.242533 4.0241352 16.867325 3.8637642 17.601562 3.9863281 A 1.0001 1.0001 0 0 0 17.603516 3.9863281 C 18.411943 4.1209229 19.341425 5.2557149 19.947266 6.6914062 C 20.250185 7.409252 20.474619 8.1609467 20.611328 8.7714844 C 20.71165 9.2195136 20.746501 9.6414134 20.761719 9.8105469 C 20.757047 9.8155686 20.755832 9.818761 20.75 9.8242188 C 20.66739 9.9015327 20.499347 10.015055 20.277344 10.099609 C 19.833337 10.268719 19.194632 10.336829 18.460938 10.0625 C 17.52807 9.7133391 17.149089 9.0819494 16.810547 8.15625 A 1 1 0 0 0 15.529297 7.5605469 A 1 1 0 0 0 14.933594 8.84375 C 15.36305 10.018047 16.170594 11.342664 17.759766 11.9375 A 1.0001 1.0001 0 0 0 17.761719 11.9375 C 18.08668 12.059003 18.407351 12.140336 18.720703 12.189453 C 18.906878 12.994011 19 13.802937 19 14.556641 C 19 16.356443 18.282308 17.619127 17.054688 18.542969 C 15.827068 19.46681 14.037576 20 12 20 C 9.962424 20 8.1729324 19.46681 6.9453125 18.542969 C 5.7176926 17.619127 5 16.356443 5 14.556641 A 1.0001 1.0001 0 0 0 5 14.554688 C 4.9992977 13.773023 5.075671 12.994497 5.2246094 12.228516 C 5.6384924 12.192668 6.0685615 12.101005 6.5058594 11.9375 C 8.0779617 11.349053 8.9897997 10.073271 9.4394531 8.84375 A 1 1 0 0 0 8.84375 7.5605469 A 1 1 0 0 0 7.5605469 8.15625 C 7.2422018 9.0267246 6.7545801 9.7069494 5.8046875 10.0625 C 5.0719873 10.335797 4.4337637 10.268537 3.9902344 10.099609 C 3.7682311 10.015055 3.6001837 9.9015332 3.5175781 9.8242188 C 3.5117469 9.818761 3.5105307 9.8155686 3.5058594 9.8105469 C 3.5210769 9.6414134 3.5559289 9.2195136 3.65625 8.7714844 C 3.7929594 8.1609467 4.0173926 7.409252 4.3203125 6.6914062 C 4.9261523 5.2557149 5.855635 4.1209229 6.6640625 3.9863281 C 6.847622 3.9556872 7.0250275 3.9434348 7.1933594 3.9453125 z M 8 13 A 1 1 0 0 0 7 14 L 7 14.5 A 1 1 0 0 0 8 15.5 A 1 1 0 0 0 9 14.5 L 9 14 A 1 1 0 0 0 8 13 z M 16 13 A 1 1 0 0 0 15 14 L 15 14.5 A 1 1 0 0 0 16 15.5 A 1 1 0 0 0 17 14.5 L 17 14 A 1 1 0 0 0 16 13 z M 11.25 15.25 A 1.0001 1.0001 0 0 0 10.542969 16.957031 L 11.292969 17.707031 A 1.0001 1.0001 0 0 0 12.707031 17.707031 L 13.457031 16.957031 A 1.0001 1.0001 0 0 0 12.75 15.25 L 11.25 15.25 z "
     stroke-width="0" />
</svg>
