<?xml version="1.0" encoding="UTF-8" standalone="no"?>
<svg
   width="24"
   height="24"
   viewBox="0 0 24 24"
   fill="none"
   stroke="currentColor"
   stroke-width="2"
   stroke-linecap="round"
   stroke-linejoin="round"
   version="1.1"
   id="svg1"
   xmlns="http://www.w3.org/2000/svg"
   xmlns:svg="http://www.w3.org/2000/svg">
  <defs
     id="defs1" />
  <path
     id="line1"
     style="color:#000000;fill:#000000;-inkscape-stroke:none"
     d="M 12 1 A 1 1 0 0 0 11 2 L 11 4 L 9.5 4 C 8.0833365 4 6.8935575 4.5672574 6.1269531 5.4296875 C 5.3603489 6.2921176 5 7.4027801 5 8.5 C 5 9.5972199 5.3603489 10.707881 6.1269531 11.570312 C 6.8935575 12.432743 8.0833365 13 9.5 13 L 11 13 L 11 18 L 6 18 A 1 1 0 0 0 5 19 A 1 1 0 0 0 6 20 L 11 20 L 11 22 A 1 1 0 0 0 12 23 A 1 1 0 0 0 13 22 L 13 20 L 14.5 20 C 15.916664 20 17.106443 19.432744 17.873047 18.570312 C 18.639651 17.707882 19 16.59722 19 15.5 C 19 14.40278 18.639651 13.292118 17.873047 12.429688 C 17.106443 11.567256 15.916664 11 14.5 11 L 13 11 L 13 6 L 17 6 A 1 1 0 0 0 18 5 A 1 1 0 0 0 17 4 L 13 4 L 13 2 A 1 1 0 0 0 12 1 z M 9.5 6 L 11 6 L 11 11 L 9.5 11 C 8.5833358 11 8.0231064 10.692254 7.6230469 10.242188 C 7.2229873 9.7921199 7 9.1527765 7 8.5 C 7 7.8472235 7.2229873 7.2078796 7.6230469 6.7578125 C 8.0231064 6.3077454 8.5833358 6 9.5 6 z M 13 13 L 14.5 13 C 15.416664 13 15.976894 13.307745 16.376953 13.757812 C 16.777013 14.207879 17 14.847224 17 15.5 C 17 16.152776 16.777013 16.792121 16.376953 17.242188 C 15.976894 17.692255 15.416664 18 14.5 18 L 13 18 L 13 13 z "
     stroke-width="0" />
</svg>
