<?xml version="1.0" encoding="UTF-8" standalone="no"?>
<svg xmlns="http://www.w3.org/2000/svg" xmlns:svg="http://www.w3.org/2000/svg" width="24" height="24" viewBox="0 0 24 24" fill="currentColor" tags="import,export,save" categories="arrows,files">
  
  <path d="M 12 2 A 1 1 0 0 0 11 3 L 11 12.585938 L 7.7070312 9.2929688 A 1 1 0 0 0 7 9 A 1 1 0 0 0 6.2929688 9.2929688 A 1 1 0 0 0 6.2929688 10.707031 L 11.292969 15.707031 A 1.0001 1.0001 0 0 0 11.355469 15.753906 A 1 1 0 0 0 11.484375 15.845703 A 1.0001 1.0001 0 0 0 11.619141 15.914062 A 1 1 0 0 0 11.767578 15.962891 A 1.0001 1.0001 0 0 0 11.925781 15.988281 A 1 1 0 0 0 12 16 A 1 1 0 0 0 12.074219 15.988281 A 1.0001 1.0001 0 0 0 12.232422 15.962891 A 1 1 0 0 0 12.380859 15.914062 A 1.0001 1.0001 0 0 0 12.515625 15.845703 A 1 1 0 0 0 12.644531 15.753906 A 1.0001 1.0001 0 0 0 12.707031 15.707031 L 17.707031 10.707031 A 1 1 0 0 0 17.707031 9.2929688 A 1 1 0 0 0 16.292969 9.2929688 L 13 12.585938 L 13 3 A 1 1 0 0 0 12 2 z M 3 14 A 1 1 0 0 0 2 15 L 2 19 C 2 20.645006 3.3549936 22 5 22 L 19 22 C 20.645006 22 22 20.645006 22 19 L 22 15 A 1 1 0 0 0 21 14 A 1 1 0 0 0 20 15 L 20 19 C 20 19.564128 19.564128 20 19 20 L 5 20 C 4.4358718 20 4 19.564128 4 19 L 4 15 A 1 1 0 0 0 3 14 z "/>
</svg>
