<?xml version="1.0" encoding="UTF-8" standalone="no"?>
<svg xmlns="http://www.w3.org/2000/svg" xmlns:svg="http://www.w3.org/2000/svg" width="24" height="24" viewBox="0 0 24 24" fill="currentColor" tags="food,breakfast" categories="food-beverage">
  
  <path d="M 9.5 1 C 7.2916711 1 5.3946507 1.7027953 4.0625 2.9609375 C 2.7303493 4.2190797 2 6.0119088 2 8 C 2 9.3333307 2.5 10.222225 2.5 11.5 C 2.5 12.249998 2.2978418 12.435889 1.8925781 13.111328 C 1.4873145 13.786767 1 14.833337 1 16.5 C 1 18.583329 2.0877057 20.292837 3.6054688 21.376953 C 5.1232317 22.46107 7.0595276 23 9 23 C 10.988091 23 12.223647 22.177559 13.015625 21.517578 C 13.807603 20.857597 14.083335 20.5 15 20.5 C 17.398144 20.5 19.418369 19.967672 20.853516 18.683594 C 22.288662 17.399515 23 15.435181 23 13 C 23 10.805838 22.227402 9.370944 21.134766 8.4765625 C 20.04213 7.582181 18.822896 7.115538 17.599609 6.1992188 C 16.464782 5.3491603 15.904965 4.2132496 14.861328 3.0742188 C 13.817691 1.9351878 12.199994 1 9.5 1 z M 9.5 3 C 11.799996 3 12.59786 3.5648162 13.386719 4.4257812 C 14.175578 5.2867464 14.865224 6.6508438 16.400391 7.8007812 C 17.847099 8.8844581 19.127327 9.4178215 19.867188 10.023438 C 20.607049 10.629053 21 11.19417 21 13 C 21 15.064811 20.461333 16.350489 19.521484 17.191406 C 18.581636 18.032323 17.101848 18.5 15 18.5 C 13.41667 18.5 12.442394 19.392405 11.734375 19.982422 C 11.026356 20.572438 10.511901 21 9 21 C 7.4404793 21 5.8767629 20.538926 4.7695312 19.748047 C 3.6622997 18.957167 3 17.916664 3 16.5 C 3 15.166669 3.262687 14.71323 3.6074219 14.138672 C 3.9521567 13.564113 4.5 12.749998 4.5 11.5 C 4.5 9.7777812 4 8.6666653 4 8 C 4 6.4880983 4.5196551 5.280916 5.4375 4.4140625 C 6.3553449 3.547209 7.7083369 3 9.5 3 z M 11.5 8 C 9.0265682 8 7 10.026568 7 12.5 C 7 14.973432 9.0265682 17 11.5 17 C 13.973432 17 16 14.973432 16 12.5 C 16 10.026568 13.973432 8 11.5 8 z M 11.5 10 C 12.892554 10 14 11.107446 14 12.5 C 14 13.892554 12.892554 15 11.5 15 C 10.107446 15 9 13.892554 9 12.5 C 9 11.107446 10.107446 10 11.5 10 z "/>
</svg>
