<?xml version="1.0" encoding="UTF-8" standalone="no"?>
<svg xmlns="http://www.w3.org/2000/svg" xmlns:svg="http://www.w3.org/2000/svg" width="24" height="24" viewBox="0 0 24 24" fill="currentColor" tags="calculate,=" categories="maths,shapes">
  
  <path d="M 5 2 C 3.3553005 2 2 3.3553005 2 5 L 2 19 C 2 20.644699 3.3553005 22 5 22 L 19 22 C 20.644699 22 22 20.644699 22 19 L 22 5 C 22 3.3553005 20.644699 2 19 2 L 5 2 z M 5 4 L 19 4 C 19.571296 4 20 4.4287039 20 5 L 20 19 C 20 19.571296 19.571296 20 19 20 L 5 20 C 4.4287039 20 4 19.571296 4 19 L 4 5 C 4 4.4287039 4.4287039 4 5 4 z M 7 9 A 1 1 0 0 0 6 10 A 1 1 0 0 0 7 11 L 17 11 A 1 1 0 0 0 18 10 A 1 1 0 0 0 17 9 L 7 9 z M 7 13 A 1 1 0 0 0 6 14 A 1 1 0 0 0 7 15 L 17 15 A 1 1 0 0 0 18 14 A 1 1 0 0 0 17 13 L 7 13 z "/>
</svg>
