<?xml version="1.0" encoding="UTF-8" standalone="no"?>
<svg
   width="24"
   height="24"
   viewBox="0 0 24 24"
   fill="none"
   stroke="currentColor"
   stroke-width="2"
   stroke-linecap="round"
   stroke-linejoin="round"
   version="1.1"
   id="svg2"
   xmlns="http://www.w3.org/2000/svg"
   xmlns:svg="http://www.w3.org/2000/svg">
  <defs
     id="defs2" />
  <path
     id="line1"
     style="color:#000000;fill:#000000;-inkscape-stroke:none"
     d="M 5 8 A 1 1 0 0 0 4 9 A 1 1 0 0 0 5 10 L 19 10 A 1 1 0 0 0 20 9 A 1 1 0 0 0 19 8 L 5 8 z M 5 14 A 1 1 0 0 0 4 15 A 1 1 0 0 0 5 16 L 19 16 A 1 1 0 0 0 20 15 A 1 1 0 0 0 19 14 L 5 14 z "
     stroke-width="0" />
</svg>
