<?xml version="1.0" encoding="UTF-8" standalone="no"?>
<svg
   width="24"
   height="24"
   viewBox="0 0 24 24"
   fill="none"
   stroke="currentColor"
   stroke-width="2"
   stroke-linecap="round"
   stroke-linejoin="round"
   version="1.1"
   id="svg3"
   xmlns="http://www.w3.org/2000/svg"
   xmlns:svg="http://www.w3.org/2000/svg">
  <defs
     id="defs3" />
  <path
     id="path1"
     style="color:#000000;fill:#000000;-inkscape-stroke:none"
     d="M 14.048828 1.9746094 C 13.164123 1.9722094 12.270525 2.3154122 11.59375 2.9921875 L 4.2988281 10.289062 A 1 1 0 0 0 4.2929688 10.292969 A 1 1 0 0 0 4.2890625 10.298828 L 2.03125 12.556641 C 0.62059307 13.826231 0.63863731 16.052699 1.9921875 17.40625 L 6.2929688 21.707031 A 1 1 0 0 0 6.3457031 21.742188 A 1 1 0 0 0 6.5507812 21.878906 A 1 1 0 0 0 6.6503906 21.929688 A 1 1 0 0 0 7 22 L 22 22 A 1 1 0 0 0 23 21 A 1 1 0 0 0 22 20 L 15.414062 20 L 21.96875 13.443359 C 23.379407 12.173769 23.361366 9.9473006 22.007812 8.59375 L 16.443359 3.03125 C 15.808564 2.3259215 14.933533 1.9770066 14.048828 1.9746094 z M 14.025391 3.9238281 C 14.365589 3.9216891 14.691829 4.0744709 14.957031 4.3691406 A 1.0001 1.0001 0 0 0 14.992188 4.40625 L 20.59375 10.007812 C 21.240195 10.654257 21.220198 11.426627 20.630859 11.957031 A 1.0001 1.0001 0 0 0 20.59375 11.992188 L 14 18.585938 L 6.4140625 11 L 13.007812 4.40625 C 13.331035 4.0830273 13.685193 3.9259671 14.025391 3.9238281 z M 5 12.414062 L 12.585938 20 L 7.4140625 20 L 3.40625 15.992188 C 2.7598046 15.345742 2.7798016 14.573373 3.3691406 14.042969 A 1.0001 1.0001 0 0 0 3.40625 14.007812 L 5 12.414062 z "
     stroke-width="0" />
</svg>
