<?xml version="1.0" encoding="UTF-8" standalone="no"?>
<svg
   width="24"
   height="24"
   viewBox="0 0 24 24"
   fill="none"
   stroke="currentColor"
   stroke-width="2"
   stroke-linecap="round"
   stroke-linejoin="round"
   version="1.1"
   id="svg1"
   xmlns="http://www.w3.org/2000/svg"
   xmlns:svg="http://www.w3.org/2000/svg">
  <defs
     id="defs1" />
  <path
     id="path1"
     style="color:#000000;fill:#000000;-inkscape-stroke:none"
     d="M 15 2 A 1 1 0 0 0 14 3 A 1 1 0 0 0 15 4 L 18.585938 4 L 9.2929688 13.292969 A 1 1 0 0 0 9.2929688 14.707031 A 1 1 0 0 0 10.707031 14.707031 L 20 5.4140625 L 20 9 A 1 1 0 0 0 21 10 A 1 1 0 0 0 22 9 L 22 3 A 1.0001 1.0001 0 0 0 21.998047 2.984375 A 1 1 0 0 0 21.96875 2.7597656 A 1.0001 1.0001 0 0 0 21.960938 2.7265625 A 1 1 0 0 0 21.867188 2.5039062 A 1 1 0 0 0 21.865234 2.5 A 1.0001 1.0001 0 0 0 21.863281 2.4980469 A 1 1 0 0 0 21.707031 2.2929688 A 1.0001 1.0001 0 0 0 21.472656 2.1230469 A 1 1 0 0 0 21.394531 2.0898438 A 1.0001 1.0001 0 0 0 21.197266 2.0253906 A 1 1 0 0 0 21.091797 2.0117188 A 1.0001 1.0001 0 0 0 21 2 L 15 2 z M 5 5 C 3.3549936 5 2 6.3549936 2 8 L 2 19 C 2 20.645006 3.3549936 22 5 22 L 16 22 C 17.645006 22 19 20.645006 19 19 L 19 13 A 1 1 0 0 0 18 12 A 1 1 0 0 0 17 13 L 17 19 C 17 19.564128 16.564128 20 16 20 L 5 20 C 4.4358718 20 4 19.564128 4 19 L 4 8 C 4 7.4358718 4.4358718 7 5 7 L 11 7 A 1 1 0 0 0 12 6 A 1 1 0 0 0 11 5 L 5 5 z "
     stroke-width="0" />
</svg>
