<?xml version="1.0" encoding="UTF-8" standalone="no"?>
<svg
   width="24"
   height="24"
   viewBox="0 0 24 24"
   fill="none"
   stroke="currentColor"
   stroke-width="2"
   stroke-linecap="round"
   stroke-linejoin="round"
   version="1.1"
   id="svg3"
   xmlns="http://www.w3.org/2000/svg"
   xmlns:svg="http://www.w3.org/2000/svg">
  <defs
     id="defs3" />
  <path
     id="path1"
     style="color:#000000;fill:#000000;-inkscape-stroke:none"
     d="M 2 1 A 1 1 0 0 0 1.2929688 1.2929688 A 1 1 0 0 0 1.2929688 2.7070312 L 5.0859375 6.5 C 3.3967326 7.8675102 2.0301706 9.5989856 1.0957031 11.572266 A 1.0001 1.0001 0 0 0 1.0800781 12.394531 C 1.0800781 12.394531 4.3333487 20 12 20 C 13.836164 20.004608 15.638489 19.536651 17.236328 18.650391 L 21.292969 22.707031 A 1 1 0 0 0 22.707031 22.707031 A 1 1 0 0 0 22.707031 21.292969 L 14.800781 13.388672 L 10.611328 9.1992188 L 2.7070312 1.2929688 A 1 1 0 0 0 2 1 z M 11.998047 4 C 11.532774 4.0008693 11.067172 4.0303677 10.605469 4.0878906 A 1 1 0 0 0 9.7382812 5.203125 A 1 1 0 0 0 10.853516 6.0722656 C 11.233785 6.0248884 11.616791 6.0007952 12 6 C 17.956094 6 20.511667 11.340033 20.822266 12.013672 C 20.451826 12.726153 20.054702 13.426412 19.550781 14.052734 A 1 1 0 0 0 19.703125 15.458984 A 1 1 0 0 0 21.109375 15.306641 C 21.821908 14.421033 22.425195 13.453678 22.90625 12.423828 A 1.0001 1.0001 0 0 0 22.919922 11.605469 C 22.919924 11.605469 19.666651 4 12 4 A 1.0001 1.0001 0 0 0 11.998047 4 z M 6.5097656 7.9238281 L 8.5253906 9.9394531 C 8.0499489 10.653755 7.8329815 11.449338 7.8671875 12.205078 C 7.9147235 13.255319 8.3958319 14.200519 9.0976562 14.902344 C 9.7994805 15.604168 10.744681 16.085278 11.794922 16.132812 C 12.550662 16.167022 13.346245 15.950052 14.060547 15.474609 L 15.751953 17.166016 C 14.584098 17.716201 13.302909 18.003488 12.001953 18 A 1.0001 1.0001 0 0 0 12 18 C 6.0532332 18 3.5014445 12.684229 3.1835938 11.996094 C 4.0089201 10.424692 5.1232586 9.0226614 6.5097656 7.9238281 z M 9.984375 11.398438 L 12.601562 14.015625 C 12.358271 14.115745 12.121271 14.14547 11.884766 14.134766 C 11.401498 14.112896 10.895732 13.872296 10.511719 13.488281 C 10.127702 13.104266 9.8871079 12.598502 9.8652344 12.115234 C 9.8545297 11.878729 9.8842551 11.641729 9.984375 11.398438 z "
     stroke-width="0" />
</svg>
