<?xml version="1.0" encoding="UTF-8" standalone="no"?>
<svg
   width="24"
   height="24"
   viewBox="0 0 24 24"
   fill="none"
   stroke="currentColor"
   stroke-width="2"
   stroke-linecap="round"
   stroke-linejoin="round"
   version="1.1"
   id="svg2"
   xmlns="http://www.w3.org/2000/svg"
   xmlns:svg="http://www.w3.org/2000/svg">
  <defs
     id="defs2" />
  <path
     id="path1"
     style="color:#000000;fill:#000000;-inkscape-stroke:none"
     d="M 13.261719 0.99804688 C 13.084883 0.99195567 12.908382 0.99286144 12.734375 1 C 10.646288 1.0856627 8.7807495 2.1057571 7.5527344 3.6171875 C 6.2931058 5.1675272 5.7020491 7.2692751 6.1054688 9.3847656 L 2.46875 8.4101562 A 1.0001 1.0001 0 0 0 1.2421875 9.1191406 C 0.46008857 12.038751 1.601947 14.809911 3.6171875 16.447266 C 5.1675272 17.706893 7.2692751 18.297951 9.3847656 17.894531 L 8.4101562 21.53125 A 1.0001 1.0001 0 0 0 9.1191406 22.757812 C 12.038751 23.539912 14.809911 22.398053 16.447266 20.382812 C 17.706893 18.832473 18.297951 16.730725 17.894531 14.615234 L 21.53125 15.589844 A 1.0001 1.0001 0 0 0 22.757812 14.880859 C 23.539912 11.961249 22.398053 9.190088 20.382812 7.5527344 C 18.832473 6.2931058 16.730725 5.7020491 14.615234 6.1054688 L 15.589844 2.46875 A 1.0001 1.0001 0 0 0 14.880859 1.2421875 C 14.333433 1.095544 13.792225 1.0163205 13.261719 0.99804688 z M 12.691406 3.2011719 C 12.897952 3.1924295 13.107865 3.1933803 13.320312 3.2050781 L 12.207031 7.3613281 A 1.0001 1.0001 0 0 0 13.625 8.5136719 C 15.618809 7.5061128 17.660175 7.9184935 19.121094 9.1054688 C 20.327405 10.085579 20.888505 11.620736 20.794922 13.320312 L 16.638672 12.207031 A 1.0001 1.0001 0 0 0 15.486328 13.625 C 16.493887 15.618809 16.081507 17.660175 14.894531 19.121094 C 13.914421 20.327405 12.379263 20.888505 10.679688 20.794922 L 11.792969 16.638672 A 1.0001 1.0001 0 0 0 10.375 15.486328 C 8.3811909 16.493887 6.339825 16.081507 4.8789062 14.894531 C 3.6725949 13.914421 3.1114952 12.379263 3.2050781 10.679688 L 7.3613281 11.792969 A 1.0001 1.0001 0 0 0 8.5136719 10.375 C 7.5061128 8.3811909 7.9184935 6.339825 9.1054688 4.8789062 C 9.9630652 3.8233838 11.245585 3.2623688 12.691406 3.2011719 z M 12 11 A 1 1 0 0 0 11 12 L 11 12.009766 A 1 1 0 0 0 12 13.009766 A 1 1 0 0 0 13 12.009766 L 13 12 A 1 1 0 0 0 12 11 z "
     stroke-width="0" />
</svg>
