<?xml version="1.0" encoding="UTF-8" standalone="no"?>
<svg
   width="24"
   height="24"
   viewBox="0 0 24 24"
   fill="none"
   stroke="currentColor"
   stroke-width="2"
   stroke-linecap="round"
   stroke-linejoin="round"
   version="1.1"
   id="svg2"
   xmlns="http://www.w3.org/2000/svg"
   xmlns:svg="http://www.w3.org/2000/svg">
  <defs
     id="defs2" />
  <path
     id="polygon1"
     style="color:#000000;fill:#000000;-inkscape-stroke:none"
     d="M 1.9160156 4.0039062 A 1.0001 1.0001 0 0 0 1.5605469 4.1015625 A 1.0001 1.0001 0 0 0 1 5 L 1 19 A 1.0001 1.0001 0 0 0 2.6132812 19.789062 L 11.613281 12.789062 A 1.0001 1.0001 0 0 0 11.613281 11.210938 L 2.6132812 4.2109375 A 1.0001 1.0001 0 0 0 1.9160156 4.0039062 z M 12.916016 4.0039062 A 1.0001 1.0001 0 0 0 12.560547 4.1015625 A 1.0001 1.0001 0 0 0 12 5 L 12 19 A 1.0001 1.0001 0 0 0 13.613281 19.789062 L 22.613281 12.789062 A 1.0001 1.0001 0 0 0 22.613281 11.210938 L 13.613281 4.2109375 A 1.0001 1.0001 0 0 0 12.916016 4.0039062 z M 3 7.0429688 L 9.3730469 12 L 3 16.957031 L 3 7.0429688 z M 14 7.0429688 L 20.373047 12 L 14 16.957031 L 14 7.0429688 z "
     stroke-width="0" />
</svg>
