<?xml version="1.0" encoding="UTF-8" standalone="no"?>
<svg
   width="24"
   height="24"
   viewBox="0 0 24 24"
   fill="none"
   stroke="currentColor"
   stroke-width="2"
   stroke-linecap="round"
   stroke-linejoin="round"
   version="1.1"
   id="svg3"
   xmlns="http://www.w3.org/2000/svg"
   xmlns:svg="http://www.w3.org/2000/svg">
  <defs
     id="defs3" />
  <path
     id="path1"
     style="color:#000000;fill:#000000;-inkscape-stroke:none"
     d="M 6 1 C 4.3549936 1 3 2.3549936 3 4 L 3 20 C 3 21.645006 4.3549936 23 6 23 L 18 23 C 19.645006 23 21 21.645006 21 20 L 21 7.5 A 1.0001 1.0001 0 0 0 20.707031 6.7929688 L 15.207031 1.2929688 A 1.0001 1.0001 0 0 0 14.5 1 L 6 1 z M 6 3 L 13 3 L 13 8 A 1.0001 1.0001 0 0 0 14 9 L 19 9 L 19 20 C 19 20.564128 18.564128 21 18 21 L 6 21 C 5.4358718 21 5 20.564128 5 20 L 5 4 C 5 3.4358718 5.4358718 3 6 3 z M 15 3.9140625 L 18.085938 7 L 15 7 L 15 3.9140625 z M 10 11 C 8.9072773 11 8 11.907277 8 13 L 8 14 A 1.0001 1.0001 0 0 0 8 16 L 8 17 C 8 18.092723 8.9072773 19 10 19 A 1 1 0 0 0 11 18 A 1 1 0 0 0 10 17 L 10 16 C 10 15.612596 9.7779399 15.30862 9.5820312 15 C 9.7779399 14.69138 10 14.387404 10 14 L 10 13 A 1 1 0 0 0 11 12 A 1 1 0 0 0 10 11 z M 14 11 A 1 1 0 0 0 13 12 A 1 1 0 0 0 14 13 L 14 14 C 14 14.387404 14.22206 14.69138 14.417969 15 C 14.22206 15.30862 14 15.612596 14 16 L 14 17 A 1 1 0 0 0 13 18 A 1 1 0 0 0 14 19 C 15.092723 19 16 18.092723 16 17 L 16 16 A 1.0001 1.0001 0 0 0 16 14 L 16 13 C 16 11.907277 15.092723 11 14 11 z "
     stroke-width="0" />
</svg>
