<?xml version="1.0" encoding="UTF-8" standalone="no"?>
<svg
   width="24"
   height="24"
   viewBox="0 0 24 24"
   fill="none"
   stroke="currentColor"
   stroke-width="2"
   stroke-linecap="round"
   stroke-linejoin="round"
   version="1.1"
   id="svg2"
   xmlns="http://www.w3.org/2000/svg"
   xmlns:svg="http://www.w3.org/2000/svg">
  <defs
     id="defs2" />
  <path
     id="path1"
     style="color:#000000;fill:#000000;-inkscape-stroke:none"
     d="M 6 1 C 4.3549936 1 3 2.3549936 3 4 L 3 20 C 3 21.645006 4.3549936 23 6 23 L 18 23 C 19.645006 23 21 21.645006 21 20 L 21 17 L 21 7.5 A 1.0001 1.0001 0 0 0 20.707031 6.7929688 L 15.207031 1.2929688 A 1.0001 1.0001 0 0 0 14.5 1 L 6 1 z M 6 3 L 13 3 L 13 8 A 1.0001 1.0001 0 0 0 14 9 L 19 9 L 19 14.736328 C 18.538144 14.470974 18.019678 14.333984 17.5 14.333984 C 16.732969 14.333984 15.965698 14.623685 15.384766 15.201172 A 1.0001 1.0001 0 0 0 15.382812 15.203125 L 9.5859375 21 L 6 21 C 5.4358718 21 5 20.564128 5 20 L 5 4 C 5 3.4358718 5.4358718 3 6 3 z M 15 3.9140625 L 18.085938 7 L 15 7 L 15 3.9140625 z M 10 10 C 8.3549936 10 7 11.354994 7 13 C 7 14.645006 8.3549936 16 10 16 C 11.645006 16 13 14.645006 13 13 C 13 11.354994 11.645006 10 10 10 z M 10 12 C 10.564128 12 11 12.435872 11 13 C 11 13.564128 10.564128 14 10 14 C 9.4358718 14 9 13.564128 9 13 C 9 12.435872 9.4358718 12 10 12 z M 17.5 16.322266 C 17.752145 16.322266 18.004292 16.42055 18.203125 16.617188 L 19 17.414062 L 19 20 C 19 20.564128 18.564128 21 18 21 L 12.414062 21 L 16.794922 16.619141 L 16.796875 16.617188 C 16.995708 16.42055 17.247855 16.322266 17.5 16.322266 z "
     stroke-width="0" />
</svg>
