<?xml version="1.0" encoding="UTF-8" standalone="no"?>
<svg xmlns="http://www.w3.org/2000/svg" xmlns:svg="http://www.w3.org/2000/svg" width="24" height="24" viewBox="0 0 24 24" fill="currentColor" tags="lost,document,find,browser" categories="files">
  
  <path d="M 6 1 C 4.3549936 1 3 2.3549936 3 4 L 3 20 C 3 21.645006 4.3549936 23 6 23 L 18 23 C 19.645006 23 21 21.645006 21 20 L 21 7.5 A 1.0001 1.0001 0 0 0 20.707031 6.7929688 L 15.207031 1.2929688 A 1.0001 1.0001 0 0 0 14.5 1 L 6 1 z M 6 3 L 13 3 L 13 8 A 1.0001 1.0001 0 0 0 14 9 L 19 9 L 19 20 C 19 20.564128 18.564128 21 18 21 L 6 21 C 5.4358718 21 5 20.564128 5 20 L 5 4 C 5 3.4358718 5.4358718 3 6 3 z M 15 3.9140625 L 18.085938 7 L 15 7 L 15 3.9140625 z M 11.5 11 C 9.5788518 11 8 12.578852 8 14.5 C 8 16.421148 9.5788518 18 11.5 18 C 12.099745 18 12.664751 17.844336 13.160156 17.574219 L 13.162109 17.574219 L 14.292969 18.707031 A 1 1 0 0 0 15.707031 18.707031 A 1 1 0 0 0 15.707031 17.292969 L 14.574219 16.162109 C 14.574496 16.161602 14.573942 16.160663 14.574219 16.160156 C 14.844336 15.664751 15 15.099745 15 14.5 C 15 12.578852 13.421148 11 11.5 11 z M 11.5 13 C 12.34027 13 13 13.65973 13 14.5 C 13 14.851646 12.883463 15.170541 12.6875 15.423828 A 1 1 0 0 0 12.542969 15.542969 A 1 1 0 0 0 12.423828 15.6875 C 12.170541 15.883463 11.851646 16 11.5 16 C 10.65973 16 10 15.34027 10 14.5 C 10 13.65973 10.65973 13 11.5 13 z "/>
</svg>
