<?xml version="1.0" encoding="UTF-8" standalone="no"?>
<svg xmlns="http://www.w3.org/2000/svg" xmlns:svg="http://www.w3.org/2000/svg" width="24" height="24" viewBox="0 0 24 24" fill="currentColor" tags="lock,password,security" categories="files,security">
  
  <path d="M 6 1 C 4.3549936 1 3 2.3549936 3 4 L 3 5 A 1 1 0 0 0 4 6 A 1 1 0 0 0 5 5 L 5 4 C 5 3.4358718 5.4358718 3 6 3 L 13 3 L 13 8 A 1.0001 1.0001 0 0 0 14 9 L 19 9 L 19 20 C 19 20.564128 18.564128 21 18 21 L 4 21 A 1 1 0 0 0 3 22 A 1 1 0 0 0 4 23 L 18 23 C 19.645006 23 21 21.645006 21 20 L 21 7.5 A 1.0001 1.0001 0 0 0 20.707031 6.7929688 L 15.207031 1.2929688 A 1.0001 1.0001 0 0 0 14.5 1 L 6 1 z M 15 3.9140625 L 18.085938 7 L 15 7 L 15 3.9140625 z M 6 8 C 5.2777793 8 4.5421182 8.2353482 3.9609375 8.7519531 C 3.3797568 9.268558 3 10.083335 3 11 L 3 12 C 1.9092994 12 1 12.909299 1 14 L 1 17 C 1 18.090701 1.9092994 19 3 19 L 9 19 C 10.090701 19 11 18.090701 11 17 L 11 14 C 11 12.909299 10.090701 12 9 12 L 9 11 C 9 10.083335 8.6202432 9.268558 8.0390625 8.7519531 C 7.4578818 8.2353482 6.7222207 8 6 8 z M 6 10 C 6.2777773 10 6.5421198 10.097987 6.7109375 10.248047 C 6.8797552 10.398107 7 10.583334 7 11 L 7 12 L 5 12 L 5 11 C 5 10.583334 5.1202448 10.398107 5.2890625 10.248047 C 5.4578802 10.097987 5.7222227 10 6 10 z M 3 14 L 4 14 L 8 14 L 9 14 L 9 17 L 3 17 L 3 14 z "/>
</svg>
