<?xml version="1.0" encoding="UTF-8" standalone="no"?>
<svg xmlns="http://www.w3.org/2000/svg" xmlns:svg="http://www.w3.org/2000/svg" width="24" height="24" viewBox="0 0 24 24" fill="currentColor" tags="movie,video,film" categories="files">
  
  <path d="M 6 1 C 4.3549936 1 3 2.3549936 3 4 L 3 8 A 1 1 0 0 0 4 9 A 1 1 0 0 0 5 8 L 5 4 C 5 3.4358718 5.4358718 3 6 3 L 13 3 L 13 8 A 1.0001 1.0001 0 0 0 14 9 L 19 9 L 19 20 C 19 20.564128 18.564128 21 18 21 L 4 21 A 1 1 0 0 0 3 22 A 1 1 0 0 0 4 23 L 18 23 C 19.645006 23 21 21.645006 21 20 L 21 7.5 A 1.0001 1.0001 0 0 0 20.707031 6.7929688 L 15.207031 1.2929688 A 1.0001 1.0001 0 0 0 14.5 1 L 6 1 z M 15 3.9140625 L 18.085938 7 L 15 7 L 15 3.9140625 z M 3 11 C 1.9092994 11 1 11.909299 1 13 L 1 17 C 1 18.090701 1.9092994 19 3 19 L 9 19 C 9.9925421 19 10.83299 18.246527 10.976562 17.289062 L 13.470703 18.847656 A 1.0001 1.0001 0 0 0 15 18 L 15 12 A 1.0001 1.0001 0 0 0 14.484375 11.125 A 1.0001 1.0001 0 0 0 13.470703 11.152344 L 10.976562 12.710938 C 10.83299 11.753473 9.9925421 11 9 11 L 3 11 z M 3 13 L 9 13 L 9 17 L 3 17 L 3 13 z M 13 13.802734 L 13 16.197266 L 11.085938 15 L 13 13.802734 z "/>
</svg>
