<?xml version="1.0" encoding="UTF-8" standalone="no"?>
<svg
   width="24"
   height="24"
   viewBox="0 0 24 24"
   fill="none"
   stroke="currentColor"
   stroke-width="2"
   stroke-linecap="round"
   stroke-linejoin="round"
   version="1.1"
   id="svg3"
   xmlns="http://www.w3.org/2000/svg"
   xmlns:svg="http://www.w3.org/2000/svg">
  <defs
     id="defs3" />
  <path
     id="path1"
     style="color:#000000;fill:#000000;-inkscape-stroke:none"
     d="M 6 1 C 4.3549936 1 3 2.3549936 3 4 L 3 7 A 1 1 0 0 0 4 8 A 1 1 0 0 0 5 7 L 5 4 C 5 3.4358718 5.4358718 3 6 3 L 13 3 L 13 8 A 1.0001 1.0001 0 0 0 14 9 L 19 9 L 19 20 C 19 20.564128 18.564128 21 18 21 L 4 21 A 1 1 0 0 0 3 22 A 1 1 0 0 0 4 23 L 18 23 C 19.645006 23 21 21.645006 21 20 L 21 7.5 A 1.0001 1.0001 0 0 0 20.707031 6.7929688 L 15.207031 1.2929688 A 1.0001 1.0001 0 0 0 14.5 1 L 6 1 z M 15 3.9140625 L 18.085938 7 L 15 7 L 15 3.9140625 z M 6.953125 9.0019531 A 1.0001 1.0001 0 0 0 6.4453125 9.1679688 L 3.6972656 11 L 2 11 A 1.0001 1.0001 0 0 0 1 12 L 1 16 A 1.0001 1.0001 0 0 0 2 17 L 3.6972656 17 L 6.4453125 18.832031 A 1.0001 1.0001 0 0 0 8 18 L 8 10 A 1.0001 1.0001 0 0 0 7.4726562 9.1191406 A 1.0001 1.0001 0 0 0 6.953125 9.0019531 z M 10.998047 10 A 1 1 0 0 0 10.375 10.21875 A 1 1 0 0 0 10.21875 11.625 C 10.701306 12.228194 11 13.082391 11 14 C 11 14.917609 10.701306 15.771806 10.21875 16.375 A 1 1 0 0 0 10.375 17.78125 A 1 1 0 0 0 11.78125 17.625 C 12.578692 16.628198 13 15.342387 13 14 C 13 12.657613 12.578692 11.371802 11.78125 10.375 A 1 1 0 0 0 10.998047 10 z M 6 11.869141 L 6 16.130859 L 4.5546875 15.167969 A 1.0001 1.0001 0 0 0 4 15 L 3 15 L 3 13 L 4 13 A 1.0001 1.0001 0 0 0 4.5546875 12.832031 L 6 11.869141 z "
     stroke-width="0" />
</svg>
