<?xml version="1.0" encoding="UTF-8" standalone="no"?>
<svg
   width="24"
   height="24"
   viewBox="0 0 24 24"
   fill="none"
   stroke="currentColor"
   stroke-width="2"
   stroke-linecap="round"
   stroke-linejoin="round"
   version="1.1"
   id="svg5"
   xmlns="http://www.w3.org/2000/svg"
   xmlns:svg="http://www.w3.org/2000/svg">
  <defs
     id="defs5" />
  <path
     id="path1"
     style="color:#000000;fill:#000000;-inkscape-stroke:none"
     d="M 6 1 C 4.3549936 1 3 2.3549936 3 4 L 3 8 A 1 1 0 0 0 4 9 A 1 1 0 0 0 5 8 L 5 4 C 5 3.4358718 5.4358718 3 6 3 L 13 3 L 13 8 A 1.0001 1.0001 0 0 0 14 9 L 19 9 L 19 20 C 19 20.564128 18.564128 21 18 21 L 14.5 21 A 1 1 0 0 0 13.5 22 A 1 1 0 0 0 14.5 23 L 18 23 C 19.645006 23 21 21.645006 21 20 L 21 7.5 A 1.0001 1.0001 0 0 0 20.707031 6.7929688 L 15.207031 1.2929688 A 1.0001 1.0001 0 0 0 14.5 1 L 6 1 z M 15 3.9140625 L 18.085938 7 L 15 7 L 15 3.9140625 z M 7 10 C 6.4613328 10 5.9227707 10.145846 5.4472656 10.4375 L 2.4550781 12.261719 C 1.548232 12.805826 1 13.796784 1 14.859375 L 1 18.140625 C 1 19.203216 1.548232 20.194174 2.4550781 20.738281 L 5.4433594 22.560547 C 6.395498 23.149966 7.604502 23.149966 8.5566406 22.560547 L 11.544922 20.738281 C 12.451768 20.194174 13 19.203216 13 18.140625 L 13 14.859375 C 13 13.796784 12.451768 12.805826 11.544922 12.261719 L 8.5527344 10.4375 C 8.0772293 10.145846 7.5386672 10 7 10 z M 7 11.998047 C 7.1756769 11.998047 7.3513544 12.046614 7.5078125 12.142578 A 1.0001 1.0001 0 0 0 7.5097656 12.144531 L 10.302734 13.847656 L 7 15.832031 L 3.6972656 13.847656 L 6.4902344 12.144531 A 1.0001 1.0001 0 0 0 6.4921875 12.142578 C 6.6486456 12.046614 6.8243231 11.998047 7 11.998047 z M 3 15.763672 L 6 17.564453 L 6 20.556641 L 3.4902344 19.025391 A 1.0001 1.0001 0 0 0 3.484375 19.023438 C 3.1912665 18.847547 3 18.518032 3 18.140625 L 3 15.763672 z M 11 15.763672 L 11 18.140625 C 11 18.518032 10.808777 18.847547 10.515625 19.023438 A 1.0001 1.0001 0 0 0 10.509766 19.025391 L 8 20.556641 L 8 17.564453 L 11 15.763672 z "
     stroke-width="0" />
</svg>
