<?xml version="1.0" encoding="UTF-8" standalone="no"?>
<svg xmlns="http://www.w3.org/2000/svg" xmlns:svg="http://www.w3.org/2000/svg" width="24" height="24" viewBox="0 0 24 24" fill="currentColor" tags="number,document" categories="files,development">
  
  <path d="M 6 1 C 4.3549936 1 3 2.3549936 3 4 L 3 8 A 1 1 0 0 0 4 9 A 1 1 0 0 0 5 8 L 5 4 C 5 3.4358718 5.4358718 3 6 3 L 13 3 L 13 8 A 1.0001 1.0001 0 0 0 14 9 L 19 9 L 19 20 C 19 20.564128 18.564128 21 18 21 L 4 21 A 1 1 0 0 0 3 22 A 1 1 0 0 0 4 23 L 18 23 C 19.645006 23 21 21.645006 21 20 L 21 7.5 A 1.0001 1.0001 0 0 0 20.707031 6.7929688 L 15.207031 1.2929688 A 1.0001 1.0001 0 0 0 14.5 1 L 6 1 z M 15 3.9140625 L 18.085938 7 L 15 7 L 15 3.9140625 z M 4 11 C 2.3553005 11 1 12.355301 1 14 L 1 16 C 1 17.644699 2.3553005 19 4 19 C 5.6446995 19 7 17.644699 7 16 L 7 14 C 7 12.355301 5.6446995 11 4 11 z M 10 11 A 1 1 0 0 0 9 12 A 1 1 0 0 0 10 13 L 11 13 L 11 17 L 10 17 A 1 1 0 0 0 9 18 A 1 1 0 0 0 10 19 L 12 19 L 14 19 A 1 1 0 0 0 15 18 A 1 1 0 0 0 14 17 L 13 17 L 13 12 A 1.0001 1.0001 0 0 0 12 11 L 10 11 z M 4 13 C 4.5712961 13 5 13.428704 5 14 L 5 16 C 5 16.571296 4.5712961 17 4 17 C 3.4287039 17 3 16.571296 3 16 L 3 14 C 3 13.428704 3.4287039 13 4 13 z "/>
</svg>
