<?xml version="1.0" encoding="UTF-8" standalone="no"?>
<svg
   width="24"
   height="24"
   viewBox="0 0 24 24"
   fill="none"
   stroke="currentColor"
   stroke-width="2"
   stroke-linecap="round"
   stroke-linejoin="round"
   version="1.1"
   id="svg3"
   xmlns="http://www.w3.org/2000/svg"
   xmlns:svg="http://www.w3.org/2000/svg">
  <defs
     id="defs3" />
  <path
     id="path1"
     style="color:#000000;fill:#000000;-inkscape-stroke:none"
     d="M 6 1 C 4.3549936 1 3 2.3549936 3 4 L 3 7 A 1 1 0 0 0 4 8 A 1 1 0 0 0 5 7 L 5 4 C 5 3.4358718 5.4358718 3 6 3 L 13 3 L 13 8 A 1.0001 1.0001 0 0 0 14 9 L 19 9 L 19 20 C 19 20.564128 18.564128 21 18 21 L 16 21 A 1 1 0 0 0 15 22 A 1 1 0 0 0 16 23 L 18 23 C 19.645006 23 21 21.645006 21 20 L 21 7.5 A 1.0001 1.0001 0 0 0 20.707031 6.7929688 L 15.207031 1.2929688 A 1.0001 1.0001 0 0 0 14.5 1 L 6 1 z M 15 3.9140625 L 18.085938 7 L 15 7 L 15 3.9140625 z M 8 9.1699219 A 1.0001 1.0001 0 0 0 7 10.169922 L 7 16 A 1.0001 1.0001 0 0 0 8 17 L 13.830078 17 A 1.0001 1.0001 0 0 0 14.830078 16 C 14.830078 12.239748 11.760252 9.1699219 8 9.1699219 z M 4.1035156 10.712891 A 1 1 0 0 0 3.3789062 10.958984 C 0.43736776 13.549066 0.28089274 18.115876 3.0371094 20.902344 C 5.7933259 23.688811 10.360387 23.583013 12.982422 20.669922 A 1 1 0 0 0 12.908203 19.255859 A 1 1 0 0 0 11.496094 19.330078 C 9.6245739 21.409344 6.4262797 21.484981 4.4589844 19.496094 C 2.4916889 17.507206 2.6016003 14.30965 4.7011719 12.460938 A 1 1 0 0 0 4.7910156 11.048828 A 1 1 0 0 0 4.1035156 10.712891 z M 9 11.371094 C 10.844531 11.769308 12.230692 13.155469 12.628906 15 L 9 15 L 9 11.371094 z "
     stroke-width="0" />
</svg>
