<?xml version="1.0" encoding="UTF-8" standalone="no"?>
<svg
   width="24"
   height="24"
   viewBox="0 0 24 24"
   fill="none"
   stroke="currentColor"
   stroke-width="2"
   stroke-linecap="round"
   stroke-linejoin="round"
   version="1.1"
   id="svg3"
   xmlns="http://www.w3.org/2000/svg"
   xmlns:svg="http://www.w3.org/2000/svg">
  <defs
     id="defs3" />
  <path
     id="path1"
     style="color:#000000;fill:#000000;-inkscape-stroke:none"
     d="M 8.5996094 1 C 7.8662775 1 7.2501027 1.3358349 6.7929688 1.7929688 C 6.3358349 2.2501027 6 2.8662775 6 3.5996094 L 6 16.400391 C 6 17.133722 6.3358349 17.749898 6.7929688 18.207031 C 7.2501027 18.664166 7.8662775 19 8.5996094 19 L 18.400391 19 C 19.133722 19 19.749898 18.664166 20.207031 18.207031 C 20.664166 17.749898 21 17.133722 21 16.400391 L 21 7 L 21 6.5 A 1.0001 1.0001 0 0 0 20.707031 5.7929688 L 16.207031 1.2929688 A 1.0001 1.0001 0 0 0 15.5 1 L 15 1 L 8.5996094 1 z M 8.5996094 3 L 14 3 L 14 7 A 1.0001 1.0001 0 0 0 15 8 L 19 8 L 19 16.400391 C 19 16.467061 18.93583 16.650104 18.792969 16.792969 C 18.650104 16.935834 18.467057 17 18.400391 17 L 8.5996094 17 C 8.5329428 17 8.3498961 16.935834 8.2070312 16.792969 C 8.0641663 16.650104 8 16.467057 8 16.400391 L 8 3.5996094 C 8 3.5329428 8.0641663 3.3498961 8.2070312 3.2070312 C 8.3498961 3.0641663 8.5329428 3 8.5996094 3 z M 16 3.9140625 L 18.085938 6 L 16 6 L 16 3.9140625 z M 3 6.5996094 A 1 1 0 0 0 2 7.5996094 L 2 20.400391 C 2 21.133722 2.3358348 21.749898 2.7929688 22.207031 C 3.2501026 22.664166 3.8662775 23 4.5996094 23 L 14.400391 23 A 1 1 0 0 0 15.400391 22 A 1 1 0 0 0 14.400391 21 L 4.5996094 21 C 4.5329428 21 4.3498962 20.935834 4.2070312 20.792969 C 4.0641664 20.650104 4 20.467057 4 20.400391 L 4 7.5996094 A 1 1 0 0 0 3 6.5996094 z "
     stroke-width="0" />
</svg>
