<?xml version="1.0" encoding="UTF-8" standalone="no"?>
<svg
   width="24"
   height="24"
   viewBox="0 0 24 24"
   fill="none"
   stroke="currentColor"
   stroke-width="2"
   stroke-linecap="round"
   stroke-linejoin="round"
   version="1.1"
   id="svg3"
   xmlns="http://www.w3.org/2000/svg"
   xmlns:svg="http://www.w3.org/2000/svg">
  <defs
     id="defs3" />
  <path
     id="path1"
     style="color:#000000;fill:#000000;-inkscape-stroke:none"
     d="M 6 1 C 4.3549936 1 3 2.3549936 3 4 L 3 6 A 1 1 0 0 0 4 7 A 1 1 0 0 0 5 6 L 5 4 C 5 3.4358718 5.4358718 3 6 3 L 13 3 L 13 8 A 1.0001 1.0001 0 0 0 14 9 L 19 9 L 19 20 C 19 20.564128 18.564128 21 18 21 L 4 21 A 1 1 0 0 0 3 22 A 1 1 0 0 0 4 23 L 18 23 C 19.645006 23 21 21.645006 21 20 L 21 7.5 A 1.0001 1.0001 0 0 0 20.707031 6.7929688 L 15.207031 1.2929688 A 1.0001 1.0001 0 0 0 14.5 1 L 6 1 z M 15 3.9140625 L 18.085938 7 L 15 7 L 15 3.9140625 z M 6 9 C 4.7777803 9 3.5421175 9.4020159 2.5859375 10.251953 C 1.6297575 11.10189 1 12.416671 1 14 L 1 17 C 1 18.092723 1.9072773 19 3 19 C 4.0927227 19 5 18.092723 5 17 C 5 15.907277 4.0927227 15 3 15 L 3 14 C 3 12.916669 3.3702455 12.231439 3.9140625 11.748047 C 4.4578795 11.264654 5.2222237 11 6 11 C 6.7777763 11 7.5421205 11.264654 8.0859375 11.748047 C 8.6297545 12.231439 9 12.916669 9 14 L 9 15 C 7.9072773 15 7 15.907277 7 17 C 7 18.092723 7.9072773 19 9 19 C 10.092723 19 11 18.092723 11 17 L 11 14 C 11 12.416671 10.370242 11.10189 9.4140625 10.251953 C 8.4578825 9.4020159 7.2222197 9 6 9 z "
     stroke-width="0" />
</svg>
