<?xml version="1.0" encoding="UTF-8" standalone="no"?>
<svg xmlns="http://www.w3.org/2000/svg" xmlns:svg="http://www.w3.org/2000/svg" width="24" height="24" viewBox="0 0 24 24" fill="currentColor" tags="audio,music,volume" categories="files">
  
  <path d="M 6 1 C 4.3549936 1 3 2.3549936 3 4 L 3 20 C 3 21.645006 4.3549936 23 6 23 L 18 23 C 19.645006 23 21 21.645006 21 20 L 21 7.5 A 1.0001 1.0001 0 0 0 20.707031 6.7929688 L 15.207031 1.2929688 A 1.0001 1.0001 0 0 0 14.5 1 L 6 1 z M 6 3 L 13 3 L 13 8 A 1.0001 1.0001 0 0 0 14 9 L 19 9 L 19 20 C 19 20.564128 18.564128 21 18 21 L 6 21 C 5.4358718 21 5 20.564128 5 20 L 5 4 C 5 3.4358718 5.4358718 3 6 3 z M 15 3.9140625 L 18.085938 7 L 15 7 L 15 3.9140625 z M 14.998047 11 A 1 1 0 0 0 14.375 11.21875 A 1 1 0 0 0 14.21875 12.625 C 14.701306 13.228194 15 14.082391 15 15 C 15 15.917609 14.701306 16.771806 14.21875 17.375 A 1 1 0 0 0 14.375 18.78125 A 1 1 0 0 0 15.78125 18.625 C 16.578692 17.628198 17 16.342387 17 15 C 17 13.657613 16.578692 12.371802 15.78125 11.375 A 1 1 0 0 0 14.998047 11 z M 11.414062 12.503906 A 1 1 0 0 0 10.875 12.71875 A 1 1 0 0 0 10.71875 14.125 C 10.878767 14.325021 11 14.654286 11 15 C 11 15.345714 10.878767 15.674979 10.71875 15.875 A 1 1 0 0 0 10.875 17.28125 A 1 1 0 0 0 12.28125 17.125 C 12.761232 16.525023 13 15.774284 13 15 C 13 14.225716 12.761232 13.474977 12.28125 12.875 A 1 1 0 0 0 11.414062 12.503906 z M 8 14 A 1 1 0 0 0 7 15 A 1 1 0 0 0 8 16 L 8.0097656 16 A 1 1 0 0 0 9.0097656 15 A 1 1 0 0 0 8.0097656 14 L 8 14 z "/>
</svg>
