<?xml version="1.0" encoding="UTF-8" standalone="no"?>
<svg
   width="24"
   height="24"
   viewBox="0 0 24 24"
   fill="none"
   stroke="currentColor"
   stroke-width="2"
   stroke-linecap="round"
   stroke-linejoin="round"
   version="1.1"
   id="svg2"
   xmlns="http://www.w3.org/2000/svg"
   xmlns:svg="http://www.w3.org/2000/svg">
  <defs
     id="defs2" />
  <path
     id="path1"
     style="color:#000000;fill:#000000;-inkscape-stroke:none"
     d="M 6 1 C 5.2333349 1 4.4693536 1.3158026 3.8925781 1.8925781 C 3.3158026 2.4693536 3 3.2333349 3 4 L 3 7 A 1 1 0 0 0 4 8 A 1 1 0 0 0 5 7 L 5 4 C 5 3.7666671 5.0834177 3.5298635 5.3066406 3.3066406 C 5.5298635 3.0834177 5.7666671 3 6 3 L 13 3 L 13 8 A 1.0001 1.0001 0 0 0 14 9 L 19 9 L 19 20 C 19 20.233333 18.91658 20.470137 18.693359 20.693359 C 18.470137 20.916582 18.233333 21 18 21 L 16 21 A 1 1 0 0 0 15 22 A 1 1 0 0 0 16 23 L 18 23 C 18.766665 23 19.530646 22.684197 20.107422 22.107422 C 20.684197 21.530646 21 20.766665 21 20 L 21 7.5 A 1.0001 1.0001 0 0 0 20.707031 6.7929688 L 15.207031 1.2929688 A 1.0001 1.0001 0 0 0 14.5 1 L 6 1 z M 15 3.9140625 L 18.085938 7 L 15 7 L 15 3.9140625 z M 8 9 C 4.1458591 9 1 12.145859 1 16 C 1 19.854141 4.1458591 23 8 23 C 11.854141 23 15 19.854141 15 16 C 15 12.145859 11.854141 9 8 9 z M 8 11 C 10.773263 11 13 13.226737 13 16 C 13 18.773263 10.773263 21 8 21 C 5.2267372 21 3 18.773263 3 16 C 3 13.226737 5.2267372 11 8 11 z M 8 13 A 1 1 0 0 0 7 14 L 7 16.25 A 1.0001 1.0001 0 0 0 7.359375 17.017578 L 8.859375 18.267578 A 1 1 0 0 0 10.267578 18.140625 A 1 1 0 0 0 10.140625 16.732422 L 9 15.78125 L 9 14 A 1 1 0 0 0 8 13 z "
     stroke-width="0" />
</svg>
