<?xml version="1.0" encoding="UTF-8" standalone="no"?>
<svg
   width="24"
   height="24"
   viewBox="0 0 24 24"
   fill="none"
   stroke="currentColor"
   stroke-width="2"
   stroke-linecap="round"
   stroke-linejoin="round"
   version="1.1"
   id="svg10"
   xmlns="http://www.w3.org/2000/svg"
   xmlns:svg="http://www.w3.org/2000/svg">
  <defs
     id="defs10" />
  <path
     id="circle1"
     style="color:#000000;fill:#000000;-inkscape-stroke:none"
     d="M 6 1 C 4.3549936 1 3 2.3549936 3 4 L 3 5.5 A 1 1 0 0 0 4 6.5 A 1 1 0 0 0 5 5.5 L 5 4 C 5 3.4358718 5.4358718 3 6 3 L 13 3 L 13 8 A 1.0001 1.0001 0 0 0 14 9 L 19 9 L 19 20 C 19 20.564128 18.564128 21 18 21 L 6 21 A 1.0001 1.0001 0 0 0 5.96875 21 C 5.4953567 21.01498 5.0869207 20.708652 4.96875 20.25 A 1 1 0 0 0 3.75 19.53125 A 1 1 0 0 0 3.03125 20.75 C 3.3801426 22.104145 4.6335814 23.044224 6.03125 23 L 18 23 C 19.645006 23 21 21.645006 21 20 L 21 8 L 21 7.5 A 1.0001 1.0001 0 0 0 20.707031 6.7929688 L 15.207031 1.2929688 A 1.0001 1.0001 0 0 0 14.5 1 L 14 1 L 6 1 z M 15 3.9140625 L 18.085938 7 L 15 7 L 15 3.9140625 z M 4.3691406 8.3007812 A 1 1 0 0 0 4.0292969 8.3710938 A 1 1 0 0 0 3.4707031 9.671875 L 3.5429688 9.8535156 C 3.2371752 10.093224 2.9658701 10.374584 2.7402344 10.691406 L 2.6171875 10.650391 A 1 1 0 0 0 1.3515625 11.283203 A 1 1 0 0 0 1.984375 12.548828 L 2.0253906 12.5625 C 2.009443 12.706582 2 12.851902 2 13 C 2 13.212161 2.0184355 13.419511 2.0507812 13.623047 L 1.9277344 13.671875 A 1 1 0 0 0 1.3710938 14.970703 A 1 1 0 0 0 2.671875 15.529297 L 2.8535156 15.457031 C 3.0932236 15.762825 3.3745835 16.03413 3.6914062 16.259766 L 3.6503906 16.382812 A 1 1 0 0 0 4.2832031 17.648438 A 1 1 0 0 0 5.5488281 17.015625 L 5.5625 16.974609 C 5.7065821 16.990557 5.8519017 17 6 17 C 6.2121611 17 6.4195108 16.981565 6.6230469 16.949219 L 6.671875 17.072266 A 1 1 0 0 0 7.9707031 17.628906 A 1 1 0 0 0 8.5292969 16.328125 L 8.4570312 16.146484 C 8.7628248 15.906776 9.0341299 15.625416 9.2597656 15.308594 L 9.3828125 15.349609 A 1 1 0 0 0 10.648438 14.716797 A 1 1 0 0 0 10.015625 13.451172 L 9.9746094 13.4375 C 9.990557 13.293418 10 13.148098 10 13 C 10 12.787839 9.9815645 12.580489 9.9492188 12.376953 L 10.072266 12.328125 A 1 1 0 0 0 10.628906 11.029297 A 1 1 0 0 0 9.328125 10.470703 L 9.1464844 10.542969 C 8.9067764 10.237175 8.6254165 9.9658701 8.3085938 9.7402344 L 8.3496094 9.6171875 A 1 1 0 0 0 7.7167969 8.3515625 A 1 1 0 0 0 6.4511719 8.984375 L 6.4375 9.0253906 C 6.2934179 9.009443 6.1480983 9 6 9 C 5.7878389 9 5.5804892 9.0184355 5.3769531 9.0507812 L 5.328125 8.9277344 A 1 1 0 0 0 4.3691406 8.3007812 z M 6 11 C 6.7350188 11 7.3673791 11.38456 7.7148438 11.964844 A 1 1 0 0 0 7.7714844 12.171875 A 1 1 0 0 0 7.9121094 12.412109 C 7.9677618 12.597525 8 12.794815 8 13 C 8 13.735019 7.6154396 14.367379 7.0351562 14.714844 A 1 1 0 0 0 6.828125 14.771484 A 1 1 0 0 0 6.5878906 14.912109 C 6.4024751 14.967762 6.2051846 15 6 15 C 5.2665635 15 4.6350566 14.617248 4.2871094 14.039062 A 1 1 0 0 0 4.2285156 13.828125 A 1 1 0 0 0 4.0878906 13.587891 C 4.0322382 13.402475 4 13.205185 4 13 C 4 12.264981 4.3845604 11.632621 4.9648438 11.285156 A 1 1 0 0 0 5.171875 11.228516 A 1 1 0 0 0 5.4179688 11.085938 C 5.601684 11.031406 5.7969704 11 6 11 z "
     stroke-width="0" />
</svg>
