<?xml version="1.0" encoding="UTF-8" standalone="no"?>
<svg
   width="24"
   height="24"
   viewBox="0 0 24 24"
   fill="none"
   stroke="currentColor"
   stroke-width="2"
   stroke-linecap="round"
   stroke-linejoin="round"
   version="1.1"
   id="svg5"
   xmlns="http://www.w3.org/2000/svg"
   xmlns:svg="http://www.w3.org/2000/svg">
  <defs
     id="defs5" />
  <path
     id="path1"
     style="color:#000000;fill:#000000;-inkscape-stroke:none"
     d="M 6 1 C 4.3549936 1 3 2.3549936 3 4 L 3 20 C 3 21.645451 4.3545487 23 6 23 L 10.5 23 A 1 1 0 0 0 11.5 22 A 1 1 0 0 0 10.5 21 L 6 21 C 5.4454557 21 5 20.554544 5 20 L 5 4 C 5 3.4358718 5.4358718 3 6 3 L 13 3 L 13 8 A 1.0001 1.0001 0 0 0 14 9 L 19 9 L 19 10 A 1 1 0 0 0 20 11 A 1 1 0 0 0 21 10 L 21 7.5 A 1.0001 1.0001 0 0 0 20.707031 6.7929688 L 15.207031 1.2929688 A 1.0001 1.0001 0 0 0 14.5 1 L 6 1 z M 15 3.9140625 L 18.085938 7 L 15 7 L 15 3.9140625 z M 16 13 C 14.354994 13 13 14.354994 13 16 A 1 1 0 0 0 14 17 A 1 1 0 0 0 15 16 C 15 15.435872 15.435872 15 16 15 A 1 1 0 0 0 17 14 A 1 1 0 0 0 16 13 z M 20 13 A 1 1 0 0 0 19 14 A 1 1 0 0 0 20 15 C 20.564128 15 21 15.435872 21 16 A 1 1 0 0 0 22 17 A 1 1 0 0 0 23 16 C 23 14.354994 21.645006 13 20 13 z M 14 19 A 1 1 0 0 0 13 20 C 13 21.645006 14.354994 23 16 23 A 1 1 0 0 0 17 22 A 1 1 0 0 0 16 21 C 15.435872 21 15 20.564128 15 20 A 1 1 0 0 0 14 19 z M 22 19 A 1 1 0 0 0 21 20 C 21 20.564128 20.564128 21 20 21 A 1 1 0 0 0 19 22 A 1 1 0 0 0 20 23 C 21.645006 23 23 21.645006 23 20 A 1 1 0 0 0 22 19 z "
     stroke-width="0" />
</svg>
