<?xml version="1.0" encoding="UTF-8" standalone="no"?>
<svg xmlns="http://www.w3.org/2000/svg" xmlns:svg="http://www.w3.org/2000/svg" width="24" height="24" viewBox="0 0 24 24" fill="currentColor" tags="upload,import,export" categories="files,arrows">
  
  <path d="M 6 1 C 4.3549936 1 3 2.3549936 3 4 L 3 20 C 3 21.645006 4.3549936 23 6 23 L 18 23 C 19.645006 23 21 21.645006 21 20 L 21 7.5 A 1.0001 1.0001 0 0 0 20.707031 6.7929688 L 15.207031 1.2929688 A 1.0001 1.0001 0 0 0 14.5 1 L 6 1 z M 6 3 L 13 3 L 13 8 A 1.0001 1.0001 0 0 0 14 9 L 19 9 L 19 20 C 19 20.564128 18.564128 21 18 21 L 6 21 C 5.4358718 21 5 20.564128 5 20 L 5 4 C 5 3.4358718 5.4358718 3 6 3 z M 15 3.9140625 L 18.085938 7 L 15 7 L 15 3.9140625 z M 12 11 A 1 1 0 0 0 11.753906 11.033203 A 1.0001 1.0001 0 0 0 11.699219 11.052734 A 1 1 0 0 0 11.53125 11.123047 A 1.0001 1.0001 0 0 0 11.451172 11.171875 A 1 1 0 0 0 11.333984 11.261719 A 1.0001 1.0001 0 0 0 11.292969 11.292969 L 8.2929688 14.292969 A 1 1 0 0 0 8.2929688 15.707031 A 1 1 0 0 0 9.7070312 15.707031 L 11 14.414062 L 11 18 A 1 1 0 0 0 12 19 A 1 1 0 0 0 13 18 L 13 14.414062 L 14.292969 15.707031 A 1 1 0 0 0 15.707031 15.707031 A 1 1 0 0 0 15.707031 14.292969 L 12.736328 11.322266 A 1 1 0 0 0 12.707031 11.292969 A 1 1 0 0 0 12.5 11.134766 A 1 1 0 0 0 12.257812 11.035156 A 1 1 0 0 0 12 11 z "/>
</svg>
