<?xml version="1.0" encoding="UTF-8" standalone="no"?>
<svg
   width="24"
   height="24"
   viewBox="0 0 24 24"
   fill="none"
   stroke="currentColor"
   stroke-width="2"
   stroke-linecap="round"
   stroke-linejoin="round"
   version="1.1"
   id="svg4"
   xmlns="http://www.w3.org/2000/svg"
   xmlns:svg="http://www.w3.org/2000/svg">
  <defs
     id="defs4" />
  <path
     id="path1"
     style="color:#000000;fill:#000000;-inkscape-stroke:none"
     d="M 6 1 C 5.2333349 1 4.4693536 1.3158026 3.8925781 1.8925781 C 3.3158026 2.4693536 3 3.2333349 3 4 L 3 22 A 1 1 0 0 0 4 23 A 1 1 0 0 0 5 22 L 5 4 C 5 3.7666671 5.0834177 3.5298635 5.3066406 3.3066406 C 5.5298635 3.0834177 5.7666671 3 6 3 L 13 3 L 13 8 A 1.0001 1.0001 0 0 0 14 9 L 19 9 L 19 20 C 19 20.233333 18.91658 20.470137 18.693359 20.693359 C 18.470137 20.916582 18.233333 21 18 21 L 16 21 A 1 1 0 0 0 15 22 A 1 1 0 0 0 16 23 L 18 23 C 18.766665 23 19.530646 22.684197 20.107422 22.107422 C 20.684197 21.530646 21 20.766665 21 20 L 21 7.5 A 1.0001 1.0001 0 0 0 20.707031 6.7929688 L 15.207031 1.2929688 A 1.0001 1.0001 0 0 0 14.5 1 L 6 1 z M 15 3.9140625 L 18.085938 7 L 15 7 L 15 3.9140625 z M 10 5 A 1 1 0 0 0 9 6 L 9 7 A 1 1 0 0 0 10 8 A 1 1 0 0 0 11 7 L 11 6 A 1 1 0 0 0 10 5 z M 10 10 A 1 1 0 0 0 9 11 L 9 12 A 1 1 0 0 0 10 13 A 1 1 0 0 0 11 12 L 11 11 A 1 1 0 0 0 10 10 z M 10 15 A 1 1 0 0 0 9 16 L 9 17.173828 C 7.8396128 17.589521 7 18.704644 7 20 C 7 21.645006 8.3549936 23 10 23 C 11.645006 23 13 21.645006 13 20 C 13 18.704644 12.160387 17.589521 11 17.173828 L 11 16 A 1 1 0 0 0 10 15 z M 10 19 C 10.564128 19 11 19.435872 11 20 C 11 20.564128 10.564128 21 10 21 C 9.4358718 21 9 20.564128 9 20 C 9 19.435872 9.4358718 19 10 19 z "
     stroke-width="0" />
</svg>
