<?xml version="1.0" encoding="UTF-8" standalone="no"?>
<svg xmlns="http://www.w3.org/2000/svg" xmlns:svg="http://www.w3.org/2000/svg" width="24" height="24" viewBox="0 0 24 24" fill="currentColor" tags="funnel,hopper" categories="layout">
  
  <path d="M 2 2 A 1.0001 1.0001 0 0 0 1.2363281 3.6464844 L 9 12.826172 L 9 19 A 1.0001 1.0001 0 0 0 9.5527344 19.894531 L 13.552734 21.894531 A 1.0001 1.0001 0 0 0 15 21 L 15 12.828125 L 15.660156 12.054688 A 1 1 0 0 0 15.548828 10.644531 A 1 1 0 0 0 14.138672 10.755859 L 13.238281 11.810547 A 1.0001 1.0001 0 0 0 13 12.460938 L 13 19.382812 L 11 18.382812 L 11 12.460938 A 1.0001 1.0001 0 0 0 10.763672 11.814453 L 4.15625 4 L 13.013672 4 A 1 1 0 0 0 14.013672 3 A 1 1 0 0 0 13.013672 2 L 2 2 z M 17 2 A 1 1 0 0 0 16.292969 2.2929688 A 1 1 0 0 0 16.292969 3.7070312 L 18.085938 5.5 L 16.292969 7.2929688 A 1 1 0 0 0 16.292969 8.7070312 A 1 1 0 0 0 17.707031 8.7070312 L 19.5 6.9140625 L 21.292969 8.7070312 A 1 1 0 0 0 22.707031 8.7070312 A 1 1 0 0 0 22.707031 7.2929688 L 20.914062 5.5 L 22.707031 3.7070312 A 1 1 0 0 0 22.707031 2.2929688 A 1 1 0 0 0 21.292969 2.2929688 L 19.5 4.0859375 L 17.707031 2.2929688 A 1 1 0 0 0 17 2 z "/>
</svg>
