<?xml version="1.0" encoding="UTF-8" standalone="no"?>
<svg
   width="24"
   height="24"
   viewBox="0 0 24 24"
   fill="none"
   stroke="currentColor"
   stroke-width="2"
   stroke-linecap="round"
   stroke-linejoin="round"
   version="1.1"
   id="svg1"
   xmlns="http://www.w3.org/2000/svg"
   xmlns:svg="http://www.w3.org/2000/svg">
  <defs
     id="defs1" />
  <path
     id="polygon1"
     style="color:#000000;fill:#000000;-inkscape-stroke:none"
     d="M 2 2 A 1.0001 1.0001 0 0 0 1.2363281 3.6464844 L 9 12.826172 L 9 19 A 1.0001 1.0001 0 0 0 9.5527344 19.894531 L 13.552734 21.894531 A 1.0001 1.0001 0 0 0 15 21 L 15 12.826172 L 22.763672 3.6464844 A 1.0001 1.0001 0 0 0 22 2 L 2 2 z M 4.15625 4 L 19.84375 4 L 13.236328 11.814453 A 1.0001 1.0001 0 0 0 13 12.460938 L 13 19.382812 L 11 18.382812 L 11 12.460938 A 1.0001 1.0001 0 0 0 10.763672 11.814453 L 4.15625 4 z "
     stroke-width="0" />
</svg>
