<?xml version="1.0" encoding="UTF-8" standalone="no"?>
<svg
   width="24"
   height="24"
   viewBox="0 0 24 24"
   fill="none"
   stroke="currentColor"
   stroke-width="2"
   stroke-linecap="round"
   stroke-linejoin="round"
   version="1.1"
   id="svg6"
   xmlns="http://www.w3.org/2000/svg"
   xmlns:svg="http://www.w3.org/2000/svg">
  <defs
     id="defs6" />
  <path
     id="path1"
     style="color:#000000;fill:#000000;-inkscape-stroke:none"
     d="M 12 1 C 11.253349 1 10.593203 1.4240993 10.25 2.0410156 C 6.7464519 2.4179611 4 5.3994999 4 9 L 4 20 A 1 1 0 0 0 5 21 A 1 1 0 0 0 6 20 L 6 14 L 8 14 L 8 18 L 8 20 C 8 21.645006 9.3549936 23 11 23 L 15 23 C 16.645006 23 18 21.645006 18 20 L 18 18 L 18 10 C 18 8.4166703 17.370243 7.1018906 16.414062 6.2519531 C 16.281354 6.1339902 16.142692 6.0266105 16 5.9257812 L 16 4 L 18 4 A 1 1 0 0 0 19 3 A 1 1 0 0 0 18 2 L 15.724609 2 C 15.375253 1.4057819 14.729701 1 14 1 L 12 1 z M 12 3 L 14 3 L 14 5.09375 C 13.669385 5.0325447 13.334611 5 13 5 C 12.665389 5 12.330615 5.0325447 12 5.09375 L 12 3 z M 10 4.0996094 L 10 5.9257812 C 9.8573077 6.0266105 9.7186458 6.1339902 9.5859375 6.2519531 C 8.6297575 7.1018906 8 8.4166703 8 10 L 8 12 L 6 12 L 6 9 C 6 6.569311 7.7101261 4.5593074 10 4.0996094 z M 13 7 C 13.511326 7 14.01616 7.1163102 14.457031 7.3320312 A 1 1 0 0 0 14.609375 7.4121094 C 14.781061 7.5087821 14.941488 7.6196475 15.085938 7.7480469 C 15.629754 8.2314395 16 8.9166695 16 10 L 16 17 L 10 17 L 10 13 L 10 10 C 10 8.9166695 10.370245 8.2314395 10.914062 7.7480469 C 11.058512 7.6196475 11.218939 7.5087821 11.390625 7.4121094 A 1 1 0 0 0 11.542969 7.3320312 C 11.983839 7.1163102 12.488674 7 13 7 z M 10 19 L 16 19 L 16 20 C 16 20.564128 15.564128 21 15 21 L 11 21 C 10.435872 21 10 20.564128 10 20 L 10 19 z "
     stroke-width="0" />
</svg>
