<?xml version="1.0" encoding="UTF-8" standalone="no"?>
<svg
   width="24"
   height="24"
   viewBox="0 0 24 24"
   fill="none"
   stroke="currentColor"
   stroke-width="2"
   stroke-linecap="round"
   stroke-linejoin="round"
   version="1.1"
   id="svg1"
   xmlns="http://www.w3.org/2000/svg"
   xmlns:svg="http://www.w3.org/2000/svg">
  <defs
     id="defs1" />
  <path
     id="path1"
     style="color:#000000;fill:#000000;-inkscape-stroke:none"
     d="M 13.796875 6.96875 C 11.337522 6.9479017 9.140209 7.8505554 7.3261719 9.0390625 C 6.6250946 9.4983889 6.0378286 10.024761 5.4433594 10.542969 C 3.9471153 8.9286343 2.8574219 7.4863281 2.8574219 7.4863281 A 1 1 0 0 0 1.4863281 7.1425781 A 1 1 0 0 0 1.1425781 8.5136719 C 1.1425781 8.5136719 2.1882887 10.165798 3.9082031 12 C 2.1882887 13.834202 1.1425781 15.486328 1.1425781 15.486328 A 1 1 0 0 0 1.4863281 16.857422 A 1 1 0 0 0 2.8574219 16.513672 C 2.8574219 16.513672 3.9471153 15.071366 5.4433594 13.457031 C 6.0378286 13.975239 6.6250946 14.501611 7.3261719 14.960938 C 9.2611448 16.228678 11.633082 17.170136 14.292969 17.013672 C 16.952854 16.857208 19.828472 15.58559 22.707031 12.707031 A 1.0001 1.0001 0 0 0 22.707031 11.292969 C 19.828472 8.4144094 16.952854 7.1427921 14.292969 6.9863281 C 14.126726 6.9765491 13.960832 6.9701399 13.796875 6.96875 z M 13.779297 8.96875 C 13.910452 8.9698702 14.043197 8.9746228 14.175781 8.9824219 C 16.02902 9.0914359 18.11022 10.061735 20.345703 12 C 18.11022 13.938265 16.02902 14.908564 14.175781 15.017578 C 12.054427 15.142364 10.113848 14.396316 8.4238281 13.289062 C 7.8402779 12.906736 7.5326301 12.438698 7.0253906 12 C 7.5326301 11.561302 7.8402779 11.093263 8.4238281 10.710938 C 10.008222 9.6728861 11.811968 8.9519477 13.779297 8.96875 z "
     stroke-width="0" />
</svg>
