<?xml version="1.0" encoding="UTF-8" standalone="no"?>
<svg
   width="24"
   height="24"
   viewBox="0 0 24 24"
   fill="none"
   stroke="currentColor"
   stroke-width="2"
   stroke-linecap="round"
   stroke-linejoin="round"
   version="1.1"
   id="svg1"
   xmlns="http://www.w3.org/2000/svg"
   xmlns:svg="http://www.w3.org/2000/svg">
  <defs
     id="defs1" />
  <path
     id="path1"
     style="color:#000000;fill:#000000;-inkscape-stroke:none"
     d="M 8 1 C 6.3888921 1 5.2569705 1.2710399 4.5039062 1.5722656 C 3.7508421 1.8734913 3.2929687 2.2929688 3.2929688 2.2929688 A 1.0001 1.0001 0 0 0 3 3 L 3 15 L 3 22 A 1 1 0 0 0 4 23 A 1 1 0 0 0 5 22 L 5 15.535156 C 5.0681052 15.503469 5.141617 15.469526 5.2460938 15.427734 C 5.7430271 15.228962 6.6111139 15 8 15 C 9.2777752 15 10.378909 15.427736 11.628906 15.927734 C 12.878904 16.427734 14.277781 17 16 17 C 17.611107 17 18.74303 16.72896 19.496094 16.427734 C 20.249158 16.126509 20.707031 15.707031 20.707031 15.707031 A 1.0001 1.0001 0 0 0 21 15 L 21 3 A 1.0001 1.0001 0 0 0 19.292969 2.2929688 C 19.292969 2.2929688 19.250839 2.373492 18.753906 2.5722656 C 18.256973 2.7710389 17.388886 3 16 3 C 14.722225 3 13.621092 2.5722646 12.371094 2.0722656 C 11.121096 1.5722666 9.7222188 1 8 1 z M 8 3 C 9.2777752 3 10.378909 3.4277354 11.628906 3.9277344 C 12.878904 4.4277334 14.277781 5 16 5 C 17.382432 5 18.259746 4.7565646 19 4.5097656 L 19 14.445312 C 18.92337 14.490202 18.98056 14.481603 18.753906 14.572266 C 18.256973 14.771038 17.388886 15 16 15 C 14.722225 15 13.621092 14.572264 12.371094 14.072266 C 11.121096 13.572266 9.7222188 13 8 13 C 6.6175682 13 5.7402543 13.243436 5 13.490234 L 5 3.5546875 C 5.0766327 3.5097968 5.0194408 3.5183956 5.2460938 3.4277344 C 5.7430271 3.2289611 6.6111139 3 8 3 z "
     stroke-width="0" />
</svg>
