<?xml version="1.0" encoding="UTF-8" standalone="no"?>
<svg xmlns="http://www.w3.org/2000/svg" xmlns:svg="http://www.w3.org/2000/svg" width="24" height="24" viewBox="0 0 24 24" fill="currentColor" tags="fire,lit,burning,spark,embers,smoke,firefighter,fireman,department,brigade,station,emergency" categories="weather,social,gaming">
  
  <path d="M 11.978516 2 A 1.0001 1.0001 0 0 0 11.341797 2.2480469 C 10.155118 3.2863907 9.2633452 4.3626869 8.8222656 5.5878906 C 8.3811861 6.8130945 8.4690625 8.1750469 9.1054688 9.4472656 C 9.6507852 10.537899 10 10.861548 10 12 C 10 12.84027 9.3402701 13.5 8.5 13.5 C 7.6597299 13.5 7 12.84027 7 12 A 1.0001 1.0001 0 0 0 5.2207031 11.373047 C 4.4799638 12.295378 4 13.596641 4 15 C 4 19.406427 7.5935765 23 12 23 C 16.406424 23 20 19.406427 20 15 C 20 12.666671 18.79958 10.458414 16.625 8.71875 C 14.81546 7.2711175 13.429175 5.0482235 12.980469 2.8046875 A 1.0001 1.0001 0 0 0 12.322266 2.0527344 A 1.0001 1.0001 0 0 0 11.978516 2 z M 11.722656 4.9570312 C 12.501368 7.0058721 13.676859 8.9227369 15.375 10.28125 C 17.200412 11.74158 18 13.333337 18 15 C 18 18.32555 15.325548 21 12 21 C 8.6744526 21 6 18.32555 6 15 C 6 14.829027 6.123289 14.723536 6.1484375 14.550781 C 6.7732457 15.127012 7.5907462 15.5 8.5 15.5 C 10.421148 15.5 12 13.921148 12 12 C 12 10.378458 11.349213 9.4620973 10.894531 8.5527344 C 10.45894 7.6819573 10.434159 7.0181672 10.705078 6.265625 C 10.846158 5.8737426 11.376021 5.3966875 11.722656 4.9570312 z "/>
</svg>
