<?xml version="1.0" encoding="UTF-8" standalone="no"?>
<svg
   width="24"
   height="24"
   viewBox="0 0 24 24"
   fill="none"
   stroke="currentColor"
   stroke-width="2"
   stroke-linecap="round"
   stroke-linejoin="round"
   version="1.1"
   id="svg3"
   xmlns="http://www.w3.org/2000/svg"
   xmlns:svg="http://www.w3.org/2000/svg">
  <defs
     id="defs3" />
  <path
     id="path1"
     style="color:#000000;fill:#000000;-inkscape-stroke:none"
     d="M 12 1 C 11.333335 1 10.897114 1.2673978 10.408203 1.6171875 C 9.9192928 1.9669772 9.4404817 2.4450567 9.0703125 3.0566406 C 8.329974 4.2798085 8.2168102 6.2073712 9.6660156 7.7773438 A 1.0001 1.0001 0 0 0 9.7109375 7.8261719 C 9.9100134 8.0151555 9.8554917 7.9384089 9.7949219 8.0957031 C 9.7343519 8.2529974 9.4822916 8.5586135 9.1503906 8.7597656 C 8.8184897 8.9609177 8.4291875 9.0444796 8.2617188 9.0253906 C 8.0942499 9.0063017 8.1359631 9.0901006 8.0605469 8.8261719 A 1.0001 1.0001 0 0 0 6.1503906 8.7832031 C 5.9871454 9.2729388 6 9.7000006 6 10 C 6 13.301859 8.6981438 16 12 16 C 15.301857 16 18 13.301859 18 10 A 1.0001 1.0001 0 0 0 18 9.9980469 A 1.0001 1.0001 0 0 0 18 9.9960938 A 1.0001 1.0001 0 0 0 18 9.9941406 A 1.0001 1.0001 0 0 0 18 9.9921875 A 1.0001 1.0001 0 0 0 18 9.9902344 A 1.0001 1.0001 0 0 0 18 9.9882812 A 1.0001 1.0001 0 0 0 18 9.9863281 C 17.977476 8.4050122 17.330167 6.8944515 16.201172 5.7871094 C 14.968155 4.5576 13.863243 4.4256679 12.949219 1.6835938 A 1.0001 1.0001 0 0 0 12 1 z M 11.509766 3.3105469 C 12.609594 5.6833587 14.122302 6.5363649 14.792969 7.2070312 A 1.0001 1.0001 0 0 0 14.800781 7.2148438 C 15.553213 7.9521649 15.981401 8.9546475 15.998047 10.007812 C 15.993576 12.224877 14.218177 14 12 14 C 10.124713 14 8.6355664 12.704424 8.1953125 10.972656 C 8.92019 11.011152 9.6028236 10.825053 10.1875 10.470703 C 10.818551 10.088248 11.375664 9.5583257 11.662109 8.8144531 C 11.941844 8.0880109 11.78422 7.078214 11.134766 6.421875 C 10.183981 5.3918527 10.37159 4.7705783 10.78125 4.09375 C 10.969989 3.7819204 11.248671 3.5104123 11.509766 3.3105469 z M 4.9648438 17.001953 A 1 1 0 0 0 4.0390625 17.724609 A 1 1 0 0 0 4.7246094 18.960938 L 8.3613281 20 L 4.7246094 21.039062 A 1 1 0 0 0 4.0390625 22.275391 A 1 1 0 0 0 5.2753906 22.960938 L 12 21.039062 L 18.724609 22.960938 A 1 1 0 0 0 19.960938 22.275391 A 1 1 0 0 0 19.275391 21.039062 L 15.638672 20 L 19.275391 18.960938 A 1 1 0 0 0 19.960938 17.724609 A 1 1 0 0 0 18.724609 17.039062 L 12 18.960938 L 5.2753906 17.039062 A 1 1 0 0 0 4.9648438 17.001953 z "
     stroke-width="0" />
</svg>
