<?xml version="1.0" encoding="UTF-8" standalone="no"?>
<svg xmlns="http://www.w3.org/2000/svg" xmlns:svg="http://www.w3.org/2000/svg" width="24" height="24" viewBox="0 0 24 24" fill="currentColor" tags="beaker,lab,chemistry,experiment,test" categories="science,gaming">
  
  <path d="M 14 0.99023438 A 1 1 0 0 0 13.923828 1 L 8.5 1 A 1 1 0 0 0 7.5 2 A 1 1 0 0 0 8.5 3 L 9 3 L 9 8.6074219 C 5.5293709 10.081006 4.1010512 13.553449 4.5917969 16.652344 C 5.1140109 19.94995 7.8315981 22.982422 12 22.982422 C 16.168402 22.982422 18.88599 19.94995 19.408203 16.652344 C 19.898949 13.553449 18.470629 10.081006 15 8.6074219 L 15 3 L 15.5 3 A 1 1 0 0 0 16.5 2 A 1 1 0 0 0 15.5 1 L 14.130859 1 A 1 1 0 0 0 14 0.99023438 z M 11 3 L 13 3 L 13 9.3007812 A 1 1 0 0 0 13.005859 9.3535156 A 1 1 0 0 0 13.015625 9.4179688 A 1 1 0 0 0 13.097656 9.7109375 A 1 1 0 0 0 13.123047 9.7734375 A 1 1 0 0 0 13.335938 10.041016 A 1 1 0 0 0 13.390625 10.082031 A 1 1 0 0 0 13.65625 10.232422 A 1 1 0 0 0 13.691406 10.251953 C 16.218717 11.069237 17.379278 12.97657 17.5 15 L 6.5 15 C 6.6189477 13.006305 7.7485188 11.125689 10.199219 10.289062 A 1 1 0 0 0 11 9.3105469 L 11 3 z M 6.7109375 17 L 17.289062 17 C 16.69955 19.185776 14.939411 20.982422 12 20.982422 C 9.060589 20.982422 7.3004504 19.185776 6.7109375 17 z "/>
</svg>
