<?xml version="1.0" encoding="UTF-8" standalone="no"?>
<svg
   width="24"
   height="24"
   viewBox="0 0 24 24"
   fill="none"
   stroke="currentColor"
   stroke-width="2"
   stroke-linecap="round"
   stroke-linejoin="round"
   version="1.1"
   id="svg3"
   xmlns="http://www.w3.org/2000/svg"
   xmlns:svg="http://www.w3.org/2000/svg">
  <defs
     id="defs3" />
  <path
     id="path1"
     style="color:#000000;fill:#000000;-inkscape-stroke:none"
     d="M 4 2 C 2.3549936 2 1 3.3549936 1 5 L 1 18 C 1 19.645006 2.3549936 21 4 21 L 20 21 C 21.645006 21 23 19.645006 23 18 L 23 8 C 23 6.3549936 21.645006 5 20 5 L 12.099609 5 A 1.0001 1.0001 0 0 0 12.089844 5 C 11.748746 5.00334 11.43369 4.8356786 11.246094 4.5507812 A 1.0001 1.0001 0 0 0 11.238281 4.5410156 L 10.435547 3.3496094 C 9.8813258 2.5080352 8.937362 2.0001659 7.9296875 2 L 4 2 z M 4 4 L 7.9296875 4 C 8.267183 4.0000556 8.5800025 4.1673545 8.765625 4.4492188 A 1.0001 1.0001 0 0 0 8.7714844 4.4589844 L 9.5742188 5.6503906 C 9.5750127 5.6516006 9.577325 5.6511424 9.578125 5.6523438 C 10.138456 6.5006373 11.092584 7.0099688 12.109375 7 L 20 7 C 20.564128 7 21 7.4358718 21 8 L 21 18 C 21 18.564128 20.564128 19 20 19 L 4 19 C 3.4358718 19 3 18.564128 3 18 L 3 5 C 3 4.4358718 3.4358718 4 4 4 z M 12 9 A 1 1 0 0 0 11 10 L 11 13.585938 L 9.7070312 12.292969 A 1 1 0 0 0 9 12 A 1 1 0 0 0 8.2929688 12.292969 A 1 1 0 0 0 8.2929688 13.707031 L 11.292969 16.707031 A 1.0001 1.0001 0 0 0 11.333984 16.738281 A 1 1 0 0 0 11.451172 16.828125 A 1.0001 1.0001 0 0 0 11.53125 16.876953 A 1 1 0 0 0 11.699219 16.947266 A 1.0001 1.0001 0 0 0 11.753906 16.966797 A 1 1 0 0 0 12 17 A 1 1 0 0 0 12.246094 16.966797 A 1.0001 1.0001 0 0 0 12.300781 16.947266 A 1 1 0 0 0 12.46875 16.876953 A 1.0001 1.0001 0 0 0 12.548828 16.828125 A 1 1 0 0 0 12.666016 16.738281 A 1.0001 1.0001 0 0 0 12.707031 16.707031 L 15.707031 13.707031 A 1 1 0 0 0 15.707031 12.292969 A 1 1 0 0 0 14.292969 12.292969 L 13 13.585938 L 13 10 A 1 1 0 0 0 12 9 z "
     stroke-width="0" />
</svg>
