<?xml version="1.0" encoding="UTF-8" standalone="no"?>
<svg
   width="24"
   height="24"
   viewBox="0 0 24 24"
   fill="none"
   stroke="currentColor"
   stroke-width="2"
   stroke-linecap="round"
   stroke-linejoin="round"
   version="1.1"
   id="svg4"
   xmlns="http://www.w3.org/2000/svg"
   xmlns:svg="http://www.w3.org/2000/svg">
  <defs
     id="defs4" />
  <path
     id="path1"
     style="color:#000000;fill:#000000;-inkscape-stroke:none"
     d="M 3 2 A 1 1 0 0 0 2 3 L 2 5 L 2 16 C 2 17.645006 3.3549936 19 5 19 L 8 19 A 1 1 0 0 0 9 18 A 1 1 0 0 0 8 17 L 5 17 C 4.4358718 17 4 16.564128 4 16 L 4 7.8261719 C 4.3132182 7.938378 4.6503501 8 5 8 L 8 8 A 1 1 0 0 0 9 7 A 1 1 0 0 0 8 6 L 5 6 C 4.4358718 6 4 5.5641282 4 5 L 4 3 A 1 1 0 0 0 3 2 z M 13 2 C 11.907277 2 11 2.9072773 11 4 L 11 9 C 11 10.092723 11.907277 11 13 11 L 20 11 C 21.092723 11 22 10.092723 22 9 L 22 6 C 22 4.9072773 21.092723 4 20 4 L 17.5 4 L 16.599609 2.8007812 C 16.222428 2.2978722 15.628636 2 15 2 L 13 2 z M 13 4 L 15 4 L 15.900391 5.1992188 C 16.277572 5.7021278 16.871364 6 17.5 6 L 20 6 L 20 9 L 13 9 L 13 4 z M 13 13 C 11.907277 13 11 13.907277 11 15 L 11 20 C 11 21.092723 11.907277 22 13 22 L 20 22 C 21.092723 22 22 21.092723 22 20 L 22 17 C 22 15.907277 21.092723 15 20 15 L 17.113281 15 L 16.697266 14.15625 C 16.370283 13.45332 15.658563 12.998816 14.880859 13 L 13 13 z M 13 15 L 14.880859 15 A 1.0001 1.0001 0 0 0 14.882812 15 A 1.0001 1.0001 0 0 0 14.904297 15.042969 L 15.324219 15.892578 A 1.0001 1.0001 0 0 0 15.326172 15.900391 C 15.660818 16.564844 16.343957 16.990275 17.087891 17 A 1.0001 1.0001 0 0 0 17.099609 17 L 20 17 L 20 20 L 13 20 L 13 15 z "
     stroke-width="0" />
</svg>
