<?xml version="1.0" encoding="UTF-8" standalone="no"?>
<svg xmlns="http://www.w3.org/2000/svg" xmlns:svg="http://www.w3.org/2000/svg" width="24" height="24" viewBox="0 0 24 24" fill="currentColor" tags="projects,manage,overview,board,tickets,issues,roadmap,plan,intentions,productivity,work,agile,code,coding,directory,project,root" categories="charts,development,design,files">
  
  <path d="M 4 2 C 2.3549936 2 1 3.3549936 1 5 L 1 18 C 1 19.645451 2.3545487 21 4 21 L 20 21 C 21.645006 21 23 19.645006 23 18 L 23 8 C 23 6.3549936 21.645006 5 20 5 L 12.074219 5 C 11.738527 4.9982633 11.430722 4.8311458 11.246094 4.5507812 A 1.0001 1.0001 0 0 0 11.236328 4.5351562 L 10.425781 3.3496094 L 10.423828 3.3476562 C 9.8723994 2.5118927 8.9369816 2.005181 7.9355469 2 A 1.0001 1.0001 0 0 0 7.9296875 2 L 4 2 z M 4 4 L 7.9257812 4 C 8.2614728 4.00174 8.5692778 4.1688543 8.7539062 4.4492188 A 1.0001 1.0001 0 0 0 8.7636719 4.4648438 L 9.5742188 5.6503906 L 9.5761719 5.6523438 C 10.12768 6.4881073 11.063018 6.994819 12.064453 7 A 1.0001 1.0001 0 0 0 12.070312 7 L 20 7 C 20.564128 7 21 7.4358718 21 8 L 21 18 C 21 18.564128 20.564128 19 20 19 L 4 19 C 3.4454557 19 3 18.554544 3 18 L 3 5 C 3 4.4358718 3.4358718 4 4 4 z M 8 9 A 1 1 0 0 0 7 10 L 7 14 A 1 1 0 0 0 8 15 A 1 1 0 0 0 9 14 L 9 10 A 1 1 0 0 0 8 9 z M 12 9 A 1 1 0 0 0 11 10 L 11 12 A 1 1 0 0 0 12 13 A 1 1 0 0 0 13 12 L 13 10 A 1 1 0 0 0 12 9 z M 16 9 A 1 1 0 0 0 15 10 L 15 16 A 1 1 0 0 0 16 17 A 1 1 0 0 0 17 16 L 17 10 A 1 1 0 0 0 16 9 z "/>
</svg>
