<?xml version="1.0" encoding="UTF-8" standalone="no"?>
<svg
   width="24"
   height="24"
   viewBox="0 0 24 24"
   fill="none"
   stroke="currentColor"
   stroke-width="2"
   stroke-linecap="round"
   stroke-linejoin="round"
   version="1.1"
   id="svg9"
   xmlns="http://www.w3.org/2000/svg"
   xmlns:svg="http://www.w3.org/2000/svg">
  <defs
     id="defs9" />
  <path
     id="circle1"
     style="color:#000000;fill:#000000;-inkscape-stroke:none"
     d="M 4 2 C 2.3549936 2 1 3.3549936 1 5 L 1 18 C 1 19.645006 2.3549936 21 4 21 L 10.300781 21 A 1 1 0 0 0 11.300781 20 A 1 1 0 0 0 10.300781 19 L 4 19 C 3.4358718 19 3 18.564128 3 18 L 3 5 C 3 4.4358718 3.4358718 4 4 4 L 7.9003906 4 A 1.0001 1.0001 0 0 0 7.9101562 4 C 8.251254 3.99666 8.5663098 4.1643215 8.7539062 4.4492188 A 1.0001 1.0001 0 0 0 8.7617188 4.4589844 L 9.5644531 5.6503906 C 10.118674 6.4919648 11.062638 6.9998341 12.070312 7 L 20 7 C 20.564128 7 21 7.4358718 21 8 L 21 11.300781 A 1 1 0 0 0 22 12.300781 A 1 1 0 0 0 23 11.300781 L 23 8 C 23 6.3549936 21.645006 5 20 5 L 12.070312 5 C 11.732817 4.9999444 11.419998 4.8326456 11.234375 4.5507812 A 1.0001 1.0001 0 0 0 11.228516 4.5410156 L 10.425781 3.3496094 C 10.424987 3.3483994 10.422675 3.3488576 10.421875 3.3476562 C 9.8615334 2.4993584 8.9074156 1.9900312 7.890625 2 L 4 2 z M 16.369141 13.300781 A 1 1 0 0 0 16.029297 13.371094 A 1 1 0 0 0 15.470703 14.671875 L 15.542969 14.853516 C 15.237175 15.093224 14.96587 15.374584 14.740234 15.691406 L 14.617188 15.650391 A 1 1 0 0 0 13.351562 16.283203 A 1 1 0 0 0 13.984375 17.548828 L 14.025391 17.5625 C 14.009443 17.706582 14 17.851902 14 18 C 14 18.212161 14.018435 18.419511 14.050781 18.623047 L 13.927734 18.671875 A 1 1 0 0 0 13.371094 19.970703 A 1 1 0 0 0 14.671875 20.529297 L 14.853516 20.457031 C 15.093224 20.762825 15.374584 21.03413 15.691406 21.259766 L 15.650391 21.382812 A 1 1 0 0 0 16.283203 22.648438 A 1 1 0 0 0 17.548828 22.015625 L 17.5625 21.974609 C 17.706582 21.990557 17.851902 22 18 22 C 18.212161 22 18.419511 21.981565 18.623047 21.949219 L 18.671875 22.072266 A 1 1 0 0 0 19.970703 22.628906 A 1 1 0 0 0 20.529297 21.328125 L 20.457031 21.146484 C 20.762825 20.906776 21.03413 20.625416 21.259766 20.308594 L 21.382812 20.349609 A 1 1 0 0 0 22.648438 19.716797 A 1 1 0 0 0 22.015625 18.451172 L 21.974609 18.4375 C 21.990557 18.293418 22 18.148098 22 18 C 22 17.787839 21.981565 17.580489 21.949219 17.376953 L 22.072266 17.328125 A 1 1 0 0 0 22.628906 16.029297 A 1 1 0 0 0 21.328125 15.470703 L 21.146484 15.542969 C 20.906776 15.237175 20.625416 14.96587 20.308594 14.740234 L 20.349609 14.617188 A 1 1 0 0 0 19.716797 13.351562 A 1 1 0 0 0 18.451172 13.984375 L 18.4375 14.025391 C 18.293418 14.009443 18.148098 14 18 14 C 17.787839 14 17.580489 14.018435 17.376953 14.050781 L 17.328125 13.927734 A 1 1 0 0 0 16.369141 13.300781 z M 18 16 C 18.735019 16 19.367379 16.38456 19.714844 16.964844 A 1 1 0 0 0 19.771484 17.171875 A 1 1 0 0 0 19.912109 17.412109 C 19.967762 17.597525 20 17.794815 20 18 C 20 18.735019 19.61544 19.367379 19.035156 19.714844 A 1 1 0 0 0 18.828125 19.771484 A 1 1 0 0 0 18.587891 19.912109 C 18.402475 19.967762 18.205185 20 18 20 C 17.266564 20 16.635057 19.617248 16.287109 19.039062 A 1 1 0 0 0 16.228516 18.828125 A 1 1 0 0 0 16.087891 18.587891 C 16.032238 18.402475 16 18.205185 16 18 C 16 17.264981 16.38456 16.632621 16.964844 16.285156 A 1 1 0 0 0 17.171875 16.228516 A 1 1 0 0 0 17.417969 16.085938 C 17.601684 16.031406 17.79697 16 18 16 z "
     stroke-width="0" />
</svg>
