<?xml version="1.0" encoding="UTF-8" standalone="no"?>
<svg
   width="24"
   height="24"
   viewBox="0 0 24 24"
   fill="none"
   stroke="currentColor"
   stroke-width="2"
   stroke-linecap="round"
   stroke-linejoin="round"
   version="1.1"
   id="svg3"
   xmlns="http://www.w3.org/2000/svg"
   xmlns:svg="http://www.w3.org/2000/svg">
  <defs
     id="defs3" />
  <path
     id="circle1"
     style="color:#000000;fill:#000000;-inkscape-stroke:none"
     d="M 4 2 C 2.3549936 2 1 3.3549936 1 5 L 1 18 C 1 19.645006 2.3549936 21 4 21 L 10 21 A 1 1 0 0 0 11 20 A 1 1 0 0 0 10 19 L 4 19 C 3.4358718 19 3 18.564128 3 18 L 3 5 C 3 4.4358718 3.4358718 4 4 4 L 7.9003906 4 A 1.0001 1.0001 0 0 0 7.9101562 4 C 8.251254 3.99666 8.5663098 4.1643215 8.7539062 4.4492188 A 1.0001 1.0001 0 0 0 8.7617188 4.4589844 L 9.5644531 5.6503906 C 10.118674 6.4919648 11.062638 6.9998341 12.070312 7 L 20 7 C 20.564128 7 21 7.4358718 21 8 L 21 10 A 1 1 0 0 0 22 11 A 1 1 0 0 0 23 10 L 23 8 C 23 6.3549936 21.645006 5 20 5 L 12.070312 5 C 11.732817 4.9999444 11.419998 4.8326456 11.234375 4.5507812 A 1.0001 1.0001 0 0 0 11.228516 4.5410156 L 10.425781 3.3496094 C 10.424987 3.3483994 10.422675 3.3488576 10.421875 3.3476562 C 9.8615334 2.4993584 8.9074156 1.9900312 7.890625 2 L 4 2 z M 22 13 A 1 1 0 0 0 21.292969 13.292969 L 20.292969 14.292969 L 17.289062 17.296875 C 16.897383 17.107873 16.460495 17 16 17 C 14.354994 17 13 18.354994 13 20 C 13 21.645006 14.354994 23 16 23 C 17.645006 23 19 21.645006 19 20 C 19 19.539505 18.892127 19.102617 18.703125 18.710938 L 21 16.414062 L 21.292969 16.707031 A 1 1 0 0 0 22.707031 16.707031 A 1 1 0 0 0 22.707031 15.292969 L 22.414062 15 L 22.707031 14.707031 A 1 1 0 0 0 22.707031 13.292969 A 1 1 0 0 0 22 13 z M 16 19 C 16.564128 19 17 19.435872 17 20 C 17 20.564128 16.564128 21 16 21 C 15.435872 21 15 20.564128 15 20 C 15 19.435872 15.435872 19 16 19 z "
     stroke-width="0" />
</svg>
