<?xml version="1.0" encoding="UTF-8" standalone="no"?>
<svg
   width="24"
   height="24"
   viewBox="0 0 24 24"
   fill="none"
   stroke="currentColor"
   stroke-width="2"
   stroke-linecap="round"
   stroke-linejoin="round"
   version="1.1"
   id="svg2"
   xmlns="http://www.w3.org/2000/svg"
   xmlns:svg="http://www.w3.org/2000/svg">
  <defs
     id="defs2" />
  <path
     id="rect1"
     style="color:#000000;fill:#000000;-inkscape-stroke:none"
     d="M 4 2 C 2.3549936 2 1 3.3549936 1 5 L 1 18 C 1 19.645006 2.3549936 21 4 21 L 10 21 A 1 1 0 0 0 11 20 A 1 1 0 0 0 10 19 L 4 19 C 3.4358718 19 3 18.564128 3 18 L 3 5 C 3 4.4358718 3.4358718 4 4 4 L 7.9003906 4 A 1.0001 1.0001 0 0 0 7.9101562 4 C 8.251254 3.99666 8.5663098 4.1643215 8.7539062 4.4492188 A 1.0001 1.0001 0 0 0 8.7617188 4.4589844 L 9.5644531 5.6503906 C 10.118674 6.4919648 11.062638 6.9998341 12.070312 7 L 20 7 C 20.564128 7 21 7.4358718 21 8 L 21 10.5 A 1 1 0 0 0 22 11.5 A 1 1 0 0 0 23 10.5 L 23 8 C 23 6.3549936 21.645006 5 20 5 L 12.070312 5 C 11.732817 4.9999444 11.419998 4.8326456 11.234375 4.5507812 A 1.0001 1.0001 0 0 0 11.228516 4.5410156 L 10.425781 3.3496094 C 10.424987 3.3483994 10.422675 3.3488576 10.421875 3.3476562 C 9.8615334 2.4993584 8.9074156 1.9900312 7.890625 2 L 4 2 z M 18 12 C 17.27778 12 16.542118 12.235349 15.960938 12.751953 C 15.379756 13.268559 15 14.083335 15 15 L 15 16 C 13.909299 16 13 16.909299 13 18 L 13 21 C 13 22.090701 13.909299 23 15 23 L 21 23 C 22.090701 23 23 22.090701 23 21 L 23 18 C 23 16.909299 22.090701 16 21 16 L 21 15 C 21 14.083335 20.620244 13.268559 20.039062 12.751953 C 19.457882 12.235349 18.72222 12 18 12 z M 18 14 C 18.277778 14 18.542121 14.09799 18.710938 14.248047 C 18.879755 14.398107 19 14.583334 19 15 L 19 16 L 17 16 L 17 15 C 17 14.583334 17.120246 14.398107 17.289062 14.248047 C 17.45788 14.097987 17.722222 14 18 14 z M 15 18 L 16 18 L 20 18 L 21 18 L 21 21 L 15 21 L 15 18 z "
     stroke-width="0" />
</svg>
