<?xml version="1.0" encoding="UTF-8" standalone="no"?>
<svg
   width="24"
   height="24"
   viewBox="0 0 24 24"
   fill="none"
   stroke="currentColor"
   stroke-width="2"
   stroke-linecap="round"
   stroke-linejoin="round"
   version="1.1"
   id="svg2"
   xmlns="http://www.w3.org/2000/svg"
   xmlns:svg="http://www.w3.org/2000/svg">
  <defs
     id="defs2" />
  <path
     id="circle1"
     style="color:#000000;fill:#000000;-inkscape-stroke:none"
     d="M 4 2 C 2.3549936 2 1 3.3549936 1 5 L 1 18 C 1 19.645006 2.3549936 21 4 21 L 7 21 A 1 1 0 0 0 8 20 A 1 1 0 0 0 7 19 L 4 19 C 3.4358718 19 3 18.564128 3 18 L 3 5 C 3 4.4358718 3.4358718 4 4 4 L 7.9003906 4 A 1.0001 1.0001 0 0 0 7.9101562 4 C 8.251254 3.99666 8.5663098 4.1643215 8.7539062 4.4492188 A 1.0001 1.0001 0 0 0 8.7617188 4.4589844 L 9.5644531 5.6503906 C 10.118674 6.4919648 11.062638 6.9998341 12.070312 7 L 20 7 C 20.564128 7 21 7.4358718 21 8 A 1 1 0 0 0 22 9 A 1 1 0 0 0 23 8 C 23 6.3549936 21.645006 5 20 5 L 12.070312 5 C 11.732817 4.9999444 11.419998 4.8326456 11.234375 4.5507812 A 1.0001 1.0001 0 0 0 11.228516 4.5410156 L 10.425781 3.3496094 C 10.424987 3.3483994 10.422675 3.3488576 10.421875 3.3476562 C 9.8615334 2.4993584 8.9074156 1.9900312 7.890625 2 L 4 2 z M 16 9 C 12.145859 9 9 12.145859 9 16 C 9 19.854141 12.145859 23 16 23 C 19.854141 23 23 19.854141 23 16 C 23 12.145859 19.854141 9 16 9 z M 16 11 C 18.773263 11 21 13.226737 21 16 C 21 18.773263 18.773263 21 16 21 C 13.226737 21 11 18.773263 11 16 C 11 13.226737 13.226737 11 16 11 z M 16 13 A 1 1 0 0 0 15 14 L 15 16 A 1.0001 1.0001 0 0 0 15.292969 16.707031 L 16.292969 17.707031 A 1 1 0 0 0 17.707031 17.707031 A 1 1 0 0 0 17.707031 16.292969 L 17 15.585938 L 17 14 A 1 1 0 0 0 16 13 z "
     stroke-width="0" />
</svg>
