<?xml version="1.0" encoding="UTF-8" standalone="no"?>
<svg
   width="24"
   height="24"
   viewBox="0 0 24 24"
   fill="none"
   stroke="currentColor"
   stroke-width="2"
   stroke-linecap="round"
   stroke-linejoin="round"
   version="1.1"
   id="svg1"
   xmlns="http://www.w3.org/2000/svg"
   xmlns:svg="http://www.w3.org/2000/svg">
  <defs
     id="defs1" />
  <path
     id="path1"
     style="color:#000000;fill:#000000;-inkscape-stroke:none"
     d="M 4 2 C 2.3545487 2 1 3.3545487 1 5 L 1 18 C 1 19.645006 2.3549936 21 4 21 L 18.449219 21 C 19.814136 21.0024 21.016194 20.071579 21.357422 18.75 L 22.908203 12.75 C 23.302432 11.223171 22.389003 9.7529613 21 9.2382812 L 21 8 C 21 6.3549936 19.645006 5 18 5 L 12.074219 5 C 11.738527 4.9982633 11.430722 4.8311458 11.246094 4.5507812 A 1.0001 1.0001 0 0 0 11.236328 4.5351562 L 10.425781 3.3496094 L 10.423828 3.3476562 C 9.8723994 2.5118927 8.9369816 2.005181 7.9355469 2 A 1.0001 1.0001 0 0 0 7.9296875 2 L 4 2 z M 4 4 L 7.9257812 4 C 8.2614728 4.00174 8.5692778 4.1688543 8.7539062 4.4492188 A 1.0001 1.0001 0 0 0 8.7636719 4.4648438 L 9.5742188 5.6503906 L 9.5761719 5.6523438 C 10.12768 6.4881073 11.063018 6.994819 12.064453 7 A 1.0001 1.0001 0 0 0 12.070312 7 L 18 7 C 18.564128 7 19 7.4358718 19 8 L 19 9 L 9.2421875 9 L 9.2402344 9 C 8.1080157 8.9985058 7.0661847 9.6391905 6.5566406 10.650391 A 1.0001 1.0001 0 0 0 6.5546875 10.652344 L 5.1054688 13.552734 A 1 1 0 0 0 5.5527344 14.894531 A 1 1 0 0 0 6.8945312 14.447266 L 8.34375 11.546875 L 8.34375 11.550781 C 8.5149563 11.211026 8.8578217 10.99925 9.2382812 11 A 1.0001 1.0001 0 0 0 9.2402344 11 L 20 11 A 1.0001 1.0001 0 0 0 20.001953 11 C 20.681102 10.9988 21.142445 11.592416 20.972656 12.25 L 19.421875 18.25 C 19.306455 18.697024 18.912855 19.00081 18.451172 19 A 1.0001 1.0001 0 0 0 18.449219 19 L 4 19 C 3.4358718 19 3 18.564128 3 18 L 3 5 C 3 4.4454557 3.4454557 4 4 4 z M 14 13 C 12.907277 13 12 13.907277 12 15 C 12 16.092723 12.907277 17 14 17 C 15.092723 17 16 16.092723 16 15 C 16 13.907277 15.092723 13 14 13 z "
     stroke-width="0" />
</svg>
