<?xml version="1.0" encoding="UTF-8" standalone="no"?>
<svg xmlns="http://www.w3.org/2000/svg" xmlns:svg="http://www.w3.org/2000/svg" width="24" height="24" viewBox="0 0 24 24" fill="currentColor" tags="directory,search,find,lost,browser" categories="files">
  
  <path d="M 4 2 C 2.3549936 2 1 3.3549936 1 5 L 1 18 C 1 19.645006 2.3549936 21 4 21 L 20 21 C 21.645006 21 23 19.645006 23 18 L 23 8 C 23 6.3549936 21.645006 5 20 5 L 12.099609 5 A 1.0001 1.0001 0 0 0 12.089844 5 C 11.748746 5.00334 11.43369 4.8356786 11.246094 4.5507812 A 1.0001 1.0001 0 0 0 11.238281 4.5410156 L 10.435547 3.3496094 C 9.8813258 2.5080352 8.937362 2.0001659 7.9296875 2 L 4 2 z M 4 4 L 7.9296875 4 C 8.267183 4.0000556 8.5800025 4.1673545 8.765625 4.4492188 A 1.0001 1.0001 0 0 0 8.7714844 4.4589844 L 9.5742188 5.6503906 C 9.5750127 5.6516006 9.577325 5.6511424 9.578125 5.6523438 C 10.138456 6.5006373 11.092584 7.0099688 12.109375 7 L 20 7 C 20.564128 7 21 7.4358718 21 8 L 21 18 C 21 18.564128 20.564128 19 20 19 L 4 19 C 3.4358718 19 3 18.564128 3 18 L 3 5 C 3 4.4358718 3.4358718 4 4 4 z M 11.5 9 C 9.5788518 9 8 10.578852 8 12.5 C 8 14.421148 9.5788518 16 11.5 16 C 12.099745 16 12.664751 15.844336 13.160156 15.574219 L 13.162109 15.574219 L 14.292969 16.707031 A 1 1 0 0 0 15.707031 16.707031 A 1 1 0 0 0 15.707031 15.292969 L 14.574219 14.162109 C 14.574496 14.161602 14.573942 14.160663 14.574219 14.160156 C 14.844336 13.664751 15 13.099745 15 12.5 C 15 10.578852 13.421148 9 11.5 9 z M 11.5 11 C 12.34027 11 13 11.65973 13 12.5 C 13 13.34027 12.34027 14 11.5 14 C 10.65973 14 10 13.34027 10 12.5 C 10 11.65973 10.65973 11 11.5 11 z "/>
</svg>
