<?xml version="1.0" encoding="UTF-8" standalone="no"?>
<svg
   width="24"
   height="24"
   viewBox="0 0 24 24"
   fill="none"
   stroke="currentColor"
   stroke-width="2"
   stroke-linecap="round"
   stroke-linejoin="round"
   version="1.1"
   id="svg3"
   xmlns="http://www.w3.org/2000/svg"
   xmlns:svg="http://www.w3.org/2000/svg">
  <defs
     id="defs3" />
  <path
     id="path1"
     style="color:#000000;fill:#000000;-inkscape-stroke:none"
     d="M 4 2 C 2.3545487 2 1 3.3545487 1 5 L 1 9 A 1 1 0 0 0 2 10 A 1 1 0 0 0 3 9 L 3 5 C 3 4.4454557 3.4454557 4 4 4 L 7.9257812 4 C 8.2614728 4.00174 8.5692778 4.1688543 8.7539062 4.4492188 A 1.0001 1.0001 0 0 0 8.7636719 4.4648438 L 9.5742188 5.6503906 L 9.5761719 5.6523438 C 10.12768 6.4881073 11.063018 6.994819 12.064453 7 A 1.0001 1.0001 0 0 0 12.070312 7 L 20 7 C 20.564128 7 21 7.4358718 21 8 L 21 18 C 21 18.564128 20.564128 19 20 19 L 2 19 A 1 1 0 0 0 1 20 A 1 1 0 0 0 2 21 L 20 21 C 21.645006 21 23 19.645006 23 18 L 23 8 C 23 6.3549936 21.645006 5 20 5 L 12.074219 5 C 11.738527 4.9982633 11.430722 4.8311458 11.246094 4.5507812 A 1.0001 1.0001 0 0 0 11.236328 4.5351562 L 10.425781 3.3496094 L 10.423828 3.3476562 C 9.8723994 2.5118927 8.9369816 2.005181 7.9355469 2 A 1.0001 1.0001 0 0 0 7.9296875 2 L 4 2 z M 8 9 A 1 1 0 0 0 7.2929688 9.2929688 A 1 1 0 0 0 7.2929688 10.707031 L 8.5859375 12 L 4 12 C 2.3549936 12 1 13.354994 1 15 L 1 16 A 1 1 0 0 0 2 17 A 1 1 0 0 0 3 16 L 3 15 C 3 14.435872 3.4358718 14 4 14 L 8.5859375 14 L 7.2929688 15.292969 A 1 1 0 0 0 7.2929688 16.707031 A 1 1 0 0 0 8.7070312 16.707031 L 11.707031 13.707031 A 1.0001 1.0001 0 0 0 11.707031 12.292969 L 8.7070312 9.2929688 A 1 1 0 0 0 8 9 z "
     stroke-width="0" />
</svg>
