<?xml version="1.0" encoding="UTF-8" standalone="no"?>
<svg xmlns="http://www.w3.org/2000/svg" xmlns:svg="http://www.w3.org/2000/svg" width="24" height="24" viewBox="0 0 24 24" fill="currentColor" tags="directory,synchronize,synchronise,refresh,reconnect,transfer,backup" categories="files,arrows">
  
  <path d="M 4 2 C 2.3549936 2 1 3.3549936 1 5 L 1 18 C 1 19.645006 2.3549936 21 4 21 L 9 21 A 1 1 0 0 0 10 20 A 1 1 0 0 0 9 19 L 4 19 C 3.4358718 19 3 18.564128 3 18 L 3 5 C 3 4.4358718 3.4358718 4 4 4 L 7.9003906 4 A 1.0001 1.0001 0 0 0 7.9101562 4 C 8.251254 3.99666 8.5663098 4.1643215 8.7539062 4.4492188 A 1.0001 1.0001 0 0 0 8.7617188 4.4589844 L 9.5644531 5.6503906 C 10.118674 6.4919648 11.062638 6.9998341 12.070312 7 L 20 7 C 20.564128 7 21 7.4358718 21 8 L 21 8.5 A 1 1 0 0 0 22 9.5 A 1 1 0 0 0 23 8.5 L 23 8 C 23 6.3549936 21.645006 5 20 5 L 12.070312 5 C 11.732817 4.9999444 11.419998 4.8326456 11.234375 4.5507812 A 1.0001 1.0001 0 0 0 11.228516 4.5410156 L 10.425781 3.3496094 C 10.424987 3.3483994 10.422675 3.3488576 10.421875 3.3476562 C 9.8615334 2.4993584 8.9074156 1.9900312 7.890625 2 L 4 2 z M 12 9 A 1 1 0 0 0 11 10 L 11 14 A 1.0001 1.0001 0 0 0 11.015625 14.128906 A 1 1 0 0 0 11.023438 14.197266 A 1.0001 1.0001 0 0 0 11.111328 14.453125 A 1 1 0 0 0 11.154297 14.521484 A 1.0001 1.0001 0 0 0 11.277344 14.681641 A 1 1 0 0 0 11.308594 14.722656 A 1 1 0 0 0 11.339844 14.744141 A 1.0001 1.0001 0 0 0 11.835938 14.980469 A 1 1 0 0 0 11.908203 14.990234 A 1.0001 1.0001 0 0 0 12 15 L 16 15 A 1 1 0 0 0 17 14 A 1 1 0 0 0 16 13 L 14.357422 13 C 16.365963 11.220633 19.484782 11.851325 20.628906 14.316406 A 1 1 0 0 0 21.955078 14.802734 A 1 1 0 0 0 22.441406 13.474609 C 21.580717 11.620344 19.917913 10.461659 18.101562 10.121094 C 16.34902 9.7924918 14.454979 10.228005 13 11.53125 L 13 10 A 1 1 0 0 0 12 9 z M 18 17 A 1 1 0 0 0 17 18 A 1 1 0 0 0 18 19 L 19.642578 19 C 17.634037 20.779367 14.515218 20.148675 13.371094 17.683594 A 1 1 0 0 0 12.044922 17.197266 A 1 1 0 0 0 11.558594 18.525391 C 13.249651 22.168868 18.037056 23.12272 21 20.46875 L 21 22 A 1 1 0 0 0 22 23 A 1 1 0 0 0 23 22 L 23 18.029297 A 1 1 0 0 0 23 18 A 1.0001 1.0001 0 0 0 23 17.994141 A 1 1 0 0 0 22.974609 17.783203 A 1 1 0 0 0 22.974609 17.777344 A 1.0001 1.0001 0 0 0 22.972656 17.771484 A 1 1 0 0 0 22.900391 17.568359 A 1 1 0 0 0 22.900391 17.566406 A 1.0001 1.0001 0 0 0 22.898438 17.564453 A 1 1 0 0 0 22.78125 17.378906 A 1 1 0 0 0 22.78125 17.376953 A 1 1 0 0 0 22.691406 17.277344 A 1 1 0 0 0 22.654297 17.25 A 1.0001 1.0001 0 0 0 22.539062 17.166016 A 1 1 0 0 0 22.455078 17.113281 A 1.0001 1.0001 0 0 0 22.283203 17.046875 A 1 1 0 0 0 22.232422 17.029297 A 1.0001 1.0001 0 0 0 22 17 L 21.978516 17 L 18 17 z "/>
</svg>
