<?xml version="1.0" encoding="UTF-8" standalone="no"?>
<svg
   width="24"
   height="24"
   viewBox="0 0 24 24"
   fill="none"
   stroke="currentColor"
   stroke-width="2"
   stroke-linecap="round"
   stroke-linejoin="round"
   version="1.1"
   id="svg5"
   xmlns="http://www.w3.org/2000/svg"
   xmlns:svg="http://www.w3.org/2000/svg">
  <defs
     id="defs5" />
  <path
     id="path1"
     style="color:#000000;fill:#000000;-inkscape-stroke:none"
     d="M 4 2 C 2.3549936 2 1 3.3549936 1 5 L 1 18 C 1 19.645006 2.3549936 21 4 21 L 9 21 A 1 1 0 0 0 10 20 A 1 1 0 0 0 9 19 L 4 19 C 3.4358718 19 3 18.564128 3 18 L 3 5 C 3 4.4358718 3.4358718 4 4 4 L 7.9003906 4 A 1.0001 1.0001 0 0 0 7.9101562 4 C 8.251254 3.99666 8.5663098 4.1643215 8.7539062 4.4492188 A 1.0001 1.0001 0 0 0 8.7617188 4.4589844 L 9.5644531 5.6503906 C 10.118674 6.4919648 11.062638 6.9998341 12.070312 7 L 20 7 C 20.564128 7 21 7.4358718 21 8 L 21 9 A 1 1 0 0 0 22 10 A 1 1 0 0 0 23 9 L 23 8 C 23 6.3549936 21.645006 5 20 5 L 12.070312 5 C 11.732817 4.9999444 11.419998 4.8326456 11.234375 4.5507812 A 1.0001 1.0001 0 0 0 11.228516 4.5410156 L 10.425781 3.3496094 C 10.424987 3.3483994 10.422675 3.3488576 10.421875 3.3476562 C 9.8615334 2.4993584 8.9074156 1.9900312 7.890625 2 L 4 2 z M 12 9 A 1 1 0 0 0 11 10 L 11 14 A 1.0001 1.0001 0 0 0 11.011719 14.103516 A 1 1 0 0 0 11.021484 14.185547 A 1.0001 1.0001 0 0 0 11.107422 14.445312 A 1 1 0 0 0 11.128906 14.480469 A 1.0001 1.0001 0 0 0 11.267578 14.671875 A 1 1 0 0 0 11.292969 14.707031 A 1 1 0 0 0 11.328125 14.732422 A 1.0001 1.0001 0 0 0 11.519531 14.871094 A 1 1 0 0 0 11.554688 14.892578 A 1.0001 1.0001 0 0 0 11.814453 14.978516 A 1 1 0 0 0 11.896484 14.988281 A 1.0001 1.0001 0 0 0 12 15 L 16 15 A 1 1 0 0 0 17 14 A 1 1 0 0 0 16 13 L 14.433594 13 C 15.140586 12.398107 16.106925 12 17 12 C 17.992306 12 19.076293 12.490357 19.792969 13.207031 C 20.075116 13.48918 20.440567 14.041848 20.572266 14.371094 A 1 1 0 0 0 21.871094 14.927734 A 1 1 0 0 0 22.427734 13.628906 C 22.159434 12.958154 21.724882 12.310818 21.207031 11.792969 C 20.123709 10.709647 18.607689 10 17 10 C 15.492791 10 14.065072 10.625109 13 11.595703 L 13 10 A 1 1 0 0 0 12 9 z M 18 17 A 1 1 0 0 0 17 18 A 1 1 0 0 0 18 19 L 19.572266 19 C 18.867621 19.620855 18.006607 20 17 20 C 15.885716 20 14.949896 19.535832 14.207031 18.792969 C 13.924884 18.51082 13.559433 17.958152 13.427734 17.628906 A 1 1 0 0 0 12.128906 17.072266 A 1 1 0 0 0 11.572266 18.371094 C 11.840566 19.041846 12.275118 19.689182 12.792969 20.207031 C 13.850102 21.264164 15.314289 22 17 22 C 18.578298 22 19.962364 21.35611 21 20.40625 L 21 22 A 1 1 0 0 0 22 23 A 1 1 0 0 0 23 22 L 23 18 A 1.0001 1.0001 0 0 0 22.998047 17.982422 A 1 1 0 0 0 22.976562 17.791016 A 1.0001 1.0001 0 0 0 22.970703 17.763672 A 1 1 0 0 0 22.904297 17.576172 A 1 1 0 0 0 22.900391 17.566406 A 1.0001 1.0001 0 0 0 22.896484 17.560547 A 1 1 0 0 0 22.78125 17.376953 A 1.0001 1.0001 0 0 0 22.777344 17.371094 A 1 1 0 0 0 22.707031 17.292969 A 1 1 0 0 0 22.671875 17.267578 A 1.0001 1.0001 0 0 0 22.480469 17.128906 A 1 1 0 0 0 22.445312 17.107422 A 1.0001 1.0001 0 0 0 22.185547 17.021484 A 1 1 0 0 0 22.103516 17.011719 A 1.0001 1.0001 0 0 0 22 17 L 18 17 z "
     stroke-width="0" />
</svg>
