<?xml version="1.0" encoding="UTF-8" standalone="no"?>
<svg xmlns="http://www.w3.org/2000/svg" xmlns:svg="http://www.w3.org/2000/svg" width="24" height="24" viewBox="0 0 24 24" fill="currentColor" tags="directory,import,export" categories="files,arrows">
  
  <path d="M 4 2 C 2.3545487 2 1 3.3545487 1 5 L 1 7.5 A 1 1 0 0 0 2 8.5 A 1 1 0 0 0 3 7.5 L 3 5 C 3 4.4454557 3.4454557 4 4 4 L 7.9257812 4 C 8.2614728 4.00174 8.5692778 4.1688543 8.7539062 4.4492188 A 1.0001 1.0001 0 0 0 8.7636719 4.4648438 L 9.5742188 5.6503906 L 9.5761719 5.6523438 C 10.12768 6.4881073 11.063018 6.994819 12.064453 7 A 1.0001 1.0001 0 0 0 12.070312 7 L 20 7 C 20.564128 7 21 7.4358718 21 8 L 21 18 C 21 18.564128 20.564128 19 20 19 L 2 19 A 1 1 0 0 0 1 20 A 1 1 0 0 0 2 21 L 20 21 C 21.645006 21 23 19.645006 23 18 L 23 8 C 23 6.3549936 21.645006 5 20 5 L 12.074219 5 C 11.738527 4.9982633 11.430722 4.8311458 11.246094 4.5507812 A 1.0001 1.0001 0 0 0 11.236328 4.5351562 L 10.425781 3.3496094 L 10.423828 3.3476562 C 9.8723994 2.5118927 8.9369816 2.005181 7.9355469 2 A 1.0001 1.0001 0 0 0 7.9296875 2 L 4 2 z M 5 9 A 1 1 0 0 0 4.2929688 9.2929688 L 1.2929688 12.292969 A 1 1 0 0 0 1.1347656 12.5 A 1 1 0 0 0 1 13 A 1 1 0 0 0 1.1347656 13.5 A 1 1 0 0 0 1.2929688 13.707031 L 4.2929688 16.707031 A 1 1 0 0 0 5.7070312 16.707031 A 1 1 0 0 0 5.7070312 15.292969 L 4.4140625 14 L 12 14 A 1 1 0 0 0 13 13 A 1 1 0 0 0 12 12 L 4.4140625 12 L 5.7070312 10.707031 A 1 1 0 0 0 5.7070312 9.2929688 A 1 1 0 0 0 5 9 z "/>
</svg>
