<?xml version="1.0" encoding="UTF-8" standalone="no"?>
<svg xmlns="http://www.w3.org/2000/svg" xmlns:svg="http://www.w3.org/2000/svg" width="24" height="24" viewBox="0 0 24 24" fill="currentColor" tags="2fa,authenticate,login,field,text" categories="text">
  
  <path d="M 4 5 C 2.3553005 5 1 6.3553005 1 8 L 1 16 C 1 17.644699 2.3553005 19 4 19 L 20 19 C 21.644699 19 23 17.644699 23 16 L 23 8 C 23 6.3553005 21.644699 5 20 5 L 4 5 z M 4 7 L 20 7 C 20.571296 7 21 7.4287039 21 8 L 21 16 C 21 16.571296 20.571296 17 20 17 L 4 17 C 3.4287039 17 3 16.571296 3 16 L 3 8 C 3 7.4287039 3.4287039 7 4 7 z M 7 11 A 1 1 0 0 0 6 12 A 1 1 0 0 0 7 13 L 7.0097656 13 A 1 1 0 0 0 8.0097656 12 A 1 1 0 0 0 7.0097656 11 L 7 11 z M 12 11 A 1 1 0 0 0 11 12 A 1 1 0 0 0 12 13 L 12.009766 13 A 1 1 0 0 0 13.009766 12 A 1 1 0 0 0 12.009766 11 L 12 11 z M 17 11 A 1 1 0 0 0 16 12 A 1 1 0 0 0 17 13 L 17.009766 13 A 1 1 0 0 0 18.009766 12 A 1 1 0 0 0 17.009766 11 L 17 11 z "/>
</svg>
