<?xml version="1.0" encoding="UTF-8" standalone="no"?>
<svg
   width="24"
   height="24"
   viewBox="0 0 24 24"
   fill="none"
   stroke="currentColor"
   stroke-width="2"
   stroke-linecap="round"
   stroke-linejoin="round"
   version="1.1"
   id="svg3"
   xmlns="http://www.w3.org/2000/svg"
   xmlns:svg="http://www.w3.org/2000/svg">
  <defs
     id="defs3" />
  <path
     id="line1"
     style="color:#000000;fill:#000000;-inkscape-stroke:none"
     d="M 6 1 C 4.3549936 1 3 2.3549936 3 4 L 3 21 A 1 1 0 0 0 2 22 A 1 1 0 0 0 3 23 L 15 23 A 1 1 0 0 0 16 22 A 1 1 0 0 0 15 21 L 15 14 L 16 14 C 16.564128 14 17 14.435872 17 15 L 17 17 C 17 18.645006 18.354994 20 20 20 C 21.645006 20 23 18.645006 23 17 L 23 9.8300781 C 23.000633 9.0317913 22.682791 8.2663682 22.117188 7.703125 L 22.115234 7.7011719 L 18.707031 4.2929688 A 1 1 0 0 0 17.292969 4.2929688 A 1 1 0 0 0 17.292969 5.7070312 L 20.703125 9.1171875 A 1.0001 1.0001 0 0 0 20.705078 9.1191406 C 20.89433 9.3073189 21.000211 9.563163 21 9.8300781 L 21 17 C 21 17.564128 20.564128 18 20 18 C 19.435872 18 19 17.564128 19 17 L 19 15 C 19 13.354994 17.645006 12 16 12 L 15 12 L 15 4 C 15 2.3549936 13.645006 1 12 1 L 6 1 z M 6 3 L 12 3 C 12.564128 3 13 3.4358718 13 4 L 13 8 L 5 8 L 5 4 C 5 3.4358718 5.4358718 3 6 3 z M 5 10 L 13 10 L 13 13 L 13 21 L 5 21 L 5 10 z "
     stroke-width="0" />
</svg>
