<?xml version="1.0" encoding="UTF-8" standalone="no"?>
<svg xmlns="http://www.w3.org/2000/svg" xmlns:svg="http://www.w3.org/2000/svg" width="24" height="24" viewBox="0 0 24 24" fill="currentColor" tags="carousel,pictures,images,scroll,swipe,album,portfolio" categories="layout,design,development,photography,multimedia">
  
  <path d="M 3 1 A 1 1 0 0 0 2 2 A 1 1 0 0 0 3 3 L 21 3 A 1 1 0 0 0 22 2 A 1 1 0 0 0 21 1 L 3 1 z M 5 5 C 3.3553005 5 2 6.3553005 2 8 L 2 16 C 2 17.644699 3.3553005 19 5 19 L 19 19 C 20.644699 19 22 17.644699 22 16 L 22 8 C 22 6.3553005 20.644699 5 19 5 L 5 5 z M 5 7 L 19 7 C 19.571296 7 20 7.4287039 20 8 L 20 16 C 20 16.571296 19.571296 17 19 17 L 5 17 C 4.4287039 17 4 16.571296 4 16 L 4 8 C 4 7.4287039 4.4287039 7 5 7 z M 3 21 A 1 1 0 0 0 2 22 A 1 1 0 0 0 3 23 L 21 23 A 1 1 0 0 0 22 22 A 1 1 0 0 0 21 21 L 3 21 z "/>
</svg>
