<?xml version="1.0" encoding="UTF-8" standalone="no"?>
<svg
   width="24"
   height="24"
   viewBox="0 0 24 24"
   fill="none"
   stroke="currentColor"
   stroke-width="2"
   stroke-linecap="round"
   stroke-linejoin="round"
   version="1.1"
   id="svg4"
   xmlns="http://www.w3.org/2000/svg"
   xmlns:svg="http://www.w3.org/2000/svg">
  <defs
     id="defs4" />
  <path
     id="rect1"
     style="color:#000000;fill:#000000;-inkscape-stroke:none"
     d="M 5 2 C 3.3553005 2 2 3.3553005 2 5 L 2 15 C 2 16.644699 3.3553005 18 5 18 L 19 18 C 20.644699 18 22 16.644699 22 15 L 22 5 C 22 3.3553005 20.644699 2 19 2 L 5 2 z M 5 4 L 19 4 C 19.571296 4 20 4.4287039 20 5 L 20 15 C 20 15.571296 19.571296 16 19 16 L 5 16 C 4.4287039 16 4 15.571296 4 15 L 4 5 C 4 4.4287039 4.4287039 4 5 4 z M 4 20 A 1 1 0 0 0 3 21 A 1 1 0 0 0 4 22 L 5 22 A 1 1 0 0 0 6 21 A 1 1 0 0 0 5 20 L 4 20 z M 9 20 A 1 1 0 0 0 8 21 A 1 1 0 0 0 9 22 L 10 22 A 1 1 0 0 0 11 21 A 1 1 0 0 0 10 20 L 9 20 z M 14 20 A 1 1 0 0 0 13 21 A 1 1 0 0 0 14 22 L 15 22 A 1 1 0 0 0 16 21 A 1 1 0 0 0 15 20 L 14 20 z M 19 20 A 1 1 0 0 0 18 21 A 1 1 0 0 0 19 22 L 20 22 A 1 1 0 0 0 21 21 A 1 1 0 0 0 20 20 L 19 20 z "
     stroke-width="0" />
</svg>
