<?xml version="1.0" encoding="UTF-8" standalone="no"?>
<svg
   width="24"
   height="24"
   viewBox="0 0 24 24"
   fill="none"
   stroke="currentColor"
   stroke-width="2"
   stroke-linecap="round"
   stroke-linejoin="round"
   version="1.1"
   id="svg4"
   xmlns="http://www.w3.org/2000/svg"
   xmlns:svg="http://www.w3.org/2000/svg">
  <defs
     id="defs4" />
  <path
     id="line1"
     style="color:#000000;fill:#000000;-inkscape-stroke:none"
     d="M 4 5 C 2.3553005 5 1 6.3553005 1 8 L 1 16 C 1 17.644699 2.3553005 19 4 19 L 20 19 C 21.644699 19 23 17.644699 23 16 L 23 8 C 23 6.3553005 21.644699 5 20 5 L 4 5 z M 4 7 L 20 7 C 20.571296 7 21 7.4287039 21 8 L 21 16 C 21 16.571296 20.571296 17 20 17 L 4 17 C 3.4287039 17 3 16.571296 3 16 L 3 8 C 3 7.4287039 3.4287039 7 4 7 z M 8 9 A 1 1 0 0 0 7 10 L 7 11 L 6 11 A 1 1 0 0 0 5 12 A 1 1 0 0 0 6 13 L 7 13 L 7 14 A 1 1 0 0 0 8 15 A 1 1 0 0 0 9 14 L 9 13 L 10 13 A 1 1 0 0 0 11 12 A 1 1 0 0 0 10 11 L 9 11 L 9 10 A 1 1 0 0 0 8 9 z M 18 10 A 1 1 0 0 0 17 11 A 1 1 0 0 0 18 12 L 18.009766 12 A 1 1 0 0 0 19.009766 11 A 1 1 0 0 0 18.009766 10 L 18 10 z M 15 12 A 1 1 0 0 0 14 13 A 1 1 0 0 0 15 14 L 15.009766 14 A 1 1 0 0 0 16.009766 13 A 1 1 0 0 0 15.009766 12 L 15 12 z "
     stroke-width="0" />
</svg>
