<?xml version="1.0" encoding="UTF-8" standalone="no"?>
<svg
   width="24"
   height="24"
   viewBox="0 0 24 24"
   fill="none"
   stroke="currentColor"
   stroke-width="2"
   stroke-linecap="round"
   stroke-linejoin="round"
   version="1.1"
   id="svg2"
   xmlns="http://www.w3.org/2000/svg"
   xmlns:svg="http://www.w3.org/2000/svg">
  <defs
     id="defs2" />
  <path
     id="path1"
     style="color:#000000;fill:#000000;-inkscape-stroke:none"
     d="M 12 3 C 3.5801659 3 -1.7357775 12.208251 2.4746094 19.5 A 1 1 0 0 0 3.8398438 19.865234 A 1 1 0 0 0 4.2050781 18.5 C 0.71644569 12.45822 5.023544 5 12 5 C 18.976456 5 23.283554 12.45822 19.794922 18.5 A 1 1 0 0 0 20.160156 19.865234 A 1 1 0 0 0 21.525391 19.5 C 25.735777 12.208251 20.419835 3 12 3 z M 15.888672 9.0058594 A 1 1 0 0 0 15.292969 9.2929688 L 11.292969 13.292969 A 1 1 0 0 0 11.292969 14.707031 A 1 1 0 0 0 12.707031 14.707031 L 16.707031 10.707031 A 1 1 0 0 0 16.707031 9.2929688 A 1 1 0 0 0 15.888672 9.0058594 z "
     stroke-width="0" />
</svg>
