<?xml version="1.0" encoding="UTF-8" standalone="no"?>
<svg
   width="24"
   height="24"
   viewBox="0 0 24 24"
   fill="none"
   stroke="currentColor"
   stroke-width="2"
   stroke-linecap="round"
   stroke-linejoin="round"
   version="1.1"
   id="svg5"
   xmlns="http://www.w3.org/2000/svg"
   xmlns:svg="http://www.w3.org/2000/svg">
  <defs
     id="defs5" />
  <path
     id="path1"
     style="color:#000000;fill:#000000;-inkscape-stroke:none"
     d="M 14 1 A 1 1 0 0 0 13.292969 1.2929688 L 12.292969 2.2929688 L 7.2929688 7.2929688 A 1 1 0 0 0 7.2929688 8.7070312 A 1 1 0 0 0 8.7070312 8.7070312 L 9 8.4140625 L 10.085938 9.5 L 2.7929688 16.792969 C 1.5811155 18.003313 1.5811155 19.996687 2.7929688 21.207031 C 4.0034976 22.41756 5.9965024 22.41756 7.2070312 21.207031 L 14.5 13.914062 L 15.585938 15 L 15.292969 15.292969 A 1 1 0 0 0 15.292969 16.707031 A 1 1 0 0 0 16.707031 16.707031 L 21.707031 11.707031 L 22.707031 10.707031 A 1 1 0 0 0 22.707031 9.2929688 A 1 1 0 0 0 21.292969 9.2929688 L 21 9.5859375 L 14.414062 3 L 14.707031 2.7070312 A 1 1 0 0 0 14.707031 1.2929688 A 1 1 0 0 0 14 1 z M 13 4.4140625 L 19.585938 11 L 17 13.585938 L 10.414062 7 L 13 4.4140625 z M 11.5 10.914062 L 13.085938 12.5 L 5.7929688 19.792969 C 5.3435011 20.242436 4.656499 20.242436 4.2070312 19.792969 C 3.7605737 19.347067 3.7605737 18.652933 4.2070312 18.207031 L 11.5 10.914062 z "
     stroke-width="0" />
</svg>
