<?xml version="1.0" encoding="UTF-8" standalone="no"?>
<svg
   width="24"
   height="24"
   viewBox="0 0 24 24"
   fill="none"
   stroke="currentColor"
   stroke-width="2"
   stroke-linecap="round"
   stroke-linejoin="round"
   version="1.1"
   id="svg3"
   xmlns="http://www.w3.org/2000/svg"
   xmlns:svg="http://www.w3.org/2000/svg">
  <defs
     id="defs3" />
  <path
     id="path1"
     style="color:#000000;fill:#000000;-inkscape-stroke:none"
     d="M 12 1 C 7.0412918 1 3 5.0412918 3 10 L 3 22 A 1.0001 1.0001 0 0 0 4.7070312 22.707031 L 7 20.414062 L 8.7929688 22.207031 A 1.0001 1.0001 0 0 0 10.207031 22.207031 L 12 20.414062 L 13.792969 22.207031 A 1.0001 1.0001 0 0 0 15.207031 22.207031 L 17 20.414062 L 19.292969 22.707031 A 1.0001 1.0001 0 0 0 21 22 L 21 10 C 21 5.0412918 16.958708 1 12 1 z M 12 3 C 15.87783 3 19 6.1221699 19 10 L 19 19.585938 L 17.707031 18.292969 A 1.0001 1.0001 0 0 0 16.292969 18.292969 L 14.5 20.085938 L 12.707031 18.292969 A 1.0001 1.0001 0 0 0 11.292969 18.292969 L 9.5 20.085938 L 7.7070312 18.292969 A 1.0001 1.0001 0 0 0 6.2929688 18.292969 L 5 19.585938 L 5 10 C 5 6.1221699 8.1221699 3 12 3 z M 9 9 A 1 1 0 0 0 8 10 A 1 1 0 0 0 9 11 L 9.0097656 11 A 1 1 0 0 0 10.009766 10 A 1 1 0 0 0 9.0097656 9 L 9 9 z M 15 9 A 1 1 0 0 0 14 10 A 1 1 0 0 0 15 11 L 15.009766 11 A 1 1 0 0 0 16.009766 10 A 1 1 0 0 0 15.009766 9 L 15 9 z "
     stroke-width="0" />
</svg>
