<?xml version="1.0" encoding="UTF-8" standalone="no"?>
<svg
   width="24"
   height="24"
   viewBox="0 0 24 24"
   fill="none"
   stroke="currentColor"
   stroke-width="2"
   stroke-linecap="round"
   stroke-linejoin="round"
   version="1.1"
   id="svg2"
   xmlns="http://www.w3.org/2000/svg"
   xmlns:svg="http://www.w3.org/2000/svg">
  <defs
     id="defs2" />
  <path
     id="circle1"
     style="color:#000000;fill:#000000;-inkscape-stroke:none"
     d="M 12 8 C 10.147532 8 8.5766784 9.2811777 8.1289062 11 L 3 11 A 1 1 0 0 0 2 12 A 1 1 0 0 0 3 13 L 8.1289062 13 C 8.5766784 14.718822 10.147532 16 12 16 C 13.852468 16 15.423322 14.718822 15.871094 13 L 21 13 A 1 1 0 0 0 22 12 A 1 1 0 0 0 21 11 L 15.871094 11 C 15.423322 9.2811777 13.852468 8 12 8 z M 12 10 C 13.116412 10 14 10.883588 14 12 C 14 13.116412 13.116412 14 12 14 C 10.883588 14 10 13.116412 10 12 C 10 10.883588 10.883588 10 12 10 z "
     stroke-width="0" />
</svg>
