<?xml version="1.0" encoding="UTF-8" standalone="no"?>
<svg
   width="24"
   height="24"
   viewBox="0 0 24 24"
   fill="none"
   stroke="currentColor"
   stroke-width="2"
   stroke-linecap="round"
   stroke-linejoin="round"
   version="1.1"
   id="svg5"
   xmlns="http://www.w3.org/2000/svg"
   xmlns:svg="http://www.w3.org/2000/svg">
  <defs
     id="defs5" />
  <path
     id="circle1"
     style="color:#000000;fill:#000000;-inkscape-stroke:none"
     d="M 5 2 C 2.80271 2 1 3.80271 1 6 C 1 7.8524679 2.2811777 9.4233216 4 9.8710938 L 4 21 A 1 1 0 0 0 5 22 A 1 1 0 0 0 6 21 L 6 9.8710938 C 7.7188223 9.4233216 9 7.8524679 9 6 C 9 3.80271 7.19729 2 5 2 z M 15 2 A 1 1 0 0 0 14.292969 2.2929688 L 11.292969 5.2929688 A 1.0001 1.0001 0 0 0 11.134766 5.5 A 1 1 0 0 0 11 6 A 1 1 0 0 0 11.134766 6.5 A 1.0001 1.0001 0 0 0 11.292969 6.7070312 L 14.292969 9.7070312 A 1 1 0 0 0 15.707031 9.7070312 A 1 1 0 0 0 15.707031 8.2929688 L 14.414062 7 L 17 7 C 17.564128 7 18 7.4358718 18 8 L 18 11 A 1 1 0 0 0 19 12 A 1 1 0 0 0 20 11 L 20 8 C 20 6.3549936 18.645006 5 17 5 L 14.414062 5 L 15.707031 3.7070312 A 1 1 0 0 0 15.707031 2.2929688 A 1 1 0 0 0 15 2 z M 5 4 C 6.1164119 4 7 4.8835881 7 6 C 7 7.1164119 6.1164119 8 5 8 C 3.8835881 8 3 7.1164119 3 6 C 3 4.8835881 3.8835881 4 5 4 z M 19 14 A 1 1 0 0 0 18 15 L 18 17 L 16 17 A 1 1 0 0 0 15 18 A 1 1 0 0 0 16 19 L 18 19 L 18 21 A 1 1 0 0 0 19 22 A 1 1 0 0 0 20 21 L 20 19 L 22 19 A 1 1 0 0 0 23 18 A 1 1 0 0 0 22 17 L 20 17 L 20 15 A 1 1 0 0 0 19 14 z "
     stroke-width="0" />
</svg>
