<?xml version="1.0" encoding="UTF-8" standalone="no"?>
<svg xmlns="http://www.w3.org/2000/svg" xmlns:svg="http://www.w3.org/2000/svg" width="24" height="24" viewBox="0 0 24 24" fill="currentColor" tags="add,create,+" categories="development">
  
  <path d="M 6 2 A 1 1 0 0 0 5 3 L 5 14.115234 C 4.1850817 14.304988 3.4942237 14.719632 3.0019531 15.273438 C 2.318682 16.042118 2 17.02778 2 18 C 2 18.97222 2.318682 19.957882 3.0019531 20.726562 C 3.6852243 21.495244 4.7500028 22 6 22 C 7.2499972 22 8.3147757 21.495244 8.9980469 20.726562 C 9.681318 19.957882 10 18.97222 10 18 C 10 17.02778 9.681318 16.042118 8.9980469 15.273438 C 8.5153042 14.730351 7.8412629 14.321621 7.046875 14.126953 C 7.4486658 10.39675 10.39675 7.4486658 14.126953 7.046875 C 14.277745 7.6554448 14.56514 8.2351477 15.001953 8.7265625 C 15.685224 9.4952428 16.750003 10 18 10 C 19.249997 10 20.314776 9.4952428 20.998047 8.7265625 C 21.681318 7.9578822 22 6.9722202 22 6 C 22 5.0277798 21.681318 4.0421178 20.998047 3.2734375 C 20.314776 2.5047572 19.249997 2 18 2 C 16.750003 2 15.685224 2.5047572 15.001953 3.2734375 C 14.543838 3.7888169 14.251582 4.4019585 14.107422 5.0429688 C 11.20765 5.3014488 8.6580106 6.8016211 7 9.0097656 L 7 3 A 1 1 0 0 0 6 2 z M 18 4 C 18.749998 4 19.185226 4.2452452 19.501953 4.6015625 C 19.81868 4.9578798 20 5.4722232 20 6 C 20 6.5277768 19.81868 7.0421202 19.501953 7.3984375 C 19.185226 7.7547548 18.749998 8 18 8 C 17.250002 8 16.814774 7.7547548 16.498047 7.3984375 C 16.18132 7.0421202 16 6.5277768 16 6 C 16 5.4722232 16.18132 4.9578798 16.498047 4.6015625 C 16.814774 4.2452452 17.250002 4 18 4 z M 18 14 A 1 1 0 0 0 17 15 L 17 17 L 15 17 A 1 1 0 0 0 14 18 A 1 1 0 0 0 15 19 L 17 19 L 17 21 A 1 1 0 0 0 18 22 A 1 1 0 0 0 19 21 L 19 19 L 21 19 A 1 1 0 0 0 22 18 A 1 1 0 0 0 21 17 L 19 17 L 19 15 A 1 1 0 0 0 18 14 z M 6 16 C 6.749998 16 7.1852267 16.245246 7.5019531 16.601562 C 7.8186796 16.95788 8 17.472224 8 18 C 8 18.527776 7.8186796 19.042121 7.5019531 19.398438 C 7.1852267 19.754755 6.749998 20 6 20 C 5.250002 20 4.8147733 19.754755 4.4980469 19.398438 C 4.1813204 19.042121 4 18.527776 4 18 C 4 17.472224 4.1813204 16.95788 4.4980469 16.601562 C 4.8147733 16.245246 5.250002 16 6 16 z "/>
</svg>
