<?xml version="1.0" encoding="UTF-8" standalone="no"?>
<svg
   width="24"
   height="24"
   viewBox="0 0 24 24"
   fill="none"
   stroke="currentColor"
   stroke-width="2"
   stroke-linecap="round"
   stroke-linejoin="round"
   version="1.1"
   id="svg2"
   xmlns="http://www.w3.org/2000/svg"
   xmlns:svg="http://www.w3.org/2000/svg">
  <defs
     id="defs2" />
  <path
     id="path1"
     style="color:#000000;fill:#000000;-inkscape-stroke:none"
     d="M 12 2 A 1 1 0 0 0 11 3 L 11 8.1289062 C 9.2811777 8.5766784 8 10.147532 8 12 C 8 13.852468 9.2811777 15.423322 11 15.871094 L 11 21 A 1 1 0 0 0 12 22 A 1 1 0 0 0 13 21 L 13 15.871094 C 14.718822 15.423322 16 13.852468 16 12 C 16 10.147532 14.718822 8.5766784 13 8.1289062 L 13 3 A 1 1 0 0 0 12 2 z M 12 10 C 13.116412 10 14 10.883588 14 12 C 14 13.116412 13.116412 14 12 14 C 10.883588 14 10 13.116412 10 12 C 10 10.883588 10.883588 10 12 10 z "
     stroke-width="0" />
</svg>
