<?xml version="1.0" encoding="UTF-8" standalone="no"?>
<svg
   width="24"
   height="24"
   viewBox="0 0 24 24"
   fill="none"
   stroke="currentColor"
   stroke-width="2"
   stroke-linecap="round"
   stroke-linejoin="round"
   version="1.1"
   id="svg2"
   xmlns="http://www.w3.org/2000/svg"
   xmlns:svg="http://www.w3.org/2000/svg">
  <defs
     id="defs2" />
  <path
     id="line1"
     style="color:#000000;fill:#000000;-inkscape-stroke:none"
     d="M 6 2 A 1 1 0 0 0 5 3 L 5 14.128906 C 3.2811777 14.576678 2 16.147532 2 18 C 2 20.19729 3.80271 22 6 22 C 7.8678893 22 9.4502455 20.697448 9.8828125 18.957031 C 14.690396 18.533208 18.533208 14.690396 18.957031 9.8828125 C 20.697448 9.4502455 22 7.8678893 22 6 C 22 3.80271 20.19729 2 18 2 C 15.80271 2 14 3.80271 14 6 C 14 7.836307 15.258882 9.3961283 16.955078 9.859375 C 16.558597 13.600712 13.600712 16.558597 9.859375 16.955078 C 9.4831168 15.577394 8.3838823 14.489423 7 14.128906 L 7 3 A 1 1 0 0 0 6 2 z M 18 4 C 19.116412 4 20 4.8835881 20 6 C 20 7.1164119 19.116412 8 18 8 C 16.883588 8 16 7.1164119 16 6 C 16 4.8835881 16.883588 4 18 4 z M 6 16 C 7.1164119 16 8 16.883588 8 18 C 8 19.116412 7.1164119 20 6 20 C 4.8835881 20 4 19.116412 4 18 C 4 16.883588 4.8835881 16 6 16 z "
     stroke-width="0" />
</svg>
