<?xml version="1.0" encoding="UTF-8" standalone="no"?>
<svg
   width="24"
   height="24"
   viewBox="0 0 24 24"
   fill="none"
   stroke="currentColor"
   stroke-width="2"
   stroke-linecap="round"
   stroke-linejoin="round"
   version="1.1"
   id="svg2"
   xmlns="http://www.w3.org/2000/svg"
   xmlns:svg="http://www.w3.org/2000/svg">
  <defs
     id="defs2" />
  <path
     id="circle1"
     style="color:#000000;fill:#000000;-inkscape-stroke:none"
     d="M 6 2 C 3.80271 2 2 3.80271 2 6 C 2 7.8524679 3.2811777 9.4233216 5 9.8710938 L 5 21 A 1 1 0 0 0 6 22 A 1 1 0 0 0 7 21 L 7 9.8710938 C 8.7188223 9.4233216 10 7.8524679 10 6 C 10 3.80271 8.19729 2 6 2 z M 6 4 C 7.1164119 4 8 4.8835881 8 6 C 8 7.1164119 7.1164119 8 6 8 C 4.8835881 8 4 7.1164119 4 6 C 4 4.8835881 4.8835881 4 6 4 z M 13 5 A 1 1 0 0 0 12 6 A 1 1 0 0 0 13 7 L 16 7 C 16.564128 7 17 7.4358718 17 8 L 17 14.128906 C 15.281178 14.576678 14 16.147532 14 18 C 14 20.19729 15.80271 22 18 22 C 20.19729 22 22 20.19729 22 18 C 22 16.147532 20.718822 14.576678 19 14.128906 L 19 8 C 19 6.3549936 17.645006 5 16 5 L 13 5 z M 18 16 C 19.116412 16 20 16.883588 20 18 C 20 19.116412 19.116412 20 18 20 C 16.883588 20 16 19.116412 16 18 C 16 16.883588 16.883588 16 18 16 z "
     stroke-width="0" />
</svg>
