<?xml version="1.0" encoding="UTF-8" standalone="no"?>
<svg
   width="24"
   height="24"
   viewBox="0 0 24 24"
   fill="none"
   stroke="currentColor"
   stroke-width="2"
   stroke-linecap="round"
   stroke-linejoin="round"
   version="1.1"
   id="svg2"
   xmlns="http://www.w3.org/2000/svg"
   xmlns:svg="http://www.w3.org/2000/svg">
  <defs
     id="defs2" />
  <path
     id="circle1"
     style="color:#000000;fill:#000000;-inkscape-stroke:none"
     d="M 6 2 C 3.80271 2 2 3.80271 2 6 C 2 7.8524679 3.2811777 9.4233216 5 9.8710938 L 5 21 A 1 1 0 0 0 6 22 A 1 1 0 0 0 7 21 L 7 14.683594 C 8.6541175 17.002438 11.150657 18.67953 14.119141 18.958984 C 14.552518 20.698266 16.132922 22 18 22 C 20.19729 22 22 20.19729 22 18 C 22 15.80271 20.19729 14 18 14 C 16.163693 14 14.603872 15.258882 14.140625 16.955078 C 10.399288 16.558597 7.4414033 13.600712 7.0449219 9.859375 C 8.7411183 9.3961283 10 7.836307 10 6 C 10 3.80271 8.19729 2 6 2 z M 6 4 C 7.1164119 4 8 4.8835881 8 6 C 8 7.1164119 7.1164119 8 6 8 C 4.8835881 8 4 7.1164119 4 6 C 4 4.8835881 4.8835881 4 6 4 z M 18 16 C 19.116412 16 20 16.883588 20 18 C 20 19.116412 19.116412 20 18 20 C 16.883588 20 16 19.116412 16 18 C 16 16.883588 16.883588 16 18 16 z "
     stroke-width="0" />
</svg>
