<?xml version="1.0" encoding="UTF-8" standalone="no"?>
<svg xmlns="http://www.w3.org/2000/svg" xmlns:svg="http://www.w3.org/2000/svg" width="24" height="24" viewBox="0 0 24 24" fill="currentColor" tags="logo,version control" categories="brands,development">
  
  <path d="M 5 1 A 1.0001 1.0001 0 0 0 4.0332031 1.7480469 C 3.7251096 2.929072 3.7349038 4.1545821 3.9804688 5.3457031 C 3.3045149 6.4562221 2.9283217 7.7226903 3.0058594 9.0273438 C 3.0147714 11.049598 3.9144255 12.73012 5.234375 13.830078 C 6.1703606 14.610066 7.3204453 15.01906 8.5097656 15.251953 C 8.4175224 15.469038 8.2521579 15.648748 8.1875 15.876953 C 8.0533669 16.350364 7.9873594 16.837525 7.9765625 17.326172 C 7.298 17.554927 6.7996481 17.589619 6.4160156 17.539062 C 5.9242152 17.474253 5.5668645 17.275776 5.1835938 16.96875 C 4.8003231 16.661724 4.4277382 16.244788 3.9570312 15.837891 C 3.4863242 15.430992 2.8333317 15 2 15 A 1 1 0 0 0 1 16 A 1 1 0 0 0 2 17 C 2.1666663 17 2.3238335 17.069011 2.6484375 17.349609 C 2.9730415 17.63021 3.3806162 18.088277 3.9335938 18.53125 C 4.4865712 18.974223 5.2232876 19.400749 6.1542969 19.523438 C 6.7153131 19.597369 7.3285596 19.56141 8 19.400391 L 8 22 A 1 1 0 0 0 9 23 A 1 1 0 0 0 10 22 L 10 18.042969 A 1 1 0 0 0 10 18 A 1.0001 1.0001 0 0 0 10 17.957031 A 1 1 0 0 0 9.9980469 17.939453 A 1.0001 1.0001 0 0 0 9.9980469 17.933594 A 1 1 0 0 0 9.9980469 17.931641 A 1.0001 1.0001 0 0 0 9.9960938 17.914062 A 1.0001 1.0001 0 0 0 9.9941406 17.896484 A 1 1 0 0 0 9.9941406 17.888672 C 9.9385697 17.396467 9.9773579 16.894712 10.111328 16.421875 C 10.244504 15.951841 10.473971 15.511568 10.783203 15.123047 A 1.0001 1.0001 0 0 0 10 13.5 C 8.7222248 13.5 7.4391225 13.064503 6.515625 12.294922 C 5.5921275 11.525341 5 10.464283 5 9 A 1.0001 1.0001 0 0 0 4.9980469 8.9355469 C 4.9315926 7.9189755 5.2190228 6.9100516 5.8125 6.0820312 A 1.0001 1.0001 0 0 0 5.9667969 5.2480469 C 5.8131006 4.6588781 5.9367389 4.0572338 5.9667969 3.4570312 C 6.3611823 3.6469386 6.7300476 3.798024 7.4003906 4.3007812 A 1.0001 1.0001 0 0 0 8.1855469 4.4824219 C 10.702151 4.0057923 13.297849 4.0057923 15.814453 4.4824219 A 1.0001 1.0001 0 0 0 16.599609 4.3007812 C 17.268197 3.7993409 17.635221 3.6490195 18.029297 3.4589844 C 18.057057 4.064244 18.173663 4.6707384 18.029297 5.2636719 A 1.0001 1.0001 0 0 0 18.1875 6.0820312 C 18.784106 6.9156456 19.067409 7.9128019 19.001953 8.9355469 A 1.0001 1.0001 0 0 0 19 9 C 19 10.464283 18.407872 11.525341 17.484375 12.294922 C 16.560878 13.064503 15.277775 13.5 14 13.5 A 1.0001 1.0001 0 0 0 13.214844 15.119141 C 13.832513 15.903275 14.116036 16.896581 14.005859 17.888672 A 1.0001 1.0001 0 0 0 14 18 L 14 22 A 1 1 0 0 0 15 23 A 1 1 0 0 0 16 22 L 16 18.025391 C 16.087835 17.063245 15.85875 16.132811 15.488281 15.253906 C 16.678413 15.021213 17.829059 14.61055 18.765625 13.830078 C 20.085575 12.73012 20.985229 11.049598 20.994141 9.0273438 C 21.072141 7.6852545 20.687516 6.3773453 19.970703 5.2441406 C 20.180156 4.0896581 20.249153 2.9073022 19.970703 1.7636719 A 1.0001 1.0001 0 0 0 19 1 C 19 1 18.501048 1.0259743 17.898438 1.2519531 C 17.387151 1.4436856 16.622497 1.8959678 15.779297 2.4804688 C 13.277229 2.0537455 10.722771 2.0537455 8.2207031 2.4804688 C 7.3775033 1.8959678 6.6128491 1.4436856 6.1015625 1.2519531 C 5.4989523 1.0259744 5 1 5 1 z "/>
</svg>
