<?xml version="1.0" encoding="UTF-8" standalone="no"?>
<svg
   width="24"
   height="24"
   viewBox="0 0 24 24"
   fill="none"
   stroke="currentColor"
   stroke-width="2"
   stroke-linecap="round"
   stroke-linejoin="round"
   version="1.1"
   id="svg3"
   xmlns="http://www.w3.org/2000/svg"
   xmlns:svg="http://www.w3.org/2000/svg">
  <defs
     id="defs3" />
  <path
     id="path1"
     style="color:#000000;fill:#000000;-inkscape-stroke:none"
     d="M 12 1 C 5.9367246 1 1 5.9367246 1 12 C 1 18.063276 5.9367246 23 12 23 C 13.134061 23 14.229456 22.826332 15.259766 22.505859 A 1 1 0 0 0 15.267578 22.503906 C 18.709368 21.430583 21.430583 18.709368 22.503906 15.267578 C 22.5047 15.265032 22.505067 15.262312 22.505859 15.259766 C 22.826332 14.229456 23 13.134061 23 12 C 23 10.468984 22.68537 9.0096095 22.117188 7.6835938 A 1 1 0 0 0 22.03125 7.4921875 C 20.305558 3.6693871 16.457822 1 12 1 z M 12 3 C 15.129784 3 17.878567 4.5860544 19.490234 7 L 18 7 C 16.354549 7 15 8.3545487 15 10 C 15 10.564128 14.564128 11 14 11 C 13.445456 11 13 10.554544 13 10 C 13 8.3549936 11.645006 7 10 7 C 8.8835881 7 8 6.1164119 8 5 L 8 3.9335938 C 9.2044829 3.3368991 10.561019 3 12 3 z M 6.0117188 5.2753906 C 6.1549716 7.3457251 7.8953853 9 10 9 C 10.564128 9 11 9.4358718 11 10 C 11 11.645451 12.354549 13 14 13 C 15.645006 13 17 11.645006 17 10 C 17 9.4454557 17.445456 9 18 9 L 20.488281 9 C 20.818262 9.9378639 21 10.947172 21 12 C 21 12.688165 20.920634 13.356689 20.775391 14 L 17 14 C 15.354994 14 14 15.354994 14 17 L 14 20.775391 C 13.356689 20.920634 12.688165 21 12 21 L 12 18 C 12 16.354994 10.645006 15 9 15 C 8.4358718 15 8 14.564128 8 14 L 8 13 C 8 11.354994 6.6450064 10 5 10 L 3.2246094 10 C 3.6448657 8.1386007 4.6376648 6.4990569 6.0117188 5.2753906 z M 3 12 L 5 12 C 5.5641282 12 6 12.435872 6 13 L 6 14 C 6 15.645006 7.3549936 17 9 17 C 9.5641282 17 10 17.435872 10 18 L 10 20.775391 C 5.9856672 19.869057 3 16.294232 3 12 z M 17 16 L 20.066406 16 C 19.193771 17.761494 17.761494 19.193771 16 20.066406 L 16 17 C 16 16.435872 16.435872 16 17 16 z "
     stroke-width="0" />
</svg>
