<?xml version="1.0" encoding="UTF-8" standalone="no"?>
<svg
   width="24"
   height="24"
   viewBox="0 0 24 24"
   fill="none"
   stroke="currentColor"
   stroke-width="2"
   stroke-linecap="round"
   stroke-linejoin="round"
   version="1.1"
   id="svg2"
   xmlns="http://www.w3.org/2000/svg"
   xmlns:svg="http://www.w3.org/2000/svg">
  <defs
     id="defs2" />
  <path
     id="circle1"
     style="color:#000000;fill:#000000;-inkscape-stroke:none"
     d="M 11.974609 1 C 5.9230206 1.013844 1 5.9452428 1 12 C 1 18.063276 5.9367246 23 12 23 C 18.063276 23 23 18.063276 23 12 C 23 5.9367246 18.063276 1 12 1 C 11.992792 1 11.98572 0.99998605 11.978516 1 A 1 1 0 0 0 11.976562 1 A 1 1 0 0 0 11.974609 1 z M 9.671875 3.3046875 C 8.0911038 5.6340219 7.2145938 8.2978537 7.0410156 11 L 3.0566406 11 C 3.4661875 7.2733247 6.1352314 4.2440748 9.671875 3.3046875 z M 14.328125 3.3046875 C 17.864768 4.2440748 20.533812 7.2733247 20.943359 11 L 16.958984 11 C 16.785406 8.2978537 15.908896 5.6340219 14.328125 3.3046875 z M 12 3.6152344 C 13.743718 5.7968705 14.71172 8.3765216 14.908203 11 L 9.0917969 11 C 9.2882802 8.3765216 10.256282 5.7968705 12 3.6152344 z M 3.0566406 13 L 7.0410156 13 C 7.2145938 15.702146 8.0911038 18.365978 9.671875 20.695312 C 6.1352314 19.755925 3.4661875 16.726675 3.0566406 13 z M 9.0917969 13 L 14.908203 13 C 14.71172 15.623478 13.743718 18.20313 12 20.384766 C 10.256282 18.20313 9.2882802 15.623478 9.0917969 13 z M 16.958984 13 L 20.943359 13 C 20.533812 16.726675 17.864768 19.755925 14.328125 20.695312 C 15.908896 18.365978 16.785406 15.702146 16.958984 13 z "
     stroke-width="0" />
</svg>
