<?xml version="1.0" encoding="UTF-8" standalone="no"?>
<svg xmlns="http://www.w3.org/2000/svg" xmlns:svg="http://www.w3.org/2000/svg" width="24" height="24" viewBox="0 0 24 24" fill="currentColor" tags="hand" categories="cursors,design,layout">
  
  <path d="M 12 5 C 10.944241 5 10.007965 5.5578648 9.4726562 6.3925781 C 9.0363458 6.143647 8.5337577 6 8 6 C 6.3549936 6 5 7.3549936 5 9 L 5 11.160156 C 4.8215053 11.101567 4.6392332 11.060964 4.4550781 11.035156 C 4.4146629 11.028902 4.3729381 11.024128 4.3320312 11.019531 C 4.3228485 11.018602 4.3138738 11.016476 4.3046875 11.015625 C 4.3033929 11.015492 4.3020763 11.015757 4.3007812 11.015625 C 4.2785959 11.013595 4.256574 11.011341 4.234375 11.009766 C 4.1570532 11.003669 4.0787686 11 4 11 C 3.9212314 11 3.8429468 11.003669 3.765625 11.009766 C 3.743426 11.011341 3.7214041 11.013595 3.6992188 11.015625 C 3.697929 11.015743 3.6966021 11.015505 3.6953125 11.015625 C 3.6451689 11.020788 3.5943365 11.027509 3.5449219 11.035156 C 2.975903 11.114899 2.4199592 11.343934 1.9609375 11.751953 C 1.484862 12.175132 1.1487534 12.800184 1.0410156 13.515625 C 1.0382239 13.532523 1.0357066 13.549418 1.0332031 13.566406 C 1.02753 13.608644 1.0196563 13.650526 1.015625 13.693359 C 1.0155587 13.694 1.0156909 13.694672 1.015625 13.695312 C 1.0052991 13.7956 1 13.897187 1 14 C 1 18.958708 5.0412918 23 10 23 L 14 23 C 18.958708 23 23 18.958708 23 14 L 23 11 C 23 10.083335 22.620244 9.268558 22.039062 8.7519531 C 21.457882 8.2353482 20.72222 8 20 8 C 19.625166 8 19.247271 8.0640597 18.888672 8.1972656 C 18.533933 6.93614 17.367616 6 16 6 C 15.466242 6 14.963654 6.143647 14.527344 6.3925781 C 13.992035 5.5578648 13.055759 5 12 5 z M 12 7 C 12.564128 7 13 7.4358718 13 8 L 13 10 L 13 10.400391 A 1 1 0 0 0 14 11.400391 A 1 1 0 0 0 15 10.400391 L 15 9 C 15 8.4358718 15.435872 8 16 8 C 16.564128 8 17 8.4358718 17 9 L 17 11 L 17 11.5 A 1 1 0 0 0 18 12.5 A 1 1 0 0 0 19 11.5 L 19 11 C 19 10.583334 19.120246 10.398107 19.289062 10.248047 C 19.45788 10.097987 19.722222 10 20 10 C 20.277778 10 20.542121 10.09799 20.710938 10.248047 C 20.879755 10.398107 21 10.583334 21 11 L 21 14 C 21 17.87783 17.87783 21 14 21 L 10 21 C 6.1221699 21 3 17.87783 3 14 C 3 13.943791 3.0075182 13.901783 3.0117188 13.853516 C 3.0657651 13.46574 3.3289141 13.156907 3.6914062 13.044922 C 3.6997801 13.042335 3.708321 13.039487 3.7167969 13.037109 C 3.7544857 13.026539 3.7944306 13.019943 3.8339844 13.013672 C 3.8884053 13.00603 3.9437992 13 4 13 C 4.0562008 13 4.1115947 13.00603 4.1660156 13.013672 C 4.2055694 13.019943 4.2455143 13.026539 4.2832031 13.037109 C 4.2918551 13.039229 4.3000399 13.042621 4.3085938 13.044922 C 4.6710859 13.156907 4.9342349 13.46574 4.9882812 13.853516 C 4.9924818 13.901783 5 13.943791 5 14 A 1 1 0 0 0 5.0292969 14.236328 A 1 1 0 0 0 5.0644531 14.333984 A 1 1 0 0 0 5.0683594 14.347656 A 1 1 0 0 0 5.0878906 14.400391 A 1 1 0 0 0 5.1210938 14.46875 A 1 1 0 0 0 5.171875 14.548828 A 1 1 0 0 0 5.2617188 14.666016 A 1 1 0 0 0 5.2929688 14.707031 A 1 1 0 0 0 5.3339844 14.738281 A 1 1 0 0 0 5.4511719 14.828125 A 1 1 0 0 0 5.53125 14.878906 A 1 1 0 0 0 5.5996094 14.912109 A 1 1 0 0 0 5.6523438 14.931641 A 1 1 0 0 0 5.6660156 14.935547 A 1 1 0 0 0 5.7636719 14.970703 A 1 1 0 0 0 6 15 A 1 1 0 0 0 6.2363281 14.970703 A 1 1 0 0 0 6.3339844 14.935547 A 1 1 0 0 0 6.3476562 14.931641 A 1 1 0 0 0 6.4003906 14.912109 A 1 1 0 0 0 6.46875 14.878906 A 1 1 0 0 0 6.5488281 14.828125 A 1 1 0 0 0 6.6660156 14.738281 A 1 1 0 0 0 6.7070312 14.707031 A 1 1 0 0 0 6.7382812 14.666016 A 1 1 0 0 0 6.828125 14.548828 A 1 1 0 0 0 6.8789062 14.46875 A 1 1 0 0 0 6.9121094 14.400391 A 1 1 0 0 0 6.9316406 14.347656 A 1 1 0 0 0 6.9355469 14.333984 A 1 1 0 0 0 6.9707031 14.236328 A 1 1 0 0 0 7 14 L 7 9 C 7 8.4358718 7.4358718 8 8 8 C 8.5641282 8 9 8.4358718 9 9 L 9 9.9003906 L 9 10 A 1 1 0 0 0 10 11 A 1 1 0 0 0 11 10 L 11 8 C 11 7.4358718 11.435872 7 12 7 z "/>
</svg>
