<?xml version="1.0" encoding="UTF-8" standalone="no"?>
<svg
   width="24"
   height="24"
   viewBox="0 0 24 24"
   fill="none"
   stroke="currentColor"
   stroke-width="2"
   stroke-linecap="round"
   stroke-linejoin="round"
   version="1.1"
   id="svg2"
   xmlns="http://www.w3.org/2000/svg"
   xmlns:svg="http://www.w3.org/2000/svg">
  <defs
     id="defs2" />
  <path
     id="path1"
     style="color:#000000;fill:#000000;-inkscape-stroke:none"
     d="M 11.845703 4.0117188 A 1.0001 1.0001 0 0 0 11.552734 4.1054688 L 1.5527344 9.1054688 A 1.0001 1.0001 0 0 0 1.5527344 10.894531 L 5 12.617188 L 5 17 A 1.0001 1.0001 0 0 0 5.2929688 17.707031 C 7.0286676 19.442731 9.5277827 20.25 12 20.25 C 14.472218 20.25 16.971333 19.442731 18.707031 17.707031 A 1.0001 1.0001 0 0 0 19 17 L 19 12.617188 L 21 11.617188 L 21 16 A 1 1 0 0 0 22 17 A 1 1 0 0 0 23 16 L 23 10 A 1 1 0 0 0 22.931641 9.65625 A 1.0001 1.0001 0 0 0 22.927734 9.6328125 A 1 1 0 0 0 22.478516 9.140625 A 1.0001 1.0001 0 0 0 22.447266 9.1054688 L 12.447266 4.1054688 A 1.0001 1.0001 0 0 0 11.845703 4.0117188 z M 12 6.1171875 L 19.763672 10 L 12 13.882812 L 6.4648438 11.115234 L 4.2363281 10 L 12 6.1171875 z M 7 13.617188 L 11.552734 15.894531 A 1.0001 1.0001 0 0 0 12.447266 15.894531 L 17 13.617188 L 17 16.472656 C 15.730984 17.591623 13.902021 18.25 12 18.25 C 10.097979 18.25 8.2690156 17.591623 7 16.472656 L 7 13.617188 z "
     stroke-width="0" />
</svg>
