<?xml version="1.0" encoding="UTF-8" standalone="no"?>
<svg
   width="24"
   height="24"
   viewBox="0 0 24 24"
   fill="none"
   stroke="currentColor"
   stroke-width="2"
   stroke-linecap="round"
   stroke-linejoin="round"
   version="1.1"
   id="svg6"
   xmlns="http://www.w3.org/2000/svg"
   xmlns:svg="http://www.w3.org/2000/svg">
  <defs
     id="defs6" />
  <path
     id="circle1"
     style="color:#000000;fill:#000000;-inkscape-stroke:none"
     d="M 5 7 C 3.9072773 7 3 7.9072773 3 9 C 3 10.092723 3.9072773 11 5 11 C 6.0927227 11 7 10.092723 7 9 C 7 7.9072773 6.0927227 7 5 7 z M 12 7 C 10.907277 7 10 7.9072773 10 9 C 10 10.092723 10.907277 11 12 11 C 13.092723 11 14 10.092723 14 9 C 14 7.9072773 13.092723 7 12 7 z M 19 7 C 17.907277 7 17 7.9072773 17 9 C 17 10.092723 17.907277 11 19 11 C 20.092723 11 21 10.092723 21 9 C 21 7.9072773 20.092723 7 19 7 z M 5 13 C 3.9072773 13 3 13.907277 3 15 C 3 16.092723 3.9072773 17 5 17 C 6.0927227 17 7 16.092723 7 15 C 7 13.907277 6.0927227 13 5 13 z M 12 13 C 10.907277 13 10 13.907277 10 15 C 10 16.092723 10.907277 17 12 17 C 13.092723 17 14 16.092723 14 15 C 14 13.907277 13.092723 13 12 13 z M 19 13 C 17.907277 13 17 13.907277 17 15 C 17 16.092723 17.907277 17 19 17 C 20.092723 17 21 16.092723 21 15 C 21 13.907277 20.092723 13 19 13 z "
     stroke-width="0" />
</svg>
