<?xml version="1.0" encoding="UTF-8" standalone="no"?>
<svg xmlns="http://www.w3.org/2000/svg" xmlns:svg="http://www.w3.org/2000/svg" width="24" height="24" viewBox="0 0 24 24" fill="currentColor" tags="acoustic,instrument,strings,riff,rock,band,country,concert,performance,play,lead,loud,music,audio,sound,noise" categories="multimedia">
  
  <path d="M 19.400391 1.0195312 C 18.892827 1.0195312 18.384871 1.2086885 18 1.5859375 A 1.0001 1.0001 0 0 0 17.992188 1.59375 L 16.292969 3.2929688 A 1.0001 1.0001 0 0 0 16 4 L 16 6.5859375 L 14.478516 8.1074219 C 13.498295 7.4106649 12.299342 7 11 7 C 9.3555588 7 7.9421116 8.0496202 7.2890625 9.4863281 A 1.0001 1.0001 0 0 0 7.2871094 9.4941406 L 6.8867188 10.394531 A 1.0001 1.0001 0 0 0 6.8828125 10.400391 C 6.7252154 10.761607 6.3784586 10.993467 5.984375 11 A 1 1 0 0 0 5.9804688 11.003906 C 3.240324 11.015186 1 13.257338 1 16 C 1 19.845447 4.1545531 23 8 23 C 10.744329 23 12.991438 20.758047 13 18.015625 C 13.0065 17.621541 13.238353 17.274789 13.599609 17.117188 A 1.0001 1.0001 0 0 0 13.605469 17.113281 L 14.505859 16.712891 A 1.0001 1.0001 0 0 0 14.513672 16.710938 C 15.950352 16.057924 17 14.644441 17 13 C 17 11.700658 16.589335 10.501705 15.892578 9.5214844 L 17.414062 8 L 20 8 A 1.0001 1.0001 0 0 0 20.707031 7.7070312 L 22.40625 6.0078125 A 1.0001 1.0001 0 0 0 22.414062 6 C 23.168561 5.2302581 23.168561 3.9689607 22.414062 3.1992188 A 1.0001 1.0001 0 0 0 22.40625 3.1933594 L 20.806641 1.59375 A 1.0001 1.0001 0 0 0 20.800781 1.5859375 C 20.415951 1.208686 19.907953 1.0195313 19.400391 1.0195312 z M 19.398438 3.015625 L 20.986328 4.5996094 L 20.984375 4.6015625 L 19.585938 6 L 18 6 L 18 4.4140625 L 19.398438 3.015625 z M 11 9 C 11.760257 9 12.455466 9.1961451 13.048828 9.5371094 L 11.583984 11.001953 C 11.556203 11.000355 11.52812 11 11.5 11 C 10.683419 11 10 11.683419 10 12.5 C 10 13.316581 10.683419 14 11.5 14 C 12.316581 14 13 13.316581 13 12.5 C 13 12.47188 12.999645 12.443797 12.998047 12.416016 L 14.462891 10.951172 C 14.803855 11.544534 15 12.239743 15 13 C 15 13.755554 14.448834 14.541723 13.685547 14.888672 L 13.693359 14.886719 L 12.800781 15.283203 L 12.798828 15.283203 C 11.724979 15.752415 11.019426 16.812527 11 17.984375 A 1.0001 1.0001 0 0 0 11 18 C 11 19.668695 9.6686955 21 8 21 C 5.2454601 21 3 18.75454 3 16 C 3 14.331305 4.3313045 13 6 13 A 1 1 0 0 0 6.0078125 12.996094 A 1 1 0 0 0 6.015625 13 C 7.1874727 12.98057 8.2476324 12.27508 8.7167969 11.201172 L 9.1132812 10.306641 L 9.1113281 10.314453 C 9.4582739 9.5511777 10.244446 9 11 9 z M 11 12.515625 A 1 1 0 0 0 11.193359 12.806641 A 1 1 0 0 0 11.484375 13 C 11.231809 12.991042 11.008958 12.768191 11 12.515625 z M 6 15 A 1 1 0 0 0 5.2929688 15.292969 A 1 1 0 0 0 5.2929688 16.707031 L 7.2929688 18.707031 A 1 1 0 0 0 8.7070312 18.707031 A 1 1 0 0 0 8.7070312 17.292969 L 6.7070312 15.292969 A 1 1 0 0 0 6 15 z "/>
</svg>
