<?xml version="1.0" encoding="UTF-8" standalone="no"?>
<svg
   width="24"
   height="24"
   viewBox="0 0 24 24"
   fill="none"
   stroke="currentColor"
   stroke-width="2"
   stroke-linecap="round"
   stroke-linejoin="round"
   version="1.1"
   id="svg4"
   xmlns="http://www.w3.org/2000/svg"
   xmlns:svg="http://www.w3.org/2000/svg">
  <defs
     id="defs4" />
  <path
     id="path1"
     style="color:#000000;fill:#000000;-inkscape-stroke:none"
     d="M 8 2 C 7.2777793 2 6.5421182 2.2353482 5.9609375 2.7519531 C 5.3797568 3.268558 5 4.0833353 5 5 L 5 11.921875 C 4.569854 11.7423 4.1185439 11.664515 3.6894531 11.697266 C 2.938796 11.754556 2.2747244 12.098127 1.7773438 12.59375 C 1.2799632 13.089373 0.93299862 13.753457 0.87304688 14.503906 C 0.81309513 15.254356 1.0780585 16.077134 1.6679688 16.730469 A 1.0001 1.0001 0 0 0 1.703125 16.767578 L 5.3027344 20.367188 A 1.0001 1.0001 0 0 0 5.3046875 20.369141 C 6.9270882 21.980602 8.9952441 23 12 23 L 14 23 C 18.958708 23 23 18.958708 23 14 L 23 7 C 23 6.0833353 22.620244 5.268558 22.039062 4.7519531 C 21.457882 4.2353482 20.72222 4 20 4 C 19.27778 4 18.542119 4.2353482 17.960938 4.7519531 C 17.379757 5.268558 17 6.0833353 17 7 L 17 7.1738281 C 16.686782 7.061622 16.34965 7 16 7 C 15.477325 7 14.984644 7.1375277 14.554688 7.3769531 C 14.410537 7.1396393 14.236967 6.9278684 14.039062 6.7519531 C 13.457881 6.2353482 12.72222 6 12 6 C 11.663787 6 11.325097 6.0515649 11 6.1582031 L 11 5 C 11 4.0833353 10.620243 3.268558 10.039062 2.7519531 C 9.4578813 2.2353482 8.7222207 2 8 2 z M 8 4 C 8.2777773 4 8.5421198 4.0979867 8.7109375 4.2480469 C 8.8797552 4.398107 9 4.5833345 9 5 L 9 10.5 L 9 11 A 1 1 0 0 0 10 12 A 1 1 0 0 0 11 11 L 11 9 C 11 8.5833345 11.120245 8.398107 11.289062 8.2480469 C 11.457879 8.0979867 11.722222 8 12 8 C 12.277778 8 12.54212 8.0979867 12.710938 8.2480469 C 12.879754 8.398107 13 8.5833345 13 9 L 13 11 L 13 11.400391 A 1 1 0 0 0 14 12.400391 A 1 1 0 0 0 15 11.400391 L 15 10 C 15 9.4358718 15.435872 9 16 9 C 16.564128 9 17 9.4358718 17 10 L 17 12 L 17 12.5 A 1 1 0 0 0 18 13.5 A 1 1 0 0 0 19 12.5 L 19 12 L 19 10 L 19 7 C 19 6.5833345 19.120246 6.398107 19.289062 6.2480469 C 19.45788 6.0979867 19.722222 6 20 6 C 20.277778 6 20.542121 6.0979867 20.710938 6.2480469 C 20.879755 6.398107 21 6.5833345 21 7 L 21 14 C 21 17.87783 17.87783 21 14 21 L 12 21 C 9.4060939 21 8.0736742 20.30026 6.7167969 18.953125 L 6.7148438 18.951172 L 3.1523438 15.390625 L 3.1503906 15.386719 C 2.8935346 15.100427 2.8495668 14.884629 2.8671875 14.664062 C 2.8849065 14.442259 3.0014446 14.199063 3.1894531 14.011719 C 3.3774616 13.824374 3.619932 13.70834 3.8417969 13.691406 C 4.0636617 13.674476 4.2785781 13.718726 4.5664062 13.980469 L 6.2929688 15.707031 A 1 1 0 0 0 7.7070312 15.707031 A 1 1 0 0 0 7.7070312 14.292969 L 7 13.585938 L 7 5 C 7 4.5833345 7.1202448 4.398107 7.2890625 4.2480469 C 7.4578802 4.0979867 7.7222227 4 8 4 z "
     stroke-width="0" />
</svg>
