<?xml version="1.0" encoding="UTF-8" standalone="no"?>
<svg
   width="24"
   height="24"
   viewBox="0 0 24 24"
   fill="none"
   stroke="currentColor"
   stroke-width="2"
   stroke-linecap="round"
   stroke-linejoin="round"
   version="1.1"
   id="svg4"
   xmlns="http://www.w3.org/2000/svg"
   xmlns:svg="http://www.w3.org/2000/svg">
  <defs
     id="defs4" />
  <path
     id="path1"
     style="color:#000000;fill:#000000;-inkscape-stroke:none"
     d="M 11 3 C 9.9072773 3 9 3.9072773 9 5 L 9 5.0722656 C 5.6168014 5.5607766 3 8.4856478 3 12 L 3 14 C 1.9072773 14 1 14.907277 1 16 L 1 18 C 1 19.092723 1.9072773 20 3 20 L 21 20 C 22.092723 20 23 19.092723 23 18 L 23 16 C 23 14.907277 22.092723 14 21 14 L 21 12 C 21 8.4856478 18.383199 5.5607766 15 5.0722656 L 15 5 C 15 3.9072773 14.092723 3 13 3 L 11 3 z M 11 5 L 13 5 L 13 6 L 13 10 A 1 1 0 0 0 14 11 A 1 1 0 0 0 15 10 L 15 7.0996094 C 17.289874 7.5593074 19 9.569311 19 12 L 19 14 L 5 14 L 5 12 C 5 9.569311 6.7101261 7.5593074 9 7.0996094 L 9 10 A 1 1 0 0 0 10 11 A 1 1 0 0 0 11 10 L 11 5 z M 3 16 L 20 16 L 21 16 L 21 18 L 3 18 L 3 16 z "
     stroke-width="0" />
</svg>
