<?xml version="1.0" encoding="UTF-8" standalone="no"?>
<svg
   width="24"
   height="24"
   viewBox="0 0 24 24"
   fill="none"
   stroke="currentColor"
   stroke-width="2"
   stroke-linecap="round"
   stroke-linejoin="round"
   version="1.1"
   id="svg2"
   xmlns="http://www.w3.org/2000/svg"
   xmlns:svg="http://www.w3.org/2000/svg">
  <defs
     id="defs2" />
  <path
     id="path1"
     style="color:#000000;fill:#000000;-inkscape-stroke:none"
     d="M 3 7 C 1.9072773 7 1 7.9072773 1 9 L 1 13 C 1 14.092723 1.9072773 15 3 15 L 3.5859375 15 L 5.2929688 16.707031 A 1.0001 1.0001 0 0 0 6 17 L 18 17 A 1.0001 1.0001 0 0 0 18.707031 16.707031 L 20.414062 15 L 21 15 C 22.092723 15 23 14.092723 23 13 L 23 9 C 23 7.9072773 22.092723 7 21 7 L 3 7 z M 3 9 L 21 9 L 21 13 L 20 13 A 1.0001 1.0001 0 0 0 19.292969 13.292969 L 17.585938 15 L 6.4140625 15 L 4.7070312 13.292969 A 1.0001 1.0001 0 0 0 4 13 L 3 13 L 3 9 z M 7.5 11 A 1 1 0 0 0 6.5 12 A 1 1 0 0 0 7.5 13 L 16.5 13 A 1 1 0 0 0 17.5 12 A 1 1 0 0 0 16.5 11 L 7.5 11 z "
     stroke-width="0" />
</svg>
