<?xml version="1.0" encoding="UTF-8" standalone="no"?>
<svg
   width="24"
   height="24"
   viewBox="0 0 24 24"
   fill="none"
   stroke="currentColor"
   stroke-width="2"
   stroke-linecap="round"
   stroke-linejoin="round"
   version="1.1"
   id="svg5"
   xmlns="http://www.w3.org/2000/svg"
   xmlns:svg="http://www.w3.org/2000/svg">
  <defs
     id="defs5" />
  <path
     id="path1"
     style="color:#000000;fill:#000000;-inkscape-stroke:none"
     d="M 4 5 A 1 1 0 0 0 3 6 L 3 18 A 1 1 0 0 0 4 19 A 1 1 0 0 0 5 18 L 5 13 L 11 13 L 11 18 A 1 1 0 0 0 12 19 A 1 1 0 0 0 13 18 L 13 6 A 1 1 0 0 0 12 5 A 1 1 0 0 0 11 6 L 11 11 L 5 11 L 5 6 A 1 1 0 0 0 4 5 z M 17 9 A 1 1 0 0 0 16 10 L 16 14 A 1.0001 1.0001 0 0 0 17 15 L 20 15 L 20 18 A 1 1 0 0 0 21 19 A 1 1 0 0 0 22 18 L 22 14 L 22 10 A 1 1 0 0 0 21 9 A 1 1 0 0 0 20 10 L 20 13 L 18 13 L 18 10 A 1 1 0 0 0 17 9 z "
     stroke-width="0" />
</svg>
