<?xml version="1.0" encoding="UTF-8" standalone="no"?>
<svg
   width="24"
   height="24"
   viewBox="0 0 24 24"
   fill="none"
   stroke="currentColor"
   stroke-width="2"
   stroke-linecap="round"
   stroke-linejoin="round"
   version="1.1"
   id="svg5"
   xmlns="http://www.w3.org/2000/svg"
   xmlns:svg="http://www.w3.org/2000/svg">
  <defs
     id="defs5" />
  <path
     id="path1"
     style="color:#000000;fill:#000000;-inkscape-stroke:none"
     d="M 4 5 A 1 1 0 0 0 3 6 L 3 18 A 1 1 0 0 0 4 19 A 1 1 0 0 0 5 18 L 5 13 L 11 13 L 11 18 A 1 1 0 0 0 12 19 A 1 1 0 0 0 13 18 L 13 6 A 1 1 0 0 0 12 5 A 1 1 0 0 0 11 6 L 11 11 L 5 11 L 5 6 A 1 1 0 0 0 4 5 z M 17 9 A 1.0001 1.0001 0 0 0 16 10 L 16 13 A 1 1 0 0 0 16.029297 13.236328 A 1 1 0 0 0 16.064453 13.333984 A 1 1 0 0 0 16.121094 13.46875 A 1 1 0 0 0 16.171875 13.548828 A 1 1 0 0 0 16.261719 13.666016 A 1 1 0 0 0 16.333984 13.738281 A 1 1 0 0 0 16.451172 13.828125 A 1 1 0 0 0 16.53125 13.878906 A 1 1 0 0 0 16.666016 13.935547 A 1 1 0 0 0 16.763672 13.970703 A 1 1 0 0 0 17 14 L 18.300781 14 C 19.31189 14 20 14.67143 20 15.5 C 20 16.32857 19.31189 17 18.300781 17 C 17.934116 17 17.728007 16.94506 17.447266 16.804688 A 1 1 0 0 0 16.105469 17.251953 A 1 1 0 0 0 16.552734 18.59375 C 17.071991 18.853378 17.66745 19 18.300781 19 C 20.289666 19 22 17.471425 22 15.5 C 22 13.528575 20.289666 12 18.300781 12 L 18 12 L 18 11 L 21 11 A 1 1 0 0 0 22 10 A 1 1 0 0 0 21 9 L 17 9 z "
     stroke-width="0" />
</svg>
