<?xml version="1.0" encoding="UTF-8" standalone="no"?>
<svg
   width="24"
   height="24"
   viewBox="0 0 24 24"
   fill="none"
   stroke="currentColor"
   stroke-width="2"
   stroke-linecap="round"
   stroke-linejoin="round"
   version="1.1"
   id="svg4"
   xmlns="http://www.w3.org/2000/svg"
   xmlns:svg="http://www.w3.org/2000/svg">
  <defs
     id="defs4" />
  <path
     id="path1"
     style="color:#000000;fill:#000000;-inkscape-stroke:none"
     d="M 4 5 A 1 1 0 0 0 3 6 L 3 18 A 1 1 0 0 0 4 19 A 1 1 0 0 0 5 18 L 5 13 L 11 13 L 11 18 A 1 1 0 0 0 12 19 A 1 1 0 0 0 13 18 L 13 6 A 1 1 0 0 0 12 5 A 1 1 0 0 0 11 6 L 11 11 L 5 11 L 5 6 A 1 1 0 0 0 4 5 z M 18.974609 9.2597656 C 18.746058 9.2624697 18.512715 9.286954 18.277344 9.3339844 C 17.649685 9.4593986 17.007056 9.7442194 16.400391 10.199219 A 1 1 0 0 0 16.199219 11.599609 A 1 1 0 0 0 17.599609 11.800781 C 18.386275 11.210783 19.031445 11.190169 19.433594 11.324219 C 19.835742 11.458268 20 11.694445 20 12 C 20 12.527776 19.88783 12.704002 19.654297 12.947266 C 19.420764 13.190529 18.996111 13.448964 18.470703 13.777344 C 17.945296 14.105723 17.315752 14.522385 16.816406 15.208984 C 16.317062 15.895585 16 16.833335 16 18 A 1.0001 1.0001 0 0 0 17 19 L 21 19 A 1 1 0 0 0 22 18 A 1 1 0 0 0 21 17 L 18.267578 17 C 18.337078 16.825053 18.338088 16.516086 18.433594 16.384766 C 18.684246 16.040117 19.054706 15.769276 19.529297 15.472656 C 20.003887 15.176038 20.579238 14.87197 21.095703 14.333984 C 21.612169 13.796 22 12.97222 22 12 C 22 10.805558 21.164255 9.7917307 20.066406 9.4257812 C 19.723329 9.311422 19.355529 9.2552588 18.974609 9.2597656 z "
     stroke-width="0" />
</svg>
