<?xml version="1.0" encoding="UTF-8" standalone="no"?>
<svg
   width="24"
   height="24"
   viewBox="0 0 24 24"
   fill="none"
   stroke="currentColor"
   stroke-width="2"
   stroke-linecap="round"
   stroke-linejoin="round"
   version="1.1"
   id="svg1"
   xmlns="http://www.w3.org/2000/svg"
   xmlns:svg="http://www.w3.org/2000/svg">
  <defs
     id="defs1" />
  <path
     id="path1"
     style="color:#000000;fill:#000000;-inkscape-stroke:none"
     d="M 12 2 C 6.4890092 2 2 6.4890051 2 12 L 2 14 L 2 19 C 2 20.645006 3.3549936 22 5 22 L 6 22 C 7.6450064 22 9 20.645006 9 19 L 9 16 C 9 14.354994 7.6450064 13 6 13 L 4 13 L 4 12 C 4 7.5698825 7.5698853 4 12 4 C 16.430115 4 20 7.5698825 20 12 L 20 13 L 18 13 C 16.354994 13 15 14.354994 15 16 L 15 19 C 15 20.645006 16.354994 22 18 22 L 19 22 C 20.645006 22 22 20.645006 22 19 L 22 14 L 22 12 C 22 6.4890051 17.51099 2 12 2 z M 4 15 L 6 15 C 6.5641282 15 7 15.435872 7 16 L 7 19 C 7 19.564128 6.5641282 20 6 20 L 5 20 C 4.4358718 20 4 19.564128 4 19 L 4 15 z M 18 15 L 20 15 L 20 19 C 20 19.564128 19.564128 20 19 20 L 18 20 C 17.435872 20 17 19.564128 17 19 L 17 16 C 17 15.435872 17.435872 15 18 15 z "
     stroke-width="0" />
</svg>
