<?xml version="1.0" encoding="UTF-8" standalone="no"?>
<svg
   width="24"
   height="24"
   viewBox="0 0 24 24"
   fill="none"
   stroke="currentColor"
   stroke-width="2"
   stroke-linecap="round"
   stroke-linejoin="round"
   version="1.1"
   id="svg4"
   xmlns="http://www.w3.org/2000/svg"
   xmlns:svg="http://www.w3.org/2000/svg">
  <defs
     id="defs4" />
  <path
     id="path1"
     style="color:#000000;fill:#000000;-inkscape-stroke:none"
     d="M 7.5 2 C 3.9220009 2 1 4.9220009 1 8.5 C 1 11.234777 2.7551336 13.220847 4.3046875 14.71875 L 11.292969 21.707031 A 1.0001 1.0001 0 0 0 12.707031 21.707031 L 15.707031 18.707031 L 19.699219 14.714844 C 21.233302 13.211648 23 11.229587 23 8.5 C 23 4.9220009 20.077999 2 16.5 2 C 14.828698 2 13.396796 2.6325199 12 3.7929688 C 10.603204 2.6325199 9.1713018 2 7.5 2 z M 7.5 4 C 8.7695176 4 9.5652625 4.2214728 10.552734 5.0332031 L 8.3359375 7.25 C 7.0956718 8.4812642 7.0956718 10.518736 8.3359375 11.75 C 9.5241434 12.934697 11.45721 12.975998 12.707031 11.855469 A 1.0001 1.0001 0 0 0 12.716797 11.847656 L 14.78125 9.9511719 L 14.783203 9.9492188 C 15.483419 9.3156674 16.528962 9.3164022 17.228516 9.9511719 A 1.0001 1.0001 0 0 0 17.232422 9.953125 L 19.5 11.992188 C 19.133362 12.435127 18.728629 12.865923 18.300781 13.285156 A 1.0001 1.0001 0 0 0 18.292969 13.292969 L 18 13.585938 L 16.707031 12.292969 A 1 1 0 0 0 15.292969 12.292969 A 1 1 0 0 0 15.292969 13.707031 L 16.585938 15 L 15 16.585938 L 13.707031 15.292969 A 1 1 0 0 0 13 15 A 1 1 0 0 0 12.292969 15.292969 A 1 1 0 0 0 12.292969 16.707031 L 13.585938 18 L 12 19.585938 L 5.7070312 13.292969 A 1.0001 1.0001 0 0 0 5.6953125 13.28125 C 4.2448724 11.879157 3 10.365214 3 8.5 C 3 6.002879 5.002879 4 7.5 4 z M 16.5 4 C 18.997122 4 21 6.002879 21 8.5 C 21 9.13323 20.850647 9.7263828 20.599609 10.291016 L 18.568359 8.4667969 C 17.118442 7.1542498 14.886218 7.1541877 13.4375 8.46875 A 1.0001 1.0001 0 0 0 13.433594 8.4726562 L 11.373047 10.365234 L 11.371094 10.365234 C 10.88218 10.802271 10.199656 10.783637 9.7480469 10.332031 A 1.0001 1.0001 0 0 0 9.7441406 10.330078 C 9.2746046 9.86395 9.2746046 9.1360501 9.7441406 8.6699219 A 1.0001 1.0001 0 0 0 9.7480469 8.6679688 L 12.707031 5.7070312 C 14.090749 4.3233138 14.929398 4 16.5 4 z "
     stroke-width="0" />
</svg>
