<?xml version="1.0" encoding="UTF-8" standalone="no"?>
<svg xmlns="http://www.w3.org/2000/svg" xmlns:svg="http://www.w3.org/2000/svg" width="24" height="24" viewBox="0 0 24 24" fill="currentColor" tags="heating,warmth,comfort,fire,stove,electric,electronics,amenities" categories="home,devices,travel">
  
  <path d="M 11.064453 1.0019531 A 1 1 0 0 0 10.167969 1.4453125 C 9.5826311 2.3233185 9.3458761 3.1682896 9.4453125 3.9140625 C 9.5447484 4.6598354 9.917969 5.1796883 10.167969 5.5546875 C 10.417969 5.9296867 10.544749 6.1598373 10.570312 6.3515625 C 10.595872 6.5432877 10.582632 6.8233215 10.167969 7.4453125 A 1 1 0 0 0 10.445312 8.8320312 A 1 1 0 0 0 11.832031 8.5546875 C 12.417369 7.6766815 12.654123 6.8317104 12.554688 6.0859375 C 12.455248 5.3401646 12.082031 4.8203117 11.832031 4.4453125 C 11.582031 4.0703133 11.45525 3.8401627 11.429688 3.6484375 C 11.404128 3.4567123 11.417369 3.1766785 11.832031 2.5546875 A 1 1 0 0 0 11.554688 1.1679688 A 1 1 0 0 0 11.064453 1.0019531 z M 15.564453 1.0019531 A 1 1 0 0 0 15.304688 1.0195312 A 1 1 0 0 0 14.667969 1.4453125 C 14.082631 2.3233185 13.845876 3.1682896 13.945312 3.9140625 C 14.044752 4.6598354 14.417969 5.1796883 14.667969 5.5546875 C 14.917969 5.9296867 15.044749 6.1598373 15.070312 6.3515625 C 15.095872 6.5432877 15.082632 6.8233215 14.667969 7.4453125 A 1 1 0 0 0 14.945312 8.8320312 A 1 1 0 0 0 16.332031 8.5546875 C 16.917369 7.6766815 17.154124 6.8317104 17.054688 6.0859375 C 16.955248 5.3401646 16.582031 4.8203117 16.332031 4.4453125 C 16.082031 4.0703133 15.95525 3.8401627 15.929688 3.6484375 C 15.904128 3.4567123 15.917369 3.1766785 16.332031 2.5546875 A 1 1 0 0 0 16.054688 1.1679688 A 1 1 0 0 0 15.564453 1.0019531 z M 4 5 C 2.3549936 5 1 6.3549936 1 8 L 1 18 C 1 19.645006 2.3549936 21 4 21 L 4 22 A 1 1 0 0 0 5 23 A 1 1 0 0 0 6 22 L 6 21 L 18 21 L 18 22 A 1 1 0 0 0 19 23 A 1 1 0 0 0 20 22 L 20 21 C 21.645006 21 23 19.645006 23 18 L 23 8 C 23 6.3549936 21.645006 5 20 5 A 1 1 0 0 0 19 6 A 1 1 0 0 0 20 7 C 20.564128 7 21 7.4358718 21 8 L 21 18 C 21 18.564128 20.564128 19 20 19 L 19 19 L 4 19 C 3.4358718 19 3 18.564128 3 18 L 3 8 C 3 7.4358718 3.4358718 7 4 7 L 7 7 A 1 1 0 0 0 8 6 A 1 1 0 0 0 7 5 L 4 5 z M 6 9 A 1 1 0 0 0 5 10 A 1 1 0 0 0 6 11 L 6.0097656 11 A 1 1 0 0 0 7.0097656 10 A 1 1 0 0 0 6.0097656 9 L 6 9 z M 10 11 A 1 1 0 0 0 9 12 L 9 16 A 1 1 0 0 0 10 17 A 1 1 0 0 0 11 16 L 11 12 A 1 1 0 0 0 10 11 z M 14 11 A 1 1 0 0 0 13 12 L 13 16 A 1 1 0 0 0 14 17 A 1 1 0 0 0 15 16 L 15 12 A 1 1 0 0 0 14 11 z M 18 11 A 1 1 0 0 0 17 12 L 17 16 A 1 1 0 0 0 18 17 A 1 1 0 0 0 19 16 L 19 12 A 1 1 0 0 0 18 11 z M 6 13 A 1 1 0 0 0 5 14 A 1 1 0 0 0 6 15 L 6.0097656 15 A 1 1 0 0 0 7.0097656 14 A 1 1 0 0 0 6.0097656 13 L 6 13 z "/>
</svg>
