<?xml version="1.0" encoding="UTF-8" standalone="no"?>
<svg
   width="24"
   height="24"
   viewBox="0 0 24 24"
   fill="none"
   stroke="currentColor"
   stroke-width="2"
   stroke-linecap="round"
   stroke-linejoin="round"
   version="1.1"
   id="svg2"
   xmlns="http://www.w3.org/2000/svg"
   xmlns:svg="http://www.w3.org/2000/svg">
  <defs
     id="defs2" />
  <path
     id="path1"
     style="color:#000000;fill:#000000;-inkscape-stroke:none"
     d="M 19.966797 5.7851562 C 19.245909 5.8037002 18.489512 6.1370595 17.927734 6.7597656 A 1.0001 1.0001 0 0 0 17.908203 6.78125 L 15.490234 9.6171875 C 15.380611 9.4036738 15.414325 9.1480008 15.248047 8.9609375 C 14.731441 8.3797568 13.916665 8 13 8 L 10.240234 8 A 1.0001 1.0001 0 0 0 10.238281 8 C 9.1782056 8.0009333 8.1612627 8.4237411 7.4121094 9.1738281 L 3 13.585938 L 2.7070312 13.292969 A 1 1 0 0 0 2 13 A 1 1 0 0 0 1.2929688 13.292969 A 1 1 0 0 0 1.2929688 14.707031 L 2.2929688 15.707031 L 6.2929688 19.707031 L 7.2929688 20.707031 A 1 1 0 0 0 8.7070312 20.707031 A 1 1 0 0 0 8.7070312 19.292969 L 8.4140625 19 L 9.1171875 18.296875 A 1.0001 1.0001 0 0 0 9.1191406 18.294922 C 9.3073189 18.10567 9.563163 17.999789 9.8300781 18 L 14.960938 18 A 1.0001 1.0001 0 0 0 14.966797 18 C 16.255663 17.991 17.463799 17.359666 18.207031 16.306641 L 22.400391 10.375 C 22.891403 9.6951012 23.058865 8.8864743 22.925781 8.1777344 C 22.792698 7.4689944 22.398944 6.8711013 21.876953 6.4492188 C 21.354963 6.0273363 20.687685 5.7666127 19.966797 5.7851562 z M 20.017578 7.7832031 C 20.210474 7.7782431 20.436173 7.8579812 20.619141 8.0058594 C 20.802107 8.1537372 20.925328 8.3572304 20.960938 8.546875 C 20.996547 8.7365196 20.983287 8.9226099 20.779297 9.2050781 A 1.0001 1.0001 0 0 0 20.773438 9.2128906 L 16.574219 15.152344 A 1.0001 1.0001 0 0 0 16.572266 15.154297 C 16.199833 15.681965 15.599035 15.995481 14.953125 16 L 9.8300781 16 C 9.0309063 15.999367 8.2645879 16.317986 7.7011719 16.884766 L 7 17.585938 L 4.4140625 15 L 8.8261719 10.587891 A 1.0001 1.0001 0 0 0 8.828125 10.585938 C 9.2031113 10.210534 9.709598 10.000467 10.240234 10 L 13 10 C 13.416666 10 13.601893 10.120245 13.751953 10.289062 C 13.902013 10.457879 14 10.722222 14 11 C 14 11.241088 13.90264 11.450069 13.785156 11.617188 L 13.738281 11.671875 A 1 1 0 0 0 13.722656 11.722656 C 13.575491 11.881121 13.400347 12 13 12 L 10.5 12 A 1 1 0 0 0 9.5 13 A 1 1 0 0 0 10.5 14 L 13 14 C 13.916665 14 14.731441 13.620243 15.248047 13.039062 C 15.272287 13.011793 15.260193 12.971279 15.283203 12.943359 L 19.412109 8.0996094 L 19.414062 8.0976562 C 19.646143 7.8415326 19.825427 7.7881459 20.017578 7.7832031 z "
     stroke-width="0" />
</svg>
