<?xml version="1.0" encoding="UTF-8" standalone="no"?>
<svg
   width="24"
   height="24"
   viewBox="0 0 24 24"
   fill="none"
   stroke="currentColor"
   stroke-width="2"
   stroke-linecap="round"
   stroke-linejoin="round"
   version="1.1"
   id="svg1"
   xmlns="http://www.w3.org/2000/svg"
   xmlns:svg="http://www.w3.org/2000/svg">
  <defs
     id="defs1" />
  <path
     id="path1"
     style="color:#000000;fill:#000000;-inkscape-stroke:none"
     d="M 12 1.0019531 C 11.483133 1.0019531 10.966338 1.1362682 10.503906 1.4023438 L 3.5039062 5.4023438 A 1.0001 1.0001 0 0 0 3.5 5.4042969 C 2.5741314 5.9388466 2.0010966 6.9289468 2 7.9980469 A 1.0001 1.0001 0 0 0 2 8 L 2 16 A 1.0001 1.0001 0 0 0 2 16.001953 C 2.0011 17.071053 2.5741314 18.061154 3.5 18.595703 A 1.0001 1.0001 0 0 0 3.5039062 18.597656 L 10.503906 22.597656 C 11.430046 23.130543 12.574464 23.130109 13.5 22.595703 L 20.496094 18.597656 A 1.0001 1.0001 0 0 0 20.5 18.595703 C 21.425869 18.061154 21.998903 17.071053 22 16.001953 A 1.0001 1.0001 0 0 0 22 16 L 22 8 A 1.0001 1.0001 0 0 0 22 7.9980469 C 21.9989 6.9289468 21.425869 5.9388466 20.5 5.4042969 A 1.0001 1.0001 0 0 0 20.496094 5.4023438 L 13.5 1.4042969 C 13.036593 1.1367489 12.518295 1.0019531 12 1.0019531 z M 12 3.0019531 C 12.172303 3.0019531 12.344606 3.0470017 12.5 3.1367188 A 1.0001 1.0001 0 0 0 12.503906 3.1386719 L 19.5 7.1367188 C 19.80994 7.3156623 19.998995 7.6422187 20 8 L 20 15.998047 C 19.999632 16.356541 19.810465 16.684034 19.5 16.863281 L 12.503906 20.861328 A 1.0001 1.0001 0 0 0 12.5 20.863281 C 12.189211 21.042715 11.810789 21.042715 11.5 20.863281 A 1.0001 1.0001 0 0 0 11.496094 20.861328 L 4.5 16.863281 C 4.1900603 16.684338 4.0010048 16.357782 4 16 L 4 8.0019531 L 4 8 C 4.001 7.6422187 4.1900603 7.3156623 4.5 7.1367188 L 11.496094 3.1386719 A 1.0001 1.0001 0 0 0 11.5 3.1367188 C 11.655394 3.0470017 11.827697 3.0019531 12 3.0019531 z "
     stroke-width="0" />
</svg>
