<?xml version="1.0" encoding="UTF-8" standalone="no"?>
<svg
   width="24"
   height="24"
   viewBox="0 0 24 24"
   fill="none"
   stroke="currentColor"
   stroke-width="2"
   stroke-linecap="round"
   stroke-linejoin="round"
   version="1.1"
   id="svg7"
   xmlns="http://www.w3.org/2000/svg"
   xmlns:svg="http://www.w3.org/2000/svg">
  <defs
     id="defs7" />
  <path
     id="path1"
     style="color:#000000;fill:#000000;-inkscape-stroke:none"
     d="M 2 1 A 1 1 0 0 0 1.2929688 1.2929688 A 1 1 0 0 0 1.2929688 2.7070312 L 3.4023438 4.8164062 C -0.0031245441 8.9360587 0.16942945 15.101132 4.3417969 18.751953 A 1.0001 1.0001 0 0 0 5.4785156 18.863281 C 6.9537951 20.212657 8.772939 21.474485 10.757812 21.970703 A 1.0001 1.0001 0 0 0 11.894531 21.427734 C 12.425407 21.740771 12.978706 22.034493 13.517578 22.283203 C 14.389131 22.685459 15.166669 23 16 23 A 1.0001 1.0001 0 0 0 16.949219 22.316406 C 16.998292 22.169186 17.039858 22.022564 17.074219 21.876953 C 18.708433 22.601683 20.200283 23 22 23 A 1 1 0 0 0 22.345703 22.931641 A 1 1 0 0 0 22.400391 22.912109 A 1 1 0 0 0 22.677734 22.726562 A 1 1 0 0 0 22.707031 22.707031 A 1 1 0 0 0 22.763672 22.640625 A 1 1 0 0 0 22.789062 22.611328 A 1 1 0 0 0 22.896484 22.441406 A 1 1 0 0 0 22.908203 22.410156 A 1 1 0 0 0 22.966797 22.246094 A 1 1 0 0 0 22.976562 22.203125 A 1 1 0 0 0 23 22 A 1 1 0 0 0 22.990234 21.867188 A 1 1 0 0 0 22.988281 21.84375 A 1 1 0 0 0 22.986328 21.835938 A 1 1 0 0 0 22.986328 21.833984 A 1 1 0 0 0 22.957031 21.712891 A 1 1 0 0 0 22.951172 21.691406 A 1 1 0 0 0 22.945312 21.675781 A 1 1 0 0 0 22.890625 21.546875 A 1 1 0 0 0 22.8125 21.417969 A 1 1 0 0 0 22.808594 21.412109 A 1 1 0 0 0 22.802734 21.404297 A 1 1 0 0 0 22.707031 21.292969 L 22.677734 21.263672 L 18.236328 16.822266 A 1 1 0 0 0 18.177734 16.763672 L 12.755859 11.34375 L 5.5039062 4.0898438 L 5.484375 4.0703125 L 2.7070312 1.2929688 A 1 1 0 0 0 2 1 z M 11.294922 1.0058594 C 11.112368 1.0075463 10.930417 1.0137686 10.748047 1.0253906 C 9.775406 1.0873751 8.8082645 1.2890672 7.8808594 1.6308594 A 1 1 0 0 0 7.2890625 2.9160156 A 1 1 0 0 0 8.5722656 3.5078125 C 11.158254 2.5547549 14.012773 3.0052033 16.21875 4.796875 C 15.873914 4.9626573 15.738075 5.0999806 15.285156 5.2324219 C 14.310585 5.5174036 13.180371 5.6801446 12.34375 5.6210938 A 1 1 0 0 0 11.277344 6.546875 A 1 1 0 0 0 12.203125 7.6152344 C 13.3925 7.6991833 14.685732 7.4921108 15.847656 7.1523438 C 16.34122 7.008017 16.802504 6.8496972 17.226562 6.6640625 C 18.150705 7.689285 18.940646 8.9027251 19.484375 10.09375 C 18.67091 10.18538 17.875691 10.330856 16.992188 10.232422 A 1 1 0 0 0 15.888672 11.115234 A 1 1 0 0 0 16.771484 12.220703 C 17.654818 12.319118 18.491275 12.320006 19.298828 12.253906 C 19.727344 12.917034 20.150983 13.673158 20.466797 14.357422 C 20.814541 15.110866 21 15.833334 21 16 A 1 1 0 0 0 22 17 A 1 1 0 0 0 23 16 C 23 15.166668 22.685459 14.389131 22.283203 13.517578 C 22.035437 12.980751 21.743345 12.429418 21.431641 11.900391 A 1.0001 1.0001 0 0 0 21.970703 10.757812 C 21.475633 8.777531 20.216943 6.9636904 18.871094 5.4902344 A 1.0001 1.0001 0 0 0 18.871094 5.4882812 A 1.0001 1.0001 0 0 0 18.751953 4.3417969 C 16.767999 2.0743066 14.033233 0.98055488 11.294922 1.0058594 z M 4.8242188 6.2382812 L 9.875 11.289062 C 8.8264806 11.290673 7.7034796 11.100496 7.0546875 10.667969 A 1.0001 1.0001 0 0 0 5.5292969 11.742188 C 5.7079625 12.45685 5.6276646 13.73934 5.3417969 14.882812 C 5.1965336 15.463865 5.0124747 15.670259 4.8085938 16.107422 C 2.50743 13.199724 2.496871 9.1823102 4.8242188 6.2382812 z M 7.5917969 12.851562 C 8.121525 13.008941 8.662517 13.118225 9.1992188 13.183594 C 10.253585 15.763394 10.32616 17.638043 10.109375 19.492188 C 8.9159788 18.950372 7.7001735 18.158329 6.671875 17.232422 C 6.9209806 16.670121 7.1151328 16.039469 7.2832031 15.367188 C 7.4890352 14.543858 7.5826974 13.691316 7.5917969 12.851562 z M 11.697266 13.111328 L 15.035156 16.449219 C 13.974385 16.370958 13.10076 16.168295 12.033203 15.646484 C 11.881535 14.864037 11.655382 14.043135 11.339844 13.173828 C 11.460956 13.155946 11.579998 13.135666 11.697266 13.111328 z M 12.283203 17.914062 C 13.107167 18.198723 13.901766 18.34495 14.738281 18.419922 C 14.977999 19.255793 15.100625 19.999225 15.09375 20.705078 C 14.815585 20.616558 14.695073 20.622638 14.357422 20.466797 C 13.670329 20.149677 12.911178 19.723287 12.246094 19.292969 C 12.28079 18.843343 12.294725 18.384782 12.283203 17.914062 z M 16.867188 18.498047 C 16.938385 18.498371 17.011626 18.497888 17.083984 18.498047 L 19.132812 20.546875 C 18.513699 20.340506 17.869585 20.05899 17.134766 19.697266 C 17.072523 19.286423 16.977254 18.885978 16.867188 18.498047 z "
     stroke-width="0" />
</svg>
