<?xml version="1.0" encoding="UTF-8" standalone="no"?>
<svg xmlns="http://www.w3.org/2000/svg" xmlns:svg="http://www.w3.org/2000/svg" width="24" height="24" viewBox="0 0 24 24" fill="currentColor" tags="picture,photo" categories="photography,multimedia,files">
  
  <path d="M 2 1 A 1 1 0 0 0 1.2929688 1.2929688 A 1 1 0 0 0 1.2929688 2.7070312 L 2.296875 3.7109375 C 2.1056263 4.1093541 2.0009617 4.5481103 2 4.9980469 A 1.0001 1.0001 0 0 0 2 5 L 2 19 C 2 20.645006 3.3549936 22 5 22 L 19 22 C 19.4562 22 19.895796 21.894506 20.291016 21.705078 L 21.292969 22.707031 A 1 1 0 0 0 22.707031 22.707031 A 1 1 0 0 0 22.707031 21.292969 L 2.7070312 1.2929688 A 1 1 0 0 0 2 1 z M 9 2 A 1 1 0 0 0 8 3 A 1 1 0 0 0 9 4 L 19 4 C 19.564128 4 20 4.4358718 20 5 L 20 12.585938 L 18.707031 11.292969 A 1 1 0 0 0 17.292969 11.292969 A 1 1 0 0 0 17.292969 12.707031 L 20.292969 15.707031 A 1 1 0 0 0 20.583984 15.902344 A 1 1 0 0 0 20.638672 15.927734 A 1 1 0 0 0 20.970703 15.994141 A 1 1 0 0 0 21 16 A 1 1 0 0 0 21.029297 15.994141 A 1 1 0 0 0 21.361328 15.927734 A 1 1 0 0 0 21.416016 15.902344 A 1 1 0 0 0 21.707031 15.707031 A 1 1 0 0 0 21.923828 15.382812 A 1 1 0 0 0 22 15 L 22 5 C 22 3.3549936 20.645006 2 19 2 L 9 2 z M 4 5.4140625 L 6.2773438 7.6914062 C 6.0400422 8.1598712 5.9347359 8.6639484 5.9628906 9.1425781 C 6.0085696 9.9191083 6.3621631 10.606303 6.8730469 11.117188 C 7.3839306 11.628071 8.071126 11.981665 8.8476562 12.027344 C 9.3262859 12.055499 9.830363 11.950192 10.298828 11.712891 L 12.085938 13.5 L 5.5859375 20 L 5 20 C 4.4358718 20 4 19.564128 4 19 L 4 5.4140625 z M 13.5 14.914062 L 18.585938 20 L 8.4140625 20 L 13.5 14.914062 z "/>
</svg>
