<?xml version="1.0" encoding="UTF-8" standalone="no"?>
<svg
   width="24"
   height="24"
   viewBox="0 0 24 24"
   fill="none"
   stroke="currentColor"
   stroke-width="2"
   stroke-linecap="round"
   stroke-linejoin="round"
   version="1.1"
   id="svg4"
   xmlns="http://www.w3.org/2000/svg"
   xmlns:svg="http://www.w3.org/2000/svg">
  <defs
     id="defs4" />
  <path
     id="circle1"
     style="color:#000000;fill:#000000;-inkscape-stroke:none"
     d="M 5 2 C 3.3549936 2 2 3.3549936 2 5 L 2 19 C 2 20.645006 3.3549936 22 5 22 L 10.300781 22 A 1 1 0 0 0 11.300781 21 A 1 1 0 0 0 10.300781 20 L 8.4140625 20 L 15.792969 12.621094 C 16.188845 12.225297 16.799423 12.221431 17.199219 12.613281 L 20 15.414062 L 20 15.800781 A 1 1 0 0 0 21 16.800781 A 1 1 0 0 0 22 15.800781 L 22 5 C 22 3.3549936 20.645006 2 19 2 L 5 2 z M 5 4 L 19 4 C 19.564128 4 20 4.4358718 20 5 L 20 12.585938 L 18.607422 11.193359 A 1.0001 1.0001 0 0 0 18.599609 11.185547 C 18.016306 10.613852 17.2494 10.330178 16.484375 10.333984 C 15.71935 10.337784 14.956493 10.629561 14.378906 11.207031 L 5.5859375 20 L 5 20 C 4.4358718 20 4 19.564128 4 19 L 4 5 C 4 4.4358718 4.4358718 4 5 4 z M 9 6 C 7.3549936 6 6 7.3549936 6 9 C 6 10.645006 7.3549936 12 9 12 C 10.645006 12 12 10.645006 12 9 C 12 7.3549936 10.645006 6 9 6 z M 9 8 C 9.5641282 8 10 8.4358718 10 9 C 10 9.5641282 9.5641282 10 9 10 C 8.4358718 10 8 9.5641282 8 9 C 8 8.4358718 8.4358718 8 9 8 z M 17 15.5 A 1 1 0 0 0 16 16.5 L 16 20.085938 L 14.707031 18.792969 A 1 1 0 0 0 13.292969 18.792969 A 1 1 0 0 0 13.292969 20.207031 L 16.292969 23.207031 A 1 1 0 0 0 16.484375 23.353516 A 1.0001 1.0001 0 0 0 16.558594 23.388672 A 1 1 0 0 0 16.716797 23.453125 A 1.0001 1.0001 0 0 0 16.791016 23.470703 A 1 1 0 0 0 16.957031 23.494141 A 1.0001 1.0001 0 0 0 17.042969 23.494141 A 1 1 0 0 0 17.208984 23.470703 A 1.0001 1.0001 0 0 0 17.283203 23.453125 A 1 1 0 0 0 17.441406 23.388672 A 1.0001 1.0001 0 0 0 17.515625 23.353516 A 1 1 0 0 0 17.707031 23.207031 L 20.707031 20.207031 A 1 1 0 0 0 20.707031 18.792969 A 1 1 0 0 0 19.292969 18.792969 L 18 20.085938 L 18 16.5 A 1 1 0 0 0 17 15.5 z "
     stroke-width="0" />
</svg>
