<?xml version="1.0" encoding="UTF-8" standalone="no"?>
<svg
   width="24"
   height="24"
   viewBox="0 0 24 24"
   fill="none"
   stroke="currentColor"
   stroke-width="2"
   stroke-linecap="round"
   stroke-linejoin="round"
   version="1.1"
   id="svg3"
   xmlns="http://www.w3.org/2000/svg"
   xmlns:svg="http://www.w3.org/2000/svg">
  <defs
     id="defs3" />
  <path
     id="line1"
     style="color:#000000;fill:#000000;-inkscape-stroke:none"
     d="M 10 3 A 1 1 0 0 0 9 4 A 1 1 0 0 0 10 5 L 13.558594 5 L 8.3085938 19 L 5 19 A 1 1 0 0 0 4 20 A 1 1 0 0 0 5 21 L 14 21 A 1 1 0 0 0 15 20 A 1 1 0 0 0 14 19 L 10.441406 19 L 15.691406 5 L 19 5 A 1 1 0 0 0 20 4 A 1 1 0 0 0 19 3 L 10 3 z "
     stroke-width="0" />
</svg>
