<?xml version="1.0" encoding="UTF-8" standalone="no"?>
<svg
   width="24"
   height="24"
   viewBox="0 0 24 24"
   fill="none"
   stroke="currentColor"
   stroke-width="2"
   stroke-linecap="round"
   stroke-linejoin="round"
   version="1.1"
   id="svg3"
   xmlns="http://www.w3.org/2000/svg"
   xmlns:svg="http://www.w3.org/2000/svg">
  <defs
     id="defs3" />
  <path
     id="rect1"
     style="color:#000000;fill:#000000;-inkscape-stroke:none"
     d="M 5 2 C 3.3553005 2 2 3.3553005 2 5 L 2 19 C 2 20.644699 3.3553005 22 5 22 L 19 22 C 20.644699 22 22 20.644699 22 19 L 22 5 C 22 3.3553005 20.644699 2 19 2 L 5 2 z M 5 4 L 19 4 C 19.571296 4 20 4.4287039 20 5 L 20 19 C 20 19.571296 19.571296 20 19 20 L 5 20 C 4.4287039 20 4 19.571296 4 19 L 4 5 C 4 4.4287039 4.4287039 4 5 4 z M 8 6 A 1 1 0 0 0 7 7 L 7 14 A 1 1 0 0 0 8 15 A 1 1 0 0 0 9 14 L 9 7 A 1 1 0 0 0 8 6 z M 12 6 A 1 1 0 0 0 11 7 L 11 11 A 1 1 0 0 0 12 12 A 1 1 0 0 0 13 11 L 13 7 A 1 1 0 0 0 12 6 z M 16 6 A 1 1 0 0 0 15 7 L 15 16 A 1 1 0 0 0 16 17 A 1 1 0 0 0 17 16 L 17 7 A 1 1 0 0 0 16 6 z "
     stroke-width="0" />
</svg>
