<?xml version="1.0" encoding="UTF-8" standalone="no"?>
<svg
   width="24"
   height="24"
   viewBox="0 0 24 24"
   fill="none"
   stroke="currentColor"
   stroke-width="2"
   stroke-linecap="round"
   stroke-linejoin="round"
   version="1.1"
   id="svg1"
   xmlns="http://www.w3.org/2000/svg"
   xmlns:svg="http://www.w3.org/2000/svg">
  <defs
     id="defs1" />
  <path
     id="path1"
     style="color:#000000;fill:#000000;-inkscape-stroke:none"
     d="M 15.560547 0.94140625 C 14.131298 0.94824072 12.733519 1.3690637 11.552734 2.109375 C 9.025772 3.6936933 7.4874698 6.8242386 8.34375 10.242188 L 1.2929688 17.292969 A 1.0001 1.0001 0 0 0 1 18 L 1 21 C 1 21.522221 1.1913296 22.05461 1.5683594 22.431641 C 1.9453891 22.80867 2.4777788 23 3 23 L 7 23 A 1.0001 1.0001 0 0 0 8 22 L 8 20 L 10 20 A 1.0001 1.0001 0 0 0 11 19 L 11 17 L 12 17 A 1.0001 1.0001 0 0 0 12.707031 16.707031 L 13.757812 15.65625 C 17.17576 16.51253 20.306307 14.974228 21.890625 12.447266 C 23.582765 9.7483283 23.599675 5.9199874 20.839844 3.1601562 C 19.459928 1.7802406 17.813462 1.0941186 16.173828 0.96484375 C 15.968874 0.9486844 15.764725 0.9404299 15.560547 0.94140625 z M 15.537109 2.90625 C 15.684591 2.9039382 15.832261 2.9072933 15.980469 2.9179688 C 17.166132 3.0033717 18.364891 3.5133283 19.425781 4.5742188 C 21.547562 6.6959998 21.460951 9.3692065 20.197266 11.384766 C 18.93358 13.400324 16.565179 14.644393 13.728516 13.65625 A 1.0001 1.0001 0 0 0 12.693359 13.892578 L 11.585938 15 L 10 15 A 1.0001 1.0001 0 0 0 9 16 L 9 18 L 7 18 A 1.0001 1.0001 0 0 0 6 19 L 6 21 L 3 21 L 3 18.414062 L 10.107422 11.306641 A 1.0001 1.0001 0 0 0 10.34375 10.271484 C 9.3556068 7.4348215 10.599676 5.06642 12.615234 3.8027344 C 13.497042 3.2498719 14.504741 2.9224325 15.537109 2.90625 z M 16.5 6 C 15.683419 6 15 6.6834191 15 7.5 C 15 8.3165809 15.683419 9 16.5 9 C 17.316581 9 18 8.3165809 18 7.5 C 18 6.6834191 17.316581 6 16.5 6 z M 16.5 7 C 16.764297 7 17 7.2357028 17 7.5 C 17 7.7642972 16.764297 8 16.5 8 C 16.235703 8 16 7.7642972 16 7.5 C 16 7.2357028 16.235703 7 16.5 7 z "
     stroke-width="0" />
</svg>
