<?xml version="1.0" encoding="UTF-8" standalone="no"?>
<svg xmlns="http://www.w3.org/2000/svg" xmlns:svg="http://www.w3.org/2000/svg" width="24" height="24" viewBox="0 0 24 24" fill="currentColor" tags="password,login,authentication,secure,unlock,keychain,key ring,fob" categories="security,account">
  
  <path d="M 20.84375 1.0117188 A 1 1 0 0 0 20.292969 1.2929688 L 18.292969 3.2929688 L 14.792969 6.7929688 L 11.330078 10.255859 C 10.254463 9.4674337 8.9296142 9 7.5 9 C 3.9220009 9 1 11.922001 1 15.5 C 1 19.077999 3.9220009 22 7.5 22 C 11.077999 22 14 19.077999 14 15.5 C 14 14.070386 13.532566 12.745537 12.744141 11.669922 L 15.5 8.9140625 L 17.792969 11.207031 A 1.0001 1.0001 0 0 0 19.207031 11.207031 L 22.707031 7.7070312 A 1.0001 1.0001 0 0 0 22.707031 6.2929688 L 20.414062 4 L 21.707031 2.7070312 A 1 1 0 0 0 21.707031 1.2929688 A 1 1 0 0 0 20.84375 1.0117188 z M 19 5.4140625 L 20.585938 7 L 18.5 9.0859375 L 16.914062 7.5 L 19 5.4140625 z M 7.5 11 C 9.997121 11 12 13.002878 12 15.5 C 12 17.997122 9.997121 20 7.5 20 C 5.002879 20 3 17.997122 3 15.5 C 3 13.002878 5.002879 11 7.5 11 z "/>
</svg>
