<?xml version="1.0" encoding="UTF-8" standalone="no"?>
<svg
   width="24"
   height="24"
   viewBox="0 0 24 24"
   fill="none"
   stroke="currentColor"
   stroke-width="2"
   stroke-linecap="round"
   stroke-linejoin="round"
   version="1.1"
   id="svg3"
   xmlns="http://www.w3.org/2000/svg"
   xmlns:svg="http://www.w3.org/2000/svg">
  <defs
     id="defs3" />
  <path
     id="path1"
     style="color:#000000;fill:#000000;-inkscape-stroke:none"
     d="M 8 1 A 1.0001 1.0001 0 0 0 7.0722656 1.6289062 L 3.0722656 11.628906 A 1.0001 1.0001 0 0 0 4 13 L 11 13 L 11 17 L 10 17 C 8.3545487 17 7 18.354549 7 20 L 7 22 A 1.0001 1.0001 0 0 0 8 23 L 16 23 A 1.0001 1.0001 0 0 0 17 22 L 17 20 C 17 18.354994 15.645006 17 14 17 L 13 17 L 13 13 L 20 13 A 1.0001 1.0001 0 0 0 20.927734 11.628906 L 16.927734 1.6289062 A 1.0001 1.0001 0 0 0 16 1 L 8 1 z M 8.6757812 3 L 15.322266 3 L 18.523438 11 L 5.4765625 11 L 8.6757812 3 z M 10 19 L 12 19 L 14 19 C 14.564128 19 15 19.435872 15 20 L 15 21 L 9 21 L 9 20 C 9 19.445456 9.4454557 19 10 19 z "
     stroke-width="0" />
</svg>
