<?xml version="1.0" encoding="UTF-8" standalone="no"?>
<svg xmlns="http://www.w3.org/2000/svg" xmlns:svg="http://www.w3.org/2000/svg" width="24" height="24" viewBox="0 0 24 24" fill="currentColor" tags="lighting,household,wall,home,furniture" categories="furniture">
  
  <path d="M 4 2 A 1.0001 1.0001 0 0 0 3 3 L 3 9 A 1.0001 1.0001 0 0 0 4 10 L 6 10 C 7.6450064 10 9 8.6450064 9 7 L 12 7 C 12.564128 7 13 7.4358718 13 8 L 13 12 L 11 12 A 1.0001 1.0001 0 0 0 10.080078 12.605469 L 7.0800781 19.605469 A 1.0001 1.0001 0 0 0 8 21 L 20 21 A 1.0001 1.0001 0 0 0 20.919922 19.605469 L 17.919922 12.605469 A 1.0001 1.0001 0 0 0 17 12 L 15 12 L 15 8 C 15 6.3549936 13.645006 5 12 5 L 9 5 C 9 3.3549936 7.6450064 2 6 2 L 4 2 z M 5 4 L 6 4 C 6.5641282 4 7 4.4358718 7 5 L 7 6 L 7 7 C 7 7.5641282 6.5641282 8 6 8 L 5 8 L 5 4 z M 11.660156 14 L 16.339844 14 L 18.482422 19 L 9.5175781 19 L 11.660156 14 z "/>
</svg>
