<?xml version="1.0" encoding="UTF-8" standalone="no"?>
<svg
   width="24"
   height="24"
   viewBox="0 0 24 24"
   fill="none"
   stroke="currentColor"
   stroke-width="2"
   stroke-linecap="round"
   stroke-linejoin="round"
   version="1.1"
   id="svg6"
   xmlns="http://www.w3.org/2000/svg"
   xmlns:svg="http://www.w3.org/2000/svg">
  <defs
     id="defs6" />
  <path
     id="path1"
     style="color:#000000;fill:#000000;-inkscape-stroke:none"
     d="M 7 1 A 1 1 0 0 0 6 2 A 1 1 0 0 0 7 3 L 8 3 A 1 1 0 0 0 9 2 A 1 1 0 0 0 8 1 L 7 1 z M 2 4 A 1 1 0 0 0 1 5 A 1 1 0 0 0 2 6 L 10.130859 6 L 9.2226562 7.3632812 L 7.5 9.0859375 L 5.7070312 7.2929688 A 1 1 0 0 0 5 7 A 1 1 0 0 0 4.2929688 7.2929688 A 1 1 0 0 0 4.2929688 8.7070312 L 6.0859375 10.5 L 3.2929688 13.292969 A 1 1 0 0 0 3.2929688 14.707031 A 1 1 0 0 0 4.7070312 14.707031 L 7.5 11.914062 L 10.292969 14.707031 A 1 1 0 0 0 11.707031 14.707031 A 1 1 0 0 0 11.707031 13.292969 L 8.9140625 10.5 L 10.707031 8.7070312 A 1.0001 1.0001 0 0 0 10.832031 8.5546875 L 12.535156 6 L 14 6 A 1 1 0 0 0 15 5 A 1 1 0 0 0 14 4 L 2 4 z M 17 11 A 1.0001 1.0001 0 0 0 16.105469 11.552734 L 13.099609 17.566406 L 11.105469 21.552734 A 1 1 0 0 0 11.552734 22.894531 A 1 1 0 0 0 12.894531 22.447266 L 14.617188 19 L 19.382812 19 L 21.105469 22.447266 A 1 1 0 0 0 22.447266 22.894531 A 1 1 0 0 0 22.894531 21.552734 L 20.916016 17.597656 A 1 1 0 0 0 20.878906 17.523438 L 17.894531 11.552734 A 1.0001 1.0001 0 0 0 17 11 z M 17 14.236328 L 18.382812 17 L 15.617188 17 L 17 14.236328 z "
     stroke-width="0" />
</svg>
