<?xml version="1.0" encoding="UTF-8" standalone="no"?>
<svg
   width="24"
   height="24"
   viewBox="0 0 24 24"
   fill="none"
   stroke="currentColor"
   stroke-width="2"
   stroke-linecap="round"
   stroke-linejoin="round"
   version="1.1"
   id="svg1"
   xmlns="http://www.w3.org/2000/svg"
   xmlns:svg="http://www.w3.org/2000/svg">
  <defs
     id="defs1" />
  <path
     id="rect1"
     style="color:#000000;fill:#000000;-inkscape-stroke:none"
     d="M 5 3 C 3.3553005 3 2 4.3553005 2 6 L 2 14 C 2 15.644699 3.3553005 17 5 17 L 19 17 C 20.644699 17 22 15.644699 22 14 L 22 6 C 22 4.3553005 20.644699 3 19 3 L 5 3 z M 5 5 L 19 5 C 19.571296 5 20 5.4287039 20 6 L 20 14 C 20 14.571296 19.571296 15 19 15 L 5 15 C 4.4287039 15 4 14.571296 4 14 L 4 6 C 4 5.4287039 4.4287039 5 5 5 z M 2 19 A 1 1 0 0 0 1 20 A 1 1 0 0 0 2 21 L 22 21 A 1 1 0 0 0 23 20 A 1 1 0 0 0 22 19 L 2 19 z "
     stroke-width="0" />
</svg>
