<?xml version="1.0" encoding="UTF-8" standalone="no"?>
<svg xmlns="http://www.w3.org/2000/svg" xmlns:svg="http://www.w3.org/2000/svg" width="24" height="24" viewBox="0 0 24 24" fill="currentColor" tags="computer,screen,remote" categories="devices">
  
  <path d="M 6 4 C 4.3549936 4 3 5.3549936 3 7 L 3 15.761719 L 1.8261719 18.101562 C 1.1742326 19.398628 2.1748652 21.010141 3.6269531 21 L 20.373047 21 C 21.825134 21.01014 22.825767 19.398628 22.173828 18.101562 L 22.173828 18.099609 L 21 15.761719 L 21 7 C 21 5.3549936 19.645006 4 18 4 L 6 4 z M 6 6 L 18 6 C 18.564128 6 19 6.4358718 19 7 L 19 15 L 5 15 L 5 7 C 5 6.4358718 5.4358718 6 6 6 z M 4.6171875 17 L 19.382812 17 L 20.386719 18.998047 A 1.0001 1.0001 0 0 0 20.386719 19 A 1.0001 1.0001 0 0 0 20.380859 19 L 3.6191406 19 A 1.0001 1.0001 0 0 0 3.6132812 19 A 1.0001 1.0001 0 0 0 3.6132812 18.998047 L 4.6171875 17 z "/>
</svg>
