<?xml version="1.0" encoding="UTF-8" standalone="no"?>
<svg
   width="24"
   height="24"
   viewBox="0 0 24 24"
   fill="none"
   stroke="currentColor"
   stroke-width="2"
   stroke-linecap="round"
   stroke-linejoin="round"
   version="1.1"
   id="svg3"
   xmlns="http://www.w3.org/2000/svg"
   xmlns:svg="http://www.w3.org/2000/svg">
  <defs
     id="defs3" />
  <path
     id="path1"
     style="color:#000000;fill:#000000;-inkscape-stroke:none"
     d="M 12 1 C 6.0636482 1 1 4.918192 1 10 C 0.99970694 11.594201 1.4915166 13.146575 2.4003906 14.453125 C 2.1277587 14.93188 2 15.469054 2 16 C 2 16.72222 2.2353482 17.457882 2.7519531 18.039062 C 3.0834015 18.411943 3.5374138 18.701374 4.0625 18.861328 C 4.2888018 20.419977 5.1225025 21.842365 6.4003906 22.800781 A 1 1 0 0 0 7.8007812 22.599609 A 1 1 0 0 0 7.5996094 21.199219 C 6.8121695 20.608639 6.2796615 19.757523 6.0839844 18.8125 C 6.5001022 18.662719 6.8665275 18.431381 7.1542969 18.140625 C 8.7003299 18.731786 10.347427 19.024218 12.005859 18.998047 C 17.939474 18.995256 23 15.079998 23 10 C 23 4.918192 17.936352 1 12 1 z M 12 3 C 17.063626 3 21 6.2818256 21 10 C 21 13.718174 17.063626 17 12 17 A 1.0001 1.0001 0 0 0 11.982422 17 C 10.616599 17.022805 9.2618599 16.788912 7.984375 16.316406 C 7.9945236 16.211053 8 16.105302 8 16 C 8 15.27778 7.7646518 14.542118 7.2480469 13.960938 C 6.731442 13.379756 5.9166647 13 5 13 C 4.6293776 13 4.2755092 13.063409 3.9511719 13.175781 C 3.3341404 12.233073 2.9997921 11.130768 3 10 C 3 6.2818256 6.9363738 3 12 3 z M 5 15 C 5.4166655 15 5.601893 15.120245 5.7519531 15.289062 C 5.9020133 15.457879 6 15.722222 6 16 C 6 16.277778 5.9020133 16.542121 5.7519531 16.710938 C 5.601893 16.879755 5.4166655 17 5 17 C 4.5833345 17 4.398107 16.879755 4.2480469 16.710938 C 4.0979867 16.542121 4 16.277778 4 16 C 4 15.722222 4.0979867 15.457879 4.2480469 15.289062 C 4.398107 15.120245 4.5833345 15 5 15 z "
     stroke-width="0" />
</svg>
