<?xml version="1.0" encoding="UTF-8" standalone="no"?>
<svg
   width="24"
   height="24"
   viewBox="0 0 24 24"
   fill="none"
   stroke="currentColor"
   stroke-width="2"
   stroke-linecap="round"
   stroke-linejoin="round"
   version="1.1"
   id="svg4"
   xmlns="http://www.w3.org/2000/svg"
   xmlns:svg="http://www.w3.org/2000/svg">
  <defs
     id="defs4" />
  <path
     id="rect1"
     style="color:#000000;fill:#000000;-inkscape-stroke:none"
     d="M 4 2 C 2.9092994 2 2 2.9092994 2 4 L 2 9 C 2 10.090701 2.9092994 11 4 11 L 9 11 C 10.090701 11 11 10.090701 11 9 L 11 4 C 11 2.9092994 10.090701 2 9 2 L 4 2 z M 15 2 C 13.909299 2 13 2.9092994 13 4 L 13 9 C 13 10.090701 13.909299 11 15 11 L 20 11 C 21.090701 11 22 10.090701 22 9 L 22 4 C 22 2.9092994 21.090701 2 20 2 L 15 2 z M 4 4 L 9 4 L 9 9 L 4 9 L 4 4 z M 15 4 L 20 4 L 20 9 L 15 9 L 15 4 z M 4 13 C 2.9092994 13 2 13.909299 2 15 L 2 20 C 2 21.090701 2.9092994 22 4 22 L 9 22 C 10.090701 22 11 21.090701 11 20 L 11 15 C 11 13.909299 10.090701 13 9 13 L 4 13 z M 15 13 C 13.909299 13 13 13.909299 13 15 L 13 20 C 13 21.090701 13.909299 22 15 22 L 20 22 C 21.090701 22 22 21.090701 22 20 L 22 15 C 22 13.909299 21.090701 13 20 13 L 15 13 z M 4 15 L 9 15 L 9 20 L 4 20 L 4 15 z M 15 15 L 20 15 L 20 20 L 15 20 L 15 15 z "
     stroke-width="0" />
</svg>
