<?xml version="1.0" encoding="UTF-8" standalone="no"?>
<svg xmlns="http://www.w3.org/2000/svg" xmlns:svg="http://www.w3.org/2000/svg" width="24" height="24" viewBox="0 0 24 24" fill="currentColor" tags="salad,lettuce,vegetable,chard,cabbage,bok choy" categories="food-beverage,emoji">
  
  <path d="M 18.341797 0.96875 C 17.532195 1.0115169 16.711404 1.3607635 15.953125 1.9042969 C 13.826775 0.48187219 10.999085 1.1421419 9.7167969 3.3515625 C 6.9505034 2.5760146 4.2020073 4.5925936 4.1621094 7.4882812 C 1.3129971 8.6714298 0.062187124 12.194842 1.8808594 14.835938 C 2.6770377 15.991097 3.3360947 17.069589 3.2089844 17.943359 C 2.9816812 19.289701 2.2545919 20.079687 1.21875 21.375 A 1 1 0 0 0 1.2207031 21.400391 A 1 1 0 0 0 1.1855469 22.544922 A 1 1 0 0 0 1.2148438 22.619141 A 1 1 0 0 0 1.2363281 22.621094 A 1 1 0 0 0 1.2929688 22.707031 A 1 1 0 0 0 1.3730469 22.759766 A 1 1 0 0 0 1.375 22.78125 A 1 1 0 0 0 1.453125 22.814453 A 1 1 0 0 0 2.59375 22.783203 A 1 1 0 0 0 2.6191406 22.785156 C 3.8933043 21.779077 4.7221438 21.010966 5.9765625 20.814453 C 7.1058681 20.833643 8.1914332 21.256326 9.0175781 22.029297 A 1.0001 1.0001 0 0 0 9.1269531 22.119141 C 11.775033 23.974158 15.333226 22.714205 16.511719 19.837891 C 19.407406 19.797991 21.423986 17.049496 20.648438 14.283203 C 22.857858 13.000915 23.518128 10.173225 22.095703 8.046875 C 22.716884 7.1802594 23.08537 6.2325365 23.03125 5.3125 C 22.963488 4.160554 22.432133 3.1196332 21.65625 2.34375 C 20.880367 1.5678668 19.839446 1.0365117 18.6875 0.96875 C 18.572495 0.961985 18.457454 0.96264045 18.341797 0.96875 z M 18.34375 2.9628906 C 18.419336 2.9600841 18.495166 2.9604233 18.570312 2.9648438 C 19.171488 3.0002067 19.780574 3.2961982 20.242188 3.7578125 C 20.703802 4.2194268 20.999793 4.8285124 21.035156 5.4296875 C 21.070516 6.0308626 20.89041 6.6447472 20.242188 7.2929688 A 1.0001 1.0001 0 0 0 20.25 8.7148438 C 21.624414 10.060944 21.100164 12.287485 19.269531 12.878906 A 1.0001 1.0001 0 0 0 18.697266 14.308594 C 19.729315 16.20899 18.191484 18.342442 16.0625 17.962891 A 1.0001 1.0001 0 0 0 14.914062 18.716797 C 14.418334 20.806832 12.049447 21.710108 10.287109 20.488281 C 9.2516848 19.556292 7.9525617 18.980121 6.5761719 18.837891 L 17.707031 7.7070312 A 1 1 0 0 0 17.707031 6.2929688 A 1 1 0 0 0 16.292969 6.2929688 L 5.2207031 17.365234 C 5.1113851 15.87625 4.1922538 14.663044 3.5292969 13.701172 C 2.3188598 11.943363 3.2154121 9.588985 5.2890625 9.0839844 A 1.0001 1.0001 0 0 0 6.0371094 7.9375 C 5.6575577 5.8085161 7.7910101 4.2706849 9.6914062 5.3027344 A 1.0001 1.0001 0 0 0 11.121094 4.7304688 C 11.712515 2.8998355 13.939057 2.3755863 15.285156 3.75 A 1.0001 1.0001 0 0 0 16.707031 3.7578125 C 17.274225 3.1906186 17.814647 2.9825364 18.34375 2.9628906 z "/>
</svg>
