<?xml version="1.0" encoding="UTF-8" standalone="no"?>
<svg
   width="24"
   height="24"
   viewBox="0 0 24 24"
   fill="none"
   stroke="currentColor"
   stroke-width="2"
   stroke-linecap="round"
   stroke-linejoin="round"
   version="1.1"
   id="svg2"
   xmlns="http://www.w3.org/2000/svg"
   xmlns:svg="http://www.w3.org/2000/svg">
  <defs
     id="defs2" />
  <path
     id="rect1"
     style="color:#000000;fill:#000000;-inkscape-stroke:none"
     d="M 4 2 C 2.9092994 2 2 2.9092994 2 4 L 2 20 C 2 21.090701 2.9092994 22 4 22 L 10 22 C 11.090701 22 12 21.090701 12 20 L 12 10.523438 L 15.660156 20.640625 A 1.0001 1.0001 0 0 0 15.671875 20.671875 C 16.07678 21.684136 17.195191 22.258643 18.271484 21.828125 L 20.146484 21.138672 A 1.0001 1.0001 0 0 0 20.171875 21.128906 C 21.184136 20.724002 21.758643 19.605591 21.328125 18.529297 L 15.839844 3.359375 A 1.0001 1.0001 0 0 0 15.828125 3.328125 C 15.423221 2.315864 14.304809 1.7413575 13.228516 2.171875 L 11.574219 2.78125 C 11.205783 2.3094097 10.63426 2 10 2 L 4 2 z M 4 4 L 6 4 L 6 20 L 4 20 L 4 4 z M 8 4 L 10 4 L 10 20 L 8 20 L 8 4 z M 13.970703 4.0292969 C 13.894403 4.0598148 13.975603 4.0845286 13.970703 4.0722656 L 19.458984 19.240234 A 1.0001 1.0001 0 0 0 19.470703 19.271484 C 19.440183 19.195184 19.415474 19.276384 19.427734 19.271484 L 17.554688 19.960938 A 1.0001 1.0001 0 0 0 17.529297 19.970703 C 17.605597 19.940183 17.524397 19.915474 17.529297 19.927734 L 12.041016 4.7597656 A 1.0001 1.0001 0 0 0 12.029297 4.7285156 C 12.059817 4.8048115 12.084526 4.7236056 12.072266 4.7285156 L 13.945312 4.0390625 A 1.0001 1.0001 0 0 0 13.970703 4.0292969 z "
     stroke-width="0" />
</svg>
