<?xml version="1.0" encoding="UTF-8" standalone="no"?>
<svg xmlns="http://www.w3.org/2000/svg" xmlns:svg="http://www.w3.org/2000/svg" width="24" height="24" viewBox="0 0 24 24" fill="currentColor" tags="lights" categories="photography">
  
  <path d="M 2 1 A 1 1 0 0 0 1.2929688 1.2929688 A 1 1 0 0 0 1.2929688 2.7070312 L 5.1582031 6.5722656 C 4.6138809 8.6056105 5.2410995 10.805226 6.828125 12.242188 C 7.4420569 12.862951 7.8775693 13.485502 8.0195312 14.195312 A 1 1 0 0 0 9.1953125 14.980469 A 1 1 0 0 0 9.9804688 13.804688 C 9.7251541 12.528119 8.9743732 11.56031 8.2070312 10.792969 A 1.0001 1.0001 0 0 0 8.171875 10.757812 C 7.4792435 10.130674 7.0718054 9.2854052 6.984375 8.3984375 L 21.292969 22.707031 A 1 1 0 0 0 22.707031 22.707031 A 1 1 0 0 0 22.707031 21.292969 L 7 5.5839844 A 1 1 0 0 0 6.984375 5.5703125 L 2.7070312 1.2929688 A 1 1 0 0 0 2 1 z M 11.785156 1.0214844 C 10.552956 1.0473868 9.3013374 1.4061 8.1503906 2.1640625 A 1 1 0 0 0 7.8652344 3.5507812 A 1 1 0 0 0 9.25 3.8359375 C 12.616837 1.6186883 16.992622 3.9706101 17 8.0019531 C 16.999574 8.9788518 16.693451 9.814351 16.052734 10.535156 A 1 1 0 0 0 16.134766 11.947266 A 1 1 0 0 0 17.546875 11.865234 C 18.505711 10.786543 19 9.4222194 19 8 A 1.0001 1.0001 0 0 0 19 7.9980469 C 18.992433 3.8637224 15.481756 0.94377673 11.785156 1.0214844 z M 9 17 A 1 1 0 0 0 8 18 A 1 1 0 0 0 9 19 L 15 19 A 1 1 0 0 0 16 18 A 1 1 0 0 0 15 17 L 9 17 z M 10 21 A 1 1 0 0 0 9 22 A 1 1 0 0 0 10 23 L 14 23 A 1 1 0 0 0 15 22 A 1 1 0 0 0 14 21 L 10 21 z "/>
</svg>
