<?xml version="1.0" encoding="UTF-8" standalone="no"?>
<svg xmlns="http://www.w3.org/2000/svg" xmlns:svg="http://www.w3.org/2000/svg" width="24" height="24" viewBox="0 0 24 24" fill="currentColor" tags="idea,bright,lights" categories="photography">
  
  <path d="M 12 1 C 8.1458602 1 5 4.1458573 5 8 C 5 9.1333311 5.3116623 10.725725 6.7929688 12.207031 C 7.425624 12.839687 7.8748463 13.471887 8.0195312 14.195312 A 1 1 0 0 0 9.1953125 14.980469 A 1 1 0 0 0 9.9804688 13.804688 C 9.7251544 12.528116 8.9743732 11.56031 8.2070312 10.792969 C 7.0883429 9.6742802 7 8.8666649 7 8 C 7 5.2267346 9.2267363 3 12 3 C 14.773263 3 17 5.2267346 17 8 C 17 9.0435877 16.597369 10.065298 15.830078 10.755859 A 1.0001 1.0001 0 0 0 15.792969 10.792969 C 14.934045 11.651892 14.264789 12.578402 14.019531 13.804688 A 1 1 0 0 0 14.804688 14.980469 A 1 1 0 0 0 15.980469 14.195312 C 16.132479 13.435262 16.456096 12.963022 17.169922 12.244141 L 17.181641 12.234375 C 18.406663 11.125482 19 9.551622 19 8 C 19 4.1458573 15.85414 1 12 1 z M 9 17 A 1 1 0 0 0 8 18 A 1 1 0 0 0 9 19 L 15 19 A 1 1 0 0 0 16 18 A 1 1 0 0 0 15 17 L 9 17 z M 10 21 A 1 1 0 0 0 9 22 A 1 1 0 0 0 10 23 L 14 23 A 1 1 0 0 0 15 22 A 1 1 0 0 0 14 21 L 10 21 z "/>
</svg>
