<?xml version="1.0" encoding="UTF-8" standalone="no"?>
<svg
   width="24"
   height="24"
   viewBox="0 0 24 24"
   fill="none"
   stroke="currentColor"
   stroke-width="2"
   stroke-linecap="round"
   stroke-linejoin="round"
   version="1.1"
   id="svg5"
   xmlns="http://www.w3.org/2000/svg"
   xmlns:svg="http://www.w3.org/2000/svg">
  <defs
     id="defs5" />
  <path
     id="path1"
     style="color:#000000;fill:#000000;-inkscape-stroke:none"
     d="M 15.888672 3.0058594 A 1 1 0 0 0 15.292969 3.2929688 L 13.292969 5.2929688 A 1.0001 1.0001 0 0 0 13.226562 5.3769531 A 1 1 0 0 0 13.177734 5.4394531 A 1.0001 1.0001 0 0 0 13.054688 5.6816406 A 1 1 0 0 0 13.042969 5.7304688 A 1.0001 1.0001 0 0 0 13.005859 5.9628906 A 1 1 0 0 0 13 6 A 1 1 0 0 0 13.005859 6.0371094 A 1.0001 1.0001 0 0 0 13.042969 6.2695312 A 1 1 0 0 0 13.054688 6.3183594 A 1.0001 1.0001 0 0 0 13.177734 6.5605469 A 1 1 0 0 0 13.226562 6.6230469 A 1.0001 1.0001 0 0 0 13.292969 6.7070312 L 15.292969 8.7070312 A 1 1 0 0 0 16.707031 8.7070312 A 1 1 0 0 0 16.707031 7.2929688 L 16.414062 7 L 19 7 C 19.564128 7 20 7.4358718 20 8 L 20 18 A 1 1 0 0 0 21 19 A 1 1 0 0 0 22 18 L 22 8 C 22 6.3549936 20.645006 5 19 5 L 16.414062 5 L 16.707031 4.7070312 A 1 1 0 0 0 16.707031 3.2929688 A 1 1 0 0 0 15.888672 3.0058594 z M 3 5 A 1 1 0 0 0 2 6 A 1 1 0 0 0 3 7 L 10 7 A 1 1 0 0 0 11 6 A 1 1 0 0 0 10 5 L 3 5 z M 3 11 A 1 1 0 0 0 2 12 A 1 1 0 0 0 3 13 L 16 13 A 1 1 0 0 0 17 12 A 1 1 0 0 0 16 11 L 3 11 z M 3 17 A 1 1 0 0 0 2 18 A 1 1 0 0 0 3 19 L 16 19 A 1 1 0 0 0 17 18 A 1 1 0 0 0 16 17 L 3 17 z "
     stroke-width="0" />
</svg>
