<?xml version="1.0" encoding="UTF-8" standalone="no"?>
<svg
   width="24"
   height="24"
   viewBox="0 0 24 24"
   fill="none"
   stroke="currentColor"
   stroke-width="2"
   stroke-linecap="round"
   stroke-linejoin="round"
   version="1.1"
   id="svg5"
   xmlns="http://www.w3.org/2000/svg"
   xmlns:svg="http://www.w3.org/2000/svg">
  <defs
     id="defs5" />
  <path
     id="path1"
     style="color:#000000;fill:#000000;-inkscape-stroke:none"
     d="M 3 5 A 1 1 0 0 0 2 6 A 1 1 0 0 0 3 7 L 16 7 A 1 1 0 0 0 17 6 A 1 1 0 0 0 16 5 L 3 5 z M 21 5 A 1 1 0 0 0 20 6 L 20 16 C 20 16.564128 19.564128 17 19 17 L 16.414062 17 L 16.707031 16.707031 A 1 1 0 0 0 16.707031 15.292969 A 1 1 0 0 0 15.292969 15.292969 L 13.292969 17.292969 A 1.0001 1.0001 0 0 0 13.226562 17.376953 A 1 1 0 0 0 13.177734 17.439453 A 1.0001 1.0001 0 0 0 13.054688 17.681641 A 1 1 0 0 0 13.042969 17.730469 A 1.0001 1.0001 0 0 0 13.005859 17.962891 A 1 1 0 0 0 13 18 A 1 1 0 0 0 13.005859 18.037109 A 1.0001 1.0001 0 0 0 13.042969 18.269531 A 1 1 0 0 0 13.054688 18.318359 A 1.0001 1.0001 0 0 0 13.177734 18.560547 A 1 1 0 0 0 13.226562 18.623047 A 1.0001 1.0001 0 0 0 13.292969 18.707031 L 15.292969 20.707031 A 1 1 0 0 0 16.707031 20.707031 A 1 1 0 0 0 16.707031 19.292969 L 16.414062 19 L 19 19 C 20.645006 19 22 17.645006 22 16 L 22 6 A 1 1 0 0 0 21 5 z M 3 11 A 1 1 0 0 0 2 12 A 1 1 0 0 0 3 13 L 16 13 A 1 1 0 0 0 17 12 A 1 1 0 0 0 16 11 L 3 11 z M 3 17 A 1 1 0 0 0 2 18 A 1 1 0 0 0 3 19 L 10 19 A 1 1 0 0 0 11 18 A 1 1 0 0 0 10 17 L 3 17 z "
     stroke-width="0" />
</svg>
