<?xml version="1.0" encoding="UTF-8" standalone="no"?>
<svg
   width="24"
   height="24"
   viewBox="0 0 24 24"
   fill="none"
   stroke="currentColor"
   stroke-width="2"
   stroke-linecap="round"
   stroke-linejoin="round"
   version="1.1"
   id="svg4"
   xmlns="http://www.w3.org/2000/svg"
   xmlns:svg="http://www.w3.org/2000/svg">
  <defs
     id="defs4" />
  <path
     id="path1"
     style="color:#000000;fill:#000000;-inkscape-stroke:none"
     d="M 3 5 A 1 1 0 0 0 2 6 A 1 1 0 0 0 3 7 L 16 7 A 1 1 0 0 0 17 6 A 1 1 0 0 0 16 5 L 3 5 z M 3 11 A 1 1 0 0 0 2 12 A 1 1 0 0 0 3 13 L 12 13 A 1 1 0 0 0 13 12 A 1 1 0 0 0 12 11 L 3 11 z M 16.011719 11.001953 A 1.0001 1.0001 0 0 0 15.507812 11.130859 A 1.0001 1.0001 0 0 0 15 12 L 15 18 A 1.0001 1.0001 0 0 0 16.513672 18.857422 L 21.513672 15.857422 A 1.0001 1.0001 0 0 0 21.513672 14.142578 L 16.513672 11.142578 A 1.0001 1.0001 0 0 0 16.011719 11.001953 z M 17 13.765625 L 19.056641 15 L 17 16.234375 L 17 13.765625 z M 3 17 A 1 1 0 0 0 2 18 A 1 1 0 0 0 3 19 L 12 19 A 1 1 0 0 0 13 18 A 1 1 0 0 0 12 17 L 3 17 z "
     stroke-width="0" />
</svg>
