<?xml version="1.0" encoding="UTF-8" standalone="no"?>
<svg xmlns="http://www.w3.org/2000/svg" xmlns:svg="http://www.w3.org/2000/svg" width="24" height="24" viewBox="0 0 24 24" fill="currentColor" tags="playlist,subtract,remove,delete,unqueue" categories="multimedia,text">
  
  <path d="M 3 5 A 1 1 0 0 0 2 6 A 1 1 0 0 0 3 7 L 16 7 A 1 1 0 0 0 17 6 A 1 1 0 0 0 16 5 L 3 5 z M 15 9 A 1 1 0 0 0 14.292969 9.2929688 A 1 1 0 0 0 14.292969 10.707031 L 15.585938 12 L 14.292969 13.292969 A 1 1 0 0 0 14.292969 14.707031 A 1 1 0 0 0 15.707031 14.707031 L 17 13.414062 L 18.292969 14.707031 A 1 1 0 0 0 19.707031 14.707031 A 1 1 0 0 0 19.707031 13.292969 L 18.414062 12 L 19.707031 10.707031 A 1 1 0 0 0 19.707031 9.2929688 A 1 1 0 0 0 18.292969 9.2929688 L 17 10.585938 L 15.707031 9.2929688 A 1 1 0 0 0 15 9 z M 3 11 A 1 1 0 0 0 2 12 A 1 1 0 0 0 3 13 L 11 13 A 1 1 0 0 0 12 12 A 1 1 0 0 0 11 11 L 3 11 z M 3 17 A 1 1 0 0 0 2 18 A 1 1 0 0 0 3 19 L 16 19 A 1 1 0 0 0 17 18 A 1 1 0 0 0 16 17 L 3 17 z "/>
</svg>
