<?xml version="1.0" encoding="UTF-8" standalone="no"?>
<svg xmlns="http://www.w3.org/2000/svg" xmlns:svg="http://www.w3.org/2000/svg" width="24" height="24" viewBox="0 0 24 24" fill="currentColor" tags="map,gps,location,cross" categories="navigation,maps">
  
  <path d="M 12 1 A 1 1 0 0 0 11 2 L 11 4.0644531 C 7.390987 4.5182245 4.5182245 7.390987 4.0644531 11 L 2 11 A 1 1 0 0 0 1 12 A 1 1 0 0 0 2 13 L 4.0644531 13 C 4.5182245 16.609013 7.390987 19.481776 11 19.935547 L 11 22 A 1 1 0 0 0 12 23 A 1 1 0 0 0 13 22 L 13 19.935547 C 16.609013 19.481776 19.481776 16.609013 19.935547 13 L 22 13 A 1 1 0 0 0 23 12 A 1 1 0 0 0 22 11 L 19.935547 11 C 19.481776 7.390987 16.609013 4.5182245 13 4.0644531 L 13 2 A 1 1 0 0 0 12 1 z M 12 6 C 15.325547 6 18 8.6744535 18 12 C 18 15.325547 15.325547 18 12 18 C 8.6744535 18 6 15.325547 6 12 C 6 8.6744535 8.6744535 6 12 6 z M 12 8 C 9.80271 8 8 9.80271 8 12 C 8 14.19729 9.80271 16 12 16 C 14.19729 16 16 14.19729 16 12 C 16 9.80271 14.19729 8 12 8 z M 12 10 C 13.116412 10 14 10.883588 14 12 C 14 13.116412 13.116412 14 12 14 C 10.883588 14 10 13.116412 10 12 C 10 10.883588 10.883588 10 12 10 z "/>
</svg>
