<?xml version="1.0" encoding="UTF-8" standalone="no"?>
<svg
   width="24"
   height="24"
   viewBox="0 0 24 24"
   fill="none"
   stroke="currentColor"
   stroke-width="2"
   stroke-linecap="round"
   stroke-linejoin="round"
   version="1.1"
   id="svg5"
   xmlns="http://www.w3.org/2000/svg"
   xmlns:svg="http://www.w3.org/2000/svg">
  <defs
     id="defs5" />
  <path
     id="line1"
     style="color:#000000;fill:#000000;-inkscape-stroke:none"
     d="M 2 1 A 1 1 0 0 0 1.2929688 1.2929688 A 1 1 0 0 0 1.2929688 2.7070312 L 5.7382812 7.1523438 C 4.8711965 8.2464408 4.2652672 9.5588656 4.0703125 11 L 2 11 A 1 1 0 0 0 1 12 A 1 1 0 0 0 2 13 L 4.0644531 13 C 4.5175859 16.61138 7.3886197 19.482414 11 19.935547 L 11 22 A 1 1 0 0 0 12 23 A 1 1 0 0 0 13 22 L 13 19.929688 C 14.441134 19.734733 15.753559 19.128804 16.847656 18.261719 L 21.292969 22.707031 A 1 1 0 0 0 22.707031 22.707031 A 1 1 0 0 0 22.707031 21.292969 L 17.597656 16.183594 L 7.8164062 6.4023438 L 2.7070312 1.2929688 A 1 1 0 0 0 2 1 z M 12 1 A 1 1 0 0 0 11 2 L 11 4.0644531 C 10.57548 4.1195262 10.158413 4.2094481 9.7519531 4.3320312 A 1 1 0 0 0 9.0820312 5.578125 A 1 1 0 0 0 10.328125 6.2480469 C 10.866142 6.0857877 11.429504 6 12 6 C 15.330803 6 18 8.669197 18 12 C 18 12.570496 17.91421 13.133858 17.751953 13.671875 A 1 1 0 0 0 18.421875 14.917969 A 1 1 0 0 0 19.667969 14.248047 C 19.790552 13.841587 19.880474 13.42452 19.935547 13 L 22 13 A 1 1 0 0 0 23 12 A 1 1 0 0 0 22 11 L 19.935547 11 C 19.482414 7.3886197 16.61138 4.5175859 13 4.0644531 L 13 2 A 1 1 0 0 0 12 1 z M 7.1621094 8.5761719 L 15.423828 16.837891 C 14.437196 17.566806 13.265803 18 12 18 C 8.669197 18 6 15.330803 6 12 C 6 10.734197 6.4331941 9.5628039 7.1621094 8.5761719 z "
     stroke-width="0" />
</svg>
