<?xml version="1.0" encoding="UTF-8" standalone="no"?>
<svg
   width="24"
   height="24"
   viewBox="0 0 24 24"
   fill="none"
   stroke="currentColor"
   stroke-width="2"
   stroke-linecap="round"
   stroke-linejoin="round"
   version="1.1"
   id="svg2"
   xmlns="http://www.w3.org/2000/svg"
   xmlns:svg="http://www.w3.org/2000/svg">
  <defs
     id="defs2" />
  <path
     id="circle1"
     style="color:#000000;fill:#000000;-inkscape-stroke:none"
     d="M 11 2 C 6.0412918 2 2 6.0412918 2 11 C 2 15.958708 6.0412918 20 11 20 C 13.120209 20 15.07075 19.258847 16.611328 18.025391 L 20.292969 21.707031 A 1 1 0 0 0 21.707031 21.707031 A 1 1 0 0 0 21.707031 20.292969 L 18.025391 16.611328 C 19.188854 15.158171 19.911885 13.340575 19.990234 11.359375 C 19.996304 11.240391 20 11.120442 20 11 C 20 6.0412918 15.958708 2 11 2 z M 11 4 C 14.87783 4 18 7.1221699 18 11 C 18 11.094328 17.995848 11.187851 17.992188 11.28125 C 17.847333 13.922002 15.678656 16 13 16 C 10.226737 16 8 13.773265 8 11 C 8 9.9166695 8.3702455 9.2314395 8.9140625 8.7480469 C 9.4578795 8.2646542 10.222224 8 11 8 C 11.777776 8 12.54212 8.2646542 13.085938 8.7480469 C 13.629754 9.2314395 14 9.9166695 14 11 C 14 11.416666 13.879754 11.601893 13.710938 11.751953 C 13.54212 11.902013 13.277778 12 13 12 C 12.722222 12 12.457879 11.902013 12.289062 11.751953 C 12.120245 11.601893 12 11.416666 12 11 A 1 1 0 0 0 11 10 A 1 1 0 0 0 10 11 C 10 11.916665 10.379756 12.731441 10.960938 13.248047 C 11.542118 13.764651 12.27778 14 13 14 C 13.72222 14 14.457881 13.764651 15.039062 13.248047 C 15.620243 12.731441 16 11.916665 16 11 C 16 9.4166703 15.370242 8.1018906 14.414062 7.2519531 C 13.457882 6.4020158 12.22222 6 11 6 C 9.7777803 6 8.5421175 6.4020158 7.5859375 7.2519531 C 6.6297575 8.1018906 6 9.4166703 6 11 C 6 14.51568 8.6188531 17.440879 12.003906 17.927734 C 11.675883 17.974504 11.341348 18 11 18 C 7.1221699 18 4 14.87783 4 11 C 4 7.1221699 7.1221699 4 11 4 z "
     stroke-width="0" />
</svg>
