<?xml version="1.0" encoding="UTF-8" standalone="no"?>
<svg
   width="24"
   height="24"
   viewBox="0 0 24 24"
   fill="none"
   stroke="currentColor"
   stroke-width="2"
   stroke-linecap="round"
   stroke-linejoin="round"
   version="1.1"
   id="svg4"
   xmlns="http://www.w3.org/2000/svg"
   xmlns:svg="http://www.w3.org/2000/svg">
  <defs
     id="defs4" />
  <path
     id="path1"
     style="color:#000000;fill:#000000;-inkscape-stroke:none"
     d="M 10 1 C 8.3549936 1 7 2.3549936 7 4 L 7 5 L 6 5 C 4.3549936 5 3 6.3549936 3 8 L 3 18 C 3 19.343622 3.9032346 20.492803 5.1308594 20.869141 C 5.5071875 22.096781 6.6563673 23 8 23 C 9.2953565 23 10.410479 22.160387 10.826172 21 L 13.173828 21 C 13.589521 22.160387 14.704644 23 16 23 C 17.343633 23 18.492813 22.096781 18.869141 20.869141 C 20.096765 20.492803 21 19.343622 21 18 L 21 8 C 21 6.3549936 19.645006 5 18 5 L 17 5 L 17 4 C 17 2.3549936 15.645006 1 14 1 L 10 1 z M 10 3 L 14 3 C 14.564128 3 15 3.4358718 15 4 L 15 5 L 9 5 L 9 4 C 9 3.4358718 9.4358718 3 10 3 z M 6 7 L 7 7 L 7 17.173828 C 6.2507497 17.442237 5.6372021 18.002877 5.2949219 18.714844 C 5.1124762 18.535021 5 18.284663 5 18 L 5 8 C 5 7.4358718 5.4358718 7 6 7 z M 9 7 L 15 7 L 15 17.173828 C 14.152831 17.477315 13.477315 18.152831 13.173828 19 L 10.826172 19 C 10.522685 18.152831 9.847169 17.477315 9 17.173828 L 9 7 z M 17 7 L 18 7 C 18.564128 7 19 7.4358718 19 8 L 19 18 C 19 18.284663 18.887524 18.535021 18.705078 18.714844 C 18.362798 18.002877 17.74925 17.442237 17 17.173828 L 17 7 z M 8 19 C 8.5641282 19 9 19.435872 9 20 C 9 20.564128 8.5641282 21 8 21 C 7.4358718 21 7 20.564128 7 20 C 7 19.435872 7.4358718 19 8 19 z M 16 19 C 16.564128 19 17 19.435872 17 20 C 17 20.564128 16.564128 21 16 21 C 15.435872 21 15 20.564128 15 20 C 15 19.435872 15.435872 19 16 19 z "
     stroke-width="0" />
</svg>
