<?xml version="1.0" encoding="UTF-8" standalone="no"?>
<svg
   width="24"
   height="24"
   viewBox="0 0 24 24"
   fill="none"
   stroke="currentColor"
   stroke-width="2"
   stroke-linecap="round"
   stroke-linejoin="round"
   version="1.1"
   id="svg3"
   xmlns="http://www.w3.org/2000/svg"
   xmlns:svg="http://www.w3.org/2000/svg">
  <defs
     id="defs3" />
  <path
     id="path1"
     style="color:#000000;fill:#000000;-inkscape-stroke:none"
     d="M 13.748047 1.1328125 C 11.837113 1.1752593 9.8436151 1.9069794 8.0820312 3.484375 A 1.0001 1.0001 0 0 0 8.0410156 3.5234375 L 1.2910156 10.292969 A 1.0001 1.0001 0 0 0 1.2929688 11.707031 L 5.2910156 15.705078 L 5.2929688 15.707031 A 1 1 0 0 0 6 16 A 1 1 0 0 0 6.2910156 15.878906 A 1 1 0 0 0 6.7050781 15.708984 L 6.7070312 15.707031 L 13.017578 9.4277344 C 13.623478 8.9767254 14.107325 9.1444347 14.496094 9.5332031 C 14.884322 9.9214321 15.052157 10.407001 14.603516 11.011719 L 11.373047 14.228516 A 1 1 0 0 0 11.292969 14.292969 A 1 1 0 0 0 11.242188 14.357422 L 8.2949219 17.291016 A 1.0001 1.0001 0 0 0 8.2929688 18.707031 L 12.292969 22.707031 A 1.0001 1.0001 0 0 0 13.708984 22.707031 L 16.671875 19.734375 A 1 1 0 0 0 16.707031 19.707031 A 1 1 0 0 0 16.775391 19.630859 L 20.458984 15.935547 A 1.0001 1.0001 0 0 0 20.494141 15.896484 C 22.296875 13.883289 22.997174 11.569755 22.824219 9.4199219 C 22.651263 7.2700893 21.643321 5.2995703 20.162109 3.8183594 C 18.680899 2.3371485 16.71038 1.3292055 14.560547 1.15625 C 14.291818 1.1346306 14.021037 1.1267487 13.748047 1.1328125 z M 13.789062 3.1308594 C 13.994202 3.1273703 14.19767 3.1340816 14.400391 3.1503906 C 16.024111 3.2810201 17.57497 4.0593455 18.748047 5.2324219 C 19.921123 6.4054982 20.699449 7.9563575 20.830078 9.5800781 C 20.960453 11.200635 20.480789 12.907559 19.011719 14.552734 L 15.994141 17.580078 L 13.423828 15.009766 L 16.095703 12.349609 A 1.0001 1.0001 0 0 0 16.183594 12.248047 C 17.230883 10.879446 16.900326 9.10931 15.910156 8.1191406 C 14.919987 7.1289712 13.151804 6.7984148 11.783203 7.8457031 A 1.0001 1.0001 0 0 0 11.683594 7.9316406 L 9.0078125 10.59375 L 6.4082031 7.9941406 L 9.4238281 4.9707031 C 10.86435 3.6830112 12.353083 3.1552828 13.789062 3.1308594 z M 4.9960938 9.4101562 L 7.5917969 12.005859 L 6.0019531 13.587891 L 3.4140625 10.998047 L 4.9960938 9.4101562 z M 12.005859 16.419922 L 14.582031 18.996094 L 12.998047 20.583984 L 10.416016 18.001953 L 12.005859 16.419922 z "
     stroke-width="0" />
</svg>
