<?xml version="1.0" encoding="UTF-8" standalone="no"?>
<svg
   width="24"
   height="24"
   viewBox="0 0 24 24"
   fill="none"
   stroke="currentColor"
   stroke-width="2"
   stroke-linecap="round"
   stroke-linejoin="round"
   version="1.1"
   id="svg4"
   xmlns="http://www.w3.org/2000/svg"
   xmlns:svg="http://www.w3.org/2000/svg">
  <defs
     id="defs4" />
  <path
     id="path1"
     style="color:#000000;fill:#000000;-inkscape-stroke:none"
     d="M 4 3 C 2.3549936 3 1 4.3549936 1 6 L 1 18 C 1 19.645451 2.3545487 21 4 21 L 16.5 21 A 1 1 0 0 0 17.5 20 A 1 1 0 0 0 16.5 19 L 4 19 C 3.4454557 19 3 18.554544 3 18 L 3 8.8203125 L 10.433594 13.544922 A 1.0001 1.0001 0 0 0 10.439453 13.546875 C 11.392232 14.143814 12.607768 14.143814 13.560547 13.546875 A 1.0001 1.0001 0 0 0 13.566406 13.544922 L 21 8.8203125 L 21 10.5 A 1 1 0 0 0 22 11.5 A 1 1 0 0 0 23 10.5 L 23 6 C 23 4.3549936 21.645006 3 20 3 L 4 3 z M 4 5 L 20 5 C 20.564128 5 21 5.4358718 21 6 L 21 6.4511719 L 12.498047 11.853516 C 12.191824 12.044436 11.808176 12.044436 11.501953 11.853516 L 3 6.4511719 L 3 6 C 3 5.4358718 3.4358718 5 4 5 z M 19.916016 13.001953 C 19.407418 13.009885 18.896782 13.145978 18.431641 13.408203 C 17.754444 13.758859 17.360922 14.321124 17.105469 14.832031 A 1 1 0 0 0 17.552734 16.173828 A 1 1 0 0 0 18.894531 15.726562 C 19.034903 15.44582 19.245799 15.224757 19.347656 15.173828 A 1.0001 1.0001 0 0 0 19.400391 15.146484 C 19.841795 14.891293 20.37709 14.987053 20.730469 15.349609 C 20.912471 15.605273 21 15.770665 21 15.980469 C 21 16.117648 20.818034 16.384448 20.441406 16.638672 C 20.06478 16.892895 19.669922 17.037109 19.669922 17.037109 A 1 1 0 0 0 19.056641 18.310547 A 1 1 0 0 0 20.330078 18.923828 C 20.330078 18.923828 20.935222 18.717651 21.558594 18.296875 C 22.181964 17.876099 23 17.143287 23 15.980469 C 23 15.213804 22.664781 14.565411 22.300781 14.080078 A 1.0001 1.0001 0 0 0 22.238281 14.003906 C 21.74904 13.469505 21.102274 13.141786 20.421875 13.037109 C 20.254405 13.011345 20.085548 12.999309 19.916016 13.001953 z M 20 21 A 1 1 0 0 0 19 22 L 19 22.009766 A 1 1 0 0 0 20 23.009766 A 1 1 0 0 0 21 22.009766 L 21 22 A 1 1 0 0 0 20 21 z "
     stroke-width="0" />
</svg>
