<?xml version="1.0" encoding="UTF-8" standalone="no"?>
<svg xmlns="http://www.w3.org/2000/svg" xmlns:svg="http://www.w3.org/2000/svg" width="24" height="24" viewBox="0 0 24 24" fill="currentColor" tags="emails,messages,letters,mailing list,newsletter" categories="mail">
  
  <path d="M 6.5 4 C 3.4666727 4 1 6.4666727 1 9.5 L 1 17 C 1 18.645006 2.3549936 20 4 20 L 20 20 C 21.645006 20 23 18.645006 23 17 L 23 9 C 23 6.2545509 20.745449 4 18 4 L 6.5 4 z M 6.5 6 C 8.4666627 6 10 7.5333373 10 9.5 L 10 17 C 10 17.564128 9.5641282 18 9 18 L 4 18 C 3.4358718 18 3 17.564128 3 17 L 3 9.5 C 3 7.5333373 4.5333373 6 6.5 6 z M 10.738281 6 L 18 6 C 19.654542 6 21 7.3454579 21 9 L 21 17 C 21 17.564128 20.564128 18 20 18 L 11.822266 18 C 11.934844 17.686319 12 17.350257 12 17 L 12 9.5 C 12 8.1709463 11.525544 6.9516659 10.738281 6 z M 15 8 A 1 1 0 0 0 14 9 A 1 1 0 0 0 15 10 L 17 10 L 17 11 A 1 1 0 0 0 18 12 A 1 1 0 0 0 19 11 L 19 9 A 1.0001 1.0001 0 0 0 18 8 L 15 8 z M 6 9 A 1 1 0 0 0 5 10 A 1 1 0 0 0 6 11 L 7 11 A 1 1 0 0 0 8 10 A 1 1 0 0 0 7 9 L 6 9 z "/>
</svg>
