<?xml version="1.0" encoding="UTF-8" standalone="no"?>
<svg xmlns="http://www.w3.org/2000/svg" xmlns:svg="http://www.w3.org/2000/svg" width="24" height="24" viewBox="0 0 24 24" fill="currentColor" tags="email,message,letter,remove,delete" categories="mail">
  
  <path d="M 4 3 C 2.3549936 3 1 4.3549936 1 6 L 1 18 C 1 19.645451 2.3545487 21 4 21 L 12 21 A 1 1 0 0 0 13 20 A 1 1 0 0 0 12 19 L 4 19 C 3.4454557 19 3 18.554544 3 18 L 3 8.8203125 L 10.433594 13.544922 A 1.0001 1.0001 0 0 0 10.439453 13.546875 C 11.392232 14.143814 12.607768 14.143814 13.560547 13.546875 A 1.0001 1.0001 0 0 0 13.566406 13.544922 L 21 8.8203125 L 21 15 A 1 1 0 0 0 22 16 A 1 1 0 0 0 23 15 L 23 6 C 23 4.3549936 21.645006 3 20 3 L 4 3 z M 4 5 L 20 5 C 20.564128 5 21 5.4358718 21 6 L 21 6.4511719 L 12.498047 11.853516 C 12.191824 12.044436 11.808176 12.044436 11.501953 11.853516 L 3 6.4511719 L 3 6 C 3 5.4358718 3.4358718 5 4 5 z M 16 18 A 1 1 0 0 0 15 19 A 1 1 0 0 0 16 20 L 22 20 A 1 1 0 0 0 23 19 A 1 1 0 0 0 22 18 L 16 18 z "/>
</svg>
