<?xml version="1.0" encoding="UTF-8" standalone="no"?>
<svg
   width="24"
   height="24"
   viewBox="0 0 24 24"
   fill="none"
   stroke="currentColor"
   stroke-width="2"
   stroke-linecap="round"
   stroke-linejoin="round"
   version="1.1"
   id="svg2"
   xmlns="http://www.w3.org/2000/svg"
   xmlns:svg="http://www.w3.org/2000/svg">
  <defs
     id="defs2" />
  <path
     id="path1"
     style="color:#000000;fill:#000000;-inkscape-stroke:none"
     d="M 12 1.0019531 C 11.365779 1.0019531 10.730773 1.2009435 10.199219 1.5996094 L 2.1992188 7.5996094 C 1.4445043 8.1656451 1 9.056607 1 10 L 1 20 C 1 21.645006 2.3549936 23 4 23 L 20 23 C 21.645006 23 23 21.645006 23 20 L 23 10.003906 A 1 1 0 0 0 23 10 C 23 9.0525415 22.548273 8.1686398 21.804688 7.6035156 A 1.0001 1.0001 0 0 0 21.800781 7.5996094 L 13.800781 1.5996094 C 13.269221 1.2009473 12.634221 1.0019531 12 1.0019531 z M 12 2.9980469 C 12.210027 2.9980469 12.420055 3.0645523 12.599609 3.1992188 L 20.595703 9.1972656 C 20.714928 9.2882075 20.808474 9.4029974 20.876953 9.5292969 L 12.498047 14.853516 C 12.191824 15.044436 11.808176 15.044436 11.501953 14.853516 L 3.1210938 9.5273438 C 3.1889923 9.4011004 3.2823091 9.2877799 3.4003906 9.1992188 L 11.400391 3.1992188 C 11.579945 3.0645523 11.789973 2.9980469 12 2.9980469 z M 3 11.820312 L 10.433594 16.544922 A 1.0001 1.0001 0 0 0 10.439453 16.546875 C 11.392232 17.143814 12.607768 17.143814 13.560547 16.546875 A 1.0001 1.0001 0 0 0 13.566406 16.544922 L 21 11.820312 L 21 20 C 21 20.564128 20.564128 21 20 21 L 4 21 C 3.4358718 21 3 20.564128 3 20 L 3 11.820312 z "
     stroke-width="0" />
</svg>
