<?xml version="1.0" encoding="UTF-8" standalone="no"?>
<svg xmlns="http://www.w3.org/2000/svg" xmlns:svg="http://www.w3.org/2000/svg" width="24" height="24" viewBox="0 0 24 24" fill="currentColor" tags="location,waypoint,marker,remove" categories="maps,navigation,travel">
  
  <path d="M 2 1 A 1 1 0 0 0 1.2929688 1.2929688 A 1 1 0 0 0 1.2929688 2.7070312 L 4.1621094 5.5761719 C 3.4057984 6.9225513 3.0025679 8.4444842 3 9.9980469 A 1.0001 1.0001 0 0 0 3 10 C 3 13.444438 5.1786482 16.581595 7.2519531 18.914062 C 9.3252582 21.246531 11.400391 22.800781 11.400391 22.800781 A 1.0001 1.0001 0 0 0 12.619141 22.785156 C 14.245366 21.504604 15.734994 20.063374 17.072266 18.486328 L 21.292969 22.707031 A 1 1 0 0 0 22.707031 22.707031 A 1 1 0 0 0 22.707031 21.292969 L 17.724609 16.310547 L 13.597656 12.185547 L 9.8496094 8.4355469 L 6.109375 4.6972656 L 2.7070312 1.2929688 A 1 1 0 0 0 2 1 z M 12 1 C 10.624721 0.99683671 9.2673367 1.3129429 8.0351562 1.9238281 A 1 1 0 0 0 7.5839844 3.2636719 A 1 1 0 0 0 8.9238281 3.7167969 C 9.8789804 3.2432555 10.931956 2.9973164 11.998047 3 A 1.0001 1.0001 0 0 0 12 3 C 15.874363 3 18.992472 6.1172226 18.998047 9.9902344 C 18.976607 11.0641 18.732033 12.123445 18.275391 13.095703 A 1 1 0 0 0 18.753906 14.425781 A 1 1 0 0 0 20.085938 13.945312 C 20.66359 12.715407 20.974656 11.378099 21 10.019531 A 1.0001 1.0001 0 0 0 21 10.017578 A 1.0001 1.0001 0 0 0 21 10.015625 A 1.0001 1.0001 0 0 0 21 10.013672 A 1.0001 1.0001 0 0 0 21 10.011719 A 1.0001 1.0001 0 0 0 21 10.009766 A 1.0001 1.0001 0 0 0 21 10.007812 A 1.0001 1.0001 0 0 0 21 10.005859 A 1.0001 1.0001 0 0 0 21 10.003906 A 1.0001 1.0001 0 0 0 21 10.001953 A 1.0001 1.0001 0 0 0 21 10 C 21 5.0419567 16.95975 1.0010835 12.001953 1 L 12 1 z M 12.808594 6.0917969 A 1 1 0 0 0 11.783203 6.8378906 A 1 1 0 0 0 12.498047 8.0585938 C 13.203903 8.2425377 13.750974 8.7913446 13.931641 9.4980469 A 1 1 0 0 0 15.148438 10.21875 A 1 1 0 0 0 15.869141 9.0019531 C 15.509106 7.5936278 14.408593 6.4896126 13.001953 6.1230469 A 1 1 0 0 0 12.808594 6.0917969 z M 5.6484375 7.0625 L 8.0371094 9.4511719 C 8.0115662 9.6337198 7.9983321 9.8187462 8 10.003906 C 8.002174 12.198066 9.8019337 13.997826 11.996094 14 C 12.181254 14.00167 12.36628 13.988435 12.548828 13.962891 L 15.650391 17.064453 C 14.54088 18.358743 13.287759 19.522626 11.978516 20.617188 C 11.499711 20.241799 10.3642 19.404111 8.7480469 17.585938 C 6.821828 15.418942 5.0008845 12.557032 5 10.001953 L 5 10 C 5.001966 8.9809012 5.2266003 7.9798653 5.6484375 7.0625 z "/>
</svg>
