<?xml version="1.0" encoding="UTF-8" standalone="no"?>
<svg xmlns="http://www.w3.org/2000/svg" xmlns:svg="http://www.w3.org/2000/svg" width="24" height="24" viewBox="0 0 24 24" fill="currentColor" tags="location,waypoint,marker,drop" categories="maps,navigation,travel,account">
  
  <path d="M 12 1 C 7.0412929 1 3 5.0412892 3 10 C 3 13.444438 5.1786482 16.581595 7.2519531 18.914062 C 9.3252582 21.246531 11.400391 22.800781 11.400391 22.800781 A 1.0001 1.0001 0 0 0 12.599609 22.800781 C 12.599609 22.800781 14.674742 21.246531 16.748047 18.914062 C 18.821352 16.581595 21 13.444438 21 10 C 21 5.0412892 16.958707 1 12 1 z M 12 3 C 15.877831 3 19 6.1221666 19 10 C 19 12.55555 17.17864 15.418415 15.251953 17.585938 C 13.625209 19.416026 12.466896 20.271227 12 20.636719 C 11.533104 20.271227 10.374791 19.416026 8.7480469 17.585938 C 6.8213598 15.418415 5 12.55555 5 10 C 5 6.1221666 8.122169 3 12 3 z M 12 6 C 9.80271 6 8 7.80271 8 10 C 8 12.19729 9.80271 14 12 14 C 14.19729 14 16 12.19729 16 10 C 16 7.80271 14.19729 6 12 6 z M 12 8 C 13.116412 8 14 8.8835881 14 10 C 14 11.116412 13.116412 12 12 12 C 10.883588 12 10 11.116412 10 10 C 10 8.8835881 10.883588 8 12 8 z "/>
</svg>
