<?xml version="1.0" encoding="UTF-8" standalone="no"?>
<svg
   width="24"
   height="24"
   viewBox="0 0 24 24"
   fill="none"
   stroke="currentColor"
   stroke-width="2"
   stroke-linecap="round"
   stroke-linejoin="round"
   version="1.1"
   id="svg2"
   xmlns="http://www.w3.org/2000/svg"
   xmlns:svg="http://www.w3.org/2000/svg">
  <defs
     id="defs2" />
  <path
     id="path1"
     style="color:#000000;fill:#000000;-inkscape-stroke:none"
     d="M 12 1 C 8.1458602 1 5 4.1458573 5 8 C 5 9.8436033 5.78681 11.543389 6.7871094 13 L 5 13 A 1.0001 1.0001 0 0 0 4.9453125 13.001953 C 4.1152984 13.047129 3.3946267 13.609001 3.1464844 14.402344 L 3.1503906 14.382812 L 1.1738281 20.3125 C 1.0312485 20.610067 1 20.92785 1 21 C 1 21.522221 1.1913296 22.05461 1.5683594 22.431641 C 1.9453891 22.80867 2.4777788 23 3 23 L 21 23 C 21.522221 23 22.05461 22.80867 22.431641 22.431641 C 22.80867 22.05461 23 21.522221 23 21 C 23 20.92785 22.96875 20.610068 22.826172 20.3125 L 20.849609 14.382812 L 20.853516 14.402344 C 20.60538 13.609002 19.884702 13.047176 19.054688 13.001953 A 1.0001 1.0001 0 0 0 19 13 L 17.212891 13 C 18.21319 11.543389 19 9.8436033 19 8 A 1 1 0 0 0 18.921875 7.6132812 C 18.70912 3.9477019 15.717119 1 12 1 z M 12 3 C 14.773263 3 17 5.2267346 17 8 C 17 9.805552 15.678642 11.918413 14.251953 13.523438 C 13.125224 14.791007 12.423772 15.29958 12 15.636719 C 11.576228 15.29958 10.874776 14.791007 9.7480469 13.523438 C 8.3213588 11.918413 7 9.805552 7 8 C 7 5.2267346 9.2267363 3 12 3 z M 12 5 C 10.354994 5 9 6.3549936 9 8 C 9 9.6450064 10.354994 11 12 11 C 13.645006 11 15 9.6450064 15 8 C 15 6.3549936 13.645006 5 12 5 z M 12 7 C 12.564128 7 13 7.4358718 13 8 C 13 8.5641282 12.564128 9 12 9 C 11.435872 9 11 8.5641282 11 8 C 11 7.4358718 11.435872 7 12 7 z M 5.0546875 15 L 8.3886719 15 C 9.9149076 16.684434 11.400391 17.800781 11.400391 17.800781 A 1.0001 1.0001 0 0 0 12.599609 17.800781 C 12.599609 17.800781 14.085092 16.684434 15.611328 15 L 18.945312 15 A 1.0001 1.0001 0 0 0 18.951172 15.015625 L 20.945312 21 L 3.0546875 21 L 5.0488281 15.015625 A 1.0001 1.0001 0 0 0 5.0546875 15 z "
     stroke-width="0" />
</svg>
