<?xml version="1.0" encoding="UTF-8" standalone="no"?>
<svg
   width="24"
   height="24"
   viewBox="0 0 24 24"
   fill="none"
   stroke="currentColor"
   stroke-width="2"
   stroke-linecap="round"
   stroke-linejoin="round"
   version="1.1"
   id="svg5"
   xmlns="http://www.w3.org/2000/svg"
   xmlns:svg="http://www.w3.org/2000/svg">
  <defs
     id="defs5" />
  <path
     id="path1"
     style="color:#000000;fill:#000000;-inkscape-stroke:none"
     d="M 6 1 C 5.5237554 1 5.0626415 1.1146265 4.6484375 1.3242188 A 1 1 0 0 0 4.6054688 1.3417969 A 1 1 0 0 0 4.5820312 1.3613281 C 4.2037914 1.564898 3.8661048 1.8468728 3.6015625 2.1992188 L 1.9902344 4.3378906 A 1.0001 1.0001 0 0 0 1.9902344 4.3398438 C 1.2720217 5.2993922 1.1947137 6.6031729 1.7949219 7.640625 L 6.2421875 15.324219 C 6.086284 15.856788 6 16.41855 6 17 C 6 20.301858 8.6981427 23 12 23 C 15.301858 23 18 20.301858 18 17 C 18 16.41855 17.913716 15.856788 17.757812 15.324219 L 22.205078 7.640625 A 1.0001 1.0001 0 0 0 22.207031 7.6367188 C 22.802136 6.5976346 22.720445 5.2979299 22 4.3417969 L 21.998047 4.3398438 L 20.400391 2.2011719 A 1.0001 1.0001 0 0 0 20.400391 2.1992188 C 20.142702 1.8556025 19.815912 1.5792871 19.449219 1.3769531 A 1 1 0 0 0 19.394531 1.3417969 A 1 1 0 0 0 19.359375 1.3261719 C 18.943367 1.1149224 18.478574 1 18 1 L 6 1 z M 6.765625 3 L 17.234375 3 L 15.433594 6 L 8.5664062 6 L 6.765625 3 z M 4.90625 3.7890625 L 9.5507812 11.527344 C 8.6882272 11.916136 7.9316464 12.502007 7.3417969 13.228516 L 3.5253906 6.6386719 C 3.3238485 6.2903089 3.3494416 5.8635907 3.5898438 5.5410156 L 3.5898438 5.5390625 L 4.90625 3.7890625 z M 19.091797 3.7910156 L 20.398438 5.5390625 A 1.0001 1.0001 0 0 0 20.402344 5.5429688 C 20.645539 5.8647109 20.673108 6.2926041 20.472656 6.6425781 L 16.658203 13.228516 C 16.068354 12.502007 15.311773 11.916136 14.449219 11.527344 L 19.091797 3.7910156 z M 9.765625 8 L 14.234375 8 L 12.423828 11.017578 C 12.283763 11.007698 12.142481 11 12 11 C 11.857519 11 11.716237 11.007698 11.576172 11.017578 L 9.765625 8 z M 12 13 C 14.220979 13 16 14.779021 16 17 C 16 19.220979 14.220979 21 12 21 C 9.7790208 21 8 19.220979 8 17 C 8 14.779021 9.7790208 13 12 13 z M 11.5 15 A 1 1 0 0 0 10.5 16 A 1 1 0 0 0 11 16.792969 L 11 18 A 1 1 0 0 0 12 19 A 1 1 0 0 0 13 18 L 13 16 A 1.0001 1.0001 0 0 0 12 15 L 11.5 15 z "
     stroke-width="0" />
</svg>
