<?xml version="1.0" encoding="UTF-8" standalone="no"?>
<svg
   width="24"
   height="24"
   viewBox="0 0 24 24"
   fill="none"
   stroke="currentColor"
   stroke-width="2"
   stroke-linecap="round"
   stroke-linejoin="round"
   version="1.1"
   id="svg2"
   xmlns="http://www.w3.org/2000/svg"
   xmlns:svg="http://www.w3.org/2000/svg">
  <defs
     id="defs2" />
  <path
     id="path1"
     style="color:#000000;fill:#000000;-inkscape-stroke:none"
     d="M 21.097656 5.0058594 A 1.0001 1.0001 0 0 0 20.732422 5.0371094 L 2.7324219 10.037109 A 1.0001 1.0001 0 0 0 2 11 L 2 14 A 1.0001 1.0001 0 0 0 2.7832031 14.976562 L 4.7324219 15.410156 C 4.5638853 16.443857 4.7812285 17.41746 5.2675781 18.167969 C 5.8280141 19.032803 6.6955471 19.604187 7.6347656 19.863281 C 8.5739843 20.122376 9.6105797 20.078222 10.535156 19.623047 C 11.439497 19.177833 12.196522 18.312266 12.541016 17.144531 L 20.783203 18.976562 A 1.0001 1.0001 0 0 0 22 18 L 22 6 A 1.0001 1.0001 0 0 0 21.097656 5.0058594 z M 20 7.3144531 L 20 16.753906 L 4 13.197266 L 4 11.759766 L 20 7.3144531 z M 6.6855469 15.84375 L 10.582031 16.708984 C 10.375369 17.317221 10.04542 17.63461 9.6523438 17.828125 C 9.2227567 18.039614 8.6767941 18.076451 8.1660156 17.935547 C 7.6552371 17.794642 7.2057084 17.483861 6.9453125 17.082031 C 6.7326929 16.753928 6.6134345 16.369163 6.6855469 15.84375 z "
     stroke-width="0" />
</svg>
