<?xml version="1.0" encoding="UTF-8" standalone="no"?>
<svg
   width="24"
   height="24"
   viewBox="0 0 24 24"
   fill="none"
   stroke="currentColor"
   stroke-width="2"
   stroke-linecap="round"
   stroke-linejoin="round"
   version="1.1"
   id="svg3"
   xmlns="http://www.w3.org/2000/svg"
   xmlns:svg="http://www.w3.org/2000/svg">
  <defs
     id="defs3" />
  <path
     id="path1"
     style="color:#000000;fill:#000000;-inkscape-stroke:none"
     d="M 5 2 C 3.3549936 2 2 3.3549936 2 5 L 2 21 A 1.0001 1.0001 0 0 0 3.7070312 21.707031 L 7.4140625 18 L 19 18 C 20.645006 18 22 16.645006 22 15 L 22 5 C 22 3.3549936 20.645006 2 19 2 L 5 2 z M 5 4 L 19 4 C 19.564128 4 20 4.4358718 20 5 L 20 15 C 20 15.564128 19.564128 16 19 16 L 7 16 A 1.0001 1.0001 0 0 0 6.2929688 16.292969 L 4 18.585938 L 4 5 C 4 4.4358718 4.4358718 4 5 4 z M 10 7 A 1 1 0 0 0 9.2929688 7.2929688 L 7.2929688 9.2929688 A 1.0001 1.0001 0 0 0 7.2929688 10.707031 L 9.2929688 12.707031 A 1 1 0 0 0 10.707031 12.707031 A 1 1 0 0 0 10.707031 11.292969 L 9.4140625 10 L 10.707031 8.7070312 A 1 1 0 0 0 10.707031 7.2929688 A 1 1 0 0 0 10 7 z M 14 7 A 1 1 0 0 0 13.292969 7.2929688 A 1 1 0 0 0 13.292969 8.7070312 L 14.585938 10 L 13.292969 11.292969 A 1 1 0 0 0 13.292969 12.707031 A 1 1 0 0 0 14.707031 12.707031 L 16.707031 10.707031 A 1.0001 1.0001 0 0 0 16.707031 9.2929688 L 14.707031 7.2929688 A 1 1 0 0 0 14 7 z "
     stroke-width="0" />
</svg>
