<?xml version="1.0" encoding="UTF-8" standalone="no"?>
<svg xmlns="http://www.w3.org/2000/svg" xmlns:svg="http://www.w3.org/2000/svg" width="24" height="24" viewBox="0 0 24 24" fill="currentColor" tags="comment,chat,conversation,dialog,feedback,speech bubble,clear,close,delete,remove,cancel,silence,mute,moderate" categories="account,social">
  
  <path d="M 2 1 A 1 1 0 0 0 1.2929688 1.2929688 A 1 1 0 0 0 1.2929688 2.7070312 L 4.234375 5.6484375 C 1.9845743 8.5056598 1.3931174 12.488594 2.9550781 15.970703 L 1.0507812 21.683594 A 1.0001 1.0001 0 0 0 2.3164062 22.949219 L 8.0234375 21.046875 C 11.422128 22.61115 15.414903 22.087439 18.273438 19.6875 L 21.292969 22.707031 A 1 1 0 0 0 22.707031 22.707031 A 1 1 0 0 0 22.707031 21.292969 L 18.994141 17.580078 L 6.2929688 4.8789062 L 2.7070312 1.2929688 A 1 1 0 0 0 2 1 z M 11.664062 2.0273438 C 10.719859 2.0571745 9.7530271 2.2258003 8.78125 2.5527344 A 1 1 0 0 0 8.1523438 3.8183594 A 1 1 0 0 0 9.4179688 4.4472656 C 15.746048 2.3183159 21.681684 8.253953 19.552734 14.582031 A 1 1 0 0 0 20.181641 15.847656 A 1 1 0 0 0 21.447266 15.21875 C 23.735804 8.4163104 18.27348 1.8185279 11.664062 2.0273438 z M 5.6621094 7.0761719 L 16.849609 18.263672 C 14.471082 20.183367 11.184159 20.554757 8.46875 19.117188 A 1.0001 1.0001 0 0 0 7.6835938 19.050781 L 3.5820312 20.417969 L 4.9492188 16.316406 A 1.0001 1.0001 0 0 0 4.8886719 15.542969 C 3.4567452 12.758667 3.8894279 9.4592715 5.6621094 7.0761719 z "/>
</svg>
