<?xml version="1.0" encoding="UTF-8" standalone="no"?>
<svg xmlns="http://www.w3.org/2000/svg" xmlns:svg="http://www.w3.org/2000/svg" width="24" height="24" viewBox="0 0 24 24" fill="currentColor" tags="unread,unresolved,comment,chat,conversation,dialog,feedback,speech bubble" categories="account,social,notifications">
  
  <path d="M 5 2 C 3.3549936 2 2 3.3549936 2 5 L 2 21 A 1.0001 1.0001 0 0 0 3.7070312 21.707031 L 7.4140625 18 L 19 18 C 20.645006 18 22 16.645006 22 15 L 22 12.300781 A 1 1 0 0 0 21 11.300781 A 1 1 0 0 0 20 12.300781 L 20 15 C 20 15.564128 19.564128 16 19 16 L 7 16 A 1.0001 1.0001 0 0 0 6.2929688 16.292969 L 4 18.585938 L 4 5 C 4 4.4358718 4.4358718 4 5 4 L 11.699219 4 A 1 1 0 0 0 12.699219 3 A 1 1 0 0 0 11.699219 2 L 5 2 z M 18 2 C 15.80271 2 14 3.80271 14 6 C 14 8.19729 15.80271 10 18 10 C 20.19729 10 22 8.19729 22 6 C 22 3.80271 20.19729 2 18 2 z M 18 4 C 19.116412 4 20 4.8835881 20 6 C 20 7.1164119 19.116412 8 18 8 C 16.883588 8 16 7.1164119 16 6 C 16 4.8835881 16.883588 4 18 4 z "/>
</svg>
