<?xml version="1.0" encoding="UTF-8" standalone="no"?>
<svg
   width="24"
   height="24"
   viewBox="0 0 24 24"
   fill="none"
   stroke="currentColor"
   stroke-width="2"
   stroke-linecap="round"
   stroke-linejoin="round"
   version="1.1"
   id="svg2"
   xmlns="http://www.w3.org/2000/svg"
   xmlns:svg="http://www.w3.org/2000/svg">
  <defs
     id="defs2" />
  <path
     id="path1"
     style="color:#000000;fill:#000000;-inkscape-stroke:none"
     d="M 12.037109 1.9433594 C 9.8935966 1.9570672 7.8112693 2.678972 6.1191406 3.9101562 C 2.6308704 6.4482038 0.77778415 11.237373 2.9589844 16.056641 L 1.0527344 21.679688 A 1.0001 1.0001 0 0 0 2.3203125 22.947266 L 7.9433594 21.041016 C 12.762626 23.222215 17.551796 21.36913 20.089844 17.880859 C 22.71637 14.270985 23.032465 8.8801212 19.076172 4.9238281 C 17.098025 2.9456816 14.760313 2.0363998 12.466797 1.9492188 C 12.323452 1.9437699 12.18001 1.9424455 12.037109 1.9433594 z M 12.003906 3.8925781 C 12.116812 3.8909462 12.230434 3.8928684 12.34375 3.8964844 C 14.156807 3.9543393 16.015356 4.6911369 17.662109 6.3378906 C 20.955617 9.6313983 20.607813 13.770538 18.472656 16.705078 C 16.3375 19.639618 12.509776 21.240442 8.3554688 19.109375 A 1.0001 1.0001 0 0 0 7.578125 19.052734 L 3.5976562 20.402344 L 4.9472656 16.421875 A 1.0001 1.0001 0 0 0 4.890625 15.644531 C 2.7595585 11.490224 4.3603814 7.6625004 7.2949219 5.5273438 C 8.6704876 4.5264892 10.310327 3.9170563 12.003906 3.8925781 z M 9.7890625 7.4609375 C 9.7410061 7.4618082 9.6923704 7.4648973 9.6445312 7.46875 C 8.7087186 7.5441157 7.8973144 8.0164002 7.3164062 8.6699219 C 6.7354982 9.3234434 6.3616143 10.184852 6.3964844 11.123047 C 6.4304842 12.037831 6.9089106 12.98642 7.7929688 13.658203 L 11.353516 17.117188 A 1.0001 1.0001 0 0 0 12.748047 17.117188 L 16.347656 13.617188 A 1.0001 1.0001 0 0 0 16.357422 13.607422 C 17.871654 12.093193 17.801743 9.8734638 16.59375 8.53125 A 1 1 0 0 0 16.5 8.4863281 C 15.238086 7.2494057 13.268621 7.2147881 11.908203 8.2851562 C 11.251013 7.7666786 10.509909 7.4478763 9.7890625 7.4609375 z M 9.9335938 9.4570312 C 10.232629 9.4603055 10.54004 9.5715692 10.916016 9.9785156 A 1.0001 1.0001 0 0 0 11 10.058594 L 11.349609 10.359375 A 1.0001 1.0001 0 0 0 12.800781 10.199219 L 13.021484 9.90625 C 13.61318 9.3440994 14.514342 9.3403876 15.099609 9.9140625 A 1 1 0 0 0 15.126953 9.9140625 C 15.687514 10.563132 15.81062 11.326099 14.943359 12.193359 L 12.050781 15.005859 L 9.1464844 12.183594 A 1.0001 1.0001 0 0 0 9.0371094 12.091797 C 8.524858 11.719603 8.4072288 11.390465 8.3945312 11.048828 C 8.3818336 10.707191 8.5334229 10.309812 8.8105469 9.9980469 C 9.0876709 9.6862823 9.4658711 9.4883814 9.8066406 9.4609375 C 9.8492369 9.457507 9.8908745 9.4565635 9.9335938 9.4570312 z "
     stroke-width="0" />
</svg>
