<?xml version="1.0" encoding="UTF-8" standalone="no"?>
<svg xmlns="http://www.w3.org/2000/svg" xmlns:svg="http://www.w3.org/2000/svg" width="24" height="24" viewBox="0 0 24 24" fill="currentColor" tags="comment,chat,conversation,dialog,feedback,speech bubble,blockquote,quotation,indent,reply,response" categories="account,social,text">
  
  <path d="M 5 2 C 3.3549936 2 2 3.3549936 2 5 L 2 21 A 1.0001 1.0001 0 0 0 3.7070312 21.707031 L 7.4140625 18 L 19 18 C 20.645006 18 22 16.645006 22 15 L 22 5 C 22 3.3549936 20.645006 2 19 2 L 5 2 z M 5 4 L 19 4 C 19.564128 4 20 4.4358718 20 5 L 20 15 C 20 15.564128 19.564128 16 19 16 L 7 16 A 1.0001 1.0001 0 0 0 6.2929688 16.292969 L 4 18.585938 L 4 5 C 4 4.4358718 4.4358718 4 5 4 z M 8 7 A 1 1 0 0 0 7 8 A 1 1 0 0 0 8 9 L 9 9 L 9 10 C 9 10.564128 8.5641282 11 8 11 A 1 1 0 0 0 7 12 A 1 1 0 0 0 8 13 C 9.6450064 13 11 11.645006 11 10 L 11 8 A 1.0001 1.0001 0 0 0 10 7 L 8 7 z M 14 7 A 1 1 0 0 0 13 8 A 1 1 0 0 0 14 9 L 15 9 L 15 10 C 15 10.564128 14.564128 11 14 11 A 1 1 0 0 0 13 12 A 1 1 0 0 0 14 13 C 15.645006 13 17 11.645006 17 10 L 17 8 A 1.0001 1.0001 0 0 0 16 7 L 14 7 z "/>
</svg>
