<?xml version="1.0" encoding="UTF-8" standalone="no"?>
<svg xmlns="http://www.w3.org/2000/svg" xmlns:svg="http://www.w3.org/2000/svg" width="24" height="24" viewBox="0 0 24 24" fill="currentColor" tags="comment,chat,conversation,dialog,feedback,speech bubble,help" categories="account,social">
  
  <path d="M 12.037109 1.9433594 C 9.8935966 1.9570672 7.8112693 2.678972 6.1191406 3.9101562 C 2.6308704 6.4482038 0.77778415 11.237373 2.9589844 16.056641 L 1.0527344 21.679688 A 1.0001 1.0001 0 0 0 2.3203125 22.947266 L 7.9433594 21.041016 C 12.762626 23.222215 17.551796 21.36913 20.089844 17.880859 C 22.71637 14.270985 23.032465 8.8801212 19.076172 4.9238281 C 17.098025 2.9456816 14.760313 2.0363998 12.466797 1.9492188 C 12.323452 1.9437699 12.18001 1.9424455 12.037109 1.9433594 z M 12.003906 3.8925781 C 12.116812 3.8909462 12.230434 3.8928684 12.34375 3.8964844 C 14.156807 3.9543393 16.015356 4.6911369 17.662109 6.3378906 C 20.955617 9.6313983 20.607813 13.770538 18.472656 16.705078 C 16.3375 19.639618 12.509776 21.240442 8.3554688 19.109375 A 1.0001 1.0001 0 0 0 7.578125 19.052734 L 3.5976562 20.402344 L 4.9472656 16.421875 A 1.0001 1.0001 0 0 0 4.890625 15.644531 C 2.7595585 11.490224 4.3603814 7.6625004 7.2949219 5.5273438 C 8.6704876 4.5264892 10.310327 3.9170563 12.003906 3.8925781 z M 11.9375 5.9960938 C 10.386529 5.9937522 8.7719533 6.8899425 8.1464844 8.6679688 A 1 1 0 0 0 8.7578125 9.9433594 A 1 1 0 0 0 10.033203 9.3320312 C 10.439151 8.1780403 11.348785 7.8675152 12.257812 8.0234375 C 13.166839 8.1793598 13.921744 8.7747377 13.919922 9.9980469 A 1.0001 1.0001 0 0 0 13.919922 10 C 13.919922 10.499999 13.487226 11.003308 12.865234 11.417969 C 12.243244 11.832629 11.603516 12.050781 11.603516 12.050781 A 1 1 0 0 0 10.970703 13.316406 A 1 1 0 0 0 12.236328 13.949219 C 12.236328 13.949219 13.096604 13.667369 13.974609 13.082031 C 14.852208 12.496966 15.918932 11.500787 15.919922 10.001953 L 15.919922 10 C 15.922122 7.8470118 14.322186 6.3488722 12.595703 6.0527344 C 12.379824 6.0157054 12.159067 5.9964283 11.9375 5.9960938 z M 12 16 A 1 1 0 0 0 11 17 A 1 1 0 0 0 12 18 L 12.009766 18 A 1 1 0 0 0 13.009766 17 A 1 1 0 0 0 12.009766 16 L 12 16 z "/>
</svg>
