<?xml version="1.0" encoding="UTF-8" standalone="no"?>
<svg
   width="24"
   height="24"
   viewBox="0 0 24 24"
   fill="none"
   stroke="currentColor"
   stroke-width="2"
   stroke-linecap="round"
   stroke-linejoin="round"
   version="1.1"
   id="svg8"
   xmlns="http://www.w3.org/2000/svg"
   xmlns:svg="http://www.w3.org/2000/svg">
  <defs
     id="defs8" />
  <path
     id="path1"
     style="color:#000000;fill:#000000;-inkscape-stroke:none"
     d="M 5 2 C 3.3545487 2 2 3.3545487 2 5 L 2 6 A 1 1 0 0 0 3 7 A 1 1 0 0 0 4 6 L 4 5 C 4 4.4454557 4.4454557 4 5 4 L 7 4 A 1 1 0 0 0 8 3 A 1 1 0 0 0 7 2 L 5 2 z M 11 2 A 1 1 0 0 0 10 3 A 1 1 0 0 0 11 4 L 14 4 A 1 1 0 0 0 15 3 A 1 1 0 0 0 14 2 L 11 2 z M 18 2 A 1 1 0 0 0 17 3 A 1 1 0 0 0 18 4 L 19 4 C 19.554544 4 20 4.4454557 20 5 A 1 1 0 0 0 21 6 A 1 1 0 0 0 22 5 C 22 3.3545487 20.645451 2 19 2 L 18 2 z M 21 8 A 1 1 0 0 0 20 9 L 20 11 A 1 1 0 0 0 21 12 A 1 1 0 0 0 22 11 L 22 9 A 1 1 0 0 0 21 8 z M 3 9 A 1 1 0 0 0 2 10 L 2 12 A 1 1 0 0 0 3 13 A 1 1 0 0 0 4 12 L 4 10 A 1 1 0 0 0 3 9 z M 21 14 A 1 1 0 0 0 20 15 C 20 15.554544 19.554544 16 19 16 L 18 16 A 1 1 0 0 0 17 17 A 1 1 0 0 0 18 18 L 19 18 C 20.645451 18 22 16.645451 22 15 A 1 1 0 0 0 21 14 z M 3 15 A 1 1 0 0 0 2 16 L 2 21 A 1.0001 1.0001 0 0 0 3.7070312 21.707031 L 7.7070312 17.707031 A 1 1 0 0 0 7.7070312 16.292969 A 1 1 0 0 0 6.2929688 16.292969 L 4 18.585938 L 4 16 A 1 1 0 0 0 3 15 z M 11 16 A 1 1 0 0 0 10 17 A 1 1 0 0 0 11 18 L 14 18 A 1 1 0 0 0 15 17 A 1 1 0 0 0 14 16 L 11 16 z "
     stroke-width="0" />
</svg>
