<?xml version="1.0" encoding="UTF-8" standalone="no"?>
<svg xmlns="http://www.w3.org/2000/svg" xmlns:svg="http://www.w3.org/2000/svg" width="24" height="24" viewBox="0 0 24 24" fill="currentColor" tags="lyrics,voice,listen,sound,music,radio,podcast,karaoke,singing,microphone" categories="devices,multimedia">
  
  <path d="M 17 1 C 13.698142 1 11 3.6981427 11 7 C 11 7.1883969 11.010165 7.3745168 11.027344 7.5585938 L 2.2519531 16.353516 C 1.3418803 17.178249 0.90673346 18.251234 0.94140625 19.255859 C 0.97669181 20.278241 1.4408415 21.198654 2.1210938 21.878906 C 2.8013459 22.559159 3.7217589 23.023308 4.7441406 23.058594 C 5.7487665 23.093271 6.8217508 22.65812 7.6464844 21.748047 L 7.6679688 21.726562 L 16.441406 12.972656 C 16.625483 12.989835 16.811603 13 17 13 C 20.301858 13 23 10.301858 23 7 C 23 3.6981427 20.301858 1 17 1 z M 17 3 C 19.220979 3 21 4.7790208 21 7 C 21 9.2209792 19.220979 11 17 11 C 14.779021 11 13 9.2209792 13 7 C 13 4.7790208 14.779021 3 17 3 z M 11.669922 9.7460938 C 12.242906 10.851043 13.148957 11.757094 14.253906 12.330078 L 6.234375 20.332031 A 1.0001 1.0001 0 0 0 6.1894531 20.378906 C 5.6958885 20.939707 5.25461 21.075805 4.8125 21.060547 C 4.37039 21.045288 3.896933 20.822714 3.5371094 20.462891 C 3.1772856 20.103067 2.9547117 19.62961 2.9394531 19.1875 C 2.9241945 18.74539 3.0603012 18.304111 3.6210938 17.810547 A 1.0001 1.0001 0 0 0 3.6679688 17.765625 L 11.669922 9.7460938 z "/>
</svg>
