<?xml version="1.0" encoding="UTF-8" standalone="no"?>
<svg
   width="24"
   height="24"
   viewBox="0 0 24 24"
   fill="none"
   stroke="currentColor"
   stroke-width="2"
   stroke-linecap="round"
   stroke-linejoin="round"
   version="1.1"
   id="svg2"
   xmlns="http://www.w3.org/2000/svg"
   xmlns:svg="http://www.w3.org/2000/svg">
  <defs
     id="defs2" />
  <path
     id="path1"
     style="color:#000000;fill:#000000;-inkscape-stroke:none"
     d="M 12 1 C 9.80271 1 8 2.80271 8 5 L 8 12 C 8 13.249997 8.5047572 14.314776 9.2734375 14.998047 C 10.042118 15.681318 11.02778 16 12 16 C 12.97222 16 13.957881 15.681318 14.726562 14.998047 C 15.495243 14.314776 16 13.249997 16 12 L 16 5 C 16 2.80271 14.19729 1 12 1 z M 12 3 C 13.116412 3 14 3.8835881 14 5 L 14 12 C 14 12.749998 13.754754 13.185226 13.398438 13.501953 C 13.04212 13.81868 12.527776 14 12 14 C 11.472224 14 10.957879 13.81868 10.601562 13.501953 C 10.245245 13.185226 10 12.749998 10 12 L 10 5 C 10 3.8835881 10.883588 3 12 3 z M 5 9 A 1 1 0 0 0 4 10 L 4 12 C 4 16.067573 7.0630126 19.440539 11 19.935547 L 11 22 A 1 1 0 0 0 12 23 A 1 1 0 0 0 13 22 L 13 19.935547 C 16.936988 19.440539 20 16.067573 20 12 L 20 10 A 1 1 0 0 0 19 9 A 1 1 0 0 0 18 10 L 18 12 C 18 15.32555 15.325548 18 12 18 C 8.6744526 18 6 15.32555 6 12 L 6 10 A 1 1 0 0 0 5 9 z "
     stroke-width="0" />
</svg>
