<?xml version="1.0" encoding="UTF-8" standalone="no"?>
<svg
   width="24"
   height="24"
   viewBox="0 0 24 24"
   fill="none"
   stroke="currentColor"
   stroke-width="2"
   stroke-linecap="round"
   stroke-linejoin="round"
   version="1.1"
   id="svg4"
   xmlns="http://www.w3.org/2000/svg"
   xmlns:svg="http://www.w3.org/2000/svg">
  <defs
     id="defs4" />
  <path
     id="rect1"
     style="color:#000000;fill:#000000;-inkscape-stroke:none"
     d="M 4 3 C 2.3553005 3 1 4.3553005 1 6 L 1 17 C 1 18.644699 2.3553005 20 4 20 L 5 20 L 5 21 A 1 1 0 0 0 6 22 A 1 1 0 0 0 7 21 L 7 20 L 17 20 L 17 21 A 1 1 0 0 0 18 22 A 1 1 0 0 0 19 21 L 19 20 L 20 20 C 21.644699 20 23 18.644699 23 17 L 23 6 C 23 4.3553005 21.644699 3 20 3 L 4 3 z M 4 5 L 20 5 C 20.571296 5 21 5.4287039 21 6 L 21 17 C 21 17.571296 20.571296 18 20 18 L 18 18 L 4 18 C 3.4287039 18 3 17.571296 3 17 L 3 6 C 3 5.4287039 3.4287039 5 4 5 z M 7 7 C 5.9092994 7 5 7.9092994 5 9 L 5 14 C 5 15.090701 5.9092994 16 7 16 L 13 16 C 14.090701 16 15 15.090701 15 14 L 15 9 C 15 7.9092994 14.090701 7 13 7 L 7 7 z M 18 7 A 1 1 0 0 0 17 8 L 17 15 A 1 1 0 0 0 18 16 A 1 1 0 0 0 19 15 L 19 8 A 1 1 0 0 0 18 7 z M 7 9 L 13 9 L 13 14 L 7 14 L 7 9 z "
     stroke-width="0" />
</svg>
