<?xml version="1.0" encoding="UTF-8" standalone="no"?>
<svg xmlns="http://www.w3.org/2000/svg" xmlns:svg="http://www.w3.org/2000/svg" width="24" height="24" viewBox="0 0 24 24" fill="currentColor" tags="signpost,direction,right,east,forward,version control" categories="arrows,navigation,development,gaming">
  
  <path d="M 12 2 A 1 1 0 0 0 11 3 L 11 5 L 5 5 C 3.3549936 5 2 6.3549936 2 8 L 2 11 C 2 12.645006 3.3549936 14 5 14 L 11 14 L 11 21 A 1 1 0 0 0 12 22 A 1 1 0 0 0 13 21 L 13 14 L 18 14 A 1.0001 1.0001 0 0 0 18.658203 13.751953 L 22.658203 10.251953 A 1.0001 1.0001 0 0 0 22.658203 8.7480469 L 18.658203 5.2480469 A 1.0001 1.0001 0 0 0 18 5 L 13 5 L 13 3 A 1 1 0 0 0 12 2 z M 5 7 L 12 7 L 17.625 7 L 20.482422 9.5 L 17.625 12 L 5 12 C 4.4358718 12 4 11.564128 4 11 L 4 8 C 4 7.4358718 4.4358718 7 5 7 z "/>
</svg>
