<?xml version="1.0" encoding="UTF-8" standalone="no"?>
<svg
   width="24"
   height="24"
   viewBox="0 0 24 24"
   fill="none"
   stroke="currentColor"
   stroke-width="2"
   stroke-linecap="round"
   stroke-linejoin="round"
   version="1.1"
   id="svg3"
   xmlns="http://www.w3.org/2000/svg"
   xmlns:svg="http://www.w3.org/2000/svg">
  <defs
     id="defs3" />
  <path
     id="path1"
     style="color:#000000;fill:#000000;-inkscape-stroke:none"
     d="M 8 1 A 1 1 0 0 0 7 2 A 1 1 0 0 0 8 3 L 8 4.7890625 C 7.9999848 5.3814936 7.8247601 5.9602223 7.4960938 6.453125 L 6.8398438 7.4375 C 6.2919649 8.2591569 5.9997785 9.2253218 6 10.212891 L 6 20 C 6 21.645006 7.3549936 23 9 23 L 15 23 C 16.645006 23 18 21.645006 18 20 L 18 15.021484 L 18 10.210938 C 17.999975 9.2237942 17.7078 8.2588028 17.160156 7.4375 L 16.503906 6.453125 C 16.175099 5.9600096 15.999867 5.3817493 16 4.7890625 A 1.0001 1.0001 0 0 0 16 4.7871094 L 16 3 A 1 1 0 0 0 17 2 A 1 1 0 0 0 16 1 L 8 1 z M 10 3 L 14 3 L 14 4.7871094 C 13.999778 5.7746778 14.291964 6.7408431 14.839844 7.5625 L 15.496094 8.546875 C 15.824759 9.0397777 15.999985 9.6185059 16 10.210938 L 16 14.291016 C 14.812021 14.630101 13.538286 14.560559 12.386719 14.078125 C 11.463659 13.691561 10.481607 13.498047 9.5 13.498047 C 8.9972705 13.498047 8.4949778 13.548937 8 13.650391 L 8 10.212891 A 1.0001 1.0001 0 0 0 8 10.210938 C 7.999867 9.6182972 8.175098 9.0399904 8.5039062 8.546875 L 9.1601562 7.5625 C 9.707799 6.7411972 9.9999747 5.7762053 10 4.7890625 L 10 3 z M 9.5 15.496094 C 10.218484 15.496094 10.936971 15.638647 11.613281 15.921875 C 13.009104 16.506636 14.53864 16.649095 16 16.349609 L 16 20 C 16 20.564128 15.564128 21 15 21 L 9 21 C 8.4358718 21 8 20.564128 8 20 L 8 15.708984 C 8.4903526 15.569065 8.9950035 15.496094 9.5 15.496094 z "
     stroke-width="0" />
</svg>
