<?xml version="1.0" encoding="UTF-8" standalone="no"?>
<svg
   width="24"
   height="24"
   viewBox="0 0 24 24"
   fill="none"
   stroke="currentColor"
   stroke-width="2"
   stroke-linecap="round"
   stroke-linejoin="round"
   version="1.1"
   id="svg4"
   xmlns="http://www.w3.org/2000/svg"
   xmlns:svg="http://www.w3.org/2000/svg">
  <defs
     id="defs4" />
  <path
     id="path1"
     style="color:#000000;fill:#000000;-inkscape-stroke:none"
     d="M 8 2 A 1 1 0 0 0 7 3 L 7 6 C 7 6.5641282 6.5641282 7 6 7 L 3 7 A 1 1 0 0 0 2 8 A 1 1 0 0 0 3 9 L 6 9 C 7.6450064 9 9 7.6450064 9 6 L 9 3 A 1 1 0 0 0 8 2 z M 16 2 A 1 1 0 0 0 15 3 L 15 6 C 15 7.6450064 16.354994 9 18 9 L 21 9 A 1 1 0 0 0 22 8 A 1 1 0 0 0 21 7 L 18 7 C 17.435872 7 17 6.5641282 17 6 L 17 3 A 1 1 0 0 0 16 2 z M 3 15 A 1 1 0 0 0 2 16 A 1 1 0 0 0 3 17 L 6 17 C 6.5641282 17 7 17.435872 7 18 L 7 21 A 1 1 0 0 0 8 22 A 1 1 0 0 0 9 21 L 9 18 C 9 16.354994 7.6450064 15 6 15 L 3 15 z M 18 15 C 16.354994 15 15 16.354994 15 18 L 15 21 A 1 1 0 0 0 16 22 A 1 1 0 0 0 17 21 L 17 18 C 17 17.435872 17.435872 17 18 17 L 21 17 A 1 1 0 0 0 22 16 A 1 1 0 0 0 21 15 L 18 15 z "
     stroke-width="0" />
</svg>
