<?xml version="1.0" encoding="UTF-8" standalone="no"?>
<svg xmlns="http://www.w3.org/2000/svg" xmlns:svg="http://www.w3.org/2000/svg" width="24" height="24" viewBox="0 0 24 24" fill="currentColor" tags="exit fullscreen,arrows,close,shrink" categories="arrows,layout,design">
  
  <path d="M 20.84375 2.0117188 A 1 1 0 0 0 20.292969 2.2929688 L 15 7.5859375 L 15 4 A 1 1 0 0 0 14 3 A 1 1 0 0 0 13 4 L 13 10 A 1.0001 1.0001 0 0 0 13.011719 10.091797 A 1 1 0 0 0 13.025391 10.197266 A 1.0001 1.0001 0 0 0 13.089844 10.394531 A 1 1 0 0 0 13.123047 10.472656 A 1.0001 1.0001 0 0 0 13.527344 10.876953 A 1 1 0 0 0 13.605469 10.910156 A 1.0001 1.0001 0 0 0 13.802734 10.974609 A 1 1 0 0 0 13.908203 10.988281 A 1.0001 1.0001 0 0 0 14 11 L 20 11 A 1 1 0 0 0 21 10 A 1 1 0 0 0 20 9 L 16.414062 9 L 21.707031 3.7070312 A 1 1 0 0 0 21.707031 2.2929688 A 1 1 0 0 0 20.84375 2.0117188 z M 4 13 A 1 1 0 0 0 3 14 A 1 1 0 0 0 4 15 L 7.5859375 15 L 2.2929688 20.292969 A 1 1 0 0 0 2.2929688 21.707031 A 1 1 0 0 0 3.7070312 21.707031 L 9 16.414062 L 9 20 A 1 1 0 0 0 10 21 A 1 1 0 0 0 11 20 L 11 14 A 1.0001 1.0001 0 0 0 10.998047 13.984375 A 1 1 0 0 0 10.970703 13.763672 A 1.0001 1.0001 0 0 0 10.957031 13.716797 A 1 1 0 0 0 10.869141 13.509766 A 1 1 0 0 0 10.865234 13.5 A 1.0001 1.0001 0 0 0 10.859375 13.492188 A 1 1 0 0 0 10.707031 13.292969 A 1.0001 1.0001 0 0 0 10 13 L 4 13 z "/>
</svg>
