<?xml version="1.0" encoding="UTF-8" standalone="no"?>
<svg
   width="24"
   height="24"
   viewBox="0 0 24 24"
   fill="none"
   stroke="currentColor"
   stroke-width="2"
   stroke-linecap="round"
   stroke-linejoin="round"
   version="1.1"
   id="svg5"
   xmlns="http://www.w3.org/2000/svg"
   xmlns:svg="http://www.w3.org/2000/svg">
  <defs
     id="defs5" />
  <path
     id="path1"
     style="color:#000000;fill:#000000;-inkscape-stroke:none"
     d="M 2 1 A 1 1 0 0 0 1.2929688 1.2929688 A 1 1 0 0 0 1.2929688 2.7070312 L 1.5839844 2.9980469 C 1.267758 3.466467 1 4.1478782 1 5 L 1 15 C 1 16.645006 2.3549936 18 4 18 L 11 18 L 11 20 L 8 20 A 1 1 0 0 0 7 21 A 1 1 0 0 0 8 22 L 16 22 A 1 1 0 0 0 17 21 A 1 1 0 0 0 16 20 L 13 20 L 13 18 L 16.585938 18 L 21.292969 22.707031 A 1 1 0 0 0 22.707031 22.707031 A 1 1 0 0 0 22.707031 21.292969 L 3.65625 2.2441406 L 2.7070312 1.2929688 A 1 1 0 0 0 2 1 z M 9 2 A 1 1 0 0 0 8 3 A 1 1 0 0 0 9 4 L 20 4 C 20.564128 4 21 4.4358718 21 5 L 21 15 A 1 1 0 0 0 22 16 A 1 1 0 0 0 23 15 L 23 5 C 23 3.3549936 21.645006 2 20 2 L 9 2 z M 3.0644531 4.4785156 L 14.585938 16 L 4 16 C 3.4358718 16 3 15.564128 3 15 L 3 5 C 3 4.7830844 3.0250857 4.614551 3.0644531 4.4785156 z "
     stroke-width="0" />
</svg>
