<?xml version="1.0" encoding="UTF-8" standalone="no"?>
<svg
   width="24"
   height="24"
   viewBox="0 0 24 24"
   fill="none"
   stroke="currentColor"
   stroke-width="2"
   stroke-linecap="round"
   stroke-linejoin="round"
   version="1.1"
   id="svg3"
   xmlns="http://www.w3.org/2000/svg"
   xmlns:svg="http://www.w3.org/2000/svg">
  <defs
     id="defs3" />
  <path
     id="path1"
     style="color:#000000;fill:#000000;-inkscape-stroke:none"
     d="M 14 3 C 12.355301 3 11 4.3553005 11 6 L 11 18 C 11 19.644699 12.355301 21 14 21 L 20 21 C 21.644699 21 23 19.644699 23 18 L 23 6 C 23 4.3553005 21.644699 3 20 3 L 14 3 z M 4 5 C 2.3549936 5 1 6.3549936 1 8 L 1 14 C 1 15.645006 2.3549936 17 4 17 L 8 17 A 1 1 0 0 0 9 16 A 1 1 0 0 0 8 15 L 4 15 C 3.4358718 15 3 14.564128 3 14 L 3 8 C 3 7.4358718 3.4358718 7 4 7 L 8 7 A 1 1 0 0 0 9 6 A 1 1 0 0 0 8 5 L 4 5 z M 14 5 L 20 5 C 20.571296 5 21 5.4287039 21 6 L 21 18 C 21 18.571296 20.571296 19 20 19 L 14 19 C 13.428704 19 13 18.571296 13 18 L 13 6 C 13 5.4287039 13.428704 5 14 5 z M 17 8 A 1 1 0 0 0 16 9 A 1 1 0 0 0 17 10 L 17.009766 10 A 1 1 0 0 0 18.009766 9 A 1 1 0 0 0 17.009766 8 L 17 8 z M 17 13 C 15.907277 13 15 13.907277 15 15 C 15 16.092723 15.907277 17 17 17 C 18.092723 17 19 16.092723 19 15 C 19 13.907277 18.092723 13 17 13 z M 5.5 19 A 1 1 0 0 0 4.5 20 A 1 1 0 0 0 5.5 21 L 8 21 A 1 1 0 0 0 9 20 A 1 1 0 0 0 8 19 L 5.5 19 z "
     stroke-width="0" />
</svg>
