<?xml version="1.0" encoding="UTF-8" standalone="no"?>
<svg xmlns="http://www.w3.org/2000/svg" xmlns:svg="http://www.w3.org/2000/svg" width="24" height="24" viewBox="0 0 24 24" fill="currentColor" tags="tv,screen,display,desktop,download" categories="connectivity,devices">
  
  <path d="M 4 2 C 2.3553005 2 1 3.3553005 1 5 L 1 15 C 1 16.644699 2.3553005 18 4 18 L 11 18 L 11 20 L 8 20 A 1 1 0 0 0 7 21 A 1 1 0 0 0 8 22 L 12 22 L 16 22 A 1 1 0 0 0 17 21 A 1 1 0 0 0 16 20 L 13 20 L 13 18 L 20 18 C 21.644699 18 23 16.644699 23 15 L 23 5 C 23 3.3553005 21.644699 2 20 2 L 4 2 z M 4 4 L 20 4 C 20.571296 4 21 4.4287039 21 5 L 21 15 C 21 15.571296 20.571296 16 20 16 L 4 16 C 3.4287039 16 3 15.571296 3 15 L 3 5 C 3 4.4287039 3.4287039 4 4 4 z M 12 6 A 1 1 0 0 0 11 7 L 11 10.585938 L 9.7070312 9.2929688 A 1 1 0 0 0 9 9 A 1 1 0 0 0 8.2929688 9.2929688 A 1 1 0 0 0 8.2929688 10.707031 L 11.292969 13.707031 A 1.0001 1.0001 0 0 0 11.333984 13.738281 A 1 1 0 0 0 11.451172 13.828125 A 1.0001 1.0001 0 0 0 11.53125 13.876953 A 1 1 0 0 0 11.699219 13.947266 A 1.0001 1.0001 0 0 0 11.753906 13.966797 A 1 1 0 0 0 12 14 A 1 1 0 0 0 12.246094 13.966797 A 1.0001 1.0001 0 0 0 12.300781 13.947266 A 1 1 0 0 0 12.46875 13.876953 A 1.0001 1.0001 0 0 0 12.548828 13.828125 A 1 1 0 0 0 12.666016 13.738281 A 1.0001 1.0001 0 0 0 12.707031 13.707031 L 15.707031 10.707031 A 1 1 0 0 0 15.707031 9.2929688 A 1 1 0 0 0 14.292969 9.2929688 L 13 10.585938 L 13 7 A 1 1 0 0 0 12 6 z "/>
</svg>
