<?xml version="1.0" encoding="UTF-8" standalone="no"?>
<svg xmlns="http://www.w3.org/2000/svg" xmlns:svg="http://www.w3.org/2000/svg" width="24" height="24" viewBox="0 0 24 24" fill="currentColor" tags="alpine,climb,snow" categories="nature">
  
  <path d="M 7.9296875 2.0019531 A 1.0001 1.0001 0 0 0 7.0507812 2.6835938 L 1.0507812 20.683594 A 1.0001 1.0001 0 0 0 2 22 L 22 22 A 1.0001 1.0001 0 0 0 22.949219 20.683594 L 21.171875 15.353516 L 17.949219 5.6835938 A 1.0001 1.0001 0 0 0 16.292969 5.2929688 L 12.273438 9.3125 L 8.8945312 2.5527344 A 1.0001 1.0001 0 0 0 7.9296875 2.0019531 z M 8.1855469 5.6074219 L 11.105469 11.447266 A 1.0001 1.0001 0 0 0 12.707031 11.707031 L 16.5625 7.8515625 L 19.027344 15.248047 C 16.822537 16.465166 14.847021 16.290039 12.578125 14.683594 A 1.0001 1.0001 0 0 0 12.576172 14.683594 C 11.147631 13.674858 9.633961 13.124783 8.1152344 13.044922 C 7.2760455 13.000794 6.4355224 13.101574 5.6074219 13.345703 L 8.1855469 5.6074219 z M 7.6113281 14.964844 C 8.8500781 14.924192 10.081913 15.370574 11.421875 16.316406 C 14.046102 18.174436 16.958646 18.458912 19.664062 17.158203 L 20.611328 20 L 3.3886719 20 L 4.7636719 15.876953 C 5.7489864 15.304029 6.6822505 14.995333 7.6113281 14.964844 z "/>
</svg>
