<?xml version="1.0" encoding="UTF-8" standalone="no"?>
<svg
   width="24"
   height="24"
   viewBox="0 0 24 24"
   fill="none"
   stroke="currentColor"
   stroke-width="2"
   stroke-linecap="round"
   stroke-linejoin="round"
   version="1.1"
   id="svg2"
   xmlns="http://www.w3.org/2000/svg"
   xmlns:svg="http://www.w3.org/2000/svg">
  <defs
     id="defs2" />
  <path
     id="path1"
     style="color:#000000;fill:#000000;-inkscape-stroke:none"
     d="M 3.0019531 1.9980469 A 1.0001 1.0001 0 0 0 2.0761719 3.3847656 L 9.1464844 20.355469 A 1.0001 1.0001 0 0 0 11.017578 20.291016 L 13.009766 14.423828 L 18.292969 19.707031 A 1 1 0 0 0 19.707031 19.707031 A 1 1 0 0 0 19.707031 18.292969 L 14.423828 13.009766 L 20.291016 11.017578 A 1.0001 1.0001 0 0 0 20.355469 9.1464844 L 3.3847656 2.0761719 A 1.0001 1.0001 0 0 0 3.0019531 1.9980469 z M 4.8574219 4.8574219 L 17.142578 9.9746094 L 12.257812 11.632812 A 1.0001 1.0001 0 0 0 11.632812 12.257812 L 9.9746094 17.142578 L 4.8574219 4.8574219 z "
     stroke-width="0" />
</svg>
