<?xml version="1.0" encoding="UTF-8" standalone="no"?>
<svg
   width="24"
   height="24"
   viewBox="0 0 24 24"
   fill="none"
   stroke="currentColor"
   stroke-width="2"
   stroke-linecap="round"
   stroke-linejoin="round"
   version="1.1"
   id="svg2"
   xmlns="http://www.w3.org/2000/svg"
   xmlns:svg="http://www.w3.org/2000/svg">
  <defs
     id="defs2" />
  <path
     id="path1"
     style="color:#000000;fill:#000000;-inkscape-stroke:none"
     d="M 5 2 C 3.3549936 2 2 3.3549936 2 5 L 2 19 C 2 20.645006 3.3549936 22 5 22 L 11 22 A 1 1 0 0 0 12 21 A 1 1 0 0 0 11 20 L 5 20 C 4.4358718 20 4 19.564128 4 19 L 4 5 C 4 4.4358718 4.4358718 4 5 4 L 19 4 C 19.564128 4 20 4.4358718 20 5 L 20 11 A 1 1 0 0 0 21 12 A 1 1 0 0 0 22 11 L 22 5 C 22 3.3549936 20.645006 2 19 2 L 5 2 z M 12.046875 11.001953 A 1.0001 1.0001 0 0 0 11.072266 12.371094 L 15.072266 22.371094 A 1.0001 1.0001 0 0 0 16.929688 22.367188 L 18.470703 18.470703 L 22.367188 16.929688 A 1.0001 1.0001 0 0 0 22.371094 15.072266 L 12.371094 11.072266 A 1.0001 1.0001 0 0 0 12.046875 11.001953 z M 13.792969 13.792969 L 19.294922 15.994141 L 17.332031 16.769531 A 1.0001 1.0001 0 0 0 16.769531 17.332031 L 15.994141 19.294922 L 13.792969 13.792969 z "
     stroke-width="0" />
</svg>
