<?xml version="1.0" encoding="UTF-8" standalone="no"?>
<svg
   width="24"
   height="24"
   viewBox="0 0 24 24"
   fill="none"
   stroke="currentColor"
   stroke-width="2"
   stroke-linecap="round"
   stroke-linejoin="round"
   version="1.1"
   id="svg5"
   xmlns="http://www.w3.org/2000/svg"
   xmlns:svg="http://www.w3.org/2000/svg">
  <defs
     id="defs5" />
  <path
     id="path1"
     style="color:#000000;fill:#000000;-inkscape-stroke:none"
     d="M 7.1269531 1.203125 A 1 1 0 0 0 6.9335938 1.2363281 A 1 1 0 0 0 6.2363281 2.4667969 L 7.0351562 5.3652344 A 1 1 0 0 0 8.265625 6.0644531 A 1 1 0 0 0 8.9648438 4.8339844 L 8.1640625 1.9335938 A 1 1 0 0 0 7.1269531 1.203125 z M 14.025391 3.0996094 A 1 1 0 0 0 13.310547 3.375 L 11.310547 5.2753906 A 1 1 0 0 0 11.275391 6.6894531 A 1 1 0 0 0 12.689453 6.7246094 L 14.689453 4.8242188 A 1 1 0 0 0 14.724609 3.4121094 A 1 1 0 0 0 14.025391 3.0996094 z M 2.2734375 6.203125 A 1 1 0 0 0 1.2363281 6.9335938 A 1 1 0 0 0 1.9335938 8.1640625 L 4.8339844 8.9648438 A 1 1 0 0 0 6.0644531 8.265625 A 1 1 0 0 0 5.3652344 7.0351562 L 2.4667969 6.2363281 A 1 1 0 0 0 2.2734375 6.203125 z M 9.0019531 7.9980469 A 1.0001 1.0001 0 0 0 8.0761719 9.3847656 L 13.076172 21.384766 A 1.0001 1.0001 0 0 0 14.945312 21.326172 L 16.585938 16.585938 L 21.326172 14.945312 A 1.0001 1.0001 0 0 0 21.384766 13.076172 L 9.3847656 8.0761719 A 1.0001 1.0001 0 0 0 9.0019531 7.9980469 z M 10.859375 10.859375 L 18.191406 13.914062 L 15.472656 14.855469 A 1.0001 1.0001 0 0 0 14.855469 15.472656 L 13.914062 18.191406 L 10.859375 10.859375 z M 5.9746094 11 A 1 1 0 0 0 5.2753906 11.310547 L 3.375 13.310547 A 1 1 0 0 0 3.4121094 14.724609 A 1 1 0 0 0 4.8242188 14.689453 L 6.7246094 12.689453 A 1 1 0 0 0 6.6894531 11.275391 A 1 1 0 0 0 5.9746094 11 z "
     stroke-width="0" />
</svg>
