<?xml version="1.0" encoding="UTF-8" standalone="no"?>
<svg
   width="24"
   height="24"
   viewBox="0 0 24 24"
   fill="none"
   stroke="currentColor"
   stroke-width="2"
   stroke-linecap="round"
   stroke-linejoin="round"
   version="1.1"
   id="svg2"
   xmlns="http://www.w3.org/2000/svg"
   xmlns:svg="http://www.w3.org/2000/svg">
  <defs
     id="defs2" />
  <path
     id="path1"
     style="color:#000000;fill:#000000;-inkscape-stroke:none"
     d="M 13 4 A 1 1 0 0 0 12 5 A 1 1 0 0 0 13 6 L 16.585938 6 L 4.2929688 18.292969 A 1 1 0 0 0 4.2929688 19.707031 A 1 1 0 0 0 5.7070312 19.707031 L 18 7.4140625 L 18 11 A 1 1 0 0 0 19 12 A 1 1 0 0 0 20 11 L 20 5 A 1 1 0 0 0 19.970703 4.7675781 A 1.0001 1.0001 0 0 0 19.955078 4.7128906 A 1 1 0 0 0 19.865234 4.5 A 1 1 0 0 0 19.707031 4.2929688 A 1.0001 1.0001 0 0 0 19.419922 4.1015625 A 1 1 0 0 0 19.341797 4.0683594 A 1.0001 1.0001 0 0 0 19 4 L 13 4 z "
     stroke-width="0" />
</svg>
