<?xml version="1.0" encoding="UTF-8" standalone="no"?>
<svg xmlns="http://www.w3.org/2000/svg" xmlns:svg="http://www.w3.org/2000/svg" width="24" height="24" viewBox="0 0 24 24" fill="currentColor" tags="double,arrow" categories="arrows,cursors">
  
  <path d="M 5 4 A 1.0001 1.0001 0 0 0 4.6582031 4.0683594 A 1 1 0 0 0 4.5800781 4.1015625 A 1.0001 1.0001 0 0 0 4.2929688 4.2929688 A 1.0001 1.0001 0 0 0 4.1015625 4.5800781 A 1 1 0 0 0 4.0683594 4.6582031 A 1.0001 1.0001 0 0 0 4 5 L 4 11 A 1 1 0 0 0 5 12 A 1 1 0 0 0 6 11 L 6 7.4140625 L 16.585938 18 L 13 18 A 1 1 0 0 0 12 19 A 1 1 0 0 0 13 20 L 19 20 A 1.0001 1.0001 0 0 0 19.341797 19.931641 A 1 1 0 0 0 19.419922 19.898438 A 1.0001 1.0001 0 0 0 19.707031 19.707031 A 1 1 0 0 0 19.865234 19.5 A 1 1 0 0 0 19.955078 19.287109 A 1.0001 1.0001 0 0 0 19.970703 19.232422 A 1 1 0 0 0 20 19 L 20 13 A 1 1 0 0 0 19 12 A 1 1 0 0 0 18 13 L 18 16.585938 L 7.4140625 6 L 11 6 A 1 1 0 0 0 12 5 A 1 1 0 0 0 11 4 L 5 4 z "/>
</svg>
