<?xml version="1.0" encoding="UTF-8" standalone="no"?>
<svg
   width="24"
   height="24"
   viewBox="0 0 24 24"
   fill="none"
   stroke="currentColor"
   stroke-width="2"
   stroke-linecap="round"
   stroke-linejoin="round"
   version="1.1"
   id="svg2"
   xmlns="http://www.w3.org/2000/svg"
   xmlns:svg="http://www.w3.org/2000/svg">
  <defs
     id="defs2" />
  <path
     id="path1"
     style="color:#000000;fill:#000000;-inkscape-stroke:none"
     d="M 6 7 A 1 1 0 0 0 5.2929688 7.2929688 L 1.2929688 11.292969 A 1.0001 1.0001 0 0 0 1.1035156 11.576172 A 1 1 0 0 0 1.0664062 11.666016 A 1.0001 1.0001 0 0 0 1 12 A 1.0001 1.0001 0 0 0 1.0664062 12.333984 A 1 1 0 0 0 1.1035156 12.423828 A 1.0001 1.0001 0 0 0 1.2929688 12.707031 L 5.2929688 16.707031 A 1 1 0 0 0 6.7070312 16.707031 A 1 1 0 0 0 6.7070312 15.292969 L 4.4140625 13 L 22 13 A 1 1 0 0 0 23 12 A 1 1 0 0 0 22 11 L 4.4140625 11 L 6.7070312 8.7070312 A 1 1 0 0 0 6.7070312 7.2929688 A 1 1 0 0 0 6 7 z "
     stroke-width="0" />
</svg>
