<?xml version="1.0" encoding="UTF-8" standalone="no"?>
<svg
   width="24"
   height="24"
   viewBox="0 0 24 24"
   fill="none"
   stroke="currentColor"
   stroke-width="2"
   stroke-linecap="round"
   stroke-linejoin="round"
   version="1.1"
   id="svg2"
   xmlns="http://www.w3.org/2000/svg"
   xmlns:svg="http://www.w3.org/2000/svg">
  <defs
     id="defs2" />
  <path
     id="path1"
     style="color:#000000;fill:#000000;-inkscape-stroke:none"
     d="M 5 4 A 1.0001 1.0001 0 0 0 4.6582031 4.0683594 A 1 1 0 0 0 4.5800781 4.1015625 A 1.0001 1.0001 0 0 0 4.2929688 4.2929688 A 1.0001 1.0001 0 0 0 4.1015625 4.5800781 A 1 1 0 0 0 4.0683594 4.6582031 A 1.0001 1.0001 0 0 0 4 5 L 4 11 A 1 1 0 0 0 5 12 A 1 1 0 0 0 6 11 L 6 7.4140625 L 18.292969 19.707031 A 1 1 0 0 0 19.707031 19.707031 A 1 1 0 0 0 19.707031 18.292969 L 7.4140625 6 L 11 6 A 1 1 0 0 0 12 5 A 1 1 0 0 0 11 4 L 5 4 z "
     stroke-width="0" />
</svg>
