<?xml version="1.0" encoding="UTF-8" standalone="no"?>
<svg xmlns="http://www.w3.org/2000/svg" xmlns:svg="http://www.w3.org/2000/svg" width="24" height="24" viewBox="0 0 24 24" fill="currentColor" tags="arrow,direction" categories="arrows">
  
  <path d="M 19 4 A 1 1 0 0 0 18.292969 4.2929688 L 6 16.585938 L 6 13 A 1 1 0 0 0 5 12 A 1 1 0 0 0 4 13 L 4 19 A 1.0001 1.0001 0 0 0 4.0683594 19.341797 A 1 1 0 0 0 4.1015625 19.419922 A 1.0001 1.0001 0 0 0 4.2929688 19.707031 A 1.0001 1.0001 0 0 0 4.5800781 19.898438 A 1 1 0 0 0 4.6582031 19.931641 A 1.0001 1.0001 0 0 0 5 20 L 11 20 A 1 1 0 0 0 12 19 A 1 1 0 0 0 11 18 L 7.4140625 18 L 19.707031 5.7070312 A 1 1 0 0 0 19.707031 4.2929688 A 1 1 0 0 0 19 4 z "/>
</svg>
