<?xml version="1.0" encoding="UTF-8" standalone="no"?>
<svg xmlns="http://www.w3.org/2000/svg" xmlns:svg="http://www.w3.org/2000/svg" width="24" height="24" viewBox="0 0 24 24" fill="currentColor" tags="arrow,direction,downwards,south" categories="arrows">
  
  <path d="M 12 1 A 1 1 0 0 0 11 2 L 11 19.585938 L 8.7070312 17.292969 A 1 1 0 0 0 8 17 A 1 1 0 0 0 7.2929688 17.292969 A 1 1 0 0 0 7.2929688 18.707031 L 11.292969 22.707031 A 1.0001 1.0001 0 0 0 11.576172 22.896484 A 1 1 0 0 0 11.666016 22.933594 A 1.0001 1.0001 0 0 0 12 23 A 1.0001 1.0001 0 0 0 12.333984 22.933594 A 1 1 0 0 0 12.423828 22.896484 A 1.0001 1.0001 0 0 0 12.707031 22.707031 L 16.707031 18.707031 A 1 1 0 0 0 16.707031 17.292969 A 1 1 0 0 0 15.292969 17.292969 L 13 19.585938 L 13 2 A 1 1 0 0 0 12 1 z "/>
</svg>
