<?xml version="1.0" encoding="UTF-8" standalone="no"?>
<svg xmlns="http://www.w3.org/2000/svg" xmlns:svg="http://www.w3.org/2000/svg" width="24" height="24" viewBox="0 0 24 24" fill="currentColor" tags="arrows,axis,gizmo,coordinates,transform,translate" categories="design">
  
  <path d="M 5 2 A 1.0001 1.0001 0 0 0 4.6660156 2.0664062 A 1 1 0 0 0 4.5761719 2.1035156 A 1.0001 1.0001 0 0 0 4.2929688 2.2929688 L 1.2929688 5.2929688 A 1 1 0 0 0 1.2929688 6.7070312 A 1 1 0 0 0 2.7070312 6.7070312 L 4 5.4140625 L 4 19 A 1 1 0 0 0 4.0664062 19.333984 A 1.0001 1.0001 0 0 0 4.1035156 19.423828 A 1 1 0 0 0 4.2929688 19.707031 A 1 1 0 0 0 4.5761719 19.896484 A 1.0001 1.0001 0 0 0 4.6660156 19.933594 A 1 1 0 0 0 5 20 L 18.585938 20 L 17.292969 21.292969 A 1 1 0 0 0 17.292969 22.707031 A 1 1 0 0 0 18.707031 22.707031 L 21.707031 19.707031 A 1.0001 1.0001 0 0 0 21.919922 19.388672 A 1.0001 1.0001 0 0 0 21.923828 19.382812 A 1 1 0 0 0 21.925781 19.376953 A 1.0001 1.0001 0 0 0 22 19 A 1.0001 1.0001 0 0 0 21.992188 18.880859 A 1 1 0 0 0 21.986328 18.839844 A 1 1 0 0 0 21.984375 18.826172 A 1.0001 1.0001 0 0 0 21.958984 18.71875 A 1 1 0 0 0 21.951172 18.699219 A 1.0001 1.0001 0 0 0 21.919922 18.611328 A 1 1 0 0 0 21.90625 18.578125 A 1.0001 1.0001 0 0 0 21.888672 18.546875 A 1 1 0 0 0 21.865234 18.5 A 1.0001 1.0001 0 0 0 21.857422 18.488281 A 1 1 0 0 0 21.826172 18.439453 A 1.0001 1.0001 0 0 0 21.765625 18.357422 A 1.0001 1.0001 0 0 0 21.755859 18.345703 A 1 1 0 0 0 21.746094 18.335938 A 1.0001 1.0001 0 0 0 21.707031 18.292969 L 18.707031 15.292969 A 1 1 0 0 0 17.292969 15.292969 A 1 1 0 0 0 17.292969 16.707031 L 18.585938 18 L 7.4140625 18 L 11.707031 13.707031 A 1 1 0 0 0 11.707031 12.292969 A 1 1 0 0 0 11 12 A 1 1 0 0 0 10.292969 12.292969 L 6 16.585938 L 6 5.4140625 L 7.2929688 6.7070312 A 1 1 0 0 0 8.7070312 6.7070312 A 1 1 0 0 0 8.7070312 5.2929688 L 5.7070312 2.2929688 A 1.0001 1.0001 0 0 0 5.6914062 2.28125 A 1 1 0 0 0 5.5 2.1347656 A 1.0001 1.0001 0 0 0 5.4921875 2.1308594 A 1 1 0 0 0 5.2578125 2.0351562 A 1.0001 1.0001 0 0 0 5.2519531 2.0351562 A 1 1 0 0 0 5 2 z "/>
</svg>
