<?xml version="1.0" encoding="UTF-8" standalone="no"?>
<svg
   width="24"
   height="24"
   viewBox="0 0 24 24"
   fill="none"
   stroke="currentColor"
   stroke-width="2"
   stroke-linecap="round"
   stroke-linejoin="round"
   version="1.1"
   id="svg2"
   xmlns="http://www.w3.org/2000/svg"
   xmlns:svg="http://www.w3.org/2000/svg">
  <defs
     id="defs2" />
  <path
     id="path1"
     style="color:#000000;fill:#000000;-inkscape-stroke:none"
     d="M 5 4 A 1 1 0 0 0 4.2929688 4.2929688 A 1 1 0 0 0 4.2929688 5.7070312 L 16.585938 18 L 13 18 A 1 1 0 0 0 12 19 A 1 1 0 0 0 13 20 L 19 20 A 1.0001 1.0001 0 0 0 19.341797 19.931641 A 1 1 0 0 0 19.419922 19.898438 A 1.0001 1.0001 0 0 0 19.707031 19.707031 A 1 1 0 0 0 19.865234 19.5 A 1 1 0 0 0 19.955078 19.287109 A 1.0001 1.0001 0 0 0 19.970703 19.232422 A 1 1 0 0 0 20 19 L 20 13 A 1 1 0 0 0 19 12 A 1 1 0 0 0 18 13 L 18 16.585938 L 5.7070312 4.2929688 A 1 1 0 0 0 5 4 z "
     stroke-width="0" />
</svg>
