<?xml version="1.0" encoding="UTF-8" standalone="no"?>
<svg xmlns="http://www.w3.org/2000/svg" xmlns:svg="http://www.w3.org/2000/svg" width="24" height="24" viewBox="0 0 24 24" fill="currentColor" tags="crotchet,minim,quarter note,half note,note" categories="multimedia,files">
  
  <path d="M 16 1 A 1 1 0 0 0 15 2 L 15 14.007812 C 14.162689 13.375917 13.123406 13 12 13 C 9.2504263 13 7 15.250427 7 18 C 7 20.749573 9.2504263 23 12 23 C 14.749573 23 17 20.749573 17 18 L 17 2 A 1 1 0 0 0 16 1 z M 12 15 C 13.668695 15 15 16.331305 15 18 C 15 19.668695 13.668695 21 12 21 C 10.331305 21 9 19.668695 9 18 C 9 16.331305 10.331305 15 12 15 z "/>
</svg>
