<?xml version="1.0" encoding="UTF-8" standalone="no"?>
<svg
   width="24"
   height="24"
   viewBox="0 0 24 24"
   fill="none"
   stroke="currentColor"
   stroke-width="2"
   stroke-linecap="round"
   stroke-linejoin="round"
   version="1.1"
   id="svg2"
   xmlns="http://www.w3.org/2000/svg"
   xmlns:svg="http://www.w3.org/2000/svg">
  <defs
     id="defs2" />
  <path
     id="path1"
     style="color:#000000;fill:#000000;-inkscape-stroke:none"
     d="M 20.835938 2.0136719 L 8.8359375 4.0136719 A 1.0001 1.0001 0 0 0 8 5 L 8 14.541016 C 7.410447 14.197422 6.7268991 14 6 14 C 3.80271 14 2 15.80271 2 18 C 2 20.19729 3.80271 22 6 22 C 8.19729 22 10 20.19729 10 18 L 10 5.8476562 L 20 4.1796875 L 20 12.541016 C 19.410447 12.197422 18.726899 12 18 12 C 15.80271 12 14 13.80271 14 16 C 14 18.19729 15.80271 20 18 20 C 20.19729 20 22 18.19729 22 16 L 22 3 A 1.0001 1.0001 0 0 0 20.835938 2.0136719 z M 18 14 C 19.116412 14 20 14.883588 20 16 C 20 17.116412 19.116412 18 18 18 C 16.883588 18 16 17.116412 16 16 C 16 14.883588 16.883588 14 18 14 z M 6 16 C 7.1164119 16 8 16.883588 8 18 C 8 19.116412 7.1164119 20 6 20 C 4.8835881 20 4 19.116412 4 18 C 4 16.883588 4.8835881 16 6 16 z "
     stroke-width="0" />
</svg>
