<?xml version="1.0" encoding="UTF-8" standalone="no"?>
<svg xmlns="http://www.w3.org/2000/svg" xmlns:svg="http://www.w3.org/2000/svg" width="24" height="24" viewBox="0 0 24 24" fill="currentColor" tags="location,travel" categories="navigation,maps">
  
  <path d="M 2 1 A 1 1 0 0 0 1.2929688 1.2929688 A 1 1 0 0 0 1.2929688 2.7070312 L 8.1503906 9.5644531 L 4.0625 20.654297 A 1.0001 1.0001 0 0 0 5.4960938 21.869141 L 12 18.152344 L 18.503906 21.869141 A 1.0001 1.0001 0 0 0 19.933594 21.347656 L 21.292969 22.707031 A 1 1 0 0 0 22.707031 22.707031 A 1 1 0 0 0 22.707031 21.292969 L 18.564453 17.152344 L 9.9882812 8.5742188 L 2.7070312 1.2929688 A 1 1 0 0 0 2 1 z M 12 1 A 1.0001 1.0001 0 0 0 11.0625 1.6542969 L 9.8925781 4.8242188 A 1 1 0 0 0 10.484375 6.1074219 A 1 1 0 0 0 11.767578 5.515625 L 11.998047 4.8925781 L 13.591797 9.2246094 A 1 1 0 0 0 14.875 9.8183594 A 1 1 0 0 0 15.46875 8.5351562 L 12.939453 1.6542969 A 1.0001 1.0001 0 0 0 12 1 z M 9.7070312 11.121094 L 16.96875 18.382812 L 17.111328 18.767578 L 12.496094 16.130859 A 1.0001 1.0001 0 0 0 11.503906 16.130859 L 6.8886719 18.769531 L 9.7070312 11.121094 z "/>
</svg>
