<?xml version="1.0" encoding="UTF-8" standalone="no"?>
<svg
   width="24"
   height="24"
   viewBox="0 0 24 24"
   fill="none"
   stroke="currentColor"
   stroke-width="2"
   stroke-linecap="round"
   stroke-linejoin="round"
   version="1.1"
   id="svg4"
   xmlns="http://www.w3.org/2000/svg"
   xmlns:svg="http://www.w3.org/2000/svg">
  <defs
     id="defs4" />
  <path
     id="path1"
     style="color:#000000;fill:#000000;-inkscape-stroke:none"
     d="M 16.244141 1.0078125 A 1 1 0 0 0 15.873047 1.1308594 A 1 1 0 0 0 15.501953 2.4960938 C 18.867092 8.3867744 18.867092 15.613226 15.501953 21.503906 A 1 1 0 0 0 15.873047 22.869141 A 1 1 0 0 0 17.238281 22.496094 C 20.953085 15.993324 20.953085 8.0066758 17.238281 1.5039062 A 1 1 0 0 0 16.632812 1.0351562 A 1 1 0 0 0 16.244141 1.0078125 z M 12.912109 3.0996094 A 1 1 0 0 0 12.412109 3.2324219 A 1 1 0 0 0 12.042969 4.5976562 C 14.670554 9.1842268 14.672571 14.814403 12.050781 19.404297 A 1 1 0 0 0 12.423828 20.767578 A 1 1 0 0 0 13.789062 20.396484 C 16.760898 15.193773 16.755751 8.8024619 13.777344 3.6035156 A 1 1 0 0 0 13.171875 3.1347656 A 1 1 0 0 0 12.912109 3.0996094 z M 9.46875 5.2089844 A 1 1 0 0 0 8.9667969 5.3398438 A 1 1 0 0 0 8.5898438 6.703125 C 10.449907 9.9914517 10.449907 14.008548 8.5898438 17.296875 A 1 1 0 0 0 8.9667969 18.660156 A 1 1 0 0 0 10.330078 18.283203 C 12.534293 14.386467 12.534293 9.6135328 10.330078 5.7167969 A 1 1 0 0 0 9.7265625 5.2460938 A 1 1 0 0 0 9.46875 5.2089844 z M 6.0058594 7.3203125 A 1 1 0 0 0 5.5039062 7.4511719 A 1 1 0 0 0 5.1308594 8.8144531 C 6.2570492 10.789769 6.2570492 13.210231 5.1308594 15.185547 A 1 1 0 0 0 5.5039062 16.548828 A 1 1 0 0 0 6.8691406 16.175781 C 8.3438803 13.589117 8.3438803 10.410883 6.8691406 7.8242188 A 1 1 0 0 0 6.2636719 7.3554688 A 1 1 0 0 0 6.0058594 7.3203125 z "
     stroke-width="0" />
</svg>
