<?xml version="1.0" encoding="UTF-8" standalone="no"?>
<svg xmlns="http://www.w3.org/2000/svg" xmlns:svg="http://www.w3.org/2000/svg" width="24" height="24" viewBox="0 0 24 24" fill="currentColor" tags="hazelnut,acorn,food,allergy,intolerance,diet" categories="food-beverage">
  
  <path d="M 2 1 A 1 1 0 0 0 1.2929688 1.2929688 A 1 1 0 0 0 1.2929688 2.7070312 L 4.3007812 5.7148438 C 3.6833341 6.3039552 3.2242243 6.9781027 3.0292969 7.7578125 C 2.8538716 8.4580697 2.3111289 9.3055326 1.3046875 10.28125 A 1.0001 1.0001 0 0 0 2.0625 11.998047 C 2.793827 11.952268 3.4134861 11.806727 4 11.580078 L 4 14 C 4.000389 17.654965 6.4891344 20.854642 10.03125 21.755859 A 1.0001 1.0001 0 0 0 10.033203 21.755859 C 10.313118 21.826519 10.530581 21.944645 10.671875 22.085938 L 11.292969 22.707031 A 1.0001 1.0001 0 0 0 12.707031 22.707031 L 13.328125 22.085938 C 13.469419 21.944645 13.686882 21.826518 13.966797 21.755859 A 1.0001 1.0001 0 0 0 13.970703 21.755859 C 15.510914 21.363508 16.889154 20.522698 17.941406 19.355469 L 21.292969 22.707031 A 1 1 0 0 0 22.707031 22.707031 A 1 1 0 0 0 22.707031 21.292969 L 18.595703 17.183594 L 12.738281 11.326172 L 2.7070312 1.2929688 A 1 1 0 0 0 2 1 z M 12 1 A 1 1 0 0 0 11 2 L 11 3.0410156 C 10.548807 3.0753546 10.105041 3.1294254 9.6738281 3.2070312 A 1 1 0 0 0 8.8652344 4.3691406 A 1 1 0 0 0 10.027344 5.1757812 C 10.659375 5.062034 11.321263 5 12 5 C 13.83333 5 15.566683 5.4673656 16.849609 6.1367188 C 18.132537 6.806072 18.893431 7.6987262 19.029297 8.2421875 C 19.094844 8.5049192 19.244749 8.7903937 19.373047 9.0722656 A 1 1 0 0 0 19 9 A 1 1 0 0 0 18.052734 9.6933594 A 1.0001 1.0001 0 0 0 18.044922 9.7050781 C 17.820799 10.432665 17.751089 10.504417 16.986328 10.898438 A 1 1 0 0 0 16.554688 12.244141 A 1 1 0 0 0 17.902344 12.675781 C 17.936026 12.658427 17.967248 12.639264 18 12.621094 L 18 13.34375 A 1 1 0 0 0 19 14.34375 A 1 1 0 0 0 20 13.34375 L 20 11.679688 C 20.647587 11.950048 21.33593 12.085554 22.119141 11.992188 A 1.0001 1.0001 0 0 0 22.625 10.21875 C 21.481429 9.3053038 21.179341 8.5940878 20.970703 7.7578125 C 20.606569 6.3012778 19.367458 5.1939251 17.775391 4.3632812 C 16.431716 3.6622339 14.783476 3.1784206 13 3.0429688 L 13 2 A 1 1 0 0 0 12 1 z M 5.7207031 7.1347656 L 8.4121094 9.8261719 C 8.1032641 10.231295 7.7569843 10.476746 7.1601562 10.78125 C 6.6338468 10.406421 6.2426792 10.140522 5.8632812 9.4941406 A 1.0001 1.0001 0 0 0 5.8574219 9.4882812 A 1 1 0 0 0 5 9 A 1 1 0 0 0 4.578125 9.1035156 C 4.717586 8.8187998 4.8957683 8.5413104 4.9707031 8.2421875 C 5.0444318 7.9472729 5.2963253 7.5449631 5.7207031 7.1347656 z M 9.5019531 11.515625 C 10.014616 12.023551 10.607989 12.464662 11.421875 12.835938 L 16.527344 17.941406 C 15.729356 18.858046 14.666628 19.515204 13.476562 19.818359 C 12.962815 19.948245 12.443394 20.212478 12 20.625 C 11.556606 20.212478 11.037143 19.948245 10.523438 19.818359 L 10.521484 19.818359 C 7.8568665 19.139537 6.0002926 16.749931 6 14 L 6 12.503906 C 6.141154 12.62208 6.2927058 12.736806 6.4648438 12.845703 A 1.0001 1.0001 0 0 0 7.40625 12.914062 C 8.3588841 12.489576 8.9830392 12.025099 9.5019531 11.515625 z "/>
</svg>
