<?xml version="1.0" encoding="UTF-8" standalone="no"?>
<svg
   width="24"
   height="24"
   viewBox="0 0 24 24"
   fill="none"
   stroke="currentColor"
   stroke-width="2"
   stroke-linecap="round"
   stroke-linejoin="round"
   version="1.1"
   id="svg3"
   xmlns="http://www.w3.org/2000/svg"
   xmlns:svg="http://www.w3.org/2000/svg">
  <defs
     id="defs3" />
  <path
     id="path1"
     style="color:#000000;fill:#000000;-inkscape-stroke:none"
     d="M 12 1 A 1 1 0 0 0 11 2 L 11 3.0429688 C 9.2165247 3.1784206 7.5682836 3.6622339 6.2246094 4.3632812 C 4.6325421 5.1939251 3.3934305 6.3012778 3.0292969 7.7578125 C 2.8538716 8.4580697 2.3111289 9.3055326 1.3046875 10.28125 A 1.0001 1.0001 0 0 0 2.0625 11.998047 C 2.793827 11.952268 3.4134861 11.806727 4 11.580078 L 4 14 C 4.000389 17.654965 6.4891344 20.854642 10.03125 21.755859 A 1.0001 1.0001 0 0 0 10.033203 21.755859 C 10.313118 21.826519 10.530581 21.944645 10.671875 22.085938 L 11.292969 22.707031 A 1.0001 1.0001 0 0 0 12.707031 22.707031 L 13.328125 22.085938 C 13.469419 21.944645 13.686882 21.826518 13.966797 21.755859 A 1.0001 1.0001 0 0 0 13.96875 21.755859 C 17.511065 20.854986 20.000017 17.655166 20 14 L 20 11.681641 C 20.647518 11.952091 21.336093 12.085534 22.119141 11.992188 A 1.0001 1.0001 0 0 0 22.625 10.21875 C 21.481429 9.3053038 21.179341 8.5940878 20.970703 7.7578125 C 20.606569 6.3012778 19.367458 5.1939251 17.775391 4.3632812 C 16.431716 3.6622339 14.783476 3.1784206 13 3.0429688 L 13 2 A 1 1 0 0 0 12 1 z M 12 5 C 13.83333 5 15.566683 5.4673656 16.849609 6.1367188 C 18.132537 6.806072 18.893431 7.6987262 19.029297 8.2421875 C 19.094844 8.5049192 19.244749 8.7903937 19.373047 9.0722656 A 1 1 0 0 0 19 9 A 1 1 0 0 0 18.064453 9.6738281 A 1.0001 1.0001 0 0 0 18.044922 9.703125 C 17.914649 10.123663 17.810216 10.295038 17.634766 10.466797 C 17.524391 10.574849 17.222456 10.723716 16.976562 10.859375 C 16.174401 10.475824 15.812597 10.193293 15.339844 9.4589844 A 1.0001 1.0001 0 0 0 13.671875 9.4394531 C 13.194549 10.144219 12.722521 10.411055 11.908203 10.830078 C 11.146906 10.468518 10.780548 10.193909 10.357422 9.4863281 A 1.0001 1.0001 0 0 0 8.6445312 9.4824219 C 8.2630258 10.112674 7.9093562 10.399005 7.1601562 10.78125 C 6.6338468 10.406421 6.2426792 10.140522 5.8632812 9.4941406 A 1.0001 1.0001 0 0 0 5.8574219 9.4882812 A 1 1 0 0 0 5 9 A 1 1 0 0 0 4.578125 9.1035156 C 4.717586 8.8187998 4.8957683 8.5413104 4.9707031 8.2421875 C 5.1065685 7.6987262 5.8674637 6.806072 7.1503906 6.1367188 C 8.4333175 5.4673656 10.166671 5 12 5 z M 14.488281 11.482422 C 15.039539 12.035891 15.672899 12.516649 16.603516 12.917969 A 1.0001 1.0001 0 0 0 17.412109 12.910156 C 17.621137 12.815411 17.814231 12.719674 18 12.621094 L 18 14 C 18.000013 16.750588 16.142299 19.140434 13.476562 19.818359 C 12.962856 19.948245 12.443394 20.212478 12 20.625 C 11.556606 20.212478 11.037143 19.948245 10.523438 19.818359 L 10.521484 19.818359 C 7.8568665 19.139537 6.0002926 16.749931 6 14 L 6 12.503906 C 6.141154 12.62208 6.2927058 12.736806 6.4648438 12.845703 A 1.0001 1.0001 0 0 0 7.40625 12.914062 C 8.3588841 12.489576 8.9830392 12.025099 9.5019531 11.515625 C 10.053772 12.062345 10.695665 12.531815 11.609375 12.919922 A 1.0001 1.0001 0 0 0 12.427734 12.904297 C 13.3222 12.480279 13.942958 12.012433 14.488281 11.482422 z "
     stroke-width="0" />
</svg>
