<?xml version="1.0" encoding="UTF-8" standalone="no"?>
<svg xmlns="http://www.w3.org/2000/svg" xmlns:svg="http://www.w3.org/2000/svg" width="24" height="24" viewBox="0 0 24 24" fill="currentColor" tags="keyboard,key,mac,alt,button" categories="development">
  
  <path d="M 3 2 A 1 1 0 0 0 2 3 A 1 1 0 0 0 3 4 L 8.2792969 4 L 14.050781 21.316406 A 1.0001 1.0001 0 0 0 15 22 L 21 22 A 1 1 0 0 0 22 21 A 1 1 0 0 0 21 20 L 15.720703 20 L 9.9492188 2.6835938 A 1.0001 1.0001 0 0 0 9 2 L 3 2 z M 14 2 A 1 1 0 0 0 13 3 A 1 1 0 0 0 14 4 L 21 4 A 1 1 0 0 0 22 3 A 1 1 0 0 0 21 2 L 14 2 z "/>
</svg>
