<?xml version="1.0" encoding="UTF-8" standalone="no"?>
<svg
   width="24"
   height="24"
   viewBox="0 0 24 24"
   fill="none"
   stroke="currentColor"
   stroke-width="2"
   stroke-linecap="round"
   stroke-linejoin="round"
   version="1.1"
   id="svg3"
   xmlns="http://www.w3.org/2000/svg"
   xmlns:svg="http://www.w3.org/2000/svg">
  <defs
     id="defs3" />
  <path
     id="polyline1"
     style="color:#000000;fill:#000000;-inkscape-stroke:none"
     d="M 11 5 A 1 1 0 0 0 10 6 A 1 1 0 0 0 11 7 L 21 7 A 1 1 0 0 0 22 6 A 1 1 0 0 0 21 5 L 11 5 z M 7 7 A 1 1 0 0 0 6.2929688 7.2929688 L 2.2929688 11.292969 A 1.0001 1.0001 0 0 0 2.2929688 12.707031 L 6.2929688 16.707031 A 1 1 0 0 0 7.7070312 16.707031 A 1 1 0 0 0 7.7070312 15.292969 L 4.4140625 12 L 7.7070312 8.7070312 A 1 1 0 0 0 7.7070312 7.2929688 A 1 1 0 0 0 7 7 z M 11 11 A 1 1 0 0 0 10 12 A 1 1 0 0 0 11 13 L 21 13 A 1 1 0 0 0 22 12 A 1 1 0 0 0 21 11 L 11 11 z M 11 17 A 1 1 0 0 0 10 18 A 1 1 0 0 0 11 19 L 21 19 A 1 1 0 0 0 22 18 A 1 1 0 0 0 21 17 L 11 17 z "
     stroke-width="0" />
</svg>
