<?xml version="1.0" encoding="UTF-8" standalone="no"?>
<svg
   width="24"
   height="24"
   viewBox="0 0 24 24"
   fill="none"
   stroke="currentColor"
   stroke-width="2"
   stroke-linecap="round"
   stroke-linejoin="round"
   version="1.1"
   id="svg4"
   xmlns="http://www.w3.org/2000/svg"
   xmlns:svg="http://www.w3.org/2000/svg">
  <defs
     id="defs4" />
  <path
     id="circle1"
     style="color:#000000;fill:#000000;-inkscape-stroke:none"
     d="M 12 1 C 5.9545575 1 1 5.9545575 1 12 C 1 18.045442 5.9545575 23 12 23 C 13.463075 23 14.648437 21.765467 14.648438 20.3125 C 14.648438 19.600902 14.363478 18.97987 13.958984 18.523438 A 1.0001 1.0001 0 0 0 13.916016 18.478516 C 13.802086 18.364976 13.773437 18.326902 13.773438 18.0625 A 1.0001 1.0001 0 0 0 13.773438 18.060547 A 1.0001 1.0001 0 0 0 13.773438 18.058594 A 1.0001 1.0001 0 0 0 13.773438 18.056641 A 1.0001 1.0001 0 0 0 13.773438 18.054688 A 1.0001 1.0001 0 0 0 13.773438 18.052734 A 1.0001 1.0001 0 0 0 13.773438 18.050781 A 1.0001 1.0001 0 0 0 13.773438 18.048828 A 1.0001 1.0001 0 0 0 13.773438 18.046875 A 1.0001 1.0001 0 0 0 13.773438 18.044922 C 13.766938 17.669703 14.04861 17.388068 14.423828 17.394531 A 1.0001 1.0001 0 0 0 14.441406 17.394531 L 16.4375 17.394531 C 20.035417 17.394531 22.992188 14.437979 22.992188 10.839844 A 1.0001 1.0001 0 0 0 22.992188 10.837891 A 1.0001 1.0001 0 0 0 22.992188 10.835938 A 1.0001 1.0001 0 0 0 22.992188 10.833984 C 22.961728 5.3872371 17.950764 1 12 1 z M 12 3 C 16.970449 3 20.96743 6.6353829 20.992188 10.84375 C 20.989988 13.345791 18.940241 15.394531 16.4375 15.394531 L 14.458984 15.394531 C 12.981837 15.369091 11.757193 16.596176 11.777344 18.072266 C 11.780144 18.750282 12.042277 19.432548 12.505859 19.894531 L 12.462891 19.849609 C 12.572398 19.973174 12.648437 20.1501 12.648438 20.3125 C 12.648438 20.74353 12.388923 21 12 21 C 7.0454645 21 3 16.954535 3 12 C 3 7.0454645 7.0454645 3 12 3 z M 13.5 5 C 12.683419 5 12 5.6834191 12 6.5 C 12 7.3165809 12.683419 8 13.5 8 C 14.316581 8 15 7.3165809 15 6.5 C 15 5.6834191 14.316581 5 13.5 5 z M 8.5 6 C 7.6834191 6 7 6.6834191 7 7.5 C 7 8.3165809 7.6834191 9 8.5 9 C 9.3165809 9 10 8.3165809 10 7.5 C 10 6.6834191 9.3165809 6 8.5 6 z M 13.5 6 C 13.764297 6 14 6.2357028 14 6.5 C 14 6.7642972 13.764297 7 13.5 7 C 13.235703 7 13 6.7642972 13 6.5 C 13 6.2357028 13.235703 6 13.5 6 z M 8.5 7 C 8.7642972 7 9 7.2357028 9 7.5 C 9 7.7642972 8.7642972 8 8.5 8 C 8.2357028 8 8 7.7642972 8 7.5 C 8 7.2357028 8.2357028 7 8.5 7 z M 17.5 9 C 16.683419 9 16 9.6834191 16 10.5 C 16 11.316581 16.683419 12 17.5 12 C 18.316581 12 19 11.316581 19 10.5 C 19 9.6834191 18.316581 9 17.5 9 z M 17.5 10 C 17.764297 10 18 10.235703 18 10.5 C 18 10.764297 17.764297 11 17.5 11 C 17.235703 11 17 10.764297 17 10.5 C 17 10.235703 17.235703 10 17.5 10 z M 6.5 11 C 5.6834191 11 5 11.683419 5 12.5 C 5 13.316581 5.6834191 14 6.5 14 C 7.3165809 14 8 13.316581 8 12.5 C 8 11.683419 7.3165809 11 6.5 11 z M 6.5 12 C 6.7642972 12 7 12.235703 7 12.5 C 7 12.764297 6.7642972 13 6.5 13 C 6.2357028 13 6 12.764297 6 12.5 C 6 12.235703 6.2357028 12 6.5 12 z "
     stroke-width="0" />
</svg>
