<?xml version="1.0" encoding="UTF-8" standalone="no"?>
<svg
   width="24"
   height="24"
   viewBox="0 0 24 24"
   fill="none"
   stroke="currentColor"
   stroke-width="2"
   stroke-linecap="round"
   stroke-linejoin="round"
   version="1.1"
   id="svg1"
   xmlns="http://www.w3.org/2000/svg"
   xmlns:svg="http://www.w3.org/2000/svg">
  <defs
     id="defs1" />
  <path
     id="path1"
     style="color:#000000;fill:#000000;-inkscape-stroke:none"
     d="M 14.914062 0.9375 C 13.779015 0.9961098 12.603004 1.4909673 11.623047 2.4726562 L 3.0527344 11.042969 C 1.4609614 12.634741 0.79966004 14.53954 0.90429688 16.318359 C 1.0089337 18.09718 1.834352 19.728883 3.0527344 20.947266 C 4.2711167 22.165647 5.902821 22.991066 7.6816406 23.095703 C 9.4604603 23.20034 11.365259 22.539038 12.957031 20.947266 L 22.146484 11.757812 A 1 1 0 0 0 22.146484 10.34375 A 1 1 0 0 0 20.732422 10.34375 L 11.542969 19.533203 C 10.304748 20.771424 9.0268769 21.171848 7.7988281 21.099609 C 6.5707795 21.027371 5.3709103 20.437316 4.4667969 19.533203 C 3.5626835 18.62909 2.9726291 17.429221 2.9003906 16.201172 C 2.8281522 14.973123 3.2285767 13.695252 4.4667969 12.457031 L 13.037109 3.8867188 C 13.803821 3.1186533 14.553423 2.8933779 15.28125 2.9355469 C 16.009077 2.9777158 16.737587 3.3323097 17.289062 3.8828125 C 17.840539 4.4333153 18.194828 5.1609201 18.238281 5.8886719 C 18.281731 6.6164236 18.059679 7.3647472 17.292969 8.1328125 L 8.703125 16.701172 A 1.0001 1.0001 0 0 0 8.703125 16.703125 C 8.4082359 16.997967 8.190603 17.04453 7.9648438 17.03125 C 7.7390846 17.01797 7.4837242 16.89974 7.2871094 16.703125 C 7.0904945 16.50651 6.9722644 16.251149 6.9589844 16.025391 C 6.9457044 15.799631 6.9922203 15.581999 7.2871094 15.287109 L 15.777344 6.8066406 A 1 1 0 0 0 15.777344 5.3925781 A 1 1 0 0 0 14.363281 5.3925781 L 5.8730469 13.873047 C 5.2246049 14.521488 4.9172123 15.366048 4.9628906 16.142578 C 5.0085696 16.919108 5.3621631 17.606304 5.8730469 18.117188 C 6.3839306 18.628072 7.0711261 18.981665 7.8476562 19.027344 C 8.6241865 19.073024 9.468745 18.76563 10.117188 18.117188 L 18.707031 9.5488281 A 1.0001 1.0001 0 0 0 18.707031 9.546875 C 19.826983 8.4249418 20.310713 7.0480252 20.234375 5.7695312 C 20.158037 4.4910374 19.567193 3.3312911 18.701172 2.4667969 C 17.83515 1.6023025 16.675111 1.0135343 15.396484 0.93945312 C 15.236656 0.93019297 15.076212 0.92912717 14.914062 0.9375 z "
     stroke-width="0" />
</svg>
