<?xml version="1.0" encoding="UTF-8" standalone="no"?>
<svg xmlns="http://www.w3.org/2000/svg" xmlns:svg="http://www.w3.org/2000/svg" width="24" height="24" viewBox="0 0 24 24" fill="currentColor" tags="code,token,parenthesis,parens,brackets,parameters,arguments,args,input,call,maths,formula,function,(,)" categories="development,files,maths">
  
  <path d="M 8.140625 2.0097656 A 1 1 0 0 0 7.4003906 2.1992188 C 7.4003906 2.1992188 3 5.5555684 3 12 C 3 18.444432 7.4003906 21.800781 7.4003906 21.800781 A 1 1 0 0 0 8.8007812 21.599609 A 1 1 0 0 0 8.5996094 20.199219 C 8.5996094 20.199219 5 17.555544 5 12 C 5 6.4444556 8.5996094 3.8007813 8.5996094 3.8007812 A 1 1 0 0 0 8.8007812 2.4003906 A 1 1 0 0 0 8.140625 2.0097656 z M 15.859375 2.0097656 A 1 1 0 0 0 15.199219 2.4003906 A 1 1 0 0 0 15.400391 3.8007812 C 15.400391 3.8007812 19 6.4444556 19 12 C 19 17.555544 15.400391 20.199219 15.400391 20.199219 A 1 1 0 0 0 15.199219 21.599609 A 1 1 0 0 0 16.599609 21.800781 C 16.599609 21.800781 21 18.444432 21 12 C 21 5.5555684 16.599609 2.1992187 16.599609 2.1992188 A 1 1 0 0 0 15.859375 2.0097656 z "/>
</svg>
