<?xml version="1.0" encoding="UTF-8" standalone="no"?>
<svg
   width="24"
   height="24"
   viewBox="0 0 24 24"
   fill="none"
   stroke="currentColor"
   stroke-width="2"
   stroke-linecap="round"
   stroke-linejoin="round"
   version="1.1"
   id="svg3"
   xmlns="http://www.w3.org/2000/svg"
   xmlns:svg="http://www.w3.org/2000/svg">
  <defs
     id="defs3" />
  <path
     id="circle1"
     style="color:#000000;fill:#000000;-inkscape-stroke:none"
     d="M 12 1 C 5.9367246 1 1 5.9367246 1 12 C 1 18.063276 5.9367246 23 12 23 C 18.063276 23 23 18.063276 23 12 C 23 5.9367246 18.063276 1 12 1 z M 12 3 C 16.982397 3 21 7.0176026 21 12 C 21 14.129589 20.264725 16.082405 19.035156 17.621094 L 14.951172 13.537109 C 15.357405 13.325348 15.711517 13.048908 15.998047 12.726562 C 16.681318 11.957881 17 10.97222 17 10 C 17 9.0277798 16.681318 8.0421178 15.998047 7.2734375 C 15.314776 6.5047572 14.249997 6 13 6 L 9 6 A 1.0001 1.0001 0 0 0 8.0683594 6.6542969 L 6.3789062 4.9648438 C 7.9175954 3.735275 9.8704113 3 12 3 z M 4.9648438 6.3789062 L 17.621094 19.035156 C 16.082405 20.264725 14.129589 21 12 21 C 7.0176026 21 3 16.982397 3 12 C 3 9.8704113 3.735275 7.9175954 4.9648438 6.3789062 z M 10 8 L 13 8 C 13.749998 8 14.185226 8.2452452 14.501953 8.6015625 C 14.81868 8.9578798 15 9.4722232 15 10 C 15 10.527776 14.81868 11.04212 14.501953 11.398438 C 14.244613 11.687945 13.909698 11.903719 13.390625 11.974609 L 10 8.5859375 L 10 8 z M 9 13.660156 A 1 1 0 0 0 8 14.660156 L 8 17 A 1 1 0 0 0 9 18 A 1 1 0 0 0 10 17 L 10 14.660156 A 1 1 0 0 0 9 13.660156 z "
     stroke-width="0" />
</svg>
