<?xml version="1.0" encoding="UTF-8" standalone="no"?>
<svg
   width="24"
   height="24"
   viewBox="0 0 24 24"
   fill="none"
   stroke="currentColor"
   stroke-width="2"
   stroke-linecap="round"
   stroke-linejoin="round"
   version="1.1"
   id="svg1"
   xmlns="http://www.w3.org/2000/svg"
   xmlns:svg="http://www.w3.org/2000/svg">
  <defs
     id="defs1" />
  <path
     id="rect1"
     style="color:#000000;fill:#000000;-inkscape-stroke:none"
     d="M 5 2 C 3.3553005 2 2 3.3553005 2 5 L 2 19 C 2 20.644699 3.3553005 22 5 22 L 19 22 C 20.644699 22 22 20.644699 22 19 L 22 5 C 22 3.3553005 20.644699 2 19 2 L 5 2 z M 5 4 L 19 4 C 19.571296 4 20 4.4287039 20 5 L 20 19 C 20 19.571296 19.571296 20 19 20 L 5 20 C 4.4287039 20 4 19.571296 4 19 L 4 5 C 4 4.4287039 4.4287039 4 5 4 z M 9 6 A 1.0001 1.0001 0 0 0 8 7 L 8 13 L 8 17 A 1 1 0 0 0 9 18 A 1 1 0 0 0 10 17 L 10 14 L 13 14 C 14.249997 14 15.314776 13.495243 15.998047 12.726562 C 16.681318 11.957881 17 10.97222 17 10 C 17 9.0277798 16.681318 8.0421178 15.998047 7.2734375 C 15.314776 6.5047572 14.249997 6 13 6 L 9 6 z M 10 8 L 13 8 C 13.749998 8 14.185226 8.2452452 14.501953 8.6015625 C 14.81868 8.9578798 15 9.4722232 15 10 C 15 10.527776 14.81868 11.04212 14.501953 11.398438 C 14.185226 11.754754 13.749998 12 13 12 L 10 12 L 10 8 z "
     stroke-width="0" />
</svg>
