<?xml version="1.0" encoding="UTF-8" standalone="no"?>
<svg xmlns="http://www.w3.org/2000/svg" xmlns:svg="http://www.w3.org/2000/svg" width="24" height="24" viewBox="0 0 24 24" fill="currentColor" tags="music,stop" categories="multimedia">
  
  <path d="M 6 3 A 1.0001 1.0001 0 0 0 5 4 L 5 20 A 1.0001 1.0001 0 0 0 6 21 L 10 21 A 1.0001 1.0001 0 0 0 11 20 L 11 4 A 1.0001 1.0001 0 0 0 10 3 L 6 3 z M 14 3 A 1.0001 1.0001 0 0 0 13 4 L 13 20 A 1.0001 1.0001 0 0 0 14 21 L 18 21 A 1.0001 1.0001 0 0 0 19 20 L 19 4 A 1.0001 1.0001 0 0 0 18 3 L 14 3 z M 7 5 L 9 5 L 9 19 L 7 19 L 7 5 z M 15 5 L 17 5 L 17 19 L 15 19 L 15 5 z "/>
</svg>
