<?xml version="1.0" encoding="UTF-8" standalone="no"?>
<svg xmlns="http://www.w3.org/2000/svg" xmlns:svg="http://www.w3.org/2000/svg" width="24" height="24" viewBox="0 0 24 24" fill="currentColor" tags="computer,chassis" categories="devices,gaming">
  
  <path d="M 7 1 C 5.3553005 1 4 2.3553005 4 4 L 4 20 C 4 21.644699 5.3553005 23 7 23 L 17 23 C 18.644699 23 20 21.644699 20 20 L 20 4 C 20 2.3553005 18.644699 1 17 1 L 7 1 z M 7 3 L 17 3 C 17.571296 3 18 3.4287039 18 4 L 18 20 C 18 20.571296 17.571296 21 17 21 L 7 21 C 6.4287039 21 6 20.571296 6 20 L 6 4 C 6 3.4287039 6.4287039 3 7 3 z M 9 5 A 1 1 0 0 0 8 6 A 1 1 0 0 0 9 7 L 15 7 A 1 1 0 0 0 16 6 A 1 1 0 0 0 15 5 L 9 5 z M 9 9 A 1 1 0 0 0 8 10 A 1 1 0 0 0 9 11 L 15 11 A 1 1 0 0 0 16 10 A 1 1 0 0 0 15 9 L 9 9 z M 15 13 A 1 1 0 0 0 14 14 A 1 1 0 0 0 15 15 L 15.009766 15 A 1 1 0 0 0 16.009766 14 A 1 1 0 0 0 15.009766 13 L 15 13 z "/>
</svg>
