<?xml version="1.0" encoding="UTF-8" standalone="no"?>
<svg xmlns="http://www.w3.org/2000/svg" xmlns:svg="http://www.w3.org/2000/svg" width="24" height="24" viewBox="0 0 24 24" fill="currentColor" tags="pencil,change,create,draw,sketch,draft,writer,writing,biro,ink,marker,felt tip,stationery,artist" categories="text">
  
  <path d="M 19.847656 0.84570312 C 19.130357 0.88402408 18.385147 1.2007905 17.792969 1.7929688 L 8.2929688 11.292969 A 1.0001 1.0001 0 0 0 8.0292969 11.757812 L 7.0292969 15.757812 A 1.0001 1.0001 0 0 0 8.2421875 16.970703 L 12.242188 15.970703 A 1.0001 1.0001 0 0 0 12.707031 15.707031 L 22.207031 6.2070312 C 22.883807 5.5302561 23.201746 4.6542905 23.154297 3.8476562 C 23.106848 3.0410219 22.739165 2.3251025 22.207031 1.7929688 C 21.674898 1.2608351 20.958978 0.89315237 20.152344 0.84570312 C 20.051514 0.83977197 19.950128 0.8402287 19.847656 0.84570312 z M 20.035156 2.8417969 C 20.29102 2.8568479 20.575104 2.9891664 20.792969 3.2070312 C 21.010834 3.424896 21.143152 3.7089803 21.158203 3.9648438 C 21.173253 4.2207071 21.116192 4.4697465 20.792969 4.7929688 L 11.488281 14.097656 L 9.375 14.625 L 9.9023438 12.511719 L 19.207031 3.2070312 C 19.530254 2.8838089 19.779294 2.826746 20.035156 2.8417969 z M 4 3 C 2.3549936 3 1 4.3549936 1 6 L 1 20 C 1 21.645006 2.3549936 23 4 23 L 18 23 C 19.645006 23 21 21.645006 21 20 L 21 13 A 1 1 0 0 0 20 12 A 1 1 0 0 0 19 13 L 19 20 C 19 20.564128 18.564128 21 18 21 L 4 21 C 3.4358718 21 3 20.564128 3 20 L 3 6 C 3 5.4358718 3.4358718 5 4 5 L 11 5 A 1 1 0 0 0 12 4 A 1 1 0 0 0 11 3 L 4 3 z "/>
</svg>
