<?xml version="1.0" encoding="UTF-8" standalone="no"?>
<svg xmlns="http://www.w3.org/2000/svg" xmlns:svg="http://www.w3.org/2000/svg" width="24" height="24" viewBox="0 0 24 24" fill="currentColor" tags="vector,drawing,path" categories="text,design,cursors">
  
  <path d="M 2 1 A 1 1 0 0 0 1.8789062 1.015625 A 1.0001 1.0001 0 0 0 1.796875 1.0253906 A 1 1 0 0 0 1.4726562 1.15625 A 1.0001 1.0001 0 0 0 1.4179688 1.1972656 A 1 1 0 0 0 1.2929688 1.2929688 A 1 1 0 0 0 1.2167969 1.3984375 A 1.0001 1.0001 0 0 0 1.1464844 1.4960938 A 1 1 0 0 0 1.03125 1.7832031 A 1.0001 1.0001 0 0 0 1.0136719 1.8359375 A 1 1 0 0 0 1.0253906 2.2011719 A 1.0001 1.0001 0 0 0 1.0273438 2.234375 L 4.5273438 16.734375 A 1.0001 1.0001 0 0 0 5.3046875 17.480469 L 11.080078 18.634766 A 1.0001 1.0001 0 0 0 11.292969 19.707031 L 14.292969 22.707031 A 1.0001 1.0001 0 0 0 15.707031 22.707031 L 22.707031 15.707031 A 1.0001 1.0001 0 0 0 22.707031 14.292969 L 19.707031 11.292969 A 1.0001 1.0001 0 0 0 18.634766 11.080078 L 17.480469 5.3046875 A 1.0001 1.0001 0 0 0 16.734375 4.5273438 L 2.2597656 1.0332031 A 1 1 0 0 0 2.2578125 1.0332031 L 2.234375 1.0273438 A 1.0001 1.0001 0 0 0 2.2070312 1.0273438 A 1 1 0 0 0 2 1 z M 5.2207031 3.8066406 L 15.644531 6.3222656 L 16.914062 12.671875 L 12.671875 16.914062 L 6.3222656 15.644531 L 3.8066406 5.2207031 L 8.296875 9.7109375 C 8.107873 10.102617 8 10.539505 8 11 C 8 12.645006 9.3549936 14 11 14 C 12.645006 14 14 12.645006 14 11 C 14 9.3549936 12.645006 8 11 8 C 10.539505 8 10.102617 8.107873 9.7109375 8.296875 L 5.2207031 3.8066406 z M 11 10 C 11.564128 10 12 10.435872 12 11 C 12 11.564128 11.564128 12 11 12 C 10.435872 12 10 11.564128 10 11 C 10 10.727648 10.102914 10.486542 10.271484 10.308594 A 1 1 0 0 0 10.292969 10.292969 A 1 1 0 0 0 10.332031 10.25 C 10.507566 10.094297 10.739401 10 11 10 z M 19 13.414062 L 20.585938 15 L 15 20.585938 L 13.414062 19 L 13.707031 18.707031 L 18.707031 13.707031 L 19 13.414062 z "/>
</svg>
