<?xml version="1.0" encoding="UTF-8" standalone="no"?>
<svg
   width="24"
   height="24"
   viewBox="0 0 24 24"
   fill="none"
   stroke="currentColor"
   stroke-width="2"
   stroke-linecap="round"
   stroke-linejoin="round"
   version="1.1"
   id="svg6"
   xmlns="http://www.w3.org/2000/svg"
   xmlns:svg="http://www.w3.org/2000/svg">
  <defs
     id="defs6" />
  <path
     id="path1"
     style="color:#000000;fill:#000000;-inkscape-stroke:none"
     d="M 18.982422 0.95507812 C 18.108323 1.0006623 17.200902 1.3850356 16.462891 2.1230469 L 13 5.5859375 L 9.40625 1.9921875 A 1.0001 1.0001 0 0 0 9.40625 1.9902344 C 8.7452157 1.3323874 7.8721775 1.0039063 7 1.0039062 C 6.1278225 1.0039062 5.2547843 1.3323905 4.59375 1.9902344 A 1.0001 1.0001 0 0 0 4.59375 1.9921875 L 1.9921875 4.59375 A 1.0001 1.0001 0 0 0 1.9902344 4.59375 C 0.67454662 5.9158186 0.67454662 8.0841814 1.9902344 9.40625 A 1.0001 1.0001 0 0 0 1.9921875 9.40625 L 5.5859375 13 L 2.7929688 15.792969 A 1.0001 1.0001 0 0 0 2.5351562 16.236328 L 1.0351562 21.736328 A 1.0001 1.0001 0 0 0 2.2636719 22.964844 L 7.7636719 21.464844 A 1.0001 1.0001 0 0 0 8.2070312 21.207031 L 11 18.414062 L 14.59375 22.007812 C 15.914883 23.328946 18.085117 23.328946 19.40625 22.007812 L 22.007812 19.40625 C 23.328946 18.085117 23.328946 15.914883 22.007812 14.59375 L 20.707031 13.292969 L 18.414062 11 L 21.876953 7.5371094 C 22.720394 6.6936679 23.100835 5.6302016 23.042969 4.6464844 C 22.985103 3.6627672 22.534086 2.7801803 21.876953 2.1230469 C 21.21982 1.4659134 20.337233 1.0148971 19.353516 0.95703125 C 19.230551 0.94979801 19.107293 0.9485661 18.982422 0.95507812 z M 19.074219 2.9511719 C 19.128547 2.9493831 19.18221 2.9499416 19.236328 2.953125 C 19.669275 2.978592 20.120026 3.1942448 20.462891 3.5371094 C 20.805755 3.8799739 21.021407 4.3307255 21.046875 4.7636719 C 21.072345 5.1966181 20.952784 5.6331583 20.462891 6.1230469 L 19 7.5859375 L 16.414062 5 L 17.876953 3.5371094 C 18.305606 3.1084568 18.693924 2.9636934 19.074219 2.9511719 z M 7 2.9921875 C 7.356651 2.9921875 7.713303 3.1297382 7.9921875 3.40625 L 8.5859375 4 L 7.2929688 5.2929688 A 1 1 0 0 0 7.2929688 6.7070312 A 1 1 0 0 0 8.7070312 6.7070312 L 10 5.4140625 L 11.585938 7 L 7 11.585938 L 3.4082031 7.9941406 L 3.40625 7.9921875 C 2.8532264 7.4344185 2.8532264 6.5655815 3.40625 6.0078125 L 3.4082031 6.0058594 L 6.0058594 3.4082031 L 6.0078125 3.40625 C 6.286697 3.1297382 6.643349 2.9921875 7 2.9921875 z M 15 6.4140625 L 17.585938 9 L 16.292969 10.292969 L 10.292969 16.292969 L 6.9804688 19.605469 L 3.4257812 20.574219 L 4.3945312 17.019531 L 15 6.4140625 z M 17 12.414062 L 18.585938 14 L 17.292969 15.292969 A 1 1 0 0 0 17.292969 16.707031 A 1 1 0 0 0 18.707031 16.707031 L 20 15.414062 L 20.59375 16.007812 C 21.152613 16.566676 21.152613 17.433325 20.59375 17.992188 L 17.992188 20.59375 C 17.433325 21.152613 16.566676 21.152613 16.007812 20.59375 L 12.414062 17 L 17 12.414062 z "
     stroke-width="0" />
</svg>
