<?xml version="1.0" encoding="UTF-8" standalone="no"?>
<svg
   width="24"
   height="24"
   viewBox="0 0 24 24"
   fill="none"
   stroke="currentColor"
   stroke-width="2"
   stroke-linecap="round"
   stroke-linejoin="round"
   version="1.1"
   id="svg1"
   xmlns="http://www.w3.org/2000/svg"
   xmlns:svg="http://www.w3.org/2000/svg">
  <defs
     id="defs1" />
  <path
     id="path1"
     style="color:#000000;fill:#000000;-inkscape-stroke:none"
     d="M 12 2.0253906 C 11.379752 2.0253906 10.759443 2.2103874 10.228516 2.5800781 A 1.0001 1.0001 0 0 0 10.212891 2.5898438 L 2.9179688 7.8867188 C 1.8660861 8.6380635 1.3997453 10.015857 1.8632812 11.251953 L 4.6484375 19.90625 A 1.0001 1.0001 0 0 0 4.6640625 19.951172 C 5.0859127 21.076108 6.1555582 22 7.5 22 L 16.599609 22 C 17.944051 22 19.013696 21.076106 19.435547 19.951172 A 1.0001 1.0001 0 0 0 19.451172 19.90625 L 22.236328 11.251953 C 22.699865 10.015857 22.233527 8.6380635 21.181641 7.8867188 L 13.783203 2.5878906 A 1.0001 1.0001 0 0 0 13.771484 2.5800781 C 13.240558 2.2103849 12.620248 2.0253906 12 2.0253906 z M 12 4.0214844 C 12.219321 4.0214844 12.438642 4.0882199 12.628906 4.2207031 L 20.017578 9.5136719 A 1.0001 1.0001 0 0 0 20.019531 9.5136719 C 20.367646 9.7623251 20.499744 10.184927 20.363281 10.548828 A 1.0001 1.0001 0 0 0 20.347656 10.59375 L 17.5625 19.25 C 17.384072 19.723109 17.054144 20 16.599609 20 L 7.5 20 C 7.0454676 20 6.717491 19.723106 6.5390625 19.25 L 6.5371094 19.248047 L 3.7519531 10.59375 A 1.0001 1.0001 0 0 0 3.7363281 10.548828 C 3.5998654 10.184925 3.7339167 9.7623251 4.0820312 9.5136719 A 1.0001 1.0001 0 0 0 4.0878906 9.5097656 L 11.371094 4.2207031 C 11.561358 4.0882199 11.780679 4.0214844 12 4.0214844 z "
     stroke-width="0" />
</svg>
