<?xml version="1.0" encoding="UTF-8" standalone="no"?>
<svg
   width="24"
   height="24"
   viewBox="0 0 24 24"
   fill="none"
   stroke="currentColor"
   stroke-width="2"
   stroke-linecap="round"
   stroke-linejoin="round"
   version="1.1"
   id="svg4"
   xmlns="http://www.w3.org/2000/svg"
   xmlns:svg="http://www.w3.org/2000/svg">
  <defs
     id="defs4" />
  <path
     id="path1"
     style="color:#000000;fill:#000000;-inkscape-stroke:none"
     d="M 11.994141 1.0097656 C 11.118801 1.0097656 10.243816 1.3414433 9.5820312 2.0039062 L 1.9921875 9.59375 C 0.66925108 10.917511 0.66988128 13.095062 1.9941406 14.417969 L 9.5820312 22.005859 C 10.904938 23.330122 13.082489 23.330702 14.40625 22.007812 L 14.408203 22.005859 L 21.996094 14.417969 C 23.320356 13.095062 23.320937 10.917511 21.998047 9.59375 L 21.996094 9.5917969 L 14.408203 2.0039062 C 13.746375 1.3414402 12.86948 1.0097656 11.994141 1.0097656 z M 11.994141 2.9960938 C 12.353116 2.9960938 12.712611 3.1361528 12.992188 3.4160156 A 1.0001 1.0001 0 0 0 12.992188 3.4179688 L 20.582031 11.007812 A 1.0001 1.0001 0 0 0 20.583984 11.007812 C 21.143711 11.566965 21.143711 12.442801 20.583984 13.001953 A 1.0001 1.0001 0 0 0 20.582031 13.001953 L 12.992188 20.59375 C 12.433034 21.153475 11.557199 21.153475 10.998047 20.59375 L 3.40625 13.001953 C 2.8465243 12.442801 2.8465243 11.566965 3.40625 11.007812 L 10.998047 3.4179688 A 1.0001 1.0001 0 0 0 10.998047 3.4160156 C 11.277623 3.1361528 11.635164 2.9960938 11.994141 2.9960938 z M 9.1992188 8.1992188 A 1 1 0 0 0 8.1992188 9.1992188 A 1 1 0 0 0 9.1992188 10.199219 L 9.2109375 10.199219 A 1 1 0 0 0 10.210938 9.1992188 A 1 1 0 0 0 9.2109375 8.1992188 L 9.1992188 8.1992188 z M 14.5 8.5 A 1 1 0 0 0 13.792969 8.7929688 L 8.7929688 13.792969 A 1 1 0 0 0 8.7929688 15.207031 A 1 1 0 0 0 10.207031 15.207031 L 15.207031 10.207031 A 1 1 0 0 0 15.207031 8.7929688 A 1 1 0 0 0 14.5 8.5 z M 14.699219 13.800781 A 1 1 0 0 0 13.699219 14.800781 A 1 1 0 0 0 14.699219 15.800781 L 14.710938 15.800781 A 1 1 0 0 0 15.710938 14.800781 A 1 1 0 0 0 14.710938 13.800781 L 14.699219 13.800781 z "
     stroke-width="0" />
</svg>
