<?xml version="1.0" encoding="UTF-8" standalone="no"?>
<svg
   width="24"
   height="24"
   viewBox="0 0 24 24"
   fill="none"
   stroke="currentColor"
   stroke-width="2"
   stroke-linecap="round"
   stroke-linejoin="round"
   version="1.1"
   id="svg2"
   xmlns="http://www.w3.org/2000/svg"
   xmlns:svg="http://www.w3.org/2000/svg">
  <defs
     id="defs2" />
  <path
     id="line1"
     style="color:#000000;fill:#000000;-inkscape-stroke:none"
     d="M 6.5 3 C 4.5788518 3 3 4.5788518 3 6.5 C 3 8.4211482 4.5788518 10 6.5 10 C 8.4211482 10 10 8.4211482 10 6.5 C 10 4.5788518 8.4211482 3 6.5 3 z M 19 4 A 1 1 0 0 0 18.292969 4.2929688 L 4.2929688 18.292969 A 1 1 0 0 0 4.2929688 19.707031 A 1 1 0 0 0 5.7070312 19.707031 L 19.707031 5.7070312 A 1 1 0 0 0 19.707031 4.2929688 A 1 1 0 0 0 19 4 z M 6.5 5 C 7.3402701 5 8 5.6597299 8 6.5 C 8 7.3402701 7.3402701 8 6.5 8 C 5.6597299 8 5 7.3402701 5 6.5 C 5 5.6597299 5.6597299 5 6.5 5 z M 17.5 14 C 15.578852 14 14 15.578852 14 17.5 C 14 19.421148 15.578852 21 17.5 21 C 19.421148 21 21 19.421148 21 17.5 C 21 15.578852 19.421148 14 17.5 14 z M 17.5 16 C 18.34027 16 19 16.65973 19 17.5 C 19 18.34027 18.34027 19 17.5 19 C 16.65973 19 16 18.34027 16 17.5 C 16 16.65973 16.65973 16 17.5 16 z "
     stroke-width="0" />
</svg>
