<?xml version="1.0" encoding="UTF-8" standalone="no"?>
<svg
   width="24"
   height="24"
   viewBox="0 0 24 24"
   fill="none"
   stroke="currentColor"
   stroke-width="2"
   stroke-linecap="round"
   stroke-linejoin="round"
   version="1.1"
   id="svg1"
   xmlns="http://www.w3.org/2000/svg"
   xmlns:svg="http://www.w3.org/2000/svg">
  <defs
     id="defs1" />
  <path
     id="path1"
     style="color:#000000;fill:#000000;-inkscape-stroke:none"
     d="M 4.109375 1 C 2.362575 1.001645 0.96778716 2.5298196 1.125 4.2695312 A 1.0001 1.0001 0 0 0 1.125 4.2871094 C 1.4762507 7.5197315 2.5823364 10.625318 4.3515625 13.353516 A 1 1 0 0 0 5.734375 13.648438 A 1 1 0 0 0 6.0292969 12.265625 C 4.4328335 9.8038328 3.4363434 7.0025241 3.1171875 4.0859375 C 3.0657834 3.4882827 3.5090329 3.0016425 4.109375 3 L 7.109375 3 A 1.0001 1.0001 0 0 0 7.1191406 3 C 7.6288061 2.99498 8.0478087 3.3547011 8.1191406 3.859375 L 8.1191406 3.8515625 C 8.2556205 4.8863952 8.5081304 5.9009759 8.8730469 6.8789062 A 1.0001 1.0001 0 0 0 8.8730469 6.8828125 C 9.0112706 7.2505241 8.9246561 7.6581728 8.6484375 7.9375 L 7.3828125 9.203125 A 1 1 0 0 0 7.3828125 10.617188 A 1 1 0 0 0 8.796875 10.617188 L 10.066406 9.3476562 A 1.0001 1.0001 0 0 0 10.070312 9.34375 C 10.891647 8.5131719 11.156321 7.2732556 10.746094 6.1796875 L 10.746094 6.1777344 C 10.434275 5.3416705 10.21824 4.4745089 10.101562 3.5898438 A 1.0001 1.0001 0 0 0 10.099609 3.5800781 C 9.88999 2.0966953 8.597668 0.98525591 7.0996094 1 L 4.109375 1 z M 22 1 A 1 1 0 0 0 21.292969 1.2929688 L 10.001953 12.583984 A 1 1 0 0 0 9.9726562 12.603516 A 1 1 0 0 0 9.953125 12.632812 L 1.2929688 21.292969 A 1 1 0 0 0 1.2929688 22.707031 A 1 1 0 0 0 2.7070312 22.707031 L 7.8730469 17.541016 C 8.735462 18.323581 9.6625945 19.032818 10.646484 19.658203 L 10.648438 19.658203 C 13.376278 21.426869 16.480853 22.533578 19.712891 22.884766 A 1.0001 1.0001 0 0 0 19.730469 22.886719 C 21.475909 23.044463 23.007114 21.639258 23 19.886719 L 23 16.900391 C 23.01474 15.402331 21.903308 14.110056 20.419922 13.900391 A 1.0001 1.0001 0 0 0 20.410156 13.898438 C 19.525491 13.781759 18.65833 13.565732 17.822266 13.253906 L 17.820312 13.253906 C 16.726745 12.843679 15.486828 13.108352 14.65625 13.929688 A 1.0001 1.0001 0 0 0 14.652344 13.933594 L 13.994141 14.591797 C 13.353261 14.184051 12.724496 13.755894 12.138672 13.275391 L 22.707031 2.7070312 A 1 1 0 0 0 22.707031 1.2929688 A 1 1 0 0 0 22 1 z M 10.707031 14.707031 C 11.594675 15.495734 12.561746 16.191375 13.595703 16.779297 A 1.0001 1.0001 0 0 0 14.796875 16.617188 L 16.0625 15.351562 C 16.341827 15.075344 16.749473 14.988729 17.117188 15.126953 A 1.0001 1.0001 0 0 0 17.121094 15.126953 C 18.099024 15.49187 19.113603 15.744376 20.148438 15.880859 L 20.140625 15.880859 C 20.645298 15.952189 21.005016 16.371194 21 16.880859 A 1.0001 1.0001 0 0 0 21 16.890625 L 21 19.890625 A 1.0001 1.0001 0 0 0 21 19.894531 C 21.0024 20.498107 20.514591 20.944235 19.914062 20.892578 C 16.997476 20.573422 14.196167 19.576931 11.734375 17.980469 A 1.0001 1.0001 0 0 0 11.726562 17.976562 C 10.863307 17.428419 10.048687 16.807919 9.2890625 16.125 L 10.707031 14.707031 z "
     stroke-width="0" />
</svg>
