<?xml version="1.0" encoding="UTF-8" standalone="no"?>
<svg
   width="24"
   height="24"
   viewBox="0 0 24 24"
   fill="none"
   stroke="currentColor"
   stroke-width="2"
   stroke-linecap="round"
   stroke-linejoin="round"
   version="1.1"
   id="svg1"
   xmlns="http://www.w3.org/2000/svg"
   xmlns:svg="http://www.w3.org/2000/svg">
  <defs
     id="defs1" />
  <path
     id="path1"
     style="color:#000000;fill:#000000;-inkscape-stroke:none"
     d="M 4 3 C 2.3549936 3 1 4.3549936 1 6 L 1 16 C 1 17.645451 2.3545487 19 4 19 L 8 19 A 1 1 0 0 0 9 18 A 1 1 0 0 0 8 17 L 4 17 C 3.4454557 17 3 16.554544 3 16 L 3 6 C 3 5.4358718 3.4358718 5 4 5 L 19 5 C 19.564128 5 20 5.4358718 20 6 L 20 9 A 1 1 0 0 0 21 10 A 1 1 0 0 0 22 9 L 22 6 C 22 4.3549936 20.645006 3 19 3 L 4 3 z M 14 12 C 12.355301 12 11 13.355301 11 15 L 11 18 C 11 19.644699 12.355301 21 14 21 L 20 21 C 21.644699 21 23 19.644699 23 18 L 23 15 C 23 13.355301 21.644699 12 20 12 L 14 12 z M 14 14 L 20 14 C 20.571296 14 21 14.428704 21 15 L 21 18 C 21 18.571296 20.571296 19 20 19 L 14 19 C 13.428704 19 13 18.571296 13 18 L 13 15 C 13 14.428704 13.428704 14 14 14 z "
     stroke-width="0" />
</svg>
