<?xml version="1.0" encoding="UTF-8" standalone="no"?>
<svg xmlns="http://www.w3.org/2000/svg" xmlns:svg="http://www.w3.org/2000/svg" width="24" height="24" viewBox="0 0 24 24" fill="currentColor" tags="money,savings" categories="money">
  
  <path d="M 19 4 C 17.938891 4 17.051894 4.4689148 16.392578 4.9902344 C 16.024708 5.2811084 15.880488 5.6267683 15.644531 5.9355469 C 13.644134 5.2975114 11.15886 5.2345877 8.8691406 6.0019531 C 7.5904357 6.4304921 6.3918909 7.1025567 5.4863281 8.0996094 C 4.7808882 8.8763206 4.2742089 9.8641072 4.0839844 11 L 4 11 C 3.4454557 11 3 10.554544 3 10 L 3 9 A 1 1 0 0 0 2 8 A 1 1 0 0 0 1 9 L 1 10 C 1 11.645451 2.3545487 13 4 13 L 4.0175781 13 C 4.0410216 13.558528 4.1043183 14.116741 4.3066406 14.693359 C 4.5810557 15.475443 5.1707647 16.209559 6 16.921875 L 6 20 A 1.0001 1.0001 0 0 0 7 21 L 11 21 A 1.0001 1.0001 0 0 0 12 20 L 12 19 L 13 19 L 13 20 A 1.0001 1.0001 0 0 0 14 21 L 18 21 A 1.0001 1.0001 0 0 0 19 20 L 19 16.525391 C 19.61767 16.153637 20.121447 15.64403 20.509766 15 L 22 15 A 1.0001 1.0001 0 0 0 23 14 L 23 10 A 1.0001 1.0001 0 0 0 22 9 L 20.724609 9 C 20.526333 8.4414169 20.298564 7.9905788 20 7.6582031 L 20 5 A 1.0001 1.0001 0 0 0 19 4 z M 18 6.4082031 L 18 8 A 1.0001 1.0001 0 0 0 18.292969 8.7070312 C 18.792967 9.2070303 19 9.3333347 19 10 A 1.0001 1.0001 0 0 0 20 11 L 21 11 L 21 13 L 20 13 A 1.0001 1.0001 0 0 0 19.042969 13.712891 C 18.83963 14.390684 18.481178 14.641246 17.552734 15.105469 A 1.0001 1.0001 0 0 0 17 16 L 17 19 L 15 19 L 15 18 A 1.0001 1.0001 0 0 0 14 17 L 11 17 A 1.0001 1.0001 0 0 0 10 18 L 10 19 L 8 19 L 8 16.5 A 1.0001 1.0001 0 0 0 7.5996094 15.699219 C 6.7020112 15.026019 6.3707719 14.536875 6.1933594 14.03125 C 6.0159468 13.525625 6 12.899998 6 12 C 6 10.910851 6.3567377 10.115053 6.9667969 9.4433594 C 7.576856 8.7716653 8.4720689 8.2448971 9.5058594 7.8984375 C 11.57344 7.2055185 14.181926 7.3098324 15.605469 7.9199219 A 1.0001 1.0001 0 0 0 16.949219 7.3164062 C 16.917457 7.4116909 17.217131 6.8872726 17.632812 6.5585938 C 17.744492 6.470289 17.877628 6.4797934 18 6.4082031 z M 16 10 A 1 1 0 0 0 15 11 A 1 1 0 0 0 16 12 A 1 1 0 0 0 17 11 A 1 1 0 0 0 16 10 z "/>
</svg>
