<?xml version="1.0" encoding="UTF-8" standalone="no"?>
<svg xmlns="http://www.w3.org/2000/svg" xmlns:svg="http://www.w3.org/2000/svg" width="24" height="24" viewBox="0 0 24 24" fill="currentColor" tags="paragraph,mark,paraph,blind,typography,type,text,prose,symbol" categories="text">
  
  <path d="M 5 2 C 3.3553005 2 2 3.3553005 2 5 L 2 19 C 2 20.644699 3.3553005 22 5 22 L 19 22 C 20.644699 22 22 20.644699 22 19 L 22 5 C 22 3.3553005 20.644699 2 19 2 L 5 2 z M 5 4 L 19 4 C 19.571296 4 20 4.4287039 20 5 L 20 19 C 20 19.571296 19.571296 20 19 20 L 5 20 C 4.4287039 20 4 19.571296 4 19 L 4 5 C 4 4.4287039 4.4287039 4 5 4 z M 9.5 6 C 8.4166691 6 7.4768911 6.442257 6.8769531 7.1171875 C 6.2770151 7.792118 6 8.6527795 6 9.5 C 6 10.34722 6.2770151 11.207881 6.8769531 11.882812 C 7.4768911 12.557743 8.4166691 13 9.5 13 L 11 13 L 11 17 A 1 1 0 0 0 12 18 A 1 1 0 0 0 13 17 L 13 8 L 15 8 L 15 17 A 1 1 0 0 0 16 18 A 1 1 0 0 0 17 17 L 17 8 A 1 1 0 0 0 18 7 A 1 1 0 0 0 17 6 L 16 6 L 9.5 6 z M 9.5 8 L 11 8 L 11 11 L 9.5 11 C 8.9166683 11 8.6064401 10.817254 8.3730469 10.554688 C 8.1396536 10.29212 8 9.9027771 8 9.5 C 8 9.0972229 8.1396536 8.70788 8.3730469 8.4453125 C 8.6064401 8.182745 8.9166683 8 9.5 8 z "/>
</svg>
