<?xml version="1.0" encoding="UTF-8" standalone="no"?>
<svg
   width="24"
   height="24"
   viewBox="0 0 24 24"
   fill="none"
   stroke="currentColor"
   stroke-width="2"
   stroke-linecap="round"
   stroke-linejoin="round"
   version="1.1"
   id="svg3"
   xmlns="http://www.w3.org/2000/svg"
   xmlns:svg="http://www.w3.org/2000/svg">
  <defs
     id="defs3" />
  <path
     id="line1"
     style="color:#000000;fill:#000000;-inkscape-stroke:none"
     d="M 2 1 A 1 1 0 0 0 1.2929688 1.2929688 A 1 1 0 0 0 1.2929688 2.7070312 L 8 9.4140625 L 8 10.759766 C 7.9997975 11.141367 7.7870487 11.484484 7.4453125 11.654297 A 1.0001 1.0001 0 0 0 7.4394531 11.658203 L 5.6640625 12.554688 C 4.646486 13.060333 4.000603 14.103952 4 15.240234 L 4 17 A 1.0001 1.0001 0 0 0 5 18 L 11 18 L 11 22 A 1 1 0 0 0 12 23 A 1 1 0 0 0 13 22 L 13 18 L 16.585938 18 L 21.292969 22.707031 A 1 1 0 0 0 22.707031 22.707031 A 1 1 0 0 0 22.707031 21.292969 L 17.748047 16.335938 A 1 1 0 0 0 17.664062 16.251953 L 9.7480469 8.3359375 A 1 1 0 0 0 9.6640625 8.2519531 L 2.7070312 1.2929688 A 1 1 0 0 0 2 1 z M 7.890625 1 A 1 1 0 0 0 6.890625 2 A 1 1 0 0 0 7.890625 3 L 16 3 C 16.416666 3 16.601893 3.1202448 16.751953 3.2890625 C 16.902013 3.4578802 17 3.7222227 17 4 C 17 4.2777773 16.902013 4.5421198 16.751953 4.7109375 C 16.601893 4.8797552 16.416666 5 16 5 L 15 5 A 1.0001 1.0001 0 0 0 14 6 L 14 9.3398438 A 1 1 0 0 0 15 10.339844 A 1 1 0 0 0 16 9.3398438 L 16 7 C 16.916665 7 17.731441 6.6202432 18.248047 6.0390625 C 18.764651 5.4578818 19 4.7222207 19 4 C 19 3.2777793 18.764651 2.5421182 18.248047 1.9609375 C 17.731441 1.3797568 16.916665 1 16 1 L 7.890625 1 z M 9.9394531 11.353516 L 14.585938 16 L 6 16 L 6 15.240234 C 6.0002025 14.858633 6.2129513 14.515516 6.5546875 14.345703 A 1.0001 1.0001 0 0 0 6.5605469 14.341797 L 8.3359375 13.445312 C 9.1729132 13.029409 9.7576478 12.249537 9.9394531 11.353516 z "
     stroke-width="0" />
</svg>
