<?xml version="1.0" encoding="UTF-8" standalone="no"?>
<svg
   width="24"
   height="24"
   viewBox="0 0 24 24"
   fill="none"
   stroke="currentColor"
   stroke-width="2"
   stroke-linecap="round"
   stroke-linejoin="round"
   version="1.1"
   id="svg3"
   xmlns="http://www.w3.org/2000/svg"
   xmlns:svg="http://www.w3.org/2000/svg">
  <defs
     id="defs3" />
  <path
     id="path1"
     style="color:#000000;fill:#000000;-inkscape-stroke:none"
     d="M 19.748047 0.9453125 C 19.030747 0.98363344 18.285538 1.3003998 17.693359 1.8925781 L 14.9375 4.6484375 C 14.322834 4.1805388 13.622045 3.9056194 12.947266 3.9453125 C 12.140631 3.9927618 11.424712 4.3604445 10.892578 4.8925781 C 10.360445 5.4247119 9.9927618 6.1406313 9.9453125 6.9472656 C 9.90521 7.6290058 10.129482 8.3598371 10.607422 8.9785156 L 2.2929688 17.292969 A 1.0001 1.0001 0 0 0 2 18 L 2 20.585938 L 1.2929688 21.292969 A 1 1 0 0 0 1.2929688 22.707031 A 1 1 0 0 0 2.7070312 22.707031 L 3.4140625 22 L 6 22 A 1.0001 1.0001 0 0 0 6.7070312 21.707031 L 15.021484 13.392578 C 15.640163 13.870518 16.370994 14.09479 17.052734 14.054688 C 17.859369 14.007238 18.575288 13.639555 19.107422 13.107422 C 19.639555 12.575288 20.007239 11.859369 20.054688 11.052734 C 20.102137 10.2461 19.784197 9.3701345 19.107422 8.6933594 L 19.414062 9 L 22.107422 6.3066406 C 22.784197 5.6298654 23.102137 4.7538999 23.054688 3.9472656 C 23.007239 3.1406313 22.639555 2.4247119 22.107422 1.8925781 C 21.575288 1.3604445 20.859369 0.99276175 20.052734 0.9453125 C 19.951905 0.93938134 19.850518 0.93983808 19.748047 0.9453125 z M 19.839844 2.9394531 C 19.871772 2.9387019 19.903564 2.9395249 19.935547 2.9414062 C 20.19141 2.9564572 20.475495 3.0887758 20.693359 3.3066406 C 20.911224 3.5245054 21.043543 3.8085898 21.058594 4.0644531 C 21.073644 4.3203165 21.016584 4.5693557 20.693359 4.8925781 L 17.292969 8.2929688 A 1.0001 1.0001 0 0 0 17.292969 9.7070312 L 17.693359 10.107422 C 18.016582 10.430645 18.073645 10.679683 18.058594 10.935547 C 18.043544 11.19141 17.911224 11.475495 17.693359 11.693359 C 17.475495 11.911224 17.191411 12.043543 16.935547 12.058594 C 16.679683 12.073644 16.430645 12.016584 16.107422 11.693359 L 15.707031 11.292969 L 12.707031 8.2929688 L 12.306641 7.8925781 C 11.983418 7.5693557 11.926355 7.3203165 11.941406 7.0644531 C 11.956456 6.8085898 12.088776 6.5245054 12.306641 6.3066406 C 12.524505 6.0887758 12.808589 5.9564571 13.064453 5.9414062 C 13.320317 5.9263553 13.569355 5.9834185 13.892578 6.3066406 L 14.292969 6.7070312 A 1.0001 1.0001 0 0 0 15.707031 6.7070312 L 19.107422 3.3066406 C 19.390242 3.023821 19.616349 2.9447114 19.839844 2.9394531 z M 12 10.414062 L 13.585938 12 L 5.5859375 20 L 4 20 L 4 18.414062 L 12 10.414062 z "
     stroke-width="0" />
</svg>
