<?xml version="1.0" encoding="UTF-8" standalone="no"?>
<svg xmlns="http://www.w3.org/2000/svg" xmlns:svg="http://www.w3.org/2000/svg" width="24" height="24" viewBox="0 0 24 24" fill="currentColor" tags="electricity,energy,electronics,charge,charging,battery,connect" categories="devices">
  
  <path d="M 12.888672 1.0058594 A 1 1 0 0 0 12.21875 1.375 L 10.21875 3.875 A 1.0001 1.0001 0 0 0 11 5.5 L 11.917969 5.5 L 11.21875 6.375 A 1 1 0 0 0 11.375 7.78125 A 1 1 0 0 0 12.78125 7.625 L 14.78125 5.125 A 1.0001 1.0001 0 0 0 14 3.5 L 13.082031 3.5 L 13.78125 2.625 A 1 1 0 0 0 13.625 1.21875 A 1 1 0 0 0 12.888672 1.0058594 z M 10 10 A 1 1 0 0 0 9 11 L 9 13 L 8 13 A 1.0001 1.0001 0 0 0 7 14 L 7 16 C 7 18.2098 8.7902005 20 11 20 L 11 22 A 1 1 0 0 0 12 23 A 1 1 0 0 0 13 22 L 13 20 C 15.2098 20 17 18.2098 17 16 L 17 14 A 1.0001 1.0001 0 0 0 16 13 L 15 13 L 15 11 A 1 1 0 0 0 14 10 A 1 1 0 0 0 13 11 L 13 13 L 11 13 L 11 11 A 1 1 0 0 0 10 10 z M 9 15 L 15 15 L 15 16 C 15 17.190194 14.190194 18 13 18 L 12 18 L 11 18 C 9.8098063 18 9 17.190194 9 16 L 9 15 z "/>
</svg>
