<?xml version="1.0" encoding="UTF-8" standalone="no"?>
<svg
   width="24"
   height="24"
   viewBox="0 0 24 24"
   fill="none"
   stroke="currentColor"
   stroke-width="2"
   stroke-linecap="round"
   stroke-linejoin="round"
   version="1.1"
   id="svg2"
   xmlns="http://www.w3.org/2000/svg"
   xmlns:svg="http://www.w3.org/2000/svg">
  <defs
     id="defs2" />
  <path
     id="path1"
     style="color:#000000;fill:#000000;-inkscape-stroke:none"
     d="M 12 4 A 1 1 0 0 0 11 5 L 11 11 L 5 11 A 1 1 0 0 0 4 12 A 1 1 0 0 0 5 13 L 11 13 L 11 19 A 1 1 0 0 0 12 20 A 1 1 0 0 0 13 19 L 13 13 L 19 13 A 1 1 0 0 0 20 12 A 1 1 0 0 0 19 11 L 13 11 L 13 5 A 1 1 0 0 0 12 4 z "
     stroke-width="0" />
</svg>
