<?xml version="1.0" encoding="UTF-8" standalone="no"?>
<svg
   width="24"
   height="24"
   viewBox="0 0 24 24"
   fill="none"
   stroke="currentColor"
   stroke-width="2"
   stroke-linecap="round"
   stroke-linejoin="round"
   version="1.1"
   id="svg1"
   xmlns="http://www.w3.org/2000/svg"
   xmlns:svg="http://www.w3.org/2000/svg">
  <defs
     id="defs1" />
  <path
     id="path1"
     style="color:#000000;fill:#000000;-inkscape-stroke:none"
     d="M 4 2 C 2.3549936 2 1 3.3549936 1 5 L 1 11 C 1 17.063276 5.9367246 22 12 22 C 18.063276 22 23 17.063276 23 11 L 23 5 C 23 3.3549936 21.645006 2 20 2 L 4 2 z M 4 4 L 20 4 C 20.564128 4 21 4.4358718 21 5 L 21 11 C 21 15.982397 16.982397 20 12 20 C 7.0176026 20 3 15.982397 3 11 L 3 5 C 3 4.4358718 3.4358718 4 4 4 z M 8 9 A 1 1 0 0 0 7.2929688 9.2929688 A 1 1 0 0 0 7.2929688 10.707031 L 11.292969 14.707031 A 1.0001 1.0001 0 0 0 12.707031 14.707031 L 16.707031 10.707031 A 1 1 0 0 0 16.707031 9.2929688 A 1 1 0 0 0 15.292969 9.2929688 L 12 12.585938 L 8.7070312 9.2929688 A 1 1 0 0 0 8 9 z "
     stroke-width="0" />
</svg>
