<?xml version="1.0" encoding="UTF-8" standalone="no"?>
<svg
   width="24"
   height="24"
   viewBox="0 0 24 24"
   fill="none"
   stroke="currentColor"
   stroke-width="2"
   stroke-linecap="round"
   stroke-linejoin="round"
   version="1.1"
   id="svg3"
   xmlns="http://www.w3.org/2000/svg"
   xmlns:svg="http://www.w3.org/2000/svg">
  <defs
     id="defs3" />
  <path
     id="circle1"
     style="color:#000000;fill:#000000;-inkscape-stroke:none"
     d="M 12 1.0175781 C 7.1186703 1.0175781 3.6052133 4.2398134 2.4296875 8.1132812 C 1.2541617 11.986749 2.3852676 16.6193 6.4453125 19.332031 A 1 1 0 0 0 7.8320312 19.054688 A 1 1 0 0 0 7.5546875 17.667969 C 4.2131791 15.435329 3.3934729 11.826565 4.34375 8.6953125 C 5.2940271 5.5640603 7.9830079 3.0175781 12 3.0175781 C 16.016992 3.0175781 18.705973 5.5640603 19.65625 8.6953125 C 20.606527 11.826565 19.786821 15.435329 16.445312 17.667969 A 1 1 0 0 0 16.167969 19.054688 A 1 1 0 0 0 17.554688 19.332031 C 21.614733 16.6193 22.745838 11.986749 21.570312 8.1132812 C 20.394788 4.2398134 16.88133 1.0175781 12 1.0175781 z M 12 5 C 7.1187955 5 4.2703681 10.694475 7.1992188 14.599609 A 1 1 0 0 0 8.5996094 14.800781 A 1 1 0 0 0 8.8007812 13.400391 C 6.7852107 10.712963 8.6409373 7 12 7 C 15.359063 7 17.214789 10.712963 15.199219 13.400391 A 1 1 0 0 0 15.400391 14.800781 A 1 1 0 0 0 16.800781 14.599609 C 19.729632 10.694475 16.881204 5 12 5 z M 12 9 C 10.907277 9 10 9.9072773 10 11 C 10 12.092723 10.907277 13 12 13 C 13.092723 13 14 12.092723 14 11 C 14 9.9072773 13.092723 9 12 9 z M 12 15 C 11.527778 15 11.042118 15.152014 10.648438 15.501953 C 10.254756 15.851892 10 16.416668 10 17 C 10 17.476666 10.09182 18.115414 10.197266 18.994141 C 10.302713 19.872867 10.427568 20.871492 10.505859 21.605469 C 10.535003 21.989284 10.717552 22.378926 10.992188 22.623047 C 11.292118 22.889653 11.652778 23 12 23 C 12.347222 23 12.707881 22.889653 13.007812 22.623047 C 13.282447 22.378926 13.464997 21.989284 13.494141 21.605469 C 13.572431 20.871492 13.697287 19.872867 13.802734 18.994141 C 13.908223 18.115414 14 17.476666 14 17 C 14 16.416668 13.745243 15.851892 13.351562 15.501953 C 12.957881 15.152014 12.472222 15 12 15 z "
     stroke-width="0" />
</svg>
