<?xml version="1.0" encoding="UTF-8" standalone="no"?>
<svg
   width="24"
   height="24"
   viewBox="0 0 24 24"
   fill="none"
   stroke="currentColor"
   stroke-width="2"
   stroke-linecap="round"
   stroke-linejoin="round"
   version="1.1"
   id="svg5"
   xmlns="http://www.w3.org/2000/svg"
   xmlns:svg="http://www.w3.org/2000/svg">
  <defs
     id="defs5" />
  <path
     id="path1"
     style="color:#000000;fill:#000000;-inkscape-stroke:none"
     d="M 8 1 C 6.3549936 1 5 2.3549936 5 4 L 5 11.921875 C 4.569854 11.7423 4.1185439 11.664515 3.6894531 11.697266 C 2.938796 11.754556 2.2747244 12.098127 1.7773438 12.59375 C 1.2799632 13.089373 0.93299862 13.753457 0.87304688 14.503906 C 0.81309513 15.254356 1.0780585 16.077134 1.6679688 16.730469 A 1.0001 1.0001 0 0 0 1.703125 16.767578 L 5.3027344 20.367188 A 1.0001 1.0001 0 0 0 5.3046875 20.369141 C 6.9270882 21.980602 8.9952441 23 12 23 L 14 23 C 18.958708 23 23 18.958708 23 14 L 23 11 C 23 10.083335 22.620244 9.268558 22.039062 8.7519531 C 21.457882 8.2353482 20.72222 8 20 8 C 19.490211 8 18.975845 8.1204266 18.511719 8.3710938 C 17.974107 7.5487966 17.046297 7 16 7 C 15.466242 7 14.963654 7.143647 14.527344 7.3925781 C 13.992035 6.5578648 13.055759 6 12 6 C 11.65035 6 11.313218 6.061622 11 6.1738281 L 11 4 C 11 2.3549936 9.6450064 1 8 1 z M 8 3 C 8.5641282 3 9 3.4358718 9 4 L 9 9.5 L 9 10 A 1 1 0 0 0 10 11 A 1 1 0 0 0 11 10 L 11 9 C 11 8.4358718 11.435872 8 12 8 C 12.564128 8 13 8.4358718 13 9 L 13 10 A 1 1 0 0 0 14 11 A 1 1 0 0 0 14.222656 10.974609 A 1 1 0 0 0 15 10 C 15 9.4358718 15.435872 9 16 9 C 16.564128 9 17 9.4358718 17 10 L 17 11 A 1 1 0 0 0 17.068359 11.345703 A 1 1 0 0 0 17.087891 11.400391 A 1 1 0 0 0 17.273438 11.677734 A 1 1 0 0 0 17.322266 11.726562 A 1 1 0 0 0 17.599609 11.912109 A 1 1 0 0 0 17.654297 11.931641 A 1 1 0 0 0 18 12 A 1 1 0 0 0 18.345703 11.931641 A 1 1 0 0 0 18.400391 11.912109 A 1 1 0 0 0 18.677734 11.726562 A 1 1 0 0 0 18.726562 11.677734 A 1 1 0 0 0 18.912109 11.400391 A 1 1 0 0 0 18.931641 11.345703 A 1 1 0 0 0 19 11 C 19 10.583334 19.120246 10.398107 19.289062 10.248047 C 19.45788 10.097987 19.722222 10 20 10 C 20.277778 10 20.542121 10.09799 20.710938 10.248047 C 20.879755 10.398107 21 10.583334 21 11 L 21 14 C 21 17.756648 18.069984 20.803436 14.361328 20.990234 C 14.241694 20.99626 14.121182 21 14 21 L 12 21 C 9.4060939 21 8.0736742 20.30026 6.7167969 18.953125 L 6.7148438 18.951172 L 3.1523438 15.390625 L 3.1503906 15.386719 C 2.8935346 15.100427 2.8495668 14.884629 2.8671875 14.664062 C 2.8849065 14.442259 3.0014446 14.199063 3.1894531 14.011719 C 3.3774616 13.824374 3.619932 13.70834 3.8417969 13.691406 C 4.0636617 13.674476 4.2785781 13.718726 4.5664062 13.980469 L 6.2929688 15.707031 A 1 1 0 0 0 7.7070312 15.707031 A 1 1 0 0 0 7.7070312 14.292969 L 7 13.585938 L 7 4 C 7 3.4358718 7.4358718 3 8 3 z "
     stroke-width="0" />
</svg>
