<?xml version="1.0" encoding="UTF-8" standalone="no"?>
<svg
   width="24"
   height="24"
   viewBox="0 0 24 24"
   fill="none"
   stroke="currentColor"
   stroke-width="2"
   stroke-linecap="round"
   stroke-linejoin="round"
   version="1.1"
   id="svg6"
   xmlns="http://www.w3.org/2000/svg"
   xmlns:svg="http://www.w3.org/2000/svg">
  <defs
     id="defs6" />
  <path
     id="path1"
     style="color:#000000;fill:#000000;-inkscape-stroke:none"
     d="M 2 1 A 1 1 0 0 0 1.2929688 1.2929688 A 1 1 0 0 0 1.2929688 2.7070312 L 5 6.4140625 L 5 11.90625 C 4.5503028 11.714977 4.0767909 11.637439 3.6289062 11.677734 C 2.8783196 11.745264 2.2173182 12.098493 1.7265625 12.601562 C 1.2358068 13.104631 0.8985217 13.773361 0.84960938 14.525391 C 0.80069702 15.27742 1.0768606 16.097372 1.6777344 16.742188 A 1.0001 1.0001 0 0 0 1.6972656 16.761719 L 5.2871094 20.400391 C 7.0473924 22.191607 9.4943761 23.137493 12 23 L 12.003906 23 L 14 23 C 16.050747 23.000075 18.028222 22.297225 19.615234 21.029297 L 21.292969 22.707031 A 1 1 0 0 0 22.707031 22.707031 A 1 1 0 0 0 22.707031 21.292969 L 20.363281 18.949219 L 6.7382812 5.3261719 A 1 1 0 0 0 6.6738281 5.2617188 L 2.7070312 1.2929688 A 1 1 0 0 0 2 1 z M 7.9003906 1.0019531 C 7.7303057 1.0071865 7.557481 1.0282782 7.3847656 1.0644531 A 1 1 0 0 0 6.6113281 2.2480469 A 1 1 0 0 0 7.7949219 3.0214844 C 8.4372781 2.8869439 8.9998281 3.3437054 9 4 L 9 4.5 A 1 1 0 0 0 10 5.5 A 1 1 0 0 0 11 4.5 L 11 4 C 10.999553 2.2941904 9.5445448 0.95136339 7.9003906 1.0019531 z M 12.621094 6.1035156 A 1 1 0 0 0 11.693359 6.78125 A 1 1 0 0 0 12.316406 8.0507812 C 12.618363 8.1543499 12.850054 8.3945387 12.945312 8.6992188 A 1 1 0 0 0 13.501953 9.3164062 A 1 1 0 0 0 13.791016 9.65625 A 1 1 0 0 0 15.185547 9.421875 C 15.501793 8.977082 15.904542 8.9211783 16.304688 9.0488281 C 16.704834 9.176478 16.999749 9.4542418 17 10 L 17 11 A 1.0001 1.0001 0 0 0 19 11 C 19 10.583334 19.120246 10.398107 19.289062 10.248047 C 19.45788 10.097987 19.722222 10 20 10 C 20.277778 10 20.542121 10.09799 20.710938 10.248047 C 20.879755 10.398107 21 10.583334 21 11 L 21 14 A 1.0001 1.0001 0 0 0 21 14.003906 C 21.0024 14.654657 20.91484 15.301388 20.738281 15.927734 A 1 1 0 0 0 21.427734 17.162109 A 1 1 0 0 0 22.662109 16.470703 C 22.889106 15.665411 23.003091 14.832767 23 13.996094 L 23 11 C 23 10.083335 22.620244 9.268558 22.039062 8.7519531 C 21.457882 8.2353482 20.72222 8 20 8 C 19.470812 8 18.983507 8.2798295 18.505859 8.5507812 C 18.122131 7.8959337 17.593254 7.3598687 16.912109 7.1425781 C 16.345854 6.961938 15.709378 6.9563802 15.113281 7.1386719 C 14.910946 7.2005477 14.714251 7.286987 14.525391 7.3925781 C 14.164556 6.8219927 13.617123 6.3819298 12.964844 6.1582031 A 1 1 0 0 0 12.621094 6.1035156 z M 7 8.4140625 L 18.191406 19.605469 C 16.988383 20.505512 15.520447 21.000056 14 21 L 12 21 A 1.0001 1.0001 0 0 0 11.9375 21.001953 C 9.9873737 21.122959 8.0824067 20.393583 6.7128906 19 A 1.0001 1.0001 0 0 0 6.7128906 18.998047 L 3.140625 15.378906 L 3.1386719 15.376953 C 2.8751713 15.0932 2.8313012 14.877681 2.8457031 14.65625 C 2.8601521 14.434095 2.9726018 14.188305 3.1582031 13.998047 C 3.3438045 13.807789 3.5849115 13.68987 3.8066406 13.669922 C 4.0271375 13.650082 4.2439281 13.692472 4.5332031 13.947266 C 4.5348231 13.948666 4.5354894 13.947734 4.5371094 13.949219 L 5.2890625 14.703125 A 1 1 0 0 0 5.296875 14.710938 L 6.2929688 15.707031 A 1 1 0 0 0 7.7070312 15.707031 A 1 1 0 0 0 7.7070312 14.292969 L 7 13.585938 L 7 8.4140625 z "
     stroke-width="0" />
</svg>
