<?xml version="1.0" encoding="UTF-8" standalone="no"?>
<svg
   width="24"
   height="24"
   viewBox="0 0 24 24"
   fill="none"
   stroke="currentColor"
   stroke-width="2"
   stroke-linecap="round"
   stroke-linejoin="round"
   version="1.1"
   id="svg4"
   xmlns="http://www.w3.org/2000/svg"
   xmlns:svg="http://www.w3.org/2000/svg">
  <defs
     id="defs4" />
  <path
     id="path1"
     style="color:#000000;fill:#000000;-inkscape-stroke:none"
     d="M 14 2 C 12.777794 2 11.542122 2.4020648 10.585938 3.2519531 C 9.6297529 4.1018415 9 5.4167376 9 7 L 9 12 L 6 12 A 1 1 0 0 0 5 13 A 1 1 0 0 0 6 14 L 9 14 L 9 20 L 6 20 A 1 1 0 0 0 5 21 A 1 1 0 0 0 6 22 L 18 22 A 1 1 0 0 0 19 21 A 1 1 0 0 0 18 20 L 11 20 L 11 14 L 16 14 A 1 1 0 0 0 17 13 A 1 1 0 0 0 16 12 L 11 12 L 11 7 C 11 5.9167678 11.370249 5.2314059 11.914062 4.7480469 C 12.457875 4.2646879 13.22221 4 14 4 C 14.77779 4 15.542125 4.2646879 16.085938 4.7480469 C 16.629751 5.2314059 17 5.9167678 17 7 A 1 1 0 0 0 18 8 A 1 1 0 0 0 19 7 C 19 5.4167376 18.370248 4.1018415 17.414062 3.2519531 C 16.457878 2.4020648 15.222206 2 14 2 z "
     stroke-width="0" />
</svg>
