<?xml version="1.0" encoding="UTF-8" standalone="no"?>
<svg xmlns="http://www.w3.org/2000/svg" xmlns:svg="http://www.w3.org/2000/svg" width="24" height="24" viewBox="0 0 24 24" fill="currentColor" tags="on,off,device,switch,toggle,binary,boolean,reboot,restart,button,keyboard,troubleshoot" categories="connectivity">
  
  <path d="M 5 2 C 3.3553005 2 2 3.3553005 2 5 L 2 19 C 2 20.644699 3.3553005 22 5 22 L 19 22 C 20.644699 22 22 20.644699 22 19 L 22 5 C 22 3.3553005 20.644699 2 19 2 L 5 2 z M 5 4 L 19 4 C 19.571296 4 20 4.4287039 20 5 L 20 19 C 20 19.571296 19.571296 20 19 20 L 5 20 C 4.4287039 20 4 19.571296 4 19 L 4 5 C 4 4.4287039 4.4287039 4 5 4 z M 12 6 A 1 1 0 0 0 11 7 L 11 12 A 1 1 0 0 0 12 13 A 1 1 0 0 0 13 12 L 13 7 A 1 1 0 0 0 12 6 z M 15.962891 8 A 1 1 0 0 0 15.382812 8.2128906 A 1 1 0 0 0 15.212891 9.6171875 C 17.304922 12.289876 15.423869 16.054266 12.035156 15.996094 C 8.7854355 15.813305 7.0116628 12.26456 8.8300781 9.5585938 A 1 1 0 0 0 8.5585938 8.1699219 A 1 1 0 0 0 7.8066406 8.0195312 A 1 1 0 0 0 7.1699219 8.4414062 C 4.5366515 12.359951 7.2324673 17.753536 11.947266 17.998047 A 1.0001 1.0001 0 0 0 11.978516 18 C 16.925529 18.102067 19.836971 12.279183 16.787109 8.3828125 A 1 1 0 0 0 15.962891 8 z "/>
</svg>
