<?xml version="1.0" encoding="UTF-8" standalone="no"?>
<svg
   width="24"
   height="24"
   viewBox="0 0 24 24"
   fill="none"
   stroke="currentColor"
   stroke-width="2"
   stroke-linecap="round"
   stroke-linejoin="round"
   version="1.1"
   id="svg11"
   xmlns="http://www.w3.org/2000/svg"
   xmlns:svg="http://www.w3.org/2000/svg">
  <defs
     id="defs11" />
  <path
     id="rect1"
     style="color:#000000;fill:#000000;-inkscape-stroke:none"
     d="M 4 2 C 2.9092994 2 2 2.9092994 2 4 L 2 7 C 2 8.0907006 2.9092994 9 4 9 L 7 9 C 8.0907006 9 9 8.0907006 9 7 L 9 4 C 9 2.9092994 8.0907006 2 7 2 L 4 2 z M 12 2 A 1 1 0 0 0 11 3 A 1 1 0 0 0 12 4 L 12.009766 4 A 1 1 0 0 0 13.009766 3 A 1 1 0 0 0 12.009766 2 L 12 2 z M 17 2 C 15.909299 2 15 2.9092994 15 4 L 15 7 C 15 8.0907006 15.909299 9 17 9 L 20 9 C 21.090701 9 22 8.0907006 22 7 L 22 4 C 22 2.9092994 21.090701 2 20 2 L 17 2 z M 4 4 L 7 4 L 7 7 L 4 7 L 4 4 z M 17 4 L 20 4 L 20 7 L 17 7 L 17 4 z M 12 6 A 1 1 0 0 0 11 7 L 11 10 C 11 10.564128 10.564128 11 10 11 L 7 11 A 1 1 0 0 0 6 12 A 1 1 0 0 0 7 13 L 10 13 C 11.645006 13 13 11.645006 13 10 L 13 7 A 1 1 0 0 0 12 6 z M 3 11 A 1 1 0 0 0 2 12 A 1 1 0 0 0 3 13 L 3.0097656 13 A 1 1 0 0 0 4.0097656 12 A 1 1 0 0 0 3.0097656 11 L 3 11 z M 16 11 A 1 1 0 0 0 15 12 A 1 1 0 0 0 16 13 L 17 13 A 1 1 0 0 0 18 12 A 1 1 0 0 0 17 11 L 16 11 z M 21 11 A 1 1 0 0 0 20 12 L 20 12.009766 A 1 1 0 0 0 21 13.009766 A 1 1 0 0 0 22 12.009766 L 22 12 A 1 1 0 0 0 21 11 z M 4 15 C 2.9092994 15 2 15.909299 2 17 L 2 20 C 2 21.090701 2.9092994 22 4 22 L 7 22 C 8.0907006 22 9 21.090701 9 20 L 9 17 C 9 15.909299 8.0907006 15 7 15 L 4 15 z M 12 15 A 1 1 0 0 0 11 16 L 11 16.009766 A 1 1 0 0 0 12 17.009766 A 1 1 0 0 0 13 16.009766 L 13 16 A 1 1 0 0 0 12 15 z M 18 15 C 16.354994 15 15 16.354994 15 18 L 15 21 A 1 1 0 0 0 16 22 A 1 1 0 0 0 17 21 L 17 18 C 17 17.435872 17.435872 17 18 17 L 21 17 A 1 1 0 0 0 22 16 A 1 1 0 0 0 21 15 L 18 15 z M 4 17 L 7 17 L 7 20 L 4 20 L 4 17 z M 12 19 A 1 1 0 0 0 11 20 L 11 21 A 1 1 0 0 0 12 22 A 1 1 0 0 0 13 21 L 13 20 A 1 1 0 0 0 12 19 z M 21 20 A 1 1 0 0 0 20 21 L 20 21.009766 A 1 1 0 0 0 21 22.009766 A 1 1 0 0 0 22 21.009766 L 22 21 A 1 1 0 0 0 21 20 z "
     stroke-width="0" />
</svg>
