<?xml version="1.0" encoding="UTF-8" standalone="no"?>
<svg
   width="24"
   height="24"
   viewBox="0 0 24 24"
   fill="none"
   stroke="currentColor"
   stroke-width="2"
   stroke-linecap="round"
   stroke-linejoin="round"
   version="1.1"
   id="svg5"
   xmlns="http://www.w3.org/2000/svg"
   xmlns:svg="http://www.w3.org/2000/svg">
  <defs
     id="defs5" />
  <path
     id="path1"
     style="color:#000000;fill:#000000;-inkscape-stroke:none"
     d="M 18 1 C 17.27778 1 16.542118 1.2353482 15.960938 1.7519531 C 15.379756 2.268558 15 3.0833353 15 4 L 15 4.7851562 L 13.107422 2.8925781 C 12.46398 2.2491362 11.624733 1.9429154 10.853516 1.9882812 C 10.082297 2.0336472 9.3997119 2.3854444 8.8925781 2.8925781 C 8.3854444 3.3997119 8.0336472 4.0822979 7.9882812 4.8535156 C 7.9429154 5.6247334 8.2491362 6.4639799 8.8925781 7.1074219 L 11.158203 9.3730469 C 9.8809092 9.6852371 8.7173021 10.287499 7.7519531 11.107422 C 6.910474 10.318187 5.7815271 9.9795697 4.6855469 10.066406 C 3.2277108 10.181914 1.8307264 11.050626 1.25 12.611328 C 0.24385196 15.315351 2.4542816 18.047365 5.1015625 18 C 5.5684403 20.274604 7.5927961 22 10 22 L 18 22 A 1 1 0 0 0 19 21 A 1 1 0 0 0 18 20 L 16.878906 20 C 16.968427 19.649695 17.007948 19.292386 17.001953 18.939453 C 17.029345 17.78289 17.830384 17 19 17 L 20 17 C 21.645006 17 23 15.645006 23 14 L 23 13 C 23 11.10744 22.234485 9.3833156 21 8.1191406 L 21 4 C 21 3.0833353 20.620244 2.268558 20.039062 1.7519531 C 19.457882 1.2353482 18.72222 1 18 1 z M 18 3 C 18.277778 3 18.542121 3.0979867 18.710938 3.2480469 C 18.879755 3.398107 19 3.5833345 19 4 L 19 6.6816406 C 18.377685 6.3833664 17.705154 6.1766219 17 6.0742188 L 17 4 C 17 3.5833345 17.120246 3.398107 17.289062 3.2480469 C 17.45788 3.0979867 17.722222 3 18 3 z M 10.970703 3.9863281 C 11.19115 3.9733601 11.403471 4.0167514 11.693359 4.3066406 L 15.09375 7.7070312 A 1.0001 1.0001 0 0 0 15.800781 8 L 16 8 C 18.75454 8 21 10.24546 21 13 L 21 14 C 21 14.564128 20.564128 15 20 15 L 19 15 C 17.804842 15 16.736752 15.526944 16.003906 16.357422 C 15.288128 15.544764 14.229816 14.998385 12.998047 15 A 1 1 0 0 0 12 16.001953 A 1 1 0 0 0 13.001953 17 C 13.904816 16.9988 14.524271 17.499035 14.830078 18.181641 C 14.924265 18.39188 14.985525 18.612943 15.007812 18.837891 C 15.005629 18.892189 15 18.945164 15 19 A 1 1 0 0 0 15.015625 19.082031 C 15.006443 19.391489 14.919536 19.703095 14.740234 20 L 10 20 C 8.3313045 20 7 18.668695 7 17 C 7 16.98496 7.0018439 16.970091 7.0019531 16.955078 A 1 1 0 0 0 7.0058594 16.759766 C 7.0581963 15.414647 7.5491995 14.186474 8.3398438 13.212891 A 1 1 0 0 0 8.4179688 13.119141 C 9.5166241 11.821323 11.157493 11 13 11 L 13.199219 11 A 1.0001 1.0001 0 0 0 13.90625 9.2929688 L 10.306641 5.6933594 C 10.016751 5.4034703 9.9733606 5.1911499 9.9863281 4.9707031 C 9.9992956 4.7502563 10.113776 4.4995055 10.306641 4.3066406 C 10.499505 4.1137758 10.750256 3.9992956 10.970703 3.9863281 z M 18 11 A 1 1 0 0 0 17 12 A 1 1 0 0 0 18 13 L 18.009766 13 A 1 1 0 0 0 19.009766 12 A 1 1 0 0 0 18.009766 11 L 18 11 z M 4.9707031 11.957031 C 5.4862505 11.952105 6.006869 12.155502 6.40625 12.572266 C 5.699436 13.570811 5.2247688 14.73998 5.0625 16.017578 C 3.6646611 16.107628 2.5818653 14.763019 3.1230469 13.308594 C 3.4513201 12.426359 4.2049588 11.964349 4.9707031 11.957031 z "
     stroke-width="0" />
</svg>
