<?xml version="1.0" encoding="UTF-8" standalone="no"?>
<svg
   width="24"
   height="24"
   viewBox="0 0 24 24"
   fill="none"
   stroke="currentColor"
   stroke-width="2"
   stroke-linecap="round"
   stroke-linejoin="round"
   version="1.1"
   id="svg4"
   xmlns="http://www.w3.org/2000/svg"
   xmlns:svg="http://www.w3.org/2000/svg">
  <defs
     id="defs4" />
  <path
     id="path1"
     style="color:#000000;fill:#000000;-inkscape-stroke:none"
     d="M 4.9003906 3.9003906 A 1 1 0 0 0 4.1933594 4.1933594 C -0.093425528 8.4801442 -0.093425528 15.519855 4.1933594 19.806641 A 1 1 0 0 0 5.6074219 19.806641 A 1 1 0 0 0 5.6074219 18.392578 C 2.0942223 14.879379 2.0942223 9.1206214 5.6074219 5.6074219 A 1 1 0 0 0 5.6074219 4.1933594 A 1 1 0 0 0 4.9003906 3.9003906 z M 18.943359 3.9121094 A 1 1 0 0 0 18.392578 4.1933594 A 1 1 0 0 0 18.392578 5.6074219 C 21.911822 9.1266651 21.911822 14.773725 18.392578 18.292969 A 1 1 0 0 0 18.392578 19.707031 A 1 1 0 0 0 19.806641 19.707031 C 24.087381 15.426291 24.087381 8.4741006 19.806641 4.1933594 A 1 1 0 0 0 18.943359 3.9121094 z M 7.7792969 6.7011719 A 1 1 0 0 0 7.078125 7.0078125 C 4.4132886 9.7885114 4.4043343 14.216835 7.09375 16.90625 A 1 1 0 0 0 8.5078125 16.90625 A 1 1 0 0 0 8.5078125 15.492188 C 6.5972374 13.581612 6.58633 10.41187 8.5214844 8.3925781 A 1 1 0 0 0 8.4921875 6.9785156 A 1 1 0 0 0 7.7792969 6.7011719 z M 16.199219 6.8007812 A 1 1 0 0 0 15.492188 7.09375 A 1 1 0 0 0 15.492188 8.5078125 C 17.402762 10.418387 17.413668 13.58813 15.478516 15.607422 A 1 1 0 0 0 15.507812 17.021484 A 1 1 0 0 0 16.921875 16.992188 C 19.586706 14.211492 19.595665 9.7831657 16.90625 7.09375 A 1 1 0 0 0 16.199219 6.8007812 z M 12 9 C 10.354994 9 9 10.354994 9 12 C 9 13.645006 10.354994 15 12 15 C 13.645006 15 15 13.645006 15 12 C 15 10.354994 13.645006 9 12 9 z M 12 11 C 12.564128 11 13 11.435872 13 12 C 13 12.564128 12.564128 13 12 13 C 11.435872 13 11 12.564128 11 12 C 11 11.435872 11.435872 11 12 11 z "
     stroke-width="0" />
</svg>
