<?xml version="1.0" encoding="UTF-8" standalone="no"?>
<svg
   width="24"
   height="24"
   viewBox="0 0 24 24"
   fill="none"
   stroke="currentColor"
   stroke-width="2"
   stroke-linecap="round"
   stroke-linejoin="round"
   version="1.1"
   id="svg6"
   xmlns="http://www.w3.org/2000/svg"
   xmlns:svg="http://www.w3.org/2000/svg">
  <defs
     id="defs6" />
  <path
     id="path1"
     style="color:#000000;fill:#000000;-inkscape-stroke:none"
     d="M 4.9003906 0.90039062 A 1 1 0 0 0 4.1933594 1.1933594 C -0.093425528 5.4801442 -0.093425528 12.519855 4.1933594 16.806641 A 1 1 0 0 0 5.6074219 16.806641 A 1 1 0 0 0 5.6074219 15.392578 C 2.0942223 11.879379 2.0942223 6.1206214 5.6074219 2.6074219 A 1 1 0 0 0 5.6074219 1.1933594 A 1 1 0 0 0 4.9003906 0.90039062 z M 18.943359 0.91210938 A 1 1 0 0 0 18.392578 1.1933594 A 1 1 0 0 0 18.394531 2.6074219 C 21.910725 6.1164129 21.910725 11.783977 18.394531 15.292969 A 1 1 0 0 0 18.392578 16.707031 A 1 1 0 0 0 19.806641 16.707031 C 24.088939 12.433505 24.088939 5.4649337 19.806641 1.1914062 A 1 1 0 0 0 18.943359 0.91210938 z M 7.78125 3.7011719 A 1 1 0 0 0 7.0800781 4.0058594 C 4.8139977 6.3538197 4.4305591 9.9534377 6.1503906 12.726562 A 1 1 0 0 0 7.5273438 13.050781 A 1 1 0 0 0 7.8496094 11.673828 C 6.6069113 9.6700528 6.8821302 7.0910962 8.5195312 5.3945312 A 1 1 0 0 0 8.4941406 3.9804688 A 1 1 0 0 0 7.78125 3.7011719 z M 16.199219 3.8007812 A 1 1 0 0 0 15.492188 4.09375 A 1 1 0 0 0 15.492188 5.5078125 C 17.156308 7.1719334 17.375648 9.7635853 16.150391 11.744141 A 1 1 0 0 0 16.474609 13.121094 A 1 1 0 0 0 17.849609 12.796875 C 19.544346 10.05744 19.242121 6.4296211 16.90625 4.09375 A 1 1 0 0 0 16.199219 3.8007812 z M 12 6 C 10.354994 6 9 7.3549936 9 9 C 9 10.174608 9.6915547 11.20025 10.685547 11.691406 L 7.0605469 21.658203 A 1 1 0 0 0 7.6582031 22.939453 A 1 1 0 0 0 8.9394531 22.341797 L 10.154297 19 L 13.845703 19 L 15.060547 22.341797 A 1 1 0 0 0 16.341797 22.939453 A 1 1 0 0 0 16.939453 21.658203 L 13.314453 11.691406 C 14.308445 11.20025 15 10.174608 15 9 C 15 7.3549936 13.645006 6 12 6 z M 12 8 C 12.564128 8 13 8.4358718 13 9 C 13 9.5641282 12.564128 10 12 10 C 11.435872 10 11 9.5641282 11 9 C 11 8.4358718 11.435872 8 12 8 z M 12 13.925781 L 13.117188 17 L 10.882812 17 L 12 13.925781 z "
     stroke-width="0" />
</svg>
