<?xml version="1.0" encoding="UTF-8" standalone="no"?>
<svg xmlns="http://www.w3.org/2000/svg" xmlns:svg="http://www.w3.org/2000/svg" width="24" height="24" viewBox="0 0 24 24" fill="currentColor" tags="railway,train,track,line" categories="transportation,maps">
  
  <path d="M 10 3 A 1 1 0 0 0 9.2929688 3.2929688 A 1 1 0 0 0 9.2929688 4.7070312 L 12.585938 8 L 5 8 A 1 1 0 0 0 4 9 A 1 1 0 0 0 5 10 L 12.585938 10 L 8.5859375 14 L 5 14 A 1 1 0 0 0 4 15 A 1 1 0 0 0 5 16 L 8.5859375 16 L 13.292969 20.707031 A 1 1 0 0 0 14.707031 20.707031 A 1 1 0 0 0 14.707031 19.292969 L 11.414062 16 L 19 16 A 1 1 0 0 0 20 15 A 1 1 0 0 0 19 14 L 11.414062 14 L 15.414062 10 L 19 10 A 1 1 0 0 0 20 9 A 1 1 0 0 0 19 8 L 15.414062 8 L 10.707031 3.2929688 A 1 1 0 0 0 10 3 z "/>
</svg>
