<?xml version="1.0" encoding="UTF-8" standalone="no"?>
<svg
   width="24"
   height="24"
   viewBox="0 0 24 24"
   fill="none"
   stroke="currentColor"
   stroke-width="2"
   stroke-linecap="round"
   stroke-linejoin="round"
   version="1.1"
   id="svg3"
   xmlns="http://www.w3.org/2000/svg"
   xmlns:svg="http://www.w3.org/2000/svg">
  <defs
     id="defs3" />
  <path
     id="path1"
     style="color:#000000;fill:#000000;-inkscape-stroke:none"
     d="M 12 6 C 5.9367256 6 1 10.936721 1 17 A 1 1 0 0 0 2 18 A 1 1 0 0 0 3 17 C 3 12.017599 7.0176018 8 12 8 C 16.982398 8 21 12.017599 21 17 A 1 1 0 0 0 22 18 A 1 1 0 0 0 23 17 C 23 10.936721 18.063274 6 12 6 z M 12 10 C 8.1458602 10 5 13.145857 5 17 A 1 1 0 0 0 6 18 A 1 1 0 0 0 7 17 C 7 14.226735 9.2267363 12 12 12 C 14.773263 12 17 14.226735 17 17 A 1 1 0 0 0 18 18 A 1 1 0 0 0 19 17 C 19 13.145857 15.85414 10 12 10 z M 12 14 C 11.27778 14 10.542118 14.235349 9.9609375 14.751953 C 9.3797568 15.268559 9 16.083335 9 17 A 1 1 0 0 0 10 18 A 1 1 0 0 0 11 17 C 11 16.583334 11.120245 16.398107 11.289062 16.248047 C 11.457879 16.097987 11.722222 16 12 16 C 12.277778 16 12.54212 16.09799 12.710938 16.248047 C 12.879754 16.398107 13 16.583334 13 17 A 1 1 0 0 0 14 18 A 1 1 0 0 0 15 17 C 15 16.083335 14.620243 15.268559 14.039062 14.751953 C 13.457881 14.235349 12.72222 14 12 14 z "
     stroke-width="0" />
</svg>
