<?xml version="1.0" encoding="UTF-8" standalone="no"?>
<svg xmlns="http://www.w3.org/2000/svg" xmlns:svg="http://www.w3.org/2000/svg" width="24" height="24" viewBox="0 0 24 24" fill="currentColor" tags="screens,rotate,rotation,aspect ratio,proportions,16:9,widescreen,4:3,responsive,mobile,desktop,monitor,orientation,portrait,landscape" categories="connectivity,devices,design,photography">
  
  <path d="M 8 1 C 6.3553005 1 5 2.3553005 5 4 L 5 5 L 4 5 C 2.3553005 5 1 6.3553005 1 8 L 1 16 C 1 17.644699 2.3553005 19 4 19 L 5 19 L 5 20 C 5 21.644699 6.3553005 23 8 23 L 16 23 C 17.644699 23 19 21.644699 19 20 L 19 19 L 20 19 C 21.644699 19 23 17.644699 23 16 L 23 8 C 23 6.3553005 21.644699 5 20 5 L 19 5 L 19 4 C 19 2.3553005 17.644699 1 16 1 L 8 1 z M 8 3 L 16 3 C 16.571296 3 17 3.4287039 17 4 L 17 5 L 7 5 L 7 4 C 7 3.4287039 7.4287039 3 8 3 z M 4 7 L 5 7 L 5 17 L 4 17 C 3.4287039 17 3 16.571296 3 16 L 3 8 C 3 7.4287039 3.4287039 7 4 7 z M 7 7 L 17 7 L 17 17 L 7 17 L 7 7 z M 19 7 L 20 7 C 20.571296 7 21 7.4287039 21 8 L 21 16 C 21 16.571296 20.571296 17 20 17 L 19 17 L 19 7 z M 7 19 L 17 19 L 17 20 C 17 20.571296 16.571296 21 16 21 L 8 21 C 7.4287039 21 7 20.571296 7 20 L 7 19 z "/>
</svg>
