<?xml version="1.0" encoding="UTF-8" standalone="no"?>
<svg
   width="24"
   height="24"
   viewBox="0 0 24 24"
   fill="none"
   stroke="currentColor"
   stroke-width="2"
   stroke-linecap="round"
   stroke-linejoin="round"
   version="1.1"
   id="svg1"
   xmlns="http://www.w3.org/2000/svg"
   xmlns:svg="http://www.w3.org/2000/svg">
  <defs
     id="defs1" />
  <path
     id="rect1"
     style="color:#000000;fill:#000000;-inkscape-stroke:none"
     d="M 8 1 C 6.3553005 1 5 2.3553005 5 4 L 5 20 C 5 21.644699 6.3553005 23 8 23 L 16 23 C 17.644699 23 19 21.644699 19 20 L 19 4 C 19 2.3553005 17.644699 1 16 1 L 8 1 z M 8 3 L 16 3 C 16.571296 3 17 3.4287039 17 4 L 17 20 C 17 20.571296 16.571296 21 16 21 L 8 21 C 7.4287039 21 7 20.571296 7 20 L 7 4 C 7 3.4287039 7.4287039 3 8 3 z "
     stroke-width="0" />
</svg>
