<?xml version="1.0" encoding="UTF-8" standalone="no"?>
<svg
   width="24"
   height="24"
   viewBox="0 0 24 24"
   fill="none"
   stroke="currentColor"
   stroke-width="2"
   stroke-linecap="round"
   stroke-linejoin="round"
   version="1.1"
   id="svg6"
   xmlns="http://www.w3.org/2000/svg"
   xmlns:svg="http://www.w3.org/2000/svg">
  <defs
     id="defs6" />
  <path
     id="path1"
     style="color:#000000;fill:#000000;-inkscape-stroke:none"
     d="M 11.962891 2 C 10.972437 2.0213144 10.06326 2.5625407 9.5703125 3.421875 L 9.5703125 3.4179688 L 8.4785156 5.3105469 A 1 1 0 0 0 8.84375 6.6777344 A 1 1 0 0 0 10.208984 6.3105469 L 11.302734 4.4199219 A 1.0001 1.0001 0 0 0 11.304688 4.4160156 C 11.448172 4.1658836 11.70859 4.0162004 11.996094 4.0058594 C 12.272761 4.0095694 12.526693 4.150748 12.666016 4.390625 L 15.402344 9.140625 L 13.636719 8.6679688 A 1 1 0 0 0 12.412109 9.375 A 1 1 0 0 0 13.119141 10.599609 L 17.214844 11.697266 A 1.0001 1.0001 0 0 0 17.314453 11.710938 A 1 1 0 0 0 17.410156 11.722656 A 1.0001 1.0001 0 0 0 17.615234 11.712891 A 1 1 0 0 0 17.699219 11.701172 A 1.0001 1.0001 0 0 0 17.972656 11.597656 A 1 1 0 0 0 18.179688 11.4375 A 1 1 0 0 0 18.335938 11.236328 A 1 1 0 0 0 18.34375 11.220703 A 1 1 0 0 0 18.433594 11.003906 A 1.0001 1.0001 0 0 0 18.439453 10.990234 L 19.537109 6.8945312 A 1 1 0 0 0 18.830078 5.6699219 A 1 1 0 0 0 17.605469 6.3769531 L 17.132812 8.1386719 L 14.396484 3.3886719 A 1.0001 1.0001 0 0 0 14.396484 3.3867188 C 13.898062 2.5286439 12.974727 1.9981504 11.982422 2 A 1.0001 1.0001 0 0 0 11.962891 2 z M 7.1972656 8.5 A 1 1 0 0 0 6.9375 8.5332031 L 2.8417969 9.6328125 A 1 1 0 0 0 2.1347656 10.857422 A 1 1 0 0 0 3.359375 11.564453 L 5.1191406 11.09375 L 2.375 15.833984 A 1.0001 1.0001 0 0 0 2.3730469 15.837891 C 1.8788811 16.698902 1.8828401 17.762307 2.3808594 18.621094 A 1.0001 1.0001 0 0 0 2.390625 18.636719 C 2.9037063 19.482703 3.8252186 20.001494 4.8144531 20 L 7 20 A 1 1 0 0 0 8 19 A 1 1 0 0 0 7 18 L 4.8144531 18 A 1.0001 1.0001 0 0 0 4.8125 18 C 4.5241133 18.000834 4.2621014 17.849302 4.109375 17.605469 C 3.9749028 17.364974 3.9712799 17.076043 4.1074219 16.835938 L 6.8535156 12.087891 L 7.3261719 13.855469 A 1 1 0 0 0 8.5507812 14.5625 A 1 1 0 0 0 9.2597656 13.337891 L 8.1621094 9.2421875 A 1.0001 1.0001 0 0 0 8.1601562 9.2363281 A 1 1 0 0 0 7.9160156 8.8085938 A 1.0001 1.0001 0 0 0 7.8886719 8.78125 A 1 1 0 0 0 7.6972656 8.6347656 A 1 1 0 0 0 7.1972656 8.5 z M 19.533203 13.214844 A 1 1 0 0 0 19.033203 13.349609 A 1 1 0 0 0 18.667969 14.714844 L 19.890625 16.832031 C 20.027842 17.071303 20.023725 17.360798 19.890625 17.601562 C 19.740075 17.845022 19.482217 17.99778 19.195312 18 L 13.414062 18 L 14.707031 16.707031 A 1 1 0 0 0 14.707031 15.292969 A 1 1 0 0 0 14 15 A 1 1 0 0 0 13.292969 15.292969 L 10.292969 18.292969 A 1.0001 1.0001 0 0 0 10.236328 18.367188 A 1 1 0 0 0 10.169922 18.453125 A 1.0001 1.0001 0 0 0 10.085938 18.619141 A 1 1 0 0 0 10.044922 18.720703 A 1.0001 1.0001 0 0 0 10.044922 19.279297 A 1 1 0 0 0 10.085938 19.380859 A 1.0001 1.0001 0 0 0 10.169922 19.546875 A 1 1 0 0 0 10.236328 19.632812 A 1.0001 1.0001 0 0 0 10.292969 19.707031 L 13.292969 22.707031 A 1 1 0 0 0 14.707031 22.707031 A 1 1 0 0 0 14.707031 21.292969 L 13.414062 20 L 19.203125 20 A 1.0001 1.0001 0 0 0 19.210938 20 C 20.196762 19.9924 21.110823 19.46892 21.617188 18.623047 A 1.0001 1.0001 0 0 0 21.626953 18.607422 C 22.118103 17.75098 22.118103 16.694332 21.626953 15.837891 A 1.0001 1.0001 0 0 0 21.625 15.833984 L 20.398438 13.714844 A 1 1 0 0 0 19.791016 13.248047 A 1 1 0 0 0 19.533203 13.214844 z "
     stroke-width="0" />
</svg>
