<?xml version="1.0" encoding="UTF-8" standalone="no"?>
<svg xmlns="http://www.w3.org/2000/svg" xmlns:svg="http://www.w3.org/2000/svg" width="24" height="24" viewBox="0 0 24 24" fill="currentColor" tags="frigerator,fridge,freezer,cooler,icebox,chiller,cold storage" categories="food-beverage,home">
  
  <path d="M 9 1 C 6.2504263 1 4 3.2504263 4 6 L 4 20 C 4 21.645006 5.3549936 23 7 23 L 17 23 C 18.645006 23 20 21.645006 20 20 L 20 6 C 20 3.2504263 17.749573 1 15 1 L 9 1 z M 9 3 L 15 3 C 16.668695 3 18 4.3313045 18 6 L 18 9 L 16 9 L 16 7 A 1 1 0 0 0 15 6 A 1 1 0 0 0 14 7 L 14 9 L 6 9 L 6 6 C 6 4.3313045 7.3313045 3 9 3 z M 6 11 L 14 11 L 14 13 A 1 1 0 0 0 15 14 A 1 1 0 0 0 16 13 L 16 11 L 18 11 L 18 20 C 18 20.564128 17.564128 21 17 21 L 7 21 C 6.4358718 21 6 20.564128 6 20 L 6 11 z "/>
</svg>
