<?xml version="1.0" encoding="UTF-8" standalone="no"?>
<svg
   width="24"
   height="24"
   viewBox="0 0 24 24"
   fill="none"
   stroke="currentColor"
   stroke-width="2"
   stroke-linecap="round"
   stroke-linejoin="round"
   version="1.1"
   id="svg4"
   xmlns="http://www.w3.org/2000/svg"
   xmlns:svg="http://www.w3.org/2000/svg">
  <defs
     id="defs4" />
  <path
     id="path1"
     style="color:#000000;fill:#000000;-inkscape-stroke:none"
     d="M 3 1 A 1 1 0 0 0 2 2 L 2 8 A 1.0001 1.0001 0 0 0 2.0527344 8.3046875 A 1 1 0 0 0 2.0839844 8.3808594 A 1.0001 1.0001 0 0 0 2.2246094 8.6191406 A 1 1 0 0 0 2.2558594 8.6699219 A 1 1 0 0 0 2.2753906 8.6855469 A 1.0001 1.0001 0 0 0 2.5371094 8.8808594 A 1 1 0 0 0 2.6289062 8.9199219 A 1.0001 1.0001 0 0 0 2.8925781 8.9863281 A 1 1 0 0 0 2.9726562 8.9960938 A 1.0001 1.0001 0 0 0 3 9 L 9 9 A 1 1 0 0 0 10 8 A 1 1 0 0 0 9 7 L 5.6054688 7 L 6.6660156 6.0449219 L 6.6699219 6.0429688 C 9.2731083 3.7169969 12.564143 3.498208 15.261719 4.703125 C 17.960478 5.9085708 19.996817 8.5067379 20 12 A 1 1 0 0 0 21 13 A 1 1 0 0 0 22 12 C 21.996099 7.718382 19.428817 4.3735953 16.078125 2.8769531 C 14.40278 2.1286321 12.514975 1.8344535 10.646484 2.0839844 C 8.7779947 2.3335152 6.9296491 3.12748 5.3339844 4.5546875 A 1.0001 1.0001 0 0 0 5.3300781 4.5566406 L 4 5.7539062 L 4 2 A 1 1 0 0 0 3 1 z M 12 10 C 10.907277 10 10 10.907277 10 12 C 10 13.092723 10.907277 14 12 14 C 13.092723 14 14 13.092723 14 12 C 14 10.907277 13.092723 10 12 10 z M 3 11 A 1 1 0 0 0 2 12 C 2.0039 16.281618 4.5711836 19.626404 7.921875 21.123047 C 11.272567 22.619689 15.474686 22.299728 18.666016 19.445312 A 1.0001 1.0001 0 0 0 18.669922 19.443359 L 20 18.246094 L 20 22 A 1 1 0 0 0 21 23 A 1 1 0 0 0 22 22 L 22 16 A 1 1 0 0 0 21.96875 15.757812 A 1.0001 1.0001 0 0 0 21.962891 15.730469 A 1 1 0 0 0 21.865234 15.5 A 1.0001 1.0001 0 0 0 21.861328 15.496094 A 1 1 0 0 0 21.744141 15.330078 A 1 1 0 0 0 21.724609 15.314453 A 1.0001 1.0001 0 0 0 21.462891 15.119141 A 1 1 0 0 0 21.371094 15.080078 A 1.0001 1.0001 0 0 0 21.107422 15.013672 A 1 1 0 0 0 21.027344 15.003906 A 1.0001 1.0001 0 0 0 21 15 L 15 15 A 1 1 0 0 0 14 16 A 1 1 0 0 0 15 17 L 18.392578 17 L 17.330078 17.957031 C 14.726897 20.283051 11.435856 20.501792 8.7382812 19.296875 C 6.0395219 18.091429 4.003183 15.493263 4 12 A 1 1 0 0 0 3 11 z "
     stroke-width="0" />
</svg>
