<?xml version="1.0" encoding="UTF-8" standalone="no"?>
<svg xmlns="http://www.w3.org/2000/svg" xmlns:svg="http://www.w3.org/2000/svg" width="24" height="24" viewBox="0 0 24 24" fill="currentColor" tags="search,text,code" categories="text,development">
  
  <path d="M 17 2 A 1 1 0 0 0 16 3 L 16 6.2695312 L 13.169922 4.6347656 A 1 1 0 0 0 11.804688 5 A 1 1 0 0 0 12.169922 6.3652344 L 15.001953 8 L 12.169922 9.6347656 A 1 1 0 0 0 11.804688 11 A 1 1 0 0 0 13.169922 11.365234 L 16 9.7304688 L 16 13 A 1 1 0 0 0 17 14 A 1 1 0 0 0 18 13 L 18 9.7304688 L 20.830078 11.365234 A 1 1 0 0 0 22.195312 11 A 1 1 0 0 0 21.830078 9.6347656 L 18.998047 8 L 21.830078 6.3652344 A 1 1 0 0 0 22.195312 5 A 1 1 0 0 0 21.587891 4.5332031 A 1 1 0 0 0 20.830078 4.6347656 L 18 6.2695312 L 18 3 A 1 1 0 0 0 17 2 z M 5 14 C 3.3549936 14 2 15.354994 2 17 L 2 19 C 2 20.645006 3.3549936 22 5 22 L 7 22 C 8.6450064 22 10 20.645006 10 19 L 10 17 C 10 15.354994 8.6450064 14 7 14 L 5 14 z M 5 16 L 7 16 C 7.5641282 16 8 16.435872 8 17 L 8 19 C 8 19.564128 7.5641282 20 7 20 L 5 20 C 4.4358718 20 4 19.564128 4 19 L 4 17 C 4 16.435872 4.4358718 16 5 16 z "/>
</svg>
