<?xml version="1.0" encoding="UTF-8" standalone="no"?>
<svg xmlns="http://www.w3.org/2000/svg" xmlns:svg="http://www.w3.org/2000/svg" width="24" height="24" viewBox="0 0 24 24" fill="currentColor" tags="text,font,typography,format,x,remove,delete,times,clear" categories="text">
  
  <path d="M 4 3 A 1.0001 1.0001 0 0 0 3 4 L 3 7 A 1 1 0 0 0 4 8 A 1 1 0 0 0 5 7 L 5 5 L 11.638672 5 L 7.2636719 19 L 5 19 A 1 1 0 0 0 4 20 A 1 1 0 0 0 5 21 L 11 21 A 1 1 0 0 0 12 20 A 1 1 0 0 0 11 19 L 9.3613281 19 L 13.736328 5 L 19 5 L 19 7 A 1 1 0 0 0 20 8 A 1 1 0 0 0 21 7 L 21 4 A 1.0001 1.0001 0 0 0 20 3 L 4 3 z M 15 14 A 1 1 0 0 0 14.292969 14.292969 A 1 1 0 0 0 14.292969 15.707031 L 16.085938 17.5 L 14.292969 19.292969 A 1 1 0 0 0 14.292969 20.707031 A 1 1 0 0 0 15.707031 20.707031 L 17.5 18.914062 L 19.292969 20.707031 A 1 1 0 0 0 20.707031 20.707031 A 1 1 0 0 0 20.707031 19.292969 L 18.914062 17.5 L 20.707031 15.707031 A 1 1 0 0 0 20.707031 14.292969 A 1 1 0 0 0 19.292969 14.292969 L 17.5 16.085938 L 15.707031 14.292969 A 1 1 0 0 0 15 14 z "/>
</svg>
