<?xml version="1.0" encoding="UTF-8" standalone="no"?>
<svg
   width="24"
   height="24"
   viewBox="0 0 24 24"
   fill="none"
   stroke="currentColor"
   stroke-width="2"
   stroke-linecap="round"
   stroke-linejoin="round"
   version="1.1"
   id="svg4"
   xmlns="http://www.w3.org/2000/svg"
   xmlns:svg="http://www.w3.org/2000/svg">
  <defs
     id="defs4" />
  <path
     id="path1"
     style="color:#000000;fill:#000000;-inkscape-stroke:none"
     d="M 17 1 A 1 1 0 0 0 16.292969 1.2929688 A 1 1 0 0 0 16.292969 2.7070312 L 18.585938 5 L 7 5 C 4.2504263 5 2 7.2504263 2 10 L 2 11 A 1 1 0 0 0 3 12 A 1 1 0 0 0 4 11 L 4 10 C 4 8.3313045 5.3313045 7 7 7 L 18.585938 7 L 16.292969 9.2929688 A 1 1 0 0 0 16.292969 10.707031 A 1 1 0 0 0 17.707031 10.707031 L 21.707031 6.7070312 A 1.0001 1.0001 0 0 0 21.994141 5.9023438 A 1 1 0 0 0 21.980469 5.8046875 A 1.0001 1.0001 0 0 0 21.974609 5.7851562 A 1 1 0 0 0 21.957031 5.7089844 A 1.0001 1.0001 0 0 0 21.865234 5.5 A 1 1 0 0 0 21.853516 5.4824219 A 1.0001 1.0001 0 0 0 21.792969 5.390625 A 1 1 0 0 0 21.787109 5.3847656 A 1.0001 1.0001 0 0 0 21.707031 5.2929688 L 17.707031 1.2929688 A 1 1 0 0 0 17 1 z M 21 12 A 1 1 0 0 0 20 13 L 20 14 C 20 15.668695 18.668695 17 17 17 L 5.4140625 17 L 7.7070312 14.707031 A 1 1 0 0 0 7.7070312 13.292969 A 1 1 0 0 0 7 13 A 1 1 0 0 0 6.2929688 13.292969 L 2.2929688 17.292969 A 1.0001 1.0001 0 0 0 2.1035156 17.576172 A 1 1 0 0 0 2.0664062 17.666016 A 1.0001 1.0001 0 0 0 2 18 A 1.0001 1.0001 0 0 0 2.0664062 18.333984 A 1 1 0 0 0 2.1035156 18.423828 A 1.0001 1.0001 0 0 0 2.2929688 18.707031 L 6.2929688 22.707031 A 1 1 0 0 0 7.7070312 22.707031 A 1 1 0 0 0 7.7070312 21.292969 L 5.4140625 19 L 17 19 C 19.749573 19 22 16.749573 22 14 L 22 13 A 1 1 0 0 0 21 12 z "
     stroke-width="0" />
</svg>
