<?xml version="1.0" encoding="UTF-8" standalone="no"?>
<svg
   width="24"
   height="24"
   viewBox="0 0 24 24"
   fill="none"
   stroke="currentColor"
   stroke-width="2"
   stroke-linecap="round"
   stroke-linejoin="round"
   version="1.1"
   id="svg4"
   xmlns="http://www.w3.org/2000/svg"
   xmlns:svg="http://www.w3.org/2000/svg">
  <defs
     id="defs4" />
  <path
     id="path1"
     style="color:#000000;fill:#000000;-inkscape-stroke:none"
     d="M 5 5 A 1.0001 1.0001 0 0 0 4.7207031 5.0449219 A 1 1 0 0 0 4.6191406 5.0859375 A 1.0001 1.0001 0 0 0 4.453125 5.1699219 A 1 1 0 0 0 4.3671875 5.2363281 A 1.0001 1.0001 0 0 0 4.2929688 5.2929688 L 1.2929688 8.2929688 A 1 1 0 0 0 1.2929688 9.7070312 A 1 1 0 0 0 2.7070312 9.7070312 L 4 8.4140625 L 4 16 C 4 17.645006 5.3549936 19 7 19 L 13 19 A 1 1 0 0 0 14 18 A 1 1 0 0 0 13 17 L 7 17 C 6.4358718 17 6 16.564128 6 16 L 6 8.4140625 L 7.2929688 9.7070312 A 1 1 0 0 0 8.7070312 9.7070312 A 1 1 0 0 0 8.7070312 8.2929688 L 5.7480469 5.3359375 A 1 1 0 0 0 5.7070312 5.2929688 A 1.0001 1.0001 0 0 0 5.6992188 5.2871094 A 1 1 0 0 0 5.5097656 5.1425781 A 1.0001 1.0001 0 0 0 5.4902344 5.1308594 A 1 1 0 0 0 5 5 z M 11 5 A 1 1 0 0 0 10 6 A 1 1 0 0 0 11 7 L 17 7 C 17.564128 7 18 7.4358718 18 8 L 18 15.585938 L 16.707031 14.292969 A 1 1 0 0 0 15.292969 14.292969 A 1 1 0 0 0 15.292969 15.707031 L 18.292969 18.707031 A 1.0001 1.0001 0 0 0 18.367188 18.763672 A 1 1 0 0 0 18.453125 18.830078 A 1.0001 1.0001 0 0 0 18.619141 18.914062 A 1 1 0 0 0 18.720703 18.955078 A 1.0001 1.0001 0 0 0 19 19 A 1.0001 1.0001 0 0 0 19.279297 18.955078 A 1 1 0 0 0 19.380859 18.914062 A 1.0001 1.0001 0 0 0 19.546875 18.830078 A 1 1 0 0 0 19.632812 18.763672 A 1.0001 1.0001 0 0 0 19.707031 18.707031 L 22.707031 15.707031 A 1 1 0 0 0 22.707031 14.292969 A 1 1 0 0 0 21.292969 14.292969 L 20 15.585938 L 20 8 C 20 6.3549936 18.645006 5 17 5 L 11 5 z "
     stroke-width="0" />
</svg>
