<?xml version="1.0" encoding="UTF-8" standalone="no"?>
<svg
   width="24"
   height="24"
   viewBox="0 0 24 24"
   fill="none"
   stroke="currentColor"
   stroke-width="2"
   stroke-linecap="round"
   stroke-linejoin="round"
   version="1.1"
   id="svg1"
   xmlns="http://www.w3.org/2000/svg"
   xmlns:svg="http://www.w3.org/2000/svg">
  <defs
     id="defs1" />
  <path
     id="polyline1"
     style="color:#000000;fill:#000000;-inkscape-stroke:none"
     d="M 9 6 A 1 1 0 0 0 8.2929688 6.2929688 L 3.2929688 11.292969 A 1.0001 1.0001 0 0 0 3.0957031 11.587891 A 1 1 0 0 0 3.0605469 11.695312 A 1.0001 1.0001 0 0 0 3.0117188 11.941406 A 1 1 0 0 0 3 12 A 1 1 0 0 0 3.0117188 12.058594 A 1.0001 1.0001 0 0 0 3.0605469 12.304688 A 1 1 0 0 0 3.0957031 12.412109 A 1.0001 1.0001 0 0 0 3.2929688 12.707031 L 8.2929688 17.707031 A 1 1 0 0 0 9.7070312 17.707031 A 1 1 0 0 0 9.7070312 16.292969 L 6.4140625 13 L 16 13 C 17.668695 13 19 14.331305 19 16 L 19 18 A 1 1 0 0 0 20 19 A 1 1 0 0 0 21 18 L 21 16 C 21 13.250427 18.749573 11 16 11 L 6.4140625 11 L 9.7070312 7.7070312 A 1 1 0 0 0 9.7070312 6.2929688 A 1 1 0 0 0 9 6 z "
     stroke-width="0" />
</svg>
