<?xml version="1.0" encoding="UTF-8" standalone="no"?>
<svg xmlns="http://www.w3.org/2000/svg" xmlns:svg="http://www.w3.org/2000/svg" width="24" height="24" viewBox="0 0 24 24" fill="currentColor" tags="music" categories="arrows,multimedia">
  
  <path d="M 11.083984 4.0039062 A 1.0001 1.0001 0 0 0 10.386719 4.2109375 L 1.3867188 11.210938 A 1.0001 1.0001 0 0 0 1.3867188 12.789062 L 10.386719 19.789062 A 1.0001 1.0001 0 0 0 12 19 L 12 5 A 1.0001 1.0001 0 0 0 11.439453 4.1015625 A 1.0001 1.0001 0 0 0 11.083984 4.0039062 z M 22.083984 4.0039062 A 1.0001 1.0001 0 0 0 21.386719 4.2109375 L 12.386719 11.210938 A 1.0001 1.0001 0 0 0 12.386719 12.789062 L 21.386719 19.789062 A 1.0001 1.0001 0 0 0 23 19 L 23 5 A 1.0001 1.0001 0 0 0 22.439453 4.1015625 A 1.0001 1.0001 0 0 0 22.083984 4.0039062 z M 10 7.0429688 L 10 16.957031 L 3.6269531 12 L 10 7.0429688 z M 21 7.0429688 L 21 16.957031 L 14.626953 12 L 21 7.0429688 z "/>
</svg>
