<?xml version="1.0" encoding="UTF-8" standalone="no"?>
<svg
   width="24"
   height="24"
   viewBox="0 0 24 24"
   fill="none"
   stroke="currentColor"
   stroke-width="2"
   stroke-linecap="round"
   stroke-linejoin="round"
   version="1.1"
   id="svg7"
   xmlns="http://www.w3.org/2000/svg"
   xmlns:svg="http://www.w3.org/2000/svg">
  <defs
     id="defs7" />
  <path
     id="path1"
     style="color:#000000;fill:#000000;-inkscape-stroke:none"
     d="M 6 4 C 3.2504263 4 1 6.2504263 1 9 L 1 19 A 1 1 0 0 0 2 20 A 1 1 0 0 0 3 19 L 3 9 C 3 7.6833471 3.8305771 6.5801903 5 6.171875 L 5 19 A 1 1 0 0 0 6 20 A 1 1 0 0 0 7 19 L 7 6.1464844 C 7.6394267 6.3270622 8.3067933 6.6838998 9 7.2421875 L 9 19 A 1 1 0 0 0 10 20 A 1 1 0 0 0 11 19 L 11 9.3417969 C 11.066371 9.4273127 11.132441 9.5104616 11.199219 9.5996094 C 11.786232 10.383273 12.386738 11.069153 13 11.65625 L 13 19 A 1 1 0 0 0 14 20 A 1 1 0 0 0 15 19 L 15 13.169922 C 15.652472 13.534545 16.318801 13.782749 17 13.90625 L 17 19 A 1 1 0 0 0 18 20 A 1 1 0 0 0 19 19 L 19 13.896484 C 19.747418 13.74228 20.42495 13.421141 21 12.978516 L 21 19 A 1 1 0 0 0 22 20 A 1 1 0 0 0 23 19 L 23 9 A 1 1 0 0 0 22.990234 8.8652344 C 22.977254 8.22645 22.839694 7.5751237 22.554688 6.9433594 C 21.739669 5.1367353 20.018765 4.1230756 18.240234 4.0292969 A 1 1 0 0 0 18 4 A 1 1 0 0 0 17.771484 4.0273438 C 16.481466 4.0769762 15.200497 4.6128132 14.25 5.6875 A 1 1 0 0 0 14.337891 7.0996094 A 1 1 0 0 0 15.75 7.0117188 C 16.11168 6.602782 16.542742 6.3201733 17 6.1542969 L 17 9 A 1 1 0 0 0 18 10 A 1 1 0 0 0 19 9 L 19 6.1542969 C 19.726596 6.4138429 20.365391 6.9563702 20.730469 7.765625 C 20.909585 8.1626664 20.995744 8.5671533 21.005859 8.9609375 A 1 1 0 0 0 21 9 L 21 9.2792969 C 20.879252 10.753637 19.66117 11.998441 18 12 C 17.002612 12 15.92952 11.562652 14.787109 10.582031 A 1 1 0 0 0 14.521484 10.345703 C 13.964268 9.8306329 13.390122 9.1871603 12.800781 8.4003906 C 10.704537 5.6019041 8.4433285 4 6 4 z "
     stroke-width="0" />
</svg>
