<?xml version="1.0" encoding="UTF-8" standalone="no"?>
<svg xmlns="http://www.w3.org/2000/svg" xmlns:svg="http://www.w3.org/2000/svg" width="24" height="24" viewBox="0 0 24 24" fill="currentColor" tags="arrow,right,clockwise,refresh,reload,rerun,redo" categories="arrows,design,photography">
  
  <path d="M 12 2 C 7.5876732 2 4.19831 4.7051386 2.7617188 8.1738281 C 1.3251274 11.642518 1.8100346 15.95066 4.9296875 19.070312 C 8.0493404 22.189966 12.357482 22.674873 15.826172 21.238281 C 19.294861 19.801691 22 16.412327 22 12 A 1 1 0 0 0 21 11 A 1 1 0 0 0 20 12 C 20 15.606358 17.858269 18.23273 15.0625 19.390625 C 12.266731 20.54852 8.8934766 20.205976 6.34375 17.65625 C 3.7940234 15.106524 3.4514803 11.733269 4.609375 8.9375 C 5.7672697 6.1417309 8.3936415 4 12 4 C 14.255445 4 16.418594 4.8956281 18.046875 6.4609375 L 18.585938 7 L 16 7 A 1 1 0 0 0 15 8 A 1 1 0 0 0 16 9 L 21 9 A 1.0001 1.0001 0 0 0 21.341797 8.9316406 A 1 1 0 0 0 21.419922 8.8984375 A 1.0001 1.0001 0 0 0 21.707031 8.7070312 A 1 1 0 0 0 21.849609 8.5195312 A 1.0001 1.0001 0 0 0 21.873047 8.4824219 A 1 1 0 0 0 21.957031 8.28125 A 1.0001 1.0001 0 0 0 21.970703 8.2265625 A 1 1 0 0 0 22 8 L 22 3 A 1 1 0 0 0 21 2 A 1 1 0 0 0 20 3 L 20 5.5859375 L 19.447266 5.0332031 A 1.0001 1.0001 0 0 0 19.433594 5.0195312 C 17.441881 3.1048478 14.784544 2 12 2 z "/>
</svg>
