<?xml version="1.0" encoding="UTF-8" standalone="no"?>
<svg
   width="24"
   height="24"
   viewBox="0 0 24 24"
   fill="none"
   stroke="currentColor"
   stroke-width="2"
   stroke-linecap="round"
   stroke-linejoin="round"
   version="1.1"
   id="svg5"
   xmlns="http://www.w3.org/2000/svg"
   xmlns:svg="http://www.w3.org/2000/svg">
  <defs
     id="defs5" />
  <path
     id="rect1"
     style="color:#000000;fill:#000000;-inkscape-stroke:none"
     d="M 15.005859 1.0058594 C 12.701397 1.0058594 10.395514 1.8810248 8.6425781 3.6328125 A 1 1 0 0 0 8.6425781 5.046875 A 1 1 0 0 0 10.056641 5.046875 C 12.798294 2.3070174 17.211471 2.3070174 19.953125 5.046875 A 1 1 0 0 0 21.367188 5.046875 A 1 1 0 0 0 21.367188 3.6328125 C 19.614251 1.8810248 17.310323 1.0058594 15.005859 1.0058594 z M 15.009766 5.0039062 C 13.727186 5.0039062 12.44499 5.489475 11.472656 6.4628906 A 1 1 0 0 0 11.472656 7.8769531 A 1 1 0 0 0 12.886719 7.8769531 C 14.066959 6.6953997 15.952574 6.6953997 17.132812 7.8769531 A 1 1 0 0 0 18.546875 7.8769531 A 1 1 0 0 0 18.546875 6.4628906 C 17.574542 5.489475 16.292345 5.0039062 15.009766 5.0039062 z M 15 9 A 1 1 0 0 0 14 10 L 14 13 L 4 13 C 2.3553005 13 1 14.355301 1 16 L 1 20 C 1 21.644699 2.3553005 23 4 23 L 20 23 C 21.644699 23 23 21.644699 23 20 L 23 16 C 23 14.355301 21.644699 13 20 13 L 16 13 L 16 10 A 1 1 0 0 0 15 9 z M 4 15 L 20 15 C 20.571296 15 21 15.428704 21 16 L 21 20 C 21 20.571296 20.571296 21 20 21 L 4 21 C 3.4287039 21 3 20.571296 3 20 L 3 16 C 3 15.428704 3.4287039 15 4 15 z M 6 17 A 1 1 0 0 0 5 18 A 1 1 0 0 0 6 19 L 6.0097656 19 A 1 1 0 0 0 7.0097656 18 A 1 1 0 0 0 6.0097656 17 L 6 17 z M 10 17 A 1 1 0 0 0 9 18 A 1 1 0 0 0 10 19 L 10.009766 19 A 1 1 0 0 0 11.009766 18 A 1 1 0 0 0 10.009766 17 L 10 17 z "
     stroke-width="0" />
</svg>
