<?xml version="1.0" encoding="UTF-8" standalone="no"?>
<svg
   width="24"
   height="24"
   viewBox="0 0 24 24"
   fill="none"
   stroke="currentColor"
   stroke-width="2"
   stroke-linecap="round"
   stroke-linejoin="round"
   version="1.1"
   id="svg3"
   xmlns="http://www.w3.org/2000/svg"
   xmlns:svg="http://www.w3.org/2000/svg">
  <defs
     id="defs3" />
  <path
     id="path1"
     style="color:#000000;fill:#000000;-inkscape-stroke:none"
     d="M 10 1 A 1 1 0 0 0 9.9453125 1.0078125 A 1.0001 1.0001 0 0 0 9.8925781 1.0058594 A 1.0001 1.0001 0 0 0 9.7910156 1.0332031 A 1 1 0 0 0 9.6464844 1.0722656 A 1.0001 1.0001 0 0 0 9.5019531 1.1464844 A 1 1 0 0 0 9.3769531 1.2265625 A 1.0001 1.0001 0 0 0 9.2636719 1.3398438 A 1 1 0 0 0 9.1679688 1.4570312 A 1.0001 1.0001 0 0 0 9.1367188 1.4960938 L 2.1367188 13.496094 A 1.0001 1.0001 0 0 0 3 15 L 9 15 L 9 17 L 2 17 A 1.0001 1.0001 0 0 0 1 18 C 1 20.749573 3.2504263 23 6 23 L 18 23 C 20.749573 23 23 20.749573 23 18 A 1.0001 1.0001 0 0 0 22 17 L 11 17 L 11 15 L 21 15 A 1.0001 1.0001 0 0 0 21.736328 13.324219 L 10.753906 1.34375 L 10.748047 1.3359375 A 1 1 0 0 0 10.736328 1.3242188 A 1 1 0 0 0 10.503906 1.1386719 A 1.0001 1.0001 0 0 0 10.484375 1.1269531 A 1 1 0 0 0 10.208984 1.0234375 A 1 1 0 0 0 10.203125 1.0214844 A 1.0001 1.0001 0 0 0 10.195312 1.0214844 A 1 1 0 0 0 10 1 z M 11 4.5703125 L 18.726562 13 L 11 13 L 11 4.5703125 z M 9 5.6972656 L 9 13 L 4.7402344 13 L 9 5.6972656 z M 3.4121094 19 L 10 19 L 20.587891 19 C 20.150854 20.1125 19.276014 21 18 21 L 6 21 C 4.7239864 21 3.8491456 20.1125 3.4121094 19 z "
     stroke-width="0" />
</svg>
