<?xml version="1.0" encoding="UTF-8" standalone="no"?>
<svg xmlns="http://www.w3.org/2000/svg" xmlns:svg="http://www.w3.org/2000/svg" width="24" height="24" viewBox="0 0 24 24" fill="currentColor" tags="food,snack,dish,restaurant,lunch,meal" categories="food-beverage">
  
  <path d="M 12 3.5390625 C 11.347633 3.5390625 10.694558 3.7505062 10.154297 4.171875 L 2.3867188 10.210938 A 1.0001 1.0001 0 0 0 2.3476562 10.255859 A 1 1 0 0 0 2.2050781 10.425781 A 1.0001 1.0001 0 0 0 2.1074219 10.570312 A 1 1 0 0 0 2.0410156 10.791016 A 1.0001 1.0001 0 0 0 2.0078125 10.957031 A 1 1 0 0 0 2 11 L 2 14 C 2 14.363099 2.10152 14.704337 2.2753906 15 C 2.10152 15.295663 2 15.636901 2 16 L 2 18 C 2 19.092723 2.9072773 20 4 20 L 11.654297 20 L 12.34375 20.550781 L 12.345703 20.550781 C 13.60681 21.561214 15.471253 21.379628 16.513672 20.144531 A 1.0001 1.0001 0 0 0 16.517578 20.140625 L 16.634766 20 L 20 20 C 21.092723 20 22 19.092723 22 18 L 22 16 C 22 15.636901 21.89848 15.295663 21.724609 15 C 21.89848 14.704337 22 14.363099 22 14 L 22 11 A 1 1 0 0 0 21.613281 10.210938 L 21.609375 10.207031 A 1 1 0 0 0 21.601562 10.201172 L 13.845703 4.171875 C 13.305442 3.7505062 12.652367 3.5390625 12 3.5390625 z M 12 5.5351562 C 12.216226 5.5351562 12.432453 5.605489 12.615234 5.7480469 A 1.0001 1.0001 0 0 0 12.617188 5.75 L 18.085938 10 L 5.9140625 10 L 11.382812 5.75 A 1.0001 1.0001 0 0 0 11.384766 5.7480469 C 11.567547 5.605489 11.783774 5.5351562 12 5.5351562 z M 4 12 L 20 12 L 20 14 L 19.5 14 L 7 14 L 4 14 L 4 12 z M 4 16 L 6.6484375 16 L 9.1523438 18 L 4 18 L 4 16 z M 9.8535156 16 L 17.365234 16 L 14.986328 18.855469 L 14.984375 18.855469 C 14.627189 19.277187 14.02698 19.33626 13.595703 18.990234 A 1.0001 1.0001 0 0 0 13.59375 18.988281 L 9.8535156 16 z M 19.96875 16 L 20 16 L 20 18 L 18.300781 18 L 19.96875 16 z "/>
</svg>
