<?xml version="1.0" encoding="UTF-8" standalone="no"?>
<svg
   width="24"
   height="24"
   viewBox="0 0 24 24"
   fill="none"
   stroke="currentColor"
   stroke-width="2"
   stroke-linecap="round"
   stroke-linejoin="round"
   version="1.1"
   id="svg4"
   xmlns="http://www.w3.org/2000/svg"
   xmlns:svg="http://www.w3.org/2000/svg">
  <defs
     id="defs4" />
  <path
     id="path1"
     style="color:#000000;fill:#000000;-inkscape-stroke:none"
     d="M 11 2 A 1 1 0 0 0 10 3 A 1 1 0 0 0 11 4 C 15.982397 4 20 8.0176026 20 13 A 1 1 0 0 0 21 14 A 1 1 0 0 0 22 13 C 22 6.9367246 17.063276 2 11 2 z M 11 6 A 1 1 0 0 0 10 7 A 1 1 0 0 0 11 8 C 13.773263 8 16 10.226737 16 13 A 1 1 0 0 0 17 14 A 1 1 0 0 0 18 13 C 18 9.1458591 14.854141 6 11 6 z M 3.8730469 9.0078125 A 1.0001 1.0001 0 0 0 3.1367188 9.4960938 C 1.0154057 13.124756 1.9923888 17.121296 4.4355469 19.564453 C 6.8787049 22.007612 10.875244 22.984594 14.503906 20.863281 A 1.0001 1.0001 0 0 0 14.707031 19.292969 L 10.414062 15 L 12.707031 12.707031 A 1 1 0 0 0 12.707031 11.292969 A 1 1 0 0 0 12 11 A 1 1 0 0 0 11.292969 11.292969 L 9 13.585938 L 4.7070312 9.2929688 A 1.0001 1.0001 0 0 0 3.8730469 9.0078125 z M 4.3730469 11.787109 L 12.212891 19.626953 C 9.7894713 20.450651 7.4497487 19.75053 5.8496094 18.150391 C 4.2494701 16.550251 3.5493483 14.210529 4.3730469 11.787109 z "
     stroke-width="0" />
</svg>
