<?xml version="1.0" encoding="UTF-8" standalone="no"?>
<svg xmlns="http://www.w3.org/2000/svg" xmlns:svg="http://www.w3.org/2000/svg" width="24" height="24" viewBox="0 0 24 24" fill="currentColor" tags="floppy disk" categories="text,files">
  
  <path d="M 5 2 C 3.3549936 2 2 3.3549936 2 5 L 2 19 C 2 20.645006 3.3549936 22 5 22 L 19 22 C 20.645006 22 22 20.645006 22 19 L 22 8 A 1.0001 1.0001 0 0 0 21.707031 7.2929688 L 16.707031 2.2929688 A 1.0001 1.0001 0 0 0 16 2 L 7 2 L 5 2 z M 5 4 L 6 4 L 6 8 A 1.0001 1.0001 0 0 0 7 9 L 15 9 A 1 1 0 0 0 16 8 A 1 1 0 0 0 15 7 L 8 7 L 8 4 L 15.585938 4 L 20 8.4140625 L 20 19 C 20 19.564128 19.564128 20 19 20 L 18 20 L 18 13 A 1.0001 1.0001 0 0 0 17 12 L 7 12 A 1.0001 1.0001 0 0 0 6 13 L 6 20 L 5 20 C 4.4358718 20 4 19.564128 4 19 L 4 5 C 4 4.4358718 4.4358718 4 5 4 z M 8 14 L 16 14 L 16 20 L 8 20 L 8 14 z "/>
</svg>
