<?xml version="1.0" encoding="UTF-8" standalone="no"?>
<svg
   width="24"
   height="24"
   viewBox="0 0 24 24"
   fill="none"
   stroke="currentColor"
   stroke-width="2"
   stroke-linecap="round"
   stroke-linejoin="round"
   version="1.1"
   id="svg4"
   xmlns="http://www.w3.org/2000/svg"
   xmlns:svg="http://www.w3.org/2000/svg">
  <defs
     id="defs4" />
  <path
     id="path1"
     style="color:#000000;fill:#000000;-inkscape-stroke:none"
     d="M 8 1 C 6.3549936 1 5 2.3549936 5 4 L 5 16 C 5 17.645006 6.3549936 19 8 19 L 19.994141 19 C 21.531855 19.0077 22.840386 17.83081 22.994141 16.300781 A 1.0001 1.0001 0 0 0 23 16.199219 L 23 6 A 1.0001 1.0001 0 0 0 22.707031 5.2929688 L 18.707031 1.2929688 A 1.0001 1.0001 0 0 0 18 1 L 8 1 z M 8 3 L 9 3 L 9 6 A 1.0001 1.0001 0 0 0 10 7 L 16 7 A 1 1 0 0 0 17 6 A 1 1 0 0 0 16 5 L 11 5 L 11 3 L 17.585938 3 L 21 6.4140625 L 21 16.111328 C 20.941424 16.625635 20.525305 17.002603 20.005859 17 A 1.0001 1.0001 0 0 0 20 17 L 19 17 L 19 11 A 1.0001 1.0001 0 0 0 18 10 L 10 10 A 1.0001 1.0001 0 0 0 9 11 L 9 17 L 8 17 C 7.4358718 17 7 16.564128 7 16 L 7 4 C 7 3.4358718 7.4358718 3 8 3 z M 2 5 A 1 1 0 0 0 1 6 L 1 20 C 1 21.645006 2.3549936 23 4 23 L 18 23 A 1 1 0 0 0 19 22 A 1 1 0 0 0 18 21 L 4 21 C 3.4358718 21 3 20.564128 3 20 L 3 6 A 1 1 0 0 0 2 5 z M 11 12 L 17 12 L 17 17 L 11 17 L 11 12 z "
     stroke-width="0" />
</svg>
