<?xml version="1.0" encoding="UTF-8" standalone="no"?>
<svg
   width="24"
   height="24"
   viewBox="0 0 24 24"
   fill="none"
   stroke="currentColor"
   stroke-width="2"
   stroke-linecap="round"
   stroke-linejoin="round"
   version="1.1"
   id="svg5"
   xmlns="http://www.w3.org/2000/svg"
   xmlns:svg="http://www.w3.org/2000/svg">
  <defs
     id="defs5" />
  <path
     id="path1"
     style="color:#000000;fill:#000000;-inkscape-stroke:none"
     d="M 12 2 A 1 1 0 0 0 11 3 L 11 4.3652344 C 9.1235968 5.2133102 6.5123277 6 5 6 L 3 6 A 1 1 0 0 0 2 7 A 1 1 0 0 0 3 8 L 3.9335938 8 L 1.0644531 15.648438 A 1.0001 1.0001 0 0 0 1.4023438 16.800781 C 2.4435119 17.578665 3.7039532 18 5 18 C 6.2960468 18 7.5564881 17.578665 8.5976562 16.800781 A 1.0001 1.0001 0 0 0 8.9355469 15.648438 L 6.0429688 7.9335938 C 7.6568627 7.7483086 9.4371945 7.1786429 11 6.5175781 L 11 20 L 7 20 A 1 1 0 0 0 6 21 A 1 1 0 0 0 7 22 L 17 22 A 1 1 0 0 0 18 21 A 1 1 0 0 0 17 20 L 13 20 L 13 6.5175781 C 14.562805 7.1786429 16.343137 7.7483086 17.957031 7.9335938 L 15.064453 15.648438 A 1.0001 1.0001 0 0 0 15.402344 16.800781 C 16.443512 17.578665 17.703953 18 19 18 C 20.296047 18 21.556488 17.578665 22.597656 16.800781 A 1.0001 1.0001 0 0 0 22.935547 15.648438 L 20.066406 8 L 21 8 A 1 1 0 0 0 22 7 A 1 1 0 0 0 21 6 L 19 6 C 17.487672 6 14.876403 5.2133102 13 4.3652344 L 13 3 A 1 1 0 0 0 12 2 z M 5 10.845703 L 6.71875 15.427734 C 6.1685168 15.700149 5.6180396 16 5 16 C 4.3819604 16 3.8314832 15.700149 3.28125 15.427734 L 5 10.845703 z M 19 10.845703 L 20.71875 15.427734 C 20.168517 15.700149 19.618039 16 19 16 C 18.381961 16 17.831483 15.700149 17.28125 15.427734 L 19 10.845703 z "
     stroke-width="0" />
</svg>
