<?xml version="1.0" encoding="UTF-8" standalone="no"?>
<svg xmlns="http://www.w3.org/2000/svg" xmlns:svg="http://www.w3.org/2000/svg" width="24" height="24" viewBox="0 0 24 24" fill="currentColor" tags="scale,resize,design" categories="design">
  
  <path d="M 3 2 A 1.0001 1.0001 0 0 0 2 3 L 2 21 A 1.0001 1.0001 0 0 0 3 22 L 21 22 A 1.0001 1.0001 0 0 0 22 21 L 22 12 A 1 1 0 0 0 21 11 A 1 1 0 0 0 20 12 L 20 20 L 4 20 L 4 4 L 12 4 A 1 1 0 0 0 13 3 A 1 1 0 0 0 12 2 L 3 2 z M 16 2 A 1 1 0 0 0 15 3 A 1 1 0 0 0 16 4 L 18.585938 4 L 10 12.585938 L 10 10 A 1 1 0 0 0 9 9 A 1 1 0 0 0 8 10 L 8 15 A 1.0001 1.0001 0 0 0 8.0683594 15.341797 A 1 1 0 0 0 8.1015625 15.419922 A 1.0001 1.0001 0 0 0 8.2929688 15.707031 A 1.0001 1.0001 0 0 0 8.5800781 15.898438 A 1 1 0 0 0 8.6582031 15.931641 A 1.0001 1.0001 0 0 0 9 16 L 14 16 A 1 1 0 0 0 15 15 A 1 1 0 0 0 14 14 L 11.414062 14 L 20 5.4140625 L 20 8 A 1 1 0 0 0 21 9 A 1 1 0 0 0 22 8 L 22 3 A 1 1 0 0 0 21.970703 2.7675781 A 1.0001 1.0001 0 0 0 21.955078 2.7128906 A 1 1 0 0 0 21.707031 2.2929688 A 1.0001 1.0001 0 0 0 21.419922 2.1015625 A 1 1 0 0 0 21.341797 2.0683594 A 1.0001 1.0001 0 0 0 21 2 L 16 2 z "/>
</svg>
