<?xml version="1.0" encoding="UTF-8" standalone="no"?>
<svg
   width="24"
   height="24"
   viewBox="0 0 24 24"
   fill="none"
   stroke="currentColor"
   stroke-width="2"
   stroke-linecap="round"
   stroke-linejoin="round"
   version="1.1"
   id="svg5"
   xmlns="http://www.w3.org/2000/svg"
   xmlns:svg="http://www.w3.org/2000/svg">
  <defs
     id="defs5" />
  <path
     id="circle1"
     style="color:#000000;fill:#000000;-inkscape-stroke:none"
     d="M 3 2 A 1 1 0 0 0 2 3 L 2 21 A 1.0001 1.0001 0 0 0 3 22 L 21 22 A 1 1 0 0 0 22 21 A 1 1 0 0 0 21 20 L 4 20 L 4 3 A 1 1 0 0 0 3 2 z M 18.5 4 C 17.683419 4 17 4.6834191 17 5.5 C 17 6.3165809 17.683419 7 18.5 7 C 19.316581 7 20 6.3165809 20 5.5 C 20 4.6834191 19.316581 4 18.5 4 z M 18.5 5 C 18.764297 5 19 5.2357028 19 5.5 C 19 5.7642972 18.764297 6 18.5 6 C 18.235703 6 18 5.7642972 18 5.5 C 18 5.2357028 18.235703 5 18.5 5 z M 7.5 6 C 6.6834191 6 6 6.6834191 6 7.5 C 6 8.3165809 6.6834191 9 7.5 9 C 8.3165809 9 9 8.3165809 9 7.5 C 9 6.6834191 8.3165809 6 7.5 6 z M 7.5 7 C 7.7642972 7 8 7.2357028 8 7.5 C 8 7.7642972 7.7642972 8 7.5 8 C 7.2357028 8 7 7.7642972 7 7.5 C 7 7.2357028 7.2357028 7 7.5 7 z M 11.5 10 C 10.683419 10 10 10.683419 10 11.5 C 10 12.316581 10.683419 13 11.5 13 C 12.316581 13 13 12.316581 13 11.5 C 13 10.683419 12.316581 10 11.5 10 z M 11.5 11 C 11.764297 11 12 11.235703 12 11.5 C 12 11.764297 11.764297 12 11.5 12 C 11.235703 12 11 11.764297 11 11.5 C 11 11.235703 11.235703 11 11.5 11 z M 17.5 13 C 16.683419 13 16 13.683419 16 14.5 C 16 15.316581 16.683419 16 17.5 16 C 18.316581 16 19 15.316581 19 14.5 C 19 13.683419 18.316581 13 17.5 13 z M 17.5 14 C 17.764297 14 18 14.235703 18 14.5 C 18 14.764297 17.764297 15 17.5 15 C 17.235703 15 17 14.764297 17 14.5 C 17 14.235703 17.235703 14 17.5 14 z M 7.5 15 C 6.6834191 15 6 15.683419 6 16.5 C 6 17.316581 6.6834191 18 7.5 18 C 8.3165809 18 9 17.316581 9 16.5 C 9 15.683419 8.3165809 15 7.5 15 z M 7.5 16 C 7.7642972 16 8 16.235703 8 16.5 C 8 16.764297 7.7642972 17 7.5 17 C 7.2357028 17 7 16.764297 7 16.5 C 7 16.235703 7.2357028 16 7.5 16 z "
     stroke-width="0" />
</svg>
