<?xml version="1.0" encoding="UTF-8" standalone="no"?>
<svg
   width="24"
   height="24"
   viewBox="0 0 24 24"
   fill="none"
   stroke="currentColor"
   stroke-width="2"
   stroke-linecap="round"
   stroke-linejoin="round"
   version="1.1"
   id="svg5"
   xmlns="http://www.w3.org/2000/svg"
   xmlns:svg="http://www.w3.org/2000/svg">
  <defs
     id="defs5" />
  <path
     id="path1"
     style="color:#000000;fill:#000000;-inkscape-stroke:none"
     d="M 11.845703 1.0117188 A 1.0001 1.0001 0 0 0 11.552734 1.1054688 L 3.5527344 5.1054688 A 1 1 0 0 0 3.1054688 6.4472656 A 1 1 0 0 0 4.4472656 6.8945312 L 5 6.6171875 L 5 9.3828125 L 1.5527344 11.105469 A 1.0001 1.0001 0 0 0 1 12 L 1 20 C 1 21.645006 2.3549936 23 4 23 L 20 23 C 21.645006 23 23 21.645006 23 20 L 23 12 A 1.0001 1.0001 0 0 0 22.447266 11.105469 L 19 9.3828125 L 19 6.6171875 L 19.552734 6.8945312 A 1 1 0 0 0 20.894531 6.4472656 A 1 1 0 0 0 20.447266 5.1054688 L 12.447266 1.1054688 A 1.0001 1.0001 0 0 0 11.845703 1.0117188 z M 12 3.1171875 L 17 5.6171875 L 17 21 L 15 21 L 15 18 C 15 16.354994 13.645006 15 12 15 C 10.354994 15 9 16.354994 9 18 L 9 21 L 7 21 L 7 5.6171875 L 12 3.1171875 z M 12 6 C 10.354994 6 9 7.3549936 9 9 C 9 10.645006 10.354994 12 12 12 C 13.645006 12 15 10.645006 15 9 C 15 7.3549936 13.645006 6 12 6 z M 12 8 C 12.564128 8 13 8.4358718 13 9 C 13 9.5641282 12.564128 10 12 10 C 11.435872 10 11 9.5641282 11 9 C 11 8.4358718 11.435872 8 12 8 z M 5 11.617188 L 5 21 L 4 21 C 3.4358718 21 3 20.564128 3 20 L 3 12.617188 L 5 11.617188 z M 19 11.617188 L 21 12.617188 L 21 20 C 21 20.564128 20.564128 21 20 21 L 19 21 L 19 11.617188 z M 12 17 C 12.564128 17 13 17.435872 13 18 L 13 21 L 11 21 L 11 18 C 11 17.435872 11.435872 17 12 17 z "
     stroke-width="0" />
</svg>
