<?xml version="1.0" encoding="UTF-8" standalone="no"?>
<svg xmlns="http://www.w3.org/2000/svg" xmlns:svg="http://www.w3.org/2000/svg" width="24" height="24" viewBox="0 0 24 24" fill="currentColor" tags="host,desktop,monitor" categories="connectivity,devices,communication">
  
  <path d="M 4 2 C 2.3549936 2 1 3.3549936 1 5 L 1 15 C 1 16.645006 2.3549936 18 4 18 L 11 18 L 11 20 L 8 20 A 1 1 0 0 0 7 21 A 1 1 0 0 0 8 22 L 16 22 A 1 1 0 0 0 17 21 A 1 1 0 0 0 16 20 L 13 20 L 13 18 L 20 18 C 21.645006 18 23 16.645006 23 15 L 23 12 A 1 1 0 0 0 22 11 A 1 1 0 0 0 21 12 L 21 15 C 21 15.564128 20.564128 16 20 16 L 4 16 C 3.4358718 16 3 15.564128 3 15 L 3 5 C 3 4.4358718 3.4358718 4 4 4 L 13 4 A 1 1 0 0 0 14 3 A 1 1 0 0 0 13 2 L 4 2 z M 17 2 A 1 1 0 0 0 16 3 A 1 1 0 0 0 17 4 L 19.585938 4 L 16.292969 7.2929688 A 1 1 0 0 0 16.292969 8.7070312 A 1 1 0 0 0 17.707031 8.7070312 L 21 5.4140625 L 21 8 A 1 1 0 0 0 22 9 A 1 1 0 0 0 23 8 L 23 3 A 1.0001 1.0001 0 0 0 22.998047 2.984375 A 1 1 0 0 0 22.96875 2.7597656 A 1.0001 1.0001 0 0 0 22.957031 2.71875 A 1 1 0 0 0 22.867188 2.5039062 A 1 1 0 0 0 22.865234 2.5 A 1.0001 1.0001 0 0 0 22.861328 2.4941406 A 1 1 0 0 0 22.707031 2.2929688 A 1 1 0 0 0 22.5 2.1347656 A 1.0001 1.0001 0 0 0 22 2 L 17 2 z "/>
</svg>
