<?xml version="1.0" encoding="UTF-8" standalone="no"?>
<svg xmlns="http://www.w3.org/2000/svg" xmlns:svg="http://www.w3.org/2000/svg" width="24" height="24" viewBox="0 0 24 24" fill="currentColor" tags="desktop,disconnect,monitor" categories="connectivity,devices,communication">
  
  <path d="M 4 2 C 2.3549936 2 1 3.3549936 1 5 L 1 15 C 1 16.645006 2.3549936 18 4 18 L 11 18 L 11 20 L 8 20 A 1 1 0 0 0 7 21 A 1 1 0 0 0 8 22 L 16 22 A 1 1 0 0 0 17 21 A 1 1 0 0 0 16 20 L 13 20 L 13 18 L 20 18 C 21.645006 18 23 16.645006 23 15 L 23 12 A 1 1 0 0 0 22 11 A 1 1 0 0 0 21 12 L 21 15 C 21 15.564128 20.564128 16 20 16 L 4 16 C 3.4358718 16 3 15.564128 3 15 L 3 5 C 3 4.4358718 3.4358718 4 4 4 L 13 4 A 1 1 0 0 0 14 3 A 1 1 0 0 0 13 2 L 4 2 z M 17 2 A 1 1 0 0 0 16.292969 2.2929688 A 1 1 0 0 0 16.292969 3.7070312 L 18.085938 5.5 L 16.292969 7.2929688 A 1 1 0 0 0 16.292969 8.7070312 A 1 1 0 0 0 17.707031 8.7070312 L 19.5 6.9140625 L 21.292969 8.7070312 A 1 1 0 0 0 22.707031 8.7070312 A 1 1 0 0 0 22.707031 7.2929688 L 20.914062 5.5 L 22.707031 3.7070312 A 1 1 0 0 0 22.707031 2.2929688 A 1 1 0 0 0 21.292969 2.2929688 L 19.5 4.0859375 L 17.707031 2.2929688 A 1 1 0 0 0 17 2 z "/>
</svg>
