<?xml version="1.0" encoding="UTF-8" standalone="no"?>
<svg
   width="24"
   height="24"
   viewBox="0 0 24 24"
   fill="none"
   stroke="currentColor"
   stroke-width="2"
   stroke-linecap="round"
   stroke-linejoin="round"
   version="1.1"
   id="svg3"
   xmlns="http://www.w3.org/2000/svg"
   xmlns:svg="http://www.w3.org/2000/svg">
  <defs
     id="defs3" />
  <path
     id="path1"
     style="color:#000000;fill:#000000;-inkscape-stroke:none"
     d="M 11 2 C 6.0412918 2 2 6.0412918 2 11 C 2 15.958708 6.0412918 20 11 20 C 13.120209 20 15.07075 19.258847 16.611328 18.025391 L 20.292969 21.707031 A 1 1 0 0 0 21.707031 21.707031 A 1 1 0 0 0 21.707031 20.292969 L 18.025391 16.611328 C 19.258847 15.07075 20 13.120209 20 11 C 20 6.0412918 15.958708 2 11 2 z M 11 4 C 14.87783 4 18 7.1221699 18 11 C 18 14.87783 14.87783 18 11 18 C 7.1221699 18 4 14.87783 4 11 C 4 7.1221699 7.1221699 4 11 4 z M 9 8 A 1 1 0 0 0 8.2929688 8.2929688 L 6.2929688 10.292969 A 1.0001 1.0001 0 0 0 6.2929688 11.707031 L 8.2929688 13.707031 A 1 1 0 0 0 9.7070312 13.707031 A 1 1 0 0 0 9.7070312 12.292969 L 8.4140625 11 L 9.7070312 9.7070312 A 1 1 0 0 0 9.7070312 8.2929688 A 1 1 0 0 0 9 8 z M 13 8 A 1 1 0 0 0 12.292969 8.2929688 A 1 1 0 0 0 12.292969 9.7070312 L 13.585938 11 L 12.292969 12.292969 A 1 1 0 0 0 12.292969 13.707031 A 1 1 0 0 0 13.707031 13.707031 L 15.707031 11.707031 A 1.0001 1.0001 0 0 0 15.707031 10.292969 L 13.707031 8.2929688 A 1 1 0 0 0 13 8 z "
     stroke-width="0" />
</svg>
