<?xml version="1.0" encoding="UTF-8" standalone="no"?>
<svg xmlns="http://www.w3.org/2000/svg" xmlns:svg="http://www.w3.org/2000/svg" width="24" height="24" viewBox="0 0 24 24" fill="currentColor" tags="email,message,mail,paper airplane,paper aeroplane,submit" categories="mail,communication,connectivity">
  
  <path d="M 2.9746094 2 A 1.0001 1.0001 0 0 0 2.0507812 3.3164062 L 4.9453125 12 L 2.0507812 20.683594 A 1.0001 1.0001 0 0 0 3.4277344 21.904297 L 22.427734 12.904297 A 1.0001 1.0001 0 0 0 22.537109 12.833984 A 1 1 0 0 0 22.605469 12.791016 A 1.0001 1.0001 0 0 0 22.9375 12.333984 A 1 1 0 0 0 22.960938 12.244141 A 1.0001 1.0001 0 0 0 22.992188 12.048828 A 1 1 0 0 0 23 12 A 1 1 0 0 0 22.992188 11.878906 A 1 1 0 0 0 22.992188 11.875 A 1.0001 1.0001 0 0 0 22.990234 11.865234 A 1 1 0 0 0 22.929688 11.632812 A 1 1 0 0 0 22.822266 11.431641 A 1 1 0 0 0 22.818359 11.425781 A 1.0001 1.0001 0 0 0 22.791016 11.392578 A 1 1 0 0 0 22.644531 11.236328 A 1.0001 1.0001 0 0 0 22.625 11.222656 A 1 1 0 0 0 22.441406 11.103516 A 1.0001 1.0001 0 0 0 22.427734 11.095703 L 3.4277344 2.0957031 A 1.0001 1.0001 0 0 0 2.9746094 2 z M 4.6914062 4.9082031 L 17.552734 11 L 6.7207031 11 L 4.6914062 4.9082031 z M 6.7207031 13 L 17.552734 13 L 4.6914062 19.091797 L 6.7207031 13 z "/>
</svg>
