<?xml version="1.0" encoding="UTF-8" standalone="no"?>
<svg
   width="24"
   height="24"
   viewBox="0 0 24 24"
   fill="none"
   stroke="currentColor"
   stroke-width="2"
   stroke-linecap="round"
   stroke-linejoin="round"
   version="1.1"
   id="svg3"
   xmlns="http://www.w3.org/2000/svg"
   xmlns:svg="http://www.w3.org/2000/svg">
  <defs
     id="defs3" />
  <path
     id="rect1"
     style="color:#000000;fill:#000000;-inkscape-stroke:none"
     d="M 4 1 C 2.3553005 1 1 2.3553005 1 4 L 1 8 C 1 9.6446995 2.3553005 11 4 11 L 8 11 C 9.6446995 11 11 9.6446995 11 8 L 11 4 C 11 2.3553005 9.6446995 1 8 1 L 4 1 z M 4 3 L 8 3 C 8.5712961 3 9 3.4287039 9 4 L 9 8 C 9 8.5712961 8.5712961 9 8 9 L 4 9 C 3.4287039 9 3 8.5712961 3 8 L 3 4 C 3 3.4287039 3.4287039 3 4 3 z M 14 6 A 1 1 0 0 0 13 7 A 1 1 0 0 0 14 8 L 15 8 C 15.564128 8 16 8.4358718 16 9 L 16 10 A 1 1 0 0 0 17 11 A 1 1 0 0 0 18 10 L 18 9 C 18 7.3549936 16.645006 6 15 6 L 14 6 z M 7 13 A 1 1 0 0 0 6 14 L 6 15 C 6 16.645006 7.3549936 18 9 18 L 10 18 A 1 1 0 0 0 11 17 A 1 1 0 0 0 10 16 L 9 16 C 8.4358718 16 8 15.564128 8 15 L 8 14 A 1 1 0 0 0 7 13 z M 16 13 C 14.355301 13 13 14.355301 13 16 L 13 20 C 13 21.644699 14.355301 23 16 23 L 20 23 C 21.644699 23 23 21.644699 23 20 L 23 16 C 23 14.355301 21.644699 13 20 13 L 16 13 z M 16 15 L 20 15 C 20.571296 15 21 15.428704 21 16 L 21 20 C 21 20.571296 20.571296 21 20 21 L 16 21 C 15.428704 21 15 20.571296 15 20 L 15 16 C 15 15.428704 15.428704 15 16 15 z "
     stroke-width="0" />
</svg>
