<?xml version="1.0" encoding="UTF-8" standalone="no"?>
<svg
   width="24"
   height="24"
   viewBox="0 0 24 24"
   fill="none"
   stroke="currentColor"
   stroke-width="2"
   stroke-linecap="round"
   stroke-linejoin="round"
   version="1.1"
   id="svg2"
   xmlns="http://www.w3.org/2000/svg"
   xmlns:svg="http://www.w3.org/2000/svg">
  <defs
     id="defs2" />
  <path
     id="line1"
     style="color:#000000;fill:#000000;-inkscape-stroke:none"
     d="M 12 2 A 1 1 0 0 0 11 3 L 11 21 A 1 1 0 0 0 12 22 A 1 1 0 0 0 13 21 L 13 3 A 1 1 0 0 0 12 2 z M 8 7 A 1 1 0 0 0 7.2929688 7.2929688 L 3.2929688 11.292969 A 1.0001 1.0001 0 0 0 3.2929688 12.707031 L 7.2929688 16.707031 A 1 1 0 0 0 8.7070312 16.707031 A 1 1 0 0 0 8.7070312 15.292969 L 5.4140625 12 L 8.7070312 8.7070312 A 1 1 0 0 0 8.7070312 7.2929688 A 1 1 0 0 0 8 7 z M 16 7 A 1 1 0 0 0 15.292969 7.2929688 A 1 1 0 0 0 15.292969 8.7070312 L 18.585938 12 L 15.292969 15.292969 A 1 1 0 0 0 15.292969 16.707031 A 1 1 0 0 0 16.707031 16.707031 L 20.707031 12.707031 A 1.0001 1.0001 0 0 0 20.707031 11.292969 L 16.707031 7.2929688 A 1 1 0 0 0 16 7 z "
     stroke-width="0" />
</svg>
