<?xml version="1.0" encoding="UTF-8" standalone="no"?>
<svg
   width="24"
   height="24"
   viewBox="0 0 24 24"
   fill="none"
   stroke="currentColor"
   stroke-width="2"
   stroke-linecap="round"
   stroke-linejoin="round"
   version="1.1"
   id="svg3"
   xmlns="http://www.w3.org/2000/svg"
   xmlns:svg="http://www.w3.org/2000/svg">
  <defs
     id="defs3" />
  <path
     id="rect1"
     style="color:#000000;fill:#000000;-inkscape-stroke:none"
     d="M 4 1 C 2.3553005 1 1 2.3553005 1 4 L 1 8 C 1 9.6446995 2.3553005 11 4 11 L 20 11 C 21.644699 11 23 9.6446995 23 8 L 23 4 C 23 2.3553005 21.644699 1 20 1 L 4 1 z M 4 3 L 20 3 C 20.571296 3 21 3.4287039 21 4 L 21 8 C 21 8.5712961 20.571296 9 20 9 L 4 9 C 3.4287039 9 3 8.5712961 3 8 L 3 4 C 3 3.4287039 3.4287039 3 4 3 z M 6 5 A 1 1 0 0 0 5 6 A 1 1 0 0 0 6 7 L 6.0097656 7 A 1 1 0 0 0 7.0097656 6 A 1 1 0 0 0 6.0097656 5 L 6 5 z M 4 13 C 2.3553005 13 1 14.355301 1 16 L 1 20 C 1 21.644699 2.3553005 23 4 23 L 20 23 C 21.644699 23 23 21.644699 23 20 L 23 16 C 23 14.355301 21.644699 13 20 13 L 4 13 z M 4 15 L 20 15 C 20.571296 15 21 15.428704 21 16 L 21 20 C 21 20.571296 20.571296 21 20 21 L 4 21 C 3.4287039 21 3 20.571296 3 20 L 3 16 C 3 15.428704 3.4287039 15 4 15 z M 6 17 A 1 1 0 0 0 5 18 A 1 1 0 0 0 6 19 L 6.0097656 19 A 1 1 0 0 0 7.0097656 18 A 1 1 0 0 0 6.0097656 17 L 6 17 z "
     stroke-width="0" />
</svg>
