<?xml version="1.0" encoding="UTF-8" standalone="no"?>
<svg xmlns="http://www.w3.org/2000/svg" xmlns:svg="http://www.w3.org/2000/svg" width="24" height="24" viewBox="0 0 24 24" fill="currentColor" tags="cloud,storage,problem,error" categories="development,devices">
  
  <path d="M 4 1 C 2.3549936 1 1 2.3549936 1 4 L 1 8 C 1 9.6450064 2.3549936 11 4 11 L 6 11 A 1 1 0 0 0 7 10 A 1 1 0 0 0 6 9 L 4 9 C 3.4358718 9 3 8.5641282 3 8 L 3 4 C 3 3.4358718 3.4358718 3 4 3 L 20 3 C 20.564128 3 21 3.4358718 21 4 L 21 8 C 21 8.5641282 20.564128 9 20 9 L 18 9 A 1 1 0 0 0 17 10 A 1 1 0 0 0 18 11 L 20 11 C 21.645006 11 23 9.6450064 23 8 L 23 4 C 23 2.3549936 21.645006 1 20 1 L 4 1 z M 6 5 A 1 1 0 0 0 5 6 A 1 1 0 0 0 6 7 L 6.0097656 7 A 1 1 0 0 0 7.0097656 6 A 1 1 0 0 0 6.0097656 5 L 6 5 z M 12.958984 5 A 1 1 0 0 0 12.167969 5.4453125 L 8.1679688 11.445312 A 1.0001 1.0001 0 0 0 9 13 L 13.130859 13 L 10.167969 17.445312 A 1 1 0 0 0 10.445312 18.832031 A 1 1 0 0 0 11.832031 18.554688 L 15.832031 12.554688 A 1.0001 1.0001 0 0 0 15 11 L 10.869141 11 L 13.832031 6.5546875 A 1 1 0 0 0 13.554688 5.1679688 A 1 1 0 0 0 12.958984 5 z M 4 13 C 2.3549936 13 1 14.354994 1 16 L 1 20 C 1 21.645006 2.3549936 23 4 23 L 20 23 C 21.645006 23 23 21.645006 23 20 L 23 16 C 23 14.354994 21.645006 13 20 13 L 18 13 A 1 1 0 0 0 17 14 A 1 1 0 0 0 18 15 L 20 15 C 20.564128 15 21 15.435872 21 16 L 21 20 C 21 20.564128 20.564128 21 20 21 L 4 21 C 3.4358718 21 3 20.564128 3 20 L 3 16 C 3 15.435872 3.4358718 15 4 15 L 6 15 A 1 1 0 0 0 7 14 A 1 1 0 0 0 6 13 L 4 13 z M 6 17 A 1 1 0 0 0 5 18 A 1 1 0 0 0 6 19 L 6.0097656 19 A 1 1 0 0 0 7.0097656 18 A 1 1 0 0 0 6.0097656 17 L 6 17 z "/>
</svg>
