<?xml version="1.0" encoding="UTF-8" standalone="no"?>
<svg
   width="24"
   height="24"
   viewBox="0 0 24 24"
   fill="none"
   stroke="currentColor"
   stroke-width="2"
   stroke-linecap="round"
   stroke-linejoin="round"
   version="1.1"
   id="svg3"
   xmlns="http://www.w3.org/2000/svg"
   xmlns:svg="http://www.w3.org/2000/svg">
  <defs
     id="defs3" />
  <path
     id="path1"
     style="color:#000000;fill:#000000;-inkscape-stroke:none"
     d="M 7 3 C 4.80271 3 3 4.80271 3 7 C 3 9.19729 4.80271 11 7 11 C 8.8580647 11 10.432696 9.7110343 10.875 7.984375 A 1 1 0 0 0 11 8 L 20 8 A 1 1 0 0 0 21 7 A 1 1 0 0 0 20 6 L 11 6 A 1 1 0 0 0 10.875 6.015625 C 10.432696 4.2889657 8.8580647 3 7 3 z M 7 5 C 8.1164119 5 9 5.8835881 9 7 C 9 8.1164119 8.1164119 9 7 9 C 5.8835881 9 5 8.1164119 5 7 C 5 5.8835881 5.8835881 5 7 5 z M 17 13 C 15.147532 13 13.576678 14.281178 13.128906 16 L 5 16 A 1 1 0 0 0 4 17 A 1 1 0 0 0 5 18 L 13.128906 18 C 13.576678 19.718822 15.147532 21 17 21 C 19.19729 21 21 19.19729 21 17 C 21 14.80271 19.19729 13 17 13 z M 17 15 C 18.116412 15 19 15.883588 19 17 C 19 18.116412 18.116412 19 17 19 C 15.883588 19 15 18.116412 15 17 C 15 15.883588 15.883588 15 17 15 z "
     stroke-width="0" />
</svg>
