<?xml version="1.0" encoding="UTF-8" standalone="no"?>
<svg
   width="24"
   height="24"
   viewBox="0 0 24 24"
   fill="none"
   stroke="currentColor"
   stroke-width="2"
   stroke-linecap="round"
   stroke-linejoin="round"
   version="1.1"
   id="svg1"
   xmlns="http://www.w3.org/2000/svg"
   xmlns:svg="http://www.w3.org/2000/svg">
  <defs
     id="defs1" />
  <path
     id="path1"
     style="color:#000000;fill:#000000;-inkscape-stroke:none"
     d="M 11.779297 1 C 10.134291 1 8.7792969 2.3549936 8.7792969 4 L 8.7792969 4.1796875 C 8.7789292 4.5381813 8.589762 4.8656751 8.2792969 5.0449219 A 1.0001 1.0001 0 0 0 8.2773438 5.0449219 L 7.8476562 5.2949219 C 7.5372114 5.4733059 7.1597912 5.4740054 6.8496094 5.2949219 A 1.0001 1.0001 0 0 0 6.8203125 5.2773438 L 6.6992188 5.2128906 C 5.276038 4.391927 3.4289571 4.8868725 2.6054688 6.3085938 L 2.3847656 6.6894531 A 1.0001 1.0001 0 0 0 2.3828125 6.6894531 C 1.5723284 8.0944619 2.0456411 9.9133583 3.4257812 10.751953 L 3.5761719 10.851562 A 1.0001 1.0001 0 0 0 3.6308594 10.886719 C 3.9397526 11.06505 4.1287065 11.389425 4.1308594 11.746094 L 4.1308594 12.25 A 1.0001 1.0001 0 0 0 4.1308594 12.253906 C 4.1322894 12.614224 3.9429077 12.942889 3.6308594 13.123047 A 1.0001 1.0001 0 0 0 3.6152344 13.132812 L 3.4785156 13.214844 C 2.0567943 14.038332 1.5618489 15.887366 2.3828125 17.310547 A 1.0001 1.0001 0 0 0 2.3847656 17.310547 L 2.6054688 17.691406 C 3.4289571 19.113128 5.276038 19.608074 6.6992188 18.787109 L 6.8203125 18.722656 A 1.0001 1.0001 0 0 0 6.8496094 18.705078 C 7.1603982 18.525644 7.5388205 18.525644 7.8496094 18.705078 L 8.2773438 18.955078 A 1.0001 1.0001 0 0 0 8.2792969 18.955078 C 8.589762 19.134325 8.7789292 19.461819 8.7792969 19.820312 L 8.7792969 20 C 8.7792969 21.645006 10.134291 23 11.779297 23 L 12.220703 23 C 13.865709 23 15.220703 21.645006 15.220703 20 L 15.220703 19.820312 C 15.221071 19.461819 15.410238 19.134325 15.720703 18.955078 A 1.0001 1.0001 0 0 0 15.722656 18.955078 L 16.150391 18.705078 C 16.461179 18.525644 16.839601 18.525644 17.150391 18.705078 A 1.0001 1.0001 0 0 0 17.179688 18.722656 L 17.300781 18.787109 C 18.723962 19.608074 20.571043 19.113128 21.394531 17.691406 A 1.0001 1.0001 0 0 0 21.400391 17.681641 L 21.617188 17.298828 L 21.617188 17.296875 C 22.436693 15.873936 21.942605 14.028218 20.521484 13.205078 A 1.0001 1.0001 0 0 0 20.490234 13.1875 L 20.369141 13.123047 C 20.057092 12.942889 19.86771 12.614224 19.869141 12.253906 A 1.0001 1.0001 0 0 0 19.869141 12.251953 A 1.0001 1.0001 0 0 0 19.869141 12.25 L 19.869141 11.75 A 1.0001 1.0001 0 0 0 19.869141 11.748047 A 1.0001 1.0001 0 0 0 19.869141 11.746094 C 19.867741 11.385776 20.057092 11.057111 20.369141 10.876953 A 1.0001 1.0001 0 0 0 20.384766 10.867188 L 20.521484 10.785156 C 21.943206 9.9616681 22.438152 8.1126339 21.617188 6.6894531 A 1.0001 1.0001 0 0 0 21.615234 6.6894531 L 21.394531 6.3085938 C 20.571043 4.8868725 18.723962 4.391927 17.300781 5.2128906 L 17.179688 5.2773438 A 1.0001 1.0001 0 0 0 17.150391 5.2949219 C 16.840208 5.4740054 16.462788 5.4733059 16.152344 5.2949219 L 16.150391 5.2949219 L 15.722656 5.0449219 A 1.0001 1.0001 0 0 0 15.720703 5.0449219 C 15.410238 4.8656751 15.221071 4.5381813 15.220703 4.1796875 L 15.220703 4 C 15.220703 2.3549936 13.865709 1 12.220703 1 L 11.779297 1 z M 11.779297 3 L 12.220703 3 C 12.784832 3 13.220703 3.4358718 13.220703 4 L 13.220703 4.1796875 A 1.0001 1.0001 0 0 0 13.220703 4.1816406 C 13.221803 5.2507407 13.794835 6.2408409 14.720703 6.7753906 L 14.716797 6.7753906 L 15.146484 7.0253906 A 1.0001 1.0001 0 0 0 15.150391 7.0253906 C 16.077204 7.5604864 17.223578 7.5604864 18.150391 7.0253906 L 18.121094 7.0429688 L 18.271484 6.9628906 A 1.0001 1.0001 0 0 0 18.298828 6.9453125 C 18.786835 6.6638133 19.381695 6.8230494 19.664062 7.3105469 L 19.882812 7.6894531 C 20.164315 8.177451 20.007029 8.7723196 19.519531 9.0546875 A 1.0001 1.0001 0 0 0 19.505859 9.0625 L 19.369141 9.1445312 C 18.438655 9.6817362 17.864875 10.679488 17.869141 11.753906 L 17.869141 12.246094 C 17.864841 13.320512 18.438655 14.318263 19.369141 14.855469 A 1.0001 1.0001 0 0 0 19.398438 14.873047 L 19.521484 14.939453 C 20.005791 15.222769 20.163529 15.814146 19.882812 16.300781 A 1.0001 1.0001 0 0 0 19.878906 16.308594 L 19.664062 16.689453 C 19.381695 17.176951 18.786827 17.33619 18.298828 17.054688 A 1.0001 1.0001 0 0 0 18.271484 17.037109 L 18.121094 16.957031 L 18.150391 16.974609 C 17.223578 16.439514 16.077204 16.439514 15.150391 16.974609 A 1.0001 1.0001 0 0 0 15.146484 16.974609 L 14.716797 17.224609 L 14.720703 17.224609 C 13.794835 17.75916 13.2218 18.749259 13.220703 19.818359 A 1.0001 1.0001 0 0 0 13.220703 19.820312 L 13.220703 20 C 13.220703 20.564128 12.784832 21 12.220703 21 L 11.779297 21 C 11.215168 21 10.779297 20.564128 10.779297 20 L 10.779297 19.820312 A 1.0001 1.0001 0 0 0 10.779297 19.818359 C 10.77818 18.749306 10.205165 17.75916 9.2792969 17.224609 L 9.2832031 17.224609 L 8.8535156 16.974609 A 1.0001 1.0001 0 0 0 8.8496094 16.974609 C 7.9227963 16.439514 6.7764223 16.439514 5.8496094 16.974609 L 5.8789062 16.957031 L 5.7285156 17.037109 A 1.0001 1.0001 0 0 0 5.7011719 17.054688 C 5.2131741 17.336188 4.6183054 17.176951 4.3359375 16.689453 L 4.1171875 16.310547 C 3.8356853 15.822548 3.9929713 15.22768 4.4804688 14.945312 A 1.0001 1.0001 0 0 0 4.4941406 14.9375 L 4.6308594 14.855469 C 5.5613453 14.318263 6.1351249 13.320512 6.1308594 12.246094 L 6.1308594 11.740234 A 1.0001 1.0001 0 0 0 6.1308594 11.738281 A 1.0001 1.0001 0 0 0 6.1308594 11.736328 A 1.0001 1.0001 0 0 0 6.1308594 11.734375 C 6.1244394 10.670602 5.5521418 9.6861736 4.6308594 9.1542969 L 4.6855469 9.1875 L 4.5351562 9.0878906 A 1.0001 1.0001 0 0 0 4.4804688 9.0546875 C 3.9929713 8.7723196 3.8356853 8.177451 4.1171875 7.6894531 L 4.3359375 7.3105469 C 4.6183054 6.8230494 5.213174 6.6638103 5.7011719 6.9453125 A 1.0001 1.0001 0 0 0 5.7285156 6.9628906 L 5.8789062 7.0429688 L 5.8496094 7.0253906 C 6.7764223 7.5604864 7.9227963 7.5604864 8.8496094 7.0253906 A 1.0001 1.0001 0 0 0 8.8535156 7.0253906 L 9.2832031 6.7753906 L 9.2792969 6.7753906 C 10.205165 6.240841 10.7782 5.2507407 10.779297 4.1816406 A 1.0001 1.0001 0 0 0 10.779297 4.1796875 L 10.779297 4 C 10.779297 3.4358718 11.215168 3 11.779297 3 z M 12 8 C 9.80271 8 8 9.80271 8 12 C 8 14.19729 9.80271 16 12 16 C 14.19729 16 16 14.19729 16 12 C 16 9.80271 14.19729 8 12 8 z M 12 10 C 13.116412 10 14 10.883588 14 12 C 14 13.116412 13.116412 14 12 14 C 10.883588 14 10 13.116412 10 12 C 10 10.883588 10.883588 10 12 10 z "
     stroke-width="0" />
</svg>
