<?xml version="1.0" encoding="UTF-8" standalone="no"?>
<svg
   width="24"
   height="24"
   viewBox="0 0 24 24"
   fill="none"
   stroke="currentColor"
   stroke-width="2"
   stroke-linecap="round"
   stroke-linejoin="round"
   version="1.1"
   id="svg1"
   xmlns="http://www.w3.org/2000/svg"
   xmlns:svg="http://www.w3.org/2000/svg">
  <defs
     id="defs1" />
  <path
     id="path1"
     style="color:#000000;fill:#000000;-inkscape-stroke:none"
     d="M 12 1 A 1.0001 1.0001 0 0 0 11.720703 1.0449219 A 1 1 0 0 0 11.619141 1.0859375 A 1.0001 1.0001 0 0 0 11.453125 1.1699219 A 1 1 0 0 0 11.367188 1.2363281 A 1.0001 1.0001 0 0 0 11.292969 1.2929688 L 7.2929688 5.2929688 A 1 1 0 0 0 7.2929688 6.7070312 A 1 1 0 0 0 8.7070312 6.7070312 L 11 4.4140625 L 11 15 A 1 1 0 0 0 12 16 A 1 1 0 0 0 13 15 L 13 4.4140625 L 15.292969 6.7070312 A 1 1 0 0 0 16.707031 6.7070312 A 1 1 0 0 0 16.707031 5.2929688 L 12.707031 1.2929688 A 1 1 0 0 0 12.503906 1.1367188 A 1 1 0 0 0 12.5 1.1347656 A 1.0001 1.0001 0 0 0 12.494141 1.1328125 A 1 1 0 0 0 12.261719 1.0371094 A 1 1 0 0 0 12.257812 1.0351562 A 1.0001 1.0001 0 0 0 12.253906 1.0351562 A 1 1 0 0 0 12 1 z M 4 11 A 1 1 0 0 0 3 12 L 3 20 C 3 21.645006 4.3549936 23 6 23 L 18 23 C 19.645006 23 21 21.645006 21 20 L 21 12 A 1 1 0 0 0 20 11 A 1 1 0 0 0 19 12 L 19 20 C 19 20.564128 18.564128 21 18 21 L 6 21 C 5.4358718 21 5 20.564128 5 20 L 5 12 A 1 1 0 0 0 4 11 z "
     stroke-width="0" />
</svg>
