<?xml version="1.0" encoding="UTF-8" standalone="no"?>
<svg
   width="24"
   height="24"
   viewBox="0 0 24 24"
   fill="none"
   stroke="currentColor"
   stroke-width="2"
   stroke-linecap="round"
   stroke-linejoin="round"
   version="1.1"
   id="svg1"
   xmlns="http://www.w3.org/2000/svg"
   xmlns:svg="http://www.w3.org/2000/svg">
  <defs
     id="defs1" />
  <path
     id="path1"
     style="color:#000000;fill:#000000;-inkscape-stroke:none"
     d="M 6.0546875 1.8632812 C 5.9557935 1.8621555 5.8565413 1.8656479 5.7558594 1.875 C 4.9577528 1.9491343 4.1502787 2.4166776 3.609375 3.2011719 C 1.9151256 5.4485473 0.99601847 8.1869683 1 11.001953 C 1.0010826 17.06432 5.9373906 22 12 22 C 18.063274 22 23 17.063279 23 11 C 23 6.0412892 18.958707 2 14 2 C 12.000136 2 10.244542 2.7847959 8.7480469 3.8945312 C 8.5333749 3.3849792 8.3299125 2.8529674 7.9082031 2.5273438 C 7.3906086 2.1276821 6.7469458 1.8711615 6.0546875 1.8632812 z M 5.9414062 3.8671875 C 6.169656 3.8459855 6.4524864 3.9313697 6.6855469 4.1113281 C 6.9186072 4.2912862 7.0741019 4.545295 7.1113281 4.7714844 C 7.1485541 4.9976737 7.1275178 5.2186465 6.828125 5.5605469 A 1 1 0 0 0 6.8457031 5.8183594 C 5.766763 7.3025254 5 9.030871 5 11 C 5 14.854143 8.1458602 18 12 18 C 15.85414 18 19 14.854143 19 11 C 19 9.4166703 18.370243 8.1018906 17.414062 7.2519531 C 16.457883 6.4020158 15.22222 6 14 6 C 12.77778 6 11.542117 6.4020158 10.585938 7.2519531 C 9.629757 8.1018906 9 9.4166703 9 11 C 9 11.916665 9.3797568 12.731441 9.9609375 13.248047 C 10.542118 13.764651 11.27778 14 12 14 C 12.72222 14 13.457881 13.764651 14.039062 13.248047 C 14.620243 12.731441 15 11.916665 15 11 A 1 1 0 0 0 14 10 A 1 1 0 0 0 13 11 C 13 11.416666 12.879754 11.601893 12.710938 11.751953 C 12.54212 11.902013 12.277778 12 12 12 C 11.722222 12 11.457879 11.902013 11.289062 11.751953 C 11.120245 11.601893 11 11.416666 11 11 C 11 9.9166695 11.370245 9.2314395 11.914062 8.7480469 C 12.457879 8.2646542 13.222224 8 14 8 C 14.777776 8 15.542121 8.2646542 16.085938 8.7480469 C 16.629755 9.2314395 17 9.9166695 17 11 C 17 13.773265 14.773263 16 12 16 C 9.2267363 16 7 13.773265 7 11 C 7 7.1221666 10.122169 4 14 4 C 17.877831 4 21 7.1221666 21 11 C 21 15.982401 16.982398 20 12 20 C 7.0176018 20 3 15.982401 3 11 A 1.0001 1.0001 0 0 0 3 10.998047 C 2.9966223 8.6100189 3.7749174 6.286466 5.2167969 4.3828125 A 1.0001 1.0001 0 0 0 5.2480469 4.3417969 C 5.5030925 3.9656539 5.7131566 3.8883891 5.9414062 3.8671875 z "
     stroke-width="0" />
</svg>
