<?xml version="1.0" encoding="UTF-8" standalone="no"?>
<svg xmlns="http://www.w3.org/2000/svg" xmlns:svg="http://www.w3.org/2000/svg" width="24" height="24" viewBox="0 0 24 24" fill="currentColor" tags="unshielded,cybersecurity,insecure,unsecured,safety,unsafe,protection,unprotected,guardian,unguarded,unarmored,unarmoured,defenseless,defenceless,undefended,defender,interception,threat,prevention,unprevented,antivirus,detection,undetected,exploit,vulnerability,vulnerable,weakness,infected,infection,comprimised,data leak,unaudited,admin,verification,unverified,inactive,cancelled,error,crest,bravery,damaged,injured,hit,expired,eliminated" categories="account,security,development,gaming">
  
  <path d="M 2 1 A 1 1 0 0 0 1.2929688 1.2929688 A 1 1 0 0 0 1.2929688 2.7070312 L 3.1269531 4.5410156 A 1.0001 1.0001 0 0 0 3 5 L 3 12 C 3 15.444438 5.2352415 18.158717 7.3417969 20.001953 C 9.4483522 21.845189 11.552734 22.894531 11.552734 22.894531 A 1.0001 1.0001 0 0 0 12.466797 22.884766 C 14.377309 21.876453 16.119599 20.58289 17.638672 19.052734 L 21.292969 22.707031 A 1 1 0 0 0 22.707031 22.707031 A 1 1 0 0 0 22.707031 21.292969 L 18.289062 16.876953 L 5.3984375 3.984375 L 2.7070312 1.2929688 A 1 1 0 0 0 2 1 z M 12 1 A 1.0001 1.0001 0 0 0 11.648438 1.0644531 L 8.4492188 2.2636719 A 1 1 0 0 0 7.8632812 3.5507812 A 1 1 0 0 0 9.1503906 4.1367188 L 12 3.0683594 L 19 5.6933594 L 19 12 C 18.9988 12.5789 18.912989 13.155247 18.744141 13.708984 A 1 1 0 0 0 19.408203 14.957031 A 1 1 0 0 0 20.65625 14.291016 C 20.882586 13.548747 20.998594 12.777961 21 12.001953 A 1.0001 1.0001 0 0 0 21 12 L 21 5 A 1.0001 1.0001 0 0 0 20.351562 4.0644531 L 12.351562 1.0644531 A 1.0001 1.0001 0 0 0 12 1 z M 5 6.4140625 L 16.222656 17.636719 C 14.974161 18.882244 13.548894 19.936249 12.011719 20.806641 C 11.648555 20.616128 10.3342 19.964544 8.6582031 18.498047 C 6.7647665 16.84129 5 14.55555 5 12 L 5 6.4140625 z "/>
</svg>
