<?xml version="1.0" encoding="UTF-8" standalone="no"?>
<svg
   width="24"
   height="24"
   viewBox="0 0 24 24"
   fill="none"
   stroke="currentColor"
   stroke-width="2"
   stroke-linecap="round"
   stroke-linejoin="round"
   version="1.1"
   id="svg2"
   xmlns="http://www.w3.org/2000/svg"
   xmlns:svg="http://www.w3.org/2000/svg">
  <defs
     id="defs2" />
  <path
     id="path1"
     style="color:#000000;fill:#000000;-inkscape-stroke:none"
     d="M 12 1 A 1.0001 1.0001 0 0 0 11.648438 1.0644531 L 11.617188 1.0761719 L 3.6484375 4.0644531 A 1.0001 1.0001 0 0 0 3 5 L 3 12 C 3 15.444438 5.2352415 18.158717 7.3417969 20.001953 C 9.4483522 21.845189 11.552734 22.894531 11.552734 22.894531 A 1 1 0 0 0 11.576172 22.896484 A 1 1 0 0 0 12 23 A 1 1 0 0 0 12.423828 22.896484 A 1 1 0 0 0 12.447266 22.894531 C 12.447266 22.894531 14.551648 21.845189 16.658203 20.001953 C 18.764757 18.158717 21 15.444438 21 12 L 21 5 A 1.0001 1.0001 0 0 0 20.351562 4.0644531 L 12.382812 1.0761719 A 1 1 0 0 0 12.351562 1.0644531 A 1.0001 1.0001 0 0 0 12.347656 1.0644531 A 1 1 0 0 0 12 1 z M 11 3.4433594 L 11 20.234375 C 10.395822 19.864298 9.5880922 19.311699 8.6582031 18.498047 C 6.7647665 16.84129 5 14.55555 5 12 L 5 5.6933594 L 11 3.4433594 z M 13 3.4433594 L 19 5.6933594 L 19 12 C 19 14.55555 17.235233 16.84129 15.341797 18.498047 C 14.411908 19.311699 13.604178 19.864298 13 20.234375 L 13 3.4433594 z "
     stroke-width="0" />
</svg>
