<?xml version="1.0" encoding="UTF-8" standalone="no"?>
<svg
   width="24"
   height="24"
   viewBox="0 0 24 24"
   fill="none"
   stroke="currentColor"
   stroke-width="2"
   stroke-linecap="round"
   stroke-linejoin="round"
   version="1.1"
   id="svg5"
   xmlns="http://www.w3.org/2000/svg"
   xmlns:svg="http://www.w3.org/2000/svg">
  <defs
     id="defs5" />
  <path
     id="path1"
     style="color:#000000;fill:#000000;-inkscape-stroke:none"
     d="M 12 1 A 1 1 0 0 0 11 2 L 11 4 L 7 4 C 5.3549936 4 4 5.3549936 4 7 L 4 12.460938 L 2.59375 13.085938 A 1.0001 1.0001 0 0 0 2 14 C 2 16.554172 2.7058033 18.834047 4.0449219 20.976562 C 3.3791171 20.902679 3.1399847 20.648555 2.640625 20.232422 A 1 1 0 0 0 1.2324219 20.359375 A 1 1 0 0 0 1.359375 21.767578 C 1.9593738 22.267578 2.9435929 23 4.5 23 C 5.0917934 23 5.6012267 22.889729 6.0410156 22.726562 A 1 1 0 0 0 6.1601562 22.681641 C 6.788528 22.427776 7.2660958 22.068374 7.625 21.78125 C 8.2499988 21.28125 8.5166687 21 9.5 21 C 10.543588 21 10.759377 21.26758 11.359375 21.767578 C 11.959373 22.267578 12.943593 23 14.5 23 C 16.016663 23 17.000002 22.28125 17.625 21.78125 C 18.249998 21.28125 18.516669 21 19.5 21 C 20.543588 21 20.759377 21.26758 21.359375 21.767578 A 1 1 0 0 0 22.767578 21.640625 A 1 1 0 0 0 22.640625 20.232422 C 22.246233 19.903761 21.684096 19.476184 20.904297 19.220703 C 21.635894 17.581045 22.013515 15.798624 22 13.992188 A 1.0001 1.0001 0 0 0 21.40625 13.085938 L 20 12.460938 L 20 7 C 20 5.3549936 18.645006 4 17 4 L 13 4 L 13 2 A 1 1 0 0 0 12 1 z M 7 6 L 12 6 L 17 6 C 17.564128 6 18 6.4358718 18 7 L 18 11.572266 L 12.40625 9.0859375 A 1.0001 1.0001 0 0 0 12.402344 9.0839844 A 1 1 0 0 0 12 9 A 1 1 0 0 0 11.623047 9.0800781 A 1.0001 1.0001 0 0 0 11.59375 9.0859375 L 6 11.572266 L 6 7 C 6 6.4358718 6.4358718 6 7 6 z M 11 11.539062 L 11 14 A 1 1 0 0 0 12 15 A 1 1 0 0 0 13 14 L 13 11.539062 L 19.921875 14.615234 C 19.843111 16.166664 19.473778 17.688642 18.753906 19.0625 C 17.651219 19.246027 16.890917 19.806016 16.375 20.21875 C 15.750002 20.71875 15.483331 21 14.5 21 C 13.456412 21 13.240623 20.73242 12.640625 20.232422 C 12.040627 19.732422 11.056407 19 9.5 19 C 7.9833364 19 6.9999988 19.71875 6.375 20.21875 C 6.2688407 20.303677 6.1825478 20.373313 6.0917969 20.445312 C 4.8183242 18.582408 4.2141381 16.730255 4.1035156 14.603516 L 11 11.539062 z "
     stroke-width="0" />
</svg>
