<?xml version="1.0" encoding="UTF-8" standalone="no"?>
<svg
   width="24"
   height="24"
   viewBox="0 0 24 24"
   fill="none"
   stroke="currentColor"
   stroke-width="2"
   stroke-linecap="round"
   stroke-linejoin="round"
   version="1.1"
   id="svg1"
   xmlns="http://www.w3.org/2000/svg"
   xmlns:svg="http://www.w3.org/2000/svg">
  <defs
     id="defs1" />
  <path
     id="path1"
     style="color:#000000;fill:#000000;-inkscape-stroke:none"
     d="M 8.0976562 1.0039062 A 1.0001 1.0001 0 0 0 7.6835938 1.0507812 L 3.3046875 2.5117188 C 1.9086985 2.9768079 1.0483183 4.4045245 1.2929688 5.8554688 L 1.8730469 9.3203125 C 2.0292337 10.28393 2.8773266 11.002814 3.8535156 11 L 5 11 L 5 20 C 5 21.645451 6.3545487 23 8 23 L 16 23 C 17.645006 23 19 21.645006 19 20 L 19 11 L 20.146484 11 C 21.122673 11.0028 21.970766 10.28393 22.126953 9.3203125 L 22.707031 5.8554688 C 22.951682 4.4045245 22.091302 2.9768079 20.695312 2.5117188 L 16.316406 1.0507812 A 1.0001 1.0001 0 0 0 15 2 C 15 3.0833305 14.629754 3.7685605 14.085938 4.2519531 C 13.54212 4.7353458 12.777776 5 12 5 C 11.222224 5 10.457879 4.7353458 9.9140625 4.2519531 C 9.3702455 3.7685605 9 3.0833305 9 2 A 1.0001 1.0001 0 0 0 8.0976562 1.0039062 z M 7.2617188 3.3007812 C 7.5080943 4.2787549 7.9191847 5.1553779 8.5859375 5.7480469 C 9.5421175 6.5979842 10.77778 7 12 7 C 13.22222 7 14.457882 6.5979842 15.414062 5.7480469 C 16.080815 5.1553779 16.491905 4.2787549 16.738281 3.3007812 L 20.064453 4.4082031 C 20.538792 4.5662342 20.817504 5.0304261 20.734375 5.5234375 A 1.0001 1.0001 0 0 0 20.734375 5.5253906 L 20.154297 8.9960938 A 1.0001 1.0001 0 0 0 20.152344 9 A 1.0001 1.0001 0 0 0 20.150391 9 L 18 9 A 1.0001 1.0001 0 0 0 17 10 L 17 20 C 17 20.564128 16.564128 21 16 21 L 8 21 C 7.4454557 21 7 20.554544 7 20 L 7 10 A 1.0001 1.0001 0 0 0 6 9 L 3.8496094 9 A 1.0001 1.0001 0 0 0 3.8476562 9 A 1.0001 1.0001 0 0 0 3.8457031 8.9960938 L 3.265625 5.5253906 A 1.0001 1.0001 0 0 0 3.265625 5.5234375 C 3.1824961 5.030423 3.4612084 4.5662342 3.9355469 4.4082031 L 7.2617188 3.3007812 z "
     stroke-width="0" />
</svg>
