<?xml version="1.0" encoding="UTF-8" standalone="no"?>
<svg
   width="24"
   height="24"
   viewBox="0 0 24 24"
   fill="none"
   stroke="currentColor"
   stroke-width="2"
   stroke-linecap="round"
   stroke-linejoin="round"
   version="1.1"
   id="svg3"
   xmlns="http://www.w3.org/2000/svg"
   xmlns:svg="http://www.w3.org/2000/svg">
  <defs
     id="defs3" />
  <path
     id="path1"
     style="color:#000000;fill:#000000;-inkscape-stroke:none"
     d="M 6 1 A 1.0001 1.0001 0 0 0 5.1992188 1.4003906 L 2.1992188 5.4003906 A 1.0001 1.0001 0 0 0 2.1191406 5.5527344 A 1 1 0 0 0 2.0703125 5.6464844 A 1.0001 1.0001 0 0 0 2 6 L 2 20 C 2 21.645006 3.3549936 23 5 23 L 19 23 C 20.645006 23 22 21.645006 22 20 L 22 6 A 1.0001 1.0001 0 0 0 21.994141 5.8867188 A 1 1 0 0 0 21.986328 5.8398438 A 1.0001 1.0001 0 0 0 21.984375 5.8320312 A 1 1 0 0 0 21.976562 5.7871094 A 1.0001 1.0001 0 0 0 21.966797 5.7402344 A 1 1 0 0 0 21.964844 5.734375 A 1.0001 1.0001 0 0 0 21.865234 5.5 A 1 1 0 0 0 21.863281 5.4980469 A 1 1 0 0 0 21.859375 5.4902344 A 1.0001 1.0001 0 0 0 21.800781 5.4003906 L 18.800781 1.4003906 A 1.0001 1.0001 0 0 0 18 1 L 6 1 z M 6.5 3 L 17.5 3 L 19 5 L 5 5 L 6.5 3 z M 4 7 L 20 7 L 20 20 C 20 20.564128 19.564128 21 19 21 L 5 21 C 4.4358718 21 4 20.564128 4 20 L 4 7 z M 8 9 A 1 1 0 0 0 7 10 C 7 11.583329 7.6297575 12.89811 8.5859375 13.748047 C 9.5421175 14.597984 10.77778 15 12 15 C 13.22222 15 14.457882 14.597984 15.414062 13.748047 C 16.370242 12.89811 17 11.583329 17 10 A 1 1 0 0 0 16 9 A 1 1 0 0 0 15 10 C 15 11.083331 14.629754 11.768561 14.085938 12.251953 C 13.54212 12.735346 12.777776 13 12 13 C 11.222224 13 10.457879 12.735346 9.9140625 12.251953 C 9.3702455 11.768561 9 11.083331 9 10 A 1 1 0 0 0 8 9 z "
     stroke-width="0" />
</svg>
