<?xml version="1.0" encoding="UTF-8" standalone="no"?>
<svg xmlns="http://www.w3.org/2000/svg" xmlns:svg="http://www.w3.org/2000/svg" width="24" height="24" viewBox="0 0 24 24" fill="currentColor" tags="scale,fullscreen" categories="layout,arrows">
  
  <path d="M 3 2 A 1 1 0 0 0 2.2929688 2.2929688 A 1 1 0 0 0 2.2929688 3.7070312 L 6.5859375 8 L 4.1992188 8 A 1 1 0 0 0 3.1992188 9 A 1 1 0 0 0 4.1992188 10 L 9 10 A 1 1 0 0 0 9.7070312 9.7070312 A 1 1 0 0 0 9.9667969 9.0800781 A 1 1 0 0 0 10 9 L 10 4.1992188 A 1 1 0 0 0 9 3.1992188 A 1 1 0 0 0 8 4.1992188 L 8 6.5859375 L 3.7070312 2.2929688 A 1 1 0 0 0 3 2 z M 21 2 A 1 1 0 0 0 20.292969 2.2929688 L 16 6.5859375 L 16 4.1992188 A 1 1 0 0 0 15 3.1992188 A 1 1 0 0 0 14 4.1992188 L 14 9 A 1 1 0 0 0 14.292969 9.7070312 A 1 1 0 0 0 15 10 L 19.800781 10 A 1 1 0 0 0 20.800781 9 A 1 1 0 0 0 19.800781 8 L 17.414062 8 L 21.707031 3.7070312 A 1 1 0 0 0 21.707031 2.2929688 A 1 1 0 0 0 21 2 z M 4.1992188 14 A 1 1 0 0 0 3.1992188 15 A 1 1 0 0 0 4.1992188 16 L 6.5859375 16 L 2.2929688 20.292969 A 1 1 0 0 0 2.2929688 21.707031 A 1 1 0 0 0 3.7070312 21.707031 L 8 17.414062 L 8 19.800781 A 1 1 0 0 0 9 20.800781 A 1 1 0 0 0 10 19.800781 L 10 15 A 1 1 0 0 0 9.9667969 14.833984 A 1 1 0 0 0 9.9394531 14.691406 A 1 1 0 0 0 9.9238281 14.617188 A 1 1 0 0 0 9.7070312 14.292969 A 1 1 0 0 0 9.3828125 14.076172 A 1 1 0 0 0 9 14 L 4.1992188 14 z M 15 14 A 1 1 0 0 0 14.292969 14.292969 A 1 1 0 0 0 14 15 L 14 19.800781 A 1 1 0 0 0 15 20.800781 A 1 1 0 0 0 16 19.800781 L 16 17.414062 L 20.292969 21.707031 A 1 1 0 0 0 21.707031 21.707031 A 1 1 0 0 0 21.707031 20.292969 L 17.414062 16 L 19.800781 16 A 1 1 0 0 0 20.800781 15 A 1 1 0 0 0 19.800781 14 L 15 14 z "/>
</svg>
