<?xml version="1.0" encoding="UTF-8" standalone="no"?>
<svg xmlns="http://www.w3.org/2000/svg" xmlns:svg="http://www.w3.org/2000/svg" width="24" height="24" viewBox="0 0 24 24" fill="currentColor" tags="music,random,reorder" categories="multimedia,arrows">
  
  <path d="M 18 1 A 1 1 0 0 0 17.292969 1.2929688 A 1 1 0 0 0 17.292969 2.7070312 L 19.585938 5 L 16.099609 5 C 14.491921 5 12.869674 5.7299092 11.957031 7.1640625 L 11.984375 7.1210938 L 5.890625 15.710938 C 5.2686714 16.566129 4.3926963 17 3.4003906 17 L 2 17 A 1 1 0 0 0 1 18 A 1 1 0 0 0 2 19 L 3.4003906 19 C 5.0080797 19 6.5297733 18.233476 7.5078125 16.888672 A 1.0001 1.0001 0 0 0 7.515625 16.878906 L 13.615234 8.2792969 A 1.0001 1.0001 0 0 0 13.644531 8.2363281 C 14.131885 7.47052 15.107304 7 16.099609 7 L 19.585938 7 L 17.292969 9.2929688 A 1 1 0 0 0 17.292969 10.707031 A 1 1 0 0 0 18.707031 10.707031 L 22.707031 6.7070312 A 1.0001 1.0001 0 0 0 23 6 A 1 1 0 0 0 22.994141 5.9023438 A 1.0001 1.0001 0 0 0 22.992188 5.890625 A 1 1 0 0 0 22.984375 5.8300781 A 1.0001 1.0001 0 0 0 22.917969 5.6035156 A 1 1 0 0 0 22.880859 5.5292969 A 1.0001 1.0001 0 0 0 22.871094 5.5117188 A 1 1 0 0 0 22.832031 5.4453125 A 1.0001 1.0001 0 0 0 22.755859 5.3457031 A 1 1 0 0 0 22.751953 5.3417969 A 1.0001 1.0001 0 0 0 22.707031 5.2929688 L 18.707031 1.2929688 A 1 1 0 0 0 18 1 z M 2 5 A 1 1 0 0 0 1 6 A 1 1 0 0 0 2 7 L 3.9003906 7 C 5.0003884 7 6.0916735 7.6942462 6.6191406 8.6738281 A 1 1 0 0 0 7.9746094 9.0800781 A 1 1 0 0 0 8.3808594 7.7265625 C 7.5083293 6.1061496 5.8003868 5 3.9003906 5 L 2 5 z M 18 13 A 1 1 0 0 0 17.292969 13.292969 A 1 1 0 0 0 17.292969 14.707031 L 19.585938 17 L 16.099609 17 C 15.158586 17 14.146624 16.453064 13.644531 15.664062 L 13.148438 14.869141 A 1 1 0 0 0 12.525391 14.425781 A 1 1 0 0 0 11.769531 14.552734 A 1 1 0 0 0 11.451172 15.929688 L 11.951172 16.730469 A 1.0001 1.0001 0 0 0 11.957031 16.736328 C 12.854895 18.147281 14.440639 19 16.099609 19 L 19.585938 19 L 17.292969 21.292969 A 1 1 0 0 0 17.292969 22.707031 A 1 1 0 0 0 18.707031 22.707031 L 22.707031 18.707031 A 1.0001 1.0001 0 0 0 22.804688 18.591797 A 1.0001 1.0001 0 0 0 22.808594 18.587891 A 1 1 0 0 0 22.810547 18.583984 A 1.0001 1.0001 0 0 0 22.949219 18.3125 A 1.0001 1.0001 0 0 0 22.951172 18.308594 A 1 1 0 0 0 22.951172 18.306641 A 1.0001 1.0001 0 0 0 23 18 A 1.0001 1.0001 0 0 0 22.994141 17.894531 A 1 1 0 0 0 22.980469 17.804688 A 1.0001 1.0001 0 0 0 22.978516 17.792969 A 1 1 0 0 0 22.957031 17.708984 A 1.0001 1.0001 0 0 0 22.951172 17.691406 A 1 1 0 0 0 22.923828 17.617188 A 1.0001 1.0001 0 0 0 22.919922 17.609375 A 1 1 0 0 0 22.886719 17.541016 A 1 1 0 0 0 22.880859 17.529297 A 1.0001 1.0001 0 0 0 22.865234 17.5 A 1 1 0 0 0 22.851562 17.478516 A 1.0001 1.0001 0 0 0 22.814453 17.421875 A 1.0001 1.0001 0 0 0 22.808594 17.412109 A 1 1 0 0 0 22.798828 17.400391 A 1.0001 1.0001 0 0 0 22.75 17.339844 A 1.0001 1.0001 0 0 0 22.742188 17.330078 A 1 1 0 0 0 22.707031 17.292969 L 22.669922 17.257812 L 18.707031 13.292969 A 1 1 0 0 0 18 13 z "/>
</svg>
