<?xml version="1.0" encoding="UTF-8" standalone="no"?>
<svg
   width="24"
   height="24"
   viewBox="0 0 24 24"
   fill="none"
   stroke="currentColor"
   stroke-width="2"
   stroke-linecap="round"
   stroke-linejoin="round"
   version="1.1"
   id="svg1"
   xmlns="http://www.w3.org/2000/svg"
   xmlns:svg="http://www.w3.org/2000/svg">
  <defs
     id="defs1" />
  <path
     id="path1"
     style="color:#000000;fill:#000000;-inkscape-stroke:none"
     d="M 6 3 A 1.0001 1.0001 0 0 0 5.1992188 4.5996094 L 10.75 12 L 5.1992188 19.400391 A 1.0001 1.0001 0 0 0 6 21 L 18 21 A 1.0001 1.0001 0 0 0 19 20 L 19 17 A 1 1 0 0 0 18 16 A 1 1 0 0 0 17 17 L 17 19 L 8 19 L 12.800781 12.599609 A 1.0001 1.0001 0 0 0 12.800781 11.400391 L 8 5 L 17 5 L 17 7 A 1 1 0 0 0 18 8 A 1 1 0 0 0 19 7 L 19 4 A 1.0001 1.0001 0 0 0 18 3 L 6 3 z "
     stroke-width="0" />
</svg>
