<?xml version="1.0" encoding="UTF-8" standalone="no"?>
<svg
   width="24"
   height="24"
   viewBox="0 0 24 24"
   fill="none"
   stroke="currentColor"
   stroke-width="2"
   stroke-linecap="round"
   stroke-linejoin="round"
   version="1.1"
   id="svg2"
   xmlns="http://www.w3.org/2000/svg"
   xmlns:svg="http://www.w3.org/2000/svg">
  <defs
     id="defs2" />
  <path
     id="path1"
     style="color:#000000;fill:#000000;-inkscape-stroke:none"
     d="M 7 15 A 1 1 0 0 0 6 16 L 6 20 A 1 1 0 0 0 7 21 A 1 1 0 0 0 8 20 L 8 16 A 1 1 0 0 0 7 15 z M 2 19 A 1 1 0 0 0 1 20 A 1 1 0 0 0 2 21 L 2.0097656 21 A 1 1 0 0 0 3.0097656 20 A 1 1 0 0 0 2.0097656 19 L 2 19 z "
     stroke-width="0" />
</svg>
