<?xml version="1.0" encoding="UTF-8" standalone="no"?>
<svg
   width="24"
   height="24"
   viewBox="0 0 24 24"
   fill="none"
   stroke="currentColor"
   stroke-width="2"
   stroke-linecap="round"
   stroke-linejoin="round"
   version="1.1"
   id="svg1"
   xmlns="http://www.w3.org/2000/svg"
   xmlns:svg="http://www.w3.org/2000/svg">
  <defs
     id="defs1" />
  <path
     id="polygon1"
     style="color:#000000;fill:#000000;-inkscape-stroke:none"
     d="M 4.9257812 3.0039062 A 1.0001 1.0001 0 0 0 4.5664062 3.0996094 A 1.0001 1.0001 0 0 0 4 4 L 4 20 A 1.0001 1.0001 0 0 0 5.625 20.78125 L 15.625 12.78125 A 1.0001 1.0001 0 0 0 15.625 11.21875 L 5.625 3.21875 A 1.0001 1.0001 0 0 0 4.9257812 3.0039062 z M 19 4 A 1 1 0 0 0 18 5 L 18 19 A 1 1 0 0 0 19 20 A 1 1 0 0 0 20 19 L 20 5 A 1 1 0 0 0 19 4 z M 6 6.0820312 L 13.398438 12 L 6 17.917969 L 6 6.0820312 z "
     stroke-width="0" />
</svg>
