<?xml version="1.0" encoding="UTF-8" standalone="no"?>
<svg
   width="24"
   height="24"
   viewBox="0 0 24 24"
   fill="none"
   stroke="currentColor"
   stroke-width="2"
   stroke-linecap="round"
   stroke-linejoin="round"
   version="1.1"
   id="svg4"
   xmlns="http://www.w3.org/2000/svg"
   xmlns:svg="http://www.w3.org/2000/svg">
  <defs
     id="defs4" />
  <path
     id="circle1"
     style="color:#000000;fill:#000000;-inkscape-stroke:none"
     d="M 12 1.9980469 C 7.9981416 1.9980469 4.9310203 4.4724461 3.65625 7.625 C 2.4567341 10.591447 2.8937199 14.196979 5.3378906 16.933594 C 4.7585787 18.463582 5.5088696 20.249652 7 20.814453 L 7 22 A 1.0001 1.0001 0 0 0 8 23 L 16 23 A 1.0001 1.0001 0 0 0 17 22 L 17 20.814453 C 18.49113 20.249663 19.241422 18.463582 18.662109 16.933594 C 21.106281 14.196979 21.543266 10.591447 20.34375 7.625 C 19.068979 4.4724461 16.001858 1.9980469 12 1.9980469 z M 12 3.9980469 C 15.190628 3.9980469 17.490092 5.9016114 18.490234 8.375 C 19.490377 10.848389 19.159686 13.813417 16.865234 16.03125 A 1.0001 1.0001 0 0 0 16.779297 17.375 C 17.345365 18.082019 16.905709 18.999434 16 19 A 1 1 0 0 0 15.658203 19.068359 A 1 1 0 0 0 15.580078 19.101562 A 1 1 0 0 0 15.292969 19.292969 A 1 1 0 0 0 15.101562 19.580078 A 1 1 0 0 0 15.068359 19.658203 A 1 1 0 0 0 15 20 L 15 21 L 9 21 L 9 20 A 1 1 0 0 0 8.9921875 19.878906 A 1 1 0 0 0 8.984375 19.835938 A 1 1 0 0 0 8.9609375 19.726562 A 1 1 0 0 0 8.9589844 19.71875 A 1 1 0 0 0 8.9511719 19.695312 A 1 1 0 0 0 8.921875 19.617188 A 1 1 0 0 0 8.8964844 19.558594 A 1 1 0 0 0 8.8945312 19.554688 A 1 1 0 0 0 8.8417969 19.458984 A 1 1 0 0 0 8.8320312 19.445312 A 1 1 0 0 0 8.7617188 19.353516 A 1 1 0 0 0 8.7558594 19.345703 A 1 1 0 0 0 8.7382812 19.326172 A 1 1 0 0 0 8.6542969 19.244141 A 1 1 0 0 0 8.6464844 19.238281 A 1 1 0 0 0 8.5546875 19.167969 A 1 1 0 0 0 8.5410156 19.158203 A 1 1 0 0 0 8.5273438 19.150391 A 1 1 0 0 0 8.4414062 19.103516 A 1 1 0 0 0 8.3828125 19.078125 A 1 1 0 0 0 8.3046875 19.048828 A 1 1 0 0 0 8.28125 19.041016 A 1 1 0 0 0 8.2734375 19.039062 A 1 1 0 0 0 8.1640625 19.015625 A 1 1 0 0 0 8.1210938 19.007812 A 1 1 0 0 0 8 19 C 7.0942905 18.999434 6.6546345 18.082019 7.2207031 17.375 A 1.0001 1.0001 0 0 0 7.1347656 16.03125 C 4.8403145 13.813417 4.5096233 10.848389 5.5097656 8.375 C 6.5099079 5.9016114 8.8093719 3.9980469 12 3.9980469 z M 9 10 C 7.9072773 10 7 10.907277 7 12 C 7 13.092723 7.9072773 14 9 14 C 10.092723 14 11 13.092723 11 12 C 11 10.907277 10.092723 10 9 10 z M 15 10 C 13.907277 10 13 10.907277 13 12 C 13 13.092723 13.907277 14 15 14 C 16.092723 14 17 13.092723 17 12 C 17 10.907277 16.092723 10 15 10 z M 12 15 A 1.0001 1.0001 0 0 0 11.105469 15.552734 L 10.605469 16.552734 A 1.0001 1.0001 0 0 0 11.5 18 L 12.5 18 A 1.0001 1.0001 0 0 0 13.394531 16.552734 L 12.894531 15.552734 A 1.0001 1.0001 0 0 0 12 15 z "
     stroke-width="0" />
</svg>
