<?xml version="1.0" encoding="UTF-8" standalone="no"?>
<svg
   width="24"
   height="24"
   viewBox="0 0 24 24"
   fill="none"
   stroke="currentColor"
   stroke-width="2"
   stroke-linecap="round"
   stroke-linejoin="round"
   version="1.1"
   id="svg4"
   xmlns="http://www.w3.org/2000/svg"
   xmlns:svg="http://www.w3.org/2000/svg">
  <defs
     id="defs4" />
  <path
     id="rect1"
     style="color:#000000;fill:#000000;-inkscape-stroke:none"
     d="M 14.5 1 C 13.1323 1 12 2.1323 12 3.5 L 12 8.5 C 12 9.8677 13.1323 11 14.5 11 C 15.8677 11 17 9.8677 17 8.5 L 17 3.5 C 17 2.1323 15.8677 1 14.5 1 z M 8.4179688 1.0058594 C 8.2977592 1.0100122 8.1764173 1.0216523 8.0566406 1.0429688 C 7.5775338 1.1282348 7.1111276 1.3537162 6.7324219 1.7324219 C 5.9750103 2.4898333 5.8338977 3.5985328 6.1894531 4.4570312 C 6.5450086 5.3155298 7.4287921 6 8.5 6 L 10 6 A 1.0001 1.0001 0 0 0 11 5 L 11 3.5 C 11 2.4287921 10.31553 1.5450086 9.4570312 1.1894531 C 9.1350943 1.0561198 8.7785973 0.9934009 8.4179688 1.0058594 z M 8.4863281 2.9902344 C 8.5536088 2.9921694 8.6218145 3.0102404 8.6914062 3.0390625 C 8.8769842 3.1159214 9 3.2347604 9 3.5 L 9 4 L 8.5 4 C 8.2347604 4 8.1159214 3.8769842 8.0390625 3.6914062 C 7.9622036 3.5058282 7.9589993 3.3339694 8.1464844 3.1464844 C 8.2636625 3.0293062 8.3741937 2.9870094 8.4863281 2.9902344 z M 14.5 3 C 14.794297 3 15 3.2057034 15 3.5 L 15 8.5 C 15 8.7942966 14.794297 9 14.5 9 C 14.205703 9 14 8.7942966 14 8.5 L 14 3.5 C 14 3.2057034 14.205703 3 14.5 3 z M 20.402344 6.0058594 C 20.103497 6.0164797 19.811249 6.078342 19.542969 6.1894531 C 18.68447 6.5450086 18 7.4287921 18 8.5 L 18 10 A 1.0001 1.0001 0 0 0 19 11 L 20.5 11 C 21.571208 11 22.454991 10.31553 22.810547 9.4570312 C 23.166103 8.5985327 23.024989 7.4898333 22.267578 6.7324219 C 21.888873 6.3537162 21.422467 6.1282348 20.943359 6.0429688 C 20.763694 6.010994 20.581652 5.9994872 20.402344 6.0058594 z M 3.5 7 C 2.1323 7 1 8.1323 1 9.5 C 1 10.8677 2.1323 12 3.5 12 L 8.5 12 C 9.8677 12 11 10.8677 11 9.5 C 11 8.1323 9.8677 7 8.5 7 L 3.5 7 z M 20.513672 7.9902344 C 20.625806 7.9870095 20.736337 8.0293064 20.853516 8.1464844 C 21.041 8.3339694 21.037796 8.5058282 20.960938 8.6914062 C 20.88408 8.8769842 20.76524 9 20.5 9 L 20 9 L 20 8.5 C 20 8.2347604 20.123016 8.1159214 20.308594 8.0390625 C 20.378185 8.0102404 20.446391 7.9921693 20.513672 7.9902344 z M 3.5 9 L 8.5 9 C 8.7942966 9 9 9.2057034 9 9.5 C 9 9.7942966 8.7942966 10 8.5 10 L 3.5 10 C 3.2057034 10 3 9.7942966 3 9.5 C 3 9.2057034 3.2057034 9 3.5 9 z M 15.5 12 C 14.1323 12 13 13.1323 13 14.5 C 13 15.8677 14.1323 17 15.5 17 L 20.5 17 C 21.8677 17 23 15.8677 23 14.5 C 23 13.1323 21.8677 12 20.5 12 L 15.5 12 z M 3.5 13 C 2.4287921 13 1.5450086 13.68447 1.1894531 14.542969 C 0.83389772 15.401467 0.97501036 16.510167 1.7324219 17.267578 C 2.4898333 18.024989 3.5985328 18.166103 4.4570312 17.810547 C 5.3155298 17.454991 6 16.571208 6 15.5 L 6 14 A 1.0001 1.0001 0 0 0 5 13 L 3.5 13 z M 9.5 13 C 8.1323 13 7 14.1323 7 15.5 L 7 20.5 C 7 21.8677 8.1323 23 9.5 23 C 10.8677 23 12 21.8677 12 20.5 L 12 15.5 C 12 14.1323 10.8677 13 9.5 13 z M 15.5 14 L 20.5 14 C 20.794297 14 21 14.205703 21 14.5 C 21 14.794297 20.794297 15 20.5 15 L 15.5 15 C 15.205703 15 15 14.794297 15 14.5 C 15 14.205703 15.205703 14 15.5 14 z M 3.5 15 L 4 15 L 4 15.5 C 4 15.76524 3.8769842 15.884079 3.6914062 15.960938 C 3.5058282 16.037795 3.3339694 16.041 3.1464844 15.853516 C 2.9589993 15.66603 2.9622036 15.494172 3.0390625 15.308594 C 3.1159214 15.123016 3.2347604 15 3.5 15 z M 9.5 15 C 9.7942966 15 10 15.205703 10 15.5 L 10 20.5 C 10 20.794297 9.7942966 21 9.5 21 C 9.2057034 21 9 20.794297 9 20.5 L 9 15.5 C 9 15.205703 9.2057034 15 9.5 15 z M 14 18 A 1.0001 1.0001 0 0 0 13 19 L 13 20.5 C 13 21.571208 13.68447 22.454991 14.542969 22.810547 C 15.401467 23.166103 16.510167 23.024989 17.267578 22.267578 C 18.024989 21.510167 18.166103 20.401467 17.810547 19.542969 C 17.518616 18.838093 16.825049 18.347951 16.009766 18.160156 A 1 1 0 0 0 15.5 18 L 14 18 z M 15 20 L 15.5 20 C 15.76524 20 15.884079 20.123016 15.960938 20.308594 C 16.037797 20.494172 16.040997 20.66603 15.853516 20.853516 C 15.66603 21.041 15.494172 21.037796 15.308594 20.960938 C 15.123016 20.88408 15 20.76524 15 20.5 L 15 20 z "
     stroke-width="0" />
</svg>
