<?xml version="1.0" encoding="UTF-8" standalone="no"?>
<svg xmlns="http://www.w3.org/2000/svg" xmlns:svg="http://www.w3.org/2000/svg" width="24" height="24" viewBox="0 0 24 24" fill="currentColor" tags="settings,filters,controls" categories="account">
  
  <path d="M 14 1 A 1 1 0 0 0 13 2 L 13 6 A 1 1 0 0 0 14 7 A 1 1 0 0 0 15 6 L 15 5 L 21 5 A 1 1 0 0 0 22 4 A 1 1 0 0 0 21 3 L 15 3 L 15 2 A 1 1 0 0 0 14 1 z M 3 3 A 1 1 0 0 0 2 4 A 1 1 0 0 0 3 5 L 10 5 A 1 1 0 0 0 11 4 A 1 1 0 0 0 10 3 L 3 3 z M 8 9 A 1 1 0 0 0 7 10 L 7 11 L 3 11 A 1 1 0 0 0 2 12 A 1 1 0 0 0 3 13 L 7 13 L 7 14 A 1 1 0 0 0 8 15 A 1 1 0 0 0 9 14 L 9 10 A 1 1 0 0 0 8 9 z M 12 11 A 1 1 0 0 0 11 12 A 1 1 0 0 0 12 13 L 21 13 A 1 1 0 0 0 22 12 A 1 1 0 0 0 21 11 L 12 11 z M 16 17 A 1 1 0 0 0 15 18 L 15 20 L 15 22 A 1 1 0 0 0 16 23 A 1 1 0 0 0 17 22 L 17 21 L 21 21 A 1 1 0 0 0 22 20 A 1 1 0 0 0 21 19 L 17 19 L 17 18 A 1 1 0 0 0 16 17 z M 3 19 A 1 1 0 0 0 2 20 A 1 1 0 0 0 3 21 L 12 21 A 1 1 0 0 0 13 20 A 1 1 0 0 0 12 19 L 3 19 z "/>
</svg>
