<?xml version="1.0" encoding="UTF-8" standalone="no"?>
<svg
   width="24"
   height="24"
   viewBox="0 0 24 24"
   fill="none"
   stroke="currentColor"
   stroke-width="2"
   stroke-linecap="round"
   stroke-linejoin="round"
   version="1.1"
   id="svg1"
   xmlns="http://www.w3.org/2000/svg"
   xmlns:svg="http://www.w3.org/2000/svg">
  <defs
     id="defs1" />
  <path
     id="rect1"
     style="color:#000000;fill:#000000;-inkscape-stroke:none"
     d="M 7 1 C 5.3553005 1 4 2.3553005 4 4 L 4 20 C 4 21.644699 5.3553005 23 7 23 L 17 23 C 18.644699 23 20 21.644699 20 20 L 20 4 C 20 2.3553005 18.644699 1 17 1 L 7 1 z M 7 3 L 17 3 C 17.571296 3 18 3.4287039 18 4 L 18 20 C 18 20.571296 17.571296 21 17 21 L 7 21 C 6.4287039 21 6 20.571296 6 20 L 6 4 C 6 3.4287039 6.4287039 3 7 3 z M 12 17 A 1 1 0 0 0 11 18 A 1 1 0 0 0 12 19 L 12.009766 19 A 1 1 0 0 0 13.009766 18 A 1 1 0 0 0 12.009766 17 L 12 17 z "
     stroke-width="0" />
</svg>
