<?xml version="1.0" encoding="UTF-8" standalone="no"?>
<svg xmlns="http://www.w3.org/2000/svg" xmlns:svg="http://www.w3.org/2000/svg" width="24" height="24" viewBox="0 0 24 24" fill="currentColor" tags="contactless,payment,near-field communication,screen" categories="communication,money,devices">
  
  <path d="M 19.912109 3.0996094 A 1 1 0 0 0 19.412109 3.2324219 A 1 1 0 0 0 19.042969 4.5976562 C 21.670554 9.1842268 21.672571 14.814403 19.050781 19.404297 A 1 1 0 0 0 19.423828 20.767578 A 1 1 0 0 0 20.789062 20.396484 C 23.760899 15.193773 23.755751 8.8024619 20.777344 3.6035156 A 1 1 0 0 0 20.171875 3.1347656 A 1 1 0 0 0 19.912109 3.0996094 z M 3 5 C 1.9092994 5 1 5.9092994 1 7 L 1 17 C 1 18.090701 1.9092994 19 3 19 L 8 19 C 9.0907006 19 10 18.090701 10 17 L 10 7 C 10 5.9092994 9.0907006 5 8 5 L 3 5 z M 16.46875 5.2089844 A 1 1 0 0 0 15.966797 5.3398438 A 1 1 0 0 0 15.589844 6.703125 C 17.449907 9.9914517 17.449907 14.008548 15.589844 17.296875 A 1 1 0 0 0 15.966797 18.660156 A 1 1 0 0 0 17.330078 18.283203 C 19.534293 14.386467 19.534293 9.6135328 17.330078 5.7167969 A 1 1 0 0 0 16.726562 5.2460938 A 1 1 0 0 0 16.46875 5.2089844 z M 3 7 L 8 7 L 8 17 L 3 17 L 3 7 z M 13.005859 7.3183594 A 1 1 0 0 0 12.503906 7.4511719 A 1 1 0 0 0 12.130859 8.8144531 C 13.257049 10.789769 13.257049 13.210231 12.130859 15.185547 A 1 1 0 0 0 12.503906 16.548828 A 1 1 0 0 0 13.869141 16.175781 C 15.34388 13.589117 15.34388 10.410883 13.869141 7.8242188 A 1 1 0 0 0 13.005859 7.3183594 z "/>
</svg>
