<?xml version="1.0" encoding="UTF-8" standalone="no"?>
<svg
   width="24"
   height="24"
   viewBox="0 0 24 24"
   fill="none"
   stroke="currentColor"
   stroke-width="2"
   stroke-linecap="round"
   stroke-linejoin="round"
   version="1.1"
   id="svg4"
   xmlns="http://www.w3.org/2000/svg"
   xmlns:svg="http://www.w3.org/2000/svg">
  <defs
     id="defs4" />
  <path
     id="path1"
     style="color:#000000;fill:#000000;-inkscape-stroke:none"
     d="M 17.929688 2.0019531 A 1 1 0 0 0 17.552734 2.1054688 A 1 1 0 0 0 17.105469 3.4472656 L 17.824219 4.8867188 C 17.321719 5.4046602 17 6.1581111 17 7 L 17 7.3535156 C 15.348076 5.3102775 12.82303 4 10 4 C 5.0412918 4 1 8.0412918 1 13 C 1 13.120442 1.0036958 13.240391 1.0097656 13.359375 C 1.1156494 16.036826 2.3973562 18.418478 4.3535156 20 L 2 20 A 1 1 0 0 0 1 21 A 1 1 0 0 0 2 22 L 14 22 C 18.945445 22 23 17.945445 23 13 L 23 7 C 23 6.1581111 22.678282 5.4046602 22.175781 4.8867188 L 22.894531 3.4472656 A 1 1 0 0 0 22.447266 2.1054688 A 1 1 0 0 0 21.683594 2.0507812 A 1 1 0 0 0 21.105469 2.5527344 L 20.369141 4.0234375 C 20.246216 4.0095642 20.122974 4 20 4 C 19.877026 4 19.753784 4.0095642 19.630859 4.0234375 L 18.894531 2.5527344 A 1 1 0 0 0 18.316406 2.0507812 A 1 1 0 0 0 17.929688 2.0019531 z M 10 6 C 13.87783 6 17 9.1221699 17 13 C 17 16.87783 13.87783 20 10 20 C 9.6586518 20 9.3241172 19.974504 8.9960938 19.927734 C 12.381147 19.440879 15 16.51568 15 13 C 15 11.416671 14.370242 10.10189 13.414062 9.2519531 C 12.457882 8.4020158 11.22222 8 10 8 C 8.7777803 8 7.5421175 8.4020158 6.5859375 9.2519531 C 5.6297575 10.10189 5 11.416671 5 13 C 5 13.916665 5.3797568 14.731441 5.9609375 15.248047 C 6.5421182 15.764651 7.2777793 16 8 16 C 8.7222207 16 9.4578813 15.764651 10.039062 15.248047 C 10.620243 14.731441 11 13.916665 11 13 A 1 1 0 0 0 10 12 A 1 1 0 0 0 9 13 C 9 13.416666 8.8797552 13.601893 8.7109375 13.751953 C 8.5421198 13.902013 8.2777773 14 8 14 C 7.7222227 14 7.4578802 13.902013 7.2890625 13.751953 C 7.1202448 13.601893 7 13.416666 7 13 C 7 11.916669 7.3702455 11.231439 7.9140625 10.748047 C 8.4578795 10.264654 9.2222237 10 10 10 C 10.777776 10 11.54212 10.264654 12.085938 10.748047 C 12.629754 11.231439 13 11.916669 13 13 C 13 15.773265 10.773263 18 8 18 C 5.3213437 18 3.152667 15.922002 3.0078125 13.28125 C 3.0041518 13.187851 3 13.094328 3 13 C 3 9.1221699 6.1221699 6 10 6 z M 20 6 C 20.16172 6 20.316712 6.0363856 20.453125 6.09375 C 20.551021 6.1349174 20.640404 6.1853505 20.710938 6.2480469 C 20.879755 6.398107 21 6.5833345 21 7 L 21 13 C 21 16.164357 18.880048 18.848376 15.988281 19.708984 C 17.834459 18.059055 19 15.662129 19 13 L 19 7 C 19 6.5833345 19.120246 6.398107 19.289062 6.2480469 C 19.45788 6.0979867 19.722222 6 20 6 z "
     stroke-width="0" />
</svg>
