<?xml version="1.0" encoding="UTF-8" standalone="no"?>
<svg
   width="24"
   height="24"
   viewBox="0 0 24 24"
   fill="none"
   stroke="currentColor"
   stroke-width="2"
   stroke-linecap="round"
   stroke-linejoin="round"
   version="1.1"
   id="svg5"
   xmlns="http://www.w3.org/2000/svg"
   xmlns:svg="http://www.w3.org/2000/svg">
  <defs
     id="defs5" />
  <path
     id="line1"
     style="color:#000000;fill:#000000;-inkscape-stroke:none"
     d="M 12 1 A 1 1 0 0 0 11 2 L 11 5.5859375 L 8.7070312 3.2929688 A 1 1 0 0 0 8 3 A 1 1 0 0 0 7.2929688 3.2929688 A 1 1 0 0 0 7.2929688 4.7070312 L 11 8.4140625 L 11 11 L 8.4140625 11 L 4.7070312 7.2929688 A 1 1 0 0 0 4 7 A 1 1 0 0 0 3.2929688 7.2929688 A 1 1 0 0 0 3.2929688 8.7070312 L 5.5859375 11 L 2 11 A 1 1 0 0 0 1 12 A 1 1 0 0 0 2 13 L 5.5859375 13 L 3.2929688 15.292969 A 1 1 0 0 0 3.2929688 16.707031 A 1 1 0 0 0 4.7070312 16.707031 L 8.4140625 13 L 11 13 L 11 15.585938 L 7.2929688 19.292969 A 1 1 0 0 0 7.2929688 20.707031 A 1 1 0 0 0 8.7070312 20.707031 L 11 18.414062 L 11 22 A 1 1 0 0 0 12 23 A 1 1 0 0 0 13 22 L 13 18.414062 L 15.292969 20.707031 A 1 1 0 0 0 16.707031 20.707031 A 1 1 0 0 0 16.707031 19.292969 L 13 15.585938 L 13 13 L 15.585938 13 L 19.292969 16.707031 A 1 1 0 0 0 20.707031 16.707031 A 1 1 0 0 0 20.707031 15.292969 L 18.414062 13 L 22 13 A 1 1 0 0 0 23 12 A 1 1 0 0 0 22 11 L 18.414062 11 L 20.707031 8.7070312 A 1 1 0 0 0 20.707031 7.2929688 A 1 1 0 0 0 19.292969 7.2929688 L 15.585938 11 L 13 11 L 13 8.4140625 L 16.707031 4.7070312 A 1 1 0 0 0 16.707031 3.2929688 A 1 1 0 0 0 15.292969 3.2929688 L 13 5.5859375 L 13 2 A 1 1 0 0 0 12 1 z "
     stroke-width="0" />
</svg>
