<?xml version="1.0" encoding="UTF-8" standalone="no"?>
<svg
   width="24"
   height="24"
   viewBox="0 0 24 24"
   fill="none"
   stroke="currentColor"
   stroke-width="2"
   stroke-linecap="round"
   stroke-linejoin="round"
   version="1.1"
   id="svg6"
   xmlns="http://www.w3.org/2000/svg"
   xmlns:svg="http://www.w3.org/2000/svg">
  <defs
     id="defs6" />
  <path
     id="path1"
     style="color:#000000;fill:#000000;-inkscape-stroke:none"
     d="M 6.15625 2.0039062 A 1 1 0 0 0 5.3125 2.6523438 A 1 1 0 0 0 5.9023438 3.9375 C 5.7994191 3.89938 5.8923347 3.9333103 5.9316406 3.9882812 C 5.9697249 4.0415401 6.008053 4.1117118 6 4.2910156 C 5.9936496 4.3696247 5.9468121 4.4638357 5.7167969 4.7578125 C 5.4849477 5.0541331 5.0676853 5.5477962 5.0039062 6.2949219 A 1.0001 1.0001 0 0 0 5.0019531 6.3164062 C 4.9291081 7.4527417 5.5939382 8.2906084 6.0507812 8.7246094 A 1 1 0 0 0 7.4648438 8.6894531 A 1 1 0 0 0 7.4296875 7.2753906 C 7.0906935 6.9533464 6.9804916 6.8635332 7.0039062 6.453125 C 7.0123557 6.3805985 7.0613024 6.2838252 7.2910156 5.9902344 C 7.5266656 5.6890561 7.9437564 5.1826577 7.9980469 4.4316406 A 1.0001 1.0001 0 0 0 7.9980469 4.4296875 A 1.0001 1.0001 0 0 0 7.9980469 4.4277344 A 1.0001 1.0001 0 0 0 7.9980469 4.4257812 A 1.0001 1.0001 0 0 0 7.9980469 4.4238281 A 1.0001 1.0001 0 0 0 7.9980469 4.421875 A 1.0001 1.0001 0 0 0 7.9980469 4.4199219 C 8.0364229 3.7828787 7.8392871 3.2167508 7.5585938 2.8242188 C 7.2779005 2.4316866 6.9705806 2.2006201 6.5976562 2.0625 A 1 1 0 0 0 6.15625 2.0039062 z M 11.15625 2.0039062 A 1 1 0 0 0 10.3125 2.6523438 A 1 1 0 0 0 10.902344 3.9375 C 10.799419 3.89938 10.890534 3.9319501 10.927734 3.984375 C 10.964934 4.0368039 11.006027 4.09569 10.992188 4.2871094 A 1.0001 1.0001 0 0 0 10.992188 4.3007812 C 10.987788 4.3731852 10.942607 4.4620832 10.710938 4.7597656 C 10.480452 5.0559273 10.065322 5.5603501 10.015625 6.3105469 C 9.9321491 7.4462915 10.592181 8.2889866 11.03125 8.7167969 A 1 1 0 0 0 12.445312 8.6972656 A 1 1 0 0 0 12.427734 7.2832031 C 12.087985 6.9521598 11.975534 6.8766571 12.007812 6.4570312 A 1.0001 1.0001 0 0 0 12.007812 6.4550781 A 1.0001 1.0001 0 0 0 12.007812 6.453125 A 1.0001 1.0001 0 0 0 12.007812 6.4511719 A 1.0001 1.0001 0 0 0 12.007812 6.4492188 A 1.0001 1.0001 0 0 0 12.007812 6.4472656 A 1.0001 1.0001 0 0 0 12.007812 6.4453125 A 1.0001 1.0001 0 0 0 12.007812 6.4433594 A 1.0001 1.0001 0 0 0 12.007812 6.4414062 C 12.011712 6.3780243 12.055733 6.2880977 12.289062 5.9882812 C 12.521799 5.6892267 12.938912 5.1782445 12.986328 4.4238281 C 13.029952 3.7890028 12.837535 3.2212793 12.558594 2.828125 C 12.278292 2.4330545 11.970581 2.2006201 11.597656 2.0625 A 1 1 0 0 0 11.15625 2.0039062 z M 16.15625 2.0039062 A 1 1 0 0 0 15.3125 2.6523438 A 1 1 0 0 0 15.902344 3.9375 C 15.799419 3.89938 15.892331 3.9333103 15.931641 3.9882812 C 15.969721 4.0415402 16.00805 4.1117118 16 4.2910156 C 15.9937 4.3696245 15.94681 4.4638357 15.716797 4.7578125 C 15.484947 5.0541331 15.067685 5.5477962 15.003906 6.2949219 A 1.0001 1.0001 0 0 0 15.001953 6.3164062 C 14.929113 7.4527414 15.591006 8.2878413 16.03125 8.7167969 A 1 1 0 0 0 17.445312 8.6972656 A 1 1 0 0 0 17.427734 7.2832031 C 17.092118 6.9561479 16.980525 6.8637101 17.003906 6.453125 C 17.012306 6.3805981 17.061306 6.2838252 17.291016 5.9902344 C 17.526665 5.6890561 17.943756 5.1826577 17.998047 4.4316406 A 1.0001 1.0001 0 0 0 17.998047 4.4296875 A 1.0001 1.0001 0 0 0 17.998047 4.4277344 A 1.0001 1.0001 0 0 0 17.998047 4.4257812 A 1.0001 1.0001 0 0 0 17.998047 4.4238281 A 1.0001 1.0001 0 0 0 17.998047 4.421875 A 1.0001 1.0001 0 0 0 17.998047 4.4199219 C 18.036423 3.7828787 17.839286 3.2167508 17.558594 2.8242188 C 17.2779 2.4316866 16.970581 2.2006201 16.597656 2.0625 A 1 1 0 0 0 16.15625 2.0039062 z M 21.871094 5.0078125 A 1 1 0 0 0 21.076172 5.6152344 L 18.832031 11 L 3 11 A 1.0001 1.0001 0 0 0 2 12 C 2 15.417831 3.7273426 18.44146 6.3535156 20.246094 A 1 1 0 0 0 6 21 A 1 1 0 0 0 7 22 L 17 22 A 1 1 0 0 0 18 21 A 1 1 0 0 0 17.652344 20.242188 C 20.27526 18.437088 22 15.415315 22 12 A 1.0001 1.0001 0 0 0 21 11 L 22.923828 6.3847656 A 1 1 0 0 0 22.384766 5.0761719 A 1 1 0 0 0 21.871094 5.0078125 z M 4.2011719 13 L 19.798828 13 C 19.288439 16.932166 16.075027 20 12 20 C 7.9249728 20 4.711561 16.932166 4.2011719 13 z "
     stroke-width="0" />
</svg>
