<?xml version="1.0" encoding="UTF-8" standalone="no"?>
<svg
   width="24"
   height="24"
   viewBox="0 0 24 24"
   fill="none"
   stroke="currentColor"
   stroke-width="2"
   stroke-linecap="round"
   stroke-linejoin="round"
   version="1.1"
   id="svg1"
   xmlns="http://www.w3.org/2000/svg"
   xmlns:svg="http://www.w3.org/2000/svg">
  <defs
     id="defs1" />
  <path
     id="path1"
     style="color:#000000;fill:#000000;-inkscape-stroke:none"
     d="M 2 16 A 1 1 0 0 0 1 17 L 1 18 C 1 18.583332 1.2608347 19.049898 1.6054688 19.394531 C 1.9501029 19.739166 2.4166679 20 3 20 L 21 20 C 21.583332 20 22.049898 19.739166 22.394531 19.394531 C 22.739166 19.049898 23 18.583332 23 18 L 23 17 A 1 1 0 0 0 22 16 A 1 1 0 0 0 21 17 L 21 18 L 3 18 L 3 17 A 1 1 0 0 0 2 16 z "
     stroke-width="0" />
</svg>
