<?xml version="1.0" encoding="UTF-8" standalone="no"?>
<svg
   width="24"
   height="24"
   viewBox="0 0 24 24"
   fill="none"
   stroke="currentColor"
   stroke-width="2"
   stroke-linecap="round"
   stroke-linejoin="round"
   version="1.1"
   id="svg1"
   xmlns="http://www.w3.org/2000/svg"
   xmlns:svg="http://www.w3.org/2000/svg">
  <defs
     id="defs1" />
  <path
     id="path1"
     style="color:#000000;fill:#000000;-inkscape-stroke:none"
     d="M 12 2 A 1.0001 1.0001 0 0 0 11.048828 2.6894531 L 9.1503906 8.4882812 A 1.0001 1.0001 0 0 0 9.1484375 8.4921875 C 9.0494578 8.7986223 8.812221 9.037504 8.5058594 9.1367188 A 1.0001 1.0001 0 0 0 8.5 9.1386719 L 2.6875 11.050781 A 1.0001 1.0001 0 0 0 2.6894531 12.951172 L 8.4882812 14.849609 A 1.0001 1.0001 0 0 0 8.4921875 14.851562 C 8.7986261 14.950542 9.037504 15.187779 9.1367188 15.494141 A 1.0001 1.0001 0 0 0 9.1386719 15.5 L 11.050781 21.3125 A 1.0001 1.0001 0 0 0 12.951172 21.310547 L 14.849609 15.511719 A 1.0001 1.0001 0 0 0 14.851562 15.507812 C 14.950542 15.201374 15.187779 14.962496 15.494141 14.863281 A 1.0001 1.0001 0 0 0 15.5 14.861328 L 21.3125 12.949219 A 1.0001 1.0001 0 0 0 21.310547 11.048828 L 15.511719 9.1503906 A 1.0001 1.0001 0 0 0 15.507812 9.1484375 C 15.201368 9.0494578 14.962496 8.812221 14.863281 8.5058594 A 1.0001 1.0001 0 0 0 14.861328 8.5 L 12.949219 2.6875 A 1.0001 1.0001 0 0 0 12 2 z M 12.001953 6.2050781 L 12.960938 9.1210938 L 12.962891 9.1230469 L 12.962891 9.125 C 13.260195 10.03839 13.978351 10.755496 14.892578 11.050781 L 17.794922 12.001953 L 14.878906 12.960938 C 13.963491 13.257392 13.244962 13.976933 12.949219 14.892578 L 11.998047 17.794922 L 11.039062 14.878906 L 11.037109 14.876953 C 10.740081 13.962835 10.022191 13.24468 9.1074219 12.949219 L 6.2050781 11.998047 L 9.1210938 11.039062 L 9.125 11.037109 C 10.03839 10.739805 10.755496 10.021649 11.050781 9.1074219 L 12.001953 6.2050781 z "
     stroke-width="0" />
</svg>
