<?xml version="1.0" encoding="UTF-8" standalone="no"?>
<svg
   width="24"
   height="24"
   viewBox="0 0 24 24"
   fill="none"
   stroke="currentColor"
   stroke-width="2"
   stroke-linecap="round"
   stroke-linejoin="round"
   version="1.1"
   id="svg2"
   xmlns="http://www.w3.org/2000/svg"
   xmlns:svg="http://www.w3.org/2000/svg">
  <defs
     id="defs2" />
  <path
     id="rect1"
     style="color:#000000;fill:#000000;-inkscape-stroke:none"
     d="M 6 1 C 4.3553005 1 3 2.3553005 3 4 L 3 20 C 3 21.644699 4.3553005 23 6 23 L 18 23 C 19.644699 23 21 21.644699 21 20 L 21 4 C 21 2.3553005 19.644699 1 18 1 L 6 1 z M 6 3 L 18 3 C 18.571296 3 19 3.4287039 19 4 L 19 20 C 19 20.571296 18.571296 21 18 21 L 6 21 C 5.4287039 21 5 20.571296 5 20 L 5 4 C 5 3.4287039 5.4287039 3 6 3 z M 12 5 A 1 1 0 0 0 11 6 A 1 1 0 0 0 12 7 L 12.009766 7 A 1 1 0 0 0 13.009766 6 A 1 1 0 0 0 12.009766 5 L 12 5 z M 12 9 C 9.2504263 9 7 11.250427 7 14 C 7 16.749573 9.2504263 19 12 19 C 14.749573 19 17 16.749573 17 14 C 17 11.250427 14.749573 9 12 9 z M 12 11 C 13.668695 11 15 12.331305 15 14 C 15 15.668695 13.668695 17 12 17 C 10.331305 17 9 15.668695 9 14 C 9 12.331305 10.331305 11 12 11 z M 12 13 A 1 1 0 0 0 11 14 A 1 1 0 0 0 12 15 L 12.009766 15 A 1 1 0 0 0 13.009766 14 A 1 1 0 0 0 12.009766 13 L 12 13 z "
     stroke-width="0" />
</svg>
