<?xml version="1.0" encoding="UTF-8" standalone="no"?>
<svg
   width="24"
   height="24"
   viewBox="0 0 24 24"
   fill="none"
   stroke="currentColor"
   stroke-width="2"
   stroke-linecap="round"
   stroke-linejoin="round"
   version="1.1"
   id="svg3"
   xmlns="http://www.w3.org/2000/svg"
   xmlns:svg="http://www.w3.org/2000/svg">
  <defs
     id="defs3" />
  <path
     id="path1"
     style="color:#000000;fill:#000000;-inkscape-stroke:none"
     d="M 7.4609375 1.84375 C 5.8807209 1.8364773 4.2843749 2.3506285 3.0546875 3.4335938 C 1.8250001 4.5165589 1.0094839 6.1854345 1 8.2460938 A 1.0001 1.0001 0 0 0 1 8.25 C 1 9.7280923 1.1867066 10.646296 1.4257812 11.339844 C 1.664856 12.033391 1.8817319 12.398688 2.0253906 13.023438 A 1.0001 1.0001 0 0 0 2.03125 13.048828 C 2.2234498 13.795749 2.2311395 14.579281 2.0546875 15.330078 A 1.0001 1.0001 0 0 0 2.0546875 15.332031 L 1.0253906 19.773438 A 1 1 0 0 0 1.7734375 20.974609 A 1 1 0 0 0 2.9746094 20.226562 L 4.0019531 15.787109 C 4.2516142 14.724806 4.2391225 13.617668 3.96875 12.560547 C 3.768728 11.702532 3.4898717 11.190717 3.3164062 10.6875 C 3.1417574 10.18085 3.000445 9.5714821 3 8.2539062 L 3 8.2519531 L 3 8.25 C 3.0082175 6.6918106 3.5620885 5.6512314 4.3769531 4.9335938 C 5.192595 4.2152717 6.317347 3.8385227 7.453125 3.84375 C 8.588903 3.84898 9.7085827 4.2370914 10.517578 4.9628906 C 11.326573 5.6886899 11.870464 6.7342565 11.863281 8.2949219 A 1.0001 1.0001 0 0 0 11.863281 8.3007812 L 11.863281 13.921875 C 11.804101 14.560645 11.305657 15.043584 10.667969 15.091797 L 8.9042969 14.90625 A 1.0001 1.0001 0 0 0 7.8007812 15.900391 L 7.8007812 20 A 1 1 0 0 0 8.8007812 21 A 1 1 0 0 0 9.8007812 20 L 9.8007812 17.009766 L 10.595703 17.09375 A 1.0001 1.0001 0 0 0 10.755859 17.097656 C 12.389214 17.006906 13.719644 15.715832 13.859375 14.085938 A 1.0001 1.0001 0 0 0 13.863281 14 L 13.863281 8.3046875 L 13.863281 8.3007812 C 13.871662 6.2420388 13.072356 4.5681061 11.853516 3.4746094 C 10.633848 2.3803714 9.0411541 1.8510227 7.4609375 1.84375 z M 19.802734 6.1972656 A 1 1 0 0 0 19.095703 6.4902344 A 1 1 0 0 0 19.095703 7.9042969 C 21.639661 10.451422 21.639195 14.548065 19.09375 17.09375 A 1 1 0 0 0 19.09375 18.507812 A 1 1 0 0 0 20.507812 18.507812 C 23.817124 15.198127 23.817157 9.8017923 20.509766 6.4902344 A 1 1 0 0 0 19.802734 6.1972656 z M 17.078125 9.0292969 A 1 1 0 0 0 16.261719 9.3242188 A 1 1 0 0 0 16.275391 10.738281 C 17.277454 11.720201 17.285111 13.301028 16.292969 14.292969 A 1 1 0 0 0 16.292969 15.707031 A 1 1 0 0 0 17.707031 15.707031 C 19.468678 13.945746 19.45504 11.054039 17.675781 9.3105469 A 1 1 0 0 0 17.078125 9.0292969 z "
     stroke-width="0" />
</svg>
