<?xml version="1.0" encoding="UTF-8" standalone="no"?>
<svg
   width="24"
   height="24"
   viewBox="0 0 24 24"
   fill="none"
   stroke="currentColor"
   stroke-width="2"
   stroke-linecap="round"
   stroke-linejoin="round"
   version="1.1"
   id="svg3"
   xmlns="http://www.w3.org/2000/svg"
   xmlns:svg="http://www.w3.org/2000/svg">
  <defs
     id="defs3" />
  <path
     id="path1"
     style="color:#000000;fill:#000000;-inkscape-stroke:none"
     d="M 12 3 A 1.0001 1.0001 0 0 0 11.105469 3.5527344 L 5.1054688 15.552734 A 1 1 0 0 0 5.5527344 16.894531 A 1 1 0 0 0 6.8945312 16.447266 L 8.6171875 13 L 15.382812 13 L 17.105469 16.447266 A 1 1 0 0 0 18.447266 16.894531 A 1 1 0 0 0 18.894531 15.552734 L 12.894531 3.5527344 A 1.0001 1.0001 0 0 0 12 3 z M 12 6.2363281 L 14.382812 11 L 9.6171875 11 L 12 6.2363281 z M 6.3007812 19 C 5.4230052 19 4.7553611 19.486676 4.4570312 19.746094 C 4.1587015 20.00551 4.2469692 20 4 20 A 1 1 0 0 0 3 21 A 1 1 0 0 0 4 22 C 4.8530285 22 5.4928622 21.494488 5.7695312 21.253906 C 6.0462004 21.013324 5.9785597 21 6.3007812 21 C 6.6230029 21 6.5023443 20.990236 6.7773438 21.240234 C 7.0523433 21.490234 7.7218334 22 8.5996094 22 C 9.4526379 22 10.092471 21.494488 10.369141 21.253906 C 10.645809 21.013324 10.578169 21 10.900391 21 C 11.147359 21 11.057139 20.994501 11.355469 21.253906 C 11.653798 21.513324 12.321443 22 13.199219 22 C 14.052247 22 14.692081 21.494488 14.96875 21.253906 C 15.245419 21.013324 15.177778 21 15.5 21 C 15.746969 21 15.658702 20.994501 15.957031 21.253906 C 16.255361 21.513324 16.923005 22 17.800781 22 C 18.65381 22 19.291691 21.494488 19.568359 21.253906 C 19.845029 21.013324 19.777388 21 20.099609 21 A 1 1 0 0 0 21.099609 20 A 1 1 0 0 0 20.099609 19 C 19.221833 19 18.554189 19.486676 18.255859 19.746094 C 17.95753 20.00551 18.047751 20 17.800781 20 C 17.47856 20 17.546201 19.986676 17.269531 19.746094 C 16.992863 19.505512 16.353028 19 15.5 19 C 14.622224 19 13.95458 19.486676 13.65625 19.746094 C 13.35792 20.00551 13.446188 20 13.199219 20 C 12.876997 20 12.944637 19.986676 12.667969 19.746094 C 12.391299 19.505512 11.753419 19 10.900391 19 C 10.022615 19 9.3549704 19.486676 9.0566406 19.746094 C 8.7583109 20.00551 8.8465785 20 8.5996094 20 C 8.2773878 20 8.3980463 20.009764 8.1230469 19.759766 C 7.8480473 19.509766 7.1785573 19 6.3007812 19 z "
     stroke-width="0" />
</svg>
