<?xml version="1.0" encoding="UTF-8" standalone="no"?>
<svg xmlns="http://www.w3.org/2000/svg" xmlns:svg="http://www.w3.org/2000/svg" width="24" height="24" viewBox="0 0 24 24" fill="currentColor" tags="split,divide" categories="layout">
  
  <path d="M 12 3 A 1 1 0 0 0 11 4 L 11 20 A 1 1 0 0 0 12 21 A 1 1 0 0 0 13 20 L 13 4 A 1 1 0 0 0 12 3 z M 5 4 C 4.1666683 4 3.4501025 4.385835 2.9179688 4.9179688 C 2.3858349 5.4501026 2 6.1666683 2 7 L 2 17 C 2 17.833331 2.3858349 18.549898 2.9179688 19.082031 C 3.4501025 19.614166 4.1666683 20 5 20 L 8 20 A 1 1 0 0 0 9 19 A 1 1 0 0 0 8 18 L 5 18 C 4.8333337 18 4.549896 17.885834 4.3320312 17.667969 C 4.1141666 17.450104 4 17.166667 4 17 L 4 7 C 4 6.8333337 4.1141666 6.549896 4.3320312 6.3320312 C 4.549896 6.1141666 4.8333337 6 5 6 L 8 6 A 1 1 0 0 0 9 5 A 1 1 0 0 0 8 4 L 5 4 z M 16 4 A 1 1 0 0 0 15 5 A 1 1 0 0 0 16 6 L 19 6 C 19.166667 6 19.450104 6.1141666 19.667969 6.3320312 C 19.885834 6.549896 20 6.8333337 20 7 L 20 17 C 20 17.166667 19.885834 17.450104 19.667969 17.667969 C 19.450104 17.885834 19.166667 18 19 18 L 16 18 A 1 1 0 0 0 15 19 A 1 1 0 0 0 16 20 L 19 20 C 19.833331 20 20.549898 19.614166 21.082031 19.082031 C 21.614166 18.549898 22 17.833331 22 17 L 22 7 C 22 6.1666683 21.614166 5.4501026 21.082031 4.9179688 C 20.549898 4.385835 19.833331 4 19 4 L 16 4 z "/>
</svg>
