<?xml version="1.0" encoding="UTF-8" standalone="no"?>
<svg xmlns="http://www.w3.org/2000/svg" xmlns:svg="http://www.w3.org/2000/svg" width="24" height="24" viewBox="0 0 24 24" fill="currentColor" tags="break,disband,divide,separate,branch,disunite" categories="development,arrows">
  
  <path d="M 3 2 A 1.0001 1.0001 0 0 0 2.6582031 2.0683594 A 1 1 0 0 0 2.5800781 2.1015625 A 1.0001 1.0001 0 0 0 2.1015625 2.5800781 A 1 1 0 0 0 2.0683594 2.6582031 A 1.0001 1.0001 0 0 0 2 3 L 2 8 A 1 1 0 0 0 3 9 A 1 1 0 0 0 4 8 L 4 5.4140625 L 10.121094 11.535156 C 10.692187 12.105985 11.008663 12.882039 11 13.689453 A 1.0001 1.0001 0 0 0 11 13.699219 L 11 22 A 1 1 0 0 0 12 23 A 1 1 0 0 0 13 22 L 13 13.710938 C 13.01443 12.366344 12.486203 11.071698 11.535156 10.121094 L 5.4140625 4 L 8 4 A 1 1 0 0 0 9 3 A 1 1 0 0 0 8 2 L 3 2 z M 16 2 A 1 1 0 0 0 15 3 A 1 1 0 0 0 16 4 L 18.585938 4 L 14.292969 8.2929688 A 1 1 0 0 0 14.292969 9.7070312 A 1 1 0 0 0 15.707031 9.7070312 L 20 5.4140625 L 20 8 A 1 1 0 0 0 21 9 A 1 1 0 0 0 22 8 L 22 3 A 1 1 0 0 0 21.96875 2.7578125 A 1.0001 1.0001 0 0 0 21.960938 2.7285156 A 1 1 0 0 0 21.869141 2.5097656 A 1 1 0 0 0 21.865234 2.5 A 1.0001 1.0001 0 0 0 21.859375 2.4921875 A 1 1 0 0 0 21.707031 2.2929688 A 1 1 0 0 0 21.5 2.1347656 A 1.0001 1.0001 0 0 0 21 2 L 16 2 z "/>
</svg>
