<?xml version="1.0" encoding="UTF-8" standalone="no"?>
<svg xmlns="http://www.w3.org/2000/svg" xmlns:svg="http://www.w3.org/2000/svg" width="24" height="24" viewBox="0 0 24 24" fill="currentColor" tags="leaf,nature,plant" categories="nature,gaming">
  
  <path d="M 18.962891 3 C 16.052995 3.1077739 14.378154 4.1959316 13.357422 5.3300781 A 1.0001 1.0001 0 0 0 13.257812 5.4609375 C 12.438886 6.7408172 12.002074 8.2266155 11.996094 9.7421875 C 11.877604 9.963022 11.780523 10.183739 11.699219 10.404297 C 11.280068 9.7069805 10.759899 9.0805302 10.087891 8.5917969 C 9.4315173 8.1144347 8.6096643 7.7379404 7.5800781 7.546875 C 6.5504921 7.3558096 5.3134511 7.3493 3.8242188 7.6152344 A 1.0001 1.0001 0 0 0 3.0429688 8.890625 C 3.7948416 11.361065 5.0475616 12.931512 6.5390625 13.683594 C 7.9986433 14.464552 9.6370384 14.497052 11.525391 14.167969 C 11.604681 14.659505 11.69356 15.119634 11.744141 15.533203 C 11.841311 16.327713 11.822921 16.941196 11.576172 17.460938 C 11.342551 17.953034 10.874265 18.46922 9.7753906 19 L 7 19 A 1 1 0 0 0 6 20 A 1 1 0 0 0 7 21 L 17 21 A 1 1 0 0 0 18 20 A 1 1 0 0 0 17 19 L 12.970703 19 C 13.133353 18.781182 13.271242 18.55337 13.382812 18.318359 C 13.870439 17.291229 13.845798 16.234002 13.730469 15.291016 C 13.523455 13.598373 13.101914 12.223826 13.632812 10.953125 C 15.409954 10.778542 16.842598 10.245844 17.923828 9.3808594 A 1.0001 1.0001 0 0 0 18.007812 9.3066406 C 19.172806 8.1416516 19.89317 6.5000482 20 4.0429688 A 1.0001 1.0001 0 0 0 18.962891 3 z M 17.775391 5.25 C 17.56312 6.3991069 17.21904 7.2404947 16.625 7.8457031 C 16.042045 8.3001447 15.17907 8.6009491 14.138672 8.7949219 C 14.266359 8.0297655 14.492694 7.2887853 14.904297 6.6230469 C 15.492823 5.9796274 16.394427 5.5142484 17.775391 5.25 z M 6.8417969 9.453125 C 6.9722396 9.4530272 7.0911955 9.460159 7.1933594 9.4785156 C 7.9387696 9.6124496 8.4684845 9.8863485 8.9121094 10.208984 C 9.4779506 10.620506 9.9344836 11.383537 10.337891 12.25 C 9.1803862 12.36447 8.2234856 12.323159 7.4746094 11.919922 A 1.0001 1.0001 0 0 0 7.4472656 11.90625 C 6.7738082 11.569521 6.1174555 10.731389 5.5390625 9.5371094 C 5.9595734 9.5183558 6.4504688 9.4534184 6.8417969 9.453125 z "/>
</svg>
