<?xml version="1.0" encoding="UTF-8" standalone="no"?>
<svg
   width="24"
   height="24"
   viewBox="0 0 24 24"
   fill="none"
   stroke="currentColor"
   stroke-width="2"
   stroke-linecap="round"
   stroke-linejoin="round"
   version="1.1"
   id="svg1"
   xmlns="http://www.w3.org/2000/svg"
   xmlns:svg="http://www.w3.org/2000/svg">
  <defs
     id="defs1" />
  <path
     id="path1"
     style="color:#000000;fill:#000000;-inkscape-stroke:none"
     d="M 5 2 C 3.3553005 2 2 3.3553005 2 5 L 2 19 C 2 20.644699 3.3553005 22 5 22 L 6 22 L 18 22 L 19 22 C 20.644699 22 22 20.644699 22 19 L 22 5 C 22 3.3553005 20.644699 2 19 2 L 5 2 z M 5 4 L 19 4 C 19.571296 4 20 4.4287039 20 5 L 20 19 C 20 19.571296 19.571296 20 19 20 L 18.927734 20 C 18.601449 17.740296 17.188222 15.823011 15.238281 14.798828 C 16.314033 13.879824 17 12.516854 17 11 C 17 8.2504263 14.749573 6 12 6 C 9.2504263 6 7 8.2504263 7 11 C 7 12.516854 7.6859671 13.879824 8.7617188 14.798828 C 6.811778 15.823011 5.3985515 17.740296 5.0722656 20 L 5 20 C 4.4287039 20 4 19.571296 4 19 L 4 5 C 4 4.4287039 4.4287039 4 5 4 z M 12 8 C 13.668695 8 15 9.3313045 15 11 C 15 12.668695 13.668695 14 12 14 C 10.331305 14 9 12.668695 9 11 C 9 9.3313045 10.331305 8 12 8 z M 12 16 C 14.430689 16 16.440693 17.710125 16.900391 20 L 7.0996094 20 C 7.5593073 17.710125 9.5693102 16 12 16 z "
     stroke-width="0" />
</svg>
