<?xml version="1.0" encoding="UTF-8" standalone="no"?>
<svg
   width="24"
   height="24"
   viewBox="0 0 24 24"
   fill="none"
   stroke="currentColor"
   stroke-width="2"
   stroke-linecap="round"
   stroke-linejoin="round"
   version="1.1"
   id="svg3"
   xmlns="http://www.w3.org/2000/svg"
   xmlns:svg="http://www.w3.org/2000/svg">
  <defs
     id="defs3" />
  <path
     id="path1"
     style="color:#000000;fill:#000000;-inkscape-stroke:none"
     d="M 5 2 C 3.3549936 2 2 3.3549936 2 5 L 2 19 C 2 20.645006 3.3549936 22 5 22 A 1 1 0 0 0 6 21 A 1 1 0 0 0 5 20 C 4.4358718 20 4 19.564128 4 19 L 4 5 C 4 4.4358718 4.4358718 4 5 4 L 19 4 C 19.564128 4 20 4.4358718 20 5 L 20 19 C 20 19.564128 19.564128 20 19 20 A 1 1 0 0 0 18 21 A 1 1 0 0 0 19 22 C 20.645006 22 22 20.645006 22 19 L 22 5 C 22 3.3549936 20.645006 2 19 2 L 5 2 z M 9 20 A 1 1 0 0 0 8 21 A 1 1 0 0 0 9 22 L 10 22 A 1 1 0 0 0 11 21 A 1 1 0 0 0 10 20 L 9 20 z M 14 20 A 1 1 0 0 0 13 21 A 1 1 0 0 0 14 22 L 15 22 A 1 1 0 0 0 16 21 A 1 1 0 0 0 15 20 L 14 20 z "
     stroke-width="0" />
</svg>
