<?xml version="1.0" encoding="UTF-8" standalone="no"?>
<svg
   width="24"
   height="24"
   viewBox="0 0 24 24"
   fill="none"
   stroke="currentColor"
   stroke-width="2"
   stroke-linecap="round"
   stroke-linejoin="round"
   version="1.1"
   id="svg1"
   xmlns="http://www.w3.org/2000/svg"
   xmlns:svg="http://www.w3.org/2000/svg">
  <defs
     id="defs1" />
  <path
     id="path1"
     style="color:#000000;fill:#000000;-inkscape-stroke:none"
     d="M 12 2 C 8.316674 2 5.7580163 2.4294837 4.09375 4.09375 C 2.4294837 5.7580163 2 8.316674 2 12 C 2 15.683326 2.4294837 18.241984 4.09375 19.90625 C 5.7580163 21.570516 8.316674 22 12 22 C 15.683326 22 18.241984 21.570516 19.90625 19.90625 C 21.570516 18.241984 22 15.683326 22 12 C 22 8.316674 21.570516 5.7580163 19.90625 4.09375 C 18.241984 2.4294837 15.683326 2 12 2 z M 12 4 C 15.516659 4 17.45646 4.4720842 18.492188 5.5078125 C 19.527916 6.5435408 20 8.4833404 20 12 C 20 15.516659 19.527916 17.45646 18.492188 18.492188 C 17.45646 19.527916 15.516659 20 12 20 C 8.4833404 20 6.5435408 19.527916 5.5078125 18.492188 C 4.4720842 17.45646 4 15.516659 4 12 C 4 8.4833404 4.4720842 6.5435408 5.5078125 5.5078125 C 6.5435408 4.4720842 8.4833403 4 12 4 z "
     stroke-width="0" />
</svg>
