<?xml version="1.0" encoding="UTF-8" standalone="no"?>
<svg
   width="24"
   height="24"
   viewBox="0 0 24 24"
   fill="none"
   stroke="currentColor"
   stroke-width="2"
   stroke-linecap="round"
   stroke-linejoin="round"
   version="1.1"
   id="svg2"
   xmlns="http://www.w3.org/2000/svg"
   xmlns:svg="http://www.w3.org/2000/svg">
  <defs
     id="defs2" />
  <path
     id="path1"
     style="color:#000000;fill:#000000;-inkscape-stroke:none"
     d="M 2 1 A 1 1 0 0 0 1.2929688 1.2929688 A 1 1 0 0 0 1.2929688 2.7070312 L 6.2265625 7.640625 L 1.8554688 8.28125 A 1.0001 1.0001 0 0 0 1.3027344 9.9863281 L 5.9257812 14.488281 L 4.8339844 20.830078 A 1.0001 1.0001 0 0 0 6.2832031 21.886719 L 12 18.898438 L 17.716797 21.886719 A 1.0001 1.0001 0 0 0 19.166016 20.830078 L 19.113281 20.527344 L 21.292969 22.707031 A 1 1 0 0 0 22.707031 22.707031 A 1 1 0 0 0 22.707031 21.292969 L 18.201172 16.787109 L 18.167969 16.751953 A 1 1 0 0 0 18.164062 16.75 L 2.7070312 1.2929688 A 1 1 0 0 0 2 1 z M 12 1 A 1.0001 1.0001 0 0 0 11.103516 1.5566406 L 9.6640625 4.4667969 A 1 1 0 0 0 10.117188 5.8066406 A 1 1 0 0 0 11.457031 5.3535156 L 11.998047 4.2578125 L 14.193359 8.7128906 A 1.0001 1.0001 0 0 0 14.947266 9.2597656 L 19.851562 9.96875 L 17.722656 12.044922 A 1 1 0 0 0 17.703125 13.458984 A 1 1 0 0 0 19.117188 13.476562 L 22.697266 9.9863281 A 1.0001 1.0001 0 0 0 22.142578 8.28125 L 15.753906 7.3554688 L 12.896484 1.5585938 A 1.0001 1.0001 0 0 0 12 1 z M 7.9882812 9.4023438 L 16.662109 18.076172 L 16.851562 19.177734 L 12.462891 16.882812 A 1.0001 1.0001 0 0 0 11.537109 16.882812 L 7.1484375 19.177734 L 7.9863281 14.308594 A 1.0001 1.0001 0 0 0 7.6972656 13.423828 L 4.1484375 9.9667969 L 7.9882812 9.4023438 z "
     stroke-width="0" />
</svg>
