<?xml version="1.0" encoding="UTF-8" standalone="no"?>
<svg
   width="24"
   height="24"
   viewBox="0 0 24 24"
   fill="none"
   stroke="currentColor"
   stroke-width="2"
   stroke-linecap="round"
   stroke-linejoin="round"
   version="1.1"
   id="svg1"
   xmlns="http://www.w3.org/2000/svg"
   xmlns:svg="http://www.w3.org/2000/svg">
  <defs
     id="defs1" />
  <path
     id="polygon1"
     style="color:#000000;fill:#000000;-inkscape-stroke:none"
     d="M 12 1 A 1.0001 1.0001 0 0 0 11.103516 1.5566406 L 8.2460938 7.3457031 L 1.8554688 8.28125 A 1.0001 1.0001 0 0 0 1.3027344 9.9863281 L 5.9257812 14.490234 L 4.8339844 20.851562 A 1.0001 1.0001 0 0 0 6.2851562 21.904297 L 12 18.900391 L 17.714844 21.904297 A 1.0001 1.0001 0 0 0 19.166016 20.851562 L 18.074219 14.490234 L 22.697266 9.9863281 A 1.0001 1.0001 0 0 0 22.144531 8.28125 L 15.753906 7.3457031 L 12.896484 1.5566406 A 1.0001 1.0001 0 0 0 12 1 z M 12 4.2597656 L 14.193359 8.703125 A 1.0001 1.0001 0 0 0 14.945312 9.25 L 19.851562 9.9667969 L 16.302734 13.423828 A 1.0001 1.0001 0 0 0 16.013672 14.308594 L 16.851562 19.191406 L 12.464844 16.884766 A 1.0001 1.0001 0 0 0 11.535156 16.884766 L 7.1484375 19.191406 L 7.9863281 14.308594 A 1.0001 1.0001 0 0 0 7.6972656 13.423828 L 4.1484375 9.9667969 L 9.0546875 9.25 A 1.0001 1.0001 0 0 0 9.8066406 8.703125 L 12 4.2597656 z "
     stroke-width="0" />
</svg>
