<?xml version="1.0" encoding="UTF-8" standalone="no"?>
<svg
   width="24"
   height="24"
   viewBox="0 0 24 24"
   fill="none"
   stroke="currentColor"
   stroke-width="2"
   stroke-linecap="round"
   stroke-linejoin="round"
   version="1.1"
   id="svg1"
   xmlns="http://www.w3.org/2000/svg"
   xmlns:svg="http://www.w3.org/2000/svg">
  <defs
     id="defs1" />
  <path
     id="line1"
     style="color:#000000;fill:#000000;-inkscape-stroke:none"
     d="M 18 3 A 1 1 0 0 0 17 4 L 17 20 A 1 1 0 0 0 18 21 A 1 1 0 0 0 19 20 L 19 4 A 1 1 0 0 0 18 3 z M 14.074219 3.0039062 A 1.0001 1.0001 0 0 0 13.375 3.21875 L 3.375 11.21875 A 1.0001 1.0001 0 0 0 3.375 12.78125 L 13.375 20.78125 A 1.0001 1.0001 0 0 0 15 20 L 15 4 A 1.0001 1.0001 0 0 0 14.433594 3.0996094 A 1.0001 1.0001 0 0 0 14.074219 3.0039062 z M 13 6.0820312 L 13 17.917969 L 5.6015625 12 L 13 6.0820312 z "
     stroke-width="0" />
</svg>
