<?xml version="1.0" encoding="UTF-8" standalone="no"?>
<svg
   width="24"
   height="24"
   viewBox="0 0 24 24"
   fill="none"
   stroke="currentColor"
   stroke-width="2"
   stroke-linecap="round"
   stroke-linejoin="round"
   version="1.1"
   id="svg2"
   xmlns="http://www.w3.org/2000/svg"
   xmlns:svg="http://www.w3.org/2000/svg">
  <defs
     id="defs2" />
  <path
     id="path1"
     style="color:#000000;fill:#000000;-inkscape-stroke:none"
     d="M 5.0820312 0.97070312 C 4.9966284 0.97019958 4.9255515 0.98418285 4.859375 1 L 4 1 C 2.3549936 1 1 2.3549936 1 4 L 1 9 C 1 12.514352 3.6168014 15.439223 7 15.927734 L 7 16 C 7 19.854141 10.145859 23 14 23 C 17.854141 23 21 19.854141 21 16 L 21 12.826172 C 22.160387 12.410479 23 11.295356 23 10 C 23 8.3549936 21.645006 7 20 7 C 18.354994 7 17 8.3549936 17 10 C 17 11.295356 17.839613 12.410479 19 12.826172 L 19 16 C 19 18.773263 16.773263 21 14 21 C 11.226737 21 9 18.773263 9 16 L 9 15.927734 C 12.383199 15.439223 15 12.514352 15 9 L 15 4 C 15 2.3549936 13.645006 1 12 1 L 11 1 A 1.0001 1.0001 0 0 0 10.292969 1.2929688 C 10.066192 1.5197451 9.9162227 1.8902396 9.9355469 2.21875 C 9.9548709 2.5472604 10.098334 2.8131781 10.292969 3.0078125 C 10.487603 3.2024469 10.753522 3.343957 11.082031 3.3632812 C 11.410542 3.3826052 11.781036 3.2345888 12.007812 3.0078125 A 1 1 0 0 0 12.009766 3.0039062 C 12.568221 3.0098281 13 3.4397374 13 4 L 13 9 C 13 11.773263 10.773263 14 8 14 C 5.2267372 14 3 11.773263 3 9 L 3 4 C 3 3.4358718 3.4358718 3 4 3 L 4.0546875 3 C 4.0805055 3.035605 4.0565778 3.0526108 4.0898438 3.0898438 C 4.361333 3.3937206 4.9369253 3.4785632 5.2070312 3.3945312 C 5.7472432 3.2264673 5.7942082 3.0186485 5.9199219 2.8300781 C 6.0456354 2.6415077 6.2206068 2.5164221 6.1679688 1.953125 C 6.1416498 1.6714765 5.8399987 1.1747446 5.4550781 1.0410156 C 5.3107329 0.9908673 5.1883777 0.97133015 5.0820312 0.97070312 z M 11.115234 1.3671875 C 11.143765 1.3651051 11.171436 1.3655532 11.199219 1.3671875 C 11.42148 1.3802615 11.587397 1.4741154 11.707031 1.59375 A 1 1 0 0 0 10.59375 1.59375 C 10.70468 1.4828205 10.915521 1.3817642 11.115234 1.3671875 z M 5.1035156 1.6230469 C 5.2878774 1.6672028 5.4670773 1.629147 5.5820312 1.7578125 C 5.8147927 2.0183424 5.7957825 2.1904412 5.7988281 2.2441406 A 1 1 0 0 0 5.1035156 1.6230469 z M 20 9 C 20.564128 9 21 9.4358718 21 10 C 21 10.564128 20.564128 11 20 11 C 19.435872 11 19 10.564128 19 10 C 19 9.4358718 19.435872 9 20 9 z "
     stroke-width="0" />
</svg>
