<?xml version="1.0" encoding="UTF-8" standalone="no"?>
<svg
   width="24"
   height="24"
   viewBox="0 0 24 24"
   fill="none"
   stroke="currentColor"
   stroke-width="2"
   stroke-linecap="round"
   stroke-linejoin="round"
   version="1.1"
   id="svg2"
   xmlns="http://www.w3.org/2000/svg"
   xmlns:svg="http://www.w3.org/2000/svg">
  <defs
     id="defs2" />
  <path
     id="path1"
     style="color:#000000;fill:#000000;-inkscape-stroke:none"
     d="M 5 2 C 3.3549936 2 2 3.3549936 2 5 L 2 19 C 2 20.645451 3.3545487 22 5 22 L 19 22 C 20.645006 22 22 20.645006 22 19 L 22 9 L 22 8.5 A 1.0001 1.0001 0 0 0 21.707031 7.7929688 L 16.207031 2.2929688 A 1.0001 1.0001 0 0 0 15.5 2 L 15 2 L 5 2 z M 5 4 L 14 4 L 14 9 A 1.0001 1.0001 0 0 0 15 10 L 20 10 L 20 19 C 20 19.564128 19.564128 20 19 20 L 5 20 C 4.4454557 20 4 19.554544 4 19 L 4 5 C 4 4.4358718 4.4358718 4 5 4 z M 16 4.9140625 L 19.085938 8 L 16 8 L 16 4.9140625 z "
     stroke-width="0" />
</svg>
