<?xml version="1.0" encoding="UTF-8" standalone="no"?>
<svg
   width="24"
   height="24"
   viewBox="0 0 24 24"
   fill="none"
   stroke="currentColor"
   stroke-width="2"
   stroke-linecap="round"
   stroke-linejoin="round"
   version="1.1"
   id="svg2"
   xmlns="http://www.w3.org/2000/svg"
   xmlns:svg="http://www.w3.org/2000/svg">
  <defs
     id="defs2" />
  <path
     id="rect1"
     style="color:#000000;fill:#000000;-inkscape-stroke:none"
     d="M 4 3 C 2.3553005 3 1 4.3553005 1 6 L 1 8 C 1 9.6446995 2.3553005 11 4 11 L 20 11 C 21.644699 11 23 9.6446995 23 8 L 23 6 C 23 4.3553005 21.644699 3 20 3 L 4 3 z M 4 5 L 20 5 C 20.571296 5 21 5.4287039 21 6 L 21 8 C 21 8.5712961 20.571296 9 20 9 L 4 9 C 3.4287039 9 3 8.5712961 3 8 L 3 6 C 3 5.4287039 3.4287039 5 4 5 z M 4 13 C 2.3553005 13 1 14.355301 1 16 L 1 18 C 1 19.644699 2.3553005 21 4 21 L 20 21 C 21.644699 21 23 19.644699 23 18 L 23 16 C 23 14.355301 21.644699 13 20 13 L 4 13 z M 4 15 L 20 15 C 20.571296 15 21 15.428704 21 16 L 21 18 C 21 18.571296 20.571296 19 20 19 L 4 19 C 3.4287039 19 3 18.571296 3 18 L 3 16 C 3 15.428704 3.4287039 15 4 15 z "
     stroke-width="0" />
</svg>
