<?xml version="1.0" encoding="UTF-8" standalone="no"?>
<svg
   width="24"
   height="24"
   viewBox="0 0 24 24"
   fill="none"
   stroke="currentColor"
   stroke-width="2"
   stroke-linecap="round"
   stroke-linejoin="round"
   version="1.1"
   id="svg2"
   xmlns="http://www.w3.org/2000/svg"
   xmlns:svg="http://www.w3.org/2000/svg">
  <defs
     id="defs2" />
  <path
     id="rect1"
     style="color:#000000;fill:#000000;-inkscape-stroke:none"
     d="M 6 1 C 4.3553005 1 3 2.3553005 3 4 L 3 20 C 3 21.644699 4.3553005 23 6 23 L 8 23 C 9.6446995 23 11 21.644699 11 20 L 11 4 C 11 2.3553005 9.6446995 1 8 1 L 6 1 z M 16 1 C 14.355301 1 13 2.3553005 13 4 L 13 20 C 13 21.644699 14.355301 23 16 23 L 18 23 C 19.644699 23 21 21.644699 21 20 L 21 4 C 21 2.3553005 19.644699 1 18 1 L 16 1 z M 6 3 L 8 3 C 8.5712961 3 9 3.4287039 9 4 L 9 20 C 9 20.571296 8.5712961 21 8 21 L 6 21 C 5.4287039 21 5 20.571296 5 20 L 5 4 C 5 3.4287039 5.4287039 3 6 3 z M 16 3 L 18 3 C 18.571296 3 19 3.4287039 19 4 L 19 20 C 19 20.571296 18.571296 21 18 21 L 16 21 C 15.428704 21 15 20.571296 15 20 L 15 4 C 15 3.4287039 15.428704 3 16 3 z "
     stroke-width="0" />
</svg>
