<?xml version="1.0" encoding="UTF-8" standalone="no"?>
<svg xmlns="http://www.w3.org/2000/svg" xmlns:svg="http://www.w3.org/2000/svg" width="24" height="24" viewBox="0 0 24 24" fill="currentColor" tags="cross out,delete,remove,format" categories="text">
  
  <path d="M 9 3 C 6.2692461 2.9985682 4.3163107 5.7594046 5.2265625 8.3339844 A 1 1 0 0 0 6.5039062 8.9433594 A 1 1 0 0 0 7.1132812 7.6660156 C 6.6427236 6.3350783 7.5883279 4.9992598 9 5 L 16 5 A 1 1 0 0 0 17 4 A 1 1 0 0 0 16 3 L 9 3 z M 4 11 A 1 1 0 0 0 3 12 A 1 1 0 0 0 4 13 L 14 13 C 15.083331 13 15.768561 13.370245 16.251953 13.914062 C 16.735346 14.457879 17 15.222224 17 16 C 17 16.777776 16.735346 17.542121 16.251953 18.085938 C 15.768561 18.629755 15.083331 19 14 19 L 6 19 A 1 1 0 0 0 5 20 A 1 1 0 0 0 6 21 L 14 21 C 15.583329 21 16.89811 20.370243 17.748047 19.414062 C 18.597984 18.457883 19 17.22222 19 16 C 19 14.947412 18.699876 13.885423 18.074219 13 L 20 13 A 1 1 0 0 0 21 12 A 1 1 0 0 0 20 11 L 14 11 L 4 11 z "/>
</svg>
