<?xml version="1.0" encoding="UTF-8" standalone="no"?>
<svg xmlns="http://www.w3.org/2000/svg" xmlns:svg="http://www.w3.org/2000/svg" width="24" height="24" viewBox="0 0 24 24" fill="currentColor" tags="text" categories="text">
  
  <path d="M 4 4 A 1 1 0 0 0 3.2929688 4.2929688 A 1 1 0 0 0 3.2929688 5.7070312 L 6.5859375 9 L 3.2929688 12.292969 A 1 1 0 0 0 3.2929688 13.707031 A 1 1 0 0 0 4.7070312 13.707031 L 8 10.414062 L 11.292969 13.707031 A 1 1 0 0 0 12.707031 13.707031 A 1 1 0 0 0 12.707031 12.292969 L 9.4140625 9 L 12.707031 5.7070312 A 1 1 0 0 0 12.707031 4.2929688 A 1 1 0 0 0 12 4 A 1 1 0 0 0 11.292969 4.2929688 L 8 7.5859375 L 4.7070312 4.2929688 A 1 1 0 0 0 4 4 z M 17.933594 11 C 17.411378 10.999941 16.88585 11.130299 16.408203 11.400391 A 1.0001 1.0001 0 0 0 16.404297 11.402344 C 15.779481 11.75938 15.300057 12.326744 15.058594 13.005859 A 1 1 0 0 0 15.664062 14.28125 A 1 1 0 0 0 16.941406 13.675781 C 17.019636 13.455762 17.180618 13.26365 17.394531 13.140625 C 17.853563 12.88216 18.41279 12.975024 18.763672 13.367188 C 18.914927 13.544478 19 13.772597 19 14 C 19 14.304097 18.87931 14.493355 18.521484 14.78125 C 18.16366 15.069145 17.606368 15.344689 17.074219 15.595703 C 16.476181 15.877797 15.901389 16.232469 15.513672 16.832031 C 15.125954 17.431595 15 18.152224 15 19 A 1.0001 1.0001 0 0 0 16 20 L 20 20 A 1 1 0 0 0 21 19 A 1 1 0 0 0 20 18 L 17.177734 18 C 17.185034 17.98703 17.184036 17.929349 17.191406 17.917969 C 17.288686 17.767533 17.463821 17.622203 17.925781 17.404297 C 18.45363 17.155312 19.146265 16.844447 19.773438 16.339844 C 20.400613 15.835239 21 15.0259 21 14 C 21 13.288867 20.744233 12.598835 20.277344 12.056641 A 1.0001 1.0001 0 0 0 20.269531 12.048828 C 19.785232 11.500464 19.138259 11.15803 18.453125 11.042969 C 18.281841 11.014204 18.107666 11.00002 17.933594 11 z "/>
</svg>
