<?xml version="1.0" encoding="UTF-8" standalone="no"?>
<svg
   width="24"
   height="24"
   viewBox="0 0 24 24"
   fill="none"
   stroke="currentColor"
   stroke-width="2"
   stroke-linecap="round"
   stroke-linejoin="round"
   version="1.1"
   id="svg5"
   xmlns="http://www.w3.org/2000/svg"
   xmlns:svg="http://www.w3.org/2000/svg">
  <defs
     id="defs5" />
  <path
     id="path1"
     style="color:#000000;fill:#000000;-inkscape-stroke:none"
     d="M 5 2 C 3.3549936 2 2 3.3549936 2 5 L 2 21 A 1.0001 1.0001 0 0 0 3.7070312 21.707031 L 7.4140625 18 L 19 18 C 20.645006 18 22 16.645006 22 15 L 22 5 C 22 3.3549936 20.645006 2 19 2 L 5 2 z M 5 4 L 19 4 C 19.564128 4 20 4.4358718 20 5 L 20 15 C 20 15.564128 19.564128 16 19 16 L 7 16 A 1.0001 1.0001 0 0 0 6.2929688 16.292969 L 4 18.585938 L 4 5 C 4 4.4358718 4.4358718 4 5 4 z M 7 8 A 1 1 0 0 0 6 9 A 1 1 0 0 0 7 10 L 9 10 A 1 1 0 0 0 10 9 A 1 1 0 0 0 9 8 L 7 8 z M 13 8 A 1 1 0 0 0 12 9 A 1 1 0 0 0 13 10 L 17 10 A 1 1 0 0 0 18 9 A 1 1 0 0 0 17 8 L 13 8 z M 7 12 A 1 1 0 0 0 6 13 A 1 1 0 0 0 7 14 L 11 14 A 1 1 0 0 0 12 13 A 1 1 0 0 0 11 12 L 7 12 z M 15 12 A 1 1 0 0 0 14 13 A 1 1 0 0 0 15 14 L 17 14 A 1 1 0 0 0 18 13 A 1 1 0 0 0 17 12 L 15 12 z "
     stroke-width="0" />
</svg>
