<?xml version="1.0" encoding="UTF-8" standalone="no"?>
<svg
   width="24"
   height="24"
   viewBox="0 0 24 24"
   fill="none"
   stroke="currentColor"
   stroke-width="2"
   stroke-linecap="round"
   stroke-linejoin="round"
   version="1.1"
   id="svg11"
   xmlns="http://www.w3.org/2000/svg"
   xmlns:svg="http://www.w3.org/2000/svg">
  <defs
     id="defs11" />
  <path
     id="path1"
     style="color:#000000;fill:#000000;-inkscape-stroke:none"
     d="M 10 2 A 1 1 0 0 0 9 3 L 9 4 A 1 1 0 0 0 10 5 A 1 1 0 0 0 11 4 L 11 3 A 1 1 0 0 0 10 2 z M 14 2 A 1 1 0 0 0 13 3 L 13 21 A 1 1 0 0 0 14 22 A 1 1 0 0 0 15 21 L 15 19.414062 L 16.292969 20.707031 A 1 1 0 0 0 17.707031 20.707031 A 1 1 0 0 0 17.707031 19.292969 L 15 16.585938 L 15 13 L 17.585938 13 L 20.292969 15.707031 A 1 1 0 0 0 21.707031 15.707031 A 1 1 0 0 0 21.707031 14.292969 L 20.414062 13 L 22 13 A 1 1 0 0 0 23 12 A 1 1 0 0 0 22 11 L 20.414062 11 L 21.707031 9.7070312 A 1 1 0 0 0 21.707031 8.2929688 A 1 1 0 0 0 20.292969 8.2929688 L 17.585938 11 L 15 11 L 15 7.4140625 L 17.707031 4.7070312 A 1 1 0 0 0 17.707031 3.2929688 A 1 1 0 0 0 16.292969 3.2929688 L 15 4.5859375 L 15 3 A 1 1 0 0 0 14 2 z M 3.5527344 4.6445312 A 1 1 0 0 0 2.9335938 4.9335938 A 1 1 0 0 0 2.9335938 6.3476562 L 3.6328125 7.046875 A 1 1 0 0 0 5.046875 7.046875 A 1 1 0 0 0 5.046875 5.6328125 L 4.3476562 4.9335938 A 1 1 0 0 0 3.5527344 4.6445312 z M 10 8 C 8.7500028 8 7.6852243 8.5047572 7.0019531 9.2734375 C 6.318682 10.042118 6 11.02778 6 12 C 6 12.97222 6.318682 13.957881 7.0019531 14.726562 C 7.6852243 15.495243 8.7500028 16 10 16 A 1 1 0 0 0 11 15 A 1 1 0 0 0 10 14 C 9.250002 14 8.8147733 13.754754 8.4980469 13.398438 C 8.1813204 13.04212 8 12.527776 8 12 C 8 11.472224 8.1813204 10.957879 8.4980469 10.601562 C 8.8147733 10.245245 9.250002 10 10 10 A 1 1 0 0 0 11 9 A 1 1 0 0 0 10 8 z M 2 11 A 1 1 0 0 0 1 12 A 1 1 0 0 0 2 13 L 3 13 A 1 1 0 0 0 4 12 A 1 1 0 0 0 3 11 L 2 11 z M 4.3398438 16.660156 A 1 1 0 0 0 3.6328125 16.953125 L 2.9335938 17.652344 A 1 1 0 0 0 2.9335938 19.066406 A 1 1 0 0 0 4.3476562 19.066406 L 5.046875 18.367188 A 1 1 0 0 0 5.046875 16.953125 A 1 1 0 0 0 4.3398438 16.660156 z M 10 19 A 1 1 0 0 0 9 20 L 9 21 A 1 1 0 0 0 10 22 A 1 1 0 0 0 11 21 L 11 20 A 1 1 0 0 0 10 19 z "
     stroke-width="0" />
</svg>
