<?xml version="1.0" encoding="UTF-8" standalone="no"?>
<svg xmlns="http://www.w3.org/2000/svg" xmlns:svg="http://www.w3.org/2000/svg" width="24" height="24" viewBox="0 0 24 24" fill="currentColor" tags="brightness,dim,low,brightness low" categories="accessibility,weather">
  
  <path d="M 12 3 A 1 1 0 0 0 11 4 A 1 1 0 0 0 12 5 L 12.009766 5 A 1 1 0 0 0 13.009766 4 A 1 1 0 0 0 12.009766 3 L 12 3 z M 6.34375 5.34375 A 1 1 0 0 0 5.34375 6.34375 A 1 1 0 0 0 6.34375 7.34375 L 6.3535156 7.34375 A 1 1 0 0 0 7.3535156 6.34375 A 1 1 0 0 0 6.3535156 5.34375 L 6.34375 5.34375 z M 17.65625 5.34375 A 1 1 0 0 0 16.65625 6.34375 A 1 1 0 0 0 17.65625 7.34375 L 17.667969 7.34375 A 1 1 0 0 0 18.667969 6.34375 A 1 1 0 0 0 17.667969 5.34375 L 17.65625 5.34375 z M 12 7 C 9.2504263 7 7 9.2504263 7 12 C 7 14.749573 9.2504263 17 12 17 C 14.749573 17 17 14.749573 17 12 C 17 9.2504263 14.749573 7 12 7 z M 12 9 C 13.668695 9 15 10.331305 15 12 C 15 13.668695 13.668695 15 12 15 C 10.331305 15 9 13.668695 9 12 C 9 10.331305 10.331305 9 12 9 z M 4 11 A 1 1 0 0 0 3 12 A 1 1 0 0 0 4 13 L 4.0097656 13 A 1 1 0 0 0 5.0097656 12 A 1 1 0 0 0 4.0097656 11 L 4 11 z M 20 11 A 1 1 0 0 0 19 12 A 1 1 0 0 0 20 13 L 20.009766 13 A 1 1 0 0 0 21.009766 12 A 1 1 0 0 0 20.009766 11 L 20 11 z M 6.34375 16.65625 A 1 1 0 0 0 5.34375 17.65625 A 1 1 0 0 0 6.34375 18.65625 L 6.3535156 18.65625 A 1 1 0 0 0 7.3535156 17.65625 A 1 1 0 0 0 6.3535156 16.65625 L 6.34375 16.65625 z M 17.65625 16.65625 A 1 1 0 0 0 16.65625 17.65625 A 1 1 0 0 0 17.65625 18.65625 L 17.667969 18.65625 A 1 1 0 0 0 18.667969 17.65625 A 1 1 0 0 0 17.667969 16.65625 L 17.65625 16.65625 z M 12 19 A 1 1 0 0 0 11 20 A 1 1 0 0 0 12 21 L 12.009766 21 A 1 1 0 0 0 13.009766 20 A 1 1 0 0 0 12.009766 19 L 12 19 z "/>
</svg>
