<?xml version="1.0" encoding="UTF-8" standalone="no"?>
<svg
   width="24"
   height="24"
   viewBox="0 0 24 24"
   fill="none"
   stroke="currentColor"
   stroke-width="2"
   stroke-linecap="round"
   stroke-linejoin="round"
   version="1.1"
   id="svg8"
   xmlns="http://www.w3.org/2000/svg"
   xmlns:svg="http://www.w3.org/2000/svg">
  <defs
     id="defs8" />
  <path
     id="circle1"
     style="color:#000000;fill:#000000;-inkscape-stroke:none"
     d="M 12 1 A 1 1 0 0 0 11 2 L 11 4 A 1 1 0 0 0 12 5 A 1 1 0 0 0 13 4 L 13 2 A 1 1 0 0 0 12 1 z M 4.9296875 3.9296875 A 1 1 0 0 0 4.2226562 4.2226562 A 1 1 0 0 0 4.2226562 5.6367188 L 5.6328125 7.046875 A 1 1 0 0 0 7.046875 7.046875 A 1 1 0 0 0 7.046875 5.6328125 L 5.6367188 4.2226562 A 1 1 0 0 0 4.9296875 3.9296875 z M 19.070312 3.9296875 A 1 1 0 0 0 18.363281 4.2226562 L 16.953125 5.6328125 A 1 1 0 0 0 16.953125 7.046875 A 1 1 0 0 0 18.367188 7.046875 L 19.777344 5.6367188 A 1 1 0 0 0 19.777344 4.2226562 A 1 1 0 0 0 19.070312 3.9296875 z M 12 7 C 9.2504263 7 7 9.2504263 7 12 C 7 14.749573 9.2504263 17 12 17 C 14.749573 17 17 14.749573 17 12 C 17 9.2504263 14.749573 7 12 7 z M 12 9 C 13.668695 9 15 10.331305 15 12 C 15 13.668695 13.668695 15 12 15 C 10.331305 15 9 13.668695 9 12 C 9 10.331305 10.331305 9 12 9 z M 2 11 A 1 1 0 0 0 1 12 A 1 1 0 0 0 2 13 L 4 13 A 1 1 0 0 0 5 12 A 1 1 0 0 0 4 11 L 2 11 z M 20 11 A 1 1 0 0 0 19 12 A 1 1 0 0 0 20 13 L 22 13 A 1 1 0 0 0 23 12 A 1 1 0 0 0 22 11 L 20 11 z M 6.3398438 16.660156 A 1 1 0 0 0 5.6328125 16.953125 L 4.2226562 18.363281 A 1 1 0 0 0 4.2226562 19.777344 A 1 1 0 0 0 5.6367188 19.777344 L 7.046875 18.367188 A 1 1 0 0 0 7.046875 16.953125 A 1 1 0 0 0 6.3398438 16.660156 z M 17.660156 16.660156 A 1 1 0 0 0 16.953125 16.953125 A 1 1 0 0 0 16.953125 18.367188 L 18.363281 19.777344 A 1 1 0 0 0 19.777344 19.777344 A 1 1 0 0 0 19.777344 18.363281 L 18.367188 16.953125 A 1 1 0 0 0 17.660156 16.660156 z M 12 19 A 1 1 0 0 0 11 20 L 11 22 A 1 1 0 0 0 12 23 A 1 1 0 0 0 13 22 L 13 20 A 1 1 0 0 0 12 19 z "
     stroke-width="0" />
</svg>
