<?xml version="1.0" encoding="UTF-8" standalone="no"?>
<svg
   width="24"
   height="24"
   viewBox="0 0 24 24"
   fill="none"
   stroke="currentColor"
   stroke-width="2"
   stroke-linecap="round"
   stroke-linejoin="round"
   version="1.1"
   id="svg1"
   xmlns="http://www.w3.org/2000/svg"
   xmlns:svg="http://www.w3.org/2000/svg">
  <defs
     id="defs1" />
  <path
     id="path1"
     style="color:#000000;fill:#000000;-inkscape-stroke:none"
     d="M 5 2 C 3.3549936 2 2 3.3549936 2 5 L 2 9 L 2 19 C 2 20.645006 3.3549936 22 5 22 L 9 22 L 19 22 C 20.645006 22 22 20.645006 22 19 L 22 9 L 22 5 C 22 3.3549936 20.645006 2 19 2 L 9 2 L 5 2 z M 5 4 L 8 4 L 8 8 L 4 8 L 4 5 C 4 4.4358718 4.4358718 4 5 4 z M 10 4 L 19 4 C 19.564128 4 20 4.4358718 20 5 L 20 8 L 10 8 L 10 4 z M 4 10 L 8 10 L 8 20 L 5 20 C 4.4358718 20 4 19.564128 4 19 L 4 10 z M 10 10 L 20 10 L 20 19 C 20 19.564128 19.564128 20 19 20 L 10 20 L 10 10 z "
     stroke-width="0" />
</svg>
