<?xml version="1.0" encoding="UTF-8" standalone="no"?>
<svg xmlns="http://www.w3.org/2000/svg" xmlns:svg="http://www.w3.org/2000/svg" width="24" height="24" viewBox="0 0 24 24" fill="currentColor" tags="count,score,enumerate,days,two,2,second,double,bars,prison,cell,sentence" categories="maths,gaming">
  
  <path d="M 4 3 A 1 1 0 0 0 3 4 L 3 20 A 1 1 0 0 0 4 21 A 1 1 0 0 0 5 20 L 5 4 A 1 1 0 0 0 4 3 z M 9 3 A 1 1 0 0 0 8 4 L 8 20 A 1 1 0 0 0 9 21 A 1 1 0 0 0 10 20 L 10 4 A 1 1 0 0 0 9 3 z "/>
</svg>
