<?xml version="1.0" encoding="UTF-8" standalone="no"?>
<svg xmlns="http://www.w3.org/2000/svg" xmlns:svg="http://www.w3.org/2000/svg" width="24" height="24" viewBox="0 0 24 24" fill="currentColor" tags="count,score,enumerate,days,five,5,fifth,bars,prison,cell,sentence,slash,/" categories="maths,gaming">
  
  <path d="M 4 3 A 1 1 0 0 0 3 4 L 3 16.234375 L 1.4863281 17.142578 A 1 1 0 0 0 1.1425781 18.513672 A 1 1 0 0 0 2.5136719 18.857422 L 3 18.566406 L 3 20 A 1 1 0 0 0 4 21 A 1 1 0 0 0 5 20 L 5 17.365234 L 8 15.566406 L 8 20 A 1 1 0 0 0 9 21 A 1 1 0 0 0 10 20 L 10 14.365234 L 13 12.566406 L 13 20 A 1 1 0 0 0 14 21 A 1 1 0 0 0 15 20 L 15 11.365234 L 18 9.5664062 L 18 20 A 1 1 0 0 0 19 21 A 1 1 0 0 0 20 20 L 20 8.3652344 L 22.513672 6.8574219 A 1 1 0 0 0 22.857422 5.4863281 A 1 1 0 0 0 21.486328 5.1425781 L 20 6.0351562 L 20 4 A 1 1 0 0 0 19 3 A 1 1 0 0 0 18 4 L 18 7.234375 L 15 9.0351562 L 15 4 A 1 1 0 0 0 14 3 A 1 1 0 0 0 13 4 L 13 10.234375 L 10 12.035156 L 10 4 A 1 1 0 0 0 9 3 A 1 1 0 0 0 8 4 L 8 13.234375 L 5 15.035156 L 5 4 A 1 1 0 0 0 4 3 z "/>
</svg>
