<?xml version="1.0" encoding="UTF-8" standalone="no"?>
<svg xmlns="http://www.w3.org/2000/svg" xmlns:svg="http://www.w3.org/2000/svg" width="24" height="24" viewBox="0 0 24 24" fill="currentColor" tags="tangential,shape,circle,geometry,trigonometry,bezier curve" categories="shapes,maths,design,tools">
  
  <path d="M 17 1 C 15.354994 1 14 2.3549936 14 4 C 14 4.460495 14.107873 4.897383 14.296875 5.2890625 L 9.7929688 9.7929688 L 5.2890625 14.296875 C 4.897383 14.107873 4.460495 14 4 14 C 2.3549936 14 1 15.354994 1 17 C 1 18.645006 2.3549936 20 4 20 C 5.6450064 20 7 18.645006 7 17 C 7 16.539505 6.892127 16.102617 6.703125 15.710938 L 8.6953125 13.71875 C 8.7585998 14.945442 9.0203334 16.234523 9.3457031 17.447266 C 10.058127 20.102664 11.085937 22.40625 11.085938 22.40625 A 1 1 0 0 0 12.40625 22.914062 A 1 1 0 0 0 12.914062 21.59375 C 12.914062 21.59375 11.94187 19.397326 11.279297 16.927734 C 10.94801 15.69294 10.700512 14.394136 10.679688 13.332031 C 10.658858 12.269926 10.888446 11.525618 11.207031 11.207031 C 11.525618 10.888446 12.269926 10.658862 13.332031 10.679688 C 14.394136 10.700517 15.69294 10.94801 16.927734 11.279297 C 19.397326 11.94187 21.59375 12.914062 21.59375 12.914062 A 1 1 0 0 0 22.914062 12.40625 A 1 1 0 0 0 22.40625 11.085938 C 22.40625 11.085938 20.102664 10.058127 17.447266 9.3457031 C 16.234523 9.0203334 14.945442 8.7586 13.71875 8.6953125 L 15.710938 6.703125 C 16.102617 6.892127 16.539505 7 17 7 C 18.645006 7 20 5.6450064 20 4 C 20 2.3549936 18.645006 1 17 1 z M 17 3 C 17.564128 3 18 3.4358718 18 4 C 18 4.5641282 17.564128 5 17 5 C 16.755806 5 16.536413 4.9176899 16.365234 4.7792969 A 1 1 0 0 0 16.296875 4.703125 A 1 1 0 0 0 16.251953 4.671875 C 16.094572 4.4959869 16 4.2621511 16 4 C 16 3.4358718 16.435872 3 17 3 z M 4 16 C 4.2621511 16 4.4959869 16.094572 4.671875 16.251953 A 1 1 0 0 0 4.703125 16.296875 A 1 1 0 0 0 4.7480469 16.328125 C 4.9054278 16.504013 5 16.737849 5 17 C 5 17.564128 4.5641282 18 4 18 C 3.4358718 18 3 17.564128 3 17 C 3 16.435872 3.4358718 16 4 16 z "/>
</svg>
