<?xml version="1.0" encoding="UTF-8" standalone="no"?>
<svg
   width="24"
   height="24"
   viewBox="0 0 24 24"
   fill="none"
   stroke="currentColor"
   stroke-width="2"
   stroke-linecap="round"
   stroke-linejoin="round"
   version="1.1"
   id="svg3"
   xmlns="http://www.w3.org/2000/svg"
   xmlns:svg="http://www.w3.org/2000/svg">
  <defs
     id="defs3" />
  <path
     id="circle1"
     style="color:#000000;fill:#000000;-inkscape-stroke:none"
     d="M 12 1 C 5.9367246 1 1 5.9367246 1 12 C 1 18.063276 5.9367246 23 12 23 C 18.063276 23 23 18.063276 23 12 C 23 5.9367246 18.063276 1 12 1 z M 12 3 C 16.982397 3 21 7.0176026 21 12 C 21 16.982397 16.982397 21 12 21 C 7.0176026 21 3 16.982397 3 12 C 3 7.0176026 7.0176026 3 12 3 z M 12 5 C 8.1458591 5 5 8.1458591 5 12 C 5 15.854141 8.1458591 19 12 19 C 15.854141 19 19 15.854141 19 12 C 19 8.1458591 15.854141 5 12 5 z M 12 7 C 14.773263 7 17 9.2267372 17 12 C 17 14.773263 14.773263 17 12 17 C 9.2267372 17 7 14.773263 7 12 C 7 9.2267372 9.2267372 7 12 7 z M 12 9 C 10.354994 9 9 10.354994 9 12 C 9 13.645006 10.354994 15 12 15 C 13.645006 15 15 13.645006 15 12 C 15 10.354994 13.645006 9 12 9 z M 12 11 C 12.564128 11 13 11.435872 13 12 C 13 12.564128 12.564128 13 12 13 C 11.435872 13 11 12.564128 11 12 C 11 11.435872 11.435872 11 12 11 z "
     stroke-width="0" />
</svg>
