<?xml version="1.0" encoding="UTF-8" standalone="no"?>
<svg
   width="24"
   height="24"
   viewBox="0 0 24 24"
   fill="none"
   stroke="currentColor"
   stroke-width="2"
   stroke-linecap="round"
   stroke-linejoin="round"
   version="1.1"
   id="svg6"
   xmlns="http://www.w3.org/2000/svg"
   xmlns:svg="http://www.w3.org/2000/svg">
  <defs
     id="defs6" />
  <path
     id="circle1"
     style="color:#000000;fill:#000000;-inkscape-stroke:none"
     d="M 4 1 C 2.3549936 1 1 2.3549936 1 4 C 1 5.6450064 2.3549936 7 4 7 C 5.6450064 7 7 5.6450064 7 4 C 7 2.3549936 5.6450064 1 4 1 z M 17 1 A 1.0001 1.0001 0 0 0 16.720703 1.0449219 A 1 1 0 0 0 16.619141 1.0859375 A 1.0001 1.0001 0 0 0 16.453125 1.1699219 A 1 1 0 0 0 16.367188 1.2363281 A 1.0001 1.0001 0 0 0 16.292969 1.2929688 L 13.292969 4.2929688 A 1 1 0 0 0 13.292969 5.7070312 A 1 1 0 0 0 14.707031 5.7070312 L 16 4.4140625 L 16 6.5859375 L 13.292969 9.2929688 A 1 1 0 0 0 13.292969 10.707031 A 1 1 0 0 0 14.707031 10.707031 L 16 9.4140625 L 16 13 L 8.9648438 13 L 7 13 A 1.0001 1.0001 0 0 0 6.1523438 13.470703 L 1.1523438 21.470703 A 1.0001 1.0001 0 0 0 2 23 L 22 23 A 1.0001 1.0001 0 0 0 22.847656 21.470703 L 18 13.714844 L 18 9.4140625 L 19.292969 10.707031 A 1 1 0 0 0 20.707031 10.707031 A 1 1 0 0 0 20.707031 9.2929688 L 18 6.5859375 L 18 4.4140625 L 19.292969 5.7070312 A 1 1 0 0 0 20.707031 5.7070312 A 1 1 0 0 0 20.707031 4.2929688 L 17.707031 1.2929688 A 1 1 0 0 0 17.5 1.1347656 A 1.0001 1.0001 0 0 0 17.494141 1.1328125 A 1 1 0 0 0 17.257812 1.0351562 A 1.0001 1.0001 0 0 0 17.253906 1.0351562 A 1 1 0 0 0 17 1 z M 4 3 C 4.5641282 3 5 3.4358718 5 4 C 5 4.5641282 4.5641282 5 4 5 C 3.4358718 5 3 4.5641282 3 4 C 3 3.4358718 3.4358718 3 4 3 z M 10.802734 15 L 16.447266 15 L 20.197266 21 L 14.552734 21 L 10.802734 15 z M 9 15.884766 L 12.197266 21 L 9 21 L 9 15.884766 z M 7 15.886719 L 7 21 L 3.8046875 21 L 7 15.886719 z "
     stroke-width="0" />
</svg>
