<?xml version="1.0" encoding="UTF-8" standalone="no"?>
<svg
   width="24"
   height="24"
   viewBox="0 0 24 24"
   fill="none"
   stroke="currentColor"
   stroke-width="2"
   stroke-linecap="round"
   stroke-linejoin="round"
   version="1.1"
   id="svg4"
   xmlns="http://www.w3.org/2000/svg"
   xmlns:svg="http://www.w3.org/2000/svg">
  <defs
     id="defs4" />
  <path
     id="path1"
     style="color:#000000;fill:#000000;-inkscape-stroke:none"
     d="M 3 5 A 1 1 0 0 0 2 6 A 1 1 0 0 0 3 7 L 17 7 A 1 1 0 0 0 18 6 A 1 1 0 0 0 17 5 L 3 5 z M 3 11 A 1 1 0 0 0 2 12 L 2 18 A 1 1 0 0 0 3 19 A 1 1 0 0 0 4 18 L 4 12 A 1 1 0 0 0 3 11 z M 8 11 A 1 1 0 0 0 7 12 A 1 1 0 0 0 8 13 L 21 13 A 1 1 0 0 0 22 12 A 1 1 0 0 0 21 11 L 8 11 z M 8 17 A 1 1 0 0 0 7 18 A 1 1 0 0 0 8 19 L 21 19 A 1 1 0 0 0 22 18 A 1 1 0 0 0 21 17 L 8 17 z "
     stroke-width="0" />
</svg>
