<?xml version="1.0" encoding="UTF-8" standalone="no"?>
<svg
   width="24"
   height="24"
   viewBox="0 0 24 24"
   fill="none"
   stroke="currentColor"
   stroke-width="2"
   stroke-linecap="round"
   stroke-linejoin="round"
   version="1.1"
   id="svg1"
   xmlns="http://www.w3.org/2000/svg"
   xmlns:svg="http://www.w3.org/2000/svg">
  <defs
     id="defs1" />
  <path
     id="path1"
     style="color:#000000;fill:#000000;-inkscape-stroke:none"
     d="M 12 1 C 11.27778 1 10.542118 1.2353482 9.9609375 1.7519531 C 9.3797568 2.268558 9 3.0833353 9 4 L 9 14.089844 C 7.2866665 15.399015 6.6853329 17.49169 7.1699219 19.298828 C 7.7040185 21.290591 9.5130249 23.003906 12 23.003906 C 14.486976 23.003906 16.295982 21.290591 16.830078 19.298828 C 17.314668 17.49169 16.713333 15.399015 15 14.089844 L 15 4 C 15 3.0833353 14.620243 2.268558 14.039062 1.7519531 C 13.457881 1.2353482 12.72222 1 12 1 z M 12 3 C 12.277778 3 12.54212 3.0979871 12.710938 3.2480469 C 12.879754 3.398107 13 3.5833345 13 4 L 13 14.539062 A 1.0001 1.0001 0 0 0 13.5 15.40625 C 14.89052 16.209067 15.227792 17.55106 14.898438 18.779297 C 14.569082 20.007534 13.604364 21.003906 12 21.003906 C 10.395636 21.003906 9.4309176 20.007534 9.1015625 18.779297 C 8.7722074 17.55106 9.1094804 16.209067 10.5 15.40625 A 1.0001 1.0001 0 0 0 11 14.539062 L 11 4 C 11 3.5833345 11.120245 3.398107 11.289062 3.2480469 C 11.457879 3.0979867 11.722222 3 12 3 z "
     stroke-width="0" />
</svg>
