<?xml version="1.0" encoding="UTF-8" standalone="no"?>
<svg
   width="24"
   height="24"
   viewBox="0 0 24 24"
   fill="none"
   stroke="currentColor"
   stroke-width="2"
   stroke-linecap="round"
   stroke-linejoin="round"
   version="1.1"
   id="svg6"
   xmlns="http://www.w3.org/2000/svg"
   xmlns:svg="http://www.w3.org/2000/svg">
  <defs
     id="defs6" />
  <path
     id="path1"
     style="color:#000000;fill:#000000;-inkscape-stroke:none"
     d="M 18 1 C 17.27778 1 16.542118 1.2353482 15.960938 1.7519531 C 15.379756 2.268558 15 3.0833353 15 4 L 15 14.089844 C 13.286667 15.399015 12.685332 17.49169 13.169922 19.298828 C 13.704018 21.290591 15.513024 23.003906 18 23.003906 C 20.486976 23.003906 22.295982 21.290591 22.830078 19.298828 C 23.314668 17.49169 22.713333 15.399015 21 14.089844 L 21 4 C 21 3.0833353 20.620244 2.268558 20.039062 1.7519531 C 19.457882 1.2353482 18.72222 1 18 1 z M 9 3 A 1 1 0 0 0 8 4 L 8 6.5859375 L 6.7070312 5.2929688 A 1 1 0 0 0 6 5 A 1 1 0 0 0 5.2929688 5.2929688 A 1 1 0 0 0 5.2929688 6.7070312 L 8 9.4140625 L 8 11 L 6.4140625 11 L 3.7070312 8.2929688 A 1 1 0 0 0 3 8 A 1 1 0 0 0 2.2929688 8.2929688 A 1 1 0 0 0 2.2929688 9.7070312 L 3.5859375 11 L 2 11 A 1 1 0 0 0 1 12 A 1 1 0 0 0 2 13 L 3.5859375 13 L 2.2929688 14.292969 A 1 1 0 0 0 2.2929688 15.707031 A 1 1 0 0 0 3.7070312 15.707031 L 6.4140625 13 L 8 13 L 8 14.585938 L 5.2929688 17.292969 A 1 1 0 0 0 5.2929688 18.707031 A 1 1 0 0 0 6.7070312 18.707031 L 8 17.414062 L 8 20 A 1 1 0 0 0 9 21 A 1 1 0 0 0 10 20 L 10 17.361328 A 1 1 0 0 0 11.207031 17.207031 A 1 1 0 0 0 11.207031 15.792969 L 10 14.585938 L 10 13 L 12 13 A 1 1 0 0 0 13 12 A 1 1 0 0 0 12 11 L 10 11 L 10 9.4140625 L 12.707031 6.7070312 A 1 1 0 0 0 12.707031 5.2929688 A 1 1 0 0 0 11.292969 5.2929688 L 10 6.5859375 L 10 4 A 1 1 0 0 0 9 3 z M 18 3 C 18.277778 3 18.542121 3.0979871 18.710938 3.2480469 C 18.879755 3.398107 19 3.5833345 19 4 L 19 14.539062 A 1.0001 1.0001 0 0 0 19.5 15.40625 C 20.89052 16.209067 21.227793 17.55106 20.898438 18.779297 C 20.569083 20.007534 19.604364 21.003906 18 21.003906 C 16.395636 21.003906 15.430917 20.007534 15.101562 18.779297 C 14.772207 17.55106 15.10948 16.209067 16.5 15.40625 A 1.0001 1.0001 0 0 0 17 14.539062 L 17 4 C 17 3.5833345 17.120246 3.398107 17.289062 3.2480469 C 17.45788 3.0979867 17.722222 3 18 3 z "
     stroke-width="0" />
</svg>
