<?xml version="1.0" encoding="UTF-8" standalone="no"?>
<svg
   width="24"
   height="24"
   viewBox="0 0 24 24"
   fill="none"
   stroke="currentColor"
   stroke-width="2"
   stroke-linecap="round"
   stroke-linejoin="round"
   version="1.1"
   id="svg2"
   xmlns="http://www.w3.org/2000/svg"
   xmlns:svg="http://www.w3.org/2000/svg">
  <defs
     id="defs2" />
  <path
     id="line1"
     style="color:#000000;fill:#000000;-inkscape-stroke:none"
     d="M 10 1 A 1 1 0 0 0 9 2 A 1 1 0 0 0 10 3 L 14 3 A 1 1 0 0 0 15 2 A 1 1 0 0 0 14 1 L 10 1 z M 12 5 C 7.0412918 5 3 9.0412918 3 14 C 3 18.958708 7.0412918 23 12 23 C 16.958708 23 21 18.958708 21 14 C 21 9.0412918 16.958708 5 12 5 z M 12 7 C 15.87783 7 19 10.12217 19 14 C 19 17.87783 15.87783 21 12 21 C 8.1221699 21 5 17.87783 5 14 C 5 10.12217 8.1221699 7 12 7 z M 15 10 A 1 1 0 0 0 14.292969 10.292969 L 11.292969 13.292969 A 1 1 0 0 0 11.292969 14.707031 A 1 1 0 0 0 12.707031 14.707031 L 15.707031 11.707031 A 1 1 0 0 0 15.707031 10.292969 A 1 1 0 0 0 15 10 z "
     stroke-width="0" />
</svg>
