<?xml version="1.0" encoding="UTF-8" standalone="no"?>
<svg
   width="24"
   height="24"
   viewBox="0 0 24 24"
   fill="none"
   stroke="currentColor"
   stroke-width="2"
   stroke-linecap="round"
   stroke-linejoin="round"
   version="1.1"
   id="svg4"
   xmlns="http://www.w3.org/2000/svg"
   xmlns:svg="http://www.w3.org/2000/svg">
  <defs
     id="defs4" />
  <path
     id="path1"
     style="color:#000000;fill:#000000;-inkscape-stroke:none"
     d="M 10 1 A 1 1 0 0 0 9 2 A 1 1 0 0 0 10 3 L 14 3 A 1 1 0 0 0 15 2 A 1 1 0 0 0 14 1 L 10 1 z M 12.001953 5 C 7.4501948 4.9673056 3.576734 8.3581975 3.0078125 12.875 A 1 1 0 0 0 3.875 13.992188 A 1 1 0 0 0 4.9921875 13.125 C 5.4366723 9.5961306 8.4355442 6.9721172 11.992188 7 A 1.0001 1.0001 0 0 0 11.998047 7 C 16.924163 7.00524 20.281185 11.871524 18.537109 16.478516 C 16.793586 21.084048 11.059949 22.506277 7.3652344 19.251953 L 7.3613281 19.25 L 5.9550781 18 L 9 18 A 1 1 0 0 0 10 17 A 1 1 0 0 0 9 16 L 4 16 A 1.0001 1.0001 0 0 0 3 17 L 3 22 A 1 1 0 0 0 4 23 A 1 1 0 0 0 5 22 L 5 19.828125 L 6.0351562 20.748047 A 1.0001 1.0001 0 0 0 6.0390625 20.75 C 10.733512 24.890065 18.192129 23.039328 20.408203 17.185547 C 22.623567 11.333643 18.263852 5.0107008 12.007812 5 L 12.001953 5 z M 12 9 A 1 1 0 0 0 11 10 L 11 14 A 1 1 0 0 0 12 15 A 1 1 0 0 0 13 14 L 13 10 A 1 1 0 0 0 12 9 z "
     stroke-width="0" />
</svg>
