<?xml version="1.0" encoding="UTF-8" standalone="no"?>
<svg
   width="24"
   height="24"
   viewBox="0 0 24 24"
   fill="none"
   stroke="currentColor"
   stroke-width="2"
   stroke-linecap="round"
   stroke-linejoin="round"
   version="1.1"
   id="svg1"
   xmlns="http://www.w3.org/2000/svg"
   xmlns:svg="http://www.w3.org/2000/svg">
  <defs
     id="defs1" />
  <path
     id="rect1"
     style="color:#000000;fill:#000000;-inkscape-stroke:none"
     d="M 8 5 C 4.139305 5 1 8.139305 1 12 C 1 15.860695 4.139305 19 8 19 L 16 19 C 19.860695 19 23 15.860695 23 12 C 23 8.139305 19.860695 5 16 5 L 8 5 z M 8 7 L 16 7 C 18.787291 7 21 9.2127084 21 12 C 21 14.787291 18.787291 17 16 17 L 8 17 C 5.2127084 17 3 14.787291 3 12 C 3 9.2127084 5.2127084 7 8 7 z M 16 9 C 14.354994 9 13 10.354994 13 12 C 13 13.645006 14.354994 15 16 15 C 17.645006 15 19 13.645006 19 12 C 19 10.354994 17.645006 9 16 9 z M 16 11 C 16.564128 11 17 11.435872 17 12 C 17 12.564128 16.564128 13 16 13 C 15.435872 13 15 12.564128 15 12 C 15 11.435872 15.435872 11 16 11 z "
     stroke-width="0" />
</svg>
