<?xml version="1.0" encoding="UTF-8" standalone="no"?>
<svg
   width="24"
   height="24"
   viewBox="0 0 24 24"
   fill="none"
   stroke="currentColor"
   stroke-width="2"
   stroke-linecap="round"
   stroke-linejoin="round"
   version="1.1"
   id="svg5"
   xmlns="http://www.w3.org/2000/svg"
   xmlns:svg="http://www.w3.org/2000/svg">
  <defs
     id="defs5" />
  <path
     id="path1"
     style="color:#000000;fill:#000000;-inkscape-stroke:none"
     d="M 3 3 A 1 1 0 0 0 2 4 A 1 1 0 0 0 3 5 L 21 5 A 1 1 0 0 0 22 4 A 1 1 0 0 0 21 3 L 3 3 z M 6 7 A 1 1 0 0 0 5 8 A 1 1 0 0 0 6 9 L 18 9 A 1 1 0 0 0 19 8 A 1 1 0 0 0 18 7 L 6 7 z M 9 11 A 1 1 0 0 0 8 12 A 1 1 0 0 0 9 13 L 19 13 A 1 1 0 0 0 20 12 A 1 1 0 0 0 19 11 L 9 11 z M 10 15 A 1 1 0 0 0 9 16 A 1 1 0 0 0 10 17 L 16 17 A 1 1 0 0 0 17 16 A 1 1 0 0 0 16 15 L 10 15 z M 9 19 A 1 1 0 0 0 8 20 A 1 1 0 0 0 9 21 L 11 21 A 1 1 0 0 0 12 20 A 1 1 0 0 0 11 19 L 9 19 z "
     stroke-width="0" />
</svg>
