<?xml version="1.0" encoding="UTF-8" standalone="no"?>
<svg
   width="24"
   height="24"
   viewBox="0 0 24 24"
   fill="none"
   stroke="currentColor"
   stroke-width="2"
   stroke-linecap="round"
   stroke-linejoin="round"
   version="1.1"
   id="svg2"
   xmlns="http://www.w3.org/2000/svg"
   xmlns:svg="http://www.w3.org/2000/svg">
  <defs
     id="defs2" />
  <path
     id="rect1"
     style="color:#000000;fill:#000000;-inkscape-stroke:none"
     d="M 4 3 C 2.3553005 3 1 4.3553005 1 6 L 1 18 C 1 19.644699 2.3553005 21 4 21 L 12 21 L 20 21 C 21.644699 21 23 19.644699 23 18 L 23 6 C 23 4.3553005 21.644699 3 20 3 L 4 3 z M 4 5 L 20 5 C 20.571296 5 21 5.4287039 21 6 L 21 13 L 12 13 L 3 13 L 3 6 C 3 5.4287039 3.4287039 5 4 5 z M 3 15 L 11 15 L 11 19 L 4 19 C 3.4287039 19 3 18.571296 3 18 L 3 15 z M 13 15 L 21 15 L 21 18 C 21 18.571296 20.571296 19 20 19 L 13 19 L 13 15 z "
     stroke-width="0" />
</svg>
