<?xml version="1.0" encoding="UTF-8" standalone="no"?>
<svg
   width="24"
   height="24"
   viewBox="0 0 24 24"
   fill="none"
   stroke="currentColor"
   stroke-width="2"
   stroke-linecap="round"
   stroke-linejoin="round"
   version="1.1"
   id="svg7"
   xmlns="http://www.w3.org/2000/svg"
   xmlns:svg="http://www.w3.org/2000/svg">
  <defs
     id="defs7" />
  <path
     id="path1"
     style="color:#000000;fill:#000000;-inkscape-stroke:none"
     d="M 11 1 A 1 1 0 0 0 10 2 A 1 1 0 0 0 11 3 L 11 5 L 4 5 A 1.0001 1.0001 0 0 0 3.0390625 6.2753906 L 4.8378906 12.546875 L 4.8378906 12.539062 C 5.0761487 13.388996 5.853693 13.988628 6.7363281 14 A 1.0001 1.0001 0 0 0 6.75 14 L 7 14 L 7 22 A 1 1 0 0 0 8 23 A 1 1 0 0 0 9 22 L 9 14 L 15 14 L 15 22 A 1 1 0 0 0 16 23 A 1 1 0 0 0 17 22 L 17 14 L 17.25 14 A 1.0001 1.0001 0 0 0 17.251953 14 C 18.141854 13.9975 18.933557 13.395917 19.173828 12.539062 A 1.0001 1.0001 0 0 0 19.171875 12.509766 L 20.960938 6.2753906 A 1.0001 1.0001 0 0 0 20 5 L 13 5 L 13 3 A 1 1 0 0 0 14 2 A 1 1 0 0 0 13 1 L 12 1 L 11 1 z M 5.328125 7 L 8.1328125 7 L 8.8476562 12 L 6.7636719 12 A 1.0001 1.0001 0 0 0 6.7617188 11.994141 L 5.328125 7 z M 10.152344 7 L 13.847656 7 L 13.132812 12 L 10.867188 12 L 10.152344 7 z M 15.867188 7 L 18.671875 7 L 17.238281 11.994141 A 1.0001 1.0001 0 0 0 17.240234 12 L 15.152344 12 L 15.867188 7 z "
     stroke-width="0" />
</svg>
