<?xml version="1.0" encoding="UTF-8" standalone="no"?>
<svg
   width="24"
   height="24"
   viewBox="0 0 24 24"
   fill="none"
   stroke="currentColor"
   stroke-width="2"
   stroke-linecap="round"
   stroke-linejoin="round"
   version="1.1"
   id="svg7"
   xmlns="http://www.w3.org/2000/svg"
   xmlns:svg="http://www.w3.org/2000/svg">
  <defs
     id="defs7" />
  <path
     id="path1"
     style="color:#000000;fill:#000000;-inkscape-stroke:none"
     d="M 3 3 A 1 1 0 0 0 2 4 A 1 1 0 0 0 3 5 L 3 10.537109 C 1.7743496 11.63738 1 13.231994 1 15 C 1 18.301858 3.6981427 21 7 21 C 8.7680058 21 10.36262 20.22565 11.462891 19 L 15.173828 19 C 15.589521 20.160387 16.704644 21 18 21 C 19.295356 21 20.410479 20.160387 20.826172 19 L 21 19 A 1.0001 1.0001 0 0 0 21.988281 18.158203 L 22.787109 13.164062 L 22.787109 13.162109 C 22.87069 12.658304 22.801758 12.11701 22.486328 11.658203 C 22.170505 11.198824 21.577776 10.900391 21 10.900391 L 21.082031 10.904297 L 18 10.652344 L 18 6 A 1 1 0 0 0 19 5 A 1 1 0 0 0 18 4 C 17.477779 4 16.94539 4.1913296 16.568359 4.5683594 C 16.19133 4.9453891 16 5.4777788 16 6 L 16 10.488281 L 13.912109 10.318359 L 12.990234 3.859375 A 1.0001 1.0001 0 0 0 12 3 L 3 3 z M 5 5 L 7 5 L 7 9 C 6.2993503 9 5.6262687 9.1227303 5 9.3457031 L 5 5 z M 9 5 L 11.132812 5 L 11.869141 10.150391 L 10.347656 10.025391 C 9.9323855 9.7445787 9.4796224 9.5164649 9 9.3457031 L 9 5 z M 7 11 C 7.8769749 11 8.6849529 11.277567 9.3417969 11.75 A 1 1 0 0 0 9.3789062 11.777344 C 10.364313 12.503568 11 13.672669 11 15 C 11 15.884038 10.717681 16.697748 10.238281 17.357422 A 1 1 0 0 0 10.191406 17.421875 C 9.4631063 18.382966 8.3081121 19 7 19 C 4.7790208 19 3 17.220979 3 15 C 3 12.779021 4.7790208 11 7 11 z M 12.296875 12.191406 L 16.705078 12.550781 A 1 1 0 0 0 17 12.599609 A 1 1 0 0 0 17.115234 12.583984 L 20.804688 12.886719 L 20.294922 16.076172 C 19.742644 15.419393 18.916306 15 18 15 C 16.704644 15 15.589521 15.839613 15.173828 17 L 12.654297 17 C 12.87727 16.373731 13 15.70065 13 15 C 13 13.986704 12.744559 13.030452 12.296875 12.191406 z M 7 13.5 C 6.1834191 13.5 5.5 14.183419 5.5 15 C 5.5 15.816581 6.1834191 16.5 7 16.5 C 7.8165809 16.5 8.5 15.816581 8.5 15 C 8.5 14.183419 7.8165809 13.5 7 13.5 z M 7 14.5 C 7.2642972 14.5 7.5 14.735703 7.5 15 C 7.5 15.264297 7.2642972 15.5 7 15.5 C 6.7357028 15.5 6.5 15.264297 6.5 15 C 6.5 14.735703 6.7357028 14.5 7 14.5 z M 18 17 C 18.564128 17 19 17.435872 19 18 C 19 18.564128 18.564128 19 18 19 C 17.435872 19 17 18.564128 17 18 C 17 17.435872 17.435872 17 18 17 z "
     stroke-width="0" />
</svg>
