<?xml version="1.0" encoding="UTF-8" standalone="no"?>
<svg
   width="24"
   height="24"
   viewBox="0 0 24 24"
   fill="none"
   stroke="currentColor"
   stroke-width="2"
   stroke-linecap="round"
   stroke-linejoin="round"
   version="1.1"
   id="svg4"
   xmlns="http://www.w3.org/2000/svg"
   xmlns:svg="http://www.w3.org/2000/svg">
  <defs
     id="defs4" />
  <path
     id="path1"
     style="color:#000000;fill:#000000;-inkscape-stroke:none"
     d="M 12.068359 0.85546875 C 10.81769 0.82255637 9.4714503 1.6644682 9.1367188 3.1347656 L 6.96875 10.357422 A 1 1 0 0 0 6.9179688 10.527344 L 6.609375 11.558594 L 2.3027344 14.033203 A 1.0001 1.0001 0 0 0 2.2851562 14.042969 C 1.600208 14.453903 1 15.100002 1 16 C 1 16.899998 1.6002081 17.546063 2.2851562 17.957031 A 1.0001 1.0001 0 0 0 2.2910156 17.960938 L 9.890625 22.460938 A 1.0001 1.0001 0 0 0 9.9140625 22.474609 C 11.143931 23.15787 12.654897 23.15787 13.884766 22.474609 A 1.0001 1.0001 0 0 0 13.910156 22.460938 L 21.486328 17.974609 C 22.341709 17.578847 23 16.868509 23 16 C 23 15.100002 22.399792 14.453937 21.714844 14.042969 A 1.0001 1.0001 0 0 0 21.710938 14.041016 L 17.322266 11.425781 L 17.099609 10.683594 A 1 1 0 0 0 16.943359 10.162109 L 14.869141 3.2519531 C 14.599044 1.7853487 13.309904 0.88814097 12.068359 0.85546875 z M 12.015625 2.8554688 C 12.458303 2.8671177 12.819193 3.0395102 12.910156 3.6484375 A 1.0001 1.0001 0 0 0 12.941406 3.7871094 L 13.527344 5.7421875 C 12.55251 6.2080151 11.417168 6.2049539 10.445312 5.7304688 L 11.058594 3.6875 A 1.0001 1.0001 0 0 0 11.080078 3.5996094 C 11.202942 2.9963091 11.572947 2.8438193 12.015625 2.8554688 z M 9.8671875 7.6621094 C 11.221252 8.2247469 12.7512 8.2275918 14.107422 7.671875 L 14.902344 10.322266 C 14.196011 10.715067 13.162501 11 12 11 C 10.823602 11 9.7790805 10.708688 9.0722656 10.308594 L 9.8671875 7.6621094 z M 8.4960938 12.275391 C 9.5000631 12.756969 10.706563 13 12 13 C 13.287693 13 14.488933 12.758585 15.490234 12.28125 L 15.941406 13.787109 A 1.0001 1.0001 0 0 0 15.998047 13.882812 C 15.998009 13.893176 16 13.919997 16 14 C 16 14.418627 15.739512 14.859806 15.037109 15.279297 C 14.334707 15.698787 13.245236 16 12 16 C 10.754764 16 9.6652928 15.698787 8.9628906 15.279297 C 8.2604884 14.859806 8 14.418627 8 14 C 8 13.85 8.0082622 13.816728 8.0039062 13.826172 A 1.0001 1.0001 0 0 0 8.0585938 13.6875 L 8.3476562 12.726562 A 1 1 0 0 0 8.4960938 12.275391 z M 17.994141 14.154297 L 20.6875 15.759766 C 20.847702 15.856971 20.922881 15.944131 20.960938 15.992188 C 20.91408 16.028111 20.822907 16.088453 20.605469 16.181641 A 1.0001 1.0001 0 0 0 20.490234 16.240234 L 12.914062 20.726562 C 12.344482 21.042996 11.456909 21.042387 10.886719 20.726562 L 10.884766 20.726562 L 3.3144531 16.242188 C 3.1358756 16.135041 3.0626394 16.046478 3.0292969 16.001953 C 3.0624828 15.959537 3.1349686 15.869454 3.3105469 15.761719 C 3.3147769 15.759119 3.3101009 15.760412 3.3144531 15.757812 L 6.0078125 14.208984 C 6.0931796 15.396593 6.9000622 16.376512 7.9375 16.996094 C 9.0350942 17.651601 10.445242 18 12 18 C 13.554758 18 14.964906 17.651601 16.0625 16.996094 C 17.115678 16.367111 17.92983 15.366277 17.994141 14.154297 z "
     stroke-width="0" />
</svg>
