<?xml version="1.0" encoding="UTF-8" standalone="no"?>
<svg
   width="24"
   height="24"
   viewBox="0 0 24 24"
   fill="none"
   stroke="currentColor"
   stroke-width="2"
   stroke-linecap="round"
   stroke-linejoin="round"
   version="1.1"
   id="svg7"
   xmlns="http://www.w3.org/2000/svg"
   xmlns:svg="http://www.w3.org/2000/svg">
  <defs
     id="defs7" />
  <path
     id="path1"
     style="color:#000000;fill:#000000;-inkscape-stroke:none"
     d="M 12 1 C 5.9367256 1 1 5.9367212 1 12 L 1 22 A 1 1 0 0 0 2 23 A 1 1 0 0 0 3 22 L 3 12 C 3 7.0175985 7.0176018 3 12 3 C 16.982398 3 21 7.0175985 21 12 L 21 22 A 1 1 0 0 0 22 23 A 1 1 0 0 0 23 22 L 23 12 C 23 5.9367212 18.063274 1 12 1 z M 12 5 C 10.749703 5 9.5746436 5.3332017 8.5566406 5.9121094 A 1 1 0 0 0 8.4550781 5.96875 C 6.3904088 7.1886766 5 9.4376271 5 12 L 5 15 C 5 16.864823 6.0346169 18.500107 7.5585938 19.359375 L 6.1679688 21.445312 A 1 1 0 0 0 6.4453125 22.832031 A 1 1 0 0 0 7.8320312 22.554688 L 9.5488281 19.978516 C 9.6975151 19.991981 9.8479648 20 10 20 L 14 20 C 14.152035 20 14.302485 19.991981 14.451172 19.978516 L 16.167969 22.554688 A 1 1 0 0 0 17.554688 22.832031 A 1 1 0 0 0 17.832031 21.445312 L 16.441406 19.359375 C 17.965383 18.500107 19 16.864823 19 15 L 19 12 C 19 9.4616462 17.636248 7.2294995 15.603516 6.0019531 A 1 1 0 0 0 15.396484 5.8847656 C 14.389451 5.322393 13.230944 5 12 5 z M 12 7 C 12.712269 7 13.388299 7.1468076 14 7.4121094 L 14 8.1992188 C 14 8.8646931 13.77622 9.238896 13.423828 9.53125 C 13.071437 9.823604 12.542591 10 12 10 C 11.457409 10 10.928563 9.823604 10.576172 9.53125 C 10.22378 9.238896 10 8.8646931 10 8.1992188 L 10 7.4121094 C 10.611701 7.1468076 11.287731 7 12 7 z M 8.0644531 8.9101562 C 8.2260342 9.8033424 8.6837644 10.560037 9.2988281 11.070312 C 10.071435 11.711289 11.042595 12 12 12 C 12.957405 12 13.928565 11.711289 14.701172 11.070312 C 15.316235 10.560037 15.773966 9.8033424 15.935547 8.9101562 C 16.601725 9.7593323 17 10.830305 17 12 L 17 15 C 17 16.668695 15.668695 18 14 18 L 10 18 C 8.3313045 18 7 16.668695 7 15 L 7 12 C 7 10.830305 7.3982752 9.7593323 8.0644531 8.9101562 z M 10 14 A 1 1 0 0 0 9 15 A 1 1 0 0 0 10 16 L 10.009766 16 A 1 1 0 0 0 11.009766 15 A 1 1 0 0 0 10.009766 14 L 10 14 z M 14 14 A 1 1 0 0 0 13 15 A 1 1 0 0 0 14 16 L 14.009766 16 A 1 1 0 0 0 15.009766 15 A 1 1 0 0 0 14.009766 14 L 14 14 z "
     stroke-width="0" />
</svg>
