<?xml version="1.0" encoding="UTF-8" standalone="no"?>
<svg xmlns="http://www.w3.org/2000/svg" xmlns:svg="http://www.w3.org/2000/svg" width="24" height="24" viewBox="0 0 24 24" fill="currentColor" tags="tree,forest,park,nature" categories="nature">
  
  <path d="M 13 2 A 1.0001 1.0001 0 0 0 12.269531 2.3183594 L 10.869141 3.8183594 A 1 1 0 0 0 10.917969 5.2304688 A 1 1 0 0 0 12.332031 5.1816406 L 12.998047 4.4667969 L 16.267578 7.9804688 A 1.0001 1.0001 0 0 0 16.289062 8.0039062 A 1.0001 1.0001 0 0 0 16.199219 8 L 16 8 A 1.0001 1.0001 0 0 0 15.259766 9.671875 L 18.259766 12.972656 A 1.0001 1.0001 0 0 0 18.285156 13 L 18 13 A 1.0001 1.0001 0 0 0 17.259766 14.671875 L 20.259766 17.972656 A 1.0001 1.0001 0 0 0 20.285156 18 L 13 18 L 12 18 A 1 1 0 0 0 11 19 A 1 1 0 0 0 12 20 L 12 22 A 1 1 0 0 0 13 23 A 1 1 0 0 0 14 22 L 14 20 L 20.300781 20 A 1.0001 1.0001 0 0 0 20.314453 20 C 21.153382 19.98822 21.855213 19.440632 22.134766 18.761719 C 22.414317 18.082805 22.302234 17.198703 21.714844 16.599609 L 19.664062 14.34375 C 19.84203 14.160937 20.041072 13.989261 20.134766 13.761719 C 20.414317 13.082805 20.302234 12.198703 19.714844 11.599609 L 17.658203 9.3378906 C 17.813778 9.1794089 18.008287 9.0495289 18.099609 8.8554688 C 18.42512 8.1637599 18.332214 7.2223722 17.710938 6.5957031 L 13.732422 2.3183594 A 1.0001 1.0001 0 0 0 13 2 z M 7 6 C 6.0277798 6 5.0421178 6.318682 4.2734375 7.0019531 C 3.5925369 7.6071978 3.179359 8.5419762 3.0800781 9.609375 C 1.5594969 10.502051 0.87298046 12.172661 1.1328125 13.679688 C 1.4252563 15.375862 2.8739801 16.947736 4.9746094 17 A 1.0001 1.0001 0 0 0 5 17 L 6 17 L 6 22 A 1 1 0 0 0 7 23 A 1 1 0 0 0 8 22 L 8 17 L 8.8925781 17 C 11.024571 17.016488 12.529415 15.454988 12.853516 13.746094 C 13.141863 12.22571 12.464421 10.518825 10.921875 9.6113281 C 10.823078 8.5428913 10.40797 7.6076485 9.7265625 7.0019531 C 8.9578822 6.318682 7.9722202 6 7 6 z M 7 8 C 7.5277768 8 8.0421202 8.1813204 8.3984375 8.4980469 C 8.7547548 8.8147733 9 9.250002 9 10 L 9 10.199219 A 1.0001 1.0001 0 0 0 9.640625 11.132812 C 10.766987 11.565964 11.058973 12.475097 10.888672 13.373047 C 10.718371 14.270997 10.114945 15.009333 8.9082031 15 A 1.0001 1.0001 0 0 0 8.9003906 15 L 5.0253906 15 C 3.8418499 14.970553 3.2568259 14.229043 3.1035156 13.339844 C 2.9502054 12.450644 3.2520781 11.556893 4.3574219 11.132812 A 1.0001 1.0001 0 0 0 5 10.199219 L 5 10 C 5 9.250002 5.2452452 8.8147733 5.6015625 8.4980469 C 5.9578798 8.1813204 6.4722232 8 7 8 z "/>
</svg>
