<?xml version="1.0" encoding="UTF-8" standalone="no"?>
<svg
   width="24"
   height="24"
   viewBox="0 0 24 24"
   fill="none"
   stroke="currentColor"
   stroke-width="2"
   stroke-linecap="round"
   stroke-linejoin="round"
   version="1.1"
   id="svg1"
   xmlns="http://www.w3.org/2000/svg"
   xmlns:svg="http://www.w3.org/2000/svg">
  <defs
     id="defs1" />
  <path
     id="path1"
     style="color:#000000;fill:#000000;-inkscape-stroke:none"
     d="M 12 2.0351562 C 10.985537 2.0351562 9.9703661 2.5222052 9.4042969 3.4980469 A 1.0001 1.0001 0 0 0 9.4023438 3.5039062 L 1.4023438 17.503906 C 0.27659607 19.460614 1.7395439 21.997685 3.9980469 22 A 1.0001 1.0001 0 0 0 4 22 L 20 22 A 1.0001 1.0001 0 0 0 20.001953 22 C 22.260456 21.9977 23.723404 19.460614 22.597656 17.503906 L 22.595703 17.5 L 14.597656 3.5039062 A 1.0001 1.0001 0 0 0 14.595703 3.4980469 C 14.029681 2.5222058 13.014463 2.0351563 12 2.0351562 z M 12 3.9726562 C 12.330183 3.9726562 12.660603 4.1491892 12.865234 4.5019531 L 20.861328 18.496094 A 1.0001 1.0001 0 0 0 20.863281 18.5 C 21.271561 19.207246 20.816041 19.997828 20 20 L 4.0019531 20 L 4 20 C 3.1839591 19.997828 2.7283926 19.20724 3.1367188 18.5 A 1.0001 1.0001 0 0 0 3.1386719 18.496094 L 11.134766 4.5019531 C 11.339397 4.1491892 11.669817 3.9726562 12 3.9726562 z "
     stroke-width="0" />
</svg>
