<?xml version="1.0" encoding="UTF-8" standalone="no"?>
<svg
   width="24"
   height="24"
   viewBox="0 0 24 24"
   fill="none"
   stroke="currentColor"
   stroke-width="2"
   stroke-linecap="round"
   stroke-linejoin="round"
   version="1.1"
   id="svg3"
   xmlns="http://www.w3.org/2000/svg"
   xmlns:svg="http://www.w3.org/2000/svg">
  <defs
     id="defs3" />
  <path
     id="path1"
     style="color:#000000;fill:#000000;-inkscape-stroke:none"
     d="M 3 5 C 2.4777788 5 1.9453891 5.1913296 1.5683594 5.5683594 C 1.1913296 5.9453891 1 6.4777788 1 7 L 1 17 C 1 17.522221 1.1913296 18.05461 1.5683594 18.431641 C 1.9453891 18.80867 2.4777788 19 3 19 L 4.1738281 19 C 4.5895208 20.160387 5.7046435 21 7 21 C 8.2953565 21 9.4104792 20.160387 9.8261719 19 L 14.173828 19 C 14.589521 20.160387 15.704644 21 17 21 C 18.295356 21 19.410479 20.160387 19.826172 19 L 21 19 C 21.522221 19 22.05461 18.80867 22.431641 18.431641 C 22.80867 18.05461 23 17.522221 23 17 L 23 13 A 1.0001 1.0001 0 0 0 22.707031 12.292969 L 18.707031 8.2929688 A 1.0001 1.0001 0 0 0 18 8 L 15 8 L 15 7 C 15 6.4777788 14.80867 5.9453891 14.431641 5.5683594 C 14.05461 5.1913296 13.522221 5 13 5 L 3 5 z M 3 7 L 13 7 L 13 17 L 9.8261719 17 C 9.4104792 15.839613 8.2953565 15 7 15 C 5.7046435 15 4.5895208 15.839613 4.1738281 17 L 3 17 L 3 7 z M 15 10 L 17.585938 10 L 21 13.414062 L 21 17 L 19.826172 17 C 19.410479 15.839613 18.295356 15 17 15 C 16.234402 15 15.532602 15.293804 15 15.773438 L 15 10 z M 7 17 C 7.5641282 17 8 17.435872 8 18 C 8 18.564128 7.5641282 19 7 19 C 6.4358718 19 6 18.564128 6 18 C 6 17.435872 6.4358718 17 7 17 z M 17 17 C 17.564128 17 18 17.435872 18 18 C 18 18.564128 17.564128 19 17 19 C 16.435872 19 16 18.564128 16 18 C 16 17.435872 16.435872 17 17 17 z "
     stroke-width="0" />
</svg>
