<?xml version="1.0" encoding="UTF-8" standalone="no"?>
<svg
   width="24"
   height="24"
   viewBox="0 0 24 24"
   fill="none"
   stroke="currentColor"
   stroke-width="2"
   stroke-linecap="round"
   stroke-linejoin="round"
   version="1.1"
   id="svg1"
   xmlns="http://www.w3.org/2000/svg"
   xmlns:svg="http://www.w3.org/2000/svg">
  <defs
     id="defs1" />
  <path
     id="rect1"
     style="color:#000000;fill:#000000;-inkscape-stroke:none"
     d="M 7 1 A 1 1 0 0 0 6.2929688 1.2929688 A 1 1 0 0 0 6.2929688 2.7070312 L 9.5859375 6 L 4 6 C 2.3553005 6 1 7.3553005 1 9 L 1 20 C 1 21.644699 2.3553005 23 4 23 L 20 23 C 21.644699 23 23 21.644699 23 20 L 23 9 C 23 7.3553005 21.644699 6 20 6 L 14.414062 6 L 17.707031 2.7070312 A 1 1 0 0 0 17.707031 1.2929688 A 1 1 0 0 0 16.292969 1.2929688 L 12 5.5859375 L 7.7070312 1.2929688 A 1 1 0 0 0 7 1 z M 4 8 L 20 8 C 20.571296 8 21 8.4287039 21 9 L 21 20 C 21 20.571296 20.571296 21 20 21 L 4 21 C 3.4287039 21 3 20.571296 3 20 L 3 9 C 3 8.4287039 3.4287039 8 4 8 z "
     stroke-width="0" />
</svg>
