<?xml version="1.0" encoding="UTF-8" standalone="no"?>
<svg xmlns="http://www.w3.org/2000/svg" xmlns:svg="http://www.w3.org/2000/svg" width="24" height="24" viewBox="0 0 24 24" fill="currentColor" tags="logo,social" categories="brands,social,account">
  
  <path d="M 21.847656 3.0117188 A 1.0001 1.0001 0 0 0 21.466797 3.1542969 C 21.466797 3.1542969 21.032062 3.4271773 20.472656 3.7011719 C 19.984595 3.9402223 19.460332 4.0873729 19.1875 4.1347656 C 17.443619 2.8295118 15.260298 2.7104464 13.576172 3.5878906 C 12.067465 4.3739395 11.015222 5.9849898 10.958984 7.9121094 C 8.215911 7.7107836 5.539128 6.451782 3.7636719 4.3535156 A 1.0001 1.0001 0 0 0 2.1210938 4.5234375 C -0.35734251 9.0837601 1.6816339 14.568513 6.0214844 16.988281 C 4.8183494 17.63361 3.4715845 18.066801 2.0449219 18.001953 A 1.0001 1.0001 0 0 0 1.4472656 19.833984 C 6.0747729 22.901053 11.444012 22.485153 15.371094 19.925781 C 19.18499 17.440174 21.640314 12.88853 20.992188 7.6914062 C 22.283792 6.1817139 22.949219 4.3164063 22.949219 4.3164062 A 1.0001 1.0001 0 0 0 22.251953 3.0332031 A 1.0001 1.0001 0 0 0 21.847656 3.0117188 z M 16.136719 4.9863281 C 16.219177 4.9893428 16.301884 4.9962958 16.384766 5.0058594 C 17.047815 5.0823683 17.719724 5.3729135 18.318359 5.9316406 A 1.0001 1.0001 0 0 0 19 6.1992188 C 19.302781 6.1992188 19.506178 6.0338719 19.779297 5.9667969 C 19.606135 6.2140958 19.493266 6.493062 19.292969 6.6933594 A 1.0001 1.0001 0 0 0 19.011719 7.5585938 C 19.749236 12.168075 17.602201 16.084383 14.279297 18.25 C 11.747156 19.900256 8.5731258 20.492804 5.4472656 19.527344 C 6.6249137 19.152239 7.7256327 18.567952 8.6582031 17.751953 A 1.0001 1.0001 0 0 0 8.2871094 16.042969 C 4.3631643 14.865785 2.3745276 10.616579 3.5117188 6.8398438 C 5.849328 8.8997687 8.90094 10.092011 12.029297 10 A 1.0001 1.0001 0 0 0 12.978516 8.7910156 C 12.614599 7.0927395 13.365436 5.9524453 14.5 5.3613281 C 14.996371 5.1027143 15.559509 4.9652254 16.136719 4.9863281 z "/>
</svg>
