<?xml version="1.0" encoding="UTF-8" standalone="no"?>
<svg
   width="24"
   height="24"
   viewBox="0 0 24 24"
   fill="none"
   stroke="currentColor"
   stroke-width="2"
   stroke-linecap="round"
   stroke-linejoin="round"
   version="1.1"
   id="svg1"
   xmlns="http://www.w3.org/2000/svg"
   xmlns:svg="http://www.w3.org/2000/svg">
  <defs
     id="defs1" />
  <path
     id="path1"
     style="color:#000000;fill:#000000;-inkscape-stroke:none"
     d="M 3 1 A 1.0001 1.0001 0 0 0 2 2 L 2 18 A 1.0001 1.0001 0 0 0 3 19 L 7 19 L 7 22 A 1.0001 1.0001 0 0 0 8.7070312 22.707031 L 12.414062 19 L 17 19 A 1.0001 1.0001 0 0 0 17.707031 18.707031 L 21.707031 14.707031 A 1.0001 1.0001 0 0 0 22 14 L 22 2 A 1.0001 1.0001 0 0 0 21 1 L 3 1 z M 4 3 L 20 3 L 20 13.585938 L 16.585938 17 L 12 17 A 1.0001 1.0001 0 0 0 11.292969 17.292969 L 9 19.585938 L 9 18 A 1.0001 1.0001 0 0 0 8 17 L 4 17 L 4 3 z M 11 6 A 1 1 0 0 0 10 7 L 10 11 A 1 1 0 0 0 11 12 A 1 1 0 0 0 12 11 L 12 7 A 1 1 0 0 0 11 6 z M 16 6 A 1 1 0 0 0 15 7 L 15 11 A 1 1 0 0 0 16 12 A 1 1 0 0 0 17 11 L 17 7 A 1 1 0 0 0 16 6 z "
     stroke-width="0" />
</svg>
