<?xml version="1.0" encoding="UTF-8" standalone="no"?>
<svg
   width="24"
   height="24"
   viewBox="0 0 24 24"
   fill="none"
   stroke="currentColor"
   stroke-width="2"
   stroke-linecap="round"
   stroke-linejoin="round"
   version="1.1"
   id="svg2"
   xmlns="http://www.w3.org/2000/svg"
   xmlns:svg="http://www.w3.org/2000/svg">
  <defs
     id="defs2" />
  <path
     id="polyline1"
     style="color:#000000;fill:#000000;-inkscape-stroke:none"
     d="M 4 3 A 1.0001 1.0001 0 0 0 3 4 L 3 7 A 1 1 0 0 0 4 8 A 1 1 0 0 0 5 7 L 5 5 L 11 5 L 11 19 L 9 19 A 1 1 0 0 0 8 20 A 1 1 0 0 0 9 21 L 12 21 L 15 21 A 1 1 0 0 0 16 20 A 1 1 0 0 0 15 19 L 13 19 L 13 5 L 19 5 L 19 7 A 1 1 0 0 0 20 8 A 1 1 0 0 0 21 7 L 21 4 A 1.0001 1.0001 0 0 0 20 3 L 12 3 L 4 3 z "
     stroke-width="0" />
</svg>
