<?xml version="1.0" encoding="UTF-8" standalone="no"?>
<svg
   width="24"
   height="24"
   viewBox="0 0 24 24"
   fill="none"
   stroke="currentColor"
   stroke-width="2"
   stroke-linecap="round"
   stroke-linejoin="round"
   version="1.1"
   id="svg1"
   xmlns="http://www.w3.org/2000/svg"
   xmlns:svg="http://www.w3.org/2000/svg">
  <defs
     id="defs1" />
  <path
     id="path1"
     style="color:#000000;fill:#000000;-inkscape-stroke:none"
     d="M 6 3 A 1 1 0 0 0 5 4 L 5 10 C 5 13.854143 8.1458602 17 12 17 C 15.85414 17 19 13.854143 19 10 L 19 4 A 1 1 0 0 0 18 3 A 1 1 0 0 0 17 4 L 17 10 C 17 12.773265 14.773263 15 12 15 C 9.2267363 15 7 12.773265 7 10 L 7 4 A 1 1 0 0 0 6 3 z M 4 19 A 1 1 0 0 0 3 20 A 1 1 0 0 0 4 21 L 20 21 A 1 1 0 0 0 21 20 A 1 1 0 0 0 20 19 L 4 19 z "
     stroke-width="0" />
</svg>
