<?xml version="1.0" encoding="UTF-8" standalone="no"?>
<svg xmlns="http://www.w3.org/2000/svg" xmlns:svg="http://www.w3.org/2000/svg" width="24" height="24" viewBox="0 0 24 24" fill="currentColor" tags="security" categories="security">
  
  <path d="M 12.066406 1 C 11.517616 0.99570413 10.971054 1.0647275 10.447266 1.2050781 C 8.0528022 1.8466813 6.0001319 4.0010917 6 7 L 6 9 L 5 9 C 3.3553005 9 2 10.355301 2 12 L 2 20 C 2 21.644699 3.3553005 23 5 23 L 19 23 C 20.644699 23 22 21.644699 22 20 L 22 12 C 22 10.355301 20.644699 9 19 9 L 8 9 L 8 7 C 8.0000931 4.8836566 9.3338349 3.5737521 10.964844 3.1367188 C 12.595852 2.6996853 14.406579 3.1672466 15.464844 5 A 1 1 0 0 0 16.830078 5.3652344 A 1 1 0 0 0 17.195312 4 C 16.070624 2.052209 14.184171 1.0931217 12.300781 1.0058594 C 12.222307 1.0022234 12.144805 1.0006137 12.066406 1 z M 5 11 L 7 11 L 19 11 C 19.571296 11 20 11.428704 20 12 L 20 20 C 20 20.571296 19.571296 21 19 21 L 5 21 C 4.4287039 21 4 20.571296 4 20 L 4 12 C 4 11.428704 4.4287039 11 5 11 z M 12 14 C 10.907277 14 10 14.907277 10 16 C 10 17.092723 10.907277 18 12 18 C 13.092723 18 14 17.092723 14 16 C 14 14.907277 13.092723 14 12 14 z "/>
</svg>
