<?xml version="1.0" encoding="UTF-8" standalone="no"?>
<svg
   width="24"
   height="24"
   viewBox="0 0 24 24"
   fill="none"
   stroke="currentColor"
   stroke-width="2"
   stroke-linecap="round"
   stroke-linejoin="round"
   version="1.1"
   id="svg2"
   xmlns="http://www.w3.org/2000/svg"
   xmlns:svg="http://www.w3.org/2000/svg">
  <defs
     id="defs2" />
  <path
     id="path1"
     style="color:#000000;fill:#000000;-inkscape-stroke:none"
     d="M 10 2 C 6.6981427 2 4 4.6981427 4 8 C 4 9.9395972 4.9315959 11.671129 6.3691406 12.769531 C 3.2119663 14.169606 1 17.332715 1 21 A 1 1 0 0 0 2 22 A 1 1 0 0 0 3 21 C 3 17.122167 6.122169 14 10 14 C 13.877831 14 17 17.122167 17 21 A 1 1 0 0 0 18 22 A 1 1 0 0 0 19 21 C 19 17.332715 16.788034 14.169606 13.630859 12.769531 C 15.068404 11.671129 16 9.9395972 16 8 C 16 4.6981427 13.301858 2 10 2 z M 17.693359 2.7089844 A 1 1 0 0 0 17.302734 2.7304688 A 1 1 0 0 0 16.689453 3.1894531 A 1 1 0 0 0 17.039062 4.5605469 C 19.519831 6.0319081 19.707539 9.4682714 17.400391 11.199219 A 1.0001 1.0001 0 0 0 17.400391 12.800781 C 19.1222 14.092139 21 17.025654 21 20 A 1 1 0 0 0 22 21 A 1 1 0 0 0 23 20 C 23 16.650165 21.30271 13.715508 19.328125 11.890625 C 21.740519 9.1673949 21.3494 4.7904853 18.060547 2.8398438 A 1 1 0 0 0 17.693359 2.7089844 z M 10 4 C 12.220979 4 14 5.7790208 14 8 C 14 10.220979 12.220979 12 10 12 C 7.7790208 12 6 10.220979 6 8 C 6 5.7790208 7.7790208 4 10 4 z "
     stroke-width="0" />
</svg>
