<?xml version="1.0" encoding="UTF-8" standalone="no"?>
<svg
   width="24"
   height="24"
   viewBox="0 0 24 24"
   fill="none"
   stroke="currentColor"
   stroke-width="2"
   stroke-linecap="round"
   stroke-linejoin="round"
   version="1.1"
   id="svg9"
   xmlns="http://www.w3.org/2000/svg"
   xmlns:svg="http://www.w3.org/2000/svg">
  <defs
     id="defs9" />
  <path
     id="path1"
     style="color:#000000;fill:#000000;-inkscape-stroke:none"
     d="M 10 2 C 6.6981427 2 4 4.6981427 4 8 C 4 9.9446037 4.9369854 11.679385 6.3808594 12.777344 C 3.277286 14.158002 1.0003458 17.250109 1 21 A 1 1 0 0 0 2 22 A 1 1 0 0 0 3 21 C 3.0003642 17.050612 6.1455873 14.076457 9.8066406 13.994141 C 9.8708227 13.996194 9.9353392 14 10 14 C 10.054855 14 10.109551 13.997574 10.164062 13.996094 C 10.810496 14.014914 11.470152 14.121631 12.128906 14.332031 A 1 1 0 0 0 13.386719 13.683594 A 1 1 0 0 0 13.345703 12.974609 C 14.9443 11.894248 16 10.065207 16 8 C 16 4.6981427 13.301858 2 10 2 z M 10 4 C 12.220979 4 14 5.7790208 14 8 C 14 10.220979 12.220979 12 10 12 C 7.7790208 12 6 10.220979 6 8 C 6 5.7790208 7.7790208 4 10 4 z M 16.552734 13.302734 A 1 1 0 0 0 16.09375 13.386719 A 1 1 0 0 0 15.585938 14.707031 L 15.623047 14.791016 C 15.306469 15.026574 15.026574 15.306469 14.791016 15.623047 L 14.707031 15.585938 A 1 1 0 0 0 13.941406 15.566406 A 1 1 0 0 0 13.386719 16.09375 A 1 1 0 0 0 13.894531 17.414062 L 14.037109 17.476562 C 14.01426 17.648404 14 17.822248 14 18 C 14 18.177752 14.01426 18.351596 14.037109 18.523438 L 13.894531 18.585938 A 1 1 0 0 0 13.386719 19.90625 A 1 1 0 0 0 14.707031 20.414062 L 14.791016 20.376953 C 15.026574 20.693531 15.306469 20.973426 15.623047 21.208984 L 15.585938 21.292969 A 1 1 0 0 0 16.09375 22.613281 A 1 1 0 0 0 17.414062 22.105469 L 17.476562 21.962891 C 17.648404 21.98574 17.822248 22 18 22 C 18.177752 22 18.351596 21.98574 18.523438 21.962891 L 18.585938 22.105469 A 1 1 0 0 0 19.90625 22.613281 A 1 1 0 0 0 20.414062 21.292969 L 20.376953 21.208984 C 20.693531 20.973426 20.973426 20.693531 21.208984 20.376953 L 21.292969 20.414062 A 1 1 0 0 0 22.613281 19.90625 A 1 1 0 0 0 22.105469 18.585938 L 21.962891 18.523438 C 21.98574 18.351596 22 18.177752 22 18 C 22 17.822248 21.98574 17.648404 21.962891 17.476562 L 22.105469 17.414062 A 1 1 0 0 0 22.613281 16.09375 A 1 1 0 0 0 21.292969 15.585938 L 21.208984 15.623047 C 20.973426 15.306469 20.693531 15.026574 20.376953 14.791016 L 20.414062 14.707031 A 1 1 0 0 0 19.90625 13.386719 A 1 1 0 0 0 19.140625 13.367188 A 1 1 0 0 0 18.585938 13.894531 L 18.523438 14.037109 C 18.351596 14.01426 18.177752 14 18 14 C 17.822248 14 17.648404 14.01426 17.476562 14.037109 L 17.414062 13.894531 A 1 1 0 0 0 16.859375 13.367188 A 1 1 0 0 0 16.552734 13.302734 z M 18 16 C 19.116412 16 20 16.883588 20 18 C 20 19.116412 19.116412 20 18 20 C 16.883588 20 16 19.116412 16 18 C 16 16.883588 16.883588 16 18 16 z "
     stroke-width="0" />
</svg>
