<?xml version="1.0" encoding="UTF-8" standalone="no"?>
<svg xmlns="http://www.w3.org/2000/svg" xmlns:svg="http://www.w3.org/2000/svg" width="24" height="24" viewBox="0 0 24 24" fill="currentColor" tags="person,account,contact,find,scan,magnifier,magnifying glass" categories="account,social">
  
  <path d="M 10 2 C 7.2504263 2 5 4.2504263 5 7 C 5 9.7495737 7.2504263 12 10 12 C 12.749573 12 15 9.7495737 15 7 C 15 4.2504263 12.749573 2 10 2 z M 10 4 C 11.668695 4 13 5.3313045 13 7 C 13 8.6686955 11.668695 10 10 10 C 8.3313045 10 7 8.6686955 7 7 C 7 5.3313045 8.3313045 4 10 4 z M 17 13 C 14.80271 13 13 14.80271 13 17 C 13 19.19729 14.80271 21 17 21 C 17.738479 21 18.43146 20.795196 19.027344 20.441406 L 20.292969 21.707031 A 1 1 0 0 0 21.707031 21.707031 A 1 1 0 0 0 21.707031 20.292969 L 20.441406 19.027344 C 20.795196 18.43146 21 17.738479 21 17 C 21 14.80271 19.19729 13 17 13 z M 7 14 C 4.2504263 14 2 16.250427 2 19 L 2 21 A 1 1 0 0 0 3 22 A 1 1 0 0 0 4 21 L 4 19 C 4 17.331305 5.3313045 16 7 16 L 10.300781 16 A 1 1 0 0 0 11.300781 15 A 1 1 0 0 0 10.300781 14 L 7 14 z M 17 15 C 18.116412 15 19 15.883588 19 17 C 19 17.480363 18.835875 17.91745 18.560547 18.259766 A 1 1 0 0 0 18.392578 18.392578 A 1 1 0 0 0 18.259766 18.560547 C 17.91745 18.835875 17.480363 19 17 19 C 15.883588 19 15 18.116412 15 17 C 15 15.883588 15.883588 15 17 15 z "/>
</svg>
