<?xml version="1.0" encoding="UTF-8" standalone="no"?>
<svg
   width="24"
   height="24"
   viewBox="0 0 24 24"
   fill="none"
   stroke="currentColor"
   stroke-width="2"
   stroke-linecap="round"
   stroke-linejoin="round"
   version="1.1"
   id="svg3"
   xmlns="http://www.w3.org/2000/svg"
   xmlns:svg="http://www.w3.org/2000/svg">
  <defs
     id="defs3" />
  <path
     id="path1"
     style="color:#000000;fill:#000000;-inkscape-stroke:none"
     d="M 9 2 C 6.2504263 2 4 4.2504263 4 7 C 4 9.7495737 6.2504263 12 9 12 C 11.749573 12 14 9.7495737 14 7 C 14 4.2504263 11.749573 2 9 2 z M 15.988281 2.1308594 A 1 1 0 0 0 15.03125 2.8828125 A 1 1 0 0 0 15.751953 4.0996094 C 17.326737 4.5028177 18.007813 5.7227476 18.007812 7.0058594 C 18.007812 8.2889712 17.326737 9.508901 15.751953 9.9121094 A 1 1 0 0 0 15.03125 11.128906 A 1 1 0 0 0 16.248047 11.849609 C 18.683712 11.225981 20.007812 9.0843212 20.007812 7.0058594 C 20.007812 4.9273976 18.683712 2.7857383 16.248047 2.1621094 A 1 1 0 0 0 15.988281 2.1308594 z M 9 4 C 10.668695 4 12 5.3313045 12 7 C 12 8.6686955 10.668695 10 9 10 C 7.3313045 10 6 8.6686955 6 7 C 6 5.3313045 7.3313045 4 9 4 z M 6 14 C 3.2504263 14 1 16.250427 1 19 L 1 21 A 1 1 0 0 0 2 22 A 1 1 0 0 0 3 21 L 3 19 C 3 17.331305 4.3313045 16 6 16 L 12 16 C 13.668695 16 15 17.331305 15 19 L 15 21 A 1 1 0 0 0 16 22 A 1 1 0 0 0 17 21 L 17 19 C 17 16.250427 14.749573 14 12 14 L 6 14 z M 18.990234 14.130859 A 1 1 0 0 0 18.03125 14.880859 A 1 1 0 0 0 18.75 16.097656 C 20.078575 16.440693 20.998977 17.627854 21 19 L 21 21 A 1 1 0 0 0 22 22 A 1 1 0 0 0 23 21 L 23 19 C 22.9983 16.726388 21.451416 14.730512 19.25 14.162109 A 1 1 0 0 0 18.990234 14.130859 z "
     stroke-width="0" />
</svg>
