<?xml version="1.0" encoding="UTF-8" standalone="no"?>
<svg xmlns="http://www.w3.org/2000/svg" xmlns:svg="http://www.w3.org/2000/svg" width="24" height="24" viewBox="0 0 24 24" fill="currentColor" tags="person,account,contact,find,scan,magnifier,magnifying glass" categories="account,social">
  
  <path d="M 10 2 C 6.6981427 2 4 4.6981427 4 8 C 4 9.9446037 4.9369854 11.679385 6.3808594 12.777344 C 3.277286 14.158002 1.0003458 17.250109 1 21 A 1 1 0 0 0 2 22 A 1 1 0 0 0 3 21 C 3.0003642 17.050612 6.1455873 14.076457 9.8066406 13.994141 C 9.8708227 13.996194 9.9353392 14 10 14 C 10.054855 14 10.109551 13.997574 10.164062 13.996094 C 10.810496 14.014914 11.470152 14.121631 12.128906 14.332031 A 1 1 0 0 0 13.386719 13.683594 A 1 1 0 0 0 13.345703 12.974609 C 14.9443 11.894248 16 10.065207 16 8 C 16 4.6981427 13.301858 2 10 2 z M 10 4 C 12.220979 4 14 5.7790208 14 8 C 14 10.220979 12.220979 12 10 12 C 7.7790208 12 6 10.220979 6 8 C 6 5.7790208 7.7790208 4 10 4 z M 18 14 C 15.80271 14 14 15.80271 14 18 C 14 20.19729 15.80271 22 18 22 C 18.738479 22 19.43146 21.795196 20.027344 21.441406 L 21.292969 22.707031 A 1 1 0 0 0 22.707031 22.707031 A 1 1 0 0 0 22.707031 21.292969 L 21.441406 20.027344 C 21.795196 19.43146 22 18.738479 22 18 C 22 15.80271 20.19729 14 18 14 z M 18 16 C 19.116412 16 20 16.883588 20 18 C 20 18.480363 19.835875 18.91745 19.560547 19.259766 A 1 1 0 0 0 19.392578 19.392578 A 1 1 0 0 0 19.259766 19.560547 C 18.91745 19.835875 18.480363 20 18 20 C 16.883588 20 16 19.116412 16 18 C 16 16.883588 16.883588 16 18 16 z "/>
</svg>
