<?xml version="1.0" encoding="UTF-8" standalone="no"?>
<svg
   width="24"
   height="24"
   viewBox="0 0 24 24"
   fill="none"
   stroke="currentColor"
   stroke-width="2"
   stroke-linecap="round"
   stroke-linejoin="round"
   version="1.1"
   id="svg1"
   xmlns="http://www.w3.org/2000/svg"
   xmlns:svg="http://www.w3.org/2000/svg">
  <defs
     id="defs1" />
  <path
     id="path1"
     style="color:#000000;fill:#000000;-inkscape-stroke:none"
     d="M 12 2 C 9.2504263 2 7 4.2504263 7 7 C 7 9.7495737 9.2504263 12 12 12 C 14.749573 12 17 9.7495737 17 7 C 17 4.2504263 14.749573 2 12 2 z M 12 4 C 13.668695 4 15 5.3313045 15 7 C 15 8.6686955 13.668695 10 12 10 C 10.331305 10 9 8.6686955 9 7 C 9 5.3313045 10.331305 4 12 4 z M 9 14 C 6.2504263 14 4 16.250427 4 19 L 4 21 A 1 1 0 0 0 5 22 A 1 1 0 0 0 6 21 L 6 19 C 6 17.331305 7.3313045 16 9 16 L 15 16 C 16.668695 16 18 17.331305 18 19 L 18 21 A 1 1 0 0 0 19 22 A 1 1 0 0 0 20 21 L 20 19 C 20 16.250427 17.749573 14 15 14 L 9 14 z "
     stroke-width="0" />
</svg>
