<?xml version="1.0" encoding="UTF-8" standalone="no"?>
<svg xmlns="http://www.w3.org/2000/svg" xmlns:svg="http://www.w3.org/2000/svg" width="24" height="24" viewBox="0 0 24 24" fill="currentColor" tags="delete,remove,unfollow,unsubscribe,unavailable" categories="account">
  
  <path d="M 10 2 C 6.6981427 2 4 4.6981427 4 8 C 4 9.9496102 4.942367 11.687663 6.3925781 12.785156 C 3.3122266 14.151442 0.99999562 17.193127 1 21 A 1 1 0 0 0 2 22 A 1 1 0 0 0 3 21 C 2.9999954 17.027581 6.1001636 14.164068 9.6171875 13.986328 C 9.7437183 13.994376 9.8715175 14 10 14 C 10.117844 14 10.235352 13.99506 10.351562 13.988281 C 11.36598 14.045569 12.398723 14.327275 13.388672 14.875 A 1 1 0 0 0 14.748047 14.484375 A 1 1 0 0 0 14.357422 13.125 C 14.118524 12.992821 13.877766 12.873486 13.634766 12.765625 C 15.069842 11.667056 16 9.9376434 16 8 C 16 4.6981427 13.301858 2 10 2 z M 10 4 C 12.220979 4 14 5.7790208 14 8 C 14 10.220979 12.220979 12 10 12 C 7.7790208 12 6 10.220979 6 8 C 6 5.7790208 7.7790208 4 10 4 z M 17 16 A 1 1 0 0 0 16.292969 16.292969 A 1 1 0 0 0 16.292969 17.707031 L 18.085938 19.5 L 16.292969 21.292969 A 1 1 0 0 0 16.292969 22.707031 A 1 1 0 0 0 17.707031 22.707031 L 19.5 20.914062 L 21.292969 22.707031 A 1 1 0 0 0 22.707031 22.707031 A 1 1 0 0 0 22.707031 21.292969 L 20.914062 19.5 L 22.707031 17.707031 A 1 1 0 0 0 22.707031 16.292969 A 1 1 0 0 0 21.292969 16.292969 L 19.5 18.085938 L 17.707031 16.292969 A 1 1 0 0 0 17 16 z "/>
</svg>
