<?xml version="1.0" encoding="UTF-8" standalone="no"?>
<svg
   width="24"
   height="24"
   viewBox="0 0 24 24"
   fill="none"
   stroke="currentColor"
   stroke-width="2"
   stroke-linecap="round"
   stroke-linejoin="round"
   version="1.1"
   id="svg2"
   xmlns="http://www.w3.org/2000/svg"
   xmlns:svg="http://www.w3.org/2000/svg">
  <defs
     id="defs2" />
  <path
     id="path1"
     style="color:#000000;fill:#000000;-inkscape-stroke:none"
     d="M 9 2 C 6.2504263 2 4 4.2504263 4 7 C 4 9.7495737 6.2504263 12 9 12 C 11.749573 12 14 9.7495737 14 7 C 14 4.2504263 11.749573 2 9 2 z M 9 4 C 10.668695 4 12 5.3313045 12 7 C 12 8.6686955 10.668695 10 9 10 C 7.3313045 10 6 8.6686955 6 7 C 6 5.3313045 7.3313045 4 9 4 z M 17 7 A 1 1 0 0 0 16.292969 7.2929688 A 1 1 0 0 0 16.292969 8.7070312 L 18.085938 10.5 L 16.292969 12.292969 A 1 1 0 0 0 16.292969 13.707031 A 1 1 0 0 0 17.707031 13.707031 L 19.5 11.914062 L 21.292969 13.707031 A 1 1 0 0 0 22.707031 13.707031 A 1 1 0 0 0 22.707031 12.292969 L 20.914062 10.5 L 22.707031 8.7070312 A 1 1 0 0 0 22.707031 7.2929688 A 1 1 0 0 0 21.292969 7.2929688 L 19.5 9.0859375 L 17.707031 7.2929688 A 1 1 0 0 0 17 7 z M 6 14 C 3.2504263 14 1 16.250427 1 19 L 1 21 A 1 1 0 0 0 2 22 A 1 1 0 0 0 3 21 L 3 19 C 3 17.331305 4.3313045 16 6 16 L 12 16 C 13.668695 16 15 17.331305 15 19 L 15 21 A 1 1 0 0 0 16 22 A 1 1 0 0 0 17 21 L 17 19 C 17 16.250427 14.749573 14 12 14 L 6 14 z "
     stroke-width="0" />
</svg>
