<?xml version="1.0" encoding="UTF-8" standalone="no"?>
<svg
   width="24"
   height="24"
   viewBox="0 0 24 24"
   fill="none"
   stroke="currentColor"
   stroke-width="2"
   stroke-linecap="round"
   stroke-linejoin="round"
   version="1.1"
   id="svg2"
   xmlns="http://www.w3.org/2000/svg"
   xmlns:svg="http://www.w3.org/2000/svg">
  <defs
     id="defs2" />
  <path
     id="rect1"
     style="color:#000000;fill:#000000;-inkscape-stroke:none"
     d="M 4 3 C 2.3553005 3 1 4.3553005 1 6 L 1 18 C 1 19.644699 2.3553005 21 4 21 L 20 21 C 21.644699 21 23 19.644699 23 18 L 23 6 C 23 4.3553005 21.644699 3 20 3 L 4 3 z M 4 5 L 20 5 C 20.571296 5 21 5.4287039 21 6 L 21 7 L 3 7 L 3 6 C 3 5.4287039 3.4287039 5 4 5 z M 3 9 L 21 9 L 21 18 C 21 18.571296 20.571296 19 20 19 L 4 19 C 3.4287039 19 3 18.571296 3 18 L 3 9 z M 8 11 C 6.3549936 11 5 12.354994 5 14 C 5 15.645006 6.3549936 17 8 17 C 9.6450064 17 11 15.645006 11 14 C 11 13.65035 10.938378 13.313218 10.826172 13 L 13.173828 13 C 13.061622 13.313218 13 13.65035 13 14 C 13 15.645006 14.354994 17 16 17 C 17.645006 17 19 15.645006 19 14 C 19 12.354994 17.645006 11 16 11 L 8 11 z M 8 13 C 8.5641282 13 9 13.435872 9 14 C 9 14.564128 8.5641282 15 8 15 C 7.4358718 15 7 14.564128 7 14 C 7 13.435872 7.4358718 13 8 13 z M 16 13 C 16.564128 13 17 13.435872 17 14 C 17 14.564128 16.564128 15 16 15 C 15.435872 15 15 14.564128 15 14 C 15 13.435872 15.435872 13 16 13 z "
     stroke-width="0" />
</svg>
