<?xml version="1.0" encoding="UTF-8" standalone="no"?>
<svg xmlns="http://www.w3.org/2000/svg" xmlns:svg="http://www.w3.org/2000/svg" width="24" height="24" viewBox="0 0 24 24" fill="currentColor" tags="camera,movie,film" categories="devices,communication,connectivity,photography">
  
  <path d="M 2 1 A 1 1 0 0 0 1.2929688 1.2929688 A 1 1 0 0 0 1.2929688 2.7070312 L 3.6132812 5.0273438 C 2.1482615 5.219992 1 6.4861798 1 8 L 1 16 C 1 17.645006 2.3549936 19 4 19 L 14 19 C 14.970842 19 15.836824 18.525768 16.386719 17.800781 L 21.292969 22.707031 A 1 1 0 0 0 22.707031 22.707031 A 1 1 0 0 0 22.707031 21.292969 L 16.707031 15.292969 L 6.7070312 5.2929688 L 2.7070312 1.2929688 A 1 1 0 0 0 2 1 z M 10.660156 5 A 1 1 0 0 0 9.6601562 6 A 1 1 0 0 0 10.660156 7 L 14 7 C 14.564128 7 15 7.4358718 15 8 L 15 10.339844 A 1.0001 1.0001 0 0 0 15.292969 11.046875 L 16.292969 12.046875 A 1.0001 1.0001 0 0 0 17.554688 12.171875 L 21 9.8710938 L 21 16 A 1 1 0 0 0 22 17 A 1 1 0 0 0 23 16 L 23 8 A 1.0001 1.0001 0 0 0 21.445312 7.1679688 L 17.126953 10.052734 L 17 9.9257812 L 17 8 C 17 6.3549936 15.645006 5 14 5 L 10.660156 5 z M 4 7 L 5.5859375 7 L 14.880859 16.294922 C 14.748119 16.689532 14.447226 17 14 17 L 4 17 C 3.4358718 17 3 16.564128 3 16 L 3 8 C 3 7.4358718 3.4358718 7 4 7 z "/>
</svg>
