<?xml version="1.0" encoding="UTF-8" standalone="no"?>
<svg xmlns="http://www.w3.org/2000/svg" xmlns:svg="http://www.w3.org/2000/svg" width="24" height="24" viewBox="0 0 24 24" fill="currentColor" tags="camera,movie,film,recording,motion picture,camcorder,reel" categories="devices,communication,connectivity,photography">
  
  <path d="M 4 5 C 2.3553005 5 1 6.3553005 1 8 L 1 16 C 1 17.644699 2.3553005 19 4 19 L 14 19 C 15.644699 19 17 17.644699 17 16 L 17 13.869141 L 21.445312 16.832031 A 1.0001 1.0001 0 0 0 23 16 L 23 8 A 1.0001 1.0001 0 0 0 22.472656 7.1191406 A 1.0001 1.0001 0 0 0 21.445312 7.1679688 L 17 10.130859 L 17 8 C 17 6.3553005 15.644699 5 14 5 L 4 5 z M 4 7 L 14 7 C 14.571296 7 15 7.4287039 15 8 L 15 16 C 15 16.571296 14.571296 17 14 17 L 4 17 C 3.4287039 17 3 16.571296 3 16 L 3 8 C 3 7.4287039 3.4287039 7 4 7 z M 21 9.8691406 L 21 14.130859 L 17.802734 12 L 21 9.8691406 z "/>
</svg>
