<?xml version="1.0" encoding="UTF-8" standalone="no"?>
<svg
   width="24"
   height="24"
   viewBox="0 0 24 24"
   fill="none"
   stroke="currentColor"
   stroke-width="2"
   stroke-linecap="round"
   stroke-linejoin="round"
   version="1.1"
   id="svg4"
   xmlns="http://www.w3.org/2000/svg"
   xmlns:svg="http://www.w3.org/2000/svg">
  <defs
     id="defs4" />
  <path
     id="path1"
     style="color:#000000;fill:#000000;-inkscape-stroke:none"
     d="M 5 2 C 3.3549936 2 2 3.3549936 2 5 L 2 7 A 1 1 0 0 0 3 8 A 1 1 0 0 0 4 7 L 4 5 C 4 4.4358718 4.4358718 4 5 4 L 19 4 C 19.564128 4 20 4.4358718 20 5 L 20 7 A 1 1 0 0 0 21 8 A 1 1 0 0 0 22 7 L 22 5 C 22 3.3549936 20.645006 2 19 2 L 5 2 z M 12 6 C 6.7967874 6 4.109375 11.546875 4.109375 11.546875 A 1.0001 1.0001 0 0 0 4.109375 12.453125 C 4.109375 12.453125 6.7967874 18 12 18 C 17.202381 18 19.890625 12.453125 19.890625 12.453125 A 1.0001 1.0001 0 0 0 19.890625 11.546875 C 19.890625 11.546875 17.202381 6 12 6 z M 12 8 C 15.328223 8 17.340141 11.268218 17.769531 12 C 17.340141 12.731782 15.328223 16 12 16 C 8.6701068 16 6.6571043 12.730827 6.2285156 12 C 6.6571043 11.269173 8.6701068 8 12 8 z M 12 10 C 11.416668 10 10.851892 10.254756 10.501953 10.648438 C 10.152014 11.042118 10 11.527778 10 12 C 10 12.472222 10.152014 12.957881 10.501953 13.351562 C 10.851892 13.745243 11.416668 14 12 14 C 12.583332 14 13.148108 13.745243 13.498047 13.351562 C 13.847986 12.957881 14 12.472222 14 12 C 14 11.527778 13.847986 11.042118 13.498047 10.648438 C 13.148108 10.254756 12.583332 10 12 10 z M 3 16 A 1 1 0 0 0 2 17 L 2 19 C 2 20.645006 3.3549936 22 5 22 L 19 22 C 20.645006 22 22 20.645006 22 19 L 22 17 A 1 1 0 0 0 21 16 A 1 1 0 0 0 20 17 L 20 19 C 20 19.564128 19.564128 20 19 20 L 5 20 C 4.4358718 20 4 19.564128 4 19 L 4 17 A 1 1 0 0 0 3 16 z "
     stroke-width="0" />
</svg>
