<?xml version="1.0" encoding="UTF-8" standalone="no"?>
<svg
   width="24"
   height="24"
   viewBox="0 0 24 24"
   fill="none"
   stroke="currentColor"
   stroke-width="2"
   stroke-linecap="round"
   stroke-linejoin="round"
   version="1.1"
   id="svg2"
   xmlns="http://www.w3.org/2000/svg"
   xmlns:svg="http://www.w3.org/2000/svg">
  <defs
     id="defs2" />
  <path
     id="circle1"
     style="color:#000000;fill:#000000;-inkscape-stroke:none"
     d="M 6 7 C 3.2504263 7 1 9.2504263 1 12 C 1 14.749573 3.2504263 17 6 17 L 18 17 C 20.749573 17 23 14.749573 23 12 C 23 9.2504263 20.749573 7 18 7 C 15.250427 7 13 9.2504263 13 12 C 13 13.123406 13.375917 14.162689 14.007812 15 L 9.9921875 15 C 10.624083 14.162689 11 13.123406 11 12 C 11 9.2504263 8.7495737 7 6 7 z M 6 9 C 7.6686955 9 9 10.331305 9 12 C 9 13.668695 7.6686955 15 6 15 C 4.3313045 15 3 13.668695 3 12 C 3 10.331305 4.3313045 9 6 9 z M 18 9 C 19.668695 9 21 10.331305 21 12 C 21 13.668695 19.668695 15 18 15 C 16.331305 15 15 13.668695 15 12 C 15 10.331305 16.331305 9 18 9 z "
     stroke-width="0" />
</svg>
