<?xml version="1.0" encoding="UTF-8" standalone="no"?>
<svg
   width="24"
   height="24"
   viewBox="0 0 24 24"
   fill="none"
   stroke="currentColor"
   stroke-width="2"
   stroke-linecap="round"
   stroke-linejoin="round"
   version="1.1"
   id="svg2"
   xmlns="http://www.w3.org/2000/svg"
   xmlns:svg="http://www.w3.org/2000/svg">
  <defs
     id="defs2" />
  <path
     id="polygon1"
     style="color:#000000;fill:#000000;-inkscape-stroke:none"
     d="M 18.914062 3.9414062 A 1 1 0 0 0 18.363281 4.2226562 A 1 1 0 0 0 18.363281 5.6367188 C 21.885078 9.1595792 21.885078 14.840421 18.363281 18.363281 A 1 1 0 0 0 18.363281 19.777344 A 1 1 0 0 0 19.777344 19.777344 C 24.06317 15.490222 24.06317 8.5097773 19.777344 4.2226562 A 1 1 0 0 0 18.914062 3.9414062 z M 11.074219 4.0039062 A 1.0001 1.0001 0 0 0 10.375 4.21875 L 5.6484375 8 L 2 8 A 1.0001 1.0001 0 0 0 1 9 L 1 15 A 1.0001 1.0001 0 0 0 2 16 L 5.6484375 16 L 10.375 19.78125 A 1.0001 1.0001 0 0 0 12 19 L 12 5 A 1.0001 1.0001 0 0 0 11.433594 4.0996094 A 1.0001 1.0001 0 0 0 11.074219 4.0039062 z M 10 7.0820312 L 10 16.917969 L 6.625 14.21875 A 1.0001 1.0001 0 0 0 6 14 L 3 14 L 3 10 L 6 10 A 1.0001 1.0001 0 0 0 6.625 9.78125 L 10 7.0820312 z M 15.541016 7.4589844 A 1 1 0 0 0 14.832031 7.7519531 A 1 1 0 0 0 14.832031 9.1679688 C 16.401923 10.738333 16.401923 13.2519 14.832031 14.822266 A 1 1 0 0 0 14.832031 16.236328 A 1 1 0 0 0 16.248047 16.236328 C 18.581968 13.901702 18.581968 10.088532 16.248047 7.7539062 A 1 1 0 0 0 15.541016 7.4589844 z "
     stroke-width="0" />
</svg>
