<?xml version="1.0" encoding="UTF-8" standalone="no"?>
<svg
   width="24"
   height="24"
   viewBox="0 0 24 24"
   fill="none"
   stroke="currentColor"
   stroke-width="2"
   stroke-linecap="round"
   stroke-linejoin="round"
   version="1.1"
   id="svg2"
   xmlns="http://www.w3.org/2000/svg"
   xmlns:svg="http://www.w3.org/2000/svg">
  <defs
     id="defs2" />
  <path
     id="polygon1"
     style="color:#000000;fill:#000000;-inkscape-stroke:none"
     d="M 11.074219 4.0039062 A 1.0001 1.0001 0 0 0 10.375 4.21875 L 5.6484375 8 L 2 8 A 1.0001 1.0001 0 0 0 1 9 L 1 15 A 1.0001 1.0001 0 0 0 2 16 L 5.6484375 16 L 10.375 19.78125 A 1.0001 1.0001 0 0 0 12 19 L 12 5 A 1.0001 1.0001 0 0 0 11.433594 4.0996094 A 1.0001 1.0001 0 0 0 11.074219 4.0039062 z M 10 7.0820312 L 10 16.917969 L 6.625 14.21875 A 1.0001 1.0001 0 0 0 6 14 L 3 14 L 3 10 L 6 10 A 1.0001 1.0001 0 0 0 6.625 9.78125 L 10 7.0820312 z M 16 8 A 1 1 0 0 0 15.292969 8.2929688 A 1 1 0 0 0 15.292969 9.7070312 L 17.585938 12 L 15.292969 14.292969 A 1 1 0 0 0 15.292969 15.707031 A 1 1 0 0 0 16.707031 15.707031 L 19 13.414062 L 21.292969 15.707031 A 1 1 0 0 0 22.707031 15.707031 A 1 1 0 0 0 22.707031 14.292969 L 20.414062 12 L 22.707031 9.7070312 A 1 1 0 0 0 22.707031 8.2929688 A 1 1 0 0 0 21.292969 8.2929688 L 19 10.585938 L 16.707031 8.2929688 A 1 1 0 0 0 16 8 z "
     stroke-width="0" />
</svg>
