<?xml version="1.0" encoding="UTF-8" standalone="no"?>
<svg
   width="24"
   height="24"
   viewBox="0 0 24 24"
   fill="none"
   stroke="currentColor"
   stroke-width="2"
   stroke-linecap="round"
   stroke-linejoin="round"
   version="1.1"
   id="svg2"
   xmlns="http://www.w3.org/2000/svg"
   xmlns:svg="http://www.w3.org/2000/svg">
  <defs
     id="defs2" />
  <path
     id="rect1"
     style="color:#000000;fill:#000000;-inkscape-stroke:none"
     d="M 5 2 C 3.3553005 2 2 3.3553005 2 5 L 2 11 L 2 19 C 2 20.644699 3.3553005 22 5 22 L 19 22 C 20.644699 22 22 20.644699 22 19 L 22 11 L 22 5 C 22 3.3553005 20.644699 2 19 2 L 5 2 z M 5 4 L 19 4 C 19.571296 4 20 4.4287039 20 5 L 20 6.1777344 C 19.686319 6.065156 19.350257 6 19 6 L 5 6 C 4.6497429 6 4.313681 6.065156 4 6.1777344 L 4 5 C 4 4.4287039 4.4287039 4 5 4 z M 5 8 L 19 8 C 19.564128 8 20 8.4358718 20 9 L 20 10 L 18.099609 10 C 16.997709 10 16.038842 10.479357 15.353516 11.138672 L 14.267578 12.025391 A 1.0001 1.0001 0 0 0 14.193359 12.09375 C 12.961647 13.325463 11.137963 13.325463 9.90625 12.09375 A 1.0001 1.0001 0 0 0 9.8339844 12.025391 L 8.8007812 11.181641 C 8.0714232 10.360737 7.0178141 10 6 10 L 4 10 L 4 9 C 4 8.4358718 4.4358718 8 5 8 z M 4 12 L 6 12 C 6.5499989 12 7.062918 12.218079 7.3320312 12.541016 A 1.0001 1.0001 0 0 0 7.4667969 12.673828 L 8.5332031 13.546875 C 10.490817 15.461861 13.608792 15.461861 15.566406 13.546875 L 16.632812 12.673828 A 1.0001 1.0001 0 0 0 16.707031 12.607422 C 17.018469 12.295988 17.632944 12 18.099609 12 L 20 12 L 20 19 C 20 19.571296 19.571296 20 19 20 L 5 20 C 4.4287039 20 4 19.571296 4 19 L 4 12 z "
     stroke-width="0" />
</svg>
