<?xml version="1.0" encoding="UTF-8" standalone="no"?>
<svg
   width="24"
   height="24"
   viewBox="0 0 24 24"
   fill="none"
   stroke="currentColor"
   stroke-width="2"
   stroke-linecap="round"
   stroke-linejoin="round"
   version="1.1"
   id="svg3"
   xmlns="http://www.w3.org/2000/svg"
   xmlns:svg="http://www.w3.org/2000/svg">
  <defs
     id="defs3" />
  <path
     id="path1"
     style="color:#000000;fill:#000000;-inkscape-stroke:none"
     d="M 9.5 4 C 7.9833364 4 6.9999988 4.718751 6.375 5.21875 C 5.7500012 5.718749 5.4833314 6 4.5 6 C 3.4564123 6 3.2406238 5.7324209 2.640625 5.2324219 A 1 1 0 0 0 1.2324219 5.359375 A 1 1 0 0 0 1.359375 6.7675781 C 1.9593738 7.2675771 2.9435929 8 4.5 8 C 6.0166636 8 7.0000012 7.281249 7.625 6.78125 C 8.2499988 6.281251 8.5166687 6 9.5 6 C 10.543588 6 10.759377 6.2675791 11.359375 6.7675781 C 11.959373 7.2675771 12.943593 8 14.5 8 C 16.016663 8 17.000002 7.281249 17.625 6.78125 C 18.249998 6.281251 18.516669 6 19.5 6 C 20.543588 6 20.759377 6.2675791 21.359375 6.7675781 A 1 1 0 0 0 22.767578 6.640625 A 1 1 0 0 0 22.640625 5.2324219 C 22.040627 4.7324229 21.056407 4 19.5 4 C 17.983337 4 16.999998 4.718751 16.375 5.21875 C 15.750002 5.718749 15.483331 6 14.5 6 C 13.456412 6 13.240623 5.7324209 12.640625 5.2324219 C 12.040627 4.7324229 11.056407 4 9.5 4 z M 9.5 10 C 7.9833364 10 6.9999988 10.718751 6.375 11.21875 C 5.7500012 11.718749 5.4833314 12 4.5 12 C 3.4564123 12 3.2406238 11.73242 2.640625 11.232422 A 1 1 0 0 0 1.2324219 11.359375 A 1 1 0 0 0 1.359375 12.767578 C 1.9593738 13.267578 2.9435929 14 4.5 14 C 6.0166636 14 7.0000012 13.281249 7.625 12.78125 C 8.2499988 12.281251 8.5166687 12 9.5 12 C 10.543588 12 10.759377 12.26758 11.359375 12.767578 C 11.959373 13.267578 12.943593 14 14.5 14 C 16.016663 14 17.000002 13.281249 17.625 12.78125 C 18.249998 12.281251 18.516669 12 19.5 12 C 20.543588 12 20.759377 12.26758 21.359375 12.767578 A 1 1 0 0 0 22.767578 12.640625 A 1 1 0 0 0 22.640625 11.232422 C 22.040627 10.732422 21.056407 10 19.5 10 C 17.983337 10 16.999998 10.718751 16.375 11.21875 C 15.750002 11.718749 15.483331 12 14.5 12 C 13.456412 12 13.240623 11.73242 12.640625 11.232422 C 12.040627 10.732422 11.056407 10 9.5 10 z M 9.5 16 C 7.9833364 16 6.9999988 16.71875 6.375 17.21875 C 5.7500012 17.71875 5.4833314 18 4.5 18 C 3.4564123 18 3.2406238 17.73242 2.640625 17.232422 A 1 1 0 0 0 1.2324219 17.359375 A 1 1 0 0 0 1.359375 18.767578 C 1.9593738 19.267578 2.9435929 20 4.5 20 C 6.0166636 20 7.0000012 19.28125 7.625 18.78125 C 8.2499988 18.28125 8.5166687 18 9.5 18 C 10.543588 18 10.759377 18.26758 11.359375 18.767578 C 11.959373 19.267578 12.943593 20 14.5 20 C 16.016663 20 17.000002 19.28125 17.625 18.78125 C 18.249998 18.28125 18.516669 18 19.5 18 C 20.543588 18 20.759377 18.26758 21.359375 18.767578 A 1 1 0 0 0 22.767578 18.640625 A 1 1 0 0 0 22.640625 17.232422 C 22.040627 16.732422 21.056407 16 19.5 16 C 17.983337 16 16.999998 16.71875 16.375 17.21875 C 15.750002 17.71875 15.483331 18 14.5 18 C 13.456412 18 13.240623 17.73242 12.640625 17.232422 C 12.040627 16.732422 11.056407 16 9.5 16 z "
     stroke-width="0" />
</svg>
