<?xml version="1.0" encoding="UTF-8" standalone="no"?>
<svg xmlns="http://www.w3.org/2000/svg" xmlns:svg="http://www.w3.org/2000/svg" width="24" height="24" viewBox="0 0 24 24" fill="currentColor" tags="camera,security" categories="connectivity,devices,communication">
  
  <path d="M 12 1 C 7.0412918 1 3 5.0412918 3 10 C 3 14.620517 6.5096277 18.443251 11 18.943359 L 11 21 L 7 21 A 1 1 0 0 0 6 22 A 1 1 0 0 0 7 23 L 12 23 L 17 23 A 1 1 0 0 0 18 22 A 1 1 0 0 0 17 21 L 13 21 L 13 18.943359 C 17.490372 18.443251 21 14.620517 21 10 C 21 5.0412918 16.958708 1 12 1 z M 12 3 C 15.87783 3 19 6.1221699 19 10 C 19 13.87783 15.87783 17 12 17 C 8.1221699 17 5 13.87783 5 10 C 5 6.1221699 8.1221699 3 12 3 z M 12 6 C 9.80271 6 8 7.80271 8 10 C 8 12.19729 9.80271 14 12 14 C 14.19729 14 16 12.19729 16 10 C 16 7.80271 14.19729 6 12 6 z M 12 8 C 13.116412 8 14 8.8835881 14 10 C 14 11.116412 13.116412 12 12 12 C 10.883588 12 10 11.116412 10 10 C 10 8.8835881 10.883588 8 12 8 z "/>
</svg>
