<?xml version="1.0" encoding="UTF-8" standalone="no"?>
<svg
   width="24"
   height="24"
   viewBox="0 0 24 24"
   fill="none"
   stroke="currentColor"
   stroke-width="2"
   stroke-linecap="round"
   stroke-linejoin="round"
   version="1.1"
   id="svg3"
   xmlns="http://www.w3.org/2000/svg"
   xmlns:svg="http://www.w3.org/2000/svg">
  <defs
     id="defs3" />
  <path
     id="path1"
     style="color:#000000;fill:#000000;-inkscape-stroke:none"
     d="M 12.164062 0.94335938 C 11.847467 0.94282864 11.53254 0.97296366 11.224609 1.03125 C 10.60875 1.1478227 10.017343 1.3761983 9.4824219 1.6914062 C 8.4125777 2.3218224 7.5404393 3.3152262 7.1542969 4.5566406 C 6.7681545 5.7980552 6.921856 7.2759659 7.78125 8.6503906 A 1.0001 1.0001 0 0 0 7.7929688 8.6660156 C 8.2932292 9.4330817 8.5050455 10.277028 8.2519531 10.740234 A 1.0001 1.0001 0 0 0 8.25 10.744141 L 5.1210938 16.523438 A 1 1 0 0 0 5.5234375 17.878906 A 1 1 0 0 0 6.8789062 17.476562 L 10.007812 11.699219 C 10.814718 10.222429 10.166534 8.6471491 9.4667969 7.5742188 L 9.4785156 7.5898438 C 8.8864365 6.642935 8.843721 5.853746 9.0625 5.1503906 C 9.281279 4.4470352 9.8143661 3.8169281 10.498047 3.4140625 C 11.181727 3.0111969 11.991608 2.8505849 12.712891 3 C 13.434173 3.1494151 14.103081 3.5681802 14.644531 4.5449219 A 1 1 0 0 0 16.003906 4.9355469 A 1 1 0 0 0 16.394531 3.5742188 C 15.608623 2.156492 14.390242 1.3047317 13.117188 1.0410156 C 12.798923 0.97508664 12.480658 0.94389011 12.164062 0.94335938 z M 11.892578 5.0058594 A 1 1 0 0 0 11.521484 5.1230469 A 1 1 0 0 0 11.123047 6.4785156 L 14.251953 12.208984 C 15.055039 13.678783 16.718184 14 18 14 C 19.083331 14 19.768561 14.370245 20.251953 14.914062 C 20.735346 15.457879 21 16.222224 21 17 C 21 17.777776 20.735346 18.542121 20.251953 19.085938 C 19.768561 19.629755 19.083331 20 18 20 A 1 1 0 0 0 17 21 A 1 1 0 0 0 18 22 C 19.583329 22 20.89811 21.370243 21.748047 20.414062 C 22.597984 19.457883 23 18.22222 23 17 C 23 15.77778 22.597984 14.542117 21.748047 13.585938 C 20.89811 12.629757 19.583329 12 18 12 C 17.08182 12 16.264725 11.720198 16.007812 11.25 L 12.876953 5.5214844 A 1 1 0 0 0 12.28125 5.0410156 A 1 1 0 0 0 11.892578 5.0058594 z M 2.7304688 14.013672 A 1 1 0 0 0 2.3398438 14.027344 A 1 1 0 0 0 1.71875 14.474609 C 1.2466394 15.240195 1.0124482 16.114954 1 16.986328 A 1.0001 1.0001 0 0 0 1 17 C 1.0007895 19.527921 2.7644922 21.344139 4.7890625 21.849609 C 6.8136328 22.35508 9.2231973 21.5805 10.412109 19.349609 L 10.40625 19.363281 C 10.851094 18.557526 11.479463 17.980469 12.009766 17.980469 L 18 17.980469 A 1 1 0 0 0 19 16.980469 A 1 1 0 0 0 18 15.980469 L 12.009766 15.980469 C 10.340071 15.980469 9.2694508 17.282243 8.6542969 18.396484 A 1.0001 1.0001 0 0 0 8.6484375 18.410156 C 7.878907 19.854114 6.5239238 20.222363 5.2734375 19.910156 C 4.0248242 19.598422 3.005517 18.637604 3.0019531 17.005859 C 3.0108967 16.480013 3.155381 15.957542 3.421875 15.525391 A 1 1 0 0 0 3.0957031 14.148438 A 1 1 0 0 0 2.7304688 14.013672 z "
     stroke-width="0" />
</svg>
