<?xml version="1.0" encoding="UTF-8" standalone="no"?>
<svg
   width="24"
   height="24"
   viewBox="0 0 24 24"
   fill="none"
   stroke="currentColor"
   stroke-width="2"
   stroke-linecap="round"
   stroke-linejoin="round"
   version="1.1"
   id="svg3"
   xmlns="http://www.w3.org/2000/svg"
   xmlns:svg="http://www.w3.org/2000/svg">
  <defs
     id="defs3" />
  <path
     id="circle1"
     style="color:#000000;fill:#000000;-inkscape-stroke:none"
     d="M 14 6 A 1 1 0 0 0 13 7 L 13 15 A 1 1 0 0 0 14 16 A 1 1 0 0 0 14.90625 15.402344 C 15.516665 15.780815 16.23404 16 17 16 C 19.19729 16 21 14.19729 21 12 C 21 9.80271 19.19729 8 17 8 C 16.273101 8 15.589553 8.1974217 15 8.5410156 L 15 7 A 1 1 0 0 0 14 6 z M 7 8 C 4.80271 8 3 9.80271 3 12 C 3 14.19729 4.80271 16 7 16 C 7.7644096 16 8.4802303 15.781358 9.0898438 15.404297 A 1 1 0 0 0 10 16 A 1 1 0 0 0 11 15 L 11 9 A 1 1 0 0 0 10 8 A 1 1 0 0 0 9.0898438 8.5957031 C 8.4802303 8.2186423 7.7644096 8 7 8 z M 7 10 C 8.1164119 10 9 10.883588 9 12 C 9 13.116412 8.1164119 14 7 14 C 5.8835881 14 5 13.116412 5 12 C 5 10.883588 5.8835881 10 7 10 z M 17 10 C 18.116412 10 19 10.883588 19 12 C 19 13.116412 18.116412 14 17 14 C 15.883588 14 15 13.116412 15 12 C 15 10.883588 15.883588 10 17 10 z M 2 16 A 1 1 0 0 0 1 17 L 1 18 C 1 18.583332 1.2608347 19.049898 1.6054688 19.394531 C 1.9501029 19.739166 2.4166679 20 3 20 L 21 20 C 21.583332 20 22.049898 19.739166 22.394531 19.394531 C 22.739166 19.049898 23 18.583332 23 18 L 23 17 A 1 1 0 0 0 22 16 A 1 1 0 0 0 21 17 L 21 18 L 3 18 L 3 17 A 1 1 0 0 0 2 16 z "
     stroke-width="0" />
</svg>
