<?xml version="1.0" encoding="UTF-8" standalone="no"?>
<svg
   width="24"
   height="24"
   viewBox="0 0 24 24"
   fill="none"
   stroke="currentColor"
   stroke-width="2"
   stroke-linecap="round"
   stroke-linejoin="round"
   version="1.1"
   id="svg3"
   xmlns="http://www.w3.org/2000/svg"
   xmlns:svg="http://www.w3.org/2000/svg">
  <defs
     id="defs3" />
  <path
     id="path1"
     style="color:#000000;fill:#000000;-inkscape-stroke:none"
     d="M 11.060547 3.0214844 C 10.27938 3.0064315 9.4888815 3.2862314 8.8867188 3.9003906 A 1 1 0 0 0 8.9003906 5.3144531 A 1 1 0 0 0 10.314453 5.3007812 C 10.842379 4.7623381 11.666017 4.9218788 11.953125 5.6191406 C 12.240233 6.3164025 11.767671 7.0105918 11.013672 7 A 1.0001 1.0001 0 0 0 11 7 L 2 7 A 1 1 0 0 0 1 8 A 1 1 0 0 0 2 9 L 10.986328 9 C 13.103317 9.0297385 14.60885 6.815129 13.802734 4.8574219 C 13.399678 3.8785683 12.540649 3.261896 11.597656 3.078125 C 11.420845 3.0436679 11.240816 3.0249581 11.060547 3.0214844 z M 19.316406 6.0195312 C 18.488562 6.0402662 17.661535 6.3491286 17.005859 6.9804688 A 1 1 0 0 0 16.980469 8.3945312 A 1 1 0 0 0 18.394531 8.4199219 C 19.178115 7.6654197 20.39833 7.9184703 20.818359 8.921875 C 21.23839 9.9252797 20.560063 10.971296 19.472656 11 L 2 11 A 1 1 0 0 0 1 12 A 1 1 0 0 0 2 13 L 19.5 13 A 1.0001 1.0001 0 0 0 19.527344 13 C 21.953752 12.93595 23.599357 10.387418 22.662109 8.1484375 C 22.19349 7.0289474 21.216999 6.3167588 20.138672 6.09375 C 19.86909 6.0379978 19.592354 6.0126196 19.316406 6.0195312 z M 2 15 A 1 1 0 0 0 1 16 A 1 1 0 0 0 2 17 L 14 17 A 1.0001 1.0001 0 0 0 14.013672 17 C 14.767671 16.98941 15.240233 17.683598 14.953125 18.380859 C 14.666017 19.078122 13.84238 19.237662 13.314453 18.699219 A 1 1 0 0 0 11.900391 18.685547 A 1 1 0 0 0 11.886719 20.099609 C 13.368965 21.611386 15.99662 21.100285 16.802734 19.142578 C 17.60885 17.184869 16.103317 14.970262 13.986328 15 L 2 15 z "
     stroke-width="0" />
</svg>
