<?xml version="1.0" encoding="UTF-8" standalone="no"?>
<svg
   width="24"
   height="24"
   viewBox="0 0 24 24"
   fill="none"
   stroke="currentColor"
   stroke-width="2"
   stroke-linecap="round"
   stroke-linejoin="round"
   version="1.1"
   id="svg4"
   xmlns="http://www.w3.org/2000/svg"
   xmlns:svg="http://www.w3.org/2000/svg">
  <defs
     id="defs4" />
  <path
     id="path1"
     style="color:#000000;fill:#000000;-inkscape-stroke:none"
     d="M 2 1 A 1 1 0 0 0 1.2929688 1.2929688 A 1 1 0 0 0 1.2929688 2.7070312 L 6.2226562 7.6367188 C 6.0796792 8.4151641 6.0026741 9.2035863 6 9.9960938 A 1 1 0 0 0 6 10 C 6.0001568 13.076223 8.2887583 15.41077 11 15.898438 L 11 21 L 8 21 A 1 1 0 0 0 7 22 A 1 1 0 0 0 8 23 L 16 23 A 1 1 0 0 0 17 22 A 1 1 0 0 0 16 21 L 13 21 L 13 15.916016 C 13.394472 15.850857 13.787446 15.741584 14.175781 15.589844 L 21.292969 22.707031 A 1 1 0 0 0 22.707031 22.707031 A 1 1 0 0 0 22.707031 21.292969 L 10.707031 9.2929688 L 7.9863281 6.5742188 L 2.7070312 1.2929688 A 1 1 0 0 0 2 1 z M 9 1 A 1.0001 1.0001 0 0 0 8.0644531 1.6484375 C 7.9355565 1.9908194 7.8122124 2.3232962 7.6972656 2.6445312 A 1 1 0 0 0 8.3007812 3.921875 A 1 1 0 0 0 9.5800781 3.3183594 C 9.6159934 3.2179892 9.6590866 3.1042254 9.6972656 3 L 14.279297 3 C 15.291899 5.7711444 15.793395 7.5267131 15.947266 9 L 15.65625 9 A 1 1 0 0 0 14.65625 10 A 1 1 0 0 0 15.65625 11 L 15.880859 11 A 1 1 0 0 0 16.617188 12.169922 A 1 1 0 0 0 17.826172 11.435547 C 17.939657 10.970857 18 10.4889 18 10 C 18 7.8333377 17.44837 5.6826333 15.935547 1.6484375 A 1.0001 1.0001 0 0 0 15 1 L 9 1 z M 8.1210938 11 L 9.5859375 11 L 12.558594 13.972656 C 12.425356 13.993116 12.292493 14.006933 12.160156 14.013672 A 1 1 0 0 0 12 14 A 1 1 0 0 0 11.847656 14.019531 C 10.113583 13.969677 8.5544361 12.772784 8.1210938 11 z "
     stroke-width="0" />
</svg>
