<?xml version="1.0" encoding="UTF-8" standalone="no"?>
<svg xmlns="http://www.w3.org/2000/svg" xmlns:svg="http://www.w3.org/2000/svg" width="24" height="24" viewBox="0 0 24 24" fill="currentColor" tags="words,lines,break,paragraph" categories="text,arrows">
  
  <path d="M 3 5 A 1 1 0 0 0 2 6 A 1 1 0 0 0 3 7 L 21 7 A 1 1 0 0 0 22 6 A 1 1 0 0 0 21 5 L 3 5 z M 3 11 A 1 1 0 0 0 2 12 A 1 1 0 0 0 3 13 L 18 13 C 18.749998 13 19.185226 13.245245 19.501953 13.601562 C 19.81868 13.957879 20 14.472224 20 15 C 20 15.527776 19.81868 16.042121 19.501953 16.398438 C 19.185226 16.754755 18.749998 17 18 17 L 16.414062 17 L 16.707031 16.707031 A 1 1 0 0 0 16.707031 15.292969 A 1 1 0 0 0 15.292969 15.292969 L 13.292969 17.292969 A 1.0001 1.0001 0 0 0 13.097656 17.583984 A 1 1 0 0 0 13.072266 17.638672 A 1.0001 1.0001 0 0 0 13.005859 17.970703 A 1 1 0 0 0 13 18 A 1 1 0 0 0 13.005859 18.029297 A 1.0001 1.0001 0 0 0 13.072266 18.361328 A 1 1 0 0 0 13.097656 18.416016 A 1.0001 1.0001 0 0 0 13.292969 18.707031 L 15.292969 20.707031 A 1 1 0 0 0 16.707031 20.707031 A 1 1 0 0 0 16.707031 19.292969 L 16.414062 19 L 18 19 C 19.249997 19 20.314776 18.495244 20.998047 17.726562 C 21.681318 16.957882 22 15.97222 22 15 C 22 14.02778 21.681318 13.042118 20.998047 12.273438 C 20.314776 11.504756 19.249997 11 18 11 L 3 11 z M 3 17 A 1 1 0 0 0 2 18 A 1 1 0 0 0 3 19 L 10 19 A 1 1 0 0 0 11 18 A 1 1 0 0 0 10 17 L 3 17 z "/>
</svg>
