<?xml version="1.0" encoding="UTF-8" standalone="no"?>
<svg
   width="24"
   height="24"
   viewBox="0 0 24 24"
   fill="none"
   stroke="currentColor"
   stroke-width="2"
   stroke-linecap="round"
   stroke-linejoin="round"
   version="1.1"
   id="svg2"
   xmlns="http://www.w3.org/2000/svg"
   xmlns:svg="http://www.w3.org/2000/svg">
  <defs
     id="defs2" />
  <path
     id="polygon1"
     style="color:#000000;fill:#000000;-inkscape-stroke:none"
     d="M 7.859375 1 A 1.0001 1.0001 0 0 0 7.1523438 1.2929688 L 1.2929688 7.1523438 A 1.0001 1.0001 0 0 0 1 7.859375 L 1 16.140625 A 1.0001 1.0001 0 0 0 1.2929688 16.847656 L 7.1523438 22.707031 A 1.0001 1.0001 0 0 0 7.859375 23 L 16.140625 23 A 1.0001 1.0001 0 0 0 16.847656 22.707031 L 22.707031 16.847656 A 1.0001 1.0001 0 0 0 23 16.140625 L 23 7.859375 A 1.0001 1.0001 0 0 0 22.707031 7.1523438 L 16.847656 1.2929688 A 1.0001 1.0001 0 0 0 16.140625 1 L 7.859375 1 z M 8.2734375 3 L 15.726562 3 L 21 8.2734375 L 21 15.726562 L 15.726562 21 L 8.2734375 21 L 3 15.726562 L 3 8.2734375 L 8.2734375 3 z M 9 8 A 1 1 0 0 0 8.2929688 8.2929688 A 1 1 0 0 0 8.2929688 9.7070312 L 10.585938 12 L 8.2929688 14.292969 A 1 1 0 0 0 8.2929688 15.707031 A 1 1 0 0 0 9.7070312 15.707031 L 12 13.414062 L 14.292969 15.707031 A 1 1 0 0 0 15.707031 15.707031 A 1 1 0 0 0 15.707031 14.292969 L 13.414062 12 L 15.707031 9.7070312 A 1 1 0 0 0 15.707031 8.2929688 A 1 1 0 0 0 15 8 A 1 1 0 0 0 14.292969 8.2929688 L 12 10.585938 L 9.7070312 8.2929688 A 1 1 0 0 0 9 8 z "
     stroke-width="0" />
</svg>
