<?xml version="1.0" encoding="UTF-8" standalone="no"?>
<svg
   width="24"
   height="24"
   viewBox="0 0 24 24"
   fill="none"
   stroke="currentColor"
   stroke-width="2"
   stroke-linecap="round"
   stroke-linejoin="round"
   version="1.1"
   id="svg3"
   xmlns="http://www.w3.org/2000/svg"
   xmlns:svg="http://www.w3.org/2000/svg">
  <defs
     id="defs3" />
  <path
     id="polyline1"
     style="color:#000000;fill:#000000;-inkscape-stroke:none"
     d="M 2 1 A 1 1 0 0 0 1.2929688 1.2929688 A 1 1 0 0 0 1.2929688 2.7070312 L 6.6464844 8.0605469 L 2.2324219 13.359375 A 1.0001 1.0001 0 0 0 3 15 L 10.867188 15 L 10.007812 21.875 A 1.0001 1.0001 0 0 0 11.767578 22.640625 L 16.066406 17.480469 L 21.292969 22.707031 A 1 1 0 0 0 22.707031 22.707031 A 1 1 0 0 0 22.707031 21.292969 L 16.734375 15.322266 L 8.734375 7.3222656 L 2.7070312 1.2929688 A 1 1 0 0 0 2 1 z M 12.980469 1 A 1.0001 1.0001 0 0 0 12.230469 1.359375 L 9.8007812 4.28125 A 1 1 0 0 0 9.9296875 5.6894531 A 1 1 0 0 0 11.337891 5.5605469 L 11.587891 5.2597656 L 11.417969 6.6269531 A 1 1 0 0 0 12.287109 7.7421875 A 1 1 0 0 0 13.402344 6.8730469 L 13.992188 2.1230469 A 1.0001 1.0001 0 0 0 12.980469 1 z M 15.660156 9 A 1 1 0 0 0 14.660156 10 A 1 1 0 0 0 15.660156 11 L 18.863281 11 L 17.802734 12.269531 A 1 1 0 0 0 17.929688 13.677734 A 1 1 0 0 0 19.337891 13.550781 L 21.767578 10.640625 A 1.0001 1.0001 0 0 0 21 9 L 15.660156 9 z M 8.0664062 9.4804688 L 11.585938 13 L 5.1347656 13 L 8.0664062 9.4804688 z M 12.960938 14.375 L 14.648438 16.0625 L 12.416016 18.740234 L 12.960938 14.375 z "
     stroke-width="0" />
</svg>
