<?xml version="1.0" encoding="UTF-8" standalone="no"?>
<svg
   width="24"
   height="24"
   viewBox="0 0 24 24"
   fill="none"
   stroke="currentColor"
   stroke-width="2"
   stroke-linecap="round"
   stroke-linejoin="round"
   version="1.1"
   id="svg1"
   xmlns="http://www.w3.org/2000/svg"
   xmlns:svg="http://www.w3.org/2000/svg">
  <defs
     id="defs1" />
  <path
     id="polygon1"
     style="color:#000000;fill:#000000;-inkscape-stroke:none"
     d="M 12.980469 1 A 1.0001 1.0001 0 0 0 12.232422 1.359375 L 2.2324219 13.359375 A 1.0001 1.0001 0 0 0 3 15 L 10.867188 15 L 10.007812 21.875 A 1.0001 1.0001 0 0 0 11.767578 22.640625 L 21.767578 10.640625 A 1.0001 1.0001 0 0 0 21 9 L 13.132812 9 L 13.992188 2.125 A 1.0001 1.0001 0 0 0 12.980469 1 z M 11.583984 5.2597656 L 11.007812 9.875 A 1.0001 1.0001 0 0 0 12 11 L 18.865234 11 L 12.416016 18.740234 L 12.992188 14.125 A 1.0001 1.0001 0 0 0 12 13 L 5.1347656 13 L 11.583984 5.2597656 z "
     stroke-width="0" />
</svg>
