<?xml version="1.0" encoding="UTF-8" standalone="no"?>
<svg
   width="24"
   height="24"
   viewBox="0 0 24 24"
   fill="none"
   stroke="currentColor"
   stroke-width="2"
   stroke-linecap="round"
   stroke-linejoin="round"
   version="1.1"
   id="svg2"
   xmlns="http://www.w3.org/2000/svg"
   xmlns:svg="http://www.w3.org/2000/svg">
  <defs
     id="defs2" />
  <path
     id="circle1"
     style="color:#000000;fill:#000000;-inkscape-stroke:none"
     d="M 11 2 C 6.0412918 2 2 6.0412918 2 11 C 2 15.958708 6.0412918 20 11 20 C 13.120209 20 15.07075 19.258847 16.611328 18.025391 L 20.292969 21.707031 A 1 1 0 0 0 21.707031 21.707031 A 1 1 0 0 0 21.707031 20.292969 L 18.025391 16.611328 C 19.258847 15.07075 20 13.120209 20 11 C 20 6.0412918 15.958708 2 11 2 z M 11 4 C 14.87783 4 18 7.1221699 18 11 C 18 12.902014 17.248375 14.621676 16.025391 15.880859 A 1 1 0 0 0 15.943359 15.943359 A 1 1 0 0 0 15.880859 16.025391 C 14.621676 17.248375 12.902014 18 11 18 C 7.1221699 18 4 14.87783 4 11 C 4 7.1221699 7.1221699 4 11 4 z M 8 10 A 1 1 0 0 0 7 11 A 1 1 0 0 0 8 12 L 14 12 A 1 1 0 0 0 15 11 A 1 1 0 0 0 14 10 L 8 10 z "
     stroke-width="0" />
</svg>
